<?xml version="1.0" encoding="UTF-8" standalone="no"?>
<!DOCTYPE svg PUBLIC "-//W3C//DTD SVG 1.1//EN"
 "http://www.w3.org/Graphics/SVG/1.1/DTD/svg11.dtd">
<!-- Generated by graphviz version 2.49.3 (20211027.1534)
 -->
<!-- Title: v8::GlobalValueMap::Set Pages: 1 -->
<svg width="664pt" height="225pt"
 viewBox="0.00 0.00 664.00 224.50" xmlns="http://www.w3.org/2000/svg" xmlns:xlink="http://www.w3.org/1999/xlink">
<g id="graph0" class="graph" transform="scale(1 1) rotate(0) translate(4 220.5)">
<title>v8::GlobalValueMap::Set</title>
<polygon fill="white" stroke="transparent" points="-4,4 -4,-220.5 660,-220.5 660,4 -4,4"/>
<!-- Node1 -->
<g id="node1" class="node">
<title>Node1</title>
<g id="a_node1"><a xlink:title=" ">
<polygon fill="#bfbfbf" stroke="black" points="0,-141.5 0,-160.5 122,-160.5 122,-141.5 0,-141.5"/>
<text text-anchor="middle" x="61" y="-148.5" font-family="Helvetica,sans-Serif" font-size="10.00">v8::GlobalValueMap::Set</text>
</a>
</g>
</g>
<!-- Node2 -->
<g id="node2" class="node">
<title>Node2</title>
<g id="a_node2"><a xlink:href="classv8_1_1PersistentValueMapBase.html#adacf68ca7b9fb19deab68711a70a8313" target="_top" xlink:title=" ">
<polygon fill="white" stroke="black" points="158,-161 158,-191 300,-191 300,-161 158,-161"/>
<text text-anchor="start" x="166" y="-179" font-family="Helvetica,sans-Serif" font-size="10.00">v8::PersistentValueMapBase</text>
<text text-anchor="middle" x="229" y="-168" font-family="Helvetica,sans-Serif" font-size="10.00">::Leak</text>
</a>
</g>
</g>
<!-- Node1&#45;&gt;Node2 -->
<g id="edge1" class="edge">
<title>Node1&#45;&gt;Node2</title>
<path fill="none" stroke="midnightblue" d="M122.4,-160.1C130.66,-161.34 139.25,-162.63 147.79,-163.92"/>
<polygon fill="midnightblue" stroke="midnightblue" points="147.38,-167.4 157.79,-165.43 148.42,-160.48 147.38,-167.4"/>
</g>
<!-- Node3 -->
<g id="node3" class="node">
<title>Node3</title>
<g id="a_node3"><a xlink:href="classv8_1_1GlobalValueMap.html#a5c9f97a40e657b8b0b334d25559f0a4d" target="_top" xlink:title=" ">
<polygon fill="white" stroke="black" points="177.5,-112 177.5,-142 280.5,-142 280.5,-112 177.5,-112"/>
<text text-anchor="start" x="185.5" y="-130" font-family="Helvetica,sans-Serif" font-size="10.00">v8::GlobalValueMap</text>
<text text-anchor="middle" x="229" y="-119" font-family="Helvetica,sans-Serif" font-size="10.00">::SetUnique</text>
</a>
</g>
</g>
<!-- Node1&#45;&gt;Node3 -->
<g id="edge2" class="edge">
<title>Node1&#45;&gt;Node3</title>
<path fill="none" stroke="midnightblue" d="M122.4,-142.27C137.09,-140.14 152.8,-137.87 167.49,-135.75"/>
<polygon fill="midnightblue" stroke="midnightblue" points="168.08,-139.2 177.47,-134.31 167.08,-132.27 168.08,-139.2"/>
</g>
<!-- Node4 -->
<g id="node4" class="node">
<title>Node4</title>
<g id="a_node4"><a xlink:href="classv8_1_1PersistentValueMapBase.html#a7b083c75829bbc4177729ffe9827c4ac" target="_top" xlink:title=" ">
<polygon fill="white" stroke="black" points="336,-186 336,-216 478,-216 478,-186 336,-186"/>
<text text-anchor="start" x="344" y="-204" font-family="Helvetica,sans-Serif" font-size="10.00">v8::PersistentValueMapBase</text>
<text text-anchor="middle" x="407" y="-193" font-family="Helvetica,sans-Serif" font-size="10.00">::ClearAndLeak</text>
</a>
</g>
</g>
<!-- Node3&#45;&gt;Node4 -->
<g id="edge3" class="edge">
<title>Node3&#45;&gt;Node4</title>
<path fill="none" stroke="midnightblue" d="M277.41,-142.01C285.11,-144.99 292.88,-148.34 300,-152 317.32,-160.91 318.62,-168.2 336,-177 339.51,-178.78 343.18,-180.47 346.93,-182.08"/>
<polygon fill="midnightblue" stroke="midnightblue" points="345.75,-185.38 356.34,-185.89 348.38,-178.89 345.75,-185.38"/>
</g>
<!-- Node5 -->
<g id="node5" class="node">
<title>Node5</title>
<g id="a_node5"><a xlink:href="classv8_1_1PersistentValueMapBase.html#a149e5b7f40fa52dc9b379342ac802d94" target="_top" xlink:title=" ">
<polygon fill="white" stroke="black" points="336,-137 336,-167 478,-167 478,-137 336,-137"/>
<text text-anchor="start" x="344" y="-155" font-family="Helvetica,sans-Serif" font-size="10.00">v8::PersistentValueMapBase</text>
<text text-anchor="middle" x="407" y="-144" font-family="Helvetica,sans-Serif" font-size="10.00">::impl</text>
</a>
</g>
</g>
<!-- Node3&#45;&gt;Node5 -->
<g id="edge4" class="edge">
<title>Node3&#45;&gt;Node5</title>
<path fill="none" stroke="midnightblue" d="M280.91,-134.23C294.98,-136.23 310.6,-138.45 325.91,-140.62"/>
<polygon fill="midnightblue" stroke="midnightblue" points="325.5,-144.1 335.9,-142.04 326.49,-137.17 325.5,-144.1"/>
</g>
<!-- Node6 -->
<g id="node6" class="node">
<title>Node6</title>
<g id="a_node6"><a xlink:href="classv8_1_1PersistentValueMapBase.html#ac15c999275fb50c0084246cb9a848811" target="_top" xlink:title=" ">
<polygon fill="white" stroke="black" points="336,-88 336,-118 478,-118 478,-88 336,-88"/>
<text text-anchor="start" x="344" y="-106" font-family="Helvetica,sans-Serif" font-size="10.00">v8::PersistentValueMapBase</text>
<text text-anchor="middle" x="407" y="-95" font-family="Helvetica,sans-Serif" font-size="10.00">::isolate</text>
</a>
</g>
</g>
<!-- Node3&#45;&gt;Node6 -->
<g id="edge5" class="edge">
<title>Node3&#45;&gt;Node6</title>
<path fill="none" stroke="midnightblue" d="M280.91,-120.06C294.98,-118.14 310.6,-116.01 325.91,-113.92"/>
<polygon fill="midnightblue" stroke="midnightblue" points="326.46,-117.38 335.9,-112.56 325.52,-110.44 326.46,-117.38"/>
</g>
<!-- Node7 -->
<g id="node7" class="node">
<title>Node7</title>
<g id="a_node7"><a xlink:href="classv8_1_1PersistentValueMapBase.html#aea9af944a2bd71a3b6abd2a2e57788f1" target="_top" xlink:title=" ">
<polygon fill="white" stroke="black" points="336,-39 336,-69 478,-69 478,-39 336,-39"/>
<text text-anchor="start" x="344" y="-57" font-family="Helvetica,sans-Serif" font-size="10.00">v8::PersistentValueMapBase</text>
<text text-anchor="middle" x="407" y="-46" font-family="Helvetica,sans-Serif" font-size="10.00">::Release</text>
</a>
</g>
</g>
<!-- Node3&#45;&gt;Node7 -->
<g id="edge6" class="edge">
<title>Node3&#45;&gt;Node7</title>
<path fill="none" stroke="midnightblue" d="M261.71,-111.82C282.62,-102.01 310.72,-89.22 336,-79 341.37,-76.83 347,-74.66 352.64,-72.54"/>
<polygon fill="midnightblue" stroke="midnightblue" points="353.93,-75.8 362.1,-69.05 351.51,-69.23 353.93,-75.8"/>
</g>
<!-- Node8 -->
<g id="node8" class="node">
<title>Node8</title>
<g id="a_node8"><a xlink:href="classv8_1_1PersistentValueMapBase.html#abb262f768e4353658726ba4d1295947c" target="_top" xlink:title=" ">
<polygon fill="white" stroke="black" points="514,-88 514,-118 656,-118 656,-88 514,-88"/>
<text text-anchor="start" x="522" y="-106" font-family="Helvetica,sans-Serif" font-size="10.00">v8::PersistentValueMapBase</text>
<text text-anchor="middle" x="585" y="-95" font-family="Helvetica,sans-Serif" font-size="10.00">::FromVal</text>
</a>
</g>
</g>
<!-- Node7&#45;&gt;Node8 -->
<g id="edge7" class="edge">
<title>Node7&#45;&gt;Node8</title>
<path fill="none" stroke="midnightblue" d="M462.24,-69.1C480.56,-74.2 501.18,-79.94 520.17,-85.23"/>
<polygon fill="midnightblue" stroke="midnightblue" points="519.36,-88.64 529.94,-87.95 521.24,-81.89 519.36,-88.64"/>
</g>
<!-- Node9 -->
<g id="node9" class="node">
<title>Node9</title>
<g id="a_node9"><a xlink:href="classv8_1_1PersistentBase.html#a479c7b146da083aa608e133a7dec79f9" target="_top" xlink:title=" ">
<polygon fill="white" stroke="black" points="536,-39 536,-69 634,-69 634,-39 536,-39"/>
<text text-anchor="start" x="544" y="-57" font-family="Helvetica,sans-Serif" font-size="10.00">v8::PersistentBase</text>
<text text-anchor="middle" x="585" y="-46" font-family="Helvetica,sans-Serif" font-size="10.00">::IsWeak</text>
</a>
</g>
</g>
<!-- Node7&#45;&gt;Node9 -->
<g id="edge8" class="edge">
<title>Node7&#45;&gt;Node9</title>
<path fill="none" stroke="midnightblue" d="M478.07,-54C493.8,-54 510.33,-54 525.53,-54"/>
<polygon fill="midnightblue" stroke="midnightblue" points="525.82,-57.5 535.82,-54 525.82,-50.5 525.82,-57.5"/>
</g>
<!-- Node10 -->
<g id="node10" class="node">
<title>Node10</title>
<g id="a_node10"><a xlink:href="classv8_1_1Global.html#a914903149cc752468d4a3a11b6089c7e" target="_top" xlink:title=" ">
<polygon fill="white" stroke="black" points="542,-0.5 542,-19.5 628,-19.5 628,-0.5 542,-0.5"/>
<text text-anchor="middle" x="585" y="-7.5" font-family="Helvetica,sans-Serif" font-size="10.00">v8::Global::Pass</text>
</a>
</g>
</g>
<!-- Node7&#45;&gt;Node10 -->
<g id="edge9" class="edge">
<title>Node7&#45;&gt;Node10</title>
<path fill="none" stroke="midnightblue" d="M468.08,-38.98C490.24,-33.44 515.04,-27.24 536,-22"/>
<polygon fill="midnightblue" stroke="midnightblue" points="537.1,-25.33 545.95,-19.51 535.4,-18.54 537.1,-25.33"/>
</g>
</g>
</svg>
