<?xml version="1.0" encoding="UTF-8" standalone="no"?>
<!DOCTYPE svg PUBLIC "-//W3C//DTD SVG 1.1//EN"
 "http://www.w3.org/Graphics/SVG/1.1/DTD/svg11.dtd">
<!-- Generated by graphviz version 2.49.3 (20211027.1534)
 -->
<!-- Title: include/cppgc/common.h Pages: 1 -->
<svg width="1004pt" height="397pt"
 viewBox="0.00 0.00 1003.50 397.00" xmlns="http://www.w3.org/2000/svg" xmlns:xlink="http://www.w3.org/1999/xlink">
<g id="graph0" class="graph" transform="scale(1 1) rotate(0) translate(4 393)">
<title>include/cppgc/common.h</title>
<polygon fill="white" stroke="transparent" points="-4,4 -4,-393 999.5,-393 999.5,4 -4,4"/>
<!-- Node1 -->
<g id="node1" class="node">
<title>Node1</title>
<g id="a_node1"><a xlink:title=" ">
<polygon fill="#bfbfbf" stroke="black" points="342,-369.5 342,-388.5 467,-388.5 467,-369.5 342,-369.5"/>
<text text-anchor="middle" x="404.5" y="-376.5" font-family="Helvetica,sans-Serif" font-size="10.00">include/cppgc/common.h</text>
</a>
</g>
</g>
<!-- Node2 -->
<g id="node2" class="node">
<title>Node2</title>
<g id="a_node2"><a xlink:href="heap_8h.html" target="_top" xlink:title=" ">
<polygon fill="white" stroke="black" points="155.5,-313.5 155.5,-332.5 263.5,-332.5 263.5,-313.5 155.5,-313.5"/>
<text text-anchor="middle" x="209.5" y="-320.5" font-family="Helvetica,sans-Serif" font-size="10.00">include/cppgc/heap.h</text>
</a>
</g>
</g>
<!-- Node1&#45;&gt;Node2 -->
<g id="edge1" class="edge">
<title>Node1&#45;&gt;Node2</title>
<path fill="none" stroke="midnightblue" d="M363.69,-366.7C326.89,-356.51 273.57,-341.74 240.25,-332.52"/>
<polygon fill="midnightblue" stroke="midnightblue" points="363.03,-370.15 373.6,-369.44 364.9,-363.4 363.03,-370.15"/>
</g>
<!-- Node10 -->
<g id="node10" class="node">
<title>Node10</title>
<g id="a_node10"><a xlink:href="v8-cppgc_8h.html" target="_top" xlink:title=" ">
<polygon fill="white" stroke="black" points="332.5,-67.5 332.5,-86.5 430.5,-86.5 430.5,-67.5 332.5,-67.5"/>
<text text-anchor="middle" x="381.5" y="-74.5" font-family="Helvetica,sans-Serif" font-size="10.00">include/v8&#45;cppgc.h</text>
</a>
</g>
</g>
<!-- Node1&#45;&gt;Node10 -->
<g id="edge15" class="edge">
<title>Node1&#45;&gt;Node10</title>
<path fill="none" stroke="midnightblue" d="M393.58,-360.63C380.84,-338.65 361.5,-299.24 361.5,-262.5 361.5,-262.5 361.5,-262.5 361.5,-193.5 361.5,-153 373.59,-105.67 378.97,-86.61"/>
<polygon fill="midnightblue" stroke="midnightblue" points="390.72,-362.66 398.88,-369.42 396.72,-359.05 390.72,-362.66"/>
</g>
<!-- Node11 -->
<g id="node11" class="node">
<title>Node11</title>
<g id="a_node11"><a xlink:href="testing_8h.html" target="_top" xlink:title=" ">
<polygon fill="white" stroke="black" points="389.5,-313.5 389.5,-332.5 505.5,-332.5 505.5,-313.5 389.5,-313.5"/>
<text text-anchor="middle" x="447.5" y="-320.5" font-family="Helvetica,sans-Serif" font-size="10.00">include/cppgc/testing.h</text>
</a>
</g>
</g>
<!-- Node1&#45;&gt;Node11 -->
<g id="edge14" class="edge">
<title>Node1&#45;&gt;Node11</title>
<path fill="none" stroke="midnightblue" d="M417.92,-361.14C425.41,-351.74 434.44,-340.4 440.53,-332.75"/>
<polygon fill="midnightblue" stroke="midnightblue" points="415.09,-359.08 411.6,-369.08 420.57,-363.44 415.09,-359.08"/>
</g>
<!-- Node12 -->
<g id="node12" class="node">
<title>Node12</title>
<g id="a_node12"><a xlink:href="v8_8h.html" target="_top" xlink:title=" ">
<polygon fill="white" stroke="black" points="563.5,-313.5 563.5,-332.5 631.5,-332.5 631.5,-313.5 563.5,-313.5"/>
<text text-anchor="middle" x="597.5" y="-320.5" font-family="Helvetica,sans-Serif" font-size="10.00">include/v8.h</text>
</a>
</g>
</g>
<!-- Node1&#45;&gt;Node12 -->
<g id="edge16" class="edge">
<title>Node1&#45;&gt;Node12</title>
<path fill="none" stroke="midnightblue" d="M444.89,-366.7C481.32,-356.51 534.09,-341.74 567.06,-332.52"/>
<polygon fill="midnightblue" stroke="midnightblue" points="443.77,-363.38 435.08,-369.44 445.65,-370.12 443.77,-363.38"/>
</g>
<!-- Node3 -->
<g id="node3" class="node">
<title>Node3</title>
<g id="a_node3"><a xlink:href="prefinalizer-handler_8h.html" target="_top" xlink:title=" ">
<polygon fill="white" stroke="black" points="0,-179.5 0,-209.5 111,-209.5 111,-179.5 0,-179.5"/>
<text text-anchor="start" x="8" y="-197.5" font-family="Helvetica,sans-Serif" font-size="10.00">include/cppgc/internal</text>
<text text-anchor="middle" x="55.5" y="-186.5" font-family="Helvetica,sans-Serif" font-size="10.00">/prefinalizer&#45;handler.h</text>
</a>
</g>
</g>
<!-- Node2&#45;&gt;Node3 -->
<g id="edge2" class="edge">
<title>Node2&#45;&gt;Node3</title>
<path fill="none" stroke="midnightblue" d="M186.89,-308.11C173.6,-299.63 156.66,-288.27 142.5,-277 115.13,-255.22 85.98,-226.68 69.33,-209.79"/>
<polygon fill="midnightblue" stroke="midnightblue" points="185.11,-311.12 195.44,-313.49 188.84,-305.2 185.11,-311.12"/>
</g>
<!-- Node5 -->
<g id="node5" class="node">
<title>Node5</title>
<g id="a_node5"><a xlink:href="liveness-broker_8h.html" target="_top" xlink:title=" ">
<polygon fill="white" stroke="black" points="151.5,-246.5 151.5,-276.5 267.5,-276.5 267.5,-246.5 151.5,-246.5"/>
<text text-anchor="start" x="159.5" y="-264.5" font-family="Helvetica,sans-Serif" font-size="10.00">include/cppgc/liveness</text>
<text text-anchor="middle" x="209.5" y="-253.5" font-family="Helvetica,sans-Serif" font-size="10.00">&#45;broker.h</text>
</a>
</g>
</g>
<!-- Node2&#45;&gt;Node5 -->
<g id="edge4" class="edge">
<title>Node2&#45;&gt;Node5</title>
<path fill="none" stroke="midnightblue" d="M209.5,-303.23C209.5,-294.59 209.5,-284.5 209.5,-276.52"/>
<polygon fill="midnightblue" stroke="midnightblue" points="206,-303.48 209.5,-313.48 213,-303.48 206,-303.48"/>
</g>
<!-- Node4 -->
<g id="node4" class="node">
<title>Node4</title>
<g id="a_node4"><a xlink:href="prefinalizer_8h.html" target="_top" xlink:title=" ">
<polygon fill="white" stroke="black" points="7,-123.5 7,-142.5 140,-142.5 140,-123.5 7,-123.5"/>
<text text-anchor="middle" x="73.5" y="-130.5" font-family="Helvetica,sans-Serif" font-size="10.00">include/cppgc/prefinalizer.h</text>
</a>
</g>
</g>
<!-- Node3&#45;&gt;Node4 -->
<g id="edge3" class="edge">
<title>Node3&#45;&gt;Node4</title>
<path fill="none" stroke="midnightblue" d="M62.73,-169.59C65.61,-160.08 68.74,-149.73 70.88,-142.66"/>
<polygon fill="midnightblue" stroke="midnightblue" points="59.31,-168.81 59.77,-179.4 66.01,-170.84 59.31,-168.81"/>
</g>
<!-- Node5&#45;&gt;Node3 -->
<g id="edge11" class="edge">
<title>Node5&#45;&gt;Node3</title>
<path fill="none" stroke="midnightblue" d="M166.63,-242.41C142.05,-232.03 111.64,-219.2 88.85,-209.58"/>
<polygon fill="midnightblue" stroke="midnightblue" points="165.51,-245.73 176.08,-246.4 168.23,-239.28 165.51,-245.73"/>
</g>
<!-- Node5&#45;&gt;Node4 -->
<g id="edge12" class="edge">
<title>Node5&#45;&gt;Node4</title>
<path fill="none" stroke="midnightblue" d="M186.88,-239.46C156.61,-211.3 104.27,-162.62 82.95,-142.79"/>
<polygon fill="midnightblue" stroke="midnightblue" points="184.72,-242.23 194.43,-246.48 189.49,-237.11 184.72,-242.23"/>
</g>
<!-- Node6 -->
<g id="node6" class="node">
<title>Node6</title>
<g id="a_node6"><a xlink:href="ephemeron-pair_8h.html" target="_top" xlink:title=" ">
<polygon fill="white" stroke="black" points="167.5,-179.5 167.5,-209.5 295.5,-209.5 295.5,-179.5 167.5,-179.5"/>
<text text-anchor="start" x="175.5" y="-197.5" font-family="Helvetica,sans-Serif" font-size="10.00">include/cppgc/ephemeron</text>
<text text-anchor="middle" x="231.5" y="-186.5" font-family="Helvetica,sans-Serif" font-size="10.00">&#45;pair.h</text>
</a>
</g>
</g>
<!-- Node5&#45;&gt;Node6 -->
<g id="edge5" class="edge">
<title>Node5&#45;&gt;Node6</title>
<path fill="none" stroke="midnightblue" d="M217.56,-236.7C220.64,-227.59 224.06,-217.49 226.74,-209.58"/>
<polygon fill="midnightblue" stroke="midnightblue" points="214.16,-235.8 214.27,-246.4 220.79,-238.05 214.16,-235.8"/>
</g>
<!-- Node7 -->
<g id="node7" class="node">
<title>Node7</title>
<g id="a_node7"><a xlink:href="visitor_8h.html" target="_top" xlink:title=" ">
<polygon fill="white" stroke="black" points="193,-123.5 193,-142.5 306,-142.5 306,-123.5 193,-123.5"/>
<text text-anchor="middle" x="249.5" y="-130.5" font-family="Helvetica,sans-Serif" font-size="10.00">include/cppgc/visitor.h</text>
</a>
</g>
</g>
<!-- Node5&#45;&gt;Node7 -->
<g id="edge13" class="edge">
<title>Node5&#45;&gt;Node7</title>
<path fill="none" stroke="midnightblue" d="M267.71,-241.95C282.23,-234.41 296.05,-224.05 304.5,-210 311.6,-198.19 310.4,-191.45 304.5,-179 296.73,-162.61 279.75,-150.21 266.7,-142.61"/>
<polygon fill="midnightblue" stroke="midnightblue" points="266.14,-238.82 258.62,-246.28 269.15,-245.14 266.14,-238.82"/>
</g>
<!-- Node6&#45;&gt;Node7 -->
<g id="edge6" class="edge">
<title>Node6&#45;&gt;Node7</title>
<path fill="none" stroke="midnightblue" d="M238.73,-169.59C241.61,-160.08 244.74,-149.73 246.88,-142.66"/>
<polygon fill="midnightblue" stroke="midnightblue" points="235.31,-168.81 235.77,-179.4 242.01,-170.84 235.31,-168.81"/>
</g>
<!-- Node8 -->
<g id="node8" class="node">
<title>Node8</title>
<g id="a_node8"><a xlink:href="cross-thread-persistent_8h.html" target="_top" xlink:title=" ">
<polygon fill="white" stroke="black" points="150.5,-0.5 150.5,-30.5 254.5,-30.5 254.5,-0.5 150.5,-0.5"/>
<text text-anchor="start" x="158.5" y="-18.5" font-family="Helvetica,sans-Serif" font-size="10.00">include/cppgc/cross</text>
<text text-anchor="middle" x="202.5" y="-7.5" font-family="Helvetica,sans-Serif" font-size="10.00">&#45;thread&#45;persistent.h</text>
</a>
</g>
</g>
<!-- Node7&#45;&gt;Node8 -->
<g id="edge7" class="edge">
<title>Node7&#45;&gt;Node8</title>
<path fill="none" stroke="midnightblue" d="M213.26,-119.15C198.83,-112.05 183.72,-101.62 175.5,-87 165.09,-68.49 178.67,-45.18 190.04,-30.55"/>
<polygon fill="midnightblue" stroke="midnightblue" points="212.02,-122.43 222.57,-123.36 214.9,-116.05 212.02,-122.43"/>
</g>
<!-- Node9 -->
<g id="node9" class="node">
<title>Node9</title>
<g id="a_node9"><a xlink:href="persistent_8h.html" target="_top" xlink:title=" ">
<polygon fill="white" stroke="black" points="184.5,-67.5 184.5,-86.5 314.5,-86.5 314.5,-67.5 184.5,-67.5"/>
<text text-anchor="middle" x="249.5" y="-74.5" font-family="Helvetica,sans-Serif" font-size="10.00">include/cppgc/persistent.h</text>
</a>
</g>
</g>
<!-- Node7&#45;&gt;Node9 -->
<g id="edge8" class="edge">
<title>Node7&#45;&gt;Node9</title>
<path fill="none" stroke="midnightblue" d="M249.5,-112.8C249.5,-103.91 249.5,-93.78 249.5,-86.75"/>
<polygon fill="midnightblue" stroke="midnightblue" points="246,-113.08 249.5,-123.08 253,-113.08 246,-113.08"/>
</g>
<!-- Node7&#45;&gt;Node10 -->
<g id="edge10" class="edge">
<title>Node7&#45;&gt;Node10</title>
<path fill="none" stroke="midnightblue" d="M279.72,-119.64C304.49,-109.5 338.9,-95.43 360.68,-86.52"/>
<polygon fill="midnightblue" stroke="midnightblue" points="278.35,-116.42 270.42,-123.44 281,-122.9 278.35,-116.42"/>
</g>
<!-- Node9&#45;&gt;Node8 -->
<g id="edge9" class="edge">
<title>Node9&#45;&gt;Node8</title>
<path fill="none" stroke="midnightblue" d="M236.49,-59.53C229.29,-50.42 220.44,-39.21 213.58,-30.52"/>
<polygon fill="midnightblue" stroke="midnightblue" points="233.82,-61.8 242.77,-67.48 239.31,-57.46 233.82,-61.8"/>
</g>
<!-- Node12&#45;&gt;Node10 -->
<g id="edge17" class="edge">
<title>Node12&#45;&gt;Node10</title>
<path fill="none" stroke="midnightblue" d="M553.29,-316.39C506.43,-309.52 436.69,-296.36 418.5,-277 366.29,-221.42 376.01,-117.08 380.18,-86.58"/>
<polygon fill="midnightblue" stroke="midnightblue" points="552.82,-319.86 563.21,-317.8 553.8,-312.93 552.82,-319.86"/>
</g>
<!-- Node13 -->
<g id="node13" class="node">
<title>Node13</title>
<g id="a_node13"><a xlink:href="v8-fast-api-calls_8h.html" target="_top" xlink:title=" ">
<polygon fill="white" stroke="black" points="427.5,-246.5 427.5,-276.5 523.5,-276.5 523.5,-246.5 427.5,-246.5"/>
<text text-anchor="start" x="435.5" y="-264.5" font-family="Helvetica,sans-Serif" font-size="10.00">include/v8&#45;fast&#45;api</text>
<text text-anchor="middle" x="475.5" y="-253.5" font-family="Helvetica,sans-Serif" font-size="10.00">&#45;calls.h</text>
</a>
</g>
</g>
<!-- Node12&#45;&gt;Node13 -->
<g id="edge18" class="edge">
<title>Node12&#45;&gt;Node13</title>
<path fill="none" stroke="midnightblue" d="M570.99,-309.07C551.29,-299.47 524.46,-286.38 504.25,-276.52"/>
<polygon fill="midnightblue" stroke="midnightblue" points="569.5,-312.24 580.02,-313.48 572.57,-305.95 569.5,-312.24"/>
</g>
<!-- Node14 -->
<g id="node14" class="node">
<title>Node14</title>
<g id="a_node14"><a xlink:href="v8-inspector_8h.html" target="_top" xlink:title=" ">
<polygon fill="white" stroke="black" points="542,-252 542,-271 653,-271 653,-252 542,-252"/>
<text text-anchor="middle" x="597.5" y="-259" font-family="Helvetica,sans-Serif" font-size="10.00">include/v8&#45;inspector.h</text>
</a>
</g>
</g>
<!-- Node12&#45;&gt;Node14 -->
<g id="edge19" class="edge">
<title>Node12&#45;&gt;Node14</title>
<path fill="none" stroke="midnightblue" d="M597.5,-303.32C597.5,-292.5 597.5,-279.4 597.5,-271.01"/>
<polygon fill="midnightblue" stroke="midnightblue" points="594,-303.48 597.5,-313.48 601,-303.48 594,-303.48"/>
</g>
<!-- Node16 -->
<g id="node16" class="node">
<title>Node16</title>
<g id="a_node16"><a xlink:href="v8-metrics_8h.html" target="_top" xlink:title=" ">
<polygon fill="white" stroke="black" points="671.5,-252 671.5,-271 775.5,-271 775.5,-252 671.5,-252"/>
<text text-anchor="middle" x="723.5" y="-259" font-family="Helvetica,sans-Serif" font-size="10.00">include/v8&#45;metrics.h</text>
</a>
</g>
</g>
<!-- Node12&#45;&gt;Node16 -->
<g id="edge21" class="edge">
<title>Node12&#45;&gt;Node16</title>
<path fill="none" stroke="midnightblue" d="M624.66,-309.17C649.11,-297.63 684.35,-280.99 705.48,-271.01"/>
<polygon fill="midnightblue" stroke="midnightblue" points="623.1,-306.04 615.55,-313.48 626.09,-312.37 623.1,-306.04"/>
</g>
<!-- Node17 -->
<g id="node17" class="node">
<title>Node17</title>
<g id="a_node17"><a xlink:href="v8-profiler_8h.html" target="_top" xlink:title=" ">
<polygon fill="white" stroke="black" points="793.5,-252 793.5,-271 893.5,-271 893.5,-252 793.5,-252"/>
<text text-anchor="middle" x="843.5" y="-259" font-family="Helvetica,sans-Serif" font-size="10.00">include/v8&#45;profiler.h</text>
</a>
</g>
</g>
<!-- Node12&#45;&gt;Node17 -->
<g id="edge22" class="edge">
<title>Node12&#45;&gt;Node17</title>
<path fill="none" stroke="midnightblue" d="M641.82,-311.4C679.72,-302.32 735.71,-288.87 784.5,-277 792.39,-275.08 800.87,-273 808.88,-271.04"/>
<polygon fill="midnightblue" stroke="midnightblue" points="640.54,-308.1 631.64,-313.84 642.18,-314.91 640.54,-308.1"/>
</g>
<!-- Node18 -->
<g id="node18" class="node">
<title>Node18</title>
<g id="a_node18"><a xlink:href="v8-util_8h.html" target="_top" xlink:title=" ">
<polygon fill="white" stroke="black" points="911.5,-252 911.5,-271 995.5,-271 995.5,-252 911.5,-252"/>
<text text-anchor="middle" x="953.5" y="-259" font-family="Helvetica,sans-Serif" font-size="10.00">include/v8&#45;util.h</text>
</a>
</g>
</g>
<!-- Node12&#45;&gt;Node18 -->
<g id="edge23" class="edge">
<title>Node12&#45;&gt;Node18</title>
<path fill="none" stroke="midnightblue" d="M641.8,-317.3C701.44,-310.56 810.68,-296.74 902.5,-277 910.15,-275.36 918.34,-273.2 925.87,-271.06"/>
<polygon fill="midnightblue" stroke="midnightblue" points="641.16,-313.85 631.61,-318.44 641.94,-320.81 641.16,-313.85"/>
</g>
<!-- Node15 -->
<g id="node15" class="node">
<title>Node15</title>
<g id="a_node15"><a xlink:href="v8-inspector-protocol_8h.html" target="_top" xlink:title=" ">
<polygon fill="white" stroke="black" points="545.5,-179.5 545.5,-209.5 649.5,-209.5 649.5,-179.5 545.5,-179.5"/>
<text text-anchor="start" x="553.5" y="-197.5" font-family="Helvetica,sans-Serif" font-size="10.00">include/v8&#45;inspector</text>
<text text-anchor="middle" x="597.5" y="-186.5" font-family="Helvetica,sans-Serif" font-size="10.00">&#45;protocol.h</text>
</a>
</g>
</g>
<!-- Node14&#45;&gt;Node15 -->
<g id="edge20" class="edge">
<title>Node14&#45;&gt;Node15</title>
<path fill="none" stroke="midnightblue" d="M597.5,-241.41C597.5,-231.22 597.5,-218.9 597.5,-209.59"/>
<polygon fill="midnightblue" stroke="midnightblue" points="594,-241.73 597.5,-251.73 601,-241.73 594,-241.73"/>
</g>
</g>
</svg>
