<?xml version="1.0" encoding="UTF-8" standalone="no"?>
<!DOCTYPE svg PUBLIC "-//W3C//DTD SVG 1.1//EN"
 "http://www.w3.org/Graphics/SVG/1.1/DTD/svg11.dtd">
<!-- Generated by graphviz version 2.49.3 (20211027.1534)
 -->
<!-- Title: include/cppgc/member.h Pages: 1 -->
<svg width="1172pt" height="341pt"
 viewBox="0.00 0.00 1172.00 341.00" xmlns="http://www.w3.org/2000/svg" xmlns:xlink="http://www.w3.org/1999/xlink">
<g id="graph0" class="graph" transform="scale(1 1) rotate(0) translate(4 337)">
<title>include/cppgc/member.h</title>
<polygon fill="white" stroke="transparent" points="-4,4 -4,-337 1168,-337 1168,4 -4,4"/>
<!-- Node1 -->
<g id="node1" class="node">
<title>Node1</title>
<g id="a_node1"><a xlink:title=" ">
<polygon fill="#bfbfbf" stroke="black" points="780,-313.5 780,-332.5 902,-332.5 902,-313.5 780,-313.5"/>
<text text-anchor="middle" x="841" y="-320.5" font-family="Helvetica,sans-Serif" font-size="10.00">include/cppgc/member.h</text>
</a>
</g>
</g>
<!-- Node2 -->
<g id="node2" class="node">
<title>Node2</title>
<g id="a_node2"><a xlink:title=" ">
<polygon fill="white" stroke="#bfbfbf" points="63,-56.5 63,-75.5 109,-75.5 109,-56.5 63,-56.5"/>
<text text-anchor="middle" x="86" y="-63.5" font-family="Helvetica,sans-Serif" font-size="10.00">atomic</text>
</a>
</g>
</g>
<!-- Node1&#45;&gt;Node2 -->
<g id="edge1" class="edge">
<title>Node1&#45;&gt;Node2</title>
<path fill="none" stroke="midnightblue" d="M779.87,-315.14C718.58,-307.73 621.7,-294.59 539,-277 321.52,-230.75 191.53,-320.03 57,-143 43.32,-125 58.09,-99.79 71.08,-83.43"/>
<polygon fill="midnightblue" stroke="midnightblue" points="73.77,-85.66 77.55,-75.76 68.42,-81.15 73.77,-85.66"/>
</g>
<!-- Node3 -->
<g id="node3" class="node">
<title>Node3</title>
<g id="a_node3"><a xlink:title=" ">
<polygon fill="white" stroke="#bfbfbf" points="355.5,-0.5 355.5,-19.5 404.5,-19.5 404.5,-0.5 355.5,-0.5"/>
<text text-anchor="middle" x="380" y="-7.5" font-family="Helvetica,sans-Serif" font-size="10.00">cstddef</text>
</a>
</g>
</g>
<!-- Node1&#45;&gt;Node3 -->
<g id="edge2" class="edge">
<title>Node1&#45;&gt;Node3</title>
<path fill="none" stroke="midnightblue" d="M779.87,-320.39C640.14,-316.28 300.88,-303.79 190,-277 100.69,-255.42 0,-287.39 0,-195.5 0,-195.5 0,-195.5 0,-126.5 0,-87.03 19.89,-75.86 54,-56 102.95,-27.51 271.59,-16.16 345.19,-12.49"/>
<polygon fill="midnightblue" stroke="midnightblue" points="345.51,-15.98 355.33,-12 345.17,-8.98 345.51,-15.98"/>
</g>
<!-- Node4 -->
<g id="node4" class="node">
<title>Node4</title>
<g id="a_node4"><a xlink:title=" ">
<polygon fill="white" stroke="#bfbfbf" points="1019,-0.5 1019,-19.5 1081,-19.5 1081,-0.5 1019,-0.5"/>
<text text-anchor="middle" x="1050" y="-7.5" font-family="Helvetica,sans-Serif" font-size="10.00">type_traits</text>
</a>
</g>
</g>
<!-- Node1&#45;&gt;Node4 -->
<g id="edge3" class="edge">
<title>Node1&#45;&gt;Node4</title>
<path fill="none" stroke="midnightblue" d="M889.36,-313.48C979.46,-296.22 1164,-253.77 1164,-195.5 1164,-195.5 1164,-195.5 1164,-126.5 1164,-77.7 1111.81,-42.06 1078.05,-24.11"/>
<polygon fill="midnightblue" stroke="midnightblue" points="1079.58,-20.96 1069.08,-19.52 1076.39,-27.19 1079.58,-20.96"/>
</g>
<!-- Node5 -->
<g id="node5" class="node">
<title>Node5</title>
<g id="a_node5"><a xlink:href="pointer-policies_8h.html" target="_top" xlink:title=" ">
<polygon fill="white" stroke="black" points="786,-246.5 786,-276.5 896,-276.5 896,-246.5 786,-246.5"/>
<text text-anchor="start" x="794" y="-264.5" font-family="Helvetica,sans-Serif" font-size="10.00">cppgc/internal/pointer</text>
<text text-anchor="middle" x="841" y="-253.5" font-family="Helvetica,sans-Serif" font-size="10.00">&#45;policies.h</text>
</a>
</g>
</g>
<!-- Node1&#45;&gt;Node5 -->
<g id="edge4" class="edge">
<title>Node1&#45;&gt;Node5</title>
<path fill="none" stroke="midnightblue" d="M841,-313.48C841,-306.47 841,-296.19 841,-286.7"/>
<polygon fill="midnightblue" stroke="midnightblue" points="844.5,-286.52 841,-276.52 837.5,-286.52 844.5,-286.52"/>
</g>
<!-- Node9 -->
<g id="node9" class="node">
<title>Node9</title>
<g id="a_node9"><a xlink:href="v8config_8h.html" target="_top" xlink:title=" ">
<polygon fill="white" stroke="black" points="426,-56.5 426,-75.5 486,-75.5 486,-56.5 426,-56.5"/>
<text text-anchor="middle" x="456" y="-63.5" font-family="Helvetica,sans-Serif" font-size="10.00">v8config.h</text>
</a>
</g>
</g>
<!-- Node1&#45;&gt;Node9 -->
<g id="edge36" class="edge">
<title>Node1&#45;&gt;Node9</title>
<path fill="none" stroke="midnightblue" d="M779.7,-315.85C703.72,-305.49 573.57,-278.47 486,-210 458.5,-188.5 454.47,-176.6 445,-143 439.54,-123.61 444.36,-100.63 449.22,-85.05"/>
<polygon fill="midnightblue" stroke="midnightblue" points="452.54,-86.18 452.47,-75.59 445.92,-83.91 452.54,-86.18"/>
</g>
<!-- Node12 -->
<g id="node12" class="node">
<title>Node12</title>
<g id="a_node12"><a xlink:href="sentinel-pointer_8h.html" target="_top" xlink:title=" ">
<polygon fill="white" stroke="black" points="864.5,-118 864.5,-137 983.5,-137 983.5,-118 864.5,-118"/>
<text text-anchor="middle" x="924" y="-125" font-family="Helvetica,sans-Serif" font-size="10.00">cppgc/sentinel&#45;pointer.h</text>
</a>
</g>
</g>
<!-- Node1&#45;&gt;Node12 -->
<g id="edge34" class="edge">
<title>Node1&#45;&gt;Node12</title>
<path fill="none" stroke="midnightblue" d="M860.93,-313.47C875.65,-306.06 894.83,-293.87 905,-277 929.65,-236.13 928.71,-177.49 926.21,-147.6"/>
<polygon fill="midnightblue" stroke="midnightblue" points="929.66,-146.93 925.19,-137.32 922.7,-147.62 929.66,-146.93"/>
</g>
<!-- Node14 -->
<g id="node14" class="node">
<title>Node14</title>
<g id="a_node14"><a xlink:href="type-traits_8h.html" target="_top" xlink:title=" ">
<polygon fill="white" stroke="black" points="964,-56.5 964,-75.5 1060,-75.5 1060,-56.5 964,-56.5"/>
<text text-anchor="middle" x="1012" y="-63.5" font-family="Helvetica,sans-Serif" font-size="10.00">cppgc/type&#45;traits.h</text>
</a>
</g>
</g>
<!-- Node1&#45;&gt;Node14 -->
<g id="edge35" class="edge">
<title>Node1&#45;&gt;Node14</title>
<path fill="none" stroke="midnightblue" d="M860.61,-313.46C878.26,-305.33 904.49,-292.11 925,-277 959.16,-251.84 968.38,-244.55 993,-210 1019.59,-172.69 1031.42,-157.37 1025,-112 1023.73,-103.04 1021.11,-93.37 1018.55,-85.3"/>
<polygon fill="midnightblue" stroke="midnightblue" points="1021.86,-84.16 1015.34,-75.8 1015.23,-86.4 1021.86,-84.16"/>
</g>
<!-- Node5&#45;&gt;Node4 -->
<g id="edge6" class="edge">
<title>Node5&#45;&gt;Node4</title>
<path fill="none" stroke="midnightblue" d="M896.01,-252.28C927.2,-245.32 965.39,-232.68 993,-210 1045.9,-166.53 1051.53,-142.2 1069,-76 1073.25,-59.88 1066.96,-41.66 1060.5,-28.63"/>
<polygon fill="midnightblue" stroke="midnightblue" points="1063.55,-26.91 1055.7,-19.79 1057.4,-30.25 1063.55,-26.91"/>
</g>
<!-- Node6 -->
<g id="node6" class="node">
<title>Node6</title>
<g id="a_node6"><a xlink:title=" ">
<polygon fill="white" stroke="#bfbfbf" points="856,-56.5 856,-75.5 902,-75.5 902,-56.5 856,-56.5"/>
<text text-anchor="middle" x="879" y="-63.5" font-family="Helvetica,sans-Serif" font-size="10.00">cstdint</text>
</a>
</g>
</g>
<!-- Node5&#45;&gt;Node6 -->
<g id="edge5" class="edge">
<title>Node5&#45;&gt;Node6</title>
<path fill="none" stroke="midnightblue" d="M873.45,-246.38C910.22,-228.39 968.23,-193.45 993,-143 999.07,-130.63 1000.75,-123.39 993,-112 975.04,-85.6 938.96,-74.69 912.17,-70.18"/>
<polygon fill="midnightblue" stroke="midnightblue" points="912.46,-66.68 902.06,-68.7 911.45,-73.61 912.46,-66.68"/>
</g>
<!-- Node7 -->
<g id="node7" class="node">
<title>Node7</title>
<g id="a_node7"><a xlink:href="write-barrier_8h.html" target="_top" xlink:title=" ">
<polygon fill="white" stroke="black" points="597.5,-179.5 597.5,-209.5 698.5,-209.5 698.5,-179.5 597.5,-179.5"/>
<text text-anchor="start" x="605.5" y="-197.5" font-family="Helvetica,sans-Serif" font-size="10.00">cppgc/internal/write</text>
<text text-anchor="middle" x="648" y="-186.5" font-family="Helvetica,sans-Serif" font-size="10.00">&#45;barrier.h</text>
</a>
</g>
</g>
<!-- Node5&#45;&gt;Node7 -->
<g id="edge7" class="edge">
<title>Node5&#45;&gt;Node7</title>
<path fill="none" stroke="midnightblue" d="M799.12,-246.4C769.91,-236.56 730.74,-223.37 699.6,-212.88"/>
<polygon fill="midnightblue" stroke="midnightblue" points="700.39,-209.45 689.8,-209.58 698.16,-216.09 700.39,-209.45"/>
</g>
<!-- Node5&#45;&gt;Node9 -->
<g id="edge33" class="edge">
<title>Node5&#45;&gt;Node9</title>
<path fill="none" stroke="midnightblue" d="M785.57,-253.87C733.53,-246.61 654.03,-232.86 588,-210 525.83,-188.47 490.42,-199.07 456,-143 445.46,-125.82 447.49,-102.09 450.85,-85.73"/>
<polygon fill="midnightblue" stroke="midnightblue" points="454.32,-86.3 453.25,-75.76 447.51,-84.67 454.32,-86.3"/>
</g>
<!-- Node5&#45;&gt;Node12 -->
<g id="edge27" class="edge">
<title>Node5&#45;&gt;Node12</title>
<path fill="none" stroke="midnightblue" d="M849.88,-246.37C865.23,-221.97 896.65,-172 913.22,-145.65"/>
<polygon fill="midnightblue" stroke="midnightblue" points="916.23,-147.43 918.59,-137.1 910.31,-143.7 916.23,-147.43"/>
</g>
<!-- Node5&#45;&gt;Node14 -->
<g id="edge32" class="edge">
<title>Node5&#45;&gt;Node14</title>
<path fill="none" stroke="midnightblue" d="M894.86,-246.45C918.18,-238.48 944.71,-226.68 965,-210 992.52,-187.37 998.12,-176.92 1009,-143 1015.03,-124.18 1015.04,-101.39 1014,-85.7"/>
<polygon fill="midnightblue" stroke="midnightblue" points="1017.48,-85.35 1013.13,-75.69 1010.51,-85.96 1017.48,-85.35"/>
</g>
<!-- Node15 -->
<g id="node15" class="node">
<title>Node15</title>
<g id="a_node15"><a xlink:href="source-location_8h.html" target="_top" xlink:title=" ">
<polygon fill="white" stroke="black" points="194.5,-118 194.5,-137 313.5,-137 313.5,-118 194.5,-118"/>
<text text-anchor="middle" x="254" y="-125" font-family="Helvetica,sans-Serif" font-size="10.00">cppgc/source&#45;location.h</text>
</a>
</g>
</g>
<!-- Node5&#45;&gt;Node15 -->
<g id="edge28" class="edge">
<title>Node5&#45;&gt;Node15</title>
<path fill="none" stroke="midnightblue" d="M785.79,-260.79C701.49,-259.76 536.53,-251.92 404,-210 354.49,-194.34 302.5,-161.94 274.6,-143.05"/>
<polygon fill="midnightblue" stroke="midnightblue" points="276.33,-139.99 266.11,-137.21 272.36,-145.76 276.33,-139.99"/>
</g>
<!-- Node7&#45;&gt;Node3 -->
<g id="edge8" class="edge">
<title>Node7&#45;&gt;Node3</title>
<path fill="none" stroke="midnightblue" d="M597.25,-190.75C555.6,-186.18 497.01,-174.2 456,-143 417.19,-113.47 394.85,-57.97 385.4,-29.25"/>
<polygon fill="midnightblue" stroke="midnightblue" points="388.72,-28.17 382.4,-19.67 382.04,-30.26 388.72,-28.17"/>
</g>
<!-- Node7&#45;&gt;Node6 -->
<g id="edge9" class="edge">
<title>Node7&#45;&gt;Node6</title>
<path fill="none" stroke="midnightblue" d="M698.69,-186.45C734.14,-179.67 781.34,-166.8 817,-143 839.61,-127.91 858.14,-102.08 868.88,-84.78"/>
<polygon fill="midnightblue" stroke="midnightblue" points="872.16,-86.1 874.27,-75.72 866.15,-82.52 872.16,-86.1"/>
</g>
<!-- Node8 -->
<g id="node8" class="node">
<title>Node8</title>
<g id="a_node8"><a xlink:href="heap-state_8h.html" target="_top" xlink:title=" ">
<polygon fill="white" stroke="black" points="484.5,-118 484.5,-137 583.5,-137 583.5,-118 484.5,-118"/>
<text text-anchor="middle" x="534" y="-125" font-family="Helvetica,sans-Serif" font-size="10.00">cppgc/heap&#45;state.h</text>
</a>
</g>
</g>
<!-- Node7&#45;&gt;Node8 -->
<g id="edge10" class="edge">
<title>Node7&#45;&gt;Node8</title>
<path fill="none" stroke="midnightblue" d="M623.26,-179.4C603.79,-168.29 576.83,-152.92 557.65,-141.98"/>
<polygon fill="midnightblue" stroke="midnightblue" points="559.34,-138.92 548.92,-137.01 555.87,-145 559.34,-138.92"/>
</g>
<!-- Node7&#45;&gt;Node9 -->
<g id="edge26" class="edge">
<title>Node7&#45;&gt;Node9</title>
<path fill="none" stroke="midnightblue" d="M597.16,-191.78C558.48,-187.72 506.66,-175.93 475,-143 460.37,-127.79 456.5,-103.09 455.71,-86"/>
<polygon fill="midnightblue" stroke="midnightblue" points="459.21,-85.54 455.57,-75.59 452.21,-85.64 459.21,-85.54"/>
</g>
<!-- Node10 -->
<g id="node10" class="node">
<title>Node10</title>
<g id="a_node10"><a xlink:href="api-constants_8h.html" target="_top" xlink:title=" ">
<polygon fill="white" stroke="black" points="601.5,-112.5 601.5,-142.5 694.5,-142.5 694.5,-112.5 601.5,-112.5"/>
<text text-anchor="start" x="609.5" y="-130.5" font-family="Helvetica,sans-Serif" font-size="10.00">cppgc/internal/api</text>
<text text-anchor="middle" x="648" y="-119.5" font-family="Helvetica,sans-Serif" font-size="10.00">&#45;constants.h</text>
</a>
</g>
</g>
<!-- Node7&#45;&gt;Node10 -->
<g id="edge12" class="edge">
<title>Node7&#45;&gt;Node10</title>
<path fill="none" stroke="midnightblue" d="M648,-179.4C648,-171.64 648,-161.81 648,-152.86"/>
<polygon fill="midnightblue" stroke="midnightblue" points="651.5,-152.58 648,-142.58 644.5,-152.58 651.5,-152.58"/>
</g>
<!-- Node11 -->
<g id="node11" class="node">
<title>Node11</title>
<g id="a_node11"><a xlink:href="atomic-entry-flag_8h.html" target="_top" xlink:title=" ">
<polygon fill="white" stroke="black" points="66,-112.5 66,-142.5 176,-142.5 176,-112.5 66,-112.5"/>
<text text-anchor="start" x="74" y="-130.5" font-family="Helvetica,sans-Serif" font-size="10.00">cppgc/internal/atomic</text>
<text text-anchor="middle" x="121" y="-119.5" font-family="Helvetica,sans-Serif" font-size="10.00">&#45;entry&#45;flag.h</text>
</a>
</g>
</g>
<!-- Node7&#45;&gt;Node11 -->
<g id="edge16" class="edge">
<title>Node7&#45;&gt;Node11</title>
<path fill="none" stroke="midnightblue" d="M597.38,-189.88C513.8,-183.49 341.54,-168.57 186.28,-143.09"/>
<polygon fill="midnightblue" stroke="midnightblue" points="186.52,-139.58 176.08,-141.4 185.37,-146.49 186.52,-139.58"/>
</g>
<!-- Node7&#45;&gt;Node12 -->
<g id="edge18" class="edge">
<title>Node7&#45;&gt;Node12</title>
<path fill="none" stroke="midnightblue" d="M698.62,-181.58C749.87,-169.51 828.43,-151.01 877.97,-139.34"/>
<polygon fill="midnightblue" stroke="midnightblue" points="878.84,-142.73 887.78,-137.03 877.24,-135.92 878.84,-142.73"/>
</g>
<!-- Node13 -->
<g id="node13" class="node">
<title>Node13</title>
<g id="a_node13"><a xlink:href="trace-trait_8h.html" target="_top" xlink:title=" ">
<polygon fill="white" stroke="black" points="712.5,-118 712.5,-137 807.5,-137 807.5,-118 712.5,-118"/>
<text text-anchor="middle" x="760" y="-125" font-family="Helvetica,sans-Serif" font-size="10.00">cppgc/trace&#45;trait.h</text>
</a>
</g>
</g>
<!-- Node7&#45;&gt;Node13 -->
<g id="edge20" class="edge">
<title>Node7&#45;&gt;Node13</title>
<path fill="none" stroke="midnightblue" d="M672.3,-179.4C691.35,-168.34 717.68,-153.06 736.51,-142.13"/>
<polygon fill="midnightblue" stroke="midnightblue" points="738.45,-145.05 745.34,-137.01 734.94,-139 738.45,-145.05"/>
</g>
<!-- Node8&#45;&gt;Node9 -->
<g id="edge11" class="edge">
<title>Node8&#45;&gt;Node9</title>
<path fill="none" stroke="midnightblue" d="M522.82,-117.98C510.43,-108.52 490.21,-93.1 475.25,-81.69"/>
<polygon fill="midnightblue" stroke="midnightblue" points="477.23,-78.79 467.15,-75.51 472.98,-84.36 477.23,-78.79"/>
</g>
<!-- Node10&#45;&gt;Node3 -->
<g id="edge13" class="edge">
<title>Node10&#45;&gt;Node3</title>
<path fill="none" stroke="midnightblue" d="M618.9,-112.47C588.28,-97.86 538.6,-74.55 495,-56 467.38,-44.25 435.58,-31.89 412.43,-23.1"/>
<polygon fill="midnightblue" stroke="midnightblue" points="413.66,-19.83 403.07,-19.57 411.19,-26.38 413.66,-19.83"/>
</g>
<!-- Node10&#45;&gt;Node6 -->
<g id="edge14" class="edge">
<title>Node10&#45;&gt;Node6</title>
<path fill="none" stroke="midnightblue" d="M694.75,-114.39C697.88,-113.58 700.99,-112.78 704,-112 753.49,-99.23 810.86,-84.49 846.04,-75.46"/>
<polygon fill="midnightblue" stroke="midnightblue" points="846.97,-78.83 855.78,-72.96 845.23,-72.05 846.97,-78.83"/>
</g>
<!-- Node10&#45;&gt;Node9 -->
<g id="edge15" class="edge">
<title>Node10&#45;&gt;Node9</title>
<path fill="none" stroke="midnightblue" d="M602.5,-112.4C569.18,-102.07 524.51,-88.23 493.29,-78.56"/>
<polygon fill="midnightblue" stroke="midnightblue" points="494.25,-75.19 483.66,-75.57 492.17,-81.87 494.25,-75.19"/>
</g>
<!-- Node11&#45;&gt;Node2 -->
<g id="edge17" class="edge">
<title>Node11&#45;&gt;Node2</title>
<path fill="none" stroke="midnightblue" d="M112.71,-112.4C107.78,-104.02 101.49,-93.33 96.25,-84.42"/>
<polygon fill="midnightblue" stroke="midnightblue" points="99.18,-82.5 91.09,-75.66 93.15,-86.05 99.18,-82.5"/>
</g>
<!-- Node12&#45;&gt;Node6 -->
<g id="edge19" class="edge">
<title>Node12&#45;&gt;Node6</title>
<path fill="none" stroke="midnightblue" d="M917.55,-117.98C910.8,-109.05 900.03,-94.81 891.59,-83.64"/>
<polygon fill="midnightblue" stroke="midnightblue" points="894.26,-81.37 885.44,-75.51 888.68,-85.6 894.26,-81.37"/>
</g>
<!-- Node13&#45;&gt;Node4 -->
<g id="edge21" class="edge">
<title>Node13&#45;&gt;Node4</title>
<path fill="none" stroke="midnightblue" d="M768.19,-117.58C782.59,-102.46 814.08,-71.88 847,-56 899.56,-30.64 966.7,-19.36 1009.03,-14.5"/>
<polygon fill="midnightblue" stroke="midnightblue" points="1009.41,-17.98 1018.98,-13.42 1008.66,-11.02 1009.41,-17.98"/>
</g>
<!-- Node13&#45;&gt;Node9 -->
<g id="edge25" class="edge">
<title>Node13&#45;&gt;Node9</title>
<path fill="none" stroke="midnightblue" d="M728.14,-117.98C719.97,-115.91 711.18,-113.78 703,-112 630.44,-96.18 545.05,-81.49 496.06,-73.43"/>
<polygon fill="midnightblue" stroke="midnightblue" points="496.6,-69.97 486.17,-71.81 495.47,-76.88 496.6,-69.97"/>
</g>
<!-- Node13&#45;&gt;Node14 -->
<g id="edge22" class="edge">
<title>Node13&#45;&gt;Node14</title>
<path fill="none" stroke="midnightblue" d="M796.11,-117.98C840.83,-107.42 917.08,-89.41 965.97,-77.87"/>
<polygon fill="midnightblue" stroke="midnightblue" points="967.03,-81.21 975.96,-75.51 965.42,-74.4 967.03,-81.21"/>
</g>
<!-- Node14&#45;&gt;Node3 -->
<g id="edge23" class="edge">
<title>Node14&#45;&gt;Node3</title>
<path fill="none" stroke="midnightblue" d="M963.97,-60.68C947.21,-59.18 928.27,-57.5 911,-56 723.83,-39.73 499.49,-20.96 414.71,-13.89"/>
<polygon fill="midnightblue" stroke="midnightblue" points="414.87,-10.39 404.62,-13.05 414.29,-17.37 414.87,-10.39"/>
</g>
<!-- Node14&#45;&gt;Node4 -->
<g id="edge24" class="edge">
<title>Node14&#45;&gt;Node4</title>
<path fill="none" stroke="midnightblue" d="M1018.27,-56.08C1023.64,-48.46 1031.52,-37.26 1038.08,-27.94"/>
<polygon fill="midnightblue" stroke="midnightblue" points="1040.95,-29.94 1043.84,-19.75 1035.22,-25.91 1040.95,-29.94"/>
</g>
<!-- Node15&#45;&gt;Node3 -->
<g id="edge29" class="edge">
<title>Node15&#45;&gt;Node3</title>
<path fill="none" stroke="midnightblue" d="M254.01,-117.55C254.49,-102.93 257.49,-73.76 273,-56 291.48,-34.85 321.55,-23.39 345.12,-17.34"/>
<polygon fill="midnightblue" stroke="midnightblue" points="346.16,-20.69 355.09,-14.99 344.56,-13.87 346.16,-20.69"/>
</g>
<!-- Node15&#45;&gt;Node9 -->
<g id="edge31" class="edge">
<title>Node15&#45;&gt;Node9</title>
<path fill="none" stroke="midnightblue" d="M282.94,-117.98C318.27,-107.57 378.13,-89.94 417.36,-78.38"/>
<polygon fill="midnightblue" stroke="midnightblue" points="418.51,-81.69 427.11,-75.51 416.53,-74.98 418.51,-81.69"/>
</g>
<!-- Node16 -->
<g id="node16" class="node">
<title>Node16</title>
<g id="a_node16"><a xlink:title=" ">
<polygon fill="white" stroke="#bfbfbf" points="282.5,-56.5 282.5,-75.5 323.5,-75.5 323.5,-56.5 282.5,-56.5"/>
<text text-anchor="middle" x="303" y="-63.5" font-family="Helvetica,sans-Serif" font-size="10.00">string</text>
</a>
</g>
</g>
<!-- Node15&#45;&gt;Node16 -->
<g id="edge30" class="edge">
<title>Node15&#45;&gt;Node16</title>
<path fill="none" stroke="midnightblue" d="M261.02,-117.98C268.44,-108.96 280.33,-94.52 289.57,-83.31"/>
<polygon fill="midnightblue" stroke="midnightblue" points="292.34,-85.45 295.99,-75.51 286.93,-81 292.34,-85.45"/>
</g>
</g>
</svg>
