<?xml version="1.0" encoding="UTF-8" standalone="no"?>
<!DOCTYPE svg PUBLIC "-//W3C//DTD SVG 1.1//EN"
 "http://www.w3.org/Graphics/SVG/1.1/DTD/svg11.dtd">
<!-- Generated by graphviz version 2.49.3 (20211027.1534)
 -->
<!-- Title: include/cppgc/platform.h Pages: 1 -->
<svg width="422pt" height="408pt"
 viewBox="0.00 0.00 421.50 408.00" xmlns="http://www.w3.org/2000/svg" xmlns:xlink="http://www.w3.org/1999/xlink">
<g id="graph0" class="graph" transform="scale(1 1) rotate(0) translate(4 404)">
<title>include/cppgc/platform.h</title>
<polygon fill="white" stroke="transparent" points="-4,4 -4,-404 417.5,-404 417.5,4 -4,4"/>
<!-- Node1 -->
<g id="node1" class="node">
<title>Node1</title>
<g id="a_node1"><a xlink:title=" ">
<polygon fill="#bfbfbf" stroke="black" points="117.5,-380.5 117.5,-399.5 239.5,-399.5 239.5,-380.5 117.5,-380.5"/>
<text text-anchor="middle" x="178.5" y="-387.5" font-family="Helvetica,sans-Serif" font-size="10.00">include/cppgc/platform.h</text>
</a>
</g>
</g>
<!-- Node2 -->
<g id="node2" class="node">
<title>Node2</title>
<g id="a_node2"><a xlink:href="default-platform_8h.html" target="_top" xlink:title=" ">
<polygon fill="white" stroke="black" points="0,-313.5 0,-343.5 109,-343.5 109,-313.5 0,-313.5"/>
<text text-anchor="start" x="8" y="-331.5" font-family="Helvetica,sans-Serif" font-size="10.00">include/cppgc/default</text>
<text text-anchor="middle" x="54.5" y="-320.5" font-family="Helvetica,sans-Serif" font-size="10.00">&#45;platform.h</text>
</a>
</g>
</g>
<!-- Node1&#45;&gt;Node2 -->
<g id="edge1" class="edge">
<title>Node1&#45;&gt;Node2</title>
<path fill="none" stroke="midnightblue" d="M151.55,-376.07C131.54,-366.47 104.26,-353.38 83.72,-343.52"/>
<polygon fill="midnightblue" stroke="midnightblue" points="150.2,-379.3 160.73,-380.48 153.23,-372.99 150.2,-379.3"/>
</g>
<!-- Node3 -->
<g id="node3" class="node">
<title>Node3</title>
<g id="a_node3"><a xlink:href="garbage-collected_8h.html" target="_top" xlink:title=" ">
<polygon fill="white" stroke="black" points="4.5,-246.5 4.5,-276.5 118.5,-276.5 118.5,-246.5 4.5,-246.5"/>
<text text-anchor="start" x="12.5" y="-264.5" font-family="Helvetica,sans-Serif" font-size="10.00">include/cppgc/garbage</text>
<text text-anchor="middle" x="61.5" y="-253.5" font-family="Helvetica,sans-Serif" font-size="10.00">&#45;collected.h</text>
</a>
</g>
</g>
<!-- Node1&#45;&gt;Node3 -->
<g id="edge2" class="edge">
<title>Node1&#45;&gt;Node3</title>
<path fill="none" stroke="midnightblue" d="M166.02,-371.9C154.18,-356.06 135.56,-332.13 117.5,-313 105.28,-300.05 90.24,-286.61 78.82,-276.85"/>
<polygon fill="midnightblue" stroke="midnightblue" points="163.4,-374.23 172.16,-380.19 169.03,-370.07 163.4,-374.23"/>
</g>
<!-- Node8 -->
<g id="node8" class="node">
<title>Node8</title>
<g id="a_node8"><a xlink:href="heap_8h.html" target="_top" xlink:title=" ">
<polygon fill="white" stroke="black" points="165.5,-319 165.5,-338 273.5,-338 273.5,-319 165.5,-319"/>
<text text-anchor="middle" x="219.5" y="-326" font-family="Helvetica,sans-Serif" font-size="10.00">include/cppgc/heap.h</text>
</a>
</g>
</g>
<!-- Node1&#45;&gt;Node8 -->
<g id="edge8" class="edge">
<title>Node1&#45;&gt;Node8</title>
<path fill="none" stroke="midnightblue" d="M190.21,-372.01C197.87,-360.89 207.55,-346.84 213.64,-338.01"/>
<polygon fill="midnightblue" stroke="midnightblue" points="187.17,-370.25 184.37,-380.48 192.93,-374.23 187.17,-370.25"/>
</g>
<!-- Node13 -->
<g id="node13" class="node">
<title>Node13</title>
<g id="a_node13"><a xlink:href="caged-heap-local-data_8h.html" target="_top" xlink:title=" ">
<polygon fill="white" stroke="black" points="291.5,-313.5 291.5,-343.5 413.5,-343.5 413.5,-313.5 291.5,-313.5"/>
<text text-anchor="start" x="299.5" y="-331.5" font-family="Helvetica,sans-Serif" font-size="10.00">include/cppgc/internal</text>
<text text-anchor="middle" x="352.5" y="-320.5" font-family="Helvetica,sans-Serif" font-size="10.00">/caged&#45;heap&#45;local&#45;data.h</text>
</a>
</g>
</g>
<!-- Node1&#45;&gt;Node13 -->
<g id="edge17" class="edge">
<title>Node1&#45;&gt;Node13</title>
<path fill="none" stroke="midnightblue" d="M212.92,-377.23C241.25,-367.54 281.49,-353.78 311.49,-343.52"/>
<polygon fill="midnightblue" stroke="midnightblue" points="211.76,-373.93 203.43,-380.48 214.02,-380.55 211.76,-373.93"/>
</g>
<!-- Node4 -->
<g id="node4" class="node">
<title>Node4</title>
<g id="a_node4"><a xlink:href="visitor_8h.html" target="_top" xlink:title=" ">
<polygon fill="white" stroke="black" points="62,-123.5 62,-142.5 175,-142.5 175,-123.5 62,-123.5"/>
<text text-anchor="middle" x="118.5" y="-130.5" font-family="Helvetica,sans-Serif" font-size="10.00">include/cppgc/visitor.h</text>
</a>
</g>
</g>
<!-- Node3&#45;&gt;Node4 -->
<g id="edge3" class="edge">
<title>Node3&#45;&gt;Node4</title>
<path fill="none" stroke="midnightblue" d="M48.89,-237.08C41.54,-220.03 35.51,-196.89 45.5,-179 55.44,-161.19 75.65,-149.56 92.29,-142.59"/>
<polygon fill="midnightblue" stroke="midnightblue" points="45.82,-238.78 53.25,-246.33 52.15,-235.8 45.82,-238.78"/>
</g>
<!-- Node5 -->
<g id="node5" class="node">
<title>Node5</title>
<g id="a_node5"><a xlink:href="cross-thread-persistent_8h.html" target="_top" xlink:title=" ">
<polygon fill="white" stroke="black" points="19.5,-0.5 19.5,-30.5 123.5,-30.5 123.5,-0.5 19.5,-0.5"/>
<text text-anchor="start" x="27.5" y="-18.5" font-family="Helvetica,sans-Serif" font-size="10.00">include/cppgc/cross</text>
<text text-anchor="middle" x="71.5" y="-7.5" font-family="Helvetica,sans-Serif" font-size="10.00">&#45;thread&#45;persistent.h</text>
</a>
</g>
</g>
<!-- Node4&#45;&gt;Node5 -->
<g id="edge4" class="edge">
<title>Node4&#45;&gt;Node5</title>
<path fill="none" stroke="midnightblue" d="M82.26,-119.15C67.83,-112.05 52.72,-101.62 44.5,-87 34.09,-68.49 47.67,-45.18 59.04,-30.55"/>
<polygon fill="midnightblue" stroke="midnightblue" points="81.02,-122.43 91.57,-123.36 83.9,-116.05 81.02,-122.43"/>
</g>
<!-- Node6 -->
<g id="node6" class="node">
<title>Node6</title>
<g id="a_node6"><a xlink:href="persistent_8h.html" target="_top" xlink:title=" ">
<polygon fill="white" stroke="black" points="53.5,-67.5 53.5,-86.5 183.5,-86.5 183.5,-67.5 53.5,-67.5"/>
<text text-anchor="middle" x="118.5" y="-74.5" font-family="Helvetica,sans-Serif" font-size="10.00">include/cppgc/persistent.h</text>
</a>
</g>
</g>
<!-- Node4&#45;&gt;Node6 -->
<g id="edge5" class="edge">
<title>Node4&#45;&gt;Node6</title>
<path fill="none" stroke="midnightblue" d="M118.5,-112.8C118.5,-103.91 118.5,-93.78 118.5,-86.75"/>
<polygon fill="midnightblue" stroke="midnightblue" points="115,-113.08 118.5,-123.08 122,-113.08 115,-113.08"/>
</g>
<!-- Node7 -->
<g id="node7" class="node">
<title>Node7</title>
<g id="a_node7"><a xlink:href="v8-cppgc_8h.html" target="_top" xlink:title=" ">
<polygon fill="white" stroke="black" points="201.5,-67.5 201.5,-86.5 299.5,-86.5 299.5,-67.5 201.5,-67.5"/>
<text text-anchor="middle" x="250.5" y="-74.5" font-family="Helvetica,sans-Serif" font-size="10.00">include/v8&#45;cppgc.h</text>
</a>
</g>
</g>
<!-- Node4&#45;&gt;Node7 -->
<g id="edge7" class="edge">
<title>Node4&#45;&gt;Node7</title>
<path fill="none" stroke="midnightblue" d="M148.72,-119.64C173.49,-109.5 207.9,-95.43 229.68,-86.52"/>
<polygon fill="midnightblue" stroke="midnightblue" points="147.35,-116.42 139.42,-123.44 150,-122.9 147.35,-116.42"/>
</g>
<!-- Node6&#45;&gt;Node5 -->
<g id="edge6" class="edge">
<title>Node6&#45;&gt;Node5</title>
<path fill="none" stroke="midnightblue" d="M105.49,-59.53C98.29,-50.42 89.44,-39.21 82.58,-30.52"/>
<polygon fill="midnightblue" stroke="midnightblue" points="102.82,-61.8 111.77,-67.48 108.31,-57.46 102.82,-61.8"/>
</g>
<!-- Node9 -->
<g id="node9" class="node">
<title>Node9</title>
<g id="a_node9"><a xlink:href="prefinalizer-handler_8h.html" target="_top" xlink:title=" ">
<polygon fill="white" stroke="black" points="277,-179.5 277,-209.5 388,-209.5 388,-179.5 277,-179.5"/>
<text text-anchor="start" x="285" y="-197.5" font-family="Helvetica,sans-Serif" font-size="10.00">include/cppgc/internal</text>
<text text-anchor="middle" x="332.5" y="-186.5" font-family="Helvetica,sans-Serif" font-size="10.00">/prefinalizer&#45;handler.h</text>
</a>
</g>
</g>
<!-- Node8&#45;&gt;Node9 -->
<g id="edge9" class="edge">
<title>Node8&#45;&gt;Node9</title>
<path fill="none" stroke="midnightblue" d="M242.75,-313.46C256.61,-304.29 273.9,-291.38 286.5,-277 304.81,-256.1 319.18,-226.76 326.71,-209.58"/>
<polygon fill="midnightblue" stroke="midnightblue" points="240.76,-310.58 234.22,-318.92 244.53,-316.47 240.76,-310.58"/>
</g>
<!-- Node11 -->
<g id="node11" class="node">
<title>Node11</title>
<g id="a_node11"><a xlink:href="liveness-broker_8h.html" target="_top" xlink:title=" ">
<polygon fill="white" stroke="black" points="161.5,-246.5 161.5,-276.5 277.5,-276.5 277.5,-246.5 161.5,-246.5"/>
<text text-anchor="start" x="169.5" y="-264.5" font-family="Helvetica,sans-Serif" font-size="10.00">include/cppgc/liveness</text>
<text text-anchor="middle" x="219.5" y="-253.5" font-family="Helvetica,sans-Serif" font-size="10.00">&#45;broker.h</text>
</a>
</g>
</g>
<!-- Node8&#45;&gt;Node11 -->
<g id="edge11" class="edge">
<title>Node8&#45;&gt;Node11</title>
<path fill="none" stroke="midnightblue" d="M219.5,-308.41C219.5,-298.22 219.5,-285.9 219.5,-276.59"/>
<polygon fill="midnightblue" stroke="midnightblue" points="216,-308.73 219.5,-318.73 223,-308.73 216,-308.73"/>
</g>
<!-- Node10 -->
<g id="node10" class="node">
<title>Node10</title>
<g id="a_node10"><a xlink:href="prefinalizer_8h.html" target="_top" xlink:title=" ">
<polygon fill="white" stroke="black" points="229,-123.5 229,-142.5 362,-142.5 362,-123.5 229,-123.5"/>
<text text-anchor="middle" x="295.5" y="-130.5" font-family="Helvetica,sans-Serif" font-size="10.00">include/cppgc/prefinalizer.h</text>
</a>
</g>
</g>
<!-- Node9&#45;&gt;Node10 -->
<g id="edge10" class="edge">
<title>Node9&#45;&gt;Node10</title>
<path fill="none" stroke="midnightblue" d="M318.39,-170.8C312.27,-160.96 305.47,-150.03 300.88,-142.66"/>
<polygon fill="midnightblue" stroke="midnightblue" points="315.48,-172.76 323.73,-179.4 321.42,-169.06 315.48,-172.76"/>
</g>
<!-- Node11&#45;&gt;Node4 -->
<g id="edge16" class="edge">
<title>Node11&#45;&gt;Node4</title>
<path fill="none" stroke="midnightblue" d="M215.72,-236.44C211.98,-219 204.81,-195.64 191.5,-179 178.02,-162.14 156.39,-149.94 140.17,-142.54"/>
<polygon fill="midnightblue" stroke="midnightblue" points="212.31,-237.26 217.63,-246.42 219.19,-235.95 212.31,-237.26"/>
</g>
<!-- Node11&#45;&gt;Node9 -->
<g id="edge14" class="edge">
<title>Node11&#45;&gt;Node9</title>
<path fill="none" stroke="midnightblue" d="M252.89,-241.3C270.57,-231.12 291.9,-218.85 308.03,-209.58"/>
<polygon fill="midnightblue" stroke="midnightblue" points="250.94,-238.38 244.02,-246.4 254.43,-244.44 250.94,-238.38"/>
</g>
<!-- Node11&#45;&gt;Node10 -->
<g id="edge15" class="edge">
<title>Node11&#45;&gt;Node10</title>
<path fill="none" stroke="midnightblue" d="M233.24,-237.63C250.29,-209.24 278.56,-162.2 290.22,-142.79"/>
<polygon fill="midnightblue" stroke="midnightblue" points="230.07,-236.1 227.92,-246.48 236.07,-239.71 230.07,-236.1"/>
</g>
<!-- Node12 -->
<g id="node12" class="node">
<title>Node12</title>
<g id="a_node12"><a xlink:href="ephemeron-pair_8h.html" target="_top" xlink:title=" ">
<polygon fill="white" stroke="black" points="54.5,-179.5 54.5,-209.5 182.5,-209.5 182.5,-179.5 54.5,-179.5"/>
<text text-anchor="start" x="62.5" y="-197.5" font-family="Helvetica,sans-Serif" font-size="10.00">include/cppgc/ephemeron</text>
<text text-anchor="middle" x="118.5" y="-186.5" font-family="Helvetica,sans-Serif" font-size="10.00">&#45;pair.h</text>
</a>
</g>
</g>
<!-- Node11&#45;&gt;Node12 -->
<g id="edge12" class="edge">
<title>Node11&#45;&gt;Node12</title>
<path fill="none" stroke="midnightblue" d="M188.79,-240.73C173.16,-230.68 154.53,-218.68 140.37,-209.58"/>
<polygon fill="midnightblue" stroke="midnightblue" points="187.28,-243.93 197.58,-246.4 191.07,-238.04 187.28,-243.93"/>
</g>
<!-- Node12&#45;&gt;Node4 -->
<g id="edge13" class="edge">
<title>Node12&#45;&gt;Node4</title>
<path fill="none" stroke="midnightblue" d="M118.5,-169.29C118.5,-159.86 118.5,-149.65 118.5,-142.66"/>
<polygon fill="midnightblue" stroke="midnightblue" points="115,-169.4 118.5,-179.4 122,-169.4 115,-169.4"/>
</g>
</g>
</svg>
