<?xml version="1.0" encoding="UTF-8" standalone="no"?>
<!DOCTYPE svg PUBLIC "-//W3C//DTD SVG 1.1//EN"
 "http://www.w3.org/Graphics/SVG/1.1/DTD/svg11.dtd">
<!-- Generated by graphviz version 2.49.3 (20211027.1534)
 -->
<!-- Title: include/cppgc/internal/prefinalizer&#45;handler.h Pages: 1 -->
<svg width="1667pt" height="464pt"
 viewBox="0.00 0.00 1666.79 464.00" xmlns="http://www.w3.org/2000/svg" xmlns:xlink="http://www.w3.org/1999/xlink">
<g id="graph0" class="graph" transform="scale(1 1) rotate(0) translate(4 460)">
<title>include/cppgc/internal/prefinalizer&#45;handler.h</title>
<polygon fill="white" stroke="transparent" points="-4,4 -4,-460 1662.79,-460 1662.79,4 -4,4"/>
<!-- Node1 -->
<g id="node1" class="node">
<title>Node1</title>
<g id="a_node1"><a xlink:title=" ">
<polygon fill="#bfbfbf" stroke="black" points="390.29,-425.5 390.29,-455.5 501.29,-455.5 501.29,-425.5 390.29,-425.5"/>
<text text-anchor="start" x="398.29" y="-443.5" font-family="Helvetica,sans-Serif" font-size="10.00">include/cppgc/internal</text>
<text text-anchor="middle" x="445.79" y="-432.5" font-family="Helvetica,sans-Serif" font-size="10.00">/prefinalizer&#45;handler.h</text>
</a>
</g>
</g>
<!-- Node2 -->
<g id="node2" class="node">
<title>Node2</title>
<g id="a_node2"><a xlink:href="heap_8h.html" target="_top" xlink:title=" ">
<polygon fill="white" stroke="black" points="315.79,-252 315.79,-271 389.79,-271 389.79,-252 315.79,-252"/>
<text text-anchor="middle" x="352.79" y="-259" font-family="Helvetica,sans-Serif" font-size="10.00">cppgc/heap.h</text>
</a>
</g>
</g>
<!-- Node1&#45;&gt;Node2 -->
<g id="edge1" class="edge">
<title>Node1&#45;&gt;Node2</title>
<path fill="none" stroke="midnightblue" d="M438.34,-425.31C421.55,-393.36 380.79,-315.78 362.25,-280.5"/>
<polygon fill="midnightblue" stroke="midnightblue" points="365.21,-278.6 357.46,-271.37 359.01,-281.85 365.21,-278.6"/>
</g>
<!-- Node16 -->
<g id="node16" class="node">
<title>Node16</title>
<g id="a_node16"><a xlink:href="liveness-broker_8h.html" target="_top" xlink:title=" ">
<polygon fill="white" stroke="black" points="460.29,-369.5 460.29,-388.5 579.29,-388.5 579.29,-369.5 460.29,-369.5"/>
<text text-anchor="middle" x="519.79" y="-376.5" font-family="Helvetica,sans-Serif" font-size="10.00">cppgc/liveness&#45;broker.h</text>
</a>
</g>
</g>
<!-- Node1&#45;&gt;Node16 -->
<g id="edge21" class="edge">
<title>Node1&#45;&gt;Node16</title>
<path fill="none" stroke="midnightblue" d="M463.33,-425.4C474.64,-416.31 489.34,-404.49 500.9,-395.19"/>
<polygon fill="midnightblue" stroke="midnightblue" points="503.43,-397.65 509.03,-388.66 499.04,-392.2 503.43,-397.65"/>
</g>
<!-- Node3 -->
<g id="node3" class="node">
<title>Node3</title>
<g id="a_node3"><a xlink:title=" ">
<polygon fill="white" stroke="#bfbfbf" points="764.29,-0.5 764.29,-19.5 813.29,-19.5 813.29,-0.5 764.29,-0.5"/>
<text text-anchor="middle" x="788.79" y="-7.5" font-family="Helvetica,sans-Serif" font-size="10.00">cstddef</text>
</a>
</g>
</g>
<!-- Node2&#45;&gt;Node3 -->
<g id="edge2" class="edge">
<title>Node2&#45;&gt;Node3</title>
<path fill="none" stroke="midnightblue" d="M350.62,-251.94C343.19,-220.56 322.31,-110.79 377.79,-56 404.38,-29.74 659.63,-16.43 753.97,-12.37"/>
<polygon fill="midnightblue" stroke="midnightblue" points="754.3,-15.86 764.14,-11.95 754,-8.87 754.3,-15.86"/>
</g>
<!-- Node4 -->
<g id="node4" class="node">
<title>Node4</title>
<g id="a_node4"><a xlink:title=" ">
<polygon fill="white" stroke="#bfbfbf" points="1091.79,-56.5 1091.79,-75.5 1137.79,-75.5 1137.79,-56.5 1091.79,-56.5"/>
<text text-anchor="middle" x="1114.79" y="-63.5" font-family="Helvetica,sans-Serif" font-size="10.00">cstdint</text>
</a>
</g>
</g>
<!-- Node2&#45;&gt;Node4 -->
<g id="edge3" class="edge">
<title>Node2&#45;&gt;Node4</title>
<path fill="none" stroke="midnightblue" d="M390.09,-260.3C494.45,-258.42 796.4,-243.98 1019.79,-143 1051.84,-128.51 1082.39,-100.72 1099.83,-83.06"/>
<polygon fill="midnightblue" stroke="midnightblue" points="1102.46,-85.37 1106.88,-75.74 1097.42,-80.52 1102.46,-85.37"/>
</g>
<!-- Node5 -->
<g id="node5" class="node">
<title>Node5</title>
<g id="a_node5"><a xlink:title=" ">
<polygon fill="white" stroke="#bfbfbf" points="25.29,-56.5 25.29,-75.5 76.29,-75.5 76.29,-56.5 25.29,-56.5"/>
<text text-anchor="middle" x="50.79" y="-63.5" font-family="Helvetica,sans-Serif" font-size="10.00">memory</text>
</a>
</g>
</g>
<!-- Node2&#45;&gt;Node5 -->
<g id="edge4" class="edge">
<title>Node2&#45;&gt;Node5</title>
<path fill="none" stroke="midnightblue" d="M315.5,-260.79C235.51,-260.54 51.57,-254.96 12.79,-210 -18.85,-173.31 16.75,-113.07 37.7,-83.89"/>
<polygon fill="midnightblue" stroke="midnightblue" points="40.72,-85.69 43.88,-75.58 35.1,-81.52 40.72,-85.69"/>
</g>
<!-- Node6 -->
<g id="node6" class="node">
<title>Node6</title>
<g id="a_node6"><a xlink:title=" ">
<polygon fill="white" stroke="#bfbfbf" points="21.79,-185 21.79,-204 65.79,-204 65.79,-185 21.79,-185"/>
<text text-anchor="middle" x="43.79" y="-192" font-family="Helvetica,sans-Serif" font-size="10.00">vector</text>
</a>
</g>
</g>
<!-- Node2&#45;&gt;Node6 -->
<g id="edge5" class="edge">
<title>Node2&#45;&gt;Node6</title>
<path fill="none" stroke="midnightblue" d="M315.45,-256.99C261.18,-251.17 157.81,-237.34 73.79,-210 72.13,-209.46 70.44,-208.84 68.75,-208.18"/>
<polygon fill="midnightblue" stroke="midnightblue" points="69.9,-204.86 59.34,-204 67.06,-211.26 69.9,-204.86"/>
</g>
<!-- Node7 -->
<g id="node7" class="node">
<title>Node7</title>
<g id="a_node7"><a xlink:href="common_8h.html" target="_top" xlink:title=" ">
<polygon fill="white" stroke="black" points="400.29,-185 400.29,-204 491.29,-204 491.29,-185 400.29,-185"/>
<text text-anchor="middle" x="445.79" y="-192" font-family="Helvetica,sans-Serif" font-size="10.00">cppgc/common.h</text>
</a>
</g>
</g>
<!-- Node2&#45;&gt;Node7 -->
<g id="edge6" class="edge">
<title>Node2&#45;&gt;Node7</title>
<path fill="none" stroke="midnightblue" d="M365.34,-251.73C380.68,-241.01 406.85,-222.72 425.17,-209.91"/>
<polygon fill="midnightblue" stroke="midnightblue" points="427.26,-212.72 433.45,-204.13 423.25,-206.99 427.26,-212.72"/>
</g>
<!-- Node8 -->
<g id="node8" class="node">
<title>Node8</title>
<g id="a_node8"><a xlink:href="v8config_8h.html" target="_top" xlink:title=" ">
<polygon fill="white" stroke="black" points="546.79,-56.5 546.79,-75.5 606.79,-75.5 606.79,-56.5 546.79,-56.5"/>
<text text-anchor="middle" x="576.79" y="-63.5" font-family="Helvetica,sans-Serif" font-size="10.00">v8config.h</text>
</a>
</g>
</g>
<!-- Node2&#45;&gt;Node8 -->
<g id="edge20" class="edge">
<title>Node2&#45;&gt;Node8</title>
<path fill="none" stroke="midnightblue" d="M355.31,-251.92C360.21,-236.21 372.22,-202.32 390.79,-179 430.91,-128.64 500.3,-95.62 542.03,-79.22"/>
<polygon fill="midnightblue" stroke="midnightblue" points="543.42,-82.44 551.51,-75.6 540.92,-75.9 543.42,-82.44"/>
</g>
<!-- Node9 -->
<g id="node9" class="node">
<title>Node9</title>
<g id="a_node9"><a xlink:href="custom-space_8h.html" target="_top" xlink:title=" ">
<polygon fill="white" stroke="black" points="190.29,-185 190.29,-204 305.29,-204 305.29,-185 190.29,-185"/>
<text text-anchor="middle" x="247.79" y="-192" font-family="Helvetica,sans-Serif" font-size="10.00">cppgc/custom&#45;space.h</text>
</a>
</g>
</g>
<!-- Node2&#45;&gt;Node9 -->
<g id="edge8" class="edge">
<title>Node2&#45;&gt;Node9</title>
<path fill="none" stroke="midnightblue" d="M338.63,-251.73C321.08,-240.87 290.95,-222.22 270.24,-209.39"/>
<polygon fill="midnightblue" stroke="midnightblue" points="272.08,-206.41 261.73,-204.13 268.39,-212.37 272.08,-206.41"/>
</g>
<!-- Node11 -->
<g id="node11" class="node">
<title>Node11</title>
<g id="a_node11"><a xlink:href="platform_8h.html" target="_top" xlink:title=" ">
<polygon fill="white" stroke="black" points="83.29,-185 83.29,-204 172.29,-204 172.29,-185 83.29,-185"/>
<text text-anchor="middle" x="127.79" y="-192" font-family="Helvetica,sans-Serif" font-size="10.00">cppgc/platform.h</text>
</a>
</g>
</g>
<!-- Node2&#45;&gt;Node11 -->
<g id="edge10" class="edge">
<title>Node2&#45;&gt;Node11</title>
<path fill="none" stroke="midnightblue" d="M322.92,-251.87C282.88,-240.3 211.73,-219.75 167.31,-206.91"/>
<polygon fill="midnightblue" stroke="midnightblue" points="168.02,-203.48 157.44,-204.06 166.07,-210.2 168.02,-203.48"/>
</g>
<!-- Node7&#45;&gt;Node8 -->
<g id="edge7" class="edge">
<title>Node7&#45;&gt;Node8</title>
<path fill="none" stroke="midnightblue" d="M450.69,-184.83C459.93,-168.99 481.25,-134.89 505.79,-112 519.19,-99.51 536.52,-88.45 550.7,-80.42"/>
<polygon fill="midnightblue" stroke="midnightblue" points="552.41,-83.47 559.49,-75.6 549.04,-77.34 552.41,-83.47"/>
</g>
<!-- Node10 -->
<g id="node10" class="node">
<title>Node10</title>
<g id="a_node10"><a xlink:title=" ">
<polygon fill="white" stroke="#bfbfbf" points="226.29,-56.5 226.29,-75.5 277.29,-75.5 277.29,-56.5 226.29,-56.5"/>
<text text-anchor="middle" x="251.79" y="-63.5" font-family="Helvetica,sans-Serif" font-size="10.00">stddef.h</text>
</a>
</g>
</g>
<!-- Node9&#45;&gt;Node10 -->
<g id="edge9" class="edge">
<title>Node9&#45;&gt;Node10</title>
<path fill="none" stroke="midnightblue" d="M248.07,-184.81C248.71,-164.49 250.32,-113.55 251.2,-85.78"/>
<polygon fill="midnightblue" stroke="midnightblue" points="254.7,-85.86 251.52,-75.76 247.7,-85.64 254.7,-85.86"/>
</g>
<!-- Node11&#45;&gt;Node5 -->
<g id="edge11" class="edge">
<title>Node11&#45;&gt;Node5</title>
<path fill="none" stroke="midnightblue" d="M122.5,-184.81C109.92,-164.13 78.02,-111.73 61.34,-84.32"/>
<polygon fill="midnightblue" stroke="midnightblue" points="64.31,-82.48 56.12,-75.76 58.33,-86.12 64.31,-82.48"/>
</g>
<!-- Node11&#45;&gt;Node8 -->
<g id="edge19" class="edge">
<title>Node11&#45;&gt;Node8</title>
<path fill="none" stroke="midnightblue" d="M148.73,-184.98C188.77,-168.94 279.23,-133.88 357.79,-112 419.41,-94.84 492.45,-81.13 536.67,-73.53"/>
<polygon fill="midnightblue" stroke="midnightblue" points="537.45,-76.95 546.73,-71.82 536.28,-70.05 537.45,-76.95"/>
</g>
<!-- Node12 -->
<g id="node12" class="node">
<title>Node12</title>
<g id="a_node12"><a xlink:href="v8-platform_8h.html" target="_top" xlink:title=" ">
<polygon fill="white" stroke="black" points="148.29,-118 148.29,-137 221.29,-137 221.29,-118 148.29,-118"/>
<text text-anchor="middle" x="184.79" y="-125" font-family="Helvetica,sans-Serif" font-size="10.00">v8&#45;platform.h</text>
</a>
</g>
</g>
<!-- Node11&#45;&gt;Node12 -->
<g id="edge12" class="edge">
<title>Node11&#45;&gt;Node12</title>
<path fill="none" stroke="midnightblue" d="M135.48,-184.73C144.46,-174.5 159.48,-157.36 170.59,-144.69"/>
<polygon fill="midnightblue" stroke="midnightblue" points="173.27,-146.95 177.23,-137.13 168,-142.34 173.27,-146.95"/>
</g>
<!-- Node12&#45;&gt;Node5 -->
<g id="edge16" class="edge">
<title>Node12&#45;&gt;Node5</title>
<path fill="none" stroke="midnightblue" d="M165.6,-117.98C143.01,-107.95 105.3,-91.2 79.29,-79.65"/>
<polygon fill="midnightblue" stroke="midnightblue" points="80.52,-76.37 69.96,-75.51 77.68,-82.77 80.52,-76.37"/>
</g>
<!-- Node12&#45;&gt;Node8 -->
<g id="edge18" class="edge">
<title>Node12&#45;&gt;Node8</title>
<path fill="none" stroke="midnightblue" d="M221.33,-120.91C238.99,-118.22 260.5,-114.93 279.79,-112 371.53,-98.05 479.22,-81.75 536.37,-73.11"/>
<polygon fill="midnightblue" stroke="midnightblue" points="537.07,-76.54 546.44,-71.59 536.03,-69.62 537.07,-76.54"/>
</g>
<!-- Node12&#45;&gt;Node10 -->
<g id="edge13" class="edge">
<title>Node12&#45;&gt;Node10</title>
<path fill="none" stroke="midnightblue" d="M194.39,-117.98C204.84,-108.7 221.76,-93.67 234.53,-82.33"/>
<polygon fill="midnightblue" stroke="midnightblue" points="237.06,-84.77 242.21,-75.51 232.41,-79.53 237.06,-84.77"/>
</g>
<!-- Node13 -->
<g id="node13" class="node">
<title>Node13</title>
<g id="a_node13"><a xlink:title=" ">
<polygon fill="white" stroke="#bfbfbf" points="94.79,-56.5 94.79,-75.5 142.79,-75.5 142.79,-56.5 94.79,-56.5"/>
<text text-anchor="middle" x="118.79" y="-63.5" font-family="Helvetica,sans-Serif" font-size="10.00">stdint.h</text>
</a>
</g>
</g>
<!-- Node12&#45;&gt;Node13 -->
<g id="edge14" class="edge">
<title>Node12&#45;&gt;Node13</title>
<path fill="none" stroke="midnightblue" d="M175.34,-117.98C165.05,-108.7 148.38,-93.67 135.8,-82.33"/>
<polygon fill="midnightblue" stroke="midnightblue" points="138,-79.61 128.23,-75.51 133.32,-84.8 138,-79.61"/>
</g>
<!-- Node14 -->
<g id="node14" class="node">
<title>Node14</title>
<g id="a_node14"><a xlink:title=" ">
<polygon fill="white" stroke="#bfbfbf" points="161.29,-56.5 161.29,-75.5 208.29,-75.5 208.29,-56.5 161.29,-56.5"/>
<text text-anchor="middle" x="184.79" y="-63.5" font-family="Helvetica,sans-Serif" font-size="10.00">stdlib.h</text>
</a>
</g>
</g>
<!-- Node12&#45;&gt;Node14 -->
<g id="edge15" class="edge">
<title>Node12&#45;&gt;Node14</title>
<path fill="none" stroke="midnightblue" d="M184.79,-117.98C184.79,-109.58 184.79,-96.48 184.79,-85.66"/>
<polygon fill="midnightblue" stroke="midnightblue" points="188.29,-85.51 184.79,-75.51 181.29,-85.51 188.29,-85.51"/>
</g>
<!-- Node15 -->
<g id="node15" class="node">
<title>Node15</title>
<g id="a_node15"><a xlink:title=" ">
<polygon fill="white" stroke="#bfbfbf" points="387.29,-56.5 387.29,-75.5 428.29,-75.5 428.29,-56.5 387.29,-56.5"/>
<text text-anchor="middle" x="407.79" y="-63.5" font-family="Helvetica,sans-Serif" font-size="10.00">string</text>
</a>
</g>
</g>
<!-- Node12&#45;&gt;Node15 -->
<g id="edge17" class="edge">
<title>Node12&#45;&gt;Node15</title>
<path fill="none" stroke="midnightblue" d="M216.74,-117.98C259.69,-106.52 335.49,-86.29 377.55,-75.07"/>
<polygon fill="midnightblue" stroke="midnightblue" points="378.46,-78.45 387.22,-72.49 376.66,-71.68 378.46,-78.45"/>
</g>
<!-- Node16&#45;&gt;Node2 -->
<g id="edge22" class="edge">
<title>Node16&#45;&gt;Node2</title>
<path fill="none" stroke="midnightblue" d="M507.24,-369.32C478.83,-349.67 409.34,-301.61 374.07,-277.22"/>
<polygon fill="midnightblue" stroke="midnightblue" points="375.71,-274.09 365.49,-271.28 371.73,-279.85 375.71,-274.09"/>
</g>
<!-- Node16&#45;&gt;Node8 -->
<g id="edge61" class="edge">
<title>Node16&#45;&gt;Node8</title>
<path fill="none" stroke="midnightblue" d="M519.79,-369.31C519.79,-350.06 519.79,-302.4 519.79,-262.5 519.79,-262.5 519.79,-262.5 519.79,-193.5 519.79,-150.97 546.91,-106.93 563.74,-83.7"/>
<polygon fill="midnightblue" stroke="midnightblue" points="566.61,-85.7 569.8,-75.6 561.01,-81.5 566.61,-85.7"/>
</g>
<!-- Node17 -->
<g id="node17" class="node">
<title>Node17</title>
<g id="a_node17"><a xlink:href="member_8h.html" target="_top" xlink:title=" ">
<polygon fill="white" stroke="black" points="1279.29,-313.5 1279.29,-332.5 1368.29,-332.5 1368.29,-313.5 1279.29,-313.5"/>
<text text-anchor="middle" x="1323.79" y="-320.5" font-family="Helvetica,sans-Serif" font-size="10.00">cppgc/member.h</text>
</a>
</g>
</g>
<!-- Node16&#45;&gt;Node17 -->
<g id="edge23" class="edge">
<title>Node16&#45;&gt;Node17</title>
<path fill="none" stroke="midnightblue" d="M579.57,-373.99C730.26,-363.86 1123.96,-337.42 1269.06,-327.68"/>
<polygon fill="midnightblue" stroke="midnightblue" points="1269.33,-331.17 1279.07,-327 1268.86,-324.18 1269.33,-331.17"/>
</g>
<!-- Node26 -->
<g id="node26" class="node">
<title>Node26</title>
<g id="a_node26"><a xlink:href="trace-trait_8h.html" target="_top" xlink:title=" ">
<polygon fill="white" stroke="black" points="1523.29,-118 1523.29,-137 1618.29,-137 1618.29,-118 1523.29,-118"/>
<text text-anchor="middle" x="1570.79" y="-125" font-family="Helvetica,sans-Serif" font-size="10.00">cppgc/trace&#45;trait.h</text>
</a>
</g>
</g>
<!-- Node16&#45;&gt;Node26 -->
<g id="edge60" class="edge">
<title>Node16&#45;&gt;Node26</title>
<path fill="none" stroke="midnightblue" d="M579.47,-377.43C762.17,-375.31 1305.88,-366.28 1377.79,-333 1467.62,-291.44 1536.22,-187.44 1560.88,-145.97"/>
<polygon fill="midnightblue" stroke="midnightblue" points="1563.94,-147.67 1565.95,-137.27 1557.89,-144.15 1563.94,-147.67"/>
</g>
<!-- Node17&#45;&gt;Node3 -->
<g id="edge25" class="edge">
<title>Node17&#45;&gt;Node3</title>
<path fill="none" stroke="midnightblue" d="M1279.12,-322.09C1188.03,-321.42 974.76,-315.45 800.79,-277 715.81,-258.22 684.76,-264.37 616.79,-210 556.72,-161.95 488.43,-115 537.79,-56 564.98,-23.5 691.86,-14.44 754.13,-11.94"/>
<polygon fill="midnightblue" stroke="midnightblue" points="754.39,-15.43 764.26,-11.57 754.14,-8.44 754.39,-15.43"/>
</g>
<!-- Node17&#45;&gt;Node8 -->
<g id="edge59" class="edge">
<title>Node17&#45;&gt;Node8</title>
<path fill="none" stroke="midnightblue" d="M1279.16,-319.88C1173.95,-313.67 903.61,-290.47 694.79,-210 642.44,-189.82 618.43,-190.01 587.79,-143 576.68,-125.94 574.91,-102.18 575.29,-85.79"/>
<polygon fill="midnightblue" stroke="midnightblue" points="578.79,-85.96 575.81,-75.79 571.8,-85.6 578.79,-85.96"/>
</g>
<!-- Node18 -->
<g id="node18" class="node">
<title>Node18</title>
<g id="a_node18"><a xlink:title=" ">
<polygon fill="white" stroke="#bfbfbf" points="1297.79,-56.5 1297.79,-75.5 1343.79,-75.5 1343.79,-56.5 1297.79,-56.5"/>
<text text-anchor="middle" x="1320.79" y="-63.5" font-family="Helvetica,sans-Serif" font-size="10.00">atomic</text>
</a>
</g>
</g>
<!-- Node17&#45;&gt;Node18 -->
<g id="edge24" class="edge">
<title>Node17&#45;&gt;Node18</title>
<path fill="none" stroke="midnightblue" d="M1335.25,-313.43C1373.03,-284.13 1488.41,-185.69 1437.79,-112 1419.11,-84.8 1381.52,-74.03 1353.96,-69.78"/>
<polygon fill="midnightblue" stroke="midnightblue" points="1354.33,-66.29 1343.96,-68.44 1353.41,-73.23 1354.33,-66.29"/>
</g>
<!-- Node19 -->
<g id="node19" class="node">
<title>Node19</title>
<g id="a_node19"><a xlink:title=" ">
<polygon fill="white" stroke="#bfbfbf" points="1596.79,-0.5 1596.79,-19.5 1658.79,-19.5 1658.79,-0.5 1596.79,-0.5"/>
<text text-anchor="middle" x="1627.79" y="-7.5" font-family="Helvetica,sans-Serif" font-size="10.00">type_traits</text>
</a>
</g>
</g>
<!-- Node17&#45;&gt;Node19 -->
<g id="edge26" class="edge">
<title>Node17&#45;&gt;Node19</title>
<path fill="none" stroke="midnightblue" d="M1368.34,-315.74C1406.16,-309.32 1461.23,-297.35 1505.79,-277 1552.79,-255.54 1565.07,-247.32 1600.79,-210 1645.2,-163.62 1649.58,-140 1654.79,-76 1655.52,-67.14 1657.17,-64.57 1654.79,-56 1652,-45.92 1646.29,-35.83 1640.83,-27.77"/>
<polygon fill="midnightblue" stroke="midnightblue" points="1643.64,-25.69 1634.95,-19.64 1637.97,-29.79 1643.64,-25.69"/>
</g>
<!-- Node20 -->
<g id="node20" class="node">
<title>Node20</title>
<g id="a_node20"><a xlink:href="pointer-policies_8h.html" target="_top" xlink:title=" ">
<polygon fill="white" stroke="black" points="1226.79,-246.5 1226.79,-276.5 1336.79,-276.5 1336.79,-246.5 1226.79,-246.5"/>
<text text-anchor="start" x="1234.79" y="-264.5" font-family="Helvetica,sans-Serif" font-size="10.00">cppgc/internal/pointer</text>
<text text-anchor="middle" x="1281.79" y="-253.5" font-family="Helvetica,sans-Serif" font-size="10.00">&#45;policies.h</text>
</a>
</g>
</g>
<!-- Node17&#45;&gt;Node20 -->
<g id="edge27" class="edge">
<title>Node17&#45;&gt;Node20</title>
<path fill="none" stroke="midnightblue" d="M1317.78,-313.48C1312.51,-306.02 1304.63,-294.85 1297.58,-284.87"/>
<polygon fill="midnightblue" stroke="midnightblue" points="1300.32,-282.67 1291.69,-276.52 1294.6,-286.71 1300.32,-282.67"/>
</g>
<!-- Node25 -->
<g id="node25" class="node">
<title>Node25</title>
<g id="a_node25"><a xlink:href="sentinel-pointer_8h.html" target="_top" xlink:title=" ">
<polygon fill="white" stroke="black" points="1309.29,-118 1309.29,-137 1428.29,-137 1428.29,-118 1309.29,-118"/>
<text text-anchor="middle" x="1368.79" y="-125" font-family="Helvetica,sans-Serif" font-size="10.00">cppgc/sentinel&#45;pointer.h</text>
</a>
</g>
</g>
<!-- Node17&#45;&gt;Node25 -->
<g id="edge57" class="edge">
<title>Node17&#45;&gt;Node25</title>
<path fill="none" stroke="midnightblue" d="M1329,-313.36C1334.07,-304.53 1341.63,-290.28 1345.79,-277 1360.01,-231.72 1365.64,-175.79 1367.7,-147.23"/>
<polygon fill="midnightblue" stroke="midnightblue" points="1371.21,-147.28 1368.37,-137.08 1364.22,-146.83 1371.21,-147.28"/>
</g>
<!-- Node27 -->
<g id="node27" class="node">
<title>Node27</title>
<g id="a_node27"><a xlink:href="type-traits_8h.html" target="_top" xlink:title=" ">
<polygon fill="white" stroke="black" points="1484.79,-56.5 1484.79,-75.5 1580.79,-75.5 1580.79,-56.5 1484.79,-56.5"/>
<text text-anchor="middle" x="1532.79" y="-63.5" font-family="Helvetica,sans-Serif" font-size="10.00">cppgc/type&#45;traits.h</text>
</a>
</g>
</g>
<!-- Node17&#45;&gt;Node27 -->
<g id="edge58" class="edge">
<title>Node17&#45;&gt;Node27</title>
<path fill="none" stroke="midnightblue" d="M1359.67,-313.45C1426.78,-295.28 1569.77,-245.81 1627.79,-143 1634.57,-131 1635.16,-123.64 1627.79,-112 1617.75,-96.13 1600.42,-85.74 1583.29,-79"/>
<polygon fill="midnightblue" stroke="midnightblue" points="1584.44,-75.69 1573.85,-75.62 1582.08,-82.28 1584.44,-75.69"/>
</g>
<!-- Node20&#45;&gt;Node4 -->
<g id="edge28" class="edge">
<title>Node20&#45;&gt;Node4</title>
<path fill="none" stroke="midnightblue" d="M1284.45,-246.26C1288.98,-217.27 1294.79,-150.87 1261.79,-112 1233.82,-79.04 1182.4,-69.78 1148.4,-67.41"/>
<polygon fill="midnightblue" stroke="midnightblue" points="1148.19,-63.9 1138.02,-66.87 1147.83,-70.89 1148.19,-63.9"/>
</g>
<!-- Node20&#45;&gt;Node8 -->
<g id="edge56" class="edge">
<title>Node20&#45;&gt;Node8</title>
<path fill="none" stroke="midnightblue" d="M1226.61,-257.32C1084.52,-248.13 710.53,-217.3 614.79,-143 596.44,-128.75 586.29,-103.27 581.19,-85.77"/>
<polygon fill="midnightblue" stroke="midnightblue" points="584.45,-84.41 578.54,-75.62 577.68,-86.18 584.45,-84.41"/>
</g>
<!-- Node20&#45;&gt;Node19 -->
<g id="edge29" class="edge">
<title>Node20&#45;&gt;Node19</title>
<path fill="none" stroke="midnightblue" d="M1336.92,-260.16C1416.45,-256.32 1561.1,-236.08 1627.79,-143 1651.96,-109.27 1641.94,-57.23 1634.01,-29.64"/>
<polygon fill="midnightblue" stroke="midnightblue" points="1637.24,-28.26 1630.94,-19.75 1630.56,-30.34 1637.24,-28.26"/>
</g>
<!-- Node21 -->
<g id="node21" class="node">
<title>Node21</title>
<g id="a_node21"><a xlink:href="write-barrier_8h.html" target="_top" xlink:title=" ">
<polygon fill="white" stroke="black" points="1143.29,-179.5 1143.29,-209.5 1244.29,-209.5 1244.29,-179.5 1143.29,-179.5"/>
<text text-anchor="start" x="1151.29" y="-197.5" font-family="Helvetica,sans-Serif" font-size="10.00">cppgc/internal/write</text>
<text text-anchor="middle" x="1193.79" y="-186.5" font-family="Helvetica,sans-Serif" font-size="10.00">&#45;barrier.h</text>
</a>
</g>
</g>
<!-- Node20&#45;&gt;Node21 -->
<g id="edge30" class="edge">
<title>Node20&#45;&gt;Node21</title>
<path fill="none" stroke="midnightblue" d="M1262.7,-246.4C1250.48,-237.37 1234.43,-225.51 1220.9,-215.52"/>
<polygon fill="midnightblue" stroke="midnightblue" points="1222.97,-212.7 1212.85,-209.58 1218.82,-218.33 1222.97,-212.7"/>
</g>
<!-- Node20&#45;&gt;Node25 -->
<g id="edge50" class="edge">
<title>Node20&#45;&gt;Node25</title>
<path fill="none" stroke="midnightblue" d="M1291.1,-246.37C1307.19,-221.97 1340.12,-172 1357.49,-145.65"/>
<polygon fill="midnightblue" stroke="midnightblue" points="1360.55,-147.37 1363.13,-137.1 1354.7,-143.52 1360.55,-147.37"/>
</g>
<!-- Node20&#45;&gt;Node27 -->
<g id="edge55" class="edge">
<title>Node20&#45;&gt;Node27</title>
<path fill="none" stroke="midnightblue" d="M1301.14,-246.21C1330.77,-224.27 1389.05,-180.84 1437.79,-143 1464.7,-122.11 1495.42,-97.37 1514.46,-81.93"/>
<polygon fill="midnightblue" stroke="midnightblue" points="1516.78,-84.56 1522.33,-75.54 1512.36,-79.12 1516.78,-84.56"/>
</g>
<!-- Node28 -->
<g id="node28" class="node">
<title>Node28</title>
<g id="a_node28"><a xlink:href="source-location_8h.html" target="_top" xlink:title=" ">
<polygon fill="white" stroke="black" points="624.29,-118 624.29,-137 743.29,-137 743.29,-118 624.29,-118"/>
<text text-anchor="middle" x="683.79" y="-125" font-family="Helvetica,sans-Serif" font-size="10.00">cppgc/source&#45;location.h</text>
</a>
</g>
</g>
<!-- Node20&#45;&gt;Node28 -->
<g id="edge51" class="edge">
<title>Node20&#45;&gt;Node28</title>
<path fill="none" stroke="midnightblue" d="M1226.61,-248.32C1110.39,-222.66 842.1,-163.44 732.14,-139.17"/>
<polygon fill="midnightblue" stroke="midnightblue" points="732.83,-135.74 722.31,-137 731.32,-142.58 732.83,-135.74"/>
</g>
<!-- Node21&#45;&gt;Node3 -->
<g id="edge31" class="edge">
<title>Node21&#45;&gt;Node3</title>
<path fill="none" stroke="midnightblue" d="M1164.35,-179.42C1129.83,-162.99 1070.85,-135.11 1019.79,-112 947.69,-79.36 862.2,-42.44 818.2,-23.57"/>
<polygon fill="midnightblue" stroke="midnightblue" points="819.53,-20.33 808.96,-19.61 816.77,-26.76 819.53,-20.33"/>
</g>
<!-- Node21&#45;&gt;Node4 -->
<g id="edge32" class="edge">
<title>Node21&#45;&gt;Node4</title>
<path fill="none" stroke="midnightblue" d="M1170.72,-179.34C1158.02,-170.41 1143.02,-157.78 1133.79,-143 1122.9,-125.55 1118.25,-102.18 1116.26,-85.99"/>
<polygon fill="midnightblue" stroke="midnightblue" points="1119.71,-85.25 1115.24,-75.65 1112.74,-85.94 1119.71,-85.25"/>
</g>
<!-- Node21&#45;&gt;Node8 -->
<g id="edge49" class="edge">
<title>Node21&#45;&gt;Node8</title>
<path fill="none" stroke="midnightblue" d="M1143.02,-190.54C1049.55,-184.54 854.12,-169.22 791.79,-143 771.39,-134.41 772.63,-121.85 752.79,-112 709.22,-90.36 654.25,-78.46 617.44,-72.42"/>
<polygon fill="midnightblue" stroke="midnightblue" points="617.52,-68.89 607.1,-70.8 616.44,-75.8 617.52,-68.89"/>
</g>
<!-- Node22 -->
<g id="node22" class="node">
<title>Node22</title>
<g id="a_node22"><a xlink:href="heap-state_8h.html" target="_top" xlink:title=" ">
<polygon fill="white" stroke="black" points="800.29,-118 800.29,-137 899.29,-137 899.29,-118 800.29,-118"/>
<text text-anchor="middle" x="849.79" y="-125" font-family="Helvetica,sans-Serif" font-size="10.00">cppgc/heap&#45;state.h</text>
</a>
</g>
</g>
<!-- Node21&#45;&gt;Node22 -->
<g id="edge33" class="edge">
<title>Node21&#45;&gt;Node22</title>
<path fill="none" stroke="midnightblue" d="M1143.11,-181.9C1138.28,-180.88 1133.45,-179.9 1128.79,-179 1031.51,-160.21 1005.87,-162.84 908.79,-143 903.43,-141.9 897.82,-140.66 892.28,-139.37"/>
<polygon fill="midnightblue" stroke="midnightblue" points="893,-135.94 882.46,-137.01 891.37,-142.75 893,-135.94"/>
</g>
<!-- Node23 -->
<g id="node23" class="node">
<title>Node23</title>
<g id="a_node23"><a xlink:href="api-constants_8h.html" target="_top" xlink:title=" ">
<polygon fill="white" stroke="black" points="917.29,-112.5 917.29,-142.5 1010.29,-142.5 1010.29,-112.5 917.29,-112.5"/>
<text text-anchor="start" x="925.29" y="-130.5" font-family="Helvetica,sans-Serif" font-size="10.00">cppgc/internal/api</text>
<text text-anchor="middle" x="963.79" y="-119.5" font-family="Helvetica,sans-Serif" font-size="10.00">&#45;constants.h</text>
</a>
</g>
</g>
<!-- Node21&#45;&gt;Node23 -->
<g id="edge35" class="edge">
<title>Node21&#45;&gt;Node23</title>
<path fill="none" stroke="midnightblue" d="M1144.17,-179.48C1107.8,-169.2 1058.37,-155.23 1020.46,-144.51"/>
<polygon fill="midnightblue" stroke="midnightblue" points="1021.16,-141.07 1010.58,-141.72 1019.25,-147.81 1021.16,-141.07"/>
</g>
<!-- Node24 -->
<g id="node24" class="node">
<title>Node24</title>
<g id="a_node24"><a xlink:href="atomic-entry-flag_8h.html" target="_top" xlink:title=" ">
<polygon fill="white" stroke="black" points="1142.79,-112.5 1142.79,-142.5 1252.79,-142.5 1252.79,-112.5 1142.79,-112.5"/>
<text text-anchor="start" x="1150.79" y="-130.5" font-family="Helvetica,sans-Serif" font-size="10.00">cppgc/internal/atomic</text>
<text text-anchor="middle" x="1197.79" y="-119.5" font-family="Helvetica,sans-Serif" font-size="10.00">&#45;entry&#45;flag.h</text>
</a>
</g>
</g>
<!-- Node21&#45;&gt;Node24 -->
<g id="edge39" class="edge">
<title>Node21&#45;&gt;Node24</title>
<path fill="none" stroke="midnightblue" d="M1194.66,-179.4C1195.14,-171.56 1195.76,-161.6 1196.31,-152.57"/>
<polygon fill="midnightblue" stroke="midnightblue" points="1199.81,-152.77 1196.93,-142.58 1192.82,-152.34 1199.81,-152.77"/>
</g>
<!-- Node21&#45;&gt;Node25 -->
<g id="edge41" class="edge">
<title>Node21&#45;&gt;Node25</title>
<path fill="none" stroke="midnightblue" d="M1231.77,-179.4C1263.02,-167.79 1306.83,-151.51 1336.43,-140.52"/>
<polygon fill="midnightblue" stroke="midnightblue" points="1337.74,-143.77 1345.89,-137.01 1335.3,-137.21 1337.74,-143.77"/>
</g>
<!-- Node21&#45;&gt;Node26 -->
<g id="edge43" class="edge">
<title>Node21&#45;&gt;Node26</title>
<path fill="none" stroke="midnightblue" d="M1244.64,-184.73C1314.51,-172.69 1439.87,-151.07 1513.15,-138.44"/>
<polygon fill="midnightblue" stroke="midnightblue" points="1513.87,-141.87 1523.13,-136.72 1512.68,-134.97 1513.87,-141.87"/>
</g>
<!-- Node22&#45;&gt;Node8 -->
<g id="edge34" class="edge">
<title>Node22&#45;&gt;Node8</title>
<path fill="none" stroke="midnightblue" d="M812.58,-118C803.8,-116.01 794.47,-113.92 785.79,-112 727.03,-99.02 658.87,-84.43 616.79,-75.48"/>
<polygon fill="midnightblue" stroke="midnightblue" points="617.44,-72.04 606.93,-73.38 615.98,-78.88 617.44,-72.04"/>
</g>
<!-- Node23&#45;&gt;Node3 -->
<g id="edge36" class="edge">
<title>Node23&#45;&gt;Node3</title>
<path fill="none" stroke="midnightblue" d="M942.34,-112.34C908.8,-90.2 844.32,-47.64 810.58,-25.38"/>
<polygon fill="midnightblue" stroke="midnightblue" points="812.2,-22.26 801.93,-19.67 808.35,-28.1 812.2,-22.26"/>
</g>
<!-- Node23&#45;&gt;Node4 -->
<g id="edge37" class="edge">
<title>Node23&#45;&gt;Node4</title>
<path fill="none" stroke="midnightblue" d="M999.58,-112.4C1025.03,-102.37 1058.89,-89.03 1083.31,-79.4"/>
<polygon fill="midnightblue" stroke="midnightblue" points="1084.8,-82.58 1092.82,-75.66 1082.24,-76.07 1084.8,-82.58"/>
</g>
<!-- Node23&#45;&gt;Node8 -->
<g id="edge38" class="edge">
<title>Node23&#45;&gt;Node8</title>
<path fill="none" stroke="midnightblue" d="M917.08,-113.77C914.28,-113.13 911.51,-112.54 908.79,-112 804.71,-91.31 680.36,-77.25 617.49,-70.89"/>
<polygon fill="midnightblue" stroke="midnightblue" points="617.51,-67.37 607.21,-69.86 616.82,-74.34 617.51,-67.37"/>
</g>
<!-- Node24&#45;&gt;Node18 -->
<g id="edge40" class="edge">
<title>Node24&#45;&gt;Node18</title>
<path fill="none" stroke="midnightblue" d="M1226.94,-112.4C1247.21,-102.59 1274.03,-89.62 1293.81,-80.05"/>
<polygon fill="midnightblue" stroke="midnightblue" points="1295.42,-83.16 1302.9,-75.66 1292.37,-76.86 1295.42,-83.16"/>
</g>
<!-- Node25&#45;&gt;Node4 -->
<g id="edge42" class="edge">
<title>Node25&#45;&gt;Node4</title>
<path fill="none" stroke="midnightblue" d="M1332.4,-117.98C1282.94,-106.39 1195.23,-85.84 1147.67,-74.7"/>
<polygon fill="midnightblue" stroke="midnightblue" points="1148.41,-71.28 1137.88,-72.41 1146.82,-78.1 1148.41,-71.28"/>
</g>
<!-- Node26&#45;&gt;Node8 -->
<g id="edge48" class="edge">
<title>Node26&#45;&gt;Node8</title>
<path fill="none" stroke="midnightblue" d="M1523.15,-120.65C1497.83,-117.7 1466.16,-114.29 1437.79,-112 1122.11,-86.56 740.1,-72.43 617.05,-68.3"/>
<polygon fill="midnightblue" stroke="midnightblue" points="617.07,-64.8 606.96,-67.96 616.83,-71.79 617.07,-64.8"/>
</g>
<!-- Node26&#45;&gt;Node19 -->
<g id="edge44" class="edge">
<title>Node26&#45;&gt;Node19</title>
<path fill="none" stroke="midnightblue" d="M1575.08,-117.82C1584.36,-99.01 1606.5,-54.15 1618.93,-28.96"/>
<polygon fill="midnightblue" stroke="midnightblue" points="1622.17,-30.3 1623.46,-19.78 1615.9,-27.2 1622.17,-30.3"/>
</g>
<!-- Node26&#45;&gt;Node27 -->
<g id="edge45" class="edge">
<title>Node26&#45;&gt;Node27</title>
<path fill="none" stroke="midnightblue" d="M1565.35,-117.98C1559.71,-109.14 1550.73,-95.09 1543.64,-83.98"/>
<polygon fill="midnightblue" stroke="midnightblue" points="1546.56,-82.05 1538.23,-75.51 1540.66,-85.82 1546.56,-82.05"/>
</g>
<!-- Node27&#45;&gt;Node3 -->
<g id="edge46" class="edge">
<title>Node27&#45;&gt;Node3</title>
<path fill="none" stroke="midnightblue" d="M1484.55,-61.5C1345.14,-51.38 944.03,-22.27 823.47,-13.52"/>
<polygon fill="midnightblue" stroke="midnightblue" points="823.57,-10.01 813.34,-12.78 823.06,-17 823.57,-10.01"/>
</g>
<!-- Node27&#45;&gt;Node19 -->
<g id="edge47" class="edge">
<title>Node27&#45;&gt;Node19</title>
<path fill="none" stroke="midnightblue" d="M1548.06,-56.32C1563.02,-47.82 1586.05,-34.73 1603.52,-24.8"/>
<polygon fill="midnightblue" stroke="midnightblue" points="1605.6,-27.64 1612.57,-19.65 1602.15,-21.55 1605.6,-27.64"/>
</g>
<!-- Node28&#45;&gt;Node3 -->
<g id="edge52" class="edge">
<title>Node28&#45;&gt;Node3</title>
<path fill="none" stroke="midnightblue" d="M691.69,-117.82C709.17,-98.59 751.39,-52.14 773.97,-27.31"/>
<polygon fill="midnightblue" stroke="midnightblue" points="776.67,-29.54 780.81,-19.78 771.49,-24.83 776.67,-29.54"/>
</g>
<!-- Node28&#45;&gt;Node8 -->
<g id="edge54" class="edge">
<title>Node28&#45;&gt;Node8</title>
<path fill="none" stroke="midnightblue" d="M668.46,-117.98C650.82,-108.17 621.63,-91.93 600.94,-80.42"/>
<polygon fill="midnightblue" stroke="midnightblue" points="602.54,-77.31 592.1,-75.51 599.14,-83.43 602.54,-77.31"/>
</g>
<!-- Node28&#45;&gt;Node15 -->
<g id="edge53" class="edge">
<title>Node28&#45;&gt;Node15</title>
<path fill="none" stroke="midnightblue" d="M644.25,-117.98C588.73,-106.01 488.83,-84.47 438.52,-73.62"/>
<polygon fill="midnightblue" stroke="midnightblue" points="439.09,-70.17 428.57,-71.48 437.61,-77.01 439.09,-70.17"/>
</g>
</g>
</svg>
