<?xml version="1.0" encoding="UTF-8" standalone="no"?>
<!DOCTYPE svg PUBLIC "-//W3C//DTD SVG 1.1//EN"
 "http://www.w3.org/Graphics/SVG/1.1/DTD/svg11.dtd">
<!-- Generated by graphviz version 2.49.3 (20211027.1534)
 -->
<!-- Title: v8::NamedPropertyHandlerConfiguration Pages: 1 -->
<svg width="257pt" height="239pt"
 viewBox="0.00 0.00 257.00 239.00" xmlns="http://www.w3.org/2000/svg" xmlns:xlink="http://www.w3.org/1999/xlink">
<g id="graph0" class="graph" transform="scale(1 1) rotate(0) translate(4 235)">
<title>v8::NamedPropertyHandlerConfiguration</title>
<polygon fill="white" stroke="transparent" points="-4,4 -4,-235 253,-235 253,4 -4,4"/>
<!-- Node1 -->
<g id="node1" class="node">
<title>Node1</title>
<g id="a_node1"><a xlink:title=" ">
<polygon fill="#bfbfbf" stroke="black" points="46.5,-0.5 46.5,-30.5 179.5,-30.5 179.5,-0.5 46.5,-0.5"/>
<text text-anchor="start" x="54.5" y="-18.5" font-family="Helvetica,sans-Serif" font-size="10.00">v8::NamedPropertyHandler</text>
<text text-anchor="middle" x="113" y="-7.5" font-family="Helvetica,sans-Serif" font-size="10.00">Configuration</text>
</a>
</g>
</g>
<!-- Node2 -->
<g id="node2" class="node">
<title>Node2</title>
<g id="a_node2"><a xlink:href="classv8_1_1Local.html" target="_top" xlink:title=" ">
<polygon fill="white" stroke="black" points="0,-139 0,-158 98,-158 98,-139 0,-139"/>
<text text-anchor="middle" x="49" y="-146" font-family="Helvetica,sans-Serif" font-size="10.00">v8::Local&lt; Name &gt;</text>
</a>
</g>
</g>
<!-- Node2&#45;&gt;Node1 -->
<g id="edge1" class="edge">
<title>Node2&#45;&gt;Node1</title>
<path fill="none" stroke="#9a32cd" stroke-dasharray="5,2" d="M57.26,-129.68C66.5,-109.88 82,-77 96,-49 99.02,-42.96 102.45,-36.35 105.44,-30.68"/>
<polygon fill="#9a32cd" stroke="#9a32cd" points="54.09,-128.21 53.04,-138.75 60.43,-131.16 54.09,-128.21"/>
<text text-anchor="middle" x="117.5" y="-107" font-family="Helvetica,sans-Serif" font-size="10.00"> definer</text>
<text text-anchor="middle" x="117.5" y="-96" font-family="Helvetica,sans-Serif" font-size="10.00">deleter</text>
<text text-anchor="middle" x="117.5" y="-85" font-family="Helvetica,sans-Serif" font-size="10.00">descriptor</text>
<text text-anchor="middle" x="117.5" y="-74" font-family="Helvetica,sans-Serif" font-size="10.00">getter</text>
<text text-anchor="middle" x="117.5" y="-63" font-family="Helvetica,sans-Serif" font-size="10.00">query</text>
<text text-anchor="middle" x="117.5" y="-52" font-family="Helvetica,sans-Serif" font-size="10.00">setter</text>
</g>
<!-- Node3 -->
<g id="node3" class="node">
<title>Node3</title>
<g id="a_node3"><a xlink:href="classv8_1_1Local.html" target="_top" xlink:title=" ">
<polygon fill="white" stroke="black" points="9,-211.5 9,-230.5 87,-230.5 87,-211.5 9,-211.5"/>
<text text-anchor="middle" x="48" y="-218.5" font-family="Helvetica,sans-Serif" font-size="10.00">v8::Local&lt; T &gt;</text>
</a>
</g>
</g>
<!-- Node3&#45;&gt;Node2 -->
<g id="edge2" class="edge">
<title>Node3&#45;&gt;Node2</title>
<path fill="none" stroke="orange" stroke-dasharray="5,2" d="M48.27,-200.94C48.47,-187.03 48.73,-168.82 48.88,-158.22"/>
<polygon fill="orange" stroke="orange" points="44.76,-201.31 48.12,-211.36 51.76,-201.41 44.76,-201.31"/>
<text text-anchor="middle" x="72" y="-185" font-family="Helvetica,sans-Serif" font-size="10.00"> &lt; Name &gt;</text>
</g>
<!-- Node4 -->
<g id="node4" class="node">
<title>Node4</title>
<g id="a_node4"><a xlink:href="classv8_1_1PropertyCallbackInfo.html" target="_top" xlink:title=" ">
<polygon fill="white" stroke="black" points="116,-133.5 116,-163.5 238,-163.5 238,-133.5 116,-133.5"/>
<text text-anchor="start" x="124" y="-151.5" font-family="Helvetica,sans-Serif" font-size="10.00">v8::PropertyCallbackInfo</text>
<text text-anchor="middle" x="177" y="-140.5" font-family="Helvetica,sans-Serif" font-size="10.00">&lt; Array &gt;</text>
</a>
</g>
</g>
<!-- Node4&#45;&gt;Node1 -->
<g id="edge3" class="edge">
<title>Node4&#45;&gt;Node1</title>
<path fill="none" stroke="#9a32cd" stroke-dasharray="5,2" d="M169.99,-123.38C163.49,-102.85 152.76,-72.95 139,-49 135.33,-42.61 130.46,-36.15 125.92,-30.7"/>
<polygon fill="#9a32cd" stroke="#9a32cd" points="166.72,-124.65 172.99,-133.19 173.41,-122.6 166.72,-124.65"/>
<text text-anchor="middle" x="192" y="-79.5" font-family="Helvetica,sans-Serif" font-size="10.00"> enumerator</text>
</g>
<!-- Node5 -->
<g id="node5" class="node">
<title>Node5</title>
<g id="a_node5"><a xlink:href="classv8_1_1PropertyCallbackInfo.html" target="_top" xlink:title=" ">
<polygon fill="white" stroke="black" points="105,-211.5 105,-230.5 249,-230.5 249,-211.5 105,-211.5"/>
<text text-anchor="middle" x="177" y="-218.5" font-family="Helvetica,sans-Serif" font-size="10.00">v8::PropertyCallbackInfo&lt; T &gt;</text>
</a>
</g>
</g>
<!-- Node5&#45;&gt;Node4 -->
<g id="edge4" class="edge">
<title>Node5&#45;&gt;Node4</title>
<path fill="none" stroke="orange" stroke-dasharray="5,2" d="M177,-201.24C177,-189.41 177,-174.38 177,-163.58"/>
<polygon fill="orange" stroke="orange" points="173.5,-201.36 177,-211.36 180.5,-201.36 173.5,-201.36"/>
<text text-anchor="middle" x="198" y="-185" font-family="Helvetica,sans-Serif" font-size="10.00"> &lt; Array &gt;</text>
</g>
</g>
</svg>
