<?xml version="1.0" encoding="UTF-8" standalone="no"?>
<!DOCTYPE svg PUBLIC "-//W3C//DTD SVG 1.1//EN"
 "http://www.w3.org/Graphics/SVG/1.1/DTD/svg11.dtd">
<!-- Generated by graphviz version 2.49.3 (20211027.1534)
 -->
<!-- Title: include/v8&#45;metrics.h Pages: 1 -->
<svg width="820pt" height="196pt"
 viewBox="0.00 0.00 819.50 196.00" xmlns="http://www.w3.org/2000/svg" xmlns:xlink="http://www.w3.org/1999/xlink">
<g id="graph0" class="graph" transform="scale(1 1) rotate(0) translate(4 192)">
<title>include/v8&#45;metrics.h</title>
<polygon fill="white" stroke="transparent" points="-4,4 -4,-192 815.5,-192 815.5,4 -4,4"/>
<!-- Node1 -->
<g id="node1" class="node">
<title>Node1</title>
<g id="a_node1"><a xlink:title=" ">
<polygon fill="#bfbfbf" stroke="black" points="232.5,-168.5 232.5,-187.5 336.5,-187.5 336.5,-168.5 232.5,-168.5"/>
<text text-anchor="middle" x="284.5" y="-175.5" font-family="Helvetica,sans-Serif" font-size="10.00">include/v8&#45;metrics.h</text>
</a>
</g>
</g>
<!-- Node2 -->
<g id="node2" class="node">
<title>Node2</title>
<g id="a_node2"><a xlink:href="v8-internal_8h.html" target="_top" xlink:title=" ">
<polygon fill="white" stroke="black" points="143,-56.5 143,-75.5 212,-75.5 212,-56.5 143,-56.5"/>
<text text-anchor="middle" x="177.5" y="-63.5" font-family="Helvetica,sans-Serif" font-size="10.00">v8&#45;internal.h</text>
</a>
</g>
</g>
<!-- Node1&#45;&gt;Node2 -->
<g id="edge1" class="edge">
<title>Node1&#45;&gt;Node2</title>
<path fill="none" stroke="midnightblue" d="M276.1,-168.37C258.21,-149.97 216.09,-106.67 193.11,-83.05"/>
<polygon fill="midnightblue" stroke="midnightblue" points="195.34,-80.32 185.86,-75.59 190.32,-85.2 195.34,-80.32"/>
</g>
<!-- Node9 -->
<g id="node9" class="node">
<title>Node9</title>
<g id="a_node9"><a xlink:href="v8_8h.html" target="_top" xlink:title=" ">
<polygon fill="white" stroke="black" points="336,-112.5 336,-131.5 371,-131.5 371,-112.5 336,-112.5"/>
<text text-anchor="middle" x="353.5" y="-119.5" font-family="Helvetica,sans-Serif" font-size="10.00">v8.h</text>
</a>
</g>
</g>
<!-- Node1&#45;&gt;Node9 -->
<g id="edge8" class="edge">
<title>Node1&#45;&gt;Node9</title>
<path fill="none" stroke="midnightblue" d="M295.59,-168.32C305.99,-160.18 321.76,-147.84 334.22,-138.09"/>
<polygon fill="midnightblue" stroke="midnightblue" points="336.49,-140.75 342.21,-131.83 332.18,-135.24 336.49,-140.75"/>
</g>
<!-- Node3 -->
<g id="node3" class="node">
<title>Node3</title>
<g id="a_node3"><a xlink:title=" ">
<polygon fill="white" stroke="#bfbfbf" points="0,-0.5 0,-19.5 51,-19.5 51,-0.5 0,-0.5"/>
<text text-anchor="middle" x="25.5" y="-7.5" font-family="Helvetica,sans-Serif" font-size="10.00">stddef.h</text>
</a>
</g>
</g>
<!-- Node2&#45;&gt;Node3 -->
<g id="edge2" class="edge">
<title>Node2&#45;&gt;Node3</title>
<path fill="none" stroke="midnightblue" d="M153.42,-56.44C127.96,-47.4 87.61,-33.06 59.04,-22.92"/>
<polygon fill="midnightblue" stroke="midnightblue" points="60.07,-19.57 49.47,-19.52 57.72,-26.16 60.07,-19.57"/>
</g>
<!-- Node4 -->
<g id="node4" class="node">
<title>Node4</title>
<g id="a_node4"><a xlink:title=" ">
<polygon fill="white" stroke="#bfbfbf" points="69.5,-0.5 69.5,-19.5 117.5,-19.5 117.5,-0.5 69.5,-0.5"/>
<text text-anchor="middle" x="93.5" y="-7.5" font-family="Helvetica,sans-Serif" font-size="10.00">stdint.h</text>
</a>
</g>
</g>
<!-- Node2&#45;&gt;Node4 -->
<g id="edge3" class="edge">
<title>Node2&#45;&gt;Node4</title>
<path fill="none" stroke="midnightblue" d="M164,-56.32C150.9,-47.9 130.79,-34.97 115.39,-25.07"/>
<polygon fill="midnightblue" stroke="midnightblue" points="117.27,-22.12 106.96,-19.65 113.48,-28.01 117.27,-22.12"/>
</g>
<!-- Node5 -->
<g id="node5" class="node">
<title>Node5</title>
<g id="a_node5"><a xlink:title=" ">
<polygon fill="white" stroke="#bfbfbf" points="135.5,-0.5 135.5,-19.5 183.5,-19.5 183.5,-0.5 135.5,-0.5"/>
<text text-anchor="middle" x="159.5" y="-7.5" font-family="Helvetica,sans-Serif" font-size="10.00">string.h</text>
</a>
</g>
</g>
<!-- Node2&#45;&gt;Node5 -->
<g id="edge4" class="edge">
<title>Node2&#45;&gt;Node5</title>
<path fill="none" stroke="midnightblue" d="M174.53,-56.08C172.12,-48.85 168.64,-38.41 165.63,-29.4"/>
<polygon fill="midnightblue" stroke="midnightblue" points="168.9,-28.13 162.42,-19.75 162.26,-30.34 168.9,-28.13"/>
</g>
<!-- Node6 -->
<g id="node6" class="node">
<title>Node6</title>
<g id="a_node6"><a xlink:title=" ">
<polygon fill="white" stroke="#bfbfbf" points="201.5,-0.5 201.5,-19.5 263.5,-19.5 263.5,-0.5 201.5,-0.5"/>
<text text-anchor="middle" x="232.5" y="-7.5" font-family="Helvetica,sans-Serif" font-size="10.00">type_traits</text>
</a>
</g>
</g>
<!-- Node2&#45;&gt;Node6 -->
<g id="edge5" class="edge">
<title>Node2&#45;&gt;Node6</title>
<path fill="none" stroke="midnightblue" d="M186.58,-56.08C194.67,-48.14 206.7,-36.34 216.41,-26.8"/>
<polygon fill="midnightblue" stroke="midnightblue" points="218.9,-29.25 223.59,-19.75 214,-24.26 218.9,-29.25"/>
</g>
<!-- Node7 -->
<g id="node7" class="node">
<title>Node7</title>
<g id="a_node7"><a xlink:href="v8-version_8h.html" target="_top" xlink:title=" ">
<polygon fill="white" stroke="black" points="282,-0.5 282,-19.5 351,-19.5 351,-0.5 282,-0.5"/>
<text text-anchor="middle" x="316.5" y="-7.5" font-family="Helvetica,sans-Serif" font-size="10.00">v8&#45;version.h</text>
</a>
</g>
</g>
<!-- Node2&#45;&gt;Node7 -->
<g id="edge6" class="edge">
<title>Node2&#45;&gt;Node7</title>
<path fill="none" stroke="midnightblue" d="M199.52,-56.44C222.6,-47.48 259.06,-33.31 285.14,-23.18"/>
<polygon fill="midnightblue" stroke="midnightblue" points="286.52,-26.4 294.58,-19.52 283.99,-19.88 286.52,-26.4"/>
</g>
<!-- Node8 -->
<g id="node8" class="node">
<title>Node8</title>
<g id="a_node8"><a xlink:href="v8config_8h.html" target="_top" xlink:title=" ">
<polygon fill="white" stroke="black" points="369.5,-0.5 369.5,-19.5 429.5,-19.5 429.5,-0.5 369.5,-0.5"/>
<text text-anchor="middle" x="399.5" y="-7.5" font-family="Helvetica,sans-Serif" font-size="10.00">v8config.h</text>
</a>
</g>
</g>
<!-- Node2&#45;&gt;Node8 -->
<g id="edge7" class="edge">
<title>Node2&#45;&gt;Node8</title>
<path fill="none" stroke="midnightblue" d="M212.19,-56.56C252.07,-46.86 317.42,-30.96 359.44,-20.74"/>
<polygon fill="midnightblue" stroke="midnightblue" points="360.44,-24.1 369.33,-18.34 358.79,-17.3 360.44,-24.1"/>
</g>
<!-- Node9&#45;&gt;Node2 -->
<g id="edge20" class="edge">
<title>Node9&#45;&gt;Node2</title>
<path fill="none" stroke="midnightblue" d="M335.98,-115.62C308.01,-107.04 252.61,-90.04 215.3,-78.6"/>
<polygon fill="midnightblue" stroke="midnightblue" points="215.88,-75.11 205.29,-75.53 213.82,-81.81 215.88,-75.11"/>
</g>
<!-- Node9&#45;&gt;Node3 -->
<g id="edge9" class="edge">
<title>Node9&#45;&gt;Node3</title>
<path fill="none" stroke="midnightblue" d="M335.98,-120.48C294.97,-118.68 190.28,-110.76 111.5,-76 84.38,-64.03 57.9,-41.99 41.65,-26.92"/>
<polygon fill="midnightblue" stroke="midnightblue" points="43.79,-24.13 34.13,-19.77 38.96,-29.2 43.79,-24.13"/>
</g>
<!-- Node9&#45;&gt;Node4 -->
<g id="edge10" class="edge">
<title>Node9&#45;&gt;Node4</title>
<path fill="none" stroke="midnightblue" d="M335.7,-119.19C289.4,-114.2 166.48,-99.07 133.5,-76 117.25,-64.63 106.33,-44.34 100.06,-29.44"/>
<polygon fill="midnightblue" stroke="midnightblue" points="103.18,-27.81 96.31,-19.75 96.65,-30.34 103.18,-27.81"/>
</g>
<!-- Node9&#45;&gt;Node6 -->
<g id="edge15" class="edge">
<title>Node9&#45;&gt;Node6</title>
<path fill="none" stroke="midnightblue" d="M341.1,-112.17C329.08,-103.43 310.5,-89.44 295.5,-76 278.05,-60.37 259.56,-40.9 247.16,-27.37"/>
<polygon fill="midnightblue" stroke="midnightblue" points="249.6,-24.85 240.29,-19.79 244.42,-29.55 249.6,-24.85"/>
</g>
<!-- Node9&#45;&gt;Node7 -->
<g id="edge21" class="edge">
<title>Node9&#45;&gt;Node7</title>
<path fill="none" stroke="midnightblue" d="M337.77,-112.24C325.61,-104.48 309.69,-91.93 302.5,-76 295.69,-60.91 300.91,-42.32 306.81,-28.9"/>
<polygon fill="midnightblue" stroke="midnightblue" points="310.02,-30.3 311.27,-19.78 303.73,-27.22 310.02,-30.3"/>
</g>
<!-- Node9&#45;&gt;Node8 -->
<g id="edge22" class="edge">
<title>Node9&#45;&gt;Node8</title>
<path fill="none" stroke="midnightblue" d="M347.35,-112.15C339.2,-99.22 326.89,-74.67 336.5,-56 343.58,-42.25 357.02,-31.77 369.68,-24.39"/>
<polygon fill="midnightblue" stroke="midnightblue" points="371.5,-27.39 378.65,-19.57 368.19,-21.22 371.5,-27.39"/>
</g>
<!-- Node10 -->
<g id="node10" class="node">
<title>Node10</title>
<g id="a_node10"><a xlink:title=" ">
<polygon fill="white" stroke="#bfbfbf" points="454,-56.5 454,-75.5 499,-75.5 499,-56.5 454,-56.5"/>
<text text-anchor="middle" x="476.5" y="-63.5" font-family="Helvetica,sans-Serif" font-size="10.00">stdio.h</text>
</a>
</g>
</g>
<!-- Node9&#45;&gt;Node10 -->
<g id="edge11" class="edge">
<title>Node9&#45;&gt;Node10</title>
<path fill="none" stroke="midnightblue" d="M371.12,-113.26C391.09,-104.5 423.93,-90.08 447.65,-79.67"/>
<polygon fill="midnightblue" stroke="midnightblue" points="449.13,-82.84 456.88,-75.62 446.31,-76.43 449.13,-82.84"/>
</g>
<!-- Node11 -->
<g id="node11" class="node">
<title>Node11</title>
<g id="a_node11"><a xlink:title=" ">
<polygon fill="white" stroke="#bfbfbf" points="517.5,-56.5 517.5,-75.5 563.5,-75.5 563.5,-56.5 517.5,-56.5"/>
<text text-anchor="middle" x="540.5" y="-63.5" font-family="Helvetica,sans-Serif" font-size="10.00">atomic</text>
</a>
</g>
</g>
<!-- Node9&#45;&gt;Node11 -->
<g id="edge12" class="edge">
<title>Node9&#45;&gt;Node11</title>
<path fill="none" stroke="midnightblue" d="M371.09,-115.92C402.29,-106.91 467.76,-88.01 507.55,-76.51"/>
<polygon fill="midnightblue" stroke="midnightblue" points="508.68,-79.83 517.32,-73.69 506.74,-73.11 508.68,-79.83"/>
</g>
<!-- Node12 -->
<g id="node12" class="node">
<title>Node12</title>
<g id="a_node12"><a xlink:title=" ">
<polygon fill="white" stroke="#bfbfbf" points="582,-56.5 582,-75.5 633,-75.5 633,-56.5 582,-56.5"/>
<text text-anchor="middle" x="607.5" y="-63.5" font-family="Helvetica,sans-Serif" font-size="10.00">memory</text>
</a>
</g>
</g>
<!-- Node9&#45;&gt;Node12 -->
<g id="edge13" class="edge">
<title>Node9&#45;&gt;Node12</title>
<path fill="none" stroke="midnightblue" d="M371.16,-117.68C407.02,-110.86 491.08,-94.56 572.06,-76.01"/>
<polygon fill="midnightblue" stroke="midnightblue" points="572.96,-79.39 581.92,-73.73 571.39,-72.57 572.96,-79.39"/>
</g>
<!-- Node13 -->
<g id="node13" class="node">
<title>Node13</title>
<g id="a_node13"><a xlink:title=" ">
<polygon fill="white" stroke="#bfbfbf" points="651,-56.5 651,-75.5 692,-75.5 692,-56.5 651,-56.5"/>
<text text-anchor="middle" x="671.5" y="-63.5" font-family="Helvetica,sans-Serif" font-size="10.00">string</text>
</a>
</g>
</g>
<!-- Node9&#45;&gt;Node13 -->
<g id="edge14" class="edge">
<title>Node9&#45;&gt;Node13</title>
<path fill="none" stroke="midnightblue" d="M371.27,-119.15C415.4,-114.37 533.64,-100.38 640.7,-76.16"/>
<polygon fill="midnightblue" stroke="midnightblue" points="641.73,-79.51 650.69,-73.86 640.16,-72.69 641.73,-79.51"/>
</g>
<!-- Node14 -->
<g id="node14" class="node">
<title>Node14</title>
<g id="a_node14"><a xlink:title=" ">
<polygon fill="white" stroke="#bfbfbf" points="710,-56.5 710,-75.5 749,-75.5 749,-56.5 710,-56.5"/>
<text text-anchor="middle" x="729.5" y="-63.5" font-family="Helvetica,sans-Serif" font-size="10.00">utility</text>
</a>
</g>
</g>
<!-- Node9&#45;&gt;Node14 -->
<g id="edge16" class="edge">
<title>Node9&#45;&gt;Node14</title>
<path fill="none" stroke="midnightblue" d="M371.08,-119.87C421.2,-116.39 569.18,-104.49 699.95,-76.01"/>
<polygon fill="midnightblue" stroke="midnightblue" points="700.73,-79.43 709.74,-73.84 699.22,-72.59 700.73,-79.43"/>
</g>
<!-- Node15 -->
<g id="node15" class="node">
<title>Node15</title>
<g id="a_node15"><a xlink:title=" ">
<polygon fill="white" stroke="#bfbfbf" points="767.5,-56.5 767.5,-75.5 811.5,-75.5 811.5,-56.5 767.5,-56.5"/>
<text text-anchor="middle" x="789.5" y="-63.5" font-family="Helvetica,sans-Serif" font-size="10.00">vector</text>
</a>
</g>
</g>
<!-- Node9&#45;&gt;Node15 -->
<g id="edge17" class="edge">
<title>Node9&#45;&gt;Node15</title>
<path fill="none" stroke="midnightblue" d="M371.03,-120.13C426.41,-117.16 602.57,-106 757.12,-75.96"/>
<polygon fill="midnightblue" stroke="midnightblue" points="758.13,-79.33 767.26,-73.95 756.77,-72.46 758.13,-79.33"/>
</g>
<!-- Node16 -->
<g id="node16" class="node">
<title>Node16</title>
<g id="a_node16"><a xlink:href="common_8h.html" target="_top" xlink:title=" ">
<polygon fill="white" stroke="black" points="345,-56.5 345,-75.5 436,-75.5 436,-56.5 345,-56.5"/>
<text text-anchor="middle" x="390.5" y="-63.5" font-family="Helvetica,sans-Serif" font-size="10.00">cppgc/common.h</text>
</a>
</g>
</g>
<!-- Node9&#45;&gt;Node16 -->
<g id="edge18" class="edge">
<title>Node9&#45;&gt;Node16</title>
<path fill="none" stroke="midnightblue" d="M359.61,-112.08C364.78,-104.53 372.35,-93.49 378.69,-84.23"/>
<polygon fill="midnightblue" stroke="midnightblue" points="381.74,-85.98 384.5,-75.75 375.96,-82.02 381.74,-85.98"/>
</g>
<!-- Node16&#45;&gt;Node8 -->
<g id="edge19" class="edge">
<title>Node16&#45;&gt;Node8</title>
<path fill="none" stroke="midnightblue" d="M391.99,-56.08C393.18,-48.93 394.89,-38.64 396.38,-29.69"/>
<polygon fill="midnightblue" stroke="midnightblue" points="399.85,-30.19 398.04,-19.75 392.95,-29.04 399.85,-30.19"/>
</g>
</g>
</svg>
