<?xml version="1.0" encoding="UTF-8" standalone="no"?>
<!DOCTYPE svg PUBLIC "-//W3C//DTD SVG 1.1//EN"
 "http://www.w3.org/Graphics/SVG/1.1/DTD/svg11.dtd">
<!-- Generated by graphviz version 2.49.3 (20211027.1534)
 -->
<!-- Title: include/v8&#45;version.h Pages: 1 -->
<svg width="692pt" height="285pt"
 viewBox="0.00 0.00 691.50 285.00" xmlns="http://www.w3.org/2000/svg" xmlns:xlink="http://www.w3.org/1999/xlink">
<g id="graph0" class="graph" transform="scale(1 1) rotate(0) translate(4 281)">
<title>include/v8&#45;version.h</title>
<polygon fill="white" stroke="transparent" points="-4,4 -4,-281 687.5,-281 687.5,4 -4,4"/>
<!-- Node1 -->
<g id="node1" class="node">
<title>Node1</title>
<g id="a_node1"><a xlink:title=" ">
<polygon fill="#bfbfbf" stroke="black" points="215.5,-257.5 215.5,-276.5 318.5,-276.5 318.5,-257.5 215.5,-257.5"/>
<text text-anchor="middle" x="267" y="-264.5" font-family="Helvetica,sans-Serif" font-size="10.00">include/v8&#45;version.h</text>
</a>
</g>
</g>
<!-- Node2 -->
<g id="node2" class="node">
<title>Node2</title>
<g id="a_node2"><a xlink:href="v8-internal_8h.html" target="_top" xlink:title=" ">
<polygon fill="white" stroke="black" points="130.5,-196 130.5,-215 233.5,-215 233.5,-196 130.5,-196"/>
<text text-anchor="middle" x="182" y="-203" font-family="Helvetica,sans-Serif" font-size="10.00">include/v8&#45;internal.h</text>
</a>
</g>
</g>
<!-- Node1&#45;&gt;Node2 -->
<g id="edge1" class="edge">
<title>Node1&#45;&gt;Node2</title>
<path fill="none" stroke="midnightblue" d="M246.45,-251.61C230.1,-240.17 207.78,-224.55 194.16,-215.01"/>
<polygon fill="midnightblue" stroke="midnightblue" points="244.62,-254.61 254.82,-257.48 248.64,-248.87 244.62,-254.61"/>
</g>
<!-- Node5 -->
<g id="node5" class="node">
<title>Node5</title>
<g id="a_node5"><a xlink:href="v8_8h.html" target="_top" xlink:title=" ">
<polygon fill="white" stroke="black" points="251,-134.5 251,-153.5 319,-153.5 319,-134.5 251,-134.5"/>
<text text-anchor="middle" x="285" y="-141.5" font-family="Helvetica,sans-Serif" font-size="10.00">include/v8.h</text>
</a>
</g>
</g>
<!-- Node1&#45;&gt;Node5 -->
<g id="edge13" class="edge">
<title>Node1&#45;&gt;Node5</title>
<path fill="none" stroke="midnightblue" d="M269.78,-247.35C273.73,-220.77 280.82,-173.08 283.72,-153.62"/>
<polygon fill="midnightblue" stroke="midnightblue" points="266.3,-246.89 268.29,-257.3 273.23,-247.92 266.3,-246.89"/>
</g>
<!-- Node11 -->
<g id="node11" class="node">
<title>Node11</title>
<g id="a_node11"><a xlink:href="v8-version-string_8h.html" target="_top" xlink:title=" ">
<polygon fill="white" stroke="black" points="295.5,-190.5 295.5,-220.5 390.5,-220.5 390.5,-190.5 295.5,-190.5"/>
<text text-anchor="start" x="303.5" y="-208.5" font-family="Helvetica,sans-Serif" font-size="10.00">include/v8&#45;version</text>
<text text-anchor="middle" x="343" y="-197.5" font-family="Helvetica,sans-Serif" font-size="10.00">&#45;string.h</text>
</a>
</g>
</g>
<!-- Node1&#45;&gt;Node11 -->
<g id="edge12" class="edge">
<title>Node1&#45;&gt;Node11</title>
<path fill="none" stroke="midnightblue" d="M285.91,-251.2C297.89,-241.81 313.3,-229.75 325.09,-220.52"/>
<polygon fill="midnightblue" stroke="midnightblue" points="283.61,-248.55 277.89,-257.48 287.92,-254.07 283.61,-248.55"/>
</g>
<!-- Node3 -->
<g id="node3" class="node">
<title>Node3</title>
<g id="a_node3"><a xlink:href="v8-cppgc_8h.html" target="_top" xlink:title=" ">
<polygon fill="white" stroke="black" points="122,-73 122,-92 220,-92 220,-73 122,-73"/>
<text text-anchor="middle" x="171" y="-80" font-family="Helvetica,sans-Serif" font-size="10.00">include/v8&#45;cppgc.h</text>
</a>
</g>
</g>
<!-- Node2&#45;&gt;Node3 -->
<g id="edge2" class="edge">
<title>Node2&#45;&gt;Node3</title>
<path fill="none" stroke="midnightblue" d="M180.27,-185.49C177.85,-158.85 173.55,-111.5 171.78,-92.12"/>
<polygon fill="midnightblue" stroke="midnightblue" points="176.82,-186.16 181.21,-195.8 183.79,-185.52 176.82,-186.16"/>
</g>
<!-- Node4 -->
<g id="node4" class="node">
<title>Node4</title>
<g id="a_node4"><a xlink:href="v8-metrics_8h.html" target="_top" xlink:title=" ">
<polygon fill="white" stroke="black" points="0,-73 0,-92 104,-92 104,-73 0,-73"/>
<text text-anchor="middle" x="52" y="-80" font-family="Helvetica,sans-Serif" font-size="10.00">include/v8&#45;metrics.h</text>
</a>
</g>
</g>
<!-- Node2&#45;&gt;Node4 -->
<g id="edge3" class="edge">
<title>Node2&#45;&gt;Node4</title>
<path fill="none" stroke="midnightblue" d="M165.29,-188.94C137.57,-163.15 83.01,-112.36 61.26,-92.12"/>
<polygon fill="midnightblue" stroke="midnightblue" points="162.95,-191.55 172.65,-195.8 167.72,-186.42 162.95,-191.55"/>
</g>
<!-- Node2&#45;&gt;Node5 -->
<g id="edge4" class="edge">
<title>Node2&#45;&gt;Node5</title>
<path fill="none" stroke="midnightblue" d="M205.54,-190.9C225.46,-179.4 253.38,-163.27 270.27,-153.51"/>
<polygon fill="midnightblue" stroke="midnightblue" points="203.67,-187.94 196.76,-195.98 207.17,-194 203.67,-187.94"/>
</g>
<!-- Node5&#45;&gt;Node3 -->
<g id="edge5" class="edge">
<title>Node5&#45;&gt;Node3</title>
<path fill="none" stroke="midnightblue" d="M259.54,-129.71C237.46,-118.19 206.17,-101.86 187.3,-92.01"/>
<polygon fill="midnightblue" stroke="midnightblue" points="258.18,-132.95 268.67,-134.48 261.42,-126.75 258.18,-132.95"/>
</g>
<!-- Node5&#45;&gt;Node4 -->
<g id="edge9" class="edge">
<title>Node5&#45;&gt;Node4</title>
<path fill="none" stroke="midnightblue" d="M241.8,-131.97C196.56,-120.41 126.47,-102.52 85.32,-92.01"/>
<polygon fill="midnightblue" stroke="midnightblue" points="241.06,-135.39 251.62,-134.48 242.79,-128.61 241.06,-135.39"/>
</g>
<!-- Node6 -->
<g id="node6" class="node">
<title>Node6</title>
<g id="a_node6"><a xlink:href="v8-fast-api-calls_8h.html" target="_top" xlink:title=" ">
<polygon fill="white" stroke="black" points="458,-67.5 458,-97.5 554,-97.5 554,-67.5 458,-67.5"/>
<text text-anchor="start" x="466" y="-85.5" font-family="Helvetica,sans-Serif" font-size="10.00">include/v8&#45;fast&#45;api</text>
<text text-anchor="middle" x="506" y="-74.5" font-family="Helvetica,sans-Serif" font-size="10.00">&#45;calls.h</text>
</a>
</g>
</g>
<!-- Node5&#45;&gt;Node6 -->
<g id="edge6" class="edge">
<title>Node5&#45;&gt;Node6</title>
<path fill="none" stroke="midnightblue" d="M326.69,-131.78C363.95,-121.74 418.55,-107.04 457.7,-96.5"/>
<polygon fill="midnightblue" stroke="midnightblue" points="325.41,-128.5 316.66,-134.48 327.23,-135.25 325.41,-128.5"/>
</g>
<!-- Node7 -->
<g id="node7" class="node">
<title>Node7</title>
<g id="a_node7"><a xlink:href="v8-inspector_8h.html" target="_top" xlink:title=" ">
<polygon fill="white" stroke="black" points="572.5,-73 572.5,-92 683.5,-92 683.5,-73 572.5,-73"/>
<text text-anchor="middle" x="628" y="-80" font-family="Helvetica,sans-Serif" font-size="10.00">include/v8&#45;inspector.h</text>
</a>
</g>
</g>
<!-- Node5&#45;&gt;Node7 -->
<g id="edge7" class="edge">
<title>Node5&#45;&gt;Node7</title>
<path fill="none" stroke="midnightblue" d="M329.46,-136.63C384.46,-128.56 480.91,-113.79 563,-98 572.31,-96.21 582.33,-94.08 591.64,-92.01"/>
<polygon fill="midnightblue" stroke="midnightblue" points="328.74,-133.2 319.35,-138.11 329.75,-140.12 328.74,-133.2"/>
</g>
<!-- Node9 -->
<g id="node9" class="node">
<title>Node9</title>
<g id="a_node9"><a xlink:href="v8-profiler_8h.html" target="_top" xlink:title=" ">
<polygon fill="white" stroke="black" points="238,-73 238,-92 338,-92 338,-73 238,-73"/>
<text text-anchor="middle" x="288" y="-80" font-family="Helvetica,sans-Serif" font-size="10.00">include/v8&#45;profiler.h</text>
</a>
</g>
</g>
<!-- Node5&#45;&gt;Node9 -->
<g id="edge10" class="edge">
<title>Node5&#45;&gt;Node9</title>
<path fill="none" stroke="midnightblue" d="M285.94,-124.32C286.49,-113.5 287.15,-100.4 287.57,-92.01"/>
<polygon fill="midnightblue" stroke="midnightblue" points="282.44,-124.31 285.43,-134.48 289.43,-124.66 282.44,-124.31"/>
</g>
<!-- Node10 -->
<g id="node10" class="node">
<title>Node10</title>
<g id="a_node10"><a xlink:href="v8-util_8h.html" target="_top" xlink:title=" ">
<polygon fill="white" stroke="black" points="356,-73 356,-92 440,-92 440,-73 356,-73"/>
<text text-anchor="middle" x="398" y="-80" font-family="Helvetica,sans-Serif" font-size="10.00">include/v8&#45;util.h</text>
</a>
</g>
</g>
<!-- Node5&#45;&gt;Node10 -->
<g id="edge11" class="edge">
<title>Node5&#45;&gt;Node10</title>
<path fill="none" stroke="midnightblue" d="M310.24,-129.71C332.12,-118.19 363.14,-101.86 381.84,-92.01"/>
<polygon fill="midnightblue" stroke="midnightblue" points="308.41,-126.72 301.19,-134.48 311.67,-132.91 308.41,-126.72"/>
</g>
<!-- Node8 -->
<g id="node8" class="node">
<title>Node8</title>
<g id="a_node8"><a xlink:href="v8-inspector-protocol_8h.html" target="_top" xlink:title=" ">
<polygon fill="white" stroke="black" points="576,-0.5 576,-30.5 680,-30.5 680,-0.5 576,-0.5"/>
<text text-anchor="start" x="584" y="-18.5" font-family="Helvetica,sans-Serif" font-size="10.00">include/v8&#45;inspector</text>
<text text-anchor="middle" x="628" y="-7.5" font-family="Helvetica,sans-Serif" font-size="10.00">&#45;protocol.h</text>
</a>
</g>
</g>
<!-- Node7&#45;&gt;Node8 -->
<g id="edge8" class="edge">
<title>Node7&#45;&gt;Node8</title>
<path fill="none" stroke="midnightblue" d="M628,-62.41C628,-52.22 628,-39.9 628,-30.59"/>
<polygon fill="midnightblue" stroke="midnightblue" points="624.5,-62.73 628,-72.73 631.5,-62.73 624.5,-62.73"/>
</g>
</g>
</svg>
