<?xml version="1.0" encoding="UTF-8" standalone="no"?>
<!DOCTYPE svg PUBLIC "-//W3C//DTD SVG 1.1//EN"
 "http://www.w3.org/Graphics/SVG/1.1/DTD/svg11.dtd">
<!-- Generated by graphviz version 2.49.3 (20211027.1534)
 -->
<!-- Title: include/v8config.h Pages: 1 -->
<svg width="665pt" height="296pt"
 viewBox="0.00 0.00 665.16 296.00" xmlns="http://www.w3.org/2000/svg" xmlns:xlink="http://www.w3.org/1999/xlink">
<g id="graph0" class="graph" transform="scale(1 1) rotate(0) translate(4 292)">
<title>include/v8config.h</title>
<polygon fill="white" stroke="transparent" points="-4,4 -4,-292 661.16,-292 661.16,4 -4,4"/>
<!-- Node1 -->
<g id="node1" class="node">
<title>Node1</title>
<g id="a_node1"><a xlink:title=" ">
<polygon fill="#bfbfbf" stroke="black" points="264.16,-268.5 264.16,-287.5 358.16,-287.5 358.16,-268.5 264.16,-268.5"/>
<text text-anchor="middle" x="311.16" y="-275.5" font-family="Helvetica,sans-Serif" font-size="10.00">include/v8config.h</text>
</a>
</g>
</g>
<!-- Node2 -->
<g id="node2" class="node">
<title>Node2</title>
<g id="a_node2"><a xlink:href="libplatform_8h.html" target="_top" xlink:title=" ">
<polygon fill="white" stroke="black" points="64.66,-67.5 64.66,-97.5 159.66,-97.5 159.66,-67.5 64.66,-67.5"/>
<text text-anchor="start" x="72.66" y="-85.5" font-family="Helvetica,sans-Serif" font-size="10.00">include/libplatform</text>
<text text-anchor="middle" x="112.16" y="-74.5" font-family="Helvetica,sans-Serif" font-size="10.00">/libplatform.h</text>
</a>
</g>
</g>
<!-- Node1&#45;&gt;Node2 -->
<g id="edge1" class="edge">
<title>Node1&#45;&gt;Node2</title>
<path fill="none" stroke="midnightblue" d="M253.74,-276.92C175.57,-275.44 41.83,-267.61 11.16,-232 -28.21,-186.28 49.64,-124.84 90,-97.56"/>
<polygon fill="midnightblue" stroke="midnightblue" points="253.87,-280.42 263.92,-277.08 253.98,-273.42 253.87,-280.42"/>
</g>
<!-- Node3 -->
<g id="node3" class="node">
<title>Node3</title>
<g id="a_node3"><a xlink:href="v8-fast-api-calls_8h.html" target="_top" xlink:title=" ">
<polygon fill="white" stroke="black" points="20.16,-201.5 20.16,-231.5 116.16,-231.5 116.16,-201.5 20.16,-201.5"/>
<text text-anchor="start" x="28.16" y="-219.5" font-family="Helvetica,sans-Serif" font-size="10.00">include/v8&#45;fast&#45;api</text>
<text text-anchor="middle" x="68.16" y="-208.5" font-family="Helvetica,sans-Serif" font-size="10.00">&#45;calls.h</text>
</a>
</g>
</g>
<!-- Node1&#45;&gt;Node3 -->
<g id="edge2" class="edge">
<title>Node1&#45;&gt;Node3</title>
<path fill="none" stroke="midnightblue" d="M265.32,-266.07C227.65,-257.05 172.91,-243.85 125.16,-232 122.29,-231.29 119.33,-230.55 116.35,-229.8"/>
<polygon fill="midnightblue" stroke="midnightblue" points="264.93,-269.57 275.47,-268.5 266.56,-262.77 264.93,-269.57"/>
</g>
<!-- Node4 -->
<g id="node4" class="node">
<title>Node4</title>
<g id="a_node4"><a xlink:href="v8-internal_8h.html" target="_top" xlink:title=" ">
<polygon fill="white" stroke="black" points="259.66,-207 259.66,-226 362.66,-226 362.66,-207 259.66,-207"/>
<text text-anchor="middle" x="311.16" y="-214" font-family="Helvetica,sans-Serif" font-size="10.00">include/v8&#45;internal.h</text>
</a>
</g>
</g>
<!-- Node1&#45;&gt;Node4 -->
<g id="edge3" class="edge">
<title>Node1&#45;&gt;Node4</title>
<path fill="none" stroke="midnightblue" d="M311.16,-258.32C311.16,-247.5 311.16,-234.4 311.16,-226.01"/>
<polygon fill="midnightblue" stroke="midnightblue" points="307.66,-258.48 311.16,-268.48 314.66,-258.48 307.66,-258.48"/>
</g>
<!-- Node5 -->
<g id="node5" class="node">
<title>Node5</title>
<g id="a_node5"><a xlink:href="v8_8h.html" target="_top" xlink:title=" ">
<polygon fill="white" stroke="black" points="340.16,-140 340.16,-159 408.16,-159 408.16,-140 340.16,-140"/>
<text text-anchor="middle" x="374.16" y="-147" font-family="Helvetica,sans-Serif" font-size="10.00">include/v8.h</text>
</a>
</g>
</g>
<!-- Node1&#45;&gt;Node5 -->
<g id="edge15" class="edge">
<title>Node1&#45;&gt;Node5</title>
<path fill="none" stroke="midnightblue" d="M340.01,-263.25C352.21,-255.82 365.19,-245.4 372.16,-232 384.58,-208.15 379.67,-174.81 376.31,-159.2"/>
<polygon fill="midnightblue" stroke="midnightblue" points="337.95,-260.4 330.95,-268.35 341.38,-266.5 337.95,-260.4"/>
</g>
<!-- Node10 -->
<g id="node10" class="node">
<title>Node10</title>
<g id="a_node10"><a xlink:href="v8-platform_8h.html" target="_top" xlink:title=" ">
<polygon fill="white" stroke="black" points="134.66,-207 134.66,-226 241.66,-226 241.66,-207 134.66,-207"/>
<text text-anchor="middle" x="188.16" y="-214" font-family="Helvetica,sans-Serif" font-size="10.00">include/v8&#45;platform.h</text>
</a>
</g>
</g>
<!-- Node1&#45;&gt;Node10 -->
<g id="edge9" class="edge">
<title>Node1&#45;&gt;Node10</title>
<path fill="none" stroke="midnightblue" d="M284.33,-264.02C260.48,-252.48 226.29,-235.94 205.75,-226.01"/>
<polygon fill="midnightblue" stroke="midnightblue" points="283.01,-267.27 293.54,-268.48 286.06,-260.97 283.01,-267.27"/>
</g>
<!-- Node12 -->
<g id="node12" class="node">
<title>Node12</title>
<g id="a_node12"><a xlink:href="v8-wasm-trap-handler-posix_8h.html" target="_top" xlink:title=" ">
<polygon fill="white" stroke="black" points="419.16,-201.5 419.16,-231.5 529.16,-231.5 529.16,-201.5 419.16,-201.5"/>
<text text-anchor="start" x="427.16" y="-219.5" font-family="Helvetica,sans-Serif" font-size="10.00">include/v8&#45;wasm&#45;trap</text>
<text text-anchor="middle" x="474.16" y="-208.5" font-family="Helvetica,sans-Serif" font-size="10.00">&#45;handler&#45;posix.h</text>
</a>
</g>
</g>
<!-- Node1&#45;&gt;Node12 -->
<g id="edge13" class="edge">
<title>Node1&#45;&gt;Node12</title>
<path fill="none" stroke="midnightblue" d="M344.1,-264.98C370.61,-255.3 407.89,-241.69 435.75,-231.52"/>
<polygon fill="midnightblue" stroke="midnightblue" points="342.71,-261.76 334.52,-268.48 345.11,-268.33 342.71,-261.76"/>
</g>
<!-- Node13 -->
<g id="node13" class="node">
<title>Node13</title>
<g id="a_node13"><a xlink:href="v8-wasm-trap-handler-win_8h.html" target="_top" xlink:title=" ">
<polygon fill="white" stroke="black" points="547.16,-201.5 547.16,-231.5 657.16,-231.5 657.16,-201.5 547.16,-201.5"/>
<text text-anchor="start" x="555.16" y="-219.5" font-family="Helvetica,sans-Serif" font-size="10.00">include/v8&#45;wasm&#45;trap</text>
<text text-anchor="middle" x="602.16" y="-208.5" font-family="Helvetica,sans-Serif" font-size="10.00">&#45;handler&#45;win.h</text>
</a>
</g>
</g>
<!-- Node1&#45;&gt;Node13 -->
<g id="edge14" class="edge">
<title>Node1&#45;&gt;Node13</title>
<path fill="none" stroke="midnightblue" d="M366.09,-266.54C412.12,-257.68 479.52,-244.45 538.16,-232 541.06,-231.38 544.03,-230.74 547.03,-230.09"/>
<polygon fill="midnightblue" stroke="midnightblue" points="365.19,-263.15 356.03,-268.48 366.51,-270.03 365.19,-263.15"/>
</g>
<!-- Node4&#45;&gt;Node5 -->
<g id="edge4" class="edge">
<title>Node4&#45;&gt;Node5</title>
<path fill="none" stroke="midnightblue" d="M326.67,-199.5C339.03,-186.75 355.85,-169.39 365.8,-159.13"/>
<polygon fill="midnightblue" stroke="midnightblue" points="324.11,-197.12 319.66,-206.73 329.13,-201.99 324.11,-197.12"/>
</g>
<!-- Node6 -->
<g id="node6" class="node">
<title>Node6</title>
<g id="a_node6"><a xlink:href="v8-inspector_8h.html" target="_top" xlink:title=" ">
<polygon fill="white" stroke="black" points="194.66,-73 194.66,-92 305.66,-92 305.66,-73 194.66,-73"/>
<text text-anchor="middle" x="250.16" y="-80" font-family="Helvetica,sans-Serif" font-size="10.00">include/v8&#45;inspector.h</text>
</a>
</g>
</g>
<!-- Node5&#45;&gt;Node6 -->
<g id="edge5" class="edge">
<title>Node5&#45;&gt;Node6</title>
<path fill="none" stroke="midnightblue" d="M348.61,-135.1C324.05,-122.23 287.67,-103.16 266.7,-92.17"/>
<polygon fill="midnightblue" stroke="midnightblue" points="347.21,-138.33 357.7,-139.87 350.46,-132.13 347.21,-138.33"/>
</g>
<!-- Node8 -->
<g id="node8" class="node">
<title>Node8</title>
<g id="a_node8"><a xlink:href="v8-profiler_8h.html" target="_top" xlink:title=" ">
<polygon fill="white" stroke="black" points="324.16,-73 324.16,-92 424.16,-92 424.16,-73 324.16,-73"/>
<text text-anchor="middle" x="374.16" y="-80" font-family="Helvetica,sans-Serif" font-size="10.00">include/v8&#45;profiler.h</text>
</a>
</g>
</g>
<!-- Node5&#45;&gt;Node8 -->
<g id="edge7" class="edge">
<title>Node5&#45;&gt;Node8</title>
<path fill="none" stroke="midnightblue" d="M374.16,-129.54C374.16,-117.17 374.16,-101.62 374.16,-92.13"/>
<polygon fill="midnightblue" stroke="midnightblue" points="370.66,-129.73 374.16,-139.73 377.66,-129.73 370.66,-129.73"/>
</g>
<!-- Node9 -->
<g id="node9" class="node">
<title>Node9</title>
<g id="a_node9"><a xlink:href="v8-util_8h.html" target="_top" xlink:title=" ">
<polygon fill="white" stroke="black" points="442.16,-73 442.16,-92 526.16,-92 526.16,-73 442.16,-73"/>
<text text-anchor="middle" x="484.16" y="-80" font-family="Helvetica,sans-Serif" font-size="10.00">include/v8&#45;util.h</text>
</a>
</g>
</g>
<!-- Node5&#45;&gt;Node9 -->
<g id="edge8" class="edge">
<title>Node5&#45;&gt;Node9</title>
<path fill="none" stroke="midnightblue" d="M397.66,-134.62C419.45,-121.74 451.2,-102.98 469.56,-92.13"/>
<polygon fill="midnightblue" stroke="midnightblue" points="395.83,-131.63 389,-139.73 399.39,-137.66 395.83,-131.63"/>
</g>
<!-- Node7 -->
<g id="node7" class="node">
<title>Node7</title>
<g id="a_node7"><a xlink:href="v8-inspector-protocol_8h.html" target="_top" xlink:title=" ">
<polygon fill="white" stroke="black" points="198.16,-0.5 198.16,-30.5 302.16,-30.5 302.16,-0.5 198.16,-0.5"/>
<text text-anchor="start" x="206.16" y="-18.5" font-family="Helvetica,sans-Serif" font-size="10.00">include/v8&#45;inspector</text>
<text text-anchor="middle" x="250.16" y="-7.5" font-family="Helvetica,sans-Serif" font-size="10.00">&#45;protocol.h</text>
</a>
</g>
</g>
<!-- Node6&#45;&gt;Node7 -->
<g id="edge6" class="edge">
<title>Node6&#45;&gt;Node7</title>
<path fill="none" stroke="midnightblue" d="M250.16,-62.41C250.16,-52.22 250.16,-39.9 250.16,-30.59"/>
<polygon fill="midnightblue" stroke="midnightblue" points="246.66,-62.73 250.16,-72.73 253.66,-62.73 246.66,-62.73"/>
</g>
<!-- Node10&#45;&gt;Node2 -->
<g id="edge10" class="edge">
<title>Node10&#45;&gt;Node2</title>
<path fill="none" stroke="midnightblue" d="M165.92,-200.97C153.88,-191.99 139.77,-179.44 131.16,-165 118.52,-143.78 114.29,-114.8 112.87,-97.73"/>
<polygon fill="midnightblue" stroke="midnightblue" points="164.02,-203.92 174.2,-206.85 168.07,-198.21 164.02,-203.92"/>
</g>
<!-- Node11 -->
<g id="node11" class="node">
<title>Node11</title>
<g id="a_node11"><a xlink:href="v8-tracing_8h.html" target="_top" xlink:title=" ">
<polygon fill="white" stroke="black" points="140.66,-134.5 140.66,-164.5 235.66,-164.5 235.66,-134.5 140.66,-134.5"/>
<text text-anchor="start" x="148.66" y="-152.5" font-family="Helvetica,sans-Serif" font-size="10.00">include/libplatform</text>
<text text-anchor="middle" x="188.16" y="-141.5" font-family="Helvetica,sans-Serif" font-size="10.00">/v8&#45;tracing.h</text>
</a>
</g>
</g>
<!-- Node10&#45;&gt;Node11 -->
<g id="edge11" class="edge">
<title>Node10&#45;&gt;Node11</title>
<path fill="none" stroke="midnightblue" d="M188.16,-196.41C188.16,-186.22 188.16,-173.9 188.16,-164.59"/>
<polygon fill="midnightblue" stroke="midnightblue" points="184.66,-196.73 188.16,-206.73 191.66,-196.73 184.66,-196.73"/>
</g>
<!-- Node11&#45;&gt;Node2 -->
<g id="edge12" class="edge">
<title>Node11&#45;&gt;Node2</title>
<path fill="none" stroke="midnightblue" d="M164.06,-127.88C152.51,-118.01 138.97,-106.43 128.62,-97.58"/>
<polygon fill="midnightblue" stroke="midnightblue" points="161.8,-130.56 171.67,-134.4 166.35,-125.24 161.8,-130.56"/>
</g>
</g>
</svg>
