<?xml version="1.0" encoding="UTF-8" standalone="no"?>
<!DOCTYPE svg PUBLIC "-//W3C//DTD SVG 1.1//EN"
 "http://www.w3.org/Graphics/SVG/1.1/DTD/svg11.dtd">
<!-- Generated by graphviz version 2.49.3 (20211027.1534)
 -->
<!-- Title: include/cppgc/internal/caged&#45;heap&#45;local&#45;data.h Pages: 1 -->
<svg width="604pt" height="218pt"
 viewBox="0.00 0.00 604.00 218.00" xmlns="http://www.w3.org/2000/svg" xmlns:xlink="http://www.w3.org/1999/xlink">
<g id="graph0" class="graph" transform="scale(1 1) rotate(0) translate(4 214)">
<title>include/cppgc/internal/caged&#45;heap&#45;local&#45;data.h</title>
<polygon fill="white" stroke="transparent" points="-4,4 -4,-214 600,-214 600,4 -4,4"/>
<!-- Node1 -->
<g id="node1" class="node">
<title>Node1</title>
<g id="a_node1"><a xlink:title=" ">
<polygon fill="#bfbfbf" stroke="black" points="148.5,-179.5 148.5,-209.5 270.5,-209.5 270.5,-179.5 148.5,-179.5"/>
<text text-anchor="start" x="156.5" y="-197.5" font-family="Helvetica,sans-Serif" font-size="10.00">include/cppgc/internal</text>
<text text-anchor="middle" x="209.5" y="-186.5" font-family="Helvetica,sans-Serif" font-size="10.00">/caged&#45;heap&#45;local&#45;data.h</text>
</a>
</g>
</g>
<!-- Node2 -->
<g id="node2" class="node">
<title>Node2</title>
<g id="a_node2"><a xlink:title=" ">
<polygon fill="white" stroke="#bfbfbf" points="55.5,-123.5 55.5,-142.5 93.5,-142.5 93.5,-123.5 55.5,-123.5"/>
<text text-anchor="middle" x="74.5" y="-130.5" font-family="Helvetica,sans-Serif" font-size="10.00">array</text>
</a>
</g>
</g>
<!-- Node1&#45;&gt;Node2 -->
<g id="edge1" class="edge">
<title>Node1&#45;&gt;Node2</title>
<path fill="none" stroke="midnightblue" d="M177.51,-179.4C154.92,-169.45 124.93,-156.23 103.13,-146.62"/>
<polygon fill="midnightblue" stroke="midnightblue" points="104.31,-143.31 93.75,-142.48 101.49,-149.72 104.31,-143.31"/>
</g>
<!-- Node3 -->
<g id="node3" class="node">
<title>Node3</title>
<g id="a_node3"><a xlink:href="api-constants_8h.html" target="_top" xlink:title=" ">
<polygon fill="white" stroke="black" points="0,-56.5 0,-86.5 93,-86.5 93,-56.5 0,-56.5"/>
<text text-anchor="start" x="8" y="-74.5" font-family="Helvetica,sans-Serif" font-size="10.00">cppgc/internal/api</text>
<text text-anchor="middle" x="46.5" y="-63.5" font-family="Helvetica,sans-Serif" font-size="10.00">&#45;constants.h</text>
</a>
</g>
</g>
<!-- Node1&#45;&gt;Node3 -->
<g id="edge2" class="edge">
<title>Node1&#45;&gt;Node3</title>
<path fill="none" stroke="midnightblue" d="M190.12,-179.41C176.27,-169.32 157.2,-155.37 140.5,-143 117.76,-126.15 92.05,-106.86 73.28,-92.72"/>
<polygon fill="midnightblue" stroke="midnightblue" points="75.27,-89.83 65.18,-86.61 71.06,-95.42 75.27,-89.83"/>
</g>
<!-- Node6 -->
<g id="node6" class="node">
<title>Node6</title>
<g id="a_node6"><a xlink:href="v8config_8h.html" target="_top" xlink:title=" ">
<polygon fill="white" stroke="black" points="186.5,-0.5 186.5,-19.5 246.5,-19.5 246.5,-0.5 186.5,-0.5"/>
<text text-anchor="middle" x="216.5" y="-7.5" font-family="Helvetica,sans-Serif" font-size="10.00">v8config.h</text>
</a>
</g>
</g>
<!-- Node1&#45;&gt;Node6 -->
<g id="edge22" class="edge">
<title>Node1&#45;&gt;Node6</title>
<path fill="none" stroke="midnightblue" d="M239.62,-179.44C253.88,-171.05 269.51,-158.9 277.5,-143 294.87,-108.46 294.93,-90.52 277.5,-56 270.69,-42.52 257.73,-32.08 245.5,-24.67"/>
<polygon fill="midnightblue" stroke="midnightblue" points="246.84,-21.41 236.41,-19.59 243.43,-27.52 246.84,-21.41"/>
</g>
<!-- Node7 -->
<g id="node7" class="node">
<title>Node7</title>
<g id="a_node7"><a xlink:href="logging_8h.html" target="_top" xlink:title=" ">
<polygon fill="white" stroke="black" points="150,-123.5 150,-142.5 269,-142.5 269,-123.5 150,-123.5"/>
<text text-anchor="middle" x="209.5" y="-130.5" font-family="Helvetica,sans-Serif" font-size="10.00">cppgc/internal/logging.h</text>
</a>
</g>
</g>
<!-- Node1&#45;&gt;Node7 -->
<g id="edge6" class="edge">
<title>Node1&#45;&gt;Node7</title>
<path fill="none" stroke="midnightblue" d="M209.5,-179.4C209.5,-171.47 209.5,-161.46 209.5,-152.86"/>
<polygon fill="midnightblue" stroke="midnightblue" points="213,-152.66 209.5,-142.66 206,-152.66 213,-152.66"/>
</g>
<!-- Node10 -->
<g id="node10" class="node">
<title>Node10</title>
<g id="a_node10"><a xlink:href="platform_8h.html" target="_top" xlink:title=" ">
<polygon fill="white" stroke="black" points="327,-123.5 327,-142.5 416,-142.5 416,-123.5 327,-123.5"/>
<text text-anchor="middle" x="371.5" y="-130.5" font-family="Helvetica,sans-Serif" font-size="10.00">cppgc/platform.h</text>
</a>
</g>
</g>
<!-- Node1&#45;&gt;Node10 -->
<g id="edge12" class="edge">
<title>Node1&#45;&gt;Node10</title>
<path fill="none" stroke="midnightblue" d="M247.89,-179.4C275.44,-169.28 312.17,-155.79 338.42,-146.15"/>
<polygon fill="midnightblue" stroke="midnightblue" points="339.75,-149.39 347.93,-142.66 337.33,-142.82 339.75,-149.39"/>
</g>
<!-- Node4 -->
<g id="node4" class="node">
<title>Node4</title>
<g id="a_node4"><a xlink:title=" ">
<polygon fill="white" stroke="#bfbfbf" points="107,-0.5 107,-19.5 156,-19.5 156,-0.5 107,-0.5"/>
<text text-anchor="middle" x="131.5" y="-7.5" font-family="Helvetica,sans-Serif" font-size="10.00">cstddef</text>
</a>
</g>
</g>
<!-- Node3&#45;&gt;Node4 -->
<g id="edge3" class="edge">
<title>Node3&#45;&gt;Node4</title>
<path fill="none" stroke="midnightblue" d="M66.64,-56.4C79.89,-47.13 97.18,-35.03 110.58,-25.65"/>
<polygon fill="midnightblue" stroke="midnightblue" points="112.95,-28.26 119.13,-19.66 108.93,-22.53 112.95,-28.26"/>
</g>
<!-- Node5 -->
<g id="node5" class="node">
<title>Node5</title>
<g id="a_node5"><a xlink:title=" ">
<polygon fill="white" stroke="#bfbfbf" points="23.5,-0.5 23.5,-19.5 69.5,-19.5 69.5,-0.5 23.5,-0.5"/>
<text text-anchor="middle" x="46.5" y="-7.5" font-family="Helvetica,sans-Serif" font-size="10.00">cstdint</text>
</a>
</g>
</g>
<!-- Node3&#45;&gt;Node5 -->
<g id="edge4" class="edge">
<title>Node3&#45;&gt;Node5</title>
<path fill="none" stroke="midnightblue" d="M46.5,-56.4C46.5,-48.47 46.5,-38.46 46.5,-29.86"/>
<polygon fill="midnightblue" stroke="midnightblue" points="50,-29.66 46.5,-19.66 43,-29.66 50,-29.66"/>
</g>
<!-- Node3&#45;&gt;Node6 -->
<g id="edge5" class="edge">
<title>Node3&#45;&gt;Node6</title>
<path fill="none" stroke="midnightblue" d="M86.79,-56.4C115.82,-46.24 154.58,-32.67 182.15,-23.02"/>
<polygon fill="midnightblue" stroke="midnightblue" points="183.48,-26.26 191.76,-19.66 181.17,-19.66 183.48,-26.26"/>
</g>
<!-- Node7&#45;&gt;Node6 -->
<g id="edge11" class="edge">
<title>Node7&#45;&gt;Node6</title>
<path fill="none" stroke="midnightblue" d="M185.71,-123.5C169.78,-116.41 150.04,-104.61 140.5,-87 133.94,-74.89 133.68,-67.97 140.5,-56 148.91,-41.25 164.27,-30.84 178.98,-23.77"/>
<polygon fill="midnightblue" stroke="midnightblue" points="180.74,-26.83 188.48,-19.6 177.92,-20.42 180.74,-26.83"/>
</g>
<!-- Node8 -->
<g id="node8" class="node">
<title>Node8</title>
<g id="a_node8"><a xlink:href="source-location_8h.html" target="_top" xlink:title=" ">
<polygon fill="white" stroke="black" points="150,-62 150,-81 269,-81 269,-62 150,-62"/>
<text text-anchor="middle" x="209.5" y="-69" font-family="Helvetica,sans-Serif" font-size="10.00">cppgc/source&#45;location.h</text>
</a>
</g>
</g>
<!-- Node7&#45;&gt;Node8 -->
<g id="edge7" class="edge">
<title>Node7&#45;&gt;Node8</title>
<path fill="none" stroke="midnightblue" d="M209.5,-123.48C209.5,-115.08 209.5,-101.98 209.5,-91.16"/>
<polygon fill="midnightblue" stroke="midnightblue" points="213,-91.01 209.5,-81.01 206,-91.01 213,-91.01"/>
</g>
<!-- Node8&#45;&gt;Node4 -->
<g id="edge8" class="edge">
<title>Node8&#45;&gt;Node4</title>
<path fill="none" stroke="midnightblue" d="M198.32,-61.98C185.93,-52.52 165.71,-37.1 150.75,-25.69"/>
<polygon fill="midnightblue" stroke="midnightblue" points="152.73,-22.79 142.65,-19.51 148.48,-28.36 152.73,-22.79"/>
</g>
<!-- Node8&#45;&gt;Node6 -->
<g id="edge10" class="edge">
<title>Node8&#45;&gt;Node6</title>
<path fill="none" stroke="midnightblue" d="M210.5,-61.98C211.49,-53.58 213.03,-40.48 214.3,-29.66"/>
<polygon fill="midnightblue" stroke="midnightblue" points="217.81,-29.85 215.5,-19.51 210.85,-29.03 217.81,-29.85"/>
</g>
<!-- Node9 -->
<g id="node9" class="node">
<title>Node9</title>
<g id="a_node9"><a xlink:title=" ">
<polygon fill="white" stroke="#bfbfbf" points="272,-0.5 272,-19.5 313,-19.5 313,-0.5 272,-0.5"/>
<text text-anchor="middle" x="292.5" y="-7.5" font-family="Helvetica,sans-Serif" font-size="10.00">string</text>
</a>
</g>
</g>
<!-- Node8&#45;&gt;Node9 -->
<g id="edge9" class="edge">
<title>Node8&#45;&gt;Node9</title>
<path fill="none" stroke="midnightblue" d="M221.39,-61.98C234.7,-52.43 256.5,-36.81 272.46,-25.37"/>
<polygon fill="midnightblue" stroke="midnightblue" points="274.54,-28.18 280.63,-19.51 270.46,-22.49 274.54,-28.18"/>
</g>
<!-- Node10&#45;&gt;Node6 -->
<g id="edge21" class="edge">
<title>Node10&#45;&gt;Node6</title>
<path fill="none" stroke="midnightblue" d="M366.57,-123.42C357.43,-108.12 336.49,-75.9 311.5,-56 293.75,-41.87 270.83,-30.85 251.96,-23.25"/>
<polygon fill="midnightblue" stroke="midnightblue" points="253.09,-19.94 242.5,-19.59 250.56,-26.47 253.09,-19.94"/>
</g>
<!-- Node11 -->
<g id="node11" class="node">
<title>Node11</title>
<g id="a_node11"><a xlink:title=" ">
<polygon fill="white" stroke="#bfbfbf" points="344,-0.5 344,-19.5 395,-19.5 395,-0.5 344,-0.5"/>
<text text-anchor="middle" x="369.5" y="-7.5" font-family="Helvetica,sans-Serif" font-size="10.00">memory</text>
</a>
</g>
</g>
<!-- Node10&#45;&gt;Node11 -->
<g id="edge13" class="edge">
<title>Node10&#45;&gt;Node11</title>
<path fill="none" stroke="midnightblue" d="M371.36,-123.3C371.03,-103.85 370.25,-56.49 369.81,-29.9"/>
<polygon fill="midnightblue" stroke="midnightblue" points="373.31,-29.56 369.64,-19.62 366.31,-29.68 373.31,-29.56"/>
</g>
<!-- Node12 -->
<g id="node12" class="node">
<title>Node12</title>
<g id="a_node12"><a xlink:href="v8-platform_8h.html" target="_top" xlink:title=" ">
<polygon fill="white" stroke="black" points="402,-62 402,-81 475,-81 475,-62 402,-62"/>
<text text-anchor="middle" x="438.5" y="-69" font-family="Helvetica,sans-Serif" font-size="10.00">v8&#45;platform.h</text>
</a>
</g>
</g>
<!-- Node10&#45;&gt;Node12 -->
<g id="edge14" class="edge">
<title>Node10&#45;&gt;Node12</title>
<path fill="none" stroke="midnightblue" d="M381.1,-123.48C391.55,-114.2 408.47,-99.17 421.24,-87.83"/>
<polygon fill="midnightblue" stroke="midnightblue" points="423.77,-90.27 428.92,-81.01 419.12,-85.03 423.77,-90.27"/>
</g>
<!-- Node12&#45;&gt;Node6 -->
<g id="edge20" class="edge">
<title>Node12&#45;&gt;Node6</title>
<path fill="none" stroke="midnightblue" d="M406.69,-61.98C367.18,-51.38 299.73,-33.31 256.68,-21.77"/>
<polygon fill="midnightblue" stroke="midnightblue" points="257.39,-18.34 246.82,-19.13 255.58,-25.1 257.39,-18.34"/>
</g>
<!-- Node12&#45;&gt;Node9 -->
<g id="edge19" class="edge">
<title>Node12&#45;&gt;Node9</title>
<path fill="none" stroke="midnightblue" d="M417.58,-61.98C392.75,-51.86 351.16,-34.9 322.81,-23.35"/>
<polygon fill="midnightblue" stroke="midnightblue" points="323.96,-20.04 313.38,-19.51 321.32,-26.52 323.96,-20.04"/>
</g>
<!-- Node12&#45;&gt;Node11 -->
<g id="edge18" class="edge">
<title>Node12&#45;&gt;Node11</title>
<path fill="none" stroke="midnightblue" d="M428.61,-61.98C417.85,-52.7 400.43,-37.67 387.28,-26.33"/>
<polygon fill="midnightblue" stroke="midnightblue" points="389.23,-23.39 379.37,-19.51 384.66,-28.69 389.23,-23.39"/>
</g>
<!-- Node13 -->
<g id="node13" class="node">
<title>Node13</title>
<g id="a_node13"><a xlink:title=" ">
<polygon fill="white" stroke="#bfbfbf" points="413,-0.5 413,-19.5 464,-19.5 464,-0.5 413,-0.5"/>
<text text-anchor="middle" x="438.5" y="-7.5" font-family="Helvetica,sans-Serif" font-size="10.00">stddef.h</text>
</a>
</g>
</g>
<!-- Node12&#45;&gt;Node13 -->
<g id="edge15" class="edge">
<title>Node12&#45;&gt;Node13</title>
<path fill="none" stroke="midnightblue" d="M438.5,-61.98C438.5,-53.58 438.5,-40.48 438.5,-29.66"/>
<polygon fill="midnightblue" stroke="midnightblue" points="442,-29.51 438.5,-19.51 435,-29.51 442,-29.51"/>
</g>
<!-- Node14 -->
<g id="node14" class="node">
<title>Node14</title>
<g id="a_node14"><a xlink:title=" ">
<polygon fill="white" stroke="#bfbfbf" points="482.5,-0.5 482.5,-19.5 530.5,-19.5 530.5,-0.5 482.5,-0.5"/>
<text text-anchor="middle" x="506.5" y="-7.5" font-family="Helvetica,sans-Serif" font-size="10.00">stdint.h</text>
</a>
</g>
</g>
<!-- Node12&#45;&gt;Node14 -->
<g id="edge16" class="edge">
<title>Node12&#45;&gt;Node14</title>
<path fill="none" stroke="midnightblue" d="M448.24,-61.98C458.85,-52.7 476.02,-37.67 488.98,-26.33"/>
<polygon fill="midnightblue" stroke="midnightblue" points="491.55,-28.73 496.78,-19.51 486.94,-23.46 491.55,-28.73"/>
</g>
<!-- Node15 -->
<g id="node15" class="node">
<title>Node15</title>
<g id="a_node15"><a xlink:title=" ">
<polygon fill="white" stroke="#bfbfbf" points="549,-0.5 549,-19.5 596,-19.5 596,-0.5 549,-0.5"/>
<text text-anchor="middle" x="572.5" y="-7.5" font-family="Helvetica,sans-Serif" font-size="10.00">stdlib.h</text>
</a>
</g>
</g>
<!-- Node12&#45;&gt;Node15 -->
<g id="edge17" class="edge">
<title>Node12&#45;&gt;Node15</title>
<path fill="none" stroke="midnightblue" d="M457.7,-61.98C480.29,-51.95 518,-35.2 544,-23.65"/>
<polygon fill="midnightblue" stroke="midnightblue" points="545.62,-26.77 553.34,-19.51 542.78,-20.37 545.62,-26.77"/>
</g>
</g>
</svg>
