<?xml version="1.0" encoding="UTF-8" standalone="no"?>
<!DOCTYPE svg PUBLIC "-//W3C//DTD SVG 1.1//EN"
 "http://www.w3.org/Graphics/SVG/1.1/DTD/svg11.dtd">
<!-- Generated by graphviz version 2.49.3 (20211027.1534)
 -->
<!-- Title: v8::internal::CFunctionBuilderWithFunction::Ret Pages: 1 -->
<svg width="358pt" height="63pt"
 viewBox="0.00 0.00 358.00 62.50" xmlns="http://www.w3.org/2000/svg" xmlns:xlink="http://www.w3.org/1999/xlink">
<g id="graph0" class="graph" transform="scale(1 1) rotate(0) translate(4 58.5)">
<title>v8::internal::CFunctionBuilderWithFunction::Ret</title>
<polygon fill="white" stroke="transparent" points="-4,4 -4,-58.5 354,-58.5 354,4 -4,4"/>
<!-- Node1 -->
<g id="node1" class="node">
<title>Node1</title>
<g id="a_node1"><a xlink:title=" ">
<polygon fill="#bfbfbf" stroke="black" points="0,-6 0,-36 142,-36 142,-6 0,-6"/>
<text text-anchor="start" x="8" y="-24" font-family="Helvetica,sans-Serif" font-size="10.00">v8::internal::CFunctionBuilder</text>
<text text-anchor="middle" x="71" y="-13" font-family="Helvetica,sans-Serif" font-size="10.00">WithFunction::Ret</text>
</a>
</g>
</g>
<!-- Node1&#45;&gt;Node1 -->
<g id="edge2" class="edge">
<title>Node1&#45;&gt;Node1</title>
<path fill="none" stroke="midnightblue" d="M37.54,-36.16C29.47,-45.56 40.62,-54.5 71,-54.5 89.51,-54.5 100.88,-51.18 105.12,-46.46"/>
<polygon fill="midnightblue" stroke="midnightblue" points="108.59,-45.92 104.46,-36.16 101.6,-46.36 108.59,-45.92"/>
</g>
<!-- Node2 -->
<g id="node2" class="node">
<title>Node2</title>
<g id="a_node2"><a xlink:href="classv8_1_1internal_1_1CFunctionBuilderWithFunction.html#a330caf3962cbac2d219f367821712822" target="_top" xlink:title=" ">
<polygon fill="white" stroke="black" points="178,-0.5 178,-41.5 350,-41.5 350,-0.5 178,-0.5"/>
<text text-anchor="start" x="186" y="-29.5" font-family="Helvetica,sans-Serif" font-size="10.00">v8::internal::CFunctionBuilder</text>
<text text-anchor="start" x="186" y="-18.5" font-family="Helvetica,sans-Serif" font-size="10.00">WithFunction::CFunctionBuilderWith</text>
<text text-anchor="middle" x="264" y="-7.5" font-family="Helvetica,sans-Serif" font-size="10.00">Function</text>
</a>
</g>
</g>
<!-- Node1&#45;&gt;Node2 -->
<g id="edge1" class="edge">
<title>Node1&#45;&gt;Node2</title>
<path fill="none" stroke="midnightblue" d="M142.04,-21C150.38,-21 159,-21 167.62,-21"/>
<polygon fill="midnightblue" stroke="midnightblue" points="167.72,-24.5 177.72,-21 167.72,-17.5 167.72,-24.5"/>
</g>
</g>
</svg>
