<?xml version="1.0" encoding="UTF-8" standalone="no"?>
<!DOCTYPE svg PUBLIC "-//W3C//DTD SVG 1.1//EN"
 "http://www.w3.org/Graphics/SVG/1.1/DTD/svg11.dtd">
<!-- Generated by graphviz version 2.49.3 (20211027.1534)
 -->
<!-- Title: cppgc::internal::WriteBarrier::DijkstraMarkingBarrier Pages: 1 -->
<svg width="348pt" height="137pt"
 viewBox="0.00 0.00 348.00 137.00" xmlns="http://www.w3.org/2000/svg" xmlns:xlink="http://www.w3.org/1999/xlink">
<g id="graph0" class="graph" transform="scale(1 1) rotate(0) translate(4 133)">
<title>cppgc::internal::WriteBarrier::DijkstraMarkingBarrier</title>
<polygon fill="white" stroke="transparent" points="-4,4 -4,-133 344,-133 344,4 -4,4"/>
<!-- Node1 -->
<g id="node1" class="node">
<title>Node1</title>
<g id="a_node1"><a xlink:title=" ">
<polygon fill="#bfbfbf" stroke="black" points="206,-49.5 206,-79.5 340,-79.5 340,-49.5 206,-49.5"/>
<text text-anchor="start" x="214" y="-67.5" font-family="Helvetica,sans-Serif" font-size="10.00">cppgc::internal::WriteBarrier</text>
<text text-anchor="middle" x="273" y="-56.5" font-family="Helvetica,sans-Serif" font-size="10.00">::DijkstraMarkingBarrier</text>
</a>
</g>
</g>
<!-- Node2 -->
<g id="node2" class="node">
<title>Node2</title>
<g id="a_node2"><a xlink:href="structcppgc_1_1internal_1_1DijkstraWriteBarrierPolicy.html#ae117911156c06e2ec91d322320399ffd" target="_top" xlink:title=" ">
<polygon fill="white" stroke="black" points="0,-98.5 0,-128.5 170,-128.5 170,-98.5 0,-98.5"/>
<text text-anchor="start" x="8" y="-116.5" font-family="Helvetica,sans-Serif" font-size="10.00">cppgc::internal::Dijkstra</text>
<text text-anchor="middle" x="85" y="-105.5" font-family="Helvetica,sans-Serif" font-size="10.00">WriteBarrierPolicy::AssigningBarrier</text>
</a>
</g>
</g>
<!-- Node1&#45;&gt;Node2 -->
<g id="edge1" class="edge">
<title>Node1&#45;&gt;Node2</title>
<path fill="none" stroke="midnightblue" d="M205.1,-82.12C184.76,-87.48 162.59,-93.32 142.96,-98.49"/>
<polygon fill="midnightblue" stroke="midnightblue" points="206.15,-85.47 214.93,-79.53 204.37,-78.7 206.15,-85.47"/>
</g>
<!-- Node3 -->
<g id="node3" class="node">
<title>Node3</title>
<g id="a_node3"><a xlink:href="classv8_1_1JSHeapConsistency.html#a4eb89004242032f142645be5c4581a4a" target="_top" xlink:title=" ">
<polygon fill="white" stroke="black" points="25,-49.5 25,-79.5 145,-79.5 145,-49.5 25,-49.5"/>
<text text-anchor="start" x="33" y="-67.5" font-family="Helvetica,sans-Serif" font-size="10.00">v8::JSHeapConsistency</text>
<text text-anchor="middle" x="85" y="-56.5" font-family="Helvetica,sans-Serif" font-size="10.00">::DijkstraMarkingBarrier</text>
</a>
</g>
</g>
<!-- Node1&#45;&gt;Node3 -->
<g id="edge2" class="edge">
<title>Node1&#45;&gt;Node3</title>
<path fill="none" stroke="midnightblue" d="M195.53,-64.5C178.69,-64.5 161.11,-64.5 145.08,-64.5"/>
<polygon fill="midnightblue" stroke="midnightblue" points="195.9,-68 205.9,-64.5 195.9,-61 195.9,-68"/>
</g>
<!-- Node4 -->
<g id="node4" class="node">
<title>Node4</title>
<g id="a_node4"><a xlink:href="classcppgc_1_1subtle_1_1HeapConsistency.html#add539377031d7bab7f9f29f3667bfc57" target="_top" xlink:title=" ">
<polygon fill="white" stroke="black" points="7.5,-0.5 7.5,-30.5 162.5,-30.5 162.5,-0.5 7.5,-0.5"/>
<text text-anchor="start" x="15.5" y="-18.5" font-family="Helvetica,sans-Serif" font-size="10.00">cppgc::subtle::HeapConsistency</text>
<text text-anchor="middle" x="85" y="-7.5" font-family="Helvetica,sans-Serif" font-size="10.00">::DijkstraWriteBarrier</text>
</a>
</g>
</g>
<!-- Node1&#45;&gt;Node4 -->
<g id="edge3" class="edge">
<title>Node1&#45;&gt;Node4</title>
<path fill="none" stroke="midnightblue" d="M205.1,-46.88C184.76,-41.52 162.59,-35.68 142.96,-30.51"/>
<polygon fill="midnightblue" stroke="midnightblue" points="204.37,-50.3 214.93,-49.47 206.15,-43.53 204.37,-50.3"/>
</g>
</g>
</svg>
