<?xml version="1.0" encoding="UTF-8" standalone="no"?>
<!DOCTYPE svg PUBLIC "-//W3C//DTD SVG 1.1//EN"
 "http://www.w3.org/Graphics/SVG/1.1/DTD/svg11.dtd">
<!-- Generated by graphviz version 2.49.3 (20211027.1534)
 -->
<!-- Title: v8::GlobalValueMap::Set Pages: 1 -->
<svg width="786pt" height="274pt"
 viewBox="0.00 0.00 786.00 273.50" xmlns="http://www.w3.org/2000/svg" xmlns:xlink="http://www.w3.org/1999/xlink">
<g id="graph0" class="graph" transform="scale(1 1) rotate(0) translate(4 269.5)">
<title>v8::GlobalValueMap::Set</title>
<polygon fill="white" stroke="transparent" points="-4,4 -4,-269.5 782,-269.5 782,4 -4,4"/>
<!-- Node1 -->
<g id="node1" class="node">
<title>Node1</title>
<g id="a_node1"><a xlink:title=" ">
<polygon fill="#bfbfbf" stroke="black" points="0,-188.5 0,-207.5 122,-207.5 122,-188.5 0,-188.5"/>
<text text-anchor="middle" x="61" y="-195.5" font-family="Helvetica,sans-Serif" font-size="10.00">v8::GlobalValueMap::Set</text>
</a>
</g>
</g>
<!-- Node2 -->
<g id="node2" class="node">
<title>Node2</title>
<g id="a_node2"><a xlink:href="classv8_1_1PersistentValueMapBase.html#ac15c999275fb50c0084246cb9a848811" target="_top" xlink:title=" ">
<polygon fill="white" stroke="black" points="297,-235 297,-265 439,-265 439,-235 297,-235"/>
<text text-anchor="start" x="305" y="-253" font-family="Helvetica,sans-Serif" font-size="10.00">v8::PersistentValueMapBase</text>
<text text-anchor="middle" x="368" y="-242" font-family="Helvetica,sans-Serif" font-size="10.00">::isolate</text>
</a>
</g>
</g>
<!-- Node1&#45;&gt;Node2 -->
<g id="edge1" class="edge">
<title>Node1&#45;&gt;Node2</title>
<path fill="none" stroke="midnightblue" d="M117.94,-207.54C165.28,-215.61 233.7,-227.27 286.86,-236.34"/>
<polygon fill="midnightblue" stroke="midnightblue" points="286.49,-239.82 296.94,-238.05 287.67,-232.92 286.49,-239.82"/>
</g>
<!-- Node3 -->
<g id="node3" class="node">
<title>Node3</title>
<g id="a_node3"><a xlink:href="classv8_1_1GlobalValueMap.html#a5c9f97a40e657b8b0b334d25559f0a4d" target="_top" xlink:title=" ">
<polygon fill="white" stroke="black" points="158,-161 158,-191 261,-191 261,-161 158,-161"/>
<text text-anchor="start" x="166" y="-179" font-family="Helvetica,sans-Serif" font-size="10.00">v8::GlobalValueMap</text>
<text text-anchor="middle" x="209.5" y="-168" font-family="Helvetica,sans-Serif" font-size="10.00">::SetUnique</text>
</a>
</g>
</g>
<!-- Node1&#45;&gt;Node3 -->
<g id="edge2" class="edge">
<title>Node1&#45;&gt;Node3</title>
<path fill="none" stroke="midnightblue" d="M122.01,-188.99C130.44,-187.72 139.11,-186.42 147.55,-185.15"/>
<polygon fill="midnightblue" stroke="midnightblue" points="148.34,-188.57 157.71,-183.63 147.3,-181.65 148.34,-188.57"/>
</g>
<!-- Node3&#45;&gt;Node2 -->
<g id="edge8" class="edge">
<title>Node3&#45;&gt;Node2</title>
<path fill="none" stroke="midnightblue" d="M233.71,-191.07C250.76,-201.73 274.74,-215.87 297,-226 301.06,-227.85 305.3,-229.63 309.6,-231.34"/>
<polygon fill="midnightblue" stroke="midnightblue" points="308.48,-234.66 319.07,-234.95 310.97,-228.12 308.48,-234.66"/>
</g>
<!-- Node4 -->
<g id="node4" class="node">
<title>Node4</title>
<g id="a_node4"><a xlink:href="classv8_1_1PersistentValueMapBase.html#a243dfaf4ef5f9aa7bc178a660b14235a" target="_top" xlink:title=" ">
<polygon fill="white" stroke="black" points="297,-186 297,-216 439,-216 439,-186 297,-186"/>
<text text-anchor="start" x="305" y="-204" font-family="Helvetica,sans-Serif" font-size="10.00">v8::PersistentValueMapBase</text>
<text text-anchor="middle" x="368" y="-193" font-family="Helvetica,sans-Serif" font-size="10.00">::AnnotateStrongRetainer</text>
</a>
</g>
</g>
<!-- Node3&#45;&gt;Node4 -->
<g id="edge3" class="edge">
<title>Node3&#45;&gt;Node4</title>
<path fill="none" stroke="midnightblue" d="M261.31,-184.12C269.46,-185.42 278.06,-186.79 286.69,-188.17"/>
<polygon fill="midnightblue" stroke="midnightblue" points="286.39,-191.67 296.82,-189.79 287.5,-184.76 286.39,-191.67"/>
</g>
<!-- Node7 -->
<g id="node7" class="node">
<title>Node7</title>
<g id="a_node7"><a xlink:href="classv8_1_1PersistentValueMapBase.html#a7b083c75829bbc4177729ffe9827c4ac" target="_top" xlink:title=" ">
<polygon fill="white" stroke="black" points="297,-137 297,-167 439,-167 439,-137 297,-137"/>
<text text-anchor="start" x="305" y="-155" font-family="Helvetica,sans-Serif" font-size="10.00">v8::PersistentValueMapBase</text>
<text text-anchor="middle" x="368" y="-144" font-family="Helvetica,sans-Serif" font-size="10.00">::ClearAndLeak</text>
</a>
</g>
</g>
<!-- Node3&#45;&gt;Node7 -->
<g id="edge6" class="edge">
<title>Node3&#45;&gt;Node7</title>
<path fill="none" stroke="midnightblue" d="M261.31,-168.21C269.46,-166.96 278.06,-165.64 286.69,-164.32"/>
<polygon fill="midnightblue" stroke="midnightblue" points="287.47,-167.74 296.82,-162.76 286.41,-160.82 287.47,-167.74"/>
</g>
<!-- Node8 -->
<g id="node8" class="node">
<title>Node8</title>
<g id="a_node8"><a xlink:href="classv8_1_1PersistentValueMapBase.html#a149e5b7f40fa52dc9b379342ac802d94" target="_top" xlink:title=" ">
<polygon fill="white" stroke="black" points="297,-88 297,-118 439,-118 439,-88 297,-88"/>
<text text-anchor="start" x="305" y="-106" font-family="Helvetica,sans-Serif" font-size="10.00">v8::PersistentValueMapBase</text>
<text text-anchor="middle" x="368" y="-95" font-family="Helvetica,sans-Serif" font-size="10.00">::impl</text>
</a>
</g>
</g>
<!-- Node3&#45;&gt;Node8 -->
<g id="edge7" class="edge">
<title>Node3&#45;&gt;Node8</title>
<path fill="none" stroke="midnightblue" d="M234.48,-160.82C251.5,-150.44 275.12,-136.84 297,-127 301.06,-125.17 305.31,-123.4 309.62,-121.7"/>
<polygon fill="midnightblue" stroke="midnightblue" points="310.99,-124.92 319.09,-118.1 308.5,-118.38 310.99,-124.92"/>
</g>
<!-- Node9 -->
<g id="node9" class="node">
<title>Node9</title>
<g id="a_node9"><a xlink:href="classv8_1_1PersistentValueMapBase.html#aea9af944a2bd71a3b6abd2a2e57788f1" target="_top" xlink:title=" ">
<polygon fill="white" stroke="black" points="297,-39 297,-69 439,-69 439,-39 297,-39"/>
<text text-anchor="start" x="305" y="-57" font-family="Helvetica,sans-Serif" font-size="10.00">v8::PersistentValueMapBase</text>
<text text-anchor="middle" x="368" y="-46" font-family="Helvetica,sans-Serif" font-size="10.00">::Release</text>
</a>
</g>
</g>
<!-- Node3&#45;&gt;Node9 -->
<g id="edge9" class="edge">
<title>Node3&#45;&gt;Node9</title>
<path fill="none" stroke="midnightblue" d="M220.1,-160.86C234.39,-139.49 263.22,-100.57 297,-78 299.4,-76.39 301.93,-74.89 304.53,-73.47"/>
<polygon fill="midnightblue" stroke="midnightblue" points="306.18,-76.55 313.62,-69 303.1,-70.27 306.18,-76.55"/>
</g>
<!-- Node5 -->
<g id="node5" class="node">
<title>Node5</title>
<g id="a_node5"><a xlink:href="classv8_1_1PersistentBase.html#a27ddb6118b13225207e9641c1e6c8c91" target="_top" xlink:title=" ">
<polygon fill="white" stroke="black" points="483.5,-186 483.5,-216 608.5,-216 608.5,-186 483.5,-186"/>
<text text-anchor="start" x="491.5" y="-204" font-family="Helvetica,sans-Serif" font-size="10.00">v8::PersistentBase</text>
<text text-anchor="middle" x="546" y="-193" font-family="Helvetica,sans-Serif" font-size="10.00">::AnnotateStrongRetainer</text>
</a>
</g>
</g>
<!-- Node4&#45;&gt;Node5 -->
<g id="edge4" class="edge">
<title>Node4&#45;&gt;Node5</title>
<path fill="none" stroke="midnightblue" d="M439.07,-201C450.29,-201 461.93,-201 473.2,-201"/>
<polygon fill="midnightblue" stroke="midnightblue" points="473.42,-204.5 483.42,-201 473.42,-197.5 473.42,-204.5"/>
</g>
<!-- Node6 -->
<g id="node6" class="node">
<title>Node6</title>
<g id="a_node6"><a xlink:href="namespacev8_1_1api__internal.html#ab5087fcb15b792961e9ed786d7fe8837" target="_top" xlink:title=" ">
<polygon fill="white" stroke="black" points="653,-186 653,-216 778,-216 778,-186 653,-186"/>
<text text-anchor="start" x="661" y="-204" font-family="Helvetica,sans-Serif" font-size="10.00">v8::api_internal::Annotate</text>
<text text-anchor="middle" x="715.5" y="-193" font-family="Helvetica,sans-Serif" font-size="10.00">StrongRetainer</text>
</a>
</g>
</g>
<!-- Node5&#45;&gt;Node6 -->
<g id="edge5" class="edge">
<title>Node5&#45;&gt;Node6</title>
<path fill="none" stroke="midnightblue" d="M608.89,-201C619.88,-201 631.41,-201 642.65,-201"/>
<polygon fill="midnightblue" stroke="midnightblue" points="642.86,-204.5 652.86,-201 642.86,-197.5 642.86,-204.5"/>
</g>
<!-- Node10 -->
<g id="node10" class="node">
<title>Node10</title>
<g id="a_node10"><a xlink:href="classv8_1_1PersistentValueMapBase.html#abb262f768e4353658726ba4d1295947c" target="_top" xlink:title=" ">
<polygon fill="white" stroke="black" points="475,-88 475,-118 617,-118 617,-88 475,-88"/>
<text text-anchor="start" x="483" y="-106" font-family="Helvetica,sans-Serif" font-size="10.00">v8::PersistentValueMapBase</text>
<text text-anchor="middle" x="546" y="-95" font-family="Helvetica,sans-Serif" font-size="10.00">::FromVal</text>
</a>
</g>
</g>
<!-- Node9&#45;&gt;Node10 -->
<g id="edge10" class="edge">
<title>Node9&#45;&gt;Node10</title>
<path fill="none" stroke="midnightblue" d="M423.24,-69.1C441.56,-74.2 462.18,-79.94 481.17,-85.23"/>
<polygon fill="midnightblue" stroke="midnightblue" points="480.36,-88.64 490.94,-87.95 482.24,-81.89 480.36,-88.64"/>
</g>
<!-- Node11 -->
<g id="node11" class="node">
<title>Node11</title>
<g id="a_node11"><a xlink:href="classv8_1_1PersistentBase.html#a479c7b146da083aa608e133a7dec79f9" target="_top" xlink:title=" ">
<polygon fill="white" stroke="black" points="497,-39 497,-69 595,-69 595,-39 497,-39"/>
<text text-anchor="start" x="505" y="-57" font-family="Helvetica,sans-Serif" font-size="10.00">v8::PersistentBase</text>
<text text-anchor="middle" x="546" y="-46" font-family="Helvetica,sans-Serif" font-size="10.00">::IsWeak</text>
</a>
</g>
</g>
<!-- Node9&#45;&gt;Node11 -->
<g id="edge11" class="edge">
<title>Node9&#45;&gt;Node11</title>
<path fill="none" stroke="midnightblue" d="M439.07,-54C454.8,-54 471.33,-54 486.53,-54"/>
<polygon fill="midnightblue" stroke="midnightblue" points="486.82,-57.5 496.82,-54 486.82,-50.5 486.82,-57.5"/>
</g>
<!-- Node12 -->
<g id="node12" class="node">
<title>Node12</title>
<g id="a_node12"><a xlink:href="classv8_1_1Global.html#a914903149cc752468d4a3a11b6089c7e" target="_top" xlink:title=" ">
<polygon fill="white" stroke="black" points="503,-0.5 503,-19.5 589,-19.5 589,-0.5 503,-0.5"/>
<text text-anchor="middle" x="546" y="-7.5" font-family="Helvetica,sans-Serif" font-size="10.00">v8::Global::Pass</text>
</a>
</g>
</g>
<!-- Node9&#45;&gt;Node12 -->
<g id="edge12" class="edge">
<title>Node9&#45;&gt;Node12</title>
<path fill="none" stroke="midnightblue" d="M429.08,-38.98C451.24,-33.44 476.04,-27.24 497,-22"/>
<polygon fill="midnightblue" stroke="midnightblue" points="498.1,-25.33 506.95,-19.51 496.4,-18.54 498.1,-25.33"/>
</g>
</g>
</svg>
