<?xml version="1.0" encoding="UTF-8" standalone="no"?>
<!DOCTYPE svg PUBLIC "-//W3C//DTD SVG 1.1//EN"
 "http://www.w3.org/Graphics/SVG/1.1/DTD/svg11.dtd">
<!-- Generated by graphviz version 2.49.3 (20211027.1534)
 -->
<!-- Title: v8::api_internal::CopyTracedGlobalReference Pages: 1 -->
<svg width="316pt" height="78pt"
 viewBox="0.00 0.00 316.00 77.50" xmlns="http://www.w3.org/2000/svg" xmlns:xlink="http://www.w3.org/1999/xlink">
<g id="graph0" class="graph" transform="scale(1 1) rotate(0) translate(4 73.5)">
<title>v8::api_internal::CopyTracedGlobalReference</title>
<polygon fill="white" stroke="transparent" points="-4,4 -4,-73.5 312,-73.5 312,4 -4,4"/>
<!-- Node1 -->
<g id="node1" class="node">
<title>Node1</title>
<g id="a_node1"><a xlink:title=" ">
<polygon fill="#bfbfbf" stroke="black" points="171,-22.5 171,-52.5 308,-52.5 308,-22.5 171,-22.5"/>
<text text-anchor="start" x="179" y="-40.5" font-family="Helvetica,sans-Serif" font-size="10.00">v8::api_internal::CopyTraced</text>
<text text-anchor="middle" x="239.5" y="-29.5" font-family="Helvetica,sans-Serif" font-size="10.00">GlobalReference</text>
</a>
</g>
</g>
<!-- Node2 -->
<g id="node2" class="node">
<title>Node2</title>
<g id="a_node2"><a xlink:href="classv8_1_1TracedGlobal.html#ad3cf87b76c0b3fb142f4a3e46c371693" target="_top" xlink:title=" ">
<polygon fill="white" stroke="black" points="0,-50 0,-69 135,-69 135,-50 0,-50"/>
<text text-anchor="middle" x="67.5" y="-57" font-family="Helvetica,sans-Serif" font-size="10.00">v8::TracedGlobal::operator=</text>
</a>
</g>
</g>
<!-- Node1&#45;&gt;Node2 -->
<g id="edge1" class="edge">
<title>Node1&#45;&gt;Node2</title>
<path fill="none" stroke="midnightblue" d="M160.81,-47.55C152.23,-48.66 143.54,-49.79 135.11,-50.88"/>
<polygon fill="midnightblue" stroke="midnightblue" points="161.35,-51.01 170.82,-46.26 160.46,-44.07 161.35,-51.01"/>
</g>
<!-- Node3 -->
<g id="node3" class="node">
<title>Node3</title>
<g id="a_node3"><a xlink:href="classv8_1_1TracedReference.html#a37604b0cb2ec940aa603ee6b7e0a5bc1" target="_top" xlink:title=" ">
<polygon fill="white" stroke="black" points="14.5,-0.5 14.5,-30.5 120.5,-30.5 120.5,-0.5 14.5,-0.5"/>
<text text-anchor="start" x="22.5" y="-18.5" font-family="Helvetica,sans-Serif" font-size="10.00">v8::TracedReference</text>
<text text-anchor="middle" x="67.5" y="-7.5" font-family="Helvetica,sans-Serif" font-size="10.00">::operator=</text>
</a>
</g>
</g>
<!-- Node1&#45;&gt;Node3 -->
<g id="edge2" class="edge">
<title>Node1&#45;&gt;Node3</title>
<path fill="none" stroke="midnightblue" d="M160.57,-27.42C147.08,-25.67 133.35,-23.89 120.75,-22.26"/>
<polygon fill="midnightblue" stroke="midnightblue" points="160.46,-30.93 170.82,-28.74 161.35,-23.99 160.46,-30.93"/>
</g>
</g>
</svg>
