<?xml version="1.0" encoding="UTF-8" standalone="no"?>
<!DOCTYPE svg PUBLIC "-//W3C//DTD SVG 1.1//EN"
 "http://www.w3.org/Graphics/SVG/1.1/DTD/svg11.dtd">
<!-- Generated by graphviz version 2.49.3 (20211027.1534)
 -->
<!-- Title: include/v8&#45;profiler.h Pages: 1 -->
<svg width="759pt" height="252pt"
 viewBox="0.00 0.00 759.00 252.00" xmlns="http://www.w3.org/2000/svg" xmlns:xlink="http://www.w3.org/1999/xlink">
<g id="graph0" class="graph" transform="scale(1 1) rotate(0) translate(4 248)">
<title>include/v8&#45;profiler.h</title>
<polygon fill="white" stroke="transparent" points="-4,4 -4,-248 755,-248 755,4 -4,4"/>
<!-- Node1 -->
<g id="node1" class="node">
<title>Node1</title>
<g id="a_node1"><a xlink:title=" ">
<polygon fill="#bfbfbf" stroke="black" points="202.5,-224.5 202.5,-243.5 302.5,-243.5 302.5,-224.5 202.5,-224.5"/>
<text text-anchor="middle" x="252.5" y="-231.5" font-family="Helvetica,sans-Serif" font-size="10.00">include/v8&#45;profiler.h</text>
</a>
</g>
</g>
<!-- Node2 -->
<g id="node2" class="node">
<title>Node2</title>
<g id="a_node2"><a xlink:title=" ">
<polygon fill="white" stroke="#bfbfbf" points="0,-168.5 0,-187.5 47,-187.5 47,-168.5 0,-168.5"/>
<text text-anchor="middle" x="23.5" y="-175.5" font-family="Helvetica,sans-Serif" font-size="10.00">limits.h</text>
</a>
</g>
</g>
<!-- Node1&#45;&gt;Node2 -->
<g id="edge1" class="edge">
<title>Node1&#45;&gt;Node2</title>
<path fill="none" stroke="midnightblue" d="M212.37,-224.44C174.56,-216.25 116.13,-203.23 57.09,-188.32"/>
<polygon fill="midnightblue" stroke="midnightblue" points="57.78,-184.89 47.23,-185.82 56.06,-191.67 57.78,-184.89"/>
</g>
<!-- Node3 -->
<g id="node3" class="node">
<title>Node3</title>
<g id="a_node3"><a xlink:title=" ">
<polygon fill="white" stroke="#bfbfbf" points="65,-168.5 65,-187.5 116,-187.5 116,-168.5 65,-168.5"/>
<text text-anchor="middle" x="90.5" y="-175.5" font-family="Helvetica,sans-Serif" font-size="10.00">memory</text>
</a>
</g>
</g>
<!-- Node1&#45;&gt;Node3 -->
<g id="edge2" class="edge">
<title>Node1&#45;&gt;Node3</title>
<path fill="none" stroke="midnightblue" d="M226.83,-224.44C199.58,-215.36 156.32,-200.94 125.85,-190.78"/>
<polygon fill="midnightblue" stroke="midnightblue" points="126.64,-187.36 116.05,-187.52 124.43,-194 126.64,-187.36"/>
</g>
<!-- Node4 -->
<g id="node4" class="node">
<title>Node4</title>
<g id="a_node4"><a xlink:title=" ">
<polygon fill="white" stroke="#bfbfbf" points="134.5,-168.5 134.5,-187.5 212.5,-187.5 212.5,-168.5 134.5,-168.5"/>
<text text-anchor="middle" x="173.5" y="-175.5" font-family="Helvetica,sans-Serif" font-size="10.00">unordered_set</text>
</a>
</g>
</g>
<!-- Node1&#45;&gt;Node4 -->
<g id="edge3" class="edge">
<title>Node1&#45;&gt;Node4</title>
<path fill="none" stroke="midnightblue" d="M239.81,-224.32C227.6,-215.98 208.92,-203.21 194.5,-193.35"/>
<polygon fill="midnightblue" stroke="midnightblue" points="196.39,-190.41 186.16,-187.65 192.44,-196.19 196.39,-190.41"/>
</g>
<!-- Node5 -->
<g id="node5" class="node">
<title>Node5</title>
<g id="a_node5"><a xlink:title=" ">
<polygon fill="white" stroke="#bfbfbf" points="230.5,-168.5 230.5,-187.5 274.5,-187.5 274.5,-168.5 230.5,-168.5"/>
<text text-anchor="middle" x="252.5" y="-175.5" font-family="Helvetica,sans-Serif" font-size="10.00">vector</text>
</a>
</g>
</g>
<!-- Node1&#45;&gt;Node5 -->
<g id="edge4" class="edge">
<title>Node1&#45;&gt;Node5</title>
<path fill="none" stroke="midnightblue" d="M252.5,-224.08C252.5,-217.01 252.5,-206.86 252.5,-197.99"/>
<polygon fill="midnightblue" stroke="midnightblue" points="256,-197.75 252.5,-187.75 249,-197.75 256,-197.75"/>
</g>
<!-- Node6 -->
<g id="node6" class="node">
<title>Node6</title>
<g id="a_node6"><a xlink:href="v8-local-handle_8h.html" target="_top" xlink:title=" ">
<polygon fill="white" stroke="black" points="245,-112.5 245,-131.5 334,-131.5 334,-112.5 245,-112.5"/>
<text text-anchor="middle" x="289.5" y="-119.5" font-family="Helvetica,sans-Serif" font-size="10.00">v8&#45;local&#45;handle.h</text>
</a>
</g>
</g>
<!-- Node1&#45;&gt;Node6 -->
<g id="edge5" class="edge">
<title>Node1&#45;&gt;Node6</title>
<path fill="none" stroke="midnightblue" d="M260.41,-224.46C267.78,-215.93 278.39,-202.09 283.5,-188 288.87,-173.17 290.18,-155.24 290.25,-141.98"/>
<polygon fill="midnightblue" stroke="midnightblue" points="293.74,-141.65 290.07,-131.71 286.74,-141.78 293.74,-141.65"/>
</g>
<!-- Node14 -->
<g id="node14" class="node">
<title>Node14</title>
<g id="a_node14"><a xlink:href="v8-message_8h.html" target="_top" xlink:title=" ">
<polygon fill="white" stroke="black" points="545,-168.5 545,-187.5 622,-187.5 622,-168.5 545,-168.5"/>
<text text-anchor="middle" x="583.5" y="-175.5" font-family="Helvetica,sans-Serif" font-size="10.00">v8&#45;message.h</text>
</a>
</g>
</g>
<!-- Node1&#45;&gt;Node14 -->
<g id="edge15" class="edge">
<title>Node1&#45;&gt;Node14</title>
<path fill="none" stroke="midnightblue" d="M302.77,-224.8C365.64,-214.54 472.56,-197.1 534.73,-186.96"/>
<polygon fill="midnightblue" stroke="midnightblue" points="535.37,-190.4 544.68,-185.33 534.24,-183.49 535.37,-190.4"/>
</g>
<!-- Node18 -->
<g id="node18" class="node">
<title>Node18</title>
<g id="a_node18"><a xlink:href="v8-persistent-handle_8h.html" target="_top" xlink:title=" ">
<polygon fill="white" stroke="black" points="330.5,-168.5 330.5,-187.5 442.5,-187.5 442.5,-168.5 330.5,-168.5"/>
<text text-anchor="middle" x="386.5" y="-175.5" font-family="Helvetica,sans-Serif" font-size="10.00">v8&#45;persistent&#45;handle.h</text>
</a>
</g>
</g>
<!-- Node1&#45;&gt;Node18 -->
<g id="edge23" class="edge">
<title>Node1&#45;&gt;Node18</title>
<path fill="none" stroke="midnightblue" d="M273.73,-224.44C295.88,-215.52 330.82,-201.44 355.94,-191.32"/>
<polygon fill="midnightblue" stroke="midnightblue" points="357.4,-194.5 365.37,-187.52 354.78,-188.01 357.4,-194.5"/>
</g>
<!-- Node7 -->
<g id="node7" class="node">
<title>Node7</title>
<g id="a_node7"><a xlink:title=" ">
<polygon fill="white" stroke="#bfbfbf" points="238,-0.5 238,-19.5 289,-19.5 289,-0.5 238,-0.5"/>
<text text-anchor="middle" x="263.5" y="-7.5" font-family="Helvetica,sans-Serif" font-size="10.00">stddef.h</text>
</a>
</g>
</g>
<!-- Node6&#45;&gt;Node7 -->
<g id="edge6" class="edge">
<title>Node6&#45;&gt;Node7</title>
<path fill="none" stroke="midnightblue" d="M287.46,-112.37C283.26,-94.62 273.58,-53.67 267.9,-29.6"/>
<polygon fill="midnightblue" stroke="midnightblue" points="271.24,-28.52 265.53,-19.59 264.42,-30.13 271.24,-28.52"/>
</g>
<!-- Node8 -->
<g id="node8" class="node">
<title>Node8</title>
<g id="a_node8"><a xlink:title=" ">
<polygon fill="white" stroke="#bfbfbf" points="157.5,-0.5 157.5,-19.5 219.5,-19.5 219.5,-0.5 157.5,-0.5"/>
<text text-anchor="middle" x="188.5" y="-7.5" font-family="Helvetica,sans-Serif" font-size="10.00">type_traits</text>
</a>
</g>
</g>
<!-- Node6&#45;&gt;Node8 -->
<g id="edge7" class="edge">
<title>Node6&#45;&gt;Node8</title>
<path fill="none" stroke="midnightblue" d="M281.57,-112.37C264.69,-93.97 224.93,-50.67 203.24,-27.05"/>
<polygon fill="midnightblue" stroke="midnightblue" points="205.73,-24.59 196.39,-19.59 200.57,-29.32 205.73,-24.59"/>
</g>
<!-- Node9 -->
<g id="node9" class="node">
<title>Node9</title>
<g id="a_node9"><a xlink:href="v8-internal_8h.html" target="_top" xlink:title=" ">
<polygon fill="white" stroke="black" points="303,-56.5 303,-75.5 372,-75.5 372,-56.5 303,-56.5"/>
<text text-anchor="middle" x="337.5" y="-63.5" font-family="Helvetica,sans-Serif" font-size="10.00">v8&#45;internal.h</text>
</a>
</g>
</g>
<!-- Node6&#45;&gt;Node9 -->
<g id="edge8" class="edge">
<title>Node6&#45;&gt;Node9</title>
<path fill="none" stroke="midnightblue" d="M297.43,-112.08C304.35,-104.3 314.57,-92.8 322.95,-83.37"/>
<polygon fill="midnightblue" stroke="midnightblue" points="325.69,-85.55 329.72,-75.75 320.46,-80.9 325.69,-85.55"/>
</g>
<!-- Node9&#45;&gt;Node7 -->
<g id="edge9" class="edge">
<title>Node9&#45;&gt;Node7</title>
<path fill="none" stroke="midnightblue" d="M325.61,-56.32C314.35,-48.11 297.21,-35.6 283.79,-25.81"/>
<polygon fill="midnightblue" stroke="midnightblue" points="285.75,-22.9 275.61,-19.83 281.62,-28.56 285.75,-22.9"/>
</g>
<!-- Node9&#45;&gt;Node8 -->
<g id="edge12" class="edge">
<title>Node9&#45;&gt;Node8</title>
<path fill="none" stroke="midnightblue" d="M313.89,-56.44C289.04,-47.44 249.73,-33.19 221.75,-23.05"/>
<polygon fill="midnightblue" stroke="midnightblue" points="222.59,-19.63 212,-19.52 220.21,-26.21 222.59,-19.63"/>
</g>
<!-- Node10 -->
<g id="node10" class="node">
<title>Node10</title>
<g id="a_node10"><a xlink:title=" ">
<polygon fill="white" stroke="#bfbfbf" points="394.5,-0.5 394.5,-19.5 442.5,-19.5 442.5,-0.5 394.5,-0.5"/>
<text text-anchor="middle" x="418.5" y="-7.5" font-family="Helvetica,sans-Serif" font-size="10.00">stdint.h</text>
</a>
</g>
</g>
<!-- Node9&#45;&gt;Node10 -->
<g id="edge10" class="edge">
<title>Node9&#45;&gt;Node10</title>
<path fill="none" stroke="midnightblue" d="M350.51,-56.32C363.03,-47.98 382.18,-35.21 396.97,-25.35"/>
<polygon fill="midnightblue" stroke="midnightblue" points="399.14,-28.11 405.52,-19.65 395.26,-22.29 399.14,-28.11"/>
</g>
<!-- Node11 -->
<g id="node11" class="node">
<title>Node11</title>
<g id="a_node11"><a xlink:title=" ">
<polygon fill="white" stroke="#bfbfbf" points="460.5,-0.5 460.5,-19.5 508.5,-19.5 508.5,-0.5 460.5,-0.5"/>
<text text-anchor="middle" x="484.5" y="-7.5" font-family="Helvetica,sans-Serif" font-size="10.00">string.h</text>
</a>
</g>
</g>
<!-- Node9&#45;&gt;Node11 -->
<g id="edge11" class="edge">
<title>Node9&#45;&gt;Node11</title>
<path fill="none" stroke="midnightblue" d="M360.79,-56.44C385.31,-47.44 424.1,-33.19 451.7,-23.05"/>
<polygon fill="midnightblue" stroke="midnightblue" points="453.14,-26.25 461.32,-19.52 450.72,-19.68 453.14,-26.25"/>
</g>
<!-- Node12 -->
<g id="node12" class="node">
<title>Node12</title>
<g id="a_node12"><a xlink:href="v8-version_8h.html" target="_top" xlink:title=" ">
<polygon fill="white" stroke="black" points="307,-0.5 307,-19.5 376,-19.5 376,-0.5 307,-0.5"/>
<text text-anchor="middle" x="341.5" y="-7.5" font-family="Helvetica,sans-Serif" font-size="10.00">v8&#45;version.h</text>
</a>
</g>
</g>
<!-- Node9&#45;&gt;Node12 -->
<g id="edge13" class="edge">
<title>Node9&#45;&gt;Node12</title>
<path fill="none" stroke="midnightblue" d="M338.16,-56.08C338.68,-49.01 339.44,-38.86 340.09,-29.99"/>
<polygon fill="midnightblue" stroke="midnightblue" points="343.6,-29.98 340.85,-19.75 336.62,-29.47 343.6,-29.98"/>
</g>
<!-- Node13 -->
<g id="node13" class="node">
<title>Node13</title>
<g id="a_node13"><a xlink:href="v8config_8h.html" target="_top" xlink:title=" ">
<polygon fill="white" stroke="black" points="526.5,-0.5 526.5,-19.5 586.5,-19.5 586.5,-0.5 526.5,-0.5"/>
<text text-anchor="middle" x="556.5" y="-7.5" font-family="Helvetica,sans-Serif" font-size="10.00">v8config.h</text>
</a>
</g>
</g>
<!-- Node9&#45;&gt;Node13 -->
<g id="edge14" class="edge">
<title>Node9&#45;&gt;Node13</title>
<path fill="none" stroke="midnightblue" d="M372.2,-56.44C411.42,-46.77 475.17,-31.05 516.46,-20.87"/>
<polygon fill="midnightblue" stroke="midnightblue" points="517.32,-24.27 526.19,-18.47 515.65,-17.47 517.32,-24.27"/>
</g>
<!-- Node14&#45;&gt;Node6 -->
<g id="edge18" class="edge">
<title>Node14&#45;&gt;Node6</title>
<path fill="none" stroke="midnightblue" d="M544.76,-169.88C493.43,-160.46 402.56,-143.77 344.23,-133.05"/>
<polygon fill="midnightblue" stroke="midnightblue" points="344.56,-129.56 334.1,-131.19 343.3,-136.44 344.56,-129.56"/>
</g>
<!-- Node14&#45;&gt;Node13 -->
<g id="edge22" class="edge">
<title>Node14&#45;&gt;Node13</title>
<path fill="none" stroke="midnightblue" d="M587.21,-168.17C591.98,-155.66 599.24,-132.08 595.5,-112 589.81,-81.47 575.22,-48.28 565.59,-28.58"/>
<polygon fill="midnightblue" stroke="midnightblue" points="568.69,-26.96 561.08,-19.59 562.44,-30.1 568.69,-26.96"/>
</g>
<!-- Node15 -->
<g id="node15" class="node">
<title>Node15</title>
<g id="a_node15"><a xlink:title=" ">
<polygon fill="white" stroke="#bfbfbf" points="643,-112.5 643,-131.5 688,-131.5 688,-112.5 643,-112.5"/>
<text text-anchor="middle" x="665.5" y="-119.5" font-family="Helvetica,sans-Serif" font-size="10.00">stdio.h</text>
</a>
</g>
</g>
<!-- Node14&#45;&gt;Node15 -->
<g id="edge16" class="edge">
<title>Node14&#45;&gt;Node15</title>
<path fill="none" stroke="midnightblue" d="M596.67,-168.32C609.35,-159.98 628.73,-147.21 643.71,-137.35"/>
<polygon fill="midnightblue" stroke="midnightblue" points="645.93,-140.08 652.36,-131.65 642.08,-134.23 645.93,-140.08"/>
</g>
<!-- Node16 -->
<g id="node16" class="node">
<title>Node16</title>
<g id="a_node16"><a xlink:title=" ">
<polygon fill="white" stroke="#bfbfbf" points="706,-112.5 706,-131.5 751,-131.5 751,-112.5 706,-112.5"/>
<text text-anchor="middle" x="728.5" y="-119.5" font-family="Helvetica,sans-Serif" font-size="10.00">iosfwd</text>
</a>
</g>
</g>
<!-- Node14&#45;&gt;Node16 -->
<g id="edge17" class="edge">
<title>Node14&#45;&gt;Node16</title>
<path fill="none" stroke="midnightblue" d="M606.48,-168.44C630.66,-159.44 668.92,-145.19 696.15,-135.05"/>
<polygon fill="midnightblue" stroke="midnightblue" points="697.48,-138.29 705.63,-131.52 695.04,-131.73 697.48,-138.29"/>
</g>
<!-- Node17 -->
<g id="node17" class="node">
<title>Node17</title>
<g id="a_node17"><a xlink:href="v8-maybe_8h.html" target="_top" xlink:title=" ">
<polygon fill="white" stroke="black" points="520.5,-112.5 520.5,-131.5 586.5,-131.5 586.5,-112.5 520.5,-112.5"/>
<text text-anchor="middle" x="553.5" y="-119.5" font-family="Helvetica,sans-Serif" font-size="10.00">v8&#45;maybe.h</text>
</a>
</g>
</g>
<!-- Node14&#45;&gt;Node17 -->
<g id="edge19" class="edge">
<title>Node14&#45;&gt;Node17</title>
<path fill="none" stroke="midnightblue" d="M578.55,-168.08C574.4,-160.61 568.35,-149.72 563.23,-140.52"/>
<polygon fill="midnightblue" stroke="midnightblue" points="566.28,-138.79 558.36,-131.75 560.16,-142.19 566.28,-138.79"/>
</g>
<!-- Node17&#45;&gt;Node9 -->
<g id="edge20" class="edge">
<title>Node17&#45;&gt;Node9</title>
<path fill="none" stroke="midnightblue" d="M520.22,-112.68C482.94,-103.36 422.36,-88.22 381.27,-77.94"/>
<polygon fill="midnightblue" stroke="midnightblue" points="382.08,-74.54 371.53,-75.51 380.38,-81.33 382.08,-74.54"/>
</g>
<!-- Node17&#45;&gt;Node13 -->
<g id="edge21" class="edge">
<title>Node17&#45;&gt;Node13</title>
<path fill="none" stroke="midnightblue" d="M554.49,-112.39C555.48,-103.34 556.94,-88.69 557.5,-76 558.19,-60.48 557.85,-42.85 557.38,-29.87"/>
<polygon fill="midnightblue" stroke="midnightblue" points="560.88,-29.68 556.97,-19.84 553.89,-29.97 560.88,-29.68"/>
</g>
<!-- Node18&#45;&gt;Node6 -->
<g id="edge25" class="edge">
<title>Node18&#45;&gt;Node6</title>
<path fill="none" stroke="midnightblue" d="M370.92,-168.32C355.5,-159.74 331.69,-146.49 313.79,-136.52"/>
<polygon fill="midnightblue" stroke="midnightblue" points="315.49,-133.46 305.05,-131.65 312.08,-139.58 315.49,-133.46"/>
</g>
<!-- Node18&#45;&gt;Node9 -->
<g id="edge24" class="edge">
<title>Node18&#45;&gt;Node9</title>
<path fill="none" stroke="midnightblue" d="M382.66,-168.37C374.68,-150.46 356.17,-108.92 345.5,-84.95"/>
<polygon fill="midnightblue" stroke="midnightblue" points="348.59,-83.3 341.33,-75.59 342.2,-86.15 348.59,-83.3"/>
</g>
<!-- Node18&#45;&gt;Node13 -->
<g id="edge28" class="edge">
<title>Node18&#45;&gt;Node13</title>
<path fill="none" stroke="midnightblue" d="M386.33,-168.36C386.39,-146.48 389.6,-88.34 420.5,-56 427.38,-48.8 478.9,-32.99 516.5,-22.17"/>
<polygon fill="midnightblue" stroke="midnightblue" points="517.55,-25.51 526.2,-19.39 515.63,-18.78 517.55,-25.51"/>
</g>
<!-- Node19 -->
<g id="node19" class="node">
<title>Node19</title>
<g id="a_node19"><a xlink:href="v8-weak-callback-info_8h.html" target="_top" xlink:title=" ">
<polygon fill="white" stroke="black" points="429,-56.5 429,-75.5 548,-75.5 548,-56.5 429,-56.5"/>
<text text-anchor="middle" x="488.5" y="-63.5" font-family="Helvetica,sans-Serif" font-size="10.00">v8&#45;weak&#45;callback&#45;info.h</text>
</a>
</g>
</g>
<!-- Node18&#45;&gt;Node19 -->
<g id="edge26" class="edge">
<title>Node18&#45;&gt;Node19</title>
<path fill="none" stroke="midnightblue" d="M394.5,-168.37C411.56,-149.97 451.71,-106.67 473.62,-83.05"/>
<polygon fill="midnightblue" stroke="midnightblue" points="476.3,-85.3 480.53,-75.59 471.17,-80.54 476.3,-85.3"/>
</g>
<!-- Node19&#45;&gt;Node13 -->
<g id="edge27" class="edge">
<title>Node19&#45;&gt;Node13</title>
<path fill="none" stroke="midnightblue" d="M499.43,-56.32C509.67,-48.18 525.22,-35.84 537.5,-26.09"/>
<polygon fill="midnightblue" stroke="midnightblue" points="539.72,-28.79 545.38,-19.83 535.37,-23.31 539.72,-28.79"/>
</g>
</g>
</svg>
