<?xml version="1.0" encoding="UTF-8" standalone="no"?>
<!DOCTYPE svg PUBLIC "-//W3C//DTD SVG 1.1//EN"
 "http://www.w3.org/Graphics/SVG/1.1/DTD/svg11.dtd">
<!-- Generated by graphviz version 2.49.3 (20211027.1534)
 -->
<!-- Title: include/v8&#45;snapshot.h Pages: 1 -->
<svg width="443pt" height="196pt"
 viewBox="0.00 0.00 443.00 196.00" xmlns="http://www.w3.org/2000/svg" xmlns:xlink="http://www.w3.org/1999/xlink">
<g id="graph0" class="graph" transform="scale(1 1) rotate(0) translate(4 192)">
<title>include/v8&#45;snapshot.h</title>
<polygon fill="white" stroke="transparent" points="-4,4 -4,-192 439,-192 439,4 -4,4"/>
<!-- Node1 -->
<g id="node1" class="node">
<title>Node1</title>
<g id="a_node1"><a xlink:title=" ">
<polygon fill="#bfbfbf" stroke="black" points="86.5,-168.5 86.5,-187.5 197.5,-187.5 197.5,-168.5 86.5,-168.5"/>
<text text-anchor="middle" x="142" y="-175.5" font-family="Helvetica,sans-Serif" font-size="10.00">include/v8&#45;snapshot.h</text>
</a>
</g>
</g>
<!-- Node2 -->
<g id="node2" class="node">
<title>Node2</title>
<g id="a_node2"><a xlink:title=" ">
<polygon fill="white" stroke="#bfbfbf" points="0,-112.5 0,-131.5 44,-131.5 44,-112.5 0,-112.5"/>
<text text-anchor="middle" x="22" y="-119.5" font-family="Helvetica,sans-Serif" font-size="10.00">vector</text>
</a>
</g>
</g>
<!-- Node1&#45;&gt;Node2 -->
<g id="edge1" class="edge">
<title>Node1&#45;&gt;Node2</title>
<path fill="none" stroke="midnightblue" d="M122.99,-168.44C103.41,-159.64 72.69,-145.81 50.27,-135.72"/>
<polygon fill="midnightblue" stroke="midnightblue" points="51.48,-132.43 40.93,-131.52 48.61,-138.81 51.48,-132.43"/>
</g>
<!-- Node3 -->
<g id="node3" class="node">
<title>Node3</title>
<g id="a_node3"><a xlink:href="v8-internal_8h.html" target="_top" xlink:title=" ">
<polygon fill="white" stroke="black" points="144.5,-56.5 144.5,-75.5 213.5,-75.5 213.5,-56.5 144.5,-56.5"/>
<text text-anchor="middle" x="179" y="-63.5" font-family="Helvetica,sans-Serif" font-size="10.00">v8&#45;internal.h</text>
</a>
</g>
</g>
<!-- Node1&#45;&gt;Node3 -->
<g id="edge2" class="edge">
<title>Node1&#45;&gt;Node3</title>
<path fill="none" stroke="midnightblue" d="M145.42,-168.43C148.97,-159.42 154.62,-144.8 159,-132 164.32,-116.47 169.76,-98.63 173.62,-85.57"/>
<polygon fill="midnightblue" stroke="midnightblue" points="177.01,-86.47 176.46,-75.89 170.29,-84.5 177.01,-86.47"/>
</g>
<!-- Node9 -->
<g id="node9" class="node">
<title>Node9</title>
<g id="a_node9"><a xlink:href="v8config_8h.html" target="_top" xlink:title=" ">
<polygon fill="white" stroke="black" points="375,-0.5 375,-19.5 435,-19.5 435,-0.5 375,-0.5"/>
<text text-anchor="middle" x="405" y="-7.5" font-family="Helvetica,sans-Serif" font-size="10.00">v8config.h</text>
</a>
</g>
</g>
<!-- Node1&#45;&gt;Node9 -->
<g id="edge13" class="edge">
<title>Node1&#45;&gt;Node9</title>
<path fill="none" stroke="midnightblue" d="M155.77,-168.31C198.64,-141.25 330.02,-58.32 382.76,-25.04"/>
<polygon fill="midnightblue" stroke="midnightblue" points="384.78,-27.9 391.37,-19.61 381.04,-21.98 384.78,-27.9"/>
</g>
<!-- Node10 -->
<g id="node10" class="node">
<title>Node10</title>
<g id="a_node10"><a xlink:href="v8-local-handle_8h.html" target="_top" xlink:title=" ">
<polygon fill="white" stroke="black" points="61.5,-112.5 61.5,-131.5 150.5,-131.5 150.5,-112.5 61.5,-112.5"/>
<text text-anchor="middle" x="106" y="-119.5" font-family="Helvetica,sans-Serif" font-size="10.00">v8&#45;local&#45;handle.h</text>
</a>
</g>
</g>
<!-- Node1&#45;&gt;Node10 -->
<g id="edge9" class="edge">
<title>Node1&#45;&gt;Node10</title>
<path fill="none" stroke="midnightblue" d="M136.06,-168.08C131.02,-160.53 123.66,-149.49 117.49,-140.23"/>
<polygon fill="midnightblue" stroke="midnightblue" points="120.29,-138.13 111.83,-131.75 114.47,-142.01 120.29,-138.13"/>
</g>
<!-- Node4 -->
<g id="node4" class="node">
<title>Node4</title>
<g id="a_node4"><a xlink:title=" ">
<polygon fill="white" stroke="#bfbfbf" points="5.5,-0.5 5.5,-19.5 56.5,-19.5 56.5,-0.5 5.5,-0.5"/>
<text text-anchor="middle" x="31" y="-7.5" font-family="Helvetica,sans-Serif" font-size="10.00">stddef.h</text>
</a>
</g>
</g>
<!-- Node3&#45;&gt;Node4 -->
<g id="edge3" class="edge">
<title>Node3&#45;&gt;Node4</title>
<path fill="none" stroke="midnightblue" d="M155.55,-56.44C130.87,-47.44 91.81,-33.19 64.02,-23.05"/>
<polygon fill="midnightblue" stroke="midnightblue" points="64.94,-19.66 54.34,-19.52 62.54,-26.23 64.94,-19.66"/>
</g>
<!-- Node5 -->
<g id="node5" class="node">
<title>Node5</title>
<g id="a_node5"><a xlink:title=" ">
<polygon fill="white" stroke="#bfbfbf" points="155,-0.5 155,-19.5 203,-19.5 203,-0.5 155,-0.5"/>
<text text-anchor="middle" x="179" y="-7.5" font-family="Helvetica,sans-Serif" font-size="10.00">stdint.h</text>
</a>
</g>
</g>
<!-- Node3&#45;&gt;Node5 -->
<g id="edge4" class="edge">
<title>Node3&#45;&gt;Node5</title>
<path fill="none" stroke="midnightblue" d="M179,-56.08C179,-49.01 179,-38.86 179,-29.99"/>
<polygon fill="midnightblue" stroke="midnightblue" points="182.5,-29.75 179,-19.75 175.5,-29.75 182.5,-29.75"/>
</g>
<!-- Node6 -->
<g id="node6" class="node">
<title>Node6</title>
<g id="a_node6"><a xlink:title=" ">
<polygon fill="white" stroke="#bfbfbf" points="221,-0.5 221,-19.5 269,-19.5 269,-0.5 221,-0.5"/>
<text text-anchor="middle" x="245" y="-7.5" font-family="Helvetica,sans-Serif" font-size="10.00">string.h</text>
</a>
</g>
</g>
<!-- Node3&#45;&gt;Node6 -->
<g id="edge5" class="edge">
<title>Node3&#45;&gt;Node6</title>
<path fill="none" stroke="midnightblue" d="M189.6,-56.32C199.46,-48.26 214.35,-36.08 226.22,-26.37"/>
<polygon fill="midnightblue" stroke="midnightblue" points="228.68,-28.88 234.2,-19.83 224.25,-23.46 228.68,-28.88"/>
</g>
<!-- Node7 -->
<g id="node7" class="node">
<title>Node7</title>
<g id="a_node7"><a xlink:title=" ">
<polygon fill="white" stroke="#bfbfbf" points="75,-0.5 75,-19.5 137,-19.5 137,-0.5 75,-0.5"/>
<text text-anchor="middle" x="106" y="-7.5" font-family="Helvetica,sans-Serif" font-size="10.00">type_traits</text>
</a>
</g>
</g>
<!-- Node3&#45;&gt;Node7 -->
<g id="edge6" class="edge">
<title>Node3&#45;&gt;Node7</title>
<path fill="none" stroke="midnightblue" d="M167.27,-56.32C156.16,-48.11 139.26,-35.6 126.02,-25.81"/>
<polygon fill="midnightblue" stroke="midnightblue" points="128.06,-22.97 117.94,-19.83 123.9,-28.59 128.06,-22.97"/>
</g>
<!-- Node8 -->
<g id="node8" class="node">
<title>Node8</title>
<g id="a_node8"><a xlink:href="v8-version_8h.html" target="_top" xlink:title=" ">
<polygon fill="white" stroke="black" points="287.5,-0.5 287.5,-19.5 356.5,-19.5 356.5,-0.5 287.5,-0.5"/>
<text text-anchor="middle" x="322" y="-7.5" font-family="Helvetica,sans-Serif" font-size="10.00">v8&#45;version.h</text>
</a>
</g>
</g>
<!-- Node3&#45;&gt;Node8 -->
<g id="edge7" class="edge">
<title>Node3&#45;&gt;Node8</title>
<path fill="none" stroke="midnightblue" d="M201.66,-56.44C225.4,-47.48 262.91,-33.31 289.74,-23.18"/>
<polygon fill="midnightblue" stroke="midnightblue" points="291.33,-26.32 299.45,-19.52 288.86,-19.77 291.33,-26.32"/>
</g>
<!-- Node3&#45;&gt;Node9 -->
<g id="edge8" class="edge">
<title>Node3&#45;&gt;Node9</title>
<path fill="none" stroke="midnightblue" d="M213.82,-56.68C254.62,-46.93 322.11,-30.8 365.03,-20.55"/>
<polygon fill="midnightblue" stroke="midnightblue" points="365.93,-23.93 374.85,-18.2 364.31,-17.12 365.93,-23.93"/>
</g>
<!-- Node10&#45;&gt;Node3 -->
<g id="edge12" class="edge">
<title>Node10&#45;&gt;Node3</title>
<path fill="none" stroke="midnightblue" d="M117.73,-112.32C128.84,-104.11 145.74,-91.6 158.98,-81.81"/>
<polygon fill="midnightblue" stroke="midnightblue" points="161.1,-84.59 167.06,-75.83 156.94,-78.97 161.1,-84.59"/>
</g>
<!-- Node10&#45;&gt;Node4 -->
<g id="edge10" class="edge">
<title>Node10&#45;&gt;Node4</title>
<path fill="none" stroke="midnightblue" d="M100.11,-112.37C87.74,-94.22 58.82,-51.8 42.58,-27.99"/>
<polygon fill="midnightblue" stroke="midnightblue" points="45.38,-25.88 36.86,-19.59 39.6,-29.83 45.38,-25.88"/>
</g>
<!-- Node10&#45;&gt;Node7 -->
<g id="edge11" class="edge">
<title>Node10&#45;&gt;Node7</title>
<path fill="none" stroke="midnightblue" d="M106,-112.37C106,-94.62 106,-53.67 106,-29.6"/>
<polygon fill="midnightblue" stroke="midnightblue" points="109.5,-29.59 106,-19.59 102.5,-29.59 109.5,-29.59"/>
</g>
</g>
</svg>
