<?xml version="1.0" encoding="UTF-8" standalone="no"?>
<!DOCTYPE svg PUBLIC "-//W3C//DTD SVG 1.1//EN"
 "http://www.w3.org/Graphics/SVG/1.1/DTD/svg11.dtd">
<!-- Generated by graphviz version 8.0.5 (20230430.1635)
 -->
<!-- Title: include/cppgc/internal/conditional&#45;stack&#45;allocated.h Pages: 1 -->
<svg width="328pt" height="271pt"
 viewBox="0.00 0.00 327.75 270.75" xmlns="http://www.w3.org/2000/svg" xmlns:xlink="http://www.w3.org/1999/xlink">
<g id="graph0" class="graph" transform="scale(1 1) rotate(0) translate(4 266.75)">
<title>include/cppgc/internal/conditional&#45;stack&#45;allocated.h</title>
<!-- Node1 -->
<g id="node1" class="node">
<title>Node1</title>
<g id="a_node1"><a xlink:title=" ">
<polygon fill="#999999" stroke="#666666" points="173.5,-262.75 31.5,-262.75 31.5,-232.25 173.5,-232.25 173.5,-262.75"/>
<text text-anchor="start" x="39.5" y="-249.25" font-family="Helvetica,sans-Serif" font-size="10.00">include/cppgc/internal</text>
<text text-anchor="middle" x="102.5" y="-238" font-family="Helvetica,sans-Serif" font-size="10.00">/conditional&#45;stack&#45;allocated.h</text>
</a>
</g>
</g>
<!-- Node2 -->
<g id="node2" class="node">
<title>Node2</title>
<g id="a_node2"><a xlink:title=" ">
<polygon fill="#e0e0e0" stroke="#999999" points="61,-135.38 0,-135.38 0,-116.12 61,-116.12 61,-135.38"/>
<text text-anchor="middle" x="30.5" y="-121.88" font-family="Helvetica,sans-Serif" font-size="10.00">type_traits</text>
</a>
</g>
</g>
<!-- Node1&#45;&gt;Node2 -->
<g id="edge1" class="edge">
<title>Node1&#45;&gt;Node2</title>
<path fill="none" stroke="#63b8ff" d="M79.84,-231.88C67.85,-222.99 53.91,-210.59 45.5,-196.25 36.52,-180.94 32.9,-160.91 31.45,-146.29"/>
<polygon fill="#63b8ff" stroke="#63b8ff" points="34.88,-146.22 30.67,-136.5 27.9,-146.73 34.88,-146.22"/>
</g>
<!-- Node3 -->
<g id="node3" class="node">
<title>Node3</title>
<g id="a_node3"><a xlink:href="macros_8h.html" target="_top" xlink:title=" ">
<polygon fill="white" stroke="#666666" points="253,-196.25 168,-196.25 168,-177 253,-177 253,-196.25"/>
<text text-anchor="middle" x="210.5" y="-182.75" font-family="Helvetica,sans-Serif" font-size="10.00">cppgc/macros.h</text>
</a>
</g>
</g>
<!-- Node1&#45;&gt;Node3 -->
<g id="edge2" class="edge">
<title>Node1&#45;&gt;Node3</title>
<path fill="none" stroke="#63b8ff" d="M129.47,-231.8C146.24,-222.66 167.68,-210.97 184.3,-201.91"/>
<polygon fill="#63b8ff" stroke="#63b8ff" points="185.83,-204.51 192.94,-196.65 182.48,-198.37 185.83,-204.51"/>
</g>
<!-- Node8 -->
<g id="node8" class="node">
<title>Node8</title>
<g id="a_node8"><a xlink:href="type-traits_8h.html" target="_top" xlink:title=" ">
<polygon fill="white" stroke="#666666" points="150.25,-196.25 54.75,-196.25 54.75,-177 150.25,-177 150.25,-196.25"/>
<text text-anchor="middle" x="102.5" y="-182.75" font-family="Helvetica,sans-Serif" font-size="10.00">cppgc/type&#45;traits.h</text>
</a>
</g>
</g>
<!-- Node1&#45;&gt;Node8 -->
<g id="edge7" class="edge">
<title>Node1&#45;&gt;Node8</title>
<path fill="none" stroke="#63b8ff" d="M102.5,-231.95C102.5,-224.62 102.5,-215.62 102.5,-207.66"/>
<polygon fill="#63b8ff" stroke="#63b8ff" points="106,-207.7 102.5,-197.7 99,-207.7 106,-207.7"/>
</g>
<!-- Node4 -->
<g id="node4" class="node">
<title>Node4</title>
<g id="a_node4"><a xlink:title=" ">
<polygon fill="#e0e0e0" stroke="#999999" points="185.62,-135.38 137.38,-135.38 137.38,-116.12 185.62,-116.12 185.62,-135.38"/>
<text text-anchor="middle" x="161.5" y="-121.88" font-family="Helvetica,sans-Serif" font-size="10.00">cstddef</text>
</a>
</g>
</g>
<!-- Node3&#45;&gt;Node4 -->
<g id="edge3" class="edge">
<title>Node3&#45;&gt;Node4</title>
<path fill="none" stroke="#63b8ff" d="M203.06,-176.68C195.86,-168.04 184.77,-154.71 175.86,-144"/>
<polygon fill="#63b8ff" stroke="#63b8ff" points="178.1,-142.22 169.01,-136.78 172.72,-146.7 178.1,-142.22"/>
</g>
<!-- Node5 -->
<g id="node5" class="node">
<title>Node5</title>
<g id="a_node5"><a xlink:href="compiler-specific_8h.html" target="_top" xlink:title=" ">
<polygon fill="white" stroke="#666666" points="319.75,-141 203.25,-141 203.25,-110.5 319.75,-110.5 319.75,-141"/>
<text text-anchor="start" x="211.25" y="-127.5" font-family="Helvetica,sans-Serif" font-size="10.00">cppgc/internal/compiler</text>
<text text-anchor="middle" x="261.5" y="-116.25" font-family="Helvetica,sans-Serif" font-size="10.00">&#45;specific.h</text>
</a>
</g>
</g>
<!-- Node3&#45;&gt;Node5 -->
<g id="edge4" class="edge">
<title>Node3&#45;&gt;Node5</title>
<path fill="none" stroke="#63b8ff" d="M218.25,-176.68C224.48,-169.49 233.51,-159.06 241.72,-149.59"/>
<polygon fill="#63b8ff" stroke="#63b8ff" points="245.01,-152.13 248.91,-142.28 239.72,-147.55 245.01,-152.13"/>
</g>
<!-- Node6 -->
<g id="node6" class="node">
<title>Node6</title>
<g id="a_node6"><a xlink:href="v8config_8h.html" target="_top" xlink:title=" ">
<polygon fill="white" stroke="#666666" points="291.25,-74.5 231.75,-74.5 231.75,-55.25 291.25,-55.25 291.25,-74.5"/>
<text text-anchor="middle" x="261.5" y="-61" font-family="Helvetica,sans-Serif" font-size="10.00">v8config.h</text>
</a>
</g>
</g>
<!-- Node5&#45;&gt;Node6 -->
<g id="edge5" class="edge">
<title>Node5&#45;&gt;Node6</title>
<path fill="none" stroke="#63b8ff" d="M261.5,-110.2C261.5,-102.87 261.5,-93.87 261.5,-85.91"/>
<polygon fill="#63b8ff" stroke="#63b8ff" points="265,-85.95 261.5,-75.95 258,-85.95 265,-85.95"/>
</g>
<!-- Node7 -->
<g id="node7" class="node">
<title>Node7</title>
<g id="a_node7"><a xlink:title=" ">
<polygon fill="#e0e0e0" stroke="#999999" points="286.75,-19.25 236.25,-19.25 236.25,0 286.75,0 286.75,-19.25"/>
<text text-anchor="middle" x="261.5" y="-5.75" font-family="Helvetica,sans-Serif" font-size="10.00">memory</text>
</a>
</g>
</g>
<!-- Node6&#45;&gt;Node7 -->
<g id="edge6" class="edge">
<title>Node6&#45;&gt;Node7</title>
<path fill="none" stroke="#63b8ff" d="M261.5,-55.08C261.5,-48.42 261.5,-38.99 261.5,-30.53"/>
<polygon fill="#63b8ff" stroke="#63b8ff" points="265,-30.61 261.5,-20.61 258,-30.61 265,-30.61"/>
</g>
<!-- Node8&#45;&gt;Node2 -->
<g id="edge9" class="edge">
<title>Node8&#45;&gt;Node2</title>
<path fill="none" stroke="#63b8ff" d="M91.56,-176.68C80.57,-167.69 63.38,-153.64 50.04,-142.73"/>
<polygon fill="#63b8ff" stroke="#63b8ff" points="52.5,-139.4 42.54,-135.78 48.06,-144.82 52.5,-139.4"/>
</g>
<!-- Node8&#45;&gt;Node4 -->
<g id="edge8" class="edge">
<title>Node8&#45;&gt;Node4</title>
<path fill="none" stroke="#63b8ff" d="M111.46,-176.68C120.3,-167.87 134.02,-154.18 144.86,-143.36"/>
<polygon fill="#63b8ff" stroke="#63b8ff" points="146.85,-146.32 151.45,-136.78 141.9,-141.36 146.85,-146.32"/>
</g>
<!-- Node9 -->
<g id="node9" class="node">
<title>Node9</title>
<g id="a_node9"><a xlink:title=" ">
<polygon fill="#e0e0e0" stroke="#999999" points="119.75,-135.38 81.25,-135.38 81.25,-116.12 119.75,-116.12 119.75,-135.38"/>
<text text-anchor="middle" x="100.5" y="-121.88" font-family="Helvetica,sans-Serif" font-size="10.00">utility</text>
</a>
</g>
</g>
<!-- Node8&#45;&gt;Node9 -->
<g id="edge10" class="edge">
<title>Node8&#45;&gt;Node9</title>
<path fill="none" stroke="#63b8ff" d="M102.2,-176.68C101.93,-168.73 101.52,-156.81 101.17,-146.62"/>
<polygon fill="#63b8ff" stroke="#63b8ff" points="104.64,-146.65 100.81,-136.78 97.65,-146.89 104.64,-146.65"/>
</g>
</g>
</svg>
