<?xml version="1.0" encoding="UTF-8" standalone="no"?>
<!DOCTYPE svg PUBLIC "-//W3C//DTD SVG 1.1//EN"
 "http://www.w3.org/Graphics/SVG/1.1/DTD/svg11.dtd">
<!-- Generated by graphviz version 8.0.5 (20230430.1635)
 -->
<!-- Title: include/cppgc/internal/gc&#45;info.h Pages: 1 -->
<svg width="727pt" height="337pt"
 viewBox="0.00 0.00 726.62 337.25" xmlns="http://www.w3.org/2000/svg" xmlns:xlink="http://www.w3.org/1999/xlink">
<g id="graph0" class="graph" transform="scale(1 1) rotate(0) translate(4 333.25)">
<title>include/cppgc/internal/gc&#45;info.h</title>
<!-- Node1 -->
<g id="node1" class="node">
<title>Node1</title>
<g id="a_node1"><a xlink:title=" ">
<polygon fill="#999999" stroke="#666666" points="330.88,-329.25 220.38,-329.25 220.38,-298.75 330.88,-298.75 330.88,-329.25"/>
<text text-anchor="start" x="228.38" y="-315.75" font-family="Helvetica,sans-Serif" font-size="10.00">include/cppgc/internal</text>
<text text-anchor="middle" x="275.62" y="-304.5" font-family="Helvetica,sans-Serif" font-size="10.00">/gc&#45;info.h</text>
</a>
</g>
</g>
<!-- Node2 -->
<g id="node2" class="node">
<title>Node2</title>
<g id="a_node2"><a xlink:title=" ">
<polygon fill="#e0e0e0" stroke="#999999" points="45.25,-257.12 0,-257.12 0,-237.88 45.25,-237.88 45.25,-257.12"/>
<text text-anchor="middle" x="22.62" y="-243.62" font-family="Helvetica,sans-Serif" font-size="10.00">atomic</text>
</a>
</g>
</g>
<!-- Node1&#45;&gt;Node2 -->
<g id="edge1" class="edge">
<title>Node1&#45;&gt;Node2</title>
<path fill="none" stroke="#63b8ff" d="M220.02,-302.28C176.06,-293.28 113.36,-279.26 59.62,-262.75 58.1,-262.28 56.55,-261.78 55,-261.26"/>
<polygon fill="#63b8ff" stroke="#63b8ff" points="56.35,-257.67 45.75,-257.6 53.99,-264.26 56.35,-257.67"/>
</g>
<!-- Node3 -->
<g id="node3" class="node">
<title>Node3</title>
<g id="a_node3"><a xlink:title=" ">
<polygon fill="#e0e0e0" stroke="#999999" points="87.25,-129.75 42,-129.75 42,-110.5 87.25,-110.5 87.25,-129.75"/>
<text text-anchor="middle" x="64.62" y="-116.25" font-family="Helvetica,sans-Serif" font-size="10.00">cstdint</text>
</a>
</g>
</g>
<!-- Node1&#45;&gt;Node3 -->
<g id="edge2" class="edge">
<title>Node1&#45;&gt;Node3</title>
<path fill="none" stroke="#63b8ff" d="M238.28,-298.33C196.97,-280.27 131.14,-245.79 92.62,-196.25 79.7,-179.63 72.27,-156.42 68.36,-140.21"/>
<polygon fill="#63b8ff" stroke="#63b8ff" points="71.65,-139.86 66.1,-130.84 64.81,-141.35 71.65,-139.86"/>
</g>
<!-- Node4 -->
<g id="node4" class="node">
<title>Node4</title>
<g id="a_node4"><a xlink:title=" ">
<polygon fill="#e0e0e0" stroke="#999999" points="375.12,-129.75 314.12,-129.75 314.12,-110.5 375.12,-110.5 375.12,-129.75"/>
<text text-anchor="middle" x="344.62" y="-116.25" font-family="Helvetica,sans-Serif" font-size="10.00">type_traits</text>
</a>
</g>
</g>
<!-- Node1&#45;&gt;Node4 -->
<g id="edge3" class="edge">
<title>Node1&#45;&gt;Node4</title>
<path fill="none" stroke="#63b8ff" d="M266.05,-298.52C256.53,-282.21 244.42,-255.02 252.62,-232.25 267.01,-192.31 302.68,-156.54 325.14,-136.93"/>
<polygon fill="#63b8ff" stroke="#63b8ff" points="326.94,-139.14 332.31,-130.01 322.42,-133.81 326.94,-139.14"/>
</g>
<!-- Node5 -->
<g id="node5" class="node">
<title>Node5</title>
<g id="a_node5"><a xlink:href="finalizer-trait_8h.html" target="_top" xlink:title=" ">
<polygon fill="white" stroke="#666666" points="373.62,-262.75 261.62,-262.75 261.62,-232.25 373.62,-232.25 373.62,-262.75"/>
<text text-anchor="start" x="269.62" y="-249.25" font-family="Helvetica,sans-Serif" font-size="10.00">cppgc/internal/finalizer</text>
<text text-anchor="middle" x="317.62" y="-238" font-family="Helvetica,sans-Serif" font-size="10.00">&#45;trait.h</text>
</a>
</g>
</g>
<!-- Node1&#45;&gt;Node5 -->
<g id="edge4" class="edge">
<title>Node1&#45;&gt;Node5</title>
<path fill="none" stroke="#63b8ff" d="M285.16,-298.36C290.2,-290.61 296.53,-280.9 302.25,-272.11"/>
<polygon fill="#63b8ff" stroke="#63b8ff" points="305.61,-274.37 308.13,-264.08 299.74,-270.55 305.61,-274.37"/>
</g>
<!-- Node9 -->
<g id="node9" class="node">
<title>Node9</title>
<g id="a_node9"><a xlink:href="logging_8h.html" target="_top" xlink:title=" ">
<polygon fill="white" stroke="#666666" points="621.62,-257.12 503.62,-257.12 503.62,-237.88 621.62,-237.88 621.62,-257.12"/>
<text text-anchor="middle" x="562.62" y="-243.62" font-family="Helvetica,sans-Serif" font-size="10.00">cppgc/internal/logging.h</text>
</a>
</g>
</g>
<!-- Node1&#45;&gt;Node9 -->
<g id="edge10" class="edge">
<title>Node1&#45;&gt;Node9</title>
<path fill="none" stroke="#63b8ff" d="M331.3,-300.49C383.54,-288.75 461.02,-271.33 511.67,-259.95"/>
<polygon fill="#63b8ff" stroke="#63b8ff" points="512.38,-263.16 521.36,-257.55 510.84,-256.33 512.38,-263.16"/>
</g>
<!-- Node14 -->
<g id="node14" class="node">
<title>Node14</title>
<g id="a_node14"><a xlink:href="v8config_8h.html" target="_top" xlink:title=" ">
<polygon fill="white" stroke="#666666" points="558.38,-74.5 498.88,-74.5 498.88,-55.25 558.38,-55.25 558.38,-74.5"/>
<text text-anchor="middle" x="528.62" y="-61" font-family="Helvetica,sans-Serif" font-size="10.00">v8config.h</text>
</a>
</g>
</g>
<!-- Node1&#45;&gt;Node14 -->
<g id="edge30" class="edge">
<title>Node1&#45;&gt;Node14</title>
<path fill="none" stroke="#63b8ff" d="M331.37,-309.74C417.91,-303.91 579.92,-289.71 630.62,-262.75 665.77,-244.06 676.34,-233.41 690.62,-196.25 704.41,-160.39 705.53,-138.87 679.62,-110.5 672.02,-102.17 611.4,-86.02 569.32,-75.6"/>
<polygon fill="#63b8ff" stroke="#63b8ff" points="570.35,-72 559.8,-73.02 568.68,-78.8 570.35,-72"/>
</g>
<!-- Node16 -->
<g id="node16" class="node">
<title>Node16</title>
<g id="a_node16"><a xlink:href="name-trait_8h.html" target="_top" xlink:title=" ">
<polygon fill="white" stroke="#666666" points="205.5,-196.25 101.75,-196.25 101.75,-165.75 205.5,-165.75 205.5,-196.25"/>
<text text-anchor="start" x="109.75" y="-182.75" font-family="Helvetica,sans-Serif" font-size="10.00">cppgc/internal/name</text>
<text text-anchor="middle" x="153.62" y="-171.5" font-family="Helvetica,sans-Serif" font-size="10.00">&#45;trait.h</text>
</a>
</g>
</g>
<!-- Node1&#45;&gt;Node16 -->
<g id="edge19" class="edge">
<title>Node1&#45;&gt;Node16</title>
<path fill="none" stroke="#63b8ff" d="M257.83,-298.27C246.49,-288.58 231.71,-275.41 219.62,-262.75 202.01,-244.3 183.79,-221.7 170.97,-205.1"/>
<polygon fill="#63b8ff" stroke="#63b8ff" points="173.29,-203.38 164.44,-197.56 167.73,-207.63 173.29,-203.38"/>
</g>
<!-- Node18 -->
<g id="node18" class="node">
<title>Node18</title>
<g id="a_node18"><a xlink:href="trace-trait_8h.html" target="_top" xlink:title=" ">
<polygon fill="white" stroke="#666666" points="485.62,-257.12 391.62,-257.12 391.62,-237.88 485.62,-237.88 485.62,-257.12"/>
<text text-anchor="middle" x="438.62" y="-243.62" font-family="Helvetica,sans-Serif" font-size="10.00">cppgc/trace&#45;trait.h</text>
</a>
</g>
</g>
<!-- Node1&#45;&gt;Node18 -->
<g id="edge26" class="edge">
<title>Node1&#45;&gt;Node18</title>
<path fill="none" stroke="#63b8ff" d="M312.61,-298.36C340.64,-287.27 378.8,-272.17 405.76,-261.5"/>
<polygon fill="#63b8ff" stroke="#63b8ff" points="406.85,-264.44 414.86,-257.51 404.27,-257.93 406.85,-264.44"/>
</g>
<!-- Node5&#45;&gt;Node4 -->
<g id="edge5" class="edge">
<title>Node5&#45;&gt;Node4</title>
<path fill="none" stroke="#63b8ff" d="M319.67,-231.81C322.04,-215.56 326.33,-188.62 331.62,-165.75 333.58,-157.3 336.19,-148.08 338.55,-140.22"/>
<polygon fill="#63b8ff" stroke="#63b8ff" points="342.12,-141.53 341.74,-130.94 335.44,-139.45 342.12,-141.53"/>
</g>
<!-- Node6 -->
<g id="node6" class="node">
<title>Node6</title>
<g id="a_node6"><a xlink:href="type-traits_8h.html" target="_top" xlink:title=" ">
<polygon fill="white" stroke="#666666" points="469.38,-190.62 373.88,-190.62 373.88,-171.38 469.38,-171.38 469.38,-190.62"/>
<text text-anchor="middle" x="421.62" y="-177.12" font-family="Helvetica,sans-Serif" font-size="10.00">cppgc/type&#45;traits.h</text>
</a>
</g>
</g>
<!-- Node5&#45;&gt;Node6 -->
<g id="edge6" class="edge">
<title>Node5&#45;&gt;Node6</title>
<path fill="none" stroke="#63b8ff" d="M341.22,-231.86C358.16,-221.36 380.89,-207.27 397.86,-196.74"/>
<polygon fill="#63b8ff" stroke="#63b8ff" points="399.44,-199.25 406.1,-191.01 395.75,-193.31 399.44,-199.25"/>
</g>
<!-- Node6&#45;&gt;Node4 -->
<g id="edge8" class="edge">
<title>Node6&#45;&gt;Node4</title>
<path fill="none" stroke="#63b8ff" d="M409.93,-171.06C398.06,-161.98 379.44,-147.74 365.11,-136.79"/>
<polygon fill="#63b8ff" stroke="#63b8ff" points="367.5,-133.44 357.43,-130.15 363.25,-139.01 367.5,-133.44"/>
</g>
<!-- Node7 -->
<g id="node7" class="node">
<title>Node7</title>
<g id="a_node7"><a xlink:title=" ">
<polygon fill="#e0e0e0" stroke="#999999" points="480.75,-74.5 432.5,-74.5 432.5,-55.25 480.75,-55.25 480.75,-74.5"/>
<text text-anchor="middle" x="456.62" y="-61" font-family="Helvetica,sans-Serif" font-size="10.00">cstddef</text>
</a>
</g>
</g>
<!-- Node6&#45;&gt;Node7 -->
<g id="edge7" class="edge">
<title>Node6&#45;&gt;Node7</title>
<path fill="none" stroke="#63b8ff" d="M425.3,-171.21C429.38,-161.27 436,-144.52 440.62,-129.75 445.23,-115.03 449.43,-98.09 452.36,-85.36"/>
<polygon fill="#63b8ff" stroke="#63b8ff" points="455.99,-86.17 454.77,-75.64 449.16,-84.63 455.99,-86.17"/>
</g>
<!-- Node8 -->
<g id="node8" class="node">
<title>Node8</title>
<g id="a_node8"><a xlink:title=" ">
<polygon fill="#e0e0e0" stroke="#999999" points="431.88,-129.75 393.38,-129.75 393.38,-110.5 431.88,-110.5 431.88,-129.75"/>
<text text-anchor="middle" x="412.62" y="-116.25" font-family="Helvetica,sans-Serif" font-size="10.00">utility</text>
</a>
</g>
</g>
<!-- Node6&#45;&gt;Node8 -->
<g id="edge9" class="edge">
<title>Node6&#45;&gt;Node8</title>
<path fill="none" stroke="#63b8ff" d="M420.26,-171.06C419.04,-163.1 417.22,-151.19 415.66,-140.99"/>
<polygon fill="#63b8ff" stroke="#63b8ff" points="418.98,-140.51 414,-131.15 412.06,-141.57 418.98,-140.51"/>
</g>
<!-- Node10 -->
<g id="node10" class="node">
<title>Node10</title>
<g id="a_node10"><a xlink:href="source-location_8h.html" target="_top" xlink:title=" ">
<polygon fill="white" stroke="#666666" points="682,-190.62 563.25,-190.62 563.25,-171.38 682,-171.38 682,-190.62"/>
<text text-anchor="middle" x="622.62" y="-177.12" font-family="Helvetica,sans-Serif" font-size="10.00">cppgc/source&#45;location.h</text>
</a>
</g>
</g>
<!-- Node9&#45;&gt;Node10 -->
<g id="edge11" class="edge">
<title>Node9&#45;&gt;Node10</title>
<path fill="none" stroke="#63b8ff" d="M570.97,-237.53C580.28,-227.52 595.56,-211.1 607.09,-198.7"/>
<polygon fill="#63b8ff" stroke="#63b8ff" points="609.1,-201.6 613.35,-191.89 603.98,-196.83 609.1,-201.6"/>
</g>
<!-- Node9&#45;&gt;Node14 -->
<g id="edge18" class="edge">
<title>Node9&#45;&gt;Node14</title>
<path fill="none" stroke="#63b8ff" d="M560.99,-237.79C555.8,-210.26 539.69,-124.66 532.34,-85.63"/>
<polygon fill="#63b8ff" stroke="#63b8ff" points="535.62,-85.1 530.33,-75.92 528.74,-86.4 535.62,-85.1"/>
</g>
<!-- Node11 -->
<g id="node11" class="node">
<title>Node11</title>
<g id="a_node11"><a xlink:href="v8-source-location_8h.html" target="_top" xlink:title=" ">
<polygon fill="white" stroke="#666666" points="670.12,-129.75 567.12,-129.75 567.12,-110.5 670.12,-110.5 670.12,-129.75"/>
<text text-anchor="middle" x="618.62" y="-116.25" font-family="Helvetica,sans-Serif" font-size="10.00">v8&#45;source&#45;location.h</text>
</a>
</g>
</g>
<!-- Node10&#45;&gt;Node11 -->
<g id="edge12" class="edge">
<title>Node10&#45;&gt;Node11</title>
<path fill="none" stroke="#63b8ff" d="M622.02,-171.06C621.48,-163.1 620.67,-151.19 619.97,-140.99"/>
<polygon fill="#63b8ff" stroke="#63b8ff" points="623.41,-140.89 619.24,-131.15 616.42,-141.37 623.41,-140.89"/>
</g>
<!-- Node11&#45;&gt;Node7 -->
<g id="edge13" class="edge">
<title>Node11&#45;&gt;Node7</title>
<path fill="none" stroke="#63b8ff" d="M591.14,-110.09C563.65,-101.05 521.26,-87.12 491.43,-77.31"/>
<polygon fill="#63b8ff" stroke="#63b8ff" points="492.65,-73.7 482.06,-73.91 490.46,-80.35 492.65,-73.7"/>
</g>
<!-- Node12 -->
<g id="node12" class="node">
<title>Node12</title>
<g id="a_node12"><a xlink:title=" ">
<polygon fill="#e0e0e0" stroke="#999999" points="660.75,-74.5 576.5,-74.5 576.5,-55.25 660.75,-55.25 660.75,-74.5"/>
<text text-anchor="middle" x="618.62" y="-61" font-family="Helvetica,sans-Serif" font-size="10.00">source_location</text>
</a>
</g>
</g>
<!-- Node11&#45;&gt;Node12 -->
<g id="edge14" class="edge">
<title>Node11&#45;&gt;Node12</title>
<path fill="none" stroke="#63b8ff" d="M618.62,-110.33C618.62,-103.67 618.62,-94.24 618.62,-85.78"/>
<polygon fill="#63b8ff" stroke="#63b8ff" points="622.13,-85.86 618.62,-75.86 615.13,-85.86 622.13,-85.86"/>
</g>
<!-- Node13 -->
<g id="node13" class="node">
<title>Node13</title>
<g id="a_node13"><a xlink:title=" ">
<polygon fill="#e0e0e0" stroke="#999999" points="718.62,-74.5 678.62,-74.5 678.62,-55.25 718.62,-55.25 718.62,-74.5"/>
<text text-anchor="middle" x="698.62" y="-61" font-family="Helvetica,sans-Serif" font-size="10.00">string</text>
</a>
</g>
</g>
<!-- Node11&#45;&gt;Node13 -->
<g id="edge15" class="edge">
<title>Node11&#45;&gt;Node13</title>
<path fill="none" stroke="#63b8ff" d="M632.2,-110.09C644.15,-102.14 661.8,-90.39 675.9,-81"/>
<polygon fill="#63b8ff" stroke="#63b8ff" points="677.6,-83.41 683.99,-74.95 673.72,-77.58 677.6,-83.41"/>
</g>
<!-- Node11&#45;&gt;Node14 -->
<g id="edge16" class="edge">
<title>Node11&#45;&gt;Node14</title>
<path fill="none" stroke="#63b8ff" d="M603.36,-110.09C589.65,-101.98 569.29,-89.93 553.28,-80.46"/>
<polygon fill="#63b8ff" stroke="#63b8ff" points="555.36,-77.03 544.97,-74.95 551.79,-83.06 555.36,-77.03"/>
</g>
<!-- Node15 -->
<g id="node15" class="node">
<title>Node15</title>
<g id="a_node15"><a xlink:title=" ">
<polygon fill="#e0e0e0" stroke="#999999" points="553.88,-19.25 503.38,-19.25 503.38,0 553.88,0 553.88,-19.25"/>
<text text-anchor="middle" x="528.62" y="-5.75" font-family="Helvetica,sans-Serif" font-size="10.00">memory</text>
</a>
</g>
</g>
<!-- Node14&#45;&gt;Node15 -->
<g id="edge17" class="edge">
<title>Node14&#45;&gt;Node15</title>
<path fill="none" stroke="#63b8ff" d="M528.62,-55.08C528.62,-48.42 528.62,-38.99 528.62,-30.53"/>
<polygon fill="#63b8ff" stroke="#63b8ff" points="532.13,-30.61 528.62,-20.61 525.13,-30.61 532.13,-30.61"/>
</g>
<!-- Node16&#45;&gt;Node3 -->
<g id="edge21" class="edge">
<title>Node16&#45;&gt;Node3</title>
<path fill="none" stroke="#63b8ff" d="M131.62,-165.45C118.2,-156.57 101.08,-145.24 87.5,-136.26"/>
<polygon fill="#63b8ff" stroke="#63b8ff" points="89.62,-132.8 79.35,-130.2 85.75,-138.64 89.62,-132.8"/>
</g>
<!-- Node16&#45;&gt;Node4 -->
<g id="edge22" class="edge">
<title>Node16&#45;&gt;Node4</title>
<path fill="none" stroke="#63b8ff" d="M201.33,-165.3C233.26,-155.45 274.78,-142.65 304.91,-133.37"/>
<polygon fill="#63b8ff" stroke="#63b8ff" points="305.53,-136.53 314.05,-130.24 303.46,-129.84 305.53,-136.53"/>
</g>
<!-- Node16&#45;&gt;Node7 -->
<g id="edge20" class="edge">
<title>Node16&#45;&gt;Node7</title>
<path fill="none" stroke="#63b8ff" d="M144.37,-165.43C135.85,-149.97 126.38,-125.74 139.62,-110.5 175.86,-68.8 346.98,-64.96 421.64,-65.32"/>
<polygon fill="#63b8ff" stroke="#63b8ff" points="421.32,-68.82 431.35,-65.4 421.37,-61.82 421.32,-68.82"/>
</g>
<!-- Node16&#45;&gt;Node14 -->
<g id="edge25" class="edge">
<title>Node16&#45;&gt;Node14</title>
<path fill="none" stroke="#63b8ff" d="M153.17,-165.28C153.55,-149.22 156.86,-124.01 172.62,-110.5 224.15,-66.35 403.35,-84.42 487.69,-74.4"/>
<polygon fill="#63b8ff" stroke="#63b8ff" points="488.04,-77.74 497.45,-72.87 487.06,-70.81 488.04,-77.74"/>
</g>
<!-- Node17 -->
<g id="node17" class="node">
<title>Node17</title>
<g id="a_node17"><a xlink:href="name-provider_8h.html" target="_top" xlink:title=" ">
<polygon fill="white" stroke="#666666" points="295.75,-129.75 181.5,-129.75 181.5,-110.5 295.75,-110.5 295.75,-129.75"/>
<text text-anchor="middle" x="238.62" y="-116.25" font-family="Helvetica,sans-Serif" font-size="10.00">cppgc/name&#45;provider.h</text>
</a>
</g>
</g>
<!-- Node16&#45;&gt;Node17 -->
<g id="edge23" class="edge">
<title>Node16&#45;&gt;Node17</title>
<path fill="none" stroke="#63b8ff" d="M174.64,-165.45C187.45,-156.57 203.81,-145.24 216.78,-136.26"/>
<polygon fill="#63b8ff" stroke="#63b8ff" points="218.29,-138.77 224.52,-130.2 214.31,-133.02 218.29,-138.77"/>
</g>
<!-- Node17&#45;&gt;Node14 -->
<g id="edge24" class="edge">
<title>Node17&#45;&gt;Node14</title>
<path fill="none" stroke="#63b8ff" d="M293.59,-110.03C342.14,-101.85 415.11,-89.17 487.71,-74.82"/>
<polygon fill="#63b8ff" stroke="#63b8ff" points="488.29,-78.07 497.42,-72.69 486.93,-71.2 488.29,-78.07"/>
</g>
<!-- Node18&#45;&gt;Node4 -->
<g id="edge27" class="edge">
<title>Node18&#45;&gt;Node4</title>
<path fill="none" stroke="#63b8ff" d="M417.67,-237.39C400.89,-229.05 378.02,-215.12 364.62,-196.25 352.92,-179.76 348.07,-156.84 346.05,-140.67"/>
<polygon fill="#63b8ff" stroke="#63b8ff" points="349.45,-140.45 345,-130.83 342.48,-141.12 349.45,-140.45"/>
</g>
<!-- Node18&#45;&gt;Node6 -->
<g id="edge28" class="edge">
<title>Node18&#45;&gt;Node6</title>
<path fill="none" stroke="#63b8ff" d="M436.26,-237.53C433.8,-228.19 429.87,-213.28 426.7,-201.26"/>
<polygon fill="#63b8ff" stroke="#63b8ff" points="429.9,-200.67 423.97,-191.89 423.13,-202.45 429.9,-200.67"/>
</g>
<!-- Node18&#45;&gt;Node14 -->
<g id="edge29" class="edge">
<title>Node18&#45;&gt;Node14</title>
<path fill="none" stroke="#63b8ff" d="M447.22,-237.49C456.02,-227.89 469.66,-211.93 478.62,-196.25 499.8,-159.2 515.5,-111.46 523.24,-85.24"/>
<polygon fill="#63b8ff" stroke="#63b8ff" points="526.83,-86.41 526.22,-75.83 520.1,-84.48 526.83,-86.41"/>
</g>
</g>
</svg>
