<?xml version="1.0" encoding="UTF-8" standalone="no"?>
<!DOCTYPE svg PUBLIC "-//W3C//DTD SVG 1.1//EN"
 "http://www.w3.org/Graphics/SVG/1.1/DTD/svg11.dtd">
<!-- Generated by graphviz version 8.0.5 (20230430.1635)
 -->
<!-- Title: Graphical Class Hierarchy Pages: 1 -->
<svg width="555pt" height="293pt"
 viewBox="0.00 0.00 554.75 292.50" xmlns="http://www.w3.org/2000/svg" xmlns:xlink="http://www.w3.org/1999/xlink">
<g id="graph0" class="graph" transform="scale(1 1) rotate(0) translate(4 288.5)">
<title>Graphical Class Hierarchy</title>
<!-- Node0 -->
<g id="node1" class="node">
<title>Node0</title>
<g id="a_node1"><a xlink:title=" ">
<polygon fill="#e0e0e0" stroke="#999999" points="297.12,-179.5 214.38,-179.5 214.38,-160.25 297.12,-160.25 297.12,-179.5"/>
<text text-anchor="middle" x="255.75" y="-166" font-family="Helvetica,sans-Serif" font-size="10.00">CheckingPolicy</text>
</a>
</g>
</g>
<!-- Node1 -->
<g id="node2" class="node">
<title>Node1</title>
<g id="a_node2"><a xlink:href="classcppgc_1_1internal_1_1BasicMember.html" target="_top" xlink:title=" ">
<polygon fill="white" stroke="#666666" points="537.38,-284.5 371.38,-284.5 371.38,-265.25 537.38,-265.25 537.38,-284.5"/>
<text text-anchor="middle" x="454.38" y="-271" font-family="Helvetica,sans-Serif" font-size="10.00">cppgc::internal::BasicMember&lt; K &gt;</text>
</a>
</g>
</g>
<!-- Node0&#45;&gt;Node1 -->
<g id="edge1" class="edge">
<title>Node0&#45;&gt;Node1</title>
<path fill="none" stroke="#8b1a1a" d="M307.27,-184.15C313.98,-187.35 320.45,-191.21 326,-195.88 350.11,-216.12 336.31,-238.68 362,-256.88 366.49,-260.05 371.39,-262.7 376.53,-264.91"/>
<polygon fill="#8b1a1a" stroke="#8b1a1a" points="308.91,-180.61 298.34,-179.92 306.17,-187.06 308.91,-180.61"/>
</g>
<!-- Node3 -->
<g id="node3" class="node">
<title>Node3</title>
<g id="a_node3"><a xlink:href="classcppgc_1_1internal_1_1BasicMember.html" target="_top" xlink:title=" ">
<polygon fill="white" stroke="#666666" points="537.38,-247.5 371.38,-247.5 371.38,-228.25 537.38,-228.25 537.38,-247.5"/>
<text text-anchor="middle" x="454.38" y="-234" font-family="Helvetica,sans-Serif" font-size="10.00">cppgc::internal::BasicMember&lt; V &gt;</text>
</a>
</g>
</g>
<!-- Node0&#45;&gt;Node3 -->
<g id="edge2" class="edge">
<title>Node0&#45;&gt;Node3</title>
<path fill="none" stroke="#8b1a1a" d="M297.7,-183.63C307.15,-187.25 317.06,-191.4 326,-195.88 342.98,-204.37 344.42,-211.71 362,-218.88 370.85,-222.48 380.48,-225.43 390.05,-227.84"/>
<polygon fill="#8b1a1a" stroke="#8b1a1a" points="299.27,-180.11 288.67,-179.92 296.84,-186.67 299.27,-180.11"/>
</g>
<!-- Node4 -->
<g id="node4" class="node">
<title>Node4</title>
<g id="a_node4"><a xlink:href="classcppgc_1_1internal_1_1BasicMember.html" target="_top" xlink:title=" ">
<polygon fill="white" stroke="#666666" points="525.75,-210.12 383,-210.12 383,-179.62 525.75,-179.62 525.75,-210.12"/>
<text text-anchor="start" x="391" y="-196.62" font-family="Helvetica,sans-Serif" font-size="10.00">cppgc::internal::BasicMember</text>
<text text-anchor="middle" x="454.38" y="-185.38" font-family="Helvetica,sans-Serif" font-size="10.00">&lt; Pointee &gt;</text>
</a>
</g>
</g>
<!-- Node0&#45;&gt;Node4 -->
<g id="edge3" class="edge">
<title>Node0&#45;&gt;Node4</title>
<path fill="none" stroke="#8b1a1a" d="M308.29,-176.43C331.08,-179.33 358.23,-182.78 382.86,-185.91"/>
<polygon fill="#8b1a1a" stroke="#8b1a1a" points="308.85,-172.84 298.49,-175.06 307.97,-179.79 308.85,-172.84"/>
</g>
<!-- Node6 -->
<g id="node5" class="node">
<title>Node6</title>
<g id="a_node5"><a xlink:href="classcppgc_1_1internal_1_1BasicCrossThreadPersistent.html" target="_top" xlink:title=" ">
<polygon fill="white" stroke="#666666" points="546.75,-101.75 362,-101.75 362,-60 546.75,-60 546.75,-101.75"/>
<text text-anchor="start" x="370" y="-88.25" font-family="Helvetica,sans-Serif" font-size="10.00">cppgc::internal::BasicCross</text>
<text text-anchor="start" x="370" y="-77" font-family="Helvetica,sans-Serif" font-size="10.00">ThreadPersistent&lt; T, WeaknessPolicy,</text>
<text text-anchor="middle" x="454.38" y="-65.75" font-family="Helvetica,sans-Serif" font-size="10.00"> LocationPolicy, CheckingPolicy &gt;</text>
</a>
</g>
</g>
<!-- Node0&#45;&gt;Node6 -->
<g id="edge4" class="edge">
<title>Node0&#45;&gt;Node6</title>
<path fill="none" stroke="#8b1a1a" d="M290.42,-155.32C301.93,-149.96 314.75,-143.55 326,-136.88 342.98,-126.81 344.42,-119.84 362,-110.88 368.1,-107.77 374.59,-104.88 381.19,-102.24"/>
<polygon fill="#8b1a1a" stroke="#8b1a1a" points="289.35,-152.42 281.7,-159.75 292.25,-158.79 289.35,-152.42"/>
</g>
<!-- Node5 -->
<g id="node6" class="node">
<title>Node5</title>
<g id="a_node6"><a xlink:href="classcppgc_1_1internal_1_1BasicMember.html" target="_top" xlink:title=" ">
<polygon fill="white" stroke="#666666" points="546,-161.75 362.75,-161.75 362.75,-120 546,-120 546,-161.75"/>
<text text-anchor="start" x="370.75" y="-148.25" font-family="Helvetica,sans-Serif" font-size="10.00">cppgc::internal::BasicMember</text>
<text text-anchor="start" x="370.75" y="-137" font-family="Helvetica,sans-Serif" font-size="10.00">&lt; T, WeaknessTag, WriteBarrierPolicy,</text>
<text text-anchor="middle" x="454.38" y="-125.75" font-family="Helvetica,sans-Serif" font-size="10.00"> CheckingPolicy, StorageType &gt;</text>
</a>
</g>
</g>
<!-- Node0&#45;&gt;Node5 -->
<g id="edge5" class="edge">
<title>Node0&#45;&gt;Node5</title>
<path fill="none" stroke="#8b1a1a" d="M308.07,-162.31C324.74,-159.85 343.76,-157.04 362.42,-154.29"/>
<polygon fill="#8b1a1a" stroke="#8b1a1a" points="307.87,-158.94 298.49,-163.87 308.89,-165.87 307.87,-158.94"/>
</g>
<!-- Node8 -->
<g id="node7" class="node">
<title>Node8</title>
<g id="a_node7"><a xlink:href="classcppgc_1_1internal_1_1BasicPersistent.html" target="_top" xlink:title=" ">
<polygon fill="white" stroke="#666666" points="544.12,-41.75 364.62,-41.75 364.62,0 544.12,0 544.12,-41.75"/>
<text text-anchor="start" x="372.62" y="-28.25" font-family="Helvetica,sans-Serif" font-size="10.00">cppgc::internal::BasicPersistent</text>
<text text-anchor="start" x="372.62" y="-17" font-family="Helvetica,sans-Serif" font-size="10.00">&lt; T, WeaknessPolicy, LocationPolicy,</text>
<text text-anchor="middle" x="454.38" y="-5.75" font-family="Helvetica,sans-Serif" font-size="10.00"> CheckingPolicy &gt;</text>
</a>
</g>
</g>
<!-- Node0&#45;&gt;Node8 -->
<g id="edge6" class="edge">
<title>Node0&#45;&gt;Node8</title>
<path fill="none" stroke="#8b1a1a" d="M299.73,-155.36C309.27,-150.61 318.7,-144.53 326,-136.88 354.58,-106.88 331.56,-78.99 362,-50.88 365.56,-47.59 369.48,-44.66 373.64,-42.06"/>
<polygon fill="#8b1a1a" stroke="#8b1a1a" points="298.5,-152.53 290.83,-159.84 301.38,-158.91 298.5,-152.53"/>
</g>
<!-- Node7 -->
<g id="node8" class="node">
<title>Node7</title>
<g id="a_node8"><a xlink:title=" ">
<polygon fill="#e0e0e0" stroke="#999999" points="295.62,-79.5 215.88,-79.5 215.88,-60.25 295.62,-60.25 295.62,-79.5"/>
<text text-anchor="middle" x="255.75" y="-66" font-family="Helvetica,sans-Serif" font-size="10.00">LocationPolicy</text>
</a>
</g>
</g>
<!-- Node7&#45;&gt;Node6 -->
<g id="edge7" class="edge">
<title>Node7&#45;&gt;Node6</title>
<path fill="none" stroke="#63b8ff" d="M306.7,-72.67C323.46,-73.61 342.73,-74.69 361.67,-75.74"/>
<polygon fill="#63b8ff" stroke="#63b8ff" points="307.25,-69.14 297.07,-72.07 306.86,-76.13 307.25,-69.14"/>
</g>
<!-- Node7&#45;&gt;Node8 -->
<g id="edge8" class="edge">
<title>Node7&#45;&gt;Node8</title>
<path fill="none" stroke="#63b8ff" d="M306.63,-57.44C325.23,-52.81 346.91,-47.41 367.8,-42.2"/>
<polygon fill="#63b8ff" stroke="#63b8ff" points="305.92,-54.26 297.07,-60.08 307.62,-61.05 305.92,-54.26"/>
</g>
<!-- Node2 -->
<g id="node9" class="node">
<title>Node2</title>
<g id="a_node9"><a xlink:href="classcppgc_1_1internal_1_1MemberBase.html" target="_top" xlink:title=" ">
<polygon fill="white" stroke="#666666" points="326,-235.12 185.5,-235.12 185.5,-204.62 326,-204.62 326,-235.12"/>
<text text-anchor="start" x="193.5" y="-221.62" font-family="Helvetica,sans-Serif" font-size="10.00">cppgc::internal::MemberBase</text>
<text text-anchor="middle" x="255.75" y="-210.38" font-family="Helvetica,sans-Serif" font-size="10.00">&lt; StorageType &gt;</text>
</a>
</g>
</g>
<!-- Node2&#45;&gt;Node1 -->
<g id="edge9" class="edge">
<title>Node2&#45;&gt;Node1</title>
<path fill="none" stroke="#8b1a1a" d="M306.71,-239.09C324.05,-245.31 343.72,-251.89 362,-256.88 372.76,-259.81 384.36,-262.47 395.57,-264.79"/>
<polygon fill="#8b1a1a" stroke="#8b1a1a" points="308.4,-235.61 297.81,-235.48 306,-242.19 308.4,-235.61"/>
</g>
<!-- Node2&#45;&gt;Node3 -->
<g id="edge10" class="edge">
<title>Node2&#45;&gt;Node3</title>
<path fill="none" stroke="#8b1a1a" d="M337,-227.22C348.24,-228.25 359.81,-229.31 371.08,-230.34"/>
<polygon fill="#8b1a1a" stroke="#8b1a1a" points="337.63,-223.67 327.35,-226.25 336.99,-230.64 337.63,-223.67"/>
</g>
<!-- Node2&#45;&gt;Node4 -->
<g id="edge11" class="edge">
<title>Node2&#45;&gt;Node4</title>
<path fill="none" stroke="#8b1a1a" d="M337.17,-209.65C352.21,-207.74 367.82,-205.75 382.54,-203.88"/>
<polygon fill="#8b1a1a" stroke="#8b1a1a" points="336.83,-206.29 327.35,-211.03 337.71,-213.24 336.83,-206.29"/>
</g>
<!-- Node2&#45;&gt;Node5 -->
<g id="edge12" class="edge">
<title>Node2&#45;&gt;Node5</title>
<path fill="none" stroke="#8b1a1a" d="M302.33,-199.8C310.25,-196.22 318.38,-192.48 326,-188.88 342.17,-181.22 345.46,-177.68 362,-170.88 369.26,-167.89 376.93,-164.99 384.62,-162.24"/>
<polygon fill="#8b1a1a" stroke="#8b1a1a" points="301.16,-196.94 293.47,-204.24 304.02,-203.33 301.16,-196.94"/>
</g>
<!-- Node9 -->
<g id="node10" class="node">
<title>Node9</title>
<g id="a_node10"><a xlink:href="classcppgc_1_1internal_1_1PersistentBase.html" target="_top" xlink:title=" ">
<polygon fill="white" stroke="#666666" points="149.5,-63.5 0,-63.5 0,-44.25 149.5,-44.25 149.5,-63.5"/>
<text text-anchor="middle" x="74.75" y="-50" font-family="Helvetica,sans-Serif" font-size="10.00">cppgc::internal::PersistentBase</text>
</a>
</g>
</g>
<!-- Node9&#45;&gt;Node8 -->
<g id="edge13" class="edge">
<title>Node9&#45;&gt;Node8</title>
<path fill="none" stroke="#63b8ff" d="M106.47,-39.39C128.05,-30.04 157.87,-18.75 185.5,-13.88 244.48,-3.46 311.89,-5.29 364.34,-9.69"/>
<polygon fill="#63b8ff" stroke="#63b8ff" points="105.31,-36.52 97.59,-43.78 108.15,-42.92 105.31,-36.52"/>
</g>
<!-- Node10 -->
<g id="node11" class="node">
<title>Node10</title>
<g id="a_node11"><a xlink:href="classcppgc_1_1internal_1_1CrossThreadPersistentBase.html" target="_top" xlink:title=" ">
<polygon fill="white" stroke="#666666" points="324.88,-128.12 186.62,-128.12 186.62,-97.62 324.88,-97.62 324.88,-128.12"/>
<text text-anchor="start" x="194.62" y="-114.62" font-family="Helvetica,sans-Serif" font-size="10.00">cppgc::internal::CrossThread</text>
<text text-anchor="middle" x="255.75" y="-103.38" font-family="Helvetica,sans-Serif" font-size="10.00">PersistentBase</text>
</a>
</g>
</g>
<!-- Node9&#45;&gt;Node10 -->
<g id="edge14" class="edge">
<title>Node9&#45;&gt;Node10</title>
<path fill="none" stroke="#63b8ff" d="M116.35,-67.26C143.28,-76.13 178.74,-87.82 207.02,-97.14"/>
<polygon fill="#63b8ff" stroke="#63b8ff" points="117.71,-63.69 107.11,-63.88 115.52,-70.34 117.71,-63.69"/>
</g>
<!-- Node10&#45;&gt;Node6 -->
<g id="edge15" class="edge">
<title>Node10&#45;&gt;Node6</title>
<path fill="none" stroke="#63b8ff" d="M335.85,-100C344.33,-98.62 353,-97.21 361.61,-95.81"/>
<polygon fill="#63b8ff" stroke="#63b8ff" points="335.55,-96.67 326.24,-101.73 336.68,-103.58 335.55,-96.67"/>
</g>
<!-- Node11 -->
<g id="node12" class="node">
<title>Node11</title>
<g id="a_node12"><a xlink:title=" ">
<polygon fill="#e0e0e0" stroke="#999999" points="299.75,-42.5 211.75,-42.5 211.75,-23.25 299.75,-23.25 299.75,-42.5"/>
<text text-anchor="middle" x="255.75" y="-29" font-family="Helvetica,sans-Serif" font-size="10.00">WeaknessPolicy</text>
</a>
</g>
</g>
<!-- Node11&#45;&gt;Node6 -->
<g id="edge16" class="edge">
<title>Node11&#45;&gt;Node6</title>
<path fill="none" stroke="#8b1a1a" d="M308.58,-45.53C326.2,-49.83 346.42,-54.76 366.04,-59.56"/>
<polygon fill="#8b1a1a" stroke="#8b1a1a" points="309.51,-41.91 298.97,-42.94 307.85,-48.71 309.51,-41.91"/>
</g>
<!-- Node11&#45;&gt;Node8 -->
<g id="edge17" class="edge">
<title>Node11&#45;&gt;Node8</title>
<path fill="none" stroke="#8b1a1a" d="M310.5,-29.59C327.16,-28.58 345.97,-27.43 364.35,-26.31"/>
<polygon fill="#8b1a1a" stroke="#8b1a1a" points="310.67,-26.14 300.9,-30.24 311.09,-33.13 310.67,-26.14"/>
</g>
</g>
</svg>
