<?xml version="1.0" encoding="UTF-8" standalone="no"?>
<!DOCTYPE svg PUBLIC "-//W3C//DTD SVG 1.1//EN"
 "http://www.w3.org/Graphics/SVG/1.1/DTD/svg11.dtd">
<!-- Generated by graphviz version 8.0.5 (20230430.1635)
 -->
<!-- Title: include/cppgc/member.h Pages: 1 -->
<svg width="1430pt" height="647pt"
 viewBox="0.00 0.00 1430.00 647.25" xmlns="http://www.w3.org/2000/svg" xmlns:xlink="http://www.w3.org/1999/xlink">
<g id="graph0" class="graph" transform="scale(1 1) rotate(0) translate(4 643.25)">
<title>include/cppgc/member.h</title>
<!-- Node1 -->
<g id="node1" class="node">
<title>Node1</title>
<g id="a_node1"><a xlink:title=" ">
<polygon fill="#999999" stroke="#666666" points="630.88,-639.25 509.12,-639.25 509.12,-620 630.88,-620 630.88,-639.25"/>
<text text-anchor="middle" x="570" y="-625.75" font-family="Helvetica,sans-Serif" font-size="10.00">include/cppgc/member.h</text>
</a>
</g>
</g>
<!-- Node2 -->
<g id="node2" class="node">
<title>Node2</title>
<g id="a_node2"><a xlink:title=" ">
<polygon fill="#e0e0e0" stroke="#999999" points="437.62,-378.88 392.38,-378.88 392.38,-359.62 437.62,-359.62 437.62,-378.88"/>
<text text-anchor="middle" x="415" y="-365.38" font-family="Helvetica,sans-Serif" font-size="10.00">atomic</text>
</a>
</g>
</g>
<!-- Node1&#45;&gt;Node2 -->
<g id="edge1" class="edge">
<title>Node1&#45;&gt;Node2</title>
<path fill="none" stroke="#63b8ff" d="M555.03,-619.64C518.93,-596.94 427.95,-533.16 399,-451 391.68,-430.21 398.98,-405.17 405.95,-388.54"/>
<polygon fill="#63b8ff" stroke="#63b8ff" points="409.36,-390.5 410.32,-379.95 402.99,-387.6 409.36,-390.5"/>
</g>
<!-- Node3 -->
<g id="node3" class="node">
<title>Node3</title>
<g id="a_node3"><a xlink:title=" ">
<polygon fill="#e0e0e0" stroke="#999999" points="1332.12,-74.5 1283.88,-74.5 1283.88,-55.25 1332.12,-55.25 1332.12,-74.5"/>
<text text-anchor="middle" x="1308" y="-61" font-family="Helvetica,sans-Serif" font-size="10.00">cstddef</text>
</a>
</g>
</g>
<!-- Node1&#45;&gt;Node3 -->
<g id="edge2" class="edge">
<title>Node1&#45;&gt;Node3</title>
<path fill="none" stroke="#63b8ff" d="M631.21,-628.58C739.45,-627.48 971.33,-620.6 1163,-584 1281.44,-561.39 1422,-623.83 1422,-503.25 1422,-503.25 1422,-503.25 1422,-174.38 1422,-128.74 1373.48,-96.47 1339.75,-79.55"/>
<polygon fill="#63b8ff" stroke="#63b8ff" points="1341.78,-76.16 1331.25,-74.99 1338.75,-82.47 1341.78,-76.16"/>
</g>
<!-- Node4 -->
<g id="node4" class="node">
<title>Node4</title>
<g id="a_node4"><a xlink:title=" ">
<polygon fill="#e0e0e0" stroke="#999999" points="1120.5,-312.38 1059.5,-312.38 1059.5,-293.12 1120.5,-293.12 1120.5,-312.38"/>
<text text-anchor="middle" x="1090" y="-298.88" font-family="Helvetica,sans-Serif" font-size="10.00">type_traits</text>
</a>
</g>
</g>
<!-- Node1&#45;&gt;Node4 -->
<g id="edge3" class="edge">
<title>Node1&#45;&gt;Node4</title>
<path fill="none" stroke="#63b8ff" d="M631.18,-627.55C774.9,-623.39 1122,-603 1122,-503.25 1122,-503.25 1122,-503.25 1122,-434.75 1122,-393.94 1107.16,-347.97 1097.7,-322.79"/>
<polygon fill="#63b8ff" stroke="#63b8ff" points="1100.69,-321.82 1093.8,-313.78 1094.16,-324.36 1100.69,-321.82"/>
</g>
<!-- Node5 -->
<g id="node5" class="node">
<title>Node5</title>
<g id="a_node5"><a xlink:href="api-constants_8h.html" target="_top" xlink:title=" ">
<polygon fill="white" stroke="#666666" points="447.25,-251.5 354.75,-251.5 354.75,-221 447.25,-221 447.25,-251.5"/>
<text text-anchor="start" x="362.75" y="-238" font-family="Helvetica,sans-Serif" font-size="10.00">cppgc/internal/api</text>
<text text-anchor="middle" x="401" y="-226.75" font-family="Helvetica,sans-Serif" font-size="10.00">&#45;constants.h</text>
</a>
</g>
</g>
<!-- Node1&#45;&gt;Node5 -->
<g id="edge4" class="edge">
<title>Node1&#45;&gt;Node5</title>
<path fill="none" stroke="#63b8ff" d="M539.54,-619.55C465.51,-595.58 277.18,-522.76 209,-384.5 176.7,-319.01 276.79,-274.57 344.37,-252.78"/>
<polygon fill="#63b8ff" stroke="#63b8ff" points="345,-255.94 353.5,-249.61 342.91,-249.26 345,-255.94"/>
</g>
<!-- Node7 -->
<g id="node7" class="node">
<title>Node7</title>
<g id="a_node7"><a xlink:href="v8config_8h.html" target="_top" xlink:title=" ">
<polygon fill="white" stroke="#666666" points="467.75,-74.5 408.25,-74.5 408.25,-55.25 467.75,-55.25 467.75,-74.5"/>
<text text-anchor="middle" x="438" y="-61" font-family="Helvetica,sans-Serif" font-size="10.00">v8config.h</text>
</a>
</g>
</g>
<!-- Node1&#45;&gt;Node7 -->
<g id="edge81" class="edge">
<title>Node1&#45;&gt;Node7</title>
<path fill="none" stroke="#63b8ff" d="M508.73,-627.99C361.51,-624.83 0,-606.54 0,-503.25 0,-503.25 0,-503.25 0,-174.38 0,-134.19 27.84,-128.04 64,-110.5 122.01,-82.37 312.55,-71.1 397.04,-67.4"/>
<polygon fill="#63b8ff" stroke="#63b8ff" points="397.15,-70.86 406.99,-66.94 396.85,-63.87 397.15,-70.86"/>
</g>
<!-- Node9 -->
<g id="node9" class="node">
<title>Node9</title>
<g id="a_node9"><a xlink:href="member-storage_8h.html" target="_top" xlink:title=" ">
<polygon fill="white" stroke="#666666" points="727.5,-451 612.5,-451 612.5,-420.5 727.5,-420.5 727.5,-451"/>
<text text-anchor="start" x="620.5" y="-437.5" font-family="Helvetica,sans-Serif" font-size="10.00">cppgc/internal/member</text>
<text text-anchor="middle" x="670" y="-426.25" font-family="Helvetica,sans-Serif" font-size="10.00">&#45;storage.h</text>
</a>
</g>
</g>
<!-- Node1&#45;&gt;Node9 -->
<g id="edge9" class="edge">
<title>Node1&#45;&gt;Node9</title>
<path fill="none" stroke="#63b8ff" d="M589.36,-619.62C603.53,-612.05 622.1,-599.93 633,-584 658.48,-546.78 666.43,-493.52 668.9,-462.29"/>
<polygon fill="#63b8ff" stroke="#63b8ff" points="672.45,-462.69 669.6,-452.49 665.46,-462.24 672.45,-462.69"/>
</g>
<!-- Node19 -->
<g id="node19" class="node">
<title>Node19</title>
<g id="a_node19"><a xlink:href="sentinel-pointer_8h.html" target="_top" xlink:title=" ">
<polygon fill="white" stroke="#666666" points="336.38,-378.88 217.62,-378.88 217.62,-359.62 336.38,-359.62 336.38,-378.88"/>
<text text-anchor="middle" x="277" y="-365.38" font-family="Helvetica,sans-Serif" font-size="10.00">cppgc/sentinel&#45;pointer.h</text>
</a>
</g>
</g>
<!-- Node1&#45;&gt;Node19 -->
<g id="edge79" class="edge">
<title>Node1&#45;&gt;Node19</title>
<path fill="none" stroke="#63b8ff" d="M542.7,-619.62C486.18,-599.43 356.57,-544.83 296,-451 284.06,-432.51 279.61,-407.32 277.95,-390.02"/>
<polygon fill="#63b8ff" stroke="#63b8ff" points="281.39,-389.98 277.19,-380.25 274.41,-390.47 281.39,-389.98"/>
</g>
<!-- Node20 -->
<g id="node20" class="node">
<title>Node20</title>
<g id="a_node20"><a xlink:href="pointer-policies_8h.html" target="_top" xlink:title=" ">
<polygon fill="white" stroke="#666666" points="624.5,-584 515.5,-584 515.5,-553.5 624.5,-553.5 624.5,-584"/>
<text text-anchor="start" x="523.5" y="-570.5" font-family="Helvetica,sans-Serif" font-size="10.00">cppgc/internal/pointer</text>
<text text-anchor="middle" x="570" y="-559.25" font-family="Helvetica,sans-Serif" font-size="10.00">&#45;policies.h</text>
</a>
</g>
</g>
<!-- Node1&#45;&gt;Node20 -->
<g id="edge37" class="edge">
<title>Node1&#45;&gt;Node20</title>
<path fill="none" stroke="#63b8ff" d="M570,-619.68C570,-613.15 570,-603.95 570,-595.22"/>
<polygon fill="#63b8ff" stroke="#63b8ff" points="573.5,-595.28 570,-585.28 566.5,-595.28 573.5,-595.28"/>
</g>
<!-- Node32 -->
<g id="node32" class="node">
<title>Node32</title>
<g id="a_node32"><a xlink:href="type-traits_8h.html" target="_top" xlink:title=" ">
<polygon fill="white" stroke="#666666" points="1245.75,-378.88 1150.25,-378.88 1150.25,-359.62 1245.75,-359.62 1245.75,-378.88"/>
<text text-anchor="middle" x="1198" y="-365.38" font-family="Helvetica,sans-Serif" font-size="10.00">cppgc/type&#45;traits.h</text>
</a>
</g>
</g>
<!-- Node1&#45;&gt;Node32 -->
<g id="edge80" class="edge">
<title>Node1&#45;&gt;Node32</title>
<path fill="none" stroke="#63b8ff" d="M631.18,-627.5C769.34,-624.44 1096.57,-614.07 1136,-584 1197.37,-537.19 1200.72,-433.29 1199.22,-389.89"/>
<polygon fill="#63b8ff" stroke="#63b8ff" points="1202.68,-389.96 1198.71,-380.14 1195.69,-390.3 1202.68,-389.96"/>
</g>
<!-- Node5&#45;&gt;Node3 -->
<g id="edge5" class="edge">
<title>Node5&#45;&gt;Node3</title>
<path fill="none" stroke="#63b8ff" d="M447.67,-230.06C472.68,-227.31 504.01,-223.91 532,-221 693.7,-204.21 735.19,-208.82 896,-185 1021.04,-166.48 1055.07,-169.71 1175,-129.75 1214.26,-116.67 1256.94,-94.66 1283.08,-80.2"/>
<polygon fill="#63b8ff" stroke="#63b8ff" points="1284.56,-82.82 1291.57,-74.88 1281.14,-76.72 1284.56,-82.82"/>
</g>
<!-- Node6 -->
<g id="node6" class="node">
<title>Node6</title>
<g id="a_node6"><a xlink:title=" ">
<polygon fill="#e0e0e0" stroke="#999999" points="178.62,-185 133.38,-185 133.38,-165.75 178.62,-165.75 178.62,-185"/>
<text text-anchor="middle" x="156" y="-171.5" font-family="Helvetica,sans-Serif" font-size="10.00">cstdint</text>
</a>
</g>
</g>
<!-- Node5&#45;&gt;Node6 -->
<g id="edge6" class="edge">
<title>Node5&#45;&gt;Node6</title>
<path fill="none" stroke="#63b8ff" d="M354.61,-224.58C313.87,-215.13 252.76,-200.79 189.62,-185.11"/>
<polygon fill="#63b8ff" stroke="#63b8ff" points="190.61,-181.5 180.06,-182.47 188.92,-188.29 190.61,-181.5"/>
</g>
<!-- Node5&#45;&gt;Node7 -->
<g id="edge7" class="edge">
<title>Node5&#45;&gt;Node7</title>
<path fill="none" stroke="#63b8ff" d="M394.45,-220.64C384.65,-196.52 369.06,-147.37 386,-110.5 391.51,-98.5 402.03,-88.52 412.16,-81.06"/>
<polygon fill="#63b8ff" stroke="#63b8ff" points="413.89,-83.43 420.21,-74.93 409.97,-77.64 413.89,-83.43"/>
</g>
<!-- Node8 -->
<g id="node8" class="node">
<title>Node8</title>
<g id="a_node8"><a xlink:title=" ">
<polygon fill="#e0e0e0" stroke="#999999" points="691.25,-19.25 640.75,-19.25 640.75,0 691.25,0 691.25,-19.25"/>
<text text-anchor="middle" x="666" y="-5.75" font-family="Helvetica,sans-Serif" font-size="10.00">memory</text>
</a>
</g>
</g>
<!-- Node7&#45;&gt;Node8 -->
<g id="edge8" class="edge">
<title>Node7&#45;&gt;Node8</title>
<path fill="none" stroke="#63b8ff" d="M467.81,-56.91C509.42,-47.19 584.87,-29.57 629.7,-19.1"/>
<polygon fill="#63b8ff" stroke="#63b8ff" points="630.46,-22.29 639.41,-16.6 628.87,-15.47 630.46,-22.29"/>
</g>
<!-- Node9&#45;&gt;Node2 -->
<g id="edge10" class="edge">
<title>Node9&#45;&gt;Node2</title>
<path fill="none" stroke="#63b8ff" d="M612.04,-423.71C567.77,-414.73 505.48,-400.87 452,-384.5 450.48,-384.03 448.93,-383.54 447.37,-383.02"/>
<polygon fill="#63b8ff" stroke="#63b8ff" points="448.72,-379.42 438.13,-379.36 446.37,-386.02 448.72,-379.42"/>
</g>
<!-- Node9&#45;&gt;Node3 -->
<g id="edge11" class="edge">
<title>Node9&#45;&gt;Node3</title>
<path fill="none" stroke="#63b8ff" d="M699.61,-420.07C754.39,-393.03 875.42,-333.91 979,-287.5 1086.34,-239.41 1124.03,-248.57 1223,-185 1253.5,-165.41 1262.54,-159.67 1283,-129.75 1292.36,-116.07 1298.93,-98.37 1302.98,-85.08"/>
<polygon fill="#63b8ff" stroke="#63b8ff" points="1306.55,-86.32 1305.9,-75.74 1299.81,-84.42 1306.55,-86.32"/>
</g>
<!-- Node9&#45;&gt;Node4 -->
<g id="edge12" class="edge">
<title>Node9&#45;&gt;Node4</title>
<path fill="none" stroke="#63b8ff" d="M716.96,-420.1C800.37,-394.09 972.9,-340.28 1050.58,-316.05"/>
<polygon fill="#63b8ff" stroke="#63b8ff" points="1051.38,-319.15 1059.89,-312.83 1049.3,-312.47 1051.38,-319.15"/>
</g>
<!-- Node9&#45;&gt;Node5 -->
<g id="edge13" class="edge">
<title>Node9&#45;&gt;Node5</title>
<path fill="none" stroke="#63b8ff" d="M633.82,-420.07C612.19,-410.81 584.45,-398.06 561,-384.5 540.72,-372.77 537.31,-367.28 518,-354 494.23,-337.65 485.14,-337.62 464,-318 445.42,-300.75 427.99,-277.67 416.2,-260.6"/>
<polygon fill="#63b8ff" stroke="#63b8ff" points="418.75,-259.13 410.25,-252.81 412.95,-263.05 418.75,-259.13"/>
</g>
<!-- Node9&#45;&gt;Node7 -->
<g id="edge36" class="edge">
<title>Node9&#45;&gt;Node7</title>
<path fill="none" stroke="#63b8ff" d="M612.06,-421.41C581.79,-413.14 544.74,-400.92 514,-384.5 430,-339.63 387.47,-337.23 346,-251.5 327.11,-212.45 350.91,-148.12 377,-110.5 385.56,-98.16 398.65,-87.94 410.51,-80.41"/>
<polygon fill="#63b8ff" stroke="#63b8ff" points="411.86,-83.08 418.66,-74.95 408.27,-77.07 411.86,-83.08"/>
</g>
<!-- Node10 -->
<g id="node10" class="node">
<title>Node10</title>
<g id="a_node10"><a xlink:href="caged-heap_8h.html" target="_top" xlink:title=" ">
<polygon fill="white" stroke="#666666" points="676,-384.5 570,-384.5 570,-354 676,-354 676,-384.5"/>
<text text-anchor="start" x="578" y="-371" font-family="Helvetica,sans-Serif" font-size="10.00">cppgc/internal/caged</text>
<text text-anchor="middle" x="623" y="-359.75" font-family="Helvetica,sans-Serif" font-size="10.00">&#45;heap.h</text>
</a>
</g>
</g>
<!-- Node9&#45;&gt;Node10 -->
<g id="edge14" class="edge">
<title>Node9&#45;&gt;Node10</title>
<path fill="none" stroke="#63b8ff" d="M659.33,-420.11C653.63,-412.28 646.46,-402.44 640,-393.58"/>
<polygon fill="#63b8ff" stroke="#63b8ff" points="642.34,-391.85 633.62,-385.83 636.68,-395.97 642.34,-391.85"/>
</g>
<!-- Node14 -->
<g id="node14" class="node">
<title>Node14</title>
<g id="a_node14"><a xlink:href="logging_8h.html" target="_top" xlink:title=" ">
<polygon fill="white" stroke="#666666" points="783,-245.88 665,-245.88 665,-226.62 783,-226.62 783,-245.88"/>
<text text-anchor="middle" x="724" y="-232.38" font-family="Helvetica,sans-Serif" font-size="10.00">cppgc/internal/logging.h</text>
</a>
</g>
</g>
<!-- Node9&#45;&gt;Node14 -->
<g id="edge32" class="edge">
<title>Node9&#45;&gt;Node14</title>
<path fill="none" stroke="#63b8ff" d="M689.47,-420.29C699.96,-411.28 711.96,-398.71 718,-384.5 736.03,-342.05 731.64,-286.38 727.47,-257.15"/>
<polygon fill="#63b8ff" stroke="#63b8ff" points="730.78,-256.68 725.76,-247.36 723.87,-257.78 730.78,-256.68"/>
</g>
<!-- Node9&#45;&gt;Node19 -->
<g id="edge33" class="edge">
<title>Node9&#45;&gt;Node19</title>
<path fill="none" stroke="#63b8ff" d="M612.01,-425.23C540.28,-413.46 418.43,-393.46 343.13,-381.1"/>
<polygon fill="#63b8ff" stroke="#63b8ff" points="343.8,-377.5 333.37,-379.34 342.67,-384.41 343.8,-377.5"/>
</g>
<!-- Node10&#45;&gt;Node3 -->
<g id="edge16" class="edge">
<title>Node10&#45;&gt;Node3</title>
<path fill="none" stroke="#63b8ff" d="M674.62,-353.53C738.14,-334.41 848.35,-297.91 936,-251.5 956.71,-240.54 957.34,-229.93 979,-221 1068.98,-183.9 1109.06,-230.67 1195,-185 1240.76,-160.68 1278.51,-110.84 1296.55,-83.98"/>
<polygon fill="#63b8ff" stroke="#63b8ff" points="1299.94,-86.2 1302.48,-75.91 1294.08,-82.37 1299.94,-86.2"/>
</g>
<!-- Node10&#45;&gt;Node5 -->
<g id="edge17" class="edge">
<title>Node10&#45;&gt;Node5</title>
<path fill="none" stroke="#63b8ff" d="M608.66,-353.81C590.64,-336.28 558.17,-306.71 526,-287.5 504.68,-274.77 479.54,-263.95 457.41,-255.66"/>
<polygon fill="#63b8ff" stroke="#63b8ff" points="458.75,-252.05 448.16,-251.9 456.35,-258.63 458.75,-252.05"/>
</g>
<!-- Node10&#45;&gt;Node7 -->
<g id="edge31" class="edge">
<title>Node10&#45;&gt;Node7</title>
<path fill="none" stroke="#63b8ff" d="M614.65,-353.61C604.14,-336.17 584.68,-306.93 562,-287.5 536.33,-265.51 518.51,-275.79 495,-251.5 472.05,-227.79 474.72,-215.44 462,-185 451.99,-161.04 448.28,-155.17 443,-129.75 439.95,-115.06 438.73,-98.12 438.25,-85.37"/>
<polygon fill="#63b8ff" stroke="#63b8ff" points="441.73,-85.56 437.99,-75.65 434.73,-85.73 441.73,-85.56"/>
</g>
<!-- Node11 -->
<g id="node11" class="node">
<title>Node11</title>
<g id="a_node11"><a xlink:title=" ">
<polygon fill="#e0e0e0" stroke="#999999" points="517.25,-312.38 472.75,-312.38 472.75,-293.12 517.25,-293.12 517.25,-312.38"/>
<text text-anchor="middle" x="495" y="-298.88" font-family="Helvetica,sans-Serif" font-size="10.00">climits</text>
</a>
</g>
</g>
<!-- Node10&#45;&gt;Node11 -->
<g id="edge15" class="edge">
<title>Node10&#45;&gt;Node11</title>
<path fill="none" stroke="#63b8ff" d="M593.95,-353.61C572.53,-342.82 543.57,-328.22 522.51,-317.61"/>
<polygon fill="#63b8ff" stroke="#63b8ff" points="524.39,-314.13 513.88,-312.76 521.24,-320.39 524.39,-314.13"/>
</g>
<!-- Node12 -->
<g id="node12" class="node">
<title>Node12</title>
<g id="a_node12"><a xlink:href="base-page-handle_8h.html" target="_top" xlink:title=" ">
<polygon fill="white" stroke="#666666" points="711.38,-318 610.62,-318 610.62,-287.5 711.38,-287.5 711.38,-318"/>
<text text-anchor="start" x="618.62" y="-304.5" font-family="Helvetica,sans-Serif" font-size="10.00">cppgc/internal/base</text>
<text text-anchor="middle" x="661" y="-293.25" font-family="Helvetica,sans-Serif" font-size="10.00">&#45;page&#45;handle.h</text>
</a>
</g>
</g>
<!-- Node10&#45;&gt;Node12 -->
<g id="edge18" class="edge">
<title>Node10&#45;&gt;Node12</title>
<path fill="none" stroke="#63b8ff" d="M631.62,-353.61C636.14,-345.94 641.79,-336.36 646.92,-327.65"/>
<polygon fill="#63b8ff" stroke="#63b8ff" points="650.35,-329.72 652.41,-319.33 644.32,-326.17 650.35,-329.72"/>
</g>
<!-- Node12&#45;&gt;Node5 -->
<g id="edge21" class="edge">
<title>Node12&#45;&gt;Node5</title>
<path fill="none" stroke="#63b8ff" d="M610.25,-289.16C566.61,-278.33 503.69,-262.73 458.26,-251.45"/>
<polygon fill="#63b8ff" stroke="#63b8ff" points="459.24,-247.84 448.69,-248.83 457.55,-254.64 459.24,-247.84"/>
</g>
<!-- Node12&#45;&gt;Node7 -->
<g id="edge30" class="edge">
<title>Node12&#45;&gt;Node7</title>
<path fill="none" stroke="#63b8ff" d="M610.3,-289.03C585.1,-281.04 555.16,-268.89 532,-251.5 480.22,-212.63 474.18,-190.58 452,-129.75 446.76,-115.36 443.15,-98.4 440.91,-85.58"/>
<polygon fill="#63b8ff" stroke="#63b8ff" points="444.22,-85.08 439.18,-75.76 437.31,-86.19 444.22,-85.08"/>
</g>
<!-- Node13 -->
<g id="node13" class="node">
<title>Node13</title>
<g id="a_node13"><a xlink:href="heap-handle_8h.html" target="_top" xlink:title=" ">
<polygon fill="white" stroke="#666666" points="646.62,-245.88 541.38,-245.88 541.38,-226.62 646.62,-226.62 646.62,-245.88"/>
<text text-anchor="middle" x="594" y="-232.38" font-family="Helvetica,sans-Serif" font-size="10.00">cppgc/heap&#45;handle.h</text>
</a>
</g>
</g>
<!-- Node12&#45;&gt;Node13 -->
<g id="edge19" class="edge">
<title>Node12&#45;&gt;Node13</title>
<path fill="none" stroke="#63b8ff" d="M645.8,-287.11C635.44,-277.14 621.71,-263.93 611,-253.61"/>
<polygon fill="#63b8ff" stroke="#63b8ff" points="613.8,-251.49 604.16,-247.07 608.94,-256.53 613.8,-251.49"/>
</g>
<!-- Node12&#45;&gt;Node14 -->
<g id="edge22" class="edge">
<title>Node12&#45;&gt;Node14</title>
<path fill="none" stroke="#63b8ff" d="M675.3,-287.11C684.94,-277.24 697.69,-264.19 707.72,-253.92"/>
<polygon fill="#63b8ff" stroke="#63b8ff" points="709.9,-256.67 714.38,-247.07 704.89,-251.78 709.9,-256.67"/>
</g>
<!-- Node13&#45;&gt;Node7 -->
<g id="edge20" class="edge">
<title>Node13&#45;&gt;Node7</title>
<path fill="none" stroke="#63b8ff" d="M567.79,-226.2C547.28,-218.04 519.13,-204.34 500,-185 471.14,-155.82 452.65,-110.44 443.92,-84.94"/>
<polygon fill="#63b8ff" stroke="#63b8ff" points="447.02,-84.17 440.59,-75.75 440.37,-86.34 447.02,-84.17"/>
</g>
<!-- Node14&#45;&gt;Node7 -->
<g id="edge29" class="edge">
<title>Node14&#45;&gt;Node7</title>
<path fill="none" stroke="#63b8ff" d="M685.79,-226.23C635.09,-214.06 550.51,-192.99 538,-185 527.07,-178.02 476.26,-114.48 451.56,-83.16"/>
<polygon fill="#63b8ff" stroke="#63b8ff" points="454.01,-81.61 445.07,-75.91 448.5,-85.94 454.01,-81.61"/>
</g>
<!-- Node15 -->
<g id="node15" class="node">
<title>Node15</title>
<g id="a_node15"><a xlink:href="source-location_8h.html" target="_top" xlink:title=" ">
<polygon fill="white" stroke="#666666" points="1166.38,-185 1047.62,-185 1047.62,-165.75 1166.38,-165.75 1166.38,-185"/>
<text text-anchor="middle" x="1107" y="-171.5" font-family="Helvetica,sans-Serif" font-size="10.00">cppgc/source&#45;location.h</text>
</a>
</g>
</g>
<!-- Node14&#45;&gt;Node15 -->
<g id="edge23" class="edge">
<title>Node14&#45;&gt;Node15</title>
<path fill="none" stroke="#63b8ff" d="M783,-226.18C851.6,-215.63 964.69,-198.25 1037.49,-187.06"/>
<polygon fill="#63b8ff" stroke="#63b8ff" points="1037.58,-190.43 1046.93,-185.46 1036.51,-183.52 1037.58,-190.43"/>
</g>
<!-- Node16 -->
<g id="node16" class="node">
<title>Node16</title>
<g id="a_node16"><a xlink:href="v8-source-location_8h.html" target="_top" xlink:title=" ">
<polygon fill="white" stroke="#666666" points="1165.5,-129.75 1062.5,-129.75 1062.5,-110.5 1165.5,-110.5 1165.5,-129.75"/>
<text text-anchor="middle" x="1114" y="-116.25" font-family="Helvetica,sans-Serif" font-size="10.00">v8&#45;source&#45;location.h</text>
</a>
</g>
</g>
<!-- Node15&#45;&gt;Node16 -->
<g id="edge24" class="edge">
<title>Node15&#45;&gt;Node16</title>
<path fill="none" stroke="#63b8ff" d="M1108.16,-165.58C1109.04,-158.84 1110.3,-149.27 1111.42,-140.74"/>
<polygon fill="#63b8ff" stroke="#63b8ff" points="1114.99,-141.48 1112.82,-131.11 1108.05,-140.57 1114.99,-141.48"/>
</g>
<!-- Node16&#45;&gt;Node3 -->
<g id="edge25" class="edge">
<title>Node16&#45;&gt;Node3</title>
<path fill="none" stroke="#63b8ff" d="M1146.91,-110.09C1181.98,-100.46 1237.29,-85.28 1273.1,-75.45"/>
<polygon fill="#63b8ff" stroke="#63b8ff" points="1273.83,-78.61 1282.55,-72.59 1271.98,-71.86 1273.83,-78.61"/>
</g>
<!-- Node16&#45;&gt;Node7 -->
<g id="edge28" class="edge">
<title>Node16&#45;&gt;Node7</title>
<path fill="none" stroke="#63b8ff" d="M1062.12,-111.54C1059.03,-111.17 1055.98,-110.82 1053,-110.5 837.25,-87.45 577.61,-72.92 478.83,-67.88"/>
<polygon fill="#63b8ff" stroke="#63b8ff" points="479.31,-64.34 469.14,-67.33 478.95,-71.34 479.31,-64.34"/>
</g>
<!-- Node17 -->
<g id="node17" class="node">
<title>Node17</title>
<g id="a_node17"><a xlink:title=" ">
<polygon fill="#e0e0e0" stroke="#999999" points="1156.12,-74.5 1071.88,-74.5 1071.88,-55.25 1156.12,-55.25 1156.12,-74.5"/>
<text text-anchor="middle" x="1114" y="-61" font-family="Helvetica,sans-Serif" font-size="10.00">source_location</text>
</a>
</g>
</g>
<!-- Node16&#45;&gt;Node17 -->
<g id="edge26" class="edge">
<title>Node16&#45;&gt;Node17</title>
<path fill="none" stroke="#63b8ff" d="M1114,-110.33C1114,-103.67 1114,-94.24 1114,-85.78"/>
<polygon fill="#63b8ff" stroke="#63b8ff" points="1117.5,-85.86 1114,-75.86 1110.5,-85.86 1117.5,-85.86"/>
</g>
<!-- Node18 -->
<g id="node18" class="node">
<title>Node18</title>
<g id="a_node18"><a xlink:title=" ">
<polygon fill="#e0e0e0" stroke="#999999" points="894,-74.5 854,-74.5 854,-55.25 894,-55.25 894,-74.5"/>
<text text-anchor="middle" x="874" y="-61" font-family="Helvetica,sans-Serif" font-size="10.00">string</text>
</a>
</g>
</g>
<!-- Node16&#45;&gt;Node18 -->
<g id="edge27" class="edge">
<title>Node16&#45;&gt;Node18</title>
<path fill="none" stroke="#63b8ff" d="M1073.02,-110.03C1025.33,-99.45 947.68,-82.22 904.83,-72.72"/>
<polygon fill="#63b8ff" stroke="#63b8ff" points="905.75,-69.11 895.22,-70.36 904.23,-75.95 905.75,-69.11"/>
</g>
<!-- Node19&#45;&gt;Node5 -->
<g id="edge35" class="edge">
<title>Node19&#45;&gt;Node5</title>
<path fill="none" stroke="#63b8ff" d="M285.52,-359.25C304.83,-338.85 352.36,-288.63 380.06,-259.38"/>
<polygon fill="#63b8ff" stroke="#63b8ff" points="381.97,-262.39 386.3,-252.72 376.88,-257.58 381.97,-262.39"/>
</g>
<!-- Node19&#45;&gt;Node6 -->
<g id="edge34" class="edge">
<title>Node19&#45;&gt;Node6</title>
<path fill="none" stroke="#63b8ff" d="M271.33,-359.25C252.59,-329.54 192.43,-234.15 167.25,-194.22"/>
<polygon fill="#63b8ff" stroke="#63b8ff" points="169.82,-192.72 161.52,-186.13 163.9,-196.46 169.82,-192.72"/>
</g>
<!-- Node20&#45;&gt;Node4 -->
<g id="edge39" class="edge">
<title>Node20&#45;&gt;Node4</title>
<path fill="none" stroke="#63b8ff" d="M625,-566.99C699.92,-564.5 837.41,-554.7 948,-517.5 1004.69,-498.43 1030.68,-499.99 1065,-451 1092.2,-412.17 1093.3,-353.71 1091.71,-323.45"/>
<polygon fill="#63b8ff" stroke="#63b8ff" points="1095.14,-323.41 1090.96,-313.68 1088.16,-323.9 1095.14,-323.41"/>
</g>
<!-- Node20&#45;&gt;Node6 -->
<g id="edge38" class="edge">
<title>Node20&#45;&gt;Node6</title>
<path fill="none" stroke="#63b8ff" d="M515.45,-568.32C394.41,-566.46 114,-543.44 114,-370.25 114,-370.25 114,-370.25 114,-301.75 114,-262.14 133.09,-218.96 145.53,-195.02"/>
<polygon fill="#63b8ff" stroke="#63b8ff" points="149.02,-196.92 150.68,-186.46 142.85,-193.6 149.02,-196.92"/>
</g>
<!-- Node20&#45;&gt;Node7 -->
<g id="edge78" class="edge">
<title>Node20&#45;&gt;Node7</title>
<path fill="none" stroke="#63b8ff" d="M515.06,-565.15C421.55,-559.99 235.96,-546.37 178,-517.5 165.21,-511.13 38,-371.34 38,-370.25 38,-370.25 38,-370.25 38,-174.38 38,-129.22 75.57,-128.46 117,-110.5 166.53,-89.03 322.18,-74.67 397.02,-68.83"/>
<polygon fill="#63b8ff" stroke="#63b8ff" points="397.18,-72.25 406.88,-68 396.64,-65.27 397.18,-72.25"/>
</g>
<!-- Node20&#45;&gt;Node9 -->
<g id="edge40" class="edge">
<title>Node20&#45;&gt;Node9</title>
<path fill="none" stroke="#63b8ff" d="M583.17,-553.1C591.87,-543.24 603.41,-529.82 613,-517.5 627.62,-498.71 643.14,-476.56 654.29,-460.22"/>
<polygon fill="#63b8ff" stroke="#63b8ff" points="657.59,-462.58 660.3,-452.34 651.8,-458.65 657.59,-462.58"/>
</g>
<!-- Node20&#45;&gt;Node15 -->
<g id="edge76" class="edge">
<title>Node20&#45;&gt;Node15</title>
<path fill="none" stroke="#63b8ff" d="M624.81,-559.35C695.91,-546.25 821.11,-515.44 908,-451 1005.62,-378.6 1075.2,-244.4 1098.48,-195.14"/>
<polygon fill="#63b8ff" stroke="#63b8ff" points="1102.04,-196.79 1103.07,-186.24 1095.69,-193.84 1102.04,-196.79"/>
</g>
<!-- Node20&#45;&gt;Node19 -->
<g id="edge75" class="edge">
<title>Node20&#45;&gt;Node19</title>
<path fill="none" stroke="#63b8ff" d="M516.85,-553.05C462.79,-535.9 379.19,-503.06 323,-451 304.37,-433.74 291.26,-407.17 283.92,-389.27"/>
<polygon fill="#63b8ff" stroke="#63b8ff" points="286.89,-388.24 280.02,-380.17 280.36,-390.76 286.89,-388.24"/>
</g>
<!-- Node21 -->
<g id="node21" class="node">
<title>Node21</title>
<g id="a_node21"><a xlink:href="write-barrier_8h.html" target="_top" xlink:title=" ">
<polygon fill="white" stroke="#666666" points="604.38,-517.5 503.62,-517.5 503.62,-487 604.38,-487 604.38,-517.5"/>
<text text-anchor="start" x="511.62" y="-504" font-family="Helvetica,sans-Serif" font-size="10.00">cppgc/internal/write</text>
<text text-anchor="middle" x="554" y="-492.75" font-family="Helvetica,sans-Serif" font-size="10.00">&#45;barrier.h</text>
</a>
</g>
</g>
<!-- Node20&#45;&gt;Node21 -->
<g id="edge41" class="edge">
<title>Node20&#45;&gt;Node21</title>
<path fill="none" stroke="#63b8ff" d="M566.37,-553.11C564.55,-545.77 562.29,-536.68 560.21,-528.27"/>
<polygon fill="#63b8ff" stroke="#63b8ff" points="563.42,-527.69 557.62,-518.83 556.63,-529.38 563.42,-527.69"/>
</g>
<!-- Node20&#45;&gt;Node32 -->
<g id="edge77" class="edge">
<title>Node20&#45;&gt;Node32</title>
<path fill="none" stroke="#63b8ff" d="M624.7,-568.33C743.15,-568.66 1019.06,-564.24 1098,-517.5 1148.19,-487.79 1178.73,-421.84 1191.31,-389.25"/>
<polygon fill="#63b8ff" stroke="#63b8ff" points="1194.83,-390.81 1195.02,-380.22 1188.27,-388.39 1194.83,-390.81"/>
</g>
<!-- Node21&#45;&gt;Node3 -->
<g id="edge42" class="edge">
<title>Node21&#45;&gt;Node3</title>
<path fill="none" stroke="#63b8ff" d="M604.5,-495.95C653.96,-489.54 730.74,-476.3 793,-451 918.76,-399.89 931.62,-352.13 1051,-287.5 1084.93,-269.13 1095.54,-268.86 1130,-251.5 1184.45,-224.06 1201.86,-222.43 1250,-185 1276.62,-164.3 1288.12,-160.48 1302,-129.75 1308.32,-115.76 1309.57,-98.32 1309.39,-85.2"/>
<polygon fill="#63b8ff" stroke="#63b8ff" points="1312.85,-85.42 1308.91,-75.59 1305.86,-85.74 1312.85,-85.42"/>
</g>
<!-- Node21&#45;&gt;Node5 -->
<g id="edge47" class="edge">
<title>Node21&#45;&gt;Node5</title>
<path fill="none" stroke="#63b8ff" d="M550.86,-486.79C546.8,-470.02 538.72,-441.94 526,-420.5 494.62,-367.59 465.52,-370.21 433,-318 422.18,-300.63 413.84,-278.99 408.39,-262.48"/>
<polygon fill="#63b8ff" stroke="#63b8ff" points="411.43,-261.48 405.09,-252.99 404.75,-263.58 411.43,-261.48"/>
</g>
<!-- Node21&#45;&gt;Node6 -->
<g id="edge43" class="edge">
<title>Node21&#45;&gt;Node6</title>
<path fill="none" stroke="#63b8ff" d="M503.15,-500.74C425.43,-496.91 278.76,-477.02 209,-384.5 165.15,-326.35 157.36,-235.77 156.13,-196.11"/>
<polygon fill="#63b8ff" stroke="#63b8ff" points="159.62,-196.25 155.93,-186.32 152.62,-196.39 159.62,-196.25"/>
</g>
<!-- Node21&#45;&gt;Node7 -->
<g id="edge74" class="edge">
<title>Node21&#45;&gt;Node7</title>
<path fill="none" stroke="#63b8ff" d="M503.3,-498.13C380.28,-489.17 76,-458.12 76,-370.25 76,-370.25 76,-370.25 76,-174.38 76,-108.02 302.01,-78.78 396.86,-69.44"/>
<polygon fill="#63b8ff" stroke="#63b8ff" points="397.14,-72.83 406.76,-68.39 396.47,-65.86 397.14,-72.83"/>
</g>
<!-- Node21&#45;&gt;Node9 -->
<g id="edge51" class="edge">
<title>Node21&#45;&gt;Node9</title>
<path fill="none" stroke="#63b8ff" d="M580.32,-486.61C596.34,-477.71 617.01,-466.22 634.46,-456.51"/>
<polygon fill="#63b8ff" stroke="#63b8ff" points="635.74,-459.25 642.78,-451.33 632.34,-453.13 635.74,-459.25"/>
</g>
<!-- Node21&#45;&gt;Node12 -->
<g id="edge50" class="edge">
<title>Node21&#45;&gt;Node12</title>
<path fill="none" stroke="#63b8ff" d="M559.64,-486.57C567.13,-468.8 581.91,-438.98 603,-420.5 632.94,-394.27 663.24,-417.82 685,-384.5 696.3,-367.2 687.82,-344.4 677.95,-327.44"/>
<polygon fill="#63b8ff" stroke="#63b8ff" points="680.42,-325.8 672.11,-319.22 674.5,-329.54 680.42,-325.8"/>
</g>
<!-- Node21&#45;&gt;Node13 -->
<g id="edge44" class="edge">
<title>Node21&#45;&gt;Node13</title>
<path fill="none" stroke="#63b8ff" d="M604.43,-494.23C652.57,-486.37 720.07,-471.93 736,-451 760.32,-419.06 803.84,-396.54 720,-287.5 709.49,-273.83 669.77,-259.36 637.7,-249.47"/>
<polygon fill="#63b8ff" stroke="#63b8ff" points="638.76,-245.83 628.17,-246.3 636.74,-252.54 638.76,-245.83"/>
</g>
<!-- Node21&#45;&gt;Node19 -->
<g id="edge66" class="edge">
<title>Node21&#45;&gt;Node19</title>
<path fill="none" stroke="#63b8ff" d="M503.28,-494.39C463.99,-487.54 409.16,-474.52 366,-451 335.77,-434.53 307.54,-405.74 291.28,-387.36"/>
<polygon fill="#63b8ff" stroke="#63b8ff" points="293.49,-385.56 284.31,-380.27 288.19,-390.13 293.49,-385.56"/>
</g>
<!-- Node22 -->
<g id="node22" class="node">
<title>Node22</title>
<g id="a_node22"><a xlink:href="heap-state_8h.html" target="_top" xlink:title=" ">
<polygon fill="white" stroke="#666666" points="296.25,-185 197.75,-185 197.75,-165.75 296.25,-165.75 296.25,-185"/>
<text text-anchor="middle" x="247" y="-171.5" font-family="Helvetica,sans-Serif" font-size="10.00">cppgc/heap&#45;state.h</text>
</a>
</g>
</g>
<!-- Node21&#45;&gt;Node22 -->
<g id="edge45" class="edge">
<title>Node21&#45;&gt;Node22</title>
<path fill="none" stroke="#63b8ff" d="M503.32,-494.61C470.58,-488.12 428.69,-475.47 399,-451 398.29,-450.42 291.03,-256.15 257.14,-194.75"/>
<polygon fill="#63b8ff" stroke="#63b8ff" points="259.93,-193.55 252.03,-186.49 253.8,-196.94 259.93,-193.55"/>
</g>
<!-- Node23 -->
<g id="node23" class="node">
<title>Node23</title>
<g id="a_node23"><a xlink:href="atomic-entry-flag_8h.html" target="_top" xlink:title=" ">
<polygon fill="white" stroke="#666666" points="517.5,-451 408.5,-451 408.5,-420.5 517.5,-420.5 517.5,-451"/>
<text text-anchor="start" x="416.5" y="-437.5" font-family="Helvetica,sans-Serif" font-size="10.00">cppgc/internal/atomic</text>
<text text-anchor="middle" x="463" y="-426.25" font-family="Helvetica,sans-Serif" font-size="10.00">&#45;entry&#45;flag.h</text>
</a>
</g>
</g>
<!-- Node21&#45;&gt;Node23 -->
<g id="edge48" class="edge">
<title>Node21&#45;&gt;Node23</title>
<path fill="none" stroke="#63b8ff" d="M533.35,-486.61C521.25,-478.04 505.77,-467.06 492.41,-457.59"/>
<polygon fill="#63b8ff" stroke="#63b8ff" points="494.75,-454.26 484.57,-451.33 490.7,-459.97 494.75,-454.26"/>
</g>
<!-- Node24 -->
<g id="node24" class="node">
<title>Node24</title>
<g id="a_node24"><a xlink:href="platform_8h.html" target="_top" xlink:title=" ">
<polygon fill="white" stroke="#666666" points="927,-245.88 839,-245.88 839,-226.62 927,-226.62 927,-245.88"/>
<text text-anchor="middle" x="883" y="-232.38" font-family="Helvetica,sans-Serif" font-size="10.00">cppgc/platform.h</text>
</a>
</g>
</g>
<!-- Node21&#45;&gt;Node24 -->
<g id="edge52" class="edge">
<title>Node21&#45;&gt;Node24</title>
<path fill="none" stroke="#63b8ff" d="M604.56,-500.12C649.91,-496.72 716.18,-485.57 762,-451 829.69,-399.93 865.22,-299.24 877.72,-256.82"/>
<polygon fill="#63b8ff" stroke="#63b8ff" points="881.35,-257.85 880.7,-247.28 874.61,-255.95 881.35,-257.85"/>
</g>
<!-- Node31 -->
<g id="node31" class="node">
<title>Node31</title>
<g id="a_node31"><a xlink:href="trace-trait_8h.html" target="_top" xlink:title=" ">
<polygon fill="white" stroke="#666666" points="1056,-445.38 962,-445.38 962,-426.12 1056,-426.12 1056,-445.38"/>
<text text-anchor="middle" x="1009" y="-431.88" font-family="Helvetica,sans-Serif" font-size="10.00">cppgc/trace&#45;trait.h</text>
</a>
</g>
</g>
<!-- Node21&#45;&gt;Node31 -->
<g id="edge67" class="edge">
<title>Node21&#45;&gt;Node31</title>
<path fill="none" stroke="#63b8ff" d="M604.87,-494.04C690.02,-481.97 860.89,-457.75 950.73,-445.01"/>
<polygon fill="#63b8ff" stroke="#63b8ff" points="951.13,-448.35 960.54,-443.48 950.15,-441.42 951.13,-448.35"/>
</g>
<!-- Node22&#45;&gt;Node7 -->
<g id="edge46" class="edge">
<title>Node22&#45;&gt;Node7</title>
<path fill="none" stroke="#63b8ff" d="M253.4,-165.69C263.83,-152.11 285.78,-125.82 310,-110.5 336.92,-93.48 371.16,-81.98 397.45,-74.92"/>
<polygon fill="#63b8ff" stroke="#63b8ff" points="398.01,-78.14 406.82,-72.26 396.26,-71.36 398.01,-78.14"/>
</g>
<!-- Node23&#45;&gt;Node2 -->
<g id="edge49" class="edge">
<title>Node23&#45;&gt;Node2</title>
<path fill="none" stroke="#63b8ff" d="M452.11,-420.11C444.98,-410.54 435.63,-397.97 428.1,-387.85"/>
<polygon fill="#63b8ff" stroke="#63b8ff" points="430.34,-386.01 421.57,-380.07 424.73,-390.18 430.34,-386.01"/>
</g>
<!-- Node24&#45;&gt;Node7 -->
<g id="edge65" class="edge">
<title>Node24&#45;&gt;Node7</title>
<path fill="none" stroke="#63b8ff" d="M856.07,-226.15C805.85,-208.94 694.74,-169.75 604,-129.75 586.68,-122.11 583.42,-117.91 566,-110.5 537.1,-98.21 503.55,-86.61 478.05,-78.31"/>
<polygon fill="#63b8ff" stroke="#63b8ff" points="479.25,-74.7 468.65,-74.97 477.1,-81.36 479.25,-74.7"/>
</g>
<!-- Node24&#45;&gt;Node8 -->
<g id="edge53" class="edge">
<title>Node24&#45;&gt;Node8</title>
<path fill="none" stroke="#63b8ff" d="M917.85,-226.16C925.45,-224.32 933.48,-222.5 941,-221 992.6,-210.71 1140.74,-224.93 1175,-185 1212.66,-141.1 1207.69,-94.27 1165,-55.25 1131.01,-24.19 811.83,-13.98 702.52,-11.38"/>
<polygon fill="#63b8ff" stroke="#63b8ff" points="702.8,-7.86 692.72,-11.13 702.64,-14.86 702.8,-7.86"/>
</g>
<!-- Node24&#45;&gt;Node15 -->
<g id="edge54" class="edge">
<title>Node24&#45;&gt;Node15</title>
<path fill="none" stroke="#63b8ff" d="M917.51,-226.18C956.23,-216 1019.19,-199.45 1061.81,-188.25"/>
<polygon fill="#63b8ff" stroke="#63b8ff" points="1062.67,-191.38 1071.45,-185.46 1060.89,-184.61 1062.67,-191.38"/>
</g>
<!-- Node25 -->
<g id="node25" class="node">
<title>Node25</title>
<g id="a_node25"><a xlink:href="v8-platform_8h.html" target="_top" xlink:title=" ">
<polygon fill="white" stroke="#666666" points="887.12,-185 814.88,-185 814.88,-165.75 887.12,-165.75 887.12,-185"/>
<text text-anchor="middle" x="851" y="-171.5" font-family="Helvetica,sans-Serif" font-size="10.00">v8&#45;platform.h</text>
</a>
</g>
</g>
<!-- Node24&#45;&gt;Node25 -->
<g id="edge55" class="edge">
<title>Node24&#45;&gt;Node25</title>
<path fill="none" stroke="#63b8ff" d="M878.14,-226.31C873.63,-218.01 866.77,-205.39 861.08,-194.92"/>
<polygon fill="#63b8ff" stroke="#63b8ff" points="863.76,-193.52 855.91,-186.4 857.61,-196.86 863.76,-193.52"/>
</g>
<!-- Node25&#45;&gt;Node7 -->
<g id="edge64" class="edge">
<title>Node25&#45;&gt;Node7</title>
<path fill="none" stroke="#63b8ff" d="M814.59,-168.03C774.33,-160.6 707.79,-147.07 652,-129.75 630.05,-122.94 625.8,-117.77 604,-110.5 561.72,-96.4 512.28,-83.56 478.42,-75.31"/>
<polygon fill="#63b8ff" stroke="#63b8ff" points="479.55,-71.74 469,-72.8 477.9,-78.55 479.55,-71.74"/>
</g>
<!-- Node25&#45;&gt;Node8 -->
<g id="edge60" class="edge">
<title>Node25&#45;&gt;Node8</title>
<path fill="none" stroke="#63b8ff" d="M814.39,-170.98C784.03,-166.35 741.51,-155.45 714,-129.75 685.3,-102.95 673.37,-56.65 668.72,-30.36"/>
<polygon fill="#63b8ff" stroke="#63b8ff" points="672.03,-29.87 667.02,-20.53 665.12,-30.95 672.03,-29.87"/>
</g>
<!-- Node25&#45;&gt;Node16 -->
<g id="edge63" class="edge">
<title>Node25&#45;&gt;Node16</title>
<path fill="none" stroke="#63b8ff" d="M887.57,-166.97C931.84,-158.01 1006.86,-142.82 1058.33,-132.4"/>
<polygon fill="#63b8ff" stroke="#63b8ff" points="1058.83,-135.66 1067.94,-130.25 1057.44,-128.8 1058.83,-135.66"/>
</g>
<!-- Node25&#45;&gt;Node18 -->
<g id="edge62" class="edge">
<title>Node25&#45;&gt;Node18</title>
<path fill="none" stroke="#63b8ff" d="M814.44,-169.94C767.95,-162.77 696.69,-145.71 723,-110.5 750.61,-73.55 807.43,-65.92 842.95,-65.02"/>
<polygon fill="#63b8ff" stroke="#63b8ff" points="842.7,-68.51 852.67,-64.93 842.64,-61.51 842.7,-68.51"/>
</g>
<!-- Node26 -->
<g id="node26" class="node">
<title>Node26</title>
<g id="a_node26"><a xlink:title=" ">
<polygon fill="#e0e0e0" stroke="#999999" points="845.62,-129.75 800.38,-129.75 800.38,-110.5 845.62,-110.5 845.62,-129.75"/>
<text text-anchor="middle" x="823" y="-116.25" font-family="Helvetica,sans-Serif" font-size="10.00">math.h</text>
</a>
</g>
</g>
<!-- Node25&#45;&gt;Node26 -->
<g id="edge56" class="edge">
<title>Node25&#45;&gt;Node26</title>
<path fill="none" stroke="#63b8ff" d="M846.38,-165.58C842.67,-158.53 837.34,-148.4 832.71,-139.58"/>
<polygon fill="#63b8ff" stroke="#63b8ff" points="835.48,-138.33 827.72,-131.11 829.28,-141.59 835.48,-138.33"/>
</g>
<!-- Node27 -->
<g id="node27" class="node">
<title>Node27</title>
<g id="a_node27"><a xlink:title=" ">
<polygon fill="#e0e0e0" stroke="#999999" points="914.25,-129.75 863.75,-129.75 863.75,-110.5 914.25,-110.5 914.25,-129.75"/>
<text text-anchor="middle" x="889" y="-116.25" font-family="Helvetica,sans-Serif" font-size="10.00">stddef.h</text>
</a>
</g>
</g>
<!-- Node25&#45;&gt;Node27 -->
<g id="edge57" class="edge">
<title>Node25&#45;&gt;Node27</title>
<path fill="none" stroke="#63b8ff" d="M857.27,-165.58C862.41,-158.38 869.85,-147.96 876.24,-139.01"/>
<polygon fill="#63b8ff" stroke="#63b8ff" points="879.63,-141.28 882.59,-131.11 873.93,-137.22 879.63,-141.28"/>
</g>
<!-- Node28 -->
<g id="node28" class="node">
<title>Node28</title>
<g id="a_node28"><a xlink:title=" ">
<polygon fill="#e0e0e0" stroke="#999999" points="979.75,-129.75 932.25,-129.75 932.25,-110.5 979.75,-110.5 979.75,-129.75"/>
<text text-anchor="middle" x="956" y="-116.25" font-family="Helvetica,sans-Serif" font-size="10.00">stdint.h</text>
</a>
</g>
</g>
<!-- Node25&#45;&gt;Node28 -->
<g id="edge58" class="edge">
<title>Node25&#45;&gt;Node28</title>
<path fill="none" stroke="#63b8ff" d="M868.81,-165.34C885.1,-157.08 909.46,-144.73 928.29,-135.18"/>
<polygon fill="#63b8ff" stroke="#63b8ff" points="929.77,-137.85 937.1,-130.2 926.6,-131.6 929.77,-137.85"/>
</g>
<!-- Node29 -->
<g id="node29" class="node">
<title>Node29</title>
<g id="a_node29"><a xlink:title=" ">
<polygon fill="#e0e0e0" stroke="#999999" points="1044.38,-129.75 997.62,-129.75 997.62,-110.5 1044.38,-110.5 1044.38,-129.75"/>
<text text-anchor="middle" x="1021" y="-116.25" font-family="Helvetica,sans-Serif" font-size="10.00">stdlib.h</text>
</a>
</g>
</g>
<!-- Node25&#45;&gt;Node29 -->
<g id="edge59" class="edge">
<title>Node25&#45;&gt;Node29</title>
<path fill="none" stroke="#63b8ff" d="M879.84,-165.34C909.41,-156.08 955.4,-141.67 986.8,-131.84"/>
<polygon fill="#63b8ff" stroke="#63b8ff" points="987.74,-134.9 996.24,-128.57 985.65,-128.22 987.74,-134.9"/>
</g>
<!-- Node30 -->
<g id="node30" class="node">
<title>Node30</title>
<g id="a_node30"><a xlink:title=" ">
<polygon fill="#e0e0e0" stroke="#999999" points="781.88,-129.75 732.12,-129.75 732.12,-110.5 781.88,-110.5 781.88,-129.75"/>
<text text-anchor="middle" x="757" y="-116.25" font-family="Helvetica,sans-Serif" font-size="10.00">optional</text>
</a>
</g>
</g>
<!-- Node25&#45;&gt;Node30 -->
<g id="edge61" class="edge">
<title>Node25&#45;&gt;Node30</title>
<path fill="none" stroke="#63b8ff" d="M835.05,-165.34C820.6,-157.16 799.07,-144.96 782.27,-135.44"/>
<polygon fill="#63b8ff" stroke="#63b8ff" points="784.45,-132.09 774.02,-130.2 781,-138.18 784.45,-132.09"/>
</g>
<!-- Node31&#45;&gt;Node4 -->
<g id="edge68" class="edge">
<title>Node31&#45;&gt;Node4</title>
<path fill="none" stroke="#63b8ff" d="M1014.57,-425.75C1027.75,-404.43 1061.06,-350.55 1078.68,-322.06"/>
<polygon fill="#63b8ff" stroke="#63b8ff" points="1082.11,-324.16 1084.39,-313.82 1076.16,-320.48 1082.11,-324.16"/>
</g>
<!-- Node31&#45;&gt;Node7 -->
<g id="edge73" class="edge">
<title>Node31&#45;&gt;Node7</title>
<path fill="none" stroke="#63b8ff" d="M1000.35,-425.79C963.09,-387.25 816.93,-236.74 792,-221 752.42,-196 736.49,-202.35 693,-185 635.83,-162.19 621.78,-155.78 566,-129.75 530.63,-113.25 490.46,-92.94 464.7,-79.71"/>
<polygon fill="#63b8ff" stroke="#63b8ff" points="466.74,-76.31 456.25,-74.84 463.54,-82.53 466.74,-76.31"/>
</g>
<!-- Node31&#45;&gt;Node32 -->
<g id="edge69" class="edge">
<title>Node31&#45;&gt;Node32</title>
<path fill="none" stroke="#63b8ff" d="M1035.68,-425.65C1068.46,-414.46 1124.27,-395.41 1161.13,-382.83"/>
<polygon fill="#63b8ff" stroke="#63b8ff" points="1162.12,-385.85 1170.46,-379.31 1159.86,-379.23 1162.12,-385.85"/>
</g>
<!-- Node32&#45;&gt;Node3 -->
<g id="edge70" class="edge">
<title>Node32&#45;&gt;Node3</title>
<path fill="none" stroke="#63b8ff" d="M1237.9,-359.14C1292.55,-344.03 1384,-308.15 1384,-237.25 1384,-237.25 1384,-237.25 1384,-174.38 1384,-144.05 1377.39,-135.35 1360,-110.5 1352.17,-99.31 1340.9,-89.17 1330.85,-81.41"/>
<polygon fill="#63b8ff" stroke="#63b8ff" points="1333.23,-78.08 1323.1,-74.97 1329.08,-83.72 1333.23,-78.08"/>
</g>
<!-- Node32&#45;&gt;Node4 -->
<g id="edge71" class="edge">
<title>Node32&#45;&gt;Node4</title>
<path fill="none" stroke="#63b8ff" d="M1182.98,-359.28C1165.27,-348.7 1135.58,-330.97 1114.51,-318.39"/>
<polygon fill="#63b8ff" stroke="#63b8ff" points="1116.62,-314.97 1106.24,-312.85 1113.03,-320.98 1116.62,-314.97"/>
</g>
<!-- Node33 -->
<g id="node33" class="node">
<title>Node33</title>
<g id="a_node33"><a xlink:title=" ">
<polygon fill="#e0e0e0" stroke="#999999" points="1217.25,-312.38 1178.75,-312.38 1178.75,-293.12 1217.25,-293.12 1217.25,-312.38"/>
<text text-anchor="middle" x="1198" y="-298.88" font-family="Helvetica,sans-Serif" font-size="10.00">utility</text>
</a>
</g>
</g>
<!-- Node32&#45;&gt;Node33 -->
<g id="edge72" class="edge">
<title>Node32&#45;&gt;Node33</title>
<path fill="none" stroke="#63b8ff" d="M1198,-359.28C1198,-350.04 1198,-335.33 1198,-323.38"/>
<polygon fill="#63b8ff" stroke="#63b8ff" points="1201.5,-323.64 1198,-313.64 1194.5,-323.64 1201.5,-323.64"/>
</g>
</g>
</svg>
