<?xml version="1.0" encoding="UTF-8" standalone="no"?>
<!DOCTYPE svg PUBLIC "-//W3C//DTD SVG 1.1//EN"
 "http://www.w3.org/Graphics/SVG/1.1/DTD/svg11.dtd">
<!-- Generated by graphviz version 8.0.5 (20230430.1635)
 -->
<!-- Title: include/v8&#45;internal.h Pages: 1 -->
<svg width="3160pt" height="824pt"
 viewBox="0.00 0.00 3160.00 824.25" xmlns="http://www.w3.org/2000/svg" xmlns:xlink="http://www.w3.org/1999/xlink">
<g id="graph0" class="graph" transform="scale(1 1) rotate(0) translate(4 820.25)">
<title>include/v8&#45;internal.h</title>
<!-- Node1 -->
<g id="node1" class="node">
<title>Node1</title>
<g id="a_node1"><a xlink:title=" ">
<polygon fill="#999999" stroke="#666666" points="1179.12,-816.25 1076.88,-816.25 1076.88,-797 1179.12,-797 1179.12,-816.25"/>
<text text-anchor="middle" x="1128" y="-802.75" font-family="Helvetica,sans-Serif" font-size="10.00">include/v8&#45;internal.h</text>
</a>
</g>
</g>
<!-- Node2 -->
<g id="node2" class="node">
<title>Node2</title>
<g id="a_node2"><a xlink:href="v8-cppgc_8h.html" target="_top" xlink:title=" ">
<polygon fill="white" stroke="#666666" points="163.5,-584 66.5,-584 66.5,-564.75 163.5,-564.75 163.5,-584"/>
<text text-anchor="middle" x="115" y="-570.5" font-family="Helvetica,sans-Serif" font-size="10.00">include/v8&#45;cppgc.h</text>
</a>
</g>
</g>
<!-- Node1&#45;&gt;Node2 -->
<g id="edge1" class="edge">
<title>Node1&#45;&gt;Node2</title>
<path fill="none" stroke="#63b8ff" d="M1065.75,-804.73C880.97,-801.76 343.96,-790.65 271,-761 202,-732.96 188,-711.32 145,-650.5 129.92,-629.17 120.92,-599.18 117.12,-584.37"/>
<polygon fill="#63b8ff" stroke="#63b8ff" points="1065.57,-808.25 1075.63,-804.91 1065.68,-801.25 1065.57,-808.25"/>
</g>
<!-- Node3 -->
<g id="node3" class="node">
<title>Node3</title>
<g id="a_node3"><a xlink:href="v8-embedder-state-scope_8h.html" target="_top" xlink:title=" ">
<polygon fill="white" stroke="#666666" points="446,-650.5 340,-650.5 340,-620 446,-620 446,-650.5"/>
<text text-anchor="start" x="348" y="-637" font-family="Helvetica,sans-Serif" font-size="10.00">include/v8&#45;embedder</text>
<text text-anchor="middle" x="393" y="-625.75" font-family="Helvetica,sans-Serif" font-size="10.00">&#45;state&#45;scope.h</text>
</a>
</g>
</g>
<!-- Node1&#45;&gt;Node3 -->
<g id="edge2" class="edge">
<title>Node1&#45;&gt;Node3</title>
<path fill="none" stroke="#63b8ff" d="M1065.69,-803.31C986.66,-799.32 846.62,-788.69 730,-761 614.06,-733.48 483.53,-677.58 424.72,-650.97"/>
<polygon fill="#63b8ff" stroke="#63b8ff" points="1065.27,-806.85 1075.43,-803.83 1065.61,-799.85 1065.27,-806.85"/>
</g>
<!-- Node5 -->
<g id="node5" class="node">
<title>Node5</title>
<g id="a_node5"><a xlink:href="v8-isolate_8h.html" target="_top" xlink:title=" ">
<polygon fill="white" stroke="#666666" points="2227.62,-268.38 2128.38,-268.38 2128.38,-249.12 2227.62,-249.12 2227.62,-268.38"/>
<text text-anchor="middle" x="2178" y="-254.88" font-family="Helvetica,sans-Serif" font-size="10.00">include/v8&#45;isolate.h</text>
</a>
</g>
</g>
<!-- Node1&#45;&gt;Node5 -->
<g id="edge142" class="edge">
<title>Node1&#45;&gt;Node5</title>
<path fill="none" stroke="#63b8ff" d="M1190.48,-805.44C1486.68,-804.39 2738.19,-797.79 2812,-761 2972.08,-681.22 3001.77,-500.73 2885,-365.25 2799.52,-266.07 2374.66,-258.71 2227.93,-259.19"/>
<polygon fill="#63b8ff" stroke="#63b8ff" points="1190.52,-801.95 1180.53,-805.48 1190.55,-808.95 1190.52,-801.95"/>
</g>
<!-- Node7 -->
<g id="node7" class="node">
<title>Node7</title>
<g id="a_node7"><a xlink:href="v8-initialization_8h.html" target="_top" xlink:title=" ">
<polygon fill="white" stroke="#666666" points="2243.5,-201.88 2122.5,-201.88 2122.5,-182.62 2243.5,-182.62 2243.5,-201.88"/>
<text text-anchor="middle" x="2183" y="-188.38" font-family="Helvetica,sans-Serif" font-size="10.00">include/v8&#45;initialization.h</text>
</a>
</g>
</g>
<!-- Node1&#45;&gt;Node7 -->
<g id="edge141" class="edge">
<title>Node1&#45;&gt;Node7</title>
<path fill="none" stroke="#63b8ff" d="M1190.18,-805.68C1483.53,-805.75 2717.79,-803.47 2787,-761 2943.87,-664.73 3057.62,-473.83 2909,-365.25 2880.56,-344.48 2376.39,-234.85 2225.39,-202.34"/>
<polygon fill="#63b8ff" stroke="#63b8ff" points="1190.34,-802.18 1180.34,-805.68 1190.34,-809.18 1190.34,-802.18"/>
</g>
<!-- Node8 -->
<g id="node8" class="node">
<title>Node8</title>
<g id="a_node8"><a xlink:href="v8_8h.html" target="_top" xlink:title=" ">
<polygon fill="white" stroke="#666666" points="1338.88,-19.25 1271.12,-19.25 1271.12,0 1338.88,0 1338.88,-19.25"/>
<text text-anchor="middle" x="1305" y="-5.75" font-family="Helvetica,sans-Serif" font-size="10.00">include/v8.h</text>
</a>
</g>
</g>
<!-- Node1&#45;&gt;Node8 -->
<g id="edge163" class="edge">
<title>Node1&#45;&gt;Node8</title>
<path fill="none" stroke="#63b8ff" d="M1065.47,-804.64C858,-801.12 200.36,-787.96 109,-761 55.15,-745.11 0,-753.27 0,-697.12 0,-697.12 0,-697.12 0,-124.75 0,-81.22 29.13,-72.7 69,-55.25 181.68,-5.94 1082.77,-9.15 1270.72,-10.37"/>
<polygon fill="#63b8ff" stroke="#63b8ff" points="1065.4,-808.15 1075.45,-804.82 1065.51,-801.16 1065.4,-808.15"/>
</g>
<!-- Node11 -->
<g id="node10" class="node">
<title>Node11</title>
<g id="a_node10"><a xlink:href="v8-metrics_8h.html" target="_top" xlink:title=" ">
<polygon fill="white" stroke="#666666" points="2967.5,-201.88 2864.5,-201.88 2864.5,-182.62 2967.5,-182.62 2967.5,-201.88"/>
<text text-anchor="middle" x="2916" y="-188.38" font-family="Helvetica,sans-Serif" font-size="10.00">include/v8&#45;metrics.h</text>
</a>
</g>
</g>
<!-- Node1&#45;&gt;Node11 -->
<g id="edge152" class="edge">
<title>Node1&#45;&gt;Node11</title>
<path fill="none" stroke="#63b8ff" d="M1190.02,-805.45C1491.58,-804.45 2797.42,-797.97 2975,-761 3048.75,-745.64 3132,-772.46 3132,-697.12 3132,-697.12 3132,-697.12 3132,-379.5 3132,-281.21 3002.13,-223.37 2943.8,-202.34"/>
<polygon fill="#63b8ff" stroke="#63b8ff" points="1190.29,-801.96 1180.3,-805.49 1190.31,-808.96 1190.29,-801.96"/>
</g>
<!-- Node12 -->
<g id="node11" class="node">
<title>Node12</title>
<g id="a_node11"><a xlink:href="v8-snapshot_8h.html" target="_top" xlink:title=" ">
<polygon fill="white" stroke="#666666" points="2770.25,-201.88 2659.75,-201.88 2659.75,-182.62 2770.25,-182.62 2770.25,-201.88"/>
<text text-anchor="middle" x="2715" y="-188.38" font-family="Helvetica,sans-Serif" font-size="10.00">include/v8&#45;snapshot.h</text>
</a>
</g>
</g>
<!-- Node1&#45;&gt;Node12 -->
<g id="edge159" class="edge">
<title>Node1&#45;&gt;Node12</title>
<path fill="none" stroke="#63b8ff" d="M1190.03,-805.85C1457.5,-806.56 2513.35,-806.36 2842,-761 2956.46,-745.2 3094,-812.67 3094,-697.12 3094,-697.12 3094,-697.12 3094,-446 3094,-289.8 2868.42,-224.18 2765.33,-202.34"/>
<polygon fill="#63b8ff" stroke="#63b8ff" points="1190.38,-802.35 1180.37,-805.82 1190.36,-809.35 1190.38,-802.35"/>
</g>
<!-- Node15 -->
<g id="node14" class="node">
<title>Node15</title>
<g id="a_node14"><a xlink:href="v8-fast-api-calls_8h.html" target="_top" xlink:title=" ">
<polygon fill="white" stroke="#666666" points="389.75,-274 294.25,-274 294.25,-243.5 389.75,-243.5 389.75,-274"/>
<text text-anchor="start" x="302.25" y="-260.5" font-family="Helvetica,sans-Serif" font-size="10.00">include/v8&#45;fast&#45;api</text>
<text text-anchor="middle" x="342" y="-249.25" font-family="Helvetica,sans-Serif" font-size="10.00">&#45;calls.h</text>
</a>
</g>
</g>
<!-- Node1&#45;&gt;Node15 -->
<g id="edge18" class="edge">
<title>Node1&#45;&gt;Node15</title>
<path fill="none" stroke="#63b8ff" d="M1065.61,-806.01C834.18,-806.61 38,-801.14 38,-697.12 38,-697.12 38,-697.12 38,-512.5 38,-380.55 209.45,-304.24 294.83,-274.42"/>
<polygon fill="#63b8ff" stroke="#63b8ff" points="1065.54,-809.5 1075.53,-805.97 1065.51,-802.5 1065.54,-809.5"/>
</g>
<!-- Node16 -->
<g id="node15" class="node">
<title>Node16</title>
<g id="a_node15"><a xlink:href="v8-function-callback_8h.html" target="_top" xlink:title=" ">
<polygon fill="white" stroke="#666666" points="1842.88,-462.25 1745.12,-462.25 1745.12,-431.75 1842.88,-431.75 1842.88,-462.25"/>
<text text-anchor="start" x="1753.12" y="-448.75" font-family="Helvetica,sans-Serif" font-size="10.00">include/v8&#45;function</text>
<text text-anchor="middle" x="1794" y="-437.5" font-family="Helvetica,sans-Serif" font-size="10.00">&#45;callback.h</text>
</a>
</g>
</g>
<!-- Node1&#45;&gt;Node16 -->
<g id="edge19" class="edge">
<title>Node1&#45;&gt;Node16</title>
<path fill="none" stroke="#63b8ff" d="M1190.37,-801.37C1409.04,-785.82 2131.26,-728.84 2196,-650.5 2246.78,-589.06 1961.35,-496.95 1843.31,-462.07"/>
<polygon fill="#63b8ff" stroke="#63b8ff" points="1190.15,-797.95 1180.42,-802.15 1190.65,-804.93 1190.15,-797.95"/>
</g>
<!-- Node20 -->
<g id="node19" class="node">
<title>Node20</title>
<g id="a_node19"><a xlink:href="v8-handle-base_8h.html" target="_top" xlink:title=" ">
<polygon fill="white" stroke="#666666" points="1610.62,-761 1487.38,-761 1487.38,-741.75 1610.62,-741.75 1610.62,-761"/>
<text text-anchor="middle" x="1549" y="-747.5" font-family="Helvetica,sans-Serif" font-size="10.00">include/v8&#45;handle&#45;base.h</text>
</a>
</g>
</g>
<!-- Node1&#45;&gt;Node20 -->
<g id="edge27" class="edge">
<title>Node1&#45;&gt;Node20</title>
<path fill="none" stroke="#63b8ff" d="M1190.49,-797.72C1270.28,-787.63 1407.5,-770.27 1487.04,-760.21"/>
<polygon fill="#63b8ff" stroke="#63b8ff" points="1190.1,-794.37 1180.62,-799.1 1190.98,-801.31 1190.1,-794.37"/>
</g>
<!-- Node21 -->
<g id="node20" class="node">
<title>Node21</title>
<g id="a_node20"><a xlink:href="v8-local-handle_8h.html" target="_top" xlink:title=" ">
<polygon fill="white" stroke="#666666" points="1705.25,-705.75 1582.75,-705.75 1582.75,-686.5 1705.25,-686.5 1705.25,-705.75"/>
<text text-anchor="middle" x="1644" y="-692.25" font-family="Helvetica,sans-Serif" font-size="10.00">include/v8&#45;local&#45;handle.h</text>
</a>
</g>
</g>
<!-- Node1&#45;&gt;Node21 -->
<g id="edge143" class="edge">
<title>Node1&#45;&gt;Node21</title>
<path fill="none" stroke="#63b8ff" d="M1181.85,-794.3C1284.59,-772.7 1506.72,-725.99 1600.65,-706.24"/>
<polygon fill="#63b8ff" stroke="#63b8ff" points="1181.17,-791.08 1172.11,-796.56 1182.61,-797.93 1181.17,-791.08"/>
</g>
<!-- Node32 -->
<g id="node30" class="node">
<title>Node32</title>
<g id="a_node30"><a xlink:href="v8-primitive_8h.html" target="_top" xlink:title=" ">
<polygon fill="white" stroke="#666666" points="1415.75,-523.12 1308.25,-523.12 1308.25,-503.88 1415.75,-503.88 1415.75,-523.12"/>
<text text-anchor="middle" x="1362" y="-509.62" font-family="Helvetica,sans-Serif" font-size="10.00">include/v8&#45;primitive.h</text>
</a>
</g>
</g>
<!-- Node1&#45;&gt;Node32 -->
<g id="edge155" class="edge">
<title>Node1&#45;&gt;Node32</title>
<path fill="none" stroke="#63b8ff" d="M1129.53,-786.32C1133.29,-750.1 1145.85,-671.01 1186,-620 1225.66,-569.61 1296.56,-537.92 1335.16,-523.55"/>
<polygon fill="#63b8ff" stroke="#63b8ff" points="1125.99,-785.58 1128.56,-795.86 1132.96,-786.22 1125.99,-785.58"/>
</g>
<!-- Node34 -->
<g id="node32" class="node">
<title>Node34</title>
<g id="a_node32"><a xlink:href="v8-object_8h.html" target="_top" xlink:title=" ">
<polygon fill="white" stroke="#666666" points="1099.5,-456.62 1002.5,-456.62 1002.5,-437.38 1099.5,-437.38 1099.5,-456.62"/>
<text text-anchor="middle" x="1051" y="-443.12" font-family="Helvetica,sans-Serif" font-size="10.00">include/v8&#45;object.h</text>
</a>
</g>
</g>
<!-- Node1&#45;&gt;Node34 -->
<g id="edge153" class="edge">
<title>Node1&#45;&gt;Node34</title>
<path fill="none" stroke="#63b8ff" d="M1066.1,-796.55C1010.65,-784.51 938,-757.26 938,-697.12 938,-697.12 938,-697.12 938,-573.38 938,-517.11 1001.56,-474.72 1033.34,-457.04"/>
<polygon fill="#63b8ff" stroke="#63b8ff" points="1065.08,-800.12 1075.58,-798.7 1066.49,-793.26 1065.08,-800.12"/>
</g>
<!-- Node41 -->
<g id="node39" class="node">
<title>Node41</title>
<g id="a_node39"><a xlink:href="v8-wasm_8h.html" target="_top" xlink:title=" ">
<polygon fill="white" stroke="#666666" points="2875.5,-390.12 2778.5,-390.12 2778.5,-370.88 2875.5,-370.88 2875.5,-390.12"/>
<text text-anchor="middle" x="2827" y="-376.62" font-family="Helvetica,sans-Serif" font-size="10.00">include/v8&#45;wasm.h</text>
</a>
</g>
</g>
<!-- Node1&#45;&gt;Node41 -->
<g id="edge162" class="edge">
<title>Node1&#45;&gt;Node41</title>
<path fill="none" stroke="#63b8ff" d="M1190.21,-805.74C1483.71,-806.03 2718.54,-804.68 2787,-761 2914.9,-679.4 2845.99,-440.12 2830.03,-390.55"/>
<polygon fill="#63b8ff" stroke="#63b8ff" points="1190.37,-802.24 1180.36,-805.72 1190.36,-809.24 1190.37,-802.24"/>
</g>
<!-- Node42 -->
<g id="node40" class="node">
<title>Node42</title>
<g id="a_node40"><a xlink:href="v8-value_8h.html" target="_top" xlink:title=" ">
<polygon fill="white" stroke="#666666" points="748,-584 654,-584 654,-564.75 748,-564.75 748,-584"/>
<text text-anchor="middle" x="701" y="-570.5" font-family="Helvetica,sans-Serif" font-size="10.00">include/v8&#45;value.h</text>
</a>
</g>
</g>
<!-- Node1&#45;&gt;Node42 -->
<g id="edge161" class="edge">
<title>Node1&#45;&gt;Node42</title>
<path fill="none" stroke="#63b8ff" d="M1065.74,-803.95C893.36,-797.82 416.85,-770.13 331,-650.5 323.1,-639.49 322.01,-630.14 331,-620 352.09,-596.22 558.8,-582.65 653.75,-577.63"/>
<polygon fill="#63b8ff" stroke="#63b8ff" points="1065.53,-807.48 1075.65,-804.33 1065.77,-800.49 1065.53,-807.48"/>
</g>
<!-- Node47 -->
<g id="node45" class="node">
<title>Node47</title>
<g id="a_node45"><a xlink:href="v8-persistent-handle_8h.html" target="_top" xlink:title=" ">
<polygon fill="white" stroke="#666666" points="2466,-528.75 2360,-528.75 2360,-498.25 2466,-498.25 2466,-528.75"/>
<text text-anchor="start" x="2368" y="-515.25" font-family="Helvetica,sans-Serif" font-size="10.00">include/v8&#45;persistent</text>
<text text-anchor="middle" x="2413" y="-504" font-family="Helvetica,sans-Serif" font-size="10.00">&#45;handle.h</text>
</a>
</g>
</g>
<!-- Node1&#45;&gt;Node47 -->
<g id="edge154" class="edge">
<title>Node1&#45;&gt;Node47</title>
<path fill="none" stroke="#63b8ff" d="M1190.14,-805.11C1485.92,-802.5 2738.01,-789.76 2766,-761 2809.7,-716.09 2803.43,-670.26 2766,-620 2729.99,-571.65 2555.62,-537.3 2466.17,-522.55"/>
<polygon fill="#63b8ff" stroke="#63b8ff" points="1190.18,-801.62 1180.21,-805.2 1190.24,-808.61 1190.18,-801.62"/>
</g>
<!-- Node48 -->
<g id="node46" class="node">
<title>Node48</title>
<g id="a_node46"><a xlink:href="v8-traced-handle_8h.html" target="_top" xlink:title=" ">
<polygon fill="white" stroke="#666666" points="283.62,-644.88 154.38,-644.88 154.38,-625.62 283.62,-625.62 283.62,-644.88"/>
<text text-anchor="middle" x="219" y="-631.38" font-family="Helvetica,sans-Serif" font-size="10.00">include/v8&#45;traced&#45;handle.h</text>
</a>
</g>
</g>
<!-- Node1&#45;&gt;Node48 -->
<g id="edge160" class="edge">
<title>Node1&#45;&gt;Node48</title>
<path fill="none" stroke="#63b8ff" d="M1065.43,-805.54C883.52,-804.83 363.59,-799.43 298,-761 252.21,-734.17 228.82,-669.17 221.54,-645.26"/>
<polygon fill="#63b8ff" stroke="#63b8ff" points="1065.39,-809.04 1075.4,-805.58 1065.41,-802.04 1065.39,-809.04"/>
</g>
<!-- Node51 -->
<g id="node49" class="node">
<title>Node51</title>
<g id="a_node49"><a xlink:href="v8-maybe_8h.html" target="_top" xlink:title=" ">
<polygon fill="white" stroke="#666666" points="909.62,-644.88 810.38,-644.88 810.38,-625.62 909.62,-625.62 909.62,-644.88"/>
<text text-anchor="middle" x="860" y="-631.38" font-family="Helvetica,sans-Serif" font-size="10.00">include/v8&#45;maybe.h</text>
</a>
</g>
</g>
<!-- Node1&#45;&gt;Node51 -->
<g id="edge144" class="edge">
<title>Node1&#45;&gt;Node51</title>
<path fill="none" stroke="#63b8ff" d="M1065.81,-797.93C1014.23,-790.49 945.93,-777.88 924,-761 884.27,-730.41 867.04,-668.27 861.82,-645.17"/>
<polygon fill="#63b8ff" stroke="#63b8ff" points="1065.15,-801.51 1075.54,-799.44 1066.13,-794.58 1065.15,-801.51"/>
</g>
<!-- Node52 -->
<g id="node50" class="node">
<title>Node52</title>
<g id="a_node50"><a xlink:href="v8-sandbox_8h.html" target="_top" xlink:title=" ">
<polygon fill="white" stroke="#666666" points="872.38,-584 765.62,-584 765.62,-564.75 872.38,-564.75 872.38,-584"/>
<text text-anchor="middle" x="819" y="-570.5" font-family="Helvetica,sans-Serif" font-size="10.00">include/v8&#45;sandbox.h</text>
</a>
</g>
</g>
<!-- Node1&#45;&gt;Node52 -->
<g id="edge156" class="edge">
<title>Node1&#45;&gt;Node52</title>
<path fill="none" stroke="#63b8ff" d="M1065.91,-804.08C1017.84,-800.47 951.08,-790.03 900,-761 842.67,-728.42 824.55,-712.09 801,-650.5 792.18,-627.45 805.34,-598.73 813.44,-584.39"/>
<polygon fill="#63b8ff" stroke="#63b8ff" points="1065.57,-807.63 1075.78,-804.8 1066.04,-800.65 1065.57,-807.63"/>
</g>
<!-- Node4 -->
<g id="node4" class="node">
<title>Node4</title>
<g id="a_node4"><a xlink:href="v8-unwinder_8h.html" target="_top" xlink:title=" ">
<polygon fill="white" stroke="#666666" points="1105.88,-329.25 996.12,-329.25 996.12,-310 1105.88,-310 1105.88,-329.25"/>
<text text-anchor="middle" x="1051" y="-315.75" font-family="Helvetica,sans-Serif" font-size="10.00">include/v8&#45;unwinder.h</text>
</a>
</g>
</g>
<!-- Node3&#45;&gt;Node4 -->
<g id="edge3" class="edge">
<title>Node3&#45;&gt;Node4</title>
<path fill="none" stroke="#63b8ff" d="M381.7,-609.37C377.09,-596.11 373.56,-579.54 377,-564.75 399.36,-468.53 393.23,-420.68 475,-365.25 517.5,-336.44 860.48,-325.17 996.1,-321.81"/>
<polygon fill="#63b8ff" stroke="#63b8ff" points="378.8,-610.56 385.7,-618.6 385.32,-608.01 378.8,-610.56"/>
</g>
<!-- Node4&#45;&gt;Node5 -->
<g id="edge4" class="edge">
<title>Node4&#45;&gt;Node5</title>
<path fill="none" stroke="#63b8ff" d="M1117.02,-315.18C1322.37,-304.45 1946.89,-271.82 2128.17,-262.35"/>
<polygon fill="#63b8ff" stroke="#63b8ff" points="1116.92,-311.73 1107.12,-315.75 1117.29,-318.72 1116.92,-311.73"/>
</g>
<!-- Node4&#45;&gt;Node8 -->
<g id="edge17" class="edge">
<title>Node4&#45;&gt;Node8</title>
<path fill="none" stroke="#63b8ff" d="M1056.57,-299.21C1063.08,-274.73 1073,-231.23 1073,-193.25 1073,-193.25 1073,-193.25 1073,-124.75 1073,-37.67 1206.23,-17.03 1270.77,-12.14"/>
<polygon fill="#63b8ff" stroke="#63b8ff" points="1052.99,-298.03 1053.7,-308.6 1059.73,-299.89 1052.99,-298.03"/>
</g>
<!-- Node6 -->
<g id="node6" class="node">
<title>Node6</title>
<g id="a_node6"><a xlink:href="v8-external-memory-accounter_8h.html" target="_top" xlink:title=" ">
<polygon fill="white" stroke="#666666" points="2104.38,-207.5 1997.62,-207.5 1997.62,-177 2104.38,-177 2104.38,-207.5"/>
<text text-anchor="start" x="2005.62" y="-194" font-family="Helvetica,sans-Serif" font-size="10.00">include/v8&#45;external</text>
<text text-anchor="middle" x="2051" y="-182.75" font-family="Helvetica,sans-Serif" font-size="10.00">&#45;memory&#45;accounter.h</text>
</a>
</g>
</g>
<!-- Node5&#45;&gt;Node6 -->
<g id="edge5" class="edge">
<title>Node5&#45;&gt;Node6</title>
<path fill="none" stroke="#63b8ff" d="M2150.49,-243.78C2129.54,-233.14 2100.81,-218.55 2079.6,-207.78"/>
<polygon fill="#63b8ff" stroke="#63b8ff" points="2148.57,-247.24 2159.07,-248.65 2151.74,-241 2148.57,-247.24"/>
</g>
<!-- Node5&#45;&gt;Node7 -->
<g id="edge6" class="edge">
<title>Node5&#45;&gt;Node7</title>
<path fill="none" stroke="#63b8ff" d="M2179.53,-238.02C2180.46,-226.05 2181.6,-211.35 2182.31,-202.14"/>
<polygon fill="#63b8ff" stroke="#63b8ff" points="2175.98,-237.54 2178.7,-247.78 2182.96,-238.08 2175.98,-237.54"/>
</g>
<!-- Node5&#45;&gt;Node8 -->
<g id="edge16" class="edge">
<title>Node5&#45;&gt;Node8</title>
<path fill="none" stroke="#63b8ff" d="M2117.42,-254.06C2077.3,-248.85 2025.54,-236.5 1989,-207.5 1928.96,-159.85 1972.2,-97.12 1908,-55.25 1860.24,-24.11 1459.28,-13.68 1338.98,-11.24"/>
<polygon fill="#63b8ff" stroke="#63b8ff" points="2116.8,-257.63 2127.14,-255.32 2117.62,-250.68 2116.8,-257.63"/>
</g>
<!-- Node9 -->
<g id="node9" class="node">
<title>Node9</title>
<g id="a_node9"><a xlink:href="v8-inspector_8h.html" target="_top" xlink:title=" ">
<polygon fill="#fff0f0" stroke="red" points="2372.25,-201.88 2261.75,-201.88 2261.75,-182.62 2372.25,-182.62 2372.25,-201.88"/>
<text text-anchor="middle" x="2317" y="-188.38" font-family="Helvetica,sans-Serif" font-size="10.00">include/v8&#45;inspector.h</text>
</a>
</g>
</g>
<!-- Node5&#45;&gt;Node9 -->
<g id="edge8" class="edge">
<title>Node5&#45;&gt;Node9</title>
<path fill="none" stroke="#63b8ff" d="M2207.35,-244.13C2234.48,-231.54 2274.03,-213.19 2297.48,-202.31"/>
<polygon fill="#63b8ff" stroke="#63b8ff" points="2206.22,-241.26 2198.62,-248.65 2209.16,-247.61 2206.22,-241.26"/>
</g>
<!-- Node5&#45;&gt;Node11 -->
<g id="edge9" class="edge">
<title>Node5&#45;&gt;Node11</title>
<path fill="none" stroke="#63b8ff" d="M2238.62,-253.09C2347.07,-244.66 2581.46,-226.03 2779,-207.5 2807.21,-204.85 2838.66,-201.6 2864.31,-198.88"/>
<polygon fill="#63b8ff" stroke="#63b8ff" points="2238.59,-249.66 2228.89,-253.92 2239.14,-256.64 2238.59,-249.66"/>
</g>
<!-- Node5&#45;&gt;Node12 -->
<g id="edge10" class="edge">
<title>Node5&#45;&gt;Node12</title>
<path fill="none" stroke="#63b8ff" d="M2238.77,-250.45C2343.83,-237.83 2557.87,-212.12 2659.3,-199.94"/>
<polygon fill="#63b8ff" stroke="#63b8ff" points="2238.55,-247.07 2229.04,-251.74 2239.38,-254.02 2238.55,-247.07"/>
</g>
<!-- Node7&#45;&gt;Node8 -->
<g id="edge7" class="edge">
<title>Node7&#45;&gt;Node8</title>
<path fill="none" stroke="#63b8ff" d="M2163.77,-176.08C2125.14,-146.6 2034.24,-82.09 1946,-55.25 1830.87,-20.24 1454.52,-12.54 1339.02,-10.99"/>
<polygon fill="#63b8ff" stroke="#63b8ff" points="2160.97,-179.12 2171.03,-182.46 2165.25,-173.58 2160.97,-179.12"/>
</g>
<!-- Node12&#45;&gt;Node8 -->
<g id="edge15" class="edge">
<title>Node12&#45;&gt;Node8</title>
<path fill="none" stroke="#63b8ff" d="M2714.72,-171.41C2713.36,-153.09 2708.43,-126.38 2692,-110.5 2618.91,-39.82 2570.67,-69.55 2470,-55.25 2243.3,-23.05 1507.35,-12.91 1339.36,-10.99"/>
<polygon fill="#63b8ff" stroke="#63b8ff" points="2711.26,-171.44 2715.18,-181.28 2718.25,-171.14 2711.26,-171.44"/>
</g>
<!-- Node13 -->
<g id="node12" class="node">
<title>Node13</title>
<g id="a_node12"><a xlink:href="v8-context_8h.html" target="_top" xlink:title=" ">
<polygon fill="white" stroke="#666666" points="2683.12,-135.38 2580.88,-135.38 2580.88,-116.12 2683.12,-116.12 2683.12,-135.38"/>
<text text-anchor="middle" x="2632" y="-121.88" font-family="Helvetica,sans-Serif" font-size="10.00">include/v8&#45;context.h</text>
</a>
</g>
</g>
<!-- Node12&#45;&gt;Node13 -->
<g id="edge11" class="edge">
<title>Node12&#45;&gt;Node13</title>
<path fill="none" stroke="#63b8ff" d="M2694.81,-175.56C2678.79,-163.11 2656.97,-146.15 2643.71,-135.85"/>
<polygon fill="#63b8ff" stroke="#63b8ff" points="2692.42,-178.91 2702.46,-182.28 2696.71,-173.38 2692.42,-178.91"/>
</g>
<!-- Node13&#45;&gt;Node8 -->
<g id="edge14" class="edge">
<title>Node13&#45;&gt;Node8</title>
<path fill="none" stroke="#63b8ff" d="M2600.7,-111.57C2559.61,-94.98 2484.86,-67.21 2418,-55.25 2203.25,-16.83 1502.49,-11.47 1339.22,-10.74"/>
<polygon fill="#63b8ff" stroke="#63b8ff" points="2599.05,-115.09 2609.63,-115.63 2601.7,-108.61 2599.05,-115.09"/>
</g>
<!-- Node14 -->
<g id="node13" class="node">
<title>Node14</title>
<g id="a_node13"><a xlink:href="v8-proxy_8h.html" target="_top" xlink:title=" ">
<polygon fill="white" stroke="#666666" points="2408.62,-74.5 2315.38,-74.5 2315.38,-55.25 2408.62,-55.25 2408.62,-74.5"/>
<text text-anchor="middle" x="2362" y="-61" font-family="Helvetica,sans-Serif" font-size="10.00">include/v8&#45;proxy.h</text>
</a>
</g>
</g>
<!-- Node13&#45;&gt;Node14 -->
<g id="edge12" class="edge">
<title>Node13&#45;&gt;Node14</title>
<path fill="none" stroke="#63b8ff" d="M2580.29,-113.41C2575.8,-112.42 2571.32,-111.44 2567,-110.5 2510.42,-98.14 2445.04,-83.92 2403.62,-74.92"/>
<polygon fill="#63b8ff" stroke="#63b8ff" points="2579.22,-116.97 2589.74,-115.69 2580.72,-110.14 2579.22,-116.97"/>
</g>
<!-- Node14&#45;&gt;Node8 -->
<g id="edge13" class="edge">
<title>Node14&#45;&gt;Node8</title>
<path fill="none" stroke="#63b8ff" d="M2304.48,-60.98C2111.69,-51.26 1491.92,-20.04 1339.23,-12.35"/>
<polygon fill="#63b8ff" stroke="#63b8ff" points="2304.05,-64.51 2314.22,-61.52 2304.41,-57.52 2304.05,-64.51"/>
</g>
<!-- Node16&#45;&gt;Node5 -->
<g id="edge22" class="edge">
<title>Node16&#45;&gt;Node5</title>
<path fill="none" stroke="#63b8ff" d="M1853.95,-431.38C1926.66,-415.29 1948.77,-419.41 2016,-395.75 2047.36,-384.71 2127.42,-353.65 2150,-329.25 2166.43,-311.49 2173.77,-282.85 2176.55,-268.51"/>
<polygon fill="#63b8ff" stroke="#63b8ff" points="1853.32,-428.16 1844.34,-433.79 1854.87,-434.99 1853.32,-428.16"/>
</g>
<!-- Node17 -->
<g id="node16" class="node">
<title>Node17</title>
<g id="a_node16"><a xlink:href="v8-function_8h.html" target="_top" xlink:title=" ">
<polygon fill="white" stroke="#666666" points="969.62,-201.88 864.38,-201.88 864.38,-182.62 969.62,-182.62 969.62,-201.88"/>
<text text-anchor="middle" x="917" y="-188.38" font-family="Helvetica,sans-Serif" font-size="10.00">include/v8&#45;function.h</text>
</a>
</g>
</g>
<!-- Node16&#45;&gt;Node17 -->
<g id="edge20" class="edge">
<title>Node16&#45;&gt;Node17</title>
<path fill="none" stroke="#63b8ff" d="M1734.15,-436.92C1673.66,-427.51 1577.6,-411.94 1495,-395.75 1434.21,-383.83 1420.17,-375.03 1359,-365.25 1276.99,-352.14 1055.74,-375.87 987,-329.25 941.07,-298.1 923.48,-227.16 918.57,-202.17"/>
<polygon fill="#63b8ff" stroke="#63b8ff" points="1733.23,-440.47 1743.65,-438.54 1734.3,-433.55 1733.23,-440.47"/>
</g>
<!-- Node18 -->
<g id="node17" class="node">
<title>Node18</title>
<g id="a_node17"><a xlink:href="v8-template_8h.html" target="_top" xlink:title=" ">
<polygon fill="white" stroke="#666666" points="720.12,-329.25 611.88,-329.25 611.88,-310 720.12,-310 720.12,-329.25"/>
<text text-anchor="middle" x="666" y="-315.75" font-family="Helvetica,sans-Serif" font-size="10.00">include/v8&#45;template.h</text>
</a>
</g>
</g>
<!-- Node16&#45;&gt;Node18 -->
<g id="edge23" class="edge">
<title>Node16&#45;&gt;Node18</title>
<path fill="none" stroke="#63b8ff" d="M1733.94,-438.91C1660.61,-430.01 1532.9,-413.71 1424,-395.75 1353.86,-384.18 1337.45,-374.68 1267,-365.25 1066.59,-338.44 826.27,-326.68 720.5,-322.52"/>
<polygon fill="#63b8ff" stroke="#63b8ff" points="1733.44,-442.5 1743.79,-440.22 1734.28,-435.55 1733.44,-442.5"/>
</g>
<!-- Node19 -->
<g id="node18" class="node">
<title>Node19</title>
<g id="a_node18"><a xlink:href="v8-util_8h.html" target="_top" xlink:title=" ">
<polygon fill="white" stroke="#666666" points="2189.75,-390.12 2106.25,-390.12 2106.25,-370.88 2189.75,-370.88 2189.75,-390.12"/>
<text text-anchor="middle" x="2148" y="-376.62" font-family="Helvetica,sans-Serif" font-size="10.00">include/v8&#45;util.h</text>
</a>
</g>
</g>
<!-- Node16&#45;&gt;Node19 -->
<g id="edge26" class="edge">
<title>Node16&#45;&gt;Node19</title>
<path fill="none" stroke="#63b8ff" d="M1854.03,-431.45C1915.52,-419.26 2040.11,-398.88 2105.76,-388.28"/>
<polygon fill="#63b8ff" stroke="#63b8ff" points="1853.41,-428.21 1844.31,-433.63 1854.8,-435.07 1853.41,-428.21"/>
</g>
<!-- Node17&#45;&gt;Node8 -->
<g id="edge21" class="edge">
<title>Node17&#45;&gt;Node8</title>
<path fill="none" stroke="#63b8ff" d="M929.71,-173.63C952.17,-143.94 1001.9,-84.37 1059,-55.25 1128.41,-19.85 1221.43,-12.15 1270.82,-10.71"/>
<polygon fill="#63b8ff" stroke="#63b8ff" points="926.31,-171.34 923.17,-181.46 931.94,-175.5 926.31,-171.34"/>
</g>
<!-- Node18&#45;&gt;Node8 -->
<g id="edge25" class="edge">
<title>Node18&#45;&gt;Node8</title>
<path fill="none" stroke="#63b8ff" d="M671.57,-299.21C678.08,-274.73 688,-231.23 688,-193.25 688,-193.25 688,-193.25 688,-124.75 688,-87.71 702.08,-74.04 734,-55.25 780.27,-28.01 1154.96,-14.97 1270.92,-11.56"/>
<polygon fill="#63b8ff" stroke="#63b8ff" points="667.99,-298.03 668.7,-308.6 674.73,-299.89 667.99,-298.03"/>
</g>
<!-- Node18&#45;&gt;Node17 -->
<g id="edge24" class="edge">
<title>Node18&#45;&gt;Node17</title>
<path fill="none" stroke="#63b8ff" d="M692.06,-304.61C720.78,-289.27 768.41,-264.1 810,-243.5 840.16,-228.56 875.59,-212.14 897.16,-202.27"/>
<polygon fill="#63b8ff" stroke="#63b8ff" points="690.9,-301.8 683.73,-309.61 694.2,-307.97 690.9,-301.8"/>
</g>
<!-- Node20&#45;&gt;Node21 -->
<g id="edge28" class="edge">
<title>Node20&#45;&gt;Node21</title>
<path fill="none" stroke="#63b8ff" d="M1574.45,-736.11C1591.41,-726.61 1613.18,-714.4 1627.81,-706.2"/>
<polygon fill="#63b8ff" stroke="#63b8ff" points="1573.13,-733.4 1566.12,-741.34 1576.55,-739.51 1573.13,-733.4"/>
</g>
<!-- Node21&#45;&gt;Node3 -->
<g id="edge98" class="edge">
<title>Node21&#45;&gt;Node3</title>
<path fill="none" stroke="#63b8ff" d="M1571.58,-694.03C1348.98,-690.4 676.8,-677.44 460,-650.5 455.52,-649.94 450.89,-649.24 446.25,-648.44"/>
<polygon fill="#63b8ff" stroke="#63b8ff" points="1571.41,-697.54 1581.46,-694.2 1571.52,-690.54 1571.41,-697.54"/>
</g>
<!-- Node21&#45;&gt;Node5 -->
<g id="edge106" class="edge">
<title>Node21&#45;&gt;Node5</title>
<path fill="none" stroke="#63b8ff" d="M1716.25,-694.33C1845.39,-692.08 2110.34,-683.46 2196,-650.5 2247.22,-630.79 2294,-630.26 2294,-575.38 2294,-575.38 2294,-575.38 2294,-512.5 2294,-418.88 2286.35,-388.92 2236,-310 2224.82,-292.48 2205.73,-277.65 2192.52,-268.74"/>
<polygon fill="#63b8ff" stroke="#63b8ff" points="1716.25,-690.85 1706.31,-694.51 1716.37,-697.85 1716.25,-690.85"/>
</g>
<!-- Node21&#45;&gt;Node8 -->
<g id="edge140" class="edge">
<title>Node21&#45;&gt;Node8</title>
<path fill="none" stroke="#63b8ff" d="M1716.2,-694.83C1948.09,-693.53 2664.49,-686.6 2762,-650.5 2898.05,-600.13 3018,-593.07 3018,-448 3018,-448 3018,-448 3018,-124.75 3018,-36.08 2918.03,-72.22 2831,-55.25 2680.2,-25.85 1550.64,-13.1 1339.08,-10.96"/>
<polygon fill="#63b8ff" stroke="#63b8ff" points="1716.51,-691.33 1706.53,-694.89 1716.55,-698.33 1716.51,-691.33"/>
</g>
<!-- Node21&#45;&gt;Node9 -->
<g id="edge105" class="edge">
<title>Node21&#45;&gt;Node9</title>
<path fill="none" stroke="#63b8ff" d="M1716.22,-693.95C1889.04,-690.69 2316.39,-679.74 2374,-650.5 2489.18,-592.04 2484,-510.67 2484,-381.5 2484,-381.5 2484,-381.5 2484,-318.62 2484,-253 2400.52,-217.5 2351.6,-202.33"/>
<polygon fill="#63b8ff" stroke="#63b8ff" points="1716.39,-690.47 1706.46,-694.15 1716.52,-697.47 1716.39,-690.47"/>
</g>
<!-- Node21&#45;&gt;Node11 -->
<g id="edge109" class="edge">
<title>Node21&#45;&gt;Node11</title>
<path fill="none" stroke="#63b8ff" d="M1716.45,-695.4C1944.11,-695.82 2635.4,-693.5 2726,-650.5 2906.17,-564.98 2915.83,-258.93 2916.05,-202.3"/>
<polygon fill="#63b8ff" stroke="#63b8ff" points="1716.65,-691.9 1706.64,-695.38 1716.63,-698.9 1716.65,-691.9"/>
</g>
<!-- Node21&#45;&gt;Node12 -->
<g id="edge126" class="edge">
<title>Node21&#45;&gt;Node12</title>
<path fill="none" stroke="#63b8ff" d="M1716.42,-694.73C1933.01,-693.16 2566.19,-685.59 2652,-650.5 2662.23,-646.32 2719.89,-593.21 2726,-584 2744.06,-556.77 2750,-547.18 2750,-514.5 2750,-514.5 2750,-514.5 2750,-318.62 2750,-273.43 2728.64,-222.33 2719.29,-202.14"/>
<polygon fill="#63b8ff" stroke="#63b8ff" points="1716.48,-691.24 1706.5,-694.81 1716.53,-698.24 1716.48,-691.24"/>
</g>
<!-- Node21&#45;&gt;Node13 -->
<g id="edge49" class="edge">
<title>Node21&#45;&gt;Node13</title>
<path fill="none" stroke="#63b8ff" d="M1716.56,-694.59C1927.67,-692.65 2531.82,-684.18 2614,-650.5 2624.23,-646.31 2681.89,-593.21 2688,-584 2706.06,-556.77 2712,-547.18 2712,-514.5 2712,-514.5 2712,-514.5 2712,-446 2712,-336.59 2677.09,-313.76 2651,-207.5 2644.61,-181.48 2637.48,-150.65 2634.05,-135.73"/>
<polygon fill="#63b8ff" stroke="#63b8ff" points="1716.58,-691.1 1706.61,-694.69 1716.64,-698.1 1716.58,-691.1"/>
</g>
<!-- Node21&#45;&gt;Node14 -->
<g id="edge123" class="edge">
<title>Node21&#45;&gt;Node14</title>
<path fill="none" stroke="#63b8ff" d="M1716.47,-693.8C1901.8,-690.04 2383.15,-677.75 2450,-650.5 2491.56,-633.56 2497.54,-618.7 2526,-584 2640.75,-444.08 2652.16,-316.59 2537,-177 2494.63,-125.64 2422.11,-90.48 2385.14,-74.93"/>
<polygon fill="#63b8ff" stroke="#63b8ff" points="1716.42,-690.32 1706.49,-694.02 1716.56,-697.32 1716.42,-690.32"/>
</g>
<!-- Node21&#45;&gt;Node15 -->
<g id="edge101" class="edge">
<title>Node21&#45;&gt;Node15</title>
<path fill="none" stroke="#63b8ff" d="M1571.81,-695.18C1351.35,-694.91 696.54,-690.69 610,-650.5 563,-628.68 567.94,-601.09 531,-564.75 491.3,-525.7 371.72,-445.14 346,-395.75 325.27,-355.94 333.11,-300.31 338.53,-274.27"/>
<polygon fill="#63b8ff" stroke="#63b8ff" points="1571.6,-698.68 1581.6,-695.19 1571.61,-691.68 1571.6,-698.68"/>
</g>
<!-- Node21&#45;&gt;Node16 -->
<g id="edge103" class="edge">
<title>Node21&#45;&gt;Node16</title>
<path fill="none" stroke="#63b8ff" d="M1684.83,-682.11C1701.18,-675.07 1718.97,-664.81 1731,-650.5 1779.34,-593.02 1790.64,-498.56 1793.24,-462.56"/>
<polygon fill="#63b8ff" stroke="#63b8ff" points="1683.87,-679.12 1675.89,-686.09 1686.47,-685.62 1683.87,-679.12"/>
</g>
<!-- Node21&#45;&gt;Node17 -->
<g id="edge104" class="edge">
<title>Node21&#45;&gt;Node17</title>
<path fill="none" stroke="#63b8ff" d="M1571.77,-694.49C1437.76,-692.51 1156,-684.32 1065,-650.5 975.5,-617.24 762.08,-480.96 719,-395.75 712.88,-383.65 713.38,-377.58 719,-365.25 739.16,-321.02 863.41,-230.93 904.11,-202.24"/>
<polygon fill="#63b8ff" stroke="#63b8ff" points="1571.67,-698 1581.71,-694.64 1571.76,-691.01 1571.67,-698"/>
</g>
<!-- Node21&#45;&gt;Node18 -->
<g id="edge128" class="edge">
<title>Node21&#45;&gt;Node18</title>
<path fill="none" stroke="#63b8ff" d="M1571.55,-695.67C1354.9,-696.8 722.09,-696.09 642,-650.5 612.59,-633.76 484.68,-428.18 475,-395.75 471.12,-382.76 466.58,-375.87 475,-365.25 491.82,-344.04 561.43,-331.96 611.76,-325.86"/>
<polygon fill="#63b8ff" stroke="#63b8ff" points="1571.48,-699.17 1581.46,-695.61 1571.45,-692.17 1571.48,-699.17"/>
</g>
<!-- Node22 -->
<g id="node21" class="node">
<title>Node22</title>
<g id="a_node21"><a xlink:href="v8-array-buffer_8h.html" target="_top" xlink:title=" ">
<polygon fill="white" stroke="#666666" points="1622.38,-390.12 1503.62,-390.12 1503.62,-370.88 1622.38,-370.88 1622.38,-390.12"/>
<text text-anchor="middle" x="1563" y="-376.62" font-family="Helvetica,sans-Serif" font-size="10.00">include/v8&#45;array&#45;buffer.h</text>
</a>
</g>
</g>
<!-- Node21&#45;&gt;Node22 -->
<g id="edge29" class="edge">
<title>Node21&#45;&gt;Node22</title>
<path fill="none" stroke="#63b8ff" d="M1619.56,-680.08C1609.02,-672.43 1597.44,-662.27 1590,-650.5 1571.59,-621.39 1571,-609.82 1571,-575.38 1571,-575.38 1571,-575.38 1571,-512.5 1571,-466.47 1566.02,-411.52 1563.92,-390.38"/>
<polygon fill="#63b8ff" stroke="#63b8ff" points="1617.18,-683.37 1627.41,-686.12 1621.13,-677.59 1617.18,-683.37"/>
</g>
<!-- Node23 -->
<g id="node22" class="node">
<title>Node23</title>
<g id="a_node22"><a xlink:href="v8-typed-array_8h.html" target="_top" xlink:title=" ">
<polygon fill="white" stroke="#666666" points="1622,-329.25 1504,-329.25 1504,-310 1622,-310 1622,-329.25"/>
<text text-anchor="middle" x="1563" y="-315.75" font-family="Helvetica,sans-Serif" font-size="10.00">include/v8&#45;typed&#45;array.h</text>
</a>
</g>
</g>
<!-- Node21&#45;&gt;Node23 -->
<g id="edge135" class="edge">
<title>Node21&#45;&gt;Node23</title>
<path fill="none" stroke="#63b8ff" d="M1670.71,-680.22C1681.26,-672.79 1692.23,-662.75 1698,-650.5 1703.77,-638.24 1699.74,-633.44 1698,-620 1682.99,-503.89 1699.37,-460.29 1631,-365.25 1619.29,-348.97 1599.65,-337.02 1584.48,-329.61"/>
<polygon fill="#63b8ff" stroke="#63b8ff" points="1669.17,-677.7 1662.68,-686.07 1672.98,-683.57 1669.17,-677.7"/>
</g>
<!-- Node24 -->
<g id="node23" class="node">
<title>Node24</title>
<g id="a_node23"><a xlink:href="v8-callbacks_8h.html" target="_top" xlink:title=" ">
<polygon fill="white" stroke="#666666" points="1904,-329.25 1792,-329.25 1792,-310 1904,-310 1904,-329.25"/>
<text text-anchor="middle" x="1848" y="-315.75" font-family="Helvetica,sans-Serif" font-size="10.00">include/v8&#45;callbacks.h</text>
</a>
</g>
</g>
<!-- Node21&#45;&gt;Node24 -->
<g id="edge35" class="edge">
<title>Node21&#45;&gt;Node24</title>
<path fill="none" stroke="#63b8ff" d="M1716.31,-695.74C1822.77,-695.31 2015.13,-689 2071,-650.5 2101.81,-629.27 2109,-612.79 2109,-575.38 2109,-575.38 2109,-575.38 2109,-512.5 2109,-403.4 1959.11,-349.46 1886.51,-329.74"/>
<polygon fill="#63b8ff" stroke="#63b8ff" points="1716.33,-692.24 1706.34,-695.77 1716.35,-699.24 1716.33,-692.24"/>
</g>
<!-- Node25 -->
<g id="node24" class="node">
<title>Node25</title>
<g id="a_node24"><a xlink:href="v8-message_8h.html" target="_top" xlink:title=" ">
<polygon fill="white" stroke="#666666" points="1790.25,-268.38 1679.75,-268.38 1679.75,-249.12 1790.25,-249.12 1790.25,-268.38"/>
<text text-anchor="middle" x="1735" y="-254.88" font-family="Helvetica,sans-Serif" font-size="10.00">include/v8&#45;message.h</text>
</a>
</g>
</g>
<!-- Node21&#45;&gt;Node25 -->
<g id="edge108" class="edge">
<title>Node21&#45;&gt;Node25</title>
<path fill="none" stroke="#63b8ff" d="M1682.75,-682.62C1757.34,-656.1 1918.56,-586.26 1976,-462.25 2027.76,-350.49 1845.55,-449.29 1783,-395.75 1743.44,-361.88 1736.48,-293.27 1735.26,-268.73"/>
<polygon fill="#63b8ff" stroke="#63b8ff" points="1682.11,-679.48 1673.82,-686.08 1684.41,-686.1 1682.11,-679.48"/>
</g>
<!-- Node26 -->
<g id="node25" class="node">
<title>Node26</title>
<g id="a_node25"><a xlink:href="v8-json_8h.html" target="_top" xlink:title=" ">
<polygon fill="white" stroke="#666666" points="1866.38,-201.88 1777.62,-201.88 1777.62,-182.62 1866.38,-182.62 1866.38,-201.88"/>
<text text-anchor="middle" x="1822" y="-188.38" font-family="Helvetica,sans-Serif" font-size="10.00">include/v8&#45;json.h</text>
</a>
</g>
</g>
<!-- Node21&#45;&gt;Node26 -->
<g id="edge107" class="edge">
<title>Node21&#45;&gt;Node26</title>
<path fill="none" stroke="#63b8ff" d="M1716.51,-692.82C1866.64,-687.61 2201.42,-673.54 2248,-650.5 2305.52,-622.04 2371.62,-458.72 2384,-395.75 2402.15,-303.46 2323.41,-280.66 2237,-243.5 2203.5,-229.09 1966.77,-206.33 1866.6,-197.22"/>
<polygon fill="#63b8ff" stroke="#63b8ff" points="1716.47,-689.35 1706.59,-693.19 1716.71,-696.35 1716.47,-689.35"/>
</g>
<!-- Node27 -->
<g id="node26" class="node">
<title>Node27</title>
<g id="a_node26"><a xlink:href="v8-profiler_8h.html" target="_top" xlink:title=" ">
<polygon fill="white" stroke="#666666" points="2527.62,-201.88 2428.38,-201.88 2428.38,-182.62 2527.62,-182.62 2527.62,-201.88"/>
<text text-anchor="middle" x="2478" y="-188.38" font-family="Helvetica,sans-Serif" font-size="10.00">include/v8&#45;profiler.h</text>
</a>
</g>
</g>
<!-- Node21&#45;&gt;Node27 -->
<g id="edge121" class="edge">
<title>Node21&#45;&gt;Node27</title>
<path fill="none" stroke="#63b8ff" d="M1716.48,-693.96C1895.45,-690.65 2348.3,-679.5 2410,-650.5 2533.89,-592.28 2560,-518.39 2560,-381.5 2560,-381.5 2560,-381.5 2560,-318.62 2560,-267.65 2511.93,-221.24 2489.4,-202.28"/>
<polygon fill="#63b8ff" stroke="#63b8ff" points="1716.54,-690.48 1706.61,-694.16 1716.67,-697.48 1716.54,-690.48"/>
</g>
<!-- Node28 -->
<g id="node27" class="node">
<title>Node28</title>
<g id="a_node27"><a xlink:href="v8-script_8h.html" target="_top" xlink:title=" ">
<polygon fill="#fff0f0" stroke="red" points="1722.38,-201.88 1627.62,-201.88 1627.62,-182.62 1722.38,-182.62 1722.38,-201.88"/>
<text text-anchor="middle" x="1675" y="-188.38" font-family="Helvetica,sans-Serif" font-size="10.00">include/v8&#45;script.h</text>
</a>
</g>
</g>
<!-- Node21&#45;&gt;Node28 -->
<g id="edge125" class="edge">
<title>Node21&#45;&gt;Node28</title>
<path fill="none" stroke="#63b8ff" d="M1716.3,-695.58C1828.11,-695.05 2036.62,-688.74 2099,-650.5 2132.78,-629.79 2147,-615 2147,-575.38 2147,-575.38 2147,-575.38 2147,-512.5 2147,-471.2 2127.13,-463.74 2101,-431.75 2022.36,-335.46 1975.08,-340.44 1870,-274 1849.58,-261.09 1846.66,-254.21 1825,-243.5 1787.71,-225.05 1742.02,-210.84 1710.94,-202.31"/>
<polygon fill="#63b8ff" stroke="#63b8ff" points="1716.45,-692.08 1706.46,-695.62 1716.47,-699.08 1716.45,-692.08"/>
</g>
<!-- Node30 -->
<g id="node28" class="node">
<title>Node30</title>
<g id="a_node28"><a xlink:href="v8-container_8h.html" target="_top" xlink:title=" ">
<polygon fill="white" stroke="#666666" points="838.25,-390.12 727.75,-390.12 727.75,-370.88 838.25,-370.88 838.25,-390.12"/>
<text text-anchor="middle" x="783" y="-376.62" font-family="Helvetica,sans-Serif" font-size="10.00">include/v8&#45;container.h</text>
</a>
</g>
</g>
<!-- Node21&#45;&gt;Node30 -->
<g id="edge47" class="edge">
<title>Node21&#45;&gt;Node30</title>
<path fill="none" stroke="#63b8ff" d="M1571.44,-694.25C1446.39,-691.87 1195.92,-683.06 1115,-650.5 1075.94,-634.78 845.11,-435.43 793.31,-390.47"/>
<polygon fill="#63b8ff" stroke="#63b8ff" points="1571.35,-697.76 1581.41,-694.45 1571.47,-690.76 1571.35,-697.76"/>
</g>
<!-- Node31 -->
<g id="node29" class="node">
<title>Node31</title>
<g id="a_node29"><a xlink:href="v8-data_8h.html" target="_top" xlink:title=" ">
<polygon fill="white" stroke="#666666" points="1688.75,-644.88 1599.25,-644.88 1599.25,-625.62 1688.75,-625.62 1688.75,-644.88"/>
<text text-anchor="middle" x="1644" y="-631.38" font-family="Helvetica,sans-Serif" font-size="10.00">include/v8&#45;data.h</text>
</a>
</g>
</g>
<!-- Node21&#45;&gt;Node31 -->
<g id="edge50" class="edge">
<title>Node21&#45;&gt;Node31</title>
<path fill="none" stroke="#63b8ff" d="M1644,-675.37C1644,-665.18 1644,-653.26 1644,-645.28"/>
<polygon fill="#63b8ff" stroke="#63b8ff" points="1640.5,-675.18 1644,-685.18 1647.5,-675.18 1640.5,-675.18"/>
</g>
<!-- Node21&#45;&gt;Node32 -->
<g id="edge120" class="edge">
<title>Node21&#45;&gt;Node32</title>
<path fill="none" stroke="#63b8ff" d="M1571.87,-687.76C1538.2,-681.69 1498.84,-670.64 1468,-650.5 1415.87,-616.45 1378.47,-547.95 1366.28,-523.46"/>
<polygon fill="#63b8ff" stroke="#63b8ff" points="1571.14,-691.35 1581.58,-689.56 1572.3,-684.45 1571.14,-691.35"/>
</g>
<!-- Node33 -->
<g id="node31" class="node">
<title>Node33</title>
<g id="a_node31"><a xlink:href="v8-extension_8h.html" target="_top" xlink:title=" ">
<polygon fill="white" stroke="#666666" points="330,-456.62 218,-456.62 218,-437.38 330,-437.38 330,-456.62"/>
<text text-anchor="middle" x="274" y="-443.12" font-family="Helvetica,sans-Serif" font-size="10.00">include/v8&#45;extension.h</text>
</a>
</g>
</g>
<!-- Node21&#45;&gt;Node33 -->
<g id="edge100" class="edge">
<title>Node21&#45;&gt;Node33</title>
<path fill="none" stroke="#63b8ff" d="M1571.37,-695.17C1333.72,-694.94 588.84,-690.94 489,-650.5 470.19,-642.88 471.96,-631.16 455,-620 423.1,-599.02 406.75,-607.93 377,-584 329.23,-545.57 291.37,-480.37 278.63,-456.82"/>
<polygon fill="#63b8ff" stroke="#63b8ff" points="1571.29,-698.67 1581.3,-695.18 1571.3,-691.67 1571.29,-698.67"/>
</g>
<!-- Node21&#45;&gt;Node34 -->
<g id="edge112" class="edge">
<title>Node21&#45;&gt;Node34</title>
<path fill="none" stroke="#63b8ff" d="M1571.36,-692.42C1442.87,-687.06 1185.81,-673.59 1152,-650.5 1081.28,-602.19 1057.76,-489.31 1052.34,-456.87"/>
<polygon fill="#63b8ff" stroke="#63b8ff" points="1571.12,-695.95 1581.26,-692.87 1571.41,-688.96 1571.12,-695.95"/>
</g>
<!-- Node35 -->
<g id="node33" class="node">
<title>Node35</title>
<g id="a_node33"><a xlink:href="v8-date_8h.html" target="_top" xlink:title=" ">
<polygon fill="white" stroke="#666666" points="983.75,-390.12 894.25,-390.12 894.25,-370.88 983.75,-370.88 983.75,-390.12"/>
<text text-anchor="middle" x="939" y="-376.62" font-family="Helvetica,sans-Serif" font-size="10.00">include/v8&#45;date.h</text>
</a>
</g>
</g>
<!-- Node21&#45;&gt;Node35 -->
<g id="edge97" class="edge">
<title>Node21&#45;&gt;Node35</title>
<path fill="none" stroke="#63b8ff" d="M1571.84,-692.56C1450.21,-687.58 1214.75,-674.9 1186,-650.5 1159.66,-628.14 1166,-609.93 1166,-575.38 1166,-575.38 1166,-575.38 1166,-512.5 1166,-468.57 1144.71,-457.34 1109,-431.75 1103.29,-427.66 1019.33,-403.86 971.58,-390.54"/>
<polygon fill="#63b8ff" stroke="#63b8ff" points="1571.4,-696.08 1581.53,-692.99 1571.68,-689.09 1571.4,-696.08"/>
</g>
<!-- Node36 -->
<g id="node34" class="node">
<title>Node36</title>
<g id="a_node34"><a xlink:href="v8-exception_8h.html" target="_top" xlink:title=" ">
<polygon fill="white" stroke="#666666" points="596,-390.12 484,-390.12 484,-370.88 596,-370.88 596,-390.12"/>
<text text-anchor="middle" x="540" y="-376.62" font-family="Helvetica,sans-Serif" font-size="10.00">include/v8&#45;exception.h</text>
</a>
</g>
</g>
<!-- Node21&#45;&gt;Node36 -->
<g id="edge99" class="edge">
<title>Node21&#45;&gt;Node36</title>
<path fill="none" stroke="#63b8ff" d="M1571.61,-693.62C1372.07,-689.2 823.73,-674.93 746,-650.5 685.97,-631.63 626,-638.3 626,-575.38 626,-575.38 626,-575.38 626,-512.5 626,-458.63 574.55,-409.73 551.24,-390.33"/>
<polygon fill="#63b8ff" stroke="#63b8ff" points="1571.47,-697.14 1581.55,-693.87 1571.63,-690.15 1571.47,-697.14"/>
</g>
<!-- Node37 -->
<g id="node35" class="node">
<title>Node37</title>
<g id="a_node35"><a xlink:href="v8-primitive-object_8h.html" target="_top" xlink:title=" ">
<polygon fill="white" stroke="#666666" points="1102,-395.75 1002,-395.75 1002,-365.25 1102,-365.25 1102,-395.75"/>
<text text-anchor="start" x="1010" y="-382.25" font-family="Helvetica,sans-Serif" font-size="10.00">include/v8&#45;primitive</text>
<text text-anchor="middle" x="1052" y="-371" font-family="Helvetica,sans-Serif" font-size="10.00">&#45;object.h</text>
</a>
</g>
</g>
<!-- Node21&#45;&gt;Node37 -->
<g id="edge119" class="edge">
<title>Node21&#45;&gt;Node37</title>
<path fill="none" stroke="#63b8ff" d="M1571.8,-689.62C1528.3,-684.06 1472.84,-672.9 1428,-650.5 1296.52,-584.82 1305.42,-508.38 1180,-431.75 1155.45,-416.75 1125.65,-404.74 1100.99,-396.23"/>
<polygon fill="#63b8ff" stroke="#63b8ff" points="1571.24,-693.2 1581.59,-690.91 1572.08,-686.25 1571.24,-693.2"/>
</g>
<!-- Node38 -->
<g id="node36" class="node">
<title>Node38</title>
<g id="a_node36"><a xlink:href="v8-promise_8h.html" target="_top" xlink:title=" ">
<polygon fill="white" stroke="#666666" points="1897.62,-390.12 1792.38,-390.12 1792.38,-370.88 1897.62,-370.88 1897.62,-390.12"/>
<text text-anchor="middle" x="1845" y="-376.62" font-family="Helvetica,sans-Serif" font-size="10.00">include/v8&#45;promise.h</text>
</a>
</g>
</g>
<!-- Node21&#45;&gt;Node38 -->
<g id="edge122" class="edge">
<title>Node21&#45;&gt;Node38</title>
<path fill="none" stroke="#63b8ff" d="M1716.31,-691.36C1825.38,-685.04 2021.98,-670.98 2047,-650.5 2074.12,-628.3 2071,-610.43 2071,-575.38 2071,-575.38 2071,-575.38 2071,-512.5 2071,-467.25 2046.17,-457.55 2009,-431.75 1988.69,-417.66 1925.77,-400.71 1884.03,-390.54"/>
<polygon fill="#63b8ff" stroke="#63b8ff" points="1716.17,-687.92 1706.39,-691.98 1716.57,-694.9 1716.17,-687.92"/>
</g>
<!-- Node39 -->
<g id="node37" class="node">
<title>Node39</title>
<g id="a_node37"><a xlink:href="v8-statistics_8h.html" target="_top" xlink:title=" ">
<polygon fill="white" stroke="#666666" points="2108.25,-329.25 1997.75,-329.25 1997.75,-310 2108.25,-310 2108.25,-329.25"/>
<text text-anchor="middle" x="2053" y="-315.75" font-family="Helvetica,sans-Serif" font-size="10.00">include/v8&#45;statistics.h</text>
</a>
</g>
</g>
<!-- Node21&#45;&gt;Node39 -->
<g id="edge127" class="edge">
<title>Node21&#45;&gt;Node39</title>
<path fill="none" stroke="#63b8ff" d="M1716.29,-696C1840.06,-696.34 2086.43,-691.62 2161,-650.5 2197.7,-630.26 2218,-617.29 2218,-575.38 2218,-575.38 2218,-575.38 2218,-446 2218,-409.13 2224.2,-392.16 2199,-365.25 2175.81,-340.49 2139.31,-329.33 2108.61,-324.37"/>
<polygon fill="#63b8ff" stroke="#63b8ff" points="1716.45,-692.5 1706.43,-695.96 1716.42,-699.5 1716.45,-692.5"/>
</g>
<!-- Node40 -->
<g id="node38" class="node">
<title>Node40</title>
<g id="a_node38"><a xlink:href="v8-regexp_8h.html" target="_top" xlink:title=" ">
<polygon fill="white" stroke="#666666" points="1257.62,-390.12 1158.38,-390.12 1158.38,-370.88 1257.62,-370.88 1257.62,-390.12"/>
<text text-anchor="middle" x="1208" y="-376.62" font-family="Helvetica,sans-Serif" font-size="10.00">include/v8&#45;regexp.h</text>
</a>
</g>
</g>
<!-- Node21&#45;&gt;Node40 -->
<g id="edge124" class="edge">
<title>Node21&#45;&gt;Node40</title>
<path fill="none" stroke="#63b8ff" d="M1616.69,-680.92C1602.21,-672.85 1584.48,-662.06 1570,-650.5 1537.94,-624.91 1534.31,-613.69 1506,-584 1435.09,-509.63 1422.04,-481.28 1332,-431.75 1300.25,-414.29 1261.15,-399.45 1235.45,-390.52"/>
<polygon fill="#63b8ff" stroke="#63b8ff" points="1614.65,-684.35 1625.11,-686.06 1618,-678.2 1614.65,-684.35"/>
</g>
<!-- Node21&#45;&gt;Node41 -->
<g id="edge139" class="edge">
<title>Node21&#45;&gt;Node41</title>
<path fill="none" stroke="#63b8ff" d="M1716.48,-694.86C1938.66,-693.65 2600.58,-686.98 2690,-650.5 2799.18,-605.96 2822.27,-431.92 2826.26,-390.42"/>
<polygon fill="#63b8ff" stroke="#63b8ff" points="1716.59,-691.36 1706.61,-694.91 1716.63,-698.36 1716.59,-691.36"/>
</g>
<!-- Node21&#45;&gt;Node42 -->
<g id="edge138" class="edge">
<title>Node21&#45;&gt;Node42</title>
<path fill="none" stroke="#63b8ff" d="M1571.63,-693.71C1380.58,-689.62 872.36,-676.44 801,-650.5 761.82,-636.26 725.16,-601.12 709.28,-584.44"/>
<polygon fill="#63b8ff" stroke="#63b8ff" points="1571.32,-697.22 1581.4,-693.93 1571.47,-690.22 1571.32,-697.22"/>
</g>
<!-- Node45 -->
<g id="node43" class="node">
<title>Node45</title>
<g id="a_node43"><a xlink:href="v8-forward_8h.html" target="_top" xlink:title=" ">
<polygon fill="white" stroke="#666666" points="1297.5,-644.88 1194.5,-644.88 1194.5,-625.62 1297.5,-625.62 1297.5,-644.88"/>
<text text-anchor="middle" x="1246" y="-631.38" font-family="Helvetica,sans-Serif" font-size="10.00">include/v8&#45;forward.h</text>
</a>
</g>
</g>
<!-- Node21&#45;&gt;Node45 -->
<g id="edge102" class="edge">
<title>Node21&#45;&gt;Node45</title>
<path fill="none" stroke="#63b8ff" d="M1571.36,-687.04C1503.93,-679.13 1400.86,-666.04 1312,-650.5 1303.46,-649.01 1294.34,-647.18 1285.69,-645.35"/>
<polygon fill="#63b8ff" stroke="#63b8ff" points="1570.94,-690.63 1581.28,-688.31 1571.75,-683.67 1570.94,-690.63"/>
</g>
<!-- Node46 -->
<g id="node44" class="node">
<title>Node46</title>
<g id="a_node44"><a xlink:href="v8-microtask-queue_8h.html" target="_top" xlink:title=" ">
<polygon fill="white" stroke="#666666" points="3152,-141 3046,-141 3046,-110.5 3152,-110.5 3152,-141"/>
<text text-anchor="start" x="3054" y="-127.5" font-family="Helvetica,sans-Serif" font-size="10.00">include/v8&#45;microtask</text>
<text text-anchor="middle" x="3099" y="-116.25" font-family="Helvetica,sans-Serif" font-size="10.00">&#45;queue.h</text>
</a>
</g>
</g>
<!-- Node21&#45;&gt;Node46 -->
<g id="edge110" class="edge">
<title>Node21&#45;&gt;Node46</title>
<path fill="none" stroke="#63b8ff" d="M1716.16,-695.16C1963.98,-694.9 2771.17,-690.93 2880,-650.5 2961.14,-620.36 2988.22,-603.42 3032,-528.75 3110.37,-395.08 3103.69,-195.92 3100.12,-141.14"/>
<polygon fill="#63b8ff" stroke="#63b8ff" points="1716.47,-691.66 1706.48,-695.16 1716.48,-698.66 1716.47,-691.66"/>
</g>
<!-- Node21&#45;&gt;Node47 -->
<g id="edge113" class="edge">
<title>Node21&#45;&gt;Node47</title>
<path fill="none" stroke="#63b8ff" d="M1716.29,-694.59C1885.04,-692.77 2294.56,-684.82 2346,-650.5 2388.7,-622.02 2405.22,-558.02 2410.67,-529.13"/>
<polygon fill="#63b8ff" stroke="#63b8ff" points="1716.5,-691.1 1706.53,-694.7 1716.57,-698.1 1716.5,-691.1"/>
</g>
<!-- Node21&#45;&gt;Node48 -->
<g id="edge129" class="edge">
<title>Node21&#45;&gt;Node48</title>
<path fill="none" stroke="#63b8ff" d="M1571.49,-695.01C1372.79,-694.2 802.92,-688.46 331,-650.5 315.17,-649.23 298.15,-647.33 282.27,-645.34"/>
<polygon fill="#63b8ff" stroke="#63b8ff" points="1571.35,-698.52 1581.36,-695.05 1571.37,-691.52 1571.35,-698.52"/>
</g>
<!-- Node50 -->
<g id="node48" class="node">
<title>Node50</title>
<g id="a_node48"><a xlink:href="v8-value-serializer_8h.html" target="_top" xlink:title=" ">
<polygon fill="white" stroke="#666666" points="521.62,-584 386.38,-584 386.38,-564.75 521.62,-564.75 521.62,-584"/>
<text text-anchor="middle" x="454" y="-570.5" font-family="Helvetica,sans-Serif" font-size="10.00">include/v8&#45;value&#45;serializer.h</text>
</a>
</g>
</g>
<!-- Node21&#45;&gt;Node50 -->
<g id="edge136" class="edge">
<title>Node21&#45;&gt;Node50</title>
<path fill="none" stroke="#63b8ff" d="M1571.59,-695.08C1340.66,-694.56 631.17,-689.73 536,-650.5 501.73,-636.37 472.74,-601.18 460.39,-584.46"/>
<polygon fill="#63b8ff" stroke="#63b8ff" points="1571.54,-698.59 1581.55,-695.11 1571.56,-691.59 1571.54,-698.59"/>
</g>
<!-- Node22&#45;&gt;Node5 -->
<g id="edge30" class="edge">
<title>Node22&#45;&gt;Node5</title>
<path fill="none" stroke="#63b8ff" d="M1596.83,-366.72C1639.59,-351.05 1715.74,-324.78 1783,-310 1905.38,-283.11 2052.47,-269.11 2127.94,-263.22"/>
<polygon fill="#63b8ff" stroke="#63b8ff" points="1595.88,-363.71 1587.71,-370.46 1598.3,-370.28 1595.88,-363.71"/>
</g>
<!-- Node22&#45;&gt;Node8 -->
<g id="edge34" class="edge">
<title>Node22&#45;&gt;Node8</title>
<path fill="none" stroke="#63b8ff" d="M1531.06,-365.78C1494.03,-347.47 1438,-311.26 1438,-259.75 1438,-259.75 1438,-259.75 1438,-124.75 1438,-69.22 1370.41,-34.87 1331.59,-19.71"/>
<polygon fill="#63b8ff" stroke="#63b8ff" points="1529.41,-369.35 1539.94,-370.47 1532.41,-363.02 1529.41,-369.35"/>
</g>
<!-- Node22&#45;&gt;Node23 -->
<g id="edge31" class="edge">
<title>Node22&#45;&gt;Node23</title>
<path fill="none" stroke="#63b8ff" d="M1563,-359.74C1563,-349.56 1563,-337.63 1563,-329.65"/>
<polygon fill="#63b8ff" stroke="#63b8ff" points="1559.5,-359.56 1563,-369.56 1566.5,-359.56 1559.5,-359.56"/>
</g>
<!-- Node23&#45;&gt;Node8 -->
<g id="edge33" class="edge">
<title>Node23&#45;&gt;Node8</title>
<path fill="none" stroke="#63b8ff" d="M1633.07,-314.84C1681.63,-309.99 1746.71,-298.98 1799,-274 1849,-250.11 1894,-248.66 1894,-193.25 1894,-193.25 1894,-193.25 1894,-124.75 1894,-10.96 1464.92,-8.27 1339.21,-9.93"/>
<polygon fill="#63b8ff" stroke="#63b8ff" points="1632.98,-311.42 1623.34,-315.83 1633.63,-318.39 1632.98,-311.42"/>
</g>
<!-- Node23&#45;&gt;Node15 -->
<g id="edge32" class="edge">
<title>Node23&#45;&gt;Node15</title>
<path fill="none" stroke="#63b8ff" d="M1492.79,-315.24C1269.38,-304.47 578.64,-271.16 390.02,-262.07"/>
<polygon fill="#63b8ff" stroke="#63b8ff" points="1492.54,-318.78 1502.7,-315.77 1492.88,-311.79 1492.54,-318.78"/>
</g>
<!-- Node24&#45;&gt;Node5 -->
<g id="edge37" class="edge">
<title>Node24&#45;&gt;Node5</title>
<path fill="none" stroke="#63b8ff" d="M1909.43,-307.67C1972.46,-296.42 2069.36,-279.13 2127.91,-268.69"/>
<polygon fill="#63b8ff" stroke="#63b8ff" points="1909.07,-304.35 1899.84,-309.55 1910.3,-311.24 1909.07,-304.35"/>
</g>
<!-- Node24&#45;&gt;Node7 -->
<g id="edge36" class="edge">
<title>Node24&#45;&gt;Node7</title>
<path fill="none" stroke="#63b8ff" d="M1882.54,-305.7C1950.51,-280.26 2100.08,-224.28 2158.73,-202.33"/>
<polygon fill="#63b8ff" stroke="#63b8ff" points="1881.5,-302.72 1873.36,-309.51 1883.95,-309.28 1881.5,-302.72"/>
</g>
<!-- Node24&#45;&gt;Node25 -->
<g id="edge38" class="edge">
<title>Node24&#45;&gt;Node25</title>
<path fill="none" stroke="#63b8ff" d="M1821.09,-304.6C1799.77,-293.5 1770.64,-278.32 1752.32,-268.78"/>
<polygon fill="#63b8ff" stroke="#63b8ff" points="1819.35,-308.17 1829.84,-309.68 1822.59,-301.96 1819.35,-308.17"/>
</g>
<!-- Node24&#45;&gt;Node28 -->
<g id="edge46" class="edge">
<title>Node24&#45;&gt;Node28</title>
<path fill="none" stroke="#63b8ff" d="M1839.97,-300.21C1831.82,-283.42 1817.73,-258.93 1799,-243.5 1774.17,-223.05 1739.91,-210.02 1713.69,-202.36"/>
<polygon fill="#63b8ff" stroke="#63b8ff" points="1837.1,-301.35 1844.46,-308.97 1843.46,-298.42 1837.1,-301.35"/>
</g>
<!-- Node25&#45;&gt;Node8 -->
<g id="edge45" class="edge">
<title>Node25&#45;&gt;Node8</title>
<path fill="none" stroke="#63b8ff" d="M1681.17,-245.37C1659.13,-237.8 1635.09,-225.9 1619,-207.5 1572.71,-154.57 1628.43,-102.11 1576,-55.25 1541.56,-24.47 1404.02,-14.72 1339.17,-11.8"/>
<polygon fill="#63b8ff" stroke="#63b8ff" points="1679.85,-248.95 1690.44,-248.65 1681.98,-242.28 1679.85,-248.95"/>
</g>
<!-- Node25&#45;&gt;Node17 -->
<g id="edge39" class="edge">
<title>Node25&#45;&gt;Node17</title>
<path fill="none" stroke="#63b8ff" d="M1668.91,-252.54C1510.91,-240.08 1113.75,-208.76 969.99,-197.43"/>
<polygon fill="#63b8ff" stroke="#63b8ff" points="1668.17,-256.07 1678.42,-253.37 1668.72,-249.09 1668.17,-256.07"/>
</g>
<!-- Node25&#45;&gt;Node26 -->
<g id="edge40" class="edge">
<title>Node25&#45;&gt;Node26</title>
<path fill="none" stroke="#63b8ff" d="M1755.69,-242.41C1772.52,-229.93 1795.7,-212.75 1809.73,-202.35"/>
<polygon fill="#63b8ff" stroke="#63b8ff" points="1754.05,-240.01 1748.1,-248.78 1758.21,-245.64 1754.05,-240.01"/>
</g>
<!-- Node25&#45;&gt;Node27 -->
<g id="edge42" class="edge">
<title>Node25&#45;&gt;Node27</title>
<path fill="none" stroke="#63b8ff" d="M1801.34,-254.09C1918.55,-247.28 2169.82,-231.2 2381,-207.5 2396.39,-205.77 2413.1,-203.47 2428.24,-201.23"/>
<polygon fill="#63b8ff" stroke="#63b8ff" points="1801.21,-250.65 1791.42,-254.72 1801.61,-257.64 1801.21,-250.65"/>
</g>
<!-- Node25&#45;&gt;Node28 -->
<g id="edge43" class="edge">
<title>Node25&#45;&gt;Node28</title>
<path fill="none" stroke="#63b8ff" d="M1719.38,-240.95C1707.83,-228.54 1692.56,-212.12 1683.27,-202.14"/>
<polygon fill="#63b8ff" stroke="#63b8ff" points="1716.28,-242.84 1725.66,-247.78 1721.41,-238.08 1716.28,-242.84"/>
</g>
<!-- Node26&#45;&gt;Node8 -->
<g id="edge41" class="edge">
<title>Node26&#45;&gt;Node8</title>
<path fill="none" stroke="#63b8ff" d="M1819.84,-171.5C1815.35,-141.01 1802.04,-83.12 1764,-55.25 1729.89,-30.26 1439.52,-16.13 1339.05,-11.95"/>
<polygon fill="#63b8ff" stroke="#63b8ff" points="1816.49,-171.91 1821.23,-181.39 1823.43,-171.02 1816.49,-171.91"/>
</g>
<!-- Node28&#45;&gt;Node8 -->
<g id="edge44" class="edge">
<title>Node28&#45;&gt;Node8</title>
<path fill="none" stroke="#63b8ff" d="M1672.23,-171.68C1666.84,-141.44 1651.95,-83.88 1614,-55.25 1571.27,-23.02 1410.56,-13.96 1339.34,-11.5"/>
<polygon fill="#63b8ff" stroke="#63b8ff" points="1668.92,-172.15 1673.95,-181.47 1675.83,-171.05 1668.92,-172.15"/>
</g>
<!-- Node30&#45;&gt;Node8 -->
<g id="edge48" class="edge">
<title>Node30&#45;&gt;Node8</title>
<path fill="none" stroke="#63b8ff" d="M773.83,-360.57C763.46,-337.37 748,-296.61 748,-259.75 748,-259.75 748,-259.75 748,-124.75 748,-17.4 1150.06,-10.08 1271,-10.31"/>
<polygon fill="#63b8ff" stroke="#63b8ff" points="771.04,-361.86 778.42,-369.45 777.38,-358.91 771.04,-361.86"/>
</g>
<!-- Node31&#45;&gt;Node5 -->
<g id="edge53" class="edge">
<title>Node31&#45;&gt;Node5</title>
<path fill="none" stroke="#63b8ff" d="M1699.87,-630.57C1819.63,-619.31 2099.83,-574.2 2219,-395.75 2240.17,-364.06 2231.79,-345.9 2219,-310 2213.03,-293.24 2198.81,-278.03 2188.8,-268.84"/>
<polygon fill="#63b8ff" stroke="#63b8ff" points="1699.78,-627.15 1690.13,-631.53 1700.4,-634.12 1699.78,-627.15"/>
</g>
<!-- Node31&#45;&gt;Node8 -->
<g id="edge96" class="edge">
<title>Node31&#45;&gt;Node8</title>
<path fill="none" stroke="#63b8ff" d="M1620.58,-619.29C1552.92,-574.05 1362,-431.19 1362,-259.75 1362,-259.75 1362,-259.75 1362,-124.75 1362,-81.56 1328.93,-37.95 1313.17,-19.62"/>
<polygon fill="#63b8ff" stroke="#63b8ff" points="1618.35,-622.67 1628.63,-625.25 1622.2,-616.83 1618.35,-622.67"/>
</g>
<!-- Node31&#45;&gt;Node13 -->
<g id="edge52" class="edge">
<title>Node31&#45;&gt;Node13</title>
<path fill="none" stroke="#63b8ff" d="M1700.04,-632.42C1864.14,-626.26 2340.54,-602.31 2475,-528.75 2549.81,-487.82 2598,-466.77 2598,-381.5 2598,-381.5 2598,-381.5 2598,-318.62 2598,-255.06 2605,-239.22 2618,-177 2621.08,-162.28 2626.05,-145.52 2629.17,-135.56"/>
<polygon fill="#63b8ff" stroke="#63b8ff" points="1700.09,-628.96 1690.23,-632.82 1700.35,-635.95 1700.09,-628.96"/>
</g>
<!-- Node31&#45;&gt;Node18 -->
<g id="edge87" class="edge">
<title>Node31&#45;&gt;Node18</title>
<path fill="none" stroke="#63b8ff" d="M1588.1,-627.87C1403.18,-605.65 815.66,-525.89 685,-395.75 666.89,-377.71 665.2,-345.07 665.53,-329.43"/>
<polygon fill="#63b8ff" stroke="#63b8ff" points="1587.57,-631.45 1597.92,-629.16 1588.4,-624.5 1587.57,-631.45"/>
</g>
<!-- Node31&#45;&gt;Node24 -->
<g id="edge51" class="edge">
<title>Node31&#45;&gt;Node24</title>
<path fill="none" stroke="#63b8ff" d="M1649.29,-615.25C1663.44,-567.47 1706.41,-440.8 1783,-365.25 1797.71,-350.73 1817.69,-337.82 1831.59,-329.66"/>
<polygon fill="#63b8ff" stroke="#63b8ff" points="1645.71,-614.03 1646.31,-624.61 1652.44,-615.97 1645.71,-614.03"/>
</g>
<!-- Node31&#45;&gt;Node28 -->
<g id="edge86" class="edge">
<title>Node31&#45;&gt;Node28</title>
<path fill="none" stroke="#63b8ff" d="M1645.3,-614.42C1649.07,-557 1660.43,-385.65 1671,-243.5 1672.08,-229.01 1673.44,-212.18 1674.26,-202.14"/>
<polygon fill="#63b8ff" stroke="#63b8ff" points="1641.75,-613.95 1644.59,-624.16 1648.74,-614.41 1641.75,-613.95"/>
</g>
<!-- Node31&#45;&gt;Node32 -->
<g id="edge54" class="edge">
<title>Node31&#45;&gt;Node32</title>
<path fill="none" stroke="#63b8ff" d="M1606.31,-621.67C1578.34,-612.06 1539.43,-598.11 1506,-584 1459.2,-564.24 1405.72,-537.22 1379.03,-523.41"/>
<polygon fill="#63b8ff" stroke="#63b8ff" points="1604.86,-625.22 1615.45,-625.13 1607.12,-618.59 1604.86,-625.22"/>
</g>
<!-- Node31&#45;&gt;Node42 -->
<g id="edge88" class="edge">
<title>Node31&#45;&gt;Node42</title>
<path fill="none" stroke="#63b8ff" d="M1587.91,-631.78C1419.4,-624.25 919.31,-601.06 757,-584 754.16,-583.7 751.25,-583.36 748.31,-582.99"/>
<polygon fill="#63b8ff" stroke="#63b8ff" points="1587.61,-635.32 1597.75,-632.26 1587.92,-628.32 1587.61,-635.32"/>
</g>
<!-- Node32&#45;&gt;Node5 -->
<g id="edge58" class="edge">
<title>Node32&#45;&gt;Node5</title>
<path fill="none" stroke="#63b8ff" d="M1409.25,-500.96C1413.22,-500.03 1417.18,-499.11 1421,-498.25 1560.56,-466.67 1595.17,-457.07 1736,-431.75 1843.02,-412.51 1878.36,-439.29 1978,-395.75 1997.84,-387.08 1997.09,-375.81 2016,-365.25 2057.61,-342.01 2077.57,-356.02 2117,-329.25 2141.71,-312.48 2162.71,-283.39 2172.35,-268.74"/>
<polygon fill="#63b8ff" stroke="#63b8ff" points="1408.71,-497.73 1399.78,-503.44 1410.32,-504.54 1408.71,-497.73"/>
</g>
<!-- Node32&#45;&gt;Node8 -->
<g id="edge85" class="edge">
<title>Node32&#45;&gt;Node8</title>
<path fill="none" stroke="#63b8ff" d="M1335.92,-498.26C1279.14,-467.25 1149.34,-396.32 1149,-395.75 1142.09,-384.09 1145.49,-378.34 1149,-365.25 1163.03,-312.94 1210,-313.91 1210,-259.75 1210,-259.75 1210,-259.75 1210,-124.75 1210,-75.77 1262.33,-36.63 1289.31,-19.7"/>
<polygon fill="#63b8ff" stroke="#63b8ff" points="1333.86,-501.67 1344.32,-503.39 1337.22,-495.53 1333.86,-501.67"/>
</g>
<!-- Node32&#45;&gt;Node16 -->
<g id="edge57" class="edge">
<title>Node32&#45;&gt;Node16</title>
<path fill="none" stroke="#63b8ff" d="M1426.63,-502.85C1513.65,-489.86 1666.57,-467.03 1744.83,-455.34"/>
<polygon fill="#63b8ff" stroke="#63b8ff" points="1426.21,-499.52 1416.84,-504.46 1427.25,-506.45 1426.21,-499.52"/>
</g>
<!-- Node32&#45;&gt;Node25 -->
<g id="edge59" class="edge">
<title>Node32&#45;&gt;Node25</title>
<path fill="none" stroke="#63b8ff" d="M1368.81,-493.2C1384.28,-452.31 1426.2,-356.87 1495,-310 1550.06,-272.49 1627.49,-262.06 1679.37,-259.62"/>
<polygon fill="#63b8ff" stroke="#63b8ff" points="1365.22,-491.82 1365.07,-502.41 1371.79,-494.22 1365.22,-491.82"/>
</g>
<!-- Node32&#45;&gt;Node33 -->
<g id="edge55" class="edge">
<title>Node32&#45;&gt;Node33</title>
<path fill="none" stroke="#63b8ff" d="M1297.34,-508.67C1101.14,-497.04 514.74,-462.27 330.23,-451.33"/>
<polygon fill="#63b8ff" stroke="#63b8ff" points="1296.86,-512.2 1307.05,-509.3 1297.27,-505.22 1296.86,-512.2"/>
</g>
<!-- Node32&#45;&gt;Node34 -->
<g id="edge60" class="edge">
<title>Node32&#45;&gt;Node34</title>
<path fill="none" stroke="#63b8ff" d="M1307.62,-501.22C1247.19,-488.69 1150.78,-468.69 1094.93,-457.11"/>
<polygon fill="#63b8ff" stroke="#63b8ff" points="1306.6,-504.79 1317.1,-503.4 1308.02,-497.94 1306.6,-504.79"/>
</g>
<!-- Node33&#45;&gt;Node8 -->
<g id="edge56" class="edge">
<title>Node33&#45;&gt;Node8</title>
<path fill="none" stroke="#63b8ff" d="M263.71,-427.5C259.15,-418.26 254.3,-406.74 252,-395.75 238.14,-329.52 237.9,-309.68 252,-243.5 271.09,-153.89 260.31,-106.87 336,-55.25 375.37,-28.4 1102.82,-14.14 1270.66,-11.2"/>
<polygon fill="#63b8ff" stroke="#63b8ff" points="261.01,-428.89 268.76,-436.12 267.21,-425.64 261.01,-428.89"/>
</g>
<!-- Node34&#45;&gt;Node8 -->
<g id="edge84" class="edge">
<title>Node34&#45;&gt;Node8</title>
<path fill="none" stroke="#63b8ff" d="M991.21,-444.58C851.82,-440.74 514.14,-428.17 475,-395.75 402.99,-336.11 418,-286.75 418,-193.25 418,-193.25 418,-193.25 418,-124.75 418,-41.89 510.18,-73.51 591,-55.25 722.9,-25.45 1146.99,-14.06 1270.78,-11.32"/>
<polygon fill="#63b8ff" stroke="#63b8ff" points="990.99,-448.1 1001.08,-444.87 991.18,-441.11 990.99,-448.1"/>
</g>
<!-- Node34&#45;&gt;Node14 -->
<g id="edge78" class="edge">
<title>Node34&#45;&gt;Node14</title>
<path fill="none" stroke="#63b8ff" d="M1110.59,-444.17C1299.42,-438.17 1874.12,-418.14 1907,-395.75 1962.06,-358.26 1970,-326.36 1970,-259.75 1970,-259.75 1970,-259.75 1970,-191.25 1970,-119.53 2211.06,-83.2 2315.11,-70.85"/>
<polygon fill="#63b8ff" stroke="#63b8ff" points="1110.65,-440.7 1100.77,-444.52 1110.87,-447.7 1110.65,-440.7"/>
</g>
<!-- Node34&#45;&gt;Node17 -->
<g id="edge69" class="edge">
<title>Node34&#45;&gt;Node17</title>
<path fill="none" stroke="#63b8ff" d="M1001.94,-434.29C955.62,-422.74 892.2,-405.45 885,-395.75 839.18,-334.01 893.46,-232.29 911.54,-202.01"/>
<polygon fill="#63b8ff" stroke="#63b8ff" points="1000.87,-437.88 1011.41,-436.88 1002.54,-431.08 1000.87,-437.88"/>
</g>
<!-- Node34&#45;&gt;Node18 -->
<g id="edge81" class="edge">
<title>Node34&#45;&gt;Node18</title>
<path fill="none" stroke="#63b8ff" d="M1002.72,-434.62C997.76,-433.59 992.79,-432.61 988,-431.75 869.28,-410.42 822.16,-458.25 719,-395.75 692.93,-379.95 676.26,-345.91 669.47,-329.64"/>
<polygon fill="#63b8ff" stroke="#63b8ff" points="1001.96,-438.25 1012.47,-436.93 1003.43,-431.41 1001.96,-438.25"/>
</g>
<!-- Node34&#45;&gt;Node22 -->
<g id="edge61" class="edge">
<title>Node34&#45;&gt;Node22</title>
<path fill="none" stroke="#63b8ff" d="M1110.28,-438.53C1208.69,-426.13 1404.73,-401.44 1503.38,-389.01"/>
<polygon fill="#63b8ff" stroke="#63b8ff" points="1110.11,-435.15 1100.63,-439.87 1110.99,-442.1 1110.11,-435.15"/>
</g>
<!-- Node34&#45;&gt;Node30 -->
<g id="edge62" class="edge">
<title>Node34&#45;&gt;Node30</title>
<path fill="none" stroke="#63b8ff" d="M1002.5,-434.33C950.25,-421.75 868.23,-402.01 820.64,-390.56"/>
<polygon fill="#63b8ff" stroke="#63b8ff" points="1001.63,-437.96 1012.17,-436.9 1003.27,-431.15 1001.63,-437.96"/>
</g>
<!-- Node34&#45;&gt;Node35 -->
<g id="edge63" class="edge">
<title>Node34&#45;&gt;Node35</title>
<path fill="none" stroke="#63b8ff" d="M1026.14,-431.69C1004.36,-419.14 973.36,-401.29 954.8,-390.6"/>
<polygon fill="#63b8ff" stroke="#63b8ff" points="1024.01,-435.07 1034.43,-437.03 1027.51,-429.01 1024.01,-435.07"/>
</g>
<!-- Node34&#45;&gt;Node36 -->
<g id="edge65" class="edge">
<title>Node34&#45;&gt;Node36</title>
<path fill="none" stroke="#63b8ff" d="M991.23,-438.46C891.69,-425.89 693.28,-400.85 596.17,-388.59"/>
<polygon fill="#63b8ff" stroke="#63b8ff" points="990.64,-442.04 1001,-439.82 991.52,-435.09 990.64,-442.04"/>
</g>
<!-- Node34&#45;&gt;Node37 -->
<g id="edge70" class="edge">
<title>Node34&#45;&gt;Node37</title>
<path fill="none" stroke="#63b8ff" d="M1051.31,-426.27C1051.46,-416.45 1051.64,-404.8 1051.78,-395.84"/>
<polygon fill="#63b8ff" stroke="#63b8ff" points="1047.79,-425.98 1051.14,-436.03 1054.79,-426.09 1047.79,-425.98"/>
</g>
<!-- Node34&#45;&gt;Node38 -->
<g id="edge72" class="edge">
<title>Node34&#45;&gt;Node38</title>
<path fill="none" stroke="#63b8ff" d="M1110.54,-441.16C1260.13,-429.01 1649.88,-397.35 1792.08,-385.8"/>
<polygon fill="#63b8ff" stroke="#63b8ff" points="1110.45,-437.74 1100.77,-442.04 1111.02,-444.72 1110.45,-437.74"/>
</g>
<!-- Node34&#45;&gt;Node40 -->
<g id="edge79" class="edge">
<title>Node34&#45;&gt;Node40</title>
<path fill="none" stroke="#63b8ff" d="M1082.94,-432.88C1113.61,-420.28 1159.12,-401.58 1185.95,-390.56"/>
<polygon fill="#63b8ff" stroke="#63b8ff" points="1082.08,-429.86 1074.16,-436.9 1084.74,-436.33 1082.08,-429.86"/>
</g>
<!-- Node34&#45;&gt;Node41 -->
<g id="edge82" class="edge">
<title>Node34&#45;&gt;Node41</title>
<path fill="none" stroke="#63b8ff" d="M1110.83,-443.83C1386.06,-433.83 2527.71,-392.37 2778.25,-383.27"/>
<polygon fill="#63b8ff" stroke="#63b8ff" points="1110.75,-440.36 1100.89,-444.22 1111.01,-447.36 1110.75,-440.36"/>
</g>
<!-- Node35&#45;&gt;Node8 -->
<g id="edge64" class="edge">
<title>Node35&#45;&gt;Node8</title>
<path fill="none" stroke="#63b8ff" d="M982.83,-367.55C1034.17,-353.47 1112.6,-331.68 1115,-329.25 1137.52,-306.48 1134,-291.77 1134,-259.75 1134,-259.75 1134,-259.75 1134,-124.75 1134,-88.43 1148.67,-77.98 1177,-55.25 1204.26,-33.38 1242.97,-21.87 1270.66,-16.05"/>
<polygon fill="#63b8ff" stroke="#63b8ff" points="982.05,-364.41 973.32,-370.43 983.89,-371.16 982.05,-364.41"/>
</g>
<!-- Node36&#45;&gt;Node5 -->
<g id="edge66" class="edge">
<title>Node36&#45;&gt;Node5</title>
<path fill="none" stroke="#63b8ff" d="M607.05,-374.05C640.65,-371.34 681.97,-368.06 719,-365.25 1271.36,-323.29 1941.66,-276.24 2127.91,-263.24"/>
<polygon fill="#63b8ff" stroke="#63b8ff" points="607.11,-370.61 597.43,-374.9 607.67,-377.59 607.11,-370.61"/>
</g>
<!-- Node36&#45;&gt;Node8 -->
<g id="edge68" class="edge">
<title>Node36&#45;&gt;Node8</title>
<path fill="none" stroke="#63b8ff" d="M545.75,-360.3C552.27,-336.82 562,-295.73 562,-259.75 562,-259.75 562,-259.75 562,-124.75 562,-54.88 635.59,-73.61 703,-55.25 811.32,-25.74 1159.99,-14.37 1270.83,-11.44"/>
<polygon fill="#63b8ff" stroke="#63b8ff" points="542.19,-359.01 542.79,-369.59 548.92,-360.95 542.19,-359.01"/>
</g>
<!-- Node36&#45;&gt;Node18 -->
<g id="edge67" class="edge">
<title>Node36&#45;&gt;Node18</title>
<path fill="none" stroke="#63b8ff" d="M569.33,-365.79C593.19,-354.65 626.16,-339.24 646.77,-329.61"/>
<polygon fill="#63b8ff" stroke="#63b8ff" points="567.99,-363.03 560.41,-370.43 570.95,-369.37 567.99,-363.03"/>
</g>
<!-- Node37&#45;&gt;Node8 -->
<g id="edge71" class="edge">
<title>Node37&#45;&gt;Node8</title>
<path fill="none" stroke="#63b8ff" d="M1105.44,-360.39C1120.88,-352.71 1136.62,-342.48 1148,-329.25 1169.31,-304.48 1172,-292.43 1172,-259.75 1172,-259.75 1172,-259.75 1172,-124.75 1172,-92.07 1173.55,-79 1196,-55.25 1215.81,-34.3 1246.86,-22.89 1270.77,-16.87"/>
<polygon fill="#63b8ff" stroke="#63b8ff" points="1104.49,-357.44 1096.91,-364.85 1107.45,-363.79 1104.49,-357.44"/>
</g>
<!-- Node38&#45;&gt;Node8 -->
<g id="edge77" class="edge">
<title>Node38&#45;&gt;Node8</title>
<path fill="none" stroke="#63b8ff" d="M1818.32,-365.24C1783.37,-346.12 1720.68,-310.37 1671,-274 1551.87,-186.79 1547.4,-131.54 1421,-55.25 1394.58,-39.31 1361.48,-27.25 1337.41,-19.71"/>
<polygon fill="#63b8ff" stroke="#63b8ff" points="1816.37,-368.7 1826.82,-370.39 1819.71,-362.55 1816.37,-368.7"/>
</g>
<!-- Node38&#45;&gt;Node24 -->
<g id="edge73" class="edge">
<title>Node38&#45;&gt;Node24</title>
<path fill="none" stroke="#63b8ff" d="M1846.01,-359.74C1846.53,-349.56 1847.13,-337.63 1847.54,-329.65"/>
<polygon fill="#63b8ff" stroke="#63b8ff" points="1842.47,-359.39 1845.46,-369.56 1849.46,-359.75 1842.47,-359.39"/>
</g>
<!-- Node38&#45;&gt;Node39 -->
<g id="edge74" class="edge">
<title>Node38&#45;&gt;Node39</title>
<path fill="none" stroke="#63b8ff" d="M1887.42,-367.49C1926.98,-356.3 1985.1,-339.84 2020.92,-329.71"/>
<polygon fill="#63b8ff" stroke="#63b8ff" points="1886.71,-364.34 1878.04,-370.43 1888.62,-371.07 1886.71,-364.34"/>
</g>
<!-- Node39&#45;&gt;Node5 -->
<g id="edge75" class="edge">
<title>Node39&#45;&gt;Node5</title>
<path fill="none" stroke="#63b8ff" d="M2082.1,-304.92C2105.77,-293.77 2138.48,-278.37 2158.93,-268.73"/>
<polygon fill="#63b8ff" stroke="#63b8ff" points="2080.81,-302.13 2073.26,-309.55 2083.8,-308.46 2080.81,-302.13"/>
</g>
<!-- Node39&#45;&gt;Node8 -->
<g id="edge76" class="edge">
<title>Node39&#45;&gt;Node8</title>
<path fill="none" stroke="#63b8ff" d="M2021.75,-305.27C1985.46,-289.88 1923.71,-264.08 1870,-243.5 1825.5,-226.45 1808.35,-234.39 1769,-207.5 1695.06,-156.97 1715.81,-97.8 1637,-55.25 1586.02,-27.72 1413.28,-16.01 1339.2,-12.17"/>
<polygon fill="#63b8ff" stroke="#63b8ff" points="2020.15,-308.82 2030.72,-309.51 2022.88,-302.37 2020.15,-308.82"/>
</g>
<!-- Node40&#45;&gt;Node8 -->
<g id="edge80" class="edge">
<title>Node40&#45;&gt;Node8</title>
<path fill="none" stroke="#63b8ff" d="M1218.32,-361.03C1230.17,-338.04 1248,-297.22 1248,-259.75 1248,-259.75 1248,-259.75 1248,-124.75 1248,-81.56 1281.07,-37.95 1296.83,-19.62"/>
<polygon fill="#63b8ff" stroke="#63b8ff" points="1214.86,-359.06 1213.23,-369.53 1221.04,-362.36 1214.86,-359.06"/>
</g>
<!-- Node41&#45;&gt;Node8 -->
<g id="edge83" class="edge">
<title>Node41&#45;&gt;Node8</title>
<path fill="none" stroke="#63b8ff" d="M2829.37,-359.79C2836.55,-296.11 2855.03,-97.57 2812,-55.25 2784.85,-28.55 1561.37,-13.51 1339.36,-11"/>
<polygon fill="#63b8ff" stroke="#63b8ff" points="2825.79,-359.3 2828.11,-369.64 2832.74,-360.11 2825.79,-359.3"/>
</g>
<!-- Node42&#45;&gt;Node8 -->
<g id="edge95" class="edge">
<title>Node42&#45;&gt;Node8</title>
<path fill="none" stroke="#63b8ff" d="M642.89,-566.85C583.84,-559.67 489.93,-546.71 410,-528.75 397.39,-525.92 196.67,-470.83 187,-462.25 157.74,-436.29 152,-420.62 152,-381.5 152,-381.5 152,-381.5 152,-124.75 152,-92.73 145.93,-75.18 171,-55.25 215.1,-20.19 1085.82,-12.16 1270.69,-10.84"/>
<polygon fill="#63b8ff" stroke="#63b8ff" points="642.15,-570.41 652.5,-568.13 642.99,-563.46 642.15,-570.41"/>
</g>
<!-- Node42&#45;&gt;Node15 -->
<g id="edge92" class="edge">
<title>Node42&#45;&gt;Node15</title>
<path fill="none" stroke="#63b8ff" d="M671.85,-559.73C594.05,-523.08 386.11,-423.39 366,-395.75 339.06,-358.72 338.96,-301.24 340.65,-274.44"/>
<polygon fill="#63b8ff" stroke="#63b8ff" points="669.97,-563.19 680.51,-564.27 672.95,-556.85 669.97,-563.19"/>
</g>
<!-- Node42&#45;&gt;Node32 -->
<g id="edge94" class="edge">
<title>Node42&#45;&gt;Node32</title>
<path fill="none" stroke="#63b8ff" d="M759.19,-564.57C968.03,-540.18 1203.98,-524.18 1308.05,-517.71"/>
<polygon fill="#63b8ff" stroke="#63b8ff" points="758.85,-561.2 749.32,-565.85 759.67,-568.15 758.85,-561.2"/>
</g>
<!-- Node42&#45;&gt;Node34 -->
<g id="edge93" class="edge">
<title>Node42&#45;&gt;Node34</title>
<path fill="none" stroke="#63b8ff" d="M688.91,-555.04C679.56,-538.33 670.31,-513.94 684,-498.25 724.74,-451.55 912.19,-446.69 1002.32,-447.13"/>
<polygon fill="#63b8ff" stroke="#63b8ff" points="686.36,-556.57 694.54,-563.3 692.34,-552.94 686.36,-556.57"/>
</g>
<!-- Node43 -->
<g id="node41" class="node">
<title>Node43</title>
<g id="a_node41"><a xlink:href="v8-cpp-heap-external_8h.html" target="_top" xlink:title=" ">
<polygon fill="white" stroke="#666666" points="795.5,-528.75 692.5,-528.75 692.5,-498.25 795.5,-498.25 795.5,-528.75"/>
<text text-anchor="start" x="700.5" y="-515.25" font-family="Helvetica,sans-Serif" font-size="10.00">include/v8&#45;cpp&#45;heap</text>
<text text-anchor="middle" x="744" y="-504" font-family="Helvetica,sans-Serif" font-size="10.00">&#45;external.h</text>
</a>
</g>
</g>
<!-- Node42&#45;&gt;Node43 -->
<g id="edge89" class="edge">
<title>Node42&#45;&gt;Node43</title>
<path fill="none" stroke="#63b8ff" d="M713.92,-555.68C720.14,-547.17 727.5,-537.09 733.39,-529.03"/>
<polygon fill="#63b8ff" stroke="#63b8ff" points="710.6,-553.29 707.53,-563.43 716.26,-557.42 710.6,-553.29"/>
</g>
<!-- Node44 -->
<g id="node42" class="node">
<title>Node44</title>
<g id="a_node42"><a xlink:href="v8-external_8h.html" target="_top" xlink:title=" ">
<polygon fill="white" stroke="#666666" points="284.25,-74.5 179.75,-74.5 179.75,-55.25 284.25,-55.25 284.25,-74.5"/>
<text text-anchor="middle" x="232" y="-61" font-family="Helvetica,sans-Serif" font-size="10.00">include/v8&#45;external.h</text>
</a>
</g>
</g>
<!-- Node42&#45;&gt;Node44 -->
<g id="edge90" class="edge">
<title>Node42&#45;&gt;Node44</title>
<path fill="none" stroke="#63b8ff" d="M659.03,-561.48C602.68,-545.75 499.32,-517.75 410,-498.25 321.33,-478.89 274.88,-524.67 209,-462.25 182.24,-436.89 190,-418.37 190,-381.5 190,-381.5 190,-381.5 190,-191.25 190,-145.57 215.38,-95.15 226.68,-74.96"/>
<polygon fill="#63b8ff" stroke="#63b8ff" points="657.75,-565.03 668.32,-564.36 659.64,-558.29 657.75,-565.03"/>
</g>
<!-- Node44&#45;&gt;Node8 -->
<g id="edge91" class="edge">
<title>Node44&#45;&gt;Node8</title>
<path fill="none" stroke="#63b8ff" d="M295.11,-55.51C296.08,-55.42 297.04,-55.33 298,-55.25 678.92,-21.98 1143.19,-12.99 1271.03,-11.08"/>
<polygon fill="#63b8ff" stroke="#63b8ff" points="295.14,-52.09 285.55,-56.59 295.86,-59.06 295.14,-52.09"/>
</g>
<!-- Node46&#45;&gt;Node8 -->
<g id="edge111" class="edge">
<title>Node46&#45;&gt;Node8</title>
<path fill="none" stroke="#63b8ff" d="M3083.75,-101.13C3071.83,-84.97 3053.67,-64.79 3032,-55.25 2951.71,-19.9 1575.27,-11.89 1339.29,-10.77"/>
<polygon fill="#63b8ff" stroke="#63b8ff" points="3081.42,-102.91 3090.03,-109.08 3087.15,-98.88 3081.42,-102.91"/>
</g>
<!-- Node47&#45;&gt;Node5 -->
<g id="edge114" class="edge">
<title>Node47&#45;&gt;Node5</title>
<path fill="none" stroke="#63b8ff" d="M2407.19,-487.44C2395.86,-444.33 2366.62,-356.31 2308,-310 2281.89,-289.38 2246.33,-276.41 2218.99,-268.83"/>
<polygon fill="#63b8ff" stroke="#63b8ff" points="2403.98,-488.01 2409.81,-496.86 2410.77,-486.31 2403.98,-488.01"/>
</g>
<!-- Node47&#45;&gt;Node8 -->
<g id="edge118" class="edge">
<title>Node47&#45;&gt;Node8</title>
<path fill="none" stroke="#63b8ff" d="M2456.21,-493.21C2538.56,-453.66 2715.42,-354.53 2779,-207.5 2799.6,-159.87 2757.43,-138.91 2714,-110.5 2655.94,-72.52 2636.02,-68.93 2568,-55.25 2323.19,-6 1515.2,-9.05 1339.09,-10.33"/>
<polygon fill="#63b8ff" stroke="#63b8ff" points="2454.96,-490.41 2447.42,-497.85 2457.96,-496.73 2454.96,-490.41"/>
</g>
<!-- Node47&#45;&gt;Node19 -->
<g id="edge117" class="edge">
<title>Node47&#45;&gt;Node19</title>
<path fill="none" stroke="#63b8ff" d="M2373.8,-493.12C2315.71,-464.41 2209.05,-411.68 2166.37,-390.58"/>
<polygon fill="#63b8ff" stroke="#63b8ff" points="2371.86,-496.56 2382.37,-497.85 2374.96,-490.28 2371.86,-496.56"/>
</g>
<!-- Node47&#45;&gt;Node27 -->
<g id="edge116" class="edge">
<title>Node47&#45;&gt;Node27</title>
<path fill="none" stroke="#63b8ff" d="M2446.15,-491.97C2478.22,-469.28 2522,-429.5 2522,-381.5 2522,-381.5 2522,-381.5 2522,-318.62 2522,-272.72 2495.41,-222.42 2483.57,-202.3"/>
<polygon fill="#63b8ff" stroke="#63b8ff" points="2444.74,-489.38 2438.46,-497.91 2448.69,-495.16 2444.74,-489.38"/>
</g>
<!-- Node47&#45;&gt;Node34 -->
<g id="edge115" class="edge">
<title>Node47&#45;&gt;Node34</title>
<path fill="none" stroke="#63b8ff" d="M2348.88,-509.46C2114.46,-498.36 1306.79,-460.11 1099.69,-450.31"/>
<polygon fill="#63b8ff" stroke="#63b8ff" points="2348.45,-512.99 2358.61,-509.97 2348.78,-506 2348.45,-512.99"/>
</g>
<!-- Node48&#45;&gt;Node2 -->
<g id="edge130" class="edge">
<title>Node48&#45;&gt;Node2</title>
<path fill="none" stroke="#63b8ff" d="M193.69,-619.92C174.13,-608.85 147.65,-593.86 130.94,-584.4"/>
<polygon fill="#63b8ff" stroke="#63b8ff" points="191.78,-623.43 202.2,-625.31 195.23,-617.34 191.78,-623.43"/>
</g>
<!-- Node48&#45;&gt;Node8 -->
<g id="edge134" class="edge">
<title>Node48&#45;&gt;Node8</title>
<path fill="none" stroke="#63b8ff" d="M207.37,-616.54C167.39,-555.34 38,-354.64 38,-320.62 38,-320.62 38,-320.62 38,-124.75 38,-75.26 78.61,-72.49 125,-55.25 234.77,-14.44 1088.68,-10.93 1270.88,-10.65"/>
<polygon fill="#63b8ff" stroke="#63b8ff" points="204.78,-617.96 213.18,-624.41 210.63,-614.13 204.78,-617.96"/>
</g>
<!-- Node48&#45;&gt;Node34 -->
<g id="edge133" class="edge">
<title>Node48&#45;&gt;Node34</title>
<path fill="none" stroke="#63b8ff" d="M246.21,-620.34C277.21,-604.96 329.68,-580.31 377,-564.75 603.47,-490.28 889.22,-460.81 1002.02,-451.56"/>
<polygon fill="#63b8ff" stroke="#63b8ff" points="244.94,-617.57 237.57,-625.17 248.07,-623.82 244.94,-617.57"/>
</g>
<!-- Node49 -->
<g id="node47" class="node">
<title>Node49</title>
<g id="a_node47"><a xlink:href="v8-embedder-heap_8h.html" target="_top" xlink:title=" ">
<polygon fill="white" stroke="#666666" points="1967,-462.25 1861,-462.25 1861,-431.75 1967,-431.75 1967,-462.25"/>
<text text-anchor="start" x="1869" y="-448.75" font-family="Helvetica,sans-Serif" font-size="10.00">include/v8&#45;embedder</text>
<text text-anchor="middle" x="1914" y="-437.5" font-family="Helvetica,sans-Serif" font-size="10.00">&#45;heap.h</text>
</a>
</g>
</g>
<!-- Node48&#45;&gt;Node49 -->
<g id="edge131" class="edge">
<title>Node48&#45;&gt;Node49</title>
<path fill="none" stroke="#63b8ff" d="M294.64,-623.99C306.79,-622.52 319.23,-621.13 331,-620 574.84,-596.53 636.88,-604.38 881,-584 1123.18,-563.78 1183.96,-559.74 1425,-528.75 1615.5,-504.26 1663.4,-498.56 1852,-462.25 1854.82,-461.71 1857.71,-461.13 1860.62,-460.52"/>
<polygon fill="#63b8ff" stroke="#63b8ff" points="294.57,-620.59 285.07,-625.29 295.42,-627.54 294.57,-620.59"/>
</g>
<!-- Node49&#45;&gt;Node5 -->
<g id="edge132" class="edge">
<title>Node49&#45;&gt;Node5</title>
<path fill="none" stroke="#63b8ff" d="M1977.89,-436.85C2059.71,-424.81 2191.89,-404.22 2199,-395.75 2230.79,-357.87 2197.44,-292.33 2183.51,-268.63"/>
<polygon fill="#63b8ff" stroke="#63b8ff" points="1977.58,-433.5 1968.19,-438.41 1978.59,-440.43 1977.58,-433.5"/>
</g>
<!-- Node50&#45;&gt;Node8 -->
<g id="edge137" class="edge">
<title>Node50&#45;&gt;Node8</title>
<path fill="none" stroke="#63b8ff" d="M438.87,-556.45C401.63,-513.3 306.92,-394.04 285,-274 263.55,-156.53 334.28,-108.82 441,-55.25 516.05,-17.58 1119.27,-11.67 1270.64,-10.78"/>
<polygon fill="#63b8ff" stroke="#63b8ff" points="436.68,-558.26 445.9,-563.48 441.95,-553.65 436.68,-558.26"/>
</g>
<!-- Node51&#45;&gt;Node8 -->
<g id="edge151" class="edge">
<title>Node51&#45;&gt;Node8</title>
<path fill="none" stroke="#63b8ff" d="M799.19,-630.96C687.54,-624.42 454.25,-608.28 377,-584 236.27,-539.76 114,-529.02 114,-381.5 114,-381.5 114,-381.5 114,-124.75 114,-89.55 122.07,-73.79 152,-55.25 200.75,-25.06 1084.9,-13.17 1270.86,-11"/>
<polygon fill="#63b8ff" stroke="#63b8ff" points="798.74,-634.5 808.93,-631.58 799.15,-627.51 798.74,-634.5"/>
</g>
<!-- Node51&#45;&gt;Node13 -->
<g id="edge145" class="edge">
<title>Node51&#45;&gt;Node13</title>
<path fill="none" stroke="#63b8ff" d="M920.72,-629.92C1157.03,-612.14 2013.26,-538.84 2239,-395.75 2292.17,-362.05 2365.56,-210.28 2419,-177 2468.51,-146.17 2535.22,-134.25 2580.71,-129.64"/>
<polygon fill="#63b8ff" stroke="#63b8ff" points="920.66,-626.49 910.95,-630.72 921.18,-633.47 920.66,-626.49"/>
</g>
<!-- Node51&#45;&gt;Node25 -->
<g id="edge146" class="edge">
<title>Node51&#45;&gt;Node25</title>
<path fill="none" stroke="#63b8ff" d="M920.54,-625.38C962.61,-617.82 1019.28,-604.79 1066,-584 1090.69,-573.01 1443.02,-320.33 1468,-310 1537.52,-281.25 1624.06,-268.82 1679.42,-263.53"/>
<polygon fill="#63b8ff" stroke="#63b8ff" points="920.16,-622.07 910.91,-627.23 921.36,-628.96 920.16,-622.07"/>
</g>
<!-- Node51&#45;&gt;Node28 -->
<g id="edge148" class="edge">
<title>Node51&#45;&gt;Node28</title>
<path fill="none" stroke="#63b8ff" d="M883.92,-620.02C962.06,-573.68 1217.2,-423.6 1434,-310 1514.92,-267.6 1613.61,-221.5 1655.11,-202.37"/>
<polygon fill="#63b8ff" stroke="#63b8ff" points="882.7,-617.27 875.89,-625.38 886.27,-623.29 882.7,-617.27"/>
</g>
<!-- Node51&#45;&gt;Node34 -->
<g id="edge147" class="edge">
<title>Node51&#45;&gt;Node34</title>
<path fill="none" stroke="#63b8ff" d="M868.03,-615.22C883.07,-579.87 914.82,-506.87 924,-498.25 946.56,-477.07 979.12,-464.43 1005.63,-457.12"/>
<polygon fill="#63b8ff" stroke="#63b8ff" points="864.46,-613.67 863.78,-624.24 870.91,-616.4 864.46,-613.67"/>
</g>
<!-- Node51&#45;&gt;Node42 -->
<g id="edge150" class="edge">
<title>Node51&#45;&gt;Node42</title>
<path fill="none" stroke="#63b8ff" d="M825.42,-621.45C795.26,-610.28 752.26,-594.36 725.52,-584.46"/>
<polygon fill="#63b8ff" stroke="#63b8ff" points="823.91,-624.99 834.5,-625.18 826.34,-618.43 823.91,-624.99"/>
</g>
<!-- Node51&#45;&gt;Node50 -->
<g id="edge149" class="edge">
<title>Node51&#45;&gt;Node50</title>
<path fill="none" stroke="#63b8ff" d="M799.41,-625.46C723.44,-614.45 593.87,-595.66 516.85,-584.49"/>
<polygon fill="#63b8ff" stroke="#63b8ff" points="798.82,-629.06 809.22,-627.03 799.82,-622.13 798.82,-629.06"/>
</g>
<!-- Node52&#45;&gt;Node34 -->
<g id="edge158" class="edge">
<title>Node52&#45;&gt;Node34</title>
<path fill="none" stroke="#63b8ff" d="M830.71,-555.31C842.67,-538.26 862.74,-513.13 886,-498.25 921.44,-475.58 967.68,-462.66 1002.19,-455.61"/>
<polygon fill="#63b8ff" stroke="#63b8ff" points="827.35,-553.04 824.65,-563.29 833.15,-556.96 827.35,-553.04"/>
</g>
<!-- Node52&#45;&gt;Node43 -->
<g id="edge157" class="edge">
<title>Node52&#45;&gt;Node43</title>
<path fill="none" stroke="#63b8ff" d="M799.21,-557.84C787.84,-548.92 773.66,-537.78 762.51,-529.03"/>
<polygon fill="#63b8ff" stroke="#63b8ff" points="796.58,-561.01 806.61,-564.43 800.9,-555.51 796.58,-561.01"/>
</g>
</g>
</svg>
