<?xml version="1.0" encoding="UTF-8" standalone="no"?>
<!DOCTYPE svg PUBLIC "-//W3C//DTD SVG 1.1//EN"
 "http://www.w3.org/Graphics/SVG/1.1/DTD/svg11.dtd">
<!-- Generated by graphviz version 2.49.3 (20211027.1534)
 -->
<!-- Title: include/cppgc/internal/caged&#45;heap&#45;local&#45;data.h Pages: 1 -->
<svg width="473pt" height="218pt"
 viewBox="0.00 0.00 473.00 218.00" xmlns="http://www.w3.org/2000/svg" xmlns:xlink="http://www.w3.org/1999/xlink">
<g id="graph0" class="graph" transform="scale(1 1) rotate(0) translate(4 214)">
<title>include/cppgc/internal/caged&#45;heap&#45;local&#45;data.h</title>
<polygon fill="white" stroke="transparent" points="-4,4 -4,-214 469,-214 469,4 -4,4"/>
<!-- Node1 -->
<g id="node1" class="node">
<title>Node1</title>
<g id="a_node1"><a xlink:title=" ">
<polygon fill="#bfbfbf" stroke="black" points="145.5,-179.5 145.5,-209.5 267.5,-209.5 267.5,-179.5 145.5,-179.5"/>
<text text-anchor="start" x="153.5" y="-197.5" font-family="Helvetica,sans-Serif" font-size="10.00">include/cppgc/internal</text>
<text text-anchor="middle" x="206.5" y="-186.5" font-family="Helvetica,sans-Serif" font-size="10.00">/caged&#45;heap&#45;local&#45;data.h</text>
</a>
</g>
</g>
<!-- Node2 -->
<g id="node2" class="node">
<title>Node2</title>
<g id="a_node2"><a xlink:title=" ">
<polygon fill="white" stroke="#bfbfbf" points="67.5,-123.5 67.5,-142.5 105.5,-142.5 105.5,-123.5 67.5,-123.5"/>
<text text-anchor="middle" x="86.5" y="-130.5" font-family="Helvetica,sans-Serif" font-size="10.00">array</text>
</a>
</g>
</g>
<!-- Node1&#45;&gt;Node2 -->
<g id="edge1" class="edge">
<title>Node1&#45;&gt;Node2</title>
<path fill="none" stroke="midnightblue" d="M178.06,-179.4C158.38,-169.64 132.36,-156.74 113.09,-147.18"/>
<polygon fill="midnightblue" stroke="midnightblue" points="114.48,-143.96 103.96,-142.66 111.37,-150.24 114.48,-143.96"/>
</g>
<!-- Node3 -->
<g id="node3" class="node">
<title>Node3</title>
<g id="a_node3"><a xlink:href="api-constants_8h.html" target="_top" xlink:title=" ">
<polygon fill="white" stroke="black" points="29,-56.5 29,-86.5 122,-86.5 122,-56.5 29,-56.5"/>
<text text-anchor="start" x="37" y="-74.5" font-family="Helvetica,sans-Serif" font-size="10.00">cppgc/internal/api</text>
<text text-anchor="middle" x="75.5" y="-63.5" font-family="Helvetica,sans-Serif" font-size="10.00">&#45;constants.h</text>
</a>
</g>
</g>
<!-- Node1&#45;&gt;Node3 -->
<g id="edge2" class="edge">
<title>Node1&#45;&gt;Node3</title>
<path fill="none" stroke="midnightblue" d="M191.22,-179.38C168.24,-158.16 124.67,-117.91 98.04,-93.32"/>
<polygon fill="midnightblue" stroke="midnightblue" points="100.41,-90.74 90.69,-86.53 95.66,-95.88 100.41,-90.74"/>
</g>
<!-- Node6 -->
<g id="node6" class="node">
<title>Node6</title>
<g id="a_node6"><a xlink:href="v8config_8h.html" target="_top" xlink:title=" ">
<polygon fill="white" stroke="black" points="270.5,-0.5 270.5,-19.5 330.5,-19.5 330.5,-0.5 270.5,-0.5"/>
<text text-anchor="middle" x="300.5" y="-7.5" font-family="Helvetica,sans-Serif" font-size="10.00">v8config.h</text>
</a>
</g>
</g>
<!-- Node1&#45;&gt;Node6 -->
<g id="edge20" class="edge">
<title>Node1&#45;&gt;Node6</title>
<path fill="none" stroke="midnightblue" d="M226.2,-179.35C237.69,-170.17 251.62,-157.28 260.5,-143 283.19,-106.53 293.72,-56.36 297.99,-29.6"/>
<polygon fill="midnightblue" stroke="midnightblue" points="301.46,-30.07 299.46,-19.67 294.54,-29.05 301.46,-30.07"/>
</g>
<!-- Node7 -->
<g id="node7" class="node">
<title>Node7</title>
<g id="a_node7"><a xlink:href="logging_8h.html" target="_top" xlink:title=" ">
<polygon fill="white" stroke="black" points="308,-123.5 308,-142.5 427,-142.5 427,-123.5 308,-123.5"/>
<text text-anchor="middle" x="367.5" y="-130.5" font-family="Helvetica,sans-Serif" font-size="10.00">cppgc/internal/logging.h</text>
</a>
</g>
</g>
<!-- Node1&#45;&gt;Node7 -->
<g id="edge6" class="edge">
<title>Node1&#45;&gt;Node7</title>
<path fill="none" stroke="midnightblue" d="M244.65,-179.4C272.03,-169.28 308.54,-155.79 334.63,-146.15"/>
<polygon fill="midnightblue" stroke="midnightblue" points="335.91,-149.41 344.07,-142.66 333.48,-142.84 335.91,-149.41"/>
</g>
<!-- Node10 -->
<g id="node10" class="node">
<title>Node10</title>
<g id="a_node10"><a xlink:href="platform_8h.html" target="_top" xlink:title=" ">
<polygon fill="white" stroke="black" points="162,-123.5 162,-142.5 251,-142.5 251,-123.5 162,-123.5"/>
<text text-anchor="middle" x="206.5" y="-130.5" font-family="Helvetica,sans-Serif" font-size="10.00">cppgc/platform.h</text>
</a>
</g>
</g>
<!-- Node1&#45;&gt;Node10 -->
<g id="edge11" class="edge">
<title>Node1&#45;&gt;Node10</title>
<path fill="none" stroke="midnightblue" d="M206.5,-179.4C206.5,-171.47 206.5,-161.46 206.5,-152.86"/>
<polygon fill="midnightblue" stroke="midnightblue" points="210,-152.66 206.5,-142.66 203,-152.66 210,-152.66"/>
</g>
<!-- Node4 -->
<g id="node4" class="node">
<title>Node4</title>
<g id="a_node4"><a xlink:title=" ">
<polygon fill="white" stroke="#bfbfbf" points="0,-0.5 0,-19.5 51,-19.5 51,-0.5 0,-0.5"/>
<text text-anchor="middle" x="25.5" y="-7.5" font-family="Helvetica,sans-Serif" font-size="10.00">stddef.h</text>
</a>
</g>
</g>
<!-- Node3&#45;&gt;Node4 -->
<g id="edge3" class="edge">
<title>Node3&#45;&gt;Node4</title>
<path fill="none" stroke="midnightblue" d="M63.65,-56.4C56.39,-47.75 47.05,-36.64 39.43,-27.58"/>
<polygon fill="midnightblue" stroke="midnightblue" points="41.89,-25.06 32.78,-19.66 36.53,-29.57 41.89,-25.06"/>
</g>
<!-- Node5 -->
<g id="node5" class="node">
<title>Node5</title>
<g id="a_node5"><a xlink:title=" ">
<polygon fill="white" stroke="#bfbfbf" points="69.5,-0.5 69.5,-19.5 117.5,-19.5 117.5,-0.5 69.5,-0.5"/>
<text text-anchor="middle" x="93.5" y="-7.5" font-family="Helvetica,sans-Serif" font-size="10.00">stdint.h</text>
</a>
</g>
</g>
<!-- Node3&#45;&gt;Node5 -->
<g id="edge4" class="edge">
<title>Node3&#45;&gt;Node5</title>
<path fill="none" stroke="midnightblue" d="M79.77,-56.4C82.22,-48.29 85.33,-38.01 87.97,-29.28"/>
<polygon fill="midnightblue" stroke="midnightblue" points="91.34,-30.24 90.88,-19.66 84.64,-28.22 91.34,-30.24"/>
</g>
<!-- Node3&#45;&gt;Node6 -->
<g id="edge5" class="edge">
<title>Node3&#45;&gt;Node6</title>
<path fill="none" stroke="midnightblue" d="M122.12,-58.17C163,-47.36 221.81,-31.81 260.57,-21.56"/>
<polygon fill="midnightblue" stroke="midnightblue" points="261.68,-24.89 270.45,-18.95 259.89,-18.12 261.68,-24.89"/>
</g>
<!-- Node7&#45;&gt;Node6 -->
<g id="edge10" class="edge">
<title>Node7&#45;&gt;Node6</title>
<path fill="none" stroke="midnightblue" d="M361.16,-123.26C354.82,-114.35 344.97,-100.03 337.5,-87 326.47,-67.76 315.57,-44.75 308.49,-29.13"/>
<polygon fill="midnightblue" stroke="midnightblue" points="311.52,-27.33 304.24,-19.63 305.13,-30.19 311.52,-27.33"/>
</g>
<!-- Node8 -->
<g id="node8" class="node">
<title>Node8</title>
<g id="a_node8"><a xlink:href="source-location_8h.html" target="_top" xlink:title=" ">
<polygon fill="white" stroke="black" points="346,-62 346,-81 465,-81 465,-62 346,-62"/>
<text text-anchor="middle" x="405.5" y="-69" font-family="Helvetica,sans-Serif" font-size="10.00">cppgc/source&#45;location.h</text>
</a>
</g>
</g>
<!-- Node7&#45;&gt;Node8 -->
<g id="edge7" class="edge">
<title>Node7&#45;&gt;Node8</title>
<path fill="none" stroke="midnightblue" d="M372.94,-123.48C378.59,-114.64 387.56,-100.59 394.66,-89.48"/>
<polygon fill="midnightblue" stroke="midnightblue" points="397.63,-91.32 400.07,-81.01 391.73,-87.55 397.63,-91.32"/>
</g>
<!-- Node8&#45;&gt;Node6 -->
<g id="edge9" class="edge">
<title>Node8&#45;&gt;Node6</title>
<path fill="none" stroke="midnightblue" d="M390.46,-61.98C373.22,-52.21 344.76,-36.08 324.47,-24.58"/>
<polygon fill="midnightblue" stroke="midnightblue" points="325.94,-21.39 315.52,-19.51 322.49,-27.48 325.94,-21.39"/>
</g>
<!-- Node9 -->
<g id="node9" class="node">
<title>Node9</title>
<g id="a_node9"><a xlink:title=" ">
<polygon fill="white" stroke="#bfbfbf" points="367,-0.5 367,-19.5 408,-19.5 408,-0.5 367,-0.5"/>
<text text-anchor="middle" x="387.5" y="-7.5" font-family="Helvetica,sans-Serif" font-size="10.00">string</text>
</a>
</g>
</g>
<!-- Node8&#45;&gt;Node9 -->
<g id="edge8" class="edge">
<title>Node8&#45;&gt;Node9</title>
<path fill="none" stroke="midnightblue" d="M402.92,-61.98C400.35,-53.49 396.33,-40.2 393.04,-29.32"/>
<polygon fill="midnightblue" stroke="midnightblue" points="396.32,-28.07 390.07,-19.51 389.62,-30.09 396.32,-28.07"/>
</g>
<!-- Node10&#45;&gt;Node6 -->
<g id="edge19" class="edge">
<title>Node10&#45;&gt;Node6</title>
<path fill="none" stroke="midnightblue" d="M213.4,-123.11C224.41,-108.91 246.64,-80.27 265.5,-56 272.8,-46.6 280.97,-36.11 287.57,-27.62"/>
<polygon fill="midnightblue" stroke="midnightblue" points="290.41,-29.67 293.79,-19.62 284.88,-25.37 290.41,-29.67"/>
</g>
<!-- Node11 -->
<g id="node11" class="node">
<title>Node11</title>
<g id="a_node11"><a xlink:href="v8-platform_8h.html" target="_top" xlink:title=" ">
<polygon fill="white" stroke="black" points="140,-62 140,-81 213,-81 213,-62 140,-62"/>
<text text-anchor="middle" x="176.5" y="-69" font-family="Helvetica,sans-Serif" font-size="10.00">v8&#45;platform.h</text>
</a>
</g>
</g>
<!-- Node10&#45;&gt;Node11 -->
<g id="edge12" class="edge">
<title>Node10&#45;&gt;Node11</title>
<path fill="none" stroke="midnightblue" d="M202.2,-123.48C197.84,-114.82 190.94,-101.15 185.4,-90.15"/>
<polygon fill="midnightblue" stroke="midnightblue" points="188.42,-88.36 180.79,-81.01 182.17,-91.51 188.42,-88.36"/>
</g>
<!-- Node11&#45;&gt;Node4 -->
<g id="edge13" class="edge">
<title>Node11&#45;&gt;Node4</title>
<path fill="none" stroke="midnightblue" d="M154.87,-61.98C129.08,-51.81 85.79,-34.76 56.46,-23.2"/>
<polygon fill="midnightblue" stroke="midnightblue" points="57.68,-19.92 47.09,-19.51 55.12,-26.43 57.68,-19.92"/>
</g>
<!-- Node11&#45;&gt;Node5 -->
<g id="edge14" class="edge">
<title>Node11&#45;&gt;Node5</title>
<path fill="none" stroke="midnightblue" d="M164.61,-61.98C151.3,-52.43 129.5,-36.81 113.54,-25.37"/>
<polygon fill="midnightblue" stroke="midnightblue" points="115.54,-22.49 105.37,-19.51 111.46,-28.18 115.54,-22.49"/>
</g>
<!-- Node11&#45;&gt;Node6 -->
<g id="edge18" class="edge">
<title>Node11&#45;&gt;Node6</title>
<path fill="none" stroke="midnightblue" d="M194.27,-61.98C214.98,-52.03 249.45,-35.49 273.49,-23.96"/>
<polygon fill="midnightblue" stroke="midnightblue" points="275.27,-26.99 282.77,-19.51 272.24,-20.68 275.27,-26.99"/>
</g>
<!-- Node11&#45;&gt;Node9 -->
<g id="edge17" class="edge">
<title>Node11&#45;&gt;Node9</title>
<path fill="none" stroke="midnightblue" d="M206.73,-61.98C246.78,-50.68 317.01,-30.88 357.12,-19.57"/>
<polygon fill="midnightblue" stroke="midnightblue" points="358.2,-22.9 366.88,-16.82 356.3,-16.16 358.2,-22.9"/>
</g>
<!-- Node12 -->
<g id="node12" class="node">
<title>Node12</title>
<g id="a_node12"><a xlink:title=" ">
<polygon fill="white" stroke="#bfbfbf" points="136,-0.5 136,-19.5 183,-19.5 183,-0.5 136,-0.5"/>
<text text-anchor="middle" x="159.5" y="-7.5" font-family="Helvetica,sans-Serif" font-size="10.00">stdlib.h</text>
</a>
</g>
</g>
<!-- Node11&#45;&gt;Node12 -->
<g id="edge15" class="edge">
<title>Node11&#45;&gt;Node12</title>
<path fill="none" stroke="midnightblue" d="M174.06,-61.98C171.64,-53.49 167.84,-40.2 164.73,-29.32"/>
<polygon fill="midnightblue" stroke="midnightblue" points="168.04,-28.16 161.93,-19.51 161.31,-30.09 168.04,-28.16"/>
</g>
<!-- Node13 -->
<g id="node13" class="node">
<title>Node13</title>
<g id="a_node13"><a xlink:title=" ">
<polygon fill="white" stroke="#bfbfbf" points="201,-0.5 201,-19.5 252,-19.5 252,-0.5 201,-0.5"/>
<text text-anchor="middle" x="226.5" y="-7.5" font-family="Helvetica,sans-Serif" font-size="10.00">memory</text>
</a>
</g>
</g>
<!-- Node11&#45;&gt;Node13 -->
<g id="edge16" class="edge">
<title>Node11&#45;&gt;Node13</title>
<path fill="none" stroke="midnightblue" d="M183.66,-61.98C191.24,-52.96 203.37,-38.52 212.79,-27.31"/>
<polygon fill="midnightblue" stroke="midnightblue" points="215.6,-29.42 219.35,-19.51 210.24,-24.91 215.6,-29.42"/>
</g>
</g>
</svg>
