<?xml version="1.0" encoding="UTF-8" standalone="no"?>
<!DOCTYPE svg PUBLIC "-//W3C//DTD SVG 1.1//EN"
 "http://www.w3.org/Graphics/SVG/1.1/DTD/svg11.dtd">
<!-- Generated by graphviz version 2.49.3 (20211027.1534)
 -->
<!-- Title: include/cppgc/garbage&#45;collected.h Pages: 1 -->
<svg width="623pt" height="218pt"
 viewBox="0.00 0.00 622.50 218.00" xmlns="http://www.w3.org/2000/svg" xmlns:xlink="http://www.w3.org/1999/xlink">
<g id="graph0" class="graph" transform="scale(1 1) rotate(0) translate(4 214)">
<title>include/cppgc/garbage&#45;collected.h</title>
<polygon fill="white" stroke="transparent" points="-4,4 -4,-214 618.5,-214 618.5,4 -4,4"/>
<!-- Node1 -->
<g id="node1" class="node">
<title>Node1</title>
<g id="a_node1"><a xlink:title=" ">
<polygon fill="#bfbfbf" stroke="black" points="125,-179.5 125,-209.5 239,-209.5 239,-179.5 125,-179.5"/>
<text text-anchor="start" x="133" y="-197.5" font-family="Helvetica,sans-Serif" font-size="10.00">include/cppgc/garbage</text>
<text text-anchor="middle" x="182" y="-186.5" font-family="Helvetica,sans-Serif" font-size="10.00">&#45;collected.h</text>
</a>
</g>
</g>
<!-- Node2 -->
<g id="node2" class="node">
<title>Node2</title>
<g id="a_node2"><a xlink:title=" ">
<polygon fill="white" stroke="#bfbfbf" points="93,-0.5 93,-19.5 155,-19.5 155,-0.5 93,-0.5"/>
<text text-anchor="middle" x="124" y="-7.5" font-family="Helvetica,sans-Serif" font-size="10.00">type_traits</text>
</a>
</g>
</g>
<!-- Node1&#45;&gt;Node2 -->
<g id="edge1" class="edge">
<title>Node1&#45;&gt;Node2</title>
<path fill="none" stroke="midnightblue" d="M178.22,-179.39C174.35,-165.12 168.05,-142.44 162,-123 151.66,-89.79 138.37,-51.5 130.56,-29.38"/>
<polygon fill="midnightblue" stroke="midnightblue" points="133.75,-27.92 127.11,-19.66 127.15,-30.26 133.75,-27.92"/>
</g>
<!-- Node3 -->
<g id="node3" class="node">
<title>Node3</title>
<g id="a_node3"><a xlink:href="api-constants_8h.html" target="_top" xlink:title=" ">
<polygon fill="white" stroke="black" points="284.5,-56.5 284.5,-86.5 377.5,-86.5 377.5,-56.5 284.5,-56.5"/>
<text text-anchor="start" x="292.5" y="-74.5" font-family="Helvetica,sans-Serif" font-size="10.00">cppgc/internal/api</text>
<text text-anchor="middle" x="331" y="-63.5" font-family="Helvetica,sans-Serif" font-size="10.00">&#45;constants.h</text>
</a>
</g>
</g>
<!-- Node1&#45;&gt;Node3 -->
<g id="edge2" class="edge">
<title>Node1&#45;&gt;Node3</title>
<path fill="none" stroke="midnightblue" d="M239.23,-182.34C263.66,-174.92 290.69,-162.75 309,-143 320.64,-130.44 326.12,-111.79 328.71,-96.83"/>
<polygon fill="midnightblue" stroke="midnightblue" points="332.2,-97.11 330.12,-86.73 325.27,-96.14 332.2,-97.11"/>
</g>
<!-- Node7 -->
<g id="node7" class="node">
<title>Node7</title>
<g id="a_node7"><a xlink:href="platform_8h.html" target="_top" xlink:title=" ">
<polygon fill="white" stroke="black" points="211.5,-123.5 211.5,-142.5 300.5,-142.5 300.5,-123.5 211.5,-123.5"/>
<text text-anchor="middle" x="256" y="-130.5" font-family="Helvetica,sans-Serif" font-size="10.00">cppgc/platform.h</text>
</a>
</g>
</g>
<!-- Node1&#45;&gt;Node7 -->
<g id="edge6" class="edge">
<title>Node1&#45;&gt;Node7</title>
<path fill="none" stroke="midnightblue" d="M199.54,-179.4C210.84,-170.31 225.54,-158.49 237.11,-149.19"/>
<polygon fill="midnightblue" stroke="midnightblue" points="239.63,-151.65 245.23,-142.66 235.25,-146.2 239.63,-151.65"/>
</g>
<!-- Node12 -->
<g id="node12" class="node">
<title>Node12</title>
<g id="a_node12"><a xlink:href="trace-trait_8h.html" target="_top" xlink:title=" ">
<polygon fill="white" stroke="black" points="58.5,-123.5 58.5,-142.5 153.5,-142.5 153.5,-123.5 58.5,-123.5"/>
<text text-anchor="middle" x="106" y="-130.5" font-family="Helvetica,sans-Serif" font-size="10.00">cppgc/trace&#45;trait.h</text>
</a>
</g>
</g>
<!-- Node1&#45;&gt;Node12 -->
<g id="edge15" class="edge">
<title>Node1&#45;&gt;Node12</title>
<path fill="none" stroke="midnightblue" d="M163.99,-179.4C152.26,-170.22 136.98,-158.26 125.06,-148.92"/>
<polygon fill="midnightblue" stroke="midnightblue" points="127.09,-146.07 117.06,-142.66 122.78,-151.58 127.09,-146.07"/>
</g>
<!-- Node13 -->
<g id="node13" class="node">
<title>Node13</title>
<g id="a_node13"><a xlink:href="type-traits_8h.html" target="_top" xlink:title=" ">
<polygon fill="white" stroke="black" points="0,-62 0,-81 96,-81 96,-62 0,-62"/>
<text text-anchor="middle" x="48" y="-69" font-family="Helvetica,sans-Serif" font-size="10.00">cppgc/type&#45;traits.h</text>
</a>
</g>
</g>
<!-- Node1&#45;&gt;Node13 -->
<g id="edge21" class="edge">
<title>Node1&#45;&gt;Node13</title>
<path fill="none" stroke="midnightblue" d="M124.7,-186.68C97.05,-180.2 66.22,-167.58 49,-143 38.49,-127.99 39.93,-106.44 42.93,-91.12"/>
<polygon fill="midnightblue" stroke="midnightblue" points="46.37,-91.78 45.25,-81.25 39.56,-90.18 46.37,-91.78"/>
</g>
<!-- Node4 -->
<g id="node4" class="node">
<title>Node4</title>
<g id="a_node4"><a xlink:title=" ">
<polygon fill="white" stroke="#bfbfbf" points="370.5,-0.5 370.5,-19.5 421.5,-19.5 421.5,-0.5 370.5,-0.5"/>
<text text-anchor="middle" x="396" y="-7.5" font-family="Helvetica,sans-Serif" font-size="10.00">stddef.h</text>
</a>
</g>
</g>
<!-- Node3&#45;&gt;Node4 -->
<g id="edge3" class="edge">
<title>Node3&#45;&gt;Node4</title>
<path fill="none" stroke="midnightblue" d="M346.4,-56.4C356.24,-47.4 368.99,-35.72 379.11,-26.47"/>
<polygon fill="midnightblue" stroke="midnightblue" points="381.53,-28.99 386.54,-19.66 376.8,-23.83 381.53,-28.99"/>
</g>
<!-- Node5 -->
<g id="node5" class="node">
<title>Node5</title>
<g id="a_node5"><a xlink:title=" ">
<polygon fill="white" stroke="#bfbfbf" points="304,-0.5 304,-19.5 352,-19.5 352,-0.5 304,-0.5"/>
<text text-anchor="middle" x="328" y="-7.5" font-family="Helvetica,sans-Serif" font-size="10.00">stdint.h</text>
</a>
</g>
</g>
<!-- Node3&#45;&gt;Node5 -->
<g id="edge4" class="edge">
<title>Node3&#45;&gt;Node5</title>
<path fill="none" stroke="midnightblue" d="M330.29,-56.4C329.89,-48.47 329.38,-38.46 328.95,-29.86"/>
<polygon fill="midnightblue" stroke="midnightblue" points="332.44,-29.47 328.44,-19.66 325.44,-29.82 332.44,-29.47"/>
</g>
<!-- Node6 -->
<g id="node6" class="node">
<title>Node6</title>
<g id="a_node6"><a xlink:href="v8config_8h.html" target="_top" xlink:title=" ">
<polygon fill="white" stroke="black" points="226,-0.5 226,-19.5 286,-19.5 286,-0.5 226,-0.5"/>
<text text-anchor="middle" x="256" y="-7.5" font-family="Helvetica,sans-Serif" font-size="10.00">v8config.h</text>
</a>
</g>
</g>
<!-- Node3&#45;&gt;Node6 -->
<g id="edge5" class="edge">
<title>Node3&#45;&gt;Node6</title>
<path fill="none" stroke="midnightblue" d="M313.23,-56.4C301.65,-47.22 286.58,-35.26 274.8,-25.92"/>
<polygon fill="midnightblue" stroke="midnightblue" points="276.92,-23.13 266.91,-19.66 272.57,-28.61 276.92,-23.13"/>
</g>
<!-- Node7&#45;&gt;Node6 -->
<g id="edge14" class="edge">
<title>Node7&#45;&gt;Node6</title>
<path fill="none" stroke="midnightblue" d="M256,-123.3C256,-103.85 256,-56.49 256,-29.9"/>
<polygon fill="midnightblue" stroke="midnightblue" points="259.5,-29.62 256,-19.62 252.5,-29.62 259.5,-29.62"/>
</g>
<!-- Node8 -->
<g id="node8" class="node">
<title>Node8</title>
<g id="a_node8"><a xlink:href="v8-platform_8h.html" target="_top" xlink:title=" ">
<polygon fill="white" stroke="black" points="395.5,-62 395.5,-81 468.5,-81 468.5,-62 395.5,-62"/>
<text text-anchor="middle" x="432" y="-69" font-family="Helvetica,sans-Serif" font-size="10.00">v8&#45;platform.h</text>
</a>
</g>
</g>
<!-- Node7&#45;&gt;Node8 -->
<g id="edge7" class="edge">
<title>Node7&#45;&gt;Node8</title>
<path fill="none" stroke="midnightblue" d="M281.22,-123.48C311.67,-113.18 363.05,-95.81 397.24,-84.25"/>
<polygon fill="midnightblue" stroke="midnightblue" points="398.48,-87.53 406.83,-81.01 396.24,-80.9 398.48,-87.53"/>
</g>
<!-- Node8&#45;&gt;Node4 -->
<g id="edge8" class="edge">
<title>Node8&#45;&gt;Node4</title>
<path fill="none" stroke="midnightblue" d="M426.84,-61.98C421.55,-53.23 413.16,-39.37 406.47,-28.31"/>
<polygon fill="midnightblue" stroke="midnightblue" points="409.32,-26.25 401.15,-19.51 403.33,-29.88 409.32,-26.25"/>
</g>
<!-- Node8&#45;&gt;Node5 -->
<g id="edge9" class="edge">
<title>Node8&#45;&gt;Node5</title>
<path fill="none" stroke="midnightblue" d="M417.1,-61.98C400.03,-52.21 371.84,-36.08 351.74,-24.58"/>
<polygon fill="midnightblue" stroke="midnightblue" points="353.29,-21.44 342.87,-19.51 349.81,-27.51 353.29,-21.44"/>
</g>
<!-- Node8&#45;&gt;Node6 -->
<g id="edge13" class="edge">
<title>Node8&#45;&gt;Node6</title>
<path fill="none" stroke="midnightblue" d="M406.78,-61.98C376.33,-51.68 324.95,-34.31 290.76,-22.75"/>
<polygon fill="midnightblue" stroke="midnightblue" points="291.76,-19.4 281.17,-19.51 289.52,-26.03 291.76,-19.4"/>
</g>
<!-- Node9 -->
<g id="node9" class="node">
<title>Node9</title>
<g id="a_node9"><a xlink:title=" ">
<polygon fill="white" stroke="#bfbfbf" points="439.5,-0.5 439.5,-19.5 486.5,-19.5 486.5,-0.5 439.5,-0.5"/>
<text text-anchor="middle" x="463" y="-7.5" font-family="Helvetica,sans-Serif" font-size="10.00">stdlib.h</text>
</a>
</g>
</g>
<!-- Node8&#45;&gt;Node9 -->
<g id="edge10" class="edge">
<title>Node8&#45;&gt;Node9</title>
<path fill="none" stroke="midnightblue" d="M436.44,-61.98C440.95,-53.32 448.07,-39.65 453.81,-28.65"/>
<polygon fill="midnightblue" stroke="midnightblue" points="457.05,-29.99 458.57,-19.51 450.84,-26.76 457.05,-29.99"/>
</g>
<!-- Node10 -->
<g id="node10" class="node">
<title>Node10</title>
<g id="a_node10"><a xlink:title=" ">
<polygon fill="white" stroke="#bfbfbf" points="504.5,-0.5 504.5,-19.5 555.5,-19.5 555.5,-0.5 504.5,-0.5"/>
<text text-anchor="middle" x="530" y="-7.5" font-family="Helvetica,sans-Serif" font-size="10.00">memory</text>
</a>
</g>
</g>
<!-- Node8&#45;&gt;Node10 -->
<g id="edge11" class="edge">
<title>Node8&#45;&gt;Node10</title>
<path fill="none" stroke="midnightblue" d="M446.04,-61.98C462.05,-52.25 488.45,-36.23 507.37,-24.74"/>
<polygon fill="midnightblue" stroke="midnightblue" points="509.25,-27.69 515.99,-19.51 505.62,-21.71 509.25,-27.69"/>
</g>
<!-- Node11 -->
<g id="node11" class="node">
<title>Node11</title>
<g id="a_node11"><a xlink:title=" ">
<polygon fill="white" stroke="#bfbfbf" points="573.5,-0.5 573.5,-19.5 614.5,-19.5 614.5,-0.5 573.5,-0.5"/>
<text text-anchor="middle" x="594" y="-7.5" font-family="Helvetica,sans-Serif" font-size="10.00">string</text>
</a>
</g>
</g>
<!-- Node8&#45;&gt;Node11 -->
<g id="edge12" class="edge">
<title>Node8&#45;&gt;Node11</title>
<path fill="none" stroke="midnightblue" d="M455.21,-61.98C483.79,-51.48 532.39,-33.63 563.84,-22.08"/>
<polygon fill="midnightblue" stroke="midnightblue" points="565.22,-25.3 573.4,-18.57 562.8,-18.73 565.22,-25.3"/>
</g>
<!-- Node12&#45;&gt;Node2 -->
<g id="edge16" class="edge">
<title>Node12&#45;&gt;Node2</title>
<path fill="none" stroke="midnightblue" d="M107.29,-123.3C110.2,-103.76 117.3,-56.06 121.24,-29.55"/>
<polygon fill="midnightblue" stroke="midnightblue" points="124.71,-30.03 122.72,-19.62 117.78,-29 124.71,-30.03"/>
</g>
<!-- Node12&#45;&gt;Node6 -->
<g id="edge20" class="edge">
<title>Node12&#45;&gt;Node6</title>
<path fill="none" stroke="midnightblue" d="M116.79,-123.3C142.09,-102.89 205.48,-51.75 237.25,-26.13"/>
<polygon fill="midnightblue" stroke="midnightblue" points="239.72,-28.63 245.31,-19.62 235.33,-23.18 239.72,-28.63"/>
</g>
<!-- Node12&#45;&gt;Node13 -->
<g id="edge17" class="edge">
<title>Node12&#45;&gt;Node13</title>
<path fill="none" stroke="midnightblue" d="M97.69,-123.48C88.82,-114.37 74.55,-99.74 63.58,-88.48"/>
<polygon fill="midnightblue" stroke="midnightblue" points="65.78,-85.73 56.29,-81.01 60.77,-90.61 65.78,-85.73"/>
</g>
<!-- Node13&#45;&gt;Node2 -->
<g id="edge19" class="edge">
<title>Node13&#45;&gt;Node2</title>
<path fill="none" stroke="midnightblue" d="M58.89,-61.98C70.97,-52.52 90.67,-37.1 105.24,-25.69"/>
<polygon fill="midnightblue" stroke="midnightblue" points="107.41,-28.43 113.13,-19.51 103.1,-22.92 107.41,-28.43"/>
</g>
<!-- Node14 -->
<g id="node14" class="node">
<title>Node14</title>
<g id="a_node14"><a xlink:title=" ">
<polygon fill="white" stroke="#bfbfbf" points="23.5,-0.5 23.5,-19.5 72.5,-19.5 72.5,-0.5 23.5,-0.5"/>
<text text-anchor="middle" x="48" y="-7.5" font-family="Helvetica,sans-Serif" font-size="10.00">cstddef</text>
</a>
</g>
</g>
<!-- Node13&#45;&gt;Node14 -->
<g id="edge18" class="edge">
<title>Node13&#45;&gt;Node14</title>
<path fill="none" stroke="midnightblue" d="M48,-61.98C48,-53.58 48,-40.48 48,-29.66"/>
<polygon fill="midnightblue" stroke="midnightblue" points="51.5,-29.51 48,-19.51 44.5,-29.51 51.5,-29.51"/>
</g>
</g>
</svg>
