<?xml version="1.0" encoding="UTF-8" standalone="no"?>
<!DOCTYPE svg PUBLIC "-//W3C//DTD SVG 1.1//EN"
 "http://www.w3.org/Graphics/SVG/1.1/DTD/svg11.dtd">
<!-- Generated by graphviz version 2.49.3 (20211027.1534)
 -->
<!-- Title: Graphical Class Hierarchy Pages: 1 -->
<svg width="321pt" height="918pt"
 viewBox="0.00 0.00 321.00 917.50" xmlns="http://www.w3.org/2000/svg" xmlns:xlink="http://www.w3.org/1999/xlink">
<g id="graph0" class="graph" transform="scale(1 1) rotate(0) translate(4 913.5)">
<title>Graphical Class Hierarchy</title>
<polygon fill="white" stroke="transparent" points="-4,4 -4,-913.5 317,-913.5 317,4 -4,4"/>
<!-- Node362 -->
<g id="node1" class="node">
<title>Node362</title>
<g id="a_node1"><a xlink:title=" ">
<polygon fill="white" stroke="#bfbfbf" points="0,-438 0,-457 74,-457 74,-438 0,-438"/>
<text text-anchor="middle" x="37" y="-445" font-family="Helvetica,sans-Serif" font-size="10.00">std::true_type</text>
</a>
</g>
</g>
<!-- Node0 -->
<g id="node2" class="node">
<title>Node0</title>
<g id="a_node2"><a xlink:href="structcppgc_1_1internal_1_1HasFinalizeGarbageCollectedObject_3_01T_00_01void__t_3_01decltype_07sa61520700171f43425adcc1b691e5825.html" target="_top" xlink:title=" ">
<polygon fill="white" stroke="black" points="115,-846 115,-909 308,-909 308,-846 115,-846"/>
<text text-anchor="start" x="123" y="-897" font-family="Helvetica,sans-Serif" font-size="10.00">cppgc::internal::HasFinalize</text>
<text text-anchor="start" x="123" y="-886" font-family="Helvetica,sans-Serif" font-size="10.00">GarbageCollectedObject&lt;</text>
<text text-anchor="start" x="123" y="-875" font-family="Helvetica,sans-Serif" font-size="10.00"> T, void_t&lt; decltype(std</text>
<text text-anchor="start" x="123" y="-864" font-family="Helvetica,sans-Serif" font-size="10.00">::declval&lt; T &gt;().FinalizeGarbageCollected</text>
<text text-anchor="middle" x="211.5" y="-853" font-family="Helvetica,sans-Serif" font-size="10.00">Object())&gt; &gt;</text>
</a>
</g>
</g>
<!-- Node362&#45;&gt;Node0 -->
<g id="edge1" class="edge">
<title>Node362&#45;&gt;Node0</title>
<path fill="none" stroke="midnightblue" d="M39.2,-467.42C43.86,-538.51 62.87,-778.6 110,-836.5 112.74,-839.86 115.79,-842.95 119.09,-845.79"/>
<polygon fill="midnightblue" stroke="midnightblue" points="42.68,-466.94 38.56,-457.18 35.69,-467.38 42.68,-466.94"/>
</g>
<!-- Node364 -->
<g id="node3" class="node">
<title>Node364</title>
<g id="a_node3"><a xlink:href="structcppgc_1_1internal_1_1HasGarbageCollectedMixinTypeMarker_3_01T_00_01void__t_3_01typename_01d86488828e935cf9a9ee1cff4abf516a.html" target="_top" xlink:title=" ">
<polygon fill="white" stroke="black" points="110,-764 110,-827 313,-827 313,-764 110,-764"/>
<text text-anchor="start" x="118" y="-815" font-family="Helvetica,sans-Serif" font-size="10.00">cppgc::internal::HasGarbage</text>
<text text-anchor="start" x="118" y="-804" font-family="Helvetica,sans-Serif" font-size="10.00">CollectedMixinTypeMarker</text>
<text text-anchor="start" x="118" y="-793" font-family="Helvetica,sans-Serif" font-size="10.00">&lt; T, void_t&lt; typename std</text>
<text text-anchor="start" x="118" y="-782" font-family="Helvetica,sans-Serif" font-size="10.00">::remove_const_t&lt; T &gt;::IsGarbageCollected</text>
<text text-anchor="middle" x="211.5" y="-771" font-family="Helvetica,sans-Serif" font-size="10.00">MixinTypeMarker &gt; &gt;</text>
</a>
</g>
</g>
<!-- Node362&#45;&gt;Node364 -->
<g id="edge2" class="edge">
<title>Node362&#45;&gt;Node364</title>
<path fill="none" stroke="midnightblue" d="M40.28,-467.41C47.59,-528.25 72.25,-710.31 110,-754.5 112.94,-757.94 116.21,-761.09 119.72,-763.99"/>
<polygon fill="midnightblue" stroke="midnightblue" points="43.72,-466.74 39.08,-457.22 36.77,-467.56 43.72,-466.74"/>
</g>
<!-- Node365 -->
<g id="node4" class="node">
<title>Node365</title>
<g id="a_node4"><a xlink:href="structcppgc_1_1internal_1_1HasGarbageCollectedTypeMarker_3_01T_00_01void__t_3_01typename_01std_1e6d179c119680fe9425d2f1df899e852.html" target="_top" xlink:title=" ">
<polygon fill="white" stroke="black" points="117.5,-682 117.5,-745 305.5,-745 305.5,-682 117.5,-682"/>
<text text-anchor="start" x="125.5" y="-733" font-family="Helvetica,sans-Serif" font-size="10.00">cppgc::internal::HasGarbage</text>
<text text-anchor="start" x="125.5" y="-722" font-family="Helvetica,sans-Serif" font-size="10.00">CollectedTypeMarker&lt; T,</text>
<text text-anchor="start" x="125.5" y="-711" font-family="Helvetica,sans-Serif" font-size="10.00"> void_t&lt; typename std::remove</text>
<text text-anchor="start" x="125.5" y="-700" font-family="Helvetica,sans-Serif" font-size="10.00">_const_t&lt; T &gt;::IsGarbageCollectedType</text>
<text text-anchor="middle" x="211.5" y="-689" font-family="Helvetica,sans-Serif" font-size="10.00">Marker &gt; &gt;</text>
</a>
</g>
</g>
<!-- Node362&#45;&gt;Node365 -->
<g id="edge3" class="edge">
<title>Node362&#45;&gt;Node365</title>
<path fill="none" stroke="midnightblue" d="M38.89,-467.23C41.84,-510.09 54.63,-612.66 110,-672.5 113.07,-675.82 116.45,-678.88 120.05,-681.69"/>
<polygon fill="midnightblue" stroke="midnightblue" points="42.37,-466.81 38.3,-457.03 35.38,-467.21 42.37,-466.81"/>
</g>
<!-- Node366 -->
<g id="node5" class="node">
<title>Node366</title>
<g id="a_node5"><a xlink:href="structcppgc_1_1internal_1_1IsGarbageCollectedMixinType_3_01T_00_01false_00_01true_01_4.html" target="_top" xlink:title=" ">
<polygon fill="white" stroke="black" points="147.5,-622 147.5,-663 275.5,-663 275.5,-622 147.5,-622"/>
<text text-anchor="start" x="155.5" y="-651" font-family="Helvetica,sans-Serif" font-size="10.00">cppgc::internal::IsGarbage</text>
<text text-anchor="start" x="155.5" y="-640" font-family="Helvetica,sans-Serif" font-size="10.00">CollectedMixinType&lt; T,</text>
<text text-anchor="middle" x="211.5" y="-629" font-family="Helvetica,sans-Serif" font-size="10.00"> false, true &gt;</text>
</a>
</g>
</g>
<!-- Node362&#45;&gt;Node366 -->
<g id="edge4" class="edge">
<title>Node362&#45;&gt;Node366</title>
<path fill="none" stroke="midnightblue" d="M40.99,-467.29C47.31,-502.07 65.28,-574.18 110,-613.5 120.57,-622.79 133.95,-629.12 147.47,-633.42"/>
<polygon fill="midnightblue" stroke="midnightblue" points="44.38,-466.31 39.28,-457.03 37.48,-467.47 44.38,-466.31"/>
</g>
<!-- Node367 -->
<g id="node6" class="node">
<title>Node367</title>
<g id="a_node6"><a xlink:href="structcppgc_1_1internal_1_1IsGarbageCollectedType_3_01T_00_01true_01_4.html" target="_top" xlink:title=" ">
<polygon fill="white" stroke="black" points="147.5,-573.5 147.5,-603.5 275.5,-603.5 275.5,-573.5 147.5,-573.5"/>
<text text-anchor="start" x="155.5" y="-591.5" font-family="Helvetica,sans-Serif" font-size="10.00">cppgc::internal::IsGarbage</text>
<text text-anchor="middle" x="211.5" y="-580.5" font-family="Helvetica,sans-Serif" font-size="10.00">CollectedType&lt; T, true &gt;</text>
</a>
</g>
</g>
<!-- Node362&#45;&gt;Node367 -->
<g id="edge5" class="edge">
<title>Node362&#45;&gt;Node367</title>
<path fill="none" stroke="midnightblue" d="M44.48,-466.74C54.35,-493 75.7,-539.66 110,-564.5 120.97,-572.44 134.21,-577.79 147.43,-581.38"/>
<polygon fill="midnightblue" stroke="midnightblue" points="47.71,-465.39 41.05,-457.15 41.12,-467.74 47.71,-465.39"/>
</g>
<!-- Node368 -->
<g id="node7" class="node">
<title>Node368</title>
<g id="a_node7"><a xlink:href="structcppgc_1_1internal_1_1IsGarbageCollectedWithMixinType_3_01T_00_01true_01_4.html" target="_top" xlink:title=" ">
<polygon fill="white" stroke="black" points="147.5,-514 147.5,-555 275.5,-555 275.5,-514 147.5,-514"/>
<text text-anchor="start" x="155.5" y="-543" font-family="Helvetica,sans-Serif" font-size="10.00">cppgc::internal::IsGarbage</text>
<text text-anchor="start" x="155.5" y="-532" font-family="Helvetica,sans-Serif" font-size="10.00">CollectedWithMixinType</text>
<text text-anchor="middle" x="211.5" y="-521" font-family="Helvetica,sans-Serif" font-size="10.00">&lt; T, true &gt;</text>
</a>
</g>
</g>
<!-- Node362&#45;&gt;Node368 -->
<g id="edge6" class="edge">
<title>Node362&#45;&gt;Node368</title>
<path fill="none" stroke="midnightblue" d="M54.62,-464.14C68.4,-477.08 89.05,-494.6 110,-505.5 121.6,-511.53 134.63,-516.47 147.36,-520.44"/>
<polygon fill="midnightblue" stroke="midnightblue" points="56.99,-461.55 47.36,-457.13 52.13,-466.59 56.99,-461.55"/>
</g>
<!-- Node369 -->
<g id="node8" class="node">
<title>Node369</title>
<g id="a_node8"><a xlink:href="structcppgc_1_1internal_1_1IsMemberType_3_01T_00_01true_01_4.html" target="_top" xlink:title=" ">
<polygon fill="white" stroke="black" points="148,-465.5 148,-495.5 275,-495.5 275,-465.5 148,-465.5"/>
<text text-anchor="start" x="156" y="-483.5" font-family="Helvetica,sans-Serif" font-size="10.00">cppgc::internal::IsMember</text>
<text text-anchor="middle" x="211.5" y="-472.5" font-family="Helvetica,sans-Serif" font-size="10.00">Type&lt; T, true &gt;</text>
</a>
</g>
</g>
<!-- Node362&#45;&gt;Node369 -->
<g id="edge7" class="edge">
<title>Node362&#45;&gt;Node369</title>
<path fill="none" stroke="midnightblue" d="M84.05,-456.31C103.63,-460.06 126.78,-464.48 147.88,-468.52"/>
<polygon fill="midnightblue" stroke="midnightblue" points="84.64,-452.86 74.16,-454.42 83.33,-459.73 84.64,-452.86"/>
</g>
<!-- Node370 -->
<g id="node9" class="node">
<title>Node370</title>
<g id="a_node9"><a xlink:href="structcppgc_1_1internal_1_1IsTraceMethodConst_3_01T_00_01void__t_3_01decltype_07std_1_1declval_340f310667d584b91bf9e1fcf69c55d0e.html" target="_top" xlink:title=" ">
<polygon fill="white" stroke="black" points="147.5,-383 147.5,-446 275.5,-446 275.5,-383 147.5,-383"/>
<text text-anchor="start" x="155.5" y="-434" font-family="Helvetica,sans-Serif" font-size="10.00">cppgc::internal::IsTrace</text>
<text text-anchor="start" x="155.5" y="-423" font-family="Helvetica,sans-Serif" font-size="10.00">MethodConst&lt; T, void_t</text>
<text text-anchor="start" x="155.5" y="-412" font-family="Helvetica,sans-Serif" font-size="10.00">&lt; decltype(std::declval</text>
<text text-anchor="start" x="155.5" y="-401" font-family="Helvetica,sans-Serif" font-size="10.00">&lt; const T &gt;().Trace(std</text>
<text text-anchor="middle" x="211.5" y="-390" font-family="Helvetica,sans-Serif" font-size="10.00">::declval&lt; Visitor * &gt;()))&gt; &gt;</text>
</a>
</g>
</g>
<!-- Node362&#45;&gt;Node370 -->
<g id="edge8" class="edge">
<title>Node362&#45;&gt;Node370</title>
<path fill="none" stroke="midnightblue" d="M84.22,-438.66C103.56,-434.96 126.34,-430.6 147.19,-426.61"/>
<polygon fill="midnightblue" stroke="midnightblue" points="83.33,-435.27 74.16,-440.58 84.64,-442.14 83.33,-435.27"/>
</g>
<!-- Node371 -->
<g id="node10" class="node">
<title>Node371</title>
<g id="a_node10"><a xlink:href="structcppgc_1_1internal_1_1IsTraceable_3_01T_00_01void__t_3_01decltype_07std_1_1declval_3_01T_0168466c9ac6c89dfb7a8449cb1b8ecb7f.html" target="_top" xlink:title=" ">
<polygon fill="white" stroke="black" points="144.5,-311.5 144.5,-363.5 278.5,-363.5 278.5,-311.5 144.5,-311.5"/>
<text text-anchor="start" x="152.5" y="-351.5" font-family="Helvetica,sans-Serif" font-size="10.00">cppgc::internal::IsTraceable</text>
<text text-anchor="start" x="152.5" y="-340.5" font-family="Helvetica,sans-Serif" font-size="10.00">&lt; T, void_t&lt; decltype(std</text>
<text text-anchor="start" x="152.5" y="-329.5" font-family="Helvetica,sans-Serif" font-size="10.00">::declval&lt; T &gt;().Trace(std</text>
<text text-anchor="middle" x="211.5" y="-318.5" font-family="Helvetica,sans-Serif" font-size="10.00">::declval&lt; Visitor * &gt;()))&gt; &gt;</text>
</a>
</g>
</g>
<!-- Node362&#45;&gt;Node371 -->
<g id="edge9" class="edge">
<title>Node362&#45;&gt;Node371</title>
<path fill="none" stroke="midnightblue" d="M51.37,-429.67C64.63,-413.09 86.34,-388.72 110,-373.5 120.52,-366.73 132.48,-361.03 144.39,-356.3"/>
<polygon fill="midnightblue" stroke="midnightblue" points="48.29,-427.93 44.92,-437.97 53.82,-432.23 48.29,-427.93"/>
</g>
<!-- Node372 -->
<g id="node11" class="node">
<title>Node372</title>
<g id="a_node11"><a xlink:href="structcppgc_1_1internal_1_1IsUntracedMemberType_3_01T_00_01true_01_4.html" target="_top" xlink:title=" ">
<polygon fill="white" stroke="black" points="146,-262.5 146,-292.5 277,-292.5 277,-262.5 146,-262.5"/>
<text text-anchor="start" x="154" y="-280.5" font-family="Helvetica,sans-Serif" font-size="10.00">cppgc::internal::IsUntraced</text>
<text text-anchor="middle" x="211.5" y="-269.5" font-family="Helvetica,sans-Serif" font-size="10.00">MemberType&lt; T, true &gt;</text>
</a>
</g>
</g>
<!-- Node362&#45;&gt;Node372 -->
<g id="edge10" class="edge">
<title>Node362&#45;&gt;Node372</title>
<path fill="none" stroke="midnightblue" d="M42.16,-427.87C49.86,-396.45 69.41,-335.11 110,-302.5 120.3,-294.22 132.97,-288.64 145.8,-284.88"/>
<polygon fill="midnightblue" stroke="midnightblue" points="38.66,-427.45 39.84,-437.98 45.49,-429.02 38.66,-427.45"/>
</g>
<!-- Node373 -->
<g id="node12" class="node">
<title>Node373</title>
<g id="a_node12"><a xlink:href="structcppgc_1_1internal_1_1IsWeak_3_01BasicCrossThreadPersistent_3_01T_00_01internal_1_1WeakCros6251904fc881150f13e418ea64da9a91.html" target="_top" xlink:title=" ">
<polygon fill="white" stroke="black" points="111.5,-191.5 111.5,-243.5 311.5,-243.5 311.5,-191.5 111.5,-191.5"/>
<text text-anchor="start" x="119.5" y="-231.5" font-family="Helvetica,sans-Serif" font-size="10.00">cppgc::internal::IsWeak</text>
<text text-anchor="start" x="119.5" y="-220.5" font-family="Helvetica,sans-Serif" font-size="10.00">&lt; BasicCrossThreadPersistent</text>
<text text-anchor="start" x="119.5" y="-209.5" font-family="Helvetica,sans-Serif" font-size="10.00">&lt; T, internal::WeakCrossThreadPersistent</text>
<text text-anchor="middle" x="211.5" y="-198.5" font-family="Helvetica,sans-Serif" font-size="10.00">Policy, LocationPolicy, CheckingPolicy &gt; &gt;</text>
</a>
</g>
</g>
<!-- Node362&#45;&gt;Node373 -->
<g id="edge11" class="edge">
<title>Node362&#45;&gt;Node373</title>
<path fill="none" stroke="midnightblue" d="M39.85,-427.96C44.52,-389.33 60.24,-302.7 110,-253.5 113.69,-249.85 117.78,-246.57 122.13,-243.62"/>
<polygon fill="midnightblue" stroke="midnightblue" points="36.37,-427.59 38.76,-437.91 43.32,-428.35 36.37,-427.59"/>
</g>
<!-- Node374 -->
<g id="node13" class="node">
<title>Node374</title>
<g id="a_node13"><a xlink:href="structcppgc_1_1internal_1_1IsWeak_3_01BasicPersistent_3_01T_00_01internal_1_1WeakPersistentPolica0137f7022c128522e140d084b881692.html" target="_top" xlink:title=" ">
<polygon fill="white" stroke="black" points="126,-120.5 126,-172.5 297,-172.5 297,-120.5 126,-120.5"/>
<text text-anchor="start" x="134" y="-160.5" font-family="Helvetica,sans-Serif" font-size="10.00">cppgc::internal::IsWeak</text>
<text text-anchor="start" x="134" y="-149.5" font-family="Helvetica,sans-Serif" font-size="10.00">&lt; BasicPersistent&lt; T,</text>
<text text-anchor="start" x="134" y="-138.5" font-family="Helvetica,sans-Serif" font-size="10.00"> internal::WeakPersistentPolicy,</text>
<text text-anchor="middle" x="211.5" y="-127.5" font-family="Helvetica,sans-Serif" font-size="10.00"> LocationPolicy, CheckingPolicy &gt; &gt;</text>
</a>
</g>
</g>
<!-- Node362&#45;&gt;Node374 -->
<g id="edge12" class="edge">
<title>Node362&#45;&gt;Node374</title>
<path fill="none" stroke="midnightblue" d="M37.53,-427.75C37.48,-379.39 44.09,-253.81 110,-182.5 114.65,-177.46 120.06,-173.13 125.91,-169.41"/>
<polygon fill="midnightblue" stroke="midnightblue" points="34.03,-427.86 37.65,-437.82 41.03,-427.78 34.03,-427.86"/>
</g>
<!-- Node375 -->
<g id="node14" class="node">
<title>Node375</title>
<g id="a_node14"><a xlink:href="structcppgc_1_1internal_1_1IsWeak_3_01internal_1_1BasicMember_3_01T_00_01WeakMemberTag_00_01Writdeb64fe096629f63a5b8562f6a14743b.html" target="_top" xlink:title=" ">
<polygon fill="white" stroke="black" points="127,-49.5 127,-101.5 296,-101.5 296,-49.5 127,-49.5"/>
<text text-anchor="start" x="135" y="-89.5" font-family="Helvetica,sans-Serif" font-size="10.00">cppgc::internal::IsWeak</text>
<text text-anchor="start" x="135" y="-78.5" font-family="Helvetica,sans-Serif" font-size="10.00">&lt; internal::BasicMember</text>
<text text-anchor="start" x="135" y="-67.5" font-family="Helvetica,sans-Serif" font-size="10.00">&lt; T, WeakMemberTag, WriteBarrier</text>
<text text-anchor="middle" x="211.5" y="-56.5" font-family="Helvetica,sans-Serif" font-size="10.00">Policy, CheckingPolicy &gt; &gt;</text>
</a>
</g>
</g>
<!-- Node362&#45;&gt;Node375 -->
<g id="edge13" class="edge">
<title>Node362&#45;&gt;Node375</title>
<path fill="none" stroke="midnightblue" d="M39.73,-427.77C45.77,-363.22 67.84,-159.67 110,-111.5 114.76,-106.06 120.4,-101.44 126.55,-97.52"/>
<polygon fill="midnightblue" stroke="midnightblue" points="36.24,-427.56 38.82,-437.83 43.21,-428.19 36.24,-427.56"/>
</g>
<!-- Node376 -->
<g id="node15" class="node">
<title>Node376</title>
<g id="a_node15"><a xlink:href="structcppgc_1_1internal_1_1IsWeakMemberType_3_01T_00_01true_01_4.html" target="_top" xlink:title=" ">
<polygon fill="white" stroke="black" points="135.5,-0.5 135.5,-30.5 287.5,-30.5 287.5,-0.5 135.5,-0.5"/>
<text text-anchor="start" x="143.5" y="-18.5" font-family="Helvetica,sans-Serif" font-size="10.00">cppgc::internal::IsWeakMember</text>
<text text-anchor="middle" x="211.5" y="-7.5" font-family="Helvetica,sans-Serif" font-size="10.00">Type&lt; T, true &gt;</text>
</a>
</g>
</g>
<!-- Node362&#45;&gt;Node376 -->
<g id="edge14" class="edge">
<title>Node362&#45;&gt;Node376</title>
<path fill="none" stroke="midnightblue" d="M38.73,-427.85C41.84,-354.47 56.43,-97.88 110,-40.5 116.99,-33.01 125.86,-27.61 135.41,-23.75"/>
<polygon fill="midnightblue" stroke="midnightblue" points="35.22,-427.86 38.32,-437.99 42.22,-428.14 35.22,-427.86"/>
</g>
</g>
</svg>
