<?xml version="1.0" encoding="UTF-8" standalone="no"?>
<!DOCTYPE svg PUBLIC "-//W3C//DTD SVG 1.1//EN"
 "http://www.w3.org/Graphics/SVG/1.1/DTD/svg11.dtd">
<!-- Generated by graphviz version 2.49.3 (20211027.1534)
 -->
<!-- Title: include/cppgc/liveness&#45;broker.h Pages: 1 -->
<svg width="1454pt" height="408pt"
 viewBox="0.00 0.00 1453.58 408.00" xmlns="http://www.w3.org/2000/svg" xmlns:xlink="http://www.w3.org/1999/xlink">
<g id="graph0" class="graph" transform="scale(1 1) rotate(0) translate(4 404)">
<title>include/cppgc/liveness&#45;broker.h</title>
<polygon fill="white" stroke="transparent" points="-4,4 -4,-404 1449.58,-404 1449.58,4 -4,4"/>
<!-- Node1 -->
<g id="node1" class="node">
<title>Node1</title>
<g id="a_node1"><a xlink:title=" ">
<polygon fill="#bfbfbf" stroke="black" points="547.5,-369.5 547.5,-399.5 663.5,-399.5 663.5,-369.5 547.5,-369.5"/>
<text text-anchor="start" x="555.5" y="-387.5" font-family="Helvetica,sans-Serif" font-size="10.00">include/cppgc/liveness</text>
<text text-anchor="middle" x="605.5" y="-376.5" font-family="Helvetica,sans-Serif" font-size="10.00">&#45;broker.h</text>
</a>
</g>
</g>
<!-- Node2 -->
<g id="node2" class="node">
<title>Node2</title>
<g id="a_node2"><a xlink:href="heap_8h.html" target="_top" xlink:title=" ">
<polygon fill="white" stroke="black" points="243.5,-252 243.5,-271 317.5,-271 317.5,-252 243.5,-252"/>
<text text-anchor="middle" x="280.5" y="-259" font-family="Helvetica,sans-Serif" font-size="10.00">cppgc/heap.h</text>
</a>
</g>
</g>
<!-- Node1&#45;&gt;Node2 -->
<g id="edge1" class="edge">
<title>Node1&#45;&gt;Node2</title>
<path fill="none" stroke="midnightblue" d="M567.58,-369.38C503.18,-345.41 373.55,-297.14 313.02,-274.61"/>
<polygon fill="midnightblue" stroke="midnightblue" points="314.17,-271.3 303.58,-271.09 311.73,-277.86 314.17,-271.3"/>
</g>
<!-- Node6 -->
<g id="node6" class="node">
<title>Node6</title>
<g id="a_node6"><a xlink:href="v8config_8h.html" target="_top" xlink:title=" ">
<polygon fill="white" stroke="black" points="518.5,-56.5 518.5,-75.5 578.5,-75.5 578.5,-56.5 518.5,-56.5"/>
<text text-anchor="middle" x="548.5" y="-63.5" font-family="Helvetica,sans-Serif" font-size="10.00">v8config.h</text>
</a>
</g>
</g>
<!-- Node1&#45;&gt;Node6 -->
<g id="edge53" class="edge">
<title>Node1&#45;&gt;Node6</title>
<path fill="none" stroke="midnightblue" d="M597.99,-369.42C586.92,-347.31 567.5,-302.79 567.5,-262.5 567.5,-262.5 567.5,-262.5 567.5,-193.5 567.5,-154.77 558.68,-110.11 553.06,-85.57"/>
<polygon fill="midnightblue" stroke="midnightblue" points="556.39,-84.44 550.68,-75.52 549.58,-86.06 556.39,-84.44"/>
</g>
<!-- Node14 -->
<g id="node14" class="node">
<title>Node14</title>
<g id="a_node14"><a xlink:href="member_8h.html" target="_top" xlink:title=" ">
<polygon fill="white" stroke="black" points="1268,-313.5 1268,-332.5 1357,-332.5 1357,-313.5 1268,-313.5"/>
<text text-anchor="middle" x="1312.5" y="-320.5" font-family="Helvetica,sans-Serif" font-size="10.00">cppgc/member.h</text>
</a>
</g>
</g>
<!-- Node1&#45;&gt;Node14 -->
<g id="edge18" class="edge">
<title>Node1&#45;&gt;Node14</title>
<path fill="none" stroke="midnightblue" d="M663.66,-378.61C797.61,-367.33 1126.4,-339.66 1257.36,-328.64"/>
<polygon fill="midnightblue" stroke="midnightblue" points="1257.89,-332.11 1267.56,-327.78 1257.3,-325.13 1257.89,-332.11"/>
</g>
<!-- Node25 -->
<g id="node25" class="node">
<title>Node25</title>
<g id="a_node25"><a xlink:href="trace-trait_8h.html" target="_top" xlink:title=" ">
<polygon fill="white" stroke="black" points="828,-118 828,-137 923,-137 923,-118 828,-118"/>
<text text-anchor="middle" x="875.5" y="-125" font-family="Helvetica,sans-Serif" font-size="10.00">cppgc/trace&#45;trait.h</text>
</a>
</g>
</g>
<!-- Node1&#45;&gt;Node25 -->
<g id="edge52" class="edge">
<title>Node1&#45;&gt;Node25</title>
<path fill="none" stroke="midnightblue" d="M619.42,-369.25C652.6,-335.44 739.3,-248 815.5,-179 828.98,-166.79 844.73,-153.57 856.71,-143.73"/>
<polygon fill="midnightblue" stroke="midnightblue" points="859.15,-146.25 864.68,-137.21 854.72,-140.83 859.15,-146.25"/>
</g>
<!-- Node3 -->
<g id="node3" class="node">
<title>Node3</title>
<g id="a_node3"><a xlink:title=" ">
<polygon fill="white" stroke="#bfbfbf" points="0,-56.5 0,-75.5 51,-75.5 51,-56.5 0,-56.5"/>
<text text-anchor="middle" x="25.5" y="-63.5" font-family="Helvetica,sans-Serif" font-size="10.00">memory</text>
</a>
</g>
</g>
<!-- Node2&#45;&gt;Node3 -->
<g id="edge2" class="edge">
<title>Node2&#45;&gt;Node3</title>
<path fill="none" stroke="midnightblue" d="M243.49,-258.37C181.19,-253.95 59.48,-241.42 32.5,-210 2.49,-175.05 12.26,-115.76 19.94,-85.69"/>
<polygon fill="midnightblue" stroke="midnightblue" points="23.41,-86.28 22.7,-75.7 16.67,-84.41 23.41,-86.28"/>
</g>
<!-- Node4 -->
<g id="node4" class="node">
<title>Node4</title>
<g id="a_node4"><a xlink:title=" ">
<polygon fill="white" stroke="#bfbfbf" points="174.5,-185 174.5,-204 218.5,-204 218.5,-185 174.5,-185"/>
<text text-anchor="middle" x="196.5" y="-192" font-family="Helvetica,sans-Serif" font-size="10.00">vector</text>
</a>
</g>
</g>
<!-- Node2&#45;&gt;Node4 -->
<g id="edge3" class="edge">
<title>Node2&#45;&gt;Node4</title>
<path fill="none" stroke="midnightblue" d="M269.17,-251.73C255.44,-241.11 232.1,-223.05 215.58,-210.26"/>
<polygon fill="midnightblue" stroke="midnightblue" points="217.7,-207.48 207.65,-204.13 213.42,-213.02 217.7,-207.48"/>
</g>
<!-- Node5 -->
<g id="node5" class="node">
<title>Node5</title>
<g id="a_node5"><a xlink:href="common_8h.html" target="_top" xlink:title=" ">
<polygon fill="white" stroke="black" points="389,-185 389,-204 480,-204 480,-185 389,-185"/>
<text text-anchor="middle" x="434.5" y="-192" font-family="Helvetica,sans-Serif" font-size="10.00">cppgc/common.h</text>
</a>
</g>
</g>
<!-- Node2&#45;&gt;Node5 -->
<g id="edge4" class="edge">
<title>Node2&#45;&gt;Node5</title>
<path fill="none" stroke="midnightblue" d="M300.95,-251.87C327.53,-240.65 374.14,-220.98 404.67,-208.09"/>
<polygon fill="midnightblue" stroke="midnightblue" points="406.11,-211.28 413.97,-204.17 403.39,-204.83 406.11,-211.28"/>
</g>
<!-- Node2&#45;&gt;Node6 -->
<g id="edge17" class="edge">
<title>Node2&#45;&gt;Node6</title>
<path fill="none" stroke="midnightblue" d="M292.03,-251.97C303.81,-242.75 321.97,-227.06 333.5,-210 359.74,-171.16 337.29,-142.95 372.5,-112 410.14,-78.9 468.88,-69.56 508.01,-67.23"/>
<polygon fill="midnightblue" stroke="midnightblue" points="508.42,-70.71 518.25,-66.75 508.1,-63.72 508.42,-70.71"/>
</g>
<!-- Node7 -->
<g id="node7" class="node">
<title>Node7</title>
<g id="a_node7"><a xlink:href="custom-space_8h.html" target="_top" xlink:title=" ">
<polygon fill="white" stroke="black" points="42,-185 42,-204 157,-204 157,-185 42,-185"/>
<text text-anchor="middle" x="99.5" y="-192" font-family="Helvetica,sans-Serif" font-size="10.00">cppgc/custom&#45;space.h</text>
</a>
</g>
</g>
<!-- Node2&#45;&gt;Node7 -->
<g id="edge6" class="edge">
<title>Node2&#45;&gt;Node7</title>
<path fill="none" stroke="midnightblue" d="M256.46,-251.87C224.73,-240.47 168.71,-220.35 132.88,-207.49"/>
<polygon fill="midnightblue" stroke="midnightblue" points="133.94,-204.15 123.35,-204.06 131.58,-210.74 133.94,-204.15"/>
</g>
<!-- Node9 -->
<g id="node9" class="node">
<title>Node9</title>
<g id="a_node9"><a xlink:href="platform_8h.html" target="_top" xlink:title=" ">
<polygon fill="white" stroke="black" points="236,-185 236,-204 325,-204 325,-185 236,-185"/>
<text text-anchor="middle" x="280.5" y="-192" font-family="Helvetica,sans-Serif" font-size="10.00">cppgc/platform.h</text>
</a>
</g>
</g>
<!-- Node2&#45;&gt;Node9 -->
<g id="edge8" class="edge">
<title>Node2&#45;&gt;Node9</title>
<path fill="none" stroke="midnightblue" d="M280.5,-251.73C280.5,-242.18 280.5,-226.62 280.5,-214.28"/>
<polygon fill="midnightblue" stroke="midnightblue" points="284,-214.13 280.5,-204.13 277,-214.13 284,-214.13"/>
</g>
<!-- Node5&#45;&gt;Node6 -->
<g id="edge5" class="edge">
<title>Node5&#45;&gt;Node6</title>
<path fill="none" stroke="midnightblue" d="M452.13,-184.95C468.63,-176.25 493.14,-161.43 509.5,-143 524.69,-125.9 535.73,-101.82 542.11,-85.38"/>
<polygon fill="midnightblue" stroke="midnightblue" points="545.46,-86.42 545.63,-75.83 538.89,-84 545.46,-86.42"/>
</g>
<!-- Node8 -->
<g id="node8" class="node">
<title>Node8</title>
<g id="a_node8"><a xlink:title=" ">
<polygon fill="white" stroke="#bfbfbf" points="73,-56.5 73,-75.5 124,-75.5 124,-56.5 73,-56.5"/>
<text text-anchor="middle" x="98.5" y="-63.5" font-family="Helvetica,sans-Serif" font-size="10.00">stddef.h</text>
</a>
</g>
</g>
<!-- Node7&#45;&gt;Node8 -->
<g id="edge7" class="edge">
<title>Node7&#45;&gt;Node8</title>
<path fill="none" stroke="midnightblue" d="M98.17,-184.95C96.69,-174.93 94.38,-157.81 93.5,-143 92.69,-129.25 92.74,-125.76 93.5,-112 93.98,-103.36 94.97,-93.83 95.95,-85.77"/>
<polygon fill="midnightblue" stroke="midnightblue" points="99.45,-85.97 97.26,-75.6 92.51,-85.07 99.45,-85.97"/>
</g>
<!-- Node9&#45;&gt;Node6 -->
<g id="edge16" class="edge">
<title>Node9&#45;&gt;Node6</title>
<path fill="none" stroke="midnightblue" d="M284.09,-184.99C291.67,-168.16 310.97,-130.61 339.5,-112 391.01,-78.39 463.41,-69.44 508.07,-67.3"/>
<polygon fill="midnightblue" stroke="midnightblue" points="508.39,-70.79 518.25,-66.91 508.12,-63.8 508.39,-70.79"/>
</g>
<!-- Node10 -->
<g id="node10" class="node">
<title>Node10</title>
<g id="a_node10"><a xlink:href="v8-platform_8h.html" target="_top" xlink:title=" ">
<polygon fill="white" stroke="black" points="103,-118 103,-137 176,-137 176,-118 103,-118"/>
<text text-anchor="middle" x="139.5" y="-125" font-family="Helvetica,sans-Serif" font-size="10.00">v8&#45;platform.h</text>
</a>
</g>
</g>
<!-- Node9&#45;&gt;Node10 -->
<g id="edge9" class="edge">
<title>Node9&#45;&gt;Node10</title>
<path fill="none" stroke="midnightblue" d="M261.78,-184.87C237.65,-173.75 195.5,-154.32 167.55,-141.43"/>
<polygon fill="midnightblue" stroke="midnightblue" points="168.85,-138.18 158.3,-137.17 165.92,-144.53 168.85,-138.18"/>
</g>
<!-- Node10&#45;&gt;Node3 -->
<g id="edge13" class="edge">
<title>Node10&#45;&gt;Node3</title>
<path fill="none" stroke="midnightblue" d="M123.17,-117.98C104.29,-108.12 72.99,-91.79 50.92,-80.27"/>
<polygon fill="midnightblue" stroke="midnightblue" points="52.29,-77.03 41.8,-75.51 49.05,-83.24 52.29,-77.03"/>
</g>
<!-- Node10&#45;&gt;Node6 -->
<g id="edge15" class="edge">
<title>Node10&#45;&gt;Node6</title>
<path fill="none" stroke="midnightblue" d="M163.09,-117.97C169.93,-115.76 177.45,-113.56 184.5,-112 300.47,-86.39 440.68,-74.21 508.25,-69.48"/>
<polygon fill="midnightblue" stroke="midnightblue" points="508.71,-72.96 518.45,-68.79 508.24,-65.98 508.71,-72.96"/>
</g>
<!-- Node10&#45;&gt;Node8 -->
<g id="edge10" class="edge">
<title>Node10&#45;&gt;Node8</title>
<path fill="none" stroke="midnightblue" d="M133.63,-117.98C127.54,-109.14 117.86,-95.09 110.2,-83.98"/>
<polygon fill="midnightblue" stroke="midnightblue" points="112.92,-81.76 104.36,-75.51 107.16,-85.73 112.92,-81.76"/>
</g>
<!-- Node11 -->
<g id="node11" class="node">
<title>Node11</title>
<g id="a_node11"><a xlink:title=" ">
<polygon fill="white" stroke="#bfbfbf" points="210.5,-56.5 210.5,-75.5 258.5,-75.5 258.5,-56.5 210.5,-56.5"/>
<text text-anchor="middle" x="234.5" y="-63.5" font-family="Helvetica,sans-Serif" font-size="10.00">stdint.h</text>
</a>
</g>
</g>
<!-- Node10&#45;&gt;Node11 -->
<g id="edge11" class="edge">
<title>Node10&#45;&gt;Node11</title>
<path fill="none" stroke="midnightblue" d="M153.11,-117.98C168.56,-108.3 193.99,-92.37 212.32,-80.89"/>
<polygon fill="midnightblue" stroke="midnightblue" points="214.3,-83.78 220.91,-75.51 210.58,-77.85 214.3,-83.78"/>
</g>
<!-- Node12 -->
<g id="node12" class="node">
<title>Node12</title>
<g id="a_node12"><a xlink:title=" ">
<polygon fill="white" stroke="#bfbfbf" points="142,-56.5 142,-75.5 189,-75.5 189,-56.5 142,-56.5"/>
<text text-anchor="middle" x="165.5" y="-63.5" font-family="Helvetica,sans-Serif" font-size="10.00">stdlib.h</text>
</a>
</g>
</g>
<!-- Node10&#45;&gt;Node12 -->
<g id="edge12" class="edge">
<title>Node10&#45;&gt;Node12</title>
<path fill="none" stroke="midnightblue" d="M143.23,-117.98C146.97,-109.4 152.86,-95.93 157.64,-84.98"/>
<polygon fill="midnightblue" stroke="midnightblue" points="160.98,-86.07 161.78,-75.51 154.57,-83.27 160.98,-86.07"/>
</g>
<!-- Node13 -->
<g id="node13" class="node">
<title>Node13</title>
<g id="a_node13"><a xlink:title=" ">
<polygon fill="white" stroke="#bfbfbf" points="349,-56.5 349,-75.5 390,-75.5 390,-56.5 349,-56.5"/>
<text text-anchor="middle" x="369.5" y="-63.5" font-family="Helvetica,sans-Serif" font-size="10.00">string</text>
</a>
</g>
</g>
<!-- Node10&#45;&gt;Node13 -->
<g id="edge14" class="edge">
<title>Node10&#45;&gt;Node13</title>
<path fill="none" stroke="midnightblue" d="M165.1,-117.89C171.42,-115.87 178.18,-113.78 184.5,-112 238.35,-96.8 301.88,-82.02 338.74,-73.76"/>
<polygon fill="midnightblue" stroke="midnightblue" points="339.84,-77.1 348.84,-71.51 338.32,-70.27 339.84,-77.1"/>
</g>
<!-- Node14&#45;&gt;Node6 -->
<g id="edge51" class="edge">
<title>Node14&#45;&gt;Node6</title>
<path fill="none" stroke="midnightblue" d="M1267.95,-319.28C1167.92,-311.95 919.23,-286.83 727.5,-210 675.07,-188.99 663.16,-178.84 619.5,-143 597.36,-124.83 575.4,-100 561.89,-83.73"/>
<polygon fill="midnightblue" stroke="midnightblue" points="564.35,-81.21 555.31,-75.68 558.93,-85.64 564.35,-81.21"/>
</g>
<!-- Node15 -->
<g id="node15" class="node">
<title>Node15</title>
<g id="a_node15"><a xlink:title=" ">
<polygon fill="white" stroke="#bfbfbf" points="1333.5,-56.5 1333.5,-75.5 1379.5,-75.5 1379.5,-56.5 1333.5,-56.5"/>
<text text-anchor="middle" x="1356.5" y="-63.5" font-family="Helvetica,sans-Serif" font-size="10.00">atomic</text>
</a>
</g>
</g>
<!-- Node14&#45;&gt;Node15 -->
<g id="edge19" class="edge">
<title>Node14&#45;&gt;Node15</title>
<path fill="none" stroke="midnightblue" d="M1321.35,-313.28C1329.28,-304.83 1340.42,-291.24 1345.5,-277 1369.39,-210 1363.29,-123.34 1359.01,-85.76"/>
<polygon fill="midnightblue" stroke="midnightblue" points="1362.47,-85.24 1357.77,-75.75 1355.52,-86.1 1362.47,-85.24"/>
</g>
<!-- Node16 -->
<g id="node16" class="node">
<title>Node16</title>
<g id="a_node16"><a xlink:title=" ">
<polygon fill="white" stroke="#bfbfbf" points="1308,-0.5 1308,-19.5 1357,-19.5 1357,-0.5 1308,-0.5"/>
<text text-anchor="middle" x="1332.5" y="-7.5" font-family="Helvetica,sans-Serif" font-size="10.00">cstddef</text>
</a>
</g>
</g>
<!-- Node14&#45;&gt;Node16 -->
<g id="edge20" class="edge">
<title>Node14&#45;&gt;Node16</title>
<path fill="none" stroke="midnightblue" d="M1356.01,-313.5C1378.41,-307.02 1404.52,-295.87 1421.5,-277 1446.76,-248.93 1445.5,-233.26 1445.5,-195.5 1445.5,-195.5 1445.5,-195.5 1445.5,-126.5 1445.5,-93.4 1443.21,-80.98 1421.5,-56 1407.16,-39.49 1385.3,-28.32 1366.84,-21.24"/>
<polygon fill="midnightblue" stroke="midnightblue" points="1367.87,-17.89 1357.28,-17.81 1365.51,-24.48 1367.87,-17.89"/>
</g>
<!-- Node17 -->
<g id="node17" class="node">
<title>Node17</title>
<g id="a_node17"><a xlink:title=" ">
<polygon fill="white" stroke="#bfbfbf" points="1170.5,-0.5 1170.5,-19.5 1232.5,-19.5 1232.5,-0.5 1170.5,-0.5"/>
<text text-anchor="middle" x="1201.5" y="-7.5" font-family="Helvetica,sans-Serif" font-size="10.00">type_traits</text>
</a>
</g>
</g>
<!-- Node14&#45;&gt;Node17 -->
<g id="edge21" class="edge">
<title>Node14&#45;&gt;Node17</title>
<path fill="none" stroke="midnightblue" d="M1325.71,-313.28C1351.81,-294.89 1407.5,-249.33 1407.5,-195.5 1407.5,-195.5 1407.5,-195.5 1407.5,-126.5 1407.5,-94.05 1411.76,-78.63 1388.5,-56 1368.05,-36.09 1291.52,-22.71 1242.93,-16.01"/>
<polygon fill="midnightblue" stroke="midnightblue" points="1243.09,-12.5 1232.72,-14.64 1242.16,-19.44 1243.09,-12.5"/>
</g>
<!-- Node18 -->
<g id="node18" class="node">
<title>Node18</title>
<g id="a_node18"><a xlink:href="pointer-policies_8h.html" target="_top" xlink:title=" ">
<polygon fill="white" stroke="black" points="1055.5,-246.5 1055.5,-276.5 1165.5,-276.5 1165.5,-246.5 1055.5,-246.5"/>
<text text-anchor="start" x="1063.5" y="-264.5" font-family="Helvetica,sans-Serif" font-size="10.00">cppgc/internal/pointer</text>
<text text-anchor="middle" x="1110.5" y="-253.5" font-family="Helvetica,sans-Serif" font-size="10.00">&#45;policies.h</text>
</a>
</g>
</g>
<!-- Node14&#45;&gt;Node18 -->
<g id="edge22" class="edge">
<title>Node14&#45;&gt;Node18</title>
<path fill="none" stroke="midnightblue" d="M1283.56,-313.48C1253.52,-304.63 1205.72,-290.55 1167.97,-279.43"/>
<polygon fill="midnightblue" stroke="midnightblue" points="1168.69,-275.99 1158.11,-276.52 1166.71,-282.71 1168.69,-275.99"/>
</g>
<!-- Node24 -->
<g id="node24" class="node">
<title>Node24</title>
<g id="a_node24"><a xlink:href="sentinel-pointer_8h.html" target="_top" xlink:title=" ">
<polygon fill="white" stroke="black" points="1108,-118 1108,-137 1227,-137 1227,-118 1108,-118"/>
<text text-anchor="middle" x="1167.5" y="-125" font-family="Helvetica,sans-Serif" font-size="10.00">cppgc/sentinel&#45;pointer.h</text>
</a>
</g>
</g>
<!-- Node14&#45;&gt;Node24 -->
<g id="edge49" class="edge">
<title>Node14&#45;&gt;Node24</title>
<path fill="none" stroke="midnightblue" d="M1306.08,-313.44C1283.91,-283.85 1210.28,-185.59 1180.33,-145.62"/>
<polygon fill="midnightblue" stroke="midnightblue" points="1182.97,-143.31 1174.17,-137.41 1177.37,-147.51 1182.97,-143.31"/>
</g>
<!-- Node26 -->
<g id="node26" class="node">
<title>Node26</title>
<g id="a_node26"><a xlink:href="type-traits_8h.html" target="_top" xlink:title=" ">
<polygon fill="white" stroke="black" points="1219.5,-56.5 1219.5,-75.5 1315.5,-75.5 1315.5,-56.5 1219.5,-56.5"/>
<text text-anchor="middle" x="1267.5" y="-63.5" font-family="Helvetica,sans-Serif" font-size="10.00">cppgc/type&#45;traits.h</text>
</a>
</g>
</g>
<!-- Node14&#45;&gt;Node26 -->
<g id="edge50" class="edge">
<title>Node14&#45;&gt;Node26</title>
<path fill="none" stroke="midnightblue" d="M1310.95,-313.22C1304.51,-276.75 1279.8,-136.68 1270.8,-85.7"/>
<polygon fill="midnightblue" stroke="midnightblue" points="1274.23,-84.98 1269.04,-75.74 1267.33,-86.2 1274.23,-84.98"/>
</g>
<!-- Node18&#45;&gt;Node6 -->
<g id="edge48" class="edge">
<title>Node18&#45;&gt;Node6</title>
<path fill="none" stroke="midnightblue" d="M1055.49,-255.13C995.54,-248.35 897.25,-234.5 815.5,-210 744.39,-188.69 726.97,-179.8 662.5,-143 642.04,-131.32 639.01,-125.2 619.5,-112 603.54,-101.2 585.15,-89.57 571.08,-80.83"/>
<polygon fill="midnightblue" stroke="midnightblue" points="572.88,-77.83 562.54,-75.55 569.2,-83.79 572.88,-77.83"/>
</g>
<!-- Node18&#45;&gt;Node17 -->
<g id="edge24" class="edge">
<title>Node18&#45;&gt;Node17</title>
<path fill="none" stroke="midnightblue" d="M1105.68,-246.13C1097.4,-219.09 1082.8,-159.11 1098.5,-112 1111.68,-72.47 1151.23,-41.66 1177.31,-24.93"/>
<polygon fill="midnightblue" stroke="midnightblue" points="1179.25,-27.85 1185.91,-19.61 1175.57,-21.9 1179.25,-27.85"/>
</g>
<!-- Node19 -->
<g id="node19" class="node">
<title>Node19</title>
<g id="a_node19"><a xlink:title=" ">
<polygon fill="white" stroke="#bfbfbf" points="1149.5,-56.5 1149.5,-75.5 1195.5,-75.5 1195.5,-56.5 1149.5,-56.5"/>
<text text-anchor="middle" x="1172.5" y="-63.5" font-family="Helvetica,sans-Serif" font-size="10.00">cstdint</text>
</a>
</g>
</g>
<!-- Node18&#45;&gt;Node19 -->
<g id="edge23" class="edge">
<title>Node18&#45;&gt;Node19</title>
<path fill="none" stroke="midnightblue" d="M1134.95,-246.37C1165.15,-227.33 1215.05,-190.29 1235.5,-143 1240.97,-130.35 1241.8,-124.25 1235.5,-112 1228.42,-98.25 1214.98,-87.77 1202.32,-80.39"/>
<polygon fill="midnightblue" stroke="midnightblue" points="1203.81,-77.22 1193.35,-75.57 1200.5,-83.39 1203.81,-77.22"/>
</g>
<!-- Node20 -->
<g id="node20" class="node">
<title>Node20</title>
<g id="a_node20"><a xlink:href="write-barrier_8h.html" target="_top" xlink:title=" ">
<polygon fill="white" stroke="black" points="825,-179.5 825,-209.5 926,-209.5 926,-179.5 825,-179.5"/>
<text text-anchor="start" x="833" y="-197.5" font-family="Helvetica,sans-Serif" font-size="10.00">cppgc/internal/write</text>
<text text-anchor="middle" x="875.5" y="-186.5" font-family="Helvetica,sans-Serif" font-size="10.00">&#45;barrier.h</text>
</a>
</g>
</g>
<!-- Node18&#45;&gt;Node20 -->
<g id="edge25" class="edge">
<title>Node18&#45;&gt;Node20</title>
<path fill="none" stroke="midnightblue" d="M1059.8,-246.48C1023.51,-236.44 974.49,-222.88 936.12,-212.27"/>
<polygon fill="midnightblue" stroke="midnightblue" points="936.68,-208.79 926.11,-209.5 934.82,-215.54 936.68,-208.79"/>
</g>
<!-- Node18&#45;&gt;Node24 -->
<g id="edge43" class="edge">
<title>Node18&#45;&gt;Node24</title>
<path fill="none" stroke="midnightblue" d="M1116.6,-246.37C1127.05,-222.18 1148.34,-172.88 1159.79,-146.35"/>
<polygon fill="midnightblue" stroke="midnightblue" points="1163.04,-147.67 1163.79,-137.1 1156.61,-144.89 1163.04,-147.67"/>
</g>
<!-- Node18&#45;&gt;Node26 -->
<g id="edge47" class="edge">
<title>Node18&#45;&gt;Node26</title>
<path fill="none" stroke="midnightblue" d="M1152.52,-246.47C1172.68,-238.2 1196.16,-226.15 1213.5,-210 1249.67,-176.33 1261.79,-115.98 1265.71,-85.58"/>
<polygon fill="midnightblue" stroke="midnightblue" points="1269.2,-85.84 1266.85,-75.51 1262.25,-85.06 1269.2,-85.84"/>
</g>
<!-- Node27 -->
<g id="node27" class="node">
<title>Node27</title>
<g id="a_node27"><a xlink:href="source-location_8h.html" target="_top" xlink:title=" ">
<polygon fill="white" stroke="black" points="382,-118 382,-137 501,-137 501,-118 382,-118"/>
<text text-anchor="middle" x="441.5" y="-125" font-family="Helvetica,sans-Serif" font-size="10.00">cppgc/source&#45;location.h</text>
</a>
</g>
</g>
<!-- Node18&#45;&gt;Node27 -->
<g id="edge44" class="edge">
<title>Node18&#45;&gt;Node27</title>
<path fill="none" stroke="midnightblue" d="M1055.24,-258.32C970.71,-254.08 804.68,-242.09 667.5,-210 594.18,-192.85 511.88,-159.36 469.73,-141.1"/>
<polygon fill="midnightblue" stroke="midnightblue" points="470.96,-137.82 460.39,-137.02 468.15,-144.23 470.96,-137.82"/>
</g>
<!-- Node20&#45;&gt;Node6 -->
<g id="edge42" class="edge">
<title>Node20&#45;&gt;Node6</title>
<path fill="none" stroke="midnightblue" d="M859.55,-179.18C834.69,-156.99 788.61,-116.38 779.5,-112 717.36,-82.13 636.78,-72.08 589.06,-68.71"/>
<polygon fill="midnightblue" stroke="midnightblue" points="589.03,-65.2 578.82,-68.05 588.58,-72.18 589.03,-65.2"/>
</g>
<!-- Node21 -->
<g id="node21" class="node">
<title>Node21</title>
<g id="a_node21"><a xlink:href="heap-state_8h.html" target="_top" xlink:title=" ">
<polygon fill="white" stroke="black" points="672,-118 672,-137 771,-137 771,-118 672,-118"/>
<text text-anchor="middle" x="721.5" y="-125" font-family="Helvetica,sans-Serif" font-size="10.00">cppgc/heap&#45;state.h</text>
</a>
</g>
</g>
<!-- Node20&#45;&gt;Node21 -->
<g id="edge26" class="edge">
<title>Node20&#45;&gt;Node21</title>
<path fill="none" stroke="midnightblue" d="M842.08,-179.4C814.94,-167.94 777.03,-151.94 751,-140.95"/>
<polygon fill="midnightblue" stroke="midnightblue" points="752.23,-137.67 741.66,-137.01 749.51,-144.12 752.23,-137.67"/>
</g>
<!-- Node22 -->
<g id="node22" class="node">
<title>Node22</title>
<g id="a_node22"><a xlink:href="api-constants_8h.html" target="_top" xlink:title=" ">
<polygon fill="white" stroke="black" points="194,-112.5 194,-142.5 287,-142.5 287,-112.5 194,-112.5"/>
<text text-anchor="start" x="202" y="-130.5" font-family="Helvetica,sans-Serif" font-size="10.00">cppgc/internal/api</text>
<text text-anchor="middle" x="240.5" y="-119.5" font-family="Helvetica,sans-Serif" font-size="10.00">&#45;constants.h</text>
</a>
</g>
</g>
<!-- Node20&#45;&gt;Node22 -->
<g id="edge28" class="edge">
<title>Node20&#45;&gt;Node22</title>
<path fill="none" stroke="midnightblue" d="M824.79,-188.57C734.05,-179.7 537.9,-160.39 372.5,-143 347.83,-140.41 320.59,-137.43 297.29,-134.86"/>
<polygon fill="midnightblue" stroke="midnightblue" points="297.55,-131.36 287.22,-133.74 296.78,-138.32 297.55,-131.36"/>
</g>
<!-- Node23 -->
<g id="node23" class="node">
<title>Node23</title>
<g id="a_node23"><a xlink:href="atomic-entry-flag_8h.html" target="_top" xlink:title=" ">
<polygon fill="white" stroke="black" points="941.5,-112.5 941.5,-142.5 1051.5,-142.5 1051.5,-112.5 941.5,-112.5"/>
<text text-anchor="start" x="949.5" y="-130.5" font-family="Helvetica,sans-Serif" font-size="10.00">cppgc/internal/atomic</text>
<text text-anchor="middle" x="996.5" y="-119.5" font-family="Helvetica,sans-Serif" font-size="10.00">&#45;entry&#45;flag.h</text>
</a>
</g>
</g>
<!-- Node20&#45;&gt;Node23 -->
<g id="edge32" class="edge">
<title>Node20&#45;&gt;Node23</title>
<path fill="none" stroke="midnightblue" d="M901.76,-179.4C919.2,-170.03 942.3,-157.62 961.33,-147.39"/>
<polygon fill="midnightblue" stroke="midnightblue" points="963.14,-150.39 970.3,-142.58 959.83,-144.23 963.14,-150.39"/>
</g>
<!-- Node20&#45;&gt;Node24 -->
<g id="edge34" class="edge">
<title>Node20&#45;&gt;Node24</title>
<path fill="none" stroke="midnightblue" d="M926.03,-182.25C980.31,-170.17 1065.96,-151.1 1119.32,-139.23"/>
<polygon fill="midnightblue" stroke="midnightblue" points="1120.21,-142.61 1129.21,-137.02 1118.69,-135.78 1120.21,-142.61"/>
</g>
<!-- Node20&#45;&gt;Node25 -->
<g id="edge36" class="edge">
<title>Node20&#45;&gt;Node25</title>
<path fill="none" stroke="midnightblue" d="M875.5,-179.4C875.5,-170.06 875.5,-157.71 875.5,-147.52"/>
<polygon fill="midnightblue" stroke="midnightblue" points="879,-147.19 875.5,-137.19 872,-147.19 879,-147.19"/>
</g>
<!-- Node21&#45;&gt;Node6 -->
<g id="edge27" class="edge">
<title>Node21&#45;&gt;Node6</title>
<path fill="none" stroke="midnightblue" d="M696.71,-117.98C666.91,-107.72 616.71,-90.46 583.1,-78.9"/>
<polygon fill="midnightblue" stroke="midnightblue" points="583.84,-75.45 573.24,-75.51 581.56,-82.07 583.84,-75.45"/>
</g>
<!-- Node22&#45;&gt;Node6 -->
<g id="edge31" class="edge">
<title>Node22&#45;&gt;Node6</title>
<path fill="none" stroke="midnightblue" d="M287.07,-115.16C291.93,-114.06 296.81,-112.98 301.5,-112 374.18,-96.75 459.53,-81.87 508.49,-73.62"/>
<polygon fill="midnightblue" stroke="midnightblue" points="509.08,-77.07 518.36,-71.96 507.92,-70.16 509.08,-77.07"/>
</g>
<!-- Node22&#45;&gt;Node8 -->
<g id="edge29" class="edge">
<title>Node22&#45;&gt;Node8</title>
<path fill="none" stroke="midnightblue" d="M206.85,-112.4C183.02,-102.42 151.35,-89.15 128.41,-79.53"/>
<polygon fill="midnightblue" stroke="midnightblue" points="129.74,-76.29 119.16,-75.66 127.03,-82.75 129.74,-76.29"/>
</g>
<!-- Node22&#45;&gt;Node11 -->
<g id="edge30" class="edge">
<title>Node22&#45;&gt;Node11</title>
<path fill="none" stroke="midnightblue" d="M239.08,-112.4C238.28,-104.47 237.27,-94.46 236.4,-85.86"/>
<polygon fill="midnightblue" stroke="midnightblue" points="239.86,-85.26 235.37,-75.66 232.89,-85.96 239.86,-85.26"/>
</g>
<!-- Node23&#45;&gt;Node15 -->
<g id="edge33" class="edge">
<title>Node23&#45;&gt;Node15</title>
<path fill="none" stroke="midnightblue" d="M1051.83,-118.36C1131.74,-106.54 1274.46,-85.23 1323.13,-75.95"/>
<polygon fill="midnightblue" stroke="midnightblue" points="1324.06,-79.34 1333.16,-73.92 1322.67,-72.48 1324.06,-79.34"/>
</g>
<!-- Node24&#45;&gt;Node19 -->
<g id="edge35" class="edge">
<title>Node24&#45;&gt;Node19</title>
<path fill="none" stroke="midnightblue" d="M1168.22,-117.98C1168.92,-109.58 1170.02,-96.48 1170.93,-85.66"/>
<polygon fill="midnightblue" stroke="midnightblue" points="1174.44,-85.77 1171.78,-75.51 1167.46,-85.18 1174.44,-85.77"/>
</g>
<!-- Node25&#45;&gt;Node6 -->
<g id="edge41" class="edge">
<title>Node25&#45;&gt;Node6</title>
<path fill="none" stroke="midnightblue" d="M840.82,-117.99C831.94,-115.92 822.39,-113.79 813.5,-112 734.33,-96.04 641.08,-81.09 588.98,-73.08"/>
<polygon fill="midnightblue" stroke="midnightblue" points="589.23,-69.58 578.82,-71.53 588.17,-76.5 589.23,-69.58"/>
</g>
<!-- Node25&#45;&gt;Node17 -->
<g id="edge37" class="edge">
<title>Node25&#45;&gt;Node17</title>
<path fill="none" stroke="midnightblue" d="M897.64,-117.99C932.98,-104.48 1004.41,-77.43 1065.5,-56 1099.15,-44.19 1137.77,-31.5 1165.24,-22.61"/>
<polygon fill="midnightblue" stroke="midnightblue" points="1166.38,-25.92 1174.82,-19.52 1164.23,-19.26 1166.38,-25.92"/>
</g>
<!-- Node25&#45;&gt;Node26 -->
<g id="edge38" class="edge">
<title>Node25&#45;&gt;Node26</title>
<path fill="none" stroke="midnightblue" d="M906.41,-117.93C914.83,-115.79 923.98,-113.64 932.5,-112 1052.24,-88.93 1083.7,-92.62 1204.5,-76 1206,-75.79 1207.53,-75.58 1209.07,-75.37"/>
<polygon fill="midnightblue" stroke="midnightblue" points="1209.93,-78.78 1219.35,-73.93 1208.96,-71.85 1209.93,-78.78"/>
</g>
<!-- Node26&#45;&gt;Node16 -->
<g id="edge39" class="edge">
<title>Node26&#45;&gt;Node16</title>
<path fill="none" stroke="midnightblue" d="M1277.94,-56.32C1287.65,-48.26 1302.32,-36.08 1314,-26.37"/>
<polygon fill="midnightblue" stroke="midnightblue" points="1316.41,-28.92 1321.87,-19.83 1311.94,-23.53 1316.41,-28.92"/>
</g>
<!-- Node26&#45;&gt;Node17 -->
<g id="edge40" class="edge">
<title>Node26&#45;&gt;Node17</title>
<path fill="none" stroke="midnightblue" d="M1256.9,-56.32C1247.04,-48.26 1232.15,-36.08 1220.28,-26.37"/>
<polygon fill="midnightblue" stroke="midnightblue" points="1222.25,-23.46 1212.3,-19.83 1217.82,-28.88 1222.25,-23.46"/>
</g>
<!-- Node27&#45;&gt;Node6 -->
<g id="edge46" class="edge">
<title>Node27&#45;&gt;Node6</title>
<path fill="none" stroke="midnightblue" d="M456.83,-117.98C474.47,-108.17 503.66,-91.93 524.36,-80.42"/>
<polygon fill="midnightblue" stroke="midnightblue" points="526.16,-83.43 533.2,-75.51 522.76,-77.31 526.16,-83.43"/>
</g>
<!-- Node27&#45;&gt;Node13 -->
<g id="edge45" class="edge">
<title>Node27&#45;&gt;Node13</title>
<path fill="none" stroke="midnightblue" d="M431.18,-117.98C419.85,-108.61 401.43,-93.38 387.66,-82.01"/>
<polygon fill="midnightblue" stroke="midnightblue" points="389.73,-79.18 379.8,-75.51 385.28,-84.58 389.73,-79.18"/>
</g>
</g>
</svg>
