<?xml version="1.0" encoding="UTF-8" standalone="no"?>
<!DOCTYPE svg PUBLIC "-//W3C//DTD SVG 1.1//EN"
 "http://www.w3.org/Graphics/SVG/1.1/DTD/svg11.dtd">
<!-- Generated by graphviz version 2.49.3 (20211027.1534)
 -->
<!-- Title: include/cppgc/platform.h Pages: 1 -->
<svg width="540pt" height="408pt"
 viewBox="0.00 0.00 540.00 408.00" xmlns="http://www.w3.org/2000/svg" xmlns:xlink="http://www.w3.org/1999/xlink">
<g id="graph0" class="graph" transform="scale(1 1) rotate(0) translate(4 404)">
<title>include/cppgc/platform.h</title>
<polygon fill="white" stroke="transparent" points="-4,4 -4,-404 536,-404 536,4 -4,4"/>
<!-- Node1 -->
<g id="node1" class="node">
<title>Node1</title>
<g id="a_node1"><a xlink:title=" ">
<polygon fill="#bfbfbf" stroke="black" points="215.5,-380.5 215.5,-399.5 337.5,-399.5 337.5,-380.5 215.5,-380.5"/>
<text text-anchor="middle" x="276.5" y="-387.5" font-family="Helvetica,sans-Serif" font-size="10.00">include/cppgc/platform.h</text>
</a>
</g>
</g>
<!-- Node2 -->
<g id="node2" class="node">
<title>Node2</title>
<g id="a_node2"><a xlink:href="default-platform_8h.html" target="_top" xlink:title=" ">
<polygon fill="white" stroke="black" points="0,-313.5 0,-343.5 109,-343.5 109,-313.5 0,-313.5"/>
<text text-anchor="start" x="8" y="-331.5" font-family="Helvetica,sans-Serif" font-size="10.00">include/cppgc/default</text>
<text text-anchor="middle" x="54.5" y="-320.5" font-family="Helvetica,sans-Serif" font-size="10.00">&#45;platform.h</text>
</a>
</g>
</g>
<!-- Node1&#45;&gt;Node2 -->
<g id="edge1" class="edge">
<title>Node1&#45;&gt;Node2</title>
<path fill="none" stroke="midnightblue" d="M234.93,-377.86C198.69,-368.14 145.93,-354.01 106.82,-343.52"/>
<polygon fill="midnightblue" stroke="midnightblue" points="234.13,-381.27 244.69,-380.48 235.94,-374.51 234.13,-381.27"/>
</g>
<!-- Node3 -->
<g id="node3" class="node">
<title>Node3</title>
<g id="a_node3"><a xlink:href="garbage-collected_8h.html" target="_top" xlink:title=" ">
<polygon fill="white" stroke="black" points="127.5,-313.5 127.5,-343.5 241.5,-343.5 241.5,-313.5 127.5,-313.5"/>
<text text-anchor="start" x="135.5" y="-331.5" font-family="Helvetica,sans-Serif" font-size="10.00">include/cppgc/garbage</text>
<text text-anchor="middle" x="184.5" y="-320.5" font-family="Helvetica,sans-Serif" font-size="10.00">&#45;collected.h</text>
</a>
</g>
</g>
<!-- Node1&#45;&gt;Node3 -->
<g id="edge2" class="edge">
<title>Node1&#45;&gt;Node3</title>
<path fill="none" stroke="midnightblue" d="M254.87,-375.01C240.19,-365.52 220.87,-353.02 206.18,-343.52"/>
<polygon fill="midnightblue" stroke="midnightblue" points="253.02,-377.98 263.32,-380.48 256.82,-372.11 253.02,-377.98"/>
</g>
<!-- Node10 -->
<g id="node10" class="node">
<title>Node10</title>
<g id="a_node10"><a xlink:href="heap_8h.html" target="_top" xlink:title=" ">
<polygon fill="white" stroke="black" points="273.5,-319 273.5,-338 381.5,-338 381.5,-319 273.5,-319"/>
<text text-anchor="middle" x="327.5" y="-326" font-family="Helvetica,sans-Serif" font-size="10.00">include/cppgc/heap.h</text>
</a>
</g>
</g>
<!-- Node1&#45;&gt;Node10 -->
<g id="edge10" class="edge">
<title>Node1&#45;&gt;Node10</title>
<path fill="none" stroke="midnightblue" d="M290.5,-372.67C300.11,-361.45 312.49,-347.02 320.21,-338.01"/>
<polygon fill="midnightblue" stroke="midnightblue" points="287.66,-370.6 283.81,-380.48 292.97,-375.16 287.66,-370.6"/>
</g>
<!-- Node15 -->
<g id="node15" class="node">
<title>Node15</title>
<g id="a_node15"><a xlink:href="caged-heap-local-data_8h.html" target="_top" xlink:title=" ">
<polygon fill="white" stroke="black" points="399.5,-313.5 399.5,-343.5 521.5,-343.5 521.5,-313.5 399.5,-313.5"/>
<text text-anchor="start" x="407.5" y="-331.5" font-family="Helvetica,sans-Serif" font-size="10.00">include/cppgc/internal</text>
<text text-anchor="middle" x="460.5" y="-320.5" font-family="Helvetica,sans-Serif" font-size="10.00">/caged&#45;heap&#45;local&#45;data.h</text>
</a>
</g>
</g>
<!-- Node1&#45;&gt;Node15 -->
<g id="edge19" class="edge">
<title>Node1&#45;&gt;Node15</title>
<path fill="none" stroke="midnightblue" d="M312.51,-377.36C342.49,-367.66 385.27,-353.83 417.13,-343.52"/>
<polygon fill="midnightblue" stroke="midnightblue" points="311.3,-374.07 302.86,-380.48 313.45,-380.73 311.3,-374.07"/>
</g>
<!-- Node4 -->
<g id="node4" class="node">
<title>Node4</title>
<g id="a_node4"><a xlink:href="allocation_8h.html" target="_top" xlink:title=" ">
<polygon fill="white" stroke="black" points="14.5,-252 14.5,-271 142.5,-271 142.5,-252 14.5,-252"/>
<text text-anchor="middle" x="78.5" y="-259" font-family="Helvetica,sans-Serif" font-size="10.00">include/cppgc/allocation.h</text>
</a>
</g>
</g>
<!-- Node3&#45;&gt;Node4 -->
<g id="edge3" class="edge">
<title>Node3&#45;&gt;Node4</title>
<path fill="none" stroke="midnightblue" d="M152.93,-308.14C132.78,-295.79 107.67,-280.39 92.37,-271.01"/>
<polygon fill="midnightblue" stroke="midnightblue" points="151.15,-311.15 161.5,-313.4 154.8,-305.18 151.15,-311.15"/>
</g>
<!-- Node6 -->
<g id="node6" class="node">
<title>Node6</title>
<g id="a_node6"><a xlink:href="visitor_8h.html" target="_top" xlink:title=" ">
<polygon fill="white" stroke="black" points="206,-123.5 206,-142.5 319,-142.5 319,-123.5 206,-123.5"/>
<text text-anchor="middle" x="262.5" y="-130.5" font-family="Helvetica,sans-Serif" font-size="10.00">include/cppgc/visitor.h</text>
</a>
</g>
</g>
<!-- Node3&#45;&gt;Node6 -->
<g id="edge5" class="edge">
<title>Node3&#45;&gt;Node6</title>
<path fill="none" stroke="midnightblue" d="M178.73,-303.25C172.72,-272.18 167.02,-217.71 189.5,-179 199.82,-161.23 220.22,-149.54 236.84,-142.54"/>
<polygon fill="midnightblue" stroke="midnightblue" points="175.34,-304.14 180.82,-313.2 182.19,-302.7 175.34,-304.14"/>
</g>
<!-- Node5 -->
<g id="node5" class="node">
<title>Node5</title>
<g id="a_node5"><a xlink:href="explicit-management_8h.html" target="_top" xlink:title=" ">
<polygon fill="white" stroke="black" points="23.5,-179.5 23.5,-209.5 133.5,-209.5 133.5,-179.5 23.5,-179.5"/>
<text text-anchor="start" x="31.5" y="-197.5" font-family="Helvetica,sans-Serif" font-size="10.00">include/cppgc/explicit</text>
<text text-anchor="middle" x="78.5" y="-186.5" font-family="Helvetica,sans-Serif" font-size="10.00">&#45;management.h</text>
</a>
</g>
</g>
<!-- Node4&#45;&gt;Node5 -->
<g id="edge4" class="edge">
<title>Node4&#45;&gt;Node5</title>
<path fill="none" stroke="midnightblue" d="M78.5,-241.41C78.5,-231.22 78.5,-218.9 78.5,-209.59"/>
<polygon fill="midnightblue" stroke="midnightblue" points="75,-241.73 78.5,-251.73 82,-241.73 75,-241.73"/>
</g>
<!-- Node7 -->
<g id="node7" class="node">
<title>Node7</title>
<g id="a_node7"><a xlink:href="cross-thread-persistent_8h.html" target="_top" xlink:title=" ">
<polygon fill="white" stroke="black" points="163.5,-0.5 163.5,-30.5 267.5,-30.5 267.5,-0.5 163.5,-0.5"/>
<text text-anchor="start" x="171.5" y="-18.5" font-family="Helvetica,sans-Serif" font-size="10.00">include/cppgc/cross</text>
<text text-anchor="middle" x="215.5" y="-7.5" font-family="Helvetica,sans-Serif" font-size="10.00">&#45;thread&#45;persistent.h</text>
</a>
</g>
</g>
<!-- Node6&#45;&gt;Node7 -->
<g id="edge6" class="edge">
<title>Node6&#45;&gt;Node7</title>
<path fill="none" stroke="midnightblue" d="M258.28,-113.59C254.97,-100.37 249.87,-82.26 243.5,-67 238.17,-54.23 230.45,-40.56 224.47,-30.66"/>
<polygon fill="midnightblue" stroke="midnightblue" points="254.89,-114.47 260.63,-123.38 261.7,-112.84 254.89,-114.47"/>
</g>
<!-- Node8 -->
<g id="node8" class="node">
<title>Node8</title>
<g id="a_node8"><a xlink:href="persistent_8h.html" target="_top" xlink:title=" ">
<polygon fill="white" stroke="black" points="104.5,-67.5 104.5,-86.5 234.5,-86.5 234.5,-67.5 104.5,-67.5"/>
<text text-anchor="middle" x="169.5" y="-74.5" font-family="Helvetica,sans-Serif" font-size="10.00">include/cppgc/persistent.h</text>
</a>
</g>
</g>
<!-- Node6&#45;&gt;Node8 -->
<g id="edge7" class="edge">
<title>Node6&#45;&gt;Node8</title>
<path fill="none" stroke="midnightblue" d="M238.69,-118.18C221.58,-108.24 199.03,-95.15 184.4,-86.65"/>
<polygon fill="midnightblue" stroke="midnightblue" points="237.15,-121.33 247.56,-123.32 240.67,-115.28 237.15,-121.33"/>
</g>
<!-- Node9 -->
<g id="node9" class="node">
<title>Node9</title>
<g id="a_node9"><a xlink:href="v8-cppgc_8h.html" target="_top" xlink:title=" ">
<polygon fill="white" stroke="black" points="290.5,-67.5 290.5,-86.5 388.5,-86.5 388.5,-67.5 290.5,-67.5"/>
<text text-anchor="middle" x="339.5" y="-74.5" font-family="Helvetica,sans-Serif" font-size="10.00">include/v8&#45;cppgc.h</text>
</a>
</g>
</g>
<!-- Node6&#45;&gt;Node9 -->
<g id="edge9" class="edge">
<title>Node6&#45;&gt;Node9</title>
<path fill="none" stroke="midnightblue" d="M283.4,-117.34C297.41,-107.52 315.38,-94.91 327.16,-86.65"/>
<polygon fill="midnightblue" stroke="midnightblue" points="281.05,-114.72 274.87,-123.32 285.07,-120.45 281.05,-114.72"/>
</g>
<!-- Node8&#45;&gt;Node7 -->
<g id="edge8" class="edge">
<title>Node8&#45;&gt;Node7</title>
<path fill="none" stroke="midnightblue" d="M182.23,-59.53C189.28,-50.42 197.94,-39.21 204.66,-30.52"/>
<polygon fill="midnightblue" stroke="midnightblue" points="179.44,-57.42 176.09,-67.48 184.98,-61.7 179.44,-57.42"/>
</g>
<!-- Node11 -->
<g id="node11" class="node">
<title>Node11</title>
<g id="a_node11"><a xlink:href="prefinalizer-handler_8h.html" target="_top" xlink:title=" ">
<polygon fill="white" stroke="black" points="421,-179.5 421,-209.5 532,-209.5 532,-179.5 421,-179.5"/>
<text text-anchor="start" x="429" y="-197.5" font-family="Helvetica,sans-Serif" font-size="10.00">include/cppgc/internal</text>
<text text-anchor="middle" x="476.5" y="-186.5" font-family="Helvetica,sans-Serif" font-size="10.00">/prefinalizer&#45;handler.h</text>
</a>
</g>
</g>
<!-- Node10&#45;&gt;Node11 -->
<g id="edge11" class="edge">
<title>Node10&#45;&gt;Node11</title>
<path fill="none" stroke="midnightblue" d="M359.64,-314.93C379.03,-306.26 403.4,-293.37 421.5,-277 443.28,-257.31 460.62,-227.29 469.66,-209.71"/>
<polygon fill="midnightblue" stroke="midnightblue" points="358.1,-311.78 350.3,-318.95 360.87,-318.21 358.1,-311.78"/>
</g>
<!-- Node13 -->
<g id="node13" class="node">
<title>Node13</title>
<g id="a_node13"><a xlink:href="liveness-broker_8h.html" target="_top" xlink:title=" ">
<polygon fill="white" stroke="black" points="296.5,-246.5 296.5,-276.5 412.5,-276.5 412.5,-246.5 296.5,-246.5"/>
<text text-anchor="start" x="304.5" y="-264.5" font-family="Helvetica,sans-Serif" font-size="10.00">include/cppgc/liveness</text>
<text text-anchor="middle" x="354.5" y="-253.5" font-family="Helvetica,sans-Serif" font-size="10.00">&#45;broker.h</text>
</a>
</g>
</g>
<!-- Node10&#45;&gt;Node13 -->
<g id="edge13" class="edge">
<title>Node10&#45;&gt;Node13</title>
<path fill="none" stroke="midnightblue" d="M335.02,-309.39C339.33,-299.02 344.65,-286.2 348.65,-276.59"/>
<polygon fill="midnightblue" stroke="midnightblue" points="331.75,-308.16 331.14,-318.73 338.21,-310.84 331.75,-308.16"/>
</g>
<!-- Node12 -->
<g id="node12" class="node">
<title>Node12</title>
<g id="a_node12"><a xlink:href="prefinalizer_8h.html" target="_top" xlink:title=" ">
<polygon fill="white" stroke="black" points="373,-123.5 373,-142.5 506,-142.5 506,-123.5 373,-123.5"/>
<text text-anchor="middle" x="439.5" y="-130.5" font-family="Helvetica,sans-Serif" font-size="10.00">include/cppgc/prefinalizer.h</text>
</a>
</g>
</g>
<!-- Node11&#45;&gt;Node12 -->
<g id="edge12" class="edge">
<title>Node11&#45;&gt;Node12</title>
<path fill="none" stroke="midnightblue" d="M462.39,-170.8C456.27,-160.96 449.47,-150.03 444.88,-142.66"/>
<polygon fill="midnightblue" stroke="midnightblue" points="459.48,-172.76 467.73,-179.4 465.42,-169.06 459.48,-172.76"/>
</g>
<!-- Node13&#45;&gt;Node6 -->
<g id="edge18" class="edge">
<title>Node13&#45;&gt;Node6</title>
<path fill="none" stroke="midnightblue" d="M353.69,-236.04C352.02,-218.69 347.47,-195.64 335.5,-179 323.15,-161.84 302.04,-149.87 285.69,-142.61"/>
<polygon fill="midnightblue" stroke="midnightblue" points="350.23,-236.75 354.42,-246.49 357.21,-236.27 350.23,-236.75"/>
</g>
<!-- Node13&#45;&gt;Node11 -->
<g id="edge16" class="edge">
<title>Node13&#45;&gt;Node11</title>
<path fill="none" stroke="midnightblue" d="M390.02,-241.57C409.21,-231.35 432.5,-218.94 450.08,-209.58"/>
<polygon fill="midnightblue" stroke="midnightblue" points="388.15,-238.6 380.97,-246.4 391.44,-244.78 388.15,-238.6"/>
</g>
<!-- Node13&#45;&gt;Node12 -->
<g id="edge17" class="edge">
<title>Node13&#45;&gt;Node12</title>
<path fill="none" stroke="midnightblue" d="M369.62,-238C388.67,-209.65 420.5,-162.28 433.59,-142.79"/>
<polygon fill="midnightblue" stroke="midnightblue" points="366.59,-236.23 363.92,-246.48 372.4,-240.13 366.59,-236.23"/>
</g>
<!-- Node14 -->
<g id="node14" class="node">
<title>Node14</title>
<g id="a_node14"><a xlink:href="ephemeron-pair_8h.html" target="_top" xlink:title=" ">
<polygon fill="white" stroke="black" points="198.5,-179.5 198.5,-209.5 326.5,-209.5 326.5,-179.5 198.5,-179.5"/>
<text text-anchor="start" x="206.5" y="-197.5" font-family="Helvetica,sans-Serif" font-size="10.00">include/cppgc/ephemeron</text>
<text text-anchor="middle" x="262.5" y="-186.5" font-family="Helvetica,sans-Serif" font-size="10.00">&#45;pair.h</text>
</a>
</g>
</g>
<!-- Node13&#45;&gt;Node14 -->
<g id="edge14" class="edge">
<title>Node13&#45;&gt;Node14</title>
<path fill="none" stroke="midnightblue" d="M326.12,-240.45C311.97,-230.45 295.19,-218.6 282.42,-209.58"/>
<polygon fill="midnightblue" stroke="midnightblue" points="324.35,-243.48 334.54,-246.4 328.39,-237.77 324.35,-243.48"/>
</g>
<!-- Node14&#45;&gt;Node6 -->
<g id="edge15" class="edge">
<title>Node14&#45;&gt;Node6</title>
<path fill="none" stroke="midnightblue" d="M262.5,-169.29C262.5,-159.86 262.5,-149.65 262.5,-142.66"/>
<polygon fill="midnightblue" stroke="midnightblue" points="259,-169.4 262.5,-179.4 266,-169.4 259,-169.4"/>
</g>
</g>
</svg>
