<?xml version="1.0" encoding="UTF-8" standalone="no"?>
<!DOCTYPE svg PUBLIC "-//W3C//DTD SVG 1.1//EN"
 "http://www.w3.org/Graphics/SVG/1.1/DTD/svg11.dtd">
<!-- Generated by graphviz version 2.49.3 (20211027.1534)
 -->
<!-- Title: include/cppgc/prefinalizer.h Pages: 1 -->
<svg width="1463pt" height="520pt"
 viewBox="0.00 0.00 1462.50 520.00" xmlns="http://www.w3.org/2000/svg" xmlns:xlink="http://www.w3.org/1999/xlink">
<g id="graph0" class="graph" transform="scale(1 1) rotate(0) translate(4 516)">
<title>include/cppgc/prefinalizer.h</title>
<polygon fill="white" stroke="transparent" points="-4,4 -4,-516 1458.5,-516 1458.5,4 -4,4"/>
<!-- Node1 -->
<g id="node1" class="node">
<title>Node1</title>
<g id="a_node1"><a xlink:title=" ">
<polygon fill="#bfbfbf" stroke="black" points="832.5,-492.5 832.5,-511.5 965.5,-511.5 965.5,-492.5 832.5,-492.5"/>
<text text-anchor="middle" x="899" y="-499.5" font-family="Helvetica,sans-Serif" font-size="10.00">include/cppgc/prefinalizer.h</text>
</a>
</g>
</g>
<!-- Node2 -->
<g id="node2" class="node">
<title>Node2</title>
<g id="a_node2"><a xlink:href="compiler-specific_8h.html" target="_top" xlink:title=" ">
<polygon fill="white" stroke="black" points="753.5,-425.5 753.5,-455.5 870.5,-455.5 870.5,-425.5 753.5,-425.5"/>
<text text-anchor="start" x="761.5" y="-443.5" font-family="Helvetica,sans-Serif" font-size="10.00">cppgc/internal/compiler</text>
<text text-anchor="middle" x="812" y="-432.5" font-family="Helvetica,sans-Serif" font-size="10.00">&#45;specific.h</text>
</a>
</g>
</g>
<!-- Node1&#45;&gt;Node2 -->
<g id="edge1" class="edge">
<title>Node1&#45;&gt;Node2</title>
<path fill="none" stroke="midnightblue" d="M886.54,-492.48C874.64,-484.34 856.29,-471.79 840.77,-461.18"/>
<polygon fill="midnightblue" stroke="midnightblue" points="842.73,-458.28 832.5,-455.52 838.78,-464.06 842.73,-458.28"/>
</g>
<!-- Node3 -->
<g id="node3" class="node">
<title>Node3</title>
<g id="a_node3"><a xlink:href="prefinalizer-handler_8h.html" target="_top" xlink:title=" ">
<polygon fill="white" stroke="black" points="927,-425.5 927,-455.5 1053,-455.5 1053,-425.5 927,-425.5"/>
<text text-anchor="start" x="935" y="-443.5" font-family="Helvetica,sans-Serif" font-size="10.00">cppgc/internal/prefinalizer</text>
<text text-anchor="middle" x="990" y="-432.5" font-family="Helvetica,sans-Serif" font-size="10.00">&#45;handler.h</text>
</a>
</g>
</g>
<!-- Node1&#45;&gt;Node3 -->
<g id="edge2" class="edge">
<title>Node1&#45;&gt;Node3</title>
<path fill="none" stroke="midnightblue" d="M912.04,-492.48C924.48,-484.34 943.67,-471.79 959.9,-461.18"/>
<polygon fill="midnightblue" stroke="midnightblue" points="962.1,-463.92 968.55,-455.52 958.27,-458.07 962.1,-463.92"/>
</g>
<!-- Node16 -->
<g id="node16" class="node">
<title>Node16</title>
<g id="a_node16"><a xlink:href="liveness-broker_8h.html" target="_top" xlink:title=" ">
<polygon fill="white" stroke="black" points="839.5,-369.5 839.5,-388.5 958.5,-388.5 958.5,-369.5 839.5,-369.5"/>
<text text-anchor="middle" x="899" y="-376.5" font-family="Helvetica,sans-Serif" font-size="10.00">cppgc/liveness&#45;broker.h</text>
</a>
</g>
</g>
<!-- Node1&#45;&gt;Node16 -->
<g id="edge58" class="edge">
<title>Node1&#45;&gt;Node16</title>
<path fill="none" stroke="midnightblue" d="M899,-492.3C899,-472.85 899,-425.49 899,-398.9"/>
<polygon fill="midnightblue" stroke="midnightblue" points="902.5,-398.62 899,-388.62 895.5,-398.62 902.5,-398.62"/>
</g>
<!-- Node4 -->
<g id="node4" class="node">
<title>Node4</title>
<g id="a_node4"><a xlink:href="heap_8h.html" target="_top" xlink:title=" ">
<polygon fill="white" stroke="black" points="1069,-252 1069,-271 1143,-271 1143,-252 1069,-252"/>
<text text-anchor="middle" x="1106" y="-259" font-family="Helvetica,sans-Serif" font-size="10.00">cppgc/heap.h</text>
</a>
</g>
</g>
<!-- Node3&#45;&gt;Node4 -->
<g id="edge3" class="edge">
<title>Node3&#45;&gt;Node4</title>
<path fill="none" stroke="midnightblue" d="M999.3,-425.31C1020.33,-393.22 1071.52,-315.11 1094.5,-280.05"/>
<polygon fill="midnightblue" stroke="midnightblue" points="1097.63,-281.66 1100.18,-271.37 1091.78,-277.82 1097.63,-281.66"/>
</g>
<!-- Node3&#45;&gt;Node16 -->
<g id="edge20" class="edge">
<title>Node3&#45;&gt;Node16</title>
<path fill="none" stroke="midnightblue" d="M968.43,-425.4C954.12,-416.04 935.39,-403.79 920.99,-394.38"/>
<polygon fill="midnightblue" stroke="midnightblue" points="922.53,-391.2 912.24,-388.66 918.7,-397.06 922.53,-391.2"/>
</g>
<!-- Node5 -->
<g id="node5" class="node">
<title>Node5</title>
<g id="a_node5"><a xlink:title=" ">
<polygon fill="white" stroke="#bfbfbf" points="1403.5,-56.5 1403.5,-75.5 1454.5,-75.5 1454.5,-56.5 1403.5,-56.5"/>
<text text-anchor="middle" x="1429" y="-63.5" font-family="Helvetica,sans-Serif" font-size="10.00">memory</text>
</a>
</g>
</g>
<!-- Node4&#45;&gt;Node5 -->
<g id="edge4" class="edge">
<title>Node4&#45;&gt;Node5</title>
<path fill="none" stroke="midnightblue" d="M1143.1,-259.66C1215.92,-257.19 1373.67,-247.53 1410,-210 1442.44,-176.49 1437.74,-116.07 1432.77,-85.62"/>
<polygon fill="midnightblue" stroke="midnightblue" points="1436.16,-84.74 1430.92,-75.53 1429.28,-86 1436.16,-84.74"/>
</g>
<!-- Node6 -->
<g id="node6" class="node">
<title>Node6</title>
<g id="a_node6"><a xlink:title=" ">
<polygon fill="white" stroke="#bfbfbf" points="1222,-185 1222,-204 1266,-204 1266,-185 1222,-185"/>
<text text-anchor="middle" x="1244" y="-192" font-family="Helvetica,sans-Serif" font-size="10.00">vector</text>
</a>
</g>
</g>
<!-- Node4&#45;&gt;Node6 -->
<g id="edge5" class="edge">
<title>Node4&#45;&gt;Node6</title>
<path fill="none" stroke="midnightblue" d="M1124.38,-251.99C1145.9,-242.01 1182.6,-224.93 1214,-210 1214.99,-209.53 1216,-209.05 1217.02,-208.56"/>
<polygon fill="midnightblue" stroke="midnightblue" points="1218.75,-211.61 1226.25,-204.13 1215.72,-205.3 1218.75,-211.61"/>
</g>
<!-- Node7 -->
<g id="node7" class="node">
<title>Node7</title>
<g id="a_node7"><a xlink:href="common_8h.html" target="_top" xlink:title=" ">
<polygon fill="white" stroke="black" points="1006.5,-185 1006.5,-204 1097.5,-204 1097.5,-185 1006.5,-185"/>
<text text-anchor="middle" x="1052" y="-192" font-family="Helvetica,sans-Serif" font-size="10.00">cppgc/common.h</text>
</a>
</g>
</g>
<!-- Node4&#45;&gt;Node7 -->
<g id="edge6" class="edge">
<title>Node4&#45;&gt;Node7</title>
<path fill="none" stroke="midnightblue" d="M1098.72,-251.73C1090.3,-241.6 1076.25,-224.69 1065.75,-212.06"/>
<polygon fill="midnightblue" stroke="midnightblue" points="1068.25,-209.58 1059.17,-204.13 1062.87,-214.06 1068.25,-209.58"/>
</g>
<!-- Node8 -->
<g id="node8" class="node">
<title>Node8</title>
<g id="a_node8"><a xlink:href="v8config_8h.html" target="_top" xlink:title=" ">
<polygon fill="white" stroke="black" points="888,-56.5 888,-75.5 948,-75.5 948,-56.5 888,-56.5"/>
<text text-anchor="middle" x="918" y="-63.5" font-family="Helvetica,sans-Serif" font-size="10.00">v8config.h</text>
</a>
</g>
</g>
<!-- Node4&#45;&gt;Node8 -->
<g id="edge19" class="edge">
<title>Node4&#45;&gt;Node8</title>
<path fill="none" stroke="midnightblue" d="M1076,-251.92C1052.43,-244.02 1019.89,-230.39 997,-210 957.58,-174.88 933.72,-115.23 923.63,-85.29"/>
<polygon fill="midnightblue" stroke="midnightblue" points="926.94,-84.14 920.53,-75.7 920.28,-86.29 926.94,-84.14"/>
</g>
<!-- Node9 -->
<g id="node9" class="node">
<title>Node9</title>
<g id="a_node9"><a xlink:href="custom-space_8h.html" target="_top" xlink:title=" ">
<polygon fill="white" stroke="black" points="1285.5,-185 1285.5,-204 1400.5,-204 1400.5,-185 1285.5,-185"/>
<text text-anchor="middle" x="1343" y="-192" font-family="Helvetica,sans-Serif" font-size="10.00">cppgc/custom&#45;space.h</text>
</a>
</g>
</g>
<!-- Node4&#45;&gt;Node9 -->
<g id="edge8" class="edge">
<title>Node4&#45;&gt;Node9</title>
<path fill="none" stroke="midnightblue" d="M1137.47,-251.87C1179.82,-240.25 1255.22,-219.58 1301.97,-206.75"/>
<polygon fill="midnightblue" stroke="midnightblue" points="1303.06,-210.08 1311.78,-204.06 1301.21,-203.33 1303.06,-210.08"/>
</g>
<!-- Node11 -->
<g id="node11" class="node">
<title>Node11</title>
<g id="a_node11"><a xlink:href="platform_8h.html" target="_top" xlink:title=" ">
<polygon fill="white" stroke="black" points="1115.5,-185 1115.5,-204 1204.5,-204 1204.5,-185 1115.5,-185"/>
<text text-anchor="middle" x="1160" y="-192" font-family="Helvetica,sans-Serif" font-size="10.00">cppgc/platform.h</text>
</a>
</g>
</g>
<!-- Node4&#45;&gt;Node11 -->
<g id="edge10" class="edge">
<title>Node4&#45;&gt;Node11</title>
<path fill="none" stroke="midnightblue" d="M1113.28,-251.73C1121.7,-241.6 1135.75,-224.69 1146.25,-212.06"/>
<polygon fill="midnightblue" stroke="midnightblue" points="1149.13,-214.06 1152.83,-204.13 1143.75,-209.58 1149.13,-214.06"/>
</g>
<!-- Node7&#45;&gt;Node8 -->
<g id="edge7" class="edge">
<title>Node7&#45;&gt;Node8</title>
<path fill="none" stroke="midnightblue" d="M1062.45,-184.78C1079.92,-169.16 1111.44,-135.78 1093,-112 1076.65,-90.91 1004.74,-77.98 958.34,-71.67"/>
<polygon fill="midnightblue" stroke="midnightblue" points="958.65,-68.19 948.28,-70.36 957.74,-75.13 958.65,-68.19"/>
</g>
<!-- Node10 -->
<g id="node10" class="node">
<title>Node10</title>
<g id="a_node10"><a xlink:title=" ">
<polygon fill="white" stroke="#bfbfbf" points="1334.5,-56.5 1334.5,-75.5 1385.5,-75.5 1385.5,-56.5 1334.5,-56.5"/>
<text text-anchor="middle" x="1360" y="-63.5" font-family="Helvetica,sans-Serif" font-size="10.00">stddef.h</text>
</a>
</g>
</g>
<!-- Node9&#45;&gt;Node10 -->
<g id="edge9" class="edge">
<title>Node9&#45;&gt;Node10</title>
<path fill="none" stroke="midnightblue" d="M1350.12,-184.87C1357.5,-175.32 1368.57,-159.13 1373,-143 1378.36,-123.49 1372.86,-100.53 1367.45,-84.99"/>
<polygon fill="midnightblue" stroke="midnightblue" points="1370.69,-83.66 1363.86,-75.55 1364.15,-86.15 1370.69,-83.66"/>
</g>
<!-- Node11&#45;&gt;Node8 -->
<g id="edge18" class="edge">
<title>Node11&#45;&gt;Node8</title>
<path fill="none" stroke="midnightblue" d="M1157.22,-184.79C1151.36,-167.94 1136.11,-130.85 1110,-112 1064.96,-79.48 999.89,-70.11 958.27,-67.6"/>
<polygon fill="midnightblue" stroke="midnightblue" points="958.38,-64.1 948.22,-67.1 958.03,-71.09 958.38,-64.1"/>
</g>
<!-- Node12 -->
<g id="node12" class="node">
<title>Node12</title>
<g id="a_node12"><a xlink:href="v8-platform_8h.html" target="_top" xlink:title=" ">
<polygon fill="white" stroke="black" points="1290.5,-118 1290.5,-137 1363.5,-137 1363.5,-118 1290.5,-118"/>
<text text-anchor="middle" x="1327" y="-125" font-family="Helvetica,sans-Serif" font-size="10.00">v8&#45;platform.h</text>
</a>
</g>
</g>
<!-- Node11&#45;&gt;Node12 -->
<g id="edge11" class="edge">
<title>Node11&#45;&gt;Node12</title>
<path fill="none" stroke="midnightblue" d="M1182.18,-184.87C1211.2,-173.57 1262.27,-153.7 1295.35,-140.82"/>
<polygon fill="midnightblue" stroke="midnightblue" points="1296.95,-143.95 1305,-137.06 1294.41,-137.43 1296.95,-143.95"/>
</g>
<!-- Node12&#45;&gt;Node5 -->
<g id="edge15" class="edge">
<title>Node12&#45;&gt;Node5</title>
<path fill="none" stroke="midnightblue" d="M1341.61,-117.98C1358.35,-108.21 1386,-92.08 1405.72,-80.58"/>
<polygon fill="midnightblue" stroke="midnightblue" points="1407.54,-83.57 1414.41,-75.51 1404.01,-77.52 1407.54,-83.57"/>
</g>
<!-- Node12&#45;&gt;Node8 -->
<g id="edge17" class="edge">
<title>Node12&#45;&gt;Node8</title>
<path fill="none" stroke="midnightblue" d="M1303.41,-117.97C1296.57,-115.76 1289.05,-113.56 1282,-112 1166.03,-86.39 1025.82,-74.21 958.25,-69.48"/>
<polygon fill="midnightblue" stroke="midnightblue" points="958.26,-65.98 948.05,-68.79 957.79,-72.96 958.26,-65.98"/>
</g>
<!-- Node12&#45;&gt;Node10 -->
<g id="edge12" class="edge">
<title>Node12&#45;&gt;Node10</title>
<path fill="none" stroke="midnightblue" d="M1331.73,-117.98C1336.58,-109.23 1344.27,-95.37 1350.4,-84.31"/>
<polygon fill="midnightblue" stroke="midnightblue" points="1353.49,-85.95 1355.28,-75.51 1347.37,-82.56 1353.49,-85.95"/>
</g>
<!-- Node13 -->
<g id="node13" class="node">
<title>Node13</title>
<g id="a_node13"><a xlink:title=" ">
<polygon fill="white" stroke="#bfbfbf" points="1202,-56.5 1202,-75.5 1250,-75.5 1250,-56.5 1202,-56.5"/>
<text text-anchor="middle" x="1226" y="-63.5" font-family="Helvetica,sans-Serif" font-size="10.00">stdint.h</text>
</a>
</g>
</g>
<!-- Node12&#45;&gt;Node13 -->
<g id="edge13" class="edge">
<title>Node12&#45;&gt;Node13</title>
<path fill="none" stroke="midnightblue" d="M1312.53,-117.98C1296.03,-108.25 1268.82,-92.23 1249.32,-80.74"/>
<polygon fill="midnightblue" stroke="midnightblue" points="1250.84,-77.57 1240.44,-75.51 1247.28,-83.6 1250.84,-77.57"/>
</g>
<!-- Node14 -->
<g id="node14" class="node">
<title>Node14</title>
<g id="a_node14"><a xlink:title=" ">
<polygon fill="white" stroke="#bfbfbf" points="1269.5,-56.5 1269.5,-75.5 1316.5,-75.5 1316.5,-56.5 1269.5,-56.5"/>
<text text-anchor="middle" x="1293" y="-63.5" font-family="Helvetica,sans-Serif" font-size="10.00">stdlib.h</text>
</a>
</g>
</g>
<!-- Node12&#45;&gt;Node14 -->
<g id="edge14" class="edge">
<title>Node12&#45;&gt;Node14</title>
<path fill="none" stroke="midnightblue" d="M1322.13,-117.98C1317.13,-109.23 1309.21,-95.37 1302.89,-84.31"/>
<polygon fill="midnightblue" stroke="midnightblue" points="1305.86,-82.46 1297.86,-75.51 1299.78,-85.93 1305.86,-82.46"/>
</g>
<!-- Node15 -->
<g id="node15" class="node">
<title>Node15</title>
<g id="a_node15"><a xlink:title=" ">
<polygon fill="white" stroke="#bfbfbf" points="1073.5,-56.5 1073.5,-75.5 1114.5,-75.5 1114.5,-56.5 1073.5,-56.5"/>
<text text-anchor="middle" x="1094" y="-63.5" font-family="Helvetica,sans-Serif" font-size="10.00">string</text>
</a>
</g>
</g>
<!-- Node12&#45;&gt;Node15 -->
<g id="edge16" class="edge">
<title>Node12&#45;&gt;Node15</title>
<path fill="none" stroke="midnightblue" d="M1301.4,-117.88C1295.09,-115.85 1288.32,-113.77 1282,-112 1227.15,-96.62 1162.38,-81.85 1124.96,-73.65"/>
<polygon fill="midnightblue" stroke="midnightblue" points="1125.24,-70.12 1114.72,-71.41 1123.74,-76.96 1125.24,-70.12"/>
</g>
<!-- Node16&#45;&gt;Node4 -->
<g id="edge21" class="edge">
<title>Node16&#45;&gt;Node4</title>
<path fill="none" stroke="midnightblue" d="M912.46,-369.48C932.72,-356.76 972.37,-332.22 1007,-313 1031.07,-299.64 1059.05,-285.49 1079.12,-275.58"/>
<polygon fill="midnightblue" stroke="midnightblue" points="1080.85,-278.63 1088.28,-271.07 1077.76,-272.34 1080.85,-278.63"/>
</g>
<!-- Node16&#45;&gt;Node8 -->
<g id="edge57" class="edge">
<title>Node16&#45;&gt;Node8</title>
<path fill="none" stroke="midnightblue" d="M899,-369.31C899,-350.06 899,-302.4 899,-262.5 899,-262.5 899,-262.5 899,-193.5 899,-154.77 907.82,-110.11 913.44,-85.57"/>
<polygon fill="midnightblue" stroke="midnightblue" points="916.92,-86.06 915.82,-75.52 910.11,-84.44 916.92,-86.06"/>
</g>
<!-- Node17 -->
<g id="node17" class="node">
<title>Node17</title>
<g id="a_node17"><a xlink:href="member_8h.html" target="_top" xlink:title=" ">
<polygon fill="white" stroke="black" points="258.5,-313.5 258.5,-332.5 347.5,-332.5 347.5,-313.5 258.5,-313.5"/>
<text text-anchor="middle" x="303" y="-320.5" font-family="Helvetica,sans-Serif" font-size="10.00">cppgc/member.h</text>
</a>
</g>
</g>
<!-- Node16&#45;&gt;Node17 -->
<g id="edge22" class="edge">
<title>Node16&#45;&gt;Node17</title>
<path fill="none" stroke="midnightblue" d="M839.4,-372.6C723.61,-362.11 469.85,-339.12 357.91,-328.97"/>
<polygon fill="midnightblue" stroke="midnightblue" points="358.12,-325.48 347.85,-328.06 357.49,-332.45 358.12,-325.48"/>
</g>
<!-- Node28 -->
<g id="node28" class="node">
<title>Node28</title>
<g id="a_node28"><a xlink:href="trace-trait_8h.html" target="_top" xlink:title=" ">
<polygon fill="white" stroke="black" points="544.5,-118 544.5,-137 639.5,-137 639.5,-118 544.5,-118"/>
<text text-anchor="middle" x="592" y="-125" font-family="Helvetica,sans-Serif" font-size="10.00">cppgc/trace&#45;trait.h</text>
</a>
</g>
</g>
<!-- Node16&#45;&gt;Node28 -->
<g id="edge56" class="edge">
<title>Node16&#45;&gt;Node28</title>
<path fill="none" stroke="midnightblue" d="M888.43,-369.41C843.5,-332.9 668.03,-190.29 610.43,-143.48"/>
<polygon fill="midnightblue" stroke="midnightblue" points="612.49,-140.64 602.52,-137.05 608.08,-146.08 612.49,-140.64"/>
</g>
<!-- Node17&#45;&gt;Node8 -->
<g id="edge55" class="edge">
<title>Node17&#45;&gt;Node8</title>
<path fill="none" stroke="midnightblue" d="M347.83,-315.97C445.07,-301.1 679.35,-255.37 838,-143 863.03,-125.27 888.04,-100 903.27,-83.54"/>
<polygon fill="midnightblue" stroke="midnightblue" points="906.14,-85.58 910.29,-75.83 900.97,-80.87 906.14,-85.58"/>
</g>
<!-- Node18 -->
<g id="node18" class="node">
<title>Node18</title>
<g id="a_node18"><a xlink:title=" ">
<polygon fill="white" stroke="#bfbfbf" points="28,-56.5 28,-75.5 74,-75.5 74,-56.5 28,-56.5"/>
<text text-anchor="middle" x="51" y="-63.5" font-family="Helvetica,sans-Serif" font-size="10.00">atomic</text>
</a>
</g>
</g>
<!-- Node17&#45;&gt;Node18 -->
<g id="edge23" class="edge">
<title>Node17&#45;&gt;Node18</title>
<path fill="none" stroke="midnightblue" d="M258.38,-317.19C227.5,-311.85 187.06,-300.6 159,-277 96.48,-224.41 65.86,-126.46 55.35,-85.62"/>
<polygon fill="midnightblue" stroke="midnightblue" points="58.7,-84.58 52.91,-75.7 51.9,-86.25 58.7,-84.58"/>
</g>
<!-- Node19 -->
<g id="node19" class="node">
<title>Node19</title>
<g id="a_node19"><a xlink:title=" ">
<polygon fill="white" stroke="#bfbfbf" points="45.5,-0.5 45.5,-19.5 94.5,-19.5 94.5,-0.5 45.5,-0.5"/>
<text text-anchor="middle" x="70" y="-7.5" font-family="Helvetica,sans-Serif" font-size="10.00">cstddef</text>
</a>
</g>
</g>
<!-- Node17&#45;&gt;Node19 -->
<g id="edge24" class="edge">
<title>Node17&#45;&gt;Node19</title>
<path fill="none" stroke="midnightblue" d="M258.29,-322.79C174.01,-321.71 0,-306.09 0,-195.5 0,-195.5 0,-195.5 0,-126.5 0,-94.05 1.89,-83.57 19,-56 26.4,-44.09 37.9,-33.54 48.12,-25.66"/>
<polygon fill="midnightblue" stroke="midnightblue" points="50.27,-28.42 56.27,-19.7 46.14,-22.77 50.27,-28.42"/>
</g>
<!-- Node20 -->
<g id="node20" class="node">
<title>Node20</title>
<g id="a_node20"><a xlink:title=" ">
<polygon fill="white" stroke="#bfbfbf" points="271,-0.5 271,-19.5 333,-19.5 333,-0.5 271,-0.5"/>
<text text-anchor="middle" x="302" y="-7.5" font-family="Helvetica,sans-Serif" font-size="10.00">type_traits</text>
</a>
</g>
</g>
<!-- Node17&#45;&gt;Node20 -->
<g id="edge25" class="edge">
<title>Node17&#45;&gt;Node20</title>
<path fill="none" stroke="midnightblue" d="M314.46,-313.25C337.66,-294.44 388,-247.62 388,-195.5 388,-195.5 388,-195.5 388,-126.5 388,-83.11 348.48,-45.47 323.02,-25.73"/>
<polygon fill="midnightblue" stroke="midnightblue" points="324.8,-22.69 314.69,-19.51 320.61,-28.29 324.8,-22.69"/>
</g>
<!-- Node21 -->
<g id="node21" class="node">
<title>Node21</title>
<g id="a_node21"><a xlink:href="pointer-policies_8h.html" target="_top" xlink:title=" ">
<polygon fill="white" stroke="black" points="206,-246.5 206,-276.5 316,-276.5 316,-246.5 206,-246.5"/>
<text text-anchor="start" x="214" y="-264.5" font-family="Helvetica,sans-Serif" font-size="10.00">cppgc/internal/pointer</text>
<text text-anchor="middle" x="261" y="-253.5" font-family="Helvetica,sans-Serif" font-size="10.00">&#45;policies.h</text>
</a>
</g>
</g>
<!-- Node17&#45;&gt;Node21 -->
<g id="edge26" class="edge">
<title>Node17&#45;&gt;Node21</title>
<path fill="none" stroke="midnightblue" d="M296.98,-313.48C291.72,-306.02 283.84,-294.85 276.79,-284.87"/>
<polygon fill="midnightblue" stroke="midnightblue" points="279.52,-282.67 270.9,-276.52 273.81,-286.71 279.52,-282.67"/>
</g>
<!-- Node27 -->
<g id="node27" class="node">
<title>Node27</title>
<g id="a_node27"><a xlink:href="sentinel-pointer_8h.html" target="_top" xlink:title=" ">
<polygon fill="white" stroke="black" points="240.5,-118 240.5,-137 359.5,-137 359.5,-118 240.5,-118"/>
<text text-anchor="middle" x="300" y="-125" font-family="Helvetica,sans-Serif" font-size="10.00">cppgc/sentinel&#45;pointer.h</text>
</a>
</g>
</g>
<!-- Node17&#45;&gt;Node27 -->
<g id="edge53" class="edge">
<title>Node17&#45;&gt;Node27</title>
<path fill="none" stroke="midnightblue" d="M308.64,-313.48C314.05,-304.74 321.86,-290.56 325,-277 335.76,-230.47 318.44,-174.74 307.63,-146.62"/>
<polygon fill="midnightblue" stroke="midnightblue" points="310.85,-145.25 303.88,-137.28 304.36,-147.86 310.85,-145.25"/>
</g>
<!-- Node29 -->
<g id="node29" class="node">
<title>Node29</title>
<g id="a_node29"><a xlink:href="type-traits_8h.html" target="_top" xlink:title=" ">
<polygon fill="white" stroke="black" points="92,-56.5 92,-75.5 188,-75.5 188,-56.5 92,-56.5"/>
<text text-anchor="middle" x="140" y="-63.5" font-family="Helvetica,sans-Serif" font-size="10.00">cppgc/type&#45;traits.h</text>
</a>
</g>
</g>
<!-- Node17&#45;&gt;Node29 -->
<g id="edge54" class="edge">
<title>Node17&#45;&gt;Node29</title>
<path fill="none" stroke="midnightblue" d="M272.65,-313.45C250.28,-306.16 219.89,-294.13 197,-277 166.16,-253.92 157.63,-245.21 142,-210 123.67,-168.71 130.39,-113.89 135.8,-85.62"/>
<polygon fill="midnightblue" stroke="midnightblue" points="139.29,-86.05 137.9,-75.55 132.43,-84.62 139.29,-86.05"/>
</g>
<!-- Node21&#45;&gt;Node8 -->
<g id="edge52" class="edge">
<title>Node21&#45;&gt;Node8</title>
<path fill="none" stroke="midnightblue" d="M316.26,-258.4C392.77,-254.35 534.68,-242.75 651,-210 721.28,-190.21 737.15,-178.42 801,-143 822.56,-131.04 826.36,-125.49 847,-112 863.23,-101.39 881.75,-89.67 895.8,-80.85"/>
<polygon fill="midnightblue" stroke="midnightblue" points="897.7,-83.79 904.32,-75.51 893.98,-77.85 897.7,-83.79"/>
</g>
<!-- Node21&#45;&gt;Node20 -->
<g id="edge28" class="edge">
<title>Node21&#45;&gt;Node20</title>
<path fill="none" stroke="midnightblue" d="M246.72,-246.45C238.15,-237.02 227.97,-223.84 223,-210 208.27,-168.99 207.72,-153.81 220,-112 230.57,-76 261.95,-44.2 282.68,-26.3"/>
<polygon fill="midnightblue" stroke="midnightblue" points="285.13,-28.81 290.56,-19.72 280.64,-23.44 285.13,-28.81"/>
</g>
<!-- Node22 -->
<g id="node22" class="node">
<title>Node22</title>
<g id="a_node22"><a xlink:title=" ">
<polygon fill="white" stroke="#bfbfbf" points="265,-56.5 265,-75.5 311,-75.5 311,-56.5 265,-56.5"/>
<text text-anchor="middle" x="288" y="-63.5" font-family="Helvetica,sans-Serif" font-size="10.00">cstdint</text>
</a>
</g>
</g>
<!-- Node21&#45;&gt;Node22 -->
<g id="edge27" class="edge">
<title>Node21&#45;&gt;Node22</title>
<path fill="none" stroke="midnightblue" d="M252.42,-246.25C237.16,-218.89 208.86,-157.68 231,-112 237.4,-98.8 249.75,-88.3 261.33,-80.78"/>
<polygon fill="midnightblue" stroke="midnightblue" points="263.16,-83.77 269.92,-75.61 259.55,-77.77 263.16,-83.77"/>
</g>
<!-- Node23 -->
<g id="node23" class="node">
<title>Node23</title>
<g id="a_node23"><a xlink:href="write-barrier_8h.html" target="_top" xlink:title=" ">
<polygon fill="white" stroke="black" points="541.5,-179.5 541.5,-209.5 642.5,-209.5 642.5,-179.5 541.5,-179.5"/>
<text text-anchor="start" x="549.5" y="-197.5" font-family="Helvetica,sans-Serif" font-size="10.00">cppgc/internal/write</text>
<text text-anchor="middle" x="592" y="-186.5" font-family="Helvetica,sans-Serif" font-size="10.00">&#45;barrier.h</text>
</a>
</g>
</g>
<!-- Node21&#45;&gt;Node23 -->
<g id="edge29" class="edge">
<title>Node21&#45;&gt;Node23</title>
<path fill="none" stroke="midnightblue" d="M316.03,-249.69C375.5,-238.02 469.99,-219.46 531.5,-207.38"/>
<polygon fill="midnightblue" stroke="midnightblue" points="532.32,-210.79 541.46,-205.43 530.97,-203.92 532.32,-210.79"/>
</g>
<!-- Node21&#45;&gt;Node27 -->
<g id="edge47" class="edge">
<title>Node21&#45;&gt;Node27</title>
<path fill="none" stroke="midnightblue" d="M265.17,-246.37C272.29,-222.29 286.76,-173.31 294.62,-146.7"/>
<polygon fill="midnightblue" stroke="midnightblue" points="297.98,-147.68 297.46,-137.1 291.27,-145.7 297.98,-147.68"/>
</g>
<!-- Node21&#45;&gt;Node29 -->
<g id="edge51" class="edge">
<title>Node21&#45;&gt;Node29</title>
<path fill="none" stroke="midnightblue" d="M210.62,-246.4C191.89,-238.65 172.24,-227.04 160,-210 133.14,-172.62 134.52,-115.29 137.45,-85.86"/>
<polygon fill="midnightblue" stroke="midnightblue" points="140.95,-86.07 138.64,-75.73 134,-85.26 140.95,-86.07"/>
</g>
<!-- Node30 -->
<g id="node30" class="node">
<title>Node30</title>
<g id="a_node30"><a xlink:href="source-location_8h.html" target="_top" xlink:title=" ">
<polygon fill="white" stroke="black" points="965.5,-118 965.5,-137 1084.5,-137 1084.5,-118 965.5,-118"/>
<text text-anchor="middle" x="1025" y="-125" font-family="Helvetica,sans-Serif" font-size="10.00">cppgc/source&#45;location.h</text>
</a>
</g>
</g>
<!-- Node21&#45;&gt;Node30 -->
<g id="edge48" class="edge">
<title>Node21&#45;&gt;Node30</title>
<path fill="none" stroke="midnightblue" d="M316.32,-259.89C414.63,-257.79 625.73,-248.72 799,-210 872.67,-193.54 955.14,-159.62 997.14,-141.15"/>
<polygon fill="midnightblue" stroke="midnightblue" points="998.71,-144.28 1006.43,-137.02 995.87,-137.88 998.71,-144.28"/>
</g>
<!-- Node23&#45;&gt;Node8 -->
<g id="edge46" class="edge">
<title>Node23&#45;&gt;Node8</title>
<path fill="none" stroke="midnightblue" d="M642.82,-183.32C678.18,-175.14 725.82,-161.87 765,-143 786.55,-132.62 788.04,-123.52 809,-112 832.96,-98.83 861.58,-87.15 883.49,-79"/>
<polygon fill="midnightblue" stroke="midnightblue" points="884.85,-82.23 893.04,-75.51 882.44,-75.65 884.85,-82.23"/>
</g>
<!-- Node24 -->
<g id="node24" class="node">
<title>Node24</title>
<g id="a_node24"><a xlink:href="heap-state_8h.html" target="_top" xlink:title=" ">
<polygon fill="white" stroke="black" points="657.5,-118 657.5,-137 756.5,-137 756.5,-118 657.5,-118"/>
<text text-anchor="middle" x="707" y="-125" font-family="Helvetica,sans-Serif" font-size="10.00">cppgc/heap&#45;state.h</text>
</a>
</g>
</g>
<!-- Node23&#45;&gt;Node24 -->
<g id="edge30" class="edge">
<title>Node23&#45;&gt;Node24</title>
<path fill="none" stroke="midnightblue" d="M616.95,-179.4C636.6,-168.29 663.79,-152.92 683.15,-141.98"/>
<polygon fill="midnightblue" stroke="midnightblue" points="684.97,-144.97 691.95,-137.01 681.52,-138.88 684.97,-144.97"/>
</g>
<!-- Node25 -->
<g id="node25" class="node">
<title>Node25</title>
<g id="a_node25"><a xlink:href="api-constants_8h.html" target="_top" xlink:title=" ">
<polygon fill="white" stroke="black" points="1179.5,-112.5 1179.5,-142.5 1272.5,-142.5 1272.5,-112.5 1179.5,-112.5"/>
<text text-anchor="start" x="1187.5" y="-130.5" font-family="Helvetica,sans-Serif" font-size="10.00">cppgc/internal/api</text>
<text text-anchor="middle" x="1226" y="-119.5" font-family="Helvetica,sans-Serif" font-size="10.00">&#45;constants.h</text>
</a>
</g>
</g>
<!-- Node23&#45;&gt;Node25 -->
<g id="edge32" class="edge">
<title>Node23&#45;&gt;Node25</title>
<path fill="none" stroke="midnightblue" d="M642.5,-188.55C732.88,-179.65 928.24,-160.28 1093,-143 1117.95,-140.38 1145.53,-137.39 1169.07,-134.81"/>
<polygon fill="midnightblue" stroke="midnightblue" points="1169.67,-138.26 1179.23,-133.69 1168.91,-131.31 1169.67,-138.26"/>
</g>
<!-- Node26 -->
<g id="node26" class="node">
<title>Node26</title>
<g id="a_node26"><a xlink:href="atomic-entry-flag_8h.html" target="_top" xlink:title=" ">
<polygon fill="white" stroke="black" points="416,-112.5 416,-142.5 526,-142.5 526,-112.5 416,-112.5"/>
<text text-anchor="start" x="424" y="-130.5" font-family="Helvetica,sans-Serif" font-size="10.00">cppgc/internal/atomic</text>
<text text-anchor="middle" x="471" y="-119.5" font-family="Helvetica,sans-Serif" font-size="10.00">&#45;entry&#45;flag.h</text>
</a>
</g>
</g>
<!-- Node23&#45;&gt;Node26 -->
<g id="edge36" class="edge">
<title>Node23&#45;&gt;Node26</title>
<path fill="none" stroke="midnightblue" d="M565.74,-179.4C548.3,-170.03 525.2,-157.62 506.17,-147.39"/>
<polygon fill="midnightblue" stroke="midnightblue" points="507.67,-144.23 497.2,-142.58 504.36,-150.39 507.67,-144.23"/>
</g>
<!-- Node23&#45;&gt;Node27 -->
<g id="edge38" class="edge">
<title>Node23&#45;&gt;Node27</title>
<path fill="none" stroke="midnightblue" d="M541.47,-182.25C487.19,-170.17 401.54,-151.1 348.18,-139.23"/>
<polygon fill="midnightblue" stroke="midnightblue" points="348.81,-135.78 338.29,-137.02 347.29,-142.61 348.81,-135.78"/>
</g>
<!-- Node23&#45;&gt;Node28 -->
<g id="edge40" class="edge">
<title>Node23&#45;&gt;Node28</title>
<path fill="none" stroke="midnightblue" d="M592,-179.4C592,-170.06 592,-157.71 592,-147.52"/>
<polygon fill="midnightblue" stroke="midnightblue" points="595.5,-147.19 592,-137.19 588.5,-147.19 595.5,-147.19"/>
</g>
<!-- Node24&#45;&gt;Node8 -->
<g id="edge31" class="edge">
<title>Node24&#45;&gt;Node8</title>
<path fill="none" stroke="midnightblue" d="M737.23,-117.98C774.29,-107.53 837.19,-89.79 878.16,-78.23"/>
<polygon fill="midnightblue" stroke="midnightblue" points="879.15,-81.59 887.82,-75.51 877.25,-74.85 879.15,-81.59"/>
</g>
<!-- Node25&#45;&gt;Node8 -->
<g id="edge35" class="edge">
<title>Node25&#45;&gt;Node8</title>
<path fill="none" stroke="midnightblue" d="M1179.43,-115.16C1174.57,-114.06 1169.69,-112.98 1165,-112 1092.32,-96.75 1006.97,-81.87 958.01,-73.62"/>
<polygon fill="midnightblue" stroke="midnightblue" points="958.58,-70.16 948.14,-71.96 957.42,-77.07 958.58,-70.16"/>
</g>
<!-- Node25&#45;&gt;Node10 -->
<g id="edge33" class="edge">
<title>Node25&#45;&gt;Node10</title>
<path fill="none" stroke="midnightblue" d="M1257.76,-112.4C1280.04,-102.51 1309.59,-89.38 1331.19,-79.79"/>
<polygon fill="midnightblue" stroke="midnightblue" points="1332.78,-82.91 1340.5,-75.66 1329.94,-76.52 1332.78,-82.91"/>
</g>
<!-- Node25&#45;&gt;Node13 -->
<g id="edge34" class="edge">
<title>Node25&#45;&gt;Node13</title>
<path fill="none" stroke="midnightblue" d="M1226,-112.4C1226,-104.47 1226,-94.46 1226,-85.86"/>
<polygon fill="midnightblue" stroke="midnightblue" points="1229.5,-85.66 1226,-75.66 1222.5,-85.66 1229.5,-85.66"/>
</g>
<!-- Node26&#45;&gt;Node18 -->
<g id="edge37" class="edge">
<title>Node26&#45;&gt;Node18</title>
<path fill="none" stroke="midnightblue" d="M415.96,-118.6C400.46,-116.42 383.57,-114.08 368,-112 244.66,-95.53 209.88,-101.05 84.32,-76.01"/>
<polygon fill="midnightblue" stroke="midnightblue" points="84.82,-72.54 74.32,-73.99 83.43,-79.4 84.82,-72.54"/>
</g>
<!-- Node27&#45;&gt;Node22 -->
<g id="edge39" class="edge">
<title>Node27&#45;&gt;Node22</title>
<path fill="none" stroke="midnightblue" d="M298.28,-117.98C296.57,-109.49 293.89,-96.2 291.7,-85.32"/>
<polygon fill="midnightblue" stroke="midnightblue" points="295.12,-84.62 289.72,-75.51 288.26,-86 295.12,-84.62"/>
</g>
<!-- Node28&#45;&gt;Node8 -->
<g id="edge45" class="edge">
<title>Node28&#45;&gt;Node8</title>
<path fill="none" stroke="midnightblue" d="M622.99,-117.96C631.09,-115.86 639.85,-113.73 648,-112 729.06,-94.79 824.96,-80.14 877.88,-72.56"/>
<polygon fill="midnightblue" stroke="midnightblue" points="878.46,-76.01 887.87,-71.14 877.48,-69.08 878.46,-76.01"/>
</g>
<!-- Node28&#45;&gt;Node20 -->
<g id="edge41" class="edge">
<title>Node28&#45;&gt;Node20</title>
<path fill="none" stroke="midnightblue" d="M570.2,-117.82C519.27,-97.53 392.32,-46.97 333.21,-23.43"/>
<polygon fill="midnightblue" stroke="midnightblue" points="334.24,-20.07 323.65,-19.62 331.65,-26.58 334.24,-20.07"/>
</g>
<!-- Node28&#45;&gt;Node29 -->
<g id="edge42" class="edge">
<title>Node28&#45;&gt;Node29</title>
<path fill="none" stroke="midnightblue" d="M561.7,-117.98C553.12,-115.79 543.74,-113.6 535,-112 416.26,-90.24 275.4,-77.21 198.06,-71.14"/>
<polygon fill="midnightblue" stroke="midnightblue" points="198.28,-67.64 188.04,-70.36 197.74,-74.62 198.28,-67.64"/>
</g>
<!-- Node29&#45;&gt;Node19 -->
<g id="edge43" class="edge">
<title>Node29&#45;&gt;Node19</title>
<path fill="none" stroke="midnightblue" d="M128.75,-56.32C118.2,-48.18 102.2,-35.84 89.56,-26.09"/>
<polygon fill="midnightblue" stroke="midnightblue" points="91.51,-23.17 81.45,-19.83 87.23,-28.71 91.51,-23.17"/>
</g>
<!-- Node29&#45;&gt;Node20 -->
<g id="edge44" class="edge">
<title>Node29&#45;&gt;Node20</title>
<path fill="none" stroke="midnightblue" d="M165.67,-56.44C192.92,-47.36 236.18,-32.94 266.65,-22.78"/>
<polygon fill="midnightblue" stroke="midnightblue" points="268.07,-26 276.45,-19.52 265.86,-19.36 268.07,-26"/>
</g>
<!-- Node30&#45;&gt;Node8 -->
<g id="edge50" class="edge">
<title>Node30&#45;&gt;Node8</title>
<path fill="none" stroke="midnightblue" d="M1009.67,-117.98C992.03,-108.17 962.84,-91.93 942.14,-80.42"/>
<polygon fill="midnightblue" stroke="midnightblue" points="943.74,-77.31 933.3,-75.51 940.34,-83.43 943.74,-77.31"/>
</g>
<!-- Node30&#45;&gt;Node15 -->
<g id="edge49" class="edge">
<title>Node30&#45;&gt;Node15</title>
<path fill="none" stroke="midnightblue" d="M1034.89,-117.98C1045.65,-108.7 1063.07,-93.67 1076.22,-82.33"/>
<polygon fill="midnightblue" stroke="midnightblue" points="1078.84,-84.69 1084.13,-75.51 1074.27,-79.39 1078.84,-84.69"/>
</g>
</g>
</svg>
