<?xml version="1.0" encoding="UTF-8" standalone="no"?>
<!DOCTYPE svg PUBLIC "-//W3C//DTD SVG 1.1//EN"
 "http://www.w3.org/Graphics/SVG/1.1/DTD/svg11.dtd">
<!-- Generated by graphviz version 2.49.3 (20211027.1534)
 -->
<!-- Title: include/v8&#45;platform.h Pages: 1 -->
<svg width="703pt" height="475pt"
 viewBox="0.00 0.00 702.50 475.00" xmlns="http://www.w3.org/2000/svg" xmlns:xlink="http://www.w3.org/1999/xlink">
<g id="graph0" class="graph" transform="scale(1 1) rotate(0) translate(4 471)">
<title>include/v8&#45;platform.h</title>
<polygon fill="white" stroke="transparent" points="-4,4 -4,-471 698.5,-471 698.5,4 -4,4"/>
<!-- Node1 -->
<g id="node1" class="node">
<title>Node1</title>
<g id="a_node1"><a xlink:title=" ">
<polygon fill="#bfbfbf" stroke="black" points="536.5,-447.5 536.5,-466.5 643.5,-466.5 643.5,-447.5 536.5,-447.5"/>
<text text-anchor="middle" x="590" y="-454.5" font-family="Helvetica,sans-Serif" font-size="10.00">include/v8&#45;platform.h</text>
</a>
</g>
</g>
<!-- Node2 -->
<g id="node2" class="node">
<title>Node2</title>
<g id="a_node2"><a xlink:href="platform_8h.html" target="_top" xlink:title=" ">
<polygon fill="white" stroke="black" points="402,-386 402,-405 524,-405 524,-386 402,-386"/>
<text text-anchor="middle" x="463" y="-393" font-family="Helvetica,sans-Serif" font-size="10.00">include/cppgc/platform.h</text>
</a>
</g>
</g>
<!-- Node1&#45;&gt;Node2 -->
<g id="edge1" class="edge">
<title>Node1&#45;&gt;Node2</title>
<path fill="none" stroke="midnightblue" d="M562.62,-443.17C537.98,-431.63 502.46,-414.99 481.16,-405.01"/>
<polygon fill="midnightblue" stroke="midnightblue" points="561.26,-446.4 571.8,-447.48 564.23,-440.06 561.26,-446.4"/>
</g>
<!-- Node17 -->
<g id="node17" class="node">
<title>Node17</title>
<g id="a_node17"><a xlink:href="libplatform_8h.html" target="_top" xlink:title=" ">
<polygon fill="white" stroke="black" points="599.5,-313.5 599.5,-343.5 694.5,-343.5 694.5,-313.5 599.5,-313.5"/>
<text text-anchor="start" x="607.5" y="-331.5" font-family="Helvetica,sans-Serif" font-size="10.00">include/libplatform</text>
<text text-anchor="middle" x="647" y="-320.5" font-family="Helvetica,sans-Serif" font-size="10.00">/libplatform.h</text>
</a>
</g>
</g>
<!-- Node1&#45;&gt;Node17 -->
<g id="edge21" class="edge">
<title>Node1&#45;&gt;Node17</title>
<path fill="none" stroke="midnightblue" d="M616.67,-442.22C628.25,-434.7 640.6,-424.2 647,-411 657.49,-389.35 654.05,-360.52 650.55,-343.58"/>
<polygon fill="midnightblue" stroke="midnightblue" points="614.84,-439.23 608.08,-447.39 618.45,-445.23 614.84,-439.23"/>
</g>
<!-- Node18 -->
<g id="node18" class="node">
<title>Node18</title>
<g id="a_node18"><a xlink:href="v8-tracing_8h.html" target="_top" xlink:title=" ">
<polygon fill="white" stroke="black" points="542.5,-380.5 542.5,-410.5 637.5,-410.5 637.5,-380.5 542.5,-380.5"/>
<text text-anchor="start" x="550.5" y="-398.5" font-family="Helvetica,sans-Serif" font-size="10.00">include/libplatform</text>
<text text-anchor="middle" x="590" y="-387.5" font-family="Helvetica,sans-Serif" font-size="10.00">/v8&#45;tracing.h</text>
</a>
</g>
</g>
<!-- Node1&#45;&gt;Node18 -->
<g id="edge23" class="edge">
<title>Node1&#45;&gt;Node18</title>
<path fill="none" stroke="midnightblue" d="M590,-437.23C590,-428.59 590,-418.5 590,-410.52"/>
<polygon fill="midnightblue" stroke="midnightblue" points="586.5,-437.48 590,-447.48 593.5,-437.48 586.5,-437.48"/>
</g>
<!-- Node3 -->
<g id="node3" class="node">
<title>Node3</title>
<g id="a_node3"><a xlink:href="default-platform_8h.html" target="_top" xlink:title=" ">
<polygon fill="white" stroke="black" points="554.5,-246.5 554.5,-276.5 663.5,-276.5 663.5,-246.5 554.5,-246.5"/>
<text text-anchor="start" x="562.5" y="-264.5" font-family="Helvetica,sans-Serif" font-size="10.00">include/cppgc/default</text>
<text text-anchor="middle" x="609" y="-253.5" font-family="Helvetica,sans-Serif" font-size="10.00">&#45;platform.h</text>
</a>
</g>
</g>
<!-- Node2&#45;&gt;Node3 -->
<g id="edge2" class="edge">
<title>Node2&#45;&gt;Node3</title>
<path fill="none" stroke="midnightblue" d="M492.86,-381.71C511.24,-372.88 534.54,-359.88 552,-344 573.97,-324.01 592.15,-294.09 601.71,-276.61"/>
<polygon fill="midnightblue" stroke="midnightblue" points="491.34,-378.55 483.75,-385.94 494.29,-384.9 491.34,-378.55"/>
</g>
<!-- Node4 -->
<g id="node4" class="node">
<title>Node4</title>
<g id="a_node4"><a xlink:href="garbage-collected_8h.html" target="_top" xlink:title=" ">
<polygon fill="white" stroke="black" points="99,-313.5 99,-343.5 213,-343.5 213,-313.5 99,-313.5"/>
<text text-anchor="start" x="107" y="-331.5" font-family="Helvetica,sans-Serif" font-size="10.00">include/cppgc/garbage</text>
<text text-anchor="middle" x="156" y="-320.5" font-family="Helvetica,sans-Serif" font-size="10.00">&#45;collected.h</text>
</a>
</g>
</g>
<!-- Node2&#45;&gt;Node4 -->
<g id="edge3" class="edge">
<title>Node2&#45;&gt;Node4</title>
<path fill="none" stroke="midnightblue" d="M412.71,-383.85C357.89,-372.24 270.34,-353.71 213.01,-341.57"/>
<polygon fill="midnightblue" stroke="midnightblue" points="412.04,-387.29 422.55,-385.94 413.49,-380.44 412.04,-387.29"/>
</g>
<!-- Node11 -->
<g id="node11" class="node">
<title>Node11</title>
<g id="a_node11"><a xlink:href="heap_8h.html" target="_top" xlink:title=" ">
<polygon fill="white" stroke="black" points="295,-319 295,-338 403,-338 403,-319 295,-319"/>
<text text-anchor="middle" x="349" y="-326" font-family="Helvetica,sans-Serif" font-size="10.00">include/cppgc/heap.h</text>
</a>
</g>
</g>
<!-- Node2&#45;&gt;Node11 -->
<g id="edge11" class="edge">
<title>Node2&#45;&gt;Node11</title>
<path fill="none" stroke="midnightblue" d="M438.65,-380.62C416.06,-367.74 383.16,-348.98 364.13,-338.13"/>
<polygon fill="midnightblue" stroke="midnightblue" points="437.2,-383.82 447.63,-385.73 440.67,-377.74 437.2,-383.82"/>
</g>
<!-- Node16 -->
<g id="node16" class="node">
<title>Node16</title>
<g id="a_node16"><a xlink:href="caged-heap-local-data_8h.html" target="_top" xlink:title=" ">
<polygon fill="white" stroke="black" points="421,-313.5 421,-343.5 543,-343.5 543,-313.5 421,-313.5"/>
<text text-anchor="start" x="429" y="-331.5" font-family="Helvetica,sans-Serif" font-size="10.00">include/cppgc/internal</text>
<text text-anchor="middle" x="482" y="-320.5" font-family="Helvetica,sans-Serif" font-size="10.00">/caged&#45;heap&#45;local&#45;data.h</text>
</a>
</g>
</g>
<!-- Node2&#45;&gt;Node16 -->
<g id="edge20" class="edge">
<title>Node2&#45;&gt;Node16</title>
<path fill="none" stroke="midnightblue" d="M468.39,-376.06C471.4,-365.75 475.1,-353.1 477.88,-343.59"/>
<polygon fill="midnightblue" stroke="midnightblue" points="465.01,-375.15 465.56,-385.73 471.73,-377.12 465.01,-375.15"/>
</g>
<!-- Node5 -->
<g id="node5" class="node">
<title>Node5</title>
<g id="a_node5"><a xlink:href="allocation_8h.html" target="_top" xlink:title=" ">
<polygon fill="white" stroke="black" points="0,-252 0,-271 128,-271 128,-252 0,-252"/>
<text text-anchor="middle" x="64" y="-259" font-family="Helvetica,sans-Serif" font-size="10.00">include/cppgc/allocation.h</text>
</a>
</g>
</g>
<!-- Node4&#45;&gt;Node5 -->
<g id="edge4" class="edge">
<title>Node4&#45;&gt;Node5</title>
<path fill="none" stroke="midnightblue" d="M127.42,-307.31C110.14,-295.1 89.02,-280.18 76.04,-271.01"/>
<polygon fill="midnightblue" stroke="midnightblue" points="125.85,-310.48 136.04,-313.4 129.89,-304.77 125.85,-310.48"/>
</g>
<!-- Node7 -->
<g id="node7" class="node">
<title>Node7</title>
<g id="a_node7"><a xlink:href="visitor_8h.html" target="_top" xlink:title=" ">
<polygon fill="white" stroke="black" points="191.5,-123.5 191.5,-142.5 304.5,-142.5 304.5,-123.5 191.5,-123.5"/>
<text text-anchor="middle" x="248" y="-130.5" font-family="Helvetica,sans-Serif" font-size="10.00">include/cppgc/visitor.h</text>
</a>
</g>
</g>
<!-- Node4&#45;&gt;Node7 -->
<g id="edge6" class="edge">
<title>Node4&#45;&gt;Node7</title>
<path fill="none" stroke="midnightblue" d="M153.07,-303.48C150.52,-272.22 150.43,-217.1 175,-179 186.3,-161.48 207.07,-149.67 223.58,-142.56"/>
<polygon fill="midnightblue" stroke="midnightblue" points="149.59,-303.86 154.04,-313.48 156.56,-303.19 149.59,-303.86"/>
</g>
<!-- Node6 -->
<g id="node6" class="node">
<title>Node6</title>
<g id="a_node6"><a xlink:href="explicit-management_8h.html" target="_top" xlink:title=" ">
<polygon fill="white" stroke="black" points="9,-179.5 9,-209.5 119,-209.5 119,-179.5 9,-179.5"/>
<text text-anchor="start" x="17" y="-197.5" font-family="Helvetica,sans-Serif" font-size="10.00">include/cppgc/explicit</text>
<text text-anchor="middle" x="64" y="-186.5" font-family="Helvetica,sans-Serif" font-size="10.00">&#45;management.h</text>
</a>
</g>
</g>
<!-- Node5&#45;&gt;Node6 -->
<g id="edge5" class="edge">
<title>Node5&#45;&gt;Node6</title>
<path fill="none" stroke="midnightblue" d="M64,-241.41C64,-231.22 64,-218.9 64,-209.59"/>
<polygon fill="midnightblue" stroke="midnightblue" points="60.5,-241.73 64,-251.73 67.5,-241.73 60.5,-241.73"/>
</g>
<!-- Node8 -->
<g id="node8" class="node">
<title>Node8</title>
<g id="a_node8"><a xlink:href="cross-thread-persistent_8h.html" target="_top" xlink:title=" ">
<polygon fill="white" stroke="black" points="149,-0.5 149,-30.5 253,-30.5 253,-0.5 149,-0.5"/>
<text text-anchor="start" x="157" y="-18.5" font-family="Helvetica,sans-Serif" font-size="10.00">include/cppgc/cross</text>
<text text-anchor="middle" x="201" y="-7.5" font-family="Helvetica,sans-Serif" font-size="10.00">&#45;thread&#45;persistent.h</text>
</a>
</g>
</g>
<!-- Node7&#45;&gt;Node8 -->
<g id="edge7" class="edge">
<title>Node7&#45;&gt;Node8</title>
<path fill="none" stroke="midnightblue" d="M243.78,-113.59C240.47,-100.37 235.37,-82.26 229,-67 223.67,-54.23 215.95,-40.56 209.97,-30.66"/>
<polygon fill="midnightblue" stroke="midnightblue" points="240.39,-114.47 246.13,-123.38 247.2,-112.84 240.39,-114.47"/>
</g>
<!-- Node9 -->
<g id="node9" class="node">
<title>Node9</title>
<g id="a_node9"><a xlink:href="persistent_8h.html" target="_top" xlink:title=" ">
<polygon fill="white" stroke="black" points="90,-67.5 90,-86.5 220,-86.5 220,-67.5 90,-67.5"/>
<text text-anchor="middle" x="155" y="-74.5" font-family="Helvetica,sans-Serif" font-size="10.00">include/cppgc/persistent.h</text>
</a>
</g>
</g>
<!-- Node7&#45;&gt;Node9 -->
<g id="edge8" class="edge">
<title>Node7&#45;&gt;Node9</title>
<path fill="none" stroke="midnightblue" d="M224.19,-118.18C207.08,-108.24 184.53,-95.15 169.9,-86.65"/>
<polygon fill="midnightblue" stroke="midnightblue" points="222.65,-121.33 233.06,-123.32 226.17,-115.28 222.65,-121.33"/>
</g>
<!-- Node10 -->
<g id="node10" class="node">
<title>Node10</title>
<g id="a_node10"><a xlink:href="v8-cppgc_8h.html" target="_top" xlink:title=" ">
<polygon fill="white" stroke="black" points="276,-67.5 276,-86.5 374,-86.5 374,-67.5 276,-67.5"/>
<text text-anchor="middle" x="325" y="-74.5" font-family="Helvetica,sans-Serif" font-size="10.00">include/v8&#45;cppgc.h</text>
</a>
</g>
</g>
<!-- Node7&#45;&gt;Node10 -->
<g id="edge10" class="edge">
<title>Node7&#45;&gt;Node10</title>
<path fill="none" stroke="midnightblue" d="M268.9,-117.34C282.91,-107.52 300.88,-94.91 312.66,-86.65"/>
<polygon fill="midnightblue" stroke="midnightblue" points="266.55,-114.72 260.37,-123.32 270.57,-120.45 266.55,-114.72"/>
</g>
<!-- Node9&#45;&gt;Node8 -->
<g id="edge9" class="edge">
<title>Node9&#45;&gt;Node8</title>
<path fill="none" stroke="midnightblue" d="M167.73,-59.53C174.78,-50.42 183.44,-39.21 190.16,-30.52"/>
<polygon fill="midnightblue" stroke="midnightblue" points="164.94,-57.42 161.59,-67.48 170.48,-61.7 164.94,-57.42"/>
</g>
<!-- Node12 -->
<g id="node12" class="node">
<title>Node12</title>
<g id="a_node12"><a xlink:href="prefinalizer-handler_8h.html" target="_top" xlink:title=" ">
<polygon fill="white" stroke="black" points="406.5,-179.5 406.5,-209.5 517.5,-209.5 517.5,-179.5 406.5,-179.5"/>
<text text-anchor="start" x="414.5" y="-197.5" font-family="Helvetica,sans-Serif" font-size="10.00">include/cppgc/internal</text>
<text text-anchor="middle" x="462" y="-186.5" font-family="Helvetica,sans-Serif" font-size="10.00">/prefinalizer&#45;handler.h</text>
</a>
</g>
</g>
<!-- Node11&#45;&gt;Node12 -->
<g id="edge12" class="edge">
<title>Node11&#45;&gt;Node12</title>
<path fill="none" stroke="midnightblue" d="M372.25,-313.46C386.11,-304.29 403.4,-291.38 416,-277 434.31,-256.1 448.68,-226.76 456.21,-209.58"/>
<polygon fill="midnightblue" stroke="midnightblue" points="370.26,-310.58 363.72,-318.92 374.03,-316.47 370.26,-310.58"/>
</g>
<!-- Node14 -->
<g id="node14" class="node">
<title>Node14</title>
<g id="a_node14"><a xlink:href="liveness-broker_8h.html" target="_top" xlink:title=" ">
<polygon fill="white" stroke="black" points="291,-246.5 291,-276.5 407,-276.5 407,-246.5 291,-246.5"/>
<text text-anchor="start" x="299" y="-264.5" font-family="Helvetica,sans-Serif" font-size="10.00">include/cppgc/liveness</text>
<text text-anchor="middle" x="349" y="-253.5" font-family="Helvetica,sans-Serif" font-size="10.00">&#45;broker.h</text>
</a>
</g>
</g>
<!-- Node11&#45;&gt;Node14 -->
<g id="edge14" class="edge">
<title>Node11&#45;&gt;Node14</title>
<path fill="none" stroke="midnightblue" d="M349,-308.41C349,-298.22 349,-285.9 349,-276.59"/>
<polygon fill="midnightblue" stroke="midnightblue" points="345.5,-308.73 349,-318.73 352.5,-308.73 345.5,-308.73"/>
</g>
<!-- Node13 -->
<g id="node13" class="node">
<title>Node13</title>
<g id="a_node13"><a xlink:href="prefinalizer_8h.html" target="_top" xlink:title=" ">
<polygon fill="white" stroke="black" points="358.5,-123.5 358.5,-142.5 491.5,-142.5 491.5,-123.5 358.5,-123.5"/>
<text text-anchor="middle" x="425" y="-130.5" font-family="Helvetica,sans-Serif" font-size="10.00">include/cppgc/prefinalizer.h</text>
</a>
</g>
</g>
<!-- Node12&#45;&gt;Node13 -->
<g id="edge13" class="edge">
<title>Node12&#45;&gt;Node13</title>
<path fill="none" stroke="midnightblue" d="M447.89,-170.8C441.77,-160.96 434.97,-150.03 430.38,-142.66"/>
<polygon fill="midnightblue" stroke="midnightblue" points="444.98,-172.76 453.23,-179.4 450.92,-169.06 444.98,-172.76"/>
</g>
<!-- Node14&#45;&gt;Node7 -->
<g id="edge19" class="edge">
<title>Node14&#45;&gt;Node7</title>
<path fill="none" stroke="midnightblue" d="M345.22,-236.44C341.48,-219 334.31,-195.64 321,-179 307.52,-162.14 285.89,-149.94 269.67,-142.54"/>
<polygon fill="midnightblue" stroke="midnightblue" points="341.81,-237.26 347.13,-246.42 348.69,-235.95 341.81,-237.26"/>
</g>
<!-- Node14&#45;&gt;Node12 -->
<g id="edge17" class="edge">
<title>Node14&#45;&gt;Node12</title>
<path fill="none" stroke="midnightblue" d="M382.39,-241.3C400.07,-231.12 421.4,-218.85 437.53,-209.58"/>
<polygon fill="midnightblue" stroke="midnightblue" points="380.44,-238.38 373.52,-246.4 383.93,-244.44 380.44,-238.38"/>
</g>
<!-- Node14&#45;&gt;Node13 -->
<g id="edge18" class="edge">
<title>Node14&#45;&gt;Node13</title>
<path fill="none" stroke="midnightblue" d="M362.74,-237.63C379.79,-209.24 408.06,-162.2 419.72,-142.79"/>
<polygon fill="midnightblue" stroke="midnightblue" points="359.57,-236.1 357.42,-246.48 365.57,-239.71 359.57,-236.1"/>
</g>
<!-- Node15 -->
<g id="node15" class="node">
<title>Node15</title>
<g id="a_node15"><a xlink:href="ephemeron-pair_8h.html" target="_top" xlink:title=" ">
<polygon fill="white" stroke="black" points="184,-179.5 184,-209.5 312,-209.5 312,-179.5 184,-179.5"/>
<text text-anchor="start" x="192" y="-197.5" font-family="Helvetica,sans-Serif" font-size="10.00">include/cppgc/ephemeron</text>
<text text-anchor="middle" x="248" y="-186.5" font-family="Helvetica,sans-Serif" font-size="10.00">&#45;pair.h</text>
</a>
</g>
</g>
<!-- Node14&#45;&gt;Node15 -->
<g id="edge15" class="edge">
<title>Node14&#45;&gt;Node15</title>
<path fill="none" stroke="midnightblue" d="M318.29,-240.73C302.66,-230.68 284.03,-218.68 269.87,-209.58"/>
<polygon fill="midnightblue" stroke="midnightblue" points="316.78,-243.93 327.08,-246.4 320.57,-238.04 316.78,-243.93"/>
</g>
<!-- Node15&#45;&gt;Node7 -->
<g id="edge16" class="edge">
<title>Node15&#45;&gt;Node7</title>
<path fill="none" stroke="midnightblue" d="M248,-169.29C248,-159.86 248,-149.65 248,-142.66"/>
<polygon fill="midnightblue" stroke="midnightblue" points="244.5,-169.4 248,-179.4 251.5,-169.4 244.5,-169.4"/>
</g>
<!-- Node17&#45;&gt;Node3 -->
<g id="edge22" class="edge">
<title>Node17&#45;&gt;Node3</title>
<path fill="none" stroke="midnightblue" d="M633.6,-304.58C628.14,-295.24 622.01,-284.75 617.23,-276.58"/>
<polygon fill="midnightblue" stroke="midnightblue" points="630.69,-306.53 638.75,-313.4 636.73,-303 630.69,-306.53"/>
</g>
<!-- Node18&#45;&gt;Node17 -->
<g id="edge24" class="edge">
<title>Node18&#45;&gt;Node17</title>
<path fill="none" stroke="midnightblue" d="M609.09,-372.74C617.52,-363.12 627.19,-352.09 634.66,-343.58"/>
<polygon fill="midnightblue" stroke="midnightblue" points="606.33,-370.57 602.37,-380.4 611.59,-375.18 606.33,-370.57"/>
</g>
</g>
</svg>
