<?xml version="1.0" encoding="UTF-8" standalone="no"?>
<!DOCTYPE svg PUBLIC "-//W3C//DTD SVG 1.1//EN"
 "http://www.w3.org/Graphics/SVG/1.1/DTD/svg11.dtd">
<!-- Generated by graphviz version 2.49.3 (20211027.1534)
 -->
<!-- Title: include/cppgc/internal/api&#45;constants.h Pages: 1 -->
<svg width="654pt" height="553pt"
 viewBox="0.00 0.00 654.00 553.00" xmlns="http://www.w3.org/2000/svg" xmlns:xlink="http://www.w3.org/1999/xlink">
<g id="graph0" class="graph" transform="scale(1 1) rotate(0) translate(4 549)">
<title>include/cppgc/internal/api&#45;constants.h</title>
<polygon fill="white" stroke="transparent" points="-4,4 -4,-549 650,-549 650,4 -4,4"/>
<!-- Node1 -->
<g id="node1" class="node">
<title>Node1</title>
<g id="a_node1"><a xlink:title=" ">
<polygon fill="#bfbfbf" stroke="black" points="376.5,-514.5 376.5,-544.5 487.5,-544.5 487.5,-514.5 376.5,-514.5"/>
<text text-anchor="start" x="384.5" y="-532.5" font-family="Helvetica,sans-Serif" font-size="10.00">include/cppgc/internal</text>
<text text-anchor="middle" x="432" y="-521.5" font-family="Helvetica,sans-Serif" font-size="10.00">/api&#45;constants.h</text>
</a>
</g>
</g>
<!-- Node2 -->
<g id="node2" class="node">
<title>Node2</title>
<g id="a_node2"><a xlink:href="allocation_8h.html" target="_top" xlink:title=" ">
<polygon fill="white" stroke="black" points="136,-453 136,-472 264,-472 264,-453 136,-453"/>
<text text-anchor="middle" x="200" y="-460" font-family="Helvetica,sans-Serif" font-size="10.00">include/cppgc/allocation.h</text>
</a>
</g>
</g>
<!-- Node1&#45;&gt;Node2 -->
<g id="edge1" class="edge">
<title>Node1&#45;&gt;Node2</title>
<path fill="none" stroke="midnightblue" d="M372.22,-511.75C326.84,-499.04 266.33,-482.09 230.44,-472.03"/>
<polygon fill="midnightblue" stroke="midnightblue" points="371.37,-515.15 381.95,-514.48 373.26,-508.41 371.37,-515.15"/>
</g>
<!-- Node4 -->
<g id="node4" class="node">
<title>Node4</title>
<g id="a_node4"><a xlink:href="garbage-collected_8h.html" target="_top" xlink:title=" ">
<polygon fill="white" stroke="black" points="532,-313.5 532,-343.5 646,-343.5 646,-313.5 532,-313.5"/>
<text text-anchor="start" x="540" y="-331.5" font-family="Helvetica,sans-Serif" font-size="10.00">include/cppgc/garbage</text>
<text text-anchor="middle" x="589" y="-320.5" font-family="Helvetica,sans-Serif" font-size="10.00">&#45;collected.h</text>
</a>
</g>
</g>
<!-- Node1&#45;&gt;Node4 -->
<g id="edge3" class="edge">
<title>Node1&#45;&gt;Node4</title>
<path fill="none" stroke="midnightblue" d="M497.78,-519.52C524.13,-512.53 552.36,-500.1 570,-478 601.78,-438.18 596.03,-372.29 591.6,-343.59"/>
<polygon fill="midnightblue" stroke="midnightblue" points="496.69,-516.18 487.8,-521.94 498.34,-522.99 496.69,-516.18"/>
</g>
<!-- Node9 -->
<g id="node9" class="node">
<title>Node9</title>
<g id="a_node9"><a xlink:href="caged-heap-local-data_8h.html" target="_top" xlink:title=" ">
<polygon fill="white" stroke="black" points="439,-447.5 439,-477.5 561,-477.5 561,-447.5 439,-447.5"/>
<text text-anchor="start" x="447" y="-465.5" font-family="Helvetica,sans-Serif" font-size="10.00">include/cppgc/internal</text>
<text text-anchor="middle" x="500" y="-454.5" font-family="Helvetica,sans-Serif" font-size="10.00">/caged&#45;heap&#45;local&#45;data.h</text>
</a>
</g>
</g>
<!-- Node1&#45;&gt;Node9 -->
<g id="edge9" class="edge">
<title>Node1&#45;&gt;Node9</title>
<path fill="none" stroke="midnightblue" d="M454.17,-507.31C464.37,-497.56 476.19,-486.26 485.27,-477.58"/>
<polygon fill="midnightblue" stroke="midnightblue" points="451.57,-504.96 446.75,-514.4 456.4,-510.02 451.57,-504.96"/>
</g>
<!-- Node10 -->
<g id="node10" class="node">
<title>Node10</title>
<g id="a_node10"><a xlink:href="write-barrier_8h.html" target="_top" xlink:title=" ">
<polygon fill="white" stroke="black" points="309.5,-447.5 309.5,-477.5 420.5,-477.5 420.5,-447.5 309.5,-447.5"/>
<text text-anchor="start" x="317.5" y="-465.5" font-family="Helvetica,sans-Serif" font-size="10.00">include/cppgc/internal</text>
<text text-anchor="middle" x="365" y="-454.5" font-family="Helvetica,sans-Serif" font-size="10.00">/write&#45;barrier.h</text>
</a>
</g>
</g>
<!-- Node1&#45;&gt;Node10 -->
<g id="edge10" class="edge">
<title>Node1&#45;&gt;Node10</title>
<path fill="none" stroke="midnightblue" d="M410.16,-507.31C400.11,-497.56 388.46,-486.26 379.51,-477.58"/>
<polygon fill="midnightblue" stroke="midnightblue" points="407.85,-509.94 417.46,-514.4 412.72,-504.92 407.85,-509.94"/>
</g>
<!-- Node3 -->
<g id="node3" class="node">
<title>Node3</title>
<g id="a_node3"><a xlink:href="explicit-management_8h.html" target="_top" xlink:title=" ">
<polygon fill="white" stroke="black" points="117,-380.5 117,-410.5 227,-410.5 227,-380.5 117,-380.5"/>
<text text-anchor="start" x="125" y="-398.5" font-family="Helvetica,sans-Serif" font-size="10.00">include/cppgc/explicit</text>
<text text-anchor="middle" x="172" y="-387.5" font-family="Helvetica,sans-Serif" font-size="10.00">&#45;management.h</text>
</a>
</g>
</g>
<!-- Node2&#45;&gt;Node3 -->
<g id="edge2" class="edge">
<title>Node2&#45;&gt;Node3</title>
<path fill="none" stroke="midnightblue" d="M192.2,-443.39C187.73,-433.02 182.21,-420.2 178.07,-410.59"/>
<polygon fill="midnightblue" stroke="midnightblue" points="189.05,-444.93 196.22,-452.73 195.48,-442.16 189.05,-444.93"/>
</g>
<!-- Node5 -->
<g id="node5" class="node">
<title>Node5</title>
<g id="a_node5"><a xlink:href="visitor_8h.html" target="_top" xlink:title=" ">
<polygon fill="white" stroke="black" points="300.5,-123.5 300.5,-142.5 413.5,-142.5 413.5,-123.5 300.5,-123.5"/>
<text text-anchor="middle" x="357" y="-130.5" font-family="Helvetica,sans-Serif" font-size="10.00">include/cppgc/visitor.h</text>
</a>
</g>
</g>
<!-- Node4&#45;&gt;Node5 -->
<g id="edge4" class="edge">
<title>Node4&#45;&gt;Node5</title>
<path fill="none" stroke="midnightblue" d="M577.38,-303.86C560.29,-271.38 525.42,-213.11 480,-179 455.73,-160.77 423.32,-149.32 397.87,-142.53"/>
<polygon fill="midnightblue" stroke="midnightblue" points="574.42,-305.76 582.1,-313.06 580.65,-302.56 574.42,-305.76"/>
</g>
<!-- Node6 -->
<g id="node6" class="node">
<title>Node6</title>
<g id="a_node6"><a xlink:href="cross-thread-persistent_8h.html" target="_top" xlink:title=" ">
<polygon fill="white" stroke="black" points="77,-0.5 77,-30.5 181,-30.5 181,-0.5 77,-0.5"/>
<text text-anchor="start" x="85" y="-18.5" font-family="Helvetica,sans-Serif" font-size="10.00">include/cppgc/cross</text>
<text text-anchor="middle" x="129" y="-7.5" font-family="Helvetica,sans-Serif" font-size="10.00">&#45;thread&#45;persistent.h</text>
</a>
</g>
</g>
<!-- Node5&#45;&gt;Node6 -->
<g id="edge5" class="edge">
<title>Node5&#45;&gt;Node6</title>
<path fill="none" stroke="midnightblue" d="M330.79,-118.73C287.42,-96.75 201.08,-53.02 156.73,-30.55"/>
<polygon fill="midnightblue" stroke="midnightblue" points="329.36,-121.92 339.86,-123.32 332.52,-115.68 329.36,-121.92"/>
</g>
<!-- Node7 -->
<g id="node7" class="node">
<title>Node7</title>
<g id="a_node7"><a xlink:href="persistent_8h.html" target="_top" xlink:title=" ">
<polygon fill="white" stroke="black" points="64,-67.5 64,-86.5 194,-86.5 194,-67.5 64,-67.5"/>
<text text-anchor="middle" x="129" y="-74.5" font-family="Helvetica,sans-Serif" font-size="10.00">include/cppgc/persistent.h</text>
</a>
</g>
</g>
<!-- Node5&#45;&gt;Node7 -->
<g id="edge6" class="edge">
<title>Node5&#45;&gt;Node7</title>
<path fill="none" stroke="midnightblue" d="M310.93,-121.09C267.85,-110.89 204.41,-95.86 164.96,-86.52"/>
<polygon fill="midnightblue" stroke="midnightblue" points="310.34,-124.54 320.87,-123.44 311.95,-117.73 310.34,-124.54"/>
</g>
<!-- Node8 -->
<g id="node8" class="node">
<title>Node8</title>
<g id="a_node8"><a xlink:href="v8-cppgc_8h.html" target="_top" xlink:title=" ">
<polygon fill="white" stroke="black" points="355,-67.5 355,-86.5 453,-86.5 453,-67.5 355,-67.5"/>
<text text-anchor="middle" x="404" y="-74.5" font-family="Helvetica,sans-Serif" font-size="10.00">include/v8&#45;cppgc.h</text>
</a>
</g>
</g>
<!-- Node5&#45;&gt;Node8 -->
<g id="edge8" class="edge">
<title>Node5&#45;&gt;Node8</title>
<path fill="none" stroke="midnightblue" d="M371.42,-115.43C379.66,-105.97 389.65,-94.48 396.38,-86.75"/>
<polygon fill="midnightblue" stroke="midnightblue" points="368.69,-113.24 364.76,-123.08 373.97,-117.84 368.69,-113.24"/>
</g>
<!-- Node7&#45;&gt;Node6 -->
<g id="edge7" class="edge">
<title>Node7&#45;&gt;Node6</title>
<path fill="none" stroke="midnightblue" d="M129,-57.23C129,-48.59 129,-38.5 129,-30.52"/>
<polygon fill="midnightblue" stroke="midnightblue" points="125.5,-57.48 129,-67.48 132.5,-57.48 125.5,-57.48"/>
</g>
<!-- Node10&#45;&gt;Node8 -->
<g id="edge26" class="edge">
<title>Node10&#45;&gt;Node8</title>
<path fill="none" stroke="midnightblue" d="M430.36,-446.06C450.07,-438.47 470.13,-427.3 484,-411 508.17,-382.6 504,-366.8 504,-329.5 504,-329.5 504,-329.5 504,-193.5 504,-142.84 448.33,-103.48 420.07,-86.76"/>
<polygon fill="midnightblue" stroke="midnightblue" points="428.98,-442.84 420.75,-449.51 431.34,-449.43 428.98,-442.84"/>
</g>
<!-- Node11 -->
<g id="node11" class="node">
<title>Node11</title>
<g id="a_node11"><a xlink:href="heap-consistency_8h.html" target="_top" xlink:title=" ">
<polygon fill="white" stroke="black" points="374.5,-380.5 374.5,-410.5 475.5,-410.5 475.5,-380.5 374.5,-380.5"/>
<text text-anchor="start" x="382.5" y="-398.5" font-family="Helvetica,sans-Serif" font-size="10.00">include/cppgc/heap</text>
<text text-anchor="middle" x="425" y="-387.5" font-family="Helvetica,sans-Serif" font-size="10.00">&#45;consistency.h</text>
</a>
</g>
</g>
<!-- Node10&#45;&gt;Node11 -->
<g id="edge11" class="edge">
<title>Node10&#45;&gt;Node11</title>
<path fill="none" stroke="midnightblue" d="M384.82,-440.02C393.76,-430.34 404.07,-419.17 412.01,-410.58"/>
<polygon fill="midnightblue" stroke="midnightblue" points="382.23,-437.67 378.02,-447.4 387.37,-442.42 382.23,-437.67"/>
</g>
<!-- Node12 -->
<g id="node12" class="node">
<title>Node12</title>
<g id="a_node12"><a xlink:href="pointer-policies_8h.html" target="_top" xlink:title=" ">
<polygon fill="white" stroke="black" points="245.5,-380.5 245.5,-410.5 356.5,-410.5 356.5,-380.5 245.5,-380.5"/>
<text text-anchor="start" x="253.5" y="-398.5" font-family="Helvetica,sans-Serif" font-size="10.00">include/cppgc/internal</text>
<text text-anchor="middle" x="301" y="-387.5" font-family="Helvetica,sans-Serif" font-size="10.00">/pointer&#45;policies.h</text>
</a>
</g>
</g>
<!-- Node10&#45;&gt;Node12 -->
<g id="edge12" class="edge">
<title>Node10&#45;&gt;Node12</title>
<path fill="none" stroke="midnightblue" d="M343.85,-440.02C334.32,-430.34 323.33,-419.17 314.86,-410.58"/>
<polygon fill="midnightblue" stroke="midnightblue" points="341.6,-442.73 351.11,-447.4 346.59,-437.81 341.6,-442.73"/>
</g>
<!-- Node12&#45;&gt;Node5 -->
<g id="edge25" class="edge">
<title>Node12&#45;&gt;Node5</title>
<path fill="none" stroke="midnightblue" d="M346.16,-375.87C360.66,-367.93 375.64,-357.37 386,-344 423.98,-294.96 416.25,-271.41 425,-210 426.94,-196.36 431.52,-191.14 425,-179 415.62,-161.54 396.16,-149.72 380.45,-142.59"/>
<polygon fill="midnightblue" stroke="midnightblue" points="344.51,-372.77 337.23,-380.47 347.72,-379 344.51,-372.77"/>
</g>
<!-- Node12&#45;&gt;Node6 -->
<g id="edge13" class="edge">
<title>Node12&#45;&gt;Node6</title>
<path fill="none" stroke="midnightblue" d="M235.67,-379.66C173.35,-365.43 88.41,-345.85 85,-344 39,-319.04 0,-314.84 0,-262.5 0,-262.5 0,-262.5 0,-132 0,-81.95 54.57,-48.15 92.72,-30.63"/>
<polygon fill="midnightblue" stroke="midnightblue" points="234.94,-383.08 245.47,-381.89 236.49,-376.26 234.94,-383.08"/>
</g>
<!-- Node12&#45;&gt;Node7 -->
<g id="edge24" class="edge">
<title>Node12&#45;&gt;Node7</title>
<path fill="none" stroke="midnightblue" d="M241.55,-377.53C163.97,-353.6 38,-307.76 38,-262.5 38,-262.5 38,-262.5 38,-193.5 38,-144.23 89.72,-103.6 115.18,-86.59"/>
<polygon fill="midnightblue" stroke="midnightblue" points="240.64,-380.92 251.22,-380.48 242.68,-374.22 240.64,-380.92"/>
</g>
<!-- Node13 -->
<g id="node13" class="node">
<title>Node13</title>
<g id="a_node13"><a xlink:href="member_8h.html" target="_top" xlink:title=" ">
<polygon fill="white" stroke="black" points="255,-319 255,-338 377,-338 377,-319 255,-319"/>
<text text-anchor="middle" x="316" y="-326" font-family="Helvetica,sans-Serif" font-size="10.00">include/cppgc/member.h</text>
</a>
</g>
</g>
<!-- Node12&#45;&gt;Node13 -->
<g id="edge14" class="edge">
<title>Node12&#45;&gt;Node13</title>
<path fill="none" stroke="midnightblue" d="M306.52,-370.6C309.13,-359.28 312.09,-346.46 313.99,-338.19"/>
<polygon fill="midnightblue" stroke="midnightblue" points="303.09,-369.87 304.25,-380.4 309.91,-371.44 303.09,-369.87"/>
</g>
<!-- Node13&#45;&gt;Node5 -->
<g id="edge23" class="edge">
<title>Node13&#45;&gt;Node5</title>
<path fill="none" stroke="midnightblue" d="M334.06,-312.1C356.65,-291.52 394.16,-252.67 409,-210 413.53,-196.99 414.73,-191.53 409,-179 401.61,-162.82 385.2,-150.23 372.78,-142.53"/>
<polygon fill="midnightblue" stroke="midnightblue" points="331.64,-309.57 326.49,-318.83 336.29,-314.81 331.64,-309.57"/>
</g>
<!-- Node14 -->
<g id="node14" class="node">
<title>Node14</title>
<g id="a_node14"><a xlink:href="ephemeron-pair_8h.html" target="_top" xlink:title=" ">
<polygon fill="white" stroke="black" points="272,-179.5 272,-209.5 400,-209.5 400,-179.5 272,-179.5"/>
<text text-anchor="start" x="280" y="-197.5" font-family="Helvetica,sans-Serif" font-size="10.00">include/cppgc/ephemeron</text>
<text text-anchor="middle" x="336" y="-186.5" font-family="Helvetica,sans-Serif" font-size="10.00">&#45;pair.h</text>
</a>
</g>
</g>
<!-- Node13&#45;&gt;Node14 -->
<g id="edge15" class="edge">
<title>Node13&#45;&gt;Node14</title>
<path fill="none" stroke="midnightblue" d="M318.82,-308.89C322.86,-282.24 330.2,-233.8 333.84,-209.78"/>
<polygon fill="midnightblue" stroke="midnightblue" points="315.35,-308.43 317.31,-318.84 322.27,-309.48 315.35,-308.43"/>
</g>
<!-- Node15 -->
<g id="node15" class="node">
<title>Node15</title>
<g id="a_node15"><a xlink:href="liveness-broker_8h.html" target="_top" xlink:title=" ">
<polygon fill="white" stroke="black" points="186,-246.5 186,-276.5 302,-276.5 302,-246.5 186,-246.5"/>
<text text-anchor="start" x="194" y="-264.5" font-family="Helvetica,sans-Serif" font-size="10.00">include/cppgc/liveness</text>
<text text-anchor="middle" x="244" y="-253.5" font-family="Helvetica,sans-Serif" font-size="10.00">&#45;broker.h</text>
</a>
</g>
</g>
<!-- Node13&#45;&gt;Node15 -->
<g id="edge17" class="edge">
<title>Node13&#45;&gt;Node15</title>
<path fill="none" stroke="midnightblue" d="M298.75,-311.93C286.84,-301.18 271.14,-287 259.61,-276.59"/>
<polygon fill="midnightblue" stroke="midnightblue" points="296.52,-314.63 306.29,-318.73 301.21,-309.43 296.52,-314.63"/>
</g>
<!-- Node14&#45;&gt;Node5 -->
<g id="edge16" class="edge">
<title>Node14&#45;&gt;Node5</title>
<path fill="none" stroke="midnightblue" d="M344.33,-169.9C347.72,-160.3 351.42,-149.81 353.94,-142.66"/>
<polygon fill="midnightblue" stroke="midnightblue" points="341,-168.8 340.98,-179.4 347.61,-171.13 341,-168.8"/>
</g>
<!-- Node15&#45;&gt;Node5 -->
<g id="edge22" class="edge">
<title>Node15&#45;&gt;Node5</title>
<path fill="none" stroke="midnightblue" d="M244.25,-236.14C245.62,-218.55 250.04,-195.13 263,-179 277.73,-160.66 301.74,-149.34 321.81,-142.65"/>
<polygon fill="midnightblue" stroke="midnightblue" points="240.75,-236.06 243.74,-246.23 247.74,-236.42 240.75,-236.06"/>
</g>
<!-- Node15&#45;&gt;Node14 -->
<g id="edge18" class="edge">
<title>Node15&#45;&gt;Node14</title>
<path fill="none" stroke="midnightblue" d="M272.38,-240.45C286.53,-230.45 303.31,-218.6 316.08,-209.58"/>
<polygon fill="midnightblue" stroke="midnightblue" points="270.11,-237.77 263.96,-246.4 274.15,-243.48 270.11,-237.77"/>
</g>
<!-- Node16 -->
<g id="node16" class="node">
<title>Node16</title>
<g id="a_node16"><a xlink:href="prefinalizer-handler_8h.html" target="_top" xlink:title=" ">
<polygon fill="white" stroke="black" points="66.5,-179.5 66.5,-209.5 177.5,-209.5 177.5,-179.5 66.5,-179.5"/>
<text text-anchor="start" x="74.5" y="-197.5" font-family="Helvetica,sans-Serif" font-size="10.00">include/cppgc/internal</text>
<text text-anchor="middle" x="122" y="-186.5" font-family="Helvetica,sans-Serif" font-size="10.00">/prefinalizer&#45;handler.h</text>
</a>
</g>
</g>
<!-- Node15&#45;&gt;Node16 -->
<g id="edge19" class="edge">
<title>Node15&#45;&gt;Node16</title>
<path fill="none" stroke="midnightblue" d="M208.48,-241.57C189.29,-231.35 166,-218.94 148.42,-209.58"/>
<polygon fill="midnightblue" stroke="midnightblue" points="207.06,-244.78 217.53,-246.4 210.35,-238.6 207.06,-244.78"/>
</g>
<!-- Node17 -->
<g id="node17" class="node">
<title>Node17</title>
<g id="a_node17"><a xlink:href="prefinalizer_8h.html" target="_top" xlink:title=" ">
<polygon fill="white" stroke="black" points="118.5,-123.5 118.5,-142.5 251.5,-142.5 251.5,-123.5 118.5,-123.5"/>
<text text-anchor="middle" x="185" y="-130.5" font-family="Helvetica,sans-Serif" font-size="10.00">include/cppgc/prefinalizer.h</text>
</a>
</g>
</g>
<!-- Node15&#45;&gt;Node17 -->
<g id="edge21" class="edge">
<title>Node15&#45;&gt;Node17</title>
<path fill="none" stroke="midnightblue" d="M233.16,-237.26C219.9,-208.83 198.11,-162.11 189.1,-142.79"/>
<polygon fill="midnightblue" stroke="midnightblue" points="230.06,-238.9 237.46,-246.48 236.41,-235.94 230.06,-238.9"/>
</g>
<!-- Node16&#45;&gt;Node17 -->
<g id="edge20" class="edge">
<title>Node16&#45;&gt;Node17</title>
<path fill="none" stroke="midnightblue" d="M144.45,-172.3C155.26,-162.09 167.63,-150.41 175.83,-142.66"/>
<polygon fill="midnightblue" stroke="midnightblue" points="141.8,-169.99 136.93,-179.4 146.6,-175.08 141.8,-169.99"/>
</g>
</g>
</svg>
