<?xml version="1.0" encoding="UTF-8" standalone="no"?>
<!DOCTYPE svg PUBLIC "-//W3C//DTD SVG 1.1//EN"
 "http://www.w3.org/Graphics/SVG/1.1/DTD/svg11.dtd">
<!-- Generated by graphviz version 2.49.3 (20211027.1534)
 -->
<!-- Title: cppgc::internal::MemberBase::GetRaw Pages: 1 -->
<svg width="528pt" height="449pt"
 viewBox="0.00 0.00 528.00 449.00" xmlns="http://www.w3.org/2000/svg" xmlns:xlink="http://www.w3.org/1999/xlink">
<g id="graph0" class="graph" transform="scale(1 1) rotate(0) translate(4 445)">
<title>cppgc::internal::MemberBase::GetRaw</title>
<polygon fill="white" stroke="transparent" points="-4,4 -4,-445 524,-445 524,4 -4,4"/>
<!-- Node1 -->
<g id="node1" class="node">
<title>Node1</title>
<g id="a_node1"><a xlink:title=" ">
<polygon fill="#bfbfbf" stroke="black" points="379,-214.5 379,-244.5 520,-244.5 520,-214.5 379,-214.5"/>
<text text-anchor="start" x="387" y="-232.5" font-family="Helvetica,sans-Serif" font-size="10.00">cppgc::internal::MemberBase</text>
<text text-anchor="middle" x="449.5" y="-221.5" font-family="Helvetica,sans-Serif" font-size="10.00">::GetRaw</text>
</a>
</g>
</g>
<!-- Node2 -->
<g id="node2" class="node">
<title>Node2</title>
<g id="a_node2"><a xlink:href="classcppgc_1_1internal_1_1BasicMember.html#ab047f8c2b8c817aca366ed03456f8f69" target="_top" xlink:title=" ">
<polygon fill="white" stroke="black" points="179,-220 179,-239 343,-239 343,-220 179,-220"/>
<text text-anchor="middle" x="261" y="-227" font-family="Helvetica,sans-Serif" font-size="10.00">cppgc::internal::BasicMember::Get</text>
</a>
</g>
</g>
<!-- Node1&#45;&gt;Node2 -->
<g id="edge1" class="edge">
<title>Node1&#45;&gt;Node2</title>
<path fill="none" stroke="midnightblue" d="M368.63,-229.5C360.22,-229.5 351.67,-229.5 343.25,-229.5"/>
<polygon fill="midnightblue" stroke="midnightblue" points="368.79,-233 378.79,-229.5 368.79,-226 368.79,-233"/>
</g>
<!-- Node3 -->
<g id="node3" class="node">
<title>Node3</title>
<g id="a_node3"><a xlink:href="classcppgc_1_1internal_1_1BasicMember.html#a04b6b0de171d43db9495b3bf9da05383" target="_top" xlink:title=" ">
<polygon fill="white" stroke="black" points="0,-410.5 0,-440.5 143,-440.5 143,-410.5 0,-410.5"/>
<text text-anchor="start" x="8" y="-428.5" font-family="Helvetica,sans-Serif" font-size="10.00">cppgc::internal::BasicMember</text>
<text text-anchor="middle" x="71.5" y="-417.5" font-family="Helvetica,sans-Serif" font-size="10.00">::BasicMember</text>
</a>
</g>
</g>
<!-- Node2&#45;&gt;Node3 -->
<g id="edge2" class="edge">
<title>Node2&#45;&gt;Node3</title>
<path fill="none" stroke="midnightblue" d="M252.07,-248.47C236.41,-283.71 198.18,-359.48 143,-401.5 138.47,-404.95 133.42,-407.92 128.16,-410.47"/>
<polygon fill="midnightblue" stroke="midnightblue" points="255.29,-249.86 256.05,-239.3 248.86,-247.08 255.29,-249.86"/>
</g>
<!-- Node4 -->
<g id="node4" class="node">
<title>Node4</title>
<g id="a_node4"><a xlink:href="classcppgc_1_1LivenessBroker.html#a6d6b9f3609e18ef58d5caf93a3f3f95f" target="_top" xlink:title=" ">
<polygon fill="white" stroke="black" points="13.5,-361.5 13.5,-391.5 129.5,-391.5 129.5,-361.5 13.5,-361.5"/>
<text text-anchor="start" x="21.5" y="-379.5" font-family="Helvetica,sans-Serif" font-size="10.00">cppgc::LivenessBroker</text>
<text text-anchor="middle" x="71.5" y="-368.5" font-family="Helvetica,sans-Serif" font-size="10.00">::IsHeapObjectAlive</text>
</a>
</g>
</g>
<!-- Node2&#45;&gt;Node4 -->
<g id="edge3" class="edge">
<title>Node2&#45;&gt;Node4</title>
<path fill="none" stroke="midnightblue" d="M247.23,-247.72C227.68,-274.33 187.86,-323.8 143,-352.5 137.66,-355.91 131.79,-358.9 125.77,-361.5"/>
<polygon fill="midnightblue" stroke="midnightblue" points="250.27,-249.49 253.27,-239.33 244.59,-245.39 250.27,-249.49"/>
</g>
<!-- Node5 -->
<g id="node5" class="node">
<title>Node5</title>
<g id="a_node5"><a xlink:href="classcppgc_1_1internal_1_1BasicMember.html#aa11d97f26b6d1076c5d38d3cd7aa3642" target="_top" xlink:title=" ">
<polygon fill="white" stroke="black" points="0,-312.5 0,-342.5 143,-342.5 143,-312.5 0,-312.5"/>
<text text-anchor="start" x="8" y="-330.5" font-family="Helvetica,sans-Serif" font-size="10.00">cppgc::internal::BasicMember</text>
<text text-anchor="middle" x="71.5" y="-319.5" font-family="Helvetica,sans-Serif" font-size="10.00">::operator bool</text>
</a>
</g>
</g>
<!-- Node2&#45;&gt;Node5 -->
<g id="edge4" class="edge">
<title>Node2&#45;&gt;Node5</title>
<path fill="none" stroke="midnightblue" d="M238.65,-245.18C215.85,-261.4 178.22,-286.66 143,-303.5 136.23,-306.74 128.92,-309.74 121.64,-312.44"/>
<polygon fill="midnightblue" stroke="midnightblue" points="240.83,-247.92 246.91,-239.24 236.75,-242.24 240.83,-247.92"/>
</g>
<!-- Node6 -->
<g id="node6" class="node">
<title>Node6</title>
<g id="a_node6"><a xlink:href="classcppgc_1_1internal_1_1BasicMember.html#ad581b62049b232e53bd60812295b9e89" target="_top" xlink:title=" ">
<polygon fill="white" stroke="black" points="0,-263.5 0,-293.5 143,-293.5 143,-263.5 0,-263.5"/>
<text text-anchor="start" x="8" y="-281.5" font-family="Helvetica,sans-Serif" font-size="10.00">cppgc::internal::BasicMember</text>
<text text-anchor="middle" x="71.5" y="-270.5" font-family="Helvetica,sans-Serif" font-size="10.00">::operator T*</text>
</a>
</g>
</g>
<!-- Node2&#45;&gt;Node6 -->
<g id="edge5" class="edge">
<title>Node2&#45;&gt;Node6</title>
<path fill="none" stroke="midnightblue" d="M213.69,-241.6C188.41,-248.21 156.89,-256.45 130.04,-263.46"/>
<polygon fill="midnightblue" stroke="midnightblue" points="214.61,-244.98 223.4,-239.06 212.84,-238.21 214.61,-244.98"/>
</g>
<!-- Node7 -->
<g id="node7" class="node">
<title>Node7</title>
<g id="a_node7"><a xlink:href="classcppgc_1_1internal_1_1BasicMember.html#acc9065ca66a6b5c2b7e9ef698da704dd" target="_top" xlink:title=" ">
<polygon fill="white" stroke="black" points="0,-214.5 0,-244.5 143,-244.5 143,-214.5 0,-214.5"/>
<text text-anchor="start" x="8" y="-232.5" font-family="Helvetica,sans-Serif" font-size="10.00">cppgc::internal::BasicMember</text>
<text text-anchor="middle" x="71.5" y="-221.5" font-family="Helvetica,sans-Serif" font-size="10.00">::operator*</text>
</a>
</g>
</g>
<!-- Node2&#45;&gt;Node7 -->
<g id="edge6" class="edge">
<title>Node2&#45;&gt;Node7</title>
<path fill="none" stroke="midnightblue" d="M168.78,-229.5C160.18,-229.5 151.55,-229.5 143.18,-229.5"/>
<polygon fill="midnightblue" stroke="midnightblue" points="168.85,-233 178.85,-229.5 168.85,-226 168.85,-233"/>
</g>
<!-- Node8 -->
<g id="node8" class="node">
<title>Node8</title>
<g id="a_node8"><a xlink:href="classcppgc_1_1internal_1_1BasicMember.html#a869546e76dafd3fa752dae7e11d441c9" target="_top" xlink:title=" ">
<polygon fill="white" stroke="black" points="0,-165.5 0,-195.5 143,-195.5 143,-165.5 0,-165.5"/>
<text text-anchor="start" x="8" y="-183.5" font-family="Helvetica,sans-Serif" font-size="10.00">cppgc::internal::BasicMember</text>
<text text-anchor="middle" x="71.5" y="-172.5" font-family="Helvetica,sans-Serif" font-size="10.00">::operator&#45;&gt;</text>
</a>
</g>
</g>
<!-- Node2&#45;&gt;Node8 -->
<g id="edge7" class="edge">
<title>Node2&#45;&gt;Node8</title>
<path fill="none" stroke="midnightblue" d="M213.69,-217.4C188.41,-210.79 156.89,-202.55 130.04,-195.54"/>
<polygon fill="midnightblue" stroke="midnightblue" points="212.84,-220.79 223.4,-219.94 214.61,-214.02 212.84,-220.79"/>
</g>
<!-- Node9 -->
<g id="node9" class="node">
<title>Node9</title>
<g id="a_node9"><a xlink:href="classcppgc_1_1internal_1_1BasicMember.html#abe0688e901473e5e94109602a73c79f6" target="_top" xlink:title=" ">
<polygon fill="white" stroke="black" points="0,-98.5 0,-128.5 143,-128.5 143,-98.5 0,-98.5"/>
<text text-anchor="start" x="8" y="-116.5" font-family="Helvetica,sans-Serif" font-size="10.00">cppgc::internal::BasicMember</text>
<text text-anchor="middle" x="71.5" y="-105.5" font-family="Helvetica,sans-Serif" font-size="10.00">::operator=</text>
</a>
</g>
</g>
<!-- Node2&#45;&gt;Node9 -->
<g id="edge8" class="edge">
<title>Node2&#45;&gt;Node9</title>
<path fill="none" stroke="midnightblue" d="M235.85,-214.34C212.23,-199.52 175.2,-176.36 143,-156.5 127.87,-147.17 110.86,-136.79 97.33,-128.56"/>
<polygon fill="midnightblue" stroke="midnightblue" points="234.18,-217.42 244.51,-219.77 237.9,-211.49 234.18,-217.42"/>
</g>
<!-- Node10 -->
<g id="node10" class="node">
<title>Node10</title>
<g id="a_node10"><a xlink:href="classcppgc_1_1internal_1_1BasicMember.html#a7243a967ad9d8dce3b27aa09b931ad98" target="_top" xlink:title=" ">
<polygon fill="white" stroke="black" points="0,-49.5 0,-79.5 143,-79.5 143,-49.5 0,-49.5"/>
<text text-anchor="start" x="8" y="-67.5" font-family="Helvetica,sans-Serif" font-size="10.00">cppgc::internal::BasicMember</text>
<text text-anchor="middle" x="71.5" y="-56.5" font-family="Helvetica,sans-Serif" font-size="10.00">::Release</text>
</a>
</g>
</g>
<!-- Node2&#45;&gt;Node10 -->
<g id="edge10" class="edge">
<title>Node2&#45;&gt;Node10</title>
<path fill="none" stroke="midnightblue" d="M249.12,-210.93C230.82,-181.22 191.13,-122.97 143,-89.5 137.56,-85.72 131.49,-82.45 125.26,-79.64"/>
<polygon fill="midnightblue" stroke="midnightblue" points="246.32,-213.07 254.48,-219.83 252.32,-209.46 246.32,-213.07"/>
</g>
<!-- Node11 -->
<g id="node11" class="node">
<title>Node11</title>
<g id="a_node11"><a xlink:href="classcppgc_1_1internal_1_1BasicMember.html#a3c3517914f2c32b5e0375915d4cf843f" target="_top" xlink:title=" ">
<polygon fill="white" stroke="black" points="0,-0.5 0,-30.5 143,-30.5 143,-0.5 0,-0.5"/>
<text text-anchor="start" x="8" y="-18.5" font-family="Helvetica,sans-Serif" font-size="10.00">cppgc::internal::BasicMember</text>
<text text-anchor="middle" x="71.5" y="-7.5" font-family="Helvetica,sans-Serif" font-size="10.00">::Swap</text>
</a>
</g>
</g>
<!-- Node2&#45;&gt;Node11 -->
<g id="edge11" class="edge">
<title>Node2&#45;&gt;Node11</title>
<path fill="none" stroke="midnightblue" d="M252.96,-209.8C238.37,-171.68 201.24,-87.46 143,-40.5 138.25,-36.67 132.87,-33.4 127.24,-30.62"/>
<polygon fill="midnightblue" stroke="midnightblue" points="249.86,-211.51 256.62,-219.66 256.42,-209.07 249.86,-211.51"/>
</g>
<!-- Node9&#45;&gt;Node9 -->
<g id="edge9" class="edge">
<title>Node9&#45;&gt;Node9</title>
<path fill="none" stroke="midnightblue" d="M104.91,-138.96C100.76,-143.68 89.62,-147 71.5,-147 41.76,-147 30.84,-138.06 38.74,-128.66"/>
<polygon fill="midnightblue" stroke="midnightblue" points="108.38,-138.42 104.26,-128.66 101.39,-138.86 108.38,-138.42"/>
</g>
</g>
</svg>
