<?xml version="1.0" encoding="UTF-8" standalone="no"?>
<!DOCTYPE svg PUBLIC "-//W3C//DTD SVG 1.1//EN"
 "http://www.w3.org/Graphics/SVG/1.1/DTD/svg11.dtd">
<!-- Generated by graphviz version 2.49.3 (20211027.1534)
 -->
<!-- Title: v8::PersistentValueMapBase&lt; K, V, Traits &gt; Pages: 1 -->
<svg width="776pt" height="136pt"
 viewBox="0.00 0.00 776.00 135.66" xmlns="http://www.w3.org/2000/svg" xmlns:xlink="http://www.w3.org/1999/xlink">
<g id="graph0" class="graph" transform="scale(1 1) rotate(0) translate(4 131.66)">
<title>v8::PersistentValueMapBase&lt; K, V, Traits &gt;</title>
<polygon fill="white" stroke="transparent" points="-4,4 -4,-131.66 772,-131.66 772,4 -4,4"/>
<!-- Node1 -->
<g id="node1" class="node">
<title>Node1</title>
<g id="a_node1"><a xlink:title=" ">
<polygon fill="#bfbfbf" stroke="black" points="0,-53.58 0,-83.58 142,-83.58 142,-53.58 0,-53.58"/>
<text text-anchor="start" x="8" y="-71.58" font-family="Helvetica,sans-Serif" font-size="10.00">v8::PersistentValueMapBase</text>
<text text-anchor="middle" x="71" y="-60.58" font-family="Helvetica,sans-Serif" font-size="10.00">&lt; K, V, Traits &gt;</text>
</a>
</g>
</g>
<!-- Node2 -->
<g id="node2" class="node">
<title>Node2</title>
<g id="a_node2"><a xlink:href="classv8_1_1GlobalValueMap.html" target="_top" xlink:title=" ">
<polygon fill="white" stroke="black" points="446,-81.08 446,-122.08 597,-122.08 597,-81.08 446,-81.08"/>
<text text-anchor="start" x="454" y="-110.08" font-family="Helvetica,sans-Serif" font-size="10.00">v8::GlobalValueMap</text>
<text text-anchor="start" x="454" y="-99.08" font-family="Helvetica,sans-Serif" font-size="10.00">&lt; K, V, DefaultGlobalMapTraits</text>
<text text-anchor="middle" x="521.5" y="-88.08" font-family="Helvetica,sans-Serif" font-size="10.00">&lt; K, V &gt; &gt;</text>
</a>
</g>
</g>
<!-- Node1&#45;&gt;Node2 -->
<g id="edge1" class="edge">
<title>Node1&#45;&gt;Node2</title>
<path fill="none" stroke="midnightblue" d="M109.71,-87.92C129.74,-97.2 155.11,-107.4 179,-112.58 287.18,-136.01 317.72,-127.04 428,-117.58 433.85,-117.07 439.88,-116.4 445.92,-115.6"/>
<polygon fill="midnightblue" stroke="midnightblue" points="111.16,-84.73 100.62,-83.61 108.15,-91.06 111.16,-84.73"/>
</g>
<!-- Node4 -->
<g id="node4" class="node">
<title>Node4</title>
<g id="a_node4"><a xlink:href="classv8_1_1PersistentValueMap.html" target="_top" xlink:title=" ">
<polygon fill="white" stroke="black" points="447,-5.08 447,-46.08 596,-46.08 596,-5.08 447,-5.08"/>
<text text-anchor="start" x="455" y="-34.08" font-family="Helvetica,sans-Serif" font-size="10.00">v8::PersistentValueMap</text>
<text text-anchor="start" x="455" y="-23.08" font-family="Helvetica,sans-Serif" font-size="10.00">&lt; K, V, DefaultPersistentValue</text>
<text text-anchor="middle" x="521.5" y="-12.08" font-family="Helvetica,sans-Serif" font-size="10.00">MapTraits&lt; K, V &gt; &gt;</text>
</a>
</g>
</g>
<!-- Node1&#45;&gt;Node4 -->
<g id="edge3" class="edge">
<title>Node1&#45;&gt;Node4</title>
<path fill="none" stroke="midnightblue" d="M102.34,-48.02C122.96,-35.34 151.41,-20.25 179,-13.58 269.24,8.26 376.77,-1.09 446.73,-11.65"/>
<polygon fill="midnightblue" stroke="midnightblue" points="100.31,-45.16 93.73,-53.46 104.05,-51.08 100.31,-45.16"/>
</g>
<!-- Node6 -->
<g id="node6" class="node">
<title>Node6</title>
<g id="a_node6"><a xlink:href="classv8_1_1GlobalValueMap.html" target="_top" xlink:title=" ">
<polygon fill="white" stroke="black" points="187,-72.58 187,-102.58 290,-102.58 290,-72.58 187,-72.58"/>
<text text-anchor="start" x="195" y="-90.58" font-family="Helvetica,sans-Serif" font-size="10.00">v8::GlobalValueMap</text>
<text text-anchor="middle" x="238.5" y="-79.58" font-family="Helvetica,sans-Serif" font-size="10.00">&lt; K, V, Traits &gt;</text>
</a>
</g>
</g>
<!-- Node1&#45;&gt;Node6 -->
<g id="edge5" class="edge">
<title>Node1&#45;&gt;Node6</title>
<path fill="none" stroke="midnightblue" d="M152.43,-77.81C164.13,-79.15 175.89,-80.5 186.78,-81.75"/>
<polygon fill="midnightblue" stroke="midnightblue" points="152.52,-74.3 142.19,-76.63 151.72,-81.25 152.52,-74.3"/>
</g>
<!-- Node7 -->
<g id="node7" class="node">
<title>Node7</title>
<g id="a_node7"><a xlink:href="classv8_1_1PersistentValueMap.html" target="_top" xlink:title=" ">
<polygon fill="white" stroke="black" points="179,-23.58 179,-53.58 298,-53.58 298,-23.58 179,-23.58"/>
<text text-anchor="start" x="187" y="-41.58" font-family="Helvetica,sans-Serif" font-size="10.00">v8::PersistentValueMap</text>
<text text-anchor="middle" x="238.5" y="-30.58" font-family="Helvetica,sans-Serif" font-size="10.00">&lt; K, V, Traits &gt;</text>
</a>
</g>
</g>
<!-- Node1&#45;&gt;Node7 -->
<g id="edge7" class="edge">
<title>Node1&#45;&gt;Node7</title>
<path fill="none" stroke="midnightblue" d="M152.29,-54.02C161.28,-52.39 170.31,-50.76 178.95,-49.19"/>
<polygon fill="midnightblue" stroke="midnightblue" points="151.4,-50.63 142.19,-55.85 152.65,-57.51 151.4,-50.63"/>
</g>
<!-- Node3 -->
<g id="node3" class="node">
<title>Node3</title>
<g id="a_node3"><a xlink:href="classv8_1_1StdGlobalValueMap.html" target="_top" xlink:title=" ">
<polygon fill="white" stroke="black" points="642,-86.58 642,-116.58 760,-116.58 760,-86.58 642,-86.58"/>
<text text-anchor="start" x="650" y="-104.58" font-family="Helvetica,sans-Serif" font-size="10.00">v8::StdGlobalValueMap</text>
<text text-anchor="middle" x="701" y="-93.58" font-family="Helvetica,sans-Serif" font-size="10.00">&lt; K, V, Traits &gt;</text>
</a>
</g>
</g>
<!-- Node2&#45;&gt;Node3 -->
<g id="edge2" class="edge">
<title>Node2&#45;&gt;Node3</title>
<path fill="none" stroke="midnightblue" d="M607.26,-101.58C618.98,-101.58 630.79,-101.58 641.87,-101.58"/>
<polygon fill="midnightblue" stroke="midnightblue" points="607,-98.08 597,-101.58 607,-105.08 607,-98.08"/>
</g>
<!-- Node5 -->
<g id="node5" class="node">
<title>Node5</title>
<g id="a_node5"><a xlink:href="classv8_1_1StdPersistentValueMap.html" target="_top" xlink:title=" ">
<polygon fill="white" stroke="black" points="634,-10.58 634,-40.58 768,-40.58 768,-10.58 634,-10.58"/>
<text text-anchor="start" x="642" y="-28.58" font-family="Helvetica,sans-Serif" font-size="10.00">v8::StdPersistentValueMap</text>
<text text-anchor="middle" x="701" y="-17.58" font-family="Helvetica,sans-Serif" font-size="10.00">&lt; K, V, Traits &gt;</text>
</a>
</g>
</g>
<!-- Node4&#45;&gt;Node5 -->
<g id="edge4" class="edge">
<title>Node4&#45;&gt;Node5</title>
<path fill="none" stroke="midnightblue" d="M606.24,-25.58C615.51,-25.58 624.86,-25.58 633.87,-25.58"/>
<polygon fill="midnightblue" stroke="midnightblue" points="606.23,-22.08 596.23,-25.58 606.23,-29.08 606.23,-22.08"/>
</g>
<!-- Node6&#45;&gt;Node2 -->
<g id="edge6" class="edge">
<title>Node6&#45;&gt;Node2</title>
<path fill="none" stroke="orange" stroke-dasharray="5,2" d="M300.42,-89.82C337.35,-91.26 385.4,-93.29 428,-95.58 433.79,-95.89 439.77,-96.23 445.79,-96.59"/>
<polygon fill="orange" stroke="orange" points="300.45,-86.31 290.32,-89.42 300.17,-93.31 300.45,-86.31"/>
<text text-anchor="start" x="316" y="-109.58" font-family="Helvetica,sans-Serif" font-size="10.00"> &lt; K, V, DefaultGlobalMap</text>
<text text-anchor="middle" x="372" y="-98.58" font-family="Helvetica,sans-Serif" font-size="10.00">Traits&lt; K, V &gt; &gt;</text>
</g>
<!-- Node7&#45;&gt;Node4 -->
<g id="edge8" class="edge">
<title>Node7&#45;&gt;Node4</title>
<path fill="none" stroke="orange" stroke-dasharray="5,2" d="M308.22,-35.4C350.28,-33.45 404.07,-30.96 446.99,-28.98"/>
<polygon fill="orange" stroke="orange" points="307.89,-31.91 298.06,-35.87 308.22,-38.9 307.89,-31.91"/>
<text text-anchor="start" x="316" y="-49.58" font-family="Helvetica,sans-Serif" font-size="10.00"> &lt; K, V, DefaultPersistent</text>
<text text-anchor="middle" x="372" y="-38.58" font-family="Helvetica,sans-Serif" font-size="10.00">ValueMapTraits&lt; K, V &gt; &gt;</text>
</g>
</g>
</svg>
