<?xml version="1.0" encoding="UTF-8" standalone="no"?>
<!DOCTYPE svg PUBLIC "-//W3C//DTD SVG 1.1//EN"
 "http://www.w3.org/Graphics/SVG/1.1/DTD/svg11.dtd">
<!-- Generated by graphviz version 2.49.3 (20211027.1534)
 -->
<!-- Title: v8::PersistentValueMap::Set Pages: 1 -->
<svg width="819pt" height="274pt"
 viewBox="0.00 0.00 819.00 273.50" xmlns="http://www.w3.org/2000/svg" xmlns:xlink="http://www.w3.org/1999/xlink">
<g id="graph0" class="graph" transform="scale(1 1) rotate(0) translate(4 269.5)">
<title>v8::PersistentValueMap::Set</title>
<polygon fill="white" stroke="transparent" points="-4,4 -4,-269.5 815,-269.5 815,4 -4,4"/>
<!-- Node1 -->
<g id="node1" class="node">
<title>Node1</title>
<g id="a_node1"><a xlink:title=" ">
<polygon fill="#bfbfbf" stroke="black" points="0,-188.5 0,-207.5 139,-207.5 139,-188.5 0,-188.5"/>
<text text-anchor="middle" x="69.5" y="-195.5" font-family="Helvetica,sans-Serif" font-size="10.00">v8::PersistentValueMap::Set</text>
</a>
</g>
</g>
<!-- Node2 -->
<g id="node2" class="node">
<title>Node2</title>
<g id="a_node2"><a xlink:href="classv8_1_1PersistentValueMapBase.html#ac15c999275fb50c0084246cb9a848811" target="_top" xlink:title=" ">
<polygon fill="white" stroke="black" points="330,-235 330,-265 472,-265 472,-235 330,-235"/>
<text text-anchor="start" x="338" y="-253" font-family="Helvetica,sans-Serif" font-size="10.00">v8::PersistentValueMapBase</text>
<text text-anchor="middle" x="401" y="-242" font-family="Helvetica,sans-Serif" font-size="10.00">::isolate</text>
</a>
</g>
</g>
<!-- Node1&#45;&gt;Node2 -->
<g id="edge1" class="edge">
<title>Node1&#45;&gt;Node2</title>
<path fill="none" stroke="midnightblue" d="M130.94,-207.54C184.06,-215.92 261.78,-228.19 320.04,-237.38"/>
<polygon fill="midnightblue" stroke="midnightblue" points="319.52,-240.84 329.95,-238.94 320.62,-233.93 319.52,-240.84"/>
</g>
<!-- Node3 -->
<g id="node3" class="node">
<title>Node3</title>
<g id="a_node3"><a xlink:href="classv8_1_1PersistentValueMap.html#a69bb485985460550e40c08c7fe55f89c" target="_top" xlink:title=" ">
<polygon fill="white" stroke="black" points="175,-161 175,-191 294,-191 294,-161 175,-161"/>
<text text-anchor="start" x="183" y="-179" font-family="Helvetica,sans-Serif" font-size="10.00">v8::PersistentValueMap</text>
<text text-anchor="middle" x="234.5" y="-168" font-family="Helvetica,sans-Serif" font-size="10.00">::SetUnique</text>
</a>
</g>
</g>
<!-- Node1&#45;&gt;Node3 -->
<g id="edge2" class="edge">
<title>Node1&#45;&gt;Node3</title>
<path fill="none" stroke="midnightblue" d="M139.15,-188.73C147.72,-187.58 156.48,-186.39 165.05,-185.24"/>
<polygon fill="midnightblue" stroke="midnightblue" points="165.54,-188.7 174.99,-183.9 164.61,-181.77 165.54,-188.7"/>
</g>
<!-- Node3&#45;&gt;Node2 -->
<g id="edge8" class="edge">
<title>Node3&#45;&gt;Node2</title>
<path fill="none" stroke="midnightblue" d="M261.44,-191.14C280.13,-201.69 306.15,-215.68 330,-226 334.34,-227.88 338.88,-229.71 343.47,-231.48"/>
<polygon fill="midnightblue" stroke="midnightblue" points="342.33,-234.79 352.92,-234.99 344.77,-228.23 342.33,-234.79"/>
</g>
<!-- Node4 -->
<g id="node4" class="node">
<title>Node4</title>
<g id="a_node4"><a xlink:href="classv8_1_1PersistentValueMapBase.html#a243dfaf4ef5f9aa7bc178a660b14235a" target="_top" xlink:title=" ">
<polygon fill="white" stroke="black" points="330,-186 330,-216 472,-216 472,-186 330,-186"/>
<text text-anchor="start" x="338" y="-204" font-family="Helvetica,sans-Serif" font-size="10.00">v8::PersistentValueMapBase</text>
<text text-anchor="middle" x="401" y="-193" font-family="Helvetica,sans-Serif" font-size="10.00">::AnnotateStrongRetainer</text>
</a>
</g>
</g>
<!-- Node3&#45;&gt;Node4 -->
<g id="edge3" class="edge">
<title>Node3&#45;&gt;Node4</title>
<path fill="none" stroke="midnightblue" d="M294.42,-184.95C302.71,-186.21 311.33,-187.52 319.93,-188.83"/>
<polygon fill="midnightblue" stroke="midnightblue" points="319.57,-192.32 329.98,-190.36 320.62,-185.4 319.57,-192.32"/>
</g>
<!-- Node7 -->
<g id="node7" class="node">
<title>Node7</title>
<g id="a_node7"><a xlink:href="classv8_1_1PersistentValueMapBase.html#a7b083c75829bbc4177729ffe9827c4ac" target="_top" xlink:title=" ">
<polygon fill="white" stroke="black" points="330,-137 330,-167 472,-167 472,-137 330,-137"/>
<text text-anchor="start" x="338" y="-155" font-family="Helvetica,sans-Serif" font-size="10.00">v8::PersistentValueMapBase</text>
<text text-anchor="middle" x="401" y="-144" font-family="Helvetica,sans-Serif" font-size="10.00">::ClearAndLeak</text>
</a>
</g>
</g>
<!-- Node3&#45;&gt;Node7 -->
<g id="edge6" class="edge">
<title>Node3&#45;&gt;Node7</title>
<path fill="none" stroke="midnightblue" d="M294.42,-167.4C302.71,-166.19 311.33,-164.94 319.93,-163.68"/>
<polygon fill="midnightblue" stroke="midnightblue" points="320.59,-167.12 329.98,-162.22 319.58,-160.2 320.59,-167.12"/>
</g>
<!-- Node8 -->
<g id="node8" class="node">
<title>Node8</title>
<g id="a_node8"><a xlink:href="classv8_1_1PersistentValueMapBase.html#a149e5b7f40fa52dc9b379342ac802d94" target="_top" xlink:title=" ">
<polygon fill="white" stroke="black" points="330,-88 330,-118 472,-118 472,-88 330,-88"/>
<text text-anchor="start" x="338" y="-106" font-family="Helvetica,sans-Serif" font-size="10.00">v8::PersistentValueMapBase</text>
<text text-anchor="middle" x="401" y="-95" font-family="Helvetica,sans-Serif" font-size="10.00">::impl</text>
</a>
</g>
</g>
<!-- Node3&#45;&gt;Node8 -->
<g id="edge7" class="edge">
<title>Node3&#45;&gt;Node8</title>
<path fill="none" stroke="midnightblue" d="M261.88,-160.98C280.55,-150.68 306.38,-137.11 330,-127 334.35,-125.14 338.89,-123.32 343.49,-121.56"/>
<polygon fill="midnightblue" stroke="midnightblue" points="344.78,-124.82 352.95,-118.06 342.35,-118.25 344.78,-124.82"/>
</g>
<!-- Node9 -->
<g id="node9" class="node">
<title>Node9</title>
<g id="a_node9"><a xlink:href="classv8_1_1PersistentValueMapBase.html#aea9af944a2bd71a3b6abd2a2e57788f1" target="_top" xlink:title=" ">
<polygon fill="white" stroke="black" points="330,-39 330,-69 472,-69 472,-39 330,-39"/>
<text text-anchor="start" x="338" y="-57" font-family="Helvetica,sans-Serif" font-size="10.00">v8::PersistentValueMapBase</text>
<text text-anchor="middle" x="401" y="-46" font-family="Helvetica,sans-Serif" font-size="10.00">::Release</text>
</a>
</g>
</g>
<!-- Node3&#45;&gt;Node9 -->
<g id="edge9" class="edge">
<title>Node3&#45;&gt;Node9</title>
<path fill="none" stroke="midnightblue" d="M246.32,-160.9C262.33,-139.58 294.31,-100.72 330,-78 332.57,-76.36 335.27,-74.82 338.05,-73.38"/>
<polygon fill="midnightblue" stroke="midnightblue" points="339.59,-76.52 347.13,-69.07 336.59,-70.19 339.59,-76.52"/>
</g>
<!-- Node5 -->
<g id="node5" class="node">
<title>Node5</title>
<g id="a_node5"><a xlink:href="classv8_1_1PersistentBase.html#a27ddb6118b13225207e9641c1e6c8c91" target="_top" xlink:title=" ">
<polygon fill="white" stroke="black" points="516.5,-186 516.5,-216 641.5,-216 641.5,-186 516.5,-186"/>
<text text-anchor="start" x="524.5" y="-204" font-family="Helvetica,sans-Serif" font-size="10.00">v8::PersistentBase</text>
<text text-anchor="middle" x="579" y="-193" font-family="Helvetica,sans-Serif" font-size="10.00">::AnnotateStrongRetainer</text>
</a>
</g>
</g>
<!-- Node4&#45;&gt;Node5 -->
<g id="edge4" class="edge">
<title>Node4&#45;&gt;Node5</title>
<path fill="none" stroke="midnightblue" d="M472.07,-201C483.29,-201 494.93,-201 506.2,-201"/>
<polygon fill="midnightblue" stroke="midnightblue" points="506.42,-204.5 516.42,-201 506.42,-197.5 506.42,-204.5"/>
</g>
<!-- Node6 -->
<g id="node6" class="node">
<title>Node6</title>
<g id="a_node6"><a xlink:href="namespacev8_1_1api__internal.html#ab5087fcb15b792961e9ed786d7fe8837" target="_top" xlink:title=" ">
<polygon fill="white" stroke="black" points="686,-186 686,-216 811,-216 811,-186 686,-186"/>
<text text-anchor="start" x="694" y="-204" font-family="Helvetica,sans-Serif" font-size="10.00">v8::api_internal::Annotate</text>
<text text-anchor="middle" x="748.5" y="-193" font-family="Helvetica,sans-Serif" font-size="10.00">StrongRetainer</text>
</a>
</g>
</g>
<!-- Node5&#45;&gt;Node6 -->
<g id="edge5" class="edge">
<title>Node5&#45;&gt;Node6</title>
<path fill="none" stroke="midnightblue" d="M641.89,-201C652.88,-201 664.41,-201 675.65,-201"/>
<polygon fill="midnightblue" stroke="midnightblue" points="675.86,-204.5 685.86,-201 675.86,-197.5 675.86,-204.5"/>
</g>
<!-- Node10 -->
<g id="node10" class="node">
<title>Node10</title>
<g id="a_node10"><a xlink:href="classv8_1_1PersistentValueMapBase.html#abb262f768e4353658726ba4d1295947c" target="_top" xlink:title=" ">
<polygon fill="white" stroke="black" points="508,-88 508,-118 650,-118 650,-88 508,-88"/>
<text text-anchor="start" x="516" y="-106" font-family="Helvetica,sans-Serif" font-size="10.00">v8::PersistentValueMapBase</text>
<text text-anchor="middle" x="579" y="-95" font-family="Helvetica,sans-Serif" font-size="10.00">::FromVal</text>
</a>
</g>
</g>
<!-- Node9&#45;&gt;Node10 -->
<g id="edge10" class="edge">
<title>Node9&#45;&gt;Node10</title>
<path fill="none" stroke="midnightblue" d="M456.24,-69.1C474.56,-74.2 495.18,-79.94 514.17,-85.23"/>
<polygon fill="midnightblue" stroke="midnightblue" points="513.36,-88.64 523.94,-87.95 515.24,-81.89 513.36,-88.64"/>
</g>
<!-- Node11 -->
<g id="node11" class="node">
<title>Node11</title>
<g id="a_node11"><a xlink:href="classv8_1_1PersistentBase.html#a479c7b146da083aa608e133a7dec79f9" target="_top" xlink:title=" ">
<polygon fill="white" stroke="black" points="530,-39 530,-69 628,-69 628,-39 530,-39"/>
<text text-anchor="start" x="538" y="-57" font-family="Helvetica,sans-Serif" font-size="10.00">v8::PersistentBase</text>
<text text-anchor="middle" x="579" y="-46" font-family="Helvetica,sans-Serif" font-size="10.00">::IsWeak</text>
</a>
</g>
</g>
<!-- Node9&#45;&gt;Node11 -->
<g id="edge11" class="edge">
<title>Node9&#45;&gt;Node11</title>
<path fill="none" stroke="midnightblue" d="M472.07,-54C487.8,-54 504.33,-54 519.53,-54"/>
<polygon fill="midnightblue" stroke="midnightblue" points="519.82,-57.5 529.82,-54 519.82,-50.5 519.82,-57.5"/>
</g>
<!-- Node12 -->
<g id="node12" class="node">
<title>Node12</title>
<g id="a_node12"><a xlink:href="classv8_1_1Global.html#a914903149cc752468d4a3a11b6089c7e" target="_top" xlink:title=" ">
<polygon fill="white" stroke="black" points="536,-0.5 536,-19.5 622,-19.5 622,-0.5 536,-0.5"/>
<text text-anchor="middle" x="579" y="-7.5" font-family="Helvetica,sans-Serif" font-size="10.00">v8::Global::Pass</text>
</a>
</g>
</g>
<!-- Node9&#45;&gt;Node12 -->
<g id="edge12" class="edge">
<title>Node9&#45;&gt;Node12</title>
<path fill="none" stroke="midnightblue" d="M462.08,-38.98C484.24,-33.44 509.04,-27.24 530,-22"/>
<polygon fill="midnightblue" stroke="midnightblue" points="531.1,-25.33 539.95,-19.51 529.4,-18.54 531.1,-25.33"/>
</g>
</g>
</svg>
