<?xml version="1.0" encoding="UTF-8" standalone="no"?>
<!DOCTYPE svg PUBLIC "-//W3C//DTD SVG 1.1//EN"
 "http://www.w3.org/Graphics/SVG/1.1/DTD/svg11.dtd">
<!-- Generated by graphviz version 2.49.3 (20211027.1534)
 -->
<!-- Title: v8::Maybe::IsJust Pages: 1 -->
<svg width="537pt" height="192pt"
 viewBox="0.00 0.00 537.00 192.00" xmlns="http://www.w3.org/2000/svg" xmlns:xlink="http://www.w3.org/1999/xlink">
<g id="graph0" class="graph" transform="scale(1 1) rotate(0) translate(4 188)">
<title>v8::Maybe::IsJust</title>
<polygon fill="white" stroke="transparent" points="-4,4 -4,-188 533,-188 533,4 -4,4"/>
<!-- Node1 -->
<g id="node1" class="node">
<title>Node1</title>
<g id="a_node1"><a xlink:title=" ">
<polygon fill="#bfbfbf" stroke="black" points="437,-88.5 437,-107.5 529,-107.5 529,-88.5 437,-88.5"/>
<text text-anchor="middle" x="483" y="-95.5" font-family="Helvetica,sans-Serif" font-size="10.00">v8::Maybe::IsJust</text>
</a>
</g>
</g>
<!-- Node2 -->
<g id="node2" class="node">
<title>Node2</title>
<g id="a_node2"><a xlink:href="classv8_1_1Maybe.html#ab46c17e4dbe22c24bb345c75fe3a11a9" target="_top" xlink:title=" ">
<polygon fill="white" stroke="black" points="302,-164.5 302,-183.5 394,-183.5 394,-164.5 302,-164.5"/>
<text text-anchor="middle" x="348" y="-171.5" font-family="Helvetica,sans-Serif" font-size="10.00">v8::Maybe::Check</text>
</a>
</g>
</g>
<!-- Node1&#45;&gt;Node2 -->
<g id="edge1" class="edge">
<title>Node1&#45;&gt;Node2</title>
<path fill="none" stroke="midnightblue" d="M459.68,-113.52C443.69,-124.34 421.46,-138.78 401,-150 391.58,-155.16 380.86,-160.24 371.6,-164.39"/>
<polygon fill="midnightblue" stroke="midnightblue" points="462.03,-116.15 468.31,-107.62 458.08,-110.37 462.03,-116.15"/>
</g>
<!-- Node3 -->
<g id="node3" class="node">
<title>Node3</title>
<g id="a_node3"><a xlink:href="classv8_1_1Maybe.html#a95d278637faea00e4b221527a700f30d" target="_top" xlink:title=" ">
<polygon fill="white" stroke="black" points="295,-88.5 295,-107.5 401,-107.5 401,-88.5 295,-88.5"/>
<text text-anchor="middle" x="348" y="-95.5" font-family="Helvetica,sans-Serif" font-size="10.00">v8::Maybe::FromJust</text>
</a>
</g>
</g>
<!-- Node1&#45;&gt;Node3 -->
<g id="edge2" class="edge">
<title>Node1&#45;&gt;Node3</title>
<path fill="none" stroke="midnightblue" d="M426.84,-98C418.4,-98 409.7,-98 401.33,-98"/>
<polygon fill="midnightblue" stroke="midnightblue" points="426.97,-101.5 436.97,-98 426.97,-94.5 426.97,-101.5"/>
</g>
<!-- Node4 -->
<g id="node4" class="node">
<title>Node4</title>
<g id="a_node4"><a xlink:href="classv8_1_1Maybe.html#af190e1c503b1b5dca0eb6dc5ed264448" target="_top" xlink:title=" ">
<polygon fill="white" stroke="black" points="146,-126.5 146,-145.5 258,-145.5 258,-126.5 146,-126.5"/>
<text text-anchor="middle" x="202" y="-133.5" font-family="Helvetica,sans-Serif" font-size="10.00">v8::Maybe::operator==</text>
</a>
</g>
</g>
<!-- Node1&#45;&gt;Node4 -->
<g id="edge7" class="edge">
<title>Node1&#45;&gt;Node4</title>
<path fill="none" stroke="midnightblue" d="M436.14,-109.89C424.72,-112.54 412.46,-115.11 401,-117 353.12,-124.88 298.16,-129.83 258.31,-132.7"/>
<polygon fill="midnightblue" stroke="midnightblue" points="437,-113.28 445.92,-107.56 435.38,-106.47 437,-113.28"/>
</g>
<!-- Node8 -->
<g id="node8" class="node">
<title>Node8</title>
<g id="a_node8"><a xlink:href="classv8_1_1Maybe_3_01void_01_4.html#a3e50b2a7e2224c69fdde7abdddd79faf" target="_top" xlink:title=" ">
<polygon fill="white" stroke="black" points="298.5,-39 298.5,-69 397.5,-69 397.5,-39 298.5,-39"/>
<text text-anchor="start" x="306.5" y="-57" font-family="Helvetica,sans-Serif" font-size="10.00">v8::Maybe&lt; void &gt;::</text>
<text text-anchor="middle" x="348" y="-46" font-family="Helvetica,sans-Serif" font-size="10.00">operator==</text>
</a>
</g>
</g>
<!-- Node1&#45;&gt;Node8 -->
<g id="edge8" class="edge">
<title>Node1&#45;&gt;Node8</title>
<path fill="none" stroke="midnightblue" d="M443.48,-85.26C428.18,-80.2 410.47,-74.33 394.54,-69.07"/>
<polygon fill="midnightblue" stroke="midnightblue" points="442.55,-88.63 453.14,-88.45 444.75,-81.99 442.55,-88.63"/>
</g>
<!-- Node9 -->
<g id="node9" class="node">
<title>Node9</title>
<g id="a_node9"><a xlink:href="classv8_1_1Maybe.html#ab8c170efcf9fffa08fb75566fb3c8615" target="_top" xlink:title=" ">
<polygon fill="white" stroke="black" points="310,-0.5 310,-19.5 386,-19.5 386,-0.5 310,-0.5"/>
<text text-anchor="middle" x="348" y="-7.5" font-family="Helvetica,sans-Serif" font-size="10.00">v8::Maybe::To</text>
</a>
</g>
</g>
<!-- Node1&#45;&gt;Node9 -->
<g id="edge9" class="edge">
<title>Node1&#45;&gt;Node9</title>
<path fill="none" stroke="midnightblue" d="M465.67,-80.99C450.21,-65.67 425.73,-43.42 401,-29 394.69,-25.32 387.54,-22.15 380.61,-19.51"/>
<polygon fill="midnightblue" stroke="midnightblue" points="463.37,-83.63 472.89,-88.28 468.34,-78.71 463.37,-83.63"/>
</g>
<!-- Node3&#45;&gt;Node4 -->
<g id="edge3" class="edge">
<title>Node3&#45;&gt;Node4</title>
<path fill="none" stroke="midnightblue" d="M300.83,-110.18C280.84,-115.46 257.78,-121.54 239.08,-126.48"/>
<polygon fill="midnightblue" stroke="midnightblue" points="301.89,-113.52 310.66,-107.59 300.1,-106.76 301.89,-113.52"/>
</g>
<!-- Node7 -->
<g id="node7" class="node">
<title>Node7</title>
<g id="a_node7"><a xlink:href="classv8_1_1Maybe.html#af62c36e06bb55e8c3cecd1872a4f0fe7" target="_top" xlink:title=" ">
<polygon fill="white" stroke="black" points="145,-88.5 145,-107.5 259,-107.5 259,-88.5 145,-88.5"/>
<text text-anchor="middle" x="202" y="-95.5" font-family="Helvetica,sans-Serif" font-size="10.00">v8::Maybe::ToChecked</text>
</a>
</g>
</g>
<!-- Node3&#45;&gt;Node7 -->
<g id="edge6" class="edge">
<title>Node3&#45;&gt;Node7</title>
<path fill="none" stroke="midnightblue" d="M284.56,-98C276.22,-98 267.71,-98 259.48,-98"/>
<polygon fill="midnightblue" stroke="midnightblue" points="284.61,-101.5 294.61,-98 284.61,-94.5 284.61,-101.5"/>
</g>
<!-- Node5 -->
<g id="node5" class="node">
<title>Node5</title>
<g id="a_node5"><a xlink:href="classv8_1_1Maybe.html#a4d4ac6c3387f7148ea3b6ec6864b4940" target="_top" xlink:title=" ">
<polygon fill="white" stroke="black" points="0,-148.5 0,-167.5 109,-167.5 109,-148.5 0,-148.5"/>
<text text-anchor="middle" x="54.5" y="-155.5" font-family="Helvetica,sans-Serif" font-size="10.00">v8::Maybe::operator!=</text>
</a>
</g>
</g>
<!-- Node4&#45;&gt;Node5 -->
<g id="edge4" class="edge">
<title>Node4&#45;&gt;Node5</title>
<path fill="none" stroke="midnightblue" d="M135.96,-145.83C127,-147.19 117.87,-148.57 109.14,-149.89"/>
<polygon fill="midnightblue" stroke="midnightblue" points="136.63,-149.27 145.99,-144.32 135.58,-142.35 136.63,-149.27"/>
</g>
<!-- Node6 -->
<g id="node6" class="node">
<title>Node6</title>
<g id="a_node6"><a xlink:href="classv8_1_1Maybe_3_01void_01_4.html#aaf837c2e394c2e9c13ee64589da50c7e" target="_top" xlink:title=" ">
<polygon fill="white" stroke="black" points="5,-99 5,-129 104,-129 104,-99 5,-99"/>
<text text-anchor="start" x="13" y="-117" font-family="Helvetica,sans-Serif" font-size="10.00">v8::Maybe&lt; void &gt;::</text>
<text text-anchor="middle" x="54.5" y="-106" font-family="Helvetica,sans-Serif" font-size="10.00">operator!=</text>
</a>
</g>
</g>
<!-- Node4&#45;&gt;Node6 -->
<g id="edge5" class="edge">
<title>Node4&#45;&gt;Node6</title>
<path fill="none" stroke="midnightblue" d="M135.93,-126.16C125.32,-124.56 114.5,-122.92 104.38,-121.39"/>
<polygon fill="midnightblue" stroke="midnightblue" points="135.58,-129.65 145.99,-127.68 136.63,-122.73 135.58,-129.65"/>
</g>
</g>
</svg>
