<?xml version="1.0" encoding="UTF-8" standalone="no"?>
<!DOCTYPE svg PUBLIC "-//W3C//DTD SVG 1.1//EN"
 "http://www.w3.org/Graphics/SVG/1.1/DTD/svg11.dtd">
<!-- Generated by graphviz version 2.49.3 (20211027.1534)
 -->
<!-- Title: v8::Maybe::ToChecked Pages: 1 -->
<svg width="427pt" height="78pt"
 viewBox="0.00 0.00 427.00 77.50" xmlns="http://www.w3.org/2000/svg" xmlns:xlink="http://www.w3.org/1999/xlink">
<g id="graph0" class="graph" transform="scale(1 1) rotate(0) translate(4 73.5)">
<title>v8::Maybe::ToChecked</title>
<polygon fill="white" stroke="transparent" points="-4,4 -4,-73.5 423,-73.5 423,4 -4,4"/>
<!-- Node1 -->
<g id="node1" class="node">
<title>Node1</title>
<g id="a_node1"><a xlink:title=" ">
<polygon fill="#bfbfbf" stroke="black" points="0,-22.5 0,-41.5 114,-41.5 114,-22.5 0,-22.5"/>
<text text-anchor="middle" x="57" y="-29.5" font-family="Helvetica,sans-Serif" font-size="10.00">v8::Maybe::ToChecked</text>
</a>
</g>
</g>
<!-- Node2 -->
<g id="node2" class="node">
<title>Node2</title>
<g id="a_node2"><a xlink:href="classv8_1_1Maybe.html#a95d278637faea00e4b221527a700f30d" target="_top" xlink:title=" ">
<polygon fill="white" stroke="black" points="150,-22.5 150,-41.5 256,-41.5 256,-22.5 150,-22.5"/>
<text text-anchor="middle" x="203" y="-29.5" font-family="Helvetica,sans-Serif" font-size="10.00">v8::Maybe::FromJust</text>
</a>
</g>
</g>
<!-- Node1&#45;&gt;Node2 -->
<g id="edge1" class="edge">
<title>Node1&#45;&gt;Node2</title>
<path fill="none" stroke="midnightblue" d="M114.09,-32C122.4,-32 131,-32 139.43,-32"/>
<polygon fill="midnightblue" stroke="midnightblue" points="139.6,-35.5 149.6,-32 139.6,-28.5 139.6,-35.5"/>
</g>
<!-- Node3 -->
<g id="node3" class="node">
<title>Node3</title>
<g id="a_node3"><a xlink:href="namespacev8_1_1api__internal.html#a79db2a28ef30d7b1510ab031a0d59e14" target="_top" xlink:title=" ">
<polygon fill="white" stroke="black" points="292,-39 292,-69 419,-69 419,-39 292,-39"/>
<text text-anchor="start" x="300" y="-57" font-family="Helvetica,sans-Serif" font-size="10.00">v8::api_internal::FromJust</text>
<text text-anchor="middle" x="355.5" y="-46" font-family="Helvetica,sans-Serif" font-size="10.00">IsNothing</text>
</a>
</g>
</g>
<!-- Node2&#45;&gt;Node3 -->
<g id="edge2" class="edge">
<title>Node2&#45;&gt;Node3</title>
<path fill="none" stroke="midnightblue" d="M256.22,-39.63C264.45,-40.84 273.1,-42.1 281.7,-43.36"/>
<polygon fill="midnightblue" stroke="midnightblue" points="281.35,-46.84 291.75,-44.83 282.36,-39.92 281.35,-46.84"/>
</g>
<!-- Node4 -->
<g id="node4" class="node">
<title>Node4</title>
<g id="a_node4"><a xlink:href="classv8_1_1Maybe.html#ad2eaaef8cd0988f1fc95f2a71c1888c5" target="_top" xlink:title=" ">
<polygon fill="white" stroke="black" points="309.5,-0.5 309.5,-19.5 401.5,-19.5 401.5,-0.5 309.5,-0.5"/>
<text text-anchor="middle" x="355.5" y="-7.5" font-family="Helvetica,sans-Serif" font-size="10.00">v8::Maybe::IsJust</text>
</a>
</g>
</g>
<!-- Node2&#45;&gt;Node4 -->
<g id="edge3" class="edge">
<title>Node2&#45;&gt;Node4</title>
<path fill="none" stroke="midnightblue" d="M256.22,-24.37C270.15,-22.33 285.26,-20.12 299.34,-18.06"/>
<polygon fill="midnightblue" stroke="midnightblue" points="300,-21.5 309.39,-16.59 298.99,-14.58 300,-21.5"/>
</g>
</g>
</svg>
