<?xml version="1.0" encoding="UTF-8" standalone="no"?>
<!DOCTYPE svg PUBLIC "-//W3C//DTD SVG 1.1//EN"
 "http://www.w3.org/Graphics/SVG/1.1/DTD/svg11.dtd">
<!-- Generated by graphviz version 2.49.3 (20211027.1534)
 -->
<!-- Title: v8::BasicTracedReference::Get Pages: 1 -->
<svg width="275pt" height="46pt"
 viewBox="0.00 0.00 275.00 46.00" xmlns="http://www.w3.org/2000/svg" xmlns:xlink="http://www.w3.org/1999/xlink">
<g id="graph0" class="graph" transform="scale(1 1) rotate(0) translate(4 42)">
<title>v8::BasicTracedReference::Get</title>
<polygon fill="white" stroke="transparent" points="-4,4 -4,-42 271,-42 271,4 -4,4"/>
<!-- Node1 -->
<g id="node1" class="node">
<title>Node1</title>
<g id="a_node1"><a xlink:title=" ">
<polygon fill="#bfbfbf" stroke="black" points="0,-0.5 0,-19.5 151,-19.5 151,-0.5 0,-0.5"/>
<text text-anchor="middle" x="75.5" y="-7.5" font-family="Helvetica,sans-Serif" font-size="10.00">v8::BasicTracedReference::Get</text>
</a>
</g>
</g>
<!-- Node2 -->
<g id="node2" class="node">
<title>Node2</title>
<g id="a_node2"><a xlink:href="classv8_1_1Local.html#abccf96e442bc7c20dc6bb18ab095cf7f" target="_top" xlink:title=" ">
<polygon fill="white" stroke="black" points="187,-0.5 187,-19.5 267,-19.5 267,-0.5 187,-0.5"/>
<text text-anchor="middle" x="227" y="-7.5" font-family="Helvetica,sans-Serif" font-size="10.00">v8::Local::New</text>
</a>
</g>
</g>
<!-- Node1&#45;&gt;Node2 -->
<g id="edge1" class="edge">
<title>Node1&#45;&gt;Node2</title>
<path fill="none" stroke="midnightblue" d="M151.25,-10C159.87,-10 168.5,-10 176.66,-10"/>
<polygon fill="midnightblue" stroke="midnightblue" points="176.72,-13.5 186.72,-10 176.72,-6.5 176.72,-13.5"/>
</g>
<!-- Node2&#45;&gt;Node2 -->
<g id="edge2" class="edge">
<title>Node2&#45;&gt;Node2</title>
<path fill="none" stroke="midnightblue" d="M203.88,-19.76C192.63,-28.57 200.34,-38 227,-38 244.5,-38 253.83,-33.94 255,-28.65"/>
<polygon fill="midnightblue" stroke="midnightblue" points="258,-26.84 250.12,-19.76 251.86,-30.21 258,-26.84"/>
</g>
</g>
</svg>
