<?xml version="1.0" encoding="UTF-8" standalone="no"?>
<!DOCTYPE svg PUBLIC "-//W3C//DTD SVG 1.1//EN"
 "http://www.w3.org/Graphics/SVG/1.1/DTD/svg11.dtd">
<!-- Generated by graphviz version 2.49.3 (20211027.1534)
 -->
<!-- Title: v8::TracedGlobal::~TracedGlobal Pages: 1 -->
<svg width="430pt" height="137pt"
 viewBox="0.00 0.00 430.00 137.00" xmlns="http://www.w3.org/2000/svg" xmlns:xlink="http://www.w3.org/1999/xlink">
<g id="graph0" class="graph" transform="scale(1 1) rotate(0) translate(4 133)">
<title>v8::TracedGlobal::~TracedGlobal</title>
<polygon fill="white" stroke="transparent" points="-4,4 -4,-133 426,-133 426,4 -4,4"/>
<!-- Node1 -->
<g id="node1" class="node">
<title>Node1</title>
<g id="a_node1"><a xlink:title=" ">
<polygon fill="#bfbfbf" stroke="black" points="0,-49.5 0,-79.5 94,-79.5 94,-49.5 0,-49.5"/>
<text text-anchor="start" x="8" y="-67.5" font-family="Helvetica,sans-Serif" font-size="10.00">v8::TracedGlobal::</text>
<text text-anchor="middle" x="47" y="-56.5" font-family="Helvetica,sans-Serif" font-size="10.00">~TracedGlobal</text>
</a>
</g>
</g>
<!-- Node2 -->
<g id="node2" class="node">
<title>Node2</title>
<g id="a_node2"><a xlink:href="classv8_1_1TracedReferenceBase.html#a50c7297683f3c9864710ceca4aba546a" target="_top" xlink:title=" ">
<polygon fill="white" stroke="black" points="130,-49.5 130,-79.5 258,-79.5 258,-49.5 130,-49.5"/>
<text text-anchor="start" x="138" y="-67.5" font-family="Helvetica,sans-Serif" font-size="10.00">v8::TracedReferenceBase</text>
<text text-anchor="middle" x="194" y="-56.5" font-family="Helvetica,sans-Serif" font-size="10.00">::Reset</text>
</a>
</g>
</g>
<!-- Node1&#45;&gt;Node2 -->
<g id="edge1" class="edge">
<title>Node1&#45;&gt;Node2</title>
<path fill="none" stroke="midnightblue" d="M94.28,-64.5C102.44,-64.5 111.11,-64.5 119.8,-64.5"/>
<polygon fill="midnightblue" stroke="midnightblue" points="119.97,-68 129.97,-64.5 119.97,-61 119.97,-68"/>
</g>
<!-- Node3 -->
<g id="node3" class="node">
<title>Node3</title>
<g id="a_node3"><a xlink:href="namespacev8_1_1api__internal.html#a1e8da90354584f12bb1107564a2da29a" target="_top" xlink:title=" ">
<polygon fill="white" stroke="black" points="297.5,-98.5 297.5,-128.5 418.5,-128.5 418.5,-98.5 297.5,-98.5"/>
<text text-anchor="start" x="305.5" y="-116.5" font-family="Helvetica,sans-Serif" font-size="10.00">v8::api_internal::Dispose</text>
<text text-anchor="middle" x="358" y="-105.5" font-family="Helvetica,sans-Serif" font-size="10.00">TracedGlobal</text>
</a>
</g>
</g>
<!-- Node2&#45;&gt;Node3 -->
<g id="edge2" class="edge">
<title>Node2&#45;&gt;Node3</title>
<path fill="none" stroke="midnightblue" d="M244.93,-79.6C261.48,-84.61 280.07,-90.23 297.29,-95.44"/>
<polygon fill="midnightblue" stroke="midnightblue" points="296.65,-98.9 307.24,-98.45 298.68,-92.2 296.65,-98.9"/>
</g>
<!-- Node4 -->
<g id="node4" class="node">
<title>Node4</title>
<g id="a_node4"><a xlink:href="classv8_1_1TracedReferenceBase.html#a5a565780ec778a93a76f27bbba252f21" target="_top" xlink:title=" ">
<polygon fill="white" stroke="black" points="294,-49.5 294,-79.5 422,-79.5 422,-49.5 294,-49.5"/>
<text text-anchor="start" x="302" y="-67.5" font-family="Helvetica,sans-Serif" font-size="10.00">v8::TracedReferenceBase</text>
<text text-anchor="middle" x="358" y="-56.5" font-family="Helvetica,sans-Serif" font-size="10.00">::IsEmpty</text>
</a>
</g>
</g>
<!-- Node2&#45;&gt;Node4 -->
<g id="edge3" class="edge">
<title>Node2&#45;&gt;Node4</title>
<path fill="none" stroke="midnightblue" d="M258.1,-64.5C266.43,-64.5 275.04,-64.5 283.53,-64.5"/>
<polygon fill="midnightblue" stroke="midnightblue" points="283.81,-68 293.81,-64.5 283.81,-61 283.81,-68"/>
</g>
<!-- Node5 -->
<g id="node5" class="node">
<title>Node5</title>
<g id="a_node5"><a xlink:href="classv8_1_1TracedReferenceBase.html#af1bec2c9c7914446481eefa36e0846b5" target="_top" xlink:title=" ">
<polygon fill="white" stroke="black" points="294,-0.5 294,-30.5 422,-30.5 422,-0.5 294,-0.5"/>
<text text-anchor="start" x="302" y="-18.5" font-family="Helvetica,sans-Serif" font-size="10.00">v8::TracedReferenceBase</text>
<text text-anchor="middle" x="358" y="-7.5" font-family="Helvetica,sans-Serif" font-size="10.00">::SetSlotThreadSafe</text>
</a>
</g>
</g>
<!-- Node2&#45;&gt;Node5 -->
<g id="edge4" class="edge">
<title>Node2&#45;&gt;Node5</title>
<path fill="none" stroke="midnightblue" d="M244.93,-49.4C261.48,-44.39 280.07,-38.77 297.29,-33.56"/>
<polygon fill="midnightblue" stroke="midnightblue" points="298.68,-36.8 307.24,-30.55 296.65,-30.1 298.68,-36.8"/>
</g>
</g>
</svg>
