<?xml version="1.0" encoding="UTF-8" standalone="no"?>
<!DOCTYPE svg PUBLIC "-//W3C//DTD SVG 1.1//EN"
 "http://www.w3.org/Graphics/SVG/1.1/DTD/svg11.dtd">
<!-- Generated by graphviz version 2.49.3 (20211027.1534)
 -->
<!-- Title: include/cppgc Pages: 1 -->
<svg width="182pt" height="183pt"
 viewBox="0.00 0.00 182.00 183.00" xmlns="http://www.w3.org/2000/svg" xmlns:xlink="http://www.w3.org/1999/xlink">
<g id="graph0" class="graph" transform="scale(1 1) rotate(0) translate(4 179)">
<title>include/cppgc</title>
<polygon fill="white" stroke="transparent" points="-4,4 -4,-179 178,-179 178,4 -4,4"/>
<g id="clust1" class="cluster">
<title>clusterdir_d44c64559bbebec7f509842c48db8b23</title>
<g id="a_clust1"><a xlink:href="dir_d44c64559bbebec7f509842c48db8b23.html" target="_top" xlink:title="include">
<polygon fill="#ddddee" stroke="black" points="8,-8 8,-167 166,-167 166,-8 8,-8"/>
<text text-anchor="middle" x="87" y="-155" font-family="Helvetica,sans-Serif" font-size="10.00">include</text>
</a>
</g>
</g>
<g id="clust2" class="cluster">
<title>clusterdir_c3a29de58f961e253e7c5c44d07916b0</title>
<g id="a_clust2"><a xlink:href="dir_c3a29de58f961e253e7c5c44d07916b0.html" target="_top">
<polygon fill="#eeeeff" stroke="black" points="16,-16 16,-140 86,-140 86,-16 16,-16"/>
</a>
</g>
</g>
<!-- dir_4b115f4a4385e80dbbb632542e3abce3 -->
<g id="node1" class="node">
<title>dir_4b115f4a4385e80dbbb632542e3abce3</title>
<g id="a_node1"><a xlink:href="dir_4b115f4a4385e80dbbb632542e3abce3.html" target="_top" xlink:title="libplatform">
<polygon fill="none" stroke="black" points="158,-60 96,-60 96,-24 158,-24 158,-60"/>
<text text-anchor="middle" x="127" y="-39.5" font-family="Helvetica,sans-Serif" font-size="10.00">libplatform</text>
</a>
</g>
</g>
<!-- dir_c3a29de58f961e253e7c5c44d07916b0 -->
<g id="node2" class="node">
<title>dir_c3a29de58f961e253e7c5c44d07916b0</title>
<text text-anchor="middle" x="51" y="-111.5" font-family="Helvetica,sans-Serif" font-size="10.00">cppgc</text>
</g>
<!-- dir_c3a29de58f961e253e7c5c44d07916b0&#45;&gt;dir_4b115f4a4385e80dbbb632542e3abce3 -->
<g id="edge1" class="edge">
<title>dir_c3a29de58f961e253e7c5c44d07916b0&#45;&gt;dir_4b115f4a4385e80dbbb632542e3abce3</title>
<path fill="none" stroke="black" d="M69.79,-95.7C79.17,-87.05 90.68,-76.45 100.91,-67.03"/>
<polygon fill="black" stroke="black" points="103.45,-69.45 108.43,-60.1 98.7,-64.3 103.45,-69.45"/>
<g id="a_edge1&#45;headlabel"><a xlink:href="dir_000001_000003.html" target="_top" xlink:title="1">
<text text-anchor="middle" x="102.72" y="-71.48" font-family="Helvetica,sans-Serif" font-size="10.00">1</text>
</a>
</g>
</g>
<!-- dir_7c393fd3d067eeba5379a7db4bd22b0f -->
<g id="node3" class="node">
<title>dir_7c393fd3d067eeba5379a7db4bd22b0f</title>
<g id="a_node3"><a xlink:href="dir_7c393fd3d067eeba5379a7db4bd22b0f.html" target="_top" xlink:title="internal">
<polygon fill="white" stroke="black" points="78,-60 24,-60 24,-24 78,-24 78,-60"/>
<text text-anchor="middle" x="51" y="-39.5" font-family="Helvetica,sans-Serif" font-size="10.00">internal</text>
</a>
</g>
</g>
<!-- dir_c3a29de58f961e253e7c5c44d07916b0&#45;&gt;dir_7c393fd3d067eeba5379a7db4bd22b0f -->
<g id="edge2" class="edge">
<title>dir_c3a29de58f961e253e7c5c44d07916b0&#45;&gt;dir_7c393fd3d067eeba5379a7db4bd22b0f</title>
<path fill="none" stroke="black" d="M51,-95.7C51,-87.98 51,-78.71 51,-70.11"/>
<polygon fill="black" stroke="black" points="54.5,-70.1 51,-60.1 47.5,-70.1 54.5,-70.1"/>
<g id="a_edge2&#45;headlabel"><a xlink:href="dir_000001_000002.html" target="_top" xlink:title="15">
<text text-anchor="middle" x="57.34" y="-71.2" font-family="Helvetica,sans-Serif" font-size="10.00">15</text>
</a>
</g>
</g>
</g>
</svg>
