<?xml version="1.0" encoding="UTF-8" standalone="no"?>
<!DOCTYPE svg PUBLIC "-//W3C//DTD SVG 1.1//EN"
 "http://www.w3.org/Graphics/SVG/1.1/DTD/svg11.dtd">
<!-- Generated by graphviz version 2.49.3 (20211027.1534)
 -->
<!-- Title: v8::api_internal::MoveTracedGlobalReference Pages: 1 -->
<svg width="319pt" height="78pt"
 viewBox="0.00 0.00 319.00 77.50" xmlns="http://www.w3.org/2000/svg" xmlns:xlink="http://www.w3.org/1999/xlink">
<g id="graph0" class="graph" transform="scale(1 1) rotate(0) translate(4 73.5)">
<title>v8::api_internal::MoveTracedGlobalReference</title>
<polygon fill="white" stroke="transparent" points="-4,4 -4,-73.5 315,-73.5 315,4 -4,4"/>
<!-- Node1 -->
<g id="node1" class="node">
<title>Node1</title>
<g id="a_node1"><a xlink:title=" ">
<polygon fill="#bfbfbf" stroke="black" points="171,-22.5 171,-52.5 311,-52.5 311,-22.5 171,-22.5"/>
<text text-anchor="start" x="179" y="-40.5" font-family="Helvetica,sans-Serif" font-size="10.00">v8::api_internal::MoveTraced</text>
<text text-anchor="middle" x="241" y="-29.5" font-family="Helvetica,sans-Serif" font-size="10.00">GlobalReference</text>
</a>
</g>
</g>
<!-- Node2 -->
<g id="node2" class="node">
<title>Node2</title>
<g id="a_node2"><a xlink:href="classv8_1_1TracedGlobal.html#ab503b36deffc157eafc9065ce47ff5e1" target="_top" xlink:title=" ">
<polygon fill="white" stroke="black" points="0,-50 0,-69 135,-69 135,-50 0,-50"/>
<text text-anchor="middle" x="67.5" y="-57" font-family="Helvetica,sans-Serif" font-size="10.00">v8::TracedGlobal::operator=</text>
</a>
</g>
</g>
<!-- Node1&#45;&gt;Node2 -->
<g id="edge1" class="edge">
<title>Node1&#45;&gt;Node2</title>
<path fill="none" stroke="midnightblue" d="M160.77,-47.66C152.24,-48.76 143.61,-49.86 135.24,-50.94"/>
<polygon fill="midnightblue" stroke="midnightblue" points="161.27,-51.13 170.74,-46.38 160.37,-44.19 161.27,-51.13"/>
</g>
<!-- Node3 -->
<g id="node3" class="node">
<title>Node3</title>
<g id="a_node3"><a xlink:href="classv8_1_1TracedReference.html#a6247dec7732047a7c2844fb60118e7a0" target="_top" xlink:title=" ">
<polygon fill="white" stroke="black" points="14.5,-0.5 14.5,-30.5 120.5,-30.5 120.5,-0.5 14.5,-0.5"/>
<text text-anchor="start" x="22.5" y="-18.5" font-family="Helvetica,sans-Serif" font-size="10.00">v8::TracedReference</text>
<text text-anchor="middle" x="67.5" y="-7.5" font-family="Helvetica,sans-Serif" font-size="10.00">::operator=</text>
</a>
</g>
</g>
<!-- Node1&#45;&gt;Node3 -->
<g id="edge2" class="edge">
<title>Node1&#45;&gt;Node3</title>
<path fill="none" stroke="midnightblue" d="M160.46,-27.3C146.93,-25.56 133.19,-23.8 120.61,-22.18"/>
<polygon fill="midnightblue" stroke="midnightblue" points="160.37,-30.81 170.74,-28.62 161.27,-23.87 160.37,-30.81"/>
</g>
</g>
</svg>
