<?xml version="1.0" encoding="UTF-8" standalone="no"?>
<!DOCTYPE svg PUBLIC "-//W3C//DTD SVG 1.1//EN"
 "http://www.w3.org/Graphics/SVG/1.1/DTD/svg11.dtd">
<!-- Generated by graphviz version 2.49.3 (20211027.1534)
 -->
<!-- Title: include/cppgc/source&#45;location.h Pages: 1 -->
<svg width="958pt" height="486pt"
 viewBox="0.00 0.00 958.00 486.00" xmlns="http://www.w3.org/2000/svg" xmlns:xlink="http://www.w3.org/1999/xlink">
<g id="graph0" class="graph" transform="scale(1 1) rotate(0) translate(4 482)">
<title>include/cppgc/source&#45;location.h</title>
<polygon fill="white" stroke="transparent" points="-4,4 -4,-482 954,-482 954,4 -4,4"/>
<!-- Node1 -->
<g id="node1" class="node">
<title>Node1</title>
<g id="a_node1"><a xlink:title=" ">
<polygon fill="#bfbfbf" stroke="black" points="372.5,-447.5 372.5,-477.5 481.5,-477.5 481.5,-447.5 372.5,-447.5"/>
<text text-anchor="start" x="380.5" y="-465.5" font-family="Helvetica,sans-Serif" font-size="10.00">include/cppgc/source</text>
<text text-anchor="middle" x="427" y="-454.5" font-family="Helvetica,sans-Serif" font-size="10.00">&#45;location.h</text>
</a>
</g>
</g>
<!-- Node2 -->
<g id="node2" class="node">
<title>Node2</title>
<g id="a_node2"><a xlink:href="logging_8h.html" target="_top" xlink:title=" ">
<polygon fill="white" stroke="black" points="268.5,-190.5 268.5,-220.5 379.5,-220.5 379.5,-190.5 268.5,-190.5"/>
<text text-anchor="start" x="276.5" y="-208.5" font-family="Helvetica,sans-Serif" font-size="10.00">include/cppgc/internal</text>
<text text-anchor="middle" x="324" y="-197.5" font-family="Helvetica,sans-Serif" font-size="10.00">/logging.h</text>
</a>
</g>
</g>
<!-- Node1&#45;&gt;Node2 -->
<g id="edge1" class="edge">
<title>Node1&#45;&gt;Node2</title>
<path fill="none" stroke="midnightblue" d="M410.7,-439.19C404.93,-430.65 398.71,-420.64 394,-411 360.65,-342.72 336.26,-254.5 327.52,-220.61"/>
<polygon fill="midnightblue" stroke="midnightblue" points="407.89,-441.27 416.47,-447.48 413.63,-437.27 407.89,-441.27"/>
</g>
<!-- Node7 -->
<g id="node7" class="node">
<title>Node7</title>
<g id="a_node7"><a xlink:href="persistent_8h.html" target="_top" xlink:title=" ">
<polygon fill="white" stroke="black" points="367,-67.5 367,-86.5 497,-86.5 497,-67.5 367,-67.5"/>
<text text-anchor="middle" x="432" y="-74.5" font-family="Helvetica,sans-Serif" font-size="10.00">include/cppgc/persistent.h</text>
</a>
</g>
</g>
<!-- Node1&#45;&gt;Node7 -->
<g id="edge26" class="edge">
<title>Node1&#45;&gt;Node7</title>
<path fill="none" stroke="midnightblue" d="M421.18,-437.35C415.6,-412.01 408,-370.95 408,-335 408,-335 408,-335 408,-204.5 408,-159.57 422.8,-107.21 429.15,-86.79"/>
<polygon fill="midnightblue" stroke="midnightblue" points="417.79,-438.22 423.43,-447.19 424.62,-436.66 417.79,-438.22"/>
</g>
<!-- Node8 -->
<g id="node8" class="node">
<title>Node8</title>
<g id="a_node8"><a xlink:href="visitor_8h.html" target="_top" xlink:title=" ">
<polygon fill="white" stroke="black" points="474.5,-129 474.5,-148 587.5,-148 587.5,-129 474.5,-129"/>
<text text-anchor="middle" x="531" y="-136" font-family="Helvetica,sans-Serif" font-size="10.00">include/cppgc/visitor.h</text>
</a>
</g>
</g>
<!-- Node1&#45;&gt;Node8 -->
<g id="edge27" class="edge">
<title>Node1&#45;&gt;Node8</title>
<path fill="none" stroke="midnightblue" d="M434.68,-437.73C455.92,-371.96 514.8,-189.65 528.24,-148.03"/>
<polygon fill="midnightblue" stroke="midnightblue" points="431.35,-436.66 431.6,-447.25 438.01,-438.81 431.35,-436.66"/>
</g>
<!-- Node10 -->
<g id="node10" class="node">
<title>Node10</title>
<g id="a_node10"><a xlink:href="pointer-policies_8h.html" target="_top" xlink:title=" ">
<polygon fill="white" stroke="black" points="474.5,-380.5 474.5,-410.5 585.5,-410.5 585.5,-380.5 474.5,-380.5"/>
<text text-anchor="start" x="482.5" y="-398.5" font-family="Helvetica,sans-Serif" font-size="10.00">include/cppgc/internal</text>
<text text-anchor="middle" x="530" y="-387.5" font-family="Helvetica,sans-Serif" font-size="10.00">/pointer&#45;policies.h</text>
</a>
</g>
</g>
<!-- Node1&#45;&gt;Node10 -->
<g id="edge12" class="edge">
<title>Node1&#45;&gt;Node10</title>
<path fill="none" stroke="midnightblue" d="M457.88,-442.02C473.9,-431.9 493.13,-419.77 507.69,-410.58"/>
<polygon fill="midnightblue" stroke="midnightblue" points="455.94,-439.1 449.35,-447.4 459.67,-445.02 455.94,-439.1"/>
</g>
<!-- Node3 -->
<g id="node3" class="node">
<title>Node3</title>
<g id="a_node3"><a xlink:href="explicit-management_8h.html" target="_top" xlink:title=" ">
<polygon fill="white" stroke="black" points="0,-123.5 0,-153.5 110,-153.5 110,-123.5 0,-123.5"/>
<text text-anchor="start" x="8" y="-141.5" font-family="Helvetica,sans-Serif" font-size="10.00">include/cppgc/explicit</text>
<text text-anchor="middle" x="55" y="-130.5" font-family="Helvetica,sans-Serif" font-size="10.00">&#45;management.h</text>
</a>
</g>
</g>
<!-- Node2&#45;&gt;Node3 -->
<g id="edge2" class="edge">
<title>Node2&#45;&gt;Node3</title>
<path fill="none" stroke="midnightblue" d="M258.51,-188.67C213.07,-177.7 153.22,-163.23 110.2,-152.84"/>
<polygon fill="midnightblue" stroke="midnightblue" points="257.72,-192.09 268.26,-191.03 259.36,-185.28 257.72,-192.09"/>
</g>
<!-- Node4 -->
<g id="node4" class="node">
<title>Node4</title>
<g id="a_node4"><a xlink:href="caged-heap-local-data_8h.html" target="_top" xlink:title=" ">
<polygon fill="white" stroke="black" points="128,-123.5 128,-153.5 250,-153.5 250,-123.5 128,-123.5"/>
<text text-anchor="start" x="136" y="-141.5" font-family="Helvetica,sans-Serif" font-size="10.00">include/cppgc/internal</text>
<text text-anchor="middle" x="189" y="-130.5" font-family="Helvetica,sans-Serif" font-size="10.00">/caged&#45;heap&#45;local&#45;data.h</text>
</a>
</g>
</g>
<!-- Node2&#45;&gt;Node4 -->
<g id="edge3" class="edge">
<title>Node2&#45;&gt;Node4</title>
<path fill="none" stroke="midnightblue" d="M285.56,-185.99C264.16,-175.69 237.95,-163.07 218.24,-153.58"/>
<polygon fill="midnightblue" stroke="midnightblue" points="284.18,-189.21 294.71,-190.4 287.22,-182.9 284.18,-189.21"/>
</g>
<!-- Node5 -->
<g id="node5" class="node">
<title>Node5</title>
<g id="a_node5"><a xlink:href="persistent-node_8h.html" target="_top" xlink:title=" ">
<polygon fill="white" stroke="black" points="268.5,-123.5 268.5,-153.5 379.5,-153.5 379.5,-123.5 268.5,-123.5"/>
<text text-anchor="start" x="276.5" y="-141.5" font-family="Helvetica,sans-Serif" font-size="10.00">include/cppgc/internal</text>
<text text-anchor="middle" x="324" y="-130.5" font-family="Helvetica,sans-Serif" font-size="10.00">/persistent&#45;node.h</text>
</a>
</g>
</g>
<!-- Node2&#45;&gt;Node5 -->
<g id="edge4" class="edge">
<title>Node2&#45;&gt;Node5</title>
<path fill="none" stroke="midnightblue" d="M324,-180.11C324,-171.15 324,-161.32 324,-153.58"/>
<polygon fill="midnightblue" stroke="midnightblue" points="320.5,-180.4 324,-190.4 327.5,-180.4 320.5,-180.4"/>
</g>
<!-- Node2&#45;&gt;Node8 -->
<g id="edge8" class="edge">
<title>Node2&#45;&gt;Node8</title>
<path fill="none" stroke="midnightblue" d="M378.36,-187.43C418.73,-174.75 472.08,-158 503.84,-148.03"/>
<polygon fill="midnightblue" stroke="midnightblue" points="377.15,-184.14 368.66,-190.48 379.25,-190.82 377.15,-184.14"/>
</g>
<!-- Node6 -->
<g id="node6" class="node">
<title>Node6</title>
<g id="a_node6"><a xlink:href="cross-thread-persistent_8h.html" target="_top" xlink:title=" ">
<polygon fill="white" stroke="black" points="426,-0.5 426,-30.5 530,-30.5 530,-0.5 426,-0.5"/>
<text text-anchor="start" x="434" y="-18.5" font-family="Helvetica,sans-Serif" font-size="10.00">include/cppgc/cross</text>
<text text-anchor="middle" x="478" y="-7.5" font-family="Helvetica,sans-Serif" font-size="10.00">&#45;thread&#45;persistent.h</text>
</a>
</g>
</g>
<!-- Node5&#45;&gt;Node6 -->
<g id="edge5" class="edge">
<title>Node5&#45;&gt;Node6</title>
<path fill="none" stroke="midnightblue" d="M330.71,-113.57C335.99,-98.52 344.71,-79.62 358,-67 376.76,-49.17 402.75,-37.19 425.74,-29.39"/>
<polygon fill="midnightblue" stroke="midnightblue" points="327.32,-112.66 327.59,-123.25 333.99,-114.8 327.32,-112.66"/>
</g>
<!-- Node5&#45;&gt;Node7 -->
<g id="edge6" class="edge">
<title>Node5&#45;&gt;Node7</title>
<path fill="none" stroke="midnightblue" d="M358.48,-118.51C377.89,-107.81 401.19,-94.97 416.29,-86.66"/>
<polygon fill="midnightblue" stroke="midnightblue" points="356.66,-115.51 349.59,-123.4 360.04,-121.64 356.66,-115.51"/>
</g>
<!-- Node7&#45;&gt;Node6 -->
<g id="edge7" class="edge">
<title>Node7&#45;&gt;Node6</title>
<path fill="none" stroke="midnightblue" d="M444.73,-59.53C451.78,-50.42 460.44,-39.21 467.16,-30.52"/>
<polygon fill="midnightblue" stroke="midnightblue" points="441.94,-57.42 438.59,-67.48 447.48,-61.7 441.94,-57.42"/>
</g>
<!-- Node8&#45;&gt;Node6 -->
<g id="edge9" class="edge">
<title>Node8&#45;&gt;Node6</title>
<path fill="none" stroke="midnightblue" d="M525.34,-118.92C520.73,-104.51 513.74,-84.17 506,-67 500.31,-54.39 492.62,-40.7 486.74,-30.76"/>
<polygon fill="midnightblue" stroke="midnightblue" points="522.05,-120.13 528.38,-128.63 528.74,-118.05 522.05,-120.13"/>
</g>
<!-- Node8&#45;&gt;Node7 -->
<g id="edge10" class="edge">
<title>Node8&#45;&gt;Node7</title>
<path fill="none" stroke="midnightblue" d="M508.11,-123.74C488.99,-112.25 462.32,-96.22 446.16,-86.51"/>
<polygon fill="midnightblue" stroke="midnightblue" points="506.44,-126.82 516.82,-128.98 510.05,-120.82 506.44,-126.82"/>
</g>
<!-- Node9 -->
<g id="node9" class="node">
<title>Node9</title>
<g id="a_node9"><a xlink:href="v8-cppgc_8h.html" target="_top" xlink:title=" ">
<polygon fill="white" stroke="black" points="553,-67.5 553,-86.5 651,-86.5 651,-67.5 553,-67.5"/>
<text text-anchor="middle" x="602" y="-74.5" font-family="Helvetica,sans-Serif" font-size="10.00">include/v8&#45;cppgc.h</text>
</a>
</g>
</g>
<!-- Node8&#45;&gt;Node9 -->
<g id="edge11" class="edge">
<title>Node8&#45;&gt;Node9</title>
<path fill="none" stroke="midnightblue" d="M548.93,-122.47C562.51,-111.09 580.68,-95.87 591.85,-86.51"/>
<polygon fill="midnightblue" stroke="midnightblue" points="546.59,-119.87 541.17,-128.98 551.09,-125.23 546.59,-119.87"/>
</g>
<!-- Node10&#45;&gt;Node6 -->
<g id="edge13" class="edge">
<title>Node10&#45;&gt;Node6</title>
<path fill="none" stroke="midnightblue" d="M595.8,-389.24C713.98,-377.96 950,-346.31 950,-273.5 950,-273.5 950,-273.5 950,-137.5 950,-51.64 653.21,-25.86 530.32,-18.87"/>
<polygon fill="midnightblue" stroke="midnightblue" points="595.4,-385.76 585.77,-390.17 596.05,-392.73 595.4,-385.76"/>
</g>
<!-- Node10&#45;&gt;Node7 -->
<g id="edge24" class="edge">
<title>Node10&#45;&gt;Node7</title>
<path fill="none" stroke="midnightblue" d="M522.65,-370.76C502.58,-305.95 447.5,-128.04 434.69,-86.67"/>
<polygon fill="midnightblue" stroke="midnightblue" points="519.36,-371.97 525.66,-380.49 526.05,-369.9 519.36,-371.97"/>
</g>
<!-- Node10&#45;&gt;Node8 -->
<g id="edge25" class="edge">
<title>Node10&#45;&gt;Node8</title>
<path fill="none" stroke="midnightblue" d="M530.1,-370.21C530.31,-315.21 530.83,-183.19 530.97,-148.16"/>
<polygon fill="midnightblue" stroke="midnightblue" points="526.59,-370.41 530.06,-380.43 533.59,-370.44 526.59,-370.41"/>
</g>
<!-- Node11 -->
<g id="node11" class="node">
<title>Node11</title>
<g id="a_node11"><a xlink:href="member_8h.html" target="_top" xlink:title=" ">
<polygon fill="white" stroke="black" points="561,-324.5 561,-343.5 683,-343.5 683,-324.5 561,-324.5"/>
<text text-anchor="middle" x="622" y="-331.5" font-family="Helvetica,sans-Serif" font-size="10.00">include/cppgc/member.h</text>
</a>
</g>
</g>
<!-- Node10&#45;&gt;Node11 -->
<g id="edge14" class="edge">
<title>Node10&#45;&gt;Node11</title>
<path fill="none" stroke="midnightblue" d="M560.5,-374.78C576.8,-364.23 596.05,-351.78 608.61,-343.66"/>
<polygon fill="midnightblue" stroke="midnightblue" points="558.3,-372.03 551.8,-380.4 562.1,-377.91 558.3,-372.03"/>
</g>
<!-- Node11&#45;&gt;Node8 -->
<g id="edge23" class="edge">
<title>Node11&#45;&gt;Node8</title>
<path fill="none" stroke="midnightblue" d="M613.69,-315.32C594.8,-275.17 549.23,-178.26 535.19,-148.41"/>
<polygon fill="midnightblue" stroke="midnightblue" points="610.55,-316.88 617.97,-324.44 616.88,-313.9 610.55,-316.88"/>
</g>
<!-- Node12 -->
<g id="node12" class="node">
<title>Node12</title>
<g id="a_node12"><a xlink:href="ephemeron-pair_8h.html" target="_top" xlink:title=" ">
<polygon fill="white" stroke="black" points="588,-190.5 588,-220.5 716,-220.5 716,-190.5 588,-190.5"/>
<text text-anchor="start" x="596" y="-208.5" font-family="Helvetica,sans-Serif" font-size="10.00">include/cppgc/ephemeron</text>
<text text-anchor="middle" x="652" y="-197.5" font-family="Helvetica,sans-Serif" font-size="10.00">&#45;pair.h</text>
</a>
</g>
</g>
<!-- Node11&#45;&gt;Node12 -->
<g id="edge15" class="edge">
<title>Node11&#45;&gt;Node12</title>
<path fill="none" stroke="midnightblue" d="M626.4,-314.45C632.43,-289.03 643.13,-243.91 648.59,-220.89"/>
<polygon fill="midnightblue" stroke="midnightblue" points="622.96,-313.77 624.06,-324.31 629.78,-315.38 622.96,-313.77"/>
</g>
<!-- Node13 -->
<g id="node13" class="node">
<title>Node13</title>
<g id="a_node13"><a xlink:href="liveness-broker_8h.html" target="_top" xlink:title=" ">
<polygon fill="white" stroke="black" points="686,-257.5 686,-287.5 802,-287.5 802,-257.5 686,-257.5"/>
<text text-anchor="start" x="694" y="-275.5" font-family="Helvetica,sans-Serif" font-size="10.00">include/cppgc/liveness</text>
<text text-anchor="middle" x="744" y="-264.5" font-family="Helvetica,sans-Serif" font-size="10.00">&#45;broker.h</text>
</a>
</g>
</g>
<!-- Node11&#45;&gt;Node13 -->
<g id="edge17" class="edge">
<title>Node11&#45;&gt;Node13</title>
<path fill="none" stroke="midnightblue" d="M648.51,-320.07C668.21,-310.47 695.04,-297.38 715.25,-287.52"/>
<polygon fill="midnightblue" stroke="midnightblue" points="646.93,-316.95 639.48,-324.48 650,-323.24 646.93,-316.95"/>
</g>
<!-- Node12&#45;&gt;Node8 -->
<g id="edge16" class="edge">
<title>Node12&#45;&gt;Node8</title>
<path fill="none" stroke="midnightblue" d="M616.89,-185.64C593.74,-173.2 564.53,-157.51 546.84,-148.01"/>
<polygon fill="midnightblue" stroke="midnightblue" points="615.28,-188.75 625.74,-190.4 618.59,-182.58 615.28,-188.75"/>
</g>
<!-- Node13&#45;&gt;Node8 -->
<g id="edge22" class="edge">
<title>Node13&#45;&gt;Node8</title>
<path fill="none" stroke="midnightblue" d="M744.67,-247.24C743.83,-229.15 739.68,-205.06 725,-190 705.99,-170.5 637.72,-155.97 587.52,-147.62"/>
<polygon fill="midnightblue" stroke="midnightblue" points="741.17,-247.4 744.83,-257.34 748.17,-247.29 741.17,-247.4"/>
</g>
<!-- Node13&#45;&gt;Node12 -->
<g id="edge18" class="edge">
<title>Node13&#45;&gt;Node12</title>
<path fill="none" stroke="midnightblue" d="M715.62,-251.45C701.47,-241.45 684.69,-229.6 671.92,-220.58"/>
<polygon fill="midnightblue" stroke="midnightblue" points="713.85,-254.48 724.04,-257.4 717.89,-248.77 713.85,-254.48"/>
</g>
<!-- Node14 -->
<g id="node14" class="node">
<title>Node14</title>
<g id="a_node14"><a xlink:href="prefinalizer-handler_8h.html" target="_top" xlink:title=" ">
<polygon fill="white" stroke="black" points="810.5,-190.5 810.5,-220.5 921.5,-220.5 921.5,-190.5 810.5,-190.5"/>
<text text-anchor="start" x="818.5" y="-208.5" font-family="Helvetica,sans-Serif" font-size="10.00">include/cppgc/internal</text>
<text text-anchor="middle" x="866" y="-197.5" font-family="Helvetica,sans-Serif" font-size="10.00">/prefinalizer&#45;handler.h</text>
</a>
</g>
</g>
<!-- Node13&#45;&gt;Node14 -->
<g id="edge19" class="edge">
<title>Node13&#45;&gt;Node14</title>
<path fill="none" stroke="midnightblue" d="M779.52,-252.57C798.71,-242.35 822,-229.94 839.58,-220.58"/>
<polygon fill="midnightblue" stroke="midnightblue" points="777.65,-249.6 770.47,-257.4 780.94,-255.78 777.65,-249.6"/>
</g>
<!-- Node15 -->
<g id="node15" class="node">
<title>Node15</title>
<g id="a_node15"><a xlink:href="prefinalizer_8h.html" target="_top" xlink:title=" ">
<polygon fill="white" stroke="black" points="752.5,-129 752.5,-148 885.5,-148 885.5,-129 752.5,-129"/>
<text text-anchor="middle" x="819" y="-136" font-family="Helvetica,sans-Serif" font-size="10.00">include/cppgc/prefinalizer.h</text>
</a>
</g>
</g>
<!-- Node13&#45;&gt;Node15 -->
<g id="edge21" class="edge">
<title>Node13&#45;&gt;Node15</title>
<path fill="none" stroke="midnightblue" d="M757.07,-248.49C774.01,-218.68 802.71,-168.17 814.12,-148.1"/>
<polygon fill="midnightblue" stroke="midnightblue" points="753.92,-246.95 752.03,-257.37 760.01,-250.41 753.92,-246.95"/>
</g>
<!-- Node14&#45;&gt;Node15 -->
<g id="edge20" class="edge">
<title>Node14&#45;&gt;Node15</title>
<path fill="none" stroke="midnightblue" d="M849.71,-181.97C841.29,-170.33 831.51,-156.8 825.29,-148.19"/>
<polygon fill="midnightblue" stroke="midnightblue" points="847.11,-184.34 855.8,-190.4 852.78,-180.24 847.11,-184.34"/>
</g>
</g>
</svg>
