<?xml version="1.0" encoding="UTF-8" standalone="no"?>
<!DOCTYPE svg PUBLIC "-//W3C//DTD SVG 1.1//EN"
 "http://www.w3.org/Graphics/SVG/1.1/DTD/svg11.dtd">
<!-- Generated by graphviz version 2.49.3 (20211027.1534)
 -->
<!-- Title: include/v8&#45;data.h Pages: 1 -->
<svg width="1715pt" height="520pt"
 viewBox="0.00 0.00 1715.00 520.00" xmlns="http://www.w3.org/2000/svg" xmlns:xlink="http://www.w3.org/1999/xlink">
<g id="graph0" class="graph" transform="scale(1 1) rotate(0) translate(4 516)">
<title>include/v8&#45;data.h</title>
<polygon fill="white" stroke="transparent" points="-4,4 -4,-516 1711,-516 1711,4 -4,4"/>
<!-- Node1 -->
<g id="node1" class="node">
<title>Node1</title>
<g id="a_node1"><a xlink:title=" ">
<polygon fill="#bfbfbf" stroke="black" points="999.5,-492.5 999.5,-511.5 1089.5,-511.5 1089.5,-492.5 999.5,-492.5"/>
<text text-anchor="middle" x="1044.5" y="-499.5" font-family="Helvetica,sans-Serif" font-size="10.00">include/v8&#45;data.h</text>
</a>
</g>
</g>
<!-- Node2 -->
<g id="node2" class="node">
<title>Node2</title>
<g id="a_node2"><a xlink:href="v8-callbacks_8h.html" target="_top" xlink:title=" ">
<polygon fill="white" stroke="black" points="159,-380.5 159,-399.5 272,-399.5 272,-380.5 159,-380.5"/>
<text text-anchor="middle" x="215.5" y="-387.5" font-family="Helvetica,sans-Serif" font-size="10.00">include/v8&#45;callbacks.h</text>
</a>
</g>
</g>
<!-- Node1&#45;&gt;Node2 -->
<g id="edge1" class="edge">
<title>Node1&#45;&gt;Node2</title>
<path fill="none" stroke="midnightblue" d="M989.2,-497.64C898.52,-491.75 712.66,-478.03 556.5,-456 445.8,-440.38 316.48,-413.27 253.65,-399.52"/>
<polygon fill="midnightblue" stroke="midnightblue" points="989.05,-501.14 999.25,-498.29 989.5,-494.16 989.05,-501.14"/>
</g>
<!-- Node3 -->
<g id="node3" class="node">
<title>Node3</title>
<g id="a_node3"><a xlink:href="v8-isolate_8h.html" target="_top" xlink:title=" ">
<polygon fill="white" stroke="black" points="116.5,-140 116.5,-159 216.5,-159 216.5,-140 116.5,-140"/>
<text text-anchor="middle" x="166.5" y="-147" font-family="Helvetica,sans-Serif" font-size="10.00">include/v8&#45;isolate.h</text>
</a>
</g>
</g>
<!-- Node1&#45;&gt;Node3 -->
<g id="edge12" class="edge">
<title>Node1&#45;&gt;Node3</title>
<path fill="none" stroke="midnightblue" d="M989.29,-500.48C785.95,-497.83 90.5,-482.1 90.5,-391 90.5,-391 90.5,-391 90.5,-266 90.5,-219.19 134.6,-176.68 155.61,-159.08"/>
<polygon fill="midnightblue" stroke="midnightblue" points="989.4,-503.98 999.45,-500.6 989.49,-496.98 989.4,-503.98"/>
</g>
<!-- Node5 -->
<g id="node5" class="node">
<title>Node5</title>
<g id="a_node5"><a xlink:href="v8_8h.html" target="_top" xlink:title=" ">
<polygon fill="white" stroke="black" points="894.5,-6 894.5,-25 962.5,-25 962.5,-6 894.5,-6"/>
<text text-anchor="middle" x="928.5" y="-13" font-family="Helvetica,sans-Serif" font-size="10.00">include/v8.h</text>
</a>
</g>
</g>
<!-- Node1&#45;&gt;Node5 -->
<g id="edge62" class="edge">
<title>Node1&#45;&gt;Node5</title>
<path fill="none" stroke="midnightblue" d="M1099.84,-501.3C1237.34,-500.56 1583.5,-488.97 1583.5,-391 1583.5,-391 1583.5,-391 1583.5,-148.5 1583.5,-95.84 1545.51,-88.64 1497.5,-67 1401.1,-23.54 1070.47,-17.44 962.74,-16.62"/>
<polygon fill="midnightblue" stroke="midnightblue" points="1099.52,-497.8 1089.53,-501.34 1099.54,-504.8 1099.52,-497.8"/>
</g>
<!-- Node8 -->
<g id="node8" class="node">
<title>Node8</title>
<g id="a_node8"><a xlink:href="v8-context_8h.html" target="_top" xlink:title=" ">
<polygon fill="white" stroke="black" points="1452,-319 1452,-338 1555,-338 1555,-319 1452,-319"/>
<text text-anchor="middle" x="1503.5" y="-326" font-family="Helvetica,sans-Serif" font-size="10.00">include/v8&#45;context.h</text>
</a>
</g>
</g>
<!-- Node1&#45;&gt;Node8 -->
<g id="edge8" class="edge">
<title>Node1&#45;&gt;Node8</title>
<path fill="none" stroke="midnightblue" d="M1100.07,-496.58C1179.78,-488.14 1328.93,-464.41 1437.5,-400 1464.61,-383.92 1487.5,-353.44 1497.74,-338.38"/>
<polygon fill="midnightblue" stroke="midnightblue" points="1099.36,-493.13 1089.76,-497.62 1100.06,-500.09 1099.36,-493.13"/>
</g>
<!-- Node10 -->
<g id="node10" class="node">
<title>Node10</title>
<g id="a_node10"><a xlink:href="v8-primitive_8h.html" target="_top" xlink:title=" ">
<polygon fill="white" stroke="black" points="362.5,-380.5 362.5,-399.5 470.5,-399.5 470.5,-380.5 362.5,-380.5"/>
<text text-anchor="middle" x="416.5" y="-387.5" font-family="Helvetica,sans-Serif" font-size="10.00">include/v8&#45;primitive.h</text>
</a>
</g>
</g>
<!-- Node1&#45;&gt;Node10 -->
<g id="edge13" class="edge">
<title>Node1&#45;&gt;Node10</title>
<path fill="none" stroke="midnightblue" d="M989.13,-497.76C911.19,-492.54 764.96,-480.28 642.5,-456 568.01,-441.23 482.46,-413.61 441.24,-399.61"/>
<polygon fill="midnightblue" stroke="midnightblue" points="989,-501.26 999.2,-498.43 989.46,-494.28 989,-501.26"/>
</g>
<!-- Node14 -->
<g id="node14" class="node">
<title>Node14</title>
<g id="a_node14"><a xlink:href="v8-template_8h.html" target="_top" xlink:title=" ">
<polygon fill="white" stroke="black" points="480,-257.5 480,-276.5 589,-276.5 589,-257.5 480,-257.5"/>
<text text-anchor="middle" x="534.5" y="-264.5" font-family="Helvetica,sans-Serif" font-size="10.00">include/v8&#45;template.h</text>
</a>
</g>
</g>
<!-- Node1&#45;&gt;Node14 -->
<g id="edge54" class="edge">
<title>Node1&#45;&gt;Node14</title>
<path fill="none" stroke="midnightblue" d="M1016.46,-488.19C923.99,-445.94 630.22,-311.73 553.16,-276.52"/>
<polygon fill="midnightblue" stroke="midnightblue" points="1015.19,-491.46 1025.74,-492.43 1018.1,-485.09 1015.19,-491.46"/>
</g>
<!-- Node27 -->
<g id="node27" class="node">
<title>Node27</title>
<g id="a_node27"><a xlink:href="v8-script_8h.html" target="_top" xlink:title=" ">
<polygon fill="white" stroke="black" points="1612,-436.5 1612,-455.5 1707,-455.5 1707,-436.5 1612,-436.5"/>
<text text-anchor="middle" x="1659.5" y="-443.5" font-family="Helvetica,sans-Serif" font-size="10.00">include/v8&#45;script.h</text>
</a>
</g>
</g>
<!-- Node1&#45;&gt;Node27 -->
<g id="edge52" class="edge">
<title>Node1&#45;&gt;Node27</title>
<path fill="none" stroke="midnightblue" d="M1099.89,-497.65C1199.61,-491.36 1415.85,-476.55 1597.5,-456 1602.15,-455.47 1606.98,-454.87 1611.81,-454.23"/>
<polygon fill="midnightblue" stroke="midnightblue" points="1099.51,-494.17 1089.75,-498.29 1099.95,-501.15 1099.51,-494.17"/>
</g>
<!-- Node28 -->
<g id="node28" class="node">
<title>Node28</title>
<g id="a_node28"><a xlink:href="v8-value_8h.html" target="_top" xlink:title=" ">
<polygon fill="white" stroke="black" points="1116,-436.5 1116,-455.5 1211,-455.5 1211,-436.5 1116,-436.5"/>
<text text-anchor="middle" x="1163.5" y="-443.5" font-family="Helvetica,sans-Serif" font-size="10.00">include/v8&#45;value.h</text>
</a>
</g>
</g>
<!-- Node1&#45;&gt;Node28 -->
<g id="edge55" class="edge">
<title>Node1&#45;&gt;Node28</title>
<path fill="none" stroke="midnightblue" d="M1072.64,-488.23C1094.9,-478.13 1125.36,-464.31 1144.73,-455.52"/>
<polygon fill="midnightblue" stroke="midnightblue" points="1071.02,-485.12 1063.36,-492.44 1073.91,-491.5 1071.02,-485.12"/>
</g>
<!-- Node2&#45;&gt;Node3 -->
<g id="edge2" class="edge">
<title>Node2&#45;&gt;Node3</title>
<path fill="none" stroke="midnightblue" d="M185.68,-375.61C173.02,-368.23 159.58,-357.75 152.5,-344 119.52,-279.91 151.46,-187.75 162.83,-159.24"/>
<polygon fill="midnightblue" stroke="midnightblue" points="184.19,-378.78 194.65,-380.43 187.5,-372.61 184.19,-378.78"/>
</g>
<!-- Node4 -->
<g id="node4" class="node">
<title>Node4</title>
<g id="a_node4"><a xlink:href="v8-initialization_8h.html" target="_top" xlink:title=" ">
<polygon fill="white" stroke="black" points="167.5,-73 167.5,-92 289.5,-92 289.5,-73 167.5,-73"/>
<text text-anchor="middle" x="228.5" y="-80" font-family="Helvetica,sans-Serif" font-size="10.00">include/v8&#45;initialization.h</text>
</a>
</g>
</g>
<!-- Node3&#45;&gt;Node4 -->
<g id="edge3" class="edge">
<title>Node3&#45;&gt;Node4</title>
<path fill="none" stroke="midnightblue" d="M181.76,-132.5C193.92,-119.75 210.48,-102.39 220.27,-92.13"/>
<polygon fill="midnightblue" stroke="midnightblue" points="179.23,-130.08 174.86,-139.73 184.3,-134.91 179.23,-130.08"/>
</g>
<!-- Node3&#45;&gt;Node5 -->
<g id="edge7" class="edge">
<title>Node3&#45;&gt;Node5</title>
<path fill="none" stroke="midnightblue" d="M157.7,-130.43C150.15,-112.01 142.75,-83.82 158.5,-67 209.33,-12.73 751.05,-14.61 894.05,-16.06"/>
<polygon fill="midnightblue" stroke="midnightblue" points="154.6,-132.06 161.88,-139.76 160.98,-129.2 154.6,-132.06"/>
</g>
<!-- Node6 -->
<g id="node6" class="node">
<title>Node6</title>
<g id="a_node6"><a xlink:href="v8-inspector_8h.html" target="_top" xlink:title=" ">
<polygon fill="white" stroke="black" points="0,-73 0,-92 111,-92 111,-73 0,-73"/>
<text text-anchor="middle" x="55.5" y="-80" font-family="Helvetica,sans-Serif" font-size="10.00">include/v8&#45;inspector.h</text>
</a>
</g>
</g>
<!-- Node3&#45;&gt;Node6 -->
<g id="edge5" class="edge">
<title>Node3&#45;&gt;Node6</title>
<path fill="none" stroke="midnightblue" d="M142.79,-134.62C120.8,-121.74 88.76,-102.98 70.23,-92.13"/>
<polygon fill="midnightblue" stroke="midnightblue" points="141.13,-137.7 151.53,-139.73 144.67,-131.66 141.13,-137.7"/>
</g>
<!-- Node4&#45;&gt;Node5 -->
<g id="edge4" class="edge">
<title>Node4&#45;&gt;Node5</title>
<path fill="none" stroke="midnightblue" d="M278.46,-71.05C286.79,-69.53 295.37,-68.11 303.5,-67 527.85,-36.35 800.23,-22.17 894.48,-17.93"/>
<polygon fill="midnightblue" stroke="midnightblue" points="277.64,-67.64 268.46,-72.93 278.93,-74.52 277.64,-67.64"/>
</g>
<!-- Node7 -->
<g id="node7" class="node">
<title>Node7</title>
<g id="a_node7"><a xlink:href="v8-inspector-protocol_8h.html" target="_top" xlink:title=" ">
<polygon fill="white" stroke="black" points="3.5,-0.5 3.5,-30.5 107.5,-30.5 107.5,-0.5 3.5,-0.5"/>
<text text-anchor="start" x="11.5" y="-18.5" font-family="Helvetica,sans-Serif" font-size="10.00">include/v8&#45;inspector</text>
<text text-anchor="middle" x="55.5" y="-7.5" font-family="Helvetica,sans-Serif" font-size="10.00">&#45;protocol.h</text>
</a>
</g>
</g>
<!-- Node6&#45;&gt;Node7 -->
<g id="edge6" class="edge">
<title>Node6&#45;&gt;Node7</title>
<path fill="none" stroke="midnightblue" d="M55.5,-62.41C55.5,-52.22 55.5,-39.9 55.5,-30.59"/>
<polygon fill="midnightblue" stroke="midnightblue" points="52,-62.73 55.5,-72.73 59,-62.73 52,-62.73"/>
</g>
<!-- Node8&#45;&gt;Node5 -->
<g id="edge11" class="edge">
<title>Node8&#45;&gt;Node5</title>
<path fill="none" stroke="midnightblue" d="M1514.16,-310.09C1526.61,-288.09 1545.5,-248.64 1545.5,-212 1545.5,-212 1545.5,-212 1545.5,-148.5 1545.5,-28.28 1091.9,-17.18 962.55,-16.45"/>
<polygon fill="midnightblue" stroke="midnightblue" points="1511.03,-308.51 1508.99,-318.91 1517.07,-312.05 1511.03,-308.51"/>
</g>
<!-- Node9 -->
<g id="node9" class="node">
<title>Node9</title>
<g id="a_node9"><a xlink:href="v8-proxy_8h.html" target="_top" xlink:title=" ">
<polygon fill="white" stroke="black" points="1346.5,-257.5 1346.5,-276.5 1440.5,-276.5 1440.5,-257.5 1346.5,-257.5"/>
<text text-anchor="middle" x="1393.5" y="-264.5" font-family="Helvetica,sans-Serif" font-size="10.00">include/v8&#45;proxy.h</text>
</a>
</g>
</g>
<!-- Node8&#45;&gt;Node9 -->
<g id="edge9" class="edge">
<title>Node8&#45;&gt;Node9</title>
<path fill="none" stroke="midnightblue" d="M1478.93,-314.21C1457.63,-302.69 1427.43,-286.36 1409.23,-276.51"/>
<polygon fill="midnightblue" stroke="midnightblue" points="1477.28,-317.3 1487.74,-318.98 1480.61,-311.14 1477.28,-317.3"/>
</g>
<!-- Node9&#45;&gt;Node5 -->
<g id="edge10" class="edge">
<title>Node9&#45;&gt;Node5</title>
<path fill="none" stroke="midnightblue" d="M1396.81,-247.3C1402.66,-207.62 1409.83,-114.75 1359.5,-67 1330.84,-39.81 1059.81,-23.27 962.81,-18.19"/>
<polygon fill="midnightblue" stroke="midnightblue" points="1393.35,-246.77 1395.21,-257.2 1400.26,-247.88 1393.35,-246.77"/>
</g>
<!-- Node10&#45;&gt;Node3 -->
<g id="edge24" class="edge">
<title>Node10&#45;&gt;Node3</title>
<path fill="none" stroke="midnightblue" d="M352.36,-381.3C303.03,-374.11 240.22,-361.81 221.5,-344 166.84,-292.01 165.26,-190 166.11,-159.39"/>
<polygon fill="midnightblue" stroke="midnightblue" points="351.96,-384.78 362.35,-382.71 352.94,-377.85 351.96,-384.78"/>
</g>
<!-- Node10&#45;&gt;Node5 -->
<g id="edge51" class="edge">
<title>Node10&#45;&gt;Node5</title>
<path fill="none" stroke="midnightblue" d="M385.41,-376.12C369.48,-368.46 350.55,-357.57 336.5,-344 284.87,-294.15 225.8,-263.26 261.5,-201 320.16,-98.71 378.64,-104.33 490.5,-67 634.81,-18.84 819.05,-15.02 894.23,-15.72"/>
<polygon fill="midnightblue" stroke="midnightblue" points="384.31,-379.47 394.86,-380.48 387.24,-373.11 384.31,-379.47"/>
</g>
<!-- Node11 -->
<g id="node11" class="node">
<title>Node11</title>
<g id="a_node11"><a xlink:href="v8-extension_8h.html" target="_top" xlink:title=" ">
<polygon fill="white" stroke="black" points="271,-201.5 271,-220.5 384,-220.5 384,-201.5 271,-201.5"/>
<text text-anchor="middle" x="327.5" y="-208.5" font-family="Helvetica,sans-Serif" font-size="10.00">include/v8&#45;extension.h</text>
</a>
</g>
</g>
<!-- Node10&#45;&gt;Node11 -->
<g id="edge14" class="edge">
<title>Node10&#45;&gt;Node11</title>
<path fill="none" stroke="midnightblue" d="M392.98,-374.9C381.37,-366.99 367.88,-356.26 358.5,-344 338.88,-318.37 337.57,-308.49 330.5,-277 326.04,-257.16 326.37,-233.09 326.96,-220.54"/>
<polygon fill="midnightblue" stroke="midnightblue" points="391.1,-377.85 401.39,-380.37 394.92,-371.98 391.1,-377.85"/>
</g>
<!-- Node12 -->
<g id="node12" class="node">
<title>Node12</title>
<g id="a_node12"><a xlink:href="v8-function-callback_8h.html" target="_top" xlink:title=" ">
<polygon fill="white" stroke="black" points="367.5,-313.5 367.5,-343.5 465.5,-343.5 465.5,-313.5 367.5,-313.5"/>
<text text-anchor="start" x="375.5" y="-331.5" font-family="Helvetica,sans-Serif" font-size="10.00">include/v8&#45;function</text>
<text text-anchor="middle" x="416.5" y="-320.5" font-family="Helvetica,sans-Serif" font-size="10.00">&#45;callback.h</text>
</a>
</g>
</g>
<!-- Node10&#45;&gt;Node12 -->
<g id="edge16" class="edge">
<title>Node10&#45;&gt;Node12</title>
<path fill="none" stroke="midnightblue" d="M416.5,-370.23C416.5,-361.59 416.5,-351.5 416.5,-343.52"/>
<polygon fill="midnightblue" stroke="midnightblue" points="413,-370.48 416.5,-380.48 420,-370.48 413,-370.48"/>
</g>
<!-- Node16 -->
<g id="node16" class="node">
<title>Node16</title>
<g id="a_node16"><a xlink:href="v8-object_8h.html" target="_top" xlink:title=" ">
<polygon fill="white" stroke="black" points="806.5,-319 806.5,-338 904.5,-338 904.5,-319 806.5,-319"/>
<text text-anchor="middle" x="855.5" y="-326" font-family="Helvetica,sans-Serif" font-size="10.00">include/v8&#45;object.h</text>
</a>
</g>
</g>
<!-- Node10&#45;&gt;Node16 -->
<g id="edge25" class="edge">
<title>Node10&#45;&gt;Node16</title>
<path fill="none" stroke="midnightblue" d="M480.68,-380.3C569.17,-368.31 726.71,-346.96 806.41,-336.15"/>
<polygon fill="midnightblue" stroke="midnightblue" points="480.21,-376.83 470.77,-381.64 481.15,-383.77 480.21,-376.83"/>
</g>
<!-- Node11&#45;&gt;Node5 -->
<g id="edge15" class="edge">
<title>Node11&#45;&gt;Node5</title>
<path fill="none" stroke="midnightblue" d="M346.21,-195C384.58,-165.11 476.01,-98.34 564.5,-67 680.57,-25.89 828.52,-18.06 894.3,-16.7"/>
<polygon fill="midnightblue" stroke="midnightblue" points="343.72,-192.5 338.03,-201.44 348.06,-198 343.72,-192.5"/>
</g>
<!-- Node12&#45;&gt;Node3 -->
<g id="edge19" class="edge">
<title>Node12&#45;&gt;Node3</title>
<path fill="none" stroke="midnightblue" d="M381.44,-308.25C365.6,-299.21 346.81,-288.02 330.5,-277 270.01,-236.15 202.33,-180.54 176.9,-159.27"/>
<polygon fill="midnightblue" stroke="midnightblue" points="379.96,-311.43 390.39,-313.3 383.4,-305.34 379.96,-311.43"/>
</g>
<!-- Node13 -->
<g id="node13" class="node">
<title>Node13</title>
<g id="a_node13"><a xlink:href="v8-function_8h.html" target="_top" xlink:title=" ">
<polygon fill="white" stroke="black" points="402.5,-201.5 402.5,-220.5 508.5,-220.5 508.5,-201.5 402.5,-201.5"/>
<text text-anchor="middle" x="455.5" y="-208.5" font-family="Helvetica,sans-Serif" font-size="10.00">include/v8&#45;function.h</text>
</a>
</g>
</g>
<!-- Node12&#45;&gt;Node13 -->
<g id="edge17" class="edge">
<title>Node12&#45;&gt;Node13</title>
<path fill="none" stroke="midnightblue" d="M424.58,-303.56C433.3,-277.76 446.7,-238.06 452.57,-220.67"/>
<polygon fill="midnightblue" stroke="midnightblue" points="421.17,-302.74 421.28,-313.34 427.8,-304.98 421.17,-302.74"/>
</g>
<!-- Node12&#45;&gt;Node14 -->
<g id="edge20" class="edge">
<title>Node12&#45;&gt;Node14</title>
<path fill="none" stroke="midnightblue" d="M453.59,-308.8C474.92,-298.04 500.69,-285.05 517.33,-276.66"/>
<polygon fill="midnightblue" stroke="midnightblue" points="451.82,-305.77 444.46,-313.4 454.97,-312.02 451.82,-305.77"/>
</g>
<!-- Node15 -->
<g id="node15" class="node">
<title>Node15</title>
<g id="a_node15"><a xlink:href="v8-util_8h.html" target="_top" xlink:title=" ">
<polygon fill="white" stroke="black" points="339.5,-257.5 339.5,-276.5 423.5,-276.5 423.5,-257.5 339.5,-257.5"/>
<text text-anchor="middle" x="381.5" y="-264.5" font-family="Helvetica,sans-Serif" font-size="10.00">include/v8&#45;util.h</text>
</a>
</g>
</g>
<!-- Node12&#45;&gt;Node15 -->
<g id="edge23" class="edge">
<title>Node12&#45;&gt;Node15</title>
<path fill="none" stroke="midnightblue" d="M402.97,-304.5C397.23,-294.74 390.89,-283.96 386.59,-276.66"/>
<polygon fill="midnightblue" stroke="midnightblue" points="400.12,-306.55 408.21,-313.4 406.15,-303.01 400.12,-306.55"/>
</g>
<!-- Node13&#45;&gt;Node5 -->
<g id="edge18" class="edge">
<title>Node13&#45;&gt;Node5</title>
<path fill="none" stroke="midnightblue" d="M468.8,-193.46C494.41,-162.9 553.85,-97.87 619.5,-67 711.98,-23.51 835.27,-16.66 894.25,-16.09"/>
<polygon fill="midnightblue" stroke="midnightblue" points="465.89,-191.5 462.23,-201.44 471.29,-195.95 465.89,-191.5"/>
</g>
<!-- Node14&#45;&gt;Node5 -->
<g id="edge22" class="edge">
<title>Node14&#45;&gt;Node5</title>
<path fill="none" stroke="midnightblue" d="M587.75,-254.52C608.36,-247.75 630.73,-237.21 646.5,-221 697.39,-168.69 648.56,-115.04 703.5,-67 731.68,-42.36 838.75,-26.77 894.42,-20.16"/>
<polygon fill="midnightblue" stroke="midnightblue" points="586.66,-251.19 578.12,-257.46 588.71,-257.88 586.66,-251.19"/>
</g>
<!-- Node14&#45;&gt;Node13 -->
<g id="edge21" class="edge">
<title>Node14&#45;&gt;Node13</title>
<path fill="none" stroke="midnightblue" d="M513.47,-251.62C499.03,-241.76 480.36,-228.99 468.16,-220.65"/>
<polygon fill="midnightblue" stroke="midnightblue" points="511.58,-254.57 521.81,-257.32 515.53,-248.79 511.58,-254.57"/>
</g>
<!-- Node16&#45;&gt;Node5 -->
<g id="edge50" class="edge">
<title>Node16&#45;&gt;Node5</title>
<path fill="none" stroke="midnightblue" d="M837.22,-312.29C827.15,-303.03 815.17,-290.42 807.5,-277 760.09,-194.04 704.55,-143.72 761.5,-67 792.01,-25.9 855.02,-17.05 894.32,-15.79"/>
<polygon fill="midnightblue" stroke="midnightblue" points="834.96,-314.96 844.77,-318.96 839.59,-309.71 834.96,-314.96"/>
</g>
<!-- Node16&#45;&gt;Node9 -->
<g id="edge44" class="edge">
<title>Node16&#45;&gt;Node9</title>
<path fill="none" stroke="midnightblue" d="M914.71,-320.95C1022.34,-309.05 1248,-284.09 1346.18,-273.23"/>
<polygon fill="midnightblue" stroke="midnightblue" points="914.22,-317.48 904.67,-322.06 914.99,-324.44 914.22,-317.48"/>
</g>
<!-- Node16&#45;&gt;Node13 -->
<g id="edge36" class="edge">
<title>Node16&#45;&gt;Node13</title>
<path fill="none" stroke="midnightblue" d="M796.05,-318.08C751.3,-309.97 688.93,-296.47 636.5,-277 618.61,-270.36 616.12,-264.34 598.5,-257 561.74,-241.69 517.84,-228.61 488.47,-220.56"/>
<polygon fill="midnightblue" stroke="midnightblue" points="795.71,-321.57 806.17,-319.88 796.94,-314.68 795.71,-321.57"/>
</g>
<!-- Node16&#45;&gt;Node14 -->
<g id="edge47" class="edge">
<title>Node16&#45;&gt;Node14</title>
<path fill="none" stroke="midnightblue" d="M799.48,-317.12C737.32,-305.59 638.17,-287.22 580.41,-276.51"/>
<polygon fill="midnightblue" stroke="midnightblue" points="799.04,-320.59 809.51,-318.98 800.31,-313.71 799.04,-320.59"/>
</g>
<!-- Node17 -->
<g id="node17" class="node">
<title>Node17</title>
<g id="a_node17"><a xlink:href="v8-array-buffer_8h.html" target="_top" xlink:title=" ">
<polygon fill="white" stroke="black" points="1122,-201.5 1122,-220.5 1241,-220.5 1241,-201.5 1122,-201.5"/>
<text text-anchor="middle" x="1181.5" y="-208.5" font-family="Helvetica,sans-Serif" font-size="10.00">include/v8&#45;array&#45;buffer.h</text>
</a>
</g>
</g>
<!-- Node16&#45;&gt;Node17 -->
<g id="edge26" class="edge">
<title>Node16&#45;&gt;Node17</title>
<path fill="none" stroke="midnightblue" d="M915.05,-324.28C967.96,-319.43 1046.19,-307.32 1107.5,-277 1136.01,-262.9 1162.16,-234.98 1174.32,-220.76"/>
<polygon fill="midnightblue" stroke="midnightblue" points="914.48,-320.81 904.81,-325.15 915.07,-327.79 914.48,-320.81"/>
</g>
<!-- Node20 -->
<g id="node20" class="node">
<title>Node20</title>
<g id="a_node20"><a xlink:href="v8-container_8h.html" target="_top" xlink:title=" ">
<polygon fill="white" stroke="black" points="770,-73 770,-92 881,-92 881,-73 770,-73"/>
<text text-anchor="middle" x="825.5" y="-80" font-family="Helvetica,sans-Serif" font-size="10.00">include/v8&#45;container.h</text>
</a>
</g>
</g>
<!-- Node16&#45;&gt;Node20 -->
<g id="edge32" class="edge">
<title>Node16&#45;&gt;Node20</title>
<path fill="none" stroke="midnightblue" d="M843.05,-310.63C829.03,-290.5 807.09,-255.24 798.5,-221 786.43,-172.86 810.74,-114.13 821.12,-92.26"/>
<polygon fill="midnightblue" stroke="midnightblue" points="840.36,-312.9 849.03,-319 846.06,-308.83 840.36,-312.9"/>
</g>
<!-- Node21 -->
<g id="node21" class="node">
<title>Node21</title>
<g id="a_node21"><a xlink:href="v8-date_8h.html" target="_top" xlink:title=" ">
<polygon fill="white" stroke="black" points="807.5,-201.5 807.5,-220.5 897.5,-220.5 897.5,-201.5 807.5,-201.5"/>
<text text-anchor="middle" x="852.5" y="-208.5" font-family="Helvetica,sans-Serif" font-size="10.00">include/v8&#45;date.h</text>
</a>
</g>
</g>
<!-- Node16&#45;&gt;Node21 -->
<g id="edge34" class="edge">
<title>Node16&#45;&gt;Node21</title>
<path fill="none" stroke="midnightblue" d="M855.01,-308.66C854.35,-283.37 853.21,-239.44 852.73,-220.78"/>
<polygon fill="midnightblue" stroke="midnightblue" points="851.52,-308.91 855.27,-318.82 858.51,-308.73 851.52,-308.91"/>
</g>
<!-- Node22 -->
<g id="node22" class="node">
<title>Node22</title>
<g id="a_node22"><a xlink:href="v8-primitive-object_8h.html" target="_top" xlink:title=" ">
<polygon fill="white" stroke="black" points="846,-134.5 846,-164.5 947,-164.5 947,-134.5 846,-134.5"/>
<text text-anchor="start" x="854" y="-152.5" font-family="Helvetica,sans-Serif" font-size="10.00">include/v8&#45;primitive</text>
<text text-anchor="middle" x="896.5" y="-141.5" font-family="Helvetica,sans-Serif" font-size="10.00">&#45;object.h</text>
</a>
</g>
</g>
<!-- Node16&#45;&gt;Node22 -->
<g id="edge37" class="edge">
<title>Node16&#45;&gt;Node22</title>
<path fill="none" stroke="midnightblue" d="M866.66,-310.43C879.21,-290.1 898.86,-254.65 906.5,-221 910.88,-201.71 905.88,-178.99 901.51,-164.67"/>
<polygon fill="midnightblue" stroke="midnightblue" points="863.7,-308.56 861.3,-318.88 869.61,-312.31 863.7,-308.56"/>
</g>
<!-- Node23 -->
<g id="node23" class="node">
<title>Node23</title>
<g id="a_node23"><a xlink:href="v8-promise_8h.html" target="_top" xlink:title=" ">
<polygon fill="white" stroke="black" points="645.5,-257.5 645.5,-276.5 751.5,-276.5 751.5,-257.5 645.5,-257.5"/>
<text text-anchor="middle" x="698.5" y="-264.5" font-family="Helvetica,sans-Serif" font-size="10.00">include/v8&#45;promise.h</text>
</a>
</g>
</g>
<!-- Node16&#45;&gt;Node23 -->
<g id="edge39" class="edge">
<title>Node16&#45;&gt;Node23</title>
<path fill="none" stroke="midnightblue" d="M823.26,-315.28C792.75,-303.72 747.75,-286.66 720.95,-276.51"/>
<polygon fill="midnightblue" stroke="midnightblue" points="822.41,-318.7 833.01,-318.98 824.9,-312.16 822.41,-318.7"/>
</g>
<!-- Node25 -->
<g id="node25" class="node">
<title>Node25</title>
<g id="a_node25"><a xlink:href="v8-regexp_8h.html" target="_top" xlink:title=" ">
<polygon fill="white" stroke="black" points="965.5,-140 965.5,-159 1065.5,-159 1065.5,-140 965.5,-140"/>
<text text-anchor="middle" x="1015.5" y="-147" font-family="Helvetica,sans-Serif" font-size="10.00">include/v8&#45;regexp.h</text>
</a>
</g>
</g>
<!-- Node16&#45;&gt;Node25 -->
<g id="edge45" class="edge">
<title>Node16&#45;&gt;Node25</title>
<path fill="none" stroke="midnightblue" d="M871.28,-311.19C880.72,-301.37 892.9,-288.56 903.5,-277 943.56,-233.34 990.13,-179.82 1008,-159.18"/>
<polygon fill="midnightblue" stroke="midnightblue" points="868.51,-309.02 864.09,-318.65 873.55,-313.88 868.51,-309.02"/>
</g>
<!-- Node26 -->
<g id="node26" class="node">
<title>Node26</title>
<g id="a_node26"><a xlink:href="v8-wasm_8h.html" target="_top" xlink:title=" ">
<polygon fill="white" stroke="black" points="1013.5,-73 1013.5,-92 1111.5,-92 1111.5,-73 1013.5,-73"/>
<text text-anchor="middle" x="1062.5" y="-80" font-family="Helvetica,sans-Serif" font-size="10.00">include/v8&#45;wasm.h</text>
</a>
</g>
</g>
<!-- Node16&#45;&gt;Node26 -->
<g id="edge48" class="edge">
<title>Node16&#45;&gt;Node26</title>
<path fill="none" stroke="midnightblue" d="M887.92,-314.91C938.75,-293.16 1035.44,-243.23 1074.5,-165 1086.64,-140.69 1074.15,-107.57 1066.9,-92.11"/>
<polygon fill="midnightblue" stroke="midnightblue" points="886.28,-311.8 878.4,-318.88 888.97,-318.26 886.28,-311.8"/>
</g>
<!-- Node17&#45;&gt;Node3 -->
<g id="edge27" class="edge">
<title>Node17&#45;&gt;Node3</title>
<path fill="none" stroke="midnightblue" d="M1111.79,-205.91C919.24,-194.63 383.28,-163.21 216.62,-153.44"/>
<polygon fill="midnightblue" stroke="midnightblue" points="1111.61,-209.41 1121.8,-206.5 1112.02,-202.42 1111.61,-209.41"/>
</g>
<!-- Node17&#45;&gt;Node5 -->
<g id="edge31" class="edge">
<title>Node17&#45;&gt;Node5</title>
<path fill="none" stroke="midnightblue" d="M1168.66,-193.21C1162.84,-185.02 1156.22,-174.84 1151.5,-165 1131.75,-123.81 1153.59,-98.5 1120.5,-67 1077.44,-26 1005.23,-17.33 962.71,-16.03"/>
<polygon fill="midnightblue" stroke="midnightblue" points="1166,-195.5 1174.75,-201.48 1171.64,-191.35 1166,-195.5"/>
</g>
<!-- Node18 -->
<g id="node18" class="node">
<title>Node18</title>
<g id="a_node18"><a xlink:href="v8-typed-array_8h.html" target="_top" xlink:title=" ">
<polygon fill="white" stroke="black" points="1160,-140 1160,-159 1279,-159 1279,-140 1160,-140"/>
<text text-anchor="middle" x="1219.5" y="-147" font-family="Helvetica,sans-Serif" font-size="10.00">include/v8&#45;typed&#45;array.h</text>
</a>
</g>
</g>
<!-- Node17&#45;&gt;Node18 -->
<g id="edge28" class="edge">
<title>Node17&#45;&gt;Node18</title>
<path fill="none" stroke="midnightblue" d="M1192.35,-193.01C1199.45,-181.89 1208.43,-167.84 1214.07,-159.01"/>
<polygon fill="midnightblue" stroke="midnightblue" points="1189.38,-191.16 1186.94,-201.48 1195.28,-194.93 1189.38,-191.16"/>
</g>
<!-- Node18&#45;&gt;Node5 -->
<g id="edge30" class="edge">
<title>Node18&#45;&gt;Node5</title>
<path fill="none" stroke="midnightblue" d="M1210.13,-131C1199.11,-112.19 1179.06,-82.86 1153.5,-67 1093.46,-29.74 1009.26,-19.85 962.75,-17.31"/>
<polygon fill="midnightblue" stroke="midnightblue" points="1207.09,-132.75 1215.04,-139.75 1213.2,-129.32 1207.09,-132.75"/>
</g>
<!-- Node19 -->
<g id="node19" class="node">
<title>Node19</title>
<g id="a_node19"><a xlink:href="v8-fast-api-calls_8h.html" target="_top" xlink:title=" ">
<polygon fill="white" stroke="black" points="1217.5,-67.5 1217.5,-97.5 1313.5,-97.5 1313.5,-67.5 1217.5,-67.5"/>
<text text-anchor="start" x="1225.5" y="-85.5" font-family="Helvetica,sans-Serif" font-size="10.00">include/v8&#45;fast&#45;api</text>
<text text-anchor="middle" x="1265.5" y="-74.5" font-family="Helvetica,sans-Serif" font-size="10.00">&#45;calls.h</text>
</a>
</g>
</g>
<!-- Node18&#45;&gt;Node19 -->
<g id="edge29" class="edge">
<title>Node18&#45;&gt;Node19</title>
<path fill="none" stroke="midnightblue" d="M1231.63,-131.35C1239.09,-120.82 1248.51,-107.5 1255.53,-97.59"/>
<polygon fill="midnightblue" stroke="midnightblue" points="1228.62,-129.55 1225.7,-139.73 1234.34,-133.59 1228.62,-129.55"/>
</g>
<!-- Node20&#45;&gt;Node5 -->
<g id="edge33" class="edge">
<title>Node20&#45;&gt;Node5</title>
<path fill="none" stroke="midnightblue" d="M848.05,-67.27C868.44,-54.4 897.79,-35.88 914.83,-25.13"/>
<polygon fill="midnightblue" stroke="midnightblue" points="845.98,-64.44 839.39,-72.73 849.72,-70.36 845.98,-64.44"/>
</g>
<!-- Node21&#45;&gt;Node5 -->
<g id="edge35" class="edge">
<title>Node21&#45;&gt;Node5</title>
<path fill="none" stroke="midnightblue" d="M842.67,-192.2C835.22,-176.16 827.79,-152.33 837.5,-134 850.83,-108.84 872.04,-119.68 890.5,-98 909.83,-75.29 921.47,-41.1 926.13,-25.2"/>
<polygon fill="midnightblue" stroke="midnightblue" points="839.74,-194.16 847.38,-201.49 845.98,-190.99 839.74,-194.16"/>
</g>
<!-- Node22&#45;&gt;Node5 -->
<g id="edge38" class="edge">
<title>Node22&#45;&gt;Node5</title>
<path fill="none" stroke="midnightblue" d="M911.51,-125.45C916.19,-117.13 920.82,-107.45 923.5,-98 930.77,-72.36 930.06,-40.42 929.17,-25.27"/>
<polygon fill="midnightblue" stroke="midnightblue" points="908.42,-123.81 906.31,-134.19 914.43,-127.39 908.42,-123.81"/>
</g>
<!-- Node23&#45;&gt;Node5 -->
<g id="edge43" class="edge">
<title>Node23&#45;&gt;Node5</title>
<path fill="none" stroke="midnightblue" d="M695.11,-247.59C689.11,-208.83 681.28,-118.17 727.5,-67 749.57,-42.57 842.8,-27.26 894.17,-20.52"/>
<polygon fill="midnightblue" stroke="midnightblue" points="691.66,-248.19 696.78,-257.47 698.56,-247.02 691.66,-248.19"/>
</g>
<!-- Node24 -->
<g id="node24" class="node">
<title>Node24</title>
<g id="a_node24"><a xlink:href="v8-statistics_8h.html" target="_top" xlink:title=" ">
<polygon fill="white" stroke="black" points="526,-201.5 526,-220.5 637,-220.5 637,-201.5 526,-201.5"/>
<text text-anchor="middle" x="581.5" y="-208.5" font-family="Helvetica,sans-Serif" font-size="10.00">include/v8&#45;statistics.h</text>
</a>
</g>
</g>
<!-- Node23&#45;&gt;Node24 -->
<g id="edge40" class="edge">
<title>Node23&#45;&gt;Node24</title>
<path fill="none" stroke="midnightblue" d="M670.84,-253.23C648.95,-243.13 619,-229.31 599.95,-220.52"/>
<polygon fill="midnightblue" stroke="midnightblue" points="669.41,-256.43 679.96,-257.44 672.35,-250.08 669.41,-256.43"/>
</g>
<!-- Node24&#45;&gt;Node3 -->
<g id="edge41" class="edge">
<title>Node24&#45;&gt;Node3</title>
<path fill="none" stroke="midnightblue" d="M515.88,-200.59C432.78,-188.68 291.42,-168.41 216.52,-157.67"/>
<polygon fill="midnightblue" stroke="midnightblue" points="515.57,-204.08 525.96,-202.04 516.56,-197.15 515.57,-204.08"/>
</g>
<!-- Node24&#45;&gt;Node5 -->
<g id="edge42" class="edge">
<title>Node24&#45;&gt;Node5</title>
<path fill="none" stroke="midnightblue" d="M585.03,-191.25C591.93,-160.14 610.28,-98.2 651.5,-67 689.31,-38.38 828.89,-24.14 894.28,-18.92"/>
<polygon fill="midnightblue" stroke="midnightblue" points="581.57,-190.7 582.99,-201.2 588.43,-192.11 581.57,-190.7"/>
</g>
<!-- Node25&#45;&gt;Node5 -->
<g id="edge46" class="edge">
<title>Node25&#45;&gt;Node5</title>
<path fill="none" stroke="midnightblue" d="M1004.16,-131.29C985.31,-102.69 948.21,-46.41 934.12,-25.02"/>
<polygon fill="midnightblue" stroke="midnightblue" points="1001.37,-133.42 1009.79,-139.84 1007.21,-129.56 1001.37,-133.42"/>
</g>
<!-- Node26&#45;&gt;Node5 -->
<g id="edge49" class="edge">
<title>Node26&#45;&gt;Node5</title>
<path fill="none" stroke="midnightblue" d="M1035.58,-68.44C1009.04,-55.57 969.23,-36.26 946.37,-25.17"/>
<polygon fill="midnightblue" stroke="midnightblue" points="1034.18,-71.65 1044.71,-72.87 1037.24,-65.35 1034.18,-71.65"/>
</g>
<!-- Node27&#45;&gt;Node5 -->
<g id="edge53" class="edge">
<title>Node27&#45;&gt;Node5</title>
<path fill="none" stroke="midnightblue" d="M1654.53,-426.45C1648.9,-403.76 1640.5,-364.1 1640.5,-329.5 1640.5,-329.5 1640.5,-329.5 1640.5,-148.5 1640.5,-107.55 1631.75,-89.46 1597.5,-67 1544.11,-31.99 1091.46,-19.91 962.6,-17.16"/>
<polygon fill="midnightblue" stroke="midnightblue" points="1651.21,-427.58 1657.09,-436.39 1657.99,-425.83 1651.21,-427.58"/>
</g>
<!-- Node28&#45;&gt;Node5 -->
<g id="edge61" class="edge">
<title>Node28&#45;&gt;Node5</title>
<path fill="none" stroke="midnightblue" d="M1181.69,-429.93C1190.98,-421.69 1202.08,-410.94 1210.5,-400 1227.86,-377.46 1229.11,-369.61 1241.5,-344 1297.37,-228.54 1407.24,-163.29 1322.5,-67 1298.84,-40.11 1054.1,-23.61 962.69,-18.34"/>
<polygon fill="midnightblue" stroke="midnightblue" points="1179.39,-427.3 1174.1,-436.48 1183.96,-432.6 1179.39,-427.3"/>
</g>
<!-- Node28&#45;&gt;Node10 -->
<g id="edge60" class="edge">
<title>Node28&#45;&gt;Node10</title>
<path fill="none" stroke="midnightblue" d="M1105.79,-440.83C965.38,-430.68 607.44,-404.8 470.71,-394.92"/>
<polygon fill="midnightblue" stroke="midnightblue" points="1105.69,-444.33 1115.92,-441.56 1106.2,-437.35 1105.69,-444.33"/>
</g>
<!-- Node28&#45;&gt;Node16 -->
<g id="edge59" class="edge">
<title>Node28&#45;&gt;Node16</title>
<path fill="none" stroke="midnightblue" d="M1131.24,-432.9C1068.8,-409.49 932.83,-358.5 878.55,-338.14"/>
<polygon fill="midnightblue" stroke="midnightblue" points="1130.01,-436.18 1140.6,-436.41 1132.47,-429.62 1130.01,-436.18"/>
</g>
<!-- Node28&#45;&gt;Node19 -->
<g id="edge58" class="edge">
<title>Node28&#45;&gt;Node19</title>
<path fill="none" stroke="midnightblue" d="M1174.39,-427.67C1200.46,-385.02 1265.96,-270.79 1288.5,-165 1291.37,-151.52 1291.42,-147.46 1288.5,-134 1285.68,-121.01 1279.22,-107.35 1273.86,-97.52"/>
<polygon fill="midnightblue" stroke="midnightblue" points="1171.34,-425.94 1169.06,-436.29 1177.29,-429.63 1171.34,-425.94"/>
</g>
<!-- Node29 -->
<g id="node29" class="node">
<title>Node29</title>
<g id="a_node29"><a xlink:href="v8-external_8h.html" target="_top" xlink:title=" ">
<polygon fill="white" stroke="black" points="1412,-140 1412,-159 1517,-159 1517,-140 1412,-140"/>
<text text-anchor="middle" x="1464.5" y="-147" font-family="Helvetica,sans-Serif" font-size="10.00">include/v8&#45;external.h</text>
</a>
</g>
</g>
<!-- Node28&#45;&gt;Node29 -->
<g id="edge56" class="edge">
<title>Node28&#45;&gt;Node29</title>
<path fill="none" stroke="midnightblue" d="M1221.31,-437.67C1255.47,-431.43 1298.54,-420.14 1332.5,-400 1397.39,-361.51 1417.42,-345.29 1449.5,-277 1468.59,-236.37 1466.84,-180.63 1465.29,-159.3"/>
<polygon fill="midnightblue" stroke="midnightblue" points="1220.27,-434.29 1211.01,-439.44 1221.46,-441.19 1220.27,-434.29"/>
</g>
<!-- Node29&#45;&gt;Node5 -->
<g id="edge57" class="edge">
<title>Node29&#45;&gt;Node5</title>
<path fill="none" stroke="midnightblue" d="M1455.58,-131.03C1444.71,-111.75 1424.4,-81.52 1397.5,-67 1322.19,-26.35 1057.25,-18.41 962.51,-16.87"/>
<polygon fill="midnightblue" stroke="midnightblue" points="1452.57,-132.83 1460.39,-139.98 1458.73,-129.51 1452.57,-132.83"/>
</g>
</g>
</svg>
