<?xml version="1.0" encoding="UTF-8" standalone="no"?>
<!DOCTYPE svg PUBLIC "-//W3C//DTD SVG 1.1//EN"
 "http://www.w3.org/Graphics/SVG/1.1/DTD/svg11.dtd">
<!-- Generated by graphviz version 2.49.3 (20211027.1534)
 -->
<!-- Title: include/v8&#45;fast&#45;api&#45;calls.h Pages: 1 -->
<svg width="1533pt" height="543pt"
 viewBox="0.00 0.00 1533.00 543.00" xmlns="http://www.w3.org/2000/svg" xmlns:xlink="http://www.w3.org/1999/xlink">
<g id="graph0" class="graph" transform="scale(1 1) rotate(0) translate(4 539)">
<title>include/v8&#45;fast&#45;api&#45;calls.h</title>
<polygon fill="white" stroke="transparent" points="-4,4 -4,-539 1529,-539 1529,4 -4,4"/>
<!-- Node1 -->
<g id="node1" class="node">
<title>Node1</title>
<g id="a_node1"><a xlink:title=" ">
<polygon fill="#bfbfbf" stroke="black" points="449,-504.5 449,-534.5 545,-534.5 545,-504.5 449,-504.5"/>
<text text-anchor="start" x="457" y="-522.5" font-family="Helvetica,sans-Serif" font-size="10.00">include/v8&#45;fast&#45;api</text>
<text text-anchor="middle" x="497" y="-511.5" font-family="Helvetica,sans-Serif" font-size="10.00">&#45;calls.h</text>
</a>
</g>
</g>
<!-- Node2 -->
<g id="node2" class="node">
<title>Node2</title>
<g id="a_node2"><a xlink:title=" ">
<polygon fill="white" stroke="#bfbfbf" points="123.5,-0.5 123.5,-19.5 174.5,-19.5 174.5,-0.5 123.5,-0.5"/>
<text text-anchor="middle" x="149" y="-7.5" font-family="Helvetica,sans-Serif" font-size="10.00">stddef.h</text>
</a>
</g>
</g>
<!-- Node1&#45;&gt;Node2 -->
<g id="edge1" class="edge">
<title>Node1&#45;&gt;Node2</title>
<path fill="none" stroke="midnightblue" d="M448.89,-517.49C324.17,-513.57 0,-494.57 0,-403 0,-403 0,-403 0,-121 0,-64.77 69.53,-34.03 113.6,-20.2"/>
<polygon fill="midnightblue" stroke="midnightblue" points="114.81,-23.49 123.39,-17.27 112.8,-16.78 114.81,-23.49"/>
</g>
<!-- Node3 -->
<g id="node3" class="node">
<title>Node3</title>
<g id="a_node3"><a xlink:title=" ">
<polygon fill="white" stroke="#bfbfbf" points="909,-0.5 909,-19.5 957,-19.5 957,-0.5 909,-0.5"/>
<text text-anchor="middle" x="933" y="-7.5" font-family="Helvetica,sans-Serif" font-size="10.00">stdint.h</text>
</a>
</g>
</g>
<!-- Node1&#45;&gt;Node3 -->
<g id="edge2" class="edge">
<title>Node1&#45;&gt;Node3</title>
<path fill="none" stroke="midnightblue" d="M545.25,-517.78C693.88,-515.2 1143.18,-504.49 1284,-468 1349.24,-451.1 1421,-470.39 1421,-403 1421,-403 1421,-403 1421,-121 1421,-27.92 1078.84,-13.59 967.53,-11.4"/>
<polygon fill="midnightblue" stroke="midnightblue" points="967.26,-7.89 957.2,-11.21 967.14,-14.89 967.26,-7.89"/>
</g>
<!-- Node4 -->
<g id="node4" class="node">
<title>Node4</title>
<g id="a_node4"><a xlink:title=" ">
<polygon fill="white" stroke="#bfbfbf" points="1487,-448.5 1487,-467.5 1525,-467.5 1525,-448.5 1487,-448.5"/>
<text text-anchor="middle" x="1506" y="-455.5" font-family="Helvetica,sans-Serif" font-size="10.00">tuple</text>
</a>
</g>
</g>
<!-- Node1&#45;&gt;Node4 -->
<g id="edge3" class="edge">
<title>Node1&#45;&gt;Node4</title>
<path fill="none" stroke="midnightblue" d="M545.1,-517.38C715.68,-513.18 1291.12,-497.16 1473,-468 1474.29,-467.79 1475.59,-467.56 1476.91,-467.3"/>
<polygon fill="midnightblue" stroke="midnightblue" points="1478.02,-470.63 1486.96,-464.94 1476.42,-463.82 1478.02,-470.63"/>
</g>
<!-- Node5 -->
<g id="node5" class="node">
<title>Node5</title>
<g id="a_node5"><a xlink:title=" ">
<polygon fill="white" stroke="#bfbfbf" points="581,-0.5 581,-19.5 643,-19.5 643,-0.5 581,-0.5"/>
<text text-anchor="middle" x="612" y="-7.5" font-family="Helvetica,sans-Serif" font-size="10.00">type_traits</text>
</a>
</g>
</g>
<!-- Node1&#45;&gt;Node5 -->
<g id="edge4" class="edge">
<title>Node1&#45;&gt;Node5</title>
<path fill="none" stroke="midnightblue" d="M545.26,-517.33C730.15,-512.24 1383,-488.22 1383,-403 1383,-403 1383,-403 1383,-345 1383,-71.22 1107.49,-109.56 839,-56 774.12,-43.06 698.78,-28.15 653.28,-19.15"/>
<polygon fill="midnightblue" stroke="midnightblue" points="653.7,-15.67 643.22,-17.16 652.35,-22.54 653.7,-15.67"/>
</g>
<!-- Node6 -->
<g id="node6" class="node">
<title>Node6</title>
<g id="a_node6"><a xlink:href="v8-internal_8h.html" target="_top" xlink:title=" ">
<polygon fill="white" stroke="black" points="402.5,-56.5 402.5,-75.5 471.5,-75.5 471.5,-56.5 402.5,-56.5"/>
<text text-anchor="middle" x="437" y="-63.5" font-family="Helvetica,sans-Serif" font-size="10.00">v8&#45;internal.h</text>
</a>
</g>
</g>
<!-- Node1&#45;&gt;Node6 -->
<g id="edge5" class="edge">
<title>Node1&#45;&gt;Node6</title>
<path fill="none" stroke="midnightblue" d="M448.91,-515.12C364.27,-508.63 192.5,-492.79 138,-468 97.85,-449.74 63,-447.11 63,-403 63,-403 63,-403 63,-233 63,-177.26 54.01,-148.67 96,-112 139.24,-74.24 309.89,-67.81 392.17,-66.96"/>
<polygon fill="midnightblue" stroke="midnightblue" points="392.25,-70.46 402.23,-66.88 392.2,-63.46 392.25,-70.46"/>
</g>
<!-- Node9 -->
<g id="node9" class="node">
<title>Node9</title>
<g id="a_node9"><a xlink:href="v8config_8h.html" target="_top" xlink:title=" ">
<polygon fill="white" stroke="black" points="1144,-0.5 1144,-19.5 1204,-19.5 1204,-0.5 1144,-0.5"/>
<text text-anchor="middle" x="1174" y="-7.5" font-family="Helvetica,sans-Serif" font-size="10.00">v8config.h</text>
</a>
</g>
</g>
<!-- Node1&#45;&gt;Node9 -->
<g id="edge65" class="edge">
<title>Node1&#45;&gt;Node9</title>
<path fill="none" stroke="midnightblue" d="M545.18,-518.72C702.65,-518.97 1200.68,-515.87 1353,-468 1405.72,-451.43 1459,-458.26 1459,-403 1459,-403 1459,-403 1459,-121 1459,-76.21 1422.19,-75.76 1382,-56 1327.63,-29.26 1257.57,-18.31 1214.23,-13.9"/>
<polygon fill="midnightblue" stroke="midnightblue" points="1214.37,-10.4 1204.08,-12.93 1213.7,-17.36 1214.37,-10.4"/>
</g>
<!-- Node10 -->
<g id="node10" class="node">
<title>Node10</title>
<g id="a_node10"><a xlink:href="v8-local-handle_8h.html" target="_top" xlink:title=" ">
<polygon fill="white" stroke="black" points="104.5,-112.5 104.5,-131.5 193.5,-131.5 193.5,-112.5 104.5,-112.5"/>
<text text-anchor="middle" x="149" y="-119.5" font-family="Helvetica,sans-Serif" font-size="10.00">v8&#45;local&#45;handle.h</text>
</a>
</g>
</g>
<!-- Node1&#45;&gt;Node10 -->
<g id="edge12" class="edge">
<title>Node1&#45;&gt;Node10</title>
<path fill="none" stroke="midnightblue" d="M448.84,-514.65C343.3,-504.9 101,-474.7 101,-403 101,-403 101,-403 101,-345 101,-267.84 129.05,-178.93 142.26,-141.31"/>
<polygon fill="midnightblue" stroke="midnightblue" points="145.62,-142.33 145.7,-131.74 139.03,-139.96 145.62,-142.33"/>
</g>
<!-- Node11 -->
<g id="node11" class="node">
<title>Node11</title>
<g id="a_node11"><a xlink:href="v8-typed-array_8h.html" target="_top" xlink:title=" ">
<polygon fill="white" stroke="black" points="454.5,-448.5 454.5,-467.5 539.5,-467.5 539.5,-448.5 454.5,-448.5"/>
<text text-anchor="middle" x="497" y="-455.5" font-family="Helvetica,sans-Serif" font-size="10.00">v8&#45;typed&#45;array.h</text>
</a>
</g>
</g>
<!-- Node1&#45;&gt;Node11 -->
<g id="edge16" class="edge">
<title>Node1&#45;&gt;Node11</title>
<path fill="none" stroke="midnightblue" d="M497,-504.4C497,-496.47 497,-486.46 497,-477.86"/>
<polygon fill="midnightblue" stroke="midnightblue" points="500.5,-477.66 497,-467.66 493.5,-477.66 500.5,-477.66"/>
</g>
<!-- Node20 -->
<g id="node20" class="node">
<title>Node20</title>
<g id="a_node20"><a xlink:href="v8-value_8h.html" target="_top" xlink:title=" ">
<polygon fill="white" stroke="black" points="528.5,-224.5 528.5,-243.5 589.5,-243.5 589.5,-224.5 528.5,-224.5"/>
<text text-anchor="middle" x="559" y="-231.5" font-family="Helvetica,sans-Serif" font-size="10.00">v8&#45;value.h</text>
</a>
</g>
</g>
<!-- Node1&#45;&gt;Node20 -->
<g id="edge64" class="edge">
<title>Node1&#45;&gt;Node20</title>
<path fill="none" stroke="midnightblue" d="M476.47,-504.46C465.22,-495.49 452.32,-482.78 446,-468 432.39,-436.18 444.6,-289.06 451,-280 466.48,-258.08 494.75,-246.8 518.48,-241.01"/>
<polygon fill="midnightblue" stroke="midnightblue" points="519.31,-244.41 528.33,-238.86 517.81,-237.58 519.31,-244.41"/>
</g>
<!-- Node6&#45;&gt;Node2 -->
<g id="edge6" class="edge">
<title>Node6&#45;&gt;Node2</title>
<path fill="none" stroke="midnightblue" d="M402.26,-58.49C347.17,-48.16 240.3,-28.12 184.65,-17.68"/>
<polygon fill="midnightblue" stroke="midnightblue" points="185.02,-14.19 174.55,-15.79 183.73,-21.07 185.02,-14.19"/>
</g>
<!-- Node6&#45;&gt;Node3 -->
<g id="edge7" class="edge">
<title>Node6&#45;&gt;Node3</title>
<path fill="none" stroke="midnightblue" d="M471.88,-61.2C563.19,-51.26 808.44,-24.56 898.89,-14.71"/>
<polygon fill="midnightblue" stroke="midnightblue" points="899.32,-18.19 908.88,-13.63 898.56,-11.23 899.32,-18.19"/>
</g>
<!-- Node6&#45;&gt;Node5 -->
<g id="edge9" class="edge">
<title>Node6&#45;&gt;Node5</title>
<path fill="none" stroke="midnightblue" d="M464.73,-56.44C494.43,-47.28 541.72,-32.69 574.67,-22.52"/>
<polygon fill="midnightblue" stroke="midnightblue" points="575.88,-25.81 584.4,-19.52 573.81,-19.12 575.88,-25.81"/>
</g>
<!-- Node7 -->
<g id="node7" class="node">
<title>Node7</title>
<g id="a_node7"><a xlink:title=" ">
<polygon fill="white" stroke="#bfbfbf" points="452,-0.5 452,-19.5 500,-19.5 500,-0.5 452,-0.5"/>
<text text-anchor="middle" x="476" y="-7.5" font-family="Helvetica,sans-Serif" font-size="10.00">string.h</text>
</a>
</g>
</g>
<!-- Node6&#45;&gt;Node7 -->
<g id="edge8" class="edge">
<title>Node6&#45;&gt;Node7</title>
<path fill="none" stroke="midnightblue" d="M443.44,-56.08C448.95,-48.46 457.03,-37.26 463.76,-27.94"/>
<polygon fill="midnightblue" stroke="midnightblue" points="466.66,-29.91 469.68,-19.75 460.99,-25.81 466.66,-29.91"/>
</g>
<!-- Node8 -->
<g id="node8" class="node">
<title>Node8</title>
<g id="a_node8"><a xlink:href="v8-version_8h.html" target="_top" xlink:title=" ">
<polygon fill="white" stroke="black" points="364.5,-0.5 364.5,-19.5 433.5,-19.5 433.5,-0.5 364.5,-0.5"/>
<text text-anchor="middle" x="399" y="-7.5" font-family="Helvetica,sans-Serif" font-size="10.00">v8&#45;version.h</text>
</a>
</g>
</g>
<!-- Node6&#45;&gt;Node8 -->
<g id="edge10" class="edge">
<title>Node6&#45;&gt;Node8</title>
<path fill="none" stroke="midnightblue" d="M430.73,-56.08C425.36,-48.46 417.48,-37.26 410.92,-27.94"/>
<polygon fill="midnightblue" stroke="midnightblue" points="413.78,-25.91 405.16,-19.75 408.05,-29.94 413.78,-25.91"/>
</g>
<!-- Node6&#45;&gt;Node9 -->
<g id="edge11" class="edge">
<title>Node6&#45;&gt;Node9</title>
<path fill="none" stroke="midnightblue" d="M471.56,-62.47C593.47,-53.54 1003.15,-23.52 1133.68,-13.95"/>
<polygon fill="midnightblue" stroke="midnightblue" points="1133.94,-17.44 1143.66,-13.22 1133.43,-10.46 1133.94,-17.44"/>
</g>
<!-- Node10&#45;&gt;Node2 -->
<g id="edge13" class="edge">
<title>Node10&#45;&gt;Node2</title>
<path fill="none" stroke="midnightblue" d="M149,-112.37C149,-94.62 149,-53.67 149,-29.6"/>
<polygon fill="midnightblue" stroke="midnightblue" points="152.5,-29.59 149,-19.59 145.5,-29.59 152.5,-29.59"/>
</g>
<!-- Node10&#45;&gt;Node5 -->
<g id="edge14" class="edge">
<title>Node10&#45;&gt;Node5</title>
<path fill="none" stroke="midnightblue" d="M179.04,-112.45C225.1,-99.47 316.04,-74.37 394,-56 455.29,-41.56 526.87,-27.27 570.82,-18.79"/>
<polygon fill="midnightblue" stroke="midnightblue" points="571.67,-22.19 580.83,-16.87 570.35,-15.32 571.67,-22.19"/>
</g>
<!-- Node10&#45;&gt;Node6 -->
<g id="edge15" class="edge">
<title>Node10&#45;&gt;Node6</title>
<path fill="none" stroke="midnightblue" d="M193.68,-112.62C247.71,-102.49 338.11,-85.54 392.19,-75.4"/>
<polygon fill="midnightblue" stroke="midnightblue" points="392.99,-78.81 402.18,-73.53 391.7,-71.93 392.99,-78.81"/>
</g>
<!-- Node11&#45;&gt;Node9 -->
<g id="edge63" class="edge">
<title>Node11&#45;&gt;Node9</title>
<path fill="none" stroke="midnightblue" d="M539.75,-452.98C687.56,-438.44 1175.01,-384.89 1304,-300 1357.65,-264.69 1383,-243.22 1383,-179 1383,-179 1383,-179 1383,-121 1383,-45.61 1275.19,-21.77 1214.43,-14.32"/>
<polygon fill="midnightblue" stroke="midnightblue" points="1214.72,-10.83 1204.39,-13.19 1213.93,-17.79 1214.72,-10.83"/>
</g>
<!-- Node11&#45;&gt;Node10 -->
<g id="edge62" class="edge">
<title>Node11&#45;&gt;Node10</title>
<path fill="none" stroke="midnightblue" d="M460.91,-448.49C377.23,-428.26 177,-376.74 177,-347 177,-347 177,-347 177,-233 177,-199.79 164.87,-162.63 156.57,-141.12"/>
<polygon fill="midnightblue" stroke="midnightblue" points="159.75,-139.63 152.78,-131.65 153.25,-142.23 159.75,-139.63"/>
</g>
<!-- Node12 -->
<g id="node12" class="node">
<title>Node12</title>
<g id="a_node12"><a xlink:href="v8-array-buffer_8h.html" target="_top" xlink:title=" ">
<polygon fill="white" stroke="black" points="454,-392.5 454,-411.5 540,-411.5 540,-392.5 454,-392.5"/>
<text text-anchor="middle" x="497" y="-399.5" font-family="Helvetica,sans-Serif" font-size="10.00">v8&#45;array&#45;buffer.h</text>
</a>
</g>
</g>
<!-- Node11&#45;&gt;Node12 -->
<g id="edge17" class="edge">
<title>Node11&#45;&gt;Node12</title>
<path fill="none" stroke="midnightblue" d="M497,-448.08C497,-441.01 497,-430.86 497,-421.99"/>
<polygon fill="midnightblue" stroke="midnightblue" points="500.5,-421.75 497,-411.75 493.5,-421.75 500.5,-421.75"/>
</g>
<!-- Node12&#45;&gt;Node2 -->
<g id="edge18" class="edge">
<title>Node12&#45;&gt;Node2</title>
<path fill="none" stroke="midnightblue" d="M461.51,-392.48C433.16,-384.95 392.86,-372.57 360,-356 222.6,-286.72 158.29,-272.71 96,-132 79.38,-94.46 111.92,-50.25 133,-27.06"/>
<polygon fill="midnightblue" stroke="midnightblue" points="135.8,-29.19 140.13,-19.52 130.71,-24.38 135.8,-29.19"/>
</g>
<!-- Node12&#45;&gt;Node9 -->
<g id="edge61" class="edge">
<title>Node12&#45;&gt;Node9</title>
<path fill="none" stroke="midnightblue" d="M540.33,-399.46C653.28,-395.14 954.69,-381.5 1051,-356 1198.44,-316.96 1345,-331.52 1345,-179 1345,-179 1345,-179 1345,-121 1345,-59.08 1264.71,-30.37 1214.17,-18.43"/>
<polygon fill="midnightblue" stroke="midnightblue" points="1214.7,-14.96 1204.18,-16.2 1213.17,-21.79 1214.7,-14.96"/>
</g>
<!-- Node12&#45;&gt;Node10 -->
<g id="edge20" class="edge">
<title>Node12&#45;&gt;Node10</title>
<path fill="none" stroke="midnightblue" d="M475.54,-392.41C439.06,-377.18 363.57,-342.99 309,-300 247.18,-251.31 244.07,-226.1 191,-168 182.15,-158.31 172.13,-147.57 164.1,-139.01"/>
<polygon fill="midnightblue" stroke="midnightblue" points="166.51,-136.46 157.11,-131.58 161.41,-141.26 166.51,-136.46"/>
</g>
<!-- Node13 -->
<g id="node13" class="node">
<title>Node13</title>
<g id="a_node13"><a xlink:title=" ">
<polygon fill="white" stroke="#bfbfbf" points="1037.5,-112.5 1037.5,-131.5 1088.5,-131.5 1088.5,-112.5 1037.5,-112.5"/>
<text text-anchor="middle" x="1063" y="-119.5" font-family="Helvetica,sans-Serif" font-size="10.00">memory</text>
</a>
</g>
</g>
<!-- Node12&#45;&gt;Node13 -->
<g id="edge19" class="edge">
<title>Node12&#45;&gt;Node13</title>
<path fill="none" stroke="midnightblue" d="M540.12,-398.61C689.81,-389.76 1178,-355.9 1178,-291 1178,-291 1178,-291 1178,-233 1178,-202.9 1178.58,-190.86 1159,-168 1143.36,-149.74 1118.68,-138.4 1098.27,-131.67"/>
<polygon fill="midnightblue" stroke="midnightblue" points="1099.23,-128.3 1088.65,-128.73 1097.18,-135 1099.23,-128.3"/>
</g>
<!-- Node14 -->
<g id="node14" class="node">
<title>Node14</title>
<g id="a_node14"><a xlink:href="v8-object_8h.html" target="_top" xlink:title=" ">
<polygon fill="white" stroke="black" points="465,-336.5 465,-355.5 529,-355.5 529,-336.5 465,-336.5"/>
<text text-anchor="middle" x="497" y="-343.5" font-family="Helvetica,sans-Serif" font-size="10.00">v8&#45;object.h</text>
</a>
</g>
</g>
<!-- Node12&#45;&gt;Node14 -->
<g id="edge21" class="edge">
<title>Node12&#45;&gt;Node14</title>
<path fill="none" stroke="midnightblue" d="M497,-392.08C497,-385.01 497,-374.86 497,-365.99"/>
<polygon fill="midnightblue" stroke="midnightblue" points="500.5,-365.75 497,-355.75 493.5,-365.75 500.5,-365.75"/>
</g>
<!-- Node14&#45;&gt;Node9 -->
<g id="edge60" class="edge">
<title>Node14&#45;&gt;Node9</title>
<path fill="none" stroke="midnightblue" d="M529.25,-345.39C679.9,-346.36 1307,-340.67 1307,-179 1307,-179 1307,-179 1307,-121 1307,-70.73 1249.87,-39.1 1210.5,-23.27"/>
<polygon fill="midnightblue" stroke="midnightblue" points="1211.5,-19.91 1200.91,-19.59 1208.99,-26.45 1211.5,-19.91"/>
</g>
<!-- Node14&#45;&gt;Node10 -->
<g id="edge22" class="edge">
<title>Node14&#45;&gt;Node10</title>
<path fill="none" stroke="midnightblue" d="M464.8,-341.62C430.91,-336.81 377.16,-325.56 338,-300 274.28,-258.42 287.36,-216.81 229,-168 213.61,-155.13 194.02,-144.04 178.07,-136.09"/>
<polygon fill="midnightblue" stroke="midnightblue" points="179.21,-132.75 168.68,-131.55 176.16,-139.05 179.21,-132.75"/>
</g>
<!-- Node15 -->
<g id="node15" class="node">
<title>Node15</title>
<g id="a_node15"><a xlink:href="v8-maybe_8h.html" target="_top" xlink:title=" ">
<polygon fill="white" stroke="black" points="1084,-168.5 1084,-187.5 1150,-187.5 1150,-168.5 1084,-168.5"/>
<text text-anchor="middle" x="1117" y="-175.5" font-family="Helvetica,sans-Serif" font-size="10.00">v8&#45;maybe.h</text>
</a>
</g>
</g>
<!-- Node14&#45;&gt;Node15 -->
<g id="edge23" class="edge">
<title>Node14&#45;&gt;Node15</title>
<path fill="none" stroke="midnightblue" d="M529.03,-336.42C632.65,-308.68 958.81,-221.36 1075.21,-190.19"/>
<polygon fill="midnightblue" stroke="midnightblue" points="1076.41,-193.49 1085.16,-187.52 1074.6,-186.73 1076.41,-193.49"/>
</g>
<!-- Node16 -->
<g id="node16" class="node">
<title>Node16</title>
<g id="a_node16"><a xlink:href="v8-persistent-handle_8h.html" target="_top" xlink:title=" ">
<polygon fill="white" stroke="black" points="357,-168.5 357,-187.5 469,-187.5 469,-168.5 357,-168.5"/>
<text text-anchor="middle" x="413" y="-175.5" font-family="Helvetica,sans-Serif" font-size="10.00">v8&#45;persistent&#45;handle.h</text>
</a>
</g>
</g>
<!-- Node14&#45;&gt;Node16 -->
<g id="edge26" class="edge">
<title>Node14&#45;&gt;Node16</title>
<path fill="none" stroke="midnightblue" d="M464.74,-345.17C430.7,-343.4 378.52,-334.71 353,-300 332.99,-272.79 337.89,-254.21 353,-224 359.73,-210.54 372.61,-200.07 384.71,-192.62"/>
<polygon fill="midnightblue" stroke="midnightblue" points="386.73,-195.5 393.7,-187.52 383.28,-189.41 386.73,-195.5"/>
</g>
<!-- Node18 -->
<g id="node18" class="node">
<title>Node18</title>
<g id="a_node18"><a xlink:href="v8-primitive_8h.html" target="_top" xlink:title=" ">
<polygon fill="white" stroke="black" points="460,-280.5 460,-299.5 534,-299.5 534,-280.5 460,-280.5"/>
<text text-anchor="middle" x="497" y="-287.5" font-family="Helvetica,sans-Serif" font-size="10.00">v8&#45;primitive.h</text>
</a>
</g>
</g>
<!-- Node14&#45;&gt;Node18 -->
<g id="edge32" class="edge">
<title>Node14&#45;&gt;Node18</title>
<path fill="none" stroke="midnightblue" d="M497,-336.08C497,-329.01 497,-318.86 497,-309.99"/>
<polygon fill="midnightblue" stroke="midnightblue" points="500.5,-309.75 497,-299.75 493.5,-309.75 500.5,-309.75"/>
</g>
<!-- Node14&#45;&gt;Node20 -->
<g id="edge59" class="edge">
<title>Node14&#45;&gt;Node20</title>
<path fill="none" stroke="midnightblue" d="M509.03,-336.38C519.55,-328.19 534.47,-314.94 543,-300 551.19,-285.65 555.22,-267.19 557.18,-253.61"/>
<polygon fill="midnightblue" stroke="midnightblue" points="560.67,-253.9 558.39,-243.55 553.72,-253.06 560.67,-253.9"/>
</g>
<!-- Node21 -->
<g id="node21" class="node">
<title>Node21</title>
<g id="a_node21"><a xlink:href="v8-traced-handle_8h.html" target="_top" xlink:title=" ">
<polygon fill="white" stroke="black" points="590,-168.5 590,-187.5 686,-187.5 686,-168.5 590,-168.5"/>
<text text-anchor="middle" x="638" y="-175.5" font-family="Helvetica,sans-Serif" font-size="10.00">v8&#45;traced&#45;handle.h</text>
</a>
</g>
</g>
<!-- Node14&#45;&gt;Node21 -->
<g id="edge45" class="edge">
<title>Node14&#45;&gt;Node21</title>
<path fill="none" stroke="midnightblue" d="M483.27,-336.36C466.2,-324.45 440.54,-301.97 451,-280 475.24,-229.1 537.16,-202.98 583.14,-190.19"/>
<polygon fill="midnightblue" stroke="midnightblue" points="584.22,-193.53 592.99,-187.59 582.42,-186.76 584.22,-193.53"/>
</g>
<!-- Node15&#45;&gt;Node6 -->
<g id="edge24" class="edge">
<title>Node15&#45;&gt;Node6</title>
<path fill="none" stroke="midnightblue" d="M1117.34,-168.15C1117.35,-153.81 1115.04,-125.7 1098,-112 1050.17,-73.55 622.73,-67.93 481.83,-67.13"/>
<polygon fill="midnightblue" stroke="midnightblue" points="481.82,-63.63 471.8,-67.08 481.78,-70.63 481.82,-63.63"/>
</g>
<!-- Node15&#45;&gt;Node9 -->
<g id="edge25" class="edge">
<title>Node15&#45;&gt;Node9</title>
<path fill="none" stroke="midnightblue" d="M1132.86,-168.23C1145.14,-160.47 1161.32,-147.92 1169,-132 1185,-98.83 1181.44,-54.4 1177.6,-29.65"/>
<polygon fill="midnightblue" stroke="midnightblue" points="1181.05,-29.03 1175.89,-19.77 1174.15,-30.23 1181.05,-29.03"/>
</g>
<!-- Node16&#45;&gt;Node6 -->
<g id="edge27" class="edge">
<title>Node16&#45;&gt;Node6</title>
<path fill="none" stroke="midnightblue" d="M357,-169.29C313.95,-162.09 259.61,-149.76 246,-132 240.59,-124.94 240.48,-118.97 246,-112 250.6,-106.19 337.34,-87.46 392.33,-76.07"/>
<polygon fill="midnightblue" stroke="midnightblue" points="393.12,-79.49 402.2,-74.04 391.7,-72.63 393.12,-79.49"/>
</g>
<!-- Node16&#45;&gt;Node9 -->
<g id="edge31" class="edge">
<title>Node16&#45;&gt;Node9</title>
<path fill="none" stroke="midnightblue" d="M405.99,-168.36C395.89,-154.81 379.9,-128.41 394,-112 442.77,-55.23 980.07,-21.62 1133.38,-13.14"/>
<polygon fill="midnightblue" stroke="midnightblue" points="1133.95,-16.61 1143.75,-12.57 1133.57,-9.62 1133.95,-16.61"/>
</g>
<!-- Node16&#45;&gt;Node10 -->
<g id="edge28" class="edge">
<title>Node16&#45;&gt;Node10</title>
<path fill="none" stroke="midnightblue" d="M371.17,-168.44C324.92,-158.98 250.39,-143.74 200.56,-133.55"/>
<polygon fill="midnightblue" stroke="midnightblue" points="201.13,-130.09 190.64,-131.52 199.73,-136.95 201.13,-130.09"/>
</g>
<!-- Node17 -->
<g id="node17" class="node">
<title>Node17</title>
<g id="a_node17"><a xlink:href="v8-weak-callback-info_8h.html" target="_top" xlink:title=" ">
<polygon fill="white" stroke="black" points="402.5,-112.5 402.5,-131.5 521.5,-131.5 521.5,-112.5 402.5,-112.5"/>
<text text-anchor="middle" x="462" y="-119.5" font-family="Helvetica,sans-Serif" font-size="10.00">v8&#45;weak&#45;callback&#45;info.h</text>
</a>
</g>
</g>
<!-- Node16&#45;&gt;Node17 -->
<g id="edge29" class="edge">
<title>Node16&#45;&gt;Node17</title>
<path fill="none" stroke="midnightblue" d="M421.09,-168.08C428.16,-160.3 438.59,-148.8 447.15,-139.37"/>
<polygon fill="midnightblue" stroke="midnightblue" points="449.93,-141.51 454.06,-131.75 444.75,-136.8 449.93,-141.51"/>
</g>
<!-- Node17&#45;&gt;Node9 -->
<g id="edge30" class="edge">
<title>Node17&#45;&gt;Node9</title>
<path fill="none" stroke="midnightblue" d="M519.34,-112.49C579.54,-103.52 676.95,-88.94 761,-76 897.75,-54.95 1059.84,-29.21 1133.71,-17.43"/>
<polygon fill="midnightblue" stroke="midnightblue" points="1134.63,-20.83 1143.96,-15.8 1133.53,-13.92 1134.63,-20.83"/>
</g>
<!-- Node18&#45;&gt;Node6 -->
<g id="edge36" class="edge">
<title>Node18&#45;&gt;Node6</title>
<path fill="none" stroke="midnightblue" d="M498.34,-280.23C501.13,-258.55 505.23,-201.77 478,-168 450.18,-133.5 410.05,-168.56 385,-132 372.39,-113.6 393.89,-93.76 412.95,-80.9"/>
<polygon fill="midnightblue" stroke="midnightblue" points="414.86,-83.84 421.41,-75.52 411.1,-77.94 414.86,-83.84"/>
</g>
<!-- Node18&#45;&gt;Node9 -->
<g id="edge44" class="edge">
<title>Node18&#45;&gt;Node9</title>
<path fill="none" stroke="midnightblue" d="M534.33,-287.79C658.94,-283.08 1058.37,-262.37 1159,-188 1207.81,-151.93 1206.6,-115.37 1194,-56 1192,-46.59 1187.9,-36.76 1183.93,-28.7"/>
<polygon fill="midnightblue" stroke="midnightblue" points="1186.89,-26.81 1179.13,-19.59 1180.69,-30.07 1186.89,-26.81"/>
</g>
<!-- Node18&#45;&gt;Node10 -->
<g id="edge37" class="edge">
<title>Node18&#45;&gt;Node10</title>
<path fill="none" stroke="midnightblue" d="M480.84,-280.5C428.53,-252.97 267.17,-168.08 267,-168 239.55,-155.6 207.58,-143.55 183.85,-135.04"/>
<polygon fill="midnightblue" stroke="midnightblue" points="184.81,-131.67 174.22,-131.62 182.47,-138.27 184.81,-131.67"/>
</g>
<!-- Node19 -->
<g id="node19" class="node">
<title>Node19</title>
<g id="a_node19"><a xlink:href="v8-data_8h.html" target="_top" xlink:title=" ">
<polygon fill="white" stroke="black" points="704,-168.5 704,-187.5 760,-187.5 760,-168.5 704,-168.5"/>
<text text-anchor="middle" x="732" y="-175.5" font-family="Helvetica,sans-Serif" font-size="10.00">v8&#45;data.h</text>
</a>
</g>
</g>
<!-- Node18&#45;&gt;Node19 -->
<g id="edge33" class="edge">
<title>Node18&#45;&gt;Node19</title>
<path fill="none" stroke="midnightblue" d="M517.04,-280.43C537.68,-271.55 570.74,-257.13 599,-244 636.36,-226.64 679.09,-205.53 705.81,-192.18"/>
<polygon fill="midnightblue" stroke="midnightblue" points="707.51,-195.24 714.89,-187.63 704.38,-188.98 707.51,-195.24"/>
</g>
<!-- Node18&#45;&gt;Node20 -->
<g id="edge38" class="edge">
<title>Node18&#45;&gt;Node20</title>
<path fill="none" stroke="midnightblue" d="M506.96,-280.32C516.13,-272.34 529.94,-260.31 541.03,-250.65"/>
<polygon fill="midnightblue" stroke="midnightblue" points="543.62,-253.04 548.86,-243.83 539.02,-247.76 543.62,-253.04"/>
</g>
<!-- Node19&#45;&gt;Node9 -->
<g id="edge35" class="edge">
<title>Node19&#45;&gt;Node9</title>
<path fill="none" stroke="midnightblue" d="M760.3,-175.58C808.12,-172.39 907.3,-162.38 985,-132 1053.32,-105.28 1123.39,-52.41 1155.67,-26.31"/>
<polygon fill="midnightblue" stroke="midnightblue" points="1158.22,-28.74 1163.74,-19.7 1153.79,-23.33 1158.22,-28.74"/>
</g>
<!-- Node19&#45;&gt;Node10 -->
<g id="edge34" class="edge">
<title>Node19&#45;&gt;Node10</title>
<path fill="none" stroke="midnightblue" d="M703.81,-169.66C700.85,-169.04 697.87,-168.46 695,-168 516.58,-139.13 302.2,-128.33 203.55,-124.67"/>
<polygon fill="midnightblue" stroke="midnightblue" points="203.64,-121.17 193.52,-124.31 203.39,-128.17 203.64,-121.17"/>
</g>
<!-- Node20&#45;&gt;Node6 -->
<g id="edge40" class="edge">
<title>Node20&#45;&gt;Node6</title>
<path fill="none" stroke="midnightblue" d="M554.97,-224.46C547.98,-210.56 532.29,-183.09 511,-168 466.61,-136.54 426.32,-175.76 394,-132 381.68,-115.32 399.53,-95.31 415.84,-81.94"/>
<polygon fill="midnightblue" stroke="midnightblue" points="418.27,-84.48 424.06,-75.6 414,-78.94 418.27,-84.48"/>
</g>
<!-- Node20&#45;&gt;Node9 -->
<g id="edge43" class="edge">
<title>Node20&#45;&gt;Node9</title>
<path fill="none" stroke="midnightblue" d="M589.54,-230.49C690.72,-221.68 1013.39,-189.59 1098,-132 1135.13,-106.73 1157.75,-56.68 1167.82,-29.54"/>
<polygon fill="midnightblue" stroke="midnightblue" points="1171.25,-30.35 1171.27,-19.75 1164.64,-28.02 1171.25,-30.35"/>
</g>
<!-- Node20&#45;&gt;Node10 -->
<g id="edge41" class="edge">
<title>Node20&#45;&gt;Node10</title>
<path fill="none" stroke="midnightblue" d="M528.38,-228.69C486.8,-222.34 410.52,-208.91 348,-188 328.01,-181.32 324.74,-175.39 305,-168 268.43,-154.32 225.77,-142.27 194.31,-134.09"/>
<polygon fill="midnightblue" stroke="midnightblue" points="195.07,-130.67 184.51,-131.57 193.33,-137.45 195.07,-130.67"/>
</g>
<!-- Node20&#45;&gt;Node15 -->
<g id="edge42" class="edge">
<title>Node20&#45;&gt;Node15</title>
<path fill="none" stroke="midnightblue" d="M589.65,-231.39C669.21,-226.97 888.74,-213.27 1070,-188 1071.27,-187.82 1072.56,-187.63 1073.87,-187.44"/>
<polygon fill="midnightblue" stroke="midnightblue" points="1074.65,-190.85 1083.95,-185.77 1073.51,-183.95 1074.65,-190.85"/>
</g>
<!-- Node20&#45;&gt;Node19 -->
<g id="edge39" class="edge">
<title>Node20&#45;&gt;Node19</title>
<path fill="none" stroke="midnightblue" d="M586.41,-224.44C615.77,-215.28 662.52,-200.69 695.1,-190.52"/>
<polygon fill="midnightblue" stroke="midnightblue" points="696.21,-193.84 704.72,-187.52 694.13,-187.16 696.21,-193.84"/>
</g>
<!-- Node21&#45;&gt;Node2 -->
<g id="edge46" class="edge">
<title>Node21&#45;&gt;Node2</title>
<path fill="none" stroke="midnightblue" d="M589.79,-172.09C539.85,-166.09 460.02,-153.92 394,-132 307.77,-103.37 213.44,-49.86 171.39,-24.72"/>
<polygon fill="midnightblue" stroke="midnightblue" points="173.14,-21.69 162.77,-19.52 169.53,-27.68 173.14,-21.69"/>
</g>
<!-- Node21&#45;&gt;Node3 -->
<g id="edge47" class="edge">
<title>Node21&#45;&gt;Node3</title>
<path fill="none" stroke="midnightblue" d="M686.05,-169.12C758.59,-157.13 888.09,-135.36 892,-132 922.33,-105.95 930.27,-56.6 932.32,-29.67"/>
<polygon fill="midnightblue" stroke="midnightblue" points="935.82,-29.82 932.89,-19.64 928.83,-29.42 935.82,-29.82"/>
</g>
<!-- Node21&#45;&gt;Node5 -->
<g id="edge52" class="edge">
<title>Node21&#45;&gt;Node5</title>
<path fill="none" stroke="midnightblue" d="M686.25,-168.67C754.92,-156.7 872.96,-135.67 876,-132 881.67,-125.16 881.04,-119.32 876,-112 825.51,-38.63 713.91,-18.53 653.23,-13.04"/>
<polygon fill="midnightblue" stroke="midnightblue" points="653.49,-9.55 643.24,-12.23 652.92,-16.53 653.49,-9.55"/>
</g>
<!-- Node21&#45;&gt;Node6 -->
<g id="edge55" class="edge">
<title>Node21&#45;&gt;Node6</title>
<path fill="none" stroke="midnightblue" d="M624.74,-168.35C604.76,-155.47 565.6,-130.73 531,-112 509.46,-100.34 484.41,-88.42 465.59,-79.79"/>
<polygon fill="midnightblue" stroke="midnightblue" points="466.91,-76.55 456.36,-75.59 464.01,-82.92 466.91,-76.55"/>
</g>
<!-- Node21&#45;&gt;Node9 -->
<g id="edge58" class="edge">
<title>Node21&#45;&gt;Node9</title>
<path fill="none" stroke="midnightblue" d="M686.3,-169.27C763.74,-156.84 907.6,-133.66 913,-132 960.5,-117.4 1091.85,-52.39 1148,-24.16"/>
<polygon fill="midnightblue" stroke="midnightblue" points="1149.6,-27.27 1156.96,-19.64 1146.45,-21.02 1149.6,-27.27"/>
</g>
<!-- Node21&#45;&gt;Node10 -->
<g id="edge56" class="edge">
<title>Node21&#45;&gt;Node10</title>
<path fill="none" stroke="midnightblue" d="M589.77,-171.67C498.29,-161.57 300.11,-139.69 203.78,-129.05"/>
<polygon fill="midnightblue" stroke="midnightblue" points="203.99,-125.55 193.67,-127.93 203.22,-132.51 203.99,-125.55"/>
</g>
<!-- Node21&#45;&gt;Node13 -->
<g id="edge50" class="edge">
<title>Node21&#45;&gt;Node13</title>
<path fill="none" stroke="midnightblue" d="M686.18,-169.27C689.17,-168.83 692.12,-168.4 695,-168 758.83,-159.06 947.99,-136.57 1027.33,-127.2"/>
<polygon fill="midnightblue" stroke="midnightblue" points="1027.82,-130.67 1037.34,-126.02 1027,-123.72 1027.82,-130.67"/>
</g>
<!-- Node21&#45;&gt;Node17 -->
<g id="edge57" class="edge">
<title>Node21&#45;&gt;Node17</title>
<path fill="none" stroke="midnightblue" d="M610.11,-168.44C580.25,-159.28 532.69,-144.69 499.54,-134.52"/>
<polygon fill="midnightblue" stroke="midnightblue" points="500.34,-131.1 489.76,-131.52 498.29,-137.8 500.34,-131.1"/>
</g>
<!-- Node22 -->
<g id="node22" class="node">
<title>Node22</title>
<g id="a_node22"><a xlink:title=" ">
<polygon fill="white" stroke="#bfbfbf" points="578.5,-112.5 578.5,-131.5 623.5,-131.5 623.5,-112.5 578.5,-112.5"/>
<text text-anchor="middle" x="601" y="-119.5" font-family="Helvetica,sans-Serif" font-size="10.00">stdio.h</text>
</a>
</g>
</g>
<!-- Node21&#45;&gt;Node22 -->
<g id="edge48" class="edge">
<title>Node21&#45;&gt;Node22</title>
<path fill="none" stroke="midnightblue" d="M631.89,-168.08C626.72,-160.53 619.15,-149.49 612.81,-140.23"/>
<polygon fill="midnightblue" stroke="midnightblue" points="615.54,-138.02 607,-131.75 609.76,-141.98 615.54,-138.02"/>
</g>
<!-- Node23 -->
<g id="node23" class="node">
<title>Node23</title>
<g id="a_node23"><a xlink:title=" ">
<polygon fill="white" stroke="#bfbfbf" points="642,-112.5 642,-131.5 688,-131.5 688,-112.5 642,-112.5"/>
<text text-anchor="middle" x="665" y="-119.5" font-family="Helvetica,sans-Serif" font-size="10.00">atomic</text>
</a>
</g>
</g>
<!-- Node21&#45;&gt;Node23 -->
<g id="edge49" class="edge">
<title>Node21&#45;&gt;Node23</title>
<path fill="none" stroke="midnightblue" d="M642.46,-168.08C646.15,-160.69 651.52,-149.95 656.09,-140.81"/>
<polygon fill="midnightblue" stroke="midnightblue" points="659.28,-142.26 660.62,-131.75 653.02,-139.13 659.28,-142.26"/>
</g>
<!-- Node24 -->
<g id="node24" class="node">
<title>Node24</title>
<g id="a_node24"><a xlink:title=" ">
<polygon fill="white" stroke="#bfbfbf" points="706.5,-112.5 706.5,-131.5 747.5,-131.5 747.5,-112.5 706.5,-112.5"/>
<text text-anchor="middle" x="727" y="-119.5" font-family="Helvetica,sans-Serif" font-size="10.00">string</text>
</a>
</g>
</g>
<!-- Node21&#45;&gt;Node24 -->
<g id="edge51" class="edge">
<title>Node21&#45;&gt;Node24</title>
<path fill="none" stroke="midnightblue" d="M652.3,-168.32C666.18,-159.9 687.49,-146.97 703.8,-137.07"/>
<polygon fill="midnightblue" stroke="midnightblue" points="706,-139.83 712.74,-131.65 702.37,-133.85 706,-139.83"/>
</g>
<!-- Node25 -->
<g id="node25" class="node">
<title>Node25</title>
<g id="a_node25"><a xlink:title=" ">
<polygon fill="white" stroke="#bfbfbf" points="765.5,-112.5 765.5,-131.5 804.5,-131.5 804.5,-112.5 765.5,-112.5"/>
<text text-anchor="middle" x="785" y="-119.5" font-family="Helvetica,sans-Serif" font-size="10.00">utility</text>
</a>
</g>
</g>
<!-- Node21&#45;&gt;Node25 -->
<g id="edge53" class="edge">
<title>Node21&#45;&gt;Node25</title>
<path fill="none" stroke="midnightblue" d="M661.29,-168.44C686.82,-159.07 727.81,-144.01 755.55,-133.82"/>
<polygon fill="midnightblue" stroke="midnightblue" points="756.94,-137.04 765.12,-130.3 754.52,-130.47 756.94,-137.04"/>
</g>
<!-- Node26 -->
<g id="node26" class="node">
<title>Node26</title>
<g id="a_node26"><a xlink:title=" ">
<polygon fill="white" stroke="#bfbfbf" points="823,-112.5 823,-131.5 867,-131.5 867,-112.5 823,-112.5"/>
<text text-anchor="middle" x="845" y="-119.5" font-family="Helvetica,sans-Serif" font-size="10.00">vector</text>
</a>
</g>
</g>
<!-- Node21&#45;&gt;Node26 -->
<g id="edge54" class="edge">
<title>Node21&#45;&gt;Node26</title>
<path fill="none" stroke="midnightblue" d="M672.82,-168.45C706.37,-160.13 758.8,-146.93 812.91,-132.24"/>
<polygon fill="midnightblue" stroke="midnightblue" points="813.95,-135.58 822.67,-129.58 812.1,-128.83 813.95,-135.58"/>
</g>
</g>
</svg>
