<?xml version="1.0" encoding="UTF-8" standalone="no"?>
<!DOCTYPE svg PUBLIC "-//W3C//DTD SVG 1.1//EN"
 "http://www.w3.org/Graphics/SVG/1.1/DTD/svg11.dtd">
<!-- Generated by graphviz version 2.49.3 (20211027.1534)
 -->
<!-- Title: include/v8&#45;promise.h Pages: 1 -->
<svg width="375pt" height="263pt"
 viewBox="0.00 0.00 374.50 263.00" xmlns="http://www.w3.org/2000/svg" xmlns:xlink="http://www.w3.org/1999/xlink">
<g id="graph0" class="graph" transform="scale(1 1) rotate(0) translate(4 259)">
<title>include/v8&#45;promise.h</title>
<polygon fill="white" stroke="transparent" points="-4,4 -4,-259 370.5,-259 370.5,4 -4,4"/>
<!-- Node1 -->
<g id="node1" class="node">
<title>Node1</title>
<g id="a_node1"><a xlink:title=" ">
<polygon fill="#bfbfbf" stroke="black" points="260.5,-235.5 260.5,-254.5 366.5,-254.5 366.5,-235.5 260.5,-235.5"/>
<text text-anchor="middle" x="313.5" y="-242.5" font-family="Helvetica,sans-Serif" font-size="10.00">include/v8&#45;promise.h</text>
</a>
</g>
</g>
<!-- Node2 -->
<g id="node2" class="node">
<title>Node2</title>
<g id="a_node2"><a xlink:href="v8-statistics_8h.html" target="_top" xlink:title=" ">
<polygon fill="white" stroke="black" points="216,-179.5 216,-198.5 327,-198.5 327,-179.5 216,-179.5"/>
<text text-anchor="middle" x="271.5" y="-186.5" font-family="Helvetica,sans-Serif" font-size="10.00">include/v8&#45;statistics.h</text>
</a>
</g>
</g>
<!-- Node1&#45;&gt;Node2 -->
<g id="edge1" class="edge">
<title>Node1&#45;&gt;Node2</title>
<path fill="none" stroke="midnightblue" d="M300.39,-227.14C293.07,-217.74 284.26,-206.4 278.31,-198.75"/>
<polygon fill="midnightblue" stroke="midnightblue" points="297.66,-229.34 306.56,-235.08 303.19,-225.04 297.66,-229.34"/>
</g>
<!-- Node5 -->
<g id="node5" class="node">
<title>Node5</title>
<g id="a_node5"><a xlink:href="v8_8h.html" target="_top" xlink:title=" ">
<polygon fill="white" stroke="black" points="264.5,-6 264.5,-25 332.5,-25 332.5,-6 264.5,-6"/>
<text text-anchor="middle" x="298.5" y="-13" font-family="Helvetica,sans-Serif" font-size="10.00">include/v8.h</text>
</a>
</g>
</g>
<!-- Node1&#45;&gt;Node5 -->
<g id="edge9" class="edge">
<title>Node1&#45;&gt;Node5</title>
<path fill="none" stroke="midnightblue" d="M324.92,-226.44C329.48,-218.42 334.19,-208.58 336.5,-199 338.58,-190.36 337.52,-187.83 336.5,-179 329.59,-119.13 308.82,-49.27 301.28,-25.18"/>
<polygon fill="midnightblue" stroke="midnightblue" points="321.81,-224.83 319.6,-235.19 327.79,-228.46 321.81,-224.83"/>
</g>
<!-- Node3 -->
<g id="node3" class="node">
<title>Node3</title>
<g id="a_node3"><a xlink:href="v8-isolate_8h.html" target="_top" xlink:title=" ">
<polygon fill="white" stroke="black" points="165.5,-123.5 165.5,-142.5 265.5,-142.5 265.5,-123.5 165.5,-123.5"/>
<text text-anchor="middle" x="215.5" y="-130.5" font-family="Helvetica,sans-Serif" font-size="10.00">include/v8&#45;isolate.h</text>
</a>
</g>
</g>
<!-- Node2&#45;&gt;Node3 -->
<g id="edge2" class="edge">
<title>Node2&#45;&gt;Node3</title>
<path fill="none" stroke="midnightblue" d="M255.17,-172.25C245.24,-162.67 232.91,-150.79 224.66,-142.83"/>
<polygon fill="midnightblue" stroke="midnightblue" points="252.87,-174.9 262.5,-179.32 257.73,-169.86 252.87,-174.9"/>
</g>
<!-- Node2&#45;&gt;Node5 -->
<g id="edge8" class="edge">
<title>Node2&#45;&gt;Node5</title>
<path fill="none" stroke="midnightblue" d="M274.44,-169.33C280.25,-132.43 293,-51.44 297.16,-25.02"/>
<polygon fill="midnightblue" stroke="midnightblue" points="270.97,-168.84 272.88,-179.26 277.89,-169.93 270.97,-168.84"/>
</g>
<!-- Node4 -->
<g id="node4" class="node">
<title>Node4</title>
<g id="a_node4"><a xlink:href="v8-initialization_8h.html" target="_top" xlink:title=" ">
<polygon fill="white" stroke="black" points="129.5,-67.5 129.5,-86.5 251.5,-86.5 251.5,-67.5 129.5,-67.5"/>
<text text-anchor="middle" x="190.5" y="-74.5" font-family="Helvetica,sans-Serif" font-size="10.00">include/v8&#45;initialization.h</text>
</a>
</g>
</g>
<!-- Node3&#45;&gt;Node4 -->
<g id="edge3" class="edge">
<title>Node3&#45;&gt;Node4</title>
<path fill="none" stroke="midnightblue" d="M207.16,-113.98C202.92,-104.82 197.95,-94.09 194.55,-86.75"/>
<polygon fill="midnightblue" stroke="midnightblue" points="203.99,-115.48 211.37,-123.08 210.35,-112.54 203.99,-115.48"/>
</g>
<!-- Node3&#45;&gt;Node5 -->
<g id="edge7" class="edge">
<title>Node3&#45;&gt;Node5</title>
<path fill="none" stroke="midnightblue" d="M233.19,-116.6C242.03,-108.36 252.52,-97.72 260.5,-87 275.78,-66.48 288.72,-39.04 294.8,-25.22"/>
<polygon fill="midnightblue" stroke="midnightblue" points="230.72,-114.12 225.65,-123.42 235.41,-119.3 230.72,-114.12"/>
</g>
<!-- Node6 -->
<g id="node6" class="node">
<title>Node6</title>
<g id="a_node6"><a xlink:href="v8-inspector_8h.html" target="_top" xlink:title=" ">
<polygon fill="white" stroke="black" points="0,-67.5 0,-86.5 111,-86.5 111,-67.5 0,-67.5"/>
<text text-anchor="middle" x="55.5" y="-74.5" font-family="Helvetica,sans-Serif" font-size="10.00">include/v8&#45;inspector.h</text>
</a>
</g>
</g>
<!-- Node3&#45;&gt;Node6 -->
<g id="edge5" class="edge">
<title>Node3&#45;&gt;Node6</title>
<path fill="none" stroke="midnightblue" d="M180.45,-120.17C150.33,-110 107.6,-95.59 80.73,-86.52"/>
<polygon fill="midnightblue" stroke="midnightblue" points="179.55,-123.56 190.15,-123.44 181.79,-116.93 179.55,-123.56"/>
</g>
<!-- Node4&#45;&gt;Node5 -->
<g id="edge4" class="edge">
<title>Node4&#45;&gt;Node5</title>
<path fill="none" stroke="midnightblue" d="M214.9,-62.56C235.8,-51.04 265.26,-34.81 283.05,-25.01"/>
<polygon fill="midnightblue" stroke="midnightblue" points="213.04,-59.58 205.97,-67.48 216.42,-65.72 213.04,-59.58"/>
</g>
<!-- Node7 -->
<g id="node7" class="node">
<title>Node7</title>
<g id="a_node7"><a xlink:href="v8-inspector-protocol_8h.html" target="_top" xlink:title=" ">
<polygon fill="white" stroke="black" points="3.5,-0.5 3.5,-30.5 107.5,-30.5 107.5,-0.5 3.5,-0.5"/>
<text text-anchor="start" x="11.5" y="-18.5" font-family="Helvetica,sans-Serif" font-size="10.00">include/v8&#45;inspector</text>
<text text-anchor="middle" x="55.5" y="-7.5" font-family="Helvetica,sans-Serif" font-size="10.00">&#45;protocol.h</text>
</a>
</g>
</g>
<!-- Node6&#45;&gt;Node7 -->
<g id="edge6" class="edge">
<title>Node6&#45;&gt;Node7</title>
<path fill="none" stroke="midnightblue" d="M55.5,-57.23C55.5,-48.59 55.5,-38.5 55.5,-30.52"/>
<polygon fill="midnightblue" stroke="midnightblue" points="52,-57.48 55.5,-67.48 59,-57.48 52,-57.48"/>
</g>
</g>
</svg>
