<?xml version="1.0" encoding="UTF-8" standalone="no"?>
<!DOCTYPE svg PUBLIC "-//W3C//DTD SVG 1.1//EN"
 "http://www.w3.org/Graphics/SVG/1.1/DTD/svg11.dtd">
<!-- Generated by graphviz version 2.49.3 (20211027.1534)
 -->
<!-- Title: include/v8&#45;profiler.h Pages: 1 -->
<svg width="645pt" height="252pt"
 viewBox="0.00 0.00 645.47 252.00" xmlns="http://www.w3.org/2000/svg" xmlns:xlink="http://www.w3.org/1999/xlink">
<g id="graph0" class="graph" transform="scale(1 1) rotate(0) translate(4 248)">
<title>include/v8&#45;profiler.h</title>
<polygon fill="white" stroke="transparent" points="-4,4 -4,-248 641.47,-248 641.47,4 -4,4"/>
<!-- Node1 -->
<g id="node1" class="node">
<title>Node1</title>
<g id="a_node1"><a xlink:title=" ">
<polygon fill="#bfbfbf" stroke="black" points="202.5,-224.5 202.5,-243.5 302.5,-243.5 302.5,-224.5 202.5,-224.5"/>
<text text-anchor="middle" x="252.5" y="-231.5" font-family="Helvetica,sans-Serif" font-size="10.00">include/v8&#45;profiler.h</text>
</a>
</g>
</g>
<!-- Node2 -->
<g id="node2" class="node">
<title>Node2</title>
<g id="a_node2"><a xlink:title=" ">
<polygon fill="white" stroke="#bfbfbf" points="0,-168.5 0,-187.5 47,-187.5 47,-168.5 0,-168.5"/>
<text text-anchor="middle" x="23.5" y="-175.5" font-family="Helvetica,sans-Serif" font-size="10.00">limits.h</text>
</a>
</g>
</g>
<!-- Node1&#45;&gt;Node2 -->
<g id="edge1" class="edge">
<title>Node1&#45;&gt;Node2</title>
<path fill="none" stroke="midnightblue" d="M212.37,-224.44C174.56,-216.25 116.13,-203.23 57.09,-188.32"/>
<polygon fill="midnightblue" stroke="midnightblue" points="57.78,-184.89 47.23,-185.82 56.06,-191.67 57.78,-184.89"/>
</g>
<!-- Node3 -->
<g id="node3" class="node">
<title>Node3</title>
<g id="a_node3"><a xlink:title=" ">
<polygon fill="white" stroke="#bfbfbf" points="65,-168.5 65,-187.5 116,-187.5 116,-168.5 65,-168.5"/>
<text text-anchor="middle" x="90.5" y="-175.5" font-family="Helvetica,sans-Serif" font-size="10.00">memory</text>
</a>
</g>
</g>
<!-- Node1&#45;&gt;Node3 -->
<g id="edge2" class="edge">
<title>Node1&#45;&gt;Node3</title>
<path fill="none" stroke="midnightblue" d="M226.83,-224.44C199.58,-215.36 156.32,-200.94 125.85,-190.78"/>
<polygon fill="midnightblue" stroke="midnightblue" points="126.64,-187.36 116.05,-187.52 124.43,-194 126.64,-187.36"/>
</g>
<!-- Node4 -->
<g id="node4" class="node">
<title>Node4</title>
<g id="a_node4"><a xlink:title=" ">
<polygon fill="white" stroke="#bfbfbf" points="134.5,-168.5 134.5,-187.5 212.5,-187.5 212.5,-168.5 134.5,-168.5"/>
<text text-anchor="middle" x="173.5" y="-175.5" font-family="Helvetica,sans-Serif" font-size="10.00">unordered_set</text>
</a>
</g>
</g>
<!-- Node1&#45;&gt;Node4 -->
<g id="edge3" class="edge">
<title>Node1&#45;&gt;Node4</title>
<path fill="none" stroke="midnightblue" d="M239.81,-224.32C227.6,-215.98 208.92,-203.21 194.5,-193.35"/>
<polygon fill="midnightblue" stroke="midnightblue" points="196.39,-190.41 186.16,-187.65 192.44,-196.19 196.39,-190.41"/>
</g>
<!-- Node5 -->
<g id="node5" class="node">
<title>Node5</title>
<g id="a_node5"><a xlink:title=" ">
<polygon fill="white" stroke="#bfbfbf" points="230.5,-168.5 230.5,-187.5 274.5,-187.5 274.5,-168.5 230.5,-168.5"/>
<text text-anchor="middle" x="252.5" y="-175.5" font-family="Helvetica,sans-Serif" font-size="10.00">vector</text>
</a>
</g>
</g>
<!-- Node1&#45;&gt;Node5 -->
<g id="edge4" class="edge">
<title>Node1&#45;&gt;Node5</title>
<path fill="none" stroke="midnightblue" d="M252.5,-224.08C252.5,-217.01 252.5,-206.86 252.5,-197.99"/>
<polygon fill="midnightblue" stroke="midnightblue" points="256,-197.75 252.5,-187.75 249,-197.75 256,-197.75"/>
</g>
<!-- Node6 -->
<g id="node6" class="node">
<title>Node6</title>
<g id="a_node6"><a xlink:href="v8-local-handle_8h.html" target="_top" xlink:title=" ">
<polygon fill="white" stroke="black" points="258,-112.5 258,-131.5 347,-131.5 347,-112.5 258,-112.5"/>
<text text-anchor="middle" x="302.5" y="-119.5" font-family="Helvetica,sans-Serif" font-size="10.00">v8&#45;local&#45;handle.h</text>
</a>
</g>
</g>
<!-- Node1&#45;&gt;Node6 -->
<g id="edge5" class="edge">
<title>Node1&#45;&gt;Node6</title>
<path fill="none" stroke="midnightblue" d="M259.82,-224.22C266.76,-215.51 277.06,-201.54 283.5,-188 290.6,-173.07 295.63,-154.93 298.73,-141.61"/>
<polygon fill="midnightblue" stroke="midnightblue" points="302.17,-142.25 300.87,-131.73 295.33,-140.76 302.17,-142.25"/>
</g>
<!-- Node14 -->
<g id="node14" class="node">
<title>Node14</title>
<g id="a_node14"><a xlink:href="v8-message_8h.html" target="_top" xlink:title=" ">
<polygon fill="white" stroke="black" points="461,-168.5 461,-187.5 538,-187.5 538,-168.5 461,-168.5"/>
<text text-anchor="middle" x="499.5" y="-175.5" font-family="Helvetica,sans-Serif" font-size="10.00">v8&#45;message.h</text>
</a>
</g>
</g>
<!-- Node1&#45;&gt;Node14 -->
<g id="edge15" class="edge">
<title>Node1&#45;&gt;Node14</title>
<path fill="none" stroke="midnightblue" d="M291.64,-224.44C334.85,-215 404.47,-199.78 451.08,-189.59"/>
<polygon fill="midnightblue" stroke="midnightblue" points="451.93,-192.98 460.95,-187.43 450.44,-186.14 451.93,-192.98"/>
</g>
<!-- Node17 -->
<g id="node17" class="node">
<title>Node17</title>
<g id="a_node17"><a xlink:href="v8-persistent-handle_8h.html" target="_top" xlink:title=" ">
<polygon fill="white" stroke="black" points="330.5,-168.5 330.5,-187.5 442.5,-187.5 442.5,-168.5 330.5,-168.5"/>
<text text-anchor="middle" x="386.5" y="-175.5" font-family="Helvetica,sans-Serif" font-size="10.00">v8&#45;persistent&#45;handle.h</text>
</a>
</g>
</g>
<!-- Node1&#45;&gt;Node17 -->
<g id="edge22" class="edge">
<title>Node1&#45;&gt;Node17</title>
<path fill="none" stroke="midnightblue" d="M273.73,-224.44C295.88,-215.52 330.82,-201.44 355.94,-191.32"/>
<polygon fill="midnightblue" stroke="midnightblue" points="357.4,-194.5 365.37,-187.52 354.78,-188.01 357.4,-194.5"/>
</g>
<!-- Node7 -->
<g id="node7" class="node">
<title>Node7</title>
<g id="a_node7"><a xlink:title=" ">
<polygon fill="white" stroke="#bfbfbf" points="272,-0.5 272,-19.5 323,-19.5 323,-0.5 272,-0.5"/>
<text text-anchor="middle" x="297.5" y="-7.5" font-family="Helvetica,sans-Serif" font-size="10.00">stddef.h</text>
</a>
</g>
</g>
<!-- Node6&#45;&gt;Node7 -->
<g id="edge6" class="edge">
<title>Node6&#45;&gt;Node7</title>
<path fill="none" stroke="midnightblue" d="M302.11,-112.37C301.3,-94.62 299.44,-53.67 298.35,-29.6"/>
<polygon fill="midnightblue" stroke="midnightblue" points="301.84,-29.42 297.89,-19.59 294.85,-29.74 301.84,-29.42"/>
</g>
<!-- Node8 -->
<g id="node8" class="node">
<title>Node8</title>
<g id="a_node8"><a xlink:title=" ">
<polygon fill="white" stroke="#bfbfbf" points="191.5,-0.5 191.5,-19.5 253.5,-19.5 253.5,-0.5 191.5,-0.5"/>
<text text-anchor="middle" x="222.5" y="-7.5" font-family="Helvetica,sans-Serif" font-size="10.00">type_traits</text>
</a>
</g>
</g>
<!-- Node6&#45;&gt;Node8 -->
<g id="edge7" class="edge">
<title>Node6&#45;&gt;Node8</title>
<path fill="none" stroke="midnightblue" d="M296.22,-112.37C283.02,-94.22 252.17,-51.8 234.86,-27.99"/>
<polygon fill="midnightblue" stroke="midnightblue" points="237.46,-25.62 228.75,-19.59 231.8,-29.74 237.46,-25.62"/>
</g>
<!-- Node9 -->
<g id="node9" class="node">
<title>Node9</title>
<g id="a_node9"><a xlink:href="v8-internal_8h.html" target="_top" xlink:title=" ">
<polygon fill="white" stroke="black" points="329,-56.5 329,-75.5 398,-75.5 398,-56.5 329,-56.5"/>
<text text-anchor="middle" x="363.5" y="-63.5" font-family="Helvetica,sans-Serif" font-size="10.00">v8&#45;internal.h</text>
</a>
</g>
</g>
<!-- Node6&#45;&gt;Node9 -->
<g id="edge8" class="edge">
<title>Node6&#45;&gt;Node9</title>
<path fill="none" stroke="midnightblue" d="M312.3,-112.32C321.32,-104.34 334.91,-92.31 345.82,-82.65"/>
<polygon fill="midnightblue" stroke="midnightblue" points="348.35,-85.08 353.52,-75.83 343.71,-79.84 348.35,-85.08"/>
</g>
<!-- Node9&#45;&gt;Node7 -->
<g id="edge9" class="edge">
<title>Node9&#45;&gt;Node7</title>
<path fill="none" stroke="midnightblue" d="M352.9,-56.32C343.04,-48.26 328.15,-36.08 316.28,-26.37"/>
<polygon fill="midnightblue" stroke="midnightblue" points="318.25,-23.46 308.3,-19.83 313.82,-28.88 318.25,-23.46"/>
</g>
<!-- Node9&#45;&gt;Node8 -->
<g id="edge12" class="edge">
<title>Node9&#45;&gt;Node8</title>
<path fill="none" stroke="midnightblue" d="M341.16,-56.44C317.75,-47.48 280.76,-33.31 254.31,-23.18"/>
<polygon fill="midnightblue" stroke="midnightblue" points="255.33,-19.82 244.74,-19.52 252.82,-26.36 255.33,-19.82"/>
</g>
<!-- Node10 -->
<g id="node10" class="node">
<title>Node10</title>
<g id="a_node10"><a xlink:title=" ">
<polygon fill="white" stroke="#bfbfbf" points="495.5,-0.5 495.5,-19.5 543.5,-19.5 543.5,-0.5 495.5,-0.5"/>
<text text-anchor="middle" x="519.5" y="-7.5" font-family="Helvetica,sans-Serif" font-size="10.00">stdint.h</text>
</a>
</g>
</g>
<!-- Node9&#45;&gt;Node10 -->
<g id="edge10" class="edge">
<title>Node9&#45;&gt;Node10</title>
<path fill="none" stroke="midnightblue" d="M388.22,-56.44C414.5,-47.35 456.25,-32.9 485.59,-22.74"/>
<polygon fill="midnightblue" stroke="midnightblue" points="487.1,-25.92 495.41,-19.34 484.81,-19.3 487.1,-25.92"/>
</g>
<!-- Node11 -->
<g id="node11" class="node">
<title>Node11</title>
<g id="a_node11"><a xlink:title=" ">
<polygon fill="white" stroke="#bfbfbf" points="341.5,-0.5 341.5,-19.5 389.5,-19.5 389.5,-0.5 341.5,-0.5"/>
<text text-anchor="middle" x="365.5" y="-7.5" font-family="Helvetica,sans-Serif" font-size="10.00">string.h</text>
</a>
</g>
</g>
<!-- Node9&#45;&gt;Node11 -->
<g id="edge11" class="edge">
<title>Node9&#45;&gt;Node11</title>
<path fill="none" stroke="midnightblue" d="M363.83,-56.08C364.09,-49.01 364.47,-38.86 364.8,-29.99"/>
<polygon fill="midnightblue" stroke="midnightblue" points="368.3,-29.87 365.18,-19.75 361.31,-29.61 368.3,-29.87"/>
</g>
<!-- Node12 -->
<g id="node12" class="node">
<title>Node12</title>
<g id="a_node12"><a xlink:href="v8-version_8h.html" target="_top" xlink:title=" ">
<polygon fill="white" stroke="black" points="408,-0.5 408,-19.5 477,-19.5 477,-0.5 408,-0.5"/>
<text text-anchor="middle" x="442.5" y="-7.5" font-family="Helvetica,sans-Serif" font-size="10.00">v8&#45;version.h</text>
</a>
</g>
</g>
<!-- Node9&#45;&gt;Node12 -->
<g id="edge13" class="edge">
<title>Node9&#45;&gt;Node12</title>
<path fill="none" stroke="midnightblue" d="M376.19,-56.32C388.4,-47.98 407.08,-35.21 421.5,-25.35"/>
<polygon fill="midnightblue" stroke="midnightblue" points="423.56,-28.19 429.84,-19.65 419.61,-22.41 423.56,-28.19"/>
</g>
<!-- Node13 -->
<g id="node13" class="node">
<title>Node13</title>
<g id="a_node13"><a xlink:href="v8config_8h.html" target="_top" xlink:title=" ">
<polygon fill="white" stroke="black" points="561.5,-0.5 561.5,-19.5 621.5,-19.5 621.5,-0.5 561.5,-0.5"/>
<text text-anchor="middle" x="591.5" y="-7.5" font-family="Helvetica,sans-Serif" font-size="10.00">v8config.h</text>
</a>
</g>
</g>
<!-- Node9&#45;&gt;Node13 -->
<g id="edge14" class="edge">
<title>Node9&#45;&gt;Node13</title>
<path fill="none" stroke="midnightblue" d="M398.13,-56.8C439.3,-47.05 507.89,-30.8 551.35,-20.51"/>
<polygon fill="midnightblue" stroke="midnightblue" points="552.37,-23.87 561.29,-18.15 550.75,-17.05 552.37,-23.87"/>
</g>
<!-- Node14&#45;&gt;Node6 -->
<g id="edge17" class="edge">
<title>Node14&#45;&gt;Node6</title>
<path fill="none" stroke="midnightblue" d="M468.28,-168.44C434.57,-159.2 380.7,-144.44 343.57,-134.26"/>
<polygon fill="midnightblue" stroke="midnightblue" points="344.14,-130.78 333.57,-131.52 342.29,-137.54 344.14,-130.78"/>
</g>
<!-- Node14&#45;&gt;Node13 -->
<g id="edge21" class="edge">
<title>Node14&#45;&gt;Node13</title>
<path fill="none" stroke="midnightblue" d="M538.15,-175.01C568.23,-171.19 608.17,-160.62 628.5,-132 651.5,-99.62 623.56,-52.62 605.16,-27.81"/>
<polygon fill="midnightblue" stroke="midnightblue" points="607.8,-25.51 598.92,-19.74 602.27,-29.79 607.8,-25.51"/>
</g>
<!-- Node15 -->
<g id="node15" class="node">
<title>Node15</title>
<g id="a_node15"><a xlink:title=" ">
<polygon fill="white" stroke="#bfbfbf" points="574,-112.5 574,-131.5 619,-131.5 619,-112.5 574,-112.5"/>
<text text-anchor="middle" x="596.5" y="-119.5" font-family="Helvetica,sans-Serif" font-size="10.00">stdio.h</text>
</a>
</g>
</g>
<!-- Node14&#45;&gt;Node15 -->
<g id="edge16" class="edge">
<title>Node14&#45;&gt;Node15</title>
<path fill="none" stroke="midnightblue" d="M515.08,-168.32C530.5,-159.74 554.31,-146.49 572.21,-136.52"/>
<polygon fill="midnightblue" stroke="midnightblue" points="573.92,-139.58 580.95,-131.65 570.51,-133.46 573.92,-139.58"/>
</g>
<!-- Node16 -->
<g id="node16" class="node">
<title>Node16</title>
<g id="a_node16"><a xlink:href="v8-maybe_8h.html" target="_top" xlink:title=" ">
<polygon fill="white" stroke="black" points="403.5,-112.5 403.5,-131.5 469.5,-131.5 469.5,-112.5 403.5,-112.5"/>
<text text-anchor="middle" x="436.5" y="-119.5" font-family="Helvetica,sans-Serif" font-size="10.00">v8&#45;maybe.h</text>
</a>
</g>
</g>
<!-- Node14&#45;&gt;Node16 -->
<g id="edge18" class="edge">
<title>Node14&#45;&gt;Node16</title>
<path fill="none" stroke="midnightblue" d="M489.38,-168.32C479.97,-160.26 465.76,-148.08 454.43,-138.37"/>
<polygon fill="midnightblue" stroke="midnightblue" points="456.68,-135.68 446.81,-131.83 452.12,-141 456.68,-135.68"/>
</g>
<!-- Node16&#45;&gt;Node9 -->
<g id="edge19" class="edge">
<title>Node16&#45;&gt;Node9</title>
<path fill="none" stroke="midnightblue" d="M424.77,-112.32C413.66,-104.11 396.76,-91.6 383.52,-81.81"/>
<polygon fill="midnightblue" stroke="midnightblue" points="385.56,-78.97 375.44,-75.83 381.4,-84.59 385.56,-78.97"/>
</g>
<!-- Node16&#45;&gt;Node13 -->
<g id="edge20" class="edge">
<title>Node16&#45;&gt;Node13</title>
<path fill="none" stroke="midnightblue" d="M435.01,-112.26C433.21,-98.56 431.92,-71.97 445.5,-56 452.55,-47.71 510.55,-31.56 551.28,-21.03"/>
<polygon fill="midnightblue" stroke="midnightblue" points="552.41,-24.36 561.23,-18.48 550.67,-17.57 552.41,-24.36"/>
</g>
<!-- Node17&#45;&gt;Node6 -->
<g id="edge24" class="edge">
<title>Node17&#45;&gt;Node6</title>
<path fill="none" stroke="midnightblue" d="M373,-168.32C359.9,-159.9 339.79,-146.97 324.39,-137.07"/>
<polygon fill="midnightblue" stroke="midnightblue" points="326.27,-134.12 315.96,-131.65 322.48,-140.01 326.27,-134.12"/>
</g>
<!-- Node17&#45;&gt;Node9 -->
<g id="edge23" class="edge">
<title>Node17&#45;&gt;Node9</title>
<path fill="none" stroke="midnightblue" d="M384.7,-168.37C380.98,-150.62 372.42,-109.67 367.39,-85.6"/>
<polygon fill="midnightblue" stroke="midnightblue" points="370.77,-84.66 365.3,-75.59 363.92,-86.1 370.77,-84.66"/>
</g>
<!-- Node17&#45;&gt;Node13 -->
<g id="edge27" class="edge">
<title>Node17&#45;&gt;Node13</title>
<path fill="none" stroke="midnightblue" d="M430.01,-168.46C477.12,-156.65 550.01,-130.3 583.5,-76 591.99,-62.24 593.51,-43.71 593.19,-29.96"/>
<polygon fill="midnightblue" stroke="midnightblue" points="596.67,-29.52 592.6,-19.74 589.69,-29.92 596.67,-29.52"/>
</g>
<!-- Node18 -->
<g id="node18" class="node">
<title>Node18</title>
<g id="a_node18"><a xlink:href="v8-weak-callback-info_8h.html" target="_top" xlink:title=" ">
<polygon fill="white" stroke="black" points="455,-56.5 455,-75.5 574,-75.5 574,-56.5 455,-56.5"/>
<text text-anchor="middle" x="514.5" y="-63.5" font-family="Helvetica,sans-Serif" font-size="10.00">v8&#45;weak&#45;callback&#45;info.h</text>
</a>
</g>
</g>
<!-- Node17&#45;&gt;Node18 -->
<g id="edge25" class="edge">
<title>Node17&#45;&gt;Node18</title>
<path fill="none" stroke="midnightblue" d="M414.51,-168.37C434.26,-161.17 460.33,-149.27 478.5,-132 492.21,-118.97 502.03,-99.54 507.91,-85.32"/>
<polygon fill="midnightblue" stroke="midnightblue" points="511.31,-86.24 511.64,-75.65 504.78,-83.72 511.31,-86.24"/>
</g>
<!-- Node18&#45;&gt;Node13 -->
<g id="edge26" class="edge">
<title>Node18&#45;&gt;Node13</title>
<path fill="none" stroke="midnightblue" d="M526.87,-56.32C538.66,-48.06 556.63,-35.45 570.64,-25.63"/>
<polygon fill="midnightblue" stroke="midnightblue" points="572.98,-28.26 579.16,-19.65 568.96,-22.53 572.98,-28.26"/>
</g>
</g>
</svg>
