<?xml version="1.0" encoding="UTF-8" standalone="no"?>
<!DOCTYPE svg PUBLIC "-//W3C//DTD SVG 1.1//EN"
 "http://www.w3.org/Graphics/SVG/1.1/DTD/svg11.dtd">
<!-- Generated by graphviz version 2.49.3 (20211027.1534)
 -->
<!-- Title: include/v8&#45;script.h Pages: 1 -->
<svg width="624pt" height="252pt"
 viewBox="0.00 0.00 623.50 252.00" xmlns="http://www.w3.org/2000/svg" xmlns:xlink="http://www.w3.org/1999/xlink">
<g id="graph0" class="graph" transform="scale(1 1) rotate(0) translate(4 248)">
<title>include/v8&#45;script.h</title>
<polygon fill="white" stroke="transparent" points="-4,4 -4,-248 619.5,-248 619.5,4 -4,4"/>
<!-- Node1 -->
<g id="node1" class="node">
<title>Node1</title>
<g id="a_node1"><a xlink:title=" ">
<polygon fill="#bfbfbf" stroke="black" points="289,-224.5 289,-243.5 384,-243.5 384,-224.5 289,-224.5"/>
<text text-anchor="middle" x="336.5" y="-231.5" font-family="Helvetica,sans-Serif" font-size="10.00">include/v8&#45;script.h</text>
</a>
</g>
</g>
<!-- Node2 -->
<g id="node2" class="node">
<title>Node2</title>
<g id="a_node2"><a xlink:title=" ">
<polygon fill="white" stroke="#bfbfbf" points="0,-0.5 0,-19.5 51,-19.5 51,-0.5 0,-0.5"/>
<text text-anchor="middle" x="25.5" y="-7.5" font-family="Helvetica,sans-Serif" font-size="10.00">stddef.h</text>
</a>
</g>
</g>
<!-- Node1&#45;&gt;Node2 -->
<g id="edge1" class="edge">
<title>Node1&#45;&gt;Node2</title>
<path fill="none" stroke="midnightblue" d="M288.64,-227.12C250.51,-221.07 196.56,-209.41 153.5,-188 118.14,-170.41 109.07,-162.92 84.5,-132 58.79,-99.64 40.45,-54.25 31.56,-29.27"/>
<polygon fill="midnightblue" stroke="midnightblue" points="34.81,-27.95 28.24,-19.63 28.19,-30.23 34.81,-27.95"/>
</g>
<!-- Node3 -->
<g id="node3" class="node">
<title>Node3</title>
<g id="a_node3"><a xlink:title=" ">
<polygon fill="white" stroke="#bfbfbf" points="415.5,-0.5 415.5,-19.5 463.5,-19.5 463.5,-0.5 415.5,-0.5"/>
<text text-anchor="middle" x="439.5" y="-7.5" font-family="Helvetica,sans-Serif" font-size="10.00">stdint.h</text>
</a>
</g>
</g>
<!-- Node1&#45;&gt;Node3 -->
<g id="edge2" class="edge">
<title>Node1&#45;&gt;Node3</title>
<path fill="none" stroke="midnightblue" d="M359.78,-224.39C376.59,-217.07 398.68,-205.03 412.5,-188 450.16,-141.59 446.48,-65.05 442.31,-29.82"/>
<polygon fill="midnightblue" stroke="midnightblue" points="445.74,-29.01 440.94,-19.56 438.8,-29.93 445.74,-29.01"/>
</g>
<!-- Node4 -->
<g id="node4" class="node">
<title>Node4</title>
<g id="a_node4"><a xlink:title=" ">
<polygon fill="white" stroke="#bfbfbf" points="502,-168.5 502,-187.5 553,-187.5 553,-168.5 502,-168.5"/>
<text text-anchor="middle" x="527.5" y="-175.5" font-family="Helvetica,sans-Serif" font-size="10.00">memory</text>
</a>
</g>
</g>
<!-- Node1&#45;&gt;Node4 -->
<g id="edge3" class="edge">
<title>Node1&#45;&gt;Node4</title>
<path fill="none" stroke="midnightblue" d="M366.76,-224.44C400.75,-214.83 455.85,-199.26 491.89,-189.07"/>
<polygon fill="midnightblue" stroke="midnightblue" points="493.29,-192.31 501.96,-186.22 491.39,-185.57 493.29,-192.31"/>
</g>
<!-- Node5 -->
<g id="node5" class="node">
<title>Node5</title>
<g id="a_node5"><a xlink:title=" ">
<polygon fill="white" stroke="#bfbfbf" points="571.5,-168.5 571.5,-187.5 615.5,-187.5 615.5,-168.5 571.5,-168.5"/>
<text text-anchor="middle" x="593.5" y="-175.5" font-family="Helvetica,sans-Serif" font-size="10.00">vector</text>
</a>
</g>
</g>
<!-- Node1&#45;&gt;Node5 -->
<g id="edge4" class="edge">
<title>Node1&#45;&gt;Node5</title>
<path fill="none" stroke="midnightblue" d="M384.38,-224.7C428.15,-216.84 494.87,-204.16 561.4,-188.11"/>
<polygon fill="midnightblue" stroke="midnightblue" points="562.32,-191.49 571.21,-185.72 560.67,-184.69 562.32,-191.49"/>
</g>
<!-- Node6 -->
<g id="node6" class="node">
<title>Node6</title>
<g id="a_node6"><a xlink:href="v8-data_8h.html" target="_top" xlink:title=" ">
<polygon fill="white" stroke="black" points="183.5,-168.5 183.5,-187.5 239.5,-187.5 239.5,-168.5 183.5,-168.5"/>
<text text-anchor="middle" x="211.5" y="-175.5" font-family="Helvetica,sans-Serif" font-size="10.00">v8&#45;data.h</text>
</a>
</g>
</g>
<!-- Node1&#45;&gt;Node6 -->
<g id="edge5" class="edge">
<title>Node1&#45;&gt;Node6</title>
<path fill="none" stroke="midnightblue" d="M316.69,-224.44C296.21,-215.6 264.02,-201.69 240.64,-191.59"/>
<polygon fill="midnightblue" stroke="midnightblue" points="241.78,-188.27 231.21,-187.52 239.01,-194.7 241.78,-188.27"/>
</g>
<!-- Node7 -->
<g id="node7" class="node">
<title>Node7</title>
<g id="a_node7"><a xlink:href="v8-local-handle_8h.html" target="_top" xlink:title=" ">
<polygon fill="white" stroke="black" points="94,-112.5 94,-131.5 183,-131.5 183,-112.5 94,-112.5"/>
<text text-anchor="middle" x="138.5" y="-119.5" font-family="Helvetica,sans-Serif" font-size="10.00">v8&#45;local&#45;handle.h</text>
</a>
</g>
</g>
<!-- Node1&#45;&gt;Node7 -->
<g id="edge17" class="edge">
<title>Node1&#45;&gt;Node7</title>
<path fill="none" stroke="midnightblue" d="M288.83,-229.55C253.98,-224.87 207.27,-213.85 174.5,-188 159.34,-176.04 149.6,-155.85 144.13,-141.14"/>
<polygon fill="midnightblue" stroke="midnightblue" points="147.41,-139.93 140.88,-131.59 140.79,-142.18 147.41,-139.93"/>
</g>
<!-- Node12 -->
<g id="node12" class="node">
<title>Node12</title>
<g id="a_node12"><a xlink:href="v8config_8h.html" target="_top" xlink:title=" ">
<polygon fill="white" stroke="black" points="303.5,-0.5 303.5,-19.5 363.5,-19.5 363.5,-0.5 303.5,-0.5"/>
<text text-anchor="middle" x="333.5" y="-7.5" font-family="Helvetica,sans-Serif" font-size="10.00">v8config.h</text>
</a>
</g>
</g>
<!-- Node1&#45;&gt;Node12 -->
<g id="edge26" class="edge">
<title>Node1&#45;&gt;Node12</title>
<path fill="none" stroke="midnightblue" d="M349.55,-224.41C376.26,-205.65 433.31,-158.94 416.5,-112 403.72,-76.32 372.3,-44.21 351.99,-26.2"/>
<polygon fill="midnightblue" stroke="midnightblue" points="354.17,-23.46 344.31,-19.58 349.6,-28.76 354.17,-23.46"/>
</g>
<!-- Node13 -->
<g id="node13" class="node">
<title>Node13</title>
<g id="a_node13"><a xlink:href="v8-maybe_8h.html" target="_top" xlink:title=" ">
<polygon fill="white" stroke="black" points="239.5,-112.5 239.5,-131.5 305.5,-131.5 305.5,-112.5 239.5,-112.5"/>
<text text-anchor="middle" x="272.5" y="-119.5" font-family="Helvetica,sans-Serif" font-size="10.00">v8&#45;maybe.h</text>
</a>
</g>
</g>
<!-- Node1&#45;&gt;Node13 -->
<g id="edge18" class="edge">
<title>Node1&#45;&gt;Node13</title>
<path fill="none" stroke="midnightblue" d="M323.94,-224.49C312.95,-216.38 297.39,-203.18 288.5,-188 280.15,-173.74 276.14,-155.27 274.23,-141.66"/>
<polygon fill="midnightblue" stroke="midnightblue" points="277.69,-141.11 273.06,-131.58 270.73,-141.91 277.69,-141.11"/>
</g>
<!-- Node14 -->
<g id="node14" class="node">
<title>Node14</title>
<g id="a_node14"><a xlink:href="v8-message_8h.html" target="_top" xlink:title=" ">
<polygon fill="white" stroke="black" points="298,-168.5 298,-187.5 375,-187.5 375,-168.5 298,-168.5"/>
<text text-anchor="middle" x="336.5" y="-175.5" font-family="Helvetica,sans-Serif" font-size="10.00">v8&#45;message.h</text>
</a>
</g>
</g>
<!-- Node1&#45;&gt;Node14 -->
<g id="edge21" class="edge">
<title>Node1&#45;&gt;Node14</title>
<path fill="none" stroke="midnightblue" d="M336.5,-224.08C336.5,-217.01 336.5,-206.86 336.5,-197.99"/>
<polygon fill="midnightblue" stroke="midnightblue" points="340,-197.75 336.5,-187.75 333,-197.75 340,-197.75"/>
</g>
<!-- Node6&#45;&gt;Node7 -->
<g id="edge6" class="edge">
<title>Node6&#45;&gt;Node7</title>
<path fill="none" stroke="midnightblue" d="M199.77,-168.32C188.66,-160.11 171.76,-147.6 158.52,-137.81"/>
<polygon fill="midnightblue" stroke="midnightblue" points="160.56,-134.97 150.44,-131.83 156.4,-140.59 160.56,-134.97"/>
</g>
<!-- Node6&#45;&gt;Node12 -->
<g id="edge16" class="edge">
<title>Node6&#45;&gt;Node12</title>
<path fill="none" stroke="midnightblue" d="M212.59,-168.45C214.54,-155.46 219.5,-130.36 230.5,-112 252.19,-75.81 289.94,-43.51 313.22,-25.65"/>
<polygon fill="midnightblue" stroke="midnightblue" points="315.47,-28.34 321.37,-19.54 311.27,-22.74 315.47,-28.34"/>
</g>
<!-- Node7&#45;&gt;Node2 -->
<g id="edge7" class="edge">
<title>Node7&#45;&gt;Node2</title>
<path fill="none" stroke="midnightblue" d="M129.63,-112.37C110.65,-93.89 65.86,-50.29 41.67,-26.74"/>
<polygon fill="midnightblue" stroke="midnightblue" points="43.93,-24.06 34.33,-19.59 39.05,-29.07 43.93,-24.06"/>
</g>
<!-- Node8 -->
<g id="node8" class="node">
<title>Node8</title>
<g id="a_node8"><a xlink:title=" ">
<polygon fill="white" stroke="#bfbfbf" points="69.5,-0.5 69.5,-19.5 131.5,-19.5 131.5,-0.5 69.5,-0.5"/>
<text text-anchor="middle" x="100.5" y="-7.5" font-family="Helvetica,sans-Serif" font-size="10.00">type_traits</text>
</a>
</g>
</g>
<!-- Node7&#45;&gt;Node8 -->
<g id="edge8" class="edge">
<title>Node7&#45;&gt;Node8</title>
<path fill="none" stroke="midnightblue" d="M134.84,-112.45C131.04,-103.46 125.04,-88.85 120.5,-76 115.03,-60.52 109.6,-42.68 105.78,-29.61"/>
<polygon fill="midnightblue" stroke="midnightblue" points="109.12,-28.55 102.99,-19.91 102.4,-30.48 109.12,-28.55"/>
</g>
<!-- Node9 -->
<g id="node9" class="node">
<title>Node9</title>
<g id="a_node9"><a xlink:href="v8-internal_8h.html" target="_top" xlink:title=" ">
<polygon fill="white" stroke="black" points="130,-56.5 130,-75.5 199,-75.5 199,-56.5 130,-56.5"/>
<text text-anchor="middle" x="164.5" y="-63.5" font-family="Helvetica,sans-Serif" font-size="10.00">v8&#45;internal.h</text>
</a>
</g>
</g>
<!-- Node7&#45;&gt;Node9 -->
<g id="edge9" class="edge">
<title>Node7&#45;&gt;Node9</title>
<path fill="none" stroke="midnightblue" d="M142.79,-112.08C146.35,-104.69 151.52,-93.95 155.92,-84.81"/>
<polygon fill="midnightblue" stroke="midnightblue" points="159.1,-86.28 160.29,-75.75 152.79,-83.24 159.1,-86.28"/>
</g>
<!-- Node9&#45;&gt;Node2 -->
<g id="edge10" class="edge">
<title>Node9&#45;&gt;Node2</title>
<path fill="none" stroke="midnightblue" d="M142.48,-56.44C119.4,-47.48 82.94,-33.31 56.86,-23.18"/>
<polygon fill="midnightblue" stroke="midnightblue" points="58.01,-19.88 47.42,-19.52 55.48,-26.4 58.01,-19.88"/>
</g>
<!-- Node9&#45;&gt;Node3 -->
<g id="edge11" class="edge">
<title>Node9&#45;&gt;Node3</title>
<path fill="none" stroke="midnightblue" d="M199.05,-58.22C252.06,-47.81 352.85,-28.01 405.52,-17.67"/>
<polygon fill="midnightblue" stroke="midnightblue" points="406.25,-21.1 415.39,-15.74 404.9,-14.23 406.25,-21.1"/>
</g>
<!-- Node9&#45;&gt;Node8 -->
<g id="edge13" class="edge">
<title>Node9&#45;&gt;Node8</title>
<path fill="none" stroke="midnightblue" d="M154.22,-56.32C144.66,-48.26 130.22,-36.08 118.72,-26.37"/>
<polygon fill="midnightblue" stroke="midnightblue" points="120.87,-23.61 110.97,-19.83 116.36,-28.96 120.87,-23.61"/>
</g>
<!-- Node10 -->
<g id="node10" class="node">
<title>Node10</title>
<g id="a_node10"><a xlink:title=" ">
<polygon fill="white" stroke="#bfbfbf" points="149.5,-0.5 149.5,-19.5 197.5,-19.5 197.5,-0.5 149.5,-0.5"/>
<text text-anchor="middle" x="173.5" y="-7.5" font-family="Helvetica,sans-Serif" font-size="10.00">string.h</text>
</a>
</g>
</g>
<!-- Node9&#45;&gt;Node10 -->
<g id="edge12" class="edge">
<title>Node9&#45;&gt;Node10</title>
<path fill="none" stroke="midnightblue" d="M165.99,-56.08C167.18,-48.93 168.89,-38.64 170.38,-29.69"/>
<polygon fill="midnightblue" stroke="midnightblue" points="173.85,-30.19 172.04,-19.75 166.95,-29.04 173.85,-30.19"/>
</g>
<!-- Node11 -->
<g id="node11" class="node">
<title>Node11</title>
<g id="a_node11"><a xlink:href="v8-version_8h.html" target="_top" xlink:title=" ">
<polygon fill="white" stroke="black" points="216,-0.5 216,-19.5 285,-19.5 285,-0.5 216,-0.5"/>
<text text-anchor="middle" x="250.5" y="-7.5" font-family="Helvetica,sans-Serif" font-size="10.00">v8&#45;version.h</text>
</a>
</g>
</g>
<!-- Node9&#45;&gt;Node11 -->
<g id="edge14" class="edge">
<title>Node9&#45;&gt;Node11</title>
<path fill="none" stroke="midnightblue" d="M178.32,-56.32C191.73,-47.9 212.32,-34.97 228.09,-25.07"/>
<polygon fill="midnightblue" stroke="midnightblue" points="230.11,-27.94 236.72,-19.65 226.39,-22.01 230.11,-27.94"/>
</g>
<!-- Node9&#45;&gt;Node12 -->
<g id="edge15" class="edge">
<title>Node9&#45;&gt;Node12</title>
<path fill="none" stroke="midnightblue" d="M191.28,-56.44C219.83,-47.32 265.23,-32.81 297.04,-22.65"/>
<polygon fill="midnightblue" stroke="midnightblue" points="298.39,-25.89 306.85,-19.52 296.26,-19.23 298.39,-25.89"/>
</g>
<!-- Node13&#45;&gt;Node9 -->
<g id="edge19" class="edge">
<title>Node13&#45;&gt;Node9</title>
<path fill="none" stroke="midnightblue" d="M255.15,-112.32C237.83,-103.66 210.98,-90.24 191,-80.25"/>
<polygon fill="midnightblue" stroke="midnightblue" points="192.32,-77 181.81,-75.65 189.19,-83.26 192.32,-77"/>
</g>
<!-- Node13&#45;&gt;Node12 -->
<g id="edge20" class="edge">
<title>Node13&#45;&gt;Node12</title>
<path fill="none" stroke="midnightblue" d="M277.29,-112.37C287.26,-94.38 310.46,-52.55 323.73,-28.63"/>
<polygon fill="midnightblue" stroke="midnightblue" points="326.95,-30.03 328.74,-19.59 320.83,-26.64 326.95,-30.03"/>
</g>
<!-- Node14&#45;&gt;Node7 -->
<g id="edge23" class="edge">
<title>Node14&#45;&gt;Node7</title>
<path fill="none" stroke="midnightblue" d="M305.13,-168.44C271.24,-159.2 217.1,-144.44 179.78,-134.26"/>
<polygon fill="midnightblue" stroke="midnightblue" points="180.3,-130.77 169.73,-131.52 178.45,-137.52 180.3,-130.77"/>
</g>
<!-- Node14&#45;&gt;Node12 -->
<g id="edge25" class="edge">
<title>Node14&#45;&gt;Node12</title>
<path fill="none" stroke="midnightblue" d="M336.34,-168.08C335.87,-141.95 334.48,-65.21 333.84,-29.58"/>
<polygon fill="midnightblue" stroke="midnightblue" points="337.34,-29.5 333.65,-19.57 330.34,-29.63 337.34,-29.5"/>
</g>
<!-- Node14&#45;&gt;Node13 -->
<g id="edge24" class="edge">
<title>Node14&#45;&gt;Node13</title>
<path fill="none" stroke="midnightblue" d="M326.22,-168.32C316.66,-160.26 302.22,-148.08 290.72,-138.37"/>
<polygon fill="midnightblue" stroke="midnightblue" points="292.87,-135.61 282.97,-131.83 288.36,-140.96 292.87,-135.61"/>
</g>
<!-- Node15 -->
<g id="node15" class="node">
<title>Node15</title>
<g id="a_node15"><a xlink:title=" ">
<polygon fill="white" stroke="#bfbfbf" points="362,-112.5 362,-131.5 407,-131.5 407,-112.5 362,-112.5"/>
<text text-anchor="middle" x="384.5" y="-119.5" font-family="Helvetica,sans-Serif" font-size="10.00">stdio.h</text>
</a>
</g>
</g>
<!-- Node14&#45;&gt;Node15 -->
<g id="edge22" class="edge">
<title>Node14&#45;&gt;Node15</title>
<path fill="none" stroke="midnightblue" d="M344.43,-168.08C351.35,-160.3 361.57,-148.8 369.95,-139.37"/>
<polygon fill="midnightblue" stroke="midnightblue" points="372.69,-141.55 376.72,-131.75 367.46,-136.9 372.69,-141.55"/>
</g>
</g>
</svg>
