<?xml version="1.0" encoding="UTF-8" standalone="no"?>
<!DOCTYPE svg PUBLIC "-//W3C//DTD SVG 1.1//EN"
 "http://www.w3.org/Graphics/SVG/1.1/DTD/svg11.dtd">
<!-- Generated by graphviz version 2.49.3 (20211027.1534)
 -->
<!-- Title: v8::TracedReferenceBase::IsEmpty Pages: 1 -->
<svg width="451pt" height="264pt"
 viewBox="0.00 0.00 451.00 263.50" xmlns="http://www.w3.org/2000/svg" xmlns:xlink="http://www.w3.org/1999/xlink">
<g id="graph0" class="graph" transform="scale(1 1) rotate(0) translate(4 259.5)">
<title>v8::TracedReferenceBase::IsEmpty</title>
<polygon fill="white" stroke="transparent" points="-4,4 -4,-259.5 447,-259.5 447,4 -4,4"/>
<!-- Node1 -->
<g id="node1" class="node">
<title>Node1</title>
<g id="a_node1"><a xlink:title=" ">
<polygon fill="#bfbfbf" stroke="black" points="315,-115.5 315,-145.5 443,-145.5 443,-115.5 315,-115.5"/>
<text text-anchor="start" x="323" y="-133.5" font-family="Helvetica,sans-Serif" font-size="10.00">v8::TracedReferenceBase</text>
<text text-anchor="middle" x="379" y="-122.5" font-family="Helvetica,sans-Serif" font-size="10.00">::IsEmpty</text>
</a>
</g>
</g>
<!-- Node2 -->
<g id="node2" class="node">
<title>Node2</title>
<g id="a_node2"><a xlink:href="classv8_1_1TracedReferenceBase.html#a7e87dcba911a55d7ca64fe7dd7904e56" target="_top" xlink:title=" ">
<polygon fill="white" stroke="black" points="130,-236 130,-255 279,-255 279,-236 130,-236"/>
<text text-anchor="middle" x="204.5" y="-243" font-family="Helvetica,sans-Serif" font-size="10.00">v8::TracedReferenceBase::Get</text>
</a>
</g>
</g>
<!-- Node1&#45;&gt;Node2 -->
<g id="edge1" class="edge">
<title>Node1&#45;&gt;Node2</title>
<path fill="none" stroke="midnightblue" d="M360.33,-153.49C342.24,-175.46 312.14,-207.9 279,-226.5 272.1,-230.37 264.4,-233.47 256.65,-235.95"/>
<polygon fill="midnightblue" stroke="midnightblue" points="363.11,-155.62 366.66,-145.64 357.66,-151.23 363.11,-155.62"/>
</g>
<!-- Node3 -->
<g id="node3" class="node">
<title>Node3</title>
<g id="a_node3"><a xlink:href="classv8_1_1JSHeapConsistency.html#a02830aa52ed23174c612a3e582443fa3" target="_top" xlink:title=" ">
<polygon fill="white" stroke="black" points="144.5,-186.5 144.5,-216.5 264.5,-216.5 264.5,-186.5 144.5,-186.5"/>
<text text-anchor="start" x="152.5" y="-204.5" font-family="Helvetica,sans-Serif" font-size="10.00">v8::JSHeapConsistency</text>
<text text-anchor="middle" x="204.5" y="-193.5" font-family="Helvetica,sans-Serif" font-size="10.00">::GetWriteBarrierType</text>
</a>
</g>
</g>
<!-- Node1&#45;&gt;Node3 -->
<g id="edge2" class="edge">
<title>Node1&#45;&gt;Node3</title>
<path fill="none" stroke="midnightblue" d="M339.46,-150.2C321.35,-159.1 299.32,-169.4 279,-177.5 271.14,-180.63 262.7,-183.68 254.44,-186.49"/>
<polygon fill="midnightblue" stroke="midnightblue" points="341.14,-153.28 348.55,-145.7 338.03,-147 341.14,-153.28"/>
</g>
<!-- Node4 -->
<g id="node4" class="node">
<title>Node4</title>
<g id="a_node4"><a xlink:href="classv8_1_1TracedReferenceBase.html#a50c7297683f3c9864710ceca4aba546a" target="_top" xlink:title=" ">
<polygon fill="white" stroke="black" points="140.5,-137.5 140.5,-167.5 268.5,-167.5 268.5,-137.5 140.5,-137.5"/>
<text text-anchor="start" x="148.5" y="-155.5" font-family="Helvetica,sans-Serif" font-size="10.00">v8::TracedReferenceBase</text>
<text text-anchor="middle" x="204.5" y="-144.5" font-family="Helvetica,sans-Serif" font-size="10.00">::Reset</text>
</a>
</g>
</g>
<!-- Node1&#45;&gt;Node4 -->
<g id="edge3" class="edge">
<title>Node1&#45;&gt;Node4</title>
<path fill="none" stroke="midnightblue" d="M304.78,-139.84C292.79,-141.37 280.46,-142.94 268.75,-144.43"/>
<polygon fill="midnightblue" stroke="midnightblue" points="305.27,-143.3 314.75,-138.57 304.38,-136.36 305.27,-143.3"/>
</g>
<!-- Node6 -->
<g id="node6" class="node">
<title>Node6</title>
<g id="a_node6"><a xlink:href="classv8_1_1ReturnValue.html#aac5b776c1db3767834c969b4de9d6531" target="_top" xlink:title=" ">
<polygon fill="white" stroke="black" points="152.5,-99 152.5,-118 256.5,-118 256.5,-99 152.5,-99"/>
<text text-anchor="middle" x="204.5" y="-106" font-family="Helvetica,sans-Serif" font-size="10.00">v8::ReturnValue::Set</text>
</a>
</g>
</g>
<!-- Node1&#45;&gt;Node6 -->
<g id="edge5" class="edge">
<title>Node1&#45;&gt;Node6</title>
<path fill="none" stroke="midnightblue" d="M304.76,-121.16C288.55,-119.09 271.71,-116.94 256.61,-115.02"/>
<polygon fill="midnightblue" stroke="midnightblue" points="304.38,-124.64 314.75,-122.43 305.27,-117.7 304.38,-124.64"/>
</g>
<!-- Node7 -->
<g id="node7" class="node">
<title>Node7</title>
<g id="a_node7"><a xlink:href="classv8_1_1TracedReferenceBase.html#a7ea40db9556e49ad7ee4a2dfb235b655" target="_top" xlink:title=" ">
<polygon fill="white" stroke="black" points="140.5,-49.5 140.5,-79.5 268.5,-79.5 268.5,-49.5 140.5,-49.5"/>
<text text-anchor="start" x="148.5" y="-67.5" font-family="Helvetica,sans-Serif" font-size="10.00">v8::TracedReferenceBase</text>
<text text-anchor="middle" x="204.5" y="-56.5" font-family="Helvetica,sans-Serif" font-size="10.00">::SetWrapperClassId</text>
</a>
</g>
</g>
<!-- Node1&#45;&gt;Node7 -->
<g id="edge6" class="edge">
<title>Node1&#45;&gt;Node7</title>
<path fill="none" stroke="midnightblue" d="M333.31,-111.27C316.39,-104.18 296.9,-96.24 279,-89.5 270.04,-86.13 260.4,-82.7 251.14,-79.51"/>
<polygon fill="midnightblue" stroke="midnightblue" points="332.37,-114.67 342.94,-115.33 335.08,-108.22 332.37,-114.67"/>
</g>
<!-- Node8 -->
<g id="node8" class="node">
<title>Node8</title>
<g id="a_node8"><a xlink:href="classv8_1_1TracedReferenceBase.html#a0b7354f15b126d889414f603b5a7cb9c" target="_top" xlink:title=" ">
<polygon fill="white" stroke="black" points="140.5,-0.5 140.5,-30.5 268.5,-30.5 268.5,-0.5 140.5,-0.5"/>
<text text-anchor="start" x="148.5" y="-18.5" font-family="Helvetica,sans-Serif" font-size="10.00">v8::TracedReferenceBase</text>
<text text-anchor="middle" x="204.5" y="-7.5" font-family="Helvetica,sans-Serif" font-size="10.00">::WrapperClassId</text>
</a>
</g>
</g>
<!-- Node1&#45;&gt;Node8 -->
<g id="edge7" class="edge">
<title>Node1&#45;&gt;Node8</title>
<path fill="none" stroke="midnightblue" d="M358.23,-107.87C339.57,-87.73 309.91,-58.73 279,-40.5 272.61,-36.73 265.58,-33.43 258.47,-30.57"/>
<polygon fill="midnightblue" stroke="midnightblue" points="355.74,-110.33 365.05,-115.37 360.91,-105.62 355.74,-110.33"/>
</g>
<!-- Node5 -->
<g id="node5" class="node">
<title>Node5</title>
<g id="a_node5"><a xlink:href="classv8_1_1TracedGlobal.html#a795b005ed86dafffa437ec30edca0b53" target="_top" xlink:title=" ">
<polygon fill="white" stroke="black" points="0,-137.5 0,-167.5 94,-167.5 94,-137.5 0,-137.5"/>
<text text-anchor="start" x="8" y="-155.5" font-family="Helvetica,sans-Serif" font-size="10.00">v8::TracedGlobal::</text>
<text text-anchor="middle" x="47" y="-144.5" font-family="Helvetica,sans-Serif" font-size="10.00">~TracedGlobal</text>
</a>
</g>
</g>
<!-- Node4&#45;&gt;Node5 -->
<g id="edge4" class="edge">
<title>Node4&#45;&gt;Node5</title>
<path fill="none" stroke="midnightblue" d="M130.01,-152.5C117.75,-152.5 105.35,-152.5 94.02,-152.5"/>
<polygon fill="midnightblue" stroke="midnightblue" points="130.25,-156 140.25,-152.5 130.25,-149 130.25,-156"/>
</g>
</g>
</svg>
