<?xml version="1.0" encoding="UTF-8" standalone="no"?>
<!DOCTYPE svg PUBLIC "-//W3C//DTD SVG 1.1//EN"
 "http://www.w3.org/Graphics/SVG/1.1/DTD/svg11.dtd">
<!-- Generated by graphviz version 2.49.3 (20211027.1534)
 -->
<!-- Title: include/cppgc/heap.h Pages: 1 -->
<svg width="444pt" height="285pt"
 viewBox="0.00 0.00 443.50 285.00" xmlns="http://www.w3.org/2000/svg" xmlns:xlink="http://www.w3.org/1999/xlink">
<g id="graph0" class="graph" transform="scale(1 1) rotate(0) translate(4 281)">
<title>include/cppgc/heap.h</title>
<polygon fill="white" stroke="transparent" points="-4,4 -4,-281 439.5,-281 439.5,4 -4,4"/>
<!-- Node1 -->
<g id="node1" class="node">
<title>Node1</title>
<g id="a_node1"><a xlink:title=" ">
<polygon fill="#bfbfbf" stroke="black" points="54.5,-257.5 54.5,-276.5 162.5,-276.5 162.5,-257.5 54.5,-257.5"/>
<text text-anchor="middle" x="108.5" y="-264.5" font-family="Helvetica,sans-Serif" font-size="10.00">include/cppgc/heap.h</text>
</a>
</g>
</g>
<!-- Node2 -->
<g id="node2" class="node">
<title>Node2</title>
<g id="a_node2"><a xlink:href="prefinalizer-handler_8h.html" target="_top" xlink:title=" ">
<polygon fill="white" stroke="black" points="11,-123.5 11,-153.5 122,-153.5 122,-123.5 11,-123.5"/>
<text text-anchor="start" x="19" y="-141.5" font-family="Helvetica,sans-Serif" font-size="10.00">include/cppgc/internal</text>
<text text-anchor="middle" x="66.5" y="-130.5" font-family="Helvetica,sans-Serif" font-size="10.00">/prefinalizer&#45;handler.h</text>
</a>
</g>
</g>
<!-- Node1&#45;&gt;Node2 -->
<g id="edge1" class="edge">
<title>Node1&#45;&gt;Node2</title>
<path fill="none" stroke="midnightblue" d="M97.74,-248.51C93.11,-240.38 87.99,-230.45 84.5,-221 76.07,-198.16 70.95,-170.2 68.43,-153.67"/>
<polygon fill="midnightblue" stroke="midnightblue" points="94.87,-250.54 102.98,-257.37 100.9,-246.98 94.87,-250.54"/>
</g>
<!-- Node4 -->
<g id="node4" class="node">
<title>Node4</title>
<g id="a_node4"><a xlink:href="liveness-broker_8h.html" target="_top" xlink:title=" ">
<polygon fill="white" stroke="black" points="93.5,-190.5 93.5,-220.5 209.5,-220.5 209.5,-190.5 93.5,-190.5"/>
<text text-anchor="start" x="101.5" y="-208.5" font-family="Helvetica,sans-Serif" font-size="10.00">include/cppgc/liveness</text>
<text text-anchor="middle" x="151.5" y="-197.5" font-family="Helvetica,sans-Serif" font-size="10.00">&#45;broker.h</text>
</a>
</g>
</g>
<!-- Node1&#45;&gt;Node4 -->
<g id="edge3" class="edge">
<title>Node1&#45;&gt;Node4</title>
<path fill="none" stroke="midnightblue" d="M120.61,-249.25C127.16,-240.19 135.15,-229.12 141.37,-220.52"/>
<polygon fill="midnightblue" stroke="midnightblue" points="117.68,-247.32 114.66,-257.48 123.36,-251.42 117.68,-247.32"/>
</g>
<!-- Node3 -->
<g id="node3" class="node">
<title>Node3</title>
<g id="a_node3"><a xlink:href="prefinalizer_8h.html" target="_top" xlink:title=" ">
<polygon fill="white" stroke="black" points="0,-67.5 0,-86.5 133,-86.5 133,-67.5 0,-67.5"/>
<text text-anchor="middle" x="66.5" y="-74.5" font-family="Helvetica,sans-Serif" font-size="10.00">include/cppgc/prefinalizer.h</text>
</a>
</g>
</g>
<!-- Node2&#45;&gt;Node3 -->
<g id="edge2" class="edge">
<title>Node2&#45;&gt;Node3</title>
<path fill="none" stroke="midnightblue" d="M66.5,-113.29C66.5,-103.86 66.5,-93.65 66.5,-86.66"/>
<polygon fill="midnightblue" stroke="midnightblue" points="63,-113.4 66.5,-123.4 70,-113.4 63,-113.4"/>
</g>
<!-- Node4&#45;&gt;Node2 -->
<g id="edge4" class="edge">
<title>Node4&#45;&gt;Node2</title>
<path fill="none" stroke="midnightblue" d="M124.91,-184.17C111.91,-174.23 96.6,-162.51 84.91,-153.58"/>
<polygon fill="midnightblue" stroke="midnightblue" points="122.99,-187.1 133.06,-190.4 127.24,-181.54 122.99,-187.1"/>
</g>
<!-- Node4&#45;&gt;Node3 -->
<g id="edge5" class="edge">
<title>Node4&#45;&gt;Node3</title>
<path fill="none" stroke="midnightblue" d="M149.65,-179.93C147.35,-162.71 142.16,-139.86 130.5,-123 119.14,-106.58 99.73,-94.18 85.25,-86.6"/>
<polygon fill="midnightblue" stroke="midnightblue" points="146.22,-180.75 150.79,-190.31 153.18,-179.99 146.22,-180.75"/>
</g>
<!-- Node5 -->
<g id="node5" class="node">
<title>Node5</title>
<g id="a_node5"><a xlink:href="visitor_8h.html" target="_top" xlink:title=" ">
<polygon fill="white" stroke="black" points="188,-129 188,-148 301,-148 301,-129 188,-129"/>
<text text-anchor="middle" x="244.5" y="-136" font-family="Helvetica,sans-Serif" font-size="10.00">include/cppgc/visitor.h</text>
</a>
</g>
</g>
<!-- Node4&#45;&gt;Node5 -->
<g id="edge6" class="edge">
<title>Node4&#45;&gt;Node5</title>
<path fill="none" stroke="midnightblue" d="M179.91,-184.64C197.46,-172.37 219.09,-157.26 232.33,-148.01"/>
<polygon fill="midnightblue" stroke="midnightblue" points="177.87,-181.8 171.68,-190.4 181.88,-187.54 177.87,-181.8"/>
</g>
<!-- Node6 -->
<g id="node6" class="node">
<title>Node6</title>
<g id="a_node6"><a xlink:href="cross-thread-persistent_8h.html" target="_top" xlink:title=" ">
<polygon fill="white" stroke="black" points="155.5,-0.5 155.5,-30.5 259.5,-30.5 259.5,-0.5 155.5,-0.5"/>
<text text-anchor="start" x="163.5" y="-18.5" font-family="Helvetica,sans-Serif" font-size="10.00">include/cppgc/cross</text>
<text text-anchor="middle" x="207.5" y="-7.5" font-family="Helvetica,sans-Serif" font-size="10.00">&#45;thread&#45;persistent.h</text>
</a>
</g>
</g>
<!-- Node5&#45;&gt;Node6 -->
<g id="edge7" class="edge">
<title>Node5&#45;&gt;Node6</title>
<path fill="none" stroke="midnightblue" d="M217.33,-123.8C203.58,-115.27 188.2,-102.88 180.5,-87 171.3,-68.01 184.35,-45.02 195.3,-30.58"/>
<polygon fill="midnightblue" stroke="midnightblue" points="215.63,-126.86 226.04,-128.85 219.15,-120.81 215.63,-126.86"/>
</g>
<!-- Node7 -->
<g id="node7" class="node">
<title>Node7</title>
<g id="a_node7"><a xlink:href="persistent_8h.html" target="_top" xlink:title=" ">
<polygon fill="white" stroke="black" points="189.5,-67.5 189.5,-86.5 319.5,-86.5 319.5,-67.5 189.5,-67.5"/>
<text text-anchor="middle" x="254.5" y="-74.5" font-family="Helvetica,sans-Serif" font-size="10.00">include/cppgc/persistent.h</text>
</a>
</g>
</g>
<!-- Node5&#45;&gt;Node7 -->
<g id="edge8" class="edge">
<title>Node5&#45;&gt;Node7</title>
<path fill="none" stroke="midnightblue" d="M247.64,-118.82C249.46,-108 251.66,-94.9 253.07,-86.51"/>
<polygon fill="midnightblue" stroke="midnightblue" points="244.14,-118.53 245.93,-128.98 251.04,-119.69 244.14,-118.53"/>
</g>
<!-- Node8 -->
<g id="node8" class="node">
<title>Node8</title>
<g id="a_node8"><a xlink:href="v8-cppgc_8h.html" target="_top" xlink:title=" ">
<polygon fill="white" stroke="black" points="337.5,-67.5 337.5,-86.5 435.5,-86.5 435.5,-67.5 337.5,-67.5"/>
<text text-anchor="middle" x="386.5" y="-74.5" font-family="Helvetica,sans-Serif" font-size="10.00">include/v8&#45;cppgc.h</text>
</a>
</g>
</g>
<!-- Node5&#45;&gt;Node8 -->
<g id="edge10" class="edge">
<title>Node5&#45;&gt;Node8</title>
<path fill="none" stroke="midnightblue" d="M274.38,-124.98C301.96,-113.42 342.17,-96.58 366.19,-86.51"/>
<polygon fill="midnightblue" stroke="midnightblue" points="272.72,-121.88 264.85,-128.98 275.42,-128.34 272.72,-121.88"/>
</g>
<!-- Node7&#45;&gt;Node6 -->
<g id="edge9" class="edge">
<title>Node7&#45;&gt;Node6</title>
<path fill="none" stroke="midnightblue" d="M241.49,-59.53C234.29,-50.42 225.44,-39.21 218.58,-30.52"/>
<polygon fill="midnightblue" stroke="midnightblue" points="238.82,-61.8 247.77,-67.48 244.31,-57.46 238.82,-61.8"/>
</g>
</g>
</svg>
