<?xml version="1.0" encoding="UTF-8" standalone="no"?>
<!DOCTYPE svg PUBLIC "-//W3C//DTD SVG 1.1//EN"
 "http://www.w3.org/Graphics/SVG/1.1/DTD/svg11.dtd">
<!-- Generated by graphviz version 2.49.3 (20211027.1534)
 -->
<!-- Title: Graphical Class Hierarchy Pages: 1 -->
<svg width="318pt" height="751pt"
 viewBox="0.00 0.00 318.00 750.50" xmlns="http://www.w3.org/2000/svg" xmlns:xlink="http://www.w3.org/1999/xlink">
<g id="graph0" class="graph" transform="scale(1 1) rotate(0) translate(4 746.5)">
<title>Graphical Class Hierarchy</title>
<polygon fill="white" stroke="transparent" points="-4,4 -4,-746.5 314,-746.5 314,4 -4,4"/>
<!-- Node338 -->
<g id="node1" class="node">
<title>Node338</title>
<g id="a_node1"><a xlink:title=" ">
<polygon fill="white" stroke="#bfbfbf" points="0,-328 0,-347 74,-347 74,-328 0,-328"/>
<text text-anchor="middle" x="37" y="-335" font-family="Helvetica,sans-Serif" font-size="10.00">std::true_type</text>
</a>
</g>
</g>
<!-- Node0 -->
<g id="node2" class="node">
<title>Node0</title>
<g id="a_node2"><a xlink:href="structcppgc_1_1internal_1_1HasFinalizeGarbageCollectedObject_3_01T_00_01void__t_3_01decltype_07sa61520700171f43425adcc1b691e5825.html" target="_top" xlink:title=" ">
<polygon fill="white" stroke="black" points="113.5,-679 113.5,-742 306.5,-742 306.5,-679 113.5,-679"/>
<text text-anchor="start" x="121.5" y="-730" font-family="Helvetica,sans-Serif" font-size="10.00">cppgc::internal::HasFinalize</text>
<text text-anchor="start" x="121.5" y="-719" font-family="Helvetica,sans-Serif" font-size="10.00">GarbageCollectedObject&lt;</text>
<text text-anchor="start" x="121.5" y="-708" font-family="Helvetica,sans-Serif" font-size="10.00"> T, void_t&lt; decltype(std</text>
<text text-anchor="start" x="121.5" y="-697" font-family="Helvetica,sans-Serif" font-size="10.00">::declval&lt; T &gt;().FinalizeGarbageCollected</text>
<text text-anchor="middle" x="210" y="-686" font-family="Helvetica,sans-Serif" font-size="10.00">Object())&gt; &gt;</text>
</a>
</g>
</g>
<!-- Node338&#45;&gt;Node0 -->
<g id="edge1" class="edge">
<title>Node338&#45;&gt;Node0</title>
<path fill="none" stroke="midnightblue" d="M39.9,-357.31C46.38,-421.29 69.51,-621.03 110,-669.5 112.86,-672.93 116.06,-676.07 119.5,-678.96"/>
<polygon fill="midnightblue" stroke="midnightblue" points="43.34,-356.62 38.88,-347.01 36.38,-357.31 43.34,-356.62"/>
</g>
<!-- Node340 -->
<g id="node3" class="node">
<title>Node340</title>
<g id="a_node3"><a xlink:href="structcppgc_1_1internal_1_1IsGarbageCollectedMixinType_3_01T_00_01void__t_3_01typename_01std_1_14b46fbef65c16ddacb2df750491360da.html" target="_top" xlink:title=" ">
<polygon fill="white" stroke="black" points="115.5,-597 115.5,-660 304.5,-660 304.5,-597 115.5,-597"/>
<text text-anchor="start" x="123.5" y="-648" font-family="Helvetica,sans-Serif" font-size="10.00">cppgc::internal::IsGarbage</text>
<text text-anchor="start" x="123.5" y="-637" font-family="Helvetica,sans-Serif" font-size="10.00">CollectedMixinType&lt; T,</text>
<text text-anchor="start" x="123.5" y="-626" font-family="Helvetica,sans-Serif" font-size="10.00"> void_t&lt; typename std::remove</text>
<text text-anchor="start" x="123.5" y="-615" font-family="Helvetica,sans-Serif" font-size="10.00">_const_t&lt; T &gt;::IsGarbageCollectedMixin</text>
<text text-anchor="middle" x="210" y="-604" font-family="Helvetica,sans-Serif" font-size="10.00">TypeMarker &gt; &gt;</text>
</a>
</g>
</g>
<!-- Node338&#45;&gt;Node340 -->
<g id="edge2" class="edge">
<title>Node338&#45;&gt;Node340</title>
<path fill="none" stroke="midnightblue" d="M38.15,-357.17C39.53,-403.27 49.24,-519.51 110,-587.5 112.98,-590.83 116.26,-593.89 119.78,-596.72"/>
<polygon fill="midnightblue" stroke="midnightblue" points="41.64,-356.96 37.95,-347.04 34.64,-357.1 41.64,-356.96"/>
</g>
<!-- Node341 -->
<g id="node4" class="node">
<title>Node341</title>
<g id="a_node4"><a xlink:href="structcppgc_1_1internal_1_1IsGarbageCollectedType_3_01T_00_01void__t_3_01typename_01std_1_1remov242c3cc73022aacbda81955038f7dedf.html" target="_top" xlink:title=" ">
<polygon fill="white" stroke="black" points="126.5,-515 126.5,-578 293.5,-578 293.5,-515 126.5,-515"/>
<text text-anchor="start" x="134.5" y="-566" font-family="Helvetica,sans-Serif" font-size="10.00">cppgc::internal::IsGarbage</text>
<text text-anchor="start" x="134.5" y="-555" font-family="Helvetica,sans-Serif" font-size="10.00">CollectedType&lt; T, void</text>
<text text-anchor="start" x="134.5" y="-544" font-family="Helvetica,sans-Serif" font-size="10.00">_t&lt; typename std::remove</text>
<text text-anchor="start" x="134.5" y="-533" font-family="Helvetica,sans-Serif" font-size="10.00">_const_t&lt; T &gt;::IsGarbageCollected</text>
<text text-anchor="middle" x="210" y="-522" font-family="Helvetica,sans-Serif" font-size="10.00">TypeMarker &gt; &gt;</text>
</a>
</g>
</g>
<!-- Node338&#45;&gt;Node341 -->
<g id="edge3" class="edge">
<title>Node338&#45;&gt;Node341</title>
<path fill="none" stroke="midnightblue" d="M41.48,-357.52C48.49,-392.12 67.41,-463.43 110,-505.5 114.9,-510.34 120.45,-514.63 126.36,-518.44"/>
<polygon fill="midnightblue" stroke="midnightblue" points="44.84,-356.46 39.55,-347.29 37.97,-357.76 44.84,-356.46"/>
</g>
<!-- Node342 -->
<g id="node5" class="node">
<title>Node342</title>
<g id="a_node5"><a xlink:href="structcppgc_1_1internal_1_1IsMemberType_3_01T_00_01true_01_4.html" target="_top" xlink:title=" ">
<polygon fill="white" stroke="black" points="146.5,-465.5 146.5,-495.5 273.5,-495.5 273.5,-465.5 146.5,-465.5"/>
<text text-anchor="start" x="154.5" y="-483.5" font-family="Helvetica,sans-Serif" font-size="10.00">cppgc::internal::IsMember</text>
<text text-anchor="middle" x="210" y="-472.5" font-family="Helvetica,sans-Serif" font-size="10.00">Type&lt; T, true &gt;</text>
</a>
</g>
</g>
<!-- Node338&#45;&gt;Node342 -->
<g id="edge4" class="edge">
<title>Node338&#45;&gt;Node342</title>
<path fill="none" stroke="midnightblue" d="M44.48,-356.83C54.35,-383.25 75.7,-430.22 110,-455.5 120.63,-463.34 133.46,-468.73 146.3,-472.44"/>
<polygon fill="midnightblue" stroke="midnightblue" points="47.7,-355.45 41.05,-347.2 41.1,-357.79 47.7,-355.45"/>
</g>
<!-- Node343 -->
<g id="node6" class="node">
<title>Node343</title>
<g id="a_node6"><a xlink:href="structcppgc_1_1internal_1_1IsTraceMethodConst_3_01T_00_01void__t_3_01decltype_07std_1_1declval_340f310667d584b91bf9e1fcf69c55d0e.html" target="_top" xlink:title=" ">
<polygon fill="white" stroke="black" points="146,-383 146,-446 274,-446 274,-383 146,-383"/>
<text text-anchor="start" x="154" y="-434" font-family="Helvetica,sans-Serif" font-size="10.00">cppgc::internal::IsTrace</text>
<text text-anchor="start" x="154" y="-423" font-family="Helvetica,sans-Serif" font-size="10.00">MethodConst&lt; T, void_t</text>
<text text-anchor="start" x="154" y="-412" font-family="Helvetica,sans-Serif" font-size="10.00">&lt; decltype(std::declval</text>
<text text-anchor="start" x="154" y="-401" font-family="Helvetica,sans-Serif" font-size="10.00">&lt; const T &gt;().Trace(std</text>
<text text-anchor="middle" x="210" y="-390" font-family="Helvetica,sans-Serif" font-size="10.00">::declval&lt; Visitor * &gt;()))&gt; &gt;</text>
</a>
</g>
</g>
<!-- Node338&#45;&gt;Node343 -->
<g id="edge5" class="edge">
<title>Node338&#45;&gt;Node343</title>
<path fill="none" stroke="midnightblue" d="M65.31,-351.73C78.67,-358.54 95.06,-366.68 110,-373.5 121.51,-378.75 133.89,-384.11 145.86,-389.14"/>
<polygon fill="midnightblue" stroke="midnightblue" points="66.67,-348.49 56.17,-347.04 63.47,-354.72 66.67,-348.49"/>
</g>
<!-- Node344 -->
<g id="node7" class="node">
<title>Node344</title>
<g id="a_node7"><a xlink:href="structcppgc_1_1internal_1_1IsTraceable_3_01T_00_01void__t_3_01decltype_07std_1_1declval_3_01T_0168466c9ac6c89dfb7a8449cb1b8ecb7f.html" target="_top" xlink:title=" ">
<polygon fill="white" stroke="black" points="143,-311.5 143,-363.5 277,-363.5 277,-311.5 143,-311.5"/>
<text text-anchor="start" x="151" y="-351.5" font-family="Helvetica,sans-Serif" font-size="10.00">cppgc::internal::IsTraceable</text>
<text text-anchor="start" x="151" y="-340.5" font-family="Helvetica,sans-Serif" font-size="10.00">&lt; T, void_t&lt; decltype(std</text>
<text text-anchor="start" x="151" y="-329.5" font-family="Helvetica,sans-Serif" font-size="10.00">::declval&lt; T &gt;().Trace(std</text>
<text text-anchor="middle" x="210" y="-318.5" font-family="Helvetica,sans-Serif" font-size="10.00">::declval&lt; Visitor * &gt;()))&gt; &gt;</text>
</a>
</g>
</g>
<!-- Node338&#45;&gt;Node344 -->
<g id="edge6" class="edge">
<title>Node338&#45;&gt;Node344</title>
<path fill="none" stroke="midnightblue" d="M84.46,-337.5C102.41,-337.5 123.29,-337.5 142.76,-337.5"/>
<polygon fill="midnightblue" stroke="midnightblue" points="84.26,-334 74.26,-337.5 84.26,-341 84.26,-334"/>
</g>
<!-- Node345 -->
<g id="node8" class="node">
<title>Node345</title>
<g id="a_node8"><a xlink:href="structcppgc_1_1internal_1_1IsUntracedMemberType_3_01T_00_01true_01_4.html" target="_top" xlink:title=" ">
<polygon fill="white" stroke="black" points="144.5,-262.5 144.5,-292.5 275.5,-292.5 275.5,-262.5 144.5,-262.5"/>
<text text-anchor="start" x="152.5" y="-280.5" font-family="Helvetica,sans-Serif" font-size="10.00">cppgc::internal::IsUntraced</text>
<text text-anchor="middle" x="210" y="-269.5" font-family="Helvetica,sans-Serif" font-size="10.00">MemberType&lt; T, true &gt;</text>
</a>
</g>
</g>
<!-- Node338&#45;&gt;Node345 -->
<g id="edge7" class="edge">
<title>Node338&#45;&gt;Node345</title>
<path fill="none" stroke="midnightblue" d="M64.14,-323.18C77.56,-316.25 94.35,-308.21 110,-302.5 120.91,-298.52 132.71,-294.94 144.25,-291.82"/>
<polygon fill="midnightblue" stroke="midnightblue" points="62.24,-320.23 55.02,-327.99 65.5,-326.42 62.24,-320.23"/>
</g>
<!-- Node346 -->
<g id="node9" class="node">
<title>Node346</title>
<g id="a_node9"><a xlink:href="structcppgc_1_1internal_1_1IsWeak_3_01BasicCrossThreadPersistent_3_01T_00_01internal_1_1WeakCros6251904fc881150f13e418ea64da9a91.html" target="_top" xlink:title=" ">
<polygon fill="white" stroke="black" points="110,-191.5 110,-243.5 310,-243.5 310,-191.5 110,-191.5"/>
<text text-anchor="start" x="118" y="-231.5" font-family="Helvetica,sans-Serif" font-size="10.00">cppgc::internal::IsWeak</text>
<text text-anchor="start" x="118" y="-220.5" font-family="Helvetica,sans-Serif" font-size="10.00">&lt; BasicCrossThreadPersistent</text>
<text text-anchor="start" x="118" y="-209.5" font-family="Helvetica,sans-Serif" font-size="10.00">&lt; T, internal::WeakCrossThreadPersistent</text>
<text text-anchor="middle" x="210" y="-198.5" font-family="Helvetica,sans-Serif" font-size="10.00">Policy, LocationPolicy, CheckingPolicy &gt; &gt;</text>
</a>
</g>
</g>
<!-- Node338&#45;&gt;Node346 -->
<g id="edge8" class="edge">
<title>Node338&#45;&gt;Node346</title>
<path fill="none" stroke="midnightblue" d="M49.52,-319.19C62.23,-300.34 84.33,-271.27 110,-253.5 115.26,-249.86 120.94,-246.54 126.81,-243.52"/>
<polygon fill="midnightblue" stroke="midnightblue" points="46.45,-317.49 43.91,-327.77 52.31,-321.32 46.45,-317.49"/>
</g>
<!-- Node347 -->
<g id="node10" class="node">
<title>Node347</title>
<g id="a_node10"><a xlink:href="structcppgc_1_1internal_1_1IsWeak_3_01BasicPersistent_3_01T_00_01internal_1_1WeakPersistentPolica0137f7022c128522e140d084b881692.html" target="_top" xlink:title=" ">
<polygon fill="white" stroke="black" points="124.5,-120.5 124.5,-172.5 295.5,-172.5 295.5,-120.5 124.5,-120.5"/>
<text text-anchor="start" x="132.5" y="-160.5" font-family="Helvetica,sans-Serif" font-size="10.00">cppgc::internal::IsWeak</text>
<text text-anchor="start" x="132.5" y="-149.5" font-family="Helvetica,sans-Serif" font-size="10.00">&lt; BasicPersistent&lt; T,</text>
<text text-anchor="start" x="132.5" y="-138.5" font-family="Helvetica,sans-Serif" font-size="10.00"> internal::WeakPersistentPolicy,</text>
<text text-anchor="middle" x="210" y="-127.5" font-family="Helvetica,sans-Serif" font-size="10.00"> LocationPolicy, CheckingPolicy &gt; &gt;</text>
</a>
</g>
</g>
<!-- Node338&#45;&gt;Node347 -->
<g id="edge9" class="edge">
<title>Node338&#45;&gt;Node347</title>
<path fill="none" stroke="midnightblue" d="M41.97,-317.94C49.55,-285.4 69.12,-220 110,-182.5 114.31,-178.54 119.09,-175.01 124.16,-171.87"/>
<polygon fill="midnightblue" stroke="midnightblue" points="38.49,-317.47 39.77,-327.98 45.33,-318.96 38.49,-317.47"/>
</g>
<!-- Node348 -->
<g id="node11" class="node">
<title>Node348</title>
<g id="a_node11"><a xlink:href="structcppgc_1_1internal_1_1IsWeak_3_01internal_1_1BasicMember_3_01T_00_01WeakMemberTag_00_01Writdeb64fe096629f63a5b8562f6a14743b.html" target="_top" xlink:title=" ">
<polygon fill="white" stroke="black" points="125.5,-49.5 125.5,-101.5 294.5,-101.5 294.5,-49.5 125.5,-49.5"/>
<text text-anchor="start" x="133.5" y="-89.5" font-family="Helvetica,sans-Serif" font-size="10.00">cppgc::internal::IsWeak</text>
<text text-anchor="start" x="133.5" y="-78.5" font-family="Helvetica,sans-Serif" font-size="10.00">&lt; internal::BasicMember</text>
<text text-anchor="start" x="133.5" y="-67.5" font-family="Helvetica,sans-Serif" font-size="10.00">&lt; T, WeakMemberTag, WriteBarrier</text>
<text text-anchor="middle" x="210" y="-56.5" font-family="Helvetica,sans-Serif" font-size="10.00">Policy, CheckingPolicy &gt; &gt;</text>
</a>
</g>
</g>
<!-- Node338&#45;&gt;Node348 -->
<g id="edge10" class="edge">
<title>Node338&#45;&gt;Node348</title>
<path fill="none" stroke="midnightblue" d="M38.67,-317.8C41.19,-274.59 53.18,-170.66 110,-111.5 114.56,-106.75 119.8,-102.63 125.43,-99.04"/>
<polygon fill="midnightblue" stroke="midnightblue" points="35.17,-317.7 38.19,-327.85 42.16,-318.03 35.17,-317.7"/>
</g>
<!-- Node349 -->
<g id="node12" class="node">
<title>Node349</title>
<g id="a_node12"><a xlink:href="structcppgc_1_1internal_1_1IsWeakMemberType_3_01T_00_01true_01_4.html" target="_top" xlink:title=" ">
<polygon fill="white" stroke="black" points="134,-0.5 134,-30.5 286,-30.5 286,-0.5 134,-0.5"/>
<text text-anchor="start" x="142" y="-18.5" font-family="Helvetica,sans-Serif" font-size="10.00">cppgc::internal::IsWeakMember</text>
<text text-anchor="middle" x="210" y="-7.5" font-family="Helvetica,sans-Serif" font-size="10.00">Type&lt; T, true &gt;</text>
</a>
</g>
</g>
<!-- Node338&#45;&gt;Node349 -->
<g id="edge11" class="edge">
<title>Node338&#45;&gt;Node349</title>
<path fill="none" stroke="midnightblue" d="M40.11,-318C46.95,-258.44 70.36,-80.52 110,-40.5 116.74,-33.7 125.04,-28.65 133.94,-24.93"/>
<polygon fill="midnightblue" stroke="midnightblue" points="36.63,-317.65 39,-327.97 43.59,-318.43 36.63,-317.65"/>
</g>
</g>
</svg>
