<?xml version="1.0" encoding="UTF-8" standalone="no"?>
<!DOCTYPE svg PUBLIC "-//W3C//DTD SVG 1.1//EN"
 "http://www.w3.org/Graphics/SVG/1.1/DTD/svg11.dtd">
<!-- Generated by graphviz version 2.49.3 (20211027.1534)
 -->
<!-- Title: include/cppgc/internal/process&#45;heap.h Pages: 1 -->
<svg width="527pt" height="486pt"
 viewBox="0.00 0.00 526.50 486.00" xmlns="http://www.w3.org/2000/svg" xmlns:xlink="http://www.w3.org/1999/xlink">
<g id="graph0" class="graph" transform="scale(1 1) rotate(0) translate(4 482)">
<title>include/cppgc/internal/process&#45;heap.h</title>
<polygon fill="white" stroke="transparent" points="-4,4 -4,-482 522.5,-482 522.5,4 -4,4"/>
<!-- Node1 -->
<g id="node1" class="node">
<title>Node1</title>
<g id="a_node1"><a xlink:title=" ">
<polygon fill="#bfbfbf" stroke="black" points="379,-447.5 379,-477.5 490,-477.5 490,-447.5 379,-447.5"/>
<text text-anchor="start" x="387" y="-465.5" font-family="Helvetica,sans-Serif" font-size="10.00">include/cppgc/internal</text>
<text text-anchor="middle" x="434.5" y="-454.5" font-family="Helvetica,sans-Serif" font-size="10.00">/process&#45;heap.h</text>
</a>
</g>
</g>
<!-- Node2 -->
<g id="node2" class="node">
<title>Node2</title>
<g id="a_node2"><a xlink:href="write-barrier_8h.html" target="_top" xlink:title=" ">
<polygon fill="white" stroke="black" points="379,-380.5 379,-410.5 490,-410.5 490,-380.5 379,-380.5"/>
<text text-anchor="start" x="387" y="-398.5" font-family="Helvetica,sans-Serif" font-size="10.00">include/cppgc/internal</text>
<text text-anchor="middle" x="434.5" y="-387.5" font-family="Helvetica,sans-Serif" font-size="10.00">/write&#45;barrier.h</text>
</a>
</g>
</g>
<!-- Node1&#45;&gt;Node2 -->
<g id="edge1" class="edge">
<title>Node1&#45;&gt;Node2</title>
<path fill="none" stroke="midnightblue" d="M434.5,-437.11C434.5,-428.15 434.5,-418.32 434.5,-410.58"/>
<polygon fill="midnightblue" stroke="midnightblue" points="431,-437.4 434.5,-447.4 438,-437.4 431,-437.4"/>
</g>
<!-- Node3 -->
<g id="node3" class="node">
<title>Node3</title>
<g id="a_node3"><a xlink:href="heap-consistency_8h.html" target="_top" xlink:title=" ">
<polygon fill="white" stroke="black" points="260,-313.5 260,-343.5 361,-343.5 361,-313.5 260,-313.5"/>
<text text-anchor="start" x="268" y="-331.5" font-family="Helvetica,sans-Serif" font-size="10.00">include/cppgc/heap</text>
<text text-anchor="middle" x="310.5" y="-320.5" font-family="Helvetica,sans-Serif" font-size="10.00">&#45;consistency.h</text>
</a>
</g>
</g>
<!-- Node2&#45;&gt;Node3 -->
<g id="edge2" class="edge">
<title>Node2&#45;&gt;Node3</title>
<path fill="none" stroke="midnightblue" d="M398.66,-375.71C379.11,-365.46 355.3,-352.98 337.35,-343.58"/>
<polygon fill="midnightblue" stroke="midnightblue" points="397.11,-378.85 407.59,-380.4 400.36,-372.65 397.11,-378.85"/>
</g>
<!-- Node4 -->
<g id="node4" class="node">
<title>Node4</title>
<g id="a_node4"><a xlink:href="pointer-policies_8h.html" target="_top" xlink:title=" ">
<polygon fill="white" stroke="black" points="379,-313.5 379,-343.5 490,-343.5 490,-313.5 379,-313.5"/>
<text text-anchor="start" x="387" y="-331.5" font-family="Helvetica,sans-Serif" font-size="10.00">include/cppgc/internal</text>
<text text-anchor="middle" x="434.5" y="-320.5" font-family="Helvetica,sans-Serif" font-size="10.00">/pointer&#45;policies.h</text>
</a>
</g>
</g>
<!-- Node2&#45;&gt;Node4 -->
<g id="edge3" class="edge">
<title>Node2&#45;&gt;Node4</title>
<path fill="none" stroke="midnightblue" d="M434.5,-370.11C434.5,-361.15 434.5,-351.32 434.5,-343.58"/>
<polygon fill="midnightblue" stroke="midnightblue" points="431,-370.4 434.5,-380.4 438,-370.4 431,-370.4"/>
</g>
<!-- Node10 -->
<g id="node10" class="node">
<title>Node10</title>
<g id="a_node10"><a xlink:href="v8-cppgc_8h.html" target="_top" xlink:title=" ">
<polygon fill="white" stroke="black" points="354.5,-67.5 354.5,-86.5 452.5,-86.5 452.5,-67.5 354.5,-67.5"/>
<text text-anchor="middle" x="403.5" y="-74.5" font-family="Helvetica,sans-Serif" font-size="10.00">include/v8&#45;cppgc.h</text>
</a>
</g>
</g>
<!-- Node2&#45;&gt;Node10 -->
<g id="edge20" class="edge">
<title>Node2&#45;&gt;Node10</title>
<path fill="none" stroke="midnightblue" d="M468.66,-374.53C479.98,-366.38 491.67,-356.02 499.5,-344 518.51,-314.83 518.5,-302.82 518.5,-268 518.5,-268 518.5,-268 518.5,-204.5 518.5,-146.92 452.46,-103.96 420.47,-86.53"/>
<polygon fill="midnightblue" stroke="midnightblue" points="466.45,-371.81 460.16,-380.33 470.39,-377.59 466.45,-371.81"/>
</g>
<!-- Node5 -->
<g id="node5" class="node">
<title>Node5</title>
<g id="a_node5"><a xlink:href="cross-thread-persistent_8h.html" target="_top" xlink:title=" ">
<polygon fill="white" stroke="black" points="219.5,-0.5 219.5,-30.5 323.5,-30.5 323.5,-0.5 219.5,-0.5"/>
<text text-anchor="start" x="227.5" y="-18.5" font-family="Helvetica,sans-Serif" font-size="10.00">include/cppgc/cross</text>
<text text-anchor="middle" x="271.5" y="-7.5" font-family="Helvetica,sans-Serif" font-size="10.00">&#45;thread&#45;persistent.h</text>
</a>
</g>
</g>
<!-- Node4&#45;&gt;Node5 -->
<g id="edge4" class="edge">
<title>Node4&#45;&gt;Node5</title>
<path fill="none" stroke="midnightblue" d="M449.06,-304.37C462.54,-280.72 480.5,-242.45 480.5,-206.5 480.5,-206.5 480.5,-206.5 480.5,-137.5 480.5,-105.05 484.49,-89.91 461.5,-67 425.24,-30.86 366.24,-19.73 323.6,-16.72"/>
<polygon fill="midnightblue" stroke="midnightblue" points="445.88,-302.88 443.81,-313.27 451.91,-306.44 445.88,-302.88"/>
</g>
<!-- Node6 -->
<g id="node6" class="node">
<title>Node6</title>
<g id="a_node6"><a xlink:href="member_8h.html" target="_top" xlink:title=" ">
<polygon fill="white" stroke="black" points="201.5,-257.5 201.5,-276.5 323.5,-276.5 323.5,-257.5 201.5,-257.5"/>
<text text-anchor="middle" x="262.5" y="-264.5" font-family="Helvetica,sans-Serif" font-size="10.00">include/cppgc/member.h</text>
</a>
</g>
</g>
<!-- Node4&#45;&gt;Node6 -->
<g id="edge5" class="edge">
<title>Node4&#45;&gt;Node6</title>
<path fill="none" stroke="midnightblue" d="M384.13,-310.08C352.27,-299.05 312.49,-285.29 287.28,-276.57"/>
<polygon fill="midnightblue" stroke="midnightblue" points="383.14,-313.44 393.74,-313.4 385.43,-306.82 383.14,-313.44"/>
</g>
<!-- Node8 -->
<g id="node8" class="node">
<title>Node8</title>
<g id="a_node8"><a xlink:href="visitor_8h.html" target="_top" xlink:title=" ">
<polygon fill="white" stroke="black" points="215,-129 215,-148 328,-148 328,-129 215,-129"/>
<text text-anchor="middle" x="271.5" y="-136" font-family="Helvetica,sans-Serif" font-size="10.00">include/cppgc/visitor.h</text>
</a>
</g>
</g>
<!-- Node4&#45;&gt;Node8 -->
<g id="edge19" class="edge">
<title>Node4&#45;&gt;Node8</title>
<path fill="none" stroke="midnightblue" d="M427.64,-303.5C417.34,-268.79 397.37,-206.9 381.5,-190 361.36,-168.56 330.35,-155.47 306.38,-148"/>
<polygon fill="midnightblue" stroke="midnightblue" points="424.35,-304.7 430.52,-313.32 431.07,-302.74 424.35,-304.7"/>
</g>
<!-- Node9 -->
<g id="node9" class="node">
<title>Node9</title>
<g id="a_node9"><a xlink:href="persistent_8h.html" target="_top" xlink:title=" ">
<polygon fill="white" stroke="black" points="206.5,-67.5 206.5,-86.5 336.5,-86.5 336.5,-67.5 206.5,-67.5"/>
<text text-anchor="middle" x="271.5" y="-74.5" font-family="Helvetica,sans-Serif" font-size="10.00">include/cppgc/persistent.h</text>
</a>
</g>
</g>
<!-- Node4&#45;&gt;Node9 -->
<g id="edge18" class="edge">
<title>Node4&#45;&gt;Node9</title>
<path fill="none" stroke="midnightblue" d="M433.58,-303.12C431.51,-274.23 424.84,-225.53 403.5,-190 374.1,-141.05 315.63,-103.06 287.44,-86.73"/>
<polygon fill="midnightblue" stroke="midnightblue" points="430.09,-303.38 434.17,-313.16 437.08,-302.97 430.09,-303.38"/>
</g>
<!-- Node7 -->
<g id="node7" class="node">
<title>Node7</title>
<g id="a_node7"><a xlink:href="ephemeron-pair_8h.html" target="_top" xlink:title=" ">
<polygon fill="white" stroke="black" points="244.5,-190.5 244.5,-220.5 372.5,-220.5 372.5,-190.5 244.5,-190.5"/>
<text text-anchor="start" x="252.5" y="-208.5" font-family="Helvetica,sans-Serif" font-size="10.00">include/cppgc/ephemeron</text>
<text text-anchor="middle" x="308.5" y="-197.5" font-family="Helvetica,sans-Serif" font-size="10.00">&#45;pair.h</text>
</a>
</g>
</g>
<!-- Node6&#45;&gt;Node7 -->
<g id="edge6" class="edge">
<title>Node6&#45;&gt;Node7</title>
<path fill="none" stroke="midnightblue" d="M275.23,-249.53C282.28,-240.42 290.94,-229.21 297.66,-220.52"/>
<polygon fill="midnightblue" stroke="midnightblue" points="272.44,-247.42 269.09,-257.48 277.98,-251.7 272.44,-247.42"/>
</g>
<!-- Node6&#45;&gt;Node8 -->
<g id="edge17" class="edge">
<title>Node6&#45;&gt;Node8</title>
<path fill="none" stroke="midnightblue" d="M249.47,-249.23C244.01,-241.17 238.29,-231.08 235.5,-221 231.82,-207.72 231.3,-203.12 235.5,-190 240.82,-173.39 253.82,-157.58 262.65,-148.21"/>
<polygon fill="midnightblue" stroke="midnightblue" points="246.65,-251.31 255.35,-257.36 252.32,-247.21 246.65,-251.31"/>
</g>
<!-- Node11 -->
<g id="node11" class="node">
<title>Node11</title>
<g id="a_node11"><a xlink:href="liveness-broker_8h.html" target="_top" xlink:title=" ">
<polygon fill="white" stroke="black" points="72.5,-190.5 72.5,-220.5 188.5,-220.5 188.5,-190.5 72.5,-190.5"/>
<text text-anchor="start" x="80.5" y="-208.5" font-family="Helvetica,sans-Serif" font-size="10.00">include/cppgc/liveness</text>
<text text-anchor="middle" x="130.5" y="-197.5" font-family="Helvetica,sans-Serif" font-size="10.00">&#45;broker.h</text>
</a>
</g>
</g>
<!-- Node6&#45;&gt;Node11 -->
<g id="edge12" class="edge">
<title>Node6&#45;&gt;Node11</title>
<path fill="none" stroke="midnightblue" d="M234.39,-253.33C213.04,-243.7 183.67,-230.47 161.61,-220.52"/>
<polygon fill="midnightblue" stroke="midnightblue" points="233.03,-256.56 243.59,-257.48 235.91,-250.17 233.03,-256.56"/>
</g>
<!-- Node7&#45;&gt;Node8 -->
<g id="edge7" class="edge">
<title>Node7&#45;&gt;Node8</title>
<path fill="none" stroke="midnightblue" d="M295.48,-181.63C288.9,-170.07 281.3,-156.71 276.45,-148.19"/>
<polygon fill="midnightblue" stroke="midnightblue" points="292.48,-183.44 300.47,-190.4 298.57,-179.97 292.48,-183.44"/>
</g>
<!-- Node8&#45;&gt;Node5 -->
<g id="edge8" class="edge">
<title>Node8&#45;&gt;Node5</title>
<path fill="none" stroke="midnightblue" d="M240.02,-124.59C214.48,-112.03 184.66,-91.31 197.5,-67 206.07,-50.77 222.46,-38.77 237.65,-30.56"/>
<polygon fill="midnightblue" stroke="midnightblue" points="238.61,-127.79 249.15,-128.84 241.56,-121.44 238.61,-127.79"/>
</g>
<!-- Node8&#45;&gt;Node9 -->
<g id="edge9" class="edge">
<title>Node8&#45;&gt;Node9</title>
<path fill="none" stroke="midnightblue" d="M271.5,-118.82C271.5,-108 271.5,-94.9 271.5,-86.51"/>
<polygon fill="midnightblue" stroke="midnightblue" points="268,-118.98 271.5,-128.98 275,-118.98 268,-118.98"/>
</g>
<!-- Node8&#45;&gt;Node10 -->
<g id="edge11" class="edge">
<title>Node8&#45;&gt;Node10</title>
<path fill="none" stroke="midnightblue" d="M299.61,-124.83C325.24,-113.28 362.39,-96.53 384.62,-86.51"/>
<polygon fill="midnightblue" stroke="midnightblue" points="298.09,-121.67 290.41,-128.98 300.97,-128.06 298.09,-121.67"/>
</g>
<!-- Node9&#45;&gt;Node5 -->
<g id="edge10" class="edge">
<title>Node9&#45;&gt;Node5</title>
<path fill="none" stroke="midnightblue" d="M271.5,-57.23C271.5,-48.59 271.5,-38.5 271.5,-30.52"/>
<polygon fill="midnightblue" stroke="midnightblue" points="268,-57.48 271.5,-67.48 275,-57.48 268,-57.48"/>
</g>
<!-- Node11&#45;&gt;Node8 -->
<g id="edge16" class="edge">
<title>Node11&#45;&gt;Node8</title>
<path fill="none" stroke="midnightblue" d="M170.35,-186.13C197.48,-173.62 232.15,-157.64 253.05,-148.01"/>
<polygon fill="midnightblue" stroke="midnightblue" points="168.71,-183.03 161.09,-190.4 171.64,-189.39 168.71,-183.03"/>
</g>
<!-- Node12 -->
<g id="node12" class="node">
<title>Node12</title>
<g id="a_node12"><a xlink:href="prefinalizer-handler_8h.html" target="_top" xlink:title=" ">
<polygon fill="white" stroke="black" points="0,-123.5 0,-153.5 111,-153.5 111,-123.5 0,-123.5"/>
<text text-anchor="start" x="8" y="-141.5" font-family="Helvetica,sans-Serif" font-size="10.00">include/cppgc/internal</text>
<text text-anchor="middle" x="55.5" y="-130.5" font-family="Helvetica,sans-Serif" font-size="10.00">/prefinalizer&#45;handler.h</text>
</a>
</g>
</g>
<!-- Node11&#45;&gt;Node12 -->
<g id="edge13" class="edge">
<title>Node11&#45;&gt;Node12</title>
<path fill="none" stroke="midnightblue" d="M106.38,-183.6C95.06,-173.78 81.86,-162.34 71.74,-153.58"/>
<polygon fill="midnightblue" stroke="midnightblue" points="104.38,-186.49 114.23,-190.4 108.96,-181.2 104.38,-186.49"/>
</g>
<!-- Node13 -->
<g id="node13" class="node">
<title>Node13</title>
<g id="a_node13"><a xlink:href="prefinalizer_8h.html" target="_top" xlink:title=" ">
<polygon fill="white" stroke="black" points="9,-67.5 9,-86.5 142,-86.5 142,-67.5 9,-67.5"/>
<text text-anchor="middle" x="75.5" y="-74.5" font-family="Helvetica,sans-Serif" font-size="10.00">include/cppgc/prefinalizer.h</text>
</a>
</g>
</g>
<!-- Node11&#45;&gt;Node13 -->
<g id="edge15" class="edge">
<title>Node11&#45;&gt;Node13</title>
<path fill="none" stroke="midnightblue" d="M131.17,-180.33C130.72,-163.48 128.23,-140.89 119.5,-123 112.12,-107.88 97.69,-94.67 87.37,-86.54"/>
<polygon fill="midnightblue" stroke="midnightblue" points="127.67,-180.49 131.21,-190.47 134.67,-180.46 127.67,-180.49"/>
</g>
<!-- Node12&#45;&gt;Node13 -->
<g id="edge14" class="edge">
<title>Node12&#45;&gt;Node13</title>
<path fill="none" stroke="midnightblue" d="M63.43,-113.9C66.66,-104.3 70.19,-93.81 72.59,-86.66"/>
<polygon fill="midnightblue" stroke="midnightblue" points="60.11,-112.81 60.24,-123.4 66.74,-115.04 60.11,-112.81"/>
</g>
</g>
</svg>
