<?xml version="1.0" encoding="UTF-8" standalone="no"?>
<!DOCTYPE svg PUBLIC "-//W3C//DTD SVG 1.1//EN"
 "http://www.w3.org/Graphics/SVG/1.1/DTD/svg11.dtd">
<!-- Generated by graphviz version 8.0.5 (20230430.1635)
 -->
<!-- Title: include/cppgc/internal/api&#45;constants.h Pages: 1 -->
<svg width="847pt" height="670pt"
 viewBox="0.00 0.00 846.88 669.75" xmlns="http://www.w3.org/2000/svg" xmlns:xlink="http://www.w3.org/1999/xlink">
<g id="graph0" class="graph" transform="scale(1 1) rotate(0) translate(4 665.75)">
<title>include/cppgc/internal/api&#45;constants.h</title>
<!-- Node1 -->
<g id="node1" class="node">
<title>Node1</title>
<g id="a_node1"><a xlink:title=" ">
<polygon fill="#999999" stroke="#666666" points="385.12,-661.75 274.62,-661.75 274.62,-631.25 385.12,-631.25 385.12,-661.75"/>
<text text-anchor="start" x="282.62" y="-648.25" font-family="Helvetica,sans-Serif" font-size="10.00">include/cppgc/internal</text>
<text text-anchor="middle" x="329.88" y="-637" font-family="Helvetica,sans-Serif" font-size="10.00">/api&#45;constants.h</text>
</a>
</g>
</g>
<!-- Node2 -->
<g id="node2" class="node">
<title>Node2</title>
<g id="a_node2"><a xlink:href="allocation_8h.html" target="_top" xlink:title=" ">
<polygon fill="white" stroke="#666666" points="127.75,-589.62 0,-589.62 0,-570.38 127.75,-570.38 127.75,-589.62"/>
<text text-anchor="middle" x="63.88" y="-576.12" font-family="Helvetica,sans-Serif" font-size="10.00">include/cppgc/allocation.h</text>
</a>
</g>
</g>
<!-- Node1&#45;&gt;Node2 -->
<g id="edge1" class="edge">
<title>Node1&#45;&gt;Node2</title>
<path fill="none" stroke="#63b8ff" d="M263.79,-629.48C212.54,-617.05 143.36,-600.27 101.27,-590.07"/>
<polygon fill="#63b8ff" stroke="#63b8ff" points="262.89,-633.1 273.44,-632.06 264.54,-626.3 262.89,-633.1"/>
</g>
<!-- Node4 -->
<g id="node4" class="node">
<title>Node4</title>
<g id="a_node4"><a xlink:href="garbage-collected_8h.html" target="_top" xlink:title=" ">
<polygon fill="white" stroke="#666666" points="212.62,-395.75 99.12,-395.75 99.12,-365.25 212.62,-365.25 212.62,-395.75"/>
<text text-anchor="start" x="107.12" y="-382.25" font-family="Helvetica,sans-Serif" font-size="10.00">include/cppgc/garbage</text>
<text text-anchor="middle" x="155.88" y="-371" font-family="Helvetica,sans-Serif" font-size="10.00">&#45;collected.h</text>
</a>
</g>
</g>
<!-- Node1&#45;&gt;Node4 -->
<g id="edge3" class="edge">
<title>Node1&#45;&gt;Node4</title>
<path fill="none" stroke="#63b8ff" d="M263.92,-639.42C233.75,-633.12 200.26,-620.47 179.88,-595.25 131.64,-535.56 145.38,-433.97 152.68,-396.2"/>
<polygon fill="#63b8ff" stroke="#63b8ff" points="262.95,-642.99 273.43,-641.4 264.25,-636.11 262.95,-642.99"/>
</g>
<!-- Node9 -->
<g id="node9" class="node">
<title>Node9</title>
<g id="a_node9"><a xlink:href="base-page-handle_8h.html" target="_top" xlink:title=" ">
<polygon fill="white" stroke="#666666" points="468.12,-595.25 357.62,-595.25 357.62,-564.75 468.12,-564.75 468.12,-595.25"/>
<text text-anchor="start" x="365.62" y="-581.75" font-family="Helvetica,sans-Serif" font-size="10.00">include/cppgc/internal</text>
<text text-anchor="middle" x="412.88" y="-570.5" font-family="Helvetica,sans-Serif" font-size="10.00">/base&#45;page&#45;handle.h</text>
</a>
</g>
</g>
<!-- Node1&#45;&gt;Node9 -->
<g id="edge9" class="edge">
<title>Node1&#45;&gt;Node9</title>
<path fill="none" stroke="#63b8ff" d="M357.13,-624.32C369.25,-614.91 383.2,-604.06 394.12,-595.58"/>
<polygon fill="#63b8ff" stroke="#63b8ff" points="355.46,-621.96 349.71,-630.86 359.75,-627.49 355.46,-621.96"/>
</g>
<!-- Node10 -->
<g id="node10" class="node">
<title>Node10</title>
<g id="a_node10"><a xlink:href="caged-heap_8h.html" target="_top" xlink:title=" ">
<polygon fill="white" stroke="#666666" points="428.12,-528.75 317.62,-528.75 317.62,-498.25 428.12,-498.25 428.12,-528.75"/>
<text text-anchor="start" x="325.62" y="-515.25" font-family="Helvetica,sans-Serif" font-size="10.00">include/cppgc/internal</text>
<text text-anchor="middle" x="372.88" y="-504" font-family="Helvetica,sans-Serif" font-size="10.00">/caged&#45;heap.h</text>
</a>
</g>
</g>
<!-- Node1&#45;&gt;Node10 -->
<g id="edge30" class="edge">
<title>Node1&#45;&gt;Node10</title>
<path fill="none" stroke="#63b8ff" d="M334.37,-620.21C337.59,-604.09 342.49,-582.9 348.88,-564.75 353.24,-552.35 359.74,-538.94 364.88,-529.1"/>
<polygon fill="#63b8ff" stroke="#63b8ff" points="330.76,-619.46 332.33,-629.94 337.64,-620.77 330.76,-619.46"/>
</g>
<!-- Node11 -->
<g id="node11" class="node">
<title>Node11</title>
<g id="a_node11"><a xlink:href="caged-heap-local-data_8h.html" target="_top" xlink:title=" ">
<polygon fill="white" stroke="#666666" points="343.75,-462.25 222,-462.25 222,-431.75 343.75,-431.75 343.75,-462.25"/>
<text text-anchor="start" x="230" y="-448.75" font-family="Helvetica,sans-Serif" font-size="10.00">include/cppgc/internal</text>
<text text-anchor="middle" x="282.88" y="-437.5" font-family="Helvetica,sans-Serif" font-size="10.00">/caged&#45;heap&#45;local&#45;data.h</text>
</a>
</g>
</g>
<!-- Node1&#45;&gt;Node11 -->
<g id="edge29" class="edge">
<title>Node1&#45;&gt;Node11</title>
<path fill="none" stroke="#63b8ff" d="M323.89,-620.33C313.93,-578.5 294.29,-495.95 286.34,-462.54"/>
<polygon fill="#63b8ff" stroke="#63b8ff" points="320.7,-621.06 326.42,-629.98 327.51,-619.44 320.7,-621.06"/>
</g>
<!-- Node12 -->
<g id="node12" class="node">
<title>Node12</title>
<g id="a_node12"><a xlink:href="member-storage_8h.html" target="_top" xlink:title=" ">
<polygon fill="white" stroke="#666666" points="472.12,-462.25 361.62,-462.25 361.62,-431.75 472.12,-431.75 472.12,-462.25"/>
<text text-anchor="start" x="369.62" y="-448.75" font-family="Helvetica,sans-Serif" font-size="10.00">include/cppgc/internal</text>
<text text-anchor="middle" x="416.88" y="-437.5" font-family="Helvetica,sans-Serif" font-size="10.00">/member&#45;storage.h</text>
</a>
</g>
</g>
<!-- Node1&#45;&gt;Node12 -->
<g id="edge31" class="edge">
<title>Node1&#45;&gt;Node12</title>
<path fill="none" stroke="#63b8ff" d="M396.17,-639.94C425.93,-633.74 458.43,-621.04 476.88,-595.25 507.86,-551.91 458.02,-490.23 431.62,-462.49"/>
<polygon fill="#63b8ff" stroke="#63b8ff" points="395.55,-636.68 386.36,-641.94 396.83,-643.56 395.55,-636.68"/>
</g>
<!-- Node14 -->
<g id="node14" class="node">
<title>Node14</title>
<g id="a_node14"><a xlink:href="member_8h.html" target="_top" xlink:title=" ">
<polygon fill="white" stroke="#666666" points="626.75,-262.75 505,-262.75 505,-243.5 626.75,-243.5 626.75,-262.75"/>
<text text-anchor="middle" x="565.88" y="-249.25" font-family="Helvetica,sans-Serif" font-size="10.00">include/cppgc/member.h</text>
</a>
</g>
</g>
<!-- Node1&#45;&gt;Node14 -->
<g id="edge33" class="edge">
<title>Node1&#45;&gt;Node14</title>
<path fill="none" stroke="#63b8ff" d="M302.18,-623.83C255.9,-584.89 171.77,-500.71 212.88,-431.75 276.81,-324.5 428.26,-279.97 510.47,-263.19"/>
<polygon fill="#63b8ff" stroke="#63b8ff" points="299.67,-627.12 309.61,-630.78 304.12,-621.72 299.67,-627.12"/>
</g>
<!-- Node18 -->
<g id="node18" class="node">
<title>Node18</title>
<g id="a_node18"><a xlink:href="write-barrier_8h.html" target="_top" xlink:title=" ">
<polygon fill="white" stroke="#666666" points="586.12,-395.75 475.62,-395.75 475.62,-365.25 586.12,-365.25 586.12,-395.75"/>
<text text-anchor="start" x="483.62" y="-382.25" font-family="Helvetica,sans-Serif" font-size="10.00">include/cppgc/internal</text>
<text text-anchor="middle" x="530.88" y="-371" font-family="Helvetica,sans-Serif" font-size="10.00">/write&#45;barrier.h</text>
</a>
</g>
</g>
<!-- Node1&#45;&gt;Node18 -->
<g id="edge32" class="edge">
<title>Node1&#45;&gt;Node18</title>
<path fill="none" stroke="#63b8ff" d="M395.81,-641.59C430.21,-636.02 470.15,-623.38 494.88,-595.25 546.05,-537.02 538.18,-434.1 533.15,-396.11"/>
<polygon fill="#63b8ff" stroke="#63b8ff" points="395.74,-638.21 386.34,-643.1 396.74,-645.13 395.74,-638.21"/>
</g>
<!-- Node19 -->
<g id="node19" class="node">
<title>Node19</title>
<g id="a_node19"><a xlink:href="sentinel-pointer_8h.html" target="_top" xlink:title=" ">
<polygon fill="white" stroke="#666666" points="693.25,-528.75 580.5,-528.75 580.5,-498.25 693.25,-498.25 693.25,-528.75"/>
<text text-anchor="start" x="588.5" y="-515.25" font-family="Helvetica,sans-Serif" font-size="10.00">include/cppgc/sentinel</text>
<text text-anchor="middle" x="636.88" y="-504" font-family="Helvetica,sans-Serif" font-size="10.00">&#45;pointer.h</text>
</a>
</g>
</g>
<!-- Node1&#45;&gt;Node19 -->
<g id="edge34" class="edge">
<title>Node1&#45;&gt;Node19</title>
<path fill="none" stroke="#63b8ff" d="M395.92,-639.88C441.86,-633.81 503.33,-621.22 551.88,-595.25 582.93,-578.64 610.83,-547.6 625.66,-529.22"/>
<polygon fill="#63b8ff" stroke="#63b8ff" points="395.68,-636.51 386.19,-641.22 396.55,-643.46 395.68,-636.51"/>
</g>
<!-- Node3 -->
<g id="node3" class="node">
<title>Node3</title>
<g id="a_node3"><a xlink:href="explicit-management_8h.html" target="_top" xlink:title=" ">
<polygon fill="white" stroke="#666666" points="118.38,-528.75 9.38,-528.75 9.38,-498.25 118.38,-498.25 118.38,-528.75"/>
<text text-anchor="start" x="17.38" y="-515.25" font-family="Helvetica,sans-Serif" font-size="10.00">include/cppgc/explicit</text>
<text text-anchor="middle" x="63.88" y="-504" font-family="Helvetica,sans-Serif" font-size="10.00">&#45;management.h</text>
</a>
</g>
</g>
<!-- Node2&#45;&gt;Node3 -->
<g id="edge2" class="edge">
<title>Node2&#45;&gt;Node3</title>
<path fill="none" stroke="#63b8ff" d="M63.88,-559.27C63.88,-549.45 63.88,-537.8 63.88,-528.84"/>
<polygon fill="#63b8ff" stroke="#63b8ff" points="60.38,-559.03 63.88,-569.03 67.38,-559.03 60.38,-559.03"/>
</g>
<!-- Node5 -->
<g id="node5" class="node">
<title>Node5</title>
<g id="a_node5"><a xlink:href="visitor_8h.html" target="_top" xlink:title=" ">
<polygon fill="white" stroke="#666666" points="546.25,-141 433.5,-141 433.5,-121.75 546.25,-121.75 546.25,-141"/>
<text text-anchor="middle" x="489.88" y="-127.5" font-family="Helvetica,sans-Serif" font-size="10.00">include/cppgc/visitor.h</text>
</a>
</g>
</g>
<!-- Node4&#45;&gt;Node5 -->
<g id="edge4" class="edge">
<title>Node4&#45;&gt;Node5</title>
<path fill="none" stroke="#63b8ff" d="M161.88,-354.43C173.66,-310.94 204.15,-221.87 264.88,-177 291.06,-157.65 375.57,-144.82 433.23,-138.07"/>
<polygon fill="#63b8ff" stroke="#63b8ff" points="158.27,-353.38 159.15,-363.94 165.05,-355.13 158.27,-353.38"/>
</g>
<!-- Node6 -->
<g id="node6" class="node">
<title>Node6</title>
<g id="a_node6"><a xlink:href="cross-thread-persistent_8h.html" target="_top" xlink:title=" ">
<polygon fill="white" stroke="#666666" points="759.38,-30.5 656.38,-30.5 656.38,0 759.38,0 759.38,-30.5"/>
<text text-anchor="start" x="664.38" y="-17" font-family="Helvetica,sans-Serif" font-size="10.00">include/cppgc/cross</text>
<text text-anchor="middle" x="707.88" y="-5.75" font-family="Helvetica,sans-Serif" font-size="10.00">&#45;thread&#45;persistent.h</text>
</a>
</g>
</g>
<!-- Node5&#45;&gt;Node6 -->
<g id="edge5" class="edge">
<title>Node5&#45;&gt;Node6</title>
<path fill="none" stroke="#63b8ff" d="M491.04,-110.93C492.93,-96.71 497.74,-77.98 509.88,-66.5 549.15,-29.32 611.9,-18.61 656.21,-16.02"/>
<polygon fill="#63b8ff" stroke="#63b8ff" points="487.49,-110.26 490.05,-120.55 494.46,-110.92 487.49,-110.26"/>
</g>
<!-- Node7 -->
<g id="node7" class="node">
<title>Node7</title>
<g id="a_node7"><a xlink:href="persistent_8h.html" target="_top" xlink:title=" ">
<polygon fill="white" stroke="#666666" points="772.5,-85.75 643.25,-85.75 643.25,-66.5 772.5,-66.5 772.5,-85.75"/>
<text text-anchor="middle" x="707.88" y="-72.25" font-family="Helvetica,sans-Serif" font-size="10.00">include/cppgc/persistent.h</text>
</a>
</g>
</g>
<!-- Node5&#45;&gt;Node7 -->
<g id="edge6" class="edge">
<title>Node5&#45;&gt;Node7</title>
<path fill="none" stroke="#63b8ff" d="M537.43,-118.76C577.46,-108.98 633.93,-95.19 670.71,-86.2"/>
<polygon fill="#63b8ff" stroke="#63b8ff" points="536.74,-115.57 527.86,-121.34 538.4,-122.37 536.74,-115.57"/>
</g>
<!-- Node8 -->
<g id="node8" class="node">
<title>Node8</title>
<g id="a_node8"><a xlink:href="v8-cppgc_8h.html" target="_top" xlink:title=" ">
<polygon fill="white" stroke="#666666" points="615.38,-85.75 518.38,-85.75 518.38,-66.5 615.38,-66.5 615.38,-85.75"/>
<text text-anchor="middle" x="566.88" y="-72.25" font-family="Helvetica,sans-Serif" font-size="10.00">include/v8&#45;cppgc.h</text>
</a>
</g>
</g>
<!-- Node5&#45;&gt;Node8 -->
<g id="edge8" class="edge">
<title>Node5&#45;&gt;Node8</title>
<path fill="none" stroke="#63b8ff" d="M511.67,-115.3C525.23,-105.92 542.22,-94.17 553.75,-86.2"/>
<polygon fill="#63b8ff" stroke="#63b8ff" points="510.17,-112.78 503.94,-121.34 514.15,-118.53 510.17,-112.78"/>
</g>
<!-- Node7&#45;&gt;Node6 -->
<g id="edge7" class="edge">
<title>Node7&#45;&gt;Node6</title>
<path fill="none" stroke="#63b8ff" d="M707.88,-55.2C707.88,-47.2 707.88,-38.15 707.88,-30.78"/>
<polygon fill="#63b8ff" stroke="#63b8ff" points="704.38,-55.18 707.88,-65.18 711.38,-55.18 704.38,-55.18"/>
</g>
<!-- Node9&#45;&gt;Node10 -->
<g id="edge10" class="edge">
<title>Node9&#45;&gt;Node10</title>
<path fill="none" stroke="#63b8ff" d="M398.02,-555.04C392.61,-546.32 386.67,-536.74 381.92,-529.08"/>
<polygon fill="#63b8ff" stroke="#63b8ff" points="395.55,-556.71 403.8,-563.36 401.5,-553.02 395.55,-556.71"/>
</g>
<!-- Node9&#45;&gt;Node18 -->
<g id="edge28" class="edge">
<title>Node9&#45;&gt;Node18</title>
<path fill="none" stroke="#63b8ff" d="M427.12,-555.16C451.85,-513.77 502.01,-429.81 522.19,-396.04"/>
<polygon fill="#63b8ff" stroke="#63b8ff" points="423.68,-553.1 421.55,-563.48 429.69,-556.69 423.68,-553.1"/>
</g>
<!-- Node10&#45;&gt;Node11 -->
<g id="edge11" class="edge">
<title>Node10&#45;&gt;Node11</title>
<path fill="none" stroke="#63b8ff" d="M343.7,-491.59C330.48,-482.12 315.17,-471.14 303.22,-462.58"/>
<polygon fill="#63b8ff" stroke="#63b8ff" points="341.29,-494.88 351.45,-497.86 345.36,-489.19 341.29,-494.88"/>
</g>
<!-- Node10&#45;&gt;Node12 -->
<g id="edge12" class="edge">
<title>Node10&#45;&gt;Node12</title>
<path fill="none" stroke="#63b8ff" d="M389.03,-488.82C395.03,-480.03 401.65,-470.32 406.93,-462.58"/>
<polygon fill="#63b8ff" stroke="#63b8ff" points="385.6,-486.63 382.86,-496.86 391.39,-490.58 385.6,-486.63"/>
</g>
<!-- Node12&#45;&gt;Node5 -->
<g id="edge27" class="edge">
<title>Node12&#45;&gt;Node5</title>
<path fill="none" stroke="#63b8ff" d="M372.37,-426.41C332.04,-405.29 278.88,-367.49 278.88,-315 278.88,-315 278.88,-315 278.88,-252.12 278.88,-181.05 370.56,-151.64 433.05,-139.85"/>
<polygon fill="#63b8ff" stroke="#63b8ff" points="370.55,-429.92 381.05,-431.3 373.7,-423.67 370.55,-429.92"/>
</g>
<!-- Node13 -->
<g id="node13" class="node">
<title>Node13</title>
<g id="a_node13"><a xlink:href="pointer-policies_8h.html" target="_top" xlink:title=" ">
<polygon fill="white" stroke="#666666" points="735.12,-329.25 624.62,-329.25 624.62,-298.75 735.12,-298.75 735.12,-329.25"/>
<text text-anchor="start" x="632.62" y="-315.75" font-family="Helvetica,sans-Serif" font-size="10.00">include/cppgc/internal</text>
<text text-anchor="middle" x="679.88" y="-304.5" font-family="Helvetica,sans-Serif" font-size="10.00">/pointer&#45;policies.h</text>
</a>
</g>
</g>
<!-- Node12&#45;&gt;Node13 -->
<g id="edge13" class="edge">
<title>Node12&#45;&gt;Node13</title>
<path fill="none" stroke="#63b8ff" d="M426.04,-421.36C434.08,-403.14 447.52,-379.18 466.88,-365.25 513.13,-331.95 578.3,-320.42 624.35,-316.58"/>
<polygon fill="#63b8ff" stroke="#63b8ff" points="422.52,-419.72 421.93,-430.3 428.99,-422.39 422.52,-419.72"/>
</g>
<!-- Node12&#45;&gt;Node14 -->
<g id="edge26" class="edge">
<title>Node12&#45;&gt;Node14</title>
<path fill="none" stroke="#63b8ff" d="M418.35,-420.61C420.29,-403.88 424.74,-382.03 434.88,-365.25 464.02,-317 521.53,-279.42 549.64,-263.06"/>
<polygon fill="#63b8ff" stroke="#63b8ff" points="414.81,-419.98 417.37,-430.26 421.78,-420.62 414.81,-419.98"/>
</g>
<!-- Node12&#45;&gt;Node18 -->
<g id="edge23" class="edge">
<title>Node12&#45;&gt;Node18</title>
<path fill="none" stroke="#63b8ff" d="M451.91,-426.18C469.08,-416.46 489.39,-404.97 505.11,-396.08"/>
<polygon fill="#63b8ff" stroke="#63b8ff" points="450.72,-423.39 443.74,-431.36 454.17,-429.49 450.72,-423.39"/>
</g>
<!-- Node13&#45;&gt;Node5 -->
<g id="edge22" class="edge">
<title>Node13&#45;&gt;Node5</title>
<path fill="none" stroke="#63b8ff" d="M668.35,-288.77C660.63,-274.37 649.42,-256.44 635.88,-243.5 612.56,-221.22 598.98,-226.43 572.88,-207.5 570.91,-206.07 521.36,-161.02 499.77,-141.38"/>
<polygon fill="#63b8ff" stroke="#63b8ff" points="665.67,-290.21 673.34,-297.52 671.9,-287.02 665.67,-290.21"/>
</g>
<!-- Node13&#45;&gt;Node6 -->
<g id="edge14" class="edge">
<title>Node13&#45;&gt;Node6</title>
<path fill="none" stroke="#63b8ff" d="M721.56,-293.16C756.56,-273.27 800.88,-239.04 800.88,-193.25 800.88,-193.25 800.88,-193.25 800.88,-130.38 800.88,-100.76 799.36,-90.4 781.88,-66.5 770.87,-51.46 753.92,-39.48 739.02,-30.99"/>
<polygon fill="#63b8ff" stroke="#63b8ff" points="720.08,-290.52 712.98,-298.38 723.44,-296.66 720.08,-290.52"/>
</g>
<!-- Node13&#45;&gt;Node7 -->
<g id="edge21" class="edge">
<title>Node13&#45;&gt;Node7</title>
<path fill="none" stroke="#63b8ff" d="M687.69,-288.16C693.94,-266.97 702.25,-235.57 705.88,-207.5 711.73,-162.15 709.59,-107.19 708.43,-86.03"/>
<polygon fill="#63b8ff" stroke="#63b8ff" points="684.1,-286.94 684.55,-297.52 690.8,-288.96 684.1,-286.94"/>
</g>
<!-- Node13&#45;&gt;Node14 -->
<g id="edge15" class="edge">
<title>Node13&#45;&gt;Node14</title>
<path fill="none" stroke="#63b8ff" d="M641.74,-293.3C621.99,-283.11 598.84,-271.15 583.36,-263.15"/>
<polygon fill="#63b8ff" stroke="#63b8ff" points="639.91,-296.82 650.4,-298.3 643.12,-290.6 639.91,-296.82"/>
</g>
<!-- Node14&#45;&gt;Node5 -->
<g id="edge20" class="edge">
<title>Node14&#45;&gt;Node5</title>
<path fill="none" stroke="#63b8ff" d="M554.37,-233.99C537.88,-208.02 508.15,-161.17 495.65,-141.48"/>
<polygon fill="#63b8ff" stroke="#63b8ff" points="551.85,-235.56 560.16,-242.12 557.76,-231.81 551.85,-235.56"/>
</g>
<!-- Node15 -->
<g id="node15" class="node">
<title>Node15</title>
<g id="a_node15"><a xlink:href="heap-consistency_8h.html" target="_top" xlink:title=" ">
<polygon fill="white" stroke="#666666" points="439.88,-207.5 339.88,-207.5 339.88,-177 439.88,-177 439.88,-207.5"/>
<text text-anchor="start" x="347.88" y="-194" font-family="Helvetica,sans-Serif" font-size="10.00">include/cppgc/heap</text>
<text text-anchor="middle" x="389.88" y="-182.75" font-family="Helvetica,sans-Serif" font-size="10.00">&#45;consistency.h</text>
</a>
</g>
</g>
<!-- Node14&#45;&gt;Node15 -->
<g id="edge16" class="edge">
<title>Node14&#45;&gt;Node15</title>
<path fill="none" stroke="#63b8ff" d="M528.68,-239.68C500.96,-230.41 463.01,-217.72 433.8,-207.94"/>
<polygon fill="#63b8ff" stroke="#63b8ff" points="527.17,-243.2 537.76,-243.05 529.39,-236.56 527.17,-243.2"/>
</g>
<!-- Node16 -->
<g id="node16" class="node">
<title>Node16</title>
<g id="a_node16"><a xlink:href="liveness-broker_8h.html" target="_top" xlink:title=" ">
<polygon fill="white" stroke="#666666" points="696.38,-207.5 581.38,-207.5 581.38,-177 696.38,-177 696.38,-207.5"/>
<text text-anchor="start" x="589.38" y="-194" font-family="Helvetica,sans-Serif" font-size="10.00">include/cppgc/liveness</text>
<text text-anchor="middle" x="638.88" y="-182.75" font-family="Helvetica,sans-Serif" font-size="10.00">&#45;broker.h</text>
</a>
</g>
</g>
<!-- Node14&#45;&gt;Node16 -->
<g id="edge17" class="edge">
<title>Node14&#45;&gt;Node16</title>
<path fill="none" stroke="#63b8ff" d="M585.47,-236.32C596.48,-227.45 610.12,-216.44 620.86,-207.78"/>
<polygon fill="#63b8ff" stroke="#63b8ff" points="583.55,-234.18 577.96,-243.18 587.94,-239.63 583.55,-234.18"/>
</g>
<!-- Node16&#45;&gt;Node5 -->
<g id="edge19" class="edge">
<title>Node16&#45;&gt;Node5</title>
<path fill="none" stroke="#63b8ff" d="M591.49,-172.53C565.17,-162.13 533.61,-149.66 512.73,-141.4"/>
<polygon fill="#63b8ff" stroke="#63b8ff" points="590.07,-176.13 600.66,-176.55 592.65,-169.62 590.07,-176.13"/>
</g>
<!-- Node17 -->
<g id="node17" class="node">
<title>Node17</title>
<g id="a_node17"><a xlink:href="prefinalizer_8h.html" target="_top" xlink:title=" ">
<polygon fill="white" stroke="#666666" points="697,-141 564.75,-141 564.75,-121.75 697,-121.75 697,-141"/>
<text text-anchor="middle" x="630.88" y="-127.5" font-family="Helvetica,sans-Serif" font-size="10.00">include/cppgc/prefinalizer.h</text>
</a>
</g>
</g>
<!-- Node16&#45;&gt;Node17 -->
<g id="edge18" class="edge">
<title>Node16&#45;&gt;Node17</title>
<path fill="none" stroke="#63b8ff" d="M635.42,-165.82C634.24,-157.14 633,-147.98 632.11,-141.45"/>
<polygon fill="#63b8ff" stroke="#63b8ff" points="632.08,-166.26 636.9,-175.7 639.02,-165.32 632.08,-166.26"/>
</g>
<!-- Node18&#45;&gt;Node13 -->
<g id="edge25" class="edge">
<title>Node18&#45;&gt;Node13</title>
<path fill="none" stroke="#63b8ff" d="M574.77,-360.5C597.51,-350.66 624.84,-338.82 645.94,-329.69"/>
<polygon fill="#63b8ff" stroke="#63b8ff" points="573.47,-357.68 565.69,-364.86 576.25,-364.1 573.47,-357.68"/>
</g>
<!-- Node18&#45;&gt;Node15 -->
<g id="edge24" class="edge">
<title>Node18&#45;&gt;Node15</title>
<path fill="none" stroke="#63b8ff" d="M513.32,-356.31C483.84,-317.37 425.24,-239.97 400.89,-207.8"/>
<polygon fill="#63b8ff" stroke="#63b8ff" points="510.98,-358.02 519.81,-363.89 516.57,-353.8 510.98,-358.02"/>
</g>
<!-- Node19&#45;&gt;Node5 -->
<g id="edge41" class="edge">
<title>Node19&#45;&gt;Node5</title>
<path fill="none" stroke="#63b8ff" d="M633.5,-487.2C628.59,-456.64 617.48,-404.46 594.88,-365.25 563.24,-310.38 520.95,-320.91 495.88,-262.75 477.67,-220.51 484.56,-163.28 488.2,-141.39"/>
<polygon fill="#63b8ff" stroke="#63b8ff" points="630.15,-487.41 635.09,-496.78 637.07,-486.37 630.15,-487.41"/>
</g>
<!-- Node19&#45;&gt;Node7 -->
<g id="edge40" class="edge">
<title>Node19&#45;&gt;Node7</title>
<path fill="none" stroke="#63b8ff" d="M704.06,-498.34C762.83,-481.56 838.88,-447.15 838.88,-381.5 838.88,-381.5 838.88,-381.5 838.88,-252.12 838.88,-174.32 754.87,-108.91 721.4,-85.93"/>
<polygon fill="#63b8ff" stroke="#63b8ff" points="703.4,-495.17 694.68,-501.18 705.25,-501.92 703.4,-495.17"/>
</g>
<!-- Node19&#45;&gt;Node12 -->
<g id="edge35" class="edge">
<title>Node19&#45;&gt;Node12</title>
<path fill="none" stroke="#63b8ff" d="M576.28,-494.74C541.88,-484.65 499.34,-472.18 466.86,-462.65"/>
<polygon fill="#63b8ff" stroke="#63b8ff" points="575.1,-498.33 585.68,-497.78 577.07,-491.61 575.1,-498.33"/>
</g>
<!-- Node19&#45;&gt;Node13 -->
<g id="edge36" class="edge">
<title>Node19&#45;&gt;Node13</title>
<path fill="none" stroke="#63b8ff" d="M653.36,-488.76C658.19,-480.69 662.96,-471.39 665.88,-462.25 680.8,-415.53 681.25,-356.56 680.51,-329.62"/>
<polygon fill="#63b8ff" stroke="#63b8ff" points="649.96,-486.58 647.56,-496.9 655.87,-490.33 649.96,-486.58"/>
</g>
<!-- Node19&#45;&gt;Node14 -->
<g id="edge39" class="edge">
<title>Node19&#45;&gt;Node14</title>
<path fill="none" stroke="#63b8ff" d="M638.69,-487.23C640.07,-457.43 640.02,-406.69 627.88,-365.25 615.76,-323.91 586.13,-281.07 572.7,-263"/>
<polygon fill="#63b8ff" stroke="#63b8ff" points="635.15,-486.74 638.09,-496.92 642.14,-487.13 635.15,-486.74"/>
</g>
<!-- Node19&#45;&gt;Node16 -->
<g id="edge38" class="edge">
<title>Node19&#45;&gt;Node16</title>
<path fill="none" stroke="#63b8ff" d="M676.61,-492.43C713.54,-470.63 762.88,-432.05 762.88,-381.5 762.88,-381.5 762.88,-381.5 762.88,-313 762.88,-262.57 709.15,-226.65 672.43,-207.98"/>
<polygon fill="#63b8ff" stroke="#63b8ff" points="675.02,-489.88 668.06,-497.87 678.48,-495.96 675.02,-489.88"/>
</g>
<!-- Node19&#45;&gt;Node18 -->
<g id="edge37" class="edge">
<title>Node19&#45;&gt;Node18</title>
<path fill="none" stroke="#63b8ff" d="M618.3,-489.55C596.51,-462.61 561.02,-418.75 542.68,-396.08"/>
<polygon fill="#63b8ff" stroke="#63b8ff" points="616.11,-491.41 625.13,-496.98 621.56,-487 616.11,-491.41"/>
</g>
</g>
</svg>
