<?xml version="1.0" encoding="UTF-8" standalone="no"?>
<!DOCTYPE svg PUBLIC "-//W3C//DTD SVG 1.1//EN"
 "http://www.w3.org/Graphics/SVG/1.1/DTD/svg11.dtd">
<!-- Generated by graphviz version 8.0.5 (20230430.1635)
 -->
<!-- Title: include/cppgc/internal/base&#45;page&#45;handle.h Pages: 1 -->
<svg width="443pt" height="603pt"
 viewBox="0.00 0.00 443.00 603.25" xmlns="http://www.w3.org/2000/svg" xmlns:xlink="http://www.w3.org/1999/xlink">
<g id="graph0" class="graph" transform="scale(1 1) rotate(0) translate(4 599.25)">
<title>include/cppgc/internal/base&#45;page&#45;handle.h</title>
<!-- Node1 -->
<g id="node1" class="node">
<title>Node1</title>
<g id="a_node1"><a xlink:title=" ">
<polygon fill="#999999" stroke="#666666" points="371.25,-595.25 260.75,-595.25 260.75,-564.75 371.25,-564.75 371.25,-595.25"/>
<text text-anchor="start" x="268.75" y="-581.75" font-family="Helvetica,sans-Serif" font-size="10.00">include/cppgc/internal</text>
<text text-anchor="middle" x="316" y="-570.5" font-family="Helvetica,sans-Serif" font-size="10.00">/base&#45;page&#45;handle.h</text>
</a>
</g>
</g>
<!-- Node2 -->
<g id="node2" class="node">
<title>Node2</title>
<g id="a_node2"><a xlink:href="caged-heap_8h.html" target="_top" xlink:title=" ">
<polygon fill="white" stroke="#666666" points="327.25,-528.75 216.75,-528.75 216.75,-498.25 327.25,-498.25 327.25,-528.75"/>
<text text-anchor="start" x="224.75" y="-515.25" font-family="Helvetica,sans-Serif" font-size="10.00">include/cppgc/internal</text>
<text text-anchor="middle" x="272" y="-504" font-family="Helvetica,sans-Serif" font-size="10.00">/caged&#45;heap.h</text>
</a>
</g>
</g>
<!-- Node1&#45;&gt;Node2 -->
<g id="edge1" class="edge">
<title>Node1&#45;&gt;Node2</title>
<path fill="none" stroke="#63b8ff" d="M299.85,-555.32C293.85,-546.53 287.23,-536.82 281.94,-529.08"/>
<polygon fill="#63b8ff" stroke="#63b8ff" points="297.49,-557.08 306.02,-563.36 303.27,-553.13 297.49,-557.08"/>
</g>
<!-- Node14 -->
<g id="node14" class="node">
<title>Node14</title>
<g id="a_node14"><a xlink:href="write-barrier_8h.html" target="_top" xlink:title=" ">
<polygon fill="white" stroke="#666666" points="390.25,-395.75 279.75,-395.75 279.75,-365.25 390.25,-365.25 390.25,-395.75"/>
<text text-anchor="start" x="287.75" y="-382.25" font-family="Helvetica,sans-Serif" font-size="10.00">include/cppgc/internal</text>
<text text-anchor="middle" x="335" y="-371" font-family="Helvetica,sans-Serif" font-size="10.00">/write&#45;barrier.h</text>
</a>
</g>
</g>
<!-- Node1&#45;&gt;Node14 -->
<g id="edge23" class="edge">
<title>Node1&#45;&gt;Node14</title>
<path fill="none" stroke="#63b8ff" d="M327.37,-554.56C330.67,-546.5 333.94,-537.39 336,-528.75 346.03,-486.74 344.99,-474.84 342,-431.75 341.16,-419.62 339.19,-405.97 337.55,-395.96"/>
<polygon fill="#63b8ff" stroke="#63b8ff" points="323.86,-552.85 323.11,-563.41 330.29,-555.62 323.86,-552.85"/>
</g>
<!-- Node3 -->
<g id="node3" class="node">
<title>Node3</title>
<g id="a_node3"><a xlink:href="caged-heap-local-data_8h.html" target="_top" xlink:title=" ">
<polygon fill="white" stroke="#666666" points="332.88,-462.25 211.12,-462.25 211.12,-431.75 332.88,-431.75 332.88,-462.25"/>
<text text-anchor="start" x="219.12" y="-448.75" font-family="Helvetica,sans-Serif" font-size="10.00">include/cppgc/internal</text>
<text text-anchor="middle" x="272" y="-437.5" font-family="Helvetica,sans-Serif" font-size="10.00">/caged&#45;heap&#45;local&#45;data.h</text>
</a>
</g>
</g>
<!-- Node2&#45;&gt;Node3 -->
<g id="edge2" class="edge">
<title>Node2&#45;&gt;Node3</title>
<path fill="none" stroke="#63b8ff" d="M272,-487.13C272,-478.8 272,-469.83 272,-462.58"/>
<polygon fill="#63b8ff" stroke="#63b8ff" points="268.5,-486.86 272,-496.86 275.5,-486.86 268.5,-486.86"/>
</g>
<!-- Node4 -->
<g id="node4" class="node">
<title>Node4</title>
<g id="a_node4"><a xlink:href="member-storage_8h.html" target="_top" xlink:title=" ">
<polygon fill="white" stroke="#666666" points="193.25,-462.25 82.75,-462.25 82.75,-431.75 193.25,-431.75 193.25,-462.25"/>
<text text-anchor="start" x="90.75" y="-448.75" font-family="Helvetica,sans-Serif" font-size="10.00">include/cppgc/internal</text>
<text text-anchor="middle" x="138" y="-437.5" font-family="Helvetica,sans-Serif" font-size="10.00">/member&#45;storage.h</text>
</a>
</g>
</g>
<!-- Node2&#45;&gt;Node4 -->
<g id="edge3" class="edge">
<title>Node2&#45;&gt;Node4</title>
<path fill="none" stroke="#63b8ff" d="M231.94,-493.22C211.52,-483.39 187.11,-471.64 168.29,-462.58"/>
<polygon fill="#63b8ff" stroke="#63b8ff" points="230.06,-496.68 240.59,-497.86 233.1,-490.37 230.06,-496.68"/>
</g>
<!-- Node5 -->
<g id="node5" class="node">
<title>Node5</title>
<g id="a_node5"><a xlink:href="pointer-policies_8h.html" target="_top" xlink:title=" ">
<polygon fill="white" stroke="#666666" points="193.25,-329.25 82.75,-329.25 82.75,-298.75 193.25,-298.75 193.25,-329.25"/>
<text text-anchor="start" x="90.75" y="-315.75" font-family="Helvetica,sans-Serif" font-size="10.00">include/cppgc/internal</text>
<text text-anchor="middle" x="138" y="-304.5" font-family="Helvetica,sans-Serif" font-size="10.00">/pointer&#45;policies.h</text>
</a>
</g>
</g>
<!-- Node4&#45;&gt;Node5 -->
<g id="edge4" class="edge">
<title>Node4&#45;&gt;Node5</title>
<path fill="none" stroke="#63b8ff" d="M138,-420.54C138,-393.46 138,-351.56 138,-329.58"/>
<polygon fill="#63b8ff" stroke="#63b8ff" points="134.5,-420.48 138,-430.48 141.5,-420.48 134.5,-420.48"/>
</g>
<!-- Node7 -->
<g id="node7" class="node">
<title>Node7</title>
<g id="a_node7"><a xlink:href="member_8h.html" target="_top" xlink:title=" ">
<polygon fill="white" stroke="#666666" points="284.88,-262.75 163.12,-262.75 163.12,-243.5 284.88,-243.5 284.88,-262.75"/>
<text text-anchor="middle" x="224" y="-249.25" font-family="Helvetica,sans-Serif" font-size="10.00">include/cppgc/member.h</text>
</a>
</g>
</g>
<!-- Node4&#45;&gt;Node7 -->
<g id="edge21" class="edge">
<title>Node4&#45;&gt;Node7</title>
<path fill="none" stroke="#63b8ff" d="M153.13,-422.07C167.23,-398.99 188.11,-362.73 202,-329.25 211.58,-306.15 218.75,-277.45 222.03,-263.13"/>
<polygon fill="#63b8ff" stroke="#63b8ff" points="149.64,-420.06 147.36,-430.4 155.6,-423.74 149.64,-420.06"/>
</g>
<!-- Node11 -->
<g id="node11" class="node">
<title>Node11</title>
<g id="a_node11"><a xlink:href="visitor_8h.html" target="_top" xlink:title=" ">
<polygon fill="white" stroke="#666666" points="233.38,-141 120.62,-141 120.62,-121.75 233.38,-121.75 233.38,-141"/>
<text text-anchor="middle" x="177" y="-127.5" font-family="Helvetica,sans-Serif" font-size="10.00">include/cppgc/visitor.h</text>
</a>
</g>
</g>
<!-- Node4&#45;&gt;Node11 -->
<g id="edge22" class="edge">
<title>Node4&#45;&gt;Node11</title>
<path fill="none" stroke="#63b8ff" d="M112.92,-423.9C88.49,-399.8 55,-358.78 55,-315 55,-315 55,-315 55,-252.12 55,-196.33 120.8,-157.9 155.75,-141.42"/>
<polygon fill="#63b8ff" stroke="#63b8ff" points="110.15,-426.04 119.8,-430.4 114.98,-420.97 110.15,-426.04"/>
</g>
<!-- Node4&#45;&gt;Node14 -->
<g id="edge18" class="edge">
<title>Node4&#45;&gt;Node14</title>
<path fill="none" stroke="#63b8ff" d="M192.81,-428.06C223.48,-418.01 261.24,-405.65 290.13,-396.19"/>
<polygon fill="#63b8ff" stroke="#63b8ff" points="192.12,-424.93 183.7,-431.36 194.3,-431.58 192.12,-424.93"/>
</g>
<!-- Node6 -->
<g id="node6" class="node">
<title>Node6</title>
<g id="a_node6"><a xlink:href="cross-thread-persistent_8h.html" target="_top" xlink:title=" ">
<polygon fill="white" stroke="#666666" points="144.5,-30.5 41.5,-30.5 41.5,0 144.5,0 144.5,-30.5"/>
<text text-anchor="start" x="49.5" y="-17" font-family="Helvetica,sans-Serif" font-size="10.00">include/cppgc/cross</text>
<text text-anchor="middle" x="93" y="-5.75" font-family="Helvetica,sans-Serif" font-size="10.00">&#45;thread&#45;persistent.h</text>
</a>
</g>
</g>
<!-- Node5&#45;&gt;Node6 -->
<g id="edge5" class="edge">
<title>Node5&#45;&gt;Node6</title>
<path fill="none" stroke="#63b8ff" d="M88.62,-293.85C49.02,-274.89 0,-241.65 0,-193.25 0,-193.25 0,-193.25 0,-130.38 0,-100.76 1.51,-90.4 19,-66.5 30,-51.46 46.95,-39.48 61.85,-30.99"/>
<polygon fill="#63b8ff" stroke="#63b8ff" points="86.91,-297.38 97.45,-298.37 89.83,-291.01 86.91,-297.38"/>
</g>
<!-- Node5&#45;&gt;Node7 -->
<g id="edge6" class="edge">
<title>Node5&#45;&gt;Node7</title>
<path fill="none" stroke="#63b8ff" d="M167.99,-292.47C182.58,-282.48 199.38,-270.98 210.74,-263.2"/>
<polygon fill="#63b8ff" stroke="#63b8ff" points="166.53,-289.91 160.26,-298.45 170.49,-295.69 166.53,-289.91"/>
</g>
<!-- Node5&#45;&gt;Node11 -->
<g id="edge17" class="edge">
<title>Node5&#45;&gt;Node11</title>
<path fill="none" stroke="#63b8ff" d="M143.43,-287.86C152.25,-247 169.29,-168.09 175.04,-141.43"/>
<polygon fill="#63b8ff" stroke="#63b8ff" points="139.82,-287.01 141.13,-297.52 146.66,-288.49 139.82,-287.01"/>
</g>
<!-- Node12 -->
<g id="node12" class="node">
<title>Node12</title>
<g id="a_node12"><a xlink:href="persistent_8h.html" target="_top" xlink:title=" ">
<polygon fill="white" stroke="#666666" points="157.62,-85.75 28.38,-85.75 28.38,-66.5 157.62,-66.5 157.62,-85.75"/>
<text text-anchor="middle" x="93" y="-72.25" font-family="Helvetica,sans-Serif" font-size="10.00">include/cppgc/persistent.h</text>
</a>
</g>
</g>
<!-- Node5&#45;&gt;Node12 -->
<g id="edge16" class="edge">
<title>Node5&#45;&gt;Node12</title>
<path fill="none" stroke="#63b8ff" d="M133.23,-288.02C123.34,-236.18 100.98,-118.96 94.68,-85.93"/>
<polygon fill="#63b8ff" stroke="#63b8ff" points="129.94,-288.43 135.25,-297.6 136.82,-287.12 129.94,-288.43"/>
</g>
<!-- Node8 -->
<g id="node8" class="node">
<title>Node8</title>
<g id="a_node8"><a xlink:href="heap-consistency_8h.html" target="_top" xlink:title=" ">
<polygon fill="white" stroke="#666666" points="435,-207.5 335,-207.5 335,-177 435,-177 435,-207.5"/>
<text text-anchor="start" x="343" y="-194" font-family="Helvetica,sans-Serif" font-size="10.00">include/cppgc/heap</text>
<text text-anchor="middle" x="385" y="-182.75" font-family="Helvetica,sans-Serif" font-size="10.00">&#45;consistency.h</text>
</a>
</g>
</g>
<!-- Node7&#45;&gt;Node8 -->
<g id="edge7" class="edge">
<title>Node7&#45;&gt;Node8</title>
<path fill="none" stroke="#63b8ff" d="M259.04,-239.31C284.3,-230.07 318.45,-217.59 344.82,-207.94"/>
<polygon fill="#63b8ff" stroke="#63b8ff" points="257.99,-236.33 249.8,-243.05 260.4,-242.91 257.99,-236.33"/>
</g>
<!-- Node9 -->
<g id="node9" class="node">
<title>Node9</title>
<g id="a_node9"><a xlink:href="liveness-broker_8h.html" target="_top" xlink:title=" ">
<polygon fill="white" stroke="#666666" points="316.5,-207.5 201.5,-207.5 201.5,-177 316.5,-177 316.5,-207.5"/>
<text text-anchor="start" x="209.5" y="-194" font-family="Helvetica,sans-Serif" font-size="10.00">include/cppgc/liveness</text>
<text text-anchor="middle" x="259" y="-182.75" font-family="Helvetica,sans-Serif" font-size="10.00">&#45;broker.h</text>
</a>
</g>
</g>
<!-- Node7&#45;&gt;Node9 -->
<g id="edge8" class="edge">
<title>Node7&#45;&gt;Node9</title>
<path fill="none" stroke="#63b8ff" d="M234.85,-233.88C239.84,-225.48 245.67,-215.66 250.36,-207.78"/>
<polygon fill="#63b8ff" stroke="#63b8ff" points="231.42,-231.8 229.32,-242.18 237.43,-235.38 231.42,-231.8"/>
</g>
<!-- Node7&#45;&gt;Node11 -->
<g id="edge15" class="edge">
<title>Node7&#45;&gt;Node11</title>
<path fill="none" stroke="#63b8ff" d="M209.07,-234.97C202.92,-227.08 196.26,-217.31 192,-207.5 182.15,-184.81 178.69,-155.43 177.54,-141.06"/>
<polygon fill="#63b8ff" stroke="#63b8ff" points="206.83,-236.75 215.88,-242.26 212.24,-232.31 206.83,-236.75"/>
</g>
<!-- Node10 -->
<g id="node10" class="node">
<title>Node10</title>
<g id="a_node10"><a xlink:href="prefinalizer_8h.html" target="_top" xlink:title=" ">
<polygon fill="white" stroke="#666666" points="384.12,-141 251.88,-141 251.88,-121.75 384.12,-121.75 384.12,-141"/>
<text text-anchor="middle" x="318" y="-127.5" font-family="Helvetica,sans-Serif" font-size="10.00">include/cppgc/prefinalizer.h</text>
</a>
</g>
</g>
<!-- Node9&#45;&gt;Node10 -->
<g id="edge9" class="edge">
<title>Node9&#45;&gt;Node10</title>
<path fill="none" stroke="#63b8ff" d="M281.29,-169.01C290.88,-159.44 301.55,-148.79 308.9,-141.45"/>
<polygon fill="#63b8ff" stroke="#63b8ff" points="279.19,-166.16 274.58,-175.7 284.14,-171.11 279.19,-166.16"/>
</g>
<!-- Node9&#45;&gt;Node11 -->
<g id="edge10" class="edge">
<title>Node9&#45;&gt;Node11</title>
<path fill="none" stroke="#63b8ff" d="M230.01,-170.44C216.19,-160.51 200.37,-149.16 189.64,-141.45"/>
<polygon fill="#63b8ff" stroke="#63b8ff" points="227.57,-173.71 237.73,-176.7 231.65,-168.02 227.57,-173.71"/>
</g>
<!-- Node11&#45;&gt;Node6 -->
<g id="edge11" class="edge">
<title>Node11&#45;&gt;Node6</title>
<path fill="none" stroke="#63b8ff" d="M177.87,-110.46C177.54,-97.08 175.28,-79.57 167,-66.5 157.19,-51.02 140.7,-39.14 125.78,-30.82"/>
<polygon fill="#63b8ff" stroke="#63b8ff" points="174.36,-110.3 177.74,-120.34 181.36,-110.38 174.36,-110.3"/>
</g>
<!-- Node11&#45;&gt;Node12 -->
<g id="edge12" class="edge">
<title>Node11&#45;&gt;Node12</title>
<path fill="none" stroke="#63b8ff" d="M153.65,-115.57C138.79,-106.15 120.01,-94.25 107.32,-86.2"/>
<polygon fill="#63b8ff" stroke="#63b8ff" points="151.43,-118.94 161.75,-121.34 155.18,-113.03 151.43,-118.94"/>
</g>
<!-- Node13 -->
<g id="node13" class="node">
<title>Node13</title>
<g id="a_node13"><a xlink:href="v8-cppgc_8h.html" target="_top" xlink:title=" ">
<polygon fill="white" stroke="#666666" points="311.5,-85.75 214.5,-85.75 214.5,-66.5 311.5,-66.5 311.5,-85.75"/>
<text text-anchor="middle" x="263" y="-72.25" font-family="Helvetica,sans-Serif" font-size="10.00">include/v8&#45;cppgc.h</text>
</a>
</g>
</g>
<!-- Node11&#45;&gt;Node13 -->
<g id="edge14" class="edge">
<title>Node11&#45;&gt;Node13</title>
<path fill="none" stroke="#63b8ff" d="M200.91,-115.57C216.12,-106.15 235.34,-94.25 248.34,-86.2"/>
<polygon fill="#63b8ff" stroke="#63b8ff" points="199.25,-113.1 192.59,-121.34 202.93,-119.05 199.25,-113.1"/>
</g>
<!-- Node12&#45;&gt;Node6 -->
<g id="edge13" class="edge">
<title>Node12&#45;&gt;Node6</title>
<path fill="none" stroke="#63b8ff" d="M93,-55.2C93,-47.2 93,-38.15 93,-30.78"/>
<polygon fill="#63b8ff" stroke="#63b8ff" points="89.5,-55.18 93,-65.18 96.5,-55.18 89.5,-55.18"/>
</g>
<!-- Node14&#45;&gt;Node5 -->
<g id="edge20" class="edge">
<title>Node14&#45;&gt;Node5</title>
<path fill="none" stroke="#63b8ff" d="M280.19,-361.56C249.52,-351.51 211.76,-339.15 182.87,-329.69"/>
<polygon fill="#63b8ff" stroke="#63b8ff" points="278.7,-365.08 289.3,-364.86 280.88,-358.43 278.7,-365.08"/>
</g>
<!-- Node14&#45;&gt;Node8 -->
<g id="edge19" class="edge">
<title>Node14&#45;&gt;Node8</title>
<path fill="none" stroke="#63b8ff" d="M341.76,-354.3C352.38,-314.77 372.6,-239.42 381.09,-207.8"/>
<polygon fill="#63b8ff" stroke="#63b8ff" points="338.14,-353.32 338.92,-363.89 344.9,-355.13 338.14,-353.32"/>
</g>
</g>
</svg>
