<?xml version="1.0" encoding="UTF-8" standalone="no"?>
<!DOCTYPE svg PUBLIC "-//W3C//DTD SVG 1.1//EN"
 "http://www.w3.org/Graphics/SVG/1.1/DTD/svg11.dtd">
<!-- Generated by graphviz version 8.0.5 (20230430.1635)
 -->
<!-- Title: include/cppgc/internal/caged&#45;heap.h Pages: 1 -->
<svg width="413pt" height="537pt"
 viewBox="0.00 0.00 412.93 536.75" xmlns="http://www.w3.org/2000/svg" xmlns:xlink="http://www.w3.org/1999/xlink">
<g id="graph0" class="graph" transform="scale(1 1) rotate(0) translate(4 532.75)">
<title>include/cppgc/internal/caged&#45;heap.h</title>
<!-- Node1 -->
<g id="node1" class="node">
<title>Node1</title>
<g id="a_node1"><a xlink:title=" ">
<polygon fill="#999999" stroke="#666666" points="192.18,-528.75 81.68,-528.75 81.68,-498.25 192.18,-498.25 192.18,-528.75"/>
<text text-anchor="start" x="89.68" y="-515.25" font-family="Helvetica,sans-Serif" font-size="10.00">include/cppgc/internal</text>
<text text-anchor="middle" x="136.93" y="-504" font-family="Helvetica,sans-Serif" font-size="10.00">/caged&#45;heap.h</text>
</a>
</g>
</g>
<!-- Node2 -->
<g id="node2" class="node">
<title>Node2</title>
<g id="a_node2"><a xlink:href="caged-heap-local-data_8h.html" target="_top" xlink:title=" ">
<polygon fill="white" stroke="#666666" points="130.8,-462.25 9.05,-462.25 9.05,-431.75 130.8,-431.75 130.8,-462.25"/>
<text text-anchor="start" x="17.05" y="-448.75" font-family="Helvetica,sans-Serif" font-size="10.00">include/cppgc/internal</text>
<text text-anchor="middle" x="69.93" y="-437.5" font-family="Helvetica,sans-Serif" font-size="10.00">/caged&#45;heap&#45;local&#45;data.h</text>
</a>
</g>
</g>
<!-- Node1&#45;&gt;Node2 -->
<g id="edge1" class="edge">
<title>Node1&#45;&gt;Node2</title>
<path fill="none" stroke="#63b8ff" d="M114.06,-490.49C104.49,-481.28 93.62,-470.81 85.07,-462.58"/>
<polygon fill="#63b8ff" stroke="#63b8ff" points="111.09,-492.45 120.72,-496.86 115.95,-487.41 111.09,-492.45"/>
</g>
<!-- Node3 -->
<g id="node3" class="node">
<title>Node3</title>
<g id="a_node3"><a xlink:href="member-storage_8h.html" target="_top" xlink:title=" ">
<polygon fill="white" stroke="#666666" points="259.18,-462.25 148.68,-462.25 148.68,-431.75 259.18,-431.75 259.18,-462.25"/>
<text text-anchor="start" x="156.68" y="-448.75" font-family="Helvetica,sans-Serif" font-size="10.00">include/cppgc/internal</text>
<text text-anchor="middle" x="203.93" y="-437.5" font-family="Helvetica,sans-Serif" font-size="10.00">/member&#45;storage.h</text>
</a>
</g>
</g>
<!-- Node1&#45;&gt;Node3 -->
<g id="edge2" class="edge">
<title>Node1&#45;&gt;Node3</title>
<path fill="none" stroke="#63b8ff" d="M159.79,-490.49C169.36,-481.28 180.23,-470.81 188.78,-462.58"/>
<polygon fill="#63b8ff" stroke="#63b8ff" points="157.91,-487.41 153.13,-496.86 162.76,-492.45 157.91,-487.41"/>
</g>
<!-- Node4 -->
<g id="node4" class="node">
<title>Node4</title>
<g id="a_node4"><a xlink:href="pointer-policies_8h.html" target="_top" xlink:title=" ">
<polygon fill="white" stroke="#666666" points="384.18,-329.25 273.68,-329.25 273.68,-298.75 384.18,-298.75 384.18,-329.25"/>
<text text-anchor="start" x="281.68" y="-315.75" font-family="Helvetica,sans-Serif" font-size="10.00">include/cppgc/internal</text>
<text text-anchor="middle" x="328.93" y="-304.5" font-family="Helvetica,sans-Serif" font-size="10.00">/pointer&#45;policies.h</text>
</a>
</g>
</g>
<!-- Node3&#45;&gt;Node4 -->
<g id="edge3" class="edge">
<title>Node3&#45;&gt;Node4</title>
<path fill="none" stroke="#63b8ff" d="M267.44,-427.01C283.3,-419.54 298.9,-409.39 309.93,-395.75 325.4,-376.59 328.68,-347 329.15,-329.46"/>
<polygon fill="#63b8ff" stroke="#63b8ff" points="266.34,-424.11 258.58,-431.32 269.14,-430.52 266.34,-424.11"/>
</g>
<!-- Node6 -->
<g id="node6" class="node">
<title>Node6</title>
<g id="a_node6"><a xlink:href="member_8h.html" target="_top" xlink:title=" ">
<polygon fill="white" stroke="#666666" points="228.8,-262.75 107.05,-262.75 107.05,-243.5 228.8,-243.5 228.8,-262.75"/>
<text text-anchor="middle" x="167.93" y="-249.25" font-family="Helvetica,sans-Serif" font-size="10.00">include/cppgc/member.h</text>
</a>
</g>
</g>
<!-- Node3&#45;&gt;Node6 -->
<g id="edge20" class="edge">
<title>Node3&#45;&gt;Node6</title>
<path fill="none" stroke="#63b8ff" d="M191.43,-421.65C187.8,-413.6 184.2,-404.46 181.93,-395.75 169.18,-346.98 167.86,-286.01 167.85,-263.25"/>
<polygon fill="#63b8ff" stroke="#63b8ff" points="188.65,-422.96 196.11,-430.49 194.98,-419.95 188.65,-422.96"/>
</g>
<!-- Node10 -->
<g id="node10" class="node">
<title>Node10</title>
<g id="a_node10"><a xlink:href="visitor_8h.html" target="_top" xlink:title=" ">
<polygon fill="white" stroke="#666666" points="188.3,-141 75.55,-141 75.55,-121.75 188.3,-121.75 188.3,-141"/>
<text text-anchor="middle" x="131.93" y="-127.5" font-family="Helvetica,sans-Serif" font-size="10.00">include/cppgc/visitor.h</text>
</a>
</g>
</g>
<!-- Node3&#45;&gt;Node10 -->
<g id="edge21" class="edge">
<title>Node3&#45;&gt;Node10</title>
<path fill="none" stroke="#63b8ff" d="M158.11,-426.99C98.24,-400.67 0.93,-352.17 0.93,-315 0.93,-315 0.93,-315 0.93,-252.12 0.93,-217.68 -2.78,-202.9 19.93,-177 35.93,-158.74 60.43,-147.87 82.43,-141.43"/>
<polygon fill="#63b8ff" stroke="#63b8ff" points="156.53,-430.55 167.1,-431.33 159.32,-424.13 156.53,-430.55"/>
</g>
<!-- Node13 -->
<g id="node13" class="node">
<title>Node13</title>
<g id="a_node13"><a xlink:href="write-barrier_8h.html" target="_top" xlink:title=" ">
<polygon fill="white" stroke="#666666" points="301.18,-395.75 190.68,-395.75 190.68,-365.25 301.18,-365.25 301.18,-395.75"/>
<text text-anchor="start" x="198.68" y="-382.25" font-family="Helvetica,sans-Serif" font-size="10.00">include/cppgc/internal</text>
<text text-anchor="middle" x="245.93" y="-371" font-family="Helvetica,sans-Serif" font-size="10.00">/write&#45;barrier.h</text>
</a>
</g>
</g>
<!-- Node3&#45;&gt;Node13 -->
<g id="edge17" class="edge">
<title>Node3&#45;&gt;Node13</title>
<path fill="none" stroke="#63b8ff" d="M219.34,-422.32C225.07,-413.53 231.39,-403.82 236.43,-396.08"/>
<polygon fill="#63b8ff" stroke="#63b8ff" points="215.98,-420.07 213.46,-430.36 221.85,-423.89 215.98,-420.07"/>
</g>
<!-- Node5 -->
<g id="node5" class="node">
<title>Node5</title>
<g id="a_node5"><a xlink:href="cross-thread-persistent_8h.html" target="_top" xlink:title=" ">
<polygon fill="white" stroke="#666666" points="361.43,-30.5 258.43,-30.5 258.43,0 361.43,0 361.43,-30.5"/>
<text text-anchor="start" x="266.43" y="-17" font-family="Helvetica,sans-Serif" font-size="10.00">include/cppgc/cross</text>
<text text-anchor="middle" x="309.93" y="-5.75" font-family="Helvetica,sans-Serif" font-size="10.00">&#45;thread&#45;persistent.h</text>
</a>
</g>
</g>
<!-- Node4&#45;&gt;Node5 -->
<g id="edge4" class="edge">
<title>Node4&#45;&gt;Node5</title>
<path fill="none" stroke="#63b8ff" d="M353.96,-290.74C376.11,-268.49 404.93,-232.07 404.93,-193.25 404.93,-193.25 404.93,-193.25 404.93,-130.38 404.93,-100.49 401.91,-90.36 383.93,-66.5 372.61,-51.5 355.46,-39.45 340.52,-30.92"/>
<polygon fill="#63b8ff" stroke="#63b8ff" points="351.92,-287.81 347.17,-297.28 356.79,-292.84 351.92,-287.81"/>
</g>
<!-- Node4&#45;&gt;Node6 -->
<g id="edge5" class="edge">
<title>Node4&#45;&gt;Node6</title>
<path fill="none" stroke="#63b8ff" d="M278.48,-294.55C249.89,-284.1 215.39,-271.48 192.62,-263.15"/>
<polygon fill="#63b8ff" stroke="#63b8ff" points="277.12,-298.15 287.71,-298.3 279.52,-291.57 277.12,-298.15"/>
</g>
<!-- Node4&#45;&gt;Node10 -->
<g id="edge16" class="edge">
<title>Node4&#45;&gt;Node10</title>
<path fill="none" stroke="#63b8ff" d="M333.08,-287.68C336.5,-257.45 337.07,-207.22 309.93,-177 293.8,-159.05 234.42,-146.72 188.63,-139.64"/>
<polygon fill="#63b8ff" stroke="#63b8ff" points="329.48,-287.19 331.63,-297.56 336.42,-288.11 329.48,-287.19"/>
</g>
<!-- Node11 -->
<g id="node11" class="node">
<title>Node11</title>
<g id="a_node11"><a xlink:href="persistent_8h.html" target="_top" xlink:title=" ">
<polygon fill="white" stroke="#666666" points="374.55,-85.75 245.3,-85.75 245.3,-66.5 374.55,-66.5 374.55,-85.75"/>
<text text-anchor="middle" x="309.93" y="-72.25" font-family="Helvetica,sans-Serif" font-size="10.00">include/cppgc/persistent.h</text>
</a>
</g>
</g>
<!-- Node4&#45;&gt;Node11 -->
<g id="edge15" class="edge">
<title>Node4&#45;&gt;Node11</title>
<path fill="none" stroke="#63b8ff" d="M340.28,-288.33C343.4,-280.34 346.36,-271.33 347.93,-262.75 359.19,-201.1 369.57,-180.56 347.93,-121.75 342.58,-107.23 330.19,-94.22 321,-86.05"/>
<polygon fill="#63b8ff" stroke="#63b8ff" points="336.67,-286.88 336.03,-297.45 343.13,-289.59 336.67,-286.88"/>
</g>
<!-- Node7 -->
<g id="node7" class="node">
<title>Node7</title>
<g id="a_node7"><a xlink:href="heap-consistency_8h.html" target="_top" xlink:title=" ">
<polygon fill="white" stroke="#666666" points="128.93,-207.5 28.93,-207.5 28.93,-177 128.93,-177 128.93,-207.5"/>
<text text-anchor="start" x="36.93" y="-194" font-family="Helvetica,sans-Serif" font-size="10.00">include/cppgc/heap</text>
<text text-anchor="middle" x="78.93" y="-182.75" font-family="Helvetica,sans-Serif" font-size="10.00">&#45;consistency.h</text>
</a>
</g>
</g>
<!-- Node6&#45;&gt;Node7 -->
<g id="edge6" class="edge">
<title>Node6&#45;&gt;Node7</title>
<path fill="none" stroke="#63b8ff" d="M145.24,-237.12C131.62,-228.11 114.38,-216.7 100.89,-207.78"/>
<polygon fill="#63b8ff" stroke="#63b8ff" points="143.14,-240.58 153.41,-243.18 147,-234.75 143.14,-240.58"/>
</g>
<!-- Node8 -->
<g id="node8" class="node">
<title>Node8</title>
<g id="a_node8"><a xlink:href="liveness-broker_8h.html" target="_top" xlink:title=" ">
<polygon fill="white" stroke="#666666" points="300.43,-207.5 185.43,-207.5 185.43,-177 300.43,-177 300.43,-207.5"/>
<text text-anchor="start" x="193.43" y="-194" font-family="Helvetica,sans-Serif" font-size="10.00">include/cppgc/liveness</text>
<text text-anchor="middle" x="242.93" y="-182.75" font-family="Helvetica,sans-Serif" font-size="10.00">&#45;broker.h</text>
</a>
</g>
</g>
<!-- Node6&#45;&gt;Node8 -->
<g id="edge7" class="edge">
<title>Node6&#45;&gt;Node8</title>
<path fill="none" stroke="#63b8ff" d="M187.72,-236.59C199.08,-227.67 213.27,-216.53 224.41,-207.78"/>
<polygon fill="#63b8ff" stroke="#63b8ff" points="186.02,-234.26 180.32,-243.18 190.34,-239.76 186.02,-234.26"/>
</g>
<!-- Node6&#45;&gt;Node10 -->
<g id="edge14" class="edge">
<title>Node6&#45;&gt;Node10</title>
<path fill="none" stroke="#63b8ff" d="M162.05,-232.6C154.17,-206.37 140.48,-160.82 134.66,-141.48"/>
<polygon fill="#63b8ff" stroke="#63b8ff" points="158.99,-233.56 165.22,-242.12 165.69,-231.54 158.99,-233.56"/>
</g>
<!-- Node9 -->
<g id="node9" class="node">
<title>Node9</title>
<g id="a_node9"><a xlink:href="prefinalizer_8h.html" target="_top" xlink:title=" ">
<polygon fill="white" stroke="#666666" points="339.05,-141 206.8,-141 206.8,-121.75 339.05,-121.75 339.05,-141"/>
<text text-anchor="middle" x="272.93" y="-127.5" font-family="Helvetica,sans-Serif" font-size="10.00">include/cppgc/prefinalizer.h</text>
</a>
</g>
</g>
<!-- Node8&#45;&gt;Node9 -->
<g id="edge8" class="edge">
<title>Node8&#45;&gt;Node9</title>
<path fill="none" stroke="#63b8ff" d="M255.29,-166.99C259.89,-157.97 264.82,-148.28 268.3,-141.45"/>
<polygon fill="#63b8ff" stroke="#63b8ff" points="251.76,-165.2 250.34,-175.7 258,-168.38 251.76,-165.2"/>
</g>
<!-- Node8&#45;&gt;Node10 -->
<g id="edge9" class="edge">
<title>Node8&#45;&gt;Node10</title>
<path fill="none" stroke="#63b8ff" d="M205.53,-171.41C186.36,-161.25 163.96,-149.37 148.95,-141.4"/>
<polygon fill="#63b8ff" stroke="#63b8ff" points="203.73,-174.95 214.2,-176.55 207.01,-168.77 203.73,-174.95"/>
</g>
<!-- Node10&#45;&gt;Node5 -->
<g id="edge10" class="edge">
<title>Node10&#45;&gt;Node5</title>
<path fill="none" stroke="#63b8ff" d="M155.11,-115.51C189.31,-93.58 252.91,-52.8 286.98,-30.96"/>
<polygon fill="#63b8ff" stroke="#63b8ff" points="153.42,-113.08 146.89,-121.42 157.2,-118.97 153.42,-113.08"/>
</g>
<!-- Node10&#45;&gt;Node11 -->
<g id="edge11" class="edge">
<title>Node10&#45;&gt;Node11</title>
<path fill="none" stroke="#63b8ff" d="M172.65,-118.19C205.21,-108.45 250.12,-95.02 279.58,-86.2"/>
<polygon fill="#63b8ff" stroke="#63b8ff" points="171.7,-115.12 163.12,-121.34 173.7,-121.83 171.7,-115.12"/>
</g>
<!-- Node12 -->
<g id="node12" class="node">
<title>Node12</title>
<g id="a_node12"><a xlink:href="v8-cppgc_8h.html" target="_top" xlink:title=" ">
<polygon fill="white" stroke="#666666" points="180.43,-85.75 83.43,-85.75 83.43,-66.5 180.43,-66.5 180.43,-85.75"/>
<text text-anchor="middle" x="131.93" y="-72.25" font-family="Helvetica,sans-Serif" font-size="10.00">include/v8&#45;cppgc.h</text>
</a>
</g>
</g>
<!-- Node10&#45;&gt;Node12 -->
<g id="edge13" class="edge">
<title>Node10&#45;&gt;Node12</title>
<path fill="none" stroke="#63b8ff" d="M131.93,-110.71C131.93,-102.27 131.93,-92.83 131.93,-86.11"/>
<polygon fill="#63b8ff" stroke="#63b8ff" points="128.43,-110.58 131.93,-120.58 135.43,-110.58 128.43,-110.58"/>
</g>
<!-- Node11&#45;&gt;Node5 -->
<g id="edge12" class="edge">
<title>Node11&#45;&gt;Node5</title>
<path fill="none" stroke="#63b8ff" d="M309.93,-55.2C309.93,-47.2 309.93,-38.15 309.93,-30.78"/>
<polygon fill="#63b8ff" stroke="#63b8ff" points="306.43,-55.18 309.93,-65.18 313.43,-55.18 306.43,-55.18"/>
</g>
<!-- Node13&#45;&gt;Node4 -->
<g id="edge19" class="edge">
<title>Node13&#45;&gt;Node4</title>
<path fill="none" stroke="#63b8ff" d="M273.18,-358.32C285.3,-348.91 299.25,-338.06 310.17,-329.58"/>
<polygon fill="#63b8ff" stroke="#63b8ff" points="271.51,-355.96 265.76,-364.86 275.8,-361.49 271.51,-355.96"/>
</g>
<!-- Node13&#45;&gt;Node7 -->
<g id="edge18" class="edge">
<title>Node13&#45;&gt;Node7</title>
<path fill="none" stroke="#63b8ff" d="M208.92,-359.58C175.09,-339.49 126.17,-305.4 97.93,-262.75 86.81,-245.96 82.16,-222.8 80.24,-207.92"/>
<polygon fill="#63b8ff" stroke="#63b8ff" points="206.62,-362.87 217.03,-364.87 210.14,-356.82 206.62,-362.87"/>
</g>
</g>
</svg>
