<?xml version="1.0" encoding="UTF-8" standalone="no"?>
<!DOCTYPE svg PUBLIC "-//W3C//DTD SVG 1.1//EN"
 "http://www.w3.org/Graphics/SVG/1.1/DTD/svg11.dtd">
<!-- Generated by graphviz version 8.0.5 (20230430.1635)
 -->
<!-- Title: include/v8&#45;local&#45;handle.h Pages: 1 -->
<svg width="3047pt" height="902pt"
 viewBox="0.00 0.00 3046.62 902.00" xmlns="http://www.w3.org/2000/svg" xmlns:xlink="http://www.w3.org/1999/xlink">
<g id="graph0" class="graph" transform="scale(1 1) rotate(0) translate(4 898)">
<title>include/v8&#45;local&#45;handle.h</title>
<!-- Node1 -->
<g id="node1" class="node">
<title>Node1</title>
<g id="a_node1"><a xlink:title=" ">
<polygon fill="#999999" stroke="#666666" points="1308.25,-894 1185.75,-894 1185.75,-874.75 1308.25,-874.75 1308.25,-894"/>
<text text-anchor="middle" x="1247" y="-880.5" font-family="Helvetica,sans-Serif" font-size="10.00">include/v8&#45;local&#45;handle.h</text>
</a>
</g>
</g>
<!-- Node2 -->
<g id="node2" class="node">
<title>Node2</title>
<g id="a_node2"><a xlink:href="v8-array-buffer_8h.html" target="_top" xlink:title=" ">
<polygon fill="white" stroke="#666666" points="876.38,-578.38 757.62,-578.38 757.62,-559.12 876.38,-559.12 876.38,-578.38"/>
<text text-anchor="middle" x="817" y="-564.88" font-family="Helvetica,sans-Serif" font-size="10.00">include/v8&#45;array&#45;buffer.h</text>
</a>
</g>
</g>
<!-- Node1&#45;&gt;Node2 -->
<g id="edge1" class="edge">
<title>Node1&#45;&gt;Node2</title>
<path fill="none" stroke="#63b8ff" d="M1174.68,-878.02C1108.69,-871.88 1017.15,-859.84 988,-838.75 925.9,-793.83 948.54,-750.91 907,-686.5 879.67,-644.13 841.11,-597.83 824.78,-578.74"/>
<polygon fill="#63b8ff" stroke="#63b8ff" points="1174.18,-881.58 1184.45,-878.99 1174.8,-874.61 1174.18,-881.58"/>
</g>
<!-- Node3 -->
<g id="node3" class="node">
<title>Node3</title>
<g id="a_node3"><a xlink:href="v8-isolate_8h.html" target="_top" xlink:title=" ">
<polygon fill="white" stroke="#666666" points="1027.62,-274 928.38,-274 928.38,-254.75 1027.62,-254.75 1027.62,-274"/>
<text text-anchor="middle" x="978" y="-260.5" font-family="Helvetica,sans-Serif" font-size="10.00">include/v8&#45;isolate.h</text>
</a>
</g>
</g>
<!-- Node1&#45;&gt;Node3 -->
<g id="edge101" class="edge">
<title>Node1&#45;&gt;Node3</title>
<path fill="none" stroke="#63b8ff" d="M1174.73,-881.81C1048.28,-878.35 792.3,-867.87 708,-838.75 650.65,-818.94 594,-824.3 594,-763.62 594,-763.62 594,-763.62 594,-700.75 594,-697.68 799.58,-311.9 802,-310 838.09,-281.7 890.01,-271.15 928.11,-267.32"/>
<polygon fill="#63b8ff" stroke="#63b8ff" points="1174.36,-885.33 1184.45,-882.1 1174.55,-878.33 1174.36,-885.33"/>
</g>
<!-- Node6 -->
<g id="node6" class="node">
<title>Node6</title>
<g id="a_node6"><a xlink:href="v8_8h.html" target="_top" xlink:title=" ">
<polygon fill="white" stroke="#666666" points="1557.88,-19.25 1490.12,-19.25 1490.12,0 1557.88,0 1557.88,-19.25"/>
<text text-anchor="middle" x="1524" y="-5.75" font-family="Helvetica,sans-Serif" font-size="10.00">include/v8.h</text>
</a>
</g>
</g>
<!-- Node1&#45;&gt;Node6 -->
<g id="edge136" class="edge">
<title>Node1&#45;&gt;Node6</title>
<path fill="none" stroke="#63b8ff" d="M1174.64,-882.53C922.75,-879.34 96.99,-866.78 48,-838.75 13.61,-819.07 0,-803.25 0,-763.62 0,-763.62 0,-763.62 0,-136 0,-62.24 73.91,-74.94 145,-55.25 278.02,-18.4 1289.46,-11.73 1489.64,-10.77"/>
<polygon fill="#63b8ff" stroke="#63b8ff" points="1174.44,-886.04 1184.49,-882.66 1174.53,-879.04 1174.44,-886.04"/>
</g>
<!-- Node7 -->
<g id="node7" class="node">
<title>Node7</title>
<g id="a_node7"><a xlink:href="v8-inspector_8h.html" target="_top" xlink:title=" ">
<polygon fill="white" stroke="#666666" points="641.25,-213.12 530.75,-213.12 530.75,-193.88 641.25,-193.88 641.25,-213.12"/>
<text text-anchor="middle" x="586" y="-199.62" font-family="Helvetica,sans-Serif" font-size="10.00">include/v8&#45;inspector.h</text>
</a>
</g>
</g>
<!-- Node1&#45;&gt;Node7 -->
<g id="edge100" class="edge">
<title>Node1&#45;&gt;Node7</title>
<path fill="none" stroke="#63b8ff" d="M1174.49,-883.85C958.45,-884.76 329.08,-883.5 249,-838.75 213.77,-819.07 198,-803.98 198,-763.62 198,-763.62 198,-763.62 198,-634.25 198,-411.35 489.12,-252.16 567.02,-213.55"/>
<polygon fill="#63b8ff" stroke="#63b8ff" points="1174.4,-887.35 1184.38,-883.8 1174.37,-880.35 1174.4,-887.35"/>
</g>
<!-- Node9 -->
<g id="node9" class="node">
<title>Node9</title>
<g id="a_node9"><a xlink:href="v8-metrics_8h.html" target="_top" xlink:title=" ">
<polygon fill="white" stroke="#666666" points="900.5,-213.12 797.5,-213.12 797.5,-193.88 900.5,-193.88 900.5,-213.12"/>
<text text-anchor="middle" x="849" y="-199.62" font-family="Helvetica,sans-Serif" font-size="10.00">include/v8&#45;metrics.h</text>
</a>
</g>
</g>
<!-- Node1&#45;&gt;Node9 -->
<g id="edge105" class="edge">
<title>Node1&#45;&gt;Node9</title>
<path fill="none" stroke="#63b8ff" d="M1174.55,-881.67C1018.42,-877.5 660.33,-865.16 612,-838.75 575.46,-818.78 556,-805.27 556,-763.62 556,-763.62 556,-763.62 556,-700.75 556,-473.63 786.38,-259.11 838.57,-213.42"/>
<polygon fill="#63b8ff" stroke="#63b8ff" points="1174.35,-885.19 1184.44,-881.95 1174.54,-878.19 1174.35,-885.19"/>
</g>
<!-- Node10 -->
<g id="node10" class="node">
<title>Node10</title>
<g id="a_node10"><a xlink:href="v8-snapshot_8h.html" target="_top" xlink:title=" ">
<polygon fill="white" stroke="#666666" points="399.25,-213.12 288.75,-213.12 288.75,-193.88 399.25,-193.88 399.25,-213.12"/>
<text text-anchor="middle" x="344" y="-199.62" font-family="Helvetica,sans-Serif" font-size="10.00">include/v8&#45;snapshot.h</text>
</a>
</g>
</g>
<!-- Node1&#45;&gt;Node10 -->
<g id="edge122" class="edge">
<title>Node1&#45;&gt;Node10</title>
<path fill="none" stroke="#63b8ff" d="M1174.38,-882.11C945.01,-877.86 248.7,-863.03 207,-838.75 172.97,-818.93 160,-803.01 160,-763.62 160,-763.62 160,-763.62 160,-634.25 160,-587.08 311.77,-271.12 339.63,-213.51"/>
<polygon fill="#63b8ff" stroke="#63b8ff" points="1174.21,-885.62 1184.27,-882.31 1174.33,-878.62 1174.21,-885.62"/>
</g>
<!-- Node11 -->
<g id="node11" class="node">
<title>Node11</title>
<g id="a_node11"><a xlink:href="v8-context_8h.html" target="_top" xlink:title=" ">
<polygon fill="white" stroke="#666666" points="429.12,-146.62 326.88,-146.62 326.88,-127.38 429.12,-127.38 429.12,-146.62"/>
<text text-anchor="middle" x="378" y="-133.12" font-family="Helvetica,sans-Serif" font-size="10.00">include/v8&#45;context.h</text>
</a>
</g>
</g>
<!-- Node1&#45;&gt;Node11 -->
<g id="edge36" class="edge">
<title>Node1&#45;&gt;Node11</title>
<path fill="none" stroke="#63b8ff" d="M1174.55,-883.05C947.67,-881.67 260.43,-874.53 167,-838.75 118.02,-819.99 76,-816.07 76,-763.62 76,-763.62 76,-763.62 76,-506.88 76,-338.73 151.12,-296.25 280,-188.25 302.13,-169.71 332.25,-155.56 353.23,-147.07"/>
<polygon fill="#63b8ff" stroke="#63b8ff" points="1174.3,-886.56 1184.32,-883.11 1174.34,-879.56 1174.3,-886.56"/>
</g>
<!-- Node12 -->
<g id="node12" class="node">
<title>Node12</title>
<g id="a_node12"><a xlink:href="v8-proxy_8h.html" target="_top" xlink:title=" ">
<polygon fill="white" stroke="#666666" points="474.62,-80.12 381.38,-80.12 381.38,-60.88 474.62,-60.88 474.62,-80.12"/>
<text text-anchor="middle" x="428" y="-66.62" font-family="Helvetica,sans-Serif" font-size="10.00">include/v8&#45;proxy.h</text>
</a>
</g>
</g>
<!-- Node1&#45;&gt;Node12 -->
<g id="edge119" class="edge">
<title>Node1&#45;&gt;Node12</title>
<path fill="none" stroke="#63b8ff" d="M1174.48,-882.32C928.67,-878.52 139.71,-864.39 92,-838.75 55.78,-819.29 38,-804.74 38,-763.62 38,-763.62 38,-763.62 38,-506.88 38,-295.25 140.25,-236.6 318,-121.75 345.33,-104.09 379.89,-89.39 402.91,-80.55"/>
<polygon fill="#63b8ff" stroke="#63b8ff" points="1174.37,-885.84 1184.42,-882.49 1174.48,-878.84 1174.37,-885.84"/>
</g>
<!-- Node13 -->
<g id="node13" class="node">
<title>Node13</title>
<g id="a_node13"><a xlink:href="v8-typed-array_8h.html" target="_top" xlink:title=" ">
<polygon fill="white" stroke="#666666" points="534,-517.5 416,-517.5 416,-498.25 534,-498.25 534,-517.5"/>
<text text-anchor="middle" x="475" y="-504" font-family="Helvetica,sans-Serif" font-size="10.00">include/v8&#45;typed&#45;array.h</text>
</a>
</g>
</g>
<!-- Node1&#45;&gt;Node13 -->
<g id="edge131" class="edge">
<title>Node1&#45;&gt;Node13</title>
<path fill="none" stroke="#63b8ff" d="M1174.76,-883.58C989.02,-883.51 505.22,-879.38 446,-838.75 364.57,-782.88 380.22,-715.06 407,-620 418.9,-577.76 451.81,-535.73 467.06,-517.84"/>
<polygon fill="#63b8ff" stroke="#63b8ff" points="1174.5,-887.08 1184.5,-883.58 1174.5,-880.08 1174.5,-887.08"/>
</g>
<!-- Node14 -->
<g id="node14" class="node">
<title>Node14</title>
<g id="a_node14"><a xlink:href="v8-fast-api-calls_8h.html" target="_top" xlink:title=" ">
<polygon fill="white" stroke="#666666" points="435.75,-462.25 340.25,-462.25 340.25,-431.75 435.75,-431.75 435.75,-462.25"/>
<text text-anchor="start" x="348.25" y="-448.75" font-family="Helvetica,sans-Serif" font-size="10.00">include/v8&#45;fast&#45;api</text>
<text text-anchor="middle" x="388" y="-437.5" font-family="Helvetica,sans-Serif" font-size="10.00">&#45;calls.h</text>
</a>
</g>
</g>
<!-- Node1&#45;&gt;Node14 -->
<g id="edge96" class="edge">
<title>Node1&#45;&gt;Node14</title>
<path fill="none" stroke="#63b8ff" d="M1174.59,-882.81C998.83,-880.92 553.47,-872.8 409,-838.75 327.41,-819.52 236,-847.45 236,-763.62 236,-763.62 236,-763.62 236,-700.75 236,-596.81 331.58,-498.78 371.15,-462.65"/>
<polygon fill="#63b8ff" stroke="#63b8ff" points="1174.49,-886.32 1184.52,-882.93 1174.56,-879.32 1174.49,-886.32"/>
</g>
<!-- Node15 -->
<g id="node15" class="node">
<title>Node15</title>
<g id="a_node15"><a xlink:href="v8-callbacks_8h.html" target="_top" xlink:title=" ">
<polygon fill="white" stroke="#666666" points="1158,-517.5 1046,-517.5 1046,-498.25 1158,-498.25 1158,-517.5"/>
<text text-anchor="middle" x="1102" y="-504" font-family="Helvetica,sans-Serif" font-size="10.00">include/v8&#45;callbacks.h</text>
</a>
</g>
</g>
<!-- Node1&#45;&gt;Node15 -->
<g id="edge20" class="edge">
<title>Node1&#45;&gt;Node15</title>
<path fill="none" stroke="#63b8ff" d="M1204.08,-870.59C1187.06,-863.61 1168.59,-853.34 1156,-838.75 1133.1,-812.22 1132,-798.68 1132,-763.62 1132,-763.62 1132,-763.62 1132,-634.25 1132,-589.49 1113.69,-538.14 1105.68,-517.82"/>
<polygon fill="#63b8ff" stroke="#63b8ff" points="1202.28,-874.03 1212.87,-874.33 1204.78,-867.49 1202.28,-874.03"/>
</g>
<!-- Node16 -->
<g id="node16" class="node">
<title>Node16</title>
<g id="a_node16"><a xlink:href="v8-message_8h.html" target="_top" xlink:title=" ">
<polygon fill="white" stroke="#666666" points="1270.25,-456.62 1159.75,-456.62 1159.75,-437.38 1270.25,-437.38 1270.25,-456.62"/>
<text text-anchor="middle" x="1215" y="-443.12" font-family="Helvetica,sans-Serif" font-size="10.00">include/v8&#45;message.h</text>
</a>
</g>
</g>
<!-- Node1&#45;&gt;Node16 -->
<g id="edge104" class="edge">
<title>Node1&#45;&gt;Node16</title>
<path fill="none" stroke="#63b8ff" d="M1266.07,-867.23C1288.87,-846 1324,-806.36 1324,-763.62 1324,-763.62 1324,-763.62 1324,-700.75 1324,-597.53 1246.4,-488.56 1222.15,-457.02"/>
<polygon fill="#63b8ff" stroke="#63b8ff" points="1264.14,-864.15 1259.03,-873.43 1268.82,-869.36 1264.14,-864.15"/>
</g>
<!-- Node17 -->
<g id="node17" class="node">
<title>Node17</title>
<g id="a_node17"><a xlink:href="v8-function_8h.html" target="_top" xlink:title=" ">
<polygon fill="white" stroke="#666666" points="1695.62,-395.75 1590.38,-395.75 1590.38,-376.5 1695.62,-376.5 1695.62,-395.75"/>
<text text-anchor="middle" x="1643" y="-382.25" font-family="Helvetica,sans-Serif" font-size="10.00">include/v8&#45;function.h</text>
</a>
</g>
</g>
<!-- Node1&#45;&gt;Node17 -->
<g id="edge99" class="edge">
<title>Node1&#45;&gt;Node17</title>
<path fill="none" stroke="#63b8ff" d="M1319.37,-882.79C1497.16,-880.85 1951.59,-872.62 2099,-838.75 2182.69,-819.52 2277,-849.49 2277,-763.62 2277,-763.62 2277,-763.62 2277,-700.75 2277,-657.82 2305.98,-655.58 2330,-620 2340.9,-603.86 2349.18,-602.59 2355,-584 2359.05,-571.06 2363.42,-564.12 2355,-553.5 2333.74,-526.7 1843.17,-427.01 1688.96,-396.23"/>
<polygon fill="#63b8ff" stroke="#63b8ff" points="1319.53,-879.3 1309.57,-882.91 1319.61,-886.3 1319.53,-879.3"/>
</g>
<!-- Node18 -->
<g id="node18" class="node">
<title>Node18</title>
<g id="a_node18"><a xlink:href="v8-profiler_8h.html" target="_top" xlink:title=" ">
<polygon fill="white" stroke="#666666" points="1335.62,-395.75 1236.38,-395.75 1236.38,-376.5 1335.62,-376.5 1335.62,-395.75"/>
<text text-anchor="middle" x="1286" y="-382.25" font-family="Helvetica,sans-Serif" font-size="10.00">include/v8&#45;profiler.h</text>
</a>
</g>
</g>
<!-- Node1&#45;&gt;Node18 -->
<g id="edge117" class="edge">
<title>Node1&#45;&gt;Node18</title>
<path fill="none" stroke="#63b8ff" d="M1186.1,-871.07C1166.53,-864.42 1146.26,-854.24 1132,-838.75 1025.59,-723.16 958.75,-634.49 1037,-498.25 1077.49,-427.75 1175.73,-401.83 1236,-392.4"/>
<polygon fill="#63b8ff" stroke="#63b8ff" points="1184.95,-874.69 1195.53,-874.33 1187.03,-868.01 1184.95,-874.69"/>
</g>
<!-- Node19 -->
<g id="node19" class="node">
<title>Node19</title>
<g id="a_node19"><a xlink:href="v8-script_8h.html" target="_top" xlink:title=" ">
<polygon fill="white" stroke="#666666" points="1180.38,-395.75 1085.62,-395.75 1085.62,-376.5 1180.38,-376.5 1180.38,-395.75"/>
<text text-anchor="middle" x="1133" y="-382.25" font-family="Helvetica,sans-Serif" font-size="10.00">include/v8&#45;script.h</text>
</a>
</g>
</g>
<!-- Node1&#45;&gt;Node19 -->
<g id="edge121" class="edge">
<title>Node1&#45;&gt;Node19</title>
<path fill="none" stroke="#63b8ff" d="M1175.23,-871.77C1149.74,-865.13 1121.96,-854.79 1100,-838.75 1023.32,-782.75 1010.85,-744.71 999,-650.5 990.46,-582.6 984.84,-555.72 1022,-498.25 1050.43,-454.29 1098.65,-413.76 1120.99,-396.25"/>
<polygon fill="#63b8ff" stroke="#63b8ff" points="1174.07,-875.33 1184.61,-874.31 1175.73,-868.53 1174.07,-875.33"/>
</g>
<!-- Node21 -->
<g id="node21" class="node">
<title>Node21</title>
<g id="a_node21"><a xlink:href="v8-container_8h.html" target="_top" xlink:title=" ">
<polygon fill="white" stroke="#666666" points="2120.25,-578.38 2009.75,-578.38 2009.75,-559.12 2120.25,-559.12 2120.25,-578.38"/>
<text text-anchor="middle" x="2065" y="-564.88" font-family="Helvetica,sans-Serif" font-size="10.00">include/v8&#45;container.h</text>
</a>
</g>
</g>
<!-- Node1&#45;&gt;Node21 -->
<g id="edge34" class="edge">
<title>Node1&#45;&gt;Node21</title>
<path fill="none" stroke="#63b8ff" d="M1319.23,-882.57C1459.05,-880.27 1761.59,-871.55 1860,-838.75 1918.63,-819.21 1977,-825.42 1977,-763.62 1977,-763.62 1977,-763.62 1977,-700.75 1977,-646.78 2029.11,-598.3 2053.13,-578.82"/>
<polygon fill="#63b8ff" stroke="#63b8ff" points="1319.59,-879.07 1309.64,-882.73 1319.7,-886.07 1319.59,-879.07"/>
</g>
<!-- Node22 -->
<g id="node22" class="node">
<title>Node22</title>
<g id="a_node22"><a xlink:href="v8-data_8h.html" target="_top" xlink:title=" ">
<polygon fill="white" stroke="#666666" points="806.75,-833.12 717.25,-833.12 717.25,-813.88 806.75,-813.88 806.75,-833.12"/>
<text text-anchor="middle" x="762" y="-819.62" font-family="Helvetica,sans-Serif" font-size="10.00">include/v8&#45;data.h</text>
</a>
</g>
</g>
<!-- Node1&#45;&gt;Node22 -->
<g id="edge37" class="edge">
<title>Node1&#45;&gt;Node22</title>
<path fill="none" stroke="#63b8ff" d="M1174.84,-876.89C1093.69,-869.25 958.09,-855.47 842,-838.75 830.69,-837.12 818.53,-835.1 807.19,-833.09"/>
<polygon fill="#63b8ff" stroke="#63b8ff" points="1174.15,-880.43 1184.43,-877.88 1174.8,-873.46 1174.15,-880.43"/>
</g>
<!-- Node23 -->
<g id="node23" class="node">
<title>Node23</title>
<g id="a_node23"><a xlink:href="v8-primitive_8h.html" target="_top" xlink:title=" ">
<polygon fill="white" stroke="#666666" points="897.75,-711.38 790.25,-711.38 790.25,-692.12 897.75,-692.12 897.75,-711.38"/>
<text text-anchor="middle" x="844" y="-697.88" font-family="Helvetica,sans-Serif" font-size="10.00">include/v8&#45;primitive.h</text>
</a>
</g>
</g>
<!-- Node1&#45;&gt;Node23 -->
<g id="edge116" class="edge">
<title>Node1&#45;&gt;Node23</title>
<path fill="none" stroke="#63b8ff" d="M1174.82,-880.11C1094.3,-875.29 970.2,-863.93 931,-838.75 881.71,-807.09 854.92,-736.48 846.74,-711.62"/>
<polygon fill="#63b8ff" stroke="#63b8ff" points="1174.2,-883.64 1184.39,-880.73 1174.61,-876.65 1174.2,-883.64"/>
</g>
<!-- Node24 -->
<g id="node24" class="node">
<title>Node24</title>
<g id="a_node24"><a xlink:href="v8-extension_8h.html" target="_top" xlink:title=" ">
<polygon fill="white" stroke="#666666" points="528,-644.88 416,-644.88 416,-625.62 528,-625.62 528,-644.88"/>
<text text-anchor="middle" x="472" y="-631.38" font-family="Helvetica,sans-Serif" font-size="10.00">include/v8&#45;extension.h</text>
</a>
</g>
</g>
<!-- Node1&#45;&gt;Node24 -->
<g id="edge95" class="edge">
<title>Node1&#45;&gt;Node24</title>
<path fill="none" stroke="#63b8ff" d="M1174.54,-881.58C1000,-876.89 566.13,-862.94 505,-838.75 462.01,-821.74 444.64,-814.11 425,-772.25 403.36,-726.11 446.05,-667.15 464.29,-645.09"/>
<polygon fill="#63b8ff" stroke="#63b8ff" points="1174.32,-885.1 1184.41,-881.87 1174.5,-878.1 1174.32,-885.1"/>
</g>
<!-- Node25 -->
<g id="node25" class="node">
<title>Node25</title>
<g id="a_node25"><a xlink:href="v8-function-callback_8h.html" target="_top" xlink:title=" ">
<polygon fill="white" stroke="#666666" points="1295.88,-650.5 1198.12,-650.5 1198.12,-620 1295.88,-620 1295.88,-650.5"/>
<text text-anchor="start" x="1206.12" y="-637" font-family="Helvetica,sans-Serif" font-size="10.00">include/v8&#45;function</text>
<text text-anchor="middle" x="1247" y="-625.75" font-family="Helvetica,sans-Serif" font-size="10.00">&#45;callback.h</text>
</a>
</g>
</g>
<!-- Node1&#45;&gt;Node25 -->
<g id="edge98" class="edge">
<title>Node1&#45;&gt;Node25</title>
<path fill="none" stroke="#63b8ff" d="M1247,-863.46C1247,-815.18 1247,-692.72 1247,-650.68"/>
<polygon fill="#63b8ff" stroke="#63b8ff" points="1243.5,-863.29 1247,-873.29 1250.5,-863.29 1243.5,-863.29"/>
</g>
<!-- Node26 -->
<g id="node26" class="node">
<title>Node26</title>
<g id="a_node26"><a xlink:href="v8-template_8h.html" target="_top" xlink:title=" ">
<polygon fill="white" stroke="#666666" points="1780.12,-517.5 1671.88,-517.5 1671.88,-498.25 1780.12,-498.25 1780.12,-517.5"/>
<text text-anchor="middle" x="1726" y="-504" font-family="Helvetica,sans-Serif" font-size="10.00">include/v8&#45;template.h</text>
</a>
</g>
</g>
<!-- Node1&#45;&gt;Node26 -->
<g id="edge124" class="edge">
<title>Node1&#45;&gt;Node26</title>
<path fill="none" stroke="#63b8ff" d="M1319.15,-883.09C1471.89,-880.54 1814,-863.66 1814,-763.62 1814,-763.62 1814,-763.62 1814,-634.25 1814,-582.13 1762.42,-536.33 1738.24,-517.72"/>
<polygon fill="#63b8ff" stroke="#63b8ff" points="1319.43,-879.6 1309.49,-883.25 1319.54,-886.6 1319.43,-879.6"/>
</g>
<!-- Node28 -->
<g id="node28" class="node">
<title>Node28</title>
<g id="a_node28"><a xlink:href="v8-object_8h.html" target="_top" xlink:title=" ">
<polygon fill="white" stroke="#666666" points="1785.5,-644.88 1688.5,-644.88 1688.5,-625.62 1785.5,-625.62 1785.5,-644.88"/>
<text text-anchor="middle" x="1737" y="-631.38" font-family="Helvetica,sans-Serif" font-size="10.00">include/v8&#45;object.h</text>
</a>
</g>
</g>
<!-- Node1&#45;&gt;Node28 -->
<g id="edge108" class="edge">
<title>Node1&#45;&gt;Node28</title>
<path fill="none" stroke="#63b8ff" d="M1319.47,-882.87C1416.45,-880.89 1581.93,-872.47 1631,-838.75 1702.29,-789.75 1729.03,-677.36 1735.4,-645.07"/>
<polygon fill="#63b8ff" stroke="#63b8ff" points="1319.51,-879.39 1309.58,-883.08 1319.64,-886.39 1319.51,-879.39"/>
</g>
<!-- Node29 -->
<g id="node29" class="node">
<title>Node29</title>
<g id="a_node29"><a xlink:href="v8-date_8h.html" target="_top" xlink:title=" ">
<polygon fill="white" stroke="#666666" points="2227.75,-578.38 2138.25,-578.38 2138.25,-559.12 2227.75,-559.12 2227.75,-578.38"/>
<text text-anchor="middle" x="2183" y="-564.88" font-family="Helvetica,sans-Serif" font-size="10.00">include/v8&#45;date.h</text>
</a>
</g>
</g>
<!-- Node1&#45;&gt;Node29 -->
<g id="edge89" class="edge">
<title>Node1&#45;&gt;Node29</title>
<path fill="none" stroke="#63b8ff" d="M1319.44,-881.87C1469.5,-878.23 1809.64,-867.04 1922,-838.75 2000.14,-819.08 2087,-844.2 2087,-763.62 2087,-763.62 2087,-763.62 2087,-700.75 2087,-645.49 2143.27,-598.05 2169.65,-578.86"/>
<polygon fill="#63b8ff" stroke="#63b8ff" points="1319.46,-878.4 1309.54,-882.13 1319.62,-885.39 1319.46,-878.4"/>
</g>
<!-- Node30 -->
<g id="node30" class="node">
<title>Node30</title>
<g id="a_node30"><a xlink:href="v8-exception_8h.html" target="_top" xlink:title=" ">
<polygon fill="white" stroke="#666666" points="1954,-578.38 1842,-578.38 1842,-559.12 1954,-559.12 1954,-578.38"/>
<text text-anchor="middle" x="1898" y="-564.88" font-family="Helvetica,sans-Serif" font-size="10.00">include/v8&#45;exception.h</text>
</a>
</g>
</g>
<!-- Node1&#45;&gt;Node30 -->
<g id="edge94" class="edge">
<title>Node1&#45;&gt;Node30</title>
<path fill="none" stroke="#63b8ff" d="M1319.23,-881.45C1465.27,-877.03 1785.44,-864.51 1828,-838.75 1861.7,-818.36 1875,-803.01 1875,-763.62 1875,-763.62 1875,-763.62 1875,-700.75 1875,-654.34 1889.18,-600.05 1895.27,-578.86"/>
<polygon fill="#63b8ff" stroke="#63b8ff" points="1319.49,-877.97 1309.6,-881.76 1319.7,-884.96 1319.49,-877.97"/>
</g>
<!-- Node31 -->
<g id="node31" class="node">
<title>Node31</title>
<g id="a_node31"><a xlink:href="v8-primitive-object_8h.html" target="_top" xlink:title=" ">
<polygon fill="white" stroke="#666666" points="2346,-584 2246,-584 2246,-553.5 2346,-553.5 2346,-584"/>
<text text-anchor="start" x="2254" y="-570.5" font-family="Helvetica,sans-Serif" font-size="10.00">include/v8&#45;primitive</text>
<text text-anchor="middle" x="2296" y="-559.25" font-family="Helvetica,sans-Serif" font-size="10.00">&#45;object.h</text>
</a>
</g>
</g>
<!-- Node1&#45;&gt;Node31 -->
<g id="edge115" class="edge">
<title>Node1&#45;&gt;Node31</title>
<path fill="none" stroke="#63b8ff" d="M1319.47,-882.44C1483.62,-879.77 1879.58,-870.2 2009,-838.75 2088.87,-819.34 2178,-845.82 2178,-763.62 2178,-763.62 2178,-763.62 2178,-700.75 2178,-646.88 2233.77,-605.16 2268.63,-584.35"/>
<polygon fill="#63b8ff" stroke="#63b8ff" points="1319.47,-878.95 1309.53,-882.61 1319.58,-885.95 1319.47,-878.95"/>
</g>
<!-- Node32 -->
<g id="node32" class="node">
<title>Node32</title>
<g id="a_node32"><a xlink:href="v8-promise_8h.html" target="_top" xlink:title=" ">
<polygon fill="white" stroke="#666666" points="1671.62,-578.38 1566.38,-578.38 1566.38,-559.12 1671.62,-559.12 1671.62,-578.38"/>
<text text-anchor="middle" x="1619" y="-564.88" font-family="Helvetica,sans-Serif" font-size="10.00">include/v8&#45;promise.h</text>
</a>
</g>
</g>
<!-- Node1&#45;&gt;Node32 -->
<g id="edge118" class="edge">
<title>Node1&#45;&gt;Node32</title>
<path fill="none" stroke="#63b8ff" d="M1319.31,-874.89C1427,-860.22 1617,-825.55 1617,-763.62 1617,-763.62 1617,-763.62 1617,-700.75 1617,-654.8 1618.25,-599.8 1618.77,-578.64"/>
<polygon fill="#63b8ff" stroke="#63b8ff" points="1318.96,-871.54 1309.51,-876.34 1319.89,-878.48 1318.96,-871.54"/>
</g>
<!-- Node33 -->
<g id="node33" class="node">
<title>Node33</title>
<g id="a_node33"><a xlink:href="v8-statistics_8h.html" target="_top" xlink:title=" ">
<polygon fill="white" stroke="#666666" points="1502.25,-456.62 1391.75,-456.62 1391.75,-437.38 1502.25,-437.38 1502.25,-456.62"/>
<text text-anchor="middle" x="1447" y="-443.12" font-family="Helvetica,sans-Serif" font-size="10.00">include/v8&#45;statistics.h</text>
</a>
</g>
</g>
<!-- Node1&#45;&gt;Node33 -->
<g id="edge123" class="edge">
<title>Node1&#45;&gt;Node33</title>
<path fill="none" stroke="#63b8ff" d="M1227.93,-867.23C1205.13,-846 1170,-806.36 1170,-763.62 1170,-763.62 1170,-763.62 1170,-634.25 1170,-524.72 1320.98,-475.4 1400.01,-457.09"/>
<polygon fill="#63b8ff" stroke="#63b8ff" points="1225.18,-869.36 1234.97,-873.43 1229.86,-864.15 1225.18,-869.36"/>
</g>
<!-- Node34 -->
<g id="node34" class="node">
<title>Node34</title>
<g id="a_node34"><a xlink:href="v8-regexp_8h.html" target="_top" xlink:title=" ">
<polygon fill="white" stroke="#666666" points="2501.62,-578.38 2402.38,-578.38 2402.38,-559.12 2501.62,-559.12 2501.62,-578.38"/>
<text text-anchor="middle" x="2452" y="-564.88" font-family="Helvetica,sans-Serif" font-size="10.00">include/v8&#45;regexp.h</text>
</a>
</g>
</g>
<!-- Node1&#45;&gt;Node34 -->
<g id="edge120" class="edge">
<title>Node1&#45;&gt;Node34</title>
<path fill="none" stroke="#63b8ff" d="M1319.38,-882.54C1549.64,-879.58 2252.45,-868.18 2291,-838.75 2318.86,-817.48 2315,-798.68 2315,-763.62 2315,-763.62 2315,-763.62 2315,-700.75 2315,-638.06 2390.86,-596.13 2429.68,-578.78"/>
<polygon fill="#63b8ff" stroke="#63b8ff" points="1319.41,-879.05 1309.45,-882.68 1319.49,-886.05 1319.41,-879.05"/>
</g>
<!-- Node35 -->
<g id="node35" class="node">
<title>Node35</title>
<g id="a_node35"><a xlink:href="v8-wasm_8h.html" target="_top" xlink:title=" ">
<polygon fill="white" stroke="#666666" points="2616.5,-578.38 2519.5,-578.38 2519.5,-559.12 2616.5,-559.12 2616.5,-578.38"/>
<text text-anchor="middle" x="2568" y="-564.88" font-family="Helvetica,sans-Serif" font-size="10.00">include/v8&#45;wasm.h</text>
</a>
</g>
</g>
<!-- Node1&#45;&gt;Node35 -->
<g id="edge135" class="edge">
<title>Node1&#45;&gt;Node35</title>
<path fill="none" stroke="#63b8ff" d="M1319.52,-883.34C1590.51,-882.9 2530.65,-878.52 2580,-838.75 2606.82,-817.14 2599,-798.07 2599,-763.62 2599,-763.62 2599,-763.62 2599,-700.75 2599,-653.77 2579.89,-599.81 2571.68,-578.79"/>
<polygon fill="#63b8ff" stroke="#63b8ff" points="1319.64,-879.84 1309.65,-883.36 1319.65,-886.84 1319.64,-879.84"/>
</g>
<!-- Node36 -->
<g id="node36" class="node">
<title>Node36</title>
<g id="a_node36"><a xlink:href="v8-value_8h.html" target="_top" xlink:title=" ">
<polygon fill="white" stroke="#666666" points="528,-772.25 434,-772.25 434,-753 528,-753 528,-772.25"/>
<text text-anchor="middle" x="481" y="-758.75" font-family="Helvetica,sans-Serif" font-size="10.00">include/v8&#45;value.h</text>
</a>
</g>
</g>
<!-- Node1&#45;&gt;Node36 -->
<g id="edge134" class="edge">
<title>Node1&#45;&gt;Node36</title>
<path fill="none" stroke="#63b8ff" d="M1174.55,-882.07C1005.91,-878.56 597.17,-867.19 542,-838.75 513.33,-823.97 493.35,-789.1 485.16,-772.59"/>
<polygon fill="#63b8ff" stroke="#63b8ff" points="1174.24,-885.58 1184.31,-882.29 1174.38,-878.58 1174.24,-885.58"/>
</g>
<!-- Node38 -->
<g id="node38" class="node">
<title>Node38</title>
<g id="a_node38"><a xlink:href="v8-embedder-state-scope_8h.html" target="_top" xlink:title=" ">
<polygon fill="white" stroke="#666666" points="2449,-838.75 2343,-838.75 2343,-808.25 2449,-808.25 2449,-838.75"/>
<text text-anchor="start" x="2351" y="-825.25" font-family="Helvetica,sans-Serif" font-size="10.00">include/v8&#45;embedder</text>
<text text-anchor="middle" x="2396" y="-814" font-family="Helvetica,sans-Serif" font-size="10.00">&#45;state&#45;scope.h</text>
</a>
</g>
</g>
<!-- Node1&#45;&gt;Node38 -->
<g id="edge90" class="edge">
<title>Node1&#45;&gt;Node38</title>
<path fill="none" stroke="#63b8ff" d="M1319.57,-881.98C1529.15,-877.68 2132.92,-863.47 2329,-838.75 2333.48,-838.18 2338.11,-837.47 2342.74,-836.67"/>
<polygon fill="#63b8ff" stroke="#63b8ff" points="1319.62,-878.49 1309.7,-882.2 1319.77,-885.49 1319.62,-878.49"/>
</g>
<!-- Node40 -->
<g id="node40" class="node">
<title>Node40</title>
<g id="a_node40"><a xlink:href="v8-forward_8h.html" target="_top" xlink:title=" ">
<polygon fill="white" stroke="#666666" points="2570.5,-833.12 2467.5,-833.12 2467.5,-813.88 2570.5,-813.88 2570.5,-833.12"/>
<text text-anchor="middle" x="2519" y="-819.62" font-family="Helvetica,sans-Serif" font-size="10.00">include/v8&#45;forward.h</text>
</a>
</g>
</g>
<!-- Node1&#45;&gt;Node40 -->
<g id="edge97" class="edge">
<title>Node1&#45;&gt;Node40</title>
<path fill="none" stroke="#63b8ff" d="M1319.19,-882.54C1544.98,-879.64 2235.91,-868.5 2458,-838.75 2466.95,-837.55 2476.5,-835.63 2485.34,-833.59"/>
<polygon fill="#63b8ff" stroke="#63b8ff" points="1319.43,-879.05 1309.47,-882.68 1319.52,-886.05 1319.43,-879.05"/>
</g>
<!-- Node41 -->
<g id="node41" class="node">
<title>Node41</title>
<g id="a_node41"><a xlink:href="v8-json_8h.html" target="_top" xlink:title=" ">
<polygon fill="white" stroke="#666666" points="2842.38,-274 2753.62,-274 2753.62,-254.75 2842.38,-254.75 2842.38,-274"/>
<text text-anchor="middle" x="2798" y="-260.5" font-family="Helvetica,sans-Serif" font-size="10.00">include/v8&#45;json.h</text>
</a>
</g>
</g>
<!-- Node1&#45;&gt;Node41 -->
<g id="edge102" class="edge">
<title>Node1&#45;&gt;Node41</title>
<path fill="none" stroke="#63b8ff" d="M1319.38,-882.49C1587.2,-879.01 2513.15,-865.17 2643,-838.75 2733.61,-820.32 2837,-856.09 2837,-763.62 2837,-763.62 2837,-763.62 2837,-385.12 2837,-341.83 2813.67,-293.87 2803.1,-274.36"/>
<polygon fill="#63b8ff" stroke="#63b8ff" points="1319.58,-879 1309.63,-882.63 1319.67,-886 1319.58,-879"/>
</g>
<!-- Node42 -->
<g id="node42" class="node">
<title>Node42</title>
<g id="a_node42"><a xlink:href="v8-microtask-queue_8h.html" target="_top" xlink:title=" ">
<polygon fill="white" stroke="#666666" points="2911,-85.75 2805,-85.75 2805,-55.25 2911,-55.25 2911,-85.75"/>
<text text-anchor="start" x="2813" y="-72.25" font-family="Helvetica,sans-Serif" font-size="10.00">include/v8&#45;microtask</text>
<text text-anchor="middle" x="2858" y="-61" font-family="Helvetica,sans-Serif" font-size="10.00">&#45;queue.h</text>
</a>
</g>
</g>
<!-- Node1&#45;&gt;Node42 -->
<g id="edge106" class="edge">
<title>Node1&#45;&gt;Node42</title>
<path fill="none" stroke="#63b8ff" d="M1319.62,-883.3C1600.55,-882.71 2607.39,-877.86 2745,-838.75 2809.19,-820.51 2875,-830.36 2875,-763.62 2875,-763.62 2875,-763.62 2875,-202.5 2875,-159.84 2866.03,-110.02 2861.12,-85.96"/>
<polygon fill="#63b8ff" stroke="#63b8ff" points="1319.74,-879.8 1309.75,-883.32 1319.75,-886.8 1319.74,-879.8"/>
</g>
<!-- Node43 -->
<g id="node43" class="node">
<title>Node43</title>
<g id="a_node43"><a xlink:href="v8-persistent-handle_8h.html" target="_top" xlink:title=" ">
<polygon fill="white" stroke="#666666" points="1510,-717 1404,-717 1404,-686.5 1510,-686.5 1510,-717"/>
<text text-anchor="start" x="1412" y="-703.5" font-family="Helvetica,sans-Serif" font-size="10.00">include/v8&#45;persistent</text>
<text text-anchor="middle" x="1457" y="-692.25" font-family="Helvetica,sans-Serif" font-size="10.00">&#45;handle.h</text>
</a>
</g>
</g>
<!-- Node1&#45;&gt;Node43 -->
<g id="edge109" class="edge">
<title>Node1&#45;&gt;Node43</title>
<path fill="none" stroke="#63b8ff" d="M1281.67,-870.24C1299.48,-862.56 1320.96,-851.81 1338,-838.75 1385.81,-802.11 1428.84,-743.93 1447.37,-717.13"/>
<polygon fill="#63b8ff" stroke="#63b8ff" points="1280.56,-867.32 1272.67,-874.39 1283.25,-873.79 1280.56,-867.32"/>
</g>
<!-- Node44 -->
<g id="node44" class="node">
<title>Node44</title>
<g id="a_node44"><a xlink:href="v8-traced-handle_8h.html" target="_top" xlink:title=" ">
<polygon fill="white" stroke="#666666" points="2756.62,-711.38 2627.38,-711.38 2627.38,-692.12 2756.62,-692.12 2756.62,-711.38"/>
<text text-anchor="middle" x="2692" y="-697.88" font-family="Helvetica,sans-Serif" font-size="10.00">include/v8&#45;traced&#45;handle.h</text>
</a>
</g>
</g>
<!-- Node1&#45;&gt;Node44 -->
<g id="edge125" class="edge">
<title>Node1&#45;&gt;Node44</title>
<path fill="none" stroke="#63b8ff" d="M1319.19,-882.95C1593.32,-881.07 2557.13,-872.14 2613,-838.75 2661.99,-809.48 2683.64,-737.35 2689.94,-711.86"/>
<polygon fill="#63b8ff" stroke="#63b8ff" points="1319.55,-879.45 1309.58,-883.02 1319.6,-886.45 1319.55,-879.45"/>
</g>
<!-- Node47 -->
<g id="node47" class="node">
<title>Node47</title>
<g id="a_node47"><a xlink:href="v8-value-serializer_8h.html" target="_top" xlink:title=" ">
<polygon fill="white" stroke="#666666" points="3038.62,-772.25 2903.38,-772.25 2903.38,-753 3038.62,-753 3038.62,-772.25"/>
<text text-anchor="middle" x="2971" y="-758.75" font-family="Helvetica,sans-Serif" font-size="10.00">include/v8&#45;value&#45;serializer.h</text>
</a>
</g>
</g>
<!-- Node1&#45;&gt;Node47 -->
<g id="edge132" class="edge">
<title>Node1&#45;&gt;Node47</title>
<path fill="none" stroke="#63b8ff" d="M1319.25,-882.82C1626.89,-880.27 2815.4,-868.53 2889,-838.75 2923.54,-824.78 2952.61,-789.17 2964.82,-772.5"/>
<polygon fill="#63b8ff" stroke="#63b8ff" points="1319.65,-879.32 1309.68,-882.91 1319.71,-886.32 1319.65,-879.32"/>
</g>
<!-- Node2&#45;&gt;Node3 -->
<g id="edge2" class="edge">
<title>Node2&#45;&gt;Node3</title>
<path fill="none" stroke="#63b8ff" d="M829.66,-549.55C844.18,-526.86 866,-486.37 866,-448 866,-448 866,-448 866,-385.12 866,-331.18 927.37,-291.48 959.25,-274.5"/>
<polygon fill="#63b8ff" stroke="#63b8ff" points="826.23,-547.39 823.61,-557.65 832.06,-551.26 826.23,-547.39"/>
</g>
<!-- Node2&#45;&gt;Node6 -->
<g id="edge19" class="edge">
<title>Node2&#45;&gt;Node6</title>
<path fill="none" stroke="#63b8ff" d="M807.9,-549.25C780.01,-489.64 702.76,-300.03 789,-188.25 877.21,-73.91 1356.62,-24.91 1489.72,-13.39"/>
<polygon fill="#63b8ff" stroke="#63b8ff" points="805,-550.31 812.48,-557.81 811.32,-547.28 805,-550.31"/>
</g>
<!-- Node2&#45;&gt;Node13 -->
<g id="edge16" class="edge">
<title>Node2&#45;&gt;Node13</title>
<path fill="none" stroke="#63b8ff" d="M753.79,-556.87C688.77,-545.68 588.65,-528.44 527.75,-517.96"/>
<polygon fill="#63b8ff" stroke="#63b8ff" points="752.86,-560.43 763.31,-558.68 754.05,-553.53 752.86,-560.43"/>
</g>
<!-- Node4 -->
<g id="node4" class="node">
<title>Node4</title>
<g id="a_node4"><a xlink:href="v8-external-memory-accounter_8h.html" target="_top" xlink:title=" ">
<polygon fill="white" stroke="#666666" points="1029.38,-218.75 922.62,-218.75 922.62,-188.25 1029.38,-188.25 1029.38,-218.75"/>
<text text-anchor="start" x="930.62" y="-205.25" font-family="Helvetica,sans-Serif" font-size="10.00">include/v8&#45;external</text>
<text text-anchor="middle" x="976" y="-194" font-family="Helvetica,sans-Serif" font-size="10.00">&#45;memory&#45;accounter.h</text>
</a>
</g>
</g>
<!-- Node3&#45;&gt;Node4 -->
<g id="edge3" class="edge">
<title>Node3&#45;&gt;Node4</title>
<path fill="none" stroke="#63b8ff" d="M977.32,-243.45C977.05,-235.45 976.74,-226.4 976.49,-219.03"/>
<polygon fill="#63b8ff" stroke="#63b8ff" points="973.86,-243.56 977.7,-253.43 980.85,-243.32 973.86,-243.56"/>
</g>
<!-- Node5 -->
<g id="node5" class="node">
<title>Node5</title>
<g id="a_node5"><a xlink:href="v8-initialization_8h.html" target="_top" xlink:title=" ">
<polygon fill="white" stroke="#666666" points="1206.5,-213.12 1085.5,-213.12 1085.5,-193.88 1206.5,-193.88 1206.5,-213.12"/>
<text text-anchor="middle" x="1146" y="-199.62" font-family="Helvetica,sans-Serif" font-size="10.00">include/v8&#45;initialization.h</text>
</a>
</g>
</g>
<!-- Node3&#45;&gt;Node5 -->
<g id="edge4" class="edge">
<title>Node3&#45;&gt;Node5</title>
<path fill="none" stroke="#63b8ff" d="M1014.12,-250.72C1046.01,-239.54 1091.71,-223.52 1120.09,-213.58"/>
<polygon fill="#63b8ff" stroke="#63b8ff" points="1013.16,-247.69 1004.88,-254.3 1015.48,-254.3 1013.16,-247.69"/>
</g>
<!-- Node3&#45;&gt;Node6 -->
<g id="edge15" class="edge">
<title>Node3&#45;&gt;Node6</title>
<path fill="none" stroke="#63b8ff" d="M999.05,-247.99C1010.61,-239.47 1025.18,-228.63 1038,-218.75 1130.32,-147.63 1136.37,-102.28 1243,-55.25 1326.39,-18.47 1435.53,-11.53 1490,-10.52"/>
<polygon fill="#63b8ff" stroke="#63b8ff" points="997.49,-245.53 991.5,-254.27 1001.63,-251.17 997.49,-245.53"/>
</g>
<!-- Node3&#45;&gt;Node7 -->
<g id="edge6" class="edge">
<title>Node3&#45;&gt;Node7</title>
<path fill="none" stroke="#63b8ff" d="M917.23,-254.25C841.93,-242.94 714.66,-223.82 641.75,-212.87"/>
<polygon fill="#63b8ff" stroke="#63b8ff" points="916.55,-257.83 926.95,-255.86 917.59,-250.91 916.55,-257.83"/>
</g>
<!-- Node3&#45;&gt;Node9 -->
<g id="edge8" class="edge">
<title>Node3&#45;&gt;Node9</title>
<path fill="none" stroke="#63b8ff" d="M948.3,-249.82C923.85,-238.66 889.88,-223.16 868.68,-213.48"/>
<polygon fill="#63b8ff" stroke="#63b8ff" points="946.58,-253.34 957.13,-254.3 949.48,-246.97 946.58,-253.34"/>
</g>
<!-- Node3&#45;&gt;Node10 -->
<g id="edge9" class="edge">
<title>Node3&#45;&gt;Node10</title>
<path fill="none" stroke="#63b8ff" d="M917.3,-257.74C794.5,-246.33 518.25,-220.68 399.73,-209.68"/>
<polygon fill="#63b8ff" stroke="#63b8ff" points="916.71,-261.29 926.99,-258.73 917.35,-254.32 916.71,-261.29"/>
</g>
<!-- Node5&#45;&gt;Node6 -->
<g id="edge5" class="edge">
<title>Node5&#45;&gt;Node6</title>
<path fill="none" stroke="#63b8ff" d="M1158.14,-184.34C1180.41,-152.59 1231.05,-87.32 1291,-55.25 1355.46,-20.77 1442.55,-12.65 1489.89,-10.91"/>
<polygon fill="#63b8ff" stroke="#63b8ff" points="1154.7,-182.16 1151.93,-192.39 1160.47,-186.12 1154.7,-182.16"/>
</g>
<!-- Node8 -->
<g id="node8" class="node">
<title>Node8</title>
<g id="a_node8"><a xlink:href="v8-inspector-protocol_8h.html" target="_top" xlink:title=" ">
<polygon fill="white" stroke="#666666" points="637.5,-152.25 534.5,-152.25 534.5,-121.75 637.5,-121.75 637.5,-152.25"/>
<text text-anchor="start" x="542.5" y="-138.75" font-family="Helvetica,sans-Serif" font-size="10.00">include/v8&#45;inspector</text>
<text text-anchor="middle" x="586" y="-127.5" font-family="Helvetica,sans-Serif" font-size="10.00">&#45;protocol.h</text>
</a>
</g>
</g>
<!-- Node7&#45;&gt;Node8 -->
<g id="edge7" class="edge">
<title>Node7&#45;&gt;Node8</title>
<path fill="none" stroke="#63b8ff" d="M586,-182.77C586,-172.95 586,-161.3 586,-152.34"/>
<polygon fill="#63b8ff" stroke="#63b8ff" points="582.5,-182.53 586,-192.53 589.5,-182.53 582.5,-182.53"/>
</g>
<!-- Node10&#45;&gt;Node6 -->
<g id="edge14" class="edge">
<title>Node10&#45;&gt;Node6</title>
<path fill="none" stroke="#63b8ff" d="M331.83,-184.18C326.45,-175.01 320.73,-163.48 318,-152.25 306.93,-106.77 318.58,-78.84 359,-55.25 409.07,-26.03 1302.75,-13.37 1489.83,-11.03"/>
<polygon fill="#63b8ff" stroke="#63b8ff" points="329.32,-185.77 337.58,-192.4 335.26,-182.07 329.32,-185.77"/>
</g>
<!-- Node10&#45;&gt;Node11 -->
<g id="edge10" class="edge">
<title>Node10&#45;&gt;Node11</title>
<path fill="none" stroke="#63b8ff" d="M353.81,-183.89C360.22,-171.73 368.3,-156.39 373.31,-146.89"/>
<polygon fill="#63b8ff" stroke="#63b8ff" points="350.29,-182.05 348.73,-192.53 356.49,-185.32 350.29,-182.05"/>
</g>
<!-- Node11&#45;&gt;Node6 -->
<g id="edge13" class="edge">
<title>Node11&#45;&gt;Node6</title>
<path fill="none" stroke="#63b8ff" d="M369.39,-116.94C362.57,-98.61 356.5,-71.36 372,-55.25 411.74,-13.94 1303.17,-10.83 1489.89,-10.63"/>
<polygon fill="#63b8ff" stroke="#63b8ff" points="366.51,-118.12 373.55,-126.03 372.98,-115.45 366.51,-118.12"/>
</g>
<!-- Node11&#45;&gt;Node12 -->
<g id="edge11" class="edge">
<title>Node11&#45;&gt;Node12</title>
<path fill="none" stroke="#63b8ff" d="M391.58,-118.48C401.13,-106.16 413.52,-90.18 421.11,-80.39"/>
<polygon fill="#63b8ff" stroke="#63b8ff" points="388.31,-115.98 384.95,-126.03 393.85,-120.27 388.31,-115.98"/>
</g>
<!-- Node12&#45;&gt;Node6 -->
<g id="edge12" class="edge">
<title>Node12&#45;&gt;Node6</title>
<path fill="none" stroke="#63b8ff" d="M472.47,-58.1C478.01,-56.98 483.62,-55.99 489,-55.25 688.9,-27.84 1333.47,-14.2 1489.67,-11.24"/>
<polygon fill="#63b8ff" stroke="#63b8ff" points="472.02,-54.84 462.99,-60.38 473.5,-61.68 472.02,-54.84"/>
</g>
<!-- Node13&#45;&gt;Node6 -->
<g id="edge18" class="edge">
<title>Node13&#45;&gt;Node6</title>
<path fill="none" stroke="#63b8ff" d="M482.32,-487.8C490.62,-464.43 503,-423.47 503,-387.12 503,-387.12 503,-387.12 503,-136 503,-112.22 371.85,-131.2 655,-55.25 816.59,-11.9 1349.11,-10.16 1489.71,-10.48"/>
<polygon fill="#63b8ff" stroke="#63b8ff" points="478.73,-486.43 478.55,-497.03 485.29,-488.86 478.73,-486.43"/>
</g>
<!-- Node13&#45;&gt;Node14 -->
<g id="edge17" class="edge">
<title>Node13&#45;&gt;Node14</title>
<path fill="none" stroke="#63b8ff" d="M452.82,-491.87C439.51,-482.86 422.66,-471.45 409.47,-462.53"/>
<polygon fill="#63b8ff" stroke="#63b8ff" points="450.54,-495.23 460.79,-497.93 454.47,-489.43 450.54,-495.23"/>
</g>
<!-- Node15&#45;&gt;Node3 -->
<g id="edge22" class="edge">
<title>Node15&#45;&gt;Node3</title>
<path fill="none" stroke="#63b8ff" d="M1075.09,-492.02C1063.49,-484.45 1050.64,-474.28 1042,-462.25 997.14,-399.78 982.56,-304.18 978.98,-274.49"/>
<polygon fill="#63b8ff" stroke="#63b8ff" points="1073.06,-495.5 1083.41,-497.77 1076.73,-489.54 1073.06,-495.5"/>
</g>
<!-- Node15&#45;&gt;Node5 -->
<g id="edge21" class="edge">
<title>Node15&#45;&gt;Node5</title>
<path fill="none" stroke="#63b8ff" d="M1090.32,-488.91C1076.69,-466.18 1056,-425.37 1056,-387.12 1056,-387.12 1056,-387.12 1056,-324.25 1056,-274.06 1107.15,-231.48 1132.33,-213.57"/>
<polygon fill="#63b8ff" stroke="#63b8ff" points="1087.73,-490.37 1095.99,-497.01 1093.67,-486.67 1087.73,-490.37"/>
</g>
<!-- Node15&#45;&gt;Node16 -->
<g id="edge23" class="edge">
<title>Node15&#45;&gt;Node16</title>
<path fill="none" stroke="#63b8ff" d="M1128.91,-492.85C1150.23,-481.75 1179.36,-466.57 1197.68,-457.03"/>
<polygon fill="#63b8ff" stroke="#63b8ff" points="1127.41,-490.21 1120.16,-497.93 1130.65,-496.42 1127.41,-490.21"/>
</g>
<!-- Node15&#45;&gt;Node19 -->
<g id="edge33" class="edge">
<title>Node15&#45;&gt;Node19</title>
<path fill="none" stroke="#63b8ff" d="M1107.06,-487.35C1113.85,-461.12 1125.64,-415.57 1130.64,-396.23"/>
<polygon fill="#63b8ff" stroke="#63b8ff" points="1103.45,-486.32 1104.33,-496.87 1110.22,-488.07 1103.45,-486.32"/>
</g>
<!-- Node16&#45;&gt;Node6 -->
<g id="edge32" class="edge">
<title>Node16&#45;&gt;Node6</title>
<path fill="none" stroke="#63b8ff" d="M1212.83,-426.3C1212.28,-410.71 1214.29,-389.46 1227,-376.5 1286.27,-316.08 1339.66,-380.96 1414,-340.5 1454.62,-318.39 1486,-311.62 1486,-265.38 1486,-265.38 1486,-265.38 1486,-136 1486,-90.51 1509.19,-39.58 1519.34,-19.47"/>
<polygon fill="#63b8ff" stroke="#63b8ff" points="1209.39,-426.19 1213.62,-435.9 1216.37,-425.67 1209.39,-426.19"/>
</g>
<!-- Node16&#45;&gt;Node17 -->
<g id="edge24" class="edge">
<title>Node16&#45;&gt;Node17</title>
<path fill="none" stroke="#63b8ff" d="M1281.33,-436.88C1366.31,-425.19 1511.91,-405.16 1589.94,-394.42"/>
<polygon fill="#63b8ff" stroke="#63b8ff" points="1280.94,-433.53 1271.51,-438.36 1281.9,-440.47 1280.94,-433.53"/>
</g>
<!-- Node16&#45;&gt;Node18 -->
<g id="edge26" class="edge">
<title>Node16&#45;&gt;Node18</title>
<path fill="none" stroke="#63b8ff" d="M1234.14,-430.13C1247.28,-419.23 1264.23,-405.17 1275.12,-396.15"/>
<polygon fill="#63b8ff" stroke="#63b8ff" points="1232.25,-427.98 1226.78,-437.06 1236.72,-433.37 1232.25,-427.98"/>
</g>
<!-- Node16&#45;&gt;Node19 -->
<g id="edge27" class="edge">
<title>Node16&#45;&gt;Node19</title>
<path fill="none" stroke="#63b8ff" d="M1193.76,-430.75C1178.48,-419.78 1158.38,-405.35 1145.57,-396.15"/>
<polygon fill="#63b8ff" stroke="#63b8ff" points="1191.38,-434.07 1201.55,-437.06 1195.46,-428.38 1191.38,-434.07"/>
</g>
<!-- Node17&#45;&gt;Node6 -->
<g id="edge25" class="edge">
<title>Node17&#45;&gt;Node6</title>
<path fill="none" stroke="#63b8ff" d="M1637.25,-365.93C1630.73,-342.44 1621,-301.36 1621,-265.38 1621,-265.38 1621,-265.38 1621,-136 1621,-82.61 1565.29,-38.14 1538.31,-19.73"/>
<polygon fill="#63b8ff" stroke="#63b8ff" points="1634.08,-366.58 1640.21,-375.21 1640.81,-364.64 1634.08,-366.58"/>
</g>
<!-- Node19&#45;&gt;Node6 -->
<g id="edge31" class="edge">
<title>Node19&#45;&gt;Node6</title>
<path fill="none" stroke="#63b8ff" d="M1191.18,-376.69C1264.99,-365.76 1383.68,-347.28 1391,-340.5 1416.27,-317.1 1410,-299.82 1410,-265.38 1410,-265.38 1410,-265.38 1410,-136 1410,-79.52 1474.12,-37.23 1506.19,-19.62"/>
<polygon fill="#63b8ff" stroke="#63b8ff" points="1191.01,-373.33 1181.63,-378.25 1192.03,-380.25 1191.01,-373.33"/>
</g>
<!-- Node20 -->
<g id="node20" class="node">
<title>Node20</title>
<g id="a_node20"><a xlink:href="v8-debug_8h.html" target="_top" xlink:title=" ">
<polygon fill="white" stroke="#666666" points="1219.5,-334.88 1122.5,-334.88 1122.5,-315.62 1219.5,-315.62 1219.5,-334.88"/>
<text text-anchor="middle" x="1171" y="-321.38" font-family="Helvetica,sans-Serif" font-size="10.00">include/v8&#45;debug.h</text>
</a>
</g>
</g>
<!-- Node19&#45;&gt;Node20 -->
<g id="edge28" class="edge">
<title>Node19&#45;&gt;Node20</title>
<path fill="none" stroke="#63b8ff" d="M1144.69,-367.01C1151.48,-356.49 1159.74,-343.69 1165.17,-335.28"/>
<polygon fill="#63b8ff" stroke="#63b8ff" points="1141.25,-364.88 1138.77,-375.18 1147.13,-368.68 1141.25,-364.88"/>
</g>
<!-- Node20&#45;&gt;Node3 -->
<g id="edge29" class="edge">
<title>Node20&#45;&gt;Node3</title>
<path fill="none" stroke="#63b8ff" d="M1130.93,-312.03C1094.25,-300.84 1040.79,-284.53 1007.77,-274.46"/>
<polygon fill="#63b8ff" stroke="#63b8ff" points="1129.68,-315.61 1140.27,-315.18 1131.72,-308.91 1129.68,-315.61"/>
</g>
<!-- Node20&#45;&gt;Node6 -->
<g id="edge30" class="edge">
<title>Node20&#45;&gt;Node6</title>
<path fill="none" stroke="#63b8ff" d="M1205.76,-310.95C1245.46,-293.21 1305,-257.74 1305,-204.5 1305,-204.5 1305,-204.5 1305,-136 1305,-51.88 1428.19,-23.42 1489.78,-14.44"/>
<polygon fill="#63b8ff" stroke="#63b8ff" points="1204.7,-308.02 1196.89,-315.17 1207.46,-314.45 1204.7,-308.02"/>
</g>
<!-- Node21&#45;&gt;Node6 -->
<g id="edge35" class="edge">
<title>Node21&#45;&gt;Node6</title>
<path fill="none" stroke="#63b8ff" d="M2079.25,-550.13C2095.84,-527.78 2121,-487.38 2121,-448 2121,-448 2121,-448 2121,-136 2121,-20.16 1685.1,-10.75 1558.24,-10.46"/>
<polygon fill="#63b8ff" stroke="#63b8ff" points="2075.89,-547.75 2072.55,-557.8 2081.43,-552.02 2075.89,-547.75"/>
</g>
<!-- Node22&#45;&gt;Node3 -->
<g id="edge40" class="edge">
<title>Node22&#45;&gt;Node3</title>
<path fill="none" stroke="#63b8ff" d="M756.46,-803.05C744.58,-758.37 719.37,-645.21 740,-553.5 751.39,-502.88 790,-499.89 790,-448 790,-448 790,-448 790,-385.12 790,-319.15 873.39,-287.93 929.1,-274.45"/>
<polygon fill="#63b8ff" stroke="#63b8ff" points="753.32,-803.83 759.34,-812.54 760.07,-801.97 753.32,-803.83"/>
</g>
<!-- Node22&#45;&gt;Node6 -->
<g id="edge88" class="edge">
<title>Node22&#45;&gt;Node6</title>
<path fill="none" stroke="#63b8ff" d="M748.17,-804.96C708.98,-753.42 600,-596.74 600,-448 600,-448 600,-448 600,-324.25 600,-236.02 807.96,-82.09 892,-55.25 1004.77,-19.23 1374.71,-12.23 1489.63,-10.92"/>
<polygon fill="#63b8ff" stroke="#63b8ff" points="745.95,-806.8 754.83,-812.58 751.49,-802.53 745.95,-806.8"/>
</g>
<!-- Node22&#45;&gt;Node11 -->
<g id="edge39" class="edge">
<title>Node22&#45;&gt;Node11</title>
<path fill="none" stroke="#63b8ff" d="M719.08,-809.69C698.01,-801.67 673.47,-789.52 656,-772.25 589.76,-706.79 595.7,-671.56 564,-584 550.64,-547.11 555.55,-535.43 543,-498.25 494.95,-355.86 476.66,-321.93 408,-188.25 400.39,-173.43 390.22,-156.97 383.89,-147.06"/>
<polygon fill="#63b8ff" stroke="#63b8ff" points="717.82,-813.32 728.41,-813.41 720.19,-806.73 717.82,-813.32"/>
</g>
<!-- Node22&#45;&gt;Node15 -->
<g id="edge38" class="edge">
<title>Node22&#45;&gt;Node15</title>
<path fill="none" stroke="#63b8ff" d="M785.37,-807.5C814.91,-788.09 866.75,-752.55 907,-717 986.79,-646.53 1070.1,-547.63 1094.74,-517.76"/>
<polygon fill="#63b8ff" stroke="#63b8ff" points="783.72,-805.04 777.26,-813.43 787.55,-810.91 783.72,-805.04"/>
</g>
<!-- Node22&#45;&gt;Node19 -->
<g id="edge79" class="edge">
<title>Node22&#45;&gt;Node19</title>
<path fill="none" stroke="#63b8ff" d="M760.91,-802.77C760.21,-775.23 761.97,-724.37 781,-686.5 810.14,-628.51 846.83,-636.49 885,-584 910.07,-549.52 901.91,-531.97 928,-498.25 955.46,-462.75 965.18,-454.28 1004,-431.75 1032.49,-415.21 1068.07,-403.48 1094.65,-396.21"/>
<polygon fill="#63b8ff" stroke="#63b8ff" points="757.45,-802.81 761.35,-812.66 764.44,-802.52 757.45,-802.81"/>
</g>
<!-- Node22&#45;&gt;Node23 -->
<g id="edge41" class="edge">
<title>Node22&#45;&gt;Node23</title>
<path fill="none" stroke="#63b8ff" d="M774.18,-804.71C791.92,-778.81 824.22,-731.63 837.77,-711.86"/>
<polygon fill="#63b8ff" stroke="#63b8ff" points="770.93,-802.27 768.16,-812.5 776.7,-806.23 770.93,-802.27"/>
</g>
<!-- Node22&#45;&gt;Node26 -->
<g id="edge80" class="edge">
<title>Node22&#45;&gt;Node26</title>
<path fill="none" stroke="#63b8ff" d="M818.03,-819.77C996.18,-810.33 1538,-775.65 1538,-702.75 1538,-702.75 1538,-702.75 1538,-634.25 1538,-597.38 1531.28,-579.92 1557,-553.5 1586.63,-523.06 1634.4,-512.56 1671.6,-509.31"/>
<polygon fill="#63b8ff" stroke="#63b8ff" points="817.88,-816.32 808.08,-820.34 818.24,-823.31 817.88,-816.32"/>
</g>
<!-- Node22&#45;&gt;Node36 -->
<g id="edge81" class="edge">
<title>Node22&#45;&gt;Node36</title>
<path fill="none" stroke="#63b8ff" d="M708.07,-811.2C654.61,-800 573.76,-783.06 524.34,-772.71"/>
<polygon fill="#63b8ff" stroke="#63b8ff" points="707.2,-814.8 717.71,-813.43 708.64,-807.95 707.2,-814.8"/>
</g>
<!-- Node23&#45;&gt;Node3 -->
<g id="edge51" class="edge">
<title>Node23&#45;&gt;Node3</title>
<path fill="none" stroke="#63b8ff" d="M824.54,-684.66C801.39,-664.11 763.98,-626.14 749,-584 744.46,-571.23 742.55,-565.42 749,-553.5 762.89,-527.8 786.04,-540.55 804,-517.5 824.08,-491.72 828,-480.68 828,-448 828,-448 828,-448 828,-385.12 828,-324.48 903.81,-289.54 947.65,-274.41"/>
<polygon fill="#63b8ff" stroke="#63b8ff" points="821.78,-687.77 831.64,-691.65 826.36,-682.47 821.78,-687.77"/>
</g>
<!-- Node23&#45;&gt;Node6 -->
<g id="edge78" class="edge">
<title>Node23&#45;&gt;Node6</title>
<path fill="none" stroke="#63b8ff" d="M814.54,-686.77C798.06,-677.97 777.91,-665.44 763,-650.5 688.3,-575.63 638,-553.77 638,-448 638,-448 638,-448 638,-324.25 638,-262.24 777.98,-155.51 830,-121.75 902.94,-74.41 929.09,-73.98 1014,-55.25 1189.98,-16.44 1407.11,-11.12 1489.82,-10.58"/>
<polygon fill="#63b8ff" stroke="#63b8ff" points="812.75,-690.3 823.24,-691.77 815.95,-684.08 812.75,-690.3"/>
</g>
<!-- Node23&#45;&gt;Node16 -->
<g id="edge52" class="edge">
<title>Node23&#45;&gt;Node16</title>
<path fill="none" stroke="#63b8ff" d="M877.91,-687.56C940.47,-662 1075.96,-600.83 1167,-517.5 1186.9,-499.28 1202.99,-471.35 1210.47,-457.08"/>
<polygon fill="#63b8ff" stroke="#63b8ff" points="876.77,-684.65 868.81,-691.63 879.39,-691.14 876.77,-684.65"/>
</g>
<!-- Node23&#45;&gt;Node24 -->
<g id="edge42" class="edge">
<title>Node23&#45;&gt;Node24</title>
<path fill="none" stroke="#63b8ff" d="M780.74,-689.78C708.58,-677.27 591.9,-657.04 524.54,-645.36"/>
<polygon fill="#63b8ff" stroke="#63b8ff" points="780.04,-693.39 790.49,-691.65 781.24,-686.49 780.04,-693.39"/>
</g>
<!-- Node23&#45;&gt;Node25 -->
<g id="edge44" class="edge">
<title>Node23&#45;&gt;Node25</title>
<path fill="none" stroke="#63b8ff" d="M908.44,-690.44C989,-677.54 1125.13,-655.76 1197.81,-644.12"/>
<polygon fill="#63b8ff" stroke="#63b8ff" points="908.25,-687.08 898.93,-692.12 909.36,-693.99 908.25,-687.08"/>
</g>
<!-- Node23&#45;&gt;Node28 -->
<g id="edge53" class="edge">
<title>Node23&#45;&gt;Node28</title>
<path fill="none" stroke="#63b8ff" d="M909,-696.06C1079.6,-683.73 1537.38,-650.67 1688.12,-639.78"/>
<polygon fill="#63b8ff" stroke="#63b8ff" points="908.9,-692.63 899.18,-696.84 909.41,-699.61 908.9,-692.63"/>
</g>
<!-- Node24&#45;&gt;Node6 -->
<g id="edge43" class="edge">
<title>Node24&#45;&gt;Node6</title>
<path fill="none" stroke="#63b8ff" d="M458.27,-616.49C442.31,-594.62 416.91,-555.67 407,-517.5 404.85,-509.22 403.62,-506.11 407,-498.25 416.19,-476.88 435.81,-483.62 445,-462.25 450.36,-449.8 451.06,-443.87 445,-431.75 389.84,-321.48 223,-388.68 223,-265.38 223,-265.38 223,-265.38 223,-136 223,-79.56 268.24,-75.3 321,-55.25 432.73,-12.8 1305.31,-10.58 1489.81,-10.59"/>
<polygon fill="#63b8ff" stroke="#63b8ff" points="456.05,-618.36 464.84,-624.27 461.65,-614.17 456.05,-618.36"/>
</g>
<!-- Node25&#45;&gt;Node3 -->
<g id="edge46" class="edge">
<title>Node25&#45;&gt;Node3</title>
<path fill="none" stroke="#63b8ff" d="M1189.73,-615.75C1142.5,-597.73 1076.97,-565.89 1037,-517.5 974.02,-441.25 975.71,-309.85 977.44,-274.41"/>
<polygon fill="#63b8ff" stroke="#63b8ff" points="1188.23,-619.3 1198.82,-619.5 1190.66,-612.74 1188.23,-619.3"/>
</g>
<!-- Node25&#45;&gt;Node17 -->
<g id="edge45" class="edge">
<title>Node25&#45;&gt;Node17</title>
<path fill="none" stroke="#63b8ff" d="M1247.66,-608.92C1249.4,-591.4 1254.4,-568.6 1268,-553.5 1345.19,-467.77 1406.54,-511.21 1511,-462.25 1555.41,-441.43 1604.97,-411.21 1628.75,-396.24"/>
<polygon fill="#63b8ff" stroke="#63b8ff" points="1244.12,-608.33 1246.93,-618.54 1251.11,-608.81 1244.12,-608.33"/>
</g>
<!-- Node25&#45;&gt;Node26 -->
<g id="edge47" class="edge">
<title>Node25&#45;&gt;Node26</title>
<path fill="none" stroke="#63b8ff" d="M1257.08,-609.74C1266.17,-591 1281.43,-566.28 1303,-553.5 1364.07,-517.32 1571.97,-510.32 1671.73,-509.07"/>
<polygon fill="#63b8ff" stroke="#63b8ff" points="1253.51,-608.13 1252.56,-618.68 1259.88,-611.03 1253.51,-608.13"/>
</g>
<!-- Node27 -->
<g id="node27" class="node">
<title>Node27</title>
<g id="a_node27"><a xlink:href="v8-util_8h.html" target="_top" xlink:title=" ">
<polygon fill="white" stroke="#666666" points="1395.75,-578.38 1312.25,-578.38 1312.25,-559.12 1395.75,-559.12 1395.75,-578.38"/>
<text text-anchor="middle" x="1354" y="-564.88" font-family="Helvetica,sans-Serif" font-size="10.00">include/v8&#45;util.h</text>
</a>
</g>
</g>
<!-- Node25&#45;&gt;Node27 -->
<g id="edge50" class="edge">
<title>Node25&#45;&gt;Node27</title>
<path fill="none" stroke="#63b8ff" d="M1280.52,-614.04C1300.15,-602.21 1323.96,-587.86 1339.05,-578.76"/>
<polygon fill="#63b8ff" stroke="#63b8ff" points="1279.04,-611.45 1272.28,-619.61 1282.65,-617.45 1279.04,-611.45"/>
</g>
<!-- Node26&#45;&gt;Node6 -->
<g id="edge49" class="edge">
<title>Node26&#45;&gt;Node6</title>
<path fill="none" stroke="#63b8ff" d="M1735.43,-487.97C1746.1,-464.8 1762,-424.06 1762,-387.12 1762,-387.12 1762,-387.12 1762,-136 1762,-45.05 1624.26,-19.92 1558.35,-13.1"/>
<polygon fill="#63b8ff" stroke="#63b8ff" points="1731.87,-486.31 1730.71,-496.84 1738.18,-489.33 1731.87,-486.31"/>
</g>
<!-- Node26&#45;&gt;Node17 -->
<g id="edge48" class="edge">
<title>Node26&#45;&gt;Node17</title>
<path fill="none" stroke="#63b8ff" d="M1713.67,-489.09C1695.72,-463.18 1663.02,-416.01 1649.31,-396.23"/>
<polygon fill="#63b8ff" stroke="#63b8ff" points="1711.19,-490.65 1719.76,-496.87 1716.94,-486.66 1711.19,-490.65"/>
</g>
<!-- Node28&#45;&gt;Node2 -->
<g id="edge54" class="edge">
<title>Node28&#45;&gt;Node2</title>
<path fill="none" stroke="#63b8ff" d="M1677.69,-630.09C1511.64,-618.45 1043.38,-585.62 876.77,-573.94"/>
<polygon fill="#63b8ff" stroke="#63b8ff" points="1676.97,-633.62 1687.19,-630.83 1677.46,-626.64 1676.97,-633.62"/>
</g>
<!-- Node28&#45;&gt;Node6 -->
<g id="edge77" class="edge">
<title>Node28&#45;&gt;Node6</title>
<path fill="none" stroke="#63b8ff" d="M1796.42,-628.1C1855.19,-620.81 1939.63,-606.71 1963,-584 1987.7,-560 1982,-543.32 1982,-508.88 1982,-508.88 1982,-508.88 1982,-136 1982,-76.07 1929.56,-77.73 1874,-55.25 1817.07,-32.22 1634.62,-17.89 1558.19,-12.76"/>
<polygon fill="#63b8ff" stroke="#63b8ff" points="1796.28,-624.71 1786.77,-629.38 1797.11,-631.66 1796.28,-624.71"/>
</g>
<!-- Node28&#45;&gt;Node12 -->
<g id="edge71" class="edge">
<title>Node28&#45;&gt;Node12</title>
<path fill="none" stroke="#63b8ff" d="M1726,-615.98C1715.42,-599.03 1698.49,-573.49 1681,-553.5 1507.94,-355.73 1462.94,-278.16 1216,-188.25 947.65,-90.54 599.5,-74.5 474.89,-71.95"/>
<polygon fill="#63b8ff" stroke="#63b8ff" points="1723.5,-617.6 1731.72,-624.29 1729.47,-613.94 1723.5,-617.6"/>
</g>
<!-- Node28&#45;&gt;Node17 -->
<g id="edge62" class="edge">
<title>Node28&#45;&gt;Node17</title>
<path fill="none" stroke="#63b8ff" d="M1735.08,-614.33C1732.58,-596.92 1726.89,-571.67 1714,-553.5 1697.95,-530.87 1677.6,-541.09 1663,-517.5 1638.42,-477.78 1640.31,-418.57 1642.1,-396.16"/>
<polygon fill="#63b8ff" stroke="#63b8ff" points="1731.72,-614.65 1736.37,-624.17 1738.67,-613.83 1731.72,-614.65"/>
</g>
<!-- Node28&#45;&gt;Node21 -->
<g id="edge55" class="edge">
<title>Node28&#45;&gt;Node21</title>
<path fill="none" stroke="#63b8ff" d="M1795.56,-623.1C1848.08,-613.04 1927.24,-597.77 1996,-584 2004.28,-582.34 2013.1,-580.54 2021.58,-578.8"/>
<polygon fill="#63b8ff" stroke="#63b8ff" points="1794.93,-619.84 1785.77,-625.16 1796.25,-626.72 1794.93,-619.84"/>
</g>
<!-- Node28&#45;&gt;Node26 -->
<g id="edge74" class="edge">
<title>Node28&#45;&gt;Node26</title>
<path fill="none" stroke="#63b8ff" d="M1745.32,-615.17C1751.38,-598.69 1757.62,-574.3 1752,-553.5 1748.35,-540 1739.5,-526.38 1733.13,-517.8"/>
<polygon fill="#63b8ff" stroke="#63b8ff" points="1741.78,-613.6 1741.3,-624.18 1748.27,-616.2 1741.78,-613.6"/>
</g>
<!-- Node28&#45;&gt;Node29 -->
<g id="edge56" class="edge">
<title>Node28&#45;&gt;Node29</title>
<path fill="none" stroke="#63b8ff" d="M1796.85,-629.03C1874.07,-621.73 2012.34,-606.77 2129,-584 2136.33,-582.57 2144.13,-580.71 2151.46,-578.81"/>
<polygon fill="#63b8ff" stroke="#63b8ff" points="1796.54,-625.64 1786.91,-630.05 1797.19,-632.6 1796.54,-625.64"/>
</g>
<!-- Node28&#45;&gt;Node30 -->
<g id="edge58" class="edge">
<title>Node28&#45;&gt;Node30</title>
<path fill="none" stroke="#63b8ff" d="M1769.76,-621.13C1801.21,-608.53 1847.88,-589.83 1875.39,-578.81"/>
<polygon fill="#63b8ff" stroke="#63b8ff" points="1768.71,-618.18 1760.73,-625.15 1771.31,-624.68 1768.71,-618.18"/>
</g>
<!-- Node28&#45;&gt;Node31 -->
<g id="edge63" class="edge">
<title>Node28&#45;&gt;Node31</title>
<path fill="none" stroke="#63b8ff" d="M1796.64,-630.9C1890.74,-625.03 2079.19,-610.86 2237,-584 2239.8,-583.52 2242.67,-582.99 2245.56,-582.41"/>
<polygon fill="#63b8ff" stroke="#63b8ff" points="1796.68,-627.46 1786.92,-631.56 1797.11,-634.44 1796.68,-627.46"/>
</g>
<!-- Node28&#45;&gt;Node32 -->
<g id="edge65" class="edge">
<title>Node28&#45;&gt;Node32</title>
<path fill="none" stroke="#63b8ff" d="M1710.86,-619.96C1687.87,-607.4 1655.12,-589.5 1635.57,-578.81"/>
<polygon fill="#63b8ff" stroke="#63b8ff" points="1708.89,-623.42 1719.34,-625.15 1712.25,-617.28 1708.89,-623.42"/>
</g>
<!-- Node28&#45;&gt;Node34 -->
<g id="edge72" class="edge">
<title>Node28&#45;&gt;Node34</title>
<path fill="none" stroke="#63b8ff" d="M1796.88,-630.67C1907.4,-623.79 2150.78,-607.28 2355,-584 2370.39,-582.25 2387.09,-579.94 2402.24,-577.69"/>
<polygon fill="#63b8ff" stroke="#63b8ff" points="1796.74,-627.24 1786.97,-631.35 1797.17,-634.22 1796.74,-627.24"/>
</g>
<!-- Node28&#45;&gt;Node35 -->
<g id="edge75" class="edge">
<title>Node28&#45;&gt;Node35</title>
<path fill="none" stroke="#63b8ff" d="M1796.7,-634.02C1927.12,-632.74 2246.95,-625.23 2511,-584 2519.16,-582.73 2527.87,-580.83 2535.95,-578.84"/>
<polygon fill="#63b8ff" stroke="#63b8ff" points="1796.75,-630.53 1786.78,-634.12 1796.82,-637.53 1796.75,-630.53"/>
</g>
<!-- Node29&#45;&gt;Node6 -->
<g id="edge57" class="edge">
<title>Node29&#45;&gt;Node6</title>
<path fill="none" stroke="#63b8ff" d="M2176.72,-548.59C2169.61,-525.14 2159,-484.1 2159,-448 2159,-448 2159,-448 2159,-136 2159,-80.59 2115.18,-76.5 2064,-55.25 1971.91,-17.02 1662.02,-11.5 1558.21,-10.74"/>
<polygon fill="#63b8ff" stroke="#63b8ff" points="2173.62,-549.37 2179.96,-557.86 2180.29,-547.27 2173.62,-549.37"/>
</g>
<!-- Node30&#45;&gt;Node3 -->
<g id="edge59" class="edge">
<title>Node30&#45;&gt;Node3</title>
<path fill="none" stroke="#63b8ff" d="M1886.49,-549.74C1860.03,-510.13 1790.54,-415.88 1705,-376.5 1527.57,-294.82 1448.45,-412.8 1267,-340.5 1246.88,-332.48 1248.72,-318.95 1229,-310 1163.51,-280.27 1080.03,-270.3 1027.78,-266.99"/>
<polygon fill="#63b8ff" stroke="#63b8ff" points="1883.99,-551.32 1892.4,-557.77 1889.85,-547.48 1883.99,-551.32"/>
</g>
<!-- Node30&#45;&gt;Node6 -->
<g id="edge61" class="edge">
<title>Node30&#45;&gt;Node6</title>
<path fill="none" stroke="#63b8ff" d="M1909.68,-549.79C1923.31,-527.05 1944,-486.24 1944,-448 1944,-448 1944,-448 1944,-136 1944,-55.72 1658.68,-22.6 1558.37,-13.44"/>
<polygon fill="#63b8ff" stroke="#63b8ff" points="1906.33,-547.55 1904.01,-557.89 1912.27,-551.25 1906.33,-547.55"/>
</g>
<!-- Node30&#45;&gt;Node26 -->
<g id="edge60" class="edge">
<title>Node30&#45;&gt;Node26</title>
<path fill="none" stroke="#63b8ff" d="M1861.44,-555.24C1828.78,-544.06 1781.71,-527.94 1752.53,-517.96"/>
<polygon fill="#63b8ff" stroke="#63b8ff" points="1859.91,-558.75 1870.5,-558.68 1862.17,-552.13 1859.91,-558.75"/>
</g>
<!-- Node31&#45;&gt;Node6 -->
<g id="edge64" class="edge">
<title>Node31&#45;&gt;Node6</title>
<path fill="none" stroke="#63b8ff" d="M2263.16,-546.97C2234.35,-525.9 2197,-490.41 2197,-448 2197,-448 2197,-448 2197,-136 2197,-84.21 2160.27,-76.4 2113,-55.25 2012.84,-10.44 1668.55,-9.36 1558.27,-10.22"/>
<polygon fill="#63b8ff" stroke="#63b8ff" points="2260.59,-550.14 2270.78,-553.04 2264.62,-544.42 2260.59,-550.14"/>
</g>
<!-- Node32&#45;&gt;Node6 -->
<g id="edge70" class="edge">
<title>Node32&#45;&gt;Node6</title>
<path fill="none" stroke="#63b8ff" d="M1682.44,-561.34C1749.6,-550.64 1846,-522.33 1846,-448 1846,-448 1846,-448 1846,-136 1846,-76.78 1793.9,-79.8 1740,-55.25 1679.54,-27.71 1601.82,-17 1558,-12.96"/>
<polygon fill="#63b8ff" stroke="#63b8ff" points="1682.31,-557.97 1672.93,-562.91 1683.34,-564.89 1682.31,-557.97"/>
</g>
<!-- Node32&#45;&gt;Node15 -->
<g id="edge66" class="edge">
<title>Node32&#45;&gt;Node15</title>
<path fill="none" stroke="#63b8ff" d="M1555.36,-560.5C1453.48,-548.9 1255.4,-526.34 1158.34,-515.29"/>
<polygon fill="#63b8ff" stroke="#63b8ff" points="1554.77,-564.07 1565.1,-561.73 1555.56,-557.12 1554.77,-564.07"/>
</g>
<!-- Node32&#45;&gt;Node33 -->
<g id="edge67" class="edge">
<title>Node32&#45;&gt;Node33</title>
<path fill="none" stroke="#63b8ff" d="M1597.27,-552.62C1561.07,-527.42 1489.48,-477.58 1460.08,-457.11"/>
<polygon fill="#63b8ff" stroke="#63b8ff" points="1594.87,-555.91 1605.07,-558.75 1598.87,-550.16 1594.87,-555.91"/>
</g>
<!-- Node33&#45;&gt;Node3 -->
<g id="edge68" class="edge">
<title>Node33&#45;&gt;Node3</title>
<path fill="none" stroke="#63b8ff" d="M1434.78,-428.25C1422.47,-411.89 1401.92,-388.42 1378,-376.5 1272.01,-323.69 1226.4,-377.76 1114,-340.5 1065.1,-324.29 1013.46,-290.45 990.39,-274.31"/>
<polygon fill="#63b8ff" stroke="#63b8ff" points="1432.34,-429.85 1441.04,-435.91 1438.02,-425.76 1432.34,-429.85"/>
</g>
<!-- Node33&#45;&gt;Node6 -->
<g id="edge69" class="edge">
<title>Node33&#45;&gt;Node6</title>
<path fill="none" stroke="#63b8ff" d="M1466.07,-429.85C1488.87,-408.62 1524,-368.99 1524,-326.25 1524,-326.25 1524,-326.25 1524,-136 1524,-92.47 1524,-40.43 1524,-19.75"/>
<polygon fill="#63b8ff" stroke="#63b8ff" points="1464.14,-426.77 1459.03,-436.05 1468.82,-431.99 1464.14,-426.77"/>
</g>
<!-- Node34&#45;&gt;Node6 -->
<g id="edge73" class="edge">
<title>Node34&#45;&gt;Node6</title>
<path fill="none" stroke="#63b8ff" d="M2397.63,-555.76C2344.96,-540.56 2273,-508.69 2273,-448 2273,-448 2273,-448 2273,-136 2273,-73.18 2216.24,-76.15 2157,-55.25 2045.06,-15.75 1673.02,-11.13 1558.11,-10.66"/>
<polygon fill="#63b8ff" stroke="#63b8ff" points="2396.64,-559.39 2407.21,-558.67 2398.5,-552.64 2396.64,-559.39"/>
</g>
<!-- Node35&#45;&gt;Node6 -->
<g id="edge76" class="edge">
<title>Node35&#45;&gt;Node6</title>
<path fill="none" stroke="#63b8ff" d="M2529.02,-555.23C2466.07,-533.82 2349,-488.55 2349,-448 2349,-448 2349,-448 2349,-136 2349,-66.47 2281.36,-76.03 2215,-55.25 2090.38,-16.23 1679.63,-11.3 1558.14,-10.7"/>
<polygon fill="#63b8ff" stroke="#63b8ff" points="2527.78,-558.84 2538.37,-558.7 2530,-552.2 2527.78,-558.84"/>
</g>
<!-- Node36&#45;&gt;Node6 -->
<g id="edge87" class="edge">
<title>Node36&#45;&gt;Node6</title>
<path fill="none" stroke="#63b8ff" d="M456.79,-746.54C445.56,-738.7 432.59,-728.39 423,-717 349.92,-630.23 185,-378.82 185,-265.38 185,-265.38 185,-265.38 185,-136 185,-91.29 205.41,-76.03 245,-55.25 301.65,-25.52 1292.11,-13.16 1489.82,-10.98"/>
<polygon fill="#63b8ff" stroke="#63b8ff" points="454.46,-749.85 464.72,-752.51 458.35,-744.04 454.46,-749.85"/>
</g>
<!-- Node36&#45;&gt;Node14 -->
<g id="edge84" class="edge">
<title>Node36&#45;&gt;Node14</title>
<path fill="none" stroke="#63b8ff" d="M466.68,-744.3C450.03,-723.33 422.82,-686.36 407,-650.5 379.06,-587.15 364.62,-566.85 374,-498.25 375.67,-486.05 379.52,-472.63 382.76,-462.73"/>
<polygon fill="#63b8ff" stroke="#63b8ff" points="464.5,-746.17 473.5,-751.75 469.94,-741.77 464.5,-746.17"/>
</g>
<!-- Node36&#45;&gt;Node23 -->
<g id="edge86" class="edge">
<title>Node36&#45;&gt;Node23</title>
<path fill="none" stroke="#63b8ff" d="M539.15,-752.19C608.29,-740.98 722.77,-722.41 790.03,-711.5"/>
<polygon fill="#63b8ff" stroke="#63b8ff" points="538.77,-748.87 529.46,-753.93 539.89,-755.78 538.77,-748.87"/>
</g>
<!-- Node36&#45;&gt;Node28 -->
<g id="edge85" class="edge">
<title>Node36&#45;&gt;Node28</title>
<path fill="none" stroke="#63b8ff" d="M539.1,-761.5C728.9,-760.72 1329.38,-755.21 1519,-717 1595.95,-701.49 1681.81,-662.94 1718.62,-645.31"/>
<polygon fill="#63b8ff" stroke="#63b8ff" points="539.24,-758 529.25,-761.54 539.26,-765 539.24,-758"/>
</g>
<!-- Node37 -->
<g id="node37" class="node">
<title>Node37</title>
<g id="a_node37"><a xlink:href="v8-external_8h.html" target="_top" xlink:title=" ">
<polygon fill="white" stroke="#666666" points="208.25,-456.62 103.75,-456.62 103.75,-437.38 208.25,-437.38 208.25,-456.62"/>
<text text-anchor="middle" x="156" y="-443.12" font-family="Helvetica,sans-Serif" font-size="10.00">include/v8&#45;external.h</text>
</a>
</g>
</g>
<!-- Node36&#45;&gt;Node37 -->
<g id="edge82" class="edge">
<title>Node36&#45;&gt;Node37</title>
<path fill="none" stroke="#63b8ff" d="M442.35,-748.96C421.33,-741.23 395.34,-730.29 374,-717 260.47,-646.3 179.61,-495.29 160.39,-456.98"/>
<polygon fill="#63b8ff" stroke="#63b8ff" points="440.93,-752.53 451.53,-752.59 443.29,-745.93 440.93,-752.53"/>
</g>
<!-- Node37&#45;&gt;Node6 -->
<g id="edge83" class="edge">
<title>Node37&#45;&gt;Node6</title>
<path fill="none" stroke="#63b8ff" d="M153.61,-426.31C150.94,-402.61 147,-361.58 147,-326.25 147,-326.25 147,-326.25 147,-136 147,-98.56 141.36,-78.13 171,-55.25 224.75,-13.76 1284.28,-10.81 1489.68,-10.63"/>
<polygon fill="#63b8ff" stroke="#63b8ff" points="150.22,-426.48 154.86,-436 157.18,-425.67 150.22,-426.48"/>
</g>
<!-- Node39 -->
<g id="node39" class="node">
<title>Node39</title>
<g id="a_node39"><a xlink:href="v8-unwinder_8h.html" target="_top" xlink:title=" ">
<polygon fill="white" stroke="#666666" points="2486.88,-334.88 2377.12,-334.88 2377.12,-315.62 2486.88,-315.62 2486.88,-334.88"/>
<text text-anchor="middle" x="2432" y="-321.38" font-family="Helvetica,sans-Serif" font-size="10.00">include/v8&#45;unwinder.h</text>
</a>
</g>
</g>
<!-- Node38&#45;&gt;Node39 -->
<g id="edge91" class="edge">
<title>Node38&#45;&gt;Node39</title>
<path fill="none" stroke="#63b8ff" d="M2435.77,-802.8C2514.57,-760.65 2683,-653.62 2683,-508.88 2683,-508.88 2683,-508.88 2683,-446 2683,-359.82 2560.97,-335.6 2487.08,-328.83"/>
<polygon fill="#63b8ff" stroke="#63b8ff" points="2434.39,-800.1 2427.17,-807.85 2437.65,-806.3 2434.39,-800.1"/>
</g>
<!-- Node39&#45;&gt;Node3 -->
<g id="edge92" class="edge">
<title>Node39&#45;&gt;Node3</title>
<path fill="none" stroke="#63b8ff" d="M2366.15,-321.58C2118.57,-311.56 1246.49,-276.25 1027.95,-267.4"/>
<polygon fill="#63b8ff" stroke="#63b8ff" points="2365.64,-325.11 2375.78,-322.01 2365.93,-318.11 2365.64,-325.11"/>
</g>
<!-- Node39&#45;&gt;Node6 -->
<g id="edge93" class="edge">
<title>Node39&#45;&gt;Node6</title>
<path fill="none" stroke="#63b8ff" d="M2425.99,-305.07C2419.17,-281.6 2409,-240.54 2409,-204.5 2409,-204.5 2409,-204.5 2409,-136 2409,-94.7 2398.15,-76.95 2363,-55.25 2293.73,-12.49 1707.21,-10.37 1558.28,-10.53"/>
<polygon fill="#63b8ff" stroke="#63b8ff" points="2422.85,-305.79 2429.09,-314.35 2429.55,-303.76 2422.85,-305.79"/>
</g>
<!-- Node41&#45;&gt;Node6 -->
<g id="edge103" class="edge">
<title>Node41&#45;&gt;Node6</title>
<path fill="none" stroke="#63b8ff" d="M2798.88,-243.46C2799.53,-200.85 2794.32,-100.99 2735,-55.25 2687.15,-18.36 1749.8,-11.74 1558.08,-10.77"/>
<polygon fill="#63b8ff" stroke="#63b8ff" points="2795.35,-243.2 2798.56,-253.3 2802.35,-243.41 2795.35,-243.2"/>
</g>
<!-- Node42&#45;&gt;Node6 -->
<g id="edge107" class="edge">
<title>Node42&#45;&gt;Node6</title>
<path fill="none" stroke="#63b8ff" d="M2793.92,-56.78C2789.9,-56.2 2785.9,-55.68 2782,-55.25 2534.92,-27.86 1733.5,-13.91 1558.12,-11.14"/>
<polygon fill="#63b8ff" stroke="#63b8ff" points="2793.17,-60.36 2803.59,-58.45 2794.25,-53.45 2793.17,-60.36"/>
</g>
<!-- Node43&#45;&gt;Node3 -->
<g id="edge110" class="edge">
<title>Node43&#45;&gt;Node3</title>
<path fill="none" stroke="#63b8ff" d="M1455.62,-675.33C1454.39,-659.31 1452.12,-638.27 1448,-620 1441.11,-589.49 1436.66,-582.52 1425,-553.5 1408.35,-512.08 1401.38,-502.94 1383,-462.25 1365.84,-424.26 1378.53,-401.27 1345,-376.5 1236.27,-296.19 1162.39,-403.89 1043,-340.5 1013.91,-325.05 992.04,-290.84 982.82,-274.46"/>
<polygon fill="#63b8ff" stroke="#63b8ff" points="1452.17,-675.26 1456.34,-685 1459.16,-674.79 1452.17,-675.26"/>
</g>
<!-- Node43&#45;&gt;Node6 -->
<g id="edge114" class="edge">
<title>Node43&#45;&gt;Node6</title>
<path fill="none" stroke="#63b8ff" d="M1468.88,-676.35C1496.36,-617.58 1562,-462.92 1562,-326.25 1562,-326.25 1562,-326.25 1562,-136 1562,-90.51 1538.81,-39.58 1528.66,-19.47"/>
<polygon fill="#63b8ff" stroke="#63b8ff" points="1465.34,-674.65 1464.22,-685.18 1471.67,-677.65 1465.34,-674.65"/>
</g>
<!-- Node43&#45;&gt;Node18 -->
<g id="edge112" class="edge">
<title>Node43&#45;&gt;Node18</title>
<path fill="none" stroke="#63b8ff" d="M1450.58,-676.03C1442.28,-646.05 1426.32,-594.44 1405,-553.5 1371.04,-488.3 1314.2,-419.76 1293.68,-395.91"/>
<polygon fill="#63b8ff" stroke="#63b8ff" points="1447.4,-676.66 1453.38,-685.4 1454.15,-674.83 1447.4,-676.66"/>
</g>
<!-- Node43&#45;&gt;Node27 -->
<g id="edge113" class="edge">
<title>Node43&#45;&gt;Node27</title>
<path fill="none" stroke="#63b8ff" d="M1435,-678.63C1426.86,-670.09 1417.73,-660.08 1410,-650.5 1389.85,-625.54 1369.1,-593.69 1359.49,-578.53"/>
<polygon fill="#63b8ff" stroke="#63b8ff" points="1431.96,-680.56 1441.43,-685.31 1436.99,-675.69 1431.96,-680.56"/>
</g>
<!-- Node43&#45;&gt;Node28 -->
<g id="edge111" class="edge">
<title>Node43&#45;&gt;Node28</title>
<path fill="none" stroke="#63b8ff" d="M1520.88,-686.03C1575.22,-673.52 1651.53,-655.94 1697.43,-645.37"/>
<polygon fill="#63b8ff" stroke="#63b8ff" points="1520.28,-682.81 1511.32,-688.47 1521.86,-689.63 1520.28,-682.81"/>
</g>
<!-- Node44&#45;&gt;Node6 -->
<g id="edge130" class="edge">
<title>Node44&#45;&gt;Node6</title>
<path fill="none" stroke="#63b8ff" d="M2694.56,-680.89C2696.71,-664.53 2699.91,-640.74 2703,-620 2710.38,-570.51 2721,-558.91 2721,-508.88 2721,-508.88 2721,-508.88 2721,-136 2721,-15.79 1753.74,-10.39 1558.21,-10.52"/>
<polygon fill="#63b8ff" stroke="#63b8ff" points="2690.97,-680.41 2693.15,-690.78 2697.91,-681.31 2690.97,-680.41"/>
</g>
<!-- Node44&#45;&gt;Node28 -->
<g id="edge129" class="edge">
<title>Node44&#45;&gt;Node28</title>
<path fill="none" stroke="#63b8ff" d="M2616.21,-695.63C2427.73,-682.9 1941.87,-650.09 1785.95,-639.56"/>
<polygon fill="#63b8ff" stroke="#63b8ff" points="2615.9,-699.19 2626.11,-696.37 2616.37,-692.2 2615.9,-699.19"/>
</g>
<!-- Node45 -->
<g id="node45" class="node">
<title>Node45</title>
<g id="a_node45"><a xlink:href="v8-cppgc_8h.html" target="_top" xlink:title=" ">
<polygon fill="white" stroke="#666666" points="2808.5,-644.88 2711.5,-644.88 2711.5,-625.62 2808.5,-625.62 2808.5,-644.88"/>
<text text-anchor="middle" x="2760" y="-631.38" font-family="Helvetica,sans-Serif" font-size="10.00">include/v8&#45;cppgc.h</text>
</a>
</g>
</g>
<!-- Node44&#45;&gt;Node45 -->
<g id="edge126" class="edge">
<title>Node44&#45;&gt;Node45</title>
<path fill="none" stroke="#63b8ff" d="M2709.33,-684.31C2722.46,-671.86 2740,-655.22 2750.63,-645.14"/>
<polygon fill="#63b8ff" stroke="#63b8ff" points="2707.3,-681.36 2702.46,-690.78 2712.12,-686.44 2707.3,-681.36"/>
</g>
<!-- Node46 -->
<g id="node46" class="node">
<title>Node46</title>
<g id="a_node46"><a xlink:href="v8-embedder-heap_8h.html" target="_top" xlink:title=" ">
<polygon fill="white" stroke="#666666" points="1382,-340.5 1276,-340.5 1276,-310 1382,-310 1382,-340.5"/>
<text text-anchor="start" x="1284" y="-327" font-family="Helvetica,sans-Serif" font-size="10.00">include/v8&#45;embedder</text>
<text text-anchor="middle" x="1329" y="-315.75" font-family="Helvetica,sans-Serif" font-size="10.00">&#45;heap.h</text>
</a>
</g>
</g>
<!-- Node44&#45;&gt;Node46 -->
<g id="edge127" class="edge">
<title>Node44&#45;&gt;Node46</title>
<path fill="none" stroke="#63b8ff" d="M2683.35,-682C2679.02,-672.56 2673.7,-660.94 2669,-650.5 2649.63,-607.5 2662.59,-583.24 2626,-553.5 2312.71,-298.84 2134.44,-435.25 1735,-376.5 1608.87,-357.95 1460.01,-340.71 1382.31,-332.06"/>
<polygon fill="#63b8ff" stroke="#63b8ff" points="2680.54,-683.25 2687.9,-690.87 2686.89,-680.32 2680.54,-683.25"/>
</g>
<!-- Node46&#45;&gt;Node3 -->
<g id="edge128" class="edge">
<title>Node46&#45;&gt;Node3</title>
<path fill="none" stroke="#63b8ff" d="M1264.94,-310.55C1263.95,-310.36 1262.97,-310.18 1262,-310 1180.28,-294.9 1084.73,-280.57 1027.9,-272.39"/>
<polygon fill="#63b8ff" stroke="#63b8ff" points="1264.17,-314.16 1274.66,-312.63 1265.51,-307.29 1264.17,-314.16"/>
</g>
<!-- Node47&#45;&gt;Node6 -->
<g id="edge133" class="edge">
<title>Node47&#45;&gt;Node6</title>
<path fill="none" stroke="#63b8ff" d="M2966.89,-741.79C2962.15,-717.15 2955,-673.79 2955,-636.25 2955,-636.25 2955,-636.25 2955,-136 2955,-96.88 2952.35,-77.24 2920,-55.25 2861.96,-15.81 1767.31,-11.21 1558.32,-10.69"/>
<polygon fill="#63b8ff" stroke="#63b8ff" points="2963.65,-742.43 2969.04,-751.55 2970.51,-741.06 2963.65,-742.43"/>
</g>
</g>
</svg>
