<?xml version="1.0" encoding="UTF-8" standalone="no"?>
<!DOCTYPE svg PUBLIC "-//W3C//DTD SVG 1.1//EN"
 "http://www.w3.org/Graphics/SVG/1.1/DTD/svg11.dtd">
<!-- Generated by graphviz version 8.0.5 (20230430.1635)
 -->
<!-- Title: include/v8&#45;maybe.h Pages: 1 -->
<svg width="2029pt" height="791pt"
 viewBox="0.00 0.00 2029.47 790.50" xmlns="http://www.w3.org/2000/svg" xmlns:xlink="http://www.w3.org/1999/xlink">
<g id="graph0" class="graph" transform="scale(1 1) rotate(0) translate(4 786.5)">
<title>include/v8&#45;maybe.h</title>
<!-- Node1 -->
<g id="node1" class="node">
<title>Node1</title>
<g id="a_node1"><a xlink:title=" ">
<polygon fill="#999999" stroke="#666666" points="620.1,-782.5 520.85,-782.5 520.85,-763.25 620.1,-763.25 620.1,-782.5"/>
<text text-anchor="middle" x="570.47" y="-769" font-family="Helvetica,sans-Serif" font-size="10.00">include/v8&#45;maybe.h</text>
</a>
</g>
</g>
<!-- Node2 -->
<g id="node2" class="node">
<title>Node2</title>
<g id="a_node2"><a xlink:href="v8-context_8h.html" target="_top" xlink:title=" ">
<polygon fill="white" stroke="#666666" points="593.6,-135.38 491.35,-135.38 491.35,-116.12 593.6,-116.12 593.6,-135.38"/>
<text text-anchor="middle" x="542.47" y="-121.88" font-family="Helvetica,sans-Serif" font-size="10.00">include/v8&#45;context.h</text>
</a>
</g>
</g>
<!-- Node1&#45;&gt;Node2 -->
<g id="edge1" class="edge">
<title>Node1&#45;&gt;Node2</title>
<path fill="none" stroke="#63b8ff" d="M509.9,-764.84C413.38,-751.93 235.47,-720.4 235.47,-663.38 235.47,-663.38 235.47,-663.38 235.47,-490 235.47,-357.95 356.07,-376.38 439.47,-274 480.06,-224.17 522.02,-159.19 536.87,-135.71"/>
<polygon fill="#63b8ff" stroke="#63b8ff" points="509.31,-768.43 519.68,-766.25 510.22,-761.49 509.31,-768.43"/>
</g>
<!-- Node4 -->
<g id="node4" class="node">
<title>Node4</title>
<g id="a_node4"><a xlink:href="v8_8h.html" target="_top" xlink:title=" ">
<polygon fill="white" stroke="#666666" points="839.35,-19.25 771.6,-19.25 771.6,0 839.35,0 839.35,-19.25"/>
<text text-anchor="middle" x="805.47" y="-5.75" font-family="Helvetica,sans-Serif" font-size="10.00">include/v8.h</text>
</a>
</g>
</g>
<!-- Node1&#45;&gt;Node4 -->
<g id="edge83" class="edge">
<title>Node1&#45;&gt;Node4</title>
<path fill="none" stroke="#63b8ff" d="M509.68,-770.49C428.65,-767.47 281.3,-757.86 159.47,-727.25 86.01,-708.79 1.47,-739.12 1.47,-663.38 1.47,-663.38 1.47,-663.38 1.47,-124.75 1.47,-92.73 -4.42,-75.39 20.47,-55.25 79.43,-7.54 627.68,-9.04 771.21,-10.26"/>
<polygon fill="#63b8ff" stroke="#63b8ff" points="509.55,-774.03 519.67,-770.88 509.8,-767.03 509.55,-774.03"/>
</g>
<!-- Node5 -->
<g id="node5" class="node">
<title>Node5</title>
<g id="a_node5"><a xlink:href="v8-message_8h.html" target="_top" xlink:title=" ">
<polygon fill="white" stroke="#666666" points="1854.72,-439.75 1744.22,-439.75 1744.22,-420.5 1854.72,-420.5 1854.72,-439.75"/>
<text text-anchor="middle" x="1799.47" y="-426.25" font-family="Helvetica,sans-Serif" font-size="10.00">include/v8&#45;message.h</text>
</a>
</g>
</g>
<!-- Node1&#45;&gt;Node5 -->
<g id="edge5" class="edge">
<title>Node1&#45;&gt;Node5</title>
<path fill="none" stroke="#63b8ff" d="M631.05,-770.05C888.1,-761.94 1875.47,-726.66 1875.47,-663.38 1875.47,-663.38 1875.47,-663.38 1875.47,-550.88 1875.47,-502.86 1831.38,-458.51 1810.36,-440.1"/>
<polygon fill="#63b8ff" stroke="#63b8ff" points="631.32,-766.58 621.43,-770.39 631.54,-773.57 631.32,-766.58"/>
</g>
<!-- Node8 -->
<g id="node8" class="node">
<title>Node8</title>
<g id="a_node8"><a xlink:href="v8-script_8h.html" target="_top" xlink:title=" ">
<polygon fill="white" stroke="#666666" points="1993.85,-384.5 1899.1,-384.5 1899.1,-365.25 1993.85,-365.25 1993.85,-384.5"/>
<text text-anchor="middle" x="1946.47" y="-371" font-family="Helvetica,sans-Serif" font-size="10.00">include/v8&#45;script.h</text>
</a>
</g>
</g>
<!-- Node1&#45;&gt;Node8 -->
<g id="edge62" class="edge">
<title>Node1&#45;&gt;Node8</title>
<path fill="none" stroke="#63b8ff" d="M631.02,-772.41C792.32,-773.18 1245.59,-770.93 1619.47,-727.25 1768.72,-709.81 1951.47,-813.64 1951.47,-663.38 1951.47,-663.38 1951.47,-663.38 1951.47,-490 1951.47,-450.73 1948.48,-403.94 1947.13,-384.75"/>
<polygon fill="#63b8ff" stroke="#63b8ff" points="631.39,-768.91 621.37,-772.36 631.35,-775.91 631.39,-768.91"/>
</g>
<!-- Node17 -->
<g id="node17" class="node">
<title>Node17</title>
<g id="a_node17"><a xlink:href="v8-object_8h.html" target="_top" xlink:title=" ">
<polygon fill="white" stroke="#666666" points="618.97,-616.75 521.97,-616.75 521.97,-597.5 618.97,-597.5 618.97,-616.75"/>
<text text-anchor="middle" x="570.47" y="-603.25" font-family="Helvetica,sans-Serif" font-size="10.00">include/v8&#45;object.h</text>
</a>
</g>
</g>
<!-- Node1&#45;&gt;Node17 -->
<g id="edge25" class="edge">
<title>Node1&#45;&gt;Node17</title>
<path fill="none" stroke="#63b8ff" d="M570.47,-752.19C570.47,-716.5 570.47,-642.46 570.47,-616.97"/>
<polygon fill="#63b8ff" stroke="#63b8ff" points="566.97,-752.07 570.47,-762.07 573.97,-752.07 566.97,-752.07"/>
</g>
<!-- Node31 -->
<g id="node31" class="node">
<title>Node31</title>
<g id="a_node31"><a xlink:href="v8-value-serializer_8h.html" target="_top" xlink:title=" ">
<polygon fill="white" stroke="#666666" points="165.1,-74.5 29.85,-74.5 29.85,-55.25 165.1,-55.25 165.1,-74.5"/>
<text text-anchor="middle" x="97.47" y="-61" font-family="Helvetica,sans-Serif" font-size="10.00">include/v8&#45;value&#45;serializer.h</text>
</a>
</g>
</g>
<!-- Node1&#45;&gt;Node31 -->
<g id="edge63" class="edge">
<title>Node1&#45;&gt;Node31</title>
<path fill="none" stroke="#63b8ff" d="M509.43,-769.64C387.72,-763.51 126.47,-741.29 126.47,-663.38 126.47,-663.38 126.47,-663.38 126.47,-191.25 126.47,-146.57 108.77,-95.18 101.03,-74.83"/>
<polygon fill="#63b8ff" stroke="#63b8ff" points="509.25,-773.18 519.4,-770.17 509.58,-766.19 509.25,-773.18"/>
</g>
<!-- Node32 -->
<g id="node32" class="node">
<title>Node32</title>
<g id="a_node32"><a xlink:href="v8-value_8h.html" target="_top" xlink:title=" ">
<polygon fill="white" stroke="#666666" points="693.47,-727.25 599.47,-727.25 599.47,-708 693.47,-708 693.47,-727.25"/>
<text text-anchor="middle" x="646.47" y="-713.75" font-family="Helvetica,sans-Serif" font-size="10.00">include/v8&#45;value.h</text>
</a>
</g>
</g>
<!-- Node1&#45;&gt;Node32 -->
<g id="edge65" class="edge">
<title>Node1&#45;&gt;Node32</title>
<path fill="none" stroke="#63b8ff" d="M592.37,-756.53C605.69,-747.2 622.25,-735.6 633.52,-727.7"/>
<polygon fill="#63b8ff" stroke="#63b8ff" points="590.55,-754.24 584.37,-762.84 594.56,-759.97 590.55,-754.24"/>
</g>
<!-- Node3 -->
<g id="node3" class="node">
<title>Node3</title>
<g id="a_node3"><a xlink:href="v8-proxy_8h.html" target="_top" xlink:title=" ">
<polygon fill="white" stroke="#666666" points="555.1,-74.5 461.85,-74.5 461.85,-55.25 555.1,-55.25 555.1,-74.5"/>
<text text-anchor="middle" x="508.47" y="-61" font-family="Helvetica,sans-Serif" font-size="10.00">include/v8&#45;proxy.h</text>
</a>
</g>
</g>
<!-- Node2&#45;&gt;Node3 -->
<g id="edge2" class="edge">
<title>Node2&#45;&gt;Node3</title>
<path fill="none" stroke="#63b8ff" d="M531.82,-106.31C525.78,-95.85 518.5,-83.23 513.69,-74.9"/>
<polygon fill="#63b8ff" stroke="#63b8ff" points="529.28,-107.9 537.31,-114.81 535.34,-104.4 529.28,-107.9"/>
</g>
<!-- Node2&#45;&gt;Node4 -->
<g id="edge4" class="edge">
<title>Node2&#45;&gt;Node4</title>
<path fill="none" stroke="#63b8ff" d="M554.31,-106.99C565.94,-90.97 585.16,-68.04 607.47,-55.25 659.6,-25.38 730.12,-15.51 771.41,-12.24"/>
<polygon fill="#63b8ff" stroke="#63b8ff" points="550.94,-104.71 548.09,-114.91 556.68,-108.71 550.94,-104.71"/>
</g>
<!-- Node3&#45;&gt;Node4 -->
<g id="edge3" class="edge">
<title>Node3&#45;&gt;Node4</title>
<path fill="none" stroke="#63b8ff" d="M566.12,-53.54C627,-42.62 720.96,-25.78 771.13,-16.78"/>
<polygon fill="#63b8ff" stroke="#63b8ff" points="565.76,-50.23 556.53,-55.44 566.99,-57.12 565.76,-50.23"/>
</g>
<!-- Node5&#45;&gt;Node4 -->
<g id="edge24" class="edge">
<title>Node5&#45;&gt;Node4</title>
<path fill="none" stroke="#63b8ff" d="M1786.59,-411.19C1772.98,-390.43 1753.47,-354.74 1753.47,-320.62 1753.47,-320.62 1753.47,-320.62 1753.47,-124.75 1753.47,-92.07 1755.62,-74.85 1729.47,-55.25 1693.21,-28.07 1002.37,-14.12 839.61,-11.21"/>
<polygon fill="#63b8ff" stroke="#63b8ff" points="1784.15,-412.82 1792.69,-419.1 1789.93,-408.87 1784.15,-412.82"/>
</g>
<!-- Node6 -->
<g id="node6" class="node">
<title>Node6</title>
<g id="a_node6"><a xlink:href="v8-function_8h.html" target="_top" xlink:title=" ">
<polygon fill="white" stroke="#666666" points="1048.1,-384.5 942.85,-384.5 942.85,-365.25 1048.1,-365.25 1048.1,-384.5"/>
<text text-anchor="middle" x="995.47" y="-371" font-family="Helvetica,sans-Serif" font-size="10.00">include/v8&#45;function.h</text>
</a>
</g>
</g>
<!-- Node5&#45;&gt;Node6 -->
<g id="edge6" class="edge">
<title>Node5&#45;&gt;Node6</title>
<path fill="none" stroke="#63b8ff" d="M1733.07,-424.73C1577.13,-414.4 1190.01,-388.76 1048.42,-379.38"/>
<polygon fill="#63b8ff" stroke="#63b8ff" points="1732.68,-428.28 1742.89,-425.44 1733.15,-421.29 1732.68,-428.28"/>
</g>
<!-- Node7 -->
<g id="node7" class="node">
<title>Node7</title>
<g id="a_node7"><a xlink:href="v8-profiler_8h.html" target="_top" xlink:title=" ">
<polygon fill="white" stroke="#666666" points="1881.1,-384.5 1781.85,-384.5 1781.85,-365.25 1881.1,-365.25 1881.1,-384.5"/>
<text text-anchor="middle" x="1831.47" y="-371" font-family="Helvetica,sans-Serif" font-size="10.00">include/v8&#45;profiler.h</text>
</a>
</g>
</g>
<!-- Node5&#45;&gt;Node7 -->
<g id="edge8" class="edge">
<title>Node5&#45;&gt;Node7</title>
<path fill="none" stroke="#63b8ff" d="M1810.42,-410.9C1815.71,-402.11 1821.8,-391.96 1826.07,-384.86"/>
<polygon fill="#63b8ff" stroke="#63b8ff" points="1806.91,-408.96 1804.76,-419.33 1812.91,-412.56 1806.91,-408.96"/>
</g>
<!-- Node5&#45;&gt;Node8 -->
<g id="edge9" class="edge">
<title>Node5&#45;&gt;Node8</title>
<path fill="none" stroke="#63b8ff" d="M1834.52,-416.43C1861.28,-406.74 1897.51,-393.61 1921.41,-384.95"/>
<polygon fill="#63b8ff" stroke="#63b8ff" points="1833.62,-413.4 1825.41,-420.09 1836,-419.98 1833.62,-413.4"/>
</g>
<!-- Node6&#45;&gt;Node4 -->
<g id="edge7" class="edge">
<title>Node6&#45;&gt;Node4</title>
<path fill="none" stroke="#63b8ff" d="M978.62,-357.35C950.75,-329.11 895.02,-268.68 863.47,-207.5 831.2,-144.89 839.79,-122.69 819.47,-55.25 815.72,-42.81 811.19,-28.49 808.32,-19.5"/>
<polygon fill="#63b8ff" stroke="#63b8ff" points="975.77,-359.45 985.32,-364.04 980.72,-354.49 975.77,-359.45"/>
</g>
<!-- Node8&#45;&gt;Node4 -->
<g id="edge23" class="edge">
<title>Node8&#45;&gt;Node4</title>
<path fill="none" stroke="#63b8ff" d="M1941.18,-354.24C1935.56,-331.63 1927.47,-293.29 1927.47,-259.75 1927.47,-259.75 1927.47,-259.75 1927.47,-124.75 1927.47,-57.66 1858.28,-72.61 1793.47,-55.25 1699.87,-30.17 1003.05,-14.62 839.68,-11.3"/>
<polygon fill="#63b8ff" stroke="#63b8ff" points="1938.02,-354.99 1943.91,-363.79 1944.79,-353.23 1938.02,-354.99"/>
</g>
<!-- Node9 -->
<g id="node9" class="node">
<title>Node9</title>
<g id="a_node9"><a xlink:href="v8-debug_8h.html" target="_top" xlink:title=" ">
<polygon fill="white" stroke="#666666" points="1878.97,-329.25 1781.97,-329.25 1781.97,-310 1878.97,-310 1878.97,-329.25"/>
<text text-anchor="middle" x="1830.47" y="-315.75" font-family="Helvetica,sans-Serif" font-size="10.00">include/v8&#45;debug.h</text>
</a>
</g>
</g>
<!-- Node8&#45;&gt;Node9 -->
<g id="edge10" class="edge">
<title>Node8&#45;&gt;Node9</title>
<path fill="none" stroke="#63b8ff" d="M1916.84,-360.27C1895.94,-350.68 1868.53,-338.09 1850.25,-329.7"/>
<polygon fill="#63b8ff" stroke="#63b8ff" points="1915.25,-363.85 1925.8,-364.84 1918.17,-357.49 1915.25,-363.85"/>
</g>
<!-- Node9&#45;&gt;Node4 -->
<g id="edge22" class="edge">
<title>Node9&#45;&gt;Node4</title>
<path fill="none" stroke="#63b8ff" d="M1825.41,-299.18C1819.49,-274.66 1810.47,-231.13 1810.47,-193.25 1810.47,-193.25 1810.47,-193.25 1810.47,-124.75 1810.47,-88.43 1798.78,-73.66 1767.47,-55.25 1686.22,-7.48 1001.68,-9.24 839.72,-10.34"/>
<polygon fill="#63b8ff" stroke="#63b8ff" points="1822.19,-299.73 1828.02,-308.58 1828.98,-298.03 1822.19,-299.73"/>
</g>
<!-- Node10 -->
<g id="node10" class="node">
<title>Node10</title>
<g id="a_node10"><a xlink:href="v8-isolate_8h.html" target="_top" xlink:title=" ">
<polygon fill="white" stroke="#666666" points="1372.1,-268.38 1272.85,-268.38 1272.85,-249.12 1372.1,-249.12 1372.1,-268.38"/>
<text text-anchor="middle" x="1322.47" y="-254.88" font-family="Helvetica,sans-Serif" font-size="10.00">include/v8&#45;isolate.h</text>
</a>
</g>
</g>
<!-- Node9&#45;&gt;Node10 -->
<g id="edge11" class="edge">
<title>Node9&#45;&gt;Node10</title>
<path fill="none" stroke="#63b8ff" d="M1770.84,-311.71C1669.78,-300 1466.7,-276.46 1372.53,-265.55"/>
<polygon fill="#63b8ff" stroke="#63b8ff" points="1770.43,-315.31 1780.76,-312.98 1771.23,-308.35 1770.43,-315.31"/>
</g>
<!-- Node10&#45;&gt;Node4 -->
<g id="edge21" class="edge">
<title>Node10&#45;&gt;Node4</title>
<path fill="none" stroke="#63b8ff" d="M1350.09,-243.13C1363.08,-234.63 1377.28,-222.6 1384.47,-207.5 1390.31,-195.26 1391.51,-188.59 1384.47,-177 1325.9,-80.57 954.81,-28.51 839.57,-14.52"/>
<polygon fill="#63b8ff" stroke="#63b8ff" points="1348.68,-240.5 1341.96,-248.69 1352.32,-246.48 1348.68,-240.5"/>
</g>
<!-- Node11 -->
<g id="node11" class="node">
<title>Node11</title>
<g id="a_node11"><a xlink:href="v8-external-memory-accounter_8h.html" target="_top" xlink:title=" ">
<polygon fill="white" stroke="#666666" points="1375.85,-207.5 1269.1,-207.5 1269.1,-177 1375.85,-177 1375.85,-207.5"/>
<text text-anchor="start" x="1277.1" y="-194" font-family="Helvetica,sans-Serif" font-size="10.00">include/v8&#45;external</text>
<text text-anchor="middle" x="1322.47" y="-182.75" font-family="Helvetica,sans-Serif" font-size="10.00">&#45;memory&#45;accounter.h</text>
</a>
</g>
</g>
<!-- Node10&#45;&gt;Node11 -->
<g id="edge12" class="edge">
<title>Node10&#45;&gt;Node11</title>
<path fill="none" stroke="#63b8ff" d="M1322.47,-238.02C1322.47,-228.2 1322.47,-216.55 1322.47,-207.59"/>
<polygon fill="#63b8ff" stroke="#63b8ff" points="1318.97,-237.78 1322.47,-247.78 1325.97,-237.78 1318.97,-237.78"/>
</g>
<!-- Node12 -->
<g id="node12" class="node">
<title>Node12</title>
<g id="a_node12"><a xlink:href="v8-initialization_8h.html" target="_top" xlink:title=" ">
<polygon fill="white" stroke="#666666" points="992.97,-201.88 871.97,-201.88 871.97,-182.62 992.97,-182.62 992.97,-201.88"/>
<text text-anchor="middle" x="932.47" y="-188.38" font-family="Helvetica,sans-Serif" font-size="10.00">include/v8&#45;initialization.h</text>
</a>
</g>
</g>
<!-- Node10&#45;&gt;Node12 -->
<g id="edge13" class="edge">
<title>Node10&#45;&gt;Node12</title>
<path fill="none" stroke="#63b8ff" d="M1273.61,-246.45C1268.51,-245.4 1263.39,-244.39 1258.47,-243.5 1145.42,-223 1115.71,-226.97 1002.47,-207.5 993.55,-205.97 984.02,-204.15 974.97,-202.33"/>
<polygon fill="#63b8ff" stroke="#63b8ff" points="1272.48,-250 1282.99,-248.66 1273.94,-243.16 1272.48,-250"/>
</g>
<!-- Node13 -->
<g id="node13" class="node">
<title>Node13</title>
<g id="a_node13"><a xlink:href="v8-inspector_8h.html" target="_top" xlink:title=" ">
<polygon fill="white" stroke="#666666" points="1250.72,-201.88 1140.22,-201.88 1140.22,-182.62 1250.72,-182.62 1250.72,-201.88"/>
<text text-anchor="middle" x="1195.47" y="-188.38" font-family="Helvetica,sans-Serif" font-size="10.00">include/v8&#45;inspector.h</text>
</a>
</g>
</g>
<!-- Node10&#45;&gt;Node13 -->
<g id="edge15" class="edge">
<title>Node10&#45;&gt;Node13</title>
<path fill="none" stroke="#63b8ff" d="M1295,-243.8C1270.23,-231.22 1234.54,-213.09 1213.31,-202.31"/>
<polygon fill="#63b8ff" stroke="#63b8ff" points="1293.05,-247.24 1303.55,-248.65 1296.22,-241 1293.05,-247.24"/>
</g>
<!-- Node15 -->
<g id="node15" class="node">
<title>Node15</title>
<g id="a_node15"><a xlink:href="v8-metrics_8h.html" target="_top" xlink:title=" ">
<polygon fill="white" stroke="#666666" points="1534.97,-201.88 1431.97,-201.88 1431.97,-182.62 1534.97,-182.62 1534.97,-201.88"/>
<text text-anchor="middle" x="1483.47" y="-188.38" font-family="Helvetica,sans-Serif" font-size="10.00">include/v8&#45;metrics.h</text>
</a>
</g>
</g>
<!-- Node10&#45;&gt;Node15 -->
<g id="edge17" class="edge">
<title>Node10&#45;&gt;Node15</title>
<path fill="none" stroke="#63b8ff" d="M1355.23,-244.63C1386.68,-232.03 1433.35,-213.33 1460.86,-202.31"/>
<polygon fill="#63b8ff" stroke="#63b8ff" points="1354.18,-241.68 1346.2,-248.65 1356.78,-248.18 1354.18,-241.68"/>
</g>
<!-- Node16 -->
<g id="node16" class="node">
<title>Node16</title>
<g id="a_node16"><a xlink:href="v8-snapshot_8h.html" target="_top" xlink:title=" ">
<polygon fill="white" stroke="#666666" points="1121.72,-201.88 1011.22,-201.88 1011.22,-182.62 1121.72,-182.62 1121.72,-201.88"/>
<text text-anchor="middle" x="1066.47" y="-188.38" font-family="Helvetica,sans-Serif" font-size="10.00">include/v8&#45;snapshot.h</text>
</a>
</g>
</g>
<!-- Node10&#45;&gt;Node16 -->
<g id="edge18" class="edge">
<title>Node10&#45;&gt;Node16</title>
<path fill="none" stroke="#63b8ff" d="M1275.83,-246C1225.91,-233.42 1147.79,-213.74 1102.42,-202.31"/>
<polygon fill="#63b8ff" stroke="#63b8ff" points="1274.79,-249.6 1285.34,-248.65 1276.5,-242.81 1274.79,-249.6"/>
</g>
<!-- Node12&#45;&gt;Node4 -->
<g id="edge14" class="edge">
<title>Node12&#45;&gt;Node4</title>
<path fill="none" stroke="#63b8ff" d="M924.7,-172.44C912.78,-144.94 888.13,-92.94 857.47,-55.25 845.91,-41.04 829.44,-27.77 818.16,-19.46"/>
<polygon fill="#63b8ff" stroke="#63b8ff" points="921.76,-173.47 928.88,-181.31 928.2,-170.74 921.76,-173.47"/>
</g>
<!-- Node14 -->
<g id="node14" class="node">
<title>Node14</title>
<g id="a_node14"><a xlink:href="v8-inspector-protocol_8h.html" target="_top" xlink:title=" ">
<polygon fill="white" stroke="#666666" points="1246.97,-141 1143.97,-141 1143.97,-110.5 1246.97,-110.5 1246.97,-141"/>
<text text-anchor="start" x="1151.97" y="-127.5" font-family="Helvetica,sans-Serif" font-size="10.00">include/v8&#45;inspector</text>
<text text-anchor="middle" x="1195.47" y="-116.25" font-family="Helvetica,sans-Serif" font-size="10.00">&#45;protocol.h</text>
</a>
</g>
</g>
<!-- Node13&#45;&gt;Node14 -->
<g id="edge16" class="edge">
<title>Node13&#45;&gt;Node14</title>
<path fill="none" stroke="#63b8ff" d="M1195.47,-171.52C1195.47,-161.7 1195.47,-150.05 1195.47,-141.09"/>
<polygon fill="#63b8ff" stroke="#63b8ff" points="1191.97,-171.28 1195.47,-181.28 1198.97,-171.28 1191.97,-171.28"/>
</g>
<!-- Node16&#45;&gt;Node2 -->
<g id="edge19" class="edge">
<title>Node16&#45;&gt;Node2</title>
<path fill="none" stroke="#63b8ff" d="M1018.68,-180.01C1013.23,-178.9 1007.74,-177.87 1002.47,-177 855.05,-152.61 679.02,-137.14 593.78,-130.5"/>
<polygon fill="#63b8ff" stroke="#63b8ff" points="1017.54,-183.55 1028.04,-182.19 1018.98,-176.7 1017.54,-183.55"/>
</g>
<!-- Node16&#45;&gt;Node4 -->
<g id="edge20" class="edge">
<title>Node16&#45;&gt;Node4</title>
<path fill="none" stroke="#63b8ff" d="M1046.09,-175.87C1011.79,-150.16 940.14,-97.14 877.47,-55.25 858.28,-42.42 835.55,-28.54 820.84,-19.73"/>
<polygon fill="#63b8ff" stroke="#63b8ff" points="1043.64,-179.16 1053.73,-182.37 1047.84,-173.56 1043.64,-179.16"/>
</g>
<!-- Node17&#45;&gt;Node3 -->
<g id="edge55" class="edge">
<title>Node17&#45;&gt;Node3</title>
<path fill="none" stroke="#63b8ff" d="M548.05,-590.75C538.29,-583.01 527.51,-572.86 520.47,-561.5 503.61,-534.28 501.47,-524.02 501.47,-492 501.47,-492 501.47,-492 501.47,-429.12 501.47,-351.98 463.47,-336.9 463.47,-259.75 463.47,-259.75 463.47,-259.75 463.47,-191.25 463.47,-154.38 468.82,-144.75 482.47,-110.5 487.72,-97.34 496.39,-83.43 502.27,-74.7"/>
<polygon fill="#63b8ff" stroke="#63b8ff" points="545.48,-593.94 555.58,-597.14 549.68,-588.34 545.48,-593.94"/>
</g>
<!-- Node17&#45;&gt;Node4 -->
<g id="edge61" class="edge">
<title>Node17&#45;&gt;Node4</title>
<path fill="none" stroke="#63b8ff" d="M529.18,-593.39C486.31,-577.31 425.47,-545.12 425.47,-492 425.47,-492 425.47,-492 425.47,-191.25 425.47,-129.63 407.4,-97.27 452.47,-55.25 498.17,-12.66 691.99,-9.51 771.37,-10.07"/>
<polygon fill="#63b8ff" stroke="#63b8ff" points="527.77,-596.97 538.37,-597.05 530.13,-590.38 527.77,-596.97"/>
</g>
<!-- Node17&#45;&gt;Node6 -->
<g id="edge42" class="edge">
<title>Node17&#45;&gt;Node6</title>
<path fill="none" stroke="#63b8ff" d="M630.32,-599.66C675.9,-593.42 739.59,-581.84 792.47,-561.5 884.69,-526.03 922.27,-521.01 978.47,-439.75 990.22,-422.76 993.85,-398.08 994.97,-384.93"/>
<polygon fill="#63b8ff" stroke="#63b8ff" points="629.89,-596.32 620.43,-601.1 630.8,-603.26 629.89,-596.32"/>
</g>
<!-- Node18 -->
<g id="node18" class="node">
<title>Node18</title>
<g id="a_node18"><a xlink:href="v8-array-buffer_8h.html" target="_top" xlink:title=" ">
<polygon fill="white" stroke="#666666" points="757.85,-329.25 639.1,-329.25 639.1,-310 757.85,-310 757.85,-329.25"/>
<text text-anchor="middle" x="698.47" y="-315.75" font-family="Helvetica,sans-Serif" font-size="10.00">include/v8&#45;array&#45;buffer.h</text>
</a>
</g>
</g>
<!-- Node17&#45;&gt;Node18 -->
<g id="edge26" class="edge">
<title>Node17&#45;&gt;Node18</title>
<path fill="none" stroke="#63b8ff" d="M603.37,-592.63C639.8,-575.24 693.47,-541.26 693.47,-492 693.47,-492 693.47,-492 693.47,-429.12 693.47,-392.17 696.4,-348.2 697.78,-329.62"/>
<polygon fill="#63b8ff" stroke="#63b8ff" points="602.25,-589.75 594.61,-597.09 605.16,-596.12 602.25,-589.75"/>
</g>
<!-- Node21 -->
<g id="node21" class="node">
<title>Node21</title>
<g id="a_node21"><a xlink:href="v8-container_8h.html" target="_top" xlink:title=" ">
<polygon fill="white" stroke="#666666" points="1599.72,-561.5 1489.22,-561.5 1489.22,-542.25 1599.72,-542.25 1599.72,-561.5"/>
<text text-anchor="middle" x="1544.47" y="-548" font-family="Helvetica,sans-Serif" font-size="10.00">include/v8&#45;container.h</text>
</a>
</g>
</g>
<!-- Node17&#45;&gt;Node21 -->
<g id="edge32" class="edge">
<title>Node17&#45;&gt;Node21</title>
<path fill="none" stroke="#63b8ff" d="M630.27,-602.86C805.93,-593.25 1318.67,-565.22 1488.85,-555.92"/>
<polygon fill="#63b8ff" stroke="#63b8ff" points="630.24,-599.41 620.44,-603.45 630.62,-606.4 630.24,-599.41"/>
</g>
<!-- Node22 -->
<g id="node22" class="node">
<title>Node22</title>
<g id="a_node22"><a xlink:href="v8-date_8h.html" target="_top" xlink:title=" ">
<polygon fill="white" stroke="#666666" points="619.22,-561.5 529.72,-561.5 529.72,-542.25 619.22,-542.25 619.22,-561.5"/>
<text text-anchor="middle" x="574.47" y="-548" font-family="Helvetica,sans-Serif" font-size="10.00">include/v8&#45;date.h</text>
</a>
</g>
</g>
<!-- Node17&#45;&gt;Node22 -->
<g id="edge34" class="edge">
<title>Node17&#45;&gt;Node22</title>
<path fill="none" stroke="#63b8ff" d="M571.95,-586.46C572.58,-578.02 573.29,-568.58 573.8,-561.86"/>
<polygon fill="#63b8ff" stroke="#63b8ff" points="568.39,-586.1 571.13,-596.33 575.37,-586.62 568.39,-586.1"/>
</g>
<!-- Node23 -->
<g id="node23" class="node">
<title>Node23</title>
<g id="a_node23"><a xlink:href="v8-exception_8h.html" target="_top" xlink:title=" ">
<polygon fill="white" stroke="#666666" points="848.47,-500.62 736.47,-500.62 736.47,-481.38 848.47,-481.38 848.47,-500.62"/>
<text text-anchor="middle" x="792.47" y="-487.12" font-family="Helvetica,sans-Serif" font-size="10.00">include/v8&#45;exception.h</text>
</a>
</g>
</g>
<!-- Node17&#45;&gt;Node23 -->
<g id="edge36" class="edge">
<title>Node17&#45;&gt;Node23</title>
<path fill="none" stroke="#63b8ff" d="M621.95,-594.23C648.47,-586.91 680.75,-576.1 707.47,-561.5 738.59,-544.5 769.36,-515.51 783.86,-500.93"/>
<polygon fill="#63b8ff" stroke="#63b8ff" points="621.11,-591.09 612.35,-597.05 622.91,-597.86 621.11,-591.09"/>
</g>
<!-- Node24 -->
<g id="node24" class="node">
<title>Node24</title>
<g id="a_node24"><a xlink:href="v8-template_8h.html" target="_top" xlink:title=" ">
<polygon fill="white" stroke="#666666" points="969.6,-439.75 861.35,-439.75 861.35,-420.5 969.6,-420.5 969.6,-439.75"/>
<text text-anchor="middle" x="915.47" y="-426.25" font-family="Helvetica,sans-Serif" font-size="10.00">include/v8&#45;template.h</text>
</a>
</g>
</g>
<!-- Node17&#45;&gt;Node24 -->
<g id="edge58" class="edge">
<title>Node17&#45;&gt;Node24</title>
<path fill="none" stroke="#63b8ff" d="M630.16,-597.18C692.38,-585.34 790.06,-559.41 857.47,-506.25 881.8,-487.07 901.67,-455.54 910.52,-440.15"/>
<polygon fill="#63b8ff" stroke="#63b8ff" points="629.55,-593.92 620.35,-599.17 630.82,-600.8 629.55,-593.92"/>
</g>
<!-- Node25 -->
<g id="node25" class="node">
<title>Node25</title>
<g id="a_node25"><a xlink:href="v8-primitive-object_8h.html" target="_top" xlink:title=" ">
<polygon fill="white" stroke="#666666" points="321.47,-274 221.47,-274 221.47,-243.5 321.47,-243.5 321.47,-274"/>
<text text-anchor="start" x="229.47" y="-260.5" font-family="Helvetica,sans-Serif" font-size="10.00">include/v8&#45;primitive</text>
<text text-anchor="middle" x="271.47" y="-249.25" font-family="Helvetica,sans-Serif" font-size="10.00">&#45;object.h</text>
</a>
</g>
</g>
<!-- Node17&#45;&gt;Node25 -->
<g id="edge43" class="edge">
<title>Node17&#45;&gt;Node25</title>
<path fill="none" stroke="#63b8ff" d="M510.85,-601.57C450.08,-595.78 361.18,-583.73 335.47,-561.5 310.75,-540.13 311.47,-524.68 311.47,-492 311.47,-492 311.47,-492 311.47,-373.88 311.47,-336.29 291.92,-295.47 280.15,-274.31"/>
<polygon fill="#63b8ff" stroke="#63b8ff" points="510.2,-605.12 520.48,-602.55 510.84,-598.15 510.2,-605.12"/>
</g>
<!-- Node26 -->
<g id="node26" class="node">
<title>Node26</title>
<g id="a_node26"><a xlink:href="v8-promise_8h.html" target="_top" xlink:title=" ">
<polygon fill="white" stroke="#666666" points="1371.1,-561.5 1265.85,-561.5 1265.85,-542.25 1371.1,-542.25 1371.1,-561.5"/>
<text text-anchor="middle" x="1318.47" y="-548" font-family="Helvetica,sans-Serif" font-size="10.00">include/v8&#45;promise.h</text>
</a>
</g>
</g>
<!-- Node17&#45;&gt;Node26 -->
<g id="edge45" class="edge">
<title>Node17&#45;&gt;Node26</title>
<path fill="none" stroke="#63b8ff" d="M629.93,-601.89C772.11,-591.77 1130.01,-566.29 1265.44,-556.65"/>
<polygon fill="#63b8ff" stroke="#63b8ff" points="629.99,-598.45 620.26,-602.65 630.49,-605.43 629.99,-598.45"/>
</g>
<!-- Node29 -->
<g id="node29" class="node">
<title>Node29</title>
<g id="a_node29"><a xlink:href="v8-regexp_8h.html" target="_top" xlink:title=" ">
<polygon fill="white" stroke="#666666" points="359.1,-135.38 259.85,-135.38 259.85,-116.12 359.1,-116.12 359.1,-135.38"/>
<text text-anchor="middle" x="309.47" y="-121.88" font-family="Helvetica,sans-Serif" font-size="10.00">include/v8&#45;regexp.h</text>
</a>
</g>
</g>
<!-- Node17&#45;&gt;Node29 -->
<g id="edge56" class="edge">
<title>Node17&#45;&gt;Node29</title>
<path fill="none" stroke="#63b8ff" d="M510.88,-599.06C460.55,-591.96 393.55,-579.48 373.47,-561.5 349.13,-539.69 349.47,-524.68 349.47,-492 349.47,-492 349.47,-492 349.47,-257.75 349.47,-209.95 324.81,-156.45 314.22,-135.67"/>
<polygon fill="#63b8ff" stroke="#63b8ff" points="510.28,-602.65 520.66,-600.54 511.23,-595.71 510.28,-602.65"/>
</g>
<!-- Node30 -->
<g id="node30" class="node">
<title>Node30</title>
<g id="a_node30"><a xlink:href="v8-wasm_8h.html" target="_top" xlink:title=" ">
<polygon fill="white" stroke="#666666" points="404.97,-74.5 307.97,-74.5 307.97,-55.25 404.97,-55.25 404.97,-74.5"/>
<text text-anchor="middle" x="356.47" y="-61" font-family="Helvetica,sans-Serif" font-size="10.00">include/v8&#45;wasm.h</text>
</a>
</g>
</g>
<!-- Node17&#45;&gt;Node30 -->
<g id="edge59" class="edge">
<title>Node17&#45;&gt;Node30</title>
<path fill="none" stroke="#63b8ff" d="M511.1,-602.71C478.01,-597.85 438.2,-586.7 411.47,-561.5 387.7,-539.08 387.47,-524.68 387.47,-492 387.47,-492 387.47,-492 387.47,-191.25 387.47,-146.41 368.55,-95.11 360.27,-74.81"/>
<polygon fill="#63b8ff" stroke="#63b8ff" points="510.22,-606.25 520.59,-604.07 511.12,-599.31 510.22,-606.25"/>
</g>
<!-- Node18&#45;&gt;Node4 -->
<g id="edge31" class="edge">
<title>Node18&#45;&gt;Node4</title>
<path fill="none" stroke="#63b8ff" d="M715.1,-301.52C721.65,-293.74 728.54,-284.04 732.47,-274 768.1,-183.06 708.49,-141.94 753.47,-55.25 761.47,-39.83 777.26,-27.49 789.35,-19.72"/>
<polygon fill="#63b8ff" stroke="#63b8ff" points="712.85,-298.9 708.76,-308.67 718.05,-303.58 712.85,-298.9"/>
</g>
<!-- Node18&#45;&gt;Node10 -->
<g id="edge27" class="edge">
<title>Node18&#45;&gt;Node10</title>
<path fill="none" stroke="#63b8ff" d="M769.09,-311.96C896.54,-299.94 1162.01,-274.89 1272.52,-264.46"/>
<polygon fill="#63b8ff" stroke="#63b8ff" points="768.93,-308.56 759.3,-312.98 769.59,-315.52 768.93,-308.56"/>
</g>
<!-- Node19 -->
<g id="node19" class="node">
<title>Node19</title>
<g id="a_node19"><a xlink:href="v8-typed-array_8h.html" target="_top" xlink:title=" ">
<polygon fill="white" stroke="#666666" points="723.47,-268.38 605.47,-268.38 605.47,-249.12 723.47,-249.12 723.47,-268.38"/>
<text text-anchor="middle" x="664.47" y="-254.88" font-family="Helvetica,sans-Serif" font-size="10.00">include/v8&#45;typed&#45;array.h</text>
</a>
</g>
</g>
<!-- Node18&#45;&gt;Node19 -->
<g id="edge28" class="edge">
<title>Node18&#45;&gt;Node19</title>
<path fill="none" stroke="#63b8ff" d="M687.82,-300.18C681.78,-289.73 674.5,-277.1 669.69,-268.78"/>
<polygon fill="#63b8ff" stroke="#63b8ff" points="685.28,-301.77 693.31,-308.68 691.34,-298.27 685.28,-301.77"/>
</g>
<!-- Node19&#45;&gt;Node4 -->
<g id="edge30" class="edge">
<title>Node19&#45;&gt;Node4</title>
<path fill="none" stroke="#63b8ff" d="M668.4,-238.32C678.21,-190.46 703.83,-69.69 715.47,-55.25 729.6,-37.74 752.34,-26.54 771.43,-19.75"/>
<polygon fill="#63b8ff" stroke="#63b8ff" points="664.83,-237.31 666.26,-247.81 671.69,-238.71 664.83,-237.31"/>
</g>
<!-- Node20 -->
<g id="node20" class="node">
<title>Node20</title>
<g id="a_node20"><a xlink:href="v8-fast-api-calls_8h.html" target="_top" xlink:title=" ">
<polygon fill="white" stroke="#666666" points="663.22,-207.5 567.72,-207.5 567.72,-177 663.22,-177 663.22,-207.5"/>
<text text-anchor="start" x="575.72" y="-194" font-family="Helvetica,sans-Serif" font-size="10.00">include/v8&#45;fast&#45;api</text>
<text text-anchor="middle" x="615.47" y="-182.75" font-family="Helvetica,sans-Serif" font-size="10.00">&#45;calls.h</text>
</a>
</g>
</g>
<!-- Node19&#45;&gt;Node20 -->
<g id="edge29" class="edge">
<title>Node19&#45;&gt;Node20</title>
<path fill="none" stroke="#63b8ff" d="M651.18,-240.25C643.4,-230.01 633.7,-217.24 626.37,-207.59"/>
<polygon fill="#63b8ff" stroke="#63b8ff" points="648.82,-241.94 657.66,-247.78 654.4,-237.7 648.82,-241.94"/>
</g>
<!-- Node21&#45;&gt;Node4 -->
<g id="edge33" class="edge">
<title>Node21&#45;&gt;Node4</title>
<path fill="none" stroke="#63b8ff" d="M1567.76,-535.89C1595.89,-515.76 1639.47,-477.14 1639.47,-431.12 1639.47,-431.12 1639.47,-431.12 1639.47,-124.75 1639.47,-98.86 1752.43,-117.89 1478.47,-55.25 1354.9,-27 959,-14.62 839.77,-11.47"/>
<polygon fill="#63b8ff" stroke="#63b8ff" points="1566.15,-533.44 1559.9,-541.99 1570.12,-539.2 1566.15,-533.44"/>
</g>
<!-- Node22&#45;&gt;Node4 -->
<g id="edge35" class="edge">
<title>Node22&#45;&gt;Node4</title>
<path fill="none" stroke="#63b8ff" d="M565.31,-531.94C554.94,-508.75 539.47,-467.98 539.47,-431.12 539.47,-431.12 539.47,-431.12 539.47,-257.75 539.47,-220.88 538.95,-208.27 558.47,-177 571.85,-155.57 583.1,-157.22 602.47,-141 647.35,-103.4 652.83,-86.29 702.47,-55.25 726.76,-40.06 757.12,-27.6 778.57,-19.75"/>
<polygon fill="#63b8ff" stroke="#63b8ff" points="562.51,-533.23 569.9,-540.82 568.86,-530.28 562.51,-533.23"/>
</g>
<!-- Node23&#45;&gt;Node4 -->
<g id="edge41" class="edge">
<title>Node23&#45;&gt;Node4</title>
<path fill="none" stroke="#63b8ff" d="M791.64,-470.24C790.75,-447.48 789.47,-408.99 789.47,-375.88 789.47,-375.88 789.47,-375.88 789.47,-318.62 789.47,-200.29 801.4,-56.73 804.66,-19.69"/>
<polygon fill="#63b8ff" stroke="#63b8ff" points="788.18,-470.27 792.08,-480.12 795.17,-469.99 788.18,-470.27"/>
</g>
<!-- Node23&#45;&gt;Node10 -->
<g id="edge37" class="edge">
<title>Node23&#45;&gt;Node10</title>
<path fill="none" stroke="#63b8ff" d="M805.43,-472.59C816.88,-457.81 834.52,-436.52 852.47,-420.5 884.99,-391.48 893.89,-383.48 933.47,-365.25 1048.98,-312.03 1196.55,-281.2 1272.44,-267.8"/>
<polygon fill="#63b8ff" stroke="#63b8ff" points="802.12,-470.16 798.85,-480.23 807.69,-474.39 802.12,-470.16"/>
</g>
<!-- Node23&#45;&gt;Node24 -->
<g id="edge38" class="edge">
<title>Node23&#45;&gt;Node24</title>
<path fill="none" stroke="#63b8ff" d="M821.11,-476.29C844.39,-465.15 876.58,-449.74 896.7,-440.11"/>
<polygon fill="#63b8ff" stroke="#63b8ff" points="819.93,-473.46 812.42,-480.93 822.95,-479.77 819.93,-473.46"/>
</g>
<!-- Node24&#45;&gt;Node4 -->
<g id="edge40" class="edge">
<title>Node24&#45;&gt;Node4</title>
<path fill="none" stroke="#63b8ff" d="M908.56,-410.11C892.19,-364.37 850.77,-244.37 828.47,-141 818.68,-95.62 810.02,-40.68 806.8,-19.52"/>
<polygon fill="#63b8ff" stroke="#63b8ff" points="905.55,-411.08 912.23,-419.3 912.13,-408.71 905.55,-411.08"/>
</g>
<!-- Node24&#45;&gt;Node6 -->
<g id="edge39" class="edge">
<title>Node24&#45;&gt;Node6</title>
<path fill="none" stroke="#63b8ff" d="M938.12,-414.05C952.21,-404.67 969.86,-392.92 981.84,-384.95"/>
<polygon fill="#63b8ff" stroke="#63b8ff" points="936.43,-411.64 930.04,-420.09 940.31,-417.46 936.43,-411.64"/>
</g>
<!-- Node25&#45;&gt;Node4 -->
<g id="edge44" class="edge">
<title>Node25&#45;&gt;Node4</title>
<path fill="none" stroke="#63b8ff" d="M261.52,-232.95C251.06,-203.27 237.76,-152.34 250.47,-110.5 259.07,-82.22 262.02,-70.27 287.47,-55.25 329.01,-30.73 662.31,-16.04 771.2,-11.87"/>
<polygon fill="#63b8ff" stroke="#63b8ff" points="258.57,-234.06 265.33,-242.22 265.13,-231.63 258.57,-234.06"/>
</g>
<!-- Node26&#45;&gt;Node4 -->
<g id="edge54" class="edge">
<title>Node26&#45;&gt;Node4</title>
<path fill="none" stroke="#63b8ff" d="M1382.28,-550.7C1465.74,-546.72 1601.47,-525.71 1601.47,-431.12 1601.47,-431.12 1601.47,-431.12 1601.47,-124.75 1601.47,-93.22 1769.54,-127.97 1420.47,-55.25 1202.75,-9.89 933.38,-8.76 839.58,-9.95"/>
<polygon fill="#63b8ff" stroke="#63b8ff" points="1382.22,-547.24 1372.37,-551.14 1382.5,-554.23 1382.22,-547.24"/>
</g>
<!-- Node27 -->
<g id="node27" class="node">
<title>Node27</title>
<g id="a_node27"><a xlink:href="v8-callbacks_8h.html" target="_top" xlink:title=" ">
<polygon fill="white" stroke="#666666" points="1394.47,-500.62 1282.47,-500.62 1282.47,-481.38 1394.47,-481.38 1394.47,-500.62"/>
<text text-anchor="middle" x="1338.47" y="-487.12" font-family="Helvetica,sans-Serif" font-size="10.00">include/v8&#45;callbacks.h</text>
</a>
</g>
</g>
<!-- Node26&#45;&gt;Node27 -->
<g id="edge46" class="edge">
<title>Node26&#45;&gt;Node27</title>
<path fill="none" stroke="#63b8ff" d="M1324.96,-531.78C1328.47,-521.45 1332.64,-509.18 1335.41,-501.03"/>
<polygon fill="#63b8ff" stroke="#63b8ff" points="1321.41,-530.34 1321.51,-540.93 1328.04,-532.59 1321.41,-530.34"/>
</g>
<!-- Node28 -->
<g id="node28" class="node">
<title>Node28</title>
<g id="a_node28"><a xlink:href="v8-statistics_8h.html" target="_top" xlink:title=" ">
<polygon fill="white" stroke="#666666" points="1460.72,-329.25 1350.22,-329.25 1350.22,-310 1460.72,-310 1460.72,-329.25"/>
<text text-anchor="middle" x="1405.47" y="-315.75" font-family="Helvetica,sans-Serif" font-size="10.00">include/v8&#45;statistics.h</text>
</a>
</g>
</g>
<!-- Node26&#45;&gt;Node28 -->
<g id="edge51" class="edge">
<title>Node26&#45;&gt;Node28</title>
<path fill="none" stroke="#63b8ff" d="M1296.04,-534.99C1287.25,-527.41 1278.17,-517.52 1273.47,-506.25 1268.26,-493.74 1268.79,-488.47 1273.47,-475.75 1298.14,-408.71 1366.06,-350.88 1393.62,-329.47"/>
<polygon fill="#63b8ff" stroke="#63b8ff" points="1293.55,-538.28 1303.55,-541.78 1297.91,-532.81 1293.55,-538.28"/>
</g>
<!-- Node27&#45;&gt;Node5 -->
<g id="edge49" class="edge">
<title>Node27&#45;&gt;Node5</title>
<path fill="none" stroke="#63b8ff" d="M1405.31,-481.46C1496.63,-469.8 1658.71,-449.1 1743.8,-438.24"/>
<polygon fill="#63b8ff" stroke="#63b8ff" points="1405.02,-478.1 1395.54,-482.84 1405.9,-485.04 1405.02,-478.1"/>
</g>
<!-- Node27&#45;&gt;Node8 -->
<g id="edge50" class="edge">
<title>Node27&#45;&gt;Node8</title>
<path fill="none" stroke="#63b8ff" d="M1405.26,-488.19C1527.39,-484.14 1781.72,-471.99 1863.47,-439.75 1894.93,-427.34 1924.49,-399.24 1938.31,-384.81"/>
<polygon fill="#63b8ff" stroke="#63b8ff" points="1405.45,-484.72 1395.57,-488.54 1405.67,-491.71 1405.45,-484.72"/>
</g>
<!-- Node27&#45;&gt;Node10 -->
<g id="edge48" class="edge">
<title>Node27&#45;&gt;Node10</title>
<path fill="none" stroke="#63b8ff" d="M1337.1,-470.24C1333.78,-422.42 1325.4,-301.89 1323.08,-268.47"/>
<polygon fill="#63b8ff" stroke="#63b8ff" points="1333.66,-470.24 1337.85,-479.97 1340.64,-469.76 1333.66,-470.24"/>
</g>
<!-- Node27&#45;&gt;Node12 -->
<g id="edge47" class="edge">
<title>Node27&#45;&gt;Node12</title>
<path fill="none" stroke="#63b8ff" d="M1317.53,-474.69C1244.38,-421.23 1001.67,-243.83 944.58,-202.1"/>
<polygon fill="#63b8ff" stroke="#63b8ff" points="1315.18,-478.04 1325.32,-481.12 1319.31,-472.39 1315.18,-478.04"/>
</g>
<!-- Node28&#45;&gt;Node4 -->
<g id="edge53" class="edge">
<title>Node28&#45;&gt;Node4</title>
<path fill="none" stroke="#63b8ff" d="M1446.49,-306.02C1493.31,-288.79 1563.47,-252.99 1563.47,-193.25 1563.47,-193.25 1563.47,-193.25 1563.47,-124.75 1563.47,-50.47 987.01,-18.95 839.52,-12.1"/>
<polygon fill="#63b8ff" stroke="#63b8ff" points="1445.58,-302.99 1437.31,-309.61 1447.91,-309.59 1445.58,-302.99"/>
</g>
<!-- Node28&#45;&gt;Node10 -->
<g id="edge52" class="edge">
<title>Node28&#45;&gt;Node10</title>
<path fill="none" stroke="#63b8ff" d="M1383.97,-303.38C1368.5,-292.4 1348.16,-277.97 1335.2,-268.78"/>
<polygon fill="#63b8ff" stroke="#63b8ff" points="1381.69,-306.75 1391.87,-309.68 1385.74,-301.04 1381.69,-306.75"/>
</g>
<!-- Node29&#45;&gt;Node4 -->
<g id="edge57" class="edge">
<title>Node29&#45;&gt;Node4</title>
<path fill="none" stroke="#63b8ff" d="M299.55,-106.16C292.76,-90.6 287.03,-68.84 299.47,-55.25 331.3,-20.49 662.74,-12.67 771.28,-11.03"/>
<polygon fill="#63b8ff" stroke="#63b8ff" points="296.69,-107.28 304.2,-114.75 302.99,-104.23 296.69,-107.28"/>
</g>
<!-- Node30&#45;&gt;Node4 -->
<g id="edge60" class="edge">
<title>Node30&#45;&gt;Node4</title>
<path fill="none" stroke="#63b8ff" d="M415.99,-55.69C417.16,-55.54 418.32,-55.4 419.47,-55.25 549.15,-38.88 703.64,-21.73 771.1,-14.35"/>
<polygon fill="#63b8ff" stroke="#63b8ff" points="415.76,-52.32 406.3,-57.09 416.67,-59.26 415.76,-52.32"/>
</g>
<!-- Node31&#45;&gt;Node4 -->
<g id="edge64" class="edge">
<title>Node31&#45;&gt;Node4</title>
<path fill="none" stroke="#63b8ff" d="M176.03,-55.56C177.18,-55.45 178.33,-55.35 179.47,-55.25 404.95,-35.36 676.73,-18.36 771.17,-12.66"/>
<polygon fill="#63b8ff" stroke="#63b8ff" points="176.1,-52.13 166.47,-56.55 176.75,-59.1 176.1,-52.13"/>
</g>
<!-- Node32&#45;&gt;Node4 -->
<g id="edge82" class="edge">
<title>Node32&#45;&gt;Node4</title>
<path fill="none" stroke="#63b8ff" d="M588.52,-711.84C483.72,-701.59 273.47,-672.94 273.47,-608.12 273.47,-608.12 273.47,-608.12 273.47,-490 273.47,-353.4 193.47,-329.85 193.47,-193.25 193.47,-193.25 193.47,-193.25 193.47,-124.75 193.47,-81.84 221.7,-73.63 260.47,-55.25 351.51,-12.09 666.23,-9.82 771.14,-10.31"/>
<polygon fill="#63b8ff" stroke="#63b8ff" points="587.95,-715.4 598.23,-712.86 588.61,-708.43 587.95,-715.4"/>
</g>
<!-- Node32&#45;&gt;Node17 -->
<g id="edge69" class="edge">
<title>Node32&#45;&gt;Node17</title>
<path fill="none" stroke="#63b8ff" d="M634.02,-698.85C617.6,-675.41 589.32,-635.03 576.78,-617.13"/>
<polygon fill="#63b8ff" stroke="#63b8ff" points="631.65,-700.56 640.25,-706.75 637.38,-696.55 631.65,-700.56"/>
</g>
<!-- Node32&#45;&gt;Node20 -->
<g id="edge68" class="edge">
<title>Node32&#45;&gt;Node20</title>
<path fill="none" stroke="#63b8ff" d="M646.76,-696.87C647.06,-675.12 647.47,-639.13 647.47,-608.12 647.47,-608.12 647.47,-608.12 647.47,-550.88 647.47,-425.75 607.85,-398.61 596.47,-274 595.24,-260.5 594.04,-256.83 596.47,-243.5 598.75,-231.02 603.97,-217.62 608.37,-207.8"/>
<polygon fill="#63b8ff" stroke="#63b8ff" points="643.25,-696.57 646.61,-706.62 650.25,-696.67 643.25,-696.57"/>
</g>
<!-- Node33 -->
<g id="node33" class="node">
<title>Node33</title>
<g id="a_node33"><a xlink:href="v8-external_8h.html" target="_top" xlink:title=" ">
<polygon fill="white" stroke="#666666" points="1635.72,-672 1531.22,-672 1531.22,-652.75 1635.72,-652.75 1635.72,-672"/>
<text text-anchor="middle" x="1583.47" y="-658.5" font-family="Helvetica,sans-Serif" font-size="10.00">include/v8&#45;external.h</text>
</a>
</g>
</g>
<!-- Node32&#45;&gt;Node33 -->
<g id="edge66" class="edge">
<title>Node32&#45;&gt;Node33</title>
<path fill="none" stroke="#63b8ff" d="M704.87,-713.31C875,-703.64 1368.42,-675.6 1530.9,-666.36"/>
<polygon fill="#63b8ff" stroke="#63b8ff" points="704.69,-709.87 694.9,-713.93 705.09,-716.86 704.69,-709.87"/>
</g>
<!-- Node34 -->
<g id="node34" class="node">
<title>Node34</title>
<g id="a_node34"><a xlink:href="v8-primitive_8h.html" target="_top" xlink:title=" ">
<polygon fill="white" stroke="#666666" points="1270.22,-672 1162.72,-672 1162.72,-652.75 1270.22,-652.75 1270.22,-672"/>
<text text-anchor="middle" x="1216.47" y="-658.5" font-family="Helvetica,sans-Serif" font-size="10.00">include/v8&#45;primitive.h</text>
</a>
</g>
</g>
<!-- Node32&#45;&gt;Node34 -->
<g id="edge70" class="edge">
<title>Node32&#45;&gt;Node34</title>
<path fill="none" stroke="#63b8ff" d="M704.54,-711.2C815.17,-700.87 1054.73,-678.49 1162.28,-668.44"/>
<polygon fill="#63b8ff" stroke="#63b8ff" points="704.23,-707.81 694.6,-712.22 704.89,-714.78 704.23,-707.81"/>
</g>
<!-- Node33&#45;&gt;Node4 -->
<g id="edge67" class="edge">
<title>Node33&#45;&gt;Node4</title>
<path fill="none" stroke="#63b8ff" d="M1646.82,-659.05C1692.28,-654.92 1753.54,-644.18 1800.47,-616.75 1942.26,-533.89 2021.47,-484.85 2021.47,-320.62 2021.47,-320.62 2021.47,-320.62 2021.47,-124.75 2021.47,-45.59 1934.7,-72.65 1857.47,-55.25 1657.07,-10.1 997.71,-9.83 839.72,-10.44"/>
<polygon fill="#63b8ff" stroke="#63b8ff" points="1646.6,-655.63 1636.92,-659.94 1647.17,-662.61 1646.6,-655.63"/>
</g>
<!-- Node34&#45;&gt;Node4 -->
<g id="edge81" class="edge">
<title>Node34&#45;&gt;Node4</title>
<path fill="none" stroke="#63b8ff" d="M1281.55,-660.47C1365.56,-656.09 1512.35,-637.15 1608.47,-561.5 1659.99,-520.96 1677.47,-496.68 1677.47,-431.12 1677.47,-431.12 1677.47,-431.12 1677.47,-124.75 1677.47,-104.08 1752.62,-110.36 1533.47,-55.25 1399.46,-21.55 964.82,-12.88 839.55,-11.05"/>
<polygon fill="#63b8ff" stroke="#63b8ff" points="1281.45,-657.02 1271.62,-660.98 1281.77,-664.01 1281.45,-657.02"/>
</g>
<!-- Node34&#45;&gt;Node5 -->
<g id="edge79" class="edge">
<title>Node34&#45;&gt;Node5</title>
<path fill="none" stroke="#63b8ff" d="M1281.44,-658.45C1425.97,-651.63 1762.84,-633.98 1780.47,-616.75 1830.29,-568.07 1809.83,-470.23 1802,-440.14"/>
<polygon fill="#63b8ff" stroke="#63b8ff" points="1281.37,-654.99 1271.54,-658.96 1281.7,-661.98 1281.37,-654.99"/>
</g>
<!-- Node34&#45;&gt;Node10 -->
<g id="edge78" class="edge">
<title>Node34&#45;&gt;Node10</title>
<path fill="none" stroke="#63b8ff" d="M1216.47,-641.62C1216.47,-619.87 1216.47,-583.88 1216.47,-552.88 1216.47,-552.88 1216.47,-552.88 1216.47,-373.88 1216.47,-323.04 1273.64,-285.32 1304.01,-268.87"/>
<polygon fill="#63b8ff" stroke="#63b8ff" points="1212.97,-641.37 1216.47,-651.37 1219.97,-641.37 1212.97,-641.37"/>
</g>
<!-- Node34&#45;&gt;Node17 -->
<g id="edge80" class="edge">
<title>Node34&#45;&gt;Node17</title>
<path fill="none" stroke="#63b8ff" d="M1151.31,-656C1021.72,-645.32 734.25,-621.63 619.33,-612.15"/>
<polygon fill="#63b8ff" stroke="#63b8ff" points="1150.98,-659.57 1161.23,-656.9 1151.55,-652.59 1150.98,-659.57"/>
</g>
<!-- Node35 -->
<g id="node35" class="node">
<title>Node35</title>
<g id="a_node35"><a xlink:href="v8-extension_8h.html" target="_top" xlink:title=" ">
<polygon fill="white" stroke="#666666" points="1771.47,-616.75 1659.47,-616.75 1659.47,-597.5 1771.47,-597.5 1771.47,-616.75"/>
<text text-anchor="middle" x="1715.47" y="-603.25" font-family="Helvetica,sans-Serif" font-size="10.00">include/v8&#45;extension.h</text>
</a>
</g>
</g>
<!-- Node34&#45;&gt;Node35 -->
<g id="edge71" class="edge">
<title>Node34&#45;&gt;Node35</title>
<path fill="none" stroke="#63b8ff" d="M1281.6,-654.99C1365.71,-646.65 1516.59,-631.39 1645.47,-616.75 1649.97,-616.24 1654.64,-615.69 1659.32,-615.14"/>
<polygon fill="#63b8ff" stroke="#63b8ff" points="1281.29,-651.6 1271.69,-656.07 1281.98,-658.57 1281.29,-651.6"/>
</g>
<!-- Node36 -->
<g id="node36" class="node">
<title>Node36</title>
<g id="a_node36"><a xlink:href="v8-function-callback_8h.html" target="_top" xlink:title=" ">
<polygon fill="white" stroke="#666666" points="1125.35,-506.25 1027.6,-506.25 1027.6,-475.75 1125.35,-475.75 1125.35,-506.25"/>
<text text-anchor="start" x="1035.6" y="-492.75" font-family="Helvetica,sans-Serif" font-size="10.00">include/v8&#45;function</text>
<text text-anchor="middle" x="1076.47" y="-481.5" font-family="Helvetica,sans-Serif" font-size="10.00">&#45;callback.h</text>
</a>
</g>
</g>
<!-- Node34&#45;&gt;Node36 -->
<g id="edge73" class="edge">
<title>Node34&#45;&gt;Node36</title>
<path fill="none" stroke="#63b8ff" d="M1202.06,-643.94C1174.41,-610.48 1114.36,-537.84 1088.61,-506.68"/>
<polygon fill="#63b8ff" stroke="#63b8ff" points="1199.88,-645.79 1208.95,-651.27 1205.27,-641.33 1199.88,-645.79"/>
</g>
<!-- Node35&#45;&gt;Node4 -->
<g id="edge72" class="edge">
<title>Node35&#45;&gt;Node4</title>
<path fill="none" stroke="#63b8ff" d="M1715.47,-586.36C1715.47,-563.6 1715.47,-525.1 1715.47,-492 1715.47,-492 1715.47,-492 1715.47,-124.75 1715.47,-92.07 1717.6,-74.88 1691.47,-55.25 1656.84,-29.23 998.67,-14.48 839.78,-11.29"/>
<polygon fill="#63b8ff" stroke="#63b8ff" points="1711.97,-586.25 1715.47,-596.25 1718.97,-586.25 1711.97,-586.25"/>
</g>
<!-- Node36&#45;&gt;Node6 -->
<g id="edge74" class="edge">
<title>Node36&#45;&gt;Node6</title>
<path fill="none" stroke="#63b8ff" d="M1059.88,-466.62C1041.96,-441.38 1014.34,-402.45 1001.91,-384.95"/>
<polygon fill="#63b8ff" stroke="#63b8ff" points="1057.57,-468.42 1066.21,-474.55 1063.28,-464.37 1057.57,-468.42"/>
</g>
<!-- Node36&#45;&gt;Node10 -->
<g id="edge75" class="edge">
<title>Node36&#45;&gt;Node10</title>
<path fill="none" stroke="#63b8ff" d="M1080.22,-464.7C1083.02,-450.97 1087.73,-434.08 1095.47,-420.5 1129.33,-361.11 1146.01,-348.55 1202.47,-310 1230.27,-291.02 1266.36,-277.12 1291.67,-268.8"/>
<polygon fill="#63b8ff" stroke="#63b8ff" points="1076.63,-463.88 1078.3,-474.35 1083.52,-465.13 1076.63,-463.88"/>
</g>
<!-- Node36&#45;&gt;Node24 -->
<g id="edge76" class="edge">
<title>Node36&#45;&gt;Node24</title>
<path fill="none" stroke="#63b8ff" d="M1026.03,-471.55C997.43,-461.1 962.93,-448.48 940.16,-440.15"/>
<polygon fill="#63b8ff" stroke="#63b8ff" points="1024.67,-475.15 1035.26,-475.3 1027.07,-468.57 1024.67,-475.15"/>
</g>
<!-- Node37 -->
<g id="node37" class="node">
<title>Node37</title>
<g id="a_node37"><a xlink:href="v8-util_8h.html" target="_top" xlink:title=" ">
<polygon fill="white" stroke="#666666" points="1188.22,-439.75 1104.72,-439.75 1104.72,-420.5 1188.22,-420.5 1188.22,-439.75"/>
<text text-anchor="middle" x="1146.47" y="-426.25" font-family="Helvetica,sans-Serif" font-size="10.00">include/v8&#45;util.h</text>
</a>
</g>
</g>
<!-- Node36&#45;&gt;Node37 -->
<g id="edge77" class="edge">
<title>Node36&#45;&gt;Node37</title>
<path fill="none" stroke="#63b8ff" d="M1101.9,-468.62C1113.53,-458.83 1126.69,-447.76 1135.68,-440.2"/>
<polygon fill="#63b8ff" stroke="#63b8ff" points="1100.18,-466.33 1094.78,-475.45 1104.68,-471.69 1100.18,-466.33"/>
</g>
</g>
</svg>
