<?xml version="1.0" encoding="UTF-8" standalone="no"?>
<!DOCTYPE svg PUBLIC "-//W3C//DTD SVG 1.1//EN"
 "http://www.w3.org/Graphics/SVG/1.1/DTD/svg11.dtd">
<!-- Generated by graphviz version 8.0.5 (20230430.1635)
 -->
<!-- Title: include/v8&#45;source&#45;location.h Pages: 1 -->
<svg width="1794pt" height="814pt"
 viewBox="0.00 0.00 1794.00 814.00" xmlns="http://www.w3.org/2000/svg" xmlns:xlink="http://www.w3.org/1999/xlink">
<g id="graph0" class="graph" transform="scale(1 1) rotate(0) translate(4 810)">
<title>include/v8&#45;source&#45;location.h</title>
<!-- Node1 -->
<g id="node1" class="node">
<title>Node1</title>
<g id="a_node1"><a xlink:title=" ">
<polygon fill="#999999" stroke="#666666" points="390.38,-806 253.62,-806 253.62,-786.75 390.38,-786.75 390.38,-806"/>
<text text-anchor="middle" x="322" y="-792.5" font-family="Helvetica,sans-Serif" font-size="10.00">include/v8&#45;source&#45;location.h</text>
</a>
</g>
</g>
<!-- Node2 -->
<g id="node2" class="node">
<title>Node2</title>
<g id="a_node2"><a xlink:href="source-location_8h.html" target="_top" xlink:title=" ">
<polygon fill="white" stroke="#666666" points="259.12,-750.75 150.88,-750.75 150.88,-720.25 259.12,-720.25 259.12,-750.75"/>
<text text-anchor="start" x="158.88" y="-737.25" font-family="Helvetica,sans-Serif" font-size="10.00">include/cppgc/source</text>
<text text-anchor="middle" x="205" y="-726" font-family="Helvetica,sans-Serif" font-size="10.00">&#45;location.h</text>
</a>
</g>
</g>
<!-- Node1&#45;&gt;Node2 -->
<g id="edge1" class="edge">
<title>Node1&#45;&gt;Node2</title>
<path fill="none" stroke="#63b8ff" d="M294.29,-781.43C276.2,-772.33 252.59,-760.45 234.2,-751.19"/>
<polygon fill="#63b8ff" stroke="#63b8ff" points="292.47,-784.94 302.98,-786.3 295.62,-778.68 292.47,-784.94"/>
</g>
<!-- Node26 -->
<g id="node26" class="node">
<title>Node26</title>
<g id="a_node26"><a xlink:href="v8-platform_8h.html" target="_top" xlink:title=" ">
<polygon fill="white" stroke="#666666" points="944,-612.12 838,-612.12 838,-592.88 944,-592.88 944,-612.12"/>
<text text-anchor="middle" x="891" y="-598.62" font-family="Helvetica,sans-Serif" font-size="10.00">include/v8&#45;platform.h</text>
</a>
</g>
</g>
<!-- Node1&#45;&gt;Node26 -->
<g id="edge48" class="edge">
<title>Node1&#45;&gt;Node26</title>
<path fill="none" stroke="#63b8ff" d="M358.93,-782.92C465.41,-747.01 771.33,-643.85 864.05,-612.59"/>
<polygon fill="#63b8ff" stroke="#63b8ff" points="358.04,-779.87 349.68,-786.38 360.28,-786.5 358.04,-779.87"/>
</g>
<!-- Node3 -->
<g id="node3" class="node">
<title>Node3</title>
<g id="a_node3"><a xlink:href="logging_8h.html" target="_top" xlink:title=" ">
<polygon fill="white" stroke="#666666" points="429.25,-684.25 318.75,-684.25 318.75,-653.75 429.25,-653.75 429.25,-684.25"/>
<text text-anchor="start" x="326.75" y="-670.75" font-family="Helvetica,sans-Serif" font-size="10.00">include/cppgc/internal</text>
<text text-anchor="middle" x="374" y="-659.5" font-family="Helvetica,sans-Serif" font-size="10.00">/logging.h</text>
</a>
</g>
</g>
<!-- Node2&#45;&gt;Node3 -->
<g id="edge2" class="edge">
<title>Node2&#45;&gt;Node3</title>
<path fill="none" stroke="#63b8ff" d="M253.4,-716.03C279.45,-706.08 311.15,-693.99 335.51,-684.69"/>
<polygon fill="#63b8ff" stroke="#63b8ff" points="252.44,-713.03 244.35,-719.86 254.94,-719.57 252.44,-713.03"/>
</g>
<!-- Node9 -->
<g id="node9" class="node">
<title>Node9</title>
<g id="a_node9"><a xlink:href="pointer-policies_8h.html" target="_top" xlink:title=" ">
<polygon fill="white" stroke="#666666" points="259.25,-351.75 148.75,-351.75 148.75,-321.25 259.25,-321.25 259.25,-351.75"/>
<text text-anchor="start" x="156.75" y="-338.25" font-family="Helvetica,sans-Serif" font-size="10.00">include/cppgc/internal</text>
<text text-anchor="middle" x="204" y="-327" font-family="Helvetica,sans-Serif" font-size="10.00">/pointer&#45;policies.h</text>
</a>
</g>
</g>
<!-- Node2&#45;&gt;Node9 -->
<g id="edge37" class="edge">
<title>Node2&#45;&gt;Node9</title>
<path fill="none" stroke="#63b8ff" d="M164.47,-714.76C126.65,-693.17 76,-654.7 76,-603.5 76,-603.5 76,-603.5 76,-468.5 76,-413.17 135.13,-372.54 173.01,-352.18"/>
<polygon fill="#63b8ff" stroke="#63b8ff" points="162.32,-718.12 172.77,-719.88 165.7,-711.99 162.32,-718.12"/>
</g>
<!-- Node15 -->
<g id="node15" class="node">
<title>Node15</title>
<g id="a_node15"><a xlink:href="visitor_8h.html" target="_top" xlink:title=" ">
<polygon fill="white" stroke="#666666" points="403.38,-146.62 290.62,-146.62 290.62,-127.38 403.38,-127.38 403.38,-146.62"/>
<text text-anchor="middle" x="347" y="-133.12" font-family="Helvetica,sans-Serif" font-size="10.00">include/cppgc/visitor.h</text>
</a>
</g>
</g>
<!-- Node2&#45;&gt;Node15 -->
<g id="edge47" class="edge">
<title>Node2&#45;&gt;Node15</title>
<path fill="none" stroke="#63b8ff" d="M147.07,-715.9C98.83,-696.36 38,-660.44 38,-603.5 38,-603.5 38,-603.5 38,-269 38,-160.62 201.12,-140.58 290.32,-137.72"/>
<polygon fill="#63b8ff" stroke="#63b8ff" points="145.56,-719.46 156.14,-719.83 148.1,-712.94 145.56,-719.46"/>
</g>
<!-- Node16 -->
<g id="node16" class="node">
<title>Node16</title>
<g id="a_node16"><a xlink:href="persistent_8h.html" target="_top" xlink:title=" ">
<polygon fill="white" stroke="#666666" points="318.62,-85.75 189.38,-85.75 189.38,-66.5 318.62,-66.5 318.62,-85.75"/>
<text text-anchor="middle" x="254" y="-72.25" font-family="Helvetica,sans-Serif" font-size="10.00">include/cppgc/persistent.h</text>
</a>
</g>
</g>
<!-- Node2&#45;&gt;Node16 -->
<g id="edge38" class="edge">
<title>Node2&#45;&gt;Node16</title>
<path fill="none" stroke="#63b8ff" d="M140.02,-721.53C79.98,-705.31 0,-671.04 0,-603.5 0,-603.5 0,-603.5 0,-269 0,-161.09 147.75,-106.17 217.88,-86.18"/>
<polygon fill="#63b8ff" stroke="#63b8ff" points="139.04,-725.15 149.6,-724.26 140.79,-718.37 139.04,-725.15"/>
</g>
<!-- Node22 -->
<g id="node22" class="node">
<title>Node22</title>
<g id="a_node22"><a xlink:href="platform_8h.html" target="_top" xlink:title=" ">
<polygon fill="white" stroke="#666666" points="723.88,-545.62 602.12,-545.62 602.12,-526.38 723.88,-526.38 723.88,-545.62"/>
<text text-anchor="middle" x="663" y="-532.12" font-family="Helvetica,sans-Serif" font-size="10.00">include/cppgc/platform.h</text>
</a>
</g>
</g>
<!-- Node2&#45;&gt;Node22 -->
<g id="edge39" class="edge">
<title>Node2&#45;&gt;Node22</title>
<path fill="none" stroke="#63b8ff" d="M270.17,-727.48C351.2,-716.04 490.66,-687.21 588,-617.75 617.59,-596.63 644.57,-562.38 656.52,-546.12"/>
<polygon fill="#63b8ff" stroke="#63b8ff" points="270.06,-724.1 260.62,-728.91 271,-731.03 270.06,-724.1"/>
</g>
<!-- Node4 -->
<g id="node4" class="node">
<title>Node4</title>
<g id="a_node4"><a xlink:href="explicit-management_8h.html" target="_top" xlink:title=" ">
<polygon fill="white" stroke="#666666" points="213.5,-484.75 104.5,-484.75 104.5,-454.25 213.5,-454.25 213.5,-484.75"/>
<text text-anchor="start" x="112.5" y="-471.25" font-family="Helvetica,sans-Serif" font-size="10.00">include/cppgc/explicit</text>
<text text-anchor="middle" x="159" y="-460" font-family="Helvetica,sans-Serif" font-size="10.00">&#45;management.h</text>
</a>
</g>
</g>
<!-- Node3&#45;&gt;Node4 -->
<g id="edge3" class="edge">
<title>Node3&#45;&gt;Node4</title>
<path fill="none" stroke="#63b8ff" d="M307.7,-658.51C258.67,-650.12 197.5,-636.34 180,-617.75 145.31,-580.9 151.43,-514.16 156.2,-484.9"/>
<polygon fill="#63b8ff" stroke="#63b8ff" points="306.84,-662.08 317.28,-660.27 307.99,-655.17 306.84,-662.08"/>
</g>
<!-- Node5 -->
<g id="node5" class="node">
<title>Node5</title>
<g id="a_node5"><a xlink:href="base-page-handle_8h.html" target="_top" xlink:title=" ">
<polygon fill="white" stroke="#666666" points="470.25,-617.75 359.75,-617.75 359.75,-587.25 470.25,-587.25 470.25,-617.75"/>
<text text-anchor="start" x="367.75" y="-604.25" font-family="Helvetica,sans-Serif" font-size="10.00">include/cppgc/internal</text>
<text text-anchor="middle" x="415" y="-593" font-family="Helvetica,sans-Serif" font-size="10.00">/base&#45;page&#45;handle.h</text>
</a>
</g>
</g>
<!-- Node3&#45;&gt;Node5 -->
<g id="edge4" class="edge">
<title>Node3&#45;&gt;Node5</title>
<path fill="none" stroke="#63b8ff" d="M389.05,-644.32C394.64,-635.53 400.81,-625.82 405.73,-618.08"/>
<polygon fill="#63b8ff" stroke="#63b8ff" points="385.71,-642.05 383.3,-652.36 391.62,-645.8 385.71,-642.05"/>
</g>
<!-- Node7 -->
<g id="node7" class="node">
<title>Node7</title>
<g id="a_node7"><a xlink:href="caged-heap-local-data_8h.html" target="_top" xlink:title=" ">
<polygon fill="white" stroke="#666666" points="519.88,-484.75 398.12,-484.75 398.12,-454.25 519.88,-454.25 519.88,-484.75"/>
<text text-anchor="start" x="406.12" y="-471.25" font-family="Helvetica,sans-Serif" font-size="10.00">include/cppgc/internal</text>
<text text-anchor="middle" x="459" y="-460" font-family="Helvetica,sans-Serif" font-size="10.00">/caged&#45;heap&#45;local&#45;data.h</text>
</a>
</g>
</g>
<!-- Node3&#45;&gt;Node7 -->
<g id="edge28" class="edge">
<title>Node3&#45;&gt;Node7</title>
<path fill="none" stroke="#63b8ff" d="M429.28,-649.06C446.58,-641.27 464.83,-630.92 479,-617.75 503.93,-594.57 508.26,-584.15 517,-551.25 520.48,-538.15 522.63,-533.08 517,-520.75 510.25,-505.97 496.76,-493.86 484.49,-485.24"/>
<polygon fill="#63b8ff" stroke="#63b8ff" points="428.06,-646.2 420.24,-653.36 430.81,-652.64 428.06,-646.2"/>
</g>
<!-- Node8 -->
<g id="node8" class="node">
<title>Node8</title>
<g id="a_node8"><a xlink:href="member-storage_8h.html" target="_top" xlink:title=" ">
<polygon fill="white" stroke="#666666" points="342.25,-484.75 231.75,-484.75 231.75,-454.25 342.25,-454.25 342.25,-484.75"/>
<text text-anchor="start" x="239.75" y="-471.25" font-family="Helvetica,sans-Serif" font-size="10.00">include/cppgc/internal</text>
<text text-anchor="middle" x="287" y="-460" font-family="Helvetica,sans-Serif" font-size="10.00">/member&#45;storage.h</text>
</a>
</g>
</g>
<!-- Node3&#45;&gt;Node8 -->
<g id="edge32" class="edge">
<title>Node3&#45;&gt;Node8</title>
<path fill="none" stroke="#63b8ff" d="M362.61,-643.85C358.82,-635.61 354.64,-626.32 351,-617.75 332.91,-575.13 332.11,-562.92 313,-520.75 307.41,-508.4 300.29,-494.77 294.91,-484.82"/>
<polygon fill="#63b8ff" stroke="#63b8ff" points="359.75,-644.99 367.14,-652.58 366.1,-642.04 359.75,-644.99"/>
</g>
<!-- Node3&#45;&gt;Node15 -->
<g id="edge36" class="edge">
<title>Node3&#45;&gt;Node15</title>
<path fill="none" stroke="#63b8ff" d="M440.2,-654.39C463.38,-646.84 488.06,-635.3 506,-617.75 537.99,-586.46 534.34,-565.48 533,-520.75 530.76,-446.1 531.74,-245.69 484,-188.25 464.16,-164.38 431.94,-151.85 403.73,-145.27"/>
<polygon fill="#63b8ff" stroke="#63b8ff" points="439.24,-651.32 430.69,-657.58 441.27,-658.02 439.24,-651.32"/>
</g>
<!-- Node19 -->
<g id="node19" class="node">
<title>Node19</title>
<g id="a_node19"><a xlink:href="gc-info_8h.html" target="_top" xlink:title=" ">
<polygon fill="white" stroke="#666666" points="299.25,-617.75 188.75,-617.75 188.75,-587.25 299.25,-587.25 299.25,-617.75"/>
<text text-anchor="start" x="196.75" y="-604.25" font-family="Helvetica,sans-Serif" font-size="10.00">include/cppgc/internal</text>
<text text-anchor="middle" x="244" y="-593" font-family="Helvetica,sans-Serif" font-size="10.00">/gc&#45;info.h</text>
</a>
</g>
</g>
<!-- Node3&#45;&gt;Node19 -->
<g id="edge29" class="edge">
<title>Node3&#45;&gt;Node19</title>
<path fill="none" stroke="#63b8ff" d="M334.86,-648.58C315.11,-638.78 291.56,-627.1 273.38,-618.08"/>
<polygon fill="#63b8ff" stroke="#63b8ff" points="332.99,-652.05 343.5,-653.36 336.1,-645.78 332.99,-652.05"/>
</g>
<!-- Node21 -->
<g id="node21" class="node">
<title>Node21</title>
<g id="a_node21"><a xlink:href="persistent-node_8h.html" target="_top" xlink:title=" ">
<polygon fill="white" stroke="#666666" points="745.25,-152.25 634.75,-152.25 634.75,-121.75 745.25,-121.75 745.25,-152.25"/>
<text text-anchor="start" x="642.75" y="-138.75" font-family="Helvetica,sans-Serif" font-size="10.00">include/cppgc/internal</text>
<text text-anchor="middle" x="690" y="-127.5" font-family="Helvetica,sans-Serif" font-size="10.00">/persistent&#45;node.h</text>
</a>
</g>
</g>
<!-- Node3&#45;&gt;Node21 -->
<g id="edge33" class="edge">
<title>Node3&#45;&gt;Node21</title>
<path fill="none" stroke="#63b8ff" d="M440.19,-658.95C548.57,-642.25 752,-602.22 752,-537 752,-537 752,-537 752,-269 752,-222.95 720.32,-175.8 702.25,-152.65"/>
<polygon fill="#63b8ff" stroke="#63b8ff" points="439.73,-655.63 430.37,-660.59 440.78,-662.55 439.73,-655.63"/>
</g>
<!-- Node6 -->
<g id="node6" class="node">
<title>Node6</title>
<g id="a_node6"><a xlink:href="caged-heap_8h.html" target="_top" xlink:title=" ">
<polygon fill="white" stroke="#666666" points="508.25,-551.25 397.75,-551.25 397.75,-520.75 508.25,-520.75 508.25,-551.25"/>
<text text-anchor="start" x="405.75" y="-537.75" font-family="Helvetica,sans-Serif" font-size="10.00">include/cppgc/internal</text>
<text text-anchor="middle" x="453" y="-526.5" font-family="Helvetica,sans-Serif" font-size="10.00">/caged&#45;heap.h</text>
</a>
</g>
</g>
<!-- Node5&#45;&gt;Node6 -->
<g id="edge5" class="edge">
<title>Node5&#45;&gt;Node6</title>
<path fill="none" stroke="#63b8ff" d="M429.12,-577.54C434.25,-568.82 439.9,-559.24 444.41,-551.58"/>
<polygon fill="#63b8ff" stroke="#63b8ff" points="425.68,-575.47 423.62,-585.86 431.71,-579.02 425.68,-575.47"/>
</g>
<!-- Node18 -->
<g id="node18" class="node">
<title>Node18</title>
<g id="a_node18"><a xlink:href="write-barrier_8h.html" target="_top" xlink:title=" ">
<polygon fill="white" stroke="#666666" points="463.25,-418.25 352.75,-418.25 352.75,-387.75 463.25,-387.75 463.25,-418.25"/>
<text text-anchor="start" x="360.75" y="-404.75" font-family="Helvetica,sans-Serif" font-size="10.00">include/cppgc/internal</text>
<text text-anchor="middle" x="408" y="-393.5" font-family="Helvetica,sans-Serif" font-size="10.00">/write&#45;barrier.h</text>
</a>
</g>
</g>
<!-- Node5&#45;&gt;Node18 -->
<g id="edge27" class="edge">
<title>Node5&#45;&gt;Node18</title>
<path fill="none" stroke="#63b8ff" d="M399.6,-577.43C395.29,-569.42 391.19,-560.24 389,-551.25 378.81,-509.36 381.25,-496.66 389,-454.25 391.28,-441.77 396.5,-428.37 400.89,-418.55"/>
<polygon fill="#63b8ff" stroke="#63b8ff" points="397,-578.94 405.03,-585.85 403.07,-575.44 397,-578.94"/>
</g>
<!-- Node6&#45;&gt;Node7 -->
<g id="edge6" class="edge">
<title>Node6&#45;&gt;Node7</title>
<path fill="none" stroke="#63b8ff" d="M455.36,-509.63C456.14,-501.3 456.97,-492.33 457.64,-485.08"/>
<polygon fill="#63b8ff" stroke="#63b8ff" points="451.8,-509.08 454.36,-519.36 458.77,-509.73 451.8,-509.08"/>
</g>
<!-- Node6&#45;&gt;Node8 -->
<g id="edge7" class="edge">
<title>Node6&#45;&gt;Node8</title>
<path fill="none" stroke="#63b8ff" d="M405.12,-516.4C379.59,-506.48 348.63,-494.45 324.81,-485.19"/>
<polygon fill="#63b8ff" stroke="#63b8ff" points="403.74,-520 414.33,-520.36 406.28,-513.48 403.74,-520"/>
</g>
<!-- Node8&#45;&gt;Node9 -->
<g id="edge8" class="edge">
<title>Node8&#45;&gt;Node9</title>
<path fill="none" stroke="#63b8ff" d="M272.01,-444.84C254.91,-417.85 227.48,-374.55 213.24,-352.08"/>
<polygon fill="#63b8ff" stroke="#63b8ff" points="269.49,-446.41 277.8,-452.98 275.4,-442.66 269.49,-446.41"/>
</g>
<!-- Node11 -->
<g id="node11" class="node">
<title>Node11</title>
<g id="a_node11"><a xlink:href="member_8h.html" target="_top" xlink:title=" ">
<polygon fill="white" stroke="#666666" points="436.88,-279.62 315.12,-279.62 315.12,-260.38 436.88,-260.38 436.88,-279.62"/>
<text text-anchor="middle" x="376" y="-266.12" font-family="Helvetica,sans-Serif" font-size="10.00">include/cppgc/member.h</text>
</a>
</g>
</g>
<!-- Node8&#45;&gt;Node11 -->
<g id="edge25" class="edge">
<title>Node8&#45;&gt;Node11</title>
<path fill="none" stroke="#63b8ff" d="M298.01,-444.06C317.95,-399.81 359.16,-308.37 372.06,-279.75"/>
<polygon fill="#63b8ff" stroke="#63b8ff" points="294.46,-442.42 293.54,-452.98 300.84,-445.3 294.46,-442.42"/>
</g>
<!-- Node8&#45;&gt;Node15 -->
<g id="edge26" class="edge">
<title>Node8&#45;&gt;Node15</title>
<path fill="none" stroke="#63b8ff" d="M287,-443.04C287,-416.65 287,-374.18 287,-337.5 287,-337.5 287,-337.5 287,-269 287,-218.97 323.62,-167.16 339.64,-146.88"/>
<polygon fill="#63b8ff" stroke="#63b8ff" points="283.5,-442.96 287,-452.96 290.5,-442.96 283.5,-442.96"/>
</g>
<!-- Node8&#45;&gt;Node18 -->
<g id="edge22" class="edge">
<title>Node8&#45;&gt;Node18</title>
<path fill="none" stroke="#63b8ff" d="M323.93,-448.81C342.21,-439.07 363.89,-427.51 380.65,-418.58"/>
<polygon fill="#63b8ff" stroke="#63b8ff" points="322.63,-446.07 315.46,-453.86 325.93,-452.25 322.63,-446.07"/>
</g>
<!-- Node10 -->
<g id="node10" class="node">
<title>Node10</title>
<g id="a_node10"><a xlink:href="cross-thread-persistent_8h.html" target="_top" xlink:title=" ">
<polygon fill="white" stroke="#666666" points="351.5,-30.5 248.5,-30.5 248.5,0 351.5,0 351.5,-30.5"/>
<text text-anchor="start" x="256.5" y="-17" font-family="Helvetica,sans-Serif" font-size="10.00">include/cppgc/cross</text>
<text text-anchor="middle" x="300" y="-5.75" font-family="Helvetica,sans-Serif" font-size="10.00">&#45;thread&#45;persistent.h</text>
</a>
</g>
</g>
<!-- Node9&#45;&gt;Node10 -->
<g id="edge9" class="edge">
<title>Node9&#45;&gt;Node10</title>
<path fill="none" stroke="#63b8ff" d="M163.79,-315.68C126.25,-294.02 76,-255.5 76,-204.5 76,-204.5 76,-204.5 76,-136 76,-58.39 181.88,-30.89 248.05,-21.29"/>
<polygon fill="#63b8ff" stroke="#63b8ff" points="161.58,-319.01 172.01,-320.82 164.98,-312.9 161.58,-319.01"/>
</g>
<!-- Node9&#45;&gt;Node11 -->
<g id="edge10" class="edge">
<title>Node9&#45;&gt;Node11</title>
<path fill="none" stroke="#63b8ff" d="M253.21,-317.05C285.57,-304.91 326.51,-289.56 351.97,-280.01"/>
<polygon fill="#63b8ff" stroke="#63b8ff" points="252.16,-314.08 244.03,-320.86 254.62,-320.63 252.16,-314.08"/>
</g>
<!-- Node9&#45;&gt;Node15 -->
<g id="edge21" class="edge">
<title>Node9&#45;&gt;Node15</title>
<path fill="none" stroke="#63b8ff" d="M213.56,-311.17C228.2,-274.66 256.24,-207.9 273,-188.25 288.42,-170.17 311.84,-155.75 328.19,-147.08"/>
<polygon fill="#63b8ff" stroke="#63b8ff" points="210.08,-309.43 209.64,-320.02 216.59,-312.02 210.08,-309.43"/>
</g>
<!-- Node9&#45;&gt;Node16 -->
<g id="edge20" class="edge">
<title>Node9&#45;&gt;Node16</title>
<path fill="none" stroke="#63b8ff" d="M208.91,-310.12C219.76,-254.06 245.36,-121.77 252.26,-86.11"/>
<polygon fill="#63b8ff" stroke="#63b8ff" points="205.3,-309.39 206.83,-319.87 212.17,-310.72 205.3,-309.39"/>
</g>
<!-- Node12 -->
<g id="node12" class="node">
<title>Node12</title>
<g id="a_node12"><a xlink:href="heap-consistency_8h.html" target="_top" xlink:title=" ">
<polygon fill="white" stroke="#666666" points="475,-218.75 375,-218.75 375,-188.25 475,-188.25 475,-218.75"/>
<text text-anchor="start" x="383" y="-205.25" font-family="Helvetica,sans-Serif" font-size="10.00">include/cppgc/heap</text>
<text text-anchor="middle" x="425" y="-194" font-family="Helvetica,sans-Serif" font-size="10.00">&#45;consistency.h</text>
</a>
</g>
</g>
<!-- Node11&#45;&gt;Node12 -->
<g id="edge11" class="edge">
<title>Node11&#45;&gt;Node12</title>
<path fill="none" stroke="#63b8ff" d="M389.29,-251.5C397.07,-241.26 406.78,-228.49 414.1,-218.84"/>
<polygon fill="#63b8ff" stroke="#63b8ff" points="386.08,-248.95 382.81,-259.03 391.65,-253.19 386.08,-248.95"/>
</g>
<!-- Node13 -->
<g id="node13" class="node">
<title>Node13</title>
<g id="a_node13"><a xlink:href="liveness-broker_8h.html" target="_top" xlink:title=" ">
<polygon fill="white" stroke="#666666" points="684.5,-218.75 569.5,-218.75 569.5,-188.25 684.5,-188.25 684.5,-218.75"/>
<text text-anchor="start" x="577.5" y="-205.25" font-family="Helvetica,sans-Serif" font-size="10.00">include/cppgc/liveness</text>
<text text-anchor="middle" x="627" y="-194" font-family="Helvetica,sans-Serif" font-size="10.00">&#45;broker.h</text>
</a>
</g>
</g>
<!-- Node11&#45;&gt;Node13 -->
<g id="edge12" class="edge">
<title>Node11&#45;&gt;Node13</title>
<path fill="none" stroke="#63b8ff" d="M421.83,-257.22C463.51,-246.51 525.16,-230.67 569.99,-219.15"/>
<polygon fill="#63b8ff" stroke="#63b8ff" points="421.24,-254.02 412.43,-259.9 422.99,-260.8 421.24,-254.02"/>
</g>
<!-- Node11&#45;&gt;Node15 -->
<g id="edge19" class="edge">
<title>Node11&#45;&gt;Node15</title>
<path fill="none" stroke="#63b8ff" d="M371.63,-249.26C365.25,-220.46 353.66,-168.07 349.01,-147.07"/>
<polygon fill="#63b8ff" stroke="#63b8ff" points="368.43,-249.99 374.01,-259 375.26,-248.48 368.43,-249.99"/>
</g>
<!-- Node14 -->
<g id="node14" class="node">
<title>Node14</title>
<g id="a_node14"><a xlink:href="prefinalizer_8h.html" target="_top" xlink:title=" ">
<polygon fill="white" stroke="#666666" points="617.12,-146.62 484.88,-146.62 484.88,-127.38 617.12,-127.38 617.12,-146.62"/>
<text text-anchor="middle" x="551" y="-133.12" font-family="Helvetica,sans-Serif" font-size="10.00">include/cppgc/prefinalizer.h</text>
</a>
</g>
</g>
<!-- Node13&#45;&gt;Node14 -->
<g id="edge13" class="edge">
<title>Node13&#45;&gt;Node14</title>
<path fill="none" stroke="#63b8ff" d="M601.61,-180.95C587.89,-169.31 571.7,-155.57 561.4,-146.82"/>
<polygon fill="#63b8ff" stroke="#63b8ff" points="598.87,-184.06 608.75,-187.86 603.39,-178.72 598.87,-184.06"/>
</g>
<!-- Node13&#45;&gt;Node15 -->
<g id="edge14" class="edge">
<title>Node13&#45;&gt;Node15</title>
<path fill="none" stroke="#63b8ff" d="M558.8,-186.79C504.8,-174.35 431.26,-157.41 386.56,-147.11"/>
<polygon fill="#63b8ff" stroke="#63b8ff" points="557.79,-190.38 568.32,-189.21 559.36,-183.56 557.79,-190.38"/>
</g>
<!-- Node15&#45;&gt;Node10 -->
<g id="edge15" class="edge">
<title>Node15&#45;&gt;Node10</title>
<path fill="none" stroke="#63b8ff" d="M343.06,-116.77C339.84,-102.58 334.72,-82.97 328,-66.5 322.87,-53.93 315.28,-40.53 309.31,-30.73"/>
<polygon fill="#63b8ff" stroke="#63b8ff" points="339.78,-117.18 345.31,-126.22 346.63,-115.71 339.78,-117.18"/>
</g>
<!-- Node15&#45;&gt;Node16 -->
<g id="edge16" class="edge">
<title>Node15&#45;&gt;Node16</title>
<path fill="none" stroke="#63b8ff" d="M323.89,-121.37C306.44,-110.32 283.06,-95.52 268.26,-86.15"/>
<polygon fill="#63b8ff" stroke="#63b8ff" points="321.55,-124.67 331.88,-127.06 325.3,-118.75 321.55,-124.67"/>
</g>
<!-- Node17 -->
<g id="node17" class="node">
<title>Node17</title>
<g id="a_node17"><a xlink:href="v8-cppgc_8h.html" target="_top" xlink:title=" ">
<polygon fill="white" stroke="#666666" points="1248.5,-85.75 1151.5,-85.75 1151.5,-66.5 1248.5,-66.5 1248.5,-85.75"/>
<text text-anchor="middle" x="1200" y="-72.25" font-family="Helvetica,sans-Serif" font-size="10.00">include/v8&#45;cppgc.h</text>
</a>
</g>
</g>
<!-- Node15&#45;&gt;Node17 -->
<g id="edge18" class="edge">
<title>Node15&#45;&gt;Node17</title>
<path fill="none" stroke="#63b8ff" d="M414.55,-127.91C434.33,-125.71 456.02,-123.47 476,-121.75 729.76,-99.93 1034.45,-84.73 1151.21,-79.31"/>
<polygon fill="#63b8ff" stroke="#63b8ff" points="414.32,-124.53 404.78,-129.13 415.1,-131.49 414.32,-124.53"/>
</g>
<!-- Node16&#45;&gt;Node10 -->
<g id="edge17" class="edge">
<title>Node16&#45;&gt;Node10</title>
<path fill="none" stroke="#63b8ff" d="M267.61,-57.7C274.31,-49.13 282.28,-38.92 288.65,-30.78"/>
<polygon fill="#63b8ff" stroke="#63b8ff" points="264.39,-55.15 260.99,-65.18 269.9,-59.46 264.39,-55.15"/>
</g>
<!-- Node18&#45;&gt;Node9 -->
<g id="edge24" class="edge">
<title>Node18&#45;&gt;Node9</title>
<path fill="none" stroke="#63b8ff" d="M350.99,-383.97C319.23,-373.93 280.2,-361.59 250.35,-352.15"/>
<polygon fill="#63b8ff" stroke="#63b8ff" points="349.86,-387.61 360.45,-387.28 351.97,-380.93 349.86,-387.61"/>
</g>
<!-- Node18&#45;&gt;Node12 -->
<g id="edge23" class="edge">
<title>Node18&#45;&gt;Node12</title>
<path fill="none" stroke="#63b8ff" d="M421.17,-377.81C435.35,-348.79 454.79,-298.55 446,-254.75 443.47,-242.14 437.7,-228.75 432.85,-218.96"/>
<polygon fill="#63b8ff" stroke="#63b8ff" points="417.66,-375.99 416.24,-386.49 423.9,-379.17 417.66,-375.99"/>
</g>
<!-- Node20 -->
<g id="node20" class="node">
<title>Node20</title>
<g id="a_node20"><a xlink:href="allocation_8h.html" target="_top" xlink:title=" ">
<polygon fill="white" stroke="#666666" points="303.88,-545.62 176.12,-545.62 176.12,-526.38 303.88,-526.38 303.88,-545.62"/>
<text text-anchor="middle" x="240" y="-532.12" font-family="Helvetica,sans-Serif" font-size="10.00">include/cppgc/allocation.h</text>
</a>
</g>
</g>
<!-- Node19&#45;&gt;Node20 -->
<g id="edge30" class="edge">
<title>Node19&#45;&gt;Node20</title>
<path fill="none" stroke="#63b8ff" d="M242.41,-575.93C241.75,-565.26 241.03,-553.58 240.55,-545.82"/>
<polygon fill="#63b8ff" stroke="#63b8ff" points="238.98,-576.1 243.09,-585.86 245.97,-575.67 238.98,-576.1"/>
</g>
<!-- Node20&#45;&gt;Node4 -->
<g id="edge31" class="edge">
<title>Node20&#45;&gt;Node4</title>
<path fill="none" stroke="#63b8ff" d="M220.41,-519.4C207.3,-508.96 190.16,-495.31 177.32,-485.09"/>
<polygon fill="#63b8ff" stroke="#63b8ff" points="217.73,-522.54 227.74,-526.03 222.09,-517.06 217.73,-522.54"/>
</g>
<!-- Node21&#45;&gt;Node10 -->
<g id="edge34" class="edge">
<title>Node21&#45;&gt;Node10</title>
<path fill="none" stroke="#63b8ff" d="M631.67,-118.09C554.4,-94.36 419.54,-52.96 347.91,-30.96"/>
<polygon fill="#63b8ff" stroke="#63b8ff" points="630.59,-121.73 641.18,-121.32 632.65,-115.04 630.59,-121.73"/>
</g>
<!-- Node21&#45;&gt;Node16 -->
<g id="edge35" class="edge">
<title>Node21&#45;&gt;Node16</title>
<path fill="none" stroke="#63b8ff" d="M624.04,-121.52C511.36,-102.65 390.99,-89.82 318.8,-82.92"/>
<polygon fill="#63b8ff" stroke="#63b8ff" points="623.12,-125.08 633.56,-123.3 624.29,-118.18 623.12,-125.08"/>
</g>
<!-- Node22&#45;&gt;Node7 -->
<g id="edge45" class="edge">
<title>Node22&#45;&gt;Node7</title>
<path fill="none" stroke="#63b8ff" d="M623.79,-522.6C589.97,-511.91 541.08,-496.45 505.33,-485.15"/>
<polygon fill="#63b8ff" stroke="#63b8ff" points="622.61,-526.22 633.2,-525.9 624.72,-519.54 622.61,-526.22"/>
</g>
<!-- Node22&#45;&gt;Node18 -->
<g id="edge46" class="edge">
<title>Node22&#45;&gt;Node18</title>
<path fill="none" stroke="#63b8ff" d="M640.63,-520.11C614.49,-503.04 569.63,-474.78 529,-454.25 502.51,-440.86 471.58,-428.06 447.63,-418.74"/>
<polygon fill="#63b8ff" stroke="#63b8ff" points="638.4,-523.49 648.68,-526.06 642.25,-517.64 638.4,-523.49"/>
</g>
<!-- Node23 -->
<g id="node23" class="node">
<title>Node23</title>
<g id="a_node23"><a xlink:href="default-platform_8h.html" target="_top" xlink:title=" ">
<polygon fill="white" stroke="#666666" points="888.12,-418.25 779.88,-418.25 779.88,-387.75 888.12,-387.75 888.12,-418.25"/>
<text text-anchor="start" x="787.88" y="-404.75" font-family="Helvetica,sans-Serif" font-size="10.00">include/cppgc/default</text>
<text text-anchor="middle" x="834" y="-393.5" font-family="Helvetica,sans-Serif" font-size="10.00">&#45;platform.h</text>
</a>
</g>
</g>
<!-- Node22&#45;&gt;Node23 -->
<g id="edge40" class="edge">
<title>Node22&#45;&gt;Node23</title>
<path fill="none" stroke="#63b8ff" d="M683.22,-519.51C716.47,-494.04 782.27,-443.63 814.83,-418.69"/>
<polygon fill="#63b8ff" stroke="#63b8ff" points="681.56,-517.14 675.75,-526 685.82,-522.69 681.56,-517.14"/>
</g>
<!-- Node24 -->
<g id="node24" class="node">
<title>Node24</title>
<g id="a_node24"><a xlink:href="garbage-collected_8h.html" target="_top" xlink:title=" ">
<polygon fill="white" stroke="#666666" points="644.75,-285.25 531.25,-285.25 531.25,-254.75 644.75,-254.75 644.75,-285.25"/>
<text text-anchor="start" x="539.25" y="-271.75" font-family="Helvetica,sans-Serif" font-size="10.00">include/cppgc/garbage</text>
<text text-anchor="middle" x="588" y="-260.5" font-family="Helvetica,sans-Serif" font-size="10.00">&#45;collected.h</text>
</a>
</g>
</g>
<!-- Node22&#45;&gt;Node24 -->
<g id="edge41" class="edge">
<title>Node22&#45;&gt;Node24</title>
<path fill="none" stroke="#63b8ff" d="M656.67,-515.78C645.83,-482.54 623.3,-412.08 607,-351.75 600.8,-328.81 594.7,-301.9 591.15,-285.66"/>
<polygon fill="#63b8ff" stroke="#63b8ff" points="653.55,-516.5 659.99,-524.91 660.2,-514.32 653.55,-516.5"/>
</g>
<!-- Node25 -->
<g id="node25" class="node">
<title>Node25</title>
<g id="a_node25"><a xlink:href="heap_8h.html" target="_top" xlink:title=" ">
<polygon fill="white" stroke="#666666" points="723.75,-346.12 616.25,-346.12 616.25,-326.88 723.75,-326.88 723.75,-346.12"/>
<text text-anchor="middle" x="670" y="-332.62" font-family="Helvetica,sans-Serif" font-size="10.00">include/cppgc/heap.h</text>
</a>
</g>
</g>
<!-- Node22&#45;&gt;Node25 -->
<g id="edge43" class="edge">
<title>Node22&#45;&gt;Node25</title>
<path fill="none" stroke="#63b8ff" d="M663.71,-515.03C665.2,-472.93 668.62,-376.51 669.68,-346.55"/>
<polygon fill="#63b8ff" stroke="#63b8ff" points="660.18,-514.88 663.32,-525 667.17,-515.13 660.18,-514.88"/>
</g>
<!-- Node24&#45;&gt;Node15 -->
<g id="edge42" class="edge">
<title>Node24&#45;&gt;Node15</title>
<path fill="none" stroke="#63b8ff" d="M573.01,-245.7C560.19,-227.56 540.18,-203.06 517,-188.25 482.64,-166.3 438.3,-153.61 403.53,-146.47"/>
<polygon fill="#63b8ff" stroke="#63b8ff" points="570.5,-247.24 579.03,-253.52 576.28,-243.29 570.5,-247.24"/>
</g>
<!-- Node25&#45;&gt;Node13 -->
<g id="edge44" class="edge">
<title>Node25&#45;&gt;Node13</title>
<path fill="none" stroke="#63b8ff" d="M667.82,-316.24C665.56,-299.6 661.3,-275.1 654,-254.75 649.45,-242.07 642.12,-228.68 636.24,-218.92"/>
<polygon fill="#63b8ff" stroke="#63b8ff" points="664.43,-316.3 669.13,-325.79 671.37,-315.43 664.43,-316.3"/>
</g>
<!-- Node26&#45;&gt;Node17 -->
<g id="edge73" class="edge">
<title>Node26&#45;&gt;Node17</title>
<path fill="none" stroke="#63b8ff" d="M955.19,-598.87C1160.22,-589.63 1786,-554.54 1786,-470.5 1786,-470.5 1786,-470.5 1786,-202.5 1786,-93 1389.79,-78.81 1248.95,-77.22"/>
<polygon fill="#63b8ff" stroke="#63b8ff" points="955.14,-595.41 945.31,-599.35 955.45,-602.41 955.14,-595.41"/>
</g>
<!-- Node26&#45;&gt;Node22 -->
<g id="edge49" class="edge">
<title>Node26&#45;&gt;Node22</title>
<path fill="none" stroke="#63b8ff" d="M848.33,-589.43C803.83,-576.84 735.09,-557.39 695.02,-546.06"/>
<polygon fill="#63b8ff" stroke="#63b8ff" points="847.24,-593.04 857.82,-592.4 849.15,-586.31 847.24,-593.04"/>
</g>
<!-- Node27 -->
<g id="node27" class="node">
<title>Node27</title>
<g id="a_node27"><a xlink:href="libplatform_8h.html" target="_top" xlink:title=" ">
<polygon fill="white" stroke="#666666" points="881.38,-484.75 786.62,-484.75 786.62,-454.25 881.38,-454.25 881.38,-484.75"/>
<text text-anchor="start" x="794.62" y="-471.25" font-family="Helvetica,sans-Serif" font-size="10.00">include/libplatform</text>
<text text-anchor="middle" x="834" y="-460" font-family="Helvetica,sans-Serif" font-size="10.00">/libplatform.h</text>
</a>
</g>
</g>
<!-- Node26&#45;&gt;Node27 -->
<g id="edge50" class="edge">
<title>Node26&#45;&gt;Node27</title>
<path fill="none" stroke="#63b8ff" d="M866.07,-586.27C854.34,-577.6 841.52,-565.61 835,-551.25 825.27,-529.8 827.88,-501.73 830.82,-484.96"/>
<polygon fill="#63b8ff" stroke="#63b8ff" points="863.89,-589.7 874.11,-592.48 867.85,-583.93 863.89,-589.7"/>
</g>
<!-- Node28 -->
<g id="node28" class="node">
<title>Node28</title>
<g id="a_node28"><a xlink:href="v8-tracing_8h.html" target="_top" xlink:title=" ">
<polygon fill="white" stroke="#666666" points="938.38,-551.25 843.62,-551.25 843.62,-520.75 938.38,-520.75 938.38,-551.25"/>
<text text-anchor="start" x="851.62" y="-537.75" font-family="Helvetica,sans-Serif" font-size="10.00">include/libplatform</text>
<text text-anchor="middle" x="891" y="-526.5" font-family="Helvetica,sans-Serif" font-size="10.00">/v8&#45;tracing.h</text>
</a>
</g>
</g>
<!-- Node26&#45;&gt;Node28 -->
<g id="edge52" class="edge">
<title>Node26&#45;&gt;Node28</title>
<path fill="none" stroke="#63b8ff" d="M891,-581.77C891,-571.95 891,-560.3 891,-551.34"/>
<polygon fill="#63b8ff" stroke="#63b8ff" points="887.5,-581.53 891,-591.53 894.5,-581.53 887.5,-581.53"/>
</g>
<!-- Node29 -->
<g id="node29" class="node">
<title>Node29</title>
<g id="a_node29"><a xlink:href="v8-array-buffer_8h.html" target="_top" xlink:title=" ">
<polygon fill="white" stroke="#666666" points="1075.38,-545.62 956.62,-545.62 956.62,-526.38 1075.38,-526.38 1075.38,-545.62"/>
<text text-anchor="middle" x="1016" y="-532.12" font-family="Helvetica,sans-Serif" font-size="10.00">include/v8&#45;array&#45;buffer.h</text>
</a>
</g>
</g>
<!-- Node26&#45;&gt;Node29 -->
<g id="edge54" class="edge">
<title>Node26&#45;&gt;Node29</title>
<path fill="none" stroke="#63b8ff" d="M918.37,-587.38C942.73,-574.81 977.64,-556.79 998.45,-546.06"/>
<polygon fill="#63b8ff" stroke="#63b8ff" points="916.93,-584.7 909.64,-592.4 920.14,-590.92 916.93,-584.7"/>
</g>
<!-- Node32 -->
<g id="node32" class="node">
<title>Node32</title>
<g id="a_node32"><a xlink:href="v8-initialization_8h.html" target="_top" xlink:title=" ">
<polygon fill="white" stroke="#666666" points="1757.5,-412.62 1636.5,-412.62 1636.5,-393.38 1757.5,-393.38 1757.5,-412.62"/>
<text text-anchor="middle" x="1697" y="-399.12" font-family="Helvetica,sans-Serif" font-size="10.00">include/v8&#45;initialization.h</text>
</a>
</g>
</g>
<!-- Node26&#45;&gt;Node32 -->
<g id="edge74" class="edge">
<title>Node26&#45;&gt;Node32</title>
<path fill="none" stroke="#63b8ff" d="M955.07,-590.95C1060.76,-572.97 1277.87,-533.53 1458,-484.75 1538.11,-463.06 1630.58,-429.23 1673.21,-413.12"/>
<polygon fill="#63b8ff" stroke="#63b8ff" points="954.55,-587.66 945.28,-592.78 955.72,-594.56 954.55,-587.66"/>
</g>
<!-- Node27&#45;&gt;Node23 -->
<g id="edge51" class="edge">
<title>Node27&#45;&gt;Node23</title>
<path fill="none" stroke="#63b8ff" d="M834,-443.13C834,-434.8 834,-425.83 834,-418.58"/>
<polygon fill="#63b8ff" stroke="#63b8ff" points="830.5,-442.86 834,-452.86 837.5,-442.86 830.5,-442.86"/>
</g>
<!-- Node28&#45;&gt;Node27 -->
<g id="edge53" class="edge">
<title>Node28&#45;&gt;Node27</title>
<path fill="none" stroke="#63b8ff" d="M870.81,-512.16C862.85,-503.15 853.94,-493.07 846.88,-485.08"/>
<polygon fill="#63b8ff" stroke="#63b8ff" points="867.82,-514.19 877.07,-519.36 873.07,-509.55 867.82,-514.19"/>
</g>
<!-- Node30 -->
<g id="node30" class="node">
<title>Node30</title>
<g id="a_node30"><a xlink:href="v8-isolate_8h.html" target="_top" xlink:title=" ">
<polygon fill="white" stroke="#666666" points="1448.62,-479.12 1349.38,-479.12 1349.38,-459.88 1448.62,-459.88 1448.62,-479.12"/>
<text text-anchor="middle" x="1399" y="-465.62" font-family="Helvetica,sans-Serif" font-size="10.00">include/v8&#45;isolate.h</text>
</a>
</g>
</g>
<!-- Node29&#45;&gt;Node30 -->
<g id="edge55" class="edge">
<title>Node29&#45;&gt;Node30</title>
<path fill="none" stroke="#63b8ff" d="M1080.89,-524.07C1156.71,-511.3 1280.5,-490.46 1349.17,-478.89"/>
<polygon fill="#63b8ff" stroke="#63b8ff" points="1080.34,-520.78 1071.06,-525.9 1081.5,-527.69 1080.34,-520.78"/>
</g>
<!-- Node33 -->
<g id="node33" class="node">
<title>Node33</title>
<g id="a_node33"><a xlink:href="v8_8h.html" target="_top" xlink:title=" ">
<polygon fill="white" stroke="#666666" points="1582.88,-213.12 1515.12,-213.12 1515.12,-193.88 1582.88,-193.88 1582.88,-213.12"/>
<text text-anchor="middle" x="1549" y="-199.62" font-family="Helvetica,sans-Serif" font-size="10.00">include/v8.h</text>
</a>
</g>
</g>
<!-- Node29&#45;&gt;Node33 -->
<g id="edge72" class="edge">
<title>Node29&#45;&gt;Node33</title>
<path fill="none" stroke="#63b8ff" d="M989.64,-520.44C975.7,-511.64 959.2,-499.31 948,-484.75 924.46,-454.15 916,-442.6 916,-404 916,-404 916,-404 916,-335.5 916,-212.05 1383.49,-204.03 1514.97,-204.22"/>
<polygon fill="#63b8ff" stroke="#63b8ff" points="987.41,-523.79 997.78,-525.96 991.03,-517.8 987.41,-523.79"/>
</g>
<!-- Node40 -->
<g id="node40" class="node">
<title>Node40</title>
<g id="a_node40"><a xlink:href="v8-typed-array_8h.html" target="_top" xlink:title=" ">
<polygon fill="white" stroke="#666666" points="1075,-479.12 957,-479.12 957,-459.88 1075,-459.88 1075,-479.12"/>
<text text-anchor="middle" x="1016" y="-465.62" font-family="Helvetica,sans-Serif" font-size="10.00">include/v8&#45;typed&#45;array.h</text>
</a>
</g>
</g>
<!-- Node29&#45;&gt;Node40 -->
<g id="edge69" class="edge">
<title>Node29&#45;&gt;Node40</title>
<path fill="none" stroke="#63b8ff" d="M1016,-515.27C1016,-503.3 1016,-488.6 1016,-479.39"/>
<polygon fill="#63b8ff" stroke="#63b8ff" points="1012.5,-515.03 1016,-525.03 1019.5,-515.03 1012.5,-515.03"/>
</g>
<!-- Node31 -->
<g id="node31" class="node">
<title>Node31</title>
<g id="a_node31"><a xlink:href="v8-external-memory-accounter_8h.html" target="_top" xlink:title=" ">
<polygon fill="white" stroke="#666666" points="1452.38,-418.25 1345.62,-418.25 1345.62,-387.75 1452.38,-387.75 1452.38,-418.25"/>
<text text-anchor="start" x="1353.62" y="-404.75" font-family="Helvetica,sans-Serif" font-size="10.00">include/v8&#45;external</text>
<text text-anchor="middle" x="1399" y="-393.5" font-family="Helvetica,sans-Serif" font-size="10.00">&#45;memory&#45;accounter.h</text>
</a>
</g>
</g>
<!-- Node30&#45;&gt;Node31 -->
<g id="edge56" class="edge">
<title>Node30&#45;&gt;Node31</title>
<path fill="none" stroke="#63b8ff" d="M1399,-448.77C1399,-438.95 1399,-427.3 1399,-418.34"/>
<polygon fill="#63b8ff" stroke="#63b8ff" points="1395.5,-448.53 1399,-458.53 1402.5,-448.53 1395.5,-448.53"/>
</g>
<!-- Node30&#45;&gt;Node32 -->
<g id="edge57" class="edge">
<title>Node30&#45;&gt;Node32</title>
<path fill="none" stroke="#63b8ff" d="M1451.48,-457.14C1509.5,-444.58 1601.79,-424.61 1655.15,-413.06"/>
<polygon fill="#63b8ff" stroke="#63b8ff" points="1451.1,-453.86 1442.06,-459.4 1452.58,-460.7 1451.1,-453.86"/>
</g>
<!-- Node30&#45;&gt;Node33 -->
<g id="edge68" class="edge">
<title>Node30&#45;&gt;Node33</title>
<path fill="none" stroke="#63b8ff" d="M1424.67,-453.75C1437.53,-445.05 1452.21,-432.87 1461,-418.25 1499.16,-354.8 1456.44,-319.14 1493,-254.75 1503,-237.14 1521.42,-222.44 1534.4,-213.57"/>
<polygon fill="#63b8ff" stroke="#63b8ff" points="1423.27,-451.13 1416.73,-459.46 1427.04,-457.03 1423.27,-451.13"/>
</g>
<!-- Node34 -->
<g id="node34" class="node">
<title>Node34</title>
<g id="a_node34"><a xlink:href="v8-inspector_8h.html" target="_top" xlink:title=" ">
<polygon fill="white" stroke="#666666" points="1206.25,-412.62 1095.75,-412.62 1095.75,-393.38 1206.25,-393.38 1206.25,-412.62"/>
<text text-anchor="middle" x="1151" y="-399.12" font-family="Helvetica,sans-Serif" font-size="10.00">include/v8&#45;inspector.h</text>
</a>
</g>
</g>
<!-- Node30&#45;&gt;Node34 -->
<g id="edge59" class="edge">
<title>Node30&#45;&gt;Node34</title>
<path fill="none" stroke="#63b8ff" d="M1353.51,-456.67C1305.13,-444.09 1229.69,-424.46 1185.83,-413.06"/>
<polygon fill="#63b8ff" stroke="#63b8ff" points="1352.43,-460.27 1362.99,-459.4 1354.2,-453.49 1352.43,-460.27"/>
</g>
<!-- Node36 -->
<g id="node36" class="node">
<title>Node36</title>
<g id="a_node36"><a xlink:href="v8-metrics_8h.html" target="_top" xlink:title=" ">
<polygon fill="white" stroke="#666666" points="1327.5,-412.62 1224.5,-412.62 1224.5,-393.38 1327.5,-393.38 1327.5,-412.62"/>
<text text-anchor="middle" x="1276" y="-399.12" font-family="Helvetica,sans-Serif" font-size="10.00">include/v8&#45;metrics.h</text>
</a>
</g>
</g>
<!-- Node30&#45;&gt;Node36 -->
<g id="edge61" class="edge">
<title>Node30&#45;&gt;Node36</title>
<path fill="none" stroke="#63b8ff" d="M1372.07,-454.38C1348.1,-441.81 1313.75,-423.79 1293.27,-413.06"/>
<polygon fill="#63b8ff" stroke="#63b8ff" points="1370.16,-457.85 1380.64,-459.4 1373.41,-451.65 1370.16,-457.85"/>
</g>
<!-- Node37 -->
<g id="node37" class="node">
<title>Node37</title>
<g id="a_node37"><a xlink:href="v8-snapshot_8h.html" target="_top" xlink:title=" ">
<polygon fill="white" stroke="#666666" points="1618.25,-412.62 1507.75,-412.62 1507.75,-393.38 1618.25,-393.38 1618.25,-412.62"/>
<text text-anchor="middle" x="1563" y="-399.12" font-family="Helvetica,sans-Serif" font-size="10.00">include/v8&#45;snapshot.h</text>
</a>
</g>
</g>
<!-- Node30&#45;&gt;Node37 -->
<g id="edge62" class="edge">
<title>Node30&#45;&gt;Node37</title>
<path fill="none" stroke="#63b8ff" d="M1432.37,-455.38C1464.4,-442.78 1511.94,-424.08 1539.97,-413.06"/>
<polygon fill="#63b8ff" stroke="#63b8ff" points="1431.17,-452.48 1423.15,-459.4 1433.74,-458.99 1431.17,-452.48"/>
</g>
<!-- Node32&#45;&gt;Node33 -->
<g id="edge58" class="edge">
<title>Node32&#45;&gt;Node33</title>
<path fill="none" stroke="#63b8ff" d="M1693.33,-382.49C1686.76,-352.07 1670.4,-292.88 1637,-254.75 1619.96,-235.3 1593.47,-221.62 1574.01,-213.49"/>
<polygon fill="#63b8ff" stroke="#63b8ff" points="1690.04,-382.86 1695.45,-391.97 1696.9,-381.47 1690.04,-382.86"/>
</g>
<!-- Node35 -->
<g id="node35" class="node">
<title>Node35</title>
<g id="a_node35"><a xlink:href="v8-inspector-protocol_8h.html" target="_top" xlink:title=" ">
<polygon fill="white" stroke="#666666" points="1202.5,-351.75 1099.5,-351.75 1099.5,-321.25 1202.5,-321.25 1202.5,-351.75"/>
<text text-anchor="start" x="1107.5" y="-338.25" font-family="Helvetica,sans-Serif" font-size="10.00">include/v8&#45;inspector</text>
<text text-anchor="middle" x="1151" y="-327" font-family="Helvetica,sans-Serif" font-size="10.00">&#45;protocol.h</text>
</a>
</g>
</g>
<!-- Node34&#45;&gt;Node35 -->
<g id="edge60" class="edge">
<title>Node34&#45;&gt;Node35</title>
<path fill="none" stroke="#63b8ff" d="M1151,-382.27C1151,-372.45 1151,-360.8 1151,-351.84"/>
<polygon fill="#63b8ff" stroke="#63b8ff" points="1147.5,-382.03 1151,-392.03 1154.5,-382.03 1147.5,-382.03"/>
</g>
<!-- Node37&#45;&gt;Node33 -->
<g id="edge67" class="edge">
<title>Node37&#45;&gt;Node33</title>
<path fill="none" stroke="#63b8ff" d="M1589.87,-387.1C1602.41,-378.55 1616.08,-366.56 1623,-351.75 1629.87,-337.04 1630.38,-273.76 1620,-254.75 1609.36,-235.27 1587.53,-221.59 1570.87,-213.48"/>
<polygon fill="#63b8ff" stroke="#63b8ff" points="1588.2,-384.65 1581.62,-392.96 1591.94,-390.56 1588.2,-384.65"/>
</g>
<!-- Node38 -->
<g id="node38" class="node">
<title>Node38</title>
<g id="a_node38"><a xlink:href="v8-context_8h.html" target="_top" xlink:title=" ">
<polygon fill="white" stroke="#666666" points="1614.12,-346.12 1511.88,-346.12 1511.88,-326.88 1614.12,-326.88 1614.12,-346.12"/>
<text text-anchor="middle" x="1563" y="-332.62" font-family="Helvetica,sans-Serif" font-size="10.00">include/v8&#45;context.h</text>
</a>
</g>
</g>
<!-- Node37&#45;&gt;Node38 -->
<g id="edge63" class="edge">
<title>Node37&#45;&gt;Node38</title>
<path fill="none" stroke="#63b8ff" d="M1563,-382.27C1563,-370.3 1563,-355.6 1563,-346.39"/>
<polygon fill="#63b8ff" stroke="#63b8ff" points="1559.5,-382.03 1563,-392.03 1566.5,-382.03 1559.5,-382.03"/>
</g>
<!-- Node38&#45;&gt;Node33 -->
<g id="edge66" class="edge">
<title>Node38&#45;&gt;Node33</title>
<path fill="none" stroke="#63b8ff" d="M1581.81,-319.1C1590.67,-310.11 1600.31,-298.18 1605,-285.25 1609.62,-272.51 1610.52,-267.13 1605,-254.75 1596.86,-236.5 1578.44,-222.11 1564.95,-213.49"/>
<polygon fill="#63b8ff" stroke="#63b8ff" points="1579.89,-316.04 1575.06,-325.47 1584.72,-321.12 1579.89,-316.04"/>
</g>
<!-- Node39 -->
<g id="node39" class="node">
<title>Node39</title>
<g id="a_node39"><a xlink:href="v8-proxy_8h.html" target="_top" xlink:title=" ">
<polygon fill="white" stroke="#666666" points="1595.62,-279.62 1502.38,-279.62 1502.38,-260.38 1595.62,-260.38 1595.62,-279.62"/>
<text text-anchor="middle" x="1549" y="-266.12" font-family="Helvetica,sans-Serif" font-size="10.00">include/v8&#45;proxy.h</text>
</a>
</g>
</g>
<!-- Node38&#45;&gt;Node39 -->
<g id="edge64" class="edge">
<title>Node38&#45;&gt;Node39</title>
<path fill="none" stroke="#63b8ff" d="M1558.8,-316.15C1556.19,-304.11 1552.95,-289.2 1550.93,-279.89"/>
<polygon fill="#63b8ff" stroke="#63b8ff" points="1555.51,-316.5 1561.05,-325.53 1562.35,-315.02 1555.51,-316.5"/>
</g>
<!-- Node39&#45;&gt;Node33 -->
<g id="edge65" class="edge">
<title>Node39&#45;&gt;Node33</title>
<path fill="none" stroke="#63b8ff" d="M1549,-249.27C1549,-237.3 1549,-222.6 1549,-213.39"/>
<polygon fill="#63b8ff" stroke="#63b8ff" points="1545.5,-249.03 1549,-259.03 1552.5,-249.03 1545.5,-249.03"/>
</g>
<!-- Node40&#45;&gt;Node33 -->
<g id="edge71" class="edge">
<title>Node40&#45;&gt;Node33</title>
<path fill="none" stroke="#63b8ff" d="M996.94,-452.16C980.14,-435.7 960.19,-409.67 973,-387.75 1003.37,-335.77 1035.13,-343.66 1091,-321.25 1243.32,-260.16 1437.18,-223.27 1514.71,-210.05"/>
<polygon fill="#63b8ff" stroke="#63b8ff" points="994.05,-454.19 1003.77,-458.41 998.81,-449.05 994.05,-454.19"/>
</g>
<!-- Node41 -->
<g id="node41" class="node">
<title>Node41</title>
<g id="a_node41"><a xlink:href="v8-fast-api-calls_8h.html" target="_top" xlink:title=" ">
<polygon fill="white" stroke="#666666" points="1077.75,-418.25 982.25,-418.25 982.25,-387.75 1077.75,-387.75 1077.75,-418.25"/>
<text text-anchor="start" x="990.25" y="-404.75" font-family="Helvetica,sans-Serif" font-size="10.00">include/v8&#45;fast&#45;api</text>
<text text-anchor="middle" x="1030" y="-393.5" font-family="Helvetica,sans-Serif" font-size="10.00">&#45;calls.h</text>
</a>
</g>
</g>
<!-- Node40&#45;&gt;Node41 -->
<g id="edge70" class="edge">
<title>Node40&#45;&gt;Node41</title>
<path fill="none" stroke="#63b8ff" d="M1020.21,-449.09C1022.36,-439.21 1024.92,-427.4 1026.89,-418.34"/>
<polygon fill="#63b8ff" stroke="#63b8ff" points="1016.65,-448.02 1017.95,-458.53 1023.49,-449.5 1016.65,-448.02"/>
</g>
</g>
</svg>
