<?xml version="1.0" encoding="UTF-8" standalone="no"?>
<!DOCTYPE svg PUBLIC "-//W3C//DTD SVG 1.1//EN"
 "http://www.w3.org/Graphics/SVG/1.1/DTD/svg11.dtd">
<!-- Generated by graphviz version 8.0.5 (20230430.1635)
 -->
<!-- Title: include/v8&#45;wasm.h Pages: 1 -->
<svg width="1694pt" height="602pt"
 viewBox="0.00 0.00 1694.00 602.25" xmlns="http://www.w3.org/2000/svg" xmlns:xlink="http://www.w3.org/1999/xlink">
<g id="graph0" class="graph" transform="scale(1 1) rotate(0) translate(4 598.25)">
<title>include/v8&#45;wasm.h</title>
<!-- Node1 -->
<g id="node1" class="node">
<title>Node1</title>
<g id="a_node1"><a xlink:title=" ">
<polygon fill="#999999" stroke="#666666" points="249.5,-594.25 152.5,-594.25 152.5,-575 249.5,-575 249.5,-594.25"/>
<text text-anchor="middle" x="201" y="-580.75" font-family="Helvetica,sans-Serif" font-size="10.00">include/v8&#45;wasm.h</text>
</a>
</g>
</g>
<!-- Node2 -->
<g id="node2" class="node">
<title>Node2</title>
<g id="a_node2"><a xlink:title=" ">
<polygon fill="#e0e0e0" stroke="#999999" points="58,-539 0,-539 0,-519.75 58,-519.75 58,-539"/>
<text text-anchor="middle" x="29" y="-525.5" font-family="Helvetica,sans-Serif" font-size="10.00">functional</text>
</a>
</g>
</g>
<!-- Node1&#45;&gt;Node2 -->
<g id="edge1" class="edge">
<title>Node1&#45;&gt;Node2</title>
<path fill="none" stroke="#63b8ff" d="M171.82,-574.59C143.41,-565.79 100.01,-552.36 68.51,-542.61"/>
<polygon fill="#63b8ff" stroke="#63b8ff" points="69.91,-539.07 59.32,-539.45 67.84,-545.75 69.91,-539.07"/>
</g>
<!-- Node3 -->
<g id="node3" class="node">
<title>Node3</title>
<g id="a_node3"><a xlink:title=" ">
<polygon fill="#e0e0e0" stroke="#999999" points="400.25,-19.25 349.75,-19.25 349.75,0 400.25,0 400.25,-19.25"/>
<text text-anchor="middle" x="375" y="-5.75" font-family="Helvetica,sans-Serif" font-size="10.00">memory</text>
</a>
</g>
</g>
<!-- Node1&#45;&gt;Node3 -->
<g id="edge2" class="edge">
<title>Node1&#45;&gt;Node3</title>
<path fill="none" stroke="#63b8ff" d="M164.06,-574.51C144,-567.79 120.26,-556.67 105,-539 85.64,-516.58 86,-504.74 86,-475.12 86,-475.12 86,-475.12 86,-124.75 86,-71.02 260.99,-31.81 338.64,-17.05"/>
<polygon fill="#63b8ff" stroke="#63b8ff" points="339.16,-20.33 348.35,-15.05 337.88,-13.44 339.16,-20.33"/>
</g>
<!-- Node4 -->
<g id="node4" class="node">
<title>Node4</title>
<g id="a_node4"><a xlink:title=" ">
<polygon fill="#e0e0e0" stroke="#999999" points="154,-539 114,-539 114,-519.75 154,-519.75 154,-539"/>
<text text-anchor="middle" x="134" y="-525.5" font-family="Helvetica,sans-Serif" font-size="10.00">string</text>
</a>
</g>
</g>
<!-- Node1&#45;&gt;Node4 -->
<g id="edge3" class="edge">
<title>Node1&#45;&gt;Node4</title>
<path fill="none" stroke="#63b8ff" d="M189.63,-574.59C179.76,-566.74 165.23,-555.2 153.5,-545.87"/>
<polygon fill="#63b8ff" stroke="#63b8ff" points="156.2,-542.76 146.2,-539.27 151.85,-548.24 156.2,-542.76"/>
</g>
<!-- Node5 -->
<g id="node5" class="node">
<title>Node5</title>
<g id="a_node5"><a xlink:href="v8-internal_8h.html" target="_top" xlink:title=" ">
<polygon fill="white" stroke="#666666" points="1320.25,-196.25 1251.75,-196.25 1251.75,-177 1320.25,-177 1320.25,-196.25"/>
<text text-anchor="middle" x="1286" y="-182.75" font-family="Helvetica,sans-Serif" font-size="10.00">v8&#45;internal.h</text>
</a>
</g>
</g>
<!-- Node1&#45;&gt;Node5 -->
<g id="edge4" class="edge">
<title>Node1&#45;&gt;Node5</title>
<path fill="none" stroke="#63b8ff" d="M249.99,-582.67C506.79,-577.34 1686,-548.84 1686,-475.12 1686,-475.12 1686,-475.12 1686,-307.38 1686,-253.2 1639.8,-253.59 1590,-232.25 1503.69,-195.26 1392.32,-188.04 1331.18,-187.14"/>
<polygon fill="#63b8ff" stroke="#63b8ff" points="1331.4,-183.63 1321.37,-187.04 1331.33,-190.63 1331.4,-183.63"/>
</g>
<!-- Node14 -->
<g id="node14" class="node">
<title>Node14</title>
<g id="a_node14"><a xlink:href="v8config_8h.html" target="_top" xlink:title=" ">
<polygon fill="white" stroke="#666666" points="612.75,-74.5 553.25,-74.5 553.25,-55.25 612.75,-55.25 612.75,-74.5"/>
<text text-anchor="middle" x="583" y="-61" font-family="Helvetica,sans-Serif" font-size="10.00">v8config.h</text>
</a>
</g>
</g>
<!-- Node1&#45;&gt;Node14 -->
<g id="edge87" class="edge">
<title>Node1&#45;&gt;Node14</title>
<path fill="none" stroke="#63b8ff" d="M199.09,-574.75C187.97,-520.33 137.14,-230.29 289,-110.5 327.48,-80.15 470.57,-70.27 541.95,-67.19"/>
<polygon fill="#63b8ff" stroke="#63b8ff" points="541.92,-70.66 551.77,-66.76 541.64,-63.66 541.92,-70.66"/>
</g>
<!-- Node15 -->
<g id="node15" class="node">
<title>Node15</title>
<g id="a_node15"><a xlink:href="v8-local-handle_8h.html" target="_top" xlink:title=" ">
<polygon fill="white" stroke="#666666" points="1337.38,-318 1248.62,-318 1248.62,-298.75 1337.38,-298.75 1337.38,-318"/>
<text text-anchor="middle" x="1293" y="-304.5" font-family="Helvetica,sans-Serif" font-size="10.00">v8&#45;local&#45;handle.h</text>
</a>
</g>
</g>
<!-- Node1&#45;&gt;Node15 -->
<g id="edge16" class="edge">
<title>Node1&#45;&gt;Node15</title>
<path fill="none" stroke="#63b8ff" d="M249.96,-583.3C470.59,-581.35 1365.55,-568.27 1454,-483.75 1496.34,-443.29 1513.2,-400.03 1477,-354 1461.18,-333.88 1396.52,-321.73 1348.3,-315.29"/>
<polygon fill="#63b8ff" stroke="#63b8ff" points="1349.03,-311.73 1338.66,-313.93 1348.14,-318.67 1349.03,-311.73"/>
</g>
<!-- Node18 -->
<g id="node18" class="node">
<title>Node18</title>
<g id="a_node18"><a xlink:href="v8-memory-span_8h.html" target="_top" xlink:title=" ">
<polygon fill="white" stroke="#666666" points="880.75,-196.25 785.25,-196.25 785.25,-177 880.75,-177 880.75,-196.25"/>
<text text-anchor="middle" x="833" y="-182.75" font-family="Helvetica,sans-Serif" font-size="10.00">v8&#45;memory&#45;span.h</text>
</a>
</g>
</g>
<!-- Node1&#45;&gt;Node18 -->
<g id="edge23" class="edge">
<title>Node1&#45;&gt;Node18</title>
<path fill="none" stroke="#63b8ff" d="M208.1,-574.69C244.54,-529.54 416.13,-324.99 606,-232.25 621.01,-224.92 712.39,-208.27 774.53,-197.51"/>
<polygon fill="#63b8ff" stroke="#63b8ff" points="774.74,-200.85 784,-195.7 773.55,-193.95 774.74,-200.85"/>
</g>
<!-- Node21 -->
<g id="node21" class="node">
<title>Node21</title>
<g id="a_node21"><a xlink:href="v8-object_8h.html" target="_top" xlink:title=" ">
<polygon fill="white" stroke="#666666" points="1101.62,-539 1038.38,-539 1038.38,-519.75 1101.62,-519.75 1101.62,-539"/>
<text text-anchor="middle" x="1070" y="-525.5" font-family="Helvetica,sans-Serif" font-size="10.00">v8&#45;object.h</text>
</a>
</g>
</g>
<!-- Node1&#45;&gt;Node21 -->
<g id="edge30" class="edge">
<title>Node1&#45;&gt;Node21</title>
<path fill="none" stroke="#63b8ff" d="M249.9,-580.63C404.57,-571.15 881.55,-541.92 1027.27,-532.99"/>
<polygon fill="#63b8ff" stroke="#63b8ff" points="1027.21,-536.44 1036.98,-532.34 1026.78,-529.46 1027.21,-536.44"/>
</g>
<!-- Node5&#45;&gt;Node3 -->
<g id="edge11" class="edge">
<title>Node5&#45;&gt;Node3</title>
<path fill="none" stroke="#63b8ff" d="M1320.49,-184.6C1392.76,-181.32 1549.23,-167.59 1497,-110.5 1422,-28.53 596.07,-13.39 411.46,-11.02"/>
<polygon fill="#63b8ff" stroke="#63b8ff" points="411.76,-7.51 401.72,-10.89 411.67,-14.51 411.76,-7.51"/>
</g>
<!-- Node6 -->
<g id="node6" class="node">
<title>Node6</title>
<g id="a_node6"><a xlink:title=" ">
<polygon fill="#e0e0e0" stroke="#999999" points="1129.25,-135.38 1078.75,-135.38 1078.75,-116.12 1129.25,-116.12 1129.25,-135.38"/>
<text text-anchor="middle" x="1104" y="-121.88" font-family="Helvetica,sans-Serif" font-size="10.00">stddef.h</text>
</a>
</g>
</g>
<!-- Node5&#45;&gt;Node6 -->
<g id="edge5" class="edge">
<title>Node5&#45;&gt;Node6</title>
<path fill="none" stroke="#63b8ff" d="M1252.17,-176.51C1221.96,-168.11 1176.64,-154.88 1138,-141 1136.92,-140.61 1135.82,-140.21 1134.71,-139.79"/>
<polygon fill="#63b8ff" stroke="#63b8ff" points="1136.31,-136.26 1125.72,-135.84 1133.73,-142.77 1136.31,-136.26"/>
</g>
<!-- Node7 -->
<g id="node7" class="node">
<title>Node7</title>
<g id="a_node7"><a xlink:title=" ">
<polygon fill="#e0e0e0" stroke="#999999" points="1194.75,-135.38 1147.25,-135.38 1147.25,-116.12 1194.75,-116.12 1194.75,-135.38"/>
<text text-anchor="middle" x="1171" y="-121.88" font-family="Helvetica,sans-Serif" font-size="10.00">stdint.h</text>
</a>
</g>
</g>
<!-- Node5&#45;&gt;Node7 -->
<g id="edge6" class="edge">
<title>Node5&#45;&gt;Node7</title>
<path fill="none" stroke="#63b8ff" d="M1268.53,-176.68C1249.87,-167.13 1220.05,-151.86 1198.29,-140.72"/>
<polygon fill="#63b8ff" stroke="#63b8ff" points="1200.13,-137.22 1189.63,-135.78 1196.94,-143.45 1200.13,-137.22"/>
</g>
<!-- Node8 -->
<g id="node8" class="node">
<title>Node8</title>
<g id="a_node8"><a xlink:title=" ">
<polygon fill="#e0e0e0" stroke="#999999" points="1487.75,-135.38 1440.25,-135.38 1440.25,-116.12 1487.75,-116.12 1487.75,-135.38"/>
<text text-anchor="middle" x="1464" y="-121.88" font-family="Helvetica,sans-Serif" font-size="10.00">string.h</text>
</a>
</g>
</g>
<!-- Node5&#45;&gt;Node8 -->
<g id="edge7" class="edge">
<title>Node5&#45;&gt;Node8</title>
<path fill="none" stroke="#63b8ff" d="M1319.17,-176.53C1348.78,-168.15 1393.19,-154.94 1431,-141 1431.92,-140.66 1432.86,-140.31 1433.8,-139.95"/>
<polygon fill="#63b8ff" stroke="#63b8ff" points="1434.95,-142.85 1442.9,-135.84 1432.31,-136.36 1434.95,-142.85"/>
</g>
<!-- Node9 -->
<g id="node9" class="node">
<title>Node9</title>
<g id="a_node9"><a xlink:title=" ">
<polygon fill="#e0e0e0" stroke="#999999" points="1257.62,-135.38 1212.38,-135.38 1212.38,-116.12 1257.62,-116.12 1257.62,-135.38"/>
<text text-anchor="middle" x="1235" y="-121.88" font-family="Helvetica,sans-Serif" font-size="10.00">atomic</text>
</a>
</g>
</g>
<!-- Node5&#45;&gt;Node9 -->
<g id="edge8" class="edge">
<title>Node5&#45;&gt;Node9</title>
<path fill="none" stroke="#63b8ff" d="M1278.25,-176.68C1270.77,-168.04 1259.22,-154.71 1249.94,-144"/>
<polygon fill="#63b8ff" stroke="#63b8ff" points="1252.01,-142.04 1242.82,-136.78 1246.72,-146.63 1252.01,-142.04"/>
</g>
<!-- Node10 -->
<g id="node10" class="node">
<title>Node10</title>
<g id="a_node10"><a xlink:title=" ">
<polygon fill="#e0e0e0" stroke="#999999" points="1023,-135.38 977,-135.38 977,-116.12 1023,-116.12 1023,-135.38"/>
<text text-anchor="middle" x="1000" y="-121.88" font-family="Helvetica,sans-Serif" font-size="10.00">iterator</text>
</a>
</g>
</g>
<!-- Node5&#45;&gt;Node10 -->
<g id="edge9" class="edge">
<title>Node5&#45;&gt;Node10</title>
<path fill="none" stroke="#63b8ff" d="M1251.5,-178.52C1196.32,-167.16 1088.85,-145.04 1033.99,-133.75"/>
<polygon fill="#63b8ff" stroke="#63b8ff" points="1034.94,-130.16 1024.44,-131.57 1033.53,-137.02 1034.94,-130.16"/>
</g>
<!-- Node11 -->
<g id="node11" class="node">
<title>Node11</title>
<g id="a_node11"><a xlink:title=" ">
<polygon fill="#e0e0e0" stroke="#999999" points="1353.62,-135.38 1314.38,-135.38 1314.38,-116.12 1353.62,-116.12 1353.62,-135.38"/>
<text text-anchor="middle" x="1334" y="-121.88" font-family="Helvetica,sans-Serif" font-size="10.00">limits</text>
</a>
</g>
</g>
<!-- Node5&#45;&gt;Node11 -->
<g id="edge10" class="edge">
<title>Node5&#45;&gt;Node11</title>
<path fill="none" stroke="#63b8ff" d="M1293.29,-176.68C1300.34,-168.04 1311.2,-154.71 1319.94,-144"/>
<polygon fill="#63b8ff" stroke="#63b8ff" points="1323.03,-146.74 1326.64,-136.78 1317.61,-142.31 1323.03,-146.74"/>
</g>
<!-- Node12 -->
<g id="node12" class="node">
<title>Node12</title>
<g id="a_node12"><a xlink:title=" ">
<polygon fill="#e0e0e0" stroke="#999999" points="1421.88,-135.38 1372.12,-135.38 1372.12,-116.12 1421.88,-116.12 1421.88,-135.38"/>
<text text-anchor="middle" x="1397" y="-121.88" font-family="Helvetica,sans-Serif" font-size="10.00">optional</text>
</a>
</g>
</g>
<!-- Node5&#45;&gt;Node12 -->
<g id="edge12" class="edge">
<title>Node5&#45;&gt;Node12</title>
<path fill="none" stroke="#63b8ff" d="M1302.86,-176.68C1320.79,-167.17 1349.4,-152 1370.38,-140.87"/>
<polygon fill="#63b8ff" stroke="#63b8ff" points="1371.79,-143.55 1378.98,-135.78 1368.51,-137.37 1371.79,-143.55"/>
</g>
<!-- Node13 -->
<g id="node13" class="node">
<title>Node13</title>
<g id="a_node13"><a xlink:title=" ">
<polygon fill="#e0e0e0" stroke="#999999" points="958.5,-135.38 897.5,-135.38 897.5,-116.12 958.5,-116.12 958.5,-135.38"/>
<text text-anchor="middle" x="928" y="-121.88" font-family="Helvetica,sans-Serif" font-size="10.00">type_traits</text>
</a>
</g>
</g>
<!-- Node5&#45;&gt;Node13 -->
<g id="edge13" class="edge">
<title>Node5&#45;&gt;Node13</title>
<path fill="none" stroke="#63b8ff" d="M1251.68,-183.1C1192.91,-178.28 1069.51,-165.93 968,-141 965.82,-140.46 963.59,-139.85 961.36,-139.2"/>
<polygon fill="#63b8ff" stroke="#63b8ff" points="962.62,-135.6 952.02,-135.85 960.46,-142.26 962.62,-135.6"/>
</g>
<!-- Node5&#45;&gt;Node14 -->
<g id="edge14" class="edge">
<title>Node5&#45;&gt;Node14</title>
<path fill="none" stroke="#63b8ff" d="M1286.77,-176.73C1287.61,-160.67 1286.75,-126.94 1267,-110.5 1217.52,-69.32 762.98,-65.87 623.5,-65.79"/>
<polygon fill="#63b8ff" stroke="#63b8ff" points="623.88,-62.29 613.88,-65.79 623.88,-69.29 623.88,-62.29"/>
</g>
<!-- Node14&#45;&gt;Node3 -->
<g id="edge15" class="edge">
<title>Node14&#45;&gt;Node3</title>
<path fill="none" stroke="#63b8ff" d="M552.76,-56.13C515.27,-46.53 451.44,-30.19 411.33,-19.93"/>
<polygon fill="#63b8ff" stroke="#63b8ff" points="412.25,-16.29 401.69,-17.2 410.51,-23.07 412.25,-16.29"/>
</g>
<!-- Node15&#45;&gt;Node5 -->
<g id="edge22" class="edge">
<title>Node15&#45;&gt;Node5</title>
<path fill="none" stroke="#63b8ff" d="M1337.69,-300.65C1360.42,-294.73 1386.1,-283.6 1400,-262.75 1407.52,-251.47 1407.64,-243.45 1400,-232.25 1384.61,-209.69 1355.95,-198.54 1331.22,-193.02"/>
<polygon fill="#63b8ff" stroke="#63b8ff" points="1332.04,-189.42 1321.55,-190.92 1330.69,-196.29 1332.04,-189.42"/>
</g>
<!-- Node15&#45;&gt;Node6 -->
<g id="edge17" class="edge">
<title>Node15&#45;&gt;Node6</title>
<path fill="none" stroke="#63b8ff" d="M1279.37,-298.47C1266.64,-289.91 1247.34,-276.3 1232,-262.75 1187.44,-223.38 1141.04,-170.63 1118.3,-143.87"/>
<polygon fill="#63b8ff" stroke="#63b8ff" points="1120.41,-141.94 1111.29,-136.55 1115.06,-146.45 1120.41,-141.94"/>
</g>
<!-- Node15&#45;&gt;Node13 -->
<g id="edge18" class="edge">
<title>Node15&#45;&gt;Node13</title>
<path fill="none" stroke="#63b8ff" d="M1273.05,-298.33C1253.57,-289.45 1223.13,-275.42 1197,-262.75 1107.95,-219.56 1003.66,-165.96 955.25,-140.9"/>
<polygon fill="#63b8ff" stroke="#63b8ff" points="957.01,-137.36 946.53,-135.86 953.79,-143.57 957.01,-137.36"/>
</g>
<!-- Node16 -->
<g id="node16" class="node">
<title>Node16</title>
<g id="a_node16"><a xlink:title=" ">
<polygon fill="#e0e0e0" stroke="#999999" points="1391.5,-257.12 1348.5,-257.12 1348.5,-237.88 1391.5,-237.88 1391.5,-257.12"/>
<text text-anchor="middle" x="1370" y="-243.62" font-family="Helvetica,sans-Serif" font-size="10.00">vector</text>
</a>
</g>
</g>
<!-- Node15&#45;&gt;Node16 -->
<g id="edge19" class="edge">
<title>Node15&#45;&gt;Node16</title>
<path fill="none" stroke="#63b8ff" d="M1304.69,-298.43C1316.57,-289.36 1335.19,-275.12 1349.52,-264.16"/>
<polygon fill="#63b8ff" stroke="#63b8ff" points="1351.38,-266.38 1357.2,-257.53 1347.13,-260.82 1351.38,-266.38"/>
</g>
<!-- Node17 -->
<g id="node17" class="node">
<title>Node17</title>
<g id="a_node17"><a xlink:href="v8-handle-base_8h.html" target="_top" xlink:title=" ">
<polygon fill="white" stroke="#666666" points="1330.75,-257.12 1241.25,-257.12 1241.25,-237.88 1330.75,-237.88 1330.75,-257.12"/>
<text text-anchor="middle" x="1286" y="-243.62" font-family="Helvetica,sans-Serif" font-size="10.00">v8&#45;handle&#45;base.h</text>
</a>
</g>
</g>
<!-- Node15&#45;&gt;Node17 -->
<g id="edge20" class="edge">
<title>Node15&#45;&gt;Node17</title>
<path fill="none" stroke="#63b8ff" d="M1291.94,-298.43C1290.99,-290.48 1289.57,-278.56 1288.36,-268.37"/>
<polygon fill="#63b8ff" stroke="#63b8ff" points="1291.73,-268.04 1287.07,-258.53 1284.78,-268.87 1291.73,-268.04"/>
</g>
<!-- Node17&#45;&gt;Node5 -->
<g id="edge21" class="edge">
<title>Node17&#45;&gt;Node5</title>
<path fill="none" stroke="#63b8ff" d="M1286,-237.56C1286,-229.6 1286,-217.69 1286,-207.49"/>
<polygon fill="#63b8ff" stroke="#63b8ff" points="1289.5,-207.65 1286,-197.65 1282.5,-207.65 1289.5,-207.65"/>
</g>
<!-- Node18&#45;&gt;Node6 -->
<g id="edge24" class="edge">
<title>Node18&#45;&gt;Node6</title>
<path fill="none" stroke="#63b8ff" d="M874.75,-176.55C927.62,-165.07 1017.83,-145.47 1067.87,-134.6"/>
<polygon fill="#63b8ff" stroke="#63b8ff" points="1068.48,-137.83 1077.5,-132.29 1066.99,-130.99 1068.48,-137.83"/>
</g>
<!-- Node18&#45;&gt;Node10 -->
<g id="edge27" class="edge">
<title>Node18&#45;&gt;Node10</title>
<path fill="none" stroke="#63b8ff" d="M862.8,-176.51C890.13,-167.96 931.61,-154.51 967,-141 967.92,-140.65 968.85,-140.29 969.79,-139.92"/>
<polygon fill="#63b8ff" stroke="#63b8ff" points="970.95,-142.81 978.87,-135.77 968.29,-136.34 970.95,-142.81"/>
</g>
<!-- Node18&#45;&gt;Node13 -->
<g id="edge28" class="edge">
<title>Node18&#45;&gt;Node13</title>
<path fill="none" stroke="#63b8ff" d="M847.43,-176.68C862.49,-167.35 886.37,-152.55 904.23,-141.48"/>
<polygon fill="#63b8ff" stroke="#63b8ff" points="905.78,-144.02 912.44,-135.78 902.09,-138.07 905.78,-144.02"/>
</g>
<!-- Node18&#45;&gt;Node14 -->
<g id="edge29" class="edge">
<title>Node18&#45;&gt;Node14</title>
<path fill="none" stroke="#63b8ff" d="M833.57,-176.72C834.05,-160.93 832.58,-128.05 814,-110.5 787.08,-85.07 682.42,-73.28 623.64,-68.56"/>
<polygon fill="#63b8ff" stroke="#63b8ff" points="624.12,-65.01 613.88,-67.73 623.58,-71.99 624.12,-65.01"/>
</g>
<!-- Node19 -->
<g id="node19" class="node">
<title>Node19</title>
<g id="a_node19"><a xlink:title=" ">
<polygon fill="#e0e0e0" stroke="#999999" points="805.5,-135.38 768.5,-135.38 768.5,-116.12 805.5,-116.12 805.5,-135.38"/>
<text text-anchor="middle" x="787" y="-121.88" font-family="Helvetica,sans-Serif" font-size="10.00">array</text>
</a>
</g>
</g>
<!-- Node18&#45;&gt;Node19 -->
<g id="edge25" class="edge">
<title>Node18&#45;&gt;Node19</title>
<path fill="none" stroke="#63b8ff" d="M826.01,-176.68C819.33,-168.12 809.05,-154.98 800.73,-144.32"/>
<polygon fill="#63b8ff" stroke="#63b8ff" points="802.97,-142.5 794.05,-136.78 797.45,-146.81 802.97,-142.5"/>
</g>
<!-- Node20 -->
<g id="node20" class="node">
<title>Node20</title>
<g id="a_node20"><a xlink:title=" ">
<polygon fill="#e0e0e0" stroke="#999999" points="750.12,-135.38 701.88,-135.38 701.88,-116.12 750.12,-116.12 750.12,-135.38"/>
<text text-anchor="middle" x="726" y="-121.88" font-family="Helvetica,sans-Serif" font-size="10.00">cstddef</text>
</a>
</g>
</g>
<!-- Node18&#45;&gt;Node20 -->
<g id="edge26" class="edge">
<title>Node18&#45;&gt;Node20</title>
<path fill="none" stroke="#63b8ff" d="M816.75,-176.68C799.54,-167.22 772.14,-152.14 751.94,-141.02"/>
<polygon fill="#63b8ff" stroke="#63b8ff" points="753.85,-137.53 743.4,-135.78 750.48,-143.66 753.85,-137.53"/>
</g>
<!-- Node21&#45;&gt;Node5 -->
<g id="edge31" class="edge">
<title>Node21&#45;&gt;Node5</title>
<path fill="none" stroke="#63b8ff" d="M1101.91,-527.68C1168.45,-525.57 1326.42,-517.15 1454,-483.75 1515.52,-467.64 1533.45,-464.32 1586,-428.5 1618.69,-406.21 1648,-404.19 1648,-364.62 1648,-364.62 1648,-364.62 1648,-307.38 1648,-241.4 1428.56,-205.57 1331.38,-192.93"/>
<polygon fill="#63b8ff" stroke="#63b8ff" points="1332.07,-189.37 1321.71,-191.58 1331.19,-196.31 1332.07,-189.37"/>
</g>
<!-- Node21&#45;&gt;Node14 -->
<g id="edge86" class="edge">
<title>Node21&#45;&gt;Node14</title>
<path fill="none" stroke="#63b8ff" d="M1037.91,-528.29C962.62,-527.43 769.16,-521.4 613,-483.75 439.24,-441.85 344.46,-428.27 277,-262.75 250.27,-197.17 269.13,-155.27 324,-110.5 356.77,-83.77 477.88,-72.35 542.22,-68.09"/>
<polygon fill="#63b8ff" stroke="#63b8ff" points="542.4,-71.52 552.16,-67.39 541.96,-64.53 542.4,-71.52"/>
</g>
<!-- Node21&#45;&gt;Node15 -->
<g id="edge32" class="edge">
<title>Node21&#45;&gt;Node15</title>
<path fill="none" stroke="#63b8ff" d="M1079.78,-519.5C1089.68,-510.51 1105.42,-496.18 1119,-483.75 1145.73,-459.27 1154.68,-455.38 1179,-428.5 1206.8,-397.79 1205.87,-383.45 1235,-354 1245.75,-343.13 1259.2,-332.62 1270.45,-324.53"/>
<polygon fill="#63b8ff" stroke="#63b8ff" points="1272.08,-326.96 1278.27,-318.36 1268.07,-321.23 1272.08,-326.96"/>
</g>
<!-- Node22 -->
<g id="node22" class="node">
<title>Node22</title>
<g id="a_node22"><a xlink:href="v8-maybe_8h.html" target="_top" xlink:title=" ">
<polygon fill="white" stroke="#666666" points="720.75,-318 655.25,-318 655.25,-298.75 720.75,-298.75 720.75,-318"/>
<text text-anchor="middle" x="688" y="-304.5" font-family="Helvetica,sans-Serif" font-size="10.00">v8&#45;maybe.h</text>
</a>
</g>
</g>
<!-- Node21&#45;&gt;Node22 -->
<g id="edge33" class="edge">
<title>Node21&#45;&gt;Node22</title>
<path fill="none" stroke="#63b8ff" d="M1054.55,-519.52C995.76,-485.81 785.64,-365.35 712.95,-323.68"/>
<polygon fill="#63b8ff" stroke="#63b8ff" points="715.06,-320.28 704.64,-318.34 711.57,-326.35 715.06,-320.28"/>
</g>
<!-- Node28 -->
<g id="node28" class="node">
<title>Node28</title>
<g id="a_node28"><a xlink:href="v8-persistent-handle_8h.html" target="_top" xlink:title=" ">
<polygon fill="white" stroke="#666666" points="1355.62,-373.25 1244.38,-373.25 1244.38,-354 1355.62,-354 1355.62,-373.25"/>
<text text-anchor="middle" x="1300" y="-359.75" font-family="Helvetica,sans-Serif" font-size="10.00">v8&#45;persistent&#45;handle.h</text>
</a>
</g>
</g>
<!-- Node21&#45;&gt;Node28 -->
<g id="edge48" class="edge">
<title>Node21&#45;&gt;Node28</title>
<path fill="none" stroke="#63b8ff" d="M1101.98,-526.47C1136.72,-522.92 1192.29,-512.76 1230,-483.75 1263.79,-457.76 1284.4,-410.45 1293.84,-383.94"/>
<polygon fill="#63b8ff" stroke="#63b8ff" points="1297.43,-385.27 1297.31,-374.68 1290.79,-383.03 1297.43,-385.27"/>
</g>
<!-- Node31 -->
<g id="node31" class="node">
<title>Node31</title>
<g id="a_node31"><a xlink:href="v8-primitive_8h.html" target="_top" xlink:title=" ">
<polygon fill="white" stroke="#666666" points="1444.88,-483.75 1371.12,-483.75 1371.12,-464.5 1444.88,-464.5 1444.88,-483.75"/>
<text text-anchor="middle" x="1408" y="-470.25" font-family="Helvetica,sans-Serif" font-size="10.00">v8&#45;primitive.h</text>
</a>
</g>
</g>
<!-- Node21&#45;&gt;Node31 -->
<g id="edge56" class="edge">
<title>Node21&#45;&gt;Node31</title>
<path fill="none" stroke="#63b8ff" d="M1102.1,-523.32C1161.78,-513.92 1290.06,-493.71 1360.05,-482.68"/>
<polygon fill="#63b8ff" stroke="#63b8ff" points="1360.43,-486 1369.76,-480.99 1359.34,-479.09 1360.43,-486"/>
</g>
<!-- Node33 -->
<g id="node33" class="node">
<title>Node33</title>
<g id="a_node33"><a xlink:href="v8-value_8h.html" target="_top" xlink:title=" ">
<polygon fill="white" stroke="#666666" points="1170.12,-428.5 1109.88,-428.5 1109.88,-409.25 1170.12,-409.25 1170.12,-428.5"/>
<text text-anchor="middle" x="1140" y="-415" font-family="Helvetica,sans-Serif" font-size="10.00">v8&#45;value.h</text>
</a>
</g>
</g>
<!-- Node21&#45;&gt;Node33 -->
<g id="edge85" class="edge">
<title>Node21&#45;&gt;Node33</title>
<path fill="none" stroke="#63b8ff" d="M1075.73,-519.5C1087.21,-501.69 1113.25,-461.33 1128.43,-437.81"/>
<polygon fill="#63b8ff" stroke="#63b8ff" points="1131.71,-440.18 1134.19,-429.88 1125.83,-436.38 1131.71,-440.18"/>
</g>
<!-- Node34 -->
<g id="node34" class="node">
<title>Node34</title>
<g id="a_node34"><a xlink:href="v8-sandbox_8h.html" target="_top" xlink:title=" ">
<polygon fill="white" stroke="#666666" points="359.5,-257.12 286.5,-257.12 286.5,-237.88 359.5,-237.88 359.5,-257.12"/>
<text text-anchor="middle" x="323" y="-243.62" font-family="Helvetica,sans-Serif" font-size="10.00">v8&#45;sandbox.h</text>
</a>
</g>
</g>
<!-- Node21&#45;&gt;Node34 -->
<g id="edge69" class="edge">
<title>Node21&#45;&gt;Node34</title>
<path fill="none" stroke="#63b8ff" d="M1038.11,-528.51C937.24,-527.46 619.55,-512.61 412,-373.25 372.01,-346.4 344.07,-295.13 331.14,-267.41"/>
<polygon fill="#63b8ff" stroke="#63b8ff" points="333.94,-266.11 326.65,-258.42 327.55,-268.98 333.94,-266.11"/>
</g>
<!-- Node36 -->
<g id="node36" class="node">
<title>Node36</title>
<g id="a_node36"><a xlink:href="v8-traced-handle_8h.html" target="_top" xlink:title=" ">
<polygon fill="white" stroke="#666666" points="1009.75,-373.25 914.25,-373.25 914.25,-354 1009.75,-354 1009.75,-373.25"/>
<text text-anchor="middle" x="962" y="-359.75" font-family="Helvetica,sans-Serif" font-size="10.00">v8&#45;traced&#45;handle.h</text>
</a>
</g>
</g>
<!-- Node21&#45;&gt;Node36 -->
<g id="edge73" class="edge">
<title>Node21&#45;&gt;Node36</title>
<path fill="none" stroke="#63b8ff" d="M1064.19,-519.57C1047.13,-493.69 996.87,-417.5 973.81,-382.53"/>
<polygon fill="#63b8ff" stroke="#63b8ff" points="976.26,-380.89 967.84,-374.47 970.42,-384.75 976.26,-380.89"/>
</g>
<!-- Node22&#45;&gt;Node5 -->
<g id="edge46" class="edge">
<title>Node22&#45;&gt;Node5</title>
<path fill="none" stroke="#63b8ff" d="M708.8,-298.32C746.53,-282.3 829.1,-249.06 902,-232.25 1022.52,-204.46 1168.52,-193.55 1240.86,-189.63"/>
<polygon fill="#63b8ff" stroke="#63b8ff" points="1240.6,-193.09 1250.4,-189.07 1240.23,-186.1 1240.6,-193.09"/>
</g>
<!-- Node22&#45;&gt;Node13 -->
<g id="edge34" class="edge">
<title>Node22&#45;&gt;Node13</title>
<path fill="none" stroke="#63b8ff" d="M700.67,-298.32C727.16,-279.44 786.77,-237.22 797,-232.25 845.56,-208.66 876.55,-236.07 913,-196.25 925.23,-182.89 928.37,-162 928.82,-146.61"/>
<polygon fill="#63b8ff" stroke="#63b8ff" points="932.31,-146.67 928.73,-136.7 925.31,-146.73 932.31,-146.67"/>
</g>
<!-- Node22&#45;&gt;Node14 -->
<g id="edge47" class="edge">
<title>Node22&#45;&gt;Node14</title>
<path fill="none" stroke="#63b8ff" d="M665.02,-298.29C647.53,-290.61 623.56,-278.37 606,-262.75 578.96,-238.7 569.96,-230.74 559,-196.25 547.46,-159.93 549.69,-147.46 559,-110.5 561.33,-101.25 565.99,-91.82 570.6,-84.04"/>
<polygon fill="#63b8ff" stroke="#63b8ff" points="574,-86.21 576.41,-75.89 568.09,-82.45 574,-86.21"/>
</g>
<!-- Node23 -->
<g id="node23" class="node">
<title>Node23</title>
<g id="a_node23"><a xlink:title=" ">
<polygon fill="#e0e0e0" stroke="#999999" points="512.25,-135.38 473.75,-135.38 473.75,-116.12 512.25,-116.12 512.25,-135.38"/>
<text text-anchor="middle" x="493" y="-121.88" font-family="Helvetica,sans-Serif" font-size="10.00">utility</text>
</a>
</g>
</g>
<!-- Node22&#45;&gt;Node23 -->
<g id="edge35" class="edge">
<title>Node22&#45;&gt;Node23</title>
<path fill="none" stroke="#63b8ff" d="M654.84,-307.61C618.17,-306.01 559.81,-297.62 526,-262.75 495.36,-231.16 491.56,-176.19 491.96,-146.74"/>
<polygon fill="#63b8ff" stroke="#63b8ff" points="495.48,-146.93 492.32,-136.82 488.49,-146.7 495.48,-146.93"/>
</g>
<!-- Node24 -->
<g id="node24" class="node">
<title>Node24</title>
<g id="a_node24"><a xlink:href="conditional-stack-allocated_8h.html" target="_top" xlink:title=" ">
<polygon fill="white" stroke="#666666" points="741.12,-262.75 614.88,-262.75 614.88,-232.25 741.12,-232.25 741.12,-262.75"/>
<text text-anchor="start" x="622.88" y="-249.25" font-family="Helvetica,sans-Serif" font-size="10.00">cppgc/internal/conditional</text>
<text text-anchor="middle" x="678" y="-238" font-family="Helvetica,sans-Serif" font-size="10.00">&#45;stack&#45;allocated.h</text>
</a>
</g>
</g>
<!-- Node22&#45;&gt;Node24 -->
<g id="edge36" class="edge">
<title>Node22&#45;&gt;Node24</title>
<path fill="none" stroke="#63b8ff" d="M686.48,-298.43C685.36,-291.83 683.77,-282.49 682.28,-273.68"/>
<polygon fill="#63b8ff" stroke="#63b8ff" points="685.59,-273.3 680.47,-264.03 678.69,-274.48 685.59,-273.3"/>
</g>
<!-- Node24&#45;&gt;Node13 -->
<g id="edge37" class="edge">
<title>Node24&#45;&gt;Node13</title>
<path fill="none" stroke="#63b8ff" d="M741.37,-234.2C799.41,-222.49 878.06,-205.35 890,-196.25 906.54,-183.63 916.8,-161.66 922.43,-145.79"/>
<polygon fill="#63b8ff" stroke="#63b8ff" points="926,-147.13 925.73,-136.54 919.34,-144.98 926,-147.13"/>
</g>
<!-- Node25 -->
<g id="node25" class="node">
<title>Node25</title>
<g id="a_node25"><a xlink:href="macros_8h.html" target="_top" xlink:title=" ">
<polygon fill="white" stroke="#666666" points="653.5,-196.25 568.5,-196.25 568.5,-177 653.5,-177 653.5,-196.25"/>
<text text-anchor="middle" x="611" y="-182.75" font-family="Helvetica,sans-Serif" font-size="10.00">cppgc/macros.h</text>
</a>
</g>
</g>
<!-- Node24&#45;&gt;Node25 -->
<g id="edge38" class="edge">
<title>Node24&#45;&gt;Node25</title>
<path fill="none" stroke="#63b8ff" d="M661.44,-231.95C651.73,-223.41 639.44,-212.62 629.42,-203.81"/>
<polygon fill="#63b8ff" stroke="#63b8ff" points="632.15,-200.67 622.33,-196.7 627.53,-205.93 632.15,-200.67"/>
</g>
<!-- Node27 -->
<g id="node27" class="node">
<title>Node27</title>
<g id="a_node27"><a xlink:href="type-traits_8h.html" target="_top" xlink:title=" ">
<polygon fill="white" stroke="#666666" points="766.75,-196.25 671.25,-196.25 671.25,-177 766.75,-177 766.75,-196.25"/>
<text text-anchor="middle" x="719" y="-182.75" font-family="Helvetica,sans-Serif" font-size="10.00">cppgc/type&#45;traits.h</text>
</a>
</g>
</g>
<!-- Node24&#45;&gt;Node27 -->
<g id="edge42" class="edge">
<title>Node24&#45;&gt;Node27</title>
<path fill="none" stroke="#63b8ff" d="M688.13,-231.95C693.66,-224.02 700.54,-214.13 706.41,-205.71"/>
<polygon fill="#63b8ff" stroke="#63b8ff" points="709.84,-207.91 712.68,-197.7 704.09,-203.91 709.84,-207.91"/>
</g>
<!-- Node25&#45;&gt;Node20 -->
<g id="edge39" class="edge">
<title>Node25&#45;&gt;Node20</title>
<path fill="none" stroke="#63b8ff" d="M628.47,-176.68C647.13,-167.13 676.95,-151.86 698.71,-140.72"/>
<polygon fill="#63b8ff" stroke="#63b8ff" points="700.06,-143.45 707.37,-135.78 696.87,-137.22 700.06,-143.45"/>
</g>
<!-- Node26 -->
<g id="node26" class="node">
<title>Node26</title>
<g id="a_node26"><a xlink:href="compiler-specific_8h.html" target="_top" xlink:title=" ">
<polygon fill="white" stroke="#666666" points="684.25,-141 567.75,-141 567.75,-110.5 684.25,-110.5 684.25,-141"/>
<text text-anchor="start" x="575.75" y="-127.5" font-family="Helvetica,sans-Serif" font-size="10.00">cppgc/internal/compiler</text>
<text text-anchor="middle" x="626" y="-116.25" font-family="Helvetica,sans-Serif" font-size="10.00">&#45;specific.h</text>
</a>
</g>
</g>
<!-- Node25&#45;&gt;Node26 -->
<g id="edge40" class="edge">
<title>Node25&#45;&gt;Node26</title>
<path fill="none" stroke="#63b8ff" d="M613.28,-176.68C614.96,-170.08 617.34,-160.74 619.59,-151.93"/>
<polygon fill="#63b8ff" stroke="#63b8ff" points="623.22,-152.84 622.3,-142.28 616.44,-151.11 623.22,-152.84"/>
</g>
<!-- Node26&#45;&gt;Node14 -->
<g id="edge41" class="edge">
<title>Node26&#45;&gt;Node14</title>
<path fill="none" stroke="#63b8ff" d="M615.37,-110.2C609.52,-102.18 602.2,-92.17 596.01,-83.69"/>
<polygon fill="#63b8ff" stroke="#63b8ff" points="598.35,-81.96 589.63,-75.95 592.7,-86.09 598.35,-81.96"/>
</g>
<!-- Node27&#45;&gt;Node13 -->
<g id="edge44" class="edge">
<title>Node27&#45;&gt;Node13</title>
<path fill="none" stroke="#63b8ff" d="M751.2,-176.55C787.59,-166.3 846.94,-149.58 886.72,-138.38"/>
<polygon fill="#63b8ff" stroke="#63b8ff" points="887.45,-141.53 896.13,-135.45 885.55,-134.79 887.45,-141.53"/>
</g>
<!-- Node27&#45;&gt;Node20 -->
<g id="edge43" class="edge">
<title>Node27&#45;&gt;Node20</title>
<path fill="none" stroke="#63b8ff" d="M720.06,-176.68C721.01,-168.73 722.43,-156.81 723.64,-146.62"/>
<polygon fill="#63b8ff" stroke="#63b8ff" points="727.22,-147.12 724.93,-136.78 720.27,-146.29 727.22,-147.12"/>
</g>
<!-- Node27&#45;&gt;Node23 -->
<g id="edge45" class="edge">
<title>Node27&#45;&gt;Node23</title>
<path fill="none" stroke="#63b8ff" d="M684.18,-176.55C640.06,-165.06 564.75,-145.44 523.04,-134.58"/>
<polygon fill="#63b8ff" stroke="#63b8ff" points="524.02,-130.95 513.46,-131.82 522.26,-137.73 524.02,-130.95"/>
</g>
<!-- Node28&#45;&gt;Node5 -->
<g id="edge49" class="edge">
<title>Node28&#45;&gt;Node5</title>
<path fill="none" stroke="#63b8ff" d="M1319.74,-353.59C1361.53,-333.2 1452.31,-281.59 1417,-232.25 1397.63,-205.19 1360.88,-194.35 1331.22,-190.1"/>
<polygon fill="#63b8ff" stroke="#63b8ff" points="1332.01,-186.55 1321.66,-188.81 1331.17,-193.49 1332.01,-186.55"/>
</g>
<!-- Node28&#45;&gt;Node14 -->
<g id="edge55" class="edge">
<title>Node28&#45;&gt;Node14</title>
<path fill="none" stroke="#63b8ff" d="M1336.92,-353.58C1358.75,-346.73 1385.8,-335.45 1405,-318 1479.66,-250.16 1566.57,-183.55 1497,-110.5 1466.51,-78.49 797.84,-68.4 624,-66.32"/>
<polygon fill="#63b8ff" stroke="#63b8ff" points="624.09,-62.81 614.05,-66.19 624.01,-69.81 624.09,-62.81"/>
</g>
<!-- Node28&#45;&gt;Node15 -->
<g id="edge50" class="edge">
<title>Node28&#45;&gt;Node15</title>
<path fill="none" stroke="#63b8ff" d="M1298.84,-353.83C1297.96,-347.09 1296.7,-337.52 1295.58,-328.99"/>
<polygon fill="#63b8ff" stroke="#63b8ff" points="1298.95,-328.82 1294.18,-319.36 1292.01,-329.73 1298.95,-328.82"/>
</g>
<!-- Node29 -->
<g id="node29" class="node">
<title>Node29</title>
<g id="a_node29"><a xlink:href="v8-weak-callback-info_8h.html" target="_top" xlink:title=" ">
<polygon fill="white" stroke="#666666" points="957,-318 839,-318 839,-298.75 957,-298.75 957,-318"/>
<text text-anchor="middle" x="898" y="-304.5" font-family="Helvetica,sans-Serif" font-size="10.00">v8&#45;weak&#45;callback&#45;info.h</text>
</a>
</g>
</g>
<!-- Node28&#45;&gt;Node29 -->
<g id="edge51" class="edge">
<title>Node28&#45;&gt;Node29</title>
<path fill="none" stroke="#63b8ff" d="M1244.1,-355.22C1171.99,-345.67 1046.51,-329.05 968.09,-318.66"/>
<polygon fill="#63b8ff" stroke="#63b8ff" points="968.72,-315.08 958.34,-317.24 967.8,-322.02 968.72,-315.08"/>
</g>
<!-- Node29&#45;&gt;Node14 -->
<g id="edge54" class="edge">
<title>Node29&#45;&gt;Node14</title>
<path fill="none" stroke="#63b8ff" d="M896.09,-298.36C893.45,-283.53 890.23,-253.5 902,-232.25 910.55,-216.81 1023.86,-156.66 1032,-141 1038.25,-128.97 1041.1,-120.55 1032,-110.5 1004.86,-80.53 729.41,-69.87 623.86,-66.87"/>
<polygon fill="#63b8ff" stroke="#63b8ff" points="624.11,-63.35 614.02,-66.58 623.92,-70.35 624.11,-63.35"/>
</g>
<!-- Node29&#45;&gt;Node24 -->
<g id="edge53" class="edge">
<title>Node29&#45;&gt;Node24</title>
<path fill="none" stroke="#63b8ff" d="M864.11,-298.3C832.02,-289.72 782.99,-276.6 743.31,-265.98"/>
<polygon fill="#63b8ff" stroke="#63b8ff" points="744.48,-262.4 733.91,-263.19 742.67,-269.16 744.48,-262.4"/>
</g>
<!-- Node30 -->
<g id="node30" class="node">
<title>Node30</title>
<g id="a_node30"><a xlink:title=" ">
<polygon fill="#e0e0e0" stroke="#999999" points="956.62,-257.12 911.38,-257.12 911.38,-237.88 956.62,-237.88 956.62,-257.12"/>
<text text-anchor="middle" x="934" y="-243.62" font-family="Helvetica,sans-Serif" font-size="10.00">cstring</text>
</a>
</g>
</g>
<!-- Node29&#45;&gt;Node30 -->
<g id="edge52" class="edge">
<title>Node29&#45;&gt;Node30</title>
<path fill="none" stroke="#63b8ff" d="M903.47,-298.43C908.6,-290.05 916.42,-277.26 922.86,-266.72"/>
<polygon fill="#63b8ff" stroke="#63b8ff" points="926.25,-268.88 928.48,-258.53 920.28,-265.23 926.25,-268.88"/>
</g>
<!-- Node31&#45;&gt;Node5 -->
<g id="edge60" class="edge">
<title>Node31&#45;&gt;Node5</title>
<path fill="none" stroke="#63b8ff" d="M1417.02,-464.26C1432.85,-447.98 1465.08,-411.48 1477,-373.25 1492.81,-322.55 1481.98,-277.33 1435,-232.25 1407.17,-205.54 1364,-194.74 1331.28,-190.42"/>
<polygon fill="#63b8ff" stroke="#63b8ff" points="1331.96,-186.86 1321.62,-189.19 1331.15,-193.81 1331.96,-186.86"/>
</g>
<!-- Node31&#45;&gt;Node14 -->
<g id="edge68" class="edge">
<title>Node31&#45;&gt;Node14</title>
<path fill="none" stroke="#63b8ff" d="M1426.28,-464.09C1476.01,-438.08 1610,-357.85 1610,-248.5 1610,-248.5 1610,-248.5 1610,-185.62 1610,-144.51 1592.15,-130.09 1556,-110.5 1473.26,-65.65 798.6,-65.06 624.09,-65.67"/>
<polygon fill="#63b8ff" stroke="#63b8ff" points="624.08,-62.17 614.09,-65.71 624.11,-69.17 624.08,-62.17"/>
</g>
<!-- Node31&#45;&gt;Node15 -->
<g id="edge61" class="edge">
<title>Node31&#45;&gt;Node15</title>
<path fill="none" stroke="#63b8ff" d="M1406.8,-464.07C1403.57,-442.73 1392.97,-388.5 1365,-354 1354.42,-340.95 1338.94,-330.65 1325.04,-323.26"/>
<polygon fill="#63b8ff" stroke="#63b8ff" points="1326.8,-319.73 1316.29,-318.39 1323.68,-325.99 1326.8,-319.73"/>
</g>
<!-- Node32 -->
<g id="node32" class="node">
<title>Node32</title>
<g id="a_node32"><a xlink:href="v8-data_8h.html" target="_top" xlink:title=" ">
<polygon fill="white" stroke="#666666" points="1467.88,-373.25 1412.12,-373.25 1412.12,-354 1467.88,-354 1467.88,-373.25"/>
<text text-anchor="middle" x="1440" y="-359.75" font-family="Helvetica,sans-Serif" font-size="10.00">v8&#45;data.h</text>
</a>
</g>
</g>
<!-- Node31&#45;&gt;Node32 -->
<g id="edge57" class="edge">
<title>Node31&#45;&gt;Node32</title>
<path fill="none" stroke="#63b8ff" d="M1410.62,-464.25C1415.75,-446.84 1427.24,-407.87 1434.24,-384.16"/>
<polygon fill="#63b8ff" stroke="#63b8ff" points="1437.87,-385.21 1437.35,-374.63 1431.16,-383.23 1437.87,-385.21"/>
</g>
<!-- Node31&#45;&gt;Node33 -->
<g id="edge62" class="edge">
<title>Node31&#45;&gt;Node33</title>
<path fill="none" stroke="#63b8ff" d="M1370.74,-465.72C1320.89,-455.82 1232.8,-438.31 1181.09,-428.04"/>
<polygon fill="#63b8ff" stroke="#63b8ff" points="1181.81,-424.42 1171.32,-425.9 1180.45,-431.28 1181.81,-424.42"/>
</g>
<!-- Node32&#45;&gt;Node14 -->
<g id="edge59" class="edge">
<title>Node32&#45;&gt;Node14</title>
<path fill="none" stroke="#63b8ff" d="M1466.08,-353.6C1504.55,-338.44 1572,-303.94 1572,-248.5 1572,-248.5 1572,-248.5 1572,-185.62 1572,-145.52 1556.9,-130.27 1522,-110.5 1443.14,-65.82 794.07,-65.08 623.78,-65.67"/>
<polygon fill="#63b8ff" stroke="#63b8ff" points="623.8,-62.17 613.82,-65.71 623.83,-69.17 623.8,-62.17"/>
</g>
<!-- Node32&#45;&gt;Node15 -->
<g id="edge58" class="edge">
<title>Node32&#45;&gt;Node15</title>
<path fill="none" stroke="#63b8ff" d="M1415.06,-353.59C1391.2,-344.95 1354.97,-331.82 1328.18,-322.12"/>
<polygon fill="#63b8ff" stroke="#63b8ff" points="1329.65,-318.57 1319.06,-318.45 1327.27,-325.15 1329.65,-318.57"/>
</g>
<!-- Node33&#45;&gt;Node5 -->
<g id="edge64" class="edge">
<title>Node33&#45;&gt;Node5</title>
<path fill="none" stroke="#63b8ff" d="M1142.89,-409C1152.33,-380.92 1184.42,-292.29 1232,-232.25 1240.88,-221.04 1252.99,-210.72 1263.5,-202.83"/>
<polygon fill="#63b8ff" stroke="#63b8ff" points="1265.12,-205.25 1271.19,-196.56 1261.03,-199.57 1265.12,-205.25"/>
</g>
<!-- Node33&#45;&gt;Node14 -->
<g id="edge67" class="edge">
<title>Node33&#45;&gt;Node14</title>
<path fill="none" stroke="#63b8ff" d="M1109.78,-416.53C973.88,-410.07 426,-379.67 426,-309.38 426,-309.38 426,-309.38 426,-185.62 426,-148.01 436.89,-135.5 465,-110.5 486.74,-91.17 517.7,-79.88 542.44,-73.5"/>
<polygon fill="#63b8ff" stroke="#63b8ff" points="543.06,-76.71 551.97,-70.98 541.43,-69.9 543.06,-76.71"/>
</g>
<!-- Node33&#45;&gt;Node15 -->
<g id="edge65" class="edge">
<title>Node33&#45;&gt;Node15</title>
<path fill="none" stroke="#63b8ff" d="M1146.84,-409.09C1157.51,-395.84 1179.24,-370.53 1202,-354 1219.5,-341.29 1241.16,-330.5 1258.96,-322.72"/>
<polygon fill="#63b8ff" stroke="#63b8ff" points="1260.1,-325.62 1267.94,-318.49 1257.37,-319.17 1260.1,-325.62"/>
</g>
<!-- Node33&#45;&gt;Node22 -->
<g id="edge66" class="edge">
<title>Node33&#45;&gt;Node22</title>
<path fill="none" stroke="#63b8ff" d="M1109.75,-413.11C1064.8,-405.81 977.86,-390.85 905,-373.25 841.48,-357.91 768.85,-335.52 725.8,-321.73"/>
<polygon fill="#63b8ff" stroke="#63b8ff" points="727.1,-318.16 716.51,-318.42 724.96,-324.82 727.1,-318.16"/>
</g>
<!-- Node33&#45;&gt;Node32 -->
<g id="edge63" class="edge">
<title>Node33&#45;&gt;Node32</title>
<path fill="none" stroke="#63b8ff" d="M1170.42,-412.48C1225.25,-402.74 1340.58,-382.27 1401.07,-371.53"/>
<polygon fill="#63b8ff" stroke="#63b8ff" points="1401.47,-374.84 1410.71,-369.65 1400.25,-367.95 1401.47,-374.84"/>
</g>
<!-- Node34&#45;&gt;Node5 -->
<g id="edge71" class="edge">
<title>Node34&#45;&gt;Node5</title>
<path fill="none" stroke="#63b8ff" d="M359.87,-244.25C510.11,-235.06 1076.02,-200.46 1240.75,-190.39"/>
<polygon fill="#63b8ff" stroke="#63b8ff" points="1240.69,-193.84 1250.46,-189.74 1240.27,-186.85 1240.69,-193.84"/>
</g>
<!-- Node34&#45;&gt;Node14 -->
<g id="edge72" class="edge">
<title>Node34&#45;&gt;Node14</title>
<path fill="none" stroke="#63b8ff" d="M317.13,-237.67C308.97,-224.2 296.13,-197.88 305,-177 321.66,-137.8 336.39,-130.49 374,-110.5 427.64,-81.98 498.17,-71.69 542.04,-67.97"/>
<polygon fill="#63b8ff" stroke="#63b8ff" points="542.15,-71.4 551.86,-67.14 541.62,-64.42 542.15,-71.4"/>
</g>
<!-- Node35 -->
<g id="node35" class="node">
<title>Node35</title>
<g id="a_node35"><a xlink:title=" ">
<polygon fill="#e0e0e0" stroke="#999999" points="359.62,-196.25 314.38,-196.25 314.38,-177 359.62,-177 359.62,-196.25"/>
<text text-anchor="middle" x="337" y="-182.75" font-family="Helvetica,sans-Serif" font-size="10.00">cstdint</text>
</a>
</g>
</g>
<!-- Node34&#45;&gt;Node35 -->
<g id="edge70" class="edge">
<title>Node34&#45;&gt;Node35</title>
<path fill="none" stroke="#63b8ff" d="M325.13,-237.56C327.04,-229.52 329.91,-217.43 332.35,-207.16"/>
<polygon fill="#63b8ff" stroke="#63b8ff" points="335.95,-208.19 334.85,-197.65 329.14,-206.57 335.95,-208.19"/>
</g>
<!-- Node36&#45;&gt;Node3 -->
<g id="edge78" class="edge">
<title>Node36&#45;&gt;Node3</title>
<path fill="none" stroke="#63b8ff" d="M913.83,-363.06C818.89,-362.94 601.4,-357.88 424,-318 355.9,-302.69 316.73,-320.13 277,-262.75 222.22,-183.65 317.9,-69.67 358.29,-27.3"/>
<polygon fill="#63b8ff" stroke="#63b8ff" points="360.32,-30.21 364.78,-20.6 355.3,-25.33 360.32,-30.21"/>
</g>
<!-- Node36&#45;&gt;Node5 -->
<g id="edge81" class="edge">
<title>Node36&#45;&gt;Node5</title>
<path fill="none" stroke="#63b8ff" d="M990.19,-353.51C1013.55,-345.49 1047.28,-332.81 1075,-318 1134.1,-286.43 1141.51,-266.67 1199,-232.25 1217.87,-220.95 1239.93,-209.66 1257.11,-201.26"/>
<polygon fill="#63b8ff" stroke="#63b8ff" points="1258.12,-204.17 1265.6,-196.67 1255.07,-197.87 1258.12,-204.17"/>
</g>
<!-- Node36&#45;&gt;Node6 -->
<g id="edge74" class="edge">
<title>Node36&#45;&gt;Node6</title>
<path fill="none" stroke="#63b8ff" d="M963.03,-353.62C966.07,-330.77 976.9,-269.7 1009,-232.25 1030.75,-206.88 1052.63,-221.07 1075,-196.25 1087.97,-181.85 1095.64,-160.83 1099.81,-145.68"/>
<polygon fill="#63b8ff" stroke="#63b8ff" points="1103.33,-146.99 1102.33,-136.45 1096.54,-145.31 1103.33,-146.99"/>
</g>
<!-- Node36&#45;&gt;Node7 -->
<g id="edge75" class="edge">
<title>Node36&#45;&gt;Node7</title>
<path fill="none" stroke="#63b8ff" d="M967.36,-353.51C982.8,-327.39 1027.51,-252.86 1047,-232.25 1065.57,-212.62 1075.17,-213.46 1096,-196.25 1116.82,-179.05 1139.38,-157.75 1154.26,-143.29"/>
<polygon fill="#63b8ff" stroke="#63b8ff" points="1156.37,-146.15 1161.07,-136.66 1151.47,-141.15 1156.37,-146.15"/>
</g>
<!-- Node36&#45;&gt;Node9 -->
<g id="edge77" class="edge">
<title>Node36&#45;&gt;Node9</title>
<path fill="none" stroke="#63b8ff" d="M972.37,-353.67C1013.25,-318.35 1163.6,-188.44 1216.46,-142.77"/>
<polygon fill="#63b8ff" stroke="#63b8ff" points="1218.34,-144.9 1223.62,-135.72 1213.77,-139.61 1218.34,-144.9"/>
</g>
<!-- Node36&#45;&gt;Node13 -->
<g id="edge79" class="edge">
<title>Node36&#45;&gt;Node13</title>
<path fill="none" stroke="#63b8ff" d="M913.84,-359.87C884.44,-355.41 848.97,-344.44 830,-318 809.06,-288.81 841.45,-259.31 869,-232.25 892.28,-209.38 916.52,-224.42 933,-196.25 941.87,-181.09 939.07,-160.77 934.98,-146.02"/>
<polygon fill="#63b8ff" stroke="#63b8ff" points="938.02,-145.04 931.63,-136.59 931.36,-147.18 938.02,-145.04"/>
</g>
<!-- Node36&#45;&gt;Node14 -->
<g id="edge84" class="edge">
<title>Node36&#45;&gt;Node14</title>
<path fill="none" stroke="#63b8ff" d="M914.05,-363.23C776.09,-363.68 388,-355.44 388,-248.5 388,-248.5 388,-248.5 388,-185.62 388,-150.57 386.56,-134.61 412,-110.5 447.07,-77.27 503.69,-68.04 542.08,-65.85"/>
<polygon fill="#63b8ff" stroke="#63b8ff" points="542.04,-69.31 551.88,-65.39 541.74,-62.32 542.04,-69.31"/>
</g>
<!-- Node36&#45;&gt;Node15 -->
<g id="edge82" class="edge">
<title>Node36&#45;&gt;Node15</title>
<path fill="none" stroke="#63b8ff" d="M1010.13,-354.88C1070.56,-345.16 1173.99,-328.52 1237.63,-318.28"/>
<polygon fill="#63b8ff" stroke="#63b8ff" points="1237.94,-321.62 1247.26,-316.57 1236.83,-314.71 1237.94,-321.62"/>
</g>
<!-- Node36&#45;&gt;Node23 -->
<g id="edge80" class="edge">
<title>Node36&#45;&gt;Node23</title>
<path fill="none" stroke="#63b8ff" d="M913.8,-359.32C807.2,-350.92 556.72,-324.88 504,-262.75 476.12,-229.89 482.31,-175.05 488.23,-146.06"/>
<polygon fill="#63b8ff" stroke="#63b8ff" points="491.78,-147.21 490.57,-136.68 484.95,-145.67 491.78,-147.21"/>
</g>
<!-- Node36&#45;&gt;Node29 -->
<g id="edge83" class="edge">
<title>Node36&#45;&gt;Node29</title>
<path fill="none" stroke="#63b8ff" d="M951.14,-353.59C941.8,-345.82 928.11,-334.42 916.96,-325.15"/>
<polygon fill="#63b8ff" stroke="#63b8ff" points="919.62,-321.98 909.7,-318.27 915.14,-327.36 919.62,-321.98"/>
</g>
<!-- Node37 -->
<g id="node37" class="node">
<title>Node37</title>
<g id="a_node37"><a xlink:title=" ">
<polygon fill="#e0e0e0" stroke="#999999" points="783.25,-318 738.75,-318 738.75,-298.75 783.25,-298.75 783.25,-318"/>
<text text-anchor="middle" x="761" y="-304.5" font-family="Helvetica,sans-Serif" font-size="10.00">stdio.h</text>
</a>
</g>
</g>
<!-- Node36&#45;&gt;Node37 -->
<g id="edge76" class="edge">
<title>Node36&#45;&gt;Node37</title>
<path fill="none" stroke="#63b8ff" d="M927.9,-353.59C890.49,-343.68 830.86,-327.88 793.92,-318.1"/>
<polygon fill="#63b8ff" stroke="#63b8ff" points="795.25,-314.56 784.69,-315.39 793.46,-321.33 795.25,-314.56"/>
</g>
</g>
</svg>
