<?xml version="1.0" encoding="UTF-8" standalone="no"?>
<!DOCTYPE svg PUBLIC "-//W3C//DTD SVG 1.1//EN"
 "http://www.w3.org/Graphics/SVG/1.1/DTD/svg11.dtd">
<!-- Generated by graphviz version 8.0.5 (20230430.1635)
 -->
<!-- Title: include/cppgc/platform.h Pages: 1 -->
<svg width="630pt" height="470pt"
 viewBox="0.00 0.00 630.06 470.25" xmlns="http://www.w3.org/2000/svg" xmlns:xlink="http://www.w3.org/1999/xlink">
<g id="graph0" class="graph" transform="scale(1 1) rotate(0) translate(4 466.25)">
<title>include/cppgc/platform.h</title>
<!-- Node1 -->
<g id="node1" class="node">
<title>Node1</title>
<g id="a_node1"><a xlink:title=" ">
<polygon fill="#999999" stroke="#666666" points="495.06,-462.25 373.31,-462.25 373.31,-443 495.06,-443 495.06,-462.25"/>
<text text-anchor="middle" x="434.19" y="-448.75" font-family="Helvetica,sans-Serif" font-size="10.00">include/cppgc/platform.h</text>
</a>
</g>
</g>
<!-- Node2 -->
<g id="node2" class="node">
<title>Node2</title>
<g id="a_node2"><a xlink:href="default-platform_8h.html" target="_top" xlink:title=" ">
<polygon fill="white" stroke="#666666" points="278.31,-407 170.06,-407 170.06,-376.5 278.31,-376.5 278.31,-407"/>
<text text-anchor="start" x="178.06" y="-393.5" font-family="Helvetica,sans-Serif" font-size="10.00">include/cppgc/default</text>
<text text-anchor="middle" x="224.19" y="-382.25" font-family="Helvetica,sans-Serif" font-size="10.00">&#45;platform.h</text>
</a>
</g>
</g>
<!-- Node1&#45;&gt;Node2 -->
<g id="edge1" class="edge">
<title>Node1&#45;&gt;Node2</title>
<path fill="none" stroke="#63b8ff" d="M391.54,-439.67C358.33,-430.36 312.07,-417.39 276.6,-407.44"/>
<polygon fill="#63b8ff" stroke="#63b8ff" points="390.26,-443.23 400.84,-442.55 392.15,-436.49 390.26,-443.23"/>
</g>
<!-- Node3 -->
<g id="node3" class="node">
<title>Node3</title>
<g id="a_node3"><a xlink:href="garbage-collected_8h.html" target="_top" xlink:title=" ">
<polygon fill="white" stroke="#666666" points="575.94,-340.5 462.44,-340.5 462.44,-310 575.94,-310 575.94,-340.5"/>
<text text-anchor="start" x="470.44" y="-327" font-family="Helvetica,sans-Serif" font-size="10.00">include/cppgc/garbage</text>
<text text-anchor="middle" x="519.19" y="-315.75" font-family="Helvetica,sans-Serif" font-size="10.00">&#45;collected.h</text>
</a>
</g>
</g>
<!-- Node1&#45;&gt;Node3 -->
<g id="edge2" class="edge">
<title>Node1&#45;&gt;Node3</title>
<path fill="none" stroke="#63b8ff" d="M446.26,-433.82C463.2,-408.84 493.68,-363.88 509.33,-340.8"/>
<polygon fill="#63b8ff" stroke="#63b8ff" points="443.02,-431.37 440.3,-441.61 448.81,-435.3 443.02,-431.37"/>
</g>
<!-- Node9 -->
<g id="node9" class="node">
<title>Node9</title>
<g id="a_node9"><a xlink:href="heap_8h.html" target="_top" xlink:title=" ">
<polygon fill="white" stroke="#666666" points="227.94,-274 120.44,-274 120.44,-254.75 227.94,-254.75 227.94,-274"/>
<text text-anchor="middle" x="174.19" y="-260.5" font-family="Helvetica,sans-Serif" font-size="10.00">include/cppgc/heap.h</text>
</a>
</g>
</g>
<!-- Node1&#45;&gt;Node9 -->
<g id="edge9" class="edge">
<title>Node1&#45;&gt;Node9</title>
<path fill="none" stroke="#63b8ff" d="M433.78,-432.06C432.46,-415.54 428.2,-392.15 415.19,-376.5 365.43,-316.61 276.34,-287.36 221.53,-274.4"/>
<polygon fill="#63b8ff" stroke="#63b8ff" points="430.32,-431.84 434.3,-441.66 437.31,-431.5 430.32,-431.84"/>
</g>
<!-- Node12 -->
<g id="node12" class="node">
<title>Node12</title>
<g id="a_node12"><a xlink:href="caged-heap-local-data_8h.html" target="_top" xlink:title=" ">
<polygon fill="white" stroke="#666666" points="622.06,-407 500.31,-407 500.31,-376.5 622.06,-376.5 622.06,-407"/>
<text text-anchor="start" x="508.31" y="-393.5" font-family="Helvetica,sans-Serif" font-size="10.00">include/cppgc/internal</text>
<text text-anchor="middle" x="561.19" y="-382.25" font-family="Helvetica,sans-Serif" font-size="10.00">/caged&#45;heap&#45;local&#45;data.h</text>
</a>
</g>
</g>
<!-- Node1&#45;&gt;Node12 -->
<g id="edge13" class="edge">
<title>Node1&#45;&gt;Node12</title>
<path fill="none" stroke="#63b8ff" d="M463.72,-437.94C483.43,-428.8 509.34,-416.79 529.49,-407.44"/>
<polygon fill="#63b8ff" stroke="#63b8ff" points="462.36,-435.17 454.75,-442.55 465.3,-441.52 462.36,-435.17"/>
</g>
<!-- Node13 -->
<g id="node13" class="node">
<title>Node13</title>
<g id="a_node13"><a xlink:href="write-barrier_8h.html" target="_top" xlink:title=" ">
<polygon fill="white" stroke="#666666" points="406.44,-407 295.94,-407 295.94,-376.5 406.44,-376.5 406.44,-407"/>
<text text-anchor="start" x="303.94" y="-393.5" font-family="Helvetica,sans-Serif" font-size="10.00">include/cppgc/internal</text>
<text text-anchor="middle" x="351.19" y="-382.25" font-family="Helvetica,sans-Serif" font-size="10.00">/write&#45;barrier.h</text>
</a>
</g>
</g>
<!-- Node1&#45;&gt;Node13 -->
<g id="edge14" class="edge">
<title>Node1&#45;&gt;Node13</title>
<path fill="none" stroke="#63b8ff" d="M412.66,-436.35C400.02,-427.39 384.13,-416.12 371.68,-407.28"/>
<polygon fill="#63b8ff" stroke="#63b8ff" points="410.4,-439.75 420.58,-442.68 414.45,-434.04 410.4,-439.75"/>
</g>
<!-- Node4 -->
<g id="node4" class="node">
<title>Node4</title>
<g id="a_node4"><a xlink:href="visitor_8h.html" target="_top" xlink:title=" ">
<polygon fill="white" stroke="#666666" points="329.56,-152.25 216.81,-152.25 216.81,-133 329.56,-133 329.56,-152.25"/>
<text text-anchor="middle" x="273.19" y="-138.75" font-family="Helvetica,sans-Serif" font-size="10.00">include/cppgc/visitor.h</text>
</a>
</g>
</g>
<!-- Node3&#45;&gt;Node4 -->
<g id="edge3" class="edge">
<title>Node3&#45;&gt;Node4</title>
<path fill="none" stroke="#63b8ff" d="M522.26,-298.98C524.45,-268.46 522.99,-217.55 494.19,-188.25 471.73,-165.39 387.58,-153.52 329.85,-147.93"/>
<polygon fill="#63b8ff" stroke="#63b8ff" points="518.72,-298.32 521.29,-308.6 525.69,-298.96 518.72,-298.32"/>
</g>
<!-- Node5 -->
<g id="node5" class="node">
<title>Node5</title>
<g id="a_node5"><a xlink:href="cross-thread-persistent_8h.html" target="_top" xlink:title=" ">
<polygon fill="white" stroke="#666666" points="144.69,-30.5 41.69,-30.5 41.69,0 144.69,0 144.69,-30.5"/>
<text text-anchor="start" x="49.69" y="-17" font-family="Helvetica,sans-Serif" font-size="10.00">include/cppgc/cross</text>
<text text-anchor="middle" x="93.19" y="-5.75" font-family="Helvetica,sans-Serif" font-size="10.00">&#45;thread&#45;persistent.h</text>
</a>
</g>
</g>
<!-- Node4&#45;&gt;Node5 -->
<g id="edge4" class="edge">
<title>Node4&#45;&gt;Node5</title>
<path fill="none" stroke="#63b8ff" d="M249.67,-126.59C236.68,-118.13 220.36,-107.24 206.19,-97 188.35,-84.11 184.97,-79.47 167.19,-66.5 150.13,-54.06 130.31,-40.65 115.48,-30.82"/>
<polygon fill="#63b8ff" stroke="#63b8ff" points="247.56,-130.04 257.86,-132.53 251.36,-124.16 247.56,-130.04"/>
</g>
<!-- Node6 -->
<g id="node6" class="node">
<title>Node6</title>
<g id="a_node6"><a xlink:href="persistent_8h.html" target="_top" xlink:title=" ">
<polygon fill="white" stroke="#666666" points="157.81,-91.38 28.56,-91.38 28.56,-72.12 157.81,-72.12 157.81,-91.38"/>
<text text-anchor="middle" x="93.19" y="-77.88" font-family="Helvetica,sans-Serif" font-size="10.00">include/cppgc/persistent.h</text>
</a>
</g>
</g>
<!-- Node4&#45;&gt;Node6 -->
<g id="edge5" class="edge">
<title>Node4&#45;&gt;Node6</title>
<path fill="none" stroke="#63b8ff" d="M235.38,-129.26C201.18,-118.07 151.62,-101.86 120.95,-91.83"/>
<polygon fill="#63b8ff" stroke="#63b8ff" points="233.87,-132.77 244.46,-132.55 236.04,-126.12 233.87,-132.77"/>
</g>
<!-- Node7 -->
<g id="node7" class="node">
<title>Node7</title>
<g id="a_node7"><a xlink:href="tagged-member_8h.html" target="_top" xlink:title=" ">
<polygon fill="white" stroke="#666666" points="438.31,-97 330.06,-97 330.06,-66.5 438.31,-66.5 438.31,-97"/>
<text text-anchor="start" x="338.06" y="-83.5" font-family="Helvetica,sans-Serif" font-size="10.00">include/cppgc/tagged</text>
<text text-anchor="middle" x="384.19" y="-72.25" font-family="Helvetica,sans-Serif" font-size="10.00">&#45;member.h</text>
</a>
</g>
</g>
<!-- Node4&#45;&gt;Node7 -->
<g id="edge7" class="edge">
<title>Node4&#45;&gt;Node7</title>
<path fill="none" stroke="#63b8ff" d="M299.53,-127.66C316.79,-118.5 339.32,-106.55 356.79,-97.28"/>
<polygon fill="#63b8ff" stroke="#63b8ff" points="298.24,-124.91 291.05,-132.68 301.52,-131.09 298.24,-124.91"/>
</g>
<!-- Node8 -->
<g id="node8" class="node">
<title>Node8</title>
<g id="a_node8"><a xlink:href="v8-cppgc_8h.html" target="_top" xlink:title=" ">
<polygon fill="white" stroke="#666666" points="311.69,-91.38 214.69,-91.38 214.69,-72.12 311.69,-72.12 311.69,-91.38"/>
<text text-anchor="middle" x="263.19" y="-77.88" font-family="Helvetica,sans-Serif" font-size="10.00">include/v8&#45;cppgc.h</text>
</a>
</g>
</g>
<!-- Node4&#45;&gt;Node8 -->
<g id="edge8" class="edge">
<title>Node4&#45;&gt;Node8</title>
<path fill="none" stroke="#63b8ff" d="M269.83,-121.87C268.1,-111.68 266.08,-99.76 264.72,-91.78"/>
<polygon fill="#63b8ff" stroke="#63b8ff" points="266.55,-122.41 271.67,-131.68 273.45,-121.24 266.55,-122.41"/>
</g>
<!-- Node6&#45;&gt;Node5 -->
<g id="edge6" class="edge">
<title>Node6&#45;&gt;Node5</title>
<path fill="none" stroke="#63b8ff" d="M93.19,-61.02C93.19,-51.2 93.19,-39.55 93.19,-30.59"/>
<polygon fill="#63b8ff" stroke="#63b8ff" points="89.69,-60.78 93.19,-70.78 96.69,-60.78 89.69,-60.78"/>
</g>
<!-- Node10 -->
<g id="node10" class="node">
<title>Node10</title>
<g id="a_node10"><a xlink:href="liveness-broker_8h.html" target="_top" xlink:title=" ">
<polygon fill="white" stroke="#666666" points="254.69,-218.75 139.69,-218.75 139.69,-188.25 254.69,-188.25 254.69,-218.75"/>
<text text-anchor="start" x="147.69" y="-205.25" font-family="Helvetica,sans-Serif" font-size="10.00">include/cppgc/liveness</text>
<text text-anchor="middle" x="197.19" y="-194" font-family="Helvetica,sans-Serif" font-size="10.00">&#45;broker.h</text>
</a>
</g>
</g>
<!-- Node9&#45;&gt;Node10 -->
<g id="edge10" class="edge">
<title>Node9&#45;&gt;Node10</title>
<path fill="none" stroke="#63b8ff" d="M181.64,-244.29C184.85,-236.09 188.53,-226.65 191.51,-219.03"/>
<polygon fill="#63b8ff" stroke="#63b8ff" points="178.06,-242.85 177.68,-253.43 184.58,-245.39 178.06,-242.85"/>
</g>
<!-- Node10&#45;&gt;Node4 -->
<g id="edge12" class="edge">
<title>Node10&#45;&gt;Node4</title>
<path fill="none" stroke="#63b8ff" d="M224.42,-181.4C237.14,-171.55 251.62,-160.33 261.47,-152.7"/>
<polygon fill="#63b8ff" stroke="#63b8ff" points="222.74,-179.06 216.98,-187.95 227.02,-184.59 222.74,-179.06"/>
</g>
<!-- Node11 -->
<g id="node11" class="node">
<title>Node11</title>
<g id="a_node11"><a xlink:href="prefinalizer_8h.html" target="_top" xlink:title=" ">
<polygon fill="white" stroke="#666666" points="198.31,-152.25 66.06,-152.25 66.06,-133 198.31,-133 198.31,-152.25"/>
<text text-anchor="middle" x="132.19" y="-138.75" font-family="Helvetica,sans-Serif" font-size="10.00">include/cppgc/prefinalizer.h</text>
</a>
</g>
</g>
<!-- Node10&#45;&gt;Node11 -->
<g id="edge11" class="edge">
<title>Node10&#45;&gt;Node11</title>
<path fill="none" stroke="#63b8ff" d="M173.27,-180.83C162.54,-171.12 150.47,-160.19 142.21,-152.7"/>
<polygon fill="#63b8ff" stroke="#63b8ff" points="170.36,-182.83 180.12,-186.95 175.06,-177.64 170.36,-182.83"/>
</g>
<!-- Node14 -->
<g id="node14" class="node">
<title>Node14</title>
<g id="a_node14"><a xlink:href="heap-consistency_8h.html" target="_top" xlink:title=" ">
<polygon fill="white" stroke="#666666" points="485.19,-218.75 385.19,-218.75 385.19,-188.25 485.19,-188.25 485.19,-218.75"/>
<text text-anchor="start" x="393.19" y="-205.25" font-family="Helvetica,sans-Serif" font-size="10.00">include/cppgc/heap</text>
<text text-anchor="middle" x="435.19" y="-194" font-family="Helvetica,sans-Serif" font-size="10.00">&#45;consistency.h</text>
</a>
</g>
</g>
<!-- Node13&#45;&gt;Node14 -->
<g id="edge15" class="edge">
<title>Node13&#45;&gt;Node14</title>
<path fill="none" stroke="#63b8ff" d="M362.21,-366.31C379.95,-326.99 414.27,-250.88 428.63,-219.05"/>
<polygon fill="#63b8ff" stroke="#63b8ff" points="358.7,-364.58 357.78,-375.14 365.08,-367.46 358.7,-364.58"/>
</g>
<!-- Node15 -->
<g id="node15" class="node">
<title>Node15</title>
<g id="a_node15"><a xlink:href="pointer-policies_8h.html" target="_top" xlink:title=" ">
<polygon fill="white" stroke="#666666" points="147.44,-340.5 36.94,-340.5 36.94,-310 147.44,-310 147.44,-340.5"/>
<text text-anchor="start" x="44.94" y="-327" font-family="Helvetica,sans-Serif" font-size="10.00">include/cppgc/internal</text>
<text text-anchor="middle" x="92.19" y="-315.75" font-family="Helvetica,sans-Serif" font-size="10.00">/pointer&#45;policies.h</text>
</a>
</g>
</g>
<!-- Node13&#45;&gt;Node15 -->
<g id="edge16" class="edge">
<title>Node13&#45;&gt;Node15</title>
<path fill="none" stroke="#63b8ff" d="M285.09,-374.29C242.56,-363.7 187.92,-350.09 147.66,-340.06"/>
<polygon fill="#63b8ff" stroke="#63b8ff" points="284.08,-377.89 294.63,-376.91 285.77,-371.1 284.08,-377.89"/>
</g>
<!-- Node15&#45;&gt;Node4 -->
<g id="edge24" class="edge">
<title>Node15&#45;&gt;Node4</title>
<path fill="none" stroke="#63b8ff" d="M92.49,-298.78C94.24,-268.41 101.78,-218.02 131.19,-188.25 145.04,-174.23 192.78,-161.08 229.12,-152.74"/>
<polygon fill="#63b8ff" stroke="#63b8ff" points="88.96,-298.59 92.06,-308.72 95.95,-298.87 88.96,-298.59"/>
</g>
<!-- Node15&#45;&gt;Node5 -->
<g id="edge17" class="edge">
<title>Node15&#45;&gt;Node5</title>
<path fill="none" stroke="#63b8ff" d="M62.02,-303.21C35.19,-281.79 0.19,-245.9 0.19,-204.5 0.19,-204.5 0.19,-204.5 0.19,-141.62 0.19,-107.18 -0.57,-94.71 19.19,-66.5 29.88,-51.24 46.81,-39.24 61.78,-30.8"/>
<polygon fill="#63b8ff" stroke="#63b8ff" points="59.33,-306.33 69.39,-309.65 63.59,-300.78 59.33,-306.33"/>
</g>
<!-- Node15&#45;&gt;Node6 -->
<g id="edge23" class="edge">
<title>Node15&#45;&gt;Node6</title>
<path fill="none" stroke="#63b8ff" d="M80.16,-299.67C63.77,-262.78 38.49,-191.21 57.19,-133 62.44,-116.65 75.19,-101.11 84.01,-91.75"/>
<polygon fill="#63b8ff" stroke="#63b8ff" points="77.34,-300.92 84.7,-308.54 83.7,-297.99 77.34,-300.92"/>
</g>
<!-- Node16 -->
<g id="node16" class="node">
<title>Node16</title>
<g id="a_node16"><a xlink:href="member_8h.html" target="_top" xlink:title=" ">
<polygon fill="white" stroke="#666666" points="368.06,-274 246.31,-274 246.31,-254.75 368.06,-254.75 368.06,-274"/>
<text text-anchor="middle" x="307.19" y="-260.5" font-family="Helvetica,sans-Serif" font-size="10.00">include/cppgc/member.h</text>
</a>
</g>
</g>
<!-- Node15&#45;&gt;Node16 -->
<g id="edge18" class="edge">
<title>Node15&#45;&gt;Node16</title>
<path fill="none" stroke="#63b8ff" d="M156.03,-306.77C194.74,-296.17 242.55,-283.08 273.9,-274.49"/>
<polygon fill="#63b8ff" stroke="#63b8ff" points="155.61,-303.53 146.89,-309.55 157.46,-310.28 155.61,-303.53"/>
</g>
<!-- Node16&#45;&gt;Node4 -->
<g id="edge22" class="edge">
<title>Node16&#45;&gt;Node4</title>
<path fill="none" stroke="#63b8ff" d="M301.64,-243.85C294.2,-217.62 281.27,-172.07 275.77,-152.73"/>
<polygon fill="#63b8ff" stroke="#63b8ff" points="298.54,-244.71 304.63,-253.37 305.27,-242.8 298.54,-244.71"/>
</g>
<!-- Node16&#45;&gt;Node7 -->
<g id="edge21" class="edge">
<title>Node16&#45;&gt;Node7</title>
<path fill="none" stroke="#63b8ff" d="M315.03,-244.98C330.37,-209 364.05,-129.99 377.98,-97.32"/>
<polygon fill="#63b8ff" stroke="#63b8ff" points="311.61,-243.09 310.9,-253.66 318.04,-245.84 311.61,-243.09"/>
</g>
<!-- Node16&#45;&gt;Node10 -->
<g id="edge20" class="edge">
<title>Node16&#45;&gt;Node10</title>
<path fill="none" stroke="#63b8ff" d="M281.09,-249.41C263.98,-240.25 241.66,-228.3 224.34,-219.03"/>
<polygon fill="#63b8ff" stroke="#63b8ff" points="279.01,-252.8 289.48,-254.43 282.32,-246.63 279.01,-252.8"/>
</g>
<!-- Node16&#45;&gt;Node14 -->
<g id="edge19" class="edge">
<title>Node16&#45;&gt;Node14</title>
<path fill="none" stroke="#63b8ff" d="M336.67,-249.81C356.58,-240.66 382.84,-228.58 403.24,-219.19"/>
<polygon fill="#63b8ff" stroke="#63b8ff" points="335.53,-246.95 327.91,-254.3 338.46,-253.31 335.53,-246.95"/>
</g>
</g>
</svg>
