<?xml version="1.0" encoding="UTF-8" standalone="no"?>
<!DOCTYPE svg PUBLIC "-//W3C//DTD SVG 1.1//EN"
 "http://www.w3.org/Graphics/SVG/1.1/DTD/svg11.dtd">
<!-- Generated by graphviz version 8.0.5 (20230430.1635)
 -->
<!-- Title: include/v8&#45;traced&#45;handle.h Pages: 1 -->
<svg width="1022pt" height="381pt"
 viewBox="0.00 0.00 1022.00 381.25" xmlns="http://www.w3.org/2000/svg" xmlns:xlink="http://www.w3.org/1999/xlink">
<g id="graph0" class="graph" transform="scale(1 1) rotate(0) translate(4 377.25)">
<title>include/v8&#45;traced&#45;handle.h</title>
<!-- Node1 -->
<g id="node1" class="node">
<title>Node1</title>
<g id="a_node1"><a xlink:title=" ">
<polygon fill="#999999" stroke="#666666" points="478.62,-373.25 349.38,-373.25 349.38,-354 478.62,-354 478.62,-373.25"/>
<text text-anchor="middle" x="414" y="-359.75" font-family="Helvetica,sans-Serif" font-size="10.00">include/v8&#45;traced&#45;handle.h</text>
</a>
</g>
</g>
<!-- Node2 -->
<g id="node2" class="node">
<title>Node2</title>
<g id="a_node2"><a xlink:title=" ">
<polygon fill="#e0e0e0" stroke="#999999" points="538.25,-135.38 487.75,-135.38 487.75,-116.12 538.25,-116.12 538.25,-135.38"/>
<text text-anchor="middle" x="513" y="-121.88" font-family="Helvetica,sans-Serif" font-size="10.00">stddef.h</text>
</a>
</g>
</g>
<!-- Node1&#45;&gt;Node2 -->
<g id="edge1" class="edge">
<title>Node1&#45;&gt;Node2</title>
<path fill="none" stroke="#63b8ff" d="M429.34,-353.59C441.39,-345.69 457.64,-333.14 467,-318 501.52,-262.14 510.13,-182.31 512.28,-146.02"/>
<polygon fill="#63b8ff" stroke="#63b8ff" points="515.81,-146.64 512.79,-136.48 508.81,-146.3 515.81,-146.64"/>
</g>
<!-- Node3 -->
<g id="node3" class="node">
<title>Node3</title>
<g id="a_node3"><a xlink:title=" ">
<polygon fill="#e0e0e0" stroke="#999999" points="75.75,-135.38 28.25,-135.38 28.25,-116.12 75.75,-116.12 75.75,-135.38"/>
<text text-anchor="middle" x="52" y="-121.88" font-family="Helvetica,sans-Serif" font-size="10.00">stdint.h</text>
</a>
</g>
</g>
<!-- Node1&#45;&gt;Node3 -->
<g id="edge2" class="edge">
<title>Node1&#45;&gt;Node3</title>
<path fill="none" stroke="#63b8ff" d="M349.06,-362.43C264.85,-360.75 124.42,-352.65 88,-318 40.29,-272.61 44.36,-185.48 49.02,-146.47"/>
<polygon fill="#63b8ff" stroke="#63b8ff" points="52.62,-146.99 50.49,-136.61 45.68,-146.06 52.62,-146.99"/>
</g>
<!-- Node4 -->
<g id="node4" class="node">
<title>Node4</title>
<g id="a_node4"><a xlink:title=" ">
<polygon fill="#e0e0e0" stroke="#999999" points="141.25,-318 96.75,-318 96.75,-298.75 141.25,-298.75 141.25,-318"/>
<text text-anchor="middle" x="119" y="-304.5" font-family="Helvetica,sans-Serif" font-size="10.00">stdio.h</text>
</a>
</g>
</g>
<!-- Node1&#45;&gt;Node4 -->
<g id="edge3" class="edge">
<title>Node1&#45;&gt;Node4</title>
<path fill="none" stroke="#63b8ff" d="M354.65,-353.52C302.02,-345.17 223.16,-332.02 155,-318 154.04,-317.8 153.06,-317.6 152.07,-317.39"/>
<polygon fill="#63b8ff" stroke="#63b8ff" points="152.94,-313.77 142.42,-314.98 151.4,-320.6 152.94,-313.77"/>
</g>
<!-- Node5 -->
<g id="node5" class="node">
<title>Node5</title>
<g id="a_node5"><a xlink:title=" ">
<polygon fill="#e0e0e0" stroke="#999999" points="138.62,-135.38 93.38,-135.38 93.38,-116.12 138.62,-116.12 138.62,-135.38"/>
<text text-anchor="middle" x="116" y="-121.88" font-family="Helvetica,sans-Serif" font-size="10.00">atomic</text>
</a>
</g>
</g>
<!-- Node1&#45;&gt;Node5 -->
<g id="edge4" class="edge">
<title>Node1&#45;&gt;Node5</title>
<path fill="none" stroke="#63b8ff" d="M348.98,-354.67C318.09,-348.46 281.91,-337.46 254,-318 187.97,-271.96 141.97,-183.85 124.18,-145.43"/>
<polygon fill="#63b8ff" stroke="#63b8ff" points="127.04,-144.27 119.74,-136.59 120.66,-147.15 127.04,-144.27"/>
</g>
<!-- Node6 -->
<g id="node6" class="node">
<title>Node6</title>
<g id="a_node6"><a xlink:title=" ">
<polygon fill="#e0e0e0" stroke="#999999" points="447.25,-19.25 396.75,-19.25 396.75,0 447.25,0 447.25,-19.25"/>
<text text-anchor="middle" x="422" y="-5.75" font-family="Helvetica,sans-Serif" font-size="10.00">memory</text>
</a>
</g>
</g>
<!-- Node1&#45;&gt;Node6 -->
<g id="edge5" class="edge">
<title>Node1&#45;&gt;Node6</title>
<path fill="none" stroke="#63b8ff" d="M348.89,-359.15C263.16,-353.73 117.73,-341.38 70,-318 30.63,-298.72 0,-292.34 0,-248.5 0,-248.5 0,-248.5 0,-124.75 0,-45.1 283.65,-19.34 385.85,-12.65"/>
<polygon fill="#63b8ff" stroke="#63b8ff" points="385.79,-16.1 395.55,-11.97 385.35,-9.11 385.79,-16.1"/>
</g>
<!-- Node7 -->
<g id="node7" class="node">
<title>Node7</title>
<g id="a_node7"><a xlink:title=" ">
<polygon fill="#e0e0e0" stroke="#999999" points="655.5,-135.38 594.5,-135.38 594.5,-116.12 655.5,-116.12 655.5,-135.38"/>
<text text-anchor="middle" x="625" y="-121.88" font-family="Helvetica,sans-Serif" font-size="10.00">type_traits</text>
</a>
</g>
</g>
<!-- Node1&#45;&gt;Node7 -->
<g id="edge6" class="edge">
<title>Node1&#45;&gt;Node7</title>
<path fill="none" stroke="#63b8ff" d="M479.11,-360.63C513.53,-356.15 553.94,-344.9 580,-318 626.05,-270.48 628.15,-185.15 626.46,-146.6"/>
<polygon fill="#63b8ff" stroke="#63b8ff" points="629.91,-146.62 625.83,-136.84 622.92,-147.03 629.91,-146.62"/>
</g>
<!-- Node8 -->
<g id="node8" class="node">
<title>Node8</title>
<g id="a_node8"><a xlink:title=" ">
<polygon fill="#e0e0e0" stroke="#999999" points="914.25,-135.38 875.75,-135.38 875.75,-116.12 914.25,-116.12 914.25,-135.38"/>
<text text-anchor="middle" x="895" y="-121.88" font-family="Helvetica,sans-Serif" font-size="10.00">utility</text>
</a>
</g>
</g>
<!-- Node1&#45;&gt;Node8 -->
<g id="edge7" class="edge">
<title>Node1&#45;&gt;Node8</title>
<path fill="none" stroke="#63b8ff" d="M478.93,-355.59C558.92,-344.81 697.1,-319.18 802,-262.75 841.53,-241.49 854.7,-234.61 878,-196.25 887.27,-180.99 891.49,-160.95 893.41,-146.32"/>
<polygon fill="#63b8ff" stroke="#63b8ff" points="896.98,-146.82 894.54,-136.51 890.02,-146.1 896.98,-146.82"/>
</g>
<!-- Node9 -->
<g id="node9" class="node">
<title>Node9</title>
<g id="a_node9"><a xlink:href="v8-internal_8h.html" target="_top" xlink:title=" ">
<polygon fill="white" stroke="#666666" points="375.25,-196.25 306.75,-196.25 306.75,-177 375.25,-177 375.25,-196.25"/>
<text text-anchor="middle" x="341" y="-182.75" font-family="Helvetica,sans-Serif" font-size="10.00">v8&#45;internal.h</text>
</a>
</g>
</g>
<!-- Node1&#45;&gt;Node9 -->
<g id="edge8" class="edge">
<title>Node1&#45;&gt;Node9</title>
<path fill="none" stroke="#63b8ff" d="M372.16,-353.59C327.3,-341.43 258.32,-314.99 227,-262.75 220.03,-251.12 219.36,-243.45 227,-232.25 242.39,-209.69 271.05,-198.54 295.78,-193.02"/>
<polygon fill="#63b8ff" stroke="#63b8ff" points="296.31,-196.29 305.45,-190.92 294.96,-189.42 296.31,-196.29"/>
</g>
<!-- Node14 -->
<g id="node14" class="node">
<title>Node14</title>
<g id="a_node14"><a xlink:href="v8config_8h.html" target="_top" xlink:title=" ">
<polygon fill="white" stroke="#666666" points="595.75,-74.5 536.25,-74.5 536.25,-55.25 595.75,-55.25 595.75,-74.5"/>
<text text-anchor="middle" x="566" y="-61" font-family="Helvetica,sans-Serif" font-size="10.00">v8config.h</text>
</a>
</g>
</g>
<!-- Node1&#45;&gt;Node14 -->
<g id="edge40" class="edge">
<title>Node1&#45;&gt;Node14</title>
<path fill="none" stroke="#63b8ff" d="M448.11,-353.54C492.93,-339.29 566,-307.07 566,-248.5 566,-248.5 566,-248.5 566,-185.62 566,-150.39 566,-109.33 566,-85.6"/>
<polygon fill="#63b8ff" stroke="#63b8ff" points="569.5,-85.89 566,-75.89 562.5,-85.89 569.5,-85.89"/>
</g>
<!-- Node15 -->
<g id="node15" class="node">
<title>Node15</title>
<g id="a_node15"><a xlink:href="v8-local-handle_8h.html" target="_top" xlink:title=" ">
<polygon fill="white" stroke="#666666" points="458.38,-318 369.62,-318 369.62,-298.75 458.38,-298.75 458.38,-318"/>
<text text-anchor="middle" x="414" y="-304.5" font-family="Helvetica,sans-Serif" font-size="10.00">v8&#45;local&#45;handle.h</text>
</a>
</g>
</g>
<!-- Node1&#45;&gt;Node15 -->
<g id="edge20" class="edge">
<title>Node1&#45;&gt;Node15</title>
<path fill="none" stroke="#63b8ff" d="M414,-353.83C414,-347.17 414,-337.74 414,-329.28"/>
<polygon fill="#63b8ff" stroke="#63b8ff" points="417.5,-329.36 414,-319.36 410.5,-329.36 417.5,-329.36"/>
</g>
<!-- Node18 -->
<g id="node18" class="node">
<title>Node18</title>
<g id="a_node18"><a xlink:href="v8-weak-callback-info_8h.html" target="_top" xlink:title=" ">
<polygon fill="white" stroke="#666666" points="1014,-318 896,-318 896,-298.75 1014,-298.75 1014,-318"/>
<text text-anchor="middle" x="955" y="-304.5" font-family="Helvetica,sans-Serif" font-size="10.00">v8&#45;weak&#45;callback&#45;info.h</text>
</a>
</g>
</g>
<!-- Node1&#45;&gt;Node18 -->
<g id="edge27" class="edge">
<title>Node1&#45;&gt;Node18</title>
<path fill="none" stroke="#63b8ff" d="M478.77,-356.91C569.14,-348.84 738.15,-333.35 882,-318 882.97,-317.9 883.95,-317.79 884.93,-317.68"/>
<polygon fill="#63b8ff" stroke="#63b8ff" points="885.1,-321.08 894.65,-316.5 884.33,-314.12 885.1,-321.08"/>
</g>
<!-- Node9&#45;&gt;Node2 -->
<g id="edge9" class="edge">
<title>Node9&#45;&gt;Node2</title>
<path fill="none" stroke="#63b8ff" d="M368.84,-176.52C395.8,-167.65 437.8,-153.68 474,-141 475.49,-140.48 477.01,-139.94 478.54,-139.4"/>
<polygon fill="#63b8ff" stroke="#63b8ff" points="479.47,-142.42 487.69,-135.74 477.1,-135.84 479.47,-142.42"/>
</g>
<!-- Node9&#45;&gt;Node3 -->
<g id="edge10" class="edge">
<title>Node9&#45;&gt;Node3</title>
<path fill="none" stroke="#63b8ff" d="M306.28,-182.35C256.3,-177.02 161.55,-164.6 84,-141 82.72,-140.61 81.43,-140.19 80.13,-139.73"/>
<polygon fill="#63b8ff" stroke="#63b8ff" points="81.9,-136.27 71.32,-135.83 79.32,-142.78 81.9,-136.27"/>
</g>
<!-- Node9&#45;&gt;Node5 -->
<g id="edge12" class="edge">
<title>Node9&#45;&gt;Node5</title>
<path fill="none" stroke="#63b8ff" d="M306.42,-179.88C267.15,-172.86 201.47,-159.56 147,-141 146.07,-140.68 145.13,-140.35 144.18,-139.99"/>
<polygon fill="#63b8ff" stroke="#63b8ff" points="145.68,-136.42 135.11,-135.82 143.01,-142.88 145.68,-136.42"/>
</g>
<!-- Node9&#45;&gt;Node6 -->
<g id="edge15" class="edge">
<title>Node9&#45;&gt;Node6</title>
<path fill="none" stroke="#63b8ff" d="M361.12,-176.53C375.22,-169.07 393.22,-157.1 403,-141 424.01,-106.41 425.05,-57.37 423.7,-30.37"/>
<polygon fill="#63b8ff" stroke="#63b8ff" points="427.14,-30.38 422.97,-20.64 420.15,-30.86 427.14,-30.38"/>
</g>
<!-- Node9&#45;&gt;Node7 -->
<g id="edge17" class="edge">
<title>Node9&#45;&gt;Node7</title>
<path fill="none" stroke="#63b8ff" d="M375.54,-178.46C427.93,-167.6 527.3,-147 583.52,-135.35"/>
<polygon fill="#63b8ff" stroke="#63b8ff" points="584.08,-138.6 593.16,-133.14 582.66,-131.75 584.08,-138.6"/>
</g>
<!-- Node10 -->
<g id="node10" class="node">
<title>Node10</title>
<g id="a_node10"><a xlink:title=" ">
<polygon fill="#e0e0e0" stroke="#999999" points="203.75,-135.38 156.25,-135.38 156.25,-116.12 203.75,-116.12 203.75,-135.38"/>
<text text-anchor="middle" x="180" y="-121.88" font-family="Helvetica,sans-Serif" font-size="10.00">string.h</text>
</a>
</g>
</g>
<!-- Node9&#45;&gt;Node10 -->
<g id="edge11" class="edge">
<title>Node9&#45;&gt;Node10</title>
<path fill="none" stroke="#63b8ff" d="M313.07,-176.54C287,-167.9 247.1,-154.29 213,-141 212.11,-140.65 211.21,-140.3 210.3,-139.93"/>
<polygon fill="#63b8ff" stroke="#63b8ff" points="212.08,-136.47 201.5,-135.87 209.4,-142.94 212.08,-136.47"/>
</g>
<!-- Node11 -->
<g id="node11" class="node">
<title>Node11</title>
<g id="a_node11"><a xlink:title=" ">
<polygon fill="#e0e0e0" stroke="#999999" points="268,-135.38 222,-135.38 222,-116.12 268,-116.12 268,-135.38"/>
<text text-anchor="middle" x="245" y="-121.88" font-family="Helvetica,sans-Serif" font-size="10.00">iterator</text>
</a>
</g>
</g>
<!-- Node9&#45;&gt;Node11 -->
<g id="edge13" class="edge">
<title>Node9&#45;&gt;Node11</title>
<path fill="none" stroke="#63b8ff" d="M326.42,-176.68C311.2,-167.35 287.07,-152.55 269.02,-141.48"/>
<polygon fill="#63b8ff" stroke="#63b8ff" points="271.07,-138.02 260.72,-135.78 267.41,-143.99 271.07,-138.02"/>
</g>
<!-- Node12 -->
<g id="node12" class="node">
<title>Node12</title>
<g id="a_node12"><a xlink:title=" ">
<polygon fill="#e0e0e0" stroke="#999999" points="325.62,-135.38 286.38,-135.38 286.38,-116.12 325.62,-116.12 325.62,-135.38"/>
<text text-anchor="middle" x="306" y="-121.88" font-family="Helvetica,sans-Serif" font-size="10.00">limits</text>
</a>
</g>
</g>
<!-- Node9&#45;&gt;Node12 -->
<g id="edge14" class="edge">
<title>Node9&#45;&gt;Node12</title>
<path fill="none" stroke="#63b8ff" d="M335.68,-176.68C330.7,-168.3 323.1,-155.51 316.83,-144.97"/>
<polygon fill="#63b8ff" stroke="#63b8ff" points="319.48,-143.58 311.37,-136.78 313.47,-147.16 319.48,-143.58"/>
</g>
<!-- Node13 -->
<g id="node13" class="node">
<title>Node13</title>
<g id="a_node13"><a xlink:title=" ">
<polygon fill="#e0e0e0" stroke="#999999" points="393.88,-135.38 344.12,-135.38 344.12,-116.12 393.88,-116.12 393.88,-135.38"/>
<text text-anchor="middle" x="369" y="-121.88" font-family="Helvetica,sans-Serif" font-size="10.00">optional</text>
</a>
</g>
</g>
<!-- Node9&#45;&gt;Node13 -->
<g id="edge16" class="edge">
<title>Node9&#45;&gt;Node13</title>
<path fill="none" stroke="#63b8ff" d="M345.25,-176.68C349.16,-168.47 355.07,-156.03 360.02,-145.62"/>
<polygon fill="#63b8ff" stroke="#63b8ff" points="363.57,-147.31 364.71,-136.78 357.25,-144.3 363.57,-147.31"/>
</g>
<!-- Node9&#45;&gt;Node14 -->
<g id="edge18" class="edge">
<title>Node9&#45;&gt;Node14</title>
<path fill="none" stroke="#63b8ff" d="M363.07,-176.59C382.69,-168.24 411.92,-155.05 436,-141 456.24,-129.19 458.97,-122.66 479,-110.5 497.8,-99.09 519.86,-87.8 537.06,-79.43"/>
<polygon fill="#63b8ff" stroke="#63b8ff" points="538.07,-82.35 545.56,-74.86 535.03,-76.04 538.07,-82.35"/>
</g>
<!-- Node14&#45;&gt;Node6 -->
<g id="edge19" class="edge">
<title>Node14&#45;&gt;Node6</title>
<path fill="none" stroke="#63b8ff" d="M541.57,-54.84C518.3,-46.24 483.02,-33.19 456.81,-23.5"/>
<polygon fill="#63b8ff" stroke="#63b8ff" points="458.14,-19.89 447.55,-19.7 455.71,-26.45 458.14,-19.89"/>
</g>
<!-- Node15&#45;&gt;Node2 -->
<g id="edge21" class="edge">
<title>Node15&#45;&gt;Node2</title>
<path fill="none" stroke="#63b8ff" d="M417.51,-298.54C426.2,-277.06 449.87,-220.66 476,-177 482.84,-165.57 491.65,-153.52 498.96,-144.09"/>
<polygon fill="#63b8ff" stroke="#63b8ff" points="502.17,-146.66 505.63,-136.65 496.68,-142.32 502.17,-146.66"/>
</g>
<!-- Node15&#45;&gt;Node7 -->
<g id="edge22" class="edge">
<title>Node15&#45;&gt;Node7</title>
<path fill="none" stroke="#63b8ff" d="M424.46,-298.42C458,-269.71 563.14,-179.71 606.26,-142.79"/>
<polygon fill="#63b8ff" stroke="#63b8ff" points="608.15,-144.92 613.47,-135.76 603.6,-139.61 608.15,-144.92"/>
</g>
<!-- Node15&#45;&gt;Node9 -->
<g id="edge26" class="edge">
<title>Node15&#45;&gt;Node9</title>
<path fill="none" stroke="#63b8ff" d="M413.52,-298.34C412.34,-283.47 408.38,-253.4 395,-232.25 387.56,-220.48 375.98,-210.32 365.44,-202.67"/>
<polygon fill="#63b8ff" stroke="#63b8ff" points="367.82,-199.38 357.59,-196.63 363.87,-205.16 367.82,-199.38"/>
</g>
<!-- Node16 -->
<g id="node16" class="node">
<title>Node16</title>
<g id="a_node16"><a xlink:title=" ">
<polygon fill="#e0e0e0" stroke="#999999" points="278.5,-257.12 235.5,-257.12 235.5,-237.88 278.5,-237.88 278.5,-257.12"/>
<text text-anchor="middle" x="257" y="-243.62" font-family="Helvetica,sans-Serif" font-size="10.00">vector</text>
</a>
</g>
</g>
<!-- Node15&#45;&gt;Node16 -->
<g id="edge23" class="edge">
<title>Node15&#45;&gt;Node16</title>
<path fill="none" stroke="#63b8ff" d="M385.43,-298.29C359.48,-289.82 320.28,-276.46 287,-262.75 286.4,-262.5 285.8,-262.25 285.19,-261.99"/>
<polygon fill="#63b8ff" stroke="#63b8ff" points="286.82,-258.44 276.27,-257.55 283.96,-264.83 286.82,-258.44"/>
</g>
<!-- Node17 -->
<g id="node17" class="node">
<title>Node17</title>
<g id="a_node17"><a xlink:href="v8-handle-base_8h.html" target="_top" xlink:title=" ">
<polygon fill="white" stroke="#666666" points="385.75,-257.12 296.25,-257.12 296.25,-237.88 385.75,-237.88 385.75,-257.12"/>
<text text-anchor="middle" x="341" y="-243.62" font-family="Helvetica,sans-Serif" font-size="10.00">v8&#45;handle&#45;base.h</text>
</a>
</g>
</g>
<!-- Node15&#45;&gt;Node17 -->
<g id="edge24" class="edge">
<title>Node15&#45;&gt;Node17</title>
<path fill="none" stroke="#63b8ff" d="M402.91,-298.43C391.66,-289.36 374,-275.12 360.42,-264.16"/>
<polygon fill="#63b8ff" stroke="#63b8ff" points="363.17,-261.08 353.19,-257.53 358.78,-266.53 363.17,-261.08"/>
</g>
<!-- Node17&#45;&gt;Node9 -->
<g id="edge25" class="edge">
<title>Node17&#45;&gt;Node9</title>
<path fill="none" stroke="#63b8ff" d="M341,-237.56C341,-229.6 341,-217.69 341,-207.49"/>
<polygon fill="#63b8ff" stroke="#63b8ff" points="344.5,-207.65 341,-197.65 337.5,-207.65 344.5,-207.65"/>
</g>
<!-- Node18&#45;&gt;Node14 -->
<g id="edge39" class="edge">
<title>Node18&#45;&gt;Node14</title>
<path fill="none" stroke="#63b8ff" d="M956.88,-298.57C962.98,-267.3 978.77,-160.87 923,-110.5 877.35,-69.27 690.65,-65.07 606.94,-65.32"/>
<polygon fill="#63b8ff" stroke="#63b8ff" points="607.05,-61.83 597.07,-65.38 607.09,-68.83 607.05,-61.83"/>
</g>
<!-- Node19 -->
<g id="node19" class="node">
<title>Node19</title>
<g id="a_node19"><a xlink:title=" ">
<polygon fill="#e0e0e0" stroke="#999999" points="941.62,-257.12 896.38,-257.12 896.38,-237.88 941.62,-237.88 941.62,-257.12"/>
<text text-anchor="middle" x="919" y="-243.62" font-family="Helvetica,sans-Serif" font-size="10.00">cstring</text>
</a>
</g>
</g>
<!-- Node18&#45;&gt;Node19 -->
<g id="edge28" class="edge">
<title>Node18&#45;&gt;Node19</title>
<path fill="none" stroke="#63b8ff" d="M949.53,-298.43C944.4,-290.05 936.58,-277.26 930.14,-266.72"/>
<polygon fill="#63b8ff" stroke="#63b8ff" points="932.72,-265.23 924.52,-258.53 926.75,-268.88 932.72,-265.23"/>
</g>
<!-- Node20 -->
<g id="node20" class="node">
<title>Node20</title>
<g id="a_node20"><a xlink:href="conditional-stack-allocated_8h.html" target="_top" xlink:title=" ">
<polygon fill="white" stroke="#666666" points="793.12,-262.75 666.88,-262.75 666.88,-232.25 793.12,-232.25 793.12,-262.75"/>
<text text-anchor="start" x="674.88" y="-249.25" font-family="Helvetica,sans-Serif" font-size="10.00">cppgc/internal/conditional</text>
<text text-anchor="middle" x="730" y="-238" font-family="Helvetica,sans-Serif" font-size="10.00">&#45;stack&#45;allocated.h</text>
</a>
</g>
</g>
<!-- Node18&#45;&gt;Node20 -->
<g id="edge29" class="edge">
<title>Node18&#45;&gt;Node20</title>
<path fill="none" stroke="#63b8ff" d="M920.34,-298.3C887.52,-289.72 837.37,-276.6 796.79,-265.98"/>
<polygon fill="#63b8ff" stroke="#63b8ff" points="797.72,-262.34 787.16,-263.19 795.95,-269.11 797.72,-262.34"/>
</g>
<!-- Node20&#45;&gt;Node7 -->
<g id="edge30" class="edge">
<title>Node20&#45;&gt;Node7</title>
<path fill="none" stroke="#63b8ff" d="M704.88,-231.83C691.01,-222.84 674.18,-210.37 662,-196.25 648.91,-181.07 638.68,-160.48 632.32,-145.66"/>
<polygon fill="#63b8ff" stroke="#63b8ff" points="635.25,-144.57 628.24,-136.63 628.77,-147.21 635.25,-144.57"/>
</g>
<!-- Node21 -->
<g id="node21" class="node">
<title>Node21</title>
<g id="a_node21"><a xlink:href="macros_8h.html" target="_top" xlink:title=" ">
<polygon fill="white" stroke="#666666" points="755.5,-196.25 670.5,-196.25 670.5,-177 755.5,-177 755.5,-196.25"/>
<text text-anchor="middle" x="713" y="-182.75" font-family="Helvetica,sans-Serif" font-size="10.00">cppgc/macros.h</text>
</a>
</g>
</g>
<!-- Node20&#45;&gt;Node21 -->
<g id="edge31" class="edge">
<title>Node20&#45;&gt;Node21</title>
<path fill="none" stroke="#63b8ff" d="M725.8,-231.95C723.63,-224.45 720.96,-215.2 718.62,-207.1"/>
<polygon fill="#63b8ff" stroke="#63b8ff" points="721.76,-206.34 715.62,-197.7 715.03,-208.28 721.76,-206.34"/>
</g>
<!-- Node24 -->
<g id="node24" class="node">
<title>Node24</title>
<g id="a_node24"><a xlink:href="type-traits_8h.html" target="_top" xlink:title=" ">
<polygon fill="white" stroke="#666666" points="868.75,-196.25 773.25,-196.25 773.25,-177 868.75,-177 868.75,-196.25"/>
<text text-anchor="middle" x="821" y="-182.75" font-family="Helvetica,sans-Serif" font-size="10.00">cppgc/type&#45;traits.h</text>
</a>
</g>
</g>
<!-- Node20&#45;&gt;Node24 -->
<g id="edge35" class="edge">
<title>Node20&#45;&gt;Node24</title>
<path fill="none" stroke="#63b8ff" d="M752.49,-231.95C766.35,-222.98 784.07,-211.52 798.01,-202.5"/>
<polygon fill="#63b8ff" stroke="#63b8ff" points="799.48,-205.07 805.97,-196.7 795.67,-199.19 799.48,-205.07"/>
</g>
<!-- Node22 -->
<g id="node22" class="node">
<title>Node22</title>
<g id="a_node22"><a xlink:title=" ">
<polygon fill="#e0e0e0" stroke="#999999" points="856.12,-135.38 807.88,-135.38 807.88,-116.12 856.12,-116.12 856.12,-135.38"/>
<text text-anchor="middle" x="832" y="-121.88" font-family="Helvetica,sans-Serif" font-size="10.00">cstddef</text>
</a>
</g>
</g>
<!-- Node21&#45;&gt;Node22 -->
<g id="edge32" class="edge">
<title>Node21&#45;&gt;Node22</title>
<path fill="none" stroke="#63b8ff" d="M731.33,-176.55C750.78,-166.93 781.74,-151.62 804.2,-140.51"/>
<polygon fill="#63b8ff" stroke="#63b8ff" points="805.43,-143.31 812.84,-135.73 802.33,-137.03 805.43,-143.31"/>
</g>
<!-- Node23 -->
<g id="node23" class="node">
<title>Node23</title>
<g id="a_node23"><a xlink:href="compiler-specific_8h.html" target="_top" xlink:title=" ">
<polygon fill="white" stroke="#666666" points="790.25,-141 673.75,-141 673.75,-110.5 790.25,-110.5 790.25,-141"/>
<text text-anchor="start" x="681.75" y="-127.5" font-family="Helvetica,sans-Serif" font-size="10.00">cppgc/internal/compiler</text>
<text text-anchor="middle" x="732" y="-116.25" font-family="Helvetica,sans-Serif" font-size="10.00">&#45;specific.h</text>
</a>
</g>
</g>
<!-- Node21&#45;&gt;Node23 -->
<g id="edge33" class="edge">
<title>Node21&#45;&gt;Node23</title>
<path fill="none" stroke="#63b8ff" d="M715.89,-176.68C718.04,-170.01 721.1,-160.53 723.97,-151.63"/>
<polygon fill="#63b8ff" stroke="#63b8ff" points="727.57,-152.87 727.31,-142.28 720.91,-150.72 727.57,-152.87"/>
</g>
<!-- Node23&#45;&gt;Node14 -->
<g id="edge34" class="edge">
<title>Node23&#45;&gt;Node14</title>
<path fill="none" stroke="#63b8ff" d="M690.54,-110.05C663.19,-100.35 627.74,-87.77 601.66,-78.52"/>
<polygon fill="#63b8ff" stroke="#63b8ff" points="603.05,-74.95 592.46,-74.9 600.71,-81.55 603.05,-74.95"/>
</g>
<!-- Node24&#45;&gt;Node7 -->
<g id="edge37" class="edge">
<title>Node24&#45;&gt;Node7</title>
<path fill="none" stroke="#63b8ff" d="M787.03,-176.58C755.31,-167.97 706.71,-154.38 665,-141 663.26,-140.44 661.49,-139.86 659.7,-139.26"/>
<polygon fill="#63b8ff" stroke="#63b8ff" points="661.05,-135.68 650.45,-135.74 658.77,-142.3 661.05,-135.68"/>
</g>
<!-- Node24&#45;&gt;Node8 -->
<g id="edge38" class="edge">
<title>Node24&#45;&gt;Node8</title>
<path fill="none" stroke="#63b8ff" d="M832.24,-176.68C843.65,-167.61 861.55,-153.37 875.31,-142.41"/>
<polygon fill="#63b8ff" stroke="#63b8ff" points="877.01,-144.74 882.66,-135.78 872.65,-139.26 877.01,-144.74"/>
</g>
<!-- Node24&#45;&gt;Node22 -->
<g id="edge36" class="edge">
<title>Node24&#45;&gt;Node22</title>
<path fill="none" stroke="#63b8ff" d="M822.67,-176.68C824.17,-168.64 826.43,-156.55 828.35,-146.28"/>
<polygon fill="#63b8ff" stroke="#63b8ff" points="831.92,-147.25 830.31,-136.78 825.04,-145.96 831.92,-147.25"/>
</g>
</g>
</svg>
