<?xml version="1.0" encoding="UTF-8" standalone="no"?>
<!DOCTYPE svg PUBLIC "-//W3C//DTD SVG 1.1//EN"
 "http://www.w3.org/Graphics/SVG/1.1/DTD/svg11.dtd">
<!-- Generated by graphviz version 8.0.5 (20230430.1635)
 -->
<!-- Title: include/v8&#45;value&#45;serializer.h Pages: 1 -->
<svg width="1031pt" height="381pt"
 viewBox="0.00 0.00 1031.25 381.25" xmlns="http://www.w3.org/2000/svg" xmlns:xlink="http://www.w3.org/1999/xlink">
<g id="graph0" class="graph" transform="scale(1 1) rotate(0) translate(4 377.25)">
<title>include/v8&#45;value&#45;serializer.h</title>
<!-- Node1 -->
<g id="node1" class="node">
<title>Node1</title>
<g id="a_node1"><a xlink:title=" ">
<polygon fill="#999999" stroke="#666666" points="607.88,-373.25 472.62,-373.25 472.62,-354 607.88,-354 607.88,-373.25"/>
<text text-anchor="middle" x="540.25" y="-359.75" font-family="Helvetica,sans-Serif" font-size="10.00">include/v8&#45;value&#45;serializer.h</text>
</a>
</g>
</g>
<!-- Node2 -->
<g id="node2" class="node">
<title>Node2</title>
<g id="a_node2"><a xlink:title=" ">
<polygon fill="#e0e0e0" stroke="#999999" points="50.5,-135.38 0,-135.38 0,-116.12 50.5,-116.12 50.5,-135.38"/>
<text text-anchor="middle" x="25.25" y="-121.88" font-family="Helvetica,sans-Serif" font-size="10.00">stddef.h</text>
</a>
</g>
</g>
<!-- Node1&#45;&gt;Node2 -->
<g id="edge1" class="edge">
<title>Node1&#45;&gt;Node2</title>
<path fill="none" stroke="#63b8ff" d="M474.38,-353.51C399.04,-341.1 273.67,-314.27 177.25,-262.75 118.63,-231.43 64.27,-172.93 39.42,-143.94"/>
<polygon fill="#63b8ff" stroke="#63b8ff" points="41.55,-142.03 32.43,-136.64 36.19,-146.54 41.55,-142.03"/>
</g>
<!-- Node3 -->
<g id="node3" class="node">
<title>Node3</title>
<g id="a_node3"><a xlink:title=" ">
<polygon fill="#e0e0e0" stroke="#999999" points="512,-135.38 464.5,-135.38 464.5,-116.12 512,-116.12 512,-135.38"/>
<text text-anchor="middle" x="488.25" y="-121.88" font-family="Helvetica,sans-Serif" font-size="10.00">stdint.h</text>
</a>
</g>
</g>
<!-- Node1&#45;&gt;Node3 -->
<g id="edge2" class="edge">
<title>Node1&#45;&gt;Node3</title>
<path fill="none" stroke="#63b8ff" d="M537.18,-353.82C534.13,-344.87 529.47,-330.59 526.25,-318 510.36,-255.8 497.16,-180.8 491.38,-146.1"/>
<polygon fill="#63b8ff" stroke="#63b8ff" points="494.73,-145.9 489.66,-136.59 487.83,-147.03 494.73,-145.9"/>
</g>
<!-- Node4 -->
<g id="node4" class="node">
<title>Node4</title>
<g id="a_node4"><a xlink:title=" ">
<polygon fill="#e0e0e0" stroke="#999999" points="584.5,-19.25 534,-19.25 534,0 584.5,0 584.5,-19.25"/>
<text text-anchor="middle" x="559.25" y="-5.75" font-family="Helvetica,sans-Serif" font-size="10.00">memory</text>
</a>
</g>
</g>
<!-- Node1&#45;&gt;Node4 -->
<g id="edge3" class="edge">
<title>Node1&#45;&gt;Node4</title>
<path fill="none" stroke="#63b8ff" d="M608.17,-360.64C741.21,-354.89 1023.25,-332.78 1023.25,-248.5 1023.25,-248.5 1023.25,-248.5 1023.25,-124.75 1023.25,-36.82 705.05,-16.26 595.66,-11.79"/>
<polygon fill="#63b8ff" stroke="#63b8ff" points="595.98,-8.26 585.86,-11.37 595.72,-15.25 595.98,-8.26"/>
</g>
<!-- Node5 -->
<g id="node5" class="node">
<title>Node5</title>
<g id="a_node5"><a xlink:title=" ">
<polygon fill="#e0e0e0" stroke="#999999" points="983.5,-135.38 945,-135.38 945,-116.12 983.5,-116.12 983.5,-135.38"/>
<text text-anchor="middle" x="964.25" y="-121.88" font-family="Helvetica,sans-Serif" font-size="10.00">utility</text>
</a>
</g>
</g>
<!-- Node1&#45;&gt;Node5 -->
<g id="edge4" class="edge">
<title>Node1&#45;&gt;Node5</title>
<path fill="none" stroke="#63b8ff" d="M596.19,-353.52C664.8,-340.67 783.09,-312.99 873.25,-262.75 912.17,-241.06 925.5,-234.56 948.25,-196.25 957.34,-180.95 961.26,-160.92 962.96,-146.29"/>
<polygon fill="#63b8ff" stroke="#63b8ff" points="966.52,-146.77 963.93,-136.5 959.55,-146.15 966.52,-146.77"/>
</g>
<!-- Node6 -->
<g id="node6" class="node">
<title>Node6</title>
<g id="a_node6"><a xlink:href="v8-local-handle_8h.html" target="_top" xlink:title=" ">
<polygon fill="white" stroke="#666666" points="433.62,-318 344.88,-318 344.88,-298.75 433.62,-298.75 433.62,-318"/>
<text text-anchor="middle" x="389.25" y="-304.5" font-family="Helvetica,sans-Serif" font-size="10.00">v8&#45;local&#45;handle.h</text>
</a>
</g>
</g>
<!-- Node1&#45;&gt;Node6 -->
<g id="edge5" class="edge">
<title>Node1&#45;&gt;Node6</title>
<path fill="none" stroke="#63b8ff" d="M514.63,-353.59C490.01,-344.91 452.58,-331.71 425.02,-321.99"/>
<polygon fill="#63b8ff" stroke="#63b8ff" points="426.59,-318.48 415.99,-318.45 424.26,-325.08 426.59,-318.48"/>
</g>
<!-- Node16 -->
<g id="node16" class="node">
<title>Node16</title>
<g id="a_node16"><a xlink:href="v8config_8h.html" target="_top" xlink:title=" ">
<polygon fill="white" stroke="#666666" points="589,-74.5 529.5,-74.5 529.5,-55.25 589,-55.25 589,-74.5"/>
<text text-anchor="middle" x="559.25" y="-61" font-family="Helvetica,sans-Serif" font-size="10.00">v8config.h</text>
</a>
</g>
</g>
<!-- Node1&#45;&gt;Node16 -->
<g id="edge38" class="edge">
<title>Node1&#45;&gt;Node16</title>
<path fill="none" stroke="#63b8ff" d="M540.25,-353.75C540.25,-334.55 540.25,-287.73 540.25,-248.5 540.25,-248.5 540.25,-248.5 540.25,-185.62 540.25,-149.95 548.58,-109.04 554.2,-85.45"/>
<polygon fill="#63b8ff" stroke="#63b8ff" points="557.83,-86.36 556.84,-75.81 551.04,-84.67 557.83,-86.36"/>
</g>
<!-- Node17 -->
<g id="node17" class="node">
<title>Node17</title>
<g id="a_node17"><a xlink:href="v8-maybe_8h.html" target="_top" xlink:title=" ">
<polygon fill="white" stroke="#666666" points="661,-318 595.5,-318 595.5,-298.75 661,-298.75 661,-318"/>
<text text-anchor="middle" x="628.25" y="-304.5" font-family="Helvetica,sans-Serif" font-size="10.00">v8&#45;maybe.h</text>
</a>
</g>
</g>
<!-- Node1&#45;&gt;Node17 -->
<g id="edge23" class="edge">
<title>Node1&#45;&gt;Node17</title>
<path fill="none" stroke="#63b8ff" d="M555.18,-353.59C568.58,-345.48 588.49,-333.43 604.15,-323.96"/>
<polygon fill="#63b8ff" stroke="#63b8ff" points="605.51,-326.62 612.25,-318.45 601.88,-320.64 605.51,-326.62"/>
</g>
<!-- Node6&#45;&gt;Node2 -->
<g id="edge6" class="edge">
<title>Node6&#45;&gt;Node2</title>
<path fill="none" stroke="#63b8ff" d="M346.48,-298.27C315.36,-290.83 272.66,-278.9 237.25,-262.75 161.65,-228.26 81.48,-170.04 45.17,-142.32"/>
<polygon fill="#63b8ff" stroke="#63b8ff" points="47.58,-138.99 37.53,-135.66 43.31,-144.54 47.58,-138.99"/>
</g>
<!-- Node7 -->
<g id="node7" class="node">
<title>Node7</title>
<g id="a_node7"><a xlink:title=" ">
<polygon fill="#e0e0e0" stroke="#999999" points="684.75,-135.38 623.75,-135.38 623.75,-116.12 684.75,-116.12 684.75,-135.38"/>
<text text-anchor="middle" x="654.25" y="-121.88" font-family="Helvetica,sans-Serif" font-size="10.00">type_traits</text>
</a>
</g>
</g>
<!-- Node6&#45;&gt;Node7 -->
<g id="edge7" class="edge">
<title>Node6&#45;&gt;Node7</title>
<path fill="none" stroke="#63b8ff" d="M402.39,-298.42C444.86,-269.47 578.77,-178.2 632.06,-141.88"/>
<polygon fill="#63b8ff" stroke="#63b8ff" points="633.74,-144.29 640.03,-135.76 629.79,-138.5 633.74,-144.29"/>
</g>
<!-- Node8 -->
<g id="node8" class="node">
<title>Node8</title>
<g id="a_node8"><a xlink:title=" ">
<polygon fill="#e0e0e0" stroke="#999999" points="435.75,-257.12 392.75,-257.12 392.75,-237.88 435.75,-237.88 435.75,-257.12"/>
<text text-anchor="middle" x="414.25" y="-243.62" font-family="Helvetica,sans-Serif" font-size="10.00">vector</text>
</a>
</g>
</g>
<!-- Node6&#45;&gt;Node8 -->
<g id="edge8" class="edge">
<title>Node6&#45;&gt;Node8</title>
<path fill="none" stroke="#63b8ff" d="M393.05,-298.43C396.53,-290.22 401.82,-277.78 406.24,-267.37"/>
<polygon fill="#63b8ff" stroke="#63b8ff" points="409.73,-269.1 410.42,-258.53 403.29,-266.36 409.73,-269.1"/>
</g>
<!-- Node9 -->
<g id="node9" class="node">
<title>Node9</title>
<g id="a_node9"><a xlink:href="v8-handle-base_8h.html" target="_top" xlink:title=" ">
<polygon fill="white" stroke="#666666" points="336,-257.12 246.5,-257.12 246.5,-237.88 336,-237.88 336,-257.12"/>
<text text-anchor="middle" x="291.25" y="-243.62" font-family="Helvetica,sans-Serif" font-size="10.00">v8&#45;handle&#45;base.h</text>
</a>
</g>
</g>
<!-- Node6&#45;&gt;Node9 -->
<g id="edge9" class="edge">
<title>Node6&#45;&gt;Node9</title>
<path fill="none" stroke="#63b8ff" d="M374.37,-298.43C358.75,-289.05 333.96,-274.16 315.52,-263.08"/>
<polygon fill="#63b8ff" stroke="#63b8ff" points="317.65,-259.68 307.27,-257.53 314.04,-265.68 317.65,-259.68"/>
</g>
<!-- Node10 -->
<g id="node10" class="node">
<title>Node10</title>
<g id="a_node10"><a xlink:href="v8-internal_8h.html" target="_top" xlink:title=" ">
<polygon fill="white" stroke="#666666" points="342.5,-196.25 274,-196.25 274,-177 342.5,-177 342.5,-196.25"/>
<text text-anchor="middle" x="308.25" y="-182.75" font-family="Helvetica,sans-Serif" font-size="10.00">v8&#45;internal.h</text>
</a>
</g>
</g>
<!-- Node6&#45;&gt;Node10 -->
<g id="edge22" class="edge">
<title>Node6&#45;&gt;Node10</title>
<path fill="none" stroke="#63b8ff" d="M384.55,-298.3C376.96,-283.87 361.21,-255.03 345.25,-232.25 338.62,-222.79 330.5,-212.84 323.55,-204.74"/>
<polygon fill="#63b8ff" stroke="#63b8ff" points="325.57,-202.73 316.35,-197.51 320.3,-207.34 325.57,-202.73"/>
</g>
<!-- Node9&#45;&gt;Node10 -->
<g id="edge10" class="edge">
<title>Node9&#45;&gt;Node10</title>
<path fill="none" stroke="#63b8ff" d="M293.83,-237.56C296.15,-229.52 299.64,-217.43 302.61,-207.16"/>
<polygon fill="#63b8ff" stroke="#63b8ff" points="306.23,-208.23 305.64,-197.65 299.51,-206.29 306.23,-208.23"/>
</g>
<!-- Node10&#45;&gt;Node2 -->
<g id="edge11" class="edge">
<title>Node10&#45;&gt;Node2</title>
<path fill="none" stroke="#63b8ff" d="M273.87,-181.89C225.32,-176.06 134.22,-163.14 59.25,-141 57.75,-140.56 56.23,-140.07 54.71,-139.55"/>
<polygon fill="#63b8ff" stroke="#63b8ff" points="56.35,-136.05 45.76,-135.79 53.87,-142.6 56.35,-136.05"/>
</g>
<!-- Node10&#45;&gt;Node3 -->
<g id="edge12" class="edge">
<title>Node10&#45;&gt;Node3</title>
<path fill="none" stroke="#63b8ff" d="M342.18,-176.5C372.2,-168.15 417.06,-154.99 455.25,-141 456.17,-140.66 457.11,-140.31 458.05,-139.95"/>
<polygon fill="#63b8ff" stroke="#63b8ff" points="459.2,-142.86 467.15,-135.86 456.57,-136.37 459.2,-142.86"/>
</g>
<!-- Node10&#45;&gt;Node4 -->
<g id="edge17" class="edge">
<title>Node10&#45;&gt;Node4</title>
<path fill="none" stroke="#63b8ff" d="M273.59,-176.85C255.2,-170.24 234.2,-159.12 223.25,-141 216.24,-129.4 215.14,-121.37 223.25,-110.5 259.61,-61.76 443.97,-28.25 523.1,-15.9"/>
<polygon fill="#63b8ff" stroke="#63b8ff" points="523.18,-19.27 532.54,-14.29 522.12,-12.35 523.18,-19.27"/>
</g>
<!-- Node10&#45;&gt;Node7 -->
<g id="edge19" class="edge">
<title>Node10&#45;&gt;Node7</title>
<path fill="none" stroke="#63b8ff" d="M342.69,-179.76C406.78,-168.86 544.08,-145.5 613,-133.77"/>
<polygon fill="#63b8ff" stroke="#63b8ff" points="613.18,-137.12 622.45,-131.99 612.01,-130.22 613.18,-137.12"/>
</g>
<!-- Node11 -->
<g id="node11" class="node">
<title>Node11</title>
<g id="a_node11"><a xlink:title=" ">
<polygon fill="#e0e0e0" stroke="#999999" points="280,-135.38 232.5,-135.38 232.5,-116.12 280,-116.12 280,-135.38"/>
<text text-anchor="middle" x="256.25" y="-121.88" font-family="Helvetica,sans-Serif" font-size="10.00">string.h</text>
</a>
</g>
</g>
<!-- Node10&#45;&gt;Node11 -->
<g id="edge13" class="edge">
<title>Node10&#45;&gt;Node11</title>
<path fill="none" stroke="#63b8ff" d="M300.35,-176.68C292.72,-168.04 280.95,-154.71 271.48,-144"/>
<polygon fill="#63b8ff" stroke="#63b8ff" points="274.47,-141.95 265.22,-136.78 269.22,-146.59 274.47,-141.95"/>
</g>
<!-- Node12 -->
<g id="node12" class="node">
<title>Node12</title>
<g id="a_node12"><a xlink:title=" ">
<polygon fill="#e0e0e0" stroke="#999999" points="381.88,-135.38 336.62,-135.38 336.62,-116.12 381.88,-116.12 381.88,-135.38"/>
<text text-anchor="middle" x="359.25" y="-121.88" font-family="Helvetica,sans-Serif" font-size="10.00">atomic</text>
</a>
</g>
</g>
<!-- Node10&#45;&gt;Node12 -->
<g id="edge14" class="edge">
<title>Node10&#45;&gt;Node12</title>
<path fill="none" stroke="#63b8ff" d="M316,-176.68C323.48,-168.04 335.03,-154.71 344.31,-144"/>
<polygon fill="#63b8ff" stroke="#63b8ff" points="347.53,-146.63 351.43,-136.78 342.24,-142.04 347.53,-146.63"/>
</g>
<!-- Node13 -->
<g id="node13" class="node">
<title>Node13</title>
<g id="a_node13"><a xlink:title=" ">
<polygon fill="#e0e0e0" stroke="#999999" points="446.25,-135.38 400.25,-135.38 400.25,-116.12 446.25,-116.12 446.25,-135.38"/>
<text text-anchor="middle" x="423.25" y="-121.88" font-family="Helvetica,sans-Serif" font-size="10.00">iterator</text>
</a>
</g>
</g>
<!-- Node10&#45;&gt;Node13 -->
<g id="edge15" class="edge">
<title>Node10&#45;&gt;Node13</title>
<path fill="none" stroke="#63b8ff" d="M325.72,-176.68C344.38,-167.13 374.2,-151.86 395.96,-140.72"/>
<polygon fill="#63b8ff" stroke="#63b8ff" points="397.31,-143.45 404.62,-135.78 394.12,-137.22 397.31,-143.45"/>
</g>
<!-- Node14 -->
<g id="node14" class="node">
<title>Node14</title>
<g id="a_node14"><a xlink:title=" ">
<polygon fill="#e0e0e0" stroke="#999999" points="107.88,-135.38 68.62,-135.38 68.62,-116.12 107.88,-116.12 107.88,-135.38"/>
<text text-anchor="middle" x="88.25" y="-121.88" font-family="Helvetica,sans-Serif" font-size="10.00">limits</text>
</a>
</g>
</g>
<!-- Node10&#45;&gt;Node14 -->
<g id="edge16" class="edge">
<title>Node10&#45;&gt;Node14</title>
<path fill="none" stroke="#63b8ff" d="M273.77,-180.01C234.99,-173.14 170.48,-160.02 117.25,-141 116.5,-140.73 115.74,-140.45 114.98,-140.15"/>
<polygon fill="#63b8ff" stroke="#63b8ff" points="116.71,-136.65 106.15,-135.85 113.9,-143.07 116.71,-136.65"/>
</g>
<!-- Node15 -->
<g id="node15" class="node">
<title>Node15</title>
<g id="a_node15"><a xlink:title=" ">
<polygon fill="#e0e0e0" stroke="#999999" points="176.12,-135.38 126.38,-135.38 126.38,-116.12 176.12,-116.12 176.12,-135.38"/>
<text text-anchor="middle" x="151.25" y="-121.88" font-family="Helvetica,sans-Serif" font-size="10.00">optional</text>
</a>
</g>
</g>
<!-- Node10&#45;&gt;Node15 -->
<g id="edge18" class="edge">
<title>Node10&#45;&gt;Node15</title>
<path fill="none" stroke="#63b8ff" d="M284.06,-176.55C257.67,-166.66 215.22,-150.74 185.43,-139.57"/>
<polygon fill="#63b8ff" stroke="#63b8ff" points="187.06,-136.06 176.46,-135.83 184.6,-142.62 187.06,-136.06"/>
</g>
<!-- Node10&#45;&gt;Node16 -->
<g id="edge20" class="edge">
<title>Node10&#45;&gt;Node16</title>
<path fill="none" stroke="#63b8ff" d="M307.68,-176.72C307.2,-160.93 308.66,-128.05 327.25,-110.5 354.29,-84.98 459.41,-73.22 518.44,-68.54"/>
<polygon fill="#63b8ff" stroke="#63b8ff" points="518.54,-71.96 528.24,-67.72 518.01,-64.98 518.54,-71.96"/>
</g>
<!-- Node16&#45;&gt;Node4 -->
<g id="edge21" class="edge">
<title>Node16&#45;&gt;Node4</title>
<path fill="none" stroke="#63b8ff" d="M559.25,-55.08C559.25,-48.42 559.25,-38.99 559.25,-30.53"/>
<polygon fill="#63b8ff" stroke="#63b8ff" points="562.75,-30.61 559.25,-20.61 555.75,-30.61 562.75,-30.61"/>
</g>
<!-- Node17&#45;&gt;Node5 -->
<g id="edge25" class="edge">
<title>Node17&#45;&gt;Node5</title>
<path fill="none" stroke="#63b8ff" d="M661.43,-303.85C702.26,-298.65 773.07,-286.83 829.25,-262.75 877.97,-241.87 892.96,-235.8 928.25,-196.25 941.52,-181.38 951.4,-160.75 957.42,-145.83"/>
<polygon fill="#63b8ff" stroke="#63b8ff" points="960.98,-147.31 961.26,-136.72 954.43,-144.83 960.98,-147.31"/>
</g>
<!-- Node17&#45;&gt;Node7 -->
<g id="edge24" class="edge">
<title>Node17&#45;&gt;Node7</title>
<path fill="none" stroke="#63b8ff" d="M629.5,-298.66C633.47,-271.13 645.79,-185.53 651.41,-146.5"/>
<polygon fill="#63b8ff" stroke="#63b8ff" points="654.99,-147.2 652.95,-136.8 648.06,-146.2 654.99,-147.2"/>
</g>
<!-- Node17&#45;&gt;Node10 -->
<g id="edge36" class="edge">
<title>Node17&#45;&gt;Node10</title>
<path fill="none" stroke="#63b8ff" d="M607.59,-298.3C573.9,-283.64 504.89,-254.17 445.25,-232.25 413.12,-220.44 376.2,-208.51 348.78,-199.96"/>
<polygon fill="#63b8ff" stroke="#63b8ff" points="349.99,-196.35 339.4,-196.74 347.92,-203.04 349.99,-196.35"/>
</g>
<!-- Node17&#45;&gt;Node16 -->
<g id="edge37" class="edge">
<title>Node17&#45;&gt;Node16</title>
<path fill="none" stroke="#63b8ff" d="M625.71,-298.49C615.72,-263.51 578.92,-134.73 564.81,-85.34"/>
<polygon fill="#63b8ff" stroke="#63b8ff" points="567.92,-84.49 561.81,-75.84 561.19,-86.41 567.92,-84.49"/>
</g>
<!-- Node18 -->
<g id="node18" class="node">
<title>Node18</title>
<g id="a_node18"><a xlink:href="conditional-stack-allocated_8h.html" target="_top" xlink:title=" ">
<polygon fill="white" stroke="#666666" points="820.38,-262.75 694.12,-262.75 694.12,-232.25 820.38,-232.25 820.38,-262.75"/>
<text text-anchor="start" x="702.12" y="-249.25" font-family="Helvetica,sans-Serif" font-size="10.00">cppgc/internal/conditional</text>
<text text-anchor="middle" x="757.25" y="-238" font-family="Helvetica,sans-Serif" font-size="10.00">&#45;stack&#45;allocated.h</text>
</a>
</g>
</g>
<!-- Node17&#45;&gt;Node18 -->
<g id="edge26" class="edge">
<title>Node17&#45;&gt;Node18</title>
<path fill="none" stroke="#63b8ff" d="M648.12,-298.3C665.9,-290.19 692.54,-278.03 715.05,-267.76"/>
<polygon fill="#63b8ff" stroke="#63b8ff" points="716.41,-270.53 724.05,-263.19 713.5,-264.16 716.41,-270.53"/>
</g>
<!-- Node18&#45;&gt;Node7 -->
<g id="edge27" class="edge">
<title>Node18&#45;&gt;Node7</title>
<path fill="none" stroke="#63b8ff" d="M743.75,-232.18C734.47,-222.22 721.94,-208.58 711.25,-196.25 695.99,-178.64 679.14,-157.94 667.75,-143.73"/>
<polygon fill="#63b8ff" stroke="#63b8ff" points="670.1,-142.06 661.12,-136.43 664.63,-146.43 670.1,-142.06"/>
</g>
<!-- Node19 -->
<g id="node19" class="node">
<title>Node19</title>
<g id="a_node19"><a xlink:href="macros_8h.html" target="_top" xlink:title=" ">
<polygon fill="white" stroke="#666666" points="918.75,-196.25 833.75,-196.25 833.75,-177 918.75,-177 918.75,-196.25"/>
<text text-anchor="middle" x="876.25" y="-182.75" font-family="Helvetica,sans-Serif" font-size="10.00">cppgc/macros.h</text>
</a>
</g>
</g>
<!-- Node18&#45;&gt;Node19 -->
<g id="edge28" class="edge">
<title>Node18&#45;&gt;Node19</title>
<path fill="none" stroke="#63b8ff" d="M786.97,-231.8C805.7,-222.53 829.74,-210.63 848.16,-201.52"/>
<polygon fill="#63b8ff" stroke="#63b8ff" points="849.59,-204.23 857,-196.65 846.49,-197.95 849.59,-204.23"/>
</g>
<!-- Node22 -->
<g id="node22" class="node">
<title>Node22</title>
<g id="a_node22"><a xlink:href="type-traits_8h.html" target="_top" xlink:title=" ">
<polygon fill="white" stroke="#666666" points="816,-196.25 720.5,-196.25 720.5,-177 816,-177 816,-196.25"/>
<text text-anchor="middle" x="768.25" y="-182.75" font-family="Helvetica,sans-Serif" font-size="10.00">cppgc/type&#45;traits.h</text>
</a>
</g>
</g>
<!-- Node18&#45;&gt;Node22 -->
<g id="edge32" class="edge">
<title>Node18&#45;&gt;Node22</title>
<path fill="none" stroke="#63b8ff" d="M759.97,-231.95C761.35,-224.53 763.06,-215.41 764.56,-207.38"/>
<polygon fill="#63b8ff" stroke="#63b8ff" points="768.16,-208.17 766.55,-197.7 761.28,-206.89 768.16,-208.17"/>
</g>
<!-- Node20 -->
<g id="node20" class="node">
<title>Node20</title>
<g id="a_node20"><a xlink:title=" ">
<polygon fill="#e0e0e0" stroke="#999999" points="792.38,-135.38 744.12,-135.38 744.12,-116.12 792.38,-116.12 792.38,-135.38"/>
<text text-anchor="middle" x="768.25" y="-121.88" font-family="Helvetica,sans-Serif" font-size="10.00">cstddef</text>
</a>
</g>
</g>
<!-- Node19&#45;&gt;Node20 -->
<g id="edge29" class="edge">
<title>Node19&#45;&gt;Node20</title>
<path fill="none" stroke="#63b8ff" d="M859.85,-176.68C842.48,-167.22 814.82,-152.14 794.43,-141.02"/>
<polygon fill="#63b8ff" stroke="#63b8ff" points="796.26,-137.49 785.81,-135.78 792.91,-143.64 796.26,-137.49"/>
</g>
<!-- Node21 -->
<g id="node21" class="node">
<title>Node21</title>
<g id="a_node21"><a xlink:href="compiler-specific_8h.html" target="_top" xlink:title=" ">
<polygon fill="white" stroke="#666666" points="926.5,-141 810,-141 810,-110.5 926.5,-110.5 926.5,-141"/>
<text text-anchor="start" x="818" y="-127.5" font-family="Helvetica,sans-Serif" font-size="10.00">cppgc/internal/compiler</text>
<text text-anchor="middle" x="868.25" y="-116.25" font-family="Helvetica,sans-Serif" font-size="10.00">&#45;specific.h</text>
</a>
</g>
</g>
<!-- Node19&#45;&gt;Node21 -->
<g id="edge30" class="edge">
<title>Node19&#45;&gt;Node21</title>
<path fill="none" stroke="#63b8ff" d="M875.03,-176.68C874.14,-170.08 872.87,-160.74 871.67,-151.93"/>
<polygon fill="#63b8ff" stroke="#63b8ff" points="875.04,-151.72 870.22,-142.28 868.1,-152.66 875.04,-151.72"/>
</g>
<!-- Node21&#45;&gt;Node16 -->
<g id="edge31" class="edge">
<title>Node21&#45;&gt;Node16</title>
<path fill="none" stroke="#63b8ff" d="M809.8,-112.22C806.91,-111.63 804.05,-111.06 801.25,-110.5 730.69,-96.49 648.25,-81.61 600.09,-73.06"/>
<polygon fill="#63b8ff" stroke="#63b8ff" points="600.94,-69.48 590.48,-71.18 599.72,-76.37 600.94,-69.48"/>
</g>
<!-- Node22&#45;&gt;Node5 -->
<g id="edge35" class="edge">
<title>Node22&#45;&gt;Node5</title>
<path fill="none" stroke="#63b8ff" d="M811.53,-176.51C845.68,-168.74 894.23,-156.39 935.25,-141 936,-140.72 936.75,-140.43 937.51,-140.12"/>
<polygon fill="#63b8ff" stroke="#63b8ff" points="938.61,-143.02 946.32,-135.76 935.76,-136.62 938.61,-143.02"/>
</g>
<!-- Node22&#45;&gt;Node7 -->
<g id="edge34" class="edge">
<title>Node22&#45;&gt;Node7</title>
<path fill="none" stroke="#63b8ff" d="M750.94,-176.68C732.44,-167.13 702.87,-151.86 681.3,-140.72"/>
<polygon fill="#63b8ff" stroke="#63b8ff" points="683.22,-137.25 672.73,-135.78 680.01,-143.47 683.22,-137.25"/>
</g>
<!-- Node22&#45;&gt;Node20 -->
<g id="edge33" class="edge">
<title>Node22&#45;&gt;Node20</title>
<path fill="none" stroke="#63b8ff" d="M768.25,-176.68C768.25,-168.73 768.25,-156.81 768.25,-146.62"/>
<polygon fill="#63b8ff" stroke="#63b8ff" points="771.75,-146.78 768.25,-136.78 764.75,-146.78 771.75,-146.78"/>
</g>
</g>
</svg>
