<?xml version="1.0" encoding="UTF-8" standalone="no"?>
<!DOCTYPE svg PUBLIC "-//W3C//DTD SVG 1.1//EN"
 "http://www.w3.org/Graphics/SVG/1.1/DTD/svg11.dtd">
<!-- Generated by graphviz version 2.49.3 (20211027.1534)
 -->
<!-- Title: include/cppgc/allocation.h Pages: 1 -->
<svg width="1028pt" height="274pt"
 viewBox="0.00 0.00 1028.15 274.00" xmlns="http://www.w3.org/2000/svg" xmlns:xlink="http://www.w3.org/1999/xlink">
<g id="graph0" class="graph" transform="scale(1 1) rotate(0) translate(4 270)">
<title>include/cppgc/allocation.h</title>
<polygon fill="white" stroke="transparent" points="-4,4 -4,-270 1024.15,-270 1024.15,4 -4,4"/>
<!-- Node1 -->
<g id="node1" class="node">
<title>Node1</title>
<g id="a_node1"><a xlink:title=" ">
<polygon fill="#bfbfbf" stroke="black" points="289.15,-246.5 289.15,-265.5 417.15,-265.5 417.15,-246.5 289.15,-246.5"/>
<text text-anchor="middle" x="353.15" y="-253.5" font-family="Helvetica,sans-Serif" font-size="10.00">include/cppgc/allocation.h</text>
</a>
</g>
</g>
<!-- Node2 -->
<g id="node2" class="node">
<title>Node2</title>
<g id="a_node2"><a xlink:title=" ">
<polygon fill="white" stroke="#bfbfbf" points="16.15,-0.5 16.15,-19.5 64.15,-19.5 64.15,-0.5 16.15,-0.5"/>
<text text-anchor="middle" x="40.15" y="-7.5" font-family="Helvetica,sans-Serif" font-size="10.00">stdint.h</text>
</a>
</g>
</g>
<!-- Node1&#45;&gt;Node2 -->
<g id="edge1" class="edge">
<title>Node1&#45;&gt;Node2</title>
<path fill="none" stroke="midnightblue" d="M289.15,-255.84C202.87,-255.45 56.1,-248.88 22.15,-210 -23.1,-158.17 12.58,-67.19 30.94,-28.84"/>
<polygon fill="midnightblue" stroke="midnightblue" points="34.27,-30.01 35.58,-19.5 28,-26.9 34.27,-30.01"/>
</g>
<!-- Node3 -->
<g id="node3" class="node">
<title>Node3</title>
<g id="a_node3"><a xlink:title=" ">
<polygon fill="white" stroke="#bfbfbf" points="974.15,-129 974.15,-148 1020.15,-148 1020.15,-129 974.15,-129"/>
<text text-anchor="middle" x="997.15" y="-136" font-family="Helvetica,sans-Serif" font-size="10.00">atomic</text>
</a>
</g>
</g>
<!-- Node1&#45;&gt;Node3 -->
<g id="edge2" class="edge">
<title>Node1&#45;&gt;Node3</title>
<path fill="none" stroke="midnightblue" d="M417.21,-250.18C494.62,-243.75 628.63,-230.73 742.15,-210 842.68,-191.64 868.67,-187.67 965.15,-154 966.82,-153.42 968.51,-152.79 970.21,-152.12"/>
<polygon fill="midnightblue" stroke="midnightblue" points="971.94,-155.18 979.78,-148.06 969.21,-148.74 971.94,-155.18"/>
</g>
<!-- Node4 -->
<g id="node4" class="node">
<title>Node4</title>
<g id="a_node4"><a xlink:href="custom-space_8h.html" target="_top" xlink:title=" ">
<polygon fill="white" stroke="black" points="31.65,-190.5 31.65,-209.5 146.65,-209.5 146.65,-190.5 31.65,-190.5"/>
<text text-anchor="middle" x="89.15" y="-197.5" font-family="Helvetica,sans-Serif" font-size="10.00">cppgc/custom&#45;space.h</text>
</a>
</g>
</g>
<!-- Node1&#45;&gt;Node4 -->
<g id="edge3" class="edge">
<title>Node1&#45;&gt;Node4</title>
<path fill="none" stroke="midnightblue" d="M311.32,-246.44C265.08,-236.98 190.54,-221.74 140.72,-211.55"/>
<polygon fill="midnightblue" stroke="midnightblue" points="141.29,-208.09 130.79,-209.52 139.89,-214.95 141.29,-208.09"/>
</g>
<!-- Node6 -->
<g id="node6" class="node">
<title>Node6</title>
<g id="a_node6"><a xlink:href="garbage-collected_8h.html" target="_top" xlink:title=" ">
<polygon fill="white" stroke="black" points="378.15,-190.5 378.15,-209.5 508.15,-209.5 508.15,-190.5 378.15,-190.5"/>
<text text-anchor="middle" x="443.15" y="-197.5" font-family="Helvetica,sans-Serif" font-size="10.00">cppgc/garbage&#45;collected.h</text>
</a>
</g>
</g>
<!-- Node1&#45;&gt;Node6 -->
<g id="edge5" class="edge">
<title>Node1&#45;&gt;Node6</title>
<path fill="none" stroke="midnightblue" d="M367.61,-246.32C381.65,-237.9 403.2,-224.97 419.7,-215.07"/>
<polygon fill="midnightblue" stroke="midnightblue" points="421.96,-217.8 428.73,-209.65 418.35,-211.8 421.96,-217.8"/>
</g>
<!-- Node8 -->
<g id="node8" class="node">
<title>Node8</title>
<g id="a_node8"><a xlink:href="api-constants_8h.html" target="_top" xlink:title=" ">
<polygon fill="white" stroke="black" points="69.65,-56.5 69.65,-86.5 162.65,-86.5 162.65,-56.5 69.65,-56.5"/>
<text text-anchor="start" x="77.65" y="-74.5" font-family="Helvetica,sans-Serif" font-size="10.00">cppgc/internal/api</text>
<text text-anchor="middle" x="116.15" y="-63.5" font-family="Helvetica,sans-Serif" font-size="10.00">&#45;constants.h</text>
</a>
</g>
</g>
<!-- Node1&#45;&gt;Node8 -->
<g id="edge26" class="edge">
<title>Node1&#45;&gt;Node8</title>
<path fill="none" stroke="midnightblue" d="M335.79,-246.45C304.63,-230.64 237.9,-194.74 189.15,-154 167.74,-136.1 146.85,-111.89 132.95,-94.52"/>
<polygon fill="midnightblue" stroke="midnightblue" points="135.65,-92.29 126.71,-86.6 130.15,-96.62 135.65,-92.29"/>
</g>
<!-- Node17 -->
<g id="node17" class="node">
<title>Node17</title>
<g id="a_node17"><a xlink:href="gc-info_8h.html" target="_top" xlink:title=" ">
<polygon fill="white" stroke="black" points="615.65,-190.5 615.65,-209.5 732.65,-209.5 732.65,-190.5 615.65,-190.5"/>
<text text-anchor="middle" x="674.15" y="-197.5" font-family="Helvetica,sans-Serif" font-size="10.00">cppgc/internal/gc&#45;info.h</text>
</a>
</g>
</g>
<!-- Node1&#45;&gt;Node17 -->
<g id="edge27" class="edge">
<title>Node1&#45;&gt;Node17</title>
<path fill="none" stroke="midnightblue" d="M404.02,-246.44C460.84,-236.89 552.77,-221.42 613.34,-211.23"/>
<polygon fill="midnightblue" stroke="midnightblue" points="614.25,-214.63 623.53,-209.52 613.09,-207.72 614.25,-214.63"/>
</g>
<!-- Node5 -->
<g id="node5" class="node">
<title>Node5</title>
<g id="a_node5"><a xlink:title=" ">
<polygon fill="white" stroke="#bfbfbf" points="82.65,-0.5 82.65,-19.5 133.65,-19.5 133.65,-0.5 82.65,-0.5"/>
<text text-anchor="middle" x="108.15" y="-7.5" font-family="Helvetica,sans-Serif" font-size="10.00">stddef.h</text>
</a>
</g>
</g>
<!-- Node4&#45;&gt;Node5 -->
<g id="edge4" class="edge">
<title>Node4&#45;&gt;Node5</title>
<path fill="none" stroke="midnightblue" d="M83.89,-190.25C70.83,-167.3 39.41,-103.88 60.15,-56 65.42,-43.84 75.77,-33.46 85.52,-25.74"/>
<polygon fill="midnightblue" stroke="midnightblue" points="87.8,-28.41 93.78,-19.67 83.65,-22.77 87.8,-28.41"/>
</g>
<!-- Node7 -->
<g id="node7" class="node">
<title>Node7</title>
<g id="a_node7"><a xlink:title=" ">
<polygon fill="white" stroke="#bfbfbf" points="681.15,-0.5 681.15,-19.5 743.15,-19.5 743.15,-0.5 681.15,-0.5"/>
<text text-anchor="middle" x="712.15" y="-7.5" font-family="Helvetica,sans-Serif" font-size="10.00">type_traits</text>
</a>
</g>
</g>
<!-- Node6&#45;&gt;Node7 -->
<g id="edge6" class="edge">
<title>Node6&#45;&gt;Node7</title>
<path fill="none" stroke="midnightblue" d="M461.58,-190.4C479.16,-181.93 506.14,-168.23 528.15,-154 592.72,-112.27 662.81,-53.7 694.65,-26.28"/>
<polygon fill="midnightblue" stroke="midnightblue" points="696.97,-28.91 702.24,-19.72 692.39,-23.61 696.97,-28.91"/>
</g>
<!-- Node6&#45;&gt;Node8 -->
<g id="edge7" class="edge">
<title>Node6&#45;&gt;Node8</title>
<path fill="none" stroke="midnightblue" d="M378.14,-191.94C335.56,-185.67 279.44,-174.25 233.15,-154 211.24,-144.41 208.77,-136.69 189.15,-123 174.64,-112.87 158.46,-101.66 145.03,-92.39"/>
<polygon fill="midnightblue" stroke="midnightblue" points="146.86,-89.4 136.64,-86.6 142.88,-95.16 146.86,-89.4"/>
</g>
<!-- Node10 -->
<g id="node10" class="node">
<title>Node10</title>
<g id="a_node10"><a xlink:href="platform_8h.html" target="_top" xlink:title=" ">
<polygon fill="white" stroke="black" points="241.65,-129 241.65,-148 330.65,-148 330.65,-129 241.65,-129"/>
<text text-anchor="middle" x="286.15" y="-136" font-family="Helvetica,sans-Serif" font-size="10.00">cppgc/platform.h</text>
</a>
</g>
</g>
<!-- Node6&#45;&gt;Node10 -->
<g id="edge11" class="edge">
<title>Node6&#45;&gt;Node10</title>
<path fill="none" stroke="midnightblue" d="M420.66,-190.48C393.85,-180.31 348.84,-163.26 318.35,-151.7"/>
<polygon fill="midnightblue" stroke="midnightblue" points="319.2,-148.28 308.61,-148.01 316.72,-154.83 319.2,-148.28"/>
</g>
<!-- Node15 -->
<g id="node15" class="node">
<title>Node15</title>
<g id="a_node15"><a xlink:href="trace-trait_8h.html" target="_top" xlink:title=" ">
<polygon fill="white" stroke="black" points="626.65,-129 626.65,-148 721.65,-148 721.65,-129 626.65,-129"/>
<text text-anchor="middle" x="674.15" y="-136" font-family="Helvetica,sans-Serif" font-size="10.00">cppgc/trace&#45;trait.h</text>
</a>
</g>
</g>
<!-- Node6&#45;&gt;Node15 -->
<g id="edge20" class="edge">
<title>Node6&#45;&gt;Node15</title>
<path fill="none" stroke="midnightblue" d="M476.25,-190.48C517.08,-179.96 586.56,-162.06 631.39,-150.51"/>
<polygon fill="midnightblue" stroke="midnightblue" points="632.31,-153.89 641.12,-148.01 630.56,-147.11 632.31,-153.89"/>
</g>
<!-- Node16 -->
<g id="node16" class="node">
<title>Node16</title>
<g id="a_node16"><a xlink:href="type-traits_8h.html" target="_top" xlink:title=" ">
<polygon fill="white" stroke="black" points="702.15,-62 702.15,-81 798.15,-81 798.15,-62 702.15,-62"/>
<text text-anchor="middle" x="750.15" y="-69" font-family="Helvetica,sans-Serif" font-size="10.00">cppgc/type&#45;traits.h</text>
</a>
</g>
</g>
<!-- Node6&#45;&gt;Node16 -->
<g id="edge25" class="edge">
<title>Node6&#45;&gt;Node16</title>
<path fill="none" stroke="midnightblue" d="M508.48,-197.07C583.32,-193.48 699.68,-183.23 731.15,-154 748.26,-138.12 751.38,-110.07 751.33,-91.38"/>
<polygon fill="midnightblue" stroke="midnightblue" points="754.82,-91.03 750.99,-81.15 747.82,-91.26 754.82,-91.03"/>
</g>
<!-- Node8&#45;&gt;Node2 -->
<g id="edge9" class="edge">
<title>Node8&#45;&gt;Node2</title>
<path fill="none" stroke="midnightblue" d="M98.14,-56.4C86.42,-47.22 71.14,-35.26 59.21,-25.92"/>
<polygon fill="midnightblue" stroke="midnightblue" points="61.24,-23.07 51.21,-19.66 56.93,-28.58 61.24,-23.07"/>
</g>
<!-- Node8&#45;&gt;Node5 -->
<g id="edge8" class="edge">
<title>Node8&#45;&gt;Node5</title>
<path fill="none" stroke="midnightblue" d="M114.26,-56.4C113.18,-48.38 111.82,-38.23 110.65,-29.57"/>
<polygon fill="midnightblue" stroke="midnightblue" points="114.12,-29.1 109.32,-19.66 107.18,-30.04 114.12,-29.1"/>
</g>
<!-- Node9 -->
<g id="node9" class="node">
<title>Node9</title>
<g id="a_node9"><a xlink:href="v8config_8h.html" target="_top" xlink:title=" ">
<polygon fill="white" stroke="black" points="345.15,-0.5 345.15,-19.5 405.15,-19.5 405.15,-0.5 345.15,-0.5"/>
<text text-anchor="middle" x="375.15" y="-7.5" font-family="Helvetica,sans-Serif" font-size="10.00">v8config.h</text>
</a>
</g>
</g>
<!-- Node8&#45;&gt;Node9 -->
<g id="edge10" class="edge">
<title>Node8&#45;&gt;Node9</title>
<path fill="none" stroke="midnightblue" d="M162.93,-58.02C165.71,-57.33 168.47,-56.65 171.15,-56 241.13,-39.15 261.29,-36.63 335.15,-20.2"/>
<polygon fill="midnightblue" stroke="midnightblue" points="335.93,-23.61 344.93,-18.01 334.41,-16.78 335.93,-23.61"/>
</g>
<!-- Node10&#45;&gt;Node9 -->
<g id="edge19" class="edge">
<title>Node10&#45;&gt;Node9</title>
<path fill="none" stroke="midnightblue" d="M285.69,-128.78C285.28,-112.86 286.46,-78.64 302.15,-56 311.96,-41.85 327.81,-31.3 342.24,-23.98"/>
<polygon fill="midnightblue" stroke="midnightblue" points="343.89,-27.07 351.44,-19.64 340.9,-20.75 343.89,-27.07"/>
</g>
<!-- Node11 -->
<g id="node11" class="node">
<title>Node11</title>
<g id="a_node11"><a xlink:href="v8-platform_8h.html" target="_top" xlink:title=" ">
<polygon fill="white" stroke="black" points="180.65,-62 180.65,-81 253.65,-81 253.65,-62 180.65,-62"/>
<text text-anchor="middle" x="217.15" y="-69" font-family="Helvetica,sans-Serif" font-size="10.00">v8&#45;platform.h</text>
</a>
</g>
</g>
<!-- Node10&#45;&gt;Node11 -->
<g id="edge12" class="edge">
<title>Node10&#45;&gt;Node11</title>
<path fill="none" stroke="midnightblue" d="M276.85,-128.73C265.88,-118.4 247.45,-101.04 233.96,-88.33"/>
<polygon fill="midnightblue" stroke="midnightblue" points="235.99,-85.44 226.31,-81.13 231.19,-90.53 235.99,-85.44"/>
</g>
<!-- Node11&#45;&gt;Node2 -->
<g id="edge14" class="edge">
<title>Node11&#45;&gt;Node2</title>
<path fill="none" stroke="midnightblue" d="M191.79,-61.98C160.82,-51.56 108.32,-33.91 73.94,-22.36"/>
<polygon fill="midnightblue" stroke="midnightblue" points="74.92,-19 64.33,-19.13 72.69,-25.63 74.92,-19"/>
</g>
<!-- Node11&#45;&gt;Node5 -->
<g id="edge13" class="edge">
<title>Node11&#45;&gt;Node5</title>
<path fill="none" stroke="midnightblue" d="M201.54,-61.98C183.57,-52.17 153.83,-35.93 132.75,-24.42"/>
<polygon fill="midnightblue" stroke="midnightblue" points="134.2,-21.23 123.74,-19.51 130.84,-27.37 134.2,-21.23"/>
</g>
<!-- Node11&#45;&gt;Node9 -->
<g id="edge18" class="edge">
<title>Node11&#45;&gt;Node9</title>
<path fill="none" stroke="midnightblue" d="M239.79,-61.98C266.89,-51.77 312.46,-34.61 343.16,-23.05"/>
<polygon fill="midnightblue" stroke="midnightblue" points="344.43,-26.31 352.56,-19.51 341.97,-19.76 344.43,-26.31"/>
</g>
<!-- Node12 -->
<g id="node12" class="node">
<title>Node12</title>
<g id="a_node12"><a xlink:title=" ">
<polygon fill="white" stroke="#bfbfbf" points="151.65,-0.5 151.65,-19.5 198.65,-19.5 198.65,-0.5 151.65,-0.5"/>
<text text-anchor="middle" x="175.15" y="-7.5" font-family="Helvetica,sans-Serif" font-size="10.00">stdlib.h</text>
</a>
</g>
</g>
<!-- Node11&#45;&gt;Node12 -->
<g id="edge15" class="edge">
<title>Node11&#45;&gt;Node12</title>
<path fill="none" stroke="midnightblue" d="M211.14,-61.98C204.9,-53.14 194.98,-39.09 187.14,-27.98"/>
<polygon fill="midnightblue" stroke="midnightblue" points="189.79,-25.66 181.16,-19.51 184.07,-29.7 189.79,-25.66"/>
</g>
<!-- Node13 -->
<g id="node13" class="node">
<title>Node13</title>
<g id="a_node13"><a xlink:title=" ">
<polygon fill="white" stroke="#bfbfbf" points="216.65,-0.5 216.65,-19.5 267.65,-19.5 267.65,-0.5 216.65,-0.5"/>
<text text-anchor="middle" x="242.15" y="-7.5" font-family="Helvetica,sans-Serif" font-size="10.00">memory</text>
</a>
</g>
</g>
<!-- Node11&#45;&gt;Node13 -->
<g id="edge16" class="edge">
<title>Node11&#45;&gt;Node13</title>
<path fill="none" stroke="midnightblue" d="M220.74,-61.98C224.34,-53.4 230,-39.93 234.6,-28.98"/>
<polygon fill="midnightblue" stroke="midnightblue" points="237.93,-30.08 238.58,-19.51 231.48,-27.37 237.93,-30.08"/>
</g>
<!-- Node14 -->
<g id="node14" class="node">
<title>Node14</title>
<g id="a_node14"><a xlink:title=" ">
<polygon fill="white" stroke="#bfbfbf" points="285.65,-0.5 285.65,-19.5 326.65,-19.5 326.65,-0.5 285.65,-0.5"/>
<text text-anchor="middle" x="306.15" y="-7.5" font-family="Helvetica,sans-Serif" font-size="10.00">string</text>
</a>
</g>
</g>
<!-- Node11&#45;&gt;Node14 -->
<g id="edge17" class="edge">
<title>Node11&#45;&gt;Node14</title>
<path fill="none" stroke="midnightblue" d="M229.91,-61.98C244.18,-52.43 267.55,-36.81 284.66,-25.37"/>
<polygon fill="midnightblue" stroke="midnightblue" points="287.06,-27.98 293.43,-19.51 283.17,-22.16 287.06,-27.98"/>
</g>
<!-- Node15&#45;&gt;Node7 -->
<g id="edge21" class="edge">
<title>Node15&#45;&gt;Node7</title>
<path fill="none" stroke="midnightblue" d="M675.68,-128.8C678.42,-113.75 684.71,-81.98 693.15,-56 696.1,-46.93 700.13,-37.14 703.72,-29.01"/>
<polygon fill="midnightblue" stroke="midnightblue" points="706.96,-30.35 707.91,-19.79 700.59,-27.45 706.96,-30.35"/>
</g>
<!-- Node15&#45;&gt;Node9 -->
<g id="edge24" class="edge">
<title>Node15&#45;&gt;Node9</title>
<path fill="none" stroke="midnightblue" d="M666.27,-128.82C650.5,-112.02 613.22,-75.02 574.15,-56 522.63,-30.91 456.75,-19.56 415.24,-14.61"/>
<polygon fill="midnightblue" stroke="midnightblue" points="415.56,-11.12 405.23,-13.48 414.78,-18.08 415.56,-11.12"/>
</g>
<!-- Node15&#45;&gt;Node16 -->
<g id="edge22" class="edge">
<title>Node15&#45;&gt;Node16</title>
<path fill="none" stroke="midnightblue" d="M684.4,-128.73C696.6,-118.31 717.17,-100.71 732.06,-87.97"/>
<polygon fill="midnightblue" stroke="midnightblue" points="734.74,-90.29 740.07,-81.13 730.19,-84.97 734.74,-90.29"/>
</g>
<!-- Node16&#45;&gt;Node7 -->
<g id="edge23" class="edge">
<title>Node16&#45;&gt;Node7</title>
<path fill="none" stroke="midnightblue" d="M744.71,-61.98C739.07,-53.14 730.09,-39.09 723,-27.98"/>
<polygon fill="midnightblue" stroke="midnightblue" points="725.92,-26.05 717.59,-19.51 720.02,-29.82 725.92,-26.05"/>
</g>
<!-- Node17&#45;&gt;Node3 -->
<g id="edge28" class="edge">
<title>Node17&#45;&gt;Node3</title>
<path fill="none" stroke="midnightblue" d="M732.88,-194.64C792.39,-189.12 886.64,-177.38 965.15,-154 967.08,-153.43 969.05,-152.76 971,-152.03"/>
<polygon fill="midnightblue" stroke="midnightblue" points="972.66,-155.13 980.54,-148.06 969.97,-148.67 972.66,-155.13"/>
</g>
<!-- Node17&#45;&gt;Node9 -->
<g id="edge39" class="edge">
<title>Node17&#45;&gt;Node9</title>
<path fill="none" stroke="midnightblue" d="M661.91,-190.42C650.1,-181.87 632.01,-168.01 618.15,-154 579.2,-114.62 587.34,-86.58 541.15,-56 502.97,-30.72 450.96,-19.58 415.4,-14.71"/>
<polygon fill="midnightblue" stroke="midnightblue" points="415.73,-11.23 405.37,-13.44 414.86,-18.17 415.73,-11.23"/>
</g>
<!-- Node17&#45;&gt;Node15 -->
<g id="edge38" class="edge">
<title>Node17&#45;&gt;Node15</title>
<path fill="none" stroke="midnightblue" d="M674.15,-190.48C674.15,-182.08 674.15,-168.98 674.15,-158.16"/>
<polygon fill="midnightblue" stroke="midnightblue" points="677.65,-158.01 674.15,-148.01 670.65,-158.01 677.65,-158.01"/>
</g>
<!-- Node18 -->
<g id="node18" class="node">
<title>Node18</title>
<g id="a_node18"><a xlink:title=" ">
<polygon fill="white" stroke="#bfbfbf" points="778.15,-129 778.15,-148 824.15,-148 824.15,-129 778.15,-129"/>
<text text-anchor="middle" x="801.15" y="-136" font-family="Helvetica,sans-Serif" font-size="10.00">cstdint</text>
</a>
</g>
</g>
<!-- Node17&#45;&gt;Node18 -->
<g id="edge29" class="edge">
<title>Node17&#45;&gt;Node18</title>
<path fill="none" stroke="midnightblue" d="M692.35,-190.48C713.66,-180.49 749.19,-163.85 773.82,-152.31"/>
<polygon fill="midnightblue" stroke="midnightblue" points="775.42,-155.42 782.99,-148.01 772.45,-149.08 775.42,-155.42"/>
</g>
<!-- Node19 -->
<g id="node19" class="node">
<title>Node19</title>
<g id="a_node19"><a xlink:href="finalizer-trait_8h.html" target="_top" xlink:title=" ">
<polygon fill="white" stroke="black" points="842.65,-123.5 842.65,-153.5 955.65,-153.5 955.65,-123.5 842.65,-123.5"/>
<text text-anchor="start" x="850.65" y="-141.5" font-family="Helvetica,sans-Serif" font-size="10.00">cppgc/internal/finalizer</text>
<text text-anchor="middle" x="899.15" y="-130.5" font-family="Helvetica,sans-Serif" font-size="10.00">&#45;trait.h</text>
</a>
</g>
</g>
<!-- Node17&#45;&gt;Node19 -->
<g id="edge30" class="edge">
<title>Node17&#45;&gt;Node19</title>
<path fill="none" stroke="midnightblue" d="M706.39,-190.48C740.14,-181.55 794,-167.31 836.21,-156.14"/>
<polygon fill="midnightblue" stroke="midnightblue" points="837.35,-159.46 846.13,-153.52 835.56,-152.7 837.35,-159.46"/>
</g>
<!-- Node20 -->
<g id="node20" class="node">
<title>Node20</title>
<g id="a_node20"><a xlink:href="name-trait_8h.html" target="_top" xlink:title=" ">
<polygon fill="white" stroke="black" points="415.15,-123.5 415.15,-153.5 519.15,-153.5 519.15,-123.5 415.15,-123.5"/>
<text text-anchor="start" x="423.15" y="-141.5" font-family="Helvetica,sans-Serif" font-size="10.00">cppgc/internal/name</text>
<text text-anchor="middle" x="467.15" y="-130.5" font-family="Helvetica,sans-Serif" font-size="10.00">&#45;trait.h</text>
</a>
</g>
</g>
<!-- Node17&#45;&gt;Node20 -->
<g id="edge33" class="edge">
<title>Node17&#45;&gt;Node20</title>
<path fill="none" stroke="midnightblue" d="M644.5,-190.48C613.58,-181.59 564.32,-167.43 525.55,-156.29"/>
<polygon fill="midnightblue" stroke="midnightblue" points="526.52,-152.92 515.94,-153.52 524.58,-159.65 526.52,-152.92"/>
</g>
<!-- Node19&#45;&gt;Node7 -->
<g id="edge31" class="edge">
<title>Node19&#45;&gt;Node7</title>
<path fill="none" stroke="midnightblue" d="M885.83,-123.47C868.78,-106.06 837.78,-76.23 807.15,-56 787.31,-42.9 763.06,-31.47 744.03,-23.42"/>
<polygon fill="midnightblue" stroke="midnightblue" points="745.18,-20.11 734.6,-19.52 742.5,-26.57 745.18,-20.11"/>
</g>
<!-- Node19&#45;&gt;Node16 -->
<g id="edge32" class="edge">
<title>Node19&#45;&gt;Node16</title>
<path fill="none" stroke="midnightblue" d="M866.82,-123.4C840.68,-111.99 804.21,-96.08 779.03,-85.1"/>
<polygon fill="midnightblue" stroke="midnightblue" points="780.22,-81.8 769.66,-81.01 777.42,-88.21 780.22,-81.8"/>
</g>
<!-- Node20&#45;&gt;Node9 -->
<g id="edge37" class="edge">
<title>Node20&#45;&gt;Node9</title>
<path fill="none" stroke="midnightblue" d="M464.12,-123.35C459.89,-106.1 450.9,-76.68 435.15,-56 425.66,-43.53 411.84,-32.84 399.85,-25.02"/>
<polygon fill="midnightblue" stroke="midnightblue" points="401.49,-21.91 391.14,-19.61 397.79,-27.86 401.49,-21.91"/>
</g>
<!-- Node21 -->
<g id="node21" class="node">
<title>Node21</title>
<g id="a_node21"><a xlink:title=" ">
<polygon fill="white" stroke="#bfbfbf" points="482.65,-62 482.65,-81 531.65,-81 531.65,-62 482.65,-62"/>
<text text-anchor="middle" x="507.15" y="-69" font-family="Helvetica,sans-Serif" font-size="10.00">cstddef</text>
</a>
</g>
</g>
<!-- Node20&#45;&gt;Node21 -->
<g id="edge34" class="edge">
<title>Node20&#45;&gt;Node21</title>
<path fill="none" stroke="midnightblue" d="M475.83,-123.4C481.89,-113.56 490,-100.38 496.45,-89.89"/>
<polygon fill="midnightblue" stroke="midnightblue" points="499.54,-91.55 501.8,-81.19 493.58,-87.88 499.54,-91.55"/>
</g>
<!-- Node22 -->
<g id="node22" class="node">
<title>Node22</title>
<g id="a_node22"><a xlink:href="name-provider_8h.html" target="_top" xlink:title=" ">
<polygon fill="white" stroke="black" points="310.65,-62 310.65,-81 425.65,-81 425.65,-62 310.65,-62"/>
<text text-anchor="middle" x="368.15" y="-69" font-family="Helvetica,sans-Serif" font-size="10.00">cppgc/name&#45;provider.h</text>
</a>
</g>
</g>
<!-- Node20&#45;&gt;Node22 -->
<g id="edge35" class="edge">
<title>Node20&#45;&gt;Node22</title>
<path fill="none" stroke="midnightblue" d="M445.67,-123.4C429.07,-112.5 406.2,-97.48 389.6,-86.58"/>
<polygon fill="midnightblue" stroke="midnightblue" points="391.39,-83.57 381.11,-81.01 387.55,-89.42 391.39,-83.57"/>
</g>
<!-- Node22&#45;&gt;Node9 -->
<g id="edge36" class="edge">
<title>Node22&#45;&gt;Node9</title>
<path fill="none" stroke="midnightblue" d="M369.16,-61.98C370.15,-53.58 371.69,-40.48 372.96,-29.66"/>
<polygon fill="midnightblue" stroke="midnightblue" points="376.46,-29.85 374.15,-19.51 369.51,-29.03 376.46,-29.85"/>
</g>
</g>
</svg>
