<?xml version="1.0" encoding="UTF-8" standalone="no"?>
<!DOCTYPE svg PUBLIC "-//W3C//DTD SVG 1.1//EN"
 "http://www.w3.org/Graphics/SVG/1.1/DTD/svg11.dtd">
<!-- Generated by graphviz version 2.49.3 (20211027.1534)
 -->
<!-- Title: cppgc::internal::BasicCrossThreadPersistent::operator= Pages: 1 -->
<svg width="660pt" height="323pt"
 viewBox="0.00 0.00 660.00 323.00" xmlns="http://www.w3.org/2000/svg" xmlns:xlink="http://www.w3.org/1999/xlink">
<g id="graph0" class="graph" transform="scale(1 1) rotate(0) translate(4 319)">
<title>cppgc::internal::BasicCrossThreadPersistent::operator=</title>
<polygon fill="white" stroke="transparent" points="-4,4 -4,-319 656,-319 656,4 -4,4"/>
<!-- Node1 -->
<g id="node1" class="node">
<title>Node1</title>
<g id="a_node1"><a xlink:title=" ">
<polygon fill="#bfbfbf" stroke="black" points="0,-160.5 0,-190.5 137,-190.5 137,-160.5 0,-160.5"/>
<text text-anchor="start" x="8" y="-178.5" font-family="Helvetica,sans-Serif" font-size="10.00">cppgc::internal::BasicCross</text>
<text text-anchor="middle" x="68.5" y="-167.5" font-family="Helvetica,sans-Serif" font-size="10.00">ThreadPersistent::operator=</text>
</a>
</g>
</g>
<!-- Node2 -->
<g id="node2" class="node">
<title>Node2</title>
<g id="a_node2"><a xlink:href="classcppgc_1_1internal_1_1BasicCrossThreadPersistent.html#a4101c15a02138c88ea1d29ef95b10b34" target="_top" xlink:title=" ">
<polygon fill="white" stroke="black" points="173,-184.5 173,-214.5 307,-214.5 307,-184.5 173,-184.5"/>
<text text-anchor="start" x="181" y="-202.5" font-family="Helvetica,sans-Serif" font-size="10.00">cppgc::internal::BasicCross</text>
<text text-anchor="middle" x="240" y="-191.5" font-family="Helvetica,sans-Serif" font-size="10.00">ThreadPersistent::Clear</text>
</a>
</g>
</g>
<!-- Node1&#45;&gt;Node2 -->
<g id="edge1" class="edge">
<title>Node1&#45;&gt;Node2</title>
<path fill="none" stroke="midnightblue" d="M137.47,-185.12C145.87,-186.31 154.51,-187.54 163.03,-188.74"/>
<polygon fill="midnightblue" stroke="midnightblue" points="162.56,-192.21 172.95,-190.15 163.54,-185.28 162.56,-192.21"/>
</g>
<!-- Node5 -->
<g id="node5" class="node">
<title>Node5</title>
<g id="a_node5"><a xlink:href="classcppgc_1_1internal_1_1PersistentBase.html#aa189d8229e1fd8cc2cfce363ade822c6" target="_top" xlink:title=" ">
<polygon fill="white" stroke="black" points="348.5,-284.5 348.5,-314.5 476.5,-314.5 476.5,-284.5 348.5,-284.5"/>
<text text-anchor="start" x="356.5" y="-302.5" font-family="Helvetica,sans-Serif" font-size="10.00">cppgc::internal::Persistent</text>
<text text-anchor="middle" x="412.5" y="-291.5" font-family="Helvetica,sans-Serif" font-size="10.00">Base::GetNode</text>
</a>
</g>
</g>
<!-- Node1&#45;&gt;Node5 -->
<g id="edge8" class="edge">
<title>Node1&#45;&gt;Node5</title>
<path fill="none" stroke="midnightblue" d="M86.48,-190.8C105.97,-207.52 139.56,-233.87 173,-248.5 225.78,-271.6 289.84,-284.55 338.27,-291.62"/>
<polygon fill="midnightblue" stroke="midnightblue" points="337.96,-295.11 348.35,-293.04 338.94,-288.18 337.96,-295.11"/>
</g>
<!-- Node6 -->
<g id="node6" class="node">
<title>Node6</title>
<g id="a_node6"><a xlink:href="classcppgc_1_1internal_1_1PersistentBase.html#a2fce9ff2e5e2e6e347e31dc1399c7acb" target="_top" xlink:title=" ">
<polygon fill="white" stroke="black" points="348.5,-235.5 348.5,-265.5 476.5,-265.5 476.5,-235.5 348.5,-235.5"/>
<text text-anchor="start" x="356.5" y="-253.5" font-family="Helvetica,sans-Serif" font-size="10.00">cppgc::internal::Persistent</text>
<text text-anchor="middle" x="412.5" y="-242.5" font-family="Helvetica,sans-Serif" font-size="10.00">Base::GetValue</text>
</a>
</g>
</g>
<!-- Node1&#45;&gt;Node6 -->
<g id="edge9" class="edge">
<title>Node1&#45;&gt;Node6</title>
<path fill="none" stroke="midnightblue" d="M95.35,-190.73C115.74,-201.98 145.26,-216.66 173,-224.5 227.05,-239.77 290.34,-246.17 338.13,-248.8"/>
<polygon fill="midnightblue" stroke="midnightblue" points="338.23,-252.31 348.39,-249.33 338.59,-245.32 338.23,-252.31"/>
</g>
<!-- Node7 -->
<g id="node7" class="node">
<title>Node7</title>
<g id="a_node7"><a xlink:href="classcppgc_1_1internal_1_1PersistentBase.html#af84e1d2f71c9cbd3f0a4424339c725cb" target="_top" xlink:title=" ">
<polygon fill="white" stroke="black" points="348.5,-137.5 348.5,-167.5 476.5,-167.5 476.5,-137.5 348.5,-137.5"/>
<text text-anchor="start" x="356.5" y="-155.5" font-family="Helvetica,sans-Serif" font-size="10.00">cppgc::internal::Persistent</text>
<text text-anchor="middle" x="412.5" y="-144.5" font-family="Helvetica,sans-Serif" font-size="10.00">Base::SetNode</text>
</a>
</g>
</g>
<!-- Node1&#45;&gt;Node7 -->
<g id="edge10" class="edge">
<title>Node1&#45;&gt;Node7</title>
<path fill="none" stroke="midnightblue" d="M137.07,-170.96C195.13,-167.05 278.67,-161.43 338.3,-157.42"/>
<polygon fill="midnightblue" stroke="midnightblue" points="338.66,-160.91 348.4,-156.74 338.19,-153.92 338.66,-160.91"/>
</g>
<!-- Node8 -->
<g id="node8" class="node">
<title>Node8</title>
<g id="a_node8"><a xlink:href="classcppgc_1_1internal_1_1PersistentBase.html#a697d2fa1fc753a2f2e8c479143d72995" target="_top" xlink:title=" ">
<polygon fill="white" stroke="black" points="348.5,-88.5 348.5,-118.5 476.5,-118.5 476.5,-88.5 348.5,-88.5"/>
<text text-anchor="start" x="356.5" y="-106.5" font-family="Helvetica,sans-Serif" font-size="10.00">cppgc::internal::Persistent</text>
<text text-anchor="middle" x="412.5" y="-95.5" font-family="Helvetica,sans-Serif" font-size="10.00">Base::SetValue</text>
</a>
</g>
</g>
<!-- Node1&#45;&gt;Node8 -->
<g id="edge11" class="edge">
<title>Node1&#45;&gt;Node8</title>
<path fill="none" stroke="midnightblue" d="M137.07,-161.28C195.13,-149.05 278.67,-131.47 338.3,-118.91"/>
<polygon fill="midnightblue" stroke="midnightblue" points="339.34,-122.27 348.4,-116.78 337.89,-115.42 339.34,-122.27"/>
</g>
<!-- Node9 -->
<g id="node9" class="node">
<title>Node9</title>
<g id="a_node9"><a xlink:href="classcppgc_1_1internal_1_1PersistentNode.html#a1ca2104547bd2139cb56233c575a38f9" target="_top" xlink:title=" ">
<polygon fill="white" stroke="black" points="176,-44.5 176,-74.5 304,-74.5 304,-44.5 176,-44.5"/>
<text text-anchor="start" x="184" y="-62.5" font-family="Helvetica,sans-Serif" font-size="10.00">cppgc::internal::Persistent</text>
<text text-anchor="middle" x="240" y="-51.5" font-family="Helvetica,sans-Serif" font-size="10.00">Node::UpdateOwner</text>
</a>
</g>
</g>
<!-- Node1&#45;&gt;Node9 -->
<g id="edge12" class="edge">
<title>Node1&#45;&gt;Node9</title>
<path fill="none" stroke="midnightblue" d="M86.74,-160.46C106.73,-143.4 141.04,-115.25 173,-94.5 181.15,-89.21 190.19,-84.01 198.9,-79.31"/>
<polygon fill="midnightblue" stroke="midnightblue" points="200.59,-82.38 207.8,-74.61 197.32,-76.19 200.59,-82.38"/>
</g>
<!-- Node3 -->
<g id="node3" class="node">
<title>Node3</title>
<g id="a_node3"><a xlink:href="classcppgc_1_1internal_1_1CrossThreadPersistentRegion.html#a2ea5f1dee7fd750ada5d3d29e80871b3" target="_top" xlink:title=" ">
<polygon fill="white" stroke="black" points="343,-186.5 343,-216.5 482,-216.5 482,-186.5 343,-186.5"/>
<text text-anchor="start" x="351" y="-204.5" font-family="Helvetica,sans-Serif" font-size="10.00">cppgc::internal::CrossThread</text>
<text text-anchor="middle" x="412.5" y="-193.5" font-family="Helvetica,sans-Serif" font-size="10.00">PersistentRegion::FreeNode</text>
</a>
</g>
</g>
<!-- Node2&#45;&gt;Node3 -->
<g id="edge2" class="edge">
<title>Node2&#45;&gt;Node3</title>
<path fill="none" stroke="midnightblue" d="M307.41,-200.28C315.65,-200.38 324.14,-200.48 332.55,-200.57"/>
<polygon fill="midnightblue" stroke="midnightblue" points="332.7,-204.08 342.74,-200.69 332.78,-197.08 332.7,-204.08"/>
</g>
<!-- Node2&#45;&gt;Node5 -->
<g id="edge4" class="edge">
<title>Node2&#45;&gt;Node5</title>
<path fill="none" stroke="midnightblue" d="M257.95,-214.69C277.35,-231.44 310.63,-258.29 343,-275.5 346.25,-277.23 349.65,-278.88 353.13,-280.44"/>
<polygon fill="midnightblue" stroke="midnightblue" points="351.87,-283.7 362.44,-284.36 354.59,-277.25 351.87,-283.7"/>
</g>
<!-- Node2&#45;&gt;Node6 -->
<g id="edge5" class="edge">
<title>Node2&#45;&gt;Node6</title>
<path fill="none" stroke="midnightblue" d="M291.23,-214.53C310.14,-220.18 331.83,-226.67 351.54,-232.56"/>
<polygon fill="midnightblue" stroke="midnightblue" points="350.75,-235.98 361.33,-235.49 352.75,-229.27 350.75,-235.98"/>
</g>
<!-- Node2&#45;&gt;Node7 -->
<g id="edge6" class="edge">
<title>Node2&#45;&gt;Node7</title>
<path fill="none" stroke="midnightblue" d="M295.42,-184.5C311.87,-179.96 330.1,-174.94 347.14,-170.24"/>
<polygon fill="midnightblue" stroke="midnightblue" points="348.31,-173.55 357.02,-167.52 346.45,-166.8 348.31,-173.55"/>
</g>
<!-- Node2&#45;&gt;Node8 -->
<g id="edge7" class="edge">
<title>Node2&#45;&gt;Node8</title>
<path fill="none" stroke="midnightblue" d="M259.61,-184.33C279.37,-168.76 311.98,-144.61 343,-128.5 347.03,-126.41 351.27,-124.41 355.59,-122.53"/>
<polygon fill="midnightblue" stroke="midnightblue" points="357.21,-125.64 365.11,-118.58 354.53,-119.18 357.21,-125.64"/>
</g>
<!-- Node4 -->
<g id="node4" class="node">
<title>Node4</title>
<g id="a_node4"><a xlink:href="classcppgc_1_1internal_1_1PersistentRegionLock.html#a44d69a4e273ffca99d2389d622a844a1" target="_top" xlink:title=" ">
<polygon fill="white" stroke="black" points="518,-186.5 518,-216.5 652,-216.5 652,-186.5 518,-186.5"/>
<text text-anchor="start" x="526" y="-204.5" font-family="Helvetica,sans-Serif" font-size="10.00">cppgc::internal::Persistent</text>
<text text-anchor="middle" x="585" y="-193.5" font-family="Helvetica,sans-Serif" font-size="10.00">RegionLock::AssertLocked</text>
</a>
</g>
</g>
<!-- Node3&#45;&gt;Node4 -->
<g id="edge3" class="edge">
<title>Node3&#45;&gt;Node4</title>
<path fill="none" stroke="midnightblue" d="M482.36,-201.5C490.7,-201.5 499.26,-201.5 507.71,-201.5"/>
<polygon fill="midnightblue" stroke="midnightblue" points="507.93,-205 517.93,-201.5 507.93,-198 507.93,-205"/>
</g>
<!-- Node10 -->
<g id="node10" class="node">
<title>Node10</title>
<g id="a_node10"><a xlink:href="classcppgc_1_1internal_1_1PersistentNode.html#a6117a8f66c181bb22827a21b3fbd3457" target="_top" xlink:title=" ">
<polygon fill="white" stroke="black" points="521,-22.5 521,-52.5 649,-52.5 649,-22.5 521,-22.5"/>
<text text-anchor="start" x="529" y="-40.5" font-family="Helvetica,sans-Serif" font-size="10.00">cppgc::internal::Persistent</text>
<text text-anchor="middle" x="585" y="-29.5" font-family="Helvetica,sans-Serif" font-size="10.00">Node::IsUsed</text>
</a>
</g>
</g>
<!-- Node9&#45;&gt;Node10 -->
<g id="edge13" class="edge">
<title>Node9&#45;&gt;Node10</title>
<path fill="none" stroke="midnightblue" d="M304.31,-55.44C362.71,-51.69 449.4,-46.13 510.76,-42.2"/>
<polygon fill="midnightblue" stroke="midnightblue" points="511.01,-45.69 520.77,-41.56 510.56,-38.7 511.01,-45.69"/>
</g>
<!-- Node11 -->
<g id="node11" class="node">
<title>Node11</title>
<g id="a_node11"><a xlink:href="classcppgc_1_1internal_1_1PersistentNode.html#ad50ff2c6d54004b92ec8c2d92455f17b" target="_top" xlink:title=" ">
<polygon fill="white" stroke="black" points="348.5,-0.5 348.5,-30.5 476.5,-30.5 476.5,-0.5 348.5,-0.5"/>
<text text-anchor="start" x="356.5" y="-18.5" font-family="Helvetica,sans-Serif" font-size="10.00">cppgc::internal::Persistent</text>
<text text-anchor="middle" x="412.5" y="-7.5" font-family="Helvetica,sans-Serif" font-size="10.00">Node::owner</text>
</a>
</g>
</g>
<!-- Node9&#45;&gt;Node11 -->
<g id="edge14" class="edge">
<title>Node9&#45;&gt;Node11</title>
<path fill="none" stroke="midnightblue" d="M299.2,-44.48C313.39,-40.82 328.69,-36.87 343.29,-33.1"/>
<polygon fill="midnightblue" stroke="midnightblue" points="344.47,-36.41 353.27,-30.53 342.72,-29.64 344.47,-36.41"/>
</g>
<!-- Node11&#45;&gt;Node10 -->
<g id="edge15" class="edge">
<title>Node11&#45;&gt;Node10</title>
<path fill="none" stroke="midnightblue" d="M476.5,-23.63C487.73,-25.08 499.51,-26.6 510.98,-28.08"/>
<polygon fill="midnightblue" stroke="midnightblue" points="510.61,-31.56 520.97,-29.37 511.5,-24.62 510.61,-31.56"/>
</g>
</g>
</svg>
