<?xml version="1.0" encoding="UTF-8" standalone="no"?>
<!DOCTYPE svg PUBLIC "-//W3C//DTD SVG 1.1//EN"
 "http://www.w3.org/Graphics/SVG/1.1/DTD/svg11.dtd">
<!-- Generated by graphviz version 2.49.3 (20211027.1534)
 -->
<!-- Title: cppgc::internal::PersistentNode::IsUsed Pages: 1 -->
<svg width="662pt" height="239pt"
 viewBox="0.00 0.00 662.00 239.00" xmlns="http://www.w3.org/2000/svg" xmlns:xlink="http://www.w3.org/1999/xlink">
<g id="graph0" class="graph" transform="scale(1 1) rotate(0) translate(4 235)">
<title>cppgc::internal::PersistentNode::IsUsed</title>
<polygon fill="white" stroke="transparent" points="-4,4 -4,-235 658,-235 658,4 -4,4"/>
<!-- Node1 -->
<g id="node1" class="node">
<title>Node1</title>
<g id="a_node1"><a xlink:title=" ">
<polygon fill="#bfbfbf" stroke="black" points="526,-112.5 526,-142.5 654,-142.5 654,-112.5 526,-112.5"/>
<text text-anchor="start" x="534" y="-130.5" font-family="Helvetica,sans-Serif" font-size="10.00">cppgc::internal::Persistent</text>
<text text-anchor="middle" x="590" y="-119.5" font-family="Helvetica,sans-Serif" font-size="10.00">Node::IsUsed</text>
</a>
</g>
</g>
<!-- Node2 -->
<g id="node2" class="node">
<title>Node2</title>
<g id="a_node2"><a xlink:href="classcppgc_1_1internal_1_1PersistentRegion.html#a98c947b33b0d7924179212feeb247538" target="_top" xlink:title=" ">
<polygon fill="white" stroke="black" points="12,-175.5 12,-205.5 140,-205.5 140,-175.5 12,-175.5"/>
<text text-anchor="start" x="20" y="-193.5" font-family="Helvetica,sans-Serif" font-size="10.00">cppgc::internal::Persistent</text>
<text text-anchor="middle" x="76" y="-182.5" font-family="Helvetica,sans-Serif" font-size="10.00">Region::AllocateNode</text>
</a>
</g>
</g>
<!-- Node1&#45;&gt;Node2 -->
<g id="edge1" class="edge">
<title>Node1&#45;&gt;Node2</title>
<path fill="none" stroke="midnightblue" d="M566.32,-149.51C547.51,-166.31 519.2,-188.41 490,-199.5 364.35,-247.23 321.59,-230.36 188,-215.5 169.74,-213.47 150.1,-209.61 132.49,-205.53"/>
<polygon fill="midnightblue" stroke="midnightblue" points="568.77,-152.02 573.78,-142.68 564.04,-146.85 568.77,-152.02"/>
</g>
<!-- Node3 -->
<g id="node3" class="node">
<title>Node3</title>
<g id="a_node3"><a xlink:href="classcppgc_1_1internal_1_1PersistentNode.html#a7d35e57a8fd60e0d42222cd8d93c2942" target="_top" xlink:title=" ">
<polygon fill="white" stroke="black" points="193,-175.5 193,-205.5 321,-205.5 321,-175.5 193,-175.5"/>
<text text-anchor="start" x="201" y="-193.5" font-family="Helvetica,sans-Serif" font-size="10.00">cppgc::internal::Persistent</text>
<text text-anchor="middle" x="257" y="-182.5" font-family="Helvetica,sans-Serif" font-size="10.00">Node::FreeListNext</text>
</a>
</g>
</g>
<!-- Node1&#45;&gt;Node3 -->
<g id="edge2" class="edge">
<title>Node1&#45;&gt;Node3</title>
<path fill="none" stroke="midnightblue" d="M557.38,-147.7C538.57,-158.61 513.82,-171.12 490,-177.5 434.28,-192.43 368.42,-194.74 321.13,-193.87"/>
<polygon fill="midnightblue" stroke="midnightblue" points="559.29,-150.63 566.1,-142.51 555.71,-144.62 559.29,-150.63"/>
</g>
<!-- Node4 -->
<g id="node4" class="node">
<title>Node4</title>
<g id="a_node4"><a xlink:href="classcppgc_1_1internal_1_1PersistentRegion.html#af9379c9232b30b74532cccb697de9950" target="_top" xlink:title=" ">
<polygon fill="white" stroke="black" points="362,-137.5 362,-167.5 490,-167.5 490,-137.5 362,-137.5"/>
<text text-anchor="start" x="370" y="-155.5" font-family="Helvetica,sans-Serif" font-size="10.00">cppgc::internal::Persistent</text>
<text text-anchor="middle" x="426" y="-144.5" font-family="Helvetica,sans-Serif" font-size="10.00">Region::FreeNode</text>
</a>
</g>
</g>
<!-- Node1&#45;&gt;Node4 -->
<g id="edge4" class="edge">
<title>Node1&#45;&gt;Node4</title>
<path fill="none" stroke="midnightblue" d="M515.91,-138.78C507.32,-140.1 498.62,-141.45 490.19,-142.75"/>
<polygon fill="midnightblue" stroke="midnightblue" points="516.55,-142.22 525.9,-137.24 515.49,-135.3 516.55,-142.22"/>
</g>
<!-- Node5 -->
<g id="node5" class="node">
<title>Node5</title>
<g id="a_node5"><a xlink:href="classcppgc_1_1internal_1_1PersistentNode.html#ad50ff2c6d54004b92ec8c2d92455f17b" target="_top" xlink:title=" ">
<polygon fill="white" stroke="black" points="362,-88.5 362,-118.5 490,-118.5 490,-88.5 362,-88.5"/>
<text text-anchor="start" x="370" y="-106.5" font-family="Helvetica,sans-Serif" font-size="10.00">cppgc::internal::Persistent</text>
<text text-anchor="middle" x="426" y="-95.5" font-family="Helvetica,sans-Serif" font-size="10.00">Node::owner</text>
</a>
</g>
</g>
<!-- Node1&#45;&gt;Node5 -->
<g id="edge5" class="edge">
<title>Node1&#45;&gt;Node5</title>
<path fill="none" stroke="midnightblue" d="M515.91,-116.67C507.32,-115.4 498.62,-114.11 490.19,-112.86"/>
<polygon fill="midnightblue" stroke="midnightblue" points="515.5,-120.15 525.9,-118.15 516.52,-113.22 515.5,-120.15"/>
</g>
<!-- Node7 -->
<g id="node7" class="node">
<title>Node7</title>
<g id="a_node7"><a xlink:href="classcppgc_1_1internal_1_1PersistentNode.html#a1ca2104547bd2139cb56233c575a38f9" target="_top" xlink:title=" ">
<polygon fill="white" stroke="black" points="193,-53.5 193,-83.5 321,-83.5 321,-53.5 193,-53.5"/>
<text text-anchor="start" x="201" y="-71.5" font-family="Helvetica,sans-Serif" font-size="10.00">cppgc::internal::Persistent</text>
<text text-anchor="middle" x="257" y="-60.5" font-family="Helvetica,sans-Serif" font-size="10.00">Node::UpdateOwner</text>
</a>
</g>
</g>
<!-- Node1&#45;&gt;Node7 -->
<g id="edge13" class="edge">
<title>Node1&#45;&gt;Node7</title>
<path fill="none" stroke="midnightblue" d="M556.97,-107.37C538.21,-96.7 513.63,-84.57 490,-78.5 434.16,-64.16 368.31,-62.72 321.06,-64.24"/>
<polygon fill="midnightblue" stroke="midnightblue" points="555.29,-110.44 565.69,-112.46 558.82,-104.4 555.29,-110.44"/>
</g>
<!-- Node11 -->
<g id="node11" class="node">
<title>Node11</title>
<g id="a_node11"><a xlink:href="classcppgc_1_1internal_1_1PersistentNode.html#abad2492c5f2fd83b81597b0cb321a770" target="_top" xlink:title=" ">
<polygon fill="white" stroke="black" points="362,-0.5 362,-30.5 490,-30.5 490,-0.5 362,-0.5"/>
<text text-anchor="start" x="370" y="-18.5" font-family="Helvetica,sans-Serif" font-size="10.00">cppgc::internal::Persistent</text>
<text text-anchor="middle" x="426" y="-7.5" font-family="Helvetica,sans-Serif" font-size="10.00">Node::Trace</text>
</a>
</g>
</g>
<!-- Node1&#45;&gt;Node11 -->
<g id="edge12" class="edge">
<title>Node1&#45;&gt;Node11</title>
<path fill="none" stroke="midnightblue" d="M565.74,-105.4C546.45,-87.79 517.78,-63.23 490,-45.5 481.42,-40.03 471.69,-34.91 462.49,-30.52"/>
<polygon fill="midnightblue" stroke="midnightblue" points="563.43,-108.03 573.15,-112.24 568.18,-102.89 563.43,-108.03"/>
</g>
<!-- Node3&#45;&gt;Node2 -->
<g id="edge3" class="edge">
<title>Node3&#45;&gt;Node2</title>
<path fill="none" stroke="midnightblue" d="M182.72,-190.5C168.6,-190.5 153.91,-190.5 140.14,-190.5"/>
<polygon fill="midnightblue" stroke="midnightblue" points="182.89,-194 192.89,-190.5 182.89,-187 182.89,-194"/>
</g>
<!-- Node6 -->
<g id="node6" class="node">
<title>Node6</title>
<g id="a_node6"><a xlink:href="classcppgc_1_1internal_1_1PersistentNode.html#a18c4a9bce10409fd47e53cc0cdf8acab" target="_top" xlink:title=" ">
<polygon fill="white" stroke="black" points="188,-118.5 188,-148.5 326,-148.5 326,-118.5 188,-118.5"/>
<text text-anchor="start" x="196" y="-136.5" font-family="Helvetica,sans-Serif" font-size="10.00">cppgc::internal::Persistent</text>
<text text-anchor="middle" x="257" y="-125.5" font-family="Helvetica,sans-Serif" font-size="10.00">Node::InitializeAsUsedNode</text>
</a>
</g>
</g>
<!-- Node5&#45;&gt;Node6 -->
<g id="edge6" class="edge">
<title>Node5&#45;&gt;Node6</title>
<path fill="none" stroke="midnightblue" d="M351.93,-116.63C343.4,-118.16 334.71,-119.72 326.25,-121.24"/>
<polygon fill="midnightblue" stroke="midnightblue" points="352.64,-120.05 361.86,-114.84 351.4,-113.17 352.64,-120.05"/>
</g>
<!-- Node5&#45;&gt;Node7 -->
<g id="edge8" class="edge">
<title>Node5&#45;&gt;Node7</title>
<path fill="none" stroke="midnightblue" d="M351.77,-88.15C341.59,-86.02 331.2,-83.84 321.22,-81.75"/>
<polygon fill="midnightblue" stroke="midnightblue" points="351.36,-91.64 361.86,-90.27 352.8,-84.79 351.36,-91.64"/>
</g>
<!-- Node6&#45;&gt;Node2 -->
<g id="edge7" class="edge">
<title>Node6&#45;&gt;Node2</title>
<path fill="none" stroke="midnightblue" d="M198.81,-151.71C174.82,-159.35 147.25,-168.13 124.41,-175.4"/>
<polygon fill="midnightblue" stroke="midnightblue" points="200.03,-154.99 208.5,-148.63 197.91,-148.32 200.03,-154.99"/>
</g>
<!-- Node8 -->
<g id="node8" class="node">
<title>Node8</title>
<g id="a_node8"><a xlink:href="classcppgc_1_1internal_1_1BasicPersistent.html#abbfbd78f28338f9391df14a80498fe87" target="_top" xlink:title=" ">
<polygon fill="white" stroke="black" points="0,-102.5 0,-132.5 152,-132.5 152,-102.5 0,-102.5"/>
<text text-anchor="start" x="8" y="-120.5" font-family="Helvetica,sans-Serif" font-size="10.00">cppgc::internal::BasicPersistent</text>
<text text-anchor="middle" x="76" y="-109.5" font-family="Helvetica,sans-Serif" font-size="10.00">::BasicPersistent</text>
</a>
</g>
</g>
<!-- Node7&#45;&gt;Node8 -->
<g id="edge9" class="edge">
<title>Node7&#45;&gt;Node8</title>
<path fill="none" stroke="midnightblue" d="M191.16,-86.25C171.76,-91.56 150.69,-97.33 131.98,-102.45"/>
<polygon fill="midnightblue" stroke="midnightblue" points="192.11,-89.62 200.83,-83.6 190.26,-82.87 192.11,-89.62"/>
</g>
<!-- Node9 -->
<g id="node9" class="node">
<title>Node9</title>
<g id="a_node9"><a xlink:href="classcppgc_1_1internal_1_1BasicCrossThreadPersistent.html#a495e434ac092107ddb112715a863274c" target="_top" xlink:title=" ">
<polygon fill="white" stroke="black" points="7.5,-53.5 7.5,-83.5 144.5,-83.5 144.5,-53.5 7.5,-53.5"/>
<text text-anchor="start" x="15.5" y="-71.5" font-family="Helvetica,sans-Serif" font-size="10.00">cppgc::internal::BasicCross</text>
<text text-anchor="middle" x="76" y="-60.5" font-family="Helvetica,sans-Serif" font-size="10.00">ThreadPersistent::operator=</text>
</a>
</g>
</g>
<!-- Node7&#45;&gt;Node9 -->
<g id="edge10" class="edge">
<title>Node7&#45;&gt;Node9</title>
<path fill="none" stroke="midnightblue" d="M182.88,-68.5C170.26,-68.5 157.18,-68.5 144.7,-68.5"/>
<polygon fill="midnightblue" stroke="midnightblue" points="182.89,-72 192.89,-68.5 182.89,-65 182.89,-72"/>
</g>
<!-- Node10 -->
<g id="node10" class="node">
<title>Node10</title>
<g id="a_node10"><a xlink:href="classcppgc_1_1internal_1_1BasicPersistent.html#ae98f0f817a287da8daf1750f28acc387" target="_top" xlink:title=" ">
<polygon fill="white" stroke="black" points="0,-4.5 0,-34.5 152,-34.5 152,-4.5 0,-4.5"/>
<text text-anchor="start" x="8" y="-22.5" font-family="Helvetica,sans-Serif" font-size="10.00">cppgc::internal::BasicPersistent</text>
<text text-anchor="middle" x="76" y="-11.5" font-family="Helvetica,sans-Serif" font-size="10.00">::operator=</text>
</a>
</g>
</g>
<!-- Node7&#45;&gt;Node10 -->
<g id="edge11" class="edge">
<title>Node7&#45;&gt;Node10</title>
<path fill="none" stroke="midnightblue" d="M191.16,-50.75C171.76,-45.44 150.69,-39.67 131.98,-34.55"/>
<polygon fill="midnightblue" stroke="midnightblue" points="190.26,-54.13 200.83,-53.4 192.11,-47.38 190.26,-54.13"/>
</g>
</g>
</svg>
