<?xml version="1.0" encoding="UTF-8" standalone="no"?>
<!DOCTYPE svg PUBLIC "-//W3C//DTD SVG 1.1//EN"
 "http://www.w3.org/Graphics/SVG/1.1/DTD/svg11.dtd">
<!-- Generated by graphviz version 2.49.3 (20211027.1534)
 -->
<!-- Title: include/cppgc/explicit&#45;management.h Pages: 1 -->
<svg width="1192pt" height="341pt"
 viewBox="0.00 0.00 1192.36 341.00" xmlns="http://www.w3.org/2000/svg" xmlns:xlink="http://www.w3.org/1999/xlink">
<g id="graph0" class="graph" transform="scale(1 1) rotate(0) translate(4 337)">
<title>include/cppgc/explicit&#45;management.h</title>
<polygon fill="white" stroke="transparent" points="-4,4 -4,-337 1188.36,-337 1188.36,4 -4,4"/>
<!-- Node1 -->
<g id="node1" class="node">
<title>Node1</title>
<g id="a_node1"><a xlink:title=" ">
<polygon fill="#bfbfbf" stroke="black" points="674.86,-302.5 674.86,-332.5 784.86,-332.5 784.86,-302.5 674.86,-302.5"/>
<text text-anchor="start" x="682.86" y="-320.5" font-family="Helvetica,sans-Serif" font-size="10.00">include/cppgc/explicit</text>
<text text-anchor="middle" x="729.86" y="-309.5" font-family="Helvetica,sans-Serif" font-size="10.00">&#45;management.h</text>
</a>
</g>
</g>
<!-- Node2 -->
<g id="node2" class="node">
<title>Node2</title>
<g id="a_node2"><a xlink:title=" ">
<polygon fill="white" stroke="#bfbfbf" points="959.36,-62 959.36,-81 1008.36,-81 1008.36,-62 959.36,-62"/>
<text text-anchor="middle" x="983.86" y="-69" font-family="Helvetica,sans-Serif" font-size="10.00">cstddef</text>
</a>
</g>
</g>
<!-- Node1&#45;&gt;Node2 -->
<g id="edge1" class="edge">
<title>Node1&#45;&gt;Node2</title>
<path fill="none" stroke="midnightblue" d="M764.69,-302.33C816.73,-279.28 914.08,-228.64 964.86,-154 977.67,-135.18 981.92,-108.87 983.29,-91.28"/>
<polygon fill="midnightblue" stroke="midnightblue" points="986.79,-91.33 983.83,-81.16 979.8,-90.95 986.79,-91.33"/>
</g>
<!-- Node3 -->
<g id="node3" class="node">
<title>Node3</title>
<g id="a_node3"><a xlink:href="allocation_8h.html" target="_top" xlink:title=" ">
<polygon fill="white" stroke="black" points="285.36,-246.5 285.36,-265.5 380.36,-265.5 380.36,-246.5 285.36,-246.5"/>
<text text-anchor="middle" x="332.86" y="-253.5" font-family="Helvetica,sans-Serif" font-size="10.00">cppgc/allocation.h</text>
</a>
</g>
</g>
<!-- Node1&#45;&gt;Node3 -->
<g id="edge2" class="edge">
<title>Node1&#45;&gt;Node3</title>
<path fill="none" stroke="midnightblue" d="M674.66,-308.23C599.73,-297 466.46,-277.02 390.36,-265.62"/>
<polygon fill="midnightblue" stroke="midnightblue" points="390.87,-262.15 380.46,-264.13 389.83,-269.08 390.87,-262.15"/>
</g>
<!-- Node18 -->
<g id="node18" class="node">
<title>Node18</title>
<g id="a_node18"><a xlink:href="type-traits_8h.html" target="_top" xlink:title=" ">
<polygon fill="white" stroke="black" points="437.86,-62 437.86,-81 533.86,-81 533.86,-62 437.86,-62"/>
<text text-anchor="middle" x="485.86" y="-69" font-family="Helvetica,sans-Serif" font-size="10.00">cppgc/type&#45;traits.h</text>
</a>
</g>
</g>
<!-- Node1&#45;&gt;Node18 -->
<g id="edge47" class="edge">
<title>Node1&#45;&gt;Node18</title>
<path fill="none" stroke="midnightblue" d="M693.56,-302.45C640.59,-279.88 543.37,-230.19 496.86,-154 485.21,-134.91 483.7,-108.66 484.28,-91.16"/>
<polygon fill="midnightblue" stroke="midnightblue" points="487.78,-91.28 484.88,-81.09 480.8,-90.87 487.78,-91.28"/>
</g>
<!-- Node24 -->
<g id="node24" class="node">
<title>Node24</title>
<g id="a_node24"><a xlink:href="logging_8h.html" target="_top" xlink:title=" ">
<polygon fill="white" stroke="black" points="1012.36,-129 1012.36,-148 1131.36,-148 1131.36,-129 1012.36,-129"/>
<text text-anchor="middle" x="1071.86" y="-136" font-family="Helvetica,sans-Serif" font-size="10.00">cppgc/internal/logging.h</text>
</a>
</g>
</g>
<!-- Node1&#45;&gt;Node24 -->
<g id="edge42" class="edge">
<title>Node1&#45;&gt;Node24</title>
<path fill="none" stroke="midnightblue" d="M784.96,-311.52C853.13,-304.45 964.29,-289.66 997.86,-266 1035.87,-239.22 1057.32,-186.21 1066.49,-158.07"/>
<polygon fill="midnightblue" stroke="midnightblue" points="1069.9,-158.88 1069.5,-148.29 1063.21,-156.82 1069.9,-158.88"/>
</g>
<!-- Node4 -->
<g id="node4" class="node">
<title>Node4</title>
<g id="a_node4"><a xlink:title=" ">
<polygon fill="white" stroke="#bfbfbf" points="82.86,-0.5 82.86,-19.5 130.86,-19.5 130.86,-0.5 82.86,-0.5"/>
<text text-anchor="middle" x="106.86" y="-7.5" font-family="Helvetica,sans-Serif" font-size="10.00">stdint.h</text>
</a>
</g>
</g>
<!-- Node3&#45;&gt;Node4 -->
<g id="edge3" class="edge">
<title>Node3&#45;&gt;Node4</title>
<path fill="none" stroke="midnightblue" d="M285.22,-255.51C205.43,-255.25 50.16,-249.51 15.86,-210 -34.35,-152.15 51.01,-61.96 89.51,-26.27"/>
<polygon fill="midnightblue" stroke="midnightblue" points="91.9,-28.83 96.95,-19.52 87.2,-23.65 91.9,-28.83"/>
</g>
<!-- Node5 -->
<g id="node5" class="node">
<title>Node5</title>
<g id="a_node5"><a xlink:title=" ">
<polygon fill="white" stroke="#bfbfbf" points="402.86,-129 402.86,-148 448.86,-148 448.86,-129 402.86,-129"/>
<text text-anchor="middle" x="425.86" y="-136" font-family="Helvetica,sans-Serif" font-size="10.00">atomic</text>
</a>
</g>
</g>
<!-- Node3&#45;&gt;Node5 -->
<g id="edge4" class="edge">
<title>Node3&#45;&gt;Node5</title>
<path fill="none" stroke="midnightblue" d="M355.85,-246.49C372.38,-239.22 393.96,-227.2 406.86,-210 418.14,-194.97 422.73,-173.71 424.59,-158.48"/>
<polygon fill="midnightblue" stroke="midnightblue" points="428.11,-158.48 425.55,-148.2 421.14,-157.83 428.11,-158.48"/>
</g>
<!-- Node6 -->
<g id="node6" class="node">
<title>Node6</title>
<g id="a_node6"><a xlink:href="custom-space_8h.html" target="_top" xlink:title=" ">
<polygon fill="white" stroke="black" points="25.36,-190.5 25.36,-209.5 140.36,-209.5 140.36,-190.5 25.36,-190.5"/>
<text text-anchor="middle" x="82.86" y="-197.5" font-family="Helvetica,sans-Serif" font-size="10.00">cppgc/custom&#45;space.h</text>
</a>
</g>
</g>
<!-- Node3&#45;&gt;Node6 -->
<g id="edge5" class="edge">
<title>Node3&#45;&gt;Node6</title>
<path fill="none" stroke="midnightblue" d="M293.25,-246.44C249.64,-237.02 179.46,-221.87 132.29,-211.68"/>
<polygon fill="midnightblue" stroke="midnightblue" points="132.81,-208.21 122.29,-209.52 131.33,-215.05 132.81,-208.21"/>
</g>
<!-- Node8 -->
<g id="node8" class="node">
<title>Node8</title>
<g id="a_node8"><a xlink:href="garbage-collected_8h.html" target="_top" xlink:title=" ">
<polygon fill="white" stroke="black" points="267.86,-190.5 267.86,-209.5 397.86,-209.5 397.86,-190.5 267.86,-190.5"/>
<text text-anchor="middle" x="332.86" y="-197.5" font-family="Helvetica,sans-Serif" font-size="10.00">cppgc/garbage&#45;collected.h</text>
</a>
</g>
</g>
<!-- Node3&#45;&gt;Node8 -->
<g id="edge7" class="edge">
<title>Node3&#45;&gt;Node8</title>
<path fill="none" stroke="midnightblue" d="M332.86,-246.08C332.86,-239.01 332.86,-228.86 332.86,-219.99"/>
<polygon fill="midnightblue" stroke="midnightblue" points="336.36,-219.75 332.86,-209.75 329.36,-219.75 336.36,-219.75"/>
</g>
<!-- Node10 -->
<g id="node10" class="node">
<title>Node10</title>
<g id="a_node10"><a xlink:href="api-constants_8h.html" target="_top" xlink:title=" ">
<polygon fill="white" stroke="black" points="111.36,-56.5 111.36,-86.5 204.36,-86.5 204.36,-56.5 111.36,-56.5"/>
<text text-anchor="start" x="119.36" y="-74.5" font-family="Helvetica,sans-Serif" font-size="10.00">cppgc/internal/api</text>
<text text-anchor="middle" x="157.86" y="-63.5" font-family="Helvetica,sans-Serif" font-size="10.00">&#45;constants.h</text>
</a>
</g>
</g>
<!-- Node3&#45;&gt;Node10 -->
<g id="edge28" class="edge">
<title>Node3&#45;&gt;Node10</title>
<path fill="none" stroke="midnightblue" d="M310.21,-246.47C276.35,-232.52 213,-201.52 179.86,-154 168.11,-137.14 162.63,-114.28 160.08,-97.07"/>
<polygon fill="midnightblue" stroke="midnightblue" points="163.5,-96.18 158.79,-86.69 156.55,-97.04 163.5,-96.18"/>
</g>
<!-- Node19 -->
<g id="node19" class="node">
<title>Node19</title>
<g id="a_node19"><a xlink:href="gc-info_8h.html" target="_top" xlink:title=" ">
<polygon fill="white" stroke="black" points="625.36,-190.5 625.36,-209.5 742.36,-209.5 742.36,-190.5 625.36,-190.5"/>
<text text-anchor="middle" x="683.86" y="-197.5" font-family="Helvetica,sans-Serif" font-size="10.00">cppgc/internal/gc&#45;info.h</text>
</a>
</g>
</g>
<!-- Node3&#45;&gt;Node19 -->
<g id="edge29" class="edge">
<title>Node3&#45;&gt;Node19</title>
<path fill="none" stroke="midnightblue" d="M380.57,-247.66C442.11,-238.19 549.46,-221.68 618.55,-211.05"/>
<polygon fill="midnightblue" stroke="midnightblue" points="619.1,-214.5 628.45,-209.52 618.04,-207.59 619.1,-214.5"/>
</g>
<!-- Node7 -->
<g id="node7" class="node">
<title>Node7</title>
<g id="a_node7"><a xlink:title=" ">
<polygon fill="white" stroke="#bfbfbf" points="149.36,-0.5 149.36,-19.5 200.36,-19.5 200.36,-0.5 149.36,-0.5"/>
<text text-anchor="middle" x="174.86" y="-7.5" font-family="Helvetica,sans-Serif" font-size="10.00">stddef.h</text>
</a>
</g>
</g>
<!-- Node6&#45;&gt;Node7 -->
<g id="edge6" class="edge">
<title>Node6&#45;&gt;Node7</title>
<path fill="none" stroke="midnightblue" d="M81.63,-190.41C78.69,-166.79 73.52,-99.71 101.86,-56 111.17,-41.65 126.81,-31.12 141.24,-23.87"/>
<polygon fill="midnightblue" stroke="midnightblue" points="142.88,-26.97 150.47,-19.57 139.92,-20.62 142.88,-26.97"/>
</g>
<!-- Node9 -->
<g id="node9" class="node">
<title>Node9</title>
<g id="a_node9"><a xlink:title=" ">
<polygon fill="white" stroke="#bfbfbf" points="492.86,-0.5 492.86,-19.5 554.86,-19.5 554.86,-0.5 492.86,-0.5"/>
<text text-anchor="middle" x="523.86" y="-7.5" font-family="Helvetica,sans-Serif" font-size="10.00">type_traits</text>
</a>
</g>
</g>
<!-- Node8&#45;&gt;Node9 -->
<g id="edge8" class="edge">
<title>Node8&#45;&gt;Node9</title>
<path fill="none" stroke="midnightblue" d="M334.71,-190.46C338.15,-175.79 346.53,-145.21 360.86,-123 383.86,-87.35 394.09,-80.31 428.86,-56 448.1,-42.55 471.98,-31.26 490.98,-23.35"/>
<polygon fill="midnightblue" stroke="midnightblue" points="492.47,-26.53 500.43,-19.53 489.84,-20.04 492.47,-26.53"/>
</g>
<!-- Node8&#45;&gt;Node10 -->
<g id="edge9" class="edge">
<title>Node8&#45;&gt;Node10</title>
<path fill="none" stroke="midnightblue" d="M289.55,-190.48C264.27,-183.83 232.91,-172.51 209.86,-154 190.65,-138.57 176.38,-114.03 167.69,-95.91"/>
<polygon fill="midnightblue" stroke="midnightblue" points="170.78,-94.25 163.44,-86.6 164.41,-97.15 170.78,-94.25"/>
</g>
<!-- Node12 -->
<g id="node12" class="node">
<title>Node12</title>
<g id="a_node12"><a xlink:href="platform_8h.html" target="_top" xlink:title=" ">
<polygon fill="white" stroke="black" points="219.36,-129 219.36,-148 308.36,-148 308.36,-129 219.36,-129"/>
<text text-anchor="middle" x="263.86" y="-136" font-family="Helvetica,sans-Serif" font-size="10.00">cppgc/platform.h</text>
</a>
</g>
</g>
<!-- Node8&#45;&gt;Node12 -->
<g id="edge13" class="edge">
<title>Node8&#45;&gt;Node12</title>
<path fill="none" stroke="midnightblue" d="M322.98,-190.48C312.22,-181.2 294.79,-166.17 281.64,-154.83"/>
<polygon fill="midnightblue" stroke="midnightblue" points="283.59,-151.89 273.73,-148.01 279.02,-157.19 283.59,-151.89"/>
</g>
<!-- Node17 -->
<g id="node17" class="node">
<title>Node17</title>
<g id="a_node17"><a xlink:href="trace-trait_8h.html" target="_top" xlink:title=" ">
<polygon fill="white" stroke="black" points="636.36,-129 636.36,-148 731.36,-148 731.36,-129 636.36,-129"/>
<text text-anchor="middle" x="683.86" y="-136" font-family="Helvetica,sans-Serif" font-size="10.00">cppgc/trace&#45;trait.h</text>
</a>
</g>
</g>
<!-- Node8&#45;&gt;Node17 -->
<g id="edge22" class="edge">
<title>Node8&#45;&gt;Node17</title>
<path fill="none" stroke="midnightblue" d="M397.94,-191.01C457.94,-183.19 549.33,-170.11 627.86,-154 632.9,-152.97 638.16,-151.77 643.36,-150.51"/>
<polygon fill="midnightblue" stroke="midnightblue" points="644.34,-153.87 653.19,-148.04 642.64,-147.08 644.34,-153.87"/>
</g>
<!-- Node8&#45;&gt;Node18 -->
<g id="edge27" class="edge">
<title>Node8&#45;&gt;Node18</title>
<path fill="none" stroke="midnightblue" d="M338.33,-190.09C348.02,-174.85 369.5,-143.45 393.86,-123 412.52,-107.34 436.79,-94.26 455.71,-85.34"/>
<polygon fill="midnightblue" stroke="midnightblue" points="457.42,-88.41 465.06,-81.07 454.51,-82.04 457.42,-88.41"/>
</g>
<!-- Node10&#45;&gt;Node4 -->
<g id="edge11" class="edge">
<title>Node10&#45;&gt;Node4</title>
<path fill="none" stroke="midnightblue" d="M145.78,-56.4C138.29,-47.66 128.65,-36.41 120.83,-27.3"/>
<polygon fill="midnightblue" stroke="midnightblue" points="123.45,-24.97 114.29,-19.66 118.14,-29.53 123.45,-24.97"/>
</g>
<!-- Node10&#45;&gt;Node7 -->
<g id="edge10" class="edge">
<title>Node10&#45;&gt;Node7</title>
<path fill="none" stroke="midnightblue" d="M161.89,-56.4C164.21,-48.29 167.15,-38.01 169.64,-29.28"/>
<polygon fill="midnightblue" stroke="midnightblue" points="173.01,-30.23 172.39,-19.66 166.28,-28.31 173.01,-30.23"/>
</g>
<!-- Node11 -->
<g id="node11" class="node">
<title>Node11</title>
<g id="a_node11"><a xlink:href="v8config_8h.html" target="_top" xlink:title=" ">
<polygon fill="white" stroke="black" points="729.86,-0.5 729.86,-19.5 789.86,-19.5 789.86,-0.5 729.86,-0.5"/>
<text text-anchor="middle" x="759.86" y="-7.5" font-family="Helvetica,sans-Serif" font-size="10.00">v8config.h</text>
</a>
</g>
</g>
<!-- Node10&#45;&gt;Node11 -->
<g id="edge12" class="edge">
<title>Node10&#45;&gt;Node11</title>
<path fill="none" stroke="midnightblue" d="M204.55,-57.6C207.35,-57.01 210.14,-56.47 212.86,-56 310.45,-39.26 610.1,-20.04 719.42,-13.4"/>
<polygon fill="midnightblue" stroke="midnightblue" points="719.92,-16.88 729.69,-12.78 719.5,-9.89 719.92,-16.88"/>
</g>
<!-- Node12&#45;&gt;Node11 -->
<g id="edge21" class="edge">
<title>Node12&#45;&gt;Node11</title>
<path fill="none" stroke="midnightblue" d="M277.36,-128.93C304.74,-111.98 369.29,-74.23 428.86,-56 530.3,-24.96 655.77,-15.3 719.14,-12.32"/>
<polygon fill="midnightblue" stroke="midnightblue" points="719.66,-15.8 729.5,-11.87 719.35,-8.81 719.66,-15.8"/>
</g>
<!-- Node13 -->
<g id="node13" class="node">
<title>Node13</title>
<g id="a_node13"><a xlink:href="v8-platform_8h.html" target="_top" xlink:title=" ">
<polygon fill="white" stroke="black" points="222.36,-62 222.36,-81 295.36,-81 295.36,-62 222.36,-62"/>
<text text-anchor="middle" x="258.86" y="-69" font-family="Helvetica,sans-Serif" font-size="10.00">v8&#45;platform.h</text>
</a>
</g>
</g>
<!-- Node12&#45;&gt;Node13 -->
<g id="edge14" class="edge">
<title>Node12&#45;&gt;Node13</title>
<path fill="none" stroke="midnightblue" d="M263.19,-128.73C262.46,-119.18 261.26,-103.62 260.31,-91.28"/>
<polygon fill="midnightblue" stroke="midnightblue" points="263.78,-90.83 259.53,-81.13 256.81,-91.37 263.78,-90.83"/>
</g>
<!-- Node13&#45;&gt;Node4 -->
<g id="edge16" class="edge">
<title>Node13&#45;&gt;Node4</title>
<path fill="none" stroke="midnightblue" d="M237.09,-61.98C211.13,-51.81 167.55,-34.76 138.03,-23.2"/>
<polygon fill="midnightblue" stroke="midnightblue" points="139.19,-19.9 128.6,-19.51 136.64,-26.41 139.19,-19.9"/>
</g>
<!-- Node13&#45;&gt;Node7 -->
<g id="edge15" class="edge">
<title>Node13&#45;&gt;Node7</title>
<path fill="none" stroke="midnightblue" d="M246.83,-61.98C233.36,-52.43 211.3,-36.81 195.15,-25.37"/>
<polygon fill="midnightblue" stroke="midnightblue" points="197.06,-22.43 186.88,-19.51 193.01,-28.15 197.06,-22.43"/>
</g>
<!-- Node13&#45;&gt;Node11 -->
<g id="edge20" class="edge">
<title>Node13&#45;&gt;Node11</title>
<path fill="none" stroke="midnightblue" d="M285.38,-62C293.2,-59.75 301.82,-57.53 309.86,-56 459.52,-27.48 640.84,-16.34 719.84,-12.62"/>
<polygon fill="midnightblue" stroke="midnightblue" points="720.02,-16.12 729.85,-12.16 719.7,-9.12 720.02,-16.12"/>
</g>
<!-- Node14 -->
<g id="node14" class="node">
<title>Node14</title>
<g id="a_node14"><a xlink:title=" ">
<polygon fill="white" stroke="#bfbfbf" points="227.36,-0.5 227.36,-19.5 274.36,-19.5 274.36,-0.5 227.36,-0.5"/>
<text text-anchor="middle" x="250.86" y="-7.5" font-family="Helvetica,sans-Serif" font-size="10.00">stdlib.h</text>
</a>
</g>
</g>
<!-- Node13&#45;&gt;Node14 -->
<g id="edge17" class="edge">
<title>Node13&#45;&gt;Node14</title>
<path fill="none" stroke="midnightblue" d="M257.72,-61.98C256.59,-53.58 254.83,-40.48 253.37,-29.66"/>
<polygon fill="midnightblue" stroke="midnightblue" points="256.81,-28.95 252.01,-19.51 249.87,-29.89 256.81,-28.95"/>
</g>
<!-- Node15 -->
<g id="node15" class="node">
<title>Node15</title>
<g id="a_node15"><a xlink:title=" ">
<polygon fill="white" stroke="#bfbfbf" points="292.36,-0.5 292.36,-19.5 343.36,-19.5 343.36,-0.5 292.36,-0.5"/>
<text text-anchor="middle" x="317.86" y="-7.5" font-family="Helvetica,sans-Serif" font-size="10.00">memory</text>
</a>
</g>
</g>
<!-- Node13&#45;&gt;Node15 -->
<g id="edge18" class="edge">
<title>Node13&#45;&gt;Node15</title>
<path fill="none" stroke="midnightblue" d="M267.32,-61.98C276.43,-52.78 291.13,-37.96 302.34,-26.66"/>
<polygon fill="midnightblue" stroke="midnightblue" points="304.87,-29.07 309.43,-19.51 299.9,-24.15 304.87,-29.07"/>
</g>
<!-- Node16 -->
<g id="node16" class="node">
<title>Node16</title>
<g id="a_node16"><a xlink:title=" ">
<polygon fill="white" stroke="#bfbfbf" points="956.36,-0.5 956.36,-19.5 997.36,-19.5 997.36,-0.5 956.36,-0.5"/>
<text text-anchor="middle" x="976.86" y="-7.5" font-family="Helvetica,sans-Serif" font-size="10.00">string</text>
</a>
</g>
</g>
<!-- Node13&#45;&gt;Node16 -->
<g id="edge19" class="edge">
<title>Node13&#45;&gt;Node16</title>
<path fill="none" stroke="midnightblue" d="M295.67,-67.33C330.1,-64.37 382.96,-59.84 428.86,-56 625.71,-39.52 862.38,-20.28 945.88,-13.51"/>
<polygon fill="midnightblue" stroke="midnightblue" points="946.27,-16.99 955.96,-12.69 945.71,-10.01 946.27,-16.99"/>
</g>
<!-- Node17&#45;&gt;Node9 -->
<g id="edge23" class="edge">
<title>Node17&#45;&gt;Node9</title>
<path fill="none" stroke="midnightblue" d="M672.87,-128.81C646.04,-107.59 576.94,-52.96 543.11,-26.22"/>
<polygon fill="midnightblue" stroke="midnightblue" points="544.95,-23.21 534.94,-19.76 540.61,-28.7 544.95,-23.21"/>
</g>
<!-- Node17&#45;&gt;Node11 -->
<g id="edge26" class="edge">
<title>Node17&#45;&gt;Node11</title>
<path fill="none" stroke="midnightblue" d="M689.09,-128.81C701.45,-108.22 732.72,-56.19 749.24,-28.68"/>
<polygon fill="midnightblue" stroke="midnightblue" points="752.45,-30.13 754.6,-19.76 746.45,-26.53 752.45,-30.13"/>
</g>
<!-- Node17&#45;&gt;Node18 -->
<g id="edge24" class="edge">
<title>Node17&#45;&gt;Node18</title>
<path fill="none" stroke="midnightblue" d="M657.57,-128.87C622.64,-117.4 560.78,-97.09 521.63,-84.24"/>
<polygon fill="midnightblue" stroke="midnightblue" points="522.54,-80.86 511.95,-81.06 520.36,-87.51 522.54,-80.86"/>
</g>
<!-- Node18&#45;&gt;Node9 -->
<g id="edge25" class="edge">
<title>Node18&#45;&gt;Node9</title>
<path fill="none" stroke="midnightblue" d="M491.31,-61.98C496.95,-53.14 505.93,-39.09 513.02,-27.98"/>
<polygon fill="midnightblue" stroke="midnightblue" points="516,-29.82 518.43,-19.51 510.1,-26.05 516,-29.82"/>
</g>
<!-- Node19&#45;&gt;Node5 -->
<g id="edge30" class="edge">
<title>Node19&#45;&gt;Node5</title>
<path fill="none" stroke="midnightblue" d="M646.9,-190.48C596.53,-178.86 507.11,-158.24 458.88,-147.12"/>
<polygon fill="midnightblue" stroke="midnightblue" points="459.5,-143.66 448.97,-144.83 457.92,-150.49 459.5,-143.66"/>
</g>
<!-- Node19&#45;&gt;Node11 -->
<g id="edge41" class="edge">
<title>Node19&#45;&gt;Node11</title>
<path fill="none" stroke="midnightblue" d="M742.37,-191.79C765.81,-185.7 790.6,-174.52 804.86,-154 812.73,-142.69 808.32,-136.34 804.86,-123 800.27,-105.28 792.2,-103.77 784.86,-87 776.53,-67.95 769.4,-45.2 764.91,-29.58"/>
<polygon fill="midnightblue" stroke="midnightblue" points="768.19,-28.32 762.13,-19.63 761.45,-30.2 768.19,-28.32"/>
</g>
<!-- Node19&#45;&gt;Node17 -->
<g id="edge40" class="edge">
<title>Node19&#45;&gt;Node17</title>
<path fill="none" stroke="midnightblue" d="M683.86,-190.48C683.86,-182.08 683.86,-168.98 683.86,-158.16"/>
<polygon fill="midnightblue" stroke="midnightblue" points="687.36,-158.01 683.86,-148.01 680.36,-158.01 687.36,-158.01"/>
</g>
<!-- Node20 -->
<g id="node20" class="node">
<title>Node20</title>
<g id="a_node20"><a xlink:title=" ">
<polygon fill="white" stroke="#bfbfbf" points="749.86,-129 749.86,-148 795.86,-148 795.86,-129 749.86,-129"/>
<text text-anchor="middle" x="772.86" y="-136" font-family="Helvetica,sans-Serif" font-size="10.00">cstdint</text>
</a>
</g>
</g>
<!-- Node19&#45;&gt;Node20 -->
<g id="edge31" class="edge">
<title>Node19&#45;&gt;Node20</title>
<path fill="none" stroke="midnightblue" d="M696.62,-190.48C710.89,-180.93 734.26,-165.31 751.37,-153.87"/>
<polygon fill="midnightblue" stroke="midnightblue" points="753.77,-156.48 760.14,-148.01 749.88,-150.66 753.77,-156.48"/>
</g>
<!-- Node21 -->
<g id="node21" class="node">
<title>Node21</title>
<g id="a_node21"><a xlink:href="finalizer-trait_8h.html" target="_top" xlink:title=" ">
<polygon fill="white" stroke="black" points="505.36,-123.5 505.36,-153.5 618.36,-153.5 618.36,-123.5 505.36,-123.5"/>
<text text-anchor="start" x="513.36" y="-141.5" font-family="Helvetica,sans-Serif" font-size="10.00">cppgc/internal/finalizer</text>
<text text-anchor="middle" x="561.86" y="-130.5" font-family="Helvetica,sans-Serif" font-size="10.00">&#45;trait.h</text>
</a>
</g>
</g>
<!-- Node19&#45;&gt;Node21 -->
<g id="edge32" class="edge">
<title>Node19&#45;&gt;Node21</title>
<path fill="none" stroke="midnightblue" d="M666.38,-190.48C649.09,-182.04 622.05,-168.86 599.81,-158.01"/>
<polygon fill="midnightblue" stroke="midnightblue" points="601.14,-154.76 590.62,-153.52 598.07,-161.05 601.14,-154.76"/>
</g>
<!-- Node22 -->
<g id="node22" class="node">
<title>Node22</title>
<g id="a_node22"><a xlink:href="name-trait_8h.html" target="_top" xlink:title=" ">
<polygon fill="white" stroke="black" points="851.86,-123.5 851.86,-153.5 955.86,-153.5 955.86,-123.5 851.86,-123.5"/>
<text text-anchor="start" x="859.86" y="-141.5" font-family="Helvetica,sans-Serif" font-size="10.00">cppgc/internal/name</text>
<text text-anchor="middle" x="903.86" y="-130.5" font-family="Helvetica,sans-Serif" font-size="10.00">&#45;trait.h</text>
</a>
</g>
</g>
<!-- Node19&#45;&gt;Node22 -->
<g id="edge35" class="edge">
<title>Node19&#45;&gt;Node22</title>
<path fill="none" stroke="midnightblue" d="M715.39,-190.48C748.38,-181.55 801.04,-167.31 842.32,-156.14"/>
<polygon fill="midnightblue" stroke="midnightblue" points="843.28,-159.51 852.01,-153.52 841.45,-152.76 843.28,-159.51"/>
</g>
<!-- Node21&#45;&gt;Node9 -->
<g id="edge33" class="edge">
<title>Node21&#45;&gt;Node9</title>
<path fill="none" stroke="midnightblue" d="M559.35,-123.46C556.23,-107.06 550.41,-79.21 542.86,-56 539.92,-46.93 535.89,-37.14 532.3,-29.01"/>
<polygon fill="midnightblue" stroke="midnightblue" points="535.43,-27.45 528.11,-19.79 529.06,-30.35 535.43,-27.45"/>
</g>
<!-- Node21&#45;&gt;Node18 -->
<g id="edge34" class="edge">
<title>Node21&#45;&gt;Node18</title>
<path fill="none" stroke="midnightblue" d="M545.37,-123.4C533.17,-112.96 516.56,-98.75 503.99,-88"/>
<polygon fill="midnightblue" stroke="midnightblue" points="505.9,-85.03 496.03,-81.19 501.36,-90.35 505.9,-85.03"/>
</g>
<!-- Node22&#45;&gt;Node2 -->
<g id="edge36" class="edge">
<title>Node22&#45;&gt;Node2</title>
<path fill="none" stroke="midnightblue" d="M921.22,-123.4C934.19,-112.86 951.89,-98.48 965.17,-87.69"/>
<polygon fill="midnightblue" stroke="midnightblue" points="967.61,-90.22 973.16,-81.19 963.2,-84.78 967.61,-90.22"/>
</g>
<!-- Node22&#45;&gt;Node11 -->
<g id="edge39" class="edge">
<title>Node22&#45;&gt;Node11</title>
<path fill="none" stroke="midnightblue" d="M873.71,-123.48C856.29,-114.52 834.58,-101.81 817.86,-87 798.34,-69.7 780.93,-45 770.39,-28.51"/>
<polygon fill="midnightblue" stroke="midnightblue" points="773.27,-26.51 765.02,-19.86 767.33,-30.2 773.27,-26.51"/>
</g>
<!-- Node23 -->
<g id="node23" class="node">
<title>Node23</title>
<g id="a_node23"><a xlink:href="name-provider_8h.html" target="_top" xlink:title=" ">
<polygon fill="white" stroke="black" points="826.36,-62 826.36,-81 941.36,-81 941.36,-62 826.36,-62"/>
<text text-anchor="middle" x="883.86" y="-69" font-family="Helvetica,sans-Serif" font-size="10.00">cppgc/name&#45;provider.h</text>
</a>
</g>
</g>
<!-- Node22&#45;&gt;Node23 -->
<g id="edge37" class="edge">
<title>Node22&#45;&gt;Node23</title>
<path fill="none" stroke="midnightblue" d="M899.52,-123.4C896.59,-113.86 892.69,-101.18 889.51,-90.86"/>
<polygon fill="midnightblue" stroke="midnightblue" points="892.83,-89.72 886.54,-81.19 886.14,-91.78 892.83,-89.72"/>
</g>
<!-- Node23&#45;&gt;Node11 -->
<g id="edge38" class="edge">
<title>Node23&#45;&gt;Node11</title>
<path fill="none" stroke="midnightblue" d="M866.1,-61.98C845.38,-52.03 810.91,-35.49 786.88,-23.96"/>
<polygon fill="midnightblue" stroke="midnightblue" points="788.13,-20.68 777.6,-19.51 785.1,-26.99 788.13,-20.68"/>
</g>
<!-- Node24&#45;&gt;Node11 -->
<g id="edge46" class="edge">
<title>Node24&#45;&gt;Node11</title>
<path fill="none" stroke="midnightblue" d="M1068.85,-128.91C1062.4,-111.92 1045.57,-74.12 1017.86,-56 982.63,-32.96 863.36,-19.7 800.07,-14.14"/>
<polygon fill="midnightblue" stroke="midnightblue" points="800.31,-10.64 790.05,-13.28 799.71,-17.62 800.31,-10.64"/>
</g>
<!-- Node25 -->
<g id="node25" class="node">
<title>Node25</title>
<g id="a_node25"><a xlink:href="source-location_8h.html" target="_top" xlink:title=" ">
<polygon fill="white" stroke="black" points="1065.36,-62 1065.36,-81 1184.36,-81 1184.36,-62 1065.36,-62"/>
<text text-anchor="middle" x="1124.86" y="-69" font-family="Helvetica,sans-Serif" font-size="10.00">cppgc/source&#45;location.h</text>
</a>
</g>
</g>
<!-- Node24&#45;&gt;Node25 -->
<g id="edge43" class="edge">
<title>Node24&#45;&gt;Node25</title>
<path fill="none" stroke="midnightblue" d="M1079.01,-128.73C1087.28,-118.6 1101.06,-101.69 1111.37,-89.06"/>
<polygon fill="midnightblue" stroke="midnightblue" points="1114.22,-91.09 1117.83,-81.13 1108.8,-86.67 1114.22,-91.09"/>
</g>
<!-- Node25&#45;&gt;Node11 -->
<g id="edge45" class="edge">
<title>Node25&#45;&gt;Node11</title>
<path fill="none" stroke="midnightblue" d="M1082.66,-61.93C1072.28,-59.9 1061.18,-57.81 1050.86,-56 961.51,-40.34 856.21,-24.77 800,-16.69"/>
<polygon fill="midnightblue" stroke="midnightblue" points="800.49,-13.22 790.09,-15.27 799.49,-20.15 800.49,-13.22"/>
</g>
<!-- Node25&#45;&gt;Node16 -->
<g id="edge44" class="edge">
<title>Node25&#45;&gt;Node16</title>
<path fill="none" stroke="midnightblue" d="M1103.66,-61.98C1078.35,-51.8 1035.84,-34.71 1007.1,-23.15"/>
<polygon fill="midnightblue" stroke="midnightblue" points="1008.14,-19.8 997.55,-19.32 1005.53,-26.29 1008.14,-19.8"/>
</g>
</g>
</svg>
