<?xml version="1.0" encoding="UTF-8" standalone="no"?>
<!DOCTYPE svg PUBLIC "-//W3C//DTD SVG 1.1//EN"
 "http://www.w3.org/Graphics/SVG/1.1/DTD/svg11.dtd">
<!-- Generated by graphviz version 2.49.3 (20211027.1534)
 -->
<!-- Title: include/cppgc/sentinel&#45;pointer.h Pages: 1 -->
<svg width="632pt" height="542pt"
 viewBox="0.00 0.00 632.00 542.00" xmlns="http://www.w3.org/2000/svg" xmlns:xlink="http://www.w3.org/1999/xlink">
<g id="graph0" class="graph" transform="scale(1 1) rotate(0) translate(4 538)">
<title>include/cppgc/sentinel&#45;pointer.h</title>
<polygon fill="white" stroke="transparent" points="-4,4 -4,-538 628,-538 628,4 -4,4"/>
<!-- Node1 -->
<g id="node1" class="node">
<title>Node1</title>
<g id="a_node1"><a xlink:title=" ">
<polygon fill="#bfbfbf" stroke="black" points="211.5,-503.5 211.5,-533.5 324.5,-533.5 324.5,-503.5 211.5,-503.5"/>
<text text-anchor="start" x="219.5" y="-521.5" font-family="Helvetica,sans-Serif" font-size="10.00">include/cppgc/sentinel</text>
<text text-anchor="middle" x="268" y="-510.5" font-family="Helvetica,sans-Serif" font-size="10.00">&#45;pointer.h</text>
</a>
</g>
</g>
<!-- Node2 -->
<g id="node2" class="node">
<title>Node2</title>
<g id="a_node2"><a xlink:href="write-barrier_8h.html" target="_top" xlink:title=" ">
<polygon fill="white" stroke="black" points="212.5,-436.5 212.5,-466.5 323.5,-466.5 323.5,-436.5 212.5,-436.5"/>
<text text-anchor="start" x="220.5" y="-454.5" font-family="Helvetica,sans-Serif" font-size="10.00">include/cppgc/internal</text>
<text text-anchor="middle" x="268" y="-443.5" font-family="Helvetica,sans-Serif" font-size="10.00">/write&#45;barrier.h</text>
</a>
</g>
</g>
<!-- Node1&#45;&gt;Node2 -->
<g id="edge1" class="edge">
<title>Node1&#45;&gt;Node2</title>
<path fill="none" stroke="midnightblue" d="M268,-493.11C268,-484.15 268,-474.32 268,-466.58"/>
<polygon fill="midnightblue" stroke="midnightblue" points="264.5,-493.4 268,-503.4 271.5,-493.4 264.5,-493.4"/>
</g>
<!-- Node6 -->
<g id="node6" class="node">
<title>Node6</title>
<g id="a_node6"><a xlink:href="member_8h.html" target="_top" xlink:title=" ">
<polygon fill="white" stroke="black" points="265,-313.5 265,-332.5 387,-332.5 387,-313.5 265,-313.5"/>
<text text-anchor="middle" x="326" y="-320.5" font-family="Helvetica,sans-Serif" font-size="10.00">include/cppgc/member.h</text>
</a>
</g>
</g>
<!-- Node1&#45;&gt;Node6 -->
<g id="edge22" class="edge">
<title>Node1&#45;&gt;Node6</title>
<path fill="none" stroke="midnightblue" d="M304.12,-497.8C315.15,-489.81 325.95,-479.48 332,-467 354.44,-420.72 336.67,-355.78 329.04,-332.62"/>
<polygon fill="midnightblue" stroke="midnightblue" points="302.07,-494.97 295.72,-503.46 305.98,-500.78 302.07,-494.97"/>
</g>
<!-- Node9 -->
<g id="node9" class="node">
<title>Node9</title>
<g id="a_node9"><a xlink:href="persistent_8h.html" target="_top" xlink:title=" ">
<polygon fill="white" stroke="black" points="0,-67.5 0,-86.5 130,-86.5 130,-67.5 0,-67.5"/>
<text text-anchor="middle" x="65" y="-74.5" font-family="Helvetica,sans-Serif" font-size="10.00">include/cppgc/persistent.h</text>
</a>
</g>
</g>
<!-- Node1&#45;&gt;Node9 -->
<g id="edge23" class="edge">
<title>Node1&#45;&gt;Node9</title>
<path fill="none" stroke="midnightblue" d="M201.75,-503.54C142.52,-486.72 65,-452 65,-385.5 65,-385.5 65,-385.5 65,-193.5 65,-153.6 65,-105.94 65,-86.69"/>
<polygon fill="midnightblue" stroke="midnightblue" points="200.88,-506.93 211.45,-506.19 202.73,-500.18 200.88,-506.93"/>
</g>
<!-- Node3 -->
<g id="node3" class="node">
<title>Node3</title>
<g id="a_node3"><a xlink:href="heap-consistency_8h.html" target="_top" xlink:title=" ">
<polygon fill="white" stroke="black" points="93.5,-369.5 93.5,-399.5 194.5,-399.5 194.5,-369.5 93.5,-369.5"/>
<text text-anchor="start" x="101.5" y="-387.5" font-family="Helvetica,sans-Serif" font-size="10.00">include/cppgc/heap</text>
<text text-anchor="middle" x="144" y="-376.5" font-family="Helvetica,sans-Serif" font-size="10.00">&#45;consistency.h</text>
</a>
</g>
</g>
<!-- Node2&#45;&gt;Node3 -->
<g id="edge2" class="edge">
<title>Node2&#45;&gt;Node3</title>
<path fill="none" stroke="midnightblue" d="M232.16,-431.71C212.61,-421.46 188.8,-408.98 170.85,-399.58"/>
<polygon fill="midnightblue" stroke="midnightblue" points="230.61,-434.85 241.09,-436.4 233.86,-428.65 230.61,-434.85"/>
</g>
<!-- Node4 -->
<g id="node4" class="node">
<title>Node4</title>
<g id="a_node4"><a xlink:href="pointer-policies_8h.html" target="_top" xlink:title=" ">
<polygon fill="white" stroke="black" points="212.5,-369.5 212.5,-399.5 323.5,-399.5 323.5,-369.5 212.5,-369.5"/>
<text text-anchor="start" x="220.5" y="-387.5" font-family="Helvetica,sans-Serif" font-size="10.00">include/cppgc/internal</text>
<text text-anchor="middle" x="268" y="-376.5" font-family="Helvetica,sans-Serif" font-size="10.00">/pointer&#45;policies.h</text>
</a>
</g>
</g>
<!-- Node2&#45;&gt;Node4 -->
<g id="edge3" class="edge">
<title>Node2&#45;&gt;Node4</title>
<path fill="none" stroke="midnightblue" d="M268,-426.11C268,-417.15 268,-407.32 268,-399.58"/>
<polygon fill="midnightblue" stroke="midnightblue" points="264.5,-426.4 268,-436.4 271.5,-426.4 264.5,-426.4"/>
</g>
<!-- Node10 -->
<g id="node10" class="node">
<title>Node10</title>
<g id="a_node10"><a xlink:href="v8-cppgc_8h.html" target="_top" xlink:title=" ">
<polygon fill="white" stroke="black" points="411,-67.5 411,-86.5 509,-86.5 509,-67.5 411,-67.5"/>
<text text-anchor="middle" x="460" y="-74.5" font-family="Helvetica,sans-Serif" font-size="10.00">include/v8&#45;cppgc.h</text>
</a>
</g>
</g>
<!-- Node2&#45;&gt;Node10 -->
<g id="edge21" class="edge">
<title>Node2&#45;&gt;Node10</title>
<path fill="none" stroke="midnightblue" d="M333.61,-440.93C436.45,-424.06 624,-384.94 624,-324 624,-324 624,-324 624,-193.5 624,-131.86 545.6,-100.24 497.21,-86.6"/>
<polygon fill="midnightblue" stroke="midnightblue" points="332.94,-437.49 323.62,-442.54 334.05,-444.4 332.94,-437.49"/>
</g>
<!-- Node5 -->
<g id="node5" class="node">
<title>Node5</title>
<g id="a_node5"><a xlink:href="cross-thread-persistent_8h.html" target="_top" xlink:title=" ">
<polygon fill="white" stroke="black" points="106,-0.5 106,-30.5 210,-30.5 210,-0.5 106,-0.5"/>
<text text-anchor="start" x="114" y="-18.5" font-family="Helvetica,sans-Serif" font-size="10.00">include/cppgc/cross</text>
<text text-anchor="middle" x="158" y="-7.5" font-family="Helvetica,sans-Serif" font-size="10.00">&#45;thread&#45;persistent.h</text>
</a>
</g>
</g>
<!-- Node4&#45;&gt;Node5 -->
<g id="edge4" class="edge">
<title>Node4&#45;&gt;Node5</title>
<path fill="none" stroke="midnightblue" d="M232.62,-364.01C200.46,-343.41 158,-307.65 158,-262.5 158,-262.5 158,-262.5 158,-132 158,-95.51 158,-52.52 158,-30.72"/>
<polygon fill="midnightblue" stroke="midnightblue" points="231.02,-367.14 241.37,-369.41 234.7,-361.18 231.02,-367.14"/>
</g>
<!-- Node4&#45;&gt;Node6 -->
<g id="edge5" class="edge">
<title>Node4&#45;&gt;Node6</title>
<path fill="none" stroke="midnightblue" d="M288.96,-362C298.84,-351.86 310.08,-340.33 317.56,-332.66"/>
<polygon fill="midnightblue" stroke="midnightblue" points="286.22,-359.8 281.75,-369.4 291.23,-364.68 286.22,-359.8"/>
</g>
<!-- Node8 -->
<g id="node8" class="node">
<title>Node8</title>
<g id="a_node8"><a xlink:href="visitor_8h.html" target="_top" xlink:title=" ">
<polygon fill="white" stroke="black" points="186.5,-123.5 186.5,-142.5 299.5,-142.5 299.5,-123.5 186.5,-123.5"/>
<text text-anchor="middle" x="243" y="-130.5" font-family="Helvetica,sans-Serif" font-size="10.00">include/cppgc/visitor.h</text>
</a>
</g>
</g>
<!-- Node4&#45;&gt;Node8 -->
<g id="edge20" class="edge">
<title>Node4&#45;&gt;Node8</title>
<path fill="none" stroke="midnightblue" d="M261.7,-359.59C259.66,-351.22 257.53,-341.74 256,-333 244.15,-265.3 241.24,-247.72 242,-179 242.14,-166.34 242.5,-151.68 242.75,-142.63"/>
<polygon fill="midnightblue" stroke="midnightblue" points="258.34,-360.6 264.18,-369.45 265.13,-358.89 258.34,-360.6"/>
</g>
<!-- Node4&#45;&gt;Node9 -->
<g id="edge19" class="edge">
<title>Node4&#45;&gt;Node9</title>
<path fill="none" stroke="midnightblue" d="M202.81,-367.37C182.05,-359.69 160.27,-348.65 144,-333 119.19,-309.15 112,-296.91 112,-262.5 112,-262.5 112,-262.5 112,-193.5 112,-150.85 84.17,-105.45 71.34,-86.78"/>
<polygon fill="midnightblue" stroke="midnightblue" points="201.66,-370.68 212.25,-370.67 203.96,-364.07 201.66,-370.68"/>
</g>
<!-- Node7 -->
<g id="node7" class="node">
<title>Node7</title>
<g id="a_node7"><a xlink:href="ephemeron-pair_8h.html" target="_top" xlink:title=" ">
<polygon fill="white" stroke="black" points="262,-179.5 262,-209.5 390,-209.5 390,-179.5 262,-179.5"/>
<text text-anchor="start" x="270" y="-197.5" font-family="Helvetica,sans-Serif" font-size="10.00">include/cppgc/ephemeron</text>
<text text-anchor="middle" x="326" y="-186.5" font-family="Helvetica,sans-Serif" font-size="10.00">&#45;pair.h</text>
</a>
</g>
</g>
<!-- Node6&#45;&gt;Node7 -->
<g id="edge6" class="edge">
<title>Node6&#45;&gt;Node7</title>
<path fill="none" stroke="midnightblue" d="M326,-303.11C326,-277.63 326,-232.81 326,-209.89"/>
<polygon fill="midnightblue" stroke="midnightblue" points="322.5,-303.31 326,-313.31 329.5,-303.31 322.5,-303.31"/>
</g>
<!-- Node6&#45;&gt;Node8 -->
<g id="edge18" class="edge">
<title>Node6&#45;&gt;Node8</title>
<path fill="none" stroke="midnightblue" d="M311.9,-305.65C294.88,-284.91 266.81,-247.33 253,-210 244.41,-186.78 243.03,-157.18 242.91,-142.73"/>
<polygon fill="midnightblue" stroke="midnightblue" points="309.34,-308.04 318.45,-313.46 314.71,-303.55 309.34,-308.04"/>
</g>
<!-- Node11 -->
<g id="node11" class="node">
<title>Node11</title>
<g id="a_node11"><a xlink:href="liveness-broker_8h.html" target="_top" xlink:title=" ">
<polygon fill="white" stroke="black" points="360,-246.5 360,-276.5 476,-276.5 476,-246.5 360,-246.5"/>
<text text-anchor="start" x="368" y="-264.5" font-family="Helvetica,sans-Serif" font-size="10.00">include/cppgc/liveness</text>
<text text-anchor="middle" x="418" y="-253.5" font-family="Helvetica,sans-Serif" font-size="10.00">&#45;broker.h</text>
</a>
</g>
</g>
<!-- Node6&#45;&gt;Node11 -->
<g id="edge12" class="edge">
<title>Node6&#45;&gt;Node11</title>
<path fill="none" stroke="midnightblue" d="M347.63,-308.01C362.31,-298.52 381.63,-286.02 396.32,-276.52"/>
<polygon fill="midnightblue" stroke="midnightblue" points="345.68,-305.11 339.18,-313.48 349.48,-310.98 345.68,-305.11"/>
</g>
<!-- Node7&#45;&gt;Node8 -->
<g id="edge7" class="edge">
<title>Node7&#45;&gt;Node8</title>
<path fill="none" stroke="midnightblue" d="M298.08,-173.48C283.46,-163 266.31,-150.71 255.08,-142.66"/>
<polygon fill="midnightblue" stroke="midnightblue" points="296.16,-176.42 306.33,-179.4 300.24,-170.73 296.16,-176.42"/>
</g>
<!-- Node8&#45;&gt;Node5 -->
<g id="edge8" class="edge">
<title>Node8&#45;&gt;Node5</title>
<path fill="none" stroke="midnightblue" d="M230.67,-115.24C213.85,-92.39 184.04,-51.88 168.34,-30.55"/>
<polygon fill="midnightblue" stroke="midnightblue" points="227.86,-117.34 236.61,-123.32 233.5,-113.19 227.86,-117.34"/>
</g>
<!-- Node8&#45;&gt;Node9 -->
<g id="edge9" class="edge">
<title>Node8&#45;&gt;Node9</title>
<path fill="none" stroke="midnightblue" d="M204.88,-120.44C171.32,-110.26 123.23,-95.66 93.07,-86.52"/>
<polygon fill="midnightblue" stroke="midnightblue" points="204.21,-123.89 214.8,-123.44 206.24,-117.19 204.21,-123.89"/>
</g>
<!-- Node8&#45;&gt;Node10 -->
<g id="edge11" class="edge">
<title>Node8&#45;&gt;Node10</title>
<path fill="none" stroke="midnightblue" d="M287.11,-121.02C328.1,-110.82 388.3,-95.84 425.78,-86.52"/>
<polygon fill="midnightblue" stroke="midnightblue" points="286.24,-117.63 277.38,-123.44 287.93,-124.43 286.24,-117.63"/>
</g>
<!-- Node9&#45;&gt;Node5 -->
<g id="edge10" class="edge">
<title>Node9&#45;&gt;Node5</title>
<path fill="none" stroke="midnightblue" d="M86.87,-62.01C101.7,-52.52 121.24,-40.02 136.08,-30.52"/>
<polygon fill="midnightblue" stroke="midnightblue" points="84.86,-59.14 78.32,-67.48 88.63,-65.03 84.86,-59.14"/>
</g>
<!-- Node11&#45;&gt;Node7 -->
<g id="edge13" class="edge">
<title>Node11&#45;&gt;Node7</title>
<path fill="none" stroke="midnightblue" d="M389.62,-240.45C375.47,-230.45 358.69,-218.6 345.92,-209.58"/>
<polygon fill="midnightblue" stroke="midnightblue" points="387.85,-243.48 398.04,-246.4 391.89,-237.77 387.85,-243.48"/>
</g>
<!-- Node11&#45;&gt;Node8 -->
<g id="edge17" class="edge">
<title>Node11&#45;&gt;Node8</title>
<path fill="none" stroke="midnightblue" d="M418.56,-236.35C417.66,-218.32 413.48,-194.25 399,-179 373.48,-152.12 333.01,-140.98 299.69,-136.5"/>
<polygon fill="midnightblue" stroke="midnightblue" points="415.06,-236.49 418.76,-246.41 422.06,-236.35 415.06,-236.49"/>
</g>
<!-- Node12 -->
<g id="node12" class="node">
<title>Node12</title>
<g id="a_node12"><a xlink:href="prefinalizer-handler_8h.html" target="_top" xlink:title=" ">
<polygon fill="white" stroke="black" points="484.5,-179.5 484.5,-209.5 595.5,-209.5 595.5,-179.5 484.5,-179.5"/>
<text text-anchor="start" x="492.5" y="-197.5" font-family="Helvetica,sans-Serif" font-size="10.00">include/cppgc/internal</text>
<text text-anchor="middle" x="540" y="-186.5" font-family="Helvetica,sans-Serif" font-size="10.00">/prefinalizer&#45;handler.h</text>
</a>
</g>
</g>
<!-- Node11&#45;&gt;Node12 -->
<g id="edge14" class="edge">
<title>Node11&#45;&gt;Node12</title>
<path fill="none" stroke="midnightblue" d="M453.52,-241.57C472.71,-231.35 496,-218.94 513.58,-209.58"/>
<polygon fill="midnightblue" stroke="midnightblue" points="451.65,-238.6 444.47,-246.4 454.94,-244.78 451.65,-238.6"/>
</g>
<!-- Node13 -->
<g id="node13" class="node">
<title>Node13</title>
<g id="a_node13"><a xlink:href="prefinalizer_8h.html" target="_top" xlink:title=" ">
<polygon fill="white" stroke="black" points="425.5,-123.5 425.5,-142.5 558.5,-142.5 558.5,-123.5 425.5,-123.5"/>
<text text-anchor="middle" x="492" y="-130.5" font-family="Helvetica,sans-Serif" font-size="10.00">include/cppgc/prefinalizer.h</text>
</a>
</g>
</g>
<!-- Node11&#45;&gt;Node13 -->
<g id="edge16" class="edge">
<title>Node11&#45;&gt;Node13</title>
<path fill="none" stroke="midnightblue" d="M431.38,-237.63C447.98,-209.24 475.51,-162.2 486.86,-142.79"/>
<polygon fill="midnightblue" stroke="midnightblue" points="428.23,-236.08 426.2,-246.48 434.27,-239.61 428.23,-236.08"/>
</g>
<!-- Node12&#45;&gt;Node13 -->
<g id="edge15" class="edge">
<title>Node12&#45;&gt;Node13</title>
<path fill="none" stroke="midnightblue" d="M522.17,-171.4C514.11,-161.41 505.05,-150.18 498.98,-142.66"/>
<polygon fill="midnightblue" stroke="midnightblue" points="519.62,-173.81 528.62,-179.4 525.07,-169.42 519.62,-173.81"/>
</g>
</g>
</svg>
