<?xml version="1.0" encoding="UTF-8" standalone="no"?>
<!DOCTYPE svg PUBLIC "-//W3C//DTD SVG 1.1//EN"
 "http://www.w3.org/Graphics/SVG/1.1/DTD/svg11.dtd">
<!-- Generated by graphviz version 2.49.3 (20211027.1534)
 -->
<!-- Title: include/cppgc/visitor.h Pages: 1 -->
<svg width="1504pt" height="509pt"
 viewBox="0.00 0.00 1504.40 509.00" xmlns="http://www.w3.org/2000/svg" xmlns:xlink="http://www.w3.org/1999/xlink">
<g id="graph0" class="graph" transform="scale(1 1) rotate(0) translate(4 505)">
<title>include/cppgc/visitor.h</title>
<polygon fill="white" stroke="transparent" points="-4,4 -4,-505 1500.4,-505 1500.4,4 -4,4"/>
<!-- Node1 -->
<g id="node1" class="node">
<title>Node1</title>
<g id="a_node1"><a xlink:title=" ">
<polygon fill="#bfbfbf" stroke="black" points="873,-481.5 873,-500.5 986,-500.5 986,-481.5 873,-481.5"/>
<text text-anchor="middle" x="929.5" y="-488.5" font-family="Helvetica,sans-Serif" font-size="10.00">include/cppgc/visitor.h</text>
</a>
</g>
</g>
<!-- Node2 -->
<g id="node2" class="node">
<title>Node2</title>
<g id="a_node2"><a xlink:href="custom-space_8h.html" target="_top" xlink:title=" ">
<polygon fill="white" stroke="black" points="0,-185 0,-204 115,-204 115,-185 0,-185"/>
<text text-anchor="middle" x="57.5" y="-192" font-family="Helvetica,sans-Serif" font-size="10.00">cppgc/custom&#45;space.h</text>
</a>
</g>
</g>
<!-- Node1&#45;&gt;Node2 -->
<g id="edge1" class="edge">
<title>Node1&#45;&gt;Node2</title>
<path fill="none" stroke="midnightblue" d="M872.79,-488.28C688.54,-481.96 118.5,-456.24 118.5,-380 118.5,-380 118.5,-380 118.5,-322 118.5,-278.95 89.48,-235.11 71.48,-212.05"/>
<polygon fill="midnightblue" stroke="midnightblue" points="73.99,-209.59 64.98,-204.01 68.54,-213.99 73.99,-209.59"/>
</g>
<!-- Node4 -->
<g id="node4" class="node">
<title>Node4</title>
<g id="a_node4"><a xlink:href="ephemeron-pair_8h.html" target="_top" xlink:title=" ">
<polygon fill="white" stroke="black" points="825.5,-425.5 825.5,-444.5 945.5,-444.5 945.5,-425.5 825.5,-425.5"/>
<text text-anchor="middle" x="885.5" y="-432.5" font-family="Helvetica,sans-Serif" font-size="10.00">cppgc/ephemeron&#45;pair.h</text>
</a>
</g>
</g>
<!-- Node1&#45;&gt;Node4 -->
<g id="edge3" class="edge">
<title>Node1&#45;&gt;Node4</title>
<path fill="none" stroke="midnightblue" d="M922.23,-481.08C915.96,-473.38 906.71,-462.03 899.07,-452.65"/>
<polygon fill="midnightblue" stroke="midnightblue" points="901.66,-450.29 892.63,-444.75 896.23,-454.71 901.66,-450.29"/>
</g>
<!-- Node5 -->
<g id="node5" class="node">
<title>Node5</title>
<g id="a_node5"><a xlink:href="liveness-broker_8h.html" target="_top" xlink:title=" ">
<polygon fill="white" stroke="black" points="698,-369.5 698,-388.5 817,-388.5 817,-369.5 698,-369.5"/>
<text text-anchor="middle" x="757.5" y="-376.5" font-family="Helvetica,sans-Serif" font-size="10.00">cppgc/liveness&#45;broker.h</text>
</a>
</g>
</g>
<!-- Node1&#45;&gt;Node5 -->
<g id="edge65" class="edge">
<title>Node1&#45;&gt;Node5</title>
<path fill="none" stroke="midnightblue" d="M897.39,-481.5C873.66,-474.23 841.31,-462.21 816.5,-445 797.42,-431.77 780.15,-411.26 769.3,-396.82"/>
<polygon fill="midnightblue" stroke="midnightblue" points="772.12,-394.76 763.41,-388.74 766.47,-398.88 772.12,-394.76"/>
</g>
<!-- Node16 -->
<g id="node16" class="node">
<title>Node16</title>
<g id="a_node16"><a xlink:href="member_8h.html" target="_top" xlink:title=" ">
<polygon fill="white" stroke="black" points="1137,-313.5 1137,-332.5 1226,-332.5 1226,-313.5 1137,-313.5"/>
<text text-anchor="middle" x="1181.5" y="-320.5" font-family="Helvetica,sans-Serif" font-size="10.00">cppgc/member.h</text>
</a>
</g>
</g>
<!-- Node1&#45;&gt;Node16 -->
<g id="edge66" class="edge">
<title>Node1&#45;&gt;Node16</title>
<path fill="none" stroke="midnightblue" d="M982.61,-481.43C1012.29,-474.85 1048.93,-463.63 1077.5,-445 1119.86,-417.37 1154.7,-367.6 1171.2,-341.33"/>
<polygon fill="midnightblue" stroke="midnightblue" points="1174.18,-343.15 1176.42,-332.8 1168.22,-339.5 1174.18,-343.15"/>
</g>
<!-- Node20 -->
<g id="node20" class="node">
<title>Node20</title>
<g id="a_node20"><a xlink:href="pointer-policies_8h.html" target="_top" xlink:title=" ">
<polygon fill="white" stroke="black" points="1054.5,-246.5 1054.5,-276.5 1164.5,-276.5 1164.5,-246.5 1054.5,-246.5"/>
<text text-anchor="start" x="1062.5" y="-264.5" font-family="Helvetica,sans-Serif" font-size="10.00">cppgc/internal/pointer</text>
<text text-anchor="middle" x="1109.5" y="-253.5" font-family="Helvetica,sans-Serif" font-size="10.00">&#45;policies.h</text>
</a>
</g>
</g>
<!-- Node1&#45;&gt;Node20 -->
<g id="edge64" class="edge">
<title>Node1&#45;&gt;Node20</title>
<path fill="none" stroke="midnightblue" d="M937.9,-481.24C946.36,-472.32 959.67,-457.99 970.5,-445 1017.09,-389.12 1067.96,-320.06 1093.29,-285.09"/>
<polygon fill="midnightblue" stroke="midnightblue" points="1096.43,-286.72 1099.44,-276.56 1090.75,-282.62 1096.43,-286.72"/>
</g>
<!-- Node27 -->
<g id="node27" class="node">
<title>Node27</title>
<g id="a_node27"><a xlink:href="trace-trait_8h.html" target="_top" xlink:title=" ">
<polygon fill="white" stroke="black" points="641,-118 641,-137 736,-137 736,-118 641,-118"/>
<text text-anchor="middle" x="688.5" y="-125" font-family="Helvetica,sans-Serif" font-size="10.00">cppgc/trace&#45;trait.h</text>
</a>
</g>
</g>
<!-- Node1&#45;&gt;Node27 -->
<g id="edge68" class="edge">
<title>Node1&#45;&gt;Node27</title>
<path fill="none" stroke="midnightblue" d="M882.17,-481.45C802.57,-465.71 650.5,-429.2 650.5,-380 650.5,-380 650.5,-380 650.5,-322 650.5,-256.51 671.72,-180.85 682.44,-146.78"/>
<polygon fill="midnightblue" stroke="midnightblue" points="685.78,-147.84 685.52,-137.25 679.12,-145.69 685.78,-147.84"/>
</g>
<!-- Node28 -->
<g id="node28" class="node">
<title>Node28</title>
<g id="a_node28"><a xlink:href="type-traits_8h.html" target="_top" xlink:title=" ">
<polygon fill="white" stroke="black" points="1180.5,-56.5 1180.5,-75.5 1276.5,-75.5 1276.5,-56.5 1180.5,-56.5"/>
<text text-anchor="middle" x="1228.5" y="-63.5" font-family="Helvetica,sans-Serif" font-size="10.00">cppgc/type&#45;traits.h</text>
</a>
</g>
</g>
<!-- Node1&#45;&gt;Node28 -->
<g id="edge69" class="edge">
<title>Node1&#45;&gt;Node28</title>
<path fill="none" stroke="midnightblue" d="M986.12,-490.75C1128.56,-491.13 1490.5,-482.04 1490.5,-380 1490.5,-380 1490.5,-380 1490.5,-193.5 1490.5,-156.31 1498.4,-137.69 1471.5,-112 1458.24,-99.33 1354.3,-83.51 1286.72,-74.4"/>
<polygon fill="midnightblue" stroke="midnightblue" points="1287,-70.91 1276.62,-73.05 1286.07,-77.85 1287,-70.91"/>
</g>
<!-- Node29 -->
<g id="node29" class="node">
<title>Node29</title>
<g id="a_node29"><a xlink:href="source-location_8h.html" target="_top" xlink:title=" ">
<polygon fill="white" stroke="black" points="1060,-185 1060,-204 1179,-204 1179,-185 1060,-185"/>
<text text-anchor="middle" x="1119.5" y="-192" font-family="Helvetica,sans-Serif" font-size="10.00">cppgc/source&#45;location.h</text>
</a>
</g>
</g>
<!-- Node1&#45;&gt;Node29 -->
<g id="edge67" class="edge">
<title>Node1&#45;&gt;Node29</title>
<path fill="none" stroke="midnightblue" d="M986.47,-489.93C1122.02,-488.23 1452.5,-474.41 1452.5,-380 1452.5,-380 1452.5,-380 1452.5,-322 1452.5,-264.51 1276.86,-223.8 1180.7,-205.82"/>
<polygon fill="midnightblue" stroke="midnightblue" points="1181.27,-202.37 1170.8,-204 1180,-209.25 1181.27,-202.37"/>
</g>
<!-- Node30 -->
<g id="node30" class="node">
<title>Node30</title>
<g id="a_node30"><a xlink:href="garbage-collected_8h.html" target="_top" xlink:title=" ">
<polygon fill="white" stroke="black" points="481.5,-252 481.5,-271 611.5,-271 611.5,-252 481.5,-252"/>
<text text-anchor="middle" x="546.5" y="-259" font-family="Helvetica,sans-Serif" font-size="10.00">cppgc/garbage&#45;collected.h</text>
</a>
</g>
</g>
<!-- Node1&#45;&gt;Node30 -->
<g id="edge55" class="edge">
<title>Node1&#45;&gt;Node30</title>
<path fill="none" stroke="midnightblue" d="M872.88,-487.44C798.53,-483.07 673.13,-471.85 636.5,-445 580.73,-404.12 557.62,-319.05 549.84,-281.27"/>
<polygon fill="midnightblue" stroke="midnightblue" points="553.22,-280.33 547.9,-271.17 546.35,-281.65 553.22,-280.33"/>
</g>
<!-- Node31 -->
<g id="node31" class="node">
<title>Node31</title>
<g id="a_node31"><a xlink:href="logging_8h.html" target="_top" xlink:title=" ">
<polygon fill="white" stroke="black" points="914,-252 914,-271 1033,-271 1033,-252 914,-252"/>
<text text-anchor="middle" x="973.5" y="-259" font-family="Helvetica,sans-Serif" font-size="10.00">cppgc/internal/logging.h</text>
</a>
</g>
</g>
<!-- Node1&#45;&gt;Node31 -->
<g id="edge61" class="edge">
<title>Node1&#45;&gt;Node31</title>
<path fill="none" stroke="midnightblue" d="M935.82,-481.19C941.73,-472.45 950.25,-458.47 954.5,-445 972.66,-387.39 974.34,-314.98 973.99,-281.32"/>
<polygon fill="midnightblue" stroke="midnightblue" points="977.49,-281.05 973.81,-271.11 970.49,-281.17 977.49,-281.05"/>
</g>
<!-- Node3 -->
<g id="node3" class="node">
<title>Node3</title>
<g id="a_node3"><a xlink:title=" ">
<polygon fill="white" stroke="#bfbfbf" points="253,-56.5 253,-75.5 304,-75.5 304,-56.5 253,-56.5"/>
<text text-anchor="middle" x="278.5" y="-63.5" font-family="Helvetica,sans-Serif" font-size="10.00">stddef.h</text>
</a>
</g>
</g>
<!-- Node2&#45;&gt;Node3 -->
<g id="edge2" class="edge">
<title>Node2&#45;&gt;Node3</title>
<path fill="none" stroke="midnightblue" d="M72.69,-184.81C110.47,-163.18 208.93,-106.82 254.59,-80.68"/>
<polygon fill="midnightblue" stroke="midnightblue" points="256.56,-83.59 263.5,-75.59 253.08,-77.52 256.56,-83.59"/>
</g>
<!-- Node4&#45;&gt;Node5 -->
<g id="edge4" class="edge">
<title>Node4&#45;&gt;Node5</title>
<path fill="none" stroke="midnightblue" d="M865.22,-425.44C844.15,-416.56 810.98,-402.56 787.01,-392.45"/>
<polygon fill="midnightblue" stroke="midnightblue" points="788.26,-389.18 777.69,-388.52 785.54,-395.63 788.26,-389.18"/>
</g>
<!-- Node4&#45;&gt;Node16 -->
<g id="edge54" class="edge">
<title>Node4&#45;&gt;Node16</title>
<path fill="none" stroke="midnightblue" d="M908.73,-425.37C961.14,-405.89 1088.72,-358.48 1148.97,-336.09"/>
<polygon fill="midnightblue" stroke="midnightblue" points="1150.23,-339.36 1158.38,-332.59 1147.79,-332.79 1150.23,-339.36"/>
</g>
<!-- Node6 -->
<g id="node6" class="node">
<title>Node6</title>
<g id="a_node6"><a xlink:href="heap_8h.html" target="_top" xlink:title=" ">
<polygon fill="white" stroke="black" points="206.5,-252 206.5,-271 280.5,-271 280.5,-252 206.5,-252"/>
<text text-anchor="middle" x="243.5" y="-259" font-family="Helvetica,sans-Serif" font-size="10.00">cppgc/heap.h</text>
</a>
</g>
</g>
<!-- Node5&#45;&gt;Node6 -->
<g id="edge5" class="edge">
<title>Node5&#45;&gt;Node6</title>
<path fill="none" stroke="midnightblue" d="M719.29,-369.41C626.84,-348.64 391.32,-295.72 290.48,-273.06"/>
<polygon fill="midnightblue" stroke="midnightblue" points="291.1,-269.61 280.58,-270.83 289.57,-276.44 291.1,-269.61"/>
</g>
<!-- Node10 -->
<g id="node10" class="node">
<title>Node10</title>
<g id="a_node10"><a xlink:href="v8config_8h.html" target="_top" xlink:title=" ">
<polygon fill="white" stroke="black" points="582.5,-56.5 582.5,-75.5 642.5,-75.5 642.5,-56.5 582.5,-56.5"/>
<text text-anchor="middle" x="612.5" y="-63.5" font-family="Helvetica,sans-Serif" font-size="10.00">v8config.h</text>
</a>
</g>
</g>
<!-- Node5&#45;&gt;Node10 -->
<g id="edge53" class="edge">
<title>Node5&#45;&gt;Node10</title>
<path fill="none" stroke="midnightblue" d="M749.8,-369.45C724.22,-340.41 642.07,-241.83 613.5,-143 608.01,-124.03 608.6,-101.26 610.04,-85.62"/>
<polygon fill="midnightblue" stroke="midnightblue" points="613.52,-85.98 611.15,-75.65 606.56,-85.2 613.52,-85.98"/>
</g>
<!-- Node5&#45;&gt;Node16 -->
<g id="edge21" class="edge">
<title>Node5&#45;&gt;Node16</title>
<path fill="none" stroke="midnightblue" d="M817.35,-370.38C899.71,-359.89 1046.83,-341.15 1126.53,-331"/>
<polygon fill="midnightblue" stroke="midnightblue" points="1127.37,-334.42 1136.85,-329.69 1126.49,-327.48 1127.37,-334.42"/>
</g>
<!-- Node5&#45;&gt;Node27 -->
<g id="edge52" class="edge">
<title>Node5&#45;&gt;Node27</title>
<path fill="none" stroke="midnightblue" d="M755.09,-369.27C747.42,-341.48 722.87,-252.58 702.5,-179 699.54,-168.3 696.22,-156.32 693.55,-146.72"/>
<polygon fill="midnightblue" stroke="midnightblue" points="696.93,-145.78 690.88,-137.08 690.18,-147.65 696.93,-145.78"/>
</g>
<!-- Node6&#45;&gt;Node2 -->
<g id="edge10" class="edge">
<title>Node6&#45;&gt;Node2</title>
<path fill="none" stroke="midnightblue" d="M218.8,-251.87C186.19,-240.47 128.62,-220.35 91.8,-207.49"/>
<polygon fill="midnightblue" stroke="midnightblue" points="92.6,-204.06 82.01,-204.06 90.29,-210.67 92.6,-204.06"/>
</g>
<!-- Node7 -->
<g id="node7" class="node">
<title>Node7</title>
<g id="a_node7"><a xlink:title=" ">
<polygon fill="white" stroke="#bfbfbf" points="119,-56.5 119,-75.5 170,-75.5 170,-56.5 119,-56.5"/>
<text text-anchor="middle" x="144.5" y="-63.5" font-family="Helvetica,sans-Serif" font-size="10.00">memory</text>
</a>
</g>
</g>
<!-- Node6&#45;&gt;Node7 -->
<g id="edge6" class="edge">
<title>Node6&#45;&gt;Node7</title>
<path fill="none" stroke="midnightblue" d="M219.09,-251.99C200.39,-244.12 175.63,-230.52 162.5,-210 137.73,-171.3 139.24,-114.54 142.06,-85.55"/>
<polygon fill="midnightblue" stroke="midnightblue" points="145.55,-85.91 143.2,-75.57 138.59,-85.11 145.55,-85.91"/>
</g>
<!-- Node8 -->
<g id="node8" class="node">
<title>Node8</title>
<g id="a_node8"><a xlink:title=" ">
<polygon fill="white" stroke="#bfbfbf" points="171.5,-185 171.5,-204 215.5,-204 215.5,-185 171.5,-185"/>
<text text-anchor="middle" x="193.5" y="-192" font-family="Helvetica,sans-Serif" font-size="10.00">vector</text>
</a>
</g>
</g>
<!-- Node6&#45;&gt;Node8 -->
<g id="edge7" class="edge">
<title>Node6&#45;&gt;Node8</title>
<path fill="none" stroke="midnightblue" d="M236.76,-251.73C228.96,-241.6 215.95,-224.69 206.24,-212.06"/>
<polygon fill="midnightblue" stroke="midnightblue" points="209.01,-209.92 200.14,-204.13 203.46,-214.19 209.01,-209.92"/>
</g>
<!-- Node9 -->
<g id="node9" class="node">
<title>Node9</title>
<g id="a_node9"><a xlink:href="common_8h.html" target="_top" xlink:title=" ">
<polygon fill="white" stroke="black" points="272,-185 272,-204 363,-204 363,-185 272,-185"/>
<text text-anchor="middle" x="317.5" y="-192" font-family="Helvetica,sans-Serif" font-size="10.00">cppgc/common.h</text>
</a>
</g>
</g>
<!-- Node6&#45;&gt;Node9 -->
<g id="edge8" class="edge">
<title>Node6&#45;&gt;Node9</title>
<path fill="none" stroke="midnightblue" d="M253.48,-251.73C265.35,-241.31 285.39,-223.71 299.88,-210.97"/>
<polygon fill="midnightblue" stroke="midnightblue" points="302.47,-213.36 307.68,-204.13 297.86,-208.1 302.47,-213.36"/>
</g>
<!-- Node6&#45;&gt;Node10 -->
<g id="edge20" class="edge">
<title>Node6&#45;&gt;Node10</title>
<path fill="none" stroke="midnightblue" d="M242.82,-251.76C242.04,-235.18 242.88,-199.03 262.5,-179 307.75,-132.79 342.33,-164.01 403.5,-143 436.07,-131.82 442.32,-124.24 474.5,-112 507.64,-99.39 546.05,-87.05 573.91,-78.49"/>
<polygon fill="midnightblue" stroke="midnightblue" points="575.13,-81.78 583.67,-75.51 573.09,-75.08 575.13,-81.78"/>
</g>
<!-- Node11 -->
<g id="node11" class="node">
<title>Node11</title>
<g id="a_node11"><a xlink:href="platform_8h.html" target="_top" xlink:title=" ">
<polygon fill="white" stroke="black" points="381,-185 381,-204 470,-204 470,-185 381,-185"/>
<text text-anchor="middle" x="425.5" y="-192" font-family="Helvetica,sans-Serif" font-size="10.00">cppgc/platform.h</text>
</a>
</g>
</g>
<!-- Node6&#45;&gt;Node11 -->
<g id="edge11" class="edge">
<title>Node6&#45;&gt;Node11</title>
<path fill="none" stroke="midnightblue" d="M267.67,-251.87C299.58,-240.47 355.91,-220.35 391.94,-207.49"/>
<polygon fill="midnightblue" stroke="midnightblue" points="393.28,-210.72 401.52,-204.06 390.93,-204.13 393.28,-210.72"/>
</g>
<!-- Node9&#45;&gt;Node10 -->
<g id="edge9" class="edge">
<title>Node9&#45;&gt;Node10</title>
<path fill="none" stroke="midnightblue" d="M348.77,-184.94C387.95,-173.95 452.61,-154.89 474.5,-143 493.65,-132.59 493.96,-123.46 512.5,-112 533.79,-98.84 559.59,-87.33 579.65,-79.24"/>
<polygon fill="midnightblue" stroke="midnightblue" points="580.98,-82.48 589,-75.56 578.41,-75.97 580.98,-82.48"/>
</g>
<!-- Node11&#45;&gt;Node10 -->
<g id="edge19" class="edge">
<title>Node11&#45;&gt;Node10</title>
<path fill="none" stroke="midnightblue" d="M441.57,-184.95C459.31,-175.34 488.52,-158.98 512.5,-143 542.06,-123.3 574.49,-97.9 594.17,-82.03"/>
<polygon fill="midnightblue" stroke="midnightblue" points="596.46,-84.68 602.02,-75.66 592.05,-79.24 596.46,-84.68"/>
</g>
<!-- Node12 -->
<g id="node12" class="node">
<title>Node12</title>
<g id="a_node12"><a xlink:href="v8-platform_8h.html" target="_top" xlink:title=" ">
<polygon fill="white" stroke="black" points="210,-118 210,-137 283,-137 283,-118 210,-118"/>
<text text-anchor="middle" x="246.5" y="-125" font-family="Helvetica,sans-Serif" font-size="10.00">v8&#45;platform.h</text>
</a>
</g>
</g>
<!-- Node11&#45;&gt;Node12 -->
<g id="edge12" class="edge">
<title>Node11&#45;&gt;Node12</title>
<path fill="none" stroke="midnightblue" d="M401.73,-184.87C370.35,-173.47 314.94,-153.35 279.51,-140.49"/>
<polygon fill="midnightblue" stroke="midnightblue" points="280.68,-137.19 270.08,-137.06 278.29,-143.77 280.68,-137.19"/>
</g>
<!-- Node12&#45;&gt;Node3 -->
<g id="edge13" class="edge">
<title>Node12&#45;&gt;Node3</title>
<path fill="none" stroke="midnightblue" d="M251.08,-117.98C255.74,-109.32 263.09,-95.65 269.01,-84.65"/>
<polygon fill="midnightblue" stroke="midnightblue" points="272.27,-85.97 273.92,-75.51 266.1,-82.66 272.27,-85.97"/>
</g>
<!-- Node12&#45;&gt;Node7 -->
<g id="edge16" class="edge">
<title>Node12&#45;&gt;Node7</title>
<path fill="none" stroke="midnightblue" d="M231.89,-117.98C215.15,-108.21 187.5,-92.08 167.78,-80.58"/>
<polygon fill="midnightblue" stroke="midnightblue" points="169.49,-77.52 159.09,-75.51 165.96,-83.57 169.49,-77.52"/>
</g>
<!-- Node12&#45;&gt;Node10 -->
<g id="edge18" class="edge">
<title>Node12&#45;&gt;Node10</title>
<path fill="none" stroke="midnightblue" d="M271.12,-117.91C277.98,-115.75 285.48,-113.59 292.5,-112 391.81,-89.53 511.16,-76.3 572.2,-70.51"/>
<polygon fill="midnightblue" stroke="midnightblue" points="572.57,-73.99 582.2,-69.57 571.92,-67.02 572.57,-73.99"/>
</g>
<!-- Node13 -->
<g id="node13" class="node">
<title>Node13</title>
<g id="a_node13"><a xlink:title=" ">
<polygon fill="white" stroke="#bfbfbf" points="322.5,-56.5 322.5,-75.5 370.5,-75.5 370.5,-56.5 322.5,-56.5"/>
<text text-anchor="middle" x="346.5" y="-63.5" font-family="Helvetica,sans-Serif" font-size="10.00">stdint.h</text>
</a>
</g>
</g>
<!-- Node12&#45;&gt;Node13 -->
<g id="edge14" class="edge">
<title>Node12&#45;&gt;Node13</title>
<path fill="none" stroke="midnightblue" d="M260.83,-117.98C277.16,-108.25 304.1,-92.23 323.41,-80.74"/>
<polygon fill="midnightblue" stroke="midnightblue" points="325.39,-83.63 332.2,-75.51 321.82,-77.61 325.39,-83.63"/>
</g>
<!-- Node14 -->
<g id="node14" class="node">
<title>Node14</title>
<g id="a_node14"><a xlink:title=" ">
<polygon fill="white" stroke="#bfbfbf" points="188,-56.5 188,-75.5 235,-75.5 235,-56.5 188,-56.5"/>
<text text-anchor="middle" x="211.5" y="-63.5" font-family="Helvetica,sans-Serif" font-size="10.00">stdlib.h</text>
</a>
</g>
</g>
<!-- Node12&#45;&gt;Node14 -->
<g id="edge15" class="edge">
<title>Node12&#45;&gt;Node14</title>
<path fill="none" stroke="midnightblue" d="M241.49,-117.98C236.34,-109.23 228.19,-95.37 221.68,-84.31"/>
<polygon fill="midnightblue" stroke="midnightblue" points="224.59,-82.35 216.51,-75.51 218.56,-85.9 224.59,-82.35"/>
</g>
<!-- Node15 -->
<g id="node15" class="node">
<title>Node15</title>
<g id="a_node15"><a xlink:title=" ">
<polygon fill="white" stroke="#bfbfbf" points="737,-56.5 737,-75.5 778,-75.5 778,-56.5 737,-56.5"/>
<text text-anchor="middle" x="757.5" y="-63.5" font-family="Helvetica,sans-Serif" font-size="10.00">string</text>
</a>
</g>
</g>
<!-- Node12&#45;&gt;Node15 -->
<g id="edge17" class="edge">
<title>Node12&#45;&gt;Node15</title>
<path fill="none" stroke="midnightblue" d="M270.6,-117.86C277.59,-115.64 285.28,-113.47 292.5,-112 334.92,-103.36 630,-77.83 726.81,-69.6"/>
<polygon fill="midnightblue" stroke="midnightblue" points="727.17,-73.08 736.84,-68.74 726.58,-66.1 727.17,-73.08"/>
</g>
<!-- Node16&#45;&gt;Node10 -->
<g id="edge51" class="edge">
<title>Node16&#45;&gt;Node10</title>
<path fill="none" stroke="midnightblue" d="M1136.58,-318.76C1081.17,-313.84 984.59,-302.24 905.5,-277 776.74,-235.9 718.11,-247.59 632.5,-143 619.16,-126.7 614.64,-102.42 613.15,-85.72"/>
<polygon fill="midnightblue" stroke="midnightblue" points="616.63,-85.32 612.53,-75.55 609.64,-85.74 616.63,-85.32"/>
</g>
<!-- Node17 -->
<g id="node17" class="node">
<title>Node17</title>
<g id="a_node17"><a xlink:title=" ">
<polygon fill="white" stroke="#bfbfbf" points="1081.5,-56.5 1081.5,-75.5 1127.5,-75.5 1127.5,-56.5 1081.5,-56.5"/>
<text text-anchor="middle" x="1104.5" y="-63.5" font-family="Helvetica,sans-Serif" font-size="10.00">atomic</text>
</a>
</g>
</g>
<!-- Node16&#45;&gt;Node17 -->
<g id="edge22" class="edge">
<title>Node16&#45;&gt;Node17</title>
<path fill="none" stroke="midnightblue" d="M1200.8,-313.48C1214.93,-306.08 1233.06,-293.89 1241.5,-277 1247.66,-264.68 1245.38,-259.22 1241.5,-246 1221.58,-178.09 1201.58,-165.7 1155.5,-112 1146.01,-100.94 1133.81,-90.08 1123.73,-81.8"/>
<polygon fill="midnightblue" stroke="midnightblue" points="1125.85,-79.02 1115.86,-75.51 1121.48,-84.49 1125.85,-79.02"/>
</g>
<!-- Node18 -->
<g id="node18" class="node">
<title>Node18</title>
<g id="a_node18"><a xlink:title=" ">
<polygon fill="white" stroke="#bfbfbf" points="1183,-252 1183,-271 1232,-271 1232,-252 1183,-252"/>
<text text-anchor="middle" x="1207.5" y="-259" font-family="Helvetica,sans-Serif" font-size="10.00">cstddef</text>
</a>
</g>
</g>
<!-- Node16&#45;&gt;Node18 -->
<g id="edge23" class="edge">
<title>Node16&#45;&gt;Node18</title>
<path fill="none" stroke="midnightblue" d="M1185.23,-313.48C1188.97,-304.9 1194.86,-291.43 1199.64,-280.48"/>
<polygon fill="midnightblue" stroke="midnightblue" points="1202.98,-281.57 1203.78,-271.01 1196.57,-278.77 1202.98,-281.57"/>
</g>
<!-- Node19 -->
<g id="node19" class="node">
<title>Node19</title>
<g id="a_node19"><a xlink:title=" ">
<polygon fill="white" stroke="#bfbfbf" points="1197.5,-0.5 1197.5,-19.5 1259.5,-19.5 1259.5,-0.5 1197.5,-0.5"/>
<text text-anchor="middle" x="1228.5" y="-7.5" font-family="Helvetica,sans-Serif" font-size="10.00">type_traits</text>
</a>
</g>
</g>
<!-- Node16&#45;&gt;Node19 -->
<g id="edge24" class="edge">
<title>Node16&#45;&gt;Node19</title>
<path fill="none" stroke="midnightblue" d="M1226.26,-317.8C1264.34,-312.64 1319.4,-301.37 1361.5,-277 1433.05,-235.59 1459.59,-219.67 1490.5,-143 1506.15,-104.19 1489.08,-79.56 1454.5,-56 1424.93,-35.86 1326.35,-21.89 1269.63,-15.31"/>
<polygon fill="midnightblue" stroke="midnightblue" points="1269.89,-11.81 1259.56,-14.16 1269.1,-18.77 1269.89,-11.81"/>
</g>
<!-- Node16&#45;&gt;Node20 -->
<g id="edge25" class="edge">
<title>Node16&#45;&gt;Node20</title>
<path fill="none" stroke="midnightblue" d="M1171.18,-313.48C1161.62,-305.57 1146.99,-293.48 1134.39,-283.07"/>
<polygon fill="midnightblue" stroke="midnightblue" points="1136.41,-280.2 1126.47,-276.52 1131.95,-285.59 1136.41,-280.2"/>
</g>
<!-- Node26 -->
<g id="node26" class="node">
<title>Node26</title>
<g id="a_node26"><a xlink:href="sentinel-pointer_8h.html" target="_top" xlink:title=" ">
<polygon fill="white" stroke="black" points="1343,-118 1343,-137 1462,-137 1462,-118 1343,-118"/>
<text text-anchor="middle" x="1402.5" y="-125" font-family="Helvetica,sans-Serif" font-size="10.00">cppgc/sentinel&#45;pointer.h</text>
</a>
</g>
</g>
<!-- Node16&#45;&gt;Node26 -->
<g id="edge49" class="edge">
<title>Node16&#45;&gt;Node26</title>
<path fill="none" stroke="midnightblue" d="M1226.06,-318.9C1259.66,-314.42 1305.02,-303.5 1335.5,-277 1375.61,-242.13 1392.94,-178.43 1399.32,-147.02"/>
<polygon fill="midnightblue" stroke="midnightblue" points="1402.79,-147.5 1401.19,-137.02 1395.91,-146.21 1402.79,-147.5"/>
</g>
<!-- Node16&#45;&gt;Node28 -->
<g id="edge50" class="edge">
<title>Node16&#45;&gt;Node28</title>
<path fill="none" stroke="midnightblue" d="M1226.03,-316.99C1251.51,-311.59 1281.51,-300.35 1297.5,-277 1338.97,-216.44 1327.2,-175.57 1290.5,-112 1282.74,-98.56 1269.18,-88.02 1256.71,-80.54"/>
<polygon fill="midnightblue" stroke="midnightblue" points="1258.36,-77.45 1247.92,-75.62 1254.94,-83.56 1258.36,-77.45"/>
</g>
<!-- Node20&#45;&gt;Node10 -->
<g id="edge48" class="edge">
<title>Node20&#45;&gt;Node10</title>
<path fill="none" stroke="midnightblue" d="M1093.24,-246.36C1081.61,-236.24 1065.58,-222.29 1051.5,-210 1045.27,-204.56 947.02,-115.43 939.5,-112 913.86,-100.31 734.62,-80.02 652.92,-71.25"/>
<polygon fill="midnightblue" stroke="midnightblue" points="652.84,-67.72 642.53,-70.14 652.1,-74.68 652.84,-67.72"/>
</g>
<!-- Node20&#45;&gt;Node19 -->
<g id="edge27" class="edge">
<title>Node20&#45;&gt;Node19</title>
<path fill="none" stroke="midnightblue" d="M1164.45,-246.46C1261.07,-221.23 1452.98,-168.49 1471.5,-143 1527.19,-66.37 1352.68,-29.45 1269.74,-16.55"/>
<polygon fill="midnightblue" stroke="midnightblue" points="1270.04,-13.05 1259.63,-15.02 1268.99,-19.98 1270.04,-13.05"/>
</g>
<!-- Node21 -->
<g id="node21" class="node">
<title>Node21</title>
<g id="a_node21"><a xlink:title=" ">
<polygon fill="white" stroke="#bfbfbf" points="1323.5,-56.5 1323.5,-75.5 1369.5,-75.5 1369.5,-56.5 1323.5,-56.5"/>
<text text-anchor="middle" x="1346.5" y="-63.5" font-family="Helvetica,sans-Serif" font-size="10.00">cstdint</text>
</a>
</g>
</g>
<!-- Node20&#45;&gt;Node21 -->
<g id="edge26" class="edge">
<title>Node20&#45;&gt;Node21</title>
<path fill="none" stroke="midnightblue" d="M1133.7,-246.47C1149.71,-236.85 1170.91,-223.44 1188.5,-210 1243.9,-167.7 1303.33,-110.21 1330.86,-82.8"/>
<polygon fill="midnightblue" stroke="midnightblue" points="1333.45,-85.15 1338.04,-75.6 1328.5,-80.21 1333.45,-85.15"/>
</g>
<!-- Node22 -->
<g id="node22" class="node">
<title>Node22</title>
<g id="a_node22"><a xlink:href="write-barrier_8h.html" target="_top" xlink:title=" ">
<polygon fill="white" stroke="black" points="829,-179.5 829,-209.5 930,-209.5 930,-179.5 829,-179.5"/>
<text text-anchor="start" x="837" y="-197.5" font-family="Helvetica,sans-Serif" font-size="10.00">cppgc/internal/write</text>
<text text-anchor="middle" x="879.5" y="-186.5" font-family="Helvetica,sans-Serif" font-size="10.00">&#45;barrier.h</text>
</a>
</g>
</g>
<!-- Node20&#45;&gt;Node22 -->
<g id="edge28" class="edge">
<title>Node20&#45;&gt;Node22</title>
<path fill="none" stroke="midnightblue" d="M1059.88,-246.48C1024.48,-236.47 976.71,-222.97 939.22,-212.38"/>
<polygon fill="midnightblue" stroke="midnightblue" points="940.01,-208.96 929.43,-209.61 938.1,-215.7 940.01,-208.96"/>
</g>
<!-- Node20&#45;&gt;Node29 -->
<g id="edge45" class="edge">
<title>Node20&#45;&gt;Node29</title>
<path fill="none" stroke="midnightblue" d="M1111.67,-246.4C1113.12,-236.96 1115.05,-224.45 1116.62,-214.19"/>
<polygon fill="midnightblue" stroke="midnightblue" points="1120.1,-214.61 1118.16,-204.19 1113.18,-213.55 1120.1,-214.61"/>
</g>
<!-- Node22&#45;&gt;Node10 -->
<g id="edge44" class="edge">
<title>Node22&#45;&gt;Node10</title>
<path fill="none" stroke="midnightblue" d="M863.64,-179.34C840.11,-158.58 796.76,-121.32 778.5,-112 738.25,-91.46 687.57,-79.48 652.86,-73.11"/>
<polygon fill="midnightblue" stroke="midnightblue" points="653.09,-69.6 642.63,-71.32 651.88,-76.5 653.09,-69.6"/>
</g>
<!-- Node23 -->
<g id="node23" class="node">
<title>Node23</title>
<g id="a_node23"><a xlink:href="heap-state_8h.html" target="_top" xlink:title=" ">
<polygon fill="white" stroke="black" points="831,-118 831,-137 930,-137 930,-118 831,-118"/>
<text text-anchor="middle" x="880.5" y="-125" font-family="Helvetica,sans-Serif" font-size="10.00">cppgc/heap&#45;state.h</text>
</a>
</g>
</g>
<!-- Node22&#45;&gt;Node23 -->
<g id="edge29" class="edge">
<title>Node22&#45;&gt;Node23</title>
<path fill="none" stroke="midnightblue" d="M879.72,-179.4C879.86,-170.06 880.05,-157.71 880.21,-147.52"/>
<polygon fill="midnightblue" stroke="midnightblue" points="883.71,-147.25 880.37,-137.19 876.71,-147.14 883.71,-147.25"/>
</g>
<!-- Node24 -->
<g id="node24" class="node">
<title>Node24</title>
<g id="a_node24"><a xlink:href="api-constants_8h.html" target="_top" xlink:title=" ">
<polygon fill="white" stroke="black" points="301,-112.5 301,-142.5 394,-142.5 394,-112.5 301,-112.5"/>
<text text-anchor="start" x="309" y="-130.5" font-family="Helvetica,sans-Serif" font-size="10.00">cppgc/internal/api</text>
<text text-anchor="middle" x="347.5" y="-119.5" font-family="Helvetica,sans-Serif" font-size="10.00">&#45;constants.h</text>
</a>
</g>
</g>
<!-- Node22&#45;&gt;Node24 -->
<g id="edge31" class="edge">
<title>Node22&#45;&gt;Node24</title>
<path fill="none" stroke="midnightblue" d="M828.97,-187.33C729.45,-175.17 508.66,-148.19 404.28,-135.44"/>
<polygon fill="midnightblue" stroke="midnightblue" points="404.6,-131.95 394.25,-134.21 403.75,-138.9 404.6,-131.95"/>
</g>
<!-- Node25 -->
<g id="node25" class="node">
<title>Node25</title>
<g id="a_node25"><a xlink:href="atomic-entry-flag_8h.html" target="_top" xlink:title=" ">
<polygon fill="white" stroke="black" points="986.5,-112.5 986.5,-142.5 1096.5,-142.5 1096.5,-112.5 986.5,-112.5"/>
<text text-anchor="start" x="994.5" y="-130.5" font-family="Helvetica,sans-Serif" font-size="10.00">cppgc/internal/atomic</text>
<text text-anchor="middle" x="1041.5" y="-119.5" font-family="Helvetica,sans-Serif" font-size="10.00">&#45;entry&#45;flag.h</text>
</a>
</g>
</g>
<!-- Node22&#45;&gt;Node25 -->
<g id="edge35" class="edge">
<title>Node22&#45;&gt;Node25</title>
<path fill="none" stroke="midnightblue" d="M914.65,-179.4C938.75,-169.73 970.91,-156.82 996.82,-146.43"/>
<polygon fill="midnightblue" stroke="midnightblue" points="998.44,-149.55 1006.42,-142.58 995.83,-143.05 998.44,-149.55"/>
</g>
<!-- Node22&#45;&gt;Node26 -->
<g id="edge37" class="edge">
<title>Node22&#45;&gt;Node26</title>
<path fill="none" stroke="midnightblue" d="M930.12,-187.21C1024.12,-175.53 1225.76,-150.47 1332.65,-137.18"/>
<polygon fill="midnightblue" stroke="midnightblue" points="1333.2,-140.64 1342.69,-135.93 1332.34,-133.69 1333.2,-140.64"/>
</g>
<!-- Node22&#45;&gt;Node27 -->
<g id="edge39" class="edge">
<title>Node22&#45;&gt;Node27</title>
<path fill="none" stroke="midnightblue" d="M838.06,-179.4C803.65,-167.69 755.3,-151.23 722.98,-140.23"/>
<polygon fill="midnightblue" stroke="midnightblue" points="724.09,-136.92 713.5,-137.01 721.84,-143.54 724.09,-136.92"/>
</g>
<!-- Node23&#45;&gt;Node10 -->
<g id="edge30" class="edge">
<title>Node23&#45;&gt;Node10</title>
<path fill="none" stroke="midnightblue" d="M842.94,-117.95C834.26,-115.99 825.06,-113.91 816.5,-112 759.56,-99.27 693.63,-84.77 652.49,-75.75"/>
<polygon fill="midnightblue" stroke="midnightblue" points="653.1,-72.3 642.58,-73.58 651.6,-79.14 653.1,-72.3"/>
</g>
<!-- Node24&#45;&gt;Node3 -->
<g id="edge32" class="edge">
<title>Node24&#45;&gt;Node3</title>
<path fill="none" stroke="midnightblue" d="M331.15,-112.4C320.6,-103.31 306.9,-91.49 296.12,-82.19"/>
<polygon fill="midnightblue" stroke="midnightblue" points="298.4,-79.54 288.54,-75.66 293.83,-84.84 298.4,-79.54"/>
</g>
<!-- Node24&#45;&gt;Node10 -->
<g id="edge34" class="edge">
<title>Node24&#45;&gt;Node10</title>
<path fill="none" stroke="midnightblue" d="M394.27,-116C444.79,-104.65 524.47,-86.77 572.29,-76.03"/>
<polygon fill="midnightblue" stroke="midnightblue" points="573.28,-79.39 582.27,-73.79 571.75,-72.56 573.28,-79.39"/>
</g>
<!-- Node24&#45;&gt;Node13 -->
<g id="edge33" class="edge">
<title>Node24&#45;&gt;Node13</title>
<path fill="none" stroke="midnightblue" d="M347.26,-112.4C347.13,-104.47 346.96,-94.46 346.82,-85.86"/>
<polygon fill="midnightblue" stroke="midnightblue" points="350.31,-85.6 346.65,-75.66 343.31,-85.72 350.31,-85.6"/>
</g>
<!-- Node25&#45;&gt;Node17 -->
<g id="edge36" class="edge">
<title>Node25&#45;&gt;Node17</title>
<path fill="none" stroke="midnightblue" d="M1056.43,-112.4C1065.87,-103.49 1078.08,-91.95 1087.83,-82.74"/>
<polygon fill="midnightblue" stroke="midnightblue" points="1090.47,-85.07 1095.33,-75.66 1085.66,-79.98 1090.47,-85.07"/>
</g>
<!-- Node26&#45;&gt;Node21 -->
<g id="edge38" class="edge">
<title>Node26&#45;&gt;Node21</title>
<path fill="none" stroke="midnightblue" d="M1394.48,-117.98C1385.91,-108.87 1372.14,-94.24 1361.54,-82.98"/>
<polygon fill="midnightblue" stroke="midnightblue" points="1363.91,-80.39 1354.51,-75.51 1358.81,-85.19 1363.91,-80.39"/>
</g>
<!-- Node27&#45;&gt;Node10 -->
<g id="edge43" class="edge">
<title>Node27&#45;&gt;Node10</title>
<path fill="none" stroke="midnightblue" d="M677.61,-117.98C665.53,-108.52 645.83,-93.1 631.26,-81.69"/>
<polygon fill="midnightblue" stroke="midnightblue" points="633.4,-78.92 623.37,-75.51 629.09,-84.43 633.4,-78.92"/>
</g>
<!-- Node27&#45;&gt;Node19 -->
<g id="edge40" class="edge">
<title>Node27&#45;&gt;Node19</title>
<path fill="none" stroke="midnightblue" d="M728.65,-117.91C828.49,-96.56 1087.17,-41.23 1187.7,-19.73"/>
<polygon fill="midnightblue" stroke="midnightblue" points="1188.44,-23.15 1197.49,-17.63 1186.97,-16.3 1188.44,-23.15"/>
</g>
<!-- Node27&#45;&gt;Node28 -->
<g id="edge41" class="edge">
<title>Node27&#45;&gt;Node28</title>
<path fill="none" stroke="midnightblue" d="M736.42,-121.22C835.57,-110.3 1062.9,-85.25 1170.29,-73.41"/>
<polygon fill="midnightblue" stroke="midnightblue" points="1170.74,-76.89 1180.3,-72.31 1169.98,-69.93 1170.74,-76.89"/>
</g>
<!-- Node28&#45;&gt;Node19 -->
<g id="edge42" class="edge">
<title>Node28&#45;&gt;Node19</title>
<path fill="none" stroke="midnightblue" d="M1228.5,-56.08C1228.5,-49.01 1228.5,-38.86 1228.5,-29.99"/>
<polygon fill="midnightblue" stroke="midnightblue" points="1232,-29.75 1228.5,-19.75 1225,-29.75 1232,-29.75"/>
</g>
<!-- Node29&#45;&gt;Node10 -->
<g id="edge47" class="edge">
<title>Node29&#45;&gt;Node10</title>
<path fill="none" stroke="midnightblue" d="M1121.03,-184.8C1123.45,-167.96 1125.96,-130.9 1105.5,-112 1101.34,-108.16 769.48,-80.11 652.65,-70.34"/>
<polygon fill="midnightblue" stroke="midnightblue" points="652.93,-66.85 642.67,-69.51 652.35,-73.83 652.93,-66.85"/>
</g>
<!-- Node29&#45;&gt;Node15 -->
<g id="edge46" class="edge">
<title>Node29&#45;&gt;Node15</title>
<path fill="none" stroke="midnightblue" d="M1125.94,-184.67C1137.08,-168.27 1157.03,-132.85 1138.5,-112 1115.32,-85.92 874.83,-72.39 788.3,-68.33"/>
<polygon fill="midnightblue" stroke="midnightblue" points="788.22,-64.82 778.08,-67.86 787.9,-71.82 788.22,-64.82"/>
</g>
<!-- Node30&#45;&gt;Node11 -->
<g id="edge58" class="edge">
<title>Node30&#45;&gt;Node11</title>
<path fill="none" stroke="midnightblue" d="M530.18,-251.73C509.68,-240.72 474.3,-221.71 450.41,-208.88"/>
<polygon fill="midnightblue" stroke="midnightblue" points="452.03,-205.78 441.56,-204.13 448.71,-211.94 452.03,-205.78"/>
</g>
<!-- Node30&#45;&gt;Node19 -->
<g id="edge56" class="edge">
<title>Node30&#45;&gt;Node19</title>
<path fill="none" stroke="midnightblue" d="M544.18,-251.67C536.28,-219.33 514.07,-106.63 573.5,-56 620.17,-16.24 1051.01,-11.53 1187.34,-11.03"/>
<polygon fill="midnightblue" stroke="midnightblue" points="1187.4,-14.53 1197.39,-11 1187.38,-7.53 1187.4,-14.53"/>
</g>
<!-- Node30&#45;&gt;Node24 -->
<g id="edge57" class="edge">
<title>Node30&#45;&gt;Node24</title>
<path fill="none" stroke="midnightblue" d="M541.38,-251.62C531.46,-235.12 508.04,-199.55 479.5,-179 456.91,-162.74 428.42,-150.97 403.7,-142.91"/>
<polygon fill="midnightblue" stroke="midnightblue" points="404.66,-139.54 394.07,-139.89 402.57,-146.22 404.66,-139.54"/>
</g>
<!-- Node30&#45;&gt;Node27 -->
<g id="edge59" class="edge">
<title>Node30&#45;&gt;Node27</title>
<path fill="none" stroke="midnightblue" d="M555.82,-251.84C579.39,-229.92 641.67,-172.03 671.76,-144.06"/>
<polygon fill="midnightblue" stroke="midnightblue" points="674.39,-146.39 679.33,-137.02 669.63,-141.27 674.39,-146.39"/>
</g>
<!-- Node30&#45;&gt;Node28 -->
<g id="edge60" class="edge">
<title>Node30&#45;&gt;Node28</title>
<path fill="none" stroke="midnightblue" d="M611.8,-257.22C690.58,-252.11 826.53,-239.54 939.5,-210 1016.47,-189.88 1034.51,-178.93 1105.5,-143 1142.84,-124.1 1183.7,-97.59 1207.67,-81.39"/>
<polygon fill="midnightblue" stroke="midnightblue" points="1209.69,-84.25 1215.99,-75.73 1205.75,-78.47 1209.69,-84.25"/>
</g>
<!-- Node31&#45;&gt;Node10 -->
<g id="edge63" class="edge">
<title>Node31&#45;&gt;Node10</title>
<path fill="none" stroke="midnightblue" d="M923.89,-251.99C892.14,-244.73 851.27,-231.89 820.5,-210 775.8,-178.21 790.08,-143.95 745.5,-112 717.71,-92.08 680.44,-80.48 652.43,-74.06"/>
<polygon fill="midnightblue" stroke="midnightblue" points="653.07,-70.62 642.56,-71.93 651.59,-77.46 653.07,-70.62"/>
</g>
<!-- Node31&#45;&gt;Node29 -->
<g id="edge62" class="edge">
<title>Node31&#45;&gt;Node29</title>
<path fill="none" stroke="midnightblue" d="M992.89,-251.87C1017.98,-240.7 1061.89,-221.15 1090.84,-208.26"/>
<polygon fill="midnightblue" stroke="midnightblue" points="1092.32,-211.43 1100.03,-204.17 1089.47,-205.04 1092.32,-211.43"/>
</g>
</g>
</svg>
