<?xml version="1.0" encoding="UTF-8" standalone="no"?>
<!DOCTYPE svg PUBLIC "-//W3C//DTD SVG 1.1//EN"
 "http://www.w3.org/Graphics/SVG/1.1/DTD/svg11.dtd">
<!-- Generated by graphviz version 2.49.3 (20211027.1534)
 -->
<!-- Title: cppgc::internal::BasicCrossThreadPersistent::~BasicCrossThreadPersistent Pages: 1 -->
<svg width="693pt" height="235pt"
 viewBox="0.00 0.00 693.00 235.00" xmlns="http://www.w3.org/2000/svg" xmlns:xlink="http://www.w3.org/1999/xlink">
<g id="graph0" class="graph" transform="scale(1 1) rotate(0) translate(4 231)">
<title>cppgc::internal::BasicCrossThreadPersistent::~BasicCrossThreadPersistent</title>
<polygon fill="white" stroke="transparent" points="-4,4 -4,-231 689,-231 689,4 -4,4"/>
<!-- Node1 -->
<g id="node1" class="node">
<title>Node1</title>
<g id="a_node1"><a xlink:title=" ">
<polygon fill="#bfbfbf" stroke="black" points="0,-93 0,-134 181,-134 181,-93 0,-93"/>
<text text-anchor="start" x="8" y="-122" font-family="Helvetica,sans-Serif" font-size="10.00">cppgc::internal::BasicCross</text>
<text text-anchor="start" x="8" y="-111" font-family="Helvetica,sans-Serif" font-size="10.00">ThreadPersistent::~BasicCrossThread</text>
<text text-anchor="middle" x="90.5" y="-100" font-family="Helvetica,sans-Serif" font-size="10.00">Persistent</text>
</a>
</g>
</g>
<!-- Node2 -->
<g id="node2" class="node">
<title>Node2</title>
<g id="a_node2"><a xlink:href="classcppgc_1_1internal_1_1BasicCrossThreadPersistent.html#a4101c15a02138c88ea1d29ef95b10b34" target="_top" xlink:title=" ">
<polygon fill="white" stroke="black" points="217,-98.5 217,-128.5 351,-128.5 351,-98.5 217,-98.5"/>
<text text-anchor="start" x="225" y="-116.5" font-family="Helvetica,sans-Serif" font-size="10.00">cppgc::internal::BasicCross</text>
<text text-anchor="middle" x="284" y="-105.5" font-family="Helvetica,sans-Serif" font-size="10.00">ThreadPersistent::Clear</text>
</a>
</g>
</g>
<!-- Node1&#45;&gt;Node2 -->
<g id="edge1" class="edge">
<title>Node1&#45;&gt;Node2</title>
<path fill="none" stroke="midnightblue" d="M181.08,-113.5C189.66,-113.5 198.31,-113.5 206.75,-113.5"/>
<polygon fill="midnightblue" stroke="midnightblue" points="206.92,-117 216.92,-113.5 206.92,-110 206.92,-117"/>
</g>
<!-- Node3 -->
<g id="node3" class="node">
<title>Node3</title>
<g id="a_node3"><a xlink:href="classcppgc_1_1internal_1_1PersistentRegion.html#af9379c9232b30b74532cccb697de9950" target="_top" xlink:title=" ">
<polygon fill="white" stroke="black" points="387,-196.5 387,-226.5 515,-226.5 515,-196.5 387,-196.5"/>
<text text-anchor="start" x="395" y="-214.5" font-family="Helvetica,sans-Serif" font-size="10.00">cppgc::internal::Persistent</text>
<text text-anchor="middle" x="451" y="-203.5" font-family="Helvetica,sans-Serif" font-size="10.00">Region::FreeNode</text>
</a>
</g>
</g>
<!-- Node2&#45;&gt;Node3 -->
<g id="edge2" class="edge">
<title>Node2&#45;&gt;Node3</title>
<path fill="none" stroke="midnightblue" d="M302.82,-128.69C322.46,-144.86 355.44,-170.43 387,-187.5 390.08,-189.17 393.3,-190.77 396.58,-192.3"/>
<polygon fill="midnightblue" stroke="midnightblue" points="395.39,-195.6 405.95,-196.43 398.21,-189.2 395.39,-195.6"/>
</g>
<!-- Node5 -->
<g id="node5" class="node">
<title>Node5</title>
<g id="a_node5"><a xlink:href="classcppgc_1_1internal_1_1PersistentBase.html#aa189d8229e1fd8cc2cfce363ade822c6" target="_top" xlink:title=" ">
<polygon fill="white" stroke="black" points="387,-147.5 387,-177.5 515,-177.5 515,-147.5 387,-147.5"/>
<text text-anchor="start" x="395" y="-165.5" font-family="Helvetica,sans-Serif" font-size="10.00">cppgc::internal::Persistent</text>
<text text-anchor="middle" x="451" y="-154.5" font-family="Helvetica,sans-Serif" font-size="10.00">Base::GetNode</text>
</a>
</g>
</g>
<!-- Node2&#45;&gt;Node5 -->
<g id="edge4" class="edge">
<title>Node2&#45;&gt;Node5</title>
<path fill="none" stroke="midnightblue" d="M335.85,-128.6C352.87,-133.66 372,-139.34 389.67,-144.58"/>
<polygon fill="midnightblue" stroke="midnightblue" points="388.73,-147.96 399.32,-147.45 390.73,-141.25 388.73,-147.96"/>
</g>
<!-- Node6 -->
<g id="node6" class="node">
<title>Node6</title>
<g id="a_node6"><a xlink:href="classcppgc_1_1internal_1_1PersistentBase.html#a2fce9ff2e5e2e6e347e31dc1399c7acb" target="_top" xlink:title=" ">
<polygon fill="white" stroke="black" points="387,-98.5 387,-128.5 515,-128.5 515,-98.5 387,-98.5"/>
<text text-anchor="start" x="395" y="-116.5" font-family="Helvetica,sans-Serif" font-size="10.00">cppgc::internal::Persistent</text>
<text text-anchor="middle" x="451" y="-105.5" font-family="Helvetica,sans-Serif" font-size="10.00">Base::GetValue</text>
</a>
</g>
</g>
<!-- Node2&#45;&gt;Node6 -->
<g id="edge5" class="edge">
<title>Node2&#45;&gt;Node6</title>
<path fill="none" stroke="midnightblue" d="M351.16,-113.5C359.51,-113.5 368.09,-113.5 376.55,-113.5"/>
<polygon fill="midnightblue" stroke="midnightblue" points="376.77,-117 386.77,-113.5 376.77,-110 376.77,-117"/>
</g>
<!-- Node7 -->
<g id="node7" class="node">
<title>Node7</title>
<g id="a_node7"><a xlink:href="classcppgc_1_1internal_1_1PersistentBase.html#af84e1d2f71c9cbd3f0a4424339c725cb" target="_top" xlink:title=" ">
<polygon fill="white" stroke="black" points="387,-49.5 387,-79.5 515,-79.5 515,-49.5 387,-49.5"/>
<text text-anchor="start" x="395" y="-67.5" font-family="Helvetica,sans-Serif" font-size="10.00">cppgc::internal::Persistent</text>
<text text-anchor="middle" x="451" y="-56.5" font-family="Helvetica,sans-Serif" font-size="10.00">Base::SetNode</text>
</a>
</g>
</g>
<!-- Node2&#45;&gt;Node7 -->
<g id="edge6" class="edge">
<title>Node2&#45;&gt;Node7</title>
<path fill="none" stroke="midnightblue" d="M335.85,-98.4C352.87,-93.34 372,-87.66 389.67,-82.42"/>
<polygon fill="midnightblue" stroke="midnightblue" points="390.73,-85.75 399.32,-79.55 388.73,-79.04 390.73,-85.75"/>
</g>
<!-- Node8 -->
<g id="node8" class="node">
<title>Node8</title>
<g id="a_node8"><a xlink:href="classcppgc_1_1internal_1_1PersistentBase.html#a697d2fa1fc753a2f2e8c479143d72995" target="_top" xlink:title=" ">
<polygon fill="white" stroke="black" points="387,-0.5 387,-30.5 515,-30.5 515,-0.5 387,-0.5"/>
<text text-anchor="start" x="395" y="-18.5" font-family="Helvetica,sans-Serif" font-size="10.00">cppgc::internal::Persistent</text>
<text text-anchor="middle" x="451" y="-7.5" font-family="Helvetica,sans-Serif" font-size="10.00">Base::SetValue</text>
</a>
</g>
</g>
<!-- Node2&#45;&gt;Node8 -->
<g id="edge7" class="edge">
<title>Node2&#45;&gt;Node8</title>
<path fill="none" stroke="midnightblue" d="M303.27,-98.33C323.01,-82.45 355.84,-57.5 387,-40.5 390.72,-38.47 394.64,-36.52 398.63,-34.66"/>
<polygon fill="midnightblue" stroke="midnightblue" points="400.28,-37.76 408,-30.51 397.44,-31.36 400.28,-37.76"/>
</g>
<!-- Node4 -->
<g id="node4" class="node">
<title>Node4</title>
<g id="a_node4"><a xlink:href="classcppgc_1_1internal_1_1PersistentNode.html#a54960a446ce00f010add74b54bccc0ba" target="_top" xlink:title=" ">
<polygon fill="white" stroke="black" points="551,-196.5 551,-226.5 685,-226.5 685,-196.5 551,-196.5"/>
<text text-anchor="start" x="559" y="-214.5" font-family="Helvetica,sans-Serif" font-size="10.00">cppgc::internal::Persistent</text>
<text text-anchor="middle" x="618" y="-203.5" font-family="Helvetica,sans-Serif" font-size="10.00">Node::InitializeAsFreeNode</text>
</a>
</g>
</g>
<!-- Node3&#45;&gt;Node4 -->
<g id="edge3" class="edge">
<title>Node3&#45;&gt;Node4</title>
<path fill="none" stroke="midnightblue" d="M515.32,-211.5C523.59,-211.5 532.13,-211.5 540.59,-211.5"/>
<polygon fill="midnightblue" stroke="midnightblue" points="540.84,-215 550.84,-211.5 540.84,-208 540.84,-215"/>
</g>
</g>
</svg>
