<?xml version="1.0" encoding="UTF-8" standalone="no"?>
<!DOCTYPE svg PUBLIC "-//W3C//DTD SVG 1.1//EN"
 "http://www.w3.org/Graphics/SVG/1.1/DTD/svg11.dtd">
<!-- Generated by graphviz version 2.49.3 (20211027.1534)
 -->
<!-- Title: cppgc::internal::BasicCrossThreadPersistent::Release Pages: 1 -->
<svg width="646pt" height="235pt"
 viewBox="0.00 0.00 646.00 235.00" xmlns="http://www.w3.org/2000/svg" xmlns:xlink="http://www.w3.org/1999/xlink">
<g id="graph0" class="graph" transform="scale(1 1) rotate(0) translate(4 231)">
<title>cppgc::internal::BasicCrossThreadPersistent::Release</title>
<polygon fill="white" stroke="transparent" points="-4,4 -4,-231 642,-231 642,4 -4,4"/>
<!-- Node1 -->
<g id="node1" class="node">
<title>Node1</title>
<g id="a_node1"><a xlink:title=" ">
<polygon fill="#bfbfbf" stroke="black" points="0,-48.5 0,-78.5 134,-78.5 134,-48.5 0,-48.5"/>
<text text-anchor="start" x="8" y="-66.5" font-family="Helvetica,sans-Serif" font-size="10.00">cppgc::internal::BasicCross</text>
<text text-anchor="middle" x="67" y="-55.5" font-family="Helvetica,sans-Serif" font-size="10.00">ThreadPersistent::Release</text>
</a>
</g>
</g>
<!-- Node2 -->
<g id="node2" class="node">
<title>Node2</title>
<g id="a_node2"><a xlink:href="classcppgc_1_1internal_1_1BasicCrossThreadPersistent.html#a4101c15a02138c88ea1d29ef95b10b34" target="_top" xlink:title=" ">
<polygon fill="white" stroke="black" points="170,-85.5 170,-115.5 304,-115.5 304,-85.5 170,-85.5"/>
<text text-anchor="start" x="178" y="-103.5" font-family="Helvetica,sans-Serif" font-size="10.00">cppgc::internal::BasicCross</text>
<text text-anchor="middle" x="237" y="-92.5" font-family="Helvetica,sans-Serif" font-size="10.00">ThreadPersistent::Clear</text>
</a>
</g>
</g>
<!-- Node1&#45;&gt;Node2 -->
<g id="edge1" class="edge">
<title>Node1&#45;&gt;Node2</title>
<path fill="none" stroke="midnightblue" d="M134.4,-78.12C142.77,-79.97 151.39,-81.86 159.89,-83.74"/>
<polygon fill="midnightblue" stroke="midnightblue" points="159.29,-87.19 169.81,-85.92 160.8,-80.35 159.29,-87.19"/>
</g>
<!-- Node9 -->
<g id="node9" class="node">
<title>Node9</title>
<g id="a_node9"><a xlink:href="classcppgc_1_1internal_1_1BasicCrossThreadPersistent.html#a11303453def5b5179a064fa1a9c35988" target="_top" xlink:title=" ">
<polygon fill="white" stroke="black" points="170,-24.5 170,-54.5 304,-54.5 304,-24.5 170,-24.5"/>
<text text-anchor="start" x="178" y="-42.5" font-family="Helvetica,sans-Serif" font-size="10.00">cppgc::internal::BasicCross</text>
<text text-anchor="middle" x="237" y="-31.5" font-family="Helvetica,sans-Serif" font-size="10.00">ThreadPersistent::Get</text>
</a>
</g>
</g>
<!-- Node1&#45;&gt;Node9 -->
<g id="edge8" class="edge">
<title>Node1&#45;&gt;Node9</title>
<path fill="none" stroke="midnightblue" d="M134.4,-54.01C142.77,-52.82 151.39,-51.59 159.89,-50.37"/>
<polygon fill="midnightblue" stroke="midnightblue" points="160.4,-53.83 169.81,-48.96 159.41,-46.91 160.4,-53.83"/>
</g>
<!-- Node3 -->
<g id="node3" class="node">
<title>Node3</title>
<g id="a_node3"><a xlink:href="classcppgc_1_1internal_1_1PersistentRegion.html#af9379c9232b30b74532cccb697de9950" target="_top" xlink:title=" ">
<polygon fill="white" stroke="black" points="340,-196.5 340,-226.5 468,-226.5 468,-196.5 340,-196.5"/>
<text text-anchor="start" x="348" y="-214.5" font-family="Helvetica,sans-Serif" font-size="10.00">cppgc::internal::Persistent</text>
<text text-anchor="middle" x="404" y="-203.5" font-family="Helvetica,sans-Serif" font-size="10.00">Region::FreeNode</text>
</a>
</g>
</g>
<!-- Node2&#45;&gt;Node3 -->
<g id="edge2" class="edge">
<title>Node2&#45;&gt;Node3</title>
<path fill="none" stroke="midnightblue" d="M252.7,-115.6C271.52,-134.26 305.81,-166.05 340,-186.5 343.37,-188.52 346.93,-190.43 350.57,-192.24"/>
<polygon fill="midnightblue" stroke="midnightblue" points="349.2,-195.46 359.75,-196.5 352.15,-189.11 349.2,-195.46"/>
</g>
<!-- Node5 -->
<g id="node5" class="node">
<title>Node5</title>
<g id="a_node5"><a xlink:href="classcppgc_1_1internal_1_1PersistentBase.html#aa189d8229e1fd8cc2cfce363ade822c6" target="_top" xlink:title=" ">
<polygon fill="white" stroke="black" points="340,-147.5 340,-177.5 468,-177.5 468,-147.5 340,-147.5"/>
<text text-anchor="start" x="348" y="-165.5" font-family="Helvetica,sans-Serif" font-size="10.00">cppgc::internal::Persistent</text>
<text text-anchor="middle" x="404" y="-154.5" font-family="Helvetica,sans-Serif" font-size="10.00">Base::GetNode</text>
</a>
</g>
</g>
<!-- Node2&#45;&gt;Node5 -->
<g id="edge4" class="edge">
<title>Node2&#45;&gt;Node5</title>
<path fill="none" stroke="midnightblue" d="M277.94,-115.51C300.57,-124.01 329.09,-134.73 353.18,-143.78"/>
<polygon fill="midnightblue" stroke="midnightblue" points="352.26,-147.17 362.85,-147.41 354.72,-140.62 352.26,-147.17"/>
</g>
<!-- Node6 -->
<g id="node6" class="node">
<title>Node6</title>
<g id="a_node6"><a xlink:href="classcppgc_1_1internal_1_1PersistentBase.html#a2fce9ff2e5e2e6e347e31dc1399c7acb" target="_top" xlink:title=" ">
<polygon fill="white" stroke="black" points="340,-0.5 340,-30.5 468,-30.5 468,-0.5 340,-0.5"/>
<text text-anchor="start" x="348" y="-18.5" font-family="Helvetica,sans-Serif" font-size="10.00">cppgc::internal::Persistent</text>
<text text-anchor="middle" x="404" y="-7.5" font-family="Helvetica,sans-Serif" font-size="10.00">Base::GetValue</text>
</a>
</g>
</g>
<!-- Node2&#45;&gt;Node6 -->
<g id="edge5" class="edge">
<title>Node2&#45;&gt;Node6</title>
<path fill="none" stroke="midnightblue" d="M265.89,-85.49C277.76,-78.94 291.68,-71.05 304,-63.5 320.4,-53.46 322.91,-48.31 340,-39.5 343.32,-37.79 346.78,-36.13 350.31,-34.55"/>
<polygon fill="midnightblue" stroke="midnightblue" points="351.93,-37.66 359.74,-30.5 349.17,-31.23 351.93,-37.66"/>
</g>
<!-- Node7 -->
<g id="node7" class="node">
<title>Node7</title>
<g id="a_node7"><a xlink:href="classcppgc_1_1internal_1_1PersistentBase.html#af84e1d2f71c9cbd3f0a4424339c725cb" target="_top" xlink:title=" ">
<polygon fill="white" stroke="black" points="340,-98.5 340,-128.5 468,-128.5 468,-98.5 340,-98.5"/>
<text text-anchor="start" x="348" y="-116.5" font-family="Helvetica,sans-Serif" font-size="10.00">cppgc::internal::Persistent</text>
<text text-anchor="middle" x="404" y="-105.5" font-family="Helvetica,sans-Serif" font-size="10.00">Base::SetNode</text>
</a>
</g>
</g>
<!-- Node2&#45;&gt;Node7 -->
<g id="edge6" class="edge">
<title>Node2&#45;&gt;Node7</title>
<path fill="none" stroke="midnightblue" d="M304.16,-105.71C312.51,-106.37 321.09,-107.05 329.55,-107.71"/>
<polygon fill="midnightblue" stroke="midnightblue" points="329.53,-111.22 339.77,-108.52 330.08,-104.24 329.53,-111.22"/>
</g>
<!-- Node8 -->
<g id="node8" class="node">
<title>Node8</title>
<g id="a_node8"><a xlink:href="classcppgc_1_1internal_1_1PersistentBase.html#a697d2fa1fc753a2f2e8c479143d72995" target="_top" xlink:title=" ">
<polygon fill="white" stroke="black" points="340,-49.5 340,-79.5 468,-79.5 468,-49.5 340,-49.5"/>
<text text-anchor="start" x="348" y="-67.5" font-family="Helvetica,sans-Serif" font-size="10.00">cppgc::internal::Persistent</text>
<text text-anchor="middle" x="404" y="-56.5" font-family="Helvetica,sans-Serif" font-size="10.00">Base::SetValue</text>
</a>
</g>
</g>
<!-- Node2&#45;&gt;Node8 -->
<g id="edge7" class="edge">
<title>Node2&#45;&gt;Node8</title>
<path fill="none" stroke="midnightblue" d="M304.16,-86.06C312.6,-84.22 321.28,-82.33 329.83,-80.47"/>
<polygon fill="midnightblue" stroke="midnightblue" points="330.75,-83.85 339.77,-78.3 329.26,-77.01 330.75,-83.85"/>
</g>
<!-- Node4 -->
<g id="node4" class="node">
<title>Node4</title>
<g id="a_node4"><a xlink:href="classcppgc_1_1internal_1_1PersistentNode.html#a54960a446ce00f010add74b54bccc0ba" target="_top" xlink:title=" ">
<polygon fill="white" stroke="black" points="504,-196.5 504,-226.5 638,-226.5 638,-196.5 504,-196.5"/>
<text text-anchor="start" x="512" y="-214.5" font-family="Helvetica,sans-Serif" font-size="10.00">cppgc::internal::Persistent</text>
<text text-anchor="middle" x="571" y="-203.5" font-family="Helvetica,sans-Serif" font-size="10.00">Node::InitializeAsFreeNode</text>
</a>
</g>
</g>
<!-- Node3&#45;&gt;Node4 -->
<g id="edge3" class="edge">
<title>Node3&#45;&gt;Node4</title>
<path fill="none" stroke="midnightblue" d="M468.32,-211.5C476.59,-211.5 485.13,-211.5 493.59,-211.5"/>
<polygon fill="midnightblue" stroke="midnightblue" points="493.84,-215 503.84,-211.5 493.84,-208 493.84,-215"/>
</g>
<!-- Node9&#45;&gt;Node6 -->
<g id="edge9" class="edge">
<title>Node9&#45;&gt;Node6</title>
<path fill="none" stroke="midnightblue" d="M304.16,-29.88C312.6,-28.65 321.28,-27.39 329.83,-26.14"/>
<polygon fill="midnightblue" stroke="midnightblue" points="330.38,-29.6 339.77,-24.7 329.37,-22.67 330.38,-29.6"/>
</g>
</g>
</svg>
