<?xml version="1.0" encoding="UTF-8" standalone="no"?>
<!DOCTYPE svg PUBLIC "-//W3C//DTD SVG 1.1//EN"
 "http://www.w3.org/Graphics/SVG/1.1/DTD/svg11.dtd">
<!-- Generated by graphviz version 2.49.3 (20211027.1534)
 -->
<!-- Title: include/cppgc/prefinalizer.h Pages: 1 -->
<svg width="1386pt" height="520pt"
 viewBox="0.00 0.00 1385.50 520.00" xmlns="http://www.w3.org/2000/svg" xmlns:xlink="http://www.w3.org/1999/xlink">
<g id="graph0" class="graph" transform="scale(1 1) rotate(0) translate(4 516)">
<title>include/cppgc/prefinalizer.h</title>
<polygon fill="white" stroke="transparent" points="-4,4 -4,-516 1381.5,-516 1381.5,4 -4,4"/>
<!-- Node1 -->
<g id="node1" class="node">
<title>Node1</title>
<g id="a_node1"><a xlink:title=" ">
<polygon fill="#bfbfbf" stroke="black" points="801.5,-492.5 801.5,-511.5 934.5,-511.5 934.5,-492.5 801.5,-492.5"/>
<text text-anchor="middle" x="868" y="-499.5" font-family="Helvetica,sans-Serif" font-size="10.00">include/cppgc/prefinalizer.h</text>
</a>
</g>
</g>
<!-- Node2 -->
<g id="node2" class="node">
<title>Node2</title>
<g id="a_node2"><a xlink:href="compiler-specific_8h.html" target="_top" xlink:title=" ">
<polygon fill="white" stroke="black" points="722.5,-425.5 722.5,-455.5 839.5,-455.5 839.5,-425.5 722.5,-425.5"/>
<text text-anchor="start" x="730.5" y="-443.5" font-family="Helvetica,sans-Serif" font-size="10.00">cppgc/internal/compiler</text>
<text text-anchor="middle" x="781" y="-432.5" font-family="Helvetica,sans-Serif" font-size="10.00">&#45;specific.h</text>
</a>
</g>
</g>
<!-- Node1&#45;&gt;Node2 -->
<g id="edge1" class="edge">
<title>Node1&#45;&gt;Node2</title>
<path fill="none" stroke="midnightblue" d="M855.54,-492.48C843.64,-484.34 825.29,-471.79 809.77,-461.18"/>
<polygon fill="midnightblue" stroke="midnightblue" points="811.73,-458.28 801.5,-455.52 807.78,-464.06 811.73,-458.28"/>
</g>
<!-- Node3 -->
<g id="node3" class="node">
<title>Node3</title>
<g id="a_node3"><a xlink:href="prefinalizer-handler_8h.html" target="_top" xlink:title=" ">
<polygon fill="white" stroke="black" points="896,-425.5 896,-455.5 1022,-455.5 1022,-425.5 896,-425.5"/>
<text text-anchor="start" x="904" y="-443.5" font-family="Helvetica,sans-Serif" font-size="10.00">cppgc/internal/prefinalizer</text>
<text text-anchor="middle" x="959" y="-432.5" font-family="Helvetica,sans-Serif" font-size="10.00">&#45;handler.h</text>
</a>
</g>
</g>
<!-- Node1&#45;&gt;Node3 -->
<g id="edge2" class="edge">
<title>Node1&#45;&gt;Node3</title>
<path fill="none" stroke="midnightblue" d="M881.04,-492.48C893.48,-484.34 912.67,-471.79 928.9,-461.18"/>
<polygon fill="midnightblue" stroke="midnightblue" points="931.1,-463.92 937.55,-455.52 927.27,-458.07 931.1,-463.92"/>
</g>
<!-- Node16 -->
<g id="node16" class="node">
<title>Node16</title>
<g id="a_node16"><a xlink:href="liveness-broker_8h.html" target="_top" xlink:title=" ">
<polygon fill="white" stroke="black" points="808.5,-369.5 808.5,-388.5 927.5,-388.5 927.5,-369.5 808.5,-369.5"/>
<text text-anchor="middle" x="868" y="-376.5" font-family="Helvetica,sans-Serif" font-size="10.00">cppgc/liveness&#45;broker.h</text>
</a>
</g>
</g>
<!-- Node1&#45;&gt;Node16 -->
<g id="edge55" class="edge">
<title>Node1&#45;&gt;Node16</title>
<path fill="none" stroke="midnightblue" d="M868,-492.3C868,-472.85 868,-425.49 868,-398.9"/>
<polygon fill="midnightblue" stroke="midnightblue" points="871.5,-398.62 868,-388.62 864.5,-398.62 871.5,-398.62"/>
</g>
<!-- Node4 -->
<g id="node4" class="node">
<title>Node4</title>
<g id="a_node4"><a xlink:href="heap_8h.html" target="_top" xlink:title=" ">
<polygon fill="white" stroke="black" points="1015,-252 1015,-271 1089,-271 1089,-252 1015,-252"/>
<text text-anchor="middle" x="1052" y="-259" font-family="Helvetica,sans-Serif" font-size="10.00">cppgc/heap.h</text>
</a>
</g>
</g>
<!-- Node3&#45;&gt;Node4 -->
<g id="edge3" class="edge">
<title>Node3&#45;&gt;Node4</title>
<path fill="none" stroke="midnightblue" d="M966.45,-425.31C983.24,-393.36 1024.01,-315.78 1042.54,-280.5"/>
<polygon fill="midnightblue" stroke="midnightblue" points="1045.78,-281.85 1047.34,-271.37 1039.59,-278.6 1045.78,-281.85"/>
</g>
<!-- Node3&#45;&gt;Node16 -->
<g id="edge20" class="edge">
<title>Node3&#45;&gt;Node16</title>
<path fill="none" stroke="midnightblue" d="M937.43,-425.4C923.12,-416.04 904.39,-403.79 889.99,-394.38"/>
<polygon fill="midnightblue" stroke="midnightblue" points="891.53,-391.2 881.24,-388.66 887.7,-397.06 891.53,-391.2"/>
</g>
<!-- Node5 -->
<g id="node5" class="node">
<title>Node5</title>
<g id="a_node5"><a xlink:title=" ">
<polygon fill="white" stroke="#bfbfbf" points="1326.5,-56.5 1326.5,-75.5 1377.5,-75.5 1377.5,-56.5 1326.5,-56.5"/>
<text text-anchor="middle" x="1352" y="-63.5" font-family="Helvetica,sans-Serif" font-size="10.00">memory</text>
</a>
</g>
</g>
<!-- Node4&#45;&gt;Node5 -->
<g id="edge4" class="edge">
<title>Node4&#45;&gt;Node5</title>
<path fill="none" stroke="midnightblue" d="M1089.01,-259.29C1158.37,-256.19 1303.9,-245.53 1337,-210 1368.53,-176.15 1362.27,-116.37 1356.41,-85.94"/>
<polygon fill="midnightblue" stroke="midnightblue" points="1359.77,-84.88 1354.26,-75.83 1352.92,-86.34 1359.77,-84.88"/>
</g>
<!-- Node6 -->
<g id="node6" class="node">
<title>Node6</title>
<g id="a_node6"><a xlink:title=" ">
<polygon fill="white" stroke="#bfbfbf" points="1284,-185 1284,-204 1328,-204 1328,-185 1284,-185"/>
<text text-anchor="middle" x="1306" y="-192" font-family="Helvetica,sans-Serif" font-size="10.00">vector</text>
</a>
</g>
</g>
<!-- Node4&#45;&gt;Node6 -->
<g id="edge5" class="edge">
<title>Node4&#45;&gt;Node6</title>
<path fill="none" stroke="midnightblue" d="M1089.19,-254.8C1134.23,-247.28 1212.02,-232.34 1276,-210 1277.61,-209.44 1279.26,-208.81 1280.9,-208.14"/>
<polygon fill="midnightblue" stroke="midnightblue" points="1282.4,-211.3 1290.1,-204.02 1279.54,-204.91 1282.4,-211.3"/>
</g>
<!-- Node7 -->
<g id="node7" class="node">
<title>Node7</title>
<g id="a_node7"><a xlink:href="common_8h.html" target="_top" xlink:title=" ">
<polygon fill="white" stroke="black" points="896.5,-185 896.5,-204 987.5,-204 987.5,-185 896.5,-185"/>
<text text-anchor="middle" x="942" y="-192" font-family="Helvetica,sans-Serif" font-size="10.00">cppgc/common.h</text>
</a>
</g>
</g>
<!-- Node4&#45;&gt;Node7 -->
<g id="edge6" class="edge">
<title>Node4&#45;&gt;Node7</title>
<path fill="none" stroke="midnightblue" d="M1037.16,-251.73C1018.69,-240.82 986.93,-222.05 965.22,-209.22"/>
<polygon fill="midnightblue" stroke="midnightblue" points="966.99,-206.2 956.6,-204.13 963.43,-212.23 966.99,-206.2"/>
</g>
<!-- Node8 -->
<g id="node8" class="node">
<title>Node8</title>
<g id="a_node8"><a xlink:href="v8config_8h.html" target="_top" xlink:title=" ">
<polygon fill="white" stroke="black" points="866,-56.5 866,-75.5 926,-75.5 926,-56.5 866,-56.5"/>
<text text-anchor="middle" x="896" y="-63.5" font-family="Helvetica,sans-Serif" font-size="10.00">v8config.h</text>
</a>
</g>
</g>
<!-- Node4&#45;&gt;Node8 -->
<g id="edge19" class="edge">
<title>Node4&#45;&gt;Node8</title>
<path fill="none" stroke="midnightblue" d="M1049.03,-251.81C1040.3,-227.29 1012.6,-156.42 970,-112 957.28,-98.74 939.84,-87.88 925.08,-80.16"/>
<polygon fill="midnightblue" stroke="midnightblue" points="926.36,-76.88 915.85,-75.54 923.23,-83.14 926.36,-76.88"/>
</g>
<!-- Node9 -->
<g id="node9" class="node">
<title>Node9</title>
<g id="a_node9"><a xlink:href="custom-space_8h.html" target="_top" xlink:title=" ">
<polygon fill="white" stroke="black" points="1151.5,-185 1151.5,-204 1266.5,-204 1266.5,-185 1151.5,-185"/>
<text text-anchor="middle" x="1209" y="-192" font-family="Helvetica,sans-Serif" font-size="10.00">cppgc/custom&#45;space.h</text>
</a>
</g>
</g>
<!-- Node4&#45;&gt;Node9 -->
<g id="edge8" class="edge">
<title>Node4&#45;&gt;Node9</title>
<path fill="none" stroke="midnightblue" d="M1072.85,-251.87C1099.94,-240.65 1147.46,-220.98 1178.58,-208.09"/>
<polygon fill="midnightblue" stroke="midnightblue" points="1180.16,-211.23 1188.07,-204.17 1177.49,-204.76 1180.16,-211.23"/>
</g>
<!-- Node11 -->
<g id="node11" class="node">
<title>Node11</title>
<g id="a_node11"><a xlink:href="platform_8h.html" target="_top" xlink:title=" ">
<polygon fill="white" stroke="black" points="1044.5,-185 1044.5,-204 1133.5,-204 1133.5,-185 1044.5,-185"/>
<text text-anchor="middle" x="1089" y="-192" font-family="Helvetica,sans-Serif" font-size="10.00">cppgc/platform.h</text>
</a>
</g>
</g>
<!-- Node4&#45;&gt;Node11 -->
<g id="edge10" class="edge">
<title>Node4&#45;&gt;Node11</title>
<path fill="none" stroke="midnightblue" d="M1056.99,-251.73C1062.59,-241.89 1071.83,-225.66 1078.95,-213.16"/>
<polygon fill="midnightblue" stroke="midnightblue" points="1082.18,-214.55 1084.09,-204.13 1076.1,-211.09 1082.18,-214.55"/>
</g>
<!-- Node7&#45;&gt;Node8 -->
<g id="edge7" class="edge">
<title>Node7&#45;&gt;Node8</title>
<path fill="none" stroke="midnightblue" d="M946.37,-184.91C953.55,-169.48 965.95,-136.4 954,-112 947.48,-98.68 934.9,-88.18 923.13,-80.68"/>
<polygon fill="midnightblue" stroke="midnightblue" points="924.78,-77.59 914.39,-75.53 921.23,-83.62 924.78,-77.59"/>
</g>
<!-- Node10 -->
<g id="node10" class="node">
<title>Node10</title>
<g id="a_node10"><a xlink:title=" ">
<polygon fill="white" stroke="#bfbfbf" points="1251.5,-56.5 1251.5,-75.5 1302.5,-75.5 1302.5,-56.5 1251.5,-56.5"/>
<text text-anchor="middle" x="1277" y="-63.5" font-family="Helvetica,sans-Serif" font-size="10.00">stddef.h</text>
</a>
</g>
</g>
<!-- Node9&#45;&gt;Node10 -->
<g id="edge9" class="edge">
<title>Node9&#45;&gt;Node10</title>
<path fill="none" stroke="midnightblue" d="M1228.55,-184.88C1244.53,-176.66 1266.06,-162.62 1276,-143 1285.02,-125.19 1283.73,-101.89 1281.16,-85.81"/>
<polygon fill="midnightblue" stroke="midnightblue" points="1284.52,-84.72 1279.2,-75.55 1277.64,-86.03 1284.52,-84.72"/>
</g>
<!-- Node11&#45;&gt;Node8 -->
<g id="edge18" class="edge">
<title>Node11&#45;&gt;Node8</title>
<path fill="none" stroke="midnightblue" d="M1084.97,-184.75C1076.9,-168.15 1057.16,-131.97 1030,-112 1002.18,-91.54 964.46,-79.98 936.12,-73.71"/>
<polygon fill="midnightblue" stroke="midnightblue" points="936.65,-70.25 926.14,-71.64 935.22,-77.1 936.65,-70.25"/>
</g>
<!-- Node12 -->
<g id="node12" class="node">
<title>Node12</title>
<g id="a_node12"><a xlink:href="v8-platform_8h.html" target="_top" xlink:title=" ">
<polygon fill="white" stroke="black" points="1193.5,-118 1193.5,-137 1266.5,-137 1266.5,-118 1193.5,-118"/>
<text text-anchor="middle" x="1230" y="-125" font-family="Helvetica,sans-Serif" font-size="10.00">v8&#45;platform.h</text>
</a>
</g>
</g>
<!-- Node11&#45;&gt;Node12 -->
<g id="edge11" class="edge">
<title>Node11&#45;&gt;Node12</title>
<path fill="none" stroke="midnightblue" d="M1107.72,-184.87C1131.85,-173.75 1174,-154.32 1201.95,-141.43"/>
<polygon fill="midnightblue" stroke="midnightblue" points="1203.58,-144.53 1211.2,-137.17 1200.65,-138.18 1203.58,-144.53"/>
</g>
<!-- Node12&#45;&gt;Node5 -->
<g id="edge15" class="edge">
<title>Node12&#45;&gt;Node5</title>
<path fill="none" stroke="midnightblue" d="M1247.48,-117.98C1267.86,-108.03 1301.78,-91.49 1325.42,-79.96"/>
<polygon fill="midnightblue" stroke="midnightblue" points="1327.1,-83.04 1334.55,-75.51 1324.03,-76.75 1327.1,-83.04"/>
</g>
<!-- Node12&#45;&gt;Node8 -->
<g id="edge17" class="edge">
<title>Node12&#45;&gt;Node8</title>
<path fill="none" stroke="midnightblue" d="M1205.91,-117.97C1199.2,-115.8 1191.87,-113.63 1185,-112 1097.51,-91.23 992.77,-77.66 936.51,-71.27"/>
<polygon fill="midnightblue" stroke="midnightblue" points="936.58,-67.76 926.26,-70.12 935.81,-74.71 936.58,-67.76"/>
</g>
<!-- Node12&#45;&gt;Node10 -->
<g id="edge12" class="edge">
<title>Node12&#45;&gt;Node10</title>
<path fill="none" stroke="midnightblue" d="M1236.73,-117.98C1243.78,-109.05 1255.03,-94.81 1263.85,-83.64"/>
<polygon fill="midnightblue" stroke="midnightblue" points="1266.83,-85.53 1270.28,-75.51 1261.33,-81.19 1266.83,-85.53"/>
</g>
<!-- Node13 -->
<g id="node13" class="node">
<title>Node13</title>
<g id="a_node13"><a xlink:title=" ">
<polygon fill="white" stroke="#bfbfbf" points="1108,-56.5 1108,-75.5 1156,-75.5 1156,-56.5 1108,-56.5"/>
<text text-anchor="middle" x="1132" y="-63.5" font-family="Helvetica,sans-Serif" font-size="10.00">stdint.h</text>
</a>
</g>
</g>
<!-- Node12&#45;&gt;Node13 -->
<g id="edge13" class="edge">
<title>Node12&#45;&gt;Node13</title>
<path fill="none" stroke="midnightblue" d="M1215.96,-117.98C1199.95,-108.25 1173.55,-92.23 1154.63,-80.74"/>
<polygon fill="midnightblue" stroke="midnightblue" points="1156.38,-77.71 1146.01,-75.51 1152.75,-83.69 1156.38,-77.71"/>
</g>
<!-- Node14 -->
<g id="node14" class="node">
<title>Node14</title>
<g id="a_node14"><a xlink:title=" ">
<polygon fill="white" stroke="#bfbfbf" points="1186.5,-56.5 1186.5,-75.5 1233.5,-75.5 1233.5,-56.5 1186.5,-56.5"/>
<text text-anchor="middle" x="1210" y="-63.5" font-family="Helvetica,sans-Serif" font-size="10.00">stdlib.h</text>
</a>
</g>
</g>
<!-- Node12&#45;&gt;Node14 -->
<g id="edge14" class="edge">
<title>Node12&#45;&gt;Node14</title>
<path fill="none" stroke="midnightblue" d="M1227.13,-117.98C1224.28,-109.49 1219.82,-96.2 1216.16,-85.32"/>
<polygon fill="midnightblue" stroke="midnightblue" points="1219.36,-83.87 1212.86,-75.51 1212.73,-86.1 1219.36,-83.87"/>
</g>
<!-- Node15 -->
<g id="node15" class="node">
<title>Node15</title>
<g id="a_node15"><a xlink:title=" ">
<polygon fill="white" stroke="#bfbfbf" points="1020.5,-56.5 1020.5,-75.5 1061.5,-75.5 1061.5,-56.5 1020.5,-56.5"/>
<text text-anchor="middle" x="1041" y="-63.5" font-family="Helvetica,sans-Serif" font-size="10.00">string</text>
</a>
</g>
</g>
<!-- Node12&#45;&gt;Node15 -->
<g id="edge16" class="edge">
<title>Node12&#45;&gt;Node15</title>
<path fill="none" stroke="midnightblue" d="M1203.36,-117.87C1197.33,-115.93 1190.95,-113.89 1185,-112 1145.7,-99.53 1100.27,-85.38 1071.12,-76.33"/>
<polygon fill="midnightblue" stroke="midnightblue" points="1072.11,-72.97 1061.53,-73.35 1070.04,-79.66 1072.11,-72.97"/>
</g>
<!-- Node16&#45;&gt;Node4 -->
<g id="edge21" class="edge">
<title>Node16&#45;&gt;Node4</title>
<path fill="none" stroke="midnightblue" d="M881.83,-369.32C913.4,-349.5 991,-300.79 1029.54,-276.6"/>
<polygon fill="midnightblue" stroke="midnightblue" points="1031.4,-279.56 1038.01,-271.28 1027.68,-273.63 1031.4,-279.56"/>
</g>
<!-- Node16&#45;&gt;Node8 -->
<g id="edge54" class="edge">
<title>Node16&#45;&gt;Node8</title>
<path fill="none" stroke="midnightblue" d="M866.89,-369.15C863.65,-340.25 856.31,-246.63 887,-179 896.09,-158.96 912.87,-163.45 921,-143 928.9,-123.12 918.25,-99.65 908.5,-84.1"/>
<polygon fill="midnightblue" stroke="midnightblue" points="911.22,-81.88 902.73,-75.55 905.42,-85.8 911.22,-81.88"/>
</g>
<!-- Node17 -->
<g id="node17" class="node">
<title>Node17</title>
<g id="a_node17"><a xlink:href="member_8h.html" target="_top" xlink:title=" ">
<polygon fill="white" stroke="black" points="287.5,-313.5 287.5,-332.5 376.5,-332.5 376.5,-313.5 287.5,-313.5"/>
<text text-anchor="middle" x="332" y="-320.5" font-family="Helvetica,sans-Serif" font-size="10.00">cppgc/member.h</text>
</a>
</g>
</g>
<!-- Node16&#45;&gt;Node17 -->
<g id="edge22" class="edge">
<title>Node16&#45;&gt;Node17</title>
<path fill="none" stroke="midnightblue" d="M808.33,-371.99C703.47,-361.42 487.67,-339.68 386.54,-329.49"/>
<polygon fill="midnightblue" stroke="midnightblue" points="386.84,-326.01 376.54,-328.49 386.14,-332.97 386.84,-326.01"/>
</g>
<!-- Node28 -->
<g id="node28" class="node">
<title>Node28</title>
<g id="a_node28"><a xlink:href="trace-trait_8h.html" target="_top" xlink:title=" ">
<polygon fill="white" stroke="black" points="446.5,-118 446.5,-137 541.5,-137 541.5,-118 446.5,-118"/>
<text text-anchor="middle" x="494" y="-125" font-family="Helvetica,sans-Serif" font-size="10.00">cppgc/trace&#45;trait.h</text>
</a>
</g>
</g>
<!-- Node16&#45;&gt;Node28 -->
<g id="edge53" class="edge">
<title>Node16&#45;&gt;Node28</title>
<path fill="none" stroke="midnightblue" d="M846.29,-369.43C779.59,-342.75 579.22,-260 531,-210 513.85,-192.22 503.73,-165.08 498.52,-147.08"/>
<polygon fill="midnightblue" stroke="midnightblue" points="501.85,-145.97 495.9,-137.21 495.09,-147.77 501.85,-145.97"/>
</g>
<!-- Node17&#45;&gt;Node8 -->
<g id="edge52" class="edge">
<title>Node17&#45;&gt;Node8</title>
<path fill="none" stroke="midnightblue" d="M376.94,-319.26C427.79,-314.95 512.35,-304.05 580,-277 630.36,-256.86 639.68,-243.93 682,-210 706.4,-190.44 756.75,-129 783,-112 805.54,-97.4 833.58,-86.2 856.08,-78.63"/>
<polygon fill="midnightblue" stroke="midnightblue" points="857.25,-81.93 865.67,-75.5 855.08,-75.27 857.25,-81.93"/>
</g>
<!-- Node18 -->
<g id="node18" class="node">
<title>Node18</title>
<g id="a_node18"><a xlink:title=" ">
<polygon fill="white" stroke="#bfbfbf" points="229,-56.5 229,-75.5 275,-75.5 275,-56.5 229,-56.5"/>
<text text-anchor="middle" x="252" y="-63.5" font-family="Helvetica,sans-Serif" font-size="10.00">atomic</text>
</a>
</g>
</g>
<!-- Node17&#45;&gt;Node18 -->
<g id="edge23" class="edge">
<title>Node17&#45;&gt;Node18</title>
<path fill="none" stroke="midnightblue" d="M313.11,-313.49C298.94,-306.03 280.43,-293.74 271,-277 235.85,-214.56 243.34,-124.82 248.82,-86.04"/>
<polygon fill="midnightblue" stroke="midnightblue" points="252.35,-86.15 250.41,-75.73 245.43,-85.08 252.35,-86.15"/>
</g>
<!-- Node19 -->
<g id="node19" class="node">
<title>Node19</title>
<g id="a_node19"><a xlink:title=" ">
<polygon fill="white" stroke="#bfbfbf" points="280.5,-252 280.5,-271 329.5,-271 329.5,-252 280.5,-252"/>
<text text-anchor="middle" x="305" y="-259" font-family="Helvetica,sans-Serif" font-size="10.00">cstddef</text>
</a>
</g>
</g>
<!-- Node17&#45;&gt;Node19 -->
<g id="edge24" class="edge">
<title>Node17&#45;&gt;Node19</title>
<path fill="none" stroke="midnightblue" d="M328.13,-313.48C324.2,-304.82 318,-291.15 313.01,-280.15"/>
<polygon fill="midnightblue" stroke="midnightblue" points="316.18,-278.67 308.86,-271.01 309.81,-281.56 316.18,-278.67"/>
</g>
<!-- Node20 -->
<g id="node20" class="node">
<title>Node20</title>
<g id="a_node20"><a xlink:title=" ">
<polygon fill="white" stroke="#bfbfbf" points="158,-0.5 158,-19.5 220,-19.5 220,-0.5 158,-0.5"/>
<text text-anchor="middle" x="189" y="-7.5" font-family="Helvetica,sans-Serif" font-size="10.00">type_traits</text>
</a>
</g>
</g>
<!-- Node17&#45;&gt;Node20 -->
<g id="edge25" class="edge">
<title>Node17&#45;&gt;Node20</title>
<path fill="none" stroke="midnightblue" d="M287.23,-314.62C196.6,-298.42 0,-256.26 0,-195.5 0,-195.5 0,-195.5 0,-126.5 0,-57.72 92.27,-28.67 147.87,-17.4"/>
<polygon fill="midnightblue" stroke="midnightblue" points="148.63,-20.82 157.79,-15.5 147.31,-13.95 148.63,-20.82"/>
</g>
<!-- Node21 -->
<g id="node21" class="node">
<title>Node21</title>
<g id="a_node21"><a xlink:href="pointer-policies_8h.html" target="_top" xlink:title=" ">
<polygon fill="white" stroke="black" points="461,-246.5 461,-276.5 571,-276.5 571,-246.5 461,-246.5"/>
<text text-anchor="start" x="469" y="-264.5" font-family="Helvetica,sans-Serif" font-size="10.00">cppgc/internal/pointer</text>
<text text-anchor="middle" x="516" y="-253.5" font-family="Helvetica,sans-Serif" font-size="10.00">&#45;policies.h</text>
</a>
</g>
</g>
<!-- Node17&#45;&gt;Node21 -->
<g id="edge26" class="edge">
<title>Node17&#45;&gt;Node21</title>
<path fill="none" stroke="midnightblue" d="M358.36,-313.48C385.5,-304.7 428.52,-290.79 462.77,-279.71"/>
<polygon fill="midnightblue" stroke="midnightblue" points="464.2,-282.93 472.63,-276.52 462.04,-276.27 464.2,-282.93"/>
</g>
<!-- Node27 -->
<g id="node27" class="node">
<title>Node27</title>
<g id="a_node27"><a xlink:href="sentinel-pointer_8h.html" target="_top" xlink:title=" ">
<polygon fill="white" stroke="black" points="104.5,-118 104.5,-137 223.5,-137 223.5,-118 104.5,-118"/>
<text text-anchor="middle" x="164" y="-125" font-family="Helvetica,sans-Serif" font-size="10.00">cppgc/sentinel&#45;pointer.h</text>
</a>
</g>
</g>
<!-- Node17&#45;&gt;Node27 -->
<g id="edge50" class="edge">
<title>Node17&#45;&gt;Node27</title>
<path fill="none" stroke="midnightblue" d="M302.28,-313.45C282.1,-306.39 255.92,-294.64 238,-277 199.61,-239.21 177.81,-177.37 168.86,-146.8"/>
<polygon fill="midnightblue" stroke="midnightblue" points="172.2,-145.74 166.13,-137.05 165.46,-147.62 172.2,-145.74"/>
</g>
<!-- Node29 -->
<g id="node29" class="node">
<title>Node29</title>
<g id="a_node29"><a xlink:href="type-traits_8h.html" target="_top" xlink:title=" ">
<polygon fill="white" stroke="black" points="293,-56.5 293,-75.5 389,-75.5 389,-56.5 293,-56.5"/>
<text text-anchor="middle" x="341" y="-63.5" font-family="Helvetica,sans-Serif" font-size="10.00">cppgc/type&#45;traits.h</text>
</a>
</g>
</g>
<!-- Node17&#45;&gt;Node29 -->
<g id="edge51" class="edge">
<title>Node17&#45;&gt;Node29</title>
<path fill="none" stroke="midnightblue" d="M333.95,-313.07C336.77,-298.83 341.33,-270.12 338,-246 329.66,-185.64 290.47,-170.05 309,-112 312.34,-101.54 319.1,-91.43 325.55,-83.45"/>
<polygon fill="midnightblue" stroke="midnightblue" points="328.35,-85.56 332.25,-75.71 323.06,-80.98 328.35,-85.56"/>
</g>
<!-- Node21&#45;&gt;Node8 -->
<g id="edge49" class="edge">
<title>Node21&#45;&gt;Node8</title>
<path fill="none" stroke="midnightblue" d="M567.98,-246.47C593.83,-238.14 624.85,-226.05 650,-210 702.46,-176.53 696.53,-143.84 750,-112 782.96,-92.37 825.29,-80.56 855.87,-73.99"/>
<polygon fill="midnightblue" stroke="midnightblue" points="856.67,-77.4 865.76,-71.96 855.26,-70.54 856.67,-77.4"/>
</g>
<!-- Node21&#45;&gt;Node20 -->
<g id="edge28" class="edge">
<title>Node21&#45;&gt;Node20</title>
<path fill="none" stroke="midnightblue" d="M460.93,-255.15C364.4,-245.45 172.29,-224.63 145,-210 81.58,-176 51.92,-113.64 95,-56 107.91,-38.72 129.19,-27.78 148.23,-21.01"/>
<polygon fill="midnightblue" stroke="midnightblue" points="149.51,-24.28 157.93,-17.85 147.34,-17.62 149.51,-24.28"/>
</g>
<!-- Node22 -->
<g id="node22" class="node">
<title>Node22</title>
<g id="a_node22"><a xlink:title=" ">
<polygon fill="white" stroke="#bfbfbf" points="104,-56.5 104,-75.5 150,-75.5 150,-56.5 104,-56.5"/>
<text text-anchor="middle" x="127" y="-63.5" font-family="Helvetica,sans-Serif" font-size="10.00">cstdint</text>
</a>
</g>
</g>
<!-- Node21&#45;&gt;Node22 -->
<g id="edge27" class="edge">
<title>Node21&#45;&gt;Node22</title>
<path fill="none" stroke="midnightblue" d="M460.91,-253.37C357.2,-238.68 139.39,-201.48 95,-143 81.14,-124.74 97.13,-99.6 111.06,-83.32"/>
<polygon fill="midnightblue" stroke="midnightblue" points="113.85,-85.46 117.98,-75.7 108.67,-80.75 113.85,-85.46"/>
</g>
<!-- Node23 -->
<g id="node23" class="node">
<title>Node23</title>
<g id="a_node23"><a xlink:href="write-barrier_8h.html" target="_top" xlink:title=" ">
<polygon fill="white" stroke="black" points="540.5,-179.5 540.5,-209.5 641.5,-209.5 641.5,-179.5 540.5,-179.5"/>
<text text-anchor="start" x="548.5" y="-197.5" font-family="Helvetica,sans-Serif" font-size="10.00">cppgc/internal/write</text>
<text text-anchor="middle" x="591" y="-186.5" font-family="Helvetica,sans-Serif" font-size="10.00">&#45;barrier.h</text>
</a>
</g>
</g>
<!-- Node21&#45;&gt;Node23 -->
<g id="edge29" class="edge">
<title>Node21&#45;&gt;Node23</title>
<path fill="none" stroke="midnightblue" d="M532.27,-246.4C542.4,-237.62 555.6,-226.18 566.92,-216.37"/>
<polygon fill="midnightblue" stroke="midnightblue" points="569.49,-218.77 574.76,-209.58 564.91,-213.48 569.49,-218.77"/>
</g>
<!-- Node30 -->
<g id="node30" class="node">
<title>Node30</title>
<g id="a_node30"><a xlink:href="source-location_8h.html" target="_top" xlink:title=" ">
<polygon fill="white" stroke="black" points="792.5,-118 792.5,-137 911.5,-137 911.5,-118 792.5,-118"/>
<text text-anchor="middle" x="852" y="-125" font-family="Helvetica,sans-Serif" font-size="10.00">cppgc/source&#45;location.h</text>
</a>
</g>
</g>
<!-- Node21&#45;&gt;Node30 -->
<g id="edge46" class="edge">
<title>Node21&#45;&gt;Node30</title>
<path fill="none" stroke="midnightblue" d="M571.22,-249.06C608.81,-240.42 659.3,-227.13 702,-210 749.7,-190.87 801.6,-160.26 830.13,-142.5"/>
<polygon fill="midnightblue" stroke="midnightblue" points="832.26,-145.3 838.86,-137.01 828.54,-139.37 832.26,-145.3"/>
</g>
<!-- Node23&#45;&gt;Node8 -->
<g id="edge45" class="edge">
<title>Node23&#45;&gt;Node8</title>
<path fill="none" stroke="midnightblue" d="M585.46,-179.2C579.53,-161.23 572.99,-130.53 589,-112 623.02,-72.63 780.49,-67.05 855.74,-66.69"/>
<polygon fill="midnightblue" stroke="midnightblue" points="855.8,-70.19 865.79,-66.67 855.79,-63.19 855.8,-70.19"/>
</g>
<!-- Node24 -->
<g id="node24" class="node">
<title>Node24</title>
<g id="a_node24"><a xlink:href="heap-state_8h.html" target="_top" xlink:title=" ">
<polygon fill="white" stroke="black" points="598.5,-118 598.5,-137 697.5,-137 697.5,-118 598.5,-118"/>
<text text-anchor="middle" x="648" y="-125" font-family="Helvetica,sans-Serif" font-size="10.00">cppgc/heap&#45;state.h</text>
</a>
</g>
</g>
<!-- Node23&#45;&gt;Node24 -->
<g id="edge30" class="edge">
<title>Node23&#45;&gt;Node24</title>
<path fill="none" stroke="midnightblue" d="M603.37,-179.4C612.26,-169.26 624.26,-155.57 633.59,-144.94"/>
<polygon fill="midnightblue" stroke="midnightblue" points="636.41,-147.02 640.38,-137.19 631.15,-142.41 636.41,-147.02"/>
</g>
<!-- Node25 -->
<g id="node25" class="node">
<title>Node25</title>
<g id="a_node25"><a xlink:href="api-constants_8h.html" target="_top" xlink:title=" ">
<polygon fill="white" stroke="black" points="1082.5,-112.5 1082.5,-142.5 1175.5,-142.5 1175.5,-112.5 1082.5,-112.5"/>
<text text-anchor="start" x="1090.5" y="-130.5" font-family="Helvetica,sans-Serif" font-size="10.00">cppgc/internal/api</text>
<text text-anchor="middle" x="1129" y="-119.5" font-family="Helvetica,sans-Serif" font-size="10.00">&#45;constants.h</text>
</a>
</g>
</g>
<!-- Node23&#45;&gt;Node25 -->
<g id="edge32" class="edge">
<title>Node23&#45;&gt;Node25</title>
<path fill="none" stroke="midnightblue" d="M641.61,-187.38C742.24,-175.23 966.8,-148.1 1072.25,-135.36"/>
<polygon fill="midnightblue" stroke="midnightblue" points="1072.87,-138.81 1082.38,-134.13 1072.03,-131.86 1072.87,-138.81"/>
</g>
<!-- Node26 -->
<g id="node26" class="node">
<title>Node26</title>
<g id="a_node26"><a xlink:href="atomic-entry-flag_8h.html" target="_top" xlink:title=" ">
<polygon fill="white" stroke="black" points="318,-112.5 318,-142.5 428,-142.5 428,-112.5 318,-112.5"/>
<text text-anchor="start" x="326" y="-130.5" font-family="Helvetica,sans-Serif" font-size="10.00">cppgc/internal/atomic</text>
<text text-anchor="middle" x="373" y="-119.5" font-family="Helvetica,sans-Serif" font-size="10.00">&#45;entry&#45;flag.h</text>
</a>
</g>
</g>
<!-- Node23&#45;&gt;Node26 -->
<g id="edge36" class="edge">
<title>Node23&#45;&gt;Node26</title>
<path fill="none" stroke="midnightblue" d="M543.97,-179.48C510.56,-169.51 465.52,-156.09 430.06,-145.51"/>
<polygon fill="midnightblue" stroke="midnightblue" points="430.91,-142.11 420.33,-142.61 428.91,-148.82 430.91,-142.11"/>
</g>
<!-- Node23&#45;&gt;Node27 -->
<g id="edge38" class="edge">
<title>Node23&#45;&gt;Node27</title>
<path fill="none" stroke="midnightblue" d="M540.34,-185.79C463.07,-174.03 315.73,-151.6 230.13,-138.57"/>
<polygon fill="midnightblue" stroke="midnightblue" points="230.41,-135.07 220,-137.02 229.36,-141.99 230.41,-135.07"/>
</g>
<!-- Node23&#45;&gt;Node28 -->
<g id="edge40" class="edge">
<title>Node23&#45;&gt;Node28</title>
<path fill="none" stroke="midnightblue" d="M569.95,-179.4C553.69,-168.5 531.28,-153.48 515.02,-142.58"/>
<polygon fill="midnightblue" stroke="midnightblue" points="516.95,-139.67 506.7,-137.01 513.05,-145.48 516.95,-139.67"/>
</g>
<!-- Node24&#45;&gt;Node8 -->
<g id="edge31" class="edge">
<title>Node24&#45;&gt;Node8</title>
<path fill="none" stroke="midnightblue" d="M683.53,-117.98C729.2,-107.02 808.28,-88.05 856.01,-76.6"/>
<polygon fill="midnightblue" stroke="midnightblue" points="857.07,-79.94 865.98,-74.2 855.44,-73.13 857.07,-79.94"/>
</g>
<!-- Node25&#45;&gt;Node8 -->
<g id="edge35" class="edge">
<title>Node25&#45;&gt;Node8</title>
<path fill="none" stroke="midnightblue" d="M1082.41,-114.6C1039.56,-103.66 976.69,-87.6 936.04,-77.23"/>
<polygon fill="midnightblue" stroke="midnightblue" points="936.77,-73.8 926.22,-74.72 935.04,-80.58 936.77,-73.8"/>
</g>
<!-- Node25&#45;&gt;Node10 -->
<g id="edge33" class="edge">
<title>Node25&#45;&gt;Node10</title>
<path fill="none" stroke="midnightblue" d="M1164.07,-112.4C1189.02,-102.37 1222.21,-89.03 1246.14,-79.4"/>
<polygon fill="midnightblue" stroke="midnightblue" points="1247.49,-82.64 1255.46,-75.66 1244.88,-76.14 1247.49,-82.64"/>
</g>
<!-- Node25&#45;&gt;Node13 -->
<g id="edge34" class="edge">
<title>Node25&#45;&gt;Node13</title>
<path fill="none" stroke="midnightblue" d="M1129.71,-112.4C1130.11,-104.47 1130.62,-94.46 1131.05,-85.86"/>
<polygon fill="midnightblue" stroke="midnightblue" points="1134.56,-85.82 1131.56,-75.66 1127.56,-85.47 1134.56,-85.82"/>
</g>
<!-- Node26&#45;&gt;Node18 -->
<g id="edge37" class="edge">
<title>Node26&#45;&gt;Node18</title>
<path fill="none" stroke="midnightblue" d="M344.32,-112.4C324.48,-102.64 298.24,-89.74 278.81,-80.18"/>
<polygon fill="midnightblue" stroke="midnightblue" points="280.12,-76.93 269.61,-75.66 277.04,-83.21 280.12,-76.93"/>
</g>
<!-- Node27&#45;&gt;Node22 -->
<g id="edge39" class="edge">
<title>Node27&#45;&gt;Node22</title>
<path fill="none" stroke="midnightblue" d="M158.7,-117.98C153.26,-109.23 144.64,-95.37 137.76,-84.31"/>
<polygon fill="midnightblue" stroke="midnightblue" points="140.54,-82.15 132.29,-75.51 134.6,-85.85 140.54,-82.15"/>
</g>
<!-- Node28&#45;&gt;Node8 -->
<g id="edge44" class="edge">
<title>Node28&#45;&gt;Node8</title>
<path fill="none" stroke="midnightblue" d="M527.66,-117.99C536.82,-115.85 546.76,-113.69 556,-112 663.64,-92.34 791.95,-77.72 855.78,-71.03"/>
<polygon fill="midnightblue" stroke="midnightblue" points="856.24,-74.5 865.83,-69.99 855.52,-67.54 856.24,-74.5"/>
</g>
<!-- Node28&#45;&gt;Node20 -->
<g id="edge41" class="edge">
<title>Node28&#45;&gt;Node20</title>
<path fill="none" stroke="midnightblue" d="M485.04,-117.84C468.98,-102.82 433.64,-72.03 398,-56 342.96,-31.24 273.53,-19.78 230.19,-14.71"/>
<polygon fill="midnightblue" stroke="midnightblue" points="230.35,-11.21 220.02,-13.59 229.57,-18.17 230.35,-11.21"/>
</g>
<!-- Node28&#45;&gt;Node29 -->
<g id="edge42" class="edge">
<title>Node28&#45;&gt;Node29</title>
<path fill="none" stroke="midnightblue" d="M472.08,-117.98C445.95,-107.81 402.09,-90.76 372.37,-79.2"/>
<polygon fill="midnightblue" stroke="midnightblue" points="373.47,-75.87 362.88,-75.51 370.93,-82.4 373.47,-75.87"/>
</g>
<!-- Node29&#45;&gt;Node20 -->
<g id="edge43" class="edge">
<title>Node29&#45;&gt;Node20</title>
<path fill="none" stroke="midnightblue" d="M316.92,-56.44C291.46,-47.4 251.11,-33.06 222.54,-22.92"/>
<polygon fill="midnightblue" stroke="midnightblue" points="223.57,-19.57 212.97,-19.52 221.22,-26.16 223.57,-19.57"/>
</g>
<!-- Node30&#45;&gt;Node8 -->
<g id="edge48" class="edge">
<title>Node30&#45;&gt;Node8</title>
<path fill="none" stroke="midnightblue" d="M858.3,-117.98C864.9,-109.05 875.44,-94.81 883.69,-83.64"/>
<polygon fill="midnightblue" stroke="midnightblue" points="886.58,-85.63 889.71,-75.51 880.95,-81.47 886.58,-85.63"/>
</g>
<!-- Node30&#45;&gt;Node15 -->
<g id="edge47" class="edge">
<title>Node30&#45;&gt;Node15</title>
<path fill="none" stroke="midnightblue" d="M879.08,-117.98C913.97,-106.99 974.46,-87.95 1010.8,-76.51"/>
<polygon fill="midnightblue" stroke="midnightblue" points="1011.88,-79.84 1020.37,-73.49 1009.78,-73.16 1011.88,-79.84"/>
</g>
</g>
</svg>
