<?xml version="1.0" encoding="UTF-8" standalone="no"?>
<!DOCTYPE svg PUBLIC "-//W3C//DTD SVG 1.1//EN"
 "http://www.w3.org/Graphics/SVG/1.1/DTD/svg11.dtd">
<!-- Generated by graphviz version 2.49.3 (20211027.1534)
 -->
<!-- Title: include/cppgc/source&#45;location.h Pages: 1 -->
<svg width="825pt" height="486pt"
 viewBox="0.00 0.00 824.50 486.00" xmlns="http://www.w3.org/2000/svg" xmlns:xlink="http://www.w3.org/1999/xlink">
<g id="graph0" class="graph" transform="scale(1 1) rotate(0) translate(4 482)">
<title>include/cppgc/source&#45;location.h</title>
<polygon fill="white" stroke="transparent" points="-4,4 -4,-482 820.5,-482 820.5,4 -4,4"/>
<!-- Node1 -->
<g id="node1" class="node">
<title>Node1</title>
<g id="a_node1"><a xlink:title=" ">
<polygon fill="#bfbfbf" stroke="black" points="239,-447.5 239,-477.5 348,-477.5 348,-447.5 239,-447.5"/>
<text text-anchor="start" x="247" y="-465.5" font-family="Helvetica,sans-Serif" font-size="10.00">include/cppgc/source</text>
<text text-anchor="middle" x="293.5" y="-454.5" font-family="Helvetica,sans-Serif" font-size="10.00">&#45;location.h</text>
</a>
</g>
</g>
<!-- Node2 -->
<g id="node2" class="node">
<title>Node2</title>
<g id="a_node2"><a xlink:href="logging_8h.html" target="_top" xlink:title=" ">
<polygon fill="white" stroke="black" points="135,-190.5 135,-220.5 246,-220.5 246,-190.5 135,-190.5"/>
<text text-anchor="start" x="143" y="-208.5" font-family="Helvetica,sans-Serif" font-size="10.00">include/cppgc/internal</text>
<text text-anchor="middle" x="190.5" y="-197.5" font-family="Helvetica,sans-Serif" font-size="10.00">/logging.h</text>
</a>
</g>
</g>
<!-- Node1&#45;&gt;Node2 -->
<g id="edge1" class="edge">
<title>Node1&#45;&gt;Node2</title>
<path fill="none" stroke="midnightblue" d="M277.2,-439.19C271.43,-430.65 265.21,-420.64 260.5,-411 227.15,-342.72 202.76,-254.5 194.02,-220.61"/>
<polygon fill="midnightblue" stroke="midnightblue" points="274.39,-441.27 282.97,-447.48 280.13,-437.27 274.39,-441.27"/>
</g>
<!-- Node6 -->
<g id="node6" class="node">
<title>Node6</title>
<g id="a_node6"><a xlink:href="persistent_8h.html" target="_top" xlink:title=" ">
<polygon fill="white" stroke="black" points="243.5,-67.5 243.5,-86.5 373.5,-86.5 373.5,-67.5 243.5,-67.5"/>
<text text-anchor="middle" x="308.5" y="-74.5" font-family="Helvetica,sans-Serif" font-size="10.00">include/cppgc/persistent.h</text>
</a>
</g>
</g>
<!-- Node1&#45;&gt;Node6 -->
<g id="edge25" class="edge">
<title>Node1&#45;&gt;Node6</title>
<path fill="none" stroke="midnightblue" d="M287.68,-437.35C282.1,-412.01 274.5,-370.95 274.5,-335 274.5,-335 274.5,-335 274.5,-271.5 274.5,-199.19 297.82,-113.94 305.83,-86.78"/>
<polygon fill="midnightblue" stroke="midnightblue" points="284.29,-438.22 289.93,-447.19 291.12,-436.66 284.29,-438.22"/>
</g>
<!-- Node7 -->
<g id="node7" class="node">
<title>Node7</title>
<g id="a_node7"><a xlink:href="visitor_8h.html" target="_top" xlink:title=" ">
<polygon fill="white" stroke="black" points="375,-129 375,-148 488,-148 488,-129 375,-129"/>
<text text-anchor="middle" x="431.5" y="-136" font-family="Helvetica,sans-Serif" font-size="10.00">include/cppgc/visitor.h</text>
</a>
</g>
</g>
<!-- Node1&#45;&gt;Node7 -->
<g id="edge26" class="edge">
<title>Node1&#45;&gt;Node7</title>
<path fill="none" stroke="midnightblue" d="M299.32,-437.35C304.9,-412.01 312.5,-370.95 312.5,-335 312.5,-335 312.5,-335 312.5,-271.5 312.5,-211.18 381.9,-166.01 414.7,-148.03"/>
<polygon fill="midnightblue" stroke="midnightblue" points="295.88,-436.66 297.07,-447.19 302.71,-438.22 295.88,-436.66"/>
</g>
<!-- Node9 -->
<g id="node9" class="node">
<title>Node9</title>
<g id="a_node9"><a xlink:href="pointer-policies_8h.html" target="_top" xlink:title=" ">
<polygon fill="white" stroke="black" points="341,-380.5 341,-410.5 452,-410.5 452,-380.5 341,-380.5"/>
<text text-anchor="start" x="349" y="-398.5" font-family="Helvetica,sans-Serif" font-size="10.00">include/cppgc/internal</text>
<text text-anchor="middle" x="396.5" y="-387.5" font-family="Helvetica,sans-Serif" font-size="10.00">/pointer&#45;policies.h</text>
</a>
</g>
</g>
<!-- Node1&#45;&gt;Node9 -->
<g id="edge11" class="edge">
<title>Node1&#45;&gt;Node9</title>
<path fill="none" stroke="midnightblue" d="M324.38,-442.02C340.4,-431.9 359.63,-419.77 374.19,-410.58"/>
<polygon fill="midnightblue" stroke="midnightblue" points="322.44,-439.1 315.85,-447.4 326.17,-445.02 322.44,-439.1"/>
</g>
<!-- Node3 -->
<g id="node3" class="node">
<title>Node3</title>
<g id="a_node3"><a xlink:href="caged-heap-local-data_8h.html" target="_top" xlink:title=" ">
<polygon fill="white" stroke="black" points="129.5,-123.5 129.5,-153.5 251.5,-153.5 251.5,-123.5 129.5,-123.5"/>
<text text-anchor="start" x="137.5" y="-141.5" font-family="Helvetica,sans-Serif" font-size="10.00">include/cppgc/internal</text>
<text text-anchor="middle" x="190.5" y="-130.5" font-family="Helvetica,sans-Serif" font-size="10.00">/caged&#45;heap&#45;local&#45;data.h</text>
</a>
</g>
</g>
<!-- Node2&#45;&gt;Node3 -->
<g id="edge2" class="edge">
<title>Node2&#45;&gt;Node3</title>
<path fill="none" stroke="midnightblue" d="M190.5,-180.11C190.5,-171.15 190.5,-161.32 190.5,-153.58"/>
<polygon fill="midnightblue" stroke="midnightblue" points="187,-180.4 190.5,-190.4 194,-180.4 187,-180.4"/>
</g>
<!-- Node4 -->
<g id="node4" class="node">
<title>Node4</title>
<g id="a_node4"><a xlink:href="persistent-node_8h.html" target="_top" xlink:title=" ">
<polygon fill="white" stroke="black" points="0,-123.5 0,-153.5 111,-153.5 111,-123.5 0,-123.5"/>
<text text-anchor="start" x="8" y="-141.5" font-family="Helvetica,sans-Serif" font-size="10.00">include/cppgc/internal</text>
<text text-anchor="middle" x="55.5" y="-130.5" font-family="Helvetica,sans-Serif" font-size="10.00">/persistent&#45;node.h</text>
</a>
</g>
</g>
<!-- Node2&#45;&gt;Node4 -->
<g id="edge3" class="edge">
<title>Node2&#45;&gt;Node4</title>
<path fill="none" stroke="midnightblue" d="M152.06,-185.99C130.66,-175.69 104.45,-163.07 84.74,-153.58"/>
<polygon fill="midnightblue" stroke="midnightblue" points="150.68,-189.21 161.21,-190.4 153.72,-182.9 150.68,-189.21"/>
</g>
<!-- Node2&#45;&gt;Node7 -->
<g id="edge7" class="edge">
<title>Node2&#45;&gt;Node7</title>
<path fill="none" stroke="midnightblue" d="M252.31,-187.83C299.47,-175.11 362.51,-158.11 399.88,-148.03"/>
<polygon fill="midnightblue" stroke="midnightblue" points="251.24,-184.49 242.5,-190.48 253.06,-191.25 251.24,-184.49"/>
</g>
<!-- Node5 -->
<g id="node5" class="node">
<title>Node5</title>
<g id="a_node5"><a xlink:href="cross-thread-persistent_8h.html" target="_top" xlink:title=" ">
<polygon fill="white" stroke="black" points="302.5,-0.5 302.5,-30.5 406.5,-30.5 406.5,-0.5 302.5,-0.5"/>
<text text-anchor="start" x="310.5" y="-18.5" font-family="Helvetica,sans-Serif" font-size="10.00">include/cppgc/cross</text>
<text text-anchor="middle" x="354.5" y="-7.5" font-family="Helvetica,sans-Serif" font-size="10.00">&#45;thread&#45;persistent.h</text>
</a>
</g>
</g>
<!-- Node4&#45;&gt;Node5 -->
<g id="edge4" class="edge">
<title>Node4&#45;&gt;Node5</title>
<path fill="none" stroke="midnightblue" d="M99.96,-119.51C159.9,-95.25 265.4,-52.56 319.84,-30.53"/>
<polygon fill="midnightblue" stroke="midnightblue" points="98.34,-116.39 90.38,-123.38 100.97,-122.88 98.34,-116.39"/>
</g>
<!-- Node4&#45;&gt;Node6 -->
<g id="edge5" class="edge">
<title>Node4&#45;&gt;Node6</title>
<path fill="none" stroke="midnightblue" d="M121.05,-122.08C169.22,-110.76 232.88,-95.78 272.24,-86.53"/>
<polygon fill="midnightblue" stroke="midnightblue" points="119.96,-118.75 111.02,-124.44 121.56,-125.56 119.96,-118.75"/>
</g>
<!-- Node6&#45;&gt;Node5 -->
<g id="edge6" class="edge">
<title>Node6&#45;&gt;Node5</title>
<path fill="none" stroke="midnightblue" d="M321.23,-59.53C328.28,-50.42 336.94,-39.21 343.66,-30.52"/>
<polygon fill="midnightblue" stroke="midnightblue" points="318.44,-57.42 315.09,-67.48 323.98,-61.7 318.44,-57.42"/>
</g>
<!-- Node7&#45;&gt;Node5 -->
<g id="edge8" class="edge">
<title>Node7&#45;&gt;Node5</title>
<path fill="none" stroke="midnightblue" d="M420.56,-120.31C405.22,-96.21 377.61,-52.82 363.43,-30.54"/>
<polygon fill="midnightblue" stroke="midnightblue" points="417.64,-122.24 425.96,-128.8 423.55,-118.48 417.64,-122.24"/>
</g>
<!-- Node7&#45;&gt;Node6 -->
<g id="edge9" class="edge">
<title>Node7&#45;&gt;Node6</title>
<path fill="none" stroke="midnightblue" d="M404.67,-124.52C380.81,-112.98 346.63,-96.44 326.09,-86.51"/>
<polygon fill="midnightblue" stroke="midnightblue" points="403.35,-127.77 413.88,-128.98 406.4,-121.47 403.35,-127.77"/>
</g>
<!-- Node8 -->
<g id="node8" class="node">
<title>Node8</title>
<g id="a_node8"><a xlink:href="v8-cppgc_8h.html" target="_top" xlink:title=" ">
<polygon fill="white" stroke="black" points="429.5,-67.5 429.5,-86.5 527.5,-86.5 527.5,-67.5 429.5,-67.5"/>
<text text-anchor="middle" x="478.5" y="-74.5" font-family="Helvetica,sans-Serif" font-size="10.00">include/v8&#45;cppgc.h</text>
</a>
</g>
</g>
<!-- Node7&#45;&gt;Node8 -->
<g id="edge10" class="edge">
<title>Node7&#45;&gt;Node8</title>
<path fill="none" stroke="midnightblue" d="M444.66,-120.84C453.48,-109.67 464.73,-95.43 471.78,-86.51"/>
<polygon fill="midnightblue" stroke="midnightblue" points="441.69,-118.96 438.23,-128.98 447.18,-123.3 441.69,-118.96"/>
</g>
<!-- Node9&#45;&gt;Node5 -->
<g id="edge12" class="edge">
<title>Node9&#45;&gt;Node5</title>
<path fill="none" stroke="midnightblue" d="M462.3,-389.24C580.48,-377.96 816.5,-346.31 816.5,-273.5 816.5,-273.5 816.5,-273.5 816.5,-137.5 816.5,-53.55 527.42,-26.7 406.6,-19.15"/>
<polygon fill="midnightblue" stroke="midnightblue" points="461.9,-385.76 452.27,-390.17 462.55,-392.73 461.9,-385.76"/>
</g>
<!-- Node9&#45;&gt;Node6 -->
<g id="edge23" class="edge">
<title>Node9&#45;&gt;Node6</title>
<path fill="none" stroke="midnightblue" d="M389.9,-370.76C371.88,-305.95 322.41,-128.04 310.91,-86.67"/>
<polygon fill="midnightblue" stroke="midnightblue" points="386.55,-371.8 392.61,-380.49 393.3,-369.92 386.55,-371.8"/>
</g>
<!-- Node9&#45;&gt;Node7 -->
<g id="edge24" class="edge">
<title>Node9&#45;&gt;Node7</title>
<path fill="none" stroke="midnightblue" d="M399.83,-370.21C407.38,-315.21 425.5,-183.19 430.31,-148.16"/>
<polygon fill="midnightblue" stroke="midnightblue" points="396.32,-370.04 398.43,-380.43 403.26,-371 396.32,-370.04"/>
</g>
<!-- Node10 -->
<g id="node10" class="node">
<title>Node10</title>
<g id="a_node10"><a xlink:href="member_8h.html" target="_top" xlink:title=" ">
<polygon fill="white" stroke="black" points="427.5,-324.5 427.5,-343.5 549.5,-343.5 549.5,-324.5 427.5,-324.5"/>
<text text-anchor="middle" x="488.5" y="-331.5" font-family="Helvetica,sans-Serif" font-size="10.00">include/cppgc/member.h</text>
</a>
</g>
</g>
<!-- Node9&#45;&gt;Node10 -->
<g id="edge13" class="edge">
<title>Node9&#45;&gt;Node10</title>
<path fill="none" stroke="midnightblue" d="M427,-374.78C443.3,-364.23 462.55,-351.78 475.11,-343.66"/>
<polygon fill="midnightblue" stroke="midnightblue" points="424.8,-372.03 418.3,-380.4 428.6,-377.91 424.8,-372.03"/>
</g>
<!-- Node10&#45;&gt;Node7 -->
<g id="edge22" class="edge">
<title>Node10&#45;&gt;Node7</title>
<path fill="none" stroke="midnightblue" d="M480.41,-315.19C470.8,-293.4 454.9,-255.17 445.5,-221 438.34,-194.98 434.15,-163.22 432.42,-148.19"/>
<polygon fill="midnightblue" stroke="midnightblue" points="477.28,-316.78 484.56,-324.48 483.67,-313.92 477.28,-316.78"/>
</g>
<!-- Node11 -->
<g id="node11" class="node">
<title>Node11</title>
<g id="a_node11"><a xlink:href="ephemeron-pair_8h.html" target="_top" xlink:title=" ">
<polygon fill="white" stroke="black" points="454.5,-190.5 454.5,-220.5 582.5,-220.5 582.5,-190.5 454.5,-190.5"/>
<text text-anchor="start" x="462.5" y="-208.5" font-family="Helvetica,sans-Serif" font-size="10.00">include/cppgc/ephemeron</text>
<text text-anchor="middle" x="518.5" y="-197.5" font-family="Helvetica,sans-Serif" font-size="10.00">&#45;pair.h</text>
</a>
</g>
</g>
<!-- Node10&#45;&gt;Node11 -->
<g id="edge14" class="edge">
<title>Node10&#45;&gt;Node11</title>
<path fill="none" stroke="midnightblue" d="M492.9,-314.45C498.93,-289.03 509.63,-243.91 515.09,-220.89"/>
<polygon fill="midnightblue" stroke="midnightblue" points="489.46,-313.77 490.56,-324.31 496.28,-315.38 489.46,-313.77"/>
</g>
<!-- Node12 -->
<g id="node12" class="node">
<title>Node12</title>
<g id="a_node12"><a xlink:href="liveness-broker_8h.html" target="_top" xlink:title=" ">
<polygon fill="white" stroke="black" points="552.5,-257.5 552.5,-287.5 668.5,-287.5 668.5,-257.5 552.5,-257.5"/>
<text text-anchor="start" x="560.5" y="-275.5" font-family="Helvetica,sans-Serif" font-size="10.00">include/cppgc/liveness</text>
<text text-anchor="middle" x="610.5" y="-264.5" font-family="Helvetica,sans-Serif" font-size="10.00">&#45;broker.h</text>
</a>
</g>
</g>
<!-- Node10&#45;&gt;Node12 -->
<g id="edge16" class="edge">
<title>Node10&#45;&gt;Node12</title>
<path fill="none" stroke="midnightblue" d="M515.01,-320.07C534.71,-310.47 561.54,-297.38 581.75,-287.52"/>
<polygon fill="midnightblue" stroke="midnightblue" points="513.43,-316.95 505.98,-324.48 516.5,-323.24 513.43,-316.95"/>
</g>
<!-- Node11&#45;&gt;Node7 -->
<g id="edge15" class="edge">
<title>Node11&#45;&gt;Node7</title>
<path fill="none" stroke="midnightblue" d="M491.52,-184.34C475.28,-172.21 455.44,-157.39 443.14,-148.19"/>
<polygon fill="midnightblue" stroke="midnightblue" points="489.52,-187.21 499.62,-190.4 493.71,-181.61 489.52,-187.21"/>
</g>
<!-- Node12&#45;&gt;Node7 -->
<g id="edge21" class="edge">
<title>Node12&#45;&gt;Node7</title>
<path fill="none" stroke="midnightblue" d="M610.95,-247.45C610,-229.47 605.79,-205.43 591.5,-190 565.08,-161.47 522.7,-148.96 488.2,-143.52"/>
<polygon fill="midnightblue" stroke="midnightblue" points="607.45,-247.57 611.19,-257.48 614.45,-247.4 607.45,-247.57"/>
</g>
<!-- Node12&#45;&gt;Node11 -->
<g id="edge17" class="edge">
<title>Node12&#45;&gt;Node11</title>
<path fill="none" stroke="midnightblue" d="M582.12,-251.45C567.97,-241.45 551.19,-229.6 538.42,-220.58"/>
<polygon fill="midnightblue" stroke="midnightblue" points="580.35,-254.48 590.54,-257.4 584.39,-248.77 580.35,-254.48"/>
</g>
<!-- Node13 -->
<g id="node13" class="node">
<title>Node13</title>
<g id="a_node13"><a xlink:href="prefinalizer-handler_8h.html" target="_top" xlink:title=" ">
<polygon fill="white" stroke="black" points="639,-190.5 639,-220.5 750,-220.5 750,-190.5 639,-190.5"/>
<text text-anchor="start" x="647" y="-208.5" font-family="Helvetica,sans-Serif" font-size="10.00">include/cppgc/internal</text>
<text text-anchor="middle" x="694.5" y="-197.5" font-family="Helvetica,sans-Serif" font-size="10.00">/prefinalizer&#45;handler.h</text>
</a>
</g>
</g>
<!-- Node12&#45;&gt;Node13 -->
<g id="edge18" class="edge">
<title>Node12&#45;&gt;Node13</title>
<path fill="none" stroke="midnightblue" d="M636.78,-251.17C649.62,-241.23 664.76,-229.51 676.31,-220.58"/>
<polygon fill="midnightblue" stroke="midnightblue" points="634.49,-248.51 628.73,-257.4 638.78,-254.04 634.49,-248.51"/>
</g>
<!-- Node14 -->
<g id="node14" class="node">
<title>Node14</title>
<g id="a_node14"><a xlink:href="prefinalizer_8h.html" target="_top" xlink:title=" ">
<polygon fill="white" stroke="black" points="641,-129 641,-148 774,-148 774,-129 641,-129"/>
<text text-anchor="middle" x="707.5" y="-136" font-family="Helvetica,sans-Serif" font-size="10.00">include/cppgc/prefinalizer.h</text>
</a>
</g>
</g>
<!-- Node12&#45;&gt;Node14 -->
<g id="edge20" class="edge">
<title>Node12&#45;&gt;Node14</title>
<path fill="none" stroke="midnightblue" d="M678.51,-265.67C708.13,-259.36 740.19,-246.59 758.5,-221 776.85,-195.34 740.31,-163.15 719.92,-148.05"/>
<polygon fill="midnightblue" stroke="midnightblue" points="677.75,-262.26 668.59,-267.58 679.07,-269.13 677.75,-262.26"/>
</g>
<!-- Node13&#45;&gt;Node14 -->
<g id="edge19" class="edge">
<title>Node13&#45;&gt;Node14</title>
<path fill="none" stroke="midnightblue" d="M699.35,-180.25C701.6,-169.02 704.12,-156.38 705.76,-148.19"/>
<polygon fill="midnightblue" stroke="midnightblue" points="695.85,-179.9 697.32,-190.4 702.71,-181.28 695.85,-179.9"/>
</g>
</g>
</svg>
