<?xml version="1.0" encoding="UTF-8" standalone="no"?>
<!DOCTYPE svg PUBLIC "-//W3C//DTD SVG 1.1//EN"
 "http://www.w3.org/Graphics/SVG/1.1/DTD/svg11.dtd">
<!-- Generated by graphviz version 2.49.3 (20211027.1534)
 -->
<!-- Title: cppgc::HeapStatistics::SpaceStatistics Pages: 1 -->
<svg width="462pt" height="132pt"
 viewBox="0.00 0.00 462.00 132.00" xmlns="http://www.w3.org/2000/svg" xmlns:xlink="http://www.w3.org/1999/xlink">
<g id="graph0" class="graph" transform="scale(1 1) rotate(0) translate(4 128)">
<title>cppgc::HeapStatistics::SpaceStatistics</title>
<polygon fill="white" stroke="transparent" points="-4,4 -4,-128 458,-128 458,4 -4,4"/>
<!-- Node1 -->
<g id="node1" class="node">
<title>Node1</title>
<g id="a_node1"><a xlink:title=" ">
<polygon fill="#bfbfbf" stroke="black" points="342,-49.5 342,-79.5 454,-79.5 454,-49.5 342,-49.5"/>
<text text-anchor="start" x="350" y="-67.5" font-family="Helvetica,sans-Serif" font-size="10.00">cppgc::HeapStatistics</text>
<text text-anchor="middle" x="398" y="-56.5" font-family="Helvetica,sans-Serif" font-size="10.00">::SpaceStatistics</text>
</a>
</g>
</g>
<!-- Node2 -->
<g id="node2" class="node">
<title>Node2</title>
<g id="a_node2"><a xlink:title=" ">
<polygon fill="white" stroke="#bfbfbf" points="156.5,-99 156.5,-118 215.5,-118 215.5,-99 156.5,-99"/>
<text text-anchor="middle" x="186" y="-106" font-family="Helvetica,sans-Serif" font-size="10.00">std::string</text>
</a>
</g>
</g>
<!-- Node2&#45;&gt;Node1 -->
<g id="edge1" class="edge">
<title>Node2&#45;&gt;Node1</title>
<path fill="none" stroke="#9a32cd" stroke-dasharray="5,2" d="M225.81,-100.37C258.4,-93.54 305.36,-83.7 341.86,-76.05"/>
<polygon fill="#9a32cd" stroke="#9a32cd" points="224.83,-97 215.76,-102.47 226.26,-103.85 224.83,-97"/>
<text text-anchor="middle" x="292" y="-95.5" font-family="Helvetica,sans-Serif" font-size="10.00"> name</text>
</g>
<!-- Node3 -->
<g id="node3" class="node">
<title>Node3</title>
<g id="a_node3"><a xlink:title=" ">
<polygon fill="white" stroke="#bfbfbf" points="0,-93.5 0,-123.5 93,-123.5 93,-93.5 0,-93.5"/>
<text text-anchor="start" x="8" y="-111.5" font-family="Helvetica,sans-Serif" font-size="10.00">std::basic_string&lt;</text>
<text text-anchor="middle" x="46.5" y="-100.5" font-family="Helvetica,sans-Serif" font-size="10.00"> Char &gt;</text>
</a>
</g>
</g>
<!-- Node3&#45;&gt;Node2 -->
<g id="edge2" class="edge">
<title>Node3&#45;&gt;Node2</title>
<path fill="none" stroke="midnightblue" d="M103.48,-108.5C121.59,-108.5 140.93,-108.5 156.22,-108.5"/>
<polygon fill="midnightblue" stroke="midnightblue" points="103.29,-105 93.29,-108.5 103.29,-112 103.29,-105"/>
</g>
<!-- Node4 -->
<g id="node4" class="node">
<title>Node4</title>
<g id="a_node4"><a xlink:href="structcppgc_1_1HeapStatistics_1_1FreeListStatistics.html" target="_top" xlink:title=" ">
<polygon fill="white" stroke="black" points="130,-49.5 130,-79.5 242,-79.5 242,-49.5 130,-49.5"/>
<text text-anchor="start" x="138" y="-67.5" font-family="Helvetica,sans-Serif" font-size="10.00">cppgc::HeapStatistics</text>
<text text-anchor="middle" x="186" y="-56.5" font-family="Helvetica,sans-Serif" font-size="10.00">::FreeListStatistics</text>
</a>
</g>
</g>
<!-- Node4&#45;&gt;Node1 -->
<g id="edge3" class="edge">
<title>Node4&#45;&gt;Node1</title>
<path fill="none" stroke="#9a32cd" stroke-dasharray="5,2" d="M252.51,-64.5C281.18,-64.5 314.45,-64.5 341.83,-64.5"/>
<polygon fill="#9a32cd" stroke="#9a32cd" points="252.18,-61 242.18,-64.5 252.17,-68 252.18,-61"/>
<text text-anchor="middle" x="292" y="-67.5" font-family="Helvetica,sans-Serif" font-size="10.00"> free_list_stats</text>
</g>
<!-- Node5 -->
<g id="node5" class="node">
<title>Node5</title>
<g id="a_node5"><a xlink:href="structcppgc_1_1HeapStatistics_1_1ObjectStatistics.html" target="_top" xlink:title=" ">
<polygon fill="white" stroke="black" points="130,-0.5 130,-30.5 242,-30.5 242,-0.5 130,-0.5"/>
<text text-anchor="start" x="138" y="-18.5" font-family="Helvetica,sans-Serif" font-size="10.00">cppgc::HeapStatistics</text>
<text text-anchor="middle" x="186" y="-7.5" font-family="Helvetica,sans-Serif" font-size="10.00">::ObjectStatistics</text>
</a>
</g>
</g>
<!-- Node5&#45;&gt;Node1 -->
<g id="edge4" class="edge">
<title>Node5&#45;&gt;Node1</title>
<path fill="none" stroke="#9a32cd" stroke-dasharray="5,2" d="M252.13,-30.7C280.89,-37.41 314.33,-45.21 341.83,-51.63"/>
<polygon fill="#9a32cd" stroke="#9a32cd" points="252.71,-27.24 242.18,-28.37 251.12,-34.05 252.71,-27.24"/>
<text text-anchor="middle" x="292" y="-50.5" font-family="Helvetica,sans-Serif" font-size="10.00"> object_stats</text>
</g>
</g>
</svg>
