<?xml version="1.0" encoding="UTF-8" standalone="no"?>
<!DOCTYPE svg PUBLIC "-//W3C//DTD SVG 1.1//EN"
 "http://www.w3.org/Graphics/SVG/1.1/DTD/svg11.dtd">
<!-- Generated by graphviz version 2.49.3 (20211027.1534)
 -->
<!-- Title: include/cppgc/type&#45;traits.h Pages: 1 -->
<svg width="929pt" height="620pt"
 viewBox="0.00 0.00 929.49 620.00" xmlns="http://www.w3.org/2000/svg" xmlns:xlink="http://www.w3.org/1999/xlink">
<g id="graph0" class="graph" transform="scale(1 1) rotate(0) translate(4 616)">
<title>include/cppgc/type&#45;traits.h</title>
<polygon fill="white" stroke="transparent" points="-4,4 -4,-616 925.49,-616 925.49,4 -4,4"/>
<!-- Node1 -->
<g id="node1" class="node">
<title>Node1</title>
<g id="a_node1"><a xlink:title=" ">
<polygon fill="#bfbfbf" stroke="black" points="591.49,-581.5 591.49,-611.5 689.49,-611.5 689.49,-581.5 591.49,-581.5"/>
<text text-anchor="start" x="599.49" y="-599.5" font-family="Helvetica,sans-Serif" font-size="10.00">include/cppgc/type</text>
<text text-anchor="middle" x="640.49" y="-588.5" font-family="Helvetica,sans-Serif" font-size="10.00">&#45;traits.h</text>
</a>
</g>
</g>
<!-- Node2 -->
<g id="node2" class="node">
<title>Node2</title>
<g id="a_node2"><a xlink:href="garbage-collected_8h.html" target="_top" xlink:title=" ">
<polygon fill="white" stroke="black" points="583.49,-447.5 583.49,-477.5 697.49,-477.5 697.49,-447.5 583.49,-447.5"/>
<text text-anchor="start" x="591.49" y="-465.5" font-family="Helvetica,sans-Serif" font-size="10.00">include/cppgc/garbage</text>
<text text-anchor="middle" x="640.49" y="-454.5" font-family="Helvetica,sans-Serif" font-size="10.00">&#45;collected.h</text>
</a>
</g>
</g>
<!-- Node1&#45;&gt;Node2 -->
<g id="edge1" class="edge">
<title>Node1&#45;&gt;Node2</title>
<path fill="none" stroke="midnightblue" d="M640.49,-571.02C640.49,-543.51 640.49,-499.79 640.49,-477.52"/>
<polygon fill="midnightblue" stroke="midnightblue" points="636.99,-571.37 640.49,-581.37 643.99,-571.37 636.99,-571.37"/>
</g>
<!-- Node4 -->
<g id="node4" class="node">
<title>Node4</title>
<g id="a_node4"><a xlink:href="visitor_8h.html" target="_top" xlink:title=" ">
<polygon fill="white" stroke="black" points="493.99,-129 493.99,-148 606.99,-148 606.99,-129 493.99,-129"/>
<text text-anchor="middle" x="550.49" y="-136" font-family="Helvetica,sans-Serif" font-size="10.00">include/cppgc/visitor.h</text>
</a>
</g>
</g>
<!-- Node1&#45;&gt;Node4 -->
<g id="edge40" class="edge">
<title>Node1&#45;&gt;Node4</title>
<path fill="none" stroke="midnightblue" d="M686.43,-577.16C729.56,-556.56 787.49,-518.62 787.49,-463.5 787.49,-463.5 787.49,-463.5 787.49,-271.5 787.49,-231.72 781.02,-215.5 750.49,-190 710.36,-156.48 650.96,-144.77 607.31,-140.89"/>
<polygon fill="midnightblue" stroke="midnightblue" points="684.82,-574.05 677.2,-581.42 687.75,-580.41 684.82,-574.05"/>
</g>
<!-- Node6 -->
<g id="node6" class="node">
<title>Node6</title>
<g id="a_node6"><a xlink:href="persistent_8h.html" target="_top" xlink:title=" ">
<polygon fill="white" stroke="black" points="87.49,-67.5 87.49,-86.5 217.49,-86.5 217.49,-67.5 87.49,-67.5"/>
<text text-anchor="middle" x="152.49" y="-74.5" font-family="Helvetica,sans-Serif" font-size="10.00">include/cppgc/persistent.h</text>
</a>
</g>
</g>
<!-- Node1&#45;&gt;Node6 -->
<g id="edge22" class="edge">
<title>Node1&#45;&gt;Node6</title>
<path fill="none" stroke="midnightblue" d="M581.37,-595.74C423.06,-594.81 1.49,-581.27 1.49,-463.5 1.49,-463.5 1.49,-463.5 1.49,-204.5 1.49,-167.31 -4.47,-150.58 20.49,-123 37.79,-103.88 63.55,-92.88 87.72,-86.56"/>
<polygon fill="midnightblue" stroke="midnightblue" points="581.39,-599.24 591.41,-595.79 581.43,-592.24 581.39,-599.24"/>
</g>
<!-- Node8 -->
<g id="node8" class="node">
<title>Node8</title>
<g id="a_node8"><a xlink:href="finalizer-trait_8h.html" target="_top" xlink:title=" ">
<polygon fill="white" stroke="black" points="477.99,-514.5 477.99,-544.5 588.99,-544.5 588.99,-514.5 477.99,-514.5"/>
<text text-anchor="start" x="485.99" y="-532.5" font-family="Helvetica,sans-Serif" font-size="10.00">include/cppgc/internal</text>
<text text-anchor="middle" x="533.49" y="-521.5" font-family="Helvetica,sans-Serif" font-size="10.00">/finalizer&#45;trait.h</text>
</a>
</g>
</g>
<!-- Node1&#45;&gt;Node8 -->
<g id="edge8" class="edge">
<title>Node1&#45;&gt;Node8</title>
<path fill="none" stroke="midnightblue" d="M608.41,-576.02C591.76,-565.9 571.8,-553.77 556.66,-544.58"/>
<polygon fill="midnightblue" stroke="midnightblue" points="606.91,-579.2 617.27,-581.4 610.54,-573.21 606.91,-579.2"/>
</g>
<!-- Node10 -->
<g id="node10" class="node">
<title>Node10</title>
<g id="a_node10"><a xlink:href="member_8h.html" target="_top" xlink:title=" ">
<polygon fill="white" stroke="black" points="520.49,-324.5 520.49,-343.5 642.49,-343.5 642.49,-324.5 520.49,-324.5"/>
<text text-anchor="middle" x="581.49" y="-331.5" font-family="Helvetica,sans-Serif" font-size="10.00">include/cppgc/member.h</text>
</a>
</g>
</g>
<!-- Node1&#45;&gt;Node10 -->
<g id="edge11" class="edge">
<title>Node1&#45;&gt;Node10</title>
<path fill="none" stroke="midnightblue" d="M661.17,-573.53C685.28,-545.15 720.22,-493.82 706.49,-447 696.53,-413.05 689.35,-404.15 663.49,-380 645.92,-363.6 621.26,-351.12 603.58,-343.51"/>
<polygon fill="midnightblue" stroke="midnightblue" points="658.37,-571.41 654.4,-581.24 663.63,-576.03 658.37,-571.41"/>
</g>
<!-- Node15 -->
<g id="node15" class="node">
<title>Node15</title>
<g id="a_node15"><a xlink:href="object-size-trait_8h.html" target="_top" xlink:title=" ">
<polygon fill="white" stroke="black" points="815.49,-514.5 815.49,-544.5 921.49,-544.5 921.49,-514.5 815.49,-514.5"/>
<text text-anchor="start" x="823.49" y="-532.5" font-family="Helvetica,sans-Serif" font-size="10.00">include/cppgc/object</text>
<text text-anchor="middle" x="868.49" y="-521.5" font-family="Helvetica,sans-Serif" font-size="10.00">&#45;size&#45;trait.h</text>
</a>
</g>
</g>
<!-- Node1&#45;&gt;Node15 -->
<g id="edge21" class="edge">
<title>Node1&#45;&gt;Node15</title>
<path fill="none" stroke="midnightblue" d="M699.37,-578.71C736.47,-568.14 783.83,-554.63 818.99,-544.61"/>
<polygon fill="midnightblue" stroke="midnightblue" points="698.34,-575.37 689.68,-581.48 700.26,-582.1 698.34,-575.37"/>
</g>
<!-- Node16 -->
<g id="node16" class="node">
<title>Node16</title>
<g id="a_node16"><a xlink:href="trace-trait_8h.html" target="_top" xlink:title=" ">
<polygon fill="white" stroke="black" points="355.99,-514.5 355.99,-544.5 456.99,-544.5 456.99,-514.5 355.99,-514.5"/>
<text text-anchor="start" x="363.99" y="-532.5" font-family="Helvetica,sans-Serif" font-size="10.00">include/cppgc/trace</text>
<text text-anchor="middle" x="406.49" y="-521.5" font-family="Helvetica,sans-Serif" font-size="10.00">&#45;trait.h</text>
</a>
</g>
</g>
<!-- Node1&#45;&gt;Node16 -->
<g id="edge23" class="edge">
<title>Node1&#45;&gt;Node16</title>
<path fill="none" stroke="midnightblue" d="M581.44,-579.1C543.09,-568.45 493.64,-554.71 457.1,-544.56"/>
<polygon fill="midnightblue" stroke="midnightblue" points="580.86,-582.57 591.44,-581.87 582.74,-575.83 580.86,-582.57"/>
</g>
<!-- Node3 -->
<g id="node3" class="node">
<title>Node3</title>
<g id="a_node3"><a xlink:href="allocation_8h.html" target="_top" xlink:title=" ">
<polygon fill="white" stroke="black" points="526.49,-386 526.49,-405 654.49,-405 654.49,-386 526.49,-386"/>
<text text-anchor="middle" x="590.49" y="-393" font-family="Helvetica,sans-Serif" font-size="10.00">include/cppgc/allocation.h</text>
</a>
</g>
</g>
<!-- Node2&#45;&gt;Node3 -->
<g id="edge2" class="edge">
<title>Node2&#45;&gt;Node3</title>
<path fill="none" stroke="midnightblue" d="M623.43,-439.32C614.41,-427.6 603.86,-413.88 597.18,-405.19"/>
<polygon fill="midnightblue" stroke="midnightblue" points="620.77,-441.6 629.64,-447.4 626.32,-437.34 620.77,-441.6"/>
</g>
<!-- Node2&#45;&gt;Node4 -->
<g id="edge3" class="edge">
<title>Node2&#45;&gt;Node4</title>
<path fill="none" stroke="midnightblue" d="M673.91,-441.77C705.95,-420.05 749.49,-381.9 749.49,-335 749.49,-335 749.49,-335 749.49,-271.5 749.49,-233.74 752.26,-216.63 725.49,-190 694.33,-159 645.41,-146.78 607.21,-142.08"/>
<polygon fill="midnightblue" stroke="midnightblue" points="671.67,-439.05 665.22,-447.45 675.51,-444.91 671.67,-439.05"/>
</g>
<!-- Node5 -->
<g id="node5" class="node">
<title>Node5</title>
<g id="a_node5"><a xlink:href="cross-thread-persistent_8h.html" target="_top" xlink:title=" ">
<polygon fill="white" stroke="black" points="146.49,-0.5 146.49,-30.5 250.49,-30.5 250.49,-0.5 146.49,-0.5"/>
<text text-anchor="start" x="154.49" y="-18.5" font-family="Helvetica,sans-Serif" font-size="10.00">include/cppgc/cross</text>
<text text-anchor="middle" x="198.49" y="-7.5" font-family="Helvetica,sans-Serif" font-size="10.00">&#45;thread&#45;persistent.h</text>
</a>
</g>
</g>
<!-- Node4&#45;&gt;Node5 -->
<g id="edge4" class="edge">
<title>Node4&#45;&gt;Node5</title>
<path fill="none" stroke="midnightblue" d="M534,-122C515.75,-105.73 484.76,-80.66 453.49,-67 387.12,-37.99 303.74,-25.51 250.76,-20.23"/>
<polygon fill="midnightblue" stroke="midnightblue" points="531.69,-124.63 541.44,-128.78 536.41,-119.46 531.69,-124.63"/>
</g>
<!-- Node4&#45;&gt;Node6 -->
<g id="edge5" class="edge">
<title>Node4&#45;&gt;Node6</title>
<path fill="none" stroke="midnightblue" d="M493.15,-127.24C484.56,-125.78 475.8,-124.32 467.49,-123 380.6,-109.21 279.92,-95.16 216.23,-86.51"/>
<polygon fill="midnightblue" stroke="midnightblue" points="492.68,-130.71 503.13,-128.96 493.87,-123.82 492.68,-130.71"/>
</g>
<!-- Node7 -->
<g id="node7" class="node">
<title>Node7</title>
<g id="a_node7"><a xlink:href="v8-cppgc_8h.html" target="_top" xlink:title=" ">
<polygon fill="white" stroke="black" points="346.49,-67.5 346.49,-86.5 444.49,-86.5 444.49,-67.5 346.49,-67.5"/>
<text text-anchor="middle" x="395.49" y="-74.5" font-family="Helvetica,sans-Serif" font-size="10.00">include/v8&#45;cppgc.h</text>
</a>
</g>
</g>
<!-- Node4&#45;&gt;Node7 -->
<g id="edge7" class="edge">
<title>Node4&#45;&gt;Node7</title>
<path fill="none" stroke="midnightblue" d="M518.66,-125.28C488.54,-113.72 444.11,-96.66 417.66,-86.51"/>
<polygon fill="midnightblue" stroke="midnightblue" points="517.69,-128.66 528.28,-128.98 520.2,-122.12 517.69,-128.66"/>
</g>
<!-- Node6&#45;&gt;Node5 -->
<g id="edge6" class="edge">
<title>Node6&#45;&gt;Node5</title>
<path fill="none" stroke="midnightblue" d="M165.22,-59.53C172.27,-50.42 180.93,-39.21 187.65,-30.52"/>
<polygon fill="midnightblue" stroke="midnightblue" points="162.43,-57.42 159.08,-67.48 167.97,-61.7 162.43,-57.42"/>
</g>
<!-- Node9 -->
<g id="node9" class="node">
<title>Node9</title>
<g id="a_node9"><a xlink:href="gc-info_8h.html" target="_top" xlink:title=" ">
<polygon fill="white" stroke="black" points="453.99,-447.5 453.99,-477.5 564.99,-477.5 564.99,-447.5 453.99,-447.5"/>
<text text-anchor="start" x="461.99" y="-465.5" font-family="Helvetica,sans-Serif" font-size="10.00">include/cppgc/internal</text>
<text text-anchor="middle" x="509.49" y="-454.5" font-family="Helvetica,sans-Serif" font-size="10.00">/gc&#45;info.h</text>
</a>
</g>
</g>
<!-- Node8&#45;&gt;Node9 -->
<g id="edge9" class="edge">
<title>Node8&#45;&gt;Node9</title>
<path fill="none" stroke="midnightblue" d="M524.81,-504.99C521.42,-495.8 517.64,-485.58 514.69,-477.58"/>
<polygon fill="midnightblue" stroke="midnightblue" points="521.54,-506.23 528.28,-514.4 528.1,-503.8 521.54,-506.23"/>
</g>
<!-- Node9&#45;&gt;Node3 -->
<g id="edge10" class="edge">
<title>Node9&#45;&gt;Node3</title>
<path fill="none" stroke="midnightblue" d="M535.03,-441.01C550.06,-428.94 568.3,-414.3 579.66,-405.19"/>
<polygon fill="midnightblue" stroke="midnightblue" points="532.67,-438.41 527.07,-447.4 537.06,-443.87 532.67,-438.41"/>
</g>
<!-- Node10&#45;&gt;Node4 -->
<g id="edge20" class="edge">
<title>Node10&#45;&gt;Node4</title>
<path fill="none" stroke="midnightblue" d="M599.95,-317.62C629.73,-290.89 682.34,-234.49 654.49,-190 640.59,-167.8 613.84,-155.11 590.94,-148"/>
<polygon fill="midnightblue" stroke="midnightblue" points="597.48,-315.13 592.24,-324.34 602.08,-320.4 597.48,-315.13"/>
</g>
<!-- Node11 -->
<g id="node11" class="node">
<title>Node11</title>
<g id="a_node11"><a xlink:href="ephemeron-pair_8h.html" target="_top" xlink:title=" ">
<polygon fill="white" stroke="black" points="517.49,-190.5 517.49,-220.5 645.49,-220.5 645.49,-190.5 517.49,-190.5"/>
<text text-anchor="start" x="525.49" y="-208.5" font-family="Helvetica,sans-Serif" font-size="10.00">include/cppgc/ephemeron</text>
<text text-anchor="middle" x="581.49" y="-197.5" font-family="Helvetica,sans-Serif" font-size="10.00">&#45;pair.h</text>
</a>
</g>
</g>
<!-- Node10&#45;&gt;Node11 -->
<g id="edge12" class="edge">
<title>Node10&#45;&gt;Node11</title>
<path fill="none" stroke="midnightblue" d="M581.49,-314.11C581.49,-288.63 581.49,-243.81 581.49,-220.89"/>
<polygon fill="midnightblue" stroke="midnightblue" points="577.99,-314.31 581.49,-324.31 584.99,-314.31 577.99,-314.31"/>
</g>
<!-- Node12 -->
<g id="node12" class="node">
<title>Node12</title>
<g id="a_node12"><a xlink:href="liveness-broker_8h.html" target="_top" xlink:title=" ">
<polygon fill="white" stroke="black" points="389.49,-257.5 389.49,-287.5 505.49,-287.5 505.49,-257.5 389.49,-257.5"/>
<text text-anchor="start" x="397.49" y="-275.5" font-family="Helvetica,sans-Serif" font-size="10.00">include/cppgc/liveness</text>
<text text-anchor="middle" x="447.49" y="-264.5" font-family="Helvetica,sans-Serif" font-size="10.00">&#45;broker.h</text>
</a>
</g>
</g>
<!-- Node10&#45;&gt;Node12 -->
<g id="edge14" class="edge">
<title>Node10&#45;&gt;Node12</title>
<path fill="none" stroke="midnightblue" d="M552.96,-320.33C531.28,-310.7 501.47,-297.47 479.07,-287.52"/>
<polygon fill="midnightblue" stroke="midnightblue" points="551.73,-323.62 562.29,-324.48 554.57,-317.22 551.73,-323.62"/>
</g>
<!-- Node11&#45;&gt;Node4 -->
<g id="edge13" class="edge">
<title>Node11&#45;&gt;Node4</title>
<path fill="none" stroke="midnightblue" d="M570.42,-181.29C564.94,-169.8 558.66,-156.63 554.64,-148.19"/>
<polygon fill="midnightblue" stroke="midnightblue" points="567.3,-182.88 574.76,-190.4 573.62,-179.86 567.3,-182.88"/>
</g>
<!-- Node12&#45;&gt;Node4 -->
<g id="edge19" class="edge">
<title>Node12&#45;&gt;Node4</title>
<path fill="none" stroke="midnightblue" d="M463.82,-249.04C475.93,-232.54 492.97,-209.67 508.49,-190 520.22,-175.14 534.4,-158.32 542.91,-148.33"/>
<polygon fill="midnightblue" stroke="midnightblue" points="460.72,-247.35 457.64,-257.49 466.37,-251.49 460.72,-247.35"/>
</g>
<!-- Node12&#45;&gt;Node11 -->
<g id="edge15" class="edge">
<title>Node12&#45;&gt;Node11</title>
<path fill="none" stroke="midnightblue" d="M485.64,-252.99C506.88,-242.69 532.9,-230.07 552.47,-220.58"/>
<polygon fill="midnightblue" stroke="midnightblue" points="484.04,-249.88 476.57,-257.4 487.09,-256.18 484.04,-249.88"/>
</g>
<!-- Node13 -->
<g id="node13" class="node">
<title>Node13</title>
<g id="a_node13"><a xlink:href="prefinalizer-handler_8h.html" target="_top" xlink:title=" ">
<polygon fill="white" stroke="black" points="349.99,-190.5 349.99,-220.5 460.99,-220.5 460.99,-190.5 349.99,-190.5"/>
<text text-anchor="start" x="357.99" y="-208.5" font-family="Helvetica,sans-Serif" font-size="10.00">include/cppgc/internal</text>
<text text-anchor="middle" x="405.49" y="-197.5" font-family="Helvetica,sans-Serif" font-size="10.00">/prefinalizer&#45;handler.h</text>
</a>
</g>
</g>
<!-- Node12&#45;&gt;Node13 -->
<g id="edge16" class="edge">
<title>Node12&#45;&gt;Node13</title>
<path fill="none" stroke="midnightblue" d="M432.87,-248.87C426.79,-239.46 419.92,-228.83 414.59,-220.58"/>
<polygon fill="midnightblue" stroke="midnightblue" points="430.01,-250.9 438.38,-257.4 435.89,-247.1 430.01,-250.9"/>
</g>
<!-- Node14 -->
<g id="node14" class="node">
<title>Node14</title>
<g id="a_node14"><a xlink:href="prefinalizer_8h.html" target="_top" xlink:title=" ">
<polygon fill="white" stroke="black" points="325.99,-129 325.99,-148 458.99,-148 458.99,-129 325.99,-129"/>
<text text-anchor="middle" x="392.49" y="-136" font-family="Helvetica,sans-Serif" font-size="10.00">include/cppgc/prefinalizer.h</text>
</a>
</g>
</g>
<!-- Node12&#45;&gt;Node14 -->
<g id="edge18" class="edge">
<title>Node12&#45;&gt;Node14</title>
<path fill="none" stroke="midnightblue" d="M380.01,-253.48C364.43,-246.02 349.73,-235.58 340.49,-221 323.6,-194.35 359.56,-162.89 379.86,-148.05"/>
<polygon fill="midnightblue" stroke="midnightblue" points="378.68,-256.72 389.25,-257.54 381.5,-250.31 378.68,-256.72"/>
</g>
<!-- Node13&#45;&gt;Node14 -->
<g id="edge17" class="edge">
<title>Node13&#45;&gt;Node14</title>
<path fill="none" stroke="midnightblue" d="M400.64,-180.25C398.39,-169.02 395.87,-156.38 394.23,-148.19"/>
<polygon fill="midnightblue" stroke="midnightblue" points="397.28,-181.28 402.67,-190.4 404.14,-179.9 397.28,-181.28"/>
</g>
<!-- Node16&#45;&gt;Node2 -->
<g id="edge24" class="edge">
<title>Node16&#45;&gt;Node2</title>
<path fill="none" stroke="midnightblue" d="M466.92,-511.71C505,-501.14 553.6,-487.63 589.69,-477.61"/>
<polygon fill="midnightblue" stroke="midnightblue" points="465.67,-508.43 456.98,-514.48 467.55,-515.17 465.67,-508.43"/>
</g>
<!-- Node16&#45;&gt;Node4 -->
<g id="edge39" class="edge">
<title>Node16&#45;&gt;Node4</title>
<path fill="none" stroke="midnightblue" d="M414.76,-504.61C421.31,-487.61 431.5,-464.73 444.49,-447 470.51,-411.47 478.9,-401.21 517.49,-380 571.53,-350.3 609.97,-389.59 651.49,-344 698,-292.93 710.87,-247.43 672.49,-190 657.4,-167.42 630.13,-154.92 605.2,-148.01"/>
<polygon fill="midnightblue" stroke="midnightblue" points="411.35,-503.74 411.16,-514.34 417.91,-506.17 411.35,-503.74"/>
</g>
<!-- Node16&#45;&gt;Node9 -->
<g id="edge26" class="edge">
<title>Node16&#45;&gt;Node9</title>
<path fill="none" stroke="midnightblue" d="M437.37,-509.02C453.39,-498.9 472.62,-486.77 487.18,-477.58"/>
<polygon fill="midnightblue" stroke="midnightblue" points="435.43,-506.1 428.84,-514.4 439.16,-512.02 435.43,-506.1"/>
</g>
<!-- Node16&#45;&gt;Node12 -->
<g id="edge38" class="edge">
<title>Node16&#45;&gt;Node12</title>
<path fill="none" stroke="midnightblue" d="M407.08,-504.05C407.69,-487.82 408.94,-466.07 411.49,-447 419.48,-387.24 436.34,-317.28 443.8,-287.78"/>
<polygon fill="midnightblue" stroke="midnightblue" points="403.57,-504.2 406.74,-514.31 410.57,-504.42 403.57,-504.2"/>
</g>
<!-- Node17 -->
<g id="node17" class="node">
<title>Node17</title>
<g id="a_node17"><a xlink:href="heap-consistency_8h.html" target="_top" xlink:title=" ">
<polygon fill="white" stroke="black" points="68.99,-380.5 68.99,-410.5 169.99,-410.5 169.99,-380.5 68.99,-380.5"/>
<text text-anchor="start" x="76.99" y="-398.5" font-family="Helvetica,sans-Serif" font-size="10.00">include/cppgc/heap</text>
<text text-anchor="middle" x="119.49" y="-387.5" font-family="Helvetica,sans-Serif" font-size="10.00">&#45;consistency.h</text>
</a>
</g>
</g>
<!-- Node16&#45;&gt;Node17 -->
<g id="edge25" class="edge">
<title>Node16&#45;&gt;Node17</title>
<path fill="none" stroke="midnightblue" d="M345.64,-523C302.03,-516.94 243.17,-504.29 197.49,-478 167.78,-460.9 142.24,-429.1 129.05,-410.68"/>
<polygon fill="midnightblue" stroke="midnightblue" points="345.45,-526.51 355.82,-524.33 346.36,-519.56 345.45,-526.51"/>
</g>
<!-- Node18 -->
<g id="node18" class="node">
<title>Node18</title>
<g id="a_node18"><a xlink:href="persistent-node_8h.html" target="_top" xlink:title=" ">
<polygon fill="white" stroke="black" points="29.99,-123.5 29.99,-153.5 140.99,-153.5 140.99,-123.5 29.99,-123.5"/>
<text text-anchor="start" x="37.99" y="-141.5" font-family="Helvetica,sans-Serif" font-size="10.00">include/cppgc/internal</text>
<text text-anchor="middle" x="85.49" y="-130.5" font-family="Helvetica,sans-Serif" font-size="10.00">/persistent&#45;node.h</text>
</a>
</g>
</g>
<!-- Node16&#45;&gt;Node18 -->
<g id="edge27" class="edge">
<title>Node16&#45;&gt;Node18</title>
<path fill="none" stroke="midnightblue" d="M345.53,-523.29C293.38,-517.2 217.18,-504.37 155.49,-478 97.89,-453.38 40.49,-459.14 40.49,-396.5 40.49,-396.5 40.49,-396.5 40.49,-271.5 40.49,-226.47 64.24,-177.19 77.24,-153.61"/>
<polygon fill="midnightblue" stroke="midnightblue" points="345.31,-526.78 355.63,-524.42 346.08,-519.83 345.31,-526.78"/>
</g>
<!-- Node19 -->
<g id="node19" class="node">
<title>Node19</title>
<g id="a_node19"><a xlink:href="write-barrier_8h.html" target="_top" xlink:title=" ">
<polygon fill="white" stroke="black" points="206.99,-447.5 206.99,-477.5 317.99,-477.5 317.99,-447.5 206.99,-447.5"/>
<text text-anchor="start" x="214.99" y="-465.5" font-family="Helvetica,sans-Serif" font-size="10.00">include/cppgc/internal</text>
<text text-anchor="middle" x="262.49" y="-454.5" font-family="Helvetica,sans-Serif" font-size="10.00">/write&#45;barrier.h</text>
</a>
</g>
</g>
<!-- Node16&#45;&gt;Node19 -->
<g id="edge30" class="edge">
<title>Node16&#45;&gt;Node19</title>
<path fill="none" stroke="midnightblue" d="M366.1,-510.27C343.16,-499.92 314.89,-487.15 293.67,-477.58"/>
<polygon fill="midnightblue" stroke="midnightblue" points="364.69,-513.47 375.24,-514.4 367.57,-507.09 364.69,-513.47"/>
</g>
<!-- Node18&#45;&gt;Node5 -->
<g id="edge28" class="edge">
<title>Node18&#45;&gt;Node5</title>
<path fill="none" stroke="midnightblue" d="M75.83,-113.41C71.65,-98.84 69.51,-80.52 78.49,-67 93.62,-44.22 121.26,-31.69 146.2,-24.81"/>
<polygon fill="midnightblue" stroke="midnightblue" points="72.62,-114.86 79.1,-123.24 79.26,-112.65 72.62,-114.86"/>
</g>
<!-- Node18&#45;&gt;Node6 -->
<g id="edge29" class="edge">
<title>Node18&#45;&gt;Node6</title>
<path fill="none" stroke="midnightblue" d="M109.03,-116.6C120.61,-106.32 133.93,-94.48 142.74,-86.66"/>
<polygon fill="midnightblue" stroke="midnightblue" points="106.52,-114.14 101.37,-123.4 111.17,-119.38 106.52,-114.14"/>
</g>
<!-- Node19&#45;&gt;Node7 -->
<g id="edge37" class="edge">
<title>Node19&#45;&gt;Node7</title>
<path fill="none" stroke="midnightblue" d="M237.27,-440.21C229.38,-431.99 221.65,-421.92 217.49,-411 212.59,-398.12 214.97,-393.55 217.49,-380 239.87,-259.66 236.67,-215.8 316.49,-123 331.21,-105.89 354.13,-93.85 371.5,-86.56"/>
<polygon fill="midnightblue" stroke="midnightblue" points="234.86,-442.74 244.47,-447.21 239.74,-437.73 234.86,-442.74"/>
</g>
<!-- Node19&#45;&gt;Node17 -->
<g id="edge31" class="edge">
<title>Node19&#45;&gt;Node17</title>
<path fill="none" stroke="midnightblue" d="M222.08,-443.13C199.36,-432.8 171.43,-420.11 150.46,-410.58"/>
<polygon fill="midnightblue" stroke="midnightblue" points="220.91,-446.44 231.46,-447.4 223.81,-440.07 220.91,-446.44"/>
</g>
<!-- Node20 -->
<g id="node20" class="node">
<title>Node20</title>
<g id="a_node20"><a xlink:href="pointer-policies_8h.html" target="_top" xlink:title=" ">
<polygon fill="white" stroke="black" points="226.99,-380.5 226.99,-410.5 337.99,-410.5 337.99,-380.5 226.99,-380.5"/>
<text text-anchor="start" x="234.99" y="-398.5" font-family="Helvetica,sans-Serif" font-size="10.00">include/cppgc/internal</text>
<text text-anchor="middle" x="282.49" y="-387.5" font-family="Helvetica,sans-Serif" font-size="10.00">/pointer&#45;policies.h</text>
</a>
</g>
</g>
<!-- Node19&#45;&gt;Node20 -->
<g id="edge32" class="edge">
<title>Node19&#45;&gt;Node20</title>
<path fill="none" stroke="midnightblue" d="M269.81,-437.7C272.62,-428.59 275.72,-418.49 278.16,-410.58"/>
<polygon fill="midnightblue" stroke="midnightblue" points="266.43,-436.81 266.83,-447.4 273.12,-438.87 266.43,-436.81"/>
</g>
<!-- Node20&#45;&gt;Node4 -->
<g id="edge36" class="edge">
<title>Node20&#45;&gt;Node4</title>
<path fill="none" stroke="midnightblue" d="M281.98,-370.39C282.47,-327.66 289.93,-238.56 340.49,-190 352.32,-178.64 446.11,-159.21 504.28,-148.05"/>
<polygon fill="midnightblue" stroke="midnightblue" points="278.48,-370.44 281.99,-380.44 285.48,-370.44 278.48,-370.44"/>
</g>
<!-- Node20&#45;&gt;Node5 -->
<g id="edge33" class="edge">
<title>Node20&#45;&gt;Node5</title>
<path fill="none" stroke="midnightblue" d="M270.81,-371.1C259.97,-347.19 245.49,-308.67 245.49,-273.5 245.49,-273.5 245.49,-273.5 245.49,-137.5 245.49,-96.48 221.73,-52.63 208,-30.7"/>
<polygon fill="midnightblue" stroke="midnightblue" points="267.76,-372.84 275.18,-380.4 274.09,-369.86 267.76,-372.84"/>
</g>
<!-- Node20&#45;&gt;Node6 -->
<g id="edge35" class="edge">
<title>Node20&#45;&gt;Node6</title>
<path fill="none" stroke="midnightblue" d="M256.44,-373.52C247.46,-365.16 238.02,-354.91 231.49,-344 177.04,-253.07 157.83,-121.98 153.51,-86.91"/>
<polygon fill="midnightblue" stroke="midnightblue" points="254.33,-376.33 264.13,-380.37 258.99,-371.1 254.33,-376.33"/>
</g>
<!-- Node20&#45;&gt;Node10 -->
<g id="edge34" class="edge">
<title>Node20&#45;&gt;Node10</title>
<path fill="none" stroke="midnightblue" d="M348.16,-381.43C405.99,-369.92 488.53,-353.5 538.36,-343.58"/>
<polygon fill="midnightblue" stroke="midnightblue" points="347.15,-378.06 338.03,-383.45 348.52,-384.93 347.15,-378.06"/>
</g>
</g>
</svg>
