<?xml version="1.0" encoding="UTF-8" standalone="no"?>
<!DOCTYPE svg PUBLIC "-//W3C//DTD SVG 1.1//EN"
 "http://www.w3.org/Graphics/SVG/1.1/DTD/svg11.dtd">
<!-- Generated by graphviz version 2.49.3 (20211027.1534)
 -->
<!-- Title: v8::PersistentBase::Reset Pages: 1 -->
<svg width="270pt" height="78pt"
 viewBox="0.00 0.00 270.00 77.50" xmlns="http://www.w3.org/2000/svg" xmlns:xlink="http://www.w3.org/1999/xlink">
<g id="graph0" class="graph" transform="scale(1 1) rotate(0) translate(4 73.5)">
<title>v8::PersistentBase::Reset</title>
<polygon fill="white" stroke="transparent" points="-4,4 -4,-73.5 266,-73.5 266,4 -4,4"/>
<!-- Node1 -->
<g id="node1" class="node">
<title>Node1</title>
<g id="a_node1"><a xlink:title=" ">
<polygon fill="#bfbfbf" stroke="black" points="0,-22.5 0,-52.5 98,-52.5 98,-22.5 0,-22.5"/>
<text text-anchor="start" x="8" y="-40.5" font-family="Helvetica,sans-Serif" font-size="10.00">v8::PersistentBase</text>
<text text-anchor="middle" x="49" y="-29.5" font-family="Helvetica,sans-Serif" font-size="10.00">::Reset</text>
</a>
</g>
</g>
<!-- Node2 -->
<g id="node2" class="node">
<title>Node2</title>
<g id="a_node2"><a xlink:href="classv8_1_1Local.html#a53ee4e9d3c34ad7ff6edb2fd1e7c627a" target="_top" xlink:title=" ">
<polygon fill="white" stroke="black" points="150.5,-50 150.5,-69 245.5,-69 245.5,-50 150.5,-50"/>
<text text-anchor="middle" x="198" y="-57" font-family="Helvetica,sans-Serif" font-size="10.00">v8::Local::IsEmpty</text>
</a>
</g>
</g>
<!-- Node1&#45;&gt;Node2 -->
<g id="edge1" class="edge">
<title>Node1&#45;&gt;Node2</title>
<path fill="none" stroke="midnightblue" d="M98.13,-44.7C111.61,-46.72 126.38,-48.93 140.3,-51.01"/>
<polygon fill="midnightblue" stroke="midnightblue" points="139.85,-54.49 150.26,-52.51 140.89,-47.56 139.85,-54.49"/>
</g>
<!-- Node3 -->
<g id="node3" class="node">
<title>Node3</title>
<g id="a_node3"><a xlink:href="classv8_1_1TracedReferenceBase.html#a2ead6463fd24c36fce274fefdc87087f" target="_top" xlink:title=" ">
<polygon fill="white" stroke="black" points="134,-0.5 134,-30.5 262,-30.5 262,-0.5 134,-0.5"/>
<text text-anchor="start" x="142" y="-18.5" font-family="Helvetica,sans-Serif" font-size="10.00">v8::TracedReferenceBase</text>
<text text-anchor="middle" x="198" y="-7.5" font-family="Helvetica,sans-Serif" font-size="10.00">::Reset</text>
</a>
</g>
</g>
<!-- Node1&#45;&gt;Node3 -->
<g id="edge2" class="edge">
<title>Node1&#45;&gt;Node3</title>
<path fill="none" stroke="midnightblue" d="M98.13,-30.3C106.32,-29.07 114.98,-27.77 123.64,-26.48"/>
<polygon fill="midnightblue" stroke="midnightblue" points="124.41,-29.9 133.78,-24.96 123.37,-22.98 124.41,-29.9"/>
</g>
</g>
</svg>
