<?xml version="1.0" encoding="UTF-8" standalone="no"?>
<!DOCTYPE svg PUBLIC "-//W3C//DTD SVG 1.1//EN"
 "http://www.w3.org/Graphics/SVG/1.1/DTD/svg11.dtd">
<!-- Generated by graphviz version 2.49.3 (20211027.1534)
 -->
<!-- Title: v8::TracedReferenceBase::operator== Pages: 1 -->
<svg width="300pt" height="127pt"
 viewBox="0.00 0.00 300.00 126.50" xmlns="http://www.w3.org/2000/svg" xmlns:xlink="http://www.w3.org/1999/xlink">
<g id="graph0" class="graph" transform="scale(1 1) rotate(0) translate(4 122.5)">
<title>v8::TracedReferenceBase::operator==</title>
<polygon fill="white" stroke="transparent" points="-4,4 -4,-122.5 296,-122.5 296,4 -4,4"/>
<!-- Node1 -->
<g id="node1" class="node">
<title>Node1</title>
<g id="a_node1"><a xlink:title=" ">
<polygon fill="#bfbfbf" stroke="black" points="164,-49.5 164,-79.5 292,-79.5 292,-49.5 164,-49.5"/>
<text text-anchor="start" x="172" y="-67.5" font-family="Helvetica,sans-Serif" font-size="10.00">v8::TracedReferenceBase</text>
<text text-anchor="middle" x="228" y="-56.5" font-family="Helvetica,sans-Serif" font-size="10.00">::operator==</text>
</a>
</g>
</g>
<!-- Node2 -->
<g id="node2" class="node">
<title>Node2</title>
<g id="a_node2"><a xlink:href="classv8_1_1Maybe.html#a4d4ac6c3387f7148ea3b6ec6864b4940" target="_top" xlink:title=" ">
<polygon fill="white" stroke="black" points="9.5,-99 9.5,-118 118.5,-118 118.5,-99 9.5,-99"/>
<text text-anchor="middle" x="64" y="-106" font-family="Helvetica,sans-Serif" font-size="10.00">v8::Maybe::operator!=</text>
</a>
</g>
</g>
<!-- Node1&#45;&gt;Node2 -->
<g id="edge1" class="edge">
<title>Node1&#45;&gt;Node2</title>
<path fill="none" stroke="midnightblue" d="M161.84,-82.2C140.81,-87.91 118.29,-94.03 100.27,-98.92"/>
<polygon fill="midnightblue" stroke="midnightblue" points="162.97,-85.52 171.7,-79.52 161.13,-78.76 162.97,-85.52"/>
</g>
<!-- Node3 -->
<g id="node3" class="node">
<title>Node3</title>
<g id="a_node3"><a xlink:href="classv8_1_1Maybe_3_01void_01_4.html#aaf837c2e394c2e9c13ee64589da50c7e" target="_top" xlink:title=" ">
<polygon fill="white" stroke="black" points="14.5,-49.5 14.5,-79.5 113.5,-79.5 113.5,-49.5 14.5,-49.5"/>
<text text-anchor="start" x="22.5" y="-67.5" font-family="Helvetica,sans-Serif" font-size="10.00">v8::Maybe&lt; void &gt;::</text>
<text text-anchor="middle" x="64" y="-56.5" font-family="Helvetica,sans-Serif" font-size="10.00">operator!=</text>
</a>
</g>
</g>
<!-- Node1&#45;&gt;Node3 -->
<g id="edge2" class="edge">
<title>Node1&#45;&gt;Node3</title>
<path fill="none" stroke="midnightblue" d="M153.62,-64.5C140.06,-64.5 126.22,-64.5 113.63,-64.5"/>
<polygon fill="midnightblue" stroke="midnightblue" points="153.9,-68 163.9,-64.5 153.9,-61 153.9,-68"/>
</g>
<!-- Node4 -->
<g id="node4" class="node">
<title>Node4</title>
<g id="a_node4"><a xlink:href="classv8_1_1TracedReferenceBase.html#afdf5263001d805be84b771692b6c55e6" target="_top" xlink:title=" ">
<polygon fill="white" stroke="black" points="0,-0.5 0,-30.5 128,-30.5 128,-0.5 0,-0.5"/>
<text text-anchor="start" x="8" y="-18.5" font-family="Helvetica,sans-Serif" font-size="10.00">v8::TracedReferenceBase</text>
<text text-anchor="middle" x="64" y="-7.5" font-family="Helvetica,sans-Serif" font-size="10.00">::operator!=</text>
</a>
</g>
</g>
<!-- Node1&#45;&gt;Node4 -->
<g id="edge3" class="edge">
<title>Node1&#45;&gt;Node4</title>
<path fill="none" stroke="midnightblue" d="M167.12,-46.39C149.89,-41.18 131.3,-35.55 114.76,-30.55"/>
<polygon fill="midnightblue" stroke="midnightblue" points="166.49,-49.85 177.07,-49.4 168.51,-43.15 166.49,-49.85"/>
</g>
</g>
</svg>
