<?xml version="1.0" encoding="UTF-8" standalone="no"?>
<!DOCTYPE svg PUBLIC "-//W3C//DTD SVG 1.1//EN"
 "http://www.w3.org/Graphics/SVG/1.1/DTD/svg11.dtd">
<!-- Generated by graphviz version 2.49.3 (20211027.1534)
 -->
<!-- Title: v8::PersistentValueMapBase::~PersistentValueMapBase Pages: 1 -->
<svg width="848pt" height="127pt"
 viewBox="0.00 0.00 848.00 126.50" xmlns="http://www.w3.org/2000/svg" xmlns:xlink="http://www.w3.org/1999/xlink">
<g id="graph0" class="graph" transform="scale(1 1) rotate(0) translate(4 122.5)">
<title>v8::PersistentValueMapBase::~PersistentValueMapBase</title>
<polygon fill="white" stroke="transparent" points="-4,4 -4,-122.5 844,-122.5 844,4 -4,4"/>
<!-- Node1 -->
<g id="node1" class="node">
<title>Node1</title>
<g id="a_node1"><a xlink:title=" ">
<polygon fill="#bfbfbf" stroke="black" points="0,-63 0,-93 142,-93 142,-63 0,-63"/>
<text text-anchor="start" x="8" y="-81" font-family="Helvetica,sans-Serif" font-size="10.00">v8::PersistentValueMapBase</text>
<text text-anchor="middle" x="71" y="-70" font-family="Helvetica,sans-Serif" font-size="10.00">::~PersistentValueMapBase</text>
</a>
</g>
</g>
<!-- Node2 -->
<g id="node2" class="node">
<title>Node2</title>
<g id="a_node2"><a xlink:href="classv8_1_1PersistentValueMapBase.html#a1bf074e7a7c24713c9a3d40ddce89e74" target="_top" xlink:title=" ">
<polygon fill="white" stroke="black" points="178,-63 178,-93 320,-93 320,-63 178,-63"/>
<text text-anchor="start" x="186" y="-81" font-family="Helvetica,sans-Serif" font-size="10.00">v8::PersistentValueMapBase</text>
<text text-anchor="middle" x="249" y="-70" font-family="Helvetica,sans-Serif" font-size="10.00">::Clear</text>
</a>
</g>
</g>
<!-- Node1&#45;&gt;Node2 -->
<g id="edge1" class="edge">
<title>Node1&#45;&gt;Node2</title>
<path fill="none" stroke="midnightblue" d="M142.07,-78C150.54,-78 159.25,-78 167.85,-78"/>
<polygon fill="midnightblue" stroke="midnightblue" points="167.89,-81.5 177.89,-78 167.89,-74.5 167.89,-81.5"/>
</g>
<!-- Node3 -->
<g id="node3" class="node">
<title>Node3</title>
<g id="a_node3"><a xlink:href="classv8_1_1PersistentValueMapBase.html#a149e5b7f40fa52dc9b379342ac802d94" target="_top" xlink:title=" ">
<polygon fill="white" stroke="black" points="356,-88 356,-118 498,-118 498,-88 356,-88"/>
<text text-anchor="start" x="364" y="-106" font-family="Helvetica,sans-Serif" font-size="10.00">v8::PersistentValueMapBase</text>
<text text-anchor="middle" x="427" y="-95" font-family="Helvetica,sans-Serif" font-size="10.00">::impl</text>
</a>
</g>
</g>
<!-- Node2&#45;&gt;Node3 -->
<g id="edge2" class="edge">
<title>Node2&#45;&gt;Node3</title>
<path fill="none" stroke="midnightblue" d="M320.07,-87.95C328.54,-89.16 337.25,-90.39 345.85,-91.62"/>
<polygon fill="midnightblue" stroke="midnightblue" points="345.5,-95.1 355.89,-93.04 346.48,-88.17 345.5,-95.1"/>
</g>
<!-- Node4 -->
<g id="node4" class="node">
<title>Node4</title>
<g id="a_node4"><a xlink:href="classv8_1_1PersistentValueMapBase.html#aea9af944a2bd71a3b6abd2a2e57788f1" target="_top" xlink:title=" ">
<polygon fill="white" stroke="black" points="356,-39 356,-69 498,-69 498,-39 356,-39"/>
<text text-anchor="start" x="364" y="-57" font-family="Helvetica,sans-Serif" font-size="10.00">v8::PersistentValueMapBase</text>
<text text-anchor="middle" x="427" y="-46" font-family="Helvetica,sans-Serif" font-size="10.00">::Release</text>
</a>
</g>
</g>
<!-- Node2&#45;&gt;Node4 -->
<g id="edge3" class="edge">
<title>Node2&#45;&gt;Node4</title>
<path fill="none" stroke="midnightblue" d="M320.07,-68.45C328.54,-67.29 337.25,-66.1 345.85,-64.93"/>
<polygon fill="midnightblue" stroke="midnightblue" points="346.45,-68.38 355.89,-63.56 345.51,-61.44 346.45,-68.38"/>
</g>
<!-- Node5 -->
<g id="node5" class="node">
<title>Node5</title>
<g id="a_node5"><a xlink:href="classv8_1_1PersistentValueMapBase.html#abb262f768e4353658726ba4d1295947c" target="_top" xlink:title=" ">
<polygon fill="white" stroke="black" points="534,-88 534,-118 676,-118 676,-88 534,-88"/>
<text text-anchor="start" x="542" y="-106" font-family="Helvetica,sans-Serif" font-size="10.00">v8::PersistentValueMapBase</text>
<text text-anchor="middle" x="605" y="-95" font-family="Helvetica,sans-Serif" font-size="10.00">::FromVal</text>
</a>
</g>
</g>
<!-- Node4&#45;&gt;Node5 -->
<g id="edge4" class="edge">
<title>Node4&#45;&gt;Node5</title>
<path fill="none" stroke="midnightblue" d="M482.24,-69.1C500.56,-74.2 521.18,-79.94 540.17,-85.23"/>
<polygon fill="midnightblue" stroke="midnightblue" points="539.36,-88.64 549.94,-87.95 541.24,-81.89 539.36,-88.64"/>
</g>
<!-- Node6 -->
<g id="node6" class="node">
<title>Node6</title>
<g id="a_node6"><a xlink:href="classv8_1_1PersistentBase.html#a479c7b146da083aa608e133a7dec79f9" target="_top" xlink:title=" ">
<polygon fill="white" stroke="black" points="556,-39 556,-69 654,-69 654,-39 556,-39"/>
<text text-anchor="start" x="564" y="-57" font-family="Helvetica,sans-Serif" font-size="10.00">v8::PersistentBase</text>
<text text-anchor="middle" x="605" y="-46" font-family="Helvetica,sans-Serif" font-size="10.00">::IsWeak</text>
</a>
</g>
</g>
<!-- Node4&#45;&gt;Node6 -->
<g id="edge5" class="edge">
<title>Node4&#45;&gt;Node6</title>
<path fill="none" stroke="midnightblue" d="M498.07,-54C513.8,-54 530.33,-54 545.53,-54"/>
<polygon fill="midnightblue" stroke="midnightblue" points="545.82,-57.5 555.82,-54 545.82,-50.5 545.82,-57.5"/>
</g>
<!-- Node8 -->
<g id="node8" class="node">
<title>Node8</title>
<g id="a_node8"><a xlink:href="classv8_1_1Global.html#a914903149cc752468d4a3a11b6089c7e" target="_top" xlink:title=" ">
<polygon fill="white" stroke="black" points="562,-0.5 562,-19.5 648,-19.5 648,-0.5 562,-0.5"/>
<text text-anchor="middle" x="605" y="-7.5" font-family="Helvetica,sans-Serif" font-size="10.00">v8::Global::Pass</text>
</a>
</g>
</g>
<!-- Node4&#45;&gt;Node8 -->
<g id="edge7" class="edge">
<title>Node4&#45;&gt;Node8</title>
<path fill="none" stroke="midnightblue" d="M488.08,-38.98C510.24,-33.44 535.04,-27.24 556,-22"/>
<polygon fill="midnightblue" stroke="midnightblue" points="557.1,-25.33 565.95,-19.51 555.4,-18.54 557.1,-25.33"/>
</g>
<!-- Node7 -->
<g id="node7" class="node">
<title>Node7</title>
<g id="a_node7"><a xlink:href="classv8_1_1TracedReferenceBase.html#a8d038ab209eebcd49e28e435396f95dc" target="_top" xlink:title=" ">
<polygon fill="white" stroke="black" points="712,-39 712,-69 840,-69 840,-39 712,-39"/>
<text text-anchor="start" x="720" y="-57" font-family="Helvetica,sans-Serif" font-size="10.00">v8::TracedReferenceBase</text>
<text text-anchor="middle" x="776" y="-46" font-family="Helvetica,sans-Serif" font-size="10.00">::IsEmpty</text>
</a>
</g>
</g>
<!-- Node6&#45;&gt;Node7 -->
<g id="edge6" class="edge">
<title>Node6&#45;&gt;Node7</title>
<path fill="none" stroke="midnightblue" d="M654.43,-54C669.07,-54 685.49,-54 701.39,-54"/>
<polygon fill="midnightblue" stroke="midnightblue" points="701.74,-57.5 711.74,-54 701.74,-50.5 701.74,-57.5"/>
</g>
</g>
</svg>
