<?xml version="1.0" encoding="UTF-8" standalone="no"?>
<!DOCTYPE svg PUBLIC "-//W3C//DTD SVG 1.1//EN"
 "http://www.w3.org/Graphics/SVG/1.1/DTD/svg11.dtd">
<!-- Generated by graphviz version 2.49.3 (20211027.1534)
 -->
<!-- Title: v8::Local::IsEmpty Pages: 1 -->
<svg width="366pt" height="154pt"
 viewBox="0.00 0.00 366.00 154.00" xmlns="http://www.w3.org/2000/svg" xmlns:xlink="http://www.w3.org/1999/xlink">
<g id="graph0" class="graph" transform="scale(1 1) rotate(0) translate(4 150)">
<title>v8::Local::IsEmpty</title>
<polygon fill="white" stroke="transparent" points="-4,4 -4,-150 362,-150 362,4 -4,4"/>
<!-- Node1 -->
<g id="node1" class="node">
<title>Node1</title>
<g id="a_node1"><a xlink:title=" ">
<polygon fill="#bfbfbf" stroke="black" points="263,-60.5 263,-79.5 358,-79.5 358,-60.5 263,-60.5"/>
<text text-anchor="middle" x="310.5" y="-67.5" font-family="Helvetica,sans-Serif" font-size="10.00">v8::Local::IsEmpty</text>
</a>
</g>
</g>
<!-- Node2 -->
<g id="node2" class="node">
<title>Node2</title>
<g id="a_node2"><a xlink:href="classv8_1_1Local.html#a6ed02351ca8e4dd0257dff7c2c9f67a8" target="_top" xlink:title=" ">
<polygon fill="white" stroke="black" points="127.5,-126.5 127.5,-145.5 207.5,-145.5 207.5,-126.5 127.5,-126.5"/>
<text text-anchor="middle" x="167.5" y="-133.5" font-family="Helvetica,sans-Serif" font-size="10.00">v8::Local::Cast</text>
</a>
</g>
</g>
<!-- Node1&#45;&gt;Node2 -->
<g id="edge1" class="edge">
<title>Node1&#45;&gt;Node2</title>
<path fill="none" stroke="midnightblue" d="M286.02,-85.09C269.86,-95.04 247.67,-107.87 227,-117 219.09,-120.49 210.33,-123.68 202.04,-126.4"/>
<polygon fill="midnightblue" stroke="midnightblue" points="288.15,-87.88 294.77,-79.62 284.44,-81.95 288.15,-87.88"/>
</g>
<!-- Node4 -->
<g id="node4" class="node">
<title>Node4</title>
<g id="a_node4"><a xlink:href="classv8_1_1PersistentBase.html#ab4b4d3fba3498486f1f10dc7d5be90fc" target="_top" xlink:title=" ">
<polygon fill="white" stroke="black" points="118.5,-77 118.5,-107 216.5,-107 216.5,-77 118.5,-77"/>
<text text-anchor="start" x="126.5" y="-95" font-family="Helvetica,sans-Serif" font-size="10.00">v8::PersistentBase</text>
<text text-anchor="middle" x="167.5" y="-84" font-family="Helvetica,sans-Serif" font-size="10.00">::Reset</text>
</a>
</g>
</g>
<!-- Node1&#45;&gt;Node4 -->
<g id="edge3" class="edge">
<title>Node1&#45;&gt;Node4</title>
<path fill="none" stroke="midnightblue" d="M253.06,-78.81C241.1,-80.67 228.58,-82.63 216.94,-84.44"/>
<polygon fill="midnightblue" stroke="midnightblue" points="253.6,-82.26 262.94,-77.26 252.52,-75.35 253.6,-82.26"/>
</g>
<!-- Node5 -->
<g id="node5" class="node">
<title>Node5</title>
<g id="a_node5"><a xlink:href="classv8_1_1TracedGlobal.html#ae3abd549a4148dcad0c566feecc74b40" target="_top" xlink:title=" ">
<polygon fill="white" stroke="black" points="108,-38.5 108,-57.5 227,-57.5 227,-38.5 108,-38.5"/>
<text text-anchor="middle" x="167.5" y="-45.5" font-family="Helvetica,sans-Serif" font-size="10.00">v8::TracedGlobal::Reset</text>
</a>
</g>
</g>
<!-- Node1&#45;&gt;Node5 -->
<g id="edge4" class="edge">
<title>Node1&#45;&gt;Node5</title>
<path fill="none" stroke="midnightblue" d="M252.79,-61.15C244.32,-59.83 235.58,-58.47 227.08,-57.14"/>
<polygon fill="midnightblue" stroke="midnightblue" points="252.52,-64.65 262.94,-62.74 253.6,-57.74 252.52,-64.65"/>
</g>
<!-- Node6 -->
<g id="node6" class="node">
<title>Node6</title>
<g id="a_node6"><a xlink:href="classv8_1_1ReturnValue.html#a69d99ab0e0c12d68291d425287532799" target="_top" xlink:title=" ">
<polygon fill="white" stroke="black" points="115.5,-0.5 115.5,-19.5 219.5,-19.5 219.5,-0.5 115.5,-0.5"/>
<text text-anchor="middle" x="167.5" y="-7.5" font-family="Helvetica,sans-Serif" font-size="10.00">v8::ReturnValue::Set</text>
</a>
</g>
</g>
<!-- Node1&#45;&gt;Node6 -->
<g id="edge5" class="edge">
<title>Node1&#45;&gt;Node6</title>
<path fill="none" stroke="midnightblue" d="M282.91,-55.53C266.96,-47.18 246.13,-36.81 227,-29 218.6,-25.57 209.32,-22.32 200.69,-19.51"/>
<polygon fill="midnightblue" stroke="midnightblue" points="281.67,-58.84 292.14,-60.44 284.95,-52.66 281.67,-58.84"/>
</g>
<!-- Node3 -->
<g id="node3" class="node">
<title>Node3</title>
<g id="a_node3"><a xlink:href="classv8_1_1Local.html#a7a27b62ca46ca5d54ac55acadb2feeb6" target="_top" xlink:title=" ">
<polygon fill="white" stroke="black" points="0,-126.5 0,-145.5 72,-145.5 72,-126.5 0,-126.5"/>
<text text-anchor="middle" x="36" y="-133.5" font-family="Helvetica,sans-Serif" font-size="10.00">v8::Local::As</text>
</a>
</g>
</g>
<!-- Node2&#45;&gt;Node3 -->
<g id="edge2" class="edge">
<title>Node2&#45;&gt;Node3</title>
<path fill="none" stroke="midnightblue" d="M117.14,-136C102.14,-136 85.97,-136 72.11,-136"/>
<polygon fill="midnightblue" stroke="midnightblue" points="117.29,-139.5 127.29,-136 117.29,-132.5 117.29,-139.5"/>
</g>
</g>
</svg>
