<?xml version="1.0" encoding="UTF-8" standalone="no"?>
<!DOCTYPE svg PUBLIC "-//W3C//DTD SVG 1.1//EN"
 "http://www.w3.org/Graphics/SVG/1.1/DTD/svg11.dtd">
<!-- Generated by graphviz version 2.49.3 (20211027.1534)
 -->
<!-- Title: cppgc::internal::BasicPersistent::operator= Pages: 1 -->
<svg width="697pt" height="296pt"
 viewBox="0.00 0.00 697.00 296.00" xmlns="http://www.w3.org/2000/svg" xmlns:xlink="http://www.w3.org/1999/xlink">
<g id="graph0" class="graph" transform="scale(1 1) rotate(0) translate(4 292)">
<title>cppgc::internal::BasicPersistent::operator=</title>
<polygon fill="white" stroke="transparent" points="-4,4 -4,-292 693,-292 693,4 -4,4"/>
<!-- Node1 -->
<g id="node1" class="node">
<title>Node1</title>
<g id="a_node1"><a xlink:title=" ">
<polygon fill="#bfbfbf" stroke="black" points="0,-144.5 0,-174.5 152,-174.5 152,-144.5 0,-144.5"/>
<text text-anchor="start" x="8" y="-162.5" font-family="Helvetica,sans-Serif" font-size="10.00">cppgc::internal::BasicPersistent</text>
<text text-anchor="middle" x="76" y="-151.5" font-family="Helvetica,sans-Serif" font-size="10.00">::operator=</text>
</a>
</g>
</g>
<!-- Node2 -->
<g id="node2" class="node">
<title>Node2</title>
<g id="a_node2"><a xlink:href="classcppgc_1_1internal_1_1BasicPersistent.html#a74dde4359237ebdcc5056566265ad8be" target="_top" xlink:title=" ">
<polygon fill="white" stroke="black" points="198.5,-257.5 198.5,-287.5 350.5,-287.5 350.5,-257.5 198.5,-257.5"/>
<text text-anchor="start" x="206.5" y="-275.5" font-family="Helvetica,sans-Serif" font-size="10.00">cppgc::internal::BasicPersistent</text>
<text text-anchor="middle" x="274.5" y="-264.5" font-family="Helvetica,sans-Serif" font-size="10.00">::Clear</text>
</a>
</g>
</g>
<!-- Node1&#45;&gt;Node2 -->
<g id="edge1" class="edge">
<title>Node1&#45;&gt;Node2</title>
<path fill="none" stroke="midnightblue" d="M92.17,-174.75C112.37,-194.25 149.99,-227.84 188,-247.5 192.32,-249.74 196.87,-251.8 201.53,-253.7"/>
<polygon fill="midnightblue" stroke="midnightblue" points="200.62,-257.1 211.21,-257.38 203.1,-250.55 200.62,-257.1"/>
</g>
<!-- Node3 -->
<g id="node3" class="node">
<title>Node3</title>
<g id="a_node3"><a xlink:href="classcppgc_1_1internal_1_1BasicPersistent.html#ad771b1acc6a1c9a0d51e98e9f3d455d2" target="_top" xlink:title=" ">
<polygon fill="white" stroke="black" points="188,-219 188,-238 361,-238 361,-219 188,-219"/>
<text text-anchor="middle" x="274.5" y="-226" font-family="Helvetica,sans-Serif" font-size="10.00">cppgc::internal::BasicPersistent::Get</text>
</a>
</g>
</g>
<!-- Node1&#45;&gt;Node3 -->
<g id="edge2" class="edge">
<title>Node1&#45;&gt;Node3</title>
<path fill="none" stroke="midnightblue" d="M106.02,-174.55C128.05,-185.48 159.32,-199.97 188,-209.5 195.88,-212.12 204.29,-214.49 212.65,-216.59"/>
<polygon fill="midnightblue" stroke="midnightblue" points="211.86,-220 222.4,-218.94 213.49,-213.19 211.86,-220"/>
</g>
<!-- Node5 -->
<g id="node5" class="node">
<title>Node5</title>
<g id="a_node5"><a xlink:href="classcppgc_1_1internal_1_1PersistentBase.html#aa189d8229e1fd8cc2cfce363ade822c6" target="_top" xlink:title=" ">
<polygon fill="white" stroke="black" points="210.5,-169.5 210.5,-199.5 338.5,-199.5 338.5,-169.5 210.5,-169.5"/>
<text text-anchor="start" x="218.5" y="-187.5" font-family="Helvetica,sans-Serif" font-size="10.00">cppgc::internal::Persistent</text>
<text text-anchor="middle" x="274.5" y="-176.5" font-family="Helvetica,sans-Serif" font-size="10.00">Base::GetNode</text>
</a>
</g>
</g>
<!-- Node1&#45;&gt;Node5 -->
<g id="edge4" class="edge">
<title>Node1&#45;&gt;Node5</title>
<path fill="none" stroke="midnightblue" d="M152.13,-169.06C167.86,-171.06 184.43,-173.17 200.1,-175.16"/>
<polygon fill="midnightblue" stroke="midnightblue" points="199.88,-178.66 210.25,-176.45 200.77,-171.72 199.88,-178.66"/>
</g>
<!-- Node6 -->
<g id="node6" class="node">
<title>Node6</title>
<g id="a_node6"><a xlink:href="classcppgc_1_1internal_1_1PersistentBase.html#af84e1d2f71c9cbd3f0a4424339c725cb" target="_top" xlink:title=" ">
<polygon fill="white" stroke="black" points="210.5,-120.5 210.5,-150.5 338.5,-150.5 338.5,-120.5 210.5,-120.5"/>
<text text-anchor="start" x="218.5" y="-138.5" font-family="Helvetica,sans-Serif" font-size="10.00">cppgc::internal::Persistent</text>
<text text-anchor="middle" x="274.5" y="-127.5" font-family="Helvetica,sans-Serif" font-size="10.00">Base::SetNode</text>
</a>
</g>
</g>
<!-- Node1&#45;&gt;Node6 -->
<g id="edge5" class="edge">
<title>Node1&#45;&gt;Node6</title>
<path fill="none" stroke="midnightblue" d="M152.13,-150.32C167.86,-148.4 184.43,-146.38 200.1,-144.47"/>
<polygon fill="midnightblue" stroke="midnightblue" points="200.74,-147.91 210.25,-143.23 199.89,-140.96 200.74,-147.91"/>
</g>
<!-- Node7 -->
<g id="node7" class="node">
<title>Node7</title>
<g id="a_node7"><a xlink:href="classcppgc_1_1internal_1_1PersistentBase.html#a4aa141bb08a81570f725c71d31c0e681" target="_top" xlink:title=" ">
<polygon fill="white" stroke="black" points="210.5,-71.5 210.5,-101.5 338.5,-101.5 338.5,-71.5 210.5,-71.5"/>
<text text-anchor="start" x="218.5" y="-89.5" font-family="Helvetica,sans-Serif" font-size="10.00">cppgc::internal::Persistent</text>
<text text-anchor="middle" x="274.5" y="-78.5" font-family="Helvetica,sans-Serif" font-size="10.00">Base::SetValue</text>
</a>
</g>
</g>
<!-- Node1&#45;&gt;Node7 -->
<g id="edge6" class="edge">
<title>Node1&#45;&gt;Node7</title>
<path fill="none" stroke="midnightblue" d="M109.12,-144.36C131.06,-134.32 160.94,-121.26 188,-111.5 194.7,-109.08 201.76,-106.72 208.83,-104.48"/>
<polygon fill="midnightblue" stroke="midnightblue" points="209.92,-107.81 218.44,-101.51 207.85,-101.12 209.92,-107.81"/>
</g>
<!-- Node8 -->
<g id="node8" class="node">
<title>Node8</title>
<g id="a_node8"><a xlink:href="classcppgc_1_1internal_1_1PersistentNode.html#a1ca2104547bd2139cb56233c575a38f9" target="_top" xlink:title=" ">
<polygon fill="white" stroke="black" points="210.5,-22.5 210.5,-52.5 338.5,-52.5 338.5,-22.5 210.5,-22.5"/>
<text text-anchor="start" x="218.5" y="-40.5" font-family="Helvetica,sans-Serif" font-size="10.00">cppgc::internal::Persistent</text>
<text text-anchor="middle" x="274.5" y="-29.5" font-family="Helvetica,sans-Serif" font-size="10.00">Node::UpdateOwner</text>
</a>
</g>
</g>
<!-- Node1&#45;&gt;Node8 -->
<g id="edge7" class="edge">
<title>Node1&#45;&gt;Node8</title>
<path fill="none" stroke="midnightblue" d="M90.12,-144.21C109.42,-122.65 147.58,-83.5 188,-61.5 191.99,-59.33 196.2,-57.34 200.52,-55.51"/>
<polygon fill="midnightblue" stroke="midnightblue" points="202.06,-58.67 210.11,-51.79 199.52,-52.15 202.06,-58.67"/>
</g>
<!-- Node4 -->
<g id="node4" class="node">
<title>Node4</title>
<g id="a_node4"><a xlink:href="classcppgc_1_1internal_1_1PersistentBase.html#a6c8a32409cf958d76b61bb1f651c434c" target="_top" xlink:title=" ">
<polygon fill="white" stroke="black" points="397,-213.5 397,-243.5 525,-243.5 525,-213.5 397,-213.5"/>
<text text-anchor="start" x="405" y="-231.5" font-family="Helvetica,sans-Serif" font-size="10.00">cppgc::internal::Persistent</text>
<text text-anchor="middle" x="461" y="-220.5" font-family="Helvetica,sans-Serif" font-size="10.00">Base::GetValue</text>
</a>
</g>
</g>
<!-- Node3&#45;&gt;Node4 -->
<g id="edge3" class="edge">
<title>Node3&#45;&gt;Node4</title>
<path fill="none" stroke="midnightblue" d="M361.27,-228.5C369.76,-228.5 378.34,-228.5 386.69,-228.5"/>
<polygon fill="midnightblue" stroke="midnightblue" points="386.75,-232 396.75,-228.5 386.75,-225 386.75,-232"/>
</g>
<!-- Node9 -->
<g id="node9" class="node">
<title>Node9</title>
<g id="a_node9"><a xlink:href="classcppgc_1_1internal_1_1PersistentNode.html#a6117a8f66c181bb22827a21b3fbd3457" target="_top" xlink:title=" ">
<polygon fill="white" stroke="black" points="561,-22.5 561,-52.5 689,-52.5 689,-22.5 561,-22.5"/>
<text text-anchor="start" x="569" y="-40.5" font-family="Helvetica,sans-Serif" font-size="10.00">cppgc::internal::Persistent</text>
<text text-anchor="middle" x="625" y="-29.5" font-family="Helvetica,sans-Serif" font-size="10.00">Node::IsUsed</text>
</a>
</g>
</g>
<!-- Node8&#45;&gt;Node9 -->
<g id="edge8" class="edge">
<title>Node8&#45;&gt;Node9</title>
<path fill="none" stroke="midnightblue" d="M338.56,-38.74C357.36,-39.05 378.01,-39.34 397,-39.5 453.89,-39.97 468.11,-40.07 525,-39.5 533.34,-39.42 542.07,-39.29 550.75,-39.15"/>
<polygon fill="midnightblue" stroke="midnightblue" points="550.96,-42.64 560.89,-38.97 550.83,-35.64 550.96,-42.64"/>
</g>
<!-- Node10 -->
<g id="node10" class="node">
<title>Node10</title>
<g id="a_node10"><a xlink:href="classcppgc_1_1internal_1_1PersistentNode.html#ad50ff2c6d54004b92ec8c2d92455f17b" target="_top" xlink:title=" ">
<polygon fill="white" stroke="black" points="397,-0.5 397,-30.5 525,-30.5 525,-0.5 397,-0.5"/>
<text text-anchor="start" x="405" y="-18.5" font-family="Helvetica,sans-Serif" font-size="10.00">cppgc::internal::Persistent</text>
<text text-anchor="middle" x="461" y="-7.5" font-family="Helvetica,sans-Serif" font-size="10.00">Node::owner</text>
</a>
</g>
</g>
<!-- Node8&#45;&gt;Node10 -->
<g id="edge9" class="edge">
<title>Node8&#45;&gt;Node10</title>
<path fill="none" stroke="midnightblue" d="M338.74,-29.96C354.14,-28.12 370.74,-26.14 386.57,-24.26"/>
<polygon fill="midnightblue" stroke="midnightblue" points="387.33,-27.69 396.85,-23.03 386.5,-20.74 387.33,-27.69"/>
</g>
<!-- Node10&#45;&gt;Node9 -->
<g id="edge10" class="edge">
<title>Node10&#45;&gt;Node9</title>
<path fill="none" stroke="midnightblue" d="M525.1,-24.07C533.53,-25.21 542.23,-26.4 550.81,-27.56"/>
<polygon fill="midnightblue" stroke="midnightblue" points="550.43,-31.04 560.81,-28.92 551.37,-24.1 550.43,-31.04"/>
</g>
</g>
</svg>
