<?xml version="1.0" encoding="UTF-8" standalone="no"?>
<!DOCTYPE svg PUBLIC "-//W3C//DTD SVG 1.1//EN"
 "http://www.w3.org/Graphics/SVG/1.1/DTD/svg11.dtd">
<!-- Generated by graphviz version 2.49.3 (20211027.1534)
 -->
<!-- Title: cppgc::internal::PersistentNode::IsUsed Pages: 1 -->
<svg width="662pt" height="179pt"
 viewBox="0.00 0.00 662.00 179.00" xmlns="http://www.w3.org/2000/svg" xmlns:xlink="http://www.w3.org/1999/xlink">
<g id="graph0" class="graph" transform="scale(1 1) rotate(0) translate(4 175)">
<title>cppgc::internal::PersistentNode::IsUsed</title>
<polygon fill="white" stroke="transparent" points="-4,4 -4,-175 658,-175 658,4 -4,4"/>
<!-- Node1 -->
<g id="node1" class="node">
<title>Node1</title>
<g id="a_node1"><a xlink:title=" ">
<polygon fill="#bfbfbf" stroke="black" points="526,-66.5 526,-96.5 654,-96.5 654,-66.5 526,-66.5"/>
<text text-anchor="start" x="534" y="-84.5" font-family="Helvetica,sans-Serif" font-size="10.00">cppgc::internal::Persistent</text>
<text text-anchor="middle" x="590" y="-73.5" font-family="Helvetica,sans-Serif" font-size="10.00">Node::IsUsed</text>
</a>
</g>
</g>
<!-- Node2 -->
<g id="node2" class="node">
<title>Node2</title>
<g id="a_node2"><a xlink:href="classcppgc_1_1internal_1_1PersistentNode.html#a7d35e57a8fd60e0d42222cd8d93c2942" target="_top" xlink:title=" ">
<polygon fill="white" stroke="black" points="193,-140.5 193,-170.5 321,-170.5 321,-140.5 193,-140.5"/>
<text text-anchor="start" x="201" y="-158.5" font-family="Helvetica,sans-Serif" font-size="10.00">cppgc::internal::Persistent</text>
<text text-anchor="middle" x="257" y="-147.5" font-family="Helvetica,sans-Serif" font-size="10.00">Node::FreeListNext</text>
</a>
</g>
</g>
<!-- Node1&#45;&gt;Node2 -->
<g id="edge1" class="edge">
<title>Node1&#45;&gt;Node2</title>
<path fill="none" stroke="midnightblue" d="M554.12,-101.51C535.64,-111.21 512.21,-122.12 490,-128.5 434.27,-144.5 368.41,-151.05 321.12,-153.71"/>
<polygon fill="midnightblue" stroke="midnightblue" points="555.88,-104.54 563.04,-96.73 552.57,-98.37 555.88,-104.54"/>
</g>
<!-- Node4 -->
<g id="node4" class="node">
<title>Node4</title>
<g id="a_node4"><a xlink:href="classcppgc_1_1internal_1_1PersistentNode.html#ad50ff2c6d54004b92ec8c2d92455f17b" target="_top" xlink:title=" ">
<polygon fill="white" stroke="black" points="362,-88.5 362,-118.5 490,-118.5 490,-88.5 362,-88.5"/>
<text text-anchor="start" x="370" y="-106.5" font-family="Helvetica,sans-Serif" font-size="10.00">cppgc::internal::Persistent</text>
<text text-anchor="middle" x="426" y="-95.5" font-family="Helvetica,sans-Serif" font-size="10.00">Node::owner</text>
</a>
</g>
</g>
<!-- Node1&#45;&gt;Node4 -->
<g id="edge3" class="edge">
<title>Node1&#45;&gt;Node4</title>
<path fill="none" stroke="midnightblue" d="M515.91,-91.43C507.32,-92.59 498.62,-93.77 490.19,-94.92"/>
<polygon fill="midnightblue" stroke="midnightblue" points="516.46,-94.88 525.9,-90.07 515.52,-87.95 516.46,-94.88"/>
</g>
<!-- Node6 -->
<g id="node6" class="node">
<title>Node6</title>
<g id="a_node6"><a xlink:href="classcppgc_1_1internal_1_1PersistentNode.html#a1ca2104547bd2139cb56233c575a38f9" target="_top" xlink:title=" ">
<polygon fill="white" stroke="black" points="193,-42.5 193,-72.5 321,-72.5 321,-42.5 193,-42.5"/>
<text text-anchor="start" x="201" y="-60.5" font-family="Helvetica,sans-Serif" font-size="10.00">cppgc::internal::Persistent</text>
<text text-anchor="middle" x="257" y="-49.5" font-family="Helvetica,sans-Serif" font-size="10.00">Node::UpdateOwner</text>
</a>
</g>
</g>
<!-- Node1&#45;&gt;Node6 -->
<g id="edge10" class="edge">
<title>Node1&#45;&gt;Node6</title>
<path fill="none" stroke="midnightblue" d="M515.71,-76.19C457.37,-71.96 376.57,-66.1 321.08,-62.07"/>
<polygon fill="midnightblue" stroke="midnightblue" points="515.74,-79.7 525.96,-76.93 516.24,-72.72 515.74,-79.7"/>
</g>
<!-- Node9 -->
<g id="node9" class="node">
<title>Node9</title>
<g id="a_node9"><a xlink:href="classcppgc_1_1internal_1_1PersistentNode.html#abad2492c5f2fd83b81597b0cb321a770" target="_top" xlink:title=" ">
<polygon fill="white" stroke="black" points="362,-0.5 362,-30.5 490,-30.5 490,-0.5 362,-0.5"/>
<text text-anchor="start" x="370" y="-18.5" font-family="Helvetica,sans-Serif" font-size="10.00">cppgc::internal::Persistent</text>
<text text-anchor="middle" x="426" y="-7.5" font-family="Helvetica,sans-Serif" font-size="10.00">Node::Trace</text>
</a>
</g>
</g>
<!-- Node1&#45;&gt;Node9 -->
<g id="edge9" class="edge">
<title>Node1&#45;&gt;Node9</title>
<path fill="none" stroke="midnightblue" d="M542.57,-62.58C517.63,-52.42 487.32,-40.07 463.99,-30.57"/>
<polygon fill="midnightblue" stroke="midnightblue" points="541.25,-65.83 551.83,-66.36 543.89,-59.34 541.25,-65.83"/>
</g>
<!-- Node3 -->
<g id="node3" class="node">
<title>Node3</title>
<g id="a_node3"><a xlink:href="classcppgc_1_1internal_1_1PersistentRegion.html#a98c947b33b0d7924179212feeb247538" target="_top" xlink:title=" ">
<polygon fill="white" stroke="black" points="12,-128.5 12,-158.5 140,-158.5 140,-128.5 12,-128.5"/>
<text text-anchor="start" x="20" y="-146.5" font-family="Helvetica,sans-Serif" font-size="10.00">cppgc::internal::Persistent</text>
<text text-anchor="middle" x="76" y="-135.5" font-family="Helvetica,sans-Serif" font-size="10.00">Region::AllocateNode</text>
</a>
</g>
</g>
<!-- Node2&#45;&gt;Node3 -->
<g id="edge2" class="edge">
<title>Node2&#45;&gt;Node3</title>
<path fill="none" stroke="midnightblue" d="M182.72,-150.59C168.6,-149.64 153.91,-148.66 140.14,-147.73"/>
<polygon fill="midnightblue" stroke="midnightblue" points="182.68,-154.09 192.89,-151.27 183.15,-147.11 182.68,-154.09"/>
</g>
<!-- Node5 -->
<g id="node5" class="node">
<title>Node5</title>
<g id="a_node5"><a xlink:href="classcppgc_1_1internal_1_1PersistentNode.html#a18c4a9bce10409fd47e53cc0cdf8acab" target="_top" xlink:title=" ">
<polygon fill="white" stroke="black" points="188,-91.5 188,-121.5 326,-121.5 326,-91.5 188,-91.5"/>
<text text-anchor="start" x="196" y="-109.5" font-family="Helvetica,sans-Serif" font-size="10.00">cppgc::internal::Persistent</text>
<text text-anchor="middle" x="257" y="-98.5" font-family="Helvetica,sans-Serif" font-size="10.00">Node::InitializeAsUsedNode</text>
</a>
</g>
</g>
<!-- Node4&#45;&gt;Node5 -->
<g id="edge4" class="edge">
<title>Node4&#45;&gt;Node5</title>
<path fill="none" stroke="midnightblue" d="M351.65,-104.82C343.21,-104.97 334.62,-105.12 326.25,-105.27"/>
<polygon fill="midnightblue" stroke="midnightblue" points="351.93,-108.31 361.86,-104.63 351.8,-101.31 351.93,-108.31"/>
</g>
<!-- Node4&#45;&gt;Node6 -->
<g id="edge6" class="edge">
<title>Node4&#45;&gt;Node6</title>
<path fill="none" stroke="midnightblue" d="M360.58,-85.76C344.71,-81.39 327.87,-76.75 312.52,-72.52"/>
<polygon fill="midnightblue" stroke="midnightblue" points="359.75,-89.16 370.32,-88.44 361.61,-82.41 359.75,-89.16"/>
</g>
<!-- Node5&#45;&gt;Node3 -->
<g id="edge5" class="edge">
<title>Node5&#45;&gt;Node3</title>
<path fill="none" stroke="midnightblue" d="M177.84,-122.66C165.28,-125.25 152.43,-127.91 140.28,-130.42"/>
<polygon fill="midnightblue" stroke="midnightblue" points="178.73,-126.05 187.82,-120.59 177.32,-119.19 178.73,-126.05"/>
</g>
<!-- Node7 -->
<g id="node7" class="node">
<title>Node7</title>
<g id="a_node7"><a xlink:href="classcppgc_1_1internal_1_1BasicPersistent.html#abbfbd78f28338f9391df14a80498fe87" target="_top" xlink:title=" ">
<polygon fill="white" stroke="black" points="0,-55.5 0,-85.5 152,-85.5 152,-55.5 0,-55.5"/>
<text text-anchor="start" x="8" y="-73.5" font-family="Helvetica,sans-Serif" font-size="10.00">cppgc::internal::BasicPersistent</text>
<text text-anchor="middle" x="76" y="-62.5" font-family="Helvetica,sans-Serif" font-size="10.00">::BasicPersistent</text>
</a>
</g>
</g>
<!-- Node6&#45;&gt;Node7 -->
<g id="edge7" class="edge">
<title>Node6&#45;&gt;Node7</title>
<path fill="none" stroke="midnightblue" d="M182.86,-62.81C172.72,-63.55 162.29,-64.31 152.11,-65.05"/>
<polygon fill="midnightblue" stroke="midnightblue" points="183.17,-66.3 192.89,-62.08 182.66,-59.32 183.17,-66.3"/>
</g>
<!-- Node8 -->
<g id="node8" class="node">
<title>Node8</title>
<g id="a_node8"><a xlink:href="classcppgc_1_1internal_1_1BasicPersistent.html#ae98f0f817a287da8daf1750f28acc387" target="_top" xlink:title=" ">
<polygon fill="white" stroke="black" points="0,-6.5 0,-36.5 152,-36.5 152,-6.5 0,-6.5"/>
<text text-anchor="start" x="8" y="-24.5" font-family="Helvetica,sans-Serif" font-size="10.00">cppgc::internal::BasicPersistent</text>
<text text-anchor="middle" x="76" y="-13.5" font-family="Helvetica,sans-Serif" font-size="10.00">::operator=</text>
</a>
</g>
</g>
<!-- Node6&#45;&gt;Node8 -->
<g id="edge8" class="edge">
<title>Node6&#45;&gt;Node8</title>
<path fill="none" stroke="midnightblue" d="M182.79,-42.78C172.56,-40.72 162.05,-38.6 151.8,-36.54"/>
<polygon fill="midnightblue" stroke="midnightblue" points="182.4,-46.27 192.89,-44.81 183.78,-39.4 182.4,-46.27"/>
</g>
</g>
</svg>
