<?xml version="1.0" encoding="UTF-8" standalone="no"?>
<!DOCTYPE svg PUBLIC "-//W3C//DTD SVG 1.1//EN"
 "http://www.w3.org/Graphics/SVG/1.1/DTD/svg11.dtd">
<!-- Generated by graphviz version 2.49.3 (20211027.1534)
 -->
<!-- Title: cppgc::internal::BasicMember::operator= Pages: 1 -->
<svg width="528pt" height="83pt"
 viewBox="0.00 0.00 528.00 83.00" xmlns="http://www.w3.org/2000/svg" xmlns:xlink="http://www.w3.org/1999/xlink">
<g id="graph0" class="graph" transform="scale(1 1) rotate(0) translate(4 79)">
<title>cppgc::internal::BasicMember::operator=</title>
<polygon fill="white" stroke="transparent" points="-4,4 -4,-79 524,-79 524,4 -4,4"/>
<!-- Node1 -->
<g id="node1" class="node">
<title>Node1</title>
<g id="a_node1"><a xlink:title=" ">
<polygon fill="#bfbfbf" stroke="black" points="0,-22.5 0,-52.5 143,-52.5 143,-22.5 0,-22.5"/>
<text text-anchor="start" x="8" y="-40.5" font-family="Helvetica,sans-Serif" font-size="10.00">cppgc::internal::BasicMember</text>
<text text-anchor="middle" x="71.5" y="-29.5" font-family="Helvetica,sans-Serif" font-size="10.00">::operator=</text>
</a>
</g>
</g>
<!-- Node2 -->
<g id="node2" class="node">
<title>Node2</title>
<g id="a_node2"><a xlink:href="classcppgc_1_1internal_1_1BasicMember.html#ab047f8c2b8c817aca366ed03456f8f69" target="_top" xlink:title=" ">
<polygon fill="white" stroke="black" points="179,-50 179,-69 343,-69 343,-50 179,-50"/>
<text text-anchor="middle" x="261" y="-57" font-family="Helvetica,sans-Serif" font-size="10.00">cppgc::internal::BasicMember::Get</text>
</a>
</g>
</g>
<!-- Node1&#45;&gt;Node2 -->
<g id="edge1" class="edge">
<title>Node1&#45;&gt;Node2</title>
<path fill="none" stroke="midnightblue" d="M143.12,-45.79C151.48,-46.77 160.09,-47.78 168.68,-48.79"/>
<polygon fill="midnightblue" stroke="midnightblue" points="168.4,-52.28 178.74,-49.97 169.22,-45.32 168.4,-52.28"/>
</g>
<!-- Node4 -->
<g id="node4" class="node">
<title>Node4</title>
<g id="a_node4"><a xlink:href="classcppgc_1_1internal_1_1MemberBase.html#aa3ea6e0226ebea233bd565a6b45b8a85" target="_top" xlink:title=" ">
<polygon fill="white" stroke="black" points="190.5,-0.5 190.5,-30.5 331.5,-30.5 331.5,-0.5 190.5,-0.5"/>
<text text-anchor="start" x="198.5" y="-18.5" font-family="Helvetica,sans-Serif" font-size="10.00">cppgc::internal::MemberBase</text>
<text text-anchor="middle" x="261" y="-7.5" font-family="Helvetica,sans-Serif" font-size="10.00">::SetRawAtomic</text>
</a>
</g>
</g>
<!-- Node1&#45;&gt;Node4 -->
<g id="edge3" class="edge">
<title>Node1&#45;&gt;Node4</title>
<path fill="none" stroke="midnightblue" d="M143.12,-29.21C155.2,-27.8 167.83,-26.31 180.14,-24.87"/>
<polygon fill="midnightblue" stroke="midnightblue" points="180.85,-28.31 190.38,-23.67 180.04,-21.36 180.85,-28.31"/>
</g>
<!-- Node3 -->
<g id="node3" class="node">
<title>Node3</title>
<g id="a_node3"><a xlink:href="classcppgc_1_1internal_1_1MemberBase.html#ad4275a6233075fa19a5e311aadca9e35" target="_top" xlink:title=" ">
<polygon fill="white" stroke="black" points="379,-44.5 379,-74.5 520,-74.5 520,-44.5 379,-44.5"/>
<text text-anchor="start" x="387" y="-62.5" font-family="Helvetica,sans-Serif" font-size="10.00">cppgc::internal::MemberBase</text>
<text text-anchor="middle" x="449.5" y="-51.5" font-family="Helvetica,sans-Serif" font-size="10.00">::GetRaw</text>
</a>
</g>
</g>
<!-- Node2&#45;&gt;Node3 -->
<g id="edge2" class="edge">
<title>Node2&#45;&gt;Node3</title>
<path fill="none" stroke="midnightblue" d="M343.26,-59.5C351.7,-59.5 360.28,-59.5 368.71,-59.5"/>
<polygon fill="midnightblue" stroke="midnightblue" points="368.89,-63 378.89,-59.5 368.89,-56 368.89,-63"/>
</g>
</g>
</svg>
