<?xml version="1.0" encoding="UTF-8" standalone="no"?>
<!DOCTYPE svg PUBLIC "-//W3C//DTD SVG 1.1//EN"
 "http://www.w3.org/Graphics/SVG/1.1/DTD/svg11.dtd">
<!-- Generated by graphviz version 2.49.3 (20211027.1534)
 -->
<!-- Title: v8::CTypeInfo::IsIntegralType Pages: 1 -->
<svg width="455pt" height="53pt"
 viewBox="0.00 0.00 455.00 52.50" xmlns="http://www.w3.org/2000/svg" xmlns:xlink="http://www.w3.org/1999/xlink">
<g id="graph0" class="graph" transform="scale(1 1) rotate(0) translate(4 48.5)">
<title>v8::CTypeInfo::IsIntegralType</title>
<polygon fill="white" stroke="transparent" points="-4,4 -4,-48.5 451,-48.5 451,4 -4,4"/>
<!-- Node1 -->
<g id="node1" class="node">
<title>Node1</title>
<g id="a_node1"><a xlink:title=" ">
<polygon fill="#bfbfbf" stroke="black" points="305,-19.5 305,-38.5 447,-38.5 447,-19.5 305,-19.5"/>
<text text-anchor="middle" x="376" y="-26.5" font-family="Helvetica,sans-Serif" font-size="10.00">v8::CTypeInfo::IsIntegralType</text>
</a>
</g>
</g>
<!-- Node2 -->
<g id="node2" class="node">
<title>Node2</title>
<g id="a_node2"><a xlink:href="classv8_1_1CTypeInfoBuilder.html#a11f3778a80acd4ed63809d73b9898e6e" target="_top" xlink:title=" ">
<polygon fill="white" stroke="black" points="0,-14 0,-44 106,-44 106,-14 0,-14"/>
<text text-anchor="start" x="8" y="-32" font-family="Helvetica,sans-Serif" font-size="10.00">v8::CTypeInfoBuilder</text>
<text text-anchor="middle" x="53" y="-21" font-family="Helvetica,sans-Serif" font-size="10.00">::Build</text>
</a>
</g>
</g>
<!-- Node1&#45;&gt;Node2 -->
<g id="edge1" class="edge">
<title>Node1&#45;&gt;Node2</title>
<path fill="none" stroke="midnightblue" d="M294.93,-29C236.02,-29 157.61,-29 106.48,-29"/>
<polygon fill="midnightblue" stroke="midnightblue" points="294.95,-32.5 304.95,-29 294.95,-25.5 294.95,-32.5"/>
</g>
<!-- Node3 -->
<g id="node3" class="node">
<title>Node3</title>
<g id="a_node3"><a xlink:href="classv8_1_1CTypeInfo.html#a522fe508ddc987381e5756cfb3ff55f6" target="_top" xlink:title=" ">
<polygon fill="white" stroke="black" points="142,-0.5 142,-19.5 269,-19.5 269,-0.5 142,-0.5"/>
<text text-anchor="middle" x="205.5" y="-7.5" font-family="Helvetica,sans-Serif" font-size="10.00">v8::CTypeInfo::IsPrimitive</text>
</a>
</g>
</g>
<!-- Node1&#45;&gt;Node3 -->
<g id="edge2" class="edge">
<title>Node1&#45;&gt;Node3</title>
<path fill="none" stroke="midnightblue" d="M294.56,-19.93C286.04,-18.97 277.47,-18 269.19,-17.07"/>
<polygon fill="midnightblue" stroke="midnightblue" points="294.19,-23.41 304.52,-21.05 294.97,-16.45 294.19,-23.41"/>
</g>
<!-- Node3&#45;&gt;Node2 -->
<g id="edge3" class="edge">
<title>Node3&#45;&gt;Node2</title>
<path fill="none" stroke="midnightblue" d="M131.82,-19.18C123.12,-20.27 114.38,-21.38 106.05,-22.43"/>
<polygon fill="midnightblue" stroke="midnightblue" points="132.5,-22.62 141.98,-17.89 131.62,-15.67 132.5,-22.62"/>
</g>
</g>
</svg>
