<?xml version="1.0" encoding="UTF-8" standalone="no"?>
<!DOCTYPE svg PUBLIC "-//W3C//DTD SVG 1.1//EN"
 "http://www.w3.org/Graphics/SVG/1.1/DTD/svg11.dtd">
<!-- Generated by graphviz version 2.49.3 (20211027.1534)
 -->
<!-- Title: v8::internal::PerformCastCheck Pages: 1 -->
<svg width="294pt" height="124pt"
 viewBox="0.00 0.00 294.00 124.00" xmlns="http://www.w3.org/2000/svg" xmlns:xlink="http://www.w3.org/1999/xlink">
<g id="graph0" class="graph" transform="scale(1 1) rotate(0) translate(4 120)">
<title>v8::internal::PerformCastCheck</title>
<polygon fill="white" stroke="transparent" points="-4,4 -4,-120 290,-120 290,4 -4,4"/>
<!-- Node1 -->
<g id="node1" class="node">
<title>Node1</title>
<g id="a_node1"><a xlink:title=" ">
<polygon fill="#bfbfbf" stroke="black" points="164,-33.5 164,-63.5 286,-63.5 286,-33.5 164,-33.5"/>
<text text-anchor="start" x="172" y="-51.5" font-family="Helvetica,sans-Serif" font-size="10.00">v8::internal::PerformCast</text>
<text text-anchor="middle" x="225" y="-40.5" font-family="Helvetica,sans-Serif" font-size="10.00">Check</text>
</a>
</g>
</g>
<!-- Node2 -->
<g id="node2" class="node">
<title>Node2</title>
<g id="a_node2"><a xlink:href="classv8_1_1Context.html#a838f3d0ad78ad718e50aa2321733365e" target="_top" xlink:title=" ">
<polygon fill="white" stroke="black" points="0,-67.5 0,-97.5 128,-97.5 128,-67.5 0,-67.5"/>
<text text-anchor="start" x="8" y="-85.5" font-family="Helvetica,sans-Serif" font-size="10.00">v8::Context::GetDataFrom</text>
<text text-anchor="middle" x="64" y="-74.5" font-family="Helvetica,sans-Serif" font-size="10.00">SnapshotOnce</text>
</a>
</g>
</g>
<!-- Node1&#45;&gt;Node2 -->
<g id="edge1" class="edge">
<title>Node1&#45;&gt;Node2</title>
<path fill="none" stroke="midnightblue" d="M153.9,-63.49C145.32,-65.33 136.58,-67.19 128.11,-69"/>
<polygon fill="midnightblue" stroke="midnightblue" points="154.84,-66.87 163.89,-61.35 153.38,-60.02 154.84,-66.87"/>
</g>
<!-- Node3 -->
<g id="node3" class="node">
<title>Node3</title>
<g id="a_node3"><a xlink:href="classv8_1_1Isolate.html#af1110b08927c80c606798dabea52dd6e" target="_top" xlink:title=" ">
<polygon fill="white" stroke="black" points="2,-0.5 2,-30.5 126,-30.5 126,-0.5 2,-0.5"/>
<text text-anchor="start" x="10" y="-18.5" font-family="Helvetica,sans-Serif" font-size="10.00">v8::Isolate::GetDataFrom</text>
<text text-anchor="middle" x="64" y="-7.5" font-family="Helvetica,sans-Serif" font-size="10.00">SnapshotOnce</text>
</a>
</g>
</g>
<!-- Node1&#45;&gt;Node3 -->
<g id="edge3" class="edge">
<title>Node1&#45;&gt;Node3</title>
<path fill="none" stroke="midnightblue" d="M153.96,-33.96C144.73,-32.05 135.32,-30.1 126.25,-28.21"/>
<polygon fill="midnightblue" stroke="midnightblue" points="153.39,-37.42 163.89,-36.02 154.81,-30.56 153.39,-37.42"/>
</g>
<!-- Node2&#45;&gt;Node2 -->
<g id="edge2" class="edge">
<title>Node2&#45;&gt;Node2</title>
<path fill="none" stroke="midnightblue" d="M92.43,-107.96C88.9,-112.68 79.42,-116 64,-116 38.69,-116 29.39,-107.06 36.12,-97.66"/>
<polygon fill="midnightblue" stroke="midnightblue" points="95.91,-107.46 91.88,-97.66 88.92,-107.83 95.91,-107.46"/>
</g>
<!-- Node3&#45;&gt;Node3 -->
<g id="edge4" class="edge">
<title>Node3&#45;&gt;Node3</title>
<path fill="none" stroke="midnightblue" d="M92.43,-40.96C88.9,-45.68 79.42,-49 64,-49 38.69,-49 29.39,-40.06 36.12,-30.66"/>
<polygon fill="midnightblue" stroke="midnightblue" points="95.91,-40.46 91.88,-30.66 88.92,-40.83 95.91,-40.46"/>
</g>
</g>
</svg>
