<?xml version="1.0" encoding="UTF-8" standalone="no"?>
<!DOCTYPE svg PUBLIC "-//W3C//DTD SVG 1.1//EN"
 "http://www.w3.org/Graphics/SVG/1.1/DTD/svg11.dtd">
<!-- Generated by graphviz version 2.49.3 (20211027.1534)
 -->
<!-- Title: v8::internal::count&lt; T, U, Args... &gt; Pages: 1 -->
<svg width="171pt" height="253pt"
 viewBox="0.00 0.00 170.50 253.00" xmlns="http://www.w3.org/2000/svg" xmlns:xlink="http://www.w3.org/1999/xlink">
<g id="graph0" class="graph" transform="scale(1 1) rotate(0) translate(4 249)">
<title>v8::internal::count&lt; T, U, Args... &gt;</title>
<polygon fill="white" stroke="transparent" points="-4,4 -4,-249 166.5,-249 166.5,4 -4,4"/>
<!-- Node1 -->
<g id="node1" class="node">
<title>Node1</title>
<g id="a_node1"><a xlink:title=" ">
<polygon fill="#bfbfbf" stroke="black" points="12.5,-0.5 12.5,-30.5 104.5,-30.5 104.5,-0.5 12.5,-0.5"/>
<text text-anchor="start" x="20.5" y="-18.5" font-family="Helvetica,sans-Serif" font-size="10.00">v8::internal::count</text>
<text text-anchor="middle" x="58.5" y="-7.5" font-family="Helvetica,sans-Serif" font-size="10.00">&lt; T, U, Args... &gt;</text>
</a>
</g>
</g>
<!-- Node2 -->
<g id="node2" class="node">
<title>Node2</title>
<g id="a_node2"><a xlink:href="structv8_1_1internal_1_1count.html" target="_top" xlink:title=" ">
<polygon fill="white" stroke="black" points="12.5,-68.5 12.5,-98.5 104.5,-98.5 104.5,-68.5 12.5,-68.5"/>
<text text-anchor="start" x="20.5" y="-86.5" font-family="Helvetica,sans-Serif" font-size="10.00">v8::internal::count</text>
<text text-anchor="middle" x="58.5" y="-75.5" font-family="Helvetica,sans-Serif" font-size="10.00">&lt; T, Args... &gt;</text>
</a>
</g>
</g>
<!-- Node2&#45;&gt;Node1 -->
<g id="edge1" class="edge">
<title>Node2&#45;&gt;Node1</title>
<path fill="none" stroke="midnightblue" d="M58.5,-58.03C58.5,-48.86 58.5,-38.74 58.5,-30.79"/>
<polygon fill="midnightblue" stroke="midnightblue" points="55,-58.18 58.5,-68.18 62,-58.18 55,-58.18"/>
</g>
<!-- Node3 -->
<g id="node3" class="node">
<title>Node3</title>
<g id="a_node3"><a xlink:title=" ">
<polygon fill="white" stroke="#bfbfbf" points="0,-214.5 0,-244.5 109,-244.5 109,-214.5 0,-214.5"/>
<text text-anchor="start" x="8" y="-232.5" font-family="Helvetica,sans-Serif" font-size="10.00">std::integral_constant</text>
<text text-anchor="middle" x="54.5" y="-221.5" font-family="Helvetica,sans-Serif" font-size="10.00">&lt; int, 0 &gt;</text>
</a>
</g>
</g>
<!-- Node3&#45;&gt;Node2 -->
<g id="edge2" class="edge">
<title>Node3&#45;&gt;Node2</title>
<path fill="none" stroke="midnightblue" d="M55.17,-204.32C56.01,-174.14 57.42,-123.49 58.1,-98.84"/>
<polygon fill="midnightblue" stroke="midnightblue" points="51.67,-204.34 54.89,-214.43 58.67,-204.53 51.67,-204.34"/>
</g>
<!-- Node4 -->
<g id="node4" class="node">
<title>Node4</title>
<g id="a_node4"><a xlink:href="structv8_1_1internal_1_1count.html" target="_top" xlink:title=" ">
<polygon fill="white" stroke="black" points="70.5,-146.5 70.5,-176.5 162.5,-176.5 162.5,-146.5 70.5,-146.5"/>
<text text-anchor="start" x="78.5" y="-164.5" font-family="Helvetica,sans-Serif" font-size="10.00">v8::internal::count</text>
<text text-anchor="middle" x="116.5" y="-153.5" font-family="Helvetica,sans-Serif" font-size="10.00">&lt; T, List &gt;</text>
</a>
</g>
</g>
<!-- Node3&#45;&gt;Node4 -->
<g id="edge4" class="edge">
<title>Node3&#45;&gt;Node4</title>
<path fill="none" stroke="midnightblue" d="M74.98,-206.69C84.22,-196.86 94.87,-185.52 103.07,-176.79"/>
<polygon fill="midnightblue" stroke="midnightblue" points="72.25,-204.49 67.95,-214.18 77.35,-209.29 72.25,-204.49"/>
</g>
<!-- Node4&#45;&gt;Node2 -->
<g id="edge3" class="edge">
<title>Node4&#45;&gt;Node2</title>
<path fill="none" stroke="orange" stroke-dasharray="5,2" d="M99.28,-137.94C89.59,-125.23 77.77,-109.75 69.36,-98.73"/>
<polygon fill="orange" stroke="orange" points="96.74,-140.38 105.59,-146.2 102.31,-136.13 96.74,-140.38"/>
<text text-anchor="middle" x="119.5" y="-120" font-family="Helvetica,sans-Serif" font-size="10.00"> &lt; T, Args... &gt;</text>
</g>
</g>
</svg>
