<?xml version="1.0" encoding="UTF-8" standalone="no"?>
<!DOCTYPE svg PUBLIC "-//W3C//DTD SVG 1.1//EN"
 "http://www.w3.org/Graphics/SVG/1.1/DTD/svg11.dtd">
<!-- Generated by graphviz version 2.49.3 (20211027.1534)
 -->
<!-- Title: include/cppgc/trace&#45;trait.h Pages: 1 -->
<svg width="852pt" height="564pt"
 viewBox="0.00 0.00 852.00 564.00" xmlns="http://www.w3.org/2000/svg" xmlns:xlink="http://www.w3.org/1999/xlink">
<g id="graph0" class="graph" transform="scale(1 1) rotate(0) translate(4 560)">
<title>include/cppgc/trace&#45;trait.h</title>
<polygon fill="white" stroke="transparent" points="-4,4 -4,-560 848,-560 848,4 -4,4"/>
<!-- Node1 -->
<g id="node1" class="node">
<title>Node1</title>
<g id="a_node1"><a xlink:title=" ">
<polygon fill="#bfbfbf" stroke="black" points="454.5,-525.5 454.5,-555.5 555.5,-555.5 555.5,-525.5 454.5,-525.5"/>
<text text-anchor="start" x="462.5" y="-543.5" font-family="Helvetica,sans-Serif" font-size="10.00">include/cppgc/trace</text>
<text text-anchor="middle" x="505" y="-532.5" font-family="Helvetica,sans-Serif" font-size="10.00">&#45;trait.h</text>
</a>
</g>
</g>
<!-- Node2 -->
<g id="node2" class="node">
<title>Node2</title>
<g id="a_node2"><a xlink:href="garbage-collected_8h.html" target="_top" xlink:title=" ">
<polygon fill="white" stroke="black" points="0,-257.5 0,-287.5 114,-287.5 114,-257.5 0,-257.5"/>
<text text-anchor="start" x="8" y="-275.5" font-family="Helvetica,sans-Serif" font-size="10.00">include/cppgc/garbage</text>
<text text-anchor="middle" x="57" y="-264.5" font-family="Helvetica,sans-Serif" font-size="10.00">&#45;collected.h</text>
</a>
</g>
</g>
<!-- Node1&#45;&gt;Node2 -->
<g id="edge1" class="edge">
<title>Node1&#45;&gt;Node2</title>
<path fill="none" stroke="midnightblue" d="M443.93,-538.98C349.7,-536.95 174.83,-527.88 128,-489 64.81,-436.54 57.45,-326.58 56.9,-287.59"/>
<polygon fill="midnightblue" stroke="midnightblue" points="444.1,-542.49 454.17,-539.18 444.24,-535.49 444.1,-542.49"/>
</g>
<!-- Node3 -->
<g id="node3" class="node">
<title>Node3</title>
<g id="a_node3"><a xlink:href="visitor_8h.html" target="_top" xlink:title=" ">
<polygon fill="white" stroke="black" points="232.5,-129 232.5,-148 345.5,-148 345.5,-129 232.5,-129"/>
<text text-anchor="middle" x="289" y="-136" font-family="Helvetica,sans-Serif" font-size="10.00">include/cppgc/visitor.h</text>
</a>
</g>
</g>
<!-- Node1&#45;&gt;Node3 -->
<g id="edge31" class="edge">
<title>Node1&#45;&gt;Node3</title>
<path fill="none" stroke="midnightblue" d="M444.15,-530.25C340.78,-512.81 142,-471.02 142,-407.5 142,-407.5 142,-407.5 142,-271.5 142,-205.99 223.83,-164.75 265.38,-148.04"/>
<polygon fill="midnightblue" stroke="midnightblue" points="443.71,-533.73 454.14,-531.91 444.85,-526.82 443.71,-533.73"/>
</g>
<!-- Node7 -->
<g id="node7" class="node">
<title>Node7</title>
<g id="a_node7"><a xlink:href="heap-consistency_8h.html" target="_top" xlink:title=" ">
<polygon fill="white" stroke="black" points="558.5,-391.5 558.5,-421.5 659.5,-421.5 659.5,-391.5 558.5,-391.5"/>
<text text-anchor="start" x="566.5" y="-409.5" font-family="Helvetica,sans-Serif" font-size="10.00">include/cppgc/heap</text>
<text text-anchor="middle" x="609" y="-398.5" font-family="Helvetica,sans-Serif" font-size="10.00">&#45;consistency.h</text>
</a>
</g>
</g>
<!-- Node1&#45;&gt;Node7 -->
<g id="edge7" class="edge">
<title>Node1&#45;&gt;Node7</title>
<path fill="none" stroke="midnightblue" d="M535.98,-519.44C547.36,-511.01 559.72,-500.49 569,-489 585.94,-468.03 598.09,-438.71 604.3,-421.55"/>
<polygon fill="midnightblue" stroke="midnightblue" points="533.65,-516.8 527.54,-525.45 537.72,-522.5 533.65,-516.8"/>
</g>
<!-- Node8 -->
<g id="node8" class="node">
<title>Node8</title>
<g id="a_node8"><a xlink:href="gc-info_8h.html" target="_top" xlink:title=" ">
<polygon fill="white" stroke="black" points="720.5,-458.5 720.5,-488.5 831.5,-488.5 831.5,-458.5 720.5,-458.5"/>
<text text-anchor="start" x="728.5" y="-476.5" font-family="Helvetica,sans-Serif" font-size="10.00">include/cppgc/internal</text>
<text text-anchor="middle" x="776" y="-465.5" font-family="Helvetica,sans-Serif" font-size="10.00">/gc&#45;info.h</text>
</a>
</g>
</g>
<!-- Node1&#45;&gt;Node8 -->
<g id="edge8" class="edge">
<title>Node1&#45;&gt;Node8</title>
<path fill="none" stroke="midnightblue" d="M565.57,-524.97C611.94,-513.85 675.39,-498.63 720.46,-487.82"/>
<polygon fill="midnightblue" stroke="midnightblue" points="564.56,-521.61 555.66,-527.35 566.2,-528.42 564.56,-521.61"/>
</g>
<!-- Node11 -->
<g id="node11" class="node">
<title>Node11</title>
<g id="a_node11"><a xlink:href="persistent-node_8h.html" target="_top" xlink:title=" ">
<polygon fill="white" stroke="black" points="674.5,-123.5 674.5,-153.5 785.5,-153.5 785.5,-123.5 674.5,-123.5"/>
<text text-anchor="start" x="682.5" y="-141.5" font-family="Helvetica,sans-Serif" font-size="10.00">include/cppgc/internal</text>
<text text-anchor="middle" x="730" y="-130.5" font-family="Helvetica,sans-Serif" font-size="10.00">/persistent&#45;node.h</text>
</a>
</g>
</g>
<!-- Node1&#45;&gt;Node11 -->
<g id="edge11" class="edge">
<title>Node1&#45;&gt;Node11</title>
<path fill="none" stroke="midnightblue" d="M565.72,-523.21C618.98,-504.81 688,-469.09 688,-407.5 688,-407.5 688,-407.5 688,-271.5 688,-226.77 710.17,-177.36 722.3,-153.68"/>
<polygon fill="midnightblue" stroke="midnightblue" points="564.36,-519.98 555.98,-526.45 566.57,-526.62 564.36,-519.98"/>
</g>
<!-- Node12 -->
<g id="node12" class="node">
<title>Node12</title>
<g id="a_node12"><a xlink:href="write-barrier_8h.html" target="_top" xlink:title=" ">
<polygon fill="white" stroke="black" points="449.5,-458.5 449.5,-488.5 560.5,-488.5 560.5,-458.5 449.5,-458.5"/>
<text text-anchor="start" x="457.5" y="-476.5" font-family="Helvetica,sans-Serif" font-size="10.00">include/cppgc/internal</text>
<text text-anchor="middle" x="505" y="-465.5" font-family="Helvetica,sans-Serif" font-size="10.00">/write&#45;barrier.h</text>
</a>
</g>
</g>
<!-- Node1&#45;&gt;Node12 -->
<g id="edge14" class="edge">
<title>Node1&#45;&gt;Node12</title>
<path fill="none" stroke="midnightblue" d="M505,-515.11C505,-506.15 505,-496.32 505,-488.58"/>
<polygon fill="midnightblue" stroke="midnightblue" points="501.5,-515.4 505,-525.4 508.5,-515.4 501.5,-515.4"/>
</g>
<!-- Node16 -->
<g id="node16" class="node">
<title>Node16</title>
<g id="a_node16"><a xlink:href="liveness-broker_8h.html" target="_top" xlink:title=" ">
<polygon fill="white" stroke="black" points="344,-257.5 344,-287.5 460,-287.5 460,-257.5 344,-257.5"/>
<text text-anchor="start" x="352" y="-275.5" font-family="Helvetica,sans-Serif" font-size="10.00">include/cppgc/liveness</text>
<text text-anchor="middle" x="402" y="-264.5" font-family="Helvetica,sans-Serif" font-size="10.00">&#45;broker.h</text>
</a>
</g>
</g>
<!-- Node1&#45;&gt;Node16 -->
<g id="edge30" class="edge">
<title>Node1&#45;&gt;Node16</title>
<path fill="none" stroke="midnightblue" d="M471.4,-519.53C460.04,-511.33 448.17,-500.93 440,-489 395.8,-424.42 398.13,-324.23 400.72,-287.56"/>
<polygon fill="midnightblue" stroke="midnightblue" points="469.7,-522.6 479.93,-525.36 473.65,-516.83 469.7,-522.6"/>
</g>
<!-- Node2&#45;&gt;Node3 -->
<g id="edge2" class="edge">
<title>Node2&#45;&gt;Node3</title>
<path fill="none" stroke="midnightblue" d="M71.44,-248.9C84.24,-230.58 104.51,-205.36 128,-190 161.35,-168.2 204.7,-155.31 238.02,-148.01"/>
<polygon fill="midnightblue" stroke="midnightblue" points="68.48,-247.03 65.78,-257.27 74.28,-250.95 68.48,-247.03"/>
</g>
<!-- Node4 -->
<g id="node4" class="node">
<title>Node4</title>
<g id="a_node4"><a xlink:href="cross-thread-persistent_8h.html" target="_top" xlink:title=" ">
<polygon fill="white" stroke="black" points="547,-0.5 547,-30.5 651,-30.5 651,-0.5 547,-0.5"/>
<text text-anchor="start" x="555" y="-18.5" font-family="Helvetica,sans-Serif" font-size="10.00">include/cppgc/cross</text>
<text text-anchor="middle" x="599" y="-7.5" font-family="Helvetica,sans-Serif" font-size="10.00">&#45;thread&#45;persistent.h</text>
</a>
</g>
</g>
<!-- Node3&#45;&gt;Node4 -->
<g id="edge3" class="edge">
<title>Node3&#45;&gt;Node4</title>
<path fill="none" stroke="midnightblue" d="M288.83,-118.25C289.78,-102.19 293.83,-79.93 308,-67 342.18,-35.81 472.83,-23.5 546.92,-18.95"/>
<polygon fill="midnightblue" stroke="midnightblue" points="285.32,-118.54 288.58,-128.62 292.32,-118.7 285.32,-118.54"/>
</g>
<!-- Node5 -->
<g id="node5" class="node">
<title>Node5</title>
<g id="a_node5"><a xlink:href="persistent_8h.html" target="_top" xlink:title=" ">
<polygon fill="white" stroke="black" points="488,-67.5 488,-86.5 618,-86.5 618,-67.5 488,-67.5"/>
<text text-anchor="middle" x="553" y="-74.5" font-family="Helvetica,sans-Serif" font-size="10.00">include/cppgc/persistent.h</text>
</a>
</g>
</g>
<!-- Node3&#45;&gt;Node5 -->
<g id="edge4" class="edge">
<title>Node3&#45;&gt;Node5</title>
<path fill="none" stroke="midnightblue" d="M336.66,-126.76C387.87,-115.22 468.23,-97.11 515.25,-86.51"/>
<polygon fill="midnightblue" stroke="midnightblue" points="335.81,-123.36 326.82,-128.98 337.35,-130.19 335.81,-123.36"/>
</g>
<!-- Node6 -->
<g id="node6" class="node">
<title>Node6</title>
<g id="a_node6"><a xlink:href="v8-cppgc_8h.html" target="_top" xlink:title=" ">
<polygon fill="white" stroke="black" points="317,-67.5 317,-86.5 415,-86.5 415,-67.5 317,-67.5"/>
<text text-anchor="middle" x="366" y="-74.5" font-family="Helvetica,sans-Serif" font-size="10.00">include/v8&#45;cppgc.h</text>
</a>
</g>
</g>
<!-- Node3&#45;&gt;Node6 -->
<g id="edge6" class="edge">
<title>Node3&#45;&gt;Node6</title>
<path fill="none" stroke="midnightblue" d="M308.03,-122.79C322.8,-111.38 342.76,-95.96 354.99,-86.51"/>
<polygon fill="midnightblue" stroke="midnightblue" points="305.81,-120.09 300.03,-128.98 310.09,-125.63 305.81,-120.09"/>
</g>
<!-- Node5&#45;&gt;Node4 -->
<g id="edge5" class="edge">
<title>Node5&#45;&gt;Node4</title>
<path fill="none" stroke="midnightblue" d="M565.73,-59.53C572.78,-50.42 581.44,-39.21 588.16,-30.52"/>
<polygon fill="midnightblue" stroke="midnightblue" points="562.94,-57.42 559.59,-67.48 568.48,-61.7 562.94,-57.42"/>
</g>
<!-- Node9 -->
<g id="node9" class="node">
<title>Node9</title>
<g id="a_node9"><a xlink:href="allocation_8h.html" target="_top" xlink:title=" ">
<polygon fill="white" stroke="black" points="716,-397 716,-416 844,-416 844,-397 716,-397"/>
<text text-anchor="middle" x="780" y="-404" font-family="Helvetica,sans-Serif" font-size="10.00">include/cppgc/allocation.h</text>
</a>
</g>
</g>
<!-- Node8&#45;&gt;Node9 -->
<g id="edge9" class="edge">
<title>Node8&#45;&gt;Node9</title>
<path fill="none" stroke="midnightblue" d="M777.49,-448.25C778.18,-437.02 778.96,-424.38 779.46,-416.19"/>
<polygon fill="midnightblue" stroke="midnightblue" points="773.99,-448.2 776.87,-458.4 780.98,-448.63 773.99,-448.2"/>
</g>
<!-- Node10 -->
<g id="node10" class="node">
<title>Node10</title>
<g id="a_node10"><a xlink:href="explicit-management_8h.html" target="_top" xlink:title=" ">
<polygon fill="white" stroke="black" points="725,-324.5 725,-354.5 835,-354.5 835,-324.5 725,-324.5"/>
<text text-anchor="start" x="733" y="-342.5" font-family="Helvetica,sans-Serif" font-size="10.00">include/cppgc/explicit</text>
<text text-anchor="middle" x="780" y="-331.5" font-family="Helvetica,sans-Serif" font-size="10.00">&#45;management.h</text>
</a>
</g>
</g>
<!-- Node9&#45;&gt;Node10 -->
<g id="edge10" class="edge">
<title>Node9&#45;&gt;Node10</title>
<path fill="none" stroke="midnightblue" d="M780,-386.41C780,-376.22 780,-363.9 780,-354.59"/>
<polygon fill="midnightblue" stroke="midnightblue" points="776.5,-386.73 780,-396.73 783.5,-386.73 776.5,-386.73"/>
</g>
<!-- Node11&#45;&gt;Node4 -->
<g id="edge12" class="edge">
<title>Node11&#45;&gt;Node4</title>
<path fill="none" stroke="midnightblue" d="M709.65,-115.93C695.95,-101.69 677.3,-82.8 660,-67 645.99,-54.2 629.36,-40.53 617,-30.64"/>
<polygon fill="midnightblue" stroke="midnightblue" points="707.27,-118.51 716.71,-123.32 712.33,-113.67 707.27,-118.51"/>
</g>
<!-- Node11&#45;&gt;Node5 -->
<g id="edge13" class="edge">
<title>Node11&#45;&gt;Node5</title>
<path fill="none" stroke="midnightblue" d="M678.17,-120.08C645.38,-109.05 604.44,-95.29 578.5,-86.57"/>
<polygon fill="midnightblue" stroke="midnightblue" points="677.46,-123.53 688.05,-123.4 679.69,-116.9 677.46,-123.53"/>
</g>
<!-- Node12&#45;&gt;Node7 -->
<g id="edge15" class="edge">
<title>Node12&#45;&gt;Node7</title>
<path fill="none" stroke="midnightblue" d="M536.18,-453.02C552.36,-442.9 571.77,-430.77 586.48,-421.58"/>
<polygon fill="midnightblue" stroke="midnightblue" points="534.19,-450.13 527.57,-458.4 537.9,-456.06 534.19,-450.13"/>
</g>
<!-- Node13 -->
<g id="node13" class="node">
<title>Node13</title>
<g id="a_node13"><a xlink:href="pointer-policies_8h.html" target="_top" xlink:title=" ">
<polygon fill="white" stroke="black" points="429.5,-391.5 429.5,-421.5 540.5,-421.5 540.5,-391.5 429.5,-391.5"/>
<text text-anchor="start" x="437.5" y="-409.5" font-family="Helvetica,sans-Serif" font-size="10.00">include/cppgc/internal</text>
<text text-anchor="middle" x="485" y="-398.5" font-family="Helvetica,sans-Serif" font-size="10.00">/pointer&#45;policies.h</text>
</a>
</g>
</g>
<!-- Node12&#45;&gt;Node13 -->
<g id="edge16" class="edge">
<title>Node12&#45;&gt;Node13</title>
<path fill="none" stroke="midnightblue" d="M497.68,-448.7C494.87,-439.59 491.77,-429.49 489.33,-421.58"/>
<polygon fill="midnightblue" stroke="midnightblue" points="494.37,-449.87 500.66,-458.4 501.06,-447.81 494.37,-449.87"/>
</g>
<!-- Node13&#45;&gt;Node3 -->
<g id="edge29" class="edge">
<title>Node13&#45;&gt;Node3</title>
<path fill="none" stroke="midnightblue" d="M419.39,-400.64C355.31,-394.43 264.16,-381.18 241,-355 192.3,-299.95 199.27,-256.76 230,-190 238.74,-171.02 258.52,-156.51 272.78,-148.01"/>
<polygon fill="midnightblue" stroke="midnightblue" points="419.14,-404.14 429.42,-401.58 419.79,-397.17 419.14,-404.14"/>
</g>
<!-- Node13&#45;&gt;Node4 -->
<g id="edge17" class="edge">
<title>Node13&#45;&gt;Node4</title>
<path fill="none" stroke="midnightblue" d="M537.21,-387.6C584.22,-367.77 646,-330.82 646,-273.5 646,-273.5 646,-273.5 646,-137.5 646,-96.48 622.24,-52.63 608.51,-30.7"/>
<polygon fill="midnightblue" stroke="midnightblue" points="535.67,-384.45 527.72,-391.46 538.3,-390.93 535.67,-384.45"/>
</g>
<!-- Node13&#45;&gt;Node5 -->
<g id="edge28" class="edge">
<title>Node13&#45;&gt;Node5</title>
<path fill="none" stroke="midnightblue" d="M521.79,-386.18C558.03,-364.19 608,-324.61 608,-273.5 608,-273.5 608,-273.5 608,-204.5 608,-156.6 574.43,-106.34 559.74,-86.64"/>
<polygon fill="midnightblue" stroke="midnightblue" points="519.77,-383.31 512.91,-391.39 523.31,-389.35 519.77,-383.31"/>
</g>
<!-- Node14 -->
<g id="node14" class="node">
<title>Node14</title>
<g id="a_node14"><a xlink:href="member_8h.html" target="_top" xlink:title=" ">
<polygon fill="white" stroke="black" points="250,-330 250,-349 372,-349 372,-330 250,-330"/>
<text text-anchor="middle" x="311" y="-337" font-family="Helvetica,sans-Serif" font-size="10.00">include/cppgc/member.h</text>
</a>
</g>
</g>
<!-- Node13&#45;&gt;Node14 -->
<g id="edge18" class="edge">
<title>Node13&#45;&gt;Node14</title>
<path fill="none" stroke="midnightblue" d="M437.58,-387.78C403.84,-375.18 360.01,-358.81 333.77,-349.01"/>
<polygon fill="midnightblue" stroke="midnightblue" points="436.65,-391.18 447.24,-391.4 439.1,-384.62 436.65,-391.18"/>
</g>
<!-- Node14&#45;&gt;Node3 -->
<g id="edge27" class="edge">
<title>Node14&#45;&gt;Node3</title>
<path fill="none" stroke="midnightblue" d="M296.4,-322.15C278.34,-300.71 248.58,-261.1 237,-221 233.18,-207.76 231.63,-202.69 237,-190 244.65,-171.92 262.28,-157.12 274.89,-148.32"/>
<polygon fill="midnightblue" stroke="midnightblue" points="293.93,-324.64 303.12,-329.92 299.23,-320.07 293.93,-324.64"/>
</g>
<!-- Node15 -->
<g id="node15" class="node">
<title>Node15</title>
<g id="a_node15"><a xlink:href="ephemeron-pair_8h.html" target="_top" xlink:title=" ">
<polygon fill="white" stroke="black" points="246,-190.5 246,-220.5 374,-220.5 374,-190.5 246,-190.5"/>
<text text-anchor="start" x="254" y="-208.5" font-family="Helvetica,sans-Serif" font-size="10.00">include/cppgc/ephemeron</text>
<text text-anchor="middle" x="310" y="-197.5" font-family="Helvetica,sans-Serif" font-size="10.00">&#45;pair.h</text>
</a>
</g>
</g>
<!-- Node14&#45;&gt;Node15 -->
<g id="edge19" class="edge">
<title>Node14&#45;&gt;Node15</title>
<path fill="none" stroke="midnightblue" d="M310.86,-319.53C310.65,-292.81 310.29,-244.69 310.11,-220.78"/>
<polygon fill="midnightblue" stroke="midnightblue" points="307.36,-319.87 310.93,-329.84 314.36,-319.81 307.36,-319.87"/>
</g>
<!-- Node14&#45;&gt;Node16 -->
<g id="edge21" class="edge">
<title>Node14&#45;&gt;Node16</title>
<path fill="none" stroke="midnightblue" d="M331.51,-323.85C346.7,-313 367.28,-298.3 382.28,-287.59"/>
<polygon fill="midnightblue" stroke="midnightblue" points="329.38,-321.07 323.27,-329.73 333.44,-326.77 329.38,-321.07"/>
</g>
<!-- Node15&#45;&gt;Node3 -->
<g id="edge20" class="edge">
<title>Node15&#45;&gt;Node3</title>
<path fill="none" stroke="midnightblue" d="M302.28,-180.6C298.62,-169.28 294.48,-156.46 291.81,-148.19"/>
<polygon fill="midnightblue" stroke="midnightblue" points="299.04,-181.96 305.44,-190.4 305.7,-179.8 299.04,-181.96"/>
</g>
<!-- Node16&#45;&gt;Node3 -->
<g id="edge26" class="edge">
<title>Node16&#45;&gt;Node3</title>
<path fill="none" stroke="midnightblue" d="M401.53,-247.32C400.04,-229.81 395.58,-206.43 383,-190 366.9,-168.97 339.45,-155.67 318.36,-148.04"/>
<polygon fill="midnightblue" stroke="midnightblue" points="398.04,-247.56 402.11,-257.34 405.02,-247.16 398.04,-247.56"/>
</g>
<!-- Node16&#45;&gt;Node15 -->
<g id="edge22" class="edge">
<title>Node16&#45;&gt;Node15</title>
<path fill="none" stroke="midnightblue" d="M373.62,-251.45C359.47,-241.45 342.69,-229.6 329.92,-220.58"/>
<polygon fill="midnightblue" stroke="midnightblue" points="371.85,-254.48 382.04,-257.4 375.89,-248.77 371.85,-254.48"/>
</g>
<!-- Node17 -->
<g id="node17" class="node">
<title>Node17</title>
<g id="a_node17"><a xlink:href="prefinalizer-handler_8h.html" target="_top" xlink:title=" ">
<polygon fill="white" stroke="black" points="468.5,-190.5 468.5,-220.5 579.5,-220.5 579.5,-190.5 468.5,-190.5"/>
<text text-anchor="start" x="476.5" y="-208.5" font-family="Helvetica,sans-Serif" font-size="10.00">include/cppgc/internal</text>
<text text-anchor="middle" x="524" y="-197.5" font-family="Helvetica,sans-Serif" font-size="10.00">/prefinalizer&#45;handler.h</text>
</a>
</g>
</g>
<!-- Node16&#45;&gt;Node17 -->
<g id="edge23" class="edge">
<title>Node16&#45;&gt;Node17</title>
<path fill="none" stroke="midnightblue" d="M437.52,-252.57C456.71,-242.35 480,-229.94 497.58,-220.58"/>
<polygon fill="midnightblue" stroke="midnightblue" points="435.65,-249.6 428.47,-257.4 438.94,-255.78 435.65,-249.6"/>
</g>
<!-- Node18 -->
<g id="node18" class="node">
<title>Node18</title>
<g id="a_node18"><a xlink:href="prefinalizer_8h.html" target="_top" xlink:title=" ">
<polygon fill="white" stroke="black" points="394.5,-129 394.5,-148 527.5,-148 527.5,-129 394.5,-129"/>
<text text-anchor="middle" x="461" y="-136" font-family="Helvetica,sans-Serif" font-size="10.00">include/cppgc/prefinalizer.h</text>
</a>
</g>
</g>
<!-- Node16&#45;&gt;Node18 -->
<g id="edge25" class="edge">
<title>Node16&#45;&gt;Node18</title>
<path fill="none" stroke="midnightblue" d="M412.46,-248.1C425.8,-218.25 448.22,-168.08 457.16,-148.1"/>
<polygon fill="midnightblue" stroke="midnightblue" points="409.2,-246.82 408.31,-257.37 415.59,-249.67 409.2,-246.82"/>
</g>
<!-- Node17&#45;&gt;Node18 -->
<g id="edge24" class="edge">
<title>Node17&#45;&gt;Node18</title>
<path fill="none" stroke="midnightblue" d="M503.16,-183C491.66,-171.13 478.01,-157.05 469.43,-148.19"/>
<polygon fill="midnightblue" stroke="midnightblue" points="500.86,-185.65 510.33,-190.4 505.88,-180.78 500.86,-185.65"/>
</g>
</g>
</svg>
