<?xml version="1.0" encoding="UTF-8" standalone="no"?>
<!DOCTYPE svg PUBLIC "-//W3C//DTD SVG 1.1//EN"
 "http://www.w3.org/Graphics/SVG/1.1/DTD/svg11.dtd">
<!-- Generated by graphviz version 2.49.3 (20211027.1534)
 -->
<!-- Title: include/v8&#45;weak&#45;callback&#45;info.h Pages: 1 -->
<svg width="1410pt" height="475pt"
 viewBox="0.00 0.00 1409.72 475.00" xmlns="http://www.w3.org/2000/svg" xmlns:xlink="http://www.w3.org/1999/xlink">
<g id="graph0" class="graph" transform="scale(1 1) rotate(0) translate(4 471)">
<title>include/v8&#45;weak&#45;callback&#45;info.h</title>
<polygon fill="white" stroke="transparent" points="-4,4 -4,-471 1405.72,-471 1405.72,4 -4,4"/>
<!-- Node1 -->
<g id="node1" class="node">
<title>Node1</title>
<g id="a_node1"><a xlink:title=" ">
<polygon fill="#bfbfbf" stroke="black" points="503,-436.5 503,-466.5 629,-466.5 629,-436.5 503,-436.5"/>
<text text-anchor="start" x="511" y="-454.5" font-family="Helvetica,sans-Serif" font-size="10.00">include/v8&#45;weak&#45;callback</text>
<text text-anchor="middle" x="566" y="-443.5" font-family="Helvetica,sans-Serif" font-size="10.00">&#45;info.h</text>
</a>
</g>
</g>
<!-- Node2 -->
<g id="node2" class="node">
<title>Node2</title>
<g id="a_node2"><a xlink:href="v8-persistent-handle_8h.html" target="_top" xlink:title=" ">
<polygon fill="white" stroke="black" points="398.5,-369.5 398.5,-399.5 505.5,-399.5 505.5,-369.5 398.5,-369.5"/>
<text text-anchor="start" x="406.5" y="-387.5" font-family="Helvetica,sans-Serif" font-size="10.00">include/v8&#45;persistent</text>
<text text-anchor="middle" x="452" y="-376.5" font-family="Helvetica,sans-Serif" font-size="10.00">&#45;handle.h</text>
</a>
</g>
</g>
<!-- Node1&#45;&gt;Node2 -->
<g id="edge1" class="edge">
<title>Node1&#45;&gt;Node2</title>
<path fill="none" stroke="midnightblue" d="M532.32,-431.3C514.48,-421.12 492.96,-408.85 476.69,-399.58"/>
<polygon fill="midnightblue" stroke="midnightblue" points="530.84,-434.48 541.26,-436.4 534.31,-428.4 530.84,-434.48"/>
</g>
<!-- Node24 -->
<g id="node24" class="node">
<title>Node24</title>
<g id="a_node24"><a xlink:href="v8-traced-handle_8h.html" target="_top" xlink:title=" ">
<polygon fill="white" stroke="black" points="858,-375 858,-394 988,-394 988,-375 858,-375"/>
<text text-anchor="middle" x="923" y="-382" font-family="Helvetica,sans-Serif" font-size="10.00">include/v8&#45;traced&#45;handle.h</text>
</a>
</g>
</g>
<!-- Node1&#45;&gt;Node24 -->
<g id="edge41" class="edge">
<title>Node1&#45;&gt;Node24</title>
<path fill="none" stroke="midnightblue" d="M639.22,-437.17C710.27,-424.23 815.93,-405 876.26,-394.01"/>
<polygon fill="midnightblue" stroke="midnightblue" points="638.21,-433.79 629,-439.03 639.47,-440.68 638.21,-433.79"/>
</g>
<!-- Node3 -->
<g id="node3" class="node">
<title>Node3</title>
<g id="a_node3"><a xlink:href="v8-isolate_8h.html" target="_top" xlink:title=" ">
<polygon fill="white" stroke="black" points="895,-134.5 895,-153.5 995,-153.5 995,-134.5 895,-134.5"/>
<text text-anchor="middle" x="945" y="-141.5" font-family="Helvetica,sans-Serif" font-size="10.00">include/v8&#45;isolate.h</text>
</a>
</g>
</g>
<!-- Node2&#45;&gt;Node3 -->
<g id="edge2" class="edge">
<title>Node2&#45;&gt;Node3</title>
<path fill="none" stroke="midnightblue" d="M516.02,-382.23C574.8,-378.73 662.85,-367.5 731,-333 813.46,-291.25 810.67,-248.78 882,-190 898.39,-176.49 918.55,-162.52 931.58,-153.8"/>
<polygon fill="midnightblue" stroke="midnightblue" points="515.56,-378.74 505.76,-382.77 515.93,-385.73 515.56,-378.74"/>
</g>
<!-- Node5 -->
<g id="node5" class="node">
<title>Node5</title>
<g id="a_node5"><a xlink:href="v8_8h.html" target="_top" xlink:title=" ">
<polygon fill="white" stroke="black" points="652,-6 652,-25 720,-25 720,-6 652,-6"/>
<text text-anchor="middle" x="686" y="-13" font-family="Helvetica,sans-Serif" font-size="10.00">include/v8.h</text>
</a>
</g>
</g>
<!-- Node2&#45;&gt;Node5 -->
<g id="edge40" class="edge">
<title>Node2&#45;&gt;Node5</title>
<path fill="none" stroke="midnightblue" d="M387.98,-377.3C322.41,-367 230,-339.76 230,-268 230,-268 230,-268 230,-143 230,-88.58 275.97,-88.42 326,-67 384.45,-41.98 573.92,-25.06 651.95,-18.99"/>
<polygon fill="midnightblue" stroke="midnightblue" points="387.86,-380.82 398.26,-378.81 388.88,-373.89 387.86,-380.82"/>
</g>
<!-- Node8 -->
<g id="node8" class="node">
<title>Node8</title>
<g id="a_node8"><a xlink:href="v8-object_8h.html" target="_top" xlink:title=" ">
<polygon fill="white" stroke="black" points="624,-313.5 624,-332.5 722,-332.5 722,-313.5 624,-313.5"/>
<text text-anchor="middle" x="673" y="-320.5" font-family="Helvetica,sans-Serif" font-size="10.00">include/v8&#45;object.h</text>
</a>
</g>
</g>
<!-- Node2&#45;&gt;Node8 -->
<g id="edge8" class="edge">
<title>Node2&#45;&gt;Node8</title>
<path fill="none" stroke="midnightblue" d="M513.84,-366.85C555.33,-355.68 608.27,-341.43 641.4,-332.51"/>
<polygon fill="midnightblue" stroke="midnightblue" points="512.84,-363.5 504.09,-369.47 514.66,-370.25 512.84,-363.5"/>
</g>
<!-- Node22 -->
<g id="node22" class="node">
<title>Node22</title>
<g id="a_node22"><a xlink:href="v8-profiler_8h.html" target="_top" xlink:title=" ">
<polygon fill="white" stroke="black" points="0,-313.5 0,-332.5 100,-332.5 100,-313.5 0,-313.5"/>
<text text-anchor="middle" x="50" y="-320.5" font-family="Helvetica,sans-Serif" font-size="10.00">include/v8&#45;profiler.h</text>
</a>
</g>
</g>
<!-- Node2&#45;&gt;Node22 -->
<g id="edge38" class="edge">
<title>Node2&#45;&gt;Node22</title>
<path fill="none" stroke="midnightblue" d="M387.96,-374.17C319.05,-364.11 206.24,-347.58 109,-333 106.13,-332.57 103.18,-332.13 100.21,-331.68"/>
<polygon fill="midnightblue" stroke="midnightblue" points="387.82,-377.69 398.22,-375.67 388.83,-370.76 387.82,-377.69"/>
</g>
<!-- Node23 -->
<g id="node23" class="node">
<title>Node23</title>
<g id="a_node23"><a xlink:href="v8-util_8h.html" target="_top" xlink:title=" ">
<polygon fill="white" stroke="black" points="118,-313.5 118,-332.5 202,-332.5 202,-313.5 118,-313.5"/>
<text text-anchor="middle" x="160" y="-320.5" font-family="Helvetica,sans-Serif" font-size="10.00">include/v8&#45;util.h</text>
</a>
</g>
</g>
<!-- Node2&#45;&gt;Node23 -->
<g id="edge39" class="edge">
<title>Node2&#45;&gt;Node23</title>
<path fill="none" stroke="midnightblue" d="M388.53,-370.57C331.93,-359.03 250.71,-342.48 201.88,-332.53"/>
<polygon fill="midnightblue" stroke="midnightblue" points="387.95,-374.02 398.44,-372.59 389.34,-367.16 387.95,-374.02"/>
</g>
<!-- Node4 -->
<g id="node4" class="node">
<title>Node4</title>
<g id="a_node4"><a xlink:href="v8-initialization_8h.html" target="_top" xlink:title=" ">
<polygon fill="white" stroke="black" points="904,-73 904,-92 1026,-92 1026,-73 904,-73"/>
<text text-anchor="middle" x="965" y="-80" font-family="Helvetica,sans-Serif" font-size="10.00">include/v8&#45;initialization.h</text>
</a>
</g>
</g>
<!-- Node3&#45;&gt;Node4 -->
<g id="edge3" class="edge">
<title>Node3&#45;&gt;Node4</title>
<path fill="none" stroke="midnightblue" d="M951.17,-124.66C954.82,-113.77 959.29,-100.49 962.14,-92.01"/>
<polygon fill="midnightblue" stroke="midnightblue" points="947.73,-123.88 947.87,-134.48 954.37,-126.11 947.73,-123.88"/>
</g>
<!-- Node3&#45;&gt;Node5 -->
<g id="edge7" class="edge">
<title>Node3&#45;&gt;Node5</title>
<path fill="none" stroke="midnightblue" d="M928.02,-127.65C904.75,-106.72 864.92,-71.33 857,-67 812.85,-42.89 755.85,-29.04 720.1,-22.14"/>
<polygon fill="midnightblue" stroke="midnightblue" points="925.71,-130.28 935.48,-134.38 930.4,-125.08 925.71,-130.28"/>
</g>
<!-- Node6 -->
<g id="node6" class="node">
<title>Node6</title>
<g id="a_node6"><a xlink:href="v8-inspector_8h.html" target="_top" xlink:title=" ">
<polygon fill="white" stroke="black" points="1260.5,-73 1260.5,-92 1371.5,-92 1371.5,-73 1260.5,-73"/>
<text text-anchor="middle" x="1316" y="-80" font-family="Helvetica,sans-Serif" font-size="10.00">include/v8&#45;inspector.h</text>
</a>
</g>
</g>
<!-- Node3&#45;&gt;Node6 -->
<g id="edge5" class="edge">
<title>Node3&#45;&gt;Node6</title>
<path fill="none" stroke="midnightblue" d="M1005.23,-133.34C1076.68,-121.88 1194.68,-102.96 1262.87,-92.02"/>
<polygon fill="midnightblue" stroke="midnightblue" points="1004.35,-129.94 995.03,-134.98 1005.46,-136.85 1004.35,-129.94"/>
</g>
<!-- Node4&#45;&gt;Node5 -->
<g id="edge4" class="edge">
<title>Node4&#45;&gt;Node5</title>
<path fill="none" stroke="midnightblue" d="M918.23,-70.6C862.27,-57.57 769.92,-36.05 720.21,-24.47"/>
<polygon fill="midnightblue" stroke="midnightblue" points="917.71,-74.08 928.24,-72.94 919.29,-67.26 917.71,-74.08"/>
</g>
<!-- Node7 -->
<g id="node7" class="node">
<title>Node7</title>
<g id="a_node7"><a xlink:href="v8-inspector-protocol_8h.html" target="_top" xlink:title=" ">
<polygon fill="white" stroke="black" points="1264,-0.5 1264,-30.5 1368,-30.5 1368,-0.5 1264,-0.5"/>
<text text-anchor="start" x="1272" y="-18.5" font-family="Helvetica,sans-Serif" font-size="10.00">include/v8&#45;inspector</text>
<text text-anchor="middle" x="1316" y="-7.5" font-family="Helvetica,sans-Serif" font-size="10.00">&#45;protocol.h</text>
</a>
</g>
</g>
<!-- Node6&#45;&gt;Node7 -->
<g id="edge6" class="edge">
<title>Node6&#45;&gt;Node7</title>
<path fill="none" stroke="midnightblue" d="M1316,-62.41C1316,-52.22 1316,-39.9 1316,-30.59"/>
<polygon fill="midnightblue" stroke="midnightblue" points="1312.5,-62.73 1316,-72.73 1319.5,-62.73 1312.5,-62.73"/>
</g>
<!-- Node8&#45;&gt;Node5 -->
<g id="edge37" class="edge">
<title>Node8&#45;&gt;Node5</title>
<path fill="none" stroke="midnightblue" d="M732.11,-321.67C840.35,-320.19 1065.56,-312.76 1134,-277 1170.47,-257.95 1194,-247.64 1194,-206.5 1194,-206.5 1194,-206.5 1194,-143 1194,-87.18 1145.71,-88.04 1094,-67 1026.24,-39.42 805.37,-23.63 720.06,-18.43"/>
<polygon fill="midnightblue" stroke="midnightblue" points="731.97,-318.17 722.01,-321.8 732.05,-325.17 731.97,-318.17"/>
</g>
<!-- Node9 -->
<g id="node9" class="node">
<title>Node9</title>
<g id="a_node9"><a xlink:href="v8-array-buffer_8h.html" target="_top" xlink:title=" ">
<polygon fill="white" stroke="black" points="715.5,-196 715.5,-215 834.5,-215 834.5,-196 715.5,-196"/>
<text text-anchor="middle" x="775" y="-203" font-family="Helvetica,sans-Serif" font-size="10.00">include/v8&#45;array&#45;buffer.h</text>
</a>
</g>
</g>
<!-- Node8&#45;&gt;Node9 -->
<g id="edge9" class="edge">
<title>Node8&#45;&gt;Node9</title>
<path fill="none" stroke="midnightblue" d="M704.49,-309.01C719.38,-301.53 736.39,-290.84 748,-277 763.67,-258.32 770.82,-229.57 773.56,-215.24"/>
<polygon fill="midnightblue" stroke="midnightblue" points="702.63,-306.02 695.09,-313.47 705.63,-312.35 702.63,-306.02"/>
</g>
<!-- Node12 -->
<g id="node12" class="node">
<title>Node12</title>
<g id="a_node12"><a xlink:href="v8-container_8h.html" target="_top" xlink:title=" ">
<polygon fill="white" stroke="black" points="1222.5,-134.5 1222.5,-153.5 1333.5,-153.5 1333.5,-134.5 1222.5,-134.5"/>
<text text-anchor="middle" x="1278" y="-141.5" font-family="Helvetica,sans-Serif" font-size="10.00">include/v8&#45;container.h</text>
</a>
</g>
</g>
<!-- Node8&#45;&gt;Node12 -->
<g id="edge15" class="edge">
<title>Node8&#45;&gt;Node12</title>
<path fill="none" stroke="midnightblue" d="M732.38,-320.19C863.46,-315.74 1169.04,-302.72 1208,-277 1253.24,-247.13 1271.27,-178.05 1276.36,-153.69"/>
<polygon fill="midnightblue" stroke="midnightblue" points="732,-316.7 722.12,-320.53 732.23,-323.7 732,-316.7"/>
</g>
<!-- Node13 -->
<g id="node13" class="node">
<title>Node13</title>
<g id="a_node13"><a xlink:href="v8-date_8h.html" target="_top" xlink:title=" ">
<polygon fill="white" stroke="black" points="258,-134.5 258,-153.5 348,-153.5 348,-134.5 258,-134.5"/>
<text text-anchor="middle" x="303" y="-141.5" font-family="Helvetica,sans-Serif" font-size="10.00">include/v8&#45;date.h</text>
</a>
</g>
</g>
<!-- Node8&#45;&gt;Node13 -->
<g id="edge17" class="edge">
<title>Node8&#45;&gt;Node13</title>
<path fill="none" stroke="midnightblue" d="M613.74,-320.05C527.64,-316.26 373.09,-305.59 326,-277 300.08,-261.26 296.08,-249.94 287,-221 279.49,-197.07 291.34,-167.79 298.38,-153.57"/>
<polygon fill="midnightblue" stroke="midnightblue" points="613.75,-323.55 623.89,-320.48 614.04,-316.56 613.75,-323.55"/>
</g>
<!-- Node14 -->
<g id="node14" class="node">
<title>Node14</title>
<g id="a_node14"><a xlink:href="v8-function_8h.html" target="_top" xlink:title=" ">
<polygon fill="white" stroke="black" points="296,-196 296,-215 402,-215 402,-196 296,-196"/>
<text text-anchor="middle" x="349" y="-203" font-family="Helvetica,sans-Serif" font-size="10.00">include/v8&#45;function.h</text>
</a>
</g>
</g>
<!-- Node8&#45;&gt;Node14 -->
<g id="edge19" class="edge">
<title>Node8&#45;&gt;Node14</title>
<path fill="none" stroke="midnightblue" d="M613.86,-318.28C522.08,-311.9 353.99,-297.55 336,-277 320.59,-259.39 334.82,-229.63 343.47,-215.05"/>
<polygon fill="midnightblue" stroke="midnightblue" points="613.63,-321.77 623.84,-318.97 614.11,-314.79 613.63,-321.77"/>
</g>
<!-- Node15 -->
<g id="node15" class="node">
<title>Node15</title>
<g id="a_node15"><a xlink:href="v8-primitive-object_8h.html" target="_top" xlink:title=" ">
<polygon fill="white" stroke="black" points="442.5,-67.5 442.5,-97.5 543.5,-97.5 543.5,-67.5 442.5,-67.5"/>
<text text-anchor="start" x="450.5" y="-85.5" font-family="Helvetica,sans-Serif" font-size="10.00">include/v8&#45;primitive</text>
<text text-anchor="middle" x="493" y="-74.5" font-family="Helvetica,sans-Serif" font-size="10.00">&#45;object.h</text>
</a>
</g>
</g>
<!-- Node8&#45;&gt;Node15 -->
<g id="edge21" class="edge">
<title>Node8&#45;&gt;Node15</title>
<path fill="none" stroke="midnightblue" d="M613.74,-313.95C570.16,-306.71 516.15,-294.5 502,-277 458.86,-223.65 478.76,-132.45 488.62,-97.6"/>
<polygon fill="midnightblue" stroke="midnightblue" points="613.28,-317.42 623.71,-315.56 614.39,-310.51 613.28,-317.42"/>
</g>
<!-- Node16 -->
<g id="node16" class="node">
<title>Node16</title>
<g id="a_node16"><a xlink:href="v8-promise_8h.html" target="_top" xlink:title=" ">
<polygon fill="white" stroke="black" points="1019,-257.5 1019,-276.5 1125,-276.5 1125,-257.5 1019,-257.5"/>
<text text-anchor="middle" x="1072" y="-264.5" font-family="Helvetica,sans-Serif" font-size="10.00">include/v8&#45;promise.h</text>
</a>
</g>
</g>
<!-- Node8&#45;&gt;Node16 -->
<g id="edge23" class="edge">
<title>Node8&#45;&gt;Node16</title>
<path fill="none" stroke="midnightblue" d="M732.42,-313.96C810.02,-303.46 944.69,-285.23 1018.98,-275.18"/>
<polygon fill="midnightblue" stroke="midnightblue" points="731.77,-310.51 722.33,-315.32 732.7,-317.45 731.77,-310.51"/>
</g>
<!-- Node18 -->
<g id="node18" class="node">
<title>Node18</title>
<g id="a_node18"><a xlink:href="v8-proxy_8h.html" target="_top" xlink:title=" ">
<polygon fill="white" stroke="black" points="511,-257.5 511,-276.5 605,-276.5 605,-257.5 511,-257.5"/>
<text text-anchor="middle" x="558" y="-264.5" font-family="Helvetica,sans-Serif" font-size="10.00">include/v8&#45;proxy.h</text>
</a>
</g>
</g>
<!-- Node8&#45;&gt;Node18 -->
<g id="edge28" class="edge">
<title>Node8&#45;&gt;Node18</title>
<path fill="none" stroke="midnightblue" d="M645.52,-309.1C624.03,-299.01 594.78,-285.27 576.14,-276.52"/>
<polygon fill="midnightblue" stroke="midnightblue" points="644.24,-312.36 654.78,-313.44 647.21,-306.02 644.24,-312.36"/>
</g>
<!-- Node19 -->
<g id="node19" class="node">
<title>Node19</title>
<g id="a_node19"><a xlink:href="v8-regexp_8h.html" target="_top" xlink:title=" ">
<polygon fill="white" stroke="black" points="623,-257.5 623,-276.5 723,-276.5 723,-257.5 623,-257.5"/>
<text text-anchor="middle" x="673" y="-264.5" font-family="Helvetica,sans-Serif" font-size="10.00">include/v8&#45;regexp.h</text>
</a>
</g>
</g>
<!-- Node8&#45;&gt;Node19 -->
<g id="edge30" class="edge">
<title>Node8&#45;&gt;Node19</title>
<path fill="none" stroke="midnightblue" d="M673,-302.8C673,-293.91 673,-283.78 673,-276.75"/>
<polygon fill="midnightblue" stroke="midnightblue" points="669.5,-303.08 673,-313.08 676.5,-303.08 669.5,-303.08"/>
</g>
<!-- Node20 -->
<g id="node20" class="node">
<title>Node20</title>
<g id="a_node20"><a xlink:href="v8-template_8h.html" target="_top" xlink:title=" ">
<polygon fill="white" stroke="black" points="345.5,-257.5 345.5,-276.5 454.5,-276.5 454.5,-257.5 345.5,-257.5"/>
<text text-anchor="middle" x="400" y="-264.5" font-family="Helvetica,sans-Serif" font-size="10.00">include/v8&#45;template.h</text>
</a>
</g>
</g>
<!-- Node8&#45;&gt;Node20 -->
<g id="edge32" class="edge">
<title>Node8&#45;&gt;Node20</title>
<path fill="none" stroke="midnightblue" d="M619.78,-311.47C568.19,-301.27 490.9,-285.98 443.06,-276.52"/>
<polygon fill="midnightblue" stroke="midnightblue" points="619.25,-314.94 629.74,-313.44 620.61,-308.07 619.25,-314.94"/>
</g>
<!-- Node21 -->
<g id="node21" class="node">
<title>Node21</title>
<g id="a_node21"><a xlink:href="v8-wasm_8h.html" target="_top" xlink:title=" ">
<polygon fill="white" stroke="black" points="599,-196 599,-215 697,-215 697,-196 599,-196"/>
<text text-anchor="middle" x="648" y="-203" font-family="Helvetica,sans-Serif" font-size="10.00">include/v8&#45;wasm.h</text>
</a>
</g>
</g>
<!-- Node8&#45;&gt;Node21 -->
<g id="edge35" class="edge">
<title>Node8&#45;&gt;Node21</title>
<path fill="none" stroke="midnightblue" d="M700.12,-308.41C720.6,-296.19 743.37,-277.11 732,-257 720.1,-235.97 695.56,-222.73 676.06,-215.11"/>
<polygon fill="midnightblue" stroke="midnightblue" points="698.3,-305.42 691.3,-313.37 701.73,-311.52 698.3,-305.42"/>
</g>
<!-- Node9&#45;&gt;Node3 -->
<g id="edge10" class="edge">
<title>Node9&#45;&gt;Node3</title>
<path fill="none" stroke="midnightblue" d="M809.05,-192.58C842.09,-181.02 891.42,-163.75 920.69,-153.51"/>
<polygon fill="midnightblue" stroke="midnightblue" points="807.64,-189.37 799.36,-195.98 809.95,-195.98 807.64,-189.37"/>
</g>
<!-- Node9&#45;&gt;Node5 -->
<g id="edge14" class="edge">
<title>Node9&#45;&gt;Node5</title>
<path fill="none" stroke="midnightblue" d="M746.69,-190.79C732.16,-182.25 715.54,-169.86 706,-154 680.38,-111.42 683.04,-48.33 685.06,-25.31"/>
<polygon fill="midnightblue" stroke="midnightblue" points="745.4,-194.07 755.85,-195.84 748.79,-187.94 745.4,-194.07"/>
</g>
<!-- Node10 -->
<g id="node10" class="node">
<title>Node10</title>
<g id="a_node10"><a xlink:href="v8-typed-array_8h.html" target="_top" xlink:title=" ">
<polygon fill="white" stroke="black" points="715.5,-134.5 715.5,-153.5 834.5,-153.5 834.5,-134.5 715.5,-134.5"/>
<text text-anchor="middle" x="775" y="-141.5" font-family="Helvetica,sans-Serif" font-size="10.00">include/v8&#45;typed&#45;array.h</text>
</a>
</g>
</g>
<!-- Node9&#45;&gt;Node10 -->
<g id="edge11" class="edge">
<title>Node9&#45;&gt;Node10</title>
<path fill="none" stroke="midnightblue" d="M775,-185.82C775,-175 775,-161.9 775,-153.51"/>
<polygon fill="midnightblue" stroke="midnightblue" points="771.5,-185.98 775,-195.98 778.5,-185.98 771.5,-185.98"/>
</g>
<!-- Node10&#45;&gt;Node5 -->
<g id="edge13" class="edge">
<title>Node10&#45;&gt;Node5</title>
<path fill="none" stroke="midnightblue" d="M762.96,-126.13C756.95,-117.7 749.57,-107.32 743,-98 724.29,-71.47 702.32,-39.95 691.97,-25.08"/>
<polygon fill="midnightblue" stroke="midnightblue" points="760.19,-128.28 768.85,-134.39 765.89,-124.21 760.19,-128.28"/>
</g>
<!-- Node11 -->
<g id="node11" class="node">
<title>Node11</title>
<g id="a_node11"><a xlink:href="v8-fast-api-calls_8h.html" target="_top" xlink:title=" ">
<polygon fill="white" stroke="black" points="752,-67.5 752,-97.5 848,-97.5 848,-67.5 752,-67.5"/>
<text text-anchor="start" x="760" y="-85.5" font-family="Helvetica,sans-Serif" font-size="10.00">include/v8&#45;fast&#45;api</text>
<text text-anchor="middle" x="800" y="-74.5" font-family="Helvetica,sans-Serif" font-size="10.00">&#45;calls.h</text>
</a>
</g>
</g>
<!-- Node10&#45;&gt;Node11 -->
<g id="edge12" class="edge">
<title>Node10&#45;&gt;Node11</title>
<path fill="none" stroke="midnightblue" d="M782.52,-125.1C786.23,-116.27 790.64,-105.77 794.11,-97.52"/>
<polygon fill="midnightblue" stroke="midnightblue" points="779.23,-123.9 778.58,-134.48 785.68,-126.61 779.23,-123.9"/>
</g>
<!-- Node12&#45;&gt;Node5 -->
<g id="edge16" class="edge">
<title>Node12&#45;&gt;Node5</title>
<path fill="none" stroke="midnightblue" d="M1267.47,-125.52C1255.53,-107.44 1234.26,-80.06 1208,-67 1121.79,-24.13 821.73,-17.63 720.02,-16.66"/>
<polygon fill="midnightblue" stroke="midnightblue" points="1264.54,-127.42 1272.84,-134 1270.45,-123.68 1264.54,-127.42"/>
</g>
<!-- Node13&#45;&gt;Node5 -->
<g id="edge18" class="edge">
<title>Node13&#45;&gt;Node5</title>
<path fill="none" stroke="midnightblue" d="M311.73,-125.09C321.42,-107.28 338.8,-80.68 362,-67 410.74,-38.27 579.09,-23.71 651.95,-18.64"/>
<polygon fill="midnightblue" stroke="midnightblue" points="308.52,-123.69 307.04,-134.18 314.74,-126.9 308.52,-123.69"/>
</g>
<!-- Node14&#45;&gt;Node5 -->
<g id="edge20" class="edge">
<title>Node14&#45;&gt;Node5</title>
<path fill="none" stroke="midnightblue" d="M353.53,-185.62C362.05,-151.71 381.29,-82.6 400,-67 437.85,-35.43 584.68,-22.63 651.97,-18.34"/>
<polygon fill="midnightblue" stroke="midnightblue" points="350.06,-185.09 351.07,-195.64 356.86,-186.76 350.06,-185.09"/>
</g>
<!-- Node15&#45;&gt;Node5 -->
<g id="edge22" class="edge">
<title>Node15&#45;&gt;Node5</title>
<path fill="none" stroke="midnightblue" d="M544.64,-64.11C582.19,-51.46 631.39,-34.89 660.74,-25.01"/>
<polygon fill="midnightblue" stroke="midnightblue" points="543.24,-60.89 534.88,-67.4 545.47,-67.52 543.24,-60.89"/>
</g>
<!-- Node16&#45;&gt;Node5 -->
<g id="edge27" class="edge">
<title>Node16&#45;&gt;Node5</title>
<path fill="none" stroke="midnightblue" d="M1102.55,-252.56C1115.33,-245.22 1128.85,-234.77 1136,-221 1168.03,-159.32 1102.69,-94.23 1061,-67 1005.11,-30.5 801.58,-20.12 720.08,-17.4"/>
<polygon fill="midnightblue" stroke="midnightblue" points="1100.68,-249.59 1093.48,-257.36 1103.96,-255.77 1100.68,-249.59"/>
</g>
<!-- Node17 -->
<g id="node17" class="node">
<title>Node17</title>
<g id="a_node17"><a xlink:href="v8-statistics_8h.html" target="_top" xlink:title=" ">
<polygon fill="white" stroke="black" points="1016.5,-196 1016.5,-215 1127.5,-215 1127.5,-196 1016.5,-196"/>
<text text-anchor="middle" x="1072" y="-203" font-family="Helvetica,sans-Serif" font-size="10.00">include/v8&#45;statistics.h</text>
</a>
</g>
</g>
<!-- Node16&#45;&gt;Node17 -->
<g id="edge24" class="edge">
<title>Node16&#45;&gt;Node17</title>
<path fill="none" stroke="midnightblue" d="M1072,-247.32C1072,-236.5 1072,-223.4 1072,-215.01"/>
<polygon fill="midnightblue" stroke="midnightblue" points="1068.5,-247.48 1072,-257.48 1075.5,-247.48 1068.5,-247.48"/>
</g>
<!-- Node17&#45;&gt;Node3 -->
<g id="edge25" class="edge">
<title>Node17&#45;&gt;Node3</title>
<path fill="none" stroke="midnightblue" d="M1044.62,-191.67C1019.98,-180.13 984.46,-163.49 963.16,-153.51"/>
<polygon fill="midnightblue" stroke="midnightblue" points="1043.26,-194.9 1053.8,-195.98 1046.23,-188.56 1043.26,-194.9"/>
</g>
<!-- Node17&#45;&gt;Node5 -->
<g id="edge26" class="edge">
<title>Node17&#45;&gt;Node5</title>
<path fill="none" stroke="midnightblue" d="M1072.94,-185.4C1073.27,-155.33 1069.12,-97.27 1035,-67 988.81,-26.01 798.67,-18.26 720.15,-16.82"/>
<polygon fill="midnightblue" stroke="midnightblue" points="1069.43,-185.66 1072.62,-195.77 1076.42,-185.88 1069.43,-185.66"/>
</g>
<!-- Node18&#45;&gt;Node5 -->
<g id="edge29" class="edge">
<title>Node18&#45;&gt;Node5</title>
<path fill="none" stroke="midnightblue" d="M560.75,-247.22C566.99,-209.8 585.06,-124.6 627,-67 639.7,-49.56 659.57,-34.19 672.69,-25.12"/>
<polygon fill="midnightblue" stroke="midnightblue" points="557.28,-246.79 559.18,-257.21 564.19,-247.88 557.28,-246.79"/>
</g>
<!-- Node19&#45;&gt;Node5 -->
<g id="edge31" class="edge">
<title>Node19&#45;&gt;Node5</title>
<path fill="none" stroke="midnightblue" d="M631.14,-253.61C615.39,-246.69 599.1,-236.28 590,-221 582.95,-209.16 586.56,-203.34 590,-190 607.9,-120.67 660.09,-49.46 679.03,-25.2"/>
<polygon fill="midnightblue" stroke="midnightblue" points="630.23,-257.02 640.82,-257.49 632.83,-250.52 630.23,-257.02"/>
</g>
<!-- Node20&#45;&gt;Node5 -->
<g id="edge34" class="edge">
<title>Node20&#45;&gt;Node5</title>
<path fill="none" stroke="midnightblue" d="M404.94,-247.56C407,-239.45 409.3,-229.79 411,-221 424.11,-153.12 385.48,-117.22 433,-67 462.48,-35.85 589.43,-23.05 651.53,-18.57"/>
<polygon fill="midnightblue" stroke="midnightblue" points="401.5,-246.87 402.36,-257.43 408.28,-248.64 401.5,-246.87"/>
</g>
<!-- Node20&#45;&gt;Node14 -->
<g id="edge33" class="edge">
<title>Node20&#45;&gt;Node14</title>
<path fill="none" stroke="midnightblue" d="M386,-249.67C376.39,-238.45 364.01,-224.02 356.29,-215.01"/>
<polygon fill="midnightblue" stroke="midnightblue" points="383.53,-252.16 392.69,-257.48 388.84,-247.6 383.53,-252.16"/>
</g>
<!-- Node21&#45;&gt;Node5 -->
<g id="edge36" class="edge">
<title>Node21&#45;&gt;Node5</title>
<path fill="none" stroke="midnightblue" d="M650.71,-185.57C654.65,-158.95 662.53,-109.01 672,-67 675.36,-52.09 680.34,-35 683.37,-25.01"/>
<polygon fill="midnightblue" stroke="midnightblue" points="647.2,-185.35 649.22,-195.75 654.13,-186.36 647.2,-185.35"/>
</g>
<!-- Node24&#45;&gt;Node5 -->
<g id="edge46" class="edge">
<title>Node24&#45;&gt;Node5</title>
<path fill="none" stroke="midnightblue" d="M998.56,-380.74C1133.05,-373.74 1400,-349.59 1400,-268 1400,-268 1400,-268 1400,-143 1400,-108.07 1406.87,-89.32 1380,-67 1328.89,-24.55 853.09,-17.77 720.28,-16.7"/>
<polygon fill="midnightblue" stroke="midnightblue" points="998.14,-377.25 988.32,-381.25 998.49,-384.24 998.14,-377.25"/>
</g>
<!-- Node24&#45;&gt;Node8 -->
<g id="edge45" class="edge">
<title>Node24&#45;&gt;Node8</title>
<path fill="none" stroke="midnightblue" d="M877.26,-372.61C828.74,-361.07 753.09,-343.06 708.75,-332.51"/>
<polygon fill="midnightblue" stroke="midnightblue" points="876.64,-376.06 887.18,-374.98 878.26,-369.25 876.64,-376.06"/>
</g>
<!-- Node25 -->
<g id="node25" class="node">
<title>Node25</title>
<g id="a_node25"><a xlink:href="v8-cppgc_8h.html" target="_top" xlink:title=" ">
<polygon fill="white" stroke="black" points="951,-313.5 951,-332.5 1049,-332.5 1049,-313.5 951,-313.5"/>
<text text-anchor="middle" x="1000" y="-320.5" font-family="Helvetica,sans-Serif" font-size="10.00">include/v8&#45;cppgc.h</text>
</a>
</g>
</g>
<!-- Node24&#45;&gt;Node25 -->
<g id="edge42" class="edge">
<title>Node24&#45;&gt;Node25</title>
<path fill="none" stroke="midnightblue" d="M942.03,-368.79C956.8,-357.38 976.76,-341.96 988.99,-332.51"/>
<polygon fill="midnightblue" stroke="midnightblue" points="939.81,-366.09 934.03,-374.98 944.09,-371.63 939.81,-366.09"/>
</g>
<!-- Node26 -->
<g id="node26" class="node">
<title>Node26</title>
<g id="a_node26"><a xlink:href="v8-embedder-heap_8h.html" target="_top" xlink:title=" ">
<polygon fill="white" stroke="black" points="891.5,-190.5 891.5,-220.5 998.5,-220.5 998.5,-190.5 891.5,-190.5"/>
<text text-anchor="start" x="899.5" y="-208.5" font-family="Helvetica,sans-Serif" font-size="10.00">include/v8&#45;embedder</text>
<text text-anchor="middle" x="945" y="-197.5" font-family="Helvetica,sans-Serif" font-size="10.00">&#45;heap.h</text>
</a>
</g>
</g>
<!-- Node24&#45;&gt;Node26 -->
<g id="edge43" class="edge">
<title>Node24&#45;&gt;Node26</title>
<path fill="none" stroke="midnightblue" d="M925.3,-364.99C929.72,-329.41 939.32,-252.22 943.26,-220.52"/>
<polygon fill="midnightblue" stroke="midnightblue" points="921.82,-364.61 924.06,-374.96 928.77,-365.47 921.82,-364.61"/>
</g>
<!-- Node26&#45;&gt;Node3 -->
<g id="edge44" class="edge">
<title>Node26&#45;&gt;Node3</title>
<path fill="none" stroke="midnightblue" d="M945,-180.29C945,-170.86 945,-160.65 945,-153.66"/>
<polygon fill="midnightblue" stroke="midnightblue" points="941.5,-180.4 945,-190.4 948.5,-180.4 941.5,-180.4"/>
</g>
</g>
</svg>
