<?xml version="1.0" encoding="UTF-8" standalone="no"?>
<!DOCTYPE svg PUBLIC "-//W3C//DTD SVG 1.1//EN"
 "http://www.w3.org/Graphics/SVG/1.1/DTD/svg11.dtd">
<!-- Generated by graphviz version 2.49.3 (20211027.1534)
 -->
<!-- Title: v8::UnwindState Pages: 1 -->
<svg width="244pt" height="208pt"
 viewBox="0.00 0.00 244.00 208.00" xmlns="http://www.w3.org/2000/svg" xmlns:xlink="http://www.w3.org/1999/xlink">
<g id="graph0" class="graph" transform="scale(1 1) rotate(0) translate(4 204)">
<title>v8::UnwindState</title>
<polygon fill="white" stroke="transparent" points="-4,4 -4,-204 240,-204 240,4 -4,4"/>
<!-- Node1 -->
<g id="node1" class="node">
<title>Node1</title>
<g id="a_node1"><a xlink:title=" ">
<polygon fill="#bfbfbf" stroke="black" points="3,-0.5 3,-19.5 91,-19.5 91,-0.5 3,-0.5"/>
<text text-anchor="middle" x="47" y="-7.5" font-family="Helvetica,sans-Serif" font-size="10.00">v8::UnwindState</text>
</a>
</g>
</g>
<!-- Node2 -->
<g id="node2" class="node">
<title>Node2</title>
<g id="a_node2"><a xlink:href="structv8_1_1MemoryRange.html" target="_top" xlink:title=" ">
<polygon fill="white" stroke="black" points="0,-180.5 0,-199.5 94,-199.5 94,-180.5 0,-180.5"/>
<text text-anchor="middle" x="47" y="-187.5" font-family="Helvetica,sans-Serif" font-size="10.00">v8::MemoryRange</text>
</a>
</g>
</g>
<!-- Node2&#45;&gt;Node1 -->
<g id="edge1" class="edge">
<title>Node2&#45;&gt;Node1</title>
<path fill="none" stroke="#9a32cd" stroke-dasharray="5,2" d="M44.07,-170.3C42.52,-159.44 40.78,-145.48 40,-133 37.35,-90.44 43.18,-39.5 45.8,-19.58"/>
<polygon fill="#9a32cd" stroke="#9a32cd" points="40.63,-170.93 45.57,-180.3 47.55,-169.89 40.63,-170.93"/>
<text text-anchor="middle" x="90.5" y="-125" font-family="Helvetica,sans-Serif" font-size="10.00"> code_range</text>
<text text-anchor="middle" x="90.5" y="-114" font-family="Helvetica,sans-Serif" font-size="10.00">embedded_code_range</text>
</g>
<!-- Node3 -->
<g id="node3" class="node">
<title>Node3</title>
<g id="a_node3"><a xlink:href="structv8_1_1JSEntryStub.html" target="_top" xlink:title=" ">
<polygon fill="white" stroke="black" points="150,-112.5 150,-131.5 236,-131.5 236,-112.5 150,-112.5"/>
<text text-anchor="middle" x="193" y="-119.5" font-family="Helvetica,sans-Serif" font-size="10.00">v8::JSEntryStub</text>
</a>
</g>
</g>
<!-- Node2&#45;&gt;Node3 -->
<g id="edge3" class="edge">
<title>Node2&#45;&gt;Node3</title>
<path fill="none" stroke="#9a32cd" stroke-dasharray="5,2" d="M75.3,-176.21C104.35,-163.07 148.77,-143 173.91,-131.63"/>
<polygon fill="#9a32cd" stroke="#9a32cd" points="73.76,-173.06 66.09,-180.37 76.64,-179.44 73.76,-173.06"/>
<text text-anchor="middle" x="140" y="-154" font-family="Helvetica,sans-Serif" font-size="10.00"> code</text>
</g>
<!-- Node3&#45;&gt;Node1 -->
<g id="edge2" class="edge">
<title>Node3&#45;&gt;Node1</title>
<path fill="none" stroke="#9a32cd" stroke-dasharray="5,2" d="M173.25,-106.12C142.26,-82.77 83.19,-38.27 58.4,-19.59"/>
<polygon fill="#9a32cd" stroke="#9a32cd" points="171.45,-109.15 181.54,-112.37 175.66,-103.56 171.45,-109.15"/>
<text text-anchor="start" x="153" y="-85" font-family="Helvetica,sans-Serif" font-size="10.00"> js_construct_entry</text>
<text text-anchor="middle" x="194" y="-74" font-family="Helvetica,sans-Serif" font-size="10.00">_stub</text>
<text text-anchor="middle" x="194" y="-63" font-family="Helvetica,sans-Serif" font-size="10.00">js_entry_stub</text>
<text text-anchor="start" x="153" y="-52" font-family="Helvetica,sans-Serif" font-size="10.00">js_run_microtasks</text>
<text text-anchor="middle" x="194" y="-41" font-family="Helvetica,sans-Serif" font-size="10.00">_entry_stub</text>
</g>
</g>
</svg>
