<?xml version="1.0" encoding="UTF-8" standalone="no"?>
<!DOCTYPE svg PUBLIC "-//W3C//DTD SVG 1.1//EN"
 "http://www.w3.org/Graphics/SVG/1.1/DTD/svg11.dtd">
<!-- Generated by graphviz version 2.49.3 (20211027.1534)
 -->
<!-- Title: v8::PersistentValueMapBase&lt; K, V, Traits &gt; Pages: 1 -->
<svg width="795pt" height="116pt"
 viewBox="0.00 0.00 795.00 115.50" xmlns="http://www.w3.org/2000/svg" xmlns:xlink="http://www.w3.org/1999/xlink">
<g id="graph0" class="graph" transform="scale(1 1) rotate(0) translate(4 111.5)">
<title>v8::PersistentValueMapBase&lt; K, V, Traits &gt;</title>
<polygon fill="white" stroke="transparent" points="-4,4 -4,-111.5 791,-111.5 791,4 -4,4"/>
<!-- Node1 -->
<g id="node1" class="node">
<title>Node1</title>
<g id="a_node1"><a xlink:title=" ">
<polygon fill="#bfbfbf" stroke="black" points="0,-49.5 0,-79.5 142,-79.5 142,-49.5 0,-49.5"/>
<text text-anchor="start" x="8" y="-67.5" font-family="Helvetica,sans-Serif" font-size="10.00">v8::PersistentValueMapBase</text>
<text text-anchor="middle" x="71" y="-56.5" font-family="Helvetica,sans-Serif" font-size="10.00">&lt; K, V, Traits &gt;</text>
</a>
</g>
</g>
<!-- Node2 -->
<g id="node2" class="node">
<title>Node2</title>
<g id="a_node2"><a xlink:href="classv8_1_1PersistentValueMap.html" target="_top" xlink:title=" ">
<polygon fill="white" stroke="black" points="467,-66 467,-107 616,-107 616,-66 467,-66"/>
<text text-anchor="start" x="475" y="-95" font-family="Helvetica,sans-Serif" font-size="10.00">v8::PersistentValueMap</text>
<text text-anchor="start" x="475" y="-84" font-family="Helvetica,sans-Serif" font-size="10.00">&lt; K, V, DefaultPersistentValue</text>
<text text-anchor="middle" x="541.5" y="-73" font-family="Helvetica,sans-Serif" font-size="10.00">MapTraits&lt; K, V &gt; &gt;</text>
</a>
</g>
</g>
<!-- Node1&#45;&gt;Node2 -->
<g id="edge1" class="edge">
<title>Node1&#45;&gt;Node2</title>
<path fill="none" stroke="midnightblue" d="M136.79,-81.8C150.63,-84.89 165.23,-87.69 179,-89.5 298,-105.13 329.09,-99.73 449,-94.5 454.74,-94.25 460.67,-93.91 466.63,-93.52"/>
<polygon fill="midnightblue" stroke="midnightblue" points="137.41,-78.35 126.88,-79.52 135.83,-85.17 137.41,-78.35"/>
</g>
<!-- Node4 -->
<g id="node4" class="node">
<title>Node4</title>
<g id="a_node4"><a xlink:href="classv8_1_1PersistentValueMap.html" target="_top" xlink:title=" ">
<polygon fill="white" stroke="black" points="189.5,-49.5 189.5,-79.5 308.5,-79.5 308.5,-49.5 189.5,-49.5"/>
<text text-anchor="start" x="197.5" y="-67.5" font-family="Helvetica,sans-Serif" font-size="10.00">v8::PersistentValueMap</text>
<text text-anchor="middle" x="249" y="-56.5" font-family="Helvetica,sans-Serif" font-size="10.00">&lt; K, V, Traits &gt;</text>
</a>
</g>
</g>
<!-- Node1&#45;&gt;Node4 -->
<g id="edge3" class="edge">
<title>Node1&#45;&gt;Node4</title>
<path fill="none" stroke="midnightblue" d="M152.1,-64.5C164.7,-64.5 177.51,-64.5 189.5,-64.5"/>
<polygon fill="midnightblue" stroke="midnightblue" points="152.07,-61 142.07,-64.5 152.07,-68 152.07,-61"/>
</g>
<!-- Node5 -->
<g id="node5" class="node">
<title>Node5</title>
<g id="a_node5"><a xlink:href="classv8_1_1PhantomPersistentValueMap.html" target="_top" xlink:title=" ">
<polygon fill="white" stroke="black" points="179,-0.5 179,-30.5 319,-30.5 319,-0.5 179,-0.5"/>
<text text-anchor="start" x="187" y="-18.5" font-family="Helvetica,sans-Serif" font-size="10.00">v8::PhantomPersistentValue</text>
<text text-anchor="middle" x="249" y="-7.5" font-family="Helvetica,sans-Serif" font-size="10.00">Map&lt; K, V, Traits &gt;</text>
</a>
</g>
</g>
<!-- Node1&#45;&gt;Node5 -->
<g id="edge5" class="edge">
<title>Node1&#45;&gt;Node5</title>
<path fill="none" stroke="midnightblue" d="M136.01,-46.68C155.01,-41.39 175.63,-35.65 193.94,-30.55"/>
<polygon fill="midnightblue" stroke="midnightblue" points="134.94,-43.34 126.24,-49.4 136.81,-50.09 134.94,-43.34"/>
</g>
<!-- Node3 -->
<g id="node3" class="node">
<title>Node3</title>
<g id="a_node3"><a xlink:href="classv8_1_1StdPersistentValueMap.html" target="_top" xlink:title=" ">
<polygon fill="white" stroke="black" points="653,-71.5 653,-101.5 787,-101.5 787,-71.5 653,-71.5"/>
<text text-anchor="start" x="661" y="-89.5" font-family="Helvetica,sans-Serif" font-size="10.00">v8::StdPersistentValueMap</text>
<text text-anchor="middle" x="720" y="-78.5" font-family="Helvetica,sans-Serif" font-size="10.00">&lt; K, V, Traits &gt;</text>
</a>
</g>
</g>
<!-- Node2&#45;&gt;Node3 -->
<g id="edge2" class="edge">
<title>Node2&#45;&gt;Node3</title>
<path fill="none" stroke="midnightblue" d="M626.15,-86.5C635.12,-86.5 644.15,-86.5 652.87,-86.5"/>
<polygon fill="midnightblue" stroke="midnightblue" points="626.07,-83 616.07,-86.5 626.07,-90 626.07,-83"/>
</g>
<!-- Node4&#45;&gt;Node2 -->
<g id="edge4" class="edge">
<title>Node4&#45;&gt;Node2</title>
<path fill="none" stroke="orange" stroke-dasharray="5,2" d="M318.92,-65.38C357.29,-66.34 405.87,-68.35 449,-72.5 454.76,-73.05 460.71,-73.73 466.68,-74.48"/>
<polygon fill="orange" stroke="orange" points="318.97,-61.88 308.89,-65.14 318.81,-68.88 318.97,-61.88"/>
<text text-anchor="start" x="337" y="-86.5" font-family="Helvetica,sans-Serif" font-size="10.00"> &lt; K, V, DefaultPersistent</text>
<text text-anchor="middle" x="393" y="-75.5" font-family="Helvetica,sans-Serif" font-size="10.00">ValueMapTraits&lt; K, V &gt; &gt;</text>
</g>
</g>
</svg>
