<?xml version="1.0" encoding="UTF-8" standalone="no"?>
<!DOCTYPE svg PUBLIC "-//W3C//DTD SVG 1.1//EN"
 "http://www.w3.org/Graphics/SVG/1.1/DTD/svg11.dtd">
<!-- Generated by graphviz version 2.49.3 (20211027.1534)
 -->
<!-- Title: v8::PersistentValueMapBase::Leak Pages: 1 -->
<svg width="326pt" height="78pt"
 viewBox="0.00 0.00 326.00 77.50" xmlns="http://www.w3.org/2000/svg" xmlns:xlink="http://www.w3.org/1999/xlink">
<g id="graph0" class="graph" transform="scale(1 1) rotate(0) translate(4 73.5)">
<title>v8::PersistentValueMapBase::Leak</title>
<polygon fill="white" stroke="transparent" points="-4,4 -4,-73.5 322,-73.5 322,4 -4,4"/>
<!-- Node1 -->
<g id="node1" class="node">
<title>Node1</title>
<g id="a_node1"><a xlink:title=" ">
<polygon fill="#bfbfbf" stroke="black" points="176,-22.5 176,-52.5 318,-52.5 318,-22.5 176,-22.5"/>
<text text-anchor="start" x="184" y="-40.5" font-family="Helvetica,sans-Serif" font-size="10.00">v8::PersistentValueMapBase</text>
<text text-anchor="middle" x="247" y="-29.5" font-family="Helvetica,sans-Serif" font-size="10.00">::Leak</text>
</a>
</g>
</g>
<!-- Node2 -->
<g id="node2" class="node">
<title>Node2</title>
<g id="a_node2"><a xlink:href="classv8_1_1PersistentValueMap.html#a5a307e66526181ae7dbfb26b1c97a924" target="_top" xlink:title=" ">
<polygon fill="white" stroke="black" points="0.5,-50 0.5,-69 139.5,-69 139.5,-50 0.5,-50"/>
<text text-anchor="middle" x="70" y="-57" font-family="Helvetica,sans-Serif" font-size="10.00">v8::PersistentValueMap::Set</text>
</a>
</g>
</g>
<!-- Node1&#45;&gt;Node2 -->
<g id="edge1" class="edge">
<title>Node1&#45;&gt;Node2</title>
<path fill="none" stroke="midnightblue" d="M165.72,-47.59C157.04,-48.68 148.28,-49.78 139.76,-50.86"/>
<polygon fill="midnightblue" stroke="midnightblue" points="166.34,-51.04 175.83,-46.32 165.47,-44.1 166.34,-51.04"/>
</g>
<!-- Node3 -->
<g id="node3" class="node">
<title>Node3</title>
<g id="a_node3"><a xlink:href="classv8_1_1PhantomPersistentValueMap.html#a4b3b790622e5e34f0cb2073e050355a8" target="_top" xlink:title=" ">
<polygon fill="white" stroke="black" points="0,-0.5 0,-30.5 140,-30.5 140,-0.5 0,-0.5"/>
<text text-anchor="start" x="8" y="-18.5" font-family="Helvetica,sans-Serif" font-size="10.00">v8::PhantomPersistentValue</text>
<text text-anchor="middle" x="70" y="-7.5" font-family="Helvetica,sans-Serif" font-size="10.00">Map::Set</text>
</a>
</g>
</g>
<!-- Node1&#45;&gt;Node3 -->
<g id="edge2" class="edge">
<title>Node1&#45;&gt;Node3</title>
<path fill="none" stroke="midnightblue" d="M165.8,-27.42C157.2,-26.34 148.5,-25.24 140.05,-24.18"/>
<polygon fill="midnightblue" stroke="midnightblue" points="165.47,-30.9 175.83,-28.68 166.34,-23.96 165.47,-30.9"/>
</g>
</g>
</svg>
