<?xml version="1.0" encoding="UTF-8" standalone="no"?>
<!DOCTYPE svg PUBLIC "-//W3C//DTD SVG 1.1//EN"
 "http://www.w3.org/Graphics/SVG/1.1/DTD/svg11.dtd">
<!-- Generated by graphviz version 2.49.3 (20211027.1534)
 -->
<!-- Title: v8::PhantomPersistentValueMap::Set Pages: 1 -->
<svg width="825pt" height="235pt"
 viewBox="0.00 0.00 825.00 235.00" xmlns="http://www.w3.org/2000/svg" xmlns:xlink="http://www.w3.org/1999/xlink">
<g id="graph0" class="graph" transform="scale(1 1) rotate(0) translate(4 231)">
<title>v8::PhantomPersistentValueMap::Set</title>
<polygon fill="white" stroke="transparent" points="-4,4 -4,-231 821,-231 821,4 -4,4"/>
<!-- Node1 -->
<g id="node1" class="node">
<title>Node1</title>
<g id="a_node1"><a xlink:title=" ">
<polygon fill="#bfbfbf" stroke="black" points="0,-146.5 0,-176.5 140,-176.5 140,-146.5 0,-146.5"/>
<text text-anchor="start" x="8" y="-164.5" font-family="Helvetica,sans-Serif" font-size="10.00">v8::PhantomPersistentValue</text>
<text text-anchor="middle" x="70" y="-153.5" font-family="Helvetica,sans-Serif" font-size="10.00">Map::Set</text>
</a>
</g>
</g>
<!-- Node2 -->
<g id="node2" class="node">
<title>Node2</title>
<g id="a_node2"><a xlink:href="classv8_1_1PersistentValueMapBase.html#ae49c98de990b7239aea9f0c131ed1be3" target="_top" xlink:title=" ">
<polygon fill="white" stroke="black" points="176,-171.5 176,-201.5 318,-201.5 318,-171.5 176,-171.5"/>
<text text-anchor="start" x="184" y="-189.5" font-family="Helvetica,sans-Serif" font-size="10.00">v8::PersistentValueMapBase</text>
<text text-anchor="middle" x="247" y="-178.5" font-family="Helvetica,sans-Serif" font-size="10.00">::Leak</text>
</a>
</g>
</g>
<!-- Node1&#45;&gt;Node2 -->
<g id="edge1" class="edge">
<title>Node1&#45;&gt;Node2</title>
<path fill="none" stroke="midnightblue" d="M140.16,-171.38C148.61,-172.59 157.3,-173.83 165.88,-175.05"/>
<polygon fill="midnightblue" stroke="midnightblue" points="165.51,-178.54 175.9,-176.49 166.5,-171.61 165.51,-178.54"/>
</g>
<!-- Node3 -->
<g id="node3" class="node">
<title>Node3</title>
<g id="a_node3"><a xlink:href="classv8_1_1PhantomPersistentValueMap.html#a2c610d2c5a82641b545b3ffc9b9010b0" target="_top" xlink:title=" ">
<polygon fill="white" stroke="black" points="177,-122.5 177,-152.5 317,-152.5 317,-122.5 177,-122.5"/>
<text text-anchor="start" x="185" y="-140.5" font-family="Helvetica,sans-Serif" font-size="10.00">v8::PhantomPersistentValue</text>
<text text-anchor="middle" x="247" y="-129.5" font-family="Helvetica,sans-Serif" font-size="10.00">Map::SetUnique</text>
</a>
</g>
</g>
<!-- Node1&#45;&gt;Node3 -->
<g id="edge2" class="edge">
<title>Node1&#45;&gt;Node3</title>
<path fill="none" stroke="midnightblue" d="M140.16,-152.01C148.91,-150.82 157.91,-149.58 166.8,-148.36"/>
<polygon fill="midnightblue" stroke="midnightblue" points="167.33,-151.82 176.76,-147 166.38,-144.89 167.33,-151.82"/>
</g>
<!-- Node4 -->
<g id="node4" class="node">
<title>Node4</title>
<g id="a_node4"><a xlink:href="classv8_1_1PersistentValueMapBase.html#a639f2b3a7f41e389a71792fe9d1aeb7c" target="_top" xlink:title=" ">
<polygon fill="white" stroke="black" points="354,-196.5 354,-226.5 496,-226.5 496,-196.5 354,-196.5"/>
<text text-anchor="start" x="362" y="-214.5" font-family="Helvetica,sans-Serif" font-size="10.00">v8::PersistentValueMapBase</text>
<text text-anchor="middle" x="425" y="-203.5" font-family="Helvetica,sans-Serif" font-size="10.00">::ClearAndLeak</text>
</a>
</g>
</g>
<!-- Node3&#45;&gt;Node4 -->
<g id="edge3" class="edge">
<title>Node3&#45;&gt;Node4</title>
<path fill="none" stroke="midnightblue" d="M295.41,-152.51C303.11,-155.49 310.88,-158.84 318,-162.5 335.32,-171.41 336.62,-178.7 354,-187.5 357.51,-189.28 361.18,-190.97 364.93,-192.58"/>
<polygon fill="midnightblue" stroke="midnightblue" points="363.75,-195.88 374.34,-196.39 366.38,-189.39 363.75,-195.88"/>
</g>
<!-- Node5 -->
<g id="node5" class="node">
<title>Node5</title>
<g id="a_node5"><a xlink:href="classv8_1_1PersistentValueMapBase.html#a149e5b7f40fa52dc9b379342ac802d94" target="_top" xlink:title=" ">
<polygon fill="white" stroke="black" points="354,-147.5 354,-177.5 496,-177.5 496,-147.5 354,-147.5"/>
<text text-anchor="start" x="362" y="-165.5" font-family="Helvetica,sans-Serif" font-size="10.00">v8::PersistentValueMapBase</text>
<text text-anchor="middle" x="425" y="-154.5" font-family="Helvetica,sans-Serif" font-size="10.00">::impl</text>
</a>
</g>
</g>
<!-- Node3&#45;&gt;Node5 -->
<g id="edge4" class="edge">
<title>Node3&#45;&gt;Node5</title>
<path fill="none" stroke="midnightblue" d="M317.05,-147.31C325.87,-148.56 334.95,-149.85 343.93,-151.13"/>
<polygon fill="midnightblue" stroke="midnightblue" points="343.59,-154.61 353.99,-152.56 344.58,-147.68 343.59,-154.61"/>
</g>
<!-- Node6 -->
<g id="node6" class="node">
<title>Node6</title>
<g id="a_node6"><a xlink:href="classv8_1_1PersistentValueMapBase.html#ac15c999275fb50c0084246cb9a848811" target="_top" xlink:title=" ">
<polygon fill="white" stroke="black" points="354,-98.5 354,-128.5 496,-128.5 496,-98.5 354,-98.5"/>
<text text-anchor="start" x="362" y="-116.5" font-family="Helvetica,sans-Serif" font-size="10.00">v8::PersistentValueMapBase</text>
<text text-anchor="middle" x="425" y="-105.5" font-family="Helvetica,sans-Serif" font-size="10.00">::isolate</text>
</a>
</g>
</g>
<!-- Node3&#45;&gt;Node6 -->
<g id="edge5" class="edge">
<title>Node3&#45;&gt;Node6</title>
<path fill="none" stroke="midnightblue" d="M317.05,-128.08C325.87,-126.88 334.95,-125.64 343.93,-124.42"/>
<polygon fill="midnightblue" stroke="midnightblue" points="344.55,-127.87 353.99,-123.05 343.61,-120.93 344.55,-127.87"/>
</g>
<!-- Node7 -->
<g id="node7" class="node">
<title>Node7</title>
<g id="a_node7"><a xlink:href="classv8_1_1PersistentValueMapBase.html#a1cc8230f09ebf3498aaff7e718d2f052" target="_top" xlink:title=" ">
<polygon fill="white" stroke="black" points="354,-49.5 354,-79.5 496,-79.5 496,-49.5 354,-49.5"/>
<text text-anchor="start" x="362" y="-67.5" font-family="Helvetica,sans-Serif" font-size="10.00">v8::PersistentValueMapBase</text>
<text text-anchor="middle" x="425" y="-56.5" font-family="Helvetica,sans-Serif" font-size="10.00">::Release</text>
</a>
</g>
</g>
<!-- Node3&#45;&gt;Node7 -->
<g id="edge6" class="edge">
<title>Node3&#45;&gt;Node7</title>
<path fill="none" stroke="midnightblue" d="M279.71,-122.32C300.62,-112.51 328.72,-99.72 354,-89.5 359.37,-87.33 365,-85.16 370.64,-83.04"/>
<polygon fill="midnightblue" stroke="midnightblue" points="371.93,-86.3 380.1,-79.55 369.51,-79.73 371.93,-86.3"/>
</g>
<!-- Node8 -->
<g id="node8" class="node">
<title>Node8</title>
<g id="a_node8"><a xlink:href="classv8_1_1PersistentValueMapBase.html#abb262f768e4353658726ba4d1295947c" target="_top" xlink:title=" ">
<polygon fill="white" stroke="black" points="532,-98.5 532,-128.5 674,-128.5 674,-98.5 532,-98.5"/>
<text text-anchor="start" x="540" y="-116.5" font-family="Helvetica,sans-Serif" font-size="10.00">v8::PersistentValueMapBase</text>
<text text-anchor="middle" x="603" y="-105.5" font-family="Helvetica,sans-Serif" font-size="10.00">::FromVal</text>
</a>
</g>
</g>
<!-- Node7&#45;&gt;Node8 -->
<g id="edge7" class="edge">
<title>Node7&#45;&gt;Node8</title>
<path fill="none" stroke="midnightblue" d="M480.24,-79.6C498.56,-84.7 519.18,-90.44 538.17,-95.73"/>
<polygon fill="midnightblue" stroke="midnightblue" points="537.36,-99.14 547.94,-98.45 539.24,-92.39 537.36,-99.14"/>
</g>
<!-- Node9 -->
<g id="node9" class="node">
<title>Node9</title>
<g id="a_node9"><a xlink:href="classv8_1_1PersistentBase.html#a479c7b146da083aa608e133a7dec79f9" target="_top" xlink:title=" ">
<polygon fill="white" stroke="black" points="554,-49.5 554,-79.5 652,-79.5 652,-49.5 554,-49.5"/>
<text text-anchor="start" x="562" y="-67.5" font-family="Helvetica,sans-Serif" font-size="10.00">v8::PersistentBase</text>
<text text-anchor="middle" x="603" y="-56.5" font-family="Helvetica,sans-Serif" font-size="10.00">::IsWeak</text>
</a>
</g>
</g>
<!-- Node7&#45;&gt;Node9 -->
<g id="edge8" class="edge">
<title>Node7&#45;&gt;Node9</title>
<path fill="none" stroke="midnightblue" d="M496.07,-64.5C511.8,-64.5 528.33,-64.5 543.53,-64.5"/>
<polygon fill="midnightblue" stroke="midnightblue" points="543.82,-68 553.82,-64.5 543.82,-61 543.82,-68"/>
</g>
<!-- Node10 -->
<g id="node10" class="node">
<title>Node10</title>
<g id="a_node10"><a xlink:href="classv8_1_1UniquePersistent.html#ace8f7fa76e5d36afd3ae8ee94acff00f" target="_top" xlink:title=" ">
<polygon fill="white" stroke="black" points="549.5,-0.5 549.5,-30.5 656.5,-30.5 656.5,-0.5 549.5,-0.5"/>
<text text-anchor="start" x="557.5" y="-18.5" font-family="Helvetica,sans-Serif" font-size="10.00">v8::UniquePersistent</text>
<text text-anchor="middle" x="603" y="-7.5" font-family="Helvetica,sans-Serif" font-size="10.00">::Pass</text>
</a>
</g>
</g>
<!-- Node7&#45;&gt;Node10 -->
<g id="edge9" class="edge">
<title>Node7&#45;&gt;Node10</title>
<path fill="none" stroke="midnightblue" d="M480.24,-49.4C499.08,-44.15 520.35,-38.23 539.78,-32.82"/>
<polygon fill="midnightblue" stroke="midnightblue" points="540.75,-36.19 549.45,-30.13 538.87,-29.44 540.75,-36.19"/>
</g>
<!-- Node11 -->
<g id="node11" class="node">
<title>Node11</title>
<g id="a_node11"><a xlink:href="classv8_1_1UniquePersistent.html#aace7c7db62ee4649d532e37c52d4dff8" target="_top" xlink:title=" ">
<polygon fill="white" stroke="black" points="710,-0.5 710,-30.5 817,-30.5 817,-0.5 710,-0.5"/>
<text text-anchor="start" x="718" y="-18.5" font-family="Helvetica,sans-Serif" font-size="10.00">v8::UniquePersistent</text>
<text text-anchor="middle" x="763.5" y="-7.5" font-family="Helvetica,sans-Serif" font-size="10.00">::UniquePersistent</text>
</a>
</g>
</g>
<!-- Node10&#45;&gt;Node11 -->
<g id="edge10" class="edge">
<title>Node10&#45;&gt;Node11</title>
<path fill="none" stroke="midnightblue" d="M656.78,-15.5C670.55,-15.5 685.52,-15.5 699.75,-15.5"/>
<polygon fill="midnightblue" stroke="midnightblue" points="699.95,-19 709.95,-15.5 699.95,-12 699.95,-19"/>
</g>
</g>
</svg>
