<?xml version="1.0" encoding="UTF-8" standalone="no"?>
<!DOCTYPE svg PUBLIC "-//W3C//DTD SVG 1.1//EN"
 "http://www.w3.org/Graphics/SVG/1.1/DTD/svg11.dtd">
<!-- Generated by graphviz version 2.49.3 (20211027.1534)
 -->
<!-- Title: v8::PersistentValueMapBase::~PersistentValueMapBase Pages: 1 -->
<svg width="827pt" height="137pt"
 viewBox="0.00 0.00 827.00 137.00" xmlns="http://www.w3.org/2000/svg" xmlns:xlink="http://www.w3.org/1999/xlink">
<g id="graph0" class="graph" transform="scale(1 1) rotate(0) translate(4 133)">
<title>v8::PersistentValueMapBase::~PersistentValueMapBase</title>
<polygon fill="white" stroke="transparent" points="-4,4 -4,-133 823,-133 823,4 -4,4"/>
<!-- Node1 -->
<g id="node1" class="node">
<title>Node1</title>
<g id="a_node1"><a xlink:title=" ">
<polygon fill="#bfbfbf" stroke="black" points="0,-73.5 0,-103.5 142,-103.5 142,-73.5 0,-73.5"/>
<text text-anchor="start" x="8" y="-91.5" font-family="Helvetica,sans-Serif" font-size="10.00">v8::PersistentValueMapBase</text>
<text text-anchor="middle" x="71" y="-80.5" font-family="Helvetica,sans-Serif" font-size="10.00">::~PersistentValueMapBase</text>
</a>
</g>
</g>
<!-- Node2 -->
<g id="node2" class="node">
<title>Node2</title>
<g id="a_node2"><a xlink:href="classv8_1_1PersistentValueMapBase.html#a1bf074e7a7c24713c9a3d40ddce89e74" target="_top" xlink:title=" ">
<polygon fill="white" stroke="black" points="178,-73.5 178,-103.5 320,-103.5 320,-73.5 178,-73.5"/>
<text text-anchor="start" x="186" y="-91.5" font-family="Helvetica,sans-Serif" font-size="10.00">v8::PersistentValueMapBase</text>
<text text-anchor="middle" x="249" y="-80.5" font-family="Helvetica,sans-Serif" font-size="10.00">::Clear</text>
</a>
</g>
</g>
<!-- Node1&#45;&gt;Node2 -->
<g id="edge1" class="edge">
<title>Node1&#45;&gt;Node2</title>
<path fill="none" stroke="midnightblue" d="M142.07,-88.5C150.54,-88.5 159.25,-88.5 167.85,-88.5"/>
<polygon fill="midnightblue" stroke="midnightblue" points="167.89,-92 177.89,-88.5 167.89,-85 167.89,-92"/>
</g>
<!-- Node3 -->
<g id="node3" class="node">
<title>Node3</title>
<g id="a_node3"><a xlink:href="classv8_1_1PersistentValueMapBase.html#a149e5b7f40fa52dc9b379342ac802d94" target="_top" xlink:title=" ">
<polygon fill="white" stroke="black" points="356,-98.5 356,-128.5 498,-128.5 498,-98.5 356,-98.5"/>
<text text-anchor="start" x="364" y="-116.5" font-family="Helvetica,sans-Serif" font-size="10.00">v8::PersistentValueMapBase</text>
<text text-anchor="middle" x="427" y="-105.5" font-family="Helvetica,sans-Serif" font-size="10.00">::impl</text>
</a>
</g>
</g>
<!-- Node2&#45;&gt;Node3 -->
<g id="edge2" class="edge">
<title>Node2&#45;&gt;Node3</title>
<path fill="none" stroke="midnightblue" d="M320.07,-98.45C328.54,-99.66 337.25,-100.89 345.85,-102.12"/>
<polygon fill="midnightblue" stroke="midnightblue" points="345.5,-105.6 355.89,-103.54 346.48,-98.67 345.5,-105.6"/>
</g>
<!-- Node4 -->
<g id="node4" class="node">
<title>Node4</title>
<g id="a_node4"><a xlink:href="classv8_1_1PersistentValueMapBase.html#a1cc8230f09ebf3498aaff7e718d2f052" target="_top" xlink:title=" ">
<polygon fill="white" stroke="black" points="356,-49.5 356,-79.5 498,-79.5 498,-49.5 356,-49.5"/>
<text text-anchor="start" x="364" y="-67.5" font-family="Helvetica,sans-Serif" font-size="10.00">v8::PersistentValueMapBase</text>
<text text-anchor="middle" x="427" y="-56.5" font-family="Helvetica,sans-Serif" font-size="10.00">::Release</text>
</a>
</g>
</g>
<!-- Node2&#45;&gt;Node4 -->
<g id="edge3" class="edge">
<title>Node2&#45;&gt;Node4</title>
<path fill="none" stroke="midnightblue" d="M320.07,-78.95C328.54,-77.79 337.25,-76.6 345.85,-75.43"/>
<polygon fill="midnightblue" stroke="midnightblue" points="346.45,-78.88 355.89,-74.06 345.51,-71.94 346.45,-78.88"/>
</g>
<!-- Node5 -->
<g id="node5" class="node">
<title>Node5</title>
<g id="a_node5"><a xlink:href="classv8_1_1PersistentValueMapBase.html#abb262f768e4353658726ba4d1295947c" target="_top" xlink:title=" ">
<polygon fill="white" stroke="black" points="534,-98.5 534,-128.5 676,-128.5 676,-98.5 534,-98.5"/>
<text text-anchor="start" x="542" y="-116.5" font-family="Helvetica,sans-Serif" font-size="10.00">v8::PersistentValueMapBase</text>
<text text-anchor="middle" x="605" y="-105.5" font-family="Helvetica,sans-Serif" font-size="10.00">::FromVal</text>
</a>
</g>
</g>
<!-- Node4&#45;&gt;Node5 -->
<g id="edge4" class="edge">
<title>Node4&#45;&gt;Node5</title>
<path fill="none" stroke="midnightblue" d="M482.24,-79.6C500.56,-84.7 521.18,-90.44 540.17,-95.73"/>
<polygon fill="midnightblue" stroke="midnightblue" points="539.36,-99.14 549.94,-98.45 541.24,-92.39 539.36,-99.14"/>
</g>
<!-- Node6 -->
<g id="node6" class="node">
<title>Node6</title>
<g id="a_node6"><a xlink:href="classv8_1_1PersistentBase.html#a479c7b146da083aa608e133a7dec79f9" target="_top" xlink:title=" ">
<polygon fill="white" stroke="black" points="556,-49.5 556,-79.5 654,-79.5 654,-49.5 556,-49.5"/>
<text text-anchor="start" x="564" y="-67.5" font-family="Helvetica,sans-Serif" font-size="10.00">v8::PersistentBase</text>
<text text-anchor="middle" x="605" y="-56.5" font-family="Helvetica,sans-Serif" font-size="10.00">::IsWeak</text>
</a>
</g>
</g>
<!-- Node4&#45;&gt;Node6 -->
<g id="edge5" class="edge">
<title>Node4&#45;&gt;Node6</title>
<path fill="none" stroke="midnightblue" d="M498.07,-64.5C513.8,-64.5 530.33,-64.5 545.53,-64.5"/>
<polygon fill="midnightblue" stroke="midnightblue" points="545.82,-68 555.82,-64.5 545.82,-61 545.82,-68"/>
</g>
<!-- Node7 -->
<g id="node7" class="node">
<title>Node7</title>
<g id="a_node7"><a xlink:href="classv8_1_1UniquePersistent.html#ace8f7fa76e5d36afd3ae8ee94acff00f" target="_top" xlink:title=" ">
<polygon fill="white" stroke="black" points="551.5,-0.5 551.5,-30.5 658.5,-30.5 658.5,-0.5 551.5,-0.5"/>
<text text-anchor="start" x="559.5" y="-18.5" font-family="Helvetica,sans-Serif" font-size="10.00">v8::UniquePersistent</text>
<text text-anchor="middle" x="605" y="-7.5" font-family="Helvetica,sans-Serif" font-size="10.00">::Pass</text>
</a>
</g>
</g>
<!-- Node4&#45;&gt;Node7 -->
<g id="edge6" class="edge">
<title>Node4&#45;&gt;Node7</title>
<path fill="none" stroke="midnightblue" d="M482.24,-49.4C501.08,-44.15 522.35,-38.23 541.78,-32.82"/>
<polygon fill="midnightblue" stroke="midnightblue" points="542.75,-36.19 551.45,-30.13 540.87,-29.44 542.75,-36.19"/>
</g>
<!-- Node8 -->
<g id="node8" class="node">
<title>Node8</title>
<g id="a_node8"><a xlink:href="classv8_1_1UniquePersistent.html#aace7c7db62ee4649d532e37c52d4dff8" target="_top" xlink:title=" ">
<polygon fill="white" stroke="black" points="712,-0.5 712,-30.5 819,-30.5 819,-0.5 712,-0.5"/>
<text text-anchor="start" x="720" y="-18.5" font-family="Helvetica,sans-Serif" font-size="10.00">v8::UniquePersistent</text>
<text text-anchor="middle" x="765.5" y="-7.5" font-family="Helvetica,sans-Serif" font-size="10.00">::UniquePersistent</text>
</a>
</g>
</g>
<!-- Node7&#45;&gt;Node8 -->
<g id="edge7" class="edge">
<title>Node7&#45;&gt;Node8</title>
<path fill="none" stroke="midnightblue" d="M658.78,-15.5C672.55,-15.5 687.52,-15.5 701.75,-15.5"/>
<polygon fill="midnightblue" stroke="midnightblue" points="701.95,-19 711.95,-15.5 701.95,-12 701.95,-19"/>
</g>
</g>
</svg>
