<?xml version="1.0" encoding="UTF-8" standalone="no"?>
<!DOCTYPE svg PUBLIC "-//W3C//DTD SVG 1.1//EN"
 "http://www.w3.org/Graphics/SVG/1.1/DTD/svg11.dtd">
<!-- Generated by graphviz version 2.49.3 (20211027.1534)
 -->
<!-- Title: v8::PersistentBase::IsWeak Pages: 1 -->
<svg width="640pt" height="186pt"
 viewBox="0.00 0.00 640.00 186.00" xmlns="http://www.w3.org/2000/svg" xmlns:xlink="http://www.w3.org/1999/xlink">
<g id="graph0" class="graph" transform="scale(1 1) rotate(0) translate(4 182)">
<title>v8::PersistentBase::IsWeak</title>
<polygon fill="white" stroke="transparent" points="-4,4 -4,-182 636,-182 636,4 -4,4"/>
<!-- Node1 -->
<g id="node1" class="node">
<title>Node1</title>
<g id="a_node1"><a xlink:title=" ">
<polygon fill="#bfbfbf" stroke="black" points="534,-73.5 534,-103.5 632,-103.5 632,-73.5 534,-73.5"/>
<text text-anchor="start" x="542" y="-91.5" font-family="Helvetica,sans-Serif" font-size="10.00">v8::PersistentBase</text>
<text text-anchor="middle" x="583" y="-80.5" font-family="Helvetica,sans-Serif" font-size="10.00">::IsWeak</text>
</a>
</g>
</g>
<!-- Node2 -->
<g id="node2" class="node">
<title>Node2</title>
<g id="a_node2"><a xlink:href="classv8_1_1PersistentValueMapBase.html#a1cc8230f09ebf3498aaff7e718d2f052" target="_top" xlink:title=" ">
<polygon fill="white" stroke="black" points="356,-73.5 356,-103.5 498,-103.5 498,-73.5 356,-73.5"/>
<text text-anchor="start" x="364" y="-91.5" font-family="Helvetica,sans-Serif" font-size="10.00">v8::PersistentValueMapBase</text>
<text text-anchor="middle" x="427" y="-80.5" font-family="Helvetica,sans-Serif" font-size="10.00">::Release</text>
</a>
</g>
</g>
<!-- Node1&#45;&gt;Node2 -->
<g id="edge1" class="edge">
<title>Node1&#45;&gt;Node2</title>
<path fill="none" stroke="midnightblue" d="M523.69,-88.5C515.34,-88.5 506.68,-88.5 498.13,-88.5"/>
<polygon fill="midnightblue" stroke="midnightblue" points="523.7,-92 533.7,-88.5 523.7,-85 523.7,-92"/>
</g>
<!-- Node3 -->
<g id="node3" class="node">
<title>Node3</title>
<g id="a_node3"><a xlink:href="classv8_1_1PersistentValueMapBase.html#a1bf074e7a7c24713c9a3d40ddce89e74" target="_top" xlink:title=" ">
<polygon fill="white" stroke="black" points="178,-147.5 178,-177.5 320,-177.5 320,-147.5 178,-147.5"/>
<text text-anchor="start" x="186" y="-165.5" font-family="Helvetica,sans-Serif" font-size="10.00">v8::PersistentValueMapBase</text>
<text text-anchor="middle" x="249" y="-154.5" font-family="Helvetica,sans-Serif" font-size="10.00">::Clear</text>
</a>
</g>
</g>
<!-- Node2&#45;&gt;Node3 -->
<g id="edge2" class="edge">
<title>Node2&#45;&gt;Node3</title>
<path fill="none" stroke="midnightblue" d="M387.19,-108.07C367.33,-117.76 342.62,-129.32 320,-138.5 312.38,-141.59 304.2,-144.64 296.21,-147.47"/>
<polygon fill="midnightblue" stroke="midnightblue" points="388.81,-111.17 396.24,-103.62 385.72,-104.89 388.81,-111.17"/>
</g>
<!-- Node5 -->
<g id="node5" class="node">
<title>Node5</title>
<g id="a_node5"><a xlink:href="classv8_1_1PersistentValueMapBase.html#a8d2d423674cb9c939e6a94992eb1c6f4" target="_top" xlink:title=" ">
<polygon fill="white" stroke="black" points="178,-98.5 178,-128.5 320,-128.5 320,-98.5 178,-98.5"/>
<text text-anchor="start" x="186" y="-116.5" font-family="Helvetica,sans-Serif" font-size="10.00">v8::PersistentValueMapBase</text>
<text text-anchor="middle" x="249" y="-105.5" font-family="Helvetica,sans-Serif" font-size="10.00">::Remove</text>
</a>
</g>
</g>
<!-- Node2&#45;&gt;Node5 -->
<g id="edge4" class="edge">
<title>Node2&#45;&gt;Node5</title>
<path fill="none" stroke="midnightblue" d="M345.9,-99.88C337.29,-101.1 328.59,-102.34 320.11,-103.54"/>
<polygon fill="midnightblue" stroke="midnightblue" points="346.53,-103.32 355.93,-98.45 345.54,-96.39 346.53,-103.32"/>
</g>
<!-- Node6 -->
<g id="node6" class="node">
<title>Node6</title>
<g id="a_node6"><a xlink:href="classv8_1_1PersistentValueMap.html#aee5c2b20750be1bd28746cd06bbf4a1e" target="_top" xlink:title=" ">
<polygon fill="white" stroke="black" points="189.5,-49.5 189.5,-79.5 308.5,-79.5 308.5,-49.5 189.5,-49.5"/>
<text text-anchor="start" x="197.5" y="-67.5" font-family="Helvetica,sans-Serif" font-size="10.00">v8::PersistentValueMap</text>
<text text-anchor="middle" x="249" y="-56.5" font-family="Helvetica,sans-Serif" font-size="10.00">::SetUnique</text>
</a>
</g>
</g>
<!-- Node2&#45;&gt;Node6 -->
<g id="edge5" class="edge">
<title>Node2&#45;&gt;Node6</title>
<path fill="none" stroke="midnightblue" d="M345.9,-77.58C333.3,-75.86 320.49,-74.11 308.5,-72.48"/>
<polygon fill="midnightblue" stroke="midnightblue" points="345.55,-81.06 355.93,-78.95 346.5,-74.13 345.55,-81.06"/>
</g>
<!-- Node8 -->
<g id="node8" class="node">
<title>Node8</title>
<g id="a_node8"><a xlink:href="classv8_1_1PhantomPersistentValueMap.html#a2c610d2c5a82641b545b3ffc9b9010b0" target="_top" xlink:title=" ">
<polygon fill="white" stroke="black" points="179,-0.5 179,-30.5 319,-30.5 319,-0.5 179,-0.5"/>
<text text-anchor="start" x="187" y="-18.5" font-family="Helvetica,sans-Serif" font-size="10.00">v8::PhantomPersistentValue</text>
<text text-anchor="middle" x="249" y="-7.5" font-family="Helvetica,sans-Serif" font-size="10.00">Map::SetUnique</text>
</a>
</g>
</g>
<!-- Node2&#45;&gt;Node8 -->
<g id="edge7" class="edge">
<title>Node2&#45;&gt;Node8</title>
<path fill="none" stroke="midnightblue" d="M386.02,-68.84C366.35,-59.47 342.15,-48.39 320,-39.5 312.37,-36.44 304.18,-33.41 296.19,-30.58"/>
<polygon fill="midnightblue" stroke="midnightblue" points="384.76,-72.11 395.29,-73.29 387.79,-65.8 384.76,-72.11"/>
</g>
<!-- Node4 -->
<g id="node4" class="node">
<title>Node4</title>
<g id="a_node4"><a xlink:href="classv8_1_1PersistentValueMapBase.html#a558a88d9caba29448265225a1d780c1d" target="_top" xlink:title=" ">
<polygon fill="white" stroke="black" points="0,-147.5 0,-177.5 142,-177.5 142,-147.5 0,-147.5"/>
<text text-anchor="start" x="8" y="-165.5" font-family="Helvetica,sans-Serif" font-size="10.00">v8::PersistentValueMapBase</text>
<text text-anchor="middle" x="71" y="-154.5" font-family="Helvetica,sans-Serif" font-size="10.00">::~PersistentValueMapBase</text>
</a>
</g>
</g>
<!-- Node3&#45;&gt;Node4 -->
<g id="edge3" class="edge">
<title>Node3&#45;&gt;Node4</title>
<path fill="none" stroke="midnightblue" d="M167.9,-162.5C159.29,-162.5 150.59,-162.5 142.11,-162.5"/>
<polygon fill="midnightblue" stroke="midnightblue" points="167.93,-166 177.93,-162.5 167.93,-159 167.93,-166"/>
</g>
<!-- Node7 -->
<g id="node7" class="node">
<title>Node7</title>
<g id="a_node7"><a xlink:href="classv8_1_1PersistentValueMap.html#a2b70a88eaae80d4f39e6d689b385c097" target="_top" xlink:title=" ">
<polygon fill="white" stroke="black" points="1.5,-55 1.5,-74 140.5,-74 140.5,-55 1.5,-55"/>
<text text-anchor="middle" x="71" y="-62" font-family="Helvetica,sans-Serif" font-size="10.00">v8::PersistentValueMap::Set</text>
</a>
</g>
</g>
<!-- Node6&#45;&gt;Node7 -->
<g id="edge6" class="edge">
<title>Node6&#45;&gt;Node7</title>
<path fill="none" stroke="midnightblue" d="M179.36,-64.5C166.67,-64.5 153.41,-64.5 140.72,-64.5"/>
<polygon fill="midnightblue" stroke="midnightblue" points="179.39,-68 189.39,-64.5 179.39,-61 179.39,-68"/>
</g>
<!-- Node9 -->
<g id="node9" class="node">
<title>Node9</title>
<g id="a_node9"><a xlink:href="classv8_1_1PhantomPersistentValueMap.html#a1d7559a0ad8dcdd31cebaff16c4596bd" target="_top" xlink:title=" ">
<polygon fill="white" stroke="black" points="1,-0.5 1,-30.5 141,-30.5 141,-0.5 1,-0.5"/>
<text text-anchor="start" x="9" y="-18.5" font-family="Helvetica,sans-Serif" font-size="10.00">v8::PhantomPersistentValue</text>
<text text-anchor="middle" x="71" y="-7.5" font-family="Helvetica,sans-Serif" font-size="10.00">Map::Set</text>
</a>
</g>
</g>
<!-- Node8&#45;&gt;Node9 -->
<g id="edge8" class="edge">
<title>Node8&#45;&gt;Node9</title>
<path fill="none" stroke="midnightblue" d="M168.66,-15.5C159.48,-15.5 150.17,-15.5 141.14,-15.5"/>
<polygon fill="midnightblue" stroke="midnightblue" points="168.95,-19 178.95,-15.5 168.95,-12 168.95,-19"/>
</g>
</g>
</svg>
