<?xml version="1.0" encoding="UTF-8" standalone="no"?>
<!DOCTYPE svg PUBLIC "-//W3C//DTD SVG 1.1//EN"
 "http://www.w3.org/Graphics/SVG/1.1/DTD/svg11.dtd">
<!-- Generated by graphviz version 2.49.3 (20211027.1534)
 -->
<!-- Title: v8::IndexedPropertyHandlerConfiguration Pages: 1 -->
<svg width="710pt" height="237pt"
 viewBox="0.00 0.00 710.00 236.50" xmlns="http://www.w3.org/2000/svg" xmlns:xlink="http://www.w3.org/1999/xlink">
<g id="graph0" class="graph" transform="scale(1 1) rotate(0) translate(4 232.5)">
<title>v8::IndexedPropertyHandlerConfiguration</title>
<polygon fill="white" stroke="transparent" points="-4,4 -4,-232.5 706,-232.5 706,4 -4,4"/>
<!-- Node1 -->
<g id="node1" class="node">
<title>Node1</title>
<g id="a_node1"><a xlink:title=" ">
<polygon fill="#bfbfbf" stroke="black" points="567,-100 567,-130 702,-130 702,-100 567,-100"/>
<text text-anchor="start" x="575" y="-118" font-family="Helvetica,sans-Serif" font-size="10.00">v8::IndexedPropertyHandler</text>
<text text-anchor="middle" x="634.5" y="-107" font-family="Helvetica,sans-Serif" font-size="10.00">Configuration</text>
</a>
</g>
</g>
<!-- Node2 -->
<g id="node2" class="node">
<title>Node2</title>
<g id="a_node2"><a xlink:href="classv8_1_1PropertyCallbackInfo.html" target="_top" xlink:title=" ">
<polygon fill="white" stroke="black" points="357,-198 357,-228 479,-228 479,-198 357,-198"/>
<text text-anchor="start" x="365" y="-216" font-family="Helvetica,sans-Serif" font-size="10.00">v8::PropertyCallbackInfo</text>
<text text-anchor="middle" x="418" y="-205" font-family="Helvetica,sans-Serif" font-size="10.00">&lt; Value &gt;</text>
</a>
</g>
</g>
<!-- Node2&#45;&gt;Node1 -->
<g id="edge1" class="edge">
<title>Node2&#45;&gt;Node1</title>
<path fill="none" stroke="#9a32cd" stroke-dasharray="5,2" d="M466.22,-194.17C470.54,-192.43 474.85,-190.69 479,-189 510.19,-176.3 518.55,-174.38 549,-160 568.69,-150.71 590.35,-139.14 606.82,-130.06"/>
<polygon fill="#9a32cd" stroke="#9a32cd" points="464.77,-190.99 456.8,-197.96 467.38,-197.48 464.77,-190.99"/>
<text text-anchor="middle" x="523" y="-184" font-family="Helvetica,sans-Serif" font-size="10.00"> getter</text>
</g>
<!-- Node3 -->
<g id="node3" class="node">
<title>Node3</title>
<g id="a_node3"><a xlink:href="classv8_1_1PropertyCallbackInfo.html" target="_top" xlink:title=" ">
<polygon fill="white" stroke="black" points="122,-129.5 122,-148.5 266,-148.5 266,-129.5 122,-129.5"/>
<text text-anchor="middle" x="194" y="-136.5" font-family="Helvetica,sans-Serif" font-size="10.00">v8::PropertyCallbackInfo&lt; T &gt;</text>
</a>
</g>
</g>
<!-- Node3&#45;&gt;Node2 -->
<g id="edge2" class="edge">
<title>Node3&#45;&gt;Node2</title>
<path fill="none" stroke="orange" stroke-dasharray="5,2" d="M231.4,-151.89C247.49,-157.53 266.66,-164.18 284,-170 312.3,-179.5 344.1,-189.8 369.52,-197.93"/>
<polygon fill="orange" stroke="orange" points="232.41,-148.53 221.82,-148.52 230.09,-155.14 232.41,-148.53"/>
<text text-anchor="middle" x="311.5" y="-191" font-family="Helvetica,sans-Serif" font-size="10.00"> &lt; Value &gt;</text>
</g>
<!-- Node8 -->
<g id="node8" class="node">
<title>Node8</title>
<g id="a_node8"><a xlink:href="classv8_1_1PropertyCallbackInfo.html" target="_top" xlink:title=" ">
<polygon fill="white" stroke="black" points="357,-149 357,-179 479,-179 479,-149 357,-149"/>
<text text-anchor="start" x="365" y="-167" font-family="Helvetica,sans-Serif" font-size="10.00">v8::PropertyCallbackInfo</text>
<text text-anchor="middle" x="418" y="-156" font-family="Helvetica,sans-Serif" font-size="10.00">&lt; Integer &gt;</text>
</a>
</g>
</g>
<!-- Node3&#45;&gt;Node8 -->
<g id="edge8" class="edge">
<title>Node3&#45;&gt;Node8</title>
<path fill="none" stroke="orange" stroke-dasharray="5,2" d="M276.22,-148.15C302.83,-151.14 331.9,-154.42 356.68,-157.21"/>
<polygon fill="orange" stroke="orange" points="276.49,-144.65 266.16,-147.01 275.7,-151.61 276.49,-144.65"/>
<text text-anchor="middle" x="311.5" y="-158" font-family="Helvetica,sans-Serif" font-size="10.00"> &lt; Integer &gt;</text>
</g>
<!-- Node9 -->
<g id="node9" class="node">
<title>Node9</title>
<g id="a_node9"><a xlink:href="classv8_1_1PropertyCallbackInfo.html" target="_top" xlink:title=" ">
<polygon fill="white" stroke="black" points="357,-100 357,-130 479,-130 479,-100 357,-100"/>
<text text-anchor="start" x="365" y="-118" font-family="Helvetica,sans-Serif" font-size="10.00">v8::PropertyCallbackInfo</text>
<text text-anchor="middle" x="418" y="-107" font-family="Helvetica,sans-Serif" font-size="10.00">&lt; Boolean &gt;</text>
</a>
</g>
</g>
<!-- Node3&#45;&gt;Node9 -->
<g id="edge10" class="edge">
<title>Node3&#45;&gt;Node9</title>
<path fill="none" stroke="orange" stroke-dasharray="5,2" d="M273.52,-128.22C277.06,-127.8 280.56,-127.39 284,-127 307.73,-124.33 333.89,-121.87 356.69,-119.88"/>
<polygon fill="orange" stroke="orange" points="272.97,-124.76 263.47,-129.46 273.83,-131.71 272.97,-124.76"/>
<text text-anchor="middle" x="311.5" y="-130" font-family="Helvetica,sans-Serif" font-size="10.00"> &lt; Boolean &gt;</text>
</g>
<!-- Node10 -->
<g id="node10" class="node">
<title>Node10</title>
<g id="a_node10"><a xlink:href="classv8_1_1PropertyCallbackInfo.html" target="_top" xlink:title=" ">
<polygon fill="white" stroke="black" points="357,-51 357,-81 479,-81 479,-51 357,-51"/>
<text text-anchor="start" x="365" y="-69" font-family="Helvetica,sans-Serif" font-size="10.00">v8::PropertyCallbackInfo</text>
<text text-anchor="middle" x="418" y="-58" font-family="Helvetica,sans-Serif" font-size="10.00">&lt; Array &gt;</text>
</a>
</g>
</g>
<!-- Node3&#45;&gt;Node10 -->
<g id="edge12" class="edge">
<title>Node3&#45;&gt;Node10</title>
<path fill="none" stroke="orange" stroke-dasharray="5,2" d="M229.15,-125.76C245.64,-119.52 265.76,-112.12 284,-106 310.29,-97.18 339.8,-88.22 364.33,-81.01"/>
<polygon fill="orange" stroke="orange" points="227.51,-122.65 219.41,-129.48 230,-129.19 227.51,-122.65"/>
<text text-anchor="middle" x="311.5" y="-109" font-family="Helvetica,sans-Serif" font-size="10.00"> &lt; Array &gt;</text>
</g>
<!-- Node4 -->
<g id="node4" class="node">
<title>Node4</title>
<g id="a_node4"><a xlink:href="classv8_1_1Local.html" target="_top" xlink:title=" ">
<polygon fill="white" stroke="black" points="369.5,-12.5 369.5,-31.5 466.5,-31.5 466.5,-12.5 369.5,-12.5"/>
<text text-anchor="middle" x="418" y="-19.5" font-family="Helvetica,sans-Serif" font-size="10.00">v8::Local&lt; Value &gt;</text>
</a>
</g>
</g>
<!-- Node4&#45;&gt;Node1 -->
<g id="edge3" class="edge">
<title>Node4&#45;&gt;Node1</title>
<path fill="none" stroke="#9a32cd" stroke-dasharray="5,2" d="M458.52,-34.88C465.37,-37.2 472.4,-39.63 479,-42 510.38,-53.28 518.74,-55 549,-69 569.16,-78.33 591.18,-90.38 607.69,-99.81"/>
<polygon fill="#9a32cd" stroke="#9a32cd" points="459.29,-31.45 448.7,-31.6 457.07,-38.09 459.29,-31.45"/>
<text text-anchor="middle" x="523" y="-72" font-family="Helvetica,sans-Serif" font-size="10.00"> setter</text>
</g>
<!-- Node5 -->
<g id="node5" class="node">
<title>Node5</title>
<g id="a_node5"><a xlink:href="classv8_1_1Handle.html" target="_top" xlink:title=" ">
<polygon fill="white" stroke="black" points="151.5,-38.5 151.5,-57.5 236.5,-57.5 236.5,-38.5 151.5,-38.5"/>
<text text-anchor="middle" x="194" y="-45.5" font-family="Helvetica,sans-Serif" font-size="10.00">v8::Handle&lt; T &gt;</text>
</a>
</g>
</g>
<!-- Node5&#45;&gt;Node4 -->
<g id="edge4" class="edge">
<title>Node5&#45;&gt;Node4</title>
<path fill="none" stroke="midnightblue" d="M246.79,-43.06C274.23,-40.33 308.47,-36.74 339,-33 348.77,-31.8 359.22,-30.41 369.19,-29.02"/>
<polygon fill="midnightblue" stroke="midnightblue" points="246.24,-39.6 236.63,-44.07 246.93,-46.57 246.24,-39.6"/>
</g>
<!-- Node6 -->
<g id="node6" class="node">
<title>Node6</title>
<g id="a_node6"><a xlink:href="classv8_1_1Local.html" target="_top" xlink:title=" ">
<polygon fill="white" stroke="black" points="155,-0.5 155,-19.5 233,-19.5 233,-0.5 155,-0.5"/>
<text text-anchor="middle" x="194" y="-7.5" font-family="Helvetica,sans-Serif" font-size="10.00">v8::Local&lt; T &gt;</text>
</a>
</g>
</g>
<!-- Node6&#45;&gt;Node4 -->
<g id="edge5" class="edge">
<title>Node6&#45;&gt;Node4</title>
<path fill="none" stroke="orange" stroke-dasharray="5,2" d="M243.3,-12.61C280.65,-14.63 332.09,-17.41 369.29,-19.42"/>
<polygon fill="orange" stroke="orange" points="243.34,-9.11 233.16,-12.06 242.96,-16.1 243.34,-9.11"/>
<text text-anchor="middle" x="311.5" y="-21" font-family="Helvetica,sans-Serif" font-size="10.00"> &lt; Value &gt;</text>
</g>
<!-- Node7 -->
<g id="node7" class="node">
<title>Node7</title>
<g id="a_node7"><a xlink:href="classv8_1_1Handle.html" target="_top" xlink:title=" ">
<polygon fill="white" stroke="black" points="0,-0.5 0,-19.5 85,-19.5 85,-0.5 0,-0.5"/>
<text text-anchor="middle" x="42.5" y="-7.5" font-family="Helvetica,sans-Serif" font-size="10.00">v8::Handle&lt; T &gt;</text>
</a>
</g>
</g>
<!-- Node7&#45;&gt;Node6 -->
<g id="edge6" class="edge">
<title>Node7&#45;&gt;Node6</title>
<path fill="none" stroke="midnightblue" d="M95.16,-10C114.78,-10 136.76,-10 154.9,-10"/>
<polygon fill="midnightblue" stroke="midnightblue" points="95.14,-6.5 85.14,-10 95.14,-13.5 95.14,-6.5"/>
</g>
<!-- Node8&#45;&gt;Node1 -->
<g id="edge7" class="edge">
<title>Node8&#45;&gt;Node1</title>
<path fill="none" stroke="#9a32cd" stroke-dasharray="5,2" d="M488.95,-148.02C514.31,-142.23 542.85,-135.71 567.83,-130"/>
<polygon fill="#9a32cd" stroke="#9a32cd" points="488,-144.65 479.04,-150.29 489.56,-151.47 488,-144.65"/>
<text text-anchor="middle" x="523" y="-148" font-family="Helvetica,sans-Serif" font-size="10.00"> query</text>
</g>
<!-- Node9&#45;&gt;Node1 -->
<g id="edge9" class="edge">
<title>Node9&#45;&gt;Node1</title>
<path fill="none" stroke="#9a32cd" stroke-dasharray="5,2" d="M489.15,-115C514.07,-115 542.05,-115 566.69,-115"/>
<polygon fill="#9a32cd" stroke="#9a32cd" points="489.04,-111.5 479.04,-115 489.04,-118.5 489.04,-111.5"/>
<text text-anchor="middle" x="523" y="-118" font-family="Helvetica,sans-Serif" font-size="10.00"> deleter</text>
</g>
<!-- Node10&#45;&gt;Node1 -->
<g id="edge11" class="edge">
<title>Node10&#45;&gt;Node1</title>
<path fill="none" stroke="#9a32cd" stroke-dasharray="5,2" d="M488.95,-81.98C514.31,-87.77 542.85,-94.29 567.83,-100"/>
<polygon fill="#9a32cd" stroke="#9a32cd" points="489.56,-78.53 479.04,-79.71 488,-85.35 489.56,-78.53"/>
<text text-anchor="middle" x="523" y="-97" font-family="Helvetica,sans-Serif" font-size="10.00"> enumerator</text>
</g>
</g>
</svg>
