<?xml version="1.0" encoding="UTF-8" standalone="no"?>
<!DOCTYPE svg PUBLIC "-//W3C//DTD SVG 1.1//EN"
 "http://www.w3.org/Graphics/SVG/1.1/DTD/svg11.dtd">
<!-- Generated by graphviz version 8.0.5 (20230430.1635)
 -->
<!-- Title: include/cppgc/internal/caged&#45;heap&#45;local&#45;data.h Pages: 1 -->
<svg width="1164pt" height="459pt"
 viewBox="0.00 0.00 1163.75 459.00" xmlns="http://www.w3.org/2000/svg" xmlns:xlink="http://www.w3.org/1999/xlink">
<g id="graph0" class="graph" transform="scale(1 1) rotate(0) translate(4 455)">
<title>include/cppgc/internal/caged&#45;heap&#45;local&#45;data.h</title>
<!-- Node1 -->
<g id="node1" class="node">
<title>Node1</title>
<g id="a_node1"><a xlink:title=" ">
<polygon fill="#999999" stroke="#666666" points="289.38,-451 167.62,-451 167.62,-420.5 289.38,-420.5 289.38,-451"/>
<text text-anchor="start" x="175.62" y="-437.5" font-family="Helvetica,sans-Serif" font-size="10.00">include/cppgc/internal</text>
<text text-anchor="middle" x="228.5" y="-426.25" font-family="Helvetica,sans-Serif" font-size="10.00">/caged&#45;heap&#45;local&#45;data.h</text>
</a>
</g>
</g>
<!-- Node2 -->
<g id="node2" class="node">
<title>Node2</title>
<g id="a_node2"><a xlink:title=" ">
<polygon fill="#e0e0e0" stroke="#999999" points="37,-378.88 0,-378.88 0,-359.62 37,-359.62 37,-378.88"/>
<text text-anchor="middle" x="18.5" y="-365.38" font-family="Helvetica,sans-Serif" font-size="10.00">array</text>
</a>
</g>
</g>
<!-- Node1&#45;&gt;Node2 -->
<g id="edge1" class="edge">
<title>Node1&#45;&gt;Node2</title>
<path fill="none" stroke="#63b8ff" d="M169.29,-420.02C134.61,-410.88 90.17,-398.27 51.5,-384.5 50.03,-383.98 48.53,-383.42 47.03,-382.84"/>
<polygon fill="#63b8ff" stroke="#63b8ff" points="48.76,-379.36 38.18,-378.82 46.11,-385.84 48.76,-379.36"/>
</g>
<!-- Node3 -->
<g id="node3" class="node">
<title>Node3</title>
<g id="a_node3"><a xlink:title=" ">
<polygon fill="#e0e0e0" stroke="#999999" points="181.62,-74.5 133.38,-74.5 133.38,-55.25 181.62,-55.25 181.62,-74.5"/>
<text text-anchor="middle" x="157.5" y="-61" font-family="Helvetica,sans-Serif" font-size="10.00">cstddef</text>
</a>
</g>
</g>
<!-- Node1&#45;&gt;Node3 -->
<g id="edge2" class="edge">
<title>Node1&#45;&gt;Node3</title>
<path fill="none" stroke="#63b8ff" d="M182.66,-420.08C134.45,-401.43 65.5,-364.2 65.5,-303.75 65.5,-303.75 65.5,-303.75 65.5,-174.38 65.5,-132.84 105.2,-99.05 132.44,-80.76"/>
<polygon fill="#63b8ff" stroke="#63b8ff" points="133.96,-83.3 140.47,-74.95 130.17,-77.42 133.96,-83.3"/>
</g>
<!-- Node4 -->
<g id="node4" class="node">
<title>Node4</title>
<g id="a_node4"><a xlink:title=" ">
<polygon fill="#e0e0e0" stroke="#999999" points="181.12,-185 135.88,-185 135.88,-165.75 181.12,-165.75 181.12,-185"/>
<text text-anchor="middle" x="158.5" y="-171.5" font-family="Helvetica,sans-Serif" font-size="10.00">cstdint</text>
</a>
</g>
</g>
<!-- Node1&#45;&gt;Node4 -->
<g id="edge3" class="edge">
<title>Node1&#45;&gt;Node4</title>
<path fill="none" stroke="#63b8ff" d="M221.11,-420.03C206.24,-389.53 173.05,-316.82 160.5,-251.5 156.93,-232.9 156.76,-211.23 157.29,-195.96"/>
<polygon fill="#63b8ff" stroke="#63b8ff" points="160.82,-196.42 157.81,-186.27 153.83,-196.08 160.82,-196.42"/>
</g>
<!-- Node5 -->
<g id="node5" class="node">
<title>Node5</title>
<g id="a_node5"><a xlink:href="api-constants_8h.html" target="_top" xlink:title=" ">
<polygon fill="white" stroke="#666666" points="261.75,-251.5 169.25,-251.5 169.25,-221 261.75,-221 261.75,-251.5"/>
<text text-anchor="start" x="177.25" y="-238" font-family="Helvetica,sans-Serif" font-size="10.00">cppgc/internal/api</text>
<text text-anchor="middle" x="215.5" y="-226.75" font-family="Helvetica,sans-Serif" font-size="10.00">&#45;constants.h</text>
</a>
</g>
</g>
<!-- Node1&#45;&gt;Node5 -->
<g id="edge4" class="edge">
<title>Node1&#45;&gt;Node5</title>
<path fill="none" stroke="#63b8ff" d="M224.15,-420.4C221.36,-410.43 217.99,-396.79 216.5,-384.5 211.36,-342.12 212.5,-292.37 213.92,-262.9"/>
<polygon fill="#63b8ff" stroke="#63b8ff" points="217.46,-263.12 214.5,-252.95 210.47,-262.75 217.46,-263.12"/>
</g>
<!-- Node6 -->
<g id="node6" class="node">
<title>Node6</title>
<g id="a_node6"><a xlink:href="v8config_8h.html" target="_top" xlink:title=" ">
<polygon fill="white" stroke="#666666" points="537.25,-74.5 477.75,-74.5 477.75,-55.25 537.25,-55.25 537.25,-74.5"/>
<text text-anchor="middle" x="507.5" y="-61" font-family="Helvetica,sans-Serif" font-size="10.00">v8config.h</text>
</a>
</g>
</g>
<!-- Node1&#45;&gt;Node6 -->
<g id="edge41" class="edge">
<title>Node1&#45;&gt;Node6</title>
<path fill="none" stroke="#63b8ff" d="M289.81,-425.34C376.45,-408.27 530.93,-363.01 591.5,-251.5 597.97,-239.59 597.44,-233.19 591.5,-221 580.13,-197.66 560.32,-206.31 545.5,-185 523.98,-154.06 514.17,-110.31 510.09,-85.34"/>
<polygon fill="#63b8ff" stroke="#63b8ff" points="513.44,-85.11 508.52,-75.74 506.52,-86.14 513.44,-85.11"/>
</g>
<!-- Node8 -->
<g id="node8" class="node">
<title>Node8</title>
<g id="a_node8"><a xlink:href="caged-heap_8h.html" target="_top" xlink:title=" ">
<polygon fill="white" stroke="#666666" points="331.5,-384.5 225.5,-384.5 225.5,-354 331.5,-354 331.5,-384.5"/>
<text text-anchor="start" x="233.5" y="-371" font-family="Helvetica,sans-Serif" font-size="10.00">cppgc/internal/caged</text>
<text text-anchor="middle" x="278.5" y="-359.75" font-family="Helvetica,sans-Serif" font-size="10.00">&#45;heap.h</text>
</a>
</g>
</g>
<!-- Node1&#45;&gt;Node8 -->
<g id="edge9" class="edge">
<title>Node1&#45;&gt;Node8</title>
<path fill="none" stroke="#63b8ff" d="M239.85,-420.11C245.98,-412.2 253.7,-402.24 260.63,-393.3"/>
<polygon fill="#63b8ff" stroke="#63b8ff" points="263.84,-395.88 267.2,-385.83 258.31,-391.59 263.84,-395.88"/>
</g>
<!-- Node12 -->
<g id="node12" class="node">
<title>Node12</title>
<g id="a_node12"><a xlink:href="logging_8h.html" target="_top" xlink:title=" ">
<polygon fill="white" stroke="#666666" points="582.5,-245.88 464.5,-245.88 464.5,-226.62 582.5,-226.62 582.5,-245.88"/>
<text text-anchor="middle" x="523.5" y="-232.38" font-family="Helvetica,sans-Serif" font-size="10.00">cppgc/internal/logging.h</text>
</a>
</g>
</g>
<!-- Node1&#45;&gt;Node12 -->
<g id="edge26" class="edge">
<title>Node1&#45;&gt;Node12</title>
<path fill="none" stroke="#63b8ff" d="M267.49,-420.02C314.23,-401.14 393.39,-365.11 450.5,-318 473.75,-298.82 496.36,-272.2 510.11,-254.86"/>
<polygon fill="#63b8ff" stroke="#63b8ff" points="513.4,-257.32 516.78,-247.28 507.88,-253.02 513.4,-257.32"/>
</g>
<!-- Node16 -->
<g id="node16" class="node">
<title>Node16</title>
<g id="a_node16"><a xlink:href="platform_8h.html" target="_top" xlink:title=" ">
<polygon fill="white" stroke="#666666" points="744.5,-245.88 656.5,-245.88 656.5,-226.62 744.5,-226.62 744.5,-245.88"/>
<text text-anchor="middle" x="700.5" y="-232.38" font-family="Helvetica,sans-Serif" font-size="10.00">cppgc/platform.h</text>
</a>
</g>
</g>
<!-- Node1&#45;&gt;Node16 -->
<g id="edge27" class="edge">
<title>Node1&#45;&gt;Node16</title>
<path fill="none" stroke="#63b8ff" d="M289.68,-433.81C387.07,-431.2 571.75,-421.39 624.5,-384.5 668.61,-353.65 688.84,-289.24 696.53,-256.81"/>
<polygon fill="#63b8ff" stroke="#63b8ff" points="700.16,-257.59 698.89,-247.08 693.33,-256.09 700.16,-257.59"/>
</g>
<!-- Node5&#45;&gt;Node3 -->
<g id="edge5" class="edge">
<title>Node5&#45;&gt;Node3</title>
<path fill="none" stroke="#63b8ff" d="M210.45,-220.52C199.96,-189.86 175.77,-119.22 164.07,-85.06"/>
<polygon fill="#63b8ff" stroke="#63b8ff" points="167.17,-84.31 160.62,-75.99 160.55,-86.58 167.17,-84.31"/>
</g>
<!-- Node5&#45;&gt;Node4 -->
<g id="edge6" class="edge">
<title>Node5&#45;&gt;Node4</title>
<path fill="none" stroke="#63b8ff" d="M201.41,-220.7C193.32,-212.34 183.12,-201.8 174.69,-193.1"/>
<polygon fill="#63b8ff" stroke="#63b8ff" points="177.76,-191.2 168.29,-186.45 172.73,-196.07 177.76,-191.2"/>
</g>
<!-- Node5&#45;&gt;Node6 -->
<g id="edge7" class="edge">
<title>Node5&#45;&gt;Node6</title>
<path fill="none" stroke="#63b8ff" d="M217.98,-220.63C223.29,-194.17 238.33,-138.52 274.5,-110.5 303.94,-87.69 408.06,-74.84 466.66,-69.26"/>
<polygon fill="#63b8ff" stroke="#63b8ff" points="466.75,-72.67 476.39,-68.27 466.11,-65.7 466.75,-72.67"/>
</g>
<!-- Node7 -->
<g id="node7" class="node">
<title>Node7</title>
<g id="a_node7"><a xlink:title=" ">
<polygon fill="#e0e0e0" stroke="#999999" points="1155.75,-19.25 1105.25,-19.25 1105.25,0 1155.75,0 1155.75,-19.25"/>
<text text-anchor="middle" x="1130.5" y="-5.75" font-family="Helvetica,sans-Serif" font-size="10.00">memory</text>
</a>
</g>
</g>
<!-- Node6&#45;&gt;Node7 -->
<g id="edge8" class="edge">
<title>Node6&#45;&gt;Node7</title>
<path fill="none" stroke="#63b8ff" d="M537.55,-61.31C640.94,-52.47 981.84,-23.33 1094.21,-13.73"/>
<polygon fill="#63b8ff" stroke="#63b8ff" points="1094.3,-17.15 1103.97,-12.81 1093.7,-10.17 1094.3,-17.15"/>
</g>
<!-- Node8&#45;&gt;Node3 -->
<g id="edge11" class="edge">
<title>Node8&#45;&gt;Node3</title>
<path fill="none" stroke="#63b8ff" d="M257.65,-353.65C220.5,-325.98 144.98,-261.75 126.5,-185 117.9,-149.31 134.81,-107.87 146.85,-84.48"/>
<polygon fill="#63b8ff" stroke="#63b8ff" points="150.4,-86.27 152.09,-75.81 144.25,-82.94 150.4,-86.27"/>
</g>
<!-- Node8&#45;&gt;Node5 -->
<g id="edge12" class="edge">
<title>Node8&#45;&gt;Node5</title>
<path fill="none" stroke="#63b8ff" d="M263.32,-353.7C254.32,-344.29 243.37,-331.34 236.5,-318 227.51,-300.52 222.15,-278.89 219.1,-262.41"/>
<polygon fill="#63b8ff" stroke="#63b8ff" points="222.45,-262.23 217.34,-252.94 215.54,-263.39 222.45,-262.23"/>
</g>
<!-- Node8&#45;&gt;Node6 -->
<g id="edge25" class="edge">
<title>Node8&#45;&gt;Node6</title>
<path fill="none" stroke="#63b8ff" d="M331.91,-354.06C365.59,-344.17 405.01,-330.54 417.5,-318 426.19,-309.28 482.16,-142.25 501.18,-84.97"/>
<polygon fill="#63b8ff" stroke="#63b8ff" points="504.73,-86.37 504.56,-75.78 498.09,-84.17 504.73,-86.37"/>
</g>
<!-- Node9 -->
<g id="node9" class="node">
<title>Node9</title>
<g id="a_node9"><a xlink:title=" ">
<polygon fill="#e0e0e0" stroke="#999999" points="408.75,-312.38 364.25,-312.38 364.25,-293.12 408.75,-293.12 408.75,-312.38"/>
<text text-anchor="middle" x="386.5" y="-298.88" font-family="Helvetica,sans-Serif" font-size="10.00">climits</text>
</a>
</g>
</g>
<!-- Node8&#45;&gt;Node9 -->
<g id="edge10" class="edge">
<title>Node8&#45;&gt;Node9</title>
<path fill="none" stroke="#63b8ff" d="M303.01,-353.61C320.76,-343.01 344.64,-328.75 362.31,-318.2"/>
<polygon fill="#63b8ff" stroke="#63b8ff" points="363.62,-320.89 370.41,-312.76 360.03,-314.88 363.62,-320.89"/>
</g>
<!-- Node10 -->
<g id="node10" class="node">
<title>Node10</title>
<g id="a_node10"><a xlink:href="base-page-handle_8h.html" target="_top" xlink:title=" ">
<polygon fill="white" stroke="#666666" points="345.88,-318 245.12,-318 245.12,-287.5 345.88,-287.5 345.88,-318"/>
<text text-anchor="start" x="253.12" y="-304.5" font-family="Helvetica,sans-Serif" font-size="10.00">cppgc/internal/base</text>
<text text-anchor="middle" x="295.5" y="-293.25" font-family="Helvetica,sans-Serif" font-size="10.00">&#45;page&#45;handle.h</text>
</a>
</g>
</g>
<!-- Node8&#45;&gt;Node10 -->
<g id="edge13" class="edge">
<title>Node8&#45;&gt;Node10</title>
<path fill="none" stroke="#63b8ff" d="M282.36,-353.61C284.29,-346.27 286.69,-337.18 288.9,-328.77"/>
<polygon fill="#63b8ff" stroke="#63b8ff" points="292.49,-329.89 291.66,-319.33 285.72,-328.11 292.49,-329.89"/>
</g>
<!-- Node10&#45;&gt;Node5 -->
<g id="edge16" class="edge">
<title>Node10&#45;&gt;Node5</title>
<path fill="none" stroke="#63b8ff" d="M277.35,-287.11C266.91,-278.7 253.62,-267.98 242.03,-258.64"/>
<polygon fill="#63b8ff" stroke="#63b8ff" points="244.56,-255.38 234.58,-251.83 240.17,-260.83 244.56,-255.38"/>
</g>
<!-- Node10&#45;&gt;Node6 -->
<g id="edge24" class="edge">
<title>Node10&#45;&gt;Node6</title>
<path fill="none" stroke="#63b8ff" d="M292.61,-287.21C288.16,-260.64 282.57,-203.54 307.5,-165.75 343.79,-110.75 419.91,-84.77 467.07,-73.52"/>
<polygon fill="#63b8ff" stroke="#63b8ff" points="467.55,-76.77 476.53,-71.15 466,-69.94 467.55,-76.77"/>
</g>
<!-- Node11 -->
<g id="node11" class="node">
<title>Node11</title>
<g id="a_node11"><a xlink:href="heap-handle_8h.html" target="_top" xlink:title=" ">
<polygon fill="white" stroke="#666666" points="422.12,-185 316.88,-185 316.88,-165.75 422.12,-165.75 422.12,-185"/>
<text text-anchor="middle" x="369.5" y="-171.5" font-family="Helvetica,sans-Serif" font-size="10.00">cppgc/heap&#45;handle.h</text>
</a>
</g>
</g>
<!-- Node10&#45;&gt;Node11 -->
<g id="edge14" class="edge">
<title>Node10&#45;&gt;Node11</title>
<path fill="none" stroke="#63b8ff" d="M303.99,-287.37C317.48,-264.52 343.79,-219.94 358.63,-194.79"/>
<polygon fill="#63b8ff" stroke="#63b8ff" points="362.15,-196.71 364.22,-186.32 356.12,-193.15 362.15,-196.71"/>
</g>
<!-- Node10&#45;&gt;Node12 -->
<g id="edge17" class="edge">
<title>Node10&#45;&gt;Node12</title>
<path fill="none" stroke="#63b8ff" d="M346.1,-287.44C386.63,-275.97 442.84,-260.07 481.05,-249.26"/>
<polygon fill="#63b8ff" stroke="#63b8ff" points="481.65,-252.44 490.32,-246.35 479.75,-245.71 481.65,-252.44"/>
</g>
<!-- Node11&#45;&gt;Node6 -->
<g id="edge15" class="edge">
<title>Node11&#45;&gt;Node6</title>
<path fill="none" stroke="#63b8ff" d="M377.67,-165.53C389.82,-152.63 413.67,-128.27 436.5,-110.5 450.74,-99.42 467.83,-88.61 481.67,-80.41"/>
<polygon fill="#63b8ff" stroke="#63b8ff" points="483.21,-82.98 490.09,-74.92 479.69,-76.93 483.21,-82.98"/>
</g>
<!-- Node12&#45;&gt;Node6 -->
<g id="edge23" class="edge">
<title>Node12&#45;&gt;Node6</title>
<path fill="none" stroke="#63b8ff" d="M521.08,-226.44C518.46,-216.47 514.4,-199.7 512.5,-185 508,-150.21 507.26,-109.28 507.28,-85.58"/>
<polygon fill="#63b8ff" stroke="#63b8ff" points="510.79,-85.91 507.35,-75.89 503.79,-85.87 510.79,-85.91"/>
</g>
<!-- Node13 -->
<g id="node13" class="node">
<title>Node13</title>
<g id="a_node13"><a xlink:href="source-location_8h.html" target="_top" xlink:title=" ">
<polygon fill="white" stroke="#666666" points="672.88,-185 554.12,-185 554.12,-165.75 672.88,-165.75 672.88,-185"/>
<text text-anchor="middle" x="613.5" y="-171.5" font-family="Helvetica,sans-Serif" font-size="10.00">cppgc/source&#45;location.h</text>
</a>
</g>
</g>
<!-- Node12&#45;&gt;Node13 -->
<g id="edge18" class="edge">
<title>Node12&#45;&gt;Node13</title>
<path fill="none" stroke="#63b8ff" d="M537.17,-226.31C551.31,-217.06 573.64,-202.45 590.51,-191.42"/>
<polygon fill="#63b8ff" stroke="#63b8ff" points="592.25,-193.8 598.7,-185.4 588.42,-187.95 592.25,-193.8"/>
</g>
<!-- Node14 -->
<g id="node14" class="node">
<title>Node14</title>
<g id="a_node14"><a xlink:href="v8-source-location_8h.html" target="_top" xlink:title=" ">
<polygon fill="white" stroke="#666666" points="696,-129.75 593,-129.75 593,-110.5 696,-110.5 696,-129.75"/>
<text text-anchor="middle" x="644.5" y="-116.25" font-family="Helvetica,sans-Serif" font-size="10.00">v8&#45;source&#45;location.h</text>
</a>
</g>
</g>
<!-- Node13&#45;&gt;Node14 -->
<g id="edge19" class="edge">
<title>Node13&#45;&gt;Node14</title>
<path fill="none" stroke="#63b8ff" d="M618.62,-165.58C622.72,-158.53 628.62,-148.4 633.75,-139.58"/>
<polygon fill="#63b8ff" stroke="#63b8ff" points="637.26,-141.51 639.27,-131.11 631.21,-137.99 637.26,-141.51"/>
</g>
<!-- Node14&#45;&gt;Node3 -->
<g id="edge20" class="edge">
<title>Node14&#45;&gt;Node3</title>
<path fill="none" stroke="#63b8ff" d="M592.84,-113.48C493.38,-102.6 277.6,-79.01 192.77,-69.73"/>
<polygon fill="#63b8ff" stroke="#63b8ff" points="193.25,-66.15 182.93,-68.55 192.49,-73.11 193.25,-66.15"/>
</g>
<!-- Node14&#45;&gt;Node6 -->
<g id="edge22" class="edge">
<title>Node14&#45;&gt;Node6</title>
<path fill="none" stroke="#63b8ff" d="M621.26,-110.09C599.22,-101.52 565.85,-88.56 540.95,-78.88"/>
<polygon fill="#63b8ff" stroke="#63b8ff" points="542.44,-75.31 531.85,-74.95 539.91,-81.84 542.44,-75.31"/>
</g>
<!-- Node15 -->
<g id="node15" class="node">
<title>Node15</title>
<g id="a_node15"><a xlink:title=" ">
<polygon fill="#e0e0e0" stroke="#999999" points="883.5,-74.5 843.5,-74.5 843.5,-55.25 883.5,-55.25 883.5,-74.5"/>
<text text-anchor="middle" x="863.5" y="-61" font-family="Helvetica,sans-Serif" font-size="10.00">string</text>
</a>
</g>
</g>
<!-- Node14&#45;&gt;Node15 -->
<g id="edge21" class="edge">
<title>Node14&#45;&gt;Node15</title>
<path fill="none" stroke="#63b8ff" d="M681.65,-110.09C724.06,-99.78 792.67,-83.1 832.38,-73.44"/>
<polygon fill="#63b8ff" stroke="#63b8ff" points="833.12,-76.62 842.01,-70.86 831.47,-69.82 833.12,-76.62"/>
</g>
<!-- Node16&#45;&gt;Node6 -->
<g id="edge40" class="edge">
<title>Node16&#45;&gt;Node6</title>
<path fill="none" stroke="#63b8ff" d="M700.54,-226.35C700.12,-211.82 697.21,-182.91 681.5,-165.75 650.45,-131.83 624.32,-152.76 584.5,-129.75 561.62,-116.53 538.74,-96.46 523.94,-82.36"/>
<polygon fill="#63b8ff" stroke="#63b8ff" points="526.83,-80.31 517.22,-75.84 521.94,-85.32 526.83,-80.31"/>
</g>
<!-- Node16&#45;&gt;Node7 -->
<g id="edge28" class="edge">
<title>Node16&#45;&gt;Node7</title>
<path fill="none" stroke="#63b8ff" d="M744.96,-236C827.25,-235.02 1004.72,-221.56 1112.5,-129.75 1139.2,-107.01 1141.61,-90.18 1138.5,-55.25 1137.76,-46.92 1136.26,-37.82 1134.75,-30.02"/>
<polygon fill="#63b8ff" stroke="#63b8ff" points="1138.02,-29.53 1132.56,-20.45 1131.16,-30.95 1138.02,-29.53"/>
</g>
<!-- Node16&#45;&gt;Node13 -->
<g id="edge29" class="edge">
<title>Node16&#45;&gt;Node13</title>
<path fill="none" stroke="#63b8ff" d="M687.29,-226.31C673.62,-217.06 652.03,-202.45 635.73,-191.42"/>
<polygon fill="#63b8ff" stroke="#63b8ff" points="638.08,-188.11 627.84,-185.4 634.16,-193.9 638.08,-188.11"/>
</g>
<!-- Node17 -->
<g id="node17" class="node">
<title>Node17</title>
<g id="a_node17"><a xlink:href="v8-platform_8h.html" target="_top" xlink:title=" ">
<polygon fill="white" stroke="#666666" points="911.62,-185 839.38,-185 839.38,-165.75 911.62,-165.75 911.62,-185"/>
<text text-anchor="middle" x="875.5" y="-171.5" font-family="Helvetica,sans-Serif" font-size="10.00">v8&#45;platform.h</text>
</a>
</g>
</g>
<!-- Node16&#45;&gt;Node17 -->
<g id="edge30" class="edge">
<title>Node16&#45;&gt;Node17</title>
<path fill="none" stroke="#63b8ff" d="M727.46,-226.18C757.13,-216.2 805.03,-200.08 838.27,-188.9"/>
<polygon fill="#63b8ff" stroke="#63b8ff" points="839.15,-191.96 847.51,-185.46 836.92,-185.33 839.15,-191.96"/>
</g>
<!-- Node17&#45;&gt;Node6 -->
<g id="edge39" class="edge">
<title>Node17&#45;&gt;Node6</title>
<path fill="none" stroke="#63b8ff" d="M844.63,-165.31C817.58,-157.05 777.4,-143.98 743.5,-129.75 726.04,-122.42 723.31,-116.91 705.5,-110.5 652.76,-91.53 589.13,-78.91 548.5,-72.07"/>
<polygon fill="#63b8ff" stroke="#63b8ff" points="549.11,-68.46 538.67,-70.29 547.97,-75.36 549.11,-68.46"/>
</g>
<!-- Node17&#45;&gt;Node7 -->
<g id="edge35" class="edge">
<title>Node17&#45;&gt;Node7</title>
<path fill="none" stroke="#63b8ff" d="M911.8,-171.25C966.22,-165.87 1065.37,-153.09 1091.5,-129.75 1120.21,-104.1 1127.87,-57.02 1129.85,-30.37"/>
<polygon fill="#63b8ff" stroke="#63b8ff" points="1133.38,-30.89 1130.42,-20.71 1126.39,-30.51 1133.38,-30.89"/>
</g>
<!-- Node17&#45;&gt;Node14 -->
<g id="edge38" class="edge">
<title>Node17&#45;&gt;Node14</title>
<path fill="none" stroke="#63b8ff" d="M838.9,-165.94C799.96,-156.96 738.11,-142.7 694.65,-132.69"/>
<polygon fill="#63b8ff" stroke="#63b8ff" points="695.56,-129.07 685.03,-130.24 693.98,-135.89 695.56,-129.07"/>
</g>
<!-- Node17&#45;&gt;Node15 -->
<g id="edge37" class="edge">
<title>Node17&#45;&gt;Node15</title>
<path fill="none" stroke="#63b8ff" d="M911.95,-174.54C980.45,-173.6 1117.71,-165.1 1073.5,-110.5 1051.32,-83.11 947.3,-71.83 894.47,-67.81"/>
<polygon fill="#63b8ff" stroke="#63b8ff" points="894.94,-64.27 884.71,-67.04 894.44,-71.25 894.94,-64.27"/>
</g>
<!-- Node18 -->
<g id="node18" class="node">
<title>Node18</title>
<g id="a_node18"><a xlink:title=" ">
<polygon fill="#e0e0e0" stroke="#999999" points="798.12,-129.75 752.88,-129.75 752.88,-110.5 798.12,-110.5 798.12,-129.75"/>
<text text-anchor="middle" x="775.5" y="-116.25" font-family="Helvetica,sans-Serif" font-size="10.00">math.h</text>
</a>
</g>
</g>
<!-- Node17&#45;&gt;Node18 -->
<g id="edge31" class="edge">
<title>Node17&#45;&gt;Node18</title>
<path fill="none" stroke="#63b8ff" d="M858.54,-165.34C843.09,-157.12 820.04,-144.84 802.14,-135.31"/>
<polygon fill="#63b8ff" stroke="#63b8ff" points="804.02,-131.81 793.55,-130.2 800.73,-137.99 804.02,-131.81"/>
</g>
<!-- Node19 -->
<g id="node19" class="node">
<title>Node19</title>
<g id="a_node19"><a xlink:title=" ">
<polygon fill="#e0e0e0" stroke="#999999" points="866.75,-129.75 816.25,-129.75 816.25,-110.5 866.75,-110.5 866.75,-129.75"/>
<text text-anchor="middle" x="841.5" y="-116.25" font-family="Helvetica,sans-Serif" font-size="10.00">stddef.h</text>
</a>
</g>
</g>
<!-- Node17&#45;&gt;Node19 -->
<g id="edge32" class="edge">
<title>Node17&#45;&gt;Node19</title>
<path fill="none" stroke="#63b8ff" d="M869.89,-165.58C865.34,-158.46 858.77,-148.18 853.1,-139.3"/>
<polygon fill="#63b8ff" stroke="#63b8ff" points="855.57,-137.65 847.24,-131.11 849.67,-141.42 855.57,-137.65"/>
</g>
<!-- Node20 -->
<g id="node20" class="node">
<title>Node20</title>
<g id="a_node20"><a xlink:title=" ">
<polygon fill="#e0e0e0" stroke="#999999" points="932.25,-129.75 884.75,-129.75 884.75,-110.5 932.25,-110.5 932.25,-129.75"/>
<text text-anchor="middle" x="908.5" y="-116.25" font-family="Helvetica,sans-Serif" font-size="10.00">stdint.h</text>
</a>
</g>
</g>
<!-- Node17&#45;&gt;Node20 -->
<g id="edge33" class="edge">
<title>Node17&#45;&gt;Node20</title>
<path fill="none" stroke="#63b8ff" d="M880.95,-165.58C885.37,-158.46 891.74,-148.18 897.24,-139.3"/>
<polygon fill="#63b8ff" stroke="#63b8ff" points="900.64,-141.45 902.93,-131.11 894.69,-137.77 900.64,-141.45"/>
</g>
<!-- Node21 -->
<g id="node21" class="node">
<title>Node21</title>
<g id="a_node21"><a xlink:title=" ">
<polygon fill="#e0e0e0" stroke="#999999" points="996.88,-129.75 950.12,-129.75 950.12,-110.5 996.88,-110.5 996.88,-129.75"/>
<text text-anchor="middle" x="973.5" y="-116.25" font-family="Helvetica,sans-Serif" font-size="10.00">stdlib.h</text>
</a>
</g>
</g>
<!-- Node17&#45;&gt;Node21 -->
<g id="edge34" class="edge">
<title>Node17&#45;&gt;Node21</title>
<path fill="none" stroke="#63b8ff" d="M892.12,-165.34C907.19,-157.16 929.64,-144.96 947.15,-135.44"/>
<polygon fill="#63b8ff" stroke="#63b8ff" points="948.68,-138.05 955.79,-130.2 945.34,-131.9 948.68,-138.05"/>
</g>
<!-- Node22 -->
<g id="node22" class="node">
<title>Node22</title>
<g id="a_node22"><a xlink:title=" ">
<polygon fill="#e0e0e0" stroke="#999999" points="1064.38,-129.75 1014.62,-129.75 1014.62,-110.5 1064.38,-110.5 1064.38,-129.75"/>
<text text-anchor="middle" x="1039.5" y="-116.25" font-family="Helvetica,sans-Serif" font-size="10.00">optional</text>
</a>
</g>
</g>
<!-- Node17&#45;&gt;Node22 -->
<g id="edge36" class="edge">
<title>Node17&#45;&gt;Node22</title>
<path fill="none" stroke="#63b8ff" d="M903.32,-165.34C931.11,-156.32 973.94,-142.41 1004.13,-132.61"/>
<polygon fill="#63b8ff" stroke="#63b8ff" points="1004.81,-135.74 1013.24,-129.33 1002.65,-129.09 1004.81,-135.74"/>
</g>
</g>
</svg>
