<?xml version="1.0" encoding="UTF-8" standalone="no"?>
<!DOCTYPE svg PUBLIC "-//W3C//DTD SVG 1.1//EN"
 "http://www.w3.org/Graphics/SVG/1.1/DTD/svg11.dtd">
<!-- Generated by graphviz version 8.0.5 (20230430.1635)
 -->
<!-- Title: include/cppgc/name&#45;provider.h Pages: 1 -->
<svg width="1767pt" height="714pt"
 viewBox="0.00 0.00 1766.88 713.75" xmlns="http://www.w3.org/2000/svg" xmlns:xlink="http://www.w3.org/1999/xlink">
<g id="graph0" class="graph" transform="scale(1 1) rotate(0) translate(4 709.75)">
<title>include/cppgc/name&#45;provider.h</title>
<!-- Node1 -->
<g id="node1" class="node">
<title>Node1</title>
<g id="a_node1"><a xlink:title=" ">
<polygon fill="#999999" stroke="#666666" points="339.38,-705.75 236.38,-705.75 236.38,-675.25 339.38,-675.25 339.38,-705.75"/>
<text text-anchor="start" x="244.38" y="-692.25" font-family="Helvetica,sans-Serif" font-size="10.00">include/cppgc/name</text>
<text text-anchor="middle" x="287.88" y="-681" font-family="Helvetica,sans-Serif" font-size="10.00">&#45;provider.h</text>
</a>
</g>
</g>
<!-- Node2 -->
<g id="node2" class="node">
<title>Node2</title>
<g id="a_node2"><a xlink:href="name-trait_8h.html" target="_top" xlink:title=" ">
<polygon fill="white" stroke="#666666" points="282.12,-639.25 171.62,-639.25 171.62,-608.75 282.12,-608.75 282.12,-639.25"/>
<text text-anchor="start" x="179.62" y="-625.75" font-family="Helvetica,sans-Serif" font-size="10.00">include/cppgc/internal</text>
<text text-anchor="middle" x="226.88" y="-614.5" font-family="Helvetica,sans-Serif" font-size="10.00">/name&#45;trait.h</text>
</a>
</g>
</g>
<!-- Node1&#45;&gt;Node2 -->
<g id="edge1" class="edge">
<title>Node1&#45;&gt;Node2</title>
<path fill="none" stroke="#63b8ff" d="M266.54,-666.94C257.95,-657.86 248.3,-647.65 240.66,-639.58"/>
<polygon fill="#63b8ff" stroke="#63b8ff" points="263.62,-669 273.03,-673.86 268.7,-664.19 263.62,-669"/>
</g>
<!-- Node6 -->
<g id="node6" class="node">
<title>Node6</title>
<g id="a_node6"><a xlink:href="v8-object_8h.html" target="_top" xlink:title=" ">
<polygon fill="white" stroke="#666666" points="550.38,-633.62 453.38,-633.62 453.38,-614.38 550.38,-614.38 550.38,-633.62"/>
<text text-anchor="middle" x="501.88" y="-620.12" font-family="Helvetica,sans-Serif" font-size="10.00">include/v8&#45;object.h</text>
</a>
</g>
</g>
<!-- Node1&#45;&gt;Node6 -->
<g id="edge5" class="edge">
<title>Node1&#45;&gt;Node6</title>
<path fill="none" stroke="#63b8ff" d="M346.99,-671.68C387.48,-659.48 439.49,-643.8 471.75,-634.08"/>
<polygon fill="#63b8ff" stroke="#63b8ff" points="346.27,-668.55 337.7,-674.78 348.29,-675.25 346.27,-668.55"/>
</g>
<!-- Node3 -->
<g id="node3" class="node">
<title>Node3</title>
<g id="a_node3"><a xlink:href="gc-info_8h.html" target="_top" xlink:title=" ">
<polygon fill="white" stroke="#666666" points="124.12,-572.75 13.62,-572.75 13.62,-542.25 124.12,-542.25 124.12,-572.75"/>
<text text-anchor="start" x="21.62" y="-559.25" font-family="Helvetica,sans-Serif" font-size="10.00">include/cppgc/internal</text>
<text text-anchor="middle" x="68.88" y="-548" font-family="Helvetica,sans-Serif" font-size="10.00">/gc&#45;info.h</text>
</a>
</g>
</g>
<!-- Node2&#45;&gt;Node3 -->
<g id="edge2" class="edge">
<title>Node2&#45;&gt;Node3</title>
<path fill="none" stroke="#63b8ff" d="M180.98,-604.26C156.74,-594.37 127.43,-582.4 104.86,-573.19"/>
<polygon fill="#63b8ff" stroke="#63b8ff" points="179.44,-607.82 190.02,-608.36 182.09,-601.34 179.44,-607.82"/>
</g>
<!-- Node4 -->
<g id="node4" class="node">
<title>Node4</title>
<g id="a_node4"><a xlink:href="allocation_8h.html" target="_top" xlink:title=" ">
<polygon fill="white" stroke="#666666" points="127.75,-506.25 0,-506.25 0,-487 127.75,-487 127.75,-506.25"/>
<text text-anchor="middle" x="63.88" y="-492.75" font-family="Helvetica,sans-Serif" font-size="10.00">include/cppgc/allocation.h</text>
</a>
</g>
</g>
<!-- Node3&#45;&gt;Node4 -->
<g id="edge3" class="edge">
<title>Node3&#45;&gt;Node4</title>
<path fill="none" stroke="#63b8ff" d="M66.72,-531.07C65.98,-522.39 65.2,-513.23 64.65,-506.7"/>
<polygon fill="#63b8ff" stroke="#63b8ff" points="63.31,-531.28 67.64,-540.95 70.28,-530.69 63.31,-531.28"/>
</g>
<!-- Node5 -->
<g id="node5" class="node">
<title>Node5</title>
<g id="a_node5"><a xlink:href="explicit-management_8h.html" target="_top" xlink:title=" ">
<polygon fill="white" stroke="#666666" points="118.38,-451 9.38,-451 9.38,-420.5 118.38,-420.5 118.38,-451"/>
<text text-anchor="start" x="17.38" y="-437.5" font-family="Helvetica,sans-Serif" font-size="10.00">include/cppgc/explicit</text>
<text text-anchor="middle" x="63.88" y="-426.25" font-family="Helvetica,sans-Serif" font-size="10.00">&#45;management.h</text>
</a>
</g>
</g>
<!-- Node4&#45;&gt;Node5 -->
<g id="edge4" class="edge">
<title>Node4&#45;&gt;Node5</title>
<path fill="none" stroke="#63b8ff" d="M63.88,-475.7C63.88,-467.7 63.88,-458.65 63.88,-451.28"/>
<polygon fill="#63b8ff" stroke="#63b8ff" points="60.38,-475.68 63.88,-485.68 67.38,-475.68 60.38,-475.68"/>
</g>
<!-- Node7 -->
<g id="node7" class="node">
<title>Node7</title>
<g id="a_node7"><a xlink:href="v8-array-buffer_8h.html" target="_top" xlink:title=" ">
<polygon fill="white" stroke="#666666" points="1677.25,-329.25 1558.5,-329.25 1558.5,-310 1677.25,-310 1677.25,-329.25"/>
<text text-anchor="middle" x="1617.88" y="-315.75" font-family="Helvetica,sans-Serif" font-size="10.00">include/v8&#45;array&#45;buffer.h</text>
</a>
</g>
</g>
<!-- Node6&#45;&gt;Node7 -->
<g id="edge6" class="edge">
<title>Node6&#45;&gt;Node7</title>
<path fill="none" stroke="#63b8ff" d="M561.57,-623.29C770.36,-623.88 1459.83,-622.03 1544.88,-572.75 1579.16,-552.88 1592.88,-537.25 1592.88,-497.62 1592.88,-497.62 1592.88,-497.62 1592.88,-434.75 1592.88,-394.79 1607.68,-348.75 1614.5,-329.65"/>
<polygon fill="#63b8ff" stroke="#63b8ff" points="561.84,-619.79 551.83,-623.26 561.82,-626.79 561.84,-619.79"/>
</g>
<!-- Node11 -->
<g id="node11" class="node">
<title>Node11</title>
<g id="a_node11"><a xlink:href="v8_8h.html" target="_top" xlink:title=" ">
<polygon fill="white" stroke="#666666" points="744.75,-19.25 677,-19.25 677,0 744.75,0 744.75,-19.25"/>
<text text-anchor="middle" x="710.88" y="-5.75" font-family="Helvetica,sans-Serif" font-size="10.00">include/v8.h</text>
</a>
</g>
</g>
<!-- Node6&#45;&gt;Node11 -->
<g id="edge65" class="edge">
<title>Node6&#45;&gt;Node11</title>
<path fill="none" stroke="#63b8ff" d="M561.42,-623.39C810.87,-624.25 1758.88,-619.52 1758.88,-497.62 1758.88,-497.62 1758.88,-497.62 1758.88,-136 1758.88,-80.59 1715.43,-75.58 1663.88,-55.25 1577.11,-21.03 905.22,-12.48 745.07,-10.92"/>
<polygon fill="#63b8ff" stroke="#63b8ff" points="561.78,-619.89 551.77,-623.35 561.75,-626.89 561.78,-619.89"/>
</g>
<!-- Node17 -->
<g id="node17" class="node">
<title>Node17</title>
<g id="a_node17"><a xlink:href="v8-proxy_8h.html" target="_top" xlink:title=" ">
<polygon fill="white" stroke="#666666" points="1081.5,-80.12 988.25,-80.12 988.25,-60.88 1081.5,-60.88 1081.5,-80.12"/>
<text text-anchor="middle" x="1034.88" y="-66.62" font-family="Helvetica,sans-Serif" font-size="10.00">include/v8&#45;proxy.h</text>
</a>
</g>
</g>
<!-- Node6&#45;&gt;Node17 -->
<g id="edge59" class="edge">
<title>Node6&#45;&gt;Node17</title>
<path fill="none" stroke="#63b8ff" d="M561.69,-619.46C734.51,-605.51 1232.37,-537.93 1391.88,-218.75 1452.79,-96.86 1191.94,-75.7 1081.86,-72.15"/>
<polygon fill="#63b8ff" stroke="#63b8ff" points="561.48,-616.05 551.78,-620.31 562.02,-623.03 561.48,-616.05"/>
</g>
<!-- Node20 -->
<g id="node20" class="node">
<title>Node20</title>
<g id="a_node20"><a xlink:href="v8-container_8h.html" target="_top" xlink:title=" ">
<polygon fill="white" stroke="#666666" points="218.12,-146.62 107.62,-146.62 107.62,-127.38 218.12,-127.38 218.12,-146.62"/>
<text text-anchor="middle" x="162.88" y="-133.12" font-family="Helvetica,sans-Serif" font-size="10.00">include/v8&#45;container.h</text>
</a>
</g>
</g>
<!-- Node6&#45;&gt;Node20 -->
<g id="edge25" class="edge">
<title>Node6&#45;&gt;Node20</title>
<path fill="none" stroke="#63b8ff" d="M442.32,-622.5C384.35,-619.7 295.38,-609.1 227.88,-572.75 187.16,-550.82 155.88,-543.87 155.88,-497.62 155.88,-497.62 155.88,-497.62 155.88,-263.38 155.88,-219.77 160.15,-167.78 162.02,-147.11"/>
<polygon fill="#63b8ff" stroke="#63b8ff" points="441.99,-626.03 452.13,-622.95 442.28,-619.04 441.99,-626.03"/>
</g>
<!-- Node21 -->
<g id="node21" class="node">
<title>Node21</title>
<g id="a_node21"><a xlink:href="v8-date_8h.html" target="_top" xlink:title=" ">
<polygon fill="white" stroke="#666666" points="273.62,-274 184.12,-274 184.12,-254.75 273.62,-254.75 273.62,-274"/>
<text text-anchor="middle" x="228.88" y="-260.5" font-family="Helvetica,sans-Serif" font-size="10.00">include/v8&#45;date.h</text>
</a>
</g>
</g>
<!-- Node6&#45;&gt;Node21 -->
<g id="edge27" class="edge">
<title>Node6&#45;&gt;Node21</title>
<path fill="none" stroke="#63b8ff" d="M442.11,-622.26C358.28,-617.71 215.88,-595.56 215.88,-497.62 215.88,-497.62 215.88,-497.62 215.88,-373.88 215.88,-336.69 223.5,-292.84 227.07,-274.33"/>
<polygon fill="#63b8ff" stroke="#63b8ff" points="441.88,-625.8 452.03,-622.77 442.21,-618.81 441.88,-625.8"/>
</g>
<!-- Node22 -->
<g id="node22" class="node">
<title>Node22</title>
<g id="a_node22"><a xlink:href="v8-exception_8h.html" target="_top" xlink:title=" ">
<polygon fill="white" stroke="#666666" points="435.88,-506.25 323.88,-506.25 323.88,-487 435.88,-487 435.88,-506.25"/>
<text text-anchor="middle" x="379.88" y="-492.75" font-family="Helvetica,sans-Serif" font-size="10.00">include/v8&#45;exception.h</text>
</a>
</g>
</g>
<!-- Node6&#45;&gt;Node22 -->
<g id="edge29" class="edge">
<title>Node6&#45;&gt;Node22</title>
<path fill="none" stroke="#63b8ff" d="M484.35,-606.5C474.16,-596.8 461.14,-584.23 449.88,-572.75 426.89,-549.35 400.79,-520.78 387.92,-506.56"/>
<polygon fill="#63b8ff" stroke="#63b8ff" points="481.48,-608.55 491.14,-612.89 486.29,-603.47 481.48,-608.55"/>
</g>
<!-- Node23 -->
<g id="node23" class="node">
<title>Node23</title>
<g id="a_node23"><a xlink:href="v8-template_8h.html" target="_top" xlink:title=" ">
<polygon fill="white" stroke="#666666" points="352,-445.38 243.75,-445.38 243.75,-426.12 352,-426.12 352,-445.38"/>
<text text-anchor="middle" x="297.88" y="-431.88" font-family="Helvetica,sans-Serif" font-size="10.00">include/v8&#45;template.h</text>
</a>
</g>
</g>
<!-- Node6&#45;&gt;Node23 -->
<g id="edge62" class="edge">
<title>Node6&#45;&gt;Node23</title>
<path fill="none" stroke="#63b8ff" d="M465.2,-610.1C422.38,-593.1 352.62,-559.02 314.88,-506.25 301.58,-487.66 298.61,-459.89 298,-445.74"/>
<polygon fill="#63b8ff" stroke="#63b8ff" points="463.62,-613.63 474.21,-613.96 466.13,-607.09 463.62,-613.63"/>
</g>
<!-- Node24 -->
<g id="node24" class="node">
<title>Node24</title>
<g id="a_node24"><a xlink:href="v8-function_8h.html" target="_top" xlink:title=" ">
<polygon fill="white" stroke="#666666" points="473.5,-384.5 368.25,-384.5 368.25,-365.25 473.5,-365.25 473.5,-384.5"/>
<text text-anchor="middle" x="420.88" y="-371" font-family="Helvetica,sans-Serif" font-size="10.00">include/v8&#45;function.h</text>
</a>
</g>
</g>
<!-- Node6&#45;&gt;Node24 -->
<g id="edge36" class="edge">
<title>Node6&#45;&gt;Node24</title>
<path fill="none" stroke="#63b8ff" d="M495.48,-603.49C478.99,-553.17 435.48,-420.42 423.8,-384.79"/>
<polygon fill="#63b8ff" stroke="#63b8ff" points="492.46,-604.5 498.9,-612.91 499.11,-602.32 492.46,-604.5"/>
</g>
<!-- Node25 -->
<g id="node25" class="node">
<title>Node25</title>
<g id="a_node25"><a xlink:href="v8-primitive-object_8h.html" target="_top" xlink:title=" ">
<polygon fill="white" stroke="#666666" points="511.88,-85.75 411.88,-85.75 411.88,-55.25 511.88,-55.25 511.88,-85.75"/>
<text text-anchor="start" x="419.88" y="-72.25" font-family="Helvetica,sans-Serif" font-size="10.00">include/v8&#45;primitive</text>
<text text-anchor="middle" x="461.88" y="-61" font-family="Helvetica,sans-Serif" font-size="10.00">&#45;object.h</text>
</a>
</g>
</g>
<!-- Node6&#45;&gt;Node25 -->
<g id="edge37" class="edge">
<title>Node6&#45;&gt;Node25</title>
<path fill="none" stroke="#63b8ff" d="M501.88,-603.06C501.88,-578.33 501.88,-534.87 501.88,-497.62 501.88,-497.62 501.88,-497.62 501.88,-202.5 501.88,-158.51 480.99,-109.69 469.4,-85.99"/>
<polygon fill="#63b8ff" stroke="#63b8ff" points="498.38,-602.88 501.88,-612.88 505.38,-602.88 498.38,-602.88"/>
</g>
<!-- Node26 -->
<g id="node26" class="node">
<title>Node26</title>
<g id="a_node26"><a xlink:href="v8-promise_8h.html" target="_top" xlink:title=" ">
<polygon fill="white" stroke="#666666" points="804.5,-567.12 699.25,-567.12 699.25,-547.88 804.5,-547.88 804.5,-567.12"/>
<text text-anchor="middle" x="751.88" y="-553.62" font-family="Helvetica,sans-Serif" font-size="10.00">include/v8&#45;promise.h</text>
</a>
</g>
</g>
<!-- Node6&#45;&gt;Node26 -->
<g id="edge39" class="edge">
<title>Node6&#45;&gt;Node26</title>
<path fill="none" stroke="#63b8ff" d="M547.73,-611.17C596.5,-598.59 672.56,-578.96 716.77,-567.56"/>
<polygon fill="#63b8ff" stroke="#63b8ff" points="546.97,-608.01 538.16,-613.9 548.72,-614.79 546.97,-608.01"/>
</g>
<!-- Node34 -->
<g id="node34" class="node">
<title>Node34</title>
<g id="a_node34"><a xlink:href="v8-regexp_8h.html" target="_top" xlink:title=" ">
<polygon fill="white" stroke="#666666" points="1502.5,-567.12 1403.25,-567.12 1403.25,-547.88 1502.5,-547.88 1502.5,-567.12"/>
<text text-anchor="middle" x="1452.88" y="-553.62" font-family="Helvetica,sans-Serif" font-size="10.00">include/v8&#45;regexp.h</text>
</a>
</g>
</g>
<!-- Node6&#45;&gt;Node34 -->
<g id="edge60" class="edge">
<title>Node6&#45;&gt;Node34</title>
<path fill="none" stroke="#63b8ff" d="M561.42,-622.96C704.66,-622.13 1079.54,-615.66 1388.88,-572.75 1398.01,-571.48 1407.77,-569.59 1416.85,-567.6"/>
<polygon fill="#63b8ff" stroke="#63b8ff" points="561.68,-619.46 551.7,-623.01 561.72,-626.46 561.68,-619.46"/>
</g>
<!-- Node35 -->
<g id="node35" class="node">
<title>Node35</title>
<g id="a_node35"><a xlink:href="v8-wasm_8h.html" target="_top" xlink:title=" ">
<polygon fill="white" stroke="#666666" points="1574.38,-80.12 1477.38,-80.12 1477.38,-60.88 1574.38,-60.88 1574.38,-80.12"/>
<text text-anchor="middle" x="1525.88" y="-66.62" font-family="Helvetica,sans-Serif" font-size="10.00">include/v8&#45;wasm.h</text>
</a>
</g>
</g>
<!-- Node6&#45;&gt;Node35 -->
<g id="edge63" class="edge">
<title>Node6&#45;&gt;Node35</title>
<path fill="none" stroke="#63b8ff" d="M561.43,-621.98C772.61,-618.1 1474.98,-602.98 1511.88,-572.75 1538.52,-550.92 1530.88,-532.07 1530.88,-497.62 1530.88,-497.62 1530.88,-497.62 1530.88,-202.5 1530.88,-156.53 1527.76,-101.54 1526.45,-80.39"/>
<polygon fill="#63b8ff" stroke="#63b8ff" points="561.51,-618.49 551.58,-622.17 561.64,-625.49 561.51,-618.49"/>
</g>
<!-- Node8 -->
<g id="node8" class="node">
<title>Node8</title>
<g id="a_node8"><a xlink:href="v8-isolate_8h.html" target="_top" xlink:title=" ">
<polygon fill="white" stroke="#666666" points="998.5,-274 899.25,-274 899.25,-254.75 998.5,-254.75 998.5,-274"/>
<text text-anchor="middle" x="948.88" y="-260.5" font-family="Helvetica,sans-Serif" font-size="10.00">include/v8&#45;isolate.h</text>
</a>
</g>
</g>
<!-- Node7&#45;&gt;Node8 -->
<g id="edge7" class="edge">
<title>Node7&#45;&gt;Node8</title>
<path fill="none" stroke="#63b8ff" d="M1547.54,-313.03C1411.75,-302.22 1116.52,-278.72 998.8,-269.35"/>
<polygon fill="#63b8ff" stroke="#63b8ff" points="1546.97,-316.57 1557.21,-313.88 1547.52,-309.59 1546.97,-316.57"/>
</g>
<!-- Node7&#45;&gt;Node11 -->
<g id="edge24" class="edge">
<title>Node7&#45;&gt;Node11</title>
<path fill="none" stroke="#63b8ff" d="M1646.74,-304.22C1659.9,-296.59 1674.94,-286.26 1685.88,-274 1708.89,-248.19 1720.88,-239.08 1720.88,-204.5 1720.88,-204.5 1720.88,-204.5 1720.88,-136 1720.88,-73.55 1664.94,-75.55 1605.88,-55.25 1523.44,-26.92 899.35,-13.99 745.21,-11.21"/>
<polygon fill="#63b8ff" stroke="#63b8ff" points="1645.22,-301.62 1638.15,-309.51 1648.6,-307.75 1645.22,-301.62"/>
</g>
<!-- Node18 -->
<g id="node18" class="node">
<title>Node18</title>
<g id="a_node18"><a xlink:href="v8-typed-array_8h.html" target="_top" xlink:title=" ">
<polygon fill="white" stroke="#666666" points="1676.88,-274 1558.88,-274 1558.88,-254.75 1676.88,-254.75 1676.88,-274"/>
<text text-anchor="middle" x="1617.88" y="-260.5" font-family="Helvetica,sans-Serif" font-size="10.00">include/v8&#45;typed&#45;array.h</text>
</a>
</g>
</g>
<!-- Node7&#45;&gt;Node18 -->
<g id="edge21" class="edge">
<title>Node7&#45;&gt;Node18</title>
<path fill="none" stroke="#63b8ff" d="M1617.88,-298.96C1617.88,-290.52 1617.88,-281.08 1617.88,-274.36"/>
<polygon fill="#63b8ff" stroke="#63b8ff" points="1614.38,-298.83 1617.88,-308.83 1621.38,-298.83 1614.38,-298.83"/>
</g>
<!-- Node9 -->
<g id="node9" class="node">
<title>Node9</title>
<g id="a_node9"><a xlink:href="v8-external-memory-accounter_8h.html" target="_top" xlink:title=" ">
<polygon fill="white" stroke="#666666" points="1243.25,-218.75 1136.5,-218.75 1136.5,-188.25 1243.25,-188.25 1243.25,-218.75"/>
<text text-anchor="start" x="1144.5" y="-205.25" font-family="Helvetica,sans-Serif" font-size="10.00">include/v8&#45;external</text>
<text text-anchor="middle" x="1189.88" y="-194" font-family="Helvetica,sans-Serif" font-size="10.00">&#45;memory&#45;accounter.h</text>
</a>
</g>
</g>
<!-- Node8&#45;&gt;Node9 -->
<g id="edge8" class="edge">
<title>Node8&#45;&gt;Node9</title>
<path fill="none" stroke="#63b8ff" d="M996.6,-251.72C1036.82,-241.89 1094.32,-227.84 1136.15,-217.63"/>
<polygon fill="#63b8ff" stroke="#63b8ff" points="995.89,-248.53 987,-254.3 997.55,-255.33 995.89,-248.53"/>
</g>
<!-- Node10 -->
<g id="node10" class="node">
<title>Node10</title>
<g id="a_node10"><a xlink:href="v8-initialization_8h.html" target="_top" xlink:title=" ">
<polygon fill="white" stroke="#666666" points="1382.38,-213.12 1261.38,-213.12 1261.38,-193.88 1382.38,-193.88 1382.38,-213.12"/>
<text text-anchor="middle" x="1321.88" y="-199.62" font-family="Helvetica,sans-Serif" font-size="10.00">include/v8&#45;initialization.h</text>
</a>
</g>
</g>
<!-- Node8&#45;&gt;Node10 -->
<g id="edge9" class="edge">
<title>Node8&#45;&gt;Node10</title>
<path fill="none" stroke="#63b8ff" d="M1009.5,-254.85C1084.14,-244.28 1206.57,-226.69 1251.88,-218.75 1260.67,-217.21 1270.06,-215.41 1279,-213.61"/>
<polygon fill="#63b8ff" stroke="#63b8ff" points="1009.26,-251.49 999.85,-256.35 1010.24,-258.42 1009.26,-251.49"/>
</g>
<!-- Node8&#45;&gt;Node11 -->
<g id="edge20" class="edge">
<title>Node8&#45;&gt;Node11</title>
<path fill="none" stroke="#63b8ff" d="M888.48,-257.24C836.84,-250.71 767.93,-238.56 748.88,-218.75 720.74,-189.5 712.86,-55.65 711.23,-19.59"/>
<polygon fill="#63b8ff" stroke="#63b8ff" points="887.86,-260.81 898.21,-258.54 888.71,-253.86 887.86,-260.81"/>
</g>
<!-- Node12 -->
<g id="node12" class="node">
<title>Node12</title>
<g id="a_node12"><a xlink:href="v8-inspector_8h.html" target="_top" xlink:title=" ">
<polygon fill="white" stroke="#666666" points="868.12,-213.12 757.62,-213.12 757.62,-193.88 868.12,-193.88 868.12,-213.12"/>
<text text-anchor="middle" x="812.88" y="-199.62" font-family="Helvetica,sans-Serif" font-size="10.00">include/v8&#45;inspector.h</text>
</a>
</g>
</g>
<!-- Node8&#45;&gt;Node12 -->
<g id="edge11" class="edge">
<title>Node8&#45;&gt;Node12</title>
<path fill="none" stroke="#63b8ff" d="M917.9,-249.97C892.11,-238.8 856.08,-223.2 833.63,-213.48"/>
<polygon fill="#63b8ff" stroke="#63b8ff" points="916.36,-253.54 926.92,-254.3 919.14,-247.12 916.36,-253.54"/>
</g>
<!-- Node14 -->
<g id="node14" class="node">
<title>Node14</title>
<g id="a_node14"><a xlink:href="v8-metrics_8h.html" target="_top" xlink:title=" ">
<polygon fill="white" stroke="#666666" points="989.38,-213.12 886.38,-213.12 886.38,-193.88 989.38,-193.88 989.38,-213.12"/>
<text text-anchor="middle" x="937.88" y="-199.62" font-family="Helvetica,sans-Serif" font-size="10.00">include/v8&#45;metrics.h</text>
</a>
</g>
</g>
<!-- Node8&#45;&gt;Node14 -->
<g id="edge13" class="edge">
<title>Node8&#45;&gt;Node14</title>
<path fill="none" stroke="#63b8ff" d="M945.25,-243.95C943.33,-233.69 941.07,-221.59 939.56,-213.53"/>
<polygon fill="#63b8ff" stroke="#63b8ff" points="941.93,-244.25 947.2,-253.43 948.81,-242.96 941.93,-244.25"/>
</g>
<!-- Node15 -->
<g id="node15" class="node">
<title>Node15</title>
<g id="a_node15"><a xlink:href="v8-snapshot_8h.html" target="_top" xlink:title=" ">
<polygon fill="white" stroke="#666666" points="1118.12,-213.12 1007.62,-213.12 1007.62,-193.88 1118.12,-193.88 1118.12,-213.12"/>
<text text-anchor="middle" x="1062.88" y="-199.62" font-family="Helvetica,sans-Serif" font-size="10.00">include/v8&#45;snapshot.h</text>
</a>
</g>
</g>
<!-- Node8&#45;&gt;Node15 -->
<g id="edge14" class="edge">
<title>Node8&#45;&gt;Node15</title>
<path fill="none" stroke="#63b8ff" d="M975.73,-249.5C997.26,-238.39 1026.84,-223.11 1045.4,-213.53"/>
<polygon fill="#63b8ff" stroke="#63b8ff" points="974.47,-246.73 967.19,-254.43 977.68,-252.95 974.47,-246.73"/>
</g>
<!-- Node10&#45;&gt;Node11 -->
<g id="edge10" class="edge">
<title>Node10&#45;&gt;Node11</title>
<path fill="none" stroke="#63b8ff" d="M1303.38,-186.47C1266.1,-155.17 1178.02,-86.29 1090.88,-55.25 1027.44,-32.65 826.13,-17.86 745.13,-12.68"/>
<polygon fill="#63b8ff" stroke="#63b8ff" points="1300.85,-189.76 1310.73,-193.57 1305.38,-184.43 1300.85,-189.76"/>
</g>
<!-- Node13 -->
<g id="node13" class="node">
<title>Node13</title>
<g id="a_node13"><a xlink:href="v8-inspector-protocol_8h.html" target="_top" xlink:title=" ">
<polygon fill="white" stroke="#666666" points="864.38,-152.25 761.38,-152.25 761.38,-121.75 864.38,-121.75 864.38,-152.25"/>
<text text-anchor="start" x="769.38" y="-138.75" font-family="Helvetica,sans-Serif" font-size="10.00">include/v8&#45;inspector</text>
<text text-anchor="middle" x="812.88" y="-127.5" font-family="Helvetica,sans-Serif" font-size="10.00">&#45;protocol.h</text>
</a>
</g>
</g>
<!-- Node12&#45;&gt;Node13 -->
<g id="edge12" class="edge">
<title>Node12&#45;&gt;Node13</title>
<path fill="none" stroke="#63b8ff" d="M812.88,-182.77C812.88,-172.95 812.88,-161.3 812.88,-152.34"/>
<polygon fill="#63b8ff" stroke="#63b8ff" points="809.38,-182.53 812.88,-192.53 816.38,-182.53 809.38,-182.53"/>
</g>
<!-- Node15&#45;&gt;Node11 -->
<g id="edge19" class="edge">
<title>Node15&#45;&gt;Node11</title>
<path fill="none" stroke="#63b8ff" d="M1036.73,-188.25C967.97,-150.77 783.53,-50.23 727.34,-19.6"/>
<polygon fill="#63b8ff" stroke="#63b8ff" points="1034.91,-191.79 1045.37,-193.5 1038.26,-185.64 1034.91,-191.79"/>
</g>
<!-- Node16 -->
<g id="node16" class="node">
<title>Node16</title>
<g id="a_node16"><a xlink:href="v8-context_8h.html" target="_top" xlink:title=" ">
<polygon fill="white" stroke="#666666" points="1086,-146.62 983.75,-146.62 983.75,-127.38 1086,-127.38 1086,-146.62"/>
<text text-anchor="middle" x="1034.88" y="-133.12" font-family="Helvetica,sans-Serif" font-size="10.00">include/v8&#45;context.h</text>
</a>
</g>
</g>
<!-- Node15&#45;&gt;Node16 -->
<g id="edge15" class="edge">
<title>Node15&#45;&gt;Node16</title>
<path fill="none" stroke="#63b8ff" d="M1054.63,-183.52C1049.38,-171.42 1042.82,-156.3 1038.74,-146.89"/>
<polygon fill="#63b8ff" stroke="#63b8ff" points="1051.79,-184.75 1058.98,-192.53 1058.21,-181.96 1051.79,-184.75"/>
</g>
<!-- Node16&#45;&gt;Node11 -->
<g id="edge18" class="edge">
<title>Node16&#45;&gt;Node11</title>
<path fill="none" stroke="#63b8ff" d="M1016.14,-120.06C993.58,-101.69 953.84,-71.9 914.88,-55.25 858.03,-30.96 786.42,-19.23 744.92,-14.11"/>
<polygon fill="#63b8ff" stroke="#63b8ff" points="1013.5,-123.25 1023.44,-126.94 1017.97,-117.86 1013.5,-123.25"/>
</g>
<!-- Node16&#45;&gt;Node17 -->
<g id="edge16" class="edge">
<title>Node16&#45;&gt;Node17</title>
<path fill="none" stroke="#63b8ff" d="M1034.88,-116.27C1034.88,-104.3 1034.88,-89.6 1034.88,-80.39"/>
<polygon fill="#63b8ff" stroke="#63b8ff" points="1031.38,-116.03 1034.88,-126.03 1038.38,-116.03 1031.38,-116.03"/>
</g>
<!-- Node17&#45;&gt;Node11 -->
<g id="edge17" class="edge">
<title>Node17&#45;&gt;Node11</title>
<path fill="none" stroke="#63b8ff" d="M982.03,-58.24C976.92,-57.21 971.8,-56.19 966.88,-55.25 887.57,-40.03 794.01,-24.28 744.9,-16.18"/>
<polygon fill="#63b8ff" stroke="#63b8ff" points="980.98,-61.81 991.48,-60.38 982.39,-54.95 980.98,-61.81"/>
</g>
<!-- Node18&#45;&gt;Node11 -->
<g id="edge23" class="edge">
<title>Node18&#45;&gt;Node11</title>
<path fill="none" stroke="#63b8ff" d="M1602.69,-245.83C1596.91,-238.06 1590.98,-228.49 1587.88,-218.75 1565.83,-149.49 1634.59,-107.33 1583.88,-55.25 1554.11,-24.69 903.02,-13.38 745.13,-11.09"/>
<polygon fill="#63b8ff" stroke="#63b8ff" points="1600.48,-247.67 1609.46,-253.29 1605.95,-243.3 1600.48,-247.67"/>
</g>
<!-- Node19 -->
<g id="node19" class="node">
<title>Node19</title>
<g id="a_node19"><a xlink:href="v8-fast-api-calls_8h.html" target="_top" xlink:title=" ">
<polygon fill="white" stroke="#666666" points="1692.62,-218.75 1597.12,-218.75 1597.12,-188.25 1692.62,-188.25 1692.62,-218.75"/>
<text text-anchor="start" x="1605.12" y="-205.25" font-family="Helvetica,sans-Serif" font-size="10.00">include/v8&#45;fast&#45;api</text>
<text text-anchor="middle" x="1644.88" y="-194" font-family="Helvetica,sans-Serif" font-size="10.00">&#45;calls.h</text>
</a>
</g>
</g>
<!-- Node18&#45;&gt;Node19 -->
<g id="edge22" class="edge">
<title>Node18&#45;&gt;Node19</title>
<path fill="none" stroke="#63b8ff" d="M1626.5,-244.57C1630.29,-236.3 1634.68,-226.74 1638.21,-219.03"/>
<polygon fill="#63b8ff" stroke="#63b8ff" points="1622.96,-242.88 1621.98,-253.43 1629.33,-245.8 1622.96,-242.88"/>
</g>
<!-- Node20&#45;&gt;Node11 -->
<g id="edge26" class="edge">
<title>Node20&#45;&gt;Node11</title>
<path fill="none" stroke="#63b8ff" d="M175.01,-118C189.09,-98.78 214.19,-69.21 243.88,-55.25 320.71,-19.12 582.17,-12.24 676.54,-10.93"/>
<polygon fill="#63b8ff" stroke="#63b8ff" points="171.59,-115.78 168.69,-125.97 177.31,-119.81 171.59,-115.78"/>
</g>
<!-- Node21&#45;&gt;Node11 -->
<g id="edge28" class="edge">
<title>Node21&#45;&gt;Node11</title>
<path fill="none" stroke="#63b8ff" d="M227.83,-243.53C226.81,-201.44 231,-103.14 287.88,-55.25 317.43,-30.37 581.28,-16.35 676.66,-12.06"/>
<polygon fill="#63b8ff" stroke="#63b8ff" points="224.37,-243.61 228.25,-253.46 231.36,-243.34 224.37,-243.61"/>
</g>
<!-- Node22&#45;&gt;Node8 -->
<g id="edge30" class="edge">
<title>Node22&#45;&gt;Node8</title>
<path fill="none" stroke="#63b8ff" d="M447.08,-492.99C517.15,-488.84 629.57,-478.2 722.88,-451 789.78,-431.5 811.45,-429.25 864.88,-384.5 904.26,-351.51 934,-295.94 944.63,-274.34"/>
<polygon fill="#63b8ff" stroke="#63b8ff" points="446.99,-489.55 437.21,-493.61 447.39,-496.54 446.99,-489.55"/>
</g>
<!-- Node22&#45;&gt;Node11 -->
<g id="edge35" class="edge">
<title>Node22&#45;&gt;Node11</title>
<path fill="none" stroke="#63b8ff" d="M374.93,-476.25C364.23,-434.01 339.88,-336.19 339.88,-320.62 339.88,-320.62 339.88,-320.62 339.88,-136 339.88,-95.75 348.06,-78.56 380.88,-55.25 427.89,-21.85 602.04,-13.41 676.62,-11.31"/>
<polygon fill="#63b8ff" stroke="#63b8ff" points="371.75,-476.96 377.61,-485.78 378.54,-475.23 371.75,-476.96"/>
</g>
<!-- Node22&#45;&gt;Node23 -->
<g id="edge31" class="edge">
<title>Node22&#45;&gt;Node23</title>
<path fill="none" stroke="#63b8ff" d="M358.64,-480.38C343.35,-469.4 323.25,-454.97 310.45,-445.78"/>
<polygon fill="#63b8ff" stroke="#63b8ff" points="356.26,-483.69 366.42,-486.68 360.34,-478.01 356.26,-483.69"/>
</g>
<!-- Node23&#45;&gt;Node11 -->
<g id="edge34" class="edge">
<title>Node23&#45;&gt;Node11</title>
<path fill="none" stroke="#63b8ff" d="M298.99,-414.99C300.17,-392.24 301.88,-353.75 301.88,-320.62 301.88,-320.62 301.88,-320.62 301.88,-136 301.88,-98.56 297.21,-79.33 325.88,-55.25 378.56,-11 592.75,-8.97 676.8,-9.94"/>
<polygon fill="#63b8ff" stroke="#63b8ff" points="295.44,-414.7 298.4,-424.88 302.43,-415.08 295.44,-414.7"/>
</g>
<!-- Node23&#45;&gt;Node24 -->
<g id="edge32" class="edge">
<title>Node23&#45;&gt;Node24</title>
<path fill="none" stroke="#63b8ff" d="M326.51,-421.04C349.8,-409.9 381.98,-394.49 402.11,-384.86"/>
<polygon fill="#63b8ff" stroke="#63b8ff" points="325.33,-418.21 317.82,-425.68 328.36,-424.52 325.33,-418.21"/>
</g>
<!-- Node24&#45;&gt;Node11 -->
<g id="edge33" class="edge">
<title>Node24&#45;&gt;Node11</title>
<path fill="none" stroke="#63b8ff" d="M410.38,-355.34C399.44,-334.25 383.88,-298.42 383.88,-265.38 383.88,-265.38 383.88,-265.38 383.88,-136 383.88,-99.13 375.69,-80.16 402.88,-55.25 442.31,-19.11 604.99,-12.18 676.68,-10.89"/>
<polygon fill="#63b8ff" stroke="#63b8ff" points="407.74,-356.81 415.57,-363.94 413.89,-353.48 407.74,-356.81"/>
</g>
<!-- Node25&#45;&gt;Node11 -->
<g id="edge38" class="edge">
<title>Node25&#45;&gt;Node11</title>
<path fill="none" stroke="#63b8ff" d="M522.91,-55.07C571.24,-43.64 636.99,-28.09 676.55,-18.74"/>
<polygon fill="#63b8ff" stroke="#63b8ff" points="522.19,-51.88 513.26,-57.59 523.8,-58.69 522.19,-51.88"/>
</g>
<!-- Node26&#45;&gt;Node11 -->
<g id="edge58" class="edge">
<title>Node26&#45;&gt;Node11</title>
<path fill="none" stroke="#63b8ff" d="M688.34,-547.87C625.89,-535.38 539.88,-505.68 539.88,-436.75 539.88,-436.75 539.88,-436.75 539.88,-136 539.88,-94.25 555.71,-81.87 587.88,-55.25 613.51,-34.03 650.09,-22.49 676.69,-16.49"/>
<polygon fill="#63b8ff" stroke="#63b8ff" points="687.45,-551.45 697.93,-549.86 688.75,-544.57 687.45,-551.45"/>
</g>
<!-- Node27 -->
<g id="node27" class="node">
<title>Node27</title>
<g id="a_node27"><a xlink:href="v8-callbacks_8h.html" target="_top" xlink:title=" ">
<polygon fill="white" stroke="#666666" points="972.88,-506.25 860.88,-506.25 860.88,-487 972.88,-487 972.88,-506.25"/>
<text text-anchor="middle" x="916.88" y="-492.75" font-family="Helvetica,sans-Serif" font-size="10.00">include/v8&#45;callbacks.h</text>
</a>
</g>
</g>
<!-- Node26&#45;&gt;Node27 -->
<g id="edge40" class="edge">
<title>Node26&#45;&gt;Node27</title>
<path fill="none" stroke="#63b8ff" d="M787.35,-543.84C818.67,-532.67 863.56,-516.65 891.43,-506.71"/>
<polygon fill="#63b8ff" stroke="#63b8ff" points="786.54,-540.77 778.29,-547.43 788.89,-547.37 786.54,-540.77"/>
</g>
<!-- Node33 -->
<g id="node33" class="node">
<title>Node33</title>
<g id="a_node33"><a xlink:href="v8-statistics_8h.html" target="_top" xlink:title=" ">
<polygon fill="white" stroke="#666666" points="1165.12,-329.25 1054.62,-329.25 1054.62,-310 1165.12,-310 1165.12,-329.25"/>
<text text-anchor="middle" x="1109.88" y="-315.75" font-family="Helvetica,sans-Serif" font-size="10.00">include/v8&#45;statistics.h</text>
</a>
</g>
</g>
<!-- Node26&#45;&gt;Node33 -->
<g id="edge55" class="edge">
<title>Node26&#45;&gt;Node33</title>
<path fill="none" stroke="#63b8ff" d="M815.71,-551.76C863.7,-546.07 929.85,-533.59 981.88,-506.25 1057.07,-466.73 1096.76,-360.83 1107.1,-329.49"/>
<polygon fill="#63b8ff" stroke="#63b8ff" points="815.39,-548.38 805.84,-552.97 816.17,-555.34 815.39,-548.38"/>
</g>
<!-- Node27&#45;&gt;Node8 -->
<g id="edge42" class="edge">
<title>Node27&#45;&gt;Node8</title>
<path fill="none" stroke="#63b8ff" d="M919.62,-475.87C926.27,-428.04 943.02,-307.52 947.66,-274.09"/>
<polygon fill="#63b8ff" stroke="#63b8ff" points="916.04,-475.21 918.13,-485.6 922.97,-476.18 916.04,-475.21"/>
</g>
<!-- Node27&#45;&gt;Node10 -->
<g id="edge41" class="edge">
<title>Node27&#45;&gt;Node10</title>
<path fill="none" stroke="#63b8ff" d="M944.53,-481.15C977.11,-461.88 1026.88,-424.48 1026.88,-375.88 1026.88,-375.88 1026.88,-375.88 1026.88,-318.62 1026.88,-290.76 1212.37,-235.32 1289.18,-213.57"/>
<polygon fill="#63b8ff" stroke="#63b8ff" points="943,-478.56 936.04,-486.55 946.46,-484.65 943,-478.56"/>
</g>
<!-- Node28 -->
<g id="node28" class="node">
<title>Node28</title>
<g id="a_node28"><a xlink:href="v8-message_8h.html" target="_top" xlink:title=" ">
<polygon fill="white" stroke="#666666" points="714.12,-445.38 603.62,-445.38 603.62,-426.12 714.12,-426.12 714.12,-445.38"/>
<text text-anchor="middle" x="658.88" y="-431.88" font-family="Helvetica,sans-Serif" font-size="10.00">include/v8&#45;message.h</text>
</a>
</g>
</g>
<!-- Node27&#45;&gt;Node28 -->
<g id="edge43" class="edge">
<title>Node27&#45;&gt;Node28</title>
<path fill="none" stroke="#63b8ff" d="M866.43,-484.11C817.35,-472.91 743.76,-456.12 698.67,-445.83"/>
<polygon fill="#63b8ff" stroke="#63b8ff" points="865.6,-487.74 876.13,-486.55 867.16,-480.92 865.6,-487.74"/>
</g>
<!-- Node31 -->
<g id="node31" class="node">
<title>Node31</title>
<g id="a_node31"><a xlink:href="v8-script_8h.html" target="_top" xlink:title=" ">
<polygon fill="white" stroke="#666666" points="856.25,-384.5 761.5,-384.5 761.5,-365.25 856.25,-365.25 856.25,-384.5"/>
<text text-anchor="middle" x="808.88" y="-371" font-family="Helvetica,sans-Serif" font-size="10.00">include/v8&#45;script.h</text>
</a>
</g>
</g>
<!-- Node27&#45;&gt;Node31 -->
<g id="edge54" class="edge">
<title>Node27&#45;&gt;Node31</title>
<path fill="none" stroke="#63b8ff" d="M901.45,-478.52C878.22,-452.76 835.08,-404.93 817.09,-384.98"/>
<polygon fill="#63b8ff" stroke="#63b8ff" points="898.46,-480.54 907.76,-485.62 903.66,-475.85 898.46,-480.54"/>
</g>
<!-- Node28&#45;&gt;Node11 -->
<g id="edge53" class="edge">
<title>Node28&#45;&gt;Node11</title>
<path fill="none" stroke="#63b8ff" d="M637.7,-418.84C613.7,-398.81 577.88,-361.99 577.88,-320.62 577.88,-320.62 577.88,-320.62 577.88,-136 577.88,-95.75 590.16,-83.45 618.88,-55.25 636.1,-38.33 660.99,-26.8 680.54,-19.7"/>
<polygon fill="#63b8ff" stroke="#63b8ff" points="635.23,-422.14 645.22,-425.66 639.6,-416.68 635.23,-422.14"/>
</g>
<!-- Node28&#45;&gt;Node24 -->
<g id="edge44" class="edge">
<title>Node28&#45;&gt;Node24</title>
<path fill="none" stroke="#63b8ff" d="M611.77,-423.1C566.5,-411.9 499.01,-395.2 457.58,-384.96"/>
<polygon fill="#63b8ff" stroke="#63b8ff" points="610.66,-426.68 621.21,-425.68 612.34,-419.88 610.66,-426.68"/>
</g>
<!-- Node29 -->
<g id="node29" class="node">
<title>Node29</title>
<g id="a_node29"><a xlink:href="v8-json_8h.html" target="_top" xlink:title=" ">
<polygon fill="white" stroke="#666666" points="694.25,-329.25 605.5,-329.25 605.5,-310 694.25,-310 694.25,-329.25"/>
<text text-anchor="middle" x="649.88" y="-315.75" font-family="Helvetica,sans-Serif" font-size="10.00">include/v8&#45;json.h</text>
</a>
</g>
</g>
<!-- Node28&#45;&gt;Node29 -->
<g id="edge45" class="edge">
<title>Node28&#45;&gt;Node29</title>
<path fill="none" stroke="#63b8ff" d="M647.82,-416.66C642.8,-407.4 637.42,-395.74 634.88,-384.5 630.45,-364.95 639.2,-342.09 645.1,-329.71"/>
<polygon fill="#63b8ff" stroke="#63b8ff" points="645.14,-418.02 653.16,-424.94 651.2,-414.52 645.14,-418.02"/>
</g>
<!-- Node30 -->
<g id="node30" class="node">
<title>Node30</title>
<g id="a_node30"><a xlink:href="v8-profiler_8h.html" target="_top" xlink:title=" ">
<polygon fill="white" stroke="#666666" points="743.5,-384.5 644.25,-384.5 644.25,-365.25 743.5,-365.25 743.5,-384.5"/>
<text text-anchor="middle" x="693.88" y="-371" font-family="Helvetica,sans-Serif" font-size="10.00">include/v8&#45;profiler.h</text>
</a>
</g>
</g>
<!-- Node28&#45;&gt;Node30 -->
<g id="edge47" class="edge">
<title>Node28&#45;&gt;Node30</title>
<path fill="none" stroke="#63b8ff" d="M669.64,-416.64C675.9,-406.11 683.51,-393.32 688.51,-384.9"/>
<polygon fill="#63b8ff" stroke="#63b8ff" points="666.29,-414.42 664.19,-424.81 672.31,-418 666.29,-414.42"/>
</g>
<!-- Node28&#45;&gt;Node31 -->
<g id="edge48" class="edge">
<title>Node28&#45;&gt;Node31</title>
<path fill="none" stroke="#63b8ff" d="M691.9,-421.79C720.43,-410.59 760.9,-394.71 785.99,-384.86"/>
<polygon fill="#63b8ff" stroke="#63b8ff" points="691.01,-418.77 682.98,-425.68 693.57,-425.28 691.01,-418.77"/>
</g>
<!-- Node29&#45;&gt;Node11 -->
<g id="edge46" class="edge">
<title>Node29&#45;&gt;Node11</title>
<path fill="none" stroke="#63b8ff" d="M640.68,-299.96C630.61,-277.77 615.88,-239.34 615.88,-204.5 615.88,-204.5 615.88,-204.5 615.88,-136 615.88,-98.56 617.24,-85.07 639.88,-55.25 652.29,-38.9 672.56,-27.02 688.28,-19.65"/>
<polygon fill="#63b8ff" stroke="#63b8ff" points="637.85,-301.18 645.29,-308.72 644.18,-298.19 637.85,-301.18"/>
</g>
<!-- Node31&#45;&gt;Node11 -->
<g id="edge52" class="edge">
<title>Node31&#45;&gt;Node11</title>
<path fill="none" stroke="#63b8ff" d="M781.07,-359.79C736.46,-334.98 653.88,-278.99 653.88,-204.5 653.88,-204.5 653.88,-204.5 653.88,-136 653.88,-88.66 687.97,-39.55 703.42,-19.73"/>
<polygon fill="#63b8ff" stroke="#63b8ff" points="779.02,-363.2 789.49,-364.87 782.35,-357.04 779.02,-363.2"/>
</g>
<!-- Node32 -->
<g id="node32" class="node">
<title>Node32</title>
<g id="a_node32"><a xlink:href="v8-debug_8h.html" target="_top" xlink:title=" ">
<polygon fill="white" stroke="#666666" points="855.38,-329.25 758.38,-329.25 758.38,-310 855.38,-310 855.38,-329.25"/>
<text text-anchor="middle" x="806.88" y="-315.75" font-family="Helvetica,sans-Serif" font-size="10.00">include/v8&#45;debug.h</text>
</a>
</g>
</g>
<!-- Node31&#45;&gt;Node32 -->
<g id="edge49" class="edge">
<title>Node31&#45;&gt;Node32</title>
<path fill="none" stroke="#63b8ff" d="M808.14,-354.21C807.82,-345.77 807.46,-336.33 807.21,-329.61"/>
<polygon fill="#63b8ff" stroke="#63b8ff" points="804.67,-354.22 808.54,-364.08 811.67,-353.96 804.67,-354.22"/>
</g>
<!-- Node32&#45;&gt;Node8 -->
<g id="edge50" class="edge">
<title>Node32&#45;&gt;Node8</title>
<path fill="none" stroke="#63b8ff" d="M841.07,-305.8C866.89,-296.12 901.68,-283.07 924.67,-274.45"/>
<polygon fill="#63b8ff" stroke="#63b8ff" points="840.1,-302.8 831.96,-309.59 842.56,-309.36 840.1,-302.8"/>
</g>
<!-- Node32&#45;&gt;Node11 -->
<g id="edge51" class="edge">
<title>Node32&#45;&gt;Node11</title>
<path fill="none" stroke="#63b8ff" d="M776.51,-304.75C742.44,-286.85 691.88,-252.25 691.88,-204.5 691.88,-204.5 691.88,-204.5 691.88,-136 691.88,-91.97 703.47,-40.21 708.55,-19.68"/>
<polygon fill="#63b8ff" stroke="#63b8ff" points="774.54,-308.18 785.05,-309.56 777.69,-301.93 774.54,-308.18"/>
</g>
<!-- Node33&#45;&gt;Node8 -->
<g id="edge56" class="edge">
<title>Node33&#45;&gt;Node8</title>
<path fill="none" stroke="#63b8ff" d="M1072.27,-306.19C1042.89,-296.47 1002.73,-283.19 976.32,-274.45"/>
<polygon fill="#63b8ff" stroke="#63b8ff" points="1070.97,-309.77 1081.56,-309.59 1073.17,-303.13 1070.97,-309.77"/>
</g>
<!-- Node33&#45;&gt;Node11 -->
<g id="edge57" class="edge">
<title>Node33&#45;&gt;Node11</title>
<path fill="none" stroke="#63b8ff" d="M1174.78,-307.51C1263.27,-290.5 1410.88,-254.6 1410.88,-204.5 1410.88,-204.5 1410.88,-204.5 1410.88,-136 1410.88,-67.56 885.65,-23.61 745.11,-13.08"/>
<polygon fill="#63b8ff" stroke="#63b8ff" points="1174.21,-304.25 1165.04,-309.55 1175.51,-311.13 1174.21,-304.25"/>
</g>
<!-- Node34&#45;&gt;Node11 -->
<g id="edge61" class="edge">
<title>Node34&#45;&gt;Node11</title>
<path fill="none" stroke="#63b8ff" d="M1461.78,-537.54C1471.85,-514.32 1486.88,-473.52 1486.88,-436.75 1486.88,-436.75 1486.88,-436.75 1486.88,-263.38 1486.88,-194.66 1474.65,-169.12 1424.88,-121.75 1325.37,-27.05 873.59,-13.05 745.07,-10.98"/>
<polygon fill="#63b8ff" stroke="#63b8ff" points="1458.24,-535.88 1457.32,-546.43 1464.62,-538.76 1458.24,-535.88"/>
</g>
<!-- Node35&#45;&gt;Node11 -->
<g id="edge64" class="edge">
<title>Node35&#45;&gt;Node11</title>
<path fill="none" stroke="#63b8ff" d="M1479.71,-58.15C1474.06,-57.03 1468.36,-56.03 1462.88,-55.25 1188.03,-16.28 852,-11.25 745.18,-10.67"/>
<polygon fill="#63b8ff" stroke="#63b8ff" points="1478.91,-61.77 1489.41,-60.41 1480.35,-54.92 1478.91,-61.77"/>
</g>
</g>
</svg>
