<?xml version="1.0" encoding="UTF-8" standalone="no"?>
<!DOCTYPE svg PUBLIC "-//W3C//DTD SVG 1.1//EN"
 "http://www.w3.org/Graphics/SVG/1.1/DTD/svg11.dtd">
<!-- Generated by graphviz version 8.0.5 (20230430.1635)
 -->
<!-- Title: include/v8&#45;extension.h Pages: 1 -->
<svg width="995pt" height="492pt"
 viewBox="0.00 0.00 995.25 491.75" xmlns="http://www.w3.org/2000/svg" xmlns:xlink="http://www.w3.org/1999/xlink">
<g id="graph0" class="graph" transform="scale(1 1) rotate(0) translate(4 487.75)">
<title>include/v8&#45;extension.h</title>
<!-- Node1 -->
<g id="node1" class="node">
<title>Node1</title>
<g id="a_node1"><a xlink:title=" ">
<polygon fill="#999999" stroke="#666666" points="398,-483.75 286,-483.75 286,-464.5 398,-464.5 398,-483.75"/>
<text text-anchor="middle" x="342" y="-470.25" font-family="Helvetica,sans-Serif" font-size="10.00">include/v8&#45;extension.h</text>
</a>
</g>
</g>
<!-- Node2 -->
<g id="node2" class="node">
<title>Node2</title>
<g id="a_node2"><a xlink:title=" ">
<polygon fill="#e0e0e0" stroke="#999999" points="177.25,-19.25 126.75,-19.25 126.75,0 177.25,0 177.25,-19.25"/>
<text text-anchor="middle" x="152" y="-5.75" font-family="Helvetica,sans-Serif" font-size="10.00">memory</text>
</a>
</g>
</g>
<!-- Node1&#45;&gt;Node2 -->
<g id="edge1" class="edge">
<title>Node1&#45;&gt;Node2</title>
<path fill="none" stroke="#63b8ff" d="M285.73,-471.78C230.78,-468.61 145.9,-458.7 79,-428.5 37.85,-409.92 0,-409.78 0,-364.62 0,-364.62 0,-364.62 0,-124.75 0,-66.86 71.38,-34.72 116.31,-20.22"/>
<polygon fill="#63b8ff" stroke="#63b8ff" points="117.03,-23.35 125.56,-17.07 114.97,-16.66 117.03,-23.35"/>
</g>
<!-- Node3 -->
<g id="node3" class="node">
<title>Node3</title>
<g id="a_node3"><a xlink:href="v8-local-handle_8h.html" target="_top" xlink:title=" ">
<polygon fill="white" stroke="#666666" points="822.38,-257.12 733.62,-257.12 733.62,-237.88 822.38,-237.88 822.38,-257.12"/>
<text text-anchor="middle" x="778" y="-243.62" font-family="Helvetica,sans-Serif" font-size="10.00">v8&#45;local&#45;handle.h</text>
</a>
</g>
</g>
<!-- Node1&#45;&gt;Node3 -->
<g id="edge2" class="edge">
<title>Node1&#45;&gt;Node3</title>
<path fill="none" stroke="#63b8ff" d="M398.27,-470.51C459.22,-466.36 558.63,-455.69 640,-428.5 688.9,-412.16 706.59,-410.72 742,-373.25 769.52,-344.12 776.18,-295.29 777.68,-268.17"/>
<polygon fill="#63b8ff" stroke="#63b8ff" points="781.21,-268.5 778.06,-258.38 774.21,-268.25 781.21,-268.5"/>
</g>
<!-- Node15 -->
<g id="node15" class="node">
<title>Node15</title>
<g id="a_node15"><a xlink:href="v8config_8h.html" target="_top" xlink:title=" ">
<polygon fill="white" stroke="#666666" points="181.75,-74.5 122.25,-74.5 122.25,-55.25 181.75,-55.25 181.75,-74.5"/>
<text text-anchor="middle" x="152" y="-61" font-family="Helvetica,sans-Serif" font-size="10.00">v8config.h</text>
</a>
</g>
</g>
<!-- Node1&#45;&gt;Node15 -->
<g id="edge47" class="edge">
<title>Node1&#45;&gt;Node15</title>
<path fill="none" stroke="#63b8ff" d="M285.53,-464.8C197.62,-450.22 38,-416.6 38,-364.62 38,-364.62 38,-364.62 38,-185.62 38,-136.12 89.75,-98.96 123.51,-79.99"/>
<polygon fill="#63b8ff" stroke="#63b8ff" points="124.78,-82.74 131.92,-74.91 121.46,-76.58 124.78,-82.74"/>
</g>
<!-- Node16 -->
<g id="node16" class="node">
<title>Node16</title>
<g id="a_node16"><a xlink:href="v8-primitive_8h.html" target="_top" xlink:title=" ">
<polygon fill="white" stroke="#666666" points="630.88,-428.5 557.12,-428.5 557.12,-409.25 630.88,-409.25 630.88,-428.5"/>
<text text-anchor="middle" x="594" y="-415" font-family="Helvetica,sans-Serif" font-size="10.00">v8&#45;primitive.h</text>
</a>
</g>
</g>
<!-- Node1&#45;&gt;Node16 -->
<g id="edge20" class="edge">
<title>Node1&#45;&gt;Node16</title>
<path fill="none" stroke="#63b8ff" d="M385.03,-464.03C429.8,-454.57 499.73,-439.8 546.19,-429.98"/>
<polygon fill="#63b8ff" stroke="#63b8ff" points="546.83,-433.21 555.89,-427.72 545.38,-426.36 546.83,-433.21"/>
</g>
<!-- Node4 -->
<g id="node4" class="node">
<title>Node4</title>
<g id="a_node4"><a xlink:title=" ">
<polygon fill="#e0e0e0" stroke="#999999" points="987.25,-74.5 936.75,-74.5 936.75,-55.25 987.25,-55.25 987.25,-74.5"/>
<text text-anchor="middle" x="962" y="-61" font-family="Helvetica,sans-Serif" font-size="10.00">stddef.h</text>
</a>
</g>
</g>
<!-- Node3&#45;&gt;Node4 -->
<g id="edge3" class="edge">
<title>Node3&#45;&gt;Node4</title>
<path fill="none" stroke="#63b8ff" d="M822.8,-243.71C857.75,-239.1 904.92,-227.12 933,-196.25 961,-165.47 963.99,-113.78 963.28,-85.62"/>
<polygon fill="#63b8ff" stroke="#63b8ff" points="966.74,-85.64 962.79,-75.81 959.75,-85.96 966.74,-85.64"/>
</g>
<!-- Node5 -->
<g id="node5" class="node">
<title>Node5</title>
<g id="a_node5"><a xlink:title=" ">
<polygon fill="#e0e0e0" stroke="#999999" points="496.5,-74.5 435.5,-74.5 435.5,-55.25 496.5,-55.25 496.5,-74.5"/>
<text text-anchor="middle" x="466" y="-61" font-family="Helvetica,sans-Serif" font-size="10.00">type_traits</text>
</a>
</g>
</g>
<!-- Node3&#45;&gt;Node5 -->
<g id="edge4" class="edge">
<title>Node3&#45;&gt;Node5</title>
<path fill="none" stroke="#63b8ff" d="M766.55,-237.68C736.32,-214.68 651.37,-151.76 574,-110.5 550.88,-98.17 523.59,-86.92 502.23,-78.8"/>
<polygon fill="#63b8ff" stroke="#63b8ff" points="503.55,-75.18 492.96,-74.96 501.1,-81.74 503.55,-75.18"/>
</g>
<!-- Node6 -->
<g id="node6" class="node">
<title>Node6</title>
<g id="a_node6"><a xlink:title=" ">
<polygon fill="#e0e0e0" stroke="#999999" points="777.5,-196.25 734.5,-196.25 734.5,-177 777.5,-177 777.5,-196.25"/>
<text text-anchor="middle" x="756" y="-182.75" font-family="Helvetica,sans-Serif" font-size="10.00">vector</text>
</a>
</g>
</g>
<!-- Node3&#45;&gt;Node6 -->
<g id="edge5" class="edge">
<title>Node3&#45;&gt;Node6</title>
<path fill="none" stroke="#63b8ff" d="M774.66,-237.56C771.62,-229.43 767.04,-217.17 763.18,-206.83"/>
<polygon fill="#63b8ff" stroke="#63b8ff" points="766.15,-205.79 759.37,-197.65 759.59,-208.24 766.15,-205.79"/>
</g>
<!-- Node7 -->
<g id="node7" class="node">
<title>Node7</title>
<g id="a_node7"><a xlink:href="v8-handle-base_8h.html" target="_top" xlink:title=" ">
<polygon fill="white" stroke="#666666" points="923.75,-196.25 834.25,-196.25 834.25,-177 923.75,-177 923.75,-196.25"/>
<text text-anchor="middle" x="879" y="-182.75" font-family="Helvetica,sans-Serif" font-size="10.00">v8&#45;handle&#45;base.h</text>
</a>
</g>
</g>
<!-- Node3&#45;&gt;Node7 -->
<g id="edge6" class="edge">
<title>Node3&#45;&gt;Node7</title>
<path fill="none" stroke="#63b8ff" d="M793.34,-237.56C809.51,-228.13 835.21,-213.15 854.25,-202.05"/>
<polygon fill="#63b8ff" stroke="#63b8ff" points="855.64,-204.71 862.52,-196.65 852.11,-198.66 855.64,-204.71"/>
</g>
<!-- Node8 -->
<g id="node8" class="node">
<title>Node8</title>
<g id="a_node8"><a xlink:href="v8-internal_8h.html" target="_top" xlink:title=" ">
<polygon fill="white" stroke="#666666" points="761.25,-135.38 692.75,-135.38 692.75,-116.12 761.25,-116.12 761.25,-135.38"/>
<text text-anchor="middle" x="727" y="-121.88" font-family="Helvetica,sans-Serif" font-size="10.00">v8&#45;internal.h</text>
</a>
</g>
</g>
<!-- Node3&#45;&gt;Node8 -->
<g id="edge19" class="edge">
<title>Node3&#45;&gt;Node8</title>
<path fill="none" stroke="#63b8ff" d="M781.94,-237.47C787.31,-223.73 795.27,-197.07 786,-177 779.21,-162.3 765.77,-150.32 753.43,-141.75"/>
<polygon fill="#63b8ff" stroke="#63b8ff" points="755.63,-138.36 745.34,-135.87 751.83,-144.24 755.63,-138.36"/>
</g>
<!-- Node7&#45;&gt;Node8 -->
<g id="edge7" class="edge">
<title>Node7&#45;&gt;Node8</title>
<path fill="none" stroke="#63b8ff" d="M855.58,-176.55C830.14,-166.7 789.29,-150.88 760.47,-139.71"/>
<polygon fill="#63b8ff" stroke="#63b8ff" points="762.03,-136.18 751.44,-135.83 759.5,-142.71 762.03,-136.18"/>
</g>
<!-- Node8&#45;&gt;Node2 -->
<g id="edge14" class="edge">
<title>Node8&#45;&gt;Node2</title>
<path fill="none" stroke="#63b8ff" d="M761.44,-121.81C820.3,-115.57 930.17,-97.92 890,-55.25 865.72,-29.46 334.46,-14.96 188.7,-11.46"/>
<polygon fill="#63b8ff" stroke="#63b8ff" points="188.81,-7.94 178.73,-11.2 188.64,-14.94 188.81,-7.94"/>
</g>
<!-- Node8&#45;&gt;Node4 -->
<g id="edge8" class="edge">
<title>Node8&#45;&gt;Node4</title>
<path fill="none" stroke="#63b8ff" d="M761.68,-116.06C805.67,-105.04 881.18,-86.12 925.86,-74.93"/>
<polygon fill="#63b8ff" stroke="#63b8ff" points="926.4,-78.15 935.25,-72.33 924.7,-71.36 926.4,-78.15"/>
</g>
<!-- Node8&#45;&gt;Node5 -->
<g id="edge16" class="edge">
<title>Node8&#45;&gt;Node5</title>
<path fill="none" stroke="#63b8ff" d="M697.92,-115.69C691.7,-113.87 685.15,-112.05 679,-110.5 605.7,-92.07 584.06,-91.08 507.33,-74.96"/>
<polygon fill="#63b8ff" stroke="#63b8ff" points="508.16,-71.35 497.65,-72.69 506.7,-78.19 508.16,-71.35"/>
</g>
<!-- Node9 -->
<g id="node9" class="node">
<title>Node9</title>
<g id="a_node9"><a xlink:title=" ">
<polygon fill="#e0e0e0" stroke="#999999" points="880.75,-74.5 833.25,-74.5 833.25,-55.25 880.75,-55.25 880.75,-74.5"/>
<text text-anchor="middle" x="857" y="-61" font-family="Helvetica,sans-Serif" font-size="10.00">stdint.h</text>
</a>
</g>
</g>
<!-- Node8&#45;&gt;Node9 -->
<g id="edge9" class="edge">
<title>Node8&#45;&gt;Node9</title>
<path fill="none" stroke="#63b8ff" d="M747.03,-115.68C768.47,-105.97 802.71,-90.46 827.29,-79.33"/>
<polygon fill="#63b8ff" stroke="#63b8ff" points="828.5,-82.17 836.16,-74.86 825.61,-75.8 828.5,-82.17"/>
</g>
<!-- Node10 -->
<g id="node10" class="node">
<title>Node10</title>
<g id="a_node10"><a xlink:title=" ">
<polygon fill="#e0e0e0" stroke="#999999" points="561.75,-74.5 514.25,-74.5 514.25,-55.25 561.75,-55.25 561.75,-74.5"/>
<text text-anchor="middle" x="538" y="-61" font-family="Helvetica,sans-Serif" font-size="10.00">string.h</text>
</a>
</g>
</g>
<!-- Node8&#45;&gt;Node10 -->
<g id="edge10" class="edge">
<title>Node8&#45;&gt;Node10</title>
<path fill="none" stroke="#63b8ff" d="M697.88,-115.68C664.1,-105.16 608.45,-87.82 572.52,-76.63"/>
<polygon fill="#63b8ff" stroke="#63b8ff" points="573.64,-73 563.05,-73.37 571.56,-79.68 573.64,-73"/>
</g>
<!-- Node11 -->
<g id="node11" class="node">
<title>Node11</title>
<g id="a_node11"><a xlink:title=" ">
<polygon fill="#e0e0e0" stroke="#999999" points="624.62,-74.5 579.38,-74.5 579.38,-55.25 624.62,-55.25 624.62,-74.5"/>
<text text-anchor="middle" x="602" y="-61" font-family="Helvetica,sans-Serif" font-size="10.00">atomic</text>
</a>
</g>
</g>
<!-- Node8&#45;&gt;Node11 -->
<g id="edge11" class="edge">
<title>Node8&#45;&gt;Node11</title>
<path fill="none" stroke="#63b8ff" d="M707.74,-115.68C687.22,-106.01 654.5,-90.6 630.89,-79.48"/>
<polygon fill="#63b8ff" stroke="#63b8ff" points="632.61,-75.95 622.07,-74.86 629.63,-82.29 632.61,-75.95"/>
</g>
<!-- Node12 -->
<g id="node12" class="node">
<title>Node12</title>
<g id="a_node12"><a xlink:title=" ">
<polygon fill="#e0e0e0" stroke="#999999" points="689,-74.5 643,-74.5 643,-55.25 689,-55.25 689,-74.5"/>
<text text-anchor="middle" x="666" y="-61" font-family="Helvetica,sans-Serif" font-size="10.00">iterator</text>
</a>
</g>
</g>
<!-- Node8&#45;&gt;Node12 -->
<g id="edge12" class="edge">
<title>Node8&#45;&gt;Node12</title>
<path fill="none" stroke="#63b8ff" d="M717.74,-115.81C708.6,-106.99 694.42,-93.3 683.21,-82.48"/>
<polygon fill="#63b8ff" stroke="#63b8ff" points="685.98,-80.33 676.35,-75.9 681.12,-85.36 685.98,-80.33"/>
</g>
<!-- Node13 -->
<g id="node13" class="node">
<title>Node13</title>
<g id="a_node13"><a xlink:title=" ">
<polygon fill="#e0e0e0" stroke="#999999" points="746.62,-74.5 707.38,-74.5 707.38,-55.25 746.62,-55.25 746.62,-74.5"/>
<text text-anchor="middle" x="727" y="-61" font-family="Helvetica,sans-Serif" font-size="10.00">limits</text>
</a>
</g>
</g>
<!-- Node8&#45;&gt;Node13 -->
<g id="edge13" class="edge">
<title>Node8&#45;&gt;Node13</title>
<path fill="none" stroke="#63b8ff" d="M727,-115.81C727,-107.85 727,-95.94 727,-85.74"/>
<polygon fill="#63b8ff" stroke="#63b8ff" points="730.5,-85.9 727,-75.9 723.5,-85.9 730.5,-85.9"/>
</g>
<!-- Node14 -->
<g id="node14" class="node">
<title>Node14</title>
<g id="a_node14"><a xlink:title=" ">
<polygon fill="#e0e0e0" stroke="#999999" points="814.88,-74.5 765.12,-74.5 765.12,-55.25 814.88,-55.25 814.88,-74.5"/>
<text text-anchor="middle" x="790" y="-61" font-family="Helvetica,sans-Serif" font-size="10.00">optional</text>
</a>
</g>
</g>
<!-- Node8&#45;&gt;Node14 -->
<g id="edge15" class="edge">
<title>Node8&#45;&gt;Node14</title>
<path fill="none" stroke="#63b8ff" d="M736.57,-115.81C746.1,-106.9 760.94,-93.03 772.57,-82.17"/>
<polygon fill="#63b8ff" stroke="#63b8ff" points="774.43,-85.29 779.34,-75.9 769.65,-80.17 774.43,-85.29"/>
</g>
<!-- Node8&#45;&gt;Node15 -->
<g id="edge17" class="edge">
<title>Node8&#45;&gt;Node15</title>
<path fill="none" stroke="#63b8ff" d="M692.33,-121.2C591.84,-110.91 300.77,-81.11 192.87,-70.06"/>
<polygon fill="#63b8ff" stroke="#63b8ff" points="193.43,-66.5 183.12,-68.96 192.72,-73.46 193.43,-66.5"/>
</g>
<!-- Node15&#45;&gt;Node2 -->
<g id="edge18" class="edge">
<title>Node15&#45;&gt;Node2</title>
<path fill="none" stroke="#63b8ff" d="M152,-55.08C152,-48.42 152,-38.99 152,-30.53"/>
<polygon fill="#63b8ff" stroke="#63b8ff" points="155.5,-30.61 152,-20.61 148.5,-30.61 155.5,-30.61"/>
</g>
<!-- Node16&#45;&gt;Node3 -->
<g id="edge25" class="edge">
<title>Node16&#45;&gt;Node3</title>
<path fill="none" stroke="#63b8ff" d="M631.34,-412.58C658.76,-406.96 695.36,-395.66 720,-373.25 751.55,-344.55 767.31,-295.19 773.95,-267.96"/>
<polygon fill="#63b8ff" stroke="#63b8ff" points="777.53,-268.98 776.32,-258.46 770.71,-267.44 777.53,-268.98"/>
</g>
<!-- Node16&#45;&gt;Node8 -->
<g id="edge24" class="edge">
<title>Node16&#45;&gt;Node8</title>
<path fill="none" stroke="#63b8ff" d="M615.59,-408.78C648.14,-393.45 706,-359.19 706,-309.38 706,-309.38 706,-309.38 706,-246.5 706,-210.57 715.29,-169.47 721.51,-145.97"/>
<polygon fill="#63b8ff" stroke="#63b8ff" points="725.06,-147.24 724.34,-136.67 718.31,-145.38 725.06,-147.24"/>
</g>
<!-- Node16&#45;&gt;Node15 -->
<g id="edge46" class="edge">
<title>Node16&#45;&gt;Node15</title>
<path fill="none" stroke="#63b8ff" d="M556.75,-418.01C437.97,-417.45 76,-407.69 76,-309.38 76,-309.38 76,-309.38 76,-185.62 76,-143.05 110.67,-103.36 133.18,-82.08"/>
<polygon fill="#63b8ff" stroke="#63b8ff" points="135.07,-85.17 140.11,-75.85 130.36,-80 135.07,-85.17"/>
</g>
<!-- Node17 -->
<g id="node17" class="node">
<title>Node17</title>
<g id="a_node17"><a xlink:href="v8-data_8h.html" target="_top" xlink:title=" ">
<polygon fill="white" stroke="#666666" points="677.88,-318 622.12,-318 622.12,-298.75 677.88,-298.75 677.88,-318"/>
<text text-anchor="middle" x="650" y="-304.5" font-family="Helvetica,sans-Serif" font-size="10.00">v8&#45;data.h</text>
</a>
</g>
</g>
<!-- Node16&#45;&gt;Node17 -->
<g id="edge21" class="edge">
<title>Node16&#45;&gt;Node17</title>
<path fill="none" stroke="#63b8ff" d="M598.58,-409C607.69,-391.35 628.23,-351.55 640.42,-327.95"/>
<polygon fill="#63b8ff" stroke="#63b8ff" points="643.88,-329.87 645.35,-319.38 637.66,-326.66 643.88,-329.87"/>
</g>
<!-- Node18 -->
<g id="node18" class="node">
<title>Node18</title>
<g id="a_node18"><a xlink:href="v8-value_8h.html" target="_top" xlink:title=" ">
<polygon fill="white" stroke="#666666" points="595.12,-373.25 534.88,-373.25 534.88,-354 595.12,-354 595.12,-373.25"/>
<text text-anchor="middle" x="565" y="-359.75" font-family="Helvetica,sans-Serif" font-size="10.00">v8&#45;value.h</text>
</a>
</g>
</g>
<!-- Node16&#45;&gt;Node18 -->
<g id="edge26" class="edge">
<title>Node16&#45;&gt;Node18</title>
<path fill="none" stroke="#63b8ff" d="M589.21,-409.08C585.37,-402.03 579.85,-391.9 575.05,-383.08"/>
<polygon fill="#63b8ff" stroke="#63b8ff" points="577.75,-381.72 569.89,-374.61 571.6,-385.07 577.75,-381.72"/>
</g>
<!-- Node17&#45;&gt;Node3 -->
<g id="edge22" class="edge">
<title>Node17&#45;&gt;Node3</title>
<path fill="none" stroke="#63b8ff" d="M669.72,-298.3C690.83,-288.6 724.54,-273.09 748.74,-261.96"/>
<polygon fill="#63b8ff" stroke="#63b8ff" points="749.85,-264.84 757.47,-257.48 746.92,-258.48 749.85,-264.84"/>
</g>
<!-- Node17&#45;&gt;Node15 -->
<g id="edge23" class="edge">
<title>Node17&#45;&gt;Node15</title>
<path fill="none" stroke="#63b8ff" d="M621.69,-304.93C544.33,-298.07 333.34,-278.17 306,-262.75 231.03,-220.47 179.78,-125.52 160.51,-84.9"/>
<polygon fill="#63b8ff" stroke="#63b8ff" points="163.29,-83.58 155.92,-75.97 156.94,-86.52 163.29,-83.58"/>
</g>
<!-- Node18&#45;&gt;Node3 -->
<g id="edge29" class="edge">
<title>Node18&#45;&gt;Node3</title>
<path fill="none" stroke="#63b8ff" d="M569.29,-353.78C576.44,-339.98 592.09,-313.39 613,-298.75 645.53,-275.96 688.65,-263.3 722.65,-256.39"/>
<polygon fill="#63b8ff" stroke="#63b8ff" points="723.18,-259.66 732.34,-254.34 721.86,-252.78 723.18,-259.66"/>
</g>
<!-- Node18&#45;&gt;Node8 -->
<g id="edge28" class="edge">
<title>Node18&#45;&gt;Node8</title>
<path fill="none" stroke="#63b8ff" d="M567.6,-353.56C571.46,-340.82 579.42,-317.12 590,-298.75 625.91,-236.43 683.17,-172.68 710.9,-143.36"/>
<polygon fill="#63b8ff" stroke="#63b8ff" points="712.82,-146.37 717.2,-136.72 707.76,-141.53 712.82,-146.37"/>
</g>
<!-- Node18&#45;&gt;Node15 -->
<g id="edge45" class="edge">
<title>Node18&#45;&gt;Node15</title>
<path fill="none" stroke="#63b8ff" d="M534.71,-361.49C433.59,-356.91 114,-335.53 114,-248.5 114,-248.5 114,-248.5 114,-185.62 114,-148.34 130.94,-107.46 142.2,-84.41"/>
<polygon fill="#63b8ff" stroke="#63b8ff" points="145.63,-86.38 147.03,-75.88 139.39,-83.21 145.63,-86.38"/>
</g>
<!-- Node18&#45;&gt;Node17 -->
<g id="edge27" class="edge">
<title>Node18&#45;&gt;Node17</title>
<path fill="none" stroke="#63b8ff" d="M579.42,-353.59C592.24,-345.56 611.23,-333.66 626.29,-324.23"/>
<polygon fill="#63b8ff" stroke="#63b8ff" points="627.89,-326.73 634.51,-318.45 624.18,-320.8 627.89,-326.73"/>
</g>
<!-- Node19 -->
<g id="node19" class="node">
<title>Node19</title>
<g id="a_node19"><a xlink:href="v8-maybe_8h.html" target="_top" xlink:title=" ">
<polygon fill="white" stroke="#666666" points="527.75,-318 462.25,-318 462.25,-298.75 527.75,-298.75 527.75,-318"/>
<text text-anchor="middle" x="495" y="-304.5" font-family="Helvetica,sans-Serif" font-size="10.00">v8&#45;maybe.h</text>
</a>
</g>
</g>
<!-- Node18&#45;&gt;Node19 -->
<g id="edge30" class="edge">
<title>Node18&#45;&gt;Node19</title>
<path fill="none" stroke="#63b8ff" d="M553.13,-353.59C542.81,-345.74 527.63,-334.2 515.37,-324.87"/>
<polygon fill="#63b8ff" stroke="#63b8ff" points="517.78,-321.54 507.7,-318.27 513.54,-327.11 517.78,-321.54"/>
</g>
<!-- Node19&#45;&gt;Node5 -->
<g id="edge31" class="edge">
<title>Node19&#45;&gt;Node5</title>
<path fill="none" stroke="#63b8ff" d="M501.31,-298.49C521.04,-269.5 578.13,-175.8 541,-110.5 532.97,-96.37 518.5,-86.25 504.4,-79.26"/>
<polygon fill="#63b8ff" stroke="#63b8ff" points="506.34,-75.84 495.78,-74.9 503.45,-82.22 506.34,-75.84"/>
</g>
<!-- Node19&#45;&gt;Node8 -->
<g id="edge43" class="edge">
<title>Node19&#45;&gt;Node8</title>
<path fill="none" stroke="#63b8ff" d="M515.52,-298.39C531.33,-290.69 552.96,-278.38 568,-262.75 598.29,-231.28 583.83,-206.54 616,-177 634.97,-159.58 660.99,-147.37 683.07,-139.35"/>
<polygon fill="#63b8ff" stroke="#63b8ff" points="683.91,-142.42 692.23,-135.85 681.63,-135.8 683.91,-142.42"/>
</g>
<!-- Node19&#45;&gt;Node15 -->
<g id="edge44" class="edge">
<title>Node19&#45;&gt;Node15</title>
<path fill="none" stroke="#63b8ff" d="M461.79,-307.63C388.28,-307.45 215.24,-302.69 176,-262.75 128.76,-214.67 139.73,-125.01 147.51,-85.47"/>
<polygon fill="#63b8ff" stroke="#63b8ff" points="151.1,-86.42 149.76,-75.91 144.25,-84.96 151.1,-86.42"/>
</g>
<!-- Node20 -->
<g id="node20" class="node">
<title>Node20</title>
<g id="a_node20"><a xlink:title=" ">
<polygon fill="#e0e0e0" stroke="#999999" points="532.25,-135.38 493.75,-135.38 493.75,-116.12 532.25,-116.12 532.25,-135.38"/>
<text text-anchor="middle" x="513" y="-121.88" font-family="Helvetica,sans-Serif" font-size="10.00">utility</text>
</a>
</g>
</g>
<!-- Node19&#45;&gt;Node20 -->
<g id="edge32" class="edge">
<title>Node19&#45;&gt;Node20</title>
<path fill="none" stroke="#63b8ff" d="M495.87,-298.66C498.61,-271.13 507.14,-185.53 511.03,-146.5"/>
<polygon fill="#63b8ff" stroke="#63b8ff" points="514.59,-147.1 512.1,-136.8 507.62,-146.4 514.59,-147.1"/>
</g>
<!-- Node21 -->
<g id="node21" class="node">
<title>Node21</title>
<g id="a_node21"><a xlink:href="conditional-stack-allocated_8h.html" target="_top" xlink:title=" ">
<polygon fill="white" stroke="#666666" points="441.12,-262.75 314.88,-262.75 314.88,-232.25 441.12,-232.25 441.12,-262.75"/>
<text text-anchor="start" x="322.88" y="-249.25" font-family="Helvetica,sans-Serif" font-size="10.00">cppgc/internal/conditional</text>
<text text-anchor="middle" x="378" y="-238" font-family="Helvetica,sans-Serif" font-size="10.00">&#45;stack&#45;allocated.h</text>
</a>
</g>
</g>
<!-- Node19&#45;&gt;Node21 -->
<g id="edge33" class="edge">
<title>Node19&#45;&gt;Node21</title>
<path fill="none" stroke="#63b8ff" d="M476.98,-298.3C461,-290.27 437.13,-278.25 416.83,-268.04"/>
<polygon fill="#63b8ff" stroke="#63b8ff" points="418.71,-264.56 408.2,-263.19 415.56,-270.82 418.71,-264.56"/>
</g>
<!-- Node21&#45;&gt;Node5 -->
<g id="edge34" class="edge">
<title>Node21&#45;&gt;Node5</title>
<path fill="none" stroke="#63b8ff" d="M325.85,-231.81C295.37,-220.28 265.5,-201.99 280,-177 296.19,-149.11 316.34,-159.15 343,-141 360.9,-128.81 362.88,-122.37 381,-110.5 398.67,-98.93 419.67,-87.88 436.37,-79.67"/>
<polygon fill="#63b8ff" stroke="#63b8ff" points="437.67,-82.45 445.15,-74.95 434.63,-76.15 437.67,-82.45"/>
</g>
<!-- Node22 -->
<g id="node22" class="node">
<title>Node22</title>
<g id="a_node22"><a xlink:href="macros_8h.html" target="_top" xlink:title=" ">
<polygon fill="white" stroke="#666666" points="374.5,-196.25 289.5,-196.25 289.5,-177 374.5,-177 374.5,-196.25"/>
<text text-anchor="middle" x="332" y="-182.75" font-family="Helvetica,sans-Serif" font-size="10.00">cppgc/macros.h</text>
</a>
</g>
</g>
<!-- Node21&#45;&gt;Node22 -->
<g id="edge35" class="edge">
<title>Node21&#45;&gt;Node22</title>
<path fill="none" stroke="#63b8ff" d="M366.63,-231.95C360.3,-223.84 352.37,-213.7 345.7,-205.16"/>
<polygon fill="#63b8ff" stroke="#63b8ff" points="348.01,-203.43 339.09,-197.7 342.49,-207.74 348.01,-203.43"/>
</g>
<!-- Node25 -->
<g id="node25" class="node">
<title>Node25</title>
<g id="a_node25"><a xlink:href="type-traits_8h.html" target="_top" xlink:title=" ">
<polygon fill="white" stroke="#666666" points="487.75,-196.25 392.25,-196.25 392.25,-177 487.75,-177 487.75,-196.25"/>
<text text-anchor="middle" x="440" y="-182.75" font-family="Helvetica,sans-Serif" font-size="10.00">cppgc/type&#45;traits.h</text>
</a>
</g>
</g>
<!-- Node21&#45;&gt;Node25 -->
<g id="edge39" class="edge">
<title>Node21&#45;&gt;Node25</title>
<path fill="none" stroke="#63b8ff" d="M393.33,-231.95C402.22,-223.5 413.45,-212.83 422.67,-204.08"/>
<polygon fill="#63b8ff" stroke="#63b8ff" points="424.6,-207.13 429.44,-197.7 419.78,-202.05 424.6,-207.13"/>
</g>
<!-- Node23 -->
<g id="node23" class="node">
<title>Node23</title>
<g id="a_node23"><a xlink:title=" ">
<polygon fill="#e0e0e0" stroke="#999999" points="438.12,-135.38 389.88,-135.38 389.88,-116.12 438.12,-116.12 438.12,-135.38"/>
<text text-anchor="middle" x="414" y="-121.88" font-family="Helvetica,sans-Serif" font-size="10.00">cstddef</text>
</a>
</g>
</g>
<!-- Node22&#45;&gt;Node23 -->
<g id="edge36" class="edge">
<title>Node22&#45;&gt;Node23</title>
<path fill="none" stroke="#63b8ff" d="M344.45,-176.68C357.22,-167.52 377.31,-153.09 392.62,-142.1"/>
<polygon fill="#63b8ff" stroke="#63b8ff" points="394.35,-144.45 400.43,-135.78 390.26,-138.77 394.35,-144.45"/>
</g>
<!-- Node24 -->
<g id="node24" class="node">
<title>Node24</title>
<g id="a_node24"><a xlink:href="compiler-specific_8h.html" target="_top" xlink:title=" ">
<polygon fill="white" stroke="#666666" points="334.25,-141 217.75,-141 217.75,-110.5 334.25,-110.5 334.25,-141"/>
<text text-anchor="start" x="225.75" y="-127.5" font-family="Helvetica,sans-Serif" font-size="10.00">cppgc/internal/compiler</text>
<text text-anchor="middle" x="276" y="-116.25" font-family="Helvetica,sans-Serif" font-size="10.00">&#45;specific.h</text>
</a>
</g>
</g>
<!-- Node22&#45;&gt;Node24 -->
<g id="edge37" class="edge">
<title>Node22&#45;&gt;Node24</title>
<path fill="none" stroke="#63b8ff" d="M323.49,-176.68C316.51,-169.34 306.33,-158.63 297.17,-149.01"/>
<polygon fill="#63b8ff" stroke="#63b8ff" points="300.25,-147.12 290.82,-142.28 295.18,-151.94 300.25,-147.12"/>
</g>
<!-- Node24&#45;&gt;Node15 -->
<g id="edge38" class="edge">
<title>Node24&#45;&gt;Node15</title>
<path fill="none" stroke="#63b8ff" d="M245.03,-110.05C225.33,-100.69 200,-88.66 180.74,-79.52"/>
<polygon fill="#63b8ff" stroke="#63b8ff" points="182.55,-76.03 172.02,-74.9 179.55,-82.35 182.55,-76.03"/>
</g>
<!-- Node25&#45;&gt;Node5 -->
<g id="edge41" class="edge">
<title>Node25&#45;&gt;Node5</title>
<path fill="none" stroke="#63b8ff" d="M441.95,-176.62C446.13,-157.38 456.02,-111.85 461.73,-85.55"/>
<polygon fill="#63b8ff" stroke="#63b8ff" points="465.32,-86.5 464.02,-75.98 458.48,-85.01 465.32,-86.5"/>
</g>
<!-- Node25&#45;&gt;Node20 -->
<g id="edge42" class="edge">
<title>Node25&#45;&gt;Node20</title>
<path fill="none" stroke="#63b8ff" d="M451.09,-176.68C462.34,-167.61 480,-153.37 493.58,-142.41"/>
<polygon fill="#63b8ff" stroke="#63b8ff" points="495.22,-144.78 500.81,-135.78 490.83,-139.33 495.22,-144.78"/>
</g>
<!-- Node25&#45;&gt;Node23 -->
<g id="edge40" class="edge">
<title>Node25&#45;&gt;Node23</title>
<path fill="none" stroke="#63b8ff" d="M436.05,-176.68C432.42,-168.47 426.93,-156.03 422.34,-145.62"/>
<polygon fill="#63b8ff" stroke="#63b8ff" points="425.23,-144.51 417.99,-136.78 418.82,-147.34 425.23,-144.51"/>
</g>
</g>
</svg>
