<?xml version="1.0" encoding="UTF-8" standalone="no"?>
<!DOCTYPE svg PUBLIC "-//W3C//DTD SVG 1.1//EN"
 "http://www.w3.org/Graphics/SVG/1.1/DTD/svg11.dtd">
<!-- Generated by graphviz version 8.0.5 (20230430.1635)
 -->
<!-- Title: include/v8&#45;initialization.h Pages: 1 -->
<svg width="3081pt" height="801pt"
 viewBox="0.00 0.00 3081.33 800.75" xmlns="http://www.w3.org/2000/svg" xmlns:xlink="http://www.w3.org/1999/xlink">
<g id="graph0" class="graph" transform="scale(1 1) rotate(0) translate(4 796.75)">
<title>include/v8&#45;initialization.h</title>
<!-- Node1 -->
<g id="node1" class="node">
<title>Node1</title>
<g id="a_node1"><a xlink:title=" ">
<polygon fill="#999999" stroke="#666666" points="2217.5,-792.75 2096.5,-792.75 2096.5,-773.5 2217.5,-773.5 2217.5,-792.75"/>
<text text-anchor="middle" x="2157" y="-779.25" font-family="Helvetica,sans-Serif" font-size="10.00">include/v8&#45;initialization.h</text>
</a>
</g>
</g>
<!-- Node2 -->
<g id="node2" class="node">
<title>Node2</title>
<g id="a_node2"><a xlink:title=" ">
<polygon fill="#e0e0e0" stroke="#999999" points="354.25,-74.5 303.75,-74.5 303.75,-55.25 354.25,-55.25 354.25,-74.5"/>
<text text-anchor="middle" x="329" y="-61" font-family="Helvetica,sans-Serif" font-size="10.00">stddef.h</text>
</a>
</g>
</g>
<!-- Node1&#45;&gt;Node2 -->
<g id="edge1" class="edge">
<title>Node1&#45;&gt;Node2</title>
<path fill="none" stroke="#63b8ff" d="M2096.12,-781.51C1792.82,-778.36 452.25,-763.06 268,-737.5 155.26,-721.86 20,-787.44 20,-673.62 20,-673.62 20,-673.62 20,-395.38 20,-254.88 41.44,-190.41 157,-110.5 197.93,-82.2 255.57,-71.84 292.61,-68.06"/>
<polygon fill="#63b8ff" stroke="#63b8ff" points="292.76,-71.47 302.41,-67.08 292.13,-64.5 292.76,-71.47"/>
</g>
<!-- Node3 -->
<g id="node3" class="node">
<title>Node3</title>
<g id="a_node3"><a xlink:title=" ">
<polygon fill="#e0e0e0" stroke="#999999" points="2948.75,-74.5 2901.25,-74.5 2901.25,-55.25 2948.75,-55.25 2948.75,-74.5"/>
<text text-anchor="middle" x="2925" y="-61" font-family="Helvetica,sans-Serif" font-size="10.00">stdint.h</text>
</a>
</g>
</g>
<!-- Node1&#45;&gt;Node3 -->
<g id="edge2" class="edge">
<title>Node1&#45;&gt;Node3</title>
<path fill="none" stroke="#63b8ff" d="M2217.83,-781C2396.17,-777.42 2909.63,-764.81 2980,-737.5 3021.77,-721.29 3058,-718.43 3058,-673.62 3058,-673.62 3058,-673.62 3058,-174.38 3058,-123.47 2998.77,-92.19 2959.36,-77.01"/>
<polygon fill="#63b8ff" stroke="#63b8ff" points="2960.68,-73.39 2950.09,-73.24 2958.27,-79.97 2960.68,-73.39"/>
</g>
<!-- Node4 -->
<g id="node4" class="node">
<title>Node4</title>
<g id="a_node4"><a xlink:href="v8-callbacks_8h.html" target="_top" xlink:title=" ">
<polygon fill="white" stroke="#666666" points="901.12,-571.75 822.88,-571.75 822.88,-552.5 901.12,-552.5 901.12,-571.75"/>
<text text-anchor="middle" x="862" y="-558.25" font-family="Helvetica,sans-Serif" font-size="10.00">v8&#45;callbacks.h</text>
</a>
</g>
</g>
<!-- Node1&#45;&gt;Node4 -->
<g id="edge3" class="edge">
<title>Node1&#45;&gt;Node4</title>
<path fill="none" stroke="#63b8ff" d="M2096.14,-781.04C1886.29,-776.65 1194.46,-756.75 987,-682.25 946.33,-667.65 937.7,-657.41 907,-627 893.18,-613.31 880.72,-594.9 872.43,-581.37"/>
<polygon fill="#63b8ff" stroke="#63b8ff" points="875.07,-579.95 866.96,-573.13 869.04,-583.52 875.07,-579.95"/>
</g>
<!-- Node8 -->
<g id="node8" class="node">
<title>Node8</title>
<g id="a_node8"><a xlink:href="v8config_8h.html" target="_top" xlink:title=" ">
<polygon fill="white" stroke="#666666" points="1647.75,-74.5 1588.25,-74.5 1588.25,-55.25 1647.75,-55.25 1647.75,-74.5"/>
<text text-anchor="middle" x="1618" y="-61" font-family="Helvetica,sans-Serif" font-size="10.00">v8config.h</text>
</a>
</g>
</g>
<!-- Node1&#45;&gt;Node8 -->
<g id="edge167" class="edge">
<title>Node1&#45;&gt;Node8</title>
<path fill="none" stroke="#63b8ff" d="M2096.18,-782.12C1758.97,-781.71 134,-774.5 134,-673.62 134,-673.62 134,-673.62 134,-561.12 134,-353.22 214.41,-286.02 384,-165.75 436.88,-128.25 455.61,-124.09 519,-110.5 748.8,-61.22 1342.62,-102.24 1576,-74.5 1576.36,-74.46 1576.72,-74.41 1577.09,-74.37"/>
<polygon fill="#63b8ff" stroke="#63b8ff" points="1577.47,-77.69 1586.82,-72.71 1576.4,-70.78 1577.47,-77.69"/>
</g>
<!-- Node15 -->
<g id="node15" class="node">
<title>Node15</title>
<g id="a_node15"><a xlink:href="v8-internal_8h.html" target="_top" xlink:title=" ">
<polygon fill="white" stroke="#666666" points="2020.25,-129.75 1951.75,-129.75 1951.75,-110.5 2020.25,-110.5 2020.25,-129.75"/>
<text text-anchor="middle" x="1986" y="-116.25" font-family="Helvetica,sans-Serif" font-size="10.00">v8&#45;internal.h</text>
</a>
</g>
</g>
<!-- Node1&#45;&gt;Node15 -->
<g id="edge79" class="edge">
<title>Node1&#45;&gt;Node15</title>
<path fill="none" stroke="#63b8ff" d="M2217.82,-778.26C2384.39,-767.07 2838.46,-732.2 2882,-682.25 2887.62,-675.8 2885.54,-670.79 2882,-663 2757.63,-389.32 2627.19,-376.64 2370,-221 2317.69,-189.34 2302.55,-183.37 2244,-165.75 2171.21,-143.85 2083.42,-131.52 2031.29,-125.6"/>
<polygon fill="#63b8ff" stroke="#63b8ff" points="2031.74,-122.02 2021.42,-124.4 2030.97,-128.98 2031.74,-122.02"/>
</g>
<!-- Node49 -->
<g id="node34" class="node">
<title>Node49</title>
<g id="a_node34"><a xlink:href="v8-isolate_8h.html" target="_top" xlink:title=" ">
<polygon fill="white" stroke="#666666" points="2189.75,-737.5 2124.25,-737.5 2124.25,-718.25 2189.75,-718.25 2189.75,-737.5"/>
<text text-anchor="middle" x="2157" y="-724" font-family="Helvetica,sans-Serif" font-size="10.00">v8&#45;isolate.h</text>
</a>
</g>
</g>
<!-- Node1&#45;&gt;Node49 -->
<g id="edge80" class="edge">
<title>Node1&#45;&gt;Node49</title>
<path fill="none" stroke="#63b8ff" d="M2157,-773.33C2157,-766.67 2157,-757.24 2157,-748.78"/>
<polygon fill="#63b8ff" stroke="#63b8ff" points="2160.5,-748.86 2157,-738.86 2153.5,-748.86 2160.5,-748.86"/>
</g>
<!-- Node30 -->
<g id="node38" class="node">
<title>Node30</title>
<g id="a_node38"><a xlink:href="v8-platform_8h.html" target="_top" xlink:title=" ">
<polygon fill="white" stroke="#666666" points="2654.12,-185 2581.88,-185 2581.88,-165.75 2654.12,-165.75 2654.12,-185"/>
<text text-anchor="middle" x="2618" y="-171.5" font-family="Helvetica,sans-Serif" font-size="10.00">v8&#45;platform.h</text>
</a>
</g>
</g>
<!-- Node1&#45;&gt;Node30 -->
<g id="edge166" class="edge">
<title>Node1&#45;&gt;Node30</title>
<path fill="none" stroke="#63b8ff" d="M2217.69,-782.51C2394.23,-783.1 2898.86,-780.94 2958,-737.5 2982.44,-719.55 2982,-703.95 2982,-673.62 2982,-673.62 2982,-673.62 2982,-395.38 2982,-249.26 2764,-198.14 2665.42,-182.49"/>
<polygon fill="#63b8ff" stroke="#63b8ff" points="2665.98,-178.88 2655.57,-180.84 2664.93,-185.8 2665.98,-178.88"/>
</g>
<!-- Node4&#45;&gt;Node2 -->
<g id="edge4" class="edge">
<title>Node4&#45;&gt;Node2</title>
<path fill="none" stroke="#63b8ff" d="M822.44,-560.79C715.48,-557.46 420.82,-531.59 305,-350.75 249.99,-264.86 298.76,-133.3 320.14,-84.74"/>
<polygon fill="#63b8ff" stroke="#63b8ff" points="323.63,-86.51 324.58,-75.96 317.26,-83.62 323.63,-86.51"/>
</g>
<!-- Node5 -->
<g id="node5" class="node">
<title>Node5</title>
<g id="a_node5"><a xlink:title=" ">
<polygon fill="#e0e0e0" stroke="#999999" points="732,-516.5 674,-516.5 674,-497.25 732,-497.25 732,-516.5"/>
<text text-anchor="middle" x="703" y="-503" font-family="Helvetica,sans-Serif" font-size="10.00">functional</text>
</a>
</g>
</g>
<!-- Node4&#45;&gt;Node5 -->
<g id="edge5" class="edge">
<title>Node4&#45;&gt;Node5</title>
<path fill="none" stroke="#63b8ff" d="M835.03,-552.09C808.99,-543.37 769.34,-530.09 740.28,-520.36"/>
<polygon fill="#63b8ff" stroke="#63b8ff" points="741.7,-516.81 731.1,-516.95 739.48,-523.45 741.7,-516.81"/>
</g>
<!-- Node6 -->
<g id="node6" class="node">
<title>Node6</title>
<g id="a_node6"><a xlink:title=" ">
<polygon fill="#e0e0e0" stroke="#999999" points="2793,-74.5 2753,-74.5 2753,-55.25 2793,-55.25 2793,-74.5"/>
<text text-anchor="middle" x="2773" y="-61" font-family="Helvetica,sans-Serif" font-size="10.00">string</text>
</a>
</g>
</g>
<!-- Node4&#45;&gt;Node6 -->
<g id="edge6" class="edge">
<title>Node4&#45;&gt;Node6</title>
<path fill="none" stroke="#63b8ff" d="M901.49,-561.23C1051.27,-561.27 1598.6,-558.38 2047,-516.5 2212.11,-501.08 2255.27,-502.06 2416,-461.25 2485.67,-443.56 2512.49,-451.67 2568,-406 2680.57,-313.38 2747.03,-141.74 2766.76,-84.79"/>
<polygon fill="#63b8ff" stroke="#63b8ff" points="2770.28,-86.31 2770.17,-75.71 2763.65,-84.06 2770.28,-86.31"/>
</g>
<!-- Node7 -->
<g id="node7" class="node">
<title>Node7</title>
<g id="a_node7"><a xlink:href="common_8h.html" target="_top" xlink:title=" ">
<polygon fill="white" stroke="#666666" points="2038.12,-516.5 1947.88,-516.5 1947.88,-497.25 2038.12,-497.25 2038.12,-516.5"/>
<text text-anchor="middle" x="1993" y="-503" font-family="Helvetica,sans-Serif" font-size="10.00">cppgc/common.h</text>
</a>
</g>
</g>
<!-- Node4&#45;&gt;Node7 -->
<g id="edge7" class="edge">
<title>Node4&#45;&gt;Node7</title>
<path fill="none" stroke="#63b8ff" d="M901.48,-560.07C1038.86,-556.26 1508.73,-542.06 1896,-516.5 1909.31,-515.62 1923.63,-514.47 1937.08,-513.29"/>
<polygon fill="#63b8ff" stroke="#63b8ff" points="1936.99,-516.72 1946.63,-512.34 1936.36,-509.75 1936.99,-516.72"/>
</g>
<!-- Node4&#45;&gt;Node8 -->
<g id="edge78" class="edge">
<title>Node4&#45;&gt;Node8</title>
<path fill="none" stroke="#63b8ff" d="M846.21,-552.13C823.35,-539.26 779.56,-515.17 741,-497.25 702.31,-479.27 686.73,-486.04 652,-461.25 576.6,-407.43 511.39,-357.43 556,-276.25 600.12,-195.96 648.85,-208.25 730,-165.75 785.98,-136.43 799.4,-124.58 861,-110.5 1171.18,-39.6 1260.36,-114.62 1576,-74.5 1576.36,-74.45 1576.72,-74.41 1577.08,-74.36"/>
<polygon fill="#63b8ff" stroke="#63b8ff" points="1577.49,-77.68 1586.81,-72.65 1576.38,-70.77 1577.49,-77.68"/>
</g>
<!-- Node10 -->
<g id="node10" class="node">
<title>Node10</title>
<g id="a_node10"><a xlink:href="v8-data_8h.html" target="_top" xlink:title=" ">
<polygon fill="white" stroke="#666666" points="1147.88,-295.5 1092.12,-295.5 1092.12,-276.25 1147.88,-276.25 1147.88,-295.5"/>
<text text-anchor="middle" x="1120" y="-282" font-family="Helvetica,sans-Serif" font-size="10.00">v8&#45;data.h</text>
</a>
</g>
</g>
<!-- Node4&#45;&gt;Node10 -->
<g id="edge10" class="edge">
<title>Node4&#45;&gt;Node10</title>
<path fill="none" stroke="#63b8ff" d="M871.42,-552.01C880.61,-543.07 894.91,-529 907,-516.5 982.59,-438.34 1070.05,-342.18 1104.72,-303.83"/>
<polygon fill="#63b8ff" stroke="#63b8ff" points="1106.9,-306.53 1111,-296.76 1101.71,-301.83 1106.9,-306.53"/>
</g>
<!-- Node11 -->
<g id="node11" class="node">
<title>Node11</title>
<g id="a_node11"><a xlink:href="v8-local-handle_8h.html" target="_top" xlink:title=" ">
<polygon fill="white" stroke="#666666" points="1226.38,-240.25 1137.62,-240.25 1137.62,-221 1226.38,-221 1226.38,-240.25"/>
<text text-anchor="middle" x="1182" y="-226.75" font-family="Helvetica,sans-Serif" font-size="10.00">v8&#45;local&#45;handle.h</text>
</a>
</g>
</g>
<!-- Node4&#45;&gt;Node11 -->
<g id="edge29" class="edge">
<title>Node4&#45;&gt;Node11</title>
<path fill="none" stroke="#63b8ff" d="M849.67,-552.31C839.3,-544.2 824.92,-531.23 817,-516.5 777.47,-442.93 732.78,-397.47 784,-331.5 794.74,-317.66 1024.05,-266.1 1129.63,-242.98"/>
<polygon fill="#63b8ff" stroke="#63b8ff" points="1130.03,-246.25 1139.05,-240.7 1128.53,-239.41 1130.03,-246.25"/>
</g>
<!-- Node21 -->
<g id="node21" class="node">
<title>Node21</title>
<g id="a_node21"><a xlink:href="v8-promise_8h.html" target="_top" xlink:title=" ">
<polygon fill="white" stroke="#666666" points="897.75,-516.5 826.25,-516.5 826.25,-497.25 897.75,-497.25 897.75,-516.5"/>
<text text-anchor="middle" x="862" y="-503" font-family="Helvetica,sans-Serif" font-size="10.00">v8&#45;promise.h</text>
</a>
</g>
</g>
<!-- Node4&#45;&gt;Node21 -->
<g id="edge30" class="edge">
<title>Node4&#45;&gt;Node21</title>
<path fill="none" stroke="#63b8ff" d="M862,-552.33C862,-545.67 862,-536.24 862,-527.78"/>
<polygon fill="#63b8ff" stroke="#63b8ff" points="865.5,-527.86 862,-517.86 858.5,-527.86 865.5,-527.86"/>
</g>
<!-- Node7&#45;&gt;Node8 -->
<g id="edge8" class="edge">
<title>Node7&#45;&gt;Node8</title>
<path fill="none" stroke="#63b8ff" d="M1986.35,-496.79C1964.29,-467.41 1890.08,-374.35 1805,-331.5 1727.46,-292.45 1696.3,-319.96 1613,-295.5 1487.8,-258.74 1413.86,-293.25 1341,-185 1312.08,-142.04 1493.34,-94.32 1577.16,-74.87"/>
<polygon fill="#63b8ff" stroke="#63b8ff" points="1577.87,-78.07 1586.83,-72.42 1576.3,-71.24 1577.87,-78.07"/>
</g>
<!-- Node9 -->
<g id="node9" class="node">
<title>Node9</title>
<g id="a_node9"><a xlink:title=" ">
<polygon fill="#e0e0e0" stroke="#999999" points="2199.25,-19.25 2148.75,-19.25 2148.75,0 2199.25,0 2199.25,-19.25"/>
<text text-anchor="middle" x="2174" y="-5.75" font-family="Helvetica,sans-Serif" font-size="10.00">memory</text>
</a>
</g>
</g>
<!-- Node8&#45;&gt;Node9 -->
<g id="edge9" class="edge">
<title>Node8&#45;&gt;Node9</title>
<path fill="none" stroke="#63b8ff" d="M1647.89,-61.01C1742.47,-51.95 2034.96,-23.94 2137.79,-14.09"/>
<polygon fill="#63b8ff" stroke="#63b8ff" points="2137.92,-17.5 2147.54,-13.06 2137.25,-10.53 2137.92,-17.5"/>
</g>
<!-- Node10&#45;&gt;Node8 -->
<g id="edge28" class="edge">
<title>Node10&#45;&gt;Node8</title>
<path fill="none" stroke="#63b8ff" d="M1114.18,-275.87C1105.43,-262.79 1087.89,-238.19 1069,-221 1043.37,-197.68 993.41,-193.61 1014,-165.75 1080.08,-76.34 1482.04,-88.53 1576,-74.5 1576.36,-74.45 1576.72,-74.39 1577.08,-74.34"/>
<polygon fill="#63b8ff" stroke="#63b8ff" points="1577.53,-77.64 1586.79,-72.49 1576.34,-70.74 1577.53,-77.64"/>
</g>
<!-- Node10&#45;&gt;Node11 -->
<g id="edge11" class="edge">
<title>Node10&#45;&gt;Node11</title>
<path fill="none" stroke="#63b8ff" d="M1130.52,-275.84C1139.48,-268.15 1152.57,-256.9 1163.31,-247.68"/>
<polygon fill="#63b8ff" stroke="#63b8ff" points="1165.33,-249.7 1170.64,-240.52 1160.77,-244.39 1165.33,-249.7"/>
</g>
<!-- Node11&#45;&gt;Node2 -->
<g id="edge12" class="edge">
<title>Node11&#45;&gt;Node2</title>
<path fill="none" stroke="#63b8ff" d="M1168.63,-220.53C1144.6,-204.37 1094.76,-171.78 1075,-165.75 933.45,-122.56 548.46,-182.01 410,-129.75 383.7,-119.83 359.21,-98.06 344.19,-82.71"/>
<polygon fill="#63b8ff" stroke="#63b8ff" points="347.28,-80.82 337.87,-75.95 342.19,-85.63 347.28,-80.82"/>
</g>
<!-- Node12 -->
<g id="node12" class="node">
<title>Node12</title>
<g id="a_node12"><a xlink:title=" ">
<polygon fill="#e0e0e0" stroke="#999999" points="1498.5,-74.5 1437.5,-74.5 1437.5,-55.25 1498.5,-55.25 1498.5,-74.5"/>
<text text-anchor="middle" x="1468" y="-61" font-family="Helvetica,sans-Serif" font-size="10.00">type_traits</text>
</a>
</g>
</g>
<!-- Node11&#45;&gt;Node12 -->
<g id="edge13" class="edge">
<title>Node11&#45;&gt;Node12</title>
<path fill="none" stroke="#63b8ff" d="M1179.69,-220.7C1174.58,-198.69 1164.95,-141.39 1194,-110.5 1224.97,-77.58 1357.64,-68.94 1426.36,-66.68"/>
<polygon fill="#63b8ff" stroke="#63b8ff" points="1426.32,-70.15 1436.21,-66.36 1426.11,-63.16 1426.32,-70.15"/>
</g>
<!-- Node13 -->
<g id="node13" class="node">
<title>Node13</title>
<g id="a_node13"><a xlink:title=" ">
<polygon fill="#e0e0e0" stroke="#999999" points="1065.5,-185 1022.5,-185 1022.5,-165.75 1065.5,-165.75 1065.5,-185"/>
<text text-anchor="middle" x="1044" y="-171.5" font-family="Helvetica,sans-Serif" font-size="10.00">vector</text>
</a>
</g>
</g>
<!-- Node11&#45;&gt;Node13 -->
<g id="edge14" class="edge">
<title>Node11&#45;&gt;Node13</title>
<path fill="none" stroke="#63b8ff" d="M1158.59,-220.59C1135.85,-211.82 1101.14,-198.43 1075.89,-188.68"/>
<polygon fill="#63b8ff" stroke="#63b8ff" points="1077.29,-185.08 1066.7,-184.75 1074.77,-191.61 1077.29,-185.08"/>
</g>
<!-- Node14 -->
<g id="node14" class="node">
<title>Node14</title>
<g id="a_node14"><a xlink:href="v8-handle-base_8h.html" target="_top" xlink:title=" ">
<polygon fill="white" stroke="#666666" points="1439.75,-185 1350.25,-185 1350.25,-165.75 1439.75,-165.75 1439.75,-185"/>
<text text-anchor="middle" x="1395" y="-171.5" font-family="Helvetica,sans-Serif" font-size="10.00">v8&#45;handle&#45;base.h</text>
</a>
</g>
</g>
<!-- Node11&#45;&gt;Node14 -->
<g id="edge15" class="edge">
<title>Node11&#45;&gt;Node14</title>
<path fill="none" stroke="#63b8ff" d="M1218.13,-220.59C1253.93,-211.64 1308.94,-197.89 1348.1,-188.1"/>
<polygon fill="#63b8ff" stroke="#63b8ff" points="1348.84,-191.27 1357.69,-185.45 1347.14,-184.48 1348.84,-191.27"/>
</g>
<!-- Node11&#45;&gt;Node15 -->
<g id="edge27" class="edge">
<title>Node11&#45;&gt;Node15</title>
<path fill="none" stroke="#63b8ff" d="M1199.07,-220.68C1227.57,-206.24 1287.07,-178.12 1341,-165.75 1455.43,-139.5 1813.52,-126.35 1940.66,-122.42"/>
<polygon fill="#63b8ff" stroke="#63b8ff" points="1940.64,-125.89 1950.53,-122.09 1940.43,-118.9 1940.64,-125.89"/>
</g>
<!-- Node14&#45;&gt;Node15 -->
<g id="edge16" class="edge">
<title>Node14&#45;&gt;Node15</title>
<path fill="none" stroke="#63b8ff" d="M1439.91,-170.33C1549.68,-160.44 1830.65,-135.12 1940.76,-125.2"/>
<polygon fill="#63b8ff" stroke="#63b8ff" points="1940.84,-128.62 1950.49,-124.23 1940.21,-121.65 1940.84,-128.62"/>
</g>
<!-- Node15&#45;&gt;Node2 -->
<g id="edge17" class="edge">
<title>Node15&#45;&gt;Node2</title>
<path fill="none" stroke="#63b8ff" d="M1951.39,-118.01C1736.46,-111.11 586.1,-74.14 365.57,-67.05"/>
<polygon fill="#63b8ff" stroke="#63b8ff" points="365.74,-63.52 355.64,-66.7 365.52,-70.52 365.74,-63.52"/>
</g>
<!-- Node15&#45;&gt;Node3 -->
<g id="edge18" class="edge">
<title>Node15&#45;&gt;Node3</title>
<path fill="none" stroke="#63b8ff" d="M2020.61,-117.42C2133.21,-111.85 2499.32,-93.39 2802,-74.5 2831.69,-72.65 2865.4,-70.26 2890.01,-68.47"/>
<polygon fill="#63b8ff" stroke="#63b8ff" points="2890.25,-71.89 2899.97,-67.67 2889.74,-64.91 2890.25,-71.89"/>
</g>
<!-- Node15&#45;&gt;Node8 -->
<g id="edge26" class="edge">
<title>Node15&#45;&gt;Node8</title>
<path fill="none" stroke="#63b8ff" d="M1951.42,-112.74C1946.91,-111.96 1942.35,-111.19 1938,-110.5 1837.88,-94.53 1719.61,-78.87 1658.74,-71.04"/>
<polygon fill="#63b8ff" stroke="#63b8ff" points="1659.42,-67.47 1649.06,-69.67 1658.53,-74.41 1659.42,-67.47"/>
</g>
<!-- Node15&#45;&gt;Node9 -->
<g id="edge23" class="edge">
<title>Node15&#45;&gt;Node9</title>
<path fill="none" stroke="#63b8ff" d="M1998.54,-110.13C2016.72,-97.25 2051.66,-73.16 2083,-55.25 2102.8,-43.94 2125.86,-32.65 2143.82,-24.25"/>
<polygon fill="#63b8ff" stroke="#63b8ff" points="2145.13,-27.04 2152.74,-19.66 2142.2,-20.68 2145.13,-27.04"/>
</g>
<!-- Node15&#45;&gt;Node12 -->
<g id="edge25" class="edge">
<title>Node15&#45;&gt;Node12</title>
<path fill="none" stroke="#63b8ff" d="M1951.36,-117.05C1872.88,-112.1 1675.61,-98.18 1512,-74.5 1511.06,-74.36 1510.1,-74.22 1509.14,-74.07"/>
<polygon fill="#63b8ff" stroke="#63b8ff" points="1510.15,-70.52 1499.71,-72.3 1508.98,-77.42 1510.15,-70.52"/>
</g>
<!-- Node16 -->
<g id="node16" class="node">
<title>Node16</title>
<g id="a_node16"><a xlink:title=" ">
<polygon fill="#e0e0e0" stroke="#999999" points="2009.75,-74.5 1962.25,-74.5 1962.25,-55.25 2009.75,-55.25 2009.75,-74.5"/>
<text text-anchor="middle" x="1986" y="-61" font-family="Helvetica,sans-Serif" font-size="10.00">string.h</text>
</a>
</g>
</g>
<!-- Node15&#45;&gt;Node16 -->
<g id="edge19" class="edge">
<title>Node15&#45;&gt;Node16</title>
<path fill="none" stroke="#63b8ff" d="M1986,-110.33C1986,-103.67 1986,-94.24 1986,-85.78"/>
<polygon fill="#63b8ff" stroke="#63b8ff" points="1989.5,-85.86 1986,-75.86 1982.5,-85.86 1989.5,-85.86"/>
</g>
<!-- Node17 -->
<g id="node17" class="node">
<title>Node17</title>
<g id="a_node17"><a xlink:title=" ">
<polygon fill="#e0e0e0" stroke="#999999" points="2137.62,-74.5 2092.38,-74.5 2092.38,-55.25 2137.62,-55.25 2137.62,-74.5"/>
<text text-anchor="middle" x="2115" y="-61" font-family="Helvetica,sans-Serif" font-size="10.00">atomic</text>
</a>
</g>
</g>
<!-- Node15&#45;&gt;Node17 -->
<g id="edge20" class="edge">
<title>Node15&#45;&gt;Node17</title>
<path fill="none" stroke="#63b8ff" d="M2007.88,-110.09C2028.45,-101.6 2059.49,-88.79 2082.87,-79.14"/>
<polygon fill="#63b8ff" stroke="#63b8ff" points="2084.1,-82 2092.01,-74.95 2081.43,-75.53 2084.1,-82"/>
</g>
<!-- Node18 -->
<g id="node18" class="node">
<title>Node18</title>
<g id="a_node18"><a xlink:title=" ">
<polygon fill="#e0e0e0" stroke="#999999" points="1567,-74.5 1521,-74.5 1521,-55.25 1567,-55.25 1567,-74.5"/>
<text text-anchor="middle" x="1544" y="-61" font-family="Helvetica,sans-Serif" font-size="10.00">iterator</text>
</a>
</g>
</g>
<!-- Node15&#45;&gt;Node18 -->
<g id="edge21" class="edge">
<title>Node15&#45;&gt;Node18</title>
<path fill="none" stroke="#63b8ff" d="M1951.48,-116.89C1881.04,-111.99 1715.84,-98.75 1579,-74.5 1578.64,-74.44 1578.28,-74.37 1577.92,-74.3"/>
<polygon fill="#63b8ff" stroke="#63b8ff" points="1578.76,-70.69 1568.25,-72.06 1577.32,-77.54 1578.76,-70.69"/>
</g>
<!-- Node19 -->
<g id="node19" class="node">
<title>Node19</title>
<g id="a_node19"><a xlink:title=" ">
<polygon fill="#e0e0e0" stroke="#999999" points="2436.62,-74.5 2397.38,-74.5 2397.38,-55.25 2436.62,-55.25 2436.62,-74.5"/>
<text text-anchor="middle" x="2417" y="-61" font-family="Helvetica,sans-Serif" font-size="10.00">limits</text>
</a>
</g>
</g>
<!-- Node15&#45;&gt;Node19 -->
<g id="edge22" class="edge">
<title>Node15&#45;&gt;Node19</title>
<path fill="none" stroke="#63b8ff" d="M2020.71,-116.56C2089.58,-111.16 2248.23,-97.24 2380,-74.5 2382.1,-74.14 2384.25,-73.73 2386.42,-73.29"/>
<polygon fill="#63b8ff" stroke="#63b8ff" points="2387.09,-76.51 2396.12,-70.96 2385.6,-69.67 2387.09,-76.51"/>
</g>
<!-- Node20 -->
<g id="node20" class="node">
<title>Node20</title>
<g id="a_node20"><a xlink:title=" ">
<polygon fill="#e0e0e0" stroke="#999999" points="2370.88,-74.5 2321.12,-74.5 2321.12,-55.25 2370.88,-55.25 2370.88,-74.5"/>
<text text-anchor="middle" x="2346" y="-61" font-family="Helvetica,sans-Serif" font-size="10.00">optional</text>
</a>
</g>
</g>
<!-- Node15&#45;&gt;Node20 -->
<g id="edge24" class="edge">
<title>Node15&#45;&gt;Node20</title>
<path fill="none" stroke="#63b8ff" d="M2020.52,-114.02C2088.87,-103.91 2240.81,-81.43 2310.19,-71.17"/>
<polygon fill="#63b8ff" stroke="#63b8ff" points="2310.6,-74.5 2319.98,-69.58 2309.58,-67.58 2310.6,-74.5"/>
</g>
<!-- Node21&#45;&gt;Node8 -->
<g id="edge77" class="edge">
<title>Node21&#45;&gt;Node8</title>
<path fill="none" stroke="#63b8ff" d="M825.88,-498.35C755.75,-482.71 608,-444.19 608,-397.38 608,-397.38 608,-397.38 608,-340.12 608,-241.19 701.89,-181.96 922,-110.5 1060.44,-65.56 1431.65,-93.19 1576,-74.5 1576.36,-74.45 1576.72,-74.41 1577.08,-74.36"/>
<polygon fill="#63b8ff" stroke="#63b8ff" points="1577.49,-77.67 1586.81,-72.63 1576.38,-70.76 1577.49,-77.67"/>
</g>
<!-- Node21&#45;&gt;Node11 -->
<g id="edge31" class="edge">
<title>Node21&#45;&gt;Node11</title>
<path fill="none" stroke="#63b8ff" d="M888.11,-496.85C925.01,-482.23 988,-449.63 988,-397.38 988,-397.38 988,-397.38 988,-340.12 988,-276.14 1069.39,-249.52 1126.73,-238.71"/>
<polygon fill="#63b8ff" stroke="#63b8ff" points="1127.25,-242 1136.49,-236.81 1126.04,-235.1 1127.25,-242"/>
</g>
<!-- Node22 -->
<g id="node22" class="node">
<title>Node22</title>
<g id="a_node22"><a xlink:href="v8-object_8h.html" target="_top" xlink:title=" ">
<polygon fill="white" stroke="#666666" points="1547.62,-461.25 1484.38,-461.25 1484.38,-442 1547.62,-442 1547.62,-461.25"/>
<text text-anchor="middle" x="1516" y="-447.75" font-family="Helvetica,sans-Serif" font-size="10.00">v8&#45;object.h</text>
</a>
</g>
</g>
<!-- Node21&#45;&gt;Node22 -->
<g id="edge32" class="edge">
<title>Node21&#45;&gt;Node22</title>
<path fill="none" stroke="#63b8ff" d="M898.09,-502.94C1010.27,-493.8 1352.55,-465.93 1473.28,-456.1"/>
<polygon fill="#63b8ff" stroke="#63b8ff" points="1473.25,-459.54 1482.93,-455.24 1472.68,-452.56 1473.25,-459.54"/>
</g>
<!-- Node22&#45;&gt;Node8 -->
<g id="edge76" class="edge">
<title>Node22&#45;&gt;Node8</title>
<path fill="none" stroke="#63b8ff" d="M1483.97,-447.55C1435.51,-442.31 1341.03,-429.85 1264,-406 1104.49,-356.61 916.33,-386.7 937,-221 943.27,-170.73 925.95,-142.78 965,-110.5 1017.42,-67.17 1508.57,-83.36 1576,-74.5 1576.36,-74.45 1576.72,-74.4 1577.08,-74.35"/>
<polygon fill="#63b8ff" stroke="#63b8ff" points="1577.49,-77.67 1586.81,-72.62 1576.37,-70.76 1577.49,-77.67"/>
</g>
<!-- Node22&#45;&gt;Node11 -->
<g id="edge37" class="edge">
<title>Node22&#45;&gt;Node11</title>
<path fill="none" stroke="#63b8ff" d="M1484.15,-448.92C1448.2,-445.56 1389.45,-435.58 1349,-406 1293.74,-365.59 1316.32,-322.66 1266,-276.25 1251.63,-262.99 1232.57,-252.45 1216.25,-244.95"/>
<polygon fill="#63b8ff" stroke="#63b8ff" points="1218.07,-241.49 1207.5,-240.68 1215.26,-247.9 1218.07,-241.49"/>
</g>
<!-- Node22&#45;&gt;Node15 -->
<g id="edge36" class="edge">
<title>Node22&#45;&gt;Node15</title>
<path fill="none" stroke="#63b8ff" d="M1547.97,-447.46C1686.61,-433.6 2230.01,-377.7 2254,-350.75 2294.58,-305.15 2255.71,-260.29 2209,-221 2171.33,-189.31 2157.75,-186.27 2113,-165.75 2085.12,-152.96 2052.44,-141.56 2027.22,-133.48"/>
<polygon fill="#63b8ff" stroke="#63b8ff" points="2028.49,-129.89 2017.9,-130.22 2026.39,-136.57 2028.49,-129.89"/>
</g>
<!-- Node23 -->
<g id="node23" class="node">
<title>Node23</title>
<g id="a_node23"><a xlink:href="garbage-collected_8h.html" target="_top" xlink:title=" ">
<polygon fill="#fff0f0" stroke="red" points="1487.62,-406 1358.38,-406 1358.38,-386.75 1487.62,-386.75 1487.62,-406"/>
<text text-anchor="middle" x="1423" y="-392.5" font-family="Helvetica,sans-Serif" font-size="10.00">cppgc/garbage&#45;collected.h</text>
</a>
</g>
</g>
<!-- Node22&#45;&gt;Node23 -->
<g id="edge33" class="edge">
<title>Node22&#45;&gt;Node23</title>
<path fill="none" stroke="#63b8ff" d="M1500.22,-441.59C1485.93,-433.41 1464.62,-421.21 1448.01,-411.69"/>
<polygon fill="#63b8ff" stroke="#63b8ff" points="1450.27,-408.38 1439.85,-406.45 1446.79,-414.46 1450.27,-408.38"/>
</g>
<!-- Node36 -->
<g id="node24" class="node">
<title>Node36</title>
<g id="a_node24"><a xlink:href="name-provider_8h.html" target="_top" xlink:title=" ">
<polygon fill="white" stroke="#666666" points="1060.12,-240.25 945.88,-240.25 945.88,-221 1060.12,-221 1060.12,-240.25"/>
<text text-anchor="middle" x="1003" y="-226.75" font-family="Helvetica,sans-Serif" font-size="10.00">cppgc/name&#45;provider.h</text>
</a>
</g>
</g>
<!-- Node22&#45;&gt;Node36 -->
<g id="edge34" class="edge">
<title>Node22&#45;&gt;Node36</title>
<path fill="none" stroke="#63b8ff" d="M1484.19,-445.27C1445.66,-438.31 1379.05,-424.8 1324,-406 1212.49,-367.91 1183.34,-357.28 1083,-295.5 1060.01,-281.35 1036.14,-261.51 1020.53,-247.71"/>
<polygon fill="#63b8ff" stroke="#63b8ff" points="1023.54,-245.81 1013.76,-241.74 1018.87,-251.02 1023.54,-245.81"/>
</g>
<!-- Node37 -->
<g id="node25" class="node">
<title>Node37</title>
<g id="a_node25"><a xlink:href="v8-maybe_8h.html" target="_top" xlink:title=" ">
<polygon fill="#fff0f0" stroke="red" points="1687.75,-295.5 1622.25,-295.5 1622.25,-276.25 1687.75,-276.25 1687.75,-295.5"/>
<text text-anchor="middle" x="1655" y="-282" font-family="Helvetica,sans-Serif" font-size="10.00">v8&#45;maybe.h</text>
</a>
</g>
</g>
<!-- Node22&#45;&gt;Node37 -->
<g id="edge38" class="edge">
<title>Node22&#45;&gt;Node37</title>
<path fill="none" stroke="#63b8ff" d="M1523.47,-441.82C1545.63,-415.72 1611.23,-338.44 1640.55,-303.89"/>
<polygon fill="#63b8ff" stroke="#63b8ff" points="1643.69,-306.61 1647.49,-296.72 1638.35,-302.08 1643.69,-306.61"/>
</g>
<!-- Node41 -->
<g id="node27" class="node">
<title>Node41</title>
<g id="a_node27"><a xlink:href="v8-persistent-handle_8h.html" target="_top" xlink:title=" ">
<polygon fill="white" stroke="#666666" points="1931.62,-295.5 1820.38,-295.5 1820.38,-276.25 1931.62,-276.25 1931.62,-295.5"/>
<text text-anchor="middle" x="1876" y="-282" font-family="Helvetica,sans-Serif" font-size="10.00">v8&#45;persistent&#45;handle.h</text>
</a>
</g>
</g>
<!-- Node22&#45;&gt;Node41 -->
<g id="edge43" class="edge">
<title>Node22&#45;&gt;Node41</title>
<path fill="none" stroke="#63b8ff" d="M1547.94,-447.93C1580.45,-443.73 1630.79,-433.05 1665,-406 1694.99,-382.28 1677.65,-354.74 1708,-331.5 1737.08,-309.23 1776.35,-298.05 1809.6,-292.44"/>
<polygon fill="#63b8ff" stroke="#63b8ff" points="1809.82,-295.8 1819.17,-290.81 1808.75,-288.88 1809.82,-295.8"/>
</g>
<!-- Node44 -->
<g id="node29" class="node">
<title>Node44</title>
<g id="a_node29"><a xlink:href="v8-primitive_8h.html" target="_top" xlink:title=" ">
<polygon fill="white" stroke="#666666" points="1655.88,-406 1582.12,-406 1582.12,-386.75 1655.88,-386.75 1655.88,-406"/>
<text text-anchor="middle" x="1619" y="-392.5" font-family="Helvetica,sans-Serif" font-size="10.00">v8&#45;primitive.h</text>
</a>
</g>
</g>
<!-- Node22&#45;&gt;Node44 -->
<g id="edge49" class="edge">
<title>Node22&#45;&gt;Node44</title>
<path fill="none" stroke="#63b8ff" d="M1533.47,-441.59C1549.45,-433.33 1573.35,-420.98 1591.82,-411.43"/>
<polygon fill="#63b8ff" stroke="#63b8ff" points="1593.17,-414.15 1600.44,-406.45 1589.95,-407.94 1593.17,-414.15"/>
</g>
<!-- Node45 -->
<g id="node30" class="node">
<title>Node45</title>
<g id="a_node30"><a xlink:href="v8-value_8h.html" target="_top" xlink:title=" ">
<polygon fill="white" stroke="#666666" points="1526.12,-350.75 1465.88,-350.75 1465.88,-331.5 1526.12,-331.5 1526.12,-350.75"/>
<text text-anchor="middle" x="1496" y="-337.25" font-family="Helvetica,sans-Serif" font-size="10.00">v8&#45;value.h</text>
</a>
</g>
</g>
<!-- Node22&#45;&gt;Node45 -->
<g id="edge75" class="edge">
<title>Node22&#45;&gt;Node45</title>
<path fill="none" stroke="#63b8ff" d="M1514.36,-441.75C1511.15,-424.34 1503.97,-385.37 1499.6,-361.66"/>
<polygon fill="#63b8ff" stroke="#63b8ff" points="1502.91,-361.33 1497.66,-352.13 1496.03,-362.6 1502.91,-361.33"/>
</g>
<!-- Node46 -->
<g id="node31" class="node">
<title>Node46</title>
<g id="a_node31"><a xlink:href="v8-sandbox_8h.html" target="_top" xlink:title=" ">
<polygon fill="white" stroke="#666666" points="1823.5,-406 1750.5,-406 1750.5,-386.75 1823.5,-386.75 1823.5,-406"/>
<text text-anchor="middle" x="1787" y="-392.5" font-family="Helvetica,sans-Serif" font-size="10.00">v8&#45;sandbox.h</text>
</a>
</g>
</g>
<!-- Node22&#45;&gt;Node46 -->
<g id="edge60" class="edge">
<title>Node22&#45;&gt;Node46</title>
<path fill="none" stroke="#63b8ff" d="M1547.88,-444.36C1595.24,-435.06 1684.47,-417.52 1739.52,-406.7"/>
<polygon fill="#63b8ff" stroke="#63b8ff" points="1739.92,-410 1749.05,-404.63 1738.57,-403.13 1739.92,-410"/>
</g>
<!-- Node47 -->
<g id="node33" class="node">
<title>Node47</title>
<g id="a_node33"><a xlink:href="v8-traced-handle_8h.html" target="_top" xlink:title=" ">
<polygon fill="#fff0f0" stroke="red" points="2044.75,-295.5 1949.25,-295.5 1949.25,-276.25 2044.75,-276.25 2044.75,-295.5"/>
<text text-anchor="middle" x="1997" y="-282" font-family="Helvetica,sans-Serif" font-size="10.00">v8&#45;traced&#45;handle.h</text>
</a>
</g>
</g>
<!-- Node22&#45;&gt;Node47 -->
<g id="edge64" class="edge">
<title>Node22&#45;&gt;Node47</title>
<path fill="none" stroke="#63b8ff" d="M1548.06,-448.56C1584.33,-444.87 1643.82,-434.6 1686,-406 1720.07,-382.9 1705.99,-353.14 1741,-331.5 1749.38,-326.32 1865.49,-307.44 1938.43,-295.96"/>
<polygon fill="#63b8ff" stroke="#63b8ff" points="1938.52,-299.33 1947.86,-294.32 1937.44,-292.41 1938.52,-299.33"/>
</g>
<!-- Node36&#45;&gt;Node8 -->
<g id="edge35" class="edge">
<title>Node36&#45;&gt;Node8</title>
<path fill="none" stroke="#63b8ff" d="M996.89,-220.75C982.64,-198.86 950.55,-141.79 980,-110.5 1025.48,-62.19 1510.23,-83.19 1576,-74.5 1576.36,-74.45 1576.72,-74.4 1577.08,-74.35"/>
<polygon fill="#63b8ff" stroke="#63b8ff" points="1577.5,-77.67 1586.81,-72.61 1576.37,-70.76 1577.5,-77.67"/>
</g>
<!-- Node37&#45;&gt;Node8 -->
<g id="edge42" class="edge">
<title>Node37&#45;&gt;Node8</title>
<path fill="none" stroke="#63b8ff" d="M1623.89,-275.83C1596.13,-267.06 1558.58,-253.22 1550,-240.25 1515.27,-187.76 1572.02,-114.88 1601.7,-82.51"/>
<polygon fill="#63b8ff" stroke="#63b8ff" points="1603.62,-85.52 1607.93,-75.84 1598.52,-80.72 1603.62,-85.52"/>
</g>
<!-- Node37&#45;&gt;Node12 -->
<g id="edge39" class="edge">
<title>Node37&#45;&gt;Node12</title>
<path fill="none" stroke="#63b8ff" d="M1621.78,-279.84C1595.68,-274.28 1560.02,-262.92 1537,-240.25 1492.8,-196.72 1476.17,-121.39 1470.56,-85.71"/>
<polygon fill="#63b8ff" stroke="#63b8ff" points="1473.89,-85.27 1469,-75.86 1466.96,-86.26 1473.89,-85.27"/>
</g>
<!-- Node37&#45;&gt;Node15 -->
<g id="edge41" class="edge">
<title>Node37&#45;&gt;Node15</title>
<path fill="none" stroke="#63b8ff" d="M1644.16,-276.08C1629.66,-263.25 1607.28,-238.98 1621,-221 1659.89,-170.04 1851.6,-138.73 1940.53,-126.73"/>
<polygon fill="#63b8ff" stroke="#63b8ff" points="1940.91,-130.08 1950.36,-125.3 1939.99,-123.14 1940.91,-130.08"/>
</g>
<!-- Node35 -->
<g id="node26" class="node">
<title>Node35</title>
<g id="a_node26"><a xlink:title=" ">
<polygon fill="#e0e0e0" stroke="#999999" points="1668.25,-240.25 1629.75,-240.25 1629.75,-221 1668.25,-221 1668.25,-240.25"/>
<text text-anchor="middle" x="1649" y="-226.75" font-family="Helvetica,sans-Serif" font-size="10.00">utility</text>
</a>
</g>
</g>
<!-- Node37&#45;&gt;Node35 -->
<g id="edge40" class="edge">
<title>Node37&#45;&gt;Node35</title>
<path fill="none" stroke="#63b8ff" d="M1654.01,-276.08C1653.26,-269.42 1652.2,-259.99 1651.24,-251.53"/>
<polygon fill="#63b8ff" stroke="#63b8ff" points="1654.61,-251.15 1650.01,-241.61 1647.65,-251.94 1654.61,-251.15"/>
</g>
<!-- Node41&#45;&gt;Node8 -->
<g id="edge48" class="edge">
<title>Node41&#45;&gt;Node8</title>
<path fill="none" stroke="#63b8ff" d="M1827.65,-275.76C1786.89,-267.32 1732.49,-254.02 1715,-240.25 1687.88,-218.9 1644.21,-125.14 1626.18,-84.63"/>
<polygon fill="#63b8ff" stroke="#63b8ff" points="1629.05,-83.46 1621.82,-75.72 1622.65,-86.28 1629.05,-83.46"/>
</g>
<!-- Node41&#45;&gt;Node11 -->
<g id="edge45" class="edge">
<title>Node41&#45;&gt;Node11</title>
<path fill="none" stroke="#63b8ff" d="M1820.09,-280.58C1689.86,-270.59 1367.54,-245.86 1237.61,-235.89"/>
<polygon fill="#63b8ff" stroke="#63b8ff" points="1237.99,-232.33 1227.75,-235.06 1237.45,-239.31 1237.99,-232.33"/>
</g>
<!-- Node41&#45;&gt;Node15 -->
<g id="edge44" class="edge">
<title>Node41&#45;&gt;Node15</title>
<path fill="none" stroke="#63b8ff" d="M1881.91,-276.07C1899.3,-250.19 1950.48,-174 1973.97,-139.03"/>
<polygon fill="#63b8ff" stroke="#63b8ff" points="1977.39,-141.23 1980.06,-130.97 1971.58,-137.32 1977.39,-141.23"/>
</g>
<!-- Node42 -->
<g id="node28" class="node">
<title>Node42</title>
<g id="a_node28"><a xlink:href="v8-weak-callback-info_8h.html" target="_top" xlink:title=" ">
<polygon fill="#fff0f0" stroke="red" points="1842,-240.25 1724,-240.25 1724,-221 1842,-221 1842,-240.25"/>
<text text-anchor="middle" x="1783" y="-226.75" font-family="Helvetica,sans-Serif" font-size="10.00">v8&#45;weak&#45;callback&#45;info.h</text>
</a>
</g>
</g>
<!-- Node41&#45;&gt;Node42 -->
<g id="edge46" class="edge">
<title>Node41&#45;&gt;Node42</title>
<path fill="none" stroke="#63b8ff" d="M1860.22,-275.84C1845.93,-267.66 1824.62,-255.46 1808.01,-245.94"/>
<polygon fill="#63b8ff" stroke="#63b8ff" points="1810.27,-242.63 1799.85,-240.7 1806.79,-248.71 1810.27,-242.63"/>
</g>
<!-- Node42&#45;&gt;Node8 -->
<g id="edge47" class="edge">
<title>Node42&#45;&gt;Node8</title>
<path fill="none" stroke="#63b8ff" d="M1779.6,-220.67C1771.01,-199.1 1746.48,-143.57 1710,-110.5 1694.72,-96.65 1674.35,-86.18 1656.67,-78.87"/>
<polygon fill="#63b8ff" stroke="#63b8ff" points="1658.22,-75.33 1647.63,-74.93 1655.66,-81.84 1658.22,-75.33"/>
</g>
<!-- Node44&#45;&gt;Node8 -->
<g id="edge59" class="edge">
<title>Node44&#45;&gt;Node8</title>
<path fill="none" stroke="#63b8ff" d="M1629.74,-386.26C1647.78,-370.14 1683.54,-334.61 1697,-295.5 1699.78,-287.41 1701.58,-283.48 1697,-276.25 1677.01,-244.67 1641.26,-271.66 1621,-240.25 1589.88,-192 1603.22,-119.54 1612.23,-85.22"/>
<polygon fill="#63b8ff" stroke="#63b8ff" points="1615.83,-86.35 1615.15,-75.78 1609.09,-84.46 1615.83,-86.35"/>
</g>
<!-- Node44&#45;&gt;Node10 -->
<g id="edge50" class="edge">
<title>Node44&#45;&gt;Node10</title>
<path fill="none" stroke="#63b8ff" d="M1581.91,-390.32C1530.46,-383.04 1434.65,-368.5 1354,-350.75 1284.51,-335.46 1204.82,-312.53 1158.66,-298.7"/>
<polygon fill="#63b8ff" stroke="#63b8ff" points="1159.81,-295.09 1149.23,-295.56 1157.8,-301.8 1159.81,-295.09"/>
</g>
<!-- Node44&#45;&gt;Node11 -->
<g id="edge52" class="edge">
<title>Node44&#45;&gt;Node11</title>
<path fill="none" stroke="#63b8ff" d="M1581.73,-387.12C1548.5,-379.29 1498.8,-366.4 1457,-350.75 1403.9,-330.86 1392.85,-320.59 1342,-295.5 1325.02,-287.12 1321.36,-283.79 1304,-276.25 1276.25,-264.2 1244.08,-252.52 1219.75,-244.14"/>
<polygon fill="#63b8ff" stroke="#63b8ff" points="1221.09,-240.56 1210.5,-240.64 1218.83,-247.18 1221.09,-240.56"/>
</g>
<!-- Node44&#45;&gt;Node15 -->
<g id="edge51" class="edge">
<title>Node44&#45;&gt;Node15</title>
<path fill="none" stroke="#63b8ff" d="M1656.05,-392.66C1782.7,-383.36 2190.71,-353.23 2193,-350.75 2212.2,-330 2192.14,-304.22 2112,-221 2079.24,-186.98 2034.73,-154.29 2008.33,-136.05"/>
<polygon fill="#63b8ff" stroke="#63b8ff" points="2010.7,-132.75 2000.47,-130 2006.76,-138.53 2010.7,-132.75"/>
</g>
<!-- Node44&#45;&gt;Node45 -->
<g id="edge53" class="edge">
<title>Node44&#45;&gt;Node45</title>
<path fill="none" stroke="#63b8ff" d="M1598.13,-386.34C1578.61,-377.89 1549.19,-365.15 1526.94,-355.52"/>
<polygon fill="#63b8ff" stroke="#63b8ff" points="1528.54,-351.96 1517.97,-351.2 1525.75,-358.39 1528.54,-351.96"/>
</g>
<!-- Node45&#45;&gt;Node8 -->
<g id="edge58" class="edge">
<title>Node45&#45;&gt;Node8</title>
<path fill="none" stroke="#63b8ff" d="M1492.34,-331.2C1486.44,-317.75 1473.69,-292.2 1456,-276.25 1387.61,-214.59 1318.7,-263.14 1270,-185 1252.49,-156.9 1248,-135.24 1270,-110.5 1315.5,-59.33 1508.4,-85.4 1576,-74.5 1576.36,-74.44 1576.72,-74.38 1577.08,-74.32"/>
<polygon fill="#63b8ff" stroke="#63b8ff" points="1577.55,-77.62 1586.77,-72.4 1576.31,-70.73 1577.55,-77.62"/>
</g>
<!-- Node45&#45;&gt;Node10 -->
<g id="edge54" class="edge">
<title>Node45&#45;&gt;Node10</title>
<path fill="none" stroke="#63b8ff" d="M1465.55,-335.81C1397.7,-326.2 1234.18,-303.05 1159.01,-292.4"/>
<polygon fill="#63b8ff" stroke="#63b8ff" points="1159.54,-288.8 1149.15,-290.86 1158.56,-295.73 1159.54,-288.8"/>
</g>
<!-- Node45&#45;&gt;Node11 -->
<g id="edge56" class="edge">
<title>Node45&#45;&gt;Node11</title>
<path fill="none" stroke="#63b8ff" d="M1474.71,-331.12C1435.61,-314.62 1355.17,-280.8 1342,-276.25 1304.9,-263.43 1262.02,-251.63 1229.99,-243.39"/>
<polygon fill="#63b8ff" stroke="#63b8ff" points="1231.13,-239.81 1220.57,-240.73 1229.4,-246.59 1231.13,-239.81"/>
</g>
<!-- Node45&#45;&gt;Node15 -->
<g id="edge55" class="edge">
<title>Node45&#45;&gt;Node15</title>
<path fill="none" stroke="#63b8ff" d="M1503.77,-331.05C1532.23,-298.1 1631.24,-185.62 1674,-165.75 1720.43,-144.17 1865.71,-130.3 1940.5,-124.39"/>
<polygon fill="#63b8ff" stroke="#63b8ff" points="1940.74,-127.81 1950.44,-123.54 1940.2,-120.83 1940.74,-127.81"/>
</g>
<!-- Node45&#45;&gt;Node37 -->
<g id="edge57" class="edge">
<title>Node45&#45;&gt;Node37</title>
<path fill="none" stroke="#63b8ff" d="M1522.97,-331.09C1549.01,-322.37 1588.66,-309.09 1617.72,-299.36"/>
<polygon fill="#63b8ff" stroke="#63b8ff" points="1618.52,-302.45 1626.9,-295.95 1616.3,-295.81 1618.52,-302.45"/>
</g>
<!-- Node46&#45;&gt;Node8 -->
<g id="edge63" class="edge">
<title>Node46&#45;&gt;Node8</title>
<path fill="none" stroke="#63b8ff" d="M1761.83,-386.29C1658.42,-348.86 1270.89,-207.48 1255,-185 1235.88,-157.95 1230.91,-135.18 1253,-110.5 1301.16,-56.68 1504.66,-85.78 1576,-74.5 1576.36,-74.44 1576.72,-74.39 1577.08,-74.33"/>
<polygon fill="#63b8ff" stroke="#63b8ff" points="1577.55,-77.62 1586.78,-72.43 1576.32,-70.73 1577.55,-77.62"/>
</g>
<!-- Node46&#45;&gt;Node15 -->
<g id="edge62" class="edge">
<title>Node46&#45;&gt;Node15</title>
<path fill="none" stroke="#63b8ff" d="M1823.86,-392.97C1927.11,-386.04 2212.55,-365.64 2226,-350.75 2253.64,-320.16 2302.31,-350.96 2188,-221 2181.75,-213.89 2069.51,-160.45 2015.1,-134.8"/>
<polygon fill="#63b8ff" stroke="#63b8ff" points="2016.88,-131.3 2006.35,-130.2 2013.9,-137.63 2016.88,-131.3"/>
</g>
<!-- Node26 -->
<g id="node32" class="node">
<title>Node26</title>
<g id="a_node32"><a xlink:title=" ">
<polygon fill="#e0e0e0" stroke="#999999" points="1795.62,-350.75 1750.38,-350.75 1750.38,-331.5 1795.62,-331.5 1795.62,-350.75"/>
<text text-anchor="middle" x="1773" y="-337.25" font-family="Helvetica,sans-Serif" font-size="10.00">cstdint</text>
</a>
</g>
</g>
<!-- Node46&#45;&gt;Node26 -->
<g id="edge61" class="edge">
<title>Node46&#45;&gt;Node26</title>
<path fill="none" stroke="#63b8ff" d="M1784.69,-386.58C1782.92,-379.84 1780.4,-370.27 1778.16,-361.74"/>
<polygon fill="#63b8ff" stroke="#63b8ff" points="1781.29,-360.89 1775.36,-352.11 1774.52,-362.67 1781.29,-360.89"/>
</g>
<!-- Node47&#45;&gt;Node2 -->
<g id="edge65" class="edge">
<title>Node47&#45;&gt;Node2</title>
<path fill="none" stroke="#63b8ff" d="M1981.43,-275.92C1955.4,-261.45 1900.97,-233.3 1851,-221 1630.36,-166.67 1567.57,-202.32 1341,-185 1236.95,-177.05 1211.11,-172.84 1107,-165.75 958.91,-155.66 582.2,-172.34 440,-129.75 423.73,-124.88 421.7,-118.99 407,-110.5 389.38,-100.32 369.47,-88.93 354.17,-80.21"/>
<polygon fill="#63b8ff" stroke="#63b8ff" points="356.28,-76.81 345.86,-74.9 352.81,-82.89 356.28,-76.81"/>
</g>
<!-- Node47&#45;&gt;Node3 -->
<g id="edge66" class="edge">
<title>Node47&#45;&gt;Node3</title>
<path fill="none" stroke="#63b8ff" d="M2045.22,-282.24C2156.31,-275.17 2437.94,-251.62 2663,-185 2754.09,-158.04 2854.39,-105.42 2899.98,-80.12"/>
<polygon fill="#63b8ff" stroke="#63b8ff" points="2901.34,-82.81 2908.35,-74.88 2897.92,-76.71 2901.34,-82.81"/>
</g>
<!-- Node47&#45;&gt;Node8 -->
<g id="edge74" class="edge">
<title>Node47&#45;&gt;Node8</title>
<path fill="none" stroke="#63b8ff" d="M1993.92,-275.79C1988.86,-262.15 1977.58,-236.33 1960,-221 1928.15,-193.23 1910.26,-202.95 1872,-185 1808.19,-155.06 1796.04,-139.95 1732,-110.5 1706.33,-98.69 1676.58,-87.11 1653.9,-78.71"/>
<polygon fill="#63b8ff" stroke="#63b8ff" points="1655.3,-75.13 1644.71,-74.97 1652.89,-81.7 1655.3,-75.13"/>
</g>
<!-- Node47&#45;&gt;Node9 -->
<g id="edge68" class="edge">
<title>Node47&#45;&gt;Node9</title>
<path fill="none" stroke="#63b8ff" d="M2006.79,-275.79C2015.89,-267.1 2029.58,-253.4 2040,-240.25 2094.45,-171.52 2106,-152.01 2147,-74.5 2154.75,-59.85 2161.97,-42.48 2166.99,-29.56"/>
<polygon fill="#63b8ff" stroke="#63b8ff" points="2170.53,-31.12 2170.8,-20.53 2163.98,-28.64 2170.53,-31.12"/>
</g>
<!-- Node47&#45;&gt;Node11 -->
<g id="edge72" class="edge">
<title>Node47&#45;&gt;Node11</title>
<path fill="none" stroke="#63b8ff" d="M1948.77,-277.15C1946.15,-276.82 1943.54,-276.52 1941,-276.25 1678.52,-248.38 1363,-236.82 1237.45,-233.1"/>
<polygon fill="#63b8ff" stroke="#63b8ff" points="1237.7,-229.57 1227.61,-232.78 1237.5,-236.57 1237.7,-229.57"/>
</g>
<!-- Node47&#45;&gt;Node12 -->
<g id="edge69" class="edge">
<title>Node47&#45;&gt;Node12</title>
<path fill="none" stroke="#63b8ff" d="M1988.6,-275.81C1975.55,-262.18 1949.05,-236.4 1922,-221 1884.46,-199.64 1609.74,-111.06 1506.8,-78.21"/>
<polygon fill="#63b8ff" stroke="#63b8ff" points="1508.13,-74.64 1497.54,-74.94 1506,-81.31 1508.13,-74.64"/>
</g>
<!-- Node47&#45;&gt;Node15 -->
<g id="edge71" class="edge">
<title>Node47&#45;&gt;Node15</title>
<path fill="none" stroke="#63b8ff" d="M1997.26,-275.99C1997.51,-266.98 1997.86,-252.65 1998,-240.25 1998.1,-231.69 1998.51,-229.54 1998,-221 1996.33,-193.14 1992.07,-161.14 1989.1,-141.02"/>
<polygon fill="#63b8ff" stroke="#63b8ff" points="1992.42,-140.54 1987.46,-131.18 1985.5,-141.59 1992.42,-140.54"/>
</g>
<!-- Node47&#45;&gt;Node17 -->
<g id="edge67" class="edge">
<title>Node47&#45;&gt;Node17</title>
<path fill="none" stroke="#63b8ff" d="M2001.77,-276.02C2019.38,-243.34 2080.92,-129.13 2105.12,-84.21"/>
<polygon fill="#63b8ff" stroke="#63b8ff" points="2108.64,-86.07 2110.3,-75.6 2102.47,-82.74 2108.64,-86.07"/>
</g>
<!-- Node47&#45;&gt;Node35 -->
<g id="edge70" class="edge">
<title>Node47&#45;&gt;Node35</title>
<path fill="none" stroke="#63b8ff" d="M1949.04,-277.48C1946.32,-277.07 1943.63,-276.65 1941,-276.25 1845.37,-261.58 1732.11,-244.3 1679.14,-236.22"/>
<polygon fill="#63b8ff" stroke="#63b8ff" points="1679.89,-232.64 1669.48,-234.59 1678.84,-239.56 1679.89,-232.64"/>
</g>
<!-- Node47&#45;&gt;Node42 -->
<g id="edge73" class="edge">
<title>Node47&#45;&gt;Node42</title>
<path fill="none" stroke="#63b8ff" d="M1960.7,-275.84C1924.73,-266.89 1869.46,-253.14 1830.12,-243.35"/>
<polygon fill="#63b8ff" stroke="#63b8ff" points="1831.03,-239.72 1820.48,-240.7 1829.34,-246.51 1831.03,-239.72"/>
</g>
<!-- Node49&#45;&gt;Node2 -->
<g id="edge81" class="edge">
<title>Node49&#45;&gt;Node2</title>
<path fill="none" stroke="#63b8ff" d="M2123.97,-726.63C1897.82,-724.88 581.95,-713.39 407,-682.25 237.84,-652.14 96,-624.44 96,-452.62 96,-452.62 96,-452.62 96,-395.38 96,-263.62 85.17,-203.99 178,-110.5 208.28,-80 258.33,-70.13 292.43,-67.06"/>
<polygon fill="#63b8ff" stroke="#63b8ff" points="292.62,-70.48 302.34,-66.26 292.11,-63.5 292.62,-70.48"/>
</g>
<!-- Node49&#45;&gt;Node3 -->
<g id="edge82" class="edge">
<title>Node49&#45;&gt;Node3</title>
<path fill="none" stroke="#63b8ff" d="M2190.13,-726.98C2289.19,-726.85 2581.47,-722.92 2666,-682.25 2891.11,-573.96 2866.71,-427.17 2928,-185 2936.23,-152.49 2945.41,-143.6 2940,-110.5 2938.6,-101.94 2935.78,-92.8 2932.96,-85.04"/>
<polygon fill="#63b8ff" stroke="#63b8ff" points="2935.89,-83.93 2929,-75.88 2929.37,-86.47 2935.89,-83.93"/>
</g>
<!-- Node49&#45;&gt;Node4 -->
<g id="edge112" class="edge">
<title>Node49&#45;&gt;Node4</title>
<path fill="none" stroke="#63b8ff" d="M2123.93,-726.67C1949.23,-725.46 1137.68,-717.91 1032,-682.25 967.94,-660.63 906.48,-606.73 878.21,-579.47"/>
<polygon fill="#63b8ff" stroke="#63b8ff" points="881.12,-577.44 871.53,-572.93 876.21,-582.43 881.12,-577.44"/>
</g>
<!-- Node49&#45;&gt;Node6 -->
<g id="edge84" class="edge">
<title>Node49&#45;&gt;Node6</title>
<path fill="none" stroke="#63b8ff" d="M2190.25,-724.75C2320.9,-715.97 2792,-680.03 2792,-618.38 2792,-618.38 2792,-618.38 2792,-505.88 2792,-343.5 2778.92,-147.73 2774.47,-85.71"/>
<polygon fill="#63b8ff" stroke="#63b8ff" points="2777.89,-85.57 2773.68,-75.85 2770.91,-86.08 2777.89,-85.57"/>
</g>
<!-- Node49&#45;&gt;Node7 -->
<g id="edge86" class="edge">
<title>Node49&#45;&gt;Node7</title>
<path fill="none" stroke="#63b8ff" d="M2150.37,-718.02C2125.74,-685.14 2039.28,-569.67 2006.1,-525.37"/>
<polygon fill="#63b8ff" stroke="#63b8ff" points="2008.33,-523.51 1999.53,-517.6 2002.73,-527.7 2008.33,-523.51"/>
</g>
<!-- Node49&#45;&gt;Node8 -->
<g id="edge165" class="edge">
<title>Node49&#45;&gt;Node8</title>
<path fill="none" stroke="#63b8ff" d="M2190.01,-721.6C2222.5,-715.46 2272.79,-703.35 2312,-682.25 2417.03,-625.72 2516,-627.15 2516,-507.88 2516,-507.88 2516,-507.88 2516,-450.62 2516,-287.34 2430.65,-237.55 2284,-165.75 2279.59,-163.59 2120.81,-111.49 2116,-110.5 2028.84,-92.51 1761.77,-74.71 1658.95,-68.34"/>
<polygon fill="#63b8ff" stroke="#63b8ff" points="1659.29,-64.79 1649.1,-67.67 1658.86,-71.78 1659.29,-64.79"/>
</g>
<!-- Node49&#45;&gt;Node9 -->
<g id="edge83" class="edge">
<title>Node49&#45;&gt;Node9</title>
<path fill="none" stroke="#63b8ff" d="M2190.18,-725.91C2292.36,-722.67 2601.19,-710.71 2697,-682.25 2853.39,-635.8 3020,-671.01 3020,-507.88 3020,-507.88 3020,-507.88 3020,-450.62 3020,-345.99 3081.81,-325.18 3072,-221 3064.37,-139.94 3068.6,-87.86 2994,-55.25 2921.59,-23.6 2359.49,-13.3 2210.27,-11.11"/>
<polygon fill="#63b8ff" stroke="#63b8ff" points="2210.51,-7.6 2200.46,-10.95 2210.41,-14.6 2210.51,-7.6"/>
</g>
<!-- Node49&#45;&gt;Node10 -->
<g id="edge113" class="edge">
<title>Node49&#45;&gt;Node10</title>
<path fill="none" stroke="#63b8ff" d="M2123.91,-726.27C1958.06,-723.14 1216.15,-707.94 987,-682.25 833.77,-665.07 646,-772.57 646,-618.38 646,-618.38 646,-618.38 646,-561.12 646,-360.54 967.93,-304.31 1081.17,-290.73"/>
<polygon fill="#63b8ff" stroke="#63b8ff" points="1081.23,-294.13 1090.77,-289.51 1080.43,-287.17 1081.23,-294.13"/>
</g>
<!-- Node49&#45;&gt;Node11 -->
<g id="edge144" class="edge">
<title>Node49&#45;&gt;Node11</title>
<path fill="none" stroke="#63b8ff" d="M2123.98,-727.03C1945.28,-727.43 1102,-723.73 1102,-618.38 1102,-618.38 1102,-618.38 1102,-561.12 1102,-498.35 1157.53,-311.47 1176.06,-250.84"/>
<polygon fill="#63b8ff" stroke="#63b8ff" points="1179.65,-252.06 1179.25,-241.48 1172.96,-250.01 1179.65,-252.06"/>
</g>
<!-- Node49&#45;&gt;Node15 -->
<g id="edge143" class="edge">
<title>Node49&#45;&gt;Node15</title>
<path fill="none" stroke="#63b8ff" d="M2189.94,-725.77C2283.01,-722.33 2542.86,-710.26 2568,-682.25 2573.71,-675.88 2570.22,-671.26 2568,-663 2547.29,-586.03 2478,-587.58 2478,-507.88 2478,-507.88 2478,-507.88 2478,-450.62 2478,-274.65 2370.12,-220.89 2203,-165.75 2129.65,-141.54 2105.99,-146.01 2030.88,-130.93"/>
<polygon fill="#63b8ff" stroke="#63b8ff" points="2031.95,-127.37 2021.44,-128.78 2030.53,-134.23 2031.95,-127.37"/>
</g>
<!-- Node49&#45;&gt;Node35 -->
<g id="edge85" class="edge">
<title>Node49&#45;&gt;Node35</title>
<path fill="none" stroke="#63b8ff" d="M2162.44,-717.96C2172.95,-699.88 2195,-657.29 2195,-618.38 2195,-618.38 2195,-618.38 2195,-450.62 2195,-404.61 1853.64,-312.79 1811,-295.5 1790.08,-287.02 1784.97,-284.61 1764,-276.25 1735.15,-264.75 1702.08,-251.95 1678.83,-243.03"/>
<polygon fill="#63b8ff" stroke="#63b8ff" points="1680.17,-239.41 1669.58,-239.09 1677.66,-245.94 1680.17,-239.41"/>
</g>
<!-- Node49&#45;&gt;Node41 -->
<g id="edge146" class="edge">
<title>Node49&#45;&gt;Node41</title>
<path fill="none" stroke="#63b8ff" d="M2179.25,-717.76C2212.43,-702.52 2271,-668.51 2271,-618.38 2271,-618.38 2271,-618.38 2271,-561.12 2271,-478.87 2269.62,-442.34 2209,-386.75 2162.28,-343.91 2130.8,-371.77 2071,-350.75 2051.25,-343.81 2047.65,-338.74 2028,-331.5 1993.14,-318.65 1952.75,-306.94 1922.37,-298.74"/>
<polygon fill="#63b8ff" stroke="#63b8ff" points="1923.64,-295.18 1913.07,-295.99 1921.83,-301.95 1923.64,-295.18"/>
</g>
<!-- Node49&#45;&gt;Node44 -->
<g id="edge147" class="edge">
<title>Node49&#45;&gt;Node44</title>
<path fill="none" stroke="#63b8ff" d="M2142.33,-717.89C2068.24,-672.51 1735.04,-468.45 1642.76,-411.93"/>
<polygon fill="#63b8ff" stroke="#63b8ff" points="1645.01,-408.59 1634.66,-406.35 1641.36,-414.56 1645.01,-408.59"/>
</g>
<!-- Node50 -->
<g id="node35" class="node">
<title>Node50</title>
<g id="a_node35"><a xlink:href="v8-array-buffer_8h.html" target="_top" xlink:title=" ">
<polygon fill="white" stroke="#666666" points="1070.5,-516.5 985.5,-516.5 985.5,-497.25 1070.5,-497.25 1070.5,-516.5"/>
<text text-anchor="middle" x="1028" y="-503" font-family="Helvetica,sans-Serif" font-size="10.00">v8&#45;array&#45;buffer.h</text>
</a>
</g>
</g>
<!-- Node49&#45;&gt;Node50 -->
<g id="edge87" class="edge">
<title>Node49&#45;&gt;Node50</title>
<path fill="none" stroke="#63b8ff" d="M2123.83,-726.54C1947.91,-724.6 1130.51,-713.94 1088,-682.25 1038.42,-645.29 1029.5,-564.83 1028.11,-527.55"/>
<polygon fill="#63b8ff" stroke="#63b8ff" points="1031.59,-527.62 1027.88,-517.69 1024.59,-527.77 1031.59,-527.62"/>
</g>
<!-- Node53 -->
<g id="node42" class="node">
<title>Node53</title>
<g id="a_node42"><a xlink:href="v8-debug_8h.html" target="_top" xlink:title=" ">
<polygon fill="white" stroke="#666666" points="2460.62,-682.25 2397.38,-682.25 2397.38,-663 2460.62,-663 2460.62,-682.25"/>
<text text-anchor="middle" x="2429" y="-668.75" font-family="Helvetica,sans-Serif" font-size="10.00">v8&#45;debug.h</text>
</a>
</g>
</g>
<!-- Node49&#45;&gt;Node53 -->
<g id="edge114" class="edge">
<title>Node49&#45;&gt;Node53</title>
<path fill="none" stroke="#63b8ff" d="M2190.08,-720.4C2239.35,-710.75 2332.03,-692.61 2386.34,-681.98"/>
<polygon fill="#63b8ff" stroke="#63b8ff" points="2386.85,-685.25 2395.99,-679.89 2385.51,-678.38 2386.85,-685.25"/>
</g>
<!-- Node58 -->
<g id="node44" class="node">
<title>Node58</title>
<g id="a_node44"><a xlink:href="v8-embedder-heap_8h.html" target="_top" xlink:title=" ">
<polygon fill="white" stroke="#666666" points="2183.88,-350.75 2080.12,-350.75 2080.12,-331.5 2183.88,-331.5 2183.88,-350.75"/>
<text text-anchor="middle" x="2132" y="-337.25" font-family="Helvetica,sans-Serif" font-size="10.00">v8&#45;embedder&#45;heap.h</text>
</a>
</g>
</g>
<!-- Node49&#45;&gt;Node58 -->
<g id="edge128" class="edge">
<title>Node49&#45;&gt;Node58</title>
<path fill="none" stroke="#63b8ff" d="M2189.99,-721.09C2239.17,-710.36 2326,-682.36 2326,-618.38 2326,-618.38 2326,-618.38 2326,-450.62 2326,-389.45 2251.6,-362.43 2194.95,-350.73"/>
<polygon fill="#63b8ff" stroke="#63b8ff" points="2195.73,-347.12 2185.24,-348.65 2194.39,-353.99 2195.73,-347.12"/>
</g>
<!-- Node59 -->
<g id="node45" class="node">
<title>Node59</title>
<g id="a_node45"><a xlink:href="v8-exception_8h.html" target="_top" xlink:title=" ">
<polygon fill="white" stroke="#666666" points="1555.12,-516.5 1476.88,-516.5 1476.88,-497.25 1555.12,-497.25 1555.12,-516.5"/>
<text text-anchor="middle" x="1516" y="-503" font-family="Helvetica,sans-Serif" font-size="10.00">v8&#45;exception.h</text>
</a>
</g>
</g>
<!-- Node49&#45;&gt;Node59 -->
<g id="edge131" class="edge">
<title>Node49&#45;&gt;Node59</title>
<path fill="none" stroke="#63b8ff" d="M2124.02,-720.57C2085.83,-712.94 2021.22,-699.01 1967,-682.25 1804.94,-632.15 1617.74,-552.5 1546.04,-521.16"/>
<polygon fill="#63b8ff" stroke="#63b8ff" points="1547.88,-517.71 1537.32,-516.9 1545.07,-524.12 1547.88,-517.71"/>
</g>
<!-- Node60 -->
<g id="node46" class="node">
<title>Node60</title>
<g id="a_node46"><a xlink:href="v8-function-callback_8h.html" target="_top" xlink:title=" ">
<polygon fill="white" stroke="#666666" points="2167.25,-461.25 2056.75,-461.25 2056.75,-442 2167.25,-442 2167.25,-461.25"/>
<text text-anchor="middle" x="2112" y="-447.75" font-family="Helvetica,sans-Serif" font-size="10.00">v8&#45;function&#45;callback.h</text>
</a>
</g>
</g>
<!-- Node49&#45;&gt;Node60 -->
<g id="edge136" class="edge">
<title>Node49&#45;&gt;Node60</title>
<path fill="none" stroke="#63b8ff" d="M2157,-717.87C2157,-699.28 2157,-655.3 2157,-618.38 2157,-618.38 2157,-618.38 2157,-561.12 2157,-527.13 2137.91,-491.39 2124.6,-470.6"/>
<polygon fill="#63b8ff" stroke="#63b8ff" points="2127.1,-469.05 2118.64,-462.67 2121.28,-472.93 2127.1,-469.05"/>
</g>
<!-- Node61 -->
<g id="node47" class="node">
<title>Node61</title>
<g id="a_node47"><a xlink:href="v8-microtask_8h.html" target="_top" xlink:title=" ">
<polygon fill="white" stroke="#666666" points="2558.88,-682.25 2479.12,-682.25 2479.12,-663 2558.88,-663 2558.88,-682.25"/>
<text text-anchor="middle" x="2519" y="-668.75" font-family="Helvetica,sans-Serif" font-size="10.00">v8&#45;microtask.h</text>
</a>
</g>
</g>
<!-- Node49&#45;&gt;Node61 -->
<g id="edge145" class="edge">
<title>Node49&#45;&gt;Node61</title>
<path fill="none" stroke="#63b8ff" d="M2189.95,-722.54C2245.22,-715.18 2360.36,-699.53 2467.92,-682.54"/>
<polygon fill="#63b8ff" stroke="#63b8ff" points="2468.31,-685.86 2477.64,-680.84 2467.22,-678.95 2468.31,-685.86"/>
</g>
<!-- Node62 -->
<g id="node48" class="node">
<title>Node62</title>
<g id="a_node48"><a xlink:href="v8-statistics_8h.html" target="_top" xlink:title=" ">
<polygon fill="white" stroke="#666666" points="589.38,-571.75 512.62,-571.75 512.62,-552.5 589.38,-552.5 589.38,-571.75"/>
<text text-anchor="middle" x="551" y="-558.25" font-family="Helvetica,sans-Serif" font-size="10.00">v8&#45;statistics.h</text>
</a>
</g>
</g>
<!-- Node49&#45;&gt;Node62 -->
<g id="edge148" class="edge">
<title>Node49&#45;&gt;Node62</title>
<path fill="none" stroke="#63b8ff" d="M2123.92,-726.76C1907.44,-725.88 699.65,-719.33 632,-682.25 592.29,-660.48 568.24,-609.92 557.55,-582.18"/>
<polygon fill="#63b8ff" stroke="#63b8ff" points="560.61,-581.34 553.89,-573.15 554.03,-583.74 560.61,-581.34"/>
</g>
<!-- Node63 -->
<g id="node49" class="node">
<title>Node63</title>
<g id="a_node49"><a xlink:href="v8-unwinder_8h.html" target="_top" xlink:title=" ">
<polygon fill="white" stroke="#666666" points="390,-350.75 314,-350.75 314,-331.5 390,-331.5 390,-350.75"/>
<text text-anchor="middle" x="352" y="-337.25" font-family="Helvetica,sans-Serif" font-size="10.00">v8&#45;unwinder.h</text>
</a>
</g>
</g>
<!-- Node49&#45;&gt;Node63 -->
<g id="edge158" class="edge">
<title>Node49&#45;&gt;Node63</title>
<path fill="none" stroke="#63b8ff" d="M2123.87,-726.78C1870.37,-725.89 248,-716.3 248,-618.38 248,-618.38 248,-618.38 248,-561.12 248,-478.83 308.67,-394.49 337.33,-359.24"/>
<polygon fill="#63b8ff" stroke="#63b8ff" points="340.48,-361.92 344.18,-352 335.1,-357.45 340.48,-361.92"/>
</g>
<!-- Node50&#45;&gt;Node2 -->
<g id="edge88" class="edge">
<title>Node50&#45;&gt;Node2</title>
<path fill="none" stroke="#63b8ff" d="M985.31,-498.02C949.9,-490.75 898.63,-478.45 856,-461.25 679.12,-389.86 400.17,-241.21 334,-129.75 326.17,-116.57 325.33,-99.07 326.21,-85.72"/>
<polygon fill="#63b8ff" stroke="#63b8ff" points="329.79,-86.18 327.36,-75.87 322.82,-85.45 329.79,-86.18"/>
</g>
<!-- Node50&#45;&gt;Node8 -->
<g id="edge111" class="edge">
<title>Node50&#45;&gt;Node8</title>
<path fill="none" stroke="#63b8ff" d="M1021.14,-496.88C985.11,-448.56 823.78,-217.85 943,-110.5 995.35,-63.36 1506.14,-83.61 1576,-74.5 1576.36,-74.45 1576.72,-74.4 1577.08,-74.36"/>
<polygon fill="#63b8ff" stroke="#63b8ff" points="1577.49,-77.67 1586.81,-72.62 1576.38,-70.76 1577.49,-77.67"/>
</g>
<!-- Node50&#45;&gt;Node9 -->
<g id="edge89" class="edge">
<title>Node50&#45;&gt;Node9</title>
<path fill="none" stroke="#63b8ff" d="M1070.7,-504.76C1272.34,-499.44 2121.81,-476.23 2176,-461.25 2354.77,-411.83 2445.82,-405.52 2530,-240.25 2533.88,-232.63 2531.99,-229.32 2530,-221 2525.2,-200.92 2462.66,-67.45 2446,-55.25 2409.05,-28.19 2275.27,-16.64 2210.14,-12.54"/>
<polygon fill="#63b8ff" stroke="#63b8ff" points="2210.74,-9.01 2200.55,-11.91 2210.32,-16 2210.74,-9.01"/>
</g>
<!-- Node50&#45;&gt;Node11 -->
<g id="edge90" class="edge">
<title>Node50&#45;&gt;Node11</title>
<path fill="none" stroke="#63b8ff" d="M1027.53,-497.21C1026.21,-464.29 1025.77,-345.42 1083,-276.25 1095.46,-261.19 1114.06,-251.01 1131.78,-244.23"/>
<polygon fill="#63b8ff" stroke="#63b8ff" points="1132.79,-247.23 1141.07,-240.62 1130.47,-240.63 1132.79,-247.23"/>
</g>
<!-- Node50&#45;&gt;Node22 -->
<g id="edge97" class="edge">
<title>Node50&#45;&gt;Node22</title>
<path fill="none" stroke="#63b8ff" d="M1070.88,-501.2C1163.31,-491.11 1380.44,-467.42 1472.99,-457.32"/>
<polygon fill="#63b8ff" stroke="#63b8ff" points="1473.34,-460.69 1482.9,-456.13 1472.58,-453.73 1473.34,-460.69"/>
</g>
<!-- Node51 -->
<g id="node36" class="node">
<title>Node51</title>
<g id="a_node36"><a xlink:href="v8-memory-span_8h.html" target="_top" xlink:title=" ">
<polygon fill="#fff0f0" stroke="red" points="623.75,-129.75 528.25,-129.75 528.25,-110.5 623.75,-110.5 623.75,-129.75"/>
<text text-anchor="middle" x="576" y="-116.25" font-family="Helvetica,sans-Serif" font-size="10.00">v8&#45;memory&#45;span.h</text>
</a>
</g>
</g>
<!-- Node50&#45;&gt;Node51 -->
<g id="edge91" class="edge">
<title>Node50&#45;&gt;Node51</title>
<path fill="none" stroke="#63b8ff" d="M992.95,-496.82C966.14,-489.19 928.67,-477 898,-461.25 784.95,-403.19 748.05,-391.69 665,-295.5 622.88,-246.71 594.32,-174.52 582.35,-140.37"/>
<polygon fill="#63b8ff" stroke="#63b8ff" points="585.35,-139.31 578.81,-130.97 578.72,-141.57 585.35,-139.31"/>
</g>
<!-- Node50&#45;&gt;Node30 -->
<g id="edge98" class="edge">
<title>Node50&#45;&gt;Node30</title>
<path fill="none" stroke="#63b8ff" d="M1071,-504.87C1286.48,-499.76 2241.05,-476.37 2302,-461.25 2411.29,-434.14 2444.59,-424.13 2530,-350.75 2575.21,-311.91 2583.11,-295.29 2606,-240.25 2611.84,-226.2 2614.86,-209.22 2616.41,-196.3"/>
<polygon fill="#63b8ff" stroke="#63b8ff" points="2619.99,-196.68 2617.48,-186.39 2613.02,-195.99 2619.99,-196.68"/>
</g>
<!-- Node51&#45;&gt;Node2 -->
<g id="edge92" class="edge">
<title>Node51&#45;&gt;Node2</title>
<path fill="none" stroke="#63b8ff" d="M533.82,-110.03C486.44,-99.82 410.32,-83.41 365.43,-73.73"/>
<polygon fill="#63b8ff" stroke="#63b8ff" points="366.24,-70.11 355.73,-71.42 364.77,-76.95 366.24,-70.11"/>
</g>
<!-- Node51&#45;&gt;Node8 -->
<g id="edge96" class="edge">
<title>Node51&#45;&gt;Node8</title>
<path fill="none" stroke="#63b8ff" d="M624.01,-111.96C628.73,-111.41 633.45,-110.9 638,-110.5 1053.57,-73.71 1161.83,-124.63 1576,-74.5 1576.36,-74.46 1576.72,-74.41 1577.09,-74.36"/>
<polygon fill="#63b8ff" stroke="#63b8ff" points="1577.47,-77.69 1586.82,-72.69 1576.4,-70.77 1577.47,-77.69"/>
</g>
<!-- Node51&#45;&gt;Node12 -->
<g id="edge95" class="edge">
<title>Node51&#45;&gt;Node12</title>
<path fill="none" stroke="#63b8ff" d="M624.02,-112.04C628.74,-111.46 633.46,-110.94 638,-110.5 939.57,-81.47 1304.73,-70.04 1426.36,-66.87"/>
<polygon fill="#63b8ff" stroke="#63b8ff" points="1426.12,-70.35 1436.03,-66.6 1425.94,-63.35 1426.12,-70.35"/>
</g>
<!-- Node51&#45;&gt;Node18 -->
<g id="edge94" class="edge">
<title>Node51&#45;&gt;Node18</title>
<path fill="none" stroke="#63b8ff" d="M624.01,-111.98C628.73,-111.42 633.45,-110.91 638,-110.5 1023.44,-75.8 1124.7,-127.83 1508,-74.5 1508.79,-74.39 1509.58,-74.27 1510.38,-74.14"/>
<polygon fill="#63b8ff" stroke="#63b8ff" points="1510.74,-77.45 1519.89,-72.11 1509.4,-70.57 1510.74,-77.45"/>
</g>
<!-- Node25 -->
<g id="node37" class="node">
<title>Node25</title>
<g id="a_node37"><a xlink:title=" ">
<polygon fill="#e0e0e0" stroke="#999999" points="1829.12,-74.5 1780.88,-74.5 1780.88,-55.25 1829.12,-55.25 1829.12,-74.5"/>
<text text-anchor="middle" x="1805" y="-61" font-family="Helvetica,sans-Serif" font-size="10.00">cstddef</text>
</a>
</g>
</g>
<!-- Node51&#45;&gt;Node25 -->
<g id="edge93" class="edge">
<title>Node51&#45;&gt;Node25</title>
<path fill="none" stroke="#63b8ff" d="M624.23,-117.43C776.11,-112.01 1258.11,-94.35 1657,-74.5 1695.52,-72.58 1739.66,-69.95 1769.64,-68.1"/>
<polygon fill="#63b8ff" stroke="#63b8ff" points="1769.63,-71.55 1779.39,-67.44 1769.19,-64.56 1769.63,-71.55"/>
</g>
<!-- Node30&#45;&gt;Node2 -->
<g id="edge100" class="edge">
<title>Node30&#45;&gt;Node2</title>
<path fill="none" stroke="#63b8ff" d="M2581.79,-174.27C2320.67,-173.39 729.84,-166.55 519,-129.75 460.81,-119.59 396.25,-94.82 359.36,-79.28"/>
<polygon fill="#63b8ff" stroke="#63b8ff" points="360.84,-75.69 350.27,-74.98 358.09,-82.12 360.84,-75.69"/>
</g>
<!-- Node30&#45;&gt;Node3 -->
<g id="edge101" class="edge">
<title>Node30&#45;&gt;Node3</title>
<path fill="none" stroke="#63b8ff" d="M2639.01,-165.32C2669.38,-152.39 2727.48,-128.22 2778,-110.5 2816.11,-97.14 2860.56,-83.97 2890.52,-75.44"/>
<polygon fill="#63b8ff" stroke="#63b8ff" points="2891.19,-78.61 2899.86,-72.52 2889.29,-71.87 2891.19,-78.61"/>
</g>
<!-- Node30&#45;&gt;Node6 -->
<g id="edge105" class="edge">
<title>Node30&#45;&gt;Node6</title>
<path fill="none" stroke="#63b8ff" d="M2630.95,-165.31C2657.57,-146.68 2718.69,-103.9 2751.4,-81"/>
<polygon fill="#63b8ff" stroke="#63b8ff" points="2753.01,-83.44 2759.2,-74.84 2749,-77.7 2753.01,-83.44"/>
</g>
<!-- Node30&#45;&gt;Node8 -->
<g id="edge110" class="edge">
<title>Node30&#45;&gt;Node8</title>
<path fill="none" stroke="#63b8ff" d="M2581.61,-170.45C2521.76,-163.74 2398.92,-148.92 2296,-129.75 2259.2,-122.9 2251,-116.19 2214,-110.5 2106.44,-93.95 1774.99,-74.56 1658.77,-68.1"/>
<polygon fill="#63b8ff" stroke="#63b8ff" points="1659.07,-64.55 1648.9,-67.49 1658.69,-71.54 1659.07,-64.55"/>
</g>
<!-- Node30&#45;&gt;Node9 -->
<g id="edge103" class="edge">
<title>Node30&#45;&gt;Node9</title>
<path fill="none" stroke="#63b8ff" d="M2621.42,-165.66C2625.97,-152.5 2632.22,-127.31 2621,-110.5 2585.47,-57.26 2549.73,-72.17 2488,-55.25 2389.72,-28.32 2269.43,-17 2210.32,-12.8"/>
<polygon fill="#63b8ff" stroke="#63b8ff" points="2210.89,-9.26 2200.68,-12.08 2210.42,-16.25 2210.89,-9.26"/>
</g>
<!-- Node30&#45;&gt;Node20 -->
<g id="edge104" class="edge">
<title>Node30&#45;&gt;Node20</title>
<path fill="none" stroke="#63b8ff" d="M2590.98,-165.32C2565.53,-156.64 2526.43,-142.96 2493,-129.75 2451.8,-113.46 2404.98,-92.73 2375.47,-79.38"/>
<polygon fill="#63b8ff" stroke="#63b8ff" points="2377.35,-75.93 2366.8,-74.98 2374.45,-82.3 2377.35,-75.93"/>
</g>
<!-- Node31 -->
<g id="node39" class="node">
<title>Node31</title>
<g id="a_node39"><a xlink:title=" ">
<polygon fill="#e0e0e0" stroke="#999999" points="2547.62,-129.75 2502.38,-129.75 2502.38,-110.5 2547.62,-110.5 2547.62,-129.75"/>
<text text-anchor="middle" x="2525" y="-116.25" font-family="Helvetica,sans-Serif" font-size="10.00">math.h</text>
</a>
</g>
</g>
<!-- Node30&#45;&gt;Node31 -->
<g id="edge99" class="edge">
<title>Node30&#45;&gt;Node31</title>
<path fill="none" stroke="#63b8ff" d="M2602.22,-165.34C2587.93,-157.16 2566.62,-144.96 2550.01,-135.44"/>
<polygon fill="#63b8ff" stroke="#63b8ff" points="2552.27,-132.13 2541.85,-130.2 2548.79,-138.21 2552.27,-132.13"/>
</g>
<!-- Node32 -->
<g id="node40" class="node">
<title>Node32</title>
<g id="a_node40"><a xlink:title=" ">
<polygon fill="#e0e0e0" stroke="#999999" points="2612.38,-129.75 2565.62,-129.75 2565.62,-110.5 2612.38,-110.5 2612.38,-129.75"/>
<text text-anchor="middle" x="2589" y="-116.25" font-family="Helvetica,sans-Serif" font-size="10.00">stdlib.h</text>
</a>
</g>
</g>
<!-- Node30&#45;&gt;Node32 -->
<g id="edge102" class="edge">
<title>Node30&#45;&gt;Node32</title>
<path fill="none" stroke="#63b8ff" d="M2613.21,-165.58C2609.37,-158.53 2603.85,-148.4 2599.05,-139.58"/>
<polygon fill="#63b8ff" stroke="#63b8ff" points="2601.75,-138.22 2593.89,-131.11 2595.6,-141.57 2601.75,-138.22"/>
</g>
<!-- Node29 -->
<g id="node41" class="node">
<title>Node29</title>
<g id="a_node41"><a xlink:href="v8-source-location_8h.html" target="_top" xlink:title=" ">
<polygon fill="white" stroke="#666666" points="2407.5,-129.75 2304.5,-129.75 2304.5,-110.5 2407.5,-110.5 2407.5,-129.75"/>
<text text-anchor="middle" x="2356" y="-116.25" font-family="Helvetica,sans-Serif" font-size="10.00">v8&#45;source&#45;location.h</text>
</a>
</g>
</g>
<!-- Node30&#45;&gt;Node29 -->
<g id="edge106" class="edge">
<title>Node30&#45;&gt;Node29</title>
<path fill="none" stroke="#63b8ff" d="M2581.57,-166.97C2537.46,-158.01 2462.73,-142.82 2411.46,-132.4"/>
<polygon fill="#63b8ff" stroke="#63b8ff" points="2412.39,-128.81 2401.89,-130.25 2410.99,-135.67 2412.39,-128.81"/>
</g>
<!-- Node29&#45;&gt;Node6 -->
<g id="edge108" class="edge">
<title>Node29&#45;&gt;Node6</title>
<path fill="none" stroke="#63b8ff" d="M2407.97,-112.49C2495.66,-101.29 2670.4,-78.98 2741.66,-69.88"/>
<polygon fill="#63b8ff" stroke="#63b8ff" points="2742.08,-73.22 2751.56,-68.49 2741.2,-66.28 2742.08,-73.22"/>
</g>
<!-- Node29&#45;&gt;Node8 -->
<g id="edge109" class="edge">
<title>Node29&#45;&gt;Node8</title>
<path fill="none" stroke="#63b8ff" d="M2304.17,-114.7C2287.51,-113.31 2268.98,-111.8 2252,-110.5 2028.21,-93.35 1759.78,-75.28 1658.94,-68.58"/>
<polygon fill="#63b8ff" stroke="#63b8ff" points="1659.25,-65.03 1649.04,-67.86 1658.79,-72.01 1659.25,-65.03"/>
</g>
<!-- Node29&#45;&gt;Node25 -->
<g id="edge107" class="edge">
<title>Node29&#45;&gt;Node25</title>
<path fill="none" stroke="#63b8ff" d="M2304.16,-114.12C2193.08,-103.38 1934.54,-78.39 1840.23,-69.28"/>
<polygon fill="#63b8ff" stroke="#63b8ff" points="1840.86,-65.73 1830.57,-68.25 1840.18,-72.69 1840.86,-65.73"/>
</g>
<!-- Node53&#45;&gt;Node3 -->
<g id="edge115" class="edge">
<title>Node53&#45;&gt;Node3</title>
<path fill="none" stroke="#63b8ff" d="M2460.69,-662.51C2542.44,-638.39 2757.5,-571.05 2806,-516.5 2819.96,-500.8 2921.03,-163.25 2926,-129.75 2928.19,-114.95 2927.8,-98.01 2926.93,-85.3"/>
<polygon fill="#63b8ff" stroke="#63b8ff" points="2930.36,-85.28 2926.03,-75.61 2923.38,-85.87 2930.36,-85.28"/>
</g>
<!-- Node53&#45;&gt;Node8 -->
<g id="edge127" class="edge">
<title>Node53&#45;&gt;Node8</title>
<path fill="none" stroke="#63b8ff" d="M2449.79,-662.59C2507.94,-636.68 2668,-560.56 2668,-507.88 2668,-507.88 2668,-507.88 2668,-395.38 2668,-266.79 2603.41,-229.95 2492,-165.75 2384.06,-103.54 2333.07,-166.43 2214,-129.75 2195.91,-124.18 2194.22,-115.63 2176,-110.5 2126.67,-96.61 1779.76,-75.31 1659.18,-68.24"/>
<polygon fill="#63b8ff" stroke="#63b8ff" points="1659.43,-64.69 1649.24,-67.61 1659.02,-71.68 1659.43,-64.69"/>
</g>
<!-- Node54 -->
<g id="node43" class="node">
<title>Node54</title>
<g id="a_node43"><a xlink:href="v8-script_8h.html" target="_top" xlink:title=" ">
<polygon fill="#fff0f0" stroke="red" points="1322.5,-627 1261.5,-627 1261.5,-607.75 1322.5,-607.75 1322.5,-627"/>
<text text-anchor="middle" x="1292" y="-613.5" font-family="Helvetica,sans-Serif" font-size="10.00">v8&#45;script.h</text>
</a>
</g>
</g>
<!-- Node53&#45;&gt;Node54 -->
<g id="edge116" class="edge">
<title>Node53&#45;&gt;Node54</title>
<path fill="none" stroke="#63b8ff" d="M2397.1,-670.13C2236.38,-662.6 1515.77,-628.86 1333.83,-620.33"/>
<polygon fill="#63b8ff" stroke="#63b8ff" points="1334.03,-616.79 1323.88,-619.82 1333.7,-623.79 1334.03,-616.79"/>
</g>
<!-- Node54&#45;&gt;Node2 -->
<g id="edge117" class="edge">
<title>Node54&#45;&gt;Node2</title>
<path fill="none" stroke="#63b8ff" d="M1261.47,-615.68C1121.14,-612.36 541.67,-597.21 465,-571.75 280.88,-510.61 213.31,-431.55 181,-240.25 171.31,-182.9 156.82,-151.57 198,-110.5 223.35,-85.23 263.55,-74.26 292.74,-69.5"/>
<polygon fill="#63b8ff" stroke="#63b8ff" points="292.94,-72.86 302.34,-67.97 291.94,-65.94 292.94,-72.86"/>
</g>
<!-- Node54&#45;&gt;Node3 -->
<g id="edge118" class="edge">
<title>Node54&#45;&gt;Node3</title>
<path fill="none" stroke="#63b8ff" d="M1322.66,-616.65C1460.48,-617.01 2035.16,-609.13 2474,-461.25 2681.52,-391.32 2752.45,-361.56 2882,-185 2904.58,-154.23 2916.31,-110.41 2921.52,-85.39"/>
<polygon fill="#63b8ff" stroke="#63b8ff" points="2925.11,-86.24 2923.57,-75.76 2918.24,-84.91 2925.11,-86.24"/>
</g>
<!-- Node54&#45;&gt;Node4 -->
<g id="edge121" class="edge">
<title>Node54&#45;&gt;Node4</title>
<path fill="none" stroke="#63b8ff" d="M1261.08,-612.55C1187.59,-603.45 1001.98,-580.46 912.18,-569.34"/>
<polygon fill="#63b8ff" stroke="#63b8ff" points="912.82,-565.77 902.46,-568.01 911.96,-572.71 912.82,-565.77"/>
</g>
<!-- Node54&#45;&gt;Node8 -->
<g id="edge126" class="edge">
<title>Node54&#45;&gt;Node8</title>
<path fill="none" stroke="#63b8ff" d="M1322.79,-616.74C1412.18,-617.25 1679.06,-614.78 1895,-571.75 2132.25,-524.47 2320.31,-533.44 2364,-295.5 2377.92,-219.71 2319.57,-196.69 2249,-165.75 2209.7,-148.52 2106.09,-118.81 2064,-110.5 1986.88,-95.27 1753.7,-76.28 1658.82,-68.96"/>
<polygon fill="#63b8ff" stroke="#63b8ff" points="1659.19,-65.4 1648.95,-68.12 1658.65,-72.38 1659.19,-65.4"/>
</g>
<!-- Node54&#45;&gt;Node9 -->
<g id="edge119" class="edge">
<title>Node54&#45;&gt;Node9</title>
<path fill="none" stroke="#63b8ff" d="M1322.95,-616.11C1426.65,-614.88 1771.13,-608.15 2053,-571.75 2493.6,-514.86 2757.73,-615.2 2996,-240.25 3028.23,-189.54 3061.27,-164.04 3034,-110.5 3015.05,-73.29 2997.33,-69.28 2958,-55.25 2887.13,-29.96 2355.42,-15.1 2210.43,-11.49"/>
<polygon fill="#63b8ff" stroke="#63b8ff" points="2210.6,-7.97 2200.52,-11.22 2210.43,-14.97 2210.6,-7.97"/>
</g>
<!-- Node54&#45;&gt;Node10 -->
<g id="edge122" class="edge">
<title>Node54&#45;&gt;Node10</title>
<path fill="none" stroke="#63b8ff" d="M1261.21,-614.31C1231.71,-610.6 1188.19,-600.3 1164,-571.75 1097.51,-493.26 1109.43,-357.15 1116.71,-306.56"/>
<polygon fill="#63b8ff" stroke="#63b8ff" points="1120.29,-307.29 1118.37,-296.87 1113.37,-306.21 1120.29,-307.29"/>
</g>
<!-- Node54&#45;&gt;Node11 -->
<g id="edge123" class="edge">
<title>Node54&#45;&gt;Node11</title>
<path fill="none" stroke="#63b8ff" d="M1269.75,-607.26C1236.57,-592.02 1178,-558.01 1178,-507.88 1178,-507.88 1178,-507.88 1178,-395.38 1178,-342.16 1194.71,-329.25 1190,-276.25 1189.26,-267.92 1187.76,-258.82 1186.25,-251.02"/>
<polygon fill="#63b8ff" stroke="#63b8ff" points="1189.52,-250.53 1184.06,-241.45 1182.66,-251.95 1189.52,-250.53"/>
</g>
<!-- Node54&#45;&gt;Node13 -->
<g id="edge120" class="edge">
<title>Node54&#45;&gt;Node13</title>
<path fill="none" stroke="#63b8ff" d="M1292,-607.37C1292,-588.78 1292,-544.8 1292,-507.88 1292,-507.88 1292,-507.88 1292,-395.38 1292,-313.84 1296.59,-274.43 1235,-221 1223.05,-210.63 1127.77,-191.8 1076.46,-182.25"/>
<polygon fill="#63b8ff" stroke="#63b8ff" points="1077.4,-178.68 1066.93,-180.31 1076.13,-185.57 1077.4,-178.68"/>
</g>
<!-- Node54&#45;&gt;Node37 -->
<g id="edge124" class="edge">
<title>Node54&#45;&gt;Node37</title>
<path fill="none" stroke="#63b8ff" d="M1322.61,-614.67C1457.96,-606.81 1998.25,-572.12 2047,-516.5 2072.82,-487.04 1911.71,-348.92 1876,-331.5 1818.8,-303.6 1745.11,-293.14 1698.95,-289.22"/>
<polygon fill="#63b8ff" stroke="#63b8ff" points="1699.36,-285.66 1689.12,-288.38 1698.82,-292.64 1699.36,-285.66"/>
</g>
<!-- Node54&#45;&gt;Node51 -->
<g id="edge125" class="edge">
<title>Node54&#45;&gt;Node51</title>
<path fill="none" stroke="#63b8ff" d="M1261.05,-615.71C1124.05,-612.62 575.76,-598.67 504,-571.75 466.56,-557.7 462.63,-543.35 433,-516.5 358.9,-449.37 276.53,-427.35 305,-331.5 330.04,-247.22 341.97,-217.57 413,-165.75 443.37,-143.59 484.17,-132.44 517.36,-126.82"/>
<polygon fill="#63b8ff" stroke="#63b8ff" points="517.5,-130.18 526.84,-125.18 516.42,-123.27 517.5,-130.18"/>
</g>
<!-- Node58&#45;&gt;Node8 -->
<g id="edge130" class="edge">
<title>Node58&#45;&gt;Node8</title>
<path fill="none" stroke="#63b8ff" d="M2129.48,-331.09C2123.17,-309.79 2104.95,-255.65 2074,-221 2043.49,-186.84 1942.85,-126.69 1900,-110.5 1818.23,-79.59 1715.3,-70.09 1659.16,-67.17"/>
<polygon fill="#63b8ff" stroke="#63b8ff" points="1659.4,-63.63 1649.25,-66.66 1659.07,-70.62 1659.4,-63.63"/>
</g>
<!-- Node58&#45;&gt;Node47 -->
<g id="edge129" class="edge">
<title>Node58&#45;&gt;Node47</title>
<path fill="none" stroke="#63b8ff" d="M2109.1,-331.09C2087.38,-322.52 2054.5,-309.56 2029.96,-299.88"/>
<polygon fill="#63b8ff" stroke="#63b8ff" points="2031.6,-296.37 2021.01,-295.95 2029.03,-302.88 2031.6,-296.37"/>
</g>
<!-- Node59&#45;&gt;Node2 -->
<g id="edge132" class="edge">
<title>Node59&#45;&gt;Node2</title>
<path fill="none" stroke="#63b8ff" d="M1476.67,-500.07C1353.49,-481.08 965.5,-415.03 665,-295.5 525.98,-240.2 481.82,-231.36 372,-129.75 357.77,-116.58 345.86,-97.83 338.21,-84.05"/>
<polygon fill="#63b8ff" stroke="#63b8ff" points="341.01,-82.85 333.22,-75.66 334.82,-86.13 341.01,-82.85"/>
</g>
<!-- Node59&#45;&gt;Node8 -->
<g id="edge135" class="edge">
<title>Node59&#45;&gt;Node8</title>
<path fill="none" stroke="#63b8ff" d="M1555.59,-505.11C1660.46,-500.65 1944.86,-472.09 2054,-295.5 2101.17,-219.17 1900.76,-165.73 1764,-110.5 1729.2,-96.45 1688.22,-84.28 1658.56,-76.22"/>
<polygon fill="#63b8ff" stroke="#63b8ff" points="1659.73,-72.65 1649.17,-73.44 1657.92,-79.41 1659.73,-72.65"/>
</g>
<!-- Node59&#45;&gt;Node11 -->
<g id="edge133" class="edge">
<title>Node59&#45;&gt;Node11</title>
<path fill="none" stroke="#63b8ff" d="M1491.44,-496.79C1453.06,-481.81 1377.69,-449.25 1324,-406 1268.13,-361 1273.98,-331.31 1228,-276.25 1219.66,-266.26 1209.33,-256.08 1200.58,-247.97"/>
<polygon fill="#63b8ff" stroke="#63b8ff" points="1203.24,-245.75 1193.48,-241.63 1198.54,-250.94 1203.24,-245.75"/>
</g>
<!-- Node59&#45;&gt;Node22 -->
<g id="edge134" class="edge">
<title>Node59&#45;&gt;Node22</title>
<path fill="none" stroke="#63b8ff" d="M1516,-497.08C1516,-490.42 1516,-480.99 1516,-472.53"/>
<polygon fill="#63b8ff" stroke="#63b8ff" points="1519.5,-472.61 1516,-462.61 1512.5,-472.61 1519.5,-472.61"/>
</g>
<!-- Node60&#45;&gt;Node8 -->
<g id="edge142" class="edge">
<title>Node60&#45;&gt;Node8</title>
<path fill="none" stroke="#63b8ff" d="M2152.11,-441.6C2199.13,-429.02 2276.42,-401.79 2322,-350.75 2360.42,-307.74 2359.89,-263.58 2321,-221 2281.95,-178.24 2257.34,-185.77 2203,-165.75 2146.34,-144.87 2128.83,-150.15 2072,-129.75 2052.29,-122.68 2049.21,-115.97 2029,-110.5 1959.82,-91.76 1748.45,-75.1 1658.84,-68.68"/>
<polygon fill="#63b8ff" stroke="#63b8ff" points="1659.26,-65.13 1649.03,-67.91 1658.76,-72.11 1659.26,-65.13"/>
</g>
<!-- Node60&#45;&gt;Node11 -->
<g id="edge140" class="edge">
<title>Node60&#45;&gt;Node11</title>
<path fill="none" stroke="#63b8ff" d="M2090.65,-441.58C2060.7,-428.97 2004.44,-405.52 1956,-386.75 1889.37,-360.93 1874.15,-349.52 1805,-331.5 1750.37,-317.27 1379.8,-261.2 1237.5,-239.9"/>
<polygon fill="#63b8ff" stroke="#63b8ff" points="1238.26,-236.32 1227.85,-238.31 1237.22,-243.25 1238.26,-236.32"/>
</g>
<!-- Node60&#45;&gt;Node15 -->
<g id="edge139" class="edge">
<title>Node60&#45;&gt;Node15</title>
<path fill="none" stroke="#63b8ff" d="M2113.76,-441.65C2116.99,-427.68 2125.23,-400.85 2143,-386.75 2199.76,-341.71 2256.78,-407.36 2302,-350.75 2337.99,-305.7 2335.09,-268.23 2302,-221 2286.07,-198.26 2114.49,-153.02 2031.05,-132.15"/>
<polygon fill="#63b8ff" stroke="#63b8ff" points="2032.16,-128.57 2021.61,-129.55 2030.46,-135.36 2032.16,-128.57"/>
</g>
<!-- Node60&#45;&gt;Node19 -->
<g id="edge138" class="edge">
<title>Node60&#45;&gt;Node19</title>
<path fill="none" stroke="#63b8ff" d="M2167.68,-446.13C2290.47,-432.69 2580.19,-380.58 2663,-185 2700.76,-95.82 2521.98,-73.12 2447.91,-67.58"/>
<polygon fill="#63b8ff" stroke="#63b8ff" points="2448.19,-64.03 2437.97,-66.83 2447.71,-71.01 2448.19,-64.03"/>
</g>
<!-- Node60&#45;&gt;Node44 -->
<g id="edge141" class="edge">
<title>Node60&#45;&gt;Node44</title>
<path fill="none" stroke="#63b8ff" d="M2056.4,-444.62C1958.98,-434.1 1759.06,-412.5 1667.15,-402.58"/>
<polygon fill="#63b8ff" stroke="#63b8ff" points="1667.55,-398.99 1657.23,-401.4 1666.8,-405.95 1667.55,-398.99"/>
</g>
<!-- Node60&#45;&gt;Node26 -->
<g id="edge137" class="edge">
<title>Node60&#45;&gt;Node26</title>
<path fill="none" stroke="#63b8ff" d="M2083.68,-441.56C2021.42,-421.64 1872.92,-374.1 1806.32,-352.79"/>
<polygon fill="#63b8ff" stroke="#63b8ff" points="1807.57,-349.2 1796.98,-349.48 1805.44,-355.86 1807.57,-349.2"/>
</g>
<!-- Node62&#45;&gt;Node2 -->
<g id="edge149" class="edge">
<title>Node62&#45;&gt;Node2</title>
<path fill="none" stroke="#63b8ff" d="M516.42,-552C444.97,-530.94 283.63,-471.21 234,-350.75 193.19,-251.68 153.47,-198.91 214,-110.5 231.47,-84.99 265.81,-74.06 292.44,-69.38"/>
<polygon fill="#63b8ff" stroke="#63b8ff" points="292.94,-72.69 302.3,-67.73 291.89,-65.77 292.94,-72.69"/>
</g>
<!-- Node62&#45;&gt;Node3 -->
<g id="edge150" class="edge">
<title>Node62&#45;&gt;Node3</title>
<path fill="none" stroke="#63b8ff" d="M589.8,-559.72C758.42,-553.6 1428.46,-528.97 1639,-516.5 1678.66,-514.15 2313.38,-470.57 2352,-461.25 2413.82,-446.33 2429.02,-437.97 2484,-406 2662.52,-302.2 2850.11,-134.86 2907.39,-82.25"/>
<polygon fill="#63b8ff" stroke="#63b8ff" points="2909.46,-85.17 2914.44,-75.82 2904.72,-80.03 2909.46,-85.17"/>
</g>
<!-- Node62&#45;&gt;Node8 -->
<g id="edge157" class="edge">
<title>Node62&#45;&gt;Node8</title>
<path fill="none" stroke="#63b8ff" d="M546.15,-552.2C541.63,-543.4 535.13,-529.43 532,-516.5 506.76,-412.2 489.52,-360.49 556,-276.25 612.75,-204.34 648.85,-208.25 730,-165.75 785.98,-136.43 799.4,-124.58 861,-110.5 1171.18,-39.6 1260.36,-114.62 1576,-74.5 1576.36,-74.45 1576.72,-74.41 1577.08,-74.36"/>
<polygon fill="#63b8ff" stroke="#63b8ff" points="1577.49,-77.68 1586.81,-72.65 1576.38,-70.77 1577.49,-77.68"/>
</g>
<!-- Node62&#45;&gt;Node9 -->
<g id="edge151" class="edge">
<title>Node62&#45;&gt;Node9</title>
<path fill="none" stroke="#63b8ff" d="M512.25,-556.8C386.84,-540.47 0,-470.71 0,-231.62 0,-231.62 0,-231.62 0,-119.12 0,-23.69 110.82,-70.68 205,-55.25 402.52,-22.9 1885.96,-12.39 2137.74,-10.84"/>
<polygon fill="#63b8ff" stroke="#63b8ff" points="2137.49,-14.33 2147.46,-10.77 2137.44,-7.33 2137.49,-14.33"/>
</g>
<!-- Node62&#45;&gt;Node11 -->
<g id="edge154" class="edge">
<title>Node62&#45;&gt;Node11</title>
<path fill="none" stroke="#63b8ff" d="M557.05,-552.39C580.42,-519.25 668.4,-399.66 767,-331.5 819.65,-295.1 838.4,-293.65 900,-276.25 977.08,-254.47 1069.2,-242.41 1126.67,-236.47"/>
<polygon fill="#63b8ff" stroke="#63b8ff" points="1126.74,-239.88 1136.34,-235.4 1126.04,-232.92 1126.74,-239.88"/>
</g>
<!-- Node62&#45;&gt;Node13 -->
<g id="edge153" class="edge">
<title>Node62&#45;&gt;Node13</title>
<path fill="none" stroke="#63b8ff" d="M548.36,-552.22C543.14,-533.8 532,-490.11 532,-452.62 532,-452.62 532,-452.62 532,-340.12 532,-239.07 898.4,-191.81 1011.29,-179.64"/>
<polygon fill="#63b8ff" stroke="#63b8ff" points="1011.42,-183.04 1021,-178.51 1010.69,-176.08 1011.42,-183.04"/>
</g>
<!-- Node62&#45;&gt;Node21 -->
<g id="edge156" class="edge">
<title>Node62&#45;&gt;Node21</title>
<path fill="none" stroke="#63b8ff" d="M589.76,-554.49C647.06,-544.68 754.18,-526.34 815.58,-515.82"/>
<polygon fill="#63b8ff" stroke="#63b8ff" points="815.86,-519.15 825.13,-514.02 814.68,-512.25 815.86,-519.15"/>
</g>
<!-- Node62&#45;&gt;Node35 -->
<g id="edge152" class="edge">
<title>Node62&#45;&gt;Node35</title>
<path fill="none" stroke="#63b8ff" d="M589.84,-559.79C769.77,-553.55 1515.65,-527.15 1564,-516.5 1690.22,-488.69 1761.04,-513.36 1833,-406 1849.2,-381.83 1815.93,-343.59 1805,-331.5 1768.64,-291.29 1712.53,-260.73 1678.44,-244.55"/>
<polygon fill="#63b8ff" stroke="#63b8ff" points="1680.16,-241.02 1669.61,-239.99 1677.21,-247.37 1680.16,-241.02"/>
</g>
<!-- Node62&#45;&gt;Node51 -->
<g id="edge155" class="edge">
<title>Node62&#45;&gt;Node51</title>
<path fill="none" stroke="#63b8ff" d="M522.14,-552.06C483.02,-537.76 418,-505.97 418,-452.62 418,-452.62 418,-452.62 418,-395.38 418,-293.01 356.22,-229.9 436,-165.75 459.17,-147.12 490.25,-136.21 517.25,-129.84"/>
<polygon fill="#63b8ff" stroke="#63b8ff" points="517.73,-133.1 526.75,-127.54 516.23,-126.26 517.73,-133.1"/>
</g>
<!-- Node63&#45;&gt;Node8 -->
<g id="edge164" class="edge">
<title>Node63&#45;&gt;Node8</title>
<path fill="none" stroke="#63b8ff" d="M354.15,-331.2C359.58,-310.16 375.45,-256.53 404,-221 472.63,-135.6 526.38,-154.96 633,-129.75 669.01,-121.23 677.35,-115.57 714,-110.5 1093.82,-57.93 1195.41,-121.22 1576,-74.5 1576.36,-74.46 1576.72,-74.41 1577.08,-74.36"/>
<polygon fill="#63b8ff" stroke="#63b8ff" points="1577.48,-77.69 1586.81,-72.68 1576.39,-70.77 1577.48,-77.69"/>
</g>
<!-- Node63&#45;&gt;Node9 -->
<g id="edge159" class="edge">
<title>Node63&#45;&gt;Node9</title>
<path fill="none" stroke="#63b8ff" d="M339.37,-331.07C304.15,-304.87 205.53,-224.79 176,-129.75 157.49,-70.16 234.23,-69.43 295,-55.25 480.53,-11.96 1891.35,-10.52 2137.44,-10.6"/>
<polygon fill="#63b8ff" stroke="#63b8ff" points="2137.27,-14.1 2147.27,-10.6 2137.27,-7.1 2137.27,-14.1"/>
</g>
<!-- Node64 -->
<g id="node50" class="node">
<title>Node64</title>
<g id="a_node50"><a xlink:href="v8-embedder-state-scope_8h.html" target="_top" xlink:title=" ">
<polygon fill="white" stroke="#666666" points="807.88,-295.5 674.12,-295.5 674.12,-276.25 807.88,-276.25 807.88,-295.5"/>
<text text-anchor="middle" x="741" y="-282" font-family="Helvetica,sans-Serif" font-size="10.00">v8&#45;embedder&#45;state&#45;scope.h</text>
</a>
</g>
</g>
<!-- Node63&#45;&gt;Node64 -->
<g id="edge160" class="edge">
<title>Node63&#45;&gt;Node64</title>
<path fill="none" stroke="#63b8ff" d="M390.36,-334.87C453.65,-326.21 581.13,-308.76 663.69,-297.46"/>
<polygon fill="#63b8ff" stroke="#63b8ff" points="664.1,-300.8 673.53,-295.97 663.15,-293.86 664.1,-300.8"/>
</g>
<!-- Node64&#45;&gt;Node9 -->
<g id="edge161" class="edge">
<title>Node64&#45;&gt;Node9</title>
<path fill="none" stroke="#63b8ff" d="M733.47,-275.97C719.29,-258.24 690,-216.75 690,-176.38 690,-176.38 690,-176.38 690,-119.12 690,-44.18 1909.74,-15.95 2137.58,-11.33"/>
<polygon fill="#63b8ff" stroke="#63b8ff" points="2137.63,-14.81 2147.55,-11.11 2137.49,-7.81 2137.63,-14.81"/>
</g>
<!-- Node64&#45;&gt;Node11 -->
<g id="edge163" class="edge">
<title>Node64&#45;&gt;Node11</title>
<path fill="none" stroke="#63b8ff" d="M807.98,-276.79C895.15,-266.26 1045.86,-248.06 1126.8,-238.29"/>
<polygon fill="#63b8ff" stroke="#63b8ff" points="1126.76,-241.7 1136.27,-237.03 1125.92,-234.75 1126.76,-241.7"/>
</g>
<!-- Node64&#45;&gt;Node15 -->
<g id="edge162" class="edge">
<title>Node64&#45;&gt;Node15</title>
<path fill="none" stroke="#63b8ff" d="M808.15,-282.16C903.59,-277.54 1083.68,-266.03 1235,-240.25 1268.33,-234.57 1496.69,-171.55 1530,-165.75 1678.94,-139.81 1858.07,-127.79 1940.47,-123.32"/>
<polygon fill="#63b8ff" stroke="#63b8ff" points="1940.64,-126.76 1950.44,-122.74 1940.27,-119.77 1940.64,-126.76"/>
</g>
</g>
</svg>
