<?xml version="1.0" encoding="UTF-8" standalone="no"?>
<!DOCTYPE svg PUBLIC "-//W3C//DTD SVG 1.1//EN"
 "http://www.w3.org/Graphics/SVG/1.1/DTD/svg11.dtd">
<!-- Generated by graphviz version 8.0.5 (20230430.1635)
 -->
<!-- Title: include/v8&#45;maybe.h Pages: 1 -->
<svg width="2193pt" height="791pt"
 viewBox="0.00 0.00 2193.02 790.50" xmlns="http://www.w3.org/2000/svg" xmlns:xlink="http://www.w3.org/1999/xlink">
<g id="graph0" class="graph" transform="scale(1 1) rotate(0) translate(4 786.5)">
<title>include/v8&#45;maybe.h</title>
<!-- Node1 -->
<g id="node1" class="node">
<title>Node1</title>
<g id="a_node1"><a xlink:title=" ">
<polygon fill="#999999" stroke="#666666" points="358.15,-782.5 258.9,-782.5 258.9,-763.25 358.15,-763.25 358.15,-782.5"/>
<text text-anchor="middle" x="308.52" y="-769" font-family="Helvetica,sans-Serif" font-size="10.00">include/v8&#45;maybe.h</text>
</a>
</g>
</g>
<!-- Node2 -->
<g id="node2" class="node">
<title>Node2</title>
<g id="a_node2"><a xlink:href="v8-context_8h.html" target="_top" xlink:title=" ">
<polygon fill="white" stroke="#666666" points="553.65,-135.38 451.4,-135.38 451.4,-116.12 553.65,-116.12 553.65,-135.38"/>
<text text-anchor="middle" x="502.52" y="-121.88" font-family="Helvetica,sans-Serif" font-size="10.00">include/v8&#45;context.h</text>
</a>
</g>
</g>
<!-- Node1&#45;&gt;Node2 -->
<g id="edge1" class="edge">
<title>Node1&#45;&gt;Node2</title>
<path fill="none" stroke="#63b8ff" d="M264.68,-759.36C220.09,-743.63 157.52,-711.9 157.52,-657.75 157.52,-657.75 157.52,-657.75 157.52,-417.88 157.52,-253.69 388.57,-163.26 472.51,-135.82"/>
<polygon fill="#63b8ff" stroke="#63b8ff" points="263.42,-762.96 274.01,-762.84 265.65,-756.33 263.42,-762.96"/>
</g>
<!-- Node4 -->
<g id="node4" class="node">
<title>Node4</title>
<g id="a_node4"><a xlink:href="v8_8h.html" target="_top" xlink:title=" ">
<polygon fill="white" stroke="#666666" points="1260.4,-19.25 1192.65,-19.25 1192.65,0 1260.4,0 1260.4,-19.25"/>
<text text-anchor="middle" x="1226.52" y="-5.75" font-family="Helvetica,sans-Serif" font-size="10.00">include/v8.h</text>
</a>
</g>
</g>
<!-- Node1&#45;&gt;Node4 -->
<g id="edge86" class="edge">
<title>Node1&#45;&gt;Node4</title>
<path fill="none" stroke="#63b8ff" d="M247.94,-770.75C197.27,-767.52 124.5,-757.38 68.52,-727.25 30.74,-706.92 1.52,-700.66 1.52,-657.75 1.52,-657.75 1.52,-657.75 1.52,-124.75 1.52,-92.73 -4.57,-75.15 20.52,-55.25 67.64,-17.88 1000.53,-11.65 1192.26,-10.76"/>
<polygon fill="#63b8ff" stroke="#63b8ff" points="247.54,-774.29 257.72,-771.36 247.93,-767.31 247.54,-774.29"/>
</g>
<!-- Node5 -->
<g id="node5" class="node">
<title>Node5</title>
<g id="a_node5"><a xlink:href="v8-message_8h.html" target="_top" xlink:title=" ">
<polygon fill="white" stroke="#666666" points="465.77,-428.5 355.27,-428.5 355.27,-409.25 465.77,-409.25 465.77,-428.5"/>
<text text-anchor="middle" x="410.52" y="-415" font-family="Helvetica,sans-Serif" font-size="10.00">include/v8&#45;message.h</text>
</a>
</g>
</g>
<!-- Node1&#45;&gt;Node5 -->
<g id="edge5" class="edge">
<title>Node1&#45;&gt;Node5</title>
<path fill="none" stroke="#63b8ff" d="M323.23,-754.21C339.52,-732.8 363.52,-694.94 363.52,-657.75 363.52,-657.75 363.52,-657.75 363.52,-539.62 363.52,-495.4 391.64,-447.95 404.38,-428.72"/>
<polygon fill="#63b8ff" stroke="#63b8ff" points="319.87,-751.82 316.4,-761.83 325.36,-756.16 319.87,-751.82"/>
</g>
<!-- Node9 -->
<g id="node9" class="node">
<title>Node9</title>
<g id="a_node9"><a xlink:href="v8-script_8h.html" target="_top" xlink:title=" ">
<polygon fill="white" stroke="#666666" points="355.9,-373.25 261.15,-373.25 261.15,-354 355.9,-354 355.9,-373.25"/>
<text text-anchor="middle" x="308.52" y="-359.75" font-family="Helvetica,sans-Serif" font-size="10.00">include/v8&#45;script.h</text>
</a>
</g>
</g>
<!-- Node1&#45;&gt;Node9 -->
<g id="edge64" class="edge">
<title>Node1&#45;&gt;Node9</title>
<path fill="none" stroke="#63b8ff" d="M308.52,-752.11C308.52,-729.35 308.52,-690.85 308.52,-657.75 308.52,-657.75 308.52,-657.75 308.52,-478.75 308.52,-439.52 308.52,-392.7 308.52,-373.5"/>
<polygon fill="#63b8ff" stroke="#63b8ff" points="305.02,-752 308.52,-762 312.02,-752 305.02,-752"/>
</g>
<!-- Node18 -->
<g id="node18" class="node">
<title>Node18</title>
<g id="a_node18"><a xlink:href="v8-object_8h.html" target="_top" xlink:title=" ">
<polygon fill="white" stroke="#666666" points="1420.02,-605.5 1323.02,-605.5 1323.02,-586.25 1420.02,-586.25 1420.02,-605.5"/>
<text text-anchor="middle" x="1371.52" y="-592" font-family="Helvetica,sans-Serif" font-size="10.00">include/v8&#45;object.h</text>
</a>
</g>
</g>
<!-- Node1&#45;&gt;Node18 -->
<g id="edge27" class="edge">
<title>Node1&#45;&gt;Node18</title>
<path fill="none" stroke="#63b8ff" d="M369.05,-761.91C560.24,-730.44 1148.87,-633.53 1322.7,-604.91"/>
<polygon fill="#63b8ff" stroke="#63b8ff" points="368.67,-758.59 359.37,-763.67 369.8,-765.5 368.67,-758.59"/>
</g>
<!-- Node32 -->
<g id="node32" class="node">
<title>Node32</title>
<g id="a_node32"><a xlink:href="v8-value-serializer_8h.html" target="_top" xlink:title=" ">
<polygon fill="white" stroke="#666666" points="165.15,-74.5 29.9,-74.5 29.9,-55.25 165.15,-55.25 165.15,-74.5"/>
<text text-anchor="middle" x="97.52" y="-61" font-family="Helvetica,sans-Serif" font-size="10.00">include/v8&#45;value&#45;serializer.h</text>
</a>
</g>
</g>
<!-- Node1&#45;&gt;Node32 -->
<g id="edge65" class="edge">
<title>Node1&#45;&gt;Node32</title>
<path fill="none" stroke="#63b8ff" d="M247.8,-770.5C171.81,-765.18 51.52,-743.25 51.52,-657.75 51.52,-657.75 51.52,-657.75 51.52,-191.25 51.52,-145.11 79.32,-94.94 91.7,-74.89"/>
<polygon fill="#63b8ff" stroke="#63b8ff" points="247.47,-774.05 257.67,-771.17 247.9,-767.06 247.47,-774.05"/>
</g>
<!-- Node33 -->
<g id="node33" class="node">
<title>Node33</title>
<g id="a_node33"><a xlink:href="v8-value_8h.html" target="_top" xlink:title=" ">
<polygon fill="white" stroke="#666666" points="1962.52,-727.25 1868.52,-727.25 1868.52,-708 1962.52,-708 1962.52,-727.25"/>
<text text-anchor="middle" x="1915.52" y="-713.75" font-family="Helvetica,sans-Serif" font-size="10.00">include/v8&#45;value.h</text>
</a>
</g>
</g>
<!-- Node1&#45;&gt;Node33 -->
<g id="edge67" class="edge">
<title>Node1&#45;&gt;Node33</title>
<path fill="none" stroke="#63b8ff" d="M369.05,-769.87C627.66,-761.3 1637.1,-727.85 1868.21,-720.19"/>
<polygon fill="#63b8ff" stroke="#63b8ff" points="369.26,-766.39 359.38,-770.22 369.49,-773.39 369.26,-766.39"/>
</g>
<!-- Node3 -->
<g id="node3" class="node">
<title>Node3</title>
<g id="a_node3"><a xlink:href="v8-proxy_8h.html" target="_top" xlink:title=" ">
<polygon fill="white" stroke="#666666" points="591.15,-74.5 497.9,-74.5 497.9,-55.25 591.15,-55.25 591.15,-74.5"/>
<text text-anchor="middle" x="544.52" y="-61" font-family="Helvetica,sans-Serif" font-size="10.00">include/v8&#45;proxy.h</text>
</a>
</g>
</g>
<!-- Node2&#45;&gt;Node3 -->
<g id="edge2" class="edge">
<title>Node2&#45;&gt;Node3</title>
<path fill="none" stroke="#63b8ff" d="M515.21,-106.96C522.76,-96.38 532.02,-83.4 538.08,-74.9"/>
<polygon fill="#63b8ff" stroke="#63b8ff" points="511.86,-104.63 508.9,-114.81 517.56,-108.7 511.86,-104.63"/>
</g>
<!-- Node2&#45;&gt;Node4 -->
<g id="edge4" class="edge">
<title>Node2&#45;&gt;Node4</title>
<path fill="none" stroke="#63b8ff" d="M491.21,-106.58C483.1,-90.99 475.65,-68.92 488.52,-55.25 512.94,-29.31 1049.99,-14.8 1192.22,-11.4"/>
<polygon fill="#63b8ff" stroke="#63b8ff" points="488.44,-107.79 496.44,-114.74 494.52,-104.32 488.44,-107.79"/>
</g>
<!-- Node3&#45;&gt;Node4 -->
<g id="edge3" class="edge">
<title>Node3&#45;&gt;Node4</title>
<path fill="none" stroke="#63b8ff" d="M602.06,-55.63C603.22,-55.5 604.38,-55.37 605.52,-55.25 828.82,-31.47 1098.67,-16.9 1192.45,-12.25"/>
<polygon fill="#63b8ff" stroke="#63b8ff" points="601.95,-52.24 592.44,-56.91 602.79,-59.19 601.95,-52.24"/>
</g>
<!-- Node5&#45;&gt;Node4 -->
<g id="edge26" class="edge">
<title>Node5&#45;&gt;Node4</title>
<path fill="none" stroke="#63b8ff" d="M344.3,-415.72C311.86,-411.04 275.03,-399.66 252.52,-373.25 200.28,-311.95 231.52,-273.79 231.52,-193.25 231.52,-193.25 231.52,-193.25 231.52,-124.75 231.52,-74.91 272.86,-72.75 319.52,-55.25 402.33,-24.19 1036.73,-13.3 1192.21,-11.08"/>
<polygon fill="#63b8ff" stroke="#63b8ff" points="343.76,-419.3 354.11,-417.06 344.62,-412.35 343.76,-419.3"/>
</g>
<!-- Node6 -->
<g id="node6" class="node">
<title>Node6</title>
<g id="a_node6"><a xlink:href="v8-function_8h.html" target="_top" xlink:title=" ">
<polygon fill="white" stroke="#666666" points="727.15,-373.25 621.9,-373.25 621.9,-354 727.15,-354 727.15,-373.25"/>
<text text-anchor="middle" x="674.52" y="-359.75" font-family="Helvetica,sans-Serif" font-size="10.00">include/v8&#45;function.h</text>
</a>
</g>
</g>
<!-- Node5&#45;&gt;Node6 -->
<g id="edge6" class="edge">
<title>Node5&#45;&gt;Node6</title>
<path fill="none" stroke="#63b8ff" d="M466.26,-406.63C514.88,-396.83 584.51,-382.78 629.63,-373.68"/>
<polygon fill="#63b8ff" stroke="#63b8ff" points="465.72,-403.37 456.61,-408.78 467.1,-410.24 465.72,-403.37"/>
</g>
<!-- Node7 -->
<g id="node7" class="node">
<title>Node7</title>
<g id="a_node7"><a xlink:href="v8-json_8h.html" target="_top" xlink:title=" ">
<polygon fill="white" stroke="#666666" points="167.9,-318 79.15,-318 79.15,-298.75 167.9,-298.75 167.9,-318"/>
<text text-anchor="middle" x="123.52" y="-304.5" font-family="Helvetica,sans-Serif" font-size="10.00">include/v8&#45;json.h</text>
</a>
</g>
</g>
<!-- Node5&#45;&gt;Node7 -->
<g id="edge8" class="edge">
<title>Node5&#45;&gt;Node7</title>
<path fill="none" stroke="#63b8ff" d="M344.59,-408.46C306.91,-401.63 259.37,-390.49 219.52,-373.25 185.9,-358.7 151.29,-332.31 134.29,-318.45"/>
<polygon fill="#63b8ff" stroke="#63b8ff" points="343.49,-412 353.95,-410.28 344.7,-405.1 343.49,-412"/>
</g>
<!-- Node8 -->
<g id="node8" class="node">
<title>Node8</title>
<g id="a_node8"><a xlink:href="v8-profiler_8h.html" target="_top" xlink:title=" ">
<polygon fill="white" stroke="#666666" points="473.15,-373.25 373.9,-373.25 373.9,-354 473.15,-354 473.15,-373.25"/>
<text text-anchor="middle" x="423.52" y="-359.75" font-family="Helvetica,sans-Serif" font-size="10.00">include/v8&#45;profiler.h</text>
</a>
</g>
</g>
<!-- Node5&#45;&gt;Node8 -->
<g id="edge10" class="edge">
<title>Node5&#45;&gt;Node8</title>
<path fill="none" stroke="#63b8ff" d="M415.25,-398.5C417.33,-389.99 419.67,-380.4 421.33,-373.61"/>
<polygon fill="#63b8ff" stroke="#63b8ff" points="411.64,-397.54 412.67,-408.08 418.44,-399.2 411.64,-397.54"/>
</g>
<!-- Node5&#45;&gt;Node9 -->
<g id="edge11" class="edge">
<title>Node5&#45;&gt;Node9</title>
<path fill="none" stroke="#63b8ff" d="M383.71,-403.87C365.43,-394.33 341.76,-381.98 325.91,-373.7"/>
<polygon fill="#63b8ff" stroke="#63b8ff" points="381.74,-407.32 392.22,-408.84 384.97,-401.11 381.74,-407.32"/>
</g>
<!-- Node6&#45;&gt;Node4 -->
<g id="edge7" class="edge">
<title>Node6&#45;&gt;Node4</title>
<path fill="none" stroke="#63b8ff" d="M662.88,-344.75C645.45,-316.83 613.38,-260.53 601.52,-207.5 593.87,-173.25 615.74,-76.7 643.52,-55.25 687.01,-21.67 1073.91,-12.97 1192.27,-11.09"/>
<polygon fill="#63b8ff" stroke="#63b8ff" points="660.25,-346.14 668.57,-352.7 666.16,-342.38 660.25,-346.14"/>
</g>
<!-- Node7&#45;&gt;Node4 -->
<g id="edge9" class="edge">
<title>Node7&#45;&gt;Node4</title>
<path fill="none" stroke="#63b8ff" d="M141.73,-290.95C162.47,-270.35 193.52,-232.88 193.52,-193.25 193.52,-193.25 193.52,-193.25 193.52,-124.75 193.52,-92.07 191.34,-74.8 217.52,-55.25 257.42,-25.47 1020.74,-13.41 1192.43,-11.06"/>
<polygon fill="#63b8ff" stroke="#63b8ff" points="139.67,-288.03 134.85,-297.47 144.5,-293.1 139.67,-288.03"/>
</g>
<!-- Node9&#45;&gt;Node4 -->
<g id="edge25" class="edge">
<title>Node9&#45;&gt;Node4</title>
<path fill="none" stroke="#63b8ff" d="M300.4,-343.67C282.81,-299.48 246.15,-187.57 289.52,-110.5 312.73,-69.27 335.31,-69.2 380.52,-55.25 536,-7.29 1054.65,-8.9 1192.58,-10.22"/>
<polygon fill="#63b8ff" stroke="#63b8ff" points="297.45,-344.69 304.49,-352.6 303.92,-342.02 297.45,-344.69"/>
</g>
<!-- Node10 -->
<g id="node10" class="node">
<title>Node10</title>
<g id="a_node10"><a xlink:href="v8-debug_8h.html" target="_top" xlink:title=" ">
<polygon fill="white" stroke="#666666" points="511.02,-318 414.02,-318 414.02,-298.75 511.02,-298.75 511.02,-318"/>
<text text-anchor="middle" x="462.52" y="-304.5" font-family="Helvetica,sans-Serif" font-size="10.00">include/v8&#45;debug.h</text>
</a>
</g>
</g>
<!-- Node9&#45;&gt;Node10 -->
<g id="edge12" class="edge">
<title>Node9&#45;&gt;Node10</title>
<path fill="none" stroke="#63b8ff" d="M344.86,-350.06C372.93,-340.35 411.12,-327.15 436.27,-318.45"/>
<polygon fill="#63b8ff" stroke="#63b8ff" points="343.95,-347.02 335.65,-353.59 346.24,-353.63 343.95,-347.02"/>
</g>
<!-- Node10&#45;&gt;Node4 -->
<g id="edge24" class="edge">
<title>Node10&#45;&gt;Node4</title>
<path fill="none" stroke="#63b8ff" d="M451.96,-288.83C440.41,-266.78 423.52,-228.52 423.52,-193.25 423.52,-193.25 423.52,-193.25 423.52,-124.75 423.52,-85.63 442.91,-73.48 477.52,-55.25 541.27,-21.67 1054.29,-12.8 1192.39,-11.01"/>
<polygon fill="#63b8ff" stroke="#63b8ff" points="449.24,-290.16 457.1,-297.27 455.39,-286.81 449.24,-290.16"/>
</g>
<!-- Node11 -->
<g id="node11" class="node">
<title>Node11</title>
<g id="a_node11"><a xlink:href="v8-isolate_8h.html" target="_top" xlink:title=" ">
<polygon fill="white" stroke="#666666" points="1083.15,-262.75 983.9,-262.75 983.9,-243.5 1083.15,-243.5 1083.15,-262.75"/>
<text text-anchor="middle" x="1033.52" y="-249.25" font-family="Helvetica,sans-Serif" font-size="10.00">include/v8&#45;isolate.h</text>
</a>
</g>
</g>
<!-- Node10&#45;&gt;Node11 -->
<g id="edge13" class="edge">
<title>Node10&#45;&gt;Node11</title>
<path fill="none" stroke="#63b8ff" d="M522.05,-301.82C635.06,-291.28 878.76,-268.56 983.74,-258.77"/>
<polygon fill="#63b8ff" stroke="#63b8ff" points="521.84,-298.42 512.21,-302.83 522.49,-305.39 521.84,-298.42"/>
</g>
<!-- Node11&#45;&gt;Node4 -->
<g id="edge23" class="edge">
<title>Node11&#45;&gt;Node4</title>
<path fill="none" stroke="#63b8ff" d="M1094.24,-246.53C1122.5,-240.88 1154.45,-229.68 1175.52,-207.5 1228.06,-152.21 1228.25,-50.07 1227.02,-19.49"/>
<polygon fill="#63b8ff" stroke="#63b8ff" points="1093.85,-243.22 1084.63,-248.43 1095.09,-250.11 1093.85,-243.22"/>
</g>
<!-- Node12 -->
<g id="node12" class="node">
<title>Node12</title>
<g id="a_node12"><a xlink:href="v8-external-memory-accounter_8h.html" target="_top" xlink:title=" ">
<polygon fill="white" stroke="#666666" points="1037.9,-207.5 931.15,-207.5 931.15,-177 1037.9,-177 1037.9,-207.5"/>
<text text-anchor="start" x="939.15" y="-194" font-family="Helvetica,sans-Serif" font-size="10.00">include/v8&#45;external</text>
<text text-anchor="middle" x="984.52" y="-182.75" font-family="Helvetica,sans-Serif" font-size="10.00">&#45;memory&#45;accounter.h</text>
</a>
</g>
</g>
<!-- Node11&#45;&gt;Node12 -->
<g id="edge14" class="edge">
<title>Node11&#45;&gt;Node12</title>
<path fill="none" stroke="#63b8ff" d="M1019.25,-234.98C1012.07,-226.35 1003.47,-216.01 996.62,-207.78"/>
<polygon fill="#63b8ff" stroke="#63b8ff" points="1016.99,-236.74 1026.08,-242.18 1022.37,-232.26 1016.99,-236.74"/>
</g>
<!-- Node13 -->
<g id="node13" class="node">
<title>Node13</title>
<g id="a_node13"><a xlink:href="v8-initialization_8h.html" target="_top" xlink:title=" ">
<polygon fill="white" stroke="#666666" points="1344.02,-201.88 1223.02,-201.88 1223.02,-182.62 1344.02,-182.62 1344.02,-201.88"/>
<text text-anchor="middle" x="1283.52" y="-188.38" font-family="Helvetica,sans-Serif" font-size="10.00">include/v8&#45;initialization.h</text>
</a>
</g>
</g>
<!-- Node11&#45;&gt;Node13 -->
<g id="edge15" class="edge">
<title>Node11&#45;&gt;Node13</title>
<path fill="none" stroke="#63b8ff" d="M1082.7,-240.54C1130.26,-229.34 1201.36,-212.6 1244.96,-202.33"/>
<polygon fill="#63b8ff" stroke="#63b8ff" points="1081.97,-237.36 1073.04,-243.05 1083.57,-244.17 1081.97,-237.36"/>
</g>
<!-- Node14 -->
<g id="node14" class="node">
<title>Node14</title>
<g id="a_node14"><a xlink:href="v8-inspector_8h.html" target="_top" xlink:title=" ">
<polygon fill="white" stroke="#666666" points="1166.77,-201.88 1056.27,-201.88 1056.27,-182.62 1166.77,-182.62 1166.77,-201.88"/>
<text text-anchor="middle" x="1111.52" y="-188.38" font-family="Helvetica,sans-Serif" font-size="10.00">include/v8&#45;inspector.h</text>
</a>
</g>
</g>
<!-- Node11&#45;&gt;Node14 -->
<g id="edge17" class="edge">
<title>Node11&#45;&gt;Node14</title>
<path fill="none" stroke="#63b8ff" d="M1054.14,-236.56C1068.62,-225.63 1087.5,-211.39 1099.56,-202.28"/>
<polygon fill="#63b8ff" stroke="#63b8ff" points="1052.24,-234.37 1046.37,-243.18 1056.46,-239.95 1052.24,-234.37"/>
</g>
<!-- Node16 -->
<g id="node16" class="node">
<title>Node16</title>
<g id="a_node16"><a xlink:href="v8-metrics_8h.html" target="_top" xlink:title=" ">
<polygon fill="white" stroke="#666666" points="913.02,-201.88 810.02,-201.88 810.02,-182.62 913.02,-182.62 913.02,-201.88"/>
<text text-anchor="middle" x="861.52" y="-188.38" font-family="Helvetica,sans-Serif" font-size="10.00">include/v8&#45;metrics.h</text>
</a>
</g>
</g>
<!-- Node11&#45;&gt;Node16 -->
<g id="edge19" class="edge">
<title>Node11&#45;&gt;Node16</title>
<path fill="none" stroke="#63b8ff" d="M996.97,-239.61C964.3,-228.43 917.23,-212.32 888.05,-202.33"/>
<polygon fill="#63b8ff" stroke="#63b8ff" points="995.43,-243.13 1006.02,-243.05 997.7,-236.5 995.43,-243.13"/>
</g>
<!-- Node17 -->
<g id="node17" class="node">
<title>Node17</title>
<g id="a_node17"><a xlink:href="v8-snapshot_8h.html" target="_top" xlink:title=" ">
<polygon fill="white" stroke="#666666" points="791.77,-201.88 681.27,-201.88 681.27,-182.62 791.77,-182.62 791.77,-201.88"/>
<text text-anchor="middle" x="736.52" y="-188.38" font-family="Helvetica,sans-Serif" font-size="10.00">include/v8&#45;snapshot.h</text>
</a>
</g>
</g>
<!-- Node11&#45;&gt;Node17 -->
<g id="edge20" class="edge">
<title>Node11&#45;&gt;Node17</title>
<path fill="none" stroke="#63b8ff" d="M973.54,-241.03C926.64,-232.24 859.85,-219.5 801.52,-207.5 793.6,-205.87 785.15,-204.07 777.06,-202.31"/>
<polygon fill="#63b8ff" stroke="#63b8ff" points="972.65,-244.61 983.12,-243 973.93,-237.73 972.65,-244.61"/>
</g>
<!-- Node13&#45;&gt;Node4 -->
<g id="edge16" class="edge">
<title>Node13&#45;&gt;Node4</title>
<path fill="none" stroke="#63b8ff" d="M1277.52,-172.22C1265.36,-133.69 1238.23,-47.73 1229.38,-19.67"/>
<polygon fill="#63b8ff" stroke="#63b8ff" points="1274.43,-173.05 1280.77,-181.54 1281.1,-170.95 1274.43,-173.05"/>
</g>
<!-- Node15 -->
<g id="node15" class="node">
<title>Node15</title>
<g id="a_node15"><a xlink:href="v8-inspector-protocol_8h.html" target="_top" xlink:title=" ">
<polygon fill="white" stroke="#666666" points="1163.02,-141 1060.02,-141 1060.02,-110.5 1163.02,-110.5 1163.02,-141"/>
<text text-anchor="start" x="1068.02" y="-127.5" font-family="Helvetica,sans-Serif" font-size="10.00">include/v8&#45;inspector</text>
<text text-anchor="middle" x="1111.52" y="-116.25" font-family="Helvetica,sans-Serif" font-size="10.00">&#45;protocol.h</text>
</a>
</g>
</g>
<!-- Node14&#45;&gt;Node15 -->
<g id="edge18" class="edge">
<title>Node14&#45;&gt;Node15</title>
<path fill="none" stroke="#63b8ff" d="M1111.52,-171.52C1111.52,-161.7 1111.52,-150.05 1111.52,-141.09"/>
<polygon fill="#63b8ff" stroke="#63b8ff" points="1108.02,-171.28 1111.52,-181.28 1115.02,-171.28 1108.02,-171.28"/>
</g>
<!-- Node17&#45;&gt;Node2 -->
<g id="edge21" class="edge">
<title>Node17&#45;&gt;Node2</title>
<path fill="none" stroke="#63b8ff" d="M693.02,-179.26C647.36,-166.67 576.59,-147.17 535.38,-135.81"/>
<polygon fill="#63b8ff" stroke="#63b8ff" points="691.92,-182.86 702.49,-182.15 693.78,-176.11 691.92,-182.86"/>
</g>
<!-- Node17&#45;&gt;Node4 -->
<g id="edge22" class="edge">
<title>Node17&#45;&gt;Node4</title>
<path fill="none" stroke="#63b8ff" d="M771.24,-178.45C864.91,-143.92 1121.13,-49.47 1201.84,-19.72"/>
<polygon fill="#63b8ff" stroke="#63b8ff" points="770.33,-175.43 762.16,-182.17 772.75,-181.99 770.33,-175.43"/>
</g>
<!-- Node18&#45;&gt;Node3 -->
<g id="edge57" class="edge">
<title>Node18&#45;&gt;Node3</title>
<path fill="none" stroke="#63b8ff" d="M1311.65,-592.96C1120.85,-586.09 539.52,-558.75 539.52,-480.75 539.52,-480.75 539.52,-480.75 539.52,-252.12 539.52,-188.36 574.67,-173.1 562.52,-110.5 560.01,-97.54 553.74,-83.58 549.31,-74.79"/>
<polygon fill="#63b8ff" stroke="#63b8ff" points="1311.47,-596.5 1321.58,-593.35 1311.71,-589.5 1311.47,-596.5"/>
</g>
<!-- Node18&#45;&gt;Node4 -->
<g id="edge63" class="edge">
<title>Node18&#45;&gt;Node4</title>
<path fill="none" stroke="#63b8ff" d="M1389.04,-578.24C1437.66,-530.04 1569.29,-384.72 1547.52,-243.5 1534.04,-156.02 1551.66,-110.52 1482.52,-55.25 1448.78,-28.27 1322.27,-16.69 1260.66,-12.56"/>
<polygon fill="#63b8ff" stroke="#63b8ff" points="1386.95,-575.36 1382.23,-584.85 1391.84,-580.38 1386.95,-575.36"/>
</g>
<!-- Node18&#45;&gt;Node6 -->
<g id="edge44" class="edge">
<title>Node18&#45;&gt;Node6</title>
<path fill="none" stroke="#63b8ff" d="M1312.12,-594.04C1233.36,-591.62 1090.64,-582.66 973.52,-550.25 916.55,-534.48 903.52,-524.9 852.52,-495 785.11,-455.48 712.1,-396.16 685.23,-373.69"/>
<polygon fill="#63b8ff" stroke="#63b8ff" points="1311.71,-597.56 1321.81,-594.34 1311.91,-590.56 1311.71,-597.56"/>
</g>
<!-- Node19 -->
<g id="node19" class="node">
<title>Node19</title>
<g id="a_node19"><a xlink:href="v8-array-buffer_8h.html" target="_top" xlink:title=" ">
<polygon fill="white" stroke="#666666" points="1500.9,-318 1382.15,-318 1382.15,-298.75 1500.9,-298.75 1500.9,-318"/>
<text text-anchor="middle" x="1441.52" y="-304.5" font-family="Helvetica,sans-Serif" font-size="10.00">include/v8&#45;array&#45;buffer.h</text>
</a>
</g>
</g>
<!-- Node18&#45;&gt;Node19 -->
<g id="edge28" class="edge">
<title>Node18&#45;&gt;Node19</title>
<path fill="none" stroke="#63b8ff" d="M1382.36,-576.37C1394.21,-554.35 1411.52,-516.11 1411.52,-480.75 1411.52,-480.75 1411.52,-480.75 1411.52,-417.88 1411.52,-379.76 1428.93,-336.76 1437.22,-318.43"/>
<polygon fill="#63b8ff" stroke="#63b8ff" points="1378.92,-574.35 1377.08,-584.79 1385.02,-577.77 1378.92,-574.35"/>
</g>
<!-- Node22 -->
<g id="node22" class="node">
<title>Node22</title>
<g id="a_node22"><a xlink:href="v8-container_8h.html" target="_top" xlink:title=" ">
<polygon fill="white" stroke="#666666" points="1662.77,-74.5 1552.27,-74.5 1552.27,-55.25 1662.77,-55.25 1662.77,-74.5"/>
<text text-anchor="middle" x="1607.52" y="-61" font-family="Helvetica,sans-Serif" font-size="10.00">include/v8&#45;container.h</text>
</a>
</g>
</g>
<!-- Node18&#45;&gt;Node22 -->
<g id="edge34" class="edge">
<title>Node18&#45;&gt;Node22</title>
<path fill="none" stroke="#63b8ff" d="M1430.94,-589.5C1459.5,-583.93 1492.1,-572.72 1513.52,-550.25 1650.08,-407.05 1616.73,-127.89 1608.92,-74.73"/>
<polygon fill="#63b8ff" stroke="#63b8ff" points="1430.48,-586.2 1421.23,-591.36 1431.68,-593.09 1430.48,-586.2"/>
</g>
<!-- Node23 -->
<g id="node23" class="node">
<title>Node23</title>
<g id="a_node23"><a xlink:href="v8-date_8h.html" target="_top" xlink:title=" ">
<polygon fill="white" stroke="#666666" points="1655.27,-550.25 1565.77,-550.25 1565.77,-531 1655.27,-531 1655.27,-550.25"/>
<text text-anchor="middle" x="1610.52" y="-536.75" font-family="Helvetica,sans-Serif" font-size="10.00">include/v8&#45;date.h</text>
</a>
</g>
</g>
<!-- Node18&#45;&gt;Node23 -->
<g id="edge36" class="edge">
<title>Node18&#45;&gt;Node23</title>
<path fill="none" stroke="#63b8ff" d="M1422.81,-583.45C1466.79,-573.65 1529.29,-559.72 1569.88,-550.68"/>
<polygon fill="#63b8ff" stroke="#63b8ff" points="1422.34,-580.19 1413.34,-585.78 1423.86,-587.02 1422.34,-580.19"/>
</g>
<!-- Node24 -->
<g id="node24" class="node">
<title>Node24</title>
<g id="a_node24"><a xlink:href="v8-exception_8h.html" target="_top" xlink:title=" ">
<polygon fill="white" stroke="#666666" points="1005.52,-489.38 893.52,-489.38 893.52,-470.12 1005.52,-470.12 1005.52,-489.38"/>
<text text-anchor="middle" x="949.52" y="-475.88" font-family="Helvetica,sans-Serif" font-size="10.00">include/v8&#45;exception.h</text>
</a>
</g>
</g>
<!-- Node18&#45;&gt;Node24 -->
<g id="edge38" class="edge">
<title>Node18&#45;&gt;Node24</title>
<path fill="none" stroke="#63b8ff" d="M1327.5,-582.97C1242.75,-560.05 1058.63,-510.26 982.99,-489.8"/>
<polygon fill="#63b8ff" stroke="#63b8ff" points="1326.49,-586.59 1337.06,-585.82 1328.32,-579.84 1326.49,-586.59"/>
</g>
<!-- Node25 -->
<g id="node25" class="node">
<title>Node25</title>
<g id="a_node25"><a xlink:href="v8-template_8h.html" target="_top" xlink:title=" ">
<polygon fill="white" stroke="#666666" points="891.65,-428.5 783.4,-428.5 783.4,-409.25 891.65,-409.25 891.65,-428.5"/>
<text text-anchor="middle" x="837.52" y="-415" font-family="Helvetica,sans-Serif" font-size="10.00">include/v8&#45;template.h</text>
</a>
</g>
</g>
<!-- Node18&#45;&gt;Node25 -->
<g id="edge60" class="edge">
<title>Node18&#45;&gt;Node25</title>
<path fill="none" stroke="#63b8ff" d="M1312.14,-588.64C1198,-575.7 953.18,-543.08 884.52,-495 860.58,-478.23 846.29,-444.97 840.51,-428.94"/>
<polygon fill="#63b8ff" stroke="#63b8ff" points="1311.44,-592.19 1321.77,-589.83 1312.22,-585.23 1311.44,-592.19"/>
</g>
<!-- Node26 -->
<g id="node26" class="node">
<title>Node26</title>
<g id="a_node26"><a xlink:href="v8-primitive-object_8h.html" target="_top" xlink:title=" ">
<polygon fill="white" stroke="#666666" points="1738.52,-495 1638.52,-495 1638.52,-464.5 1738.52,-464.5 1738.52,-495"/>
<text text-anchor="start" x="1646.52" y="-481.5" font-family="Helvetica,sans-Serif" font-size="10.00">include/v8&#45;primitive</text>
<text text-anchor="middle" x="1688.52" y="-470.25" font-family="Helvetica,sans-Serif" font-size="10.00">&#45;object.h</text>
</a>
</g>
</g>
<!-- Node18&#45;&gt;Node26 -->
<g id="edge45" class="edge">
<title>Node18&#45;&gt;Node26</title>
<path fill="none" stroke="#63b8ff" d="M1431.01,-592.93C1506.2,-589.3 1630,-579.02 1664.52,-550.25 1680.8,-536.68 1686.06,-511.49 1687.75,-495.45"/>
<polygon fill="#63b8ff" stroke="#63b8ff" points="1431.12,-589.47 1421.29,-593.42 1431.43,-596.46 1431.12,-589.47"/>
</g>
<!-- Node27 -->
<g id="node27" class="node">
<title>Node27</title>
<g id="a_node27"><a xlink:href="v8-promise_8h.html" target="_top" xlink:title=" ">
<polygon fill="white" stroke="#666666" points="1361.15,-550.25 1255.9,-550.25 1255.9,-531 1361.15,-531 1361.15,-550.25"/>
<text text-anchor="middle" x="1308.52" y="-536.75" font-family="Helvetica,sans-Serif" font-size="10.00">include/v8&#45;promise.h</text>
</a>
</g>
</g>
<!-- Node18&#45;&gt;Node27 -->
<g id="edge47" class="edge">
<title>Node18&#45;&gt;Node27</title>
<path fill="none" stroke="#63b8ff" d="M1352.67,-578.94C1341.67,-569.64 1328.2,-558.26 1319.05,-550.52"/>
<polygon fill="#63b8ff" stroke="#63b8ff" points="1349.94,-582.06 1359.84,-585.84 1354.46,-576.71 1349.94,-582.06"/>
</g>
<!-- Node30 -->
<g id="node30" class="node">
<title>Node30</title>
<g id="a_node30"><a xlink:href="v8-regexp_8h.html" target="_top" xlink:title=" ">
<polygon fill="white" stroke="#666666" points="1811.15,-550.25 1711.9,-550.25 1711.9,-531 1811.15,-531 1811.15,-550.25"/>
<text text-anchor="middle" x="1761.52" y="-536.75" font-family="Helvetica,sans-Serif" font-size="10.00">include/v8&#45;regexp.h</text>
</a>
</g>
</g>
<!-- Node18&#45;&gt;Node30 -->
<g id="edge58" class="edge">
<title>Node18&#45;&gt;Node30</title>
<path fill="none" stroke="#63b8ff" d="M1430.96,-586.76C1507.65,-576.29 1639.69,-558.26 1711.49,-548.46"/>
<polygon fill="#63b8ff" stroke="#63b8ff" points="1430.96,-583.36 1421.52,-588.18 1431.9,-590.3 1430.96,-583.36"/>
</g>
<!-- Node31 -->
<g id="node31" class="node">
<title>Node31</title>
<g id="a_node31"><a xlink:href="v8-wasm_8h.html" target="_top" xlink:title=" ">
<polygon fill="white" stroke="#666666" points="395.02,-135.38 298.02,-135.38 298.02,-116.12 395.02,-116.12 395.02,-135.38"/>
<text text-anchor="middle" x="346.52" y="-121.88" font-family="Helvetica,sans-Serif" font-size="10.00">include/v8&#45;wasm.h</text>
</a>
</g>
</g>
<!-- Node18&#45;&gt;Node31 -->
<g id="edge61" class="edge">
<title>Node18&#45;&gt;Node31</title>
<path fill="none" stroke="#63b8ff" d="M1311.9,-593.55C1124.34,-589.13 556.88,-573.86 525.52,-550.25 499.42,-530.59 501.52,-513.43 501.52,-480.75 501.52,-480.75 501.52,-480.75 501.52,-417.88 501.52,-388.26 501.86,-376.44 482.52,-354 457.86,-325.38 430.33,-346.49 405.52,-318 356.47,-261.66 348.19,-165.06 346.8,-135.56"/>
<polygon fill="#63b8ff" stroke="#63b8ff" points="1311.57,-597.06 1321.65,-593.8 1311.73,-590.06 1311.57,-597.06"/>
</g>
<!-- Node19&#45;&gt;Node4 -->
<g id="edge33" class="edge">
<title>Node19&#45;&gt;Node4</title>
<path fill="none" stroke="#63b8ff" d="M1426.22,-289.86C1420.42,-282.1 1414.5,-272.53 1411.52,-262.75 1409.03,-254.57 1410.05,-251.93 1411.52,-243.5 1414.46,-226.74 1421.59,-224.26 1424.52,-207.5 1436.19,-140.85 1466.78,-108.1 1424.52,-55.25 1404.39,-30.07 1311.86,-18.09 1260.73,-13.3"/>
<polygon fill="#63b8ff" stroke="#63b8ff" points="1424.03,-291.72 1433.03,-297.32 1429.48,-287.33 1424.03,-291.72"/>
</g>
<!-- Node19&#45;&gt;Node11 -->
<g id="edge29" class="edge">
<title>Node19&#45;&gt;Node11</title>
<path fill="none" stroke="#63b8ff" d="M1371.03,-298.17C1288.98,-287.47 1155.55,-270.05 1083.49,-260.65"/>
<polygon fill="#63b8ff" stroke="#63b8ff" points="1370.39,-301.75 1380.76,-299.57 1371.3,-294.81 1370.39,-301.75"/>
</g>
<!-- Node20 -->
<g id="node20" class="node">
<title>Node20</title>
<g id="a_node20"><a xlink:href="v8-typed-array_8h.html" target="_top" xlink:title=" ">
<polygon fill="white" stroke="#666666" points="1538.52,-262.75 1420.52,-262.75 1420.52,-243.5 1538.52,-243.5 1538.52,-262.75"/>
<text text-anchor="middle" x="1479.52" y="-249.25" font-family="Helvetica,sans-Serif" font-size="10.00">include/v8&#45;typed&#45;array.h</text>
</a>
</g>
</g>
<!-- Node19&#45;&gt;Node20 -->
<g id="edge30" class="edge">
<title>Node19&#45;&gt;Node20</title>
<path fill="none" stroke="#63b8ff" d="M1454.12,-289.72C1460.48,-280.81 1467.93,-270.37 1473.11,-263.11"/>
<polygon fill="#63b8ff" stroke="#63b8ff" points="1450.76,-287.41 1447.8,-297.58 1456.46,-291.47 1450.76,-287.41"/>
</g>
<!-- Node20&#45;&gt;Node4 -->
<g id="edge32" class="edge">
<title>Node20&#45;&gt;Node4</title>
<path fill="none" stroke="#63b8ff" d="M1484.68,-232.57C1493.72,-193.43 1507.46,-104.96 1462.52,-55.25 1436.03,-25.94 1319.44,-15.57 1260.66,-12.16"/>
<polygon fill="#63b8ff" stroke="#63b8ff" points="1481.05,-231.69 1482.05,-242.23 1487.84,-233.37 1481.05,-231.69"/>
</g>
<!-- Node21 -->
<g id="node21" class="node">
<title>Node21</title>
<g id="a_node21"><a xlink:href="v8-fast-api-calls_8h.html" target="_top" xlink:title=" ">
<polygon fill="white" stroke="#666666" points="1890.27,-207.5 1794.77,-207.5 1794.77,-177 1890.27,-177 1890.27,-207.5"/>
<text text-anchor="start" x="1802.77" y="-194" font-family="Helvetica,sans-Serif" font-size="10.00">include/v8&#45;fast&#45;api</text>
<text text-anchor="middle" x="1842.52" y="-182.75" font-family="Helvetica,sans-Serif" font-size="10.00">&#45;calls.h</text>
</a>
</g>
</g>
<!-- Node20&#45;&gt;Node21 -->
<g id="edge31" class="edge">
<title>Node20&#45;&gt;Node21</title>
<path fill="none" stroke="#63b8ff" d="M1546.18,-241.31C1618.04,-229.66 1730.66,-211.39 1794.37,-201.06"/>
<polygon fill="#63b8ff" stroke="#63b8ff" points="1545.76,-238 1536.45,-243.05 1546.88,-244.91 1545.76,-238"/>
</g>
<!-- Node22&#45;&gt;Node4 -->
<g id="edge35" class="edge">
<title>Node22&#45;&gt;Node4</title>
<path fill="none" stroke="#63b8ff" d="M1541.46,-54.64C1459.8,-43.23 1323.89,-24.23 1260.73,-15.41"/>
<polygon fill="#63b8ff" stroke="#63b8ff" points="1540.73,-58.21 1551.12,-56.13 1541.7,-51.28 1540.73,-58.21"/>
</g>
<!-- Node23&#45;&gt;Node4 -->
<g id="edge37" class="edge">
<title>Node23&#45;&gt;Node4</title>
<path fill="none" stroke="#63b8ff" d="M1614.7,-520.16C1632.95,-434.09 1703.33,-90.41 1671.52,-55.25 1644.08,-24.91 1360.23,-14.28 1260.74,-11.47"/>
<polygon fill="#63b8ff" stroke="#63b8ff" points="1611.11,-519.22 1612.45,-529.73 1617.96,-520.68 1611.11,-519.22"/>
</g>
<!-- Node24&#45;&gt;Node4 -->
<g id="edge43" class="edge">
<title>Node24&#45;&gt;Node4</title>
<path fill="none" stroke="#63b8ff" d="M938.48,-460.73C929.17,-446.18 915.09,-425.51 900.52,-409.25 852.28,-355.37 630.12,-235.59 672.52,-177 735.59,-89.84 1081.13,-32.04 1192.16,-15.5"/>
<polygon fill="#63b8ff" stroke="#63b8ff" points="935.82,-462.09 944.1,-468.7 941.75,-458.37 935.82,-462.09"/>
</g>
<!-- Node24&#45;&gt;Node11 -->
<g id="edge39" class="edge">
<title>Node24&#45;&gt;Node11</title>
<path fill="none" stroke="#63b8ff" d="M956.74,-459.46C974.11,-413.01 1017.75,-296.3 1030.18,-263.08"/>
<polygon fill="#63b8ff" stroke="#63b8ff" points="953.14,-458.07 952.92,-468.67 959.7,-460.53 953.14,-458.07"/>
</g>
<!-- Node24&#45;&gt;Node25 -->
<g id="edge40" class="edge">
<title>Node24&#45;&gt;Node25</title>
<path fill="none" stroke="#63b8ff" d="M922.85,-464.73C901.72,-453.62 872.85,-438.44 854.69,-428.9"/>
<polygon fill="#63b8ff" stroke="#63b8ff" points="921.03,-468.25 931.51,-469.81 924.29,-462.06 921.03,-468.25"/>
</g>
<!-- Node25&#45;&gt;Node4 -->
<g id="edge42" class="edge">
<title>Node25&#45;&gt;Node4</title>
<path fill="none" stroke="#63b8ff" d="M814.51,-402.67C770.45,-372 675.36,-297.87 639.52,-207.5 619.04,-155.86 655.47,-75.48 681.52,-55.25 721.83,-23.96 1078.84,-13.75 1192.16,-11.28"/>
<polygon fill="#63b8ff" stroke="#63b8ff" points="812.35,-406.12 822.58,-408.87 816.3,-400.34 812.35,-406.12"/>
</g>
<!-- Node25&#45;&gt;Node6 -->
<g id="edge41" class="edge">
<title>Node25&#45;&gt;Node6</title>
<path fill="none" stroke="#63b8ff" d="M799.45,-405.44C769.7,-395.72 729.05,-382.44 702.31,-373.7"/>
<polygon fill="#63b8ff" stroke="#63b8ff" points="798.28,-409.06 808.87,-408.84 800.45,-402.41 798.28,-409.06"/>
</g>
<!-- Node26&#45;&gt;Node4 -->
<g id="edge46" class="edge">
<title>Node26&#45;&gt;Node4</title>
<path fill="none" stroke="#63b8ff" d="M1702.24,-454.77C1713.82,-432.24 1728.52,-397.21 1728.52,-364.62 1728.52,-364.62 1728.52,-364.62 1728.52,-124.75 1728.52,-92.07 1730.22,-75.43 1704.52,-55.25 1669.74,-27.94 1364.05,-15.24 1260.59,-11.7"/>
<polygon fill="#63b8ff" stroke="#63b8ff" points="1698.83,-452.72 1697.2,-463.19 1705,-456.02 1698.83,-452.72"/>
</g>
<!-- Node27&#45;&gt;Node4 -->
<g id="edge56" class="edge">
<title>Node27&#45;&gt;Node4</title>
<path fill="none" stroke="#63b8ff" d="M1320.2,-521.66C1333.83,-498.93 1354.52,-458.12 1354.52,-419.88 1354.52,-419.88 1354.52,-419.88 1354.52,-307.38 1354.52,-249.1 1379.69,-234.2 1368.52,-177 1362.41,-145.69 1357.92,-137.86 1341.52,-110.5 1325.1,-83.09 1319.43,-76.45 1295.52,-55.25 1279.3,-40.87 1258.01,-27.83 1243.4,-19.61"/>
<polygon fill="#63b8ff" stroke="#63b8ff" points="1316.85,-519.42 1314.54,-529.76 1322.79,-523.12 1316.85,-519.42"/>
</g>
<!-- Node28 -->
<g id="node28" class="node">
<title>Node28</title>
<g id="a_node28"><a xlink:href="v8-callbacks_8h.html" target="_top" xlink:title=" ">
<polygon fill="white" stroke="#666666" points="1173.52,-489.38 1061.52,-489.38 1061.52,-470.12 1173.52,-470.12 1173.52,-489.38"/>
<text text-anchor="middle" x="1117.52" y="-475.88" font-family="Helvetica,sans-Serif" font-size="10.00">include/v8&#45;callbacks.h</text>
</a>
</g>
</g>
<!-- Node27&#45;&gt;Node28 -->
<g id="edge48" class="edge">
<title>Node27&#45;&gt;Node28</title>
<path fill="none" stroke="#63b8ff" d="M1268.87,-527.4C1232.56,-516.21 1179.66,-499.9 1146.98,-489.83"/>
<polygon fill="#63b8ff" stroke="#63b8ff" points="1267.51,-530.95 1278.1,-530.55 1269.57,-524.26 1267.51,-530.95"/>
</g>
<!-- Node29 -->
<g id="node29" class="node">
<title>Node29</title>
<g id="a_node29"><a xlink:href="v8-statistics_8h.html" target="_top" xlink:title=" ">
<polygon fill="white" stroke="#666666" points="1326.77,-318 1216.27,-318 1216.27,-298.75 1326.77,-298.75 1326.77,-318"/>
<text text-anchor="middle" x="1271.52" y="-304.5" font-family="Helvetica,sans-Serif" font-size="10.00">include/v8&#45;statistics.h</text>
</a>
</g>
</g>
<!-- Node27&#45;&gt;Node29 -->
<g id="edge53" class="edge">
<title>Node27&#45;&gt;Node29</title>
<path fill="none" stroke="#63b8ff" d="M1305.35,-519.87C1297.66,-472.04 1278.3,-351.52 1272.92,-318.09"/>
<polygon fill="#63b8ff" stroke="#63b8ff" points="1302.03,-520.28 1307.07,-529.6 1308.94,-519.17 1302.03,-520.28"/>
</g>
<!-- Node28&#45;&gt;Node5 -->
<g id="edge51" class="edge">
<title>Node28&#45;&gt;Node5</title>
<path fill="none" stroke="#63b8ff" d="M1050.39,-468.83C1038.46,-467.25 1026.14,-465.73 1014.52,-464.5 909.05,-453.32 594.69,-432.05 466.19,-423.53"/>
<polygon fill="#63b8ff" stroke="#63b8ff" points="1049.82,-472.42 1060.2,-470.3 1050.76,-465.49 1049.82,-472.42"/>
</g>
<!-- Node28&#45;&gt;Node9 -->
<g id="edge52" class="edge">
<title>Node28&#45;&gt;Node9</title>
<path fill="none" stroke="#63b8ff" d="M1085.38,-465.73C1043.57,-449.43 967.9,-422.1 900.52,-409.25 665.99,-364.51 601.84,-399.45 364.52,-373.25 361.78,-372.95 358.98,-372.61 356.14,-372.24"/>
<polygon fill="#63b8ff" stroke="#63b8ff" points="1083.91,-469.31 1094.5,-469.72 1086.48,-462.79 1083.91,-469.31"/>
</g>
<!-- Node28&#45;&gt;Node11 -->
<g id="edge50" class="edge">
<title>Node28&#45;&gt;Node11</title>
<path fill="none" stroke="#63b8ff" d="M1110.31,-459.46C1092.94,-413.01 1049.29,-296.3 1036.87,-263.08"/>
<polygon fill="#63b8ff" stroke="#63b8ff" points="1107.34,-460.53 1114.13,-468.67 1113.9,-458.07 1107.34,-460.53"/>
</g>
<!-- Node28&#45;&gt;Node13 -->
<g id="edge49" class="edge">
<title>Node28&#45;&gt;Node13</title>
<path fill="none" stroke="#63b8ff" d="M1128.9,-460.31C1141.34,-438.36 1159.52,-400.19 1159.52,-364.62 1159.52,-364.62 1159.52,-364.62 1159.52,-307.38 1159.52,-253.39 1223.93,-217.94 1259.91,-202.35"/>
<polygon fill="#63b8ff" stroke="#63b8ff" points="1125.43,-458.31 1123.36,-468.7 1131.46,-461.87 1125.43,-458.31"/>
</g>
<!-- Node29&#45;&gt;Node4 -->
<g id="edge55" class="edge">
<title>Node29&#45;&gt;Node4</title>
<path fill="none" stroke="#63b8ff" d="M1292.82,-291.91C1321.96,-268.7 1368.97,-222.68 1353.52,-177 1329.78,-106.77 1263.23,-42.82 1237.18,-19.74"/>
<polygon fill="#63b8ff" stroke="#63b8ff" points="1291.23,-289.49 1285.44,-298.36 1295.5,-295.04 1291.23,-289.49"/>
</g>
<!-- Node29&#45;&gt;Node11 -->
<g id="edge54" class="edge">
<title>Node29&#45;&gt;Node11</title>
<path fill="none" stroke="#63b8ff" d="M1220.17,-295.88C1176.39,-286.09 1114.33,-272.2 1074,-263.18"/>
<polygon fill="#63b8ff" stroke="#63b8ff" points="1219.36,-299.51 1229.88,-298.28 1220.88,-292.68 1219.36,-299.51"/>
</g>
<!-- Node30&#45;&gt;Node4 -->
<g id="edge59" class="edge">
<title>Node30&#45;&gt;Node4</title>
<path fill="none" stroke="#63b8ff" d="M1762.85,-519.91C1764.33,-496.19 1766.52,-455.14 1766.52,-419.88 1766.52,-419.88 1766.52,-419.88 1766.52,-124.75 1766.52,-89.11 1756.55,-74.45 1726.52,-55.25 1687.42,-30.25 1367.25,-15.96 1260.79,-11.86"/>
<polygon fill="#63b8ff" stroke="#63b8ff" points="1759.31,-519.41 1762.16,-529.62 1766.3,-519.86 1759.31,-519.41"/>
</g>
<!-- Node31&#45;&gt;Node4 -->
<g id="edge62" class="edge">
<title>Node31&#45;&gt;Node4</title>
<path fill="none" stroke="#63b8ff" d="M357.07,-106.65C367.89,-90 386.39,-66.27 409.52,-55.25 480.94,-21.23 1046.63,-12.63 1192.37,-10.97"/>
<polygon fill="#63b8ff" stroke="#63b8ff" points="353.62,-104.58 351.36,-114.93 359.58,-108.25 353.62,-104.58"/>
</g>
<!-- Node32&#45;&gt;Node4 -->
<g id="edge66" class="edge">
<title>Node32&#45;&gt;Node4</title>
<path fill="none" stroke="#63b8ff" d="M176.07,-55.51C177.23,-55.42 178.38,-55.33 179.52,-55.25 577.33,-25.88 1061.71,-14.09 1192.58,-11.3"/>
<polygon fill="#63b8ff" stroke="#63b8ff" points="176.18,-52.07 166.51,-56.4 176.76,-59.05 176.18,-52.07"/>
</g>
<!-- Node33&#45;&gt;Node4 -->
<g id="edge85" class="edge">
<title>Node33&#45;&gt;Node4</title>
<path fill="none" stroke="#63b8ff" d="M1923.86,-697.54C1952.57,-630.08 2045.52,-395.93 2045.52,-193.25 2045.52,-193.25 2045.52,-193.25 2045.52,-124.75 2045.52,-73.51 2001.59,-73.02 1953.52,-55.25 1824.09,-7.4 1386.95,-8.7 1260.84,-10.13"/>
<polygon fill="#63b8ff" stroke="#63b8ff" points="1920.3,-695.97 1919.56,-706.54 1926.73,-698.74 1920.3,-695.97"/>
</g>
<!-- Node33&#45;&gt;Node18 -->
<g id="edge72" class="edge">
<title>Node33&#45;&gt;Node18</title>
<path fill="none" stroke="#63b8ff" d="M1863.6,-705.2C1755.99,-681.51 1510.54,-627.48 1412.79,-605.96"/>
<polygon fill="#63b8ff" stroke="#63b8ff" points="1862.67,-708.79 1873.19,-707.53 1864.17,-701.96 1862.67,-708.79"/>
</g>
<!-- Node33&#45;&gt;Node21 -->
<g id="edge71" class="edge">
<title>Node33&#45;&gt;Node21</title>
<path fill="none" stroke="#63b8ff" d="M1915.52,-696.9C1915.52,-673.17 1915.52,-632.11 1915.52,-596.88 1915.52,-596.88 1915.52,-596.88 1915.52,-362.62 1915.52,-300.83 1874.03,-235.94 1853.61,-207.75"/>
<polygon fill="#63b8ff" stroke="#63b8ff" points="1912.02,-696.61 1915.52,-706.61 1919.02,-696.61 1912.02,-696.61"/>
</g>
<!-- Node34 -->
<g id="node34" class="node">
<title>Node34</title>
<g id="a_node34"><a xlink:href="v8-cpp-heap-external_8h.html" target="_top" xlink:title=" ">
<polygon fill="white" stroke="#666666" points="2185.02,-672 2082.02,-672 2082.02,-641.5 2185.02,-641.5 2185.02,-672"/>
<text text-anchor="start" x="2090.02" y="-658.5" font-family="Helvetica,sans-Serif" font-size="10.00">include/v8&#45;cpp&#45;heap</text>
<text text-anchor="middle" x="2133.52" y="-647.25" font-family="Helvetica,sans-Serif" font-size="10.00">&#45;external.h</text>
</a>
</g>
</g>
<!-- Node33&#45;&gt;Node34 -->
<g id="edge68" class="edge">
<title>Node33&#45;&gt;Node34</title>
<path fill="none" stroke="#63b8ff" d="M1959.57,-704.73C1994.85,-695.2 2044.42,-681.81 2081.63,-671.77"/>
<polygon fill="#63b8ff" stroke="#63b8ff" points="1958.85,-701.57 1950.11,-707.55 1960.67,-708.33 1958.85,-701.57"/>
</g>
<!-- Node35 -->
<g id="node35" class="node">
<title>Node35</title>
<g id="a_node35"><a xlink:href="v8-external_8h.html" target="_top" xlink:title=" ">
<polygon fill="white" stroke="#666666" points="2147.77,-605.5 2043.27,-605.5 2043.27,-586.25 2147.77,-586.25 2147.77,-605.5"/>
<text text-anchor="middle" x="2095.52" y="-592" font-family="Helvetica,sans-Serif" font-size="10.00">include/v8&#45;external.h</text>
</a>
</g>
</g>
<!-- Node33&#45;&gt;Node35 -->
<g id="edge69" class="edge">
<title>Node33&#45;&gt;Node35</title>
<path fill="none" stroke="#63b8ff" d="M1961.2,-704.29C1983.09,-697.03 2008.96,-686.42 2029.52,-672 2056.25,-653.26 2079.31,-621.53 2089.68,-605.99"/>
<polygon fill="#63b8ff" stroke="#63b8ff" points="1960.28,-701.22 1951.81,-707.58 1962.4,-707.89 1960.28,-701.22"/>
</g>
<!-- Node36 -->
<g id="node36" class="node">
<title>Node36</title>
<g id="a_node36"><a xlink:href="v8-primitive_8h.html" target="_top" xlink:title=" ">
<polygon fill="white" stroke="#666666" points="1425.27,-666.38 1317.77,-666.38 1317.77,-647.12 1425.27,-647.12 1425.27,-666.38"/>
<text text-anchor="middle" x="1371.52" y="-652.88" font-family="Helvetica,sans-Serif" font-size="10.00">include/v8&#45;primitive.h</text>
</a>
</g>
</g>
<!-- Node33&#45;&gt;Node36 -->
<g id="edge73" class="edge">
<title>Node33&#45;&gt;Node36</title>
<path fill="none" stroke="#63b8ff" d="M1857.4,-710.33C1751.44,-698.87 1528.34,-674.72 1425.51,-663.59"/>
<polygon fill="#63b8ff" stroke="#63b8ff" points="1856.88,-713.91 1867.2,-711.5 1857.63,-706.95 1856.88,-713.91"/>
</g>
<!-- Node35&#45;&gt;Node4 -->
<g id="edge70" class="edge">
<title>Node35&#45;&gt;Node4</title>
<path fill="none" stroke="#63b8ff" d="M2092.74,-575.15C2089.78,-552.44 2085.52,-513.98 2085.52,-480.75 2085.52,-480.75 2085.52,-480.75 2085.52,-124.75 2085.52,-91.77 2086.11,-74.76 2059.52,-55.25 1994.36,-7.42 1409.35,-9.08 1260.73,-10.28"/>
<polygon fill="#63b8ff" stroke="#63b8ff" points="2089.4,-575.58 2094.22,-585.02 2096.34,-574.64 2089.4,-575.58"/>
</g>
<!-- Node36&#45;&gt;Node4 -->
<g id="edge84" class="edge">
<title>Node36&#45;&gt;Node4</title>
<path fill="none" stroke="#63b8ff" d="M1436.52,-653.39C1565.09,-646.95 1839.52,-623.6 1839.52,-541.62 1839.52,-541.62 1839.52,-541.62 1839.52,-307.38 1839.52,-243.59 1926.67,-234.72 1899.52,-177 1863.42,-100.23 1831.04,-87.36 1752.52,-55.25 1662.82,-18.57 1362.31,-12.04 1260.55,-10.88"/>
<polygon fill="#63b8ff" stroke="#63b8ff" points="1436.49,-649.94 1426.67,-653.91 1436.82,-656.93 1436.49,-649.94"/>
</g>
<!-- Node36&#45;&gt;Node5 -->
<g id="edge82" class="edge">
<title>Node36&#45;&gt;Node5</title>
<path fill="none" stroke="#63b8ff" d="M1306.72,-653.19C1169.02,-647.31 851.36,-631.35 746.52,-605.5 625.01,-575.54 591.64,-564.44 487.52,-495 458.31,-475.52 430.48,-444.14 417.75,-428.84"/>
<polygon fill="#63b8ff" stroke="#63b8ff" points="1306.36,-656.72 1316.5,-653.64 1306.66,-649.72 1306.36,-656.72"/>
</g>
<!-- Node36&#45;&gt;Node11 -->
<g id="edge81" class="edge">
<title>Node36&#45;&gt;Node11</title>
<path fill="none" stroke="#63b8ff" d="M1319.52,-643.94C1248.3,-625.01 1121.44,-580.94 1052.52,-495 1030.98,-468.13 1033.52,-454.32 1033.52,-419.88 1033.52,-419.88 1033.52,-419.88 1033.52,-362.62 1033.52,-325.7 1033.52,-281.72 1033.52,-263.13"/>
<polygon fill="#63b8ff" stroke="#63b8ff" points="1318.47,-647.55 1329.03,-646.66 1320.22,-640.77 1318.47,-647.55"/>
</g>
<!-- Node36&#45;&gt;Node18 -->
<g id="edge83" class="edge">
<title>Node36&#45;&gt;Node18</title>
<path fill="none" stroke="#63b8ff" d="M1371.52,-635.99C1371.52,-625.81 1371.52,-613.88 1371.52,-605.9"/>
<polygon fill="#63b8ff" stroke="#63b8ff" points="1368.02,-635.81 1371.52,-645.81 1375.02,-635.81 1368.02,-635.81"/>
</g>
<!-- Node37 -->
<g id="node37" class="node">
<title>Node37</title>
<g id="a_node37"><a xlink:href="v8-extension_8h.html" target="_top" xlink:title=" ">
<polygon fill="white" stroke="#666666" points="2017.52,-262.75 1905.52,-262.75 1905.52,-243.5 2017.52,-243.5 2017.52,-262.75"/>
<text text-anchor="middle" x="1961.52" y="-249.25" font-family="Helvetica,sans-Serif" font-size="10.00">include/v8&#45;extension.h</text>
</a>
</g>
</g>
<!-- Node36&#45;&gt;Node37 -->
<g id="edge74" class="edge">
<title>Node36&#45;&gt;Node37</title>
<path fill="none" stroke="#63b8ff" d="M1436.23,-652.76C1560.05,-646.5 1821.16,-630.49 1853.52,-605.5 1877.52,-586.96 1877.52,-571.95 1877.52,-541.62 1877.52,-541.62 1877.52,-541.62 1877.52,-362.62 1877.52,-317.36 1923.79,-279.52 1947.65,-263.02"/>
<polygon fill="#63b8ff" stroke="#63b8ff" points="1436.21,-649.31 1426.4,-653.3 1436.56,-656.3 1436.21,-649.31"/>
</g>
<!-- Node38 -->
<g id="node38" class="node">
<title>Node38</title>
<g id="a_node38"><a xlink:href="v8-function-callback_8h.html" target="_top" xlink:title=" ">
<polygon fill="white" stroke="#666666" points="728.4,-495 630.65,-495 630.65,-464.5 728.4,-464.5 728.4,-495"/>
<text text-anchor="start" x="638.65" y="-481.5" font-family="Helvetica,sans-Serif" font-size="10.00">include/v8&#45;function</text>
<text text-anchor="middle" x="679.52" y="-470.25" font-family="Helvetica,sans-Serif" font-size="10.00">&#45;callback.h</text>
</a>
</g>
</g>
<!-- Node36&#45;&gt;Node38 -->
<g id="edge76" class="edge">
<title>Node36&#45;&gt;Node38</title>
<path fill="none" stroke="#63b8ff" d="M1306.39,-653.22C1161.42,-647.16 821.25,-630.45 775.52,-605.5 729.22,-580.24 698.17,-522.16 685.69,-495.11"/>
<polygon fill="#63b8ff" stroke="#63b8ff" points="1306.18,-656.75 1316.32,-653.67 1306.47,-649.76 1306.18,-656.75"/>
</g>
<!-- Node37&#45;&gt;Node4 -->
<g id="edge75" class="edge">
<title>Node37&#45;&gt;Node4</title>
<path fill="none" stroke="#63b8ff" d="M1965.63,-232.71C1972.82,-192.76 1982.52,-101.25 1932.52,-55.25 1882.7,-9.41 1394.93,-9.43 1260.61,-10.32"/>
<polygon fill="#63b8ff" stroke="#63b8ff" points="1962.03,-231.86 1963.55,-242.34 1968.9,-233.2 1962.03,-231.86"/>
</g>
<!-- Node38&#45;&gt;Node6 -->
<g id="edge77" class="edge">
<title>Node38&#45;&gt;Node6</title>
<path fill="none" stroke="#63b8ff" d="M678.41,-453.34C677.3,-428.09 675.67,-390.74 674.92,-373.7"/>
<polygon fill="#63b8ff" stroke="#63b8ff" points="674.95,-453.46 678.89,-463.3 681.95,-453.15 674.95,-453.46"/>
</g>
<!-- Node38&#45;&gt;Node11 -->
<g id="edge78" class="edge">
<title>Node38&#45;&gt;Node11</title>
<path fill="none" stroke="#63b8ff" d="M707.04,-457.58C725.76,-443.44 751.25,-424.68 774.52,-409.25 863.85,-350.01 975.74,-286.42 1017.14,-263.24"/>
<polygon fill="#63b8ff" stroke="#63b8ff" points="705.29,-455.28 699.44,-464.11 709.52,-460.85 705.29,-455.28"/>
</g>
<!-- Node38&#45;&gt;Node25 -->
<g id="edge79" class="edge">
<title>Node38&#45;&gt;Node25</title>
<path fill="none" stroke="#63b8ff" d="M729.03,-460.3C757.09,-449.85 790.95,-437.23 813.29,-428.9"/>
<polygon fill="#63b8ff" stroke="#63b8ff" points="728.13,-457.27 719.99,-464.05 730.58,-463.83 728.13,-457.27"/>
</g>
<!-- Node39 -->
<g id="node39" class="node">
<title>Node39</title>
<g id="a_node39"><a xlink:href="v8-util_8h.html" target="_top" xlink:title=" ">
<polygon fill="white" stroke="#666666" points="651.27,-428.5 567.77,-428.5 567.77,-409.25 651.27,-409.25 651.27,-428.5"/>
<text text-anchor="middle" x="609.52" y="-415" font-family="Helvetica,sans-Serif" font-size="10.00">include/v8&#45;util.h</text>
</a>
</g>
</g>
<!-- Node38&#45;&gt;Node39 -->
<g id="edge80" class="edge">
<title>Node38&#45;&gt;Node39</title>
<path fill="none" stroke="#63b8ff" d="M654.1,-457.37C642.47,-447.58 629.3,-436.51 620.31,-428.95"/>
<polygon fill="#63b8ff" stroke="#63b8ff" points="651.31,-460.44 661.22,-464.2 655.82,-455.08 651.31,-460.44"/>
</g>
</g>
</svg>
