<?xml version="1.0" encoding="UTF-8" standalone="no"?>
<!DOCTYPE svg PUBLIC "-//W3C//DTD SVG 1.1//EN"
 "http://www.w3.org/Graphics/SVG/1.1/DTD/svg11.dtd">
<!-- Generated by graphviz version 8.0.5 (20230430.1635)
 -->
<!-- Title: include/v8&#45;maybe.h Pages: 1 -->
<svg width="877pt" height="326pt"
 viewBox="0.00 0.00 877.33 326.00" xmlns="http://www.w3.org/2000/svg" xmlns:xlink="http://www.w3.org/1999/xlink">
<g id="graph0" class="graph" transform="scale(1 1) rotate(0) translate(4 322)">
<title>include/v8&#45;maybe.h</title>
<!-- Node1 -->
<g id="node1" class="node">
<title>Node1</title>
<g id="a_node1"><a xlink:title=" ">
<polygon fill="#999999" stroke="#666666" points="354.88,-318 255.62,-318 255.62,-298.75 354.88,-298.75 354.88,-318"/>
<text text-anchor="middle" x="305.25" y="-304.5" font-family="Helvetica,sans-Serif" font-size="10.00">include/v8&#45;maybe.h</text>
</a>
</g>
</g>
<!-- Node2 -->
<g id="node2" class="node">
<title>Node2</title>
<g id="a_node2"><a xlink:title=" ">
<polygon fill="#e0e0e0" stroke="#999999" points="319.75,-135.38 258.75,-135.38 258.75,-116.12 319.75,-116.12 319.75,-135.38"/>
<text text-anchor="middle" x="289.25" y="-121.88" font-family="Helvetica,sans-Serif" font-size="10.00">type_traits</text>
</a>
</g>
</g>
<!-- Node1&#45;&gt;Node2 -->
<g id="edge1" class="edge">
<title>Node1&#45;&gt;Node2</title>
<path fill="none" stroke="#63b8ff" d="M304.48,-298.66C302.04,-271.19 294.49,-185.9 291.02,-146.76"/>
<polygon fill="#63b8ff" stroke="#63b8ff" points="294.42,-146.45 290.05,-136.8 287.45,-147.07 294.42,-146.45"/>
</g>
<!-- Node3 -->
<g id="node3" class="node">
<title>Node3</title>
<g id="a_node3"><a xlink:title=" ">
<polygon fill="#e0e0e0" stroke="#999999" points="38.5,-135.38 0,-135.38 0,-116.12 38.5,-116.12 38.5,-135.38"/>
<text text-anchor="middle" x="19.25" y="-121.88" font-family="Helvetica,sans-Serif" font-size="10.00">utility</text>
</a>
</g>
</g>
<!-- Node1&#45;&gt;Node3 -->
<g id="edge2" class="edge">
<title>Node1&#45;&gt;Node3</title>
<path fill="none" stroke="#63b8ff" d="M255.27,-298.86C220.16,-291.82 172.62,-280.13 133.25,-262.75 83.74,-240.89 61,-241.46 31.25,-196.25 21.57,-181.55 18.98,-161.44 18.57,-146.64"/>
<polygon fill="#63b8ff" stroke="#63b8ff" points="22.07,-146.7 18.62,-136.68 15.07,-146.67 22.07,-146.7"/>
</g>
<!-- Node4 -->
<g id="node4" class="node">
<title>Node4</title>
<g id="a_node4"><a xlink:href="conditional-stack-allocated_8h.html" target="_top" xlink:title=" ">
<polygon fill="white" stroke="#666666" points="268.38,-262.75 142.12,-262.75 142.12,-232.25 268.38,-232.25 268.38,-262.75"/>
<text text-anchor="start" x="150.12" y="-249.25" font-family="Helvetica,sans-Serif" font-size="10.00">cppgc/internal/conditional</text>
<text text-anchor="middle" x="205.25" y="-238" font-family="Helvetica,sans-Serif" font-size="10.00">&#45;stack&#45;allocated.h</text>
</a>
</g>
</g>
<!-- Node1&#45;&gt;Node4 -->
<g id="edge3" class="edge">
<title>Node1&#45;&gt;Node4</title>
<path fill="none" stroke="#63b8ff" d="M290.06,-298.43C276.6,-290.51 256.46,-278.65 239.18,-268.47"/>
<polygon fill="#63b8ff" stroke="#63b8ff" points="241.33,-265.09 230.93,-263.03 237.77,-271.12 241.33,-265.09"/>
</g>
<!-- Node8 -->
<g id="node8" class="node">
<title>Node8</title>
<g id="a_node8"><a xlink:href="v8config_8h.html" target="_top" xlink:title=" ">
<polygon fill="white" stroke="#666666" points="495,-74.5 435.5,-74.5 435.5,-55.25 495,-55.25 495,-74.5"/>
<text text-anchor="middle" x="465.25" y="-61" font-family="Helvetica,sans-Serif" font-size="10.00">v8config.h</text>
</a>
</g>
</g>
<!-- Node1&#45;&gt;Node8 -->
<g id="edge25" class="edge">
<title>Node1&#45;&gt;Node8</title>
<path fill="none" stroke="#63b8ff" d="M307.03,-298.54C314.12,-264.2 341.13,-140.02 367.25,-110.5 382.27,-93.53 405.03,-82.62 424.84,-75.85"/>
<polygon fill="#63b8ff" stroke="#63b8ff" points="425.7,-78.93 434.18,-72.58 423.59,-72.26 425.7,-78.93"/>
</g>
<!-- Node11 -->
<g id="node11" class="node">
<title>Node11</title>
<g id="a_node11"><a xlink:href="v8-internal_8h.html" target="_top" xlink:title=" ">
<polygon fill="white" stroke="#666666" points="615.5,-196.25 547,-196.25 547,-177 615.5,-177 615.5,-196.25"/>
<text text-anchor="middle" x="581.25" y="-182.75" font-family="Helvetica,sans-Serif" font-size="10.00">v8&#45;internal.h</text>
</a>
</g>
</g>
<!-- Node1&#45;&gt;Node11 -->
<g id="edge14" class="edge">
<title>Node1&#45;&gt;Node11</title>
<path fill="none" stroke="#63b8ff" d="M325.99,-298.37C374.15,-277.48 493.7,-225.61 550.43,-201"/>
<polygon fill="#63b8ff" stroke="#63b8ff" points="551.48,-203.92 559.26,-196.73 548.7,-197.5 551.48,-203.92"/>
</g>
<!-- Node4&#45;&gt;Node2 -->
<g id="edge4" class="edge">
<title>Node4&#45;&gt;Node2</title>
<path fill="none" stroke="#63b8ff" d="M218.36,-232.02C226.97,-222.23 238.27,-208.84 247.25,-196.25 259.24,-179.44 271.26,-159.12 279.35,-144.81"/>
<polygon fill="#63b8ff" stroke="#63b8ff" points="282.68,-147.02 284.49,-136.58 276.56,-143.61 282.68,-147.02"/>
</g>
<!-- Node5 -->
<g id="node5" class="node">
<title>Node5</title>
<g id="a_node5"><a xlink:href="macros_8h.html" target="_top" xlink:title=" ">
<polygon fill="white" stroke="#666666" points="238.75,-196.25 153.75,-196.25 153.75,-177 238.75,-177 238.75,-196.25"/>
<text text-anchor="middle" x="196.25" y="-182.75" font-family="Helvetica,sans-Serif" font-size="10.00">cppgc/macros.h</text>
</a>
</g>
</g>
<!-- Node4&#45;&gt;Node5 -->
<g id="edge5" class="edge">
<title>Node4&#45;&gt;Node5</title>
<path fill="none" stroke="#63b8ff" d="M203.03,-231.95C201.89,-224.53 200.5,-215.41 199.27,-207.38"/>
<polygon fill="#63b8ff" stroke="#63b8ff" points="202.61,-207.06 197.64,-197.7 195.69,-208.12 202.61,-207.06"/>
</g>
<!-- Node10 -->
<g id="node10" class="node">
<title>Node10</title>
<g id="a_node10"><a xlink:href="type-traits_8h.html" target="_top" xlink:title=" ">
<polygon fill="white" stroke="#666666" points="136,-196.25 40.5,-196.25 40.5,-177 136,-177 136,-196.25"/>
<text text-anchor="middle" x="88.25" y="-182.75" font-family="Helvetica,sans-Serif" font-size="10.00">cppgc/type&#45;traits.h</text>
</a>
</g>
</g>
<!-- Node4&#45;&gt;Node10 -->
<g id="edge10" class="edge">
<title>Node4&#45;&gt;Node10</title>
<path fill="none" stroke="#63b8ff" d="M176.03,-231.8C157.61,-222.53 133.98,-210.63 115.87,-201.52"/>
<polygon fill="#63b8ff" stroke="#63b8ff" points="117.7,-198.02 107.19,-196.65 114.55,-204.28 117.7,-198.02"/>
</g>
<!-- Node6 -->
<g id="node6" class="node">
<title>Node6</title>
<g id="a_node6"><a xlink:title=" ">
<polygon fill="#e0e0e0" stroke="#999999" points="106.38,-135.38 58.12,-135.38 58.12,-116.12 106.38,-116.12 106.38,-135.38"/>
<text text-anchor="middle" x="82.25" y="-121.88" font-family="Helvetica,sans-Serif" font-size="10.00">cstddef</text>
</a>
</g>
</g>
<!-- Node5&#45;&gt;Node6 -->
<g id="edge6" class="edge">
<title>Node5&#45;&gt;Node6</title>
<path fill="none" stroke="#63b8ff" d="M178.94,-176.68C160.44,-167.13 130.87,-151.86 109.3,-140.72"/>
<polygon fill="#63b8ff" stroke="#63b8ff" points="111.22,-137.25 100.73,-135.78 108.01,-143.47 111.22,-137.25"/>
</g>
<!-- Node7 -->
<g id="node7" class="node">
<title>Node7</title>
<g id="a_node7"><a xlink:href="compiler-specific_8h.html" target="_top" xlink:title=" ">
<polygon fill="white" stroke="#666666" points="240.5,-141 124,-141 124,-110.5 240.5,-110.5 240.5,-141"/>
<text text-anchor="start" x="132" y="-127.5" font-family="Helvetica,sans-Serif" font-size="10.00">cppgc/internal/compiler</text>
<text text-anchor="middle" x="182.25" y="-116.25" font-family="Helvetica,sans-Serif" font-size="10.00">&#45;specific.h</text>
</a>
</g>
</g>
<!-- Node5&#45;&gt;Node7 -->
<g id="edge7" class="edge">
<title>Node5&#45;&gt;Node7</title>
<path fill="none" stroke="#63b8ff" d="M194.12,-176.68C192.55,-170.08 190.33,-160.74 188.24,-151.93"/>
<polygon fill="#63b8ff" stroke="#63b8ff" points="191.42,-151.2 185.71,-142.28 184.61,-152.82 191.42,-151.2"/>
</g>
<!-- Node7&#45;&gt;Node8 -->
<g id="edge8" class="edge">
<title>Node7&#45;&gt;Node8</title>
<path fill="none" stroke="#63b8ff" d="M240.71,-112.3C243.6,-111.69 246.46,-111.09 249.25,-110.5 310.27,-97.71 381.05,-83.13 424.49,-74.22"/>
<polygon fill="#63b8ff" stroke="#63b8ff" points="425.09,-77.47 434.19,-72.03 423.69,-70.61 425.09,-77.47"/>
</g>
<!-- Node9 -->
<g id="node9" class="node">
<title>Node9</title>
<g id="a_node9"><a xlink:title=" ">
<polygon fill="#e0e0e0" stroke="#999999" points="696.5,-19.25 646,-19.25 646,0 696.5,0 696.5,-19.25"/>
<text text-anchor="middle" x="671.25" y="-5.75" font-family="Helvetica,sans-Serif" font-size="10.00">memory</text>
</a>
</g>
</g>
<!-- Node8&#45;&gt;Node9 -->
<g id="edge9" class="edge">
<title>Node8&#45;&gt;Node9</title>
<path fill="none" stroke="#63b8ff" d="M495.2,-56.13C532.33,-46.53 595.55,-30.19 635.27,-19.93"/>
<polygon fill="#63b8ff" stroke="#63b8ff" points="636,-23.09 644.81,-17.2 634.25,-16.32 636,-23.09"/>
</g>
<!-- Node10&#45;&gt;Node2 -->
<g id="edge12" class="edge">
<title>Node10&#45;&gt;Node2</title>
<path fill="none" stroke="#63b8ff" d="M123.96,-176.52C156.73,-167.97 206.52,-154.51 249.25,-141 250.99,-140.45 252.77,-139.87 254.56,-139.28"/>
<polygon fill="#63b8ff" stroke="#63b8ff" points="255.48,-142.32 263.81,-135.77 253.21,-135.7 255.48,-142.32"/>
</g>
<!-- Node10&#45;&gt;Node3 -->
<g id="edge13" class="edge">
<title>Node10&#45;&gt;Node3</title>
<path fill="none" stroke="#63b8ff" d="M77.77,-176.68C67.23,-167.69 50.76,-153.64 37.97,-142.73"/>
<polygon fill="#63b8ff" stroke="#63b8ff" points="40.71,-139.6 30.83,-135.78 36.16,-144.93 40.71,-139.6"/>
</g>
<!-- Node10&#45;&gt;Node6 -->
<g id="edge11" class="edge">
<title>Node10&#45;&gt;Node6</title>
<path fill="none" stroke="#63b8ff" d="M87.34,-176.68C86.53,-168.73 85.31,-156.81 84.27,-146.62"/>
<polygon fill="#63b8ff" stroke="#63b8ff" points="87.67,-146.37 83.17,-136.78 80.7,-147.08 87.67,-146.37"/>
</g>
<!-- Node11&#45;&gt;Node2 -->
<g id="edge23" class="edge">
<title>Node11&#45;&gt;Node2</title>
<path fill="none" stroke="#63b8ff" d="M546.61,-178.64C492.53,-167.74 388.29,-146.72 330.45,-135.06"/>
<polygon fill="#63b8ff" stroke="#63b8ff" points="331.36,-131.47 320.87,-132.92 329.98,-138.33 331.36,-131.47"/>
</g>
<!-- Node11&#45;&gt;Node8 -->
<g id="edge24" class="edge">
<title>Node11&#45;&gt;Node8</title>
<path fill="none" stroke="#63b8ff" d="M581.36,-176.66C581.09,-161.35 578.42,-129.95 562.25,-110.5 547.88,-93.22 525.38,-82.3 505.66,-75.59"/>
<polygon fill="#63b8ff" stroke="#63b8ff" points="506.95,-72.02 496.36,-72.37 504.86,-78.7 506.95,-72.02"/>
</g>
<!-- Node11&#45;&gt;Node9 -->
<g id="edge21" class="edge">
<title>Node11&#45;&gt;Node9</title>
<path fill="none" stroke="#63b8ff" d="M615.95,-185.38C683.22,-184.1 827.49,-177.11 858.25,-141 908.09,-82.49 774.71,-37.73 707.41,-19.52"/>
<polygon fill="#63b8ff" stroke="#63b8ff" points="708.38,-15.9 697.82,-16.73 706.6,-22.67 708.38,-15.9"/>
</g>
<!-- Node12 -->
<g id="node12" class="node">
<title>Node12</title>
<g id="a_node12"><a xlink:title=" ">
<polygon fill="#e0e0e0" stroke="#999999" points="849.5,-135.38 799,-135.38 799,-116.12 849.5,-116.12 849.5,-135.38"/>
<text text-anchor="middle" x="824.25" y="-121.88" font-family="Helvetica,sans-Serif" font-size="10.00">stddef.h</text>
</a>
</g>
</g>
<!-- Node11&#45;&gt;Node12 -->
<g id="edge15" class="edge">
<title>Node11&#45;&gt;Node12</title>
<path fill="none" stroke="#63b8ff" d="M615.78,-180.28C657.65,-173.35 730.06,-159.86 790.25,-141 791.56,-140.59 792.88,-140.15 794.21,-139.69"/>
<polygon fill="#63b8ff" stroke="#63b8ff" points="795.25,-142.66 803.34,-135.82 792.75,-136.12 795.25,-142.66"/>
</g>
<!-- Node13 -->
<g id="node13" class="node">
<title>Node13</title>
<g id="a_node13"><a xlink:title=" ">
<polygon fill="#e0e0e0" stroke="#999999" points="424,-135.38 376.5,-135.38 376.5,-116.12 424,-116.12 424,-135.38"/>
<text text-anchor="middle" x="400.25" y="-121.88" font-family="Helvetica,sans-Serif" font-size="10.00">stdint.h</text>
</a>
</g>
</g>
<!-- Node11&#45;&gt;Node13 -->
<g id="edge16" class="edge">
<title>Node11&#45;&gt;Node13</title>
<path fill="none" stroke="#63b8ff" d="M547.09,-176.53C516.85,-168.19 471.69,-155.04 433.25,-141 432.33,-140.66 431.39,-140.31 430.45,-139.95"/>
<polygon fill="#63b8ff" stroke="#63b8ff" points="431.93,-136.37 421.35,-135.86 429.3,-142.86 431.93,-136.37"/>
</g>
<!-- Node14 -->
<g id="node14" class="node">
<title>Node14</title>
<g id="a_node14"><a xlink:title=" ">
<polygon fill="#e0e0e0" stroke="#999999" points="490,-135.38 442.5,-135.38 442.5,-116.12 490,-116.12 490,-135.38"/>
<text text-anchor="middle" x="466.25" y="-121.88" font-family="Helvetica,sans-Serif" font-size="10.00">string.h</text>
</a>
</g>
</g>
<!-- Node11&#45;&gt;Node14 -->
<g id="edge17" class="edge">
<title>Node11&#45;&gt;Node14</title>
<path fill="none" stroke="#63b8ff" d="M563.78,-176.68C545.12,-167.13 515.3,-151.86 493.54,-140.72"/>
<polygon fill="#63b8ff" stroke="#63b8ff" points="495.38,-137.22 484.88,-135.78 492.19,-143.45 495.38,-137.22"/>
</g>
<!-- Node15 -->
<g id="node15" class="node">
<title>Node15</title>
<g id="a_node15"><a xlink:title=" ">
<polygon fill="#e0e0e0" stroke="#999999" points="552.88,-135.38 507.62,-135.38 507.62,-116.12 552.88,-116.12 552.88,-135.38"/>
<text text-anchor="middle" x="530.25" y="-121.88" font-family="Helvetica,sans-Serif" font-size="10.00">atomic</text>
</a>
</g>
</g>
<!-- Node11&#45;&gt;Node15 -->
<g id="edge18" class="edge">
<title>Node11&#45;&gt;Node15</title>
<path fill="none" stroke="#63b8ff" d="M573.5,-176.68C566.02,-168.04 554.47,-154.71 545.19,-144"/>
<polygon fill="#63b8ff" stroke="#63b8ff" points="547.26,-142.04 538.07,-136.78 541.97,-146.63 547.26,-142.04"/>
</g>
<!-- Node16 -->
<g id="node16" class="node">
<title>Node16</title>
<g id="a_node16"><a xlink:title=" ">
<polygon fill="#e0e0e0" stroke="#999999" points="655.25,-135.38 609.25,-135.38 609.25,-116.12 655.25,-116.12 655.25,-135.38"/>
<text text-anchor="middle" x="632.25" y="-121.88" font-family="Helvetica,sans-Serif" font-size="10.00">iterator</text>
</a>
</g>
</g>
<!-- Node11&#45;&gt;Node16 -->
<g id="edge19" class="edge">
<title>Node11&#45;&gt;Node16</title>
<path fill="none" stroke="#63b8ff" d="M589,-176.68C596.48,-168.04 608.03,-154.71 617.31,-144"/>
<polygon fill="#63b8ff" stroke="#63b8ff" points="620.53,-146.63 624.43,-136.78 615.24,-142.04 620.53,-146.63"/>
</g>
<!-- Node17 -->
<g id="node17" class="node">
<title>Node17</title>
<g id="a_node17"><a xlink:title=" ">
<polygon fill="#e0e0e0" stroke="#999999" points="712.88,-135.38 673.62,-135.38 673.62,-116.12 712.88,-116.12 712.88,-135.38"/>
<text text-anchor="middle" x="693.25" y="-121.88" font-family="Helvetica,sans-Serif" font-size="10.00">limits</text>
</a>
</g>
</g>
<!-- Node11&#45;&gt;Node17 -->
<g id="edge20" class="edge">
<title>Node11&#45;&gt;Node17</title>
<path fill="none" stroke="#63b8ff" d="M598.26,-176.68C616.35,-167.17 645.22,-152 666.39,-140.87"/>
<polygon fill="#63b8ff" stroke="#63b8ff" points="667.86,-143.53 675.08,-135.78 664.6,-137.33 667.86,-143.53"/>
</g>
<!-- Node18 -->
<g id="node18" class="node">
<title>Node18</title>
<g id="a_node18"><a xlink:title=" ">
<polygon fill="#e0e0e0" stroke="#999999" points="781.12,-135.38 731.38,-135.38 731.38,-116.12 781.12,-116.12 781.12,-135.38"/>
<text text-anchor="middle" x="756.25" y="-121.88" font-family="Helvetica,sans-Serif" font-size="10.00">optional</text>
</a>
</g>
</g>
<!-- Node11&#45;&gt;Node18 -->
<g id="edge22" class="edge">
<title>Node11&#45;&gt;Node18</title>
<path fill="none" stroke="#63b8ff" d="M612.89,-176.5C641.64,-168 685.13,-154.62 722.25,-141 723.33,-140.6 724.43,-140.19 725.53,-139.77"/>
<polygon fill="#63b8ff" stroke="#63b8ff" points="726.52,-142.75 734.51,-135.79 723.93,-136.24 726.52,-142.75"/>
</g>
</g>
</svg>
