<?xml version="1.0" encoding="UTF-8" standalone="no"?>
<!DOCTYPE svg PUBLIC "-//W3C//DTD SVG 1.1//EN"
 "http://www.w3.org/Graphics/SVG/1.1/DTD/svg11.dtd">
<!-- Generated by graphviz version 8.0.5 (20230430.1635)
 -->
<!-- Title: include/v8&#45;platform.h Pages: 1 -->
<svg width="562pt" height="193pt"
 viewBox="0.00 0.00 562.38 193.00" xmlns="http://www.w3.org/2000/svg" xmlns:xlink="http://www.w3.org/1999/xlink">
<g id="graph0" class="graph" transform="scale(1 1) rotate(0) translate(4 189)">
<title>include/v8&#45;platform.h</title>
<!-- Node1 -->
<g id="node1" class="node">
<title>Node1</title>
<g id="a_node1"><a xlink:title=" ">
<polygon fill="#999999" stroke="#666666" points="324.62,-185 218.62,-185 218.62,-165.75 324.62,-165.75 324.62,-185"/>
<text text-anchor="middle" x="271.62" y="-171.5" font-family="Helvetica,sans-Serif" font-size="10.00">include/v8&#45;platform.h</text>
</a>
</g>
</g>
<!-- Node2 -->
<g id="node2" class="node">
<title>Node2</title>
<g id="a_node2"><a xlink:title=" ">
<polygon fill="#e0e0e0" stroke="#999999" points="45.25,-129.75 0,-129.75 0,-110.5 45.25,-110.5 45.25,-129.75"/>
<text text-anchor="middle" x="22.62" y="-116.25" font-family="Helvetica,sans-Serif" font-size="10.00">math.h</text>
</a>
</g>
</g>
<!-- Node1&#45;&gt;Node2 -->
<g id="edge1" class="edge">
<title>Node1&#45;&gt;Node2</title>
<path fill="none" stroke="#63b8ff" d="M223.18,-165.28C181.4,-157.25 119.24,-144.83 56.19,-130.01"/>
<polygon fill="#63b8ff" stroke="#63b8ff" points="57.19,-126.41 46.65,-127.51 55.58,-133.22 57.19,-126.41"/>
</g>
<!-- Node3 -->
<g id="node3" class="node">
<title>Node3</title>
<g id="a_node3"><a xlink:title=" ">
<polygon fill="#e0e0e0" stroke="#999999" points="113.88,-129.75 63.38,-129.75 63.38,-110.5 113.88,-110.5 113.88,-129.75"/>
<text text-anchor="middle" x="88.62" y="-116.25" font-family="Helvetica,sans-Serif" font-size="10.00">stddef.h</text>
</a>
</g>
</g>
<!-- Node1&#45;&gt;Node3 -->
<g id="edge2" class="edge">
<title>Node1&#45;&gt;Node3</title>
<path fill="none" stroke="#63b8ff" d="M240.58,-165.34C208.47,-156 158.37,-141.42 124.56,-131.58"/>
<polygon fill="#63b8ff" stroke="#63b8ff" points="125.78,-128 115.2,-128.57 123.83,-134.72 125.78,-128"/>
</g>
<!-- Node4 -->
<g id="node4" class="node">
<title>Node4</title>
<g id="a_node4"><a xlink:title=" ">
<polygon fill="#e0e0e0" stroke="#999999" points="179.38,-129.75 131.88,-129.75 131.88,-110.5 179.38,-110.5 179.38,-129.75"/>
<text text-anchor="middle" x="155.62" y="-116.25" font-family="Helvetica,sans-Serif" font-size="10.00">stdint.h</text>
</a>
</g>
</g>
<!-- Node1&#45;&gt;Node4 -->
<g id="edge3" class="edge">
<title>Node1&#45;&gt;Node4</title>
<path fill="none" stroke="#63b8ff" d="M251.95,-165.34C233.7,-156.97 206.29,-144.38 185.37,-134.78"/>
<polygon fill="#63b8ff" stroke="#63b8ff" points="186.95,-131.19 176.4,-130.2 184.03,-137.56 186.95,-131.19"/>
</g>
<!-- Node5 -->
<g id="node5" class="node">
<title>Node5</title>
<g id="a_node5"><a xlink:title=" ">
<polygon fill="#e0e0e0" stroke="#999999" points="244,-129.75 197.25,-129.75 197.25,-110.5 244,-110.5 244,-129.75"/>
<text text-anchor="middle" x="220.62" y="-116.25" font-family="Helvetica,sans-Serif" font-size="10.00">stdlib.h</text>
</a>
</g>
</g>
<!-- Node1&#45;&gt;Node5 -->
<g id="edge4" class="edge">
<title>Node1&#45;&gt;Node5</title>
<path fill="none" stroke="#63b8ff" d="M263.2,-165.58C256.01,-158.07 245.47,-147.06 236.67,-137.88"/>
<polygon fill="#63b8ff" stroke="#63b8ff" points="239.67,-135.91 230.23,-131.11 234.62,-140.75 239.67,-135.91"/>
</g>
<!-- Node6 -->
<g id="node6" class="node">
<title>Node6</title>
<g id="a_node6"><a xlink:title=" ">
<polygon fill="#e0e0e0" stroke="#999999" points="416.88,-19.25 366.38,-19.25 366.38,0 416.88,0 416.88,-19.25"/>
<text text-anchor="middle" x="391.62" y="-5.75" font-family="Helvetica,sans-Serif" font-size="10.00">memory</text>
</a>
</g>
</g>
<!-- Node1&#45;&gt;Node6 -->
<g id="edge5" class="edge">
<title>Node1&#45;&gt;Node6</title>
<path fill="none" stroke="#63b8ff" d="M272.82,-165.55C274.87,-152.68 279.92,-128.36 290.62,-110.5 311.58,-75.55 347.56,-44.11 370.44,-26.21"/>
<polygon fill="#63b8ff" stroke="#63b8ff" points="372.26,-28.46 378.08,-19.61 368.01,-22.9 372.26,-28.46"/>
</g>
<!-- Node7 -->
<g id="node7" class="node">
<title>Node7</title>
<g id="a_node7"><a xlink:title=" ">
<polygon fill="#e0e0e0" stroke="#999999" points="349.5,-129.75 299.75,-129.75 299.75,-110.5 349.5,-110.5 349.5,-129.75"/>
<text text-anchor="middle" x="324.62" y="-116.25" font-family="Helvetica,sans-Serif" font-size="10.00">optional</text>
</a>
</g>
</g>
<!-- Node1&#45;&gt;Node7 -->
<g id="edge6" class="edge">
<title>Node1&#45;&gt;Node7</title>
<path fill="none" stroke="#63b8ff" d="M280.38,-165.58C287.85,-158.07 298.81,-147.06 307.95,-137.88"/>
<polygon fill="#63b8ff" stroke="#63b8ff" points="310.11,-140.67 314.68,-131.11 305.15,-135.73 310.11,-140.67"/>
</g>
<!-- Node8 -->
<g id="node8" class="node">
<title>Node8</title>
<g id="a_node8"><a xlink:title=" ">
<polygon fill="#e0e0e0" stroke="#999999" points="401.62,-74.5 361.62,-74.5 361.62,-55.25 401.62,-55.25 401.62,-74.5"/>
<text text-anchor="middle" x="381.62" y="-61" font-family="Helvetica,sans-Serif" font-size="10.00">string</text>
</a>
</g>
</g>
<!-- Node1&#45;&gt;Node8 -->
<g id="edge7" class="edge">
<title>Node1&#45;&gt;Node8</title>
<path fill="none" stroke="#63b8ff" d="M301.83,-165.27C320.47,-158.26 343.6,-146.83 358.62,-129.75 369.58,-117.29 375.44,-99.22 378.5,-85.48"/>
<polygon fill="#63b8ff" stroke="#63b8ff" points="382.11,-86.24 380.52,-75.76 375.23,-84.94 382.11,-86.24"/>
</g>
<!-- Node9 -->
<g id="node9" class="node">
<title>Node9</title>
<g id="a_node9"><a xlink:href="v8-source-location_8h.html" target="_top" xlink:title=" ">
<polygon fill="white" stroke="#666666" points="509.12,-129.75 406.12,-129.75 406.12,-110.5 509.12,-110.5 509.12,-129.75"/>
<text text-anchor="middle" x="457.62" y="-116.25" font-family="Helvetica,sans-Serif" font-size="10.00">v8&#45;source&#45;location.h</text>
</a>
</g>
</g>
<!-- Node1&#45;&gt;Node9 -->
<g id="edge8" class="edge">
<title>Node1&#45;&gt;Node9</title>
<path fill="none" stroke="#63b8ff" d="M303.18,-165.34C334.04,-156.51 381.25,-142.99 415.34,-133.23"/>
<polygon fill="#63b8ff" stroke="#63b8ff" points="416.27,-136.32 424.92,-130.2 414.34,-129.59 416.27,-136.32"/>
</g>
<!-- Node11 -->
<g id="node11" class="node">
<title>Node11</title>
<g id="a_node11"><a xlink:href="v8config_8h.html" target="_top" xlink:title=" ">
<polygon fill="white" stroke="#666666" points="554.38,-74.5 494.88,-74.5 494.88,-55.25 554.38,-55.25 554.38,-74.5"/>
<text text-anchor="middle" x="524.62" y="-61" font-family="Helvetica,sans-Serif" font-size="10.00">v8config.h</text>
</a>
</g>
</g>
<!-- Node1&#45;&gt;Node11 -->
<g id="edge13" class="edge">
<title>Node1&#45;&gt;Node11</title>
<path fill="none" stroke="#63b8ff" d="M324.92,-172.08C389.59,-168.1 493.17,-157.47 518.62,-129.75 529.45,-117.96 530.01,-99.27 528.42,-85.15"/>
<polygon fill="#63b8ff" stroke="#63b8ff" points="531.78,-84.94 526.76,-75.61 524.86,-86.03 531.78,-84.94"/>
</g>
<!-- Node9&#45;&gt;Node8 -->
<g id="edge10" class="edge">
<title>Node9&#45;&gt;Node8</title>
<path fill="none" stroke="#63b8ff" d="M444.73,-110.09C433.38,-102.14 416.61,-90.39 403.21,-81"/>
<polygon fill="#63b8ff" stroke="#63b8ff" points="405.78,-77.82 395.58,-74.95 401.76,-83.56 405.78,-77.82"/>
</g>
<!-- Node10 -->
<g id="node10" class="node">
<title>Node10</title>
<g id="a_node10"><a xlink:title=" ">
<polygon fill="#e0e0e0" stroke="#999999" points="476.75,-74.5 428.5,-74.5 428.5,-55.25 476.75,-55.25 476.75,-74.5"/>
<text text-anchor="middle" x="452.62" y="-61" font-family="Helvetica,sans-Serif" font-size="10.00">cstddef</text>
</a>
</g>
</g>
<!-- Node9&#45;&gt;Node10 -->
<g id="edge9" class="edge">
<title>Node9&#45;&gt;Node10</title>
<path fill="none" stroke="#63b8ff" d="M456.8,-110.33C456.17,-103.67 455.29,-94.24 454.49,-85.78"/>
<polygon fill="#63b8ff" stroke="#63b8ff" points="457.89,-85.49 453.47,-75.86 450.92,-86.14 457.89,-85.49"/>
</g>
<!-- Node9&#45;&gt;Node11 -->
<g id="edge11" class="edge">
<title>Node9&#45;&gt;Node11</title>
<path fill="none" stroke="#63b8ff" d="M468.99,-110.09C478.87,-102.24 493.39,-90.7 505.12,-81.37"/>
<polygon fill="#63b8ff" stroke="#63b8ff" points="506.78,-83.74 512.43,-74.77 502.42,-78.26 506.78,-83.74"/>
</g>
<!-- Node11&#45;&gt;Node6 -->
<g id="edge12" class="edge">
<title>Node11&#45;&gt;Node6</title>
<path fill="none" stroke="#63b8ff" d="M502.06,-54.84C480.76,-46.31 448.56,-33.42 424.42,-23.76"/>
<polygon fill="#63b8ff" stroke="#63b8ff" points="425.88,-20.17 415.3,-19.7 423.28,-26.67 425.88,-20.17"/>
</g>
</g>
</svg>
