<?xml version="1.0" encoding="UTF-8" standalone="no"?>
<!DOCTYPE svg PUBLIC "-//W3C//DTD SVG 1.1//EN"
 "http://www.w3.org/Graphics/SVG/1.1/DTD/svg11.dtd">
<!-- Generated by graphviz version 2.49.3 (20211027.1534)
 -->
<!-- Title: v8_inspector::V8ContextInfo Pages: 1 -->
<svg width="174pt" height="117pt"
 viewBox="0.00 0.00 174.00 117.00" xmlns="http://www.w3.org/2000/svg" xmlns:xlink="http://www.w3.org/1999/xlink">
<g id="graph0" class="graph" transform="scale(1 1) rotate(0) translate(4 113)">
<title>v8_inspector::V8ContextInfo</title>
<polygon fill="white" stroke="transparent" points="-4,4 -4,-113 170,-113 170,4 -4,4"/>
<!-- Node1 -->
<g id="node1" class="node">
<title>Node1</title>
<g id="a_node1"><a xlink:title=" ">
<polygon fill="#bfbfbf" stroke="black" points="0,-0.5 0,-19.5 138,-19.5 138,-0.5 0,-0.5"/>
<text text-anchor="middle" x="69" y="-7.5" font-family="Helvetica,sans-Serif" font-size="10.00">v8_inspector::V8ContextInfo</text>
</a>
</g>
</g>
<!-- Node2 -->
<g id="node2" class="node">
<title>Node2</title>
<g id="a_node2"><a xlink:href="classv8__inspector_1_1StringView.html" target="_top" xlink:title=" ">
<polygon fill="white" stroke="black" points="7,-89.5 7,-108.5 131,-108.5 131,-89.5 7,-89.5"/>
<text text-anchor="middle" x="69" y="-96.5" font-family="Helvetica,sans-Serif" font-size="10.00">v8_inspector::StringView</text>
</a>
</g>
</g>
<!-- Node2&#45;&gt;Node1 -->
<g id="edge1" class="edge">
<title>Node2&#45;&gt;Node1</title>
<path fill="none" stroke="#9a32cd" stroke-dasharray="5,2" d="M69,-79.19C69,-60.74 69,-33.41 69,-19.62"/>
<polygon fill="#9a32cd" stroke="#9a32cd" points="65.5,-79.34 69,-89.34 72.5,-79.34 65.5,-79.34"/>
<text text-anchor="middle" x="117.5" y="-63" font-family="Helvetica,sans-Serif" font-size="10.00"> auxData</text>
<text text-anchor="middle" x="117.5" y="-52" font-family="Helvetica,sans-Serif" font-size="10.00">humanReadableName</text>
<text text-anchor="middle" x="117.5" y="-41" font-family="Helvetica,sans-Serif" font-size="10.00">origin</text>
</g>
</g>
</svg>
