<?xml version="1.0" encoding="UTF-8" standalone="no"?>
<!DOCTYPE svg PUBLIC "-//W3C//DTD SVG 1.1//EN"
 "http://www.w3.org/Graphics/SVG/1.1/DTD/svg11.dtd">
<!-- Generated by graphviz version 2.49.3 (20211027.1534)
 -->
<!-- Title: v8::Local::New Pages: 1 -->
<svg width="286pt" height="164pt"
 viewBox="0.00 0.00 286.00 164.00" xmlns="http://www.w3.org/2000/svg" xmlns:xlink="http://www.w3.org/1999/xlink">
<g id="graph0" class="graph" transform="scale(1 1) rotate(0) translate(4 160)">
<title>v8::Local::New</title>
<polygon fill="white" stroke="transparent" points="-4,4 -4,-160 282,-160 282,4 -4,4"/>
<!-- Node1 -->
<g id="node1" class="node">
<title>Node1</title>
<g id="a_node1"><a xlink:title=" ">
<polygon fill="#bfbfbf" stroke="black" points="198,-79.5 198,-98.5 278,-98.5 278,-79.5 198,-79.5"/>
<text text-anchor="middle" x="238" y="-86.5" font-family="Helvetica,sans-Serif" font-size="10.00">v8::Local::New</text>
</a>
</g>
</g>
<!-- Node2 -->
<g id="node2" class="node">
<title>Node2</title>
<g id="a_node2"><a xlink:href="classv8_1_1PersistentValueMapBase.html#a5bac0db345afa5ac0654c7bac39fd67b" target="_top" xlink:title=" ">
<polygon fill="white" stroke="black" points="0,-136.5 0,-155.5 162,-155.5 162,-136.5 0,-136.5"/>
<text text-anchor="middle" x="81" y="-143.5" font-family="Helvetica,sans-Serif" font-size="10.00">v8::PersistentValueMapBase::Get</text>
</a>
</g>
</g>
<!-- Node1&#45;&gt;Node2 -->
<g id="edge1" class="edge">
<title>Node1&#45;&gt;Node2</title>
<path fill="none" stroke="midnightblue" d="M212.09,-103.49C197.8,-111.32 179.32,-120.66 162,-127 151.95,-130.68 140.92,-133.84 130.35,-136.46"/>
<polygon fill="midnightblue" stroke="midnightblue" points="213.8,-106.55 220.82,-98.61 210.39,-100.44 213.8,-106.55"/>
</g>
<!-- Node3 -->
<g id="node3" class="node">
<title>Node3</title>
<g id="a_node3"><a xlink:href="classv8_1_1PersistentBase.html#a3904f51a5d7024c2983d027c8075201d" target="_top" xlink:title=" ">
<polygon fill="white" stroke="black" points="21.5,-98.5 21.5,-117.5 140.5,-117.5 140.5,-98.5 21.5,-98.5"/>
<text text-anchor="middle" x="81" y="-105.5" font-family="Helvetica,sans-Serif" font-size="10.00">v8::PersistentBase::Get</text>
</a>
</g>
</g>
<!-- Node1&#45;&gt;Node3 -->
<g id="edge2" class="edge">
<title>Node1&#45;&gt;Node3</title>
<path fill="none" stroke="midnightblue" d="M187.82,-95.03C172.86,-96.86 156.27,-98.9 140.74,-100.8"/>
<polygon fill="midnightblue" stroke="midnightblue" points="188.39,-98.49 197.89,-93.79 187.54,-91.54 188.39,-98.49"/>
</g>
<!-- Node4 -->
<g id="node4" class="node">
<title>Node4</title>
<g id="a_node4"><a xlink:href="classv8_1_1PersistentValueVector.html#a773384c8da374c10ce437a391c662189" target="_top" xlink:title=" ">
<polygon fill="white" stroke="black" points="6.5,-60.5 6.5,-79.5 155.5,-79.5 155.5,-60.5 6.5,-60.5"/>
<text text-anchor="middle" x="81" y="-67.5" font-family="Helvetica,sans-Serif" font-size="10.00">v8::PersistentValueVector::Get</text>
</a>
</g>
</g>
<!-- Node1&#45;&gt;Node4 -->
<g id="edge3" class="edge">
<title>Node1&#45;&gt;Node4</title>
<path fill="none" stroke="midnightblue" d="M187.88,-82.98C177.58,-81.72 166.5,-80.36 155.53,-79.01"/>
<polygon fill="midnightblue" stroke="midnightblue" points="187.54,-86.46 197.89,-84.21 188.39,-79.51 187.54,-86.46"/>
</g>
<!-- Node5 -->
<g id="node5" class="node">
<title>Node5</title>
<g id="a_node5"><a xlink:href="classv8_1_1PersistentValueMapBase_1_1PersistentValueReference.html#aab9ed032c017149867c0f2cef2df89fd" target="_top" xlink:title=" ">
<polygon fill="white" stroke="black" points="10,-0.5 10,-41.5 152,-41.5 152,-0.5 10,-0.5"/>
<text text-anchor="start" x="18" y="-29.5" font-family="Helvetica,sans-Serif" font-size="10.00">v8::PersistentValueMapBase</text>
<text text-anchor="start" x="18" y="-18.5" font-family="Helvetica,sans-Serif" font-size="10.00">::PersistentValueReference</text>
<text text-anchor="middle" x="81" y="-7.5" font-family="Helvetica,sans-Serif" font-size="10.00">::NewLocal</text>
</a>
</g>
</g>
<!-- Node1&#45;&gt;Node5 -->
<g id="edge4" class="edge">
<title>Node1&#45;&gt;Node5</title>
<path fill="none" stroke="midnightblue" d="M210.22,-74.53C196.07,-67.11 178.29,-58.15 162,-51 154.67,-47.78 146.87,-44.58 139.12,-41.54"/>
<polygon fill="midnightblue" stroke="midnightblue" points="208.91,-77.79 219.38,-79.38 212.18,-71.61 208.91,-77.79"/>
</g>
</g>
</svg>
