<?xml version="1.0" encoding="UTF-8" standalone="no"?>
<!DOCTYPE svg PUBLIC "-//W3C//DTD SVG 1.1//EN"
 "http://www.w3.org/Graphics/SVG/1.1/DTD/svg11.dtd">
<!-- Generated by graphviz version 2.49.3 (20211027.1534)
 -->
<!-- Title: v8::PersistentValueMapBase::RegisterExternallyReferencedObject Pages: 1 -->
<svg width="385pt" height="137pt"
 viewBox="0.00 0.00 385.00 137.00" xmlns="http://www.w3.org/2000/svg" xmlns:xlink="http://www.w3.org/1999/xlink">
<g id="graph0" class="graph" transform="scale(1 1) rotate(0) translate(4 133)">
<title>v8::PersistentValueMapBase::RegisterExternallyReferencedObject</title>
<polygon fill="white" stroke="transparent" points="-4,4 -4,-133 381,-133 381,4 -4,4"/>
<!-- Node1 -->
<g id="node1" class="node">
<title>Node1</title>
<g id="a_node1"><a xlink:title=" ">
<polygon fill="#bfbfbf" stroke="black" points="0,-49.5 0,-79.5 176,-79.5 176,-49.5 0,-49.5"/>
<text text-anchor="start" x="8" y="-67.5" font-family="Helvetica,sans-Serif" font-size="10.00">v8::PersistentValueMapBase</text>
<text text-anchor="middle" x="88" y="-56.5" font-family="Helvetica,sans-Serif" font-size="10.00">::RegisterExternallyReferencedObject</text>
</a>
</g>
</g>
<!-- Node2 -->
<g id="node2" class="node">
<title>Node2</title>
<g id="a_node2"><a xlink:href="classv8_1_1PersistentValueMapBase.html#a8c68e5f99c4042541c6d32232c97282a" target="_top" xlink:title=" ">
<polygon fill="white" stroke="black" points="223.5,-98.5 223.5,-128.5 365.5,-128.5 365.5,-98.5 223.5,-98.5"/>
<text text-anchor="start" x="231.5" y="-116.5" font-family="Helvetica,sans-Serif" font-size="10.00">v8::PersistentValueMapBase</text>
<text text-anchor="middle" x="294.5" y="-105.5" font-family="Helvetica,sans-Serif" font-size="10.00">::Contains</text>
</a>
</g>
</g>
<!-- Node1&#45;&gt;Node2 -->
<g id="edge1" class="edge">
<title>Node1&#45;&gt;Node2</title>
<path fill="none" stroke="midnightblue" d="M151.75,-79.53C173.63,-84.78 198.37,-90.71 220.99,-96.13"/>
<polygon fill="midnightblue" stroke="midnightblue" points="220.33,-99.57 230.87,-98.49 221.96,-92.76 220.33,-99.57"/>
</g>
<!-- Node3 -->
<g id="node3" class="node">
<title>Node3</title>
<g id="a_node3"><a xlink:href="classv8_1_1PersistentValueMapBase.html#abb262f768e4353658726ba4d1295947c" target="_top" xlink:title=" ">
<polygon fill="white" stroke="black" points="223.5,-49.5 223.5,-79.5 365.5,-79.5 365.5,-49.5 223.5,-49.5"/>
<text text-anchor="start" x="231.5" y="-67.5" font-family="Helvetica,sans-Serif" font-size="10.00">v8::PersistentValueMapBase</text>
<text text-anchor="middle" x="294.5" y="-56.5" font-family="Helvetica,sans-Serif" font-size="10.00">::FromVal</text>
</a>
</g>
</g>
<!-- Node1&#45;&gt;Node3 -->
<g id="edge2" class="edge">
<title>Node1&#45;&gt;Node3</title>
<path fill="none" stroke="midnightblue" d="M176.02,-64.5C188.34,-64.5 200.95,-64.5 213.14,-64.5"/>
<polygon fill="midnightblue" stroke="midnightblue" points="213.25,-68 223.25,-64.5 213.25,-61 213.25,-68"/>
</g>
<!-- Node4 -->
<g id="node4" class="node">
<title>Node4</title>
<g id="a_node4"><a xlink:href="classv8_1_1EmbedderReachableReferenceReporter.html#a45e5dcc30b3ff13fc10f2845141ee369" target="_top" xlink:title=" ">
<polygon fill="white" stroke="black" points="212,-0.5 212,-30.5 377,-30.5 377,-0.5 212,-0.5"/>
<text text-anchor="start" x="220" y="-18.5" font-family="Helvetica,sans-Serif" font-size="10.00">v8::EmbedderReachableReference</text>
<text text-anchor="middle" x="294.5" y="-7.5" font-family="Helvetica,sans-Serif" font-size="10.00">Reporter::ReportExternalReference</text>
</a>
</g>
</g>
<!-- Node1&#45;&gt;Node4 -->
<g id="edge3" class="edge">
<title>Node1&#45;&gt;Node4</title>
<path fill="none" stroke="midnightblue" d="M151.75,-49.47C173.63,-44.22 198.37,-38.29 220.99,-32.87"/>
<polygon fill="midnightblue" stroke="midnightblue" points="221.96,-36.24 230.87,-30.51 220.33,-29.43 221.96,-36.24"/>
</g>
</g>
</svg>
