<?xml version="1.0" encoding="UTF-8" standalone="no"?>
<!DOCTYPE svg PUBLIC "-//W3C//DTD SVG 1.1//EN"
 "http://www.w3.org/Graphics/SVG/1.1/DTD/svg11.dtd">
<!-- Generated by graphviz version 2.49.3 (20211027.1534)
 -->
<!-- Title: cppgc::internal::BasicCrossThreadPersistent::operator= Pages: 1 -->
<svg width="643pt" height="345pt"
 viewBox="0.00 0.00 643.00 345.00" xmlns="http://www.w3.org/2000/svg" xmlns:xlink="http://www.w3.org/1999/xlink">
<g id="graph0" class="graph" transform="scale(1 1) rotate(0) translate(4 341)">
<title>cppgc::internal::BasicCrossThreadPersistent::operator=</title>
<polygon fill="white" stroke="transparent" points="-4,4 -4,-341 639,-341 639,4 -4,4"/>
<!-- Node1 -->
<g id="node1" class="node">
<title>Node1</title>
<g id="a_node1"><a xlink:title=" ">
<polygon fill="#bfbfbf" stroke="black" points="0,-169.5 0,-199.5 137,-199.5 137,-169.5 0,-169.5"/>
<text text-anchor="start" x="8" y="-187.5" font-family="Helvetica,sans-Serif" font-size="10.00">cppgc::internal::BasicCross</text>
<text text-anchor="middle" x="68.5" y="-176.5" font-family="Helvetica,sans-Serif" font-size="10.00">ThreadPersistent::operator=</text>
</a>
</g>
</g>
<!-- Node2 -->
<g id="node2" class="node">
<title>Node2</title>
<g id="a_node2"><a xlink:href="classcppgc_1_1internal_1_1BasicCrossThreadPersistent.html#a4101c15a02138c88ea1d29ef95b10b34" target="_top" xlink:title=" ">
<polygon fill="white" stroke="black" points="173,-306.5 173,-336.5 307,-336.5 307,-306.5 173,-306.5"/>
<text text-anchor="start" x="181" y="-324.5" font-family="Helvetica,sans-Serif" font-size="10.00">cppgc::internal::BasicCross</text>
<text text-anchor="middle" x="240" y="-313.5" font-family="Helvetica,sans-Serif" font-size="10.00">ThreadPersistent::Clear</text>
</a>
</g>
</g>
<!-- Node1&#45;&gt;Node2 -->
<g id="edge1" class="edge">
<title>Node1&#45;&gt;Node2</title>
<path fill="none" stroke="midnightblue" d="M79.8,-199.83C96.64,-223.83 132.3,-270.31 173,-297.5 175.38,-299.09 177.87,-300.59 180.44,-302"/>
<polygon fill="midnightblue" stroke="midnightblue" points="178.9,-305.14 189.42,-306.47 182.03,-298.88 178.9,-305.14"/>
</g>
<!-- Node3 -->
<g id="node3" class="node">
<title>Node3</title>
<g id="a_node3"><a xlink:href="classcppgc_1_1internal_1_1BasicCrossThreadPersistent.html#a11303453def5b5179a064fa1a9c35988" target="_top" xlink:title=" ">
<polygon fill="white" stroke="black" points="173,-257.5 173,-287.5 307,-287.5 307,-257.5 173,-257.5"/>
<text text-anchor="start" x="181" y="-275.5" font-family="Helvetica,sans-Serif" font-size="10.00">cppgc::internal::BasicCross</text>
<text text-anchor="middle" x="240" y="-264.5" font-family="Helvetica,sans-Serif" font-size="10.00">ThreadPersistent::Get</text>
</a>
</g>
</g>
<!-- Node1&#45;&gt;Node3 -->
<g id="edge2" class="edge">
<title>Node1&#45;&gt;Node3</title>
<path fill="none" stroke="midnightblue" d="M95.12,-199.65C115.87,-211.73 145.99,-228.82 173,-242.5 180.11,-246.1 187.73,-249.75 195.19,-253.21"/>
<polygon fill="midnightblue" stroke="midnightblue" points="193.94,-256.49 204.48,-257.47 196.85,-250.12 193.94,-256.49"/>
</g>
<!-- Node4 -->
<g id="node4" class="node">
<title>Node4</title>
<g id="a_node4"><a xlink:href="classcppgc_1_1internal_1_1PersistentBase.html#a2fce9ff2e5e2e6e347e31dc1399c7acb" target="_top" xlink:title=" ">
<polygon fill="white" stroke="black" points="343,-235.5 343,-265.5 471,-265.5 471,-235.5 343,-235.5"/>
<text text-anchor="start" x="351" y="-253.5" font-family="Helvetica,sans-Serif" font-size="10.00">cppgc::internal::Persistent</text>
<text text-anchor="middle" x="407" y="-242.5" font-family="Helvetica,sans-Serif" font-size="10.00">Base::GetValue</text>
</a>
</g>
</g>
<!-- Node1&#45;&gt;Node4 -->
<g id="edge5" class="edge">
<title>Node1&#45;&gt;Node4</title>
<path fill="none" stroke="midnightblue" d="M129.01,-199.55C143.38,-203 158.7,-206.52 173,-209.5 226.38,-220.63 287.06,-231.24 333.11,-238.88"/>
<polygon fill="midnightblue" stroke="midnightblue" points="332.56,-242.34 343,-240.51 333.7,-235.43 332.56,-242.34"/>
</g>
<!-- Node5 -->
<g id="node5" class="node">
<title>Node5</title>
<g id="a_node5"><a xlink:href="classcppgc_1_1internal_1_1PersistentBase.html#aa189d8229e1fd8cc2cfce363ade822c6" target="_top" xlink:title=" ">
<polygon fill="white" stroke="black" points="176,-169.5 176,-199.5 304,-199.5 304,-169.5 176,-169.5"/>
<text text-anchor="start" x="184" y="-187.5" font-family="Helvetica,sans-Serif" font-size="10.00">cppgc::internal::Persistent</text>
<text text-anchor="middle" x="240" y="-176.5" font-family="Helvetica,sans-Serif" font-size="10.00">Base::GetNode</text>
</a>
</g>
</g>
<!-- Node1&#45;&gt;Node5 -->
<g id="edge4" class="edge">
<title>Node1&#45;&gt;Node5</title>
<path fill="none" stroke="midnightblue" d="M137.47,-184.5C146.8,-184.5 156.42,-184.5 165.84,-184.5"/>
<polygon fill="midnightblue" stroke="midnightblue" points="165.96,-188 175.96,-184.5 165.96,-181 165.96,-188"/>
</g>
<!-- Node6 -->
<g id="node6" class="node">
<title>Node6</title>
<g id="a_node6"><a xlink:href="classcppgc_1_1internal_1_1PersistentBase.html#af84e1d2f71c9cbd3f0a4424339c725cb" target="_top" xlink:title=" ">
<polygon fill="white" stroke="black" points="176,-120.5 176,-150.5 304,-150.5 304,-120.5 176,-120.5"/>
<text text-anchor="start" x="184" y="-138.5" font-family="Helvetica,sans-Serif" font-size="10.00">cppgc::internal::Persistent</text>
<text text-anchor="middle" x="240" y="-127.5" font-family="Helvetica,sans-Serif" font-size="10.00">Base::SetNode</text>
</a>
</g>
</g>
<!-- Node1&#45;&gt;Node6 -->
<g id="edge6" class="edge">
<title>Node1&#45;&gt;Node6</title>
<path fill="none" stroke="midnightblue" d="M121.74,-169.4C139.3,-164.32 159.06,-158.61 177.28,-153.34"/>
<polygon fill="midnightblue" stroke="midnightblue" points="178.3,-156.69 186.93,-150.55 176.36,-149.97 178.3,-156.69"/>
</g>
<!-- Node7 -->
<g id="node7" class="node">
<title>Node7</title>
<g id="a_node7"><a xlink:href="classcppgc_1_1internal_1_1PersistentBase.html#a697d2fa1fc753a2f2e8c479143d72995" target="_top" xlink:title=" ">
<polygon fill="white" stroke="black" points="176,-71.5 176,-101.5 304,-101.5 304,-71.5 176,-71.5"/>
<text text-anchor="start" x="184" y="-89.5" font-family="Helvetica,sans-Serif" font-size="10.00">cppgc::internal::Persistent</text>
<text text-anchor="middle" x="240" y="-78.5" font-family="Helvetica,sans-Serif" font-size="10.00">Base::SetValue</text>
</a>
</g>
</g>
<!-- Node1&#45;&gt;Node7 -->
<g id="edge7" class="edge">
<title>Node1&#45;&gt;Node7</title>
<path fill="none" stroke="midnightblue" d="M88.02,-169.25C108.04,-153.31 141.35,-128.31 173,-111.5 176.94,-109.41 181.1,-107.4 185.33,-105.51"/>
<polygon fill="midnightblue" stroke="midnightblue" points="186.82,-108.67 194.65,-101.53 184.08,-102.23 186.82,-108.67"/>
</g>
<!-- Node8 -->
<g id="node8" class="node">
<title>Node8</title>
<g id="a_node8"><a xlink:href="classcppgc_1_1internal_1_1PersistentNode.html#a1ca2104547bd2139cb56233c575a38f9" target="_top" xlink:title=" ">
<polygon fill="white" stroke="black" points="176,-22.5 176,-52.5 304,-52.5 304,-22.5 176,-22.5"/>
<text text-anchor="start" x="184" y="-40.5" font-family="Helvetica,sans-Serif" font-size="10.00">cppgc::internal::Persistent</text>
<text text-anchor="middle" x="240" y="-29.5" font-family="Helvetica,sans-Serif" font-size="10.00">Node::UpdateOwner</text>
</a>
</g>
</g>
<!-- Node1&#45;&gt;Node8 -->
<g id="edge8" class="edge">
<title>Node1&#45;&gt;Node8</title>
<path fill="none" stroke="midnightblue" d="M78.43,-169.44C94.34,-143.8 130,-91.56 173,-61.5 175.1,-60.03 177.3,-58.65 179.56,-57.33"/>
<polygon fill="midnightblue" stroke="midnightblue" points="181.33,-60.36 188.59,-52.65 178.1,-54.15 181.33,-60.36"/>
</g>
<!-- Node3&#45;&gt;Node4 -->
<g id="edge3" class="edge">
<title>Node3&#45;&gt;Node4</title>
<path fill="none" stroke="midnightblue" d="M307.16,-263.68C315.6,-262.55 324.28,-261.4 332.83,-260.26"/>
<polygon fill="midnightblue" stroke="midnightblue" points="333.32,-263.72 342.77,-258.93 332.4,-256.78 333.32,-263.72"/>
</g>
<!-- Node9 -->
<g id="node9" class="node">
<title>Node9</title>
<g id="a_node9"><a xlink:href="classcppgc_1_1internal_1_1PersistentNode.html#a6117a8f66c181bb22827a21b3fbd3457" target="_top" xlink:title=" ">
<polygon fill="white" stroke="black" points="507,-22.5 507,-52.5 635,-52.5 635,-22.5 507,-22.5"/>
<text text-anchor="start" x="515" y="-40.5" font-family="Helvetica,sans-Serif" font-size="10.00">cppgc::internal::Persistent</text>
<text text-anchor="middle" x="571" y="-29.5" font-family="Helvetica,sans-Serif" font-size="10.00">Node::IsUsed</text>
</a>
</g>
</g>
<!-- Node8&#45;&gt;Node9 -->
<g id="edge9" class="edge">
<title>Node8&#45;&gt;Node9</title>
<path fill="none" stroke="midnightblue" d="M304.11,-38.93C316.98,-39.17 330.43,-39.38 343,-39.5 399.89,-40.06 414.11,-40.07 471,-39.5 479.34,-39.42 488.07,-39.29 496.75,-39.15"/>
<polygon fill="midnightblue" stroke="midnightblue" points="496.96,-42.64 506.89,-38.97 496.83,-35.64 496.96,-42.64"/>
</g>
<!-- Node10 -->
<g id="node10" class="node">
<title>Node10</title>
<g id="a_node10"><a xlink:href="classcppgc_1_1internal_1_1PersistentNode.html#ad50ff2c6d54004b92ec8c2d92455f17b" target="_top" xlink:title=" ">
<polygon fill="white" stroke="black" points="343,-0.5 343,-30.5 471,-30.5 471,-0.5 343,-0.5"/>
<text text-anchor="start" x="351" y="-18.5" font-family="Helvetica,sans-Serif" font-size="10.00">cppgc::internal::Persistent</text>
<text text-anchor="middle" x="407" y="-7.5" font-family="Helvetica,sans-Serif" font-size="10.00">Node::owner</text>
</a>
</g>
</g>
<!-- Node8&#45;&gt;Node10 -->
<g id="edge10" class="edge">
<title>Node8&#45;&gt;Node10</title>
<path fill="none" stroke="midnightblue" d="M304.32,-29.06C313.6,-27.82 323.22,-26.54 332.67,-25.28"/>
<polygon fill="midnightblue" stroke="midnightblue" points="333.4,-28.71 342.85,-23.92 332.47,-21.77 333.4,-28.71"/>
</g>
<!-- Node10&#45;&gt;Node9 -->
<g id="edge11" class="edge">
<title>Node10&#45;&gt;Node9</title>
<path fill="none" stroke="midnightblue" d="M471.1,-24.07C479.53,-25.21 488.23,-26.4 496.81,-27.56"/>
<polygon fill="midnightblue" stroke="midnightblue" points="496.43,-31.04 506.81,-28.92 497.37,-24.1 496.43,-31.04"/>
</g>
</g>
</svg>
