<?xml version="1.0" encoding="UTF-8" standalone="no"?>
<!DOCTYPE svg PUBLIC "-//W3C//DTD SVG 1.1//EN"
 "http://www.w3.org/Graphics/SVG/1.1/DTD/svg11.dtd">
<!-- Generated by graphviz version 2.49.3 (20211027.1534)
 -->
<!-- Title: include/cppgc/member.h Pages: 1 -->
<svg width="1316pt" height="341pt"
 viewBox="0.00 0.00 1315.50 341.00" xmlns="http://www.w3.org/2000/svg" xmlns:xlink="http://www.w3.org/1999/xlink">
<g id="graph0" class="graph" transform="scale(1 1) rotate(0) translate(4 337)">
<title>include/cppgc/member.h</title>
<polygon fill="white" stroke="transparent" points="-4,4 -4,-337 1311.5,-337 1311.5,4 -4,4"/>
<!-- Node1 -->
<g id="node1" class="node">
<title>Node1</title>
<g id="a_node1"><a xlink:title=" ">
<polygon fill="#bfbfbf" stroke="black" points="129,-313.5 129,-332.5 251,-332.5 251,-313.5 129,-313.5"/>
<text text-anchor="middle" x="190" y="-320.5" font-family="Helvetica,sans-Serif" font-size="10.00">include/cppgc/member.h</text>
</a>
</g>
</g>
<!-- Node2 -->
<g id="node2" class="node">
<title>Node2</title>
<g id="a_node2"><a xlink:title=" ">
<polygon fill="white" stroke="#bfbfbf" points="450,-56.5 450,-75.5 496,-75.5 496,-56.5 450,-56.5"/>
<text text-anchor="middle" x="473" y="-63.5" font-family="Helvetica,sans-Serif" font-size="10.00">atomic</text>
</a>
</g>
</g>
<!-- Node1&#45;&gt;Node2 -->
<g id="edge1" class="edge">
<title>Node1&#45;&gt;Node2</title>
<path fill="none" stroke="midnightblue" d="M192.93,-313.2C204.12,-280.92 247.43,-168.03 323,-112 341.52,-98.27 401.31,-82.99 439.58,-74.23"/>
<polygon fill="midnightblue" stroke="midnightblue" points="440.76,-77.55 449.75,-71.94 439.22,-70.72 440.76,-77.55"/>
</g>
<!-- Node3 -->
<g id="node3" class="node">
<title>Node3</title>
<g id="a_node3"><a xlink:title=" ">
<polygon fill="white" stroke="#bfbfbf" points="570.5,-0.5 570.5,-19.5 619.5,-19.5 619.5,-0.5 570.5,-0.5"/>
<text text-anchor="middle" x="595" y="-7.5" font-family="Helvetica,sans-Serif" font-size="10.00">cstddef</text>
</a>
</g>
</g>
<!-- Node1&#45;&gt;Node3 -->
<g id="edge2" class="edge">
<title>Node1&#45;&gt;Node3</title>
<path fill="none" stroke="midnightblue" d="M185.48,-313.28C170.09,-282.22 123.21,-175.45 171,-112 218.29,-49.22 468.05,-21.82 560.52,-13.72"/>
<polygon fill="midnightblue" stroke="midnightblue" points="560.83,-17.21 570.49,-12.87 560.23,-10.23 560.83,-17.21"/>
</g>
<!-- Node4 -->
<g id="node4" class="node">
<title>Node4</title>
<g id="a_node4"><a xlink:title=" ">
<polygon fill="white" stroke="#bfbfbf" points="45,-0.5 45,-19.5 107,-19.5 107,-0.5 45,-0.5"/>
<text text-anchor="middle" x="76" y="-7.5" font-family="Helvetica,sans-Serif" font-size="10.00">type_traits</text>
</a>
</g>
</g>
<!-- Node1&#45;&gt;Node4 -->
<g id="edge3" class="edge">
<title>Node1&#45;&gt;Node4</title>
<path fill="none" stroke="midnightblue" d="M147.36,-313.45C91.34,-299.45 0,-265.84 0,-195.5 0,-195.5 0,-195.5 0,-126.5 0,-84.81 34.98,-46.53 57.48,-26.22"/>
<polygon fill="midnightblue" stroke="midnightblue" points="59.86,-28.78 65.11,-19.58 55.27,-23.5 59.86,-28.78"/>
</g>
<!-- Node5 -->
<g id="node5" class="node">
<title>Node5</title>
<g id="a_node5"><a xlink:href="pointer-policies_8h.html" target="_top" xlink:title=" ">
<polygon fill="white" stroke="black" points="477,-246.5 477,-276.5 587,-276.5 587,-246.5 477,-246.5"/>
<text text-anchor="start" x="485" y="-264.5" font-family="Helvetica,sans-Serif" font-size="10.00">cppgc/internal/pointer</text>
<text text-anchor="middle" x="532" y="-253.5" font-family="Helvetica,sans-Serif" font-size="10.00">&#45;policies.h</text>
</a>
</g>
</g>
<!-- Node1&#45;&gt;Node5 -->
<g id="edge4" class="edge">
<title>Node1&#45;&gt;Node5</title>
<path fill="none" stroke="midnightblue" d="M239,-313.48C298.91,-303.05 400.5,-285.38 466.92,-273.82"/>
<polygon fill="midnightblue" stroke="midnightblue" points="467.61,-277.26 476.86,-272.09 466.41,-270.36 467.61,-277.26"/>
</g>
<!-- Node9 -->
<g id="node9" class="node">
<title>Node9</title>
<g id="a_node9"><a xlink:href="v8config_8h.html" target="_top" xlink:title=" ">
<polygon fill="white" stroke="black" points="899,-0.5 899,-19.5 959,-19.5 959,-0.5 899,-0.5"/>
<text text-anchor="middle" x="929" y="-7.5" font-family="Helvetica,sans-Serif" font-size="10.00">v8config.h</text>
</a>
</g>
</g>
<!-- Node1&#45;&gt;Node9 -->
<g id="edge46" class="edge">
<title>Node1&#45;&gt;Node9</title>
<path fill="none" stroke="midnightblue" d="M251.1,-320C455.86,-312.51 1105,-281.95 1105,-195.5 1105,-195.5 1105,-195.5 1105,-126.5 1105,-94.05 1108.76,-79.13 1086,-56 1069.73,-39.47 1010.11,-25.68 969.21,-17.89"/>
<polygon fill="midnightblue" stroke="midnightblue" points="969.73,-14.43 959.25,-16.04 968.45,-21.31 969.73,-14.43"/>
</g>
<!-- Node19 -->
<g id="node19" class="node">
<title>Node19</title>
<g id="a_node19"><a xlink:href="sentinel-pointer_8h.html" target="_top" xlink:title=" ">
<polygon fill="white" stroke="black" points="332.5,-118 332.5,-137 451.5,-137 451.5,-118 332.5,-118"/>
<text text-anchor="middle" x="392" y="-125" font-family="Helvetica,sans-Serif" font-size="10.00">cppgc/sentinel&#45;pointer.h</text>
</a>
</g>
</g>
<!-- Node1&#45;&gt;Node19 -->
<g id="edge44" class="edge">
<title>Node1&#45;&gt;Node19</title>
<path fill="none" stroke="midnightblue" d="M198.94,-313.44C230.15,-283.54 334.57,-183.51 375.42,-144.38"/>
<polygon fill="midnightblue" stroke="midnightblue" points="377.9,-146.85 382.7,-137.41 373.06,-141.8 377.9,-146.85"/>
</g>
<!-- Node21 -->
<g id="node21" class="node">
<title>Node21</title>
<g id="a_node21"><a xlink:href="type-traits_8h.html" target="_top" xlink:title=" ">
<polygon fill="white" stroke="black" points="66,-56.5 66,-75.5 162,-75.5 162,-56.5 66,-56.5"/>
<text text-anchor="middle" x="114" y="-63.5" font-family="Helvetica,sans-Serif" font-size="10.00">cppgc/type&#45;traits.h</text>
</a>
</g>
</g>
<!-- Node1&#45;&gt;Node21 -->
<g id="edge45" class="edge">
<title>Node1&#45;&gt;Node21</title>
<path fill="none" stroke="midnightblue" d="M174.94,-313.39C162.77,-305.57 146.36,-292.84 138,-277 104.47,-213.47 108.19,-124.31 111.79,-85.86"/>
<polygon fill="midnightblue" stroke="midnightblue" points="115.3,-85.96 112.87,-75.64 108.34,-85.22 115.3,-85.96"/>
</g>
<!-- Node5&#45;&gt;Node4 -->
<g id="edge6" class="edge">
<title>Node5&#45;&gt;Node4</title>
<path fill="none" stroke="midnightblue" d="M476.67,-253.26C425.15,-245.62 346.65,-231.63 281,-210 214.34,-188.03 197.29,-180.56 138,-143 98.53,-118 76.89,-118.27 57,-76 49.75,-60.59 56.79,-41.81 64.26,-28.41"/>
<polygon fill="midnightblue" stroke="midnightblue" points="67.34,-30.08 69.59,-19.72 61.38,-26.42 67.34,-30.08"/>
</g>
<!-- Node6 -->
<g id="node6" class="node">
<title>Node6</title>
<g id="a_node6"><a xlink:title=" ">
<polygon fill="white" stroke="#bfbfbf" points="623,-56.5 623,-75.5 669,-75.5 669,-56.5 623,-56.5"/>
<text text-anchor="middle" x="646" y="-63.5" font-family="Helvetica,sans-Serif" font-size="10.00">cstdint</text>
</a>
</g>
</g>
<!-- Node5&#45;&gt;Node6 -->
<g id="edge5" class="edge">
<title>Node5&#45;&gt;Node6</title>
<path fill="none" stroke="midnightblue" d="M587.06,-254.33C615.35,-248.05 647.47,-235.41 665,-210 691.46,-171.64 669.42,-113.5 655.4,-84.6"/>
<polygon fill="midnightblue" stroke="midnightblue" points="658.52,-83.01 650.87,-75.67 652.28,-86.18 658.52,-83.01"/>
</g>
<!-- Node7 -->
<g id="node7" class="node">
<title>Node7</title>
<g id="a_node7"><a xlink:href="write-barrier_8h.html" target="_top" xlink:title=" ">
<polygon fill="white" stroke="black" points="554.5,-179.5 554.5,-209.5 655.5,-209.5 655.5,-179.5 554.5,-179.5"/>
<text text-anchor="start" x="562.5" y="-197.5" font-family="Helvetica,sans-Serif" font-size="10.00">cppgc/internal/write</text>
<text text-anchor="middle" x="605" y="-186.5" font-family="Helvetica,sans-Serif" font-size="10.00">&#45;barrier.h</text>
</a>
</g>
</g>
<!-- Node5&#45;&gt;Node7 -->
<g id="edge7" class="edge">
<title>Node5&#45;&gt;Node7</title>
<path fill="none" stroke="midnightblue" d="M547.84,-246.4C557.69,-237.62 570.54,-226.18 581.56,-216.37"/>
<polygon fill="midnightblue" stroke="midnightblue" points="584.05,-218.84 589.19,-209.58 579.4,-213.61 584.05,-218.84"/>
</g>
<!-- Node5&#45;&gt;Node9 -->
<g id="edge43" class="edge">
<title>Node5&#45;&gt;Node9</title>
<path fill="none" stroke="midnightblue" d="M587.03,-251.17C656.75,-237.21 778.04,-205.53 863,-143 893.36,-120.66 899.08,-110.17 915,-76 921.86,-61.29 925.4,-43.12 927.21,-29.74"/>
<polygon fill="midnightblue" stroke="midnightblue" points="930.69,-30.14 928.35,-19.81 923.73,-29.34 930.69,-30.14"/>
</g>
<!-- Node5&#45;&gt;Node19 -->
<g id="edge37" class="edge">
<title>Node5&#45;&gt;Node19</title>
<path fill="none" stroke="midnightblue" d="M517.02,-246.37C490.68,-221.54 436.27,-170.24 408.74,-144.28"/>
<polygon fill="midnightblue" stroke="midnightblue" points="410.8,-141.41 401.12,-137.1 405.99,-146.5 410.8,-141.41"/>
</g>
<!-- Node5&#45;&gt;Node21 -->
<g id="edge42" class="edge">
<title>Node5&#45;&gt;Node21</title>
<path fill="none" stroke="midnightblue" d="M488.69,-246.5C393.17,-215.6 172.68,-144.2 171,-143 149.58,-127.68 132.71,-101.91 123.04,-84.68"/>
<polygon fill="midnightblue" stroke="midnightblue" points="126.02,-82.82 118.2,-75.67 119.85,-86.13 126.02,-82.82"/>
</g>
<!-- Node22 -->
<g id="node22" class="node">
<title>Node22</title>
<g id="a_node22"><a xlink:href="source-location_8h.html" target="_top" xlink:title=" ">
<polygon fill="white" stroke="black" points="957.5,-56.5 957.5,-75.5 1076.5,-75.5 1076.5,-56.5 957.5,-56.5"/>
<text text-anchor="middle" x="1017" y="-63.5" font-family="Helvetica,sans-Serif" font-size="10.00">cppgc/source&#45;location.h</text>
</a>
</g>
</g>
<!-- Node5&#45;&gt;Node22 -->
<g id="edge38" class="edge">
<title>Node5&#45;&gt;Node22</title>
<path fill="none" stroke="midnightblue" d="M587.13,-259.97C685.59,-258.02 886.64,-249.2 943,-210 986.12,-180 1005.81,-116.99 1013.23,-85.6"/>
<polygon fill="midnightblue" stroke="midnightblue" points="1016.71,-86.1 1015.43,-75.58 1009.87,-84.6 1016.71,-86.1"/>
</g>
<!-- Node7&#45;&gt;Node3 -->
<g id="edge8" class="edge">
<title>Node7&#45;&gt;Node3</title>
<path fill="none" stroke="midnightblue" d="M604.23,-179.48C602.46,-147.1 598.07,-67.04 596.05,-30.16"/>
<polygon fill="midnightblue" stroke="midnightblue" points="599.53,-29.61 595.48,-19.82 592.54,-30 599.53,-29.61"/>
</g>
<!-- Node7&#45;&gt;Node6 -->
<g id="edge9" class="edge">
<title>Node7&#45;&gt;Node6</title>
<path fill="none" stroke="midnightblue" d="M609.83,-179.37C613.28,-169.26 617.98,-155.31 622,-143 628.35,-123.52 635.39,-101.15 640.19,-85.75"/>
<polygon fill="midnightblue" stroke="midnightblue" points="643.62,-86.5 643.25,-75.91 636.94,-84.42 643.62,-86.5"/>
</g>
<!-- Node8 -->
<g id="node8" class="node">
<title>Node8</title>
<g id="a_node8"><a xlink:href="heap-state_8h.html" target="_top" xlink:title=" ">
<polygon fill="white" stroke="black" points="763.5,-56.5 763.5,-75.5 862.5,-75.5 862.5,-56.5 763.5,-56.5"/>
<text text-anchor="middle" x="813" y="-63.5" font-family="Helvetica,sans-Serif" font-size="10.00">cppgc/heap&#45;state.h</text>
</a>
</g>
</g>
<!-- Node7&#45;&gt;Node8 -->
<g id="edge10" class="edge">
<title>Node7&#45;&gt;Node8</title>
<path fill="none" stroke="midnightblue" d="M655.97,-188.41C711.66,-181.67 795.56,-167.67 815,-143 827.73,-126.84 824.22,-102.19 819.52,-85.37"/>
<polygon fill="midnightblue" stroke="midnightblue" points="822.79,-84.09 816.43,-75.62 816.12,-86.21 822.79,-84.09"/>
</g>
<!-- Node7&#45;&gt;Node9 -->
<g id="edge36" class="edge">
<title>Node7&#45;&gt;Node9</title>
<path fill="none" stroke="midnightblue" d="M655.63,-192.43C704.66,-189.18 779.25,-178.22 833,-143 876.91,-114.23 907.54,-57.98 921.12,-29.08"/>
<polygon fill="midnightblue" stroke="midnightblue" points="924.4,-30.33 925.34,-19.78 918.02,-27.43 924.4,-30.33"/>
</g>
<!-- Node10 -->
<g id="node10" class="node">
<title>Node10</title>
<g id="a_node10"><a xlink:href="api-constants_8h.html" target="_top" xlink:title=" ">
<polygon fill="white" stroke="black" points="712.5,-112.5 712.5,-142.5 805.5,-142.5 805.5,-112.5 712.5,-112.5"/>
<text text-anchor="start" x="720.5" y="-130.5" font-family="Helvetica,sans-Serif" font-size="10.00">cppgc/internal/api</text>
<text text-anchor="middle" x="759" y="-119.5" font-family="Helvetica,sans-Serif" font-size="10.00">&#45;constants.h</text>
</a>
</g>
</g>
<!-- Node7&#45;&gt;Node10 -->
<g id="edge12" class="edge">
<title>Node7&#45;&gt;Node10</title>
<path fill="none" stroke="midnightblue" d="M638.42,-179.4C661.22,-169.77 691.63,-156.94 716.2,-146.56"/>
<polygon fill="midnightblue" stroke="midnightblue" points="717.8,-149.69 725.65,-142.58 715.08,-143.24 717.8,-149.69"/>
</g>
<!-- Node11 -->
<g id="node11" class="node">
<title>Node11</title>
<g id="a_node11"><a xlink:href="atomic-entry-flag_8h.html" target="_top" xlink:title=" ">
<polygon fill="white" stroke="black" points="470,-112.5 470,-142.5 580,-142.5 580,-112.5 470,-112.5"/>
<text text-anchor="start" x="478" y="-130.5" font-family="Helvetica,sans-Serif" font-size="10.00">cppgc/internal/atomic</text>
<text text-anchor="middle" x="525" y="-119.5" font-family="Helvetica,sans-Serif" font-size="10.00">&#45;entry&#45;flag.h</text>
</a>
</g>
</g>
<!-- Node7&#45;&gt;Node11 -->
<g id="edge16" class="edge">
<title>Node7&#45;&gt;Node11</title>
<path fill="none" stroke="midnightblue" d="M587.64,-179.4C576.74,-170.54 562.49,-158.96 550.34,-149.09"/>
<polygon fill="midnightblue" stroke="midnightblue" points="552.29,-146.17 542.32,-142.58 547.88,-151.6 552.29,-146.17"/>
</g>
<!-- Node12 -->
<g id="node12" class="node">
<title>Node12</title>
<g id="a_node12"><a xlink:href="platform_8h.html" target="_top" xlink:title=" ">
<polygon fill="white" stroke="black" points="1148.5,-118 1148.5,-137 1237.5,-137 1237.5,-118 1148.5,-118"/>
<text text-anchor="middle" x="1193" y="-125" font-family="Helvetica,sans-Serif" font-size="10.00">cppgc/platform.h</text>
</a>
</g>
</g>
<!-- Node7&#45;&gt;Node12 -->
<g id="edge18" class="edge">
<title>Node7&#45;&gt;Node12</title>
<path fill="none" stroke="midnightblue" d="M655.64,-187.9C765.45,-175.76 1024.7,-147.1 1138.19,-134.56"/>
<polygon fill="midnightblue" stroke="midnightblue" points="1138.83,-138.01 1148.38,-133.43 1138.06,-131.05 1138.83,-138.01"/>
</g>
<!-- Node7&#45;&gt;Node19 -->
<g id="edge28" class="edge">
<title>Node7&#45;&gt;Node19</title>
<path fill="none" stroke="midnightblue" d="M559.04,-179.48C520.37,-167.67 465.73,-151 429.62,-139.98"/>
<polygon fill="midnightblue" stroke="midnightblue" points="430.53,-136.6 419.95,-137.03 428.49,-143.3 430.53,-136.6"/>
</g>
<!-- Node20 -->
<g id="node20" class="node">
<title>Node20</title>
<g id="a_node20"><a xlink:href="trace-trait_8h.html" target="_top" xlink:title=" ">
<polygon fill="white" stroke="black" points="180.5,-118 180.5,-137 275.5,-137 275.5,-118 180.5,-118"/>
<text text-anchor="middle" x="228" y="-125" font-family="Helvetica,sans-Serif" font-size="10.00">cppgc/trace&#45;trait.h</text>
</a>
</g>
</g>
<!-- Node7&#45;&gt;Node20 -->
<g id="edge30" class="edge">
<title>Node7&#45;&gt;Node20</title>
<path fill="none" stroke="midnightblue" d="M554.16,-184.73C484.28,-172.69 358.93,-151.07 285.65,-138.44"/>
<polygon fill="midnightblue" stroke="midnightblue" points="286.11,-134.97 275.66,-136.72 284.92,-141.87 286.11,-134.97"/>
</g>
<!-- Node8&#45;&gt;Node9 -->
<g id="edge11" class="edge">
<title>Node8&#45;&gt;Node9</title>
<path fill="none" stroke="midnightblue" d="M831.38,-56.44C850.22,-47.68 879.73,-33.94 901.38,-23.86"/>
<polygon fill="midnightblue" stroke="midnightblue" points="903.12,-26.91 910.71,-19.52 900.16,-20.56 903.12,-26.91"/>
</g>
<!-- Node10&#45;&gt;Node3 -->
<g id="edge13" class="edge">
<title>Node10&#45;&gt;Node3</title>
<path fill="none" stroke="midnightblue" d="M744.87,-112.48C729.3,-97.46 703.12,-73.43 678,-56 660.44,-43.82 639.23,-32.37 622.65,-24.07"/>
<polygon fill="midnightblue" stroke="midnightblue" points="624,-20.83 613.48,-19.56 620.91,-27.12 624,-20.83"/>
</g>
<!-- Node10&#45;&gt;Node6 -->
<g id="edge14" class="edge">
<title>Node10&#45;&gt;Node6</title>
<path fill="none" stroke="midnightblue" d="M732.22,-112.4C713.94,-102.77 689.85,-90.09 671.79,-80.58"/>
<polygon fill="midnightblue" stroke="midnightblue" points="672.92,-77.22 662.44,-75.66 669.66,-83.41 672.92,-77.22"/>
</g>
<!-- Node10&#45;&gt;Node9 -->
<g id="edge15" class="edge">
<title>Node10&#45;&gt;Node9</title>
<path fill="none" stroke="midnightblue" d="M753.24,-112.45C747.92,-96.96 742.54,-72.09 755,-56 771.25,-35.01 842.75,-22.05 888.89,-15.71"/>
<polygon fill="midnightblue" stroke="midnightblue" points="889.43,-19.17 898.89,-14.38 888.51,-12.23 889.43,-19.17"/>
</g>
<!-- Node11&#45;&gt;Node2 -->
<g id="edge17" class="edge">
<title>Node11&#45;&gt;Node2</title>
<path fill="none" stroke="midnightblue" d="M512.68,-112.4C505.04,-103.66 495.21,-92.41 487.24,-83.3"/>
<polygon fill="midnightblue" stroke="midnightblue" points="489.78,-80.88 480.57,-75.66 484.51,-85.49 489.78,-80.88"/>
</g>
<!-- Node12&#45;&gt;Node9 -->
<g id="edge27" class="edge">
<title>Node12&#45;&gt;Node9</title>
<path fill="none" stroke="midnightblue" d="M1186.32,-117.59C1174.49,-102.47 1148.33,-71.9 1119,-56 1093.46,-42.15 1016.93,-26.67 969.15,-17.95"/>
<polygon fill="midnightblue" stroke="midnightblue" points="969.59,-14.48 959.13,-16.15 968.35,-21.37 969.59,-14.48"/>
</g>
<!-- Node13 -->
<g id="node13" class="node">
<title>Node13</title>
<g id="a_node13"><a xlink:title=" ">
<polygon fill="white" stroke="#bfbfbf" points="1256.5,-0.5 1256.5,-19.5 1307.5,-19.5 1307.5,-0.5 1256.5,-0.5"/>
<text text-anchor="middle" x="1282" y="-7.5" font-family="Helvetica,sans-Serif" font-size="10.00">memory</text>
</a>
</g>
</g>
<!-- Node12&#45;&gt;Node13 -->
<g id="edge19" class="edge">
<title>Node12&#45;&gt;Node13</title>
<path fill="none" stroke="midnightblue" d="M1206.74,-117.95C1220.28,-108.93 1240.81,-93.6 1254,-76 1264.58,-61.88 1272.1,-43.15 1276.67,-29.42"/>
<polygon fill="midnightblue" stroke="midnightblue" points="1280.07,-30.26 1279.7,-19.67 1273.39,-28.18 1280.07,-30.26"/>
</g>
<!-- Node14 -->
<g id="node14" class="node">
<title>Node14</title>
<g id="a_node14"><a xlink:href="v8-platform_8h.html" target="_top" xlink:title=" ">
<polygon fill="white" stroke="black" points="1171.5,-56.5 1171.5,-75.5 1244.5,-75.5 1244.5,-56.5 1171.5,-56.5"/>
<text text-anchor="middle" x="1208" y="-63.5" font-family="Helvetica,sans-Serif" font-size="10.00">v8&#45;platform.h</text>
</a>
</g>
</g>
<!-- Node12&#45;&gt;Node14 -->
<g id="edge20" class="edge">
<title>Node12&#45;&gt;Node14</title>
<path fill="none" stroke="midnightblue" d="M1195.15,-117.98C1197.29,-109.49 1200.64,-96.2 1203.38,-85.32"/>
<polygon fill="midnightblue" stroke="midnightblue" points="1206.8,-86.06 1205.85,-75.51 1200.02,-84.35 1206.8,-86.06"/>
</g>
<!-- Node14&#45;&gt;Node9 -->
<g id="edge26" class="edge">
<title>Node14&#45;&gt;Node9</title>
<path fill="none" stroke="midnightblue" d="M1171.24,-57.88C1118.83,-47.74 1023.02,-29.2 968.92,-18.73"/>
<polygon fill="midnightblue" stroke="midnightblue" points="969.49,-15.27 959.01,-16.81 968.16,-22.14 969.49,-15.27"/>
</g>
<!-- Node14&#45;&gt;Node13 -->
<g id="edge24" class="edge">
<title>Node14&#45;&gt;Node13</title>
<path fill="none" stroke="midnightblue" d="M1219.89,-56.32C1231.15,-48.11 1248.29,-35.6 1261.71,-25.81"/>
<polygon fill="midnightblue" stroke="midnightblue" points="1263.88,-28.56 1269.89,-19.83 1259.75,-22.9 1263.88,-28.56"/>
</g>
<!-- Node15 -->
<g id="node15" class="node">
<title>Node15</title>
<g id="a_node15"><a xlink:title=" ">
<polygon fill="white" stroke="#bfbfbf" points="1187.5,-0.5 1187.5,-19.5 1238.5,-19.5 1238.5,-0.5 1187.5,-0.5"/>
<text text-anchor="middle" x="1213" y="-7.5" font-family="Helvetica,sans-Serif" font-size="10.00">stddef.h</text>
</a>
</g>
</g>
<!-- Node14&#45;&gt;Node15 -->
<g id="edge21" class="edge">
<title>Node14&#45;&gt;Node15</title>
<path fill="none" stroke="midnightblue" d="M1208.83,-56.08C1209.48,-49.01 1210.42,-38.86 1211.24,-29.99"/>
<polygon fill="midnightblue" stroke="midnightblue" points="1214.75,-30.03 1212.19,-19.75 1207.78,-29.39 1214.75,-30.03"/>
</g>
<!-- Node16 -->
<g id="node16" class="node">
<title>Node16</title>
<g id="a_node16"><a xlink:title=" ">
<polygon fill="white" stroke="#bfbfbf" points="1056,-0.5 1056,-19.5 1104,-19.5 1104,-0.5 1056,-0.5"/>
<text text-anchor="middle" x="1080" y="-7.5" font-family="Helvetica,sans-Serif" font-size="10.00">stdint.h</text>
</a>
</g>
</g>
<!-- Node14&#45;&gt;Node16 -->
<g id="edge22" class="edge">
<title>Node14&#45;&gt;Node16</title>
<path fill="none" stroke="midnightblue" d="M1187.72,-56.44C1166.65,-47.56 1133.48,-33.56 1109.51,-23.45"/>
<polygon fill="midnightblue" stroke="midnightblue" points="1110.76,-20.18 1100.19,-19.52 1108.04,-26.63 1110.76,-20.18"/>
</g>
<!-- Node17 -->
<g id="node17" class="node">
<title>Node17</title>
<g id="a_node17"><a xlink:title=" ">
<polygon fill="white" stroke="#bfbfbf" points="1122.5,-0.5 1122.5,-19.5 1169.5,-19.5 1169.5,-0.5 1122.5,-0.5"/>
<text text-anchor="middle" x="1146" y="-7.5" font-family="Helvetica,sans-Serif" font-size="10.00">stdlib.h</text>
</a>
</g>
</g>
<!-- Node14&#45;&gt;Node17 -->
<g id="edge23" class="edge">
<title>Node14&#45;&gt;Node17</title>
<path fill="none" stroke="midnightblue" d="M1198.04,-56.32C1188.87,-48.34 1175.06,-36.31 1163.97,-26.65"/>
<polygon fill="midnightblue" stroke="midnightblue" points="1165.98,-23.76 1156.14,-19.83 1161.38,-29.04 1165.98,-23.76"/>
</g>
<!-- Node18 -->
<g id="node18" class="node">
<title>Node18</title>
<g id="a_node18"><a xlink:title=" ">
<polygon fill="white" stroke="#bfbfbf" points="996.5,-0.5 996.5,-19.5 1037.5,-19.5 1037.5,-0.5 996.5,-0.5"/>
<text text-anchor="middle" x="1017" y="-7.5" font-family="Helvetica,sans-Serif" font-size="10.00">string</text>
</a>
</g>
</g>
<!-- Node14&#45;&gt;Node18 -->
<g id="edge25" class="edge">
<title>Node14&#45;&gt;Node18</title>
<path fill="none" stroke="midnightblue" d="M1176.78,-56.46C1146.28,-48.08 1098.28,-34.78 1047.49,-20.1"/>
<polygon fill="midnightblue" stroke="midnightblue" points="1048.22,-16.67 1037.64,-17.25 1046.27,-23.39 1048.22,-16.67"/>
</g>
<!-- Node19&#45;&gt;Node6 -->
<g id="edge29" class="edge">
<title>Node19&#45;&gt;Node6</title>
<path fill="none" stroke="midnightblue" d="M428.39,-117.98C477.85,-106.39 565.56,-85.84 613.12,-74.7"/>
<polygon fill="midnightblue" stroke="midnightblue" points="613.98,-78.1 622.91,-72.41 612.38,-71.28 613.98,-78.1"/>
</g>
<!-- Node20&#45;&gt;Node4 -->
<g id="edge31" class="edge">
<title>Node20&#45;&gt;Node4</title>
<path fill="none" stroke="midnightblue" d="M222.71,-117.63C213.67,-103.12 194.01,-74.1 171,-56 153.05,-41.87 129.94,-30.8 111,-23.18"/>
<polygon fill="midnightblue" stroke="midnightblue" points="112.12,-19.86 101.53,-19.51 109.59,-26.38 112.12,-19.86"/>
</g>
<!-- Node20&#45;&gt;Node9 -->
<g id="edge35" class="edge">
<title>Node20&#45;&gt;Node9</title>
<path fill="none" stroke="midnightblue" d="M248.43,-117.99C285.88,-102.8 368.36,-71.16 441,-56 604.73,-21.82 804.78,-13.6 888.81,-11.62"/>
<polygon fill="midnightblue" stroke="midnightblue" points="889.02,-15.12 898.94,-11.4 888.87,-8.12 889.02,-15.12"/>
</g>
<!-- Node20&#45;&gt;Node21 -->
<g id="edge32" class="edge">
<title>Node20&#45;&gt;Node21</title>
<path fill="none" stroke="midnightblue" d="M211.67,-117.98C192.79,-108.12 161.49,-91.79 139.42,-80.27"/>
<polygon fill="midnightblue" stroke="midnightblue" points="140.79,-77.03 130.3,-75.51 137.55,-83.24 140.79,-77.03"/>
</g>
<!-- Node21&#45;&gt;Node3 -->
<g id="edge33" class="edge">
<title>Node21&#45;&gt;Node3</title>
<path fill="none" stroke="midnightblue" d="M162.04,-57.85C166.75,-57.2 171.47,-56.57 176,-56 318.22,-38.05 488.2,-21.21 560.12,-14.3"/>
<polygon fill="midnightblue" stroke="midnightblue" points="560.78,-17.76 570.4,-13.32 560.12,-10.79 560.78,-17.76"/>
</g>
<!-- Node21&#45;&gt;Node4 -->
<g id="edge34" class="edge">
<title>Node21&#45;&gt;Node4</title>
<path fill="none" stroke="midnightblue" d="M107.73,-56.08C102.36,-48.46 94.48,-37.26 87.92,-27.94"/>
<polygon fill="midnightblue" stroke="midnightblue" points="90.78,-25.91 82.16,-19.75 85.05,-29.94 90.78,-25.91"/>
</g>
<!-- Node22&#45;&gt;Node3 -->
<g id="edge39" class="edge">
<title>Node22&#45;&gt;Node3</title>
<path fill="none" stroke="midnightblue" d="M957.43,-57.38C868,-45.93 701.85,-24.67 629.81,-15.45"/>
<polygon fill="midnightblue" stroke="midnightblue" points="630.25,-11.98 619.89,-14.18 629.36,-18.93 630.25,-11.98"/>
</g>
<!-- Node22&#45;&gt;Node9 -->
<g id="edge41" class="edge">
<title>Node22&#45;&gt;Node9</title>
<path fill="none" stroke="midnightblue" d="M1002.86,-56.32C989.13,-47.9 968.06,-34.97 951.94,-25.07"/>
<polygon fill="midnightblue" stroke="midnightblue" points="953.46,-21.9 943.1,-19.65 949.8,-27.87 953.46,-21.9"/>
</g>
<!-- Node22&#45;&gt;Node18 -->
<g id="edge40" class="edge">
<title>Node22&#45;&gt;Node18</title>
<path fill="none" stroke="midnightblue" d="M1017,-56.08C1017,-49.01 1017,-38.86 1017,-29.99"/>
<polygon fill="midnightblue" stroke="midnightblue" points="1020.5,-29.75 1017,-19.75 1013.5,-29.75 1020.5,-29.75"/>
</g>
</g>
</svg>
