<?xml version="1.0" encoding="UTF-8" standalone="no"?>
<!DOCTYPE svg PUBLIC "-//W3C//DTD SVG 1.1//EN"
 "http://www.w3.org/Graphics/SVG/1.1/DTD/svg11.dtd">
<!-- Generated by graphviz version 2.49.3 (20211027.1534)
 -->
<!-- Title: include/v8&#45;data.h Pages: 1 -->
<svg width="1581pt" height="520pt"
 viewBox="0.00 0.00 1580.76 520.00" xmlns="http://www.w3.org/2000/svg" xmlns:xlink="http://www.w3.org/1999/xlink">
<g id="graph0" class="graph" transform="scale(1 1) rotate(0) translate(4 516)">
<title>include/v8&#45;data.h</title>
<polygon fill="white" stroke="transparent" points="-4,4 -4,-516 1576.76,-516 1576.76,4 -4,4"/>
<!-- Node1 -->
<g id="node1" class="node">
<title>Node1</title>
<g id="a_node1"><a xlink:title=" ">
<polygon fill="#bfbfbf" stroke="black" points="563.76,-492.5 563.76,-511.5 653.76,-511.5 653.76,-492.5 563.76,-492.5"/>
<text text-anchor="middle" x="608.76" y="-499.5" font-family="Helvetica,sans-Serif" font-size="10.00">include/v8&#45;data.h</text>
</a>
</g>
</g>
<!-- Node2 -->
<g id="node2" class="node">
<title>Node2</title>
<g id="a_node2"><a xlink:href="v8-callbacks_8h.html" target="_top" xlink:title=" ">
<polygon fill="white" stroke="black" points="46.26,-436.5 46.26,-455.5 159.26,-455.5 159.26,-436.5 46.26,-436.5"/>
<text text-anchor="middle" x="102.76" y="-443.5" font-family="Helvetica,sans-Serif" font-size="10.00">include/v8&#45;callbacks.h</text>
</a>
</g>
</g>
<!-- Node1&#45;&gt;Node2 -->
<g id="edge1" class="edge">
<title>Node1&#45;&gt;Node2</title>
<path fill="none" stroke="midnightblue" d="M553.47,-495.69C470.8,-487.66 310.11,-471.69 173.76,-456 169.07,-455.46 164.21,-454.88 159.33,-454.29"/>
<polygon fill="midnightblue" stroke="midnightblue" points="553.35,-499.2 563.64,-496.68 554.02,-492.23 553.35,-499.2"/>
</g>
<!-- Node3 -->
<g id="node3" class="node">
<title>Node3</title>
<g id="a_node3"><a xlink:href="v8-isolate_8h.html" target="_top" xlink:title=" ">
<polygon fill="white" stroke="black" points="256.76,-134.5 256.76,-153.5 356.76,-153.5 356.76,-134.5 256.76,-134.5"/>
<text text-anchor="middle" x="306.76" y="-141.5" font-family="Helvetica,sans-Serif" font-size="10.00">include/v8&#45;isolate.h</text>
</a>
</g>
</g>
<!-- Node1&#45;&gt;Node3 -->
<g id="edge16" class="edge">
<title>Node1&#45;&gt;Node3</title>
<path fill="none" stroke="midnightblue" d="M553.32,-491.23C495.63,-478.66 405.42,-451.94 344.76,-400 297.8,-359.78 293.43,-337.3 279.76,-277 276.72,-263.56 279.39,-259.77 279.76,-246 280.43,-221.08 276.07,-214.01 282.76,-190 286.52,-176.52 294.78,-162.54 300.56,-153.81"/>
<polygon fill="midnightblue" stroke="midnightblue" points="552.84,-494.71 563.35,-493.35 554.28,-487.86 552.84,-494.71"/>
</g>
<!-- Node5 -->
<g id="node5" class="node">
<title>Node5</title>
<g id="a_node5"><a xlink:href="v8_8h.html" target="_top" xlink:title=" ">
<polygon fill="white" stroke="black" points="792.76,-6 792.76,-25 860.76,-25 860.76,-6 792.76,-6"/>
<text text-anchor="middle" x="826.76" y="-13" font-family="Helvetica,sans-Serif" font-size="10.00">include/v8.h</text>
</a>
</g>
</g>
<!-- Node1&#45;&gt;Node5 -->
<g id="edge71" class="edge">
<title>Node1&#45;&gt;Node5</title>
<path fill="none" stroke="midnightblue" d="M664.2,-500.54C869.23,-498.12 1572.76,-483.1 1572.76,-391 1572.76,-391 1572.76,-391 1572.76,-143 1572.76,-105.24 1566.16,-87.99 1534.76,-67 1478.35,-29.3 994.94,-19.09 861.03,-16.97"/>
<polygon fill="midnightblue" stroke="midnightblue" points="663.93,-497.04 653.97,-500.66 664.01,-504.04 663.93,-497.04"/>
</g>
<!-- Node8 -->
<g id="node8" class="node">
<title>Node8</title>
<g id="a_node8"><a xlink:href="v8-context_8h.html" target="_top" xlink:title=" ">
<polygon fill="white" stroke="black" points="1342.26,-319 1342.26,-338 1445.26,-338 1445.26,-319 1342.26,-319"/>
<text text-anchor="middle" x="1393.76" y="-326" font-family="Helvetica,sans-Serif" font-size="10.00">include/v8&#45;context.h</text>
</a>
</g>
</g>
<!-- Node1&#45;&gt;Node8 -->
<g id="edge8" class="edge">
<title>Node1&#45;&gt;Node8</title>
<path fill="none" stroke="midnightblue" d="M663.88,-499.89C788.23,-496.86 1087.14,-486.54 1182.76,-456 1267.39,-428.97 1353.79,-362.35 1383.22,-338.32"/>
<polygon fill="midnightblue" stroke="midnightblue" points="663.73,-496.39 653.82,-500.13 663.9,-503.39 663.73,-496.39"/>
</g>
<!-- Node12 -->
<g id="node12" class="node">
<title>Node12</title>
<g id="a_node12"><a xlink:href="v8-primitive_8h.html" target="_top" xlink:title=" ">
<polygon fill="white" stroke="black" points="353.76,-380.5 353.76,-399.5 461.76,-399.5 461.76,-380.5 353.76,-380.5"/>
<text text-anchor="middle" x="407.76" y="-387.5" font-family="Helvetica,sans-Serif" font-size="10.00">include/v8&#45;primitive.h</text>
</a>
</g>
</g>
<!-- Node1&#45;&gt;Node12 -->
<g id="edge17" class="edge">
<title>Node1&#45;&gt;Node12</title>
<path fill="none" stroke="midnightblue" d="M584,-487.45C542.06,-464.5 458.25,-418.63 423.46,-399.59"/>
<polygon fill="midnightblue" stroke="midnightblue" points="582.54,-490.64 592.99,-492.37 585.9,-484.5 582.54,-490.64"/>
</g>
<!-- Node16 -->
<g id="node16" class="node">
<title>Node16</title>
<g id="a_node16"><a xlink:href="v8-template_8h.html" target="_top" xlink:title=" ">
<polygon fill="white" stroke="black" points="590.26,-252 590.26,-271 699.26,-271 699.26,-252 590.26,-252"/>
<text text-anchor="middle" x="644.76" y="-259" font-family="Helvetica,sans-Serif" font-size="10.00">include/v8&#45;template.h</text>
</a>
</g>
</g>
<!-- Node1&#45;&gt;Node16 -->
<g id="edge63" class="edge">
<title>Node1&#45;&gt;Node16</title>
<path fill="none" stroke="midnightblue" d="M611.61,-482.17C618.94,-433.6 638.27,-305.49 643.47,-271.1"/>
<polygon fill="midnightblue" stroke="midnightblue" points="608.12,-481.82 610.09,-492.23 615.04,-482.86 608.12,-481.82"/>
</g>
<!-- Node20 -->
<g id="node20" class="node">
<title>Node20</title>
<g id="a_node20"><a xlink:href="v8-script_8h.html" target="_top" xlink:title=" ">
<polygon fill="white" stroke="black" points="55.26,-190.5 55.26,-209.5 150.26,-209.5 150.26,-190.5 55.26,-190.5"/>
<text text-anchor="middle" x="102.76" y="-197.5" font-family="Helvetica,sans-Serif" font-size="10.00">include/v8&#45;script.h</text>
</a>
</g>
</g>
<!-- Node1&#45;&gt;Node20 -->
<g id="edge62" class="edge">
<title>Node1&#45;&gt;Node20</title>
<path fill="none" stroke="midnightblue" d="M553.28,-500.17C417.42,-497.63 76.27,-488.11 36.76,-456 13.41,-437.02 17.76,-421.1 17.76,-391 17.76,-391 17.76,-391 17.76,-327.5 17.76,-275.38 68.1,-228.56 91.3,-209.75"/>
<polygon fill="midnightblue" stroke="midnightblue" points="553.41,-503.67 563.47,-500.35 553.53,-496.67 553.41,-503.67"/>
</g>
<!-- Node32 -->
<g id="node32" class="node">
<title>Node32</title>
<g id="a_node32"><a xlink:href="v8-value_8h.html" target="_top" xlink:title=" ">
<polygon fill="white" stroke="black" points="1078.26,-436.5 1078.26,-455.5 1173.26,-455.5 1173.26,-436.5 1078.26,-436.5"/>
<text text-anchor="middle" x="1125.76" y="-443.5" font-family="Helvetica,sans-Serif" font-size="10.00">include/v8&#45;value.h</text>
</a>
</g>
</g>
<!-- Node1&#45;&gt;Node32 -->
<g id="edge64" class="edge">
<title>Node1&#45;&gt;Node32</title>
<path fill="none" stroke="midnightblue" d="M664.29,-495.2C766.35,-484.54 982.07,-462.01 1078.01,-451.99"/>
<polygon fill="midnightblue" stroke="midnightblue" points="663.77,-491.74 654.19,-496.26 664.5,-498.7 663.77,-491.74"/>
</g>
<!-- Node2&#45;&gt;Node3 -->
<g id="edge2" class="edge">
<title>Node2&#45;&gt;Node3</title>
<path fill="none" stroke="midnightblue" d="M100.32,-425.9C96.51,-388.53 92.76,-304.32 126.76,-246 147.9,-209.75 166.39,-210.91 202.76,-190 229.03,-174.9 261.33,-161.68 282.9,-153.55"/>
<polygon fill="midnightblue" stroke="midnightblue" points="96.9,-426.76 101.51,-436.3 103.85,-425.96 96.9,-426.76"/>
</g>
<!-- Node4 -->
<g id="node4" class="node">
<title>Node4</title>
<g id="a_node4"><a xlink:href="v8-initialization_8h.html" target="_top" xlink:title=" ">
<polygon fill="white" stroke="black" points="294.76,-73 294.76,-92 416.76,-92 416.76,-73 294.76,-73"/>
<text text-anchor="middle" x="355.76" y="-80" font-family="Helvetica,sans-Serif" font-size="10.00">include/v8&#45;initialization.h</text>
</a>
</g>
</g>
<!-- Node3&#45;&gt;Node4 -->
<g id="edge3" class="edge">
<title>Node3&#45;&gt;Node4</title>
<path fill="none" stroke="midnightblue" d="M320.21,-126.67C329.45,-115.45 341.34,-101.02 348.76,-92.01"/>
<polygon fill="midnightblue" stroke="midnightblue" points="317.44,-124.53 313.78,-134.48 322.84,-128.98 317.44,-124.53"/>
</g>
<!-- Node3&#45;&gt;Node5 -->
<g id="edge7" class="edge">
<title>Node3&#45;&gt;Node5</title>
<path fill="none" stroke="midnightblue" d="M293.96,-125.88C282.95,-108.93 270.98,-83.22 285.76,-67 319.95,-29.47 679.12,-19.35 792.6,-17.08"/>
<polygon fill="midnightblue" stroke="midnightblue" points="291.22,-128.07 299.8,-134.28 296.97,-124.08 291.22,-128.07"/>
</g>
<!-- Node6 -->
<g id="node6" class="node">
<title>Node6</title>
<g id="a_node6"><a xlink:href="v8-inspector_8h.html" target="_top" xlink:title=" ">
<polygon fill="white" stroke="black" points="89.26,-73 89.26,-92 200.26,-92 200.26,-73 89.26,-73"/>
<text text-anchor="middle" x="144.76" y="-80" font-family="Helvetica,sans-Serif" font-size="10.00">include/v8&#45;inspector.h</text>
</a>
</g>
</g>
<!-- Node3&#45;&gt;Node6 -->
<g id="edge5" class="edge">
<title>Node3&#45;&gt;Node6</title>
<path fill="none" stroke="midnightblue" d="M273.91,-130.93C242.42,-119.37 195.7,-102.21 167.93,-92.01"/>
<polygon fill="midnightblue" stroke="midnightblue" points="272.96,-134.31 283.55,-134.48 275.37,-127.74 272.96,-134.31"/>
</g>
<!-- Node4&#45;&gt;Node5 -->
<g id="edge4" class="edge">
<title>Node4&#45;&gt;Node5</title>
<path fill="none" stroke="midnightblue" d="M407.18,-71.11C415.07,-69.64 423.12,-68.22 430.76,-67 564.21,-45.61 724.12,-27.51 792.76,-20.09"/>
<polygon fill="midnightblue" stroke="midnightblue" points="406.51,-67.67 397.33,-72.97 407.81,-74.55 406.51,-67.67"/>
</g>
<!-- Node7 -->
<g id="node7" class="node">
<title>Node7</title>
<g id="a_node7"><a xlink:href="v8-inspector-protocol_8h.html" target="_top" xlink:title=" ">
<polygon fill="white" stroke="black" points="92.76,-0.5 92.76,-30.5 196.76,-30.5 196.76,-0.5 92.76,-0.5"/>
<text text-anchor="start" x="100.76" y="-18.5" font-family="Helvetica,sans-Serif" font-size="10.00">include/v8&#45;inspector</text>
<text text-anchor="middle" x="144.76" y="-7.5" font-family="Helvetica,sans-Serif" font-size="10.00">&#45;protocol.h</text>
</a>
</g>
</g>
<!-- Node6&#45;&gt;Node7 -->
<g id="edge6" class="edge">
<title>Node6&#45;&gt;Node7</title>
<path fill="none" stroke="midnightblue" d="M144.76,-62.41C144.76,-52.22 144.76,-39.9 144.76,-30.59"/>
<polygon fill="midnightblue" stroke="midnightblue" points="141.26,-62.73 144.76,-72.73 148.26,-62.73 141.26,-62.73"/>
</g>
<!-- Node8&#45;&gt;Node5 -->
<g id="edge15" class="edge">
<title>Node8&#45;&gt;Node5</title>
<path fill="none" stroke="midnightblue" d="M1411.71,-311.97C1421.35,-302.72 1432.67,-290.23 1439.76,-277 1456.21,-246.31 1458.76,-235.82 1458.76,-201 1458.76,-201 1458.76,-201 1458.76,-143 1458.76,-104.41 1449.14,-88.01 1416.76,-67 1370.03,-36.67 979.48,-21.5 860.82,-17.56"/>
<polygon fill="midnightblue" stroke="midnightblue" points="1409.14,-309.58 1404.14,-318.92 1413.88,-314.74 1409.14,-309.58"/>
</g>
<!-- Node9 -->
<g id="node9" class="node">
<title>Node9</title>
<g id="a_node9"><a xlink:href="v8-embedder-state-scope_8h.html" target="_top" xlink:title=" ">
<polygon fill="white" stroke="black" points="1323.26,-246.5 1323.26,-276.5 1430.26,-276.5 1430.26,-246.5 1323.26,-246.5"/>
<text text-anchor="start" x="1331.26" y="-264.5" font-family="Helvetica,sans-Serif" font-size="10.00">include/v8&#45;embedder</text>
<text text-anchor="middle" x="1376.76" y="-253.5" font-family="Helvetica,sans-Serif" font-size="10.00">&#45;state&#45;scope.h</text>
</a>
</g>
</g>
<!-- Node8&#45;&gt;Node9 -->
<g id="edge9" class="edge">
<title>Node8&#45;&gt;Node9</title>
<path fill="none" stroke="midnightblue" d="M1388.86,-308.74C1386.18,-298.49 1382.91,-286 1380.45,-276.59"/>
<polygon fill="midnightblue" stroke="midnightblue" points="1385.55,-309.94 1391.47,-318.73 1392.33,-308.17 1385.55,-309.94"/>
</g>
<!-- Node11 -->
<g id="node11" class="node">
<title>Node11</title>
<g id="a_node11"><a xlink:href="v8-proxy_8h.html" target="_top" xlink:title=" ">
<polygon fill="white" stroke="black" points="1210.76,-252 1210.76,-271 1304.76,-271 1304.76,-252 1210.76,-252"/>
<text text-anchor="middle" x="1257.76" y="-259" font-family="Helvetica,sans-Serif" font-size="10.00">include/v8&#45;proxy.h</text>
</a>
</g>
</g>
<!-- Node8&#45;&gt;Node11 -->
<g id="edge13" class="edge">
<title>Node8&#45;&gt;Node11</title>
<path fill="none" stroke="midnightblue" d="M1366.45,-314.44C1339.51,-301.57 1299.1,-282.26 1275.9,-271.17"/>
<polygon fill="midnightblue" stroke="midnightblue" points="1365.17,-317.71 1375.7,-318.87 1368.19,-311.4 1365.17,-317.71"/>
</g>
<!-- Node10 -->
<g id="node10" class="node">
<title>Node10</title>
<g id="a_node10"><a xlink:href="v8-unwinder_8h.html" target="_top" xlink:title=" ">
<polygon fill="white" stroke="black" points="1320.76,-190.5 1320.76,-209.5 1430.76,-209.5 1430.76,-190.5 1320.76,-190.5"/>
<text text-anchor="middle" x="1375.76" y="-197.5" font-family="Helvetica,sans-Serif" font-size="10.00">include/v8&#45;unwinder.h</text>
</a>
</g>
</g>
<!-- Node9&#45;&gt;Node10 -->
<g id="edge10" class="edge">
<title>Node9&#45;&gt;Node10</title>
<path fill="none" stroke="midnightblue" d="M1376.36,-236.29C1376.2,-226.86 1376.03,-216.65 1375.91,-209.66"/>
<polygon fill="midnightblue" stroke="midnightblue" points="1372.86,-236.46 1376.53,-246.4 1379.86,-236.34 1372.86,-236.46"/>
</g>
<!-- Node10&#45;&gt;Node3 -->
<g id="edge11" class="edge">
<title>Node10&#45;&gt;Node3</title>
<path fill="none" stroke="midnightblue" d="M1310.37,-195.7C1113.92,-185.77 531.77,-156.37 356.95,-147.54"/>
<polygon fill="midnightblue" stroke="midnightblue" points="1310.38,-199.2 1320.54,-196.21 1310.73,-192.21 1310.38,-199.2"/>
</g>
<!-- Node10&#45;&gt;Node5 -->
<g id="edge12" class="edge">
<title>Node10&#45;&gt;Node5</title>
<path fill="none" stroke="midnightblue" d="M1386.36,-181.56C1401.83,-153.6 1425.77,-98.7 1396.76,-67 1360.5,-27.38 978.77,-18.66 861.1,-16.91"/>
<polygon fill="midnightblue" stroke="midnightblue" points="1383.32,-179.83 1381.34,-190.24 1389.38,-183.33 1383.32,-179.83"/>
</g>
<!-- Node11&#45;&gt;Node5 -->
<g id="edge14" class="edge">
<title>Node11&#45;&gt;Node5</title>
<path fill="none" stroke="midnightblue" d="M1268.78,-243.16C1278.86,-228.1 1294.76,-206.21 1311.76,-190 1332.11,-170.61 1350.72,-178.9 1363.76,-154 1385.34,-112.81 1323.32,-74.84 1308.76,-67 1231.16,-25.22 957.77,-18 861.01,-16.76"/>
<polygon fill="midnightblue" stroke="midnightblue" points="1265.84,-241.27 1263.3,-251.55 1271.7,-245.1 1265.84,-241.27"/>
</g>
<!-- Node12&#45;&gt;Node3 -->
<g id="edge28" class="edge">
<title>Node12&#45;&gt;Node3</title>
<path fill="none" stroke="midnightblue" d="M385.08,-374.69C357.77,-356 313.16,-320.48 293.76,-277 278.01,-241.66 284.19,-228.13 290.76,-190 293.02,-176.93 298.7,-162.62 302.65,-153.72"/>
<polygon fill="midnightblue" stroke="midnightblue" points="383.36,-377.74 393.62,-380.37 387.24,-371.91 383.36,-377.74"/>
</g>
<!-- Node12&#45;&gt;Node5 -->
<g id="edge61" class="edge">
<title>Node12&#45;&gt;Node5</title>
<path fill="none" stroke="midnightblue" d="M343.43,-378.62C216.93,-354.73 -47.35,-285.88 7.76,-134 21,-97.52 29.17,-84.59 63.76,-67 129.29,-33.68 652.63,-20.21 792.5,-17.19"/>
<polygon fill="midnightblue" stroke="midnightblue" points="342.93,-382.08 353.4,-380.46 344.2,-375.2 342.93,-382.08"/>
</g>
<!-- Node13 -->
<g id="node13" class="node">
<title>Node13</title>
<g id="a_node13"><a xlink:href="v8-extension_8h.html" target="_top" xlink:title=" ">
<polygon fill="white" stroke="black" points="17.26,-134.5 17.26,-153.5 130.26,-153.5 130.26,-134.5 17.26,-134.5"/>
<text text-anchor="middle" x="73.76" y="-141.5" font-family="Helvetica,sans-Serif" font-size="10.00">include/v8&#45;extension.h</text>
</a>
</g>
</g>
<!-- Node12&#45;&gt;Node13 -->
<g id="edge18" class="edge">
<title>Node12&#45;&gt;Node13</title>
<path fill="none" stroke="midnightblue" d="M376.36,-376.64C357.09,-368.49 332.26,-356.96 311.76,-344 253.85,-307.4 254.02,-276.7 192.76,-246 132.63,-215.86 87.29,-262.92 45.76,-210 31.96,-192.41 51.93,-166.98 64.64,-153.74"/>
<polygon fill="midnightblue" stroke="midnightblue" points="375.02,-379.88 385.6,-380.47 377.7,-373.41 375.02,-379.88"/>
</g>
<!-- Node14 -->
<g id="node14" class="node">
<title>Node14</title>
<g id="a_node14"><a xlink:href="v8-function-callback_8h.html" target="_top" xlink:title=" ">
<polygon fill="white" stroke="black" points="442.76,-313.5 442.76,-343.5 540.76,-343.5 540.76,-313.5 442.76,-313.5"/>
<text text-anchor="start" x="450.76" y="-331.5" font-family="Helvetica,sans-Serif" font-size="10.00">include/v8&#45;function</text>
<text text-anchor="middle" x="491.76" y="-320.5" font-family="Helvetica,sans-Serif" font-size="10.00">&#45;callback.h</text>
</a>
</g>
</g>
<!-- Node12&#45;&gt;Node14 -->
<g id="edge20" class="edge">
<title>Node12&#45;&gt;Node14</title>
<path fill="none" stroke="midnightblue" d="M428.28,-374.47C441.58,-365.05 458.81,-352.84 471.97,-343.52"/>
<polygon fill="midnightblue" stroke="midnightblue" points="425.94,-371.84 419.8,-380.48 429.98,-377.55 425.94,-371.84"/>
</g>
<!-- Node18 -->
<g id="node18" class="node">
<title>Node18</title>
<g id="a_node18"><a xlink:href="v8-message_8h.html" target="_top" xlink:title=" ">
<polygon fill="white" stroke="black" points="321.26,-252 321.26,-271 432.26,-271 432.26,-252 321.26,-252"/>
<text text-anchor="middle" x="376.76" y="-259" font-family="Helvetica,sans-Serif" font-size="10.00">include/v8&#45;message.h</text>
</a>
</g>
</g>
<!-- Node12&#45;&gt;Node18 -->
<g id="edge29" class="edge">
<title>Node12&#45;&gt;Node18</title>
<path fill="none" stroke="midnightblue" d="M403.18,-370.31C396.39,-342.58 383.9,-291.63 378.91,-271.26"/>
<polygon fill="midnightblue" stroke="midnightblue" points="399.85,-371.43 405.63,-380.31 406.65,-369.76 399.85,-371.43"/>
</g>
<!-- Node21 -->
<g id="node21" class="node">
<title>Node21</title>
<g id="a_node21"><a xlink:href="v8-object_8h.html" target="_top" xlink:title=" ">
<polygon fill="white" stroke="black" points="943.76,-319 943.76,-338 1041.76,-338 1041.76,-319 943.76,-319"/>
<text text-anchor="middle" x="992.76" y="-326" font-family="Helvetica,sans-Serif" font-size="10.00">include/v8&#45;object.h</text>
</a>
</g>
</g>
<!-- Node12&#45;&gt;Node21 -->
<g id="edge35" class="edge">
<title>Node12&#45;&gt;Node21</title>
<path fill="none" stroke="midnightblue" d="M471.97,-382.47C589.76,-370.49 837.95,-345.25 943.54,-334.51"/>
<polygon fill="midnightblue" stroke="midnightblue" points="471.61,-378.99 462.01,-383.48 472.31,-385.95 471.61,-378.99"/>
</g>
<!-- Node13&#45;&gt;Node5 -->
<g id="edge19" class="edge">
<title>Node13&#45;&gt;Node5</title>
<path fill="none" stroke="midnightblue" d="M69.16,-124.41C66.09,-107.05 64.94,-81.66 79.76,-67 130.95,-16.39 652.79,-15.55 792.51,-16.25"/>
<polygon fill="midnightblue" stroke="midnightblue" points="65.8,-125.43 71.31,-134.48 72.64,-123.96 65.8,-125.43"/>
</g>
<!-- Node14&#45;&gt;Node3 -->
<g id="edge23" class="edge">
<title>Node14&#45;&gt;Node3</title>
<path fill="none" stroke="midnightblue" d="M432.42,-318.37C386.31,-309.96 327.77,-295.91 312.76,-277 283.25,-239.8 297.54,-176.45 304.1,-153.57"/>
<polygon fill="midnightblue" stroke="midnightblue" points="431.88,-321.83 442.34,-320.14 433.11,-314.94 431.88,-321.83"/>
</g>
<!-- Node15 -->
<g id="node15" class="node">
<title>Node15</title>
<g id="a_node15"><a xlink:href="v8-function_8h.html" target="_top" xlink:title=" ">
<polygon fill="white" stroke="black" points="476.76,-190.5 476.76,-209.5 582.76,-209.5 582.76,-190.5 476.76,-190.5"/>
<text text-anchor="middle" x="529.76" y="-197.5" font-family="Helvetica,sans-Serif" font-size="10.00">include/v8&#45;function.h</text>
</a>
</g>
</g>
<!-- Node14&#45;&gt;Node15 -->
<g id="edge21" class="edge">
<title>Node14&#45;&gt;Node15</title>
<path fill="none" stroke="midnightblue" d="M520.21,-306.85C529.18,-298.68 537.98,-288.47 542.76,-277 552.35,-254.02 541.14,-224.31 534.3,-209.79"/>
<polygon fill="midnightblue" stroke="midnightblue" points="517.75,-304.36 512.4,-313.5 522.28,-309.69 517.75,-304.36"/>
</g>
<!-- Node14&#45;&gt;Node16 -->
<g id="edge24" class="edge">
<title>Node14&#45;&gt;Node16</title>
<path fill="none" stroke="midnightblue" d="M534.23,-309.46C563.79,-296.9 601.87,-280.72 624.74,-271.01"/>
<polygon fill="midnightblue" stroke="midnightblue" points="532.8,-306.26 524.96,-313.4 535.53,-312.71 532.8,-306.26"/>
</g>
<!-- Node17 -->
<g id="node17" class="node">
<title>Node17</title>
<g id="a_node17"><a xlink:href="v8-util_8h.html" target="_top" xlink:title=" ">
<polygon fill="white" stroke="black" points="449.76,-252 449.76,-271 533.76,-271 533.76,-252 449.76,-252"/>
<text text-anchor="middle" x="491.76" y="-259" font-family="Helvetica,sans-Serif" font-size="10.00">include/v8&#45;util.h</text>
</a>
</g>
</g>
<!-- Node14&#45;&gt;Node17 -->
<g id="edge27" class="edge">
<title>Node14&#45;&gt;Node17</title>
<path fill="none" stroke="midnightblue" d="M491.76,-303.25C491.76,-292.02 491.76,-279.38 491.76,-271.19"/>
<polygon fill="midnightblue" stroke="midnightblue" points="488.26,-303.4 491.76,-313.4 495.26,-303.4 488.26,-303.4"/>
</g>
<!-- Node15&#45;&gt;Node5 -->
<g id="edge22" class="edge">
<title>Node15&#45;&gt;Node5</title>
<path fill="none" stroke="midnightblue" d="M528.62,-180.08C527.99,-151.28 531.39,-96.67 562.76,-67 595.48,-36.06 728.92,-23.07 792.61,-18.55"/>
<polygon fill="midnightblue" stroke="midnightblue" points="525.13,-180.53 529.04,-190.38 532.13,-180.24 525.13,-180.53"/>
</g>
<!-- Node16&#45;&gt;Node5 -->
<g id="edge26" class="edge">
<title>Node16&#45;&gt;Node5</title>
<path fill="none" stroke="midnightblue" d="M634.68,-242.5C615.39,-205.36 578.65,-119.35 619.76,-67 640.9,-40.09 739.59,-25.7 792.71,-19.79"/>
<polygon fill="midnightblue" stroke="midnightblue" points="631.76,-244.46 639.58,-251.61 637.93,-241.14 631.76,-244.46"/>
</g>
<!-- Node16&#45;&gt;Node15 -->
<g id="edge25" class="edge">
<title>Node16&#45;&gt;Node15</title>
<path fill="none" stroke="midnightblue" d="M619.38,-247.37C597.09,-235.83 565.33,-219.4 546.21,-209.51"/>
<polygon fill="midnightblue" stroke="midnightblue" points="617.8,-250.49 628.29,-251.98 621.01,-244.27 617.8,-250.49"/>
</g>
<!-- Node18&#45;&gt;Node5 -->
<g id="edge34" class="edge">
<title>Node18&#45;&gt;Node5</title>
<path fill="none" stroke="midnightblue" d="M362.4,-243.83C351.64,-229.2 340.26,-207.57 349.76,-190 397.26,-102.17 444.9,-103.68 537.76,-67 625.4,-32.38 737.3,-21.43 792.63,-18.01"/>
<polygon fill="midnightblue" stroke="midnightblue" points="359.88,-246.28 368.84,-251.94 365.36,-241.93 359.88,-246.28"/>
</g>
<!-- Node18&#45;&gt;Node15 -->
<g id="edge30" class="edge">
<title>Node18&#45;&gt;Node15</title>
<path fill="none" stroke="midnightblue" d="M408.18,-248.28C437.91,-236.72 481.77,-219.66 507.88,-209.51"/>
<polygon fill="midnightblue" stroke="midnightblue" points="406.74,-245.09 398.68,-251.98 409.27,-251.61 406.74,-245.09"/>
</g>
<!-- Node19 -->
<g id="node19" class="node">
<title>Node19</title>
<g id="a_node19"><a xlink:href="v8-profiler_8h.html" target="_top" xlink:title=" ">
<polygon fill="white" stroke="black" points="358.76,-190.5 358.76,-209.5 458.76,-209.5 458.76,-190.5 358.76,-190.5"/>
<text text-anchor="middle" x="408.76" y="-197.5" font-family="Helvetica,sans-Serif" font-size="10.00">include/v8&#45;profiler.h</text>
</a>
</g>
</g>
<!-- Node18&#45;&gt;Node19 -->
<g id="edge31" class="edge">
<title>Node18&#45;&gt;Node19</title>
<path fill="none" stroke="midnightblue" d="M386.26,-242.83C392.18,-231.83 399.53,-218.16 404.19,-209.51"/>
<polygon fill="midnightblue" stroke="midnightblue" points="383,-241.51 381.35,-251.98 389.17,-244.83 383,-241.51"/>
</g>
<!-- Node18&#45;&gt;Node20 -->
<g id="edge32" class="edge">
<title>Node18&#45;&gt;Node20</title>
<path fill="none" stroke="midnightblue" d="M327.63,-249.83C274.49,-238.29 190.85,-220.13 141.95,-209.51"/>
<polygon fill="midnightblue" stroke="midnightblue" points="326.99,-253.27 337.51,-251.98 328.48,-246.43 326.99,-253.27"/>
</g>
<!-- Node20&#45;&gt;Node5 -->
<g id="edge33" class="edge">
<title>Node20&#45;&gt;Node5</title>
<path fill="none" stroke="midnightblue" d="M117.79,-182.5C145.53,-153.29 208.08,-93.09 274.76,-67 369.98,-29.75 687.47,-19.54 792.61,-17.15"/>
<polygon fill="midnightblue" stroke="midnightblue" points="114.88,-180.48 110.62,-190.18 120,-185.26 114.88,-180.48"/>
</g>
<!-- Node21&#45;&gt;Node5 -->
<g id="edge60" class="edge">
<title>Node21&#45;&gt;Node5</title>
<path fill="none" stroke="midnightblue" d="M994.96,-308.57C998.23,-271.61 1000.54,-188.68 963.76,-134 947.04,-109.14 930.08,-116.82 906.76,-98 891.49,-85.67 851.99,-43.66 834.87,-25.26"/>
<polygon fill="midnightblue" stroke="midnightblue" points="991.44,-308.56 993.91,-318.86 998.4,-309.27 991.44,-308.56"/>
</g>
<!-- Node21&#45;&gt;Node11 -->
<g id="edge54" class="edge">
<title>Node21&#45;&gt;Node11</title>
<path fill="none" stroke="midnightblue" d="M1037.67,-316.48C1089.95,-303.66 1175.16,-282.76 1222.77,-271.08"/>
<polygon fill="midnightblue" stroke="midnightblue" points="1036.56,-313.15 1027.68,-318.94 1038.23,-319.95 1036.56,-313.15"/>
</g>
<!-- Node21&#45;&gt;Node15 -->
<g id="edge46" class="edge">
<title>Node21&#45;&gt;Node15</title>
<path fill="none" stroke="midnightblue" d="M933.46,-323.33C882,-317.88 806.58,-305.41 746.76,-277 727.08,-267.65 728.24,-255.78 708.76,-246 668.96,-226.02 619.61,-214.47 582.81,-208.08"/>
<polygon fill="midnightblue" stroke="midnightblue" points="933.13,-326.81 943.42,-324.33 933.82,-319.85 933.13,-326.81"/>
</g>
<!-- Node21&#45;&gt;Node16 -->
<g id="edge57" class="edge">
<title>Node21&#45;&gt;Node16</title>
<path fill="none" stroke="midnightblue" d="M933.36,-317.25C876.81,-307.37 789.37,-291.78 713.76,-277 704.27,-275.14 694.07,-273.05 684.5,-271.05"/>
<polygon fill="midnightblue" stroke="midnightblue" points="933.09,-320.75 943.55,-319.02 934.3,-313.86 933.09,-320.75"/>
</g>
<!-- Node22 -->
<g id="node22" class="node">
<title>Node22</title>
<g id="a_node22"><a xlink:href="v8-array-buffer_8h.html" target="_top" xlink:title=" ">
<polygon fill="white" stroke="black" points="845.26,-190.5 845.26,-209.5 964.26,-209.5 964.26,-190.5 845.26,-190.5"/>
<text text-anchor="middle" x="904.76" y="-197.5" font-family="Helvetica,sans-Serif" font-size="10.00">include/v8&#45;array&#45;buffer.h</text>
</a>
</g>
</g>
<!-- Node21&#45;&gt;Node22 -->
<g id="edge36" class="edge">
<title>Node21&#45;&gt;Node22</title>
<path fill="none" stroke="midnightblue" d="M980.77,-310.26C961.74,-282.9 925.28,-230.49 910.85,-209.76"/>
<polygon fill="midnightblue" stroke="midnightblue" points="978.13,-312.59 986.72,-318.81 983.88,-308.6 978.13,-312.59"/>
</g>
<!-- Node25 -->
<g id="node25" class="node">
<title>Node25</title>
<g id="a_node25"><a xlink:href="v8-container_8h.html" target="_top" xlink:title=" ">
<polygon fill="white" stroke="black" points="1011.26,-134.5 1011.26,-153.5 1122.26,-153.5 1122.26,-134.5 1011.26,-134.5"/>
<text text-anchor="middle" x="1066.76" y="-141.5" font-family="Helvetica,sans-Serif" font-size="10.00">include/v8&#45;container.h</text>
</a>
</g>
</g>
<!-- Node21&#45;&gt;Node25 -->
<g id="edge42" class="edge">
<title>Node21&#45;&gt;Node25</title>
<path fill="none" stroke="midnightblue" d="M1000.18,-309.22C1015.85,-270.57 1051.83,-181.83 1063.23,-153.71"/>
<polygon fill="midnightblue" stroke="midnightblue" points="996.85,-308.12 996.33,-318.7 1003.33,-310.75 996.85,-308.12"/>
</g>
<!-- Node26 -->
<g id="node26" class="node">
<title>Node26</title>
<g id="a_node26"><a xlink:href="v8-date_8h.html" target="_top" xlink:title=" ">
<polygon fill="white" stroke="black" points="1067.76,-73 1067.76,-92 1157.76,-92 1157.76,-73 1067.76,-73"/>
<text text-anchor="middle" x="1112.76" y="-80" font-family="Helvetica,sans-Serif" font-size="10.00">include/v8&#45;date.h</text>
</a>
</g>
</g>
<!-- Node21&#45;&gt;Node26 -->
<g id="edge44" class="edge">
<title>Node21&#45;&gt;Node26</title>
<path fill="none" stroke="midnightblue" d="M1006.55,-310.68C1014.39,-300.96 1024.31,-288.43 1032.76,-277 1060.69,-239.24 1061.98,-225.48 1092.76,-190 1108.22,-172.18 1122.3,-175.61 1131.76,-154 1141.12,-132.63 1127.21,-105.56 1118.65,-92.02"/>
<polygon fill="midnightblue" stroke="midnightblue" points="1003.62,-308.73 1000.03,-318.7 1009.05,-313.15 1003.62,-308.73"/>
</g>
<!-- Node27 -->
<g id="node27" class="node">
<title>Node27</title>
<g id="a_node27"><a xlink:href="v8-primitive-object_8h.html" target="_top" xlink:title=" ">
<polygon fill="white" stroke="black" points="1176.26,-67.5 1176.26,-97.5 1277.26,-97.5 1277.26,-67.5 1176.26,-67.5"/>
<text text-anchor="start" x="1184.26" y="-85.5" font-family="Helvetica,sans-Serif" font-size="10.00">include/v8&#45;primitive</text>
<text text-anchor="middle" x="1226.76" y="-74.5" font-family="Helvetica,sans-Serif" font-size="10.00">&#45;object.h</text>
</a>
</g>
</g>
<!-- Node21&#45;&gt;Node27 -->
<g id="edge47" class="edge">
<title>Node21&#45;&gt;Node27</title>
<path fill="none" stroke="midnightblue" d="M1013.36,-312.75C1026.3,-303.13 1043.08,-289.98 1056.76,-277 1121.97,-215.14 1189.58,-131.13 1215.62,-97.89"/>
<polygon fill="midnightblue" stroke="midnightblue" points="1011.09,-310.08 1005.09,-318.81 1015.23,-315.72 1011.09,-310.08"/>
</g>
<!-- Node28 -->
<g id="node28" class="node">
<title>Node28</title>
<g id="a_node28"><a xlink:href="v8-promise_8h.html" target="_top" xlink:title=" ">
<polygon fill="white" stroke="black" points="755.76,-252 755.76,-271 861.76,-271 861.76,-252 755.76,-252"/>
<text text-anchor="middle" x="808.76" y="-259" font-family="Helvetica,sans-Serif" font-size="10.00">include/v8&#45;promise.h</text>
</a>
</g>
</g>
<!-- Node21&#45;&gt;Node28 -->
<g id="edge49" class="edge">
<title>Node21&#45;&gt;Node28</title>
<path fill="none" stroke="midnightblue" d="M958.61,-315.44C922.11,-302.54 865.16,-282.42 833.01,-271.06"/>
<polygon fill="midnightblue" stroke="midnightblue" points="957.74,-318.84 968.33,-318.87 960.07,-312.24 957.74,-318.84"/>
</g>
<!-- Node30 -->
<g id="node30" class="node">
<title>Node30</title>
<g id="a_node30"><a xlink:href="v8-regexp_8h.html" target="_top" xlink:title=" ">
<polygon fill="white" stroke="black" points="1254.76,-134.5 1254.76,-153.5 1354.76,-153.5 1354.76,-134.5 1254.76,-134.5"/>
<text text-anchor="middle" x="1304.76" y="-141.5" font-family="Helvetica,sans-Serif" font-size="10.00">include/v8&#45;regexp.h</text>
</a>
</g>
</g>
<!-- Node21&#45;&gt;Node30 -->
<g id="edge55" class="edge">
<title>Node21&#45;&gt;Node30</title>
<path fill="none" stroke="midnightblue" d="M1029.4,-315.76C1055.59,-306.71 1091.28,-293.07 1120.76,-277 1191.87,-238.24 1267.69,-176.39 1294.59,-153.7"/>
<polygon fill="midnightblue" stroke="midnightblue" points="1028.2,-312.46 1019.85,-318.99 1030.45,-319.09 1028.2,-312.46"/>
</g>
<!-- Node31 -->
<g id="node31" class="node">
<title>Node31</title>
<g id="a_node31"><a xlink:href="v8-wasm_8h.html" target="_top" xlink:title=" ">
<polygon fill="white" stroke="black" points="680.76,-134.5 680.76,-153.5 778.76,-153.5 778.76,-134.5 680.76,-134.5"/>
<text text-anchor="middle" x="729.76" y="-141.5" font-family="Helvetica,sans-Serif" font-size="10.00">include/v8&#45;wasm.h</text>
</a>
</g>
</g>
<!-- Node21&#45;&gt;Node31 -->
<g id="edge58" class="edge">
<title>Node21&#45;&gt;Node31</title>
<path fill="none" stroke="midnightblue" d="M971.94,-313.05C919.6,-276.73 783.7,-182.43 742.07,-153.54"/>
<polygon fill="midnightblue" stroke="midnightblue" points="970.22,-316.12 980.43,-318.94 974.21,-310.37 970.22,-316.12"/>
</g>
<!-- Node22&#45;&gt;Node3 -->
<g id="edge37" class="edge">
<title>Node22&#45;&gt;Node3</title>
<path fill="none" stroke="midnightblue" d="M835.27,-192.72C713.37,-181.72 463.84,-159.18 357.06,-149.54"/>
<polygon fill="midnightblue" stroke="midnightblue" points="834.96,-196.21 845.24,-193.62 835.59,-189.24 834.96,-196.21"/>
</g>
<!-- Node22&#45;&gt;Node5 -->
<g id="edge41" class="edge">
<title>Node22&#45;&gt;Node5</title>
<path fill="none" stroke="midnightblue" d="M866.38,-186.5C851.25,-179.48 835.44,-169.02 826.76,-154 802.17,-111.42 817.16,-48.33 823.95,-25.31"/>
<polygon fill="midnightblue" stroke="midnightblue" points="865.07,-189.75 875.64,-190.44 867.81,-183.31 865.07,-189.75"/>
</g>
<!-- Node23 -->
<g id="node23" class="node">
<title>Node23</title>
<g id="a_node23"><a xlink:href="v8-typed-array_8h.html" target="_top" xlink:title=" ">
<polygon fill="white" stroke="black" points="835.26,-134.5 835.26,-153.5 954.26,-153.5 954.26,-134.5 835.26,-134.5"/>
<text text-anchor="middle" x="894.76" y="-141.5" font-family="Helvetica,sans-Serif" font-size="10.00">include/v8&#45;typed&#45;array.h</text>
</a>
</g>
</g>
<!-- Node22&#45;&gt;Node23 -->
<g id="edge38" class="edge">
<title>Node22&#45;&gt;Node23</title>
<path fill="none" stroke="midnightblue" d="M901.26,-180.1C899.6,-171.14 897.7,-160.86 896.38,-153.75"/>
<polygon fill="midnightblue" stroke="midnightblue" points="897.85,-180.89 903.11,-190.08 904.73,-179.61 897.85,-180.89"/>
</g>
<!-- Node23&#45;&gt;Node5 -->
<g id="edge40" class="edge">
<title>Node23&#45;&gt;Node5</title>
<path fill="none" stroke="midnightblue" d="M885.3,-125.4C870.54,-97.94 842.57,-45.9 831.47,-25.26"/>
<polygon fill="midnightblue" stroke="midnightblue" points="882.27,-127.15 890.09,-134.31 888.44,-123.84 882.27,-127.15"/>
</g>
<!-- Node24 -->
<g id="node24" class="node">
<title>Node24</title>
<g id="a_node24"><a xlink:href="v8-fast-api-calls_8h.html" target="_top" xlink:title=" ">
<polygon fill="white" stroke="black" points="915.76,-67.5 915.76,-97.5 1011.76,-97.5 1011.76,-67.5 915.76,-67.5"/>
<text text-anchor="start" x="923.76" y="-85.5" font-family="Helvetica,sans-Serif" font-size="10.00">include/v8&#45;fast&#45;api</text>
<text text-anchor="middle" x="963.76" y="-74.5" font-family="Helvetica,sans-Serif" font-size="10.00">&#45;calls.h</text>
</a>
</g>
</g>
<!-- Node23&#45;&gt;Node24 -->
<g id="edge39" class="edge">
<title>Node23&#45;&gt;Node24</title>
<path fill="none" stroke="midnightblue" d="M912.25,-127.92C923.08,-118.58 936.9,-106.66 947.5,-97.52"/>
<polygon fill="midnightblue" stroke="midnightblue" points="909.94,-125.29 904.65,-134.48 914.51,-130.6 909.94,-125.29"/>
</g>
<!-- Node25&#45;&gt;Node5 -->
<g id="edge43" class="edge">
<title>Node25&#45;&gt;Node5</title>
<path fill="none" stroke="midnightblue" d="M1060.42,-124.85C1053.41,-107.42 1040.42,-81.66 1020.76,-67 973.05,-31.43 902.52,-20.85 860.94,-17.74"/>
<polygon fill="midnightblue" stroke="midnightblue" points="1057.24,-126.31 1064.03,-134.44 1063.79,-123.85 1057.24,-126.31"/>
</g>
<!-- Node26&#45;&gt;Node5 -->
<g id="edge45" class="edge">
<title>Node26&#45;&gt;Node5</title>
<path fill="none" stroke="midnightblue" d="M1068.43,-70.49C1063.49,-69.3 1058.52,-68.11 1053.76,-67 985.56,-51.03 905.54,-33.51 861.04,-23.88"/>
<polygon fill="midnightblue" stroke="midnightblue" points="1067.93,-73.97 1078.48,-72.94 1069.59,-67.17 1067.93,-73.97"/>
</g>
<!-- Node27&#45;&gt;Node5 -->
<g id="edge48" class="edge">
<title>Node27&#45;&gt;Node5</title>
<path fill="none" stroke="midnightblue" d="M1166.2,-67C1048.54,-44.45 921.11,-27.9 861.2,-20.58"/>
<polygon fill="midnightblue" stroke="midnightblue" points="1165.61,-70.45 1176.09,-68.92 1166.94,-63.58 1165.61,-70.45"/>
</g>
<!-- Node28&#45;&gt;Node5 -->
<g id="edge53" class="edge">
<title>Node28&#45;&gt;Node5</title>
<path fill="none" stroke="midnightblue" d="M800.19,-242.75C791.81,-227.02 777.7,-204.38 759.76,-190 723.6,-161 651.14,-175.52 671.76,-134 699.93,-77.3 769.99,-40.62 805.46,-25.06"/>
<polygon fill="midnightblue" stroke="midnightblue" points="797.21,-244.6 804.86,-251.93 803.45,-241.43 797.21,-244.6"/>
</g>
<!-- Node29 -->
<g id="node29" class="node">
<title>Node29</title>
<g id="a_node29"><a xlink:href="v8-statistics_8h.html" target="_top" xlink:title=" ">
<polygon fill="white" stroke="black" points="639.26,-190.5 639.26,-209.5 750.26,-209.5 750.26,-190.5 639.26,-190.5"/>
<text text-anchor="middle" x="694.76" y="-197.5" font-family="Helvetica,sans-Serif" font-size="10.00">include/v8&#45;statistics.h</text>
</a>
</g>
</g>
<!-- Node28&#45;&gt;Node29 -->
<g id="edge50" class="edge">
<title>Node28&#45;&gt;Node29</title>
<path fill="none" stroke="midnightblue" d="M783.3,-247.21C761.22,-235.69 729.93,-219.36 711.07,-209.51"/>
<polygon fill="midnightblue" stroke="midnightblue" points="781.95,-250.45 792.43,-251.98 785.18,-244.25 781.95,-250.45"/>
</g>
<!-- Node29&#45;&gt;Node3 -->
<g id="edge51" class="edge">
<title>Node29&#45;&gt;Node3</title>
<path fill="none" stroke="midnightblue" d="M629.12,-189.86C552.23,-179.16 426.55,-161.67 357.01,-151.99"/>
<polygon fill="midnightblue" stroke="midnightblue" points="628.79,-193.35 639.17,-191.26 629.75,-186.42 628.79,-193.35"/>
</g>
<!-- Node29&#45;&gt;Node5 -->
<g id="edge52" class="edge">
<title>Node29&#45;&gt;Node5</title>
<path fill="none" stroke="midnightblue" d="M668.45,-185.05C657.1,-177.51 645.02,-167.05 638.76,-154 622.05,-119.13 615.23,-97.68 638.76,-67 657.38,-42.73 743.65,-27.53 792.6,-20.71"/>
<polygon fill="midnightblue" stroke="midnightblue" points="666.91,-188.21 677.26,-190.46 670.57,-182.25 666.91,-188.21"/>
</g>
<!-- Node30&#45;&gt;Node5 -->
<g id="edge56" class="edge">
<title>Node30&#45;&gt;Node5</title>
<path fill="none" stroke="midnightblue" d="M1305.93,-124.19C1305.89,-106.65 1302.77,-81.14 1286.76,-67 1254.97,-38.9 962.41,-22.79 861.1,-18.01"/>
<polygon fill="midnightblue" stroke="midnightblue" points="1302.42,-124.25 1305.61,-134.36 1309.42,-124.47 1302.42,-124.25"/>
</g>
<!-- Node31&#45;&gt;Node5 -->
<g id="edge59" class="edge">
<title>Node31&#45;&gt;Node5</title>
<path fill="none" stroke="midnightblue" d="M742.71,-126.12C763.61,-98.86 804.08,-46.08 820.05,-25.26"/>
<polygon fill="midnightblue" stroke="midnightblue" points="739.74,-124.24 736.43,-134.31 745.29,-128.5 739.74,-124.24"/>
</g>
<!-- Node32&#45;&gt;Node5 -->
<g id="edge70" class="edge">
<title>Node32&#45;&gt;Node5</title>
<path fill="none" stroke="midnightblue" d="M1183.89,-443.24C1257.08,-437.86 1382.02,-417.63 1454.76,-344 1501.32,-296.88 1496.76,-267.24 1496.76,-201 1496.76,-201 1496.76,-201 1496.76,-143 1496.76,-102.57 1481.54,-87.62 1446.76,-67 1396.19,-37.02 983.08,-21.51 860.76,-17.54"/>
<polygon fill="midnightblue" stroke="midnightblue" points="1183.22,-439.78 1173.48,-443.94 1183.69,-446.77 1183.22,-439.78"/>
</g>
<!-- Node32&#45;&gt;Node12 -->
<g id="edge69" class="edge">
<title>Node32&#45;&gt;Node12</title>
<path fill="none" stroke="midnightblue" d="M1067.9,-440.65C932.11,-430.44 594.49,-405.04 462.18,-395.09"/>
<polygon fill="midnightblue" stroke="midnightblue" points="1067.86,-444.16 1078.1,-441.42 1068.39,-437.17 1067.86,-444.16"/>
</g>
<!-- Node32&#45;&gt;Node21 -->
<g id="edge68" class="edge">
<title>Node32&#45;&gt;Node21</title>
<path fill="none" stroke="midnightblue" d="M1107.87,-429.47C1079.56,-404.87 1025.32,-357.78 1002.88,-338.28"/>
<polygon fill="midnightblue" stroke="midnightblue" points="1105.92,-432.4 1115.77,-436.32 1110.51,-427.12 1105.92,-432.4"/>
</g>
<!-- Node32&#45;&gt;Node24 -->
<g id="edge67" class="edge">
<title>Node32&#45;&gt;Node24</title>
<path fill="none" stroke="midnightblue" d="M1139.81,-428.7C1156.69,-407.4 1182.76,-368.22 1182.76,-329.5 1182.76,-329.5 1182.76,-329.5 1182.76,-260.5 1182.76,-199.88 1176.54,-174.87 1131.76,-134 1114.1,-117.88 1054.92,-102.54 1011.78,-93.08"/>
<polygon fill="midnightblue" stroke="midnightblue" points="1137.1,-426.49 1133.45,-436.44 1142.5,-430.94 1137.1,-426.49"/>
</g>
<!-- Node33 -->
<g id="node33" class="node">
<title>Node33</title>
<g id="a_node33"><a xlink:href="v8-external_8h.html" target="_top" xlink:title=" ">
<polygon fill="white" stroke="black" points="1439.26,-380.5 1439.26,-399.5 1544.26,-399.5 1544.26,-380.5 1439.26,-380.5"/>
<text text-anchor="middle" x="1491.76" y="-387.5" font-family="Helvetica,sans-Serif" font-size="10.00">include/v8&#45;external.h</text>
</a>
</g>
</g>
<!-- Node32&#45;&gt;Node33 -->
<g id="edge65" class="edge">
<title>Node32&#45;&gt;Node33</title>
<path fill="none" stroke="midnightblue" d="M1183.62,-436.46C1253.88,-426.1 1371.37,-408.76 1439.17,-398.76"/>
<polygon fill="midnightblue" stroke="midnightblue" points="1182.99,-433.02 1173.61,-437.94 1184.02,-439.94 1182.99,-433.02"/>
</g>
<!-- Node33&#45;&gt;Node5 -->
<g id="edge66" class="edge">
<title>Node33&#45;&gt;Node5</title>
<path fill="none" stroke="midnightblue" d="M1501.76,-371.57C1514.47,-347.74 1534.76,-303.3 1534.76,-262.5 1534.76,-262.5 1534.76,-262.5 1534.76,-143 1534.76,-107.58 1538.54,-88.98 1510.76,-67 1459.46,-26.41 992.23,-18.29 860.94,-16.81"/>
<polygon fill="midnightblue" stroke="midnightblue" points="1498.63,-370 1496.87,-380.45 1504.76,-373.38 1498.63,-370"/>
</g>
</g>
</svg>
