<?xml version="1.0" encoding="UTF-8" standalone="no"?>
<!DOCTYPE svg PUBLIC "-//W3C//DTD SVG 1.1//EN"
 "http://www.w3.org/Graphics/SVG/1.1/DTD/svg11.dtd">
<!-- Generated by graphviz version 2.49.3 (20211027.1534)
 -->
<!-- Title: include/v8&#45;embedder&#45;state&#45;scope.h Pages: 1 -->
<svg width="437pt" height="319pt"
 viewBox="0.00 0.00 437.00 319.00" xmlns="http://www.w3.org/2000/svg" xmlns:xlink="http://www.w3.org/1999/xlink">
<g id="graph0" class="graph" transform="scale(1 1) rotate(0) translate(4 315)">
<title>include/v8&#45;embedder&#45;state&#45;scope.h</title>
<polygon fill="white" stroke="transparent" points="-4,4 -4,-315 433,-315 433,4 -4,4"/>
<!-- Node1 -->
<g id="node1" class="node">
<title>Node1</title>
<g id="a_node1"><a xlink:title=" ">
<polygon fill="#bfbfbf" stroke="black" points="200.5,-280.5 200.5,-310.5 307.5,-310.5 307.5,-280.5 200.5,-280.5"/>
<text text-anchor="start" x="208.5" y="-298.5" font-family="Helvetica,sans-Serif" font-size="10.00">include/v8&#45;embedder</text>
<text text-anchor="middle" x="254" y="-287.5" font-family="Helvetica,sans-Serif" font-size="10.00">&#45;state&#45;scope.h</text>
</a>
</g>
</g>
<!-- Node2 -->
<g id="node2" class="node">
<title>Node2</title>
<g id="a_node2"><a xlink:title=" ">
<polygon fill="white" stroke="#bfbfbf" points="119.5,-224.5 119.5,-243.5 170.5,-243.5 170.5,-224.5 119.5,-224.5"/>
<text text-anchor="middle" x="145" y="-231.5" font-family="Helvetica,sans-Serif" font-size="10.00">memory</text>
</a>
</g>
</g>
<!-- Node1&#45;&gt;Node2 -->
<g id="edge1" class="edge">
<title>Node1&#45;&gt;Node2</title>
<path fill="none" stroke="midnightblue" d="M228.17,-280.4C210.53,-270.77 187.3,-258.09 169.87,-248.58"/>
<polygon fill="midnightblue" stroke="midnightblue" points="171.31,-245.38 160.86,-243.66 167.96,-251.52 171.31,-245.38"/>
</g>
<!-- Node3 -->
<g id="node3" class="node">
<title>Node3</title>
<g id="a_node3"><a xlink:href="v8-context_8h.html" target="_top" xlink:title=" ">
<polygon fill="white" stroke="black" points="188.5,-224.5 188.5,-243.5 257.5,-243.5 257.5,-224.5 188.5,-224.5"/>
<text text-anchor="middle" x="223" y="-231.5" font-family="Helvetica,sans-Serif" font-size="10.00">v8&#45;context.h</text>
</a>
</g>
</g>
<!-- Node1&#45;&gt;Node3 -->
<g id="edge2" class="edge">
<title>Node1&#45;&gt;Node3</title>
<path fill="none" stroke="midnightblue" d="M246.65,-280.4C242.33,-272.11 236.83,-261.55 232.23,-252.71"/>
<polygon fill="midnightblue" stroke="midnightblue" points="235.24,-250.91 227.51,-243.66 229.03,-254.14 235.24,-250.91"/>
</g>
<!-- Node6 -->
<g id="node6" class="node">
<title>Node6</title>
<g id="a_node6"><a xlink:href="v8-local-handle_8h.html" target="_top" xlink:title=" ">
<polygon fill="white" stroke="black" points="203.5,-112.5 203.5,-131.5 292.5,-131.5 292.5,-112.5 203.5,-112.5"/>
<text text-anchor="middle" x="248" y="-119.5" font-family="Helvetica,sans-Serif" font-size="10.00">v8&#45;local&#45;handle.h</text>
</a>
</g>
</g>
<!-- Node1&#45;&gt;Node6 -->
<g id="edge24" class="edge">
<title>Node1&#45;&gt;Node6</title>
<path fill="none" stroke="midnightblue" d="M258.38,-280.08C261.18,-270.06 264.55,-256.35 266,-244 270.27,-207.58 260.59,-165.25 253.84,-141.54"/>
<polygon fill="midnightblue" stroke="midnightblue" points="257.14,-140.36 250.92,-131.78 250.43,-142.36 257.14,-140.36"/>
</g>
<!-- Node9 -->
<g id="node9" class="node">
<title>Node9</title>
<g id="a_node9"><a xlink:href="v8-internal_8h.html" target="_top" xlink:title=" ">
<polygon fill="white" stroke="black" points="215.5,-56.5 215.5,-75.5 284.5,-75.5 284.5,-56.5 215.5,-56.5"/>
<text text-anchor="middle" x="250" y="-63.5" font-family="Helvetica,sans-Serif" font-size="10.00">v8&#45;internal.h</text>
</a>
</g>
</g>
<!-- Node1&#45;&gt;Node9 -->
<g id="edge23" class="edge">
<title>Node1&#45;&gt;Node9</title>
<path fill="none" stroke="midnightblue" d="M263.94,-280.21C284.53,-248.71 327.78,-171.35 301,-112 295.38,-99.56 284.44,-89.17 274.12,-81.53"/>
<polygon fill="midnightblue" stroke="midnightblue" points="275.96,-78.54 265.73,-75.76 271.99,-84.31 275.96,-78.54"/>
</g>
<!-- Node4 -->
<g id="node4" class="node">
<title>Node4</title>
<g id="a_node4"><a xlink:title=" ">
<polygon fill="white" stroke="#bfbfbf" points="381,-0.5 381,-19.5 429,-19.5 429,-0.5 381,-0.5"/>
<text text-anchor="middle" x="405" y="-7.5" font-family="Helvetica,sans-Serif" font-size="10.00">stdint.h</text>
</a>
</g>
</g>
<!-- Node3&#45;&gt;Node4 -->
<g id="edge3" class="edge">
<title>Node3&#45;&gt;Node4</title>
<path fill="none" stroke="midnightblue" d="M230.13,-224.3C257.37,-191.08 355.06,-71.92 391.32,-27.68"/>
<polygon fill="midnightblue" stroke="midnightblue" points="394.08,-29.84 397.72,-19.88 388.67,-25.4 394.08,-29.84"/>
</g>
<!-- Node5 -->
<g id="node5" class="node">
<title>Node5</title>
<g id="a_node5"><a xlink:href="v8-data_8h.html" target="_top" xlink:title=" ">
<polygon fill="white" stroke="black" points="164,-168.5 164,-187.5 220,-187.5 220,-168.5 164,-168.5"/>
<text text-anchor="middle" x="192" y="-175.5" font-family="Helvetica,sans-Serif" font-size="10.00">v8&#45;data.h</text>
</a>
</g>
</g>
<!-- Node3&#45;&gt;Node5 -->
<g id="edge4" class="edge">
<title>Node3&#45;&gt;Node5</title>
<path fill="none" stroke="midnightblue" d="M217.88,-224.08C213.59,-216.61 207.34,-205.72 202.06,-196.52"/>
<polygon fill="midnightblue" stroke="midnightblue" points="205.04,-194.68 197.02,-187.75 198.97,-198.17 205.04,-194.68"/>
</g>
<!-- Node3&#45;&gt;Node6 -->
<g id="edge16" class="edge">
<title>Node3&#45;&gt;Node6</title>
<path fill="none" stroke="midnightblue" d="M224.96,-224.37C229,-206.62 238.3,-165.67 243.77,-141.6"/>
<polygon fill="midnightblue" stroke="midnightblue" points="247.24,-142.12 246.05,-131.59 240.42,-140.57 247.24,-142.12"/>
</g>
<!-- Node12 -->
<g id="node12" class="node">
<title>Node12</title>
<g id="a_node12"><a xlink:href="v8config_8h.html" target="_top" xlink:title=" ">
<polygon fill="white" stroke="black" points="0,-0.5 0,-19.5 60,-19.5 60,-0.5 0,-0.5"/>
<text text-anchor="middle" x="30" y="-7.5" font-family="Helvetica,sans-Serif" font-size="10.00">v8config.h</text>
</a>
</g>
</g>
<!-- Node3&#45;&gt;Node12 -->
<g id="edge22" class="edge">
<title>Node3&#45;&gt;Node12</title>
<path fill="none" stroke="midnightblue" d="M188.14,-225.24C142.89,-214.89 68.55,-196.86 59,-188 14.71,-146.92 20.89,-66.45 26.49,-29.89"/>
<polygon fill="midnightblue" stroke="midnightblue" points="30,-30.11 28.22,-19.66 23.1,-28.94 30,-30.11"/>
</g>
<!-- Node13 -->
<g id="node13" class="node">
<title>Node13</title>
<g id="a_node13"><a xlink:href="v8-snapshot_8h.html" target="_top" xlink:title=" ">
<polygon fill="white" stroke="black" points="68.5,-168.5 68.5,-187.5 145.5,-187.5 145.5,-168.5 68.5,-168.5"/>
<text text-anchor="middle" x="107" y="-175.5" font-family="Helvetica,sans-Serif" font-size="10.00">v8&#45;snapshot.h</text>
</a>
</g>
</g>
<!-- Node3&#45;&gt;Node13 -->
<g id="edge17" class="edge">
<title>Node3&#45;&gt;Node13</title>
<path fill="none" stroke="midnightblue" d="M204.62,-224.44C185.78,-215.68 156.27,-201.94 134.62,-191.86"/>
<polygon fill="midnightblue" stroke="midnightblue" points="135.84,-188.56 125.29,-187.52 132.88,-194.91 135.84,-188.56"/>
</g>
<!-- Node5&#45;&gt;Node6 -->
<g id="edge5" class="edge">
<title>Node5&#45;&gt;Node6</title>
<path fill="none" stroke="midnightblue" d="M201,-168.32C209.19,-160.42 221.51,-148.55 231.47,-138.94"/>
<polygon fill="midnightblue" stroke="midnightblue" points="234.07,-141.29 238.84,-131.83 229.21,-136.26 234.07,-141.29"/>
</g>
<!-- Node5&#45;&gt;Node12 -->
<g id="edge15" class="edge">
<title>Node5&#45;&gt;Node12</title>
<path fill="none" stroke="midnightblue" d="M183.29,-168.08C157.13,-141.27 78.98,-61.19 45.5,-26.89"/>
<polygon fill="midnightblue" stroke="midnightblue" points="47.85,-24.28 38.36,-19.57 42.84,-29.17 47.85,-24.28"/>
</g>
<!-- Node7 -->
<g id="node7" class="node">
<title>Node7</title>
<g id="a_node7"><a xlink:title=" ">
<polygon fill="white" stroke="#bfbfbf" points="78.5,-0.5 78.5,-19.5 129.5,-19.5 129.5,-0.5 78.5,-0.5"/>
<text text-anchor="middle" x="104" y="-7.5" font-family="Helvetica,sans-Serif" font-size="10.00">stddef.h</text>
</a>
</g>
</g>
<!-- Node6&#45;&gt;Node7 -->
<g id="edge6" class="edge">
<title>Node6&#45;&gt;Node7</title>
<path fill="none" stroke="midnightblue" d="M236.73,-112.37C220.45,-99.92 189.43,-76.18 163,-56 149.78,-45.91 134.89,-34.55 123.38,-25.77"/>
<polygon fill="midnightblue" stroke="midnightblue" points="125.39,-22.9 115.31,-19.62 121.14,-28.47 125.39,-22.9"/>
</g>
<!-- Node8 -->
<g id="node8" class="node">
<title>Node8</title>
<g id="a_node8"><a xlink:title=" ">
<polygon fill="white" stroke="#bfbfbf" points="301,-0.5 301,-19.5 363,-19.5 363,-0.5 301,-0.5"/>
<text text-anchor="middle" x="332" y="-7.5" font-family="Helvetica,sans-Serif" font-size="10.00">type_traits</text>
</a>
</g>
</g>
<!-- Node6&#45;&gt;Node8 -->
<g id="edge7" class="edge">
<title>Node6&#45;&gt;Node8</title>
<path fill="none" stroke="midnightblue" d="M258.01,-112.31C267.63,-103.68 282.26,-89.76 293,-76 304.62,-61.12 315.46,-42.51 322.75,-29.02"/>
<polygon fill="midnightblue" stroke="midnightblue" points="326.02,-30.33 327.58,-19.85 319.82,-27.06 326.02,-30.33"/>
</g>
<!-- Node6&#45;&gt;Node9 -->
<g id="edge8" class="edge">
<title>Node6&#45;&gt;Node9</title>
<path fill="none" stroke="midnightblue" d="M248.33,-112.08C248.59,-105.01 248.97,-94.86 249.3,-85.99"/>
<polygon fill="midnightblue" stroke="midnightblue" points="252.8,-85.87 249.68,-75.75 245.81,-85.61 252.8,-85.87"/>
</g>
<!-- Node9&#45;&gt;Node4 -->
<g id="edge10" class="edge">
<title>Node9&#45;&gt;Node4</title>
<path fill="none" stroke="midnightblue" d="M274.56,-56.44C300.6,-47.37 341.91,-32.98 371.05,-22.83"/>
<polygon fill="midnightblue" stroke="midnightblue" points="372.52,-26.02 380.81,-19.43 370.22,-19.41 372.52,-26.02"/>
</g>
<!-- Node9&#45;&gt;Node7 -->
<g id="edge9" class="edge">
<title>Node9&#45;&gt;Node7</title>
<path fill="none" stroke="midnightblue" d="M226.87,-56.44C202.52,-47.44 163.99,-33.19 136.58,-23.05"/>
<polygon fill="midnightblue" stroke="midnightblue" points="137.62,-19.7 127.03,-19.52 135.19,-26.27 137.62,-19.7"/>
</g>
<!-- Node9&#45;&gt;Node8 -->
<g id="edge12" class="edge">
<title>Node9&#45;&gt;Node8</title>
<path fill="none" stroke="midnightblue" d="M263.17,-56.32C275.85,-47.98 295.23,-35.21 310.21,-25.35"/>
<polygon fill="midnightblue" stroke="midnightblue" points="312.43,-28.08 318.86,-19.65 308.58,-22.23 312.43,-28.08"/>
</g>
<!-- Node10 -->
<g id="node10" class="node">
<title>Node10</title>
<g id="a_node10"><a xlink:title=" ">
<polygon fill="white" stroke="#bfbfbf" points="235,-0.5 235,-19.5 283,-19.5 283,-0.5 235,-0.5"/>
<text text-anchor="middle" x="259" y="-7.5" font-family="Helvetica,sans-Serif" font-size="10.00">string.h</text>
</a>
</g>
</g>
<!-- Node9&#45;&gt;Node10 -->
<g id="edge11" class="edge">
<title>Node9&#45;&gt;Node10</title>
<path fill="none" stroke="midnightblue" d="M251.49,-56.08C252.68,-48.93 254.39,-38.64 255.88,-29.69"/>
<polygon fill="midnightblue" stroke="midnightblue" points="259.35,-30.19 257.54,-19.75 252.45,-29.04 259.35,-30.19"/>
</g>
<!-- Node11 -->
<g id="node11" class="node">
<title>Node11</title>
<g id="a_node11"><a xlink:href="v8-version_8h.html" target="_top" xlink:title=" ">
<polygon fill="white" stroke="black" points="147.5,-0.5 147.5,-19.5 216.5,-19.5 216.5,-0.5 147.5,-0.5"/>
<text text-anchor="middle" x="182" y="-7.5" font-family="Helvetica,sans-Serif" font-size="10.00">v8&#45;version.h</text>
</a>
</g>
</g>
<!-- Node9&#45;&gt;Node11 -->
<g id="edge13" class="edge">
<title>Node9&#45;&gt;Node11</title>
<path fill="none" stroke="midnightblue" d="M239.07,-56.32C228.83,-48.18 213.28,-35.84 201,-26.09"/>
<polygon fill="midnightblue" stroke="midnightblue" points="203.13,-23.31 193.12,-19.83 198.78,-28.79 203.13,-23.31"/>
</g>
<!-- Node9&#45;&gt;Node12 -->
<g id="edge14" class="edge">
<title>Node9&#45;&gt;Node12</title>
<path fill="none" stroke="midnightblue" d="M215.14,-56.44C175.63,-46.75 111.34,-30.97 69.87,-20.79"/>
<polygon fill="midnightblue" stroke="midnightblue" points="70.65,-17.37 60.1,-18.39 68.98,-24.17 70.65,-17.37"/>
</g>
<!-- Node13&#45;&gt;Node6 -->
<g id="edge20" class="edge">
<title>Node13&#45;&gt;Node6</title>
<path fill="none" stroke="midnightblue" d="M129.34,-168.44C152.75,-159.48 189.74,-145.31 216.19,-135.18"/>
<polygon fill="midnightblue" stroke="midnightblue" points="217.68,-138.36 225.76,-131.52 215.17,-131.82 217.68,-138.36"/>
</g>
<!-- Node13&#45;&gt;Node9 -->
<g id="edge19" class="edge">
<title>Node13&#45;&gt;Node9</title>
<path fill="none" stroke="midnightblue" d="M118.22,-168.37C142.55,-149.65 200.4,-105.15 230.72,-81.83"/>
<polygon fill="midnightblue" stroke="midnightblue" points="233.04,-84.46 238.83,-75.59 228.77,-78.91 233.04,-84.46"/>
</g>
<!-- Node13&#45;&gt;Node12 -->
<g id="edge21" class="edge">
<title>Node13&#45;&gt;Node12</title>
<path fill="none" stroke="midnightblue" d="M91.35,-168.44C78.66,-160.65 61.39,-147.94 52,-132 33,-99.76 29.71,-54.96 29.52,-29.9"/>
<polygon fill="midnightblue" stroke="midnightblue" points="33.02,-29.64 29.61,-19.61 26.02,-29.58 33.02,-29.64"/>
</g>
<!-- Node14 -->
<g id="node14" class="node">
<title>Node14</title>
<g id="a_node14"><a xlink:title=" ">
<polygon fill="white" stroke="#bfbfbf" points="61,-112.5 61,-131.5 105,-131.5 105,-112.5 61,-112.5"/>
<text text-anchor="middle" x="83" y="-119.5" font-family="Helvetica,sans-Serif" font-size="10.00">vector</text>
</a>
</g>
</g>
<!-- Node13&#45;&gt;Node14 -->
<g id="edge18" class="edge">
<title>Node13&#45;&gt;Node14</title>
<path fill="none" stroke="midnightblue" d="M103.04,-168.08C99.79,-160.77 95.08,-150.18 91.05,-141.1"/>
<polygon fill="midnightblue" stroke="midnightblue" points="94.15,-139.47 86.89,-131.75 87.75,-142.31 94.15,-139.47"/>
</g>
</g>
</svg>
