<?xml version="1.0" encoding="UTF-8" standalone="no"?>
<!DOCTYPE svg PUBLIC "-//W3C//DTD SVG 1.1//EN"
 "http://www.w3.org/Graphics/SVG/1.1/DTD/svg11.dtd">
<!-- Generated by graphviz version 2.49.3 (20211027.1534)
 -->
<!-- Title: include/v8&#45;function.h Pages: 1 -->
<svg width="1584pt" height="476pt"
 viewBox="0.00 0.00 1584.46 476.00" xmlns="http://www.w3.org/2000/svg" xmlns:xlink="http://www.w3.org/1999/xlink">
<g id="graph0" class="graph" transform="scale(1 1) rotate(0) translate(4 472)">
<title>include/v8&#45;function.h</title>
<polygon fill="white" stroke="transparent" points="-4,4 -4,-472 1580.46,-472 1580.46,4 -4,4"/>
<!-- Node1 -->
<g id="node1" class="node">
<title>Node1</title>
<g id="a_node1"><a xlink:title=" ">
<polygon fill="#bfbfbf" stroke="black" points="364.46,-448.5 364.46,-467.5 470.46,-467.5 470.46,-448.5 364.46,-448.5"/>
<text text-anchor="middle" x="417.46" y="-455.5" font-family="Helvetica,sans-Serif" font-size="10.00">include/v8&#45;function.h</text>
</a>
</g>
</g>
<!-- Node2 -->
<g id="node2" class="node">
<title>Node2</title>
<g id="a_node2"><a xlink:title=" ">
<polygon fill="white" stroke="#bfbfbf" points="126.96,-0.5 126.96,-19.5 177.96,-19.5 177.96,-0.5 126.96,-0.5"/>
<text text-anchor="middle" x="152.46" y="-7.5" font-family="Helvetica,sans-Serif" font-size="10.00">stddef.h</text>
</a>
</g>
</g>
<!-- Node1&#45;&gt;Node2 -->
<g id="edge1" class="edge">
<title>Node1&#45;&gt;Node2</title>
<path fill="none" stroke="midnightblue" d="M364.22,-454.12C251.8,-446.58 0.46,-421.4 0.46,-347 0.46,-347 0.46,-347 0.46,-121 0.46,-90.9 -1.37,-77.72 19.46,-56 44.96,-29.4 86.73,-18.53 116.65,-14.08"/>
<polygon fill="midnightblue" stroke="midnightblue" points="117.24,-17.53 126.7,-12.76 116.32,-10.59 117.24,-17.53"/>
</g>
<!-- Node3 -->
<g id="node3" class="node">
<title>Node3</title>
<g id="a_node3"><a xlink:title=" ">
<polygon fill="white" stroke="#bfbfbf" points="1412.46,-0.5 1412.46,-19.5 1460.46,-19.5 1460.46,-0.5 1412.46,-0.5"/>
<text text-anchor="middle" x="1436.46" y="-7.5" font-family="Helvetica,sans-Serif" font-size="10.00">stdint.h</text>
</a>
</g>
</g>
<!-- Node1&#45;&gt;Node3 -->
<g id="edge2" class="edge">
<title>Node1&#45;&gt;Node3</title>
<path fill="none" stroke="midnightblue" d="M470.53,-456.2C643.37,-453.31 1188.98,-442 1362.46,-412 1460.41,-395.06 1576.46,-446.4 1576.46,-347 1576.46,-347 1576.46,-347 1576.46,-121 1576.46,-67.17 1511.68,-35.68 1470.25,-21.04"/>
<polygon fill="midnightblue" stroke="midnightblue" points="1471.12,-17.64 1460.52,-17.76 1468.88,-24.27 1471.12,-17.64"/>
</g>
<!-- Node4 -->
<g id="node4" class="node">
<title>Node4</title>
<g id="a_node4"><a xlink:href="v8-function-callback_8h.html" target="_top" xlink:title=" ">
<polygon fill="white" stroke="black" points="142.96,-336.5 142.96,-355.5 253.96,-355.5 253.96,-336.5 142.96,-336.5"/>
<text text-anchor="middle" x="198.46" y="-343.5" font-family="Helvetica,sans-Serif" font-size="10.00">v8&#45;function&#45;callback.h</text>
</a>
</g>
</g>
<!-- Node1&#45;&gt;Node4 -->
<g id="edge3" class="edge">
<title>Node1&#45;&gt;Node4</title>
<path fill="none" stroke="midnightblue" d="M364.05,-454.62C325.29,-450.47 273.39,-439.66 236.46,-412 220.8,-400.27 210.46,-380.04 204.57,-365.26"/>
<polygon fill="midnightblue" stroke="midnightblue" points="207.78,-363.84 201.06,-355.65 201.21,-366.25 207.78,-363.84"/>
</g>
<!-- Node5 -->
<g id="node5" class="node">
<title>Node5</title>
<g id="a_node5"><a xlink:href="v8-local-handle_8h.html" target="_top" xlink:title=" ">
<polygon fill="white" stroke="black" points="297.96,-112.5 297.96,-131.5 386.96,-131.5 386.96,-112.5 297.96,-112.5"/>
<text text-anchor="middle" x="342.46" y="-119.5" font-family="Helvetica,sans-Serif" font-size="10.00">v8&#45;local&#45;handle.h</text>
</a>
</g>
</g>
<!-- Node1&#45;&gt;Node5 -->
<g id="edge30" class="edge">
<title>Node1&#45;&gt;Node5</title>
<path fill="none" stroke="midnightblue" d="M364.24,-457.43C294.72,-454.64 176.86,-437.44 134.46,-356 97.55,-285.11 14.35,-360.19 236.46,-168 254.34,-152.53 278.32,-141.75 298.95,-134.63"/>
<polygon fill="midnightblue" stroke="midnightblue" points="300.05,-137.95 308.47,-131.51 297.87,-131.3 300.05,-137.95"/>
</g>
<!-- Node10 -->
<g id="node10" class="node">
<title>Node10</title>
<g id="a_node10"><a xlink:href="v8config_8h.html" target="_top" xlink:title=" ">
<polygon fill="white" stroke="black" points="726.46,-0.5 726.46,-19.5 786.46,-19.5 786.46,-0.5 726.46,-0.5"/>
<text text-anchor="middle" x="756.46" y="-7.5" font-family="Helvetica,sans-Serif" font-size="10.00">v8config.h</text>
</a>
</g>
</g>
<!-- Node1&#45;&gt;Node10 -->
<g id="edge73" class="edge">
<title>Node1&#45;&gt;Node10</title>
<path fill="none" stroke="midnightblue" d="M470.55,-453.58C674.79,-439 1398.46,-373.61 1398.46,-179 1398.46,-179 1398.46,-179 1398.46,-121 1398.46,-56.8 1331.21,-73.56 1269.46,-56 1180.71,-30.76 901.57,-16.97 796.76,-12.57"/>
<polygon fill="midnightblue" stroke="midnightblue" points="796.73,-9.07 786.59,-12.15 796.44,-16.06 796.73,-9.07"/>
</g>
<!-- Node15 -->
<g id="node15" class="node">
<title>Node15</title>
<g id="a_node15"><a xlink:href="v8-message_8h.html" target="_top" xlink:title=" ">
<polygon fill="white" stroke="black" points="1350.96,-336.5 1350.96,-355.5 1427.96,-355.5 1427.96,-336.5 1350.96,-336.5"/>
<text text-anchor="middle" x="1389.46" y="-343.5" font-family="Helvetica,sans-Serif" font-size="10.00">v8&#45;message.h</text>
</a>
</g>
</g>
<!-- Node1&#45;&gt;Node15 -->
<g id="edge31" class="edge">
<title>Node1&#45;&gt;Node15</title>
<path fill="none" stroke="midnightblue" d="M470.51,-456.9C654.67,-456.22 1259.24,-451.01 1336.46,-412 1356.5,-401.87 1371.63,-380.36 1380.49,-364.85"/>
<polygon fill="midnightblue" stroke="midnightblue" points="1383.75,-366.18 1385.4,-355.71 1377.58,-362.87 1383.75,-366.18"/>
</g>
<!-- Node18 -->
<g id="node18" class="node">
<title>Node18</title>
<g id="a_node18"><a xlink:href="v8-object_8h.html" target="_top" xlink:title=" ">
<polygon fill="white" stroke="black" points="521.46,-336.5 521.46,-355.5 585.46,-355.5 585.46,-336.5 521.46,-336.5"/>
<text text-anchor="middle" x="553.46" y="-343.5" font-family="Helvetica,sans-Serif" font-size="10.00">v8&#45;object.h</text>
</a>
</g>
</g>
<!-- Node1&#45;&gt;Node18 -->
<g id="edge38" class="edge">
<title>Node1&#45;&gt;Node18</title>
<path fill="none" stroke="midnightblue" d="M428.13,-448.37C451.17,-429.73 505.82,-385.53 534.75,-362.13"/>
<polygon fill="midnightblue" stroke="midnightblue" points="537.26,-364.6 542.84,-355.59 532.86,-359.16 537.26,-364.6"/>
</g>
<!-- Node27 -->
<g id="node27" class="node">
<title>Node27</title>
<g id="a_node27"><a xlink:href="v8-template_8h.html" target="_top" xlink:title=" ">
<polygon fill="white" stroke="black" points="244.96,-392.5 244.96,-411.5 319.96,-411.5 319.96,-392.5 244.96,-392.5"/>
<text text-anchor="middle" x="282.46" y="-399.5" font-family="Helvetica,sans-Serif" font-size="10.00">v8&#45;template.h</text>
</a>
</g>
</g>
<!-- Node1&#45;&gt;Node27 -->
<g id="edge64" class="edge">
<title>Node1&#45;&gt;Node27</title>
<path fill="none" stroke="midnightblue" d="M396.07,-448.44C373.75,-439.52 338.55,-425.44 313.25,-415.32"/>
<polygon fill="midnightblue" stroke="midnightblue" points="314.33,-411.98 303.75,-411.52 311.73,-418.48 314.33,-411.98"/>
</g>
<!-- Node4&#45;&gt;Node5 -->
<g id="edge4" class="edge">
<title>Node4&#45;&gt;Node5</title>
<path fill="none" stroke="midnightblue" d="M200.18,-336.23C206.59,-304.29 229.85,-194.75 252.46,-168 265.3,-152.8 284.53,-142.22 301.93,-135.15"/>
<polygon fill="midnightblue" stroke="midnightblue" points="303.24,-138.4 311.35,-131.58 300.76,-131.85 303.24,-138.4"/>
</g>
<!-- Node4&#45;&gt;Node10 -->
<g id="edge29" class="edge">
<title>Node4&#45;&gt;Node10</title>
<path fill="none" stroke="midnightblue" d="M198.89,-336.12C199.6,-323.56 201.24,-299.91 204.46,-280 217.8,-197.39 220.86,-159.93 289.46,-112 448.6,-0.81 525.16,-53.03 716.46,-20 716.56,-19.98 716.66,-19.97 716.76,-19.95"/>
<polygon fill="midnightblue" stroke="midnightblue" points="717.22,-23.42 726.38,-18.11 715.9,-16.55 717.22,-23.42"/>
</g>
<!-- Node11 -->
<g id="node11" class="node">
<title>Node11</title>
<g id="a_node11"><a xlink:href="v8-primitive_8h.html" target="_top" xlink:title=" ">
<polygon fill="white" stroke="black" points="435.46,-280.5 435.46,-299.5 509.46,-299.5 509.46,-280.5 435.46,-280.5"/>
<text text-anchor="middle" x="472.46" y="-287.5" font-family="Helvetica,sans-Serif" font-size="10.00">v8&#45;primitive.h</text>
</a>
</g>
</g>
<!-- Node4&#45;&gt;Node11 -->
<g id="edge14" class="edge">
<title>Node4&#45;&gt;Node11</title>
<path fill="none" stroke="midnightblue" d="M241.87,-336.44C291.95,-326.57 373.99,-310.41 425.52,-300.25"/>
<polygon fill="midnightblue" stroke="midnightblue" points="426.26,-303.67 435.4,-298.3 424.91,-296.8 426.26,-303.67"/>
</g>
<!-- Node5&#45;&gt;Node2 -->
<g id="edge5" class="edge">
<title>Node5&#45;&gt;Node2</title>
<path fill="none" stroke="midnightblue" d="M327.55,-112.37C294.67,-93.33 215.7,-47.62 176.04,-24.65"/>
<polygon fill="midnightblue" stroke="midnightblue" points="177.71,-21.57 167.3,-19.59 174.2,-27.63 177.71,-21.57"/>
</g>
<!-- Node6 -->
<g id="node6" class="node">
<title>Node6</title>
<g id="a_node6"><a xlink:title=" ">
<polygon fill="white" stroke="#bfbfbf" points="491.46,-0.5 491.46,-19.5 553.46,-19.5 553.46,-0.5 491.46,-0.5"/>
<text text-anchor="middle" x="522.46" y="-7.5" font-family="Helvetica,sans-Serif" font-size="10.00">type_traits</text>
</a>
</g>
</g>
<!-- Node5&#45;&gt;Node6 -->
<g id="edge6" class="edge">
<title>Node5&#45;&gt;Node6</title>
<path fill="none" stroke="midnightblue" d="M348.46,-112.21C358.27,-98.45 379.01,-71.77 402.46,-56 426.56,-39.79 457.27,-28.42 481.6,-21.15"/>
<polygon fill="midnightblue" stroke="midnightblue" points="482.6,-24.51 491.25,-18.39 480.68,-17.78 482.6,-24.51"/>
</g>
<!-- Node7 -->
<g id="node7" class="node">
<title>Node7</title>
<g id="a_node7"><a xlink:href="v8-internal_8h.html" target="_top" xlink:title=" ">
<polygon fill="white" stroke="black" points="571.96,-56.5 571.96,-75.5 640.96,-75.5 640.96,-56.5 571.96,-56.5"/>
<text text-anchor="middle" x="606.46" y="-63.5" font-family="Helvetica,sans-Serif" font-size="10.00">v8&#45;internal.h</text>
</a>
</g>
</g>
<!-- Node5&#45;&gt;Node7 -->
<g id="edge7" class="edge">
<title>Node5&#45;&gt;Node7</title>
<path fill="none" stroke="midnightblue" d="M384.29,-112.44C432.71,-102.54 512.15,-86.29 561.76,-76.14"/>
<polygon fill="midnightblue" stroke="midnightblue" points="562.47,-79.57 571.57,-74.14 561.07,-72.71 562.47,-79.57"/>
</g>
<!-- Node7&#45;&gt;Node2 -->
<g id="edge8" class="edge">
<title>Node7&#45;&gt;Node2</title>
<path fill="none" stroke="midnightblue" d="M571.59,-60.85C487.27,-50.82 273.07,-25.35 188.03,-15.23"/>
<polygon fill="midnightblue" stroke="midnightblue" points="188.43,-11.75 178.09,-14.05 187.6,-18.71 188.43,-11.75"/>
</g>
<!-- Node7&#45;&gt;Node3 -->
<g id="edge9" class="edge">
<title>Node7&#45;&gt;Node3</title>
<path fill="none" stroke="midnightblue" d="M641.07,-62.75C776.23,-53.95 1267.72,-21.98 1402.23,-13.23"/>
<polygon fill="midnightblue" stroke="midnightblue" points="1402.6,-16.71 1412.35,-12.57 1402.15,-9.72 1402.6,-16.71"/>
</g>
<!-- Node7&#45;&gt;Node6 -->
<g id="edge11" class="edge">
<title>Node7&#45;&gt;Node6</title>
<path fill="none" stroke="midnightblue" d="M592.96,-56.32C579.86,-47.9 559.75,-34.97 544.35,-25.07"/>
<polygon fill="midnightblue" stroke="midnightblue" points="546.23,-22.12 535.92,-19.65 542.44,-28.01 546.23,-22.12"/>
</g>
<!-- Node8 -->
<g id="node8" class="node">
<title>Node8</title>
<g id="a_node8"><a xlink:title=" ">
<polygon fill="white" stroke="#bfbfbf" points="659.46,-0.5 659.46,-19.5 707.46,-19.5 707.46,-0.5 659.46,-0.5"/>
<text text-anchor="middle" x="683.46" y="-7.5" font-family="Helvetica,sans-Serif" font-size="10.00">string.h</text>
</a>
</g>
</g>
<!-- Node7&#45;&gt;Node8 -->
<g id="edge10" class="edge">
<title>Node7&#45;&gt;Node8</title>
<path fill="none" stroke="midnightblue" d="M618.83,-56.32C630.62,-48.06 648.59,-35.45 662.59,-25.63"/>
<polygon fill="midnightblue" stroke="midnightblue" points="664.94,-28.26 671.12,-19.65 660.92,-22.53 664.94,-28.26"/>
</g>
<!-- Node9 -->
<g id="node9" class="node">
<title>Node9</title>
<g id="a_node9"><a xlink:href="v8-version_8h.html" target="_top" xlink:title=" ">
<polygon fill="white" stroke="black" points="571.96,-0.5 571.96,-19.5 640.96,-19.5 640.96,-0.5 571.96,-0.5"/>
<text text-anchor="middle" x="606.46" y="-7.5" font-family="Helvetica,sans-Serif" font-size="10.00">v8&#45;version.h</text>
</a>
</g>
</g>
<!-- Node7&#45;&gt;Node9 -->
<g id="edge12" class="edge">
<title>Node7&#45;&gt;Node9</title>
<path fill="none" stroke="midnightblue" d="M606.46,-56.08C606.46,-49.01 606.46,-38.86 606.46,-29.99"/>
<polygon fill="midnightblue" stroke="midnightblue" points="609.96,-29.75 606.46,-19.75 602.96,-29.75 609.96,-29.75"/>
</g>
<!-- Node7&#45;&gt;Node10 -->
<g id="edge13" class="edge">
<title>Node7&#45;&gt;Node10</title>
<path fill="none" stroke="midnightblue" d="M630.23,-56.44C655.35,-47.4 695.17,-33.06 723.36,-22.92"/>
<polygon fill="midnightblue" stroke="midnightblue" points="724.58,-26.2 732.8,-19.52 722.21,-19.61 724.58,-26.2"/>
</g>
<!-- Node11&#45;&gt;Node5 -->
<g id="edge19" class="edge">
<title>Node11&#45;&gt;Node5</title>
<path fill="none" stroke="midnightblue" d="M458.99,-280.45C435.62,-264.91 387.55,-229.76 361.46,-188 352.6,-173.82 347.72,-155.34 345.13,-141.71"/>
<polygon fill="midnightblue" stroke="midnightblue" points="348.55,-140.9 343.46,-131.6 341.64,-142.04 348.55,-140.9"/>
</g>
<!-- Node11&#45;&gt;Node7 -->
<g id="edge18" class="edge">
<title>Node11&#45;&gt;Node7</title>
<path fill="none" stroke="midnightblue" d="M474.11,-280.39C479.67,-253.16 499.89,-167.45 543.46,-112 553.48,-99.24 568.06,-88.51 580.67,-80.73"/>
<polygon fill="midnightblue" stroke="midnightblue" points="582.55,-83.68 589.41,-75.6 579.01,-77.65 582.55,-83.68"/>
</g>
<!-- Node11&#45;&gt;Node10 -->
<g id="edge28" class="edge">
<title>Node11&#45;&gt;Node10</title>
<path fill="none" stroke="midnightblue" d="M472.66,-280.17C474.01,-244.5 484.35,-110.34 563.46,-56 565.06,-54.9 660.12,-33.03 716.21,-20.19"/>
<polygon fill="midnightblue" stroke="midnightblue" points="717.23,-23.55 726.2,-17.91 715.67,-16.73 717.23,-23.55"/>
</g>
<!-- Node12 -->
<g id="node12" class="node">
<title>Node12</title>
<g id="a_node12"><a xlink:href="v8-data_8h.html" target="_top" xlink:title=" ">
<polygon fill="white" stroke="black" points="370.46,-168.5 370.46,-187.5 426.46,-187.5 426.46,-168.5 370.46,-168.5"/>
<text text-anchor="middle" x="398.46" y="-175.5" font-family="Helvetica,sans-Serif" font-size="10.00">v8&#45;data.h</text>
</a>
</g>
</g>
<!-- Node11&#45;&gt;Node12 -->
<g id="edge15" class="edge">
<title>Node11&#45;&gt;Node12</title>
<path fill="none" stroke="midnightblue" d="M466.65,-280.37C454.44,-262.22 425.91,-219.8 409.89,-195.99"/>
<polygon fill="midnightblue" stroke="midnightblue" points="412.72,-193.94 404.24,-187.59 406.92,-197.84 412.72,-193.94"/>
</g>
<!-- Node13 -->
<g id="node13" class="node">
<title>Node13</title>
<g id="a_node13"><a xlink:href="v8-value_8h.html" target="_top" xlink:title=" ">
<polygon fill="white" stroke="black" points="522.96,-224.5 522.96,-243.5 583.96,-243.5 583.96,-224.5 522.96,-224.5"/>
<text text-anchor="middle" x="553.46" y="-231.5" font-family="Helvetica,sans-Serif" font-size="10.00">v8&#45;value.h</text>
</a>
</g>
</g>
<!-- Node11&#45;&gt;Node13 -->
<g id="edge20" class="edge">
<title>Node11&#45;&gt;Node13</title>
<path fill="none" stroke="midnightblue" d="M485.47,-280.32C497.99,-271.98 517.14,-259.21 531.93,-249.35"/>
<polygon fill="midnightblue" stroke="midnightblue" points="534.1,-252.11 540.48,-243.65 530.21,-246.29 534.1,-252.11"/>
</g>
<!-- Node12&#45;&gt;Node5 -->
<g id="edge16" class="edge">
<title>Node12&#45;&gt;Node5</title>
<path fill="none" stroke="midnightblue" d="M389.46,-168.32C381.26,-160.42 368.95,-148.55 358.99,-138.94"/>
<polygon fill="midnightblue" stroke="midnightblue" points="361.25,-136.26 351.62,-131.83 356.39,-141.29 361.25,-136.26"/>
</g>
<!-- Node12&#45;&gt;Node10 -->
<g id="edge17" class="edge">
<title>Node12&#45;&gt;Node10</title>
<path fill="none" stroke="midnightblue" d="M398.57,-168.26C399.38,-145.65 404.93,-84.92 440.46,-56 488.43,-16.95 655.56,-30.8 716.46,-20 716.56,-19.98 716.66,-19.96 716.76,-19.95"/>
<polygon fill="midnightblue" stroke="midnightblue" points="717.23,-23.42 726.38,-18.08 715.89,-16.55 717.23,-23.42"/>
</g>
<!-- Node13&#45;&gt;Node5 -->
<g id="edge23" class="edge">
<title>Node13&#45;&gt;Node5</title>
<path fill="none" stroke="midnightblue" d="M538.32,-224.33C516,-211.61 472.86,-187.33 435.46,-168 413.61,-156.71 388.49,-144.6 369.87,-135.8"/>
<polygon fill="midnightblue" stroke="midnightblue" points="371.31,-132.61 360.78,-131.51 368.33,-138.94 371.31,-132.61"/>
</g>
<!-- Node13&#45;&gt;Node7 -->
<g id="edge22" class="edge">
<title>Node13&#45;&gt;Node7</title>
<path fill="none" stroke="midnightblue" d="M551.2,-224.26C546.33,-203.59 536.66,-150.52 554.46,-112 560.25,-99.47 571.42,-89.08 581.92,-81.45"/>
<polygon fill="midnightblue" stroke="midnightblue" points="584.12,-84.19 590.46,-75.71 580.21,-78.38 584.12,-84.19"/>
</g>
<!-- Node13&#45;&gt;Node10 -->
<g id="edge27" class="edge">
<title>Node13&#45;&gt;Node10</title>
<path fill="none" stroke="midnightblue" d="M561.42,-224.3C591.85,-191.01 701.21,-71.42 741.45,-27.41"/>
<polygon fill="midnightblue" stroke="midnightblue" points="744.17,-29.63 748.33,-19.88 739,-24.9 744.17,-29.63"/>
</g>
<!-- Node13&#45;&gt;Node12 -->
<g id="edge21" class="edge">
<title>Node13&#45;&gt;Node12</title>
<path fill="none" stroke="midnightblue" d="M528.9,-224.44C502.94,-215.4 461.79,-201.06 432.66,-190.92"/>
<polygon fill="midnightblue" stroke="midnightblue" points="433.5,-187.5 422.9,-187.52 431.2,-194.11 433.5,-187.5"/>
</g>
<!-- Node14 -->
<g id="node14" class="node">
<title>Node14</title>
<g id="a_node14"><a xlink:href="v8-maybe_8h.html" target="_top" xlink:title=" ">
<polygon fill="white" stroke="black" points="840.46,-168.5 840.46,-187.5 906.46,-187.5 906.46,-168.5 840.46,-168.5"/>
<text text-anchor="middle" x="873.46" y="-175.5" font-family="Helvetica,sans-Serif" font-size="10.00">v8&#45;maybe.h</text>
</a>
</g>
</g>
<!-- Node13&#45;&gt;Node14 -->
<g id="edge24" class="edge">
<title>Node13&#45;&gt;Node14</title>
<path fill="none" stroke="midnightblue" d="M584.14,-227.82C641.31,-218.18 764.26,-197.43 829.97,-186.34"/>
<polygon fill="midnightblue" stroke="midnightblue" points="830.72,-189.76 840,-184.65 829.56,-182.86 830.72,-189.76"/>
</g>
<!-- Node14&#45;&gt;Node7 -->
<g id="edge25" class="edge">
<title>Node14&#45;&gt;Node7</title>
<path fill="none" stroke="midnightblue" d="M840.46,-172.16C790.29,-164.41 697.59,-148.39 668.46,-132 647.52,-120.22 629.34,-99.08 618.17,-84.12"/>
<polygon fill="midnightblue" stroke="midnightblue" points="620.83,-81.82 612.16,-75.73 615.14,-85.9 620.83,-81.82"/>
</g>
<!-- Node14&#45;&gt;Node10 -->
<g id="edge26" class="edge">
<title>Node14&#45;&gt;Node10</title>
<path fill="none" stroke="midnightblue" d="M906.54,-172.26C948.67,-164.69 1013.52,-147.03 991.46,-112 949.32,-45.11 852.14,-22.41 796.85,-14.79"/>
<polygon fill="midnightblue" stroke="midnightblue" points="797.07,-11.29 786.71,-13.49 796.19,-18.23 797.07,-11.29"/>
</g>
<!-- Node15&#45;&gt;Node5 -->
<g id="edge34" class="edge">
<title>Node15&#45;&gt;Node5</title>
<path fill="none" stroke="midnightblue" d="M1350.95,-336.84C1190.36,-302.78 573.87,-172.07 392.76,-133.67"/>
<polygon fill="midnightblue" stroke="midnightblue" points="393.22,-130.19 382.71,-131.54 391.77,-137.03 393.22,-130.19"/>
</g>
<!-- Node15&#45;&gt;Node10 -->
<g id="edge37" class="edge">
<title>Node15&#45;&gt;Node10</title>
<path fill="none" stroke="midnightblue" d="M1395.68,-336.27C1419.82,-302.21 1506.56,-177.88 1519.46,-132 1521.86,-123.44 1524.06,-119.6 1519.46,-112 1491.66,-66.08 1464.11,-70.59 1412.46,-56 1295.84,-23.05 921.45,-13.8 797.06,-11.61"/>
<polygon fill="midnightblue" stroke="midnightblue" points="796.9,-8.1 786.84,-11.43 796.78,-15.1 796.9,-8.1"/>
</g>
<!-- Node15&#45;&gt;Node11 -->
<g id="edge36" class="edge">
<title>Node15&#45;&gt;Node11</title>
<path fill="none" stroke="midnightblue" d="M1350.93,-342.73C1204.16,-334.09 680.2,-303.23 519.6,-293.78"/>
<polygon fill="midnightblue" stroke="midnightblue" points="519.74,-290.28 509.55,-293.18 519.33,-297.27 519.74,-290.28"/>
</g>
<!-- Node15&#45;&gt;Node14 -->
<g id="edge35" class="edge">
<title>Node15&#45;&gt;Node14</title>
<path fill="none" stroke="midnightblue" d="M1362.8,-336.42C1277,-308.82 1007.84,-222.23 909.71,-190.66"/>
<polygon fill="midnightblue" stroke="midnightblue" points="910.55,-187.25 899.95,-187.52 908.4,-193.92 910.55,-187.25"/>
</g>
<!-- Node16 -->
<g id="node16" class="node">
<title>Node16</title>
<g id="a_node16"><a xlink:title=" ">
<polygon fill="white" stroke="#bfbfbf" points="1464.96,-112.5 1464.96,-131.5 1509.96,-131.5 1509.96,-112.5 1464.96,-112.5"/>
<text text-anchor="middle" x="1487.46" y="-119.5" font-family="Helvetica,sans-Serif" font-size="10.00">stdio.h</text>
</a>
</g>
</g>
<!-- Node15&#45;&gt;Node16 -->
<g id="edge32" class="edge">
<title>Node15&#45;&gt;Node16</title>
<path fill="none" stroke="midnightblue" d="M1427.97,-340.36C1453.2,-335.1 1484.37,-323.89 1500.46,-300 1533.69,-250.67 1509.41,-175.1 1495.46,-140.91"/>
<polygon fill="midnightblue" stroke="midnightblue" points="1498.68,-139.52 1491.54,-131.7 1492.24,-142.27 1498.68,-139.52"/>
</g>
<!-- Node17 -->
<g id="node17" class="node">
<title>Node17</title>
<g id="a_node17"><a xlink:title=" ">
<polygon fill="white" stroke="#bfbfbf" points="1445.96,-280.5 1445.96,-299.5 1490.96,-299.5 1490.96,-280.5 1445.96,-280.5"/>
<text text-anchor="middle" x="1468.46" y="-287.5" font-family="Helvetica,sans-Serif" font-size="10.00">iosfwd</text>
</a>
</g>
</g>
<!-- Node15&#45;&gt;Node17 -->
<g id="edge33" class="edge">
<title>Node15&#45;&gt;Node17</title>
<path fill="none" stroke="midnightblue" d="M1402.15,-336.32C1414.36,-327.98 1433.04,-315.21 1447.46,-305.35"/>
<polygon fill="midnightblue" stroke="midnightblue" points="1449.52,-308.19 1455.8,-299.65 1445.57,-302.41 1449.52,-308.19"/>
</g>
<!-- Node18&#45;&gt;Node5 -->
<g id="edge39" class="edge">
<title>Node18&#45;&gt;Node5</title>
<path fill="none" stroke="midnightblue" d="M521.4,-339.28C494.05,-333.17 454.77,-321.32 426.46,-300 377.8,-263.35 367.92,-245.38 347.46,-188 342.17,-173.16 341.15,-155.24 341.33,-141.97"/>
<polygon fill="midnightblue" stroke="midnightblue" points="344.83,-141.83 341.71,-131.71 337.84,-141.57 344.83,-141.83"/>
</g>
<!-- Node18&#45;&gt;Node10 -->
<g id="edge63" class="edge">
<title>Node18&#45;&gt;Node10</title>
<path fill="none" stroke="midnightblue" d="M582.04,-336.39C635.2,-318.63 748,-272.38 793.46,-188 822.06,-134.9 786.89,-61.81 767.56,-28.64"/>
<polygon fill="midnightblue" stroke="midnightblue" points="770.32,-26.45 762.16,-19.7 764.33,-30.07 770.32,-26.45"/>
</g>
<!-- Node18&#45;&gt;Node11 -->
<g id="edge47" class="edge">
<title>Node18&#45;&gt;Node11</title>
<path fill="none" stroke="midnightblue" d="M540.44,-336.32C527.93,-327.98 508.78,-315.21 493.99,-305.35"/>
<polygon fill="midnightblue" stroke="midnightblue" points="495.7,-302.29 485.44,-299.65 491.82,-308.11 495.7,-302.29"/>
</g>
<!-- Node18&#45;&gt;Node13 -->
<g id="edge62" class="edge">
<title>Node18&#45;&gt;Node13</title>
<path fill="none" stroke="midnightblue" d="M553.46,-336.37C553.46,-318.62 553.46,-277.67 553.46,-253.6"/>
<polygon fill="midnightblue" stroke="midnightblue" points="556.96,-253.59 553.46,-243.59 549.96,-253.59 556.96,-253.59"/>
</g>
<!-- Node18&#45;&gt;Node14 -->
<g id="edge40" class="edge">
<title>Node18&#45;&gt;Node14</title>
<path fill="none" stroke="midnightblue" d="M585.88,-343.61C650.01,-340.23 790,-329.59 826.46,-300 858,-274.4 868.42,-224.86 871.83,-197.79"/>
<polygon fill="midnightblue" stroke="midnightblue" points="875.33,-198.01 872.9,-187.7 868.37,-197.27 875.33,-198.01"/>
</g>
<!-- Node19 -->
<g id="node19" class="node">
<title>Node19</title>
<g id="a_node19"><a xlink:href="v8-persistent-handle_8h.html" target="_top" xlink:title=" ">
<polygon fill="white" stroke="black" points="672.46,-168.5 672.46,-187.5 784.46,-187.5 784.46,-168.5 672.46,-168.5"/>
<text text-anchor="middle" x="728.46" y="-175.5" font-family="Helvetica,sans-Serif" font-size="10.00">v8&#45;persistent&#45;handle.h</text>
</a>
</g>
</g>
<!-- Node18&#45;&gt;Node19 -->
<g id="edge41" class="edge">
<title>Node18&#45;&gt;Node19</title>
<path fill="none" stroke="midnightblue" d="M562.87,-336.08C591.25,-309.15 676.26,-228.51 712.17,-194.45"/>
<polygon fill="midnightblue" stroke="midnightblue" points="714.58,-196.99 719.43,-187.57 709.76,-191.91 714.58,-196.99"/>
</g>
<!-- Node21 -->
<g id="node21" class="node">
<title>Node21</title>
<g id="a_node21"><a xlink:href="v8-traced-handle_8h.html" target="_top" xlink:title=" ">
<polygon fill="white" stroke="black" points="1046.46,-168.5 1046.46,-187.5 1142.46,-187.5 1142.46,-168.5 1046.46,-168.5"/>
<text text-anchor="middle" x="1094.46" y="-175.5" font-family="Helvetica,sans-Serif" font-size="10.00">v8&#45;traced&#45;handle.h</text>
</a>
</g>
</g>
<!-- Node18&#45;&gt;Node21 -->
<g id="edge48" class="edge">
<title>Node18&#45;&gt;Node21</title>
<path fill="none" stroke="midnightblue" d="M585.61,-343.31C640.61,-339.71 755.78,-329.1 848.46,-300 935.63,-272.63 1030.41,-218.26 1072.36,-192.78"/>
<polygon fill="midnightblue" stroke="midnightblue" points="1074.24,-195.73 1080.94,-187.52 1070.59,-189.76 1074.24,-195.73"/>
</g>
<!-- Node19&#45;&gt;Node5 -->
<g id="edge43" class="edge">
<title>Node19&#45;&gt;Node5</title>
<path fill="none" stroke="midnightblue" d="M672.33,-169.15C598.64,-158.84 470.1,-140.86 397.14,-130.65"/>
<polygon fill="midnightblue" stroke="midnightblue" points="397.61,-127.18 387.22,-129.26 396.64,-134.11 397.61,-127.18"/>
</g>
<!-- Node19&#45;&gt;Node7 -->
<g id="edge42" class="edge">
<title>Node19&#45;&gt;Node7</title>
<path fill="none" stroke="midnightblue" d="M694.04,-168.47C673.17,-161.7 647.38,-150.27 630.46,-132 618.59,-119.19 612.47,-100 609.39,-85.79"/>
<polygon fill="midnightblue" stroke="midnightblue" points="612.78,-84.88 607.52,-75.68 605.89,-86.15 612.78,-84.88"/>
</g>
<!-- Node19&#45;&gt;Node10 -->
<g id="edge46" class="edge">
<title>Node19&#45;&gt;Node10</title>
<path fill="none" stroke="midnightblue" d="M729.96,-168.08C734.37,-141.95 747.31,-65.21 753.32,-29.58"/>
<polygon fill="midnightblue" stroke="midnightblue" points="756.8,-30.01 755.01,-19.57 749.9,-28.85 756.8,-30.01"/>
</g>
<!-- Node20 -->
<g id="node20" class="node">
<title>Node20</title>
<g id="a_node20"><a xlink:href="v8-weak-callback-info_8h.html" target="_top" xlink:title=" ">
<polygon fill="white" stroke="black" points="862.96,-112.5 862.96,-131.5 981.96,-131.5 981.96,-112.5 862.96,-112.5"/>
<text text-anchor="middle" x="922.46" y="-119.5" font-family="Helvetica,sans-Serif" font-size="10.00">v8&#45;weak&#45;callback&#45;info.h</text>
</a>
</g>
</g>
<!-- Node19&#45;&gt;Node20 -->
<g id="edge44" class="edge">
<title>Node19&#45;&gt;Node20</title>
<path fill="none" stroke="midnightblue" d="M759.2,-168.44C792.4,-159.2 845.45,-144.44 882.02,-134.26"/>
<polygon fill="midnightblue" stroke="midnightblue" points="883.17,-137.57 891.86,-131.52 881.29,-130.83 883.17,-137.57"/>
</g>
<!-- Node20&#45;&gt;Node10 -->
<g id="edge45" class="edge">
<title>Node20&#45;&gt;Node10</title>
<path fill="none" stroke="midnightblue" d="M913.97,-112.17C900.83,-98.83 874.36,-73.26 848.46,-56 829.14,-43.13 805.61,-31.68 787.17,-23.56"/>
<polygon fill="midnightblue" stroke="midnightblue" points="788.35,-20.25 777.78,-19.51 785.58,-26.68 788.35,-20.25"/>
</g>
<!-- Node21&#45;&gt;Node2 -->
<g id="edge49" class="edge">
<title>Node21&#45;&gt;Node2</title>
<path fill="none" stroke="midnightblue" d="M1046.38,-174.38C987.09,-170.09 883.8,-159.12 799.46,-132 747.23,-115.21 738.31,-100.96 689.46,-76 672.11,-67.14 669.17,-61.42 650.46,-56 563.47,-30.8 287.47,-16.79 188.34,-12.46"/>
<polygon fill="midnightblue" stroke="midnightblue" points="188.37,-8.96 178.23,-12.03 188.07,-15.95 188.37,-8.96"/>
</g>
<!-- Node21&#45;&gt;Node3 -->
<g id="edge50" class="edge">
<title>Node21&#45;&gt;Node3</title>
<path fill="none" stroke="midnightblue" d="M1142.67,-173.36C1208.67,-167.62 1322.9,-154.69 1357.46,-132 1395.6,-106.96 1419.42,-56.43 1430.01,-29.27"/>
<polygon fill="midnightblue" stroke="midnightblue" points="1433.33,-30.39 1433.54,-19.8 1426.77,-27.95 1433.33,-30.39"/>
</g>
<!-- Node21&#45;&gt;Node5 -->
<g id="edge59" class="edge">
<title>Node21&#45;&gt;Node5</title>
<path fill="none" stroke="midnightblue" d="M1046.27,-173.54C912.81,-163.96 538.92,-137.11 397.54,-126.96"/>
<polygon fill="midnightblue" stroke="midnightblue" points="397.6,-123.45 387.37,-126.23 397.1,-130.43 397.6,-123.45"/>
</g>
<!-- Node21&#45;&gt;Node6 -->
<g id="edge55" class="edge">
<title>Node21&#45;&gt;Node6</title>
<path fill="none" stroke="midnightblue" d="M1046.24,-171.51C997.16,-165.1 919.29,-152.66 854.46,-132 777.53,-107.49 765.37,-83.49 689.46,-56 647.5,-40.81 597.97,-28.09 563.8,-20.09"/>
<polygon fill="midnightblue" stroke="midnightblue" points="564.25,-16.6 553.72,-17.76 562.68,-23.42 564.25,-16.6"/>
</g>
<!-- Node21&#45;&gt;Node7 -->
<g id="edge58" class="edge">
<title>Node21&#45;&gt;Node7</title>
<path fill="none" stroke="midnightblue" d="M1046.37,-174.17C956.8,-168.46 767.94,-154.16 706.46,-132 689.79,-125.99 650.72,-98.97 626.64,-81.71"/>
<polygon fill="midnightblue" stroke="midnightblue" points="628.39,-78.65 618.23,-75.64 624.29,-84.33 628.39,-78.65"/>
</g>
<!-- Node21&#45;&gt;Node10 -->
<g id="edge61" class="edge">
<title>Node21&#45;&gt;Node10</title>
<path fill="none" stroke="midnightblue" d="M1142.63,-175.29C1207.21,-171.88 1316.64,-161.75 1341.46,-132 1347.15,-125.17 1347.18,-118.8 1341.46,-112 1271.21,-28.59 917.37,-14.06 796.78,-11.53"/>
<polygon fill="midnightblue" stroke="midnightblue" points="796.58,-8.03 786.52,-11.34 796.45,-15.03 796.58,-8.03"/>
</g>
<!-- Node21&#45;&gt;Node16 -->
<g id="edge51" class="edge">
<title>Node21&#45;&gt;Node16</title>
<path fill="none" stroke="midnightblue" d="M1142.52,-172.66C1211.16,-166.08 1341.1,-152.15 1450.46,-132 1451.92,-131.73 1453.41,-131.44 1454.92,-131.13"/>
<polygon fill="midnightblue" stroke="midnightblue" points="1455.84,-134.51 1464.85,-128.93 1454.33,-127.68 1455.84,-134.51"/>
</g>
<!-- Node21&#45;&gt;Node20 -->
<g id="edge60" class="edge">
<title>Node21&#45;&gt;Node20</title>
<path fill="none" stroke="midnightblue" d="M1067.2,-168.44C1038.02,-159.28 991.54,-144.69 959.15,-134.52"/>
<polygon fill="midnightblue" stroke="midnightblue" points="960.17,-131.17 949.58,-131.52 958.08,-137.85 960.17,-131.17"/>
</g>
<!-- Node22 -->
<g id="node22" class="node">
<title>Node22</title>
<g id="a_node22"><a xlink:title=" ">
<polygon fill="white" stroke="#bfbfbf" points="1038.46,-112.5 1038.46,-131.5 1084.46,-131.5 1084.46,-112.5 1038.46,-112.5"/>
<text text-anchor="middle" x="1061.46" y="-119.5" font-family="Helvetica,sans-Serif" font-size="10.00">atomic</text>
</a>
</g>
</g>
<!-- Node21&#45;&gt;Node22 -->
<g id="edge52" class="edge">
<title>Node21&#45;&gt;Node22</title>
<path fill="none" stroke="midnightblue" d="M1089.01,-168.08C1084.44,-160.61 1077.79,-149.72 1072.16,-140.52"/>
<polygon fill="midnightblue" stroke="midnightblue" points="1075.01,-138.46 1066.81,-131.75 1069.03,-142.11 1075.01,-138.46"/>
</g>
<!-- Node23 -->
<g id="node23" class="node">
<title>Node23</title>
<g id="a_node23"><a xlink:title=" ">
<polygon fill="white" stroke="#bfbfbf" points="1102.96,-112.5 1102.96,-131.5 1153.96,-131.5 1153.96,-112.5 1102.96,-112.5"/>
<text text-anchor="middle" x="1128.46" y="-119.5" font-family="Helvetica,sans-Serif" font-size="10.00">memory</text>
</a>
</g>
</g>
<!-- Node21&#45;&gt;Node23 -->
<g id="edge53" class="edge">
<title>Node21&#45;&gt;Node23</title>
<path fill="none" stroke="midnightblue" d="M1100.07,-168.08C1104.83,-160.53 1111.78,-149.49 1117.61,-140.23"/>
<polygon fill="midnightblue" stroke="midnightblue" points="1120.58,-142.08 1122.95,-131.75 1114.66,-138.35 1120.58,-142.08"/>
</g>
<!-- Node24 -->
<g id="node24" class="node">
<title>Node24</title>
<g id="a_node24"><a xlink:title=" ">
<polygon fill="white" stroke="#bfbfbf" points="1171.96,-112.5 1171.96,-131.5 1212.96,-131.5 1212.96,-112.5 1171.96,-112.5"/>
<text text-anchor="middle" x="1192.46" y="-119.5" font-family="Helvetica,sans-Serif" font-size="10.00">string</text>
</a>
</g>
</g>
<!-- Node21&#45;&gt;Node24 -->
<g id="edge54" class="edge">
<title>Node21&#45;&gt;Node24</title>
<path fill="none" stroke="midnightblue" d="M1110.2,-168.32C1125.78,-159.74 1149.84,-146.49 1167.92,-136.52"/>
<polygon fill="midnightblue" stroke="midnightblue" points="1169.68,-139.55 1176.75,-131.65 1166.3,-133.42 1169.68,-139.55"/>
</g>
<!-- Node25 -->
<g id="node25" class="node">
<title>Node25</title>
<g id="a_node25"><a xlink:title=" ">
<polygon fill="white" stroke="#bfbfbf" points="1230.96,-112.5 1230.96,-131.5 1269.96,-131.5 1269.96,-112.5 1230.96,-112.5"/>
<text text-anchor="middle" x="1250.46" y="-119.5" font-family="Helvetica,sans-Serif" font-size="10.00">utility</text>
</a>
</g>
</g>
<!-- Node21&#45;&gt;Node25 -->
<g id="edge56" class="edge">
<title>Node21&#45;&gt;Node25</title>
<path fill="none" stroke="midnightblue" d="M1119.18,-168.44C1146.84,-158.87 1191.64,-143.36 1221.08,-133.17"/>
<polygon fill="midnightblue" stroke="midnightblue" points="1222.49,-136.39 1230.79,-129.81 1220.2,-129.77 1222.49,-136.39"/>
</g>
<!-- Node26 -->
<g id="node26" class="node">
<title>Node26</title>
<g id="a_node26"><a xlink:title=" ">
<polygon fill="white" stroke="#bfbfbf" points="1288.46,-112.5 1288.46,-131.5 1332.46,-131.5 1332.46,-112.5 1288.46,-112.5"/>
<text text-anchor="middle" x="1310.46" y="-119.5" font-family="Helvetica,sans-Serif" font-size="10.00">vector</text>
</a>
</g>
</g>
<!-- Node21&#45;&gt;Node26 -->
<g id="edge57" class="edge">
<title>Node21&#45;&gt;Node26</title>
<path fill="none" stroke="midnightblue" d="M1131.79,-168.43C1167.19,-160.19 1222.1,-147.11 1278.36,-132.21"/>
<polygon fill="midnightblue" stroke="midnightblue" points="1279.38,-135.56 1288.14,-129.61 1277.58,-128.8 1279.38,-135.56"/>
</g>
<!-- Node27&#45;&gt;Node4 -->
<g id="edge66" class="edge">
<title>Node27&#45;&gt;Node4</title>
<path fill="none" stroke="midnightblue" d="M268.96,-392.32C255.86,-383.9 235.75,-370.97 220.35,-361.07"/>
<polygon fill="midnightblue" stroke="midnightblue" points="222.23,-358.12 211.92,-355.65 218.44,-364.01 222.23,-358.12"/>
</g>
<!-- Node27&#45;&gt;Node5 -->
<g id="edge67" class="edge">
<title>Node27&#45;&gt;Node5</title>
<path fill="none" stroke="midnightblue" d="M284.32,-392.38C292.67,-353.7 326.75,-195.79 338.47,-141.47"/>
<polygon fill="midnightblue" stroke="midnightblue" points="341.93,-142.04 340.62,-131.52 335.09,-140.56 341.93,-142.04"/>
</g>
<!-- Node27&#45;&gt;Node10 -->
<g id="edge72" class="edge">
<title>Node27&#45;&gt;Node10</title>
<path fill="none" stroke="midnightblue" d="M244.65,-399.17C211.36,-395.55 163.75,-385.2 134.46,-356 113.05,-334.66 114.46,-321.23 114.46,-291 114.46,-291 114.46,-291 114.46,-233 114.46,-103.31 224.06,-98.9 346.46,-56 502.38,-1.35 553.33,-46.18 716.46,-20 716.56,-19.98 716.66,-19.97 716.76,-19.95"/>
<polygon fill="midnightblue" stroke="midnightblue" points="717.19,-23.43 726.39,-18.19 715.93,-16.55 717.19,-23.43"/>
</g>
<!-- Node27&#45;&gt;Node12 -->
<g id="edge65" class="edge">
<title>Node27&#45;&gt;Node12</title>
<path fill="none" stroke="midnightblue" d="M287.01,-392.3C304.22,-359.36 365.59,-241.9 389.15,-196.81"/>
<polygon fill="midnightblue" stroke="midnightblue" points="392.29,-198.37 393.82,-187.88 386.08,-195.13 392.29,-198.37"/>
</g>
<!-- Node27&#45;&gt;Node18 -->
<g id="edge71" class="edge">
<title>Node27&#45;&gt;Node18</title>
<path fill="none" stroke="midnightblue" d="M320.14,-393.49C370.31,-383.49 458.81,-365.86 511.2,-355.42"/>
<polygon fill="midnightblue" stroke="midnightblue" points="512.05,-358.82 521.17,-353.43 510.68,-351.96 512.05,-358.82"/>
</g>
<!-- Node28 -->
<g id="node28" class="node">
<title>Node28</title>
<g id="a_node28"><a xlink:href="v8-memory-span_8h.html" target="_top" xlink:title=" ">
<polygon fill="white" stroke="black" points="28.46,-56.5 28.46,-75.5 124.46,-75.5 124.46,-56.5 28.46,-56.5"/>
<text text-anchor="middle" x="76.46" y="-63.5" font-family="Helvetica,sans-Serif" font-size="10.00">v8&#45;memory&#45;span.h</text>
</a>
</g>
</g>
<!-- Node27&#45;&gt;Node28 -->
<g id="edge68" class="edge">
<title>Node27&#45;&gt;Node28</title>
<path fill="none" stroke="midnightblue" d="M244.62,-401.54C204.13,-400.1 140.37,-391.7 100.46,-356 77.5,-335.47 76.46,-321.8 76.46,-291 76.46,-291 76.46,-291 76.46,-177 76.46,-144.95 76.46,-107.64 76.46,-85.75"/>
<polygon fill="midnightblue" stroke="midnightblue" points="79.96,-85.56 76.46,-75.56 72.96,-85.56 79.96,-85.56"/>
</g>
<!-- Node28&#45;&gt;Node2 -->
<g id="edge69" class="edge">
<title>Node28&#45;&gt;Node2</title>
<path fill="none" stroke="midnightblue" d="M88.67,-56.32C100.23,-48.11 117.83,-35.6 131.62,-25.81"/>
<polygon fill="midnightblue" stroke="midnightblue" points="133.9,-28.48 140.03,-19.83 129.85,-22.77 133.9,-28.48"/>
</g>
<!-- Node28&#45;&gt;Node10 -->
<g id="edge70" class="edge">
<title>Node28&#45;&gt;Node10</title>
<path fill="none" stroke="midnightblue" d="M124.6,-61.82C268.5,-52.27 687.29,-24.28 716.46,-20 716.56,-19.99 716.66,-19.97 716.76,-19.96"/>
<polygon fill="midnightblue" stroke="midnightblue" points="717.16,-23.44 726.41,-18.27 715.96,-16.54 717.16,-23.44"/>
</g>
</g>
</svg>
