<?xml version="1.0" encoding="UTF-8" standalone="no"?>
<!DOCTYPE svg PUBLIC "-//W3C//DTD SVG 1.1//EN"
 "http://www.w3.org/Graphics/SVG/1.1/DTD/svg11.dtd">
<!-- Generated by graphviz version 2.49.3 (20211027.1534)
 -->
<!-- Title: include/v8&#45;message.h Pages: 1 -->
<svg width="384pt" height="140pt"
 viewBox="0.00 0.00 383.50 140.00" xmlns="http://www.w3.org/2000/svg" xmlns:xlink="http://www.w3.org/1999/xlink">
<g id="graph0" class="graph" transform="scale(1 1) rotate(0) translate(4 136)">
<title>include/v8&#45;message.h</title>
<polygon fill="white" stroke="transparent" points="-4,4 -4,-136 379.5,-136 379.5,4 -4,4"/>
<!-- Node1 -->
<g id="node1" class="node">
<title>Node1</title>
<g id="a_node1"><a xlink:title=" ">
<polygon fill="#bfbfbf" stroke="black" points="117.5,-112.5 117.5,-131.5 228.5,-131.5 228.5,-112.5 117.5,-112.5"/>
<text text-anchor="middle" x="173" y="-119.5" font-family="Helvetica,sans-Serif" font-size="10.00">include/v8&#45;message.h</text>
</a>
</g>
</g>
<!-- Node2 -->
<g id="node2" class="node">
<title>Node2</title>
<g id="a_node2"><a xlink:href="v8-function_8h.html" target="_top" xlink:title=" ">
<polygon fill="white" stroke="black" points="0,-56.5 0,-75.5 106,-75.5 106,-56.5 0,-56.5"/>
<text text-anchor="middle" x="53" y="-63.5" font-family="Helvetica,sans-Serif" font-size="10.00">include/v8&#45;function.h</text>
</a>
</g>
</g>
<!-- Node1&#45;&gt;Node2 -->
<g id="edge1" class="edge">
<title>Node1&#45;&gt;Node2</title>
<path fill="none" stroke="midnightblue" d="M144.63,-108.23C122.18,-98.13 91.46,-84.31 71.93,-75.52"/>
<polygon fill="midnightblue" stroke="midnightblue" points="143.43,-111.53 153.99,-112.44 146.3,-105.15 143.43,-111.53"/>
</g>
<!-- Node3 -->
<g id="node3" class="node">
<title>Node3</title>
<g id="a_node3"><a xlink:href="v8_8h.html" target="_top" xlink:title=" ">
<polygon fill="white" stroke="black" points="100,-0.5 100,-19.5 168,-19.5 168,-0.5 100,-0.5"/>
<text text-anchor="middle" x="134" y="-7.5" font-family="Helvetica,sans-Serif" font-size="10.00">include/v8.h</text>
</a>
</g>
</g>
<!-- Node1&#45;&gt;Node3 -->
<g id="edge6" class="edge">
<title>Node1&#45;&gt;Node3</title>
<path fill="none" stroke="midnightblue" d="M164.31,-102.95C160.57,-94.81 156.31,-85.03 153,-76 145.72,-56.13 139.28,-32.07 136.1,-19.53"/>
<polygon fill="midnightblue" stroke="midnightblue" points="161.23,-104.62 168.66,-112.18 167.57,-101.64 161.23,-104.62"/>
</g>
<!-- Node4 -->
<g id="node4" class="node">
<title>Node4</title>
<g id="a_node4"><a xlink:href="v8-profiler_8h.html" target="_top" xlink:title=" ">
<polygon fill="white" stroke="black" points="162,-56.5 162,-75.5 262,-75.5 262,-56.5 162,-56.5"/>
<text text-anchor="middle" x="212" y="-63.5" font-family="Helvetica,sans-Serif" font-size="10.00">include/v8&#45;profiler.h</text>
</a>
</g>
</g>
<!-- Node1&#45;&gt;Node4 -->
<g id="edge3" class="edge">
<title>Node1&#45;&gt;Node4</title>
<path fill="none" stroke="midnightblue" d="M185.38,-103.86C192.14,-94.5 200.21,-83.33 205.68,-75.75"/>
<polygon fill="midnightblue" stroke="midnightblue" points="182.46,-101.93 179.44,-112.08 188.13,-106.03 182.46,-101.93"/>
</g>
<!-- Node5 -->
<g id="node5" class="node">
<title>Node5</title>
<g id="a_node5"><a xlink:href="v8-script_8h.html" target="_top" xlink:title=" ">
<polygon fill="white" stroke="black" points="280.5,-56.5 280.5,-75.5 375.5,-75.5 375.5,-56.5 280.5,-56.5"/>
<text text-anchor="middle" x="328" y="-63.5" font-family="Helvetica,sans-Serif" font-size="10.00">include/v8&#45;script.h</text>
</a>
</g>
</g>
<!-- Node1&#45;&gt;Node5 -->
<g id="edge4" class="edge">
<title>Node1&#45;&gt;Node5</title>
<path fill="none" stroke="midnightblue" d="M207.33,-109.04C236.5,-98.88 277.64,-84.55 303.55,-75.52"/>
<polygon fill="midnightblue" stroke="midnightblue" points="205.85,-105.85 197.56,-112.44 208.16,-112.46 205.85,-105.85"/>
</g>
<!-- Node2&#45;&gt;Node3 -->
<g id="edge2" class="edge">
<title>Node2&#45;&gt;Node3</title>
<path fill="none" stroke="midnightblue" d="M74.57,-50.62C89.36,-40.76 108.51,-27.99 121.02,-19.65"/>
<polygon fill="midnightblue" stroke="midnightblue" points="72.39,-47.86 66.01,-56.32 76.28,-53.69 72.39,-47.86"/>
</g>
<!-- Node5&#45;&gt;Node3 -->
<g id="edge5" class="edge">
<title>Node5&#45;&gt;Node3</title>
<path fill="none" stroke="midnightblue" d="M287.4,-53.7C250.78,-43.51 197.74,-28.74 164.6,-19.52"/>
<polygon fill="midnightblue" stroke="midnightblue" points="286.69,-57.13 297.26,-56.44 288.56,-50.39 286.69,-57.13"/>
</g>
</g>
</svg>
