<?xml version="1.0" encoding="UTF-8" standalone="no"?>
<!DOCTYPE svg PUBLIC "-//W3C//DTD SVG 1.1//EN"
 "http://www.w3.org/Graphics/SVG/1.1/DTD/svg11.dtd">
<!-- Generated by graphviz version 2.49.3 (20211027.1534)
 -->
<!-- Title: include/v8&#45;platform.h Pages: 1 -->
<svg width="954pt" height="598pt"
 viewBox="0.00 0.00 954.15 598.00" xmlns="http://www.w3.org/2000/svg" xmlns:xlink="http://www.w3.org/1999/xlink">
<g id="graph0" class="graph" transform="scale(1 1) rotate(0) translate(4 594)">
<title>include/v8&#45;platform.h</title>
<polygon fill="white" stroke="transparent" points="-4,4 -4,-594 950.15,-594 950.15,4 -4,4"/>
<!-- Node1 -->
<g id="node1" class="node">
<title>Node1</title>
<g id="a_node1"><a xlink:title=" ">
<polygon fill="#bfbfbf" stroke="black" points="84.65,-570.5 84.65,-589.5 191.65,-589.5 191.65,-570.5 84.65,-570.5"/>
<text text-anchor="middle" x="138.15" y="-577.5" font-family="Helvetica,sans-Serif" font-size="10.00">include/v8&#45;platform.h</text>
</a>
</g>
</g>
<!-- Node2 -->
<g id="node2" class="node">
<title>Node2</title>
<g id="a_node2"><a xlink:href="platform_8h.html" target="_top" xlink:title=" ">
<polygon fill="white" stroke="black" points="316.15,-509 316.15,-528 438.15,-528 438.15,-509 316.15,-509"/>
<text text-anchor="middle" x="377.15" y="-516" font-family="Helvetica,sans-Serif" font-size="10.00">include/cppgc/platform.h</text>
</a>
</g>
</g>
<!-- Node1&#45;&gt;Node2 -->
<g id="edge1" class="edge">
<title>Node1&#45;&gt;Node2</title>
<path fill="none" stroke="midnightblue" d="M182.17,-568.04C228.56,-556.49 300.67,-538.54 342.97,-528.01"/>
<polygon fill="midnightblue" stroke="midnightblue" points="181.25,-564.66 172.39,-570.48 182.94,-571.46 181.25,-564.66"/>
</g>
<!-- Node8 -->
<g id="node8" class="node">
<title>Node8</title>
<g id="a_node8"><a xlink:href="v8-cppgc_8h.html" target="_top" xlink:title=" ">
<polygon fill="white" stroke="black" points="216.15,-67.5 216.15,-86.5 314.15,-86.5 314.15,-67.5 216.15,-67.5"/>
<text text-anchor="middle" x="265.15" y="-74.5" font-family="Helvetica,sans-Serif" font-size="10.00">include/v8&#45;cppgc.h</text>
</a>
</g>
</g>
<!-- Node1&#45;&gt;Node8 -->
<g id="edge34" class="edge">
<title>Node1&#45;&gt;Node8</title>
<path fill="none" stroke="midnightblue" d="M138.15,-560.3C138.15,-535.62 138.15,-490.8 138.15,-452.5 138.15,-452.5 138.15,-452.5 138.15,-193.5 138.15,-137.77 205.91,-101.83 242.44,-86.5"/>
<polygon fill="midnightblue" stroke="midnightblue" points="134.65,-560.41 138.15,-570.41 141.65,-560.41 134.65,-560.41"/>
</g>
<!-- Node19 -->
<g id="node19" class="node">
<title>Node19</title>
<g id="a_node19"><a xlink:href="libplatform_8h.html" target="_top" xlink:title=" ">
<polygon fill="white" stroke="black" points="14.65,-436.5 14.65,-466.5 109.65,-466.5 109.65,-436.5 14.65,-436.5"/>
<text text-anchor="start" x="22.65" y="-454.5" font-family="Helvetica,sans-Serif" font-size="10.00">include/libplatform</text>
<text text-anchor="middle" x="62.15" y="-443.5" font-family="Helvetica,sans-Serif" font-size="10.00">/libplatform.h</text>
</a>
</g>
</g>
<!-- Node1&#45;&gt;Node19 -->
<g id="edge30" class="edge">
<title>Node1&#45;&gt;Node19</title>
<path fill="none" stroke="midnightblue" d="M74.77,-573.46C48.81,-567.69 21.15,-556.31 5.15,-534 -11.66,-510.57 17.72,-483.03 40.17,-466.71"/>
<polygon fill="midnightblue" stroke="midnightblue" points="74.12,-576.89 84.61,-575.4 75.48,-570.03 74.12,-576.89"/>
</g>
<!-- Node20 -->
<g id="node20" class="node">
<title>Node20</title>
<g id="a_node20"><a xlink:href="v8-tracing_8h.html" target="_top" xlink:title=" ">
<polygon fill="white" stroke="black" points="14.65,-503.5 14.65,-533.5 109.65,-533.5 109.65,-503.5 14.65,-503.5"/>
<text text-anchor="start" x="22.65" y="-521.5" font-family="Helvetica,sans-Serif" font-size="10.00">include/libplatform</text>
<text text-anchor="middle" x="62.15" y="-510.5" font-family="Helvetica,sans-Serif" font-size="10.00">/v8&#45;tracing.h</text>
</a>
</g>
</g>
<!-- Node1&#45;&gt;Node20 -->
<g id="edge32" class="edge">
<title>Node1&#45;&gt;Node20</title>
<path fill="none" stroke="midnightblue" d="M119.24,-564.2C107.25,-554.81 91.85,-542.75 80.06,-533.52"/>
<polygon fill="midnightblue" stroke="midnightblue" points="117.23,-567.07 127.26,-570.48 121.54,-561.55 117.23,-567.07"/>
</g>
<!-- Node21 -->
<g id="node21" class="node">
<title>Node21</title>
<g id="a_node21"><a xlink:href="v8-initialization_8h.html" target="_top" xlink:title=" ">
<polygon fill="white" stroke="black" points="645.15,-509 645.15,-528 767.15,-528 767.15,-509 645.15,-509"/>
<text text-anchor="middle" x="706.15" y="-516" font-family="Helvetica,sans-Serif" font-size="10.00">include/v8&#45;initialization.h</text>
</a>
</g>
</g>
<!-- Node1&#45;&gt;Node21 -->
<g id="edge35" class="edge">
<title>Node1&#45;&gt;Node21</title>
<path fill="none" stroke="midnightblue" d="M201.81,-572.33C311.88,-560.8 536.39,-537.28 644.82,-525.92"/>
<polygon fill="midnightblue" stroke="midnightblue" points="201.42,-568.85 191.84,-573.38 202.15,-575.81 201.42,-568.85"/>
</g>
<!-- Node3 -->
<g id="node3" class="node">
<title>Node3</title>
<g id="a_node3"><a xlink:href="default-platform_8h.html" target="_top" xlink:title=" ">
<polygon fill="white" stroke="black" points="166.65,-369.5 166.65,-399.5 275.65,-399.5 275.65,-369.5 166.65,-369.5"/>
<text text-anchor="start" x="174.65" y="-387.5" font-family="Helvetica,sans-Serif" font-size="10.00">include/cppgc/default</text>
<text text-anchor="middle" x="221.15" y="-376.5" font-family="Helvetica,sans-Serif" font-size="10.00">&#45;platform.h</text>
</a>
</g>
</g>
<!-- Node2&#45;&gt;Node3 -->
<g id="edge2" class="edge">
<title>Node2&#45;&gt;Node3</title>
<path fill="none" stroke="midnightblue" d="M308.5,-506.26C283.78,-498.94 257.7,-486.88 240.15,-467 223.51,-448.16 220.68,-417.56 220.6,-399.7"/>
<polygon fill="midnightblue" stroke="midnightblue" points="307.67,-509.66 318.24,-508.93 309.52,-502.91 307.67,-509.66"/>
</g>
<!-- Node4 -->
<g id="node4" class="node">
<title>Node4</title>
<g id="a_node4"><a xlink:href="garbage-collected_8h.html" target="_top" xlink:title=" ">
<polygon fill="white" stroke="black" points="832.15,-246.5 832.15,-276.5 946.15,-276.5 946.15,-246.5 832.15,-246.5"/>
<text text-anchor="start" x="840.15" y="-264.5" font-family="Helvetica,sans-Serif" font-size="10.00">include/cppgc/garbage</text>
<text text-anchor="middle" x="889.15" y="-253.5" font-family="Helvetica,sans-Serif" font-size="10.00">&#45;collected.h</text>
</a>
</g>
</g>
<!-- Node2&#45;&gt;Node4 -->
<g id="edge3" class="edge">
<title>Node2&#45;&gt;Node4</title>
<path fill="none" stroke="midnightblue" d="M420.46,-506.31C503.31,-483.49 687.6,-425.74 818.15,-333 841.51,-316.4 864.25,-291.91 877.47,-276.6"/>
<polygon fill="midnightblue" stroke="midnightblue" points="419.37,-502.99 410.63,-508.99 421.2,-509.74 419.37,-502.99"/>
</g>
<!-- Node9 -->
<g id="node9" class="node">
<title>Node9</title>
<g id="a_node9"><a xlink:href="heap_8h.html" target="_top" xlink:title=" ">
<polygon fill="white" stroke="black" points="586.15,-313.5 586.15,-332.5 694.15,-332.5 694.15,-313.5 586.15,-313.5"/>
<text text-anchor="middle" x="640.15" y="-320.5" font-family="Helvetica,sans-Serif" font-size="10.00">include/cppgc/heap.h</text>
</a>
</g>
</g>
<!-- Node2&#45;&gt;Node9 -->
<g id="edge9" class="edge">
<title>Node2&#45;&gt;Node9</title>
<path fill="none" stroke="midnightblue" d="M421.9,-506.15C448.93,-497.97 483.25,-485.15 510.15,-467 568.28,-427.78 618.14,-357.29 634.49,-332.72"/>
<polygon fill="midnightblue" stroke="midnightblue" points="420.91,-502.79 412.29,-508.96 422.87,-509.51 420.91,-502.79"/>
</g>
<!-- Node14 -->
<g id="node14" class="node">
<title>Node14</title>
<g id="a_node14"><a xlink:href="caged-heap-local-data_8h.html" target="_top" xlink:title=" ">
<polygon fill="white" stroke="black" points="249.15,-436.5 249.15,-466.5 371.15,-466.5 371.15,-436.5 249.15,-436.5"/>
<text text-anchor="start" x="257.15" y="-454.5" font-family="Helvetica,sans-Serif" font-size="10.00">include/cppgc/internal</text>
<text text-anchor="middle" x="310.15" y="-443.5" font-family="Helvetica,sans-Serif" font-size="10.00">/caged&#45;heap&#45;local&#45;data.h</text>
</a>
</g>
</g>
<!-- Node2&#45;&gt;Node14 -->
<g id="edge18" class="edge">
<title>Node2&#45;&gt;Node14</title>
<path fill="none" stroke="midnightblue" d="M360.77,-501.62C349.73,-490.91 335.3,-476.9 324.67,-466.59"/>
<polygon fill="midnightblue" stroke="midnightblue" points="358.5,-504.28 368.11,-508.73 363.37,-499.26 358.5,-504.28"/>
</g>
<!-- Node15 -->
<g id="node15" class="node">
<title>Node15</title>
<g id="a_node15"><a xlink:href="write-barrier_8h.html" target="_top" xlink:title=" ">
<polygon fill="white" stroke="black" points="389.65,-436.5 389.65,-466.5 500.65,-466.5 500.65,-436.5 389.65,-436.5"/>
<text text-anchor="start" x="397.65" y="-454.5" font-family="Helvetica,sans-Serif" font-size="10.00">include/cppgc/internal</text>
<text text-anchor="middle" x="445.15" y="-443.5" font-family="Helvetica,sans-Serif" font-size="10.00">/write&#45;barrier.h</text>
</a>
</g>
</g>
<!-- Node2&#45;&gt;Node15 -->
<g id="edge19" class="edge">
<title>Node2&#45;&gt;Node15</title>
<path fill="none" stroke="midnightblue" d="M393.76,-501.62C404.97,-490.91 419.62,-476.9 430.41,-466.59"/>
<polygon fill="midnightblue" stroke="midnightblue" points="391.13,-499.29 386.32,-508.73 395.96,-504.35 391.13,-499.29"/>
</g>
<!-- Node5 -->
<g id="node5" class="node">
<title>Node5</title>
<g id="a_node5"><a xlink:href="visitor_8h.html" target="_top" xlink:title=" ">
<polygon fill="white" stroke="black" points="402.65,-123.5 402.65,-142.5 515.65,-142.5 515.65,-123.5 402.65,-123.5"/>
<text text-anchor="middle" x="459.15" y="-130.5" font-family="Helvetica,sans-Serif" font-size="10.00">include/cppgc/visitor.h</text>
</a>
</g>
</g>
<!-- Node4&#45;&gt;Node5 -->
<g id="edge4" class="edge">
<title>Node4&#45;&gt;Node5</title>
<path fill="none" stroke="midnightblue" d="M869.49,-238.79C850.81,-219.68 820.92,-192.8 789.15,-179 741.28,-158.21 596.86,-144.37 515.84,-138.01"/>
<polygon fill="midnightblue" stroke="midnightblue" points="867.11,-241.37 876.55,-246.2 872.18,-236.54 867.11,-241.37"/>
</g>
<!-- Node6 -->
<g id="node6" class="node">
<title>Node6</title>
<g id="a_node6"><a xlink:href="cross-thread-persistent_8h.html" target="_top" xlink:title=" ">
<polygon fill="white" stroke="black" points="346.15,-0.5 346.15,-30.5 450.15,-30.5 450.15,-0.5 346.15,-0.5"/>
<text text-anchor="start" x="354.15" y="-18.5" font-family="Helvetica,sans-Serif" font-size="10.00">include/cppgc/cross</text>
<text text-anchor="middle" x="398.15" y="-7.5" font-family="Helvetica,sans-Serif" font-size="10.00">&#45;thread&#45;persistent.h</text>
</a>
</g>
</g>
<!-- Node5&#45;&gt;Node6 -->
<g id="edge5" class="edge">
<title>Node5&#45;&gt;Node6</title>
<path fill="none" stroke="midnightblue" d="M441.08,-116.52C432.71,-108.48 423.28,-98.04 417.15,-87 407.11,-68.94 402.15,-45.3 399.87,-30.5"/>
<polygon fill="midnightblue" stroke="midnightblue" points="438.89,-119.27 448.63,-123.44 443.62,-114.1 438.89,-119.27"/>
</g>
<!-- Node7 -->
<g id="node7" class="node">
<title>Node7</title>
<g id="a_node7"><a xlink:href="persistent_8h.html" target="_top" xlink:title=" ">
<polygon fill="white" stroke="black" points="426.15,-67.5 426.15,-86.5 556.15,-86.5 556.15,-67.5 426.15,-67.5"/>
<text text-anchor="middle" x="491.15" y="-74.5" font-family="Helvetica,sans-Serif" font-size="10.00">include/cppgc/persistent.h</text>
</a>
</g>
</g>
<!-- Node5&#45;&gt;Node7 -->
<g id="edge6" class="edge">
<title>Node5&#45;&gt;Node7</title>
<path fill="none" stroke="midnightblue" d="M469.65,-114.27C475.12,-105.05 481.56,-94.17 485.96,-86.75"/>
<polygon fill="midnightblue" stroke="midnightblue" points="466.52,-112.7 464.43,-123.08 472.54,-116.26 466.52,-112.7"/>
</g>
<!-- Node5&#45;&gt;Node8 -->
<g id="edge8" class="edge">
<title>Node5&#45;&gt;Node8</title>
<path fill="none" stroke="midnightblue" d="M418.55,-120.7C381.93,-110.51 328.89,-95.74 295.74,-86.52"/>
<polygon fill="midnightblue" stroke="midnightblue" points="417.83,-124.13 428.41,-123.44 419.71,-117.39 417.83,-124.13"/>
</g>
<!-- Node7&#45;&gt;Node6 -->
<g id="edge7" class="edge">
<title>Node7&#45;&gt;Node6</title>
<path fill="none" stroke="midnightblue" d="M469.28,-62.01C454.44,-52.52 434.91,-40.02 420.06,-30.52"/>
<polygon fill="midnightblue" stroke="midnightblue" points="467.51,-65.03 477.82,-67.48 471.28,-59.14 467.51,-65.03"/>
</g>
<!-- Node10 -->
<g id="node10" class="node">
<title>Node10</title>
<g id="a_node10"><a xlink:href="prefinalizer-handler_8h.html" target="_top" xlink:title=" ">
<polygon fill="white" stroke="black" points="668.65,-179.5 668.65,-209.5 779.65,-209.5 779.65,-179.5 668.65,-179.5"/>
<text text-anchor="start" x="676.65" y="-197.5" font-family="Helvetica,sans-Serif" font-size="10.00">include/cppgc/internal</text>
<text text-anchor="middle" x="724.15" y="-186.5" font-family="Helvetica,sans-Serif" font-size="10.00">/prefinalizer&#45;handler.h</text>
</a>
</g>
</g>
<!-- Node9&#45;&gt;Node10 -->
<g id="edge10" class="edge">
<title>Node9&#45;&gt;Node10</title>
<path fill="none" stroke="midnightblue" d="M654.99,-305.92C662.35,-297.59 671.14,-287.07 678.15,-277 693.82,-254.46 708.85,-226.16 717.25,-209.53"/>
<polygon fill="midnightblue" stroke="midnightblue" points="652.33,-303.66 648.23,-313.43 657.52,-308.34 652.33,-303.66"/>
</g>
<!-- Node12 -->
<g id="node12" class="node">
<title>Node12</title>
<g id="a_node12"><a xlink:href="liveness-broker_8h.html" target="_top" xlink:title=" ">
<polygon fill="white" stroke="black" points="553.15,-246.5 553.15,-276.5 669.15,-276.5 669.15,-246.5 553.15,-246.5"/>
<text text-anchor="start" x="561.15" y="-264.5" font-family="Helvetica,sans-Serif" font-size="10.00">include/cppgc/liveness</text>
<text text-anchor="middle" x="611.15" y="-253.5" font-family="Helvetica,sans-Serif" font-size="10.00">&#45;broker.h</text>
</a>
</g>
</g>
<!-- Node9&#45;&gt;Node12 -->
<g id="edge12" class="edge">
<title>Node9&#45;&gt;Node12</title>
<path fill="none" stroke="midnightblue" d="M631.56,-304.39C627.23,-295.5 622.04,-284.86 617.98,-276.52"/>
<polygon fill="midnightblue" stroke="midnightblue" points="628.46,-306.02 635.99,-313.48 634.76,-302.95 628.46,-306.02"/>
</g>
<!-- Node11 -->
<g id="node11" class="node">
<title>Node11</title>
<g id="a_node11"><a xlink:href="prefinalizer_8h.html" target="_top" xlink:title=" ">
<polygon fill="white" stroke="black" points="615.65,-123.5 615.65,-142.5 748.65,-142.5 748.65,-123.5 615.65,-123.5"/>
<text text-anchor="middle" x="682.15" y="-130.5" font-family="Helvetica,sans-Serif" font-size="10.00">include/cppgc/prefinalizer.h</text>
</a>
</g>
</g>
<!-- Node10&#45;&gt;Node11 -->
<g id="edge11" class="edge">
<title>Node10&#45;&gt;Node11</title>
<path fill="none" stroke="midnightblue" d="M708.34,-171.1C701.34,-161.19 693.52,-150.11 688.26,-142.66"/>
<polygon fill="midnightblue" stroke="midnightblue" points="705.57,-173.25 714.19,-179.4 711.29,-169.21 705.57,-173.25"/>
</g>
<!-- Node12&#45;&gt;Node5 -->
<g id="edge17" class="edge">
<title>Node12&#45;&gt;Node5</title>
<path fill="none" stroke="midnightblue" d="M608.48,-236.46C605.29,-218.49 598.33,-194.45 583.15,-179 564.44,-159.97 537.08,-148.94 512.82,-142.57"/>
<polygon fill="midnightblue" stroke="midnightblue" points="605.04,-237.12 609.99,-246.49 611.96,-236.08 605.04,-237.12"/>
</g>
<!-- Node12&#45;&gt;Node10 -->
<g id="edge15" class="edge">
<title>Node12&#45;&gt;Node10</title>
<path fill="none" stroke="midnightblue" d="M644.53,-241.3C662.21,-231.12 683.54,-218.85 699.67,-209.58"/>
<polygon fill="midnightblue" stroke="midnightblue" points="642.59,-238.38 635.67,-246.4 646.08,-244.44 642.59,-238.38"/>
</g>
<!-- Node12&#45;&gt;Node11 -->
<g id="edge16" class="edge">
<title>Node12&#45;&gt;Node11</title>
<path fill="none" stroke="midnightblue" d="M623.98,-237.63C639.91,-209.24 666.32,-162.2 677.21,-142.79"/>
<polygon fill="midnightblue" stroke="midnightblue" points="620.86,-236.05 619.02,-246.48 626.96,-239.47 620.86,-236.05"/>
</g>
<!-- Node13 -->
<g id="node13" class="node">
<title>Node13</title>
<g id="a_node13"><a xlink:href="ephemeron-pair_8h.html" target="_top" xlink:title=" ">
<polygon fill="white" stroke="black" points="446.15,-179.5 446.15,-209.5 574.15,-209.5 574.15,-179.5 446.15,-179.5"/>
<text text-anchor="start" x="454.15" y="-197.5" font-family="Helvetica,sans-Serif" font-size="10.00">include/cppgc/ephemeron</text>
<text text-anchor="middle" x="510.15" y="-186.5" font-family="Helvetica,sans-Serif" font-size="10.00">&#45;pair.h</text>
</a>
</g>
</g>
<!-- Node12&#45;&gt;Node13 -->
<g id="edge13" class="edge">
<title>Node12&#45;&gt;Node13</title>
<path fill="none" stroke="midnightblue" d="M580.43,-240.73C564.8,-230.68 546.17,-218.68 532.02,-209.58"/>
<polygon fill="midnightblue" stroke="midnightblue" points="578.93,-243.93 589.23,-246.4 582.72,-238.04 578.93,-243.93"/>
</g>
<!-- Node13&#45;&gt;Node5 -->
<g id="edge14" class="edge">
<title>Node13&#45;&gt;Node5</title>
<path fill="none" stroke="midnightblue" d="M491.46,-171.7C482.83,-161.64 473.08,-150.26 466.57,-142.66"/>
<polygon fill="midnightblue" stroke="midnightblue" points="488.89,-174.08 498.06,-179.4 494.21,-169.53 488.89,-174.08"/>
</g>
<!-- Node15&#45;&gt;Node8 -->
<g id="edge29" class="edge">
<title>Node15&#45;&gt;Node8</title>
<path fill="none" stroke="midnightblue" d="M390.1,-433.15C362.34,-423.37 332.59,-410.95 323.15,-400 300.41,-373.63 304.15,-358.82 304.15,-324 304.15,-324 304.15,-324 304.15,-193.5 304.15,-151.59 280.82,-105.42 270.24,-86.65"/>
<polygon fill="midnightblue" stroke="midnightblue" points="389.2,-436.54 399.8,-436.49 391.48,-429.92 389.2,-436.54"/>
</g>
<!-- Node16 -->
<g id="node16" class="node">
<title>Node16</title>
<g id="a_node16"><a xlink:href="heap-consistency_8h.html" target="_top" xlink:title=" ">
<polygon fill="white" stroke="black" points="332.65,-369.5 332.65,-399.5 433.65,-399.5 433.65,-369.5 332.65,-369.5"/>
<text text-anchor="start" x="340.65" y="-387.5" font-family="Helvetica,sans-Serif" font-size="10.00">include/cppgc/heap</text>
<text text-anchor="middle" x="383.15" y="-376.5" font-family="Helvetica,sans-Serif" font-size="10.00">&#45;consistency.h</text>
</a>
</g>
</g>
<!-- Node15&#45;&gt;Node16 -->
<g id="edge20" class="edge">
<title>Node15&#45;&gt;Node16</title>
<path fill="none" stroke="midnightblue" d="M424.66,-429.02C415.42,-419.34 404.77,-408.17 396.57,-399.58"/>
<polygon fill="midnightblue" stroke="midnightblue" points="422.26,-431.58 431.69,-436.4 427.32,-426.74 422.26,-431.58"/>
</g>
<!-- Node17 -->
<g id="node17" class="node">
<title>Node17</title>
<g id="a_node17"><a xlink:href="pointer-policies_8h.html" target="_top" xlink:title=" ">
<polygon fill="white" stroke="black" points="451.65,-369.5 451.65,-399.5 562.65,-399.5 562.65,-369.5 451.65,-369.5"/>
<text text-anchor="start" x="459.65" y="-387.5" font-family="Helvetica,sans-Serif" font-size="10.00">include/cppgc/internal</text>
<text text-anchor="middle" x="507.15" y="-376.5" font-family="Helvetica,sans-Serif" font-size="10.00">/pointer&#45;policies.h</text>
</a>
</g>
</g>
<!-- Node15&#45;&gt;Node17 -->
<g id="edge21" class="edge">
<title>Node15&#45;&gt;Node17</title>
<path fill="none" stroke="midnightblue" d="M465.63,-429.02C474.87,-419.34 485.52,-408.17 493.72,-399.58"/>
<polygon fill="midnightblue" stroke="midnightblue" points="462.97,-426.74 458.6,-436.4 468.03,-431.58 462.97,-426.74"/>
</g>
<!-- Node17&#45;&gt;Node5 -->
<g id="edge28" class="edge">
<title>Node17&#45;&gt;Node5</title>
<path fill="none" stroke="midnightblue" d="M467.9,-364.1C455.96,-356.16 444.16,-345.8 437.15,-333 404.22,-272.92 410.8,-244.73 430.15,-179 434.29,-164.91 444.37,-151.07 451.47,-142.54"/>
<polygon fill="midnightblue" stroke="midnightblue" points="466.2,-367.16 476.55,-369.45 469.88,-361.21 466.2,-367.16"/>
</g>
<!-- Node17&#45;&gt;Node6 -->
<g id="edge22" class="edge">
<title>Node17&#45;&gt;Node6</title>
<path fill="none" stroke="midnightblue" d="M445.85,-365.91C398.91,-348.24 342.15,-315.84 342.15,-262.5 342.15,-262.5 342.15,-262.5 342.15,-132 342.15,-92.11 369.53,-51.54 386,-30.74"/>
<polygon fill="midnightblue" stroke="midnightblue" points="444.8,-369.25 455.39,-369.35 447.17,-362.66 444.8,-369.25"/>
</g>
<!-- Node17&#45;&gt;Node7 -->
<g id="edge27" class="edge">
<title>Node17&#45;&gt;Node7</title>
<path fill="none" stroke="midnightblue" d="M573.04,-378.14C613.53,-372.18 664.82,-359.58 703.15,-333 767.56,-288.32 808.75,-254.9 789.15,-179 782.03,-151.46 781.36,-139.44 758.15,-123 726.5,-100.59 624.73,-88.37 556.38,-82.52"/>
<polygon fill="midnightblue" stroke="midnightblue" points="572.42,-374.69 562.99,-379.52 573.37,-381.63 572.42,-374.69"/>
</g>
<!-- Node18 -->
<g id="node18" class="node">
<title>Node18</title>
<g id="a_node18"><a xlink:href="member_8h.html" target="_top" xlink:title=" ">
<polygon fill="white" stroke="black" points="446.15,-313.5 446.15,-332.5 568.15,-332.5 568.15,-313.5 446.15,-313.5"/>
<text text-anchor="middle" x="507.15" y="-320.5" font-family="Helvetica,sans-Serif" font-size="10.00">include/cppgc/member.h</text>
</a>
</g>
</g>
<!-- Node17&#45;&gt;Node18 -->
<g id="edge23" class="edge">
<title>Node17&#45;&gt;Node18</title>
<path fill="none" stroke="midnightblue" d="M507.15,-359.29C507.15,-349.86 507.15,-339.65 507.15,-332.66"/>
<polygon fill="midnightblue" stroke="midnightblue" points="503.65,-359.4 507.15,-369.4 510.65,-359.4 503.65,-359.4"/>
</g>
<!-- Node18&#45;&gt;Node5 -->
<g id="edge26" class="edge">
<title>Node18&#45;&gt;Node5</title>
<path fill="none" stroke="midnightblue" d="M492.58,-305.49C475.44,-284.84 447.93,-247.61 437.15,-210 433.35,-196.76 434.04,-192.42 437.15,-179 440.28,-165.44 448.09,-151.26 453.51,-142.52"/>
<polygon fill="midnightblue" stroke="midnightblue" points="490.07,-307.93 499.22,-313.27 495.4,-303.39 490.07,-307.93"/>
</g>
<!-- Node18&#45;&gt;Node12 -->
<g id="edge25" class="edge">
<title>Node18&#45;&gt;Node12</title>
<path fill="none" stroke="midnightblue" d="M531.13,-308.28C547.78,-298.75 569.88,-286.11 586.64,-276.52"/>
<polygon fill="midnightblue" stroke="midnightblue" points="528.99,-305.47 522.05,-313.48 532.46,-311.55 528.99,-305.47"/>
</g>
<!-- Node18&#45;&gt;Node13 -->
<g id="edge24" class="edge">
<title>Node18&#45;&gt;Node13</title>
<path fill="none" stroke="midnightblue" d="M507.59,-303.11C508.2,-277.63 509.26,-232.81 509.81,-209.89"/>
<polygon fill="midnightblue" stroke="midnightblue" points="504.09,-303.22 507.35,-313.31 511.09,-303.39 504.09,-303.22"/>
</g>
<!-- Node19&#45;&gt;Node3 -->
<g id="edge31" class="edge">
<title>Node19&#45;&gt;Node3</title>
<path fill="none" stroke="midnightblue" d="M106.07,-432.54C131.51,-422.14 163.08,-409.24 186.71,-399.58"/>
<polygon fill="midnightblue" stroke="midnightblue" points="104.58,-429.37 96.65,-436.4 107.23,-435.85 104.58,-429.37"/>
</g>
<!-- Node20&#45;&gt;Node19 -->
<g id="edge33" class="edge">
<title>Node20&#45;&gt;Node19</title>
<path fill="none" stroke="midnightblue" d="M62.15,-493.11C62.15,-484.15 62.15,-474.32 62.15,-466.58"/>
<polygon fill="midnightblue" stroke="midnightblue" points="58.65,-493.4 62.15,-503.4 65.65,-493.4 58.65,-493.4"/>
</g>
<!-- Node22 -->
<g id="node22" class="node">
<title>Node22</title>
<g id="a_node22"><a xlink:href="v8_8h.html" target="_top" xlink:title=" ">
<polygon fill="white" stroke="black" points="870.15,-442 870.15,-461 938.15,-461 938.15,-442 870.15,-442"/>
<text text-anchor="middle" x="904.15" y="-449" font-family="Helvetica,sans-Serif" font-size="10.00">include/v8.h</text>
</a>
</g>
</g>
<!-- Node21&#45;&gt;Node22 -->
<g id="edge36" class="edge">
<title>Node21&#45;&gt;Node22</title>
<path fill="none" stroke="midnightblue" d="M742.14,-505.68C781.39,-492.8 843.23,-472.5 878.06,-461.06"/>
<polygon fill="midnightblue" stroke="midnightblue" points="740.85,-502.42 732.44,-508.87 743.03,-509.07 740.85,-502.42"/>
</g>
</g>
</svg>
