<?xml version="1.0" encoding="UTF-8" standalone="no"?>
<!DOCTYPE svg PUBLIC "-//W3C//DTD SVG 1.1//EN"
 "http://www.w3.org/Graphics/SVG/1.1/DTD/svg11.dtd">
<!-- Generated by graphviz version 2.49.3 (20211027.1534)
 -->
<!-- Title: include/v8&#45;unwinder.h Pages: 1 -->
<svg width="486pt" height="364pt"
 viewBox="0.00 0.00 485.50 364.00" xmlns="http://www.w3.org/2000/svg" xmlns:xlink="http://www.w3.org/1999/xlink">
<g id="graph0" class="graph" transform="scale(1 1) rotate(0) translate(4 360)">
<title>include/v8&#45;unwinder.h</title>
<polygon fill="white" stroke="transparent" points="-4,4 -4,-360 481.5,-360 481.5,4 -4,4"/>
<!-- Node1 -->
<g id="node1" class="node">
<title>Node1</title>
<g id="a_node1"><a xlink:title=" ">
<polygon fill="#bfbfbf" stroke="black" points="68.5,-336.5 68.5,-355.5 178.5,-355.5 178.5,-336.5 68.5,-336.5"/>
<text text-anchor="middle" x="123.5" y="-343.5" font-family="Helvetica,sans-Serif" font-size="10.00">include/v8&#45;unwinder.h</text>
</a>
</g>
</g>
<!-- Node2 -->
<g id="node2" class="node">
<title>Node2</title>
<g id="a_node2"><a xlink:title=" ">
<polygon fill="white" stroke="#bfbfbf" points="0,-224.5 0,-243.5 51,-243.5 51,-224.5 0,-224.5"/>
<text text-anchor="middle" x="25.5" y="-231.5" font-family="Helvetica,sans-Serif" font-size="10.00">memory</text>
</a>
</g>
</g>
<!-- Node1&#45;&gt;Node2 -->
<g id="edge1" class="edge">
<title>Node1&#45;&gt;Node2</title>
<path fill="none" stroke="midnightblue" d="M100.22,-336.39C83.41,-329.08 61.31,-317.03 47.5,-300 36.72,-286.71 31.12,-267.88 28.27,-253.9"/>
<polygon fill="midnightblue" stroke="midnightblue" points="31.7,-253.18 26.53,-243.93 24.8,-254.38 31.7,-253.18"/>
</g>
<!-- Node3 -->
<g id="node3" class="node">
<title>Node3</title>
<g id="a_node3"><a xlink:href="v8-embedder-state-scope_8h.html" target="_top" xlink:title=" ">
<polygon fill="white" stroke="black" points="56.5,-280.5 56.5,-299.5 190.5,-299.5 190.5,-280.5 56.5,-280.5"/>
<text text-anchor="middle" x="123.5" y="-287.5" font-family="Helvetica,sans-Serif" font-size="10.00">v8&#45;embedder&#45;state&#45;scope.h</text>
</a>
</g>
</g>
<!-- Node1&#45;&gt;Node3 -->
<g id="edge2" class="edge">
<title>Node1&#45;&gt;Node3</title>
<path fill="none" stroke="midnightblue" d="M123.5,-336.08C123.5,-329.01 123.5,-318.86 123.5,-309.99"/>
<polygon fill="midnightblue" stroke="midnightblue" points="127,-309.75 123.5,-299.75 120,-309.75 127,-309.75"/>
</g>
<!-- Node13 -->
<g id="node13" class="node">
<title>Node13</title>
<g id="a_node13"><a xlink:href="v8config_8h.html" target="_top" xlink:title=" ">
<polygon fill="white" stroke="black" points="400.5,-0.5 400.5,-19.5 460.5,-19.5 460.5,-0.5 400.5,-0.5"/>
<text text-anchor="middle" x="430.5" y="-7.5" font-family="Helvetica,sans-Serif" font-size="10.00">v8config.h</text>
</a>
</g>
</g>
<!-- Node1&#45;&gt;Node13 -->
<g id="edge27" class="edge">
<title>Node1&#45;&gt;Node13</title>
<path fill="none" stroke="midnightblue" d="M178.81,-339.4C278.38,-327.77 477.5,-296.78 477.5,-235 477.5,-235 477.5,-235 477.5,-121 477.5,-85.7 456.78,-48.79 442.86,-27.96"/>
<polygon fill="midnightblue" stroke="midnightblue" points="445.62,-25.8 437.04,-19.59 439.87,-29.8 445.62,-25.8"/>
</g>
<!-- Node3&#45;&gt;Node2 -->
<g id="edge3" class="edge">
<title>Node3&#45;&gt;Node2</title>
<path fill="none" stroke="midnightblue" d="M107.75,-280.32C92.18,-271.74 68.12,-258.49 50.04,-248.52"/>
<polygon fill="midnightblue" stroke="midnightblue" points="51.65,-245.42 41.21,-243.65 48.28,-251.55 51.65,-245.42"/>
</g>
<!-- Node4 -->
<g id="node4" class="node">
<title>Node4</title>
<g id="a_node4"><a xlink:href="v8-context_8h.html" target="_top" xlink:title=" ">
<polygon fill="white" stroke="black" points="235,-224.5 235,-243.5 304,-243.5 304,-224.5 235,-224.5"/>
<text text-anchor="middle" x="269.5" y="-231.5" font-family="Helvetica,sans-Serif" font-size="10.00">v8&#45;context.h</text>
</a>
</g>
</g>
<!-- Node3&#45;&gt;Node4 -->
<g id="edge4" class="edge">
<title>Node3&#45;&gt;Node4</title>
<path fill="none" stroke="midnightblue" d="M146.63,-280.44C170.98,-271.44 209.51,-257.19 236.92,-247.05"/>
<polygon fill="midnightblue" stroke="midnightblue" points="238.31,-250.27 246.47,-243.52 235.88,-243.7 238.31,-250.27"/>
</g>
<!-- Node7 -->
<g id="node7" class="node">
<title>Node7</title>
<g id="a_node7"><a xlink:href="v8-local-handle_8h.html" target="_top" xlink:title=" ">
<polygon fill="white" stroke="black" points="108,-112.5 108,-131.5 197,-131.5 197,-112.5 108,-112.5"/>
<text text-anchor="middle" x="152.5" y="-119.5" font-family="Helvetica,sans-Serif" font-size="10.00">v8&#45;local&#45;handle.h</text>
</a>
</g>
</g>
<!-- Node3&#45;&gt;Node7 -->
<g id="edge26" class="edge">
<title>Node3&#45;&gt;Node7</title>
<path fill="none" stroke="midnightblue" d="M125.06,-280.08C129.62,-253.95 143.03,-177.21 149.25,-141.58"/>
<polygon fill="midnightblue" stroke="midnightblue" points="152.73,-142.02 151,-131.57 145.83,-140.82 152.73,-142.02"/>
</g>
<!-- Node10 -->
<g id="node10" class="node">
<title>Node10</title>
<g id="a_node10"><a xlink:href="v8-internal_8h.html" target="_top" xlink:title=" ">
<polygon fill="white" stroke="black" points="166,-56.5 166,-75.5 235,-75.5 235,-56.5 166,-56.5"/>
<text text-anchor="middle" x="200.5" y="-63.5" font-family="Helvetica,sans-Serif" font-size="10.00">v8&#45;internal.h</text>
</a>
</g>
</g>
<!-- Node3&#45;&gt;Node10 -->
<g id="edge25" class="edge">
<title>Node3&#45;&gt;Node10</title>
<path fill="none" stroke="midnightblue" d="M118.57,-280.38C103.68,-253.14 62.4,-167.38 98.5,-112 111.27,-92.4 134.72,-81.28 155.92,-75"/>
<polygon fill="midnightblue" stroke="midnightblue" points="157.01,-78.33 165.77,-72.36 155.2,-71.57 157.01,-78.33"/>
</g>
<!-- Node5 -->
<g id="node5" class="node">
<title>Node5</title>
<g id="a_node5"><a xlink:title=" ">
<polygon fill="white" stroke="#bfbfbf" points="334.5,-0.5 334.5,-19.5 382.5,-19.5 382.5,-0.5 334.5,-0.5"/>
<text text-anchor="middle" x="358.5" y="-7.5" font-family="Helvetica,sans-Serif" font-size="10.00">stdint.h</text>
</a>
</g>
</g>
<!-- Node4&#45;&gt;Node5 -->
<g id="edge5" class="edge">
<title>Node4&#45;&gt;Node5</title>
<path fill="none" stroke="midnightblue" d="M304.23,-225.46C324.41,-219.11 348.23,-207.76 360.5,-188 391.66,-137.82 374.91,-63.22 364.62,-29.15"/>
<polygon fill="midnightblue" stroke="midnightblue" points="367.94,-28.06 361.57,-19.6 361.27,-30.19 367.94,-28.06"/>
</g>
<!-- Node6 -->
<g id="node6" class="node">
<title>Node6</title>
<g id="a_node6"><a xlink:href="v8-data_8h.html" target="_top" xlink:title=" ">
<polygon fill="white" stroke="black" points="199.5,-168.5 199.5,-187.5 255.5,-187.5 255.5,-168.5 199.5,-168.5"/>
<text text-anchor="middle" x="227.5" y="-175.5" font-family="Helvetica,sans-Serif" font-size="10.00">v8&#45;data.h</text>
</a>
</g>
</g>
<!-- Node4&#45;&gt;Node6 -->
<g id="edge6" class="edge">
<title>Node4&#45;&gt;Node6</title>
<path fill="none" stroke="midnightblue" d="M262.56,-224.08C256.57,-216.38 247.75,-205.03 240.45,-195.65"/>
<polygon fill="midnightblue" stroke="midnightblue" points="243.21,-193.5 234.31,-187.75 237.68,-197.79 243.21,-193.5"/>
</g>
<!-- Node4&#45;&gt;Node7 -->
<g id="edge18" class="edge">
<title>Node4&#45;&gt;Node7</title>
<path fill="none" stroke="midnightblue" d="M247.7,-224.35C230.6,-216.73 207,-204.31 190.5,-188 176.87,-174.52 166.39,-155.16 159.92,-141.08"/>
<polygon fill="midnightblue" stroke="midnightblue" points="162.96,-139.3 155.77,-131.52 156.54,-142.09 162.96,-139.3"/>
</g>
<!-- Node4&#45;&gt;Node13 -->
<g id="edge24" class="edge">
<title>Node4&#45;&gt;Node13</title>
<path fill="none" stroke="midnightblue" d="M304.04,-226.91C328.09,-220.93 359.2,-209.46 378.5,-188 419.68,-142.22 428.34,-65.36 430.09,-29.94"/>
<polygon fill="midnightblue" stroke="midnightblue" points="433.6,-29.73 430.46,-19.61 426.61,-29.48 433.6,-29.73"/>
</g>
<!-- Node14 -->
<g id="node14" class="node">
<title>Node14</title>
<g id="a_node14"><a xlink:href="v8-snapshot_8h.html" target="_top" xlink:title=" ">
<polygon fill="white" stroke="black" points="274,-168.5 274,-187.5 351,-187.5 351,-168.5 274,-168.5"/>
<text text-anchor="middle" x="312.5" y="-175.5" font-family="Helvetica,sans-Serif" font-size="10.00">v8&#45;snapshot.h</text>
</a>
</g>
</g>
<!-- Node4&#45;&gt;Node14 -->
<g id="edge19" class="edge">
<title>Node4&#45;&gt;Node14</title>
<path fill="none" stroke="midnightblue" d="M276.6,-224.08C282.74,-216.38 291.77,-205.03 299.24,-195.65"/>
<polygon fill="midnightblue" stroke="midnightblue" points="302.04,-197.75 305.53,-187.75 296.56,-193.39 302.04,-197.75"/>
</g>
<!-- Node6&#45;&gt;Node7 -->
<g id="edge7" class="edge">
<title>Node6&#45;&gt;Node7</title>
<path fill="none" stroke="midnightblue" d="M215.45,-168.32C204.04,-160.11 186.67,-147.6 173.07,-137.81"/>
<polygon fill="midnightblue" stroke="midnightblue" points="174.93,-134.84 164.77,-131.83 170.84,-140.52 174.93,-134.84"/>
</g>
<!-- Node6&#45;&gt;Node13 -->
<g id="edge17" class="edge">
<title>Node6&#45;&gt;Node13</title>
<path fill="none" stroke="midnightblue" d="M233.62,-168.36C243.15,-155.27 262.52,-130.02 282.5,-112 322.49,-75.94 376.06,-42.47 406.57,-24.57"/>
<polygon fill="midnightblue" stroke="midnightblue" points="408.36,-27.58 415.26,-19.53 404.85,-21.52 408.36,-27.58"/>
</g>
<!-- Node8 -->
<g id="node8" class="node">
<title>Node8</title>
<g id="a_node8"><a xlink:title=" ">
<polygon fill="white" stroke="#bfbfbf" points="112,-0.5 112,-19.5 163,-19.5 163,-0.5 112,-0.5"/>
<text text-anchor="middle" x="137.5" y="-7.5" font-family="Helvetica,sans-Serif" font-size="10.00">stddef.h</text>
</a>
</g>
</g>
<!-- Node7&#45;&gt;Node8 -->
<g id="edge8" class="edge">
<title>Node7&#45;&gt;Node8</title>
<path fill="none" stroke="midnightblue" d="M151.32,-112.37C148.9,-94.62 143.32,-53.67 140.04,-29.6"/>
<polygon fill="midnightblue" stroke="midnightblue" points="143.49,-29.03 138.67,-19.59 136.55,-29.97 143.49,-29.03"/>
</g>
<!-- Node9 -->
<g id="node9" class="node">
<title>Node9</title>
<g id="a_node9"><a xlink:title=" ">
<polygon fill="white" stroke="#bfbfbf" points="31.5,-0.5 31.5,-19.5 93.5,-19.5 93.5,-0.5 31.5,-0.5"/>
<text text-anchor="middle" x="62.5" y="-7.5" font-family="Helvetica,sans-Serif" font-size="10.00">type_traits</text>
</a>
</g>
</g>
<!-- Node7&#45;&gt;Node9 -->
<g id="edge9" class="edge">
<title>Node7&#45;&gt;Node9</title>
<path fill="none" stroke="midnightblue" d="M145.44,-112.37C130.45,-94.05 95.27,-51.05 75.89,-27.36"/>
<polygon fill="midnightblue" stroke="midnightblue" points="78.57,-25.11 69.53,-19.59 73.15,-29.55 78.57,-25.11"/>
</g>
<!-- Node7&#45;&gt;Node10 -->
<g id="edge10" class="edge">
<title>Node7&#45;&gt;Node10</title>
<path fill="none" stroke="midnightblue" d="M160.43,-112.08C167.35,-104.3 177.57,-92.8 185.95,-83.37"/>
<polygon fill="midnightblue" stroke="midnightblue" points="188.69,-85.55 192.72,-75.75 183.46,-80.9 188.69,-85.55"/>
</g>
<!-- Node10&#45;&gt;Node5 -->
<g id="edge12" class="edge">
<title>Node10&#45;&gt;Node5</title>
<path fill="none" stroke="midnightblue" d="M225.54,-56.44C252.35,-47.28 295.05,-32.68 324.81,-22.52"/>
<polygon fill="midnightblue" stroke="midnightblue" points="326.03,-25.8 334.36,-19.25 323.76,-19.17 326.03,-25.8"/>
</g>
<!-- Node10&#45;&gt;Node8 -->
<g id="edge11" class="edge">
<title>Node10&#45;&gt;Node8</title>
<path fill="none" stroke="midnightblue" d="M190.38,-56.32C180.97,-48.26 166.76,-36.08 155.43,-26.37"/>
<polygon fill="midnightblue" stroke="midnightblue" points="157.68,-23.68 147.81,-19.83 153.12,-29 157.68,-23.68"/>
</g>
<!-- Node10&#45;&gt;Node9 -->
<g id="edge14" class="edge">
<title>Node10&#45;&gt;Node9</title>
<path fill="none" stroke="midnightblue" d="M178.63,-56.44C155.72,-47.48 119.52,-33.31 93.63,-23.18"/>
<polygon fill="midnightblue" stroke="midnightblue" points="94.85,-19.9 84.26,-19.52 92.3,-26.42 94.85,-19.9"/>
</g>
<!-- Node11 -->
<g id="node11" class="node">
<title>Node11</title>
<g id="a_node11"><a xlink:title=" ">
<polygon fill="white" stroke="#bfbfbf" points="268.5,-0.5 268.5,-19.5 316.5,-19.5 316.5,-0.5 268.5,-0.5"/>
<text text-anchor="middle" x="292.5" y="-7.5" font-family="Helvetica,sans-Serif" font-size="10.00">string.h</text>
</a>
</g>
</g>
<!-- Node10&#45;&gt;Node11 -->
<g id="edge13" class="edge">
<title>Node10&#45;&gt;Node11</title>
<path fill="none" stroke="midnightblue" d="M215.28,-56.32C229.77,-47.82 252.07,-34.73 268.99,-24.8"/>
<polygon fill="midnightblue" stroke="midnightblue" points="270.9,-27.74 277.76,-19.65 267.36,-21.7 270.9,-27.74"/>
</g>
<!-- Node12 -->
<g id="node12" class="node">
<title>Node12</title>
<g id="a_node12"><a xlink:href="v8-version_8h.html" target="_top" xlink:title=" ">
<polygon fill="white" stroke="black" points="181,-0.5 181,-19.5 250,-19.5 250,-0.5 181,-0.5"/>
<text text-anchor="middle" x="215.5" y="-7.5" font-family="Helvetica,sans-Serif" font-size="10.00">v8&#45;version.h</text>
</a>
</g>
</g>
<!-- Node10&#45;&gt;Node12 -->
<g id="edge15" class="edge">
<title>Node10&#45;&gt;Node12</title>
<path fill="none" stroke="midnightblue" d="M202.98,-56.08C204.99,-48.85 207.89,-38.41 210.39,-29.4"/>
<polygon fill="midnightblue" stroke="midnightblue" points="213.76,-30.32 213.07,-19.75 207.02,-28.45 213.76,-30.32"/>
</g>
<!-- Node10&#45;&gt;Node13 -->
<g id="edge16" class="edge">
<title>Node10&#45;&gt;Node13</title>
<path fill="none" stroke="midnightblue" d="M235.43,-56.8C277.17,-47 346.84,-30.64 390.64,-20.36"/>
<polygon fill="midnightblue" stroke="midnightblue" points="391.45,-23.76 400.38,-18.07 389.85,-16.95 391.45,-23.76"/>
</g>
<!-- Node14&#45;&gt;Node7 -->
<g id="edge22" class="edge">
<title>Node14&#45;&gt;Node7</title>
<path fill="none" stroke="midnightblue" d="M287.15,-168.44C260.23,-159.36 217.5,-144.94 187.41,-134.78"/>
<polygon fill="midnightblue" stroke="midnightblue" points="188.33,-131.4 177.73,-131.52 186.09,-138.03 188.33,-131.4"/>
</g>
<!-- Node14&#45;&gt;Node10 -->
<g id="edge21" class="edge">
<title>Node14&#45;&gt;Node10</title>
<path fill="none" stroke="midnightblue" d="M303.71,-168.37C284.9,-149.89 240.51,-106.29 216.53,-82.74"/>
<polygon fill="midnightblue" stroke="midnightblue" points="218.83,-80.1 209.25,-75.59 213.93,-85.1 218.83,-80.1"/>
</g>
<!-- Node14&#45;&gt;Node13 -->
<g id="edge23" class="edge">
<title>Node14&#45;&gt;Node13</title>
<path fill="none" stroke="midnightblue" d="M318.84,-168.08C337.74,-141.49 393.86,-62.54 418.58,-27.76"/>
<polygon fill="midnightblue" stroke="midnightblue" points="421.47,-29.75 424.41,-19.57 415.76,-25.69 421.47,-29.75"/>
</g>
<!-- Node15 -->
<g id="node15" class="node">
<title>Node15</title>
<g id="a_node15"><a xlink:title=" ">
<polygon fill="white" stroke="#bfbfbf" points="291.5,-112.5 291.5,-131.5 335.5,-131.5 335.5,-112.5 291.5,-112.5"/>
<text text-anchor="middle" x="313.5" y="-119.5" font-family="Helvetica,sans-Serif" font-size="10.00">vector</text>
</a>
</g>
</g>
<!-- Node14&#45;&gt;Node15 -->
<g id="edge20" class="edge">
<title>Node14&#45;&gt;Node15</title>
<path fill="none" stroke="midnightblue" d="M312.67,-168.08C312.8,-161.01 312.98,-150.86 313.15,-141.99"/>
<polygon fill="midnightblue" stroke="midnightblue" points="316.65,-141.81 313.34,-131.75 309.65,-141.68 316.65,-141.81"/>
</g>
</g>
</svg>
