<?xml version="1.0" encoding="UTF-8" standalone="no"?>
<!DOCTYPE svg PUBLIC "-//W3C//DTD SVG 1.1//EN"
 "http://www.w3.org/Graphics/SVG/1.1/DTD/svg11.dtd">
<!-- Generated by graphviz version 2.49.3 (20211027.1534)
 -->
<!-- Title: include/v8&#45;statistics.h Pages: 1 -->
<svg width="1412pt" height="476pt"
 viewBox="0.00 0.00 1412.00 476.00" xmlns="http://www.w3.org/2000/svg" xmlns:xlink="http://www.w3.org/1999/xlink">
<g id="graph0" class="graph" transform="scale(1 1) rotate(0) translate(4 472)">
<title>include/v8&#45;statistics.h</title>
<polygon fill="white" stroke="transparent" points="-4,4 -4,-472 1408,-472 1408,4 -4,4"/>
<!-- Node1 -->
<g id="node1" class="node">
<title>Node1</title>
<g id="a_node1"><a xlink:title=" ">
<polygon fill="#bfbfbf" stroke="black" points="1177.5,-448.5 1177.5,-467.5 1288.5,-467.5 1288.5,-448.5 1177.5,-448.5"/>
<text text-anchor="middle" x="1233" y="-455.5" font-family="Helvetica,sans-Serif" font-size="10.00">include/v8&#45;statistics.h</text>
</a>
</g>
</g>
<!-- Node2 -->
<g id="node2" class="node">
<title>Node2</title>
<g id="a_node2"><a xlink:title=" ">
<polygon fill="white" stroke="#bfbfbf" points="138.5,-0.5 138.5,-19.5 189.5,-19.5 189.5,-0.5 138.5,-0.5"/>
<text text-anchor="middle" x="164" y="-7.5" font-family="Helvetica,sans-Serif" font-size="10.00">stddef.h</text>
</a>
</g>
</g>
<!-- Node1&#45;&gt;Node2 -->
<g id="edge1" class="edge">
<title>Node1&#45;&gt;Node2</title>
<path fill="none" stroke="midnightblue" d="M1177.25,-456.15C994.98,-453.09 417.88,-441.29 234,-412 127.41,-395.02 0,-454.94 0,-347 0,-347 0,-347 0,-121 0,-59.55 80.4,-30.22 128.62,-18.16"/>
<polygon fill="midnightblue" stroke="midnightblue" points="129.45,-21.56 138.38,-15.85 127.84,-14.75 129.45,-21.56"/>
</g>
<!-- Node3 -->
<g id="node3" class="node">
<title>Node3</title>
<g id="a_node3"><a xlink:title=" ">
<polygon fill="white" stroke="#bfbfbf" points="1304,-0.5 1304,-19.5 1352,-19.5 1352,-0.5 1304,-0.5"/>
<text text-anchor="middle" x="1328" y="-7.5" font-family="Helvetica,sans-Serif" font-size="10.00">stdint.h</text>
</a>
</g>
</g>
<!-- Node1&#45;&gt;Node3 -->
<g id="edge2" class="edge">
<title>Node1&#45;&gt;Node3</title>
<path fill="none" stroke="midnightblue" d="M1277.93,-448.42C1328.59,-435.83 1404,-407.01 1404,-347 1404,-347 1404,-347 1404,-121 1404,-90.2 1397.53,-81.32 1380,-56 1371.82,-44.19 1359.85,-33.54 1349.45,-25.57"/>
<polygon fill="midnightblue" stroke="midnightblue" points="1351.34,-22.62 1341.2,-19.54 1347.21,-28.27 1351.34,-22.62"/>
</g>
<!-- Node4 -->
<g id="node4" class="node">
<title>Node4</title>
<g id="a_node4"><a xlink:title=" ">
<polygon fill="white" stroke="#bfbfbf" points="1091.5,-112.5 1091.5,-131.5 1142.5,-131.5 1142.5,-112.5 1091.5,-112.5"/>
<text text-anchor="middle" x="1117" y="-119.5" font-family="Helvetica,sans-Serif" font-size="10.00">memory</text>
</a>
</g>
</g>
<!-- Node1&#45;&gt;Node4 -->
<g id="edge3" class="edge">
<title>Node1&#45;&gt;Node4</title>
<path fill="none" stroke="midnightblue" d="M1230.44,-448.25C1225.25,-429.74 1214,-385.18 1214,-347 1214,-347 1214,-347 1214,-233 1214,-189.35 1170.49,-154.83 1141.76,-136.79"/>
<polygon fill="midnightblue" stroke="midnightblue" points="1143.39,-133.68 1133.02,-131.52 1139.77,-139.68 1143.39,-133.68"/>
</g>
<!-- Node5 -->
<g id="node5" class="node">
<title>Node5</title>
<g id="a_node5"><a xlink:title=" ">
<polygon fill="white" stroke="#bfbfbf" points="1160.5,-112.5 1160.5,-131.5 1199.5,-131.5 1199.5,-112.5 1160.5,-112.5"/>
<text text-anchor="middle" x="1180" y="-119.5" font-family="Helvetica,sans-Serif" font-size="10.00">utility</text>
</a>
</g>
</g>
<!-- Node1&#45;&gt;Node5 -->
<g id="edge4" class="edge">
<title>Node1&#45;&gt;Node5</title>
<path fill="none" stroke="midnightblue" d="M1235.56,-448.25C1240.75,-429.74 1252,-385.18 1252,-347 1252,-347 1252,-347 1252,-233 1252,-202.2 1245.02,-193.66 1228,-168 1220.48,-156.66 1209.57,-146.13 1200.05,-138.11"/>
<polygon fill="midnightblue" stroke="midnightblue" points="1202.14,-135.31 1192.16,-131.76 1197.75,-140.76 1202.14,-135.31"/>
</g>
<!-- Node6 -->
<g id="node6" class="node">
<title>Node6</title>
<g id="a_node6"><a xlink:title=" ">
<polygon fill="white" stroke="#bfbfbf" points="1218,-112.5 1218,-131.5 1262,-131.5 1262,-112.5 1218,-112.5"/>
<text text-anchor="middle" x="1240" y="-119.5" font-family="Helvetica,sans-Serif" font-size="10.00">vector</text>
</a>
</g>
</g>
<!-- Node1&#45;&gt;Node6 -->
<g id="edge5" class="edge">
<title>Node1&#45;&gt;Node6</title>
<path fill="none" stroke="midnightblue" d="M1242.02,-448.34C1250.07,-439.93 1261.3,-426.36 1266,-412 1299.74,-308.94 1294.08,-272.74 1266,-168 1263.35,-158.1 1257.93,-148.13 1252.73,-140.1"/>
<polygon fill="midnightblue" stroke="midnightblue" points="1255.46,-137.91 1246.89,-131.68 1249.71,-141.89 1255.46,-137.91"/>
</g>
<!-- Node7 -->
<g id="node7" class="node">
<title>Node7</title>
<g id="a_node7"><a xlink:href="v8-local-handle_8h.html" target="_top" xlink:title=" ">
<polygon fill="white" stroke="black" points="125.5,-112.5 125.5,-131.5 214.5,-131.5 214.5,-112.5 125.5,-112.5"/>
<text text-anchor="middle" x="170" y="-119.5" font-family="Helvetica,sans-Serif" font-size="10.00">v8&#45;local&#45;handle.h</text>
</a>
</g>
</g>
<!-- Node1&#45;&gt;Node7 -->
<g id="edge6" class="edge">
<title>Node1&#45;&gt;Node7</title>
<path fill="none" stroke="midnightblue" d="M1177.36,-454.83C941.72,-445.31 38,-404.98 38,-347 38,-347 38,-347 38,-233 38,-182.81 95.01,-151.08 134.1,-135.22"/>
<polygon fill="midnightblue" stroke="midnightblue" points="135.55,-138.42 143.61,-131.53 133.02,-131.89 135.55,-138.42"/>
</g>
<!-- Node12 -->
<g id="node12" class="node">
<title>Node12</title>
<g id="a_node12"><a xlink:href="v8config_8h.html" target="_top" xlink:title=" ">
<polygon fill="white" stroke="black" points="693,-0.5 693,-19.5 753,-19.5 753,-0.5 693,-0.5"/>
<text text-anchor="middle" x="723" y="-7.5" font-family="Helvetica,sans-Serif" font-size="10.00">v8config.h</text>
</a>
</g>
</g>
<!-- Node1&#45;&gt;Node12 -->
<g id="edge59" class="edge">
<title>Node1&#45;&gt;Node12</title>
<path fill="none" stroke="midnightblue" d="M1243,-448.41C1273.93,-420.83 1366,-330.7 1366,-235 1366,-235 1366,-235 1366,-121 1366,-60.74 1304.7,-73.39 1247,-56 1156.47,-28.71 869.47,-16.12 763.14,-12.31"/>
<polygon fill="midnightblue" stroke="midnightblue" points="763.25,-8.81 753.13,-11.96 763,-15.81 763.25,-8.81"/>
</g>
<!-- Node13 -->
<g id="node13" class="node">
<title>Node13</title>
<g id="a_node13"><a xlink:href="v8-promise_8h.html" target="_top" xlink:title=" ">
<polygon fill="white" stroke="black" points="805,-392.5 805,-411.5 877,-411.5 877,-392.5 805,-392.5"/>
<text text-anchor="middle" x="841" y="-399.5" font-family="Helvetica,sans-Serif" font-size="10.00">v8&#45;promise.h</text>
</a>
</g>
</g>
<!-- Node1&#45;&gt;Node13 -->
<g id="edge16" class="edge">
<title>Node1&#45;&gt;Node13</title>
<path fill="none" stroke="midnightblue" d="M1177.25,-449.32C1099.49,-438.61 959.86,-419.37 887.43,-409.4"/>
<polygon fill="midnightblue" stroke="midnightblue" points="887.63,-405.89 877.25,-407.99 886.67,-412.83 887.63,-405.89"/>
</g>
<!-- Node7&#45;&gt;Node2 -->
<g id="edge7" class="edge">
<title>Node7&#45;&gt;Node2</title>
<path fill="none" stroke="midnightblue" d="M169.53,-112.37C168.56,-94.62 166.33,-53.67 165.01,-29.6"/>
<polygon fill="midnightblue" stroke="midnightblue" points="168.51,-29.39 164.47,-19.59 161.52,-29.77 168.51,-29.39"/>
</g>
<!-- Node8 -->
<g id="node8" class="node">
<title>Node8</title>
<g id="a_node8"><a xlink:title=" ">
<polygon fill="white" stroke="#bfbfbf" points="208,-0.5 208,-19.5 270,-19.5 270,-0.5 208,-0.5"/>
<text text-anchor="middle" x="239" y="-7.5" font-family="Helvetica,sans-Serif" font-size="10.00">type_traits</text>
</a>
</g>
</g>
<!-- Node7&#45;&gt;Node8 -->
<g id="edge8" class="edge">
<title>Node7&#45;&gt;Node8</title>
<path fill="none" stroke="midnightblue" d="M175.41,-112.37C186.75,-94.3 213.17,-52.18 228.14,-28.31"/>
<polygon fill="midnightblue" stroke="midnightblue" points="231.26,-29.92 233.61,-19.59 225.33,-26.2 231.26,-29.92"/>
</g>
<!-- Node9 -->
<g id="node9" class="node">
<title>Node9</title>
<g id="a_node9"><a xlink:href="v8-internal_8h.html" target="_top" xlink:title=" ">
<polygon fill="white" stroke="black" points="267.5,-56.5 267.5,-75.5 336.5,-75.5 336.5,-56.5 267.5,-56.5"/>
<text text-anchor="middle" x="302" y="-63.5" font-family="Helvetica,sans-Serif" font-size="10.00">v8&#45;internal.h</text>
</a>
</g>
</g>
<!-- Node7&#45;&gt;Node9 -->
<g id="edge9" class="edge">
<title>Node7&#45;&gt;Node9</title>
<path fill="none" stroke="midnightblue" d="M190.92,-112.44C212.74,-103.52 247.15,-89.44 271.89,-79.32"/>
<polygon fill="midnightblue" stroke="midnightblue" points="273.25,-82.54 281.18,-75.52 270.6,-76.06 273.25,-82.54"/>
</g>
<!-- Node9&#45;&gt;Node2 -->
<g id="edge10" class="edge">
<title>Node9&#45;&gt;Node2</title>
<path fill="none" stroke="midnightblue" d="M280.13,-56.44C257.22,-47.48 221.02,-33.31 195.13,-23.18"/>
<polygon fill="midnightblue" stroke="midnightblue" points="196.35,-19.9 185.76,-19.52 193.8,-26.42 196.35,-19.9"/>
</g>
<!-- Node9&#45;&gt;Node3 -->
<g id="edge11" class="edge">
<title>Node9&#45;&gt;Node3</title>
<path fill="none" stroke="midnightblue" d="M336.72,-63.17C493.8,-54.91 1136.97,-21.05 1293.53,-12.81"/>
<polygon fill="midnightblue" stroke="midnightblue" points="1294.14,-16.29 1303.94,-12.27 1293.77,-9.3 1294.14,-16.29"/>
</g>
<!-- Node9&#45;&gt;Node8 -->
<g id="edge13" class="edge">
<title>Node9&#45;&gt;Node8</title>
<path fill="none" stroke="midnightblue" d="M291.88,-56.32C282.47,-48.26 268.26,-36.08 256.93,-26.37"/>
<polygon fill="midnightblue" stroke="midnightblue" points="259.18,-23.68 249.31,-19.83 254.62,-29 259.18,-23.68"/>
</g>
<!-- Node10 -->
<g id="node10" class="node">
<title>Node10</title>
<g id="a_node10"><a xlink:title=" ">
<polygon fill="white" stroke="#bfbfbf" points="288,-0.5 288,-19.5 336,-19.5 336,-0.5 288,-0.5"/>
<text text-anchor="middle" x="312" y="-7.5" font-family="Helvetica,sans-Serif" font-size="10.00">string.h</text>
</a>
</g>
</g>
<!-- Node9&#45;&gt;Node10 -->
<g id="edge12" class="edge">
<title>Node9&#45;&gt;Node10</title>
<path fill="none" stroke="midnightblue" d="M303.65,-56.08C304.98,-48.93 306.88,-38.64 308.54,-29.69"/>
<polygon fill="midnightblue" stroke="midnightblue" points="312,-30.22 310.38,-19.75 305.12,-28.95 312,-30.22"/>
</g>
<!-- Node11 -->
<g id="node11" class="node">
<title>Node11</title>
<g id="a_node11"><a xlink:href="v8-version_8h.html" target="_top" xlink:title=" ">
<polygon fill="white" stroke="black" points="354.5,-0.5 354.5,-19.5 423.5,-19.5 423.5,-0.5 354.5,-0.5"/>
<text text-anchor="middle" x="389" y="-7.5" font-family="Helvetica,sans-Serif" font-size="10.00">v8&#45;version.h</text>
</a>
</g>
</g>
<!-- Node9&#45;&gt;Node11 -->
<g id="edge14" class="edge">
<title>Node9&#45;&gt;Node11</title>
<path fill="none" stroke="midnightblue" d="M315.98,-56.32C329.55,-47.9 350.38,-34.97 366.32,-25.07"/>
<polygon fill="midnightblue" stroke="midnightblue" points="368.41,-27.9 375.06,-19.65 364.71,-21.95 368.41,-27.9"/>
</g>
<!-- Node9&#45;&gt;Node12 -->
<g id="edge15" class="edge">
<title>Node9&#45;&gt;Node12</title>
<path fill="none" stroke="midnightblue" d="M336.75,-58.34C341.53,-57.51 346.38,-56.7 351,-56 470.96,-37.75 613.59,-22.2 682.18,-15.11"/>
<polygon fill="midnightblue" stroke="midnightblue" points="682.95,-18.55 692.54,-14.05 682.23,-11.59 682.95,-18.55"/>
</g>
<!-- Node13&#45;&gt;Node7 -->
<g id="edge17" class="edge">
<title>Node13&#45;&gt;Node7</title>
<path fill="none" stroke="midnightblue" d="M804.87,-399.67C653.24,-393.6 76,-365.59 76,-291 76,-291 76,-291 76,-233 76,-189.93 118.16,-155.21 146.01,-136.98"/>
<polygon fill="midnightblue" stroke="midnightblue" points="147.88,-139.94 154.48,-131.65 144.15,-134.01 147.88,-139.94"/>
</g>
<!-- Node13&#45;&gt;Node12 -->
<g id="edge58" class="edge">
<title>Node13&#45;&gt;Node12</title>
<path fill="none" stroke="midnightblue" d="M877.04,-395.03C998.42,-373.16 1379.66,-289.32 1288,-112 1268.24,-73.77 1249.36,-70.94 1209,-56 1127.45,-25.82 864.29,-15.11 763.13,-12.05"/>
<polygon fill="midnightblue" stroke="midnightblue" points="763.11,-8.54 753.01,-11.75 762.91,-15.54 763.11,-8.54"/>
</g>
<!-- Node14 -->
<g id="node14" class="node">
<title>Node14</title>
<g id="a_node14"><a xlink:href="v8-object_8h.html" target="_top" xlink:title=" ">
<polygon fill="white" stroke="black" points="522,-336.5 522,-355.5 586,-355.5 586,-336.5 522,-336.5"/>
<text text-anchor="middle" x="554" y="-343.5" font-family="Helvetica,sans-Serif" font-size="10.00">v8&#45;object.h</text>
</a>
</g>
</g>
<!-- Node13&#45;&gt;Node14 -->
<g id="edge18" class="edge">
<title>Node13&#45;&gt;Node14</title>
<path fill="none" stroke="midnightblue" d="M804.94,-394.22C751.79,-384.22 652.63,-365.56 596.18,-354.94"/>
<polygon fill="midnightblue" stroke="midnightblue" points="596.63,-351.46 586.16,-353.05 595.34,-358.34 596.63,-351.46"/>
</g>
<!-- Node14&#45;&gt;Node7 -->
<g id="edge19" class="edge">
<title>Node14&#45;&gt;Node7</title>
<path fill="none" stroke="midnightblue" d="M521.67,-340.98C481.48,-335.24 411.31,-322.79 355,-300 266.26,-264.08 218.54,-271.1 171,-188 163.03,-174.07 163.61,-155.56 165.69,-141.86"/>
<polygon fill="midnightblue" stroke="midnightblue" points="169.2,-142.17 167.65,-131.68 162.32,-140.85 169.2,-142.17"/>
</g>
<!-- Node14&#45;&gt;Node12 -->
<g id="edge57" class="edge">
<title>Node14&#45;&gt;Node12</title>
<path fill="none" stroke="midnightblue" d="M586.16,-340.53C714.26,-322.02 1185.29,-246.88 1271,-132 1333.96,-47.62 900.06,-19.47 763.34,-12.75"/>
<polygon fill="midnightblue" stroke="midnightblue" points="763.43,-9.25 753.27,-12.27 763.09,-16.24 763.43,-9.25"/>
</g>
<!-- Node15 -->
<g id="node15" class="node">
<title>Node15</title>
<g id="a_node15"><a xlink:href="v8-maybe_8h.html" target="_top" xlink:title=" ">
<polygon fill="white" stroke="black" points="574,-168.5 574,-187.5 640,-187.5 640,-168.5 574,-168.5"/>
<text text-anchor="middle" x="607" y="-175.5" font-family="Helvetica,sans-Serif" font-size="10.00">v8&#45;maybe.h</text>
</a>
</g>
</g>
<!-- Node14&#45;&gt;Node15 -->
<g id="edge20" class="edge">
<title>Node14&#45;&gt;Node15</title>
<path fill="none" stroke="midnightblue" d="M556.85,-336.08C565.23,-309.83 589.9,-232.55 601.22,-197.12"/>
<polygon fill="midnightblue" stroke="midnightblue" points="604.56,-198.16 604.26,-187.57 597.89,-196.03 604.56,-198.16"/>
</g>
<!-- Node16 -->
<g id="node16" class="node">
<title>Node16</title>
<g id="a_node16"><a xlink:href="v8-persistent-handle_8h.html" target="_top" xlink:title=" ">
<polygon fill="white" stroke="black" points="218,-168.5 218,-187.5 330,-187.5 330,-168.5 218,-168.5"/>
<text text-anchor="middle" x="274" y="-175.5" font-family="Helvetica,sans-Serif" font-size="10.00">v8&#45;persistent&#45;handle.h</text>
</a>
</g>
</g>
<!-- Node14&#45;&gt;Node16 -->
<g id="edge23" class="edge">
<title>Node14&#45;&gt;Node16</title>
<path fill="none" stroke="midnightblue" d="M521.69,-341.86C486.03,-337.21 427.99,-326.02 385,-300 340.26,-272.91 302.63,-222.5 284.91,-196.11"/>
<polygon fill="midnightblue" stroke="midnightblue" points="287.71,-194.01 279.3,-187.56 281.86,-197.85 287.71,-194.01"/>
</g>
<!-- Node18 -->
<g id="node18" class="node">
<title>Node18</title>
<g id="a_node18"><a xlink:href="v8-primitive_8h.html" target="_top" xlink:title=" ">
<polygon fill="white" stroke="black" points="394,-280.5 394,-299.5 468,-299.5 468,-280.5 394,-280.5"/>
<text text-anchor="middle" x="431" y="-287.5" font-family="Helvetica,sans-Serif" font-size="10.00">v8&#45;primitive.h</text>
</a>
</g>
</g>
<!-- Node14&#45;&gt;Node18 -->
<g id="edge29" class="edge">
<title>Node14&#45;&gt;Node18</title>
<path fill="none" stroke="midnightblue" d="M534.51,-336.44C514.36,-327.6 482.68,-313.69 459.67,-303.59"/>
<polygon fill="midnightblue" stroke="midnightblue" points="460.96,-300.33 450.4,-299.52 458.15,-306.74 460.96,-300.33"/>
</g>
<!-- Node20 -->
<g id="node20" class="node">
<title>Node20</title>
<g id="a_node20"><a xlink:href="v8-value_8h.html" target="_top" xlink:title=" ">
<polygon fill="white" stroke="black" points="442.5,-224.5 442.5,-243.5 503.5,-243.5 503.5,-224.5 442.5,-224.5"/>
<text text-anchor="middle" x="473" y="-231.5" font-family="Helvetica,sans-Serif" font-size="10.00">v8&#45;value.h</text>
</a>
</g>
</g>
<!-- Node14&#45;&gt;Node20 -->
<g id="edge56" class="edge">
<title>Node14&#45;&gt;Node20</title>
<path fill="none" stroke="midnightblue" d="M547.64,-336.37C534.22,-318.14 502.77,-275.43 485.28,-251.68"/>
<polygon fill="midnightblue" stroke="midnightblue" points="488.07,-249.57 479.33,-243.59 482.44,-253.72 488.07,-249.57"/>
</g>
<!-- Node21 -->
<g id="node21" class="node">
<title>Node21</title>
<g id="a_node21"><a xlink:href="v8-traced-handle_8h.html" target="_top" xlink:title=" ">
<polygon fill="white" stroke="black" points="834,-168.5 834,-187.5 930,-187.5 930,-168.5 834,-168.5"/>
<text text-anchor="middle" x="882" y="-175.5" font-family="Helvetica,sans-Serif" font-size="10.00">v8&#45;traced&#45;handle.h</text>
</a>
</g>
</g>
<!-- Node14&#45;&gt;Node21 -->
<g id="edge42" class="edge">
<title>Node14&#45;&gt;Node21</title>
<path fill="none" stroke="midnightblue" d="M571.17,-336.31C625.09,-309.02 791.21,-224.95 855.87,-192.22"/>
<polygon fill="midnightblue" stroke="midnightblue" points="857.66,-195.24 865,-187.61 854.49,-189 857.66,-195.24"/>
</g>
<!-- Node15&#45;&gt;Node9 -->
<g id="edge21" class="edge">
<title>Node15&#45;&gt;Node9</title>
<path fill="none" stroke="midnightblue" d="M587.5,-168.45C557.57,-155.47 498.38,-130.37 447,-112 411.92,-99.46 371.38,-87.05 342.1,-78.45"/>
<polygon fill="midnightblue" stroke="midnightblue" points="342.82,-75.01 332.24,-75.57 340.86,-81.73 342.82,-75.01"/>
</g>
<!-- Node15&#45;&gt;Node12 -->
<g id="edge22" class="edge">
<title>Node15&#45;&gt;Node12</title>
<path fill="none" stroke="midnightblue" d="M640.24,-175.75C671,-172.61 715.18,-162.64 737,-132 758.99,-101.11 743.31,-54.14 731.94,-28.76"/>
<polygon fill="midnightblue" stroke="midnightblue" points="735.04,-27.13 727.6,-19.6 728.72,-30.13 735.04,-27.13"/>
</g>
<!-- Node16&#45;&gt;Node7 -->
<g id="edge25" class="edge">
<title>Node16&#45;&gt;Node7</title>
<path fill="none" stroke="midnightblue" d="M257.29,-168.32C240.69,-159.7 215,-146.36 195.78,-136.39"/>
<polygon fill="midnightblue" stroke="midnightblue" points="197.16,-133.16 186.67,-131.65 193.93,-139.37 197.16,-133.16"/>
</g>
<!-- Node16&#45;&gt;Node9 -->
<g id="edge24" class="edge">
<title>Node16&#45;&gt;Node9</title>
<path fill="none" stroke="midnightblue" d="M270.76,-168.32C266.52,-155.61 260.37,-131.32 267,-112 270.72,-101.16 278.23,-90.92 285.35,-82.96"/>
<polygon fill="midnightblue" stroke="midnightblue" points="288.05,-85.19 292.44,-75.55 283,-80.35 288.05,-85.19"/>
</g>
<!-- Node16&#45;&gt;Node12 -->
<g id="edge28" class="edge">
<title>Node16&#45;&gt;Node12</title>
<path fill="none" stroke="midnightblue" d="M284.64,-168.31C312.79,-145.8 392.34,-85.32 469,-56 541.2,-28.38 631.51,-17.55 682.69,-13.42"/>
<polygon fill="midnightblue" stroke="midnightblue" points="682.98,-16.91 692.69,-12.66 682.45,-9.93 682.98,-16.91"/>
</g>
<!-- Node17 -->
<g id="node17" class="node">
<title>Node17</title>
<g id="a_node17"><a xlink:href="v8-weak-callback-info_8h.html" target="_top" xlink:title=" ">
<polygon fill="white" stroke="black" points="537.5,-112.5 537.5,-131.5 656.5,-131.5 656.5,-112.5 537.5,-112.5"/>
<text text-anchor="middle" x="597" y="-119.5" font-family="Helvetica,sans-Serif" font-size="10.00">v8&#45;weak&#45;callback&#45;info.h</text>
</a>
</g>
</g>
<!-- Node16&#45;&gt;Node17 -->
<g id="edge26" class="edge">
<title>Node16&#45;&gt;Node17</title>
<path fill="none" stroke="midnightblue" d="M325.18,-168.44C382.47,-158.87 475.24,-143.36 536.19,-133.17"/>
<polygon fill="midnightblue" stroke="midnightblue" points="536.77,-136.62 546.06,-131.52 535.62,-129.71 536.77,-136.62"/>
</g>
<!-- Node17&#45;&gt;Node12 -->
<g id="edge27" class="edge">
<title>Node17&#45;&gt;Node12</title>
<path fill="none" stroke="midnightblue" d="M606.89,-112.37C628.14,-93.81 678.43,-49.91 705.32,-26.44"/>
<polygon fill="midnightblue" stroke="midnightblue" points="707.93,-28.8 713.16,-19.59 703.32,-23.53 707.93,-28.8"/>
</g>
<!-- Node18&#45;&gt;Node7 -->
<g id="edge34" class="edge">
<title>Node18&#45;&gt;Node7</title>
<path fill="none" stroke="midnightblue" d="M393.77,-284.25C339.75,-275.34 240.17,-250.95 186,-188 174.99,-175.21 171.33,-156.02 170.21,-141.8"/>
<polygon fill="midnightblue" stroke="midnightblue" points="173.7,-141.53 169.78,-131.69 166.71,-141.83 173.7,-141.53"/>
</g>
<!-- Node18&#45;&gt;Node9 -->
<g id="edge33" class="edge">
<title>Node18&#45;&gt;Node9</title>
<path fill="none" stroke="midnightblue" d="M425.94,-280.3C406.8,-247.36 338.55,-129.9 312.35,-84.81"/>
<polygon fill="midnightblue" stroke="midnightblue" points="315.21,-82.77 307.16,-75.88 309.16,-86.29 315.21,-82.77"/>
</g>
<!-- Node18&#45;&gt;Node12 -->
<g id="edge41" class="edge">
<title>Node18&#45;&gt;Node12</title>
<path fill="none" stroke="midnightblue" d="M460.81,-280.36C478.91,-273.51 500.81,-262.02 513,-244 546.11,-195.05 495.35,-160.58 529,-112 565.38,-59.47 637.75,-32.36 683.08,-19.95"/>
<polygon fill="midnightblue" stroke="midnightblue" points="684.09,-23.3 692.88,-17.38 682.32,-16.53 684.09,-23.3"/>
</g>
<!-- Node19 -->
<g id="node19" class="node">
<title>Node19</title>
<g id="a_node19"><a xlink:href="v8-data_8h.html" target="_top" xlink:title=" ">
<polygon fill="white" stroke="black" points="386,-168.5 386,-187.5 442,-187.5 442,-168.5 386,-168.5"/>
<text text-anchor="middle" x="414" y="-175.5" font-family="Helvetica,sans-Serif" font-size="10.00">v8&#45;data.h</text>
</a>
</g>
</g>
<!-- Node18&#45;&gt;Node19 -->
<g id="edge30" class="edge">
<title>Node18&#45;&gt;Node19</title>
<path fill="none" stroke="midnightblue" d="M429.67,-280.37C426.92,-262.62 420.59,-221.67 416.87,-197.6"/>
<polygon fill="midnightblue" stroke="midnightblue" points="420.31,-196.94 415.33,-187.59 413.4,-198.01 420.31,-196.94"/>
</g>
<!-- Node18&#45;&gt;Node20 -->
<g id="edge35" class="edge">
<title>Node18&#45;&gt;Node20</title>
<path fill="none" stroke="midnightblue" d="M437.94,-280.08C443.93,-272.38 452.75,-261.03 460.05,-251.65"/>
<polygon fill="midnightblue" stroke="midnightblue" points="462.82,-253.79 466.19,-243.75 457.29,-249.5 462.82,-253.79"/>
</g>
<!-- Node19&#45;&gt;Node7 -->
<g id="edge31" class="edge">
<title>Node19&#45;&gt;Node7</title>
<path fill="none" stroke="midnightblue" d="M385.53,-170.7C344.6,-161.64 268.58,-144.82 218.64,-133.76"/>
<polygon fill="midnightblue" stroke="midnightblue" points="219.23,-130.31 208.71,-131.57 217.72,-137.14 219.23,-130.31"/>
</g>
<!-- Node19&#45;&gt;Node12 -->
<g id="edge32" class="edge">
<title>Node19&#45;&gt;Node12</title>
<path fill="none" stroke="midnightblue" d="M417.1,-168.26C425.62,-145.63 451.67,-84.88 495,-56 525.26,-35.83 625.97,-21.75 682.9,-15.19"/>
<polygon fill="midnightblue" stroke="midnightblue" points="683.45,-18.65 692.99,-14.05 682.67,-11.69 683.45,-18.65"/>
</g>
<!-- Node20&#45;&gt;Node7 -->
<g id="edge38" class="edge">
<title>Node20&#45;&gt;Node7</title>
<path fill="none" stroke="midnightblue" d="M442.49,-230.98C381.38,-226.43 246.62,-213.71 209,-188 192.74,-176.88 182.16,-156.55 176.18,-141.57"/>
<polygon fill="midnightblue" stroke="midnightblue" points="179.34,-140.02 172.62,-131.82 172.76,-142.42 179.34,-140.02"/>
</g>
<!-- Node20&#45;&gt;Node9 -->
<g id="edge37" class="edge">
<title>Node20&#45;&gt;Node9</title>
<path fill="none" stroke="midnightblue" d="M471.84,-224.17C469.71,-210.83 464.13,-185.25 451,-168 419.3,-126.36 365.31,-95.98 331.76,-79.94"/>
<polygon fill="midnightblue" stroke="midnightblue" points="333.01,-76.66 322.46,-75.62 330.05,-83.01 333.01,-76.66"/>
</g>
<!-- Node20&#45;&gt;Node12 -->
<g id="edge40" class="edge">
<title>Node20&#45;&gt;Node12</title>
<path fill="none" stroke="midnightblue" d="M483.16,-224.4C499.51,-210.9 533.06,-184.58 565,-168 607.3,-146.05 630.7,-164.01 666,-132 696.86,-104.02 712.46,-55.85 719.03,-29.51"/>
<polygon fill="midnightblue" stroke="midnightblue" points="722.46,-30.22 721.31,-19.69 715.64,-28.63 722.46,-30.22"/>
</g>
<!-- Node20&#45;&gt;Node15 -->
<g id="edge39" class="edge">
<title>Node20&#45;&gt;Node15</title>
<path fill="none" stroke="midnightblue" d="M494.23,-224.44C516.38,-215.52 551.32,-201.44 576.44,-191.32"/>
<polygon fill="midnightblue" stroke="midnightblue" points="577.9,-194.5 585.87,-187.52 575.28,-188.01 577.9,-194.5"/>
</g>
<!-- Node20&#45;&gt;Node19 -->
<g id="edge36" class="edge">
<title>Node20&#45;&gt;Node19</title>
<path fill="none" stroke="midnightblue" d="M463.52,-224.32C454.8,-216.34 441.66,-204.31 431.1,-194.65"/>
<polygon fill="midnightblue" stroke="midnightblue" points="433.39,-192 423.65,-187.83 428.67,-197.17 433.39,-192"/>
</g>
<!-- Node21&#45;&gt;Node2 -->
<g id="edge43" class="edge">
<title>Node21&#45;&gt;Node2</title>
<path fill="none" stroke="midnightblue" d="M833.75,-176.92C726.14,-175.11 460.15,-161.58 259,-76 229.61,-63.49 199.88,-41.26 181.7,-26.33"/>
<polygon fill="midnightblue" stroke="midnightblue" points="183.66,-23.41 173.75,-19.66 179.16,-28.77 183.66,-23.41"/>
</g>
<!-- Node21&#45;&gt;Node3 -->
<g id="edge44" class="edge">
<title>Node21&#45;&gt;Node3</title>
<path fill="none" stroke="midnightblue" d="M910.34,-168.49C938.75,-159.82 983.66,-145.72 1022,-132 1124.53,-95.29 1244.05,-46.16 1298.39,-23.46"/>
<polygon fill="midnightblue" stroke="midnightblue" points="1299.89,-26.63 1307.76,-19.54 1297.19,-20.17 1299.89,-26.63"/>
</g>
<!-- Node21&#45;&gt;Node4 -->
<g id="edge47" class="edge">
<title>Node21&#45;&gt;Node4</title>
<path fill="none" stroke="midnightblue" d="M919.24,-168.44C963.69,-158.23 1037.5,-141.27 1081.27,-131.21"/>
<polygon fill="midnightblue" stroke="midnightblue" points="1082.23,-134.58 1091.19,-128.93 1080.66,-127.76 1082.23,-134.58"/>
</g>
<!-- Node21&#45;&gt;Node5 -->
<g id="edge50" class="edge">
<title>Node21&#45;&gt;Node5</title>
<path fill="none" stroke="midnightblue" d="M930.22,-171.12C982.45,-164.28 1068.3,-151.64 1150.25,-132.16"/>
<polygon fill="midnightblue" stroke="midnightblue" points="1151.32,-135.5 1160.22,-129.75 1149.67,-128.7 1151.32,-135.5"/>
</g>
<!-- Node21&#45;&gt;Node6 -->
<g id="edge51" class="edge">
<title>Node21&#45;&gt;Node6</title>
<path fill="none" stroke="midnightblue" d="M930.03,-172.6C992.12,-166.44 1103.66,-153.7 1207.7,-132.01"/>
<polygon fill="midnightblue" stroke="midnightblue" points="1208.69,-135.38 1217.75,-129.88 1207.24,-128.53 1208.69,-135.38"/>
</g>
<!-- Node21&#45;&gt;Node7 -->
<g id="edge53" class="edge">
<title>Node21&#45;&gt;Node7</title>
<path fill="none" stroke="midnightblue" d="M833.9,-173.35C706.33,-163.68 359.92,-137.4 224.91,-127.16"/>
<polygon fill="midnightblue" stroke="midnightblue" points="225.04,-123.66 214.8,-126.4 224.51,-130.64 225.04,-123.66"/>
</g>
<!-- Node21&#45;&gt;Node8 -->
<g id="edge49" class="edge">
<title>Node21&#45;&gt;Node8</title>
<path fill="none" stroke="midnightblue" d="M863.31,-168.31C833.4,-154.68 772.67,-128.18 719,-112 530.89,-55.3 476.05,-62.12 280.46,-20.28"/>
<polygon fill="midnightblue" stroke="midnightblue" points="280.95,-16.81 270.43,-18.12 279.47,-23.65 280.95,-16.81"/>
</g>
<!-- Node21&#45;&gt;Node9 -->
<g id="edge52" class="edge">
<title>Node21&#45;&gt;Node9</title>
<path fill="none" stroke="midnightblue" d="M858.37,-168.45C819,-154.53 737.27,-127.02 666,-112 552.36,-88.06 415.88,-75.39 346.79,-70.08"/>
<polygon fill="midnightblue" stroke="midnightblue" points="346.93,-66.58 336.7,-69.32 346.41,-73.56 346.93,-66.58"/>
</g>
<!-- Node21&#45;&gt;Node12 -->
<g id="edge55" class="edge">
<title>Node21&#45;&gt;Node12</title>
<path fill="none" stroke="midnightblue" d="M930.28,-169.92C974.03,-161.34 1028.48,-143.89 1006,-112 950.34,-33.04 827.11,-15.46 763.2,-11.78"/>
<polygon fill="midnightblue" stroke="midnightblue" points="763.26,-8.28 753.1,-11.29 762.92,-15.27 763.26,-8.28"/>
</g>
<!-- Node21&#45;&gt;Node17 -->
<g id="edge54" class="edge">
<title>Node21&#45;&gt;Node17</title>
<path fill="none" stroke="midnightblue" d="M836.84,-168.44C786.71,-158.94 705.78,-143.61 651.99,-133.42"/>
<polygon fill="midnightblue" stroke="midnightblue" points="652.42,-129.94 641.95,-131.52 651.12,-136.82 652.42,-129.94"/>
</g>
<!-- Node22 -->
<g id="node22" class="node">
<title>Node22</title>
<g id="a_node22"><a xlink:title=" ">
<polygon fill="white" stroke="#bfbfbf" points="827.5,-112.5 827.5,-131.5 872.5,-131.5 872.5,-112.5 827.5,-112.5"/>
<text text-anchor="middle" x="850" y="-119.5" font-family="Helvetica,sans-Serif" font-size="10.00">stdio.h</text>
</a>
</g>
</g>
<!-- Node21&#45;&gt;Node22 -->
<g id="edge45" class="edge">
<title>Node21&#45;&gt;Node22</title>
<path fill="none" stroke="midnightblue" d="M876.72,-168.08C872.29,-160.61 865.84,-149.72 860.38,-140.52"/>
<polygon fill="midnightblue" stroke="midnightblue" points="863.29,-138.57 855.19,-131.75 857.27,-142.14 863.29,-138.57"/>
</g>
<!-- Node23 -->
<g id="node23" class="node">
<title>Node23</title>
<g id="a_node23"><a xlink:title=" ">
<polygon fill="white" stroke="#bfbfbf" points="891,-112.5 891,-131.5 937,-131.5 937,-112.5 891,-112.5"/>
<text text-anchor="middle" x="914" y="-119.5" font-family="Helvetica,sans-Serif" font-size="10.00">atomic</text>
</a>
</g>
</g>
<!-- Node21&#45;&gt;Node23 -->
<g id="edge46" class="edge">
<title>Node21&#45;&gt;Node23</title>
<path fill="none" stroke="midnightblue" d="M887.28,-168.08C891.71,-160.61 898.16,-149.72 903.62,-140.52"/>
<polygon fill="midnightblue" stroke="midnightblue" points="906.73,-142.14 908.81,-131.75 900.71,-138.57 906.73,-142.14"/>
</g>
<!-- Node24 -->
<g id="node24" class="node">
<title>Node24</title>
<g id="a_node24"><a xlink:title=" ">
<polygon fill="white" stroke="#bfbfbf" points="955.5,-112.5 955.5,-131.5 996.5,-131.5 996.5,-112.5 955.5,-112.5"/>
<text text-anchor="middle" x="976" y="-119.5" font-family="Helvetica,sans-Serif" font-size="10.00">string</text>
</a>
</g>
</g>
<!-- Node21&#45;&gt;Node24 -->
<g id="edge48" class="edge">
<title>Node21&#45;&gt;Node24</title>
<path fill="none" stroke="midnightblue" d="M897.1,-168.32C911.9,-159.82 934.69,-146.73 951.98,-136.8"/>
<polygon fill="midnightblue" stroke="midnightblue" points="954.01,-139.67 960.93,-131.65 950.52,-133.6 954.01,-139.67"/>
</g>
</g>
</svg>
