<?xml version="1.0" encoding="UTF-8" standalone="no"?>
<!DOCTYPE svg PUBLIC "-//W3C//DTD SVG 1.1//EN"
 "http://www.w3.org/Graphics/SVG/1.1/DTD/svg11.dtd">
<!-- Generated by graphviz version 2.49.3 (20211027.1534)
 -->
<!-- Title: include/v8&#45;script.h Pages: 1 -->
<svg width="715pt" height="252pt"
 viewBox="0.00 0.00 714.50 252.00" xmlns="http://www.w3.org/2000/svg" xmlns:xlink="http://www.w3.org/1999/xlink">
<g id="graph0" class="graph" transform="scale(1 1) rotate(0) translate(4 248)">
<title>include/v8&#45;script.h</title>
<polygon fill="white" stroke="transparent" points="-4,4 -4,-248 710.5,-248 710.5,4 -4,4"/>
<!-- Node1 -->
<g id="node1" class="node">
<title>Node1</title>
<g id="a_node1"><a xlink:title=" ">
<polygon fill="#bfbfbf" stroke="black" points="285,-224.5 285,-243.5 380,-243.5 380,-224.5 285,-224.5"/>
<text text-anchor="middle" x="332.5" y="-231.5" font-family="Helvetica,sans-Serif" font-size="10.00">include/v8&#45;script.h</text>
</a>
</g>
</g>
<!-- Node2 -->
<g id="node2" class="node">
<title>Node2</title>
<g id="a_node2"><a xlink:title=" ">
<polygon fill="white" stroke="#bfbfbf" points="0,-0.5 0,-19.5 51,-19.5 51,-0.5 0,-0.5"/>
<text text-anchor="middle" x="25.5" y="-7.5" font-family="Helvetica,sans-Serif" font-size="10.00">stddef.h</text>
</a>
</g>
</g>
<!-- Node1&#45;&gt;Node2 -->
<g id="edge1" class="edge">
<title>Node1&#45;&gt;Node2</title>
<path fill="none" stroke="midnightblue" d="M284.81,-225.02C254.66,-218.43 215.81,-206.99 185.5,-188 116.52,-144.78 59.16,-63.61 36.23,-28.22"/>
<polygon fill="midnightblue" stroke="midnightblue" points="39.01,-26.08 30.69,-19.53 33.11,-29.84 39.01,-26.08"/>
</g>
<!-- Node3 -->
<g id="node3" class="node">
<title>Node3</title>
<g id="a_node3"><a xlink:title=" ">
<polygon fill="white" stroke="#bfbfbf" points="69.5,-0.5 69.5,-19.5 117.5,-19.5 117.5,-0.5 69.5,-0.5"/>
<text text-anchor="middle" x="93.5" y="-7.5" font-family="Helvetica,sans-Serif" font-size="10.00">stdint.h</text>
</a>
</g>
</g>
<!-- Node1&#45;&gt;Node3 -->
<g id="edge2" class="edge">
<title>Node1&#45;&gt;Node3</title>
<path fill="none" stroke="midnightblue" d="M302.91,-224.5C262.47,-211.35 190.41,-182.21 150.5,-132 124.95,-99.86 107.5,-54.39 99.15,-29.34"/>
<polygon fill="midnightblue" stroke="midnightblue" points="102.44,-28.12 96.05,-19.67 95.77,-30.26 102.44,-28.12"/>
</g>
<!-- Node4 -->
<g id="node4" class="node">
<title>Node4</title>
<g id="a_node4"><a xlink:title=" ">
<polygon fill="white" stroke="#bfbfbf" points="593,-168.5 593,-187.5 644,-187.5 644,-168.5 593,-168.5"/>
<text text-anchor="middle" x="618.5" y="-175.5" font-family="Helvetica,sans-Serif" font-size="10.00">memory</text>
</a>
</g>
</g>
<!-- Node1&#45;&gt;Node4 -->
<g id="edge3" class="edge">
<title>Node1&#45;&gt;Node4</title>
<path fill="none" stroke="midnightblue" d="M380.23,-224.86C429.87,-216.25 509.79,-202.01 578.5,-188 579.94,-187.71 581.4,-187.4 582.89,-187.09"/>
<polygon fill="midnightblue" stroke="midnightblue" points="583.68,-190.5 592.71,-184.96 582.2,-183.66 583.68,-190.5"/>
</g>
<!-- Node5 -->
<g id="node5" class="node">
<title>Node5</title>
<g id="a_node5"><a xlink:title=" ">
<polygon fill="white" stroke="#bfbfbf" points="662.5,-168.5 662.5,-187.5 706.5,-187.5 706.5,-168.5 662.5,-168.5"/>
<text text-anchor="middle" x="684.5" y="-175.5" font-family="Helvetica,sans-Serif" font-size="10.00">vector</text>
</a>
</g>
</g>
<!-- Node1&#45;&gt;Node5 -->
<g id="edge4" class="edge">
<title>Node1&#45;&gt;Node5</title>
<path fill="none" stroke="midnightblue" d="M380.19,-228.47C441.24,-222.2 550.39,-209.39 652.4,-187.97"/>
<polygon fill="midnightblue" stroke="midnightblue" points="653.2,-191.38 662.25,-185.87 651.74,-184.54 653.2,-191.38"/>
</g>
<!-- Node6 -->
<g id="node6" class="node">
<title>Node6</title>
<g id="a_node6"><a xlink:href="v8-data_8h.html" target="_top" xlink:title=" ">
<polygon fill="white" stroke="black" points="248.5,-168.5 248.5,-187.5 304.5,-187.5 304.5,-168.5 248.5,-168.5"/>
<text text-anchor="middle" x="276.5" y="-175.5" font-family="Helvetica,sans-Serif" font-size="10.00">v8&#45;data.h</text>
</a>
</g>
</g>
<!-- Node1&#45;&gt;Node6 -->
<g id="edge5" class="edge">
<title>Node1&#45;&gt;Node6</title>
<path fill="none" stroke="midnightblue" d="M323.5,-224.32C315.31,-216.42 302.99,-204.55 293.03,-194.94"/>
<polygon fill="midnightblue" stroke="midnightblue" points="295.29,-192.26 285.66,-187.83 290.43,-197.29 295.29,-192.26"/>
</g>
<!-- Node7 -->
<g id="node7" class="node">
<title>Node7</title>
<g id="a_node7"><a xlink:href="v8-local-handle_8h.html" target="_top" xlink:title=" ">
<polygon fill="white" stroke="black" points="160,-112.5 160,-131.5 249,-131.5 249,-112.5 160,-112.5"/>
<text text-anchor="middle" x="204.5" y="-119.5" font-family="Helvetica,sans-Serif" font-size="10.00">v8&#45;local&#45;handle.h</text>
</a>
</g>
</g>
<!-- Node1&#45;&gt;Node7 -->
<g id="edge17" class="edge">
<title>Node1&#45;&gt;Node7</title>
<path fill="none" stroke="midnightblue" d="M303.69,-224.35C283.75,-217.2 257.64,-205.37 239.5,-188 225.93,-175 216.42,-155.57 210.77,-141.34"/>
<polygon fill="midnightblue" stroke="midnightblue" points="213.95,-139.83 207.21,-131.66 207.38,-142.26 213.95,-139.83"/>
</g>
<!-- Node12 -->
<g id="node12" class="node">
<title>Node12</title>
<g id="a_node12"><a xlink:href="v8config_8h.html" target="_top" xlink:title=" ">
<polygon fill="white" stroke="black" points="369.5,-0.5 369.5,-19.5 429.5,-19.5 429.5,-0.5 369.5,-0.5"/>
<text text-anchor="middle" x="399.5" y="-7.5" font-family="Helvetica,sans-Serif" font-size="10.00">v8config.h</text>
</a>
</g>
</g>
<!-- Node1&#45;&gt;Node12 -->
<g id="edge27" class="edge">
<title>Node1&#45;&gt;Node12</title>
<path fill="none" stroke="midnightblue" d="M380.32,-226.11C431.96,-215.78 511.4,-190.76 545.5,-132 575.38,-80.51 490.19,-41.38 437.59,-22.85"/>
<polygon fill="midnightblue" stroke="midnightblue" points="438.46,-19.45 427.86,-19.52 436.19,-26.07 438.46,-19.45"/>
</g>
<!-- Node13 -->
<g id="node13" class="node">
<title>Node13</title>
<g id="a_node13"><a xlink:href="v8-maybe_8h.html" target="_top" xlink:title=" ">
<polygon fill="white" stroke="black" points="305.5,-112.5 305.5,-131.5 371.5,-131.5 371.5,-112.5 305.5,-112.5"/>
<text text-anchor="middle" x="338.5" y="-119.5" font-family="Helvetica,sans-Serif" font-size="10.00">v8&#45;maybe.h</text>
</a>
</g>
</g>
<!-- Node1&#45;&gt;Node13 -->
<g id="edge18" class="edge">
<title>Node1&#45;&gt;Node13</title>
<path fill="none" stroke="midnightblue" d="M332.97,-224.37C333.94,-206.62 336.17,-165.67 337.49,-141.6"/>
<polygon fill="midnightblue" stroke="midnightblue" points="340.98,-141.77 338.03,-131.59 333.99,-141.39 340.98,-141.77"/>
</g>
<!-- Node14 -->
<g id="node14" class="node">
<title>Node14</title>
<g id="a_node14"><a xlink:href="v8-message_8h.html" target="_top" xlink:title=" ">
<polygon fill="white" stroke="black" points="361,-168.5 361,-187.5 438,-187.5 438,-168.5 361,-168.5"/>
<text text-anchor="middle" x="399.5" y="-175.5" font-family="Helvetica,sans-Serif" font-size="10.00">v8&#45;message.h</text>
</a>
</g>
</g>
<!-- Node1&#45;&gt;Node14 -->
<g id="edge21" class="edge">
<title>Node1&#45;&gt;Node14</title>
<path fill="none" stroke="midnightblue" d="M343.26,-224.32C353.27,-216.26 368.39,-204.08 380.43,-194.37"/>
<polygon fill="midnightblue" stroke="midnightblue" points="382.95,-196.83 388.54,-187.83 378.56,-191.38 382.95,-196.83"/>
</g>
<!-- Node6&#45;&gt;Node7 -->
<g id="edge6" class="edge">
<title>Node6&#45;&gt;Node7</title>
<path fill="none" stroke="midnightblue" d="M264.93,-168.32C254.08,-160.18 237.62,-147.84 224.62,-138.09"/>
<polygon fill="midnightblue" stroke="midnightblue" points="226.38,-135.03 216.28,-131.83 222.18,-140.63 226.38,-135.03"/>
</g>
<!-- Node6&#45;&gt;Node12 -->
<g id="edge16" class="edge">
<title>Node6&#45;&gt;Node12</title>
<path fill="none" stroke="midnightblue" d="M277.75,-168.45C279.93,-155.46 285.33,-130.35 296.5,-112 318.44,-75.96 356.11,-43.61 379.31,-25.71"/>
<polygon fill="midnightblue" stroke="midnightblue" points="381.56,-28.39 387.43,-19.57 377.34,-22.81 381.56,-28.39"/>
</g>
<!-- Node7&#45;&gt;Node2 -->
<g id="edge7" class="edge">
<title>Node7&#45;&gt;Node2</title>
<path fill="none" stroke="midnightblue" d="M190.45,-112.37C159.61,-93.41 85.71,-48 48.19,-24.94"/>
<polygon fill="midnightblue" stroke="midnightblue" points="49.83,-21.85 39.48,-19.59 46.17,-27.81 49.83,-21.85"/>
</g>
<!-- Node8 -->
<g id="node8" class="node">
<title>Node8</title>
<g id="a_node8"><a xlink:title=" ">
<polygon fill="white" stroke="#bfbfbf" points="135.5,-0.5 135.5,-19.5 197.5,-19.5 197.5,-0.5 135.5,-0.5"/>
<text text-anchor="middle" x="166.5" y="-7.5" font-family="Helvetica,sans-Serif" font-size="10.00">type_traits</text>
</a>
</g>
</g>
<!-- Node7&#45;&gt;Node8 -->
<g id="edge8" class="edge">
<title>Node7&#45;&gt;Node8</title>
<path fill="none" stroke="midnightblue" d="M200.56,-112.49C196.49,-103.53 190.11,-88.94 185.5,-76 179.96,-60.42 174.77,-42.35 171.22,-29.22"/>
<polygon fill="midnightblue" stroke="midnightblue" points="174.6,-28.29 168.65,-19.51 167.83,-30.08 174.6,-28.29"/>
</g>
<!-- Node9 -->
<g id="node9" class="node">
<title>Node9</title>
<g id="a_node9"><a xlink:href="v8-internal_8h.html" target="_top" xlink:title=" ">
<polygon fill="white" stroke="black" points="195,-56.5 195,-75.5 264,-75.5 264,-56.5 195,-56.5"/>
<text text-anchor="middle" x="229.5" y="-63.5" font-family="Helvetica,sans-Serif" font-size="10.00">v8&#45;internal.h</text>
</a>
</g>
</g>
<!-- Node7&#45;&gt;Node9 -->
<g id="edge9" class="edge">
<title>Node7&#45;&gt;Node9</title>
<path fill="none" stroke="midnightblue" d="M208.63,-112.08C212.01,-104.77 216.92,-94.18 221.12,-85.1"/>
<polygon fill="midnightblue" stroke="midnightblue" points="224.42,-86.3 225.45,-75.75 218.07,-83.36 224.42,-86.3"/>
</g>
<!-- Node9&#45;&gt;Node2 -->
<g id="edge10" class="edge">
<title>Node9&#45;&gt;Node2</title>
<path fill="none" stroke="midnightblue" d="M197.18,-56.44C160.05,-46.62 99.33,-30.54 60.94,-20.38"/>
<polygon fill="midnightblue" stroke="midnightblue" points="61.78,-16.98 51.21,-17.81 59.99,-23.75 61.78,-16.98"/>
</g>
<!-- Node9&#45;&gt;Node3 -->
<g id="edge11" class="edge">
<title>Node9&#45;&gt;Node3</title>
<path fill="none" stroke="midnightblue" d="M207.95,-56.44C185.47,-47.52 150.01,-33.44 124.52,-23.32"/>
<polygon fill="midnightblue" stroke="midnightblue" points="125.53,-19.95 114.95,-19.52 122.95,-26.46 125.53,-19.95"/>
</g>
<!-- Node9&#45;&gt;Node8 -->
<g id="edge13" class="edge">
<title>Node9&#45;&gt;Node8</title>
<path fill="none" stroke="midnightblue" d="M219.38,-56.32C209.97,-48.26 195.76,-36.08 184.43,-26.37"/>
<polygon fill="midnightblue" stroke="midnightblue" points="186.68,-23.68 176.81,-19.83 182.12,-29 186.68,-23.68"/>
</g>
<!-- Node10 -->
<g id="node10" class="node">
<title>Node10</title>
<g id="a_node10"><a xlink:title=" ">
<polygon fill="white" stroke="#bfbfbf" points="215.5,-0.5 215.5,-19.5 263.5,-19.5 263.5,-0.5 215.5,-0.5"/>
<text text-anchor="middle" x="239.5" y="-7.5" font-family="Helvetica,sans-Serif" font-size="10.00">string.h</text>
</a>
</g>
</g>
<!-- Node9&#45;&gt;Node10 -->
<g id="edge12" class="edge">
<title>Node9&#45;&gt;Node10</title>
<path fill="none" stroke="midnightblue" d="M231.15,-56.08C232.48,-48.93 234.38,-38.64 236.04,-29.69"/>
<polygon fill="midnightblue" stroke="midnightblue" points="239.5,-30.22 237.88,-19.75 232.62,-28.95 239.5,-30.22"/>
</g>
<!-- Node11 -->
<g id="node11" class="node">
<title>Node11</title>
<g id="a_node11"><a xlink:href="v8-version_8h.html" target="_top" xlink:title=" ">
<polygon fill="white" stroke="black" points="282,-0.5 282,-19.5 351,-19.5 351,-0.5 282,-0.5"/>
<text text-anchor="middle" x="316.5" y="-7.5" font-family="Helvetica,sans-Serif" font-size="10.00">v8&#45;version.h</text>
</a>
</g>
</g>
<!-- Node9&#45;&gt;Node11 -->
<g id="edge14" class="edge">
<title>Node9&#45;&gt;Node11</title>
<path fill="none" stroke="midnightblue" d="M243.48,-56.32C257.05,-47.9 277.88,-34.97 293.82,-25.07"/>
<polygon fill="midnightblue" stroke="midnightblue" points="295.91,-27.9 302.56,-19.65 292.21,-21.95 295.91,-27.9"/>
</g>
<!-- Node9&#45;&gt;Node12 -->
<g id="edge15" class="edge">
<title>Node9&#45;&gt;Node12</title>
<path fill="none" stroke="midnightblue" d="M256.44,-56.44C285.16,-47.32 330.83,-32.81 362.82,-22.65"/>
<polygon fill="midnightblue" stroke="midnightblue" points="364.22,-25.88 372.69,-19.52 362.1,-19.21 364.22,-25.88"/>
</g>
<!-- Node13&#45;&gt;Node9 -->
<g id="edge19" class="edge">
<title>Node13&#45;&gt;Node9</title>
<path fill="none" stroke="midnightblue" d="M320.99,-112.32C303.43,-103.62 276.17,-90.12 255.97,-80.11"/>
<polygon fill="midnightblue" stroke="midnightblue" points="257.48,-76.96 246.97,-75.65 254.38,-83.23 257.48,-76.96"/>
</g>
<!-- Node13&#45;&gt;Node12 -->
<g id="edge20" class="edge">
<title>Node13&#45;&gt;Node12</title>
<path fill="none" stroke="midnightblue" d="M343.29,-112.37C353.26,-94.38 376.46,-52.55 389.73,-28.63"/>
<polygon fill="midnightblue" stroke="midnightblue" points="392.95,-30.03 394.74,-19.59 386.83,-26.64 392.95,-30.03"/>
</g>
<!-- Node14&#45;&gt;Node7 -->
<g id="edge24" class="edge">
<title>Node14&#45;&gt;Node7</title>
<path fill="none" stroke="midnightblue" d="M368.6,-168.44C335.23,-159.2 281.91,-144.44 245.15,-134.26"/>
<polygon fill="midnightblue" stroke="midnightblue" points="245.83,-130.81 235.25,-131.52 243.96,-137.56 245.83,-130.81"/>
</g>
<!-- Node14&#45;&gt;Node12 -->
<g id="edge26" class="edge">
<title>Node14&#45;&gt;Node12</title>
<path fill="none" stroke="midnightblue" d="M399.5,-168.08C399.5,-141.95 399.5,-65.21 399.5,-29.58"/>
<polygon fill="midnightblue" stroke="midnightblue" points="403,-29.57 399.5,-19.57 396,-29.57 403,-29.57"/>
</g>
<!-- Node14&#45;&gt;Node13 -->
<g id="edge25" class="edge">
<title>Node14&#45;&gt;Node13</title>
<path fill="none" stroke="midnightblue" d="M389.7,-168.32C380.68,-160.34 367.09,-148.31 356.18,-138.65"/>
<polygon fill="midnightblue" stroke="midnightblue" points="358.29,-135.84 348.48,-131.83 353.65,-141.08 358.29,-135.84"/>
</g>
<!-- Node15 -->
<g id="node15" class="node">
<title>Node15</title>
<g id="a_node15"><a xlink:title=" ">
<polygon fill="white" stroke="#bfbfbf" points="428,-112.5 428,-131.5 473,-131.5 473,-112.5 428,-112.5"/>
<text text-anchor="middle" x="450.5" y="-119.5" font-family="Helvetica,sans-Serif" font-size="10.00">stdio.h</text>
</a>
</g>
</g>
<!-- Node14&#45;&gt;Node15 -->
<g id="edge22" class="edge">
<title>Node14&#45;&gt;Node15</title>
<path fill="none" stroke="midnightblue" d="M407.92,-168.08C415.35,-160.22 426.35,-148.57 435.31,-139.08"/>
<polygon fill="midnightblue" stroke="midnightblue" points="437.91,-141.42 442.24,-131.75 432.82,-136.62 437.91,-141.42"/>
</g>
<!-- Node16 -->
<g id="node16" class="node">
<title>Node16</title>
<g id="a_node16"><a xlink:title=" ">
<polygon fill="white" stroke="#bfbfbf" points="491,-112.5 491,-131.5 536,-131.5 536,-112.5 491,-112.5"/>
<text text-anchor="middle" x="513.5" y="-119.5" font-family="Helvetica,sans-Serif" font-size="10.00">iosfwd</text>
</a>
</g>
</g>
<!-- Node14&#45;&gt;Node16 -->
<g id="edge23" class="edge">
<title>Node14&#45;&gt;Node16</title>
<path fill="none" stroke="midnightblue" d="M417.56,-168.44C436.07,-159.68 465.08,-145.94 486.36,-135.86"/>
<polygon fill="midnightblue" stroke="midnightblue" points="487.98,-138.96 495.52,-131.52 484.99,-132.63 487.98,-138.96"/>
</g>
</g>
</svg>
