<?xml version="1.0" encoding="UTF-8" standalone="no"?>
<!DOCTYPE svg PUBLIC "-//W3C//DTD SVG 1.1//EN"
 "http://www.w3.org/Graphics/SVG/1.1/DTD/svg11.dtd">
<!-- Generated by graphviz version 2.49.3 (20211027.1534)
 -->
<!-- Title: include/v8&#45;value.h Pages: 1 -->
<svg width="438pt" height="252pt"
 viewBox="0.00 0.00 437.50 252.00" xmlns="http://www.w3.org/2000/svg" xmlns:xlink="http://www.w3.org/1999/xlink">
<g id="graph0" class="graph" transform="scale(1 1) rotate(0) translate(4 248)">
<title>include/v8&#45;value.h</title>
<polygon fill="white" stroke="transparent" points="-4,4 -4,-248 433.5,-248 433.5,4 -4,4"/>
<!-- Node1 -->
<g id="node1" class="node">
<title>Node1</title>
<g id="a_node1"><a xlink:title=" ">
<polygon fill="#bfbfbf" stroke="black" points="230,-224.5 230,-243.5 325,-243.5 325,-224.5 230,-224.5"/>
<text text-anchor="middle" x="277.5" y="-231.5" font-family="Helvetica,sans-Serif" font-size="10.00">include/v8&#45;value.h</text>
</a>
</g>
</g>
<!-- Node2 -->
<g id="node2" class="node">
<title>Node2</title>
<g id="a_node2"><a xlink:href="v8-data_8h.html" target="_top" xlink:title=" ">
<polygon fill="white" stroke="black" points="249.5,-168.5 249.5,-187.5 305.5,-187.5 305.5,-168.5 249.5,-168.5"/>
<text text-anchor="middle" x="277.5" y="-175.5" font-family="Helvetica,sans-Serif" font-size="10.00">v8&#45;data.h</text>
</a>
</g>
</g>
<!-- Node1&#45;&gt;Node2 -->
<g id="edge1" class="edge">
<title>Node1&#45;&gt;Node2</title>
<path fill="none" stroke="midnightblue" d="M277.5,-224.08C277.5,-217.01 277.5,-206.86 277.5,-197.99"/>
<polygon fill="midnightblue" stroke="midnightblue" points="281,-197.75 277.5,-187.75 274,-197.75 281,-197.75"/>
</g>
<!-- Node3 -->
<g id="node3" class="node">
<title>Node3</title>
<g id="a_node3"><a xlink:href="v8-local-handle_8h.html" target="_top" xlink:title=" ">
<polygon fill="white" stroke="black" points="104,-112.5 104,-131.5 193,-131.5 193,-112.5 104,-112.5"/>
<text text-anchor="middle" x="148.5" y="-119.5" font-family="Helvetica,sans-Serif" font-size="10.00">v8&#45;local&#45;handle.h</text>
</a>
</g>
</g>
<!-- Node1&#45;&gt;Node3 -->
<g id="edge14" class="edge">
<title>Node1&#45;&gt;Node3</title>
<path fill="none" stroke="midnightblue" d="M261.68,-224.43C246.93,-216.09 224.7,-202.56 207.5,-188 190.13,-173.3 172.96,-153.64 161.65,-139.8"/>
<polygon fill="midnightblue" stroke="midnightblue" points="164.12,-137.28 155.13,-131.66 158.65,-141.65 164.12,-137.28"/>
</g>
<!-- Node6 -->
<g id="node6" class="node">
<title>Node6</title>
<g id="a_node6"><a xlink:href="v8-internal_8h.html" target="_top" xlink:title=" ">
<polygon fill="white" stroke="black" points="180,-56.5 180,-75.5 249,-75.5 249,-56.5 180,-56.5"/>
<text text-anchor="middle" x="214.5" y="-63.5" font-family="Helvetica,sans-Serif" font-size="10.00">v8&#45;internal.h</text>
</a>
</g>
</g>
<!-- Node1&#45;&gt;Node6 -->
<g id="edge13" class="edge">
<title>Node1&#45;&gt;Node6</title>
<path fill="none" stroke="midnightblue" d="M268.11,-224.27C259.6,-215.81 247.36,-202.21 240.5,-188 224.21,-154.26 218.05,-110.34 215.77,-85.77"/>
<polygon fill="midnightblue" stroke="midnightblue" points="219.25,-85.35 214.96,-75.66 212.27,-85.91 219.25,-85.35"/>
</g>
<!-- Node10 -->
<g id="node10" class="node">
<title>Node10</title>
<g id="a_node10"><a xlink:href="v8config_8h.html" target="_top" xlink:title=" ">
<polygon fill="white" stroke="black" points="369.5,-0.5 369.5,-19.5 429.5,-19.5 429.5,-0.5 369.5,-0.5"/>
<text text-anchor="middle" x="399.5" y="-7.5" font-family="Helvetica,sans-Serif" font-size="10.00">v8config.h</text>
</a>
</g>
</g>
<!-- Node1&#45;&gt;Node10 -->
<g id="edge18" class="edge">
<title>Node1&#45;&gt;Node10</title>
<path fill="none" stroke="midnightblue" d="M291.27,-224.46C314.47,-209.18 360.78,-174.75 380.5,-132 396.03,-98.33 399.22,-54.38 399.67,-29.79"/>
<polygon fill="midnightblue" stroke="midnightblue" points="403.17,-29.69 399.72,-19.67 396.17,-29.66 403.17,-29.69"/>
</g>
<!-- Node11 -->
<g id="node11" class="node">
<title>Node11</title>
<g id="a_node11"><a xlink:href="v8-maybe_8h.html" target="_top" xlink:title=" ">
<polygon fill="white" stroke="black" points="305.5,-112.5 305.5,-131.5 371.5,-131.5 371.5,-112.5 305.5,-112.5"/>
<text text-anchor="middle" x="338.5" y="-119.5" font-family="Helvetica,sans-Serif" font-size="10.00">v8&#45;maybe.h</text>
</a>
</g>
</g>
<!-- Node1&#45;&gt;Node11 -->
<g id="edge15" class="edge">
<title>Node1&#45;&gt;Node11</title>
<path fill="none" stroke="midnightblue" d="M286.12,-224.36C294.32,-215.75 306.55,-201.86 314.5,-188 322.92,-173.33 329.33,-155.16 333.4,-141.77"/>
<polygon fill="midnightblue" stroke="midnightblue" points="336.86,-142.4 336.26,-131.82 330.13,-140.46 336.86,-142.4"/>
</g>
<!-- Node2&#45;&gt;Node3 -->
<g id="edge2" class="edge">
<title>Node2&#45;&gt;Node3</title>
<path fill="none" stroke="midnightblue" d="M257.06,-168.44C235.83,-159.56 202.4,-145.56 178.25,-135.45"/>
<polygon fill="midnightblue" stroke="midnightblue" points="179.42,-132.15 168.84,-131.52 176.72,-138.61 179.42,-132.15"/>
</g>
<!-- Node2&#45;&gt;Node10 -->
<g id="edge12" class="edge">
<title>Node2&#45;&gt;Node10</title>
<path fill="none" stroke="midnightblue" d="M278.59,-168.45C280.54,-155.46 285.5,-130.36 296.5,-112 318.19,-75.81 355.94,-43.51 379.22,-25.65"/>
<polygon fill="midnightblue" stroke="midnightblue" points="381.47,-28.34 387.37,-19.54 377.27,-22.74 381.47,-28.34"/>
</g>
<!-- Node4 -->
<g id="node4" class="node">
<title>Node4</title>
<g id="a_node4"><a xlink:title=" ">
<polygon fill="white" stroke="#bfbfbf" points="0,-0.5 0,-19.5 51,-19.5 51,-0.5 0,-0.5"/>
<text text-anchor="middle" x="25.5" y="-7.5" font-family="Helvetica,sans-Serif" font-size="10.00">stddef.h</text>
</a>
</g>
</g>
<!-- Node3&#45;&gt;Node4 -->
<g id="edge3" class="edge">
<title>Node3&#45;&gt;Node4</title>
<path fill="none" stroke="midnightblue" d="M138.85,-112.37C118.1,-93.81 69.01,-49.91 42.76,-26.44"/>
<polygon fill="midnightblue" stroke="midnightblue" points="44.89,-23.65 35.11,-19.59 40.23,-28.87 44.89,-23.65"/>
</g>
<!-- Node5 -->
<g id="node5" class="node">
<title>Node5</title>
<g id="a_node5"><a xlink:title=" ">
<polygon fill="white" stroke="#bfbfbf" points="69.5,-0.5 69.5,-19.5 131.5,-19.5 131.5,-0.5 69.5,-0.5"/>
<text text-anchor="middle" x="100.5" y="-7.5" font-family="Helvetica,sans-Serif" font-size="10.00">type_traits</text>
</a>
</g>
</g>
<!-- Node3&#45;&gt;Node5 -->
<g id="edge4" class="edge">
<title>Node3&#45;&gt;Node5</title>
<path fill="none" stroke="midnightblue" d="M144.73,-112.37C136.92,-94.46 118.79,-52.92 108.33,-28.95"/>
<polygon fill="midnightblue" stroke="midnightblue" points="111.46,-27.36 104.25,-19.59 105.04,-30.16 111.46,-27.36"/>
</g>
<!-- Node3&#45;&gt;Node6 -->
<g id="edge5" class="edge">
<title>Node3&#45;&gt;Node6</title>
<path fill="none" stroke="midnightblue" d="M159.1,-112.32C168.96,-104.26 183.85,-92.08 195.72,-82.37"/>
<polygon fill="midnightblue" stroke="midnightblue" points="198.18,-84.88 203.7,-75.83 193.75,-79.46 198.18,-84.88"/>
</g>
<!-- Node6&#45;&gt;Node4 -->
<g id="edge6" class="edge">
<title>Node6&#45;&gt;Node4</title>
<path fill="none" stroke="midnightblue" d="M184.55,-56.44C151.02,-46.86 96.7,-31.34 61.04,-21.15"/>
<polygon fill="midnightblue" stroke="midnightblue" points="61.64,-17.69 51.06,-18.3 59.72,-24.42 61.64,-17.69"/>
</g>
<!-- Node6&#45;&gt;Node5 -->
<g id="edge9" class="edge">
<title>Node6&#45;&gt;Node5</title>
<path fill="none" stroke="midnightblue" d="M196.44,-56.44C177.93,-47.68 148.92,-33.94 127.64,-23.86"/>
<polygon fill="midnightblue" stroke="midnightblue" points="129.01,-20.63 118.48,-19.52 126.02,-26.96 129.01,-20.63"/>
</g>
<!-- Node7 -->
<g id="node7" class="node">
<title>Node7</title>
<g id="a_node7"><a xlink:title=" ">
<polygon fill="white" stroke="#bfbfbf" points="149.5,-0.5 149.5,-19.5 197.5,-19.5 197.5,-0.5 149.5,-0.5"/>
<text text-anchor="middle" x="173.5" y="-7.5" font-family="Helvetica,sans-Serif" font-size="10.00">stdint.h</text>
</a>
</g>
</g>
<!-- Node6&#45;&gt;Node7 -->
<g id="edge7" class="edge">
<title>Node6&#45;&gt;Node7</title>
<path fill="none" stroke="midnightblue" d="M207.73,-56.08C201.94,-48.46 193.44,-37.26 186.36,-27.94"/>
<polygon fill="midnightblue" stroke="midnightblue" points="188.98,-25.6 180.14,-19.75 183.4,-29.83 188.98,-25.6"/>
</g>
<!-- Node8 -->
<g id="node8" class="node">
<title>Node8</title>
<g id="a_node8"><a xlink:title=" ">
<polygon fill="white" stroke="#bfbfbf" points="215.5,-0.5 215.5,-19.5 263.5,-19.5 263.5,-0.5 215.5,-0.5"/>
<text text-anchor="middle" x="239.5" y="-7.5" font-family="Helvetica,sans-Serif" font-size="10.00">string.h</text>
</a>
</g>
</g>
<!-- Node6&#45;&gt;Node8 -->
<g id="edge8" class="edge">
<title>Node6&#45;&gt;Node8</title>
<path fill="none" stroke="midnightblue" d="M218.63,-56.08C222.01,-48.77 226.92,-38.18 231.12,-29.1"/>
<polygon fill="midnightblue" stroke="midnightblue" points="234.42,-30.3 235.45,-19.75 228.07,-27.36 234.42,-30.3"/>
</g>
<!-- Node9 -->
<g id="node9" class="node">
<title>Node9</title>
<g id="a_node9"><a xlink:href="v8-version_8h.html" target="_top" xlink:title=" ">
<polygon fill="white" stroke="black" points="282,-0.5 282,-19.5 351,-19.5 351,-0.5 282,-0.5"/>
<text text-anchor="middle" x="316.5" y="-7.5" font-family="Helvetica,sans-Serif" font-size="10.00">v8&#45;version.h</text>
</a>
</g>
</g>
<!-- Node6&#45;&gt;Node9 -->
<g id="edge10" class="edge">
<title>Node6&#45;&gt;Node9</title>
<path fill="none" stroke="midnightblue" d="M230.89,-56.32C247.17,-47.7 272.37,-34.36 291.22,-24.39"/>
<polygon fill="midnightblue" stroke="midnightblue" points="292.95,-27.43 300.15,-19.65 289.68,-21.24 292.95,-27.43"/>
</g>
<!-- Node6&#45;&gt;Node10 -->
<g id="edge11" class="edge">
<title>Node6&#45;&gt;Node10</title>
<path fill="none" stroke="midnightblue" d="M243.81,-56.44C275.34,-47.24 325.63,-32.56 360.49,-22.39"/>
<polygon fill="midnightblue" stroke="midnightblue" points="361.7,-25.68 370.32,-19.52 359.74,-18.96 361.7,-25.68"/>
</g>
<!-- Node11&#45;&gt;Node6 -->
<g id="edge16" class="edge">
<title>Node11&#45;&gt;Node6</title>
<path fill="none" stroke="midnightblue" d="M318.85,-112.44C298.54,-103.6 266.6,-89.69 243.4,-79.59"/>
<polygon fill="midnightblue" stroke="midnightblue" points="244.62,-76.3 234.06,-75.52 241.83,-82.72 244.62,-76.3"/>
</g>
<!-- Node11&#45;&gt;Node10 -->
<g id="edge17" class="edge">
<title>Node11&#45;&gt;Node10</title>
<path fill="none" stroke="midnightblue" d="M343.29,-112.37C353.26,-94.38 376.46,-52.55 389.73,-28.63"/>
<polygon fill="midnightblue" stroke="midnightblue" points="392.95,-30.03 394.74,-19.59 386.83,-26.64 392.95,-30.03"/>
</g>
</g>
</svg>
