<?xml version="1.0" encoding="UTF-8" standalone="no"?>
<!DOCTYPE svg PUBLIC "-//W3C//DTD SVG 1.1//EN"
 "http://www.w3.org/Graphics/SVG/1.1/DTD/svg11.dtd">
<!-- Generated by graphviz version 8.0.5 (20230430.1635)
 -->
<!-- Title: include/v8&#45;external&#45;memory&#45;accounter.h Pages: 1 -->
<svg width="2936pt" height="812pt"
 viewBox="0.00 0.00 2936.00 812.00" xmlns="http://www.w3.org/2000/svg" xmlns:xlink="http://www.w3.org/1999/xlink">
<g id="graph0" class="graph" transform="scale(1 1) rotate(0) translate(4 808)">
<title>include/v8&#45;external&#45;memory&#45;accounter.h</title>
<!-- Node1 -->
<g id="node1" class="node">
<title>Node1</title>
<g id="a_node1"><a xlink:title=" ">
<polygon fill="#999999" stroke="#666666" points="885.38,-804 778.62,-804 778.62,-773.5 885.38,-773.5 885.38,-804"/>
<text text-anchor="start" x="786.62" y="-790.5" font-family="Helvetica,sans-Serif" font-size="10.00">include/v8&#45;external</text>
<text text-anchor="middle" x="832" y="-779.25" font-family="Helvetica,sans-Serif" font-size="10.00">&#45;memory&#45;accounter.h</text>
</a>
</g>
</g>
<!-- Node2 -->
<g id="node2" class="node">
<title>Node2</title>
<g id="a_node2"><a xlink:title=" ">
<polygon fill="#e0e0e0" stroke="#999999" points="194.75,-74.5 147.25,-74.5 147.25,-55.25 194.75,-55.25 194.75,-74.5"/>
<text text-anchor="middle" x="171" y="-61" font-family="Helvetica,sans-Serif" font-size="10.00">stdint.h</text>
</a>
</g>
</g>
<!-- Node1&#45;&gt;Node2 -->
<g id="edge1" class="edge">
<title>Node1&#45;&gt;Node2</title>
<path fill="none" stroke="#63b8ff" d="M778.37,-786.06C594.37,-779.57 0,-752.49 0,-673.62 0,-673.62 0,-673.62 0,-395.38 0,-320.66 38,-306.34 38,-231.62 38,-231.62 38,-231.62 38,-174.38 38,-123.47 97.23,-92.19 136.64,-77.01"/>
<polygon fill="#63b8ff" stroke="#63b8ff" points="137.73,-79.97 145.91,-73.24 135.32,-73.39 137.73,-79.97"/>
</g>
<!-- Node3 -->
<g id="node3" class="node">
<title>Node3</title>
<g id="a_node3"><a xlink:href="v8-isolate_8h.html" target="_top" xlink:title=" ">
<polygon fill="white" stroke="#666666" points="1760.75,-737.5 1695.25,-737.5 1695.25,-718.25 1760.75,-718.25 1760.75,-737.5"/>
<text text-anchor="middle" x="1728" y="-724" font-family="Helvetica,sans-Serif" font-size="10.00">v8&#45;isolate.h</text>
</a>
</g>
</g>
<!-- Node1&#45;&gt;Node3 -->
<g id="edge2" class="edge">
<title>Node1&#45;&gt;Node3</title>
<path fill="none" stroke="#63b8ff" d="M885.7,-784.22C1048.52,-773.52 1534.65,-741.58 1683.92,-731.77"/>
<polygon fill="#63b8ff" stroke="#63b8ff" points="1684.14,-735.2 1693.89,-731.05 1683.68,-728.21 1684.14,-735.2"/>
</g>
<!-- Node3&#45;&gt;Node2 -->
<g id="edge4" class="edge">
<title>Node3&#45;&gt;Node2</title>
<path fill="none" stroke="#63b8ff" d="M1694.82,-726.89C1481.36,-726.84 305.44,-724.64 152,-682.25 96.02,-666.79 38,-676.45 38,-618.38 38,-618.38 38,-618.38 38,-561.12 38,-486.41 76,-472.09 76,-397.38 76,-397.38 76,-397.38 76,-174.38 76,-132.27 117,-98.66 145.13,-80.56"/>
<polygon fill="#63b8ff" stroke="#63b8ff" points="146.77,-83.04 153.45,-74.81 143.1,-77.08 146.77,-83.04"/>
</g>
<!-- Node4 -->
<g id="node4" class="node">
<title>Node4</title>
<g id="a_node4"><a xlink:title=" ">
<polygon fill="#e0e0e0" stroke="#999999" points="2483.25,-74.5 2432.75,-74.5 2432.75,-55.25 2483.25,-55.25 2483.25,-74.5"/>
<text text-anchor="middle" x="2458" y="-61" font-family="Helvetica,sans-Serif" font-size="10.00">stddef.h</text>
</a>
</g>
</g>
<!-- Node3&#45;&gt;Node4 -->
<g id="edge3" class="edge">
<title>Node3&#45;&gt;Node4</title>
<path fill="none" stroke="#63b8ff" d="M1761.09,-727.13C1943.1,-728.08 2814,-726.97 2814,-618.38 2814,-618.38 2814,-618.38 2814,-284.88 2814,-209.92 2582.13,-113.31 2492.65,-78.82"/>
<polygon fill="#63b8ff" stroke="#63b8ff" points="2494.06,-75.23 2483.47,-74.93 2491.56,-81.77 2494.06,-75.23"/>
</g>
<!-- Node5 -->
<g id="node5" class="node">
<title>Node5</title>
<g id="a_node5"><a xlink:title=" ">
<polygon fill="#e0e0e0" stroke="#999999" points="2245.25,-19.25 2194.75,-19.25 2194.75,0 2245.25,0 2245.25,-19.25"/>
<text text-anchor="middle" x="2220" y="-5.75" font-family="Helvetica,sans-Serif" font-size="10.00">memory</text>
</a>
</g>
</g>
<!-- Node3&#45;&gt;Node5 -->
<g id="edge5" class="edge">
<title>Node3&#45;&gt;Node5</title>
<path fill="none" stroke="#63b8ff" d="M1761.1,-726.39C1931.5,-723.78 2705.9,-710.45 2809,-682.25 2866.9,-666.42 2928,-678.4 2928,-618.38 2928,-618.38 2928,-618.38 2928,-119.12 2928,-86.32 2918.86,-72.57 2891,-55.25 2836.92,-21.64 2387.79,-12.91 2256.13,-11.06"/>
<polygon fill="#63b8ff" stroke="#63b8ff" points="2256.5,-7.55 2246.45,-10.91 2256.4,-14.55 2256.5,-7.55"/>
</g>
<!-- Node6 -->
<g id="node6" class="node">
<title>Node6</title>
<g id="a_node6"><a xlink:title=" ">
<polygon fill="#e0e0e0" stroke="#999999" points="2882,-74.5 2842,-74.5 2842,-55.25 2882,-55.25 2882,-74.5"/>
<text text-anchor="middle" x="2862" y="-61" font-family="Helvetica,sans-Serif" font-size="10.00">string</text>
</a>
</g>
</g>
<!-- Node3&#45;&gt;Node6 -->
<g id="edge6" class="edge">
<title>Node3&#45;&gt;Node6</title>
<path fill="none" stroke="#63b8ff" d="M1761.11,-726.81C1911.73,-726.29 2533.07,-721.75 2723,-682.25 2800.8,-666.07 2890,-697.84 2890,-618.38 2890,-618.38 2890,-618.38 2890,-174.38 2890,-142.22 2878.33,-106.35 2870.05,-84.98"/>
<polygon fill="#63b8ff" stroke="#63b8ff" points="2873,-83.92 2866.01,-75.96 2866.51,-86.54 2873,-83.92"/>
</g>
<!-- Node7 -->
<g id="node7" class="node">
<title>Node7</title>
<g id="a_node7"><a xlink:title=" ">
<polygon fill="#e0e0e0" stroke="#999999" points="788.25,-240.25 749.75,-240.25 749.75,-221 788.25,-221 788.25,-240.25"/>
<text text-anchor="middle" x="769" y="-226.75" font-family="Helvetica,sans-Serif" font-size="10.00">utility</text>
</a>
</g>
</g>
<!-- Node3&#45;&gt;Node7 -->
<g id="edge7" class="edge">
<title>Node3&#45;&gt;Node7</title>
<path fill="none" stroke="#63b8ff" d="M1695.02,-727.14C1512.67,-728.2 636,-727.62 636,-618.38 636,-618.38 636,-618.38 636,-450.62 636,-363.32 714.17,-281.16 750.66,-247.57"/>
<polygon fill="#63b8ff" stroke="#63b8ff" points="752.47,-250.74 757.56,-241.45 747.79,-245.54 752.47,-250.74"/>
</g>
<!-- Node8 -->
<g id="node8" class="node">
<title>Node8</title>
<g id="a_node8"><a xlink:href="common_8h.html" target="_top" xlink:title=" ">
<polygon fill="white" stroke="#666666" points="564.12,-516.5 473.88,-516.5 473.88,-497.25 564.12,-497.25 564.12,-516.5"/>
<text text-anchor="middle" x="519" y="-503" font-family="Helvetica,sans-Serif" font-size="10.00">cppgc/common.h</text>
</a>
</g>
</g>
<!-- Node3&#45;&gt;Node8 -->
<g id="edge8" class="edge">
<title>Node3&#45;&gt;Node8</title>
<path fill="none" stroke="#63b8ff" d="M1694.96,-726.8C1508.06,-726.24 590.07,-721.49 546,-682.25 502.01,-643.08 508.87,-564.39 515.01,-527.63"/>
<polygon fill="#63b8ff" stroke="#63b8ff" points="518.62,-528.36 516.99,-517.9 511.73,-527.09 518.62,-528.36"/>
</g>
<!-- Node9 -->
<g id="node9" class="node">
<title>Node9</title>
<g id="a_node9"><a xlink:href="v8config_8h.html" target="_top" xlink:title=" ">
<polygon fill="white" stroke="#666666" points="1067.75,-74.5 1008.25,-74.5 1008.25,-55.25 1067.75,-55.25 1067.75,-74.5"/>
<text text-anchor="middle" x="1038" y="-61" font-family="Helvetica,sans-Serif" font-size="10.00">v8config.h</text>
</a>
</g>
</g>
<!-- Node3&#45;&gt;Node9 -->
<g id="edge158" class="edge">
<title>Node3&#45;&gt;Node9</title>
<path fill="none" stroke="#63b8ff" d="M1694.78,-727.02C1474.68,-727.83 233.52,-730.29 171,-682.25 147.51,-664.2 152,-647.99 152,-618.38 152,-618.38 152,-618.38 152,-340.12 152,-199.4 238.16,-159.72 370,-110.5 485.87,-67.24 870.77,-65.07 997.3,-65.56"/>
<polygon fill="#63b8ff" stroke="#63b8ff" points="997.02,-69.07 1007.03,-65.61 997.05,-62.07 997.02,-69.07"/>
</g>
<!-- Node10 -->
<g id="node10" class="node">
<title>Node10</title>
<g id="a_node10"><a xlink:href="v8-array-buffer_8h.html" target="_top" xlink:title=" ">
<polygon fill="white" stroke="#666666" points="2164.5,-516.5 2079.5,-516.5 2079.5,-497.25 2164.5,-497.25 2164.5,-516.5"/>
<text text-anchor="middle" x="2122" y="-503" font-family="Helvetica,sans-Serif" font-size="10.00">v8&#45;array&#45;buffer.h</text>
</a>
</g>
</g>
<!-- Node3&#45;&gt;Node10 -->
<g id="edge11" class="edge">
<title>Node3&#45;&gt;Node10</title>
<path fill="none" stroke="#63b8ff" d="M1761.14,-726.45C1807.13,-724.56 1891.68,-716.25 1954,-682.25 2026.18,-642.86 2086.14,-561.86 2110.41,-525.83"/>
<polygon fill="#63b8ff" stroke="#63b8ff" points="2113.7,-528.21 2116.29,-517.94 2107.86,-524.35 2113.7,-528.21"/>
</g>
<!-- Node11 -->
<g id="node11" class="node">
<title>Node11</title>
<g id="a_node11"><a xlink:href="v8-local-handle_8h.html" target="_top" xlink:title=" ">
<polygon fill="white" stroke="#666666" points="1832.38,-240.25 1743.62,-240.25 1743.62,-221 1832.38,-221 1832.38,-240.25"/>
<text text-anchor="middle" x="1788" y="-226.75" font-family="Helvetica,sans-Serif" font-size="10.00">v8&#45;local&#45;handle.h</text>
</a>
</g>
</g>
<!-- Node3&#45;&gt;Node11 -->
<g id="edge137" class="edge">
<title>Node3&#45;&gt;Node11</title>
<path fill="none" stroke="#63b8ff" d="M1761.14,-721.58C1811.62,-711.42 1902,-684.06 1902,-618.38 1902,-618.38 1902,-618.38 1902,-340.12 1902,-294.49 1853.48,-262.22 1819.75,-245.3"/>
<polygon fill="#63b8ff" stroke="#63b8ff" points="1821.78,-241.91 1811.25,-240.74 1818.75,-248.22 1821.78,-241.91"/>
</g>
<!-- Node15 -->
<g id="node15" class="node">
<title>Node15</title>
<g id="a_node15"><a xlink:href="v8-internal_8h.html" target="_top" xlink:title=" ">
<polygon fill="white" stroke="#666666" points="1895.25,-129.75 1826.75,-129.75 1826.75,-110.5 1895.25,-110.5 1895.25,-129.75"/>
<text text-anchor="middle" x="1861" y="-116.25" font-family="Helvetica,sans-Serif" font-size="10.00">v8&#45;internal.h</text>
</a>
</g>
</g>
<!-- Node3&#45;&gt;Node15 -->
<g id="edge136" class="edge">
<title>Node3&#45;&gt;Node15</title>
<path fill="none" stroke="#63b8ff" d="M1761.19,-725.63C1906.34,-719.74 2478,-691.89 2478,-618.38 2478,-618.38 2478,-618.38 2478,-505.88 2478,-449.87 2156.17,-190.63 2106,-165.75 2041.54,-133.78 1957.36,-124.52 1906.33,-121.95"/>
<polygon fill="#63b8ff" stroke="#63b8ff" points="1906.49,-118.41 1896.34,-121.48 1906.18,-125.4 1906.49,-118.41"/>
</g>
<!-- Node41 -->
<g id="node28" class="node">
<title>Node41</title>
<g id="a_node28"><a xlink:href="v8-persistent-handle_8h.html" target="_top" xlink:title=" ">
<polygon fill="white" stroke="#666666" points="1531.62,-295.5 1420.38,-295.5 1420.38,-276.25 1531.62,-276.25 1531.62,-295.5"/>
<text text-anchor="middle" x="1476" y="-282" font-family="Helvetica,sans-Serif" font-size="10.00">v8&#45;persistent&#45;handle.h</text>
</a>
</g>
</g>
<!-- Node3&#45;&gt;Node41 -->
<g id="edge139" class="edge">
<title>Node3&#45;&gt;Node41</title>
<path fill="none" stroke="#63b8ff" d="M1731.06,-718C1737.1,-699.63 1750,-656.05 1750,-618.38 1750,-618.38 1750,-618.38 1750,-505.88 1750,-389.12 1596.31,-324.41 1519.14,-299.28"/>
<polygon fill="#63b8ff" stroke="#63b8ff" points="1520.37,-295.68 1509.78,-295.99 1518.25,-302.35 1520.37,-295.68"/>
</g>
<!-- Node44 -->
<g id="node30" class="node">
<title>Node44</title>
<g id="a_node30"><a xlink:href="v8-primitive_8h.html" target="_top" xlink:title=" ">
<polygon fill="white" stroke="#666666" points="1307.88,-406 1234.12,-406 1234.12,-386.75 1307.88,-386.75 1307.88,-406"/>
<text text-anchor="middle" x="1271" y="-392.5" font-family="Helvetica,sans-Serif" font-size="10.00">v8&#45;primitive.h</text>
</a>
</g>
</g>
<!-- Node3&#45;&gt;Node44 -->
<g id="edge140" class="edge">
<title>Node3&#45;&gt;Node44</title>
<path fill="none" stroke="#63b8ff" d="M1695.06,-727.54C1575.02,-729.11 1168,-726.44 1168,-618.38 1168,-618.38 1168,-618.38 1168,-505.88 1168,-462.28 1212.27,-429.21 1242.77,-411.61"/>
<polygon fill="#63b8ff" stroke="#63b8ff" points="1244.05,-414.34 1251.11,-406.44 1240.66,-408.22 1244.05,-414.34"/>
</g>
<!-- Node45 -->
<g id="node31" class="node">
<title>Node45</title>
<g id="a_node31"><a xlink:href="v8-data_8h.html" target="_top" xlink:title=" ">
<polygon fill="white" stroke="#666666" points="1127.88,-295.5 1072.12,-295.5 1072.12,-276.25 1127.88,-276.25 1127.88,-295.5"/>
<text text-anchor="middle" x="1100" y="-282" font-family="Helvetica,sans-Serif" font-size="10.00">v8&#45;data.h</text>
</a>
</g>
</g>
<!-- Node3&#45;&gt;Node45 -->
<g id="edge106" class="edge">
<title>Node3&#45;&gt;Node45</title>
<path fill="none" stroke="#63b8ff" d="M1694.9,-725.92C1584.87,-722.51 1235.92,-709.62 1194,-682.25 1066.36,-598.92 1087.21,-374.63 1096.83,-306.67"/>
<polygon fill="#63b8ff" stroke="#63b8ff" points="1100.43,-307.27 1098.45,-296.86 1093.5,-306.23 1100.43,-307.27"/>
</g>
<!-- Node50 -->
<g id="node39" class="node">
<title>Node50</title>
<g id="a_node39"><a xlink:href="v8-callbacks_8h.html" target="_top" xlink:title=" ">
<polygon fill="white" stroke="#666666" points="1704.12,-571.75 1625.88,-571.75 1625.88,-552.5 1704.12,-552.5 1704.12,-571.75"/>
<text text-anchor="middle" x="1665" y="-558.25" font-family="Helvetica,sans-Serif" font-size="10.00">v8&#45;callbacks.h</text>
</a>
</g>
</g>
<!-- Node3&#45;&gt;Node50 -->
<g id="edge94" class="edge">
<title>Node3&#45;&gt;Node50</title>
<path fill="none" stroke="#63b8ff" d="M1724.61,-718.07C1714.74,-692.42 1685.84,-617.3 1672.24,-581.94"/>
<polygon fill="#63b8ff" stroke="#63b8ff" points="1675.26,-581.05 1668.4,-572.97 1668.73,-583.56 1675.26,-581.05"/>
</g>
<!-- Node53 -->
<g id="node42" class="node">
<title>Node53</title>
<g id="a_node42"><a xlink:href="v8-debug_8h.html" target="_top" xlink:title=" ">
<polygon fill="white" stroke="#666666" points="243.62,-682.25 180.38,-682.25 180.38,-663 243.62,-663 243.62,-682.25"/>
<text text-anchor="middle" x="212" y="-668.75" font-family="Helvetica,sans-Serif" font-size="10.00">v8&#45;debug.h</text>
</a>
</g>
</g>
<!-- Node3&#45;&gt;Node53 -->
<g id="edge107" class="edge">
<title>Node3&#45;&gt;Node53</title>
<path fill="none" stroke="#63b8ff" d="M1694.93,-726.57C1504.9,-724.7 550.08,-713.87 258,-682.25 256.87,-682.13 255.72,-681.99 254.57,-681.85"/>
<polygon fill="#63b8ff" stroke="#63b8ff" points="255.48,-678.3 245.08,-680.3 254.46,-685.22 255.48,-678.3"/>
</g>
<!-- Node58 -->
<g id="node44" class="node">
<title>Node58</title>
<g id="a_node44"><a xlink:href="v8-embedder-heap_8h.html" target="_top" xlink:title=" ">
<polygon fill="white" stroke="#666666" points="587.88,-350.75 484.12,-350.75 484.12,-331.5 587.88,-331.5 587.88,-350.75"/>
<text text-anchor="middle" x="536" y="-337.25" font-family="Helvetica,sans-Serif" font-size="10.00">v8&#45;embedder&#45;heap.h</text>
</a>
</g>
</g>
<!-- Node3&#45;&gt;Node58 -->
<g id="edge121" class="edge">
<title>Node3&#45;&gt;Node58</title>
<path fill="none" stroke="#63b8ff" d="M1694.82,-726.65C1515.09,-725.26 664.69,-716.89 622,-682.25 615.55,-677.01 557.53,-433.23 540.61,-361.67"/>
<polygon fill="#63b8ff" stroke="#63b8ff" points="543.81,-360.99 538.1,-352.06 537,-362.6 543.81,-360.99"/>
</g>
<!-- Node59 -->
<g id="node45" class="node">
<title>Node59</title>
<g id="a_node45"><a xlink:href="v8-exception_8h.html" target="_top" xlink:title=" ">
<polygon fill="white" stroke="#666666" points="1856.12,-516.5 1777.88,-516.5 1777.88,-497.25 1856.12,-497.25 1856.12,-516.5"/>
<text text-anchor="middle" x="1817" y="-503" font-family="Helvetica,sans-Serif" font-size="10.00">v8&#45;exception.h</text>
</a>
</g>
</g>
<!-- Node3&#45;&gt;Node59 -->
<g id="edge124" class="edge">
<title>Node3&#45;&gt;Node59</title>
<path fill="none" stroke="#63b8ff" d="M1736.86,-718.05C1744.96,-709.54 1756.73,-695.97 1764,-682.25 1791.82,-629.7 1807.36,-560.34 1813.65,-527.16"/>
<polygon fill="#63b8ff" stroke="#63b8ff" points="1817.21,-528.14 1815.56,-517.68 1810.33,-526.89 1817.21,-528.14"/>
</g>
<!-- Node60 -->
<g id="node46" class="node">
<title>Node60</title>
<g id="a_node46"><a xlink:href="v8-function-callback_8h.html" target="_top" xlink:title=" ">
<polygon fill="white" stroke="#666666" points="2163.25,-461.25 2052.75,-461.25 2052.75,-442 2163.25,-442 2163.25,-461.25"/>
<text text-anchor="middle" x="2108" y="-447.75" font-family="Helvetica,sans-Serif" font-size="10.00">v8&#45;function&#45;callback.h</text>
</a>
</g>
</g>
<!-- Node3&#45;&gt;Node60 -->
<g id="edge129" class="edge">
<title>Node3&#45;&gt;Node60</title>
<path fill="none" stroke="#63b8ff" d="M1761.09,-722.8C1808.67,-716.32 1893.22,-702.32 1916,-682.25 1938.76,-662.2 1940,-648.7 1940,-618.38 1940,-618.38 1940,-618.38 1940,-561.12 1940,-506.94 2002.42,-478.5 2051.17,-464.55"/>
<polygon fill="#63b8ff" stroke="#63b8ff" points="2051.91,-467.7 2060.65,-461.71 2050.08,-460.95 2051.91,-467.7"/>
</g>
<!-- Node61 -->
<g id="node47" class="node">
<title>Node61</title>
<g id="a_node47"><a xlink:href="v8-microtask_8h.html" target="_top" xlink:title=" ">
<polygon fill="white" stroke="#666666" points="2085.88,-682.25 2006.12,-682.25 2006.12,-663 2085.88,-663 2085.88,-682.25"/>
<text text-anchor="middle" x="2046" y="-668.75" font-family="Helvetica,sans-Serif" font-size="10.00">v8&#45;microtask.h</text>
</a>
</g>
</g>
<!-- Node3&#45;&gt;Node61 -->
<g id="edge138" class="edge">
<title>Node3&#45;&gt;Node61</title>
<path fill="none" stroke="#63b8ff" d="M1761.13,-721.33C1816.81,-712 1929.49,-693.13 1995.22,-682.13"/>
<polygon fill="#63b8ff" stroke="#63b8ff" points="1995.46,-685.47 2004.74,-680.37 1994.3,-678.57 1995.46,-685.47"/>
</g>
<!-- Node62 -->
<g id="node48" class="node">
<title>Node62</title>
<g id="a_node48"><a xlink:href="v8-statistics_8h.html" target="_top" xlink:title=" ">
<polygon fill="white" stroke="#666666" points="802.38,-571.75 725.62,-571.75 725.62,-552.5 802.38,-552.5 802.38,-571.75"/>
<text text-anchor="middle" x="764" y="-558.25" font-family="Helvetica,sans-Serif" font-size="10.00">v8&#45;statistics.h</text>
</a>
</g>
</g>
<!-- Node3&#45;&gt;Node62 -->
<g id="edge141" class="edge">
<title>Node3&#45;&gt;Node62</title>
<path fill="none" stroke="#63b8ff" d="M1694.96,-726.1C1569.45,-722.97 1122.29,-710.07 983,-682.25 909.64,-667.6 886.76,-667.72 824,-627 804.74,-614.5 787.33,-594.54 776.29,-580.25"/>
<polygon fill="#63b8ff" stroke="#63b8ff" points="778.78,-578.74 770,-572.82 773.17,-582.93 778.78,-578.74"/>
</g>
<!-- Node63 -->
<g id="node49" class="node">
<title>Node63</title>
<g id="a_node49"><a xlink:href="v8-unwinder_8h.html" target="_top" xlink:title=" ">
<polygon fill="white" stroke="#666666" points="2450,-350.75 2374,-350.75 2374,-331.5 2450,-331.5 2450,-350.75"/>
<text text-anchor="middle" x="2412" y="-337.25" font-family="Helvetica,sans-Serif" font-size="10.00">v8&#45;unwinder.h</text>
</a>
</g>
</g>
<!-- Node3&#45;&gt;Node63 -->
<g id="edge151" class="edge">
<title>Node3&#45;&gt;Node63</title>
<path fill="none" stroke="#63b8ff" d="M1760.84,-726.35C1898.47,-723.99 2424.88,-712.98 2492,-682.25 2527.97,-665.78 2554,-657.94 2554,-618.38 2554,-618.38 2554,-618.38 2554,-561.12 2554,-472.24 2470.62,-390.98 2431.65,-357.86"/>
<polygon fill="#63b8ff" stroke="#63b8ff" points="2434.55,-354.89 2424.62,-351.18 2430.07,-360.27 2434.55,-354.89"/>
</g>
<!-- Node8&#45;&gt;Node9 -->
<g id="edge9" class="edge">
<title>Node8&#45;&gt;Node9</title>
<path fill="none" stroke="#63b8ff" d="M514.47,-496.96C500.02,-467.69 456,-371.54 456,-286.88 456,-286.88 456,-286.88 456,-174.38 456,-135.73 480.29,-127.49 515,-110.5 599.69,-69.06 889.18,-65.46 997.05,-65.6"/>
<polygon fill="#63b8ff" stroke="#63b8ff" points="996.79,-69.1 1006.8,-65.62 996.81,-62.1 996.79,-69.1"/>
</g>
<!-- Node9&#45;&gt;Node5 -->
<g id="edge10" class="edge">
<title>Node9&#45;&gt;Node5</title>
<path fill="none" stroke="#63b8ff" d="M1068.11,-62.52C1230.98,-55.18 2005.9,-20.27 2183.62,-12.26"/>
<polygon fill="#63b8ff" stroke="#63b8ff" points="2183.62,-15.72 2193.45,-11.78 2183.3,-8.73 2183.62,-15.72"/>
</g>
<!-- Node10&#45;&gt;Node4 -->
<g id="edge12" class="edge">
<title>Node10&#45;&gt;Node4</title>
<path fill="none" stroke="#63b8ff" d="M2164.83,-502.04C2206.64,-497.01 2271.2,-485.73 2322,-461.25 2392.47,-427.29 2408.1,-410.15 2459,-350.75 2477.47,-329.2 2483.64,-322.9 2491,-295.5 2501.67,-255.79 2474.32,-133.33 2462.82,-85.4"/>
<polygon fill="#63b8ff" stroke="#63b8ff" points="2466.03,-84.8 2460.27,-75.92 2459.23,-86.46 2466.03,-84.8"/>
</g>
<!-- Node10&#45;&gt;Node5 -->
<g id="edge13" class="edge">
<title>Node10&#45;&gt;Node5</title>
<path fill="none" stroke="#63b8ff" d="M2164.64,-503.11C2212.42,-498.8 2291.37,-487.96 2354,-461.25 2493.91,-401.58 2523.93,-333.68 2556,-185 2569.56,-122.15 2549.31,-84.41 2492,-55.25 2414.75,-15.95 2310.66,-9.92 2256.38,-9.76"/>
<polygon fill="#63b8ff" stroke="#63b8ff" points="2256.56,-6.26 2246.57,-9.8 2256.59,-13.26 2256.56,-6.26"/>
</g>
<!-- Node10&#45;&gt;Node9 -->
<g id="edge93" class="edge">
<title>Node10&#45;&gt;Node9</title>
<path fill="none" stroke="#63b8ff" d="M2079.08,-504.08C1930.02,-497.75 1440.17,-476.03 1371,-461.25 1303.15,-446.75 1273.35,-455.76 1225,-406 1164.37,-343.6 1202.84,-297.28 1161,-221 1130.57,-165.53 1080.31,-109.63 1054.47,-82.59"/>
<polygon fill="#63b8ff" stroke="#63b8ff" points="1057.46,-80.62 1047.99,-75.87 1052.43,-85.49 1057.46,-80.62"/>
</g>
<!-- Node10&#45;&gt;Node11 -->
<g id="edge14" class="edge">
<title>Node10&#45;&gt;Node11</title>
<path fill="none" stroke="#63b8ff" d="M2079.33,-499.59C2025.54,-488.97 1940,-461.93 1940,-397.38 1940,-397.38 1940,-397.38 1940,-340.12 1940,-309.8 1937.7,-297.44 1916,-276.25 1896.4,-257.12 1868.17,-246.16 1843.21,-239.89"/>
<polygon fill="#63b8ff" stroke="#63b8ff" points="1844.27,-236.32 1833.74,-237.49 1842.7,-243.14 1844.27,-236.32"/>
</g>
<!-- Node21 -->
<g id="node21" class="node">
<title>Node21</title>
<g id="a_node21"><a xlink:href="v8-memory-span_8h.html" target="_top" xlink:title=" ">
<polygon fill="white" stroke="#666666" points="1723.75,-129.75 1628.25,-129.75 1628.25,-110.5 1723.75,-110.5 1723.75,-129.75"/>
<text text-anchor="middle" x="1676" y="-116.25" font-family="Helvetica,sans-Serif" font-size="10.00">v8&#45;memory&#45;span.h</text>
</a>
</g>
</g>
<!-- Node10&#45;&gt;Node21 -->
<g id="edge31" class="edge">
<title>Node10&#45;&gt;Node21</title>
<path fill="none" stroke="#63b8ff" d="M2137.92,-496.83C2149.77,-489.09 2165.06,-476.75 2172,-461.25 2186.93,-427.9 2217.77,-419.69 2155,-331.5 2100.71,-255.22 1823.19,-165.36 1717.21,-133.26"/>
<polygon fill="#63b8ff" stroke="#63b8ff" points="1718.5,-129.7 1707.91,-130.16 1716.48,-136.4 1718.5,-129.7"/>
</g>
<!-- Node24 -->
<g id="node24" class="node">
<title>Node24</title>
<g id="a_node24"><a xlink:href="v8-object_8h.html" target="_top" xlink:title=" ">
<polygon fill="white" stroke="#666666" points="1443.62,-461.25 1380.38,-461.25 1380.38,-442 1443.62,-442 1443.62,-461.25"/>
<text text-anchor="middle" x="1412" y="-447.75" font-family="Helvetica,sans-Serif" font-size="10.00">v8&#45;object.h</text>
</a>
</g>
</g>
<!-- Node10&#45;&gt;Node24 -->
<g id="edge38" class="edge">
<title>Node10&#45;&gt;Node24</title>
<path fill="none" stroke="#63b8ff" d="M2079.19,-502.66C1952.59,-493.17 1581.01,-465.3 1454.64,-455.82"/>
<polygon fill="#63b8ff" stroke="#63b8ff" points="1455.12,-452.27 1444.88,-455.02 1454.59,-459.25 1455.12,-452.27"/>
</g>
<!-- Node31 -->
<g id="node36" class="node">
<title>Node31</title>
<g id="a_node36"><a xlink:href="v8-platform_8h.html" target="_top" xlink:title=" ">
<polygon fill="#fff0f0" stroke="red" points="2748.12,-129.75 2675.88,-129.75 2675.88,-110.5 2748.12,-110.5 2748.12,-129.75"/>
<text text-anchor="middle" x="2712" y="-116.25" font-family="Helvetica,sans-Serif" font-size="10.00">v8&#45;platform.h</text>
</a>
</g>
</g>
<!-- Node10&#45;&gt;Node31 -->
<g id="edge85" class="edge">
<title>Node10&#45;&gt;Node31</title>
<path fill="none" stroke="#63b8ff" d="M2164.82,-506.71C2229.74,-506.55 2355.88,-500.57 2454,-461.25 2493.29,-445.51 2654.79,-329.09 2676,-295.5 2707.16,-246.15 2711.94,-174.74 2712.3,-140.66"/>
<polygon fill="#63b8ff" stroke="#63b8ff" points="2715.8,-140.89 2712.28,-130.9 2708.8,-140.91 2715.8,-140.89"/>
</g>
<!-- Node11&#45;&gt;Node4 -->
<g id="edge15" class="edge">
<title>Node11&#45;&gt;Node4</title>
<path fill="none" stroke="#63b8ff" d="M1832.62,-221.43C1877.37,-213.02 1948.2,-199.19 2009,-185 2163.58,-148.92 2345.87,-97.91 2421.89,-76.25"/>
<polygon fill="#63b8ff" stroke="#63b8ff" points="2422.67,-79.38 2431.32,-73.27 2420.74,-72.65 2422.67,-79.38"/>
</g>
<!-- Node12 -->
<g id="node12" class="node">
<title>Node12</title>
<g id="a_node12"><a xlink:title=" ">
<polygon fill="#e0e0e0" stroke="#999999" points="1583.5,-74.5 1522.5,-74.5 1522.5,-55.25 1583.5,-55.25 1583.5,-74.5"/>
<text text-anchor="middle" x="1553" y="-61" font-family="Helvetica,sans-Serif" font-size="10.00">type_traits</text>
</a>
</g>
</g>
<!-- Node11&#45;&gt;Node12 -->
<g id="edge16" class="edge">
<title>Node11&#45;&gt;Node12</title>
<path fill="none" stroke="#63b8ff" d="M1745.5,-220.55C1719.34,-213.62 1685.96,-202.28 1660,-185 1618.32,-157.26 1582.33,-109.6 1564.65,-83.77"/>
<polygon fill="#63b8ff" stroke="#63b8ff" points="1567.08,-82.1 1558.61,-75.73 1561.26,-85.99 1567.08,-82.1"/>
</g>
<!-- Node13 -->
<g id="node13" class="node">
<title>Node13</title>
<g id="a_node13"><a xlink:title=" ">
<polygon fill="#e0e0e0" stroke="#999999" points="427.5,-185 384.5,-185 384.5,-165.75 427.5,-165.75 427.5,-185"/>
<text text-anchor="middle" x="406" y="-171.5" font-family="Helvetica,sans-Serif" font-size="10.00">vector</text>
</a>
</g>
</g>
<!-- Node11&#45;&gt;Node13 -->
<g id="edge17" class="edge">
<title>Node11&#45;&gt;Node13</title>
<path fill="none" stroke="#63b8ff" d="M1743.19,-227.9C1530.1,-219.69 621.92,-184.69 438.41,-177.62"/>
<polygon fill="#63b8ff" stroke="#63b8ff" points="438.74,-174.1 428.61,-177.21 438.47,-181.09 438.74,-174.1"/>
</g>
<!-- Node14 -->
<g id="node14" class="node">
<title>Node14</title>
<g id="a_node14"><a xlink:href="v8-handle-base_8h.html" target="_top" xlink:title=" ">
<polygon fill="white" stroke="#666666" points="1981.75,-185 1892.25,-185 1892.25,-165.75 1981.75,-165.75 1981.75,-185"/>
<text text-anchor="middle" x="1937" y="-171.5" font-family="Helvetica,sans-Serif" font-size="10.00">v8&#45;handle&#45;base.h</text>
</a>
</g>
</g>
<!-- Node11&#45;&gt;Node14 -->
<g id="edge18" class="edge">
<title>Node11&#45;&gt;Node14</title>
<path fill="none" stroke="#63b8ff" d="M1813.28,-220.59C1837.46,-211.95 1874.18,-198.82 1901.34,-189.12"/>
<polygon fill="#63b8ff" stroke="#63b8ff" points="1902.36,-192.11 1910.6,-185.45 1900.01,-185.52 1902.36,-192.11"/>
</g>
<!-- Node11&#45;&gt;Node15 -->
<g id="edge30" class="edge">
<title>Node11&#45;&gt;Node15</title>
<path fill="none" stroke="#63b8ff" d="M1832.48,-226.22C1886.11,-221.08 1971.5,-209.25 1991,-185 2017.39,-152.18 1953.63,-134.97 1906.37,-126.99"/>
<polygon fill="#63b8ff" stroke="#63b8ff" points="1907.1,-123.4 1896.67,-125.29 1906,-130.31 1907.1,-123.4"/>
</g>
<!-- Node14&#45;&gt;Node15 -->
<g id="edge19" class="edge">
<title>Node14&#45;&gt;Node15</title>
<path fill="none" stroke="#63b8ff" d="M1924.11,-165.34C1912.75,-157.39 1895.98,-145.64 1882.59,-136.25"/>
<polygon fill="#63b8ff" stroke="#63b8ff" points="1885.15,-133.07 1874.96,-130.2 1881.14,-138.81 1885.15,-133.07"/>
</g>
<!-- Node15&#45;&gt;Node2 -->
<g id="edge21" class="edge">
<title>Node15&#45;&gt;Node2</title>
<path fill="none" stroke="#63b8ff" d="M1826.25,-116.42C1800.52,-114.5 1764.59,-112.02 1733,-110.5 1121.4,-81.17 374.1,-68.87 205.77,-66.37"/>
<polygon fill="#63b8ff" stroke="#63b8ff" points="205.92,-62.86 195.87,-66.21 205.82,-69.86 205.92,-62.86"/>
</g>
<!-- Node15&#45;&gt;Node4 -->
<g id="edge20" class="edge">
<title>Node15&#45;&gt;Node4</title>
<path fill="none" stroke="#63b8ff" d="M1895.55,-112.51C1900.06,-111.76 1904.63,-111.07 1909,-110.5 2101.36,-85.46 2333.59,-72.08 2421.72,-67.61"/>
<polygon fill="#63b8ff" stroke="#63b8ff" points="2421.65,-71.07 2431.46,-67.07 2421.3,-64.08 2421.65,-71.07"/>
</g>
<!-- Node15&#45;&gt;Node5 -->
<g id="edge26" class="edge">
<title>Node15&#45;&gt;Node5</title>
<path fill="none" stroke="#63b8ff" d="M1860.82,-110.09C1861.07,-96.02 1863.8,-69.06 1880,-55.25 1925.07,-16.82 2105.46,-11.17 2183.6,-10.56"/>
<polygon fill="#63b8ff" stroke="#63b8ff" points="2183.38,-14.06 2193.36,-10.5 2183.34,-7.06 2183.38,-14.06"/>
</g>
<!-- Node15&#45;&gt;Node9 -->
<g id="edge29" class="edge">
<title>Node15&#45;&gt;Node9</title>
<path fill="none" stroke="#63b8ff" d="M1826.5,-116.77C1800.74,-115.02 1764.67,-112.58 1733,-110.5 1484.76,-94.17 1186.6,-75.26 1079.12,-68.47"/>
<polygon fill="#63b8ff" stroke="#63b8ff" points="1079.35,-64.91 1069.15,-67.78 1078.91,-71.9 1079.35,-64.91"/>
</g>
<!-- Node15&#45;&gt;Node12 -->
<g id="edge28" class="edge">
<title>Node15&#45;&gt;Node12</title>
<path fill="none" stroke="#63b8ff" d="M1826.5,-114C1777.17,-106.55 1683.39,-91.9 1594.19,-74.85"/>
<polygon fill="#63b8ff" stroke="#63b8ff" points="1595.11,-71.26 1584.62,-72.81 1593.78,-78.14 1595.11,-71.26"/>
</g>
<!-- Node16 -->
<g id="node16" class="node">
<title>Node16</title>
<g id="a_node16"><a xlink:title=" ">
<polygon fill="#e0e0e0" stroke="#999999" points="1936.75,-74.5 1889.25,-74.5 1889.25,-55.25 1936.75,-55.25 1936.75,-74.5"/>
<text text-anchor="middle" x="1913" y="-61" font-family="Helvetica,sans-Serif" font-size="10.00">string.h</text>
</a>
</g>
</g>
<!-- Node15&#45;&gt;Node16 -->
<g id="edge22" class="edge">
<title>Node15&#45;&gt;Node16</title>
<path fill="none" stroke="#63b8ff" d="M1869.59,-110.33C1876.92,-102.82 1887.67,-91.81 1896.64,-82.63"/>
<polygon fill="#63b8ff" stroke="#63b8ff" points="1898.74,-85.46 1903.23,-75.86 1893.74,-80.57 1898.74,-85.46"/>
</g>
<!-- Node17 -->
<g id="node17" class="node">
<title>Node17</title>
<g id="a_node17"><a xlink:title=" ">
<polygon fill="#e0e0e0" stroke="#999999" points="1832.62,-74.5 1787.38,-74.5 1787.38,-55.25 1832.62,-55.25 1832.62,-74.5"/>
<text text-anchor="middle" x="1810" y="-61" font-family="Helvetica,sans-Serif" font-size="10.00">atomic</text>
</a>
</g>
</g>
<!-- Node15&#45;&gt;Node17 -->
<g id="edge23" class="edge">
<title>Node15&#45;&gt;Node17</title>
<path fill="none" stroke="#63b8ff" d="M1852.58,-110.33C1845.39,-102.82 1834.84,-91.81 1826.05,-82.63"/>
<polygon fill="#63b8ff" stroke="#63b8ff" points="1829.05,-80.66 1819.6,-75.86 1823.99,-85.5 1829.05,-80.66"/>
</g>
<!-- Node18 -->
<g id="node18" class="node">
<title>Node18</title>
<g id="a_node18"><a xlink:title=" ">
<polygon fill="#e0e0e0" stroke="#999999" points="1769,-74.5 1723,-74.5 1723,-55.25 1769,-55.25 1769,-74.5"/>
<text text-anchor="middle" x="1746" y="-61" font-family="Helvetica,sans-Serif" font-size="10.00">iterator</text>
</a>
</g>
</g>
<!-- Node15&#45;&gt;Node18 -->
<g id="edge24" class="edge">
<title>Node15&#45;&gt;Node18</title>
<path fill="none" stroke="#63b8ff" d="M1841.49,-110.09C1823.4,-101.72 1796.23,-89.13 1775.49,-79.53"/>
<polygon fill="#63b8ff" stroke="#63b8ff" points="1777.15,-75.98 1766.6,-74.95 1774.21,-82.33 1777.15,-75.98"/>
</g>
<!-- Node19 -->
<g id="node19" class="node">
<title>Node19</title>
<g id="a_node19"><a xlink:title=" ">
<polygon fill="#e0e0e0" stroke="#999999" points="2150.62,-74.5 2111.38,-74.5 2111.38,-55.25 2150.62,-55.25 2150.62,-74.5"/>
<text text-anchor="middle" x="2131" y="-61" font-family="Helvetica,sans-Serif" font-size="10.00">limits</text>
</a>
</g>
</g>
<!-- Node15&#45;&gt;Node19 -->
<g id="edge25" class="edge">
<title>Node15&#45;&gt;Node19</title>
<path fill="none" stroke="#63b8ff" d="M1895.75,-112.27C1948.97,-101.77 2049.84,-81.88 2100.44,-71.9"/>
<polygon fill="#63b8ff" stroke="#63b8ff" points="2100.88,-75.18 2110.02,-69.82 2099.53,-68.32 2100.88,-75.18"/>
</g>
<!-- Node20 -->
<g id="node20" class="node">
<title>Node20</title>
<g id="a_node20"><a xlink:title=" ">
<polygon fill="#e0e0e0" stroke="#999999" points="2004.88,-74.5 1955.12,-74.5 1955.12,-55.25 2004.88,-55.25 2004.88,-74.5"/>
<text text-anchor="middle" x="1980" y="-61" font-family="Helvetica,sans-Serif" font-size="10.00">optional</text>
</a>
</g>
</g>
<!-- Node15&#45;&gt;Node20 -->
<g id="edge27" class="edge">
<title>Node15&#45;&gt;Node20</title>
<path fill="none" stroke="#63b8ff" d="M1881.19,-110.09C1899.99,-101.68 1928.28,-89.02 1949.78,-79.4"/>
<polygon fill="#63b8ff" stroke="#63b8ff" points="1951.02,-82.23 1958.71,-74.95 1948.16,-75.84 1951.02,-82.23"/>
</g>
<!-- Node21&#45;&gt;Node4 -->
<g id="edge32" class="edge">
<title>Node21&#45;&gt;Node4</title>
<path fill="none" stroke="#63b8ff" d="M1724.03,-115.85C1868.06,-106.05 2294.2,-77.03 2421.62,-68.35"/>
<polygon fill="#63b8ff" stroke="#63b8ff" points="2421.58,-71.79 2431.32,-67.62 2421.11,-64.81 2421.58,-71.79"/>
</g>
<!-- Node21&#45;&gt;Node9 -->
<g id="edge37" class="edge">
<title>Node21&#45;&gt;Node9</title>
<path fill="none" stroke="#63b8ff" d="M1627.97,-112.15C1623.26,-111.55 1618.54,-110.99 1614,-110.5 1413.73,-88.83 1173.18,-73.7 1078.81,-68.18"/>
<polygon fill="#63b8ff" stroke="#63b8ff" points="1079.23,-64.64 1069.04,-67.56 1078.82,-71.63 1079.23,-64.64"/>
</g>
<!-- Node21&#45;&gt;Node12 -->
<g id="edge36" class="edge">
<title>Node21&#45;&gt;Node12</title>
<path fill="none" stroke="#63b8ff" d="M1655.13,-110.09C1635.61,-101.64 1606.19,-88.9 1583.94,-79.27"/>
<polygon fill="#63b8ff" stroke="#63b8ff" points="1585.54,-75.71 1574.97,-74.95 1582.75,-82.14 1585.54,-75.71"/>
</g>
<!-- Node21&#45;&gt;Node18 -->
<g id="edge35" class="edge">
<title>Node21&#45;&gt;Node18</title>
<path fill="none" stroke="#63b8ff" d="M1687.87,-110.09C1698.19,-102.24 1713.37,-90.7 1725.63,-81.37"/>
<polygon fill="#63b8ff" stroke="#63b8ff" points="1727.46,-83.61 1733.3,-74.77 1723.22,-78.04 1727.46,-83.61"/>
</g>
<!-- Node22 -->
<g id="node22" class="node">
<title>Node22</title>
<g id="a_node22"><a xlink:title=" ">
<polygon fill="#e0e0e0" stroke="#999999" points="1638.5,-74.5 1601.5,-74.5 1601.5,-55.25 1638.5,-55.25 1638.5,-74.5"/>
<text text-anchor="middle" x="1620" y="-61" font-family="Helvetica,sans-Serif" font-size="10.00">array</text>
</a>
</g>
</g>
<!-- Node21&#45;&gt;Node22 -->
<g id="edge33" class="edge">
<title>Node21&#45;&gt;Node22</title>
<path fill="none" stroke="#63b8ff" d="M1666.5,-110.09C1658.49,-102.47 1646.82,-91.37 1637.17,-82.2"/>
<polygon fill="#63b8ff" stroke="#63b8ff" points="1640.02,-80.13 1630.36,-75.77 1635.19,-85.2 1640.02,-80.13"/>
</g>
<!-- Node23 -->
<g id="node23" class="node">
<title>Node23</title>
<g id="a_node23"><a xlink:title=" ">
<polygon fill="#e0e0e0" stroke="#999999" points="1705.12,-74.5 1656.88,-74.5 1656.88,-55.25 1705.12,-55.25 1705.12,-74.5"/>
<text text-anchor="middle" x="1681" y="-61" font-family="Helvetica,sans-Serif" font-size="10.00">cstddef</text>
</a>
</g>
</g>
<!-- Node21&#45;&gt;Node23 -->
<g id="edge34" class="edge">
<title>Node21&#45;&gt;Node23</title>
<path fill="none" stroke="#63b8ff" d="M1676.83,-110.33C1677.45,-103.67 1678.34,-94.24 1679.13,-85.78"/>
<polygon fill="#63b8ff" stroke="#63b8ff" points="1682.71,-86.14 1680.16,-75.86 1675.74,-85.49 1682.71,-86.14"/>
</g>
<!-- Node24&#45;&gt;Node9 -->
<g id="edge84" class="edge">
<title>Node24&#45;&gt;Node9</title>
<path fill="none" stroke="#63b8ff" d="M1380.12,-448.46C1320.65,-443.96 1189.01,-431.77 1081,-406 999.24,-386.49 782.13,-313.55 741,-240.25 681.67,-134.52 902.63,-86.89 997.11,-71.65"/>
<polygon fill="#63b8ff" stroke="#63b8ff" points="997.63,-74.95 1006.97,-69.95 996.55,-68.03 997.63,-74.95"/>
</g>
<!-- Node24&#45;&gt;Node11 -->
<g id="edge43" class="edge">
<title>Node24&#45;&gt;Node11</title>
<path fill="none" stroke="#63b8ff" d="M1444.1,-449.25C1480.28,-446.2 1539.23,-436.5 1579,-406 1609.34,-382.74 1601.6,-363.83 1622,-331.5 1637.91,-306.3 1636.31,-294.33 1660,-276.25 1681.19,-260.08 1708.67,-249.49 1732.74,-242.7"/>
<polygon fill="#63b8ff" stroke="#63b8ff" points="1733.41,-245.88 1742.17,-239.93 1731.61,-239.11 1733.41,-245.88"/>
</g>
<!-- Node24&#45;&gt;Node15 -->
<g id="edge42" class="edge">
<title>Node24&#45;&gt;Node15</title>
<path fill="none" stroke="#63b8ff" d="M1443.8,-448.47C1548.75,-439.39 1884.44,-394.37 2009,-185 2033.65,-143.57 1958.12,-128.98 1906.07,-123.86"/>
<polygon fill="#63b8ff" stroke="#63b8ff" points="1906.64,-120.31 1896.36,-122.91 1906.01,-127.28 1906.64,-120.31"/>
</g>
<!-- Node25 -->
<g id="node25" class="node">
<title>Node25</title>
<g id="a_node25"><a xlink:href="garbage-collected_8h.html" target="_top" xlink:title=" ">
<polygon fill="#fff0f0" stroke="red" points="1569.62,-406 1440.38,-406 1440.38,-386.75 1569.62,-386.75 1569.62,-406"/>
<text text-anchor="middle" x="1505" y="-392.5" font-family="Helvetica,sans-Serif" font-size="10.00">cppgc/garbage&#45;collected.h</text>
</a>
</g>
</g>
<!-- Node24&#45;&gt;Node25 -->
<g id="edge39" class="edge">
<title>Node24&#45;&gt;Node25</title>
<path fill="none" stroke="#63b8ff" d="M1427.78,-441.59C1442.07,-433.41 1463.38,-421.21 1479.99,-411.69"/>
<polygon fill="#63b8ff" stroke="#63b8ff" points="1481.21,-414.46 1488.15,-406.45 1477.73,-408.38 1481.21,-414.46"/>
</g>
<!-- Node36 -->
<g id="node26" class="node">
<title>Node36</title>
<g id="a_node26"><a xlink:href="name-provider_8h.html" target="_top" xlink:title=" ">
<polygon fill="white" stroke="#666666" points="902.12,-185 787.88,-185 787.88,-165.75 902.12,-165.75 902.12,-185"/>
<text text-anchor="middle" x="845" y="-171.5" font-family="Helvetica,sans-Serif" font-size="10.00">cppgc/name&#45;provider.h</text>
</a>
</g>
</g>
<!-- Node24&#45;&gt;Node36 -->
<g id="edge40" class="edge">
<title>Node24&#45;&gt;Node36</title>
<path fill="none" stroke="#63b8ff" d="M1379.91,-445.95C1274.57,-429.94 942.11,-373.96 873,-295.5 848.39,-267.56 844.35,-222.05 844.25,-196.12"/>
<polygon fill="#63b8ff" stroke="#63b8ff" points="847.77,-196.48 844.44,-186.42 840.77,-196.36 847.77,-196.48"/>
</g>
<!-- Node37 -->
<g id="node27" class="node">
<title>Node37</title>
<g id="a_node27"><a xlink:href="v8-maybe_8h.html" target="_top" xlink:title=" ">
<polygon fill="#fff0f0" stroke="red" points="1325.75,-295.5 1260.25,-295.5 1260.25,-276.25 1325.75,-276.25 1325.75,-295.5"/>
<text text-anchor="middle" x="1293" y="-282" font-family="Helvetica,sans-Serif" font-size="10.00">v8&#45;maybe.h</text>
</a>
</g>
</g>
<!-- Node24&#45;&gt;Node37 -->
<g id="edge44" class="edge">
<title>Node24&#45;&gt;Node37</title>
<path fill="none" stroke="#63b8ff" d="M1409.84,-441.64C1404.39,-420.46 1388.37,-366.55 1359,-331.5 1348.66,-319.17 1334.09,-308.83 1321.27,-301.21"/>
<polygon fill="#63b8ff" stroke="#63b8ff" points="1323.33,-297.8 1312.9,-295.94 1319.9,-303.9 1323.33,-297.8"/>
</g>
<!-- Node24&#45;&gt;Node41 -->
<g id="edge49" class="edge">
<title>Node24&#45;&gt;Node41</title>
<path fill="none" stroke="#63b8ff" d="M1414.22,-441.82C1417.44,-429.39 1423.82,-406.05 1431,-386.75 1441.8,-357.72 1457.07,-325.21 1466.75,-305.39"/>
<polygon fill="#63b8ff" stroke="#63b8ff" points="1470.2,-307.31 1471.49,-296.79 1463.93,-304.21 1470.2,-307.31"/>
</g>
<!-- Node24&#45;&gt;Node44 -->
<g id="edge55" class="edge">
<title>Node24&#45;&gt;Node44</title>
<path fill="none" stroke="#63b8ff" d="M1388.08,-441.59C1365.29,-432.99 1330.75,-419.94 1305.09,-410.25"/>
<polygon fill="#63b8ff" stroke="#63b8ff" points="1306.63,-406.71 1296.04,-406.45 1304.15,-413.26 1306.63,-406.71"/>
</g>
<!-- Node46 -->
<g id="node32" class="node">
<title>Node46</title>
<g id="a_node32"><a xlink:href="v8-value_8h.html" target="_top" xlink:title=" ">
<polygon fill="white" stroke="#666666" points="1350.12,-350.75 1289.88,-350.75 1289.88,-331.5 1350.12,-331.5 1350.12,-350.75"/>
<text text-anchor="middle" x="1320" y="-337.25" font-family="Helvetica,sans-Serif" font-size="10.00">v8&#45;value.h</text>
</a>
</g>
</g>
<!-- Node24&#45;&gt;Node46 -->
<g id="edge83" class="edge">
<title>Node24&#45;&gt;Node46</title>
<path fill="none" stroke="#63b8ff" d="M1399.5,-441.63C1388.34,-433.22 1371.95,-419.89 1360,-406 1347.88,-391.91 1336.9,-373.8 1329.52,-360.46"/>
<polygon fill="#63b8ff" stroke="#63b8ff" points="1332.23,-359.11 1324.42,-351.95 1326.06,-362.42 1332.23,-359.11"/>
</g>
<!-- Node47 -->
<g id="node33" class="node">
<title>Node47</title>
<g id="a_node33"><a xlink:href="v8-sandbox_8h.html" target="_top" xlink:title=" ">
<polygon fill="white" stroke="#666666" points="2079.5,-406 2006.5,-406 2006.5,-386.75 2079.5,-386.75 2079.5,-406"/>
<text text-anchor="middle" x="2043" y="-392.5" font-family="Helvetica,sans-Serif" font-size="10.00">v8&#45;sandbox.h</text>
</a>
</g>
</g>
<!-- Node24&#45;&gt;Node47 -->
<g id="edge68" class="edge">
<title>Node24&#45;&gt;Node47</title>
<path fill="none" stroke="#63b8ff" d="M1443.72,-447.95C1546.72,-439.26 1872.2,-411.79 1995.25,-401.4"/>
<polygon fill="#63b8ff" stroke="#63b8ff" points="1995.5,-404.81 2005.17,-400.48 1994.91,-397.84 1995.5,-404.81"/>
</g>
<!-- Node48 -->
<g id="node35" class="node">
<title>Node48</title>
<g id="a_node35"><a xlink:href="v8-traced-handle_8h.html" target="_top" xlink:title=" ">
<polygon fill="#fff0f0" stroke="red" points="977.75,-295.5 882.25,-295.5 882.25,-276.25 977.75,-276.25 977.75,-295.5"/>
<text text-anchor="middle" x="930" y="-282" font-family="Helvetica,sans-Serif" font-size="10.00">v8&#45;traced&#45;handle.h</text>
</a>
</g>
</g>
<!-- Node24&#45;&gt;Node48 -->
<g id="edge72" class="edge">
<title>Node24&#45;&gt;Node48</title>
<path fill="none" stroke="#63b8ff" d="M1380.17,-444.54C1342.64,-437.03 1278.58,-423.1 1225,-406 1125.32,-374.18 1011.62,-324.22 959.23,-300.39"/>
<polygon fill="#63b8ff" stroke="#63b8ff" points="960.86,-296.83 950.31,-295.85 957.95,-303.19 960.86,-296.83"/>
</g>
<!-- Node36&#45;&gt;Node9 -->
<g id="edge41" class="edge">
<title>Node36&#45;&gt;Node9</title>
<path fill="none" stroke="#63b8ff" d="M852.89,-165.35C865.17,-151.78 890.14,-126.06 916,-110.5 941.42,-95.21 972.92,-83.85 997.55,-76.42"/>
<polygon fill="#63b8ff" stroke="#63b8ff" points="998.37,-79.53 1006.99,-73.38 996.41,-72.81 998.37,-79.53"/>
</g>
<!-- Node37&#45;&gt;Node7 -->
<g id="edge46" class="edge">
<title>Node37&#45;&gt;Node7</title>
<path fill="none" stroke="#63b8ff" d="M1259.82,-281.5C1164.57,-271.82 891.22,-244.05 799.45,-234.72"/>
<polygon fill="#63b8ff" stroke="#63b8ff" points="800.01,-231.16 789.71,-233.63 799.3,-238.12 800.01,-231.16"/>
</g>
<!-- Node37&#45;&gt;Node9 -->
<g id="edge48" class="edge">
<title>Node37&#45;&gt;Node9</title>
<path fill="none" stroke="#63b8ff" d="M1309.83,-275.93C1328.73,-264.57 1355.61,-243.69 1346,-221 1339.12,-204.76 1247.5,-118.93 1232,-110.5 1183.43,-84.1 1119.81,-73.27 1078.92,-68.86"/>
<polygon fill="#63b8ff" stroke="#63b8ff" points="1079.31,-65.28 1069.02,-67.77 1078.62,-72.24 1079.31,-65.28"/>
</g>
<!-- Node37&#45;&gt;Node12 -->
<g id="edge45" class="edge">
<title>Node37&#45;&gt;Node12</title>
<path fill="none" stroke="#63b8ff" d="M1308.57,-275.82C1322.89,-267.27 1344.49,-253.76 1362,-240.25 1430.86,-187.13 1504.86,-114.57 1536.8,-82.4"/>
<polygon fill="#63b8ff" stroke="#63b8ff" points="1538.79,-85.36 1543.32,-75.78 1533.81,-80.44 1538.79,-85.36"/>
</g>
<!-- Node37&#45;&gt;Node15 -->
<g id="edge47" class="edge">
<title>Node37&#45;&gt;Node15</title>
<path fill="none" stroke="#63b8ff" d="M1326.23,-278.78C1392.68,-266.58 1535.68,-240.34 1536,-240.25 1646.79,-210.01 1773.28,-158.53 1830.29,-134.38"/>
<polygon fill="#63b8ff" stroke="#63b8ff" points="1831.28,-137.34 1839.11,-130.2 1828.54,-130.9 1831.28,-137.34"/>
</g>
<!-- Node41&#45;&gt;Node9 -->
<g id="edge54" class="edge">
<title>Node41&#45;&gt;Node9</title>
<path fill="none" stroke="#63b8ff" d="M1467.96,-275.88C1441.37,-246.75 1352.66,-154.37 1259,-110.5 1200.06,-82.89 1124.44,-72.32 1078.68,-68.3"/>
<polygon fill="#63b8ff" stroke="#63b8ff" points="1079.25,-64.76 1069,-67.44 1078.68,-71.73 1079.25,-64.76"/>
</g>
<!-- Node41&#45;&gt;Node11 -->
<g id="edge51" class="edge">
<title>Node41&#45;&gt;Node11</title>
<path fill="none" stroke="#63b8ff" d="M1529.28,-275.78C1586.02,-266.1 1675.39,-250.85 1732.83,-241.04"/>
<polygon fill="#63b8ff" stroke="#63b8ff" points="1733.26,-244.35 1742.53,-239.22 1732.08,-237.45 1733.26,-244.35"/>
</g>
<!-- Node41&#45;&gt;Node15 -->
<g id="edge50" class="edge">
<title>Node41&#45;&gt;Node15</title>
<path fill="none" stroke="#63b8ff" d="M1532.05,-276.52C1575.93,-269.21 1638.15,-257.09 1691,-240.25 1711.34,-233.77 1715.11,-228.75 1735,-221 1780.97,-203.1 1805.34,-220.1 1840,-185 1851.79,-173.06 1856.96,-154.39 1859.23,-140.31"/>
<polygon fill="#63b8ff" stroke="#63b8ff" points="1862.77,-141.17 1860.53,-130.81 1855.83,-140.31 1862.77,-141.17"/>
</g>
<!-- Node42 -->
<g id="node29" class="node">
<title>Node42</title>
<g id="a_node29"><a xlink:href="v8-weak-callback-info_8h.html" target="_top" xlink:title=" ">
<polygon fill="#fff0f0" stroke="red" points="1152,-240.25 1034,-240.25 1034,-221 1152,-221 1152,-240.25"/>
<text text-anchor="middle" x="1093" y="-226.75" font-family="Helvetica,sans-Serif" font-size="10.00">v8&#45;weak&#45;callback&#45;info.h</text>
</a>
</g>
</g>
<!-- Node41&#45;&gt;Node42 -->
<g id="edge52" class="edge">
<title>Node41&#45;&gt;Node42</title>
<path fill="none" stroke="#63b8ff" d="M1419.9,-277.07C1351.77,-267.6 1236.84,-251.62 1162.99,-241.36"/>
<polygon fill="#63b8ff" stroke="#63b8ff" points="1163.79,-237.79 1153.4,-239.88 1162.83,-244.73 1163.79,-237.79"/>
</g>
<!-- Node42&#45;&gt;Node9 -->
<g id="edge53" class="edge">
<title>Node42&#45;&gt;Node9</title>
<path fill="none" stroke="#63b8ff" d="M1090.04,-220.82C1081.43,-195.17 1056.2,-120.05 1044.32,-84.69"/>
<polygon fill="#63b8ff" stroke="#63b8ff" points="1047.47,-84.09 1040.97,-75.72 1040.84,-86.32 1047.47,-84.09"/>
</g>
<!-- Node44&#45;&gt;Node9 -->
<g id="edge67" class="edge">
<title>Node44&#45;&gt;Node9</title>
<path fill="none" stroke="#63b8ff" d="M1268.22,-386.36C1262.93,-368.95 1251.29,-329.39 1244,-295.5 1236.95,-262.71 1244.47,-252.13 1232,-221 1209.83,-165.67 1202.91,-147.28 1156,-110.5 1133.33,-92.72 1102.8,-81.43 1078.48,-74.66"/>
<polygon fill="#63b8ff" stroke="#63b8ff" points="1079.69,-71.1 1069.13,-71.94 1077.92,-77.87 1079.69,-71.1"/>
</g>
<!-- Node44&#45;&gt;Node11 -->
<g id="edge60" class="edge">
<title>Node44&#45;&gt;Node11</title>
<path fill="none" stroke="#63b8ff" d="M1301.71,-386.34C1357.2,-369.79 1477.62,-332.89 1577,-295.5 1597.36,-287.84 1601.44,-283.37 1622,-276.25 1660.17,-263.03 1704.38,-251.32 1737.57,-243.21"/>
<polygon fill="#63b8ff" stroke="#63b8ff" points="1738.04,-246.45 1746.94,-240.71 1736.4,-239.65 1738.04,-246.45"/>
</g>
<!-- Node44&#45;&gt;Node15 -->
<g id="edge59" class="edge">
<title>Node44&#45;&gt;Node15</title>
<path fill="none" stroke="#63b8ff" d="M1296.49,-386.36C1315.22,-378.86 1340.51,-366.82 1359,-350.75 1389.48,-324.27 1376.84,-297.79 1411,-276.25 1494.07,-223.88 1534.11,-265.54 1629,-240.25 1662.92,-231.21 1746.25,-201.94 1777,-185 1801.64,-171.42 1826.94,-151.15 1843.25,-137.1"/>
<polygon fill="#63b8ff" stroke="#63b8ff" points="1845.11,-139.24 1850.32,-130.02 1840.5,-133.98 1845.11,-139.24"/>
</g>
<!-- Node44&#45;&gt;Node45 -->
<g id="edge56" class="edge">
<title>Node44&#45;&gt;Node45</title>
<path fill="none" stroke="#63b8ff" d="M1256.71,-386.31C1227.22,-367.6 1159.34,-324.53 1123.37,-301.7"/>
<polygon fill="#63b8ff" stroke="#63b8ff" points="1125.44,-298.24 1115.12,-295.84 1121.69,-304.15 1125.44,-298.24"/>
</g>
<!-- Node44&#45;&gt;Node46 -->
<g id="edge61" class="edge">
<title>Node44&#45;&gt;Node46</title>
<path fill="none" stroke="#63b8ff" d="M1279.09,-386.58C1285.93,-379.15 1295.93,-368.29 1304.32,-359.16"/>
<polygon fill="#63b8ff" stroke="#63b8ff" points="1306.54,-361.84 1310.73,-352.11 1301.39,-357.1 1306.54,-361.84"/>
</g>
<!-- Node45&#45;&gt;Node9 -->
<g id="edge58" class="edge">
<title>Node45&#45;&gt;Node9</title>
<path fill="none" stroke="#63b8ff" d="M1071.97,-276.16C1055.11,-269.3 1035.04,-257.9 1025,-240.25 996.55,-190.22 1017.37,-118.67 1030.08,-84.9"/>
<polygon fill="#63b8ff" stroke="#63b8ff" points="1033.58,-86.57 1034,-75.98 1027.07,-84 1033.58,-86.57"/>
</g>
<!-- Node45&#45;&gt;Node11 -->
<g id="edge57" class="edge">
<title>Node45&#45;&gt;Node11</title>
<path fill="none" stroke="#63b8ff" d="M1128.25,-282.69C1232.02,-274.66 1593.3,-246.69 1732.62,-235.91"/>
<polygon fill="#63b8ff" stroke="#63b8ff" points="1732.74,-239.34 1742.44,-235.07 1732.2,-232.36 1732.74,-239.34"/>
</g>
<!-- Node46&#45;&gt;Node9 -->
<g id="edge66" class="edge">
<title>Node46&#45;&gt;Node9</title>
<path fill="none" stroke="#63b8ff" d="M1294.84,-331.14C1279.17,-324.07 1260.27,-312.54 1251,-295.5 1246.91,-287.99 1246.87,-283.74 1251,-276.25 1265.46,-250.01 1293.54,-266.49 1308,-240.25 1312.13,-232.76 1311.34,-228.88 1308,-221 1280.49,-156.02 1255.09,-145.82 1194,-110.5 1157.96,-89.66 1111.54,-78.01 1078.73,-71.88"/>
<polygon fill="#63b8ff" stroke="#63b8ff" points="1079.62,-68.31 1069.17,-70.01 1078.4,-75.2 1079.62,-68.31"/>
</g>
<!-- Node46&#45;&gt;Node11 -->
<g id="edge64" class="edge">
<title>Node46&#45;&gt;Node11</title>
<path fill="none" stroke="#63b8ff" d="M1350.57,-336.14C1393.72,-330.03 1474.65,-316.76 1541,-295.5 1560.94,-289.11 1564.11,-282.8 1584,-276.25 1633.31,-260.01 1691.29,-247.98 1732.81,-240.52"/>
<polygon fill="#63b8ff" stroke="#63b8ff" points="1733.28,-243.82 1742.53,-238.63 1732.07,-236.92 1733.28,-243.82"/>
</g>
<!-- Node46&#45;&gt;Node15 -->
<g id="edge63" class="edge">
<title>Node46&#45;&gt;Node15</title>
<path fill="none" stroke="#63b8ff" d="M1325.17,-331.43C1334.05,-317.34 1353.62,-289.73 1378,-276.25 1457.81,-232.13 1491.68,-262.95 1580,-240.25 1654.08,-221.21 1672.89,-215.59 1743,-185 1776.63,-170.33 1813.54,-149.53 1836.97,-135.7"/>
<polygon fill="#63b8ff" stroke="#63b8ff" points="1838.34,-138.36 1845.14,-130.24 1834.75,-132.35 1838.34,-138.36"/>
</g>
<!-- Node46&#45;&gt;Node37 -->
<g id="edge65" class="edge">
<title>Node46&#45;&gt;Node37</title>
<path fill="none" stroke="#63b8ff" d="M1315.54,-331.33C1312.01,-324.36 1306.94,-314.37 1302.51,-305.62"/>
<polygon fill="#63b8ff" stroke="#63b8ff" points="1305.2,-304.2 1297.56,-296.86 1298.96,-307.36 1305.2,-304.2"/>
</g>
<!-- Node46&#45;&gt;Node45 -->
<g id="edge62" class="edge">
<title>Node46&#45;&gt;Node45</title>
<path fill="none" stroke="#63b8ff" d="M1289.41,-332.72C1250.09,-323.2 1181.79,-306.67 1138.84,-296.28"/>
<polygon fill="#63b8ff" stroke="#63b8ff" points="1139.78,-292.66 1129.24,-293.71 1138.14,-299.46 1139.78,-292.66"/>
</g>
<!-- Node47&#45;&gt;Node9 -->
<g id="edge71" class="edge">
<title>Node47&#45;&gt;Node9</title>
<path fill="none" stroke="#63b8ff" d="M2044.91,-386.45C2048.96,-364.92 2056.04,-309.5 2030,-276.25 1985.94,-219.99 1948.12,-239.15 1879,-221 1783.6,-195.94 1756.4,-205.88 1660,-185 1628.96,-178.28 1415.16,-116.68 1384,-110.5 1274.49,-88.76 1143.29,-75.19 1078.42,-69.3"/>
<polygon fill="#63b8ff" stroke="#63b8ff" points="1079.11,-65.76 1068.84,-68.35 1078.49,-72.73 1079.11,-65.76"/>
</g>
<!-- Node47&#45;&gt;Node15 -->
<g id="edge70" class="edge">
<title>Node47&#45;&gt;Node15</title>
<path fill="none" stroke="#63b8ff" d="M2047.63,-386.56C2064.47,-353.11 2118.66,-232.57 2062,-165.75 2042.25,-142.46 1959.34,-130.38 1906.37,-124.92"/>
<polygon fill="#63b8ff" stroke="#63b8ff" points="1906.85,-121.35 1896.55,-123.86 1906.16,-128.32 1906.85,-121.35"/>
</g>
<!-- Node27 -->
<g id="node34" class="node">
<title>Node27</title>
<g id="a_node34"><a xlink:title=" ">
<polygon fill="#e0e0e0" stroke="#999999" points="2127.62,-350.75 2082.38,-350.75 2082.38,-331.5 2127.62,-331.5 2127.62,-350.75"/>
<text text-anchor="middle" x="2105" y="-337.25" font-family="Helvetica,sans-Serif" font-size="10.00">cstdint</text>
</a>
</g>
</g>
<!-- Node47&#45;&gt;Node27 -->
<g id="edge69" class="edge">
<title>Node47&#45;&gt;Node27</title>
<path fill="none" stroke="#63b8ff" d="M2053.52,-386.34C2062.48,-378.65 2075.57,-367.4 2086.31,-358.18"/>
<polygon fill="#63b8ff" stroke="#63b8ff" points="2088.33,-360.2 2093.64,-351.02 2083.77,-354.89 2088.33,-360.2"/>
</g>
<!-- Node48&#45;&gt;Node2 -->
<g id="edge74" class="edge">
<title>Node48&#45;&gt;Node2</title>
<path fill="none" stroke="#63b8ff" d="M914.08,-275.9C889.58,-262.41 840.87,-236.78 797,-221 578.06,-142.24 302.09,-89.13 205.93,-71.93"/>
<polygon fill="#63b8ff" stroke="#63b8ff" points="206.57,-68.31 196.11,-70.01 205.35,-75.2 206.57,-68.31"/>
</g>
<!-- Node48&#45;&gt;Node4 -->
<g id="edge73" class="edge">
<title>Node48&#45;&gt;Node4</title>
<path fill="none" stroke="#63b8ff" d="M978.11,-278.52C1042.39,-270 1159.81,-254.32 1260,-240.25 1718.95,-175.82 2276.09,-93.01 2421.76,-71.29"/>
<polygon fill="#63b8ff" stroke="#63b8ff" points="2421.93,-74.65 2431.3,-69.71 2420.9,-67.73 2421.93,-74.65"/>
</g>
<!-- Node48&#45;&gt;Node5 -->
<g id="edge76" class="edge">
<title>Node48&#45;&gt;Node5</title>
<path fill="none" stroke="#63b8ff" d="M916.67,-275.96C898.14,-263.58 863.57,-240.52 834,-221 809.62,-204.91 792.89,-210.7 779,-185 774.93,-177.47 774.54,-173.05 779,-165.75 836.1,-72.41 892.91,-82.05 999,-55.25 1116.21,-25.65 1992.91,-13.38 2183.5,-11.05"/>
<polygon fill="#63b8ff" stroke="#63b8ff" points="2183.35,-14.54 2193.31,-10.92 2183.27,-7.54 2183.35,-14.54"/>
</g>
<!-- Node48&#45;&gt;Node7 -->
<g id="edge78" class="edge">
<title>Node48&#45;&gt;Node7</title>
<path fill="none" stroke="#63b8ff" d="M902.69,-275.84C873.76,-266.28 828.26,-251.22 798.52,-241.39"/>
<polygon fill="#63b8ff" stroke="#63b8ff" points="799.93,-237.84 789.34,-238.02 797.73,-244.48 799.93,-237.84"/>
</g>
<!-- Node48&#45;&gt;Node9 -->
<g id="edge82" class="edge">
<title>Node48&#45;&gt;Node9</title>
<path fill="none" stroke="#63b8ff" d="M928.6,-275.9C924.79,-248.34 916.91,-163.61 954,-110.5 964.57,-95.36 981.93,-84.94 998.13,-77.99"/>
<polygon fill="#63b8ff" stroke="#63b8ff" points="998.97,-81.03 1007,-74.11 996.41,-74.52 998.97,-81.03"/>
</g>
<!-- Node48&#45;&gt;Node11 -->
<g id="edge80" class="edge">
<title>Node48&#45;&gt;Node11</title>
<path fill="none" stroke="#63b8ff" d="M978.02,-281.72C1003.3,-280.07 1034.83,-278.03 1063,-276.25 1312.89,-260.46 1611.27,-242.32 1732.61,-234.97"/>
<polygon fill="#63b8ff" stroke="#63b8ff" points="1732.68,-238.41 1742.45,-234.32 1732.25,-231.43 1732.68,-238.41"/>
</g>
<!-- Node48&#45;&gt;Node12 -->
<g id="edge77" class="edge">
<title>Node48&#45;&gt;Node12</title>
<path fill="none" stroke="#63b8ff" d="M938.92,-276.14C953.32,-262.48 983.14,-236.09 1013,-221 1187.01,-133.08 1418.48,-87.89 1511.61,-72.3"/>
<polygon fill="#63b8ff" stroke="#63b8ff" points="1511.97,-75.62 1521.26,-70.54 1510.83,-68.71 1511.97,-75.62"/>
</g>
<!-- Node48&#45;&gt;Node15 -->
<g id="edge79" class="edge">
<title>Node48&#45;&gt;Node15</title>
<path fill="none" stroke="#63b8ff" d="M978.2,-276.87C1031.14,-268.04 1118.66,-253.34 1194,-240.25 1427.94,-199.59 1707.65,-148.99 1815.51,-129.4"/>
<polygon fill="#63b8ff" stroke="#63b8ff" points="1816.09,-132.67 1825.3,-127.44 1814.84,-125.78 1816.09,-132.67"/>
</g>
<!-- Node48&#45;&gt;Node17 -->
<g id="edge75" class="edge">
<title>Node48&#45;&gt;Node17</title>
<path fill="none" stroke="#63b8ff" d="M978.17,-277.53C1035.68,-268.41 1128.21,-252.57 1161,-240.25 1176.89,-234.28 1178.06,-226.86 1194,-221 1325.36,-172.72 1365.98,-188.9 1504,-165.75 1605.61,-148.71 1639.1,-172.16 1733,-129.75 1757.61,-118.63 1780.73,-97.46 1795.09,-82.54"/>
<polygon fill="#63b8ff" stroke="#63b8ff" points="1797.23,-85.31 1801.48,-75.61 1792.11,-80.54 1797.23,-85.31"/>
</g>
<!-- Node48&#45;&gt;Node42 -->
<g id="edge81" class="edge">
<title>Node48&#45;&gt;Node42</title>
<path fill="none" stroke="#63b8ff" d="M957.65,-275.84C984.35,-267.12 1024.99,-253.84 1054.78,-244.11"/>
<polygon fill="#63b8ff" stroke="#63b8ff" points="1055.79,-247.13 1064.21,-240.7 1053.62,-240.48 1055.79,-247.13"/>
</g>
<!-- Node31&#45;&gt;Node2 -->
<g id="edge88" class="edge">
<title>Node31&#45;&gt;Node2</title>
<path fill="none" stroke="#63b8ff" d="M2675.59,-118.36C2388.03,-112.34 486.84,-72.49 205.71,-66.6"/>
<polygon fill="#63b8ff" stroke="#63b8ff" points="206.03,-63.09 195.96,-66.38 205.89,-70.09 206.03,-63.09"/>
</g>
<!-- Node31&#45;&gt;Node4 -->
<g id="edge87" class="edge">
<title>Node31&#45;&gt;Node4</title>
<path fill="none" stroke="#63b8ff" d="M2675.61,-111.5C2627.25,-101.36 2542.32,-83.55 2494.1,-73.44"/>
<polygon fill="#63b8ff" stroke="#63b8ff" points="2495.04,-69.86 2484.54,-71.23 2493.61,-76.71 2495.04,-69.86"/>
</g>
<!-- Node31&#45;&gt;Node5 -->
<g id="edge90" class="edge">
<title>Node31&#45;&gt;Node5</title>
<path fill="none" stroke="#63b8ff" d="M2694.92,-110.05C2663.19,-93.25 2597.32,-58.69 2586,-55.25 2469.06,-19.68 2322.94,-12.35 2256.23,-10.92"/>
<polygon fill="#63b8ff" stroke="#63b8ff" points="2256.53,-7.4 2246.47,-10.72 2256.41,-14.4 2256.53,-7.4"/>
</g>
<!-- Node31&#45;&gt;Node6 -->
<g id="edge91" class="edge">
<title>Node31&#45;&gt;Node6</title>
<path fill="none" stroke="#63b8ff" d="M2737.45,-110.09C2763.42,-100.87 2803.75,-86.55 2831.44,-76.73"/>
<polygon fill="#63b8ff" stroke="#63b8ff" points="2832.48,-79.71 2840.73,-73.07 2830.14,-73.12 2832.48,-79.71"/>
</g>
<!-- Node31&#45;&gt;Node9 -->
<g id="edge92" class="edge">
<title>Node31&#45;&gt;Node9</title>
<path fill="none" stroke="#63b8ff" d="M2675.48,-117.96C2455.78,-110.97 1311.57,-74.58 1079.2,-67.19"/>
<polygon fill="#63b8ff" stroke="#63b8ff" points="1079.33,-63.66 1069.22,-66.84 1079.1,-70.65 1079.33,-63.66"/>
</g>
<!-- Node32 -->
<g id="node37" class="node">
<title>Node32</title>
<g id="a_node37"><a xlink:title=" ">
<polygon fill="#e0e0e0" stroke="#999999" points="2747.62,-74.5 2702.38,-74.5 2702.38,-55.25 2747.62,-55.25 2747.62,-74.5"/>
<text text-anchor="middle" x="2725" y="-61" font-family="Helvetica,sans-Serif" font-size="10.00">math.h</text>
</a>
</g>
</g>
<!-- Node31&#45;&gt;Node32 -->
<g id="edge86" class="edge">
<title>Node31&#45;&gt;Node32</title>
<path fill="none" stroke="#63b8ff" d="M2714.15,-110.33C2715.79,-103.59 2718.13,-94.02 2720.21,-85.49"/>
<polygon fill="#63b8ff" stroke="#63b8ff" points="2723.84,-86.4 2722.81,-75.86 2717.03,-84.74 2723.84,-86.4"/>
</g>
<!-- Node33 -->
<g id="node38" class="node">
<title>Node33</title>
<g id="a_node38"><a xlink:title=" ">
<polygon fill="#e0e0e0" stroke="#999999" points="2684.38,-74.5 2637.62,-74.5 2637.62,-55.25 2684.38,-55.25 2684.38,-74.5"/>
<text text-anchor="middle" x="2661" y="-61" font-family="Helvetica,sans-Serif" font-size="10.00">stdlib.h</text>
</a>
</g>
</g>
<!-- Node31&#45;&gt;Node33 -->
<g id="edge89" class="edge">
<title>Node31&#45;&gt;Node33</title>
<path fill="none" stroke="#63b8ff" d="M2703.58,-110.33C2696.39,-102.82 2685.84,-91.81 2677.05,-82.63"/>
<polygon fill="#63b8ff" stroke="#63b8ff" points="2680.05,-80.66 2670.6,-75.86 2674.99,-85.5 2680.05,-80.66"/>
</g>
<!-- Node50&#45;&gt;Node4 -->
<g id="edge95" class="edge">
<title>Node50&#45;&gt;Node4</title>
<path fill="none" stroke="#63b8ff" d="M1704.56,-559.09C1854.48,-551.35 2380.93,-523.76 2416,-516.5 2451.19,-509.22 2547.38,-490.69 2568,-461.25 2658.66,-331.84 2596.96,-242.42 2510,-110.5 2502.48,-99.09 2491.24,-88.94 2481.14,-81.21"/>
<polygon fill="#63b8ff" stroke="#63b8ff" points="2483.47,-77.85 2473.31,-74.83 2479.36,-83.52 2483.47,-77.85"/>
</g>
<!-- Node50&#45;&gt;Node6 -->
<g id="edge97" class="edge">
<title>Node50&#45;&gt;Node6</title>
<path fill="none" stroke="#63b8ff" d="M1704.43,-559.14C1863.62,-551.12 2451.24,-521.26 2470,-516.5 2693.22,-459.91 2824.15,-162.39 2854.93,-84.53"/>
<polygon fill="#63b8ff" stroke="#63b8ff" points="2858.4,-86.28 2858.75,-75.7 2851.87,-83.75 2858.4,-86.28"/>
</g>
<!-- Node50&#45;&gt;Node8 -->
<g id="edge98" class="edge">
<title>Node50&#45;&gt;Node8</title>
<path fill="none" stroke="#63b8ff" d="M1625.55,-559.29C1454.43,-551.34 775.99,-519.82 575.24,-510.49"/>
<polygon fill="#63b8ff" stroke="#63b8ff" points="575.53,-506.95 565.37,-509.98 575.2,-513.94 575.53,-506.95"/>
</g>
<!-- Node50&#45;&gt;Node9 -->
<g id="edge105" class="edge">
<title>Node50&#45;&gt;Node9</title>
<path fill="none" stroke="#63b8ff" d="M1625.44,-555.41C1568.33,-547.11 1459.49,-531.12 1367,-516.5 1072.1,-469.88 905.85,-581.18 716,-350.75 647.35,-267.42 593.56,-175.2 680,-110.5 729.32,-73.59 914.22,-67.05 997.22,-66.01"/>
<polygon fill="#63b8ff" stroke="#63b8ff" points="997.03,-69.5 1007,-65.9 996.96,-62.5 997.03,-69.5"/>
</g>
<!-- Node50&#45;&gt;Node11 -->
<g id="edge100" class="edge">
<title>Node50&#45;&gt;Node11</title>
<path fill="none" stroke="#63b8ff" d="M1677.71,-552.07C1706.56,-530.65 1776.44,-473.55 1802,-406 1822.19,-352.64 1805.21,-283.7 1794.74,-250.77"/>
<polygon fill="#63b8ff" stroke="#63b8ff" points="1797.87,-250.09 1791.38,-241.71 1791.23,-252.31 1797.87,-250.09"/>
</g>
<!-- Node50&#45;&gt;Node45 -->
<g id="edge99" class="edge">
<title>Node50&#45;&gt;Node45</title>
<path fill="none" stroke="#63b8ff" d="M1640.06,-552.01C1601.37,-538.22 1524.33,-512.06 1457,-497.25 1340.91,-471.72 1293.23,-523.55 1192,-461.25 1135.45,-426.45 1111.77,-344.25 1103.62,-306.48"/>
<polygon fill="#63b8ff" stroke="#63b8ff" points="1106.9,-306.01 1101.5,-296.89 1100.04,-307.39 1106.9,-306.01"/>
</g>
<!-- Node51 -->
<g id="node40" class="node">
<title>Node51</title>
<g id="a_node40"><a xlink:title=" ">
<polygon fill="#e0e0e0" stroke="#999999" points="1684,-516.5 1626,-516.5 1626,-497.25 1684,-497.25 1684,-516.5"/>
<text text-anchor="middle" x="1655" y="-503" font-family="Helvetica,sans-Serif" font-size="10.00">functional</text>
</a>
</g>
</g>
<!-- Node50&#45;&gt;Node51 -->
<g id="edge96" class="edge">
<title>Node50&#45;&gt;Node51</title>
<path fill="none" stroke="#63b8ff" d="M1663.35,-552.33C1662.08,-545.59 1660.29,-536.02 1658.68,-527.49"/>
<polygon fill="#63b8ff" stroke="#63b8ff" points="1661.97,-527.04 1656.69,-517.86 1655.09,-528.33 1661.97,-527.04"/>
</g>
<!-- Node52 -->
<g id="node41" class="node">
<title>Node52</title>
<g id="a_node41"><a xlink:href="v8-promise_8h.html" target="_top" xlink:title=" ">
<polygon fill="white" stroke="#666666" points="1447.75,-516.5 1376.25,-516.5 1376.25,-497.25 1447.75,-497.25 1447.75,-516.5"/>
<text text-anchor="middle" x="1412" y="-503" font-family="Helvetica,sans-Serif" font-size="10.00">v8&#45;promise.h</text>
</a>
</g>
</g>
<!-- Node50&#45;&gt;Node52 -->
<g id="edge101" class="edge">
<title>Node50&#45;&gt;Node52</title>
<path fill="none" stroke="#63b8ff" d="M1625.47,-552.8C1580.34,-543.31 1506.6,-527.79 1458.68,-517.7"/>
<polygon fill="#63b8ff" stroke="#63b8ff" points="1459.49,-514.08 1448.98,-515.45 1458.04,-520.93 1459.49,-514.08"/>
</g>
<!-- Node52&#45;&gt;Node9 -->
<g id="edge104" class="edge">
<title>Node52&#45;&gt;Node9</title>
<path fill="none" stroke="#63b8ff" d="M1376.05,-499.9C1328.04,-491.79 1240.4,-476.55 1166,-461.25 929.61,-412.63 749.63,-468.07 670,-240.25 650.17,-183.53 656.82,-141.98 708,-110.5 755.64,-81.2 919.77,-70.7 997.1,-67.32"/>
<polygon fill="#63b8ff" stroke="#63b8ff" points="997.01,-70.78 1006.85,-66.87 996.71,-63.79 997.01,-70.78"/>
</g>
<!-- Node52&#45;&gt;Node11 -->
<g id="edge102" class="edge">
<title>Node52&#45;&gt;Node11</title>
<path fill="none" stroke="#63b8ff" d="M1437.23,-496.85C1475.8,-482.18 1550.37,-450.27 1602,-406 1656.45,-359.3 1643,-322.3 1698,-276.25 1713.98,-262.87 1734.67,-252.25 1752.17,-244.74"/>
<polygon fill="#63b8ff" stroke="#63b8ff" points="1753.13,-247.72 1761.05,-240.68 1750.47,-241.24 1753.13,-247.72"/>
</g>
<!-- Node52&#45;&gt;Node24 -->
<g id="edge103" class="edge">
<title>Node52&#45;&gt;Node24</title>
<path fill="none" stroke="#63b8ff" d="M1412,-497.08C1412,-490.42 1412,-480.99 1412,-472.53"/>
<polygon fill="#63b8ff" stroke="#63b8ff" points="1415.5,-472.61 1412,-462.61 1408.5,-472.61 1415.5,-472.61"/>
</g>
<!-- Node53&#45;&gt;Node2 -->
<g id="edge108" class="edge">
<title>Node53&#45;&gt;Node2</title>
<path fill="none" stroke="#63b8ff" d="M194.48,-662.57C166.29,-646.61 114,-610.59 114,-563.12 114,-563.12 114,-563.12 114,-174.38 114,-138.76 138.36,-103.34 155.23,-83.08"/>
<polygon fill="#63b8ff" stroke="#63b8ff" points="158.43,-85.74 162.34,-75.89 153.14,-81.15 158.43,-85.74"/>
</g>
<!-- Node53&#45;&gt;Node9 -->
<g id="edge120" class="edge">
<title>Node53&#45;&gt;Node9</title>
<path fill="none" stroke="#63b8ff" d="M212.83,-662.63C214.48,-644.06 218,-600.1 218,-563.12 218,-563.12 218,-563.12 218,-450.62 218,-277.47 252.89,-187.46 408,-110.5 460.61,-84.4 866.45,-70.73 997.4,-66.97"/>
<polygon fill="#63b8ff" stroke="#63b8ff" points="997.24,-70.44 1007.14,-66.66 997.04,-63.45 997.24,-70.44"/>
</g>
<!-- Node54 -->
<g id="node43" class="node">
<title>Node54</title>
<g id="a_node43"><a xlink:href="v8-script_8h.html" target="_top" xlink:title=" ">
<polygon fill="#fff0f0" stroke="red" points="894.5,-627 833.5,-627 833.5,-607.75 894.5,-607.75 894.5,-627"/>
<text text-anchor="middle" x="864" y="-613.5" font-family="Helvetica,sans-Serif" font-size="10.00">v8&#45;script.h</text>
</a>
</g>
</g>
<!-- Node53&#45;&gt;Node54 -->
<g id="edge109" class="edge">
<title>Node53&#45;&gt;Node54</title>
<path fill="none" stroke="#63b8ff" d="M243.89,-669.02C351.61,-660.22 702,-631.61 822.69,-621.75"/>
<polygon fill="#63b8ff" stroke="#63b8ff" points="822.63,-625.18 832.31,-620.88 822.06,-618.21 822.63,-625.18"/>
</g>
<!-- Node54&#45;&gt;Node2 -->
<g id="edge111" class="edge">
<title>Node54&#45;&gt;Node2</title>
<path fill="none" stroke="#63b8ff" d="M833.22,-615.16C748.56,-611.49 513.77,-599.08 442,-571.75 402.64,-556.76 395.99,-545.03 365,-516.5 241.82,-403.08 224.31,-348 186,-185 180.27,-160.63 178.23,-154.58 175,-129.75 173.06,-114.89 172.06,-97.95 171.54,-85.26"/>
<polygon fill="#63b8ff" stroke="#63b8ff" points="175.01,-85.46 171.18,-75.59 168.02,-85.7 175.01,-85.46"/>
</g>
<!-- Node54&#45;&gt;Node4 -->
<g id="edge110" class="edge">
<title>Node54&#45;&gt;Node4</title>
<path fill="none" stroke="#63b8ff" d="M894.96,-616.32C1093.44,-615.69 2189.23,-608.04 2509,-516.5 2559.32,-502.1 2583.46,-504.45 2613,-461.25 2659.43,-393.35 2638.63,-355.87 2618,-276.25 2597.08,-195.51 2589.27,-169.19 2530,-110.5 2517.64,-98.26 2501.33,-87.8 2487.36,-80.1"/>
<polygon fill="#63b8ff" stroke="#63b8ff" points="2489.17,-76.56 2478.69,-74.98 2485.89,-82.75 2489.17,-76.56"/>
</g>
<!-- Node54&#45;&gt;Node5 -->
<g id="edge112" class="edge">
<title>Node54&#45;&gt;Node5</title>
<path fill="none" stroke="#63b8ff" d="M833.25,-617.03C679.34,-618.59 0,-604.36 0,-231.62 0,-231.62 0,-231.62 0,-119.12 0,-51.54 72.16,-70.49 138,-55.25 344.72,-7.4 1923.15,-9.78 2183.65,-10.51"/>
<polygon fill="#63b8ff" stroke="#63b8ff" points="2183.38,-14.01 2193.39,-10.54 2183.4,-7.01 2183.38,-14.01"/>
</g>
<!-- Node54&#45;&gt;Node9 -->
<g id="edge119" class="edge">
<title>Node54&#45;&gt;Node9</title>
<path fill="none" stroke="#63b8ff" d="M833.29,-614.54C736.91,-608.14 443.15,-583.38 381,-516.5 331.01,-462.7 346.16,-213.65 375,-165.75 401.39,-121.91 426.97,-125.13 476,-110.5 573.71,-81.35 884.62,-70.09 996.98,-66.91"/>
<polygon fill="#63b8ff" stroke="#63b8ff" points="996.94,-70.38 1006.84,-66.61 996.75,-63.39 996.94,-70.38"/>
</g>
<!-- Node54&#45;&gt;Node11 -->
<g id="edge116" class="edge">
<title>Node54&#45;&gt;Node11</title>
<path fill="none" stroke="#63b8ff" d="M894.88,-615.91C988.18,-613.57 1274.1,-599.61 1492,-516.5 1632.86,-462.77 1742.91,-303.55 1776.99,-249.68"/>
<polygon fill="#63b8ff" stroke="#63b8ff" points="1780.31,-251.97 1782.63,-241.63 1774.37,-248.27 1780.31,-251.97"/>
</g>
<!-- Node54&#45;&gt;Node13 -->
<g id="edge113" class="edge">
<title>Node54&#45;&gt;Node13</title>
<path fill="none" stroke="#63b8ff" d="M833.16,-607.66C785.85,-594.5 692.41,-569.3 612,-552.5 563.94,-542.46 425.77,-553.94 394,-516.5 352.88,-468.03 389.35,-260.82 402.04,-195.9"/>
<polygon fill="#63b8ff" stroke="#63b8ff" points="405.65,-196.7 404.17,-186.21 398.78,-195.33 405.65,-196.7"/>
</g>
<!-- Node54&#45;&gt;Node21 -->
<g id="edge118" class="edge">
<title>Node54&#45;&gt;Node21</title>
<path fill="none" stroke="#63b8ff" d="M864,-607.37C864,-588.78 864,-544.8 864,-507.88 864,-507.88 864,-507.88 864,-450.62 864,-382.63 906.24,-373.13 960,-331.5 1001.07,-299.7 1014.57,-295.04 1063,-276.25 1259.61,-199.97 1506.33,-150.82 1617.24,-131.04"/>
<polygon fill="#63b8ff" stroke="#63b8ff" points="1617.63,-134.35 1626.86,-129.16 1616.41,-127.45 1617.63,-134.35"/>
</g>
<!-- Node54&#45;&gt;Node37 -->
<g id="edge117" class="edge">
<title>Node54&#45;&gt;Node37</title>
<path fill="none" stroke="#63b8ff" d="M875.47,-607.56C933.74,-562.81 1197.05,-360.57 1272.65,-302.51"/>
<polygon fill="#63b8ff" stroke="#63b8ff" points="1274.49,-304.74 1280.29,-295.87 1270.23,-299.19 1274.49,-304.74"/>
</g>
<!-- Node54&#45;&gt;Node45 -->
<g id="edge115" class="edge">
<title>Node54&#45;&gt;Node45</title>
<path fill="none" stroke="#63b8ff" d="M869.44,-607.46C879.95,-589.38 902,-546.79 902,-507.88 902,-507.88 902,-507.88 902,-450.62 902,-368.74 1003.81,-320.09 1061.42,-299.12"/>
<polygon fill="#63b8ff" stroke="#63b8ff" points="1062.36,-302.14 1070.63,-295.52 1060.04,-295.54 1062.36,-302.14"/>
</g>
<!-- Node54&#45;&gt;Node50 -->
<g id="edge114" class="edge">
<title>Node54&#45;&gt;Node50</title>
<path fill="none" stroke="#63b8ff" d="M894.73,-615.66C996.94,-613.05 1334.65,-602.51 1612,-571.75 1612.95,-571.64 1613.91,-571.53 1614.88,-571.42"/>
<polygon fill="#63b8ff" stroke="#63b8ff" points="1614.96,-574.81 1624.41,-570.02 1614.04,-567.87 1614.96,-574.81"/>
</g>
<!-- Node58&#45;&gt;Node9 -->
<g id="edge123" class="edge">
<title>Node58&#45;&gt;Node9</title>
<path fill="none" stroke="#63b8ff" d="M529.8,-331.01C518.12,-312.91 494,-270.81 494,-231.62 494,-231.62 494,-231.62 494,-174.38 494,-134.81 520.31,-127.58 556,-110.5 633.63,-73.35 895.59,-67.08 997.22,-66.06"/>
<polygon fill="#63b8ff" stroke="#63b8ff" points="996.99,-69.55 1006.96,-65.96 996.93,-62.55 996.99,-69.55"/>
</g>
<!-- Node58&#45;&gt;Node48 -->
<g id="edge122" class="edge">
<title>Node58&#45;&gt;Node48</title>
<path fill="none" stroke="#63b8ff" d="M588.32,-333.05C661.54,-323.16 794.2,-305.23 870.9,-294.86"/>
<polygon fill="#63b8ff" stroke="#63b8ff" points="871.35,-298.2 880.79,-293.39 870.42,-291.26 871.35,-298.2"/>
</g>
<!-- Node59&#45;&gt;Node4 -->
<g id="edge125" class="edge">
<title>Node59&#45;&gt;Node4</title>
<path fill="none" stroke="#63b8ff" d="M1856.49,-504.83C1937.51,-502.05 2119.36,-492.43 2172,-461.25 2252.25,-413.71 2406.04,-155.44 2447.49,-84.12"/>
<polygon fill="#63b8ff" stroke="#63b8ff" points="2450.98,-86.08 2452.96,-75.67 2444.92,-82.57 2450.98,-86.08"/>
</g>
<!-- Node59&#45;&gt;Node9 -->
<g id="edge128" class="edge">
<title>Node59&#45;&gt;Node9</title>
<path fill="none" stroke="#63b8ff" d="M1777.47,-503.11C1641.24,-493.58 1199.23,-462.6 1192,-461.25 1150.87,-453.57 1051.57,-419.6 1012,-406 900.56,-367.71 859.02,-373.84 771,-295.5 726.12,-255.55 707.61,-220.21 733,-165.75 748.18,-133.19 759.91,-126.64 792,-110.5 858.51,-77.05 946.33,-68.39 997.05,-66.32"/>
<polygon fill="#63b8ff" stroke="#63b8ff" points="997.02,-69.79 1006.89,-65.95 996.78,-62.79 997.02,-69.79"/>
</g>
<!-- Node59&#45;&gt;Node11 -->
<g id="edge126" class="edge">
<title>Node59&#45;&gt;Node11</title>
<path fill="none" stroke="#63b8ff" d="M1820.44,-497.04C1830,-471.22 1855.24,-393.79 1840,-331.5 1832.48,-300.76 1813.67,-268.95 1800.86,-249.73"/>
<polygon fill="#63b8ff" stroke="#63b8ff" points="1803.18,-247.92 1794.64,-241.66 1797.41,-251.88 1803.18,-247.92"/>
</g>
<!-- Node59&#45;&gt;Node24 -->
<g id="edge127" class="edge">
<title>Node59&#45;&gt;Node24</title>
<path fill="none" stroke="#63b8ff" d="M1777.43,-500.67C1700.91,-490.61 1533.29,-468.57 1454.51,-458.21"/>
<polygon fill="#63b8ff" stroke="#63b8ff" points="1455.37,-454.67 1445,-456.83 1454.46,-461.61 1455.37,-454.67"/>
</g>
<!-- Node60&#45;&gt;Node9 -->
<g id="edge135" class="edge">
<title>Node60&#45;&gt;Node9</title>
<path fill="none" stroke="#63b8ff" d="M2065.02,-441.55C2042.45,-434.92 2015.69,-423.87 1997,-406 1951.22,-362.21 1980.71,-323.03 1938,-276.25 1933.82,-271.67 1846.87,-223.01 1841,-221 1733.11,-184.13 1698.89,-206.9 1587,-185 1453.44,-158.86 1423.08,-138.94 1290,-110.5 1215.88,-94.66 1128.63,-80.11 1078.68,-72.17"/>
<polygon fill="#63b8ff" stroke="#63b8ff" points="1079.43,-68.59 1069,-70.49 1078.33,-75.5 1079.43,-68.59"/>
</g>
<!-- Node60&#45;&gt;Node11 -->
<g id="edge133" class="edge">
<title>Node60&#45;&gt;Node11</title>
<path fill="none" stroke="#63b8ff" d="M2114.75,-441.57C2129.76,-420.23 2162.64,-366.02 2137,-331.5 2101.97,-284.33 1932.8,-252.88 1843.49,-239.29"/>
<polygon fill="#63b8ff" stroke="#63b8ff" points="1844.16,-235.7 1833.75,-237.68 1843.12,-242.62 1844.16,-235.7"/>
</g>
<!-- Node60&#45;&gt;Node15 -->
<g id="edge132" class="edge">
<title>Node60&#45;&gt;Node15</title>
<path fill="none" stroke="#63b8ff" d="M2120.99,-441.69C2131.43,-433.68 2145.4,-420.93 2152,-406 2161.94,-383.51 2154.33,-375.33 2155,-350.75 2157.4,-262.39 2150.86,-221.16 2082,-165.75 2055.48,-144.41 1963.01,-131.47 1906.42,-125.37"/>
<polygon fill="#63b8ff" stroke="#63b8ff" points="1906.93,-121.8 1896.62,-124.24 1906.2,-128.76 1906.93,-121.8"/>
</g>
<!-- Node60&#45;&gt;Node19 -->
<g id="edge131" class="edge">
<title>Node60&#45;&gt;Node19</title>
<path fill="none" stroke="#63b8ff" d="M2128.38,-441.56C2142.28,-434.16 2159.63,-422.28 2168,-406 2224.78,-295.52 2164.1,-138.57 2139.98,-84.8"/>
<polygon fill="#63b8ff" stroke="#63b8ff" points="2142.8,-83.56 2135.44,-75.94 2136.44,-86.49 2142.8,-83.56"/>
</g>
<!-- Node60&#45;&gt;Node44 -->
<g id="edge134" class="edge">
<title>Node60&#45;&gt;Node44</title>
<path fill="none" stroke="#63b8ff" d="M2052.43,-447.09C1897.64,-437.24 1463.41,-409.62 1318.64,-400.41"/>
<polygon fill="#63b8ff" stroke="#63b8ff" points="1319.13,-396.87 1308.93,-399.72 1318.69,-403.85 1319.13,-396.87"/>
</g>
<!-- Node60&#45;&gt;Node27 -->
<g id="edge130" class="edge">
<title>Node60&#45;&gt;Node27</title>
<path fill="none" stroke="#63b8ff" d="M2107.75,-441.75C2107.28,-424.42 2106.21,-385.73 2105.55,-361.99"/>
<polygon fill="#63b8ff" stroke="#63b8ff" points="2109.02,-362.03 2105.25,-352.13 2102.03,-362.22 2109.02,-362.03"/>
</g>
<!-- Node62&#45;&gt;Node2 -->
<g id="edge143" class="edge">
<title>Node62&#45;&gt;Node2</title>
<path fill="none" stroke="#63b8ff" d="M725.45,-557.38C633.5,-548.31 407.9,-525.32 394,-516.5 233.04,-414.41 184.42,-158.61 173.6,-85.61"/>
<polygon fill="#63b8ff" stroke="#63b8ff" points="176.95,-85.25 172.09,-75.84 170.02,-86.23 176.95,-85.25"/>
</g>
<!-- Node62&#45;&gt;Node4 -->
<g id="edge142" class="edge">
<title>Node62&#45;&gt;Node4</title>
<path fill="none" stroke="#63b8ff" d="M802.61,-561.06C1000.05,-560.52 1898.37,-555.95 2174,-516.5 2271.24,-502.58 2305.01,-513.81 2388,-461.25 2464.39,-412.87 2486.27,-383.75 2506,-295.5 2524.09,-214.59 2510.04,-188.53 2482,-110.5 2478.73,-101.41 2473.85,-91.9 2469.34,-84.01"/>
<polygon fill="#63b8ff" stroke="#63b8ff" points="2471.93,-82.52 2463.79,-75.74 2465.92,-86.11 2471.93,-82.52"/>
</g>
<!-- Node62&#45;&gt;Node5 -->
<g id="edge144" class="edge">
<title>Node62&#45;&gt;Node5</title>
<path fill="none" stroke="#63b8ff" d="M725.25,-556.74C643.22,-547.31 458.63,-525.24 448,-516.5 307.96,-401.32 249.24,-198.09 408,-110.5 568.9,-21.73 1941.48,-11.81 2183.59,-10.75"/>
<polygon fill="#63b8ff" stroke="#63b8ff" points="2183.58,-14.24 2193.57,-10.7 2183.55,-7.24 2183.58,-14.24"/>
</g>
<!-- Node62&#45;&gt;Node7 -->
<g id="edge145" class="edge">
<title>Node62&#45;&gt;Node7</title>
<path fill="none" stroke="#63b8ff" d="M764.13,-552.31C764.8,-508.56 767.75,-314.3 768.7,-251.37"/>
<polygon fill="#63b8ff" stroke="#63b8ff" points="772.21,-251.67 768.86,-241.62 765.21,-251.57 772.21,-251.67"/>
</g>
<!-- Node62&#45;&gt;Node9 -->
<g id="edge150" class="edge">
<title>Node62&#45;&gt;Node9</title>
<path fill="none" stroke="#63b8ff" d="M754.93,-552.2C713.24,-510.05 544.12,-326.29 594,-165.75 602.84,-137.29 606.42,-125.79 632,-110.5 692.85,-74.12 906.32,-67.35 996.88,-66.12"/>
<polygon fill="#63b8ff" stroke="#63b8ff" points="996.85,-69.61 1006.81,-66 996.77,-62.61 996.85,-69.61"/>
</g>
<!-- Node62&#45;&gt;Node11 -->
<g id="edge147" class="edge">
<title>Node62&#45;&gt;Node11</title>
<path fill="none" stroke="#63b8ff" d="M802.56,-561.05C929.54,-560.43 1333.52,-555.37 1457,-516.5 1502.13,-502.29 1508.45,-487.22 1548,-461.25 1583.51,-437.93 1594.68,-434.71 1626,-406 1681.73,-354.91 1682.7,-329.87 1736,-276.25 1746.02,-266.17 1758.01,-255.79 1767.95,-247.57"/>
<polygon fill="#63b8ff" stroke="#63b8ff" points="1769.83,-249.73 1775.38,-240.71 1765.42,-244.3 1769.83,-249.73"/>
</g>
<!-- Node62&#45;&gt;Node13 -->
<g id="edge146" class="edge">
<title>Node62&#45;&gt;Node13</title>
<path fill="none" stroke="#63b8ff" d="M725.15,-556.55C646.32,-547.09 474.25,-525.53 465,-516.5 418.88,-471.46 408.61,-261.92 406.5,-196.17"/>
<polygon fill="#63b8ff" stroke="#63b8ff" points="409.98,-196.22 406.19,-186.33 402.98,-196.42 409.98,-196.22"/>
</g>
<!-- Node62&#45;&gt;Node21 -->
<g id="edge148" class="edge">
<title>Node62&#45;&gt;Node21</title>
<path fill="none" stroke="#63b8ff" d="M767.6,-552.04C780.4,-520.01 824.37,-412.91 850,-386.75 924.64,-310.57 963.31,-314.14 1063,-276.25 1260.13,-201.33 1506.59,-151.5 1617.34,-131.29"/>
<polygon fill="#63b8ff" stroke="#63b8ff" points="1617.73,-134.6 1626.94,-129.37 1616.48,-127.71 1617.73,-134.6"/>
</g>
<!-- Node62&#45;&gt;Node52 -->
<g id="edge149" class="edge">
<title>Node62&#45;&gt;Node52</title>
<path fill="none" stroke="#63b8ff" d="M802.59,-557.95C915.15,-548.7 1242.8,-521.78 1365.17,-511.72"/>
<polygon fill="#63b8ff" stroke="#63b8ff" points="1365.34,-515.14 1375.02,-510.83 1364.77,-508.16 1365.34,-515.14"/>
</g>
<!-- Node63&#45;&gt;Node5 -->
<g id="edge152" class="edge">
<title>Node63&#45;&gt;Node5</title>
<path fill="none" stroke="#63b8ff" d="M2441.95,-331.05C2550.06,-297.03 2907.05,-173.01 2777,-55.25 2738.46,-20.35 2373.92,-12.61 2256.35,-11.01"/>
<polygon fill="#63b8ff" stroke="#63b8ff" points="2256.5,-7.5 2246.45,-10.87 2256.41,-14.5 2256.5,-7.5"/>
</g>
<!-- Node63&#45;&gt;Node9 -->
<g id="edge157" class="edge">
<title>Node63&#45;&gt;Node9</title>
<path fill="none" stroke="#63b8ff" d="M2383.74,-331.11C2317.28,-310.09 2145.67,-256.9 2000,-221 1762.14,-162.38 1702.09,-147.98 1460,-110.5 1320.98,-88.98 1154.57,-74.73 1078.97,-68.89"/>
<polygon fill="#63b8ff" stroke="#63b8ff" points="1079.3,-65.32 1069.06,-68.05 1078.76,-72.3 1079.3,-65.32"/>
</g>
<!-- Node64 -->
<g id="node50" class="node">
<title>Node64</title>
<g id="a_node50"><a xlink:href="v8-embedder-state-scope_8h.html" target="_top" xlink:title=" ">
<polygon fill="white" stroke="#666666" points="2481.88,-295.5 2348.12,-295.5 2348.12,-276.25 2481.88,-276.25 2481.88,-295.5"/>
<text text-anchor="middle" x="2415" y="-282" font-family="Helvetica,sans-Serif" font-size="10.00">v8&#45;embedder&#45;state&#45;scope.h</text>
</a>
</g>
</g>
<!-- Node63&#45;&gt;Node64 -->
<g id="edge153" class="edge">
<title>Node63&#45;&gt;Node64</title>
<path fill="none" stroke="#63b8ff" d="M2412.5,-331.33C2412.87,-324.67 2413.4,-315.24 2413.88,-306.78"/>
<polygon fill="#63b8ff" stroke="#63b8ff" points="2417.43,-307.04 2414.49,-296.86 2410.44,-306.65 2417.43,-307.04"/>
</g>
<!-- Node64&#45;&gt;Node5 -->
<g id="edge154" class="edge">
<title>Node64&#45;&gt;Node5</title>
<path fill="none" stroke="#63b8ff" d="M2454.79,-275.81C2564.82,-249.08 2858.46,-165.49 2757,-55.25 2723.13,-18.44 2371.03,-11.99 2256.08,-10.86"/>
<polygon fill="#63b8ff" stroke="#63b8ff" points="2256.44,-7.36 2246.41,-10.77 2256.37,-14.36 2256.44,-7.36"/>
</g>
<!-- Node64&#45;&gt;Node11 -->
<g id="edge156" class="edge">
<title>Node64&#45;&gt;Node11</title>
<path fill="none" stroke="#63b8ff" d="M2347.9,-279.18C2223.34,-268.6 1958.59,-246.11 1843.43,-236.33"/>
<polygon fill="#63b8ff" stroke="#63b8ff" points="1844.02,-232.79 1833.76,-235.43 1843.43,-239.76 1844.02,-232.79"/>
</g>
<!-- Node64&#45;&gt;Node15 -->
<g id="edge155" class="edge">
<title>Node64&#45;&gt;Node15</title>
<path fill="none" stroke="#63b8ff" d="M2406.86,-276.01C2385.22,-253.11 2323.44,-191.93 2258,-165.75 2195.09,-140.58 1996.94,-127.84 1906.64,-123.21"/>
<polygon fill="#63b8ff" stroke="#63b8ff" points="1906.83,-119.67 1896.66,-122.66 1906.48,-126.66 1906.83,-119.67"/>
</g>
</g>
</svg>
