<?xml version="1.0" encoding="UTF-8" standalone="no"?>
<!DOCTYPE svg PUBLIC "-//W3C//DTD SVG 1.1//EN"
 "http://www.w3.org/Graphics/SVG/1.1/DTD/svg11.dtd">
<!-- Generated by graphviz version 8.0.5 (20230430.1635)
 -->
<!-- Title: include/v8&#45;isolate.h Pages: 1 -->
<svg width="3279pt" height="746pt"
 viewBox="0.00 0.00 3279.06 745.50" xmlns="http://www.w3.org/2000/svg" xmlns:xlink="http://www.w3.org/1999/xlink">
<g id="graph0" class="graph" transform="scale(1 1) rotate(0) translate(4 741.5)">
<title>include/v8&#45;isolate.h</title>
<!-- Node1 -->
<g id="node1" class="node">
<title>Node1</title>
<g id="a_node1"><a xlink:title=" ">
<polygon fill="#999999" stroke="#666666" points="1947.62,-737.5 1848.38,-737.5 1848.38,-718.25 1947.62,-718.25 1947.62,-737.5"/>
<text text-anchor="middle" x="1898" y="-724" font-family="Helvetica,sans-Serif" font-size="10.00">include/v8&#45;isolate.h</text>
</a>
</g>
</g>
<!-- Node2 -->
<g id="node2" class="node">
<title>Node2</title>
<g id="a_node2"><a xlink:title=" ">
<polygon fill="#e0e0e0" stroke="#999999" points="921.25,-74.5 870.75,-74.5 870.75,-55.25 921.25,-55.25 921.25,-74.5"/>
<text text-anchor="middle" x="896" y="-61" font-family="Helvetica,sans-Serif" font-size="10.00">stddef.h</text>
</a>
</g>
</g>
<!-- Node1&#45;&gt;Node2 -->
<g id="edge1" class="edge">
<title>Node1&#45;&gt;Node2</title>
<path fill="none" stroke="#63b8ff" d="M1848.16,-725.99C1585.51,-721.03 374,-694.06 374,-618.38 374,-618.38 374,-618.38 374,-561.12 374,-482.95 360.21,-455.72 397,-386.75 466.95,-255.61 529.12,-254.97 648,-165.75 684.63,-138.25 693.14,-129.1 735,-110.5 776.08,-92.25 826.43,-79.74 859.77,-72.71"/>
<polygon fill="#63b8ff" stroke="#63b8ff" points="860.29,-75.97 869.38,-70.54 858.88,-69.11 860.29,-75.97"/>
</g>
<!-- Node3 -->
<g id="node3" class="node">
<title>Node3</title>
<g id="a_node3"><a xlink:title=" ">
<polygon fill="#e0e0e0" stroke="#999999" points="327.75,-74.5 280.25,-74.5 280.25,-55.25 327.75,-55.25 327.75,-74.5"/>
<text text-anchor="middle" x="304" y="-61" font-family="Helvetica,sans-Serif" font-size="10.00">stdint.h</text>
</a>
</g>
</g>
<!-- Node1&#45;&gt;Node3 -->
<g id="edge2" class="edge">
<title>Node1&#45;&gt;Node3</title>
<path fill="none" stroke="#63b8ff" d="M1847.95,-726.52C1558.73,-724.13 114,-707.73 114,-618.38 114,-618.38 114,-618.38 114,-174.38 114,-103.66 214.49,-78.41 269.3,-69.9"/>
<polygon fill="#63b8ff" stroke="#63b8ff" points="269.54,-73.26 278.94,-68.37 268.54,-66.33 269.54,-73.26"/>
</g>
<!-- Node4 -->
<g id="node4" class="node">
<title>Node4</title>
<g id="a_node4"><a xlink:title=" ">
<polygon fill="#e0e0e0" stroke="#999999" points="1394.25,-19.25 1343.75,-19.25 1343.75,0 1394.25,0 1394.25,-19.25"/>
<text text-anchor="middle" x="1369" y="-5.75" font-family="Helvetica,sans-Serif" font-size="10.00">memory</text>
</a>
</g>
</g>
<!-- Node1&#45;&gt;Node4 -->
<g id="edge3" class="edge">
<title>Node1&#45;&gt;Node4</title>
<path fill="none" stroke="#63b8ff" d="M1948.1,-726.15C2148.23,-723.06 2884.45,-709.93 2985,-682.25 3042.5,-666.42 3103,-678.01 3103,-618.38 3103,-618.38 3103,-618.38 3103,-119.12 3103,-102.54 3628.56,-156.13 2820,-55.25 2534.18,-19.59 1602.02,-12.03 1405.56,-10.82"/>
<polygon fill="#63b8ff" stroke="#63b8ff" points="1405.72,-7.32 1395.7,-10.76 1405.68,-14.32 1405.72,-7.32"/>
</g>
<!-- Node5 -->
<g id="node5" class="node">
<title>Node5</title>
<g id="a_node5"><a xlink:title=" ">
<polygon fill="#e0e0e0" stroke="#999999" points="148,-74.5 108,-74.5 108,-55.25 148,-55.25 148,-74.5"/>
<text text-anchor="middle" x="128" y="-61" font-family="Helvetica,sans-Serif" font-size="10.00">string</text>
</a>
</g>
</g>
<!-- Node1&#45;&gt;Node5 -->
<g id="edge4" class="edge">
<title>Node1&#45;&gt;Node5</title>
<path fill="none" stroke="#63b8ff" d="M1848.18,-727.19C1609.31,-728.42 579.83,-730.77 263,-682.25 160.25,-666.52 38,-722.33 38,-618.38 38,-618.38 38,-618.38 38,-174.38 38,-133.18 76.91,-99.25 103.56,-80.84"/>
<polygon fill="#63b8ff" stroke="#63b8ff" points="105.32,-83.21 111.73,-74.78 101.46,-77.37 105.32,-83.21"/>
</g>
<!-- Node6 -->
<g id="node6" class="node">
<title>Node6</title>
<g id="a_node6"><a xlink:title=" ">
<polygon fill="#e0e0e0" stroke="#999999" points="1048.25,-240.25 1009.75,-240.25 1009.75,-221 1048.25,-221 1048.25,-240.25"/>
<text text-anchor="middle" x="1029" y="-226.75" font-family="Helvetica,sans-Serif" font-size="10.00">utility</text>
</a>
</g>
</g>
<!-- Node1&#45;&gt;Node6 -->
<g id="edge5" class="edge">
<title>Node1&#45;&gt;Node6</title>
<path fill="none" stroke="#63b8ff" d="M1848.05,-726.5C1651.76,-724.35 944,-710.26 944,-618.38 944,-618.38 944,-618.38 944,-450.62 944,-371.22 993.16,-285.92 1016.71,-249.63"/>
<polygon fill="#63b8ff" stroke="#63b8ff" points="1020,-252 1022.61,-241.73 1014.17,-248.13 1020,-252"/>
</g>
<!-- Node7 -->
<g id="node7" class="node">
<title>Node7</title>
<g id="a_node7"><a xlink:href="common_8h.html" target="_top" xlink:title=" ">
<polygon fill="white" stroke="#666666" points="3013.12,-516.5 2922.88,-516.5 2922.88,-497.25 3013.12,-497.25 3013.12,-516.5"/>
<text text-anchor="middle" x="2968" y="-503" font-family="Helvetica,sans-Serif" font-size="10.00">cppgc/common.h</text>
</a>
</g>
</g>
<!-- Node1&#45;&gt;Node7 -->
<g id="edge6" class="edge">
<title>Node1&#45;&gt;Node7</title>
<path fill="none" stroke="#63b8ff" d="M1948.02,-726.23C2146.58,-723.45 2870.24,-711.37 2909,-682.25 2958.36,-645.17 2966.82,-564.77 2968,-527.53"/>
<polygon fill="#63b8ff" stroke="#63b8ff" points="2971.51,-527.74 2968.17,-517.68 2964.52,-527.63 2971.51,-527.74"/>
</g>
<!-- Node8 -->
<g id="node8" class="node">
<title>Node8</title>
<g id="a_node8"><a xlink:href="v8config_8h.html" target="_top" xlink:title=" ">
<polygon fill="white" stroke="#666666" points="2363.75,-74.5 2304.25,-74.5 2304.25,-55.25 2363.75,-55.25 2363.75,-74.5"/>
<text text-anchor="middle" x="2334" y="-61" font-family="Helvetica,sans-Serif" font-size="10.00">v8config.h</text>
</a>
</g>
</g>
<!-- Node1&#45;&gt;Node8 -->
<g id="edge160" class="edge">
<title>Node1&#45;&gt;Node8</title>
<path fill="none" stroke="#63b8ff" d="M1948.12,-726.74C2150.3,-725.56 2895,-714.68 2895,-618.38 2895,-618.38 2895,-618.38 2895,-561.12 2895,-413.2 2942,-379.55 2942,-231.62 2942,-231.62 2942,-231.62 2942,-174.38 2942,-137.77 2922.41,-127.53 2890,-110.5 2844.74,-86.72 2495.77,-71.8 2374.99,-67.31"/>
<polygon fill="#63b8ff" stroke="#63b8ff" points="2375.15,-63.78 2365.03,-66.91 2374.89,-70.77 2375.15,-63.78"/>
</g>
<!-- Node9 -->
<g id="node9" class="node">
<title>Node9</title>
<g id="a_node9"><a xlink:href="v8-array-buffer_8h.html" target="_top" xlink:title=" ">
<polygon fill="white" stroke="#666666" points="821.5,-516.5 736.5,-516.5 736.5,-497.25 821.5,-497.25 821.5,-516.5"/>
<text text-anchor="middle" x="779" y="-503" font-family="Helvetica,sans-Serif" font-size="10.00">v8&#45;array&#45;buffer.h</text>
</a>
</g>
</g>
<!-- Node1&#45;&gt;Node9 -->
<g id="edge9" class="edge">
<title>Node1&#45;&gt;Node9</title>
<path fill="none" stroke="#63b8ff" d="M1848.06,-726.87C1661.62,-726.52 1012.83,-722.42 930,-682.25 859.49,-648.05 808.55,-564.25 788.45,-526.66"/>
<polygon fill="#63b8ff" stroke="#63b8ff" points="791.14,-525.23 783.42,-517.97 784.93,-528.46 791.14,-525.23"/>
</g>
<!-- Node10 -->
<g id="node10" class="node">
<title>Node10</title>
<g id="a_node10"><a xlink:href="v8-local-handle_8h.html" target="_top" xlink:title=" ">
<polygon fill="white" stroke="#666666" points="1620.38,-240.25 1531.62,-240.25 1531.62,-221 1620.38,-221 1620.38,-240.25"/>
<text text-anchor="middle" x="1576" y="-226.75" font-family="Helvetica,sans-Serif" font-size="10.00">v8&#45;local&#45;handle.h</text>
</a>
</g>
</g>
<!-- Node1&#45;&gt;Node10 -->
<g id="edge139" class="edge">
<title>Node1&#45;&gt;Node10</title>
<path fill="none" stroke="#63b8ff" d="M1886.02,-717.9C1844.62,-686.42 1705.31,-576.68 1618,-461.25 1571.74,-400.08 1573.46,-372.12 1570,-295.5 1569.61,-286.95 1569.43,-284.79 1570,-276.25 1570.55,-268.06 1571.66,-259.08 1572.77,-251.34"/>
<polygon fill="#63b8ff" stroke="#63b8ff" points="1576.38,-251.9 1574.45,-241.48 1569.46,-250.83 1576.38,-251.9"/>
</g>
<!-- Node14 -->
<g id="node14" class="node">
<title>Node14</title>
<g id="a_node14"><a xlink:href="v8-internal_8h.html" target="_top" xlink:title=" ">
<polygon fill="white" stroke="#666666" points="1699.25,-129.75 1630.75,-129.75 1630.75,-110.5 1699.25,-110.5 1699.25,-129.75"/>
<text text-anchor="middle" x="1665" y="-116.25" font-family="Helvetica,sans-Serif" font-size="10.00">v8&#45;internal.h</text>
</a>
</g>
</g>
<!-- Node1&#45;&gt;Node14 -->
<g id="edge138" class="edge">
<title>Node1&#45;&gt;Node14</title>
<path fill="none" stroke="#63b8ff" d="M1948.07,-725.89C2069.54,-722.16 2370,-704.24 2370,-618.38 2370,-618.38 2370,-618.38 2370,-561.12 2370,-550.39 2118.46,-281.32 2109,-276.25 2017.01,-227 1975.23,-275.44 1877,-240.25 1815.75,-218.31 1807.89,-197.3 1751,-165.75 1731.87,-155.14 1709.99,-143.8 1693.09,-135.2"/>
<polygon fill="#63b8ff" stroke="#63b8ff" points="1694.78,-131.63 1684.27,-130.24 1691.62,-137.88 1694.78,-131.63"/>
</g>
<!-- Node40 -->
<g id="node27" class="node">
<title>Node40</title>
<g id="a_node27"><a xlink:href="v8-persistent-handle_8h.html" target="_top" xlink:title=" ">
<polygon fill="white" stroke="#666666" points="2343.62,-295.5 2232.38,-295.5 2232.38,-276.25 2343.62,-276.25 2343.62,-295.5"/>
<text text-anchor="middle" x="2288" y="-282" font-family="Helvetica,sans-Serif" font-size="10.00">v8&#45;persistent&#45;handle.h</text>
</a>
</g>
</g>
<!-- Node1&#45;&gt;Node40 -->
<g id="edge141" class="edge">
<title>Node1&#45;&gt;Node40</title>
<path fill="none" stroke="#63b8ff" d="M1948.03,-726.43C2142.99,-724.03 2841,-709.12 2841,-618.38 2841,-618.38 2841,-618.38 2841,-450.62 2841,-350.26 2501.84,-306.66 2354.74,-292.48"/>
<polygon fill="#63b8ff" stroke="#63b8ff" points="2355.35,-288.92 2345.07,-291.47 2354.69,-295.89 2355.35,-288.92"/>
</g>
<!-- Node43 -->
<g id="node29" class="node">
<title>Node43</title>
<g id="a_node29"><a xlink:href="v8-primitive_8h.html" target="_top" xlink:title=" ">
<polygon fill="white" stroke="#666666" points="2113.88,-406 2040.12,-406 2040.12,-386.75 2113.88,-386.75 2113.88,-406"/>
<text text-anchor="middle" x="2077" y="-392.5" font-family="Helvetica,sans-Serif" font-size="10.00">v8&#45;primitive.h</text>
</a>
</g>
</g>
<!-- Node1&#45;&gt;Node43 -->
<g id="edge142" class="edge">
<title>Node1&#45;&gt;Node43</title>
<path fill="none" stroke="#63b8ff" d="M1919.36,-717.84C1972.33,-694.11 2109.2,-624.27 2161,-516.5 2180.57,-475.78 2131.99,-433.92 2100.8,-412.31"/>
<polygon fill="#63b8ff" stroke="#63b8ff" points="2103.03,-408.93 2092.77,-406.28 2099.14,-414.75 2103.03,-408.93"/>
</g>
<!-- Node44 -->
<g id="node30" class="node">
<title>Node44</title>
<g id="a_node30"><a xlink:href="v8-data_8h.html" target="_top" xlink:title=" ">
<polygon fill="white" stroke="#666666" points="2099.88,-295.5 2044.12,-295.5 2044.12,-276.25 2099.88,-276.25 2099.88,-295.5"/>
<text text-anchor="middle" x="2072" y="-282" font-family="Helvetica,sans-Serif" font-size="10.00">v8&#45;data.h</text>
</a>
</g>
</g>
<!-- Node1&#45;&gt;Node44 -->
<g id="edge108" class="edge">
<title>Node1&#45;&gt;Node44</title>
<path fill="none" stroke="#63b8ff" d="M1948.12,-725.14C2119.42,-718.55 2671,-691.64 2671,-618.38 2671,-618.38 2671,-618.38 2671,-505.88 2671,-359.65 2529.43,-381.45 2392,-331.5 2341.04,-312.98 2184.55,-296.98 2110.99,-290.26"/>
<polygon fill="#63b8ff" stroke="#63b8ff" points="2111.61,-286.71 2101.34,-289.3 2110.98,-293.68 2111.61,-286.71"/>
</g>
<!-- Node49 -->
<g id="node39" class="node">
<title>Node49</title>
<g id="a_node39"><a xlink:href="v8-callbacks_8h.html" target="_top" xlink:title=" ">
<polygon fill="white" stroke="#666666" points="1937.12,-571.75 1858.88,-571.75 1858.88,-552.5 1937.12,-552.5 1937.12,-571.75"/>
<text text-anchor="middle" x="1898" y="-558.25" font-family="Helvetica,sans-Serif" font-size="10.00">v8&#45;callbacks.h</text>
</a>
</g>
</g>
<!-- Node1&#45;&gt;Node49 -->
<g id="edge96" class="edge">
<title>Node1&#45;&gt;Node49</title>
<path fill="none" stroke="#63b8ff" d="M1898,-718.07C1898,-692.64 1898,-618.6 1898,-582.87"/>
<polygon fill="#63b8ff" stroke="#63b8ff" points="1901.5,-582.97 1898,-572.97 1894.5,-582.97 1901.5,-582.97"/>
</g>
<!-- Node52 -->
<g id="node42" class="node">
<title>Node52</title>
<g id="a_node42"><a xlink:href="v8-debug_8h.html" target="_top" xlink:title=" ">
<polygon fill="white" stroke="#666666" points="1353.62,-682.25 1290.38,-682.25 1290.38,-663 1353.62,-663 1353.62,-682.25"/>
<text text-anchor="middle" x="1322" y="-668.75" font-family="Helvetica,sans-Serif" font-size="10.00">v8&#45;debug.h</text>
</a>
</g>
</g>
<!-- Node1&#45;&gt;Node52 -->
<g id="edge109" class="edge">
<title>Node1&#45;&gt;Node52</title>
<path fill="none" stroke="#63b8ff" d="M1847.88,-722.95C1757.22,-715.75 1560,-699.54 1394,-682.25 1384.45,-681.26 1374.19,-680.09 1364.51,-678.94"/>
<polygon fill="#63b8ff" stroke="#63b8ff" points="1365.22,-675.38 1354.88,-677.66 1364.39,-682.33 1365.22,-675.38"/>
</g>
<!-- Node57 -->
<g id="node44" class="node">
<title>Node57</title>
<g id="a_node44"><a xlink:href="v8-embedder-heap_8h.html" target="_top" xlink:title=" ">
<polygon fill="white" stroke="#666666" points="1455.88,-350.75 1352.12,-350.75 1352.12,-331.5 1455.88,-331.5 1455.88,-350.75"/>
<text text-anchor="middle" x="1404" y="-337.25" font-family="Helvetica,sans-Serif" font-size="10.00">v8&#45;embedder&#45;heap.h</text>
</a>
</g>
</g>
<!-- Node1&#45;&gt;Node57 -->
<g id="edge123" class="edge">
<title>Node1&#45;&gt;Node57</title>
<path fill="none" stroke="#63b8ff" d="M1848.32,-726.33C1723.75,-723.61 1408,-707.9 1408,-618.38 1408,-618.38 1408,-618.38 1408,-450.62 1408,-419.6 1406.35,-383.61 1405.17,-361.87"/>
<polygon fill="#63b8ff" stroke="#63b8ff" points="1408.62,-361.91 1404.56,-352.12 1401.63,-362.31 1408.62,-361.91"/>
</g>
<!-- Node58 -->
<g id="node45" class="node">
<title>Node58</title>
<g id="a_node45"><a xlink:href="v8-exception_8h.html" target="_top" xlink:title=" ">
<polygon fill="white" stroke="#666666" points="1844.12,-516.5 1765.88,-516.5 1765.88,-497.25 1844.12,-497.25 1844.12,-516.5"/>
<text text-anchor="middle" x="1805" y="-503" font-family="Helvetica,sans-Serif" font-size="10.00">v8&#45;exception.h</text>
</a>
</g>
</g>
<!-- Node1&#45;&gt;Node58 -->
<g id="edge126" class="edge">
<title>Node1&#45;&gt;Node58</title>
<path fill="none" stroke="#63b8ff" d="M1894.24,-718.02C1880.39,-685.41 1832.06,-571.61 1812.91,-526.5"/>
<polygon fill="#63b8ff" stroke="#63b8ff" points="1815.84,-525.44 1808.71,-517.6 1809.39,-528.17 1815.84,-525.44"/>
</g>
<!-- Node59 -->
<g id="node46" class="node">
<title>Node59</title>
<g id="a_node46"><a xlink:href="v8-function-callback_8h.html" target="_top" xlink:title=" ">
<polygon fill="white" stroke="#666666" points="2415.25,-461.25 2304.75,-461.25 2304.75,-442 2415.25,-442 2415.25,-461.25"/>
<text text-anchor="middle" x="2360" y="-447.75" font-family="Helvetica,sans-Serif" font-size="10.00">v8&#45;function&#45;callback.h</text>
</a>
</g>
</g>
<!-- Node1&#45;&gt;Node59 -->
<g id="edge131" class="edge">
<title>Node1&#45;&gt;Node59</title>
<path fill="none" stroke="#63b8ff" d="M1947.9,-725.27C2064.95,-721.07 2349.85,-708.29 2384,-682.25 2408.12,-663.86 2408,-648.7 2408,-618.38 2408,-618.38 2408,-618.38 2408,-561.12 2408,-526.78 2387.64,-491.16 2373.44,-470.48"/>
<polygon fill="#63b8ff" stroke="#63b8ff" points="2375.75,-468.69 2367.08,-462.6 2370.06,-472.77 2375.75,-468.69"/>
</g>
<!-- Node60 -->
<g id="node47" class="node">
<title>Node60</title>
<g id="a_node47"><a xlink:href="v8-microtask_8h.html" target="_top" xlink:title=" ">
<polygon fill="white" stroke="#666666" points="3210.88,-682.25 3131.12,-682.25 3131.12,-663 3210.88,-663 3210.88,-682.25"/>
<text text-anchor="middle" x="3171" y="-668.75" font-family="Helvetica,sans-Serif" font-size="10.00">v8&#45;microtask.h</text>
</a>
</g>
</g>
<!-- Node1&#45;&gt;Node60 -->
<g id="edge140" class="edge">
<title>Node1&#45;&gt;Node60</title>
<path fill="none" stroke="#63b8ff" d="M1948.08,-727.22C2114.61,-727.91 2664.9,-726.46 3117,-682.25 3117.97,-682.15 3118.95,-682.05 3119.94,-681.95"/>
<polygon fill="#63b8ff" stroke="#63b8ff" points="3120.18,-685.32 3129.67,-680.62 3119.32,-678.37 3120.18,-685.32"/>
</g>
<!-- Node61 -->
<g id="node48" class="node">
<title>Node61</title>
<g id="a_node48"><a xlink:href="v8-statistics_8h.html" target="_top" xlink:title=" ">
<polygon fill="white" stroke="#666666" points="1119.38,-571.75 1042.62,-571.75 1042.62,-552.5 1119.38,-552.5 1119.38,-571.75"/>
<text text-anchor="middle" x="1081" y="-558.25" font-family="Helvetica,sans-Serif" font-size="10.00">v8&#45;statistics.h</text>
</a>
</g>
</g>
<!-- Node1&#45;&gt;Node61 -->
<g id="edge143" class="edge">
<title>Node1&#45;&gt;Node61</title>
<path fill="none" stroke="#63b8ff" d="M1848.2,-726.22C1720.93,-724.09 1386.4,-715.4 1281,-682.25 1208.41,-659.42 1134.4,-605.73 1100.33,-578.92"/>
<polygon fill="#63b8ff" stroke="#63b8ff" points="1102.82,-575.63 1092.82,-572.12 1098.45,-581.1 1102.82,-575.63"/>
</g>
<!-- Node62 -->
<g id="node49" class="node">
<title>Node62</title>
<g id="a_node49"><a xlink:href="v8-unwinder_8h.html" target="_top" xlink:title=" ">
<polygon fill="white" stroke="#666666" points="3075,-350.75 2999,-350.75 2999,-331.5 3075,-331.5 3075,-350.75"/>
<text text-anchor="middle" x="3037" y="-337.25" font-family="Helvetica,sans-Serif" font-size="10.00">v8&#45;unwinder.h</text>
</a>
</g>
</g>
<!-- Node1&#45;&gt;Node62 -->
<g id="edge153" class="edge">
<title>Node1&#45;&gt;Node62</title>
<path fill="none" stroke="#63b8ff" d="M1947.97,-726.13C2141.7,-723.06 2837.21,-710.19 2932,-682.25 2985.86,-666.38 3041,-674.52 3041,-618.38 3041,-618.38 3041,-618.38 3041,-450.62 3041,-419.6 3039.35,-383.61 3038.17,-361.87"/>
<polygon fill="#63b8ff" stroke="#63b8ff" points="3041.62,-361.91 3037.56,-352.12 3034.63,-362.31 3041.62,-361.91"/>
</g>
<!-- Node7&#45;&gt;Node8 -->
<g id="edge7" class="edge">
<title>Node7&#45;&gt;Node8</title>
<path fill="none" stroke="#63b8ff" d="M2968.68,-496.89C2971.22,-462.5 2980,-336 2980,-231.62 2980,-231.62 2980,-231.62 2980,-174.38 2980,-144.05 2980.3,-128.65 2956,-110.5 2909.59,-75.84 2506.08,-67.94 2374.96,-66.29"/>
<polygon fill="#63b8ff" stroke="#63b8ff" points="2375.25,-62.78 2365.21,-66.16 2375.17,-69.78 2375.25,-62.78"/>
</g>
<!-- Node8&#45;&gt;Node4 -->
<g id="edge8" class="edge">
<title>Node8&#45;&gt;Node4</title>
<path fill="none" stroke="#63b8ff" d="M2303.79,-62.21C2161.61,-54.36 1559.5,-21.14 1405.16,-12.62"/>
<polygon fill="#63b8ff" stroke="#63b8ff" points="1405.61,-9.08 1395.43,-12.03 1405.23,-16.07 1405.61,-9.08"/>
</g>
<!-- Node9&#45;&gt;Node2 -->
<g id="edge10" class="edge">
<title>Node9&#45;&gt;Node2</title>
<path fill="none" stroke="#63b8ff" d="M775.42,-496.75C768.51,-478.29 754,-435.07 754,-397.38 754,-397.38 754,-397.38 754,-229.62 754,-159.93 828.34,-105.36 869.44,-80.52"/>
<polygon fill="#63b8ff" stroke="#63b8ff" points="871.02,-83.07 877.87,-74.99 867.47,-77.03 871.02,-83.07"/>
</g>
<!-- Node9&#45;&gt;Node4 -->
<g id="edge11" class="edge">
<title>Node9&#45;&gt;Node4</title>
<path fill="none" stroke="#63b8ff" d="M736.01,-503.19C572.7,-491.84 0,-441.06 0,-286.88 0,-286.88 0,-286.88 0,-119.12 0,-66.76 49.04,-70.93 99,-55.25 219.29,-17.51 1137.21,-11.59 1332.53,-10.75"/>
<polygon fill="#63b8ff" stroke="#63b8ff" points="1332.34,-14.25 1342.33,-10.71 1332.32,-7.25 1332.34,-14.25"/>
</g>
<!-- Node9&#45;&gt;Node8 -->
<g id="edge95" class="edge">
<title>Node9&#45;&gt;Node8</title>
<path fill="none" stroke="#63b8ff" d="M821.99,-497.99C930.73,-477.65 1225.12,-420.11 1465,-350.75 1772.11,-261.95 1836.21,-200.39 2143,-110.5 2194.38,-95.45 2254.69,-82.05 2293.58,-73.96"/>
<polygon fill="#63b8ff" stroke="#63b8ff" points="2293.87,-77.26 2302.96,-71.82 2292.46,-70.41 2293.87,-77.26"/>
</g>
<!-- Node9&#45;&gt;Node10 -->
<g id="edge12" class="edge">
<title>Node9&#45;&gt;Node10</title>
<path fill="none" stroke="#63b8ff" d="M793.93,-496.81C852.1,-461.91 1070.15,-335.34 1267,-276.25 1353.32,-250.34 1457.85,-239.26 1520.54,-234.68"/>
<polygon fill="#63b8ff" stroke="#63b8ff" points="1520.63,-238.11 1530.36,-233.92 1520.14,-231.13 1520.63,-238.11"/>
</g>
<!-- Node20 -->
<g id="node20" class="node">
<title>Node20</title>
<g id="a_node20"><a xlink:href="v8-memory-span_8h.html" target="_top" xlink:title=" ">
<polygon fill="white" stroke="#666666" points="1095.75,-129.75 1000.25,-129.75 1000.25,-110.5 1095.75,-110.5 1095.75,-129.75"/>
<text text-anchor="middle" x="1048" y="-116.25" font-family="Helvetica,sans-Serif" font-size="10.00">v8&#45;memory&#45;span.h</text>
</a>
</g>
</g>
<!-- Node9&#45;&gt;Node20 -->
<g id="edge29" class="edge">
<title>Node9&#45;&gt;Node20</title>
<path fill="none" stroke="#63b8ff" d="M780.81,-496.92C784.38,-478.41 792,-434.56 792,-397.38 792,-397.38 792,-397.38 792,-229.62 792,-144.51 913.45,-125.17 989.05,-121.38"/>
<polygon fill="#63b8ff" stroke="#63b8ff" points="989,-124.84 998.85,-120.93 988.71,-117.85 989,-124.84"/>
</g>
<!-- Node23 -->
<g id="node23" class="node">
<title>Node23</title>
<g id="a_node23"><a xlink:href="v8-object_8h.html" target="_top" xlink:title=" ">
<polygon fill="white" stroke="#666666" points="1929.62,-461.25 1866.38,-461.25 1866.38,-442 1929.62,-442 1929.62,-461.25"/>
<text text-anchor="middle" x="1898" y="-447.75" font-family="Helvetica,sans-Serif" font-size="10.00">v8&#45;object.h</text>
</a>
</g>
</g>
<!-- Node9&#45;&gt;Node23 -->
<g id="edge36" class="edge">
<title>Node9&#45;&gt;Node23</title>
<path fill="none" stroke="#63b8ff" d="M821.84,-503.84C999.53,-495.38 1677.54,-463.12 1855.18,-454.66"/>
<polygon fill="#63b8ff" stroke="#63b8ff" points="1855.09,-458.12 1864.91,-454.15 1854.76,-451.13 1855.09,-458.12"/>
</g>
<!-- Node30 -->
<g id="node35" class="node">
<title>Node30</title>
<g id="a_node35"><a xlink:href="v8-platform_8h.html" target="_top" xlink:title=" ">
<polygon fill="white" stroke="#666666" points="455.12,-185 382.88,-185 382.88,-165.75 455.12,-165.75 455.12,-185"/>
<text text-anchor="middle" x="419" y="-171.5" font-family="Helvetica,sans-Serif" font-size="10.00">v8&#45;platform.h</text>
</a>
</g>
</g>
<!-- Node9&#45;&gt;Node30 -->
<g id="edge83" class="edge">
<title>Node9&#45;&gt;Node30</title>
<path fill="none" stroke="#63b8ff" d="M769.37,-497.06C720.67,-452.49 501.31,-251.71 436.86,-192.72"/>
<polygon fill="#63b8ff" stroke="#63b8ff" points="439.57,-190.54 429.83,-186.37 434.84,-195.7 439.57,-190.54"/>
</g>
<!-- Node10&#45;&gt;Node2 -->
<g id="edge13" class="edge">
<title>Node10&#45;&gt;Node2</title>
<path fill="none" stroke="#63b8ff" d="M1554.49,-220.61C1534.25,-211.96 1503.23,-198.3 1477,-185 1461.51,-177.15 1459.32,-171.67 1443,-165.75 1258.47,-98.83 1021.98,-75.21 932.49,-68.32"/>
<polygon fill="#63b8ff" stroke="#63b8ff" points="932.82,-64.76 922.59,-67.51 932.3,-71.74 932.82,-64.76"/>
</g>
<!-- Node11 -->
<g id="node11" class="node">
<title>Node11</title>
<g id="a_node11"><a xlink:title=" ">
<polygon fill="#e0e0e0" stroke="#999999" points="1353.5,-74.5 1292.5,-74.5 1292.5,-55.25 1353.5,-55.25 1353.5,-74.5"/>
<text text-anchor="middle" x="1323" y="-61" font-family="Helvetica,sans-Serif" font-size="10.00">type_traits</text>
</a>
</g>
</g>
<!-- Node10&#45;&gt;Node11 -->
<g id="edge14" class="edge">
<title>Node10&#45;&gt;Node11</title>
<path fill="none" stroke="#63b8ff" d="M1562.04,-220.59C1520.48,-193.69 1397.31,-113.97 1345.92,-80.71"/>
<polygon fill="#63b8ff" stroke="#63b8ff" points="1348.22,-77.38 1337.92,-74.88 1344.41,-83.26 1348.22,-77.38"/>
</g>
<!-- Node12 -->
<g id="node12" class="node">
<title>Node12</title>
<g id="a_node12"><a xlink:title=" ">
<polygon fill="#e0e0e0" stroke="#999999" points="1433.5,-185 1390.5,-185 1390.5,-165.75 1433.5,-165.75 1433.5,-185"/>
<text text-anchor="middle" x="1412" y="-171.5" font-family="Helvetica,sans-Serif" font-size="10.00">vector</text>
</a>
</g>
</g>
<!-- Node10&#45;&gt;Node12 -->
<g id="edge15" class="edge">
<title>Node10&#45;&gt;Node12</title>
<path fill="none" stroke="#63b8ff" d="M1548.18,-220.59C1519.37,-211.24 1474.4,-196.64 1444.1,-186.8"/>
<polygon fill="#63b8ff" stroke="#63b8ff" points="1445.25,-183.17 1434.66,-183.41 1443.09,-189.82 1445.25,-183.17"/>
</g>
<!-- Node13 -->
<g id="node13" class="node">
<title>Node13</title>
<g id="a_node13"><a xlink:href="v8-handle-base_8h.html" target="_top" xlink:title=" ">
<polygon fill="white" stroke="#666666" points="1617.75,-185 1528.25,-185 1528.25,-165.75 1617.75,-165.75 1617.75,-185"/>
<text text-anchor="middle" x="1573" y="-171.5" font-family="Helvetica,sans-Serif" font-size="10.00">v8&#45;handle&#45;base.h</text>
</a>
</g>
</g>
<!-- Node10&#45;&gt;Node13 -->
<g id="edge16" class="edge">
<title>Node10&#45;&gt;Node13</title>
<path fill="none" stroke="#63b8ff" d="M1575.5,-220.83C1575.13,-214.17 1574.6,-204.74 1574.12,-196.28"/>
<polygon fill="#63b8ff" stroke="#63b8ff" points="1577.56,-196.15 1573.51,-186.36 1570.57,-196.54 1577.56,-196.15"/>
</g>
<!-- Node10&#45;&gt;Node14 -->
<g id="edge28" class="edge">
<title>Node10&#45;&gt;Node14</title>
<path fill="none" stroke="#63b8ff" d="M1588.32,-220.65C1599.31,-212.24 1615.41,-198.92 1627,-185 1638.73,-170.92 1649.14,-152.8 1656.08,-139.46"/>
<polygon fill="#63b8ff" stroke="#63b8ff" points="1659.5,-141.46 1660.87,-130.95 1653.25,-138.31 1659.5,-141.46"/>
</g>
<!-- Node13&#45;&gt;Node14 -->
<g id="edge17" class="edge">
<title>Node13&#45;&gt;Node14</title>
<path fill="none" stroke="#63b8ff" d="M1588.61,-165.34C1602.62,-157.23 1623.43,-145.18 1639.8,-135.71"/>
<polygon fill="#63b8ff" stroke="#63b8ff" points="1641.42,-138.24 1648.32,-130.2 1637.91,-132.18 1641.42,-138.24"/>
</g>
<!-- Node14&#45;&gt;Node2 -->
<g id="edge18" class="edge">
<title>Node14&#45;&gt;Node2</title>
<path fill="none" stroke="#63b8ff" d="M1630.46,-116.73C1503.37,-107.93 1062.32,-77.39 932.32,-68.39"/>
<polygon fill="#63b8ff" stroke="#63b8ff" points="932.64,-64.83 922.42,-67.64 932.16,-71.82 932.64,-64.83"/>
</g>
<!-- Node14&#45;&gt;Node3 -->
<g id="edge19" class="edge">
<title>Node14&#45;&gt;Node3</title>
<path fill="none" stroke="#63b8ff" d="M1630.33,-117.77C1440.58,-110.34 529.4,-74.69 338.95,-67.24"/>
<polygon fill="#63b8ff" stroke="#63b8ff" points="339.32,-63.72 329.19,-66.82 339.04,-70.71 339.32,-63.72"/>
</g>
<!-- Node14&#45;&gt;Node4 -->
<g id="edge24" class="edge">
<title>Node14&#45;&gt;Node4</title>
<path fill="none" stroke="#63b8ff" d="M1640.27,-110.06C1587.71,-90.79 1464.73,-45.72 1404.09,-23.49"/>
<polygon fill="#63b8ff" stroke="#63b8ff" points="1405.46,-19.9 1394.87,-19.74 1403.05,-26.47 1405.46,-19.9"/>
</g>
<!-- Node14&#45;&gt;Node8 -->
<g id="edge27" class="edge">
<title>Node14&#45;&gt;Node8</title>
<path fill="none" stroke="#63b8ff" d="M1699.56,-116.37C1812.69,-107.37 2171.61,-78.8 2293.24,-69.12"/>
<polygon fill="#63b8ff" stroke="#63b8ff" points="2293.23,-72.55 2302.92,-68.27 2292.68,-65.57 2293.23,-72.55"/>
</g>
<!-- Node14&#45;&gt;Node11 -->
<g id="edge26" class="edge">
<title>Node14&#45;&gt;Node11</title>
<path fill="none" stroke="#63b8ff" d="M1630.33,-113.73C1566.95,-103.86 1432.66,-82.95 1364.53,-72.34"/>
<polygon fill="#63b8ff" stroke="#63b8ff" points="1365.21,-68.75 1354.79,-70.67 1364.13,-75.67 1365.21,-68.75"/>
</g>
<!-- Node15 -->
<g id="node15" class="node">
<title>Node15</title>
<g id="a_node15"><a xlink:title=" ">
<polygon fill="#e0e0e0" stroke="#999999" points="1654.75,-74.5 1607.25,-74.5 1607.25,-55.25 1654.75,-55.25 1654.75,-74.5"/>
<text text-anchor="middle" x="1631" y="-61" font-family="Helvetica,sans-Serif" font-size="10.00">string.h</text>
</a>
</g>
</g>
<!-- Node14&#45;&gt;Node15 -->
<g id="edge20" class="edge">
<title>Node14&#45;&gt;Node15</title>
<path fill="none" stroke="#63b8ff" d="M1659.39,-110.33C1654.84,-103.21 1648.27,-92.93 1642.6,-84.05"/>
<polygon fill="#63b8ff" stroke="#63b8ff" points="1645.07,-82.4 1636.74,-75.86 1639.17,-86.17 1645.07,-82.4"/>
</g>
<!-- Node16 -->
<g id="node16" class="node">
<title>Node16</title>
<g id="a_node16"><a xlink:title=" ">
<polygon fill="#e0e0e0" stroke="#999999" points="1471.62,-74.5 1426.38,-74.5 1426.38,-55.25 1471.62,-55.25 1471.62,-74.5"/>
<text text-anchor="middle" x="1449" y="-61" font-family="Helvetica,sans-Serif" font-size="10.00">atomic</text>
</a>
</g>
</g>
<!-- Node14&#45;&gt;Node16 -->
<g id="edge21" class="edge">
<title>Node14&#45;&gt;Node16</title>
<path fill="none" stroke="#63b8ff" d="M1630.3,-110.57C1589.64,-100.55 1522.74,-84.05 1482.57,-74.15"/>
<polygon fill="#63b8ff" stroke="#63b8ff" points="1483.54,-70.54 1473,-71.54 1481.87,-77.34 1483.54,-70.54"/>
</g>
<!-- Node17 -->
<g id="node17" class="node">
<title>Node17</title>
<g id="a_node17"><a xlink:title=" ">
<polygon fill="#e0e0e0" stroke="#999999" points="1274,-74.5 1228,-74.5 1228,-55.25 1274,-55.25 1274,-74.5"/>
<text text-anchor="middle" x="1251" y="-61" font-family="Helvetica,sans-Serif" font-size="10.00">iterator</text>
</a>
</g>
</g>
<!-- Node14&#45;&gt;Node17 -->
<g id="edge22" class="edge">
<title>Node14&#45;&gt;Node17</title>
<path fill="none" stroke="#63b8ff" d="M1630.35,-116.69C1564.89,-111.74 1418.47,-99.01 1285.15,-74.43"/>
<polygon fill="#63b8ff" stroke="#63b8ff" points="1285.82,-70.81 1275.34,-72.41 1284.53,-77.69 1285.82,-70.81"/>
</g>
<!-- Node18 -->
<g id="node18" class="node">
<title>Node18</title>
<g id="a_node18"><a xlink:title=" ">
<polygon fill="#e0e0e0" stroke="#999999" points="2026.62,-74.5 1987.38,-74.5 1987.38,-55.25 2026.62,-55.25 2026.62,-74.5"/>
<text text-anchor="middle" x="2007" y="-61" font-family="Helvetica,sans-Serif" font-size="10.00">limits</text>
</a>
</g>
</g>
<!-- Node14&#45;&gt;Node18 -->
<g id="edge23" class="edge">
<title>Node14&#45;&gt;Node18</title>
<path fill="none" stroke="#63b8ff" d="M1699.67,-113.73C1766.64,-103.3 1912.75,-80.55 1976.37,-70.64"/>
<polygon fill="#63b8ff" stroke="#63b8ff" points="1976.56,-74 1985.9,-69 1975.49,-67.08 1976.56,-74"/>
</g>
<!-- Node19 -->
<g id="node19" class="node">
<title>Node19</title>
<g id="a_node19"><a xlink:title=" ">
<polygon fill="#e0e0e0" stroke="#999999" points="1722.88,-74.5 1673.12,-74.5 1673.12,-55.25 1722.88,-55.25 1722.88,-74.5"/>
<text text-anchor="middle" x="1698" y="-61" font-family="Helvetica,sans-Serif" font-size="10.00">optional</text>
</a>
</g>
</g>
<!-- Node14&#45;&gt;Node19 -->
<g id="edge25" class="edge">
<title>Node14&#45;&gt;Node19</title>
<path fill="none" stroke="#63b8ff" d="M1670.45,-110.33C1674.87,-103.21 1681.24,-92.93 1686.74,-84.05"/>
<polygon fill="#63b8ff" stroke="#63b8ff" points="1690.14,-86.2 1692.43,-75.86 1684.19,-82.52 1690.14,-86.2"/>
</g>
<!-- Node20&#45;&gt;Node2 -->
<g id="edge30" class="edge">
<title>Node20&#45;&gt;Node2</title>
<path fill="none" stroke="#63b8ff" d="M1022.22,-110.09C997.36,-101.38 959.52,-88.13 931.76,-78.4"/>
<polygon fill="#63b8ff" stroke="#63b8ff" points="933.25,-74.87 922.66,-74.86 930.94,-81.47 933.25,-74.87"/>
</g>
<!-- Node20&#45;&gt;Node8 -->
<g id="edge35" class="edge">
<title>Node20&#45;&gt;Node8</title>
<path fill="none" stroke="#63b8ff" d="M1096.03,-114.51C1112.5,-113.05 1131.04,-111.55 1148,-110.5 1377.9,-96.27 2110.86,-72.86 2292.82,-67.16"/>
<polygon fill="#63b8ff" stroke="#63b8ff" points="2292.87,-70.63 2302.75,-66.81 2292.65,-63.63 2292.87,-70.63"/>
</g>
<!-- Node20&#45;&gt;Node11 -->
<g id="edge34" class="edge">
<title>Node20&#45;&gt;Node11</title>
<path fill="none" stroke="#63b8ff" d="M1096.23,-110.33C1141.46,-102 1211.26,-88.93 1281.23,-74.82"/>
<polygon fill="#63b8ff" stroke="#63b8ff" points="1281.9,-78.05 1291.01,-72.64 1280.51,-71.19 1281.9,-78.05"/>
</g>
<!-- Node20&#45;&gt;Node17 -->
<g id="edge33" class="edge">
<title>Node20&#45;&gt;Node17</title>
<path fill="none" stroke="#63b8ff" d="M1082.44,-110.09C1120.02,-100.23 1179.79,-84.55 1217.14,-74.76"/>
<polygon fill="#63b8ff" stroke="#63b8ff" points="1217.72,-77.96 1226.5,-72.04 1215.94,-71.19 1217.72,-77.96"/>
</g>
<!-- Node21 -->
<g id="node21" class="node">
<title>Node21</title>
<g id="a_node21"><a xlink:title=" ">
<polygon fill="#e0e0e0" stroke="#999999" points="1066.5,-74.5 1029.5,-74.5 1029.5,-55.25 1066.5,-55.25 1066.5,-74.5"/>
<text text-anchor="middle" x="1048" y="-61" font-family="Helvetica,sans-Serif" font-size="10.00">array</text>
</a>
</g>
</g>
<!-- Node20&#45;&gt;Node21 -->
<g id="edge31" class="edge">
<title>Node20&#45;&gt;Node21</title>
<path fill="none" stroke="#63b8ff" d="M1048,-110.33C1048,-103.67 1048,-94.24 1048,-85.78"/>
<polygon fill="#63b8ff" stroke="#63b8ff" points="1051.5,-85.86 1048,-75.86 1044.5,-85.86 1051.5,-85.86"/>
</g>
<!-- Node22 -->
<g id="node22" class="node">
<title>Node22</title>
<g id="a_node22"><a xlink:title=" ">
<polygon fill="#e0e0e0" stroke="#999999" points="588.12,-74.5 539.88,-74.5 539.88,-55.25 588.12,-55.25 588.12,-74.5"/>
<text text-anchor="middle" x="564" y="-61" font-family="Helvetica,sans-Serif" font-size="10.00">cstddef</text>
</a>
</g>
</g>
<!-- Node20&#45;&gt;Node22 -->
<g id="edge32" class="edge">
<title>Node20&#45;&gt;Node22</title>
<path fill="none" stroke="#63b8ff" d="M999.82,-113.82C902.55,-103.12 684.72,-79.16 599.32,-69.76"/>
<polygon fill="#63b8ff" stroke="#63b8ff" points="599.73,-66.17 589.4,-68.56 598.96,-73.13 599.73,-66.17"/>
</g>
<!-- Node23&#45;&gt;Node8 -->
<g id="edge82" class="edge">
<title>Node23&#45;&gt;Node8</title>
<path fill="none" stroke="#63b8ff" d="M1930.04,-450.72C2018.08,-450.46 2261.56,-446.03 2329,-406 2427.73,-347.39 2446.9,-278.27 2424,-165.75 2418.79,-140.16 2420.32,-130.88 2404,-110.5 2393.63,-97.56 2378.44,-87.23 2364.86,-79.79"/>
<polygon fill="#63b8ff" stroke="#63b8ff" points="2366.84,-76.35 2356.35,-74.88 2363.63,-82.58 2366.84,-76.35"/>
</g>
<!-- Node23&#45;&gt;Node10 -->
<g id="edge41" class="edge">
<title>Node23&#45;&gt;Node10</title>
<path fill="none" stroke="#63b8ff" d="M1866.03,-450.72C1828.86,-449.09 1767.9,-440.79 1731,-406 1686.8,-364.33 1729.67,-320.46 1688,-276.25 1672.9,-260.23 1651.31,-249.84 1631.1,-243.16"/>
<polygon fill="#63b8ff" stroke="#63b8ff" points="1632.29,-239.56 1621.7,-240 1630.25,-246.26 1632.29,-239.56"/>
</g>
<!-- Node23&#45;&gt;Node14 -->
<g id="edge40" class="edge">
<title>Node23&#45;&gt;Node14</title>
<path fill="none" stroke="#63b8ff" d="M1896.65,-441.89C1894.42,-429.13 1889.14,-404.94 1879,-386.75 1820.46,-281.8 1767.72,-283.58 1699,-185 1689.01,-170.67 1679.84,-153.06 1673.55,-139.96"/>
<polygon fill="#63b8ff" stroke="#63b8ff" points="1676.39,-138.77 1668.98,-131.19 1670.05,-141.73 1676.39,-138.77"/>
</g>
<!-- Node24 -->
<g id="node24" class="node">
<title>Node24</title>
<g id="a_node24"><a xlink:href="garbage-collected_8h.html" target="_top" xlink:title=" ">
<polygon fill="#fff0f0" stroke="red" points="1869.62,-406 1740.38,-406 1740.38,-386.75 1869.62,-386.75 1869.62,-406"/>
<text text-anchor="middle" x="1805" y="-392.5" font-family="Helvetica,sans-Serif" font-size="10.00">cppgc/garbage&#45;collected.h</text>
</a>
</g>
</g>
<!-- Node23&#45;&gt;Node24 -->
<g id="edge37" class="edge">
<title>Node23&#45;&gt;Node24</title>
<path fill="none" stroke="#63b8ff" d="M1882.22,-441.59C1867.93,-433.41 1846.62,-421.21 1830.01,-411.69"/>
<polygon fill="#63b8ff" stroke="#63b8ff" points="1832.27,-408.38 1821.85,-406.45 1828.79,-414.46 1832.27,-408.38"/>
</g>
<!-- Node35 -->
<g id="node25" class="node">
<title>Node35</title>
<g id="a_node25"><a xlink:href="name-provider_8h.html" target="_top" xlink:title=" ">
<polygon fill="white" stroke="#666666" points="2056.12,-240.25 1941.88,-240.25 1941.88,-221 2056.12,-221 2056.12,-240.25"/>
<text text-anchor="middle" x="1999" y="-226.75" font-family="Helvetica,sans-Serif" font-size="10.00">cppgc/name&#45;provider.h</text>
</a>
</g>
</g>
<!-- Node23&#45;&gt;Node35 -->
<g id="edge38" class="edge">
<title>Node23&#45;&gt;Node35</title>
<path fill="none" stroke="#63b8ff" d="M1903.91,-441.82C1909.87,-432.88 1919.27,-418.6 1927,-406 1941.85,-381.82 1947.31,-376.61 1959,-350.75 1974.37,-316.74 1987.06,-274.98 1993.79,-251.02"/>
<polygon fill="#63b8ff" stroke="#63b8ff" points="1997.4,-252.09 1996.67,-241.52 1990.65,-250.24 1997.4,-252.09"/>
</g>
<!-- Node36 -->
<g id="node26" class="node">
<title>Node36</title>
<g id="a_node26"><a xlink:href="v8-maybe_8h.html" target="_top" xlink:title=" ">
<polygon fill="#fff0f0" stroke="red" points="1341.75,-295.5 1276.25,-295.5 1276.25,-276.25 1341.75,-276.25 1341.75,-295.5"/>
<text text-anchor="middle" x="1309" y="-282" font-family="Helvetica,sans-Serif" font-size="10.00">v8&#45;maybe.h</text>
</a>
</g>
</g>
<!-- Node23&#45;&gt;Node36 -->
<g id="edge42" class="edge">
<title>Node23&#45;&gt;Node36</title>
<path fill="none" stroke="#63b8ff" d="M1865.92,-444.39C1826.23,-436.47 1756.72,-421.9 1698,-406 1593.06,-377.58 1569.05,-363.01 1465,-331.5 1427.14,-320.03 1383.87,-307.72 1352.52,-298.94"/>
<polygon fill="#63b8ff" stroke="#63b8ff" points="1353.53,-295.3 1342.96,-295.98 1351.64,-302.05 1353.53,-295.3"/>
</g>
<!-- Node23&#45;&gt;Node40 -->
<g id="edge47" class="edge">
<title>Node23&#45;&gt;Node40</title>
<path fill="none" stroke="#63b8ff" d="M1929.83,-448.6C1974.62,-444.81 2058.01,-434.29 2123,-406 2183.18,-379.8 2242.91,-328.89 2271.15,-302.93"/>
<polygon fill="#63b8ff" stroke="#63b8ff" points="2272.95,-306.11 2277.87,-296.73 2268.17,-300.99 2272.95,-306.11"/>
</g>
<!-- Node23&#45;&gt;Node43 -->
<g id="edge53" class="edge">
<title>Node23&#45;&gt;Node43</title>
<path fill="none" stroke="#63b8ff" d="M1928.36,-441.59C1958.07,-432.76 2003.49,-419.24 2036.31,-409.48"/>
<polygon fill="#63b8ff" stroke="#63b8ff" points="2036.9,-412.66 2045.49,-406.45 2034.9,-405.95 2036.9,-412.66"/>
</g>
<!-- Node45 -->
<g id="node31" class="node">
<title>Node45</title>
<g id="a_node31"><a xlink:href="v8-value_8h.html" target="_top" xlink:title=" ">
<polygon fill="white" stroke="#666666" points="1950.12,-350.75 1889.88,-350.75 1889.88,-331.5 1950.12,-331.5 1950.12,-350.75"/>
<text text-anchor="middle" x="1920" y="-337.25" font-family="Helvetica,sans-Serif" font-size="10.00">v8&#45;value.h</text>
</a>
</g>
</g>
<!-- Node23&#45;&gt;Node45 -->
<g id="edge81" class="edge">
<title>Node23&#45;&gt;Node45</title>
<path fill="none" stroke="#63b8ff" d="M1901.38,-441.52C1904.58,-432.6 1909.27,-418.54 1912,-406 1915.21,-391.27 1917.25,-374.33 1918.48,-361.6"/>
<polygon fill="#63b8ff" stroke="#63b8ff" points="1922.03,-362.15 1919.4,-351.89 1915.05,-361.55 1922.03,-362.15"/>
</g>
<!-- Node46 -->
<g id="node32" class="node">
<title>Node46</title>
<g id="a_node32"><a xlink:href="v8-sandbox_8h.html" target="_top" xlink:title=" ">
<polygon fill="white" stroke="#666666" points="2319.5,-406 2246.5,-406 2246.5,-386.75 2319.5,-386.75 2319.5,-406"/>
<text text-anchor="middle" x="2283" y="-392.5" font-family="Helvetica,sans-Serif" font-size="10.00">v8&#45;sandbox.h</text>
</a>
</g>
</g>
<!-- Node23&#45;&gt;Node46 -->
<g id="edge66" class="edge">
<title>Node23&#45;&gt;Node46</title>
<path fill="none" stroke="#63b8ff" d="M1929.83,-446.22C1997.46,-436.87 2155.73,-414.98 2235.41,-403.96"/>
<polygon fill="#63b8ff" stroke="#63b8ff" points="2235.68,-407.31 2245.11,-402.48 2234.72,-400.38 2235.68,-407.31"/>
</g>
<!-- Node47 -->
<g id="node34" class="node">
<title>Node47</title>
<g id="a_node34"><a xlink:href="v8-traced-handle_8h.html" target="_top" xlink:title=" ">
<polygon fill="#fff0f0" stroke="red" points="1181.75,-295.5 1086.25,-295.5 1086.25,-276.25 1181.75,-276.25 1181.75,-295.5"/>
<text text-anchor="middle" x="1134" y="-282" font-family="Helvetica,sans-Serif" font-size="10.00">v8&#45;traced&#45;handle.h</text>
</a>
</g>
</g>
<!-- Node23&#45;&gt;Node47 -->
<g id="edge70" class="edge">
<title>Node23&#45;&gt;Node47</title>
<path fill="none" stroke="#63b8ff" d="M1866.09,-446.38C1780.58,-434.69 1539.43,-399.59 1343,-350.75 1281.99,-335.58 1212.4,-313.29 1170.9,-299.45"/>
<polygon fill="#63b8ff" stroke="#63b8ff" points="1172.07,-295.81 1161.47,-295.95 1169.84,-302.45 1172.07,-295.81"/>
</g>
<!-- Node35&#45;&gt;Node8 -->
<g id="edge39" class="edge">
<title>Node35&#45;&gt;Node8</title>
<path fill="none" stroke="#63b8ff" d="M2010.29,-220.56C2037.98,-198.73 2112.09,-142.67 2182,-110.5 2218.21,-93.84 2262.13,-81.74 2293.43,-74.38"/>
<polygon fill="#63b8ff" stroke="#63b8ff" points="2293.97,-77.62 2302.94,-71.97 2292.41,-70.79 2293.97,-77.62"/>
</g>
<!-- Node36&#45;&gt;Node6 -->
<g id="edge44" class="edge">
<title>Node36&#45;&gt;Node6</title>
<path fill="none" stroke="#63b8ff" d="M1275.78,-278.56C1220.85,-268.11 1111.93,-247.4 1059.12,-237.35"/>
<polygon fill="#63b8ff" stroke="#63b8ff" points="1059.92,-233.75 1049.44,-235.32 1058.61,-240.63 1059.92,-233.75"/>
</g>
<!-- Node36&#45;&gt;Node8 -->
<g id="edge46" class="edge">
<title>Node36&#45;&gt;Node8</title>
<path fill="none" stroke="#63b8ff" d="M1341.95,-277.98C1376.74,-270.31 1432.96,-256.79 1480,-240.25 1499.75,-233.3 1502.83,-226.63 1523,-221 1647.66,-186.17 1689.65,-227.25 1812,-185 1872.77,-164.02 1875.1,-131.11 1936,-110.5 2001.46,-88.35 2205.24,-73.69 2293.06,-68.25"/>
<polygon fill="#63b8ff" stroke="#63b8ff" points="2293.15,-71.69 2302.91,-67.58 2292.72,-64.7 2293.15,-71.69"/>
</g>
<!-- Node36&#45;&gt;Node11 -->
<g id="edge43" class="edge">
<title>Node36&#45;&gt;Node11</title>
<path fill="none" stroke="#63b8ff" d="M1309.57,-276.02C1311.64,-243.62 1318.83,-131.05 1321.75,-85.37"/>
<polygon fill="#63b8ff" stroke="#63b8ff" points="1325.3,-85.8 1322.44,-75.6 1318.31,-85.36 1325.3,-85.8"/>
</g>
<!-- Node36&#45;&gt;Node14 -->
<g id="edge45" class="edge">
<title>Node36&#45;&gt;Node14</title>
<path fill="none" stroke="#63b8ff" d="M1313.17,-276.09C1325.27,-250.99 1360.82,-179.89 1382,-165.75 1420.09,-140.32 1549.81,-128.38 1619.63,-123.69"/>
<polygon fill="#63b8ff" stroke="#63b8ff" points="1619.55,-127.14 1629.3,-123 1619.1,-120.15 1619.55,-127.14"/>
</g>
<!-- Node40&#45;&gt;Node8 -->
<g id="edge52" class="edge">
<title>Node40&#45;&gt;Node8</title>
<path fill="none" stroke="#63b8ff" d="M2293.45,-276C2298.56,-267.24 2306,-253.3 2310,-240.25 2326.67,-185.84 2331.79,-118.33 2333.34,-85.56"/>
<polygon fill="#63b8ff" stroke="#63b8ff" points="2336.87,-85.93 2333.78,-75.8 2329.87,-85.65 2336.87,-85.93"/>
</g>
<!-- Node40&#45;&gt;Node10 -->
<g id="edge49" class="edge">
<title>Node40&#45;&gt;Node10</title>
<path fill="none" stroke="#63b8ff" d="M2232.13,-280.7C2099.01,-270.74 1764.31,-245.71 1631.53,-235.78"/>
<polygon fill="#63b8ff" stroke="#63b8ff" points="1632.05,-232.23 1621.82,-234.98 1631.53,-239.21 1632.05,-232.23"/>
</g>
<!-- Node40&#45;&gt;Node14 -->
<g id="edge48" class="edge">
<title>Node40&#45;&gt;Node14</title>
<path fill="none" stroke="#63b8ff" d="M2278.34,-275.91C2263.05,-262.18 2231.85,-235.98 2201,-221 2033.09,-139.46 1805.83,-124.28 1710.28,-121.61"/>
<polygon fill="#63b8ff" stroke="#63b8ff" points="1710.64,-118.09 1700.56,-121.34 1710.47,-125.09 1710.64,-118.09"/>
</g>
<!-- Node41 -->
<g id="node28" class="node">
<title>Node41</title>
<g id="a_node28"><a xlink:href="v8-weak-callback-info_8h.html" target="_top" xlink:title=" ">
<polygon fill="#fff0f0" stroke="red" points="2192,-240.25 2074,-240.25 2074,-221 2192,-221 2192,-240.25"/>
<text text-anchor="middle" x="2133" y="-226.75" font-family="Helvetica,sans-Serif" font-size="10.00">v8&#45;weak&#45;callback&#45;info.h</text>
</a>
</g>
</g>
<!-- Node40&#45;&gt;Node41 -->
<g id="edge50" class="edge">
<title>Node40&#45;&gt;Node41</title>
<path fill="none" stroke="#63b8ff" d="M2261.71,-275.84C2236.43,-267.16 2198.01,-253.96 2169.72,-244.24"/>
<polygon fill="#63b8ff" stroke="#63b8ff" points="2171.02,-240.64 2160.42,-240.7 2168.74,-247.26 2171.02,-240.64"/>
</g>
<!-- Node41&#45;&gt;Node8 -->
<g id="edge51" class="edge">
<title>Node41&#45;&gt;Node8</title>
<path fill="none" stroke="#63b8ff" d="M2136.04,-220.72C2143.99,-198.76 2167.47,-141.55 2206,-110.5 2231.13,-90.25 2266.05,-78.89 2293.08,-72.71"/>
<polygon fill="#63b8ff" stroke="#63b8ff" points="2293.7,-75.94 2302.75,-70.44 2292.24,-69.1 2293.7,-75.94"/>
</g>
<!-- Node43&#45;&gt;Node8 -->
<g id="edge65" class="edge">
<title>Node43&#45;&gt;Node8</title>
<path fill="none" stroke="#63b8ff" d="M2106.81,-386.26C2174.51,-365.33 2335.38,-314.17 2353,-295.5 2373.33,-273.96 2372,-261.24 2372,-231.62 2372,-231.62 2372,-231.62 2372,-174.38 2372,-141.23 2356.01,-105.43 2344.78,-84.37"/>
<polygon fill="#63b8ff" stroke="#63b8ff" points="2347.37,-82.83 2339.44,-75.79 2341.25,-86.23 2347.37,-82.83"/>
</g>
<!-- Node43&#45;&gt;Node10 -->
<g id="edge58" class="edge">
<title>Node43&#45;&gt;Node10</title>
<path fill="none" stroke="#63b8ff" d="M2039.72,-390.77C1999.4,-384.91 1933.82,-372.8 1881,-350.75 1824.11,-327 1820.78,-300.26 1764,-276.25 1740.35,-266.25 1677.77,-252.25 1631.26,-242.62"/>
<polygon fill="#63b8ff" stroke="#63b8ff" points="1632.21,-239.03 1621.71,-240.45 1630.8,-245.89 1632.21,-239.03"/>
</g>
<!-- Node43&#45;&gt;Node14 -->
<g id="edge57" class="edge">
<title>Node43&#45;&gt;Node14</title>
<path fill="none" stroke="#63b8ff" d="M2064.96,-386.34C2036.92,-365.51 1964.71,-313.07 1900,-276.25 1867.52,-257.76 1855.99,-259.59 1824,-240.25 1776.88,-211.76 1769.09,-198.74 1725,-165.75 1711.88,-155.93 1697.1,-144.94 1685.5,-136.33"/>
<polygon fill="#63b8ff" stroke="#63b8ff" points="1688.08,-133.14 1677.97,-130 1683.91,-138.77 1688.08,-133.14"/>
</g>
<!-- Node43&#45;&gt;Node44 -->
<g id="edge54" class="edge">
<title>Node43&#45;&gt;Node44</title>
<path fill="none" stroke="#63b8ff" d="M2076.59,-386.5C2075.79,-369.17 2074.01,-330.48 2072.92,-306.74"/>
<polygon fill="#63b8ff" stroke="#63b8ff" points="2076.37,-306.7 2072.41,-296.88 2069.38,-307.03 2076.37,-306.7"/>
</g>
<!-- Node43&#45;&gt;Node45 -->
<g id="edge59" class="edge">
<title>Node43&#45;&gt;Node45</title>
<path fill="none" stroke="#63b8ff" d="M2050.37,-386.34C2024.65,-377.62 1985.5,-364.34 1956.82,-354.61"/>
<polygon fill="#63b8ff" stroke="#63b8ff" points="1958.36,-351.1 1947.76,-351.2 1956.11,-357.73 1958.36,-351.1"/>
</g>
<!-- Node44&#45;&gt;Node8 -->
<g id="edge56" class="edge">
<title>Node44&#45;&gt;Node8</title>
<path fill="none" stroke="#63b8ff" d="M2100.37,-283.52C2135.19,-280.51 2194.46,-270.9 2234,-240.25 2287.26,-198.96 2317.07,-120.75 2328.5,-84.8"/>
<polygon fill="#63b8ff" stroke="#63b8ff" points="2332.01,-86.31 2331.57,-75.72 2325.31,-84.27 2332.01,-86.31"/>
</g>
<!-- Node44&#45;&gt;Node10 -->
<g id="edge55" class="edge">
<title>Node44&#45;&gt;Node10</title>
<path fill="none" stroke="#63b8ff" d="M2043.91,-281.86C1964.54,-273.34 1737.51,-248.96 1631.63,-237.6"/>
<polygon fill="#63b8ff" stroke="#63b8ff" points="1632.17,-234.03 1621.85,-236.44 1631.42,-240.99 1632.17,-234.03"/>
</g>
<!-- Node45&#45;&gt;Node8 -->
<g id="edge64" class="edge">
<title>Node45&#45;&gt;Node8</title>
<path fill="none" stroke="#63b8ff" d="M1933.18,-331.1C1953.93,-317.29 1995.89,-290.98 2035,-276.25 2105.65,-249.64 2137.3,-280.76 2201,-240.25 2233.22,-219.76 2296.58,-124.37 2322.52,-83.99"/>
<polygon fill="#63b8ff" stroke="#63b8ff" points="2325.96,-86.1 2328.39,-75.79 2320.06,-82.33 2325.96,-86.1"/>
</g>
<!-- Node45&#45;&gt;Node10 -->
<g id="edge62" class="edge">
<title>Node45&#45;&gt;Node10</title>
<path fill="none" stroke="#63b8ff" d="M1906.47,-331.03C1885.17,-317.13 1842.11,-290.69 1802,-276.25 1745.74,-256 1678.11,-244.18 1631.58,-237.85"/>
<polygon fill="#63b8ff" stroke="#63b8ff" points="1632.18,-234.27 1621.81,-236.43 1631.27,-241.21 1632.18,-234.27"/>
</g>
<!-- Node45&#45;&gt;Node14 -->
<g id="edge61" class="edge">
<title>Node45&#45;&gt;Node14</title>
<path fill="none" stroke="#63b8ff" d="M1916.2,-331.01C1910.08,-317.33 1896.77,-291.46 1878,-276.25 1843.89,-248.6 1822.84,-264.14 1786,-240.25 1741.28,-211.25 1699.38,-163.8 1678.61,-138.42"/>
<polygon fill="#63b8ff" stroke="#63b8ff" points="1680.95,-136.74 1671.96,-131.14 1675.5,-141.13 1680.95,-136.74"/>
</g>
<!-- Node45&#45;&gt;Node36 -->
<g id="edge63" class="edge">
<title>Node45&#45;&gt;Node36</title>
<path fill="none" stroke="#63b8ff" d="M1889.7,-337.48C1789.74,-328.77 1470.16,-300.92 1352.78,-290.69"/>
<polygon fill="#63b8ff" stroke="#63b8ff" points="1353.33,-287.14 1343.06,-289.76 1352.72,-294.11 1353.33,-287.14"/>
</g>
<!-- Node45&#45;&gt;Node44 -->
<g id="edge60" class="edge">
<title>Node45&#45;&gt;Node44</title>
<path fill="none" stroke="#63b8ff" d="M1945.78,-331.09C1970.57,-322.41 2008.25,-309.21 2035.99,-299.49"/>
<polygon fill="#63b8ff" stroke="#63b8ff" points="2036.81,-302.56 2045.09,-295.95 2034.49,-295.96 2036.81,-302.56"/>
</g>
<!-- Node46&#45;&gt;Node8 -->
<g id="edge69" class="edge">
<title>Node46&#45;&gt;Node8</title>
<path fill="none" stroke="#63b8ff" d="M2283.33,-386.39C2284.3,-372.88 2288,-347.23 2302,-331.5 2329.01,-301.17 2363.64,-329.41 2386,-295.5 2431.26,-226.86 2420.33,-185.21 2386,-110.5 2380.49,-98.5 2369.97,-88.52 2359.84,-81.06"/>
<polygon fill="#63b8ff" stroke="#63b8ff" points="2362.03,-77.64 2351.79,-74.93 2358.11,-83.43 2362.03,-77.64"/>
</g>
<!-- Node46&#45;&gt;Node14 -->
<g id="edge68" class="edge">
<title>Node46&#45;&gt;Node14</title>
<path fill="none" stroke="#63b8ff" d="M2275.98,-386.31C2257.26,-362.93 2203.33,-300.67 2142,-276.25 2040.98,-236.02 1991.92,-298.35 1900,-240.25 1866.29,-218.94 1882.73,-188.54 1850,-165.75 1808.36,-136.76 1750.11,-126.49 1710.16,-122.92"/>
<polygon fill="#63b8ff" stroke="#63b8ff" points="1710.65,-119.37 1700.4,-122.08 1710.1,-126.35 1710.65,-119.37"/>
</g>
<!-- Node26 -->
<g id="node33" class="node">
<title>Node26</title>
<g id="a_node33"><a xlink:title=" ">
<polygon fill="#e0e0e0" stroke="#999999" points="2356.62,-350.75 2311.38,-350.75 2311.38,-331.5 2356.62,-331.5 2356.62,-350.75"/>
<text text-anchor="middle" x="2334" y="-337.25" font-family="Helvetica,sans-Serif" font-size="10.00">cstdint</text>
</a>
</g>
</g>
<!-- Node46&#45;&gt;Node26 -->
<g id="edge67" class="edge">
<title>Node46&#45;&gt;Node26</title>
<path fill="none" stroke="#63b8ff" d="M2291.42,-386.58C2298.61,-379.07 2309.16,-368.06 2317.95,-358.88"/>
<polygon fill="#63b8ff" stroke="#63b8ff" points="2320.01,-361.75 2324.4,-352.11 2314.95,-356.91 2320.01,-361.75"/>
</g>
<!-- Node47&#45;&gt;Node2 -->
<g id="edge71" class="edge">
<title>Node47&#45;&gt;Node2</title>
<path fill="none" stroke="#63b8ff" d="M1130.64,-275.96C1122.16,-254.47 1097.95,-199.12 1062,-165.75 1036.07,-141.68 1021.52,-147.65 991,-129.75 964.75,-114.35 935.91,-94.52 916.98,-81.07"/>
<polygon fill="#63b8ff" stroke="#63b8ff" points="919.45,-77.82 909.29,-74.85 915.38,-83.51 919.45,-77.82"/>
</g>
<!-- Node47&#45;&gt;Node3 -->
<g id="edge72" class="edge">
<title>Node47&#45;&gt;Node3</title>
<path fill="none" stroke="#63b8ff" d="M1125.93,-275.97C1112.84,-262.08 1085.55,-235.37 1057,-221 802.82,-93.04 449.73,-70.62 338.78,-66.7"/>
<polygon fill="#63b8ff" stroke="#63b8ff" points="339.04,-63.18 328.93,-66.35 338.81,-70.17 339.04,-63.18"/>
</g>
<!-- Node47&#45;&gt;Node4 -->
<g id="edge74" class="edge">
<title>Node47&#45;&gt;Node4</title>
<path fill="none" stroke="#63b8ff" d="M1134.56,-275.86C1137.15,-241.69 1151.06,-118.89 1219,-55.25 1250,-26.21 1299.07,-16 1332.59,-12.45"/>
<polygon fill="#63b8ff" stroke="#63b8ff" points="1332.66,-15.86 1342.31,-11.48 1332.04,-8.89 1332.66,-15.86"/>
</g>
<!-- Node47&#45;&gt;Node6 -->
<g id="edge76" class="edge">
<title>Node47&#45;&gt;Node6</title>
<path fill="none" stroke="#63b8ff" d="M1116.19,-275.84C1099.9,-267.58 1075.54,-255.23 1056.71,-245.68"/>
<polygon fill="#63b8ff" stroke="#63b8ff" points="1058.4,-242.1 1047.9,-240.7 1055.23,-248.35 1058.4,-242.1"/>
</g>
<!-- Node47&#45;&gt;Node8 -->
<g id="edge80" class="edge">
<title>Node47&#45;&gt;Node8</title>
<path fill="none" stroke="#63b8ff" d="M1182.19,-276.32C1270.73,-260.35 1465.06,-224.03 1627,-185 1746.35,-156.24 1772.37,-133.32 1893,-110.5 2038.58,-82.96 2214.62,-71.6 2292.96,-67.67"/>
<polygon fill="#63b8ff" stroke="#63b8ff" points="2292.98,-71.12 2302.8,-67.14 2292.64,-64.13 2292.98,-71.12"/>
</g>
<!-- Node47&#45;&gt;Node10 -->
<g id="edge78" class="edge">
<title>Node47&#45;&gt;Node10</title>
<path fill="none" stroke="#63b8ff" d="M1182.05,-278.09C1186.76,-277.45 1191.47,-276.83 1196,-276.25 1311.15,-261.48 1446.19,-246.08 1520.29,-237.79"/>
<polygon fill="#63b8ff" stroke="#63b8ff" points="1520.66,-241.16 1530.21,-236.57 1519.88,-234.2 1520.66,-241.16"/>
</g>
<!-- Node47&#45;&gt;Node11 -->
<g id="edge75" class="edge">
<title>Node47&#45;&gt;Node11</title>
<path fill="none" stroke="#63b8ff" d="M1142.84,-275.78C1151.44,-266.86 1164.82,-252.8 1176,-240.25 1226.34,-183.74 1283.45,-114.41 1309.17,-82.9"/>
<polygon fill="#63b8ff" stroke="#63b8ff" points="1312.22,-85.69 1315.82,-75.73 1306.8,-81.27 1312.22,-85.69"/>
</g>
<!-- Node47&#45;&gt;Node14 -->
<g id="edge77" class="edge">
<title>Node47&#45;&gt;Node14</title>
<path fill="none" stroke="#63b8ff" d="M1163.95,-275.78C1188.34,-267.86 1223.29,-255.3 1252,-240.25 1303.65,-213.18 1305.73,-187.08 1360,-165.75 1447.44,-131.37 1558.4,-123.16 1619.5,-121.39"/>
<polygon fill="#63b8ff" stroke="#63b8ff" points="1619.39,-124.87 1629.3,-121.13 1619.22,-117.87 1619.39,-124.87"/>
</g>
<!-- Node47&#45;&gt;Node16 -->
<g id="edge73" class="edge">
<title>Node47&#45;&gt;Node16</title>
<path fill="none" stroke="#63b8ff" d="M1146.74,-276.02C1194.92,-242.52 1366.36,-123.33 1427.31,-80.96"/>
<polygon fill="#63b8ff" stroke="#63b8ff" points="1428.89,-83.42 1435.1,-74.84 1424.89,-77.68 1428.89,-83.42"/>
</g>
<!-- Node47&#45;&gt;Node41 -->
<g id="edge79" class="edge">
<title>Node47&#45;&gt;Node41</title>
<path fill="none" stroke="#63b8ff" d="M1182,-281.53C1207.29,-279.83 1238.81,-277.8 1267,-276.25 1617.94,-256.96 1709.45,-270.34 2062.89,-240.36"/>
<polygon fill="#63b8ff" stroke="#63b8ff" points="2063.03,-243.77 2072.69,-239.44 2062.43,-236.8 2063.03,-243.77"/>
</g>
<!-- Node30&#45;&gt;Node2 -->
<g id="edge85" class="edge">
<title>Node30&#45;&gt;Node2</title>
<path fill="none" stroke="#63b8ff" d="M455.61,-165.63C507.96,-153.17 607.26,-129.68 692,-110.5 750.66,-97.22 818.97,-82.41 859.78,-73.63"/>
<polygon fill="#63b8ff" stroke="#63b8ff" points="860.49,-76.85 869.53,-71.32 859.02,-70 860.49,-76.85"/>
</g>
<!-- Node30&#45;&gt;Node3 -->
<g id="edge86" class="edge">
<title>Node30&#45;&gt;Node3</title>
<path fill="none" stroke="#63b8ff" d="M382.53,-165.42C362.38,-158.71 338.38,-147.55 323,-129.75 312.35,-117.42 307.67,-99.34 305.61,-85.56"/>
<polygon fill="#63b8ff" stroke="#63b8ff" points="309,-85.35 304.39,-75.81 302.04,-86.14 309,-85.35"/>
</g>
<!-- Node30&#45;&gt;Node4 -->
<g id="edge88" class="edge">
<title>Node30&#45;&gt;Node4</title>
<path fill="none" stroke="#63b8ff" d="M390.63,-165.35C336.2,-146.71 226.34,-101.76 271,-55.25 308.57,-16.12 1146.4,-11.29 1332.57,-10.71"/>
<polygon fill="#63b8ff" stroke="#63b8ff" points="1332.4,-14.2 1342.39,-10.67 1332.38,-7.2 1332.4,-14.2"/>
</g>
<!-- Node30&#45;&gt;Node5 -->
<g id="edge89" class="edge">
<title>Node30&#45;&gt;Node5</title>
<path fill="none" stroke="#63b8ff" d="M382.73,-171.16C340.59,-166.38 269.71,-155.07 214,-129.75 187.71,-117.8 161.68,-96.85 145.26,-82.22"/>
<polygon fill="#63b8ff" stroke="#63b8ff" points="147.93,-80 138.19,-75.83 143.2,-85.16 147.93,-80"/>
</g>
<!-- Node30&#45;&gt;Node8 -->
<g id="edge94" class="edge">
<title>Node30&#45;&gt;Node8</title>
<path fill="none" stroke="#63b8ff" d="M455.54,-172.3C695.15,-158.73 2039.68,-82.55 2292.88,-68.2"/>
<polygon fill="#63b8ff" stroke="#63b8ff" points="2292.99,-71.65 2302.77,-67.59 2292.59,-64.66 2292.99,-71.65"/>
</g>
<!-- Node31 -->
<g id="node36" class="node">
<title>Node31</title>
<g id="a_node36"><a xlink:title=" ">
<polygon fill="#e0e0e0" stroke="#999999" points="377.62,-129.75 332.38,-129.75 332.38,-110.5 377.62,-110.5 377.62,-129.75"/>
<text text-anchor="middle" x="355" y="-116.25" font-family="Helvetica,sans-Serif" font-size="10.00">math.h</text>
</a>
</g>
</g>
<!-- Node30&#45;&gt;Node31 -->
<g id="edge84" class="edge">
<title>Node30&#45;&gt;Node31</title>
<path fill="none" stroke="#63b8ff" d="M408.14,-165.34C398.8,-157.57 385.11,-146.17 373.96,-136.9"/>
<polygon fill="#63b8ff" stroke="#63b8ff" points="376.62,-133.73 366.7,-130.02 372.14,-139.11 376.62,-133.73"/>
</g>
<!-- Node32 -->
<g id="node37" class="node">
<title>Node32</title>
<g id="a_node37"><a xlink:title=" ">
<polygon fill="#e0e0e0" stroke="#999999" points="442.38,-129.75 395.62,-129.75 395.62,-110.5 442.38,-110.5 442.38,-129.75"/>
<text text-anchor="middle" x="419" y="-116.25" font-family="Helvetica,sans-Serif" font-size="10.00">stdlib.h</text>
</a>
</g>
</g>
<!-- Node30&#45;&gt;Node32 -->
<g id="edge87" class="edge">
<title>Node30&#45;&gt;Node32</title>
<path fill="none" stroke="#63b8ff" d="M419,-165.58C419,-158.92 419,-149.49 419,-141.03"/>
<polygon fill="#63b8ff" stroke="#63b8ff" points="422.5,-141.11 419,-131.11 415.5,-141.11 422.5,-141.11"/>
</g>
<!-- Node29 -->
<g id="node38" class="node">
<title>Node29</title>
<g id="a_node38"><a xlink:href="v8-source-location_8h.html" target="_top" xlink:title=" ">
<polygon fill="white" stroke="#666666" points="563.5,-129.75 460.5,-129.75 460.5,-110.5 563.5,-110.5 563.5,-129.75"/>
<text text-anchor="middle" x="512" y="-116.25" font-family="Helvetica,sans-Serif" font-size="10.00">v8&#45;source&#45;location.h</text>
</a>
</g>
</g>
<!-- Node30&#45;&gt;Node29 -->
<g id="edge90" class="edge">
<title>Node30&#45;&gt;Node29</title>
<path fill="none" stroke="#63b8ff" d="M434.78,-165.34C449.07,-157.16 470.38,-144.96 486.99,-135.44"/>
<polygon fill="#63b8ff" stroke="#63b8ff" points="488.21,-138.21 495.15,-130.2 484.73,-132.13 488.21,-138.21"/>
</g>
<!-- Node29&#45;&gt;Node5 -->
<g id="edge92" class="edge">
<title>Node29&#45;&gt;Node5</title>
<path fill="none" stroke="#63b8ff" d="M460.09,-111.77C457.01,-111.34 453.97,-110.91 451,-110.5 343.78,-95.51 216.49,-78.01 158.96,-70.12"/>
<polygon fill="#63b8ff" stroke="#63b8ff" points="159.79,-66.56 149.41,-68.67 158.84,-73.5 159.79,-66.56"/>
</g>
<!-- Node29&#45;&gt;Node8 -->
<g id="edge93" class="edge">
<title>Node29&#45;&gt;Node8</title>
<path fill="none" stroke="#63b8ff" d="M563.59,-117.62C830.68,-109.81 2053.1,-74.08 2293.06,-67.07"/>
<polygon fill="#63b8ff" stroke="#63b8ff" points="2293.15,-70.54 2303.05,-66.75 2292.95,-63.54 2293.15,-70.54"/>
</g>
<!-- Node29&#45;&gt;Node22 -->
<g id="edge91" class="edge">
<title>Node29&#45;&gt;Node22</title>
<path fill="none" stroke="#63b8ff" d="M520.59,-110.33C527.92,-102.82 538.67,-91.81 547.64,-82.63"/>
<polygon fill="#63b8ff" stroke="#63b8ff" points="549.74,-85.46 554.23,-75.86 544.74,-80.57 549.74,-85.46"/>
</g>
<!-- Node49&#45;&gt;Node2 -->
<g id="edge97" class="edge">
<title>Node49&#45;&gt;Node2</title>
<path fill="none" stroke="#63b8ff" d="M1858.47,-555.89C1729.47,-537.45 1312.05,-467.18 1016,-295.5 940.36,-251.63 931.53,-214.5 910,-129.75 906.23,-114.91 902.54,-97.97 899.9,-85.27"/>
<polygon fill="#63b8ff" stroke="#63b8ff" points="903.15,-84.69 897.72,-75.6 896.29,-86.09 903.15,-84.69"/>
</g>
<!-- Node49&#45;&gt;Node5 -->
<g id="edge99" class="edge">
<title>Node49&#45;&gt;Node5</title>
<path fill="none" stroke="#63b8ff" d="M1858.51,-561.21C1680.5,-561.33 951.76,-559.16 728,-516.5 577.11,-487.73 76,-440.49 76,-286.88 76,-286.88 76,-286.88 76,-174.38 76,-139.39 98.26,-103.74 113.65,-83.27"/>
<polygon fill="#63b8ff" stroke="#63b8ff" points="116.91,-85.78 120.33,-75.75 111.4,-81.46 116.91,-85.78"/>
</g>
<!-- Node49&#45;&gt;Node7 -->
<g id="edge100" class="edge">
<title>Node49&#45;&gt;Node7</title>
<path fill="none" stroke="#63b8ff" d="M1937.35,-559.17C2100.01,-551.07 2720.28,-520.2 2911.52,-510.69"/>
<polygon fill="#63b8ff" stroke="#63b8ff" points="2911.62,-514.14 2921.43,-510.14 2911.27,-507.14 2911.62,-514.14"/>
</g>
<!-- Node49&#45;&gt;Node8 -->
<g id="edge107" class="edge">
<title>Node49&#45;&gt;Node8</title>
<path fill="none" stroke="#63b8ff" d="M1937.41,-556.12C1999.34,-548.19 2123.2,-532.02 2228,-516.5 2535.19,-471 2866,-542.16 2866,-231.62 2866,-231.62 2866,-231.62 2866,-174.38 2866,-144.05 2866.15,-128.84 2842,-110.5 2805.11,-82.49 2489.03,-70.45 2374.9,-66.99"/>
<polygon fill="#63b8ff" stroke="#63b8ff" points="2375.28,-63.47 2365.18,-66.67 2375.07,-70.47 2375.28,-63.47"/>
</g>
<!-- Node49&#45;&gt;Node10 -->
<g id="edge102" class="edge">
<title>Node49&#45;&gt;Node10</title>
<path fill="none" stroke="#63b8ff" d="M1858.7,-555.07C1803.55,-544.74 1702.81,-518.95 1639,-461.25 1577.34,-405.5 1573.68,-295.64 1574.94,-251.09"/>
<polygon fill="#63b8ff" stroke="#63b8ff" points="1578.47,-251.49 1575.39,-241.35 1571.48,-251.2 1578.47,-251.49"/>
</g>
<!-- Node49&#45;&gt;Node44 -->
<g id="edge101" class="edge">
<title>Node49&#45;&gt;Node44</title>
<path fill="none" stroke="#63b8ff" d="M1937.3,-554.95C1988.78,-546.74 2081.83,-531.53 2161,-516.5 2175.67,-513.72 2414.59,-472.84 2424,-461.25 2458.03,-419.32 2505.33,-430.76 2366,-331.5 2325.69,-302.78 2180.83,-292.05 2110.65,-288.47"/>
<polygon fill="#63b8ff" stroke="#63b8ff" points="2111.21,-284.94 2101.06,-287.96 2110.88,-291.94 2111.21,-284.94"/>
</g>
<!-- Node50 -->
<g id="node40" class="node">
<title>Node50</title>
<g id="a_node40"><a xlink:title=" ">
<polygon fill="#e0e0e0" stroke="#999999" points="2152,-516.5 2094,-516.5 2094,-497.25 2152,-497.25 2152,-516.5"/>
<text text-anchor="middle" x="2123" y="-503" font-family="Helvetica,sans-Serif" font-size="10.00">functional</text>
</a>
</g>
</g>
<!-- Node49&#45;&gt;Node50 -->
<g id="edge98" class="edge">
<title>Node49&#45;&gt;Node50</title>
<path fill="none" stroke="#63b8ff" d="M1936.42,-552.03C1977.33,-542.35 2041.74,-527.11 2083.17,-517.3"/>
<polygon fill="#63b8ff" stroke="#63b8ff" points="2083.77,-520.52 2092.7,-514.81 2082.16,-513.71 2083.77,-520.52"/>
</g>
<!-- Node51 -->
<g id="node41" class="node">
<title>Node51</title>
<g id="a_node41"><a xlink:href="v8-promise_8h.html" target="_top" xlink:title=" ">
<polygon fill="white" stroke="#666666" points="1933.75,-516.5 1862.25,-516.5 1862.25,-497.25 1933.75,-497.25 1933.75,-516.5"/>
<text text-anchor="middle" x="1898" y="-503" font-family="Helvetica,sans-Serif" font-size="10.00">v8&#45;promise.h</text>
</a>
</g>
</g>
<!-- Node49&#45;&gt;Node51 -->
<g id="edge103" class="edge">
<title>Node49&#45;&gt;Node51</title>
<path fill="none" stroke="#63b8ff" d="M1898,-552.33C1898,-545.67 1898,-536.24 1898,-527.78"/>
<polygon fill="#63b8ff" stroke="#63b8ff" points="1901.5,-527.86 1898,-517.86 1894.5,-527.86 1901.5,-527.86"/>
</g>
<!-- Node51&#45;&gt;Node8 -->
<g id="edge106" class="edge">
<title>Node51&#45;&gt;Node8</title>
<path fill="none" stroke="#63b8ff" d="M1934.03,-504.11C2041.09,-498.67 2356.15,-481.37 2457,-461.25 2534.91,-445.7 2557.01,-443.6 2627,-406 2696.52,-368.65 2731.7,-366.58 2766,-295.5 2802.48,-219.9 2799.97,-153.7 2728,-110.5 2669.26,-75.25 2463.71,-67.84 2375.13,-66.28"/>
<polygon fill="#63b8ff" stroke="#63b8ff" points="2375.23,-62.77 2365.18,-66.11 2375.12,-69.77 2375.23,-62.77"/>
</g>
<!-- Node51&#45;&gt;Node10 -->
<g id="edge104" class="edge">
<title>Node51&#45;&gt;Node10</title>
<path fill="none" stroke="#63b8ff" d="M1863.49,-496.84C1800.66,-479.36 1674,-438.97 1674,-397.38 1674,-397.38 1674,-397.38 1674,-340.12 1674,-297.48 1631.79,-264.08 1602.77,-246.15"/>
<polygon fill="#63b8ff" stroke="#63b8ff" points="1604.91,-242.76 1594.52,-240.68 1601.34,-248.78 1604.91,-242.76"/>
</g>
<!-- Node51&#45;&gt;Node23 -->
<g id="edge105" class="edge">
<title>Node51&#45;&gt;Node23</title>
<path fill="none" stroke="#63b8ff" d="M1898,-497.08C1898,-490.42 1898,-480.99 1898,-472.53"/>
<polygon fill="#63b8ff" stroke="#63b8ff" points="1901.5,-472.61 1898,-462.61 1894.5,-472.61 1901.5,-472.61"/>
</g>
<!-- Node52&#45;&gt;Node3 -->
<g id="edge110" class="edge">
<title>Node52&#45;&gt;Node3</title>
<path fill="none" stroke="#63b8ff" d="M1290.15,-671.74C1152.58,-671.68 610.2,-665.4 474,-571.75 321.14,-466.64 368.59,-363.19 317,-185 309.92,-160.56 305.36,-154.97 302,-129.75 300.87,-121.27 301.81,-119.05 302,-110.5 302.18,-102.36 302.55,-93.39 302.92,-85.64"/>
<polygon fill="#63b8ff" stroke="#63b8ff" points="306.46,-85.93 303.48,-75.76 299.47,-85.57 306.46,-85.93"/>
</g>
<!-- Node52&#45;&gt;Node8 -->
<g id="edge122" class="edge">
<title>Node52&#45;&gt;Node8</title>
<path fill="none" stroke="#63b8ff" d="M1353.92,-669C1539.34,-653.46 2478.84,-570.36 2745,-461.25 2859.86,-414.16 2904,-355.76 2904,-231.62 2904,-231.62 2904,-231.62 2904,-174.38 2904,-140.88 2892.6,-127.94 2864,-110.5 2822.61,-85.26 2492.46,-71.4 2375.17,-67.23"/>
<polygon fill="#63b8ff" stroke="#63b8ff" points="2375.29,-63.7 2365.18,-66.85 2375.05,-70.7 2375.29,-63.7"/>
</g>
<!-- Node53 -->
<g id="node43" class="node">
<title>Node53</title>
<g id="a_node43"><a xlink:href="v8-script_8h.html" target="_top" xlink:title=" ">
<polygon fill="#fff0f0" stroke="red" points="1324.5,-627 1263.5,-627 1263.5,-607.75 1324.5,-607.75 1324.5,-627"/>
<text text-anchor="middle" x="1294" y="-613.5" font-family="Helvetica,sans-Serif" font-size="10.00">v8&#45;script.h</text>
</a>
</g>
</g>
<!-- Node52&#45;&gt;Node53 -->
<g id="edge111" class="edge">
<title>Node52&#45;&gt;Node53</title>
<path fill="none" stroke="#63b8ff" d="M1317.38,-662.83C1313.67,-655.78 1308.34,-645.65 1303.71,-636.83"/>
<polygon fill="#63b8ff" stroke="#63b8ff" points="1306.48,-635.58 1298.72,-628.36 1300.28,-638.84 1306.48,-635.58"/>
</g>
<!-- Node53&#45;&gt;Node2 -->
<g id="edge112" class="edge">
<title>Node53&#45;&gt;Node2</title>
<path fill="none" stroke="#63b8ff" d="M1263.06,-615.78C1121.14,-612.93 538.23,-599.52 512,-571.75 438.43,-493.86 480.46,-425.44 532,-331.5 601.59,-204.66 647.25,-185.45 771,-110.5 798.94,-93.58 834.26,-81.71 860.23,-74.49"/>
<polygon fill="#63b8ff" stroke="#63b8ff" points="860.98,-77.65 869.73,-71.68 859.17,-70.89 860.98,-77.65"/>
</g>
<!-- Node53&#45;&gt;Node3 -->
<g id="edge113" class="edge">
<title>Node53&#45;&gt;Node3</title>
<path fill="none" stroke="#63b8ff" d="M1263.03,-616.57C1123.44,-617.18 556.73,-616.86 493,-571.75 449.58,-541.01 321.45,-181.47 309,-129.75 305.49,-115.16 304.29,-98.21 303.94,-85.44"/>
<polygon fill="#63b8ff" stroke="#63b8ff" points="307.43,-85.65 303.82,-75.69 300.43,-85.73 307.43,-85.65"/>
</g>
<!-- Node53&#45;&gt;Node4 -->
<g id="edge114" class="edge">
<title>Node53&#45;&gt;Node4</title>
<path fill="none" stroke="#63b8ff" d="M1263.13,-615.27C1149.86,-610.67 758.65,-589.66 662,-516.5 591.12,-462.85 558.6,-416.06 586,-331.5 639.49,-166.39 697.08,-109.3 862,-55.25 949.62,-26.53 1231.35,-14.98 1332.45,-11.69"/>
<polygon fill="#63b8ff" stroke="#63b8ff" points="1332.43,-15.16 1342.32,-11.35 1332.21,-8.17 1332.43,-15.16"/>
</g>
<!-- Node53&#45;&gt;Node8 -->
<g id="edge121" class="edge">
<title>Node53&#45;&gt;Node8</title>
<path fill="none" stroke="#63b8ff" d="M1324.82,-615.4C1450.13,-611.33 1921.7,-594.78 2069,-571.75 2263.1,-541.4 2308.78,-517.55 2497,-461.25 2668.53,-409.94 2828,-410.67 2828,-231.62 2828,-231.62 2828,-231.62 2828,-174.38 2828,-130.93 2793.86,-127.78 2754,-110.5 2686.51,-81.25 2466.84,-70.44 2374.97,-67.13"/>
<polygon fill="#63b8ff" stroke="#63b8ff" points="2375.28,-63.6 2365.16,-66.75 2375.04,-70.6 2375.28,-63.6"/>
</g>
<!-- Node53&#45;&gt;Node10 -->
<g id="edge118" class="edge">
<title>Node53&#45;&gt;Node10</title>
<path fill="none" stroke="#63b8ff" d="M1296.8,-607.49C1299.64,-598.49 1304.15,-584.16 1308,-571.75 1323.25,-522.68 1334.16,-512.03 1342,-461.25 1350.79,-404.26 1311.2,-379.61 1343,-331.5 1345.97,-327 1481.09,-270.8 1544.17,-244.74"/>
<polygon fill="#63b8ff" stroke="#63b8ff" points="1545.1,-247.73 1553,-240.68 1542.43,-241.26 1545.1,-247.73"/>
</g>
<!-- Node53&#45;&gt;Node12 -->
<g id="edge115" class="edge">
<title>Node53&#45;&gt;Node12</title>
<path fill="none" stroke="#63b8ff" d="M1293.75,-607.69C1293,-572.24 1292.75,-435.49 1329,-331.5 1335.17,-313.79 1341.83,-311.86 1351,-295.5 1370.52,-260.68 1391.31,-218.95 1402.88,-195.26"/>
<polygon fill="#63b8ff" stroke="#63b8ff" points="1406.42,-196.99 1407.64,-186.46 1400.12,-193.93 1406.42,-196.99"/>
</g>
<!-- Node53&#45;&gt;Node20 -->
<g id="edge120" class="edge">
<title>Node53&#45;&gt;Node20</title>
<path fill="none" stroke="#63b8ff" d="M1263.19,-617.15C1212.4,-617.15 1109.24,-611.7 1034,-571.75 913.43,-507.73 830,-478.64 830,-342.12 830,-342.12 830,-342.12 830,-284.88 830,-199.68 937.75,-153.34 1001.75,-133.33"/>
<polygon fill="#63b8ff" stroke="#63b8ff" points="1002.44,-136.47 1011,-130.23 1000.42,-129.77 1002.44,-136.47"/>
</g>
<!-- Node53&#45;&gt;Node36 -->
<g id="edge119" class="edge">
<title>Node53&#45;&gt;Node36</title>
<path fill="none" stroke="#63b8ff" d="M1280.79,-607.33C1258.07,-590.57 1214,-552.34 1214,-507.88 1214,-507.88 1214,-507.88 1214,-450.62 1214,-389.56 1264.03,-330.89 1291.48,-303.29"/>
<polygon fill="#63b8ff" stroke="#63b8ff" points="1293.48,-306.25 1298.19,-296.76 1288.59,-301.24 1293.48,-306.25"/>
</g>
<!-- Node53&#45;&gt;Node44 -->
<g id="edge117" class="edge">
<title>Node53&#45;&gt;Node44</title>
<path fill="none" stroke="#63b8ff" d="M1324.76,-615.02C1436.95,-609.96 1823.91,-591.45 1946,-571.75 2052.43,-554.58 2180,-615.68 2180,-507.88 2180,-507.88 2180,-507.88 2180,-450.62 2180,-387.39 2123.19,-329.75 2091.97,-302.84"/>
<polygon fill="#63b8ff" stroke="#63b8ff" points="2094.47,-299.53 2084.56,-295.8 2089.98,-304.9 2094.47,-299.53"/>
</g>
<!-- Node53&#45;&gt;Node49 -->
<g id="edge116" class="edge">
<title>Node53&#45;&gt;Node49</title>
<path fill="none" stroke="#63b8ff" d="M1324.78,-613.66C1422.58,-605.04 1726.83,-578.22 1847.73,-567.56"/>
<polygon fill="#63b8ff" stroke="#63b8ff" points="1847.85,-570.97 1857.51,-566.61 1847.24,-564 1847.85,-570.97"/>
</g>
<!-- Node57&#45;&gt;Node8 -->
<g id="edge125" class="edge">
<title>Node57&#45;&gt;Node8</title>
<path fill="none" stroke="#63b8ff" d="M1424.86,-331.08C1473.93,-310 1600.81,-256.69 1710,-221 1769.02,-201.71 1786.46,-205.71 1845,-185 1921.62,-157.89 1933.86,-132.86 2012,-110.5 2110.59,-82.29 2231.43,-71.65 2293.28,-67.84"/>
<polygon fill="#63b8ff" stroke="#63b8ff" points="2293.34,-71.29 2303.12,-67.21 2292.93,-64.3 2293.34,-71.29"/>
</g>
<!-- Node57&#45;&gt;Node47 -->
<g id="edge124" class="edge">
<title>Node57&#45;&gt;Node47</title>
<path fill="none" stroke="#63b8ff" d="M1357.89,-331.03C1311.59,-321.9 1240.16,-307.81 1190.48,-298.01"/>
<polygon fill="#63b8ff" stroke="#63b8ff" points="1191.41,-294.43 1180.92,-295.93 1190.05,-301.3 1191.41,-294.43"/>
</g>
<!-- Node58&#45;&gt;Node2 -->
<g id="edge127" class="edge">
<title>Node58&#45;&gt;Node2</title>
<path fill="none" stroke="#63b8ff" d="M1765.44,-497.29C1654.51,-472.61 1331.94,-396.73 1077,-295.5 1026.52,-275.46 1004.89,-280.11 968,-240.25 946.03,-216.51 915.11,-125.61 902.12,-85.31"/>
<polygon fill="#63b8ff" stroke="#63b8ff" points="905.19,-84.43 898.82,-75.97 898.52,-86.56 905.19,-84.43"/>
</g>
<!-- Node58&#45;&gt;Node8 -->
<g id="edge130" class="edge">
<title>Node58&#45;&gt;Node8</title>
<path fill="none" stroke="#63b8ff" d="M1844.5,-498.41C1847.37,-497.98 1850.23,-497.59 1853,-497.25 1979.22,-481.98 2302.76,-499.54 2424,-461.25 2428.21,-459.92 2692.84,-299.35 2695,-295.5 2718.33,-253.89 2724.54,-209.01 2558,-110.5 2487.42,-68.75 2455.23,-90.74 2374.74,-75.57"/>
<polygon fill="#63b8ff" stroke="#63b8ff" points="2375.64,-71.98 2365.14,-73.41 2374.24,-78.84 2375.64,-71.98"/>
</g>
<!-- Node58&#45;&gt;Node10 -->
<g id="edge128" class="edge">
<title>Node58&#45;&gt;Node10</title>
<path fill="none" stroke="#63b8ff" d="M1765.42,-503.21C1733.21,-499.02 1688.56,-488.36 1660,-461.25 1598.5,-402.88 1581.83,-295.79 1577.48,-251.56"/>
<polygon fill="#63b8ff" stroke="#63b8ff" points="1580.88,-251.28 1576.53,-241.62 1573.91,-251.88 1580.88,-251.28"/>
</g>
<!-- Node58&#45;&gt;Node23 -->
<g id="edge129" class="edge">
<title>Node58&#45;&gt;Node23</title>
<path fill="none" stroke="#63b8ff" d="M1820.78,-496.84C1835.07,-488.66 1856.38,-476.46 1872.99,-466.94"/>
<polygon fill="#63b8ff" stroke="#63b8ff" points="1874.21,-469.71 1881.15,-461.7 1870.73,-463.63 1874.21,-469.71"/>
</g>
<!-- Node59&#45;&gt;Node8 -->
<g id="edge137" class="edge">
<title>Node59&#45;&gt;Node8</title>
<path fill="none" stroke="#63b8ff" d="M2371.7,-441.73C2424.28,-400.69 2632.13,-226.8 2538,-110.5 2491.85,-53.49 2447.97,-88.22 2374.69,-75.49"/>
<polygon fill="#63b8ff" stroke="#63b8ff" points="2375.64,-71.91 2365.15,-73.37 2374.26,-78.78 2375.64,-71.91"/>
</g>
<!-- Node59&#45;&gt;Node10 -->
<g id="edge135" class="edge">
<title>Node59&#45;&gt;Node10</title>
<path fill="none" stroke="#63b8ff" d="M2304.27,-445.61C2238.48,-439.1 2126.01,-426.14 2031,-406 1944.97,-387.76 1922.11,-384.74 1841,-350.75 1778.51,-324.57 1769.91,-303.77 1708,-276.25 1678.95,-263.34 1644.95,-251.92 1618.73,-243.87"/>
<polygon fill="#63b8ff" stroke="#63b8ff" points="1619.95,-240.28 1609.37,-240.74 1617.93,-246.98 1619.95,-240.28"/>
</g>
<!-- Node59&#45;&gt;Node14 -->
<g id="edge134" class="edge">
<title>Node59&#45;&gt;Node14</title>
<path fill="none" stroke="#63b8ff" d="M2363.99,-441.68C2372.93,-420.13 2391.84,-364.65 2366,-331.5 2325.71,-279.81 2285.41,-315.52 2223,-295.5 2200.72,-288.35 2196.6,-282.29 2174,-276.25 2069.38,-248.27 2027.17,-293.73 1933,-240.25 1895.79,-219.12 1908.52,-188.06 1872,-165.75 1822.11,-135.27 1754.33,-125.44 1710.13,-122.36"/>
<polygon fill="#63b8ff" stroke="#63b8ff" points="1710.62,-118.82 1700.43,-121.72 1710.2,-125.81 1710.62,-118.82"/>
</g>
<!-- Node59&#45;&gt;Node18 -->
<g id="edge133" class="edge">
<title>Node59&#45;&gt;Node18</title>
<path fill="none" stroke="#63b8ff" d="M2368.5,-441.57C2375.8,-433.11 2385.81,-419.75 2390,-406 2406.96,-350.37 2406.93,-323.49 2373,-276.25 2286.56,-155.89 2108.36,-94.42 2037.26,-73.9"/>
<polygon fill="#63b8ff" stroke="#63b8ff" points="2038.38,-70.3 2027.8,-70.96 2036.48,-77.03 2038.38,-70.3"/>
</g>
<!-- Node59&#45;&gt;Node43 -->
<g id="edge136" class="edge">
<title>Node59&#45;&gt;Node43</title>
<path fill="none" stroke="#63b8ff" d="M2311.67,-441.53C2259.5,-431.71 2176.9,-416.17 2124.9,-406.39"/>
<polygon fill="#63b8ff" stroke="#63b8ff" points="2125.76,-402.8 2115.28,-404.39 2124.47,-409.68 2125.76,-402.8"/>
</g>
<!-- Node59&#45;&gt;Node26 -->
<g id="edge132" class="edge">
<title>Node59&#45;&gt;Node26</title>
<path fill="none" stroke="#63b8ff" d="M2357.87,-441.75C2353.7,-424.34 2344.36,-385.37 2338.68,-361.66"/>
<polygon fill="#63b8ff" stroke="#63b8ff" points="2341.89,-361.04 2336.16,-352.13 2335.08,-362.67 2341.89,-361.04"/>
</g>
<!-- Node61&#45;&gt;Node2 -->
<g id="edge144" class="edge">
<title>Node61&#45;&gt;Node2</title>
<path fill="none" stroke="#63b8ff" d="M1042.4,-558.98C955.28,-553.74 749.34,-539.09 728,-516.5 674.66,-460.03 716,-419.81 716,-342.12 716,-342.12 716,-342.12 716,-229.62 716,-152 808.74,-101.44 861.08,-79.09"/>
<polygon fill="#63b8ff" stroke="#63b8ff" points="862.07,-82.06 869.97,-75 859.39,-75.59 862.07,-82.06"/>
</g>
<!-- Node61&#45;&gt;Node3 -->
<g id="edge145" class="edge">
<title>Node61&#45;&gt;Node3</title>
<path fill="none" stroke="#63b8ff" d="M1042.31,-559.5C959.46,-555.53 767.67,-543.63 709,-516.5 671.07,-498.96 640,-494.41 640,-452.62 640,-452.62 640,-452.62 640,-284.88 640,-201.85 637.34,-162.97 573,-110.5 537.7,-81.71 403.46,-70.99 338.98,-67.44"/>
<polygon fill="#63b8ff" stroke="#63b8ff" points="339.32,-63.9 329.16,-66.87 338.96,-70.89 339.32,-63.9"/>
</g>
<!-- Node61&#45;&gt;Node4 -->
<g id="edge146" class="edge">
<title>Node61&#45;&gt;Node4</title>
<path fill="none" stroke="#63b8ff" d="M1071.74,-552.22C1054.67,-534.82 1020,-494.33 1020,-452.62 1020,-452.62 1020,-452.62 1020,-395.38 1020,-317.42 968.1,-291.68 1001,-221 1004.02,-214.52 1191.65,-58.54 1198,-55.25 1241.47,-32.77 1297.15,-20.98 1332.95,-15.28"/>
<polygon fill="#63b8ff" stroke="#63b8ff" points="1333.03,-18.66 1342.39,-13.71 1331.98,-11.74 1333.03,-18.66"/>
</g>
<!-- Node61&#45;&gt;Node6 -->
<g id="edge147" class="edge">
<title>Node61&#45;&gt;Node6</title>
<path fill="none" stroke="#63b8ff" d="M1079.61,-552.31C1072.7,-508.56 1042.05,-314.3 1032.12,-251.37"/>
<polygon fill="#63b8ff" stroke="#63b8ff" points="1035.44,-250.95 1030.42,-241.62 1028.52,-252.04 1035.44,-250.95"/>
</g>
<!-- Node61&#45;&gt;Node8 -->
<g id="edge152" class="edge">
<title>Node61&#45;&gt;Node8</title>
<path fill="none" stroke="#63b8ff" d="M1119.74,-560.27C1241.31,-557.32 1625.94,-546.15 1943,-516.5 2006.41,-510.57 2021.74,-504.63 2085,-497.25 2248.23,-478.21 2296.84,-512.44 2453,-461.25 2583.22,-418.56 2649.7,-417.04 2713,-295.5 2758.95,-207.27 2679.03,-148.28 2587,-110.5 2516.03,-81.37 2426.23,-71.24 2374.93,-67.73"/>
<polygon fill="#63b8ff" stroke="#63b8ff" points="2375.17,-64.17 2364.97,-67.04 2374.73,-71.16 2375.17,-64.17"/>
</g>
<!-- Node61&#45;&gt;Node10 -->
<g id="edge149" class="edge">
<title>Node61&#45;&gt;Node10</title>
<path fill="none" stroke="#63b8ff" d="M1087.97,-552.07C1113.99,-518.77 1209.12,-401.41 1310,-331.5 1358.92,-297.6 1376.35,-297.38 1432,-276.25 1464.98,-263.73 1503.15,-252.02 1531.9,-243.74"/>
<polygon fill="#63b8ff" stroke="#63b8ff" points="1532.77,-246.85 1541.43,-240.74 1530.85,-240.12 1532.77,-246.85"/>
</g>
<!-- Node61&#45;&gt;Node12 -->
<g id="edge148" class="edge">
<title>Node61&#45;&gt;Node12</title>
<path fill="none" stroke="#63b8ff" d="M1085.18,-552.03C1102.79,-514.42 1174.38,-368.65 1267,-276.25 1303.52,-239.82 1354.89,-208.02 1385.67,-190.58"/>
<polygon fill="#63b8ff" stroke="#63b8ff" points="1386.87,-193.36 1393.9,-185.43 1383.46,-187.25 1386.87,-193.36"/>
</g>
<!-- Node61&#45;&gt;Node20 -->
<g id="edge150" class="edge">
<title>Node61&#45;&gt;Node20</title>
<path fill="none" stroke="#63b8ff" d="M1060.63,-552.02C1044.57,-544.18 1022.26,-531.72 1006,-516.5 940.73,-455.39 918.53,-436.13 892,-350.75 877.19,-303.07 988.53,-182.16 1031.53,-137.79"/>
<polygon fill="#63b8ff" stroke="#63b8ff" points="1033.68,-140.57 1038.16,-130.98 1028.67,-135.68 1033.68,-140.57"/>
</g>
<!-- Node61&#45;&gt;Node51 -->
<g id="edge151" class="edge">
<title>Node61&#45;&gt;Node51</title>
<path fill="none" stroke="#63b8ff" d="M1119.72,-560.69C1231.58,-559.04 1564.95,-551.43 1851.6,-516.48"/>
<polygon fill="#63b8ff" stroke="#63b8ff" points="1851.71,-519.87 1861.21,-515.18 1850.85,-512.93 1851.71,-519.87"/>
</g>
<!-- Node62&#45;&gt;Node4 -->
<g id="edge154" class="edge">
<title>Node62&#45;&gt;Node4</title>
<path fill="none" stroke="#63b8ff" d="M3039.64,-331.22C3044.86,-312.8 3056,-269.11 3056,-231.62 3056,-231.62 3056,-231.62 3056,-119.12 3056,-33.4 1650.51,-13.77 1405.28,-11"/>
<polygon fill="#63b8ff" stroke="#63b8ff" points="1405.53,-7.49 1395.49,-10.88 1405.45,-14.49 1405.53,-7.49"/>
</g>
<!-- Node62&#45;&gt;Node8 -->
<g id="edge159" class="edge">
<title>Node62&#45;&gt;Node8</title>
<path fill="none" stroke="#63b8ff" d="M3034.36,-331.22C3029.14,-312.8 3018,-269.11 3018,-231.62 3018,-231.62 3018,-231.62 3018,-174.38 3018,-144.05 3018.33,-128.6 2994,-110.5 2944.36,-73.59 2510.83,-67.2 2374.71,-66.1"/>
<polygon fill="#63b8ff" stroke="#63b8ff" points="2374.98,-62.6 2364.95,-66.02 2374.92,-69.6 2374.98,-62.6"/>
</g>
<!-- Node63 -->
<g id="node50" class="node">
<title>Node63</title>
<g id="a_node50"><a xlink:href="v8-embedder-state-scope_8h.html" target="_top" xlink:title=" ">
<polygon fill="white" stroke="#666666" points="2685.88,-295.5 2552.12,-295.5 2552.12,-276.25 2685.88,-276.25 2685.88,-295.5"/>
<text text-anchor="middle" x="2619" y="-282" font-family="Helvetica,sans-Serif" font-size="10.00">v8&#45;embedder&#45;state&#45;scope.h</text>
</a>
</g>
</g>
<!-- Node62&#45;&gt;Node63 -->
<g id="edge155" class="edge">
<title>Node62&#45;&gt;Node63</title>
<path fill="none" stroke="#63b8ff" d="M2998.8,-335.26C2930.63,-326.57 2786.77,-308.25 2696.98,-296.81"/>
<polygon fill="#63b8ff" stroke="#63b8ff" points="2697.67,-293.24 2687.3,-295.45 2696.78,-300.18 2697.67,-293.24"/>
</g>
<!-- Node63&#45;&gt;Node4 -->
<g id="edge156" class="edge">
<title>Node63&#45;&gt;Node4</title>
<path fill="none" stroke="#63b8ff" d="M2619.69,-275.79C2621.35,-247.18 2622.4,-158.02 2576,-110.5 2510.68,-43.6 2465.38,-69.69 2373,-55.25 2180.86,-25.21 1562.04,-13.65 1405.33,-11.16"/>
<polygon fill="#63b8ff" stroke="#63b8ff" points="1405.5,-7.65 1395.45,-10.99 1405.39,-14.65 1405.5,-7.65"/>
</g>
<!-- Node63&#45;&gt;Node10 -->
<g id="edge158" class="edge">
<title>Node63&#45;&gt;Node10</title>
<path fill="none" stroke="#63b8ff" d="M2551.77,-281.44C2359.36,-271.62 1808.99,-243.52 1631.73,-234.47"/>
<polygon fill="#63b8ff" stroke="#63b8ff" points="1632.02,-230.93 1621.85,-233.91 1631.66,-237.92 1632.02,-230.93"/>
</g>
<!-- Node63&#45;&gt;Node14 -->
<g id="edge157" class="edge">
<title>Node63&#45;&gt;Node14</title>
<path fill="none" stroke="#63b8ff" d="M2585.23,-275.82C2501.81,-253.78 2279.03,-196.85 2090,-165.75 1952.72,-143.16 1788.51,-129.72 1710.49,-124.15"/>
<polygon fill="#63b8ff" stroke="#63b8ff" points="1710.83,-120.59 1700.61,-123.38 1710.34,-127.58 1710.83,-120.59"/>
</g>
</g>
</svg>
