<?xml version="1.0" encoding="UTF-8" standalone="no"?>
<!DOCTYPE svg PUBLIC "-//W3C//DTD SVG 1.1//EN"
 "http://www.w3.org/Graphics/SVG/1.1/DTD/svg11.dtd">
<!-- Generated by graphviz version 2.49.3 (20211027.1534)
 -->
<!-- Title: cppgc::internal::BasicPersistent::Get Pages: 1 -->
<svg width="369pt" height="351pt"
 viewBox="0.00 0.00 369.00 351.00" xmlns="http://www.w3.org/2000/svg" xmlns:xlink="http://www.w3.org/1999/xlink">
<g id="graph0" class="graph" transform="scale(1 1) rotate(0) translate(4 347)">
<title>cppgc::internal::BasicPersistent::Get</title>
<polygon fill="white" stroke="transparent" points="-4,4 -4,-347 365,-347 365,4 -4,4"/>
<!-- Node1 -->
<g id="node1" class="node">
<title>Node1</title>
<g id="a_node1"><a xlink:title=" ">
<polygon fill="#bfbfbf" stroke="black" points="188,-171 188,-190 361,-190 361,-171 188,-171"/>
<text text-anchor="middle" x="274.5" y="-178" font-family="Helvetica,sans-Serif" font-size="10.00">cppgc::internal::BasicPersistent::Get</text>
</a>
</g>
</g>
<!-- Node2 -->
<g id="node2" class="node">
<title>Node2</title>
<g id="a_node2"><a xlink:href="classcppgc_1_1internal_1_1BasicPersistent.html#a0bd538038aa020da214af7fac0caf31c" target="_top" xlink:title=" ">
<polygon fill="white" stroke="black" points="0,-312.5 0,-342.5 152,-342.5 152,-312.5 0,-312.5"/>
<text text-anchor="start" x="8" y="-330.5" font-family="Helvetica,sans-Serif" font-size="10.00">cppgc::internal::BasicPersistent</text>
<text text-anchor="middle" x="76" y="-319.5" font-family="Helvetica,sans-Serif" font-size="10.00">::BasicPersistent</text>
</a>
</g>
</g>
<!-- Node1&#45;&gt;Node2 -->
<g id="edge1" class="edge">
<title>Node1&#45;&gt;Node2</title>
<path fill="none" stroke="midnightblue" d="M260.71,-198.06C240.5,-224.6 198.65,-274.86 152,-303.5 146.52,-306.86 140.53,-309.8 134.4,-312.35"/>
<polygon fill="midnightblue" stroke="midnightblue" points="263.53,-200.14 266.71,-190.03 257.92,-195.95 263.53,-200.14"/>
</g>
<!-- Node3 -->
<g id="node3" class="node">
<title>Node3</title>
<g id="a_node3"><a xlink:href="classcppgc_1_1internal_1_1BasicPersistent.html#aa482ce311ee265edc2e0fa0133de8648" target="_top" xlink:title=" ">
<polygon fill="white" stroke="black" points="0,-263.5 0,-293.5 152,-293.5 152,-263.5 0,-263.5"/>
<text text-anchor="start" x="8" y="-281.5" font-family="Helvetica,sans-Serif" font-size="10.00">cppgc::internal::BasicPersistent</text>
<text text-anchor="middle" x="76" y="-270.5" font-family="Helvetica,sans-Serif" font-size="10.00">::operator bool</text>
</a>
</g>
</g>
<!-- Node1&#45;&gt;Node3 -->
<g id="edge2" class="edge">
<title>Node1&#45;&gt;Node3</title>
<path fill="none" stroke="midnightblue" d="M252,-195.77C228.37,-212.02 188.85,-237.67 152,-254.5 144.91,-257.74 137.26,-260.72 129.65,-263.41"/>
<polygon fill="midnightblue" stroke="midnightblue" points="254.03,-198.62 260.24,-190.04 250.03,-192.88 254.03,-198.62"/>
</g>
<!-- Node4 -->
<g id="node4" class="node">
<title>Node4</title>
<g id="a_node4"><a xlink:href="classcppgc_1_1internal_1_1BasicPersistent.html#a5ef52055741895dd89ffc999f701bf2e" target="_top" xlink:title=" ">
<polygon fill="white" stroke="black" points="0,-214.5 0,-244.5 152,-244.5 152,-214.5 0,-214.5"/>
<text text-anchor="start" x="8" y="-232.5" font-family="Helvetica,sans-Serif" font-size="10.00">cppgc::internal::BasicPersistent</text>
<text text-anchor="middle" x="76" y="-221.5" font-family="Helvetica,sans-Serif" font-size="10.00">::operator T*</text>
</a>
</g>
</g>
<!-- Node1&#45;&gt;Node4 -->
<g id="edge3" class="edge">
<title>Node1&#45;&gt;Node4</title>
<path fill="none" stroke="midnightblue" d="M225.32,-192.51C198.77,-199.14 165.56,-207.42 137.3,-214.46"/>
<polygon fill="midnightblue" stroke="midnightblue" points="226.29,-195.88 235.15,-190.06 224.6,-189.09 226.29,-195.88"/>
</g>
<!-- Node5 -->
<g id="node5" class="node">
<title>Node5</title>
<g id="a_node5"><a xlink:href="classcppgc_1_1internal_1_1BasicPersistent.html#ab97e13c375479bd323625ee17519cd28" target="_top" xlink:title=" ">
<polygon fill="white" stroke="black" points="0,-165.5 0,-195.5 152,-195.5 152,-165.5 0,-165.5"/>
<text text-anchor="start" x="8" y="-183.5" font-family="Helvetica,sans-Serif" font-size="10.00">cppgc::internal::BasicPersistent</text>
<text text-anchor="middle" x="76" y="-172.5" font-family="Helvetica,sans-Serif" font-size="10.00">::operator*</text>
</a>
</g>
</g>
<!-- Node1&#45;&gt;Node5 -->
<g id="edge4" class="edge">
<title>Node1&#45;&gt;Node5</title>
<path fill="none" stroke="midnightblue" d="M177.8,-180.5C169.2,-180.5 160.56,-180.5 152.16,-180.5"/>
<polygon fill="midnightblue" stroke="midnightblue" points="177.88,-184 187.88,-180.5 177.88,-177 177.88,-184"/>
</g>
<!-- Node6 -->
<g id="node6" class="node">
<title>Node6</title>
<g id="a_node6"><a xlink:href="classcppgc_1_1internal_1_1BasicPersistent.html#a751d2f671eb8592ecb8106d720496acf" target="_top" xlink:title=" ">
<polygon fill="white" stroke="black" points="0,-116.5 0,-146.5 152,-146.5 152,-116.5 0,-116.5"/>
<text text-anchor="start" x="8" y="-134.5" font-family="Helvetica,sans-Serif" font-size="10.00">cppgc::internal::BasicPersistent</text>
<text text-anchor="middle" x="76" y="-123.5" font-family="Helvetica,sans-Serif" font-size="10.00">::operator&#45;&gt;</text>
</a>
</g>
</g>
<!-- Node1&#45;&gt;Node6 -->
<g id="edge5" class="edge">
<title>Node1&#45;&gt;Node6</title>
<path fill="none" stroke="midnightblue" d="M225.32,-168.49C198.77,-161.86 165.56,-153.58 137.3,-146.54"/>
<polygon fill="midnightblue" stroke="midnightblue" points="224.6,-171.91 235.15,-170.94 226.29,-165.12 224.6,-171.91"/>
</g>
<!-- Node7 -->
<g id="node7" class="node">
<title>Node7</title>
<g id="a_node7"><a xlink:href="classcppgc_1_1internal_1_1BasicPersistent.html#a8aafec5d5b02eb3295d601e251f277e2" target="_top" xlink:title=" ">
<polygon fill="white" stroke="black" points="0,-49.5 0,-79.5 152,-79.5 152,-49.5 0,-49.5"/>
<text text-anchor="start" x="8" y="-67.5" font-family="Helvetica,sans-Serif" font-size="10.00">cppgc::internal::BasicPersistent</text>
<text text-anchor="middle" x="76" y="-56.5" font-family="Helvetica,sans-Serif" font-size="10.00">::operator=</text>
</a>
</g>
</g>
<!-- Node1&#45;&gt;Node7 -->
<g id="edge6" class="edge">
<title>Node1&#45;&gt;Node7</title>
<path fill="none" stroke="midnightblue" d="M249.2,-165.7C224.74,-150.85 185.87,-127.38 152,-107.5 136.08,-98.15 118.14,-87.86 103.8,-79.69"/>
<polygon fill="midnightblue" stroke="midnightblue" points="247.47,-168.74 257.83,-170.95 251.11,-162.76 247.47,-168.74"/>
</g>
<!-- Node8 -->
<g id="node8" class="node">
<title>Node8</title>
<g id="a_node8"><a xlink:href="classcppgc_1_1internal_1_1BasicPersistent.html#a6ace7843b070dccc7ae98aa1835f1bfd" target="_top" xlink:title=" ">
<polygon fill="white" stroke="black" points="0,-0.5 0,-30.5 152,-30.5 152,-0.5 0,-0.5"/>
<text text-anchor="start" x="8" y="-18.5" font-family="Helvetica,sans-Serif" font-size="10.00">cppgc::internal::BasicPersistent</text>
<text text-anchor="middle" x="76" y="-7.5" font-family="Helvetica,sans-Serif" font-size="10.00">::Release</text>
</a>
</g>
</g>
<!-- Node1&#45;&gt;Node8 -->
<g id="edge8" class="edge">
<title>Node1&#45;&gt;Node8</title>
<path fill="none" stroke="midnightblue" d="M262.34,-162.22C243.31,-132.51 201.75,-73.73 152,-40.5 146.29,-36.69 139.95,-33.41 133.45,-30.61"/>
<polygon fill="midnightblue" stroke="midnightblue" points="259.43,-164.17 267.71,-170.78 265.36,-160.45 259.43,-164.17"/>
</g>
<!-- Node7&#45;&gt;Node7 -->
<g id="edge7" class="edge">
<title>Node7&#45;&gt;Node7</title>
<path fill="none" stroke="midnightblue" d="M111.18,-89.96C106.82,-94.68 95.09,-98 76,-98 44.68,-98 33.17,-89.06 41.49,-79.66"/>
<polygon fill="midnightblue" stroke="midnightblue" points="114.65,-89.41 110.51,-79.66 107.67,-89.87 114.65,-89.41"/>
</g>
</g>
</svg>
