<?xml version="1.0" encoding="UTF-8" standalone="no"?>
<!DOCTYPE svg PUBLIC "-//W3C//DTD SVG 1.1//EN"
 "http://www.w3.org/Graphics/SVG/1.1/DTD/svg11.dtd">
<!-- Generated by graphviz version 2.49.3 (20211027.1534)
 -->
<!-- Title: cppgc::internal::IsGarbageCollectedType&lt; T, typename &gt; Pages: 1 -->
<svg width="156pt" height="173pt"
 viewBox="0.00 0.00 156.00 173.00" xmlns="http://www.w3.org/2000/svg" xmlns:xlink="http://www.w3.org/1999/xlink">
<g id="graph0" class="graph" transform="scale(1 1) rotate(0) translate(4 169)">
<title>cppgc::internal::IsGarbageCollectedType&lt; T, typename &gt;</title>
<polygon fill="white" stroke="transparent" points="-4,4 -4,-169 152,-169 152,4 -4,4"/>
<!-- Node1 -->
<g id="node1" class="node">
<title>Node1</title>
<g id="a_node1"><a xlink:title=" ">
<polygon fill="#bfbfbf" stroke="black" points="0,-0.5 0,-30.5 148,-30.5 148,-0.5 0,-0.5"/>
<text text-anchor="start" x="8" y="-18.5" font-family="Helvetica,sans-Serif" font-size="10.00">cppgc::internal::IsGarbage</text>
<text text-anchor="middle" x="74" y="-7.5" font-family="Helvetica,sans-Serif" font-size="10.00">CollectedType&lt; T, typename &gt;</text>
</a>
</g>
</g>
<!-- Node2 -->
<g id="node2" class="node">
<title>Node2</title>
<g id="a_node2"><a xlink:href="structcppgc_1_1internal_1_1IsGarbageCollectedMixinType.html" target="_top" xlink:title=" ">
<polygon fill="white" stroke="black" points="10,-67.5 10,-108.5 138,-108.5 138,-67.5 10,-67.5"/>
<text text-anchor="start" x="18" y="-96.5" font-family="Helvetica,sans-Serif" font-size="10.00">cppgc::internal::IsGarbage</text>
<text text-anchor="start" x="18" y="-85.5" font-family="Helvetica,sans-Serif" font-size="10.00">CollectedMixinType&lt; T,</text>
<text text-anchor="middle" x="74" y="-74.5" font-family="Helvetica,sans-Serif" font-size="10.00"> typename &gt;</text>
</a>
</g>
</g>
<!-- Node2&#45;&gt;Node1 -->
<g id="edge1" class="edge">
<title>Node2&#45;&gt;Node1</title>
<path fill="none" stroke="midnightblue" d="M74,-57.08C74,-48.01 74,-38.45 74,-30.89"/>
<polygon fill="midnightblue" stroke="midnightblue" points="70.5,-57.36 74,-67.36 77.5,-57.36 70.5,-57.36"/>
</g>
<!-- Node3 -->
<g id="node3" class="node">
<title>Node3</title>
<g id="a_node3"><a xlink:title=" ">
<polygon fill="white" stroke="#bfbfbf" points="34.5,-145.5 34.5,-164.5 113.5,-164.5 113.5,-145.5 34.5,-145.5"/>
<text text-anchor="middle" x="74" y="-152.5" font-family="Helvetica,sans-Serif" font-size="10.00">std::false_type</text>
</a>
</g>
</g>
<!-- Node3&#45;&gt;Node2 -->
<g id="edge2" class="edge">
<title>Node3&#45;&gt;Node2</title>
<path fill="none" stroke="midnightblue" d="M74,-135.04C74,-126.71 74,-116.94 74,-108.54"/>
<polygon fill="midnightblue" stroke="midnightblue" points="70.5,-135.23 74,-145.23 77.5,-135.23 70.5,-135.23"/>
</g>
</g>
</svg>
