<?xml version="1.0" encoding="UTF-8" standalone="no"?>
<!DOCTYPE svg PUBLIC "-//W3C//DTD SVG 1.1//EN"
 "http://www.w3.org/Graphics/SVG/1.1/DTD/svg11.dtd">
<!-- Generated by graphviz version 2.49.3 (20211027.1534)
 -->
<!-- Title: include/v8config.h Pages: 1 -->
<svg width="1913pt" height="486pt"
 viewBox="0.00 0.00 1913.00 486.00" xmlns="http://www.w3.org/2000/svg" xmlns:xlink="http://www.w3.org/1999/xlink">
<g id="graph0" class="graph" transform="scale(1 1) rotate(0) translate(4 482)">
<title>include/v8config.h</title>
<polygon fill="white" stroke="transparent" points="-4,4 -4,-482 1909,-482 1909,4 -4,4"/>
<!-- Node1 -->
<g id="node1" class="node">
<title>Node1</title>
<g id="a_node1"><a xlink:title=" ">
<polygon fill="#bfbfbf" stroke="black" points="883,-458.5 883,-477.5 977,-477.5 977,-458.5 883,-458.5"/>
<text text-anchor="middle" x="930" y="-465.5" font-family="Helvetica,sans-Serif" font-size="10.00">include/v8config.h</text>
</a>
</g>
</g>
<!-- Node2 -->
<g id="node2" class="node">
<title>Node2</title>
<g id="a_node2"><a xlink:href="common_8h.html" target="_top" xlink:title=" ">
<polygon fill="white" stroke="black" points="293.5,-397 293.5,-416 418.5,-416 418.5,-397 293.5,-397"/>
<text text-anchor="middle" x="356" y="-404" font-family="Helvetica,sans-Serif" font-size="10.00">include/cppgc/common.h</text>
</a>
</g>
</g>
<!-- Node1&#45;&gt;Node2 -->
<g id="edge1" class="edge">
<title>Node1&#45;&gt;Node2</title>
<path fill="none" stroke="midnightblue" d="M872.88,-463.61C780.24,-457.72 591.6,-444.06 433,-422 421.41,-420.39 408.92,-418.22 397.44,-416.06"/>
<polygon fill="midnightblue" stroke="midnightblue" points="872.69,-467.11 882.89,-464.24 873.13,-460.12 872.69,-467.11"/>
</g>
<!-- Node3 -->
<g id="node3" class="node">
<title>Node3</title>
<g id="a_node3"><a xlink:href="heap_8h.html" target="_top" xlink:title=" ">
<polygon fill="white" stroke="black" points="349,-263 349,-282 457,-282 457,-263 349,-263"/>
<text text-anchor="middle" x="403" y="-270" font-family="Helvetica,sans-Serif" font-size="10.00">include/cppgc/heap.h</text>
</a>
</g>
</g>
<!-- Node1&#45;&gt;Node3 -->
<g id="edge15" class="edge">
<title>Node1&#45;&gt;Node3</title>
<path fill="none" stroke="midnightblue" d="M872.88,-464.56C757.12,-459.18 503.07,-444.88 471,-422 422.06,-387.09 407.54,-308.16 404,-282.06"/>
<polygon fill="midnightblue" stroke="midnightblue" points="872.82,-468.07 882.97,-465.03 873.14,-461.07 872.82,-468.07"/>
</g>
<!-- Node6 -->
<g id="node6" class="node">
<title>Node6</title>
<g id="a_node6"><a xlink:href="liveness-broker_8h.html" target="_top" xlink:title=" ">
<polygon fill="white" stroke="black" points="431,-123.5 431,-153.5 547,-153.5 547,-123.5 431,-123.5"/>
<text text-anchor="start" x="439" y="-141.5" font-family="Helvetica,sans-Serif" font-size="10.00">include/cppgc/liveness</text>
<text text-anchor="middle" x="489" y="-130.5" font-family="Helvetica,sans-Serif" font-size="10.00">&#45;broker.h</text>
</a>
</g>
</g>
<!-- Node1&#45;&gt;Node6 -->
<g id="edge41" class="edge">
<title>Node1&#45;&gt;Node6</title>
<path fill="none" stroke="midnightblue" d="M872.6,-464.33C784.46,-459.5 620.45,-447.34 568,-422 521.45,-399.51 485,-392.2 485,-340.5 485,-340.5 485,-340.5 485,-271.5 485,-228.63 487.13,-177.96 488.28,-153.75"/>
<polygon fill="midnightblue" stroke="midnightblue" points="872.53,-467.84 882.71,-464.88 872.91,-460.85 872.53,-467.84"/>
</g>
<!-- Node8 -->
<g id="node8" class="node">
<title>Node8</title>
<g id="a_node8"><a xlink:href="persistent_8h.html" target="_top" xlink:title=" ">
<polygon fill="white" stroke="black" points="1161,-0.5 1161,-19.5 1291,-19.5 1291,-0.5 1161,-0.5"/>
<text text-anchor="middle" x="1226" y="-7.5" font-family="Helvetica,sans-Serif" font-size="10.00">include/cppgc/persistent.h</text>
</a>
</g>
</g>
<!-- Node1&#45;&gt;Node8 -->
<g id="edge43" class="edge">
<title>Node1&#45;&gt;Node8</title>
<path fill="none" stroke="midnightblue" d="M987.36,-464.47C1074.99,-459.83 1237.46,-447.95 1289,-422 1361.19,-385.65 1394,-354.33 1394,-273.5 1394,-273.5 1394,-273.5 1394,-137.5 1394,-70.5 1307.68,-34.56 1258.79,-19.57"/>
<polygon fill="midnightblue" stroke="midnightblue" points="987.12,-460.98 977.32,-464.99 987.48,-467.97 987.12,-460.98"/>
</g>
<!-- Node9 -->
<g id="node9" class="node">
<title>Node9</title>
<g id="a_node9"><a xlink:href="v8_8h.html" target="_top" xlink:title=" ">
<polygon fill="white" stroke="black" points="191,-330 191,-349 259,-349 259,-330 191,-330"/>
<text text-anchor="middle" x="225" y="-337" font-family="Helvetica,sans-Serif" font-size="10.00">include/v8.h</text>
</a>
</g>
</g>
<!-- Node1&#45;&gt;Node9 -->
<g id="edge64" class="edge">
<title>Node1&#45;&gt;Node9</title>
<path fill="none" stroke="midnightblue" d="M872.67,-465.77C724.12,-462.18 334.75,-450.18 284,-422 254.07,-405.38 235.38,-366.44 228.27,-349.09"/>
<polygon fill="midnightblue" stroke="midnightblue" points="872.86,-469.27 882.94,-466.01 873.02,-462.27 872.86,-469.27"/>
</g>
<!-- Node14 -->
<g id="node14" class="node">
<title>Node14</title>
<g id="a_node14"><a xlink:href="api-constants_8h.html" target="_top" xlink:title=" ">
<polygon fill="white" stroke="black" points="874.5,-391.5 874.5,-421.5 985.5,-421.5 985.5,-391.5 874.5,-391.5"/>
<text text-anchor="start" x="882.5" y="-409.5" font-family="Helvetica,sans-Serif" font-size="10.00">include/cppgc/internal</text>
<text text-anchor="middle" x="930" y="-398.5" font-family="Helvetica,sans-Serif" font-size="10.00">/api&#45;constants.h</text>
</a>
</g>
</g>
<!-- Node1&#45;&gt;Node14 -->
<g id="edge16" class="edge">
<title>Node1&#45;&gt;Node14</title>
<path fill="none" stroke="midnightblue" d="M930,-448.23C930,-439.59 930,-429.5 930,-421.52"/>
<polygon fill="midnightblue" stroke="midnightblue" points="926.5,-448.48 930,-458.48 933.5,-448.48 926.5,-448.48"/>
</g>
<!-- Node18 -->
<g id="node18" class="node">
<title>Node18</title>
<g id="a_node18"><a xlink:href="write-barrier_8h.html" target="_top" xlink:title=" ">
<polygon fill="white" stroke="black" points="589.5,-324.5 589.5,-354.5 700.5,-354.5 700.5,-324.5 589.5,-324.5"/>
<text text-anchor="start" x="597.5" y="-342.5" font-family="Helvetica,sans-Serif" font-size="10.00">include/cppgc/internal</text>
<text text-anchor="middle" x="645" y="-331.5" font-family="Helvetica,sans-Serif" font-size="10.00">/write&#45;barrier.h</text>
</a>
</g>
</g>
<!-- Node1&#45;&gt;Node18 -->
<g id="edge40" class="edge">
<title>Node1&#45;&gt;Node18</title>
<path fill="none" stroke="midnightblue" d="M872.69,-462.21C810.35,-456 715.75,-443.36 687,-422 664.51,-405.29 653.09,-373.04 648.15,-354.51"/>
<polygon fill="midnightblue" stroke="midnightblue" points="872.49,-465.7 882.78,-463.18 873.17,-458.74 872.49,-465.7"/>
</g>
<!-- Node19 -->
<g id="node19" class="node">
<title>Node19</title>
<g id="a_node19"><a xlink:href="pointer-policies_8h.html" target="_top" xlink:title=" ">
<polygon fill="white" stroke="black" points="613.5,-257.5 613.5,-287.5 724.5,-287.5 724.5,-257.5 613.5,-257.5"/>
<text text-anchor="start" x="621.5" y="-275.5" font-family="Helvetica,sans-Serif" font-size="10.00">include/cppgc/internal</text>
<text text-anchor="middle" x="669" y="-264.5" font-family="Helvetica,sans-Serif" font-size="10.00">/pointer&#45;policies.h</text>
</a>
</g>
</g>
<!-- Node1&#45;&gt;Node19 -->
<g id="edge37" class="edge">
<title>Node1&#45;&gt;Node19</title>
<path fill="none" stroke="midnightblue" d="M872.71,-466.5C815.74,-463.99 727.1,-454.53 658,-422 607.88,-398.41 553.24,-371.93 581,-324 590.71,-307.23 608.32,-295.55 625.25,-287.68"/>
<polygon fill="midnightblue" stroke="midnightblue" points="872.84,-470.01 882.96,-466.9 873.1,-463.02 872.84,-470.01"/>
</g>
<!-- Node20 -->
<g id="node20" class="node">
<title>Node20</title>
<g id="a_node20"><a xlink:href="member_8h.html" target="_top" xlink:title=" ">
<polygon fill="white" stroke="black" points="533,-196 533,-215 655,-215 655,-196 533,-196"/>
<text text-anchor="middle" x="594" y="-203" font-family="Helvetica,sans-Serif" font-size="10.00">include/cppgc/member.h</text>
</a>
</g>
</g>
<!-- Node1&#45;&gt;Node20 -->
<g id="edge42" class="edge">
<title>Node1&#45;&gt;Node20</title>
<path fill="none" stroke="midnightblue" d="M872.72,-465.98C789.11,-463.4 639.04,-454.27 597,-422 531.7,-371.88 576.42,-248.75 590.29,-215.11"/>
<polygon fill="midnightblue" stroke="midnightblue" points="872.72,-469.48 882.82,-466.27 872.92,-462.49 872.72,-469.48"/>
</g>
<!-- Node21 -->
<g id="node21" class="node">
<title>Node21</title>
<g id="a_node21"><a xlink:href="gc-info_8h.html" target="_top" xlink:title=" ">
<polygon fill="white" stroke="black" points="718.5,-324.5 718.5,-354.5 829.5,-354.5 829.5,-324.5 718.5,-324.5"/>
<text text-anchor="start" x="726.5" y="-342.5" font-family="Helvetica,sans-Serif" font-size="10.00">include/cppgc/internal</text>
<text text-anchor="middle" x="774" y="-331.5" font-family="Helvetica,sans-Serif" font-size="10.00">/gc&#45;info.h</text>
</a>
</g>
</g>
<!-- Node1&#45;&gt;Node21 -->
<g id="edge29" class="edge">
<title>Node1&#45;&gt;Node21</title>
<path fill="none" stroke="midnightblue" d="M908.45,-452.74C895.83,-444.16 879.72,-432.84 866,-422 837.71,-399.64 806.68,-371.28 788.85,-354.59"/>
<polygon fill="midnightblue" stroke="midnightblue" points="906.69,-455.77 916.94,-458.45 910.6,-449.96 906.69,-455.77"/>
</g>
<!-- Node22 -->
<g id="node22" class="node">
<title>Node22</title>
<g id="a_node22"><a xlink:href="logging_8h.html" target="_top" xlink:title=" ">
<polygon fill="white" stroke="black" points="1216.5,-324.5 1216.5,-354.5 1327.5,-354.5 1327.5,-324.5 1216.5,-324.5"/>
<text text-anchor="start" x="1224.5" y="-342.5" font-family="Helvetica,sans-Serif" font-size="10.00">include/cppgc/internal</text>
<text text-anchor="middle" x="1272" y="-331.5" font-family="Helvetica,sans-Serif" font-size="10.00">/logging.h</text>
</a>
</g>
</g>
<!-- Node1&#45;&gt;Node22 -->
<g id="edge31" class="edge">
<title>Node1&#45;&gt;Node22</title>
<path fill="none" stroke="midnightblue" d="M987.45,-463.14C1059.22,-457.44 1177.09,-444.87 1214,-422 1239.98,-405.9 1257.65,-373.42 1266.16,-354.69"/>
<polygon fill="midnightblue" stroke="midnightblue" points="986.91,-459.67 977.21,-463.94 987.45,-466.65 986.91,-459.67"/>
</g>
<!-- Node23 -->
<g id="node23" class="node">
<title>Node23</title>
<g id="a_node23"><a xlink:href="persistent-node_8h.html" target="_top" xlink:title=" ">
<polygon fill="white" stroke="black" points="1254.5,-257.5 1254.5,-287.5 1365.5,-287.5 1365.5,-257.5 1254.5,-257.5"/>
<text text-anchor="start" x="1262.5" y="-275.5" font-family="Helvetica,sans-Serif" font-size="10.00">include/cppgc/internal</text>
<text text-anchor="middle" x="1310" y="-264.5" font-family="Helvetica,sans-Serif" font-size="10.00">/persistent&#45;node.h</text>
</a>
</g>
</g>
<!-- Node1&#45;&gt;Node23 -->
<g id="edge36" class="edge">
<title>Node1&#45;&gt;Node23</title>
<path fill="none" stroke="midnightblue" d="M987.48,-466.79C1051.9,-464.75 1158.4,-455.89 1243,-422 1290.62,-402.92 1313.5,-400.61 1337,-355 1348.54,-332.61 1333.08,-304.26 1321.23,-287.58"/>
<polygon fill="midnightblue" stroke="midnightblue" points="987.02,-463.3 977.12,-467.07 987.21,-470.3 987.02,-463.3"/>
</g>
<!-- Node24 -->
<g id="node24" class="node">
<title>Node24</title>
<g id="a_node24"><a xlink:href="process-heap_8h.html" target="_top" xlink:title=" ">
<polygon fill="white" stroke="black" points="695.5,-391.5 695.5,-421.5 806.5,-421.5 806.5,-391.5 695.5,-391.5"/>
<text text-anchor="start" x="703.5" y="-409.5" font-family="Helvetica,sans-Serif" font-size="10.00">include/cppgc/internal</text>
<text text-anchor="middle" x="751" y="-398.5" font-family="Helvetica,sans-Serif" font-size="10.00">/process&#45;heap.h</text>
</a>
</g>
</g>
<!-- Node1&#45;&gt;Node24 -->
<g id="edge38" class="edge">
<title>Node1&#45;&gt;Node24</title>
<path fill="none" stroke="midnightblue" d="M894.59,-455.23C865.44,-445.54 824.05,-431.78 793.19,-421.52"/>
<polygon fill="midnightblue" stroke="midnightblue" points="893.76,-458.64 904.35,-458.48 895.97,-452 893.76,-458.64"/>
</g>
<!-- Node25 -->
<g id="node25" class="node">
<title>Node25</title>
<g id="a_node25"><a xlink:href="platform_8h.html" target="_top" xlink:title=" ">
<polygon fill="white" stroke="black" points="962,-330 962,-349 1084,-349 1084,-330 962,-330"/>
<text text-anchor="middle" x="1023" y="-337" font-family="Helvetica,sans-Serif" font-size="10.00">include/cppgc/platform.h</text>
</a>
</g>
</g>
<!-- Node1&#45;&gt;Node25 -->
<g id="edge44" class="edge">
<title>Node1&#45;&gt;Node25</title>
<path fill="none" stroke="midnightblue" d="M957.42,-453.34C970.38,-445.68 985.13,-435.03 995,-422 1012.25,-399.22 1019.35,-365.06 1021.84,-349.19"/>
<polygon fill="midnightblue" stroke="midnightblue" points="955.42,-450.44 948.4,-458.38 958.83,-456.56 955.42,-450.44"/>
</g>
<!-- Node26 -->
<g id="node26" class="node">
<title>Node26</title>
<g id="a_node26"><a xlink:href="source-location_8h.html" target="_top" xlink:title=" ">
<polygon fill="white" stroke="black" points="1095.5,-391.5 1095.5,-421.5 1204.5,-421.5 1204.5,-391.5 1095.5,-391.5"/>
<text text-anchor="start" x="1103.5" y="-409.5" font-family="Helvetica,sans-Serif" font-size="10.00">include/cppgc/source</text>
<text text-anchor="middle" x="1150" y="-398.5" font-family="Helvetica,sans-Serif" font-size="10.00">&#45;location.h</text>
</a>
</g>
</g>
<!-- Node1&#45;&gt;Node26 -->
<g id="edge48" class="edge">
<title>Node1&#45;&gt;Node26</title>
<path fill="none" stroke="midnightblue" d="M971.19,-455.86C1007.11,-446.14 1059.39,-432.01 1098.15,-421.52"/>
<polygon fill="midnightblue" stroke="midnightblue" points="970.26,-452.49 961.52,-458.48 972.09,-459.24 970.26,-452.49"/>
</g>
<!-- Node27 -->
<g id="node27" class="node">
<title>Node27</title>
<g id="a_node27"><a xlink:href="libplatform_8h.html" target="_top" xlink:title=" ">
<polygon fill="white" stroke="black" points="1503.5,-257.5 1503.5,-287.5 1598.5,-287.5 1598.5,-257.5 1503.5,-257.5"/>
<text text-anchor="start" x="1511.5" y="-275.5" font-family="Helvetica,sans-Serif" font-size="10.00">include/libplatform</text>
<text text-anchor="middle" x="1551" y="-264.5" font-family="Helvetica,sans-Serif" font-size="10.00">/libplatform.h</text>
</a>
</g>
</g>
<!-- Node1&#45;&gt;Node27 -->
<g id="edge53" class="edge">
<title>Node1&#45;&gt;Node27</title>
<path fill="none" stroke="midnightblue" d="M987.45,-465.85C1122.95,-462.65 1454.08,-451.84 1494,-422 1537.79,-389.26 1547.94,-318.33 1550.29,-287.87"/>
<polygon fill="midnightblue" stroke="midnightblue" points="987.19,-462.35 977.27,-466.08 987.35,-469.35 987.19,-462.35"/>
</g>
<!-- Node28 -->
<g id="node28" class="node">
<title>Node28</title>
<g id="a_node28"><a xlink:href="v8-fast-api-calls_8h.html" target="_top" xlink:title=" ">
<polygon fill="white" stroke="black" points="1389,-391.5 1389,-421.5 1485,-421.5 1485,-391.5 1389,-391.5"/>
<text text-anchor="start" x="1397" y="-409.5" font-family="Helvetica,sans-Serif" font-size="10.00">include/v8&#45;fast&#45;api</text>
<text text-anchor="middle" x="1437" y="-398.5" font-family="Helvetica,sans-Serif" font-size="10.00">&#45;calls.h</text>
</a>
</g>
</g>
<!-- Node1&#45;&gt;Node28 -->
<g id="edge54" class="edge">
<title>Node1&#45;&gt;Node28</title>
<path fill="none" stroke="midnightblue" d="M987.25,-463.58C1072.28,-457.97 1236.77,-445.05 1375,-422 1379.47,-421.25 1384.1,-420.38 1388.72,-419.43"/>
<polygon fill="midnightblue" stroke="midnightblue" points="986.79,-460.1 977.03,-464.25 987.24,-467.09 986.79,-460.1"/>
</g>
<!-- Node29 -->
<g id="node29" class="node">
<title>Node29</title>
<g id="a_node29"><a xlink:href="v8-internal_8h.html" target="_top" xlink:title=" ">
<polygon fill="white" stroke="black" points="133.5,-397 133.5,-416 236.5,-416 236.5,-397 133.5,-397"/>
<text text-anchor="middle" x="185" y="-404" font-family="Helvetica,sans-Serif" font-size="10.00">include/v8&#45;internal.h</text>
</a>
</g>
</g>
<!-- Node1&#45;&gt;Node29 -->
<g id="edge55" class="edge">
<title>Node1&#45;&gt;Node29</title>
<path fill="none" stroke="midnightblue" d="M872.64,-466.1C755.34,-463.62 479.78,-454.52 251,-422 240.55,-420.51 229.29,-418.28 219.08,-416.01"/>
<polygon fill="midnightblue" stroke="midnightblue" points="872.76,-469.6 882.83,-466.31 872.9,-462.6 872.76,-469.6"/>
</g>
<!-- Node30 -->
<g id="node30" class="node">
<title>Node30</title>
<g id="a_node30"><a xlink:href="v8-platform_8h.html" target="_top" xlink:title=" ">
<polygon fill="white" stroke="black" points="1541.5,-397 1541.5,-416 1648.5,-416 1648.5,-397 1541.5,-397"/>
<text text-anchor="middle" x="1595" y="-404" font-family="Helvetica,sans-Serif" font-size="10.00">include/v8&#45;platform.h</text>
</a>
</g>
</g>
<!-- Node1&#45;&gt;Node30 -->
<g id="edge57" class="edge">
<title>Node1&#45;&gt;Node30</title>
<path fill="none" stroke="midnightblue" d="M987.28,-465.25C1093.96,-461.43 1330.1,-450.28 1527,-422 1537.63,-420.47 1549.09,-418.25 1559.52,-416.01"/>
<polygon fill="midnightblue" stroke="midnightblue" points="986.93,-461.76 977.06,-465.61 987.18,-468.76 986.93,-461.76"/>
</g>
<!-- Node32 -->
<g id="node32" class="node">
<title>Node32</title>
<g id="a_node32"><a xlink:href="v8-wasm-trap-handler-posix_8h.html" target="_top" xlink:title=" ">
<polygon fill="white" stroke="black" points="1667,-391.5 1667,-421.5 1777,-421.5 1777,-391.5 1667,-391.5"/>
<text text-anchor="start" x="1675" y="-409.5" font-family="Helvetica,sans-Serif" font-size="10.00">include/v8&#45;wasm&#45;trap</text>
<text text-anchor="middle" x="1722" y="-398.5" font-family="Helvetica,sans-Serif" font-size="10.00">&#45;handler&#45;posix.h</text>
</a>
</g>
</g>
<!-- Node1&#45;&gt;Node32 -->
<g id="edge62" class="edge">
<title>Node1&#45;&gt;Node32</title>
<path fill="none" stroke="midnightblue" d="M987.45,-466.59C1110.84,-465.01 1410.14,-457.5 1658,-422 1660.93,-421.58 1663.93,-421.1 1666.95,-420.56"/>
<polygon fill="midnightblue" stroke="midnightblue" points="987.07,-463.09 977.11,-466.71 987.15,-470.09 987.07,-463.09"/>
</g>
<!-- Node33 -->
<g id="node33" class="node">
<title>Node33</title>
<g id="a_node33"><a xlink:href="v8-wasm-trap-handler-win_8h.html" target="_top" xlink:title=" ">
<polygon fill="white" stroke="black" points="1795,-391.5 1795,-421.5 1905,-421.5 1905,-391.5 1795,-391.5"/>
<text text-anchor="start" x="1803" y="-409.5" font-family="Helvetica,sans-Serif" font-size="10.00">include/v8&#45;wasm&#45;trap</text>
<text text-anchor="middle" x="1850" y="-398.5" font-family="Helvetica,sans-Serif" font-size="10.00">&#45;handler&#45;win.h</text>
</a>
</g>
</g>
<!-- Node1&#45;&gt;Node33 -->
<g id="edge63" class="edge">
<title>Node1&#45;&gt;Node33</title>
<path fill="none" stroke="midnightblue" d="M987.47,-467.34C1125.72,-467.44 1487.53,-463.35 1786,-422 1788.93,-421.59 1791.93,-421.12 1794.95,-420.6"/>
<polygon fill="midnightblue" stroke="midnightblue" points="987.13,-463.84 977.13,-467.33 987.12,-470.84 987.13,-463.84"/>
</g>
<!-- Node2&#45;&gt;Node3 -->
<g id="edge2" class="edge">
<title>Node2&#45;&gt;Node3</title>
<path fill="none" stroke="midnightblue" d="M362.53,-387.16C372.83,-358.23 392.45,-303.13 399.97,-282.02"/>
<polygon fill="midnightblue" stroke="midnightblue" points="359.14,-386.24 359.08,-396.84 365.74,-388.59 359.14,-386.24"/>
</g>
<!-- Node2&#45;&gt;Node9 -->
<g id="edge10" class="edge">
<title>Node2&#45;&gt;Node9</title>
<path fill="none" stroke="midnightblue" d="M329.34,-392.27C303.4,-379.4 264.72,-360.21 242.47,-349.17"/>
<polygon fill="midnightblue" stroke="midnightblue" points="328.09,-395.56 338.6,-396.87 331.2,-389.29 328.09,-395.56"/>
</g>
<!-- Node4 -->
<g id="node4" class="node">
<title>Node4</title>
<g id="a_node4"><a xlink:href="prefinalizer-handler_8h.html" target="_top" xlink:title=" ">
<polygon fill="white" stroke="black" points="349.5,-56.5 349.5,-86.5 460.5,-86.5 460.5,-56.5 349.5,-56.5"/>
<text text-anchor="start" x="357.5" y="-74.5" font-family="Helvetica,sans-Serif" font-size="10.00">include/cppgc/internal</text>
<text text-anchor="middle" x="405" y="-63.5" font-family="Helvetica,sans-Serif" font-size="10.00">/prefinalizer&#45;handler.h</text>
</a>
</g>
</g>
<!-- Node3&#45;&gt;Node4 -->
<g id="edge3" class="edge">
<title>Node3&#45;&gt;Node4</title>
<path fill="none" stroke="midnightblue" d="M403.19,-252.86C403.59,-213.28 404.51,-121.64 404.86,-86.53"/>
<polygon fill="midnightblue" stroke="midnightblue" points="399.69,-252.91 403.09,-262.95 406.69,-252.98 399.69,-252.91"/>
</g>
<!-- Node3&#45;&gt;Node6 -->
<g id="edge5" class="edge">
<title>Node3&#45;&gt;Node6</title>
<path fill="none" stroke="midnightblue" d="M414.21,-254.3C431.35,-227.98 463.77,-178.23 479.69,-153.78"/>
<polygon fill="midnightblue" stroke="midnightblue" points="411.17,-252.55 408.64,-262.84 417.03,-256.37 411.17,-252.55"/>
</g>
<!-- Node5 -->
<g id="node5" class="node">
<title>Node5</title>
<g id="a_node5"><a xlink:href="prefinalizer_8h.html" target="_top" xlink:title=" ">
<polygon fill="white" stroke="black" points="380.5,-0.5 380.5,-19.5 513.5,-19.5 513.5,-0.5 380.5,-0.5"/>
<text text-anchor="middle" x="447" y="-7.5" font-family="Helvetica,sans-Serif" font-size="10.00">include/cppgc/prefinalizer.h</text>
</a>
</g>
</g>
<!-- Node4&#45;&gt;Node5 -->
<g id="edge4" class="edge">
<title>Node4&#45;&gt;Node5</title>
<path fill="none" stroke="midnightblue" d="M420.81,-48.1C427.81,-38.19 435.63,-27.11 440.89,-19.66"/>
<polygon fill="midnightblue" stroke="midnightblue" points="417.86,-46.21 414.95,-56.4 423.58,-50.25 417.86,-46.21"/>
</g>
<!-- Node6&#45;&gt;Node4 -->
<g id="edge6" class="edge">
<title>Node6&#45;&gt;Node4</title>
<path fill="none" stroke="midnightblue" d="M462.72,-117.17C449.88,-107.23 434.74,-95.51 423.19,-86.58"/>
<polygon fill="midnightblue" stroke="midnightblue" points="460.72,-120.04 470.77,-123.4 465.01,-114.51 460.72,-120.04"/>
</g>
<!-- Node6&#45;&gt;Node5 -->
<g id="edge7" class="edge">
<title>Node6&#45;&gt;Node5</title>
<path fill="none" stroke="midnightblue" d="M484.99,-113.45C481.86,-96.98 476.88,-74.8 470,-56 465.18,-42.82 457.4,-28.53 452.24,-19.68"/>
<polygon fill="midnightblue" stroke="midnightblue" points="481.56,-114.14 486.78,-123.36 488.45,-112.89 481.56,-114.14"/>
</g>
<!-- Node7 -->
<g id="node7" class="node">
<title>Node7</title>
<g id="a_node7"><a xlink:href="visitor_8h.html" target="_top" xlink:title=" ">
<polygon fill="white" stroke="black" points="871.5,-62 871.5,-81 984.5,-81 984.5,-62 871.5,-62"/>
<text text-anchor="middle" x="928" y="-69" font-family="Helvetica,sans-Serif" font-size="10.00">include/cppgc/visitor.h</text>
</a>
</g>
</g>
<!-- Node6&#45;&gt;Node7 -->
<g id="edge8" class="edge">
<title>Node6&#45;&gt;Node7</title>
<path fill="none" stroke="midnightblue" d="M557.26,-127.39C643.6,-114.61 790.7,-92.83 871.2,-80.91"/>
<polygon fill="midnightblue" stroke="midnightblue" points="556.68,-123.94 547.3,-128.87 557.7,-130.87 556.68,-123.94"/>
</g>
<!-- Node7&#45;&gt;Node8 -->
<g id="edge9" class="edge">
<title>Node7&#45;&gt;Node8</title>
<path fill="none" stroke="midnightblue" d="M980.72,-59.97C1038.47,-48.44 1129.98,-30.17 1183.38,-19.51"/>
<polygon fill="midnightblue" stroke="midnightblue" points="979.82,-56.58 970.7,-61.98 981.19,-63.45 979.82,-56.58"/>
</g>
<!-- Node10 -->
<g id="node10" class="node">
<title>Node10</title>
<g id="a_node10"><a xlink:href="v8-inspector_8h.html" target="_top" xlink:title=" ">
<polygon fill="white" stroke="black" points="219.5,-263 219.5,-282 330.5,-282 330.5,-263 219.5,-263"/>
<text text-anchor="middle" x="275" y="-270" font-family="Helvetica,sans-Serif" font-size="10.00">include/v8&#45;inspector.h</text>
</a>
</g>
</g>
<!-- Node9&#45;&gt;Node10 -->
<g id="edge11" class="edge">
<title>Node9&#45;&gt;Node10</title>
<path fill="none" stroke="midnightblue" d="M237.87,-321.77C247.62,-309.1 260.61,-292.2 268.36,-282.13"/>
<polygon fill="midnightblue" stroke="midnightblue" points="235.07,-319.67 231.74,-329.73 240.61,-323.94 235.07,-319.67"/>
</g>
<!-- Node12 -->
<g id="node12" class="node">
<title>Node12</title>
<g id="a_node12"><a xlink:href="v8-profiler_8h.html" target="_top" xlink:title=" ">
<polygon fill="white" stroke="black" points="0,-263 0,-282 100,-282 100,-263 0,-263"/>
<text text-anchor="middle" x="50" y="-270" font-family="Helvetica,sans-Serif" font-size="10.00">include/v8&#45;profiler.h</text>
</a>
</g>
</g>
<!-- Node9&#45;&gt;Node12 -->
<g id="edge13" class="edge">
<title>Node9&#45;&gt;Node12</title>
<path fill="none" stroke="midnightblue" d="M192.07,-326.27C157.34,-313.37 103.51,-293.38 73.06,-282.06"/>
<polygon fill="midnightblue" stroke="midnightblue" points="191.17,-329.67 201.76,-329.87 193.61,-323.11 191.17,-329.67"/>
</g>
<!-- Node13 -->
<g id="node13" class="node">
<title>Node13</title>
<g id="a_node13"><a xlink:href="v8-util_8h.html" target="_top" xlink:title=" ">
<polygon fill="white" stroke="black" points="118,-263 118,-282 202,-282 202,-263 118,-263"/>
<text text-anchor="middle" x="160" y="-270" font-family="Helvetica,sans-Serif" font-size="10.00">include/v8&#45;util.h</text>
</a>
</g>
</g>
<!-- Node9&#45;&gt;Node13 -->
<g id="edge14" class="edge">
<title>Node9&#45;&gt;Node13</title>
<path fill="none" stroke="midnightblue" d="M209,-322.5C196.25,-309.75 178.89,-292.39 168.63,-282.13"/>
<polygon fill="midnightblue" stroke="midnightblue" points="206.69,-325.14 216.23,-329.73 211.64,-320.19 206.69,-325.14"/>
</g>
<!-- Node11 -->
<g id="node11" class="node">
<title>Node11</title>
<g id="a_node11"><a xlink:href="v8-inspector-protocol_8h.html" target="_top" xlink:title=" ">
<polygon fill="white" stroke="black" points="223,-190.5 223,-220.5 327,-220.5 327,-190.5 223,-190.5"/>
<text text-anchor="start" x="231" y="-208.5" font-family="Helvetica,sans-Serif" font-size="10.00">include/v8&#45;inspector</text>
<text text-anchor="middle" x="275" y="-197.5" font-family="Helvetica,sans-Serif" font-size="10.00">&#45;protocol.h</text>
</a>
</g>
</g>
<!-- Node10&#45;&gt;Node11 -->
<g id="edge12" class="edge">
<title>Node10&#45;&gt;Node11</title>
<path fill="none" stroke="midnightblue" d="M275,-252.41C275,-242.22 275,-229.9 275,-220.59"/>
<polygon fill="midnightblue" stroke="midnightblue" points="271.5,-252.73 275,-262.73 278.5,-252.73 271.5,-252.73"/>
</g>
<!-- Node15 -->
<g id="node15" class="node">
<title>Node15</title>
<g id="a_node15"><a xlink:href="allocation_8h.html" target="_top" xlink:title=" ">
<polygon fill="white" stroke="black" points="772,-196 772,-215 900,-215 900,-196 772,-196"/>
<text text-anchor="middle" x="836" y="-203" font-family="Helvetica,sans-Serif" font-size="10.00">include/cppgc/allocation.h</text>
</a>
</g>
</g>
<!-- Node14&#45;&gt;Node15 -->
<g id="edge17" class="edge">
<title>Node14&#45;&gt;Node15</title>
<path fill="none" stroke="midnightblue" d="M913.88,-382.99C898.05,-360.04 874.16,-322.94 859,-288 848,-262.64 840.75,-230.58 837.68,-215.33"/>
<polygon fill="midnightblue" stroke="midnightblue" points="911.11,-385.15 919.71,-391.34 916.85,-381.14 911.11,-385.15"/>
</g>
<!-- Node16 -->
<g id="node16" class="node">
<title>Node16</title>
<g id="a_node16"><a xlink:href="garbage-collected_8h.html" target="_top" xlink:title=" ">
<polygon fill="white" stroke="black" points="868,-257.5 868,-287.5 982,-287.5 982,-257.5 868,-257.5"/>
<text text-anchor="start" x="876" y="-275.5" font-family="Helvetica,sans-Serif" font-size="10.00">include/cppgc/garbage</text>
<text text-anchor="middle" x="925" y="-264.5" font-family="Helvetica,sans-Serif" font-size="10.00">&#45;collected.h</text>
</a>
</g>
</g>
<!-- Node14&#45;&gt;Node16 -->
<g id="edge18" class="edge">
<title>Node14&#45;&gt;Node16</title>
<path fill="none" stroke="midnightblue" d="M929.07,-381.02C928.03,-353.51 926.37,-309.79 925.53,-287.52"/>
<polygon fill="midnightblue" stroke="midnightblue" points="925.59,-381.51 929.46,-391.37 932.58,-381.25 925.59,-381.51"/>
</g>
<!-- Node17 -->
<g id="node17" class="node">
<title>Node17</title>
<g id="a_node17"><a xlink:href="caged-heap-local-data_8h.html" target="_top" xlink:title=" ">
<polygon fill="white" stroke="black" points="1000,-257.5 1000,-287.5 1122,-287.5 1122,-257.5 1000,-257.5"/>
<text text-anchor="start" x="1008" y="-275.5" font-family="Helvetica,sans-Serif" font-size="10.00">include/cppgc/internal</text>
<text text-anchor="middle" x="1061" y="-264.5" font-family="Helvetica,sans-Serif" font-size="10.00">/caged&#45;heap&#45;local&#45;data.h</text>
</a>
</g>
</g>
<!-- Node14&#45;&gt;Node17 -->
<g id="edge21" class="edge">
<title>Node14&#45;&gt;Node17</title>
<path fill="none" stroke="midnightblue" d="M995.85,-402.97C1030.7,-397.85 1070.76,-385.17 1093,-355 1108.42,-334.08 1088.96,-304.74 1074.34,-287.57"/>
<polygon fill="midnightblue" stroke="midnightblue" points="995.18,-399.52 985.71,-404.27 996.07,-406.47 995.18,-399.52"/>
</g>
<!-- Node14&#45;&gt;Node18 -->
<g id="edge22" class="edge">
<title>Node14&#45;&gt;Node18</title>
<path fill="none" stroke="midnightblue" d="M864.42,-390.54C814.98,-379.27 747.9,-363.97 700.97,-353.27"/>
<polygon fill="midnightblue" stroke="midnightblue" points="863.84,-394 874.37,-392.81 865.4,-387.18 863.84,-394"/>
</g>
<!-- Node16&#45;&gt;Node7 -->
<g id="edge20" class="edge">
<title>Node16&#45;&gt;Node7</title>
<path fill="none" stroke="midnightblue" d="M925.37,-246.96C926.04,-202.43 927.43,-110.25 927.87,-81.36"/>
<polygon fill="midnightblue" stroke="midnightblue" points="921.87,-247.14 925.22,-257.19 928.87,-247.24 921.87,-247.14"/>
</g>
<!-- Node16&#45;&gt;Node15 -->
<g id="edge19" class="edge">
<title>Node16&#45;&gt;Node15</title>
<path fill="none" stroke="midnightblue" d="M897.35,-251.31C880.64,-239.1 860.2,-224.18 847.65,-215.01"/>
<polygon fill="midnightblue" stroke="midnightblue" points="895.55,-254.32 905.69,-257.4 899.68,-248.67 895.55,-254.32"/>
</g>
<!-- Node18&#45;&gt;Node19 -->
<g id="edge23" class="edge">
<title>Node18&#45;&gt;Node19</title>
<path fill="none" stroke="midnightblue" d="M653.68,-314.99C657.07,-305.8 660.85,-295.58 663.8,-287.58"/>
<polygon fill="midnightblue" stroke="midnightblue" points="650.39,-313.8 650.21,-324.4 656.95,-316.23 650.39,-313.8"/>
</g>
<!-- Node19&#45;&gt;Node7 -->
<g id="edge28" class="edge">
<title>Node19&#45;&gt;Node7</title>
<path fill="none" stroke="midnightblue" d="M691.71,-250.73C710.43,-233.88 737.9,-209.75 763,-190 817.73,-146.95 886.5,-100.2 914.86,-81.23"/>
<polygon fill="midnightblue" stroke="midnightblue" points="689.32,-248.17 684.25,-257.48 694.01,-253.37 689.32,-248.17"/>
</g>
<!-- Node19&#45;&gt;Node8 -->
<g id="edge27" class="edge">
<title>Node19&#45;&gt;Node8</title>
<path fill="none" stroke="midnightblue" d="M681.45,-248.22C707.78,-201.73 774.06,-98.24 863,-56 914.27,-31.65 1070.92,-19.36 1160.79,-14.17"/>
<polygon fill="midnightblue" stroke="midnightblue" points="678.24,-246.79 676.45,-257.23 684.36,-250.19 678.24,-246.79"/>
</g>
<!-- Node19&#45;&gt;Node20 -->
<g id="edge24" class="edge">
<title>Node19&#45;&gt;Node20</title>
<path fill="none" stroke="midnightblue" d="M644.97,-250.67C631.12,-238.67 614.45,-224.22 604.03,-215.19"/>
<polygon fill="midnightblue" stroke="midnightblue" points="642.88,-253.49 652.73,-257.4 647.46,-248.2 642.88,-253.49"/>
</g>
<!-- Node20&#45;&gt;Node6 -->
<g id="edge25" class="edge">
<title>Node20&#45;&gt;Node6</title>
<path fill="none" stroke="midnightblue" d="M571.31,-190.45C553.7,-179.55 529.39,-164.5 511.76,-153.59"/>
<polygon fill="midnightblue" stroke="midnightblue" points="569.49,-193.45 579.84,-195.73 573.18,-187.49 569.49,-193.45"/>
</g>
<!-- Node20&#45;&gt;Node7 -->
<g id="edge26" class="edge">
<title>Node20&#45;&gt;Node7</title>
<path fill="none" stroke="midnightblue" d="M613.4,-189.7C638.08,-171.53 682.6,-140.94 725,-123 773.83,-102.34 832.99,-88.82 874.82,-81.02"/>
<polygon fill="midnightblue" stroke="midnightblue" points="611.17,-187 605.25,-195.78 615.35,-192.61 611.17,-187"/>
</g>
<!-- Node21&#45;&gt;Node15 -->
<g id="edge30" class="edge">
<title>Node21&#45;&gt;Node15</title>
<path fill="none" stroke="midnightblue" d="M784.99,-315.1C799.01,-285.25 822.57,-235.08 831.96,-215.1"/>
<polygon fill="midnightblue" stroke="midnightblue" points="781.72,-313.83 780.64,-324.37 788.05,-316.81 781.72,-313.83"/>
</g>
<!-- Node22&#45;&gt;Node7 -->
<g id="edge35" class="edge">
<title>Node22&#45;&gt;Node7</title>
<path fill="none" stroke="midnightblue" d="M1259.99,-315.34C1255.56,-306.76 1250.53,-296.95 1246,-288 1209.03,-214.93 1228.68,-173.22 1164,-123 1136.49,-101.64 1045.18,-86.73 984.54,-78.89"/>
<polygon fill="midnightblue" stroke="midnightblue" points="1256.96,-317.1 1264.66,-324.38 1263.18,-313.89 1256.96,-317.1"/>
</g>
<!-- Node22&#45;&gt;Node17 -->
<g id="edge32" class="edge">
<title>Node22&#45;&gt;Node17</title>
<path fill="none" stroke="midnightblue" d="M1216.63,-321.44C1182.43,-310.91 1139.07,-297.55 1106.81,-287.61"/>
<polygon fill="midnightblue" stroke="midnightblue" points="1215.89,-324.88 1226.48,-324.48 1217.95,-318.19 1215.89,-324.88"/>
</g>
<!-- Node22&#45;&gt;Node23 -->
<g id="edge33" class="edge">
<title>Node22&#45;&gt;Node23</title>
<path fill="none" stroke="midnightblue" d="M1285.4,-315.58C1290.86,-306.24 1296.99,-295.75 1301.77,-287.58"/>
<polygon fill="midnightblue" stroke="midnightblue" points="1282.27,-314 1280.25,-324.4 1288.31,-317.53 1282.27,-314"/>
</g>
<!-- Node23&#45;&gt;Node8 -->
<g id="edge34" class="edge">
<title>Node23&#45;&gt;Node8</title>
<path fill="none" stroke="midnightblue" d="M1302.36,-247.8C1284.43,-192.19 1240.29,-55.32 1228.78,-19.63"/>
<polygon fill="midnightblue" stroke="midnightblue" points="1299.08,-249.05 1305.48,-257.49 1305.75,-246.9 1299.08,-249.05"/>
</g>
<!-- Node24&#45;&gt;Node18 -->
<g id="edge39" class="edge">
<title>Node24&#45;&gt;Node18</title>
<path fill="none" stroke="midnightblue" d="M719.22,-386.02C702.73,-375.9 682.95,-363.77 667.96,-354.58"/>
<polygon fill="midnightblue" stroke="midnightblue" points="717.65,-389.15 728,-391.4 721.3,-383.18 717.65,-389.15"/>
</g>
<!-- Node25&#45;&gt;Node3 -->
<g id="edge46" class="edge">
<title>Node25&#45;&gt;Node3</title>
<path fill="none" stroke="midnightblue" d="M951.61,-331.02C826.33,-317.88 569.57,-290.96 457.43,-279.21"/>
<polygon fill="midnightblue" stroke="midnightblue" points="951.54,-334.53 961.86,-332.09 952.27,-327.57 951.54,-334.53"/>
</g>
<!-- Node25&#45;&gt;Node16 -->
<g id="edge45" class="edge">
<title>Node25&#45;&gt;Node16</title>
<path fill="none" stroke="midnightblue" d="M1001.37,-324.15C984.97,-313.27 962.55,-298.4 946.24,-287.59"/>
<polygon fill="midnightblue" stroke="midnightblue" points="999.52,-327.12 1009.78,-329.73 1003.38,-321.29 999.52,-327.12"/>
</g>
<!-- Node25&#45;&gt;Node17 -->
<g id="edge47" class="edge">
<title>Node25&#45;&gt;Node17</title>
<path fill="none" stroke="midnightblue" d="M1033.21,-321.03C1039.34,-310.56 1047.03,-297.4 1052.76,-287.59"/>
<polygon fill="midnightblue" stroke="midnightblue" points="1030.15,-319.33 1028.12,-329.73 1036.19,-322.87 1030.15,-319.33"/>
</g>
<!-- Node26&#45;&gt;Node7 -->
<g id="edge52" class="edge">
<title>Node26&#45;&gt;Node7</title>
<path fill="none" stroke="midnightblue" d="M1150,-380.99C1150,-354.49 1150,-311 1150,-273.5 1150,-273.5 1150,-273.5 1150,-204.5 1150,-127.6 1050.37,-94.49 984.59,-81.02"/>
<polygon fill="midnightblue" stroke="midnightblue" points="1146.5,-381.24 1150,-391.24 1153.5,-381.24 1146.5,-381.24"/>
</g>
<!-- Node26&#45;&gt;Node8 -->
<g id="edge51" class="edge">
<title>Node26&#45;&gt;Node8</title>
<path fill="none" stroke="midnightblue" d="M1157.12,-381.58C1159.48,-373.21 1162.01,-363.73 1164,-355 1194.25,-222.47 1219.03,-58.49 1224.75,-19.57"/>
<polygon fill="midnightblue" stroke="midnightblue" points="1153.68,-380.86 1154.27,-391.44 1160.41,-382.8 1153.68,-380.86"/>
</g>
<!-- Node26&#45;&gt;Node19 -->
<g id="edge50" class="edge">
<title>Node26&#45;&gt;Node19</title>
<path fill="none" stroke="midnightblue" d="M1085.08,-389.35C1046.61,-379.66 996.95,-366.94 953,-355 869.46,-332.31 772.66,-304.12 716.37,-287.54"/>
<polygon fill="midnightblue" stroke="midnightblue" points="1084.57,-392.83 1095.12,-391.88 1086.27,-386.04 1084.57,-392.83"/>
</g>
<!-- Node26&#45;&gt;Node22 -->
<g id="edge49" class="edge">
<title>Node26&#45;&gt;Node22</title>
<path fill="none" stroke="midnightblue" d="M1185.52,-386.57C1204.71,-376.35 1228,-363.94 1245.58,-354.58"/>
<polygon fill="midnightblue" stroke="midnightblue" points="1183.65,-383.6 1176.47,-391.4 1186.94,-389.78 1183.65,-383.6"/>
</g>
<!-- Node29&#45;&gt;Node9 -->
<g id="edge56" class="edge">
<title>Node29&#45;&gt;Node9</title>
<path fill="none" stroke="midnightblue" d="M195.75,-388.03C203.49,-375.45 213.61,-359.01 219.69,-349.13"/>
<polygon fill="midnightblue" stroke="midnightblue" points="192.65,-386.38 190.39,-396.73 198.62,-390.05 192.65,-386.38"/>
</g>
<!-- Node30&#45;&gt;Node25 -->
<g id="edge58" class="edge">
<title>Node30&#45;&gt;Node25</title>
<path fill="none" stroke="midnightblue" d="M1531.12,-395.98C1518.82,-394.24 1506.02,-392.51 1494,-391 1347.12,-372.59 1173.93,-355.1 1084.05,-346.34"/>
<polygon fill="midnightblue" stroke="midnightblue" points="1530.93,-399.48 1541.32,-397.43 1531.91,-392.55 1530.93,-399.48"/>
</g>
<!-- Node30&#45;&gt;Node27 -->
<g id="edge59" class="edge">
<title>Node30&#45;&gt;Node27</title>
<path fill="none" stroke="midnightblue" d="M1585.56,-387.93C1580.72,-378.38 1575.01,-366.27 1571,-355 1562.79,-331.94 1556.74,-304.05 1553.55,-287.6"/>
<polygon fill="midnightblue" stroke="midnightblue" points="1582.46,-389.55 1590.19,-396.79 1588.67,-386.31 1582.46,-389.55"/>
</g>
<!-- Node31 -->
<g id="node31" class="node">
<title>Node31</title>
<g id="a_node31"><a xlink:href="v8-tracing_8h.html" target="_top" xlink:title=" ">
<polygon fill="white" stroke="black" points="1579.5,-324.5 1579.5,-354.5 1674.5,-354.5 1674.5,-324.5 1579.5,-324.5"/>
<text text-anchor="start" x="1587.5" y="-342.5" font-family="Helvetica,sans-Serif" font-size="10.00">include/libplatform</text>
<text text-anchor="middle" x="1627" y="-331.5" font-family="Helvetica,sans-Serif" font-size="10.00">/v8&#45;tracing.h</text>
</a>
</g>
</g>
<!-- Node30&#45;&gt;Node31 -->
<g id="edge60" class="edge">
<title>Node30&#45;&gt;Node31</title>
<path fill="none" stroke="midnightblue" d="M1603.76,-387.71C1608.89,-377.29 1615.28,-364.3 1620.06,-354.59"/>
<polygon fill="midnightblue" stroke="midnightblue" points="1600.59,-386.22 1599.32,-396.73 1606.87,-389.31 1600.59,-386.22"/>
</g>
<!-- Node31&#45;&gt;Node27 -->
<g id="edge61" class="edge">
<title>Node31&#45;&gt;Node27</title>
<path fill="none" stroke="midnightblue" d="M1602.89,-317.88C1591.34,-308.01 1577.81,-296.43 1567.46,-287.58"/>
<polygon fill="midnightblue" stroke="midnightblue" points="1600.63,-320.56 1610.51,-324.4 1605.18,-315.24 1600.63,-320.56"/>
</g>
</g>
</svg>
