<?xml version="1.0" encoding="UTF-8" standalone="no"?>
<!DOCTYPE svg PUBLIC "-//W3C//DTD SVG 1.1//EN"
 "http://www.w3.org/Graphics/SVG/1.1/DTD/svg11.dtd">
<!-- Generated by graphviz version 2.49.3 (20211027.1534)
 -->
<!-- Title: v8::PersistentValueMap::Set Pages: 1 -->
<svg width="658pt" height="225pt"
 viewBox="0.00 0.00 658.00 224.50" xmlns="http://www.w3.org/2000/svg" xmlns:xlink="http://www.w3.org/1999/xlink">
<g id="graph0" class="graph" transform="scale(1 1) rotate(0) translate(4 220.5)">
<title>v8::PersistentValueMap::Set</title>
<polygon fill="white" stroke="transparent" points="-4,4 -4,-220.5 654,-220.5 654,4 -4,4"/>
<!-- Node1 -->
<g id="node1" class="node">
<title>Node1</title>
<g id="a_node1"><a xlink:title=" ">
<polygon fill="#bfbfbf" stroke="black" points="0,-164.5 0,-183.5 139,-183.5 139,-164.5 0,-164.5"/>
<text text-anchor="middle" x="69.5" y="-171.5" font-family="Helvetica,sans-Serif" font-size="10.00">v8::PersistentValueMap::Set</text>
</a>
</g>
</g>
<!-- Node2 -->
<g id="node2" class="node">
<title>Node2</title>
<g id="a_node2"><a xlink:href="classv8_1_1PersistentValueMapBase.html#ac15c999275fb50c0084246cb9a848811" target="_top" xlink:title=" ">
<polygon fill="white" stroke="black" points="330,-186 330,-216 472,-216 472,-186 330,-186"/>
<text text-anchor="start" x="338" y="-204" font-family="Helvetica,sans-Serif" font-size="10.00">v8::PersistentValueMapBase</text>
<text text-anchor="middle" x="401" y="-193" font-family="Helvetica,sans-Serif" font-size="10.00">::isolate</text>
</a>
</g>
</g>
<!-- Node1&#45;&gt;Node2 -->
<g id="edge1" class="edge">
<title>Node1&#45;&gt;Node2</title>
<path fill="none" stroke="midnightblue" d="M139.17,-179.63C191.82,-183.94 264.58,-189.9 319.88,-194.44"/>
<polygon fill="midnightblue" stroke="midnightblue" points="319.74,-197.94 330,-195.26 320.32,-190.96 319.74,-197.94"/>
</g>
<!-- Node3 -->
<g id="node3" class="node">
<title>Node3</title>
<g id="a_node3"><a xlink:href="classv8_1_1PersistentValueMap.html#a69bb485985460550e40c08c7fe55f89c" target="_top" xlink:title=" ">
<polygon fill="white" stroke="black" points="175,-137 175,-167 294,-167 294,-137 175,-137"/>
<text text-anchor="start" x="183" y="-155" font-family="Helvetica,sans-Serif" font-size="10.00">v8::PersistentValueMap</text>
<text text-anchor="middle" x="234.5" y="-144" font-family="Helvetica,sans-Serif" font-size="10.00">::SetUnique</text>
</a>
</g>
</g>
<!-- Node1&#45;&gt;Node3 -->
<g id="edge2" class="edge">
<title>Node1&#45;&gt;Node3</title>
<path fill="none" stroke="midnightblue" d="M139.15,-164.73C147.72,-163.58 156.48,-162.39 165.05,-161.24"/>
<polygon fill="midnightblue" stroke="midnightblue" points="165.54,-164.7 174.99,-159.9 164.61,-157.77 165.54,-164.7"/>
</g>
<!-- Node3&#45;&gt;Node2 -->
<g id="edge5" class="edge">
<title>Node3&#45;&gt;Node2</title>
<path fill="none" stroke="midnightblue" d="M286.2,-167.1C303.16,-172.16 322.24,-177.84 339.86,-183.08"/>
<polygon fill="midnightblue" stroke="midnightblue" points="338.89,-186.45 349.47,-185.95 340.89,-179.74 338.89,-186.45"/>
</g>
<!-- Node4 -->
<g id="node4" class="node">
<title>Node4</title>
<g id="a_node4"><a xlink:href="classv8_1_1PersistentValueMapBase.html#a7b083c75829bbc4177729ffe9827c4ac" target="_top" xlink:title=" ">
<polygon fill="white" stroke="black" points="330,-137 330,-167 472,-167 472,-137 330,-137"/>
<text text-anchor="start" x="338" y="-155" font-family="Helvetica,sans-Serif" font-size="10.00">v8::PersistentValueMapBase</text>
<text text-anchor="middle" x="401" y="-144" font-family="Helvetica,sans-Serif" font-size="10.00">::ClearAndLeak</text>
</a>
</g>
</g>
<!-- Node3&#45;&gt;Node4 -->
<g id="edge3" class="edge">
<title>Node3&#45;&gt;Node4</title>
<path fill="none" stroke="midnightblue" d="M294.42,-152C302.71,-152 311.33,-152 319.93,-152"/>
<polygon fill="midnightblue" stroke="midnightblue" points="319.98,-155.5 329.98,-152 319.98,-148.5 319.98,-155.5"/>
</g>
<!-- Node5 -->
<g id="node5" class="node">
<title>Node5</title>
<g id="a_node5"><a xlink:href="classv8_1_1PersistentValueMapBase.html#a149e5b7f40fa52dc9b379342ac802d94" target="_top" xlink:title=" ">
<polygon fill="white" stroke="black" points="330,-88 330,-118 472,-118 472,-88 330,-88"/>
<text text-anchor="start" x="338" y="-106" font-family="Helvetica,sans-Serif" font-size="10.00">v8::PersistentValueMapBase</text>
<text text-anchor="middle" x="401" y="-95" font-family="Helvetica,sans-Serif" font-size="10.00">::impl</text>
</a>
</g>
</g>
<!-- Node3&#45;&gt;Node5 -->
<g id="edge4" class="edge">
<title>Node3&#45;&gt;Node5</title>
<path fill="none" stroke="midnightblue" d="M286.2,-136.9C303.16,-131.84 322.24,-126.16 339.86,-120.92"/>
<polygon fill="midnightblue" stroke="midnightblue" points="340.89,-124.26 349.47,-118.05 338.89,-117.55 340.89,-124.26"/>
</g>
<!-- Node6 -->
<g id="node6" class="node">
<title>Node6</title>
<g id="a_node6"><a xlink:href="classv8_1_1PersistentValueMapBase.html#aea9af944a2bd71a3b6abd2a2e57788f1" target="_top" xlink:title=" ">
<polygon fill="white" stroke="black" points="330,-39 330,-69 472,-69 472,-39 330,-39"/>
<text text-anchor="start" x="338" y="-57" font-family="Helvetica,sans-Serif" font-size="10.00">v8::PersistentValueMapBase</text>
<text text-anchor="middle" x="401" y="-46" font-family="Helvetica,sans-Serif" font-size="10.00">::Release</text>
</a>
</g>
</g>
<!-- Node3&#45;&gt;Node6 -->
<g id="edge6" class="edge">
<title>Node3&#45;&gt;Node6</title>
<path fill="none" stroke="midnightblue" d="M251.78,-136.81C269.78,-120.68 300.17,-95.31 330,-79 333.76,-76.95 337.72,-75 341.76,-73.18"/>
<polygon fill="midnightblue" stroke="midnightblue" points="343.46,-76.26 351.31,-69.14 340.73,-69.81 343.46,-76.26"/>
</g>
<!-- Node7 -->
<g id="node7" class="node">
<title>Node7</title>
<g id="a_node7"><a xlink:href="classv8_1_1PersistentValueMapBase.html#abb262f768e4353658726ba4d1295947c" target="_top" xlink:title=" ">
<polygon fill="white" stroke="black" points="508,-88 508,-118 650,-118 650,-88 508,-88"/>
<text text-anchor="start" x="516" y="-106" font-family="Helvetica,sans-Serif" font-size="10.00">v8::PersistentValueMapBase</text>
<text text-anchor="middle" x="579" y="-95" font-family="Helvetica,sans-Serif" font-size="10.00">::FromVal</text>
</a>
</g>
</g>
<!-- Node6&#45;&gt;Node7 -->
<g id="edge7" class="edge">
<title>Node6&#45;&gt;Node7</title>
<path fill="none" stroke="midnightblue" d="M456.24,-69.1C474.56,-74.2 495.18,-79.94 514.17,-85.23"/>
<polygon fill="midnightblue" stroke="midnightblue" points="513.36,-88.64 523.94,-87.95 515.24,-81.89 513.36,-88.64"/>
</g>
<!-- Node8 -->
<g id="node8" class="node">
<title>Node8</title>
<g id="a_node8"><a xlink:href="classv8_1_1PersistentBase.html#a479c7b146da083aa608e133a7dec79f9" target="_top" xlink:title=" ">
<polygon fill="white" stroke="black" points="530,-39 530,-69 628,-69 628,-39 530,-39"/>
<text text-anchor="start" x="538" y="-57" font-family="Helvetica,sans-Serif" font-size="10.00">v8::PersistentBase</text>
<text text-anchor="middle" x="579" y="-46" font-family="Helvetica,sans-Serif" font-size="10.00">::IsWeak</text>
</a>
</g>
</g>
<!-- Node6&#45;&gt;Node8 -->
<g id="edge8" class="edge">
<title>Node6&#45;&gt;Node8</title>
<path fill="none" stroke="midnightblue" d="M472.07,-54C487.8,-54 504.33,-54 519.53,-54"/>
<polygon fill="midnightblue" stroke="midnightblue" points="519.82,-57.5 529.82,-54 519.82,-50.5 519.82,-57.5"/>
</g>
<!-- Node9 -->
<g id="node9" class="node">
<title>Node9</title>
<g id="a_node9"><a xlink:href="classv8_1_1Global.html#a914903149cc752468d4a3a11b6089c7e" target="_top" xlink:title=" ">
<polygon fill="white" stroke="black" points="536,-0.5 536,-19.5 622,-19.5 622,-0.5 536,-0.5"/>
<text text-anchor="middle" x="579" y="-7.5" font-family="Helvetica,sans-Serif" font-size="10.00">v8::Global::Pass</text>
</a>
</g>
</g>
<!-- Node6&#45;&gt;Node9 -->
<g id="edge9" class="edge">
<title>Node6&#45;&gt;Node9</title>
<path fill="none" stroke="midnightblue" d="M462.08,-38.98C484.24,-33.44 509.04,-27.24 530,-22"/>
<polygon fill="midnightblue" stroke="midnightblue" points="531.1,-25.33 539.95,-19.51 529.4,-18.54 531.1,-25.33"/>
</g>
</g>
</svg>
