<?xml version="1.0" encoding="UTF-8" standalone="no"?>
<!DOCTYPE svg PUBLIC "-//W3C//DTD SVG 1.1//EN"
 "http://www.w3.org/Graphics/SVG/1.1/DTD/svg11.dtd">
<!-- Generated by graphviz version 2.49.3 (20211027.1534)
 -->
<!-- Title: include/cppgc/internal/api&#45;constants.h Pages: 1 -->
<svg width="600pt" height="553pt"
 viewBox="0.00 0.00 600.00 553.00" xmlns="http://www.w3.org/2000/svg" xmlns:xlink="http://www.w3.org/1999/xlink">
<g id="graph0" class="graph" transform="scale(1 1) rotate(0) translate(4 549)">
<title>include/cppgc/internal/api&#45;constants.h</title>
<polygon fill="white" stroke="transparent" points="-4,4 -4,-549 596,-549 596,4 -4,4"/>
<!-- Node1 -->
<g id="node1" class="node">
<title>Node1</title>
<g id="a_node1"><a xlink:title=" ">
<polygon fill="#bfbfbf" stroke="black" points="174.5,-514.5 174.5,-544.5 285.5,-544.5 285.5,-514.5 174.5,-514.5"/>
<text text-anchor="start" x="182.5" y="-532.5" font-family="Helvetica,sans-Serif" font-size="10.00">include/cppgc/internal</text>
<text text-anchor="middle" x="230" y="-521.5" font-family="Helvetica,sans-Serif" font-size="10.00">/api&#45;constants.h</text>
</a>
</g>
</g>
<!-- Node2 -->
<g id="node2" class="node">
<title>Node2</title>
<g id="a_node2"><a xlink:href="allocation_8h.html" target="_top" xlink:title=" ">
<polygon fill="white" stroke="black" points="32,-453 32,-472 160,-472 160,-453 32,-453"/>
<text text-anchor="middle" x="96" y="-460" font-family="Helvetica,sans-Serif" font-size="10.00">include/cppgc/allocation.h</text>
</a>
</g>
</g>
<!-- Node1&#45;&gt;Node2 -->
<g id="edge1" class="edge">
<title>Node1&#45;&gt;Node2</title>
<path fill="none" stroke="midnightblue" d="M191.79,-509.97C166.05,-497.48 133.31,-481.6 113.54,-472.01"/>
<polygon fill="midnightblue" stroke="midnightblue" points="190.4,-513.18 200.92,-514.4 193.45,-506.88 190.4,-513.18"/>
</g>
<!-- Node4 -->
<g id="node4" class="node">
<title>Node4</title>
<g id="a_node4"><a xlink:href="garbage-collected_8h.html" target="_top" xlink:title=" ">
<polygon fill="white" stroke="black" points="0,-313.5 0,-343.5 114,-343.5 114,-313.5 0,-313.5"/>
<text text-anchor="start" x="8" y="-331.5" font-family="Helvetica,sans-Serif" font-size="10.00">include/cppgc/garbage</text>
<text text-anchor="middle" x="57" y="-320.5" font-family="Helvetica,sans-Serif" font-size="10.00">&#45;collected.h</text>
</a>
</g>
</g>
<!-- Node1&#45;&gt;Node4 -->
<g id="edge3" class="edge">
<title>Node1&#45;&gt;Node4</title>
<path fill="none" stroke="midnightblue" d="M219.15,-504.96C200.09,-463.7 162.38,-382.42 160,-380 143.79,-363.54 121.12,-351.63 101.18,-343.52"/>
<polygon fill="midnightblue" stroke="midnightblue" points="216.08,-506.67 223.45,-514.28 222.44,-503.74 216.08,-506.67"/>
</g>
<!-- Node9 -->
<g id="node9" class="node">
<title>Node9</title>
<g id="a_node9"><a xlink:href="caged-heap-local-data_8h.html" target="_top" xlink:title=" ">
<polygon fill="white" stroke="black" points="346,-447.5 346,-477.5 468,-477.5 468,-447.5 346,-447.5"/>
<text text-anchor="start" x="354" y="-465.5" font-family="Helvetica,sans-Serif" font-size="10.00">include/cppgc/internal</text>
<text text-anchor="middle" x="407" y="-454.5" font-family="Helvetica,sans-Serif" font-size="10.00">/caged&#45;heap&#45;local&#45;data.h</text>
</a>
</g>
</g>
<!-- Node1&#45;&gt;Node9 -->
<g id="edge9" class="edge">
<title>Node1&#45;&gt;Node9</title>
<path fill="none" stroke="midnightblue" d="M278.15,-510.82C306.6,-500.37 342.13,-487.32 368.67,-477.58"/>
<polygon fill="midnightblue" stroke="midnightblue" points="276.59,-507.66 268.41,-514.4 279,-514.23 276.59,-507.66"/>
</g>
<!-- Node10 -->
<g id="node10" class="node">
<title>Node10</title>
<g id="a_node10"><a xlink:href="write-barrier_8h.html" target="_top" xlink:title=" ">
<polygon fill="white" stroke="black" points="216.5,-447.5 216.5,-477.5 327.5,-477.5 327.5,-447.5 216.5,-447.5"/>
<text text-anchor="start" x="224.5" y="-465.5" font-family="Helvetica,sans-Serif" font-size="10.00">include/cppgc/internal</text>
<text text-anchor="middle" x="272" y="-454.5" font-family="Helvetica,sans-Serif" font-size="10.00">/write&#45;barrier.h</text>
</a>
</g>
</g>
<!-- Node1&#45;&gt;Node10 -->
<g id="edge10" class="edge">
<title>Node1&#45;&gt;Node10</title>
<path fill="none" stroke="midnightblue" d="M244.62,-505.87C250.7,-496.46 257.57,-485.83 262.9,-477.58"/>
<polygon fill="midnightblue" stroke="midnightblue" points="241.6,-504.1 239.11,-514.4 247.48,-507.9 241.6,-504.1"/>
</g>
<!-- Node3 -->
<g id="node3" class="node">
<title>Node3</title>
<g id="a_node3"><a xlink:href="explicit-management_8h.html" target="_top" xlink:title=" ">
<polygon fill="white" stroke="black" points="41,-380.5 41,-410.5 151,-410.5 151,-380.5 41,-380.5"/>
<text text-anchor="start" x="49" y="-398.5" font-family="Helvetica,sans-Serif" font-size="10.00">include/cppgc/explicit</text>
<text text-anchor="middle" x="96" y="-387.5" font-family="Helvetica,sans-Serif" font-size="10.00">&#45;management.h</text>
</a>
</g>
</g>
<!-- Node2&#45;&gt;Node3 -->
<g id="edge2" class="edge">
<title>Node2&#45;&gt;Node3</title>
<path fill="none" stroke="midnightblue" d="M96,-442.41C96,-432.22 96,-419.9 96,-410.59"/>
<polygon fill="midnightblue" stroke="midnightblue" points="92.5,-442.73 96,-452.73 99.5,-442.73 92.5,-442.73"/>
</g>
<!-- Node5 -->
<g id="node5" class="node">
<title>Node5</title>
<g id="a_node5"><a xlink:href="visitor_8h.html" target="_top" xlink:title=" ">
<polygon fill="white" stroke="black" points="215.5,-123.5 215.5,-142.5 328.5,-142.5 328.5,-123.5 215.5,-123.5"/>
<text text-anchor="middle" x="272" y="-130.5" font-family="Helvetica,sans-Serif" font-size="10.00">include/cppgc/visitor.h</text>
</a>
</g>
</g>
<!-- Node4&#45;&gt;Node5 -->
<g id="edge4" class="edge">
<title>Node4&#45;&gt;Node5</title>
<path fill="none" stroke="midnightblue" d="M62.19,-303.26C70.46,-270.42 89.77,-212.12 128,-179 152.25,-157.99 186.27,-146.79 215.15,-140.81"/>
<polygon fill="midnightblue" stroke="midnightblue" points="58.7,-302.81 59.79,-313.35 65.51,-304.43 58.7,-302.81"/>
</g>
<!-- Node6 -->
<g id="node6" class="node">
<title>Node6</title>
<g id="a_node6"><a xlink:href="cross-thread-persistent_8h.html" target="_top" xlink:title=" ">
<polygon fill="white" stroke="black" points="438,-0.5 438,-30.5 542,-30.5 542,-0.5 438,-0.5"/>
<text text-anchor="start" x="446" y="-18.5" font-family="Helvetica,sans-Serif" font-size="10.00">include/cppgc/cross</text>
<text text-anchor="middle" x="490" y="-7.5" font-family="Helvetica,sans-Serif" font-size="10.00">&#45;thread&#45;persistent.h</text>
</a>
</g>
</g>
<!-- Node5&#45;&gt;Node6 -->
<g id="edge5" class="edge">
<title>Node5&#45;&gt;Node6</title>
<path fill="none" stroke="midnightblue" d="M272.64,-113.14C274.16,-98.59 278.58,-78.98 291,-67 311.78,-46.95 385.95,-32.06 437.62,-23.82"/>
<polygon fill="midnightblue" stroke="midnightblue" points="269.13,-113.27 271.95,-123.48 276.11,-113.74 269.13,-113.27"/>
</g>
<!-- Node7 -->
<g id="node7" class="node">
<title>Node7</title>
<g id="a_node7"><a xlink:href="persistent_8h.html" target="_top" xlink:title=" ">
<polygon fill="white" stroke="black" points="425,-67.5 425,-86.5 555,-86.5 555,-67.5 425,-67.5"/>
<text text-anchor="middle" x="490" y="-74.5" font-family="Helvetica,sans-Serif" font-size="10.00">include/cppgc/persistent.h</text>
</a>
</g>
</g>
<!-- Node5&#45;&gt;Node7 -->
<g id="edge6" class="edge">
<title>Node5&#45;&gt;Node7</title>
<path fill="none" stroke="midnightblue" d="M316.31,-121.02C357.49,-110.82 417.97,-95.84 455.62,-86.52"/>
<polygon fill="midnightblue" stroke="midnightblue" points="315.41,-117.64 306.54,-123.44 317.09,-124.44 315.41,-117.64"/>
</g>
<!-- Node8 -->
<g id="node8" class="node">
<title>Node8</title>
<g id="a_node8"><a xlink:href="v8-cppgc_8h.html" target="_top" xlink:title=" ">
<polygon fill="white" stroke="black" points="300,-67.5 300,-86.5 398,-86.5 398,-67.5 300,-67.5"/>
<text text-anchor="middle" x="349" y="-74.5" font-family="Helvetica,sans-Serif" font-size="10.00">include/v8&#45;cppgc.h</text>
</a>
</g>
</g>
<!-- Node5&#45;&gt;Node8 -->
<g id="edge8" class="edge">
<title>Node5&#45;&gt;Node8</title>
<path fill="none" stroke="midnightblue" d="M292.9,-117.34C306.91,-107.52 324.88,-94.91 336.66,-86.65"/>
<polygon fill="midnightblue" stroke="midnightblue" points="290.55,-114.72 284.37,-123.32 294.57,-120.45 290.55,-114.72"/>
</g>
<!-- Node7&#45;&gt;Node6 -->
<g id="edge7" class="edge">
<title>Node7&#45;&gt;Node6</title>
<path fill="none" stroke="midnightblue" d="M490,-57.23C490,-48.59 490,-38.5 490,-30.52"/>
<polygon fill="midnightblue" stroke="midnightblue" points="486.5,-57.48 490,-67.48 493.5,-57.48 486.5,-57.48"/>
</g>
<!-- Node11 -->
<g id="node11" class="node">
<title>Node11</title>
<g id="a_node11"><a xlink:href="heap-consistency_8h.html" target="_top" xlink:title=" ">
<polygon fill="white" stroke="black" points="345.5,-380.5 345.5,-410.5 446.5,-410.5 446.5,-380.5 345.5,-380.5"/>
<text text-anchor="start" x="353.5" y="-398.5" font-family="Helvetica,sans-Serif" font-size="10.00">include/cppgc/heap</text>
<text text-anchor="middle" x="396" y="-387.5" font-family="Helvetica,sans-Serif" font-size="10.00">&#45;consistency.h</text>
</a>
</g>
</g>
<!-- Node10&#45;&gt;Node11 -->
<g id="edge11" class="edge">
<title>Node10&#45;&gt;Node11</title>
<path fill="none" stroke="midnightblue" d="M307.84,-442.71C327.39,-432.46 351.2,-419.98 369.15,-410.58"/>
<polygon fill="midnightblue" stroke="midnightblue" points="306.14,-439.65 298.91,-447.4 309.39,-445.85 306.14,-439.65"/>
</g>
<!-- Node12 -->
<g id="node12" class="node">
<title>Node12</title>
<g id="a_node12"><a xlink:href="pointer-policies_8h.html" target="_top" xlink:title=" ">
<polygon fill="white" stroke="black" points="216.5,-380.5 216.5,-410.5 327.5,-410.5 327.5,-380.5 216.5,-380.5"/>
<text text-anchor="start" x="224.5" y="-398.5" font-family="Helvetica,sans-Serif" font-size="10.00">include/cppgc/internal</text>
<text text-anchor="middle" x="272" y="-387.5" font-family="Helvetica,sans-Serif" font-size="10.00">/pointer&#45;policies.h</text>
</a>
</g>
</g>
<!-- Node10&#45;&gt;Node12 -->
<g id="edge12" class="edge">
<title>Node10&#45;&gt;Node12</title>
<path fill="none" stroke="midnightblue" d="M272,-437.11C272,-428.15 272,-418.32 272,-410.58"/>
<polygon fill="midnightblue" stroke="midnightblue" points="268.5,-437.4 272,-447.4 275.5,-437.4 268.5,-437.4"/>
</g>
<!-- Node12&#45;&gt;Node5 -->
<g id="edge23" class="edge">
<title>Node12&#45;&gt;Node5</title>
<path fill="none" stroke="midnightblue" d="M232.94,-375C221.01,-367.05 209.17,-356.71 202,-344 165.87,-280 153.73,-242.34 191,-179 201.77,-160.7 222.97,-149.31 240.98,-142.56"/>
<polygon fill="midnightblue" stroke="midnightblue" points="231.23,-378.05 241.57,-380.35 234.92,-372.11 231.23,-378.05"/>
</g>
<!-- Node12&#45;&gt;Node6 -->
<g id="edge13" class="edge">
<title>Node12&#45;&gt;Node6</title>
<path fill="none" stroke="midnightblue" d="M337.62,-379.66C400.52,-365.39 486.47,-345.71 490,-344 542.23,-318.71 592,-320.53 592,-262.5 592,-262.5 592,-262.5 592,-132 592,-100.54 584.01,-91.27 564,-67 551.54,-51.88 533.41,-39.41 518.22,-30.64"/>
<polygon fill="midnightblue" stroke="midnightblue" points="336.72,-376.28 327.74,-381.9 338.27,-383.11 336.72,-376.28"/>
</g>
<!-- Node12&#45;&gt;Node7 -->
<g id="edge22" class="edge">
<title>Node12&#45;&gt;Node7</title>
<path fill="none" stroke="midnightblue" d="M337.36,-377.83C420.67,-354.64 554,-310.08 554,-262.5 554,-262.5 554,-262.5 554,-193.5 554,-148.57 516.48,-104.73 498.9,-86.66"/>
<polygon fill="midnightblue" stroke="midnightblue" points="336.43,-374.46 327.71,-380.49 338.28,-381.21 336.43,-374.46"/>
</g>
<!-- Node13 -->
<g id="node13" class="node">
<title>Node13</title>
<g id="a_node13"><a xlink:href="member_8h.html" target="_top" xlink:title=" ">
<polygon fill="white" stroke="black" points="211,-319 211,-338 333,-338 333,-319 211,-319"/>
<text text-anchor="middle" x="272" y="-326" font-family="Helvetica,sans-Serif" font-size="10.00">include/cppgc/member.h</text>
</a>
</g>
</g>
<!-- Node12&#45;&gt;Node13 -->
<g id="edge14" class="edge">
<title>Node12&#45;&gt;Node13</title>
<path fill="none" stroke="midnightblue" d="M272,-370.25C272,-359.02 272,-346.38 272,-338.19"/>
<polygon fill="midnightblue" stroke="midnightblue" points="268.5,-370.4 272,-380.4 275.5,-370.4 268.5,-370.4"/>
</g>
<!-- Node13&#45;&gt;Node5 -->
<g id="edge21" class="edge">
<title>Node13&#45;&gt;Node5</title>
<path fill="none" stroke="midnightblue" d="M257.59,-311.11C239.78,-289.63 210.41,-249.99 199,-210 195.22,-196.75 192.28,-191.03 199,-179 208.94,-161.19 229.15,-149.56 245.79,-142.59"/>
<polygon fill="midnightblue" stroke="midnightblue" points="255.08,-313.55 264.22,-318.9 260.41,-309.02 255.08,-313.55"/>
</g>
<!-- Node14 -->
<g id="node14" class="node">
<title>Node14</title>
<g id="a_node14"><a xlink:href="ephemeron-pair_8h.html" target="_top" xlink:title=" ">
<polygon fill="white" stroke="black" points="208,-179.5 208,-209.5 336,-209.5 336,-179.5 208,-179.5"/>
<text text-anchor="start" x="216" y="-197.5" font-family="Helvetica,sans-Serif" font-size="10.00">include/cppgc/ephemeron</text>
<text text-anchor="middle" x="272" y="-186.5" font-family="Helvetica,sans-Serif" font-size="10.00">&#45;pair.h</text>
</a>
</g>
</g>
<!-- Node13&#45;&gt;Node14 -->
<g id="edge15" class="edge">
<title>Node13&#45;&gt;Node14</title>
<path fill="none" stroke="midnightblue" d="M272,-308.53C272,-281.81 272,-233.69 272,-209.78"/>
<polygon fill="midnightblue" stroke="midnightblue" points="268.5,-308.84 272,-318.84 275.5,-308.84 268.5,-308.84"/>
</g>
<!-- Node15 -->
<g id="node15" class="node">
<title>Node15</title>
<g id="a_node15"><a xlink:href="liveness-broker_8h.html" target="_top" xlink:title=" ">
<polygon fill="white" stroke="black" points="303,-246.5 303,-276.5 419,-276.5 419,-246.5 303,-246.5"/>
<text text-anchor="start" x="311" y="-264.5" font-family="Helvetica,sans-Serif" font-size="10.00">include/cppgc/liveness</text>
<text text-anchor="middle" x="361" y="-253.5" font-family="Helvetica,sans-Serif" font-size="10.00">&#45;broker.h</text>
</a>
</g>
</g>
<!-- Node13&#45;&gt;Node15 -->
<g id="edge17" class="edge">
<title>Node13&#45;&gt;Node15</title>
<path fill="none" stroke="midnightblue" d="M292.48,-312.54C307.29,-301.73 327.18,-287.2 341.71,-276.59"/>
<polygon fill="midnightblue" stroke="midnightblue" points="290.01,-310.01 284,-318.73 294.14,-315.66 290.01,-310.01"/>
</g>
<!-- Node14&#45;&gt;Node5 -->
<g id="edge16" class="edge">
<title>Node14&#45;&gt;Node5</title>
<path fill="none" stroke="midnightblue" d="M272,-169.29C272,-159.86 272,-149.65 272,-142.66"/>
<polygon fill="midnightblue" stroke="midnightblue" points="268.5,-169.4 272,-179.4 275.5,-169.4 268.5,-169.4"/>
</g>
<!-- Node15&#45;&gt;Node5 -->
<g id="edge20" class="edge">
<title>Node15&#45;&gt;Node5</title>
<path fill="none" stroke="midnightblue" d="M361.21,-235.78C360.22,-218.5 356.52,-195.62 345,-179 333.04,-161.75 312.11,-149.85 295.72,-142.64"/>
<polygon fill="midnightblue" stroke="midnightblue" points="357.73,-236.32 361.53,-246.21 364.72,-236.11 357.73,-236.32"/>
</g>
<!-- Node15&#45;&gt;Node14 -->
<g id="edge18" class="edge">
<title>Node15&#45;&gt;Node14</title>
<path fill="none" stroke="midnightblue" d="M333.55,-240.45C319.86,-230.45 303.63,-218.6 291.27,-209.58"/>
<polygon fill="midnightblue" stroke="midnightblue" points="331.55,-243.32 341.69,-246.4 335.68,-237.67 331.55,-243.32"/>
</g>
<!-- Node16 -->
<g id="node16" class="node">
<title>Node16</title>
<g id="a_node16"><a xlink:href="prefinalizer_8h.html" target="_top" xlink:title=" ">
<polygon fill="white" stroke="black" points="392.5,-185 392.5,-204 525.5,-204 525.5,-185 392.5,-185"/>
<text text-anchor="middle" x="459" y="-192" font-family="Helvetica,sans-Serif" font-size="10.00">include/cppgc/prefinalizer.h</text>
</a>
</g>
</g>
<!-- Node15&#45;&gt;Node16 -->
<g id="edge19" class="edge">
<title>Node15&#45;&gt;Node16</title>
<path fill="none" stroke="midnightblue" d="M390.69,-240.81C409.23,-228.51 432.16,-213.3 446.17,-204.01"/>
<polygon fill="midnightblue" stroke="midnightblue" points="388.66,-237.95 382.26,-246.4 392.53,-243.79 388.66,-237.95"/>
</g>
</g>
</svg>
