<?xml version="1.0" encoding="UTF-8" standalone="no"?>
<!DOCTYPE svg PUBLIC "-//W3C//DTD SVG 1.1//EN"
 "http://www.w3.org/Graphics/SVG/1.1/DTD/svg11.dtd">
<!-- Generated by graphviz version 2.49.3 (20211027.1534)
 -->
<!-- Title: include/cppgc/internal/caged&#45;heap&#45;local&#45;data.h Pages: 1 -->
<svg width="737pt" height="218pt"
 viewBox="0.00 0.00 736.50 218.00" xmlns="http://www.w3.org/2000/svg" xmlns:xlink="http://www.w3.org/1999/xlink">
<g id="graph0" class="graph" transform="scale(1 1) rotate(0) translate(4 214)">
<title>include/cppgc/internal/caged&#45;heap&#45;local&#45;data.h</title>
<polygon fill="white" stroke="transparent" points="-4,4 -4,-214 732.5,-214 732.5,4 -4,4"/>
<!-- Node1 -->
<g id="node1" class="node">
<title>Node1</title>
<g id="a_node1"><a xlink:title=" ">
<polygon fill="#bfbfbf" stroke="black" points="155,-179.5 155,-209.5 277,-209.5 277,-179.5 155,-179.5"/>
<text text-anchor="start" x="163" y="-197.5" font-family="Helvetica,sans-Serif" font-size="10.00">include/cppgc/internal</text>
<text text-anchor="middle" x="216" y="-186.5" font-family="Helvetica,sans-Serif" font-size="10.00">/caged&#45;heap&#45;local&#45;data.h</text>
</a>
</g>
</g>
<!-- Node2 -->
<g id="node2" class="node">
<title>Node2</title>
<g id="a_node2"><a xlink:title=" ">
<polygon fill="white" stroke="#bfbfbf" points="0,-118 0,-137 38,-137 38,-118 0,-118"/>
<text text-anchor="middle" x="19" y="-125" font-family="Helvetica,sans-Serif" font-size="10.00">array</text>
</a>
</g>
</g>
<!-- Node1&#45;&gt;Node2 -->
<g id="edge1" class="edge">
<title>Node1&#45;&gt;Node2</title>
<path fill="none" stroke="midnightblue" d="M164.89,-179.41C132.27,-170.01 89.27,-156.87 52,-143 50.35,-142.38 48.66,-141.73 46.96,-141.05"/>
<polygon fill="midnightblue" stroke="midnightblue" points="47.92,-137.66 37.35,-137.01 45.21,-144.11 47.92,-137.66"/>
</g>
<!-- Node3 -->
<g id="node3" class="node">
<title>Node3</title>
<g id="a_node3"><a xlink:title=" ">
<polygon fill="white" stroke="#bfbfbf" points="89.5,-0.5 89.5,-19.5 138.5,-19.5 138.5,-0.5 89.5,-0.5"/>
<text text-anchor="middle" x="114" y="-7.5" font-family="Helvetica,sans-Serif" font-size="10.00">cstddef</text>
</a>
</g>
</g>
<!-- Node1&#45;&gt;Node3 -->
<g id="edge2" class="edge">
<title>Node1&#45;&gt;Node3</title>
<path fill="none" stroke="midnightblue" d="M154.99,-185.45C128.91,-178.65 100.86,-166.11 85,-143 60.64,-107.51 86.09,-55.09 102.47,-28.24"/>
<polygon fill="midnightblue" stroke="midnightblue" points="105.56,-29.89 107.98,-19.58 99.66,-26.13 105.56,-29.89"/>
</g>
<!-- Node4 -->
<g id="node4" class="node">
<title>Node4</title>
<g id="a_node4"><a xlink:title=" ">
<polygon fill="white" stroke="#bfbfbf" points="180,-56.5 180,-75.5 226,-75.5 226,-56.5 180,-56.5"/>
<text text-anchor="middle" x="203" y="-63.5" font-family="Helvetica,sans-Serif" font-size="10.00">cstdint</text>
</a>
</g>
</g>
<!-- Node1&#45;&gt;Node4 -->
<g id="edge3" class="edge">
<title>Node1&#45;&gt;Node4</title>
<path fill="none" stroke="midnightblue" d="M214.56,-179.48C212.22,-156.72 207.59,-111.7 204.96,-86.06"/>
<polygon fill="midnightblue" stroke="midnightblue" points="208.41,-85.38 203.9,-75.79 201.44,-86.09 208.41,-85.38"/>
</g>
<!-- Node5 -->
<g id="node5" class="node">
<title>Node5</title>
<g id="a_node5"><a xlink:href="api-constants_8h.html" target="_top" xlink:title=" ">
<polygon fill="white" stroke="black" points="94.5,-112.5 94.5,-142.5 187.5,-142.5 187.5,-112.5 94.5,-112.5"/>
<text text-anchor="start" x="102.5" y="-130.5" font-family="Helvetica,sans-Serif" font-size="10.00">cppgc/internal/api</text>
<text text-anchor="middle" x="141" y="-119.5" font-family="Helvetica,sans-Serif" font-size="10.00">&#45;constants.h</text>
</a>
</g>
</g>
<!-- Node1&#45;&gt;Node5 -->
<g id="edge4" class="edge">
<title>Node1&#45;&gt;Node5</title>
<path fill="none" stroke="midnightblue" d="M199.73,-179.4C189.6,-170.62 176.4,-159.18 165.08,-149.37"/>
<polygon fill="midnightblue" stroke="midnightblue" points="167.09,-146.48 157.24,-142.58 162.51,-151.77 167.09,-146.48"/>
</g>
<!-- Node6 -->
<g id="node6" class="node">
<title>Node6</title>
<g id="a_node6"><a xlink:href="v8config_8h.html" target="_top" xlink:title=" ">
<polygon fill="white" stroke="black" points="271,-0.5 271,-19.5 331,-19.5 331,-0.5 271,-0.5"/>
<text text-anchor="middle" x="301" y="-7.5" font-family="Helvetica,sans-Serif" font-size="10.00">v8config.h</text>
</a>
</g>
</g>
<!-- Node1&#45;&gt;Node6 -->
<g id="edge25" class="edge">
<title>Node1&#45;&gt;Node6</title>
<path fill="none" stroke="midnightblue" d="M222.53,-179.48C237.74,-146.82 275.55,-65.65 292.52,-29.21"/>
<polygon fill="midnightblue" stroke="midnightblue" points="295.84,-30.36 296.89,-19.82 289.5,-27.41 295.84,-30.36"/>
</g>
<!-- Node7 -->
<g id="node7" class="node">
<title>Node7</title>
<g id="a_node7"><a xlink:href="logging_8h.html" target="_top" xlink:title=" ">
<polygon fill="white" stroke="black" points="282.5,-118 282.5,-137 401.5,-137 401.5,-118 282.5,-118"/>
<text text-anchor="middle" x="342" y="-125" font-family="Helvetica,sans-Serif" font-size="10.00">cppgc/internal/logging.h</text>
</a>
</g>
</g>
<!-- Node1&#45;&gt;Node7 -->
<g id="edge8" class="edge">
<title>Node1&#45;&gt;Node7</title>
<path fill="none" stroke="midnightblue" d="M243.34,-179.4C265.06,-168.19 295.2,-152.64 316.44,-141.69"/>
<polygon fill="midnightblue" stroke="midnightblue" points="318.23,-144.7 325.51,-137.01 315.02,-138.48 318.23,-144.7"/>
</g>
<!-- Node10 -->
<g id="node10" class="node">
<title>Node10</title>
<g id="a_node10"><a xlink:href="platform_8h.html" target="_top" xlink:title=" ">
<polygon fill="white" stroke="black" points="423.5,-118 423.5,-137 512.5,-137 512.5,-118 423.5,-118"/>
<text text-anchor="middle" x="468" y="-125" font-family="Helvetica,sans-Serif" font-size="10.00">cppgc/platform.h</text>
</a>
</g>
</g>
<!-- Node1&#45;&gt;Node10 -->
<g id="edge14" class="edge">
<title>Node1&#45;&gt;Node10</title>
<path fill="none" stroke="midnightblue" d="M270.37,-179.48C316.72,-167.52 382.43,-150.57 425.13,-139.56"/>
<polygon fill="midnightblue" stroke="midnightblue" points="426.13,-142.92 434.94,-137.03 424.38,-136.14 426.13,-142.92"/>
</g>
<!-- Node5&#45;&gt;Node3 -->
<g id="edge5" class="edge">
<title>Node5&#45;&gt;Node3</title>
<path fill="none" stroke="midnightblue" d="M137.69,-112.34C132.82,-91.53 123.74,-52.66 118.34,-29.58"/>
<polygon fill="midnightblue" stroke="midnightblue" points="121.71,-28.61 116.03,-19.67 114.89,-30.2 121.71,-28.61"/>
</g>
<!-- Node5&#45;&gt;Node4 -->
<g id="edge6" class="edge">
<title>Node5&#45;&gt;Node4</title>
<path fill="none" stroke="midnightblue" d="M155.69,-112.4C164.98,-103.49 177,-91.95 186.6,-82.74"/>
<polygon fill="midnightblue" stroke="midnightblue" points="189.19,-85.11 193.98,-75.66 184.34,-80.06 189.19,-85.11"/>
</g>
<!-- Node5&#45;&gt;Node6 -->
<g id="edge7" class="edge">
<title>Node5&#45;&gt;Node6</title>
<path fill="none" stroke="midnightblue" d="M143.47,-112.36C146.94,-96.54 154.76,-71.16 171,-56 195.65,-33 232.64,-21.68 260.87,-16.16"/>
<polygon fill="midnightblue" stroke="midnightblue" points="261.61,-19.58 270.84,-14.37 260.38,-12.69 261.61,-19.58"/>
</g>
<!-- Node7&#45;&gt;Node6 -->
<g id="edge13" class="edge">
<title>Node7&#45;&gt;Node6</title>
<path fill="none" stroke="midnightblue" d="M335.12,-117.76C327.9,-108.11 316.81,-91.84 311,-76 305.53,-61.08 303.05,-43.16 301.93,-29.92"/>
<polygon fill="midnightblue" stroke="midnightblue" points="305.4,-29.43 301.25,-19.68 298.42,-29.89 305.4,-29.43"/>
</g>
<!-- Node8 -->
<g id="node8" class="node">
<title>Node8</title>
<g id="a_node8"><a xlink:href="source-location_8h.html" target="_top" xlink:title=" ">
<polygon fill="white" stroke="black" points="320.5,-56.5 320.5,-75.5 439.5,-75.5 439.5,-56.5 320.5,-56.5"/>
<text text-anchor="middle" x="380" y="-63.5" font-family="Helvetica,sans-Serif" font-size="10.00">cppgc/source&#45;location.h</text>
</a>
</g>
</g>
<!-- Node7&#45;&gt;Node8 -->
<g id="edge9" class="edge">
<title>Node7&#45;&gt;Node8</title>
<path fill="none" stroke="midnightblue" d="M347.44,-117.98C353.09,-109.14 362.06,-95.09 369.16,-83.98"/>
<polygon fill="midnightblue" stroke="midnightblue" points="372.13,-85.82 374.57,-75.51 366.23,-82.05 372.13,-85.82"/>
</g>
<!-- Node8&#45;&gt;Node3 -->
<g id="edge10" class="edge">
<title>Node8&#45;&gt;Node3</title>
<path fill="none" stroke="midnightblue" d="M337.85,-56.44C285.58,-45.83 197.44,-27.94 148.82,-18.07"/>
<polygon fill="midnightblue" stroke="midnightblue" points="149.28,-14.59 138.78,-16.03 147.89,-21.45 149.28,-14.59"/>
</g>
<!-- Node8&#45;&gt;Node6 -->
<g id="edge12" class="edge">
<title>Node8&#45;&gt;Node6</title>
<path fill="none" stroke="midnightblue" d="M367.31,-56.32C355.1,-47.98 336.42,-35.21 322,-25.35"/>
<polygon fill="midnightblue" stroke="midnightblue" points="323.89,-22.41 313.66,-19.65 319.94,-28.19 323.89,-22.41"/>
</g>
<!-- Node9 -->
<g id="node9" class="node">
<title>Node9</title>
<g id="a_node9"><a xlink:title=" ">
<polygon fill="white" stroke="#bfbfbf" points="388.5,-0.5 388.5,-19.5 429.5,-19.5 429.5,-0.5 388.5,-0.5"/>
<text text-anchor="middle" x="409" y="-7.5" font-family="Helvetica,sans-Serif" font-size="10.00">string</text>
</a>
</g>
</g>
<!-- Node8&#45;&gt;Node9 -->
<g id="edge11" class="edge">
<title>Node8&#45;&gt;Node9</title>
<path fill="none" stroke="midnightblue" d="M384.79,-56.08C388.76,-48.69 394.53,-37.95 399.43,-28.81"/>
<polygon fill="midnightblue" stroke="midnightblue" points="402.65,-30.22 404.3,-19.75 396.49,-26.91 402.65,-30.22"/>
</g>
<!-- Node10&#45;&gt;Node6 -->
<g id="edge24" class="edge">
<title>Node10&#45;&gt;Node6</title>
<path fill="none" stroke="midnightblue" d="M468.06,-117.84C467.68,-103.1 464.74,-73.09 448,-56 433.04,-40.73 379.25,-26.95 341.08,-18.77"/>
<polygon fill="midnightblue" stroke="midnightblue" points="341.76,-15.34 331.26,-16.72 340.33,-22.19 341.76,-15.34"/>
</g>
<!-- Node10&#45;&gt;Node8 -->
<g id="edge16" class="edge">
<title>Node10&#45;&gt;Node8</title>
<path fill="none" stroke="midnightblue" d="M455.39,-117.98C441.28,-108.43 418.17,-92.81 401.25,-81.37"/>
<polygon fill="midnightblue" stroke="midnightblue" points="402.83,-78.21 392.58,-75.51 398.91,-84.01 402.83,-78.21"/>
</g>
<!-- Node11 -->
<g id="node11" class="node">
<title>Node11</title>
<g id="a_node11"><a xlink:title=" ">
<polygon fill="white" stroke="#bfbfbf" points="476.5,-0.5 476.5,-19.5 527.5,-19.5 527.5,-0.5 476.5,-0.5"/>
<text text-anchor="middle" x="502" y="-7.5" font-family="Helvetica,sans-Serif" font-size="10.00">memory</text>
</a>
</g>
</g>
<!-- Node10&#45;&gt;Node11 -->
<g id="edge15" class="edge">
<title>Node10&#45;&gt;Node11</title>
<path fill="none" stroke="midnightblue" d="M470.56,-117.82C476.04,-99.17 489.06,-54.94 496.52,-29.63"/>
<polygon fill="midnightblue" stroke="midnightblue" points="499.95,-30.36 499.41,-19.78 493.23,-28.39 499.95,-30.36"/>
</g>
<!-- Node12 -->
<g id="node12" class="node">
<title>Node12</title>
<g id="a_node12"><a xlink:href="v8-platform_8h.html" target="_top" xlink:title=" ">
<polygon fill="white" stroke="black" points="534.5,-56.5 534.5,-75.5 607.5,-75.5 607.5,-56.5 534.5,-56.5"/>
<text text-anchor="middle" x="571" y="-63.5" font-family="Helvetica,sans-Serif" font-size="10.00">v8&#45;platform.h</text>
</a>
</g>
</g>
<!-- Node10&#45;&gt;Node12 -->
<g id="edge17" class="edge">
<title>Node10&#45;&gt;Node12</title>
<path fill="none" stroke="midnightblue" d="M482.76,-117.98C499.66,-108.21 527.58,-92.08 547.49,-80.58"/>
<polygon fill="midnightblue" stroke="midnightblue" points="549.36,-83.54 556.27,-75.51 545.86,-77.48 549.36,-83.54"/>
</g>
<!-- Node12&#45;&gt;Node6 -->
<g id="edge23" class="edge">
<title>Node12&#45;&gt;Node6</title>
<path fill="none" stroke="midnightblue" d="M534.31,-57.66C483.89,-47.58 393.51,-29.5 341.27,-19.05"/>
<polygon fill="midnightblue" stroke="midnightblue" points="341.85,-15.6 331.36,-17.07 340.48,-22.46 341.85,-15.6"/>
</g>
<!-- Node12&#45;&gt;Node9 -->
<g id="edge22" class="edge">
<title>Node12&#45;&gt;Node9</title>
<path fill="none" stroke="midnightblue" d="M545.33,-56.44C516.63,-46.88 470.19,-31.4 439.62,-21.21"/>
<polygon fill="midnightblue" stroke="midnightblue" points="440.51,-17.81 429.91,-17.97 438.29,-24.45 440.51,-17.81"/>
</g>
<!-- Node12&#45;&gt;Node11 -->
<g id="edge21" class="edge">
<title>Node12&#45;&gt;Node11</title>
<path fill="none" stroke="midnightblue" d="M559.91,-56.32C549.51,-48.18 533.74,-35.84 521.28,-26.09"/>
<polygon fill="midnightblue" stroke="midnightblue" points="523.32,-23.24 513.29,-19.83 519.01,-28.75 523.32,-23.24"/>
</g>
<!-- Node13 -->
<g id="node13" class="node">
<title>Node13</title>
<g id="a_node13"><a xlink:title=" ">
<polygon fill="white" stroke="#bfbfbf" points="545.5,-0.5 545.5,-19.5 596.5,-19.5 596.5,-0.5 545.5,-0.5"/>
<text text-anchor="middle" x="571" y="-7.5" font-family="Helvetica,sans-Serif" font-size="10.00">stddef.h</text>
</a>
</g>
</g>
<!-- Node12&#45;&gt;Node13 -->
<g id="edge18" class="edge">
<title>Node12&#45;&gt;Node13</title>
<path fill="none" stroke="midnightblue" d="M571,-56.08C571,-49.01 571,-38.86 571,-29.99"/>
<polygon fill="midnightblue" stroke="midnightblue" points="574.5,-29.75 571,-19.75 567.5,-29.75 574.5,-29.75"/>
</g>
<!-- Node14 -->
<g id="node14" class="node">
<title>Node14</title>
<g id="a_node14"><a xlink:title=" ">
<polygon fill="white" stroke="#bfbfbf" points="615,-0.5 615,-19.5 663,-19.5 663,-0.5 615,-0.5"/>
<text text-anchor="middle" x="639" y="-7.5" font-family="Helvetica,sans-Serif" font-size="10.00">stdint.h</text>
</a>
</g>
</g>
<!-- Node12&#45;&gt;Node14 -->
<g id="edge19" class="edge">
<title>Node12&#45;&gt;Node14</title>
<path fill="none" stroke="midnightblue" d="M581.93,-56.32C592.17,-48.18 607.72,-35.84 620,-26.09"/>
<polygon fill="midnightblue" stroke="midnightblue" points="622.22,-28.79 627.88,-19.83 617.87,-23.31 622.22,-28.79"/>
</g>
<!-- Node15 -->
<g id="node15" class="node">
<title>Node15</title>
<g id="a_node15"><a xlink:title=" ">
<polygon fill="white" stroke="#bfbfbf" points="681.5,-0.5 681.5,-19.5 728.5,-19.5 728.5,-0.5 681.5,-0.5"/>
<text text-anchor="middle" x="705" y="-7.5" font-family="Helvetica,sans-Serif" font-size="10.00">stdlib.h</text>
</a>
</g>
</g>
<!-- Node12&#45;&gt;Node15 -->
<g id="edge20" class="edge">
<title>Node12&#45;&gt;Node15</title>
<path fill="none" stroke="midnightblue" d="M592.23,-56.44C614.38,-47.52 649.32,-33.44 674.44,-23.32"/>
<polygon fill="midnightblue" stroke="midnightblue" points="675.9,-26.5 683.87,-19.52 673.28,-20.01 675.9,-26.5"/>
</g>
</g>
</svg>
