<?xml version="1.0" encoding="UTF-8" standalone="no"?>
<!DOCTYPE svg PUBLIC "-//W3C//DTD SVG 1.1//EN"
 "http://www.w3.org/Graphics/SVG/1.1/DTD/svg11.dtd">
<!-- Generated by graphviz version 2.49.3 (20211027.1534)
 -->
<!-- Title: v8::Object::GetInternalField Pages: 1 -->
<svg width="332pt" height="127pt"
 viewBox="0.00 0.00 332.00 127.00" xmlns="http://www.w3.org/2000/svg" xmlns:xlink="http://www.w3.org/1999/xlink">
<g id="graph0" class="graph" transform="scale(1 1) rotate(0) translate(4 123)">
<title>v8::Object::GetInternalField</title>
<polygon fill="white" stroke="transparent" points="-4,4 -4,-123 328,-123 328,4 -4,4"/>
<!-- Node1 -->
<g id="node1" class="node">
<title>Node1</title>
<g id="a_node1"><a xlink:title=" ">
<polygon fill="#bfbfbf" stroke="black" points="0,-50 0,-69 134,-69 134,-50 0,-50"/>
<text text-anchor="middle" x="67" y="-57" font-family="Helvetica,sans-Serif" font-size="10.00">v8::Object::GetInternalField</text>
</a>
</g>
</g>
<!-- Node2 -->
<g id="node2" class="node">
<title>Node2</title>
<g id="a_node2"><a xlink:href="namespacev8_1_1internal.html#a66705c1a02f88de30f87185da9e86591" target="_top" xlink:title=" ">
<polygon fill="white" stroke="black" points="177,-88.5 177,-118.5 317,-118.5 317,-88.5 177,-88.5"/>
<text text-anchor="start" x="185" y="-106.5" font-family="Helvetica,sans-Serif" font-size="10.00">v8::internal::CanHaveInternal</text>
<text text-anchor="middle" x="247" y="-95.5" font-family="Helvetica,sans-Serif" font-size="10.00">Field</text>
</a>
</g>
</g>
<!-- Node1&#45;&gt;Node2 -->
<g id="edge1" class="edge">
<title>Node1&#45;&gt;Node2</title>
<path fill="none" stroke="midnightblue" d="M106.62,-69.05C126.66,-74 151.79,-80.21 175.16,-85.99"/>
<polygon fill="midnightblue" stroke="midnightblue" points="174.51,-89.43 185.05,-88.43 176.19,-82.64 174.51,-89.43"/>
</g>
<!-- Node3 -->
<g id="node3" class="node">
<title>Node3</title>
<g id="a_node3"><a xlink:href="classv8_1_1HandleScope.html#a14cfd5bb0db38e82374b67af8a3231cf" target="_top" xlink:title=" ">
<polygon fill="white" stroke="black" points="170,-50 170,-69 324,-69 324,-50 170,-50"/>
<text text-anchor="middle" x="247" y="-57" font-family="Helvetica,sans-Serif" font-size="10.00">v8::HandleScope::CreateHandle</text>
</a>
</g>
</g>
<!-- Node1&#45;&gt;Node3 -->
<g id="edge2" class="edge">
<title>Node1&#45;&gt;Node3</title>
<path fill="none" stroke="midnightblue" d="M134.03,-59.5C142.42,-59.5 151.1,-59.5 159.75,-59.5"/>
<polygon fill="midnightblue" stroke="midnightblue" points="159.87,-63 169.87,-59.5 159.87,-56 159.87,-63"/>
</g>
<!-- Node4 -->
<g id="node4" class="node">
<title>Node4</title>
<g id="a_node4"><a xlink:href="namespacev8_1_1internal.html#a08bbb79961b030612c250d0119687921" target="_top" xlink:title=" ">
<polygon fill="white" stroke="black" points="176.5,-0.5 176.5,-30.5 317.5,-30.5 317.5,-0.5 176.5,-0.5"/>
<text text-anchor="start" x="184.5" y="-18.5" font-family="Helvetica,sans-Serif" font-size="10.00">v8::internal::IsolateFrom</text>
<text text-anchor="middle" x="247" y="-7.5" font-family="Helvetica,sans-Serif" font-size="10.00">NeverReadOnlySpaceObject</text>
</a>
</g>
</g>
<!-- Node1&#45;&gt;Node4 -->
<g id="edge3" class="edge">
<title>Node1&#45;&gt;Node4</title>
<path fill="none" stroke="midnightblue" d="M106.62,-49.95C126.66,-45 151.79,-38.79 175.16,-33.01"/>
<polygon fill="midnightblue" stroke="midnightblue" points="176.19,-36.36 185.05,-30.57 174.51,-29.57 176.19,-36.36"/>
</g>
</g>
</svg>
