<?xml version="1.0" encoding="UTF-8" standalone="no"?>
<!DOCTYPE svg PUBLIC "-//W3C//DTD SVG 1.1//EN"
 "http://www.w3.org/Graphics/SVG/1.1/DTD/svg11.dtd">
<!-- Generated by graphviz version 2.49.3 (20211027.1534)
 -->
<!-- Title: include/cppgc/common.h Pages: 1 -->
<svg width="843pt" height="419pt"
 viewBox="0.00 0.00 843.00 419.00" xmlns="http://www.w3.org/2000/svg" xmlns:xlink="http://www.w3.org/1999/xlink">
<g id="graph0" class="graph" transform="scale(1 1) rotate(0) translate(4 415)">
<title>include/cppgc/common.h</title>
<polygon fill="white" stroke="transparent" points="-4,4 -4,-415 839,-415 839,4 -4,4"/>
<!-- Node1 -->
<g id="node1" class="node">
<title>Node1</title>
<g id="a_node1"><a xlink:title=" ">
<polygon fill="#bfbfbf" stroke="black" points="455,-391.5 455,-410.5 580,-410.5 580,-391.5 455,-391.5"/>
<text text-anchor="middle" x="517.5" y="-398.5" font-family="Helvetica,sans-Serif" font-size="10.00">include/cppgc/common.h</text>
</a>
</g>
</g>
<!-- Node2 -->
<g id="node2" class="node">
<title>Node2</title>
<g id="a_node2"><a xlink:href="heap_8h.html" target="_top" xlink:title=" ">
<polygon fill="white" stroke="black" points="185.5,-330 185.5,-349 293.5,-349 293.5,-330 185.5,-330"/>
<text text-anchor="middle" x="239.5" y="-337" font-family="Helvetica,sans-Serif" font-size="10.00">include/cppgc/heap.h</text>
</a>
</g>
</g>
<!-- Node1&#45;&gt;Node2 -->
<g id="edge1" class="edge">
<title>Node1&#45;&gt;Node2</title>
<path fill="none" stroke="midnightblue" d="M467.65,-389.33C413.74,-377.79 328.87,-359.63 279.26,-349.01"/>
<polygon fill="midnightblue" stroke="midnightblue" points="467.16,-392.8 477.67,-391.48 468.62,-385.96 467.16,-392.8"/>
</g>
<!-- Node8 -->
<g id="node8" class="node">
<title>Node8</title>
<g id="a_node8"><a xlink:href="v8-cppgc_8h.html" target="_top" xlink:title=" ">
<polygon fill="white" stroke="black" points="297.5,-67.5 297.5,-86.5 395.5,-86.5 395.5,-67.5 297.5,-67.5"/>
<text text-anchor="middle" x="346.5" y="-74.5" font-family="Helvetica,sans-Serif" font-size="10.00">include/v8&#45;cppgc.h</text>
</a>
</g>
</g>
<!-- Node1&#45;&gt;Node8 -->
<g id="edge20" class="edge">
<title>Node1&#45;&gt;Node8</title>
<path fill="none" stroke="midnightblue" d="M444.7,-394.25C416.11,-388.38 385.25,-376.97 364.5,-355 338.96,-327.96 345.5,-310.69 345.5,-273.5 345.5,-273.5 345.5,-273.5 345.5,-204.5 345.5,-160.14 346.12,-107.02 346.39,-86.59"/>
<polygon fill="midnightblue" stroke="midnightblue" points="444.22,-397.72 454.69,-396.1 445.5,-390.84 444.22,-397.72"/>
</g>
<!-- Node10 -->
<g id="node10" class="node">
<title>Node10</title>
<g id="a_node10"><a xlink:href="testing_8h.html" target="_top" xlink:title=" ">
<polygon fill="white" stroke="black" points="373.5,-330 373.5,-349 489.5,-349 489.5,-330 373.5,-330"/>
<text text-anchor="middle" x="431.5" y="-337" font-family="Helvetica,sans-Serif" font-size="10.00">include/cppgc/testing.h</text>
</a>
</g>
</g>
<!-- Node1&#45;&gt;Node10 -->
<g id="edge11" class="edge">
<title>Node1&#45;&gt;Node10</title>
<path fill="none" stroke="midnightblue" d="M496.7,-385.61C480.16,-374.17 457.58,-358.55 443.8,-349.01"/>
<polygon fill="midnightblue" stroke="midnightblue" points="494.96,-388.66 505.18,-391.48 498.95,-382.91 494.96,-388.66"/>
</g>
<!-- Node11 -->
<g id="node11" class="node">
<title>Node11</title>
<g id="a_node11"><a xlink:href="v8-callbacks_8h.html" target="_top" xlink:title=" ">
<polygon fill="white" stroke="black" points="546,-330 546,-349 659,-349 659,-330 546,-330"/>
<text text-anchor="middle" x="602.5" y="-337" font-family="Helvetica,sans-Serif" font-size="10.00">include/v8&#45;callbacks.h</text>
</a>
</g>
</g>
<!-- Node1&#45;&gt;Node11 -->
<g id="edge12" class="edge">
<title>Node1&#45;&gt;Node11</title>
<path fill="none" stroke="midnightblue" d="M538.05,-385.61C554.4,-374.17 576.72,-358.55 590.34,-349.01"/>
<polygon fill="midnightblue" stroke="midnightblue" points="535.86,-382.87 529.68,-391.48 539.88,-388.61 535.86,-382.87"/>
</g>
<!-- Node13 -->
<g id="node13" class="node">
<title>Node13</title>
<g id="a_node13"><a xlink:href="v8_8h.html" target="_top" xlink:title=" ">
<polygon fill="white" stroke="black" points="572.5,-129 572.5,-148 640.5,-148 640.5,-129 572.5,-129"/>
<text text-anchor="middle" x="606.5" y="-136" font-family="Helvetica,sans-Serif" font-size="10.00">include/v8.h</text>
</a>
</g>
</g>
<!-- Node1&#45;&gt;Node13 -->
<g id="edge24" class="edge">
<title>Node1&#45;&gt;Node13</title>
<path fill="none" stroke="midnightblue" d="M514.27,-380.92C508.69,-342.09 501.02,-252.26 536.5,-190 547.7,-170.34 570.05,-156.3 586.49,-148.1"/>
<polygon fill="midnightblue" stroke="midnightblue" points="510.88,-381.91 515.88,-391.25 517.79,-380.83 510.88,-381.91"/>
</g>
<!-- Node14 -->
<g id="node14" class="node">
<title>Node14</title>
<g id="a_node14"><a xlink:href="v8-isolate_8h.html" target="_top" xlink:title=" ">
<polygon fill="white" stroke="black" points="662.5,-263 662.5,-282 762.5,-282 762.5,-263 662.5,-263"/>
<text text-anchor="middle" x="712.5" y="-270" font-family="Helvetica,sans-Serif" font-size="10.00">include/v8&#45;isolate.h</text>
</a>
</g>
</g>
<!-- Node1&#45;&gt;Node14 -->
<g id="edge23" class="edge">
<title>Node1&#45;&gt;Node14</title>
<path fill="none" stroke="midnightblue" d="M590.06,-398.44C662.88,-395.16 767.86,-385.16 793.5,-355 817.53,-326.73 763.88,-296.52 732.75,-282.11"/>
<polygon fill="midnightblue" stroke="midnightblue" points="589.85,-394.94 580,-398.86 590.14,-401.94 589.85,-394.94"/>
</g>
<!-- Node17 -->
<g id="node17" class="node">
<title>Node17</title>
<g id="a_node17"><a xlink:href="v8-embedder-heap_8h.html" target="_top" xlink:title=" ">
<polygon fill="white" stroke="black" points="677,-324.5 677,-354.5 784,-354.5 784,-324.5 677,-324.5"/>
<text text-anchor="start" x="685" y="-342.5" font-family="Helvetica,sans-Serif" font-size="10.00">include/v8&#45;embedder</text>
<text text-anchor="middle" x="730.5" y="-331.5" font-family="Helvetica,sans-Serif" font-size="10.00">&#45;heap.h</text>
</a>
</g>
</g>
<!-- Node1&#45;&gt;Node17 -->
<g id="edge21" class="edge">
<title>Node1&#45;&gt;Node17</title>
<path fill="none" stroke="midnightblue" d="M557.83,-388.73C592.59,-379.02 642.93,-364.96 680.3,-354.52"/>
<polygon fill="midnightblue" stroke="midnightblue" points="556.71,-385.41 548.02,-391.48 558.59,-392.16 556.71,-385.41"/>
</g>
<!-- Node3 -->
<g id="node3" class="node">
<title>Node3</title>
<g id="a_node3"><a xlink:href="liveness-broker_8h.html" target="_top" xlink:title=" ">
<polygon fill="white" stroke="black" points="169.5,-257.5 169.5,-287.5 285.5,-287.5 285.5,-257.5 169.5,-257.5"/>
<text text-anchor="start" x="177.5" y="-275.5" font-family="Helvetica,sans-Serif" font-size="10.00">include/cppgc/liveness</text>
<text text-anchor="middle" x="227.5" y="-264.5" font-family="Helvetica,sans-Serif" font-size="10.00">&#45;broker.h</text>
</a>
</g>
</g>
<!-- Node2&#45;&gt;Node3 -->
<g id="edge2" class="edge">
<title>Node2&#45;&gt;Node3</title>
<path fill="none" stroke="midnightblue" d="M236.04,-319.74C234.14,-309.49 231.84,-297 230.1,-287.59"/>
<polygon fill="midnightblue" stroke="midnightblue" points="232.62,-320.54 237.88,-329.73 239.51,-319.26 232.62,-320.54"/>
</g>
<!-- Node4 -->
<g id="node4" class="node">
<title>Node4</title>
<g id="a_node4"><a xlink:href="ephemeron-pair_8h.html" target="_top" xlink:title=" ">
<polygon fill="white" stroke="black" points="151.5,-190.5 151.5,-220.5 279.5,-220.5 279.5,-190.5 151.5,-190.5"/>
<text text-anchor="start" x="159.5" y="-208.5" font-family="Helvetica,sans-Serif" font-size="10.00">include/cppgc/ephemeron</text>
<text text-anchor="middle" x="215.5" y="-197.5" font-family="Helvetica,sans-Serif" font-size="10.00">&#45;pair.h</text>
</a>
</g>
</g>
<!-- Node3&#45;&gt;Node4 -->
<g id="edge3" class="edge">
<title>Node3&#45;&gt;Node4</title>
<path fill="none" stroke="midnightblue" d="M223.05,-247.4C221.38,-238.37 219.54,-228.41 218.1,-220.58"/>
<polygon fill="midnightblue" stroke="midnightblue" points="219.64,-248.2 224.9,-257.4 226.52,-246.93 219.64,-248.2"/>
</g>
<!-- Node5 -->
<g id="node5" class="node">
<title>Node5</title>
<g id="a_node5"><a xlink:href="visitor_8h.html" target="_top" xlink:title=" ">
<polygon fill="white" stroke="black" points="159,-129 159,-148 272,-148 272,-129 159,-129"/>
<text text-anchor="middle" x="215.5" y="-136" font-family="Helvetica,sans-Serif" font-size="10.00">include/cppgc/visitor.h</text>
</a>
</g>
</g>
<!-- Node3&#45;&gt;Node5 -->
<g id="edge10" class="edge">
<title>Node3&#45;&gt;Node5</title>
<path fill="none" stroke="midnightblue" d="M262.02,-251.43C272.51,-243.42 282.77,-233.17 288.5,-221 294.36,-208.53 294.9,-202.2 288.5,-190 277.91,-169.8 255.17,-156.08 237.86,-148.09"/>
<polygon fill="midnightblue" stroke="midnightblue" points="259.78,-248.73 253.64,-257.37 263.82,-254.44 259.78,-248.73"/>
</g>
<!-- Node9 -->
<g id="node9" class="node">
<title>Node9</title>
<g id="a_node9"><a xlink:href="prefinalizer_8h.html" target="_top" xlink:title=" ">
<polygon fill="white" stroke="black" points="0,-196 0,-215 133,-215 133,-196 0,-196"/>
<text text-anchor="middle" x="66.5" y="-203" font-family="Helvetica,sans-Serif" font-size="10.00">include/cppgc/prefinalizer.h</text>
</a>
</g>
</g>
<!-- Node3&#45;&gt;Node9 -->
<g id="edge9" class="edge">
<title>Node3&#45;&gt;Node9</title>
<path fill="none" stroke="midnightblue" d="M183.22,-253.62C152.05,-241.04 111.74,-224.77 87.57,-215.01"/>
<polygon fill="midnightblue" stroke="midnightblue" points="181.98,-256.9 192.57,-257.4 184.6,-250.41 181.98,-256.9"/>
</g>
<!-- Node4&#45;&gt;Node5 -->
<g id="edge4" class="edge">
<title>Node4&#45;&gt;Node5</title>
<path fill="none" stroke="midnightblue" d="M215.5,-180.25C215.5,-169.02 215.5,-156.38 215.5,-148.19"/>
<polygon fill="midnightblue" stroke="midnightblue" points="212,-180.4 215.5,-190.4 219,-180.4 212,-180.4"/>
</g>
<!-- Node6 -->
<g id="node6" class="node">
<title>Node6</title>
<g id="a_node6"><a xlink:href="cross-thread-persistent_8h.html" target="_top" xlink:title=" ">
<polygon fill="white" stroke="black" points="115.5,-0.5 115.5,-30.5 219.5,-30.5 219.5,-0.5 115.5,-0.5"/>
<text text-anchor="start" x="123.5" y="-18.5" font-family="Helvetica,sans-Serif" font-size="10.00">include/cppgc/cross</text>
<text text-anchor="middle" x="167.5" y="-7.5" font-family="Helvetica,sans-Serif" font-size="10.00">&#45;thread&#45;persistent.h</text>
</a>
</g>
</g>
<!-- Node5&#45;&gt;Node6 -->
<g id="edge5" class="edge">
<title>Node5&#45;&gt;Node6</title>
<path fill="none" stroke="midnightblue" d="M183.1,-124.55C167.21,-116.34 149.56,-104.03 140.5,-87 130.59,-68.37 143.82,-45.29 155.01,-30.72"/>
<polygon fill="midnightblue" stroke="midnightblue" points="181.65,-127.74 192.18,-128.91 184.68,-121.43 181.65,-127.74"/>
</g>
<!-- Node7 -->
<g id="node7" class="node">
<title>Node7</title>
<g id="a_node7"><a xlink:href="persistent_8h.html" target="_top" xlink:title=" ">
<polygon fill="white" stroke="black" points="149.5,-67.5 149.5,-86.5 279.5,-86.5 279.5,-67.5 149.5,-67.5"/>
<text text-anchor="middle" x="214.5" y="-74.5" font-family="Helvetica,sans-Serif" font-size="10.00">include/cppgc/persistent.h</text>
</a>
</g>
</g>
<!-- Node5&#45;&gt;Node7 -->
<g id="edge6" class="edge">
<title>Node5&#45;&gt;Node7</title>
<path fill="none" stroke="midnightblue" d="M215.19,-118.82C215,-108 214.78,-94.9 214.64,-86.51"/>
<polygon fill="midnightblue" stroke="midnightblue" points="211.69,-119.04 215.36,-128.98 218.69,-118.92 211.69,-119.04"/>
</g>
<!-- Node5&#45;&gt;Node8 -->
<g id="edge8" class="edge">
<title>Node5&#45;&gt;Node8</title>
<path fill="none" stroke="midnightblue" d="M243.4,-124.83C268.83,-113.28 305.7,-96.53 327.77,-86.51"/>
<polygon fill="midnightblue" stroke="midnightblue" points="241.93,-121.65 234.27,-128.98 244.82,-128.03 241.93,-121.65"/>
</g>
<!-- Node7&#45;&gt;Node6 -->
<g id="edge7" class="edge">
<title>Node7&#45;&gt;Node6</title>
<path fill="none" stroke="midnightblue" d="M201.49,-59.53C194.29,-50.42 185.44,-39.21 178.58,-30.52"/>
<polygon fill="midnightblue" stroke="midnightblue" points="198.82,-61.8 207.77,-67.48 204.31,-57.46 198.82,-61.8"/>
</g>
<!-- Node12 -->
<g id="node12" class="node">
<title>Node12</title>
<g id="a_node12"><a xlink:href="v8-initialization_8h.html" target="_top" xlink:title=" ">
<polygon fill="white" stroke="black" points="545.5,-196 545.5,-215 667.5,-215 667.5,-196 545.5,-196"/>
<text text-anchor="middle" x="606.5" y="-203" font-family="Helvetica,sans-Serif" font-size="10.00">include/v8&#45;initialization.h</text>
</a>
</g>
</g>
<!-- Node11&#45;&gt;Node12 -->
<g id="edge13" class="edge">
<title>Node11&#45;&gt;Node12</title>
<path fill="none" stroke="midnightblue" d="M603.07,-319.78C603.95,-290.75 605.6,-236.04 606.24,-215.02"/>
<polygon fill="midnightblue" stroke="midnightblue" points="599.57,-319.74 602.76,-329.84 606.56,-319.95 599.57,-319.74"/>
</g>
<!-- Node11&#45;&gt;Node14 -->
<g id="edge15" class="edge">
<title>Node11&#45;&gt;Node14</title>
<path fill="none" stroke="midnightblue" d="M626,-324.62C647.79,-311.74 679.54,-292.98 697.9,-282.13"/>
<polygon fill="midnightblue" stroke="midnightblue" points="624.16,-321.63 617.34,-329.73 627.72,-327.66 624.16,-321.63"/>
</g>
<!-- Node12&#45;&gt;Node13 -->
<g id="edge14" class="edge">
<title>Node12&#45;&gt;Node13</title>
<path fill="none" stroke="midnightblue" d="M606.5,-185.54C606.5,-173.17 606.5,-157.62 606.5,-148.13"/>
<polygon fill="midnightblue" stroke="midnightblue" points="603,-185.73 606.5,-195.73 610,-185.73 603,-185.73"/>
</g>
<!-- Node14&#45;&gt;Node12 -->
<g id="edge16" class="edge">
<title>Node14&#45;&gt;Node12</title>
<path fill="none" stroke="midnightblue" d="M689.58,-257.44C668.58,-244.57 638.18,-225.93 620.57,-215.13"/>
<polygon fill="midnightblue" stroke="midnightblue" points="687.85,-260.49 698.2,-262.73 691.51,-254.52 687.85,-260.49"/>
</g>
<!-- Node14&#45;&gt;Node13 -->
<g id="edge19" class="edge">
<title>Node14&#45;&gt;Node13</title>
<path fill="none" stroke="midnightblue" d="M707.49,-253.22C702.01,-235.64 691.9,-209.01 676.5,-190 661.69,-171.72 638.72,-156.87 623.16,-148.11"/>
<polygon fill="midnightblue" stroke="midnightblue" points="704.14,-254.23 710.31,-262.85 710.86,-252.26 704.14,-254.23"/>
</g>
<!-- Node15 -->
<g id="node15" class="node">
<title>Node15</title>
<g id="a_node15"><a xlink:href="v8-inspector_8h.html" target="_top" xlink:title=" ">
<polygon fill="white" stroke="black" points="724,-196 724,-215 835,-215 835,-196 724,-196"/>
<text text-anchor="middle" x="779.5" y="-203" font-family="Helvetica,sans-Serif" font-size="10.00">include/v8&#45;inspector.h</text>
</a>
</g>
</g>
<!-- Node14&#45;&gt;Node15 -->
<g id="edge17" class="edge">
<title>Node14&#45;&gt;Node15</title>
<path fill="none" stroke="midnightblue" d="M729,-255.5C742.14,-242.75 760.02,-225.39 770.61,-215.13"/>
<polygon fill="midnightblue" stroke="midnightblue" points="726.28,-253.26 721.54,-262.73 731.15,-258.28 726.28,-253.26"/>
</g>
<!-- Node16 -->
<g id="node16" class="node">
<title>Node16</title>
<g id="a_node16"><a xlink:href="v8-inspector-protocol_8h.html" target="_top" xlink:title=" ">
<polygon fill="white" stroke="black" points="727.5,-123.5 727.5,-153.5 831.5,-153.5 831.5,-123.5 727.5,-123.5"/>
<text text-anchor="start" x="735.5" y="-141.5" font-family="Helvetica,sans-Serif" font-size="10.00">include/v8&#45;inspector</text>
<text text-anchor="middle" x="779.5" y="-130.5" font-family="Helvetica,sans-Serif" font-size="10.00">&#45;protocol.h</text>
</a>
</g>
</g>
<!-- Node15&#45;&gt;Node16 -->
<g id="edge18" class="edge">
<title>Node15&#45;&gt;Node16</title>
<path fill="none" stroke="midnightblue" d="M779.5,-185.41C779.5,-175.22 779.5,-162.9 779.5,-153.59"/>
<polygon fill="midnightblue" stroke="midnightblue" points="776,-185.73 779.5,-195.73 783,-185.73 776,-185.73"/>
</g>
<!-- Node17&#45;&gt;Node14 -->
<g id="edge22" class="edge">
<title>Node17&#45;&gt;Node14</title>
<path fill="none" stroke="midnightblue" d="M723.88,-314.6C720.75,-303.28 717.2,-290.46 714.91,-282.19"/>
<polygon fill="midnightblue" stroke="midnightblue" points="720.55,-315.69 726.59,-324.4 727.3,-313.82 720.55,-315.69"/>
</g>
</g>
</svg>
