<?xml version="1.0" encoding="UTF-8" standalone="no"?>
<!DOCTYPE svg PUBLIC "-//W3C//DTD SVG 1.1//EN"
 "http://www.w3.org/Graphics/SVG/1.1/DTD/svg11.dtd">
<!-- Generated by graphviz version 2.49.3 (20211027.1534)
 -->
<!-- Title: include/cppgc/liveness&#45;broker.h Pages: 1 -->
<svg width="326pt" height="285pt"
 viewBox="0.00 0.00 325.50 285.00" xmlns="http://www.w3.org/2000/svg" xmlns:xlink="http://www.w3.org/1999/xlink">
<g id="graph0" class="graph" transform="scale(1 1) rotate(0) translate(4 281)">
<title>include/cppgc/liveness&#45;broker.h</title>
<polygon fill="white" stroke="transparent" points="-4,4 -4,-281 321.5,-281 321.5,4 -4,4"/>
<!-- Node1 -->
<g id="node1" class="node">
<title>Node1</title>
<g id="a_node1"><a xlink:title=" ">
<polygon fill="#bfbfbf" stroke="black" points="98,-246.5 98,-276.5 214,-276.5 214,-246.5 98,-246.5"/>
<text text-anchor="start" x="106" y="-264.5" font-family="Helvetica,sans-Serif" font-size="10.00">include/cppgc/liveness</text>
<text text-anchor="middle" x="156" y="-253.5" font-family="Helvetica,sans-Serif" font-size="10.00">&#45;broker.h</text>
</a>
</g>
</g>
<!-- Node2 -->
<g id="node2" class="node">
<title>Node2</title>
<g id="a_node2"><a xlink:href="ephemeron-pair_8h.html" target="_top" xlink:title=" ">
<polygon fill="white" stroke="black" points="0,-179.5 0,-209.5 128,-209.5 128,-179.5 0,-179.5"/>
<text text-anchor="start" x="8" y="-197.5" font-family="Helvetica,sans-Serif" font-size="10.00">include/cppgc/ephemeron</text>
<text text-anchor="middle" x="64" y="-186.5" font-family="Helvetica,sans-Serif" font-size="10.00">&#45;pair.h</text>
</a>
</g>
</g>
<!-- Node1&#45;&gt;Node2 -->
<g id="edge1" class="edge">
<title>Node1&#45;&gt;Node2</title>
<path fill="none" stroke="midnightblue" d="M127.62,-240.45C113.47,-230.45 96.69,-218.6 83.92,-209.58"/>
<polygon fill="midnightblue" stroke="midnightblue" points="125.85,-243.48 136.04,-246.4 129.89,-237.77 125.85,-243.48"/>
</g>
<!-- Node3 -->
<g id="node3" class="node">
<title>Node3</title>
<g id="a_node3"><a xlink:href="visitor_8h.html" target="_top" xlink:title=" ">
<polygon fill="white" stroke="black" points="53.5,-123.5 53.5,-142.5 166.5,-142.5 166.5,-123.5 53.5,-123.5"/>
<text text-anchor="middle" x="110" y="-130.5" font-family="Helvetica,sans-Serif" font-size="10.00">include/cppgc/visitor.h</text>
</a>
</g>
</g>
<!-- Node1&#45;&gt;Node3 -->
<g id="edge8" class="edge">
<title>Node1&#45;&gt;Node3</title>
<path fill="none" stroke="midnightblue" d="M152.4,-236.29C149.44,-219.75 144.51,-197.56 137,-179 131.53,-165.49 122.35,-151.29 116.23,-142.54"/>
<polygon fill="midnightblue" stroke="midnightblue" points="148.96,-236.96 154.06,-246.25 155.86,-235.81 148.96,-236.96"/>
</g>
<!-- Node7 -->
<g id="node7" class="node">
<title>Node7</title>
<g id="a_node7"><a xlink:href="prefinalizer_8h.html" target="_top" xlink:title=" ">
<polygon fill="white" stroke="black" points="184.5,-185 184.5,-204 317.5,-204 317.5,-185 184.5,-185"/>
<text text-anchor="middle" x="251" y="-192" font-family="Helvetica,sans-Serif" font-size="10.00">include/cppgc/prefinalizer.h</text>
</a>
</g>
</g>
<!-- Node1&#45;&gt;Node7 -->
<g id="edge7" class="edge">
<title>Node1&#45;&gt;Node7</title>
<path fill="none" stroke="midnightblue" d="M185.02,-240.64C202.95,-228.37 225.04,-213.26 238.57,-204.01"/>
<polygon fill="midnightblue" stroke="midnightblue" points="182.89,-237.86 176.61,-246.4 186.84,-243.64 182.89,-237.86"/>
</g>
<!-- Node2&#45;&gt;Node3 -->
<g id="edge2" class="edge">
<title>Node2&#45;&gt;Node3</title>
<path fill="none" stroke="midnightblue" d="M81.08,-171.4C88.81,-161.41 97.49,-150.18 103.31,-142.66"/>
<polygon fill="midnightblue" stroke="midnightblue" points="78.25,-169.35 74.9,-179.4 83.79,-173.63 78.25,-169.35"/>
</g>
<!-- Node4 -->
<g id="node4" class="node">
<title>Node4</title>
<g id="a_node4"><a xlink:href="cross-thread-persistent_8h.html" target="_top" xlink:title=" ">
<polygon fill="white" stroke="black" points="11,-0.5 11,-30.5 115,-30.5 115,-0.5 11,-0.5"/>
<text text-anchor="start" x="19" y="-18.5" font-family="Helvetica,sans-Serif" font-size="10.00">include/cppgc/cross</text>
<text text-anchor="middle" x="63" y="-7.5" font-family="Helvetica,sans-Serif" font-size="10.00">&#45;thread&#45;persistent.h</text>
</a>
</g>
</g>
<!-- Node3&#45;&gt;Node4 -->
<g id="edge3" class="edge">
<title>Node3&#45;&gt;Node4</title>
<path fill="none" stroke="midnightblue" d="M73.76,-119.15C59.33,-112.05 44.22,-101.62 36,-87 25.59,-68.49 39.17,-45.18 50.54,-30.55"/>
<polygon fill="midnightblue" stroke="midnightblue" points="72.52,-122.43 83.07,-123.36 75.4,-116.05 72.52,-122.43"/>
</g>
<!-- Node5 -->
<g id="node5" class="node">
<title>Node5</title>
<g id="a_node5"><a xlink:href="persistent_8h.html" target="_top" xlink:title=" ">
<polygon fill="white" stroke="black" points="45,-67.5 45,-86.5 175,-86.5 175,-67.5 45,-67.5"/>
<text text-anchor="middle" x="110" y="-74.5" font-family="Helvetica,sans-Serif" font-size="10.00">include/cppgc/persistent.h</text>
</a>
</g>
</g>
<!-- Node3&#45;&gt;Node5 -->
<g id="edge4" class="edge">
<title>Node3&#45;&gt;Node5</title>
<path fill="none" stroke="midnightblue" d="M110,-112.8C110,-103.91 110,-93.78 110,-86.75"/>
<polygon fill="midnightblue" stroke="midnightblue" points="106.5,-113.08 110,-123.08 113.5,-113.08 106.5,-113.08"/>
</g>
<!-- Node6 -->
<g id="node6" class="node">
<title>Node6</title>
<g id="a_node6"><a xlink:href="v8-cppgc_8h.html" target="_top" xlink:title=" ">
<polygon fill="white" stroke="black" points="193,-67.5 193,-86.5 291,-86.5 291,-67.5 193,-67.5"/>
<text text-anchor="middle" x="242" y="-74.5" font-family="Helvetica,sans-Serif" font-size="10.00">include/v8&#45;cppgc.h</text>
</a>
</g>
</g>
<!-- Node3&#45;&gt;Node6 -->
<g id="edge6" class="edge">
<title>Node3&#45;&gt;Node6</title>
<path fill="none" stroke="midnightblue" d="M140.22,-119.64C164.99,-109.5 199.4,-95.43 221.18,-86.52"/>
<polygon fill="midnightblue" stroke="midnightblue" points="138.85,-116.42 130.92,-123.44 141.5,-122.9 138.85,-116.42"/>
</g>
<!-- Node5&#45;&gt;Node4 -->
<g id="edge5" class="edge">
<title>Node5&#45;&gt;Node4</title>
<path fill="none" stroke="midnightblue" d="M96.99,-59.53C89.79,-50.42 80.94,-39.21 74.08,-30.52"/>
<polygon fill="midnightblue" stroke="midnightblue" points="94.32,-61.8 103.27,-67.48 99.81,-57.46 94.32,-61.8"/>
</g>
</g>
</svg>
