<?xml version="1.0" encoding="UTF-8" standalone="no"?>
<!DOCTYPE svg PUBLIC "-//W3C//DTD SVG 1.1//EN"
 "http://www.w3.org/Graphics/SVG/1.1/DTD/svg11.dtd">
<!-- Generated by graphviz version 2.49.3 (20211027.1534)
 -->
<!-- Title: include/v8&#45;callbacks.h Pages: 1 -->
<svg width="298pt" height="207pt"
 viewBox="0.00 0.00 297.50 207.00" xmlns="http://www.w3.org/2000/svg" xmlns:xlink="http://www.w3.org/1999/xlink">
<g id="graph0" class="graph" transform="scale(1 1) rotate(0) translate(4 203)">
<title>include/v8&#45;callbacks.h</title>
<polygon fill="white" stroke="transparent" points="-4,4 -4,-203 293.5,-203 293.5,4 -4,4"/>
<!-- Node1 -->
<g id="node1" class="node">
<title>Node1</title>
<g id="a_node1"><a xlink:title=" ">
<polygon fill="#bfbfbf" stroke="black" points="48.5,-179.5 48.5,-198.5 161.5,-198.5 161.5,-179.5 48.5,-179.5"/>
<text text-anchor="middle" x="105" y="-186.5" font-family="Helvetica,sans-Serif" font-size="10.00">include/v8&#45;callbacks.h</text>
</a>
</g>
</g>
<!-- Node2 -->
<g id="node2" class="node">
<title>Node2</title>
<g id="a_node2"><a xlink:href="v8-initialization_8h.html" target="_top" xlink:title=" ">
<polygon fill="white" stroke="black" points="0,-67.5 0,-86.5 122,-86.5 122,-67.5 0,-67.5"/>
<text text-anchor="middle" x="61" y="-74.5" font-family="Helvetica,sans-Serif" font-size="10.00">include/v8&#45;initialization.h</text>
</a>
</g>
</g>
<!-- Node1&#45;&gt;Node2 -->
<g id="edge1" class="edge">
<title>Node1&#45;&gt;Node2</title>
<path fill="none" stroke="midnightblue" d="M97.8,-170C88.2,-146 71.59,-104.47 64.44,-86.59"/>
<polygon fill="midnightblue" stroke="midnightblue" points="94.58,-171.38 101.55,-179.37 101.08,-168.78 94.58,-171.38"/>
</g>
<!-- Node4 -->
<g id="node4" class="node">
<title>Node4</title>
<g id="a_node4"><a xlink:href="v8-isolate_8h.html" target="_top" xlink:title=" ">
<polygon fill="white" stroke="black" points="97,-123.5 97,-142.5 197,-142.5 197,-123.5 97,-123.5"/>
<text text-anchor="middle" x="147" y="-130.5" font-family="Helvetica,sans-Serif" font-size="10.00">include/v8&#45;isolate.h</text>
</a>
</g>
</g>
<!-- Node1&#45;&gt;Node4 -->
<g id="edge3" class="edge">
<title>Node1&#45;&gt;Node4</title>
<path fill="none" stroke="midnightblue" d="M118.11,-171.14C125.43,-161.74 134.24,-150.4 140.19,-142.75"/>
<polygon fill="midnightblue" stroke="midnightblue" points="115.31,-169.04 111.94,-179.08 120.84,-173.34 115.31,-169.04"/>
</g>
<!-- Node3 -->
<g id="node3" class="node">
<title>Node3</title>
<g id="a_node3"><a xlink:href="v8_8h.html" target="_top" xlink:title=" ">
<polygon fill="white" stroke="black" points="62,-6 62,-25 130,-25 130,-6 62,-6"/>
<text text-anchor="middle" x="96" y="-13" font-family="Helvetica,sans-Serif" font-size="10.00">include/v8.h</text>
</a>
</g>
</g>
<!-- Node2&#45;&gt;Node3 -->
<g id="edge2" class="edge">
<title>Node2&#45;&gt;Node3</title>
<path fill="none" stroke="midnightblue" d="M71.19,-58.67C77.7,-47.61 85.85,-33.75 90.99,-25.01"/>
<polygon fill="midnightblue" stroke="midnightblue" points="68.07,-57.08 66.01,-67.48 74.1,-60.63 68.07,-57.08"/>
</g>
<!-- Node4&#45;&gt;Node2 -->
<g id="edge4" class="edge">
<title>Node4&#45;&gt;Node2</title>
<path fill="none" stroke="midnightblue" d="M124.55,-117.9C108.78,-108 88.19,-95.07 74.78,-86.65"/>
<polygon fill="midnightblue" stroke="midnightblue" points="122.85,-120.97 133.18,-123.32 126.57,-115.04 122.85,-120.97"/>
</g>
<!-- Node4&#45;&gt;Node3 -->
<g id="edge7" class="edge">
<title>Node4&#45;&gt;Node3</title>
<path fill="none" stroke="midnightblue" d="M144.27,-113.37C141.88,-100.04 137.72,-81.9 131,-67 123.81,-51.05 111.47,-34.81 103.53,-25.2"/>
<polygon fill="midnightblue" stroke="midnightblue" points="140.82,-113.95 145.88,-123.26 147.73,-112.83 140.82,-113.95"/>
</g>
<!-- Node5 -->
<g id="node5" class="node">
<title>Node5</title>
<g id="a_node5"><a xlink:href="v8-inspector_8h.html" target="_top" xlink:title=" ">
<polygon fill="white" stroke="black" points="178.5,-67.5 178.5,-86.5 289.5,-86.5 289.5,-67.5 178.5,-67.5"/>
<text text-anchor="middle" x="234" y="-74.5" font-family="Helvetica,sans-Serif" font-size="10.00">include/v8&#45;inspector.h</text>
</a>
</g>
</g>
<!-- Node4&#45;&gt;Node5 -->
<g id="edge5" class="edge">
<title>Node4&#45;&gt;Node5</title>
<path fill="none" stroke="midnightblue" d="M169.72,-117.9C185.67,-108 206.5,-95.07 220.06,-86.65"/>
<polygon fill="midnightblue" stroke="midnightblue" points="167.63,-115.08 160.98,-123.32 171.32,-121.02 167.63,-115.08"/>
</g>
<!-- Node6 -->
<g id="node6" class="node">
<title>Node6</title>
<g id="a_node6"><a xlink:href="v8-inspector-protocol_8h.html" target="_top" xlink:title=" ">
<polygon fill="white" stroke="black" points="182,-0.5 182,-30.5 286,-30.5 286,-0.5 182,-0.5"/>
<text text-anchor="start" x="190" y="-18.5" font-family="Helvetica,sans-Serif" font-size="10.00">include/v8&#45;inspector</text>
<text text-anchor="middle" x="234" y="-7.5" font-family="Helvetica,sans-Serif" font-size="10.00">&#45;protocol.h</text>
</a>
</g>
</g>
<!-- Node5&#45;&gt;Node6 -->
<g id="edge6" class="edge">
<title>Node5&#45;&gt;Node6</title>
<path fill="none" stroke="midnightblue" d="M234,-57.23C234,-48.59 234,-38.5 234,-30.52"/>
<polygon fill="midnightblue" stroke="midnightblue" points="230.5,-57.48 234,-67.48 237.5,-57.48 230.5,-57.48"/>
</g>
</g>
</svg>
