<?xml version="1.0" encoding="UTF-8" standalone="no"?>
<!DOCTYPE svg PUBLIC "-//W3C//DTD SVG 1.1//EN"
 "http://www.w3.org/Graphics/SVG/1.1/DTD/svg11.dtd">
<!-- Generated by graphviz version 2.49.3 (20211027.1534)
 -->
<!-- Title: include/v8&#45;date.h Pages: 1 -->
<svg width="1056pt" height="420pt"
 viewBox="0.00 0.00 1055.98 420.00" xmlns="http://www.w3.org/2000/svg" xmlns:xlink="http://www.w3.org/1999/xlink">
<g id="graph0" class="graph" transform="scale(1 1) rotate(0) translate(4 416)">
<title>include/v8&#45;date.h</title>
<polygon fill="white" stroke="transparent" points="-4,4 -4,-416 1051.98,-416 1051.98,4 -4,4"/>
<!-- Node1 -->
<g id="node1" class="node">
<title>Node1</title>
<g id="a_node1"><a xlink:title=" ">
<polygon fill="#bfbfbf" stroke="black" points="331,-392.5 331,-411.5 421,-411.5 421,-392.5 331,-392.5"/>
<text text-anchor="middle" x="376" y="-399.5" font-family="Helvetica,sans-Serif" font-size="10.00">include/v8&#45;date.h</text>
</a>
</g>
</g>
<!-- Node2 -->
<g id="node2" class="node">
<title>Node2</title>
<g id="a_node2"><a xlink:href="v8-local-handle_8h.html" target="_top" xlink:title=" ">
<polygon fill="white" stroke="black" points="550.5,-112.5 550.5,-131.5 639.5,-131.5 639.5,-112.5 550.5,-112.5"/>
<text text-anchor="middle" x="595" y="-119.5" font-family="Helvetica,sans-Serif" font-size="10.00">v8&#45;local&#45;handle.h</text>
</a>
</g>
</g>
<!-- Node1&#45;&gt;Node2 -->
<g id="edge1" class="edge">
<title>Node1&#45;&gt;Node2</title>
<path fill="none" stroke="midnightblue" d="M421.29,-401.34C495.78,-399.27 636,-383.14 636,-291 636,-291 636,-291 636,-233 636,-198.52 618.09,-161.56 605.94,-140.47"/>
<polygon fill="midnightblue" stroke="midnightblue" points="608.84,-138.49 600.7,-131.71 602.84,-142.09 608.84,-138.49"/>
</g>
<!-- Node9 -->
<g id="node9" class="node">
<title>Node9</title>
<g id="a_node9"><a xlink:href="v8config_8h.html" target="_top" xlink:title=" ">
<polygon fill="white" stroke="black" points="183,-0.5 183,-19.5 243,-19.5 243,-0.5 183,-0.5"/>
<text text-anchor="middle" x="213" y="-7.5" font-family="Helvetica,sans-Serif" font-size="10.00">v8config.h</text>
</a>
</g>
</g>
<!-- Node1&#45;&gt;Node9 -->
<g id="edge49" class="edge">
<title>Node1&#45;&gt;Node9</title>
<path fill="none" stroke="midnightblue" d="M330.65,-397.35C230.64,-388.04 0,-359.18 0,-291 0,-291 0,-291 0,-121 0,-44.08 111.01,-20.89 172.74,-13.94"/>
<polygon fill="midnightblue" stroke="midnightblue" points="173.35,-17.4 182.93,-12.89 172.63,-10.44 173.35,-17.4"/>
</g>
<!-- Node10 -->
<g id="node10" class="node">
<title>Node10</title>
<g id="a_node10"><a xlink:href="v8-object_8h.html" target="_top" xlink:title=" ">
<polygon fill="white" stroke="black" points="344,-336.5 344,-355.5 408,-355.5 408,-336.5 344,-336.5"/>
<text text-anchor="middle" x="376" y="-343.5" font-family="Helvetica,sans-Serif" font-size="10.00">v8&#45;object.h</text>
</a>
</g>
</g>
<!-- Node1&#45;&gt;Node10 -->
<g id="edge11" class="edge">
<title>Node1&#45;&gt;Node10</title>
<path fill="none" stroke="midnightblue" d="M376,-392.08C376,-385.01 376,-374.86 376,-365.99"/>
<polygon fill="midnightblue" stroke="midnightblue" points="379.5,-365.75 376,-355.75 372.5,-365.75 379.5,-365.75"/>
</g>
<!-- Node3 -->
<g id="node3" class="node">
<title>Node3</title>
<g id="a_node3"><a xlink:title=" ">
<polygon fill="white" stroke="#bfbfbf" points="677.5,-0.5 677.5,-19.5 728.5,-19.5 728.5,-0.5 677.5,-0.5"/>
<text text-anchor="middle" x="703" y="-7.5" font-family="Helvetica,sans-Serif" font-size="10.00">stddef.h</text>
</a>
</g>
</g>
<!-- Node2&#45;&gt;Node3 -->
<g id="edge2" class="edge">
<title>Node2&#45;&gt;Node3</title>
<path fill="none" stroke="midnightblue" d="M603.47,-112.37C621.61,-93.89 664.42,-50.29 687.54,-26.74"/>
<polygon fill="midnightblue" stroke="midnightblue" points="690.06,-29.18 694.56,-19.59 685.06,-24.28 690.06,-29.18"/>
</g>
<!-- Node4 -->
<g id="node4" class="node">
<title>Node4</title>
<g id="a_node4"><a xlink:title=" ">
<polygon fill="white" stroke="#bfbfbf" points="813,-0.5 813,-19.5 875,-19.5 875,-0.5 813,-0.5"/>
<text text-anchor="middle" x="844" y="-7.5" font-family="Helvetica,sans-Serif" font-size="10.00">type_traits</text>
</a>
</g>
</g>
<!-- Node2&#45;&gt;Node4 -->
<g id="edge3" class="edge">
<title>Node2&#45;&gt;Node4</title>
<path fill="none" stroke="midnightblue" d="M614.54,-112.37C658.27,-93.05 764.19,-46.26 815.37,-23.65"/>
<polygon fill="midnightblue" stroke="midnightblue" points="816.82,-26.83 824.55,-19.59 813.99,-20.43 816.82,-26.83"/>
</g>
<!-- Node5 -->
<g id="node5" class="node">
<title>Node5</title>
<g id="a_node5"><a xlink:href="v8-internal_8h.html" target="_top" xlink:title=" ">
<polygon fill="white" stroke="black" points="540.5,-56.5 540.5,-75.5 609.5,-75.5 609.5,-56.5 540.5,-56.5"/>
<text text-anchor="middle" x="575" y="-63.5" font-family="Helvetica,sans-Serif" font-size="10.00">v8&#45;internal.h</text>
</a>
</g>
</g>
<!-- Node2&#45;&gt;Node5 -->
<g id="edge4" class="edge">
<title>Node2&#45;&gt;Node5</title>
<path fill="none" stroke="midnightblue" d="M591.7,-112.08C589.02,-104.85 585.15,-94.41 581.81,-85.4"/>
<polygon fill="midnightblue" stroke="midnightblue" points="585,-83.91 578.24,-75.75 578.43,-86.34 585,-83.91"/>
</g>
<!-- Node5&#45;&gt;Node3 -->
<g id="edge5" class="edge">
<title>Node5&#45;&gt;Node3</title>
<path fill="none" stroke="midnightblue" d="M595.28,-56.44C616.35,-47.56 649.52,-33.56 673.49,-23.45"/>
<polygon fill="midnightblue" stroke="midnightblue" points="674.96,-26.63 682.81,-19.52 672.24,-20.18 674.96,-26.63"/>
</g>
<!-- Node5&#45;&gt;Node4 -->
<g id="edge8" class="edge">
<title>Node5&#45;&gt;Node4</title>
<path fill="none" stroke="midnightblue" d="M609.59,-58.51C652.55,-50.38 728.34,-35.81 802.59,-20.26"/>
<polygon fill="midnightblue" stroke="midnightblue" points="803.51,-23.64 812.57,-18.16 802.07,-16.79 803.51,-23.64"/>
</g>
<!-- Node6 -->
<g id="node6" class="node">
<title>Node6</title>
<g id="a_node6"><a xlink:title=" ">
<polygon fill="white" stroke="#bfbfbf" points="747,-0.5 747,-19.5 795,-19.5 795,-0.5 747,-0.5"/>
<text text-anchor="middle" x="771" y="-7.5" font-family="Helvetica,sans-Serif" font-size="10.00">stdint.h</text>
</a>
</g>
</g>
<!-- Node5&#45;&gt;Node6 -->
<g id="edge6" class="edge">
<title>Node5&#45;&gt;Node6</title>
<path fill="none" stroke="midnightblue" d="M606.06,-56.44C641.77,-46.6 700.22,-30.5 737.09,-20.34"/>
<polygon fill="midnightblue" stroke="midnightblue" points="738.17,-23.67 746.89,-17.64 736.31,-16.93 738.17,-23.67"/>
</g>
<!-- Node7 -->
<g id="node7" class="node">
<title>Node7</title>
<g id="a_node7"><a xlink:title=" ">
<polygon fill="white" stroke="#bfbfbf" points="571,-0.5 571,-19.5 619,-19.5 619,-0.5 571,-0.5"/>
<text text-anchor="middle" x="595" y="-7.5" font-family="Helvetica,sans-Serif" font-size="10.00">string.h</text>
</a>
</g>
</g>
<!-- Node5&#45;&gt;Node7 -->
<g id="edge7" class="edge">
<title>Node5&#45;&gt;Node7</title>
<path fill="none" stroke="midnightblue" d="M578.3,-56.08C580.98,-48.85 584.85,-38.41 588.19,-29.4"/>
<polygon fill="midnightblue" stroke="midnightblue" points="591.57,-30.34 591.76,-19.75 585,-27.91 591.57,-30.34"/>
</g>
<!-- Node8 -->
<g id="node8" class="node">
<title>Node8</title>
<g id="a_node8"><a xlink:href="v8-version_8h.html" target="_top" xlink:title=" ">
<polygon fill="white" stroke="black" points="483.5,-0.5 483.5,-19.5 552.5,-19.5 552.5,-0.5 483.5,-0.5"/>
<text text-anchor="middle" x="518" y="-7.5" font-family="Helvetica,sans-Serif" font-size="10.00">v8&#45;version.h</text>
</a>
</g>
</g>
<!-- Node5&#45;&gt;Node8 -->
<g id="edge9" class="edge">
<title>Node5&#45;&gt;Node8</title>
<path fill="none" stroke="midnightblue" d="M565.84,-56.32C557.5,-48.42 544.97,-36.55 534.82,-26.94"/>
<polygon fill="midnightblue" stroke="midnightblue" points="536.99,-24.17 527.32,-19.83 532.18,-29.25 536.99,-24.17"/>
</g>
<!-- Node5&#45;&gt;Node9 -->
<g id="edge10" class="edge">
<title>Node5&#45;&gt;Node9</title>
<path fill="none" stroke="midnightblue" d="M540.29,-59.82C472.91,-49.77 324.73,-27.67 253.2,-17"/>
<polygon fill="midnightblue" stroke="midnightblue" points="253.63,-13.52 243.22,-15.51 252.59,-20.45 253.63,-13.52"/>
</g>
<!-- Node10&#45;&gt;Node2 -->
<g id="edge12" class="edge">
<title>Node10&#45;&gt;Node2</title>
<path fill="none" stroke="midnightblue" d="M405.56,-336.36C429.53,-328.68 463.7,-316.17 491,-300 524.39,-280.23 534.37,-274.79 558,-244 581.66,-213.17 590.29,-167.17 593.36,-141.69"/>
<polygon fill="midnightblue" stroke="midnightblue" points="596.86,-141.86 594.42,-131.55 589.9,-141.13 596.86,-141.86"/>
</g>
<!-- Node10&#45;&gt;Node9 -->
<g id="edge48" class="edge">
<title>Node10&#45;&gt;Node9</title>
<path fill="none" stroke="midnightblue" d="M343.9,-341.51C259.53,-331.45 38,-298.95 38,-235 38,-235 38,-235 38,-121 38,-57.58 121.39,-29.3 173.04,-17.87"/>
<polygon fill="midnightblue" stroke="midnightblue" points="173.85,-21.28 182.92,-15.8 172.41,-14.43 173.85,-21.28"/>
</g>
<!-- Node11 -->
<g id="node11" class="node">
<title>Node11</title>
<g id="a_node11"><a xlink:href="v8-maybe_8h.html" target="_top" xlink:title=" ">
<polygon fill="white" stroke="black" points="66,-168.5 66,-187.5 132,-187.5 132,-168.5 66,-168.5"/>
<text text-anchor="middle" x="99" y="-175.5" font-family="Helvetica,sans-Serif" font-size="10.00">v8&#45;maybe.h</text>
</a>
</g>
</g>
<!-- Node10&#45;&gt;Node11 -->
<g id="edge13" class="edge">
<title>Node10&#45;&gt;Node11</title>
<path fill="none" stroke="midnightblue" d="M343.77,-336.73C296.47,-323.38 207.25,-293.45 146,-244 129.8,-230.92 116.49,-210.95 108.22,-196.6"/>
<polygon fill="midnightblue" stroke="midnightblue" points="111.22,-194.78 103.33,-187.71 105.09,-198.16 111.22,-194.78"/>
</g>
<!-- Node12 -->
<g id="node12" class="node">
<title>Node12</title>
<g id="a_node12"><a xlink:href="v8-persistent-handle_8h.html" target="_top" xlink:title=" ">
<polygon fill="white" stroke="black" points="232,-168.5 232,-187.5 344,-187.5 344,-168.5 232,-168.5"/>
<text text-anchor="middle" x="288" y="-175.5" font-family="Helvetica,sans-Serif" font-size="10.00">v8&#45;persistent&#45;handle.h</text>
</a>
</g>
</g>
<!-- Node10&#45;&gt;Node12 -->
<g id="edge16" class="edge">
<title>Node10&#45;&gt;Node12</title>
<path fill="none" stroke="midnightblue" d="M371.27,-336.08C357.3,-309.72 316.03,-231.88 297.36,-196.66"/>
<polygon fill="midnightblue" stroke="midnightblue" points="300.32,-194.76 292.54,-187.57 294.13,-198.04 300.32,-194.76"/>
</g>
<!-- Node14 -->
<g id="node14" class="node">
<title>Node14</title>
<g id="a_node14"><a xlink:href="v8-primitive_8h.html" target="_top" xlink:title=" ">
<polygon fill="white" stroke="black" points="408,-280.5 408,-299.5 482,-299.5 482,-280.5 408,-280.5"/>
<text text-anchor="middle" x="445" y="-287.5" font-family="Helvetica,sans-Serif" font-size="10.00">v8&#45;primitive.h</text>
</a>
</g>
</g>
<!-- Node10&#45;&gt;Node14 -->
<g id="edge22" class="edge">
<title>Node10&#45;&gt;Node14</title>
<path fill="none" stroke="midnightblue" d="M387.09,-336.32C397.49,-328.18 413.26,-315.84 425.72,-306.09"/>
<polygon fill="midnightblue" stroke="midnightblue" points="427.99,-308.75 433.71,-299.83 423.68,-303.24 427.99,-308.75"/>
</g>
<!-- Node16 -->
<g id="node16" class="node">
<title>Node16</title>
<g id="a_node16"><a xlink:href="v8-value_8h.html" target="_top" xlink:title=" ">
<polygon fill="white" stroke="black" points="345.5,-224.5 345.5,-243.5 406.5,-243.5 406.5,-224.5 345.5,-224.5"/>
<text text-anchor="middle" x="376" y="-231.5" font-family="Helvetica,sans-Serif" font-size="10.00">v8&#45;value.h</text>
</a>
</g>
</g>
<!-- Node10&#45;&gt;Node16 -->
<g id="edge47" class="edge">
<title>Node10&#45;&gt;Node16</title>
<path fill="none" stroke="midnightblue" d="M376,-336.37C376,-318.62 376,-277.67 376,-253.6"/>
<polygon fill="midnightblue" stroke="midnightblue" points="379.5,-253.59 376,-243.59 372.5,-253.59 379.5,-253.59"/>
</g>
<!-- Node17 -->
<g id="node17" class="node">
<title>Node17</title>
<g id="a_node17"><a xlink:href="v8-traced-handle_8h.html" target="_top" xlink:title=" ">
<polygon fill="white" stroke="black" points="742,-168.5 742,-187.5 838,-187.5 838,-168.5 742,-168.5"/>
<text text-anchor="middle" x="790" y="-175.5" font-family="Helvetica,sans-Serif" font-size="10.00">v8&#45;traced&#45;handle.h</text>
</a>
</g>
</g>
<!-- Node10&#45;&gt;Node17 -->
<g id="edge35" class="edge">
<title>Node10&#45;&gt;Node17</title>
<path fill="none" stroke="midnightblue" d="M408.1,-343.02C454.63,-339.25 542.83,-328.65 612,-300 677,-273.07 742.68,-220.3 772.88,-194.26"/>
<polygon fill="midnightblue" stroke="midnightblue" points="775.19,-196.89 780.42,-187.67 770.59,-191.62 775.19,-196.89"/>
</g>
<!-- Node11&#45;&gt;Node5 -->
<g id="edge14" class="edge">
<title>Node11&#45;&gt;Node5</title>
<path fill="none" stroke="midnightblue" d="M118.35,-168.47C150.61,-154.59 217.71,-127.14 277,-112 365.24,-89.47 471.24,-76.77 530.06,-70.96"/>
<polygon fill="midnightblue" stroke="midnightblue" points="530.52,-74.43 540.14,-69.98 529.85,-67.46 530.52,-74.43"/>
</g>
<!-- Node11&#45;&gt;Node9 -->
<g id="edge15" class="edge">
<title>Node11&#45;&gt;Node9</title>
<path fill="none" stroke="midnightblue" d="M100.09,-168.45C103.17,-147.28 113.63,-91.54 142,-56 152.9,-42.34 169.15,-31.61 183.34,-24.06"/>
<polygon fill="midnightblue" stroke="midnightblue" points="184.94,-27.18 192.3,-19.56 181.79,-20.92 184.94,-27.18"/>
</g>
<!-- Node12&#45;&gt;Node2 -->
<g id="edge18" class="edge">
<title>Node12&#45;&gt;Node2</title>
<path fill="none" stroke="midnightblue" d="M336.65,-168.44C391.99,-158.71 482.17,-142.85 540.02,-132.67"/>
<polygon fill="midnightblue" stroke="midnightblue" points="540.84,-136.08 550.08,-130.9 539.62,-129.19 540.84,-136.08"/>
</g>
<!-- Node12&#45;&gt;Node5 -->
<g id="edge17" class="edge">
<title>Node12&#45;&gt;Node5</title>
<path fill="none" stroke="midnightblue" d="M284.96,-168.19C280.82,-154.4 275.38,-127.68 289,-112 319.74,-76.6 457.59,-68.9 530.09,-67.32"/>
<polygon fill="midnightblue" stroke="midnightblue" points="530.36,-70.82 540.29,-67.13 530.23,-63.82 530.36,-70.82"/>
</g>
<!-- Node12&#45;&gt;Node9 -->
<g id="edge21" class="edge">
<title>Node12&#45;&gt;Node9</title>
<path fill="none" stroke="midnightblue" d="M283.97,-168.08C272.11,-141.83 237.19,-64.55 221.19,-29.12"/>
<polygon fill="midnightblue" stroke="midnightblue" points="224.18,-27.24 216.87,-19.57 217.8,-30.12 224.18,-27.24"/>
</g>
<!-- Node13 -->
<g id="node13" class="node">
<title>Node13</title>
<g id="a_node13"><a xlink:href="v8-weak-callback-info_8h.html" target="_top" xlink:title=" ">
<polygon fill="white" stroke="black" points="298.5,-112.5 298.5,-131.5 417.5,-131.5 417.5,-112.5 298.5,-112.5"/>
<text text-anchor="middle" x="358" y="-119.5" font-family="Helvetica,sans-Serif" font-size="10.00">v8&#45;weak&#45;callback&#45;info.h</text>
</a>
</g>
</g>
<!-- Node12&#45;&gt;Node13 -->
<g id="edge19" class="edge">
<title>Node12&#45;&gt;Node13</title>
<path fill="none" stroke="midnightblue" d="M299.25,-168.32C309.8,-160.18 325.8,-147.84 338.44,-138.09"/>
<polygon fill="midnightblue" stroke="midnightblue" points="340.77,-140.71 346.55,-131.83 336.49,-135.17 340.77,-140.71"/>
</g>
<!-- Node13&#45;&gt;Node9 -->
<g id="edge20" class="edge">
<title>Node13&#45;&gt;Node9</title>
<path fill="none" stroke="midnightblue" d="M346.62,-112.37C321.95,-93.65 263.29,-49.15 232.55,-25.83"/>
<polygon fill="midnightblue" stroke="midnightblue" points="234.41,-22.85 224.33,-19.59 230.18,-28.42 234.41,-22.85"/>
</g>
<!-- Node14&#45;&gt;Node2 -->
<g id="edge27" class="edge">
<title>Node14&#45;&gt;Node2</title>
<path fill="none" stroke="midnightblue" d="M473.4,-280.43C493.02,-273.31 518.6,-261.5 536,-244 565.42,-214.42 582.5,-167.26 590.14,-141.42"/>
<polygon fill="midnightblue" stroke="midnightblue" points="593.52,-142.34 592.85,-131.76 586.78,-140.45 593.52,-142.34"/>
</g>
<!-- Node14&#45;&gt;Node5 -->
<g id="edge26" class="edge">
<title>Node14&#45;&gt;Node5</title>
<path fill="none" stroke="midnightblue" d="M450.13,-280.45C460.46,-263.16 484.36,-222.74 503,-188 520.86,-154.72 521.09,-144.09 541,-112 547.13,-102.12 554.89,-91.72 561.45,-83.41"/>
<polygon fill="midnightblue" stroke="midnightblue" points="564.18,-85.6 567.73,-75.62 558.73,-81.21 564.18,-85.6"/>
</g>
<!-- Node14&#45;&gt;Node9 -->
<g id="edge34" class="edge">
<title>Node14&#45;&gt;Node9</title>
<path fill="none" stroke="midnightblue" d="M407.62,-284.03C354.52,-274.91 258.05,-250.34 207,-188 169.7,-142.45 184.91,-113.82 196,-56 197.77,-46.77 201.27,-36.97 204.63,-28.87"/>
<polygon fill="midnightblue" stroke="midnightblue" points="207.84,-30.26 208.68,-19.7 201.44,-27.43 207.84,-30.26"/>
</g>
<!-- Node15 -->
<g id="node15" class="node">
<title>Node15</title>
<g id="a_node15"><a xlink:href="v8-data_8h.html" target="_top" xlink:title=" ">
<polygon fill="white" stroke="black" points="438,-168.5 438,-187.5 494,-187.5 494,-168.5 438,-168.5"/>
<text text-anchor="middle" x="466" y="-175.5" font-family="Helvetica,sans-Serif" font-size="10.00">v8&#45;data.h</text>
</a>
</g>
</g>
<!-- Node14&#45;&gt;Node15 -->
<g id="edge23" class="edge">
<title>Node14&#45;&gt;Node15</title>
<path fill="none" stroke="midnightblue" d="M446.65,-280.37C450.04,-262.62 457.85,-221.67 462.45,-197.6"/>
<polygon fill="midnightblue" stroke="midnightblue" points="465.92,-198.07 464.36,-187.59 459.05,-196.76 465.92,-198.07"/>
</g>
<!-- Node14&#45;&gt;Node16 -->
<g id="edge28" class="edge">
<title>Node14&#45;&gt;Node16</title>
<path fill="none" stroke="midnightblue" d="M433.91,-280.32C423.51,-272.18 407.74,-259.84 395.28,-250.09"/>
<polygon fill="midnightblue" stroke="midnightblue" points="397.32,-247.24 387.29,-243.83 393.01,-252.75 397.32,-247.24"/>
</g>
<!-- Node15&#45;&gt;Node2 -->
<g id="edge24" class="edge">
<title>Node15&#45;&gt;Node2</title>
<path fill="none" stroke="midnightblue" d="M486.44,-168.44C507.67,-159.56 541.1,-145.56 565.25,-135.45"/>
<polygon fill="midnightblue" stroke="midnightblue" points="566.78,-138.61 574.66,-131.52 564.08,-132.15 566.78,-138.61"/>
</g>
<!-- Node15&#45;&gt;Node9 -->
<g id="edge25" class="edge">
<title>Node15&#45;&gt;Node9</title>
<path fill="none" stroke="midnightblue" d="M462.6,-168.33C456.87,-154.73 444.15,-128.28 426,-112 374.76,-66.06 298.93,-36.89 252.92,-22.29"/>
<polygon fill="midnightblue" stroke="midnightblue" points="253.89,-18.92 243.3,-19.3 251.82,-25.61 253.89,-18.92"/>
</g>
<!-- Node16&#45;&gt;Node2 -->
<g id="edge31" class="edge">
<title>Node16&#45;&gt;Node2</title>
<path fill="none" stroke="midnightblue" d="M380.63,-224.39C388.6,-210.38 406.28,-182.75 429,-168 462.37,-146.34 505.96,-135.04 540.1,-129.18"/>
<polygon fill="midnightblue" stroke="midnightblue" points="541.05,-132.57 550.37,-127.53 539.94,-125.66 541.05,-132.57"/>
</g>
<!-- Node16&#45;&gt;Node5 -->
<g id="edge30" class="edge">
<title>Node16&#45;&gt;Node5</title>
<path fill="none" stroke="midnightblue" d="M377.7,-224.49C380.74,-211.11 388.23,-184.95 403,-168 441.01,-124.38 502.66,-94.68 540.91,-79.31"/>
<polygon fill="midnightblue" stroke="midnightblue" points="542.53,-82.43 550.57,-75.53 539.98,-75.91 542.53,-82.43"/>
</g>
<!-- Node16&#45;&gt;Node9 -->
<g id="edge33" class="edge">
<title>Node16&#45;&gt;Node9</title>
<path fill="none" stroke="midnightblue" d="M345.39,-233.65C309.78,-232.57 252.16,-224.77 223,-188 186.07,-141.44 199.16,-64.41 207.83,-29.37"/>
<polygon fill="midnightblue" stroke="midnightblue" points="211.25,-30.12 210.41,-19.56 204.48,-28.34 211.25,-30.12"/>
</g>
<!-- Node16&#45;&gt;Node11 -->
<g id="edge32" class="edge">
<title>Node16&#45;&gt;Node11</title>
<path fill="none" stroke="midnightblue" d="M345.3,-227.01C295.97,-217.4 198.89,-198.47 142.46,-187.47"/>
<polygon fill="midnightblue" stroke="midnightblue" points="142.91,-183.99 132.42,-185.52 141.57,-190.86 142.91,-183.99"/>
</g>
<!-- Node16&#45;&gt;Node15 -->
<g id="edge29" class="edge">
<title>Node16&#45;&gt;Node15</title>
<path fill="none" stroke="midnightblue" d="M390.46,-224.32C404.5,-215.9 426.05,-202.97 442.54,-193.07"/>
<polygon fill="midnightblue" stroke="midnightblue" points="444.8,-195.8 451.58,-187.65 441.2,-189.8 444.8,-195.8"/>
</g>
<!-- Node17&#45;&gt;Node2 -->
<g id="edge44" class="edge">
<title>Node17&#45;&gt;Node2</title>
<path fill="none" stroke="midnightblue" d="M759.1,-168.44C725.73,-159.2 672.41,-144.44 635.65,-134.26"/>
<polygon fill="midnightblue" stroke="midnightblue" points="636.33,-130.81 625.75,-131.52 634.46,-137.56 636.33,-130.81"/>
</g>
<!-- Node17&#45;&gt;Node3 -->
<g id="edge36" class="edge">
<title>Node17&#45;&gt;Node3</title>
<path fill="none" stroke="midnightblue" d="M838.15,-176.8C905.3,-174.69 1015.03,-163.55 979,-112 964.65,-91.47 809.96,-43.02 738.64,-21.55"/>
<polygon fill="midnightblue" stroke="midnightblue" points="739.33,-18.11 728.75,-18.59 737.32,-24.81 739.33,-18.11"/>
</g>
<!-- Node17&#45;&gt;Node4 -->
<g id="edge41" class="edge">
<title>Node17&#45;&gt;Node4</title>
<path fill="none" stroke="midnightblue" d="M838.01,-175.1C901.39,-171.46 1007.83,-161.08 1032,-132 1053.59,-106.02 1052.92,-82.52 1032,-56 1014.1,-33.31 935.18,-20.78 885.45,-15.01"/>
<polygon fill="midnightblue" stroke="midnightblue" points="885.64,-11.51 875.32,-13.88 884.87,-18.47 885.64,-11.51"/>
</g>
<!-- Node17&#45;&gt;Node5 -->
<g id="edge43" class="edge">
<title>Node17&#45;&gt;Node5</title>
<path fill="none" stroke="midnightblue" d="M770.27,-168.47C750.32,-159.73 718.72,-145.53 692,-132 659.02,-115.3 621.85,-94.25 598.43,-80.71"/>
<polygon fill="midnightblue" stroke="midnightblue" points="599.99,-77.57 589.58,-75.58 596.47,-83.62 599.99,-77.57"/>
</g>
<!-- Node17&#45;&gt;Node6 -->
<g id="edge37" class="edge">
<title>Node17&#45;&gt;Node6</title>
<path fill="none" stroke="midnightblue" d="M838.09,-174.18C896.65,-169.63 990.47,-158.33 1012,-132 1033.38,-105.85 1033.75,-81.84 1012,-56 983.5,-22.15 864.42,-29.19 805.09,-19.74"/>
<polygon fill="midnightblue" stroke="midnightblue" points="805.56,-16.27 795.08,-17.85 804.26,-23.15 805.56,-16.27"/>
</g>
<!-- Node17&#45;&gt;Node9 -->
<g id="edge46" class="edge">
<title>Node17&#45;&gt;Node9</title>
<path fill="none" stroke="midnightblue" d="M777.5,-168.43C764.38,-159.43 743.18,-144.81 725,-132 677.61,-98.61 673.13,-76.76 619,-56 552.83,-30.62 342.49,-17.44 253.44,-12.88"/>
<polygon fill="midnightblue" stroke="midnightblue" points="253.37,-9.37 243.2,-12.37 253.02,-16.36 253.37,-9.37"/>
</g>
<!-- Node17&#45;&gt;Node13 -->
<g id="edge45" class="edge">
<title>Node17&#45;&gt;Node13</title>
<path fill="none" stroke="midnightblue" d="M741.7,-170.96C665.25,-161.41 516,-142.75 427.87,-131.73"/>
<polygon fill="midnightblue" stroke="midnightblue" points="428.05,-128.23 417.7,-130.46 427.19,-135.18 428.05,-128.23"/>
</g>
<!-- Node18 -->
<g id="node18" class="node">
<title>Node18</title>
<g id="a_node18"><a xlink:title=" ">
<polygon fill="white" stroke="#bfbfbf" points="924.5,-112.5 924.5,-131.5 969.5,-131.5 969.5,-112.5 924.5,-112.5"/>
<text text-anchor="middle" x="947" y="-119.5" font-family="Helvetica,sans-Serif" font-size="10.00">stdio.h</text>
</a>
</g>
</g>
<!-- Node17&#45;&gt;Node18 -->
<g id="edge38" class="edge">
<title>Node17&#45;&gt;Node18</title>
<path fill="none" stroke="midnightblue" d="M814.88,-168.44C841.91,-159.15 885.2,-144.26 914.8,-134.07"/>
<polygon fill="midnightblue" stroke="midnightblue" points="915.96,-137.38 924.28,-130.82 913.68,-130.76 915.96,-137.38"/>
</g>
<!-- Node19 -->
<g id="node19" class="node">
<title>Node19</title>
<g id="a_node19"><a xlink:title=" ">
<polygon fill="white" stroke="#bfbfbf" points="734,-112.5 734,-131.5 780,-131.5 780,-112.5 734,-112.5"/>
<text text-anchor="middle" x="757" y="-119.5" font-family="Helvetica,sans-Serif" font-size="10.00">atomic</text>
</a>
</g>
</g>
<!-- Node17&#45;&gt;Node19 -->
<g id="edge39" class="edge">
<title>Node17&#45;&gt;Node19</title>
<path fill="none" stroke="midnightblue" d="M784.55,-168.08C779.99,-160.61 773.33,-149.72 767.71,-140.52"/>
<polygon fill="midnightblue" stroke="midnightblue" points="770.55,-138.46 762.35,-131.75 764.58,-142.11 770.55,-138.46"/>
</g>
<!-- Node20 -->
<g id="node20" class="node">
<title>Node20</title>
<g id="a_node20"><a xlink:title=" ">
<polygon fill="white" stroke="#bfbfbf" points="798.5,-112.5 798.5,-131.5 849.5,-131.5 849.5,-112.5 798.5,-112.5"/>
<text text-anchor="middle" x="824" y="-119.5" font-family="Helvetica,sans-Serif" font-size="10.00">memory</text>
</a>
</g>
</g>
<!-- Node17&#45;&gt;Node20 -->
<g id="edge40" class="edge">
<title>Node17&#45;&gt;Node20</title>
<path fill="none" stroke="midnightblue" d="M795.61,-168.08C800.37,-160.53 807.32,-149.49 813.15,-140.23"/>
<polygon fill="midnightblue" stroke="midnightblue" points="816.12,-142.08 818.49,-131.75 810.2,-138.35 816.12,-142.08"/>
</g>
<!-- Node21 -->
<g id="node21" class="node">
<title>Node21</title>
<g id="a_node21"><a xlink:title=" ">
<polygon fill="white" stroke="#bfbfbf" points="867.5,-112.5 867.5,-131.5 906.5,-131.5 906.5,-112.5 867.5,-112.5"/>
<text text-anchor="middle" x="887" y="-119.5" font-family="Helvetica,sans-Serif" font-size="10.00">utility</text>
</a>
</g>
</g>
<!-- Node17&#45;&gt;Node21 -->
<g id="edge42" class="edge">
<title>Node17&#45;&gt;Node21</title>
<path fill="none" stroke="midnightblue" d="M805.58,-168.32C821,-159.74 844.81,-146.49 862.71,-136.52"/>
<polygon fill="midnightblue" stroke="midnightblue" points="864.42,-139.58 871.45,-131.65 861.01,-133.46 864.42,-139.58"/>
</g>
</g>
</svg>
