<?xml version="1.0" encoding="UTF-8" standalone="no"?>
<!DOCTYPE svg PUBLIC "-//W3C//DTD SVG 1.1//EN"
 "http://www.w3.org/Graphics/SVG/1.1/DTD/svg11.dtd">
<!-- Generated by graphviz version 2.49.3 (20211027.1534)
 -->
<!-- Title: include/v8&#45;data.h Pages: 1 -->
<svg width="2168pt" height="531pt"
 viewBox="0.00 0.00 2167.50 531.00" xmlns="http://www.w3.org/2000/svg" xmlns:xlink="http://www.w3.org/1999/xlink">
<g id="graph0" class="graph" transform="scale(1 1) rotate(0) translate(4 527)">
<title>include/v8&#45;data.h</title>
<polygon fill="white" stroke="transparent" points="-4,4 -4,-527 2163.5,-527 2163.5,4 -4,4"/>
<!-- Node1 -->
<g id="node1" class="node">
<title>Node1</title>
<g id="a_node1"><a xlink:title=" ">
<polygon fill="#bfbfbf" stroke="black" points="714.5,-503.5 714.5,-522.5 804.5,-522.5 804.5,-503.5 714.5,-503.5"/>
<text text-anchor="middle" x="759.5" y="-510.5" font-family="Helvetica,sans-Serif" font-size="10.00">include/v8&#45;data.h</text>
</a>
</g>
</g>
<!-- Node2 -->
<g id="node2" class="node">
<title>Node2</title>
<g id="a_node2"><a xlink:href="v8-callbacks_8h.html" target="_top" xlink:title=" ">
<polygon fill="white" stroke="black" points="296,-201.5 296,-220.5 409,-220.5 409,-201.5 296,-201.5"/>
<text text-anchor="middle" x="352.5" y="-208.5" font-family="Helvetica,sans-Serif" font-size="10.00">include/v8&#45;callbacks.h</text>
</a>
</g>
</g>
<!-- Node1&#45;&gt;Node2 -->
<g id="edge1" class="edge">
<title>Node1&#45;&gt;Node2</title>
<path fill="none" stroke="midnightblue" d="M704.25,-509.79C621.42,-505.61 469.82,-494.39 423.5,-467 392.59,-448.72 375.5,-437.91 375.5,-402 375.5,-402 375.5,-402 375.5,-338.5 375.5,-293.63 361.32,-241.24 355.23,-220.8"/>
<polygon fill="midnightblue" stroke="midnightblue" points="704.09,-513.28 714.25,-510.27 704.43,-506.29 704.09,-513.28"/>
</g>
<!-- Node4 -->
<g id="node4" class="node">
<title>Node4</title>
<g id="a_node4"><a xlink:href="v8_8h.html" target="_top" xlink:title=" ">
<polygon fill="white" stroke="black" points="1215.5,-6 1215.5,-25 1283.5,-25 1283.5,-6 1215.5,-6"/>
<text text-anchor="middle" x="1249.5" y="-13" font-family="Helvetica,sans-Serif" font-size="10.00">include/v8.h</text>
</a>
</g>
</g>
<!-- Node1&#45;&gt;Node4 -->
<g id="edge75" class="edge">
<title>Node1&#45;&gt;Node4</title>
<path fill="none" stroke="midnightblue" d="M814.84,-511.17C1012.58,-508.01 1683.69,-495.38 1896.5,-467 2015.85,-451.08 2159.5,-522.41 2159.5,-402 2159.5,-402 2159.5,-402 2159.5,-148.5 2159.5,-82.92 2098.65,-87.92 2036.5,-67 1893.92,-19.02 1416.22,-16.2 1283.8,-16.36"/>
<polygon fill="midnightblue" stroke="midnightblue" points="814.63,-507.68 804.69,-511.33 814.74,-514.68 814.63,-507.68"/>
</g>
<!-- Node5 -->
<g id="node5" class="node">
<title>Node5</title>
<g id="a_node5"><a xlink:href="v8-isolate_8h.html" target="_top" xlink:title=" ">
<polygon fill="white" stroke="black" points="428.5,-140 428.5,-159 528.5,-159 528.5,-140 428.5,-140"/>
<text text-anchor="middle" x="478.5" y="-147" font-family="Helvetica,sans-Serif" font-size="10.00">include/v8&#45;isolate.h</text>
</a>
</g>
</g>
<!-- Node1&#45;&gt;Node5 -->
<g id="edge17" class="edge">
<title>Node1&#45;&gt;Node5</title>
<path fill="none" stroke="midnightblue" d="M704.41,-504.74C612.41,-491.06 437.5,-457.73 437.5,-402 437.5,-402 437.5,-402 437.5,-271.5 437.5,-227.36 462.27,-178.73 473.31,-159.26"/>
<polygon fill="midnightblue" stroke="midnightblue" points="703.99,-508.22 714.39,-506.2 705,-501.29 703.99,-508.22"/>
</g>
<!-- Node8 -->
<g id="node8" class="node">
<title>Node8</title>
<g id="a_node8"><a xlink:href="v8-context_8h.html" target="_top" xlink:title=" ">
<polygon fill="white" stroke="black" points="220,-330 220,-349 323,-349 323,-330 220,-330"/>
<text text-anchor="middle" x="271.5" y="-337" font-family="Helvetica,sans-Serif" font-size="10.00">include/v8&#45;context.h</text>
</a>
</g>
</g>
<!-- Node1&#45;&gt;Node8 -->
<g id="edge9" class="edge">
<title>Node1&#45;&gt;Node8</title>
<path fill="none" stroke="midnightblue" d="M704.15,-511.23C608.77,-509.02 418.22,-500.42 361.5,-467 313.2,-438.54 283.97,-372.82 274.71,-349.17"/>
<polygon fill="midnightblue" stroke="midnightblue" points="704.11,-514.73 714.18,-511.45 704.26,-507.74 704.11,-514.73"/>
</g>
<!-- Node12 -->
<g id="node12" class="node">
<title>Node12</title>
<g id="a_node12"><a xlink:href="v8-primitive_8h.html" target="_top" xlink:title=" ">
<polygon fill="white" stroke="black" points="836.5,-391.5 836.5,-410.5 944.5,-410.5 944.5,-391.5 836.5,-391.5"/>
<text text-anchor="middle" x="890.5" y="-398.5" font-family="Helvetica,sans-Serif" font-size="10.00">include/v8&#45;primitive.h</text>
</a>
</g>
</g>
<!-- Node1&#45;&gt;Node12 -->
<g id="edge18" class="edge">
<title>Node1&#45;&gt;Node12</title>
<path fill="none" stroke="midnightblue" d="M777.58,-496.82C805.48,-473.39 858.12,-429.19 880.27,-410.59"/>
<polygon fill="midnightblue" stroke="midnightblue" points="775.19,-494.26 769.78,-503.37 779.69,-499.62 775.19,-494.26"/>
</g>
<!-- Node16 -->
<g id="node16" class="node">
<title>Node16</title>
<g id="a_node16"><a xlink:href="v8-template_8h.html" target="_top" xlink:title=" ">
<polygon fill="white" stroke="black" points="984,-263 984,-282 1093,-282 1093,-263 984,-263"/>
<text text-anchor="middle" x="1038.5" y="-270" font-family="Helvetica,sans-Serif" font-size="10.00">include/v8&#45;template.h</text>
</a>
</g>
</g>
<!-- Node1&#45;&gt;Node16 -->
<g id="edge67" class="edge">
<title>Node1&#45;&gt;Node16</title>
<path fill="none" stroke="midnightblue" d="M795.23,-500.05C837.03,-484.69 906.5,-454.66 953.5,-411 996.06,-371.46 1025.37,-305.96 1035.03,-282.34"/>
<polygon fill="midnightblue" stroke="midnightblue" points="793.96,-496.79 785.74,-503.47 796.33,-503.38 793.96,-496.79"/>
</g>
<!-- Node20 -->
<g id="node20" class="node">
<title>Node20</title>
<g id="a_node20"><a xlink:href="v8-script_8h.html" target="_top" xlink:title=" ">
<polygon fill="white" stroke="black" points="542,-263 542,-282 637,-282 637,-263 542,-263"/>
<text text-anchor="middle" x="589.5" y="-270" font-family="Helvetica,sans-Serif" font-size="10.00">include/v8&#45;script.h</text>
</a>
</g>
</g>
<!-- Node1&#45;&gt;Node20 -->
<g id="edge66" class="edge">
<title>Node1&#45;&gt;Node20</title>
<path fill="none" stroke="midnightblue" d="M747.37,-494.98C713.78,-447.86 620.45,-316.92 595.63,-282.1"/>
<polygon fill="midnightblue" stroke="midnightblue" points="744.59,-497.12 753.25,-503.23 750.29,-493.05 744.59,-497.12"/>
</g>
<!-- Node33 -->
<g id="node33" class="node">
<title>Node33</title>
<g id="a_node33"><a xlink:href="v8-value_8h.html" target="_top" xlink:title=" ">
<polygon fill="white" stroke="black" points="1792,-447.5 1792,-466.5 1887,-466.5 1887,-447.5 1792,-447.5"/>
<text text-anchor="middle" x="1839.5" y="-454.5" font-family="Helvetica,sans-Serif" font-size="10.00">include/v8&#45;value.h</text>
</a>
</g>
</g>
<!-- Node1&#45;&gt;Node33 -->
<g id="edge68" class="edge">
<title>Node1&#45;&gt;Node33</title>
<path fill="none" stroke="midnightblue" d="M814.73,-509.24C1002.73,-499.84 1615.82,-469.18 1791.85,-460.38"/>
<polygon fill="midnightblue" stroke="midnightblue" points="814.34,-505.75 804.53,-509.75 814.69,-512.74 814.34,-505.75"/>
</g>
<!-- Node3 -->
<g id="node3" class="node">
<title>Node3</title>
<g id="a_node3"><a xlink:href="v8-initialization_8h.html" target="_top" xlink:title=" ">
<polygon fill="white" stroke="black" points="417.5,-73 417.5,-92 539.5,-92 539.5,-73 417.5,-73"/>
<text text-anchor="middle" x="478.5" y="-80" font-family="Helvetica,sans-Serif" font-size="10.00">include/v8&#45;initialization.h</text>
</a>
</g>
</g>
<!-- Node2&#45;&gt;Node3 -->
<g id="edge2" class="edge">
<title>Node2&#45;&gt;Node3</title>
<path fill="none" stroke="midnightblue" d="M366,-193.37C379.1,-177.56 399.84,-153.38 419.5,-134 435.44,-118.29 455.52,-101.72 467.66,-92.01"/>
<polygon fill="midnightblue" stroke="midnightblue" points="363.2,-191.26 359.56,-201.21 368.61,-195.7 363.2,-191.26"/>
</g>
<!-- Node2&#45;&gt;Node5 -->
<g id="edge4" class="edge">
<title>Node2&#45;&gt;Node5</title>
<path fill="none" stroke="midnightblue" d="M379.66,-197.17C404.11,-185.63 439.35,-168.99 460.48,-159.01"/>
<polygon fill="midnightblue" stroke="midnightblue" points="378.1,-194.04 370.55,-201.48 381.09,-200.37 378.1,-194.04"/>
</g>
<!-- Node3&#45;&gt;Node4 -->
<g id="edge3" class="edge">
<title>Node3&#45;&gt;Node4</title>
<path fill="none" stroke="midnightblue" d="M530.24,-71.17C539.3,-69.6 548.66,-68.13 557.5,-67 808.72,-34.88 1114.06,-21.45 1215.17,-17.68"/>
<polygon fill="midnightblue" stroke="midnightblue" points="529.41,-67.76 520.19,-72.97 530.65,-74.65 529.41,-67.76"/>
</g>
<!-- Node5&#45;&gt;Node3 -->
<g id="edge5" class="edge">
<title>Node5&#45;&gt;Node3</title>
<path fill="none" stroke="midnightblue" d="M478.5,-129.54C478.5,-117.17 478.5,-101.62 478.5,-92.13"/>
<polygon fill="midnightblue" stroke="midnightblue" points="475,-129.73 478.5,-139.73 482,-129.73 475,-129.73"/>
</g>
<!-- Node5&#45;&gt;Node4 -->
<g id="edge8" class="edge">
<title>Node5&#45;&gt;Node4</title>
<path fill="none" stroke="midnightblue" d="M498.96,-133.97C529.39,-112.66 585.46,-74.62 608.5,-67 722.83,-29.2 1099.73,-19.25 1215.42,-17.05"/>
<polygon fill="midnightblue" stroke="midnightblue" points="496.56,-131.38 490.4,-139.99 500.59,-137.1 496.56,-131.38"/>
</g>
<!-- Node6 -->
<g id="node6" class="node">
<title>Node6</title>
<g id="a_node6"><a xlink:href="v8-inspector_8h.html" target="_top" xlink:title=" ">
<polygon fill="white" stroke="black" points="0,-73 0,-92 111,-92 111,-73 0,-73"/>
<text text-anchor="middle" x="55.5" y="-80" font-family="Helvetica,sans-Serif" font-size="10.00">include/v8&#45;inspector.h</text>
</a>
</g>
</g>
<!-- Node5&#45;&gt;Node6 -->
<g id="edge6" class="edge">
<title>Node5&#45;&gt;Node6</title>
<path fill="none" stroke="midnightblue" d="M418.39,-139.26C336.37,-126.66 190.51,-104.25 110.98,-92.02"/>
<polygon fill="midnightblue" stroke="midnightblue" points="417.9,-142.73 428.32,-140.79 418.96,-135.81 417.9,-142.73"/>
</g>
<!-- Node7 -->
<g id="node7" class="node">
<title>Node7</title>
<g id="a_node7"><a xlink:href="v8-inspector-protocol_8h.html" target="_top" xlink:title=" ">
<polygon fill="white" stroke="black" points="3.5,-0.5 3.5,-30.5 107.5,-30.5 107.5,-0.5 3.5,-0.5"/>
<text text-anchor="start" x="11.5" y="-18.5" font-family="Helvetica,sans-Serif" font-size="10.00">include/v8&#45;inspector</text>
<text text-anchor="middle" x="55.5" y="-7.5" font-family="Helvetica,sans-Serif" font-size="10.00">&#45;protocol.h</text>
</a>
</g>
</g>
<!-- Node6&#45;&gt;Node7 -->
<g id="edge7" class="edge">
<title>Node6&#45;&gt;Node7</title>
<path fill="none" stroke="midnightblue" d="M55.5,-62.41C55.5,-52.22 55.5,-39.9 55.5,-30.59"/>
<polygon fill="midnightblue" stroke="midnightblue" points="52,-62.73 55.5,-72.73 59,-62.73 52,-62.73"/>
</g>
<!-- Node8&#45;&gt;Node4 -->
<g id="edge16" class="edge">
<title>Node8&#45;&gt;Node4</title>
<path fill="none" stroke="midnightblue" d="M240.94,-325.55C201.95,-306.74 139.5,-267.89 139.5,-212 139.5,-212 139.5,-212 139.5,-148.5 139.5,-48.8 251.07,-88.16 348.5,-67 518.44,-30.08 1071.2,-19.22 1215.04,-16.98"/>
<polygon fill="midnightblue" stroke="midnightblue" points="239.75,-328.86 250.29,-329.9 242.7,-322.51 239.75,-328.86"/>
</g>
<!-- Node9 -->
<g id="node9" class="node">
<title>Node9</title>
<g id="a_node9"><a xlink:href="v8-embedder-state-scope_8h.html" target="_top" xlink:title=" ">
<polygon fill="white" stroke="black" points="193,-257.5 193,-287.5 300,-287.5 300,-257.5 193,-257.5"/>
<text text-anchor="start" x="201" y="-275.5" font-family="Helvetica,sans-Serif" font-size="10.00">include/v8&#45;embedder</text>
<text text-anchor="middle" x="246.5" y="-264.5" font-family="Helvetica,sans-Serif" font-size="10.00">&#45;state&#45;scope.h</text>
</a>
</g>
</g>
<!-- Node8&#45;&gt;Node9 -->
<g id="edge10" class="edge">
<title>Node8&#45;&gt;Node9</title>
<path fill="none" stroke="midnightblue" d="M264.53,-320.39C260.55,-310.02 255.62,-297.2 251.92,-287.59"/>
<polygon fill="midnightblue" stroke="midnightblue" points="261.27,-321.66 268.13,-329.73 267.81,-319.14 261.27,-321.66"/>
</g>
<!-- Node11 -->
<g id="node11" class="node">
<title>Node11</title>
<g id="a_node11"><a xlink:href="v8-proxy_8h.html" target="_top" xlink:title=" ">
<polygon fill="white" stroke="black" points="693.5,-263 693.5,-282 787.5,-282 787.5,-263 693.5,-263"/>
<text text-anchor="middle" x="740.5" y="-270" font-family="Helvetica,sans-Serif" font-size="10.00">include/v8&#45;proxy.h</text>
</a>
</g>
</g>
<!-- Node8&#45;&gt;Node11 -->
<g id="edge14" class="edge">
<title>Node8&#45;&gt;Node11</title>
<path fill="none" stroke="midnightblue" d="M333.23,-330.56C407.59,-320.9 536.28,-303.92 646.5,-288 661.7,-285.8 678.26,-283.29 693.19,-280.98"/>
<polygon fill="midnightblue" stroke="midnightblue" points="332.57,-327.11 323.1,-331.87 333.47,-334.05 332.57,-327.11"/>
</g>
<!-- Node10 -->
<g id="node10" class="node">
<title>Node10</title>
<g id="a_node10"><a xlink:href="v8-unwinder_8h.html" target="_top" xlink:title=" ">
<polygon fill="white" stroke="black" points="167.5,-201.5 167.5,-220.5 277.5,-220.5 277.5,-201.5 167.5,-201.5"/>
<text text-anchor="middle" x="222.5" y="-208.5" font-family="Helvetica,sans-Serif" font-size="10.00">include/v8&#45;unwinder.h</text>
</a>
</g>
</g>
<!-- Node9&#45;&gt;Node10 -->
<g id="edge11" class="edge">
<title>Node9&#45;&gt;Node10</title>
<path fill="none" stroke="midnightblue" d="M236.98,-247.9C233.11,-238.3 228.88,-227.81 225.99,-220.66"/>
<polygon fill="midnightblue" stroke="midnightblue" points="233.83,-249.43 240.81,-257.4 240.32,-246.82 233.83,-249.43"/>
</g>
<!-- Node10&#45;&gt;Node4 -->
<g id="edge13" class="edge">
<title>Node10&#45;&gt;Node4</title>
<path fill="none" stroke="midnightblue" d="M237.02,-193.66C265.99,-162.37 334.57,-94.64 408.5,-67 484.97,-38.42 1067.65,-21.28 1215.48,-17.36"/>
<polygon fill="midnightblue" stroke="midnightblue" points="234.07,-191.71 229.93,-201.46 239.24,-196.42 234.07,-191.71"/>
</g>
<!-- Node10&#45;&gt;Node5 -->
<g id="edge12" class="edge">
<title>Node10&#45;&gt;Node5</title>
<path fill="none" stroke="midnightblue" d="M269.03,-199.19C318.7,-187.64 396.39,-169.58 441.89,-159.01"/>
<polygon fill="midnightblue" stroke="midnightblue" points="268.13,-195.8 259.18,-201.48 269.71,-202.62 268.13,-195.8"/>
</g>
<!-- Node11&#45;&gt;Node4 -->
<g id="edge15" class="edge">
<title>Node11&#45;&gt;Node4</title>
<path fill="none" stroke="midnightblue" d="M750.15,-253.98C766.37,-225.78 801.5,-169.86 843.5,-134 954.97,-38.83 1139.67,-20.64 1215.46,-17.24"/>
<polygon fill="midnightblue" stroke="midnightblue" points="747.08,-252.29 745.22,-262.72 753.18,-255.73 747.08,-252.29"/>
</g>
<!-- Node12&#45;&gt;Node4 -->
<g id="edge65" class="edge">
<title>Node12&#45;&gt;Node4</title>
<path fill="none" stroke="midnightblue" d="M839.53,-388.97C769.15,-370.9 654.12,-329.53 684.5,-257 732.63,-142.12 776.54,-117.27 890.5,-67 948.45,-41.44 1137.15,-24.86 1215.21,-18.93"/>
<polygon fill="midnightblue" stroke="midnightblue" points="839.02,-392.45 849.57,-391.47 840.71,-385.66 839.02,-392.45"/>
</g>
<!-- Node12&#45;&gt;Node5 -->
<g id="edge29" class="edge">
<title>Node12&#45;&gt;Node5</title>
<path fill="none" stroke="midnightblue" d="M826.26,-392.48C777.49,-385.68 709.22,-373.8 651.5,-355 585.53,-333.51 556.01,-340.37 510.5,-288 477.06,-249.52 476.83,-182.8 477.93,-159.13"/>
<polygon fill="midnightblue" stroke="midnightblue" points="825.97,-395.97 836.35,-393.85 826.92,-389.03 825.97,-395.97"/>
</g>
<!-- Node13 -->
<g id="node13" class="node">
<title>Node13</title>
<g id="a_node13"><a xlink:href="v8-extension_8h.html" target="_top" xlink:title=" ">
<polygon fill="white" stroke="black" points="852,-140 852,-159 965,-159 965,-140 852,-140"/>
<text text-anchor="middle" x="908.5" y="-147" font-family="Helvetica,sans-Serif" font-size="10.00">include/v8&#45;extension.h</text>
</a>
</g>
</g>
<!-- Node12&#45;&gt;Node13 -->
<g id="edge19" class="edge">
<title>Node12&#45;&gt;Node13</title>
<path fill="none" stroke="midnightblue" d="M864.18,-386.05C852.84,-378.51 840.75,-368.05 834.5,-355 815.67,-315.72 821.48,-298.56 834.5,-257 847.49,-215.53 882.95,-176.06 899.62,-159.14"/>
<polygon fill="midnightblue" stroke="midnightblue" points="862.65,-389.21 873,-391.46 866.31,-383.25 862.65,-389.21"/>
</g>
<!-- Node14 -->
<g id="node14" class="node">
<title>Node14</title>
<g id="a_node14"><a xlink:href="v8-function-callback_8h.html" target="_top" xlink:title=" ">
<polygon fill="white" stroke="black" points="843.5,-324.5 843.5,-354.5 941.5,-354.5 941.5,-324.5 843.5,-324.5"/>
<text text-anchor="start" x="851.5" y="-342.5" font-family="Helvetica,sans-Serif" font-size="10.00">include/v8&#45;function</text>
<text text-anchor="middle" x="892.5" y="-331.5" font-family="Helvetica,sans-Serif" font-size="10.00">&#45;callback.h</text>
</a>
</g>
</g>
<!-- Node12&#45;&gt;Node14 -->
<g id="edge21" class="edge">
<title>Node12&#45;&gt;Node14</title>
<path fill="none" stroke="midnightblue" d="M891.13,-381.23C891.42,-372.59 891.76,-362.5 892.03,-354.52"/>
<polygon fill="midnightblue" stroke="midnightblue" points="887.62,-381.36 890.79,-391.48 894.62,-381.6 887.62,-381.36"/>
</g>
<!-- Node18 -->
<g id="node18" class="node">
<title>Node18</title>
<g id="a_node18"><a xlink:href="v8-message_8h.html" target="_top" xlink:title=" ">
<polygon fill="white" stroke="black" points="1066,-330 1066,-349 1177,-349 1177,-330 1066,-330"/>
<text text-anchor="middle" x="1121.5" y="-337" font-family="Helvetica,sans-Serif" font-size="10.00">include/v8&#45;message.h</text>
</a>
</g>
</g>
<!-- Node12&#45;&gt;Node18 -->
<g id="edge30" class="edge">
<title>Node12&#45;&gt;Node18</title>
<path fill="none" stroke="midnightblue" d="M933.33,-388.97C978.18,-377.41 1047.67,-359.52 1088.46,-349.01"/>
<polygon fill="midnightblue" stroke="midnightblue" points="932.41,-385.59 923.6,-391.48 934.15,-392.37 932.41,-385.59"/>
</g>
<!-- Node22 -->
<g id="node22" class="node">
<title>Node22</title>
<g id="a_node22"><a xlink:href="v8-object_8h.html" target="_top" xlink:title=" ">
<polygon fill="white" stroke="black" points="1466.5,-330 1466.5,-349 1564.5,-349 1564.5,-330 1466.5,-330"/>
<text text-anchor="middle" x="1515.5" y="-337" font-family="Helvetica,sans-Serif" font-size="10.00">include/v8&#45;object.h</text>
</a>
</g>
</g>
<!-- Node12&#45;&gt;Node22 -->
<g id="edge39" class="edge">
<title>Node12&#45;&gt;Node22</title>
<path fill="none" stroke="midnightblue" d="M954.81,-393.88C1080.11,-381.95 1354.45,-355.83 1466.43,-345.17"/>
<polygon fill="midnightblue" stroke="midnightblue" points="954.22,-390.42 944.6,-394.85 954.89,-397.39 954.22,-390.42"/>
</g>
<!-- Node13&#45;&gt;Node4 -->
<g id="edge20" class="edge">
<title>Node13&#45;&gt;Node4</title>
<path fill="none" stroke="midnightblue" d="M925.72,-133.24C947.45,-114.79 986.7,-84.1 1025.5,-67 1089.16,-38.95 1170.11,-25.67 1215.2,-20.07"/>
<polygon fill="midnightblue" stroke="midnightblue" points="923.31,-130.7 918.03,-139.88 927.89,-135.99 923.31,-130.7"/>
</g>
<!-- Node14&#45;&gt;Node5 -->
<g id="edge24" class="edge">
<title>Node14&#45;&gt;Node5</title>
<path fill="none" stroke="midnightblue" d="M833.26,-337.21C743.57,-334.12 578.92,-323.62 533.5,-288 511.85,-271.02 487.96,-186.35 480.71,-159.02"/>
<polygon fill="midnightblue" stroke="midnightblue" points="833.18,-340.71 843.29,-337.54 833.41,-333.72 833.18,-340.71"/>
</g>
<!-- Node15 -->
<g id="node15" class="node">
<title>Node15</title>
<g id="a_node15"><a xlink:href="v8-function_8h.html" target="_top" xlink:title=" ">
<polygon fill="white" stroke="black" points="1068.5,-201.5 1068.5,-220.5 1174.5,-220.5 1174.5,-201.5 1068.5,-201.5"/>
<text text-anchor="middle" x="1121.5" y="-208.5" font-family="Helvetica,sans-Serif" font-size="10.00">include/v8&#45;function.h</text>
</a>
</g>
</g>
<!-- Node14&#45;&gt;Node15 -->
<g id="edge22" class="edge">
<title>Node14&#45;&gt;Node15</title>
<path fill="none" stroke="midnightblue" d="M912.14,-317.03C931.91,-295.82 961.44,-265.38 975.5,-257 1006.03,-238.8 1044.6,-227.32 1074.43,-220.52"/>
<polygon fill="midnightblue" stroke="midnightblue" points="909.57,-314.65 905.34,-324.37 914.7,-319.41 909.57,-314.65"/>
</g>
<!-- Node14&#45;&gt;Node16 -->
<g id="edge25" class="edge">
<title>Node14&#45;&gt;Node16</title>
<path fill="none" stroke="midnightblue" d="M933.39,-320.3C961.55,-307.76 997.66,-291.68 1019.39,-282.01"/>
<polygon fill="midnightblue" stroke="midnightblue" points="931.89,-317.13 924.18,-324.4 934.74,-323.53 931.89,-317.13"/>
</g>
<!-- Node17 -->
<g id="node17" class="node">
<title>Node17</title>
<g id="a_node17"><a xlink:href="v8-util_8h.html" target="_top" xlink:title=" ">
<polygon fill="white" stroke="black" points="843.5,-263 843.5,-282 927.5,-282 927.5,-263 843.5,-263"/>
<text text-anchor="middle" x="885.5" y="-270" font-family="Helvetica,sans-Serif" font-size="10.00">include/v8&#45;util.h</text>
</a>
</g>
</g>
<!-- Node14&#45;&gt;Node17 -->
<g id="edge28" class="edge">
<title>Node14&#45;&gt;Node17</title>
<path fill="none" stroke="midnightblue" d="M889.89,-314.25C888.68,-303.02 887.32,-290.38 886.44,-282.19"/>
<polygon fill="midnightblue" stroke="midnightblue" points="886.43,-314.83 890.98,-324.4 893.39,-314.08 886.43,-314.83"/>
</g>
<!-- Node15&#45;&gt;Node4 -->
<g id="edge23" class="edge">
<title>Node15&#45;&gt;Node4</title>
<path fill="none" stroke="midnightblue" d="M1128.87,-192.04C1140.89,-163.87 1166.51,-108.26 1197.5,-67 1209.74,-50.7 1227.32,-34.81 1238.57,-25.33"/>
<polygon fill="midnightblue" stroke="midnightblue" points="1125.58,-190.83 1124.95,-201.4 1132.04,-193.53 1125.58,-190.83"/>
</g>
<!-- Node16&#45;&gt;Node4 -->
<g id="edge27" class="edge">
<title>Node16&#45;&gt;Node4</title>
<path fill="none" stroke="midnightblue" d="M1041.83,-252.9C1044.98,-238.19 1050.57,-217.46 1059.5,-201 1096.8,-132.28 1115.03,-118.92 1173.5,-67 1192.69,-49.96 1218.03,-34.26 1234.05,-25.03"/>
<polygon fill="midnightblue" stroke="midnightblue" points="1038.38,-252.32 1039.89,-262.81 1045.25,-253.67 1038.38,-252.32"/>
</g>
<!-- Node16&#45;&gt;Node15 -->
<g id="edge26" class="edge">
<title>Node16&#45;&gt;Node15</title>
<path fill="none" stroke="midnightblue" d="M1058.57,-257.11C1074.53,-245.67 1096.33,-230.05 1109.63,-220.51"/>
<polygon fill="midnightblue" stroke="midnightblue" points="1056.48,-254.3 1050.39,-262.98 1060.56,-259.99 1056.48,-254.3"/>
</g>
<!-- Node18&#45;&gt;Node4 -->
<g id="edge38" class="edge">
<title>Node18&#45;&gt;Node4</title>
<path fill="none" stroke="midnightblue" d="M1186.89,-330.77C1213.68,-324.02 1242.17,-311.43 1258.5,-288 1266.38,-276.7 1262.86,-270.07 1258.5,-257 1252.18,-238.03 1237.82,-239.97 1231.5,-221 1207.38,-148.64 1236.16,-54.35 1246.26,-25.36"/>
<polygon fill="midnightblue" stroke="midnightblue" points="1186.09,-327.36 1177.13,-333 1187.65,-334.18 1186.09,-327.36"/>
</g>
<!-- Node18&#45;&gt;Node15 -->
<g id="edge31" class="edge">
<title>Node18&#45;&gt;Node15</title>
<path fill="none" stroke="midnightblue" d="M1121.5,-319.44C1121.5,-291.62 1121.5,-241.04 1121.5,-220.76"/>
<polygon fill="midnightblue" stroke="midnightblue" points="1118,-319.81 1121.5,-329.81 1125,-319.81 1118,-319.81"/>
</g>
<!-- Node19 -->
<g id="node19" class="node">
<title>Node19</title>
<g id="a_node19"><a xlink:href="v8-profiler_8h.html" target="_top" xlink:title=" ">
<polygon fill="white" stroke="black" points="1149.5,-263 1149.5,-282 1249.5,-282 1249.5,-263 1149.5,-263"/>
<text text-anchor="middle" x="1199.5" y="-270" font-family="Helvetica,sans-Serif" font-size="10.00">include/v8&#45;profiler.h</text>
</a>
</g>
</g>
<!-- Node18&#45;&gt;Node19 -->
<g id="edge32" class="edge">
<title>Node18&#45;&gt;Node19</title>
<path fill="none" stroke="midnightblue" d="M1139.84,-323.21C1155.21,-310.41 1176.59,-292.59 1189.15,-282.13"/>
<polygon fill="midnightblue" stroke="midnightblue" points="1137.46,-320.64 1132.02,-329.73 1141.94,-326.02 1137.46,-320.64"/>
</g>
<!-- Node18&#45;&gt;Node20 -->
<g id="edge33" class="edge">
<title>Node18&#45;&gt;Node20</title>
<path fill="none" stroke="midnightblue" d="M1055.8,-331.66C970.21,-322.58 815.98,-305.62 684.5,-288 669.12,-285.94 652.38,-283.46 637.29,-281.14"/>
<polygon fill="midnightblue" stroke="midnightblue" points="1055.57,-335.16 1065.89,-332.73 1056.31,-328.2 1055.57,-335.16"/>
</g>
<!-- Node20&#45;&gt;Node4 -->
<g id="edge37" class="edge">
<title>Node20&#45;&gt;Node4</title>
<path fill="none" stroke="midnightblue" d="M612.29,-256.98C624.67,-248.01 639.28,-235.45 648.5,-221 686.7,-161.08 636.89,-112.47 691.5,-67 731.82,-33.43 1100.51,-20.57 1215.45,-17.36"/>
<polygon fill="midnightblue" stroke="midnightblue" points="610.02,-254.3 603.78,-262.86 614,-260.06 610.02,-254.3"/>
</g>
<!-- Node21 -->
<g id="node21" class="node">
<title>Node21</title>
<g id="a_node21"><a xlink:href="v8-debug_8h.html" target="_top" xlink:title=" ">
<polygon fill="white" stroke="black" points="541.5,-201.5 541.5,-220.5 639.5,-220.5 639.5,-201.5 541.5,-201.5"/>
<text text-anchor="middle" x="590.5" y="-208.5" font-family="Helvetica,sans-Serif" font-size="10.00">include/v8&#45;debug.h</text>
</a>
</g>
</g>
<!-- Node20&#45;&gt;Node21 -->
<g id="edge34" class="edge">
<title>Node20&#45;&gt;Node21</title>
<path fill="none" stroke="midnightblue" d="M589.81,-252.82C590,-242 590.22,-228.9 590.36,-220.51"/>
<polygon fill="midnightblue" stroke="midnightblue" points="586.31,-252.92 589.64,-262.98 593.31,-253.04 586.31,-252.92"/>
</g>
<!-- Node21&#45;&gt;Node4 -->
<g id="edge36" class="edge">
<title>Node21&#45;&gt;Node4</title>
<path fill="none" stroke="midnightblue" d="M592.69,-191.33C597.49,-159.82 612.01,-96.63 653.5,-67 699.34,-34.26 1095.71,-20.74 1215.41,-17.38"/>
<polygon fill="midnightblue" stroke="midnightblue" points="589.21,-191 591.34,-201.38 596.14,-191.94 589.21,-191"/>
</g>
<!-- Node21&#45;&gt;Node5 -->
<g id="edge35" class="edge">
<title>Node21&#45;&gt;Node5</title>
<path fill="none" stroke="midnightblue" d="M565.49,-196.71C543.8,-185.19 513.05,-168.86 494.52,-159.01"/>
<polygon fill="midnightblue" stroke="midnightblue" points="563.98,-199.87 574.45,-201.48 567.26,-193.69 563.98,-199.87"/>
</g>
<!-- Node22&#45;&gt;Node4 -->
<g id="edge64" class="edge">
<title>Node22&#45;&gt;Node4</title>
<path fill="none" stroke="midnightblue" d="M1504.21,-320.86C1493.17,-303.99 1475.58,-278.08 1458.5,-257 1423.26,-213.51 1409.48,-207.02 1372.5,-165 1348.83,-138.11 1278.78,-52.41 1256.43,-25.01"/>
<polygon fill="midnightblue" stroke="midnightblue" points="1501.52,-323.15 1509.9,-329.64 1507.4,-319.35 1501.52,-323.15"/>
</g>
<!-- Node22&#45;&gt;Node11 -->
<g id="edge58" class="edge">
<title>Node22&#45;&gt;Node11</title>
<path fill="none" stroke="midnightblue" d="M1455.93,-335.67C1337.35,-329.68 1063.47,-314.11 834.5,-288 819.24,-286.26 802.66,-283.87 787.74,-281.53"/>
<polygon fill="midnightblue" stroke="midnightblue" points="1456.07,-339.18 1466.24,-336.18 1456.42,-332.19 1456.07,-339.18"/>
</g>
<!-- Node22&#45;&gt;Node15 -->
<g id="edge50" class="edge">
<title>Node22&#45;&gt;Node15</title>
<path fill="none" stroke="midnightblue" d="M1470.49,-327.48C1433.6,-318.08 1380.21,-303.64 1334.5,-288 1299.99,-276.19 1292.74,-269.59 1258.5,-257 1221.14,-243.26 1177.34,-229.23 1149.51,-220.57"/>
<polygon fill="midnightblue" stroke="midnightblue" points="1469.88,-330.94 1480.44,-329.99 1471.6,-324.15 1469.88,-330.94"/>
</g>
<!-- Node22&#45;&gt;Node16 -->
<g id="edge61" class="edge">
<title>Node22&#45;&gt;Node16</title>
<path fill="none" stroke="midnightblue" d="M1456.3,-330.66C1382.37,-320.85 1252.06,-303.44 1140.5,-288 1125.09,-285.87 1108.37,-283.51 1093.01,-281.32"/>
<polygon fill="midnightblue" stroke="midnightblue" points="1455.97,-334.15 1466.34,-332 1456.89,-327.21 1455.97,-334.15"/>
</g>
<!-- Node23 -->
<g id="node23" class="node">
<title>Node23</title>
<g id="a_node23"><a xlink:href="v8-array-buffer_8h.html" target="_top" xlink:title=" ">
<polygon fill="white" stroke="black" points="1717,-201.5 1717,-220.5 1836,-220.5 1836,-201.5 1717,-201.5"/>
<text text-anchor="middle" x="1776.5" y="-208.5" font-family="Helvetica,sans-Serif" font-size="10.00">include/v8&#45;array&#45;buffer.h</text>
</a>
</g>
</g>
<!-- Node22&#45;&gt;Node23 -->
<g id="edge40" class="edge">
<title>Node22&#45;&gt;Node23</title>
<path fill="none" stroke="midnightblue" d="M1574.57,-329.34C1611.11,-321.92 1658.03,-309.13 1695.5,-288 1727.58,-269.91 1756.88,-236.51 1769.69,-220.71"/>
<polygon fill="midnightblue" stroke="midnightblue" points="1573.7,-325.94 1564.56,-331.29 1575.04,-332.81 1573.7,-325.94"/>
</g>
<!-- Node26 -->
<g id="node26" class="node">
<title>Node26</title>
<g id="a_node26"><a xlink:href="v8-container_8h.html" target="_top" xlink:title=" ">
<polygon fill="white" stroke="black" points="1354,-73 1354,-92 1465,-92 1465,-73 1354,-73"/>
<text text-anchor="middle" x="1409.5" y="-80" font-family="Helvetica,sans-Serif" font-size="10.00">include/v8&#45;container.h</text>
</a>
</g>
</g>
<!-- Node22&#45;&gt;Node26 -->
<g id="edge46" class="edge">
<title>Node22&#45;&gt;Node26</title>
<path fill="none" stroke="midnightblue" d="M1513.23,-319.47C1508.71,-289.96 1495.85,-233.21 1461.5,-201 1433.35,-174.61 1403.37,-197.45 1382.5,-165 1367.18,-141.18 1389.47,-107.82 1401.99,-92.21"/>
<polygon fill="midnightblue" stroke="midnightblue" points="1509.8,-320.22 1514.62,-329.66 1516.74,-319.28 1509.8,-320.22"/>
</g>
<!-- Node27 -->
<g id="node27" class="node">
<title>Node27</title>
<g id="a_node27"><a xlink:href="v8-date_8h.html" target="_top" xlink:title=" ">
<polygon fill="white" stroke="black" points="1391.5,-140 1391.5,-159 1481.5,-159 1481.5,-140 1391.5,-140"/>
<text text-anchor="middle" x="1436.5" y="-147" font-family="Helvetica,sans-Serif" font-size="10.00">include/v8&#45;date.h</text>
</a>
</g>
</g>
<!-- Node22&#45;&gt;Node27 -->
<g id="edge48" class="edge">
<title>Node22&#45;&gt;Node27</title>
<path fill="none" stroke="midnightblue" d="M1523.81,-320.39C1535.21,-292.59 1551.91,-238.67 1529.5,-201 1516.63,-179.37 1490.9,-166.43 1469.76,-159.07"/>
<polygon fill="midnightblue" stroke="midnightblue" points="1520.55,-319.11 1519.79,-329.67 1526.97,-321.89 1520.55,-319.11"/>
</g>
<!-- Node28 -->
<g id="node28" class="node">
<title>Node28</title>
<g id="a_node28"><a xlink:href="v8-primitive-object_8h.html" target="_top" xlink:title=" ">
<polygon fill="white" stroke="black" points="1500,-134.5 1500,-164.5 1601,-164.5 1601,-134.5 1500,-134.5"/>
<text text-anchor="start" x="1508" y="-152.5" font-family="Helvetica,sans-Serif" font-size="10.00">include/v8&#45;primitive</text>
<text text-anchor="middle" x="1550.5" y="-141.5" font-family="Helvetica,sans-Serif" font-size="10.00">&#45;object.h</text>
</a>
</g>
</g>
<!-- Node22&#45;&gt;Node28 -->
<g id="edge51" class="edge">
<title>Node22&#45;&gt;Node28</title>
<path fill="none" stroke="midnightblue" d="M1537.79,-323.6C1548.97,-314.73 1561.41,-302.41 1567.5,-288 1585.3,-245.91 1567.31,-190.55 1556.86,-164.81"/>
<polygon fill="midnightblue" stroke="midnightblue" points="1535.54,-320.91 1529.61,-329.68 1539.72,-326.52 1535.54,-320.91"/>
</g>
<!-- Node29 -->
<g id="node29" class="node">
<title>Node29</title>
<g id="a_node29"><a xlink:href="v8-promise_8h.html" target="_top" xlink:title=" ">
<polygon fill="white" stroke="black" points="1343.5,-263 1343.5,-282 1449.5,-282 1449.5,-263 1343.5,-263"/>
<text text-anchor="middle" x="1396.5" y="-270" font-family="Helvetica,sans-Serif" font-size="10.00">include/v8&#45;promise.h</text>
</a>
</g>
</g>
<!-- Node22&#45;&gt;Node29 -->
<g id="edge53" class="edge">
<title>Node22&#45;&gt;Node29</title>
<path fill="none" stroke="midnightblue" d="M1490.39,-324.79C1466.81,-311.9 1432.24,-293.02 1412.29,-282.13"/>
<polygon fill="midnightblue" stroke="midnightblue" points="1489,-328.01 1499.45,-329.73 1492.35,-321.87 1489,-328.01"/>
</g>
<!-- Node31 -->
<g id="node31" class="node">
<title>Node31</title>
<g id="a_node31"><a xlink:href="v8-regexp_8h.html" target="_top" xlink:title=" ">
<polygon fill="white" stroke="black" points="1567.5,-73 1567.5,-92 1667.5,-92 1667.5,-73 1567.5,-73"/>
<text text-anchor="middle" x="1617.5" y="-80" font-family="Helvetica,sans-Serif" font-size="10.00">include/v8&#45;regexp.h</text>
</a>
</g>
</g>
<!-- Node22&#45;&gt;Node31 -->
<g id="edge59" class="edge">
<title>Node22&#45;&gt;Node31</title>
<path fill="none" stroke="midnightblue" d="M1542.84,-324.88C1557.39,-316.25 1574.32,-303.75 1584.5,-288 1626.66,-222.76 1621.17,-122.02 1618.42,-92.14"/>
<polygon fill="midnightblue" stroke="midnightblue" points="1540.74,-322.04 1533.72,-329.98 1544.16,-328.15 1540.74,-322.04"/>
</g>
<!-- Node32 -->
<g id="node32" class="node">
<title>Node32</title>
<g id="a_node32"><a xlink:href="v8-wasm_8h.html" target="_top" xlink:title=" ">
<polygon fill="white" stroke="black" points="1657.5,-140 1657.5,-159 1755.5,-159 1755.5,-140 1657.5,-140"/>
<text text-anchor="middle" x="1706.5" y="-147" font-family="Helvetica,sans-Serif" font-size="10.00">include/v8&#45;wasm.h</text>
</a>
</g>
</g>
<!-- Node22&#45;&gt;Node32 -->
<g id="edge62" class="edge">
<title>Node22&#45;&gt;Node32</title>
<path fill="none" stroke="midnightblue" d="M1569.24,-327.17C1594.31,-319.6 1623.06,-307.37 1643.5,-288 1683.15,-250.43 1699.96,-183.14 1704.87,-159.23"/>
<polygon fill="midnightblue" stroke="midnightblue" points="1568.14,-323.85 1559.48,-329.94 1570.05,-330.58 1568.14,-323.85"/>
</g>
<!-- Node23&#45;&gt;Node4 -->
<g id="edge45" class="edge">
<title>Node23&#45;&gt;Node4</title>
<path fill="none" stroke="midnightblue" d="M1776.6,-190.83C1775.97,-174.86 1773.37,-151.92 1764.5,-134 1746.23,-97.09 1737.4,-85.28 1700.5,-67 1627.16,-30.67 1375.84,-20.05 1283.71,-17.33"/>
<polygon fill="midnightblue" stroke="midnightblue" points="1773.1,-191.12 1776.77,-201.06 1780.1,-191 1773.1,-191.12"/>
</g>
<!-- Node23&#45;&gt;Node5 -->
<g id="edge41" class="edge">
<title>Node23&#45;&gt;Node5</title>
<path fill="none" stroke="midnightblue" d="M1706.91,-206.81C1474.6,-196.16 729.17,-161.99 528.6,-152.8"/>
<polygon fill="midnightblue" stroke="midnightblue" points="1706.78,-210.31 1716.93,-207.27 1707.1,-203.31 1706.78,-210.31"/>
</g>
<!-- Node24 -->
<g id="node24" class="node">
<title>Node24</title>
<g id="a_node24"><a xlink:href="v8-typed-array_8h.html" target="_top" xlink:title=" ">
<polygon fill="white" stroke="black" points="1812,-140 1812,-159 1931,-159 1931,-140 1812,-140"/>
<text text-anchor="middle" x="1871.5" y="-147" font-family="Helvetica,sans-Serif" font-size="10.00">include/v8&#45;typed&#45;array.h</text>
</a>
</g>
</g>
<!-- Node23&#45;&gt;Node24 -->
<g id="edge42" class="edge">
<title>Node23&#45;&gt;Node24</title>
<path fill="none" stroke="midnightblue" d="M1798.71,-196.09C1817.05,-184.6 1842.48,-168.68 1857.91,-159.01"/>
<polygon fill="midnightblue" stroke="midnightblue" points="1796.73,-193.2 1790.11,-201.48 1800.44,-199.13 1796.73,-193.2"/>
</g>
<!-- Node24&#45;&gt;Node4 -->
<g id="edge44" class="edge">
<title>Node24&#45;&gt;Node4</title>
<path fill="none" stroke="midnightblue" d="M1861.39,-131.2C1849.03,-111.83 1826.17,-81.3 1797.5,-67 1706.66,-21.68 1389.04,-16.8 1283.72,-16.45"/>
<polygon fill="midnightblue" stroke="midnightblue" points="1858.53,-133.22 1866.73,-139.92 1864.5,-129.57 1858.53,-133.22"/>
</g>
<!-- Node25 -->
<g id="node25" class="node">
<title>Node25</title>
<g id="a_node25"><a xlink:href="v8-fast-api-calls_8h.html" target="_top" xlink:title=" ">
<polygon fill="white" stroke="black" points="1867.5,-67.5 1867.5,-97.5 1963.5,-97.5 1963.5,-67.5 1867.5,-67.5"/>
<text text-anchor="start" x="1875.5" y="-85.5" font-family="Helvetica,sans-Serif" font-size="10.00">include/v8&#45;fast&#45;api</text>
<text text-anchor="middle" x="1915.5" y="-74.5" font-family="Helvetica,sans-Serif" font-size="10.00">&#45;calls.h</text>
</a>
</g>
</g>
<!-- Node24&#45;&gt;Node25 -->
<g id="edge43" class="edge">
<title>Node24&#45;&gt;Node25</title>
<path fill="none" stroke="midnightblue" d="M1883.11,-131.35C1890.23,-120.82 1899.25,-107.5 1905.96,-97.59"/>
<polygon fill="midnightblue" stroke="midnightblue" points="1880.14,-129.49 1877.43,-139.73 1885.94,-133.41 1880.14,-129.49"/>
</g>
<!-- Node26&#45;&gt;Node4 -->
<g id="edge47" class="edge">
<title>Node26&#45;&gt;Node4</title>
<path fill="none" stroke="midnightblue" d="M1378.99,-69.1C1347.22,-56.2 1298.31,-36.33 1270.58,-25.06"/>
<polygon fill="midnightblue" stroke="midnightblue" points="1377.67,-72.35 1388.25,-72.87 1380.31,-65.86 1377.67,-72.35"/>
</g>
<!-- Node27&#45;&gt;Node4 -->
<g id="edge49" class="edge">
<title>Node27&#45;&gt;Node4</title>
<path fill="none" stroke="midnightblue" d="M1453.4,-132.75C1470,-115.37 1490.66,-87.19 1474.5,-67 1450.98,-37.62 1340.66,-24.16 1283.71,-19.08"/>
<polygon fill="midnightblue" stroke="midnightblue" points="1450.83,-130.37 1446.21,-139.91 1455.77,-135.34 1450.83,-130.37"/>
</g>
<!-- Node28&#45;&gt;Node4 -->
<g id="edge52" class="edge">
<title>Node28&#45;&gt;Node4</title>
<path fill="none" stroke="midnightblue" d="M1539.54,-125.44C1529.43,-106.74 1512.65,-81.24 1490.5,-67 1425.95,-25.5 1333.44,-17.37 1283.91,-16.22"/>
<polygon fill="midnightblue" stroke="midnightblue" points="1536.51,-127.21 1544.2,-134.5 1542.73,-124 1536.51,-127.21"/>
</g>
<!-- Node29&#45;&gt;Node4 -->
<g id="edge57" class="edge">
<title>Node29&#45;&gt;Node4</title>
<path fill="none" stroke="midnightblue" d="M1389.92,-253.23C1383.87,-238.12 1373.82,-216.67 1360.5,-201 1343,-180.41 1328.2,-186.24 1311.5,-165 1306.82,-159.04 1265.52,-56.48 1253.05,-25.37"/>
<polygon fill="midnightblue" stroke="midnightblue" points="1386.79,-254.83 1393.61,-262.94 1393.33,-252.35 1386.79,-254.83"/>
</g>
<!-- Node30 -->
<g id="node30" class="node">
<title>Node30</title>
<g id="a_node30"><a xlink:href="v8-statistics_8h.html" target="_top" xlink:title=" ">
<polygon fill="white" stroke="black" points="1240,-201.5 1240,-220.5 1351,-220.5 1351,-201.5 1240,-201.5"/>
<text text-anchor="middle" x="1295.5" y="-208.5" font-family="Helvetica,sans-Serif" font-size="10.00">include/v8&#45;statistics.h</text>
</a>
</g>
</g>
<!-- Node29&#45;&gt;Node30 -->
<g id="edge54" class="edge">
<title>Node29&#45;&gt;Node30</title>
<path fill="none" stroke="midnightblue" d="M1373.15,-257.74C1353.64,-246.25 1326.43,-230.22 1309.94,-220.51"/>
<polygon fill="midnightblue" stroke="midnightblue" points="1371.64,-260.91 1382.03,-262.98 1375.19,-254.88 1371.64,-260.91"/>
</g>
<!-- Node30&#45;&gt;Node4 -->
<g id="edge56" class="edge">
<title>Node30&#45;&gt;Node4</title>
<path fill="none" stroke="midnightblue" d="M1285.44,-192.49C1281.17,-184.36 1276.49,-174.43 1273.5,-165 1257.14,-113.48 1251.54,-48.18 1250,-25.08"/>
<polygon fill="midnightblue" stroke="midnightblue" points="1282.43,-194.28 1290.32,-201.36 1288.57,-190.91 1282.43,-194.28"/>
</g>
<!-- Node30&#45;&gt;Node5 -->
<g id="edge55" class="edge">
<title>Node30&#45;&gt;Node5</title>
<path fill="none" stroke="midnightblue" d="M1229.64,-204.61C1214.49,-203.4 1198.43,-202.13 1183.5,-201 937.87,-182.33 643.94,-161.89 528.52,-153.93"/>
<polygon fill="midnightblue" stroke="midnightblue" points="1229.72,-208.13 1239.96,-205.44 1230.28,-201.15 1229.72,-208.13"/>
</g>
<!-- Node31&#45;&gt;Node4 -->
<g id="edge60" class="edge">
<title>Node31&#45;&gt;Node4</title>
<path fill="none" stroke="midnightblue" d="M1567.99,-70.85C1561.44,-69.51 1554.81,-68.2 1548.5,-67 1452.81,-48.87 1339.27,-30.57 1283.66,-21.82"/>
<polygon fill="midnightblue" stroke="midnightblue" points="1567.64,-74.35 1578.15,-72.95 1569.06,-67.5 1567.64,-74.35"/>
</g>
<!-- Node32&#45;&gt;Node4 -->
<g id="edge63" class="edge">
<title>Node32&#45;&gt;Node4</title>
<path fill="none" stroke="midnightblue" d="M1705.1,-129.81C1702.62,-110.83 1695.71,-82.15 1676.5,-67 1615.84,-19.15 1374.1,-15.66 1283.78,-16.08"/>
<polygon fill="midnightblue" stroke="midnightblue" points="1701.64,-130.33 1706.13,-139.92 1708.6,-129.62 1701.64,-130.33"/>
</g>
<!-- Node33&#45;&gt;Node4 -->
<g id="edge74" class="edge">
<title>Node33&#45;&gt;Node4</title>
<path fill="none" stroke="midnightblue" d="M1883.42,-444.43C1930.17,-429.15 1997.5,-397.28 1997.5,-340.5 1997.5,-340.5 1997.5,-340.5 1997.5,-148.5 1997.5,-110.61 2002.16,-90.57 1972.5,-67 1918.13,-23.8 1419.93,-17.55 1283.76,-16.65"/>
<polygon fill="midnightblue" stroke="midnightblue" points="1882.28,-441.12 1873.78,-447.45 1884.37,-447.8 1882.28,-441.12"/>
</g>
<!-- Node33&#45;&gt;Node12 -->
<g id="edge73" class="edge">
<title>Node33&#45;&gt;Node12</title>
<path fill="none" stroke="midnightblue" d="M1781.75,-452.71C1611.09,-443 1110.67,-414.53 944.69,-405.08"/>
<polygon fill="midnightblue" stroke="midnightblue" points="1781.61,-456.21 1791.79,-453.29 1782,-449.22 1781.61,-456.21"/>
</g>
<!-- Node33&#45;&gt;Node22 -->
<g id="edge72" class="edge">
<title>Node33&#45;&gt;Node22</title>
<path fill="none" stroke="midnightblue" d="M1805.96,-444.05C1740.47,-420.7 1596.96,-369.54 1539.75,-349.14"/>
<polygon fill="midnightblue" stroke="midnightblue" points="1804.82,-447.35 1815.41,-447.41 1807.17,-440.76 1804.82,-447.35"/>
</g>
<!-- Node33&#45;&gt;Node25 -->
<g id="edge71" class="edge">
<title>Node33&#45;&gt;Node25</title>
<path fill="none" stroke="midnightblue" d="M1869.88,-442.87C1905.43,-425.21 1959.5,-390.19 1959.5,-340.5 1959.5,-340.5 1959.5,-340.5 1959.5,-210 1959.5,-167.22 1936.77,-120.58 1923.98,-97.74"/>
<polygon fill="midnightblue" stroke="midnightblue" points="1867.92,-439.93 1860.4,-447.39 1870.94,-446.24 1867.92,-439.93"/>
</g>
<!-- Node34 -->
<g id="node34" class="node">
<title>Node34</title>
<g id="a_node34"><a xlink:href="v8-external_8h.html" target="_top" xlink:title=" ">
<polygon fill="white" stroke="black" points="2026,-391.5 2026,-410.5 2131,-410.5 2131,-391.5 2026,-391.5"/>
<text text-anchor="middle" x="2078.5" y="-398.5" font-family="Helvetica,sans-Serif" font-size="10.00">include/v8&#45;external.h</text>
</a>
</g>
</g>
<!-- Node33&#45;&gt;Node34 -->
<g id="edge69" class="edge">
<title>Node33&#45;&gt;Node34</title>
<path fill="none" stroke="midnightblue" d="M1887.22,-445.22C1932.39,-435.01 1999.27,-419.9 2040.81,-410.52"/>
<polygon fill="midnightblue" stroke="midnightblue" points="1886.35,-441.83 1877.37,-447.44 1887.9,-448.65 1886.35,-441.83"/>
</g>
<!-- Node34&#45;&gt;Node4 -->
<g id="edge70" class="edge">
<title>Node34&#45;&gt;Node4</title>
<path fill="none" stroke="midnightblue" d="M2068.5,-382.57C2055.8,-358.74 2035.5,-314.3 2035.5,-273.5 2035.5,-273.5 2035.5,-273.5 2035.5,-148.5 2035.5,-110.74 2040.97,-90.6 2011.5,-67 1954.13,-21.05 1424.4,-16.81 1283.69,-16.5"/>
<polygon fill="midnightblue" stroke="midnightblue" points="2065.5,-384.38 2073.4,-391.45 2071.63,-381 2065.5,-384.38"/>
</g>
</g>
</svg>
