<?xml version="1.0" encoding="UTF-8" standalone="no"?>
<!DOCTYPE svg PUBLIC "-//W3C//DTD SVG 1.1//EN"
 "http://www.w3.org/Graphics/SVG/1.1/DTD/svg11.dtd">
<!-- Generated by graphviz version 2.49.3 (20211027.1534)
 -->
<!-- Title: include/v8&#45;persistent&#45;handle.h Pages: 1 -->
<svg width="438pt" height="207pt"
 viewBox="0.00 0.00 438.00 207.00" xmlns="http://www.w3.org/2000/svg" xmlns:xlink="http://www.w3.org/1999/xlink">
<g id="graph0" class="graph" transform="scale(1 1) rotate(0) translate(4 203)">
<title>include/v8&#45;persistent&#45;handle.h</title>
<polygon fill="white" stroke="transparent" points="-4,4 -4,-203 434,-203 434,4 -4,4"/>
<!-- Node1 -->
<g id="node1" class="node">
<title>Node1</title>
<g id="a_node1"><a xlink:title=" ">
<polygon fill="#bfbfbf" stroke="black" points="198.5,-168.5 198.5,-198.5 305.5,-198.5 305.5,-168.5 198.5,-168.5"/>
<text text-anchor="start" x="206.5" y="-186.5" font-family="Helvetica,sans-Serif" font-size="10.00">include/v8&#45;persistent</text>
<text text-anchor="middle" x="252" y="-175.5" font-family="Helvetica,sans-Serif" font-size="10.00">&#45;handle.h</text>
</a>
</g>
</g>
<!-- Node2 -->
<g id="node2" class="node">
<title>Node2</title>
<g id="a_node2"><a xlink:href="v8-internal_8h.html" target="_top" xlink:title=" ">
<polygon fill="white" stroke="black" points="142.5,-56.5 142.5,-75.5 211.5,-75.5 211.5,-56.5 142.5,-56.5"/>
<text text-anchor="middle" x="177" y="-63.5" font-family="Helvetica,sans-Serif" font-size="10.00">v8&#45;internal.h</text>
</a>
</g>
</g>
<!-- Node1&#45;&gt;Node2 -->
<g id="edge1" class="edge">
<title>Node1&#45;&gt;Node2</title>
<path fill="none" stroke="midnightblue" d="M242.8,-168.34C229.04,-147.15 203.13,-107.24 188.26,-84.34"/>
<polygon fill="midnightblue" stroke="midnightblue" points="191.01,-82.15 182.63,-75.67 185.14,-85.96 191.01,-82.15"/>
</g>
<!-- Node8 -->
<g id="node8" class="node">
<title>Node8</title>
<g id="a_node8"><a xlink:href="v8config_8h.html" target="_top" xlink:title=" ">
<polygon fill="white" stroke="black" points="370,-0.5 370,-19.5 430,-19.5 430,-0.5 370,-0.5"/>
<text text-anchor="middle" x="400" y="-7.5" font-family="Helvetica,sans-Serif" font-size="10.00">v8config.h</text>
</a>
</g>
</g>
<!-- Node1&#45;&gt;Node8 -->
<g id="edge14" class="edge">
<title>Node1&#45;&gt;Node8</title>
<path fill="none" stroke="midnightblue" d="M272.24,-168.3C297.76,-149.57 341.7,-114.45 370,-76 380.58,-61.63 388.73,-42.92 393.85,-29.27"/>
<polygon fill="midnightblue" stroke="midnightblue" points="397.24,-30.18 397.29,-19.59 390.64,-27.84 397.24,-30.18"/>
</g>
<!-- Node9 -->
<g id="node9" class="node">
<title>Node9</title>
<g id="a_node9"><a xlink:href="v8-local-handle_8h.html" target="_top" xlink:title=" ">
<polygon fill="white" stroke="black" points="98.5,-112.5 98.5,-131.5 187.5,-131.5 187.5,-112.5 98.5,-112.5"/>
<text text-anchor="middle" x="143" y="-119.5" font-family="Helvetica,sans-Serif" font-size="10.00">v8&#45;local&#45;handle.h</text>
</a>
</g>
</g>
<!-- Node1&#45;&gt;Node9 -->
<g id="edge8" class="edge">
<title>Node1&#45;&gt;Node9</title>
<path fill="none" stroke="midnightblue" d="M226.17,-168.4C208.53,-158.77 185.3,-146.09 167.87,-136.58"/>
<polygon fill="midnightblue" stroke="midnightblue" points="169.31,-133.38 158.86,-131.66 165.96,-139.52 169.31,-133.38"/>
</g>
<!-- Node10 -->
<g id="node10" class="node">
<title>Node10</title>
<g id="a_node10"><a xlink:href="v8-weak-callback-info_8h.html" target="_top" xlink:title=" ">
<polygon fill="white" stroke="black" points="242.5,-56.5 242.5,-75.5 361.5,-75.5 361.5,-56.5 242.5,-56.5"/>
<text text-anchor="middle" x="302" y="-63.5" font-family="Helvetica,sans-Serif" font-size="10.00">v8&#45;weak&#45;callback&#45;info.h</text>
</a>
</g>
</g>
<!-- Node1&#45;&gt;Node10 -->
<g id="edge12" class="edge">
<title>Node1&#45;&gt;Node10</title>
<path fill="none" stroke="midnightblue" d="M258.13,-168.34C267.22,-147.34 284.27,-107.96 294.23,-84.96"/>
<polygon fill="midnightblue" stroke="midnightblue" points="297.49,-86.24 298.25,-75.67 291.06,-83.46 297.49,-86.24"/>
</g>
<!-- Node3 -->
<g id="node3" class="node">
<title>Node3</title>
<g id="a_node3"><a xlink:title=" ">
<polygon fill="white" stroke="#bfbfbf" points="80.5,-0.5 80.5,-19.5 131.5,-19.5 131.5,-0.5 80.5,-0.5"/>
<text text-anchor="middle" x="106" y="-7.5" font-family="Helvetica,sans-Serif" font-size="10.00">stddef.h</text>
</a>
</g>
</g>
<!-- Node2&#45;&gt;Node3 -->
<g id="edge2" class="edge">
<title>Node2&#45;&gt;Node3</title>
<path fill="none" stroke="midnightblue" d="M165.59,-56.32C154.89,-48.18 138.66,-35.84 125.84,-26.09"/>
<polygon fill="midnightblue" stroke="midnightblue" points="127.69,-23.1 117.61,-19.83 123.46,-28.67 127.69,-23.1"/>
</g>
<!-- Node4 -->
<g id="node4" class="node">
<title>Node4</title>
<g id="a_node4"><a xlink:title=" ">
<polygon fill="white" stroke="#bfbfbf" points="150,-0.5 150,-19.5 198,-19.5 198,-0.5 150,-0.5"/>
<text text-anchor="middle" x="174" y="-7.5" font-family="Helvetica,sans-Serif" font-size="10.00">stdint.h</text>
</a>
</g>
</g>
<!-- Node2&#45;&gt;Node4 -->
<g id="edge3" class="edge">
<title>Node2&#45;&gt;Node4</title>
<path fill="none" stroke="midnightblue" d="M176.5,-56.08C176.11,-49.01 175.55,-38.86 175.05,-29.99"/>
<polygon fill="midnightblue" stroke="midnightblue" points="178.54,-29.54 174.49,-19.75 171.55,-29.93 178.54,-29.54"/>
</g>
<!-- Node5 -->
<g id="node5" class="node">
<title>Node5</title>
<g id="a_node5"><a xlink:title=" ">
<polygon fill="white" stroke="#bfbfbf" points="216,-0.5 216,-19.5 264,-19.5 264,-0.5 216,-0.5"/>
<text text-anchor="middle" x="240" y="-7.5" font-family="Helvetica,sans-Serif" font-size="10.00">string.h</text>
</a>
</g>
</g>
<!-- Node2&#45;&gt;Node5 -->
<g id="edge4" class="edge">
<title>Node2&#45;&gt;Node5</title>
<path fill="none" stroke="midnightblue" d="M187.12,-56.32C196.53,-48.26 210.74,-36.08 222.07,-26.37"/>
<polygon fill="midnightblue" stroke="midnightblue" points="224.38,-29 229.69,-19.83 219.82,-23.68 224.38,-29"/>
</g>
<!-- Node6 -->
<g id="node6" class="node">
<title>Node6</title>
<g id="a_node6"><a xlink:title=" ">
<polygon fill="white" stroke="#bfbfbf" points="0,-0.5 0,-19.5 62,-19.5 62,-0.5 0,-0.5"/>
<text text-anchor="middle" x="31" y="-7.5" font-family="Helvetica,sans-Serif" font-size="10.00">type_traits</text>
</a>
</g>
</g>
<!-- Node2&#45;&gt;Node6 -->
<g id="edge5" class="edge">
<title>Node2&#45;&gt;Node6</title>
<path fill="none" stroke="midnightblue" d="M153.87,-56.44C129.52,-47.44 90.99,-33.19 63.58,-23.05"/>
<polygon fill="midnightblue" stroke="midnightblue" points="64.62,-19.7 54.03,-19.52 62.19,-26.27 64.62,-19.7"/>
</g>
<!-- Node7 -->
<g id="node7" class="node">
<title>Node7</title>
<g id="a_node7"><a xlink:href="v8-version_8h.html" target="_top" xlink:title=" ">
<polygon fill="white" stroke="black" points="282.5,-0.5 282.5,-19.5 351.5,-19.5 351.5,-0.5 282.5,-0.5"/>
<text text-anchor="middle" x="317" y="-7.5" font-family="Helvetica,sans-Serif" font-size="10.00">v8&#45;version.h</text>
</a>
</g>
</g>
<!-- Node2&#45;&gt;Node7 -->
<g id="edge6" class="edge">
<title>Node2&#45;&gt;Node7</title>
<path fill="none" stroke="midnightblue" d="M199.18,-56.44C222.43,-47.48 259.15,-33.31 285.42,-23.18"/>
<polygon fill="midnightblue" stroke="midnightblue" points="286.85,-26.38 294.92,-19.52 284.33,-19.85 286.85,-26.38"/>
</g>
<!-- Node2&#45;&gt;Node8 -->
<g id="edge7" class="edge">
<title>Node2&#45;&gt;Node8</title>
<path fill="none" stroke="midnightblue" d="M211.84,-56.56C251.9,-46.86 317.55,-30.96 359.76,-20.74"/>
<polygon fill="midnightblue" stroke="midnightblue" points="360.8,-24.09 369.69,-18.34 359.15,-17.29 360.8,-24.09"/>
</g>
<!-- Node9&#45;&gt;Node2 -->
<g id="edge11" class="edge">
<title>Node9&#45;&gt;Node2</title>
<path fill="none" stroke="midnightblue" d="M148.61,-112.08C153.37,-104.53 160.32,-93.49 166.15,-84.23"/>
<polygon fill="midnightblue" stroke="midnightblue" points="169.12,-86.08 171.49,-75.75 163.2,-82.35 169.12,-86.08"/>
</g>
<!-- Node9&#45;&gt;Node3 -->
<g id="edge9" class="edge">
<title>Node9&#45;&gt;Node3</title>
<path fill="none" stroke="midnightblue" d="M140.1,-112.37C134.1,-94.54 120.23,-53.3 112.15,-29.27"/>
<polygon fill="midnightblue" stroke="midnightblue" points="115.4,-27.95 108.89,-19.59 108.76,-30.19 115.4,-27.95"/>
</g>
<!-- Node9&#45;&gt;Node6 -->
<g id="edge10" class="edge">
<title>Node9&#45;&gt;Node6</title>
<path fill="none" stroke="midnightblue" d="M134.21,-112.37C115.4,-93.89 71.01,-50.29 47.03,-26.74"/>
<polygon fill="midnightblue" stroke="midnightblue" points="49.33,-24.1 39.75,-19.59 44.43,-29.1 49.33,-24.1"/>
</g>
<!-- Node10&#45;&gt;Node8 -->
<g id="edge13" class="edge">
<title>Node10&#45;&gt;Node8</title>
<path fill="none" stroke="midnightblue" d="M317.75,-56.32C333.32,-47.74 357.38,-34.49 375.46,-24.52"/>
<polygon fill="midnightblue" stroke="midnightblue" points="377.22,-27.55 384.29,-19.65 373.85,-21.42 377.22,-27.55"/>
</g>
</g>
</svg>
