<?xml version="1.0" encoding="UTF-8" standalone="no"?>
<!DOCTYPE svg PUBLIC "-//W3C//DTD SVG 1.1//EN"
 "http://www.w3.org/Graphics/SVG/1.1/DTD/svg11.dtd">
<!-- Generated by graphviz version 2.49.3 (20211027.1534)
 -->
<!-- Title: include/v8&#45;template.h Pages: 1 -->
<svg width="1088pt" height="420pt"
 viewBox="0.00 0.00 1088.48 420.00" xmlns="http://www.w3.org/2000/svg" xmlns:xlink="http://www.w3.org/1999/xlink">
<g id="graph0" class="graph" transform="scale(1 1) rotate(0) translate(4 416)">
<title>include/v8&#45;template.h</title>
<polygon fill="white" stroke="transparent" points="-4,4 -4,-416 1084.48,-416 1084.48,4 -4,4"/>
<!-- Node1 -->
<g id="node1" class="node">
<title>Node1</title>
<g id="a_node1"><a xlink:title=" ">
<polygon fill="#bfbfbf" stroke="black" points="380.5,-392.5 380.5,-411.5 489.5,-411.5 489.5,-392.5 380.5,-392.5"/>
<text text-anchor="middle" x="435" y="-399.5" font-family="Helvetica,sans-Serif" font-size="10.00">include/v8&#45;template.h</text>
</a>
</g>
</g>
<!-- Node2 -->
<g id="node2" class="node">
<title>Node2</title>
<g id="a_node2"><a xlink:href="v8-data_8h.html" target="_top" xlink:title=" ">
<polygon fill="white" stroke="black" points="473,-168.5 473,-187.5 529,-187.5 529,-168.5 473,-168.5"/>
<text text-anchor="middle" x="501" y="-175.5" font-family="Helvetica,sans-Serif" font-size="10.00">v8&#45;data.h</text>
</a>
</g>
</g>
<!-- Node1&#45;&gt;Node2 -->
<g id="edge1" class="edge">
<title>Node1&#45;&gt;Node2</title>
<path fill="none" stroke="midnightblue" d="M437.59,-392.3C447.32,-359.56 481.86,-243.38 495.45,-197.67"/>
<polygon fill="midnightblue" stroke="midnightblue" points="498.86,-198.47 498.36,-187.88 492.15,-196.47 498.86,-198.47"/>
</g>
<!-- Node3 -->
<g id="node3" class="node">
<title>Node3</title>
<g id="a_node3"><a xlink:href="v8-local-handle_8h.html" target="_top" xlink:title=" ">
<polygon fill="white" stroke="black" points="584.5,-112.5 584.5,-131.5 673.5,-131.5 673.5,-112.5 584.5,-112.5"/>
<text text-anchor="middle" x="629" y="-119.5" font-family="Helvetica,sans-Serif" font-size="10.00">v8&#45;local&#45;handle.h</text>
</a>
</g>
</g>
<!-- Node1&#45;&gt;Node3 -->
<g id="edge29" class="edge">
<title>Node1&#45;&gt;Node3</title>
<path fill="none" stroke="midnightblue" d="M489.71,-397.37C533.17,-392.59 594.35,-381.55 642,-356 678.56,-336.4 709,-332.49 709,-291 709,-291 709,-291 709,-233 709,-192.62 673.31,-157.11 649.6,-137.97"/>
<polygon fill="midnightblue" stroke="midnightblue" points="651.55,-135.05 641.5,-131.69 647.26,-140.58 651.55,-135.05"/>
</g>
<!-- Node10 -->
<g id="node10" class="node">
<title>Node10</title>
<g id="a_node10"><a xlink:href="v8config_8h.html" target="_top" xlink:title=" ">
<polygon fill="white" stroke="black" points="222,-0.5 222,-19.5 282,-19.5 282,-0.5 222,-0.5"/>
<text text-anchor="middle" x="252" y="-7.5" font-family="Helvetica,sans-Serif" font-size="10.00">v8config.h</text>
</a>
</g>
</g>
<!-- Node1&#45;&gt;Node10 -->
<g id="edge57" class="edge">
<title>Node1&#45;&gt;Node10</title>
<path fill="none" stroke="midnightblue" d="M380.35,-398.62C263.52,-392.04 0,-368.61 0,-291 0,-291 0,-291 0,-121 0,-29.96 139.85,-13.52 211.19,-11.05"/>
<polygon fill="midnightblue" stroke="midnightblue" points="211.7,-14.54 221.6,-10.77 211.51,-7.54 211.7,-14.54"/>
</g>
<!-- Node11 -->
<g id="node11" class="node">
<title>Node11</title>
<g id="a_node11"><a xlink:href="v8-function-callback_8h.html" target="_top" xlink:title=" ">
<polygon fill="white" stroke="black" points="522.5,-336.5 522.5,-355.5 633.5,-355.5 633.5,-336.5 522.5,-336.5"/>
<text text-anchor="middle" x="578" y="-343.5" font-family="Helvetica,sans-Serif" font-size="10.00">v8&#45;function&#45;callback.h</text>
</a>
</g>
</g>
<!-- Node1&#45;&gt;Node11 -->
<g id="edge13" class="edge">
<title>Node1&#45;&gt;Node11</title>
<path fill="none" stroke="midnightblue" d="M457.66,-392.44C481.4,-383.48 518.91,-369.31 545.74,-359.18"/>
<polygon fill="midnightblue" stroke="midnightblue" points="547.33,-362.32 555.45,-355.52 544.86,-355.77 547.33,-362.32"/>
</g>
<!-- Node15 -->
<g id="node15" class="node">
<title>Node15</title>
<g id="a_node15"><a xlink:href="v8-memory-span_8h.html" target="_top" xlink:title=" ">
<polygon fill="white" stroke="black" points="242,-56.5 242,-75.5 338,-75.5 338,-56.5 242,-56.5"/>
<text text-anchor="middle" x="290" y="-63.5" font-family="Helvetica,sans-Serif" font-size="10.00">v8&#45;memory&#45;span.h</text>
</a>
</g>
</g>
<!-- Node1&#45;&gt;Node15 -->
<g id="edge30" class="edge">
<title>Node1&#45;&gt;Node15</title>
<path fill="none" stroke="midnightblue" d="M380.48,-395.72C280.05,-384.48 76,-353.9 76,-291 76,-291 76,-291 76,-233 76,-202.9 75.87,-191.24 95,-168 134.31,-120.24 202.1,-92.45 246.5,-78.5"/>
<polygon fill="midnightblue" stroke="midnightblue" points="247.6,-81.83 256.15,-75.57 245.56,-75.13 247.6,-81.83"/>
</g>
<!-- Node16 -->
<g id="node16" class="node">
<title>Node16</title>
<g id="a_node16"><a xlink:href="v8-object_8h.html" target="_top" xlink:title=" ">
<polygon fill="white" stroke="black" points="373,-336.5 373,-355.5 437,-355.5 437,-336.5 373,-336.5"/>
<text text-anchor="middle" x="405" y="-343.5" font-family="Helvetica,sans-Serif" font-size="10.00">v8&#45;object.h</text>
</a>
</g>
</g>
<!-- Node1&#45;&gt;Node16 -->
<g id="edge33" class="edge">
<title>Node1&#45;&gt;Node16</title>
<path fill="none" stroke="midnightblue" d="M430.05,-392.08C425.9,-384.61 419.85,-373.72 414.73,-364.52"/>
<polygon fill="midnightblue" stroke="midnightblue" points="417.78,-362.79 409.86,-355.75 411.66,-366.19 417.78,-362.79"/>
</g>
<!-- Node2&#45;&gt;Node3 -->
<g id="edge2" class="edge">
<title>Node2&#45;&gt;Node3</title>
<path fill="none" stroke="midnightblue" d="M521.28,-168.44C542.35,-159.56 575.52,-145.56 599.49,-135.45"/>
<polygon fill="midnightblue" stroke="midnightblue" points="600.96,-138.63 608.81,-131.52 598.24,-132.18 600.96,-138.63"/>
</g>
<!-- Node2&#45;&gt;Node10 -->
<g id="edge12" class="edge">
<title>Node2&#45;&gt;Node10</title>
<path fill="none" stroke="midnightblue" d="M494.64,-168.37C478.13,-146.52 431.54,-88.44 380,-56 352.9,-38.94 318.48,-27.31 292.16,-20.15"/>
<polygon fill="midnightblue" stroke="midnightblue" points="292.71,-16.68 282.15,-17.54 290.94,-23.45 292.71,-16.68"/>
</g>
<!-- Node4 -->
<g id="node4" class="node">
<title>Node4</title>
<g id="a_node4"><a xlink:title=" ">
<polygon fill="white" stroke="#bfbfbf" points="624.5,-0.5 624.5,-19.5 675.5,-19.5 675.5,-0.5 624.5,-0.5"/>
<text text-anchor="middle" x="650" y="-7.5" font-family="Helvetica,sans-Serif" font-size="10.00">stddef.h</text>
</a>
</g>
</g>
<!-- Node3&#45;&gt;Node4 -->
<g id="edge3" class="edge">
<title>Node3&#45;&gt;Node4</title>
<path fill="none" stroke="midnightblue" d="M630.65,-112.37C634.04,-94.62 641.85,-53.67 646.45,-29.6"/>
<polygon fill="midnightblue" stroke="midnightblue" points="649.92,-30.07 648.36,-19.59 643.05,-28.76 649.92,-30.07"/>
</g>
<!-- Node5 -->
<g id="node5" class="node">
<title>Node5</title>
<g id="a_node5"><a xlink:title=" ">
<polygon fill="white" stroke="#bfbfbf" points="856,-0.5 856,-19.5 918,-19.5 918,-0.5 856,-0.5"/>
<text text-anchor="middle" x="887" y="-7.5" font-family="Helvetica,sans-Serif" font-size="10.00">type_traits</text>
</a>
</g>
</g>
<!-- Node3&#45;&gt;Node5 -->
<g id="edge4" class="edge">
<title>Node3&#45;&gt;Node5</title>
<path fill="none" stroke="midnightblue" d="M673.7,-121.65C720.58,-120.21 794.46,-111.73 846,-76 862.41,-64.62 873.65,-44.33 880.15,-29.44"/>
<polygon fill="midnightblue" stroke="midnightblue" points="883.56,-30.33 884.05,-19.75 877.07,-27.72 883.56,-30.33"/>
</g>
<!-- Node6 -->
<g id="node6" class="node">
<title>Node6</title>
<g id="a_node6"><a xlink:href="v8-internal_8h.html" target="_top" xlink:title=" ">
<polygon fill="white" stroke="black" points="768.5,-56.5 768.5,-75.5 837.5,-75.5 837.5,-56.5 768.5,-56.5"/>
<text text-anchor="middle" x="803" y="-63.5" font-family="Helvetica,sans-Serif" font-size="10.00">v8&#45;internal.h</text>
</a>
</g>
</g>
<!-- Node3&#45;&gt;Node6 -->
<g id="edge5" class="edge">
<title>Node3&#45;&gt;Node6</title>
<path fill="none" stroke="midnightblue" d="M656.57,-112.44C686.1,-103.28 733.12,-88.69 765.88,-78.52"/>
<polygon fill="midnightblue" stroke="midnightblue" points="767.04,-81.82 775.56,-75.52 764.97,-75.14 767.04,-81.82"/>
</g>
<!-- Node6&#45;&gt;Node4 -->
<g id="edge6" class="edge">
<title>Node6&#45;&gt;Node4</title>
<path fill="none" stroke="midnightblue" d="M778.76,-56.44C753.13,-47.4 712.51,-33.06 683.76,-22.92"/>
<polygon fill="midnightblue" stroke="midnightblue" points="684.72,-19.54 674.13,-19.52 682.39,-26.15 684.72,-19.54"/>
</g>
<!-- Node6&#45;&gt;Node5 -->
<g id="edge9" class="edge">
<title>Node6&#45;&gt;Node5</title>
<path fill="none" stroke="midnightblue" d="M816.5,-56.32C829.6,-47.9 849.71,-34.97 865.11,-25.07"/>
<polygon fill="midnightblue" stroke="midnightblue" points="867.02,-28.01 873.54,-19.65 863.23,-22.12 867.02,-28.01"/>
</g>
<!-- Node7 -->
<g id="node7" class="node">
<title>Node7</title>
<g id="a_node7"><a xlink:title=" ">
<polygon fill="white" stroke="#bfbfbf" points="1010,-0.5 1010,-19.5 1058,-19.5 1058,-0.5 1010,-0.5"/>
<text text-anchor="middle" x="1034" y="-7.5" font-family="Helvetica,sans-Serif" font-size="10.00">stdint.h</text>
</a>
</g>
</g>
<!-- Node6&#45;&gt;Node7 -->
<g id="edge7" class="edge">
<title>Node6&#45;&gt;Node7</title>
<path fill="none" stroke="midnightblue" d="M837.58,-56.92C881.39,-46.67 956.42,-29.13 999.97,-18.96"/>
<polygon fill="midnightblue" stroke="midnightblue" points="1000.86,-22.34 1009.8,-16.66 999.27,-15.52 1000.86,-22.34"/>
</g>
<!-- Node8 -->
<g id="node8" class="node">
<title>Node8</title>
<g id="a_node8"><a xlink:title=" ">
<polygon fill="white" stroke="#bfbfbf" points="702,-0.5 702,-19.5 750,-19.5 750,-0.5 702,-0.5"/>
<text text-anchor="middle" x="726" y="-7.5" font-family="Helvetica,sans-Serif" font-size="10.00">string.h</text>
</a>
</g>
</g>
<!-- Node6&#45;&gt;Node8 -->
<g id="edge8" class="edge">
<title>Node6&#45;&gt;Node8</title>
<path fill="none" stroke="midnightblue" d="M790.63,-56.32C778.84,-48.06 760.87,-35.45 746.86,-25.63"/>
<polygon fill="midnightblue" stroke="midnightblue" points="748.54,-22.53 738.34,-19.65 744.52,-28.26 748.54,-22.53"/>
</g>
<!-- Node9 -->
<g id="node9" class="node">
<title>Node9</title>
<g id="a_node9"><a xlink:href="v8-version_8h.html" target="_top" xlink:title=" ">
<polygon fill="white" stroke="black" points="768.5,-0.5 768.5,-19.5 837.5,-19.5 837.5,-0.5 768.5,-0.5"/>
<text text-anchor="middle" x="803" y="-7.5" font-family="Helvetica,sans-Serif" font-size="10.00">v8&#45;version.h</text>
</a>
</g>
</g>
<!-- Node6&#45;&gt;Node9 -->
<g id="edge10" class="edge">
<title>Node6&#45;&gt;Node9</title>
<path fill="none" stroke="midnightblue" d="M803,-56.08C803,-49.01 803,-38.86 803,-29.99"/>
<polygon fill="midnightblue" stroke="midnightblue" points="806.5,-29.75 803,-19.75 799.5,-29.75 806.5,-29.75"/>
</g>
<!-- Node6&#45;&gt;Node10 -->
<g id="edge11" class="edge">
<title>Node6&#45;&gt;Node10</title>
<path fill="none" stroke="midnightblue" d="M768.29,-61.36C752.36,-59.7 733.22,-57.73 716,-56 559.36,-40.3 372.87,-22.48 292.33,-14.82"/>
<polygon fill="midnightblue" stroke="midnightblue" points="292.42,-11.32 282.13,-13.86 291.76,-18.29 292.42,-11.32"/>
</g>
<!-- Node11&#45;&gt;Node3 -->
<g id="edge14" class="edge">
<title>Node11&#45;&gt;Node3</title>
<path fill="none" stroke="midnightblue" d="M604.93,-336.36C621.72,-329.41 641.98,-317.82 652,-300 681.18,-248.11 653.61,-174.41 638.03,-140.87"/>
<polygon fill="midnightblue" stroke="midnightblue" points="641.16,-139.3 633.66,-131.81 634.86,-142.34 641.16,-139.3"/>
</g>
<!-- Node11&#45;&gt;Node10 -->
<g id="edge28" class="edge">
<title>Node11&#45;&gt;Node10</title>
<path fill="none" stroke="midnightblue" d="M540.84,-336.47C495.83,-324.1 421.18,-296.68 382,-244 331.28,-175.8 398.86,-123.34 347,-56 333.47,-38.44 311.39,-27.41 291.92,-20.67"/>
<polygon fill="midnightblue" stroke="midnightblue" points="292.92,-17.31 282.33,-17.61 290.79,-23.98 292.92,-17.31"/>
</g>
<!-- Node12 -->
<g id="node12" class="node">
<title>Node12</title>
<g id="a_node12"><a xlink:href="v8-primitive_8h.html" target="_top" xlink:title=" ">
<polygon fill="white" stroke="black" points="569,-280.5 569,-299.5 643,-299.5 643,-280.5 569,-280.5"/>
<text text-anchor="middle" x="606" y="-287.5" font-family="Helvetica,sans-Serif" font-size="10.00">v8&#45;primitive.h</text>
</a>
</g>
</g>
<!-- Node11&#45;&gt;Node12 -->
<g id="edge15" class="edge">
<title>Node11&#45;&gt;Node12</title>
<path fill="none" stroke="midnightblue" d="M582.62,-336.08C586.46,-328.69 592.02,-317.95 596.76,-308.81"/>
<polygon fill="midnightblue" stroke="midnightblue" points="599.97,-310.24 601.46,-299.75 593.75,-307.02 599.97,-310.24"/>
</g>
<!-- Node12&#45;&gt;Node2 -->
<g id="edge16" class="edge">
<title>Node12&#45;&gt;Node2</title>
<path fill="none" stroke="midnightblue" d="M597.76,-280.37C580.2,-261.97 538.87,-218.67 516.32,-195.05"/>
<polygon fill="midnightblue" stroke="midnightblue" points="518.64,-192.41 509.2,-187.59 513.57,-197.24 518.64,-192.41"/>
</g>
<!-- Node12&#45;&gt;Node3 -->
<g id="edge18" class="edge">
<title>Node12&#45;&gt;Node3</title>
<path fill="none" stroke="midnightblue" d="M607.24,-280.08C610.86,-253.95 621.49,-177.21 626.43,-141.58"/>
<polygon fill="midnightblue" stroke="midnightblue" points="629.91,-141.95 627.81,-131.57 622.97,-140.99 629.91,-141.95"/>
</g>
<!-- Node12&#45;&gt;Node6 -->
<g id="edge17" class="edge">
<title>Node12&#45;&gt;Node6</title>
<path fill="none" stroke="midnightblue" d="M643.05,-289.09C731.68,-287.03 955.7,-267.99 1052,-132 1057.14,-124.75 1057.7,-118.82 1052,-112 1026.52,-81.5 912.68,-71.64 848.11,-68.47"/>
<polygon fill="midnightblue" stroke="midnightblue" points="847.95,-64.96 837.8,-68 847.63,-71.95 847.95,-64.96"/>
</g>
<!-- Node12&#45;&gt;Node10 -->
<g id="edge27" class="edge">
<title>Node12&#45;&gt;Node10</title>
<path fill="none" stroke="midnightblue" d="M602.45,-280.46C593.59,-259.76 568.98,-205.86 538,-168 489.7,-108.98 475.07,-92.29 408,-56 371.31,-36.15 324.91,-24.21 292.29,-17.67"/>
<polygon fill="midnightblue" stroke="midnightblue" points="292.69,-14.18 282.21,-15.73 291.37,-21.06 292.69,-14.18"/>
</g>
<!-- Node13 -->
<g id="node13" class="node">
<title>Node13</title>
<g id="a_node13"><a xlink:href="v8-value_8h.html" target="_top" xlink:title=" ">
<polygon fill="white" stroke="black" points="391.5,-224.5 391.5,-243.5 452.5,-243.5 452.5,-224.5 391.5,-224.5"/>
<text text-anchor="middle" x="422" y="-231.5" font-family="Helvetica,sans-Serif" font-size="10.00">v8&#45;value.h</text>
</a>
</g>
</g>
<!-- Node12&#45;&gt;Node13 -->
<g id="edge19" class="edge">
<title>Node12&#45;&gt;Node13</title>
<path fill="none" stroke="midnightblue" d="M576.84,-280.44C545.49,-271.24 495.47,-256.56 460.8,-246.39"/>
<polygon fill="midnightblue" stroke="midnightblue" points="461.6,-242.97 451.02,-243.52 459.63,-249.69 461.6,-242.97"/>
</g>
<!-- Node13&#45;&gt;Node2 -->
<g id="edge20" class="edge">
<title>Node13&#45;&gt;Node2</title>
<path fill="none" stroke="midnightblue" d="M434.69,-224.32C446.9,-215.98 465.58,-203.21 480,-193.35"/>
<polygon fill="midnightblue" stroke="midnightblue" points="482.06,-196.19 488.34,-187.65 478.11,-190.41 482.06,-196.19"/>
</g>
<!-- Node13&#45;&gt;Node3 -->
<g id="edge22" class="edge">
<title>Node13&#45;&gt;Node3</title>
<path fill="none" stroke="midnightblue" d="M425.18,-224.39C430.8,-210.38 443.83,-182.76 464,-168 496.03,-144.56 539.6,-133.33 573.92,-127.95"/>
<polygon fill="midnightblue" stroke="midnightblue" points="574.86,-131.35 584.25,-126.46 573.86,-124.42 574.86,-131.35"/>
</g>
<!-- Node13&#45;&gt;Node6 -->
<g id="edge21" class="edge">
<title>Node13&#45;&gt;Node6</title>
<path fill="none" stroke="midnightblue" d="M422.4,-224.29C423.47,-210.64 427.43,-184.11 442,-168 484.53,-120.99 671.42,-87.03 758.3,-73.49"/>
<polygon fill="midnightblue" stroke="midnightblue" points="759.03,-76.92 768.38,-71.94 757.97,-70 759.03,-76.92"/>
</g>
<!-- Node13&#45;&gt;Node10 -->
<g id="edge26" class="edge">
<title>Node13&#45;&gt;Node10</title>
<path fill="none" stroke="midnightblue" d="M391.21,-230.04C340.4,-224.55 242.09,-211.19 217,-188 173.77,-148.04 180.31,-108.97 206,-56 211.67,-44.3 221.69,-33.94 230.94,-26.12"/>
<polygon fill="midnightblue" stroke="midnightblue" points="233.4,-28.63 239.06,-19.68 229.05,-23.15 233.4,-28.63"/>
</g>
<!-- Node14 -->
<g id="node14" class="node">
<title>Node14</title>
<g id="a_node14"><a xlink:href="v8-maybe_8h.html" target="_top" xlink:title=" ">
<polygon fill="white" stroke="black" points="104,-168.5 104,-187.5 170,-187.5 170,-168.5 104,-168.5"/>
<text text-anchor="middle" x="137" y="-175.5" font-family="Helvetica,sans-Serif" font-size="10.00">v8&#45;maybe.h</text>
</a>
</g>
</g>
<!-- Node13&#45;&gt;Node14 -->
<g id="edge23" class="edge">
<title>Node13&#45;&gt;Node14</title>
<path fill="none" stroke="midnightblue" d="M391.19,-227.2C345.81,-218.65 258.36,-202.15 184,-188 182.74,-187.76 181.46,-187.52 180.16,-187.27"/>
<polygon fill="midnightblue" stroke="midnightblue" points="180.6,-183.79 170.12,-185.35 179.29,-190.67 180.6,-183.79"/>
</g>
<!-- Node14&#45;&gt;Node6 -->
<g id="edge24" class="edge">
<title>Node14&#45;&gt;Node6</title>
<path fill="none" stroke="midnightblue" d="M170.08,-170.5C211.4,-162.25 284.19,-147.22 346,-132 378.25,-124.06 385.41,-118.39 418,-112 539.95,-88.08 686.3,-75.26 758.39,-69.96"/>
<polygon fill="midnightblue" stroke="midnightblue" points="758.75,-73.45 768.47,-69.24 758.25,-66.47 758.75,-73.45"/>
</g>
<!-- Node14&#45;&gt;Node10 -->
<g id="edge25" class="edge">
<title>Node14&#45;&gt;Node10</title>
<path fill="none" stroke="midnightblue" d="M126.56,-168.24C117.58,-159.97 105.25,-146.66 100,-132 88.61,-100.2 79.79,-83.06 100,-56 125.56,-21.78 175.98,-12.51 211.74,-10.52"/>
<polygon fill="midnightblue" stroke="midnightblue" points="212,-14.01 221.86,-10.12 211.73,-7.02 212,-14.01"/>
</g>
<!-- Node15&#45;&gt;Node4 -->
<g id="edge31" class="edge">
<title>Node15&#45;&gt;Node4</title>
<path fill="none" stroke="midnightblue" d="M338.18,-57.77C411.32,-46.8 548.74,-26.19 613.93,-16.41"/>
<polygon fill="midnightblue" stroke="midnightblue" points="614.75,-19.83 624.12,-14.88 613.71,-12.9 614.75,-19.83"/>
</g>
<!-- Node15&#45;&gt;Node10 -->
<g id="edge32" class="edge">
<title>Node15&#45;&gt;Node10</title>
<path fill="none" stroke="midnightblue" d="M283.73,-56.08C278.36,-48.46 270.48,-37.26 263.92,-27.94"/>
<polygon fill="midnightblue" stroke="midnightblue" points="266.78,-25.91 258.16,-19.75 261.05,-29.94 266.78,-25.91"/>
</g>
<!-- Node16&#45;&gt;Node3 -->
<g id="edge34" class="edge">
<title>Node16&#45;&gt;Node3</title>
<path fill="none" stroke="midnightblue" d="M413.78,-336.3C447.44,-302.94 568.54,-182.92 612.72,-139.13"/>
<polygon fill="midnightblue" stroke="midnightblue" points="615.4,-141.41 620.04,-131.88 610.47,-136.44 615.4,-141.41"/>
</g>
<!-- Node16&#45;&gt;Node10 -->
<g id="edge56" class="edge">
<title>Node16&#45;&gt;Node10</title>
<path fill="none" stroke="midnightblue" d="M372.75,-345.05C283.2,-343.35 38,-325.33 38,-179 38,-179 38,-179 38,-121 38,-43.8 149.53,-20.74 211.56,-13.88"/>
<polygon fill="midnightblue" stroke="midnightblue" points="212.2,-17.33 221.79,-12.84 211.49,-10.37 212.2,-17.33"/>
</g>
<!-- Node16&#45;&gt;Node12 -->
<g id="edge42" class="edge">
<title>Node16&#45;&gt;Node12</title>
<path fill="none" stroke="midnightblue" d="M436.85,-336.44C471.4,-327.16 526.68,-312.31 564.58,-302.13"/>
<polygon fill="midnightblue" stroke="midnightblue" points="565.55,-305.49 574.3,-299.52 563.73,-298.73 565.55,-305.49"/>
</g>
<!-- Node16&#45;&gt;Node13 -->
<g id="edge55" class="edge">
<title>Node16&#45;&gt;Node13</title>
<path fill="none" stroke="midnightblue" d="M406.33,-336.37C409.08,-318.62 415.41,-277.67 419.13,-253.6"/>
<polygon fill="midnightblue" stroke="midnightblue" points="422.6,-254.01 420.67,-243.59 415.69,-252.94 422.6,-254.01"/>
</g>
<!-- Node16&#45;&gt;Node14 -->
<g id="edge35" class="edge">
<title>Node16&#45;&gt;Node14</title>
<path fill="none" stroke="midnightblue" d="M390.97,-336.31C347.28,-309.25 213.4,-226.32 159.67,-193.04"/>
<polygon fill="midnightblue" stroke="midnightblue" points="161.24,-189.9 150.89,-187.61 157.55,-195.85 161.24,-189.9"/>
</g>
<!-- Node17 -->
<g id="node17" class="node">
<title>Node17</title>
<g id="a_node17"><a xlink:href="v8-persistent-handle_8h.html" target="_top" xlink:title=" ">
<polygon fill="white" stroke="black" points="226,-168.5 226,-187.5 338,-187.5 338,-168.5 226,-168.5"/>
<text text-anchor="middle" x="282" y="-175.5" font-family="Helvetica,sans-Serif" font-size="10.00">v8&#45;persistent&#45;handle.h</text>
</a>
</g>
</g>
<!-- Node16&#45;&gt;Node17 -->
<g id="edge36" class="edge">
<title>Node16&#45;&gt;Node17</title>
<path fill="none" stroke="midnightblue" d="M398.39,-336.08C378.69,-309.49 320.19,-230.54 294.42,-195.76"/>
<polygon fill="midnightblue" stroke="midnightblue" points="297.11,-193.52 288.35,-187.57 291.49,-197.69 297.11,-193.52"/>
</g>
<!-- Node19 -->
<g id="node19" class="node">
<title>Node19</title>
<g id="a_node19"><a xlink:href="v8-traced-handle_8h.html" target="_top" xlink:title=" ">
<polygon fill="white" stroke="black" points="783,-168.5 783,-187.5 879,-187.5 879,-168.5 783,-168.5"/>
<text text-anchor="middle" x="831" y="-175.5" font-family="Helvetica,sans-Serif" font-size="10.00">v8&#45;traced&#45;handle.h</text>
</a>
</g>
</g>
<!-- Node16&#45;&gt;Node19 -->
<g id="edge43" class="edge">
<title>Node16&#45;&gt;Node19</title>
<path fill="none" stroke="midnightblue" d="M437.37,-343.35C485.72,-339.96 578.95,-329.8 652,-300 717.4,-273.32 783.43,-220.43 813.79,-194.31"/>
<polygon fill="midnightblue" stroke="midnightblue" points="816.13,-196.91 821.37,-187.7 811.53,-191.64 816.13,-196.91"/>
</g>
<!-- Node17&#45;&gt;Node3 -->
<g id="edge38" class="edge">
<title>Node17&#45;&gt;Node3</title>
<path fill="none" stroke="midnightblue" d="M336.98,-168.44C402.01,-158.32 509.6,-141.58 574.44,-131.49"/>
<polygon fill="midnightblue" stroke="midnightblue" points="575.13,-134.93 584.47,-129.93 574.05,-128.01 575.13,-134.93"/>
</g>
<!-- Node17&#45;&gt;Node6 -->
<g id="edge37" class="edge">
<title>Node17&#45;&gt;Node6</title>
<path fill="none" stroke="midnightblue" d="M309.82,-168.47C337.46,-159.84 380.95,-145.83 418,-132 439.65,-123.92 443.69,-118.03 466,-112 568.29,-84.38 692.83,-73.37 758.11,-69.25"/>
<polygon fill="midnightblue" stroke="midnightblue" points="758.68,-72.73 768.45,-68.63 758.26,-65.74 758.68,-72.73"/>
</g>
<!-- Node17&#45;&gt;Node10 -->
<g id="edge41" class="edge">
<title>Node17&#45;&gt;Node10</title>
<path fill="none" stroke="midnightblue" d="M255.79,-168.41C239.15,-161.44 218.94,-149.81 209,-132 189.45,-96.98 218.61,-51.42 237.68,-27.43"/>
<polygon fill="midnightblue" stroke="midnightblue" points="240.46,-29.57 244.14,-19.63 235.06,-25.1 240.46,-29.57"/>
</g>
<!-- Node18 -->
<g id="node18" class="node">
<title>Node18</title>
<g id="a_node18"><a xlink:href="v8-weak-callback-info_8h.html" target="_top" xlink:title=" ">
<polygon fill="white" stroke="black" points="218.5,-112.5 218.5,-131.5 337.5,-131.5 337.5,-112.5 218.5,-112.5"/>
<text text-anchor="middle" x="278" y="-119.5" font-family="Helvetica,sans-Serif" font-size="10.00">v8&#45;weak&#45;callback&#45;info.h</text>
</a>
</g>
</g>
<!-- Node17&#45;&gt;Node18 -->
<g id="edge39" class="edge">
<title>Node17&#45;&gt;Node18</title>
<path fill="none" stroke="midnightblue" d="M281.34,-168.08C280.82,-161.01 280.06,-150.86 279.41,-141.99"/>
<polygon fill="midnightblue" stroke="midnightblue" points="282.88,-141.47 278.65,-131.75 275.9,-141.98 282.88,-141.47"/>
</g>
<!-- Node18&#45;&gt;Node10 -->
<g id="edge40" class="edge">
<title>Node18&#45;&gt;Node10</title>
<path fill="none" stroke="midnightblue" d="M264.94,-112.44C254.09,-104.47 239.43,-91.52 233,-76 226.48,-60.27 233.42,-41.53 240.68,-28.22"/>
<polygon fill="midnightblue" stroke="midnightblue" points="243.7,-29.99 245.83,-19.62 237.69,-26.4 243.7,-29.99"/>
</g>
<!-- Node19&#45;&gt;Node3 -->
<g id="edge52" class="edge">
<title>Node19&#45;&gt;Node3</title>
<path fill="none" stroke="midnightblue" d="M798.99,-168.44C764.27,-159.16 708.71,-144.31 670.62,-134.13"/>
<polygon fill="midnightblue" stroke="midnightblue" points="671.42,-130.72 660.86,-131.52 669.61,-137.48 671.42,-130.72"/>
</g>
<!-- Node19&#45;&gt;Node4 -->
<g id="edge44" class="edge">
<title>Node19&#45;&gt;Node4</title>
<path fill="none" stroke="midnightblue" d="M812.05,-168.46C796.38,-160.68 774.29,-147.97 759,-132 732.16,-103.96 742.27,-84.56 716,-56 704.52,-43.52 688.94,-32.69 675.8,-24.78"/>
<polygon fill="midnightblue" stroke="midnightblue" points="677.17,-21.53 666.76,-19.56 673.67,-27.6 677.17,-21.53"/>
</g>
<!-- Node19&#45;&gt;Node5 -->
<g id="edge49" class="edge">
<title>Node19&#45;&gt;Node5</title>
<path fill="none" stroke="midnightblue" d="M879.13,-174.13C937.45,-169.53 1030.6,-158.19 1052,-132 1093.51,-81.18 989.21,-40.7 927.91,-22.1"/>
<polygon fill="midnightblue" stroke="midnightblue" points="928.69,-18.68 918.11,-19.2 926.7,-25.39 928.69,-18.68"/>
</g>
<!-- Node19&#45;&gt;Node6 -->
<g id="edge51" class="edge">
<title>Node19&#45;&gt;Node6</title>
<path fill="none" stroke="midnightblue" d="M879.29,-168.95C921.28,-159.77 972.19,-142 950,-112 926.7,-80.5 881.78,-70.33 847.7,-67.38"/>
<polygon fill="midnightblue" stroke="midnightblue" points="847.72,-63.88 837.5,-66.69 847.24,-70.86 847.72,-63.88"/>
</g>
<!-- Node19&#45;&gt;Node7 -->
<g id="edge45" class="edge">
<title>Node19&#45;&gt;Node7</title>
<path fill="none" stroke="midnightblue" d="M879.22,-174.96C941.92,-171.17 1046.25,-160.64 1070,-132 1095.42,-101.35 1066.62,-53.26 1047.77,-27.92"/>
<polygon fill="midnightblue" stroke="midnightblue" points="1050.28,-25.45 1041.39,-19.69 1044.75,-29.74 1050.28,-25.45"/>
</g>
<!-- Node19&#45;&gt;Node10 -->
<g id="edge54" class="edge">
<title>Node19&#45;&gt;Node10</title>
<path fill="none" stroke="midnightblue" d="M813.16,-168.36C758.48,-141.93 595.45,-63.52 570,-56 472.95,-27.32 353.67,-16.69 292.46,-12.93"/>
<polygon fill="midnightblue" stroke="midnightblue" points="292.62,-9.43 282.44,-12.34 292.22,-16.42 292.62,-9.43"/>
</g>
<!-- Node19&#45;&gt;Node18 -->
<g id="edge53" class="edge">
<title>Node19&#45;&gt;Node18</title>
<path fill="none" stroke="midnightblue" d="M782.89,-172.3C684.81,-162.73 461.43,-140.91 347.54,-129.79"/>
<polygon fill="midnightblue" stroke="midnightblue" points="347.83,-126.3 337.54,-128.81 347.15,-133.27 347.83,-126.3"/>
</g>
<!-- Node20 -->
<g id="node20" class="node">
<title>Node20</title>
<g id="a_node20"><a xlink:title=" ">
<polygon fill="white" stroke="#bfbfbf" points="997.5,-112.5 997.5,-131.5 1042.5,-131.5 1042.5,-112.5 997.5,-112.5"/>
<text text-anchor="middle" x="1020" y="-119.5" font-family="Helvetica,sans-Serif" font-size="10.00">stdio.h</text>
</a>
</g>
</g>
<!-- Node19&#45;&gt;Node20 -->
<g id="edge46" class="edge">
<title>Node19&#45;&gt;Node20</title>
<path fill="none" stroke="midnightblue" d="M860.95,-168.44C895.43,-158.59 951.88,-142.46 987.43,-132.3"/>
<polygon fill="midnightblue" stroke="midnightblue" points="988.66,-135.6 997.31,-129.48 986.73,-128.86 988.66,-135.6"/>
</g>
<!-- Node21 -->
<g id="node21" class="node">
<title>Node21</title>
<g id="a_node21"><a xlink:title=" ">
<polygon fill="white" stroke="#bfbfbf" points="768,-112.5 768,-131.5 814,-131.5 814,-112.5 768,-112.5"/>
<text text-anchor="middle" x="791" y="-119.5" font-family="Helvetica,sans-Serif" font-size="10.00">atomic</text>
</a>
</g>
</g>
<!-- Node19&#45;&gt;Node21 -->
<g id="edge47" class="edge">
<title>Node19&#45;&gt;Node21</title>
<path fill="none" stroke="midnightblue" d="M824.39,-168.08C818.74,-160.46 810.46,-149.26 803.55,-139.94"/>
<polygon fill="midnightblue" stroke="midnightblue" points="806.25,-137.7 797.48,-131.75 800.62,-141.87 806.25,-137.7"/>
</g>
<!-- Node22 -->
<g id="node22" class="node">
<title>Node22</title>
<g id="a_node22"><a xlink:title=" ">
<polygon fill="white" stroke="#bfbfbf" points="832.5,-112.5 832.5,-131.5 883.5,-131.5 883.5,-112.5 832.5,-112.5"/>
<text text-anchor="middle" x="858" y="-119.5" font-family="Helvetica,sans-Serif" font-size="10.00">memory</text>
</a>
</g>
</g>
<!-- Node19&#45;&gt;Node22 -->
<g id="edge48" class="edge">
<title>Node19&#45;&gt;Node22</title>
<path fill="none" stroke="midnightblue" d="M835.46,-168.08C839.15,-160.69 844.52,-149.95 849.09,-140.81"/>
<polygon fill="midnightblue" stroke="midnightblue" points="852.28,-142.26 853.62,-131.75 846.02,-139.13 852.28,-142.26"/>
</g>
<!-- Node23 -->
<g id="node23" class="node">
<title>Node23</title>
<g id="a_node23"><a xlink:title=" ">
<polygon fill="white" stroke="#bfbfbf" points="901.5,-112.5 901.5,-131.5 940.5,-131.5 940.5,-112.5 901.5,-112.5"/>
<text text-anchor="middle" x="921" y="-119.5" font-family="Helvetica,sans-Serif" font-size="10.00">utility</text>
</a>
</g>
</g>
<!-- Node19&#45;&gt;Node23 -->
<g id="edge50" class="edge">
<title>Node19&#45;&gt;Node23</title>
<path fill="none" stroke="midnightblue" d="M845.46,-168.32C859.5,-159.9 881.05,-146.97 897.54,-137.07"/>
<polygon fill="midnightblue" stroke="midnightblue" points="899.8,-139.8 906.58,-131.65 896.2,-133.8 899.8,-139.8"/>
</g>
</g>
</svg>
