<?xml version="1.0" encoding="UTF-8" standalone="no"?>
<!DOCTYPE svg PUBLIC "-//W3C//DTD SVG 1.1//EN"
 "http://www.w3.org/Graphics/SVG/1.1/DTD/svg11.dtd">
<!-- Generated by graphviz version 2.49.3 (20211027.1534)
 -->
<!-- Title: v8::internal::JSMemberBase::IsEmpty Pages: 1 -->
<svg width="318pt" height="78pt"
 viewBox="0.00 0.00 318.00 77.50" xmlns="http://www.w3.org/2000/svg" xmlns:xlink="http://www.w3.org/1999/xlink">
<g id="graph0" class="graph" transform="scale(1 1) rotate(0) translate(4 73.5)">
<title>v8::internal::JSMemberBase::IsEmpty</title>
<polygon fill="white" stroke="transparent" points="-4,4 -4,-73.5 314,-73.5 314,4 -4,4"/>
<!-- Node1 -->
<g id="node1" class="node">
<title>Node1</title>
<g id="a_node1"><a xlink:title=" ">
<polygon fill="#bfbfbf" stroke="black" points="173,-17 173,-47 310,-47 310,-17 173,-17"/>
<text text-anchor="start" x="181" y="-35" font-family="Helvetica,sans-Serif" font-size="10.00">v8::internal::JSMemberBase</text>
<text text-anchor="middle" x="241.5" y="-24" font-family="Helvetica,sans-Serif" font-size="10.00">::IsEmpty</text>
</a>
</g>
</g>
<!-- Node2 -->
<g id="node2" class="node">
<title>Node2</title>
<g id="a_node2"><a xlink:href="classv8_1_1internal_1_1JSMemberBase.html#a70fb3191b5102c59da448af54c5949d1" target="_top" xlink:title=" ">
<polygon fill="white" stroke="black" points="0,-39 0,-69 137,-69 137,-39 0,-39"/>
<text text-anchor="start" x="8" y="-57" font-family="Helvetica,sans-Serif" font-size="10.00">v8::internal::JSMemberBase</text>
<text text-anchor="middle" x="68.5" y="-46" font-family="Helvetica,sans-Serif" font-size="10.00">::Reset</text>
</a>
</g>
</g>
<!-- Node1&#45;&gt;Node2 -->
<g id="edge1" class="edge">
<title>Node1&#45;&gt;Node2</title>
<path fill="none" stroke="midnightblue" d="M162.9,-41.98C154.31,-43.09 145.61,-44.21 137.15,-45.3"/>
<polygon fill="midnightblue" stroke="midnightblue" points="163.44,-45.44 172.92,-40.69 162.55,-38.5 163.44,-45.44"/>
</g>
<!-- Node3 -->
<g id="node3" class="node">
<title>Node3</title>
<g id="a_node3"><a xlink:href="classv8_1_1JSVisitor.html#abbe9db612cde1a9010aba8cb604fcf78" target="_top" xlink:title=" ">
<polygon fill="white" stroke="black" points="18,-0.5 18,-19.5 119,-19.5 119,-0.5 18,-0.5"/>
<text text-anchor="middle" x="68.5" y="-7.5" font-family="Helvetica,sans-Serif" font-size="10.00">v8::JSVisitor::Trace</text>
</a>
</g>
</g>
<!-- Node1&#45;&gt;Node3 -->
<g id="edge2" class="edge">
<title>Node1&#45;&gt;Node3</title>
<path fill="none" stroke="midnightblue" d="M162.74,-22C147.94,-20.09 132.82,-18.15 119.19,-16.39"/>
<polygon fill="midnightblue" stroke="midnightblue" points="162.55,-25.5 172.92,-23.31 163.44,-18.56 162.55,-25.5"/>
</g>
</g>
</svg>
