<?xml version="1.0" encoding="UTF-8" standalone="no"?>
<!DOCTYPE svg PUBLIC "-//W3C//DTD SVG 1.1//EN"
 "http://www.w3.org/Graphics/SVG/1.1/DTD/svg11.dtd">
<!-- Generated by graphviz version 2.49.3 (20211027.1534)
 -->
<!-- Title: cppgc::internal::BasicMember::Get Pages: 1 -->
<svg width="351pt" height="488pt"
 viewBox="0.00 0.00 351.00 488.00" xmlns="http://www.w3.org/2000/svg" xmlns:xlink="http://www.w3.org/1999/xlink">
<g id="graph0" class="graph" transform="scale(1 1) rotate(0) translate(4 484)">
<title>cppgc::internal::BasicMember::Get</title>
<polygon fill="white" stroke="transparent" points="-4,4 -4,-484 347,-484 347,4 -4,4"/>
<!-- Node1 -->
<g id="node1" class="node">
<title>Node1</title>
<g id="a_node1"><a xlink:title=" ">
<polygon fill="#bfbfbf" stroke="black" points="179,-234 179,-253 343,-253 343,-234 179,-234"/>
<text text-anchor="middle" x="261" y="-241" font-family="Helvetica,sans-Serif" font-size="10.00">cppgc::internal::BasicMember::Get</text>
</a>
</g>
</g>
<!-- Node2 -->
<g id="node2" class="node">
<title>Node2</title>
<g id="a_node2"><a xlink:href="classcppgc_1_1internal_1_1BasicMember.html#a04b6b0de171d43db9495b3bf9da05383" target="_top" xlink:title=" ">
<polygon fill="white" stroke="black" points="0,-449.5 0,-479.5 143,-479.5 143,-449.5 0,-449.5"/>
<text text-anchor="start" x="8" y="-467.5" font-family="Helvetica,sans-Serif" font-size="10.00">cppgc::internal::BasicMember</text>
<text text-anchor="middle" x="71.5" y="-456.5" font-family="Helvetica,sans-Serif" font-size="10.00">::BasicMember</text>
</a>
</g>
</g>
<!-- Node1&#45;&gt;Node2 -->
<g id="edge1" class="edge">
<title>Node1&#45;&gt;Node2</title>
<path fill="none" stroke="midnightblue" d="M253.63,-263.03C239.82,-302.36 203.43,-391.48 143,-440.5 138.78,-443.92 134.05,-446.87 129.09,-449.4"/>
<polygon fill="midnightblue" stroke="midnightblue" points="257.02,-263.93 256.92,-253.34 250.39,-261.68 257.02,-263.93"/>
</g>
<!-- Node3 -->
<g id="node3" class="node">
<title>Node3</title>
<g id="a_node3"><a xlink:href="classcppgc_1_1LivenessBroker.html#aee6371e43c399799c9ed0f3b84674cfa" target="_top" xlink:title=" ">
<polygon fill="white" stroke="black" points="13.5,-400.5 13.5,-430.5 129.5,-430.5 129.5,-400.5 13.5,-400.5"/>
<text text-anchor="start" x="21.5" y="-418.5" font-family="Helvetica,sans-Serif" font-size="10.00">cppgc::LivenessBroker</text>
<text text-anchor="middle" x="71.5" y="-407.5" font-family="Helvetica,sans-Serif" font-size="10.00">::IsHeapObjectAlive</text>
</a>
</g>
</g>
<!-- Node1&#45;&gt;Node3 -->
<g id="edge2" class="edge">
<title>Node1&#45;&gt;Node3</title>
<path fill="none" stroke="midnightblue" d="M250.18,-261.91C232.69,-293.02 193.21,-356.03 143,-391.5 138.14,-394.93 132.75,-397.9 127.18,-400.47"/>
<polygon fill="midnightblue" stroke="midnightblue" points="253.32,-263.46 255.07,-253.01 247.19,-260.09 253.32,-263.46"/>
</g>
<!-- Node4 -->
<g id="node4" class="node">
<title>Node4</title>
<g id="a_node4"><a xlink:href="classcppgc_1_1internal_1_1BasicMember.html#aa11d97f26b6d1076c5d38d3cd7aa3642" target="_top" xlink:title=" ">
<polygon fill="white" stroke="black" points="0,-351.5 0,-381.5 143,-381.5 143,-351.5 0,-351.5"/>
<text text-anchor="start" x="8" y="-369.5" font-family="Helvetica,sans-Serif" font-size="10.00">cppgc::internal::BasicMember</text>
<text text-anchor="middle" x="71.5" y="-358.5" font-family="Helvetica,sans-Serif" font-size="10.00">::operator bool</text>
</a>
</g>
</g>
<!-- Node1&#45;&gt;Node4 -->
<g id="edge3" class="edge">
<title>Node1&#45;&gt;Node4</title>
<path fill="none" stroke="midnightblue" d="M244,-260.52C222.77,-282.24 183.24,-319.72 143,-342.5 137.15,-345.81 130.77,-348.77 124.31,-351.38"/>
<polygon fill="midnightblue" stroke="midnightblue" points="246.8,-262.66 251.21,-253.03 241.75,-257.81 246.8,-262.66"/>
</g>
<!-- Node5 -->
<g id="node5" class="node">
<title>Node5</title>
<g id="a_node5"><a xlink:href="classcppgc_1_1internal_1_1BasicMember.html#ad581b62049b232e53bd60812295b9e89" target="_top" xlink:title=" ">
<polygon fill="white" stroke="black" points="0,-302.5 0,-332.5 143,-332.5 143,-302.5 0,-302.5"/>
<text text-anchor="start" x="8" y="-320.5" font-family="Helvetica,sans-Serif" font-size="10.00">cppgc::internal::BasicMember</text>
<text text-anchor="middle" x="71.5" y="-309.5" font-family="Helvetica,sans-Serif" font-size="10.00">::operator T*</text>
</a>
</g>
</g>
<!-- Node1&#45;&gt;Node5 -->
<g id="edge4" class="edge">
<title>Node1&#45;&gt;Node5</title>
<path fill="none" stroke="midnightblue" d="M229.65,-257.22C206.18,-267.64 172.78,-282.09 143,-293.5 135.15,-296.51 126.75,-299.54 118.57,-302.38"/>
<polygon fill="midnightblue" stroke="midnightblue" points="231.36,-260.29 239.06,-253.02 228.5,-253.9 231.36,-260.29"/>
</g>
<!-- Node6 -->
<g id="node6" class="node">
<title>Node6</title>
<g id="a_node6"><a xlink:href="classcppgc_1_1internal_1_1BasicMember.html#acc9065ca66a6b5c2b7e9ef698da704dd" target="_top" xlink:title=" ">
<polygon fill="white" stroke="black" points="0,-253.5 0,-283.5 143,-283.5 143,-253.5 0,-253.5"/>
<text text-anchor="start" x="8" y="-271.5" font-family="Helvetica,sans-Serif" font-size="10.00">cppgc::internal::BasicMember</text>
<text text-anchor="middle" x="71.5" y="-260.5" font-family="Helvetica,sans-Serif" font-size="10.00">::operator*</text>
</a>
</g>
</g>
<!-- Node1&#45;&gt;Node6 -->
<g id="edge5" class="edge">
<title>Node1&#45;&gt;Node6</title>
<path fill="none" stroke="midnightblue" d="M178.35,-254.39C166.6,-255.95 154.61,-257.55 143.1,-259.09"/>
<polygon fill="midnightblue" stroke="midnightblue" points="179.13,-257.81 188.58,-253.02 178.2,-250.88 179.13,-257.81"/>
</g>
<!-- Node7 -->
<g id="node7" class="node">
<title>Node7</title>
<g id="a_node7"><a xlink:href="classcppgc_1_1internal_1_1BasicMember.html#a869546e76dafd3fa752dae7e11d441c9" target="_top" xlink:title=" ">
<polygon fill="white" stroke="black" points="0,-204.5 0,-234.5 143,-234.5 143,-204.5 0,-204.5"/>
<text text-anchor="start" x="8" y="-222.5" font-family="Helvetica,sans-Serif" font-size="10.00">cppgc::internal::BasicMember</text>
<text text-anchor="middle" x="71.5" y="-211.5" font-family="Helvetica,sans-Serif" font-size="10.00">::operator&#45;&gt;</text>
</a>
</g>
</g>
<!-- Node1&#45;&gt;Node7 -->
<g id="edge6" class="edge">
<title>Node1&#45;&gt;Node7</title>
<path fill="none" stroke="midnightblue" d="M175.69,-232.71C164.81,-231.32 153.75,-229.9 143.12,-228.54"/>
<polygon fill="midnightblue" stroke="midnightblue" points="175.26,-236.18 185.63,-233.98 176.15,-229.24 175.26,-236.18"/>
</g>
<!-- Node8 -->
<g id="node8" class="node">
<title>Node8</title>
<g id="a_node8"><a xlink:href="classcppgc_1_1internal_1_1BasicMember.html#abe0688e901473e5e94109602a73c79f6" target="_top" xlink:title=" ">
<polygon fill="white" stroke="black" points="0,-137.5 0,-167.5 143,-167.5 143,-137.5 0,-137.5"/>
<text text-anchor="start" x="8" y="-155.5" font-family="Helvetica,sans-Serif" font-size="10.00">cppgc::internal::BasicMember</text>
<text text-anchor="middle" x="71.5" y="-144.5" font-family="Helvetica,sans-Serif" font-size="10.00">::operator=</text>
</a>
</g>
</g>
<!-- Node1&#45;&gt;Node8 -->
<g id="edge7" class="edge">
<title>Node1&#45;&gt;Node8</title>
<path fill="none" stroke="midnightblue" d="M231.22,-229.53C196.75,-212.8 139.23,-184.89 103.72,-167.65"/>
<polygon fill="midnightblue" stroke="midnightblue" points="229.76,-232.72 240.29,-233.93 232.82,-226.42 229.76,-232.72"/>
</g>
<!-- Node9 -->
<g id="node9" class="node">
<title>Node9</title>
<g id="a_node9"><a xlink:href="namespacecppgc_1_1internal.html#aab40a961a20aafa179a0935db476ef89" target="_top" xlink:title=" ">
<polygon fill="white" stroke="black" points="6,-99 6,-118 137,-118 137,-99 6,-99"/>
<text text-anchor="middle" x="71.5" y="-106" font-family="Helvetica,sans-Serif" font-size="10.00">cppgc::internal::operator==</text>
</a>
</g>
</g>
<!-- Node1&#45;&gt;Node9 -->
<g id="edge9" class="edge">
<title>Node1&#45;&gt;Node9</title>
<path fill="none" stroke="midnightblue" d="M246.84,-225.84C227.07,-200.55 187.27,-154.24 143,-128.5 135.63,-124.22 127.29,-120.8 118.99,-118.1"/>
<polygon fill="midnightblue" stroke="midnightblue" points="244.11,-228.03 252.97,-233.84 249.67,-223.77 244.11,-228.03"/>
</g>
<!-- Node10 -->
<g id="node10" class="node">
<title>Node10</title>
<g id="a_node10"><a xlink:href="classcppgc_1_1internal_1_1BasicMember.html#a7243a967ad9d8dce3b27aa09b931ad98" target="_top" xlink:title=" ">
<polygon fill="white" stroke="black" points="0,-49.5 0,-79.5 143,-79.5 143,-49.5 0,-49.5"/>
<text text-anchor="start" x="8" y="-67.5" font-family="Helvetica,sans-Serif" font-size="10.00">cppgc::internal::BasicMember</text>
<text text-anchor="middle" x="71.5" y="-56.5" font-family="Helvetica,sans-Serif" font-size="10.00">::Release</text>
</a>
</g>
</g>
<!-- Node1&#45;&gt;Node10 -->
<g id="edge10" class="edge">
<title>Node1&#45;&gt;Node10</title>
<path fill="none" stroke="midnightblue" d="M250.32,-224.4C233.05,-192.12 193.89,-126.68 143,-89.5 137.76,-85.67 131.87,-82.38 125.8,-79.57"/>
<polygon fill="midnightblue" stroke="midnightblue" points="247.42,-226.39 255.15,-233.63 253.62,-223.15 247.42,-226.39"/>
</g>
<!-- Node11 -->
<g id="node11" class="node">
<title>Node11</title>
<g id="a_node11"><a xlink:href="classcppgc_1_1internal_1_1BasicMember.html#a3c3517914f2c32b5e0375915d4cf843f" target="_top" xlink:title=" ">
<polygon fill="white" stroke="black" points="0,-0.5 0,-30.5 143,-30.5 143,-0.5 0,-0.5"/>
<text text-anchor="start" x="8" y="-18.5" font-family="Helvetica,sans-Serif" font-size="10.00">cppgc::internal::BasicMember</text>
<text text-anchor="middle" x="71.5" y="-7.5" font-family="Helvetica,sans-Serif" font-size="10.00">::Swap</text>
</a>
</g>
</g>
<!-- Node1&#45;&gt;Node11 -->
<g id="edge11" class="edge">
<title>Node1&#45;&gt;Node11</title>
<path fill="none" stroke="midnightblue" d="M254.02,-224.26C240.65,-184.29 204.56,-91.76 143,-40.5 138.41,-36.68 133.19,-33.42 127.72,-30.65"/>
<polygon fill="midnightblue" stroke="midnightblue" points="250.72,-225.42 257.13,-233.85 257.38,-223.26 250.72,-225.42"/>
</g>
<!-- Node8&#45;&gt;Node8 -->
<g id="edge8" class="edge">
<title>Node8&#45;&gt;Node8</title>
<path fill="none" stroke="midnightblue" d="M104.91,-177.96C100.76,-182.68 89.62,-186 71.5,-186 41.76,-186 30.84,-177.06 38.74,-167.66"/>
<polygon fill="midnightblue" stroke="midnightblue" points="108.38,-177.42 104.26,-167.66 101.39,-177.86 108.38,-177.42"/>
</g>
</g>
</svg>
