<?xml version="1.0" encoding="UTF-8" standalone="no"?>
<!DOCTYPE svg PUBLIC "-//W3C//DTD SVG 1.1//EN"
 "http://www.w3.org/Graphics/SVG/1.1/DTD/svg11.dtd">
<!-- Generated by graphviz version 2.49.3 (20211027.1534)
 -->
<!-- Title: v8::PersistentBase::IsEmpty Pages: 1 -->
<svg width="374pt" height="116pt"
 viewBox="0.00 0.00 374.00 116.00" xmlns="http://www.w3.org/2000/svg" xmlns:xlink="http://www.w3.org/1999/xlink">
<g id="graph0" class="graph" transform="scale(1 1) rotate(0) translate(4 112)">
<title>v8::PersistentBase::IsEmpty</title>
<polygon fill="white" stroke="transparent" points="-4,4 -4,-112 370,-112 370,4 -4,4"/>
<!-- Node1 -->
<g id="node1" class="node">
<title>Node1</title>
<g id="a_node1"><a xlink:title=" ">
<polygon fill="#bfbfbf" stroke="black" points="268,-39 268,-69 366,-69 366,-39 268,-39"/>
<text text-anchor="start" x="276" y="-57" font-family="Helvetica,sans-Serif" font-size="10.00">v8::PersistentBase</text>
<text text-anchor="middle" x="317" y="-46" font-family="Helvetica,sans-Serif" font-size="10.00">::IsEmpty</text>
</a>
</g>
</g>
<!-- Node2 -->
<g id="node2" class="node">
<title>Node2</title>
<g id="a_node2"><a xlink:href="classv8_1_1Persistent.html#a766f70cdc9650d08ff3779f4b69eee11" target="_top" xlink:title=" ">
<polygon fill="white" stroke="black" points="129.5,-88.5 129.5,-107.5 230.5,-107.5 230.5,-88.5 129.5,-88.5"/>
<text text-anchor="middle" x="180" y="-95.5" font-family="Helvetica,sans-Serif" font-size="10.00">v8::Persistent::Cast</text>
</a>
</g>
</g>
<!-- Node1&#45;&gt;Node2 -->
<g id="edge1" class="edge">
<title>Node1&#45;&gt;Node2</title>
<path fill="none" stroke="midnightblue" d="M260.03,-72.24C242.99,-77.8 224.93,-83.68 210.39,-88.42"/>
<polygon fill="midnightblue" stroke="midnightblue" points="261.5,-75.45 269.92,-69.02 259.33,-68.79 261.5,-75.45"/>
</g>
<!-- Node4 -->
<g id="node4" class="node">
<title>Node4</title>
<g id="a_node4"><a xlink:href="classv8_1_1PersistentBase.html#a67cbcedf77d176d3870fa4993e300b61" target="_top" xlink:title=" ">
<polygon fill="white" stroke="black" points="131,-39 131,-69 229,-69 229,-39 131,-39"/>
<text text-anchor="start" x="139" y="-57" font-family="Helvetica,sans-Serif" font-size="10.00">v8::PersistentBase</text>
<text text-anchor="middle" x="180" y="-46" font-family="Helvetica,sans-Serif" font-size="10.00">::Reset</text>
</a>
</g>
</g>
<!-- Node1&#45;&gt;Node4 -->
<g id="edge3" class="edge">
<title>Node1&#45;&gt;Node4</title>
<path fill="none" stroke="midnightblue" d="M257.47,-54C247.97,-54 238.23,-54 229.02,-54"/>
<polygon fill="midnightblue" stroke="midnightblue" points="257.64,-57.5 267.64,-54 257.64,-50.5 257.64,-57.5"/>
</g>
<!-- Node5 -->
<g id="node5" class="node">
<title>Node5</title>
<g id="a_node5"><a xlink:href="classv8_1_1ReturnValue.html#a57c4b962cf2ca387d3fb9a2f8e47a963" target="_top" xlink:title=" ">
<polygon fill="white" stroke="black" points="128,-0.5 128,-19.5 232,-19.5 232,-0.5 128,-0.5"/>
<text text-anchor="middle" x="180" y="-7.5" font-family="Helvetica,sans-Serif" font-size="10.00">v8::ReturnValue::Set</text>
</a>
</g>
</g>
<!-- Node1&#45;&gt;Node5 -->
<g id="edge4" class="edge">
<title>Node1&#45;&gt;Node5</title>
<path fill="none" stroke="midnightblue" d="M260.03,-35.76C242.99,-30.2 224.93,-24.32 210.39,-19.58"/>
<polygon fill="midnightblue" stroke="midnightblue" points="259.33,-39.21 269.92,-38.98 261.5,-32.55 259.33,-39.21"/>
</g>
<!-- Node3 -->
<g id="node3" class="node">
<title>Node3</title>
<g id="a_node3"><a xlink:href="classv8_1_1Persistent.html#a6c504c7e7e69f4cbda2f68884c75746b" target="_top" xlink:title=" ">
<polygon fill="white" stroke="black" points="0,-88.5 0,-107.5 92,-107.5 92,-88.5 0,-88.5"/>
<text text-anchor="middle" x="46" y="-95.5" font-family="Helvetica,sans-Serif" font-size="10.00">v8::Persistent::As</text>
</a>
</g>
</g>
<!-- Node2&#45;&gt;Node3 -->
<g id="edge2" class="edge">
<title>Node2&#45;&gt;Node3</title>
<path fill="none" stroke="midnightblue" d="M119.25,-98C110.09,-98 100.78,-98 92.02,-98"/>
<polygon fill="midnightblue" stroke="midnightblue" points="119.47,-101.5 129.47,-98 119.47,-94.5 119.47,-101.5"/>
</g>
</g>
</svg>
