<?xml version="1.0" encoding="UTF-8" standalone="no"?>
<!DOCTYPE svg PUBLIC "-//W3C//DTD SVG 1.1//EN"
 "http://www.w3.org/Graphics/SVG/1.1/DTD/svg11.dtd">
<!-- Generated by graphviz version 2.49.3 (20211027.1534)
 -->
<!-- Title: Graphical Class Hierarchy Pages: 1 -->
<svg width="311pt" height="154pt"
 viewBox="0.00 0.00 311.00 154.00" xmlns="http://www.w3.org/2000/svg" xmlns:xlink="http://www.w3.org/1999/xlink">
<g id="graph0" class="graph" transform="scale(1 1) rotate(0) translate(4 150)">
<title>Graphical Class Hierarchy</title>
<polygon fill="white" stroke="transparent" points="-4,4 -4,-150 307,-150 307,4 -4,4"/>
<!-- Node258 -->
<g id="node1" class="node">
<title>Node258</title>
<g id="a_node1"><a xlink:title=" ">
<polygon fill="white" stroke="#bfbfbf" points="0,-63.5 0,-82.5 74,-82.5 74,-63.5 0,-63.5"/>
<text text-anchor="middle" x="37" y="-70.5" font-family="Helvetica,sans-Serif" font-size="10.00">std::true_type</text>
</a>
</g>
</g>
<!-- Node0 -->
<g id="node2" class="node">
<title>Node0</title>
<g id="a_node2"><a xlink:href="structcppgc_1_1internal_1_1HasFinalizeGarbageCollectedObject_3_01T_00_01void__t_3_01decltype_07sa61520700171f43425adcc1b691e5825.html" target="_top" xlink:title=" ">
<polygon fill="white" stroke="black" points="110,-82.5 110,-145.5 303,-145.5 303,-82.5 110,-82.5"/>
<text text-anchor="start" x="118" y="-133.5" font-family="Helvetica,sans-Serif" font-size="10.00">cppgc::internal::HasFinalize</text>
<text text-anchor="start" x="118" y="-122.5" font-family="Helvetica,sans-Serif" font-size="10.00">GarbageCollectedObject&lt;</text>
<text text-anchor="start" x="118" y="-111.5" font-family="Helvetica,sans-Serif" font-size="10.00"> T, void_t&lt; decltype(std</text>
<text text-anchor="start" x="118" y="-100.5" font-family="Helvetica,sans-Serif" font-size="10.00">::declval&lt; T &gt;().FinalizeGarbageCollected</text>
<text text-anchor="middle" x="206.5" y="-89.5" font-family="Helvetica,sans-Serif" font-size="10.00">Object())&gt; &gt;</text>
</a>
</g>
</g>
<!-- Node258&#45;&gt;Node0 -->
<g id="edge1" class="edge">
<title>Node258&#45;&gt;Node0</title>
<path fill="none" stroke="midnightblue" d="M84.23,-84.32C92.31,-86.29 100.97,-88.41 109.82,-90.58"/>
<polygon fill="midnightblue" stroke="midnightblue" points="84.89,-80.87 74.35,-81.9 83.23,-87.67 84.89,-80.87"/>
</g>
<!-- Node260 -->
<g id="node3" class="node">
<title>Node260</title>
<g id="a_node3"><a xlink:href="structcppgc_1_1internal_1_1IsGarbageCollectedType_3_01T_00_01void__t_3_01typename_01std_1_1remov242c3cc73022aacbda81955038f7dedf.html" target="_top" xlink:title=" ">
<polygon fill="white" stroke="black" points="123,-0.5 123,-63.5 290,-63.5 290,-0.5 123,-0.5"/>
<text text-anchor="start" x="131" y="-51.5" font-family="Helvetica,sans-Serif" font-size="10.00">cppgc::internal::IsGarbage</text>
<text text-anchor="start" x="131" y="-40.5" font-family="Helvetica,sans-Serif" font-size="10.00">CollectedType&lt; T, void</text>
<text text-anchor="start" x="131" y="-29.5" font-family="Helvetica,sans-Serif" font-size="10.00">_t&lt; typename std::remove</text>
<text text-anchor="start" x="131" y="-18.5" font-family="Helvetica,sans-Serif" font-size="10.00">_const_t&lt; T &gt;::IsGarbageCollected</text>
<text text-anchor="middle" x="206.5" y="-7.5" font-family="Helvetica,sans-Serif" font-size="10.00">TypeMarker &gt; &gt;</text>
</a>
</g>
</g>
<!-- Node258&#45;&gt;Node260 -->
<g id="edge2" class="edge">
<title>Node258&#45;&gt;Node260</title>
<path fill="none" stroke="midnightblue" d="M84.12,-61.71C96.16,-58.76 109.51,-55.5 122.82,-52.24"/>
<polygon fill="midnightblue" stroke="midnightblue" points="83.23,-58.33 74.35,-64.1 84.89,-65.13 83.23,-58.33"/>
</g>
</g>
</svg>
