<?xml version="1.0" encoding="UTF-8" standalone="no"?>
<!DOCTYPE svg PUBLIC "-//W3C//DTD SVG 1.1//EN"
 "http://www.w3.org/Graphics/SVG/1.1/DTD/svg11.dtd">
<!-- Generated by graphviz version 2.49.3 (20211027.1534)
 -->
<!-- Title: include/v8config.h Pages: 1 -->
<svg width="1106pt" height="296pt"
 viewBox="0.00 0.00 1106.00 296.00" xmlns="http://www.w3.org/2000/svg" xmlns:xlink="http://www.w3.org/1999/xlink">
<g id="graph0" class="graph" transform="scale(1 1) rotate(0) translate(4 292)">
<title>include/v8config.h</title>
<polygon fill="white" stroke="transparent" points="-4,4 -4,-292 1102,-292 1102,4 -4,4"/>
<!-- Node1 -->
<g id="node1" class="node">
<title>Node1</title>
<g id="a_node1"><a xlink:title=" ">
<polygon fill="#bfbfbf" stroke="black" points="549,-268.5 549,-287.5 643,-287.5 643,-268.5 549,-268.5"/>
<text text-anchor="middle" x="596" y="-275.5" font-family="Helvetica,sans-Serif" font-size="10.00">include/v8config.h</text>
</a>
</g>
</g>
<!-- Node2 -->
<g id="node2" class="node">
<title>Node2</title>
<g id="a_node2"><a xlink:href="gc-info_8h.html" target="_top" xlink:title=" ">
<polygon fill="white" stroke="black" points="160,-73 160,-92 276,-92 276,-73 160,-73"/>
<text text-anchor="middle" x="218" y="-80" font-family="Helvetica,sans-Serif" font-size="10.00">include/cppgc/gc&#45;info.h</text>
</a>
</g>
</g>
<!-- Node1&#45;&gt;Node2 -->
<g id="edge1" class="edge">
<title>Node1&#45;&gt;Node2</title>
<path fill="none" stroke="midnightblue" d="M538.64,-273.93C450.52,-268.54 286.42,-255.63 233,-232 191.21,-213.51 174.07,-206.53 155,-165 149.25,-152.48 149.04,-146.42 155,-134 164.28,-114.67 184.97,-100.4 200.12,-92.06"/>
<polygon fill="midnightblue" stroke="midnightblue" points="538.55,-277.43 548.74,-274.53 538.97,-270.44 538.55,-277.43"/>
</g>
<!-- Node4 -->
<g id="node4" class="node">
<title>Node4</title>
<g id="a_node4"><a xlink:href="heap_8h.html" target="_top" xlink:title=" ">
<polygon fill="white" stroke="black" points="0,-140 0,-159 108,-159 108,-140 0,-140"/>
<text text-anchor="middle" x="54" y="-147" font-family="Helvetica,sans-Serif" font-size="10.00">include/cppgc/heap.h</text>
</a>
</g>
</g>
<!-- Node1&#45;&gt;Node4 -->
<g id="edge3" class="edge">
<title>Node1&#45;&gt;Node4</title>
<path fill="none" stroke="midnightblue" d="M538.53,-276.94C428.55,-275.95 192.93,-269.38 122,-232 90.05,-215.16 67.16,-176.33 58.19,-159.06"/>
<polygon fill="midnightblue" stroke="midnightblue" points="538.74,-280.44 548.77,-277.02 538.8,-273.44 538.74,-280.44"/>
</g>
<!-- Node5 -->
<g id="node5" class="node">
<title>Node5</title>
<g id="a_node5"><a xlink:href="internals_8h.html" target="_top" xlink:title=" ">
<polygon fill="white" stroke="black" points="242,-207 242,-226 366,-226 366,-207 242,-207"/>
<text text-anchor="middle" x="304" y="-214" font-family="Helvetica,sans-Serif" font-size="10.00">include/cppgc/internals.h</text>
</a>
</g>
</g>
<!-- Node1&#45;&gt;Node5 -->
<g id="edge5" class="edge">
<title>Node1&#45;&gt;Node5</title>
<path fill="none" stroke="midnightblue" d="M544.34,-266.47C487.75,-254.94 398.09,-236.67 345.76,-226.01"/>
<polygon fill="midnightblue" stroke="midnightblue" points="543.67,-269.91 554.16,-268.48 545.06,-263.05 543.67,-269.91"/>
</g>
<!-- Node8 -->
<g id="node8" class="node">
<title>Node8</title>
<g id="a_node8"><a xlink:href="platform_8h.html" target="_top" xlink:title=" ">
<polygon fill="white" stroke="black" points="370,-140 370,-159 492,-159 492,-140 370,-140"/>
<text text-anchor="middle" x="431" y="-147" font-family="Helvetica,sans-Serif" font-size="10.00">include/cppgc/platform.h</text>
</a>
</g>
</g>
<!-- Node1&#45;&gt;Node8 -->
<g id="edge11" class="edge">
<title>Node1&#45;&gt;Node8</title>
<path fill="none" stroke="midnightblue" d="M538.58,-270.5C491.19,-263.82 429.33,-251.58 414,-232 396.89,-210.15 415.01,-175.23 425.14,-159.14"/>
<polygon fill="midnightblue" stroke="midnightblue" points="538.37,-274.01 548.75,-271.88 539.32,-267.07 538.37,-274.01"/>
</g>
<!-- Node9 -->
<g id="node9" class="node">
<title>Node9</title>
<g id="a_node9"><a xlink:href="libplatform_8h.html" target="_top" xlink:title=" ">
<polygon fill="white" stroke="black" points="533.5,-67.5 533.5,-97.5 628.5,-97.5 628.5,-67.5 533.5,-67.5"/>
<text text-anchor="start" x="541.5" y="-85.5" font-family="Helvetica,sans-Serif" font-size="10.00">include/libplatform</text>
<text text-anchor="middle" x="581" y="-74.5" font-family="Helvetica,sans-Serif" font-size="10.00">/libplatform.h</text>
</a>
</g>
</g>
<!-- Node1&#45;&gt;Node9 -->
<g id="edge13" class="edge">
<title>Node1&#45;&gt;Node9</title>
<path fill="none" stroke="midnightblue" d="M622.67,-263.22C634.25,-255.7 646.6,-245.2 653,-232 671.99,-192.8 673.1,-172.64 653,-134 644.62,-117.88 628.47,-105.84 613.59,-97.56"/>
<polygon fill="midnightblue" stroke="midnightblue" points="620.84,-260.23 614.08,-268.39 624.45,-266.23 620.84,-260.23"/>
</g>
<!-- Node10 -->
<g id="node10" class="node">
<title>Node10</title>
<g id="a_node10"><a xlink:href="v8-fast-api-calls_8h.html" target="_top" xlink:title=" ">
<polygon fill="white" stroke="black" points="548,-201.5 548,-231.5 644,-231.5 644,-201.5 548,-201.5"/>
<text text-anchor="start" x="556" y="-219.5" font-family="Helvetica,sans-Serif" font-size="10.00">include/v8&#45;fast&#45;api</text>
<text text-anchor="middle" x="596" y="-208.5" font-family="Helvetica,sans-Serif" font-size="10.00">&#45;calls.h</text>
</a>
</g>
</g>
<!-- Node1&#45;&gt;Node10 -->
<g id="edge14" class="edge">
<title>Node1&#45;&gt;Node10</title>
<path fill="none" stroke="midnightblue" d="M596,-258.23C596,-249.59 596,-239.5 596,-231.52"/>
<polygon fill="midnightblue" stroke="midnightblue" points="592.5,-258.48 596,-268.48 599.5,-258.48 592.5,-258.48"/>
</g>
<!-- Node11 -->
<g id="node11" class="node">
<title>Node11</title>
<g id="a_node11"><a xlink:href="v8-internal_8h.html" target="_top" xlink:title=" ">
<polygon fill="white" stroke="black" points="738.5,-207 738.5,-226 841.5,-226 841.5,-207 738.5,-207"/>
<text text-anchor="middle" x="790" y="-214" font-family="Helvetica,sans-Serif" font-size="10.00">include/v8&#45;internal.h</text>
</a>
</g>
</g>
<!-- Node1&#45;&gt;Node11 -->
<g id="edge15" class="edge">
<title>Node1&#45;&gt;Node11</title>
<path fill="none" stroke="midnightblue" d="M633.4,-265.53C671.11,-253.96 728.43,-236.38 762.26,-226.01"/>
<polygon fill="midnightblue" stroke="midnightblue" points="632.33,-262.2 623.8,-268.48 634.38,-268.89 632.33,-262.2"/>
</g>
<!-- Node12 -->
<g id="node12" class="node">
<title>Node12</title>
<g id="a_node12"><a xlink:href="v8_8h.html" target="_top" xlink:title=" ">
<polygon fill="white" stroke="black" points="756,-140 756,-159 824,-159 824,-140 756,-140"/>
<text text-anchor="middle" x="790" y="-147" font-family="Helvetica,sans-Serif" font-size="10.00">include/v8.h</text>
</a>
</g>
</g>
<!-- Node1&#45;&gt;Node12 -->
<g id="edge28" class="edge">
<title>Node1&#45;&gt;Node12</title>
<path fill="none" stroke="midnightblue" d="M625.33,-264.16C643.33,-255.84 666.57,-244.3 686,-232 723.02,-208.57 762.69,-174.74 780.45,-159.06"/>
<polygon fill="midnightblue" stroke="midnightblue" points="623.58,-261.11 615.93,-268.44 626.48,-267.48 623.58,-261.11"/>
</g>
<!-- Node17 -->
<g id="node17" class="node">
<title>Node17</title>
<g id="a_node17"><a xlink:href="v8-platform_8h.html" target="_top" xlink:title=" ">
<polygon fill="white" stroke="black" points="422.5,-207 422.5,-226 529.5,-226 529.5,-207 422.5,-207"/>
<text text-anchor="middle" x="476" y="-214" font-family="Helvetica,sans-Serif" font-size="10.00">include/v8&#45;platform.h</text>
</a>
</g>
</g>
<!-- Node1&#45;&gt;Node17 -->
<g id="edge21" class="edge">
<title>Node1&#45;&gt;Node17</title>
<path fill="none" stroke="midnightblue" d="M569.82,-264.02C546.55,-252.48 513.2,-235.94 493.16,-226.01"/>
<polygon fill="midnightblue" stroke="midnightblue" points="568.29,-267.17 578.81,-268.48 571.4,-260.9 568.29,-267.17"/>
</g>
<!-- Node19 -->
<g id="node19" class="node">
<title>Node19</title>
<g id="a_node19"><a xlink:href="v8-wasm-trap-handler-posix_8h.html" target="_top" xlink:title=" ">
<polygon fill="white" stroke="black" points="860,-201.5 860,-231.5 970,-231.5 970,-201.5 860,-201.5"/>
<text text-anchor="start" x="868" y="-219.5" font-family="Helvetica,sans-Serif" font-size="10.00">include/v8&#45;wasm&#45;trap</text>
<text text-anchor="middle" x="915" y="-208.5" font-family="Helvetica,sans-Serif" font-size="10.00">&#45;handler&#45;posix.h</text>
</a>
</g>
</g>
<!-- Node1&#45;&gt;Node19 -->
<g id="edge26" class="edge">
<title>Node1&#45;&gt;Node19</title>
<path fill="none" stroke="midnightblue" d="M653.12,-267.73C704.89,-259.13 783.24,-245.65 851,-232 853.9,-231.42 856.88,-230.8 859.88,-230.17"/>
<polygon fill="midnightblue" stroke="midnightblue" points="652.42,-264.3 643.13,-269.38 653.56,-271.2 652.42,-264.3"/>
</g>
<!-- Node20 -->
<g id="node20" class="node">
<title>Node20</title>
<g id="a_node20"><a xlink:href="v8-wasm-trap-handler-win_8h.html" target="_top" xlink:title=" ">
<polygon fill="white" stroke="black" points="988,-201.5 988,-231.5 1098,-231.5 1098,-201.5 988,-201.5"/>
<text text-anchor="start" x="996" y="-219.5" font-family="Helvetica,sans-Serif" font-size="10.00">include/v8&#45;wasm&#45;trap</text>
<text text-anchor="middle" x="1043" y="-208.5" font-family="Helvetica,sans-Serif" font-size="10.00">&#45;handler&#45;win.h</text>
</a>
</g>
</g>
<!-- Node1&#45;&gt;Node20 -->
<g id="edge27" class="edge">
<title>Node1&#45;&gt;Node20</title>
<path fill="none" stroke="midnightblue" d="M653.29,-272.18C728.41,-265.42 864.14,-251.7 979,-232 981.92,-231.5 984.91,-230.95 987.92,-230.37"/>
<polygon fill="midnightblue" stroke="midnightblue" points="652.75,-268.71 643.1,-273.08 653.37,-275.68 652.75,-268.71"/>
</g>
<!-- Node3 -->
<g id="node3" class="node">
<title>Node3</title>
<g id="a_node3"><a xlink:href="allocation_8h.html" target="_top" xlink:title=" ">
<polygon fill="white" stroke="black" points="197,-6 197,-25 325,-25 325,-6 197,-6"/>
<text text-anchor="middle" x="261" y="-13" font-family="Helvetica,sans-Serif" font-size="10.00">include/cppgc/allocation.h</text>
</a>
</g>
</g>
<!-- Node2&#45;&gt;Node3 -->
<g id="edge2" class="edge">
<title>Node2&#45;&gt;Node3</title>
<path fill="none" stroke="midnightblue" d="M229.55,-64.03C237.88,-51.45 248.76,-35.01 255.29,-25.13"/>
<polygon fill="midnightblue" stroke="midnightblue" points="226.4,-62.46 223.8,-72.73 232.24,-66.32 226.4,-62.46"/>
</g>
<!-- Node4&#45;&gt;Node3 -->
<g id="edge4" class="edge">
<title>Node4&#45;&gt;Node3</title>
<path fill="none" stroke="midnightblue" d="M69.97,-132.73C88.38,-115.14 120.08,-86.58 151,-67 179.23,-49.12 214.82,-33.97 237.75,-25.06"/>
<polygon fill="midnightblue" stroke="midnightblue" points="67.47,-130.28 62.72,-139.75 72.34,-135.31 67.47,-130.28"/>
</g>
<!-- Node5&#45;&gt;Node3 -->
<g id="edge6" class="edge">
<title>Node5&#45;&gt;Node3</title>
<path fill="none" stroke="midnightblue" d="M303.49,-196.8C302.3,-168.26 298.32,-112.37 285,-67 280.46,-51.54 271.72,-34.89 266.13,-25.1"/>
<polygon fill="midnightblue" stroke="midnightblue" points="300,-197.06 303.84,-206.94 307,-196.82 300,-197.06"/>
</g>
<!-- Node6 -->
<g id="node6" class="node">
<title>Node6</title>
<g id="a_node6"><a xlink:href="finalizer-trait_8h.html" target="_top" xlink:title=" ">
<polygon fill="white" stroke="black" points="164,-134.5 164,-164.5 276,-164.5 276,-134.5 164,-134.5"/>
<text text-anchor="start" x="172" y="-152.5" font-family="Helvetica,sans-Serif" font-size="10.00">include/cppgc/finalizer</text>
<text text-anchor="middle" x="220" y="-141.5" font-family="Helvetica,sans-Serif" font-size="10.00">&#45;trait.h</text>
</a>
</g>
</g>
<!-- Node5&#45;&gt;Node6 -->
<g id="edge7" class="edge">
<title>Node5&#45;&gt;Node6</title>
<path fill="none" stroke="midnightblue" d="M284.67,-200.54C270.69,-189.73 251.92,-175.2 238.21,-164.59"/>
<polygon fill="midnightblue" stroke="midnightblue" points="282.62,-203.38 292.67,-206.73 286.9,-197.85 282.62,-203.38"/>
</g>
<!-- Node7 -->
<g id="node7" class="node">
<title>Node7</title>
<g id="a_node7"><a xlink:href="garbage-collected_8h.html" target="_top" xlink:title=" ">
<polygon fill="white" stroke="black" points="332,-67.5 332,-97.5 446,-97.5 446,-67.5 332,-67.5"/>
<text text-anchor="start" x="340" y="-85.5" font-family="Helvetica,sans-Serif" font-size="10.00">include/cppgc/garbage</text>
<text text-anchor="middle" x="389" y="-74.5" font-family="Helvetica,sans-Serif" font-size="10.00">&#45;collected.h</text>
</a>
</g>
</g>
<!-- Node5&#45;&gt;Node7 -->
<g id="edge9" class="edge">
<title>Node5&#45;&gt;Node7</title>
<path fill="none" stroke="midnightblue" d="M315.08,-198.3C332.02,-171.98 364.06,-122.23 379.8,-97.78"/>
<polygon fill="midnightblue" stroke="midnightblue" points="312.05,-196.54 309.58,-206.84 317.93,-200.33 312.05,-196.54"/>
</g>
<!-- Node6&#45;&gt;Node2 -->
<g id="edge8" class="edge">
<title>Node6&#45;&gt;Node2</title>
<path fill="none" stroke="midnightblue" d="M219.25,-124.25C218.91,-113.02 218.52,-100.38 218.27,-92.19"/>
<polygon fill="midnightblue" stroke="midnightblue" points="215.76,-124.51 219.57,-134.4 222.76,-124.29 215.76,-124.51"/>
</g>
<!-- Node7&#45;&gt;Node3 -->
<g id="edge10" class="edge">
<title>Node7&#45;&gt;Node3</title>
<path fill="none" stroke="midnightblue" d="M352.18,-62.8C327.64,-50.34 296.56,-34.56 277.75,-25.01"/>
<polygon fill="midnightblue" stroke="midnightblue" points="350.72,-65.99 361.23,-67.4 353.89,-59.75 350.72,-65.99"/>
</g>
<!-- Node8&#45;&gt;Node7 -->
<g id="edge12" class="edge">
<title>Node8&#45;&gt;Node7</title>
<path fill="none" stroke="midnightblue" d="M419.71,-131.03C412.94,-120.56 404.44,-107.4 398.1,-97.59"/>
<polygon fill="midnightblue" stroke="midnightblue" points="416.97,-133.23 425.34,-139.73 422.85,-129.44 416.97,-133.23"/>
</g>
<!-- Node11&#45;&gt;Node12 -->
<g id="edge16" class="edge">
<title>Node11&#45;&gt;Node12</title>
<path fill="none" stroke="midnightblue" d="M790,-196.54C790,-184.17 790,-168.62 790,-159.13"/>
<polygon fill="midnightblue" stroke="midnightblue" points="786.5,-196.73 790,-206.73 793.5,-196.73 786.5,-196.73"/>
</g>
<!-- Node13 -->
<g id="node13" class="node">
<title>Node13</title>
<g id="a_node13"><a xlink:href="v8-inspector_8h.html" target="_top" xlink:title=" ">
<polygon fill="white" stroke="black" points="748.5,-73 748.5,-92 859.5,-92 859.5,-73 748.5,-73"/>
<text text-anchor="middle" x="804" y="-80" font-family="Helvetica,sans-Serif" font-size="10.00">include/v8&#45;inspector.h</text>
</a>
</g>
</g>
<!-- Node12&#45;&gt;Node13 -->
<g id="edge17" class="edge">
<title>Node12&#45;&gt;Node13</title>
<path fill="none" stroke="midnightblue" d="M794,-129.91C796.68,-117.49 800.08,-101.72 802.14,-92.13"/>
<polygon fill="midnightblue" stroke="midnightblue" points="790.57,-129.22 791.89,-139.73 797.42,-130.69 790.57,-129.22"/>
</g>
<!-- Node15 -->
<g id="node15" class="node">
<title>Node15</title>
<g id="a_node15"><a xlink:href="v8-profiler_8h.html" target="_top" xlink:title=" ">
<polygon fill="white" stroke="black" points="878,-73 878,-92 978,-92 978,-73 878,-73"/>
<text text-anchor="middle" x="928" y="-80" font-family="Helvetica,sans-Serif" font-size="10.00">include/v8&#45;profiler.h</text>
</a>
</g>
</g>
<!-- Node12&#45;&gt;Node15 -->
<g id="edge19" class="edge">
<title>Node12&#45;&gt;Node15</title>
<path fill="none" stroke="midnightblue" d="M817.72,-135.44C845.05,-122.57 886.05,-103.26 909.6,-92.17"/>
<polygon fill="midnightblue" stroke="midnightblue" points="815.88,-132.44 808.33,-139.87 818.86,-138.77 815.88,-132.44"/>
</g>
<!-- Node16 -->
<g id="node16" class="node">
<title>Node16</title>
<g id="a_node16"><a xlink:href="v8-util_8h.html" target="_top" xlink:title=" ">
<polygon fill="white" stroke="black" points="647,-73 647,-92 731,-92 731,-73 647,-73"/>
<text text-anchor="middle" x="689" y="-80" font-family="Helvetica,sans-Serif" font-size="10.00">include/v8&#45;util.h</text>
</a>
</g>
</g>
<!-- Node12&#45;&gt;Node16 -->
<g id="edge20" class="edge">
<title>Node12&#45;&gt;Node16</title>
<path fill="none" stroke="midnightblue" d="M767.89,-134.27C747.89,-121.4 719.11,-102.88 702.41,-92.13"/>
<polygon fill="midnightblue" stroke="midnightblue" points="766.08,-137.27 776.38,-139.73 769.86,-131.38 766.08,-137.27"/>
</g>
<!-- Node14 -->
<g id="node14" class="node">
<title>Node14</title>
<g id="a_node14"><a xlink:href="v8-inspector-protocol_8h.html" target="_top" xlink:title=" ">
<polygon fill="white" stroke="black" points="752,-0.5 752,-30.5 856,-30.5 856,-0.5 752,-0.5"/>
<text text-anchor="start" x="760" y="-18.5" font-family="Helvetica,sans-Serif" font-size="10.00">include/v8&#45;inspector</text>
<text text-anchor="middle" x="804" y="-7.5" font-family="Helvetica,sans-Serif" font-size="10.00">&#45;protocol.h</text>
</a>
</g>
</g>
<!-- Node13&#45;&gt;Node14 -->
<g id="edge18" class="edge">
<title>Node13&#45;&gt;Node14</title>
<path fill="none" stroke="midnightblue" d="M804,-62.41C804,-52.22 804,-39.9 804,-30.59"/>
<polygon fill="midnightblue" stroke="midnightblue" points="800.5,-62.73 804,-72.73 807.5,-62.73 800.5,-62.73"/>
</g>
<!-- Node17&#45;&gt;Node8 -->
<g id="edge22" class="edge">
<title>Node17&#45;&gt;Node8</title>
<path fill="none" stroke="midnightblue" d="M464.16,-198.4C455.42,-185.77 443.88,-169.1 436.97,-159.13"/>
<polygon fill="midnightblue" stroke="midnightblue" points="461.36,-200.5 469.93,-206.73 467.12,-196.52 461.36,-200.5"/>
</g>
<!-- Node17&#45;&gt;Node9 -->
<g id="edge23" class="edge">
<title>Node17&#45;&gt;Node9</title>
<path fill="none" stroke="midnightblue" d="M489.01,-198.78C501.88,-182.26 522.19,-156.3 540,-134 549.87,-121.65 561.2,-107.7 569.45,-97.6"/>
<polygon fill="midnightblue" stroke="midnightblue" points="486.06,-196.86 482.68,-206.9 491.59,-201.16 486.06,-196.86"/>
</g>
<!-- Node18 -->
<g id="node18" class="node">
<title>Node18</title>
<g id="a_node18"><a xlink:href="v8-tracing_8h.html" target="_top" xlink:title=" ">
<polygon fill="white" stroke="black" points="548.5,-134.5 548.5,-164.5 643.5,-164.5 643.5,-134.5 548.5,-134.5"/>
<text text-anchor="start" x="556.5" y="-152.5" font-family="Helvetica,sans-Serif" font-size="10.00">include/libplatform</text>
<text text-anchor="middle" x="596" y="-141.5" font-family="Helvetica,sans-Serif" font-size="10.00">/v8&#45;tracing.h</text>
</a>
</g>
</g>
<!-- Node17&#45;&gt;Node18 -->
<g id="edge24" class="edge">
<title>Node17&#45;&gt;Node18</title>
<path fill="none" stroke="midnightblue" d="M501.1,-201.9C521.29,-190.97 549.56,-175.65 569.99,-164.59"/>
<polygon fill="midnightblue" stroke="midnightblue" points="499.31,-198.89 492.18,-206.73 502.64,-205.05 499.31,-198.89"/>
</g>
<!-- Node18&#45;&gt;Node9 -->
<g id="edge25" class="edge">
<title>Node18&#45;&gt;Node9</title>
<path fill="none" stroke="midnightblue" d="M590.44,-124.4C588.35,-115.37 586.06,-105.41 584.25,-97.58"/>
<polygon fill="midnightblue" stroke="midnightblue" points="587.09,-125.44 592.75,-134.4 593.91,-123.87 587.09,-125.44"/>
</g>
</g>
</svg>
