<?xml version="1.0" encoding="UTF-8" standalone="no"?>
<!DOCTYPE svg PUBLIC "-//W3C//DTD SVG 1.1//EN"
 "http://www.w3.org/Graphics/SVG/1.1/DTD/svg11.dtd">
<!-- Generated by graphviz version 2.49.3 (20211027.1534)
 -->
<!-- Title: v8::Local::New Pages: 1 -->
<svg width="286pt" height="240pt"
 viewBox="0.00 0.00 286.00 240.00" xmlns="http://www.w3.org/2000/svg" xmlns:xlink="http://www.w3.org/1999/xlink">
<g id="graph0" class="graph" transform="scale(1 1) rotate(0) translate(4 236)">
<title>v8::Local::New</title>
<polygon fill="white" stroke="transparent" points="-4,4 -4,-236 282,-236 282,4 -4,4"/>
<!-- Node1 -->
<g id="node1" class="node">
<title>Node1</title>
<g id="a_node1"><a xlink:title=" ">
<polygon fill="#bfbfbf" stroke="black" points="198,-117.5 198,-136.5 278,-136.5 278,-117.5 198,-117.5"/>
<text text-anchor="middle" x="238" y="-124.5" font-family="Helvetica,sans-Serif" font-size="10.00">v8::Local::New</text>
</a>
</g>
</g>
<!-- Node2 -->
<g id="node2" class="node">
<title>Node2</title>
<g id="a_node2"><a xlink:href="classv8_1_1ReturnValue.html#a9167dbbc04d72bbd85a8a7f199f211c4" target="_top" xlink:title=" ">
<polygon fill="white" stroke="black" points="28.5,-212.5 28.5,-231.5 133.5,-231.5 133.5,-212.5 28.5,-212.5"/>
<text text-anchor="middle" x="81" y="-219.5" font-family="Helvetica,sans-Serif" font-size="10.00">v8::ReturnValue::Get</text>
</a>
</g>
</g>
<!-- Node1&#45;&gt;Node2 -->
<g id="edge1" class="edge">
<title>Node1&#45;&gt;Node2</title>
<path fill="none" stroke="midnightblue" d="M224.2,-144.88C210.71,-162.37 187.86,-188.44 162,-203 153.29,-207.9 143.36,-211.54 133.54,-214.25"/>
<polygon fill="midnightblue" stroke="midnightblue" points="227.19,-146.73 230.36,-136.62 221.58,-142.54 227.19,-146.73"/>
</g>
<!-- Node3 -->
<g id="node3" class="node">
<title>Node3</title>
<g id="a_node3"><a xlink:href="classv8_1_1PersistentValueMapBase.html#a5bac0db345afa5ac0654c7bac39fd67b" target="_top" xlink:title=" ">
<polygon fill="white" stroke="black" points="0,-174.5 0,-193.5 162,-193.5 162,-174.5 0,-174.5"/>
<text text-anchor="middle" x="81" y="-181.5" font-family="Helvetica,sans-Serif" font-size="10.00">v8::PersistentValueMapBase::Get</text>
</a>
</g>
</g>
<!-- Node1&#45;&gt;Node3 -->
<g id="edge2" class="edge">
<title>Node1&#45;&gt;Node3</title>
<path fill="none" stroke="midnightblue" d="M212.09,-141.49C197.8,-149.32 179.32,-158.66 162,-165 151.95,-168.68 140.92,-171.84 130.35,-174.46"/>
<polygon fill="midnightblue" stroke="midnightblue" points="213.8,-144.55 220.82,-136.61 210.39,-138.44 213.8,-144.55"/>
</g>
<!-- Node4 -->
<g id="node4" class="node">
<title>Node4</title>
<g id="a_node4"><a xlink:href="classv8_1_1PersistentBase.html#a3904f51a5d7024c2983d027c8075201d" target="_top" xlink:title=" ">
<polygon fill="white" stroke="black" points="21.5,-136.5 21.5,-155.5 140.5,-155.5 140.5,-136.5 21.5,-136.5"/>
<text text-anchor="middle" x="81" y="-143.5" font-family="Helvetica,sans-Serif" font-size="10.00">v8::PersistentBase::Get</text>
</a>
</g>
</g>
<!-- Node1&#45;&gt;Node4 -->
<g id="edge3" class="edge">
<title>Node1&#45;&gt;Node4</title>
<path fill="none" stroke="midnightblue" d="M187.82,-133.03C172.86,-134.86 156.27,-136.9 140.74,-138.8"/>
<polygon fill="midnightblue" stroke="midnightblue" points="188.39,-136.49 197.89,-131.79 187.54,-129.54 188.39,-136.49"/>
</g>
<!-- Node5 -->
<g id="node5" class="node">
<title>Node5</title>
<g id="a_node5"><a xlink:href="classv8_1_1TracedGlobal.html#ad55326dd878487e3972595cb66e3c8b2" target="_top" xlink:title=" ">
<polygon fill="white" stroke="black" points="26,-98.5 26,-117.5 136,-117.5 136,-98.5 26,-98.5"/>
<text text-anchor="middle" x="81" y="-105.5" font-family="Helvetica,sans-Serif" font-size="10.00">v8::TracedGlobal::Get</text>
</a>
</g>
</g>
<!-- Node1&#45;&gt;Node5 -->
<g id="edge4" class="edge">
<title>Node1&#45;&gt;Node5</title>
<path fill="none" stroke="midnightblue" d="M187.9,-120.98C171.39,-118.96 152.89,-116.69 136.03,-114.62"/>
<polygon fill="midnightblue" stroke="midnightblue" points="187.54,-124.46 197.89,-122.21 188.39,-117.51 187.54,-124.46"/>
</g>
<!-- Node6 -->
<g id="node6" class="node">
<title>Node6</title>
<g id="a_node6"><a xlink:href="classv8_1_1PersistentValueVector.html#a773384c8da374c10ce437a391c662189" target="_top" xlink:title=" ">
<polygon fill="white" stroke="black" points="6.5,-60.5 6.5,-79.5 155.5,-79.5 155.5,-60.5 6.5,-60.5"/>
<text text-anchor="middle" x="81" y="-67.5" font-family="Helvetica,sans-Serif" font-size="10.00">v8::PersistentValueVector::Get</text>
</a>
</g>
</g>
<!-- Node1&#45;&gt;Node6 -->
<g id="edge5" class="edge">
<title>Node1&#45;&gt;Node6</title>
<path fill="none" stroke="midnightblue" d="M212.09,-112.51C197.8,-104.68 179.32,-95.34 162,-89 151.95,-85.32 140.92,-82.16 130.35,-79.54"/>
<polygon fill="midnightblue" stroke="midnightblue" points="210.39,-115.56 220.82,-117.39 213.8,-109.45 210.39,-115.56"/>
</g>
<!-- Node7 -->
<g id="node7" class="node">
<title>Node7</title>
<g id="a_node7"><a xlink:href="classv8_1_1PersistentValueMapBase_1_1PersistentValueReference.html#aab9ed032c017149867c0f2cef2df89fd" target="_top" xlink:title=" ">
<polygon fill="white" stroke="black" points="10,-0.5 10,-41.5 152,-41.5 152,-0.5 10,-0.5"/>
<text text-anchor="start" x="18" y="-29.5" font-family="Helvetica,sans-Serif" font-size="10.00">v8::PersistentValueMapBase</text>
<text text-anchor="start" x="18" y="-18.5" font-family="Helvetica,sans-Serif" font-size="10.00">::PersistentValueReference</text>
<text text-anchor="middle" x="81" y="-7.5" font-family="Helvetica,sans-Serif" font-size="10.00">::NewLocal</text>
</a>
</g>
</g>
<!-- Node1&#45;&gt;Node7 -->
<g id="edge6" class="edge">
<title>Node1&#45;&gt;Node7</title>
<path fill="none" stroke="midnightblue" d="M223.35,-109.25C209.5,-92.28 186.63,-66.98 162,-51 156.65,-47.53 150.84,-44.38 144.87,-41.54"/>
<polygon fill="midnightblue" stroke="midnightblue" points="220.77,-111.62 229.73,-117.27 226.24,-107.27 220.77,-111.62"/>
</g>
</g>
</svg>
