<?xml version="1.0" encoding="UTF-8" standalone="no"?>
<!DOCTYPE svg PUBLIC "-//W3C//DTD SVG 1.1//EN"
 "http://www.w3.org/Graphics/SVG/1.1/DTD/svg11.dtd">
<!-- Generated by graphviz version 2.49.3 (20211027.1534)
 -->
<!-- Title: cppgc::internal::PersistentNode::IsUsed Pages: 1 -->
<svg width="1092pt" height="310pt"
 viewBox="0.00 0.00 1092.00 309.58" xmlns="http://www.w3.org/2000/svg" xmlns:xlink="http://www.w3.org/1999/xlink">
<g id="graph0" class="graph" transform="scale(1 1) rotate(0) translate(4 305.58)">
<title>cppgc::internal::PersistentNode::IsUsed</title>
<polygon fill="white" stroke="transparent" points="-4,4 -4,-305.58 1088,-305.58 1088,4 -4,4"/>
<!-- Node1 -->
<g id="node1" class="node">
<title>Node1</title>
<g id="a_node1"><a xlink:title=" ">
<polygon fill="#bfbfbf" stroke="black" points="956,-176 956,-206 1084,-206 1084,-176 956,-176"/>
<text text-anchor="start" x="964" y="-194" font-family="Helvetica,sans-Serif" font-size="10.00">cppgc::internal::Persistent</text>
<text text-anchor="middle" x="1020" y="-183" font-family="Helvetica,sans-Serif" font-size="10.00">Node::IsUsed</text>
</a>
</g>
</g>
<!-- Node2 -->
<g id="node2" class="node">
<title>Node2</title>
<g id="a_node2"><a xlink:href="classcppgc_1_1internal_1_1PersistentRegion.html#a98c947b33b0d7924179212feeb247538" target="_top" xlink:title=" ">
<polygon fill="white" stroke="black" points="441,-249 441,-279 569,-279 569,-249 441,-249"/>
<text text-anchor="start" x="449" y="-267" font-family="Helvetica,sans-Serif" font-size="10.00">cppgc::internal::Persistent</text>
<text text-anchor="middle" x="505" y="-256" font-family="Helvetica,sans-Serif" font-size="10.00">Region::AllocateNode</text>
</a>
</g>
</g>
<!-- Node1&#45;&gt;Node2 -->
<g id="edge1" class="edge">
<title>Node1&#45;&gt;Node2</title>
<path fill="none" stroke="midnightblue" d="M995.38,-212.77C976.43,-228.97 948.38,-250.24 920,-262 795.09,-313.73 751.37,-303.94 617,-289 598.74,-286.97 579.1,-283.11 561.49,-279.03"/>
<polygon fill="midnightblue" stroke="midnightblue" points="997.7,-215.39 1002.92,-206.17 993.09,-210.12 997.7,-215.39"/>
</g>
<!-- Node5 -->
<g id="node5" class="node">
<title>Node5</title>
<g id="a_node5"><a xlink:href="classcppgc_1_1internal_1_1PersistentNode.html#a7d35e57a8fd60e0d42222cd8d93c2942" target="_top" xlink:title=" ">
<polygon fill="white" stroke="black" points="622.5,-249 622.5,-279 750.5,-279 750.5,-249 622.5,-249"/>
<text text-anchor="start" x="630.5" y="-267" font-family="Helvetica,sans-Serif" font-size="10.00">cppgc::internal::Persistent</text>
<text text-anchor="middle" x="686.5" y="-256" font-family="Helvetica,sans-Serif" font-size="10.00">Node::FreeListNext</text>
</a>
</g>
</g>
<!-- Node1&#45;&gt;Node5 -->
<g id="edge4" class="edge">
<title>Node1&#45;&gt;Node5</title>
<path fill="none" stroke="midnightblue" d="M984.52,-210.85C965.98,-220.61 942.39,-231.63 920,-238 864.14,-253.9 798.14,-260.15 750.76,-262.57"/>
<polygon fill="midnightblue" stroke="midnightblue" points="986.31,-213.86 993.46,-206.03 982.99,-207.7 986.31,-213.86"/>
</g>
<!-- Node6 -->
<g id="node6" class="node">
<title>Node6</title>
<g id="a_node6"><a xlink:href="classcppgc_1_1internal_1_1PersistentRegion.html#af9379c9232b30b74532cccb697de9950" target="_top" xlink:title=" ">
<polygon fill="white" stroke="black" points="792,-110 792,-140 920,-140 920,-110 792,-110"/>
<text text-anchor="start" x="800" y="-128" font-family="Helvetica,sans-Serif" font-size="10.00">cppgc::internal::Persistent</text>
<text text-anchor="middle" x="856" y="-117" font-family="Helvetica,sans-Serif" font-size="10.00">Region::FreeNode</text>
</a>
</g>
</g>
<!-- Node1&#45;&gt;Node6 -->
<g id="edge6" class="edge">
<title>Node1&#45;&gt;Node6</title>
<path fill="none" stroke="midnightblue" d="M972.57,-172.08C947.63,-161.92 917.32,-149.57 893.99,-140.07"/>
<polygon fill="midnightblue" stroke="midnightblue" points="971.25,-175.33 981.83,-175.86 973.89,-168.84 971.25,-175.33"/>
</g>
<!-- Node12 -->
<g id="node12" class="node">
<title>Node12</title>
<g id="a_node12"><a xlink:href="classcppgc_1_1internal_1_1PersistentNode.html#ad50ff2c6d54004b92ec8c2d92455f17b" target="_top" xlink:title=" ">
<polygon fill="white" stroke="black" points="792,-198 792,-228 920,-228 920,-198 792,-198"/>
<text text-anchor="start" x="800" y="-216" font-family="Helvetica,sans-Serif" font-size="10.00">cppgc::internal::Persistent</text>
<text text-anchor="middle" x="856" y="-205" font-family="Helvetica,sans-Serif" font-size="10.00">Node::owner</text>
</a>
</g>
</g>
<!-- Node1&#45;&gt;Node12 -->
<g id="edge12" class="edge">
<title>Node1&#45;&gt;Node12</title>
<path fill="none" stroke="midnightblue" d="M945.91,-200.93C937.32,-202.09 928.62,-203.27 920.19,-204.42"/>
<polygon fill="midnightblue" stroke="midnightblue" points="946.46,-204.38 955.9,-199.57 945.52,-197.45 946.46,-204.38"/>
</g>
<!-- Node14 -->
<g id="node14" class="node">
<title>Node14</title>
<g id="a_node14"><a xlink:href="classcppgc_1_1internal_1_1PersistentNode.html#a1ca2104547bd2139cb56233c575a38f9" target="_top" xlink:title=" ">
<polygon fill="white" stroke="black" points="622.5,-151 622.5,-181 750.5,-181 750.5,-151 622.5,-151"/>
<text text-anchor="start" x="630.5" y="-169" font-family="Helvetica,sans-Serif" font-size="10.00">cppgc::internal::Persistent</text>
<text text-anchor="middle" x="686.5" y="-158" font-family="Helvetica,sans-Serif" font-size="10.00">Node::UpdateOwner</text>
</a>
</g>
</g>
<!-- Node1&#45;&gt;Node14 -->
<g id="edge20" class="edge">
<title>Node1&#45;&gt;Node14</title>
<path fill="none" stroke="midnightblue" d="M945.6,-185.46C887.17,-181.06 806.25,-174.96 750.68,-170.76"/>
<polygon fill="midnightblue" stroke="midnightblue" points="945.63,-188.98 955.87,-186.24 946.16,-182 945.63,-188.98"/>
</g>
<!-- Node17 -->
<g id="node17" class="node">
<title>Node17</title>
<g id="a_node17"><a xlink:href="classcppgc_1_1internal_1_1PersistentNode.html#abad2492c5f2fd83b81597b0cb321a770" target="_top" xlink:title=" ">
<polygon fill="white" stroke="black" points="792,-61 792,-91 920,-91 920,-61 792,-61"/>
<text text-anchor="start" x="800" y="-79" font-family="Helvetica,sans-Serif" font-size="10.00">cppgc::internal::Persistent</text>
<text text-anchor="middle" x="856" y="-68" font-family="Helvetica,sans-Serif" font-size="10.00">Node::Trace</text>
</a>
</g>
</g>
<!-- Node1&#45;&gt;Node17 -->
<g id="edge19" class="edge">
<title>Node1&#45;&gt;Node17</title>
<path fill="none" stroke="midnightblue" d="M998.69,-168.39C979.86,-148.51 950.27,-119.89 920,-101 914.11,-97.33 907.59,-94.02 901.04,-91.1"/>
<polygon fill="midnightblue" stroke="midnightblue" points="996.21,-170.87 1005.59,-175.8 1001.33,-166.1 996.21,-170.87"/>
</g>
<!-- Node3 -->
<g id="node3" class="node">
<title>Node3</title>
<g id="a_node3"><a xlink:href="classcppgc_1_1internal_1_1CrossThreadPersistentRegion.html#aa24fa3dbb7ced946935b20b00a2e5eb1" target="_top" xlink:title=" ">
<polygon fill="white" stroke="black" points="225.5,-249 225.5,-279 379.5,-279 379.5,-249 225.5,-249"/>
<text text-anchor="start" x="233.5" y="-267" font-family="Helvetica,sans-Serif" font-size="10.00">cppgc::internal::CrossThread</text>
<text text-anchor="middle" x="302.5" y="-256" font-family="Helvetica,sans-Serif" font-size="10.00">PersistentRegion::AllocateNode</text>
</a>
</g>
</g>
<!-- Node2&#45;&gt;Node3 -->
<g id="edge2" class="edge">
<title>Node2&#45;&gt;Node3</title>
<path fill="none" stroke="midnightblue" d="M430.66,-264C414.07,-264 396.41,-264 379.71,-264"/>
<polygon fill="midnightblue" stroke="midnightblue" points="430.84,-267.5 440.84,-264 430.84,-260.5 430.84,-267.5"/>
</g>
<!-- Node4 -->
<g id="node4" class="node">
<title>Node4</title>
<g id="a_node4"><a xlink:href="classcppgc_1_1internal_1_1BasicCrossThreadPersistent.html#ae6349479cb58549b01386d82d66fa656" target="_top" xlink:title=" ">
<polygon fill="white" stroke="black" points="0,-243.5 0,-284.5 176,-284.5 176,-243.5 0,-243.5"/>
<text text-anchor="start" x="8" y="-272.5" font-family="Helvetica,sans-Serif" font-size="10.00">cppgc::internal::BasicCross</text>
<text text-anchor="start" x="8" y="-261.5" font-family="Helvetica,sans-Serif" font-size="10.00">ThreadPersistent::BasicCrossThread</text>
<text text-anchor="middle" x="88" y="-250.5" font-family="Helvetica,sans-Serif" font-size="10.00">Persistent</text>
</a>
</g>
</g>
<!-- Node3&#45;&gt;Node4 -->
<g id="edge3" class="edge">
<title>Node3&#45;&gt;Node4</title>
<path fill="none" stroke="midnightblue" d="M215.17,-264C202.3,-264 189.03,-264 176.15,-264"/>
<polygon fill="midnightblue" stroke="midnightblue" points="215.38,-267.5 225.38,-264 215.38,-260.5 215.38,-267.5"/>
</g>
<!-- Node5&#45;&gt;Node2 -->
<g id="edge5" class="edge">
<title>Node5&#45;&gt;Node2</title>
<path fill="none" stroke="midnightblue" d="M612.2,-264C597.93,-264 583.09,-264 569.18,-264"/>
<polygon fill="midnightblue" stroke="midnightblue" points="612.47,-267.5 622.47,-264 612.47,-260.5 612.47,-267.5"/>
</g>
<!-- Node7 -->
<g id="node7" class="node">
<title>Node7</title>
<g id="a_node7"><a xlink:href="classcppgc_1_1internal_1_1CrossThreadPersistentRegion.html#a2ea5f1dee7fd750ada5d3d29e80871b3" target="_top" xlink:title=" ">
<polygon fill="white" stroke="black" points="617,-82 617,-112 756,-112 756,-82 617,-82"/>
<text text-anchor="start" x="625" y="-100" font-family="Helvetica,sans-Serif" font-size="10.00">cppgc::internal::CrossThread</text>
<text text-anchor="middle" x="686.5" y="-89" font-family="Helvetica,sans-Serif" font-size="10.00">PersistentRegion::FreeNode</text>
</a>
</g>
</g>
<!-- Node6&#45;&gt;Node7 -->
<g id="edge7" class="edge">
<title>Node6&#45;&gt;Node7</title>
<path fill="none" stroke="midnightblue" d="M781.79,-112.76C773.3,-111.34 764.66,-109.9 756.23,-108.49"/>
<polygon fill="midnightblue" stroke="midnightblue" points="781.24,-116.22 791.68,-114.41 782.39,-109.31 781.24,-116.22"/>
</g>
<!-- Node8 -->
<g id="node8" class="node">
<title>Node8</title>
<g id="a_node8"><a xlink:href="classcppgc_1_1internal_1_1BasicCrossThreadPersistent.html#a4101c15a02138c88ea1d29ef95b10b34" target="_top" xlink:title=" ">
<polygon fill="white" stroke="black" points="438,-62 438,-92 572,-92 572,-62 438,-62"/>
<text text-anchor="start" x="446" y="-80" font-family="Helvetica,sans-Serif" font-size="10.00">cppgc::internal::BasicCross</text>
<text text-anchor="middle" x="505" y="-69" font-family="Helvetica,sans-Serif" font-size="10.00">ThreadPersistent::Clear</text>
</a>
</g>
</g>
<!-- Node7&#45;&gt;Node8 -->
<g id="edge8" class="edge">
<title>Node7&#45;&gt;Node8</title>
<path fill="none" stroke="midnightblue" d="M606.81,-88.23C595.27,-86.95 583.48,-85.63 572.22,-84.38"/>
<polygon fill="midnightblue" stroke="midnightblue" points="606.54,-91.72 616.87,-89.35 607.32,-84.77 606.54,-91.72"/>
</g>
<!-- Node9 -->
<g id="node9" class="node">
<title>Node9</title>
<g id="a_node9"><a xlink:href="classcppgc_1_1internal_1_1BasicCrossThreadPersistent.html#a495e434ac092107ddb112715a863274c" target="_top" xlink:title=" ">
<polygon fill="white" stroke="black" points="234,-109 234,-139 371,-139 371,-109 234,-109"/>
<text text-anchor="start" x="242" y="-127" font-family="Helvetica,sans-Serif" font-size="10.00">cppgc::internal::BasicCross</text>
<text text-anchor="middle" x="302.5" y="-116" font-family="Helvetica,sans-Serif" font-size="10.00">ThreadPersistent::operator=</text>
</a>
</g>
</g>
<!-- Node8&#45;&gt;Node9 -->
<g id="edge9" class="edge">
<title>Node8&#45;&gt;Node9</title>
<path fill="none" stroke="midnightblue" d="M430.08,-94.33C409.57,-99.14 387.47,-104.32 367.57,-108.98"/>
<polygon fill="midnightblue" stroke="midnightblue" points="431.07,-97.69 440.01,-92 429.47,-90.88 431.07,-97.69"/>
</g>
<!-- Node10 -->
<g id="node10" class="node">
<title>Node10</title>
<g id="a_node10"><a xlink:href="classcppgc_1_1internal_1_1BasicCrossThreadPersistent.html#abb70613317d91b74292c7f20a5b52226" target="_top" xlink:title=" ">
<polygon fill="white" stroke="black" points="235.5,-60 235.5,-90 369.5,-90 369.5,-60 235.5,-60"/>
<text text-anchor="start" x="243.5" y="-78" font-family="Helvetica,sans-Serif" font-size="10.00">cppgc::internal::BasicCross</text>
<text text-anchor="middle" x="302.5" y="-67" font-family="Helvetica,sans-Serif" font-size="10.00">ThreadPersistent::Release</text>
</a>
</g>
</g>
<!-- Node8&#45;&gt;Node10 -->
<g id="edge10" class="edge">
<title>Node8&#45;&gt;Node10</title>
<path fill="none" stroke="midnightblue" d="M427.63,-76.24C408.53,-76.05 388.2,-75.84 369.64,-75.66"/>
<polygon fill="midnightblue" stroke="midnightblue" points="427.76,-79.74 437.79,-76.34 427.83,-72.74 427.76,-79.74"/>
</g>
<!-- Node11 -->
<g id="node11" class="node">
<title>Node11</title>
<g id="a_node11"><a xlink:href="classcppgc_1_1internal_1_1BasicCrossThreadPersistent.html#a4a9f99e98580ac06fdcdfbab0eae4977" target="_top" xlink:title=" ">
<polygon fill="white" stroke="black" points="212,-0.5 212,-41.5 393,-41.5 393,-0.5 212,-0.5"/>
<text text-anchor="start" x="220" y="-29.5" font-family="Helvetica,sans-Serif" font-size="10.00">cppgc::internal::BasicCross</text>
<text text-anchor="start" x="220" y="-18.5" font-family="Helvetica,sans-Serif" font-size="10.00">ThreadPersistent::~BasicCrossThread</text>
<text text-anchor="middle" x="302.5" y="-7.5" font-family="Helvetica,sans-Serif" font-size="10.00">Persistent</text>
</a>
</g>
</g>
<!-- Node8&#45;&gt;Node11 -->
<g id="edge11" class="edge">
<title>Node8&#45;&gt;Node11</title>
<path fill="none" stroke="midnightblue" d="M440.56,-59.28C420.35,-53.64 397.83,-47.35 376.98,-41.52"/>
<polygon fill="midnightblue" stroke="midnightblue" points="439.7,-62.67 450.27,-61.99 441.58,-55.93 439.7,-62.67"/>
</g>
<!-- Node13 -->
<g id="node13" class="node">
<title>Node13</title>
<g id="a_node13"><a xlink:href="classcppgc_1_1internal_1_1PersistentNode.html#a18c4a9bce10409fd47e53cc0cdf8acab" target="_top" xlink:title=" ">
<polygon fill="white" stroke="black" points="617.5,-200 617.5,-230 755.5,-230 755.5,-200 617.5,-200"/>
<text text-anchor="start" x="625.5" y="-218" font-family="Helvetica,sans-Serif" font-size="10.00">cppgc::internal::Persistent</text>
<text text-anchor="middle" x="686.5" y="-207" font-family="Helvetica,sans-Serif" font-size="10.00">Node::InitializeAsUsedNode</text>
</a>
</g>
</g>
<!-- Node12&#45;&gt;Node13 -->
<g id="edge13" class="edge">
<title>Node12&#45;&gt;Node13</title>
<path fill="none" stroke="midnightblue" d="M781.63,-213.88C773,-213.98 764.22,-214.08 755.67,-214.19"/>
<polygon fill="midnightblue" stroke="midnightblue" points="781.72,-217.38 791.68,-213.76 781.63,-210.38 781.72,-217.38"/>
</g>
<!-- Node12&#45;&gt;Node14 -->
<g id="edge15" class="edge">
<title>Node12&#45;&gt;Node14</title>
<path fill="none" stroke="midnightblue" d="M791.84,-195.28C775.11,-190.58 757.2,-185.56 741.03,-181.02"/>
<polygon fill="midnightblue" stroke="midnightblue" points="790.97,-198.67 801.54,-198 792.86,-191.93 790.97,-198.67"/>
</g>
<!-- Node13&#45;&gt;Node2 -->
<g id="edge14" class="edge">
<title>Node13&#45;&gt;Node2</title>
<path fill="none" stroke="midnightblue" d="M620.48,-232.75C601.03,-238.06 579.89,-243.83 561.14,-248.95"/>
<polygon fill="midnightblue" stroke="midnightblue" points="621.45,-236.11 630.18,-230.1 619.61,-229.36 621.45,-236.11"/>
</g>
<!-- Node14&#45;&gt;Node9 -->
<g id="edge17" class="edge">
<title>Node14&#45;&gt;Node9</title>
<path fill="none" stroke="midnightblue" d="M617.69,-148.76C605.54,-146.15 592.94,-143.75 581,-142 509.82,-131.59 427.49,-127.2 371.11,-125.35"/>
<polygon fill="midnightblue" stroke="midnightblue" points="617.26,-152.25 627.78,-151 618.77,-145.42 617.26,-152.25"/>
</g>
<!-- Node15 -->
<g id="node15" class="node">
<title>Node15</title>
<g id="a_node15"><a xlink:href="classcppgc_1_1internal_1_1BasicPersistent.html#abbfbd78f28338f9391df14a80498fe87" target="_top" xlink:title=" ">
<polygon fill="white" stroke="black" points="429,-200 429,-230 581,-230 581,-200 429,-200"/>
<text text-anchor="start" x="437" y="-218" font-family="Helvetica,sans-Serif" font-size="10.00">cppgc::internal::BasicPersistent</text>
<text text-anchor="middle" x="505" y="-207" font-family="Helvetica,sans-Serif" font-size="10.00">::BasicPersistent</text>
</a>
</g>
</g>
<!-- Node14&#45;&gt;Node15 -->
<g id="edge16" class="edge">
<title>Node14&#45;&gt;Node15</title>
<path fill="none" stroke="midnightblue" d="M620.48,-183.75C601.03,-189.06 579.89,-194.83 561.14,-199.95"/>
<polygon fill="midnightblue" stroke="midnightblue" points="621.45,-187.11 630.18,-181.1 619.61,-180.36 621.45,-187.11"/>
</g>
<!-- Node16 -->
<g id="node16" class="node">
<title>Node16</title>
<g id="a_node16"><a xlink:href="classcppgc_1_1internal_1_1BasicPersistent.html#a64bd8cc47feea777f916b4c9e1272f70" target="_top" xlink:title=" ">
<polygon fill="white" stroke="black" points="429,-151 429,-181 581,-181 581,-151 429,-151"/>
<text text-anchor="start" x="437" y="-169" font-family="Helvetica,sans-Serif" font-size="10.00">cppgc::internal::BasicPersistent</text>
<text text-anchor="middle" x="505" y="-158" font-family="Helvetica,sans-Serif" font-size="10.00">::operator=</text>
</a>
</g>
</g>
<!-- Node14&#45;&gt;Node16 -->
<g id="edge18" class="edge">
<title>Node14&#45;&gt;Node16</title>
<path fill="none" stroke="midnightblue" d="M612.33,-166C602.06,-166 591.5,-166 581.2,-166"/>
<polygon fill="midnightblue" stroke="midnightblue" points="612.47,-169.5 622.47,-166 612.47,-162.5 612.47,-169.5"/>
</g>
</g>
</svg>
