<?xml version="1.0" encoding="UTF-8" standalone="no"?>
<!DOCTYPE svg PUBLIC "-//W3C//DTD SVG 1.1//EN"
 "http://www.w3.org/Graphics/SVG/1.1/DTD/svg11.dtd">
<!-- Generated by graphviz version 2.49.3 (20211027.1534)
 -->
<!-- Title: cppgc::internal::BasicCrossThreadPersistent::Release Pages: 1 -->
<svg width="827pt" height="259pt"
 viewBox="0.00 0.00 827.00 259.00" xmlns="http://www.w3.org/2000/svg" xmlns:xlink="http://www.w3.org/1999/xlink">
<g id="graph0" class="graph" transform="scale(1 1) rotate(0) translate(4 255)">
<title>cppgc::internal::BasicCrossThreadPersistent::Release</title>
<polygon fill="white" stroke="transparent" points="-4,4 -4,-255 823,-255 823,4 -4,4"/>
<!-- Node1 -->
<g id="node1" class="node">
<title>Node1</title>
<g id="a_node1"><a xlink:title=" ">
<polygon fill="#bfbfbf" stroke="black" points="0,-48.5 0,-78.5 134,-78.5 134,-48.5 0,-48.5"/>
<text text-anchor="start" x="8" y="-66.5" font-family="Helvetica,sans-Serif" font-size="10.00">cppgc::internal::BasicCross</text>
<text text-anchor="middle" x="67" y="-55.5" font-family="Helvetica,sans-Serif" font-size="10.00">ThreadPersistent::Release</text>
</a>
</g>
</g>
<!-- Node2 -->
<g id="node2" class="node">
<title>Node2</title>
<g id="a_node2"><a xlink:href="classcppgc_1_1internal_1_1BasicCrossThreadPersistent.html#a4101c15a02138c88ea1d29ef95b10b34" target="_top" xlink:title=" ">
<polygon fill="white" stroke="black" points="170,-85.5 170,-115.5 304,-115.5 304,-85.5 170,-85.5"/>
<text text-anchor="start" x="178" y="-103.5" font-family="Helvetica,sans-Serif" font-size="10.00">cppgc::internal::BasicCross</text>
<text text-anchor="middle" x="237" y="-92.5" font-family="Helvetica,sans-Serif" font-size="10.00">ThreadPersistent::Clear</text>
</a>
</g>
</g>
<!-- Node1&#45;&gt;Node2 -->
<g id="edge1" class="edge">
<title>Node1&#45;&gt;Node2</title>
<path fill="none" stroke="midnightblue" d="M134.4,-78.12C142.77,-79.97 151.39,-81.86 159.89,-83.74"/>
<polygon fill="midnightblue" stroke="midnightblue" points="159.29,-87.19 169.81,-85.92 160.8,-80.35 159.29,-87.19"/>
</g>
<!-- Node12 -->
<g id="node12" class="node">
<title>Node12</title>
<g id="a_node12"><a xlink:href="classcppgc_1_1internal_1_1BasicCrossThreadPersistent.html#a11303453def5b5179a064fa1a9c35988" target="_top" xlink:title=" ">
<polygon fill="white" stroke="black" points="170,-24.5 170,-54.5 304,-54.5 304,-24.5 170,-24.5"/>
<text text-anchor="start" x="178" y="-42.5" font-family="Helvetica,sans-Serif" font-size="10.00">cppgc::internal::BasicCross</text>
<text text-anchor="middle" x="237" y="-31.5" font-family="Helvetica,sans-Serif" font-size="10.00">ThreadPersistent::Get</text>
</a>
</g>
</g>
<!-- Node1&#45;&gt;Node12 -->
<g id="edge11" class="edge">
<title>Node1&#45;&gt;Node12</title>
<path fill="none" stroke="midnightblue" d="M134.4,-54.01C142.77,-52.82 151.39,-51.59 159.89,-50.37"/>
<polygon fill="midnightblue" stroke="midnightblue" points="160.4,-53.83 169.81,-48.96 159.41,-46.91 160.4,-53.83"/>
</g>
<!-- Node3 -->
<g id="node3" class="node">
<title>Node3</title>
<g id="a_node3"><a xlink:href="classcppgc_1_1internal_1_1CrossThreadPersistentRegion.html#a2ea5f1dee7fd750ada5d3d29e80871b3" target="_top" xlink:title=" ">
<polygon fill="white" stroke="black" points="340,-196.5 340,-226.5 479,-226.5 479,-196.5 340,-196.5"/>
<text text-anchor="start" x="348" y="-214.5" font-family="Helvetica,sans-Serif" font-size="10.00">cppgc::internal::CrossThread</text>
<text text-anchor="middle" x="409.5" y="-203.5" font-family="Helvetica,sans-Serif" font-size="10.00">PersistentRegion::FreeNode</text>
</a>
</g>
</g>
<!-- Node2&#45;&gt;Node3 -->
<g id="edge2" class="edge">
<title>Node2&#45;&gt;Node3</title>
<path fill="none" stroke="midnightblue" d="M252.2,-115.68C270.78,-134.76 305.09,-167.44 340,-187.5 342.99,-189.22 346.11,-190.84 349.32,-192.37"/>
<polygon fill="midnightblue" stroke="midnightblue" points="347.95,-195.59 358.52,-196.44 350.79,-189.19 347.95,-195.59"/>
</g>
<!-- Node8 -->
<g id="node8" class="node">
<title>Node8</title>
<g id="a_node8"><a xlink:href="classcppgc_1_1internal_1_1PersistentBase.html#aa189d8229e1fd8cc2cfce363ade822c6" target="_top" xlink:title=" ">
<polygon fill="white" stroke="black" points="345.5,-147.5 345.5,-177.5 473.5,-177.5 473.5,-147.5 345.5,-147.5"/>
<text text-anchor="start" x="353.5" y="-165.5" font-family="Helvetica,sans-Serif" font-size="10.00">cppgc::internal::Persistent</text>
<text text-anchor="middle" x="409.5" y="-154.5" font-family="Helvetica,sans-Serif" font-size="10.00">Base::GetNode</text>
</a>
</g>
</g>
<!-- Node2&#45;&gt;Node8 -->
<g id="edge7" class="edge">
<title>Node2&#45;&gt;Node8</title>
<path fill="none" stroke="midnightblue" d="M279.27,-115.51C302.76,-124.05 332.39,-134.82 357.35,-143.9"/>
<polygon fill="midnightblue" stroke="midnightblue" points="356.42,-147.29 367.02,-147.41 358.81,-140.71 356.42,-147.29"/>
</g>
<!-- Node9 -->
<g id="node9" class="node">
<title>Node9</title>
<g id="a_node9"><a xlink:href="classcppgc_1_1internal_1_1PersistentBase.html#a2fce9ff2e5e2e6e347e31dc1399c7acb" target="_top" xlink:title=" ">
<polygon fill="white" stroke="black" points="345.5,-0.5 345.5,-30.5 473.5,-30.5 473.5,-0.5 345.5,-0.5"/>
<text text-anchor="start" x="353.5" y="-18.5" font-family="Helvetica,sans-Serif" font-size="10.00">cppgc::internal::Persistent</text>
<text text-anchor="middle" x="409.5" y="-7.5" font-family="Helvetica,sans-Serif" font-size="10.00">Base::GetValue</text>
</a>
</g>
</g>
<!-- Node2&#45;&gt;Node9 -->
<g id="edge8" class="edge">
<title>Node2&#45;&gt;Node9</title>
<path fill="none" stroke="midnightblue" d="M265.89,-85.49C277.76,-78.94 291.68,-71.05 304,-63.5 320.4,-53.46 322.79,-48.08 340,-39.5 343.58,-37.72 347.32,-36.01 351.13,-34.38"/>
<polygon fill="midnightblue" stroke="midnightblue" points="352.74,-37.51 360.69,-30.51 350.11,-31.02 352.74,-37.51"/>
</g>
<!-- Node10 -->
<g id="node10" class="node">
<title>Node10</title>
<g id="a_node10"><a xlink:href="classcppgc_1_1internal_1_1PersistentBase.html#af84e1d2f71c9cbd3f0a4424339c725cb" target="_top" xlink:title=" ">
<polygon fill="white" stroke="black" points="345.5,-98.5 345.5,-128.5 473.5,-128.5 473.5,-98.5 345.5,-98.5"/>
<text text-anchor="start" x="353.5" y="-116.5" font-family="Helvetica,sans-Serif" font-size="10.00">cppgc::internal::Persistent</text>
<text text-anchor="middle" x="409.5" y="-105.5" font-family="Helvetica,sans-Serif" font-size="10.00">Base::SetNode</text>
</a>
</g>
</g>
<!-- Node2&#45;&gt;Node10 -->
<g id="edge9" class="edge">
<title>Node2&#45;&gt;Node10</title>
<path fill="none" stroke="midnightblue" d="M304.41,-105.56C314.51,-106.33 324.98,-107.13 335.21,-107.91"/>
<polygon fill="midnightblue" stroke="midnightblue" points="335.11,-111.41 345.35,-108.68 335.64,-104.43 335.11,-111.41"/>
</g>
<!-- Node11 -->
<g id="node11" class="node">
<title>Node11</title>
<g id="a_node11"><a xlink:href="classcppgc_1_1internal_1_1PersistentBase.html#a697d2fa1fc753a2f2e8c479143d72995" target="_top" xlink:title=" ">
<polygon fill="white" stroke="black" points="345.5,-49.5 345.5,-79.5 473.5,-79.5 473.5,-49.5 345.5,-49.5"/>
<text text-anchor="start" x="353.5" y="-67.5" font-family="Helvetica,sans-Serif" font-size="10.00">cppgc::internal::Persistent</text>
<text text-anchor="middle" x="409.5" y="-56.5" font-family="Helvetica,sans-Serif" font-size="10.00">Base::SetValue</text>
</a>
</g>
</g>
<!-- Node2&#45;&gt;Node11 -->
<g id="edge10" class="edge">
<title>Node2&#45;&gt;Node11</title>
<path fill="none" stroke="midnightblue" d="M304.41,-86.48C314.61,-84.32 325.19,-82.09 335.53,-79.91"/>
<polygon fill="midnightblue" stroke="midnightblue" points="336.28,-83.33 345.35,-77.83 334.84,-76.48 336.28,-83.33"/>
</g>
<!-- Node4 -->
<g id="node4" class="node">
<title>Node4</title>
<g id="a_node4"><a xlink:href="classcppgc_1_1internal_1_1PersistentRegionLock.html#a44d69a4e273ffca99d2389d622a844a1" target="_top" xlink:title=" ">
<polygon fill="white" stroke="black" points="515,-220.5 515,-250.5 649,-250.5 649,-220.5 515,-220.5"/>
<text text-anchor="start" x="523" y="-238.5" font-family="Helvetica,sans-Serif" font-size="10.00">cppgc::internal::Persistent</text>
<text text-anchor="middle" x="582" y="-227.5" font-family="Helvetica,sans-Serif" font-size="10.00">RegionLock::AssertLocked</text>
</a>
</g>
</g>
<!-- Node3&#45;&gt;Node4 -->
<g id="edge3" class="edge">
<title>Node3&#45;&gt;Node4</title>
<path fill="none" stroke="midnightblue" d="M479.36,-221.19C487.79,-222.38 496.45,-223.6 504.99,-224.8"/>
<polygon fill="midnightblue" stroke="midnightblue" points="504.54,-228.27 514.93,-226.2 505.51,-221.34 504.54,-228.27"/>
</g>
<!-- Node5 -->
<g id="node5" class="node">
<title>Node5</title>
<g id="a_node5"><a xlink:href="classcppgc_1_1internal_1_1PersistentRegion.html#af9379c9232b30b74532cccb697de9950" target="_top" xlink:title=" ">
<polygon fill="white" stroke="black" points="518,-171.5 518,-201.5 646,-201.5 646,-171.5 518,-171.5"/>
<text text-anchor="start" x="526" y="-189.5" font-family="Helvetica,sans-Serif" font-size="10.00">cppgc::internal::Persistent</text>
<text text-anchor="middle" x="582" y="-178.5" font-family="Helvetica,sans-Serif" font-size="10.00">Region::FreeNode</text>
</a>
</g>
</g>
<!-- Node3&#45;&gt;Node5 -->
<g id="edge4" class="edge">
<title>Node3&#45;&gt;Node5</title>
<path fill="none" stroke="midnightblue" d="M479.36,-201.4C488.72,-200.03 498.36,-198.62 507.8,-197.23"/>
<polygon fill="midnightblue" stroke="midnightblue" points="508.56,-200.66 517.95,-195.75 507.54,-193.73 508.56,-200.66"/>
</g>
<!-- Node6 -->
<g id="node6" class="node">
<title>Node6</title>
<g id="a_node6"><a xlink:href="classcppgc_1_1internal_1_1PersistentNode.html#a54960a446ce00f010add74b54bccc0ba" target="_top" xlink:title=" ">
<polygon fill="white" stroke="black" points="685,-196.5 685,-226.5 819,-226.5 819,-196.5 685,-196.5"/>
<text text-anchor="start" x="693" y="-214.5" font-family="Helvetica,sans-Serif" font-size="10.00">cppgc::internal::Persistent</text>
<text text-anchor="middle" x="752" y="-203.5" font-family="Helvetica,sans-Serif" font-size="10.00">Node::InitializeAsFreeNode</text>
</a>
</g>
</g>
<!-- Node5&#45;&gt;Node6 -->
<g id="edge5" class="edge">
<title>Node5&#45;&gt;Node6</title>
<path fill="none" stroke="midnightblue" d="M646.03,-195.88C655.43,-197.28 665.2,-198.73 674.84,-200.17"/>
<polygon fill="midnightblue" stroke="midnightblue" points="674.4,-203.64 684.81,-201.65 675.43,-196.72 674.4,-203.64"/>
</g>
<!-- Node7 -->
<g id="node7" class="node">
<title>Node7</title>
<g id="a_node7"><a xlink:href="classcppgc_1_1internal_1_1PersistentNode.html#a6117a8f66c181bb22827a21b3fbd3457" target="_top" xlink:title=" ">
<polygon fill="white" stroke="black" points="688,-147.5 688,-177.5 816,-177.5 816,-147.5 688,-147.5"/>
<text text-anchor="start" x="696" y="-165.5" font-family="Helvetica,sans-Serif" font-size="10.00">cppgc::internal::Persistent</text>
<text text-anchor="middle" x="752" y="-154.5" font-family="Helvetica,sans-Serif" font-size="10.00">Node::IsUsed</text>
</a>
</g>
</g>
<!-- Node5&#45;&gt;Node7 -->
<g id="edge6" class="edge">
<title>Node5&#45;&gt;Node7</title>
<path fill="none" stroke="midnightblue" d="M646.03,-177.5C656.41,-176.01 667.23,-174.47 677.83,-172.95"/>
<polygon fill="midnightblue" stroke="midnightblue" points="678.49,-176.39 687.89,-171.52 677.5,-169.47 678.49,-176.39"/>
</g>
<!-- Node12&#45;&gt;Node9 -->
<g id="edge12" class="edge">
<title>Node12&#45;&gt;Node9</title>
<path fill="none" stroke="midnightblue" d="M304.41,-30.15C314.51,-28.73 324.98,-27.26 335.21,-25.82"/>
<polygon fill="midnightblue" stroke="midnightblue" points="335.93,-29.25 345.35,-24.39 334.95,-22.32 335.93,-29.25"/>
</g>
</g>
</svg>
