<?xml version="1.0" encoding="UTF-8" standalone="no"?>
<!DOCTYPE svg PUBLIC "-//W3C//DTD SVG 1.1//EN"
 "http://www.w3.org/Graphics/SVG/1.1/DTD/svg11.dtd">
<!-- Generated by graphviz version 2.49.3 (20211027.1534)
 -->
<!-- Title: include/cppgc/custom&#45;space.h Pages: 1 -->
<svg width="487pt" height="408pt"
 viewBox="0.00 0.00 486.50 408.00" xmlns="http://www.w3.org/2000/svg" xmlns:xlink="http://www.w3.org/1999/xlink">
<g id="graph0" class="graph" transform="scale(1 1) rotate(0) translate(4 404)">
<title>include/cppgc/custom&#45;space.h</title>
<polygon fill="white" stroke="transparent" points="-4,4 -4,-404 482.5,-404 482.5,4 -4,4"/>
<!-- Node1 -->
<g id="node1" class="node">
<title>Node1</title>
<g id="a_node1"><a xlink:title=" ">
<polygon fill="#bfbfbf" stroke="black" points="240.5,-369.5 240.5,-399.5 352.5,-399.5 352.5,-369.5 240.5,-369.5"/>
<text text-anchor="start" x="248.5" y="-387.5" font-family="Helvetica,sans-Serif" font-size="10.00">include/cppgc/custom</text>
<text text-anchor="middle" x="296.5" y="-376.5" font-family="Helvetica,sans-Serif" font-size="10.00">&#45;space.h</text>
</a>
</g>
</g>
<!-- Node2 -->
<g id="node2" class="node">
<title>Node2</title>
<g id="a_node2"><a xlink:href="allocation_8h.html" target="_top" xlink:title=" ">
<polygon fill="white" stroke="black" points="15.5,-313.5 15.5,-332.5 143.5,-332.5 143.5,-313.5 15.5,-313.5"/>
<text text-anchor="middle" x="79.5" y="-320.5" font-family="Helvetica,sans-Serif" font-size="10.00">include/cppgc/allocation.h</text>
</a>
</g>
</g>
<!-- Node1&#45;&gt;Node2 -->
<g id="edge1" class="edge">
<title>Node1&#45;&gt;Node2</title>
<path fill="none" stroke="midnightblue" d="M235.52,-366.78C194.82,-355.62 142.99,-341.41 110.52,-332.51"/>
<polygon fill="midnightblue" stroke="midnightblue" points="234.78,-370.21 245.35,-369.47 236.63,-363.45 234.78,-370.21"/>
</g>
<!-- Node4 -->
<g id="node4" class="node">
<title>Node4</title>
<g id="a_node4"><a xlink:href="heap_8h.html" target="_top" xlink:title=" ">
<polygon fill="white" stroke="black" points="177.5,-313.5 177.5,-332.5 285.5,-332.5 285.5,-313.5 177.5,-313.5"/>
<text text-anchor="middle" x="231.5" y="-320.5" font-family="Helvetica,sans-Serif" font-size="10.00">include/cppgc/heap.h</text>
</a>
</g>
</g>
<!-- Node1&#45;&gt;Node4 -->
<g id="edge3" class="edge">
<title>Node1&#45;&gt;Node4</title>
<path fill="none" stroke="midnightblue" d="M273.67,-362.6C262.43,-352.32 249.51,-340.48 240.96,-332.66"/>
<polygon fill="midnightblue" stroke="midnightblue" points="271.36,-365.23 281.1,-369.4 276.08,-360.07 271.36,-365.23"/>
</g>
<!-- Node9 -->
<g id="node9" class="node">
<title>Node9</title>
<g id="a_node9"><a xlink:href="visitor_8h.html" target="_top" xlink:title=" ">
<polygon fill="white" stroke="black" points="253,-123.5 253,-142.5 366,-142.5 366,-123.5 253,-123.5"/>
<text text-anchor="middle" x="309.5" y="-130.5" font-family="Helvetica,sans-Serif" font-size="10.00">include/cppgc/visitor.h</text>
</a>
</g>
</g>
<!-- Node1&#45;&gt;Node9 -->
<g id="edge16" class="edge">
<title>Node1&#45;&gt;Node9</title>
<path fill="none" stroke="midnightblue" d="M303.75,-359.37C314.31,-321.09 331.72,-244.11 322.5,-179 320.68,-166.12 316.05,-151.76 312.84,-142.8"/>
<polygon fill="midnightblue" stroke="midnightblue" points="300.35,-358.52 300.98,-369.1 307.09,-360.44 300.35,-358.52"/>
</g>
<!-- Node12 -->
<g id="node12" class="node">
<title>Node12</title>
<g id="a_node12"><a xlink:href="v8-cppgc_8h.html" target="_top" xlink:title=" ">
<polygon fill="white" stroke="black" points="380.5,-67.5 380.5,-86.5 478.5,-86.5 478.5,-67.5 380.5,-67.5"/>
<text text-anchor="middle" x="429.5" y="-74.5" font-family="Helvetica,sans-Serif" font-size="10.00">include/v8&#45;cppgc.h</text>
</a>
</g>
</g>
<!-- Node1&#45;&gt;Node12 -->
<g id="edge17" class="edge">
<title>Node1&#45;&gt;Node12</title>
<path fill="none" stroke="midnightblue" d="M338.66,-364.73C375.62,-345.07 423.5,-310.37 423.5,-262.5 423.5,-262.5 423.5,-262.5 423.5,-193.5 423.5,-153.54 427.13,-105.91 428.74,-86.69"/>
<polygon fill="midnightblue" stroke="midnightblue" points="336.84,-361.73 329.54,-369.4 340.03,-367.96 336.84,-361.73"/>
</g>
<!-- Node3 -->
<g id="node3" class="node">
<title>Node3</title>
<g id="a_node3"><a xlink:href="explicit-management_8h.html" target="_top" xlink:title=" ">
<polygon fill="white" stroke="black" points="7.5,-246.5 7.5,-276.5 117.5,-276.5 117.5,-246.5 7.5,-246.5"/>
<text text-anchor="start" x="15.5" y="-264.5" font-family="Helvetica,sans-Serif" font-size="10.00">include/cppgc/explicit</text>
<text text-anchor="middle" x="62.5" y="-253.5" font-family="Helvetica,sans-Serif" font-size="10.00">&#45;management.h</text>
</a>
</g>
</g>
<!-- Node2&#45;&gt;Node3 -->
<g id="edge2" class="edge">
<title>Node2&#45;&gt;Node3</title>
<path fill="none" stroke="midnightblue" d="M74.3,-303.82C71.8,-295.04 68.84,-284.68 66.51,-276.52"/>
<polygon fill="midnightblue" stroke="midnightblue" points="70.95,-304.82 77.06,-313.48 77.68,-302.9 70.95,-304.82"/>
</g>
<!-- Node5 -->
<g id="node5" class="node">
<title>Node5</title>
<g id="a_node5"><a xlink:href="prefinalizer-handler_8h.html" target="_top" xlink:title=" ">
<polygon fill="white" stroke="black" points="0,-179.5 0,-209.5 111,-209.5 111,-179.5 0,-179.5"/>
<text text-anchor="start" x="8" y="-197.5" font-family="Helvetica,sans-Serif" font-size="10.00">include/cppgc/internal</text>
<text text-anchor="middle" x="55.5" y="-186.5" font-family="Helvetica,sans-Serif" font-size="10.00">/prefinalizer&#45;handler.h</text>
</a>
</g>
</g>
<!-- Node4&#45;&gt;Node5 -->
<g id="edge4" class="edge">
<title>Node4&#45;&gt;Node5</title>
<path fill="none" stroke="midnightblue" d="M209.42,-307.91C196.18,-299.28 179.13,-287.85 164.5,-277 146.99,-264.02 143.83,-259.21 126.5,-246 109.78,-233.25 90.28,-219.46 75.96,-209.52"/>
<polygon fill="midnightblue" stroke="midnightblue" points="207.6,-310.9 217.9,-313.39 211.4,-305.02 207.6,-310.9"/>
</g>
<!-- Node7 -->
<g id="node7" class="node">
<title>Node7</title>
<g id="a_node7"><a xlink:href="liveness-broker_8h.html" target="_top" xlink:title=" ">
<polygon fill="white" stroke="black" points="173.5,-246.5 173.5,-276.5 289.5,-276.5 289.5,-246.5 173.5,-246.5"/>
<text text-anchor="start" x="181.5" y="-264.5" font-family="Helvetica,sans-Serif" font-size="10.00">include/cppgc/liveness</text>
<text text-anchor="middle" x="231.5" y="-253.5" font-family="Helvetica,sans-Serif" font-size="10.00">&#45;broker.h</text>
</a>
</g>
</g>
<!-- Node4&#45;&gt;Node7 -->
<g id="edge6" class="edge">
<title>Node4&#45;&gt;Node7</title>
<path fill="none" stroke="midnightblue" d="M231.5,-303.23C231.5,-294.59 231.5,-284.5 231.5,-276.52"/>
<polygon fill="midnightblue" stroke="midnightblue" points="228,-303.48 231.5,-313.48 235,-303.48 228,-303.48"/>
</g>
<!-- Node6 -->
<g id="node6" class="node">
<title>Node6</title>
<g id="a_node6"><a xlink:href="prefinalizer_8h.html" target="_top" xlink:title=" ">
<polygon fill="white" stroke="black" points="67,-123.5 67,-142.5 200,-142.5 200,-123.5 67,-123.5"/>
<text text-anchor="middle" x="133.5" y="-130.5" font-family="Helvetica,sans-Serif" font-size="10.00">include/cppgc/prefinalizer.h</text>
</a>
</g>
</g>
<!-- Node5&#45;&gt;Node6 -->
<g id="edge5" class="edge">
<title>Node5&#45;&gt;Node6</title>
<path fill="none" stroke="midnightblue" d="M82.13,-173.19C95.78,-162.77 111.7,-150.63 122.15,-142.66"/>
<polygon fill="midnightblue" stroke="midnightblue" points="79.81,-170.55 73.98,-179.4 84.06,-176.12 79.81,-170.55"/>
</g>
<!-- Node7&#45;&gt;Node5 -->
<g id="edge13" class="edge">
<title>Node7&#45;&gt;Node5</title>
<path fill="none" stroke="midnightblue" d="M183.62,-242.82C155.33,-232.37 120.01,-219.32 93.61,-209.58"/>
<polygon fill="midnightblue" stroke="midnightblue" points="182.72,-246.21 193.31,-246.4 185.14,-239.65 182.72,-246.21"/>
</g>
<!-- Node7&#45;&gt;Node6 -->
<g id="edge14" class="edge">
<title>Node7&#45;&gt;Node6</title>
<path fill="none" stroke="midnightblue" d="M194.08,-241.23C181.29,-233.08 167.87,-222.54 158.5,-210 142.87,-189.08 136.71,-157.9 134.55,-142.81"/>
<polygon fill="midnightblue" stroke="midnightblue" points="192.41,-244.31 202.77,-246.48 196.03,-238.32 192.41,-244.31"/>
</g>
<!-- Node8 -->
<g id="node8" class="node">
<title>Node8</title>
<g id="a_node8"><a xlink:href="ephemeron-pair_8h.html" target="_top" xlink:title=" ">
<polygon fill="white" stroke="black" points="167.5,-179.5 167.5,-209.5 295.5,-209.5 295.5,-179.5 167.5,-179.5"/>
<text text-anchor="start" x="175.5" y="-197.5" font-family="Helvetica,sans-Serif" font-size="10.00">include/cppgc/ephemeron</text>
<text text-anchor="middle" x="231.5" y="-186.5" font-family="Helvetica,sans-Serif" font-size="10.00">&#45;pair.h</text>
</a>
</g>
</g>
<!-- Node7&#45;&gt;Node8 -->
<g id="edge7" class="edge">
<title>Node7&#45;&gt;Node8</title>
<path fill="none" stroke="midnightblue" d="M231.5,-236.11C231.5,-227.15 231.5,-217.32 231.5,-209.58"/>
<polygon fill="midnightblue" stroke="midnightblue" points="228,-236.4 231.5,-246.4 235,-236.4 228,-236.4"/>
</g>
<!-- Node7&#45;&gt;Node9 -->
<g id="edge15" class="edge">
<title>Node7&#45;&gt;Node9</title>
<path fill="none" stroke="midnightblue" d="M272.95,-241C285.18,-233.14 297.22,-222.84 304.5,-210 316.76,-188.37 313.71,-157.52 311.22,-142.66"/>
<polygon fill="midnightblue" stroke="midnightblue" points="270.87,-238.17 264.07,-246.3 274.45,-244.18 270.87,-238.17"/>
</g>
<!-- Node8&#45;&gt;Node9 -->
<g id="edge8" class="edge">
<title>Node8&#45;&gt;Node9</title>
<path fill="none" stroke="midnightblue" d="M258.13,-173.19C271.78,-162.77 287.7,-150.63 298.15,-142.66"/>
<polygon fill="midnightblue" stroke="midnightblue" points="255.81,-170.55 249.98,-179.4 260.06,-176.12 255.81,-170.55"/>
</g>
<!-- Node10 -->
<g id="node10" class="node">
<title>Node10</title>
<g id="a_node10"><a xlink:href="cross-thread-persistent_8h.html" target="_top" xlink:title=" ">
<polygon fill="white" stroke="black" points="198.5,-0.5 198.5,-30.5 302.5,-30.5 302.5,-0.5 198.5,-0.5"/>
<text text-anchor="start" x="206.5" y="-18.5" font-family="Helvetica,sans-Serif" font-size="10.00">include/cppgc/cross</text>
<text text-anchor="middle" x="250.5" y="-7.5" font-family="Helvetica,sans-Serif" font-size="10.00">&#45;thread&#45;persistent.h</text>
</a>
</g>
</g>
<!-- Node9&#45;&gt;Node10 -->
<g id="edge9" class="edge">
<title>Node9&#45;&gt;Node10</title>
<path fill="none" stroke="midnightblue" d="M265.88,-119.85C249.65,-112.98 232.91,-102.54 223.5,-87 212.5,-68.84 226.24,-45.43 237.8,-30.69"/>
<polygon fill="midnightblue" stroke="midnightblue" points="264.73,-123.15 275.32,-123.49 267.25,-116.63 264.73,-123.15"/>
</g>
<!-- Node11 -->
<g id="node11" class="node">
<title>Node11</title>
<g id="a_node11"><a xlink:href="persistent_8h.html" target="_top" xlink:title=" ">
<polygon fill="white" stroke="black" points="232.5,-67.5 232.5,-86.5 362.5,-86.5 362.5,-67.5 232.5,-67.5"/>
<text text-anchor="middle" x="297.5" y="-74.5" font-family="Helvetica,sans-Serif" font-size="10.00">include/cppgc/persistent.h</text>
</a>
</g>
</g>
<!-- Node9&#45;&gt;Node11 -->
<g id="edge10" class="edge">
<title>Node9&#45;&gt;Node11</title>
<path fill="none" stroke="midnightblue" d="M305.3,-113.1C303.31,-104.14 301.02,-93.86 299.44,-86.75"/>
<polygon fill="midnightblue" stroke="midnightblue" points="301.93,-114.08 307.52,-123.08 308.77,-112.56 301.93,-114.08"/>
</g>
<!-- Node9&#45;&gt;Node12 -->
<g id="edge12" class="edge">
<title>Node9&#45;&gt;Node12</title>
<path fill="none" stroke="midnightblue" d="M337.87,-119.23C360.32,-109.13 391.04,-95.31 410.57,-86.52"/>
<polygon fill="midnightblue" stroke="midnightblue" points="336.2,-116.15 328.51,-123.44 339.07,-122.53 336.2,-116.15"/>
</g>
<!-- Node11&#45;&gt;Node10 -->
<g id="edge11" class="edge">
<title>Node11&#45;&gt;Node10</title>
<path fill="none" stroke="midnightblue" d="M284.49,-59.53C277.29,-50.42 268.44,-39.21 261.58,-30.52"/>
<polygon fill="midnightblue" stroke="midnightblue" points="281.82,-61.8 290.77,-67.48 287.31,-57.46 281.82,-61.8"/>
</g>
</g>
</svg>
