<?xml version="1.0" encoding="UTF-8" standalone="no"?>
<!DOCTYPE svg PUBLIC "-//W3C//DTD SVG 1.1//EN"
 "http://www.w3.org/Graphics/SVG/1.1/DTD/svg11.dtd">
<!-- Generated by graphviz version 2.49.3 (20211027.1534)
 -->
<!-- Title: include/cppgc/explicit&#45;management.h Pages: 1 -->
<svg width="945pt" height="341pt"
 viewBox="0.00 0.00 945.27 341.00" xmlns="http://www.w3.org/2000/svg" xmlns:xlink="http://www.w3.org/1999/xlink">
<g id="graph0" class="graph" transform="scale(1 1) rotate(0) translate(4 337)">
<title>include/cppgc/explicit&#45;management.h</title>
<polygon fill="white" stroke="transparent" points="-4,4 -4,-337 941.27,-337 941.27,4 -4,4"/>
<!-- Node1 -->
<g id="node1" class="node">
<title>Node1</title>
<g id="a_node1"><a xlink:title=" ">
<polygon fill="#bfbfbf" stroke="black" points="655.21,-302.5 655.21,-332.5 765.21,-332.5 765.21,-302.5 655.21,-302.5"/>
<text text-anchor="start" x="663.21" y="-320.5" font-family="Helvetica,sans-Serif" font-size="10.00">include/cppgc/explicit</text>
<text text-anchor="middle" x="710.21" y="-309.5" font-family="Helvetica,sans-Serif" font-size="10.00">&#45;management.h</text>
</a>
</g>
</g>
<!-- Node2 -->
<g id="node2" class="node">
<title>Node2</title>
<g id="a_node2"><a xlink:title=" ">
<polygon fill="white" stroke="#bfbfbf" points="707.71,-0.5 707.71,-19.5 756.71,-19.5 756.71,-0.5 707.71,-0.5"/>
<text text-anchor="middle" x="732.21" y="-7.5" font-family="Helvetica,sans-Serif" font-size="10.00">cstddef</text>
</a>
</g>
</g>
<!-- Node1&#45;&gt;Node2 -->
<g id="edge1" class="edge">
<title>Node1&#45;&gt;Node2</title>
<path fill="none" stroke="midnightblue" d="M765.5,-310.96C832.4,-300.85 936.21,-272.72 936.21,-195.5 936.21,-195.5 936.21,-195.5 936.21,-126.5 936.21,-94.05 940.44,-78.66 917.21,-56 896.1,-35.4 814.48,-21.65 767,-15.21"/>
<polygon fill="midnightblue" stroke="midnightblue" points="767.23,-11.71 756.86,-13.88 766.32,-18.65 767.23,-11.71"/>
</g>
<!-- Node3 -->
<g id="node3" class="node">
<title>Node3</title>
<g id="a_node3"><a xlink:href="allocation_8h.html" target="_top" xlink:title=" ">
<polygon fill="white" stroke="black" points="450.71,-246.5 450.71,-265.5 545.71,-265.5 545.71,-246.5 450.71,-246.5"/>
<text text-anchor="middle" x="498.21" y="-253.5" font-family="Helvetica,sans-Serif" font-size="10.00">cppgc/allocation.h</text>
</a>
</g>
</g>
<!-- Node1&#45;&gt;Node3 -->
<g id="edge2" class="edge">
<title>Node1&#45;&gt;Node3</title>
<path fill="none" stroke="midnightblue" d="M660.24,-302.47C623.03,-292.03 572.88,-277.96 538.28,-268.25"/>
<polygon fill="midnightblue" stroke="midnightblue" points="539.09,-264.84 528.52,-265.51 537.2,-271.58 539.09,-264.84"/>
</g>
<!-- Node15 -->
<g id="node15" class="node">
<title>Node15</title>
<g id="a_node15"><a xlink:href="type-traits_8h.html" target="_top" xlink:title=" ">
<polygon fill="white" stroke="black" points="68.21,-56.5 68.21,-75.5 164.21,-75.5 164.21,-56.5 68.21,-56.5"/>
<text text-anchor="middle" x="116.21" y="-63.5" font-family="Helvetica,sans-Serif" font-size="10.00">cppgc/type&#45;traits.h</text>
</a>
</g>
</g>
<!-- Node1&#45;&gt;Node15 -->
<g id="edge42" class="edge">
<title>Node1&#45;&gt;Node15</title>
<path fill="none" stroke="midnightblue" d="M655.13,-312.14C519.03,-300.63 170.67,-266.33 70.21,-210 26.07,-185.24 -15.58,-154.3 12.21,-112 22.78,-95.91 40.47,-85.54 58.29,-78.88"/>
<polygon fill="midnightblue" stroke="midnightblue" points="59.81,-82.06 68.16,-75.54 57.57,-75.43 59.81,-82.06"/>
</g>
<!-- Node19 -->
<g id="node19" class="node">
<title>Node19</title>
<g id="a_node19"><a xlink:href="logging_8h.html" target="_top" xlink:title=" ">
<polygon fill="white" stroke="black" points="788.71,-118 788.71,-137 907.71,-137 907.71,-118 788.71,-118"/>
<text text-anchor="middle" x="848.21" y="-125" font-family="Helvetica,sans-Serif" font-size="10.00">cppgc/internal/logging.h</text>
</a>
</g>
</g>
<!-- Node1&#45;&gt;Node19 -->
<g id="edge36" class="edge">
<title>Node1&#45;&gt;Node19</title>
<path fill="none" stroke="midnightblue" d="M745.73,-302.36C781.3,-286.04 834,-255.47 857.21,-210 867.39,-190.05 861.66,-163.84 855.73,-146.59"/>
<polygon fill="midnightblue" stroke="midnightblue" points="858.97,-145.26 852.15,-137.15 852.42,-147.75 858.97,-145.26"/>
</g>
<!-- Node3&#45;&gt;Node2 -->
<g id="edge4" class="edge">
<title>Node3&#45;&gt;Node2</title>
<path fill="none" stroke="midnightblue" d="M545.9,-255.73C627.53,-255.85 788.69,-250.76 824.21,-210 833.26,-199.61 830.11,-191.45 824.21,-179 813.39,-156.17 794.83,-163.61 780.21,-143 754.91,-107.32 741.5,-56.84 735.74,-29.81"/>
<polygon fill="midnightblue" stroke="midnightblue" points="739.12,-28.89 733.72,-19.77 732.26,-30.27 739.12,-28.89"/>
</g>
<!-- Node4 -->
<g id="node4" class="node">
<title>Node4</title>
<g id="a_node4"><a xlink:title=" ">
<polygon fill="white" stroke="#bfbfbf" points="435.21,-118 435.21,-137 481.21,-137 481.21,-118 435.21,-118"/>
<text text-anchor="middle" x="458.21" y="-125" font-family="Helvetica,sans-Serif" font-size="10.00">atomic</text>
</a>
</g>
</g>
<!-- Node3&#45;&gt;Node4 -->
<g id="edge3" class="edge">
<title>Node3&#45;&gt;Node4</title>
<path fill="none" stroke="midnightblue" d="M469.84,-246.49C452.46,-239.65 431.62,-228.13 421.21,-210 408.72,-188.22 426.73,-161.47 441.72,-144.7"/>
<polygon fill="midnightblue" stroke="midnightblue" points="444.36,-147 448.69,-137.33 439.27,-142.19 444.36,-147"/>
</g>
<!-- Node5 -->
<g id="node5" class="node">
<title>Node5</title>
<g id="a_node5"><a xlink:title=" ">
<polygon fill="white" stroke="#bfbfbf" points="499.21,-118 499.21,-137 545.21,-137 545.21,-118 499.21,-118"/>
<text text-anchor="middle" x="522.21" y="-125" font-family="Helvetica,sans-Serif" font-size="10.00">cstdint</text>
</a>
</g>
</g>
<!-- Node3&#45;&gt;Node5 -->
<g id="edge5" class="edge">
<title>Node3&#45;&gt;Node5</title>
<path fill="none" stroke="midnightblue" d="M475.42,-246.47C459.89,-239.32 440.5,-227.44 431.21,-210 424.73,-197.84 424.22,-190.87 431.21,-179 434.89,-172.75 469.72,-154.49 495.2,-141.73"/>
<polygon fill="midnightblue" stroke="midnightblue" points="497.03,-144.73 504.42,-137.15 493.91,-138.47 497.03,-144.73"/>
</g>
<!-- Node6 -->
<g id="node6" class="node">
<title>Node6</title>
<g id="a_node6"><a xlink:title=" ">
<polygon fill="white" stroke="#bfbfbf" points="439.71,-185 439.71,-204 474.71,-204 474.71,-185 439.71,-185"/>
<text text-anchor="middle" x="457.21" y="-192" font-family="Helvetica,sans-Serif" font-size="10.00">new</text>
</a>
</g>
</g>
<!-- Node3&#45;&gt;Node6 -->
<g id="edge6" class="edge">
<title>Node3&#45;&gt;Node6</title>
<path fill="none" stroke="midnightblue" d="M492.34,-246.48C486.25,-237.64 476.57,-223.59 468.91,-212.48"/>
<polygon fill="midnightblue" stroke="midnightblue" points="471.63,-210.26 463.07,-204.01 465.87,-214.23 471.63,-210.26"/>
</g>
<!-- Node7 -->
<g id="node7" class="node">
<title>Node7</title>
<g id="a_node7"><a xlink:title=" ">
<polygon fill="white" stroke="#bfbfbf" points="9.21,-0.5 9.21,-19.5 71.21,-19.5 71.21,-0.5 9.21,-0.5"/>
<text text-anchor="middle" x="40.21" y="-7.5" font-family="Helvetica,sans-Serif" font-size="10.00">type_traits</text>
</a>
</g>
</g>
<!-- Node3&#45;&gt;Node7 -->
<g id="edge7" class="edge">
<title>Node3&#45;&gt;Node7</title>
<path fill="none" stroke="midnightblue" d="M450.52,-254.35C353.18,-252.32 135.37,-244.01 70.21,-210 35.3,-191.78 27.06,-179.48 12.21,-143 -2.38,-107.15 -3.56,-92.87 8.21,-56 11.55,-45.54 18.31,-35.43 24.76,-27.45"/>
<polygon fill="midnightblue" stroke="midnightblue" points="27.56,-29.56 31.46,-19.71 22.27,-24.98 27.56,-29.56"/>
</g>
<!-- Node8 -->
<g id="node8" class="node">
<title>Node8</title>
<g id="a_node8"><a xlink:title=" ">
<polygon fill="white" stroke="#bfbfbf" points="642.71,-185 642.71,-204 681.71,-204 681.71,-185 642.71,-185"/>
<text text-anchor="middle" x="662.21" y="-192" font-family="Helvetica,sans-Serif" font-size="10.00">utility</text>
</a>
</g>
</g>
<!-- Node3&#45;&gt;Node8 -->
<g id="edge8" class="edge">
<title>Node3&#45;&gt;Node8</title>
<path fill="none" stroke="midnightblue" d="M524.55,-246.48C550.95,-237.81 592.67,-223.71 628.21,-210 629.86,-209.36 631.54,-208.7 633.24,-208.02"/>
<polygon fill="midnightblue" stroke="midnightblue" points="634.99,-211.08 642.89,-204.02 632.31,-204.61 634.99,-211.08"/>
</g>
<!-- Node9 -->
<g id="node9" class="node">
<title>Node9</title>
<g id="a_node9"><a xlink:href="custom-space_8h.html" target="_top" xlink:title=" ">
<polygon fill="white" stroke="black" points="699.71,-185 699.71,-204 814.71,-204 814.71,-185 699.71,-185"/>
<text text-anchor="middle" x="757.21" y="-192" font-family="Helvetica,sans-Serif" font-size="10.00">cppgc/custom&#45;space.h</text>
</a>
</g>
</g>
<!-- Node3&#45;&gt;Node9 -->
<g id="edge9" class="edge">
<title>Node3&#45;&gt;Node9</title>
<path fill="none" stroke="midnightblue" d="M535.32,-246.48C581.38,-235.89 659.99,-217.84 710.21,-206.3"/>
<polygon fill="midnightblue" stroke="midnightblue" points="711.21,-209.66 720.17,-204.01 709.64,-202.84 711.21,-209.66"/>
</g>
<!-- Node11 -->
<g id="node11" class="node">
<title>Node11</title>
<g id="a_node11"><a xlink:href="api-constants_8h.html" target="_top" xlink:title=" ">
<polygon fill="white" stroke="black" points="492.71,-179.5 492.71,-209.5 585.71,-209.5 585.71,-179.5 492.71,-179.5"/>
<text text-anchor="start" x="500.71" y="-197.5" font-family="Helvetica,sans-Serif" font-size="10.00">cppgc/internal/api</text>
<text text-anchor="middle" x="539.21" y="-186.5" font-family="Helvetica,sans-Serif" font-size="10.00">&#45;constants.h</text>
</a>
</g>
</g>
<!-- Node3&#45;&gt;Node11 -->
<g id="edge11" class="edge">
<title>Node3&#45;&gt;Node11</title>
<path fill="none" stroke="midnightblue" d="M504.09,-246.48C509.22,-239.02 516.92,-227.85 523.8,-217.87"/>
<polygon fill="midnightblue" stroke="midnightblue" points="526.76,-219.74 529.55,-209.52 520.99,-215.77 526.76,-219.74"/>
</g>
<!-- Node12 -->
<g id="node12" class="node">
<title>Node12</title>
<g id="a_node12"><a xlink:href="v8config_8h.html" target="_top" xlink:title=" ">
<polygon fill="white" stroke="black" points="476.21,-0.5 476.21,-19.5 536.21,-19.5 536.21,-0.5 476.21,-0.5"/>
<text text-anchor="middle" x="506.21" y="-7.5" font-family="Helvetica,sans-Serif" font-size="10.00">v8config.h</text>
</a>
</g>
</g>
<!-- Node3&#45;&gt;Node12 -->
<g id="edge35" class="edge">
<title>Node3&#45;&gt;Node12</title>
<path fill="none" stroke="midnightblue" d="M540.6,-246.45C560.79,-240.02 583.12,-228.93 595.21,-210 635.73,-146.54 559.52,-61.52 523.54,-26.79"/>
<polygon fill="midnightblue" stroke="midnightblue" points="525.81,-24.12 516.13,-19.8 521,-29.21 525.81,-24.12"/>
</g>
<!-- Node13 -->
<g id="node13" class="node">
<title>Node13</title>
<g id="a_node13"><a xlink:href="gc-info_8h.html" target="_top" xlink:title=" ">
<polygon fill="white" stroke="black" points="227.71,-185 227.71,-204 344.71,-204 344.71,-185 227.71,-185"/>
<text text-anchor="middle" x="286.21" y="-192" font-family="Helvetica,sans-Serif" font-size="10.00">cppgc/internal/gc&#45;info.h</text>
</a>
</g>
</g>
<!-- Node3&#45;&gt;Node13 -->
<g id="edge15" class="edge">
<title>Node3&#45;&gt;Node13</title>
<path fill="none" stroke="midnightblue" d="M467.84,-246.48C430.61,-236.03 367.4,-218.29 326.24,-206.73"/>
<polygon fill="midnightblue" stroke="midnightblue" points="327.1,-203.34 316.53,-204.01 325.21,-210.08 327.1,-203.34"/>
</g>
<!-- Node3&#45;&gt;Node15 -->
<g id="edge34" class="edge">
<title>Node3&#45;&gt;Node15</title>
<path fill="none" stroke="midnightblue" d="M450.58,-251.51C339.97,-242.27 71.3,-212.94 21.21,-143 13.19,-131.8 13.84,-123.64 21.21,-112 31.26,-96.13 48.58,-85.74 65.71,-79"/>
<polygon fill="midnightblue" stroke="midnightblue" points="66.93,-82.28 75.16,-75.62 64.57,-75.69 66.93,-82.28"/>
</g>
<!-- Node10 -->
<g id="node10" class="node">
<title>Node10</title>
<g id="a_node10"><a xlink:title=" ">
<polygon fill="white" stroke="#bfbfbf" points="680.71,-118 680.71,-137 731.71,-137 731.71,-118 680.71,-118"/>
<text text-anchor="middle" x="706.21" y="-125" font-family="Helvetica,sans-Serif" font-size="10.00">stddef.h</text>
</a>
</g>
</g>
<!-- Node9&#45;&gt;Node10 -->
<g id="edge10" class="edge">
<title>Node9&#45;&gt;Node10</title>
<path fill="none" stroke="midnightblue" d="M750.33,-184.73C742.38,-174.6 729.11,-157.69 719.2,-145.06"/>
<polygon fill="midnightblue" stroke="midnightblue" points="721.91,-142.83 712.98,-137.13 716.4,-147.16 721.91,-142.83"/>
</g>
<!-- Node11&#45;&gt;Node2 -->
<g id="edge12" class="edge">
<title>Node11&#45;&gt;Node2</title>
<path fill="none" stroke="midnightblue" d="M554.04,-179.48C589.32,-146.12 678.13,-62.14 715.37,-26.93"/>
<polygon fill="midnightblue" stroke="midnightblue" points="718.02,-29.23 722.89,-19.82 713.21,-24.15 718.02,-29.23"/>
</g>
<!-- Node11&#45;&gt;Node5 -->
<g id="edge13" class="edge">
<title>Node11&#45;&gt;Node5</title>
<path fill="none" stroke="midnightblue" d="M535.52,-179.4C533.06,-169.96 529.78,-157.45 527.1,-147.19"/>
<polygon fill="midnightblue" stroke="midnightblue" points="530.4,-145.98 524.49,-137.19 523.63,-147.75 530.4,-145.98"/>
</g>
<!-- Node11&#45;&gt;Node12 -->
<g id="edge14" class="edge">
<title>Node11&#45;&gt;Node12</title>
<path fill="none" stroke="midnightblue" d="M545.31,-179.3C551.5,-162.98 559.5,-135.44 554.21,-112 547.16,-80.73 529.24,-47.78 517.4,-28.33"/>
<polygon fill="midnightblue" stroke="midnightblue" points="520.27,-26.32 512,-19.7 514.34,-30.03 520.27,-26.32"/>
</g>
<!-- Node13&#45;&gt;Node4 -->
<g id="edge16" class="edge">
<title>Node13&#45;&gt;Node4</title>
<path fill="none" stroke="midnightblue" d="M309.67,-184.85C336.63,-174.88 382.19,-157.95 421.21,-143 423.05,-142.3 424.93,-141.57 426.84,-140.83"/>
<polygon fill="midnightblue" stroke="midnightblue" points="428.27,-144.03 436.32,-137.14 425.73,-137.51 428.27,-144.03"/>
</g>
<!-- Node13&#45;&gt;Node5 -->
<g id="edge17" class="edge">
<title>Node13&#45;&gt;Node5</title>
<path fill="none" stroke="midnightblue" d="M330.66,-184.95C372.45,-176.33 436.44,-161.66 490.21,-143 491.88,-142.42 493.57,-141.79 495.27,-141.12"/>
<polygon fill="midnightblue" stroke="midnightblue" points="497,-144.19 504.84,-137.07 494.27,-137.75 497,-144.19"/>
</g>
<!-- Node13&#45;&gt;Node7 -->
<g id="edge18" class="edge">
<title>Node13&#45;&gt;Node7</title>
<path fill="none" stroke="midnightblue" d="M227.63,-190.78C157.69,-186.16 46.89,-174.03 21.21,-143 -6,-110.11 15.84,-56.14 30.19,-28.5"/>
<polygon fill="midnightblue" stroke="midnightblue" points="33.33,-30.05 35.03,-19.6 27.18,-26.71 33.33,-30.05"/>
</g>
<!-- Node13&#45;&gt;Node12 -->
<g id="edge33" class="edge">
<title>Node13&#45;&gt;Node12</title>
<path fill="none" stroke="midnightblue" d="M309.52,-184.95C331.17,-176.34 363.68,-161.67 388.21,-143 433.29,-108.7 474.61,-55.38 494.23,-28.2"/>
<polygon fill="midnightblue" stroke="midnightblue" points="497.29,-29.93 500.23,-19.75 491.59,-25.88 497.29,-29.93"/>
</g>
<!-- Node14 -->
<g id="node14" class="node">
<title>Node14</title>
<g id="a_node14"><a xlink:href="finalizer-trait_8h.html" target="_top" xlink:title=" ">
<polygon fill="white" stroke="black" points="30.71,-112.5 30.71,-142.5 143.71,-142.5 143.71,-112.5 30.71,-112.5"/>
<text text-anchor="start" x="38.71" y="-130.5" font-family="Helvetica,sans-Serif" font-size="10.00">cppgc/internal/finalizer</text>
<text text-anchor="middle" x="87.21" y="-119.5" font-family="Helvetica,sans-Serif" font-size="10.00">&#45;trait.h</text>
</a>
</g>
</g>
<!-- Node13&#45;&gt;Node14 -->
<g id="edge19" class="edge">
<title>Node13&#45;&gt;Node14</title>
<path fill="none" stroke="midnightblue" d="M259.79,-184.87C229.28,-174.9 178.35,-158.27 139.7,-145.64"/>
<polygon fill="midnightblue" stroke="midnightblue" points="140.75,-142.31 130.16,-142.53 138.58,-148.96 140.75,-142.31"/>
</g>
<!-- Node16 -->
<g id="node16" class="node">
<title>Node16</title>
<g id="a_node16"><a xlink:href="name-trait_8h.html" target="_top" xlink:title=" ">
<polygon fill="white" stroke="black" points="275.21,-112.5 275.21,-142.5 379.21,-142.5 379.21,-112.5 275.21,-112.5"/>
<text text-anchor="start" x="283.21" y="-130.5" font-family="Helvetica,sans-Serif" font-size="10.00">cppgc/internal/name</text>
<text text-anchor="middle" x="327.21" y="-119.5" font-family="Helvetica,sans-Serif" font-size="10.00">&#45;trait.h</text>
</a>
</g>
</g>
<!-- Node13&#45;&gt;Node16 -->
<g id="edge24" class="edge">
<title>Node13&#45;&gt;Node16</title>
<path fill="none" stroke="midnightblue" d="M291.74,-184.73C297.12,-176.2 305.53,-162.87 312.81,-151.33"/>
<polygon fill="midnightblue" stroke="midnightblue" points="315.95,-152.91 318.32,-142.59 310.03,-149.18 315.95,-152.91"/>
</g>
<!-- Node18 -->
<g id="node18" class="node">
<title>Node18</title>
<g id="a_node18"><a xlink:href="trace-trait_8h.html" target="_top" xlink:title=" ">
<polygon fill="white" stroke="black" points="161.71,-118 161.71,-137 256.71,-137 256.71,-118 161.71,-118"/>
<text text-anchor="middle" x="209.21" y="-125" font-family="Helvetica,sans-Serif" font-size="10.00">cppgc/trace&#45;trait.h</text>
</a>
</g>
</g>
<!-- Node13&#45;&gt;Node18 -->
<g id="edge29" class="edge">
<title>Node13&#45;&gt;Node18</title>
<path fill="none" stroke="midnightblue" d="M275.83,-184.73C263.36,-174.21 242.24,-156.38 227.12,-143.62"/>
<polygon fill="midnightblue" stroke="midnightblue" points="229.33,-140.9 219.43,-137.13 224.82,-146.25 229.33,-140.9"/>
</g>
<!-- Node14&#45;&gt;Node7 -->
<g id="edge20" class="edge">
<title>Node14&#45;&gt;Node7</title>
<path fill="none" stroke="midnightblue" d="M78.24,-112.34C72.26,-102.44 64.54,-88.77 59.21,-76 52.84,-60.74 47.74,-42.63 44.43,-29.41"/>
<polygon fill="midnightblue" stroke="midnightblue" points="47.82,-28.53 42.09,-19.62 41.01,-30.16 47.82,-28.53"/>
</g>
<!-- Node14&#45;&gt;Node15 -->
<g id="edge21" class="edge">
<title>Node14&#45;&gt;Node15</title>
<path fill="none" stroke="midnightblue" d="M94.08,-112.4C98.12,-104.11 103.27,-93.55 107.58,-84.71"/>
<polygon fill="midnightblue" stroke="midnightblue" points="110.76,-86.18 111.99,-75.66 104.46,-83.11 110.76,-86.18"/>
</g>
<!-- Node15&#45;&gt;Node2 -->
<g id="edge22" class="edge">
<title>Node15&#45;&gt;Node2</title>
<path fill="none" stroke="midnightblue" d="M164.29,-60.79C284.06,-50.29 593.53,-23.16 697.53,-14.04"/>
<polygon fill="midnightblue" stroke="midnightblue" points="697.85,-17.53 707.51,-13.17 697.24,-10.55 697.85,-17.53"/>
</g>
<!-- Node15&#45;&gt;Node7 -->
<g id="edge23" class="edge">
<title>Node15&#45;&gt;Node7</title>
<path fill="none" stroke="midnightblue" d="M104,-56.32C92.44,-48.11 74.84,-35.6 61.05,-25.81"/>
<polygon fill="midnightblue" stroke="midnightblue" points="62.82,-22.77 52.64,-19.83 58.77,-28.48 62.82,-22.77"/>
</g>
<!-- Node16&#45;&gt;Node2 -->
<g id="edge25" class="edge">
<title>Node16&#45;&gt;Node2</title>
<path fill="none" stroke="midnightblue" d="M376.47,-112.45C459.65,-88.73 625.92,-41.31 697.79,-20.82"/>
<polygon fill="midnightblue" stroke="midnightblue" points="699.04,-24.1 707.69,-17.99 697.12,-17.37 699.04,-24.1"/>
</g>
<!-- Node16&#45;&gt;Node12 -->
<g id="edge28" class="edge">
<title>Node16&#45;&gt;Node12</title>
<path fill="none" stroke="midnightblue" d="M345.78,-112.37C365.37,-97.68 397.35,-74.32 426.21,-56 443.93,-44.76 464.58,-33.17 480.47,-24.58"/>
<polygon fill="midnightblue" stroke="midnightblue" points="482.51,-27.45 489.67,-19.64 479.21,-21.28 482.51,-27.45"/>
</g>
<!-- Node17 -->
<g id="node17" class="node">
<title>Node17</title>
<g id="a_node17"><a xlink:href="name-provider_8h.html" target="_top" xlink:title=" ">
<polygon fill="white" stroke="black" points="258.71,-56.5 258.71,-75.5 373.71,-75.5 373.71,-56.5 258.71,-56.5"/>
<text text-anchor="middle" x="316.21" y="-63.5" font-family="Helvetica,sans-Serif" font-size="10.00">cppgc/name&#45;provider.h</text>
</a>
</g>
</g>
<!-- Node16&#45;&gt;Node17 -->
<g id="edge26" class="edge">
<title>Node16&#45;&gt;Node17</title>
<path fill="none" stroke="midnightblue" d="M324.6,-112.4C323.12,-104.38 321.25,-94.23 319.64,-85.57"/>
<polygon fill="midnightblue" stroke="midnightblue" points="323.07,-84.85 317.81,-75.66 316.19,-86.13 323.07,-84.85"/>
</g>
<!-- Node17&#45;&gt;Node12 -->
<g id="edge27" class="edge">
<title>Node17&#45;&gt;Node12</title>
<path fill="none" stroke="midnightblue" d="M346.32,-56.44C378.84,-47.2 430.79,-32.44 466.6,-22.26"/>
<polygon fill="midnightblue" stroke="midnightblue" points="467.58,-25.62 476.25,-19.52 465.67,-18.88 467.58,-25.62"/>
</g>
<!-- Node18&#45;&gt;Node7 -->
<g id="edge30" class="edge">
<title>Node18&#45;&gt;Node7</title>
<path fill="none" stroke="midnightblue" d="M207.08,-117.79C203.01,-102.99 192.76,-72.89 173.21,-56 147.34,-33.65 109.88,-22.28 81.31,-16.57"/>
<polygon fill="midnightblue" stroke="midnightblue" points="81.69,-13.08 71.23,-14.71 80.43,-19.97 81.69,-13.08"/>
</g>
<!-- Node18&#45;&gt;Node12 -->
<g id="edge32" class="edge">
<title>Node18&#45;&gt;Node12</title>
<path fill="none" stroke="midnightblue" d="M211.58,-117.93C216.25,-102.77 228.15,-71.39 250.21,-56 284.48,-32.1 403.14,-19.23 466.15,-13.94"/>
<polygon fill="midnightblue" stroke="midnightblue" points="466.46,-17.42 476.14,-13.12 465.89,-10.45 466.46,-17.42"/>
</g>
<!-- Node18&#45;&gt;Node15 -->
<g id="edge31" class="edge">
<title>Node18&#45;&gt;Node15</title>
<path fill="none" stroke="midnightblue" d="M195.89,-117.98C180.83,-108.34 156.1,-92.52 138.17,-81.05"/>
<polygon fill="midnightblue" stroke="midnightblue" points="139.82,-77.95 129.51,-75.51 136.05,-83.85 139.82,-77.95"/>
</g>
<!-- Node19&#45;&gt;Node12 -->
<g id="edge41" class="edge">
<title>Node19&#45;&gt;Node12</title>
<path fill="none" stroke="midnightblue" d="M823.64,-117.93C785.2,-104.54 708.5,-77.95 643.21,-56 608.97,-44.49 569.81,-31.66 542.15,-22.65"/>
<polygon fill="midnightblue" stroke="midnightblue" points="543.1,-19.28 532.51,-19.52 540.94,-25.94 543.1,-19.28"/>
</g>
<!-- Node20 -->
<g id="node20" class="node">
<title>Node20</title>
<g id="a_node20"><a xlink:href="source-location_8h.html" target="_top" xlink:title=" ">
<polygon fill="white" stroke="black" points="788.71,-56.5 788.71,-75.5 907.71,-75.5 907.71,-56.5 788.71,-56.5"/>
<text text-anchor="middle" x="848.21" y="-63.5" font-family="Helvetica,sans-Serif" font-size="10.00">cppgc/source&#45;location.h</text>
</a>
</g>
</g>
<!-- Node19&#45;&gt;Node20 -->
<g id="edge37" class="edge">
<title>Node19&#45;&gt;Node20</title>
<path fill="none" stroke="midnightblue" d="M848.21,-117.98C848.21,-109.58 848.21,-96.48 848.21,-85.66"/>
<polygon fill="midnightblue" stroke="midnightblue" points="851.71,-85.51 848.21,-75.51 844.71,-85.51 851.71,-85.51"/>
</g>
<!-- Node20&#45;&gt;Node2 -->
<g id="edge38" class="edge">
<title>Node20&#45;&gt;Node2</title>
<path fill="none" stroke="midnightblue" d="M829.83,-56.44C811,-47.68 781.48,-33.94 759.83,-23.86"/>
<polygon fill="midnightblue" stroke="midnightblue" points="761.05,-20.56 750.51,-19.52 758.09,-26.91 761.05,-20.56"/>
</g>
<!-- Node20&#45;&gt;Node12 -->
<g id="edge40" class="edge">
<title>Node20&#45;&gt;Node12</title>
<path fill="none" stroke="midnightblue" d="M794.02,-56.44C725.12,-45.56 607.74,-27.03 546.34,-17.34"/>
<polygon fill="midnightblue" stroke="midnightblue" points="546.69,-13.85 536.27,-15.75 545.6,-20.76 546.69,-13.85"/>
</g>
<!-- Node21 -->
<g id="node21" class="node">
<title>Node21</title>
<g id="a_node21"><a xlink:title=" ">
<polygon fill="white" stroke="#bfbfbf" points="827.71,-0.5 827.71,-19.5 868.71,-19.5 868.71,-0.5 827.71,-0.5"/>
<text text-anchor="middle" x="848.21" y="-7.5" font-family="Helvetica,sans-Serif" font-size="10.00">string</text>
</a>
</g>
</g>
<!-- Node20&#45;&gt;Node21 -->
<g id="edge39" class="edge">
<title>Node20&#45;&gt;Node21</title>
<path fill="none" stroke="midnightblue" d="M848.21,-56.08C848.21,-49.01 848.21,-38.86 848.21,-29.99"/>
<polygon fill="midnightblue" stroke="midnightblue" points="851.71,-29.75 848.21,-19.75 844.71,-29.75 851.71,-29.75"/>
</g>
</g>
</svg>
