<?xml version="1.0" encoding="UTF-8" standalone="no"?>
<!DOCTYPE svg PUBLIC "-//W3C//DTD SVG 1.1//EN"
 "http://www.w3.org/Graphics/SVG/1.1/DTD/svg11.dtd">
<!-- Generated by graphviz version 2.49.3 (20211027.1534)
 -->
<!-- Title: include/cppgc/internal/gc&#45;info.h Pages: 1 -->
<svg width="586pt" height="218pt"
 viewBox="0.00 0.00 585.64 218.00" xmlns="http://www.w3.org/2000/svg" xmlns:xlink="http://www.w3.org/1999/xlink">
<g id="graph0" class="graph" transform="scale(1 1) rotate(0) translate(4 214)">
<title>include/cppgc/internal/gc&#45;info.h</title>
<polygon fill="white" stroke="transparent" points="-4,4 -4,-214 581.64,-214 581.64,4 -4,4"/>
<!-- Node1 -->
<g id="node1" class="node">
<title>Node1</title>
<g id="a_node1"><a xlink:title=" ">
<polygon fill="#bfbfbf" stroke="black" points="167.5,-179.5 167.5,-209.5 278.5,-209.5 278.5,-179.5 167.5,-179.5"/>
<text text-anchor="start" x="175.5" y="-197.5" font-family="Helvetica,sans-Serif" font-size="10.00">include/cppgc/internal</text>
<text text-anchor="middle" x="223" y="-186.5" font-family="Helvetica,sans-Serif" font-size="10.00">/gc&#45;info.h</text>
</a>
</g>
</g>
<!-- Node2 -->
<g id="node2" class="node">
<title>Node2</title>
<g id="a_node2"><a xlink:title=" ">
<polygon fill="white" stroke="#bfbfbf" points="0,-118 0,-137 46,-137 46,-118 0,-118"/>
<text text-anchor="middle" x="23" y="-125" font-family="Helvetica,sans-Serif" font-size="10.00">atomic</text>
</a>
</g>
</g>
<!-- Node1&#45;&gt;Node2 -->
<g id="edge1" class="edge">
<title>Node1&#45;&gt;Node2</title>
<path fill="none" stroke="midnightblue" d="M169.81,-179.47C136.46,-170.2 92.79,-157.17 55,-143 53.39,-142.4 51.75,-141.75 50.1,-141.08"/>
<polygon fill="midnightblue" stroke="midnightblue" points="51.33,-137.8 40.76,-137.06 48.56,-144.23 51.33,-137.8"/>
</g>
<!-- Node3 -->
<g id="node3" class="node">
<title>Node3</title>
<g id="a_node3"><a xlink:title=" ">
<polygon fill="white" stroke="#bfbfbf" points="64,-118 64,-137 110,-137 110,-118 64,-118"/>
<text text-anchor="middle" x="87" y="-125" font-family="Helvetica,sans-Serif" font-size="10.00">cstdint</text>
</a>
</g>
</g>
<!-- Node1&#45;&gt;Node3 -->
<g id="edge2" class="edge">
<title>Node1&#45;&gt;Node3</title>
<path fill="none" stroke="midnightblue" d="M193.49,-179.4C169.84,-168.09 136.92,-152.36 113.97,-141.39"/>
<polygon fill="midnightblue" stroke="midnightblue" points="115.33,-138.16 104.8,-137.01 112.31,-144.48 115.33,-138.16"/>
</g>
<!-- Node4 -->
<g id="node4" class="node">
<title>Node4</title>
<g id="a_node4"><a xlink:title=" ">
<polygon fill="white" stroke="#bfbfbf" points="183,-0.5 183,-19.5 245,-19.5 245,-0.5 183,-0.5"/>
<text text-anchor="middle" x="214" y="-7.5" font-family="Helvetica,sans-Serif" font-size="10.00">type_traits</text>
</a>
</g>
</g>
<!-- Node1&#45;&gt;Node4 -->
<g id="edge3" class="edge">
<title>Node1&#45;&gt;Node4</title>
<path fill="none" stroke="midnightblue" d="M194.09,-179.45C180.15,-170.99 164.8,-158.78 157,-143 136.75,-102 174.66,-52.09 197.87,-27.02"/>
<polygon fill="midnightblue" stroke="midnightblue" points="200.4,-29.43 204.8,-19.79 195.35,-24.59 200.4,-29.43"/>
</g>
<!-- Node5 -->
<g id="node5" class="node">
<title>Node5</title>
<g id="a_node5"><a xlink:href="finalizer-trait_8h.html" target="_top" xlink:title=" ">
<polygon fill="white" stroke="black" points="166.5,-112.5 166.5,-142.5 279.5,-142.5 279.5,-112.5 166.5,-112.5"/>
<text text-anchor="start" x="174.5" y="-130.5" font-family="Helvetica,sans-Serif" font-size="10.00">cppgc/internal/finalizer</text>
<text text-anchor="middle" x="223" y="-119.5" font-family="Helvetica,sans-Serif" font-size="10.00">&#45;trait.h</text>
</a>
</g>
</g>
<!-- Node1&#45;&gt;Node5 -->
<g id="edge4" class="edge">
<title>Node1&#45;&gt;Node5</title>
<path fill="none" stroke="midnightblue" d="M223,-179.4C223,-171.64 223,-161.81 223,-152.86"/>
<polygon fill="midnightblue" stroke="midnightblue" points="226.5,-152.58 223,-142.58 219.5,-152.58 226.5,-152.58"/>
</g>
<!-- Node8 -->
<g id="node8" class="node">
<title>Node8</title>
<g id="a_node8"><a xlink:href="name-trait_8h.html" target="_top" xlink:title=" ">
<polygon fill="white" stroke="black" points="425,-112.5 425,-142.5 529,-142.5 529,-112.5 425,-112.5"/>
<text text-anchor="start" x="433" y="-130.5" font-family="Helvetica,sans-Serif" font-size="10.00">cppgc/internal/name</text>
<text text-anchor="middle" x="477" y="-119.5" font-family="Helvetica,sans-Serif" font-size="10.00">&#45;trait.h</text>
</a>
</g>
</g>
<!-- Node1&#45;&gt;Node8 -->
<g id="edge9" class="edge">
<title>Node1&#45;&gt;Node8</title>
<path fill="none" stroke="midnightblue" d="M277.8,-179.48C318.17,-169.15 373.11,-155.09 415.07,-144.35"/>
<polygon fill="midnightblue" stroke="midnightblue" points="416.08,-147.7 424.9,-141.83 414.34,-140.92 416.08,-147.7"/>
</g>
<!-- Node10 -->
<g id="node10" class="node">
<title>Node10</title>
<g id="a_node10"><a xlink:href="v8config_8h.html" target="_top" xlink:title=" ">
<polygon fill="white" stroke="black" points="503,-0.5 503,-19.5 563,-19.5 563,-0.5 503,-0.5"/>
<text text-anchor="middle" x="533" y="-7.5" font-family="Helvetica,sans-Serif" font-size="10.00">v8config.h</text>
</a>
</g>
</g>
<!-- Node1&#45;&gt;Node10 -->
<g id="edge18" class="edge">
<title>Node1&#45;&gt;Node10</title>
<path fill="none" stroke="midnightblue" d="M278.82,-190.58C357.97,-185.44 497.67,-172.41 538,-143 571.54,-118.54 586.51,-94.9 572,-56 567.83,-44.81 559.48,-34.56 551.58,-26.68"/>
<polygon fill="midnightblue" stroke="midnightblue" points="553.7,-23.87 543.99,-19.63 548.94,-29 553.7,-23.87"/>
</g>
<!-- Node11 -->
<g id="node11" class="node">
<title>Node11</title>
<g id="a_node11"><a xlink:href="trace-trait_8h.html" target="_top" xlink:title=" ">
<polygon fill="white" stroke="black" points="297.5,-118 297.5,-137 392.5,-137 392.5,-118 297.5,-118"/>
<text text-anchor="middle" x="345" y="-125" font-family="Helvetica,sans-Serif" font-size="10.00">cppgc/trace&#45;trait.h</text>
</a>
</g>
</g>
<!-- Node1&#45;&gt;Node11 -->
<g id="edge14" class="edge">
<title>Node1&#45;&gt;Node11</title>
<path fill="none" stroke="midnightblue" d="M249.47,-179.4C270.4,-168.24 299.43,-152.78 319.97,-141.83"/>
<polygon fill="midnightblue" stroke="midnightblue" points="321.85,-144.8 329.03,-137.01 318.56,-138.62 321.85,-144.8"/>
</g>
<!-- Node5&#45;&gt;Node4 -->
<g id="edge5" class="edge">
<title>Node5&#45;&gt;Node4</title>
<path fill="none" stroke="midnightblue" d="M212.56,-112.31C206.1,-102.63 198.41,-89.2 195,-76 190.82,-59.85 197.11,-41.65 203.54,-28.62"/>
<polygon fill="midnightblue" stroke="midnightblue" points="206.64,-30.24 208.32,-19.78 200.49,-26.91 206.64,-30.24"/>
</g>
<!-- Node6 -->
<g id="node6" class="node">
<title>Node6</title>
<g id="a_node6"><a xlink:href="type-traits_8h.html" target="_top" xlink:title=" ">
<polygon fill="white" stroke="black" points="204,-56.5 204,-75.5 300,-75.5 300,-56.5 204,-56.5"/>
<text text-anchor="middle" x="252" y="-63.5" font-family="Helvetica,sans-Serif" font-size="10.00">cppgc/type&#45;traits.h</text>
</a>
</g>
</g>
<!-- Node5&#45;&gt;Node6 -->
<g id="edge6" class="edge">
<title>Node5&#45;&gt;Node6</title>
<path fill="none" stroke="midnightblue" d="M229.87,-112.4C233.91,-104.11 239.06,-93.55 243.37,-84.71"/>
<polygon fill="midnightblue" stroke="midnightblue" points="246.55,-86.18 247.78,-75.66 240.25,-83.11 246.55,-86.18"/>
</g>
<!-- Node6&#45;&gt;Node4 -->
<g id="edge8" class="edge">
<title>Node6&#45;&gt;Node4</title>
<path fill="none" stroke="midnightblue" d="M245.73,-56.08C240.36,-48.46 232.48,-37.26 225.92,-27.94"/>
<polygon fill="midnightblue" stroke="midnightblue" points="228.78,-25.91 220.16,-19.75 223.05,-29.94 228.78,-25.91"/>
</g>
<!-- Node7 -->
<g id="node7" class="node">
<title>Node7</title>
<g id="a_node7"><a xlink:title=" ">
<polygon fill="white" stroke="#bfbfbf" points="264.5,-0.5 264.5,-19.5 313.5,-19.5 313.5,-0.5 264.5,-0.5"/>
<text text-anchor="middle" x="289" y="-7.5" font-family="Helvetica,sans-Serif" font-size="10.00">cstddef</text>
</a>
</g>
</g>
<!-- Node6&#45;&gt;Node7 -->
<g id="edge7" class="edge">
<title>Node6&#45;&gt;Node7</title>
<path fill="none" stroke="midnightblue" d="M258.11,-56.08C263.28,-48.53 270.85,-37.49 277.19,-28.23"/>
<polygon fill="midnightblue" stroke="midnightblue" points="280.24,-29.98 283,-19.75 274.46,-26.02 280.24,-29.98"/>
</g>
<!-- Node8&#45;&gt;Node7 -->
<g id="edge10" class="edge">
<title>Node8&#45;&gt;Node7</title>
<path fill="none" stroke="midnightblue" d="M453.95,-112.34C417.76,-90.11 348.05,-47.28 311.94,-25.09"/>
<polygon fill="midnightblue" stroke="midnightblue" points="313.46,-21.92 303.11,-19.67 309.8,-27.89 313.46,-21.92"/>
</g>
<!-- Node9 -->
<g id="node9" class="node">
<title>Node9</title>
<g id="a_node9"><a xlink:href="name-provider_8h.html" target="_top" xlink:title=" ">
<polygon fill="white" stroke="black" points="432.5,-56.5 432.5,-75.5 547.5,-75.5 547.5,-56.5 432.5,-56.5"/>
<text text-anchor="middle" x="490" y="-63.5" font-family="Helvetica,sans-Serif" font-size="10.00">cppgc/name&#45;provider.h</text>
</a>
</g>
</g>
<!-- Node8&#45;&gt;Node9 -->
<g id="edge11" class="edge">
<title>Node8&#45;&gt;Node9</title>
<path fill="none" stroke="midnightblue" d="M480.08,-112.4C481.83,-104.38 484.05,-94.23 485.94,-85.57"/>
<polygon fill="midnightblue" stroke="midnightblue" points="489.39,-86.17 488.11,-75.66 482.55,-84.68 489.39,-86.17"/>
</g>
<!-- Node8&#45;&gt;Node10 -->
<g id="edge13" class="edge">
<title>Node8&#45;&gt;Node10</title>
<path fill="none" stroke="midnightblue" d="M514.77,-112.47C530.81,-104.41 547.88,-92.54 557,-76 565.49,-60.59 556.45,-41.58 547.13,-28.1"/>
<polygon fill="midnightblue" stroke="midnightblue" points="549.67,-25.65 540.85,-19.77 544.08,-29.86 549.67,-25.65"/>
</g>
<!-- Node9&#45;&gt;Node10 -->
<g id="edge12" class="edge">
<title>Node9&#45;&gt;Node10</title>
<path fill="none" stroke="midnightblue" d="M497.1,-56.08C503.24,-48.38 512.27,-37.03 519.74,-27.65"/>
<polygon fill="midnightblue" stroke="midnightblue" points="522.54,-29.75 526.03,-19.75 517.06,-25.39 522.54,-29.75"/>
</g>
<!-- Node11&#45;&gt;Node4 -->
<g id="edge15" class="edge">
<title>Node11&#45;&gt;Node4</title>
<path fill="none" stroke="midnightblue" d="M342.51,-117.56C338.03,-102.95 327.34,-73.8 309,-56 293.5,-40.95 272.02,-30.2 253.41,-22.99"/>
<polygon fill="midnightblue" stroke="midnightblue" points="254.58,-19.69 243.99,-19.54 252.17,-26.26 254.58,-19.69"/>
</g>
<!-- Node11&#45;&gt;Node6 -->
<g id="edge16" class="edge">
<title>Node11&#45;&gt;Node6</title>
<path fill="none" stroke="midnightblue" d="M331.68,-117.98C316.62,-108.34 291.88,-92.52 273.96,-81.05"/>
<polygon fill="midnightblue" stroke="midnightblue" points="275.61,-77.95 265.3,-75.51 271.84,-83.85 275.61,-77.95"/>
</g>
<!-- Node11&#45;&gt;Node10 -->
<g id="edge17" class="edge">
<title>Node11&#45;&gt;Node10</title>
<path fill="none" stroke="midnightblue" d="M352.99,-117.64C366.45,-103.15 395.03,-74.16 424,-56 446.41,-41.95 473.97,-30.62 495.77,-22.84"/>
<polygon fill="midnightblue" stroke="midnightblue" points="497.04,-26.1 505.34,-19.52 494.74,-19.49 497.04,-26.1"/>
</g>
</g>
</svg>
