<?xml version="1.0" encoding="UTF-8" standalone="no"?>
<!DOCTYPE svg PUBLIC "-//W3C//DTD SVG 1.1//EN"
 "http://www.w3.org/Graphics/SVG/1.1/DTD/svg11.dtd">
<!-- Generated by graphviz version 2.49.3 (20211027.1534)
 -->
<!-- Title: include/cppgc/persistent.h Pages: 1 -->
<svg width="2100pt" height="565pt"
 viewBox="0.00 0.00 2100.00 565.00" xmlns="http://www.w3.org/2000/svg" xmlns:xlink="http://www.w3.org/1999/xlink">
<g id="graph0" class="graph" transform="scale(1 1) rotate(0) translate(4 561)">
<title>include/cppgc/persistent.h</title>
<polygon fill="white" stroke="transparent" points="-4,4 -4,-561 2096,-561 2096,4 -4,4"/>
<!-- Node1 -->
<g id="node1" class="node">
<title>Node1</title>
<g id="a_node1"><a xlink:title=" ">
<polygon fill="#bfbfbf" stroke="black" points="616,-537.5 616,-556.5 746,-556.5 746,-537.5 616,-537.5"/>
<text text-anchor="middle" x="681" y="-544.5" font-family="Helvetica,sans-Serif" font-size="10.00">include/cppgc/persistent.h</text>
</a>
</g>
</g>
<!-- Node2 -->
<g id="node2" class="node">
<title>Node2</title>
<g id="a_node2"><a xlink:title=" ">
<polygon fill="white" stroke="#bfbfbf" points="102,-0.5 102,-19.5 164,-19.5 164,-0.5 102,-0.5"/>
<text text-anchor="middle" x="133" y="-7.5" font-family="Helvetica,sans-Serif" font-size="10.00">type_traits</text>
</a>
</g>
</g>
<!-- Node1&#45;&gt;Node2 -->
<g id="edge1" class="edge">
<title>Node1&#45;&gt;Node2</title>
<path fill="none" stroke="midnightblue" d="M615.89,-543.41C492.49,-538.03 229.02,-524.18 141,-501 74.27,-483.42 0,-505 0,-436 0,-436 0,-436 0,-126.5 0,-74.2 59.35,-40.24 98.75,-23.45"/>
<polygon fill="midnightblue" stroke="midnightblue" points="100.36,-26.57 108.3,-19.55 97.71,-20.09 100.36,-26.57"/>
</g>
<!-- Node3 -->
<g id="node3" class="node">
<title>Node3</title>
<g id="a_node3"><a xlink:href="persistent-node_8h.html" target="_top" xlink:title=" ">
<polygon fill="white" stroke="black" points="1676.5,-179.5 1676.5,-209.5 1799.5,-209.5 1799.5,-179.5 1676.5,-179.5"/>
<text text-anchor="start" x="1684.5" y="-197.5" font-family="Helvetica,sans-Serif" font-size="10.00">cppgc/internal/persistent</text>
<text text-anchor="middle" x="1738" y="-186.5" font-family="Helvetica,sans-Serif" font-size="10.00">&#45;node.h</text>
</a>
</g>
</g>
<!-- Node1&#45;&gt;Node3 -->
<g id="edge2" class="edge">
<title>Node1&#45;&gt;Node3</title>
<path fill="none" stroke="midnightblue" d="M746.23,-546.42C983.95,-547.08 1790,-541.57 1790,-436 1790,-436 1790,-436 1790,-322 1790,-283.26 1768.88,-242.52 1753.56,-218.06"/>
<polygon fill="midnightblue" stroke="midnightblue" points="1756.4,-216.01 1748.03,-209.52 1750.53,-219.82 1756.4,-216.01"/>
</g>
<!-- Node8 -->
<g id="node8" class="node">
<title>Node8</title>
<g id="a_node8"><a xlink:href="source-location_8h.html" target="_top" xlink:title=" ">
<polygon fill="white" stroke="black" points="1490.5,-56.5 1490.5,-75.5 1609.5,-75.5 1609.5,-56.5 1490.5,-56.5"/>
<text text-anchor="middle" x="1550" y="-63.5" font-family="Helvetica,sans-Serif" font-size="10.00">cppgc/source&#45;location.h</text>
</a>
</g>
</g>
<!-- Node1&#45;&gt;Node8 -->
<g id="edge52" class="edge">
<title>Node1&#45;&gt;Node8</title>
<path fill="none" stroke="midnightblue" d="M746.23,-544.94C954.2,-540.71 1588,-520.86 1588,-436 1588,-436 1588,-436 1588,-193.5 1588,-153.35 1570.22,-108.95 1558.99,-84.89"/>
<polygon fill="midnightblue" stroke="midnightblue" points="1562.01,-83.1 1554.51,-75.63 1555.71,-86.15 1562.01,-83.1"/>
</g>
<!-- Node11 -->
<g id="node11" class="node">
<title>Node11</title>
<g id="a_node11"><a xlink:href="v8config_8h.html" target="_top" xlink:title=" ">
<polygon fill="white" stroke="black" points="1273,-0.5 1273,-19.5 1333,-19.5 1333,-0.5 1273,-0.5"/>
<text text-anchor="middle" x="1303" y="-7.5" font-family="Helvetica,sans-Serif" font-size="10.00">v8config.h</text>
</a>
</g>
</g>
<!-- Node1&#45;&gt;Node11 -->
<g id="edge94" class="edge">
<title>Node1&#45;&gt;Node11</title>
<path fill="none" stroke="midnightblue" d="M746.23,-544.38C1023.73,-537.05 2092,-504.41 2092,-436 2092,-436 2092,-436 2092,-193.5 2092,-149.04 2072.15,-134.84 2034,-112 1925.21,-46.88 1874.14,-106.21 1751,-76 1726.14,-69.9 1721.89,-61.94 1697,-56 1570.24,-25.76 1415.53,-15.64 1343.5,-12.41"/>
<polygon fill="midnightblue" stroke="midnightblue" points="1343.22,-8.9 1333.08,-11.97 1342.92,-15.89 1343.22,-8.9"/>
</g>
<!-- Node13 -->
<g id="node13" class="node">
<title>Node13</title>
<g id="a_node13"><a xlink:href="type-traits_8h.html" target="_top" xlink:title=" ">
<polygon fill="white" stroke="black" points="161,-56.5 161,-75.5 257,-75.5 257,-56.5 161,-56.5"/>
<text text-anchor="middle" x="209" y="-63.5" font-family="Helvetica,sans-Serif" font-size="10.00">cppgc/type&#45;traits.h</text>
</a>
</g>
</g>
<!-- Node1&#45;&gt;Node13 -->
<g id="edge53" class="edge">
<title>Node1&#45;&gt;Node13</title>
<path fill="none" stroke="midnightblue" d="M615.96,-546.9C467.03,-547.21 114,-537.28 114,-436 114,-436 114,-436 114,-193.5 114,-144.93 159.34,-103.09 187.38,-81.87"/>
<polygon fill="midnightblue" stroke="midnightblue" points="189.78,-84.44 195.79,-75.72 185.65,-78.79 189.78,-84.44"/>
</g>
<!-- Node14 -->
<g id="node14" class="node">
<title>Node14</title>
<g id="a_node14"><a xlink:href="pointer-policies_8h.html" target="_top" xlink:title=" ">
<polygon fill="white" stroke="black" points="649,-246.5 649,-276.5 759,-276.5 759,-246.5 649,-246.5"/>
<text text-anchor="start" x="657" y="-264.5" font-family="Helvetica,sans-Serif" font-size="10.00">cppgc/internal/pointer</text>
<text text-anchor="middle" x="704" y="-253.5" font-family="Helvetica,sans-Serif" font-size="10.00">&#45;policies.h</text>
</a>
</g>
</g>
<!-- Node1&#45;&gt;Node14 -->
<g id="edge19" class="edge">
<title>Node1&#45;&gt;Node14</title>
<path fill="none" stroke="midnightblue" d="M628.72,-537.48C607.41,-531.15 584.81,-520.14 572,-501 553.22,-472.93 568.44,-458.59 572,-425 574.68,-399.69 571.18,-390.99 584,-369 605.53,-332.09 644.34,-301.17 672,-282.32"/>
<polygon fill="midnightblue" stroke="midnightblue" points="674.16,-285.09 680.55,-276.63 670.28,-279.26 674.16,-285.09"/>
</g>
<!-- Node26 -->
<g id="node26" class="node">
<title>Node26</title>
<g id="a_node26"><a xlink:href="sentinel-pointer_8h.html" target="_top" xlink:title=" ">
<polygon fill="white" stroke="black" points="952.5,-118 952.5,-137 1071.5,-137 1071.5,-118 952.5,-118"/>
<text text-anchor="middle" x="1012" y="-125" font-family="Helvetica,sans-Serif" font-size="10.00">cppgc/sentinel&#45;pointer.h</text>
</a>
</g>
</g>
<!-- Node1&#45;&gt;Node26 -->
<g id="edge51" class="edge">
<title>Node1&#45;&gt;Node26</title>
<path fill="none" stroke="midnightblue" d="M684.45,-537.4C697.42,-505.65 745.59,-392.78 806,-313 857.8,-244.59 879.73,-234.7 945,-179 960.09,-166.12 978.08,-152.66 991.62,-142.87"/>
<polygon fill="midnightblue" stroke="midnightblue" points="993.71,-145.68 999.8,-137.02 989.63,-139.99 993.71,-145.68"/>
</g>
<!-- Node27 -->
<g id="node27" class="node">
<title>Node27</title>
<g id="a_node27"><a xlink:href="visitor_8h.html" target="_top" xlink:title=" ">
<polygon fill="white" stroke="black" points="780,-481.5 780,-500.5 860,-500.5 860,-481.5 780,-481.5"/>
<text text-anchor="middle" x="820" y="-488.5" font-family="Helvetica,sans-Serif" font-size="10.00">cppgc/visitor.h</text>
</a>
</g>
</g>
<!-- Node1&#45;&gt;Node27 -->
<g id="edge54" class="edge">
<title>Node1&#45;&gt;Node27</title>
<path fill="none" stroke="midnightblue" d="M703.02,-537.44C726.1,-528.48 762.56,-514.31 788.64,-504.18"/>
<polygon fill="midnightblue" stroke="midnightblue" points="790.02,-507.4 798.08,-500.52 787.49,-500.88 790.02,-507.4"/>
</g>
<!-- Node4 -->
<g id="node4" class="node">
<title>Node4</title>
<g id="a_node4"><a xlink:title=" ">
<polygon fill="white" stroke="#bfbfbf" points="1854,-118 1854,-137 1892,-137 1892,-118 1854,-118"/>
<text text-anchor="middle" x="1873" y="-125" font-family="Helvetica,sans-Serif" font-size="10.00">array</text>
</a>
</g>
</g>
<!-- Node3&#45;&gt;Node4 -->
<g id="edge3" class="edge">
<title>Node3&#45;&gt;Node4</title>
<path fill="none" stroke="midnightblue" d="M1767.29,-179.4C1790.77,-168.09 1823.44,-152.36 1846.23,-141.39"/>
<polygon fill="midnightblue" stroke="midnightblue" points="1847.84,-144.5 1855.33,-137.01 1844.8,-138.19 1847.84,-144.5"/>
</g>
<!-- Node5 -->
<g id="node5" class="node">
<title>Node5</title>
<g id="a_node5"><a xlink:title=" ">
<polygon fill="white" stroke="#bfbfbf" points="1891.5,-0.5 1891.5,-19.5 1942.5,-19.5 1942.5,-0.5 1891.5,-0.5"/>
<text text-anchor="middle" x="1917" y="-7.5" font-family="Helvetica,sans-Serif" font-size="10.00">memory</text>
</a>
</g>
</g>
<!-- Node3&#45;&gt;Node5 -->
<g id="edge4" class="edge">
<title>Node3&#45;&gt;Node5</title>
<path fill="none" stroke="midnightblue" d="M1799.65,-191.99C1877.43,-188.63 2004.62,-177.81 2034,-143 2071.43,-98.65 1989.32,-47.62 1944.15,-24.11"/>
<polygon fill="midnightblue" stroke="midnightblue" points="1945.62,-20.93 1935.12,-19.52 1942.45,-27.17 1945.62,-20.93"/>
</g>
<!-- Node6 -->
<g id="node6" class="node">
<title>Node6</title>
<g id="a_node6"><a xlink:title=" ">
<polygon fill="white" stroke="#bfbfbf" points="1616,-118 1616,-137 1660,-137 1660,-118 1616,-118"/>
<text text-anchor="middle" x="1638" y="-125" font-family="Helvetica,sans-Serif" font-size="10.00">vector</text>
</a>
</g>
</g>
<!-- Node3&#45;&gt;Node6 -->
<g id="edge5" class="edge">
<title>Node3&#45;&gt;Node6</title>
<path fill="none" stroke="midnightblue" d="M1716.3,-179.4C1699.53,-168.5 1676.43,-153.48 1659.67,-142.58"/>
<polygon fill="midnightblue" stroke="midnightblue" points="1661.38,-139.52 1651.09,-137.01 1657.56,-145.39 1661.38,-139.52"/>
</g>
<!-- Node7 -->
<g id="node7" class="node">
<title>Node7</title>
<g id="a_node7"><a xlink:href="logging_8h.html" target="_top" xlink:title=" ">
<polygon fill="white" stroke="black" points="1678.5,-118 1678.5,-137 1797.5,-137 1797.5,-118 1678.5,-118"/>
<text text-anchor="middle" x="1738" y="-125" font-family="Helvetica,sans-Serif" font-size="10.00">cppgc/internal/logging.h</text>
</a>
</g>
</g>
<!-- Node3&#45;&gt;Node7 -->
<g id="edge6" class="edge">
<title>Node3&#45;&gt;Node7</title>
<path fill="none" stroke="midnightblue" d="M1738,-179.4C1738,-170.06 1738,-157.71 1738,-147.52"/>
<polygon fill="midnightblue" stroke="midnightblue" points="1741.5,-147.19 1738,-137.19 1734.5,-147.19 1741.5,-147.19"/>
</g>
<!-- Node3&#45;&gt;Node11 -->
<g id="edge18" class="edge">
<title>Node3&#45;&gt;Node11</title>
<path fill="none" stroke="midnightblue" d="M1768.12,-179.44C1782.38,-171.05 1798.01,-158.9 1806,-143 1812.19,-130.69 1813.89,-123.29 1806,-112 1800.81,-104.58 1661.79,-58.15 1653,-56 1543.06,-29.17 1409.55,-17.63 1343.73,-13.28"/>
<polygon fill="midnightblue" stroke="midnightblue" points="1343.58,-9.77 1333.38,-12.62 1343.13,-16.75 1343.58,-9.77"/>
</g>
<!-- Node12 -->
<g id="node12" class="node">
<title>Node12</title>
<g id="a_node12"><a xlink:href="trace-trait_8h.html" target="_top" xlink:title=" ">
<polygon fill="white" stroke="black" points="332.5,-118 332.5,-137 427.5,-137 427.5,-118 332.5,-118"/>
<text text-anchor="middle" x="380" y="-125" font-family="Helvetica,sans-Serif" font-size="10.00">cppgc/trace&#45;trait.h</text>
</a>
</g>
</g>
<!-- Node3&#45;&gt;Node12 -->
<g id="edge12" class="edge">
<title>Node3&#45;&gt;Node12</title>
<path fill="none" stroke="midnightblue" d="M1676.42,-190.68C1610.87,-187.7 1504.12,-182.89 1412,-179 1012.48,-162.12 911.77,-172.69 513,-143 488.28,-141.16 461.06,-138.33 437.72,-135.66"/>
<polygon fill="midnightblue" stroke="midnightblue" points="437.97,-132.17 427.63,-134.49 437.16,-139.12 437.97,-132.17"/>
</g>
<!-- Node7&#45;&gt;Node8 -->
<g id="edge7" class="edge">
<title>Node7&#45;&gt;Node8</title>
<path fill="none" stroke="midnightblue" d="M1711.06,-117.98C1678.4,-107.64 1623.18,-90.16 1586.66,-78.6"/>
<polygon fill="midnightblue" stroke="midnightblue" points="1587.48,-75.19 1576.89,-75.51 1585.36,-81.86 1587.48,-75.19"/>
</g>
<!-- Node7&#45;&gt;Node11 -->
<g id="edge11" class="edge">
<title>Node7&#45;&gt;Node11</title>
<path fill="none" stroke="midnightblue" d="M1726.83,-117.88C1706.45,-102.65 1661.33,-71.16 1618,-56 1523.31,-22.87 1404.45,-14.1 1343.36,-11.8"/>
<polygon fill="midnightblue" stroke="midnightblue" points="1343.11,-8.29 1333,-11.45 1342.88,-15.28 1343.11,-8.29"/>
</g>
<!-- Node9 -->
<g id="node9" class="node">
<title>Node9</title>
<g id="a_node9"><a xlink:title=" ">
<polygon fill="white" stroke="#bfbfbf" points="492.5,-0.5 492.5,-19.5 541.5,-19.5 541.5,-0.5 492.5,-0.5"/>
<text text-anchor="middle" x="517" y="-7.5" font-family="Helvetica,sans-Serif" font-size="10.00">cstddef</text>
</a>
</g>
</g>
<!-- Node8&#45;&gt;Node9 -->
<g id="edge8" class="edge">
<title>Node8&#45;&gt;Node9</title>
<path fill="none" stroke="midnightblue" d="M1490.4,-60.18C1471.42,-58.73 1450.33,-57.21 1431,-56 1088.53,-34.62 673.35,-17.29 551.92,-12.39"/>
<polygon fill="midnightblue" stroke="midnightblue" points="551.87,-8.88 541.73,-11.98 551.59,-15.88 551.87,-8.88"/>
</g>
<!-- Node10 -->
<g id="node10" class="node">
<title>Node10</title>
<g id="a_node10"><a xlink:title=" ">
<polygon fill="white" stroke="#bfbfbf" points="1571.5,-0.5 1571.5,-19.5 1612.5,-19.5 1612.5,-0.5 1571.5,-0.5"/>
<text text-anchor="middle" x="1592" y="-7.5" font-family="Helvetica,sans-Serif" font-size="10.00">string</text>
</a>
</g>
</g>
<!-- Node8&#45;&gt;Node10 -->
<g id="edge9" class="edge">
<title>Node8&#45;&gt;Node10</title>
<path fill="none" stroke="midnightblue" d="M1556.94,-56.08C1562.93,-48.38 1571.75,-37.03 1579.05,-27.65"/>
<polygon fill="midnightblue" stroke="midnightblue" points="1581.82,-29.79 1585.19,-19.75 1576.29,-25.5 1581.82,-29.79"/>
</g>
<!-- Node8&#45;&gt;Node11 -->
<g id="edge10" class="edge">
<title>Node8&#45;&gt;Node11</title>
<path fill="none" stroke="midnightblue" d="M1510.86,-56.44C1464.96,-46.41 1389.26,-29.86 1342.99,-19.74"/>
<polygon fill="midnightblue" stroke="midnightblue" points="1343.54,-16.28 1333.02,-17.56 1342.04,-23.12 1343.54,-16.28"/>
</g>
<!-- Node12&#45;&gt;Node2 -->
<g id="edge13" class="edge">
<title>Node12&#45;&gt;Node2</title>
<path fill="none" stroke="midnightblue" d="M374.75,-117.58C365.37,-102.45 344.22,-71.86 318,-56 273.47,-29.07 213.75,-18.24 174.36,-13.9"/>
<polygon fill="midnightblue" stroke="midnightblue" points="174.61,-10.41 164.31,-12.88 173.91,-17.37 174.61,-10.41"/>
</g>
<!-- Node12&#45;&gt;Node11 -->
<g id="edge17" class="edge">
<title>Node12&#45;&gt;Node11</title>
<path fill="none" stroke="midnightblue" d="M400.79,-117.93C439.31,-102.48 524.73,-70.24 600,-56 728.42,-31.7 1132.46,-16.61 1262.35,-12.29"/>
<polygon fill="midnightblue" stroke="midnightblue" points="1262.77,-15.78 1272.65,-11.95 1262.54,-8.78 1262.77,-15.78"/>
</g>
<!-- Node12&#45;&gt;Node13 -->
<g id="edge14" class="edge">
<title>Node12&#45;&gt;Node13</title>
<path fill="none" stroke="midnightblue" d="M355.5,-117.98C326.04,-107.72 276.42,-90.46 243.2,-78.9"/>
<polygon fill="midnightblue" stroke="midnightblue" points="244.05,-75.49 233.45,-75.51 241.75,-82.1 244.05,-75.49"/>
</g>
<!-- Node13&#45;&gt;Node2 -->
<g id="edge16" class="edge">
<title>Node13&#45;&gt;Node2</title>
<path fill="none" stroke="midnightblue" d="M196.79,-56.32C185.22,-48.11 167.62,-35.6 153.84,-25.81"/>
<polygon fill="midnightblue" stroke="midnightblue" points="155.61,-22.77 145.43,-19.83 151.56,-28.48 155.61,-22.77"/>
</g>
<!-- Node13&#45;&gt;Node9 -->
<g id="edge15" class="edge">
<title>Node13&#45;&gt;Node9</title>
<path fill="none" stroke="midnightblue" d="M257.12,-56.56C319.59,-45.61 427.1,-26.76 482.21,-17.1"/>
<polygon fill="midnightblue" stroke="midnightblue" points="482.94,-20.52 492.19,-15.35 481.73,-13.63 482.94,-20.52"/>
</g>
<!-- Node14&#45;&gt;Node2 -->
<g id="edge21" class="edge">
<title>Node14&#45;&gt;Node2</title>
<path fill="none" stroke="midnightblue" d="M648.91,-258.54C549.25,-254.25 343.49,-241.73 280,-210 206.33,-173.18 193.17,-147.33 152,-76 143.64,-61.52 138.71,-43.07 135.97,-29.53"/>
<polygon fill="midnightblue" stroke="midnightblue" points="139.38,-28.73 134.16,-19.51 132.49,-29.97 139.38,-28.73"/>
</g>
<!-- Node14&#45;&gt;Node8 -->
<g id="edge48" class="edge">
<title>Node14&#45;&gt;Node8</title>
<path fill="none" stroke="midnightblue" d="M759.18,-247.88C915.03,-212.23 1356.66,-111.22 1502.56,-77.85"/>
<polygon fill="midnightblue" stroke="midnightblue" points="1503.58,-81.21 1512.55,-75.57 1502.02,-74.38 1503.58,-81.21"/>
</g>
<!-- Node14&#45;&gt;Node11 -->
<g id="edge50" class="edge">
<title>Node14&#45;&gt;Node11</title>
<path fill="none" stroke="midnightblue" d="M694.1,-246.39C669.68,-209.73 612.14,-110.56 663,-56 703.86,-12.17 1128.17,-10.23 1262.48,-10.72"/>
<polygon fill="midnightblue" stroke="midnightblue" points="1262.72,-14.23 1272.74,-10.77 1262.75,-7.23 1262.72,-14.23"/>
</g>
<!-- Node14&#45;&gt;Node13 -->
<g id="edge49" class="edge">
<title>Node14&#45;&gt;Node13</title>
<path fill="none" stroke="midnightblue" d="M648.79,-254.06C546.74,-242.03 337.61,-216.77 323,-210 302.87,-200.68 262.6,-160.53 249,-143 234.91,-124.83 223.28,-100.97 216.26,-84.87"/>
<polygon fill="midnightblue" stroke="midnightblue" points="219.44,-83.41 212.33,-75.55 212.99,-86.12 219.44,-83.41"/>
</g>
<!-- Node15 -->
<g id="node15" class="node">
<title>Node15</title>
<g id="a_node15"><a xlink:title=" ">
<polygon fill="white" stroke="#bfbfbf" points="672,-56.5 672,-75.5 718,-75.5 718,-56.5 672,-56.5"/>
<text text-anchor="middle" x="695" y="-63.5" font-family="Helvetica,sans-Serif" font-size="10.00">cstdint</text>
</a>
</g>
</g>
<!-- Node14&#45;&gt;Node15 -->
<g id="edge20" class="edge">
<title>Node14&#45;&gt;Node15</title>
<path fill="none" stroke="midnightblue" d="M703.09,-246.35C702.46,-236.23 701.62,-222.28 701,-210 698.74,-165.49 696.7,-113.15 695.68,-85.8"/>
<polygon fill="midnightblue" stroke="midnightblue" points="699.18,-85.57 695.31,-75.71 692.18,-85.83 699.18,-85.57"/>
</g>
<!-- Node16 -->
<g id="node16" class="node">
<title>Node16</title>
<g id="a_node16"><a xlink:href="write-barrier_8h.html" target="_top" xlink:title=" ">
<polygon fill="white" stroke="black" points="710.5,-179.5 710.5,-209.5 811.5,-209.5 811.5,-179.5 710.5,-179.5"/>
<text text-anchor="start" x="718.5" y="-197.5" font-family="Helvetica,sans-Serif" font-size="10.00">cppgc/internal/write</text>
<text text-anchor="middle" x="761" y="-186.5" font-family="Helvetica,sans-Serif" font-size="10.00">&#45;barrier.h</text>
</a>
</g>
</g>
<!-- Node14&#45;&gt;Node16 -->
<g id="edge22" class="edge">
<title>Node14&#45;&gt;Node16</title>
<path fill="none" stroke="midnightblue" d="M716.37,-246.4C723.84,-237.88 733.51,-226.85 741.94,-217.23"/>
<polygon fill="midnightblue" stroke="midnightblue" points="744.69,-219.4 748.66,-209.58 739.43,-214.79 744.69,-219.4"/>
</g>
<!-- Node14&#45;&gt;Node26 -->
<g id="edge47" class="edge">
<title>Node14&#45;&gt;Node26</title>
<path fill="none" stroke="midnightblue" d="M741.49,-246.43C764.68,-237.19 794.73,-224.21 820,-210 840.85,-198.28 842.69,-189.86 864,-179 897.58,-161.89 938.25,-148.49 968.46,-139.8"/>
<polygon fill="midnightblue" stroke="midnightblue" points="969.6,-143.12 978.28,-137.04 967.7,-136.38 969.6,-143.12"/>
</g>
<!-- Node16&#45;&gt;Node9 -->
<g id="edge23" class="edge">
<title>Node16&#45;&gt;Node9</title>
<path fill="none" stroke="midnightblue" d="M710.37,-190.54C645.2,-185.55 537.43,-172.9 513,-143 486.49,-110.55 499.87,-57.17 509.69,-29.27"/>
<polygon fill="midnightblue" stroke="midnightblue" points="513.08,-30.21 513.32,-19.62 506.53,-27.75 513.08,-30.21"/>
</g>
<!-- Node16&#45;&gt;Node11 -->
<g id="edge46" class="edge">
<title>Node16&#45;&gt;Node11</title>
<path fill="none" stroke="midnightblue" d="M766.93,-179.4C775.19,-161.36 791.8,-130.28 815,-112 872.21,-66.93 898.28,-73.41 969,-56 1072.92,-30.42 1198.86,-18.42 1262.29,-13.65"/>
<polygon fill="midnightblue" stroke="midnightblue" points="1262.94,-17.12 1272.65,-12.9 1262.43,-10.13 1262.94,-17.12"/>
</g>
<!-- Node16&#45;&gt;Node12 -->
<g id="edge45" class="edge">
<title>Node16&#45;&gt;Node12</title>
<path fill="none" stroke="midnightblue" d="M710.41,-184.87C639.74,-172.81 511.85,-150.99 437.61,-138.33"/>
<polygon fill="midnightblue" stroke="midnightblue" points="437.95,-134.84 427.5,-136.6 436.77,-141.74 437.95,-134.84"/>
</g>
<!-- Node16&#45;&gt;Node15 -->
<g id="edge24" class="edge">
<title>Node16&#45;&gt;Node15</title>
<path fill="none" stroke="midnightblue" d="M753.68,-179.48C741.6,-156.31 717.47,-110.07 704.23,-84.69"/>
<polygon fill="midnightblue" stroke="midnightblue" points="707.31,-83.04 699.59,-75.79 701.11,-86.27 707.31,-83.04"/>
</g>
<!-- Node17 -->
<g id="node17" class="node">
<title>Node17</title>
<g id="a_node17"><a xlink:href="heap-state_8h.html" target="_top" xlink:title=" ">
<polygon fill="white" stroke="black" points="736.5,-56.5 736.5,-75.5 835.5,-75.5 835.5,-56.5 736.5,-56.5"/>
<text text-anchor="middle" x="786" y="-63.5" font-family="Helvetica,sans-Serif" font-size="10.00">cppgc/heap&#45;state.h</text>
</a>
</g>
</g>
<!-- Node16&#45;&gt;Node17 -->
<g id="edge25" class="edge">
<title>Node16&#45;&gt;Node17</title>
<path fill="none" stroke="midnightblue" d="M763.77,-179.48C768.29,-156.62 777.25,-111.3 782.3,-85.71"/>
<polygon fill="midnightblue" stroke="midnightblue" points="785.76,-86.28 784.26,-75.79 778.89,-84.92 785.76,-86.28"/>
</g>
<!-- Node18 -->
<g id="node18" class="node">
<title>Node18</title>
<g id="a_node18"><a xlink:href="api-constants_8h.html" target="_top" xlink:title=" ">
<polygon fill="white" stroke="black" points="522.5,-112.5 522.5,-142.5 615.5,-142.5 615.5,-112.5 522.5,-112.5"/>
<text text-anchor="start" x="530.5" y="-130.5" font-family="Helvetica,sans-Serif" font-size="10.00">cppgc/internal/api</text>
<text text-anchor="middle" x="569" y="-119.5" font-family="Helvetica,sans-Serif" font-size="10.00">&#45;constants.h</text>
</a>
</g>
</g>
<!-- Node16&#45;&gt;Node18 -->
<g id="edge27" class="edge">
<title>Node16&#45;&gt;Node18</title>
<path fill="none" stroke="midnightblue" d="M719.34,-179.4C690.28,-169.56 651.31,-156.37 620.33,-145.88"/>
<polygon fill="midnightblue" stroke="midnightblue" points="621.17,-142.47 610.58,-142.58 618.93,-149.1 621.17,-142.47"/>
</g>
<!-- Node19 -->
<g id="node19" class="node">
<title>Node19</title>
<g id="a_node19"><a xlink:href="atomic-entry-flag_8h.html" target="_top" xlink:title=" ">
<polygon fill="white" stroke="black" points="824,-112.5 824,-142.5 934,-142.5 934,-112.5 824,-112.5"/>
<text text-anchor="start" x="832" y="-130.5" font-family="Helvetica,sans-Serif" font-size="10.00">cppgc/internal/atomic</text>
<text text-anchor="middle" x="879" y="-119.5" font-family="Helvetica,sans-Serif" font-size="10.00">&#45;entry&#45;flag.h</text>
</a>
</g>
</g>
<!-- Node16&#45;&gt;Node19 -->
<g id="edge31" class="edge">
<title>Node16&#45;&gt;Node19</title>
<path fill="none" stroke="midnightblue" d="M786.6,-179.4C803.54,-170.07 825.94,-157.73 844.45,-147.53"/>
<polygon fill="midnightblue" stroke="midnightblue" points="846.38,-150.47 853.45,-142.58 843,-144.34 846.38,-150.47"/>
</g>
<!-- Node21 -->
<g id="node21" class="node">
<title>Node21</title>
<g id="a_node21"><a xlink:href="platform_8h.html" target="_top" xlink:title=" ">
<polygon fill="white" stroke="black" points="1394.5,-118 1394.5,-137 1483.5,-137 1483.5,-118 1394.5,-118"/>
<text text-anchor="middle" x="1439" y="-125" font-family="Helvetica,sans-Serif" font-size="10.00">cppgc/platform.h</text>
</a>
</g>
</g>
<!-- Node16&#45;&gt;Node21 -->
<g id="edge33" class="edge">
<title>Node16&#45;&gt;Node21</title>
<path fill="none" stroke="midnightblue" d="M811.68,-188.64C936.05,-176.72 1255.52,-146.09 1384.14,-133.76"/>
<polygon fill="midnightblue" stroke="midnightblue" points="1384.54,-137.24 1394.16,-132.8 1383.87,-130.27 1384.54,-137.24"/>
</g>
<!-- Node16&#45;&gt;Node26 -->
<g id="edge43" class="edge">
<title>Node16&#45;&gt;Node26</title>
<path fill="none" stroke="midnightblue" d="M811.79,-180.35C858.04,-168.37 925.57,-150.88 969.15,-139.6"/>
<polygon fill="midnightblue" stroke="midnightblue" points="970.08,-142.97 978.88,-137.08 968.32,-136.2 970.08,-142.97"/>
</g>
<!-- Node17&#45;&gt;Node11 -->
<g id="edge26" class="edge">
<title>Node17&#45;&gt;Node11</title>
<path fill="none" stroke="midnightblue" d="M835.59,-57.82C840.45,-57.18 845.32,-56.56 850,-56 1002.08,-37.76 1183.51,-21.35 1262.7,-14.45"/>
<polygon fill="midnightblue" stroke="midnightblue" points="1263.08,-17.93 1272.74,-13.58 1262.47,-10.96 1263.08,-17.93"/>
</g>
<!-- Node18&#45;&gt;Node9 -->
<g id="edge28" class="edge">
<title>Node18&#45;&gt;Node9</title>
<path fill="none" stroke="midnightblue" d="M562.62,-112.34C553.17,-91.34 535.44,-51.96 525.08,-28.96"/>
<polygon fill="midnightblue" stroke="midnightblue" points="528.2,-27.35 520.9,-19.67 521.82,-30.22 528.2,-27.35"/>
</g>
<!-- Node18&#45;&gt;Node11 -->
<g id="edge30" class="edge">
<title>Node18&#45;&gt;Node11</title>
<path fill="none" stroke="midnightblue" d="M576.52,-112.43C586.33,-95.65 605.23,-68.34 630,-56 686.57,-27.82 1126.3,-15.17 1262.75,-11.89"/>
<polygon fill="midnightblue" stroke="midnightblue" points="1262.87,-15.39 1272.79,-11.66 1262.71,-8.39 1262.87,-15.39"/>
</g>
<!-- Node18&#45;&gt;Node15 -->
<g id="edge29" class="edge">
<title>Node18&#45;&gt;Node15</title>
<path fill="none" stroke="midnightblue" d="M598.86,-112.4C619.62,-102.59 647.1,-89.62 667.36,-80.05"/>
<polygon fill="midnightblue" stroke="midnightblue" points="669.12,-83.09 676.67,-75.66 666.13,-76.76 669.12,-83.09"/>
</g>
<!-- Node20 -->
<g id="node20" class="node">
<title>Node20</title>
<g id="a_node20"><a xlink:title=" ">
<polygon fill="white" stroke="#bfbfbf" points="978,-56.5 978,-75.5 1024,-75.5 1024,-56.5 978,-56.5"/>
<text text-anchor="middle" x="1001" y="-63.5" font-family="Helvetica,sans-Serif" font-size="10.00">atomic</text>
</a>
</g>
</g>
<!-- Node19&#45;&gt;Node20 -->
<g id="edge32" class="edge">
<title>Node19&#45;&gt;Node20</title>
<path fill="none" stroke="midnightblue" d="M907.91,-112.4C928.02,-102.59 954.62,-89.62 974.24,-80.05"/>
<polygon fill="midnightblue" stroke="midnightblue" points="975.79,-83.19 983.25,-75.66 972.73,-76.9 975.79,-83.19"/>
</g>
<!-- Node21&#45;&gt;Node5 -->
<g id="edge34" class="edge">
<title>Node21&#45;&gt;Node5</title>
<path fill="none" stroke="midnightblue" d="M1470.37,-117.95C1479.25,-115.76 1488.96,-113.58 1498,-112 1649.44,-85.59 1700.97,-137.16 1842,-76 1867.08,-65.13 1889.87,-42.77 1903.59,-27.34"/>
<polygon fill="midnightblue" stroke="midnightblue" points="1906.37,-29.46 1910.23,-19.59 1901.06,-24.91 1906.37,-29.46"/>
</g>
<!-- Node21&#45;&gt;Node11 -->
<g id="edge42" class="edge">
<title>Node21&#45;&gt;Node11</title>
<path fill="none" stroke="midnightblue" d="M1440.74,-117.59C1443.03,-103.02 1445.28,-73.92 1431,-56 1409.95,-29.59 1372.32,-18.64 1343.29,-14.13"/>
<polygon fill="midnightblue" stroke="midnightblue" points="1343.41,-10.61 1333.03,-12.74 1342.47,-17.55 1343.41,-10.61"/>
</g>
<!-- Node22 -->
<g id="node22" class="node">
<title>Node22</title>
<g id="a_node22"><a xlink:href="v8-platform_8h.html" target="_top" xlink:title=" ">
<polygon fill="white" stroke="black" points="1760.5,-56.5 1760.5,-75.5 1833.5,-75.5 1833.5,-56.5 1760.5,-56.5"/>
<text text-anchor="middle" x="1797" y="-63.5" font-family="Helvetica,sans-Serif" font-size="10.00">v8&#45;platform.h</text>
</a>
</g>
</g>
<!-- Node21&#45;&gt;Node22 -->
<g id="edge35" class="edge">
<title>Node21&#45;&gt;Node22</title>
<path fill="none" stroke="midnightblue" d="M1471.34,-117.99C1479.97,-115.87 1489.31,-113.72 1498,-112 1586.66,-94.47 1691.3,-80.17 1750.33,-72.68"/>
<polygon fill="midnightblue" stroke="midnightblue" points="1750.97,-76.12 1760.45,-71.4 1750.09,-69.18 1750.97,-76.12"/>
</g>
<!-- Node22&#45;&gt;Node5 -->
<g id="edge39" class="edge">
<title>Node22&#45;&gt;Node5</title>
<path fill="none" stroke="midnightblue" d="M1816.01,-56.44C1835.59,-47.64 1866.31,-33.81 1888.73,-23.72"/>
<polygon fill="midnightblue" stroke="midnightblue" points="1890.39,-26.81 1898.07,-19.52 1887.52,-20.43 1890.39,-26.81"/>
</g>
<!-- Node22&#45;&gt;Node10 -->
<g id="edge40" class="edge">
<title>Node22&#45;&gt;Node10</title>
<path fill="none" stroke="midnightblue" d="M1764.52,-56.44C1725.61,-46.2 1660.93,-29.16 1622.79,-19.11"/>
<polygon fill="midnightblue" stroke="midnightblue" points="1623.34,-15.64 1612.78,-16.47 1621.56,-22.41 1623.34,-15.64"/>
</g>
<!-- Node22&#45;&gt;Node11 -->
<g id="edge41" class="edge">
<title>Node22&#45;&gt;Node11</title>
<path fill="none" stroke="midnightblue" d="M1760.28,-58.19C1755.48,-57.4 1750.63,-56.64 1746,-56 1598.27,-35.49 1421.61,-20.34 1343.52,-14.11"/>
<polygon fill="midnightblue" stroke="midnightblue" points="1343.42,-10.59 1333.17,-13.3 1342.86,-17.57 1343.42,-10.59"/>
</g>
<!-- Node23 -->
<g id="node23" class="node">
<title>Node23</title>
<g id="a_node23"><a xlink:title=" ">
<polygon fill="white" stroke="#bfbfbf" points="1822.5,-0.5 1822.5,-19.5 1873.5,-19.5 1873.5,-0.5 1822.5,-0.5"/>
<text text-anchor="middle" x="1848" y="-7.5" font-family="Helvetica,sans-Serif" font-size="10.00">stddef.h</text>
</a>
</g>
</g>
<!-- Node22&#45;&gt;Node23 -->
<g id="edge36" class="edge">
<title>Node22&#45;&gt;Node23</title>
<path fill="none" stroke="midnightblue" d="M1805.42,-56.08C1812.85,-48.22 1823.85,-36.57 1832.81,-27.08"/>
<polygon fill="midnightblue" stroke="midnightblue" points="1835.41,-29.42 1839.74,-19.75 1830.32,-24.62 1835.41,-29.42"/>
</g>
<!-- Node24 -->
<g id="node24" class="node">
<title>Node24</title>
<g id="a_node24"><a xlink:title=" ">
<polygon fill="white" stroke="#bfbfbf" points="1756,-0.5 1756,-19.5 1804,-19.5 1804,-0.5 1756,-0.5"/>
<text text-anchor="middle" x="1780" y="-7.5" font-family="Helvetica,sans-Serif" font-size="10.00">stdint.h</text>
</a>
</g>
</g>
<!-- Node22&#45;&gt;Node24 -->
<g id="edge37" class="edge">
<title>Node22&#45;&gt;Node24</title>
<path fill="none" stroke="midnightblue" d="M1794.19,-56.08C1791.92,-48.85 1788.63,-38.41 1785.79,-29.4"/>
<polygon fill="midnightblue" stroke="midnightblue" points="1789.1,-28.24 1782.75,-19.75 1782.42,-30.34 1789.1,-28.24"/>
</g>
<!-- Node25 -->
<g id="node25" class="node">
<title>Node25</title>
<g id="a_node25"><a xlink:title=" ">
<polygon fill="white" stroke="#bfbfbf" points="1690.5,-0.5 1690.5,-19.5 1737.5,-19.5 1737.5,-0.5 1690.5,-0.5"/>
<text text-anchor="middle" x="1714" y="-7.5" font-family="Helvetica,sans-Serif" font-size="10.00">stdlib.h</text>
</a>
</g>
</g>
<!-- Node22&#45;&gt;Node25 -->
<g id="edge38" class="edge">
<title>Node22&#45;&gt;Node25</title>
<path fill="none" stroke="midnightblue" d="M1783.66,-56.32C1770.84,-47.98 1751.22,-35.21 1736.06,-25.35"/>
<polygon fill="midnightblue" stroke="midnightblue" points="1737.59,-22.17 1727.3,-19.65 1733.78,-28.04 1737.59,-22.17"/>
</g>
<!-- Node26&#45;&gt;Node15 -->
<g id="edge44" class="edge">
<title>Node26&#45;&gt;Node15</title>
<path fill="none" stroke="midnightblue" d="M972.65,-117.93C962.97,-115.91 952.62,-113.81 943,-112 850.44,-94.57 823.69,-97.02 728.13,-76.06"/>
<polygon fill="midnightblue" stroke="midnightblue" points="728.87,-72.64 718.34,-73.88 727.35,-79.47 728.87,-72.64"/>
</g>
<!-- Node27&#45;&gt;Node7 -->
<g id="edge86" class="edge">
<title>Node27&#45;&gt;Node7</title>
<path fill="none" stroke="midnightblue" d="M860.44,-489.96C1002.45,-489.46 1472.57,-484.81 1526,-445 1550.69,-426.6 1550,-410.8 1550,-380 1550,-380 1550,-380 1550,-260.5 1550,-192.03 1634.56,-156.03 1690.26,-139.74"/>
<polygon fill="midnightblue" stroke="midnightblue" points="1691.27,-143.09 1699.96,-137.02 1689.38,-136.35 1691.27,-143.09"/>
</g>
<!-- Node27&#45;&gt;Node8 -->
<g id="edge91" class="edge">
<title>Node27&#45;&gt;Node8</title>
<path fill="none" stroke="midnightblue" d="M860.2,-487.89C1007.89,-479.6 1512,-446.45 1512,-380 1512,-380 1512,-380 1512,-260.5 1512,-195.01 1533.22,-119.35 1543.94,-85.28"/>
<polygon fill="midnightblue" stroke="midnightblue" points="1547.28,-86.34 1547.02,-75.75 1540.62,-84.19 1547.28,-86.34"/>
</g>
<!-- Node27&#45;&gt;Node12 -->
<g id="edge92" class="edge">
<title>Node27&#45;&gt;Node12</title>
<path fill="none" stroke="midnightblue" d="M807.65,-481.43C768.49,-453.97 644.32,-364.87 554,-277 513.09,-237.2 515.12,-215.22 471,-179 452.21,-163.58 428.03,-150.41 409.32,-141.4"/>
<polygon fill="midnightblue" stroke="midnightblue" points="410.64,-138.15 400.1,-137.07 407.66,-144.49 410.64,-138.15"/>
</g>
<!-- Node27&#45;&gt;Node13 -->
<g id="edge93" class="edge">
<title>Node27&#45;&gt;Node13</title>
<path fill="none" stroke="midnightblue" d="M779.85,-482.69C742.46,-475.28 685.52,-462.41 638,-445 445.84,-374.58 375.04,-365.52 242,-210 211.44,-174.28 207.79,-115.77 208.13,-85.87"/>
<polygon fill="midnightblue" stroke="midnightblue" points="211.64,-85.69 208.43,-75.6 204.64,-85.49 211.64,-85.69"/>
</g>
<!-- Node27&#45;&gt;Node14 -->
<g id="edge87" class="edge">
<title>Node27&#45;&gt;Node14</title>
<path fill="none" stroke="midnightblue" d="M813.62,-481.28C807.26,-472.39 797.39,-458.08 790,-445 758.8,-389.76 728.7,-321.33 713.76,-286.03"/>
<polygon fill="midnightblue" stroke="midnightblue" points="716.89,-284.45 709.79,-276.59 710.44,-287.16 716.89,-284.45"/>
</g>
<!-- Node27&#45;&gt;Node26 -->
<g id="edge90" class="edge">
<title>Node27&#45;&gt;Node26</title>
<path fill="none" stroke="midnightblue" d="M860.27,-484.71C945.84,-472.35 1138,-438.13 1138,-380 1138,-380 1138,-380 1138,-322 1138,-244.43 1066.02,-173.58 1030.87,-143.6"/>
<polygon fill="midnightblue" stroke="midnightblue" points="1033.11,-140.91 1023.18,-137.2 1028.63,-146.29 1033.11,-140.91"/>
</g>
<!-- Node28 -->
<g id="node28" class="node">
<title>Node28</title>
<g id="a_node28"><a xlink:href="custom-space_8h.html" target="_top" xlink:title=" ">
<polygon fill="white" stroke="black" points="1910.5,-118 1910.5,-137 2025.5,-137 2025.5,-118 1910.5,-118"/>
<text text-anchor="middle" x="1968" y="-125" font-family="Helvetica,sans-Serif" font-size="10.00">cppgc/custom&#45;space.h</text>
</a>
</g>
</g>
<!-- Node27&#45;&gt;Node28 -->
<g id="edge55" class="edge">
<title>Node27&#45;&gt;Node28</title>
<path fill="none" stroke="midnightblue" d="M860.33,-490.56C994.1,-491.93 1422,-492.42 1550,-445 1733.92,-376.86 1904.36,-199.2 1953.72,-144.66"/>
<polygon fill="midnightblue" stroke="midnightblue" points="1956.52,-146.78 1960.58,-137 1951.3,-142.11 1956.52,-146.78"/>
</g>
<!-- Node29 -->
<g id="node29" class="node">
<title>Node29</title>
<g id="a_node29"><a xlink:href="ephemeron-pair_8h.html" target="_top" xlink:title=" ">
<polygon fill="white" stroke="black" points="804,-425.5 804,-444.5 924,-444.5 924,-425.5 804,-425.5"/>
<text text-anchor="middle" x="864" y="-432.5" font-family="Helvetica,sans-Serif" font-size="10.00">cppgc/ephemeron&#45;pair.h</text>
</a>
</g>
</g>
<!-- Node27&#45;&gt;Node29 -->
<g id="edge57" class="edge">
<title>Node27&#45;&gt;Node29</title>
<path fill="none" stroke="midnightblue" d="M827.27,-481.08C833.54,-473.38 842.79,-462.03 850.43,-452.65"/>
<polygon fill="midnightblue" stroke="midnightblue" points="853.27,-454.71 856.87,-444.75 847.84,-450.29 853.27,-454.71"/>
</g>
<!-- Node30 -->
<g id="node30" class="node">
<title>Node30</title>
<g id="a_node30"><a xlink:href="liveness-broker_8h.html" target="_top" xlink:title=" ">
<polygon fill="white" stroke="black" points="892.5,-369.5 892.5,-388.5 1011.5,-388.5 1011.5,-369.5 892.5,-369.5"/>
<text text-anchor="middle" x="952" y="-376.5" font-family="Helvetica,sans-Serif" font-size="10.00">cppgc/liveness&#45;broker.h</text>
</a>
</g>
</g>
<!-- Node27&#45;&gt;Node30 -->
<g id="edge88" class="edge">
<title>Node27&#45;&gt;Node30</title>
<path fill="none" stroke="midnightblue" d="M860.1,-483.21C884.34,-477.11 914.1,-465.78 933,-445 944.49,-432.37 949.05,-413.16 950.86,-398.9"/>
<polygon fill="midnightblue" stroke="midnightblue" points="954.36,-399.01 951.79,-388.74 947.39,-398.37 954.36,-399.01"/>
</g>
<!-- Node33 -->
<g id="node33" class="node">
<title>Node33</title>
<g id="a_node33"><a xlink:href="member_8h.html" target="_top" xlink:title=" ">
<polygon fill="white" stroke="black" points="815.5,-313.5 815.5,-332.5 904.5,-332.5 904.5,-313.5 815.5,-313.5"/>
<text text-anchor="middle" x="860" y="-320.5" font-family="Helvetica,sans-Serif" font-size="10.00">cppgc/member.h</text>
</a>
</g>
</g>
<!-- Node27&#45;&gt;Node33 -->
<g id="edge89" class="edge">
<title>Node27&#45;&gt;Node33</title>
<path fill="none" stroke="midnightblue" d="M812.76,-481.32C803.39,-469.01 788.93,-445.65 795,-425 804.79,-391.69 829.34,-358.99 845.31,-340.19"/>
<polygon fill="midnightblue" stroke="midnightblue" points="848.02,-342.41 851.96,-332.58 842.75,-337.81 848.02,-342.41"/>
</g>
<!-- Node34 -->
<g id="node34" class="node">
<title>Node34</title>
<g id="a_node34"><a xlink:href="garbage-collected_8h.html" target="_top" xlink:title=" ">
<polygon fill="white" stroke="black" points="332,-185 332,-204 462,-204 462,-185 332,-185"/>
<text text-anchor="middle" x="397" y="-192" font-family="Helvetica,sans-Serif" font-size="10.00">cppgc/garbage&#45;collected.h</text>
</a>
</g>
</g>
<!-- Node27&#45;&gt;Node34 -->
<g id="edge80" class="edge">
<title>Node27&#45;&gt;Node34</title>
<path fill="none" stroke="midnightblue" d="M789.93,-481.47C762.42,-473.29 720.82,-460.01 686,-445 637.43,-424.06 513.98,-369.8 476,-333 439.71,-297.84 414.85,-242.41 403.68,-213.86"/>
<polygon fill="midnightblue" stroke="midnightblue" points="406.89,-212.44 400.08,-204.33 400.34,-214.92 406.89,-212.44"/>
</g>
<!-- Node28&#45;&gt;Node23 -->
<g id="edge56" class="edge">
<title>Node28&#45;&gt;Node23</title>
<path fill="none" stroke="midnightblue" d="M1958.98,-117.82C1938.91,-98.5 1890.32,-51.74 1864.61,-26.98"/>
<polygon fill="midnightblue" stroke="midnightblue" points="1866.76,-24.2 1857.12,-19.78 1861.9,-29.24 1866.76,-24.2"/>
</g>
<!-- Node29&#45;&gt;Node30 -->
<g id="edge58" class="edge">
<title>Node29&#45;&gt;Node30</title>
<path fill="none" stroke="midnightblue" d="M878.14,-425.32C891.87,-416.9 912.94,-403.97 929.06,-394.07"/>
<polygon fill="midnightblue" stroke="midnightblue" points="931.2,-396.87 937.9,-388.65 927.54,-390.9 931.2,-396.87"/>
</g>
<!-- Node29&#45;&gt;Node33 -->
<g id="edge79" class="edge">
<title>Node29&#45;&gt;Node33</title>
<path fill="none" stroke="midnightblue" d="M863.69,-425.37C863.04,-407.62 861.55,-366.67 860.68,-342.6"/>
<polygon fill="midnightblue" stroke="midnightblue" points="864.17,-342.46 860.31,-332.59 857.18,-342.71 864.17,-342.46"/>
</g>
<!-- Node30&#45;&gt;Node11 -->
<g id="edge78" class="edge">
<title>Node30&#45;&gt;Node11</title>
<path fill="none" stroke="midnightblue" d="M1011.78,-376.91C1089.11,-371.96 1214,-350.36 1214,-262.5 1214,-262.5 1214,-262.5 1214,-126.5 1214,-82.6 1254.83,-45.18 1281.18,-25.6"/>
<polygon fill="midnightblue" stroke="midnightblue" points="1283.39,-28.33 1289.48,-19.67 1279.31,-22.64 1283.39,-28.33"/>
</g>
<!-- Node30&#45;&gt;Node12 -->
<g id="edge77" class="edge">
<title>Node30&#45;&gt;Node12</title>
<path fill="none" stroke="midnightblue" d="M892.32,-371.94C816.9,-362.01 685.42,-337 590,-277 540.94,-246.15 551.21,-212.61 504,-179 479.09,-161.27 447.04,-148.43 421.77,-140.13"/>
<polygon fill="midnightblue" stroke="midnightblue" points="422.68,-136.75 412.09,-137.07 420.57,-143.42 422.68,-136.75"/>
</g>
<!-- Node31 -->
<g id="node31" class="node">
<title>Node31</title>
<g id="a_node31"><a xlink:href="heap_8h.html" target="_top" xlink:title=" ">
<polygon fill="white" stroke="black" points="1329,-185 1329,-204 1403,-204 1403,-185 1329,-185"/>
<text text-anchor="middle" x="1366" y="-192" font-family="Helvetica,sans-Serif" font-size="10.00">cppgc/heap.h</text>
</a>
</g>
</g>
<!-- Node30&#45;&gt;Node31 -->
<g id="edge59" class="edge">
<title>Node30&#45;&gt;Node31</title>
<path fill="none" stroke="midnightblue" d="M1011.52,-378.64C1069.73,-376.96 1159.38,-368.08 1228,-333 1285.06,-303.83 1333.26,-242.51 1354.45,-212.61"/>
<polygon fill="midnightblue" stroke="midnightblue" points="1357.54,-214.3 1360.36,-204.09 1351.79,-210.31 1357.54,-214.3"/>
</g>
<!-- Node30&#45;&gt;Node33 -->
<g id="edge69" class="edge">
<title>Node30&#45;&gt;Node33</title>
<path fill="none" stroke="midnightblue" d="M937.22,-369.32C922.73,-360.82 900.43,-347.73 883.51,-337.8"/>
<polygon fill="midnightblue" stroke="midnightblue" points="885.14,-334.7 874.74,-332.65 881.6,-340.74 885.14,-334.7"/>
</g>
<!-- Node31&#45;&gt;Node5 -->
<g id="edge62" class="edge">
<title>Node31&#45;&gt;Node5</title>
<path fill="none" stroke="midnightblue" d="M1386.88,-184.92C1428.2,-168.3 1523.59,-131.6 1607,-112 1722.28,-84.91 1769.75,-137.41 1871,-76 1888.86,-65.16 1901.67,-44.47 1909.16,-29.33"/>
<polygon fill="midnightblue" stroke="midnightblue" points="1912.49,-30.48 1913.49,-19.93 1906.13,-27.55 1912.49,-30.48"/>
</g>
<!-- Node31&#45;&gt;Node6 -->
<g id="edge63" class="edge">
<title>Node31&#45;&gt;Node6</title>
<path fill="none" stroke="midnightblue" d="M1401.84,-184.94C1455.28,-172.16 1555.03,-148.33 1606.09,-136.12"/>
<polygon fill="midnightblue" stroke="midnightblue" points="1607.01,-139.5 1615.92,-133.78 1605.38,-132.7 1607.01,-139.5"/>
</g>
<!-- Node31&#45;&gt;Node9 -->
<g id="edge60" class="edge">
<title>Node31&#45;&gt;Node9</title>
<path fill="none" stroke="midnightblue" d="M1350.3,-184.97C1303.62,-160.06 1160.91,-87.21 1033,-56 855.81,-12.77 635.49,-9.79 551.61,-10.42"/>
<polygon fill="midnightblue" stroke="midnightblue" points="551.57,-6.92 541.61,-10.52 551.64,-13.92 551.57,-6.92"/>
</g>
<!-- Node31&#45;&gt;Node11 -->
<g id="edge68" class="edge">
<title>Node31&#45;&gt;Node11</title>
<path fill="none" stroke="midnightblue" d="M1362.46,-184.74C1354.68,-165.32 1335.69,-117.13 1322,-76 1316.84,-60.49 1311.68,-42.65 1308.04,-29.59"/>
<polygon fill="midnightblue" stroke="midnightblue" points="1311.4,-28.61 1305.38,-19.9 1304.65,-30.47 1311.4,-28.61"/>
</g>
<!-- Node31&#45;&gt;Node15 -->
<g id="edge61" class="edge">
<title>Node31&#45;&gt;Node15</title>
<path fill="none" stroke="midnightblue" d="M1341.49,-184.93C1292.48,-168.14 1178.62,-130.93 1080,-112 928.3,-82.89 883.75,-104.53 728.22,-75.92"/>
<polygon fill="midnightblue" stroke="midnightblue" points="728.78,-72.46 718.31,-74.06 727.49,-79.34 728.78,-72.46"/>
</g>
<!-- Node31&#45;&gt;Node21 -->
<g id="edge67" class="edge">
<title>Node31&#45;&gt;Node21</title>
<path fill="none" stroke="midnightblue" d="M1375.85,-184.73C1387.56,-174.31 1407.32,-156.71 1421.62,-143.97"/>
<polygon fill="midnightblue" stroke="midnightblue" points="1424.17,-146.39 1429.31,-137.13 1419.51,-141.16 1424.17,-146.39"/>
</g>
<!-- Node31&#45;&gt;Node28 -->
<g id="edge66" class="edge">
<title>Node31&#45;&gt;Node28</title>
<path fill="none" stroke="midnightblue" d="M1403.16,-191.52C1490.45,-186.53 1715.22,-171.77 1901,-143 1907.87,-141.94 1915.1,-140.6 1922.17,-139.18"/>
<polygon fill="midnightblue" stroke="midnightblue" points="1923.26,-142.52 1932.33,-137.04 1921.83,-135.67 1923.26,-142.52"/>
</g>
<!-- Node32 -->
<g id="node32" class="node">
<title>Node32</title>
<g id="a_node32"><a xlink:href="common_8h.html" target="_top" xlink:title=" ">
<polygon fill="white" stroke="black" points="1331.5,-56.5 1331.5,-75.5 1422.5,-75.5 1422.5,-56.5 1331.5,-56.5"/>
<text text-anchor="middle" x="1377" y="-63.5" font-family="Helvetica,sans-Serif" font-size="10.00">cppgc/common.h</text>
</a>
</g>
</g>
<!-- Node31&#45;&gt;Node32 -->
<g id="edge64" class="edge">
<title>Node31&#45;&gt;Node32</title>
<path fill="none" stroke="midnightblue" d="M1366.76,-184.81C1368.52,-164.49 1372.95,-113.55 1375.37,-85.78"/>
<polygon fill="midnightblue" stroke="midnightblue" points="1378.86,-86.02 1376.24,-75.76 1371.89,-85.41 1378.86,-86.02"/>
</g>
<!-- Node32&#45;&gt;Node11 -->
<g id="edge65" class="edge">
<title>Node32&#45;&gt;Node11</title>
<path fill="none" stroke="midnightblue" d="M1365.11,-56.32C1353.85,-48.11 1336.71,-35.6 1323.29,-25.81"/>
<polygon fill="midnightblue" stroke="midnightblue" points="1325.25,-22.9 1315.11,-19.83 1321.12,-28.56 1325.25,-22.9"/>
</g>
<!-- Node33&#45;&gt;Node2 -->
<g id="edge72" class="edge">
<title>Node33&#45;&gt;Node2</title>
<path fill="none" stroke="midnightblue" d="M815.42,-320.07C711.27,-315.21 454.59,-301.1 372,-277 268.93,-246.93 233.72,-230.14 171,-143 151.83,-116.37 148.76,-107.62 140,-76 135.78,-60.77 134.08,-42.88 133.41,-29.73"/>
<polygon fill="midnightblue" stroke="midnightblue" points="136.9,-29.45 133.04,-19.58 129.9,-29.7 136.9,-29.45"/>
</g>
<!-- Node33&#45;&gt;Node9 -->
<g id="edge71" class="edge">
<title>Node33&#45;&gt;Node9</title>
<path fill="none" stroke="midnightblue" d="M815.08,-319.92C768.88,-316.19 695.97,-305.83 640,-277 638.79,-276.37 496.55,-144.25 496,-143 480.3,-107.66 486.28,-93.67 495,-56 497.23,-46.36 501.82,-36.41 506.24,-28.31"/>
<polygon fill="midnightblue" stroke="midnightblue" points="509.35,-29.92 511.36,-19.52 503.3,-26.4 509.35,-29.92"/>
</g>
<!-- Node33&#45;&gt;Node11 -->
<g id="edge76" class="edge">
<title>Node33&#45;&gt;Node11</title>
<path fill="none" stroke="midnightblue" d="M893.58,-313.46C919.4,-306.05 955.38,-293.85 984,-277 1102.36,-207.32 1088.56,-136.27 1200,-56 1219.87,-41.69 1245,-30.6 1265.47,-23.01"/>
<polygon fill="midnightblue" stroke="midnightblue" points="1266.86,-26.23 1275.1,-19.56 1264.5,-19.63 1266.86,-26.23"/>
</g>
<!-- Node33&#45;&gt;Node13 -->
<g id="edge75" class="edge">
<title>Node33&#45;&gt;Node13</title>
<path fill="none" stroke="midnightblue" d="M815.16,-317.52C695.27,-304.9 370.31,-266.27 280,-210 247.77,-189.92 243.55,-177.17 227,-143 218.16,-124.73 213.5,-101.85 211.16,-85.99"/>
<polygon fill="midnightblue" stroke="midnightblue" points="214.6,-85.31 209.84,-75.85 207.66,-86.22 214.6,-85.31"/>
</g>
<!-- Node33&#45;&gt;Node14 -->
<g id="edge73" class="edge">
<title>Node33&#45;&gt;Node14</title>
<path fill="none" stroke="midnightblue" d="M837.65,-313.48C814.94,-304.81 779.1,-291.15 750.25,-280.14"/>
<polygon fill="midnightblue" stroke="midnightblue" points="751.36,-276.82 740.77,-276.52 748.86,-283.36 751.36,-276.82"/>
</g>
<!-- Node33&#45;&gt;Node20 -->
<g id="edge70" class="edge">
<title>Node33&#45;&gt;Node20</title>
<path fill="none" stroke="midnightblue" d="M879.98,-313.35C925.89,-292.2 1038.17,-232.97 1080,-143 1085.81,-130.51 1086.92,-123.91 1080,-112 1070.05,-94.89 1050.9,-83.74 1033.94,-76.83"/>
<polygon fill="midnightblue" stroke="midnightblue" points="1034.89,-73.44 1024.3,-73.23 1032.44,-80 1034.89,-73.44"/>
</g>
<!-- Node33&#45;&gt;Node26 -->
<g id="edge74" class="edge">
<title>Node33&#45;&gt;Node26</title>
<path fill="none" stroke="midnightblue" d="M866.73,-313.44C890.02,-283.79 967.48,-185.17 998.75,-145.37"/>
<polygon fill="midnightblue" stroke="midnightblue" points="1001.58,-147.43 1005,-137.41 996.07,-143.11 1001.58,-147.43"/>
</g>
<!-- Node34&#45;&gt;Node2 -->
<g id="edge81" class="edge">
<title>Node34&#45;&gt;Node2</title>
<path fill="none" stroke="midnightblue" d="M380.64,-184.85C364.67,-175.86 340.32,-160.65 323,-143 290.62,-110.01 302.56,-84.29 266,-56 239.21,-35.27 202.33,-23.79 174.19,-17.62"/>
<polygon fill="midnightblue" stroke="midnightblue" points="174.76,-14.17 164.26,-15.58 173.35,-21.02 174.76,-14.17"/>
</g>
<!-- Node34&#45;&gt;Node12 -->
<g id="edge84" class="edge">
<title>Node34&#45;&gt;Node12</title>
<path fill="none" stroke="midnightblue" d="M394.71,-184.73C392.18,-175.09 388.06,-159.3 384.81,-146.91"/>
<polygon fill="midnightblue" stroke="midnightblue" points="388.17,-145.92 382.26,-137.13 381.4,-147.69 388.17,-145.92"/>
</g>
<!-- Node34&#45;&gt;Node13 -->
<g id="edge85" class="edge">
<title>Node34&#45;&gt;Node13</title>
<path fill="none" stroke="midnightblue" d="M373.76,-184.99C351.31,-176.21 316.84,-161.25 290,-143 264.47,-125.64 239.2,-100.27 223.84,-83.7"/>
<polygon fill="midnightblue" stroke="midnightblue" points="226.08,-80.96 216.76,-75.92 220.91,-85.67 226.08,-80.96"/>
</g>
<!-- Node34&#45;&gt;Node18 -->
<g id="edge82" class="edge">
<title>Node34&#45;&gt;Node18</title>
<path fill="none" stroke="midnightblue" d="M419.84,-184.87C445.87,-175.03 489.11,-158.69 522.35,-146.13"/>
<polygon fill="midnightblue" stroke="midnightblue" points="523.76,-149.34 531.88,-142.53 521.29,-142.79 523.76,-149.34"/>
</g>
<!-- Node34&#45;&gt;Node21 -->
<g id="edge83" class="edge">
<title>Node34&#45;&gt;Node21</title>
<path fill="none" stroke="midnightblue" d="M462.18,-189.43C652.86,-177.54 1207.28,-142.95 1384.12,-131.92"/>
<polygon fill="midnightblue" stroke="midnightblue" points="1384.47,-135.41 1394.23,-131.29 1384.03,-128.42 1384.47,-135.41"/>
</g>
</g>
</svg>
