<?xml version="1.0" encoding="UTF-8" standalone="no"?>
<!DOCTYPE svg PUBLIC "-//W3C//DTD SVG 1.1//EN"
 "http://www.w3.org/Graphics/SVG/1.1/DTD/svg11.dtd">
<!-- Generated by graphviz version 2.49.3 (20211027.1534)
 -->
<!-- Title: include/cppgc/trace&#45;trait.h Pages: 1 -->
<svg width="903pt" height="564pt"
 viewBox="0.00 0.00 902.64 564.00" xmlns="http://www.w3.org/2000/svg" xmlns:xlink="http://www.w3.org/1999/xlink">
<g id="graph0" class="graph" transform="scale(1 1) rotate(0) translate(4 560)">
<title>include/cppgc/trace&#45;trait.h</title>
<polygon fill="white" stroke="transparent" points="-4,4 -4,-560 898.64,-560 898.64,4 -4,4"/>
<!-- Node1 -->
<g id="node1" class="node">
<title>Node1</title>
<g id="a_node1"><a xlink:title=" ">
<polygon fill="#bfbfbf" stroke="black" points="276.14,-525.5 276.14,-555.5 377.14,-555.5 377.14,-525.5 276.14,-525.5"/>
<text text-anchor="start" x="284.14" y="-543.5" font-family="Helvetica,sans-Serif" font-size="10.00">include/cppgc/trace</text>
<text text-anchor="middle" x="326.64" y="-532.5" font-family="Helvetica,sans-Serif" font-size="10.00">&#45;trait.h</text>
</a>
</g>
</g>
<!-- Node2 -->
<g id="node2" class="node">
<title>Node2</title>
<g id="a_node2"><a xlink:href="garbage-collected_8h.html" target="_top" xlink:title=" ">
<polygon fill="white" stroke="black" points="152.64,-257.5 152.64,-287.5 266.64,-287.5 266.64,-257.5 152.64,-257.5"/>
<text text-anchor="start" x="160.64" y="-275.5" font-family="Helvetica,sans-Serif" font-size="10.00">include/cppgc/garbage</text>
<text text-anchor="middle" x="209.64" y="-264.5" font-family="Helvetica,sans-Serif" font-size="10.00">&#45;collected.h</text>
</a>
</g>
</g>
<!-- Node1&#45;&gt;Node2 -->
<g id="edge1" class="edge">
<title>Node1&#45;&gt;Node2</title>
<path fill="none" stroke="midnightblue" d="M324.6,-514.88C322.72,-498.42 319.17,-476.48 312.64,-458 288.56,-389.86 240.55,-317.33 219.69,-287.52"/>
<polygon fill="midnightblue" stroke="midnightblue" points="321.17,-515.7 325.66,-525.29 328.13,-514.99 321.17,-515.7"/>
</g>
<!-- Node3 -->
<g id="node3" class="node">
<title>Node3</title>
<g id="a_node3"><a xlink:href="visitor_8h.html" target="_top" xlink:title=" ">
<polygon fill="white" stroke="black" points="324.14,-129 324.14,-148 437.14,-148 437.14,-129 324.14,-129"/>
<text text-anchor="middle" x="380.64" y="-136" font-family="Helvetica,sans-Serif" font-size="10.00">include/cppgc/visitor.h</text>
</a>
</g>
</g>
<!-- Node1&#45;&gt;Node3 -->
<g id="edge32" class="edge">
<title>Node1&#45;&gt;Node3</title>
<path fill="none" stroke="midnightblue" d="M266.22,-526.98C206.7,-510.7 124.64,-475.86 124.64,-407.5 124.64,-407.5 124.64,-407.5 124.64,-338.5 124.64,-301.31 121.66,-287 143.64,-257 190.87,-192.54 283.38,-161.42 337.81,-148.1"/>
<polygon fill="midnightblue" stroke="midnightblue" points="265.37,-530.38 275.93,-529.53 267.14,-523.61 265.37,-530.38"/>
</g>
<!-- Node7 -->
<g id="node7" class="node">
<title>Node7</title>
<g id="a_node7"><a xlink:href="heap-consistency_8h.html" target="_top" xlink:title=" ">
<polygon fill="white" stroke="black" points="647.14,-391.5 647.14,-421.5 748.14,-421.5 748.14,-391.5 647.14,-391.5"/>
<text text-anchor="start" x="655.14" y="-409.5" font-family="Helvetica,sans-Serif" font-size="10.00">include/cppgc/heap</text>
<text text-anchor="middle" x="697.64" y="-398.5" font-family="Helvetica,sans-Serif" font-size="10.00">&#45;consistency.h</text>
</a>
</g>
</g>
<!-- Node1&#45;&gt;Node7 -->
<g id="edge7" class="edge">
<title>Node1&#45;&gt;Node7</title>
<path fill="none" stroke="midnightblue" d="M387.52,-539.77C449.15,-537.66 545.54,-527.63 618.64,-489 649.3,-472.8 675.15,-440.35 688.3,-421.66"/>
<polygon fill="midnightblue" stroke="midnightblue" points="387.08,-536.28 377.18,-540.07 387.27,-543.28 387.08,-536.28"/>
</g>
<!-- Node8 -->
<g id="node8" class="node">
<title>Node8</title>
<g id="a_node8"><a xlink:href="gc-info_8h.html" target="_top" xlink:title=" ">
<polygon fill="white" stroke="black" points="750.14,-458.5 750.14,-488.5 861.14,-488.5 861.14,-458.5 750.14,-458.5"/>
<text text-anchor="start" x="758.14" y="-476.5" font-family="Helvetica,sans-Serif" font-size="10.00">include/cppgc/internal</text>
<text text-anchor="middle" x="805.64" y="-465.5" font-family="Helvetica,sans-Serif" font-size="10.00">/gc&#45;info.h</text>
</a>
</g>
</g>
<!-- Node1&#45;&gt;Node8 -->
<g id="edge8" class="edge">
<title>Node1&#45;&gt;Node8</title>
<path fill="none" stroke="midnightblue" d="M387.62,-531.22C481.33,-518.51 659.36,-494.35 749.84,-482.07"/>
<polygon fill="midnightblue" stroke="midnightblue" points="386.89,-527.79 377.45,-532.61 387.83,-534.73 386.89,-527.79"/>
</g>
<!-- Node11 -->
<g id="node11" class="node">
<title>Node11</title>
<g id="a_node11"><a xlink:href="persistent-node_8h.html" target="_top" xlink:title=" ">
<polygon fill="white" stroke="black" points="44.14,-123.5 44.14,-153.5 155.14,-153.5 155.14,-123.5 44.14,-123.5"/>
<text text-anchor="start" x="52.14" y="-141.5" font-family="Helvetica,sans-Serif" font-size="10.00">include/cppgc/internal</text>
<text text-anchor="middle" x="99.64" y="-130.5" font-family="Helvetica,sans-Serif" font-size="10.00">/persistent&#45;node.h</text>
</a>
</g>
</g>
<!-- Node1&#45;&gt;Node11 -->
<g id="edge11" class="edge">
<title>Node1&#45;&gt;Node11</title>
<path fill="none" stroke="midnightblue" d="M266.07,-527.86C171.79,-508 0.64,-464.13 0.64,-407.5 0.64,-407.5 0.64,-407.5 0.64,-271.5 0.64,-234.31 -1.92,-220.31 19.64,-190 31.07,-173.94 49.36,-161.84 65.57,-153.52"/>
<polygon fill="midnightblue" stroke="midnightblue" points="265.56,-531.33 276.06,-529.94 266.98,-524.48 265.56,-531.33"/>
</g>
<!-- Node12 -->
<g id="node12" class="node">
<title>Node12</title>
<g id="a_node12"><a xlink:href="write-barrier_8h.html" target="_top" xlink:title=" ">
<polygon fill="white" stroke="black" points="499.14,-458.5 499.14,-488.5 610.14,-488.5 610.14,-458.5 499.14,-458.5"/>
<text text-anchor="start" x="507.14" y="-476.5" font-family="Helvetica,sans-Serif" font-size="10.00">include/cppgc/internal</text>
<text text-anchor="middle" x="554.64" y="-465.5" font-family="Helvetica,sans-Serif" font-size="10.00">/write&#45;barrier.h</text>
</a>
</g>
</g>
<!-- Node1&#45;&gt;Node12 -->
<g id="edge14" class="edge">
<title>Node1&#45;&gt;Node12</title>
<path fill="none" stroke="midnightblue" d="M385.52,-522.71C422.62,-512.14 469.98,-498.63 505.14,-488.61"/>
<polygon fill="midnightblue" stroke="midnightblue" points="384.49,-519.37 375.83,-525.48 386.41,-526.1 384.49,-519.37"/>
</g>
<!-- Node16 -->
<g id="node16" class="node">
<title>Node16</title>
<g id="a_node16"><a xlink:href="liveness-broker_8h.html" target="_top" xlink:title=" ">
<polygon fill="white" stroke="black" points="284.64,-257.5 284.64,-287.5 400.64,-287.5 400.64,-257.5 284.64,-257.5"/>
<text text-anchor="start" x="292.64" y="-275.5" font-family="Helvetica,sans-Serif" font-size="10.00">include/cppgc/liveness</text>
<text text-anchor="middle" x="342.64" y="-264.5" font-family="Helvetica,sans-Serif" font-size="10.00">&#45;broker.h</text>
</a>
</g>
</g>
<!-- Node1&#45;&gt;Node16 -->
<g id="edge31" class="edge">
<title>Node1&#45;&gt;Node16</title>
<path fill="none" stroke="midnightblue" d="M318.53,-515.38C316.13,-507.12 313.83,-497.75 312.64,-489 302.3,-413.02 327.22,-322.03 337.99,-287.62"/>
<polygon fill="midnightblue" stroke="midnightblue" points="315.24,-516.61 321.54,-525.13 321.93,-514.54 315.24,-516.61"/>
</g>
<!-- Node2&#45;&gt;Node3 -->
<g id="edge2" class="edge">
<title>Node2&#45;&gt;Node3</title>
<path fill="none" stroke="midnightblue" d="M229.28,-250.07C245.77,-232.74 270.46,-208.29 294.64,-190 317.01,-173.08 345.51,-157.35 363.42,-148.08"/>
<polygon fill="midnightblue" stroke="midnightblue" points="226.61,-247.8 222.31,-257.49 231.71,-252.6 226.61,-247.8"/>
</g>
<!-- Node4 -->
<g id="node4" class="node">
<title>Node4</title>
<g id="a_node4"><a xlink:href="cross-thread-persistent_8h.html" target="_top" xlink:title=" ">
<polygon fill="white" stroke="black" points="327.64,-0.5 327.64,-30.5 431.64,-30.5 431.64,-0.5 327.64,-0.5"/>
<text text-anchor="start" x="335.64" y="-18.5" font-family="Helvetica,sans-Serif" font-size="10.00">include/cppgc/cross</text>
<text text-anchor="middle" x="379.64" y="-7.5" font-family="Helvetica,sans-Serif" font-size="10.00">&#45;thread&#45;persistent.h</text>
</a>
</g>
</g>
<!-- Node3&#45;&gt;Node4 -->
<g id="edge3" class="edge">
<title>Node3&#45;&gt;Node4</title>
<path fill="none" stroke="midnightblue" d="M393.66,-120.37C402.76,-106.31 412.49,-85.74 407.64,-67 404.23,-53.8 396.54,-40.37 390.08,-30.69"/>
<polygon fill="midnightblue" stroke="midnightblue" points="390.78,-118.38 387.93,-128.59 396.52,-122.39 390.78,-118.38"/>
</g>
<!-- Node5 -->
<g id="node5" class="node">
<title>Node5</title>
<g id="a_node5"><a xlink:href="persistent_8h.html" target="_top" xlink:title=" ">
<polygon fill="white" stroke="black" points="268.64,-67.5 268.64,-86.5 398.64,-86.5 398.64,-67.5 268.64,-67.5"/>
<text text-anchor="middle" x="333.64" y="-74.5" font-family="Helvetica,sans-Serif" font-size="10.00">include/cppgc/persistent.h</text>
</a>
</g>
</g>
<!-- Node3&#45;&gt;Node5 -->
<g id="edge4" class="edge">
<title>Node3&#45;&gt;Node5</title>
<path fill="none" stroke="midnightblue" d="M367.48,-120.84C358.66,-109.67 347.41,-95.43 340.36,-86.51"/>
<polygon fill="midnightblue" stroke="midnightblue" points="364.96,-123.3 373.91,-128.98 370.45,-118.96 364.96,-123.3"/>
</g>
<!-- Node6 -->
<g id="node6" class="node">
<title>Node6</title>
<g id="a_node6"><a xlink:href="v8-cppgc_8h.html" target="_top" xlink:title=" ">
<polygon fill="white" stroke="black" points="608.64,-67.5 608.64,-86.5 706.64,-86.5 706.64,-67.5 608.64,-67.5"/>
<text text-anchor="middle" x="657.64" y="-74.5" font-family="Helvetica,sans-Serif" font-size="10.00">include/v8&#45;cppgc.h</text>
</a>
</g>
</g>
<!-- Node3&#45;&gt;Node6 -->
<g id="edge6" class="edge">
<title>Node3&#45;&gt;Node6</title>
<path fill="none" stroke="midnightblue" d="M430.31,-126.83C484.03,-115.29 568.59,-97.13 618.03,-86.51"/>
<polygon fill="midnightblue" stroke="midnightblue" points="429.37,-123.45 420.33,-128.98 430.84,-130.3 429.37,-123.45"/>
</g>
<!-- Node5&#45;&gt;Node4 -->
<g id="edge5" class="edge">
<title>Node5&#45;&gt;Node4</title>
<path fill="none" stroke="midnightblue" d="M346.37,-59.53C353.42,-50.42 362.08,-39.21 368.8,-30.52"/>
<polygon fill="midnightblue" stroke="midnightblue" points="343.58,-57.42 340.23,-67.48 349.12,-61.7 343.58,-57.42"/>
</g>
<!-- Node9 -->
<g id="node9" class="node">
<title>Node9</title>
<g id="a_node9"><a xlink:href="allocation_8h.html" target="_top" xlink:title=" ">
<polygon fill="white" stroke="black" points="766.64,-397 766.64,-416 894.64,-416 894.64,-397 766.64,-397"/>
<text text-anchor="middle" x="830.64" y="-404" font-family="Helvetica,sans-Serif" font-size="10.00">include/cppgc/allocation.h</text>
</a>
</g>
</g>
<!-- Node8&#45;&gt;Node9 -->
<g id="edge9" class="edge">
<title>Node8&#45;&gt;Node9</title>
<path fill="none" stroke="midnightblue" d="M814.7,-448.94C819.09,-437.54 824.08,-424.55 827.3,-416.19"/>
<polygon fill="midnightblue" stroke="midnightblue" points="811.39,-447.81 811.07,-458.4 817.92,-450.32 811.39,-447.81"/>
</g>
<!-- Node10 -->
<g id="node10" class="node">
<title>Node10</title>
<g id="a_node10"><a xlink:href="explicit-management_8h.html" target="_top" xlink:title=" ">
<polygon fill="white" stroke="black" points="775.64,-324.5 775.64,-354.5 885.64,-354.5 885.64,-324.5 775.64,-324.5"/>
<text text-anchor="start" x="783.64" y="-342.5" font-family="Helvetica,sans-Serif" font-size="10.00">include/cppgc/explicit</text>
<text text-anchor="middle" x="830.64" y="-331.5" font-family="Helvetica,sans-Serif" font-size="10.00">&#45;management.h</text>
</a>
</g>
</g>
<!-- Node9&#45;&gt;Node10 -->
<g id="edge10" class="edge">
<title>Node9&#45;&gt;Node10</title>
<path fill="none" stroke="midnightblue" d="M830.64,-386.41C830.64,-376.22 830.64,-363.9 830.64,-354.59"/>
<polygon fill="midnightblue" stroke="midnightblue" points="827.14,-386.73 830.64,-396.73 834.14,-386.73 827.14,-386.73"/>
</g>
<!-- Node11&#45;&gt;Node4 -->
<g id="edge12" class="edge">
<title>Node11&#45;&gt;Node4</title>
<path fill="none" stroke="midnightblue" d="M140.69,-119.19C172.97,-104.84 219.09,-84.46 259.64,-67 288.6,-54.53 321.63,-40.65 345.7,-30.61"/>
<polygon fill="midnightblue" stroke="midnightblue" points="138.86,-116.17 131.15,-123.43 141.7,-122.57 138.86,-116.17"/>
</g>
<!-- Node11&#45;&gt;Node5 -->
<g id="edge13" class="edge">
<title>Node11&#45;&gt;Node5</title>
<path fill="none" stroke="midnightblue" d="M164.56,-120.99C208.58,-109.8 264.95,-95.47 300.19,-86.51"/>
<polygon fill="midnightblue" stroke="midnightblue" points="163.63,-117.62 154.8,-123.47 165.35,-124.4 163.63,-117.62"/>
</g>
<!-- Node12&#45;&gt;Node6 -->
<g id="edge30" class="edge">
<title>Node12&#45;&gt;Node6</title>
<path fill="none" stroke="midnightblue" d="M577.18,-451.24C584.99,-442.8 593.15,-432.59 598.64,-422 615.82,-388.9 618.64,-377.8 618.64,-340.5 618.64,-340.5 618.64,-340.5 618.64,-204.5 618.64,-158.31 642.68,-106.67 653.01,-86.61"/>
<polygon fill="midnightblue" stroke="midnightblue" points="574.65,-448.83 570.2,-458.45 579.68,-453.7 574.65,-448.83"/>
</g>
<!-- Node12&#45;&gt;Node7 -->
<g id="edge15" class="edge">
<title>Node12&#45;&gt;Node7</title>
<path fill="none" stroke="midnightblue" d="M595.05,-454.13C617.77,-443.8 645.7,-431.11 666.67,-421.58"/>
<polygon fill="midnightblue" stroke="midnightblue" points="593.32,-451.07 585.67,-458.4 596.22,-457.44 593.32,-451.07"/>
</g>
<!-- Node13 -->
<g id="node13" class="node">
<title>Node13</title>
<g id="a_node13"><a xlink:href="pointer-policies_8h.html" target="_top" xlink:title=" ">
<polygon fill="white" stroke="black" points="479.14,-391.5 479.14,-421.5 590.14,-421.5 590.14,-391.5 479.14,-391.5"/>
<text text-anchor="start" x="487.14" y="-409.5" font-family="Helvetica,sans-Serif" font-size="10.00">include/cppgc/internal</text>
<text text-anchor="middle" x="534.64" y="-398.5" font-family="Helvetica,sans-Serif" font-size="10.00">/pointer&#45;policies.h</text>
</a>
</g>
</g>
<!-- Node12&#45;&gt;Node13 -->
<g id="edge16" class="edge">
<title>Node12&#45;&gt;Node13</title>
<path fill="none" stroke="midnightblue" d="M547.32,-448.7C544.51,-439.59 541.41,-429.49 538.97,-421.58"/>
<polygon fill="midnightblue" stroke="midnightblue" points="544.01,-449.87 550.3,-458.4 550.7,-447.81 544.01,-449.87"/>
</g>
<!-- Node13&#45;&gt;Node3 -->
<g id="edge29" class="edge">
<title>Node13&#45;&gt;Node3</title>
<path fill="none" stroke="midnightblue" d="M529.26,-381.64C517.75,-332.14 489.8,-220.35 465.64,-190 449.71,-169.99 423.53,-156.17 404.43,-148.1"/>
<polygon fill="midnightblue" stroke="midnightblue" points="525.87,-382.52 531.52,-391.48 532.69,-380.95 525.87,-382.52"/>
</g>
<!-- Node13&#45;&gt;Node4 -->
<g id="edge17" class="edge">
<title>Node13&#45;&gt;Node4</title>
<path fill="none" stroke="midnightblue" d="M547.96,-382.47C561.55,-356.77 580.64,-313.53 580.64,-273.5 580.64,-273.5 580.64,-273.5 580.64,-137.5 580.64,-67.95 491.22,-37.35 431.66,-24.68"/>
<polygon fill="midnightblue" stroke="midnightblue" points="544.8,-380.96 543.08,-391.41 550.94,-384.31 544.8,-380.96"/>
</g>
<!-- Node13&#45;&gt;Node5 -->
<g id="edge28" class="edge">
<title>Node13&#45;&gt;Node5</title>
<path fill="none" stroke="midnightblue" d="M537.01,-381.02C539.37,-354.54 542.64,-311.07 542.64,-273.5 542.64,-273.5 542.64,-273.5 542.64,-204.5 542.64,-131.87 449.12,-99.8 387.19,-86.53"/>
<polygon fill="midnightblue" stroke="midnightblue" points="533.5,-380.98 536.07,-391.26 540.47,-381.62 533.5,-380.98"/>
</g>
<!-- Node14 -->
<g id="node14" class="node">
<title>Node14</title>
<g id="a_node14"><a xlink:href="member_8h.html" target="_top" xlink:title=" ">
<polygon fill="white" stroke="black" points="354.64,-330 354.64,-349 476.64,-349 476.64,-330 354.64,-330"/>
<text text-anchor="middle" x="415.64" y="-337" font-family="Helvetica,sans-Serif" font-size="10.00">include/cppgc/member.h</text>
</a>
</g>
</g>
<!-- Node13&#45;&gt;Node14 -->
<g id="edge18" class="edge">
<title>Node13&#45;&gt;Node14</title>
<path fill="none" stroke="midnightblue" d="M499.81,-386.47C477.09,-374.06 448.54,-358.47 431.21,-349.01"/>
<polygon fill="midnightblue" stroke="midnightblue" points="498.37,-389.67 508.82,-391.4 501.72,-383.53 498.37,-389.67"/>
</g>
<!-- Node14&#45;&gt;Node3 -->
<g id="edge27" class="edge">
<title>Node14&#45;&gt;Node3</title>
<path fill="none" stroke="midnightblue" d="M426.4,-321.14C442.7,-292.44 469.53,-233.92 447.64,-190 437.83,-170.32 416.28,-156.28 400.26,-148.08"/>
<polygon fill="midnightblue" stroke="midnightblue" points="423.25,-319.58 421.17,-329.97 429.28,-323.15 423.25,-319.58"/>
</g>
<!-- Node15 -->
<g id="node15" class="node">
<title>Node15</title>
<g id="a_node15"><a xlink:href="ephemeron-pair_8h.html" target="_top" xlink:title=" ">
<polygon fill="white" stroke="black" points="310.64,-190.5 310.64,-220.5 438.64,-220.5 438.64,-190.5 310.64,-190.5"/>
<text text-anchor="start" x="318.64" y="-208.5" font-family="Helvetica,sans-Serif" font-size="10.00">include/cppgc/ephemeron</text>
<text text-anchor="middle" x="374.64" y="-197.5" font-family="Helvetica,sans-Serif" font-size="10.00">&#45;pair.h</text>
</a>
</g>
</g>
<!-- Node14&#45;&gt;Node15 -->
<g id="edge19" class="edge">
<title>Node14&#45;&gt;Node15</title>
<path fill="none" stroke="midnightblue" d="M417.02,-319.39C417.6,-302.5 416.86,-277.43 409.64,-257 404.88,-243.52 395.51,-230.32 387.67,-220.79"/>
<polygon fill="midnightblue" stroke="midnightblue" points="413.52,-319.45 416.48,-329.63 420.51,-319.83 413.52,-319.45"/>
</g>
<!-- Node14&#45;&gt;Node16 -->
<g id="edge21" class="edge">
<title>Node14&#45;&gt;Node16</title>
<path fill="none" stroke="midnightblue" d="M398.15,-322.93C386.08,-312.18 370.16,-298 358.46,-287.59"/>
<polygon fill="midnightblue" stroke="midnightblue" points="396,-325.7 405.8,-329.73 400.65,-320.47 396,-325.7"/>
</g>
<!-- Node15&#45;&gt;Node3 -->
<g id="edge20" class="edge">
<title>Node15&#45;&gt;Node3</title>
<path fill="none" stroke="midnightblue" d="M376.88,-180.25C377.92,-169.02 379.08,-156.38 379.84,-148.19"/>
<polygon fill="midnightblue" stroke="midnightblue" points="373.38,-180.12 375.94,-190.4 380.35,-180.76 373.38,-180.12"/>
</g>
<!-- Node16&#45;&gt;Node3 -->
<g id="edge26" class="edge">
<title>Node16&#45;&gt;Node3</title>
<path fill="none" stroke="midnightblue" d="M319.53,-249.67C304.93,-233.13 290.72,-209.94 301.64,-190 312.98,-169.3 336.82,-155.85 355.36,-148.07"/>
<polygon fill="midnightblue" stroke="midnightblue" points="317.21,-252.32 326.61,-257.21 322.31,-247.53 317.21,-252.32"/>
</g>
<!-- Node16&#45;&gt;Node15 -->
<g id="edge22" class="edge">
<title>Node16&#45;&gt;Node15</title>
<path fill="none" stroke="midnightblue" d="M354.07,-248.28C358.63,-239.02 363.73,-228.66 367.71,-220.58"/>
<polygon fill="midnightblue" stroke="midnightblue" points="350.86,-246.88 349.58,-257.4 357.14,-249.97 350.86,-246.88"/>
</g>
<!-- Node17 -->
<g id="node17" class="node">
<title>Node17</title>
<g id="a_node17"><a xlink:href="prefinalizer-handler_8h.html" target="_top" xlink:title=" ">
<polygon fill="white" stroke="black" points="29.14,-190.5 29.14,-220.5 140.14,-220.5 140.14,-190.5 29.14,-190.5"/>
<text text-anchor="start" x="37.14" y="-208.5" font-family="Helvetica,sans-Serif" font-size="10.00">include/cppgc/internal</text>
<text text-anchor="middle" x="84.64" y="-197.5" font-family="Helvetica,sans-Serif" font-size="10.00">/prefinalizer&#45;handler.h</text>
</a>
</g>
</g>
<!-- Node16&#45;&gt;Node17 -->
<g id="edge23" class="edge">
<title>Node16&#45;&gt;Node17</title>
<path fill="none" stroke="midnightblue" d="M277.05,-254.98C234.76,-244.32 180.36,-230.62 140.21,-220.5"/>
<polygon fill="midnightblue" stroke="midnightblue" points="276.42,-258.43 286.98,-257.48 278.13,-251.64 276.42,-258.43"/>
</g>
<!-- Node18 -->
<g id="node18" class="node">
<title>Node18</title>
<g id="a_node18"><a xlink:href="prefinalizer_8h.html" target="_top" xlink:title=" ">
<polygon fill="white" stroke="black" points="173.14,-129 173.14,-148 306.14,-148 306.14,-129 173.14,-129"/>
<text text-anchor="middle" x="239.64" y="-136" font-family="Helvetica,sans-Serif" font-size="10.00">include/cppgc/prefinalizer.h</text>
</a>
</g>
</g>
<!-- Node16&#45;&gt;Node18 -->
<g id="edge25" class="edge">
<title>Node16&#45;&gt;Node18</title>
<path fill="none" stroke="midnightblue" d="M320.96,-250.28C312.41,-241.52 302.73,-231.06 294.64,-221 274.54,-195.98 254.3,-163.76 244.97,-148.4"/>
<polygon fill="midnightblue" stroke="midnightblue" points="318.59,-252.86 328.11,-257.5 323.56,-247.93 318.59,-252.86"/>
</g>
<!-- Node17&#45;&gt;Node18 -->
<g id="edge24" class="edge">
<title>Node17&#45;&gt;Node18</title>
<path fill="none" stroke="midnightblue" d="M127.66,-186.46C157.61,-173.9 196.18,-157.72 219.35,-148.01"/>
<polygon fill="midnightblue" stroke="midnightblue" points="126.14,-183.3 118.27,-190.4 128.85,-189.76 126.14,-183.3"/>
</g>
</g>
</svg>
