<?xml version="1.0" encoding="UTF-8" standalone="no"?>
<!DOCTYPE svg PUBLIC "-//W3C//DTD SVG 1.1//EN"
 "http://www.w3.org/Graphics/SVG/1.1/DTD/svg11.dtd">
<!-- Generated by graphviz version 2.49.3 (20211027.1534)
 -->
<!-- Title: include/v8&#45;fast&#45;api&#45;calls.h Pages: 1 -->
<svg width="938pt" height="207pt"
 viewBox="0.00 0.00 937.50 207.00" xmlns="http://www.w3.org/2000/svg" xmlns:xlink="http://www.w3.org/1999/xlink">
<g id="graph0" class="graph" transform="scale(1 1) rotate(0) translate(4 203)">
<title>include/v8&#45;fast&#45;api&#45;calls.h</title>
<polygon fill="white" stroke="transparent" points="-4,4 -4,-203 933.5,-203 933.5,4 -4,4"/>
<!-- Node1 -->
<g id="node1" class="node">
<title>Node1</title>
<g id="a_node1"><a xlink:title=" ">
<polygon fill="#bfbfbf" stroke="black" points="359.5,-168.5 359.5,-198.5 455.5,-198.5 455.5,-168.5 359.5,-168.5"/>
<text text-anchor="start" x="367.5" y="-186.5" font-family="Helvetica,sans-Serif" font-size="10.00">include/v8&#45;fast&#45;api</text>
<text text-anchor="middle" x="407.5" y="-175.5" font-family="Helvetica,sans-Serif" font-size="10.00">&#45;calls.h</text>
</a>
</g>
</g>
<!-- Node2 -->
<g id="node2" class="node">
<title>Node2</title>
<g id="a_node2"><a xlink:title=" ">
<polygon fill="white" stroke="#bfbfbf" points="0,-0.5 0,-19.5 51,-19.5 51,-0.5 0,-0.5"/>
<text text-anchor="middle" x="25.5" y="-7.5" font-family="Helvetica,sans-Serif" font-size="10.00">stddef.h</text>
</a>
</g>
</g>
<!-- Node1&#45;&gt;Node2 -->
<g id="edge1" class="edge">
<title>Node1&#45;&gt;Node2</title>
<path fill="none" stroke="midnightblue" d="M359.3,-182.35C303,-180.24 208.67,-170.57 138.5,-132 92.29,-106.6 54.27,-55.46 36.44,-28.52"/>
<polygon fill="midnightblue" stroke="midnightblue" points="39.17,-26.29 30.81,-19.78 33.29,-30.08 39.17,-26.29"/>
</g>
<!-- Node3 -->
<g id="node3" class="node">
<title>Node3</title>
<g id="a_node3"><a xlink:title=" ">
<polygon fill="white" stroke="#bfbfbf" points="763.5,-0.5 763.5,-19.5 811.5,-19.5 811.5,-0.5 763.5,-0.5"/>
<text text-anchor="middle" x="787.5" y="-7.5" font-family="Helvetica,sans-Serif" font-size="10.00">stdint.h</text>
</a>
</g>
</g>
<!-- Node1&#45;&gt;Node3 -->
<g id="edge2" class="edge">
<title>Node1&#45;&gt;Node3</title>
<path fill="none" stroke="midnightblue" d="M455.58,-180.32C515.02,-176.27 618.39,-164.73 700.5,-132 742.18,-115.38 762.42,-115.06 784.5,-76 792.4,-62.02 792.45,-43.51 790.93,-29.83"/>
<polygon fill="midnightblue" stroke="midnightblue" points="794.36,-29.05 789.43,-19.67 787.43,-30.07 794.36,-29.05"/>
</g>
<!-- Node4 -->
<g id="node4" class="node">
<title>Node4</title>
<g id="a_node4"><a xlink:title=" ">
<polygon fill="white" stroke="#bfbfbf" points="891.5,-112.5 891.5,-131.5 929.5,-131.5 929.5,-112.5 891.5,-112.5"/>
<text text-anchor="middle" x="910.5" y="-119.5" font-family="Helvetica,sans-Serif" font-size="10.00">tuple</text>
</a>
</g>
</g>
<!-- Node1&#45;&gt;Node4 -->
<g id="edge3" class="edge">
<title>Node1&#45;&gt;Node4</title>
<path fill="none" stroke="midnightblue" d="M455.57,-179.87C541.06,-174.63 724.89,-160.82 877.5,-132 878.78,-131.76 880.08,-131.49 881.4,-131.21"/>
<polygon fill="midnightblue" stroke="midnightblue" points="882.54,-134.53 891.43,-128.76 880.88,-127.73 882.54,-134.53"/>
</g>
<!-- Node5 -->
<g id="node5" class="node">
<title>Node5</title>
<g id="a_node5"><a xlink:title=" ">
<polygon fill="white" stroke="#bfbfbf" points="69.5,-0.5 69.5,-19.5 131.5,-19.5 131.5,-0.5 69.5,-0.5"/>
<text text-anchor="middle" x="100.5" y="-7.5" font-family="Helvetica,sans-Serif" font-size="10.00">type_traits</text>
</a>
</g>
</g>
<!-- Node1&#45;&gt;Node5 -->
<g id="edge4" class="edge">
<title>Node1&#45;&gt;Node5</title>
<path fill="none" stroke="midnightblue" d="M359.44,-181.35C290.05,-176.8 163.55,-157.14 103.5,-76 93.74,-62.82 94.09,-43.68 96.22,-29.58"/>
<polygon fill="midnightblue" stroke="midnightblue" points="99.69,-30.05 98.14,-19.57 92.82,-28.73 99.69,-30.05"/>
</g>
<!-- Node6 -->
<g id="node6" class="node">
<title>Node6</title>
<g id="a_node6"><a xlink:href="v8-internal_8h.html" target="_top" xlink:title=" ">
<polygon fill="white" stroke="black" points="129,-56.5 129,-75.5 198,-75.5 198,-56.5 129,-56.5"/>
<text text-anchor="middle" x="163.5" y="-63.5" font-family="Helvetica,sans-Serif" font-size="10.00">v8&#45;internal.h</text>
</a>
</g>
</g>
<!-- Node1&#45;&gt;Node6 -->
<g id="edge5" class="edge">
<title>Node1&#45;&gt;Node6</title>
<path fill="none" stroke="midnightblue" d="M377.58,-168.34C329.7,-145.67 236.59,-101.6 190.57,-79.82"/>
<polygon fill="midnightblue" stroke="midnightblue" points="192.04,-76.64 181.5,-75.52 189.04,-82.96 192.04,-76.64"/>
</g>
<!-- Node9 -->
<g id="node9" class="node">
<title>Node9</title>
<g id="a_node9"><a xlink:href="v8config_8h.html" target="_top" xlink:title=" ">
<polygon fill="white" stroke="black" points="503.5,-0.5 503.5,-19.5 563.5,-19.5 563.5,-0.5 503.5,-0.5"/>
<text text-anchor="middle" x="533.5" y="-7.5" font-family="Helvetica,sans-Serif" font-size="10.00">v8config.h</text>
</a>
</g>
</g>
<!-- Node1&#45;&gt;Node9 -->
<g id="edge27" class="edge">
<title>Node1&#45;&gt;Node9</title>
<path fill="none" stroke="midnightblue" d="M455.82,-175.45C545.22,-161.3 730.79,-126.44 768.5,-76 773.82,-68.88 774.16,-62.85 768.5,-56 744.28,-26.7 634.59,-16.3 574.01,-12.74"/>
<polygon fill="midnightblue" stroke="midnightblue" points="573.83,-9.23 563.66,-12.18 573.45,-16.22 573.83,-9.23"/>
</g>
<!-- Node10 -->
<g id="node10" class="node">
<title>Node10</title>
<g id="a_node10"><a xlink:href="v8_8h.html" target="_top" xlink:title=" ">
<polygon fill="white" stroke="black" points="390,-112.5 390,-131.5 425,-131.5 425,-112.5 390,-112.5"/>
<text text-anchor="middle" x="407.5" y="-119.5" font-family="Helvetica,sans-Serif" font-size="10.00">v8.h</text>
</a>
</g>
</g>
<!-- Node1&#45;&gt;Node10 -->
<g id="edge12" class="edge">
<title>Node1&#45;&gt;Node10</title>
<path fill="none" stroke="midnightblue" d="M407.5,-168.4C407.5,-160.47 407.5,-150.46 407.5,-141.86"/>
<polygon fill="midnightblue" stroke="midnightblue" points="411,-141.66 407.5,-131.66 404,-141.66 411,-141.66"/>
</g>
<!-- Node6&#45;&gt;Node2 -->
<g id="edge6" class="edge">
<title>Node6&#45;&gt;Node2</title>
<path fill="none" stroke="midnightblue" d="M141.63,-56.44C118.72,-47.48 82.52,-33.31 56.63,-23.18"/>
<polygon fill="midnightblue" stroke="midnightblue" points="57.85,-19.9 47.26,-19.52 55.3,-26.42 57.85,-19.9"/>
</g>
<!-- Node6&#45;&gt;Node3 -->
<g id="edge7" class="edge">
<title>Node6&#45;&gt;Node3</title>
<path fill="none" stroke="midnightblue" d="M198.17,-57.34C200.98,-56.84 203.78,-56.39 206.5,-56 412.7,-26.56 663.01,-15.37 753.12,-12.11"/>
<polygon fill="midnightblue" stroke="midnightblue" points="753.43,-15.61 763.3,-11.76 753.19,-8.61 753.43,-15.61"/>
</g>
<!-- Node6&#45;&gt;Node5 -->
<g id="edge9" class="edge">
<title>Node6&#45;&gt;Node5</title>
<path fill="none" stroke="midnightblue" d="M153.38,-56.32C143.97,-48.26 129.76,-36.08 118.43,-26.37"/>
<polygon fill="midnightblue" stroke="midnightblue" points="120.68,-23.68 110.81,-19.83 116.12,-29 120.68,-23.68"/>
</g>
<!-- Node7 -->
<g id="node7" class="node">
<title>Node7</title>
<g id="a_node7"><a xlink:title=" ">
<polygon fill="white" stroke="#bfbfbf" points="149.5,-0.5 149.5,-19.5 197.5,-19.5 197.5,-0.5 149.5,-0.5"/>
<text text-anchor="middle" x="173.5" y="-7.5" font-family="Helvetica,sans-Serif" font-size="10.00">string.h</text>
</a>
</g>
</g>
<!-- Node6&#45;&gt;Node7 -->
<g id="edge8" class="edge">
<title>Node6&#45;&gt;Node7</title>
<path fill="none" stroke="midnightblue" d="M165.15,-56.08C166.48,-48.93 168.38,-38.64 170.04,-29.69"/>
<polygon fill="midnightblue" stroke="midnightblue" points="173.5,-30.22 171.88,-19.75 166.62,-28.95 173.5,-30.22"/>
</g>
<!-- Node8 -->
<g id="node8" class="node">
<title>Node8</title>
<g id="a_node8"><a xlink:href="v8-version_8h.html" target="_top" xlink:title=" ">
<polygon fill="white" stroke="black" points="268,-0.5 268,-19.5 337,-19.5 337,-0.5 268,-0.5"/>
<text text-anchor="middle" x="302.5" y="-7.5" font-family="Helvetica,sans-Serif" font-size="10.00">v8&#45;version.h</text>
</a>
</g>
</g>
<!-- Node6&#45;&gt;Node8 -->
<g id="edge10" class="edge">
<title>Node6&#45;&gt;Node8</title>
<path fill="none" stroke="midnightblue" d="M185.52,-56.44C208.6,-47.48 245.06,-33.31 271.14,-23.18"/>
<polygon fill="midnightblue" stroke="midnightblue" points="272.52,-26.4 280.58,-19.52 269.99,-19.88 272.52,-26.4"/>
</g>
<!-- Node6&#45;&gt;Node9 -->
<g id="edge11" class="edge">
<title>Node6&#45;&gt;Node9</title>
<path fill="none" stroke="midnightblue" d="M198.19,-57.52C201,-56.98 203.79,-56.47 206.5,-56 309.25,-38.2 431.15,-22.97 493.06,-15.65"/>
<polygon fill="midnightblue" stroke="midnightblue" points="493.66,-19.1 503.19,-14.46 492.85,-12.15 493.66,-19.1"/>
</g>
<!-- Node10&#45;&gt;Node2 -->
<g id="edge13" class="edge">
<title>Node10&#45;&gt;Node2</title>
<path fill="none" stroke="midnightblue" d="M389.78,-121.64C341.51,-122.7 204.55,-121.23 103.5,-76 78.25,-64.7 54.64,-42.83 40.16,-27.59"/>
<polygon fill="midnightblue" stroke="midnightblue" points="42.44,-24.9 33.09,-19.92 37.29,-29.65 42.44,-24.9"/>
</g>
<!-- Node10&#45;&gt;Node3 -->
<g id="edge14" class="edge">
<title>Node10&#45;&gt;Node3</title>
<path fill="none" stroke="midnightblue" d="M425.09,-121.27C490.12,-121.89 715.96,-120.73 768.5,-76 781.77,-64.7 786.04,-44.7 787.29,-29.86"/>
<polygon fill="midnightblue" stroke="midnightblue" points="790.79,-29.89 787.75,-19.74 783.8,-29.57 790.79,-29.89"/>
</g>
<!-- Node10&#45;&gt;Node5 -->
<g id="edge19" class="edge">
<title>Node10&#45;&gt;Node5</title>
<path fill="none" stroke="midnightblue" d="M389.68,-120.64C333.29,-119.14 160.09,-111.65 119.5,-76 106.41,-64.5 102.11,-44.53 100.81,-29.75"/>
<polygon fill="midnightblue" stroke="midnightblue" points="104.3,-29.5 100.3,-19.69 97.31,-29.85 104.3,-29.5"/>
</g>
<!-- Node10&#45;&gt;Node6 -->
<g id="edge24" class="edge">
<title>Node10&#45;&gt;Node6</title>
<path fill="none" stroke="midnightblue" d="M389.95,-117.12C352.28,-108.78 262.66,-88.94 208.13,-76.88"/>
<polygon fill="midnightblue" stroke="midnightblue" points="208.57,-73.39 198.05,-74.65 207.06,-80.22 208.57,-73.39"/>
</g>
<!-- Node10&#45;&gt;Node8 -->
<g id="edge25" class="edge">
<title>Node10&#45;&gt;Node8</title>
<path fill="none" stroke="midnightblue" d="M399.26,-112.37C381.7,-93.97 340.37,-50.67 317.82,-27.05"/>
<polygon fill="midnightblue" stroke="midnightblue" points="320.14,-24.41 310.7,-19.59 315.07,-29.24 320.14,-24.41"/>
</g>
<!-- Node10&#45;&gt;Node9 -->
<g id="edge26" class="edge">
<title>Node10&#45;&gt;Node9</title>
<path fill="none" stroke="midnightblue" d="M425.4,-121.56C456.98,-121.46 522.02,-116.1 551.5,-76 561.76,-62.05 554.16,-42.53 545.91,-28.53"/>
<polygon fill="midnightblue" stroke="midnightblue" points="548.67,-26.35 540.31,-19.85 542.79,-30.15 548.67,-26.35"/>
</g>
<!-- Node11 -->
<g id="node11" class="node">
<title>Node11</title>
<g id="a_node11"><a xlink:title=" ">
<polygon fill="white" stroke="#bfbfbf" points="216,-56.5 216,-75.5 261,-75.5 261,-56.5 216,-56.5"/>
<text text-anchor="middle" x="238.5" y="-63.5" font-family="Helvetica,sans-Serif" font-size="10.00">stdio.h</text>
</a>
</g>
</g>
<!-- Node10&#45;&gt;Node11 -->
<g id="edge15" class="edge">
<title>Node10&#45;&gt;Node11</title>
<path fill="none" stroke="midnightblue" d="M389.73,-115.32C361.58,-106.33 306.29,-88.66 270.93,-77.36"/>
<polygon fill="midnightblue" stroke="midnightblue" points="271.68,-73.93 261.09,-74.22 269.55,-80.6 271.68,-73.93"/>
</g>
<!-- Node12 -->
<g id="node12" class="node">
<title>Node12</title>
<g id="a_node12"><a xlink:title=" ">
<polygon fill="white" stroke="#bfbfbf" points="279.5,-56.5 279.5,-75.5 325.5,-75.5 325.5,-56.5 279.5,-56.5"/>
<text text-anchor="middle" x="302.5" y="-63.5" font-family="Helvetica,sans-Serif" font-size="10.00">atomic</text>
</a>
</g>
</g>
<!-- Node10&#45;&gt;Node12 -->
<g id="edge16" class="edge">
<title>Node10&#45;&gt;Node12</title>
<path fill="none" stroke="midnightblue" d="M390.63,-112.32C373.79,-103.66 347.69,-90.24 328.26,-80.25"/>
<polygon fill="midnightblue" stroke="midnightblue" points="329.82,-77.12 319.33,-75.65 326.62,-83.34 329.82,-77.12"/>
</g>
<!-- Node13 -->
<g id="node13" class="node">
<title>Node13</title>
<g id="a_node13"><a xlink:title=" ">
<polygon fill="white" stroke="#bfbfbf" points="382,-56.5 382,-75.5 433,-75.5 433,-56.5 382,-56.5"/>
<text text-anchor="middle" x="407.5" y="-63.5" font-family="Helvetica,sans-Serif" font-size="10.00">memory</text>
</a>
</g>
</g>
<!-- Node10&#45;&gt;Node13 -->
<g id="edge17" class="edge">
<title>Node10&#45;&gt;Node13</title>
<path fill="none" stroke="midnightblue" d="M407.5,-112.08C407.5,-105.01 407.5,-94.86 407.5,-85.99"/>
<polygon fill="midnightblue" stroke="midnightblue" points="411,-85.75 407.5,-75.75 404,-85.75 411,-85.75"/>
</g>
<!-- Node14 -->
<g id="node14" class="node">
<title>Node14</title>
<g id="a_node14"><a xlink:title=" ">
<polygon fill="white" stroke="#bfbfbf" points="599,-56.5 599,-75.5 640,-75.5 640,-56.5 599,-56.5"/>
<text text-anchor="middle" x="619.5" y="-63.5" font-family="Helvetica,sans-Serif" font-size="10.00">string</text>
</a>
</g>
</g>
<!-- Node10&#45;&gt;Node14 -->
<g id="edge18" class="edge">
<title>Node10&#45;&gt;Node14</title>
<path fill="none" stroke="midnightblue" d="M425.09,-116.54C456.91,-108.48 526.13,-90.92 584.5,-76 585.94,-75.63 587.42,-75.25 588.91,-74.87"/>
<polygon fill="midnightblue" stroke="midnightblue" points="589.96,-78.22 598.77,-72.34 588.22,-71.44 589.96,-78.22"/>
</g>
<!-- Node15 -->
<g id="node15" class="node">
<title>Node15</title>
<g id="a_node15"><a xlink:title=" ">
<polygon fill="white" stroke="#bfbfbf" points="658,-56.5 658,-75.5 697,-75.5 697,-56.5 658,-56.5"/>
<text text-anchor="middle" x="677.5" y="-63.5" font-family="Helvetica,sans-Serif" font-size="10.00">utility</text>
</a>
</g>
</g>
<!-- Node10&#45;&gt;Node15 -->
<g id="edge20" class="edge">
<title>Node10&#45;&gt;Node15</title>
<path fill="none" stroke="midnightblue" d="M425.28,-118.49C464.09,-112.84 559.41,-98.05 647.8,-76.19"/>
<polygon fill="midnightblue" stroke="midnightblue" points="648.86,-79.54 657.71,-73.71 647.15,-72.75 648.86,-79.54"/>
</g>
<!-- Node16 -->
<g id="node16" class="node">
<title>Node16</title>
<g id="a_node16"><a xlink:title=" ">
<polygon fill="white" stroke="#bfbfbf" points="715.5,-56.5 715.5,-75.5 759.5,-75.5 759.5,-56.5 715.5,-56.5"/>
<text text-anchor="middle" x="737.5" y="-63.5" font-family="Helvetica,sans-Serif" font-size="10.00">vector</text>
</a>
</g>
</g>
<!-- Node10&#45;&gt;Node16 -->
<g id="edge21" class="edge">
<title>Node10&#45;&gt;Node16</title>
<path fill="none" stroke="midnightblue" d="M425.17,-119.17C470.27,-114.34 593.37,-100.04 705.15,-76.05"/>
<polygon fill="midnightblue" stroke="midnightblue" points="706.22,-79.4 715.24,-73.85 704.72,-72.56 706.22,-79.4"/>
</g>
<!-- Node17 -->
<g id="node17" class="node">
<title>Node17</title>
<g id="a_node17"><a xlink:href="common_8h.html" target="_top" xlink:title=" ">
<polygon fill="white" stroke="black" points="451,-56.5 451,-75.5 542,-75.5 542,-56.5 451,-56.5"/>
<text text-anchor="middle" x="496.5" y="-63.5" font-family="Helvetica,sans-Serif" font-size="10.00">cppgc/common.h</text>
</a>
</g>
</g>
<!-- Node10&#45;&gt;Node17 -->
<g id="edge22" class="edge">
<title>Node10&#45;&gt;Node17</title>
<path fill="none" stroke="midnightblue" d="M421.8,-112.32C435.68,-103.9 456.99,-90.97 473.3,-81.07"/>
<polygon fill="midnightblue" stroke="midnightblue" points="475.5,-83.83 482.24,-75.65 471.87,-77.85 475.5,-83.83"/>
</g>
<!-- Node17&#45;&gt;Node9 -->
<g id="edge23" class="edge">
<title>Node17&#45;&gt;Node9</title>
<path fill="none" stroke="midnightblue" d="M502.61,-56.08C507.78,-48.53 515.35,-37.49 521.69,-28.23"/>
<polygon fill="midnightblue" stroke="midnightblue" points="524.74,-29.98 527.5,-19.75 518.96,-26.02 524.74,-29.98"/>
</g>
</g>
</svg>
