<?xml version="1.0" encoding="UTF-8" standalone="no"?>
<!DOCTYPE svg PUBLIC "-//W3C//DTD SVG 1.1//EN"
 "http://www.w3.org/Graphics/SVG/1.1/DTD/svg11.dtd">
<!-- Generated by graphviz version 2.49.3 (20211027.1534)
 -->
<!-- Title: include/v8&#45;internal.h Pages: 1 -->
<svg width="692pt" height="218pt"
 viewBox="0.00 0.00 692.00 218.00" xmlns="http://www.w3.org/2000/svg" xmlns:xlink="http://www.w3.org/1999/xlink">
<g id="graph0" class="graph" transform="scale(1 1) rotate(0) translate(4 214)">
<title>include/v8&#45;internal.h</title>
<polygon fill="white" stroke="transparent" points="-4,4 -4,-214 688,-214 688,4 -4,4"/>
<!-- Node1 -->
<g id="node1" class="node">
<title>Node1</title>
<g id="a_node1"><a xlink:title=" ">
<polygon fill="#bfbfbf" stroke="black" points="144.5,-190.5 144.5,-209.5 247.5,-209.5 247.5,-190.5 144.5,-190.5"/>
<text text-anchor="middle" x="196" y="-197.5" font-family="Helvetica,sans-Serif" font-size="10.00">include/v8&#45;internal.h</text>
</a>
</g>
</g>
<!-- Node2 -->
<g id="node2" class="node">
<title>Node2</title>
<g id="a_node2"><a xlink:href="v8-cppgc_8h.html" target="_top" xlink:title=" ">
<polygon fill="white" stroke="black" points="0,-73 0,-92 98,-92 98,-73 0,-73"/>
<text text-anchor="middle" x="49" y="-80" font-family="Helvetica,sans-Serif" font-size="10.00">include/v8&#45;cppgc.h</text>
</a>
</g>
</g>
<!-- Node1&#45;&gt;Node2 -->
<g id="edge1" class="edge">
<title>Node1&#45;&gt;Node2</title>
<path fill="none" stroke="midnightblue" d="M177.03,-184.1C145.97,-159.69 85.2,-111.94 60.18,-92.28"/>
<polygon fill="midnightblue" stroke="midnightblue" points="174.93,-186.89 184.95,-190.32 179.25,-181.39 174.93,-186.89"/>
</g>
<!-- Node3 -->
<g id="node3" class="node">
<title>Node3</title>
<g id="a_node3"><a xlink:href="v8-fast-api-calls_8h.html" target="_top" xlink:title=" ">
<polygon fill="white" stroke="black" points="116,-67.5 116,-97.5 212,-97.5 212,-67.5 116,-67.5"/>
<text text-anchor="start" x="124" y="-85.5" font-family="Helvetica,sans-Serif" font-size="10.00">include/v8&#45;fast&#45;api</text>
<text text-anchor="middle" x="164" y="-74.5" font-family="Helvetica,sans-Serif" font-size="10.00">&#45;calls.h</text>
</a>
</g>
</g>
<!-- Node1&#45;&gt;Node3 -->
<g id="edge2" class="edge">
<title>Node1&#45;&gt;Node3</title>
<path fill="none" stroke="midnightblue" d="M190.84,-180.38C184.43,-157.26 173.65,-118.32 167.89,-97.55"/>
<polygon fill="midnightblue" stroke="midnightblue" points="187.55,-181.62 193.59,-190.32 194.3,-179.75 187.55,-181.62"/>
</g>
<!-- Node4 -->
<g id="node4" class="node">
<title>Node4</title>
<g id="a_node4"><a xlink:href="v8-metrics_8h.html" target="_top" xlink:title=" ">
<polygon fill="white" stroke="black" points="230,-73 230,-92 334,-92 334,-73 230,-73"/>
<text text-anchor="middle" x="282" y="-80" font-family="Helvetica,sans-Serif" font-size="10.00">include/v8&#45;metrics.h</text>
</a>
</g>
</g>
<!-- Node1&#45;&gt;Node4 -->
<g id="edge3" class="edge">
<title>Node1&#45;&gt;Node4</title>
<path fill="none" stroke="midnightblue" d="M206.62,-181.74C215,-168.41 227.22,-149.66 239,-134 250.49,-118.72 265.16,-102.03 274.05,-92.17"/>
<polygon fill="midnightblue" stroke="midnightblue" points="203.56,-180.02 201.25,-190.36 209.5,-183.72 203.56,-180.02"/>
</g>
<!-- Node5 -->
<g id="node5" class="node">
<title>Node5</title>
<g id="a_node5"><a xlink:href="v8_8h.html" target="_top" xlink:title=" ">
<polygon fill="white" stroke="black" points="248,-134.5 248,-153.5 316,-153.5 316,-134.5 248,-134.5"/>
<text text-anchor="middle" x="282" y="-141.5" font-family="Helvetica,sans-Serif" font-size="10.00">include/v8.h</text>
</a>
</g>
</g>
<!-- Node1&#45;&gt;Node5 -->
<g id="edge4" class="edge">
<title>Node1&#45;&gt;Node5</title>
<path fill="none" stroke="midnightblue" d="M218.45,-184.9C234.22,-175 254.81,-162.07 268.22,-153.65"/>
<polygon fill="midnightblue" stroke="midnightblue" points="216.43,-182.04 209.82,-190.32 220.15,-187.97 216.43,-182.04"/>
</g>
<!-- Node5&#45;&gt;Node2 -->
<g id="edge5" class="edge">
<title>Node5&#45;&gt;Node2</title>
<path fill="none" stroke="midnightblue" d="M238.8,-131.97C193.56,-120.41 123.47,-102.52 82.32,-92.01"/>
<polygon fill="midnightblue" stroke="midnightblue" points="238.06,-135.39 248.62,-134.48 239.79,-128.61 238.06,-135.39"/>
</g>
<!-- Node5&#45;&gt;Node3 -->
<g id="edge6" class="edge">
<title>Node5&#45;&gt;Node3</title>
<path fill="none" stroke="midnightblue" d="M256.1,-129.94C237.07,-120.35 211.27,-107.33 191.81,-97.52"/>
<polygon fill="midnightblue" stroke="midnightblue" points="254.59,-133.1 265.09,-134.48 257.74,-126.85 254.59,-133.1"/>
</g>
<!-- Node5&#45;&gt;Node4 -->
<g id="edge9" class="edge">
<title>Node5&#45;&gt;Node4</title>
<path fill="none" stroke="midnightblue" d="M282,-124.32C282,-113.5 282,-100.4 282,-92.01"/>
<polygon fill="midnightblue" stroke="midnightblue" points="278.5,-124.48 282,-134.48 285.5,-124.48 278.5,-124.48"/>
</g>
<!-- Node6 -->
<g id="node6" class="node">
<title>Node6</title>
<g id="a_node6"><a xlink:href="v8-inspector_8h.html" target="_top" xlink:title=" ">
<polygon fill="white" stroke="black" points="352.5,-73 352.5,-92 463.5,-92 463.5,-73 352.5,-73"/>
<text text-anchor="middle" x="408" y="-80" font-family="Helvetica,sans-Serif" font-size="10.00">include/v8&#45;inspector.h</text>
</a>
</g>
</g>
<!-- Node5&#45;&gt;Node6 -->
<g id="edge7" class="edge">
<title>Node5&#45;&gt;Node6</title>
<path fill="none" stroke="midnightblue" d="M309.16,-130.17C333.61,-118.63 368.85,-101.99 389.98,-92.01"/>
<polygon fill="midnightblue" stroke="midnightblue" points="307.6,-127.04 300.05,-134.48 310.59,-133.37 307.6,-127.04"/>
</g>
<!-- Node8 -->
<g id="node8" class="node">
<title>Node8</title>
<g id="a_node8"><a xlink:href="v8-profiler_8h.html" target="_top" xlink:title=" ">
<polygon fill="white" stroke="black" points="482,-73 482,-92 582,-92 582,-73 482,-73"/>
<text text-anchor="middle" x="532" y="-80" font-family="Helvetica,sans-Serif" font-size="10.00">include/v8&#45;profiler.h</text>
</a>
</g>
</g>
<!-- Node5&#45;&gt;Node8 -->
<g id="edge10" class="edge">
<title>Node5&#45;&gt;Node8</title>
<path fill="none" stroke="midnightblue" d="M326.09,-132.74C364.82,-123.7 422.68,-110.11 473,-98 480.9,-96.1 489.38,-94.03 497.38,-92.07"/>
<polygon fill="midnightblue" stroke="midnightblue" points="325.12,-129.37 316.18,-135.05 326.71,-136.19 325.12,-129.37"/>
</g>
<!-- Node9 -->
<g id="node9" class="node">
<title>Node9</title>
<g id="a_node9"><a xlink:href="v8-util_8h.html" target="_top" xlink:title=" ">
<polygon fill="white" stroke="black" points="600,-73 600,-92 684,-92 684,-73 600,-73"/>
<text text-anchor="middle" x="642" y="-80" font-family="Helvetica,sans-Serif" font-size="10.00">include/v8&#45;util.h</text>
</a>
</g>
</g>
<!-- Node5&#45;&gt;Node9 -->
<g id="edge11" class="edge">
<title>Node5&#45;&gt;Node9</title>
<path fill="none" stroke="midnightblue" d="M326.4,-138.4C386.72,-131.74 497.73,-117.96 591,-98 598.65,-96.36 606.84,-94.21 614.38,-92.07"/>
<polygon fill="midnightblue" stroke="midnightblue" points="325.66,-134.96 316.1,-139.53 326.42,-141.92 325.66,-134.96"/>
</g>
<!-- Node7 -->
<g id="node7" class="node">
<title>Node7</title>
<g id="a_node7"><a xlink:href="v8-inspector-protocol_8h.html" target="_top" xlink:title=" ">
<polygon fill="white" stroke="black" points="356,-0.5 356,-30.5 460,-30.5 460,-0.5 356,-0.5"/>
<text text-anchor="start" x="364" y="-18.5" font-family="Helvetica,sans-Serif" font-size="10.00">include/v8&#45;inspector</text>
<text text-anchor="middle" x="408" y="-7.5" font-family="Helvetica,sans-Serif" font-size="10.00">&#45;protocol.h</text>
</a>
</g>
</g>
<!-- Node6&#45;&gt;Node7 -->
<g id="edge8" class="edge">
<title>Node6&#45;&gt;Node7</title>
<path fill="none" stroke="midnightblue" d="M408,-62.41C408,-52.22 408,-39.9 408,-30.59"/>
<polygon fill="midnightblue" stroke="midnightblue" points="404.5,-62.73 408,-72.73 411.5,-62.73 404.5,-62.73"/>
</g>
</g>
</svg>
