<?xml version="1.0" encoding="UTF-8" standalone="no"?>
<!DOCTYPE svg PUBLIC "-//W3C//DTD SVG 1.1//EN"
 "http://www.w3.org/Graphics/SVG/1.1/DTD/svg11.dtd">
<!-- Generated by graphviz version 2.49.3 (20211027.1534)
 -->
<!-- Title: v8::Local::New Pages: 1 -->
<svg width="286pt" height="202pt"
 viewBox="0.00 0.00 286.00 202.00" xmlns="http://www.w3.org/2000/svg" xmlns:xlink="http://www.w3.org/1999/xlink">
<g id="graph0" class="graph" transform="scale(1 1) rotate(0) translate(4 198)">
<title>v8::Local::New</title>
<polygon fill="white" stroke="transparent" points="-4,4 -4,-198 282,-198 282,4 -4,4"/>
<!-- Node1 -->
<g id="node1" class="node">
<title>Node1</title>
<g id="a_node1"><a xlink:title=" ">
<polygon fill="#bfbfbf" stroke="black" points="198,-98.5 198,-117.5 278,-117.5 278,-98.5 198,-98.5"/>
<text text-anchor="middle" x="238" y="-105.5" font-family="Helvetica,sans-Serif" font-size="10.00">v8::Local::New</text>
</a>
</g>
</g>
<!-- Node2 -->
<g id="node2" class="node">
<title>Node2</title>
<g id="a_node2"><a xlink:href="classv8_1_1ReturnValue.html#a9167dbbc04d72bbd85a8a7f199f211c4" target="_top" xlink:title=" ">
<polygon fill="white" stroke="black" points="28.5,-174.5 28.5,-193.5 133.5,-193.5 133.5,-174.5 28.5,-174.5"/>
<text text-anchor="middle" x="81" y="-181.5" font-family="Helvetica,sans-Serif" font-size="10.00">v8::ReturnValue::Get</text>
</a>
</g>
</g>
<!-- Node1&#45;&gt;Node2 -->
<g id="edge1" class="edge">
<title>Node1&#45;&gt;Node2</title>
<path fill="none" stroke="midnightblue" d="M219.65,-124.58C205.28,-137.43 183.75,-154.72 162,-165 153.22,-169.15 143.47,-172.43 133.87,-175.02"/>
<polygon fill="midnightblue" stroke="midnightblue" points="222.23,-126.96 227.23,-117.62 217.5,-121.8 222.23,-126.96"/>
</g>
<!-- Node3 -->
<g id="node3" class="node">
<title>Node3</title>
<g id="a_node3"><a xlink:href="classv8_1_1PersistentValueMapBase.html#a5bac0db345afa5ac0654c7bac39fd67b" target="_top" xlink:title=" ">
<polygon fill="white" stroke="black" points="0,-136.5 0,-155.5 162,-155.5 162,-136.5 0,-136.5"/>
<text text-anchor="middle" x="81" y="-143.5" font-family="Helvetica,sans-Serif" font-size="10.00">v8::PersistentValueMapBase::Get</text>
</a>
</g>
</g>
<!-- Node1&#45;&gt;Node3 -->
<g id="edge2" class="edge">
<title>Node1&#45;&gt;Node3</title>
<path fill="none" stroke="midnightblue" d="M189.83,-120.06C180.61,-122.39 171.01,-124.79 162,-127 149.25,-130.13 135.33,-133.46 122.73,-136.45"/>
<polygon fill="midnightblue" stroke="midnightblue" points="190.81,-123.43 199.64,-117.58 189.09,-116.64 190.81,-123.43"/>
</g>
<!-- Node4 -->
<g id="node4" class="node">
<title>Node4</title>
<g id="a_node4"><a xlink:href="classv8_1_1PersistentBase.html#a3904f51a5d7024c2983d027c8075201d" target="_top" xlink:title=" ">
<polygon fill="white" stroke="black" points="21.5,-98.5 21.5,-117.5 140.5,-117.5 140.5,-98.5 21.5,-98.5"/>
<text text-anchor="middle" x="81" y="-105.5" font-family="Helvetica,sans-Serif" font-size="10.00">v8::PersistentBase::Get</text>
</a>
</g>
</g>
<!-- Node1&#45;&gt;Node4 -->
<g id="edge3" class="edge">
<title>Node1&#45;&gt;Node4</title>
<path fill="none" stroke="midnightblue" d="M187.82,-108C172.86,-108 156.27,-108 140.74,-108"/>
<polygon fill="midnightblue" stroke="midnightblue" points="187.89,-111.5 197.89,-108 187.89,-104.5 187.89,-111.5"/>
</g>
<!-- Node5 -->
<g id="node5" class="node">
<title>Node5</title>
<g id="a_node5"><a xlink:href="classv8_1_1PersistentValueVector.html#a773384c8da374c10ce437a391c662189" target="_top" xlink:title=" ">
<polygon fill="white" stroke="black" points="6.5,-60.5 6.5,-79.5 155.5,-79.5 155.5,-60.5 6.5,-60.5"/>
<text text-anchor="middle" x="81" y="-67.5" font-family="Helvetica,sans-Serif" font-size="10.00">v8::PersistentValueVector::Get</text>
</a>
</g>
</g>
<!-- Node1&#45;&gt;Node5 -->
<g id="edge4" class="edge">
<title>Node1&#45;&gt;Node5</title>
<path fill="none" stroke="midnightblue" d="M189.83,-95.94C180.61,-93.61 171.01,-91.21 162,-89 149.25,-85.87 135.33,-82.54 122.73,-79.55"/>
<polygon fill="midnightblue" stroke="midnightblue" points="189.09,-99.36 199.64,-98.42 190.81,-92.57 189.09,-99.36"/>
</g>
<!-- Node6 -->
<g id="node6" class="node">
<title>Node6</title>
<g id="a_node6"><a xlink:href="classv8_1_1PersistentValueMapBase_1_1PersistentValueReference.html#aab9ed032c017149867c0f2cef2df89fd" target="_top" xlink:title=" ">
<polygon fill="white" stroke="black" points="10,-0.5 10,-41.5 152,-41.5 152,-0.5 10,-0.5"/>
<text text-anchor="start" x="18" y="-29.5" font-family="Helvetica,sans-Serif" font-size="10.00">v8::PersistentValueMapBase</text>
<text text-anchor="start" x="18" y="-18.5" font-family="Helvetica,sans-Serif" font-size="10.00">::PersistentValueReference</text>
<text text-anchor="middle" x="81" y="-7.5" font-family="Helvetica,sans-Serif" font-size="10.00">::NewLocal</text>
</a>
</g>
</g>
<!-- Node1&#45;&gt;Node6 -->
<g id="edge5" class="edge">
<title>Node1&#45;&gt;Node6</title>
<path fill="none" stroke="midnightblue" d="M218.77,-91.72C204.2,-79.33 182.83,-62.49 162,-51 155.9,-47.63 149.34,-44.49 142.7,-41.6"/>
<polygon fill="midnightblue" stroke="midnightblue" points="216.66,-94.53 226.51,-98.43 221.25,-89.24 216.66,-94.53"/>
</g>
</g>
</svg>
