<?xml version="1.0" encoding="UTF-8" standalone="no"?>
<!DOCTYPE svg PUBLIC "-//W3C//DTD SVG 1.1//EN"
 "http://www.w3.org/Graphics/SVG/1.1/DTD/svg11.dtd">
<!-- Generated by graphviz version 2.49.3 (20211027.1534)
 -->
<!-- Title: v8::Isolate::CreateParams Pages: 1 -->
<svg width="863pt" height="203pt"
 viewBox="0.00 0.00 863.00 203.00" xmlns="http://www.w3.org/2000/svg" xmlns:xlink="http://www.w3.org/1999/xlink">
<g id="graph0" class="graph" transform="scale(1 1) rotate(0) translate(4 199)">
<title>v8::Isolate::CreateParams</title>
<polygon fill="white" stroke="transparent" points="-4,4 -4,-199 859,-199 859,4 -4,4"/>
<!-- Node1 -->
<g id="node1" class="node">
<title>Node1</title>
<g id="a_node1"><a xlink:title=" ">
<polygon fill="#bfbfbf" stroke="black" points="727,-57.5 727,-76.5 855,-76.5 855,-57.5 727,-57.5"/>
<text text-anchor="middle" x="791" y="-64.5" font-family="Helvetica,sans-Serif" font-size="10.00">v8::Isolate::CreateParams</text>
</a>
</g>
</g>
<!-- Node2 -->
<g id="node2" class="node">
<title>Node2</title>
<g id="a_node2"><a xlink:href="structv8_1_1JitCodeEvent.html" target="_top" xlink:title=" ">
<polygon fill="white" stroke="black" points="490.5,-114.5 490.5,-133.5 579.5,-133.5 579.5,-114.5 490.5,-114.5"/>
<text text-anchor="middle" x="535" y="-121.5" font-family="Helvetica,sans-Serif" font-size="10.00">v8::JitCodeEvent</text>
</a>
</g>
</g>
<!-- Node2&#45;&gt;Node1 -->
<g id="edge1" class="edge">
<title>Node2&#45;&gt;Node1</title>
<path fill="none" stroke="#9a32cd" stroke-dasharray="5,2" d="M590.08,-117.3C624.44,-112.46 669.69,-105.02 709,-95 728.46,-90.04 749.93,-82.53 765.86,-76.53"/>
<polygon fill="#9a32cd" stroke="#9a32cd" points="589.22,-113.88 579.79,-118.72 590.17,-120.82 589.22,-113.88"/>
<text text-anchor="middle" x="661.5" y="-116" font-family="Helvetica,sans-Serif" font-size="10.00"> code_event_handler</text>
</g>
<!-- Node3 -->
<g id="node3" class="node">
<title>Node3</title>
<g id="a_node3"><a xlink:href="structv8_1_1JitCodeEvent_1_1wasm__source__info__t.html" target="_top" xlink:title=" ">
<polygon fill="white" stroke="black" points="230,-133 230,-163 350,-163 350,-133 230,-133"/>
<text text-anchor="start" x="238" y="-151" font-family="Helvetica,sans-Serif" font-size="10.00">v8::JitCodeEvent::wasm</text>
<text text-anchor="middle" x="290" y="-140" font-family="Helvetica,sans-Serif" font-size="10.00">_source_info_t</text>
</a>
</g>
</g>
<!-- Node3&#45;&gt;Node2 -->
<g id="edge2" class="edge">
<title>Node3&#45;&gt;Node2</title>
<path fill="none" stroke="#9a32cd" stroke-dasharray="5,2" d="M360.26,-141.16C402.09,-137.03 454.13,-131.89 490.3,-128.32"/>
<polygon fill="#9a32cd" stroke="#9a32cd" points="359.74,-137.69 350.13,-142.16 360.43,-144.66 359.74,-137.69"/>
<text text-anchor="middle" x="413.5" y="-142" font-family="Helvetica,sans-Serif" font-size="10.00"> wasm_source_info</text>
</g>
<!-- Node4 -->
<g id="node4" class="node">
<title>Node4</title>
<g id="a_node4"><a xlink:href="structv8_1_1JitCodeEvent_1_1line__info__t.html" target="_top" xlink:title=" ">
<polygon fill="white" stroke="black" points="0,-159 0,-189 109,-189 109,-159 0,-159"/>
<text text-anchor="start" x="8" y="-177" font-family="Helvetica,sans-Serif" font-size="10.00">v8::JitCodeEvent::line</text>
<text text-anchor="middle" x="54.5" y="-166" font-family="Helvetica,sans-Serif" font-size="10.00">_info_t</text>
</a>
</g>
</g>
<!-- Node4&#45;&gt;Node2 -->
<g id="edge5" class="edge">
<title>Node4&#45;&gt;Node2</title>
<path fill="none" stroke="#9a32cd" stroke-dasharray="5,2" d="M119.36,-179.63C121.94,-179.77 124.5,-179.9 127,-180 273.55,-186.14 314.83,-193.8 456,-154 475.55,-148.49 497.04,-140.03 512.51,-133.5"/>
<polygon fill="#9a32cd" stroke="#9a32cd" points="119.54,-176.13 109.35,-179 119.11,-183.12 119.54,-176.13"/>
<text text-anchor="middle" x="290" y="-187" font-family="Helvetica,sans-Serif" font-size="10.00"> line_info</text>
</g>
<!-- Node4&#45;&gt;Node3 -->
<g id="edge3" class="edge">
<title>Node4&#45;&gt;Node3</title>
<path fill="none" stroke="#9a32cd" stroke-dasharray="5,2" d="M119.06,-166.92C153.62,-163.07 196.1,-158.34 229.94,-154.58"/>
<polygon fill="#9a32cd" stroke="#9a32cd" points="118.62,-163.45 109.07,-168.04 119.4,-170.41 118.62,-163.45"/>
<text text-anchor="middle" x="168" y="-168" font-family="Helvetica,sans-Serif" font-size="10.00"> line_number_table</text>
</g>
<!-- Node5 -->
<g id="node5" class="node">
<title>Node5</title>
<g id="a_node5"><a xlink:href="structv8_1_1JitCodeEvent_1_1name__t.html" target="_top" xlink:title=" ">
<polygon fill="white" stroke="black" points="227,-94.5 227,-113.5 353,-113.5 353,-94.5 227,-94.5"/>
<text text-anchor="middle" x="290" y="-101.5" font-family="Helvetica,sans-Serif" font-size="10.00">v8::JitCodeEvent::name_t</text>
</a>
</g>
</g>
<!-- Node5&#45;&gt;Node2 -->
<g id="edge4" class="edge">
<title>Node5&#45;&gt;Node2</title>
<path fill="none" stroke="#9a32cd" stroke-dasharray="5,2" d="M363.08,-104.42C392.02,-105.16 425.66,-106.74 456,-110 467.22,-111.2 479.25,-113.07 490.43,-115.06"/>
<polygon fill="#9a32cd" stroke="#9a32cd" points="363.12,-100.92 353.05,-104.19 362.96,-107.91 363.12,-100.92"/>
<text text-anchor="middle" x="413.5" y="-113" font-family="Helvetica,sans-Serif" font-size="10.00"> name</text>
</g>
<!-- Node6 -->
<g id="node6" class="node">
<title>Node6</title>
<g id="a_node6"><a xlink:href="classv8_1_1Isolate.html" target="_top" xlink:title=" ">
<polygon fill="white" stroke="black" points="259.5,-56.5 259.5,-75.5 320.5,-75.5 320.5,-56.5 259.5,-56.5"/>
<text text-anchor="middle" x="290" y="-63.5" font-family="Helvetica,sans-Serif" font-size="10.00">v8::Isolate</text>
</a>
</g>
</g>
<!-- Node6&#45;&gt;Node2 -->
<g id="edge6" class="edge">
<title>Node6&#45;&gt;Node2</title>
<path fill="none" stroke="#9a32cd" stroke-dasharray="5,2" d="M330.95,-65.18C365.54,-65.93 416.14,-70.6 456,-89 465.72,-93.49 464.69,-99.71 474,-105 480.65,-108.78 488.15,-111.91 495.54,-114.47"/>
<polygon fill="#9a32cd" stroke="#9a32cd" points="330.79,-61.68 320.75,-65.06 330.71,-68.68 330.79,-61.68"/>
<text text-anchor="middle" x="413.5" y="-92" font-family="Helvetica,sans-Serif" font-size="10.00"> isolate</text>
</g>
<!-- Node7 -->
<g id="node7" class="node">
<title>Node7</title>
<g id="a_node7"><a xlink:href="classv8_1_1ResourceConstraints.html" target="_top" xlink:title=" ">
<polygon fill="white" stroke="black" points="474,-76.5 474,-95.5 596,-95.5 596,-76.5 474,-76.5"/>
<text text-anchor="middle" x="535" y="-83.5" font-family="Helvetica,sans-Serif" font-size="10.00">v8::ResourceConstraints</text>
</a>
</g>
</g>
<!-- Node7&#45;&gt;Node1 -->
<g id="edge7" class="edge">
<title>Node7&#45;&gt;Node1</title>
<path fill="none" stroke="#9a32cd" stroke-dasharray="5,2" d="M606.58,-80.72C644.24,-77.9 690.2,-74.47 726.69,-71.74"/>
<polygon fill="#9a32cd" stroke="#9a32cd" points="605.91,-77.26 596.19,-81.5 606.43,-84.24 605.91,-77.26"/>
<text text-anchor="middle" x="661.5" y="-83" font-family="Helvetica,sans-Serif" font-size="10.00"> constraints</text>
</g>
<!-- Node8 -->
<g id="node8" class="node">
<title>Node8</title>
<g id="a_node8"><a xlink:href="classv8_1_1StartupData.html" target="_top" xlink:title=" ">
<polygon fill="white" stroke="black" points="493.5,-38.5 493.5,-57.5 576.5,-57.5 576.5,-38.5 493.5,-38.5"/>
<text text-anchor="middle" x="535" y="-45.5" font-family="Helvetica,sans-Serif" font-size="10.00">v8::StartupData</text>
</a>
</g>
</g>
<!-- Node8&#45;&gt;Node1 -->
<g id="edge8" class="edge">
<title>Node8&#45;&gt;Node1</title>
<path fill="none" stroke="#9a32cd" stroke-dasharray="5,2" d="M586.87,-50.77C621.35,-52.76 667.95,-55.67 709,-59 714.77,-59.47 720.78,-59.99 726.79,-60.54"/>
<polygon fill="#9a32cd" stroke="#9a32cd" points="586.76,-47.25 576.58,-50.18 586.36,-54.24 586.76,-47.25"/>
<text text-anchor="middle" x="661.5" y="-62" font-family="Helvetica,sans-Serif" font-size="10.00"> snapshot_blob</text>
</g>
<!-- Node9 -->
<g id="node9" class="node">
<title>Node9</title>
<g id="a_node9"><a xlink:href="classv8_1_1ArrayBuffer_1_1Allocator.html" target="_top" xlink:title=" ">
<polygon fill="white" stroke="black" points="474,-0.5 474,-19.5 596,-19.5 596,-0.5 474,-0.5"/>
<text text-anchor="middle" x="535" y="-7.5" font-family="Helvetica,sans-Serif" font-size="10.00">v8::ArrayBuffer::Allocator</text>
</a>
</g>
</g>
<!-- Node9&#45;&gt;Node1 -->
<g id="edge9" class="edge">
<title>Node9&#45;&gt;Node1</title>
<path fill="none" stroke="#9a32cd" stroke-dasharray="5,2" d="M606.26,-18.39C637.93,-22.93 675.63,-29.4 709,-38 728.96,-43.14 750.94,-51.17 766.96,-57.47"/>
<polygon fill="#9a32cd" stroke="#9a32cd" points="606.6,-14.9 596.21,-16.98 605.63,-21.84 606.6,-14.9"/>
<text text-anchor="middle" x="661.5" y="-41" font-family="Helvetica,sans-Serif" font-size="10.00"> array_buffer_allocator</text>
</g>
</g>
</svg>
