<?xml version="1.0" encoding="UTF-8" standalone="no"?>
<!DOCTYPE svg PUBLIC "-//W3C//DTD SVG 1.1//EN"
 "http://www.w3.org/Graphics/SVG/1.1/DTD/svg11.dtd">
<!-- Generated by graphviz version 8.0.5 (20230430.1635)
 -->
<!-- Title: include/cppgc/allocation.h Pages: 1 -->
<svg width="1079pt" height="381pt"
 viewBox="0.00 0.00 1079.12 381.25" xmlns="http://www.w3.org/2000/svg" xmlns:xlink="http://www.w3.org/1999/xlink">
<g id="graph0" class="graph" transform="scale(1 1) rotate(0) translate(4 377.25)">
<title>include/cppgc/allocation.h</title>
<!-- Node1 -->
<g id="node1" class="node">
<title>Node1</title>
<g id="a_node1"><a xlink:title=" ">
<polygon fill="#999999" stroke="#666666" points="690.88,-373.25 563.12,-373.25 563.12,-354 690.88,-354 690.88,-373.25"/>
<text text-anchor="middle" x="627" y="-359.75" font-family="Helvetica,sans-Serif" font-size="10.00">include/cppgc/allocation.h</text>
</a>
</g>
</g>
<!-- Node2 -->
<g id="node2" class="node">
<title>Node2</title>
<g id="a_node2"><a xlink:title=" ">
<polygon fill="#e0e0e0" stroke="#999999" points="204.62,-257.12 159.38,-257.12 159.38,-237.88 204.62,-237.88 204.62,-257.12"/>
<text text-anchor="middle" x="182" y="-243.62" font-family="Helvetica,sans-Serif" font-size="10.00">atomic</text>
</a>
</g>
</g>
<!-- Node1&#45;&gt;Node2 -->
<g id="edge1" class="edge">
<title>Node1&#45;&gt;Node2</title>
<path fill="none" stroke="#63b8ff" d="M562.68,-359.59C498.99,-355.15 399.36,-344.31 317,-318 275.14,-304.63 230.55,-279.2 204.54,-263.09"/>
<polygon fill="#63b8ff" stroke="#63b8ff" points="206.85,-259.78 196.52,-257.41 203.12,-265.7 206.85,-259.78"/>
</g>
<!-- Node3 -->
<g id="node3" class="node">
<title>Node3</title>
<g id="a_node3"><a xlink:title=" ">
<polygon fill="#e0e0e0" stroke="#999999" points="226.12,-74.5 177.88,-74.5 177.88,-55.25 226.12,-55.25 226.12,-74.5"/>
<text text-anchor="middle" x="202" y="-61" font-family="Helvetica,sans-Serif" font-size="10.00">cstddef</text>
</a>
</g>
</g>
<!-- Node1&#45;&gt;Node3 -->
<g id="edge2" class="edge">
<title>Node1&#45;&gt;Node3</title>
<path fill="none" stroke="#63b8ff" d="M562.64,-361.46C440.74,-358.57 180.83,-348.87 97,-318 47.23,-299.67 0,-301.53 0,-248.5 0,-248.5 0,-248.5 0,-180 0,-104.29 108.9,-78.23 166.79,-69.73"/>
<polygon fill="#63b8ff" stroke="#63b8ff" points="167.2,-73.07 176.63,-68.25 166.25,-66.13 167.2,-73.07"/>
</g>
<!-- Node4 -->
<g id="node4" class="node">
<title>Node4</title>
<g id="a_node4"><a xlink:title=" ">
<polygon fill="#e0e0e0" stroke="#999999" points="173.62,-129.75 128.38,-129.75 128.38,-110.5 173.62,-110.5 173.62,-129.75"/>
<text text-anchor="middle" x="151" y="-116.25" font-family="Helvetica,sans-Serif" font-size="10.00">cstdint</text>
</a>
</g>
</g>
<!-- Node1&#45;&gt;Node4 -->
<g id="edge3" class="edge">
<title>Node1&#45;&gt;Node4</title>
<path fill="none" stroke="#63b8ff" d="M562.96,-360.01C443.27,-353.52 193.76,-331.81 150,-262.75 126.06,-224.96 136.65,-169.36 144.78,-140.34"/>
<polygon fill="#63b8ff" stroke="#63b8ff" points="148.37,-141.56 147.91,-130.98 141.67,-139.54 148.37,-141.56"/>
</g>
<!-- Node5 -->
<g id="node5" class="node">
<title>Node5</title>
<g id="a_node5"><a xlink:title=" ">
<polygon fill="#e0e0e0" stroke="#999999" points="939,-318 905,-318 905,-298.75 939,-298.75 939,-318"/>
<text text-anchor="middle" x="922" y="-304.5" font-family="Helvetica,sans-Serif" font-size="10.00">new</text>
</a>
</g>
</g>
<!-- Node1&#45;&gt;Node5 -->
<g id="edge4" class="edge">
<title>Node1&#45;&gt;Node5</title>
<path fill="none" stroke="#63b8ff" d="M691.11,-353.69C744.79,-345.76 823.29,-333.1 891,-318 892.12,-317.75 893.26,-317.49 894.4,-317.21"/>
<polygon fill="#63b8ff" stroke="#63b8ff" points="894.9,-320.44 903.7,-314.53 893.14,-313.66 894.9,-320.44"/>
</g>
<!-- Node6 -->
<g id="node6" class="node">
<title>Node6</title>
<g id="a_node6"><a xlink:title=" ">
<polygon fill="#e0e0e0" stroke="#999999" points="499.5,-129.75 438.5,-129.75 438.5,-110.5 499.5,-110.5 499.5,-129.75"/>
<text text-anchor="middle" x="469" y="-116.25" font-family="Helvetica,sans-Serif" font-size="10.00">type_traits</text>
</a>
</g>
</g>
<!-- Node1&#45;&gt;Node6 -->
<g id="edge5" class="edge">
<title>Node1&#45;&gt;Node6</title>
<path fill="none" stroke="#63b8ff" d="M628.34,-353.87C632.45,-323.68 641.79,-222.61 593,-165.75 572.35,-141.68 537.71,-130.6 510.29,-125.49"/>
<polygon fill="#63b8ff" stroke="#63b8ff" points="511.23,-121.93 500.8,-123.75 510.09,-128.84 511.23,-121.93"/>
</g>
<!-- Node7 -->
<g id="node7" class="node">
<title>Node7</title>
<g id="a_node7"><a xlink:title=" ">
<polygon fill="#e0e0e0" stroke="#999999" points="698.25,-129.75 659.75,-129.75 659.75,-110.5 698.25,-110.5 698.25,-129.75"/>
<text text-anchor="middle" x="679" y="-116.25" font-family="Helvetica,sans-Serif" font-size="10.00">utility</text>
</a>
</g>
</g>
<!-- Node1&#45;&gt;Node7 -->
<g id="edge6" class="edge">
<title>Node1&#45;&gt;Node7</title>
<path fill="none" stroke="#63b8ff" d="M643.79,-353.57C656.07,-345.91 671.8,-333.67 679,-318 706.44,-258.29 692.66,-177.22 684.1,-140.55"/>
<polygon fill="#63b8ff" stroke="#63b8ff" points="687.27,-139.78 681.47,-130.92 680.47,-141.47 687.27,-139.78"/>
</g>
<!-- Node8 -->
<g id="node8" class="node">
<title>Node8</title>
<g id="a_node8"><a xlink:href="custom-space_8h.html" target="_top" xlink:title=" ">
<polygon fill="white" stroke="#666666" points="1071.12,-318 956.88,-318 956.88,-298.75 1071.12,-298.75 1071.12,-318"/>
<text text-anchor="middle" x="1014" y="-304.5" font-family="Helvetica,sans-Serif" font-size="10.00">cppgc/custom&#45;space.h</text>
</a>
</g>
</g>
<!-- Node1&#45;&gt;Node8 -->
<g id="edge7" class="edge">
<title>Node1&#45;&gt;Node8</title>
<path fill="none" stroke="#63b8ff" d="M691.34,-353.77C761.67,-344.1 873.88,-328.65 945.73,-318.77"/>
<polygon fill="#63b8ff" stroke="#63b8ff" points="946.03,-322.12 955.46,-317.29 945.08,-315.19 946.03,-322.12"/>
</g>
<!-- Node10 -->
<g id="node10" class="node">
<title>Node10</title>
<g id="a_node10"><a xlink:href="api-constants_8h.html" target="_top" xlink:title=" ">
<polygon fill="white" stroke="#666666" points="120.25,-196.25 27.75,-196.25 27.75,-165.75 120.25,-165.75 120.25,-196.25"/>
<text text-anchor="start" x="35.75" y="-182.75" font-family="Helvetica,sans-Serif" font-size="10.00">cppgc/internal/api</text>
<text text-anchor="middle" x="74" y="-171.5" font-family="Helvetica,sans-Serif" font-size="10.00">&#45;constants.h</text>
</a>
</g>
</g>
<!-- Node1&#45;&gt;Node10 -->
<g id="edge9" class="edge">
<title>Node1&#45;&gt;Node10</title>
<path fill="none" stroke="#63b8ff" d="M562.68,-360.94C433.31,-356.99 151.06,-345.32 117,-318 83.6,-291.21 75.7,-238.57 74.09,-207.21"/>
<polygon fill="#63b8ff" stroke="#63b8ff" points="77.56,-207.22 73.74,-197.34 70.57,-207.45 77.56,-207.22"/>
</g>
<!-- Node11 -->
<g id="node11" class="node">
<title>Node11</title>
<g id="a_node11"><a xlink:href="v8config_8h.html" target="_top" xlink:title=" ">
<polygon fill="white" stroke="#666666" points="540.75,-74.5 481.25,-74.5 481.25,-55.25 540.75,-55.25 540.75,-74.5"/>
<text text-anchor="middle" x="511" y="-61" font-family="Helvetica,sans-Serif" font-size="10.00">v8config.h</text>
</a>
</g>
</g>
<!-- Node1&#45;&gt;Node11 -->
<g id="edge46" class="edge">
<title>Node1&#45;&gt;Node11</title>
<path fill="none" stroke="#63b8ff" d="M691.24,-353.99C770.07,-340.08 889.62,-306.37 858,-232.25 827.32,-160.33 800.28,-146.76 731,-110.5 673.58,-80.45 597.93,-70.61 551.96,-67.4"/>
<polygon fill="#63b8ff" stroke="#63b8ff" points="552.42,-63.86 542.22,-66.74 551.99,-70.85 552.42,-63.86"/>
</g>
<!-- Node13 -->
<g id="node13" class="node">
<title>Node13</title>
<g id="a_node13"><a xlink:href="gc-info_8h.html" target="_top" xlink:title=" ">
<polygon fill="white" stroke="#666666" points="442.25,-318 325.75,-318 325.75,-298.75 442.25,-298.75 442.25,-318"/>
<text text-anchor="middle" x="384" y="-304.5" font-family="Helvetica,sans-Serif" font-size="10.00">cppgc/internal/gc&#45;info.h</text>
</a>
</g>
</g>
<!-- Node1&#45;&gt;Node13 -->
<g id="edge14" class="edge">
<title>Node1&#45;&gt;Node13</title>
<path fill="none" stroke="#63b8ff" d="M585.5,-353.53C544.18,-344.48 480.62,-330.55 435.96,-320.76"/>
<polygon fill="#63b8ff" stroke="#63b8ff" points="436.84,-317.15 426.33,-318.43 435.34,-323.99 436.84,-317.15"/>
</g>
<!-- Node15 -->
<g id="node15" class="node">
<title>Node15</title>
<g id="a_node15"><a xlink:href="type-traits_8h.html" target="_top" xlink:title=" ">
<polygon fill="white" stroke="#666666" points="583.75,-190.62 488.25,-190.62 488.25,-171.38 583.75,-171.38 583.75,-190.62"/>
<text text-anchor="middle" x="536" y="-177.12" font-family="Helvetica,sans-Serif" font-size="10.00">cppgc/type&#45;traits.h</text>
</a>
</g>
</g>
<!-- Node1&#45;&gt;Node15 -->
<g id="edge45" class="edge">
<title>Node1&#45;&gt;Node15</title>
<path fill="none" stroke="#63b8ff" d="M623.68,-353.5C615.65,-331.86 594.08,-275.96 570,-232.25 563.81,-221.02 555.82,-209.11 549.14,-199.7"/>
<polygon fill="#63b8ff" stroke="#63b8ff" points="551.49,-197.98 542.79,-191.94 545.83,-202.09 551.49,-197.98"/>
</g>
<!-- Node9 -->
<g id="node9" class="node">
<title>Node9</title>
<g id="a_node9"><a xlink:title=" ">
<polygon fill="#e0e0e0" stroke="#999999" points="1039.25,-257.12 988.75,-257.12 988.75,-237.88 1039.25,-237.88 1039.25,-257.12"/>
<text text-anchor="middle" x="1014" y="-243.62" font-family="Helvetica,sans-Serif" font-size="10.00">stddef.h</text>
</a>
</g>
</g>
<!-- Node8&#45;&gt;Node9 -->
<g id="edge8" class="edge">
<title>Node8&#45;&gt;Node9</title>
<path fill="none" stroke="#63b8ff" d="M1014,-298.43C1014,-290.48 1014,-278.56 1014,-268.37"/>
<polygon fill="#63b8ff" stroke="#63b8ff" points="1017.5,-268.53 1014,-258.53 1010.5,-268.53 1017.5,-268.53"/>
</g>
<!-- Node10&#45;&gt;Node3 -->
<g id="edge10" class="edge">
<title>Node10&#45;&gt;Node3</title>
<path fill="none" stroke="#63b8ff" d="M72.59,-165.26C71.94,-149.89 73.34,-125.93 86,-110.5 105.88,-86.27 140.55,-75.17 166.82,-70.1"/>
<polygon fill="#63b8ff" stroke="#63b8ff" points="167.23,-73.41 176.5,-68.28 166.05,-66.51 167.23,-73.41"/>
</g>
<!-- Node10&#45;&gt;Node4 -->
<g id="edge11" class="edge">
<title>Node10&#45;&gt;Node4</title>
<path fill="none" stroke="#63b8ff" d="M93.03,-165.45C104.42,-156.74 118.89,-145.68 130.52,-136.78"/>
<polygon fill="#63b8ff" stroke="#63b8ff" points="132.31,-139.06 138.13,-130.2 128.06,-133.49 132.31,-139.06"/>
</g>
<!-- Node10&#45;&gt;Node11 -->
<g id="edge12" class="edge">
<title>Node10&#45;&gt;Node11</title>
<path fill="none" stroke="#63b8ff" d="M79.02,-165.52C85.51,-149.18 98.47,-123.22 119,-110.5 176.94,-74.6 381.72,-67.55 470,-66.19"/>
<polygon fill="#63b8ff" stroke="#63b8ff" points="469.97,-69.67 479.92,-66.04 469.87,-62.68 469.97,-69.67"/>
</g>
<!-- Node12 -->
<g id="node12" class="node">
<title>Node12</title>
<g id="a_node12"><a xlink:title=" ">
<polygon fill="#e0e0e0" stroke="#999999" points="536.25,-19.25 485.75,-19.25 485.75,0 536.25,0 536.25,-19.25"/>
<text text-anchor="middle" x="511" y="-5.75" font-family="Helvetica,sans-Serif" font-size="10.00">memory</text>
</a>
</g>
</g>
<!-- Node11&#45;&gt;Node12 -->
<g id="edge13" class="edge">
<title>Node11&#45;&gt;Node12</title>
<path fill="none" stroke="#63b8ff" d="M511,-55.08C511,-48.42 511,-38.99 511,-30.53"/>
<polygon fill="#63b8ff" stroke="#63b8ff" points="514.5,-30.61 511,-20.61 507.5,-30.61 514.5,-30.61"/>
</g>
<!-- Node13&#45;&gt;Node2 -->
<g id="edge15" class="edge">
<title>Node13&#45;&gt;Node2</title>
<path fill="none" stroke="#63b8ff" d="M345.99,-298.28C312.33,-289.95 262.02,-276.81 219,-262.75 217.53,-262.27 216.03,-261.76 214.52,-261.24"/>
<polygon fill="#63b8ff" stroke="#63b8ff" points="216.16,-257.75 205.56,-257.62 213.77,-264.32 216.16,-257.75"/>
</g>
<!-- Node13&#45;&gt;Node4 -->
<g id="edge16" class="edge">
<title>Node13&#45;&gt;Node4</title>
<path fill="none" stroke="#63b8ff" d="M353.07,-298.35C330.14,-290.85 298.71,-278.81 274,-262.75 222.94,-229.58 180.86,-169.32 161.87,-139.23"/>
<polygon fill="#63b8ff" stroke="#63b8ff" points="164.37,-137.62 156.14,-130.94 158.41,-141.29 164.37,-137.62"/>
</g>
<!-- Node13&#45;&gt;Node6 -->
<g id="edge17" class="edge">
<title>Node13&#45;&gt;Node6</title>
<path fill="none" stroke="#63b8ff" d="M365.41,-298.33C352.29,-290.81 335.72,-278.77 328,-262.75 322.12,-250.54 322.08,-244.45 328,-232.25 350.84,-185.16 404.39,-152.03 438.53,-134.81"/>
<polygon fill="#63b8ff" stroke="#63b8ff" points="439.57,-137.71 447.02,-130.18 436.5,-131.42 439.57,-137.71"/>
</g>
<!-- Node13&#45;&gt;Node11 -->
<g id="edge44" class="edge">
<title>Node13&#45;&gt;Node11</title>
<path fill="none" stroke="#63b8ff" d="M442.36,-299.59C489.65,-292.18 551.37,-279.65 570,-262.75 602.82,-232.98 607.93,-207.46 593,-165.75 580.62,-131.16 550.52,-99.95 530.44,-81.96"/>
<polygon fill="#63b8ff" stroke="#63b8ff" points="533.12,-78.78 523.27,-74.87 528.53,-84.07 533.12,-78.78"/>
</g>
<!-- Node14 -->
<g id="node14" class="node">
<title>Node14</title>
<g id="a_node14"><a xlink:href="finalizer-trait_8h.html" target="_top" xlink:title=" ">
<polygon fill="white" stroke="#666666" points="561,-262.75 449,-262.75 449,-232.25 561,-232.25 561,-262.75"/>
<text text-anchor="start" x="457" y="-249.25" font-family="Helvetica,sans-Serif" font-size="10.00">cppgc/internal/finalizer</text>
<text text-anchor="middle" x="505" y="-238" font-family="Helvetica,sans-Serif" font-size="10.00">&#45;trait.h</text>
</a>
</g>
</g>
<!-- Node13&#45;&gt;Node14 -->
<g id="edge18" class="edge">
<title>Node13&#45;&gt;Node14</title>
<path fill="none" stroke="#63b8ff" d="M402.64,-298.3C419.24,-290.23 444.08,-278.14 465.13,-267.9"/>
<polygon fill="#63b8ff" stroke="#63b8ff" points="466.34,-270.72 473.8,-263.19 463.28,-264.42 466.34,-270.72"/>
</g>
<!-- Node16 -->
<g id="node16" class="node">
<title>Node16</title>
<g id="a_node16"><a xlink:href="logging_8h.html" target="_top" xlink:title=" ">
<polygon fill="white" stroke="#666666" points="849,-257.12 731,-257.12 731,-237.88 849,-237.88 849,-257.12"/>
<text text-anchor="middle" x="790" y="-243.62" font-family="Helvetica,sans-Serif" font-size="10.00">cppgc/internal/logging.h</text>
</a>
</g>
</g>
<!-- Node13&#45;&gt;Node16 -->
<g id="edge24" class="edge">
<title>Node13&#45;&gt;Node16</title>
<path fill="none" stroke="#63b8ff" d="M442.6,-298.88C516.01,-288.23 641.64,-270.01 720.02,-258.65"/>
<polygon fill="#63b8ff" stroke="#63b8ff" points="720.36,-261.99 729.76,-257.09 719.36,-255.06 720.36,-261.99"/>
</g>
<!-- Node22 -->
<g id="node22" class="node">
<title>Node22</title>
<g id="a_node22"><a xlink:href="name-trait_8h.html" target="_top" xlink:title=" ">
<polygon fill="white" stroke="#666666" points="317.88,-196.25 214.12,-196.25 214.12,-165.75 317.88,-165.75 317.88,-196.25"/>
<text text-anchor="start" x="222.12" y="-182.75" font-family="Helvetica,sans-Serif" font-size="10.00">cppgc/internal/name</text>
<text text-anchor="middle" x="266" y="-171.5" font-family="Helvetica,sans-Serif" font-size="10.00">&#45;trait.h</text>
</a>
</g>
</g>
<!-- Node13&#45;&gt;Node22 -->
<g id="edge33" class="edge">
<title>Node13&#45;&gt;Node22</title>
<path fill="none" stroke="#63b8ff" d="M352.67,-298.28C333.68,-291.32 310.25,-279.95 295,-262.75 281.14,-247.12 273.76,-224.37 269.92,-207"/>
<polygon fill="#63b8ff" stroke="#63b8ff" points="273.22,-206.64 267.88,-197.49 266.35,-207.98 273.22,-206.64"/>
</g>
<!-- Node24 -->
<g id="node24" class="node">
<title>Node24</title>
<g id="a_node24"><a xlink:href="trace-trait_8h.html" target="_top" xlink:title=" ">
<polygon fill="white" stroke="#666666" points="431,-257.12 337,-257.12 337,-237.88 431,-237.88 431,-257.12"/>
<text text-anchor="middle" x="384" y="-243.62" font-family="Helvetica,sans-Serif" font-size="10.00">cppgc/trace&#45;trait.h</text>
</a>
</g>
</g>
<!-- Node13&#45;&gt;Node24 -->
<g id="edge40" class="edge">
<title>Node13&#45;&gt;Node24</title>
<path fill="none" stroke="#63b8ff" d="M384,-298.43C384,-290.48 384,-278.56 384,-268.37"/>
<polygon fill="#63b8ff" stroke="#63b8ff" points="387.5,-268.53 384,-258.53 380.5,-268.53 387.5,-268.53"/>
</g>
<!-- Node14&#45;&gt;Node6 -->
<g id="edge19" class="edge">
<title>Node14&#45;&gt;Node6</title>
<path fill="none" stroke="#63b8ff" d="M495.86,-232.13C490.1,-222.38 483.01,-208.99 479,-196.25 473.27,-178.03 470.82,-156.31 469.78,-140.92"/>
<polygon fill="#63b8ff" stroke="#63b8ff" points="473.23,-140.93 469.2,-131.13 466.24,-141.3 473.23,-140.93"/>
</g>
<!-- Node14&#45;&gt;Node15 -->
<g id="edge20" class="edge">
<title>Node14&#45;&gt;Node15</title>
<path fill="none" stroke="#63b8ff" d="M512.03,-231.86C516.49,-222.58 522.3,-210.5 527.09,-200.55"/>
<polygon fill="#63b8ff" stroke="#63b8ff" points="530.58,-202.35 531.76,-191.82 524.27,-199.32 530.58,-202.35"/>
</g>
<!-- Node15&#45;&gt;Node3 -->
<g id="edge21" class="edge">
<title>Node15&#45;&gt;Node3</title>
<path fill="none" stroke="#63b8ff" d="M535.19,-171.09C533.31,-156.01 527.22,-125.62 508,-110.5 466.54,-77.9 308.46,-69.05 237.2,-66.7"/>
<polygon fill="#63b8ff" stroke="#63b8ff" points="237.64,-63.18 227.54,-66.38 237.43,-70.18 237.64,-63.18"/>
</g>
<!-- Node15&#45;&gt;Node6 -->
<g id="edge22" class="edge">
<title>Node15&#45;&gt;Node6</title>
<path fill="none" stroke="#63b8ff" d="M525.82,-171.06C515.59,-162.07 499.6,-148.01 487.18,-137.1"/>
<polygon fill="#63b8ff" stroke="#63b8ff" points="490.09,-134.12 480.27,-130.15 485.47,-139.38 490.09,-134.12"/>
</g>
<!-- Node15&#45;&gt;Node7 -->
<g id="edge23" class="edge">
<title>Node15&#45;&gt;Node7</title>
<path fill="none" stroke="#63b8ff" d="M558.03,-170.93C582.51,-160.85 622.18,-144.52 649.37,-133.32"/>
<polygon fill="#63b8ff" stroke="#63b8ff" points="650.56,-136.21 658.47,-129.16 647.89,-129.74 650.56,-136.21"/>
</g>
<!-- Node16&#45;&gt;Node11 -->
<g id="edge32" class="edge">
<title>Node16&#45;&gt;Node11</title>
<path fill="none" stroke="#63b8ff" d="M787.27,-237.49C779.31,-212.88 753.71,-144.09 707,-110.5 660.96,-77.4 594.41,-68.34 551.93,-66.14"/>
<polygon fill="#63b8ff" stroke="#63b8ff" points="552.28,-62.61 542.15,-65.7 552,-69.6 552.28,-62.61"/>
</g>
<!-- Node17 -->
<g id="node17" class="node">
<title>Node17</title>
<g id="a_node17"><a xlink:href="source-location_8h.html" target="_top" xlink:title=" ">
<polygon fill="white" stroke="#666666" points="976.38,-190.62 857.62,-190.62 857.62,-171.38 976.38,-171.38 976.38,-190.62"/>
<text text-anchor="middle" x="917" y="-177.12" font-family="Helvetica,sans-Serif" font-size="10.00">cppgc/source&#45;location.h</text>
</a>
</g>
</g>
<!-- Node16&#45;&gt;Node17 -->
<g id="edge25" class="edge">
<title>Node16&#45;&gt;Node17</title>
<path fill="none" stroke="#63b8ff" d="M807.93,-237.4C829.2,-226.59 864.9,-208.46 889.63,-195.9"/>
<polygon fill="#63b8ff" stroke="#63b8ff" points="890.83,-198.71 898.16,-191.06 887.66,-192.47 890.83,-198.71"/>
</g>
<!-- Node18 -->
<g id="node18" class="node">
<title>Node18</title>
<g id="a_node18"><a xlink:href="v8-source-location_8h.html" target="_top" xlink:title=" ">
<polygon fill="white" stroke="#666666" points="961.5,-129.75 858.5,-129.75 858.5,-110.5 961.5,-110.5 961.5,-129.75"/>
<text text-anchor="middle" x="910" y="-116.25" font-family="Helvetica,sans-Serif" font-size="10.00">v8&#45;source&#45;location.h</text>
</a>
</g>
</g>
<!-- Node17&#45;&gt;Node18 -->
<g id="edge26" class="edge">
<title>Node17&#45;&gt;Node18</title>
<path fill="none" stroke="#63b8ff" d="M915.94,-171.06C914.99,-163.1 913.57,-151.19 912.36,-140.99"/>
<polygon fill="#63b8ff" stroke="#63b8ff" points="915.73,-140.67 911.07,-131.15 908.78,-141.49 915.73,-140.67"/>
</g>
<!-- Node18&#45;&gt;Node3 -->
<g id="edge27" class="edge">
<title>Node18&#45;&gt;Node3</title>
<path fill="none" stroke="#63b8ff" d="M858.23,-115.23C721.4,-104.94 352.82,-77.22 237.2,-68.52"/>
<polygon fill="#63b8ff" stroke="#63b8ff" points="237.74,-64.98 227.5,-67.72 237.21,-71.96 237.74,-64.98"/>
</g>
<!-- Node18&#45;&gt;Node11 -->
<g id="edge31" class="edge">
<title>Node18&#45;&gt;Node11</title>
<path fill="none" stroke="#63b8ff" d="M858.25,-112.22C777.92,-101.5 624.9,-81.08 551.82,-71.32"/>
<polygon fill="#63b8ff" stroke="#63b8ff" points="552.59,-67.76 542.22,-69.91 551.67,-74.7 552.59,-67.76"/>
</g>
<!-- Node19 -->
<g id="node19" class="node">
<title>Node19</title>
<g id="a_node19"><a xlink:title=" ">
<polygon fill="#e0e0e0" stroke="#999999" points="952.12,-74.5 867.88,-74.5 867.88,-55.25 952.12,-55.25 952.12,-74.5"/>
<text text-anchor="middle" x="910" y="-61" font-family="Helvetica,sans-Serif" font-size="10.00">source_location</text>
</a>
</g>
</g>
<!-- Node18&#45;&gt;Node19 -->
<g id="edge28" class="edge">
<title>Node18&#45;&gt;Node19</title>
<path fill="none" stroke="#63b8ff" d="M910,-110.33C910,-103.67 910,-94.24 910,-85.78"/>
<polygon fill="#63b8ff" stroke="#63b8ff" points="913.5,-85.86 910,-75.86 906.5,-85.86 913.5,-85.86"/>
</g>
<!-- Node20 -->
<g id="node20" class="node">
<title>Node20</title>
<g id="a_node20"><a xlink:title=" ">
<polygon fill="#e0e0e0" stroke="#999999" points="1021.62,-74.5 970.38,-74.5 970.38,-55.25 1021.62,-55.25 1021.62,-74.5"/>
<text text-anchor="middle" x="996" y="-61" font-family="Helvetica,sans-Serif" font-size="10.00">sstream</text>
</a>
</g>
</g>
<!-- Node18&#45;&gt;Node20 -->
<g id="edge29" class="edge">
<title>Node18&#45;&gt;Node20</title>
<path fill="none" stroke="#63b8ff" d="M924.59,-110.09C937.56,-102.06 956.78,-90.16 972.01,-80.73"/>
<polygon fill="#63b8ff" stroke="#63b8ff" points="973.68,-83.19 980.34,-74.95 970,-77.24 973.68,-83.19"/>
</g>
<!-- Node21 -->
<g id="node21" class="node">
<title>Node21</title>
<g id="a_node21"><a xlink:title=" ">
<polygon fill="#e0e0e0" stroke="#999999" points="850,-74.5 810,-74.5 810,-55.25 850,-55.25 850,-74.5"/>
<text text-anchor="middle" x="830" y="-61" font-family="Helvetica,sans-Serif" font-size="10.00">string</text>
</a>
</g>
</g>
<!-- Node18&#45;&gt;Node21 -->
<g id="edge30" class="edge">
<title>Node18&#45;&gt;Node21</title>
<path fill="none" stroke="#63b8ff" d="M896.43,-110.09C884.48,-102.14 866.82,-90.39 852.72,-81"/>
<polygon fill="#63b8ff" stroke="#63b8ff" points="854.9,-77.58 844.64,-74.95 851.02,-83.41 854.9,-77.58"/>
</g>
<!-- Node22&#45;&gt;Node3 -->
<g id="edge34" class="edge">
<title>Node22&#45;&gt;Node3</title>
<path fill="none" stroke="#63b8ff" d="M252.43,-165.5C243.98,-155.91 233.37,-142.75 226,-129.75 217.95,-115.56 211.62,-98.16 207.49,-85.11"/>
<polygon fill="#63b8ff" stroke="#63b8ff" points="210.66,-84.51 204.43,-75.94 203.96,-86.53 210.66,-84.51"/>
</g>
<!-- Node22&#45;&gt;Node4 -->
<g id="edge35" class="edge">
<title>Node22&#45;&gt;Node4</title>
<path fill="none" stroke="#63b8ff" d="M237.28,-165.3C219.26,-156.07 196.16,-144.25 178.4,-135.15"/>
<polygon fill="#63b8ff" stroke="#63b8ff" points="180.13,-131.6 169.64,-130.15 176.94,-137.83 180.13,-131.6"/>
</g>
<!-- Node22&#45;&gt;Node6 -->
<g id="edge36" class="edge">
<title>Node22&#45;&gt;Node6</title>
<path fill="none" stroke="#63b8ff" d="M316.7,-165.3C350.99,-155.35 395.7,-142.38 427.8,-133.07"/>
<polygon fill="#63b8ff" stroke="#63b8ff" points="428.54,-136.21 437.17,-130.07 426.59,-129.49 428.54,-136.21"/>
</g>
<!-- Node22&#45;&gt;Node11 -->
<g id="edge39" class="edge">
<title>Node22&#45;&gt;Node11</title>
<path fill="none" stroke="#63b8ff" d="M258.99,-165.43C252.69,-149.98 246.22,-125.74 259,-110.5 285.46,-78.94 405.73,-69.69 470.08,-66.99"/>
<polygon fill="#63b8ff" stroke="#63b8ff" points="470.18,-70.45 480.03,-66.57 469.91,-63.45 470.18,-70.45"/>
</g>
<!-- Node23 -->
<g id="node23" class="node">
<title>Node23</title>
<g id="a_node23"><a xlink:href="name-provider_8h.html" target="_top" xlink:title=" ">
<polygon fill="white" stroke="#666666" points="382.12,-129.75 267.88,-129.75 267.88,-110.5 382.12,-110.5 382.12,-129.75"/>
<text text-anchor="middle" x="325" y="-116.25" font-family="Helvetica,sans-Serif" font-size="10.00">cppgc/name&#45;provider.h</text>
</a>
</g>
</g>
<!-- Node22&#45;&gt;Node23 -->
<g id="edge37" class="edge">
<title>Node22&#45;&gt;Node23</title>
<path fill="none" stroke="#63b8ff" d="M280.58,-165.45C288.96,-157.09 299.52,-146.55 308.24,-137.85"/>
<polygon fill="#63b8ff" stroke="#63b8ff" points="310.3,-140.74 314.9,-131.2 305.35,-135.79 310.3,-140.74"/>
</g>
<!-- Node23&#45;&gt;Node11 -->
<g id="edge38" class="edge">
<title>Node23&#45;&gt;Node11</title>
<path fill="none" stroke="#63b8ff" d="M356.55,-110.09C388.02,-101.08 436.47,-87.21 470.7,-77.41"/>
<polygon fill="#63b8ff" stroke="#63b8ff" points="471.19,-80.63 479.84,-74.51 469.26,-73.9 471.19,-80.63"/>
</g>
<!-- Node24&#45;&gt;Node6 -->
<g id="edge41" class="edge">
<title>Node24&#45;&gt;Node6</title>
<path fill="none" stroke="#63b8ff" d="M390.11,-237.48C404.08,-216.88 438.55,-166.04 456.95,-138.89"/>
<polygon fill="#63b8ff" stroke="#63b8ff" points="460.23,-141.3 462.94,-131.06 454.43,-137.37 460.23,-141.3"/>
</g>
<!-- Node24&#45;&gt;Node11 -->
<g id="edge43" class="edge">
<title>Node24&#45;&gt;Node11</title>
<path fill="none" stroke="#63b8ff" d="M384.72,-237.46C387.03,-213.92 396.15,-149.82 429,-110.5 440.59,-96.62 457.65,-86.37 473.22,-79.21"/>
<polygon fill="#63b8ff" stroke="#63b8ff" points="474.34,-82.11 482.15,-74.95 471.58,-75.67 474.34,-82.11"/>
</g>
<!-- Node24&#45;&gt;Node15 -->
<g id="edge42" class="edge">
<title>Node24&#45;&gt;Node15</title>
<path fill="none" stroke="#63b8ff" d="M405.46,-237.4C431.37,-226.4 475.16,-207.81 504.81,-195.24"/>
<polygon fill="#63b8ff" stroke="#63b8ff" points="505.82,-198.19 513.65,-191.06 503.08,-191.74 505.82,-198.19"/>
</g>
</g>
</svg>
