<?xml version="1.0" encoding="UTF-8" standalone="no"?>
<!DOCTYPE svg PUBLIC "-//W3C//DTD SVG 1.1//EN"
 "http://www.w3.org/Graphics/SVG/1.1/DTD/svg11.dtd">
<!-- Generated by graphviz version 8.0.5 (20230430.1635)
 -->
<!-- Title: v8::Data Pages: 1 -->
<svg width="676pt" height="989pt"
 viewBox="0.00 0.00 676.00 989.25" xmlns="http://www.w3.org/2000/svg" xmlns:xlink="http://www.w3.org/1999/xlink">
<g id="graph0" class="graph" transform="scale(1 1) rotate(0) translate(4 985.25)">
<title>v8::Data</title>
<!-- Node1 -->
<g id="node1" class="node">
<title>Node1</title>
<g id="a_node1"><a xlink:title=" ">
<polygon fill="#999999" stroke="#666666" points="51.25,-722.25 0,-722.25 0,-703 51.25,-703 51.25,-722.25"/>
<text text-anchor="middle" x="25.62" y="-708.75" font-family="Helvetica,sans-Serif" font-size="10.00">v8::Data</text>
</a>
</g>
</g>
<!-- Node2 -->
<g id="node2" class="node">
<title>Node2</title>
<g id="a_node2"><a xlink:href="classv8_1_1CompileHintsCollector.html" target="_top" xlink:title=" ">
<polygon fill="white" stroke="#666666" points="215,-981.25 87.25,-981.25 87.25,-962 215,-962 215,-981.25"/>
<text text-anchor="middle" x="151.12" y="-967.75" font-family="Helvetica,sans-Serif" font-size="10.00">v8::CompileHintsCollector</text>
</a>
</g>
</g>
<!-- Node1&#45;&gt;Node2 -->
<g id="edge1" class="edge">
<title>Node1&#45;&gt;Node2</title>
<path fill="none" stroke="#63b8ff" d="M29.17,-733.35C36.02,-785.77 56.42,-921.78 87.25,-953.62 90.33,-956.81 93.93,-959.44 97.82,-961.61"/>
<polygon fill="#63b8ff" stroke="#63b8ff" points="32.55,-733.18 27.82,-723.71 25.61,-734.07 32.55,-733.18"/>
</g>
<!-- Node3 -->
<g id="node3" class="node">
<title>Node3</title>
<g id="a_node3"><a xlink:href="classv8_1_1Context.html" target="_top" xlink:title=" ">
<polygon fill="white" stroke="#666666" points="183.12,-944.25 119.12,-944.25 119.12,-925 183.12,-925 183.12,-944.25"/>
<text text-anchor="middle" x="151.12" y="-930.75" font-family="Helvetica,sans-Serif" font-size="10.00">v8::Context</text>
</a>
</g>
</g>
<!-- Node1&#45;&gt;Node3 -->
<g id="edge2" class="edge">
<title>Node1&#45;&gt;Node3</title>
<path fill="none" stroke="#63b8ff" d="M26.59,-733.32C27.69,-774.25 36.09,-865.98 87.25,-916.62 95.64,-924.93 107.59,-929.46 118.82,-931.91"/>
<polygon fill="#63b8ff" stroke="#63b8ff" points="30.08,-733.3 26.45,-723.35 23.08,-733.39 30.08,-733.3"/>
</g>
<!-- Node4 -->
<g id="node4" class="node">
<title>Node4</title>
<g id="a_node4"><a xlink:href="classv8_1_1CppHeapExternal.html" target="_top" xlink:title=" ">
<polygon fill="white" stroke="#666666" points="204.12,-907.25 98.12,-907.25 98.12,-888 204.12,-888 204.12,-907.25"/>
<text text-anchor="middle" x="151.12" y="-893.75" font-family="Helvetica,sans-Serif" font-size="10.00">v8::CppHeapExternal</text>
</a>
</g>
</g>
<!-- Node1&#45;&gt;Node4 -->
<g id="edge3" class="edge">
<title>Node1&#45;&gt;Node4</title>
<path fill="none" stroke="#63b8ff" d="M28.22,-733.42C32.05,-768.66 44.88,-840.1 87.25,-879.62 90.65,-882.8 94.58,-885.42 98.77,-887.58"/>
<polygon fill="#63b8ff" stroke="#63b8ff" points="31.62,-733.21 27.21,-723.58 24.65,-733.87 31.62,-733.21"/>
</g>
<!-- Node5 -->
<g id="node5" class="node">
<title>Node5</title>
<g id="a_node5"><a xlink:href="classv8_1_1DictionaryTemplate.html" target="_top" xlink:title=" ">
<polygon fill="white" stroke="#666666" points="208.25,-870.25 94,-870.25 94,-851 208.25,-851 208.25,-870.25"/>
<text text-anchor="middle" x="151.12" y="-856.75" font-family="Helvetica,sans-Serif" font-size="10.00">v8::DictionaryTemplate</text>
</a>
</g>
</g>
<!-- Node1&#45;&gt;Node5 -->
<g id="edge4" class="edge">
<title>Node1&#45;&gt;Node5</title>
<path fill="none" stroke="#63b8ff" d="M30.55,-732.84C37.16,-761.48 53.29,-813.63 87.25,-842.62 90.96,-845.79 95.2,-848.41 99.69,-850.56"/>
<polygon fill="#63b8ff" stroke="#63b8ff" points="33.84,-732.5 28.33,-723.45 26.99,-733.96 33.84,-732.5"/>
</g>
<!-- Node6 -->
<g id="node6" class="node">
<title>Node6</title>
<g id="a_node6"><a xlink:href="classv8_1_1FixedArray.html" target="_top" xlink:title=" ">
<polygon fill="white" stroke="#666666" points="189.5,-833.25 112.75,-833.25 112.75,-814 189.5,-814 189.5,-833.25"/>
<text text-anchor="middle" x="151.12" y="-819.75" font-family="Helvetica,sans-Serif" font-size="10.00">v8::FixedArray</text>
</a>
</g>
</g>
<!-- Node1&#45;&gt;Node6 -->
<g id="edge5" class="edge">
<title>Node1&#45;&gt;Node6</title>
<path fill="none" stroke="#63b8ff" d="M34.57,-732.61C44.02,-753.82 61.77,-786.81 87.25,-805.62 94.65,-811.09 103.66,-814.9 112.52,-817.55"/>
<polygon fill="#63b8ff" stroke="#63b8ff" points="37.51,-731.58 30.4,-723.74 31.07,-734.31 37.51,-731.58"/>
</g>
<!-- Node7 -->
<g id="node7" class="node">
<title>Node7</title>
<g id="a_node7"><a xlink:href="classv8_1_1Module.html" target="_top" xlink:title=" ">
<polygon fill="white" stroke="#666666" points="182.38,-796.25 119.88,-796.25 119.88,-777 182.38,-777 182.38,-796.25"/>
<text text-anchor="middle" x="151.12" y="-782.75" font-family="Helvetica,sans-Serif" font-size="10.00">v8::Module</text>
</a>
</g>
</g>
<!-- Node1&#45;&gt;Node7 -->
<g id="edge6" class="edge">
<title>Node1&#45;&gt;Node7</title>
<path fill="none" stroke="#63b8ff" d="M41.91,-730.64C53.27,-742.96 69.76,-758.79 87.25,-768.62 97.15,-774.19 108.91,-778.15 119.56,-780.92"/>
<polygon fill="#63b8ff" stroke="#63b8ff" points="44.87,-728.57 35.61,-723.42 39.64,-733.22 44.87,-728.57"/>
</g>
<!-- Node8 -->
<g id="node8" class="node">
<title>Node8</title>
<g id="a_node8"><a xlink:href="classv8_1_1ModuleRequest.html" target="_top" xlink:title=" ">
<polygon fill="white" stroke="#666666" points="200.38,-759.25 101.88,-759.25 101.88,-740 200.38,-740 200.38,-759.25"/>
<text text-anchor="middle" x="151.12" y="-745.75" font-family="Helvetica,sans-Serif" font-size="10.00">v8::ModuleRequest</text>
</a>
</g>
</g>
<!-- Node1&#45;&gt;Node8 -->
<g id="edge7" class="edge">
<title>Node1&#45;&gt;Node8</title>
<path fill="none" stroke="#63b8ff" d="M62.11,-723.91C70.35,-726.48 79.1,-729.18 87.25,-731.62 96.06,-734.27 105.59,-737.04 114.5,-739.59"/>
<polygon fill="#63b8ff" stroke="#63b8ff" points="63.24,-720.28 52.65,-720.62 61.14,-726.96 63.24,-720.28"/>
</g>
<!-- Node9 -->
<g id="node9" class="node">
<title>Node9</title>
<g id="a_node9"><a xlink:href="classv8_1_1PrimitiveArray.html" target="_top" xlink:title=" ">
<polygon fill="white" stroke="#666666" points="197,-722.25 105.25,-722.25 105.25,-703 197,-703 197,-722.25"/>
<text text-anchor="middle" x="151.12" y="-708.75" font-family="Helvetica,sans-Serif" font-size="10.00">v8::PrimitiveArray</text>
</a>
</g>
</g>
<!-- Node1&#45;&gt;Node9 -->
<g id="edge8" class="edge">
<title>Node1&#45;&gt;Node9</title>
<path fill="none" stroke="#63b8ff" d="M62.31,-712.62C75.69,-712.62 91.07,-712.62 105.18,-712.62"/>
<polygon fill="#63b8ff" stroke="#63b8ff" points="62.62,-709.13 52.62,-712.62 62.62,-716.13 62.62,-709.13"/>
</g>
<!-- Node10 -->
<g id="node10" class="node">
<title>Node10</title>
<g id="a_node10"><a xlink:href="classv8_1_1Private.html" target="_top" xlink:title=" ">
<polygon fill="white" stroke="#666666" points="182,-685.25 120.25,-685.25 120.25,-666 182,-666 182,-685.25"/>
<text text-anchor="middle" x="151.12" y="-671.75" font-family="Helvetica,sans-Serif" font-size="10.00">v8::Private</text>
</a>
</g>
</g>
<!-- Node1&#45;&gt;Node10 -->
<g id="edge9" class="edge">
<title>Node1&#45;&gt;Node10</title>
<path fill="none" stroke="#63b8ff" d="M62.11,-701.34C70.35,-698.77 79.1,-696.07 87.25,-693.62 97.91,-690.43 109.62,-687.04 120.02,-684.08"/>
<polygon fill="#63b8ff" stroke="#63b8ff" points="61.14,-698.29 52.65,-704.63 63.24,-704.97 61.14,-698.29"/>
</g>
<!-- Node11 -->
<g id="node11" class="node">
<title>Node11</title>
<g id="a_node11"><a xlink:href="classv8_1_1Script.html" target="_top" xlink:title=" ">
<polygon fill="white" stroke="#666666" points="179.38,-648.25 122.88,-648.25 122.88,-629 179.38,-629 179.38,-648.25"/>
<text text-anchor="middle" x="151.12" y="-634.75" font-family="Helvetica,sans-Serif" font-size="10.00">v8::Script</text>
</a>
</g>
</g>
<!-- Node1&#45;&gt;Node11 -->
<g id="edge10" class="edge">
<title>Node1&#45;&gt;Node11</title>
<path fill="none" stroke="#63b8ff" d="M41.91,-694.61C53.27,-682.29 69.76,-666.46 87.25,-656.62 98.04,-650.56 111.04,-646.39 122.41,-643.61"/>
<polygon fill="#63b8ff" stroke="#63b8ff" points="39.64,-692.03 35.61,-701.83 44.87,-696.68 39.64,-692.03"/>
</g>
<!-- Node12 -->
<g id="node12" class="node">
<title>Node12</title>
<g id="a_node12"><a xlink:href="classv8_1_1Signature.html" target="_top" xlink:title=" ">
<polygon fill="white" stroke="#666666" points="187.25,-611.25 115,-611.25 115,-592 187.25,-592 187.25,-611.25"/>
<text text-anchor="middle" x="151.12" y="-597.75" font-family="Helvetica,sans-Serif" font-size="10.00">v8::Signature</text>
</a>
</g>
</g>
<!-- Node1&#45;&gt;Node12 -->
<g id="edge11" class="edge">
<title>Node1&#45;&gt;Node12</title>
<path fill="none" stroke="#63b8ff" d="M34.57,-692.64C44.02,-671.43 61.77,-638.44 87.25,-619.62 95.29,-613.69 105.23,-609.71 114.82,-607.04"/>
<polygon fill="#63b8ff" stroke="#63b8ff" points="31.07,-690.94 30.4,-701.51 37.51,-693.67 31.07,-690.94"/>
</g>
<!-- Node13 -->
<g id="node13" class="node">
<title>Node13</title>
<g id="a_node13"><a xlink:href="classv8_1_1Template.html" target="_top" xlink:title=" ">
<polygon fill="white" stroke="#666666" points="186.88,-574.25 115.38,-574.25 115.38,-555 186.88,-555 186.88,-574.25"/>
<text text-anchor="middle" x="151.12" y="-560.75" font-family="Helvetica,sans-Serif" font-size="10.00">v8::Template</text>
</a>
</g>
</g>
<!-- Node1&#45;&gt;Node13 -->
<g id="edge12" class="edge">
<title>Node1&#45;&gt;Node13</title>
<path fill="none" stroke="#63b8ff" d="M30.55,-692.41C37.16,-663.77 53.29,-611.62 87.25,-582.62 95.02,-575.99 105.1,-571.8 114.9,-569.15"/>
<polygon fill="#63b8ff" stroke="#63b8ff" points="26.99,-691.29 28.33,-701.8 33.84,-692.75 26.99,-691.29"/>
</g>
<!-- Node16 -->
<g id="node16" class="node">
<title>Node16</title>
<g id="a_node16"><a xlink:href="classv8_1_1UnboundModuleScript.html" target="_top" xlink:title=" ">
<polygon fill="white" stroke="#666666" points="214.62,-537.25 87.62,-537.25 87.62,-518 214.62,-518 214.62,-537.25"/>
<text text-anchor="middle" x="151.12" y="-523.75" font-family="Helvetica,sans-Serif" font-size="10.00">v8::UnboundModuleScript</text>
</a>
</g>
</g>
<!-- Node1&#45;&gt;Node16 -->
<g id="edge15" class="edge">
<title>Node1&#45;&gt;Node16</title>
<path fill="none" stroke="#63b8ff" d="M28.22,-691.83C32.05,-656.59 44.88,-585.15 87.25,-545.62 90.65,-542.45 94.58,-539.83 98.77,-537.67"/>
<polygon fill="#63b8ff" stroke="#63b8ff" points="24.65,-691.38 27.21,-701.67 31.62,-692.04 24.65,-691.38"/>
</g>
<!-- Node17 -->
<g id="node17" class="node">
<title>Node17</title>
<g id="a_node17"><a xlink:href="classv8_1_1UnboundScript.html" target="_top" xlink:title=" ">
<polygon fill="white" stroke="#666666" points="198.88,-500.25 103.38,-500.25 103.38,-481 198.88,-481 198.88,-500.25"/>
<text text-anchor="middle" x="151.12" y="-486.75" font-family="Helvetica,sans-Serif" font-size="10.00">v8::UnboundScript</text>
</a>
</g>
</g>
<!-- Node1&#45;&gt;Node17 -->
<g id="edge16" class="edge">
<title>Node1&#45;&gt;Node17</title>
<path fill="none" stroke="#63b8ff" d="M26.59,-691.93C27.69,-651 36.09,-559.27 87.25,-508.62 91.69,-504.23 97.12,-500.89 102.92,-498.36"/>
<polygon fill="#63b8ff" stroke="#63b8ff" points="23.08,-691.86 26.45,-701.9 30.08,-691.95 23.08,-691.86"/>
</g>
<!-- Node18 -->
<g id="node18" class="node">
<title>Node18</title>
<g id="a_node18"><a xlink:href="classv8_1_1Value.html" target="_top" xlink:title=" ">
<polygon fill="white" stroke="#666666" points="179,-463.25 123.25,-463.25 123.25,-444 179,-444 179,-463.25"/>
<text text-anchor="middle" x="151.12" y="-449.75" font-family="Helvetica,sans-Serif" font-size="10.00">v8::Value</text>
</a>
</g>
</g>
<!-- Node1&#45;&gt;Node18 -->
<g id="edge17" class="edge">
<title>Node1&#45;&gt;Node18</title>
<path fill="none" stroke="#63b8ff" d="M29.17,-691.9C36.02,-639.48 56.42,-503.47 87.25,-471.62 96.49,-462.08 110.42,-457.5 122.82,-455.34"/>
<polygon fill="#63b8ff" stroke="#63b8ff" points="25.61,-691.18 27.82,-701.54 32.55,-692.07 25.61,-691.18"/>
</g>
<!-- Node14 -->
<g id="node14" class="node">
<title>Node14</title>
<g id="a_node14"><a xlink:href="classv8_1_1FunctionTemplate.html" target="_top" xlink:title=" ">
<polygon fill="white" stroke="#666666" points="360,-592.25 251,-592.25 251,-573 360,-573 360,-592.25"/>
<text text-anchor="middle" x="305.5" y="-578.75" font-family="Helvetica,sans-Serif" font-size="10.00">v8::FunctionTemplate</text>
</a>
</g>
</g>
<!-- Node13&#45;&gt;Node14 -->
<g id="edge13" class="edge">
<title>Node13&#45;&gt;Node14</title>
<path fill="none" stroke="#63b8ff" d="M197.64,-570C214.29,-571.97 233.27,-574.21 250.58,-576.26"/>
<polygon fill="#63b8ff" stroke="#63b8ff" points="198.42,-566.45 188.08,-568.75 197.6,-573.4 198.42,-566.45"/>
</g>
<!-- Node15 -->
<g id="node15" class="node">
<title>Node15</title>
<g id="a_node15"><a xlink:href="classv8_1_1ObjectTemplate.html" target="_top" xlink:title=" ">
<polygon fill="white" stroke="#666666" points="355.5,-555.25 255.5,-555.25 255.5,-536 355.5,-536 355.5,-555.25"/>
<text text-anchor="middle" x="305.5" y="-541.75" font-family="Helvetica,sans-Serif" font-size="10.00">v8::ObjectTemplate</text>
</a>
</g>
</g>
<!-- Node13&#45;&gt;Node15 -->
<g id="edge14" class="edge">
<title>Node13&#45;&gt;Node15</title>
<path fill="none" stroke="#63b8ff" d="M197.95,-558.91C216.04,-556.66 236.86,-554.06 255.27,-551.76"/>
<polygon fill="#63b8ff" stroke="#63b8ff" points="197.57,-555.56 188.08,-560.27 198.44,-562.5 197.57,-555.56"/>
</g>
<!-- Node19 -->
<g id="node19" class="node">
<title>Node19</title>
<g id="a_node19"><a xlink:href="classv8_1_1External.html" target="_top" xlink:title=" ">
<polygon fill="white" stroke="#666666" points="338.25,-500.25 272.75,-500.25 272.75,-481 338.25,-481 338.25,-500.25"/>
<text text-anchor="middle" x="305.5" y="-486.75" font-family="Helvetica,sans-Serif" font-size="10.00">v8::External</text>
</a>
</g>
</g>
<!-- Node18&#45;&gt;Node19 -->
<g id="edge18" class="edge">
<title>Node18&#45;&gt;Node19</title>
<path fill="none" stroke="#63b8ff" d="M189.73,-462.76C215.14,-468.93 248.33,-476.99 272.48,-482.85"/>
<polygon fill="#63b8ff" stroke="#63b8ff" points="190.91,-459.2 180.37,-460.24 189.26,-466 190.91,-459.2"/>
</g>
<!-- Node20 -->
<g id="node20" class="node">
<title>Node20</title>
<g id="a_node20"><a xlink:href="classv8_1_1Object.html" target="_top" xlink:title=" ">
<polygon fill="white" stroke="#666666" points="335.25,-463.25 275.75,-463.25 275.75,-444 335.25,-444 335.25,-463.25"/>
<text text-anchor="middle" x="305.5" y="-449.75" font-family="Helvetica,sans-Serif" font-size="10.00">v8::Object</text>
</a>
</g>
</g>
<!-- Node18&#45;&gt;Node20 -->
<g id="edge19" class="edge">
<title>Node18&#45;&gt;Node20</title>
<path fill="none" stroke="#63b8ff" d="M190.13,-453.62C216.54,-453.62 251.2,-453.62 275.42,-453.62"/>
<polygon fill="#63b8ff" stroke="#63b8ff" points="190.37,-450.13 180.37,-453.62 190.37,-457.13 190.37,-450.13"/>
</g>
<!-- Node55 -->
<g id="node43" class="node">
<title>Node55</title>
<g id="a_node43"><a xlink:href="classv8_1_1Primitive.html" target="_top" xlink:title=" ">
<polygon fill="white" stroke="#666666" points="340.12,-74.25 270.88,-74.25 270.88,-55 340.12,-55 340.12,-74.25"/>
<text text-anchor="middle" x="305.5" y="-60.75" font-family="Helvetica,sans-Serif" font-size="10.00">v8::Primitive</text>
</a>
</g>
</g>
<!-- Node18&#45;&gt;Node55 -->
<g id="edge42" class="edge">
<title>Node18&#45;&gt;Node55</title>
<path fill="none" stroke="#63b8ff" d="M159.9,-433.78C187.53,-363.25 280.42,-126.11 300.61,-74.57"/>
<polygon fill="#63b8ff" stroke="#63b8ff" points="156.43,-432.03 156.04,-442.62 162.95,-434.58 156.43,-432.03"/>
</g>
<!-- Node21 -->
<g id="node21" class="node">
<title>Node21</title>
<g id="a_node21"><a xlink:href="classv8_1_1Array.html" target="_top" xlink:title=" ">
<polygon fill="white" stroke="#666666" points="500.88,-833.25 447.38,-833.25 447.38,-814 500.88,-814 500.88,-833.25"/>
<text text-anchor="middle" x="474.12" y="-819.75" font-family="Helvetica,sans-Serif" font-size="10.00">v8::Array</text>
</a>
</g>
</g>
<!-- Node20&#45;&gt;Node21 -->
<g id="edge20" class="edge">
<title>Node20&#45;&gt;Node21</title>
<path fill="none" stroke="#63b8ff" d="M345.75,-460.9C351.22,-463.48 356.24,-466.95 360,-471.62 453.51,-588.02 297.05,-693.82 396,-805.62 408.57,-819.83 430,-823.95 447.09,-824.73"/>
<polygon fill="#63b8ff" stroke="#63b8ff" points="347.2,-457.34 336.61,-457.18 344.79,-463.91 347.2,-457.34"/>
</g>
<!-- Node22 -->
<g id="node22" class="node">
<title>Node22</title>
<g id="a_node22"><a xlink:href="classv8_1_1ArrayBuffer.html" target="_top" xlink:title=" ">
<polygon fill="white" stroke="#666666" points="513.62,-796.25 434.62,-796.25 434.62,-777 513.62,-777 513.62,-796.25"/>
<text text-anchor="middle" x="474.12" y="-782.75" font-family="Helvetica,sans-Serif" font-size="10.00">v8::ArrayBuffer</text>
</a>
</g>
</g>
<!-- Node20&#45;&gt;Node22 -->
<g id="edge21" class="edge">
<title>Node20&#45;&gt;Node22</title>
<path fill="none" stroke="#63b8ff" d="M345.7,-460.95C351.17,-463.51 356.21,-466.97 360,-471.62 443.96,-574.73 307.22,-669.64 396,-768.62 405.64,-779.37 420.35,-784.33 434.34,-786.44"/>
<polygon fill="#63b8ff" stroke="#63b8ff" points="347.15,-457.38 336.55,-457.22 344.73,-463.95 347.15,-457.38"/>
</g>
<!-- Node23 -->
<g id="node23" class="node">
<title>Node23</title>
<g id="a_node23"><a xlink:href="classv8_1_1ArrayBufferView.html" target="_top" xlink:title=" ">
<polygon fill="white" stroke="#666666" points="524.5,-759.25 423.75,-759.25 423.75,-740 524.5,-740 524.5,-759.25"/>
<text text-anchor="middle" x="474.12" y="-745.75" font-family="Helvetica,sans-Serif" font-size="10.00">v8::ArrayBufferView</text>
</a>
</g>
</g>
<!-- Node20&#45;&gt;Node23 -->
<g id="edge22" class="edge">
<title>Node20&#45;&gt;Node23</title>
<path fill="none" stroke="#63b8ff" d="M345.63,-461C351.11,-463.56 356.17,-467 360,-471.62 434.43,-561.45 317.38,-645.44 396,-731.62 403.23,-739.55 413.21,-744.31 423.6,-747.11"/>
<polygon fill="#63b8ff" stroke="#63b8ff" points="347.07,-457.44 336.48,-457.28 344.66,-464.01 347.07,-457.44"/>
</g>
<!-- Node38 -->
<g id="node26" class="node">
<title>Node38</title>
<g id="a_node26"><a xlink:href="classv8_1_1BigIntObject.html" target="_top" xlink:title=" ">
<polygon fill="white" stroke="#666666" points="516.62,-722.25 431.62,-722.25 431.62,-703 516.62,-703 516.62,-722.25"/>
<text text-anchor="middle" x="474.12" y="-708.75" font-family="Helvetica,sans-Serif" font-size="10.00">v8::BigIntObject</text>
</a>
</g>
</g>
<!-- Node20&#45;&gt;Node38 -->
<g id="edge25" class="edge">
<title>Node20&#45;&gt;Node38</title>
<path fill="none" stroke="#63b8ff" d="M345.71,-461.16C351.14,-463.7 356.16,-467.09 360,-471.62 424.92,-548.21 327.51,-621.22 396,-694.62 405.1,-704.38 418.38,-709.32 431.36,-711.7"/>
<polygon fill="#63b8ff" stroke="#63b8ff" points="347.26,-457.63 336.66,-457.44 344.83,-464.19 347.26,-457.63"/>
</g>
<!-- Node39 -->
<g id="node27" class="node">
<title>Node39</title>
<g id="a_node27"><a xlink:href="classv8_1_1BooleanObject.html" target="_top" xlink:title=" ">
<polygon fill="white" stroke="#666666" points="521.5,-685.25 426.75,-685.25 426.75,-666 521.5,-666 521.5,-685.25"/>
<text text-anchor="middle" x="474.12" y="-671.75" font-family="Helvetica,sans-Serif" font-size="10.00">v8::BooleanObject</text>
</a>
</g>
</g>
<!-- Node20&#45;&gt;Node39 -->
<g id="edge26" class="edge">
<title>Node20&#45;&gt;Node39</title>
<path fill="none" stroke="#63b8ff" d="M345.58,-461.26C351.03,-463.79 356.09,-467.15 360,-471.62 415.44,-535 337.61,-596.96 396,-657.62 404.01,-665.95 415.07,-670.74 426.31,-673.44"/>
<polygon fill="#63b8ff" stroke="#63b8ff" points="347.13,-457.73 336.53,-457.55 344.7,-464.3 347.13,-457.73"/>
</g>
<!-- Node40 -->
<g id="node28" class="node">
<title>Node40</title>
<g id="a_node28"><a xlink:href="classv8_1_1Date.html" target="_top" xlink:title=" ">
<polygon fill="white" stroke="#666666" points="499.75,-648.25 448.5,-648.25 448.5,-629 499.75,-629 499.75,-648.25"/>
<text text-anchor="middle" x="474.12" y="-634.75" font-family="Helvetica,sans-Serif" font-size="10.00">v8::Date</text>
</a>
</g>
</g>
<!-- Node20&#45;&gt;Node40 -->
<g id="edge27" class="edge">
<title>Node20&#45;&gt;Node40</title>
<path fill="none" stroke="#63b8ff" d="M345.58,-461.5C350.98,-464 356.03,-467.29 360,-471.62 406.02,-521.86 347.64,-572.64 396,-620.62 409.57,-634.09 431.14,-638.24 448.02,-639.22"/>
<polygon fill="#63b8ff" stroke="#63b8ff" points="347.22,-458 336.62,-457.8 344.78,-464.56 347.22,-458"/>
</g>
<!-- Node41 -->
<g id="node29" class="node">
<title>Node41</title>
<g id="a_node29"><a xlink:href="classv8_1_1Function.html" target="_top" xlink:title=" ">
<polygon fill="white" stroke="#666666" points="508.38,-611.25 439.88,-611.25 439.88,-592 508.38,-592 508.38,-611.25"/>
<text text-anchor="middle" x="474.12" y="-597.75" font-family="Helvetica,sans-Serif" font-size="10.00">v8::Function</text>
</a>
</g>
</g>
<!-- Node20&#45;&gt;Node41 -->
<g id="edge28" class="edge">
<title>Node20&#45;&gt;Node41</title>
<path fill="none" stroke="#63b8ff" d="M345.87,-462.02C351.1,-464.45 356.02,-467.59 360,-471.62 396.72,-508.85 357.55,-548.19 396,-583.62 407.73,-594.43 424.66,-599.14 439.68,-601.06"/>
<polygon fill="#63b8ff" stroke="#63b8ff" points="347.2,-458.41 336.61,-458.16 344.74,-464.96 347.2,-458.41"/>
</g>
<!-- Node42 -->
<g id="node30" class="node">
<title>Node42</title>
<g id="a_node30"><a xlink:href="classv8_1_1Map.html" target="_top" xlink:title=" ">
<polygon fill="white" stroke="#666666" points="499,-574.25 449.25,-574.25 449.25,-555 499,-555 499,-574.25"/>
<text text-anchor="middle" x="474.12" y="-560.75" font-family="Helvetica,sans-Serif" font-size="10.00">v8::Map</text>
</a>
</g>
</g>
<!-- Node20&#45;&gt;Node42 -->
<g id="edge29" class="edge">
<title>Node20&#45;&gt;Node42</title>
<path fill="none" stroke="#63b8ff" d="M345.73,-462.68C350.9,-465.01 355.84,-467.95 360,-471.62 387.7,-496.11 367.16,-523.48 396,-546.62 410.91,-558.59 432.36,-562.87 448.86,-564.28"/>
<polygon fill="#63b8ff" stroke="#63b8ff" points="347.24,-459.13 336.64,-458.88 344.77,-465.68 347.24,-459.13"/>
</g>
<!-- Node43 -->
<g id="node31" class="node">
<title>Node43</title>
<g id="a_node31"><a xlink:href="classv8_1_1NumberObject.html" target="_top" xlink:title=" ">
<polygon fill="white" stroke="#666666" points="521.12,-537.25 427.12,-537.25 427.12,-518 521.12,-518 521.12,-537.25"/>
<text text-anchor="middle" x="474.12" y="-523.75" font-family="Helvetica,sans-Serif" font-size="10.00">v8::NumberObject</text>
</a>
</g>
</g>
<!-- Node20&#45;&gt;Node43 -->
<g id="edge30" class="edge">
<title>Node20&#45;&gt;Node43</title>
<path fill="none" stroke="#63b8ff" d="M345.86,-464.37C350.79,-466.43 355.64,-468.84 360,-471.62 379.61,-484.15 375.82,-498.05 396,-509.62 405.42,-515.03 416.37,-518.81 427.01,-521.46"/>
<polygon fill="#63b8ff" stroke="#63b8ff" points="347.31,-460.81 336.71,-460.62 344.88,-467.37 347.31,-460.81"/>
</g>
<!-- Node44 -->
<g id="node32" class="node">
<title>Node44</title>
<g id="a_node32"><a xlink:href="classv8_1_1Promise.html" target="_top" xlink:title=" ">
<polygon fill="white" stroke="#666666" points="507.62,-500.25 440.62,-500.25 440.62,-481 507.62,-481 507.62,-500.25"/>
<text text-anchor="middle" x="474.12" y="-486.75" font-family="Helvetica,sans-Serif" font-size="10.00">v8::Promise</text>
</a>
</g>
</g>
<!-- Node20&#45;&gt;Node44 -->
<g id="edge31" class="edge">
<title>Node20&#45;&gt;Node44</title>
<path fill="none" stroke="#63b8ff" d="M346,-462.4C374.7,-468.77 413.09,-477.29 440.15,-483.3"/>
<polygon fill="#63b8ff" stroke="#63b8ff" points="347.04,-458.82 336.52,-460.07 345.53,-465.65 347.04,-458.82"/>
</g>
<!-- Node45 -->
<g id="node33" class="node">
<title>Node45</title>
<g id="a_node33"><a xlink:href="classv8_1_1Promise_1_1Resolver.html" target="_top" xlink:title=" ">
<polygon fill="white" stroke="#666666" points="529,-463.25 419.25,-463.25 419.25,-444 529,-444 529,-463.25"/>
<text text-anchor="middle" x="474.12" y="-449.75" font-family="Helvetica,sans-Serif" font-size="10.00">v8::Promise::Resolver</text>
</a>
</g>
</g>
<!-- Node20&#45;&gt;Node45 -->
<g id="edge32" class="edge">
<title>Node20&#45;&gt;Node45</title>
<path fill="none" stroke="#63b8ff" d="M346.33,-453.62C368.05,-453.62 395.24,-453.62 418.87,-453.62"/>
<polygon fill="#63b8ff" stroke="#63b8ff" points="346.52,-450.13 336.52,-453.62 346.52,-457.13 346.52,-450.13"/>
</g>
<!-- Node46 -->
<g id="node34" class="node">
<title>Node46</title>
<g id="a_node34"><a xlink:href="classv8_1_1Proxy.html" target="_top" xlink:title=" ">
<polygon fill="white" stroke="#666666" points="501.62,-426.25 446.62,-426.25 446.62,-407 501.62,-407 501.62,-426.25"/>
<text text-anchor="middle" x="474.12" y="-412.75" font-family="Helvetica,sans-Serif" font-size="10.00">v8::Proxy</text>
</a>
</g>
</g>
<!-- Node20&#45;&gt;Node46 -->
<g id="edge33" class="edge">
<title>Node20&#45;&gt;Node46</title>
<path fill="none" stroke="#63b8ff" d="M345.97,-444.86C376.94,-437.98 419.23,-428.59 446.36,-422.57"/>
<polygon fill="#63b8ff" stroke="#63b8ff" points="345.53,-441.6 336.52,-447.18 347.04,-448.43 345.53,-441.6"/>
</g>
<!-- Node47 -->
<g id="node35" class="node">
<title>Node47</title>
<g id="a_node35"><a xlink:href="classv8_1_1RegExp.html" target="_top" xlink:title=" ">
<polygon fill="white" stroke="#666666" points="506.12,-389.25 442.12,-389.25 442.12,-370 506.12,-370 506.12,-389.25"/>
<text text-anchor="middle" x="474.12" y="-375.75" font-family="Helvetica,sans-Serif" font-size="10.00">v8::RegExp</text>
</a>
</g>
</g>
<!-- Node20&#45;&gt;Node47 -->
<g id="edge34" class="edge">
<title>Node20&#45;&gt;Node47</title>
<path fill="none" stroke="#63b8ff" d="M328.2,-437.18C345.67,-424.66 371.3,-407.9 396,-397.62 410.6,-391.55 427.65,-387.3 441.99,-384.46"/>
<polygon fill="#63b8ff" stroke="#63b8ff" points="326.39,-434.89 320.39,-443.62 330.53,-440.54 326.39,-434.89"/>
</g>
<!-- Node48 -->
<g id="node36" class="node">
<title>Node48</title>
<g id="a_node36"><a xlink:href="classv8_1_1Set.html" target="_top" xlink:title=" ">
<polygon fill="white" stroke="#666666" points="497.12,-352.25 451.12,-352.25 451.12,-333 497.12,-333 497.12,-352.25"/>
<text text-anchor="middle" x="474.12" y="-338.75" font-family="Helvetica,sans-Serif" font-size="10.00">v8::Set</text>
</a>
</g>
</g>
<!-- Node20&#45;&gt;Node48 -->
<g id="edge35" class="edge">
<title>Node20&#45;&gt;Node48</title>
<path fill="none" stroke="#63b8ff" d="M319.29,-434.9C334.88,-413.56 363.23,-379.26 396,-360.62 412.97,-350.98 434.85,-346.49 450.96,-344.41"/>
<polygon fill="#63b8ff" stroke="#63b8ff" points="315.99,-432.5 313.06,-442.68 321.7,-436.55 315.99,-432.5"/>
</g>
<!-- Node49 -->
<g id="node37" class="node">
<title>Node49</title>
<g id="a_node37"><a xlink:href="classv8_1_1SharedArrayBuffer.html" target="_top" xlink:title=" ">
<polygon fill="white" stroke="#666666" points="529,-315.25 419.25,-315.25 419.25,-296 529,-296 529,-315.25"/>
<text text-anchor="middle" x="474.12" y="-301.75" font-family="Helvetica,sans-Serif" font-size="10.00">v8::SharedArrayBuffer</text>
</a>
</g>
</g>
<!-- Node20&#45;&gt;Node49 -->
<g id="edge36" class="edge">
<title>Node20&#45;&gt;Node49</title>
<path fill="none" stroke="#63b8ff" d="M314.52,-433.83C327.29,-404.92 355.05,-351.55 396,-323.62 402.93,-318.9 410.93,-315.4 419.11,-312.82"/>
<polygon fill="#63b8ff" stroke="#63b8ff" points="311.05,-432.04 310.36,-442.61 317.49,-434.78 311.05,-432.04"/>
</g>
<!-- Node50 -->
<g id="node38" class="node">
<title>Node50</title>
<g id="a_node38"><a xlink:href="classv8_1_1StringObject.html" target="_top" xlink:title=" ">
<polygon fill="white" stroke="#666666" points="516.62,-278.25 431.62,-278.25 431.62,-259 516.62,-259 516.62,-278.25"/>
<text text-anchor="middle" x="474.12" y="-264.75" font-family="Helvetica,sans-Serif" font-size="10.00">v8::StringObject</text>
</a>
</g>
</g>
<!-- Node20&#45;&gt;Node50 -->
<g id="edge37" class="edge">
<title>Node20&#45;&gt;Node50</title>
<path fill="none" stroke="#63b8ff" d="M311.45,-433.39C321.24,-397.89 346.51,-324.56 396,-286.62 406.15,-278.85 419.1,-274.34 431.48,-271.76"/>
<polygon fill="#63b8ff" stroke="#63b8ff" points="307.86,-432.31 308.72,-442.87 314.63,-434.08 307.86,-432.31"/>
</g>
<!-- Node51 -->
<g id="node39" class="node">
<title>Node51</title>
<g id="a_node39"><a xlink:href="classv8_1_1SymbolObject.html" target="_top" xlink:title=" ">
<polygon fill="white" stroke="#666666" points="520,-241.25 428.25,-241.25 428.25,-222 520,-222 520,-241.25"/>
<text text-anchor="middle" x="474.12" y="-227.75" font-family="Helvetica,sans-Serif" font-size="10.00">v8::SymbolObject</text>
</a>
</g>
</g>
<!-- Node20&#45;&gt;Node51 -->
<g id="edge38" class="edge">
<title>Node20&#45;&gt;Node51</title>
<path fill="none" stroke="#63b8ff" d="M309.37,-433.04C316.28,-391.61 337.79,-297.99 396,-249.62 404.99,-242.16 416.51,-237.66 427.89,-234.99"/>
<polygon fill="#63b8ff" stroke="#63b8ff" points="305.79,-432.28 307.73,-442.69 312.71,-433.34 305.79,-432.28"/>
</g>
<!-- Node52 -->
<g id="node40" class="node">
<title>Node52</title>
<g id="a_node40"><a xlink:href="classv8_1_1WasmMemoryMapDescriptor.html" target="_top" xlink:title=" ">
<polygon fill="white" stroke="#666666" points="552.25,-204.25 396,-204.25 396,-185 552.25,-185 552.25,-204.25"/>
<text text-anchor="middle" x="474.12" y="-190.75" font-family="Helvetica,sans-Serif" font-size="10.00">v8::WasmMemoryMapDescriptor</text>
</a>
</g>
</g>
<!-- Node20&#45;&gt;Node52 -->
<g id="edge39" class="edge">
<title>Node20&#45;&gt;Node52</title>
<path fill="none" stroke="#63b8ff" d="M307.85,-432.63C312.05,-385.67 328.98,-271.67 396,-212.62 399.61,-209.44 403.68,-206.8 408,-204.59"/>
<polygon fill="#63b8ff" stroke="#63b8ff" points="304.29,-432.28 307,-442.52 311.27,-432.82 304.29,-432.28"/>
</g>
<!-- Node53 -->
<g id="node41" class="node">
<title>Node53</title>
<g id="a_node41"><a xlink:href="classv8_1_1WasmMemoryObject.html" target="_top" xlink:title=" ">
<polygon fill="white" stroke="#666666" points="535,-167.25 413.25,-167.25 413.25,-148 535,-148 535,-167.25"/>
<text text-anchor="middle" x="474.12" y="-153.75" font-family="Helvetica,sans-Serif" font-size="10.00">v8::WasmMemoryObject</text>
</a>
</g>
</g>
<!-- Node20&#45;&gt;Node53 -->
<g id="edge40" class="edge">
<title>Node20&#45;&gt;Node53</title>
<path fill="none" stroke="#63b8ff" d="M306.65,-433C308.19,-381.42 319.69,-245.9 396,-175.62 400.96,-171.06 406.84,-167.58 413.12,-164.95"/>
<polygon fill="#63b8ff" stroke="#63b8ff" points="303.13,-432.65 306.44,-442.71 310.13,-432.78 303.13,-432.65"/>
</g>
<!-- Node54 -->
<g id="node42" class="node">
<title>Node54</title>
<g id="a_node42"><a xlink:href="classv8_1_1WasmModuleObject.html" target="_top" xlink:title=" ">
<polygon fill="white" stroke="#666666" points="533.5,-130.25 414.75,-130.25 414.75,-111 533.5,-111 533.5,-130.25"/>
<text text-anchor="middle" x="474.12" y="-116.75" font-family="Helvetica,sans-Serif" font-size="10.00">v8::WasmModuleObject</text>
</a>
</g>
</g>
<!-- Node20&#45;&gt;Node54 -->
<g id="edge41" class="edge">
<title>Node20&#45;&gt;Node54</title>
<path fill="none" stroke="#63b8ff" d="M305.73,-432.96C304.84,-376.81 310.52,-220.13 396,-138.62 401.27,-133.6 407.67,-129.88 414.5,-127.14"/>
<polygon fill="#63b8ff" stroke="#63b8ff" points="302.25,-432.73 306,-442.63 309.25,-432.55 302.25,-432.73"/>
</g>
<!-- Node24 -->
<g id="node24" class="node">
<title>Node24</title>
<g id="a_node24"><a xlink:href="classv8_1_1DataView.html" target="_top" xlink:title=" ">
<polygon fill="white" stroke="#666666" points="664.62,-777.25 591.62,-777.25 591.62,-758 664.62,-758 664.62,-777.25"/>
<text text-anchor="middle" x="628.12" y="-763.75" font-family="Helvetica,sans-Serif" font-size="10.00">v8::DataView</text>
</a>
</g>
</g>
<!-- Node23&#45;&gt;Node24 -->
<g id="edge23" class="edge">
<title>Node23&#45;&gt;Node24</title>
<path fill="none" stroke="#63b8ff" d="M535.77,-756.81C554.57,-759.03 574.67,-761.41 591.22,-763.37"/>
<polygon fill="#63b8ff" stroke="#63b8ff" points="536.24,-753.22 525.9,-755.52 535.41,-760.17 536.24,-753.22"/>
</g>
<!-- Node25 -->
<g id="node25" class="node">
<title>Node25</title>
<g id="a_node25"><a xlink:href="classv8_1_1TypedArray.html" target="_top" xlink:title=" ">
<polygon fill="#fff0f0" stroke="red" points="668,-740.25 588.25,-740.25 588.25,-721 668,-721 668,-740.25"/>
<text text-anchor="middle" x="628.12" y="-726.75" font-family="Helvetica,sans-Serif" font-size="10.00">v8::TypedArray</text>
</a>
</g>
</g>
<!-- Node23&#45;&gt;Node25 -->
<g id="edge24" class="edge">
<title>Node23&#45;&gt;Node25</title>
<path fill="none" stroke="#63b8ff" d="M535.65,-742.06C553.22,-739.86 571.95,-737.52 587.85,-735.53"/>
<polygon fill="#63b8ff" stroke="#63b8ff" points="535.38,-738.69 525.9,-743.4 536.25,-745.64 535.38,-738.69"/>
</g>
<!-- Node56 -->
<g id="node44" class="node">
<title>Node56</title>
<g id="a_node44"><a xlink:href="classv8_1_1Boolean.html" target="_top" xlink:title=" ">
<polygon fill="white" stroke="#666666" points="507.25,-93.25 441,-93.25 441,-74 507.25,-74 507.25,-93.25"/>
<text text-anchor="middle" x="474.12" y="-79.75" font-family="Helvetica,sans-Serif" font-size="10.00">v8::Boolean</text>
</a>
</g>
</g>
<!-- Node55&#45;&gt;Node56 -->
<g id="edge43" class="edge">
<title>Node55&#45;&gt;Node56</title>
<path fill="none" stroke="#63b8ff" d="M351.41,-69.75C379.61,-72.96 415.32,-77.03 440.75,-79.93"/>
<polygon fill="#63b8ff" stroke="#63b8ff" points="351.95,-66.17 341.62,-68.52 351.16,-73.13 351.95,-66.17"/>
</g>
<!-- Node57 -->
<g id="node45" class="node">
<title>Node57</title>
<g id="a_node45"><a xlink:href="classv8_1_1Name.html" target="_top" xlink:title=" ">
<polygon fill="white" stroke="#666666" points="502.75,-56.25 445.5,-56.25 445.5,-37 502.75,-37 502.75,-56.25"/>
<text text-anchor="middle" x="474.12" y="-42.75" font-family="Helvetica,sans-Serif" font-size="10.00">v8::Name</text>
</a>
</g>
</g>
<!-- Node55&#45;&gt;Node57 -->
<g id="edge44" class="edge">
<title>Node55&#45;&gt;Node57</title>
<path fill="none" stroke="#63b8ff" d="M351.21,-59.8C381.09,-56.57 419.49,-52.42 445.13,-49.65"/>
<polygon fill="#63b8ff" stroke="#63b8ff" points="351.19,-56.39 341.62,-60.94 351.94,-63.34 351.19,-56.39"/>
</g>
<!-- Node60 -->
<g id="node48" class="node">
<title>Node60</title>
<g id="a_node48"><a xlink:href="classv8_1_1Numeric.html" target="_top" xlink:title=" ">
<polygon fill="#fff0f0" stroke="red" points="508,-19.25 440.25,-19.25 440.25,0 508,0 508,-19.25"/>
<text text-anchor="middle" x="474.12" y="-5.75" font-family="Helvetica,sans-Serif" font-size="10.00">v8::Numeric</text>
</a>
</g>
</g>
<!-- Node55&#45;&gt;Node60 -->
<g id="edge47" class="edge">
<title>Node55&#45;&gt;Node60</title>
<path fill="none" stroke="#63b8ff" d="M337.76,-50.23C354.74,-42.79 376.25,-33.97 396,-27.62 410.14,-23.09 426.07,-19.17 439.77,-16.17"/>
<polygon fill="#63b8ff" stroke="#63b8ff" points="336.55,-47.39 328.83,-54.65 339.39,-53.78 336.55,-47.39"/>
</g>
<!-- Node58 -->
<g id="node46" class="node">
<title>Node58</title>
<g id="a_node46"><a xlink:href="classv8_1_1String.html" target="_top" xlink:title=" ">
<polygon fill="white" stroke="#666666" points="656.38,-93.25 599.88,-93.25 599.88,-74 656.38,-74 656.38,-93.25"/>
<text text-anchor="middle" x="628.12" y="-79.75" font-family="Helvetica,sans-Serif" font-size="10.00">v8::String</text>
</a>
</g>
</g>
<!-- Node57&#45;&gt;Node58 -->
<g id="edge45" class="edge">
<title>Node57&#45;&gt;Node58</title>
<path fill="none" stroke="#63b8ff" d="M513.46,-55.42C525.85,-58.3 539.64,-61.55 552.25,-64.62 567.89,-68.43 585.32,-72.85 599.42,-76.46"/>
<polygon fill="#63b8ff" stroke="#63b8ff" points="514.53,-51.84 504,-52.99 512.95,-58.66 514.53,-51.84"/>
</g>
<!-- Node59 -->
<g id="node47" class="node">
<title>Node59</title>
<g id="a_node47"><a xlink:href="classv8_1_1Symbol.html" target="_top" xlink:title=" ">
<polygon fill="white" stroke="#666666" points="659.75,-56.25 596.5,-56.25 596.5,-37 659.75,-37 659.75,-56.25"/>
<text text-anchor="middle" x="628.12" y="-42.75" font-family="Helvetica,sans-Serif" font-size="10.00">v8::Symbol</text>
</a>
</g>
</g>
<!-- Node57&#45;&gt;Node59 -->
<g id="edge46" class="edge">
<title>Node57&#45;&gt;Node59</title>
<path fill="none" stroke="#63b8ff" d="M513.78,-46.62C539.27,-46.62 572.22,-46.62 596.02,-46.62"/>
<polygon fill="#63b8ff" stroke="#63b8ff" points="514,-43.13 504,-46.62 514,-50.13 514,-43.13"/>
</g>
<!-- Node61 -->
<g id="node49" class="node">
<title>Node61</title>
<g id="a_node49"><a xlink:href="classv8_1_1BigInt.html" target="_top" xlink:title=" ">
<polygon fill="white" stroke="#666666" points="656.38,-19.25 599.88,-19.25 599.88,0 656.38,0 656.38,-19.25"/>
<text text-anchor="middle" x="628.12" y="-5.75" font-family="Helvetica,sans-Serif" font-size="10.00">v8::BigInt</text>
</a>
</g>
</g>
<!-- Node60&#45;&gt;Node61 -->
<g id="edge48" class="edge">
<title>Node60&#45;&gt;Node61</title>
<path fill="none" stroke="#63b8ff" d="M519.17,-9.62C545.08,-9.62 577.04,-9.62 599.44,-9.62"/>
<polygon fill="#63b8ff" stroke="#63b8ff" points="519.48,-6.13 509.48,-9.62 519.48,-13.13 519.48,-6.13"/>
</g>
</g>
</svg>
