<?xml version="1.0" encoding="UTF-8" standalone="no"?>
<!DOCTYPE svg PUBLIC "-//W3C//DTD SVG 1.1//EN"
 "http://www.w3.org/Graphics/SVG/1.1/DTD/svg11.dtd">
<!-- Generated by graphviz version 2.49.3 (20211027.1534)
 -->
<!-- Title: cppgc::internal::PersistentBase Pages: 1 -->
<svg width="203pt" height="95pt"
 viewBox="0.00 0.00 203.00 95.00" xmlns="http://www.w3.org/2000/svg" xmlns:xlink="http://www.w3.org/1999/xlink">
<g id="graph0" class="graph" transform="scale(1 1) rotate(0) translate(4 91)">
<title>cppgc::internal::PersistentBase</title>
<polygon fill="white" stroke="transparent" points="-4,4 -4,-91 199,-91 199,4 -4,4"/>
<!-- Node1 -->
<g id="node1" class="node">
<title>Node1</title>
<g id="a_node1"><a xlink:title=" ">
<polygon fill="#bfbfbf" stroke="black" points="0.5,-0.5 0.5,-19.5 150.5,-19.5 150.5,-0.5 0.5,-0.5"/>
<text text-anchor="middle" x="75.5" y="-7.5" font-family="Helvetica,sans-Serif" font-size="10.00">cppgc::internal::PersistentBase</text>
</a>
</g>
</g>
<!-- Node2 -->
<g id="node2" class="node">
<title>Node2</title>
<g id="a_node2"><a xlink:href="classcppgc_1_1internal_1_1PersistentNode.html" target="_top" xlink:title=" ">
<polygon fill="white" stroke="black" points="0,-67.5 0,-86.5 151,-86.5 151,-67.5 0,-67.5"/>
<text text-anchor="middle" x="75.5" y="-74.5" font-family="Helvetica,sans-Serif" font-size="10.00">cppgc::internal::PersistentNode</text>
</a>
</g>
</g>
<!-- Node2&#45;&gt;Node1 -->
<g id="edge1" class="edge">
<title>Node2&#45;&gt;Node1</title>
<path fill="none" stroke="#9a32cd" stroke-dasharray="5,2" d="M75.5,-57.04C75.5,-44.67 75.5,-29.12 75.5,-19.63"/>
<polygon fill="#9a32cd" stroke="#9a32cd" points="72,-57.23 75.5,-67.23 79,-57.23 72,-57.23"/>
<text text-anchor="middle" x="90" y="-41" font-family="Helvetica,sans-Serif" font-size="10.00"> node_</text>
</g>
<!-- Node2&#45;&gt;Node2 -->
<g id="edge2" class="edge">
<title>Node2&#45;&gt;Node2</title>
<path fill="none" stroke="#9a32cd" stroke-dasharray="5,2" d="M161.1,-81.09C166.05,-80.1 169,-78.74 169,-77 169,-74.28 161.8,-72.49 151.07,-71.62"/>
<polygon fill="#9a32cd" stroke="#9a32cd" points="160.54,-77.63 151.07,-82.38 161.44,-84.57 160.54,-77.63"/>
<text text-anchor="middle" x="182" y="-74.5" font-family="Helvetica,sans-Serif" font-size="10.00"> next_</text>
</g>
</g>
</svg>
