<?xml version="1.0" encoding="UTF-8" standalone="no"?>
<!DOCTYPE svg PUBLIC "-//W3C//DTD SVG 1.1//EN"
 "http://www.w3.org/Graphics/SVG/1.1/DTD/svg11.dtd">
<!-- Generated by graphviz version 8.0.5 (20230430.1635)
 -->
<!-- Title: v8::PropertyCallbackInfo::GetIsolate Pages: 1 -->
<svg width="312pt" height="469pt"
 viewBox="0.00 0.00 312.25 468.50" xmlns="http://www.w3.org/2000/svg" xmlns:xlink="http://www.w3.org/1999/xlink">
<g id="graph0" class="graph" transform="scale(1 1) rotate(0) translate(4 464.5)">
<title>v8::PropertyCallbackInfo::GetIsolate</title>
<!-- Node1 -->
<g id="node1" class="node">
<title>Node1</title>
<g id="a_node1"><a xlink:title=" ">
<polygon fill="#999999" stroke="#666666" points="304.25,-233.5 183.25,-233.5 183.25,-203 304.25,-203 304.25,-233.5"/>
<text text-anchor="start" x="191.25" y="-220" font-family="Helvetica,sans-Serif" font-size="10.00">v8::PropertyCallbackInfo</text>
<text text-anchor="middle" x="243.75" y="-208.75" font-family="Helvetica,sans-Serif" font-size="10.00">::GetIsolate</text>
</a>
</g>
</g>
<!-- Node2 -->
<g id="node2" class="node">
<title>Node2</title>
<g id="a_node2"><a xlink:href="classv8_1_1FunctionCallbackInfo.html#ab0ebfc2ea43af2fdfc3d085272bf499f" target="_top" xlink:title=" ">
<polygon fill="white" stroke="#666666" points="134.88,-460.5 12.38,-460.5 12.38,-430 134.88,-430 134.88,-460.5"/>
<text text-anchor="start" x="20.38" y="-447" font-family="Helvetica,sans-Serif" font-size="10.00">v8::FunctionCallbackInfo</text>
<text text-anchor="middle" x="73.62" y="-435.75" font-family="Helvetica,sans-Serif" font-size="10.00">::Data</text>
</a>
</g>
</g>
<!-- Node1&#45;&gt;Node2 -->
<g id="edge1" class="edge">
<title>Node1&#45;&gt;Node2</title>
<path fill="none" stroke="#63b8ff" d="M237.28,-244.54C227.04,-287.34 200.98,-372.13 147.25,-420.25 143.18,-423.9 138.55,-427.02 133.64,-429.69"/>
<polygon fill="#63b8ff" stroke="#63b8ff" points="240.9,-245.41 239.71,-234.88 234.07,-243.86 240.9,-245.41"/>
</g>
<!-- Node3 -->
<g id="node3" class="node">
<title>Node3</title>
<g id="a_node3"><a xlink:href="classv8_1_1PropertyCallbackInfo.html#a0156bad4329132beddee04f2d000c617" target="_top" xlink:title=" ">
<polygon fill="white" stroke="#666666" points="134.12,-411.5 13.12,-411.5 13.12,-381 134.12,-381 134.12,-411.5"/>
<text text-anchor="start" x="21.12" y="-398" font-family="Helvetica,sans-Serif" font-size="10.00">v8::PropertyCallbackInfo</text>
<text text-anchor="middle" x="73.62" y="-386.75" font-family="Helvetica,sans-Serif" font-size="10.00">::Data</text>
</a>
</g>
</g>
<!-- Node1&#45;&gt;Node3 -->
<g id="edge2" class="edge">
<title>Node1&#45;&gt;Node3</title>
<path fill="none" stroke="#63b8ff" d="M233.33,-243.95C219.55,-278.07 190.73,-337.99 147.25,-372.25 143.18,-375.46 138.67,-378.24 133.94,-380.66"/>
<polygon fill="#63b8ff" stroke="#63b8ff" points="236.9,-245.43 237.27,-234.85 230.38,-242.89 236.9,-245.43"/>
</g>
<!-- Node4 -->
<g id="node4" class="node">
<title>Node4</title>
<g id="a_node4"><a xlink:href="classv8_1_1ReturnValue.html#a9167dbbc04d72bbd85a8a7f199f211c4" target="_top" xlink:title=" ">
<polygon fill="white" stroke="#666666" points="125.88,-362.88 21.38,-362.88 21.38,-343.62 125.88,-343.62 125.88,-362.88"/>
<text text-anchor="middle" x="73.62" y="-349.38" font-family="Helvetica,sans-Serif" font-size="10.00">v8::ReturnValue::Get</text>
</a>
</g>
</g>
<!-- Node1&#45;&gt;Node4 -->
<g id="edge3" class="edge">
<title>Node1&#45;&gt;Node4</title>
<path fill="none" stroke="#63b8ff" d="M228.85,-243.05C212.68,-269.61 183.5,-311.07 147.25,-334.25 140.88,-338.32 133.67,-341.52 126.33,-344.04"/>
<polygon fill="#63b8ff" stroke="#63b8ff" points="232.32,-245.05 234.4,-234.66 226.3,-241.49 232.32,-245.05"/>
</g>
<!-- Node5 -->
<g id="node5" class="node">
<title>Node5</title>
<g id="a_node5"><a xlink:href="classv8_1_1FunctionCallbackInfo.html#aa04f4c5c984db26a90b591f34550e6fa" target="_top" xlink:title=" ">
<polygon fill="white" stroke="#666666" points="134.88,-325.5 12.38,-325.5 12.38,-295 134.88,-295 134.88,-325.5"/>
<text text-anchor="start" x="20.38" y="-312" font-family="Helvetica,sans-Serif" font-size="10.00">v8::FunctionCallbackInfo</text>
<text text-anchor="middle" x="73.62" y="-300.75" font-family="Helvetica,sans-Serif" font-size="10.00">::NewTarget</text>
</a>
</g>
</g>
<!-- Node1&#45;&gt;Node5 -->
<g id="edge4" class="edge">
<title>Node1&#45;&gt;Node5</title>
<path fill="none" stroke="#63b8ff" d="M215.56,-240.43C197.12,-254.67 171.75,-272.76 147.25,-285.25 140.6,-288.64 133.38,-291.75 126.16,-294.53"/>
<polygon fill="#63b8ff" stroke="#63b8ff" points="217.31,-242.72 223.01,-233.8 212.98,-237.22 217.31,-242.72"/>
</g>
<!-- Node6 -->
<g id="node6" class="node">
<title>Node6</title>
<g id="a_node6"><a xlink:href="classv8_1_1FunctionCallbackInfo.html#a77dce5cad7b198c4181a522e9e0ab10f" target="_top" xlink:title=" ">
<polygon fill="white" stroke="#666666" points="134.88,-276.5 12.38,-276.5 12.38,-246 134.88,-246 134.88,-276.5"/>
<text text-anchor="start" x="20.38" y="-263" font-family="Helvetica,sans-Serif" font-size="10.00">v8::FunctionCallbackInfo</text>
<text text-anchor="middle" x="73.62" y="-251.75" font-family="Helvetica,sans-Serif" font-size="10.00">::operator[]</text>
</a>
</g>
</g>
<!-- Node1&#45;&gt;Node6 -->
<g id="edge5" class="edge">
<title>Node1&#45;&gt;Node6</title>
<path fill="none" stroke="#63b8ff" d="M172.7,-236.17C160.28,-239.34 147.44,-242.63 135.31,-245.73"/>
<polygon fill="#63b8ff" stroke="#63b8ff" points="173.18,-239.4 182,-233.53 171.45,-232.62 173.18,-239.4"/>
</g>
<!-- Node7 -->
<g id="node7" class="node">
<title>Node7</title>
<g id="a_node7"><a xlink:href="classv8_1_1ReturnValue.html#a28bc181b8f64fd21a331bf42d97fe41f" target="_top" xlink:title=" ">
<polygon fill="white" stroke="#666666" points="125.5,-227.88 21.75,-227.88 21.75,-208.62 125.5,-208.62 125.5,-227.88"/>
<text text-anchor="middle" x="73.62" y="-214.38" font-family="Helvetica,sans-Serif" font-size="10.00">v8::ReturnValue::Set</text>
</a>
</g>
</g>
<!-- Node1&#45;&gt;Node7 -->
<g id="edge6" class="edge">
<title>Node1&#45;&gt;Node7</title>
<path fill="none" stroke="#63b8ff" d="M172.33,-218.25C156.73,-218.25 140.49,-218.25 125.83,-218.25"/>
<polygon fill="#63b8ff" stroke="#63b8ff" points="172,-221.75 182,-218.25 172,-214.75 172,-221.75"/>
</g>
<!-- Node8 -->
<g id="node8" class="node">
<title>Node8</title>
<g id="a_node8"><a xlink:href="classv8_1_1ReturnValue.html#a3ed4f59f726eafae53525bb68512b93e" target="_top" xlink:title=" ">
<polygon fill="white" stroke="#666666" points="139,-190.5 8.25,-190.5 8.25,-160 139,-160 139,-190.5"/>
<text text-anchor="start" x="16.25" y="-177" font-family="Helvetica,sans-Serif" font-size="10.00">v8::ReturnValue::SetEmpty</text>
<text text-anchor="middle" x="73.62" y="-165.75" font-family="Helvetica,sans-Serif" font-size="10.00">String</text>
</a>
</g>
</g>
<!-- Node1&#45;&gt;Node8 -->
<g id="edge7" class="edge">
<title>Node1&#45;&gt;Node8</title>
<path fill="none" stroke="#63b8ff" d="M172.52,-200.29C160.45,-197.2 147.99,-194.01 136.17,-190.99"/>
<polygon fill="#63b8ff" stroke="#63b8ff" points="171.45,-203.88 182,-202.97 173.18,-197.1 171.45,-203.88"/>
</g>
<!-- Node9 -->
<g id="node9" class="node">
<title>Node9</title>
<g id="a_node9"><a xlink:href="classv8_1_1ReturnValue.html#a23de6d70d78dc9a5333b90bc6110f483" target="_top" xlink:title=" ">
<polygon fill="white" stroke="#666666" points="137.5,-141.88 9.75,-141.88 9.75,-122.62 137.5,-122.62 137.5,-141.88"/>
<text text-anchor="middle" x="73.62" y="-128.38" font-family="Helvetica,sans-Serif" font-size="10.00">v8::ReturnValue::SetFalse</text>
</a>
</g>
</g>
<!-- Node1&#45;&gt;Node9 -->
<g id="edge8" class="edge">
<title>Node1&#45;&gt;Node9</title>
<path fill="none" stroke="#63b8ff" d="M216.2,-195.72C197.87,-181.19 172.36,-162.88 147.25,-151.25 139.68,-147.74 131.36,-144.8 123.13,-142.36"/>
<polygon fill="#63b8ff" stroke="#63b8ff" points="213.62,-198.94 223.59,-202.51 218.02,-193.5 213.62,-198.94"/>
</g>
<!-- Node10 -->
<g id="node10" class="node">
<title>Node10</title>
<g id="a_node10"><a xlink:href="classv8_1_1ReturnValue.html#aba8480ee94ea905ad0850b3ceaf1b9b1" target="_top" xlink:title=" ">
<polygon fill="white" stroke="#666666" points="134.12,-104.88 13.12,-104.88 13.12,-85.62 134.12,-85.62 134.12,-104.88"/>
<text text-anchor="middle" x="73.62" y="-91.38" font-family="Helvetica,sans-Serif" font-size="10.00">v8::ReturnValue::SetNull</text>
</a>
</g>
</g>
<!-- Node1&#45;&gt;Node10 -->
<g id="edge9" class="edge">
<title>Node1&#45;&gt;Node10</title>
<path fill="none" stroke="#63b8ff" d="M227.03,-193.85C210.19,-169.72 181.25,-133.53 147.25,-113.25 141.9,-110.06 136,-107.43 129.94,-105.26"/>
<polygon fill="#63b8ff" stroke="#63b8ff" points="224.57,-195.45 233.08,-201.76 230.36,-191.52 224.57,-195.45"/>
</g>
<!-- Node11 -->
<g id="node11" class="node">
<title>Node11</title>
<g id="a_node11"><a xlink:href="classv8_1_1ReturnValue.html#af73d4ed15f126a214efe583ac56ff19d" target="_top" xlink:title=" ">
<polygon fill="white" stroke="#666666" points="147.25,-67.88 0,-67.88 0,-48.62 147.25,-48.62 147.25,-67.88"/>
<text text-anchor="middle" x="73.62" y="-54.38" font-family="Helvetica,sans-Serif" font-size="10.00">v8::ReturnValue::SetUndefined</text>
</a>
</g>
</g>
<!-- Node1&#45;&gt;Node11 -->
<g id="edge10" class="edge">
<title>Node1&#45;&gt;Node11</title>
<path fill="none" stroke="#63b8ff" d="M232.52,-192.67C218.3,-160.47 189.45,-105.8 147.25,-76.25 142.67,-73.05 137.59,-70.41 132.29,-68.24"/>
<polygon fill="#63b8ff" stroke="#63b8ff" points="229.64,-193.83 236.78,-201.66 236.08,-191.09 229.64,-193.83"/>
</g>
<!-- Node12 -->
<g id="node12" class="node">
<title>Node12</title>
<g id="a_node12"><a xlink:href="classv8_1_1PropertyCallbackInfo.html#a82d79a9cdaac9807a0fa17331b159ce9" target="_top" xlink:title=" ">
<polygon fill="white" stroke="#666666" points="134.12,-30.5 13.12,-30.5 13.12,0 134.12,0 134.12,-30.5"/>
<text text-anchor="start" x="21.12" y="-17" font-family="Helvetica,sans-Serif" font-size="10.00">v8::PropertyCallbackInfo</text>
<text text-anchor="middle" x="73.62" y="-5.75" font-family="Helvetica,sans-Serif" font-size="10.00">::ShouldThrowOnError</text>
</a>
</g>
</g>
<!-- Node1&#45;&gt;Node12 -->
<g id="edge11" class="edge">
<title>Node1&#45;&gt;Node12</title>
<path fill="none" stroke="#63b8ff" d="M235.63,-192.11C223.74,-153.26 196.17,-80.45 147.25,-39.25 143.39,-36 139.08,-33.19 134.53,-30.75"/>
<polygon fill="#63b8ff" stroke="#63b8ff" points="232.53,-192.95 238.7,-201.56 239.24,-190.97 232.53,-192.95"/>
</g>
</g>
</svg>
