<?xml version="1.0" encoding="UTF-8" standalone="no"?>
<!DOCTYPE svg PUBLIC "-//W3C//DTD SVG 1.1//EN"
 "http://www.w3.org/Graphics/SVG/1.1/DTD/svg11.dtd">
<!-- Generated by graphviz version 8.0.5 (20230430.1635)
 -->
<!-- Title: v8::FunctionCallbackInfo::Data Pages: 1 -->
<svg width="305pt" height="88pt"
 viewBox="0.00 0.00 304.75 87.50" xmlns="http://www.w3.org/2000/svg" xmlns:xlink="http://www.w3.org/1999/xlink">
<g id="graph0" class="graph" transform="scale(1 1) rotate(0) translate(4 83.5)">
<title>v8::FunctionCallbackInfo::Data</title>
<!-- Node1 -->
<g id="node1" class="node">
<title>Node1</title>
<g id="a_node1"><a xlink:title=" ">
<polygon fill="#999999" stroke="#666666" points="122.5,-54.5 0,-54.5 0,-24 122.5,-24 122.5,-54.5"/>
<text text-anchor="start" x="8" y="-41" font-family="Helvetica,sans-Serif" font-size="10.00">v8::FunctionCallbackInfo</text>
<text text-anchor="middle" x="61.25" y="-29.75" font-family="Helvetica,sans-Serif" font-size="10.00">::Data</text>
</a>
</g>
</g>
<!-- Node2 -->
<g id="node2" class="node">
<title>Node2</title>
<g id="a_node2"><a xlink:href="namespacev8_1_1api__internal.html#a54708b8a6412a4aa5123ac36eb7367e1" target="_top" xlink:title=" ">
<polygon fill="white" stroke="#666666" points="296.75,-79.5 158.5,-79.5 158.5,-49 296.75,-49 296.75,-79.5"/>
<text text-anchor="start" x="166.5" y="-66" font-family="Helvetica,sans-Serif" font-size="10.00">v8::api_internal::GetFunction</text>
<text text-anchor="middle" x="227.62" y="-54.75" font-family="Helvetica,sans-Serif" font-size="10.00">TemplateData</text>
</a>
</g>
</g>
<!-- Node1&#45;&gt;Node2 -->
<g id="edge1" class="edge">
<title>Node1&#45;&gt;Node2</title>
<path fill="none" stroke="#63b8ff" d="M122.99,-48.49C130.94,-49.7 139.18,-50.95 147.37,-52.2"/>
<polygon fill="#63b8ff" stroke="#63b8ff" points="146.69,-55.78 157.1,-53.83 147.74,-48.86 146.69,-55.78"/>
</g>
<!-- Node3 -->
<g id="node3" class="node">
<title>Node3</title>
<g id="a_node3"><a xlink:href="classv8_1_1PropertyCallbackInfo.html#aff7b838ede308ab8a42890962eb9271c" target="_top" xlink:title=" ">
<polygon fill="white" stroke="#666666" points="288.12,-30.5 167.12,-30.5 167.12,0 288.12,0 288.12,-30.5"/>
<text text-anchor="start" x="175.12" y="-17" font-family="Helvetica,sans-Serif" font-size="10.00">v8::PropertyCallbackInfo</text>
<text text-anchor="middle" x="227.62" y="-5.75" font-family="Helvetica,sans-Serif" font-size="10.00">::GetIsolate</text>
</a>
</g>
</g>
<!-- Node1&#45;&gt;Node3 -->
<g id="edge2" class="edge">
<title>Node1&#45;&gt;Node3</title>
<path fill="none" stroke="#63b8ff" d="M122.99,-30.38C133.69,-28.82 144.91,-27.18 155.86,-25.58"/>
<polygon fill="#63b8ff" stroke="#63b8ff" points="156.29,-28.91 165.68,-24 155.28,-21.98 156.29,-28.91"/>
</g>
</g>
</svg>
