<?xml version="1.0" encoding="UTF-8" standalone="no"?>
<!DOCTYPE svg PUBLIC "-//W3C//DTD SVG 1.1//EN"
 "http://www.w3.org/Graphics/SVG/1.1/DTD/svg11.dtd">
<!-- Generated by graphviz version 2.49.3 (20211027.1534)
 -->
<!-- Title: v8::CFunction::GetOverloadResolution Pages: 1 -->
<svg width="340pt" height="104pt"
 viewBox="0.00 0.00 340.00 104.00" xmlns="http://www.w3.org/2000/svg" xmlns:xlink="http://www.w3.org/1999/xlink">
<g id="graph0" class="graph" transform="scale(1 1) rotate(0) translate(4 100)">
<title>v8::CFunction::GetOverloadResolution</title>
<polygon fill="white" stroke="transparent" points="-4,4 -4,-100 336,-100 336,4 -4,4"/>
<!-- Node1 -->
<g id="node1" class="node">
<title>Node1</title>
<g id="a_node1"><a xlink:title=" ">
<polygon fill="#bfbfbf" stroke="black" points="0,-33 0,-63 135,-63 135,-33 0,-33"/>
<text text-anchor="start" x="8" y="-51" font-family="Helvetica,sans-Serif" font-size="10.00">v8::CFunction::GetOverload</text>
<text text-anchor="middle" x="67.5" y="-40" font-family="Helvetica,sans-Serif" font-size="10.00">Resolution</text>
</a>
</g>
</g>
<!-- Node2 -->
<g id="node2" class="node">
<title>Node2</title>
<g id="a_node2"><a xlink:href="classv8_1_1CFunction.html#a470526396175a7dc3a71c77923b62598" target="_top" xlink:title=" ">
<polygon fill="white" stroke="black" points="177.5,-76.5 177.5,-95.5 325.5,-95.5 325.5,-76.5 177.5,-76.5"/>
<text text-anchor="middle" x="251.5" y="-83.5" font-family="Helvetica,sans-Serif" font-size="10.00">v8::CFunction::ArgumentCount</text>
</a>
</g>
</g>
<!-- Node1&#45;&gt;Node2 -->
<g id="edge1" class="edge">
<title>Node1&#45;&gt;Node2</title>
<path fill="none" stroke="midnightblue" d="M135.24,-61.93C154.84,-66.03 176.07,-70.46 194.9,-74.39"/>
<polygon fill="midnightblue" stroke="midnightblue" points="194.3,-77.84 204.8,-76.46 195.73,-70.99 194.3,-77.84"/>
</g>
<!-- Node3 -->
<g id="node3" class="node">
<title>Node3</title>
<g id="a_node3"><a xlink:href="classv8_1_1CFunction.html#a3caa815b4f3f96f39f036f2c538d7484" target="_top" xlink:title=" ">
<polygon fill="white" stroke="black" points="182,-38.5 182,-57.5 321,-57.5 321,-38.5 182,-38.5"/>
<text text-anchor="middle" x="251.5" y="-45.5" font-family="Helvetica,sans-Serif" font-size="10.00">v8::CFunction::ArgumentInfo</text>
</a>
</g>
</g>
<!-- Node1&#45;&gt;Node3 -->
<g id="edge2" class="edge">
<title>Node1&#45;&gt;Node3</title>
<path fill="none" stroke="midnightblue" d="M135.24,-48C147.13,-48 159.61,-48 171.8,-48"/>
<polygon fill="midnightblue" stroke="midnightblue" points="171.94,-51.5 181.94,-48 171.94,-44.5 171.94,-51.5"/>
</g>
<!-- Node4 -->
<g id="node4" class="node">
<title>Node4</title>
<g id="a_node4"><a xlink:href="classv8_1_1CTypeInfo.html#afcc395e9cdf8040041dbbeb72054d338" target="_top" xlink:title=" ">
<polygon fill="white" stroke="black" points="171,-0.5 171,-19.5 332,-19.5 332,-0.5 171,-0.5"/>
<text text-anchor="middle" x="251.5" y="-7.5" font-family="Helvetica,sans-Serif" font-size="10.00">v8::CTypeInfo::GetSequenceType</text>
</a>
</g>
</g>
<!-- Node1&#45;&gt;Node4 -->
<g id="edge3" class="edge">
<title>Node1&#45;&gt;Node4</title>
<path fill="none" stroke="midnightblue" d="M135.24,-34.07C154.84,-29.97 176.07,-25.54 194.9,-21.61"/>
<polygon fill="midnightblue" stroke="midnightblue" points="195.73,-25.01 204.8,-19.54 194.3,-18.16 195.73,-25.01"/>
</g>
</g>
</svg>
