<?xml version="1.0" encoding="UTF-8" standalone="no"?>
<!DOCTYPE svg PUBLIC "-//W3C//DTD SVG 1.1//EN"
 "http://www.w3.org/Graphics/SVG/1.1/DTD/svg11.dtd">
<!-- Generated by graphviz version 8.0.5 (20230430.1635)
 -->
<!-- Title: v8::MaybeLocal::Cast Pages: 1 -->
<svg width="385pt" height="39pt"
 viewBox="0.00 0.00 385.25 38.50" xmlns="http://www.w3.org/2000/svg" xmlns:xlink="http://www.w3.org/1999/xlink">
<g id="graph0" class="graph" transform="scale(1 1) rotate(0) translate(4 34.5)">
<title>v8::MaybeLocal::Cast</title>
<!-- Node1 -->
<g id="node1" class="node">
<title>Node1</title>
<g id="a_node1"><a xlink:title=" ">
<polygon fill="#999999" stroke="#666666" points="108.25,-24.88 0,-24.88 0,-5.63 108.25,-5.63 108.25,-24.88"/>
<text text-anchor="middle" x="54.12" y="-11.38" font-family="Helvetica,sans-Serif" font-size="10.00">v8::MaybeLocal::Cast</text>
</a>
</g>
</g>
<!-- Node2 -->
<g id="node2" class="node">
<title>Node2</title>
<g id="a_node2"><a xlink:href="classv8_1_1Local.html#a6ed02351ca8e4dd0257dff7c2c9f67a8" target="_top" xlink:title=" ">
<polygon fill="white" stroke="#666666" points="224,-24.88 144.25,-24.88 144.25,-5.63 224,-5.63 224,-24.88"/>
<text text-anchor="middle" x="184.12" y="-11.38" font-family="Helvetica,sans-Serif" font-size="10.00">v8::Local::Cast</text>
</a>
</g>
</g>
<!-- Node1&#45;&gt;Node2 -->
<g id="edge1" class="edge">
<title>Node1&#45;&gt;Node2</title>
<path fill="none" stroke="#63b8ff" d="M108.67,-15.25C116.68,-15.25 124.91,-15.25 132.85,-15.25"/>
<polygon fill="#63b8ff" stroke="#63b8ff" points="132.82,-18.75 142.82,-15.25 132.82,-11.75 132.82,-18.75"/>
</g>
<!-- Node3 -->
<g id="node3" class="node">
<title>Node3</title>
<g id="a_node3"><a xlink:href="classv8_1_1api__internal_1_1IndirectHandleBase.html#ab505cc6c5f12d0a44149b7170b37411f" target="_top" xlink:title=" ">
<polygon fill="white" stroke="#666666" points="377.25,-30.5 260,-30.5 260,0 377.25,0 377.25,-30.5"/>
<text text-anchor="start" x="268" y="-17" font-family="Helvetica,sans-Serif" font-size="10.00">v8::api_internal::Indirect</text>
<text text-anchor="middle" x="318.62" y="-5.75" font-family="Helvetica,sans-Serif" font-size="10.00">HandleBase::IsEmpty</text>
</a>
</g>
</g>
<!-- Node2&#45;&gt;Node3 -->
<g id="edge2" class="edge">
<title>Node2&#45;&gt;Node3</title>
<path fill="none" stroke="#63b8ff" d="M224.16,-15.25C232,-15.25 240.45,-15.25 248.95,-15.25"/>
<polygon fill="#63b8ff" stroke="#63b8ff" points="248.71,-18.75 258.71,-15.25 248.71,-11.75 248.71,-18.75"/>
</g>
</g>
</svg>
