<?xml version="1.0" encoding="UTF-8" standalone="no"?>
<!DOCTYPE svg PUBLIC "-//W3C//DTD SVG 1.1//EN"
 "http://www.w3.org/Graphics/SVG/1.1/DTD/svg11.dtd">
<!-- Generated by graphviz version 2.49.3 (20211027.1534)
 -->
<!-- Title: v8::CTypeInfoBuilder::Build Pages: 1 -->
<svg width="455pt" height="86pt"
 viewBox="0.00 0.00 455.00 85.50" xmlns="http://www.w3.org/2000/svg" xmlns:xlink="http://www.w3.org/1999/xlink">
<g id="graph0" class="graph" transform="scale(1 1) rotate(0) translate(4 81.5)">
<title>v8::CTypeInfoBuilder::Build</title>
<polygon fill="white" stroke="transparent" points="-4,4 -4,-81.5 451,-81.5 451,4 -4,4"/>
<!-- Node1 -->
<g id="node1" class="node">
<title>Node1</title>
<g id="a_node1"><a xlink:title=" ">
<polygon fill="#bfbfbf" stroke="black" points="0,-17 0,-47 106,-47 106,-17 0,-17"/>
<text text-anchor="start" x="8" y="-35" font-family="Helvetica,sans-Serif" font-size="10.00">v8::CTypeInfoBuilder</text>
<text text-anchor="middle" x="53" y="-24" font-family="Helvetica,sans-Serif" font-size="10.00">::Build</text>
</a>
</g>
</g>
<!-- Node2 -->
<g id="node2" class="node">
<title>Node2</title>
<g id="a_node2"><a xlink:href="classv8_1_1CTypeInfo.html#a4380813beff0adcfc05eff128b7efc2b" target="_top" xlink:title=" ">
<polygon fill="white" stroke="black" points="314.5,-47 314.5,-77 437.5,-77 437.5,-47 314.5,-47"/>
<text text-anchor="start" x="322.5" y="-65" font-family="Helvetica,sans-Serif" font-size="10.00">v8::CTypeInfo::IsFloating</text>
<text text-anchor="middle" x="376" y="-54" font-family="Helvetica,sans-Serif" font-size="10.00">PointType</text>
</a>
</g>
</g>
<!-- Node1&#45;&gt;Node2 -->
<g id="edge1" class="edge">
<title>Node1&#45;&gt;Node2</title>
<path fill="none" stroke="midnightblue" d="M106.33,-44.79C118.01,-47.22 130.38,-49.48 142,-51 196.13,-58.07 257.86,-60.75 304.18,-61.69"/>
<polygon fill="midnightblue" stroke="midnightblue" points="304.35,-65.2 314.41,-61.88 304.48,-58.2 304.35,-65.2"/>
</g>
<!-- Node3 -->
<g id="node3" class="node">
<title>Node3</title>
<g id="a_node3"><a xlink:href="classv8_1_1CTypeInfo.html#a899f68327619eca49795d8fcf065b1e9" target="_top" xlink:title=" ">
<polygon fill="white" stroke="black" points="305,-0.5 305,-19.5 447,-19.5 447,-0.5 305,-0.5"/>
<text text-anchor="middle" x="376" y="-7.5" font-family="Helvetica,sans-Serif" font-size="10.00">v8::CTypeInfo::IsIntegralType</text>
</a>
</g>
</g>
<!-- Node1&#45;&gt;Node3 -->
<g id="edge2" class="edge">
<title>Node1&#45;&gt;Node3</title>
<path fill="none" stroke="midnightblue" d="M106.3,-18.91C117.98,-16.5 130.35,-14.32 142,-13 192.64,-7.27 249.86,-6.45 294.92,-7.1"/>
<polygon fill="midnightblue" stroke="midnightblue" points="294.87,-10.6 304.93,-7.27 294.99,-3.6 294.87,-10.6"/>
</g>
<!-- Node4 -->
<g id="node4" class="node">
<title>Node4</title>
<g id="a_node4"><a xlink:href="classv8_1_1CTypeInfo.html#a522fe508ddc987381e5756cfb3ff55f6" target="_top" xlink:title=" ">
<polygon fill="white" stroke="black" points="142,-22.5 142,-41.5 269,-41.5 269,-22.5 142,-22.5"/>
<text text-anchor="middle" x="205.5" y="-29.5" font-family="Helvetica,sans-Serif" font-size="10.00">v8::CTypeInfo::IsPrimitive</text>
</a>
</g>
</g>
<!-- Node1&#45;&gt;Node4 -->
<g id="edge3" class="edge">
<title>Node1&#45;&gt;Node4</title>
<path fill="none" stroke="midnightblue" d="M106.22,-32C114.45,-32 123.1,-32 131.7,-32"/>
<polygon fill="midnightblue" stroke="midnightblue" points="131.75,-35.5 141.75,-32 131.75,-28.5 131.75,-35.5"/>
</g>
<!-- Node4&#45;&gt;Node2 -->
<g id="edge4" class="edge">
<title>Node4&#45;&gt;Node2</title>
<path fill="none" stroke="midnightblue" d="M260.28,-41.57C274.29,-44.07 289.59,-46.79 304.33,-49.42"/>
<polygon fill="midnightblue" stroke="midnightblue" points="303.96,-52.91 314.42,-51.21 305.19,-46.02 303.96,-52.91"/>
</g>
<!-- Node4&#45;&gt;Node3 -->
<g id="edge5" class="edge">
<title>Node4&#45;&gt;Node3</title>
<path fill="none" stroke="midnightblue" d="M269.24,-23.81C277.58,-22.72 286.22,-21.59 294.81,-20.47"/>
<polygon fill="midnightblue" stroke="midnightblue" points="295.37,-23.93 304.84,-19.16 294.47,-16.98 295.37,-23.93"/>
</g>
</g>
</svg>
