<?xml version="1.0" encoding="UTF-8" standalone="no"?>
<!DOCTYPE svg PUBLIC "-//W3C//DTD SVG 1.1//EN"
 "http://www.w3.org/Graphics/SVG/1.1/DTD/svg11.dtd">
<!-- Generated by graphviz version 8.0.5 (20230430.1635)
 -->
<!-- Title: include/cppgc/garbage&#45;collected.h Pages: 1 -->
<svg width="960pt" height="326pt"
 viewBox="0.00 0.00 959.62 326.00" xmlns="http://www.w3.org/2000/svg" xmlns:xlink="http://www.w3.org/1999/xlink">
<g id="graph0" class="graph" transform="scale(1 1) rotate(0) translate(4 322)">
<title>include/cppgc/garbage&#45;collected.h</title>
<!-- Node1 -->
<g id="node1" class="node">
<title>Node1</title>
<g id="a_node1"><a xlink:title=" ">
<polygon fill="#999999" stroke="#666666" points="818.38,-318 704.88,-318 704.88,-287.5 818.38,-287.5 818.38,-318"/>
<text text-anchor="start" x="712.88" y="-304.5" font-family="Helvetica,sans-Serif" font-size="10.00">include/cppgc/garbage</text>
<text text-anchor="middle" x="761.62" y="-293.25" font-family="Helvetica,sans-Serif" font-size="10.00">&#45;collected.h</text>
</a>
</g>
</g>
<!-- Node2 -->
<g id="node2" class="node">
<title>Node2</title>
<g id="a_node2"><a xlink:href="api-constants_8h.html" target="_top" xlink:title=" ">
<polygon fill="white" stroke="#666666" points="94.88,-141 2.38,-141 2.38,-110.5 94.88,-110.5 94.88,-141"/>
<text text-anchor="start" x="10.38" y="-127.5" font-family="Helvetica,sans-Serif" font-size="10.00">cppgc/internal/api</text>
<text text-anchor="middle" x="48.62" y="-116.25" font-family="Helvetica,sans-Serif" font-size="10.00">&#45;constants.h</text>
</a>
</g>
</g>
<!-- Node1&#45;&gt;Node2 -->
<g id="edge1" class="edge">
<title>Node1&#45;&gt;Node2</title>
<path fill="none" stroke="#63b8ff" d="M704.41,-294.21C604.9,-280.28 394.07,-247.23 221.62,-196.25 175.29,-182.55 124.18,-161.2 89.61,-145.78"/>
<polygon fill="#63b8ff" stroke="#63b8ff" points="91.43,-142.31 80.87,-141.4 88.55,-148.69 91.43,-142.31"/>
</g>
<!-- Node7 -->
<g id="node7" class="node">
<title>Node7</title>
<g id="a_node7"><a xlink:href="platform_8h.html" target="_top" xlink:title=" ">
<polygon fill="white" stroke="#666666" points="769.62,-251.5 681.62,-251.5 681.62,-232.25 769.62,-232.25 769.62,-251.5"/>
<text text-anchor="middle" x="725.62" y="-238" font-family="Helvetica,sans-Serif" font-size="10.00">cppgc/platform.h</text>
</a>
</g>
</g>
<!-- Node1&#45;&gt;Node7 -->
<g id="edge6" class="edge">
<title>Node1&#45;&gt;Node7</title>
<path fill="none" stroke="#63b8ff" d="M752.73,-287.2C747.93,-279.35 741.96,-269.6 736.85,-261.24"/>
<polygon fill="#63b8ff" stroke="#63b8ff" points="739.38,-259.66 731.17,-252.95 733.41,-263.31 739.38,-259.66"/>
</g>
<!-- Node19 -->
<g id="node19" class="node">
<title>Node19</title>
<g id="a_node19"><a xlink:href="trace-trait_8h.html" target="_top" xlink:title=" ">
<polygon fill="white" stroke="#666666" points="951.62,-251.5 857.62,-251.5 857.62,-232.25 951.62,-232.25 951.62,-251.5"/>
<text text-anchor="middle" x="904.62" y="-238" font-family="Helvetica,sans-Serif" font-size="10.00">cppgc/trace&#45;trait.h</text>
</a>
</g>
</g>
<!-- Node1&#45;&gt;Node19 -->
<g id="edge26" class="edge">
<title>Node1&#45;&gt;Node19</title>
<path fill="none" stroke="#63b8ff" d="M797.34,-287.05C820.48,-277.52 850.35,-265.22 872.7,-256.02"/>
<polygon fill="#63b8ff" stroke="#63b8ff" points="873.78,-258.95 881.69,-251.9 871.12,-252.47 873.78,-258.95"/>
</g>
<!-- Node21 -->
<g id="node21" class="node">
<title>Node21</title>
<g id="a_node21"><a xlink:href="type-traits_8h.html" target="_top" xlink:title=" ">
<polygon fill="white" stroke="#666666" points="887.38,-196.25 791.88,-196.25 791.88,-177 887.38,-177 887.38,-196.25"/>
<text text-anchor="middle" x="839.62" y="-182.75" font-family="Helvetica,sans-Serif" font-size="10.00">cppgc/type&#45;traits.h</text>
</a>
</g>
</g>
<!-- Node1&#45;&gt;Node21 -->
<g id="edge33" class="edge">
<title>Node1&#45;&gt;Node21</title>
<path fill="none" stroke="#63b8ff" d="M771.5,-287.3C785.72,-266.5 811.92,-228.17 827.35,-205.58"/>
<polygon fill="#63b8ff" stroke="#63b8ff" points="830.67,-207.93 833.42,-197.7 824.89,-203.98 830.67,-207.93"/>
</g>
<!-- Node3 -->
<g id="node3" class="node">
<title>Node3</title>
<g id="a_node3"><a xlink:title=" ">
<polygon fill="#e0e0e0" stroke="#999999" points="283.75,-74.5 235.5,-74.5 235.5,-55.25 283.75,-55.25 283.75,-74.5"/>
<text text-anchor="middle" x="259.62" y="-61" font-family="Helvetica,sans-Serif" font-size="10.00">cstddef</text>
</a>
</g>
</g>
<!-- Node2&#45;&gt;Node3 -->
<g id="edge2" class="edge">
<title>Node2&#45;&gt;Node3</title>
<path fill="none" stroke="#63b8ff" d="M95.19,-111.76C134.35,-100.83 189.45,-85.46 224.85,-75.58"/>
<polygon fill="#63b8ff" stroke="#63b8ff" points="225.47,-78.76 234.16,-72.7 223.59,-72.02 225.47,-78.76"/>
</g>
<!-- Node4 -->
<g id="node4" class="node">
<title>Node4</title>
<g id="a_node4"><a xlink:title=" ">
<polygon fill="#e0e0e0" stroke="#999999" points="45.25,-74.5 0,-74.5 0,-55.25 45.25,-55.25 45.25,-74.5"/>
<text text-anchor="middle" x="22.62" y="-61" font-family="Helvetica,sans-Serif" font-size="10.00">cstdint</text>
</a>
</g>
</g>
<!-- Node2&#45;&gt;Node4 -->
<g id="edge3" class="edge">
<title>Node2&#45;&gt;Node4</title>
<path fill="none" stroke="#63b8ff" d="M42.2,-110.2C38.81,-102.53 34.61,-93.02 30.98,-84.79"/>
<polygon fill="#63b8ff" stroke="#63b8ff" points="33.87,-83.69 26.63,-75.95 27.47,-86.51 33.87,-83.69"/>
</g>
<!-- Node5 -->
<g id="node5" class="node">
<title>Node5</title>
<g id="a_node5"><a xlink:href="v8config_8h.html" target="_top" xlink:title=" ">
<polygon fill="white" stroke="#666666" points="717.38,-74.5 657.88,-74.5 657.88,-55.25 717.38,-55.25 717.38,-74.5"/>
<text text-anchor="middle" x="687.62" y="-61" font-family="Helvetica,sans-Serif" font-size="10.00">v8config.h</text>
</a>
</g>
</g>
<!-- Node2&#45;&gt;Node5 -->
<g id="edge4" class="edge">
<title>Node2&#45;&gt;Node5</title>
<path fill="none" stroke="#63b8ff" d="M95.31,-112.05C98.11,-111.48 100.9,-110.95 103.62,-110.5 305.56,-76.9 551.05,-68.55 646.71,-66.51"/>
<polygon fill="#63b8ff" stroke="#63b8ff" points="646.69,-70 656.62,-66.3 646.55,-63 646.69,-70"/>
</g>
<!-- Node6 -->
<g id="node6" class="node">
<title>Node6</title>
<g id="a_node6"><a xlink:title=" ">
<polygon fill="#e0e0e0" stroke="#999999" points="712.88,-19.25 662.38,-19.25 662.38,0 712.88,0 712.88,-19.25"/>
<text text-anchor="middle" x="687.62" y="-5.75" font-family="Helvetica,sans-Serif" font-size="10.00">memory</text>
</a>
</g>
</g>
<!-- Node5&#45;&gt;Node6 -->
<g id="edge5" class="edge">
<title>Node5&#45;&gt;Node6</title>
<path fill="none" stroke="#63b8ff" d="M687.62,-55.08C687.62,-48.42 687.62,-38.99 687.62,-30.53"/>
<polygon fill="#63b8ff" stroke="#63b8ff" points="691.13,-30.61 687.62,-20.61 684.13,-30.61 691.13,-30.61"/>
</g>
<!-- Node7&#45;&gt;Node5 -->
<g id="edge25" class="edge">
<title>Node7&#45;&gt;Node5</title>
<path fill="none" stroke="#63b8ff" d="M723.69,-231.96C717.82,-204.93 700.13,-123.49 691.91,-85.62"/>
<polygon fill="#63b8ff" stroke="#63b8ff" points="695.15,-85.02 689.6,-75.99 688.31,-86.5 695.15,-85.02"/>
</g>
<!-- Node7&#45;&gt;Node6 -->
<g id="edge7" class="edge">
<title>Node7&#45;&gt;Node6</title>
<path fill="none" stroke="#63b8ff" d="M727.88,-231.96C734.37,-204.47 751.16,-119.01 726.62,-55.25 722.5,-44.53 714.56,-34.68 706.91,-26.97"/>
<polygon fill="#63b8ff" stroke="#63b8ff" points="709.62,-24.78 699.92,-20.51 704.84,-29.89 709.62,-24.78"/>
</g>
<!-- Node8 -->
<g id="node8" class="node">
<title>Node8</title>
<g id="a_node8"><a xlink:href="source-location_8h.html" target="_top" xlink:title=" ">
<polygon fill="white" stroke="#666666" points="349,-196.25 230.25,-196.25 230.25,-177 349,-177 349,-196.25"/>
<text text-anchor="middle" x="289.62" y="-182.75" font-family="Helvetica,sans-Serif" font-size="10.00">cppgc/source&#45;location.h</text>
</a>
</g>
</g>
<!-- Node7&#45;&gt;Node8 -->
<g id="edge8" class="edge">
<title>Node7&#45;&gt;Node8</title>
<path fill="none" stroke="#63b8ff" d="M681.42,-235.48C605.69,-226.23 450.58,-207.28 359.89,-196.21"/>
<polygon fill="#63b8ff" stroke="#63b8ff" points="360.51,-192.63 350.16,-194.9 359.66,-199.58 360.51,-192.63"/>
</g>
<!-- Node13 -->
<g id="node13" class="node">
<title>Node13</title>
<g id="a_node13"><a xlink:href="v8-platform_8h.html" target="_top" xlink:title=" ">
<polygon fill="white" stroke="#666666" points="496.75,-196.25 424.5,-196.25 424.5,-177 496.75,-177 496.75,-196.25"/>
<text text-anchor="middle" x="460.62" y="-182.75" font-family="Helvetica,sans-Serif" font-size="10.00">v8&#45;platform.h</text>
</a>
</g>
</g>
<!-- Node7&#45;&gt;Node13 -->
<g id="edge15" class="edge">
<title>Node7&#45;&gt;Node13</title>
<path fill="none" stroke="#63b8ff" d="M681.27,-231.96C633.19,-222.3 556.77,-206.94 507.66,-197.08"/>
<polygon fill="#63b8ff" stroke="#63b8ff" points="508.51,-193.48 498.01,-194.94 507.13,-200.34 508.51,-193.48"/>
</g>
<!-- Node9 -->
<g id="node9" class="node">
<title>Node9</title>
<g id="a_node9"><a xlink:href="v8-source-location_8h.html" target="_top" xlink:title=" ">
<polygon fill="white" stroke="#666666" points="216.12,-135.38 113.12,-135.38 113.12,-116.12 216.12,-116.12 216.12,-135.38"/>
<text text-anchor="middle" x="164.62" y="-121.88" font-family="Helvetica,sans-Serif" font-size="10.00">v8&#45;source&#45;location.h</text>
</a>
</g>
</g>
<!-- Node8&#45;&gt;Node9 -->
<g id="edge9" class="edge">
<title>Node8&#45;&gt;Node9</title>
<path fill="none" stroke="#63b8ff" d="M270.37,-176.55C249.85,-166.89 217.13,-151.48 193.51,-140.36"/>
<polygon fill="#63b8ff" stroke="#63b8ff" points="195.24,-136.83 184.7,-135.73 192.25,-143.16 195.24,-136.83"/>
</g>
<!-- Node9&#45;&gt;Node3 -->
<g id="edge10" class="edge">
<title>Node9&#45;&gt;Node3</title>
<path fill="none" stroke="#63b8ff" d="M179.05,-115.81C194.12,-106.47 218,-91.67 235.85,-80.61"/>
<polygon fill="#63b8ff" stroke="#63b8ff" points="237.4,-83.14 244.06,-74.9 233.72,-77.19 237.4,-83.14"/>
</g>
<!-- Node9&#45;&gt;Node5 -->
<g id="edge14" class="edge">
<title>Node9&#45;&gt;Node5</title>
<path fill="none" stroke="#63b8ff" d="M199.36,-115.65C207.6,-113.73 216.39,-111.87 224.62,-110.5 379.27,-84.81 565.6,-72.42 646.65,-67.93"/>
<polygon fill="#63b8ff" stroke="#63b8ff" points="646.58,-71.39 656.38,-67.35 646.2,-64.4 646.58,-71.39"/>
</g>
<!-- Node10 -->
<g id="node10" class="node">
<title>Node10</title>
<g id="a_node10"><a xlink:title=" ">
<polygon fill="#e0e0e0" stroke="#999999" points="147.75,-74.5 63.5,-74.5 63.5,-55.25 147.75,-55.25 147.75,-74.5"/>
<text text-anchor="middle" x="105.62" y="-61" font-family="Helvetica,sans-Serif" font-size="10.00">source_location</text>
</a>
</g>
</g>
<!-- Node9&#45;&gt;Node10 -->
<g id="edge11" class="edge">
<title>Node9&#45;&gt;Node10</title>
<path fill="none" stroke="#63b8ff" d="M155.66,-115.81C146.83,-106.99 133.11,-93.3 122.27,-82.48"/>
<polygon fill="#63b8ff" stroke="#63b8ff" points="125.22,-80.49 115.67,-75.9 120.28,-85.44 125.22,-80.49"/>
</g>
<!-- Node11 -->
<g id="node11" class="node">
<title>Node11</title>
<g id="a_node11"><a xlink:title=" ">
<polygon fill="#e0e0e0" stroke="#999999" points="217.25,-74.5 166,-74.5 166,-55.25 217.25,-55.25 217.25,-74.5"/>
<text text-anchor="middle" x="191.62" y="-61" font-family="Helvetica,sans-Serif" font-size="10.00">sstream</text>
</a>
</g>
</g>
<!-- Node9&#45;&gt;Node11 -->
<g id="edge12" class="edge">
<title>Node9&#45;&gt;Node11</title>
<path fill="none" stroke="#63b8ff" d="M168.73,-115.81C172.49,-107.6 178.2,-95.16 182.97,-84.75"/>
<polygon fill="#63b8ff" stroke="#63b8ff" points="186.5,-86.45 187.49,-75.9 180.14,-83.53 186.5,-86.45"/>
</g>
<!-- Node12 -->
<g id="node12" class="node">
<title>Node12</title>
<g id="a_node12"><a xlink:title=" ">
<polygon fill="#e0e0e0" stroke="#999999" points="396.62,-74.5 356.62,-74.5 356.62,-55.25 396.62,-55.25 396.62,-74.5"/>
<text text-anchor="middle" x="376.62" y="-61" font-family="Helvetica,sans-Serif" font-size="10.00">string</text>
</a>
</g>
</g>
<!-- Node9&#45;&gt;Node12 -->
<g id="edge13" class="edge">
<title>Node9&#45;&gt;Node12</title>
<path fill="none" stroke="#63b8ff" d="M197.29,-115.68C237.75,-104.44 306.2,-85.43 345.8,-74.44"/>
<polygon fill="#63b8ff" stroke="#63b8ff" points="346.69,-77.54 355.39,-71.49 344.82,-70.8 346.69,-77.54"/>
</g>
<!-- Node13&#45;&gt;Node5 -->
<g id="edge24" class="edge">
<title>Node13&#45;&gt;Node5</title>
<path fill="none" stroke="#63b8ff" d="M496.95,-182.99C533.42,-178.85 589.91,-168.22 630.62,-141 652.04,-126.68 668.66,-101.59 678.3,-84.37"/>
<polygon fill="#63b8ff" stroke="#63b8ff" points="681.76,-86.31 683.37,-75.83 675.58,-83.02 681.76,-86.31"/>
</g>
<!-- Node13&#45;&gt;Node6 -->
<g id="edge20" class="edge">
<title>Node13&#45;&gt;Node6</title>
<path fill="none" stroke="#63b8ff" d="M463.17,-176.69C467.9,-161.43 479.37,-130.1 498.62,-110.5 542.41,-65.93 610.34,-36.79 651.72,-22.06"/>
<polygon fill="#63b8ff" stroke="#63b8ff" points="652.59,-25.12 660.89,-18.54 650.3,-18.5 652.59,-25.12"/>
</g>
<!-- Node13&#45;&gt;Node9 -->
<g id="edge23" class="edge">
<title>Node13&#45;&gt;Node9</title>
<path fill="none" stroke="#63b8ff" d="M424.13,-179.27C377.67,-171.04 294.97,-156 224.62,-141 220.56,-140.13 216.35,-139.2 212.13,-138.24"/>
<polygon fill="#63b8ff" stroke="#63b8ff" points="213.22,-134.68 202.69,-135.84 211.65,-141.5 213.22,-134.68"/>
</g>
<!-- Node13&#45;&gt;Node12 -->
<g id="edge22" class="edge">
<title>Node13&#45;&gt;Node12</title>
<path fill="none" stroke="#63b8ff" d="M457.27,-176.76C451.5,-162.13 438.74,-132.4 422.62,-110.5 415.01,-100.15 404.9,-90.06 396.1,-82.09"/>
<polygon fill="#63b8ff" stroke="#63b8ff" points="398.71,-78.85 388.88,-74.91 394.11,-84.12 398.71,-78.85"/>
</g>
<!-- Node14 -->
<g id="node14" class="node">
<title>Node14</title>
<g id="a_node14"><a xlink:title=" ">
<polygon fill="#e0e0e0" stroke="#999999" points="553.25,-135.38 508,-135.38 508,-116.12 553.25,-116.12 553.25,-135.38"/>
<text text-anchor="middle" x="530.62" y="-121.88" font-family="Helvetica,sans-Serif" font-size="10.00">math.h</text>
</a>
</g>
</g>
<!-- Node13&#45;&gt;Node14 -->
<g id="edge16" class="edge">
<title>Node13&#45;&gt;Node14</title>
<path fill="none" stroke="#63b8ff" d="M471.26,-176.68C481.95,-167.69 498.66,-153.64 511.63,-142.73"/>
<polygon fill="#63b8ff" stroke="#63b8ff" points="513.49,-144.89 518.89,-135.78 508.99,-139.53 513.49,-144.89"/>
</g>
<!-- Node15 -->
<g id="node15" class="node">
<title>Node15</title>
<g id="a_node15"><a xlink:title=" ">
<polygon fill="#e0e0e0" stroke="#999999" points="621.88,-135.38 571.38,-135.38 571.38,-116.12 621.88,-116.12 621.88,-135.38"/>
<text text-anchor="middle" x="596.62" y="-121.88" font-family="Helvetica,sans-Serif" font-size="10.00">stddef.h</text>
</a>
</g>
</g>
<!-- Node13&#45;&gt;Node15 -->
<g id="edge17" class="edge">
<title>Node13&#45;&gt;Node15</title>
<path fill="none" stroke="#63b8ff" d="M481.58,-176.55C504.1,-166.8 540.14,-151.2 565.88,-140.06"/>
<polygon fill="#63b8ff" stroke="#63b8ff" points="567.09,-142.92 574.87,-135.73 564.3,-136.49 567.09,-142.92"/>
</g>
<!-- Node16 -->
<g id="node16" class="node">
<title>Node16</title>
<g id="a_node16"><a xlink:title=" ">
<polygon fill="#e0e0e0" stroke="#999999" points="281.38,-135.38 233.88,-135.38 233.88,-116.12 281.38,-116.12 281.38,-135.38"/>
<text text-anchor="middle" x="257.62" y="-121.88" font-family="Helvetica,sans-Serif" font-size="10.00">stdint.h</text>
</a>
</g>
</g>
<!-- Node13&#45;&gt;Node16 -->
<g id="edge18" class="edge">
<title>Node13&#45;&gt;Node16</title>
<path fill="none" stroke="#63b8ff" d="M424,-177.7C389.25,-169.78 335.77,-156.57 290.62,-141 289.53,-140.62 288.43,-140.23 287.31,-139.82"/>
<polygon fill="#63b8ff" stroke="#63b8ff" points="288.91,-136.29 278.33,-135.83 286.32,-142.79 288.91,-136.29"/>
</g>
<!-- Node17 -->
<g id="node17" class="node">
<title>Node17</title>
<g id="a_node17"><a xlink:title=" ">
<polygon fill="#e0e0e0" stroke="#999999" points="346,-135.38 299.25,-135.38 299.25,-116.12 346,-116.12 346,-135.38"/>
<text text-anchor="middle" x="322.62" y="-121.88" font-family="Helvetica,sans-Serif" font-size="10.00">stdlib.h</text>
</a>
</g>
</g>
<!-- Node13&#45;&gt;Node17 -->
<g id="edge19" class="edge">
<title>Node13&#45;&gt;Node17</title>
<path fill="none" stroke="#63b8ff" d="M438.64,-176.53C417.17,-167.6 383.57,-153.54 354.62,-141 354.03,-140.74 353.43,-140.48 352.83,-140.22"/>
<polygon fill="#63b8ff" stroke="#63b8ff" points="354.47,-136.68 343.91,-135.86 351.66,-143.09 354.47,-136.68"/>
</g>
<!-- Node18 -->
<g id="node18" class="node">
<title>Node18</title>
<g id="a_node18"><a xlink:title=" ">
<polygon fill="#e0e0e0" stroke="#999999" points="413.5,-135.38 363.75,-135.38 363.75,-116.12 413.5,-116.12 413.5,-135.38"/>
<text text-anchor="middle" x="388.62" y="-121.88" font-family="Helvetica,sans-Serif" font-size="10.00">optional</text>
</a>
</g>
</g>
<!-- Node13&#45;&gt;Node18 -->
<g id="edge21" class="edge">
<title>Node13&#45;&gt;Node18</title>
<path fill="none" stroke="#63b8ff" d="M449.69,-176.68C438.69,-167.69 421.51,-153.64 408.16,-142.73"/>
<polygon fill="#63b8ff" stroke="#63b8ff" points="410.62,-139.4 400.66,-135.78 406.19,-144.82 410.62,-139.4"/>
</g>
<!-- Node19&#45;&gt;Node5 -->
<g id="edge32" class="edge">
<title>Node19&#45;&gt;Node5</title>
<path fill="none" stroke="#63b8ff" d="M911.36,-231.76C927.55,-208.66 965.15,-147.04 934.62,-110.5 908.79,-79.58 791.43,-70.05 728.22,-67.14"/>
<polygon fill="#63b8ff" stroke="#63b8ff" points="728.6,-63.61 718.46,-66.68 728.3,-70.6 728.6,-63.61"/>
</g>
<!-- Node20 -->
<g id="node20" class="node">
<title>Node20</title>
<g id="a_node20"><a xlink:title=" ">
<polygon fill="#e0e0e0" stroke="#999999" points="925.12,-135.38 864.12,-135.38 864.12,-116.12 925.12,-116.12 925.12,-135.38"/>
<text text-anchor="middle" x="894.62" y="-121.88" font-family="Helvetica,sans-Serif" font-size="10.00">type_traits</text>
</a>
</g>
</g>
<!-- Node19&#45;&gt;Node20 -->
<g id="edge27" class="edge">
<title>Node19&#45;&gt;Node20</title>
<path fill="none" stroke="#63b8ff" d="M903.84,-231.92C902.23,-213.59 898.54,-171.4 896.35,-146.38"/>
<polygon fill="#63b8ff" stroke="#63b8ff" points="899.77,-146.32 895.41,-136.66 892.79,-146.93 899.77,-146.32"/>
</g>
<!-- Node19&#45;&gt;Node21 -->
<g id="edge28" class="edge">
<title>Node19&#45;&gt;Node21</title>
<path fill="none" stroke="#63b8ff" d="M893.6,-231.84C884.11,-224.07 870.2,-212.67 858.88,-203.4"/>
<polygon fill="#63b8ff" stroke="#63b8ff" points="861.44,-200.15 851.49,-196.52 857.01,-205.57 861.44,-200.15"/>
</g>
<!-- Node21&#45;&gt;Node3 -->
<g id="edge29" class="edge">
<title>Node21&#45;&gt;Node3</title>
<path fill="none" stroke="#63b8ff" d="M819.33,-176.58C782.51,-160.58 701.92,-127.37 630.62,-110.5 598.38,-102.87 381.26,-78.99 294.93,-69.66"/>
<polygon fill="#63b8ff" stroke="#63b8ff" points="295.44,-66.09 285.12,-68.5 294.69,-73.05 295.44,-66.09"/>
</g>
<!-- Node21&#45;&gt;Node20 -->
<g id="edge30" class="edge">
<title>Node21&#45;&gt;Node20</title>
<path fill="none" stroke="#63b8ff" d="M847.98,-176.68C856.14,-167.95 868.75,-154.44 878.81,-143.68"/>
<polygon fill="#63b8ff" stroke="#63b8ff" points="880.92,-146.47 885.19,-136.78 875.81,-141.69 880.92,-146.47"/>
</g>
<!-- Node22 -->
<g id="node22" class="node">
<title>Node22</title>
<g id="a_node22"><a xlink:title=" ">
<polygon fill="#e0e0e0" stroke="#999999" points="845.88,-135.38 807.38,-135.38 807.38,-116.12 845.88,-116.12 845.88,-135.38"/>
<text text-anchor="middle" x="826.62" y="-121.88" font-family="Helvetica,sans-Serif" font-size="10.00">utility</text>
</a>
</g>
</g>
<!-- Node21&#45;&gt;Node22 -->
<g id="edge31" class="edge">
<title>Node21&#45;&gt;Node22</title>
<path fill="none" stroke="#63b8ff" d="M837.65,-176.68C835.88,-168.64 833.21,-156.55 830.94,-146.28"/>
<polygon fill="#63b8ff" stroke="#63b8ff" points="834.19,-145.79 828.62,-136.78 827.36,-147.3 834.19,-145.79"/>
</g>
</g>
</svg>
