<?xml version="1.0" encoding="UTF-8" standalone="no"?>
<!DOCTYPE svg PUBLIC "-//W3C//DTD SVG 1.1//EN"
 "http://www.w3.org/Graphics/SVG/1.1/DTD/svg11.dtd">
<!-- Generated by graphviz version 2.49.3 (20211027.1534)
 -->
<!-- Title: include/cppgc/heap&#45;consistency.h Pages: 1 -->
<svg width="1078pt" height="285pt"
 viewBox="0.00 0.00 1078.00 285.00" xmlns="http://www.w3.org/2000/svg" xmlns:xlink="http://www.w3.org/1999/xlink">
<g id="graph0" class="graph" transform="scale(1 1) rotate(0) translate(4 281)">
<title>include/cppgc/heap&#45;consistency.h</title>
<polygon fill="white" stroke="transparent" points="-4,4 -4,-281 1074,-281 1074,4 -4,4"/>
<!-- Node1 -->
<g id="node1" class="node">
<title>Node1</title>
<g id="a_node1"><a xlink:title=" ">
<polygon fill="#bfbfbf" stroke="black" points="230.5,-246.5 230.5,-276.5 331.5,-276.5 331.5,-246.5 230.5,-246.5"/>
<text text-anchor="start" x="238.5" y="-264.5" font-family="Helvetica,sans-Serif" font-size="10.00">include/cppgc/heap</text>
<text text-anchor="middle" x="281" y="-253.5" font-family="Helvetica,sans-Serif" font-size="10.00">&#45;consistency.h</text>
</a>
</g>
</g>
<!-- Node2 -->
<g id="node2" class="node">
<title>Node2</title>
<g id="a_node2"><a xlink:title=" ">
<polygon fill="white" stroke="#bfbfbf" points="261.5,-0.5 261.5,-19.5 310.5,-19.5 310.5,-0.5 261.5,-0.5"/>
<text text-anchor="middle" x="286" y="-7.5" font-family="Helvetica,sans-Serif" font-size="10.00">cstddef</text>
</a>
</g>
</g>
<!-- Node1&#45;&gt;Node2 -->
<g id="edge1" class="edge">
<title>Node1&#45;&gt;Node2</title>
<path fill="none" stroke="midnightblue" d="M259.7,-246.38C248.27,-237.46 235.27,-224.84 229,-210 223.63,-197.31 228.49,-192.77 229,-179 231.06,-123.65 223.67,-105.25 249,-56 254.41,-45.48 262.6,-35.17 269.91,-27.09"/>
<polygon fill="midnightblue" stroke="midnightblue" points="272.45,-29.49 276.78,-19.81 267.37,-24.68 272.45,-29.49"/>
</g>
<!-- Node3 -->
<g id="node3" class="node">
<title>Node3</title>
<g id="a_node3"><a xlink:href="write-barrier_8h.html" target="_top" xlink:title=" ">
<polygon fill="white" stroke="black" points="494.5,-179.5 494.5,-209.5 595.5,-209.5 595.5,-179.5 494.5,-179.5"/>
<text text-anchor="start" x="502.5" y="-197.5" font-family="Helvetica,sans-Serif" font-size="10.00">cppgc/internal/write</text>
<text text-anchor="middle" x="545" y="-186.5" font-family="Helvetica,sans-Serif" font-size="10.00">&#45;barrier.h</text>
</a>
</g>
</g>
<!-- Node1&#45;&gt;Node3 -->
<g id="edge2" class="edge">
<title>Node1&#45;&gt;Node3</title>
<path fill="none" stroke="midnightblue" d="M331.59,-248.04C375.11,-237.33 438,-221.85 484.24,-210.46"/>
<polygon fill="midnightblue" stroke="midnightblue" points="485.26,-213.81 494.13,-208.02 483.59,-207.02 485.26,-213.81"/>
</g>
<!-- Node6 -->
<g id="node6" class="node">
<title>Node6</title>
<g id="a_node6"><a xlink:href="v8config_8h.html" target="_top" xlink:title=" ">
<polygon fill="white" stroke="black" points="594,-0.5 594,-19.5 654,-19.5 654,-0.5 594,-0.5"/>
<text text-anchor="middle" x="624" y="-7.5" font-family="Helvetica,sans-Serif" font-size="10.00">v8config.h</text>
</a>
</g>
</g>
<!-- Node1&#45;&gt;Node6 -->
<g id="edge40" class="edge">
<title>Node1&#45;&gt;Node6</title>
<path fill="none" stroke="midnightblue" d="M331.95,-258.77C465.02,-253.04 817.46,-229.81 886,-143 949.31,-62.81 752.54,-27.24 664.4,-15.6"/>
<polygon fill="midnightblue" stroke="midnightblue" points="664.58,-12.1 654.22,-14.3 663.69,-19.04 664.58,-12.1"/>
</g>
<!-- Node19 -->
<g id="node19" class="node">
<title>Node19</title>
<g id="a_node19"><a xlink:href="trace-trait_8h.html" target="_top" xlink:title=" ">
<polygon fill="white" stroke="black" points="59.5,-118 59.5,-137 154.5,-137 154.5,-118 59.5,-118"/>
<text text-anchor="middle" x="107" y="-125" font-family="Helvetica,sans-Serif" font-size="10.00">cppgc/trace&#45;trait.h</text>
</a>
</g>
</g>
<!-- Node1&#45;&gt;Node19 -->
<g id="edge39" class="edge">
<title>Node1&#45;&gt;Node19</title>
<path fill="none" stroke="midnightblue" d="M236.99,-246.48C215.11,-238.13 189.11,-226 169,-210 146.46,-192.07 127.62,-164.2 116.82,-146.14"/>
<polygon fill="midnightblue" stroke="midnightblue" points="119.72,-144.15 111.68,-137.25 113.66,-147.66 119.72,-144.15"/>
</g>
<!-- Node22 -->
<g id="node22" class="node">
<title>Node22</title>
<g id="a_node22"><a xlink:href="macros_8h.html" target="_top" xlink:title=" ">
<polygon fill="white" stroke="black" points="238,-185 238,-204 324,-204 324,-185 238,-185"/>
<text text-anchor="middle" x="281" y="-192" font-family="Helvetica,sans-Serif" font-size="10.00">cppgc/macros.h</text>
</a>
</g>
</g>
<!-- Node1&#45;&gt;Node22 -->
<g id="edge36" class="edge">
<title>Node1&#45;&gt;Node22</title>
<path fill="none" stroke="midnightblue" d="M281,-246.4C281,-237.06 281,-224.71 281,-214.52"/>
<polygon fill="midnightblue" stroke="midnightblue" points="284.5,-214.19 281,-204.19 277.5,-214.19 284.5,-214.19"/>
</g>
<!-- Node3&#45;&gt;Node2 -->
<g id="edge3" class="edge">
<title>Node3&#45;&gt;Node2</title>
<path fill="none" stroke="midnightblue" d="M511.75,-179.49C491.26,-170.26 464.83,-157.28 443,-143 387.37,-106.6 329.38,-53.09 302.06,-26.78"/>
<polygon fill="midnightblue" stroke="midnightblue" points="304.22,-24 294.6,-19.54 299.34,-29.02 304.22,-24"/>
</g>
<!-- Node4 -->
<g id="node4" class="node">
<title>Node4</title>
<g id="a_node4"><a xlink:title=" ">
<polygon fill="white" stroke="#bfbfbf" points="611,-56.5 611,-75.5 657,-75.5 657,-56.5 611,-56.5"/>
<text text-anchor="middle" x="634" y="-63.5" font-family="Helvetica,sans-Serif" font-size="10.00">cstdint</text>
</a>
</g>
</g>
<!-- Node3&#45;&gt;Node4 -->
<g id="edge4" class="edge">
<title>Node3&#45;&gt;Node4</title>
<path fill="none" stroke="midnightblue" d="M595.65,-187.41C647.36,-180.02 722.45,-165.68 740,-143 748.43,-132.1 747.6,-123.49 740,-112 731.5,-99.16 694.83,-85.47 666.98,-76.61"/>
<polygon fill="midnightblue" stroke="midnightblue" points="667.78,-73.19 657.19,-73.58 665.71,-79.88 667.78,-73.19"/>
</g>
<!-- Node5 -->
<g id="node5" class="node">
<title>Node5</title>
<g id="a_node5"><a xlink:href="heap-state_8h.html" target="_top" xlink:title=" ">
<polygon fill="white" stroke="black" points="417.5,-56.5 417.5,-75.5 516.5,-75.5 516.5,-56.5 417.5,-56.5"/>
<text text-anchor="middle" x="467" y="-63.5" font-family="Helvetica,sans-Serif" font-size="10.00">cppgc/heap&#45;state.h</text>
</a>
</g>
</g>
<!-- Node3&#45;&gt;Node5 -->
<g id="edge5" class="edge">
<title>Node3&#45;&gt;Node5</title>
<path fill="none" stroke="midnightblue" d="M498.36,-179.36C480.96,-171.57 463.02,-159.93 453,-143 442.36,-125.02 449.84,-100.8 457.34,-84.58"/>
<polygon fill="midnightblue" stroke="midnightblue" points="460.47,-86.15 461.84,-75.64 454.21,-83 460.47,-86.15"/>
</g>
<!-- Node3&#45;&gt;Node6 -->
<g id="edge35" class="edge">
<title>Node3&#45;&gt;Node6</title>
<path fill="none" stroke="midnightblue" d="M550.54,-179.32C560.42,-154.25 581.91,-100.52 602,-56 606.12,-46.87 610.98,-36.85 615.09,-28.58"/>
<polygon fill="midnightblue" stroke="midnightblue" points="618.27,-30.06 619.62,-19.55 612.01,-26.92 618.27,-30.06"/>
</g>
<!-- Node7 -->
<g id="node7" class="node">
<title>Node7</title>
<g id="a_node7"><a xlink:href="api-constants_8h.html" target="_top" xlink:title=" ">
<polygon fill="white" stroke="black" points="461.5,-112.5 461.5,-142.5 554.5,-142.5 554.5,-112.5 461.5,-112.5"/>
<text text-anchor="start" x="469.5" y="-130.5" font-family="Helvetica,sans-Serif" font-size="10.00">cppgc/internal/api</text>
<text text-anchor="middle" x="508" y="-119.5" font-family="Helvetica,sans-Serif" font-size="10.00">&#45;constants.h</text>
</a>
</g>
</g>
<!-- Node3&#45;&gt;Node7 -->
<g id="edge7" class="edge">
<title>Node3&#45;&gt;Node7</title>
<path fill="none" stroke="midnightblue" d="M536.97,-179.4C532.32,-171.22 526.34,-160.73 521.03,-151.39"/>
<polygon fill="midnightblue" stroke="midnightblue" points="524,-149.54 516.01,-142.58 517.92,-153 524,-149.54"/>
</g>
<!-- Node8 -->
<g id="node8" class="node">
<title>Node8</title>
<g id="a_node8"><a xlink:href="atomic-entry-flag_8h.html" target="_top" xlink:title=" ">
<polygon fill="white" stroke="black" points="960,-112.5 960,-142.5 1070,-142.5 1070,-112.5 960,-112.5"/>
<text text-anchor="start" x="968" y="-130.5" font-family="Helvetica,sans-Serif" font-size="10.00">cppgc/internal/atomic</text>
<text text-anchor="middle" x="1015" y="-119.5" font-family="Helvetica,sans-Serif" font-size="10.00">&#45;entry&#45;flag.h</text>
</a>
</g>
</g>
<!-- Node3&#45;&gt;Node8 -->
<g id="edge11" class="edge">
<title>Node3&#45;&gt;Node8</title>
<path fill="none" stroke="midnightblue" d="M595.74,-186.48C681.51,-174.62 855.04,-150.62 949.73,-137.53"/>
<polygon fill="midnightblue" stroke="midnightblue" points="950.34,-140.98 959.76,-136.14 949.38,-134.04 950.34,-140.98"/>
</g>
<!-- Node10 -->
<g id="node10" class="node">
<title>Node10</title>
<g id="a_node10"><a xlink:href="platform_8h.html" target="_top" xlink:title=" ">
<polygon fill="white" stroke="black" points="787.5,-118 787.5,-137 876.5,-137 876.5,-118 787.5,-118"/>
<text text-anchor="middle" x="832" y="-125" font-family="Helvetica,sans-Serif" font-size="10.00">cppgc/platform.h</text>
</a>
</g>
</g>
<!-- Node3&#45;&gt;Node10 -->
<g id="edge13" class="edge">
<title>Node3&#45;&gt;Node10</title>
<path fill="none" stroke="midnightblue" d="M595.79,-182.6C642.04,-172.59 712.2,-157.2 773,-143 777.76,-141.89 782.72,-140.71 787.67,-139.51"/>
<polygon fill="midnightblue" stroke="midnightblue" points="788.82,-142.83 797.71,-137.07 787.17,-136.03 788.82,-142.83"/>
</g>
<!-- Node18 -->
<g id="node18" class="node">
<title>Node18</title>
<g id="a_node18"><a xlink:href="sentinel-pointer_8h.html" target="_top" xlink:title=" ">
<polygon fill="white" stroke="black" points="611.5,-118 611.5,-137 730.5,-137 730.5,-118 611.5,-118"/>
<text text-anchor="middle" x="671" y="-125" font-family="Helvetica,sans-Serif" font-size="10.00">cppgc/sentinel&#45;pointer.h</text>
</a>
</g>
</g>
<!-- Node3&#45;&gt;Node18 -->
<g id="edge27" class="edge">
<title>Node3&#45;&gt;Node18</title>
<path fill="none" stroke="midnightblue" d="M572.34,-179.4C594.06,-168.19 624.2,-152.64 645.44,-141.69"/>
<polygon fill="midnightblue" stroke="midnightblue" points="647.23,-144.7 654.51,-137.01 644.02,-138.48 647.23,-144.7"/>
</g>
<!-- Node3&#45;&gt;Node19 -->
<g id="edge29" class="edge">
<title>Node3&#45;&gt;Node19</title>
<path fill="none" stroke="midnightblue" d="M494.33,-185.98C412.32,-173.81 251,-149.87 164.7,-137.06"/>
<polygon fill="midnightblue" stroke="midnightblue" points="164.96,-133.56 154.55,-135.56 163.93,-140.49 164.96,-133.56"/>
</g>
<!-- Node5&#45;&gt;Node6 -->
<g id="edge6" class="edge">
<title>Node5&#45;&gt;Node6</title>
<path fill="none" stroke="midnightblue" d="M491.88,-56.44C518.29,-47.36 560.22,-32.94 589.74,-22.78"/>
<polygon fill="midnightblue" stroke="midnightblue" points="590.92,-26.08 599.24,-19.52 588.64,-19.46 590.92,-26.08"/>
</g>
<!-- Node7&#45;&gt;Node2 -->
<g id="edge8" class="edge">
<title>Node7&#45;&gt;Node2</title>
<path fill="none" stroke="midnightblue" d="M480.21,-112.46C460.33,-102.38 432.97,-88.45 409,-76 375.13,-58.41 336.21,-37.77 311.37,-24.55"/>
<polygon fill="midnightblue" stroke="midnightblue" points="312.75,-21.31 302.28,-19.7 309.45,-27.49 312.75,-21.31"/>
</g>
<!-- Node7&#45;&gt;Node4 -->
<g id="edge9" class="edge">
<title>Node7&#45;&gt;Node4</title>
<path fill="none" stroke="midnightblue" d="M537.86,-112.4C558.62,-102.59 586.1,-89.62 606.36,-80.05"/>
<polygon fill="midnightblue" stroke="midnightblue" points="608.12,-83.09 615.67,-75.66 605.13,-76.76 608.12,-83.09"/>
</g>
<!-- Node7&#45;&gt;Node6 -->
<g id="edge10" class="edge">
<title>Node7&#45;&gt;Node6</title>
<path fill="none" stroke="midnightblue" d="M519.03,-112.36C530.77,-97.66 550.21,-74.28 569,-56 580.02,-45.27 593.36,-34.32 604.13,-25.91"/>
<polygon fill="midnightblue" stroke="midnightblue" points="606.34,-28.63 612.13,-19.76 602.07,-23.08 606.34,-28.63"/>
</g>
<!-- Node9 -->
<g id="node9" class="node">
<title>Node9</title>
<g id="a_node9"><a xlink:title=" ">
<polygon fill="white" stroke="#bfbfbf" points="1019,-56.5 1019,-75.5 1065,-75.5 1065,-56.5 1019,-56.5"/>
<text text-anchor="middle" x="1042" y="-63.5" font-family="Helvetica,sans-Serif" font-size="10.00">atomic</text>
</a>
</g>
</g>
<!-- Node8&#45;&gt;Node9 -->
<g id="edge12" class="edge">
<title>Node8&#45;&gt;Node9</title>
<path fill="none" stroke="midnightblue" d="M1021.4,-112.4C1025.12,-104.2 1029.85,-93.78 1033.83,-84.99"/>
<polygon fill="midnightblue" stroke="midnightblue" points="1037.13,-86.21 1038.07,-75.66 1030.75,-83.32 1037.13,-86.21"/>
</g>
<!-- Node10&#45;&gt;Node6 -->
<g id="edge26" class="edge">
<title>Node10&#45;&gt;Node6</title>
<path fill="none" stroke="midnightblue" d="M831.07,-117.67C829,-102.68 822.63,-72.3 804,-56 783.38,-37.96 710.67,-24.02 664.21,-16.7"/>
<polygon fill="midnightblue" stroke="midnightblue" points="664.57,-13.22 654.15,-15.16 663.5,-20.13 664.57,-13.22"/>
</g>
<!-- Node11 -->
<g id="node11" class="node">
<title>Node11</title>
<g id="a_node11"><a xlink:title=" ">
<polygon fill="white" stroke="#bfbfbf" points="974.5,-0.5 974.5,-19.5 1025.5,-19.5 1025.5,-0.5 974.5,-0.5"/>
<text text-anchor="middle" x="1000" y="-7.5" font-family="Helvetica,sans-Serif" font-size="10.00">memory</text>
</a>
</g>
</g>
<!-- Node10&#45;&gt;Node11 -->
<g id="edge14" class="edge">
<title>Node10&#45;&gt;Node11</title>
<path fill="none" stroke="midnightblue" d="M876.61,-119.92C906.82,-113.39 945.85,-100.62 972,-76 985.12,-63.65 992.4,-44.13 996.22,-29.69"/>
<polygon fill="midnightblue" stroke="midnightblue" points="999.65,-30.39 998.51,-19.86 992.83,-28.8 999.65,-30.39"/>
</g>
<!-- Node12 -->
<g id="node12" class="node">
<title>Node12</title>
<g id="a_node12"><a xlink:href="source-location_8h.html" target="_top" xlink:title=" ">
<polygon fill="white" stroke="black" points="675.5,-56.5 675.5,-75.5 794.5,-75.5 794.5,-56.5 675.5,-56.5"/>
<text text-anchor="middle" x="735" y="-63.5" font-family="Helvetica,sans-Serif" font-size="10.00">cppgc/source&#45;location.h</text>
</a>
</g>
</g>
<!-- Node10&#45;&gt;Node12 -->
<g id="edge15" class="edge">
<title>Node10&#45;&gt;Node12</title>
<path fill="none" stroke="midnightblue" d="M818.1,-117.98C802.33,-108.3 776.36,-92.37 757.65,-80.89"/>
<polygon fill="midnightblue" stroke="midnightblue" points="759.23,-77.75 748.87,-75.51 755.57,-83.72 759.23,-77.75"/>
</g>
<!-- Node14 -->
<g id="node14" class="node">
<title>Node14</title>
<g id="a_node14"><a xlink:href="v8-platform_8h.html" target="_top" xlink:title=" ">
<polygon fill="white" stroke="black" points="889.5,-56.5 889.5,-75.5 962.5,-75.5 962.5,-56.5 889.5,-56.5"/>
<text text-anchor="middle" x="926" y="-63.5" font-family="Helvetica,sans-Serif" font-size="10.00">v8&#45;platform.h</text>
</a>
</g>
</g>
<!-- Node10&#45;&gt;Node14 -->
<g id="edge19" class="edge">
<title>Node10&#45;&gt;Node14</title>
<path fill="none" stroke="midnightblue" d="M845.47,-117.98C860.68,-108.34 885.69,-92.52 903.8,-81.05"/>
<polygon fill="midnightblue" stroke="midnightblue" points="905.98,-83.81 912.56,-75.51 902.24,-77.9 905.98,-83.81"/>
</g>
<!-- Node12&#45;&gt;Node2 -->
<g id="edge16" class="edge">
<title>Node12&#45;&gt;Node2</title>
<path fill="none" stroke="midnightblue" d="M675.17,-57.15C672.07,-56.76 669,-56.37 666,-56 538.97,-40.19 387.88,-22.69 320.92,-15"/>
<polygon fill="midnightblue" stroke="midnightblue" points="321.24,-11.51 310.91,-13.85 320.45,-18.46 321.24,-11.51"/>
</g>
<!-- Node12&#45;&gt;Node6 -->
<g id="edge18" class="edge">
<title>Node12&#45;&gt;Node6</title>
<path fill="none" stroke="midnightblue" d="M717.17,-56.32C699.28,-47.62 671.52,-34.12 650.95,-24.11"/>
<polygon fill="midnightblue" stroke="midnightblue" points="652.31,-20.88 641.79,-19.65 649.25,-27.18 652.31,-20.88"/>
</g>
<!-- Node13 -->
<g id="node13" class="node">
<title>Node13</title>
<g id="a_node13"><a xlink:title=" ">
<polygon fill="white" stroke="#bfbfbf" points="714.5,-0.5 714.5,-19.5 755.5,-19.5 755.5,-0.5 714.5,-0.5"/>
<text text-anchor="middle" x="735" y="-7.5" font-family="Helvetica,sans-Serif" font-size="10.00">string</text>
</a>
</g>
</g>
<!-- Node12&#45;&gt;Node13 -->
<g id="edge17" class="edge">
<title>Node12&#45;&gt;Node13</title>
<path fill="none" stroke="midnightblue" d="M735,-56.08C735,-49.01 735,-38.86 735,-29.99"/>
<polygon fill="midnightblue" stroke="midnightblue" points="738.5,-29.75 735,-19.75 731.5,-29.75 738.5,-29.75"/>
</g>
<!-- Node14&#45;&gt;Node6 -->
<g id="edge25" class="edge">
<title>Node14&#45;&gt;Node6</title>
<path fill="none" stroke="midnightblue" d="M889.27,-58.43C832.33,-48.25 723.17,-28.73 664.19,-18.19"/>
<polygon fill="midnightblue" stroke="midnightblue" points="664.59,-14.7 654.13,-16.39 663.36,-21.59 664.59,-14.7"/>
</g>
<!-- Node14&#45;&gt;Node11 -->
<g id="edge23" class="edge">
<title>Node14&#45;&gt;Node11</title>
<path fill="none" stroke="midnightblue" d="M937.89,-56.32C949.15,-48.11 966.29,-35.6 979.71,-25.81"/>
<polygon fill="midnightblue" stroke="midnightblue" points="981.88,-28.56 987.89,-19.83 977.75,-22.9 981.88,-28.56"/>
</g>
<!-- Node14&#45;&gt;Node13 -->
<g id="edge24" class="edge">
<title>Node14&#45;&gt;Node13</title>
<path fill="none" stroke="midnightblue" d="M894.78,-56.46C864.28,-48.08 816.28,-34.78 765.49,-20.1"/>
<polygon fill="midnightblue" stroke="midnightblue" points="766.22,-16.67 755.64,-17.25 764.27,-23.39 766.22,-16.67"/>
</g>
<!-- Node15 -->
<g id="node15" class="node">
<title>Node15</title>
<g id="a_node15"><a xlink:title=" ">
<polygon fill="white" stroke="#bfbfbf" points="773.5,-0.5 773.5,-19.5 824.5,-19.5 824.5,-0.5 773.5,-0.5"/>
<text text-anchor="middle" x="799" y="-7.5" font-family="Helvetica,sans-Serif" font-size="10.00">stddef.h</text>
</a>
</g>
</g>
<!-- Node14&#45;&gt;Node15 -->
<g id="edge20" class="edge">
<title>Node14&#45;&gt;Node15</title>
<path fill="none" stroke="midnightblue" d="M905.88,-56.44C884.98,-47.56 852.07,-33.56 828.28,-23.45"/>
<polygon fill="midnightblue" stroke="midnightblue" points="829.6,-20.21 819.03,-19.52 826.86,-26.65 829.6,-20.21"/>
</g>
<!-- Node16 -->
<g id="node16" class="node">
<title>Node16</title>
<g id="a_node16"><a xlink:title=" ">
<polygon fill="white" stroke="#bfbfbf" points="843,-0.5 843,-19.5 891,-19.5 891,-0.5 843,-0.5"/>
<text text-anchor="middle" x="867" y="-7.5" font-family="Helvetica,sans-Serif" font-size="10.00">stdint.h</text>
</a>
</g>
</g>
<!-- Node14&#45;&gt;Node16 -->
<g id="edge21" class="edge">
<title>Node14&#45;&gt;Node16</title>
<path fill="none" stroke="midnightblue" d="M916.52,-56.32C907.8,-48.34 894.66,-36.31 884.1,-26.65"/>
<polygon fill="midnightblue" stroke="midnightblue" points="886.39,-24 876.65,-19.83 881.67,-29.17 886.39,-24"/>
</g>
<!-- Node17 -->
<g id="node17" class="node">
<title>Node17</title>
<g id="a_node17"><a xlink:title=" ">
<polygon fill="white" stroke="#bfbfbf" points="909.5,-0.5 909.5,-19.5 956.5,-19.5 956.5,-0.5 909.5,-0.5"/>
<text text-anchor="middle" x="933" y="-7.5" font-family="Helvetica,sans-Serif" font-size="10.00">stdlib.h</text>
</a>
</g>
</g>
<!-- Node14&#45;&gt;Node17 -->
<g id="edge22" class="edge">
<title>Node14&#45;&gt;Node17</title>
<path fill="none" stroke="midnightblue" d="M927.16,-56.08C928.08,-48.93 929.42,-38.64 930.58,-29.69"/>
<polygon fill="midnightblue" stroke="midnightblue" points="934.05,-30.12 931.87,-19.75 927.11,-29.22 934.05,-30.12"/>
</g>
<!-- Node18&#45;&gt;Node4 -->
<g id="edge28" class="edge">
<title>Node18&#45;&gt;Node4</title>
<path fill="none" stroke="midnightblue" d="M665.7,-117.98C660.26,-109.23 651.64,-95.37 644.76,-84.31"/>
<polygon fill="midnightblue" stroke="midnightblue" points="647.54,-82.15 639.29,-75.51 641.6,-85.85 647.54,-82.15"/>
</g>
<!-- Node19&#45;&gt;Node6 -->
<g id="edge34" class="edge">
<title>Node19&#45;&gt;Node6</title>
<path fill="none" stroke="midnightblue" d="M142.28,-117.99C198.58,-104.46 312.28,-77.41 409,-56 469.84,-42.53 540.61,-27.92 583.84,-19.12"/>
<polygon fill="midnightblue" stroke="midnightblue" points="584.59,-22.54 593.69,-17.12 583.19,-15.68 584.59,-22.54"/>
</g>
<!-- Node20 -->
<g id="node20" class="node">
<title>Node20</title>
<g id="a_node20"><a xlink:title=" ">
<polygon fill="white" stroke="#bfbfbf" points="0,-0.5 0,-19.5 62,-19.5 62,-0.5 0,-0.5"/>
<text text-anchor="middle" x="31" y="-7.5" font-family="Helvetica,sans-Serif" font-size="10.00">type_traits</text>
</a>
</g>
</g>
<!-- Node19&#45;&gt;Node20 -->
<g id="edge30" class="edge">
<title>Node19&#45;&gt;Node20</title>
<path fill="none" stroke="midnightblue" d="M72.57,-117.97C51.08,-110.67 25.08,-97.77 12,-76 3.05,-61.1 10.78,-41.72 18.9,-28.02"/>
<polygon fill="midnightblue" stroke="midnightblue" points="21.88,-29.85 24.39,-19.56 16.01,-26.04 21.88,-29.85"/>
</g>
<!-- Node21 -->
<g id="node21" class="node">
<title>Node21</title>
<g id="a_node21"><a xlink:href="type-traits_8h.html" target="_top" xlink:title=" ">
<polygon fill="white" stroke="black" points="21,-56.5 21,-75.5 117,-75.5 117,-56.5 21,-56.5"/>
<text text-anchor="middle" x="69" y="-63.5" font-family="Helvetica,sans-Serif" font-size="10.00">cppgc/type&#45;traits.h</text>
</a>
</g>
</g>
<!-- Node19&#45;&gt;Node21 -->
<g id="edge31" class="edge">
<title>Node19&#45;&gt;Node21</title>
<path fill="none" stroke="midnightblue" d="M101.56,-117.98C95.91,-109.14 86.94,-95.09 79.84,-83.98"/>
<polygon fill="midnightblue" stroke="midnightblue" points="82.77,-82.05 74.43,-75.51 76.87,-85.82 82.77,-82.05"/>
</g>
<!-- Node21&#45;&gt;Node2 -->
<g id="edge32" class="edge">
<title>Node21&#45;&gt;Node2</title>
<path fill="none" stroke="midnightblue" d="M103.38,-56.44C143.93,-46.35 210.92,-29.68 251.51,-19.58"/>
<polygon fill="midnightblue" stroke="midnightblue" points="252.37,-22.98 261.23,-17.16 250.68,-16.18 252.37,-22.98"/>
</g>
<!-- Node21&#45;&gt;Node20 -->
<g id="edge33" class="edge">
<title>Node21&#45;&gt;Node20</title>
<path fill="none" stroke="midnightblue" d="M62.73,-56.08C57.36,-48.46 49.48,-37.26 42.92,-27.94"/>
<polygon fill="midnightblue" stroke="midnightblue" points="45.78,-25.91 37.16,-19.75 40.05,-29.94 45.78,-25.91"/>
</g>
<!-- Node22&#45;&gt;Node2 -->
<g id="edge37" class="edge">
<title>Node22&#45;&gt;Node2</title>
<path fill="none" stroke="midnightblue" d="M270.58,-184.71C260.55,-175.5 246.04,-160.03 240,-143 235.39,-130.02 237.08,-125.46 240,-112 246.75,-80.91 263.92,-47.91 275.27,-28.4"/>
<polygon fill="midnightblue" stroke="midnightblue" points="278.32,-30.12 280.45,-19.74 272.31,-26.53 278.32,-30.12"/>
</g>
<!-- Node23 -->
<g id="node23" class="node">
<title>Node23</title>
<g id="a_node23"><a xlink:href="compiler-specific_8h.html" target="_top" xlink:title=" ">
<polygon fill="white" stroke="black" points="249.5,-112.5 249.5,-142.5 366.5,-142.5 366.5,-112.5 249.5,-112.5"/>
<text text-anchor="start" x="257.5" y="-130.5" font-family="Helvetica,sans-Serif" font-size="10.00">cppgc/internal/compiler</text>
<text text-anchor="middle" x="308" y="-119.5" font-family="Helvetica,sans-Serif" font-size="10.00">&#45;specific.h</text>
</a>
</g>
</g>
<!-- Node22&#45;&gt;Node23 -->
<g id="edge38" class="edge">
<title>Node22&#45;&gt;Node23</title>
<path fill="none" stroke="midnightblue" d="M284.64,-184.73C288.11,-176.37 293.5,-163.4 298.23,-152.02"/>
<polygon fill="midnightblue" stroke="midnightblue" points="301.54,-153.17 302.15,-142.59 295.08,-150.48 301.54,-153.17"/>
</g>
</g>
</svg>
