<?xml version="1.0" encoding="UTF-8" standalone="no"?>
<!DOCTYPE svg PUBLIC "-//W3C//DTD SVG 1.1//EN"
 "http://www.w3.org/Graphics/SVG/1.1/DTD/svg11.dtd">
<!-- Generated by graphviz version 8.0.5 (20230430.1635)
 -->
<!-- Title: include/libplatform/libplatform.h Pages: 1 -->
<svg width="808pt" height="326pt"
 viewBox="0.00 0.00 807.75 326.00" xmlns="http://www.w3.org/2000/svg" xmlns:xlink="http://www.w3.org/1999/xlink">
<g id="graph0" class="graph" transform="scale(1 1) rotate(0) translate(4 322)">
<title>include/libplatform/libplatform.h</title>
<!-- Node1 -->
<g id="node1" class="node">
<title>Node1</title>
<g id="a_node1"><a xlink:title=" ">
<polygon fill="#999999" stroke="#666666" points="301.38,-318 206.62,-318 206.62,-287.5 301.38,-287.5 301.38,-318"/>
<text text-anchor="start" x="214.62" y="-304.5" font-family="Helvetica,sans-Serif" font-size="10.00">include/libplatform</text>
<text text-anchor="middle" x="254" y="-293.25" font-family="Helvetica,sans-Serif" font-size="10.00">/libplatform.h</text>
</a>
</g>
</g>
<!-- Node2 -->
<g id="node2" class="node">
<title>Node2</title>
<g id="a_node2"><a xlink:title=" ">
<polygon fill="#e0e0e0" stroke="#999999" points="210.25,-19.25 159.75,-19.25 159.75,0 210.25,0 210.25,-19.25"/>
<text text-anchor="middle" x="185" y="-5.75" font-family="Helvetica,sans-Serif" font-size="10.00">memory</text>
</a>
</g>
</g>
<!-- Node1&#45;&gt;Node2 -->
<g id="edge1" class="edge">
<title>Node1&#45;&gt;Node2</title>
<path fill="none" stroke="#63b8ff" d="M206.22,-300.04C132.65,-294.57 0,-272.19 0,-182 0,-182 0,-182 0,-119.12 0,-50.99 94.52,-24.83 148.44,-15.44"/>
<polygon fill="#63b8ff" stroke="#63b8ff" points="148.97,-18.74 158.28,-13.68 147.85,-11.83 148.97,-18.74"/>
</g>
<!-- Node3 -->
<g id="node3" class="node">
<title>Node3</title>
<g id="a_node3"><a xlink:href="libplatform-export_8h.html" target="_top" xlink:title=" ">
<polygon fill="white" stroke="#666666" points="137.5,-196.25 28.5,-196.25 28.5,-165.75 137.5,-165.75 137.5,-196.25"/>
<text text-anchor="start" x="36.5" y="-182.75" font-family="Helvetica,sans-Serif" font-size="10.00">libplatform/libplatform</text>
<text text-anchor="middle" x="83" y="-171.5" font-family="Helvetica,sans-Serif" font-size="10.00">&#45;export.h</text>
</a>
</g>
</g>
<!-- Node1&#45;&gt;Node3 -->
<g id="edge2" class="edge">
<title>Node1&#45;&gt;Node3</title>
<path fill="none" stroke="#63b8ff" d="M233.03,-287.07C202.82,-265.91 146.92,-226.76 112.54,-202.69"/>
<polygon fill="#63b8ff" stroke="#63b8ff" points="115.07,-199.49 104.87,-196.62 111.06,-205.22 115.07,-199.49"/>
</g>
<!-- Node4 -->
<g id="node4" class="node">
<title>Node4</title>
<g id="a_node4"><a xlink:href="v8-tracing_8h.html" target="_top" xlink:title=" ">
<polygon fill="white" stroke="#666666" points="311.12,-251.5 196.88,-251.5 196.88,-232.25 311.12,-232.25 311.12,-251.5"/>
<text text-anchor="middle" x="254" y="-238" font-family="Helvetica,sans-Serif" font-size="10.00">libplatform/v8&#45;tracing.h</text>
</a>
</g>
</g>
<!-- Node1&#45;&gt;Node4 -->
<g id="edge3" class="edge">
<title>Node1&#45;&gt;Node4</title>
<path fill="none" stroke="#63b8ff" d="M254,-287.2C254,-279.87 254,-270.87 254,-262.91"/>
<polygon fill="#63b8ff" stroke="#63b8ff" points="257.5,-262.95 254,-252.95 250.5,-262.95 257.5,-262.95"/>
</g>
<!-- Node8 -->
<g id="node8" class="node">
<title>Node8</title>
<g id="a_node8"><a xlink:href="v8-platform_8h.html" target="_top" xlink:title=" ">
<polygon fill="white" stroke="#666666" points="486.12,-190.62 413.88,-190.62 413.88,-171.38 486.12,-171.38 486.12,-190.62"/>
<text text-anchor="middle" x="450" y="-177.12" font-family="Helvetica,sans-Serif" font-size="10.00">v8&#45;platform.h</text>
</a>
</g>
</g>
<!-- Node1&#45;&gt;Node8 -->
<g id="edge25" class="edge">
<title>Node1&#45;&gt;Node8</title>
<path fill="none" stroke="#63b8ff" d="M278.03,-287.07C315.76,-264.02 388.43,-219.61 426.08,-196.61"/>
<polygon fill="#63b8ff" stroke="#63b8ff" points="427.58,-199.19 434.29,-190.99 423.93,-193.22 427.58,-199.19"/>
</g>
<!-- Node19 -->
<g id="node19" class="node">
<title>Node19</title>
<g id="a_node19"><a xlink:href="v8config_8h.html" target="_top" xlink:title=" ">
<polygon fill="white" stroke="#666666" points="799.75,-74.5 740.25,-74.5 740.25,-55.25 799.75,-55.25 799.75,-74.5"/>
<text text-anchor="middle" x="770" y="-61" font-family="Helvetica,sans-Serif" font-size="10.00">v8config.h</text>
</a>
</g>
</g>
<!-- Node1&#45;&gt;Node19 -->
<g id="edge26" class="edge">
<title>Node1&#45;&gt;Node19</title>
<path fill="none" stroke="#63b8ff" d="M301.52,-296.68C395.63,-284.33 607.88,-244.78 738,-129.75 751.49,-117.82 759.97,-98.88 764.79,-84.71"/>
<polygon fill="#63b8ff" stroke="#63b8ff" points="768.3,-86.19 767.89,-75.6 761.61,-84.14 768.3,-86.19"/>
</g>
<!-- Node4&#45;&gt;Node2 -->
<g id="edge5" class="edge">
<title>Node4&#45;&gt;Node2</title>
<path fill="none" stroke="#63b8ff" d="M228.84,-231.89C213.17,-224.82 194.27,-213.29 185,-196.25 155.52,-142.08 170.12,-65.17 179.36,-29.79"/>
<polygon fill="#63b8ff" stroke="#63b8ff" points="182.92,-31.05 182.22,-20.47 176.18,-29.18 182.92,-31.05"/>
</g>
<!-- Node4&#45;&gt;Node3 -->
<g id="edge8" class="edge">
<title>Node4&#45;&gt;Node3</title>
<path fill="none" stroke="#63b8ff" d="M227.66,-231.8C203.25,-223.4 166.22,-210.65 135.74,-200.16"/>
<polygon fill="#63b8ff" stroke="#63b8ff" points="137.27,-196.64 126.68,-196.69 135,-203.26 137.27,-196.64"/>
</g>
<!-- Node5 -->
<g id="node5" class="node">
<title>Node5</title>
<g id="a_node5"><a xlink:title=" ">
<polygon fill="#e0e0e0" stroke="#999999" points="239.62,-190.62 194.38,-190.62 194.38,-171.38 239.62,-171.38 239.62,-190.62"/>
<text text-anchor="middle" x="217" y="-177.12" font-family="Helvetica,sans-Serif" font-size="10.00">atomic</text>
</a>
</g>
</g>
<!-- Node4&#45;&gt;Node5 -->
<g id="edge4" class="edge">
<title>Node4&#45;&gt;Node5</title>
<path fill="none" stroke="#63b8ff" d="M248.38,-231.93C243.11,-223.55 235.07,-210.76 228.45,-200.22"/>
<polygon fill="#63b8ff" stroke="#63b8ff" points="230.96,-198.63 222.67,-192.03 225.03,-202.36 230.96,-198.63"/>
</g>
<!-- Node6 -->
<g id="node6" class="node">
<title>Node6</title>
<g id="a_node6"><a xlink:title=" ">
<polygon fill="#e0e0e0" stroke="#999999" points="334.75,-190.62 257.25,-190.62 257.25,-171.38 334.75,-171.38 334.75,-190.62"/>
<text text-anchor="middle" x="296" y="-177.12" font-family="Helvetica,sans-Serif" font-size="10.00">unordered_set</text>
</a>
</g>
</g>
<!-- Node4&#45;&gt;Node6 -->
<g id="edge6" class="edge">
<title>Node4&#45;&gt;Node6</title>
<path fill="none" stroke="#63b8ff" d="M260.38,-231.93C266.42,-223.46 275.67,-210.49 283.23,-199.89"/>
<polygon fill="#63b8ff" stroke="#63b8ff" points="286.6,-202.2 289.56,-192.03 280.9,-198.13 286.6,-202.2"/>
</g>
<!-- Node7 -->
<g id="node7" class="node">
<title>Node7</title>
<g id="a_node7"><a xlink:title=" ">
<polygon fill="#e0e0e0" stroke="#999999" points="395.5,-190.62 352.5,-190.62 352.5,-171.38 395.5,-171.38 395.5,-190.62"/>
<text text-anchor="middle" x="374" y="-177.12" font-family="Helvetica,sans-Serif" font-size="10.00">vector</text>
</a>
</g>
</g>
<!-- Node4&#45;&gt;Node7 -->
<g id="edge7" class="edge">
<title>Node4&#45;&gt;Node7</title>
<path fill="none" stroke="#63b8ff" d="M272.49,-231.8C292.1,-222.18 323.32,-206.87 345.96,-195.76"/>
<polygon fill="#63b8ff" stroke="#63b8ff" points="347.25,-198.53 354.69,-190.98 344.17,-192.25 347.25,-198.53"/>
</g>
<!-- Node4&#45;&gt;Node8 -->
<g id="edge9" class="edge">
<title>Node4&#45;&gt;Node8</title>
<path fill="none" stroke="#63b8ff" d="M284.77,-231.83C315.11,-222.89 362.79,-208.76 404,-196.25 406.12,-195.6 408.3,-194.94 410.5,-194.27"/>
<polygon fill="#63b8ff" stroke="#63b8ff" points="411.28,-197.38 419.81,-191.1 409.23,-190.69 411.28,-197.38"/>
</g>
<!-- Node8&#45;&gt;Node2 -->
<g id="edge14" class="edge">
<title>Node8&#45;&gt;Node2</title>
<path fill="none" stroke="#63b8ff" d="M422.4,-170.94C416.37,-169.1 410,-167.27 404,-165.75 324.5,-145.59 284.16,-184.4 223,-129.75 194.36,-104.16 187.16,-57.05 185.44,-30.39"/>
<polygon fill="#63b8ff" stroke="#63b8ff" points="188.91,-30.56 184.98,-20.72 181.91,-30.86 188.91,-30.56"/>
</g>
<!-- Node9 -->
<g id="node9" class="node">
<title>Node9</title>
<g id="a_node9"><a xlink:title=" ">
<polygon fill="#e0e0e0" stroke="#999999" points="277.62,-129.75 232.38,-129.75 232.38,-110.5 277.62,-110.5 277.62,-129.75"/>
<text text-anchor="middle" x="255" y="-116.25" font-family="Helvetica,sans-Serif" font-size="10.00">math.h</text>
</a>
</g>
</g>
<!-- Node8&#45;&gt;Node9 -->
<g id="edge10" class="edge">
<title>Node8&#45;&gt;Node9</title>
<path fill="none" stroke="#63b8ff" d="M420.81,-170.91C415.23,-169.19 409.44,-167.41 404,-165.75 364.31,-153.66 318.6,-140.01 288.38,-131.03"/>
<polygon fill="#63b8ff" stroke="#63b8ff" points="289.58,-127.43 278.99,-127.94 287.58,-134.14 289.58,-127.43"/>
</g>
<!-- Node10 -->
<g id="node10" class="node">
<title>Node10</title>
<g id="a_node10"><a xlink:title=" ">
<polygon fill="#e0e0e0" stroke="#999999" points="346.25,-129.75 295.75,-129.75 295.75,-110.5 346.25,-110.5 346.25,-129.75"/>
<text text-anchor="middle" x="321" y="-116.25" font-family="Helvetica,sans-Serif" font-size="10.00">stddef.h</text>
</a>
</g>
</g>
<!-- Node8&#45;&gt;Node10 -->
<g id="edge11" class="edge">
<title>Node8&#45;&gt;Node10</title>
<path fill="none" stroke="#63b8ff" d="M430.13,-170.93C408.85,-161.22 374.88,-145.71 350.49,-134.58"/>
<polygon fill="#63b8ff" stroke="#63b8ff" points="352.23,-131.08 341.68,-130.11 349.33,-137.44 352.23,-131.08"/>
</g>
<!-- Node11 -->
<g id="node11" class="node">
<title>Node11</title>
<g id="a_node11"><a xlink:title=" ">
<polygon fill="#e0e0e0" stroke="#999999" points="411.75,-129.75 364.25,-129.75 364.25,-110.5 411.75,-110.5 411.75,-129.75"/>
<text text-anchor="middle" x="388" y="-116.25" font-family="Helvetica,sans-Serif" font-size="10.00">stdint.h</text>
</a>
</g>
</g>
<!-- Node8&#45;&gt;Node11 -->
<g id="edge12" class="edge">
<title>Node8&#45;&gt;Node11</title>
<path fill="none" stroke="#63b8ff" d="M440.58,-171.06C431.21,-162.15 416.6,-148.28 405.16,-137.42"/>
<polygon fill="#63b8ff" stroke="#63b8ff" points="408.17,-135.5 398.51,-131.15 403.35,-140.58 408.17,-135.5"/>
</g>
<!-- Node12 -->
<g id="node12" class="node">
<title>Node12</title>
<g id="a_node12"><a xlink:title=" ">
<polygon fill="#e0e0e0" stroke="#999999" points="476.38,-129.75 429.62,-129.75 429.62,-110.5 476.38,-110.5 476.38,-129.75"/>
<text text-anchor="middle" x="453" y="-116.25" font-family="Helvetica,sans-Serif" font-size="10.00">stdlib.h</text>
</a>
</g>
</g>
<!-- Node8&#45;&gt;Node12 -->
<g id="edge13" class="edge">
<title>Node8&#45;&gt;Node12</title>
<path fill="none" stroke="#63b8ff" d="M450.46,-171.06C450.86,-163.1 451.47,-151.19 451.99,-140.99"/>
<polygon fill="#63b8ff" stroke="#63b8ff" points="455.53,-141.32 452.54,-131.15 448.54,-140.96 455.53,-141.32"/>
</g>
<!-- Node13 -->
<g id="node13" class="node">
<title>Node13</title>
<g id="a_node13"><a xlink:title=" ">
<polygon fill="#e0e0e0" stroke="#999999" points="543.88,-129.75 494.12,-129.75 494.12,-110.5 543.88,-110.5 543.88,-129.75"/>
<text text-anchor="middle" x="519" y="-116.25" font-family="Helvetica,sans-Serif" font-size="10.00">optional</text>
</a>
</g>
</g>
<!-- Node8&#45;&gt;Node13 -->
<g id="edge15" class="edge">
<title>Node8&#45;&gt;Node13</title>
<path fill="none" stroke="#63b8ff" d="M460.48,-171.06C471.02,-162.07 487.49,-148.01 500.28,-137.1"/>
<polygon fill="#63b8ff" stroke="#63b8ff" points="502.09,-139.3 507.42,-130.15 497.54,-133.98 502.09,-139.3"/>
</g>
<!-- Node14 -->
<g id="node14" class="node">
<title>Node14</title>
<g id="a_node14"><a xlink:title=" ">
<polygon fill="#e0e0e0" stroke="#999999" points="485,-74.5 445,-74.5 445,-55.25 485,-55.25 485,-74.5"/>
<text text-anchor="middle" x="465" y="-61" font-family="Helvetica,sans-Serif" font-size="10.00">string</text>
</a>
</g>
</g>
<!-- Node8&#45;&gt;Node14 -->
<g id="edge16" class="edge">
<title>Node8&#45;&gt;Node14</title>
<path fill="none" stroke="#63b8ff" d="M486.46,-172.58C509.87,-165.73 538.5,-152.95 553,-129.75 557.53,-122.49 557.48,-117.79 553,-110.5 546.35,-99.68 517.88,-86.42 495.1,-77.18"/>
<polygon fill="#63b8ff" stroke="#63b8ff" points="496.71,-73.66 486.13,-73.24 494.14,-80.17 496.71,-73.66"/>
</g>
<!-- Node15 -->
<g id="node15" class="node">
<title>Node15</title>
<g id="a_node15"><a xlink:href="v8-source-location_8h.html" target="_top" xlink:title=" ">
<polygon fill="white" stroke="#666666" points="703.5,-129.75 600.5,-129.75 600.5,-110.5 703.5,-110.5 703.5,-129.75"/>
<text text-anchor="middle" x="652" y="-116.25" font-family="Helvetica,sans-Serif" font-size="10.00">v8&#45;source&#45;location.h</text>
</a>
</g>
</g>
<!-- Node8&#45;&gt;Node15 -->
<g id="edge17" class="edge">
<title>Node8&#45;&gt;Node15</title>
<path fill="none" stroke="#63b8ff" d="M481.12,-170.93C515.82,-160.82 572.1,-144.41 610.52,-133.22"/>
<polygon fill="#63b8ff" stroke="#63b8ff" points="611.22,-136.36 619.84,-130.21 609.26,-129.64 611.22,-136.36"/>
</g>
<!-- Node8&#45;&gt;Node19 -->
<g id="edge24" class="edge">
<title>Node8&#45;&gt;Node19</title>
<path fill="none" stroke="#63b8ff" d="M486.53,-180.25C539.75,-179.08 640.2,-171 713,-129.75 732.33,-118.8 748.52,-98.85 758.65,-84.15"/>
<polygon fill="#63b8ff" stroke="#63b8ff" points="762.1,-86.27 764.66,-75.99 756.25,-82.44 762.1,-86.27"/>
</g>
<!-- Node15&#45;&gt;Node14 -->
<g id="edge21" class="edge">
<title>Node15&#45;&gt;Node14</title>
<path fill="none" stroke="#63b8ff" d="M619.28,-110.03C589.43,-101.69 543.82,-88.88 495.6,-74.94"/>
<polygon fill="#63b8ff" stroke="#63b8ff" points="496.85,-71.36 486.27,-71.94 494.9,-78.09 496.85,-71.36"/>
</g>
<!-- Node16 -->
<g id="node16" class="node">
<title>Node16</title>
<g id="a_node16"><a xlink:title=" ">
<polygon fill="#e0e0e0" stroke="#999999" points="551.12,-74.5 502.88,-74.5 502.88,-55.25 551.12,-55.25 551.12,-74.5"/>
<text text-anchor="middle" x="527" y="-61" font-family="Helvetica,sans-Serif" font-size="10.00">cstddef</text>
</a>
</g>
</g>
<!-- Node15&#45;&gt;Node16 -->
<g id="edge18" class="edge">
<title>Node15&#45;&gt;Node16</title>
<path fill="none" stroke="#63b8ff" d="M630.8,-110.09C610.86,-101.6 580.79,-88.79 558.13,-79.14"/>
<polygon fill="#63b8ff" stroke="#63b8ff" points="559.88,-75.65 549.31,-74.95 557.14,-82.09 559.88,-75.65"/>
</g>
<!-- Node17 -->
<g id="node17" class="node">
<title>Node17</title>
<g id="a_node17"><a xlink:title=" ">
<polygon fill="#e0e0e0" stroke="#999999" points="653.12,-74.5 568.88,-74.5 568.88,-55.25 653.12,-55.25 653.12,-74.5"/>
<text text-anchor="middle" x="611" y="-61" font-family="Helvetica,sans-Serif" font-size="10.00">source_location</text>
</a>
</g>
</g>
<!-- Node15&#45;&gt;Node17 -->
<g id="edge19" class="edge">
<title>Node15&#45;&gt;Node17</title>
<path fill="none" stroke="#63b8ff" d="M645.23,-110.33C639.63,-103.05 631.49,-92.48 624.55,-83.48"/>
<polygon fill="#63b8ff" stroke="#63b8ff" points="626.79,-81.65 617.92,-75.86 621.24,-85.92 626.79,-81.65"/>
</g>
<!-- Node18 -->
<g id="node18" class="node">
<title>Node18</title>
<g id="a_node18"><a xlink:title=" ">
<polygon fill="#e0e0e0" stroke="#999999" points="722.62,-74.5 671.38,-74.5 671.38,-55.25 722.62,-55.25 722.62,-74.5"/>
<text text-anchor="middle" x="697" y="-61" font-family="Helvetica,sans-Serif" font-size="10.00">sstream</text>
</a>
</g>
</g>
<!-- Node15&#45;&gt;Node18 -->
<g id="edge20" class="edge">
<title>Node15&#45;&gt;Node18</title>
<path fill="none" stroke="#63b8ff" d="M659.43,-110.33C665.65,-102.98 674.7,-92.26 682.37,-83.19"/>
<polygon fill="#63b8ff" stroke="#63b8ff" points="685.63,-85.76 689.41,-75.86 680.28,-81.24 685.63,-85.76"/>
</g>
<!-- Node15&#45;&gt;Node19 -->
<g id="edge22" class="edge">
<title>Node15&#45;&gt;Node19</title>
<path fill="none" stroke="#63b8ff" d="M672.02,-110.09C690.66,-101.68 718.72,-89.02 740.03,-79.4"/>
<polygon fill="#63b8ff" stroke="#63b8ff" points="741.21,-82.26 748.88,-74.95 738.33,-75.88 741.21,-82.26"/>
</g>
<!-- Node19&#45;&gt;Node2 -->
<g id="edge23" class="edge">
<title>Node19&#45;&gt;Node2</title>
<path fill="none" stroke="#63b8ff" d="M739.79,-56.61C737.16,-56.1 734.54,-55.64 732,-55.25 540.95,-25.93 309.21,-15.05 221.23,-11.8"/>
<polygon fill="#63b8ff" stroke="#63b8ff" points="221.62,-8.28 211.5,-11.42 221.37,-15.28 221.62,-8.28"/>
</g>
</g>
</svg>
