<?xml version="1.0" encoding="UTF-8" standalone="no"?>
<!DOCTYPE svg PUBLIC "-//W3C//DTD SVG 1.1//EN"
 "http://www.w3.org/Graphics/SVG/1.1/DTD/svg11.dtd">
<!-- Generated by graphviz version 8.0.5 (20230430.1635)
 -->
<!-- Title: include/cppgc/internal/member&#45;storage.h Pages: 1 -->
<svg width="863pt" height="459pt"
 viewBox="0.00 0.00 863.25 459.00" xmlns="http://www.w3.org/2000/svg" xmlns:xlink="http://www.w3.org/1999/xlink">
<g id="graph0" class="graph" transform="scale(1 1) rotate(0) translate(4 455)">
<title>include/cppgc/internal/member&#45;storage.h</title>
<!-- Node1 -->
<g id="node1" class="node">
<title>Node1</title>
<g id="a_node1"><a xlink:title=" ">
<polygon fill="#999999" stroke="#666666" points="437.88,-451 327.38,-451 327.38,-420.5 437.88,-420.5 437.88,-451"/>
<text text-anchor="start" x="335.38" y="-437.5" font-family="Helvetica,sans-Serif" font-size="10.00">include/cppgc/internal</text>
<text text-anchor="middle" x="382.62" y="-426.25" font-family="Helvetica,sans-Serif" font-size="10.00">/member&#45;storage.h</text>
</a>
</g>
</g>
<!-- Node2 -->
<g id="node2" class="node">
<title>Node2</title>
<g id="a_node2"><a xlink:title=" ">
<polygon fill="#e0e0e0" stroke="#999999" points="45.25,-378.88 0,-378.88 0,-359.62 45.25,-359.62 45.25,-378.88"/>
<text text-anchor="middle" x="22.62" y="-365.38" font-family="Helvetica,sans-Serif" font-size="10.00">atomic</text>
</a>
</g>
</g>
<!-- Node1&#45;&gt;Node2 -->
<g id="edge1" class="edge">
<title>Node1&#45;&gt;Node2</title>
<path fill="none" stroke="#63b8ff" d="M327.02,-429.74C262.06,-423.05 151.74,-409.1 59.62,-384.5 57.84,-384.02 56.03,-383.49 54.2,-382.92"/>
<polygon fill="#63b8ff" stroke="#63b8ff" points="55.48,-379.31 44.89,-379.33 53.18,-385.92 55.48,-379.31"/>
</g>
<!-- Node3 -->
<g id="node3" class="node">
<title>Node3</title>
<g id="a_node3"><a xlink:title=" ">
<polygon fill="#e0e0e0" stroke="#999999" points="220.75,-74.5 172.5,-74.5 172.5,-55.25 220.75,-55.25 220.75,-74.5"/>
<text text-anchor="middle" x="196.62" y="-61" font-family="Helvetica,sans-Serif" font-size="10.00">cstddef</text>
</a>
</g>
</g>
<!-- Node1&#45;&gt;Node3 -->
<g id="edge2" class="edge">
<title>Node1&#45;&gt;Node3</title>
<path fill="none" stroke="#63b8ff" d="M327.03,-435.07C238.06,-432.33 73.62,-412.56 73.62,-303.75 73.62,-303.75 73.62,-303.75 73.62,-174.38 73.62,-126.87 125.85,-95.21 162.24,-78.91"/>
<polygon fill="#63b8ff" stroke="#63b8ff" points="163.21,-81.87 171.03,-74.72 160.46,-75.44 163.21,-81.87"/>
</g>
<!-- Node4 -->
<g id="node4" class="node">
<title>Node4</title>
<g id="a_node4"><a xlink:title=" ">
<polygon fill="#e0e0e0" stroke="#999999" points="794.12,-378.88 733.12,-378.88 733.12,-359.62 794.12,-359.62 794.12,-378.88"/>
<text text-anchor="middle" x="763.62" y="-365.38" font-family="Helvetica,sans-Serif" font-size="10.00">type_traits</text>
</a>
</g>
</g>
<!-- Node1&#45;&gt;Node4 -->
<g id="edge3" class="edge">
<title>Node1&#45;&gt;Node4</title>
<path fill="none" stroke="#63b8ff" d="M438.13,-429.17C505.17,-421.81 621.08,-407.09 718.62,-384.5 721.45,-383.85 724.35,-383.1 727.25,-382.3"/>
<polygon fill="#63b8ff" stroke="#63b8ff" points="728.04,-385.43 736.64,-379.25 726.06,-378.71 728.04,-385.43"/>
</g>
<!-- Node5 -->
<g id="node5" class="node">
<title>Node5</title>
<g id="a_node5"><a xlink:href="api-constants_8h.html" target="_top" xlink:title=" ">
<polygon fill="white" stroke="#666666" points="331.88,-251.5 239.38,-251.5 239.38,-221 331.88,-221 331.88,-251.5"/>
<text text-anchor="start" x="247.38" y="-238" font-family="Helvetica,sans-Serif" font-size="10.00">cppgc/internal/api</text>
<text text-anchor="middle" x="285.62" y="-226.75" font-family="Helvetica,sans-Serif" font-size="10.00">&#45;constants.h</text>
</a>
</g>
</g>
<!-- Node1&#45;&gt;Node5 -->
<g id="edge4" class="edge">
<title>Node1&#45;&gt;Node5</title>
<path fill="none" stroke="#63b8ff" d="M389.93,-420.13C397.09,-403.93 406.17,-377.04 400.62,-354 392.85,-321.73 389.11,-311.92 366.62,-287.5 355.51,-275.43 340.86,-265.17 327.08,-257.14"/>
<polygon fill="#63b8ff" stroke="#63b8ff" points="329.17,-253.74 318.73,-251.93 325.77,-259.85 329.17,-253.74"/>
</g>
<!-- Node7 -->
<g id="node7" class="node">
<title>Node7</title>
<g id="a_node7"><a xlink:href="v8config_8h.html" target="_top" xlink:title=" ">
<polygon fill="white" stroke="#666666" points="534.38,-74.5 474.88,-74.5 474.88,-55.25 534.38,-55.25 534.38,-74.5"/>
<text text-anchor="middle" x="504.62" y="-61" font-family="Helvetica,sans-Serif" font-size="10.00">v8config.h</text>
</a>
</g>
</g>
<!-- Node1&#45;&gt;Node7 -->
<g id="edge32" class="edge">
<title>Node1&#45;&gt;Node7</title>
<path fill="none" stroke="#63b8ff" d="M438.35,-424.02C530.51,-404.65 704.62,-360.56 704.62,-303.75 704.62,-303.75 704.62,-303.75 704.62,-235.25 704.62,-203.23 705.43,-190.91 685.62,-165.75 649.59,-119.96 586.45,-92.07 545.09,-77.81"/>
<polygon fill="#63b8ff" stroke="#63b8ff" points="546.41,-74.22 535.82,-74.39 544.2,-80.86 546.41,-74.22"/>
</g>
<!-- Node9 -->
<g id="node9" class="node">
<title>Node9</title>
<g id="a_node9"><a xlink:href="caged-heap_8h.html" target="_top" xlink:title=" ">
<polygon fill="white" stroke="#666666" points="391.62,-384.5 285.62,-384.5 285.62,-354 391.62,-354 391.62,-384.5"/>
<text text-anchor="start" x="293.62" y="-371" font-family="Helvetica,sans-Serif" font-size="10.00">cppgc/internal/caged</text>
<text text-anchor="middle" x="338.62" y="-359.75" font-family="Helvetica,sans-Serif" font-size="10.00">&#45;heap.h</text>
</a>
</g>
</g>
<!-- Node1&#45;&gt;Node9 -->
<g id="edge9" class="edge">
<title>Node1&#45;&gt;Node9</title>
<path fill="none" stroke="#63b8ff" d="M372.64,-420.11C367.35,-412.36 360.73,-402.65 354.73,-393.86"/>
<polygon fill="#63b8ff" stroke="#63b8ff" points="357.1,-392.12 348.57,-385.83 351.31,-396.06 357.1,-392.12"/>
</g>
<!-- Node13 -->
<g id="node13" class="node">
<title>Node13</title>
<g id="a_node13"><a xlink:href="logging_8h.html" target="_top" xlink:title=" ">
<polygon fill="white" stroke="#666666" points="638.62,-245.88 520.62,-245.88 520.62,-226.62 638.62,-226.62 638.62,-245.88"/>
<text text-anchor="middle" x="579.62" y="-232.38" font-family="Helvetica,sans-Serif" font-size="10.00">cppgc/internal/logging.h</text>
</a>
</g>
</g>
<!-- Node1&#45;&gt;Node13 -->
<g id="edge28" class="edge">
<title>Node1&#45;&gt;Node13</title>
<path fill="none" stroke="#63b8ff" d="M420.48,-420.08C461.43,-402.22 525.55,-368.11 560.62,-318 573.25,-299.97 577.57,-274.69 579,-257.24"/>
<polygon fill="#63b8ff" stroke="#63b8ff" points="582.55,-257.54 579.61,-247.37 575.56,-257.16 582.55,-257.54"/>
</g>
<!-- Node19 -->
<g id="node19" class="node">
<title>Node19</title>
<g id="a_node19"><a xlink:href="sentinel-pointer_8h.html" target="_top" xlink:title=" ">
<polygon fill="white" stroke="#666666" points="258,-312.38 139.25,-312.38 139.25,-293.12 258,-293.12 258,-312.38"/>
<text text-anchor="middle" x="198.62" y="-298.88" font-family="Helvetica,sans-Serif" font-size="10.00">cppgc/sentinel&#45;pointer.h</text>
</a>
</g>
</g>
<!-- Node1&#45;&gt;Node19 -->
<g id="edge29" class="edge">
<title>Node1&#45;&gt;Node19</title>
<path fill="none" stroke="#63b8ff" d="M343.25,-420.09C322.44,-411.38 297.06,-399.17 276.62,-384.5 251.01,-366.11 226.61,-338.71 212.13,-321.03"/>
<polygon fill="#63b8ff" stroke="#63b8ff" points="214.49,-319.39 205.51,-313.78 209.03,-323.77 214.49,-319.39"/>
</g>
<!-- Node5&#45;&gt;Node3 -->
<g id="edge5" class="edge">
<title>Node5&#45;&gt;Node3</title>
<path fill="none" stroke="#63b8ff" d="M279.08,-220.73C272.62,-206.58 262.32,-184.5 252.62,-165.75 237.69,-136.86 218.97,-104.11 207.41,-84.23"/>
<polygon fill="#63b8ff" stroke="#63b8ff" points="210,-82.72 201.93,-75.85 203.95,-86.25 210,-82.72"/>
</g>
<!-- Node6 -->
<g id="node6" class="node">
<title>Node6</title>
<g id="a_node6"><a xlink:title=" ">
<polygon fill="#e0e0e0" stroke="#999999" points="243.25,-185 198,-185 198,-165.75 243.25,-165.75 243.25,-185"/>
<text text-anchor="middle" x="220.62" y="-171.5" font-family="Helvetica,sans-Serif" font-size="10.00">cstdint</text>
</a>
</g>
</g>
<!-- Node5&#45;&gt;Node6 -->
<g id="edge6" class="edge">
<title>Node5&#45;&gt;Node6</title>
<path fill="none" stroke="#63b8ff" d="M269.56,-220.7C260.23,-212.25 248.46,-201.58 238.79,-192.83"/>
<polygon fill="#63b8ff" stroke="#63b8ff" points="241.41,-190.57 231.65,-186.45 236.71,-195.76 241.41,-190.57"/>
</g>
<!-- Node5&#45;&gt;Node7 -->
<g id="edge7" class="edge">
<title>Node5&#45;&gt;Node7</title>
<path fill="none" stroke="#63b8ff" d="M291.86,-220.65C303.67,-194.72 331.7,-140.57 371.62,-110.5 398.76,-90.06 435.81,-78.65 463.92,-72.49"/>
<polygon fill="#63b8ff" stroke="#63b8ff" points="464.49,-75.74 473.59,-70.31 463.09,-68.88 464.49,-75.74"/>
</g>
<!-- Node8 -->
<g id="node8" class="node">
<title>Node8</title>
<g id="a_node8"><a xlink:title=" ">
<polygon fill="#e0e0e0" stroke="#999999" points="529.88,-19.25 479.38,-19.25 479.38,0 529.88,0 529.88,-19.25"/>
<text text-anchor="middle" x="504.62" y="-5.75" font-family="Helvetica,sans-Serif" font-size="10.00">memory</text>
</a>
</g>
</g>
<!-- Node7&#45;&gt;Node8 -->
<g id="edge8" class="edge">
<title>Node7&#45;&gt;Node8</title>
<path fill="none" stroke="#63b8ff" d="M504.62,-55.08C504.62,-48.42 504.62,-38.99 504.62,-30.53"/>
<polygon fill="#63b8ff" stroke="#63b8ff" points="508.13,-30.61 504.62,-20.61 501.13,-30.61 508.13,-30.61"/>
</g>
<!-- Node9&#45;&gt;Node3 -->
<g id="edge11" class="edge">
<title>Node9&#45;&gt;Node3</title>
<path fill="none" stroke="#63b8ff" d="M285.17,-361.75C230.94,-354.06 152.04,-339.54 130.62,-318 104.63,-291.85 111.62,-274.12 111.62,-237.25 111.62,-237.25 111.62,-237.25 111.62,-174.38 111.62,-134.1 148.37,-99.88 173.55,-81.16"/>
<polygon fill="#63b8ff" stroke="#63b8ff" points="175.1,-83.64 181.21,-74.99 171.03,-77.94 175.1,-83.64"/>
</g>
<!-- Node9&#45;&gt;Node5 -->
<g id="edge12" class="edge">
<title>Node9&#45;&gt;Node5</title>
<path fill="none" stroke="#63b8ff" d="M326.68,-353.7C319.34,-344.09 310.29,-330.93 304.62,-318 296.86,-300.27 292.01,-278.91 289.16,-262.61"/>
<polygon fill="#63b8ff" stroke="#63b8ff" points="292.46,-262.08 287.42,-252.76 285.54,-263.18 292.46,-262.08"/>
</g>
<!-- Node9&#45;&gt;Node7 -->
<g id="edge27" class="edge">
<title>Node9&#45;&gt;Node7</title>
<path fill="none" stroke="#63b8ff" d="M348.08,-353.83C354.12,-344.05 361.72,-330.66 366.62,-318 379.95,-283.62 385.62,-274.12 385.62,-237.25 385.62,-237.25 385.62,-237.25 385.62,-174.38 385.62,-127.94 435.72,-96.08 470.91,-79.44"/>
<polygon fill="#63b8ff" stroke="#63b8ff" points="472.16,-82.26 479.83,-74.95 469.28,-75.88 472.16,-82.26"/>
</g>
<!-- Node10 -->
<g id="node10" class="node">
<title>Node10</title>
<g id="a_node10"><a xlink:title=" ">
<polygon fill="#e0e0e0" stroke="#999999" points="357.88,-312.38 313.38,-312.38 313.38,-293.12 357.88,-293.12 357.88,-312.38"/>
<text text-anchor="middle" x="335.62" y="-298.88" font-family="Helvetica,sans-Serif" font-size="10.00">climits</text>
</a>
</g>
</g>
<!-- Node9&#45;&gt;Node10 -->
<g id="edge10" class="edge">
<title>Node9&#45;&gt;Node10</title>
<path fill="none" stroke="#63b8ff" d="M337.94,-353.61C337.53,-344.63 336.99,-333.01 336.53,-323.26"/>
<polygon fill="#63b8ff" stroke="#63b8ff" points="340,-323.4 336.04,-313.57 333,-323.72 340,-323.4"/>
</g>
<!-- Node11 -->
<g id="node11" class="node">
<title>Node11</title>
<g id="a_node11"><a xlink:href="base-page-handle_8h.html" target="_top" xlink:title=" ">
<polygon fill="white" stroke="#666666" points="552,-318 451.25,-318 451.25,-287.5 552,-287.5 552,-318"/>
<text text-anchor="start" x="459.25" y="-304.5" font-family="Helvetica,sans-Serif" font-size="10.00">cppgc/internal/base</text>
<text text-anchor="middle" x="501.62" y="-293.25" font-family="Helvetica,sans-Serif" font-size="10.00">&#45;page&#45;handle.h</text>
</a>
</g>
</g>
<!-- Node9&#45;&gt;Node11 -->
<g id="edge13" class="edge">
<title>Node9&#45;&gt;Node11</title>
<path fill="none" stroke="#63b8ff" d="M375.61,-353.61C398.98,-344.37 429.38,-332.34 454.47,-322.41"/>
<polygon fill="#63b8ff" stroke="#63b8ff" points="455.49,-325.37 463.5,-318.44 452.92,-318.86 455.49,-325.37"/>
</g>
<!-- Node11&#45;&gt;Node5 -->
<g id="edge16" class="edge">
<title>Node11&#45;&gt;Node5</title>
<path fill="none" stroke="#63b8ff" d="M452.34,-287.03C419.62,-277.26 376.56,-264.4 342.4,-254.2"/>
<polygon fill="#63b8ff" stroke="#63b8ff" points="343.69,-250.64 333.11,-251.13 341.69,-257.35 343.69,-250.64"/>
</g>
<!-- Node11&#45;&gt;Node7 -->
<g id="edge26" class="edge">
<title>Node11&#45;&gt;Node7</title>
<path fill="none" stroke="#63b8ff" d="M489.84,-287.18C464.77,-254.29 410.94,-172.35 442.62,-110.5 449.31,-97.46 461.77,-87.37 473.77,-80.1"/>
<polygon fill="#63b8ff" stroke="#63b8ff" points="475.14,-82.79 482.19,-74.88 471.74,-76.67 475.14,-82.79"/>
</g>
<!-- Node12 -->
<g id="node12" class="node">
<title>Node12</title>
<g id="a_node12"><a xlink:href="heap-handle_8h.html" target="_top" xlink:title=" ">
<polygon fill="white" stroke="#666666" points="557.25,-129.75 452,-129.75 452,-110.5 557.25,-110.5 557.25,-129.75"/>
<text text-anchor="middle" x="504.62" y="-116.25" font-family="Helvetica,sans-Serif" font-size="10.00">cppgc/heap&#45;handle.h</text>
</a>
</g>
</g>
<!-- Node11&#45;&gt;Node12 -->
<g id="edge14" class="edge">
<title>Node11&#45;&gt;Node12</title>
<path fill="none" stroke="#63b8ff" d="M501.87,-287.27C502.4,-255.08 503.69,-177.53 504.3,-140.91"/>
<polygon fill="#63b8ff" stroke="#63b8ff" points="507.81,-141.24 504.47,-131.18 500.81,-141.12 507.81,-141.24"/>
</g>
<!-- Node11&#45;&gt;Node13 -->
<g id="edge17" class="edge">
<title>Node11&#45;&gt;Node13</title>
<path fill="none" stroke="#63b8ff" d="M519.32,-287.11C531.62,-276.94 548,-263.41 560.58,-253"/>
<polygon fill="#63b8ff" stroke="#63b8ff" points="562.48,-255.14 567.96,-246.07 558.02,-249.75 562.48,-255.14"/>
</g>
<!-- Node12&#45;&gt;Node7 -->
<g id="edge15" class="edge">
<title>Node12&#45;&gt;Node7</title>
<path fill="none" stroke="#63b8ff" d="M504.62,-110.33C504.62,-103.67 504.62,-94.24 504.62,-85.78"/>
<polygon fill="#63b8ff" stroke="#63b8ff" points="508.13,-85.86 504.62,-75.86 501.13,-85.86 508.13,-85.86"/>
</g>
<!-- Node13&#45;&gt;Node7 -->
<g id="edge25" class="edge">
<title>Node13&#45;&gt;Node7</title>
<path fill="none" stroke="#63b8ff" d="M572.23,-226.32C564.85,-216.78 554,-200.87 549.62,-185 542.79,-160.23 561,-154.82 566.62,-129.75 568.5,-121.4 570.53,-118.11 566.62,-110.5 559.94,-97.46 547.48,-87.37 535.48,-80.1"/>
<polygon fill="#63b8ff" stroke="#63b8ff" points="537.51,-76.67 527.06,-74.88 534.11,-82.79 537.51,-76.67"/>
</g>
<!-- Node14 -->
<g id="node14" class="node">
<title>Node14</title>
<g id="a_node14"><a xlink:href="source-location_8h.html" target="_top" xlink:title=" ">
<polygon fill="white" stroke="#666666" points="677,-185 558.25,-185 558.25,-165.75 677,-165.75 677,-185"/>
<text text-anchor="middle" x="617.62" y="-171.5" font-family="Helvetica,sans-Serif" font-size="10.00">cppgc/source&#45;location.h</text>
</a>
</g>
</g>
<!-- Node13&#45;&gt;Node14 -->
<g id="edge18" class="edge">
<title>Node13&#45;&gt;Node14</title>
<path fill="none" stroke="#63b8ff" d="M585.4,-226.31C590.81,-217.92 599.06,-205.13 605.87,-194.59"/>
<polygon fill="#63b8ff" stroke="#63b8ff" points="609.32,-196.7 611.8,-186.4 603.44,-192.9 609.32,-196.7"/>
</g>
<!-- Node15 -->
<g id="node15" class="node">
<title>Node15</title>
<g id="a_node15"><a xlink:href="v8-source-location_8h.html" target="_top" xlink:title=" ">
<polygon fill="white" stroke="#666666" points="795.12,-129.75 692.12,-129.75 692.12,-110.5 795.12,-110.5 795.12,-129.75"/>
<text text-anchor="middle" x="743.62" y="-116.25" font-family="Helvetica,sans-Serif" font-size="10.00">v8&#45;source&#45;location.h</text>
</a>
</g>
</g>
<!-- Node14&#45;&gt;Node15 -->
<g id="edge19" class="edge">
<title>Node14&#45;&gt;Node15</title>
<path fill="none" stroke="#63b8ff" d="M639,-165.34C659.09,-156.85 689.41,-144.04 712.24,-134.39"/>
<polygon fill="#63b8ff" stroke="#63b8ff" points="713.3,-137.32 721.15,-130.2 710.57,-130.87 713.3,-137.32"/>
</g>
<!-- Node15&#45;&gt;Node3 -->
<g id="edge20" class="edge">
<title>Node15&#45;&gt;Node3</title>
<path fill="none" stroke="#63b8ff" d="M691.67,-114.07C581.33,-103.33 326.05,-78.47 232.13,-69.33"/>
<polygon fill="#63b8ff" stroke="#63b8ff" points="232.54,-65.76 222.24,-68.27 231.86,-72.72 232.54,-65.76"/>
</g>
<!-- Node15&#45;&gt;Node7 -->
<g id="edge24" class="edge">
<title>Node15&#45;&gt;Node7</title>
<path fill="none" stroke="#63b8ff" d="M702.81,-110.03C658.81,-100.23 589.19,-84.72 545.26,-74.93"/>
<polygon fill="#63b8ff" stroke="#63b8ff" points="546.2,-71.33 535.67,-72.57 544.67,-78.16 546.2,-71.33"/>
</g>
<!-- Node16 -->
<g id="node16" class="node">
<title>Node16</title>
<g id="a_node16"><a xlink:title=" ">
<polygon fill="#e0e0e0" stroke="#999999" points="785.75,-74.5 701.5,-74.5 701.5,-55.25 785.75,-55.25 785.75,-74.5"/>
<text text-anchor="middle" x="743.62" y="-61" font-family="Helvetica,sans-Serif" font-size="10.00">source_location</text>
</a>
</g>
</g>
<!-- Node15&#45;&gt;Node16 -->
<g id="edge21" class="edge">
<title>Node15&#45;&gt;Node16</title>
<path fill="none" stroke="#63b8ff" d="M743.62,-110.33C743.62,-103.67 743.62,-94.24 743.62,-85.78"/>
<polygon fill="#63b8ff" stroke="#63b8ff" points="747.13,-85.86 743.62,-75.86 740.13,-85.86 747.13,-85.86"/>
</g>
<!-- Node17 -->
<g id="node17" class="node">
<title>Node17</title>
<g id="a_node17"><a xlink:title=" ">
<polygon fill="#e0e0e0" stroke="#999999" points="855.25,-74.5 804,-74.5 804,-55.25 855.25,-55.25 855.25,-74.5"/>
<text text-anchor="middle" x="829.62" y="-61" font-family="Helvetica,sans-Serif" font-size="10.00">sstream</text>
</a>
</g>
</g>
<!-- Node15&#45;&gt;Node17 -->
<g id="edge22" class="edge">
<title>Node15&#45;&gt;Node17</title>
<path fill="none" stroke="#63b8ff" d="M758.21,-110.09C771.19,-102.06 790.4,-90.16 805.64,-80.73"/>
<polygon fill="#63b8ff" stroke="#63b8ff" points="807.31,-83.19 813.96,-74.95 803.62,-77.24 807.31,-83.19"/>
</g>
<!-- Node18 -->
<g id="node18" class="node">
<title>Node18</title>
<g id="a_node18"><a xlink:title=" ">
<polygon fill="#e0e0e0" stroke="#999999" points="683.62,-74.5 643.62,-74.5 643.62,-55.25 683.62,-55.25 683.62,-74.5"/>
<text text-anchor="middle" x="663.62" y="-61" font-family="Helvetica,sans-Serif" font-size="10.00">string</text>
</a>
</g>
</g>
<!-- Node15&#45;&gt;Node18 -->
<g id="edge23" class="edge">
<title>Node15&#45;&gt;Node18</title>
<path fill="none" stroke="#63b8ff" d="M730.05,-110.09C718.1,-102.14 700.45,-90.39 686.35,-81"/>
<polygon fill="#63b8ff" stroke="#63b8ff" points="688.53,-77.58 678.26,-74.95 684.65,-83.41 688.53,-77.58"/>
</g>
<!-- Node19&#45;&gt;Node5 -->
<g id="edge31" class="edge">
<title>Node19&#45;&gt;Node5</title>
<path fill="none" stroke="#63b8ff" d="M210.72,-292.78C222.78,-283.84 241.72,-269.8 257.54,-258.07"/>
<polygon fill="#63b8ff" stroke="#63b8ff" points="259,-260.61 264.94,-251.84 254.83,-254.98 259,-260.61"/>
</g>
<!-- Node19&#45;&gt;Node6 -->
<g id="edge30" class="edge">
<title>Node19&#45;&gt;Node6</title>
<path fill="none" stroke="#63b8ff" d="M200.21,-292.73C203.74,-272.58 212.35,-223.51 217.19,-195.96"/>
<polygon fill="#63b8ff" stroke="#63b8ff" points="220.78,-196.76 219.06,-186.31 213.88,-195.55 220.78,-196.76"/>
</g>
</g>
</svg>
