<?xml version="1.0" encoding="UTF-8" standalone="no"?>
<!DOCTYPE svg PUBLIC "-//W3C//DTD SVG 1.1//EN"
 "http://www.w3.org/Graphics/SVG/1.1/DTD/svg11.dtd">
<!-- Generated by graphviz version 8.0.5 (20230430.1635)
 -->
<!-- Title: include/cppgc/internal/persistent&#45;node.h Pages: 1 -->
<svg width="592pt" height="315pt"
 viewBox="0.00 0.00 592.00 314.75" xmlns="http://www.w3.org/2000/svg" xmlns:xlink="http://www.w3.org/1999/xlink">
<g id="graph0" class="graph" transform="scale(1 1) rotate(0) translate(4 310.75)">
<title>include/cppgc/internal/persistent&#45;node.h</title>
<!-- Node1 -->
<g id="node1" class="node">
<title>Node1</title>
<g id="a_node1"><a xlink:title=" ">
<polygon fill="#999999" stroke="#666666" points="364.75,-306.75 254.25,-306.75 254.25,-276.25 364.75,-276.25 364.75,-306.75"/>
<text text-anchor="start" x="262.25" y="-293.25" font-family="Helvetica,sans-Serif" font-size="10.00">include/cppgc/internal</text>
<text text-anchor="middle" x="309.5" y="-282" font-family="Helvetica,sans-Serif" font-size="10.00">/persistent&#45;node.h</text>
</a>
</g>
</g>
<!-- Node2 -->
<g id="node2" class="node">
<title>Node2</title>
<g id="a_node2"><a xlink:title=" ">
<polygon fill="#e0e0e0" stroke="#999999" points="37,-240.25 0,-240.25 0,-221 37,-221 37,-240.25"/>
<text text-anchor="middle" x="18.5" y="-226.75" font-family="Helvetica,sans-Serif" font-size="10.00">array</text>
</a>
</g>
</g>
<!-- Node1&#45;&gt;Node2 -->
<g id="edge1" class="edge">
<title>Node1&#45;&gt;Node2</title>
<path fill="none" stroke="#63b8ff" d="M253.93,-280.73C201.53,-271.26 120.91,-256.06 51.5,-240.25 50.2,-239.95 48.88,-239.64 47.54,-239.32"/>
<polygon fill="#63b8ff" stroke="#63b8ff" points="48.85,-235.79 38.3,-236.76 47.15,-242.58 48.85,-235.79"/>
</g>
<!-- Node3 -->
<g id="node3" class="node">
<title>Node3</title>
<g id="a_node3"><a xlink:title=" ">
<polygon fill="#e0e0e0" stroke="#999999" points="233.75,-19.25 183.25,-19.25 183.25,0 233.75,0 233.75,-19.25"/>
<text text-anchor="middle" x="208.5" y="-5.75" font-family="Helvetica,sans-Serif" font-size="10.00">memory</text>
</a>
</g>
</g>
<!-- Node1&#45;&gt;Node3 -->
<g id="edge2" class="edge">
<title>Node1&#45;&gt;Node3</title>
<path fill="none" stroke="#63b8ff" d="M253.83,-288.22C181.81,-281.95 65.5,-259.03 65.5,-176.38 65.5,-176.38 65.5,-176.38 65.5,-119.12 65.5,-89.51 64.15,-76.77 84.5,-55.25 107.43,-30.99 144.5,-19.89 172.14,-14.83"/>
<polygon fill="#63b8ff" stroke="#63b8ff" points="172.67,-18.12 181.97,-13.06 171.54,-11.22 172.67,-18.12"/>
</g>
<!-- Node4 -->
<g id="node4" class="node">
<title>Node4</title>
<g id="a_node4"><a xlink:title=" ">
<polygon fill="#e0e0e0" stroke="#999999" points="463,-240.25 420,-240.25 420,-221 463,-221 463,-240.25"/>
<text text-anchor="middle" x="441.5" y="-226.75" font-family="Helvetica,sans-Serif" font-size="10.00">vector</text>
</a>
</g>
</g>
<!-- Node1&#45;&gt;Node4 -->
<g id="edge3" class="edge">
<title>Node1&#45;&gt;Node4</title>
<path fill="none" stroke="#63b8ff" d="M342.47,-275.8C363.63,-266.35 390.91,-254.19 411.47,-245.02"/>
<polygon fill="#63b8ff" stroke="#63b8ff" points="412.55,-247.92 420.26,-240.65 409.7,-241.53 412.55,-247.92"/>
</g>
<!-- Node5 -->
<g id="node5" class="node">
<title>Node5</title>
<g id="a_node5"><a xlink:href="logging_8h.html" target="_top" xlink:title=" ">
<polygon fill="white" stroke="#666666" points="325.5,-240.25 207.5,-240.25 207.5,-221 325.5,-221 325.5,-240.25"/>
<text text-anchor="middle" x="266.5" y="-226.75" font-family="Helvetica,sans-Serif" font-size="10.00">cppgc/internal/logging.h</text>
</a>
</g>
</g>
<!-- Node1&#45;&gt;Node5 -->
<g id="edge4" class="edge">
<title>Node1&#45;&gt;Node5</title>
<path fill="none" stroke="#63b8ff" d="M298.87,-275.95C293.02,-267.93 285.7,-257.92 279.51,-249.44"/>
<polygon fill="#63b8ff" stroke="#63b8ff" points="281.85,-247.71 273.13,-241.7 276.2,-251.84 281.85,-247.71"/>
</g>
<!-- Node12 -->
<g id="node12" class="node">
<title>Node12</title>
<g id="a_node12"><a xlink:href="v8config_8h.html" target="_top" xlink:title=" ">
<polygon fill="white" stroke="#666666" points="382.25,-74.5 322.75,-74.5 322.75,-55.25 382.25,-55.25 382.25,-74.5"/>
<text text-anchor="middle" x="352.5" y="-61" font-family="Helvetica,sans-Serif" font-size="10.00">v8config.h</text>
</a>
</g>
</g>
<!-- Node1&#45;&gt;Node12 -->
<g id="edge21" class="edge">
<title>Node1&#45;&gt;Node12</title>
<path fill="none" stroke="#63b8ff" d="M318.4,-276.12C323.98,-266.36 330.81,-252.98 334.5,-240.25 350.28,-185.82 352.63,-118.31 352.74,-85.55"/>
<polygon fill="#63b8ff" stroke="#63b8ff" points="356.23,-85.78 352.69,-75.8 349.23,-85.81 356.23,-85.78"/>
</g>
<!-- Node13 -->
<g id="node13" class="node">
<title>Node13</title>
<g id="a_node13"><a xlink:href="trace-trait_8h.html" target="_top" xlink:title=" ">
<polygon fill="white" stroke="#666666" points="494.5,-185 400.5,-185 400.5,-165.75 494.5,-165.75 494.5,-185"/>
<text text-anchor="middle" x="447.5" y="-171.5" font-family="Helvetica,sans-Serif" font-size="10.00">cppgc/trace&#45;trait.h</text>
</a>
</g>
</g>
<!-- Node1&#45;&gt;Node13 -->
<g id="edge14" class="edge">
<title>Node1&#45;&gt;Node13</title>
<path fill="none" stroke="#63b8ff" d="M327.26,-275.81C353.29,-254.29 401.61,-214.33 428.39,-192.18"/>
<polygon fill="#63b8ff" stroke="#63b8ff" points="430.1,-194.48 435.58,-185.41 425.64,-189.08 430.1,-194.48"/>
</g>
<!-- Node6 -->
<g id="node6" class="node">
<title>Node6</title>
<g id="a_node6"><a xlink:href="source-location_8h.html" target="_top" xlink:title=" ">
<polygon fill="white" stroke="#666666" points="287.88,-185 169.12,-185 169.12,-165.75 287.88,-165.75 287.88,-185"/>
<text text-anchor="middle" x="228.5" y="-171.5" font-family="Helvetica,sans-Serif" font-size="10.00">cppgc/source&#45;location.h</text>
</a>
</g>
</g>
<!-- Node5&#45;&gt;Node6 -->
<g id="edge5" class="edge">
<title>Node5&#45;&gt;Node6</title>
<path fill="none" stroke="#63b8ff" d="M260.23,-220.83C255.09,-213.63 247.65,-203.21 241.26,-194.26"/>
<polygon fill="#63b8ff" stroke="#63b8ff" points="243.57,-192.47 234.91,-186.36 237.87,-196.53 243.57,-192.47"/>
</g>
<!-- Node5&#45;&gt;Node12 -->
<g id="edge13" class="edge">
<title>Node5&#45;&gt;Node12</title>
<path fill="none" stroke="#63b8ff" d="M273.13,-220.65C279.5,-211.82 289.23,-197.83 296.5,-185 315.96,-150.67 334.64,-108.46 344.74,-84.62"/>
<polygon fill="#63b8ff" stroke="#63b8ff" points="348.23,-86.35 348.87,-75.77 341.78,-83.64 348.23,-86.35"/>
</g>
<!-- Node7 -->
<g id="node7" class="node">
<title>Node7</title>
<g id="a_node7"><a xlink:href="v8-source-location_8h.html" target="_top" xlink:title=" ">
<polygon fill="white" stroke="#666666" points="283,-129.75 180,-129.75 180,-110.5 283,-110.5 283,-129.75"/>
<text text-anchor="middle" x="231.5" y="-116.25" font-family="Helvetica,sans-Serif" font-size="10.00">v8&#45;source&#45;location.h</text>
</a>
</g>
</g>
<!-- Node6&#45;&gt;Node7 -->
<g id="edge6" class="edge">
<title>Node6&#45;&gt;Node7</title>
<path fill="none" stroke="#63b8ff" d="M229,-165.58C229.37,-158.92 229.9,-149.49 230.38,-141.03"/>
<polygon fill="#63b8ff" stroke="#63b8ff" points="233.93,-141.29 230.99,-131.11 226.94,-140.9 233.93,-141.29"/>
</g>
<!-- Node8 -->
<g id="node8" class="node">
<title>Node8</title>
<g id="a_node8"><a xlink:title=" ">
<polygon fill="#e0e0e0" stroke="#999999" points="448.62,-74.5 400.38,-74.5 400.38,-55.25 448.62,-55.25 448.62,-74.5"/>
<text text-anchor="middle" x="424.5" y="-61" font-family="Helvetica,sans-Serif" font-size="10.00">cstddef</text>
</a>
</g>
</g>
<!-- Node7&#45;&gt;Node8 -->
<g id="edge7" class="edge">
<title>Node7&#45;&gt;Node8</title>
<path fill="none" stroke="#63b8ff" d="M264.24,-110.09C299.03,-100.49 353.85,-85.37 389.49,-75.54"/>
<polygon fill="#63b8ff" stroke="#63b8ff" points="390.18,-78.7 398.89,-72.67 388.32,-71.95 390.18,-78.7"/>
</g>
<!-- Node9 -->
<g id="node9" class="node">
<title>Node9</title>
<g id="a_node9"><a xlink:title=" ">
<polygon fill="#e0e0e0" stroke="#999999" points="235.62,-74.5 151.38,-74.5 151.38,-55.25 235.62,-55.25 235.62,-74.5"/>
<text text-anchor="middle" x="193.5" y="-61" font-family="Helvetica,sans-Serif" font-size="10.00">source_location</text>
</a>
</g>
</g>
<!-- Node7&#45;&gt;Node9 -->
<g id="edge8" class="edge">
<title>Node7&#45;&gt;Node9</title>
<path fill="none" stroke="#63b8ff" d="M225.23,-110.33C220.09,-103.13 212.65,-92.71 206.26,-83.76"/>
<polygon fill="#63b8ff" stroke="#63b8ff" points="208.57,-81.97 199.91,-75.86 202.87,-86.03 208.57,-81.97"/>
</g>
<!-- Node10 -->
<g id="node10" class="node">
<title>Node10</title>
<g id="a_node10"><a xlink:title=" ">
<polygon fill="#e0e0e0" stroke="#999999" points="305.12,-74.5 253.88,-74.5 253.88,-55.25 305.12,-55.25 305.12,-74.5"/>
<text text-anchor="middle" x="279.5" y="-61" font-family="Helvetica,sans-Serif" font-size="10.00">sstream</text>
</a>
</g>
</g>
<!-- Node7&#45;&gt;Node10 -->
<g id="edge9" class="edge">
<title>Node7&#45;&gt;Node10</title>
<path fill="none" stroke="#63b8ff" d="M239.43,-110.33C246.13,-102.9 255.92,-92.04 264.14,-82.91"/>
<polygon fill="#63b8ff" stroke="#63b8ff" points="266.31,-85.63 270.4,-75.86 261.11,-80.94 266.31,-85.63"/>
</g>
<!-- Node11 -->
<g id="node11" class="node">
<title>Node11</title>
<g id="a_node11"><a xlink:title=" ">
<polygon fill="#e0e0e0" stroke="#999999" points="133.5,-74.5 93.5,-74.5 93.5,-55.25 133.5,-55.25 133.5,-74.5"/>
<text text-anchor="middle" x="113.5" y="-61" font-family="Helvetica,sans-Serif" font-size="10.00">string</text>
</a>
</g>
</g>
<!-- Node7&#45;&gt;Node11 -->
<g id="edge10" class="edge">
<title>Node7&#45;&gt;Node11</title>
<path fill="none" stroke="#63b8ff" d="M211.48,-110.09C192.84,-101.68 164.78,-89.02 143.47,-79.4"/>
<polygon fill="#63b8ff" stroke="#63b8ff" points="145.17,-75.88 134.62,-74.95 142.29,-82.26 145.17,-75.88"/>
</g>
<!-- Node7&#45;&gt;Node12 -->
<g id="edge11" class="edge">
<title>Node7&#45;&gt;Node12</title>
<path fill="none" stroke="#63b8ff" d="M252.03,-110.09C271.23,-101.64 300.17,-88.9 322.07,-79.27"/>
<polygon fill="#63b8ff" stroke="#63b8ff" points="323.13,-82.18 330.87,-74.95 320.31,-75.78 323.13,-82.18"/>
</g>
<!-- Node12&#45;&gt;Node3 -->
<g id="edge12" class="edge">
<title>Node12&#45;&gt;Node3</title>
<path fill="none" stroke="#63b8ff" d="M328.07,-54.84C304.8,-46.24 269.52,-33.19 243.31,-23.5"/>
<polygon fill="#63b8ff" stroke="#63b8ff" points="244.64,-19.89 234.05,-19.7 242.21,-26.45 244.64,-19.89"/>
</g>
<!-- Node13&#45;&gt;Node12 -->
<g id="edge20" class="edge">
<title>Node13&#45;&gt;Node12</title>
<path fill="none" stroke="#63b8ff" d="M439.73,-165.5C423.93,-147.46 387.85,-106.25 367.39,-82.88"/>
<polygon fill="#63b8ff" stroke="#63b8ff" points="369.6,-81.09 360.38,-75.88 364.34,-85.71 369.6,-81.09"/>
</g>
<!-- Node14 -->
<g id="node14" class="node">
<title>Node14</title>
<g id="a_node14"><a xlink:title=" ">
<polygon fill="#e0e0e0" stroke="#999999" points="584,-74.5 523,-74.5 523,-55.25 584,-55.25 584,-74.5"/>
<text text-anchor="middle" x="553.5" y="-61" font-family="Helvetica,sans-Serif" font-size="10.00">type_traits</text>
</a>
</g>
</g>
<!-- Node13&#45;&gt;Node14 -->
<g id="edge15" class="edge">
<title>Node13&#45;&gt;Node14</title>
<path fill="none" stroke="#63b8ff" d="M476.77,-165.4C495.12,-158.39 517.96,-146.92 532.5,-129.75 543.12,-117.21 548.41,-99.15 551.02,-85.43"/>
<polygon fill="#63b8ff" stroke="#63b8ff" points="554.6,-86.16 552.69,-75.74 547.69,-85.08 554.6,-86.16"/>
</g>
<!-- Node15 -->
<g id="node15" class="node">
<title>Node15</title>
<g id="a_node15"><a xlink:href="type-traits_8h.html" target="_top" xlink:title=" ">
<polygon fill="white" stroke="#666666" points="523.25,-129.75 427.75,-129.75 427.75,-110.5 523.25,-110.5 523.25,-129.75"/>
<text text-anchor="middle" x="475.5" y="-116.25" font-family="Helvetica,sans-Serif" font-size="10.00">cppgc/type&#45;traits.h</text>
</a>
</g>
</g>
<!-- Node13&#45;&gt;Node15 -->
<g id="edge16" class="edge">
<title>Node13&#45;&gt;Node15</title>
<path fill="none" stroke="#63b8ff" d="M452.12,-165.58C455.83,-158.53 461.16,-148.4 465.79,-139.58"/>
<polygon fill="#63b8ff" stroke="#63b8ff" points="469.22,-141.59 470.78,-131.11 463.02,-138.33 469.22,-141.59"/>
</g>
<!-- Node15&#45;&gt;Node8 -->
<g id="edge17" class="edge">
<title>Node15&#45;&gt;Node8</title>
<path fill="none" stroke="#63b8ff" d="M467.08,-110.33C459.89,-102.82 449.34,-91.81 440.55,-82.63"/>
<polygon fill="#63b8ff" stroke="#63b8ff" points="443.55,-80.66 434.1,-75.86 438.49,-85.5 443.55,-80.66"/>
</g>
<!-- Node15&#45;&gt;Node14 -->
<g id="edge18" class="edge">
<title>Node15&#45;&gt;Node14</title>
<path fill="none" stroke="#63b8ff" d="M488.73,-110.09C500.39,-102.14 517.6,-90.39 531.35,-81"/>
<polygon fill="#63b8ff" stroke="#63b8ff" points="532.92,-83.48 539.2,-74.95 528.97,-77.7 532.92,-83.48"/>
</g>
<!-- Node16 -->
<g id="node16" class="node">
<title>Node16</title>
<g id="a_node16"><a xlink:title=" ">
<polygon fill="#e0e0e0" stroke="#999999" points="504.75,-74.5 466.25,-74.5 466.25,-55.25 504.75,-55.25 504.75,-74.5"/>
<text text-anchor="middle" x="485.5" y="-61" font-family="Helvetica,sans-Serif" font-size="10.00">utility</text>
</a>
</g>
</g>
<!-- Node15&#45;&gt;Node16 -->
<g id="edge19" class="edge">
<title>Node15&#45;&gt;Node16</title>
<path fill="none" stroke="#63b8ff" d="M477.15,-110.33C478.42,-103.59 480.21,-94.02 481.82,-85.49"/>
<polygon fill="#63b8ff" stroke="#63b8ff" points="485.41,-86.33 483.81,-75.86 478.53,-85.04 485.41,-86.33"/>
</g>
</g>
</svg>
