<?xml version="1.0" encoding="UTF-8" standalone="no"?>
<!DOCTYPE svg PUBLIC "-//W3C//DTD SVG 1.1//EN"
 "http://www.w3.org/Graphics/SVG/1.1/DTD/svg11.dtd">
<!-- Generated by graphviz version 8.0.5 (20230430.1635)
 -->
<!-- Title: include/cppgc/platform.h Pages: 1 -->
<svg width="600pt" height="248pt"
 viewBox="0.00 0.00 600.00 248.25" xmlns="http://www.w3.org/2000/svg" xmlns:xlink="http://www.w3.org/1999/xlink">
<g id="graph0" class="graph" transform="scale(1 1) rotate(0) translate(4 244.25)">
<title>include/cppgc/platform.h</title>
<!-- Node1 -->
<g id="node1" class="node">
<title>Node1</title>
<g id="a_node1"><a xlink:title=" ">
<polygon fill="#999999" stroke="#666666" points="281.62,-240.25 159.88,-240.25 159.88,-221 281.62,-221 281.62,-240.25"/>
<text text-anchor="middle" x="220.75" y="-226.75" font-family="Helvetica,sans-Serif" font-size="10.00">include/cppgc/platform.h</text>
</a>
</g>
</g>
<!-- Node2 -->
<g id="node2" class="node">
<title>Node2</title>
<g id="a_node2"><a xlink:title=" ">
<polygon fill="#e0e0e0" stroke="#999999" points="592,-19.25 541.5,-19.25 541.5,0 592,0 592,-19.25"/>
<text text-anchor="middle" x="566.75" y="-5.75" font-family="Helvetica,sans-Serif" font-size="10.00">memory</text>
</a>
</g>
</g>
<!-- Node1&#45;&gt;Node2 -->
<g id="edge1" class="edge">
<title>Node1&#45;&gt;Node2</title>
<path fill="none" stroke="#63b8ff" d="M282.07,-225.33C353.32,-217.36 470.79,-194.62 546.75,-129.75 573.53,-106.88 576.49,-90.36 573.75,-55.25 573.1,-46.94 571.79,-37.84 570.47,-30.04"/>
<polygon fill="#63b8ff" stroke="#63b8ff" points="573.78,-29.68 568.55,-20.47 566.89,-30.93 573.78,-29.68"/>
</g>
<!-- Node3 -->
<g id="node3" class="node">
<title>Node3</title>
<g id="a_node3"><a xlink:href="source-location_8h.html" target="_top" xlink:title=" ">
<polygon fill="white" stroke="#666666" points="201.12,-185 82.38,-185 82.38,-165.75 201.12,-165.75 201.12,-185"/>
<text text-anchor="middle" x="141.75" y="-171.5" font-family="Helvetica,sans-Serif" font-size="10.00">cppgc/source&#45;location.h</text>
</a>
</g>
</g>
<!-- Node1&#45;&gt;Node3 -->
<g id="edge2" class="edge">
<title>Node1&#45;&gt;Node3</title>
<path fill="none" stroke="#63b8ff" d="M207.35,-220.59C195.55,-212.64 178.11,-200.89 164.19,-191.5"/>
<polygon fill="#63b8ff" stroke="#63b8ff" points="166.47,-188.14 156.22,-185.45 162.55,-193.94 166.47,-188.14"/>
</g>
<!-- Node9 -->
<g id="node9" class="node">
<title>Node9</title>
<g id="a_node9"><a xlink:href="v8config_8h.html" target="_top" xlink:title=" ">
<polygon fill="white" stroke="#666666" points="59.5,-74.5 0,-74.5 0,-55.25 59.5,-55.25 59.5,-74.5"/>
<text text-anchor="middle" x="29.75" y="-61" font-family="Helvetica,sans-Serif" font-size="10.00">v8config.h</text>
</a>
</g>
</g>
<!-- Node1&#45;&gt;Node9 -->
<g id="edge20" class="edge">
<title>Node1&#45;&gt;Node9</title>
<path fill="none" stroke="#63b8ff" d="M159.65,-221.3C131.29,-215.02 98.46,-204.06 73.75,-185 42.71,-161.06 33.56,-112.93 30.87,-85.74"/>
<polygon fill="#63b8ff" stroke="#63b8ff" points="34.29,-85.59 30.03,-75.89 27.31,-86.13 34.29,-85.59"/>
</g>
<!-- Node10 -->
<g id="node10" class="node">
<title>Node10</title>
<g id="a_node10"><a xlink:href="v8-platform_8h.html" target="_top" xlink:title=" ">
<polygon fill="white" stroke="#666666" points="346.88,-185 274.62,-185 274.62,-165.75 346.88,-165.75 346.88,-185"/>
<text text-anchor="middle" x="310.75" y="-171.5" font-family="Helvetica,sans-Serif" font-size="10.00">v8&#45;platform.h</text>
</a>
</g>
</g>
<!-- Node1&#45;&gt;Node10 -->
<g id="edge10" class="edge">
<title>Node1&#45;&gt;Node10</title>
<path fill="none" stroke="#63b8ff" d="M236.02,-220.59C249.72,-212.48 270.09,-200.43 286.1,-190.96"/>
<polygon fill="#63b8ff" stroke="#63b8ff" points="287.58,-193.56 294.41,-185.45 284.02,-187.53 287.58,-193.56"/>
</g>
<!-- Node4 -->
<g id="node4" class="node">
<title>Node4</title>
<g id="a_node4"><a xlink:href="v8-source-location_8h.html" target="_top" xlink:title=" ">
<polygon fill="white" stroke="#666666" points="171.25,-129.75 68.25,-129.75 68.25,-110.5 171.25,-110.5 171.25,-129.75"/>
<text text-anchor="middle" x="119.75" y="-116.25" font-family="Helvetica,sans-Serif" font-size="10.00">v8&#45;source&#45;location.h</text>
</a>
</g>
</g>
<!-- Node3&#45;&gt;Node4 -->
<g id="edge3" class="edge">
<title>Node3&#45;&gt;Node4</title>
<path fill="none" stroke="#63b8ff" d="M138.12,-165.58C135.27,-158.69 131.2,-148.84 127.61,-140.16"/>
<polygon fill="#63b8ff" stroke="#63b8ff" points="130.52,-139.02 123.46,-131.11 124.05,-141.69 130.52,-139.02"/>
</g>
<!-- Node5 -->
<g id="node5" class="node">
<title>Node5</title>
<g id="a_node5"><a xlink:title=" ">
<polygon fill="#e0e0e0" stroke="#999999" points="297.88,-74.5 249.62,-74.5 249.62,-55.25 297.88,-55.25 297.88,-74.5"/>
<text text-anchor="middle" x="273.75" y="-61" font-family="Helvetica,sans-Serif" font-size="10.00">cstddef</text>
</a>
</g>
</g>
<!-- Node4&#45;&gt;Node5 -->
<g id="edge4" class="edge">
<title>Node4&#45;&gt;Node5</title>
<path fill="none" stroke="#63b8ff" d="M145.87,-110.09C171.59,-101.2 211.02,-87.57 239.29,-77.79"/>
<polygon fill="#63b8ff" stroke="#63b8ff" points="240.22,-80.83 248.53,-74.25 237.94,-74.21 240.22,-80.83"/>
</g>
<!-- Node6 -->
<g id="node6" class="node">
<title>Node6</title>
<g id="a_node6"><a xlink:title=" ">
<polygon fill="#e0e0e0" stroke="#999999" points="161.88,-74.5 77.62,-74.5 77.62,-55.25 161.88,-55.25 161.88,-74.5"/>
<text text-anchor="middle" x="119.75" y="-61" font-family="Helvetica,sans-Serif" font-size="10.00">source_location</text>
</a>
</g>
</g>
<!-- Node4&#45;&gt;Node6 -->
<g id="edge5" class="edge">
<title>Node4&#45;&gt;Node6</title>
<path fill="none" stroke="#63b8ff" d="M119.75,-110.33C119.75,-103.67 119.75,-94.24 119.75,-85.78"/>
<polygon fill="#63b8ff" stroke="#63b8ff" points="123.25,-85.86 119.75,-75.86 116.25,-85.86 123.25,-85.86"/>
</g>
<!-- Node7 -->
<g id="node7" class="node">
<title>Node7</title>
<g id="a_node7"><a xlink:title=" ">
<polygon fill="#e0e0e0" stroke="#999999" points="231.38,-74.5 180.12,-74.5 180.12,-55.25 231.38,-55.25 231.38,-74.5"/>
<text text-anchor="middle" x="205.75" y="-61" font-family="Helvetica,sans-Serif" font-size="10.00">sstream</text>
</a>
</g>
</g>
<!-- Node4&#45;&gt;Node7 -->
<g id="edge6" class="edge">
<title>Node4&#45;&gt;Node7</title>
<path fill="none" stroke="#63b8ff" d="M134.34,-110.09C147.31,-102.06 166.53,-90.16 181.76,-80.73"/>
<polygon fill="#63b8ff" stroke="#63b8ff" points="183.43,-83.19 190.09,-74.95 179.75,-77.24 183.43,-83.19"/>
</g>
<!-- Node8 -->
<g id="node8" class="node">
<title>Node8</title>
<g id="a_node8"><a xlink:title=" ">
<polygon fill="#e0e0e0" stroke="#999999" points="447.75,-74.5 407.75,-74.5 407.75,-55.25 447.75,-55.25 447.75,-74.5"/>
<text text-anchor="middle" x="427.75" y="-61" font-family="Helvetica,sans-Serif" font-size="10.00">string</text>
</a>
</g>
</g>
<!-- Node4&#45;&gt;Node8 -->
<g id="edge7" class="edge">
<title>Node4&#45;&gt;Node8</title>
<path fill="none" stroke="#63b8ff" d="M171.65,-110.15C236.02,-99.02 343.7,-80.41 396.55,-71.27"/>
<polygon fill="#63b8ff" stroke="#63b8ff" points="397.01,-74.57 406.26,-69.42 395.81,-67.67 397.01,-74.57"/>
</g>
<!-- Node4&#45;&gt;Node9 -->
<g id="edge8" class="edge">
<title>Node4&#45;&gt;Node9</title>
<path fill="none" stroke="#63b8ff" d="M104.48,-110.09C90.78,-101.98 70.41,-89.93 54.4,-80.46"/>
<polygon fill="#63b8ff" stroke="#63b8ff" points="56.48,-77.03 46.09,-74.95 52.92,-83.06 56.48,-77.03"/>
</g>
<!-- Node9&#45;&gt;Node2 -->
<g id="edge9" class="edge">
<title>Node9&#45;&gt;Node2</title>
<path fill="none" stroke="#63b8ff" d="M59.91,-56.8C62.89,-56.23 65.87,-55.7 68.75,-55.25 240.39,-28.69 447.95,-16.39 530.42,-12.28"/>
<polygon fill="#63b8ff" stroke="#63b8ff" points="530.4,-15.74 540.22,-11.75 530.06,-8.75 530.4,-15.74"/>
</g>
<!-- Node10&#45;&gt;Node2 -->
<g id="edge15" class="edge">
<title>Node10&#45;&gt;Node2</title>
<path fill="none" stroke="#63b8ff" d="M347.29,-171.14C401.49,-165.63 499.64,-152.74 525.75,-129.75 554.79,-104.18 563.27,-57.06 565.74,-30.39"/>
<polygon fill="#63b8ff" stroke="#63b8ff" points="569.28,-30.95 566.51,-20.72 562.3,-30.45 569.28,-30.95"/>
</g>
<!-- Node10&#45;&gt;Node4 -->
<g id="edge18" class="edge">
<title>Node10&#45;&gt;Node4</title>
<path fill="none" stroke="#63b8ff" d="M278.35,-165.34C246.52,-156.47 197.76,-142.87 162.71,-133.1"/>
<polygon fill="#63b8ff" stroke="#63b8ff" points="163.88,-129.52 153.31,-130.2 162,-136.26 163.88,-129.52"/>
</g>
<!-- Node10&#45;&gt;Node8 -->
<g id="edge17" class="edge">
<title>Node10&#45;&gt;Node8</title>
<path fill="none" stroke="#63b8ff" d="M347.26,-171.53C399.04,-166.65 489.78,-154.7 509.75,-129.75 528.41,-106.44 488.68,-86.57 458.25,-75.44"/>
<polygon fill="#63b8ff" stroke="#63b8ff" points="459.58,-71.85 448.99,-71.88 457.29,-78.46 459.58,-71.85"/>
</g>
<!-- Node10&#45;&gt;Node9 -->
<g id="edge19" class="edge">
<title>Node10&#45;&gt;Node9</title>
<path fill="none" stroke="#63b8ff" d="M274.18,-169.76C208.68,-161.22 76.57,-142.64 59.75,-129.75 45.63,-118.93 37.88,-99.84 33.81,-85.34"/>
<polygon fill="#63b8ff" stroke="#63b8ff" points="37.05,-84.83 31.29,-75.94 30.24,-86.48 37.05,-84.83"/>
</g>
<!-- Node11 -->
<g id="node11" class="node">
<title>Node11</title>
<g id="a_node11"><a xlink:title=" ">
<polygon fill="#e0e0e0" stroke="#999999" points="234.38,-129.75 189.12,-129.75 189.12,-110.5 234.38,-110.5 234.38,-129.75"/>
<text text-anchor="middle" x="211.75" y="-116.25" font-family="Helvetica,sans-Serif" font-size="10.00">math.h</text>
</a>
</g>
</g>
<!-- Node10&#45;&gt;Node11 -->
<g id="edge11" class="edge">
<title>Node10&#45;&gt;Node11</title>
<path fill="none" stroke="#63b8ff" d="M293.96,-165.34C278.6,-157.08 255.63,-144.73 237.87,-135.18"/>
<polygon fill="#63b8ff" stroke="#63b8ff" points="240.09,-131.86 229.63,-130.2 236.78,-138.02 240.09,-131.86"/>
</g>
<!-- Node12 -->
<g id="node12" class="node">
<title>Node12</title>
<g id="a_node12"><a xlink:title=" ">
<polygon fill="#e0e0e0" stroke="#999999" points="303,-129.75 252.5,-129.75 252.5,-110.5 303,-110.5 303,-129.75"/>
<text text-anchor="middle" x="277.75" y="-116.25" font-family="Helvetica,sans-Serif" font-size="10.00">stddef.h</text>
</a>
</g>
</g>
<!-- Node10&#45;&gt;Node12 -->
<g id="edge12" class="edge">
<title>Node10&#45;&gt;Node12</title>
<path fill="none" stroke="#63b8ff" d="M305.3,-165.58C300.88,-158.46 294.51,-148.18 289.01,-139.3"/>
<polygon fill="#63b8ff" stroke="#63b8ff" points="291.56,-137.77 283.32,-131.11 285.61,-141.45 291.56,-137.77"/>
</g>
<!-- Node13 -->
<g id="node13" class="node">
<title>Node13</title>
<g id="a_node13"><a xlink:title=" ">
<polygon fill="#e0e0e0" stroke="#999999" points="368.5,-129.75 321,-129.75 321,-110.5 368.5,-110.5 368.5,-129.75"/>
<text text-anchor="middle" x="344.75" y="-116.25" font-family="Helvetica,sans-Serif" font-size="10.00">stdint.h</text>
</a>
</g>
</g>
<!-- Node10&#45;&gt;Node13 -->
<g id="edge13" class="edge">
<title>Node10&#45;&gt;Node13</title>
<path fill="none" stroke="#63b8ff" d="M316.36,-165.58C320.91,-158.46 327.48,-148.18 333.15,-139.3"/>
<polygon fill="#63b8ff" stroke="#63b8ff" points="336.58,-141.42 339.01,-131.11 330.68,-137.65 336.58,-141.42"/>
</g>
<!-- Node14 -->
<g id="node14" class="node">
<title>Node14</title>
<g id="a_node14"><a xlink:title=" ">
<polygon fill="#e0e0e0" stroke="#999999" points="433.12,-129.75 386.38,-129.75 386.38,-110.5 433.12,-110.5 433.12,-129.75"/>
<text text-anchor="middle" x="409.75" y="-116.25" font-family="Helvetica,sans-Serif" font-size="10.00">stdlib.h</text>
</a>
</g>
</g>
<!-- Node10&#45;&gt;Node14 -->
<g id="edge14" class="edge">
<title>Node10&#45;&gt;Node14</title>
<path fill="none" stroke="#63b8ff" d="M327.54,-165.34C342.9,-157.08 365.87,-144.73 383.63,-135.18"/>
<polygon fill="#63b8ff" stroke="#63b8ff" points="384.72,-138.02 391.87,-130.2 381.41,-131.86 384.72,-138.02"/>
</g>
<!-- Node15 -->
<g id="node15" class="node">
<title>Node15</title>
<g id="a_node15"><a xlink:title=" ">
<polygon fill="#e0e0e0" stroke="#999999" points="500.62,-129.75 450.88,-129.75 450.88,-110.5 500.62,-110.5 500.62,-129.75"/>
<text text-anchor="middle" x="475.75" y="-116.25" font-family="Helvetica,sans-Serif" font-size="10.00">optional</text>
</a>
</g>
</g>
<!-- Node10&#45;&gt;Node15 -->
<g id="edge16" class="edge">
<title>Node10&#45;&gt;Node15</title>
<path fill="none" stroke="#63b8ff" d="M338.74,-165.34C366.79,-156.29 410.04,-142.33 440.44,-132.52"/>
<polygon fill="#63b8ff" stroke="#63b8ff" points="441.16,-135.64 449.6,-129.24 439.01,-128.98 441.16,-135.64"/>
</g>
</g>
</svg>
