<?xml version="1.0" encoding="UTF-8" standalone="no"?>
<!DOCTYPE svg PUBLIC "-//W3C//DTD SVG 1.1//EN"
 "http://www.w3.org/Graphics/SVG/1.1/DTD/svg11.dtd">
<!-- Generated by graphviz version 2.49.3 (20211027.1534)
 -->
<!-- Title: include/cppgc/platform.h Pages: 1 -->
<svg width="555pt" height="542pt"
 viewBox="0.00 0.00 555.00 542.00" xmlns="http://www.w3.org/2000/svg" xmlns:xlink="http://www.w3.org/1999/xlink">
<g id="graph0" class="graph" transform="scale(1 1) rotate(0) translate(4 538)">
<title>include/cppgc/platform.h</title>
<polygon fill="white" stroke="transparent" points="-4,4 -4,-538 551,-538 551,4 -4,4"/>
<!-- Node1 -->
<g id="node1" class="node">
<title>Node1</title>
<g id="a_node1"><a xlink:title=" ">
<polygon fill="#bfbfbf" stroke="black" points="158.5,-514.5 158.5,-533.5 280.5,-533.5 280.5,-514.5 158.5,-514.5"/>
<text text-anchor="middle" x="219.5" y="-521.5" font-family="Helvetica,sans-Serif" font-size="10.00">include/cppgc/platform.h</text>
</a>
</g>
</g>
<!-- Node2 -->
<g id="node2" class="node">
<title>Node2</title>
<g id="a_node2"><a xlink:href="default-platform_8h.html" target="_top" xlink:title=" ">
<polygon fill="white" stroke="black" points="0,-447.5 0,-477.5 109,-477.5 109,-447.5 0,-447.5"/>
<text text-anchor="start" x="8" y="-465.5" font-family="Helvetica,sans-Serif" font-size="10.00">include/cppgc/default</text>
<text text-anchor="middle" x="54.5" y="-454.5" font-family="Helvetica,sans-Serif" font-size="10.00">&#45;platform.h</text>
</a>
</g>
</g>
<!-- Node1&#45;&gt;Node2 -->
<g id="edge1" class="edge">
<title>Node1&#45;&gt;Node2</title>
<path fill="none" stroke="midnightblue" d="M186.15,-510.98C159.33,-501.3 121.59,-487.69 93.39,-477.52"/>
<polygon fill="midnightblue" stroke="midnightblue" points="185.27,-514.38 195.86,-514.48 187.64,-507.79 185.27,-514.38"/>
</g>
<!-- Node3 -->
<g id="node3" class="node">
<title>Node3</title>
<g id="a_node3"><a xlink:href="garbage-collected_8h.html" target="_top" xlink:title=" ">
<polygon fill="white" stroke="black" points="10.5,-313.5 10.5,-343.5 124.5,-343.5 124.5,-313.5 10.5,-313.5"/>
<text text-anchor="start" x="18.5" y="-331.5" font-family="Helvetica,sans-Serif" font-size="10.00">include/cppgc/garbage</text>
<text text-anchor="middle" x="67.5" y="-320.5" font-family="Helvetica,sans-Serif" font-size="10.00">&#45;collected.h</text>
</a>
</g>
</g>
<!-- Node1&#45;&gt;Node3 -->
<g id="edge2" class="edge">
<title>Node1&#45;&gt;Node3</title>
<path fill="none" stroke="midnightblue" d="M206.57,-506.54C177.24,-469.2 106.09,-378.63 78.6,-343.63"/>
<polygon fill="midnightblue" stroke="midnightblue" points="203.84,-508.73 212.77,-514.44 209.35,-504.41 203.84,-508.73"/>
</g>
<!-- Node8 -->
<g id="node8" class="node">
<title>Node8</title>
<g id="a_node8"><a xlink:href="heap_8h.html" target="_top" xlink:title=" ">
<polygon fill="white" stroke="black" points="165.5,-386 165.5,-405 273.5,-405 273.5,-386 165.5,-386"/>
<text text-anchor="middle" x="219.5" y="-393" font-family="Helvetica,sans-Serif" font-size="10.00">include/cppgc/heap.h</text>
</a>
</g>
</g>
<!-- Node1&#45;&gt;Node8 -->
<g id="edge8" class="edge">
<title>Node1&#45;&gt;Node8</title>
<path fill="none" stroke="midnightblue" d="M219.5,-503.94C219.5,-476.12 219.5,-425.54 219.5,-405.26"/>
<polygon fill="midnightblue" stroke="midnightblue" points="216,-504.31 219.5,-514.31 223,-504.31 216,-504.31"/>
</g>
<!-- Node12 -->
<g id="node12" class="node">
<title>Node12</title>
<g id="a_node12"><a xlink:href="caged-heap-local-data_8h.html" target="_top" xlink:title=" ">
<polygon fill="white" stroke="black" points="412.5,-447.5 412.5,-477.5 534.5,-477.5 534.5,-447.5 412.5,-447.5"/>
<text text-anchor="start" x="420.5" y="-465.5" font-family="Helvetica,sans-Serif" font-size="10.00">include/cppgc/internal</text>
<text text-anchor="middle" x="473.5" y="-454.5" font-family="Helvetica,sans-Serif" font-size="10.00">/caged&#45;heap&#45;local&#45;data.h</text>
</a>
</g>
</g>
<!-- Node1&#45;&gt;Node12 -->
<g id="edge14" class="edge">
<title>Node1&#45;&gt;Node12</title>
<path fill="none" stroke="midnightblue" d="M265.74,-512.17C307.24,-502.45 368.41,-488.12 413.64,-477.52"/>
<polygon fill="midnightblue" stroke="midnightblue" points="264.83,-508.79 255.89,-514.48 266.43,-515.6 264.83,-508.79"/>
</g>
<!-- Node13 -->
<g id="node13" class="node">
<title>Node13</title>
<g id="a_node13"><a xlink:href="write-barrier_8h.html" target="_top" xlink:title=" ">
<polygon fill="white" stroke="black" points="283,-447.5 283,-477.5 394,-477.5 394,-447.5 283,-447.5"/>
<text text-anchor="start" x="291" y="-465.5" font-family="Helvetica,sans-Serif" font-size="10.00">include/cppgc/internal</text>
<text text-anchor="middle" x="338.5" y="-454.5" font-family="Helvetica,sans-Serif" font-size="10.00">/write&#45;barrier.h</text>
</a>
</g>
</g>
<!-- Node1&#45;&gt;Node13 -->
<g id="edge15" class="edge">
<title>Node1&#45;&gt;Node13</title>
<path fill="none" stroke="midnightblue" d="M245.62,-509.94C264.81,-500.35 290.83,-487.33 310.45,-477.52"/>
<polygon fill="midnightblue" stroke="midnightblue" points="243.93,-506.87 236.55,-514.48 247.06,-513.13 243.93,-506.87"/>
</g>
<!-- Node4 -->
<g id="node4" class="node">
<title>Node4</title>
<g id="a_node4"><a xlink:href="visitor_8h.html" target="_top" xlink:title=" ">
<polygon fill="white" stroke="black" points="237,-123.5 237,-142.5 350,-142.5 350,-123.5 237,-123.5"/>
<text text-anchor="middle" x="293.5" y="-130.5" font-family="Helvetica,sans-Serif" font-size="10.00">include/cppgc/visitor.h</text>
</a>
</g>
</g>
<!-- Node3&#45;&gt;Node4 -->
<g id="edge3" class="edge">
<title>Node3&#45;&gt;Node4</title>
<path fill="none" stroke="midnightblue" d="M56.87,-303.79C44.26,-271.65 28.37,-214.21 57.5,-179 79.83,-152 174.49,-141.06 236.93,-136.73"/>
<polygon fill="midnightblue" stroke="midnightblue" points="53.74,-305.37 60.79,-313.28 60.21,-302.7 53.74,-305.37"/>
</g>
<!-- Node5 -->
<g id="node5" class="node">
<title>Node5</title>
<g id="a_node5"><a xlink:href="cross-thread-persistent_8h.html" target="_top" xlink:title=" ">
<polygon fill="white" stroke="black" points="373.5,-0.5 373.5,-30.5 477.5,-30.5 477.5,-0.5 373.5,-0.5"/>
<text text-anchor="start" x="381.5" y="-18.5" font-family="Helvetica,sans-Serif" font-size="10.00">include/cppgc/cross</text>
<text text-anchor="middle" x="425.5" y="-7.5" font-family="Helvetica,sans-Serif" font-size="10.00">&#45;thread&#45;persistent.h</text>
</a>
</g>
</g>
<!-- Node4&#45;&gt;Node5 -->
<g id="edge4" class="edge">
<title>Node4&#45;&gt;Node5</title>
<path fill="none" stroke="midnightblue" d="M266.82,-118.28C245.45,-105.46 221.22,-85.57 235.5,-67 252.25,-45.22 323.08,-30.86 373.34,-23.2"/>
<polygon fill="midnightblue" stroke="midnightblue" points="265.25,-121.42 275.68,-123.31 268.71,-115.33 265.25,-121.42"/>
</g>
<!-- Node6 -->
<g id="node6" class="node">
<title>Node6</title>
<g id="a_node6"><a xlink:href="persistent_8h.html" target="_top" xlink:title=" ">
<polygon fill="white" stroke="black" points="360.5,-67.5 360.5,-86.5 490.5,-86.5 490.5,-67.5 360.5,-67.5"/>
<text text-anchor="middle" x="425.5" y="-74.5" font-family="Helvetica,sans-Serif" font-size="10.00">include/cppgc/persistent.h</text>
</a>
</g>
</g>
<!-- Node4&#45;&gt;Node6 -->
<g id="edge5" class="edge">
<title>Node4&#45;&gt;Node6</title>
<path fill="none" stroke="midnightblue" d="M323.72,-119.64C348.49,-109.5 382.9,-95.43 404.68,-86.52"/>
<polygon fill="midnightblue" stroke="midnightblue" points="322.35,-116.42 314.42,-123.44 325,-122.9 322.35,-116.42"/>
</g>
<!-- Node7 -->
<g id="node7" class="node">
<title>Node7</title>
<g id="a_node7"><a xlink:href="v8-cppgc_8h.html" target="_top" xlink:title=" ">
<polygon fill="white" stroke="black" points="244.5,-67.5 244.5,-86.5 342.5,-86.5 342.5,-67.5 244.5,-67.5"/>
<text text-anchor="middle" x="293.5" y="-74.5" font-family="Helvetica,sans-Serif" font-size="10.00">include/v8&#45;cppgc.h</text>
</a>
</g>
</g>
<!-- Node4&#45;&gt;Node7 -->
<g id="edge7" class="edge">
<title>Node4&#45;&gt;Node7</title>
<path fill="none" stroke="midnightblue" d="M293.5,-112.8C293.5,-103.91 293.5,-93.78 293.5,-86.75"/>
<polygon fill="midnightblue" stroke="midnightblue" points="290,-113.08 293.5,-123.08 297,-113.08 290,-113.08"/>
</g>
<!-- Node6&#45;&gt;Node5 -->
<g id="edge6" class="edge">
<title>Node6&#45;&gt;Node5</title>
<path fill="none" stroke="midnightblue" d="M425.5,-57.23C425.5,-48.59 425.5,-38.5 425.5,-30.52"/>
<polygon fill="midnightblue" stroke="midnightblue" points="422,-57.48 425.5,-67.48 429,-57.48 422,-57.48"/>
</g>
<!-- Node9 -->
<g id="node9" class="node">
<title>Node9</title>
<g id="a_node9"><a xlink:href="liveness-broker_8h.html" target="_top" xlink:title=" ">
<polygon fill="white" stroke="black" points="149.5,-246.5 149.5,-276.5 265.5,-276.5 265.5,-246.5 149.5,-246.5"/>
<text text-anchor="start" x="157.5" y="-264.5" font-family="Helvetica,sans-Serif" font-size="10.00">include/cppgc/liveness</text>
<text text-anchor="middle" x="207.5" y="-253.5" font-family="Helvetica,sans-Serif" font-size="10.00">&#45;broker.h</text>
</a>
</g>
</g>
<!-- Node8&#45;&gt;Node9 -->
<g id="edge9" class="edge">
<title>Node8&#45;&gt;Node9</title>
<path fill="none" stroke="midnightblue" d="M217.78,-375.53C215.35,-348.81 210.97,-300.69 208.8,-276.78"/>
<polygon fill="midnightblue" stroke="midnightblue" points="214.32,-376.2 218.71,-385.84 221.29,-375.56 214.32,-376.2"/>
</g>
<!-- Node9&#45;&gt;Node4 -->
<g id="edge13" class="edge">
<title>Node9&#45;&gt;Node4</title>
<path fill="none" stroke="midnightblue" d="M139.52,-246.15C92.37,-233.06 42.37,-210.88 68.5,-179 89.4,-153.51 177.31,-142.17 236.86,-137.34"/>
<polygon fill="midnightblue" stroke="midnightblue" points="138.63,-249.53 149.19,-248.72 140.43,-242.77 138.63,-249.53"/>
</g>
<!-- Node10 -->
<g id="node10" class="node">
<title>Node10</title>
<g id="a_node10"><a xlink:href="ephemeron-pair_8h.html" target="_top" xlink:title=" ">
<polygon fill="white" stroke="black" points="229.5,-179.5 229.5,-209.5 357.5,-209.5 357.5,-179.5 229.5,-179.5"/>
<text text-anchor="start" x="237.5" y="-197.5" font-family="Helvetica,sans-Serif" font-size="10.00">include/cppgc/ephemeron</text>
<text text-anchor="middle" x="293.5" y="-186.5" font-family="Helvetica,sans-Serif" font-size="10.00">&#45;pair.h</text>
</a>
</g>
</g>
<!-- Node9&#45;&gt;Node10 -->
<g id="edge10" class="edge">
<title>Node9&#45;&gt;Node10</title>
<path fill="none" stroke="midnightblue" d="M234.4,-240.17C247.55,-230.23 263.05,-218.51 274.88,-209.58"/>
<polygon fill="midnightblue" stroke="midnightblue" points="232.03,-237.57 226.16,-246.4 236.25,-243.16 232.03,-237.57"/>
</g>
<!-- Node11 -->
<g id="node11" class="node">
<title>Node11</title>
<g id="a_node11"><a xlink:href="prefinalizer_8h.html" target="_top" xlink:title=" ">
<polygon fill="white" stroke="black" points="78,-185 78,-204 211,-204 211,-185 78,-185"/>
<text text-anchor="middle" x="144.5" y="-192" font-family="Helvetica,sans-Serif" font-size="10.00">include/cppgc/prefinalizer.h</text>
</a>
</g>
</g>
<!-- Node9&#45;&gt;Node11 -->
<g id="edge12" class="edge">
<title>Node9&#45;&gt;Node11</title>
<path fill="none" stroke="midnightblue" d="M186.66,-239C175.16,-227.13 161.51,-213.05 152.93,-204.19"/>
<polygon fill="midnightblue" stroke="midnightblue" points="184.36,-241.65 193.83,-246.4 189.38,-236.78 184.36,-241.65"/>
</g>
<!-- Node10&#45;&gt;Node4 -->
<g id="edge11" class="edge">
<title>Node10&#45;&gt;Node4</title>
<path fill="none" stroke="midnightblue" d="M293.5,-169.29C293.5,-159.86 293.5,-149.65 293.5,-142.66"/>
<polygon fill="midnightblue" stroke="midnightblue" points="290,-169.4 293.5,-179.4 297,-169.4 290,-169.4"/>
</g>
<!-- Node14 -->
<g id="node14" class="node">
<title>Node14</title>
<g id="a_node14"><a xlink:href="heap-consistency_8h.html" target="_top" xlink:title=" ">
<polygon fill="white" stroke="black" points="446,-380.5 446,-410.5 547,-410.5 547,-380.5 446,-380.5"/>
<text text-anchor="start" x="454" y="-398.5" font-family="Helvetica,sans-Serif" font-size="10.00">include/cppgc/heap</text>
<text text-anchor="middle" x="496.5" y="-387.5" font-family="Helvetica,sans-Serif" font-size="10.00">&#45;consistency.h</text>
</a>
</g>
</g>
<!-- Node13&#45;&gt;Node14 -->
<g id="edge16" class="edge">
<title>Node13&#45;&gt;Node14</title>
<path fill="none" stroke="midnightblue" d="M382.15,-443.54C407.43,-433.14 438.8,-420.24 462.28,-410.58"/>
<polygon fill="midnightblue" stroke="midnightblue" points="380.7,-440.35 372.78,-447.4 383.36,-446.83 380.7,-440.35"/>
</g>
<!-- Node15 -->
<g id="node15" class="node">
<title>Node15</title>
<g id="a_node15"><a xlink:href="pointer-policies_8h.html" target="_top" xlink:title=" ">
<polygon fill="white" stroke="black" points="317,-380.5 317,-410.5 428,-410.5 428,-380.5 317,-380.5"/>
<text text-anchor="start" x="325" y="-398.5" font-family="Helvetica,sans-Serif" font-size="10.00">include/cppgc/internal</text>
<text text-anchor="middle" x="372.5" y="-387.5" font-family="Helvetica,sans-Serif" font-size="10.00">/pointer&#45;policies.h</text>
</a>
</g>
</g>
<!-- Node13&#45;&gt;Node15 -->
<g id="edge17" class="edge">
<title>Node13&#45;&gt;Node15</title>
<path fill="none" stroke="midnightblue" d="M350.64,-438.28C355.49,-429.02 360.91,-418.66 365.14,-410.58"/>
<polygon fill="midnightblue" stroke="midnightblue" points="347.41,-436.91 345.88,-447.4 353.61,-440.16 347.41,-436.91"/>
</g>
<!-- Node15&#45;&gt;Node4 -->
<g id="edge24" class="edge">
<title>Node15&#45;&gt;Node4</title>
<path fill="none" stroke="midnightblue" d="M378.74,-370.56C388.26,-328.58 401.85,-240.29 366.5,-179 356.24,-161.2 335.82,-149.52 319.19,-142.52"/>
<polygon fill="midnightblue" stroke="midnightblue" points="375.3,-369.89 376.38,-380.43 382.11,-371.52 375.3,-369.89"/>
</g>
<!-- Node15&#45;&gt;Node5 -->
<g id="edge18" class="edge">
<title>Node15&#45;&gt;Node5</title>
<path fill="none" stroke="midnightblue" d="M418.13,-376.07C460.96,-355.4 518.5,-317.42 518.5,-262.5 518.5,-262.5 518.5,-262.5 518.5,-132 518.5,-101.9 517.19,-91.35 499.5,-67 488.26,-51.52 470.74,-39.26 455.56,-30.69"/>
<polygon fill="midnightblue" stroke="midnightblue" points="416.55,-372.95 408.97,-380.34 419.51,-379.29 416.55,-372.95"/>
</g>
<!-- Node15&#45;&gt;Node6 -->
<g id="edge23" class="edge">
<title>Node15&#45;&gt;Node6</title>
<path fill="none" stroke="midnightblue" d="M398.27,-373.58C424.56,-349.73 461.5,-308.09 461.5,-262.5 461.5,-262.5 461.5,-262.5 461.5,-193.5 461.5,-151.91 439.96,-105.56 430.21,-86.7"/>
<polygon fill="midnightblue" stroke="midnightblue" points="395.71,-371.17 390.51,-380.4 400.33,-376.43 395.71,-371.17"/>
</g>
<!-- Node16 -->
<g id="node16" class="node">
<title>Node16</title>
<g id="a_node16"><a xlink:href="member_8h.html" target="_top" xlink:title=" ">
<polygon fill="white" stroke="black" points="235.5,-319 235.5,-338 357.5,-338 357.5,-319 235.5,-319"/>
<text text-anchor="middle" x="296.5" y="-326" font-family="Helvetica,sans-Serif" font-size="10.00">include/cppgc/member.h</text>
</a>
</g>
</g>
<!-- Node15&#45;&gt;Node16 -->
<g id="edge19" class="edge">
<title>Node15&#45;&gt;Node16</title>
<path fill="none" stroke="midnightblue" d="M348.15,-373.67C334.11,-361.67 317.22,-347.22 306.67,-338.19"/>
<polygon fill="midnightblue" stroke="midnightblue" points="346.13,-376.56 356.01,-380.4 350.68,-371.24 346.13,-376.56"/>
</g>
<!-- Node16&#45;&gt;Node4 -->
<g id="edge22" class="edge">
<title>Node16&#45;&gt;Node4</title>
<path fill="none" stroke="midnightblue" d="M313.68,-312.07C341.98,-284.69 392.79,-226.09 366.5,-179 356.56,-161.19 336.35,-149.56 319.71,-142.59"/>
<polygon fill="midnightblue" stroke="midnightblue" points="311.27,-309.53 306.37,-318.92 316.06,-314.63 311.27,-309.53"/>
</g>
<!-- Node16&#45;&gt;Node9 -->
<g id="edge21" class="edge">
<title>Node16&#45;&gt;Node9</title>
<path fill="none" stroke="midnightblue" d="M276.02,-312.54C261.21,-301.73 241.32,-287.2 226.79,-276.59"/>
<polygon fill="midnightblue" stroke="midnightblue" points="274.36,-315.66 284.5,-318.73 278.49,-310.01 274.36,-315.66"/>
</g>
<!-- Node16&#45;&gt;Node10 -->
<g id="edge20" class="edge">
<title>Node16&#45;&gt;Node10</title>
<path fill="none" stroke="midnightblue" d="M296.07,-308.53C295.46,-281.81 294.37,-233.69 293.82,-209.78"/>
<polygon fill="midnightblue" stroke="midnightblue" points="292.58,-308.92 296.3,-318.84 299.57,-308.76 292.58,-308.92"/>
</g>
</g>
</svg>
