<?xml version="1.0" encoding="UTF-8" standalone="no"?>
<!DOCTYPE svg PUBLIC "-//W3C//DTD SVG 1.1//EN"
 "http://www.w3.org/Graphics/SVG/1.1/DTD/svg11.dtd">
<!-- Generated by graphviz version 2.49.3 (20211027.1534)
 -->
<!-- Title: include/cppgc/sentinel&#45;pointer.h Pages: 1 -->
<svg width="642pt" height="542pt"
 viewBox="0.00 0.00 642.00 542.00" xmlns="http://www.w3.org/2000/svg" xmlns:xlink="http://www.w3.org/1999/xlink">
<g id="graph0" class="graph" transform="scale(1 1) rotate(0) translate(4 538)">
<title>include/cppgc/sentinel&#45;pointer.h</title>
<polygon fill="white" stroke="transparent" points="-4,4 -4,-538 638,-538 638,4 -4,4"/>
<!-- Node1 -->
<g id="node1" class="node">
<title>Node1</title>
<g id="a_node1"><a xlink:title=" ">
<polygon fill="#bfbfbf" stroke="black" points="137.5,-503.5 137.5,-533.5 250.5,-533.5 250.5,-503.5 137.5,-503.5"/>
<text text-anchor="start" x="145.5" y="-521.5" font-family="Helvetica,sans-Serif" font-size="10.00">include/cppgc/sentinel</text>
<text text-anchor="middle" x="194" y="-510.5" font-family="Helvetica,sans-Serif" font-size="10.00">&#45;pointer.h</text>
</a>
</g>
</g>
<!-- Node2 -->
<g id="node2" class="node">
<title>Node2</title>
<g id="a_node2"><a xlink:href="pointer-policies_8h.html" target="_top" xlink:title=" ">
<polygon fill="white" stroke="black" points="28.5,-369.5 28.5,-399.5 139.5,-399.5 139.5,-369.5 28.5,-369.5"/>
<text text-anchor="start" x="36.5" y="-387.5" font-family="Helvetica,sans-Serif" font-size="10.00">include/cppgc/internal</text>
<text text-anchor="middle" x="84" y="-376.5" font-family="Helvetica,sans-Serif" font-size="10.00">/pointer&#45;policies.h</text>
</a>
</g>
</g>
<!-- Node1&#45;&gt;Node2 -->
<g id="edge1" class="edge">
<title>Node1&#45;&gt;Node2</title>
<path fill="none" stroke="midnightblue" d="M163.62,-497.34C152.22,-488.85 139.69,-478.31 130,-467 111.93,-445.9 97.47,-416.62 89.87,-399.51"/>
<polygon fill="midnightblue" stroke="midnightblue" points="161.89,-500.41 172.05,-503.42 165.99,-494.73 161.89,-500.41"/>
</g>
<!-- Node4 -->
<g id="node4" class="node">
<title>Node4</title>
<g id="a_node4"><a xlink:href="member_8h.html" target="_top" xlink:title=" ">
<polygon fill="white" stroke="black" points="278,-313.5 278,-332.5 400,-332.5 400,-313.5 278,-313.5"/>
<text text-anchor="middle" x="339" y="-320.5" font-family="Helvetica,sans-Serif" font-size="10.00">include/cppgc/member.h</text>
</a>
</g>
</g>
<!-- Node1&#45;&gt;Node4 -->
<g id="edge20" class="edge">
<title>Node1&#45;&gt;Node4</title>
<path fill="none" stroke="midnightblue" d="M255.07,-499.53C272.01,-491.92 289.02,-481.38 301,-467 335.37,-425.76 338.95,-356.54 339.1,-332.52"/>
<polygon fill="midnightblue" stroke="midnightblue" points="253.56,-496.37 245.7,-503.47 256.27,-502.82 253.56,-496.37"/>
</g>
<!-- Node6 -->
<g id="node6" class="node">
<title>Node6</title>
<g id="a_node6"><a xlink:href="visitor_8h.html" target="_top" xlink:title=" ">
<polygon fill="white" stroke="black" points="222.5,-123.5 222.5,-142.5 335.5,-142.5 335.5,-123.5 222.5,-123.5"/>
<text text-anchor="middle" x="279" y="-130.5" font-family="Helvetica,sans-Serif" font-size="10.00">include/cppgc/visitor.h</text>
</a>
</g>
</g>
<!-- Node1&#45;&gt;Node6 -->
<g id="edge22" class="edge">
<title>Node1&#45;&gt;Node6</title>
<path fill="none" stroke="midnightblue" d="M229.46,-497.61C240.67,-489.56 251.96,-479.24 259,-467 273.98,-440.95 265.82,-429.97 268,-400 270.8,-361.43 267.7,-351.65 269,-313 271.21,-247.36 276.57,-168.32 278.39,-142.56"/>
<polygon fill="midnightblue" stroke="midnightblue" points="227.32,-494.83 220.98,-503.32 231.23,-500.64 227.32,-494.83"/>
</g>
<!-- Node7 -->
<g id="node7" class="node">
<title>Node7</title>
<g id="a_node7"><a xlink:href="persistent_8h.html" target="_top" xlink:title=" ">
<polygon fill="white" stroke="black" points="105,-67.5 105,-86.5 235,-86.5 235,-67.5 105,-67.5"/>
<text text-anchor="middle" x="170" y="-74.5" font-family="Helvetica,sans-Serif" font-size="10.00">include/cppgc/persistent.h</text>
</a>
</g>
</g>
<!-- Node1&#45;&gt;Node7 -->
<g id="edge21" class="edge">
<title>Node1&#45;&gt;Node7</title>
<path fill="none" stroke="midnightblue" d="M127.78,-501.73C71.58,-483.94 0,-448.85 0,-385.5 0,-385.5 0,-385.5 0,-193.5 0,-130.88 79.9,-99.84 130.14,-86.5"/>
<polygon fill="midnightblue" stroke="midnightblue" points="126.78,-505.09 137.37,-504.65 128.82,-498.39 126.78,-505.09"/>
</g>
<!-- Node11 -->
<g id="node11" class="node">
<title>Node11</title>
<g id="a_node11"><a xlink:href="write-barrier_8h.html" target="_top" xlink:title=" ">
<polygon fill="white" stroke="black" points="138.5,-436.5 138.5,-466.5 249.5,-466.5 249.5,-436.5 138.5,-436.5"/>
<text text-anchor="start" x="146.5" y="-454.5" font-family="Helvetica,sans-Serif" font-size="10.00">include/cppgc/internal</text>
<text text-anchor="middle" x="194" y="-443.5" font-family="Helvetica,sans-Serif" font-size="10.00">/write&#45;barrier.h</text>
</a>
</g>
</g>
<!-- Node1&#45;&gt;Node11 -->
<g id="edge17" class="edge">
<title>Node1&#45;&gt;Node11</title>
<path fill="none" stroke="midnightblue" d="M194,-493.11C194,-484.15 194,-474.32 194,-466.58"/>
<polygon fill="midnightblue" stroke="midnightblue" points="190.5,-493.4 194,-503.4 197.5,-493.4 190.5,-493.4"/>
</g>
<!-- Node3 -->
<g id="node3" class="node">
<title>Node3</title>
<g id="a_node3"><a xlink:href="cross-thread-persistent_8h.html" target="_top" xlink:title=" ">
<polygon fill="white" stroke="black" points="118,-0.5 118,-30.5 222,-30.5 222,-0.5 118,-0.5"/>
<text text-anchor="start" x="126" y="-18.5" font-family="Helvetica,sans-Serif" font-size="10.00">include/cppgc/cross</text>
<text text-anchor="middle" x="170" y="-7.5" font-family="Helvetica,sans-Serif" font-size="10.00">&#45;thread&#45;persistent.h</text>
</a>
</g>
</g>
<!-- Node2&#45;&gt;Node3 -->
<g id="edge2" class="edge">
<title>Node2&#45;&gt;Node3</title>
<path fill="none" stroke="midnightblue" d="M81.77,-359.22C79.72,-334.8 77,-296.08 77,-262.5 77,-262.5 77,-262.5 77,-132 77,-101.9 78.31,-91.35 96,-67 107.24,-51.52 124.76,-39.26 139.94,-30.69"/>
<polygon fill="midnightblue" stroke="midnightblue" points="78.3,-359.7 82.65,-369.36 85.27,-359.09 78.3,-359.7"/>
</g>
<!-- Node2&#45;&gt;Node4 -->
<g id="edge3" class="edge">
<title>Node2&#45;&gt;Node4</title>
<path fill="none" stroke="midnightblue" d="M149.45,-368.23C198.03,-356.89 262.52,-341.85 302.36,-332.55"/>
<polygon fill="midnightblue" stroke="midnightblue" points="148.59,-364.84 139.65,-370.52 150.18,-371.65 148.59,-364.84"/>
</g>
<!-- Node2&#45;&gt;Node6 -->
<g id="edge16" class="edge">
<title>Node2&#45;&gt;Node6</title>
<path fill="none" stroke="midnightblue" d="M132.11,-365.03C147.77,-357.11 164.15,-346.51 176,-333 224.44,-277.78 196.54,-240.96 236,-179 245.06,-164.78 259.04,-151.18 268.59,-142.73"/>
<polygon fill="midnightblue" stroke="midnightblue" points="130.52,-361.91 123.02,-369.39 133.55,-368.22 130.52,-361.91"/>
</g>
<!-- Node2&#45;&gt;Node7 -->
<g id="edge15" class="edge">
<title>Node2&#45;&gt;Node7</title>
<path fill="none" stroke="midnightblue" d="M108.33,-362.43C131.22,-340.14 162,-302.69 162,-262.5 162,-262.5 162,-262.5 162,-193.5 162,-153.5 166.83,-105.9 168.99,-86.68"/>
<polygon fill="midnightblue" stroke="midnightblue" points="105.81,-359.99 100.92,-369.39 110.61,-365.09 105.81,-359.99"/>
</g>
<!-- Node5 -->
<g id="node5" class="node">
<title>Node5</title>
<g id="a_node5"><a xlink:href="ephemeron-pair_8h.html" target="_top" xlink:title=" ">
<polygon fill="white" stroke="black" points="506,-179.5 506,-209.5 634,-209.5 634,-179.5 506,-179.5"/>
<text text-anchor="start" x="514" y="-197.5" font-family="Helvetica,sans-Serif" font-size="10.00">include/cppgc/ephemeron</text>
<text text-anchor="middle" x="570" y="-186.5" font-family="Helvetica,sans-Serif" font-size="10.00">&#45;pair.h</text>
</a>
</g>
</g>
<!-- Node4&#45;&gt;Node5 -->
<g id="edge4" class="edge">
<title>Node4&#45;&gt;Node5</title>
<path fill="none" stroke="midnightblue" d="M387.83,-310.81C414.63,-303.46 447.83,-292.35 475,-277 507.92,-258.4 539.98,-227.43 557.14,-209.5"/>
<polygon fill="midnightblue" stroke="midnightblue" points="386.67,-307.49 377.89,-313.44 388.46,-314.26 386.67,-307.49"/>
</g>
<!-- Node4&#45;&gt;Node6 -->
<g id="edge14" class="edge">
<title>Node4&#45;&gt;Node6</title>
<path fill="none" stroke="midnightblue" d="M333.18,-303.76C320.52,-264.1 290.91,-171.32 281.75,-142.62"/>
<polygon fill="midnightblue" stroke="midnightblue" points="329.89,-304.97 336.27,-313.43 336.56,-302.84 329.89,-304.97"/>
</g>
<!-- Node9 -->
<g id="node9" class="node">
<title>Node9</title>
<g id="a_node9"><a xlink:href="liveness-broker_8h.html" target="_top" xlink:title=" ">
<polygon fill="white" stroke="black" points="350,-246.5 350,-276.5 466,-276.5 466,-246.5 350,-246.5"/>
<text text-anchor="start" x="358" y="-264.5" font-family="Helvetica,sans-Serif" font-size="10.00">include/cppgc/liveness</text>
<text text-anchor="middle" x="408" y="-253.5" font-family="Helvetica,sans-Serif" font-size="10.00">&#45;broker.h</text>
</a>
</g>
</g>
<!-- Node4&#45;&gt;Node9 -->
<g id="edge10" class="edge">
<title>Node4&#45;&gt;Node9</title>
<path fill="none" stroke="midnightblue" d="M356.49,-306.92C367.32,-297.58 381.14,-285.66 391.74,-276.52"/>
<polygon fill="midnightblue" stroke="midnightblue" points="354.17,-304.29 348.89,-313.48 358.74,-309.6 354.17,-304.29"/>
</g>
<!-- Node5&#45;&gt;Node6 -->
<g id="edge5" class="edge">
<title>Node5&#45;&gt;Node6</title>
<path fill="none" stroke="midnightblue" d="M495.97,-178.36C440.37,-166.99 366.23,-151.84 320.6,-142.51"/>
<polygon fill="midnightblue" stroke="midnightblue" points="495.28,-181.79 505.78,-180.37 496.68,-174.94 495.28,-181.79"/>
</g>
<!-- Node6&#45;&gt;Node3 -->
<g id="edge6" class="edge">
<title>Node6&#45;&gt;Node3</title>
<path fill="none" stroke="midnightblue" d="M271.98,-113.74C266.02,-99.84 256.44,-80.81 244,-67 230.68,-52.2 212.18,-39.58 197.01,-30.65"/>
<polygon fill="midnightblue" stroke="midnightblue" points="268.82,-115.25 275.83,-123.19 275.3,-112.61 268.82,-115.25"/>
</g>
<!-- Node6&#45;&gt;Node7 -->
<g id="edge7" class="edge">
<title>Node6&#45;&gt;Node7</title>
<path fill="none" stroke="midnightblue" d="M252.48,-118.86C232.27,-108.85 205.01,-95.35 187.47,-86.65"/>
<polygon fill="midnightblue" stroke="midnightblue" points="250.97,-122.02 261.49,-123.32 254.08,-115.75 250.97,-122.02"/>
</g>
<!-- Node8 -->
<g id="node8" class="node">
<title>Node8</title>
<g id="a_node8"><a xlink:href="v8-cppgc_8h.html" target="_top" xlink:title=" ">
<polygon fill="white" stroke="black" points="291,-67.5 291,-86.5 389,-86.5 389,-67.5 291,-67.5"/>
<text text-anchor="middle" x="340" y="-74.5" font-family="Helvetica,sans-Serif" font-size="10.00">include/v8&#45;cppgc.h</text>
</a>
</g>
</g>
<!-- Node6&#45;&gt;Node8 -->
<g id="edge9" class="edge">
<title>Node6&#45;&gt;Node8</title>
<path fill="none" stroke="midnightblue" d="M296.47,-116.54C307.34,-106.91 320.94,-94.87 330.02,-86.83"/>
<polygon fill="midnightblue" stroke="midnightblue" points="293.97,-114.07 288.8,-123.32 298.61,-119.32 293.97,-114.07"/>
</g>
<!-- Node7&#45;&gt;Node3 -->
<g id="edge8" class="edge">
<title>Node7&#45;&gt;Node3</title>
<path fill="none" stroke="midnightblue" d="M170,-57.23C170,-48.59 170,-38.5 170,-30.52"/>
<polygon fill="midnightblue" stroke="midnightblue" points="166.5,-57.48 170,-67.48 173.5,-57.48 166.5,-57.48"/>
</g>
<!-- Node9&#45;&gt;Node5 -->
<g id="edge11" class="edge">
<title>Node9&#45;&gt;Node5</title>
<path fill="none" stroke="midnightblue" d="M452.75,-242.54C478.67,-232.14 510.84,-219.24 534.92,-209.58"/>
<polygon fill="midnightblue" stroke="midnightblue" points="451.13,-239.42 443.15,-246.4 453.74,-245.92 451.13,-239.42"/>
</g>
<!-- Node9&#45;&gt;Node6 -->
<g id="edge13" class="edge">
<title>Node9&#45;&gt;Node6</title>
<path fill="none" stroke="midnightblue" d="M435.48,-239.8C454.64,-222.84 474.26,-198.54 459,-179 443.84,-159.58 382.5,-147.3 335.6,-140.56"/>
<polygon fill="midnightblue" stroke="midnightblue" points="433.08,-237.25 427.68,-246.36 437.59,-242.61 433.08,-237.25"/>
</g>
<!-- Node10 -->
<g id="node10" class="node">
<title>Node10</title>
<g id="a_node10"><a xlink:href="prefinalizer_8h.html" target="_top" xlink:title=" ">
<polygon fill="white" stroke="black" points="316.5,-185 316.5,-204 449.5,-204 449.5,-185 316.5,-185"/>
<text text-anchor="middle" x="383" y="-192" font-family="Helvetica,sans-Serif" font-size="10.00">include/cppgc/prefinalizer.h</text>
</a>
</g>
</g>
<!-- Node9&#45;&gt;Node10 -->
<g id="edge12" class="edge">
<title>Node9&#45;&gt;Node10</title>
<path fill="none" stroke="midnightblue" d="M398.94,-236.94C394.55,-225.54 389.56,-212.55 386.34,-204.19"/>
<polygon fill="midnightblue" stroke="midnightblue" points="395.72,-238.32 402.58,-246.4 402.25,-235.81 395.72,-238.32"/>
</g>
<!-- Node11&#45;&gt;Node2 -->
<g id="edge19" class="edge">
<title>Node11&#45;&gt;Node2</title>
<path fill="none" stroke="midnightblue" d="M161.5,-431.3C144.29,-421.12 123.52,-408.85 107.82,-399.58"/>
<polygon fill="midnightblue" stroke="midnightblue" points="159.74,-434.32 170.13,-436.4 163.3,-428.3 159.74,-434.32"/>
</g>
<!-- Node12 -->
<g id="node12" class="node">
<title>Node12</title>
<g id="a_node12"><a xlink:href="heap-consistency_8h.html" target="_top" xlink:title=" ">
<polygon fill="white" stroke="black" points="157.5,-369.5 157.5,-399.5 258.5,-399.5 258.5,-369.5 157.5,-369.5"/>
<text text-anchor="start" x="165.5" y="-387.5" font-family="Helvetica,sans-Serif" font-size="10.00">include/cppgc/heap</text>
<text text-anchor="middle" x="208" y="-376.5" font-family="Helvetica,sans-Serif" font-size="10.00">&#45;consistency.h</text>
</a>
</g>
</g>
<!-- Node11&#45;&gt;Node12 -->
<g id="edge18" class="edge">
<title>Node11&#45;&gt;Node12</title>
<path fill="none" stroke="midnightblue" d="M199.19,-426.4C201.14,-417.37 203.28,-407.41 204.97,-399.58"/>
<polygon fill="midnightblue" stroke="midnightblue" points="195.72,-425.88 197.04,-436.4 202.56,-427.36 195.72,-425.88"/>
</g>
</g>
</svg>
