<?xml version="1.0" encoding="UTF-8" standalone="no"?>
<!DOCTYPE svg PUBLIC "-//W3C//DTD SVG 1.1//EN"
 "http://www.w3.org/Graphics/SVG/1.1/DTD/svg11.dtd">
<!-- Generated by graphviz version 8.0.5 (20230430.1635)
 -->
<!-- Title: include/v8&#45;data.h Pages: 1 -->
<svg width="783pt" height="304pt"
 viewBox="0.00 0.00 783.25 303.50" xmlns="http://www.w3.org/2000/svg" xmlns:xlink="http://www.w3.org/1999/xlink">
<g id="graph0" class="graph" transform="scale(1 1) rotate(0) translate(4 299.5)">
<title>include/v8&#45;data.h</title>
<!-- Node1 -->
<g id="node1" class="node">
<title>Node1</title>
<g id="a_node1"><a xlink:title=" ">
<polygon fill="#999999" stroke="#666666" points="623.25,-295.5 533.75,-295.5 533.75,-276.25 623.25,-276.25 623.25,-295.5"/>
<text text-anchor="middle" x="578.5" y="-282" font-family="Helvetica,sans-Serif" font-size="10.00">include/v8&#45;data.h</text>
</a>
</g>
</g>
<!-- Node2 -->
<g id="node2" class="node">
<title>Node2</title>
<g id="a_node2"><a xlink:href="v8-local-handle_8h.html" target="_top" xlink:title=" ">
<polygon fill="white" stroke="#666666" points="578.88,-240.25 490.12,-240.25 490.12,-221 578.88,-221 578.88,-240.25"/>
<text text-anchor="middle" x="534.5" y="-226.75" font-family="Helvetica,sans-Serif" font-size="10.00">v8&#45;local&#45;handle.h</text>
</a>
</g>
</g>
<!-- Node1&#45;&gt;Node2 -->
<g id="edge1" class="edge">
<title>Node1&#45;&gt;Node2</title>
<path fill="none" stroke="#63b8ff" d="M571.23,-276.08C565.16,-268.73 556.3,-258.01 548.81,-248.94"/>
<polygon fill="#63b8ff" stroke="#63b8ff" points="550.99,-247.09 541.92,-241.61 545.6,-251.55 550.99,-247.09"/>
</g>
<!-- Node17 -->
<g id="node17" class="node">
<title>Node17</title>
<g id="a_node17"><a xlink:href="v8config_8h.html" target="_top" xlink:title=" ">
<polygon fill="white" stroke="#666666" points="775.25,-74.5 715.75,-74.5 715.75,-55.25 775.25,-55.25 775.25,-74.5"/>
<text text-anchor="middle" x="745.5" y="-61" font-family="Helvetica,sans-Serif" font-size="10.00">v8config.h</text>
</a>
</g>
</g>
<!-- Node1&#45;&gt;Node17 -->
<g id="edge21" class="edge">
<title>Node1&#45;&gt;Node17</title>
<path fill="none" stroke="#63b8ff" d="M585.25,-276.02C610.38,-243.07 698.75,-127.19 732.37,-83.09"/>
<polygon fill="#63b8ff" stroke="#63b8ff" points="735.56,-85.68 738.85,-75.6 730,-81.43 735.56,-85.68"/>
</g>
<!-- Node3 -->
<g id="node3" class="node">
<title>Node3</title>
<g id="a_node3"><a xlink:title=" ">
<polygon fill="#e0e0e0" stroke="#999999" points="697.75,-74.5 647.25,-74.5 647.25,-55.25 697.75,-55.25 697.75,-74.5"/>
<text text-anchor="middle" x="672.5" y="-61" font-family="Helvetica,sans-Serif" font-size="10.00">stddef.h</text>
</a>
</g>
</g>
<!-- Node2&#45;&gt;Node3 -->
<g id="edge2" class="edge">
<title>Node2&#45;&gt;Node3</title>
<path fill="none" stroke="#63b8ff" d="M555.4,-220.53C571.2,-212.84 592.65,-200.6 607.5,-185 635.96,-155.11 655.9,-110.35 665.66,-85.06"/>
<polygon fill="#63b8ff" stroke="#63b8ff" points="669.22,-86.53 669.42,-75.94 662.66,-84.09 669.22,-86.53"/>
</g>
<!-- Node4 -->
<g id="node4" class="node">
<title>Node4</title>
<g id="a_node4"><a xlink:title=" ">
<polygon fill="#e0e0e0" stroke="#999999" points="61,-74.5 0,-74.5 0,-55.25 61,-55.25 61,-74.5"/>
<text text-anchor="middle" x="30.5" y="-61" font-family="Helvetica,sans-Serif" font-size="10.00">type_traits</text>
</a>
</g>
</g>
<!-- Node2&#45;&gt;Node4 -->
<g id="edge3" class="edge">
<title>Node2&#45;&gt;Node4</title>
<path fill="none" stroke="#63b8ff" d="M506.68,-220.59C421.85,-193.03 166.27,-109.99 68.81,-78.32"/>
<polygon fill="#63b8ff" stroke="#63b8ff" points="70.13,-74.75 59.54,-74.98 67.97,-81.4 70.13,-74.75"/>
</g>
<!-- Node5 -->
<g id="node5" class="node">
<title>Node5</title>
<g id="a_node5"><a xlink:title=" ">
<polygon fill="#e0e0e0" stroke="#999999" points="598,-185 555,-185 555,-165.75 598,-165.75 598,-185"/>
<text text-anchor="middle" x="576.5" y="-171.5" font-family="Helvetica,sans-Serif" font-size="10.00">vector</text>
</a>
</g>
</g>
<!-- Node2&#45;&gt;Node5 -->
<g id="edge4" class="edge">
<title>Node2&#45;&gt;Node5</title>
<path fill="none" stroke="#63b8ff" d="M541.44,-220.83C547.18,-213.55 555.51,-202.98 562.62,-193.98"/>
<polygon fill="#63b8ff" stroke="#63b8ff" points="565.97,-196.38 569.41,-186.36 560.47,-192.04 565.97,-196.38"/>
</g>
<!-- Node6 -->
<g id="node6" class="node">
<title>Node6</title>
<g id="a_node6"><a xlink:href="v8-handle-base_8h.html" target="_top" xlink:title=" ">
<polygon fill="white" stroke="#666666" points="537.25,-185 447.75,-185 447.75,-165.75 537.25,-165.75 537.25,-185"/>
<text text-anchor="middle" x="492.5" y="-171.5" font-family="Helvetica,sans-Serif" font-size="10.00">v8&#45;handle&#45;base.h</text>
</a>
</g>
</g>
<!-- Node2&#45;&gt;Node6 -->
<g id="edge5" class="edge">
<title>Node2&#45;&gt;Node6</title>
<path fill="none" stroke="#63b8ff" d="M527.56,-220.83C521.82,-213.55 513.49,-202.98 506.38,-193.98"/>
<polygon fill="#63b8ff" stroke="#63b8ff" points="508.53,-192.04 499.59,-186.36 503.03,-196.38 508.53,-192.04"/>
</g>
<!-- Node7 -->
<g id="node7" class="node">
<title>Node7</title>
<g id="a_node7"><a xlink:href="v8-internal_8h.html" target="_top" xlink:title=" ">
<polygon fill="white" stroke="#666666" points="453.75,-129.75 385.25,-129.75 385.25,-110.5 453.75,-110.5 453.75,-129.75"/>
<text text-anchor="middle" x="419.5" y="-116.25" font-family="Helvetica,sans-Serif" font-size="10.00">v8&#45;internal.h</text>
</a>
</g>
</g>
<!-- Node2&#45;&gt;Node7 -->
<g id="edge20" class="edge">
<title>Node2&#45;&gt;Node7</title>
<path fill="none" stroke="#63b8ff" d="M497.56,-220.51C477.5,-213.79 453.76,-202.67 438.5,-185 427.85,-172.67 423.17,-154.59 421.11,-140.81"/>
<polygon fill="#63b8ff" stroke="#63b8ff" points="424.5,-140.6 419.89,-131.06 417.54,-141.39 424.5,-140.6"/>
</g>
<!-- Node6&#45;&gt;Node7 -->
<g id="edge6" class="edge">
<title>Node6&#45;&gt;Node7</title>
<path fill="none" stroke="#63b8ff" d="M480.12,-165.34C469.25,-157.41 453.22,-145.72 440.37,-136.35"/>
<polygon fill="#63b8ff" stroke="#63b8ff" points="442.84,-133.09 432.7,-130.02 438.72,-138.75 442.84,-133.09"/>
</g>
<!-- Node7&#45;&gt;Node3 -->
<g id="edge7" class="edge">
<title>Node7&#45;&gt;Node3</title>
<path fill="none" stroke="#63b8ff" d="M454.13,-112.6C495.36,-104.7 566.55,-90.72 636.59,-74.86"/>
<polygon fill="#63b8ff" stroke="#63b8ff" points="636.94,-78.14 645.91,-72.5 635.38,-71.32 636.94,-78.14"/>
</g>
<!-- Node7&#45;&gt;Node4 -->
<g id="edge17" class="edge">
<title>Node7&#45;&gt;Node4</title>
<path fill="none" stroke="#63b8ff" d="M385.07,-115.78C323.92,-109.62 192.2,-95.34 71.62,-74.74"/>
<polygon fill="#63b8ff" stroke="#63b8ff" points="72.55,-71.17 62.1,-72.92 71.36,-78.07 72.55,-71.17"/>
</g>
<!-- Node8 -->
<g id="node8" class="node">
<title>Node8</title>
<g id="a_node8"><a xlink:title=" ">
<polygon fill="#e0e0e0" stroke="#999999" points="563.25,-74.5 515.75,-74.5 515.75,-55.25 563.25,-55.25 563.25,-74.5"/>
<text text-anchor="middle" x="539.5" y="-61" font-family="Helvetica,sans-Serif" font-size="10.00">stdint.h</text>
</a>
</g>
</g>
<!-- Node7&#45;&gt;Node8 -->
<g id="edge8" class="edge">
<title>Node7&#45;&gt;Node8</title>
<path fill="none" stroke="#63b8ff" d="M439.86,-110.09C458.82,-101.68 487.35,-89.02 509.02,-79.4"/>
<polygon fill="#63b8ff" stroke="#63b8ff" points="510.32,-82.21 518.04,-74.95 507.48,-75.81 510.32,-82.21"/>
</g>
<!-- Node9 -->
<g id="node9" class="node">
<title>Node9</title>
<g id="a_node9"><a xlink:title=" ">
<polygon fill="#e0e0e0" stroke="#999999" points="629.25,-74.5 581.75,-74.5 581.75,-55.25 629.25,-55.25 629.25,-74.5"/>
<text text-anchor="middle" x="605.5" y="-61" font-family="Helvetica,sans-Serif" font-size="10.00">string.h</text>
</a>
</g>
</g>
<!-- Node7&#45;&gt;Node9 -->
<g id="edge9" class="edge">
<title>Node7&#45;&gt;Node9</title>
<path fill="none" stroke="#63b8ff" d="M451.05,-110.09C484.35,-100.56 536.66,-85.58 571.02,-75.75"/>
<polygon fill="#63b8ff" stroke="#63b8ff" points="571.85,-78.86 580.5,-72.75 569.92,-72.13 571.85,-78.86"/>
</g>
<!-- Node10 -->
<g id="node10" class="node">
<title>Node10</title>
<g id="a_node10"><a xlink:title=" ">
<polygon fill="#e0e0e0" stroke="#999999" points="124.12,-74.5 78.88,-74.5 78.88,-55.25 124.12,-55.25 124.12,-74.5"/>
<text text-anchor="middle" x="101.5" y="-61" font-family="Helvetica,sans-Serif" font-size="10.00">atomic</text>
</a>
</g>
</g>
<!-- Node7&#45;&gt;Node10 -->
<g id="edge10" class="edge">
<title>Node7&#45;&gt;Node10</title>
<path fill="none" stroke="#63b8ff" d="M384.8,-115.06C332.56,-108.66 230.42,-95.02 135.13,-74.88"/>
<polygon fill="#63b8ff" stroke="#63b8ff" points="135.96,-71.26 125.45,-72.58 134.49,-78.1 135.96,-71.26"/>
</g>
<!-- Node11 -->
<g id="node11" class="node">
<title>Node11</title>
<g id="a_node11"><a xlink:title=" ">
<polygon fill="#e0e0e0" stroke="#999999" points="195.25,-74.5 141.75,-74.5 141.75,-55.25 195.25,-55.25 195.25,-74.5"/>
<text text-anchor="middle" x="168.5" y="-61" font-family="Helvetica,sans-Serif" font-size="10.00">compare</text>
</a>
</g>
</g>
<!-- Node7&#45;&gt;Node11 -->
<g id="edge11" class="edge">
<title>Node7&#45;&gt;Node11</title>
<path fill="none" stroke="#63b8ff" d="M384.8,-112.26C344.32,-104.18 275.11,-90.14 206.21,-74.83"/>
<polygon fill="#63b8ff" stroke="#63b8ff" points="207.13,-71.22 196.61,-72.46 205.6,-78.06 207.13,-71.22"/>
</g>
<!-- Node12 -->
<g id="node12" class="node">
<title>Node12</title>
<g id="a_node12"><a xlink:title=" ">
<polygon fill="#e0e0e0" stroke="#999999" points="269.38,-74.5 213.62,-74.5 213.62,-55.25 269.38,-55.25 269.38,-74.5"/>
<text text-anchor="middle" x="241.5" y="-61" font-family="Helvetica,sans-Serif" font-size="10.00">concepts</text>
</a>
</g>
</g>
<!-- Node7&#45;&gt;Node12 -->
<g id="edge12" class="edge">
<title>Node7&#45;&gt;Node12</title>
<path fill="none" stroke="#63b8ff" d="M389.3,-110.09C359.14,-101.07 312.67,-87.17 279.9,-77.36"/>
<polygon fill="#63b8ff" stroke="#63b8ff" points="281.37,-73.85 270.78,-74.34 279.36,-80.56 281.37,-73.85"/>
</g>
<!-- Node13 -->
<g id="node13" class="node">
<title>Node13</title>
<g id="a_node13"><a xlink:title=" ">
<polygon fill="#e0e0e0" stroke="#999999" points="333.5,-74.5 287.5,-74.5 287.5,-55.25 333.5,-55.25 333.5,-74.5"/>
<text text-anchor="middle" x="310.5" y="-61" font-family="Helvetica,sans-Serif" font-size="10.00">iterator</text>
</a>
</g>
</g>
<!-- Node7&#45;&gt;Node13 -->
<g id="edge13" class="edge">
<title>Node7&#45;&gt;Node13</title>
<path fill="none" stroke="#63b8ff" d="M401.01,-110.09C383.94,-101.75 358.34,-89.25 338.72,-79.66"/>
<polygon fill="#63b8ff" stroke="#63b8ff" points="340.6,-76.2 330.08,-74.95 337.53,-82.49 340.6,-76.2"/>
</g>
<!-- Node14 -->
<g id="node14" class="node">
<title>Node14</title>
<g id="a_node14"><a xlink:title=" ">
<polygon fill="#e0e0e0" stroke="#999999" points="391.12,-74.5 351.88,-74.5 351.88,-55.25 391.12,-55.25 391.12,-74.5"/>
<text text-anchor="middle" x="371.5" y="-61" font-family="Helvetica,sans-Serif" font-size="10.00">limits</text>
</a>
</g>
</g>
<!-- Node7&#45;&gt;Node14 -->
<g id="edge14" class="edge">
<title>Node7&#45;&gt;Node14</title>
<path fill="none" stroke="#63b8ff" d="M411.57,-110.33C404.87,-102.9 395.08,-92.04 386.86,-82.91"/>
<polygon fill="#63b8ff" stroke="#63b8ff" points="389.89,-80.94 380.6,-75.86 384.69,-85.63 389.89,-80.94"/>
</g>
<!-- Node15 -->
<g id="node15" class="node">
<title>Node15</title>
<g id="a_node15"><a xlink:title=" ">
<polygon fill="#e0e0e0" stroke="#999999" points="607.75,-19.25 557.25,-19.25 557.25,0 607.75,0 607.75,-19.25"/>
<text text-anchor="middle" x="582.5" y="-5.75" font-family="Helvetica,sans-Serif" font-size="10.00">memory</text>
</a>
</g>
</g>
<!-- Node7&#45;&gt;Node15 -->
<g id="edge15" class="edge">
<title>Node7&#45;&gt;Node15</title>
<path fill="none" stroke="#63b8ff" d="M419.61,-110.4C420.27,-96.76 423.53,-70.39 438.5,-55.25 466.98,-26.45 513.65,-16.16 546.11,-12.53"/>
<polygon fill="#63b8ff" stroke="#63b8ff" points="546.32,-15.93 555.94,-11.5 545.66,-8.96 546.32,-15.93"/>
</g>
<!-- Node16 -->
<g id="node16" class="node">
<title>Node16</title>
<g id="a_node16"><a xlink:title=" ">
<polygon fill="#e0e0e0" stroke="#999999" points="497.38,-74.5 447.62,-74.5 447.62,-55.25 497.38,-55.25 497.38,-74.5"/>
<text text-anchor="middle" x="472.5" y="-61" font-family="Helvetica,sans-Serif" font-size="10.00">optional</text>
</a>
</g>
</g>
<!-- Node7&#45;&gt;Node16 -->
<g id="edge16" class="edge">
<title>Node7&#45;&gt;Node16</title>
<path fill="none" stroke="#63b8ff" d="M428.25,-110.33C435.73,-102.82 446.68,-91.81 455.83,-82.63"/>
<polygon fill="#63b8ff" stroke="#63b8ff" points="457.98,-85.42 462.56,-75.86 453.02,-80.48 457.98,-85.42"/>
</g>
<!-- Node7&#45;&gt;Node17 -->
<g id="edge18" class="edge">
<title>Node7&#45;&gt;Node17</title>
<path fill="none" stroke="#63b8ff" d="M454.08,-114.47C506.22,-107.29 608.31,-92.64 704.78,-74.72"/>
<polygon fill="#63b8ff" stroke="#63b8ff" points="705.12,-78.03 714.31,-72.75 703.83,-71.15 705.12,-78.03"/>
</g>
<!-- Node17&#45;&gt;Node15 -->
<g id="edge19" class="edge">
<title>Node17&#45;&gt;Node15</title>
<path fill="none" stroke="#63b8ff" d="M717.85,-54.84C690.51,-45.91 648.53,-32.2 618.58,-22.41"/>
<polygon fill="#63b8ff" stroke="#63b8ff" points="619.73,-18.78 609.13,-19 617.55,-25.43 619.73,-18.78"/>
</g>
</g>
</svg>
