<?xml version="1.0" encoding="UTF-8" standalone="no"?>
<!DOCTYPE svg PUBLIC "-//W3C//DTD SVG 1.1//EN"
 "http://www.w3.org/Graphics/SVG/1.1/DTD/svg11.dtd">
<!-- Generated by graphviz version 8.0.5 (20230430.1635)
 -->
<!-- Title: include/v8&#45;embedder&#45;state&#45;scope.h Pages: 1 -->
<svg width="812pt" height="315pt"
 viewBox="0.00 0.00 812.11 314.75" xmlns="http://www.w3.org/2000/svg" xmlns:xlink="http://www.w3.org/1999/xlink">
<g id="graph0" class="graph" transform="scale(1 1) rotate(0) translate(4 310.75)">
<title>include/v8&#45;embedder&#45;state&#45;scope.h</title>
<!-- Node1 -->
<g id="node1" class="node">
<title>Node1</title>
<g id="a_node1"><a xlink:title=" ">
<polygon fill="#999999" stroke="#666666" points="650.75,-306.75 544.75,-306.75 544.75,-276.25 650.75,-276.25 650.75,-306.75"/>
<text text-anchor="start" x="552.75" y="-293.25" font-family="Helvetica,sans-Serif" font-size="10.00">include/v8&#45;embedder</text>
<text text-anchor="middle" x="597.75" y="-282" font-family="Helvetica,sans-Serif" font-size="10.00">&#45;state&#45;scope.h</text>
</a>
</g>
</g>
<!-- Node2 -->
<g id="node2" class="node">
<title>Node2</title>
<g id="a_node2"><a xlink:title=" ">
<polygon fill="#e0e0e0" stroke="#999999" points="643,-19.25 592.5,-19.25 592.5,0 643,0 643,-19.25"/>
<text text-anchor="middle" x="617.75" y="-5.75" font-family="Helvetica,sans-Serif" font-size="10.00">memory</text>
</a>
</g>
</g>
<!-- Node1&#45;&gt;Node2 -->
<g id="edge1" class="edge">
<title>Node1&#45;&gt;Node2</title>
<path fill="none" stroke="#63b8ff" d="M651.07,-284.19C712.11,-273.64 803.75,-246.19 803.75,-176.38 803.75,-176.38 803.75,-176.38 803.75,-119.12 803.75,-89.38 805.21,-75.85 783.75,-55.25 748.83,-21.72 691.51,-12.77 654.2,-10.71"/>
<polygon fill="#63b8ff" stroke="#63b8ff" points="654.44,-7.17 644.31,-10.27 654.16,-14.17 654.44,-7.17"/>
</g>
<!-- Node3 -->
<g id="node3" class="node">
<title>Node3</title>
<g id="a_node3"><a xlink:href="v8-internal_8h.html" target="_top" xlink:title=" ">
<polygon fill="white" stroke="#666666" points="459,-129.75 390.5,-129.75 390.5,-110.5 459,-110.5 459,-129.75"/>
<text text-anchor="middle" x="424.75" y="-116.25" font-family="Helvetica,sans-Serif" font-size="10.00">v8&#45;internal.h</text>
</a>
</g>
</g>
<!-- Node1&#45;&gt;Node3 -->
<g id="edge2" class="edge">
<title>Node1&#45;&gt;Node3</title>
<path fill="none" stroke="#63b8ff" d="M563.86,-275.75C528.78,-258.79 474.86,-227.7 443.75,-185 434.27,-171.98 429.48,-154.23 427.08,-140.75"/>
<polygon fill="#63b8ff" stroke="#63b8ff" points="430.45,-140.61 425.54,-131.22 423.53,-141.62 430.45,-140.61"/>
</g>
<!-- Node15 -->
<g id="node15" class="node">
<title>Node15</title>
<g id="a_node15"><a xlink:href="v8-local-handle_8h.html" target="_top" xlink:title=" ">
<polygon fill="white" stroke="#666666" points="642.12,-240.25 553.38,-240.25 553.38,-221 642.12,-221 642.12,-240.25"/>
<text text-anchor="middle" x="597.75" y="-226.75" font-family="Helvetica,sans-Serif" font-size="10.00">v8&#45;local&#45;handle.h</text>
</a>
</g>
</g>
<!-- Node1&#45;&gt;Node15 -->
<g id="edge16" class="edge">
<title>Node1&#45;&gt;Node15</title>
<path fill="none" stroke="#63b8ff" d="M597.75,-275.95C597.75,-268.62 597.75,-259.62 597.75,-251.66"/>
<polygon fill="#63b8ff" stroke="#63b8ff" points="601.25,-251.7 597.75,-241.7 594.25,-251.7 601.25,-251.7"/>
</g>
<!-- Node3&#45;&gt;Node2 -->
<g id="edge11" class="edge">
<title>Node3&#45;&gt;Node2</title>
<path fill="none" stroke="#63b8ff" d="M459.26,-119.8C498.24,-118.65 561.12,-110.73 598.75,-74.5 610.73,-62.97 615.25,-44.24 616.91,-30.04"/>
<polygon fill="#63b8ff" stroke="#63b8ff" points="620.44,-30.68 617.73,-20.44 613.47,-30.14 620.44,-30.68"/>
</g>
<!-- Node4 -->
<g id="node4" class="node">
<title>Node4</title>
<g id="a_node4"><a xlink:title=" ">
<polygon fill="#e0e0e0" stroke="#999999" points="696,-74.5 645.5,-74.5 645.5,-55.25 696,-55.25 696,-74.5"/>
<text text-anchor="middle" x="670.75" y="-61" font-family="Helvetica,sans-Serif" font-size="10.00">stddef.h</text>
</a>
</g>
</g>
<!-- Node3&#45;&gt;Node4 -->
<g id="edge3" class="edge">
<title>Node3&#45;&gt;Node4</title>
<path fill="none" stroke="#63b8ff" d="M459.19,-111.76C500.28,-102.96 571.05,-87.75 631.75,-74.5 632.7,-74.29 633.66,-74.08 634.63,-73.87"/>
<polygon fill="#63b8ff" stroke="#63b8ff" points="635.15,-77.12 644.16,-71.55 633.64,-70.28 635.15,-77.12"/>
</g>
<!-- Node5 -->
<g id="node5" class="node">
<title>Node5</title>
<g id="a_node5"><a xlink:title=" ">
<polygon fill="#e0e0e0" stroke="#999999" points="589.5,-74.5 542,-74.5 542,-55.25 589.5,-55.25 589.5,-74.5"/>
<text text-anchor="middle" x="565.75" y="-61" font-family="Helvetica,sans-Serif" font-size="10.00">stdint.h</text>
</a>
</g>
</g>
<!-- Node3&#45;&gt;Node5 -->
<g id="edge4" class="edge">
<title>Node3&#45;&gt;Node5</title>
<path fill="none" stroke="#63b8ff" d="M448.67,-110.09C471.46,-101.49 506,-88.44 531.66,-78.75"/>
<polygon fill="#63b8ff" stroke="#63b8ff" points="532.6,-81.76 540.71,-74.95 530.12,-75.21 532.6,-81.76"/>
</g>
<!-- Node6 -->
<g id="node6" class="node">
<title>Node6</title>
<g id="a_node6"><a xlink:title=" ">
<polygon fill="#e0e0e0" stroke="#999999" points="47.5,-74.5 0,-74.5 0,-55.25 47.5,-55.25 47.5,-74.5"/>
<text text-anchor="middle" x="23.75" y="-61" font-family="Helvetica,sans-Serif" font-size="10.00">string.h</text>
</a>
</g>
</g>
<!-- Node3&#45;&gt;Node6 -->
<g id="edge5" class="edge">
<title>Node3&#45;&gt;Node6</title>
<path fill="none" stroke="#63b8ff" d="M390.15,-116.6C326.3,-111.59 185.51,-98.87 58.46,-74.8"/>
<polygon fill="#63b8ff" stroke="#63b8ff" points="59.26,-71.2 48.78,-72.75 57.93,-78.07 59.26,-71.2"/>
</g>
<!-- Node7 -->
<g id="node7" class="node">
<title>Node7</title>
<g id="a_node7"><a xlink:title=" ">
<polygon fill="#e0e0e0" stroke="#999999" points="110.38,-74.5 65.12,-74.5 65.12,-55.25 110.38,-55.25 110.38,-74.5"/>
<text text-anchor="middle" x="87.75" y="-61" font-family="Helvetica,sans-Serif" font-size="10.00">atomic</text>
</a>
</g>
</g>
<!-- Node3&#45;&gt;Node7 -->
<g id="edge6" class="edge">
<title>Node3&#45;&gt;Node7</title>
<path fill="none" stroke="#63b8ff" d="M390.08,-115.52C334.98,-109.47 223.89,-96.01 121.24,-74.82"/>
<polygon fill="#63b8ff" stroke="#63b8ff" points="122.2,-71.23 111.69,-72.61 120.76,-78.08 122.2,-71.23"/>
</g>
<!-- Node8 -->
<g id="node8" class="node">
<title>Node8</title>
<g id="a_node8"><a xlink:title=" ">
<polygon fill="#e0e0e0" stroke="#999999" points="181.5,-74.5 128,-74.5 128,-55.25 181.5,-55.25 181.5,-74.5"/>
<text text-anchor="middle" x="154.75" y="-61" font-family="Helvetica,sans-Serif" font-size="10.00">compare</text>
</a>
</g>
</g>
<!-- Node3&#45;&gt;Node8 -->
<g id="edge7" class="edge">
<title>Node3&#45;&gt;Node8</title>
<path fill="none" stroke="#63b8ff" d="M390.15,-113.05C346.45,-105.26 268.7,-91.02 192.57,-74.81"/>
<polygon fill="#63b8ff" stroke="#63b8ff" points="193.36,-71.18 182.85,-72.51 191.89,-78.03 193.36,-71.18"/>
</g>
<!-- Node9 -->
<g id="node9" class="node">
<title>Node9</title>
<g id="a_node9"><a xlink:title=" ">
<polygon fill="#e0e0e0" stroke="#999999" points="255.62,-74.5 199.88,-74.5 199.88,-55.25 255.62,-55.25 255.62,-74.5"/>
<text text-anchor="middle" x="227.75" y="-61" font-family="Helvetica,sans-Serif" font-size="10.00">concepts</text>
</a>
</g>
</g>
<!-- Node3&#45;&gt;Node9 -->
<g id="edge8" class="edge">
<title>Node3&#45;&gt;Node9</title>
<path fill="none" stroke="#63b8ff" d="M391.33,-110.09C356.66,-100.72 302.52,-86.09 266.12,-76.25"/>
<polygon fill="#63b8ff" stroke="#63b8ff" points="267.47,-72.71 256.9,-73.48 265.64,-79.47 267.47,-72.71"/>
</g>
<!-- Node10 -->
<g id="node10" class="node">
<title>Node10</title>
<g id="a_node10"><a xlink:title=" ">
<polygon fill="#e0e0e0" stroke="#999999" points="319.75,-74.5 273.75,-74.5 273.75,-55.25 319.75,-55.25 319.75,-74.5"/>
<text text-anchor="middle" x="296.75" y="-61" font-family="Helvetica,sans-Serif" font-size="10.00">iterator</text>
</a>
</g>
</g>
<!-- Node3&#45;&gt;Node10 -->
<g id="edge9" class="edge">
<title>Node3&#45;&gt;Node10</title>
<path fill="none" stroke="#63b8ff" d="M403.04,-110.09C382.63,-101.6 351.83,-88.79 328.63,-79.14"/>
<polygon fill="#63b8ff" stroke="#63b8ff" points="330.15,-75.56 319.57,-74.95 327.46,-82.03 330.15,-75.56"/>
</g>
<!-- Node11 -->
<g id="node11" class="node">
<title>Node11</title>
<g id="a_node11"><a xlink:title=" ">
<polygon fill="#e0e0e0" stroke="#999999" points="377.38,-74.5 338.12,-74.5 338.12,-55.25 377.38,-55.25 377.38,-74.5"/>
<text text-anchor="middle" x="357.75" y="-61" font-family="Helvetica,sans-Serif" font-size="10.00">limits</text>
</a>
</g>
</g>
<!-- Node3&#45;&gt;Node11 -->
<g id="edge10" class="edge">
<title>Node3&#45;&gt;Node11</title>
<path fill="none" stroke="#63b8ff" d="M413.38,-110.09C403.51,-102.24 388.98,-90.7 377.25,-81.37"/>
<polygon fill="#63b8ff" stroke="#63b8ff" points="379.95,-78.26 369.95,-74.77 375.6,-83.74 379.95,-78.26"/>
</g>
<!-- Node12 -->
<g id="node12" class="node">
<title>Node12</title>
<g id="a_node12"><a xlink:title=" ">
<polygon fill="#e0e0e0" stroke="#999999" points="445.62,-74.5 395.88,-74.5 395.88,-55.25 445.62,-55.25 445.62,-74.5"/>
<text text-anchor="middle" x="420.75" y="-61" font-family="Helvetica,sans-Serif" font-size="10.00">optional</text>
</a>
</g>
</g>
<!-- Node3&#45;&gt;Node12 -->
<g id="edge12" class="edge">
<title>Node3&#45;&gt;Node12</title>
<path fill="none" stroke="#63b8ff" d="M424.09,-110.33C423.59,-103.67 422.88,-94.24 422.25,-85.78"/>
<polygon fill="#63b8ff" stroke="#63b8ff" points="425.66,-85.57 421.42,-75.86 418.68,-86.09 425.66,-85.57"/>
</g>
<!-- Node13 -->
<g id="node13" class="node">
<title>Node13</title>
<g id="a_node13"><a xlink:title=" ">
<polygon fill="#e0e0e0" stroke="#999999" points="775.25,-74.5 714.25,-74.5 714.25,-55.25 775.25,-55.25 775.25,-74.5"/>
<text text-anchor="middle" x="744.75" y="-61" font-family="Helvetica,sans-Serif" font-size="10.00">type_traits</text>
</a>
</g>
</g>
<!-- Node3&#45;&gt;Node13 -->
<g id="edge13" class="edge">
<title>Node3&#45;&gt;Node13</title>
<path fill="none" stroke="#63b8ff" d="M459.34,-114.23C510.41,-106.87 609.22,-92.11 703.23,-74.7"/>
<polygon fill="#63b8ff" stroke="#63b8ff" points="703.59,-78 712.77,-72.73 702.3,-71.12 703.59,-78"/>
</g>
<!-- Node14 -->
<g id="node14" class="node">
<title>Node14</title>
<g id="a_node14"><a xlink:href="v8config_8h.html" target="_top" xlink:title=" ">
<polygon fill="white" stroke="#666666" points="523.5,-74.5 464,-74.5 464,-55.25 523.5,-55.25 523.5,-74.5"/>
<text text-anchor="middle" x="493.75" y="-61" font-family="Helvetica,sans-Serif" font-size="10.00">v8config.h</text>
</a>
</g>
</g>
<!-- Node3&#45;&gt;Node14 -->
<g id="edge14" class="edge">
<title>Node3&#45;&gt;Node14</title>
<path fill="none" stroke="#63b8ff" d="M436.45,-110.09C446.63,-102.24 461.58,-90.7 473.67,-81.37"/>
<polygon fill="#63b8ff" stroke="#63b8ff" points="475.44,-83.66 481.22,-74.77 471.16,-78.11 475.44,-83.66"/>
</g>
<!-- Node14&#45;&gt;Node2 -->
<g id="edge15" class="edge">
<title>Node14&#45;&gt;Node2</title>
<path fill="none" stroke="#63b8ff" d="M514.78,-54.84C534.47,-46.39 564.13,-33.65 586.56,-24.02"/>
<polygon fill="#63b8ff" stroke="#63b8ff" points="587.8,-26.86 595.61,-19.7 585.04,-20.43 587.8,-26.86"/>
</g>
<!-- Node15&#45;&gt;Node3 -->
<g id="edge22" class="edge">
<title>Node15&#45;&gt;Node3</title>
<path fill="none" stroke="#63b8ff" d="M585.36,-220.57C567.77,-207.83 534.38,-184.13 504.75,-165.75 487.46,-155.02 467.46,-143.87 451.79,-135.39"/>
<polygon fill="#63b8ff" stroke="#63b8ff" points="453.65,-131.89 443.18,-130.25 450.34,-138.06 453.65,-131.89"/>
</g>
<!-- Node15&#45;&gt;Node4 -->
<g id="edge17" class="edge">
<title>Node15&#45;&gt;Node4</title>
<path fill="none" stroke="#63b8ff" d="M614.21,-220.53C626.62,-212.76 642.94,-200.42 651.75,-185 669.62,-153.73 672.05,-110.73 671.73,-85.86"/>
<polygon fill="#63b8ff" stroke="#63b8ff" points="675.2,-85.83 671.39,-75.95 668.2,-86.05 675.2,-85.83"/>
</g>
<!-- Node15&#45;&gt;Node13 -->
<g id="edge18" class="edge">
<title>Node15&#45;&gt;Node13</title>
<path fill="none" stroke="#63b8ff" d="M617.76,-220.61C633.48,-212.81 655.25,-200.38 670.75,-185 701.15,-154.82 724.72,-109.85 736.49,-84.68"/>
<polygon fill="#63b8ff" stroke="#63b8ff" points="739.97,-86.47 740.92,-75.91 733.6,-83.57 739.97,-86.47"/>
</g>
<!-- Node16 -->
<g id="node16" class="node">
<title>Node16</title>
<g id="a_node16"><a xlink:title=" ">
<polygon fill="#e0e0e0" stroke="#999999" points="496.25,-185 453.25,-185 453.25,-165.75 496.25,-165.75 496.25,-185"/>
<text text-anchor="middle" x="474.75" y="-171.5" font-family="Helvetica,sans-Serif" font-size="10.00">vector</text>
</a>
</g>
</g>
<!-- Node15&#45;&gt;Node16 -->
<g id="edge19" class="edge">
<title>Node15&#45;&gt;Node16</title>
<path fill="none" stroke="#63b8ff" d="M576.88,-220.59C557.36,-212.14 527.94,-199.4 505.69,-189.77"/>
<polygon fill="#63b8ff" stroke="#63b8ff" points="507.29,-186.21 496.72,-185.45 504.5,-192.64 507.29,-186.21"/>
</g>
<!-- Node17 -->
<g id="node17" class="node">
<title>Node17</title>
<g id="a_node17"><a xlink:href="v8-handle-base_8h.html" target="_top" xlink:title=" ">
<polygon fill="white" stroke="#666666" points="642.5,-185 553,-185 553,-165.75 642.5,-165.75 642.5,-185"/>
<text text-anchor="middle" x="597.75" y="-171.5" font-family="Helvetica,sans-Serif" font-size="10.00">v8&#45;handle&#45;base.h</text>
</a>
</g>
</g>
<!-- Node15&#45;&gt;Node17 -->
<g id="edge20" class="edge">
<title>Node15&#45;&gt;Node17</title>
<path fill="none" stroke="#63b8ff" d="M597.75,-220.83C597.75,-214.17 597.75,-204.74 597.75,-196.28"/>
<polygon fill="#63b8ff" stroke="#63b8ff" points="601.25,-196.36 597.75,-186.36 594.25,-196.36 601.25,-196.36"/>
</g>
<!-- Node17&#45;&gt;Node3 -->
<g id="edge21" class="edge">
<title>Node17&#45;&gt;Node3</title>
<path fill="none" stroke="#63b8ff" d="M568.4,-165.34C539.82,-156.54 496.17,-143.11 464.49,-133.36"/>
<polygon fill="#63b8ff" stroke="#63b8ff" points="465.83,-129.8 455.24,-130.2 463.77,-136.49 465.83,-129.8"/>
</g>
</g>
</svg>
