<?xml version="1.0" encoding="UTF-8" standalone="no"?>
<!DOCTYPE svg PUBLIC "-//W3C//DTD SVG 1.1//EN"
 "http://www.w3.org/Graphics/SVG/1.1/DTD/svg11.dtd">
<!-- Generated by graphviz version 8.0.5 (20230430.1635)
 -->
<!-- Title: include/v8&#45;handle&#45;base.h Pages: 1 -->
<svg width="2931pt" height="946pt"
 viewBox="0.00 0.00 2930.62 946.00" xmlns="http://www.w3.org/2000/svg" xmlns:xlink="http://www.w3.org/1999/xlink">
<g id="graph0" class="graph" transform="scale(1 1) rotate(0) translate(4 942)">
<title>include/v8&#45;handle&#45;base.h</title>
<!-- Node1 -->
<g id="node1" class="node">
<title>Node1</title>
<g id="a_node1"><a xlink:title=" ">
<polygon fill="#999999" stroke="#666666" points="1225.62,-938 1102.38,-938 1102.38,-918.75 1225.62,-918.75 1225.62,-938"/>
<text text-anchor="middle" x="1164" y="-924.5" font-family="Helvetica,sans-Serif" font-size="10.00">include/v8&#45;handle&#45;base.h</text>
</a>
</g>
</g>
<!-- Node2 -->
<g id="node2" class="node">
<title>Node2</title>
<g id="a_node2"><a xlink:href="v8-local-handle_8h.html" target="_top" xlink:title=" ">
<polygon fill="white" stroke="#666666" points="1225.25,-882.75 1102.75,-882.75 1102.75,-863.5 1225.25,-863.5 1225.25,-882.75"/>
<text text-anchor="middle" x="1164" y="-869.25" font-family="Helvetica,sans-Serif" font-size="10.00">include/v8&#45;local&#45;handle.h</text>
</a>
</g>
</g>
<!-- Node1&#45;&gt;Node2 -->
<g id="edge1" class="edge">
<title>Node1&#45;&gt;Node2</title>
<path fill="none" stroke="#63b8ff" d="M1164,-907.71C1164,-899.27 1164,-889.83 1164,-883.11"/>
<polygon fill="#63b8ff" stroke="#63b8ff" points="1160.5,-907.58 1164,-917.58 1167.5,-907.58 1160.5,-907.58"/>
</g>
<!-- Node3 -->
<g id="node3" class="node">
<title>Node3</title>
<g id="a_node3"><a xlink:href="v8-array-buffer_8h.html" target="_top" xlink:title=" ">
<polygon fill="white" stroke="#666666" points="1218.38,-567.12 1099.62,-567.12 1099.62,-547.88 1218.38,-547.88 1218.38,-567.12"/>
<text text-anchor="middle" x="1159" y="-553.62" font-family="Helvetica,sans-Serif" font-size="10.00">include/v8&#45;array&#45;buffer.h</text>
</a>
</g>
</g>
<!-- Node2&#45;&gt;Node3 -->
<g id="edge2" class="edge">
<title>Node2&#45;&gt;Node3</title>
<path fill="none" stroke="#63b8ff" d="M1164,-852.4C1164,-828.67 1164,-787.61 1164,-752.38 1164,-752.38 1164,-752.38 1164,-689.5 1164,-643.53 1160.89,-588.54 1159.57,-567.39"/>
<polygon fill="#63b8ff" stroke="#63b8ff" points="1160.5,-852.11 1164,-862.11 1167.5,-852.11 1160.5,-852.11"/>
</g>
<!-- Node4 -->
<g id="node4" class="node">
<title>Node4</title>
<g id="a_node4"><a xlink:href="v8-isolate_8h.html" target="_top" xlink:title=" ">
<polygon fill="white" stroke="#666666" points="1292.62,-268.38 1193.38,-268.38 1193.38,-249.12 1292.62,-249.12 1292.62,-268.38"/>
<text text-anchor="middle" x="1243" y="-254.88" font-family="Helvetica,sans-Serif" font-size="10.00">include/v8&#45;isolate.h</text>
</a>
</g>
</g>
<!-- Node2&#45;&gt;Node4 -->
<g id="edge106" class="edge">
<title>Node2&#45;&gt;Node4</title>
<path fill="none" stroke="#63b8ff" d="M1154.2,-853.59C1142.94,-830.54 1126,-789.66 1126,-752.38 1126,-752.38 1126,-752.38 1126,-689.5 1126,-652.63 1122.31,-642.29 1107,-608.75 1098.8,-590.8 1087.07,-591.53 1081,-572.75 1076.83,-559.85 1073.61,-553.62 1081,-542.25 1102.47,-509.22 1130.17,-529.47 1162,-506.25 1195.44,-481.85 1224,-478.14 1224,-436.75 1224,-436.75 1224,-436.75 1224,-373.88 1224,-334.31 1235.25,-288.05 1240.44,-268.84"/>
<polygon fill="#63b8ff" stroke="#63b8ff" points="1151.39,-854.79 1159.03,-862.12 1157.63,-851.62 1151.39,-854.79"/>
</g>
<!-- Node7 -->
<g id="node7" class="node">
<title>Node7</title>
<g id="a_node7"><a xlink:href="v8_8h.html" target="_top" xlink:title=" ">
<polygon fill="white" stroke="#666666" points="1416.88,-19.25 1349.12,-19.25 1349.12,0 1416.88,0 1416.88,-19.25"/>
<text text-anchor="middle" x="1383" y="-5.75" font-family="Helvetica,sans-Serif" font-size="10.00">include/v8.h</text>
</a>
</g>
</g>
<!-- Node2&#45;&gt;Node7 -->
<g id="edge140" class="edge">
<title>Node2&#45;&gt;Node7</title>
<path fill="none" stroke="#63b8ff" d="M1091.62,-871.34C868.92,-868.61 203.38,-857.98 111,-827.5 54.43,-808.84 0,-811.95 0,-752.38 0,-752.38 0,-752.38 0,-124.75 0,-65.79 56.56,-72.29 113,-55.25 234.18,-18.66 1158.77,-11.81 1348.89,-10.78"/>
<polygon fill="#63b8ff" stroke="#63b8ff" points="1091.47,-874.85 1101.52,-871.47 1091.56,-867.85 1091.47,-874.85"/>
</g>
<!-- Node8 -->
<g id="node8" class="node">
<title>Node8</title>
<g id="a_node8"><a xlink:href="v8-inspector_8h.html" target="_top" xlink:title=" ">
<polygon fill="white" stroke="#666666" points="792.25,-201.88 681.75,-201.88 681.75,-182.62 792.25,-182.62 792.25,-201.88"/>
<text text-anchor="middle" x="737" y="-188.38" font-family="Helvetica,sans-Serif" font-size="10.00">include/v8&#45;inspector.h</text>
</a>
</g>
</g>
<!-- Node2&#45;&gt;Node8 -->
<g id="edge105" class="edge">
<title>Node2&#45;&gt;Node8</title>
<path fill="none" stroke="#63b8ff" d="M1091.33,-872.26C891.8,-872.11 345.64,-867.95 276,-827.5 241.74,-807.6 228,-792 228,-752.38 228,-752.38 228,-752.38 228,-556.5 228,-329.06 568.88,-230.6 692.72,-202.34"/>
<polygon fill="#63b8ff" stroke="#63b8ff" points="1091.27,-875.76 1101.27,-872.27 1091.27,-868.76 1091.27,-875.76"/>
</g>
<!-- Node10 -->
<g id="node10" class="node">
<title>Node10</title>
<g id="a_node10"><a xlink:href="v8-metrics_8h.html" target="_top" xlink:title=" ">
<polygon fill="white" stroke="#666666" points="511.5,-201.88 408.5,-201.88 408.5,-182.62 511.5,-182.62 511.5,-201.88"/>
<text text-anchor="middle" x="460" y="-188.38" font-family="Helvetica,sans-Serif" font-size="10.00">include/v8&#45;metrics.h</text>
</a>
</g>
</g>
<!-- Node2&#45;&gt;Node10 -->
<g id="edge109" class="edge">
<title>Node2&#45;&gt;Node10</title>
<path fill="none" stroke="#63b8ff" d="M1091.61,-872.5C886.03,-873.03 308.82,-870.63 236,-827.5 202.31,-807.55 190,-791.53 190,-752.38 190,-752.38 190,-752.38 190,-556.5 190,-383.24 390.31,-238.96 445.86,-202.27"/>
<polygon fill="#63b8ff" stroke="#63b8ff" points="1091.58,-876 1101.57,-872.47 1091.56,-869 1091.58,-876"/>
</g>
<!-- Node11 -->
<g id="node11" class="node">
<title>Node11</title>
<g id="a_node11"><a xlink:href="v8-snapshot_8h.html" target="_top" xlink:title=" ">
<polygon fill="white" stroke="#666666" points="340.25,-201.88 229.75,-201.88 229.75,-182.62 340.25,-182.62 340.25,-201.88"/>
<text text-anchor="middle" x="285" y="-188.38" font-family="Helvetica,sans-Serif" font-size="10.00">include/v8&#45;snapshot.h</text>
</a>
</g>
</g>
<!-- Node2&#45;&gt;Node11 -->
<g id="edge126" class="edge">
<title>Node2&#45;&gt;Node11</title>
<path fill="none" stroke="#63b8ff" d="M1091.66,-871.17C872.9,-867.97 231.12,-856.18 197,-827.5 126.43,-768.17 152,-717.2 152,-625 152,-625 152,-625 152,-373.88 152,-293.65 238.12,-225.58 271.76,-202.05"/>
<polygon fill="#63b8ff" stroke="#63b8ff" points="1091.33,-874.68 1101.38,-871.33 1091.43,-867.68 1091.33,-874.68"/>
</g>
<!-- Node12 -->
<g id="node12" class="node">
<title>Node12</title>
<g id="a_node12"><a xlink:href="v8-context_8h.html" target="_top" xlink:title=" ">
<polygon fill="white" stroke="#666666" points="243.12,-135.38 140.88,-135.38 140.88,-116.12 243.12,-116.12 243.12,-135.38"/>
<text text-anchor="middle" x="192" y="-121.88" font-family="Helvetica,sans-Serif" font-size="10.00">include/v8&#45;context.h</text>
</a>
</g>
</g>
<!-- Node2&#45;&gt;Node12 -->
<g id="edge39" class="edge">
<title>Node2&#45;&gt;Node12</title>
<path fill="none" stroke="#63b8ff" d="M1091.4,-871.14C867.84,-867.82 202.59,-855.59 166,-827.5 143.44,-810.18 114,-674.4 114,-625 114,-625 114,-625 114,-257.75 114,-205.34 160.66,-155.64 181.8,-135.81"/>
<polygon fill="#63b8ff" stroke="#63b8ff" points="1091.29,-874.65 1101.34,-871.3 1091.4,-867.66 1091.29,-874.65"/>
</g>
<!-- Node13 -->
<g id="node13" class="node">
<title>Node13</title>
<g id="a_node13"><a xlink:href="v8-proxy_8h.html" target="_top" xlink:title=" ">
<polygon fill="white" stroke="#666666" points="313.62,-74.5 220.38,-74.5 220.38,-55.25 313.62,-55.25 313.62,-74.5"/>
<text text-anchor="middle" x="267" y="-61" font-family="Helvetica,sans-Serif" font-size="10.00">include/v8&#45;proxy.h</text>
</a>
</g>
</g>
<!-- Node2&#45;&gt;Node13 -->
<g id="edge123" class="edge">
<title>Node2&#45;&gt;Node13</title>
<path fill="none" stroke="#63b8ff" d="M1091.8,-871.29C865.47,-868.38 182.69,-857.17 146,-827.5 49.94,-749.82 76,-682.04 76,-558.5 76,-558.5 76,-558.5 76,-191.25 76,-122.23 164.24,-89.12 220.76,-74.98"/>
<polygon fill="#63b8ff" stroke="#63b8ff" points="1091.5,-874.8 1101.55,-871.43 1091.59,-867.8 1091.5,-874.8"/>
</g>
<!-- Node14 -->
<g id="node14" class="node">
<title>Node14</title>
<g id="a_node14"><a xlink:href="v8-typed-array_8h.html" target="_top" xlink:title=" ">
<polygon fill="white" stroke="#666666" points="990,-506.25 872,-506.25 872,-487 990,-487 990,-506.25"/>
<text text-anchor="middle" x="931" y="-492.75" font-family="Helvetica,sans-Serif" font-size="10.00">include/v8&#45;typed&#45;array.h</text>
</a>
</g>
</g>
<!-- Node2&#45;&gt;Node14 -->
<g id="edge135" class="edge">
<title>Node2&#45;&gt;Node14</title>
<path fill="none" stroke="#63b8ff" d="M1124.82,-859.11C1107.2,-851.84 1087.03,-841.41 1072,-827.5 1014.47,-774.26 1028.54,-739.04 983,-675.25 970.73,-658.06 961.63,-658.04 952,-639.25 928.65,-593.68 929.28,-529.74 930.42,-506.51"/>
<polygon fill="#63b8ff" stroke="#63b8ff" points="1123.25,-862.65 1133.84,-863.03 1125.8,-856.13 1123.25,-862.65"/>
</g>
<!-- Node15 -->
<g id="node15" class="node">
<title>Node15</title>
<g id="a_node15"><a xlink:href="v8-fast-api-calls_8h.html" target="_top" xlink:title=" ">
<polygon fill="white" stroke="#666666" points="617.75,-451 522.25,-451 522.25,-420.5 617.75,-420.5 617.75,-451"/>
<text text-anchor="start" x="530.25" y="-437.5" font-family="Helvetica,sans-Serif" font-size="10.00">include/v8&#45;fast&#45;api</text>
<text text-anchor="middle" x="570" y="-426.25" font-family="Helvetica,sans-Serif" font-size="10.00">&#45;calls.h</text>
</a>
</g>
</g>
<!-- Node2&#45;&gt;Node15 -->
<g id="edge101" class="edge">
<title>Node2&#45;&gt;Node15</title>
<path fill="none" stroke="#63b8ff" d="M1091.67,-871.61C919.18,-869.83 493.98,-861.95 440,-827.5 306.51,-742.3 501.34,-512.01 556.28,-451.49"/>
<polygon fill="#63b8ff" stroke="#63b8ff" points="1091.38,-875.12 1101.41,-871.72 1091.45,-868.12 1091.38,-875.12"/>
</g>
<!-- Node16 -->
<g id="node16" class="node">
<title>Node16</title>
<g id="a_node16"><a xlink:href="v8-callbacks_8h.html" target="_top" xlink:title=" ">
<polygon fill="white" stroke="#666666" points="1120,-506.25 1008,-506.25 1008,-487 1120,-487 1120,-506.25"/>
<text text-anchor="middle" x="1064" y="-492.75" font-family="Helvetica,sans-Serif" font-size="10.00">include/v8&#45;callbacks.h</text>
</a>
</g>
</g>
<!-- Node2&#45;&gt;Node16 -->
<g id="edge21" class="edge">
<title>Node2&#45;&gt;Node16</title>
<path fill="none" stroke="#63b8ff" d="M1135.81,-857.81C1122.78,-850.16 1107.83,-839.77 1097,-827.5 1046.96,-770.8 1068.2,-734.34 1021,-675.25 1005.23,-655.51 992.75,-659.01 977,-639.25 956.44,-613.45 951.53,-604.87 944,-572.75 940.91,-559.55 936.26,-553.38 944,-542.25 958.46,-521.44 983.84,-510.32 1007.54,-504.38"/>
<polygon fill="#63b8ff" stroke="#63b8ff" points="1133.86,-861.29 1144.3,-863.12 1137.28,-855.19 1133.86,-861.29"/>
</g>
<!-- Node17 -->
<g id="node17" class="node">
<title>Node17</title>
<g id="a_node17"><a xlink:href="v8-message_8h.html" target="_top" xlink:title=" ">
<polygon fill="white" stroke="#666666" points="906.25,-445.38 795.75,-445.38 795.75,-426.12 906.25,-426.12 906.25,-445.38"/>
<text text-anchor="middle" x="851" y="-431.88" font-family="Helvetica,sans-Serif" font-size="10.00">include/v8&#45;message.h</text>
</a>
</g>
</g>
<!-- Node2&#45;&gt;Node17 -->
<g id="edge108" class="edge">
<title>Node2&#45;&gt;Node17</title>
<path fill="none" stroke="#63b8ff" d="M1091.78,-864.67C1039.5,-857.85 974.69,-845.95 955,-827.5 903.69,-779.42 958.16,-728.29 912,-675.25 885.87,-645.23 851.76,-672.57 830,-639.25 788.45,-575.63 831.5,-476.04 846.36,-445.77"/>
<polygon fill="#63b8ff" stroke="#63b8ff" points="1091.03,-868.23 1101.39,-866.01 1091.91,-861.29 1091.03,-868.23"/>
</g>
<!-- Node18 -->
<g id="node18" class="node">
<title>Node18</title>
<g id="a_node18"><a xlink:href="v8-function_8h.html" target="_top" xlink:title=" ">
<polygon fill="white" stroke="#666666" points="1751.62,-384.5 1646.38,-384.5 1646.38,-365.25 1751.62,-365.25 1751.62,-384.5"/>
<text text-anchor="middle" x="1699" y="-371" font-family="Helvetica,sans-Serif" font-size="10.00">include/v8&#45;function.h</text>
</a>
</g>
</g>
<!-- Node2&#45;&gt;Node18 -->
<g id="edge104" class="edge">
<title>Node2&#45;&gt;Node18</title>
<path fill="none" stroke="#63b8ff" d="M1236.26,-871.9C1390.15,-870.69 1745.49,-863.93 1860,-827.5 1920.68,-808.2 1982,-816.05 1982,-752.38 1982,-752.38 1982,-752.38 1982,-623 1982,-586.13 1984.42,-572.26 1963,-542.25 1901.48,-456.04 1779.96,-404.47 1725.96,-384.91"/>
<polygon fill="#63b8ff" stroke="#63b8ff" points="1236.51,-868.4 1226.54,-871.97 1236.56,-875.4 1236.51,-868.4"/>
</g>
<!-- Node19 -->
<g id="node19" class="node">
<title>Node19</title>
<g id="a_node19"><a xlink:href="v8-json_8h.html" target="_top" xlink:title=" ">
<polygon fill="white" stroke="#666666" points="584.38,-384.5 495.62,-384.5 495.62,-365.25 584.38,-365.25 584.38,-384.5"/>
<text text-anchor="middle" x="540" y="-371" font-family="Helvetica,sans-Serif" font-size="10.00">include/v8&#45;json.h</text>
</a>
</g>
</g>
<!-- Node2&#45;&gt;Node19 -->
<g id="edge107" class="edge">
<title>Node2&#45;&gt;Node19</title>
<path fill="none" stroke="#63b8ff" d="M1091.48,-871.82C899.44,-870.51 387.82,-863.65 321,-827.5 284.6,-807.81 266,-793.76 266,-752.38 266,-752.38 266,-752.38 266,-556.5 266,-481.47 303.82,-462.49 366,-420.5 404.77,-394.32 457.84,-383.5 495.15,-379.03"/>
<polygon fill="#63b8ff" stroke="#63b8ff" points="1091.27,-875.32 1101.29,-871.89 1091.32,-868.32 1091.27,-875.32"/>
</g>
<!-- Node20 -->
<g id="node20" class="node">
<title>Node20</title>
<g id="a_node20"><a xlink:href="v8-profiler_8h.html" target="_top" xlink:title=" ">
<polygon fill="white" stroke="#666666" points="1005.62,-384.5 906.38,-384.5 906.38,-365.25 1005.62,-365.25 1005.62,-384.5"/>
<text text-anchor="middle" x="956" y="-371" font-family="Helvetica,sans-Serif" font-size="10.00">include/v8&#45;profiler.h</text>
</a>
</g>
</g>
<!-- Node2&#45;&gt;Node20 -->
<g id="edge121" class="edge">
<title>Node2&#45;&gt;Node20</title>
<path fill="none" stroke="#63b8ff" d="M1105.71,-859.96C1083.9,-853.19 1060.06,-842.91 1042,-827.5 979.83,-774.46 883.52,-585.35 863,-506.25 860.85,-497.97 859.03,-494.58 863,-487 876.05,-462.1 896.2,-471.9 915,-451 933.68,-430.23 947.03,-399.45 952.81,-384.56"/>
<polygon fill="#63b8ff" stroke="#63b8ff" points="1104.64,-863.58 1115.22,-863 1106.59,-856.86 1104.64,-863.58"/>
</g>
<!-- Node21 -->
<g id="node21" class="node">
<title>Node21</title>
<g id="a_node21"><a xlink:href="v8-script_8h.html" target="_top" xlink:title=" ">
<polygon fill="white" stroke="#666666" points="812.38,-384.5 717.62,-384.5 717.62,-365.25 812.38,-365.25 812.38,-384.5"/>
<text text-anchor="middle" x="765" y="-371" font-family="Helvetica,sans-Serif" font-size="10.00">include/v8&#45;script.h</text>
</a>
</g>
</g>
<!-- Node2&#45;&gt;Node21 -->
<g id="edge125" class="edge">
<title>Node2&#45;&gt;Node21</title>
<path fill="none" stroke="#63b8ff" d="M1091.61,-870.2C914.53,-865.17 469.34,-850.39 406,-827.5 353.05,-808.36 304,-808.68 304,-752.38 304,-752.38 304,-752.38 304,-623 304,-503.47 376.34,-478.25 481,-420.5 520.71,-398.59 647.19,-385.3 717.21,-379.43"/>
<polygon fill="#63b8ff" stroke="#63b8ff" points="1091.28,-873.72 1101.37,-870.51 1091.48,-866.73 1091.28,-873.72"/>
</g>
<!-- Node23 -->
<g id="node23" class="node">
<title>Node23</title>
<g id="a_node23"><a xlink:href="v8-container_8h.html" target="_top" xlink:title=" ">
<polygon fill="white" stroke="#666666" points="2158.25,-567.12 2047.75,-567.12 2047.75,-547.88 2158.25,-547.88 2158.25,-567.12"/>
<text text-anchor="middle" x="2103" y="-553.62" font-family="Helvetica,sans-Serif" font-size="10.00">include/v8&#45;container.h</text>
</a>
</g>
</g>
<!-- Node2&#45;&gt;Node23 -->
<g id="edge37" class="edge">
<title>Node2&#45;&gt;Node23</title>
<path fill="none" stroke="#63b8ff" d="M1236.72,-871.46C1426.87,-869.27 1928.82,-860.42 1996,-827.5 2035.65,-808.07 2061,-796.53 2061,-752.38 2061,-752.38 2061,-752.38 2061,-689.5 2061,-641.49 2086.89,-588.11 2098.02,-567.39"/>
<polygon fill="#63b8ff" stroke="#63b8ff" points="1236.69,-867.97 1226.73,-871.59 1236.77,-874.97 1236.69,-867.97"/>
</g>
<!-- Node24 -->
<g id="node24" class="node">
<title>Node24</title>
<g id="a_node24"><a xlink:href="v8-data_8h.html" target="_top" xlink:title=" ">
<polygon fill="white" stroke="#666666" points="538.75,-821.88 449.25,-821.88 449.25,-802.62 538.75,-802.62 538.75,-821.88"/>
<text text-anchor="middle" x="494" y="-808.38" font-family="Helvetica,sans-Serif" font-size="10.00">include/v8&#45;data.h</text>
</a>
</g>
</g>
<!-- Node2&#45;&gt;Node24 -->
<g id="edge40" class="edge">
<title>Node2&#45;&gt;Node24</title>
<path fill="none" stroke="#63b8ff" d="M1091.54,-865.76C952.64,-853.55 652.57,-827.18 538.89,-817.19"/>
<polygon fill="#63b8ff" stroke="#63b8ff" points="1091.2,-869.33 1101.47,-866.72 1091.81,-862.36 1091.2,-869.33"/>
</g>
<!-- Node25 -->
<g id="node25" class="node">
<title>Node25</title>
<g id="a_node25"><a xlink:href="v8-primitive_8h.html" target="_top" xlink:title=" ">
<polygon fill="white" stroke="#666666" points="902.75,-700.12 795.25,-700.12 795.25,-680.88 902.75,-680.88 902.75,-700.12"/>
<text text-anchor="middle" x="849" y="-686.62" font-family="Helvetica,sans-Serif" font-size="10.00">include/v8&#45;primitive.h</text>
</a>
</g>
</g>
<!-- Node2&#45;&gt;Node25 -->
<g id="edge120" class="edge">
<title>Node2&#45;&gt;Node25</title>
<path fill="none" stroke="#63b8ff" d="M1091.66,-866.23C1028.91,-859.84 944.03,-847.75 917,-827.5 873.06,-794.58 855.63,-725.37 850.64,-700.58"/>
<polygon fill="#63b8ff" stroke="#63b8ff" points="1091.01,-869.78 1101.31,-867.28 1091.7,-862.81 1091.01,-869.78"/>
</g>
<!-- Node26 -->
<g id="node26" class="node">
<title>Node26</title>
<g id="a_node26"><a xlink:href="v8-extension_8h.html" target="_top" xlink:title=" ">
<polygon fill="white" stroke="#666666" points="1098,-633.62 986,-633.62 986,-614.38 1098,-614.38 1098,-633.62"/>
<text text-anchor="middle" x="1042" y="-620.12" font-family="Helvetica,sans-Serif" font-size="10.00">include/v8&#45;extension.h</text>
</a>
</g>
</g>
<!-- Node2&#45;&gt;Node26 -->
<g id="edge100" class="edge">
<title>Node2&#45;&gt;Node26</title>
<path fill="none" stroke="#63b8ff" d="M1141.01,-856.69C1130.94,-848.94 1119.68,-838.8 1112,-827.5 1109.08,-823.21 1058.13,-672.74 1045.04,-634.01"/>
<polygon fill="#63b8ff" stroke="#63b8ff" points="1138.66,-860.03 1148.8,-863.1 1142.78,-854.38 1138.66,-860.03"/>
</g>
<!-- Node27 -->
<g id="node27" class="node">
<title>Node27</title>
<g id="a_node27"><a xlink:href="v8-function-callback_8h.html" target="_top" xlink:title=" ">
<polygon fill="white" stroke="#666666" points="1373.88,-639.25 1276.12,-639.25 1276.12,-608.75 1373.88,-608.75 1373.88,-639.25"/>
<text text-anchor="start" x="1284.12" y="-625.75" font-family="Helvetica,sans-Serif" font-size="10.00">include/v8&#45;function</text>
<text text-anchor="middle" x="1325" y="-614.5" font-family="Helvetica,sans-Serif" font-size="10.00">&#45;callback.h</text>
</a>
</g>
</g>
<!-- Node2&#45;&gt;Node27 -->
<g id="edge103" class="edge">
<title>Node2&#45;&gt;Node27</title>
<path fill="none" stroke="#63b8ff" d="M1236.33,-866.13C1262.48,-860.19 1289.78,-848.85 1307,-827.5 1352.19,-771.44 1336.79,-676.14 1328.67,-639.73"/>
<polygon fill="#63b8ff" stroke="#63b8ff" points="1235.72,-862.89 1226.61,-868.29 1237.11,-869.75 1235.72,-862.89"/>
</g>
<!-- Node28 -->
<g id="node28" class="node">
<title>Node28</title>
<g id="a_node28"><a xlink:href="v8-template_8h.html" target="_top" xlink:title=" ">
<polygon fill="white" stroke="#666666" points="1792.12,-506.25 1683.88,-506.25 1683.88,-487 1792.12,-487 1792.12,-506.25"/>
<text text-anchor="middle" x="1738" y="-492.75" font-family="Helvetica,sans-Serif" font-size="10.00">include/v8&#45;template.h</text>
</a>
</g>
</g>
<!-- Node2&#45;&gt;Node28 -->
<g id="edge128" class="edge">
<title>Node2&#45;&gt;Node28</title>
<path fill="none" stroke="#63b8ff" d="M1236.73,-871.7C1427.07,-870.12 1936.45,-862.62 2101,-827.5 2190.61,-808.37 2293,-844.01 2293,-752.38 2293,-752.38 2293,-752.38 2293,-689.5 2293,-623.57 2322.51,-587.96 2275,-542.25 2240.7,-509.25 1921.6,-500.52 1792.16,-498.32"/>
<polygon fill="#63b8ff" stroke="#63b8ff" points="1236.72,-868.21 1226.74,-871.79 1236.77,-875.21 1236.72,-868.21"/>
</g>
<!-- Node30 -->
<g id="node30" class="node">
<title>Node30</title>
<g id="a_node30"><a xlink:href="v8-object_8h.html" target="_top" xlink:title=" ">
<polygon fill="white" stroke="#666666" points="1785.5,-633.62 1688.5,-633.62 1688.5,-614.38 1785.5,-614.38 1785.5,-633.62"/>
<text text-anchor="middle" x="1737" y="-620.12" font-family="Helvetica,sans-Serif" font-size="10.00">include/v8&#45;object.h</text>
</a>
</g>
</g>
<!-- Node2&#45;&gt;Node30 -->
<g id="edge112" class="edge">
<title>Node2&#45;&gt;Node30</title>
<path fill="none" stroke="#63b8ff" d="M1236.24,-870.21C1368.86,-866.06 1640.68,-854.35 1674,-827.5 1736.5,-777.14 1738.24,-665.71 1737.38,-633.73"/>
<polygon fill="#63b8ff" stroke="#63b8ff" points="1236.29,-866.74 1226.4,-870.54 1236.5,-873.73 1236.29,-866.74"/>
</g>
<!-- Node31 -->
<g id="node31" class="node">
<title>Node31</title>
<g id="a_node31"><a xlink:href="v8-date_8h.html" target="_top" xlink:title=" ">
<polygon fill="white" stroke="#666666" points="2265.75,-567.12 2176.25,-567.12 2176.25,-547.88 2265.75,-547.88 2265.75,-567.12"/>
<text text-anchor="middle" x="2221" y="-553.62" font-family="Helvetica,sans-Serif" font-size="10.00">include/v8&#45;date.h</text>
</a>
</g>
</g>
<!-- Node2&#45;&gt;Node31 -->
<g id="edge94" class="edge">
<title>Node2&#45;&gt;Node31</title>
<path fill="none" stroke="#63b8ff" d="M1236.6,-872.88C1417.75,-874.04 1885.77,-872.45 2034,-827.5 2096.39,-808.58 2160,-817.57 2160,-752.38 2160,-752.38 2160,-752.38 2160,-689.5 2160,-639.32 2197.23,-587.59 2213.52,-567.36"/>
<polygon fill="#63b8ff" stroke="#63b8ff" points="1236.63,-869.37 1226.6,-872.8 1236.58,-876.37 1236.63,-869.37"/>
</g>
<!-- Node32 -->
<g id="node32" class="node">
<title>Node32</title>
<g id="a_node32"><a xlink:href="v8-exception_8h.html" target="_top" xlink:title=" ">
<polygon fill="white" stroke="#666666" points="1954,-567.12 1842,-567.12 1842,-547.88 1954,-547.88 1954,-567.12"/>
<text text-anchor="middle" x="1898" y="-553.62" font-family="Helvetica,sans-Serif" font-size="10.00">include/v8&#45;exception.h</text>
</a>
</g>
</g>
<!-- Node2&#45;&gt;Node32 -->
<g id="edge99" class="edge">
<title>Node2&#45;&gt;Node32</title>
<path fill="none" stroke="#63b8ff" d="M1236.45,-870.95C1398.16,-867.8 1778.25,-857.29 1828,-827.5 1861.79,-807.27 1875,-791.76 1875,-752.38 1875,-752.38 1875,-752.38 1875,-689.5 1875,-643.09 1889.18,-588.8 1895.27,-567.61"/>
<polygon fill="#63b8ff" stroke="#63b8ff" points="1236.59,-867.46 1226.66,-871.15 1236.72,-874.46 1236.59,-867.46"/>
</g>
<!-- Node33 -->
<g id="node33" class="node">
<title>Node33</title>
<g id="a_node33"><a xlink:href="v8-primitive-object_8h.html" target="_top" xlink:title=" ">
<polygon fill="white" stroke="#666666" points="2422,-572.75 2322,-572.75 2322,-542.25 2422,-542.25 2422,-572.75"/>
<text text-anchor="start" x="2330" y="-559.25" font-family="Helvetica,sans-Serif" font-size="10.00">include/v8&#45;primitive</text>
<text text-anchor="middle" x="2372" y="-548" font-family="Helvetica,sans-Serif" font-size="10.00">&#45;object.h</text>
</a>
</g>
</g>
<!-- Node2&#45;&gt;Node33 -->
<g id="edge119" class="edge">
<title>Node2&#45;&gt;Node33</title>
<path fill="none" stroke="#63b8ff" d="M1236.52,-871.57C1481.34,-869.4 2264.36,-859.93 2307,-827.5 2334.9,-806.28 2331,-787.43 2331,-752.38 2331,-752.38 2331,-752.38 2331,-689.5 2331,-645.41 2352.41,-596.63 2364.29,-572.97"/>
<polygon fill="#63b8ff" stroke="#63b8ff" points="1236.59,-868.08 1226.62,-871.66 1236.65,-875.08 1236.59,-868.08"/>
</g>
<!-- Node34 -->
<g id="node34" class="node">
<title>Node34</title>
<g id="a_node34"><a xlink:href="v8-promise_8h.html" target="_top" xlink:title=" ">
<polygon fill="white" stroke="#666666" points="1633.62,-567.12 1528.38,-567.12 1528.38,-547.88 1633.62,-547.88 1633.62,-567.12"/>
<text text-anchor="middle" x="1581" y="-553.62" font-family="Helvetica,sans-Serif" font-size="10.00">include/v8&#45;promise.h</text>
</a>
</g>
</g>
<!-- Node2&#45;&gt;Node34 -->
<g id="edge122" class="edge">
<title>Node2&#45;&gt;Node34</title>
<path fill="none" stroke="#63b8ff" d="M1236.16,-869.63C1373.74,-862.89 1660,-838.52 1660,-752.38 1660,-752.38 1660,-752.38 1660,-689.5 1660,-636.91 1612.74,-587.31 1591.33,-567.53"/>
<polygon fill="#63b8ff" stroke="#63b8ff" points="1236.14,-866.17 1226.32,-870.14 1236.47,-873.16 1236.14,-866.17"/>
</g>
<!-- Node35 -->
<g id="node35" class="node">
<title>Node35</title>
<g id="a_node35"><a xlink:href="v8-statistics_8h.html" target="_top" xlink:title=" ">
<polygon fill="white" stroke="#666666" points="1718.25,-329.25 1607.75,-329.25 1607.75,-310 1718.25,-310 1718.25,-329.25"/>
<text text-anchor="middle" x="1663" y="-315.75" font-family="Helvetica,sans-Serif" font-size="10.00">include/v8&#45;statistics.h</text>
</a>
</g>
</g>
<!-- Node2&#45;&gt;Node35 -->
<g id="edge127" class="edge">
<title>Node2&#45;&gt;Node35</title>
<path fill="none" stroke="#63b8ff" d="M1236.01,-870.58C1362.02,-867.14 1617.08,-856.7 1701,-827.5 1757.96,-807.68 1814,-812.68 1814,-752.38 1814,-752.38 1814,-752.38 1814,-623 1814,-506.05 1839.03,-452.36 1761,-365.25 1745.16,-347.57 1720.92,-336.44 1700.51,-329.73"/>
<polygon fill="#63b8ff" stroke="#63b8ff" points="1236.23,-867.1 1226.33,-870.86 1236.42,-874.09 1236.23,-867.1"/>
</g>
<!-- Node36 -->
<g id="node36" class="node">
<title>Node36</title>
<g id="a_node36"><a xlink:href="v8-regexp_8h.html" target="_top" xlink:title=" ">
<polygon fill="white" stroke="#666666" points="2539.62,-567.12 2440.38,-567.12 2440.38,-547.88 2539.62,-547.88 2539.62,-567.12"/>
<text text-anchor="middle" x="2490" y="-553.62" font-family="Helvetica,sans-Serif" font-size="10.00">include/v8&#45;regexp.h</text>
</a>
</g>
</g>
<!-- Node2&#45;&gt;Node36 -->
<g id="edge124" class="edge">
<title>Node2&#45;&gt;Node36</title>
<path fill="none" stroke="#63b8ff" d="M1236.22,-871.37C1483.69,-868.54 2284.86,-857.1 2331,-827.5 2362.49,-807.3 2369,-789.79 2369,-752.38 2369,-752.38 2369,-752.38 2369,-689.5 2369,-629.75 2437.77,-585.63 2471.62,-567.54"/>
<polygon fill="#63b8ff" stroke="#63b8ff" points="1236.51,-867.88 1226.55,-871.49 1236.59,-874.88 1236.51,-867.88"/>
</g>
<!-- Node37 -->
<g id="node37" class="node">
<title>Node37</title>
<g id="a_node37"><a xlink:href="v8-wasm_8h.html" target="_top" xlink:title=" ">
<polygon fill="white" stroke="#666666" points="2654.5,-567.12 2557.5,-567.12 2557.5,-547.88 2654.5,-547.88 2654.5,-567.12"/>
<text text-anchor="middle" x="2606" y="-553.62" font-family="Helvetica,sans-Serif" font-size="10.00">include/v8&#45;wasm.h</text>
</a>
</g>
</g>
<!-- Node2&#45;&gt;Node37 -->
<g id="edge139" class="edge">
<title>Node2&#45;&gt;Node37</title>
<path fill="none" stroke="#63b8ff" d="M1236.31,-872.12C1508.72,-871.77 2460.11,-867.69 2510,-827.5 2536.82,-805.89 2529,-786.82 2529,-752.38 2529,-752.38 2529,-752.38 2529,-689.5 2529,-637.27 2575.06,-587.47 2595.93,-567.58"/>
<polygon fill="#63b8ff" stroke="#63b8ff" points="1236.37,-868.62 1226.38,-872.13 1236.38,-875.62 1236.37,-868.62"/>
</g>
<!-- Node38 -->
<g id="node38" class="node">
<title>Node38</title>
<g id="a_node38"><a xlink:href="v8-value_8h.html" target="_top" xlink:title=" ">
<polygon fill="white" stroke="#666666" points="725,-761 631,-761 631,-741.75 725,-741.75 725,-761"/>
<text text-anchor="middle" x="678" y="-747.5" font-family="Helvetica,sans-Serif" font-size="10.00">include/v8&#45;value.h</text>
</a>
</g>
</g>
<!-- Node2&#45;&gt;Node38 -->
<g id="edge138" class="edge">
<title>Node2&#45;&gt;Node38</title>
<path fill="none" stroke="#63b8ff" d="M1091.61,-865.15C1032.85,-858.48 948.19,-846.56 876,-827.5 808.82,-809.76 732.91,-777.27 697.78,-761.47"/>
<polygon fill="#63b8ff" stroke="#63b8ff" points="1090.95,-868.71 1101.28,-866.33 1091.73,-861.75 1090.95,-868.71"/>
</g>
<!-- Node41 -->
<g id="node41" class="node">
<title>Node41</title>
<g id="a_node41"><a xlink:href="v8-embedder-state-scope_8h.html" target="_top" xlink:title=" ">
<polygon fill="white" stroke="#666666" points="1298,-827.5 1192,-827.5 1192,-797 1298,-797 1298,-827.5"/>
<text text-anchor="start" x="1200" y="-814" font-family="Helvetica,sans-Serif" font-size="10.00">include/v8&#45;embedder</text>
<text text-anchor="middle" x="1245" y="-802.75" font-family="Helvetica,sans-Serif" font-size="10.00">&#45;state&#45;scope.h</text>
</a>
</g>
</g>
<!-- Node2&#45;&gt;Node41 -->
<g id="edge95" class="edge">
<title>Node2&#45;&gt;Node41</title>
<path fill="none" stroke="#63b8ff" d="M1185.01,-856.85C1197.35,-847.89 1212.85,-836.62 1225.01,-827.78"/>
<polygon fill="#63b8ff" stroke="#63b8ff" points="1183.33,-854.47 1177.3,-863.18 1187.45,-860.13 1183.33,-854.47"/>
</g>
<!-- Node43 -->
<g id="node43" class="node">
<title>Node43</title>
<g id="a_node43"><a xlink:href="v8-forward_8h.html" target="_top" xlink:title=" ">
<polygon fill="white" stroke="#666666" points="2500.5,-821.88 2397.5,-821.88 2397.5,-802.62 2500.5,-802.62 2500.5,-821.88"/>
<text text-anchor="middle" x="2449" y="-808.38" font-family="Helvetica,sans-Serif" font-size="10.00">include/v8&#45;forward.h</text>
</a>
</g>
</g>
<!-- Node2&#45;&gt;Node43 -->
<g id="edge102" class="edge">
<title>Node2&#45;&gt;Node43</title>
<path fill="none" stroke="#63b8ff" d="M1236.25,-871.15C1463.06,-867.83 2159.07,-855.55 2383,-827.5 2392.65,-826.29 2402.99,-824.37 2412.54,-822.32"/>
<polygon fill="#63b8ff" stroke="#63b8ff" points="1236.44,-867.66 1226.49,-871.31 1236.54,-874.66 1236.44,-867.66"/>
</g>
<!-- Node44 -->
<g id="node44" class="node">
<title>Node44</title>
<g id="a_node44"><a xlink:href="v8-microtask-queue_8h.html" target="_top" xlink:title=" ">
<polygon fill="white" stroke="#666666" points="2827,-274 2721,-274 2721,-243.5 2827,-243.5 2827,-274"/>
<text text-anchor="start" x="2729" y="-260.5" font-family="Helvetica,sans-Serif" font-size="10.00">include/v8&#45;microtask</text>
<text text-anchor="middle" x="2774" y="-249.25" font-family="Helvetica,sans-Serif" font-size="10.00">&#45;queue.h</text>
</a>
</g>
</g>
<!-- Node2&#45;&gt;Node44 -->
<g id="edge110" class="edge">
<title>Node2&#45;&gt;Node44</title>
<path fill="none" stroke="#63b8ff" d="M1236.16,-871.32C1505.31,-868.13 2441.98,-855.12 2573,-827.5 2660.24,-809.11 2759,-841.53 2759,-752.38 2759,-752.38 2759,-752.38 2759,-373.88 2759,-337.9 2766.42,-296.1 2770.82,-274.44"/>
<polygon fill="#63b8ff" stroke="#63b8ff" points="1236.31,-867.83 1226.35,-871.45 1236.39,-874.83 1236.31,-867.83"/>
</g>
<!-- Node45 -->
<g id="node45" class="node">
<title>Node45</title>
<g id="a_node45"><a xlink:href="v8-persistent-handle_8h.html" target="_top" xlink:title=" ">
<polygon fill="white" stroke="#666666" points="1525,-705.75 1419,-705.75 1419,-675.25 1525,-675.25 1525,-705.75"/>
<text text-anchor="start" x="1427" y="-692.25" font-family="Helvetica,sans-Serif" font-size="10.00">include/v8&#45;persistent</text>
<text text-anchor="middle" x="1472" y="-681" font-family="Helvetica,sans-Serif" font-size="10.00">&#45;handle.h</text>
</a>
</g>
</g>
<!-- Node2&#45;&gt;Node45 -->
<g id="edge113" class="edge">
<title>Node2&#45;&gt;Node45</title>
<path fill="none" stroke="#63b8ff" d="M1235.98,-863.1C1269.27,-856.68 1308.36,-845.8 1340,-827.5 1395.26,-795.54 1442.57,-733.92 1462.25,-705.94"/>
<polygon fill="#63b8ff" stroke="#63b8ff" points="1235.6,-859.79 1226.39,-865.03 1236.86,-866.68 1235.6,-859.79"/>
</g>
<!-- Node46 -->
<g id="node46" class="node">
<title>Node46</title>
<g id="a_node46"><a xlink:href="v8-traced-handle_8h.html" target="_top" xlink:title=" ">
<polygon fill="white" stroke="#666666" points="2686.62,-700.12 2557.38,-700.12 2557.38,-680.88 2686.62,-680.88 2686.62,-700.12"/>
<text text-anchor="middle" x="2622" y="-686.62" font-family="Helvetica,sans-Serif" font-size="10.00">include/v8&#45;traced&#45;handle.h</text>
</a>
</g>
</g>
<!-- Node2&#45;&gt;Node46 -->
<g id="edge129" class="edge">
<title>Node2&#45;&gt;Node46</title>
<path fill="none" stroke="#63b8ff" d="M1236.41,-871.72C1512.52,-869.92 2486.56,-861.21 2543,-827.5 2591.99,-798.23 2613.64,-726.11 2619.94,-700.61"/>
<polygon fill="#63b8ff" stroke="#63b8ff" points="1236.7,-868.22 1226.72,-871.79 1236.75,-875.22 1236.7,-868.22"/>
</g>
<!-- Node49 -->
<g id="node49" class="node">
<title>Node49</title>
<g id="a_node49"><a xlink:href="v8-value-serializer_8h.html" target="_top" xlink:title=" ">
<polygon fill="white" stroke="#666666" points="2922.62,-761 2787.38,-761 2787.38,-741.75 2922.62,-741.75 2922.62,-761"/>
<text text-anchor="middle" x="2855" y="-747.5" font-family="Helvetica,sans-Serif" font-size="10.00">include/v8&#45;value&#45;serializer.h</text>
</a>
</g>
</g>
<!-- Node2&#45;&gt;Node49 -->
<g id="edge136" class="edge">
<title>Node2&#45;&gt;Node49</title>
<path fill="none" stroke="#63b8ff" d="M1236.25,-871.53C1539.98,-868.83 2701,-856.65 2773,-827.5 2807.54,-813.52 2836.61,-777.92 2848.82,-761.24"/>
<polygon fill="#63b8ff" stroke="#63b8ff" points="1236.35,-868.03 1226.39,-871.62 1236.42,-875.03 1236.35,-868.03"/>
</g>
<!-- Node3&#45;&gt;Node4 -->
<g id="edge3" class="edge">
<title>Node3&#45;&gt;Node4</title>
<path fill="none" stroke="#63b8ff" d="M1211.76,-544.13C1234.17,-536.5 1258.98,-524.56 1276,-506.25 1298.25,-482.31 1300,-469.43 1300,-436.75 1300,-436.75 1300,-436.75 1300,-373.88 1300,-330.69 1266.93,-287.08 1251.17,-268.75"/>
<polygon fill="#63b8ff" stroke="#63b8ff" points="1210.82,-541.07 1202.34,-547.43 1212.93,-547.74 1210.82,-541.07"/>
</g>
<!-- Node3&#45;&gt;Node7 -->
<g id="edge20" class="edge">
<title>Node3&#45;&gt;Node7</title>
<path fill="none" stroke="#63b8ff" d="M1218.94,-544.68C1245.4,-537.13 1275.52,-525.1 1298,-506.25 1325.31,-483.35 1338,-472.39 1338,-436.75 1338,-436.75 1338,-436.75 1338,-373.88 1338,-269.46 1356.54,-244.67 1369,-141 1374.49,-95.34 1380.03,-40.56 1382.13,-19.49"/>
<polygon fill="#63b8ff" stroke="#63b8ff" points="1218.37,-541.48 1209.62,-547.46 1220.19,-548.24 1218.37,-541.48"/>
</g>
<!-- Node3&#45;&gt;Node14 -->
<g id="edge17" class="edge">
<title>Node3&#45;&gt;Node14</title>
<path fill="none" stroke="#63b8ff" d="M1113.33,-544.71C1069.96,-533.51 1005.68,-516.91 966.17,-506.71"/>
<polygon fill="#63b8ff" stroke="#63b8ff" points="1112.32,-548.32 1122.87,-547.43 1114.07,-541.54 1112.32,-548.32"/>
</g>
<!-- Node5 -->
<g id="node5" class="node">
<title>Node5</title>
<g id="a_node5"><a xlink:href="v8-external-memory-accounter_8h.html" target="_top" xlink:title=" ">
<polygon fill="white" stroke="#666666" points="1317.38,-207.5 1210.62,-207.5 1210.62,-177 1317.38,-177 1317.38,-207.5"/>
<text text-anchor="start" x="1218.62" y="-194" font-family="Helvetica,sans-Serif" font-size="10.00">include/v8&#45;external</text>
<text text-anchor="middle" x="1264" y="-182.75" font-family="Helvetica,sans-Serif" font-size="10.00">&#45;memory&#45;accounter.h</text>
</a>
</g>
</g>
<!-- Node4&#45;&gt;Node5 -->
<g id="edge4" class="edge">
<title>Node4&#45;&gt;Node5</title>
<path fill="none" stroke="#63b8ff" d="M1249.32,-238.34C1252.54,-228.46 1256.38,-216.65 1259.33,-207.59"/>
<polygon fill="#63b8ff" stroke="#63b8ff" points="1245.69,-237.19 1245.92,-247.78 1252.34,-239.36 1245.69,-237.19"/>
</g>
<!-- Node6 -->
<g id="node6" class="node">
<title>Node6</title>
<g id="a_node6"><a xlink:href="v8-initialization_8h.html" target="_top" xlink:title=" ">
<polygon fill="white" stroke="#666666" points="1154.5,-201.88 1033.5,-201.88 1033.5,-182.62 1154.5,-182.62 1154.5,-201.88"/>
<text text-anchor="middle" x="1094" y="-188.38" font-family="Helvetica,sans-Serif" font-size="10.00">include/v8&#45;initialization.h</text>
</a>
</g>
</g>
<!-- Node4&#45;&gt;Node6 -->
<g id="edge5" class="edge">
<title>Node4&#45;&gt;Node6</title>
<path fill="none" stroke="#63b8ff" d="M1211.92,-244.3C1182.83,-231.7 1140.17,-213.24 1114.93,-202.31"/>
<polygon fill="#63b8ff" stroke="#63b8ff" points="1210.4,-247.88 1220.97,-248.65 1213.18,-241.46 1210.4,-247.88"/>
</g>
<!-- Node4&#45;&gt;Node7 -->
<g id="edge16" class="edge">
<title>Node4&#45;&gt;Node7</title>
<path fill="none" stroke="#63b8ff" d="M1277.16,-244.31C1294.1,-236.04 1313.54,-223.86 1326,-207.5 1368.6,-151.56 1348.92,-122.64 1369,-55.25 1372.71,-42.8 1377.25,-28.48 1380.14,-19.49"/>
<polygon fill="#63b8ff" stroke="#63b8ff" points="1276.17,-241.37 1268.55,-248.73 1279.1,-247.73 1276.17,-241.37"/>
</g>
<!-- Node4&#45;&gt;Node8 -->
<g id="edge7" class="edge">
<title>Node4&#45;&gt;Node8</title>
<path fill="none" stroke="#63b8ff" d="M1182.38,-250.02C1083.34,-237.4 888.34,-212.54 792.64,-200.34"/>
<polygon fill="#63b8ff" stroke="#63b8ff" points="1181.74,-253.6 1192.1,-251.39 1182.62,-246.65 1181.74,-253.6"/>
</g>
<!-- Node4&#45;&gt;Node10 -->
<g id="edge9" class="edge">
<title>Node4&#45;&gt;Node10</title>
<path fill="none" stroke="#63b8ff" d="M1182.39,-252.76C1033.38,-240.48 651.21,-209 511.85,-197.52"/>
<polygon fill="#63b8ff" stroke="#63b8ff" points="1181.87,-256.31 1192.13,-253.64 1182.45,-249.33 1181.87,-256.31"/>
</g>
<!-- Node4&#45;&gt;Node11 -->
<g id="edge10" class="edge">
<title>Node4&#45;&gt;Node11</title>
<path fill="none" stroke="#63b8ff" d="M1182.15,-255.48C1043.17,-250.01 691.81,-234.49 399,-207.5 379.93,-205.74 359.13,-203.3 340.59,-200.93"/>
<polygon fill="#63b8ff" stroke="#63b8ff" points="1181.84,-259.01 1191.97,-255.91 1182.12,-252.02 1181.84,-259.01"/>
</g>
<!-- Node6&#45;&gt;Node7 -->
<g id="edge6" class="edge">
<title>Node6&#45;&gt;Node7</title>
<path fill="none" stroke="#63b8ff" d="M1106.78,-173.83C1128.88,-144.93 1177.08,-87.11 1231,-55.25 1268.06,-33.36 1316.61,-21.55 1348.76,-15.69"/>
<polygon fill="#63b8ff" stroke="#63b8ff" points="1103.52,-171.34 1100.31,-181.44 1109.12,-175.54 1103.52,-171.34"/>
</g>
<!-- Node9 -->
<g id="node9" class="node">
<title>Node9</title>
<g id="a_node9"><a xlink:href="v8-inspector-protocol_8h.html" target="_top" xlink:title=" ">
<polygon fill="white" stroke="#666666" points="788.5,-141 685.5,-141 685.5,-110.5 788.5,-110.5 788.5,-141"/>
<text text-anchor="start" x="693.5" y="-127.5" font-family="Helvetica,sans-Serif" font-size="10.00">include/v8&#45;inspector</text>
<text text-anchor="middle" x="737" y="-116.25" font-family="Helvetica,sans-Serif" font-size="10.00">&#45;protocol.h</text>
</a>
</g>
</g>
<!-- Node8&#45;&gt;Node9 -->
<g id="edge8" class="edge">
<title>Node8&#45;&gt;Node9</title>
<path fill="none" stroke="#63b8ff" d="M737,-171.52C737,-161.7 737,-150.05 737,-141.09"/>
<polygon fill="#63b8ff" stroke="#63b8ff" points="733.5,-171.28 737,-181.28 740.5,-171.28 733.5,-171.28"/>
</g>
<!-- Node11&#45;&gt;Node7 -->
<g id="edge15" class="edge">
<title>Node11&#45;&gt;Node7</title>
<path fill="none" stroke="#63b8ff" d="M290.12,-171.85C299.41,-140.95 322.28,-81.38 366,-55.25 409.07,-29.51 1176.23,-14.32 1348.75,-11.22"/>
<polygon fill="#63b8ff" stroke="#63b8ff" points="286.55,-170.59 287.2,-181.16 293.29,-172.49 286.55,-170.59"/>
</g>
<!-- Node11&#45;&gt;Node12 -->
<g id="edge11" class="edge">
<title>Node11&#45;&gt;Node12</title>
<path fill="none" stroke="#63b8ff" d="M263.38,-176.25C245.35,-163.75 220.25,-146.34 205.12,-135.85"/>
<polygon fill="#63b8ff" stroke="#63b8ff" points="260.86,-179.46 271.07,-182.28 264.85,-173.71 260.86,-179.46"/>
</g>
<!-- Node12&#45;&gt;Node7 -->
<g id="edge14" class="edge">
<title>Node12&#45;&gt;Node7</title>
<path fill="none" stroke="#63b8ff" d="M191.52,-104.81C192.32,-88.72 196.32,-66.9 211,-55.25 256.7,-18.97 1160.42,-11.88 1348.78,-10.8"/>
<polygon fill="#63b8ff" stroke="#63b8ff" points="188.01,-104.7 191.41,-114.74 195.01,-104.77 188.01,-104.7"/>
</g>
<!-- Node12&#45;&gt;Node13 -->
<g id="edge12" class="edge">
<title>Node12&#45;&gt;Node13</title>
<path fill="none" stroke="#63b8ff" d="M211.82,-109.19C225.75,-98.26 243.9,-84.01 255.5,-74.9"/>
<polygon fill="#63b8ff" stroke="#63b8ff" points="210.1,-106.88 204.39,-115.81 214.42,-112.39 210.1,-106.88"/>
</g>
<!-- Node13&#45;&gt;Node7 -->
<g id="edge13" class="edge">
<title>Node13&#45;&gt;Node7</title>
<path fill="none" stroke="#63b8ff" d="M324.53,-55.58C325.7,-55.47 326.86,-55.35 328,-55.25 728.26,-18.58 1216.76,-11.99 1348.76,-10.85"/>
<polygon fill="#63b8ff" stroke="#63b8ff" points="324.45,-52.18 314.9,-56.77 325.23,-59.14 324.45,-52.18"/>
</g>
<!-- Node14&#45;&gt;Node7 -->
<g id="edge19" class="edge">
<title>Node14&#45;&gt;Node7</title>
<path fill="none" stroke="#63b8ff" d="M948.76,-479.13C969.04,-459.02 1001.18,-422.93 1015,-384.5 1046.25,-297.64 979.38,-257.81 1024,-177 1090.49,-56.58 1272.62,-22.75 1348.8,-13.73"/>
<polygon fill="#63b8ff" stroke="#63b8ff" points="946.65,-476.26 941.89,-485.73 951.51,-481.3 946.65,-476.26"/>
</g>
<!-- Node14&#45;&gt;Node15 -->
<g id="edge18" class="edge">
<title>Node14&#45;&gt;Node15</title>
<path fill="none" stroke="#63b8ff" d="M864.73,-484.82C793.37,-473.18 681.58,-454.95 618.17,-444.61"/>
<polygon fill="#63b8ff" stroke="#63b8ff" points="863.95,-488.4 874.38,-486.55 865.08,-481.49 863.95,-488.4"/>
</g>
<!-- Node16&#45;&gt;Node4 -->
<g id="edge23" class="edge">
<title>Node16&#45;&gt;Node4</title>
<path fill="none" stroke="#63b8ff" d="M1077.24,-478.18C1112.83,-431.28 1209.66,-303.69 1236.19,-268.72"/>
<polygon fill="#63b8ff" stroke="#63b8ff" points="1074.06,-475.58 1070.8,-485.67 1079.63,-479.82 1074.06,-475.58"/>
</g>
<!-- Node16&#45;&gt;Node6 -->
<g id="edge22" class="edge">
<title>Node16&#45;&gt;Node6</title>
<path fill="none" stroke="#63b8ff" d="M1066.12,-475.93C1068.49,-452.22 1072,-411.18 1072,-375.88 1072,-375.88 1072,-375.88 1072,-318.62 1072,-274.43 1085.43,-222.77 1091.3,-202.28"/>
<polygon fill="#63b8ff" stroke="#63b8ff" points="1062.57,-475.32 1065.01,-485.63 1069.53,-476.04 1062.57,-475.32"/>
</g>
<!-- Node16&#45;&gt;Node17 -->
<g id="edge24" class="edge">
<title>Node16&#45;&gt;Node17</title>
<path fill="none" stroke="#63b8ff" d="M1020.82,-483.69C980.31,-472.49 920.61,-455.99 883.85,-445.83"/>
<polygon fill="#63b8ff" stroke="#63b8ff" points="1019.61,-487.26 1030.19,-486.55 1021.48,-480.52 1019.61,-487.26"/>
</g>
<!-- Node16&#45;&gt;Node21 -->
<g id="edge36" class="edge">
<title>Node16&#45;&gt;Node21</title>
<path fill="none" stroke="#63b8ff" d="M997.34,-486.7C917.92,-475.8 794.88,-457.95 787,-451 767.64,-433.92 764.9,-400.81 764.77,-384.87"/>
<polygon fill="#63b8ff" stroke="#63b8ff" points="996.37,-490.24 1006.76,-488.12 997.32,-483.3 996.37,-490.24"/>
</g>
<!-- Node17&#45;&gt;Node7 -->
<g id="edge35" class="edge">
<title>Node17&#45;&gt;Node7</title>
<path fill="none" stroke="#63b8ff" d="M862.19,-416.86C871.24,-402.64 884.49,-382.36 897,-365.25 909.13,-348.67 916.53,-347.48 926,-329.25 940.82,-300.73 946,-291.89 946,-259.75 946,-259.75 946,-259.75 946,-124.75 946,-87.95 959.72,-74.63 991,-55.25 1050.46,-18.4 1264.57,-11.95 1348.71,-10.84"/>
<polygon fill="#63b8ff" stroke="#63b8ff" points="858.79,-414.69 856.41,-425.01 864.71,-418.43 858.79,-414.69"/>
</g>
<!-- Node17&#45;&gt;Node18 -->
<g id="edge25" class="edge">
<title>Node17&#45;&gt;Node18</title>
<path fill="none" stroke="#63b8ff" d="M917.47,-430.14C1080.53,-418.81 1497.81,-389.84 1645.89,-379.56"/>
<polygon fill="#63b8ff" stroke="#63b8ff" points="917.37,-426.7 907.64,-430.89 917.86,-433.69 917.37,-426.7"/>
</g>
<!-- Node17&#45;&gt;Node19 -->
<g id="edge27" class="edge">
<title>Node17&#45;&gt;Node19</title>
<path fill="none" stroke="#63b8ff" d="M792.57,-423.69C732.14,-412.25 639.13,-394.64 584.44,-384.29"/>
<polygon fill="#63b8ff" stroke="#63b8ff" points="791.61,-427.26 802.09,-425.68 792.91,-420.38 791.61,-427.26"/>
</g>
<!-- Node17&#45;&gt;Node20 -->
<g id="edge29" class="edge">
<title>Node17&#45;&gt;Node20</title>
<path fill="none" stroke="#63b8ff" d="M876.28,-420.58C896.06,-409.49 922.96,-394.4 939.9,-384.9"/>
<polygon fill="#63b8ff" stroke="#63b8ff" points="874.96,-417.86 867.95,-425.81 878.38,-423.97 874.96,-417.86"/>
</g>
<!-- Node17&#45;&gt;Node21 -->
<g id="edge30" class="edge">
<title>Node17&#45;&gt;Node21</title>
<path fill="none" stroke="#63b8ff" d="M829.18,-419.81C813.09,-408.8 791.74,-394.18 778.18,-384.9"/>
<polygon fill="#63b8ff" stroke="#63b8ff" points="826.71,-423.05 836.94,-425.81 830.66,-417.27 826.71,-423.05"/>
</g>
<!-- Node18&#45;&gt;Node7 -->
<g id="edge26" class="edge">
<title>Node18&#45;&gt;Node7</title>
<path fill="none" stroke="#63b8ff" d="M1730.99,-360C1766.24,-342.3 1818,-308.08 1818,-259.75 1818,-259.75 1818,-259.75 1818,-124.75 1818,-41.99 1519.68,-18.03 1417.13,-12.25"/>
<polygon fill="#63b8ff" stroke="#63b8ff" points="1729.6,-357.27 1722.1,-364.76 1732.63,-363.58 1729.6,-357.27"/>
</g>
<!-- Node19&#45;&gt;Node7 -->
<g id="edge28" class="edge">
<title>Node19&#45;&gt;Node7</title>
<path fill="none" stroke="#63b8ff" d="M540,-354.11C540,-331.35 540,-292.85 540,-259.75 540,-259.75 540,-259.75 540,-124.75 540,-92.07 537.91,-74.93 564,-55.25 627.37,-7.44 1201.8,-9.06 1348.84,-10.27"/>
<polygon fill="#63b8ff" stroke="#63b8ff" points="536.5,-354 540,-364 543.5,-354 536.5,-354"/>
</g>
<!-- Node21&#45;&gt;Node7 -->
<g id="edge34" class="edge">
<title>Node21&#45;&gt;Node7</title>
<path fill="none" stroke="#63b8ff" d="M770.43,-354.45C788.61,-290.91 849.24,-91.25 903,-55.25 939.9,-30.54 1245.57,-16.13 1348.97,-11.92"/>
<polygon fill="#63b8ff" stroke="#63b8ff" points="766.81,-353.39 767.45,-363.96 773.54,-355.29 766.81,-353.39"/>
</g>
<!-- Node22 -->
<g id="node22" class="node">
<title>Node22</title>
<g id="a_node22"><a xlink:href="v8-debug_8h.html" target="_top" xlink:title=" ">
<polygon fill="white" stroke="#666666" points="917.5,-329.25 820.5,-329.25 820.5,-310 917.5,-310 917.5,-329.25"/>
<text text-anchor="middle" x="869" y="-315.75" font-family="Helvetica,sans-Serif" font-size="10.00">include/v8&#45;debug.h</text>
</a>
</g>
</g>
<!-- Node21&#45;&gt;Node22 -->
<g id="edge31" class="edge">
<title>Node21&#45;&gt;Node22</title>
<path fill="none" stroke="#63b8ff" d="M792.34,-359.87C810.98,-350.33 835.11,-337.98 851.27,-329.7"/>
<polygon fill="#63b8ff" stroke="#63b8ff" points="790.95,-357.17 783.64,-364.84 794.14,-363.4 790.95,-357.17"/>
</g>
<!-- Node22&#45;&gt;Node4 -->
<g id="edge32" class="edge">
<title>Node22&#45;&gt;Node4</title>
<path fill="none" stroke="#63b8ff" d="M928.75,-309.22C1001.9,-297.7 1124.46,-278.41 1192.9,-267.64"/>
<polygon fill="#63b8ff" stroke="#63b8ff" points="928.23,-305.92 918.89,-310.93 929.32,-312.83 928.23,-305.92"/>
</g>
<!-- Node22&#45;&gt;Node7 -->
<g id="edge33" class="edge">
<title>Node22&#45;&gt;Node7</title>
<path fill="none" stroke="#63b8ff" d="M873.81,-299.16C879.44,-274.63 888,-231.09 888,-193.25 888,-193.25 888,-193.25 888,-124.75 888,-88.19 900.88,-74.44 932,-55.25 1001.65,-12.3 1255.85,-9.69 1348.73,-10.21"/>
<polygon fill="#63b8ff" stroke="#63b8ff" points="870.24,-298.03 871.33,-308.57 877.05,-299.65 870.24,-298.03"/>
</g>
<!-- Node23&#45;&gt;Node7 -->
<g id="edge38" class="edge">
<title>Node23&#45;&gt;Node7</title>
<path fill="none" stroke="#63b8ff" d="M2096.99,-537.32C2090.17,-513.85 2080,-472.79 2080,-436.75 2080,-436.75 2080,-436.75 2080,-124.75 2080,-87.71 2066.01,-73.89 2034,-55.25 1980.52,-24.11 1544.09,-13.62 1417.37,-11.21"/>
<polygon fill="#63b8ff" stroke="#63b8ff" points="2093.85,-538.04 2100.09,-546.6 2100.55,-536.01 2093.85,-538.04"/>
</g>
<!-- Node24&#45;&gt;Node4 -->
<g id="edge43" class="edge">
<title>Node24&#45;&gt;Node4</title>
<path fill="none" stroke="#63b8ff" d="M479.84,-793.71C473.11,-784.49 465.55,-772.69 461,-761 451.97,-737.82 455.85,-730.33 452,-705.75 432.28,-579.85 388.73,-508.39 481,-420.5 518.86,-384.44 543.37,-400.95 593,-384.5 690.19,-352.28 711.13,-332.6 811,-310 947.24,-279.17 1112.18,-266.66 1193.18,-262.09"/>
<polygon fill="#63b8ff" stroke="#63b8ff" points="477.54,-795.46 486.4,-801.27 483.1,-791.21 477.54,-795.46"/>
</g>
<!-- Node24&#45;&gt;Node7 -->
<g id="edge93" class="edge">
<title>Node24&#45;&gt;Node7</title>
<path fill="none" stroke="#63b8ff" d="M438.46,-806.29C316.9,-792.08 38,-739.72 38,-558.5 38,-558.5 38,-558.5 38,-124.75 38,-99.63 -62.97,-111.89 194,-55.25 309.24,-29.85 1166.03,-14.24 1348.78,-11.18"/>
<polygon fill="#63b8ff" stroke="#63b8ff" points="437.7,-809.84 448.03,-807.48 438.48,-802.88 437.7,-809.84"/>
</g>
<!-- Node24&#45;&gt;Node12 -->
<g id="edge42" class="edge">
<title>Node24&#45;&gt;Node12</title>
<path fill="none" stroke="#63b8ff" d="M478.17,-794.41C415.73,-727.28 190,-477.56 190,-375.88 190,-375.88 190,-375.88 190,-257.75 190,-211.8 191.25,-156.8 191.77,-135.64"/>
<polygon fill="#63b8ff" stroke="#63b8ff" points="475.17,-796.4 484.55,-801.31 480.28,-791.62 475.17,-796.4"/>
</g>
<!-- Node24&#45;&gt;Node16 -->
<g id="edge41" class="edge">
<title>Node24&#45;&gt;Node16</title>
<path fill="none" stroke="#63b8ff" d="M497.92,-791.79C504.76,-762.62 521.56,-707.54 556,-675.25 627.15,-608.56 920.05,-532.52 1025.74,-506.73"/>
<polygon fill="#63b8ff" stroke="#63b8ff" points="494.35,-790.73 495.64,-801.25 501.19,-792.22 494.35,-790.73"/>
</g>
<!-- Node24&#45;&gt;Node21 -->
<g id="edge82" class="edge">
<title>Node24&#45;&gt;Node21</title>
<path fill="none" stroke="#63b8ff" d="M484.2,-792.72C472.94,-769.66 456,-728.78 456,-691.5 456,-691.5 456,-691.5 456,-623 456,-529.5 443.69,-483.26 513,-420.5 520.54,-413.67 646.41,-393.75 717.34,-382.98"/>
<polygon fill="#63b8ff" stroke="#63b8ff" points="481.39,-793.91 489.03,-801.25 487.63,-790.74 481.39,-793.91"/>
</g>
<!-- Node24&#45;&gt;Node25 -->
<g id="edge44" class="edge">
<title>Node24&#45;&gt;Node25</title>
<path fill="none" stroke="#63b8ff" d="M549.92,-804.97C599.57,-798.13 673.42,-784.85 734,-761 774.59,-745.02 817.24,-715.3 837.29,-700.44"/>
<polygon fill="#63b8ff" stroke="#63b8ff" points="549.54,-801.62 540.09,-806.41 550.46,-808.56 549.54,-801.62"/>
</g>
<!-- Node24&#45;&gt;Node28 -->
<g id="edge83" class="edge">
<title>Node24&#45;&gt;Node28</title>
<path fill="none" stroke="#63b8ff" d="M509.55,-794.61C537.65,-765.59 600.06,-705.9 665,-675.25 894.61,-566.89 978.01,-622.43 1227,-572.75 1280.54,-562.07 1292.3,-552.14 1346,-542.25 1465.4,-520.26 1607.38,-507.33 1683.43,-501.45"/>
<polygon fill="#63b8ff" stroke="#63b8ff" points="507.63,-791.6 503.26,-801.25 512.69,-796.43 507.63,-791.6"/>
</g>
<!-- Node24&#45;&gt;Node38 -->
<g id="edge84" class="edge">
<title>Node24&#45;&gt;Node38</title>
<path fill="none" stroke="#63b8ff" d="M532.65,-798.88C567.61,-787.7 618.27,-771.49 649.62,-761.46"/>
<polygon fill="#63b8ff" stroke="#63b8ff" points="531.8,-795.8 523.35,-802.18 533.94,-802.47 531.8,-795.8"/>
</g>
<!-- Node25&#45;&gt;Node4 -->
<g id="edge54" class="edge">
<title>Node25&#45;&gt;Node4</title>
<path fill="none" stroke="#63b8ff" d="M821.65,-675.11C786.51,-654.41 730,-612.7 730,-558.5 730,-558.5 730,-558.5 730,-495.62 730,-391.47 1083.47,-297.7 1203.6,-268.85"/>
<polygon fill="#63b8ff" stroke="#63b8ff" points="819.5,-678.48 829.93,-680.38 822.96,-672.39 819.5,-678.48"/>
</g>
<!-- Node25&#45;&gt;Node7 -->
<g id="edge81" class="edge">
<title>Node25&#45;&gt;Node7</title>
<path fill="none" stroke="#63b8ff" d="M802.1,-676.83C781.6,-669.08 758.88,-657.12 744,-639.25 718.64,-608.8 654,-467.61 654,-193.25 654,-193.25 654,-193.25 654,-124.75 654,-53.49 1204.69,-19.89 1348.82,-12.32"/>
<polygon fill="#63b8ff" stroke="#63b8ff" points="800.65,-680.38 811.25,-680.4 802.98,-673.78 800.65,-680.38"/>
</g>
<!-- Node25&#45;&gt;Node17 -->
<g id="edge55" class="edge">
<title>Node25&#45;&gt;Node17</title>
<path fill="none" stroke="#63b8ff" d="M823.68,-674.48C811.69,-665.84 798.58,-653.81 792,-639.25 764.15,-577.58 763.63,-548.43 792,-487 800.52,-468.56 819.51,-454.39 833.66,-445.87"/>
<polygon fill="#63b8ff" stroke="#63b8ff" points="821.25,-677.74 831.51,-680.41 825.16,-671.93 821.25,-677.74"/>
</g>
<!-- Node25&#45;&gt;Node26 -->
<g id="edge45" class="edge">
<title>Node25&#45;&gt;Node26</title>
<path fill="none" stroke="#63b8ff" d="M886.32,-677.03C924.01,-664.43 981.34,-645.27 1014.9,-634.06"/>
<polygon fill="#63b8ff" stroke="#63b8ff" points="885.62,-673.91 877.24,-680.4 887.84,-680.55 885.62,-673.91"/>
</g>
<!-- Node25&#45;&gt;Node27 -->
<g id="edge47" class="edge">
<title>Node25&#45;&gt;Node27</title>
<path fill="none" stroke="#63b8ff" d="M913.92,-680.7C1010.41,-667.63 1189.56,-643.35 1275.93,-631.65"/>
<polygon fill="#63b8ff" stroke="#63b8ff" points="913.58,-677.35 904.14,-682.16 914.52,-684.29 913.58,-677.35"/>
</g>
<!-- Node25&#45;&gt;Node30 -->
<g id="edge56" class="edge">
<title>Node25&#45;&gt;Node30</title>
<path fill="none" stroke="#63b8ff" d="M913.98,-684.78C1083.82,-672.44 1538.16,-639.44 1688.18,-628.55"/>
<polygon fill="#63b8ff" stroke="#63b8ff" points="913.93,-681.35 904.21,-685.56 914.44,-688.33 913.93,-681.35"/>
</g>
<!-- Node26&#45;&gt;Node7 -->
<g id="edge46" class="edge">
<title>Node26&#45;&gt;Node7</title>
<path fill="none" stroke="#63b8ff" d="M1045.86,-603.43C1050.11,-585.89 1058.37,-560.23 1073,-542.25 1091.67,-519.3 1112.22,-530.62 1129,-506.25 1213.99,-382.79 1124.18,-305.1 1202,-177 1246.87,-103.13 1334.01,-42.02 1368.47,-19.71"/>
<polygon fill="#63b8ff" stroke="#63b8ff" points="1042.25,-602.56 1043.53,-613.08 1049.09,-604.06 1042.25,-602.56"/>
</g>
<!-- Node27&#45;&gt;Node4 -->
<g id="edge49" class="edge">
<title>Node27&#45;&gt;Node4</title>
<path fill="none" stroke="#63b8ff" d="M1265.05,-618.53C1203.1,-612.52 1112.49,-599.35 1091,-572.75 1082.48,-562.21 1082.63,-552.91 1091,-542.25 1132.52,-489.33 1188.29,-551.57 1238,-506.25 1262.15,-484.23 1262,-469.43 1262,-436.75 1262,-436.75 1262,-436.75 1262,-373.88 1262,-334.31 1250.75,-288.05 1245.56,-268.84"/>
<polygon fill="#63b8ff" stroke="#63b8ff" points="1264.6,-622.1 1274.88,-619.54 1265.25,-615.13 1264.6,-622.1"/>
</g>
<!-- Node27&#45;&gt;Node18 -->
<g id="edge48" class="edge">
<title>Node27&#45;&gt;Node18</title>
<path fill="none" stroke="#63b8ff" d="M1326.04,-598C1327.97,-580.63 1333.03,-557.89 1346,-542.25 1391.3,-487.62 1598.87,-410.98 1672.78,-384.94"/>
<polygon fill="#63b8ff" stroke="#63b8ff" points="1322.51,-597.26 1325.18,-607.51 1329.49,-597.83 1322.51,-597.26"/>
</g>
<!-- Node27&#45;&gt;Node28 -->
<g id="edge50" class="edge">
<title>Node27&#45;&gt;Node28</title>
<path fill="none" stroke="#63b8ff" d="M1334.56,-598.61C1343.23,-579.95 1357.9,-555.26 1379,-542.25 1428.79,-511.55 1596.15,-501.9 1683.66,-498.92"/>
<polygon fill="#63b8ff" stroke="#63b8ff" points="1331.03,-596.95 1330.25,-607.52 1337.45,-599.74 1331.03,-596.95"/>
</g>
<!-- Node29 -->
<g id="node29" class="node">
<title>Node29</title>
<g id="a_node29"><a xlink:href="v8-util_8h.html" target="_top" xlink:title=" ">
<polygon fill="white" stroke="#666666" points="1471.75,-567.12 1388.25,-567.12 1388.25,-547.88 1471.75,-547.88 1471.75,-567.12"/>
<text text-anchor="middle" x="1430" y="-553.62" font-family="Helvetica,sans-Serif" font-size="10.00">include/v8&#45;util.h</text>
</a>
</g>
</g>
<!-- Node27&#45;&gt;Node29 -->
<g id="edge53" class="edge">
<title>Node27&#45;&gt;Node29</title>
<path fill="none" stroke="#63b8ff" d="M1358.16,-602.63C1377.37,-590.83 1400.59,-576.56 1415.33,-567.51"/>
<polygon fill="#63b8ff" stroke="#63b8ff" points="1356.51,-600.15 1349.83,-608.36 1360.18,-606.11 1356.51,-600.15"/>
</g>
<!-- Node28&#45;&gt;Node7 -->
<g id="edge52" class="edge">
<title>Node28&#45;&gt;Node7</title>
<path fill="none" stroke="#63b8ff" d="M1758.46,-479.81C1792.24,-451.72 1856,-389.58 1856,-320.62 1856,-320.62 1856,-320.62 1856,-124.75 1856,-34.36 1525.47,-15.34 1417.02,-11.53"/>
<polygon fill="#63b8ff" stroke="#63b8ff" points="1756.76,-477.49 1751.18,-486.5 1761.16,-482.93 1756.76,-477.49"/>
</g>
<!-- Node28&#45;&gt;Node18 -->
<g id="edge51" class="edge">
<title>Node28&#45;&gt;Node18</title>
<path fill="none" stroke="#63b8ff" d="M1731.75,-476.45C1723.23,-450.28 1708.29,-404.41 1701.97,-384.98"/>
<polygon fill="#63b8ff" stroke="#63b8ff" points="1728.64,-477.2 1735.07,-485.62 1735.3,-475.03 1728.64,-477.2"/>
</g>
<!-- Node30&#45;&gt;Node3 -->
<g id="edge57" class="edge">
<title>Node30&#45;&gt;Node3</title>
<path fill="none" stroke="#63b8ff" d="M1677.57,-616.37C1566.68,-603.99 1329.45,-577.52 1218.51,-565.14"/>
<polygon fill="#63b8ff" stroke="#63b8ff" points="1676.89,-619.93 1687.22,-617.56 1677.67,-612.97 1676.89,-619.93"/>
</g>
<!-- Node30&#45;&gt;Node7 -->
<g id="edge80" class="edge">
<title>Node30&#45;&gt;Node7</title>
<path fill="none" stroke="#63b8ff" d="M1796.79,-622C1879.84,-617.08 2020,-594.44 2020,-497.62 2020,-497.62 2020,-497.62 2020,-124.75 2020,-86.7 2003.18,-73.88 1970,-55.25 1921.76,-28.17 1535.28,-14.98 1417.17,-11.55"/>
<polygon fill="#63b8ff" stroke="#63b8ff" points="1796.78,-618.55 1786.97,-622.56 1797.14,-625.54 1796.78,-618.55"/>
</g>
<!-- Node30&#45;&gt;Node13 -->
<g id="edge74" class="edge">
<title>Node30&#45;&gt;Node13</title>
<path fill="none" stroke="#63b8ff" d="M1718.52,-606.92C1677.01,-570.04 1580,-479.3 1580,-436.75 1580,-436.75 1580,-436.75 1580,-373.88 1580,-340.64 1449.25,-226.91 1326,-177 1137.94,-100.85 493.83,-73.59 313.98,-67.36"/>
<polygon fill="#63b8ff" stroke="#63b8ff" points="1715.88,-609.14 1725.7,-613.12 1720.51,-603.89 1715.88,-609.14"/>
</g>
<!-- Node30&#45;&gt;Node18 -->
<g id="edge65" class="edge">
<title>Node30&#45;&gt;Node18</title>
<path fill="none" stroke="#63b8ff" d="M1723.89,-605.13C1708.67,-583.16 1684.43,-544.1 1675,-506.25 1663.76,-461.14 1685.2,-406.04 1694.75,-384.81"/>
<polygon fill="#63b8ff" stroke="#63b8ff" points="1721.52,-606.84 1730.17,-612.96 1727.23,-602.78 1721.52,-606.84"/>
</g>
<!-- Node30&#45;&gt;Node23 -->
<g id="edge58" class="edge">
<title>Node30&#45;&gt;Node23</title>
<path fill="none" stroke="#63b8ff" d="M1796.77,-613.54C1856.82,-603.88 1951.99,-588.15 2034,-572.75 2042.54,-571.15 2051.64,-569.34 2060.35,-567.56"/>
<polygon fill="#63b8ff" stroke="#63b8ff" points="1796.29,-610.23 1786.97,-615.27 1797.4,-617.14 1796.29,-610.23"/>
</g>
<!-- Node30&#45;&gt;Node28 -->
<g id="edge77" class="edge">
<title>Node30&#45;&gt;Node28</title>
<path fill="none" stroke="#63b8ff" d="M1744.24,-603.56C1747.29,-594.36 1750.48,-583.14 1752,-572.75 1753.96,-559.34 1754.05,-555.65 1752,-542.25 1750.06,-529.57 1745.18,-515.54 1741.73,-506.66"/>
<polygon fill="#63b8ff" stroke="#63b8ff" points="1740.61,-602.32 1740.58,-612.92 1747.21,-604.65 1740.61,-602.32"/>
</g>
<!-- Node30&#45;&gt;Node31 -->
<g id="edge59" class="edge">
<title>Node30&#45;&gt;Node31</title>
<path fill="none" stroke="#63b8ff" d="M1796.48,-618.73C1879.84,-612.14 2035.9,-597.58 2167,-572.75 2174.34,-571.36 2182.14,-569.52 2189.48,-567.62"/>
<polygon fill="#63b8ff" stroke="#63b8ff" points="1796.4,-615.3 1786.7,-619.57 1796.95,-622.28 1796.4,-615.3"/>
</g>
<!-- Node30&#45;&gt;Node32 -->
<g id="edge61" class="edge">
<title>Node30&#45;&gt;Node32</title>
<path fill="none" stroke="#63b8ff" d="M1769.76,-609.88C1801.21,-597.28 1847.88,-578.58 1875.39,-567.56"/>
<polygon fill="#63b8ff" stroke="#63b8ff" points="1768.71,-606.93 1760.73,-613.9 1771.31,-613.43 1768.71,-606.93"/>
</g>
<!-- Node30&#45;&gt;Node33 -->
<g id="edge66" class="edge">
<title>Node30&#45;&gt;Node33</title>
<path fill="none" stroke="#63b8ff" d="M1796.39,-618.48C1895.66,-610.7 2101.51,-593.58 2275,-572.75 2290.21,-570.92 2306.71,-568.62 2321.72,-566.4"/>
<polygon fill="#63b8ff" stroke="#63b8ff" points="1796.38,-615.05 1786.68,-619.32 1796.93,-622.03 1796.38,-615.05"/>
</g>
<!-- Node30&#45;&gt;Node34 -->
<g id="edge68" class="edge">
<title>Node30&#45;&gt;Node34</title>
<path fill="none" stroke="#63b8ff" d="M1704.86,-609.71C1674.39,-597.12 1629.45,-578.53 1602.91,-567.56"/>
<polygon fill="#63b8ff" stroke="#63b8ff" points="1703.4,-613.31 1713.98,-613.9 1706.08,-606.84 1703.4,-613.31"/>
</g>
<!-- Node30&#45;&gt;Node36 -->
<g id="edge75" class="edge">
<title>Node30&#45;&gt;Node36</title>
<path fill="none" stroke="#63b8ff" d="M1796.5,-621.99C1916.96,-619.21 2198.06,-609.06 2431,-572.75 2439.33,-571.45 2448.21,-569.57 2456.5,-567.6"/>
<polygon fill="#63b8ff" stroke="#63b8ff" points="1796.61,-618.51 1786.69,-622.23 1796.76,-625.5 1796.61,-618.51"/>
</g>
<!-- Node30&#45;&gt;Node37 -->
<g id="edge78" class="edge">
<title>Node30&#45;&gt;Node37</title>
<path fill="none" stroke="#63b8ff" d="M1796.73,-623.03C1931.66,-622.3 2270,-615.89 2549,-572.75 2557.17,-571.49 2565.87,-569.6 2573.96,-567.6"/>
<polygon fill="#63b8ff" stroke="#63b8ff" points="1796.82,-619.54 1786.84,-623.08 1796.86,-626.54 1796.82,-619.54"/>
</g>
<!-- Node31&#45;&gt;Node7 -->
<g id="edge60" class="edge">
<title>Node31&#45;&gt;Node7</title>
<path fill="none" stroke="#63b8ff" d="M2208.03,-538.68C2192.92,-516.13 2170,-475.53 2170,-436.75 2170,-436.75 2170,-436.75 2170,-124.75 2170,-67.3 2115.6,-73.14 2061,-55.25 1939.51,-15.44 1537.71,-11.05 1417.36,-10.64"/>
<polygon fill="#63b8ff" stroke="#63b8ff" points="2205.54,-540.23 2214.12,-546.44 2211.28,-536.24 2205.54,-540.23"/>
</g>
<!-- Node32&#45;&gt;Node4 -->
<g id="edge62" class="edge">
<title>Node32&#45;&gt;Node4</title>
<path fill="none" stroke="#63b8ff" d="M1905.67,-537.44C1910.28,-523.36 1914.46,-503.81 1910,-487 1901.26,-454.1 1894.43,-446.11 1872,-420.5 1818.61,-359.55 1802.33,-339.85 1727,-310 1648.95,-279.07 1400.36,-265.88 1293.08,-261.52"/>
<polygon fill="#63b8ff" stroke="#63b8ff" points="1902.18,-535.8 1902.04,-546.39 1908.75,-538.2 1902.18,-535.8"/>
</g>
<!-- Node32&#45;&gt;Node7 -->
<g id="edge64" class="edge">
<title>Node32&#45;&gt;Node7</title>
<path fill="none" stroke="#63b8ff" d="M1916.33,-540.2C1938.24,-518.81 1972,-479.01 1972,-436.75 1972,-436.75 1972,-436.75 1972,-124.75 1972,-92.07 1973.84,-75.25 1948,-55.25 1905.98,-22.73 1532.64,-13.32 1416.99,-11.17"/>
<polygon fill="#63b8ff" stroke="#63b8ff" points="1914.49,-537.06 1909.6,-546.46 1919.29,-542.16 1914.49,-537.06"/>
</g>
<!-- Node32&#45;&gt;Node28 -->
<g id="edge63" class="edge">
<title>Node32&#45;&gt;Node28</title>
<path fill="none" stroke="#63b8ff" d="M1863.2,-543.7C1832.85,-532.53 1789.58,-516.61 1762.68,-506.71"/>
<polygon fill="#63b8ff" stroke="#63b8ff" points="1861.76,-547.26 1872.35,-547.43 1864.17,-540.69 1861.76,-547.26"/>
</g>
<!-- Node33&#45;&gt;Node7 -->
<g id="edge67" class="edge">
<title>Node33&#45;&gt;Node7</title>
<path fill="none" stroke="#63b8ff" d="M2345.3,-534.93C2321.37,-513 2290,-476.64 2290,-436.75 2290,-436.75 2290,-436.75 2290,-124.75 2290,-39.41 2194.36,-73.52 2111,-55.25 1976.02,-25.66 1542.07,-14.09 1417.02,-11.32"/>
<polygon fill="#63b8ff" stroke="#63b8ff" points="2342.58,-537.08 2352.39,-541.07 2347.21,-531.83 2342.58,-537.08"/>
</g>
<!-- Node34&#45;&gt;Node7 -->
<g id="edge73" class="edge">
<title>Node34&#45;&gt;Node7</title>
<path fill="none" stroke="#63b8ff" d="M1570.94,-538C1559.39,-514.98 1542,-474.12 1542,-436.75 1542,-436.75 1542,-436.75 1542,-124.75 1542,-63.76 1463.83,-32.19 1417.11,-18.77"/>
<polygon fill="#63b8ff" stroke="#63b8ff" points="1568.18,-539.26 1575.9,-546.51 1574.38,-536.03 1568.18,-539.26"/>
</g>
<!-- Node34&#45;&gt;Node16 -->
<g id="edge69" class="edge">
<title>Node34&#45;&gt;Node16</title>
<path fill="none" stroke="#63b8ff" d="M1517.23,-547.07C1505.2,-545.39 1492.72,-543.71 1481,-542.25 1352.22,-526.19 1200.6,-510.86 1120.39,-503.03"/>
<polygon fill="#63b8ff" stroke="#63b8ff" points="1516.72,-550.68 1527.11,-548.61 1517.7,-543.75 1516.72,-550.68"/>
</g>
<!-- Node34&#45;&gt;Node35 -->
<g id="edge70" class="edge">
<title>Node34&#45;&gt;Node35</title>
<path fill="none" stroke="#63b8ff" d="M1585.11,-536.76C1592.83,-501.45 1611.08,-425.52 1637,-365.25 1642.6,-352.24 1651.19,-338.29 1656.95,-329.52"/>
<polygon fill="#63b8ff" stroke="#63b8ff" points="1581.49,-535.95 1582.83,-546.46 1588.34,-537.42 1581.49,-535.95"/>
</g>
<!-- Node35&#45;&gt;Node4 -->
<g id="edge71" class="edge">
<title>Node35&#45;&gt;Node4</title>
<path fill="none" stroke="#63b8ff" d="M1596.93,-309.36C1512.6,-297.54 1368.6,-277.36 1292.89,-266.74"/>
<polygon fill="#63b8ff" stroke="#63b8ff" points="1596.27,-312.95 1606.66,-310.87 1597.24,-306.01 1596.27,-312.95"/>
</g>
<!-- Node35&#45;&gt;Node7 -->
<g id="edge72" class="edge">
<title>Node35&#45;&gt;Node7</title>
<path fill="none" stroke="#63b8ff" d="M1652.77,-299.95C1640.63,-275.98 1622,-232.77 1622,-193.25 1622,-193.25 1622,-193.25 1622,-124.75 1622,-35.09 1483.33,-15.8 1417.24,-11.7"/>
<polygon fill="#63b8ff" stroke="#63b8ff" points="1650.06,-301.3 1657.81,-308.52 1656.25,-298.04 1650.06,-301.3"/>
</g>
<!-- Node36&#45;&gt;Node7 -->
<g id="edge76" class="edge">
<title>Node36&#45;&gt;Node7</title>
<path fill="none" stroke="#63b8ff" d="M2460.16,-542.66C2424.91,-524.02 2371,-487.25 2371,-436.75 2371,-436.75 2371,-436.75 2371,-124.75 2371,-43.12 2280.64,-73.17 2201,-55.25 2048.02,-20.83 1551.71,-12.6 1417,-10.98"/>
<polygon fill="#63b8ff" stroke="#63b8ff" points="2458.04,-546.02 2468.54,-547.44 2461.22,-539.78 2458.04,-546.02"/>
</g>
<!-- Node37&#45;&gt;Node7 -->
<g id="edge79" class="edge">
<title>Node37&#45;&gt;Node7</title>
<path fill="none" stroke="#63b8ff" d="M2579.94,-541.7C2549.14,-522.04 2502,-484.21 2502,-436.75 2502,-436.75 2502,-436.75 2502,-124.75 2502,-12.83 1604.64,-9.84 1417.1,-10.44"/>
<polygon fill="#63b8ff" stroke="#63b8ff" points="2577.94,-545.19 2588.29,-547.43 2581.6,-539.22 2577.94,-545.19"/>
</g>
<!-- Node38&#45;&gt;Node7 -->
<g id="edge92" class="edge">
<title>Node38&#45;&gt;Node7</title>
<path fill="none" stroke="#63b8ff" d="M655.19,-735.15C644.51,-727.25 632.17,-716.93 623,-705.75 601.82,-679.92 602.84,-669.17 588,-639.25 490.82,-443.31 380,-411.97 380,-193.25 380,-193.25 380,-193.25 380,-124.75 380,-46 466.28,-73.06 543,-55.25 700.19,-18.77 1212,-12.02 1349,-10.85"/>
<polygon fill="#63b8ff" stroke="#63b8ff" points="652.83,-738.48 663.01,-741.42 656.89,-732.77 652.83,-738.48"/>
</g>
<!-- Node38&#45;&gt;Node15 -->
<g id="edge89" class="edge">
<title>Node38&#45;&gt;Node15</title>
<path fill="none" stroke="#63b8ff" d="M664.92,-732.73C637.22,-694.14 573.35,-598.27 551,-506.25 546.36,-487.17 554.56,-465.35 561.59,-451.33"/>
<polygon fill="#63b8ff" stroke="#63b8ff" points="662.42,-734.25 671.14,-740.28 668.08,-730.13 662.42,-734.25"/>
</g>
<!-- Node38&#45;&gt;Node25 -->
<g id="edge91" class="edge">
<title>Node38&#45;&gt;Node25</title>
<path fill="none" stroke="#63b8ff" d="M714.34,-737.86C746.82,-726.68 793.62,-710.57 822.63,-700.58"/>
<polygon fill="#63b8ff" stroke="#63b8ff" points="713.66,-734.74 705.34,-741.3 715.94,-741.36 713.66,-734.74"/>
</g>
<!-- Node38&#45;&gt;Node30 -->
<g id="edge90" class="edge">
<title>Node38&#45;&gt;Node30</title>
<path fill="none" stroke="#63b8ff" d="M735.87,-749.81C902.51,-747.79 1381.26,-739.16 1534,-705.75 1606.07,-689.99 1685.81,-651.56 1719.96,-634.01"/>
<polygon fill="#63b8ff" stroke="#63b8ff" points="736.31,-746.31 726.35,-749.93 736.39,-753.31 736.31,-746.31"/>
</g>
<!-- Node39 -->
<g id="node39" class="node">
<title>Node39</title>
<g id="a_node39"><a xlink:href="v8-cpp-heap-external_8h.html" target="_top" xlink:title=" ">
<polygon fill="white" stroke="#666666" points="777.5,-705.75 674.5,-705.75 674.5,-675.25 777.5,-675.25 777.5,-705.75"/>
<text text-anchor="start" x="682.5" y="-692.25" font-family="Helvetica,sans-Serif" font-size="10.00">include/v8&#45;cpp&#45;heap</text>
<text text-anchor="middle" x="726" y="-681" font-family="Helvetica,sans-Serif" font-size="10.00">&#45;external.h</text>
</a>
</g>
</g>
<!-- Node38&#45;&gt;Node39 -->
<g id="edge85" class="edge">
<title>Node38&#45;&gt;Node39</title>
<path fill="none" stroke="#63b8ff" d="M692.2,-732.95C699.19,-724.38 707.51,-714.17 714.15,-706.03"/>
<polygon fill="#63b8ff" stroke="#63b8ff" points="688.9,-730.47 685.29,-740.43 694.32,-734.89 688.9,-730.47"/>
</g>
<!-- Node40 -->
<g id="node40" class="node">
<title>Node40</title>
<g id="a_node40"><a xlink:href="v8-external_8h.html" target="_top" xlink:title=" ">
<polygon fill="white" stroke="#666666" points="664.25,-506.25 559.75,-506.25 559.75,-487 664.25,-487 664.25,-506.25"/>
<text text-anchor="middle" x="612" y="-492.75" font-family="Helvetica,sans-Serif" font-size="10.00">include/v8&#45;external.h</text>
</a>
</g>
</g>
<!-- Node38&#45;&gt;Node40 -->
<g id="edge86" class="edge">
<title>Node38&#45;&gt;Node40</title>
<path fill="none" stroke="#63b8ff" d="M672.26,-731.2C669.94,-723.33 667.28,-714.12 665,-705.75 643.99,-628.77 621.07,-535.06 614.12,-506.38"/>
<polygon fill="#63b8ff" stroke="#63b8ff" points="669.12,-731.92 675.32,-740.51 675.83,-729.93 669.12,-731.92"/>
</g>
<!-- Node40&#45;&gt;Node7 -->
<g id="edge88" class="edge">
<title>Node40&#45;&gt;Node7</title>
<path fill="none" stroke="#63b8ff" d="M619.96,-476.46C622.78,-468.7 625.6,-459.56 627,-451 629.19,-437.62 628.44,-433.98 627,-420.5 616.05,-317.76 578,-296.57 578,-193.25 578,-193.25 578,-193.25 578,-124.75 578,-83.36 602.75,-73.3 640,-55.25 704.25,-24.12 1211.29,-13.48 1348.74,-11.15"/>
<polygon fill="#63b8ff" stroke="#63b8ff" points="616.37,-475.03 616,-485.62 622.89,-477.57 616.37,-475.03"/>
</g>
<!-- Node40&#45;&gt;Node15 -->
<g id="edge87" class="edge">
<title>Node40&#45;&gt;Node15</title>
<path fill="none" stroke="#63b8ff" d="M599.38,-477.93C593.3,-469.42 586.11,-459.34 580.37,-451.28"/>
<polygon fill="#63b8ff" stroke="#63b8ff" points="596.96,-479.57 605.62,-485.68 602.66,-475.51 596.96,-479.57"/>
</g>
<!-- Node42 -->
<g id="node42" class="node">
<title>Node42</title>
<g id="a_node42"><a xlink:href="v8-unwinder_8h.html" target="_top" xlink:title=" ">
<polygon fill="white" stroke="#666666" points="1475.88,-329.25 1366.12,-329.25 1366.12,-310 1475.88,-310 1475.88,-329.25"/>
<text text-anchor="middle" x="1421" y="-315.75" font-family="Helvetica,sans-Serif" font-size="10.00">include/v8&#45;unwinder.h</text>
</a>
</g>
</g>
<!-- Node41&#45;&gt;Node42 -->
<g id="edge96" class="edge">
<title>Node41&#45;&gt;Node42</title>
<path fill="none" stroke="#63b8ff" d="M1245.34,-785.74C1245.63,-761.5 1246,-724.02 1246,-691.5 1246,-691.5 1246,-691.5 1246,-623 1246,-552.91 1315.57,-566.13 1352,-506.25 1389.88,-443.98 1412.34,-357.54 1418.94,-329.67"/>
<polygon fill="#63b8ff" stroke="#63b8ff" points="1241.83,-785.46 1245.2,-795.5 1248.83,-785.55 1241.83,-785.46"/>
</g>
<!-- Node42&#45;&gt;Node4 -->
<g id="edge97" class="edge">
<title>Node42&#45;&gt;Node4</title>
<path fill="none" stroke="#63b8ff" d="M1383.17,-306.11C1349.37,-294.93 1300.65,-278.82 1270.45,-268.83"/>
<polygon fill="#63b8ff" stroke="#63b8ff" points="1381.98,-309.74 1392.58,-309.55 1384.18,-303.09 1381.98,-309.74"/>
</g>
<!-- Node42&#45;&gt;Node7 -->
<g id="edge98" class="edge">
<title>Node42&#45;&gt;Node7</title>
<path fill="none" stroke="#63b8ff" d="M1421,-298.69C1421,-273.95 1421,-230.49 1421,-193.25 1421,-193.25 1421,-193.25 1421,-124.75 1421,-83.82 1398.73,-38.67 1388.28,-19.75"/>
<polygon fill="#63b8ff" stroke="#63b8ff" points="1417.5,-298.5 1421,-308.5 1424.5,-298.5 1417.5,-298.5"/>
</g>
<!-- Node44&#45;&gt;Node7 -->
<g id="edge111" class="edge">
<title>Node44&#45;&gt;Node7</title>
<path fill="none" stroke="#63b8ff" d="M2774.15,-232.13C2772.87,-187.73 2763.08,-97.22 2707,-55.25 2653.86,-15.48 1619.7,-11.15 1417.22,-10.68"/>
<polygon fill="#63b8ff" stroke="#63b8ff" points="2770.67,-232.16 2774.32,-242.1 2777.67,-232.05 2770.67,-232.16"/>
</g>
<!-- Node45&#45;&gt;Node4 -->
<g id="edge114" class="edge">
<title>Node45&#45;&gt;Node4</title>
<path fill="none" stroke="#63b8ff" d="M1476.91,-664.64C1491.21,-589.13 1529.13,-364.23 1485,-310 1461.27,-280.84 1356.62,-268.05 1292.96,-262.89"/>
<polygon fill="#63b8ff" stroke="#63b8ff" points="1473.36,-663.57 1474.91,-674.05 1480.23,-664.89 1473.36,-663.57"/>
</g>
<!-- Node45&#45;&gt;Node7 -->
<g id="edge118" class="edge">
<title>Node45&#45;&gt;Node7</title>
<path fill="none" stroke="#63b8ff" d="M1516.29,-670.46C1631.93,-619.34 1934,-476.21 1934,-375.88 1934,-375.88 1934,-375.88 1934,-124.75 1934,-18.63 1537.18,-10.43 1417.05,-10.38"/>
<polygon fill="#63b8ff" stroke="#63b8ff" points="1515.09,-667.6 1507.35,-674.83 1517.91,-674.01 1515.09,-667.6"/>
</g>
<!-- Node45&#45;&gt;Node20 -->
<g id="edge116" class="edge">
<title>Node45&#45;&gt;Node20</title>
<path fill="none" stroke="#63b8ff" d="M1408,-681.06C1302.44,-665.67 1099.35,-629.3 1058,-572.75 1050,-561.81 1050.91,-553.8 1058,-542.25 1076.52,-512.1 1110.48,-536.4 1129,-506.25 1133.48,-498.96 1133.1,-494.51 1129,-487 1098.46,-431.08 1026.4,-399.11 985.57,-384.89"/>
<polygon fill="#63b8ff" stroke="#63b8ff" points="1407.43,-684.66 1417.83,-682.62 1408.43,-677.73 1407.43,-684.66"/>
</g>
<!-- Node45&#45;&gt;Node29 -->
<g id="edge117" class="edge">
<title>Node45&#45;&gt;Node29</title>
<path fill="none" stroke="#63b8ff" d="M1464.04,-664.66C1454.58,-635.15 1439.28,-587.44 1432.92,-567.6"/>
<polygon fill="#63b8ff" stroke="#63b8ff" points="1460.96,-665.53 1467.34,-673.98 1467.62,-663.39 1460.96,-665.53"/>
</g>
<!-- Node45&#45;&gt;Node30 -->
<g id="edge115" class="edge">
<title>Node45&#45;&gt;Node30</title>
<path fill="none" stroke="#63b8ff" d="M1535.92,-673.94C1587.1,-661.49 1657.11,-644.45 1699.58,-634.11"/>
<polygon fill="#63b8ff" stroke="#63b8ff" points="1535.2,-670.76 1526.31,-676.53 1536.85,-677.56 1535.2,-670.76"/>
</g>
<!-- Node46&#45;&gt;Node7 -->
<g id="edge134" class="edge">
<title>Node46&#45;&gt;Node7</title>
<path fill="none" stroke="#63b8ff" d="M2659.03,-675.95C2675.28,-667.94 2692.73,-656.01 2702,-639.25 2708.56,-627.39 2702.15,-622.3 2702,-608.75 2700,-424.05 2693,-377.96 2693,-193.25 2693,-193.25 2693,-193.25 2693,-124.75 2693,15.15 2524.65,-73.88 2386,-55.25 2192.63,-29.27 1570.4,-14.6 1417.28,-11.33"/>
<polygon fill="#63b8ff" stroke="#63b8ff" points="2657.81,-673.12 2650.15,-680.44 2660.71,-679.49 2657.81,-673.12"/>
</g>
<!-- Node46&#45;&gt;Node30 -->
<g id="edge133" class="edge">
<title>Node46&#45;&gt;Node30</title>
<path fill="none" stroke="#63b8ff" d="M2546.15,-683.97C2369.06,-671.07 1932.32,-639.23 1785.81,-628.56"/>
<polygon fill="#63b8ff" stroke="#63b8ff" points="2545.7,-687.52 2555.92,-684.76 2546.2,-680.54 2545.7,-687.52"/>
</g>
<!-- Node47 -->
<g id="node47" class="node">
<title>Node47</title>
<g id="a_node47"><a xlink:href="v8-cppgc_8h.html" target="_top" xlink:title=" ">
<polygon fill="white" stroke="#666666" points="2692.5,-633.62 2595.5,-633.62 2595.5,-614.38 2692.5,-614.38 2692.5,-633.62"/>
<text text-anchor="middle" x="2644" y="-620.12" font-family="Helvetica,sans-Serif" font-size="10.00">include/v8&#45;cppgc.h</text>
</a>
</g>
</g>
<!-- Node46&#45;&gt;Node47 -->
<g id="edge130" class="edge">
<title>Node46&#45;&gt;Node47</title>
<path fill="none" stroke="#63b8ff" d="M2628.6,-670.15C2632.71,-658.11 2637.79,-643.2 2640.97,-633.89"/>
<polygon fill="#63b8ff" stroke="#63b8ff" points="2624.97,-668.94 2625.06,-679.53 2631.6,-671.2 2624.97,-668.94"/>
</g>
<!-- Node48 -->
<g id="node48" class="node">
<title>Node48</title>
<g id="a_node48"><a xlink:href="v8-embedder-heap_8h.html" target="_top" xlink:title=" ">
<polygon fill="white" stroke="#666666" points="2672,-451 2566,-451 2566,-420.5 2672,-420.5 2672,-451"/>
<text text-anchor="start" x="2574" y="-437.5" font-family="Helvetica,sans-Serif" font-size="10.00">include/v8&#45;embedder</text>
<text text-anchor="middle" x="2619" y="-426.25" font-family="Helvetica,sans-Serif" font-size="10.00">&#45;heap.h</text>
</a>
</g>
</g>
<!-- Node46&#45;&gt;Node48 -->
<g id="edge131" class="edge">
<title>Node46&#45;&gt;Node48</title>
<path fill="none" stroke="#63b8ff" d="M2605.41,-672.68C2590.85,-655.79 2573.87,-629.39 2587,-608.75 2607.28,-576.88 2643.72,-604.62 2664,-572.75 2671.28,-561.31 2666.71,-555.53 2664,-542.25 2657.02,-508.11 2638.56,-471.34 2627.57,-451.5"/>
<polygon fill="#63b8ff" stroke="#63b8ff" points="2602.3,-674.56 2611.64,-679.56 2607.46,-669.83 2602.3,-674.56"/>
</g>
<!-- Node48&#45;&gt;Node4 -->
<g id="edge132" class="edge">
<title>Node48&#45;&gt;Node4</title>
<path fill="none" stroke="#63b8ff" d="M2554.76,-423.71C2416.17,-400.19 2078.58,-344.46 1794,-310 1609.72,-287.68 1389.67,-270.42 1292.87,-263.3"/>
<polygon fill="#63b8ff" stroke="#63b8ff" points="2554.14,-427.33 2564.58,-425.55 2555.31,-420.42 2554.14,-427.33"/>
</g>
<!-- Node49&#45;&gt;Node7 -->
<g id="edge137" class="edge">
<title>Node49&#45;&gt;Node7</title>
<path fill="none" stroke="#63b8ff" d="M2855,-730.44C2855,-705.7 2855,-662.24 2855,-625 2855,-625 2855,-625 2855,-124.75 2855,-61.18 2791.26,-72.22 2730,-55.25 2600.2,-19.29 1614.24,-11.92 1417.2,-10.8"/>
<polygon fill="#63b8ff" stroke="#63b8ff" points="2851.5,-730.25 2855,-740.25 2858.5,-730.25 2851.5,-730.25"/>
</g>
</g>
</svg>
