<?xml version="1.0" encoding="UTF-8" standalone="no"?>
<!DOCTYPE svg PUBLIC "-//W3C//DTD SVG 1.1//EN"
 "http://www.w3.org/Graphics/SVG/1.1/DTD/svg11.dtd">
<!-- Generated by graphviz version 8.0.5 (20230430.1635)
 -->
<!-- Title: include/v8&#45;internal.h Pages: 1 -->
<svg width="782pt" height="138pt"
 viewBox="0.00 0.00 782.00 137.75" xmlns="http://www.w3.org/2000/svg" xmlns:xlink="http://www.w3.org/1999/xlink">
<g id="graph0" class="graph" transform="scale(1 1) rotate(0) translate(4 133.75)">
<title>include/v8&#45;internal.h</title>
<!-- Node1 -->
<g id="node1" class="node">
<title>Node1</title>
<g id="a_node1"><a xlink:title=" ">
<polygon fill="#999999" stroke="#666666" points="447.38,-129.75 345.12,-129.75 345.12,-110.5 447.38,-110.5 447.38,-129.75"/>
<text text-anchor="middle" x="396.25" y="-116.25" font-family="Helvetica,sans-Serif" font-size="10.00">include/v8&#45;internal.h</text>
</a>
</g>
</g>
<!-- Node2 -->
<g id="node2" class="node">
<title>Node2</title>
<g id="a_node2"><a xlink:title=" ">
<polygon fill="#e0e0e0" stroke="#999999" points="50.5,-74.5 0,-74.5 0,-55.25 50.5,-55.25 50.5,-74.5"/>
<text text-anchor="middle" x="25.25" y="-61" font-family="Helvetica,sans-Serif" font-size="10.00">stddef.h</text>
</a>
</g>
</g>
<!-- Node1&#45;&gt;Node2 -->
<g id="edge1" class="edge">
<title>Node1&#45;&gt;Node2</title>
<path fill="none" stroke="#63b8ff" d="M344.85,-114.21C280.65,-107.64 167.26,-94.69 61.35,-74.71"/>
<polygon fill="#63b8ff" stroke="#63b8ff" points="62.28,-71.14 51.8,-72.7 60.96,-78.01 62.28,-71.14"/>
</g>
<!-- Node3 -->
<g id="node3" class="node">
<title>Node3</title>
<g id="a_node3"><a xlink:title=" ">
<polygon fill="#e0e0e0" stroke="#999999" points="116,-74.5 68.5,-74.5 68.5,-55.25 116,-55.25 116,-74.5"/>
<text text-anchor="middle" x="92.25" y="-61" font-family="Helvetica,sans-Serif" font-size="10.00">stdint.h</text>
</a>
</g>
</g>
<!-- Node1&#45;&gt;Node3 -->
<g id="edge2" class="edge">
<title>Node1&#45;&gt;Node3</title>
<path fill="none" stroke="#63b8ff" d="M344.79,-112.1C292.32,-104.61 208.39,-91.74 126.79,-74.66"/>
<polygon fill="#63b8ff" stroke="#63b8ff" points="127.85,-71.09 117.34,-72.45 126.4,-77.94 127.85,-71.09"/>
</g>
<!-- Node4 -->
<g id="node4" class="node">
<title>Node4</title>
<g id="a_node4"><a xlink:title=" ">
<polygon fill="#e0e0e0" stroke="#999999" points="182,-74.5 134.5,-74.5 134.5,-55.25 182,-55.25 182,-74.5"/>
<text text-anchor="middle" x="158.25" y="-61" font-family="Helvetica,sans-Serif" font-size="10.00">string.h</text>
</a>
</g>
</g>
<!-- Node1&#45;&gt;Node4 -->
<g id="edge3" class="edge">
<title>Node1&#45;&gt;Node4</title>
<path fill="none" stroke="#63b8ff" d="M351.09,-110.02C311.55,-101.89 252.29,-89.35 192.68,-75.01"/>
<polygon fill="#63b8ff" stroke="#63b8ff" points="193.87,-71.46 183.33,-72.5 192.22,-78.26 193.87,-71.46"/>
</g>
<!-- Node5 -->
<g id="node5" class="node">
<title>Node5</title>
<g id="a_node5"><a xlink:title=" ">
<polygon fill="#e0e0e0" stroke="#999999" points="244.88,-74.5 199.62,-74.5 199.62,-55.25 244.88,-55.25 244.88,-74.5"/>
<text text-anchor="middle" x="222.25" y="-61" font-family="Helvetica,sans-Serif" font-size="10.00">atomic</text>
</a>
</g>
</g>
<!-- Node1&#45;&gt;Node5 -->
<g id="edge4" class="edge">
<title>Node1&#45;&gt;Node5</title>
<path fill="none" stroke="#63b8ff" d="M366.73,-110.09C335.9,-100.65 287.62,-85.88 255.47,-76.04"/>
<polygon fill="#63b8ff" stroke="#63b8ff" points="256.82,-72.49 246.23,-72.91 254.77,-79.18 256.82,-72.49"/>
</g>
<!-- Node6 -->
<g id="node6" class="node">
<title>Node6</title>
<g id="a_node6"><a xlink:title=" ">
<polygon fill="#e0e0e0" stroke="#999999" points="316,-74.5 262.5,-74.5 262.5,-55.25 316,-55.25 316,-74.5"/>
<text text-anchor="middle" x="289.25" y="-61" font-family="Helvetica,sans-Serif" font-size="10.00">compare</text>
</a>
</g>
</g>
<!-- Node1&#45;&gt;Node6 -->
<g id="edge5" class="edge">
<title>Node1&#45;&gt;Node6</title>
<path fill="none" stroke="#63b8ff" d="M378.1,-110.09C361.42,-101.79 336.45,-89.36 317.22,-79.79"/>
<polygon fill="#63b8ff" stroke="#63b8ff" points="319,-76.27 308.49,-74.95 315.88,-82.54 319,-76.27"/>
</g>
<!-- Node7 -->
<g id="node7" class="node">
<title>Node7</title>
<g id="a_node7"><a xlink:title=" ">
<polygon fill="#e0e0e0" stroke="#999999" points="390.12,-74.5 334.38,-74.5 334.38,-55.25 390.12,-55.25 390.12,-74.5"/>
<text text-anchor="middle" x="362.25" y="-61" font-family="Helvetica,sans-Serif" font-size="10.00">concepts</text>
</a>
</g>
</g>
<!-- Node1&#45;&gt;Node7 -->
<g id="edge6" class="edge">
<title>Node1&#45;&gt;Node7</title>
<path fill="none" stroke="#63b8ff" d="M390.64,-110.33C386.09,-103.21 379.52,-92.93 373.85,-84.05"/>
<polygon fill="#63b8ff" stroke="#63b8ff" points="376.32,-82.4 367.99,-75.86 370.42,-86.17 376.32,-82.4"/>
</g>
<!-- Node8 -->
<g id="node8" class="node">
<title>Node8</title>
<g id="a_node8"><a xlink:title=" ">
<polygon fill="#e0e0e0" stroke="#999999" points="454.25,-74.5 408.25,-74.5 408.25,-55.25 454.25,-55.25 454.25,-74.5"/>
<text text-anchor="middle" x="431.25" y="-61" font-family="Helvetica,sans-Serif" font-size="10.00">iterator</text>
</a>
</g>
</g>
<!-- Node1&#45;&gt;Node8 -->
<g id="edge7" class="edge">
<title>Node1&#45;&gt;Node8</title>
<path fill="none" stroke="#63b8ff" d="M402.03,-110.33C406.71,-103.21 413.47,-92.93 419.31,-84.05"/>
<polygon fill="#63b8ff" stroke="#63b8ff" points="422.78,-86.14 425.34,-75.86 416.93,-82.29 422.78,-86.14"/>
</g>
<!-- Node9 -->
<g id="node9" class="node">
<title>Node9</title>
<g id="a_node9"><a xlink:title=" ">
<polygon fill="#e0e0e0" stroke="#999999" points="511.88,-74.5 472.62,-74.5 472.62,-55.25 511.88,-55.25 511.88,-74.5"/>
<text text-anchor="middle" x="492.25" y="-61" font-family="Helvetica,sans-Serif" font-size="10.00">limits</text>
</a>
</g>
</g>
<!-- Node1&#45;&gt;Node9 -->
<g id="edge8" class="edge">
<title>Node1&#45;&gt;Node9</title>
<path fill="none" stroke="#63b8ff" d="M412.54,-110.09C427.29,-101.91 449.29,-89.71 466.44,-80.19"/>
<polygon fill="#63b8ff" stroke="#63b8ff" points="467.84,-82.86 474.89,-74.95 464.44,-76.74 467.84,-82.86"/>
</g>
<!-- Node10 -->
<g id="node10" class="node">
<title>Node10</title>
<g id="a_node10"><a xlink:title=" ">
<polygon fill="#e0e0e0" stroke="#999999" points="667.5,-19.25 617,-19.25 617,0 667.5,0 667.5,-19.25"/>
<text text-anchor="middle" x="642.25" y="-5.75" font-family="Helvetica,sans-Serif" font-size="10.00">memory</text>
</a>
</g>
</g>
<!-- Node1&#45;&gt;Node10 -->
<g id="edge9" class="edge">
<title>Node1&#45;&gt;Node10</title>
<path fill="none" stroke="#63b8ff" d="M425.25,-110.08C450.88,-101.77 489.08,-88.65 521.25,-74.5 530.71,-70.34 583.21,-42.33 615.87,-24.81"/>
<polygon fill="#63b8ff" stroke="#63b8ff" points="617.15,-27.56 624.3,-19.74 613.83,-21.39 617.15,-27.56"/>
</g>
<!-- Node11 -->
<g id="node11" class="node">
<title>Node11</title>
<g id="a_node11"><a xlink:title=" ">
<polygon fill="#e0e0e0" stroke="#999999" points="618.12,-74.5 568.38,-74.5 568.38,-55.25 618.12,-55.25 618.12,-74.5"/>
<text text-anchor="middle" x="593.25" y="-61" font-family="Helvetica,sans-Serif" font-size="10.00">optional</text>
</a>
</g>
</g>
<!-- Node1&#45;&gt;Node11 -->
<g id="edge10" class="edge">
<title>Node1&#45;&gt;Node11</title>
<path fill="none" stroke="#63b8ff" d="M429.67,-110.09C465.18,-100.49 521.13,-85.37 557.51,-75.54"/>
<polygon fill="#63b8ff" stroke="#63b8ff" points="558.39,-78.65 567.13,-72.67 556.56,-71.9 558.39,-78.65"/>
</g>
<!-- Node12 -->
<g id="node12" class="node">
<title>Node12</title>
<g id="a_node12"><a xlink:title=" ">
<polygon fill="#e0e0e0" stroke="#999999" points="696.75,-74.5 635.75,-74.5 635.75,-55.25 696.75,-55.25 696.75,-74.5"/>
<text text-anchor="middle" x="666.25" y="-61" font-family="Helvetica,sans-Serif" font-size="10.00">type_traits</text>
</a>
</g>
</g>
<!-- Node1&#45;&gt;Node12 -->
<g id="edge11" class="edge">
<title>Node1&#45;&gt;Node12</title>
<path fill="none" stroke="#63b8ff" d="M445.44,-110.02C489.98,-101.68 557.65,-88.8 625.21,-74.88"/>
<polygon fill="#63b8ff" stroke="#63b8ff" points="625.53,-78.19 634.61,-72.73 624.11,-71.33 625.53,-78.19"/>
</g>
<!-- Node13 -->
<g id="node13" class="node">
<title>Node13</title>
<g id="a_node13"><a xlink:href="v8config_8h.html" target="_top" xlink:title=" ">
<polygon fill="white" stroke="#666666" points="774,-74.5 714.5,-74.5 714.5,-55.25 774,-55.25 774,-74.5"/>
<text text-anchor="middle" x="744.25" y="-61" font-family="Helvetica,sans-Serif" font-size="10.00">v8config.h</text>
</a>
</g>
</g>
<!-- Node1&#45;&gt;Node13 -->
<g id="edge12" class="edge">
<title>Node1&#45;&gt;Node13</title>
<path fill="none" stroke="#63b8ff" d="M447.74,-113C507.19,-105.64 608.13,-92.27 703.33,-74.93"/>
<polygon fill="#63b8ff" stroke="#63b8ff" points="703.81,-78.22 713.01,-72.97 702.54,-71.34 703.81,-78.22"/>
</g>
<!-- Node13&#45;&gt;Node10 -->
<g id="edge13" class="edge">
<title>Node13&#45;&gt;Node10</title>
<path fill="none" stroke="#63b8ff" d="M726.95,-54.84C711.12,-46.58 687.46,-34.23 669.17,-24.68"/>
<polygon fill="#63b8ff" stroke="#63b8ff" points="671.12,-21.23 660.64,-19.7 667.88,-27.43 671.12,-21.23"/>
</g>
</g>
</svg>
