<?xml version="1.0" encoding="UTF-8" standalone="no"?>
<!DOCTYPE svg PUBLIC "-//W3C//DTD SVG 1.1//EN"
 "http://www.w3.org/Graphics/SVG/1.1/DTD/svg11.dtd">
<!-- Generated by graphviz version 2.49.3 (20211027.1534)
 -->
<!-- Title: include/v8&#45;message.h Pages: 1 -->
<svg width="569pt" height="364pt"
 viewBox="0.00 0.00 568.50 364.00" xmlns="http://www.w3.org/2000/svg" xmlns:xlink="http://www.w3.org/1999/xlink">
<g id="graph0" class="graph" transform="scale(1 1) rotate(0) translate(4 360)">
<title>include/v8&#45;message.h</title>
<polygon fill="white" stroke="transparent" points="-4,4 -4,-360 564.5,-360 564.5,4 -4,4"/>
<!-- Node1 -->
<g id="node1" class="node">
<title>Node1</title>
<g id="a_node1"><a xlink:title=" ">
<polygon fill="#bfbfbf" stroke="black" points="119,-336.5 119,-355.5 230,-355.5 230,-336.5 119,-336.5"/>
<text text-anchor="middle" x="174.5" y="-343.5" font-family="Helvetica,sans-Serif" font-size="10.00">include/v8&#45;message.h</text>
</a>
</g>
</g>
<!-- Node2 -->
<g id="node2" class="node">
<title>Node2</title>
<g id="a_node2"><a xlink:title=" ">
<polygon fill="white" stroke="#bfbfbf" points="0,-280.5 0,-299.5 45,-299.5 45,-280.5 0,-280.5"/>
<text text-anchor="middle" x="22.5" y="-287.5" font-family="Helvetica,sans-Serif" font-size="10.00">stdio.h</text>
</a>
</g>
</g>
<!-- Node1&#45;&gt;Node2 -->
<g id="edge1" class="edge">
<title>Node1&#45;&gt;Node2</title>
<path fill="none" stroke="midnightblue" d="M150.42,-336.44C124.66,-327.29 83.65,-312.73 55.04,-302.56"/>
<polygon fill="midnightblue" stroke="midnightblue" points="56.07,-299.21 45.48,-299.16 53.73,-305.81 56.07,-299.21"/>
</g>
<!-- Node3 -->
<g id="node3" class="node">
<title>Node3</title>
<g id="a_node3"><a xlink:title=" ">
<polygon fill="white" stroke="#bfbfbf" points="63,-280.5 63,-299.5 108,-299.5 108,-280.5 63,-280.5"/>
<text text-anchor="middle" x="85.5" y="-287.5" font-family="Helvetica,sans-Serif" font-size="10.00">iosfwd</text>
</a>
</g>
</g>
<!-- Node1&#45;&gt;Node3 -->
<g id="edge2" class="edge">
<title>Node1&#45;&gt;Node3</title>
<path fill="none" stroke="midnightblue" d="M160.2,-336.32C146.32,-327.9 125.01,-314.97 108.7,-305.07"/>
<polygon fill="midnightblue" stroke="midnightblue" points="110.13,-301.85 99.76,-299.65 106.5,-307.83 110.13,-301.85"/>
</g>
<!-- Node4 -->
<g id="node4" class="node">
<title>Node4</title>
<g id="a_node4"><a xlink:href="v8-local-handle_8h.html" target="_top" xlink:title=" ">
<polygon fill="white" stroke="black" points="109,-112.5 109,-131.5 198,-131.5 198,-112.5 109,-112.5"/>
<text text-anchor="middle" x="153.5" y="-119.5" font-family="Helvetica,sans-Serif" font-size="10.00">v8&#45;local&#45;handle.h</text>
</a>
</g>
</g>
<!-- Node1&#45;&gt;Node4 -->
<g id="edge3" class="edge">
<title>Node1&#45;&gt;Node4</title>
<path fill="none" stroke="midnightblue" d="M173.68,-336.3C170.59,-303.63 159.64,-187.87 155.29,-141.96"/>
<polygon fill="midnightblue" stroke="midnightblue" points="158.77,-141.51 154.34,-131.88 151.8,-142.17 158.77,-141.51"/>
</g>
<!-- Node11 -->
<g id="node11" class="node">
<title>Node11</title>
<g id="a_node11"><a xlink:href="v8config_8h.html" target="_top" xlink:title=" ">
<polygon fill="white" stroke="black" points="431.5,-0.5 431.5,-19.5 491.5,-19.5 491.5,-0.5 431.5,-0.5"/>
<text text-anchor="middle" x="461.5" y="-7.5" font-family="Helvetica,sans-Serif" font-size="10.00">v8config.h</text>
</a>
</g>
</g>
<!-- Node1&#45;&gt;Node11 -->
<g id="edge29" class="edge">
<title>Node1&#45;&gt;Node11</title>
<path fill="none" stroke="midnightblue" d="M230.22,-340.78C337.11,-331.13 560.5,-302.85 560.5,-235 560.5,-235 560.5,-235 560.5,-121 560.5,-77.18 516.56,-42.93 487.23,-24.94"/>
<polygon fill="midnightblue" stroke="midnightblue" points="488.69,-21.74 478.29,-19.68 485.14,-27.77 488.69,-21.74"/>
</g>
<!-- Node12 -->
<g id="node12" class="node">
<title>Node12</title>
<g id="a_node12"><a xlink:href="v8-maybe_8h.html" target="_top" xlink:title=" ">
<polygon fill="white" stroke="black" points="428.5,-112.5 428.5,-131.5 494.5,-131.5 494.5,-112.5 428.5,-112.5"/>
<text text-anchor="middle" x="461.5" y="-119.5" font-family="Helvetica,sans-Serif" font-size="10.00">v8&#45;maybe.h</text>
</a>
</g>
</g>
<!-- Node1&#45;&gt;Node12 -->
<g id="edge13" class="edge">
<title>Node1&#45;&gt;Node12</title>
<path fill="none" stroke="midnightblue" d="M203.76,-336.39C259.1,-318.52 378.86,-271.88 438.5,-188 448.46,-173.99 454.48,-155.24 457.85,-141.48"/>
<polygon fill="midnightblue" stroke="midnightblue" points="461.27,-142.22 460.01,-131.7 454.44,-140.71 461.27,-142.22"/>
</g>
<!-- Node13 -->
<g id="node13" class="node">
<title>Node13</title>
<g id="a_node13"><a xlink:href="v8-primitive_8h.html" target="_top" xlink:title=" ">
<polygon fill="white" stroke="black" points="200.5,-280.5 200.5,-299.5 274.5,-299.5 274.5,-280.5 200.5,-280.5"/>
<text text-anchor="middle" x="237.5" y="-287.5" font-family="Helvetica,sans-Serif" font-size="10.00">v8&#45;primitive.h</text>
</a>
</g>
</g>
<!-- Node1&#45;&gt;Node13 -->
<g id="edge16" class="edge">
<title>Node1&#45;&gt;Node13</title>
<path fill="none" stroke="midnightblue" d="M184.62,-336.32C194.03,-328.26 208.24,-316.08 219.57,-306.37"/>
<polygon fill="midnightblue" stroke="midnightblue" points="221.88,-309 227.19,-299.83 217.32,-303.68 221.88,-309"/>
</g>
<!-- Node5 -->
<g id="node5" class="node">
<title>Node5</title>
<g id="a_node5"><a xlink:title=" ">
<polygon fill="white" stroke="#bfbfbf" points="62,-0.5 62,-19.5 113,-19.5 113,-0.5 62,-0.5"/>
<text text-anchor="middle" x="87.5" y="-7.5" font-family="Helvetica,sans-Serif" font-size="10.00">stddef.h</text>
</a>
</g>
</g>
<!-- Node4&#45;&gt;Node5 -->
<g id="edge4" class="edge">
<title>Node4&#45;&gt;Node5</title>
<path fill="none" stroke="midnightblue" d="M148.32,-112.37C137.48,-94.3 112.21,-52.18 97.88,-28.31"/>
<polygon fill="midnightblue" stroke="midnightblue" points="100.8,-26.37 92.65,-19.59 94.8,-29.97 100.8,-26.37"/>
</g>
<!-- Node6 -->
<g id="node6" class="node">
<title>Node6</title>
<g id="a_node6"><a xlink:title=" ">
<polygon fill="white" stroke="#bfbfbf" points="131.5,-0.5 131.5,-19.5 193.5,-19.5 193.5,-0.5 131.5,-0.5"/>
<text text-anchor="middle" x="162.5" y="-7.5" font-family="Helvetica,sans-Serif" font-size="10.00">type_traits</text>
</a>
</g>
</g>
<!-- Node4&#45;&gt;Node6 -->
<g id="edge5" class="edge">
<title>Node4&#45;&gt;Node6</title>
<path fill="none" stroke="midnightblue" d="M154.21,-112.37C155.66,-94.62 159.01,-53.67 160.98,-29.6"/>
<polygon fill="midnightblue" stroke="midnightblue" points="164.47,-29.84 161.8,-19.59 157.49,-29.27 164.47,-29.84"/>
</g>
<!-- Node7 -->
<g id="node7" class="node">
<title>Node7</title>
<g id="a_node7"><a xlink:href="v8-internal_8h.html" target="_top" xlink:title=" ">
<polygon fill="white" stroke="black" points="205,-56.5 205,-75.5 274,-75.5 274,-56.5 205,-56.5"/>
<text text-anchor="middle" x="239.5" y="-63.5" font-family="Helvetica,sans-Serif" font-size="10.00">v8&#45;internal.h</text>
</a>
</g>
</g>
<!-- Node4&#45;&gt;Node7 -->
<g id="edge6" class="edge">
<title>Node4&#45;&gt;Node7</title>
<path fill="none" stroke="midnightblue" d="M167.32,-112.32C180.73,-103.9 201.32,-90.97 217.09,-81.07"/>
<polygon fill="midnightblue" stroke="midnightblue" points="219.11,-83.94 225.72,-75.65 215.39,-78.01 219.11,-83.94"/>
</g>
<!-- Node7&#45;&gt;Node5 -->
<g id="edge7" class="edge">
<title>Node7&#45;&gt;Node5</title>
<path fill="none" stroke="midnightblue" d="M215.42,-56.44C189.96,-47.4 149.61,-33.06 121.04,-22.92"/>
<polygon fill="midnightblue" stroke="midnightblue" points="122.07,-19.57 111.47,-19.52 119.72,-26.16 122.07,-19.57"/>
</g>
<!-- Node7&#45;&gt;Node6 -->
<g id="edge10" class="edge">
<title>Node7&#45;&gt;Node6</title>
<path fill="none" stroke="midnightblue" d="M227.13,-56.32C215.34,-48.06 197.37,-35.45 183.36,-25.63"/>
<polygon fill="midnightblue" stroke="midnightblue" points="185.04,-22.53 174.84,-19.65 181.02,-28.26 185.04,-22.53"/>
</g>
<!-- Node8 -->
<g id="node8" class="node">
<title>Node8</title>
<g id="a_node8"><a xlink:title=" ">
<polygon fill="white" stroke="#bfbfbf" points="211.5,-0.5 211.5,-19.5 259.5,-19.5 259.5,-0.5 211.5,-0.5"/>
<text text-anchor="middle" x="235.5" y="-7.5" font-family="Helvetica,sans-Serif" font-size="10.00">stdint.h</text>
</a>
</g>
</g>
<!-- Node7&#45;&gt;Node8 -->
<g id="edge8" class="edge">
<title>Node7&#45;&gt;Node8</title>
<path fill="none" stroke="midnightblue" d="M238.84,-56.08C238.32,-49.01 237.56,-38.86 236.91,-29.99"/>
<polygon fill="midnightblue" stroke="midnightblue" points="240.38,-29.47 236.15,-19.75 233.4,-29.98 240.38,-29.47"/>
</g>
<!-- Node9 -->
<g id="node9" class="node">
<title>Node9</title>
<g id="a_node9"><a xlink:title=" ">
<polygon fill="white" stroke="#bfbfbf" points="277.5,-0.5 277.5,-19.5 325.5,-19.5 325.5,-0.5 277.5,-0.5"/>
<text text-anchor="middle" x="301.5" y="-7.5" font-family="Helvetica,sans-Serif" font-size="10.00">string.h</text>
</a>
</g>
</g>
<!-- Node7&#45;&gt;Node9 -->
<g id="edge9" class="edge">
<title>Node7&#45;&gt;Node9</title>
<path fill="none" stroke="midnightblue" d="M249.46,-56.32C258.63,-48.34 272.44,-36.31 283.53,-26.65"/>
<polygon fill="midnightblue" stroke="midnightblue" points="286.12,-29.04 291.36,-19.83 281.52,-23.76 286.12,-29.04"/>
</g>
<!-- Node10 -->
<g id="node10" class="node">
<title>Node10</title>
<g id="a_node10"><a xlink:href="v8-version_8h.html" target="_top" xlink:title=" ">
<polygon fill="white" stroke="black" points="344,-0.5 344,-19.5 413,-19.5 413,-0.5 344,-0.5"/>
<text text-anchor="middle" x="378.5" y="-7.5" font-family="Helvetica,sans-Serif" font-size="10.00">v8&#45;version.h</text>
</a>
</g>
</g>
<!-- Node7&#45;&gt;Node10 -->
<g id="edge11" class="edge">
<title>Node7&#45;&gt;Node10</title>
<path fill="none" stroke="midnightblue" d="M261.52,-56.44C284.6,-47.48 321.06,-33.31 347.14,-23.18"/>
<polygon fill="midnightblue" stroke="midnightblue" points="348.52,-26.4 356.58,-19.52 345.99,-19.88 348.52,-26.4"/>
</g>
<!-- Node7&#45;&gt;Node11 -->
<g id="edge12" class="edge">
<title>Node7&#45;&gt;Node11</title>
<path fill="none" stroke="midnightblue" d="M274.19,-56.56C314.07,-46.86 379.42,-30.96 421.44,-20.74"/>
<polygon fill="midnightblue" stroke="midnightblue" points="422.44,-24.1 431.33,-18.34 420.79,-17.3 422.44,-24.1"/>
</g>
<!-- Node12&#45;&gt;Node7 -->
<g id="edge14" class="edge">
<title>Node12&#45;&gt;Node7</title>
<path fill="none" stroke="midnightblue" d="M428.26,-112.92C389.85,-103.57 326.48,-88.16 283.88,-77.8"/>
<polygon fill="midnightblue" stroke="midnightblue" points="284.6,-74.37 274.06,-75.41 282.95,-81.17 284.6,-74.37"/>
</g>
<!-- Node12&#45;&gt;Node11 -->
<g id="edge15" class="edge">
<title>Node12&#45;&gt;Node11</title>
<path fill="none" stroke="midnightblue" d="M461.5,-112.37C461.5,-94.62 461.5,-53.67 461.5,-29.6"/>
<polygon fill="midnightblue" stroke="midnightblue" points="465,-29.59 461.5,-19.59 458,-29.59 465,-29.59"/>
</g>
<!-- Node13&#45;&gt;Node4 -->
<g id="edge21" class="edge">
<title>Node13&#45;&gt;Node4</title>
<path fill="none" stroke="midnightblue" d="M228.39,-280.44C219.73,-271.9 206.83,-258.05 198.5,-244 178.48,-210.23 164.79,-166.02 158.14,-141.47"/>
<polygon fill="midnightblue" stroke="midnightblue" points="161.5,-140.47 155.58,-131.68 154.72,-142.24 161.5,-140.47"/>
</g>
<!-- Node13&#45;&gt;Node7 -->
<g id="edge20" class="edge">
<title>Node13&#45;&gt;Node7</title>
<path fill="none" stroke="midnightblue" d="M236.56,-280.49C234.48,-260.74 229.83,-210.24 231.5,-168 232.64,-139.22 235.59,-105.93 237.58,-85.67"/>
<polygon fill="midnightblue" stroke="midnightblue" points="241.07,-85.93 238.58,-75.63 234.1,-85.23 241.07,-85.93"/>
</g>
<!-- Node13&#45;&gt;Node11 -->
<g id="edge28" class="edge">
<title>Node13&#45;&gt;Node11</title>
<path fill="none" stroke="midnightblue" d="M274.76,-282.7C352.01,-268.59 522.5,-231.51 522.5,-179 522.5,-179 522.5,-179 522.5,-121 522.5,-83.57 495.16,-46.96 477.09,-26.84"/>
<polygon fill="midnightblue" stroke="midnightblue" points="479.62,-24.43 470.24,-19.51 474.51,-29.21 479.62,-24.43"/>
</g>
<!-- Node14 -->
<g id="node14" class="node">
<title>Node14</title>
<g id="a_node14"><a xlink:href="v8-data_8h.html" target="_top" xlink:title=" ">
<polygon fill="white" stroke="black" points="240.5,-168.5 240.5,-187.5 296.5,-187.5 296.5,-168.5 240.5,-168.5"/>
<text text-anchor="middle" x="268.5" y="-175.5" font-family="Helvetica,sans-Serif" font-size="10.00">v8&#45;data.h</text>
</a>
</g>
</g>
<!-- Node13&#45;&gt;Node14 -->
<g id="edge17" class="edge">
<title>Node13&#45;&gt;Node14</title>
<path fill="none" stroke="midnightblue" d="M239.93,-280.37C244.96,-262.54 256.58,-221.3 263.35,-197.27"/>
<polygon fill="midnightblue" stroke="midnightblue" points="266.73,-198.17 266.08,-187.59 260,-196.27 266.73,-198.17"/>
</g>
<!-- Node15 -->
<g id="node15" class="node">
<title>Node15</title>
<g id="a_node15"><a xlink:href="v8-value_8h.html" target="_top" xlink:title=" ">
<polygon fill="white" stroke="black" points="299,-224.5 299,-243.5 360,-243.5 360,-224.5 299,-224.5"/>
<text text-anchor="middle" x="329.5" y="-231.5" font-family="Helvetica,sans-Serif" font-size="10.00">v8&#45;value.h</text>
</a>
</g>
</g>
<!-- Node13&#45;&gt;Node15 -->
<g id="edge22" class="edge">
<title>Node13&#45;&gt;Node15</title>
<path fill="none" stroke="midnightblue" d="M252.28,-280.32C266.77,-271.82 289.07,-258.73 305.99,-248.8"/>
<polygon fill="midnightblue" stroke="midnightblue" points="307.9,-251.74 314.76,-243.65 304.36,-245.7 307.9,-251.74"/>
</g>
<!-- Node14&#45;&gt;Node4 -->
<g id="edge18" class="edge">
<title>Node14&#45;&gt;Node4</title>
<path fill="none" stroke="midnightblue" d="M250.28,-168.44C231.6,-159.68 202.34,-145.94 180.88,-135.86"/>
<polygon fill="midnightblue" stroke="midnightblue" points="182.18,-132.6 171.64,-131.52 179.2,-138.93 182.18,-132.6"/>
</g>
<!-- Node14&#45;&gt;Node11 -->
<g id="edge19" class="edge">
<title>Node14&#45;&gt;Node11</title>
<path fill="none" stroke="midnightblue" d="M275.57,-168.34C292.96,-147.38 339.78,-92.95 386.5,-56 401.74,-43.95 420.49,-32.7 435.42,-24.46"/>
<polygon fill="midnightblue" stroke="midnightblue" points="437.47,-27.33 444.61,-19.51 434.15,-21.17 437.47,-27.33"/>
</g>
<!-- Node15&#45;&gt;Node4 -->
<g id="edge25" class="edge">
<title>Node15&#45;&gt;Node4</title>
<path fill="none" stroke="midnightblue" d="M328.71,-224.06C326.99,-210.09 321.66,-183.13 305.5,-168 279.21,-143.39 240.09,-132.18 208.12,-127.1"/>
<polygon fill="midnightblue" stroke="midnightblue" points="208.41,-123.61 198.02,-125.66 207.42,-130.54 208.41,-123.61"/>
</g>
<!-- Node15&#45;&gt;Node7 -->
<g id="edge24" class="edge">
<title>Node15&#45;&gt;Node7</title>
<path fill="none" stroke="midnightblue" d="M330.85,-224.21C332.45,-211.35 334.02,-186.89 326.5,-168 312.22,-132.09 279.55,-100.05 258.56,-82.12"/>
<polygon fill="midnightblue" stroke="midnightblue" points="260.56,-79.22 250.63,-75.53 256.08,-84.61 260.56,-79.22"/>
</g>
<!-- Node15&#45;&gt;Node11 -->
<g id="edge27" class="edge">
<title>Node15&#45;&gt;Node11</title>
<path fill="none" stroke="midnightblue" d="M334.67,-224.3C354.3,-191.29 424.39,-73.4 451.08,-28.52"/>
<polygon fill="midnightblue" stroke="midnightblue" points="454.12,-30.27 456.22,-19.88 448.1,-26.69 454.12,-30.27"/>
</g>
<!-- Node15&#45;&gt;Node12 -->
<g id="edge26" class="edge">
<title>Node15&#45;&gt;Node12</title>
<path fill="none" stroke="midnightblue" d="M352.16,-224.39C370.36,-216.72 395.85,-204.22 414.5,-188 430.21,-174.34 443.6,-154.47 452.02,-140.3"/>
<polygon fill="midnightblue" stroke="midnightblue" points="455.1,-141.96 457.03,-131.54 449.02,-138.49 455.1,-141.96"/>
</g>
<!-- Node15&#45;&gt;Node14 -->
<g id="edge23" class="edge">
<title>Node15&#45;&gt;Node14</title>
<path fill="none" stroke="midnightblue" d="M319.7,-224.32C310.68,-216.34 297.09,-204.31 286.18,-194.65"/>
<polygon fill="midnightblue" stroke="midnightblue" points="288.29,-191.84 278.48,-187.83 283.65,-197.08 288.29,-191.84"/>
</g>
</g>
</svg>
