<?xml version="1.0" encoding="UTF-8" standalone="no"?>
<!DOCTYPE svg PUBLIC "-//W3C//DTD SVG 1.1//EN"
 "http://www.w3.org/Graphics/SVG/1.1/DTD/svg11.dtd">
<!-- Generated by graphviz version 8.0.5 (20230430.1635)
 -->
<!-- Title: include/v8&#45;maybe.h Pages: 1 -->
<svg width="1028pt" height="326pt"
 viewBox="0.00 0.00 1028.10 326.00" xmlns="http://www.w3.org/2000/svg" xmlns:xlink="http://www.w3.org/1999/xlink">
<g id="graph0" class="graph" transform="scale(1 1) rotate(0) translate(4 322)">
<title>include/v8&#45;maybe.h</title>
<!-- Node1 -->
<g id="node1" class="node">
<title>Node1</title>
<g id="a_node1"><a xlink:title=" ">
<polygon fill="#999999" stroke="#666666" points="288.85,-318 189.6,-318 189.6,-298.75 288.85,-298.75 288.85,-318"/>
<text text-anchor="middle" x="239.23" y="-304.5" font-family="Helvetica,sans-Serif" font-size="10.00">include/v8&#45;maybe.h</text>
</a>
</g>
</g>
<!-- Node2 -->
<g id="node2" class="node">
<title>Node2</title>
<g id="a_node2"><a xlink:title=" ">
<polygon fill="#e0e0e0" stroke="#999999" points="344.73,-135.38 283.73,-135.38 283.73,-116.12 344.73,-116.12 344.73,-135.38"/>
<text text-anchor="middle" x="314.23" y="-121.88" font-family="Helvetica,sans-Serif" font-size="10.00">type_traits</text>
</a>
</g>
</g>
<!-- Node1&#45;&gt;Node2 -->
<g id="edge1" class="edge">
<title>Node1&#45;&gt;Node2</title>
<path fill="none" stroke="#63b8ff" d="M265.55,-298.37C281.71,-291.35 301.18,-279.87 311.23,-262.75 332.66,-226.21 325.53,-174.11 319.34,-146.19"/>
<polygon fill="#63b8ff" stroke="#63b8ff" points="322.59,-145.72 316.83,-136.82 315.78,-147.36 322.59,-145.72"/>
</g>
<!-- Node3 -->
<g id="node3" class="node">
<title>Node3</title>
<g id="a_node3"><a xlink:title=" ">
<polygon fill="#e0e0e0" stroke="#999999" points="199.48,-135.38 160.98,-135.38 160.98,-116.12 199.48,-116.12 199.48,-135.38"/>
<text text-anchor="middle" x="180.23" y="-121.88" font-family="Helvetica,sans-Serif" font-size="10.00">utility</text>
</a>
</g>
</g>
<!-- Node1&#45;&gt;Node3 -->
<g id="edge2" class="edge">
<title>Node1&#45;&gt;Node3</title>
<path fill="none" stroke="#63b8ff" d="M212.78,-298.34C174.81,-283.73 106.43,-250.9 79.23,-196.25 75.42,-188.59 74.72,-184.27 79.23,-177 79.5,-176.57 122.45,-155.29 152.25,-140.56"/>
<polygon fill="#63b8ff" stroke="#63b8ff" points="153.35,-143.43 160.77,-135.86 150.25,-137.15 153.35,-143.43"/>
</g>
<!-- Node4 -->
<g id="node4" class="node">
<title>Node4</title>
<g id="a_node4"><a xlink:href="conditional-stack-allocated_8h.html" target="_top" xlink:title=" ">
<polygon fill="white" stroke="#666666" points="302.35,-262.75 176.1,-262.75 176.1,-232.25 302.35,-232.25 302.35,-262.75"/>
<text text-anchor="start" x="184.1" y="-249.25" font-family="Helvetica,sans-Serif" font-size="10.00">cppgc/internal/conditional</text>
<text text-anchor="middle" x="239.23" y="-238" font-family="Helvetica,sans-Serif" font-size="10.00">&#45;stack&#45;allocated.h</text>
</a>
</g>
</g>
<!-- Node1&#45;&gt;Node4 -->
<g id="edge3" class="edge">
<title>Node1&#45;&gt;Node4</title>
<path fill="none" stroke="#63b8ff" d="M239.23,-298.43C239.23,-291.9 239.23,-282.7 239.23,-273.97"/>
<polygon fill="#63b8ff" stroke="#63b8ff" points="242.73,-274.03 239.23,-264.03 235.73,-274.03 242.73,-274.03"/>
</g>
<!-- Node8 -->
<g id="node8" class="node">
<title>Node8</title>
<g id="a_node8"><a xlink:href="v8config_8h.html" target="_top" xlink:title=" ">
<polygon fill="white" stroke="#666666" points="353.98,-74.5 294.48,-74.5 294.48,-55.25 353.98,-55.25 353.98,-74.5"/>
<text text-anchor="middle" x="324.23" y="-61" font-family="Helvetica,sans-Serif" font-size="10.00">v8config.h</text>
</a>
</g>
</g>
<!-- Node1&#45;&gt;Node8 -->
<g id="edge27" class="edge">
<title>Node1&#45;&gt;Node8</title>
<path fill="none" stroke="#63b8ff" d="M189.36,-299.22C161.66,-292.8 127.75,-281.67 102.23,-262.75 39.98,-216.59 -33.48,-169.11 17.23,-110.5 51.12,-71.32 207.44,-65.83 283.04,-65.51"/>
<polygon fill="#63b8ff" stroke="#63b8ff" points="283.03,-69.01 293.02,-65.5 283.02,-62.01 283.03,-69.01"/>
</g>
<!-- Node11 -->
<g id="node11" class="node">
<title>Node11</title>
<g id="a_node11"><a xlink:href="v8-internal_8h.html" target="_top" xlink:title=" ">
<polygon fill="white" stroke="#666666" points="650.48,-196.25 581.98,-196.25 581.98,-177 650.48,-177 650.48,-196.25"/>
<text text-anchor="middle" x="616.23" y="-182.75" font-family="Helvetica,sans-Serif" font-size="10.00">v8&#45;internal.h</text>
</a>
</g>
</g>
<!-- Node1&#45;&gt;Node11 -->
<g id="edge14" class="edge">
<title>Node1&#45;&gt;Node11</title>
<path fill="none" stroke="#63b8ff" d="M267.87,-298.28C334.83,-277.01 501.65,-224.02 577.54,-199.91"/>
<polygon fill="#63b8ff" stroke="#63b8ff" points="578.15,-203.07 586.63,-196.71 576.04,-196.4 578.15,-203.07"/>
</g>
<!-- Node4&#45;&gt;Node2 -->
<g id="edge4" class="edge">
<title>Node4&#45;&gt;Node2</title>
<path fill="none" stroke="#63b8ff" d="M261.38,-231.96C273.36,-223 287.46,-210.53 296.23,-196.25 305.61,-180.98 310.13,-160.95 312.29,-146.31"/>
<polygon fill="#63b8ff" stroke="#63b8ff" points="315.87,-146.86 313.61,-136.51 308.92,-146.02 315.87,-146.86"/>
</g>
<!-- Node5 -->
<g id="node5" class="node">
<title>Node5</title>
<g id="a_node5"><a xlink:href="macros_8h.html" target="_top" xlink:title=" ">
<polygon fill="white" stroke="#666666" points="173.73,-196.25 88.73,-196.25 88.73,-177 173.73,-177 173.73,-196.25"/>
<text text-anchor="middle" x="131.23" y="-182.75" font-family="Helvetica,sans-Serif" font-size="10.00">cppgc/macros.h</text>
</a>
</g>
</g>
<!-- Node4&#45;&gt;Node5 -->
<g id="edge5" class="edge">
<title>Node4&#45;&gt;Node5</title>
<path fill="none" stroke="#63b8ff" d="M212.25,-231.8C195.49,-222.66 174.04,-210.97 157.43,-201.91"/>
<polygon fill="#63b8ff" stroke="#63b8ff" points="159.25,-198.37 148.79,-196.65 155.9,-204.51 159.25,-198.37"/>
</g>
<!-- Node10 -->
<g id="node10" class="node">
<title>Node10</title>
<g id="a_node10"><a xlink:href="type-traits_8h.html" target="_top" xlink:title=" ">
<polygon fill="white" stroke="#666666" points="286.98,-196.25 191.48,-196.25 191.48,-177 286.98,-177 286.98,-196.25"/>
<text text-anchor="middle" x="239.23" y="-182.75" font-family="Helvetica,sans-Serif" font-size="10.00">cppgc/type&#45;traits.h</text>
</a>
</g>
</g>
<!-- Node4&#45;&gt;Node10 -->
<g id="edge10" class="edge">
<title>Node4&#45;&gt;Node10</title>
<path fill="none" stroke="#63b8ff" d="M239.23,-231.95C239.23,-224.62 239.23,-215.62 239.23,-207.66"/>
<polygon fill="#63b8ff" stroke="#63b8ff" points="242.73,-207.7 239.23,-197.7 235.73,-207.7 242.73,-207.7"/>
</g>
<!-- Node6 -->
<g id="node6" class="node">
<title>Node6</title>
<g id="a_node6"><a xlink:title=" ">
<polygon fill="#e0e0e0" stroke="#999999" points="265.35,-135.38 217.1,-135.38 217.1,-116.12 265.35,-116.12 265.35,-135.38"/>
<text text-anchor="middle" x="241.23" y="-121.88" font-family="Helvetica,sans-Serif" font-size="10.00">cstddef</text>
</a>
</g>
</g>
<!-- Node5&#45;&gt;Node6 -->
<g id="edge6" class="edge">
<title>Node5&#45;&gt;Node6</title>
<path fill="none" stroke="#63b8ff" d="M147.93,-176.68C165.7,-167.17 194.05,-152 214.84,-140.87"/>
<polygon fill="#63b8ff" stroke="#63b8ff" points="216.2,-143.58 223.36,-135.78 212.9,-137.41 216.2,-143.58"/>
</g>
<!-- Node7 -->
<g id="node7" class="node">
<title>Node7</title>
<g id="a_node7"><a xlink:href="compiler-specific_8h.html" target="_top" xlink:title=" ">
<polygon fill="white" stroke="#666666" points="142.48,-141 25.98,-141 25.98,-110.5 142.48,-110.5 142.48,-141"/>
<text text-anchor="start" x="33.98" y="-127.5" font-family="Helvetica,sans-Serif" font-size="10.00">cppgc/internal/compiler</text>
<text text-anchor="middle" x="84.23" y="-116.25" font-family="Helvetica,sans-Serif" font-size="10.00">&#45;specific.h</text>
</a>
</g>
</g>
<!-- Node5&#45;&gt;Node7 -->
<g id="edge7" class="edge">
<title>Node5&#45;&gt;Node7</title>
<path fill="none" stroke="#63b8ff" d="M124.09,-176.68C118.35,-169.49 110.02,-159.06 102.46,-149.59"/>
<polygon fill="#63b8ff" stroke="#63b8ff" points="104.8,-147.91 95.83,-142.28 99.33,-152.28 104.8,-147.91"/>
</g>
<!-- Node7&#45;&gt;Node8 -->
<g id="edge8" class="edge">
<title>Node7&#45;&gt;Node8</title>
<path fill="none" stroke="#63b8ff" d="M142.94,-110.35C186.7,-99.61 245.33,-85.23 283.91,-75.77"/>
<polygon fill="#63b8ff" stroke="#63b8ff" points="284.35,-79.02 293.23,-73.23 282.68,-72.22 284.35,-79.02"/>
</g>
<!-- Node9 -->
<g id="node9" class="node">
<title>Node9</title>
<g id="a_node9"><a xlink:title=" ">
<polygon fill="#e0e0e0" stroke="#999999" points="587.48,-19.25 536.98,-19.25 536.98,0 587.48,0 587.48,-19.25"/>
<text text-anchor="middle" x="562.23" y="-5.75" font-family="Helvetica,sans-Serif" font-size="10.00">memory</text>
</a>
</g>
</g>
<!-- Node8&#45;&gt;Node9 -->
<g id="edge9" class="edge">
<title>Node8&#45;&gt;Node9</title>
<path fill="none" stroke="#63b8ff" d="M354.37,-57.13C398.14,-47.34 479.18,-29.21 526.1,-18.71"/>
<polygon fill="#63b8ff" stroke="#63b8ff" points="526.69,-21.94 535.68,-16.34 525.16,-15.11 526.69,-21.94"/>
</g>
<!-- Node10&#45;&gt;Node2 -->
<g id="edge12" class="edge">
<title>Node10&#45;&gt;Node2</title>
<path fill="none" stroke="#63b8ff" d="M250.62,-176.68C262.18,-167.61 280.32,-153.37 294.28,-142.41"/>
<polygon fill="#63b8ff" stroke="#63b8ff" points="296.03,-144.7 301.73,-135.78 291.7,-139.2 296.03,-144.7"/>
</g>
<!-- Node10&#45;&gt;Node3 -->
<g id="edge13" class="edge">
<title>Node10&#45;&gt;Node3</title>
<path fill="none" stroke="#63b8ff" d="M230.27,-176.68C221.43,-167.87 207.71,-154.18 196.87,-143.36"/>
<polygon fill="#63b8ff" stroke="#63b8ff" points="199.82,-141.36 190.27,-136.78 194.88,-146.32 199.82,-141.36"/>
</g>
<!-- Node10&#45;&gt;Node6 -->
<g id="edge11" class="edge">
<title>Node10&#45;&gt;Node6</title>
<path fill="none" stroke="#63b8ff" d="M239.53,-176.68C239.8,-168.73 240.21,-156.81 240.55,-146.62"/>
<polygon fill="#63b8ff" stroke="#63b8ff" points="244.08,-146.89 240.92,-136.78 237.08,-146.65 244.08,-146.89"/>
</g>
<!-- Node11&#45;&gt;Node2 -->
<g id="edge25" class="edge">
<title>Node11&#45;&gt;Node2</title>
<path fill="none" stroke="#63b8ff" d="M581.49,-181.66C530.93,-175.45 434.36,-161.93 354.23,-141 352.05,-140.43 349.83,-139.8 347.6,-139.12"/>
<polygon fill="#63b8ff" stroke="#63b8ff" points="348.87,-135.53 338.28,-135.73 346.69,-142.18 348.87,-135.53"/>
</g>
<!-- Node11&#45;&gt;Node8 -->
<g id="edge26" class="edge">
<title>Node11&#45;&gt;Node8</title>
<path fill="none" stroke="#63b8ff" d="M610.33,-176.52C599.39,-160.42 574.29,-127.06 544.23,-110.5 487.3,-79.15 411.19,-69.71 365.05,-66.93"/>
<polygon fill="#63b8ff" stroke="#63b8ff" points="365.44,-63.4 355.27,-66.38 365.07,-70.39 365.44,-63.4"/>
</g>
<!-- Node11&#45;&gt;Node9 -->
<g id="edge23" class="edge">
<title>Node11&#45;&gt;Node9</title>
<path fill="none" stroke="#63b8ff" d="M650.58,-183.25C708.14,-177.85 814.69,-160.89 782.23,-110.5 741.38,-47.1 649.38,-23.49 598.24,-15.05"/>
<polygon fill="#63b8ff" stroke="#63b8ff" points="599.09,-11.49 588.68,-13.43 598.03,-18.41 599.09,-11.49"/>
</g>
<!-- Node12 -->
<g id="node12" class="node">
<title>Node12</title>
<g id="a_node12"><a xlink:title=" ">
<polygon fill="#e0e0e0" stroke="#999999" points="641.48,-135.38 590.98,-135.38 590.98,-116.12 641.48,-116.12 641.48,-135.38"/>
<text text-anchor="middle" x="616.23" y="-121.88" font-family="Helvetica,sans-Serif" font-size="10.00">stddef.h</text>
</a>
</g>
</g>
<!-- Node11&#45;&gt;Node12 -->
<g id="edge15" class="edge">
<title>Node11&#45;&gt;Node12</title>
<path fill="none" stroke="#63b8ff" d="M616.23,-176.68C616.23,-168.73 616.23,-156.81 616.23,-146.62"/>
<polygon fill="#63b8ff" stroke="#63b8ff" points="619.73,-146.78 616.23,-136.78 612.73,-146.78 619.73,-146.78"/>
</g>
<!-- Node13 -->
<g id="node13" class="node">
<title>Node13</title>
<g id="a_node13"><a xlink:title=" ">
<polygon fill="#e0e0e0" stroke="#999999" points="706.98,-135.38 659.48,-135.38 659.48,-116.12 706.98,-116.12 706.98,-135.38"/>
<text text-anchor="middle" x="683.23" y="-121.88" font-family="Helvetica,sans-Serif" font-size="10.00">stdint.h</text>
</a>
</g>
</g>
<!-- Node11&#45;&gt;Node13 -->
<g id="edge16" class="edge">
<title>Node11&#45;&gt;Node13</title>
<path fill="none" stroke="#63b8ff" d="M626.4,-176.68C636.64,-167.69 652.63,-153.64 665.05,-142.73"/>
<polygon fill="#63b8ff" stroke="#63b8ff" points="666.75,-145.01 671.96,-135.78 662.13,-139.75 666.75,-145.01"/>
</g>
<!-- Node14 -->
<g id="node14" class="node">
<title>Node14</title>
<g id="a_node14"><a xlink:title=" ">
<polygon fill="#e0e0e0" stroke="#999999" points="772.98,-135.38 725.48,-135.38 725.48,-116.12 772.98,-116.12 772.98,-135.38"/>
<text text-anchor="middle" x="749.23" y="-121.88" font-family="Helvetica,sans-Serif" font-size="10.00">string.h</text>
</a>
</g>
</g>
<!-- Node11&#45;&gt;Node14 -->
<g id="edge17" class="edge">
<title>Node11&#45;&gt;Node14</title>
<path fill="none" stroke="#63b8ff" d="M636.72,-176.55C658.75,-166.8 693.99,-151.2 719.16,-140.06"/>
<polygon fill="#63b8ff" stroke="#63b8ff" points="720.21,-142.98 727.93,-135.73 717.37,-136.58 720.21,-142.98"/>
</g>
<!-- Node15 -->
<g id="node15" class="node">
<title>Node15</title>
<g id="a_node15"><a xlink:title=" ">
<polygon fill="#e0e0e0" stroke="#999999" points="874.85,-135.38 829.6,-135.38 829.6,-116.12 874.85,-116.12 874.85,-135.38"/>
<text text-anchor="middle" x="852.23" y="-121.88" font-family="Helvetica,sans-Serif" font-size="10.00">atomic</text>
</a>
</g>
</g>
<!-- Node11&#45;&gt;Node15 -->
<g id="edge18" class="edge">
<title>Node11&#45;&gt;Node15</title>
<path fill="none" stroke="#63b8ff" d="M650.78,-179.48C690.79,-171.99 758.47,-158.19 815.23,-141 816.95,-140.48 818.7,-139.92 820.47,-139.32"/>
<polygon fill="#63b8ff" stroke="#63b8ff" points="821.27,-142.4 829.5,-135.73 818.91,-135.81 821.27,-142.4"/>
</g>
<!-- Node16 -->
<g id="node16" class="node">
<title>Node16</title>
<g id="a_node16"><a xlink:title=" ">
<polygon fill="#e0e0e0" stroke="#999999" points="945.98,-135.38 892.48,-135.38 892.48,-116.12 945.98,-116.12 945.98,-135.38"/>
<text text-anchor="middle" x="919.23" y="-121.88" font-family="Helvetica,sans-Serif" font-size="10.00">compare</text>
</a>
</g>
</g>
<!-- Node11&#45;&gt;Node16 -->
<g id="edge19" class="edge">
<title>Node11&#45;&gt;Node16</title>
<path fill="none" stroke="#63b8ff" d="M650.61,-182.37C702.12,-176.93 802.08,-164.25 884.23,-141 885.77,-140.56 887.33,-140.08 888.9,-139.57"/>
<polygon fill="#63b8ff" stroke="#63b8ff" points="889.95,-142.54 898.14,-135.82 887.54,-135.97 889.95,-142.54"/>
</g>
<!-- Node17 -->
<g id="node17" class="node">
<title>Node17</title>
<g id="a_node17"><a xlink:title=" ">
<polygon fill="#e0e0e0" stroke="#999999" points="1020.1,-135.38 964.35,-135.38 964.35,-116.12 1020.1,-116.12 1020.1,-135.38"/>
<text text-anchor="middle" x="992.23" y="-121.88" font-family="Helvetica,sans-Serif" font-size="10.00">concepts</text>
</a>
</g>
</g>
<!-- Node11&#45;&gt;Node17 -->
<g id="edge20" class="edge">
<title>Node11&#45;&gt;Node17</title>
<path fill="none" stroke="#63b8ff" d="M650.9,-183.77C712.84,-179.87 846.21,-168.75 955.23,-141 957.15,-140.51 959.1,-139.95 961.06,-139.35"/>
<polygon fill="#63b8ff" stroke="#63b8ff" points="962.08,-142.35 970.38,-135.77 959.78,-135.74 962.08,-142.35"/>
</g>
<!-- Node18 -->
<g id="node18" class="node">
<title>Node18</title>
<g id="a_node18"><a xlink:title=" ">
<polygon fill="#e0e0e0" stroke="#999999" points="409.23,-135.38 363.23,-135.38 363.23,-116.12 409.23,-116.12 409.23,-135.38"/>
<text text-anchor="middle" x="386.23" y="-121.88" font-family="Helvetica,sans-Serif" font-size="10.00">iterator</text>
</a>
</g>
</g>
<!-- Node11&#45;&gt;Node18 -->
<g id="edge21" class="edge">
<title>Node11&#45;&gt;Node18</title>
<path fill="none" stroke="#63b8ff" d="M581.68,-179.98C541.73,-172.95 474.25,-159.58 418.23,-141 417.13,-140.64 416.02,-140.25 414.91,-139.84"/>
<polygon fill="#63b8ff" stroke="#63b8ff" points="416.52,-136.31 405.94,-135.82 413.9,-142.81 416.52,-136.31"/>
</g>
<!-- Node19 -->
<g id="node19" class="node">
<title>Node19</title>
<g id="a_node19"><a xlink:title=" ">
<polygon fill="#e0e0e0" stroke="#999999" points="466.85,-135.38 427.6,-135.38 427.6,-116.12 466.85,-116.12 466.85,-135.38"/>
<text text-anchor="middle" x="447.23" y="-121.88" font-family="Helvetica,sans-Serif" font-size="10.00">limits</text>
</a>
</g>
</g>
<!-- Node11&#45;&gt;Node19 -->
<g id="edge22" class="edge">
<title>Node11&#45;&gt;Node19</title>
<path fill="none" stroke="#63b8ff" d="M582.93,-176.52C554.25,-168.32 511.96,-155.38 476.23,-141 475.63,-140.76 475.02,-140.51 474.41,-140.25"/>
<polygon fill="#63b8ff" stroke="#63b8ff" points="476.07,-136.71 465.52,-135.77 473.18,-143.09 476.07,-136.71"/>
</g>
<!-- Node20 -->
<g id="node20" class="node">
<title>Node20</title>
<g id="a_node20"><a xlink:title=" ">
<polygon fill="#e0e0e0" stroke="#999999" points="535.1,-135.38 485.35,-135.38 485.35,-116.12 535.1,-116.12 535.1,-135.38"/>
<text text-anchor="middle" x="510.23" y="-121.88" font-family="Helvetica,sans-Serif" font-size="10.00">optional</text>
</a>
</g>
</g>
<!-- Node11&#45;&gt;Node20 -->
<g id="edge24" class="edge">
<title>Node11&#45;&gt;Node20</title>
<path fill="none" stroke="#63b8ff" d="M600.13,-176.68C583.09,-167.22 555.93,-152.14 535.93,-141.02"/>
<polygon fill="#63b8ff" stroke="#63b8ff" points="537.92,-137.57 527.48,-135.78 534.52,-143.69 537.92,-137.57"/>
</g>
</g>
</svg>
