<?xml version="1.0" encoding="UTF-8" standalone="no"?>
<!DOCTYPE svg PUBLIC "-//W3C//DTD SVG 1.1//EN"
 "http://www.w3.org/Graphics/SVG/1.1/DTD/svg11.dtd">
<!-- Generated by graphviz version 8.0.5 (20230430.1635)
 -->
<!-- Title: include/v8&#45;object.h Pages: 1 -->
<svg width="1725pt" height="614pt"
 viewBox="0.00 0.00 1725.25 613.50" xmlns="http://www.w3.org/2000/svg" xmlns:xlink="http://www.w3.org/1999/xlink">
<g id="graph0" class="graph" transform="scale(1 1) rotate(0) translate(4 609.5)">
<title>include/v8&#45;object.h</title>
<!-- Node1 -->
<g id="node1" class="node">
<title>Node1</title>
<g id="a_node1"><a xlink:title=" ">
<polygon fill="#999999" stroke="#666666" points="592.25,-605.5 495.25,-605.5 495.25,-586.25 592.25,-586.25 592.25,-605.5"/>
<text text-anchor="middle" x="543.75" y="-592" font-family="Helvetica,sans-Serif" font-size="10.00">include/v8&#45;object.h</text>
</a>
</g>
</g>
<!-- Node2 -->
<g id="node2" class="node">
<title>Node2</title>
<g id="a_node2"><a xlink:href="v8-array-buffer_8h.html" target="_top" xlink:title=" ">
<polygon fill="white" stroke="#666666" points="172.12,-318 53.38,-318 53.38,-298.75 172.12,-298.75 172.12,-318"/>
<text text-anchor="middle" x="112.75" y="-304.5" font-family="Helvetica,sans-Serif" font-size="10.00">include/v8&#45;array&#45;buffer.h</text>
</a>
</g>
</g>
<!-- Node1&#45;&gt;Node2 -->
<g id="edge1" class="edge">
<title>Node1&#45;&gt;Node2</title>
<path fill="none" stroke="#63b8ff" d="M484.04,-593.49C395.35,-590.44 234.06,-580.75 185.75,-550.25 152.25,-529.1 137.75,-514.75 137.75,-475.12 137.75,-475.12 137.75,-475.12 137.75,-417.88 137.75,-380.18 123.24,-336.96 116.33,-318.5"/>
<polygon fill="#63b8ff" stroke="#63b8ff" points="483.9,-597.02 494,-593.85 484.12,-590.03 483.9,-597.02"/>
</g>
<!-- Node6 -->
<g id="node6" class="node">
<title>Node6</title>
<g id="a_node6"><a xlink:href="v8_8h.html" target="_top" xlink:title=" ">
<polygon fill="white" stroke="#666666" points="730.62,-19.25 662.88,-19.25 662.88,0 730.62,0 730.62,-19.25"/>
<text text-anchor="middle" x="696.75" y="-5.75" font-family="Helvetica,sans-Serif" font-size="10.00">include/v8.h</text>
</a>
</g>
</g>
<!-- Node1&#45;&gt;Node6 -->
<g id="edge60" class="edge">
<title>Node1&#45;&gt;Node6</title>
<path fill="none" stroke="#63b8ff" d="M484.17,-589.71C415.04,-582.93 305.91,-569.59 269.75,-550.25 229.51,-528.73 199.75,-520.76 199.75,-475.12 199.75,-475.12 199.75,-475.12 199.75,-124.75 199.75,-29.58 550.3,-13.77 662.59,-11.15"/>
<polygon fill="#63b8ff" stroke="#63b8ff" points="483.62,-593.27 493.9,-590.74 484.29,-586.3 483.62,-593.27"/>
</g>
<!-- Node12 -->
<g id="node12" class="node">
<title>Node12</title>
<g id="a_node12"><a xlink:href="v8-proxy_8h.html" target="_top" xlink:title=" ">
<polygon fill="white" stroke="#666666" points="649.38,-74.5 556.12,-74.5 556.12,-55.25 649.38,-55.25 649.38,-74.5"/>
<text text-anchor="middle" x="602.75" y="-61" font-family="Helvetica,sans-Serif" font-size="10.00">include/v8&#45;proxy.h</text>
</a>
</g>
</g>
<!-- Node1&#45;&gt;Node12 -->
<g id="edge54" class="edge">
<title>Node1&#45;&gt;Node12</title>
<path fill="none" stroke="#63b8ff" d="M603.24,-585.44C642.13,-577.92 687.85,-566.03 699.75,-550.25 770.62,-456.27 664.81,-406.2 616.75,-298.75 598.52,-258 584.3,-251.11 574.75,-207.5 571.24,-191.47 572.16,-126.52 576.75,-110.5 580.6,-97.05 589.41,-83.42 595.71,-74.83"/>
<polygon fill="#63b8ff" stroke="#63b8ff" points="602.68,-582.17 593.49,-587.44 603.96,-589.05 602.68,-582.17"/>
</g>
<!-- Node15 -->
<g id="node15" class="node">
<title>Node15</title>
<g id="a_node15"><a xlink:href="v8-container_8h.html" target="_top" xlink:title=" ">
<polygon fill="white" stroke="#666666" points="338,-262.75 227.5,-262.75 227.5,-243.5 338,-243.5 338,-262.75"/>
<text text-anchor="middle" x="282.75" y="-249.25" font-family="Helvetica,sans-Serif" font-size="10.00">include/v8&#45;container.h</text>
</a>
</g>
</g>
<!-- Node1&#45;&gt;Node15 -->
<g id="edge20" class="edge">
<title>Node1&#45;&gt;Node15</title>
<path fill="none" stroke="#63b8ff" d="M483.99,-595.13C400.15,-592 257.75,-572.36 257.75,-475.12 257.75,-475.12 257.75,-475.12 257.75,-362.62 257.75,-324.93 272.26,-281.71 279.17,-263.25"/>
<polygon fill="#63b8ff" stroke="#63b8ff" points="483.81,-598.66 493.91,-595.46 484.02,-591.66 483.81,-598.66"/>
</g>
<!-- Node16 -->
<g id="node16" class="node">
<title>Node16</title>
<g id="a_node16"><a xlink:href="v8-date_8h.html" target="_top" xlink:title=" ">
<polygon fill="white" stroke="#666666" points="375.5,-428.5 286,-428.5 286,-409.25 375.5,-409.25 375.5,-428.5"/>
<text text-anchor="middle" x="330.75" y="-415" font-family="Helvetica,sans-Serif" font-size="10.00">include/v8&#45;date.h</text>
</a>
</g>
</g>
<!-- Node1&#45;&gt;Node16 -->
<g id="edge22" class="edge">
<title>Node1&#45;&gt;Node16</title>
<path fill="none" stroke="#63b8ff" d="M515.87,-580.67C480.57,-561.8 419.13,-525.88 375.75,-483.75 358.23,-466.74 343.1,-442.07 335.66,-428.92"/>
<polygon fill="#63b8ff" stroke="#63b8ff" points="514.03,-584.19 524.51,-585.75 517.3,-578 514.03,-584.19"/>
</g>
<!-- Node17 -->
<g id="node17" class="node">
<title>Node17</title>
<g id="a_node17"><a xlink:href="v8-exception_8h.html" target="_top" xlink:title=" ">
<polygon fill="white" stroke="#666666" points="496.75,-483.75 384.75,-483.75 384.75,-464.5 496.75,-464.5 496.75,-483.75"/>
<text text-anchor="middle" x="440.75" y="-470.25" font-family="Helvetica,sans-Serif" font-size="10.00">include/v8&#45;exception.h</text>
</a>
</g>
</g>
<!-- Node1&#45;&gt;Node17 -->
<g id="edge24" class="edge">
<title>Node1&#45;&gt;Node17</title>
<path fill="none" stroke="#63b8ff" d="M529.04,-577.77C506.88,-552.01 465.74,-504.18 448.58,-484.23"/>
<polygon fill="#63b8ff" stroke="#63b8ff" points="526.83,-579.58 536.01,-584.87 532.14,-575.01 526.83,-579.58"/>
</g>
<!-- Node18 -->
<g id="node18" class="node">
<title>Node18</title>
<g id="a_node18"><a xlink:href="v8-template_8h.html" target="_top" xlink:title=" ">
<polygon fill="white" stroke="#666666" points="577.88,-428.5 469.62,-428.5 469.62,-409.25 577.88,-409.25 577.88,-428.5"/>
<text text-anchor="middle" x="523.75" y="-415" font-family="Helvetica,sans-Serif" font-size="10.00">include/v8&#45;template.h</text>
</a>
</g>
</g>
<!-- Node1&#45;&gt;Node18 -->
<g id="edge57" class="edge">
<title>Node1&#45;&gt;Node18</title>
<path fill="none" stroke="#63b8ff" d="M541.52,-575.39C537.22,-537.74 527.91,-456.27 524.79,-428.99"/>
<polygon fill="#63b8ff" stroke="#63b8ff" points="538.12,-575.42 542.73,-584.96 545.07,-574.62 538.12,-575.42"/>
</g>
<!-- Node19 -->
<g id="node19" class="node">
<title>Node19</title>
<g id="a_node19"><a xlink:href="v8-function_8h.html" target="_top" xlink:title=" ">
<polygon fill="white" stroke="#666666" points="614.38,-373.25 509.12,-373.25 509.12,-354 614.38,-354 614.38,-373.25"/>
<text text-anchor="middle" x="561.75" y="-359.75" font-family="Helvetica,sans-Serif" font-size="10.00">include/v8&#45;function.h</text>
</a>
</g>
</g>
<!-- Node1&#45;&gt;Node19 -->
<g id="edge31" class="edge">
<title>Node1&#45;&gt;Node19</title>
<path fill="none" stroke="#63b8ff" d="M550.32,-575.94C560.55,-545.38 579.81,-483.09 586.75,-428.5 587.83,-420.01 588.91,-417.53 586.75,-409.25 583.25,-395.85 574.73,-382.21 568.61,-373.6"/>
<polygon fill="#63b8ff" stroke="#63b8ff" points="546.8,-574.42 546.89,-585.01 553.43,-576.68 546.8,-574.42"/>
</g>
<!-- Node20 -->
<g id="node20" class="node">
<title>Node20</title>
<g id="a_node20"><a xlink:href="v8-primitive-object_8h.html" target="_top" xlink:title=" ">
<polygon fill="white" stroke="#666666" points="690.75,-550.25 590.75,-550.25 590.75,-519.75 690.75,-519.75 690.75,-550.25"/>
<text text-anchor="start" x="598.75" y="-536.75" font-family="Helvetica,sans-Serif" font-size="10.00">include/v8&#45;primitive</text>
<text text-anchor="middle" x="640.75" y="-525.5" font-family="Helvetica,sans-Serif" font-size="10.00">&#45;object.h</text>
</a>
</g>
</g>
<!-- Node1&#45;&gt;Node20 -->
<g id="edge32" class="edge">
<title>Node1&#45;&gt;Node20</title>
<path fill="none" stroke="#63b8ff" d="M567.62,-580.39C582.59,-571.3 601.82,-559.63 616.81,-550.53"/>
<polygon fill="#63b8ff" stroke="#63b8ff" points="566.21,-577.75 559.48,-585.93 569.85,-583.74 566.21,-577.75"/>
</g>
<!-- Node21 -->
<g id="node21" class="node">
<title>Node21</title>
<g id="a_node21"><a xlink:href="v8-promise_8h.html" target="_top" xlink:title=" ">
<polygon fill="white" stroke="#666666" points="1327.38,-544.62 1222.12,-544.62 1222.12,-525.38 1327.38,-525.38 1327.38,-544.62"/>
<text text-anchor="middle" x="1274.75" y="-531.12" font-family="Helvetica,sans-Serif" font-size="10.00">include/v8&#45;promise.h</text>
</a>
</g>
</g>
<!-- Node1&#45;&gt;Node21 -->
<g id="edge34" class="edge">
<title>Node1&#45;&gt;Node21</title>
<path fill="none" stroke="#63b8ff" d="M603.45,-590.07C743.1,-578.82 1089.3,-550.94 1221.91,-540.26"/>
<polygon fill="#63b8ff" stroke="#63b8ff" points="603.25,-586.65 593.56,-590.94 603.81,-593.63 603.25,-586.65"/>
</g>
<!-- Node29 -->
<g id="node29" class="node">
<title>Node29</title>
<g id="a_node29"><a xlink:href="v8-regexp_8h.html" target="_top" xlink:title=" ">
<polygon fill="white" stroke="#666666" points="1641.38,-483.75 1542.12,-483.75 1542.12,-464.5 1641.38,-464.5 1641.38,-483.75"/>
<text text-anchor="middle" x="1591.75" y="-470.25" font-family="Helvetica,sans-Serif" font-size="10.00">include/v8&#45;regexp.h</text>
</a>
</g>
</g>
<!-- Node1&#45;&gt;Node29 -->
<g id="edge55" class="edge">
<title>Node1&#45;&gt;Node29</title>
<path fill="none" stroke="#63b8ff" d="M603.21,-593.3C762.42,-588.81 1195.79,-574.64 1336.75,-550.25 1423.84,-535.18 1523.32,-500.62 1567.93,-484.16"/>
<polygon fill="#63b8ff" stroke="#63b8ff" points="603.58,-589.82 593.68,-593.6 603.78,-596.82 603.58,-589.82"/>
</g>
<!-- Node30 -->
<g id="node30" class="node">
<title>Node30</title>
<g id="a_node30"><a xlink:href="v8-wasm_8h.html" target="_top" xlink:title=" ">
<polygon fill="white" stroke="#666666" points="1717.25,-74.5 1620.25,-74.5 1620.25,-55.25 1717.25,-55.25 1717.25,-74.5"/>
<text text-anchor="middle" x="1668.75" y="-61" font-family="Helvetica,sans-Serif" font-size="10.00">include/v8&#45;wasm.h</text>
</a>
</g>
</g>
<!-- Node1&#45;&gt;Node30 -->
<g id="edge58" class="edge">
<title>Node1&#45;&gt;Node30</title>
<path fill="none" stroke="#63b8ff" d="M603.44,-594.85C836.15,-594 1669.75,-583.38 1669.75,-475.12 1669.75,-475.12 1669.75,-475.12 1669.75,-191.25 1669.75,-147.72 1669.14,-95.68 1668.87,-75"/>
<polygon fill="#63b8ff" stroke="#63b8ff" points="603.48,-591.36 593.49,-594.89 603.51,-598.36 603.48,-591.36"/>
</g>
<!-- Node3 -->
<g id="node3" class="node">
<title>Node3</title>
<g id="a_node3"><a xlink:href="v8-isolate_8h.html" target="_top" xlink:title=" ">
<polygon fill="white" stroke="#666666" points="979.38,-262.75 880.12,-262.75 880.12,-243.5 979.38,-243.5 979.38,-262.75"/>
<text text-anchor="middle" x="929.75" y="-249.25" font-family="Helvetica,sans-Serif" font-size="10.00">include/v8&#45;isolate.h</text>
</a>
</g>
</g>
<!-- Node2&#45;&gt;Node3 -->
<g id="edge2" class="edge">
<title>Node2&#45;&gt;Node3</title>
<path fill="none" stroke="#63b8ff" d="M183.27,-302.78C345.08,-292.23 739.82,-266.5 879.64,-257.39"/>
<polygon fill="#63b8ff" stroke="#63b8ff" points="183.25,-299.34 173.49,-303.48 183.7,-306.32 183.25,-299.34"/>
</g>
<!-- Node2&#45;&gt;Node6 -->
<g id="edge19" class="edge">
<title>Node2&#45;&gt;Node6</title>
<path fill="none" stroke="#63b8ff" d="M126.58,-289.69C132.23,-281.8 138.44,-272.16 142.75,-262.75 156.08,-233.63 161.75,-225.27 161.75,-193.25 161.75,-193.25 161.75,-193.25 161.75,-124.75 161.75,-92.07 159.99,-75.36 185.75,-55.25 223.26,-25.97 554.38,-14.48 662.65,-11.48"/>
<polygon fill="#63b8ff" stroke="#63b8ff" points="123.31,-287.22 120.13,-297.33 128.92,-291.41 123.31,-287.22"/>
</g>
<!-- Node13 -->
<g id="node13" class="node">
<title>Node13</title>
<g id="a_node13"><a xlink:href="v8-typed-array_8h.html" target="_top" xlink:title=" ">
<polygon fill="white" stroke="#666666" points="133.75,-262.75 15.75,-262.75 15.75,-243.5 133.75,-243.5 133.75,-262.75"/>
<text text-anchor="middle" x="74.75" y="-249.25" font-family="Helvetica,sans-Serif" font-size="10.00">include/v8&#45;typed&#45;array.h</text>
</a>
</g>
</g>
<!-- Node2&#45;&gt;Node13 -->
<g id="edge16" class="edge">
<title>Node2&#45;&gt;Node13</title>
<path fill="none" stroke="#63b8ff" d="M100.15,-289.72C93.79,-280.81 86.34,-270.37 81.16,-263.11"/>
<polygon fill="#63b8ff" stroke="#63b8ff" points="97.82,-291.47 106.48,-297.58 103.52,-287.41 97.82,-291.47"/>
</g>
<!-- Node4 -->
<g id="node4" class="node">
<title>Node4</title>
<g id="a_node4"><a xlink:href="v8-external-memory-accounter_8h.html" target="_top" xlink:title=" ">
<polygon fill="white" stroke="#666666" points="819.12,-207.5 712.38,-207.5 712.38,-177 819.12,-177 819.12,-207.5"/>
<text text-anchor="start" x="720.38" y="-194" font-family="Helvetica,sans-Serif" font-size="10.00">include/v8&#45;external</text>
<text text-anchor="middle" x="765.75" y="-182.75" font-family="Helvetica,sans-Serif" font-size="10.00">&#45;memory&#45;accounter.h</text>
</a>
</g>
</g>
<!-- Node3&#45;&gt;Node4 -->
<g id="edge3" class="edge">
<title>Node3&#45;&gt;Node4</title>
<path fill="none" stroke="#63b8ff" d="M894.4,-239.44C868.64,-230.19 833.66,-217.63 806.68,-207.94"/>
<polygon fill="#63b8ff" stroke="#63b8ff" points="892.89,-242.97 903.48,-243.05 895.26,-236.38 892.89,-242.97"/>
</g>
<!-- Node5 -->
<g id="node5" class="node">
<title>Node5</title>
<g id="a_node5"><a xlink:href="v8-initialization_8h.html" target="_top" xlink:title=" ">
<polygon fill="white" stroke="#666666" points="1245.25,-201.88 1124.25,-201.88 1124.25,-182.62 1245.25,-182.62 1245.25,-201.88"/>
<text text-anchor="middle" x="1184.75" y="-188.38" font-family="Helvetica,sans-Serif" font-size="10.00">include/v8&#45;initialization.h</text>
</a>
</g>
</g>
<!-- Node3&#45;&gt;Node5 -->
<g id="edge4" class="edge">
<title>Node3&#45;&gt;Node5</title>
<path fill="none" stroke="#63b8ff" d="M979.6,-240.61C1028.12,-229.41 1100.85,-212.62 1145.42,-202.33"/>
<polygon fill="#63b8ff" stroke="#63b8ff" points="978.99,-237.39 970.03,-243.05 980.57,-244.22 978.99,-237.39"/>
</g>
<!-- Node3&#45;&gt;Node6 -->
<g id="edge15" class="edge">
<title>Node3&#45;&gt;Node6</title>
<path fill="none" stroke="#63b8ff" d="M905.55,-237.34C893.1,-229.22 878,-218.58 865.75,-207.5 794.25,-142.85 724.19,-48.71 703.13,-19.56"/>
<polygon fill="#63b8ff" stroke="#63b8ff" points="903.16,-240.6 913.47,-243.02 906.91,-234.69 903.16,-240.6"/>
</g>
<!-- Node7 -->
<g id="node7" class="node">
<title>Node7</title>
<g id="a_node7"><a xlink:href="v8-inspector_8h.html" target="_top" xlink:title=" ">
<polygon fill="white" stroke="#666666" points="985,-201.88 874.5,-201.88 874.5,-182.62 985,-182.62 985,-201.88"/>
<text text-anchor="middle" x="929.75" y="-188.38" font-family="Helvetica,sans-Serif" font-size="10.00">include/v8&#45;inspector.h</text>
</a>
</g>
</g>
<!-- Node3&#45;&gt;Node7 -->
<g id="edge6" class="edge">
<title>Node3&#45;&gt;Node7</title>
<path fill="none" stroke="#63b8ff" d="M929.75,-232.37C929.75,-222.18 929.75,-210.26 929.75,-202.28"/>
<polygon fill="#63b8ff" stroke="#63b8ff" points="926.25,-232.18 929.75,-242.18 933.25,-232.18 926.25,-232.18"/>
</g>
<!-- Node9 -->
<g id="node9" class="node">
<title>Node9</title>
<g id="a_node9"><a xlink:href="v8-metrics_8h.html" target="_top" xlink:title=" ">
<polygon fill="white" stroke="#666666" points="1106.25,-201.88 1003.25,-201.88 1003.25,-182.62 1106.25,-182.62 1106.25,-201.88"/>
<text text-anchor="middle" x="1054.75" y="-188.38" font-family="Helvetica,sans-Serif" font-size="10.00">include/v8&#45;metrics.h</text>
</a>
</g>
</g>
<!-- Node3&#45;&gt;Node9 -->
<g id="edge8" class="edge">
<title>Node3&#45;&gt;Node9</title>
<path fill="none" stroke="#63b8ff" d="M958.85,-238.42C982.52,-227.27 1015.23,-211.87 1035.68,-202.23"/>
<polygon fill="#63b8ff" stroke="#63b8ff" points="957.56,-235.63 950.01,-243.05 960.55,-241.96 957.56,-235.63"/>
</g>
<!-- Node10 -->
<g id="node10" class="node">
<title>Node10</title>
<g id="a_node10"><a xlink:href="v8-snapshot_8h.html" target="_top" xlink:title=" ">
<polygon fill="white" stroke="#666666" points="694,-201.88 583.5,-201.88 583.5,-182.62 694,-182.62 694,-201.88"/>
<text text-anchor="middle" x="638.75" y="-188.38" font-family="Helvetica,sans-Serif" font-size="10.00">include/v8&#45;snapshot.h</text>
</a>
</g>
</g>
<!-- Node3&#45;&gt;Node10 -->
<g id="edge9" class="edge">
<title>Node3&#45;&gt;Node10</title>
<path fill="none" stroke="#63b8ff" d="M871.48,-240.97C825.8,-232.13 760.66,-219.36 703.75,-207.5 695.95,-205.87 687.63,-204.09 679.64,-202.35"/>
<polygon fill="#63b8ff" stroke="#63b8ff" points="870.59,-244.55 881.07,-243.01 871.92,-237.68 870.59,-244.55"/>
</g>
<!-- Node5&#45;&gt;Node6 -->
<g id="edge5" class="edge">
<title>Node5&#45;&gt;Node6</title>
<path fill="none" stroke="#63b8ff" d="M1155.82,-177.58C1099.77,-151.45 972.11,-93.59 860.75,-55.25 816.67,-40.07 764.53,-26.63 731.07,-18.57"/>
<polygon fill="#63b8ff" stroke="#63b8ff" points="1154.2,-181.15 1164.74,-182.22 1157.17,-174.82 1154.2,-181.15"/>
</g>
<!-- Node8 -->
<g id="node8" class="node">
<title>Node8</title>
<g id="a_node8"><a xlink:href="v8-inspector-protocol_8h.html" target="_top" xlink:title=" ">
<polygon fill="white" stroke="#666666" points="981.25,-141 878.25,-141 878.25,-110.5 981.25,-110.5 981.25,-141"/>
<text text-anchor="start" x="886.25" y="-127.5" font-family="Helvetica,sans-Serif" font-size="10.00">include/v8&#45;inspector</text>
<text text-anchor="middle" x="929.75" y="-116.25" font-family="Helvetica,sans-Serif" font-size="10.00">&#45;protocol.h</text>
</a>
</g>
</g>
<!-- Node7&#45;&gt;Node8 -->
<g id="edge7" class="edge">
<title>Node7&#45;&gt;Node8</title>
<path fill="none" stroke="#63b8ff" d="M929.75,-171.52C929.75,-161.7 929.75,-150.05 929.75,-141.09"/>
<polygon fill="#63b8ff" stroke="#63b8ff" points="926.25,-171.28 929.75,-181.28 933.25,-171.28 926.25,-171.28"/>
</g>
<!-- Node10&#45;&gt;Node6 -->
<g id="edge14" class="edge">
<title>Node10&#45;&gt;Node6</title>
<path fill="none" stroke="#63b8ff" d="M664.5,-176.33C676.7,-167.72 690.05,-155.68 696.75,-141 715.84,-99.2 704.65,-41.71 699.2,-19.7"/>
<polygon fill="#63b8ff" stroke="#63b8ff" points="662.96,-173.81 656.52,-182.23 666.8,-179.66 662.96,-173.81"/>
</g>
<!-- Node11 -->
<g id="node11" class="node">
<title>Node11</title>
<g id="a_node11"><a xlink:href="v8-context_8h.html" target="_top" xlink:title=" ">
<polygon fill="white" stroke="#666666" points="687.88,-135.38 585.62,-135.38 585.62,-116.12 687.88,-116.12 687.88,-135.38"/>
<text text-anchor="middle" x="636.75" y="-121.88" font-family="Helvetica,sans-Serif" font-size="10.00">include/v8&#45;context.h</text>
</a>
</g>
</g>
<!-- Node10&#45;&gt;Node11 -->
<g id="edge10" class="edge">
<title>Node10&#45;&gt;Node11</title>
<path fill="none" stroke="#63b8ff" d="M638.14,-171.52C637.77,-159.55 637.31,-144.85 637.03,-135.64"/>
<polygon fill="#63b8ff" stroke="#63b8ff" points="634.66,-171.39 638.47,-181.28 641.66,-171.18 634.66,-171.39"/>
</g>
<!-- Node11&#45;&gt;Node6 -->
<g id="edge13" class="edge">
<title>Node11&#45;&gt;Node6</title>
<path fill="none" stroke="#63b8ff" d="M646.57,-106.07C659.66,-81.17 682.31,-38.09 692.06,-19.54"/>
<polygon fill="#63b8ff" stroke="#63b8ff" points="643.01,-104.31 641.46,-114.79 649.21,-107.57 643.01,-104.31"/>
</g>
<!-- Node11&#45;&gt;Node12 -->
<g id="edge11" class="edge">
<title>Node11&#45;&gt;Node12</title>
<path fill="none" stroke="#63b8ff" d="M626.1,-106.31C620.06,-95.85 612.77,-83.23 607.96,-74.9"/>
<polygon fill="#63b8ff" stroke="#63b8ff" points="623.55,-107.9 631.59,-114.81 629.62,-104.4 623.55,-107.9"/>
</g>
<!-- Node12&#45;&gt;Node6 -->
<g id="edge12" class="edge">
<title>Node12&#45;&gt;Node6</title>
<path fill="none" stroke="#63b8ff" d="M627.93,-49.61C644.71,-40.11 666.25,-27.9 680.73,-19.7"/>
<polygon fill="#63b8ff" stroke="#63b8ff" points="626.67,-46.87 619.7,-54.84 630.12,-52.96 626.67,-46.87"/>
</g>
<!-- Node13&#45;&gt;Node6 -->
<g id="edge18" class="edge">
<title>Node13&#45;&gt;Node6</title>
<path fill="none" stroke="#63b8ff" d="M88.55,-234.42C94.19,-226.53 100.4,-216.9 104.75,-207.5 134.29,-143.69 93.45,-99.92 147.75,-55.25 187.49,-22.56 548.53,-13.29 662.47,-11.17"/>
<polygon fill="#63b8ff" stroke="#63b8ff" points="85.27,-231.96 82.11,-242.07 90.89,-236.14 85.27,-231.96"/>
</g>
<!-- Node14 -->
<g id="node14" class="node">
<title>Node14</title>
<g id="a_node14"><a xlink:href="v8-fast-api-calls_8h.html" target="_top" xlink:title=" ">
<polygon fill="white" stroke="#666666" points="95.5,-207.5 0,-207.5 0,-177 95.5,-177 95.5,-207.5"/>
<text text-anchor="start" x="8" y="-194" font-family="Helvetica,sans-Serif" font-size="10.00">include/v8&#45;fast&#45;api</text>
<text text-anchor="middle" x="47.75" y="-182.75" font-family="Helvetica,sans-Serif" font-size="10.00">&#45;calls.h</text>
</a>
</g>
</g>
<!-- Node13&#45;&gt;Node14 -->
<g id="edge17" class="edge">
<title>Node13&#45;&gt;Node14</title>
<path fill="none" stroke="#63b8ff" d="M66.13,-233.32C62.34,-225.05 57.95,-215.49 54.41,-207.78"/>
<polygon fill="#63b8ff" stroke="#63b8ff" points="63.3,-234.55 70.65,-242.18 69.66,-231.63 63.3,-234.55"/>
</g>
<!-- Node15&#45;&gt;Node6 -->
<g id="edge21" class="edge">
<title>Node15&#45;&gt;Node6</title>
<path fill="none" stroke="#63b8ff" d="M283.23,-232.52C285.38,-192.22 296.42,-100.1 351.75,-55.25 398.96,-16.98 585.16,-11.3 662.64,-10.62"/>
<polygon fill="#63b8ff" stroke="#63b8ff" points="279.71,-232.13 282.82,-242.26 286.7,-232.4 279.71,-232.13"/>
</g>
<!-- Node16&#45;&gt;Node6 -->
<g id="edge23" class="edge">
<title>Node16&#45;&gt;Node6</title>
<path fill="none" stroke="#63b8ff" d="M340.68,-399.28C351.02,-378.12 365.75,-342.24 365.75,-309.38 365.75,-309.38 365.75,-309.38 365.75,-124.75 365.75,-92.07 364.57,-76.08 389.75,-55.25 430.72,-21.34 591.2,-13.19 662.4,-11.24"/>
<polygon fill="#63b8ff" stroke="#63b8ff" points="337.19,-397.41 335.76,-407.9 343.43,-400.59 337.19,-397.41"/>
</g>
<!-- Node17&#45;&gt;Node3 -->
<g id="edge25" class="edge">
<title>Node17&#45;&gt;Node3</title>
<path fill="none" stroke="#63b8ff" d="M444.2,-453.74C450.21,-426.36 465.39,-377.12 499.75,-354 619.14,-273.68 794.7,-257.46 879.82,-254.51"/>
<polygon fill="#63b8ff" stroke="#63b8ff" points="440.62,-452.81 442.11,-463.3 447.49,-454.18 440.62,-452.81"/>
</g>
<!-- Node17&#45;&gt;Node6 -->
<g id="edge30" class="edge">
<title>Node17&#45;&gt;Node6</title>
<path fill="none" stroke="#63b8ff" d="M430.26,-454.59C419.32,-433.5 403.75,-397.67 403.75,-364.62 403.75,-364.62 403.75,-364.62 403.75,-124.75 403.75,-85.08 425.71,-75.62 459.75,-55.25 524.06,-16.76 614.31,-10.28 662.78,-9.86"/>
<polygon fill="#63b8ff" stroke="#63b8ff" points="427.61,-456.06 435.45,-463.19 433.77,-452.73 427.61,-456.06"/>
</g>
<!-- Node17&#45;&gt;Node18 -->
<g id="edge26" class="edge">
<title>Node17&#45;&gt;Node18</title>
<path fill="none" stroke="#63b8ff" d="M463.82,-458.32C478.51,-448.9 497.06,-437 509.6,-428.95"/>
<polygon fill="#63b8ff" stroke="#63b8ff" points="462.36,-455.75 455.83,-464.09 466.14,-461.64 462.36,-455.75"/>
</g>
<!-- Node18&#45;&gt;Node6 -->
<g id="edge29" class="edge">
<title>Node18&#45;&gt;Node6</title>
<path fill="none" stroke="#63b8ff" d="M501.55,-402.45C477.27,-383.57 441.75,-349.15 441.75,-309.38 441.75,-309.38 441.75,-309.38 441.75,-124.75 441.75,-29.08 593.14,-13.08 662.62,-10.78"/>
<polygon fill="#63b8ff" stroke="#63b8ff" points="499.1,-405.73 509.21,-408.9 503.28,-400.12 499.1,-405.73"/>
</g>
<!-- Node18&#45;&gt;Node19 -->
<g id="edge27" class="edge">
<title>Node18&#45;&gt;Node19</title>
<path fill="none" stroke="#63b8ff" d="M536.35,-400.22C542.71,-391.31 550.16,-380.87 555.34,-373.61"/>
<polygon fill="#63b8ff" stroke="#63b8ff" points="532.98,-397.91 530.02,-408.08 538.68,-401.97 532.98,-397.91"/>
</g>
<!-- Node19&#45;&gt;Node6 -->
<g id="edge28" class="edge">
<title>Node19&#45;&gt;Node6</title>
<path fill="none" stroke="#63b8ff" d="M549.71,-344.72C516.89,-293.5 432.93,-144.31 503.75,-55.25 523.23,-30.75 612.56,-18.53 662.58,-13.52"/>
<polygon fill="#63b8ff" stroke="#63b8ff" points="547.13,-346.16 555.53,-352.61 552.98,-342.33 547.13,-346.16"/>
</g>
<!-- Node20&#45;&gt;Node6 -->
<g id="edge33" class="edge">
<title>Node20&#45;&gt;Node6</title>
<path fill="none" stroke="#63b8ff" d="M641.61,-508.84C642.1,-473.45 640.37,-407.31 623.75,-354 601.54,-282.77 560.58,-279.7 541.75,-207.5 524.66,-141.99 503.87,-107.64 546.75,-55.25 574.72,-21.09 627.62,-12.31 662.53,-10.46"/>
<polygon fill="#63b8ff" stroke="#63b8ff" points="638.09,-508.53 641.38,-518.61 645.09,-508.68 638.09,-508.53"/>
</g>
<!-- Node21&#45;&gt;Node6 -->
<g id="edge53" class="edge">
<title>Node21&#45;&gt;Node6</title>
<path fill="none" stroke="#63b8ff" d="M1306.24,-520.63C1379.22,-487.29 1553.75,-393.04 1553.75,-254.12 1553.75,-254.12 1553.75,-254.12 1553.75,-124.75 1553.75,-61.18 1489.77,-73.07 1428.75,-55.25 1295.38,-16.3 857.38,-11.33 731.11,-10.71"/>
<polygon fill="#63b8ff" stroke="#63b8ff" points="1305.34,-517.65 1297.64,-524.93 1308.2,-524.03 1305.34,-517.65"/>
</g>
<!-- Node22 -->
<g id="node22" class="node">
<title>Node22</title>
<g id="a_node22"><a xlink:href="v8-callbacks_8h.html" target="_top" xlink:title=" ">
<polygon fill="white" stroke="#666666" points="1251.75,-483.75 1139.75,-483.75 1139.75,-464.5 1251.75,-464.5 1251.75,-483.75"/>
<text text-anchor="middle" x="1195.75" y="-470.25" font-family="Helvetica,sans-Serif" font-size="10.00">include/v8&#45;callbacks.h</text>
</a>
</g>
</g>
<!-- Node21&#45;&gt;Node22 -->
<g id="edge35" class="edge">
<title>Node21&#45;&gt;Node22</title>
<path fill="none" stroke="#63b8ff" d="M1254.29,-518.75C1239.56,-507.78 1220.2,-493.35 1207.86,-484.15"/>
<polygon fill="#63b8ff" stroke="#63b8ff" points="1251.64,-521.89 1261.75,-525.06 1255.82,-516.28 1251.64,-521.89"/>
</g>
<!-- Node28 -->
<g id="node28" class="node">
<title>Node28</title>
<g id="a_node28"><a xlink:href="v8-statistics_8h.html" target="_top" xlink:title=" ">
<polygon fill="white" stroke="#666666" points="1526,-318 1415.5,-318 1415.5,-298.75 1526,-298.75 1526,-318"/>
<text text-anchor="middle" x="1470.75" y="-304.5" font-family="Helvetica,sans-Serif" font-size="10.00">include/v8&#45;statistics.h</text>
</a>
</g>
</g>
<!-- Node21&#45;&gt;Node28 -->
<g id="edge50" class="edge">
<title>Node21&#45;&gt;Node28</title>
<path fill="none" stroke="#63b8ff" d="M1289.82,-516.73C1329.08,-471.74 1433.52,-352.04 1462.94,-318.33"/>
<polygon fill="#63b8ff" stroke="#63b8ff" points="1286.61,-514.08 1282.68,-523.92 1291.89,-518.68 1286.61,-514.08"/>
</g>
<!-- Node22&#45;&gt;Node3 -->
<g id="edge37" class="edge">
<title>Node22&#45;&gt;Node3</title>
<path fill="none" stroke="#63b8ff" d="M1128.76,-468.03C1094.98,-462.56 1055.07,-451.35 1025.75,-428.5 967.42,-383.03 939.53,-291.73 931.94,-262.99"/>
<polygon fill="#63b8ff" stroke="#63b8ff" points="1128.09,-471.62 1138.49,-469.61 1129.11,-464.69 1128.09,-471.62"/>
</g>
<!-- Node22&#45;&gt;Node5 -->
<g id="edge36" class="edge">
<title>Node22&#45;&gt;Node5</title>
<path fill="none" stroke="#63b8ff" d="M1146.02,-460.95C1100.36,-446.44 1039.75,-417.27 1039.75,-364.62 1039.75,-364.62 1039.75,-364.62 1039.75,-307.38 1039.75,-249.87 1111.04,-216.9 1153.64,-202.33"/>
<polygon fill="#63b8ff" stroke="#63b8ff" points="1144.8,-464.54 1155.38,-464.07 1146.82,-457.83 1144.8,-464.54"/>
</g>
<!-- Node23 -->
<g id="node23" class="node">
<title>Node23</title>
<g id="a_node23"><a xlink:href="v8-message_8h.html" target="_top" xlink:title=" ">
<polygon fill="white" stroke="#666666" points="1251,-428.5 1140.5,-428.5 1140.5,-409.25 1251,-409.25 1251,-428.5"/>
<text text-anchor="middle" x="1195.75" y="-415" font-family="Helvetica,sans-Serif" font-size="10.00">include/v8&#45;message.h</text>
</a>
</g>
</g>
<!-- Node22&#45;&gt;Node23 -->
<g id="edge38" class="edge">
<title>Node22&#45;&gt;Node23</title>
<path fill="none" stroke="#63b8ff" d="M1195.75,-453.46C1195.75,-445.02 1195.75,-435.58 1195.75,-428.86"/>
<polygon fill="#63b8ff" stroke="#63b8ff" points="1192.25,-453.33 1195.75,-463.33 1199.25,-453.33 1192.25,-453.33"/>
</g>
<!-- Node26 -->
<g id="node26" class="node">
<title>Node26</title>
<g id="a_node26"><a xlink:href="v8-script_8h.html" target="_top" xlink:title=" ">
<polygon fill="white" stroke="#666666" points="1357.12,-373.25 1262.38,-373.25 1262.38,-354 1357.12,-354 1357.12,-373.25"/>
<text text-anchor="middle" x="1309.75" y="-359.75" font-family="Helvetica,sans-Serif" font-size="10.00">include/v8&#45;script.h</text>
</a>
</g>
</g>
<!-- Node22&#45;&gt;Node26 -->
<g id="edge49" class="edge">
<title>Node22&#45;&gt;Node26</title>
<path fill="none" stroke="#63b8ff" d="M1220.4,-458.41C1232.86,-450.37 1247.83,-439.78 1259.75,-428.5 1278.16,-411.08 1295.4,-386.58 1304.01,-373.56"/>
<polygon fill="#63b8ff" stroke="#63b8ff" points="1219.06,-455.74 1212.45,-464.02 1222.78,-461.67 1219.06,-455.74"/>
</g>
<!-- Node23&#45;&gt;Node6 -->
<g id="edge48" class="edge">
<title>Node23&#45;&gt;Node6</title>
<path fill="none" stroke="#63b8ff" d="M1201.22,-398.45C1215.81,-346.59 1254.58,-208.72 1254.75,-207.5 1256.6,-194.07 1262.62,-188.03 1254.75,-177 1191.78,-88.75 842.58,-31.58 731.02,-15.37"/>
<polygon fill="#63b8ff" stroke="#63b8ff" points="1197.62,-397.32 1198.28,-407.9 1204.35,-399.22 1197.62,-397.32"/>
</g>
<!-- Node23&#45;&gt;Node19 -->
<g id="edge39" class="edge">
<title>Node23&#45;&gt;Node19</title>
<path fill="none" stroke="#63b8ff" d="M1129.37,-412.3C1002.99,-401.68 730.13,-378.77 614.86,-369.09"/>
<polygon fill="#63b8ff" stroke="#63b8ff" points="1128.78,-415.85 1139.04,-413.2 1129.37,-408.87 1128.78,-415.85"/>
</g>
<!-- Node24 -->
<g id="node24" class="node">
<title>Node24</title>
<g id="a_node24"><a xlink:href="v8-json_8h.html" target="_top" xlink:title=" ">
<polygon fill="white" stroke="#666666" points="1322.12,-135.38 1233.38,-135.38 1233.38,-116.12 1322.12,-116.12 1322.12,-135.38"/>
<text text-anchor="middle" x="1277.75" y="-121.88" font-family="Helvetica,sans-Serif" font-size="10.00">include/v8&#45;json.h</text>
</a>
</g>
</g>
<!-- Node23&#45;&gt;Node24 -->
<g id="edge40" class="edge">
<title>Node23&#45;&gt;Node24</title>
<path fill="none" stroke="#63b8ff" d="M1204.94,-399.53C1226.57,-355.98 1279.48,-247.07 1287.75,-207.5 1293.13,-181.78 1285.41,-150.81 1280.79,-135.79"/>
<polygon fill="#63b8ff" stroke="#63b8ff" points="1201.49,-397.6 1200.16,-408.11 1207.76,-400.72 1201.49,-397.6"/>
</g>
<!-- Node25 -->
<g id="node25" class="node">
<title>Node25</title>
<g id="a_node25"><a xlink:href="v8-profiler_8h.html" target="_top" xlink:title=" ">
<polygon fill="white" stroke="#666666" points="1167.38,-373.25 1068.12,-373.25 1068.12,-354 1167.38,-354 1167.38,-373.25"/>
<text text-anchor="middle" x="1117.75" y="-359.75" font-family="Helvetica,sans-Serif" font-size="10.00">include/v8&#45;profiler.h</text>
</a>
</g>
</g>
<!-- Node23&#45;&gt;Node25 -->
<g id="edge42" class="edge">
<title>Node23&#45;&gt;Node25</title>
<path fill="none" stroke="#63b8ff" d="M1173.67,-402.8C1159.94,-393.42 1142.72,-381.67 1131.05,-373.7"/>
<polygon fill="#63b8ff" stroke="#63b8ff" points="1171.29,-406.09 1181.52,-408.84 1175.23,-400.31 1171.29,-406.09"/>
</g>
<!-- Node23&#45;&gt;Node26 -->
<g id="edge43" class="edge">
<title>Node23&#45;&gt;Node26</title>
<path fill="none" stroke="#63b8ff" d="M1224.87,-404.27C1245.41,-394.68 1272.35,-382.09 1290.32,-373.7"/>
<polygon fill="#63b8ff" stroke="#63b8ff" points="1223.67,-401.44 1216.09,-408.84 1226.63,-407.78 1223.67,-401.44"/>
</g>
<!-- Node24&#45;&gt;Node6 -->
<g id="edge41" class="edge">
<title>Node24&#45;&gt;Node6</title>
<path fill="none" stroke="#63b8ff" d="M1268.32,-106.83C1258.56,-90.31 1241.68,-66.67 1219.75,-55.25 1134.28,-10.73 833.06,-9.31 730.92,-10.17"/>
<polygon fill="#63b8ff" stroke="#63b8ff" points="1265.52,-108 1273.45,-115.02 1271.63,-104.59 1265.52,-108"/>
</g>
<!-- Node26&#45;&gt;Node6 -->
<g id="edge47" class="edge">
<title>Node26&#45;&gt;Node6</title>
<path fill="none" stroke="#63b8ff" d="M1336.35,-347.79C1347.78,-340.21 1360.4,-330.04 1368.75,-318 1385.62,-293.66 1387.75,-283.74 1387.75,-254.12 1387.75,-254.12 1387.75,-254.12 1387.75,-124.75 1387.75,-68.79 1335.69,-73.4 1282.75,-55.25 1179.6,-19.88 840.17,-12.46 730.94,-10.98"/>
<polygon fill="#63b8ff" stroke="#63b8ff" points="1334.78,-345.26 1328.15,-353.52 1338.49,-351.2 1334.78,-345.26"/>
</g>
<!-- Node27 -->
<g id="node27" class="node">
<title>Node27</title>
<g id="a_node27"><a xlink:href="v8-debug_8h.html" target="_top" xlink:title=" ">
<polygon fill="white" stroke="#666666" points="1359.25,-318 1262.25,-318 1262.25,-298.75 1359.25,-298.75 1359.25,-318"/>
<text text-anchor="middle" x="1310.75" y="-304.5" font-family="Helvetica,sans-Serif" font-size="10.00">include/v8&#45;debug.h</text>
</a>
</g>
</g>
<!-- Node26&#45;&gt;Node27 -->
<g id="edge44" class="edge">
<title>Node26&#45;&gt;Node27</title>
<path fill="none" stroke="#63b8ff" d="M1310.12,-342.96C1310.28,-334.52 1310.46,-325.08 1310.58,-318.36"/>
<polygon fill="#63b8ff" stroke="#63b8ff" points="1306.6,-342.77 1309.92,-352.83 1313.6,-342.9 1306.6,-342.77"/>
</g>
<!-- Node27&#45;&gt;Node3 -->
<g id="edge45" class="edge">
<title>Node27&#45;&gt;Node3</title>
<path fill="none" stroke="#63b8ff" d="M1251.48,-299.09C1176.74,-288.65 1049.6,-270.88 979.61,-261.09"/>
<polygon fill="#63b8ff" stroke="#63b8ff" points="1250.72,-302.66 1261.11,-300.58 1251.69,-295.73 1250.72,-302.66"/>
</g>
<!-- Node27&#45;&gt;Node6 -->
<g id="edge46" class="edge">
<title>Node27&#45;&gt;Node6</title>
<path fill="none" stroke="#63b8ff" d="M1321.32,-288.83C1332.87,-266.78 1349.75,-228.52 1349.75,-193.25 1349.75,-193.25 1349.75,-193.25 1349.75,-124.75 1349.75,-108.09 1386.66,-103.25 1244.75,-55.25 1148.79,-22.79 835.25,-13.48 730.89,-11.25"/>
<polygon fill="#63b8ff" stroke="#63b8ff" points="1317.89,-286.81 1316.17,-297.27 1324.03,-290.16 1317.89,-286.81"/>
</g>
<!-- Node28&#45;&gt;Node3 -->
<g id="edge51" class="edge">
<title>Node28&#45;&gt;Node3</title>
<path fill="none" stroke="#63b8ff" d="M1404.22,-300.83C1294.42,-290.02 1077.71,-268.69 979.82,-259.05"/>
<polygon fill="#63b8ff" stroke="#63b8ff" points="1403.85,-304.41 1414.14,-301.9 1404.53,-297.44 1403.85,-304.41"/>
</g>
<!-- Node28&#45;&gt;Node6 -->
<g id="edge52" class="edge">
<title>Node28&#45;&gt;Node6</title>
<path fill="none" stroke="#63b8ff" d="M1464.62,-287.8C1458.11,-265.24 1448.75,-226.95 1448.75,-193.25 1448.75,-193.25 1448.75,-193.25 1448.75,-124.75 1448.75,-87.46 1434.12,-73.77 1401.75,-55.25 1343.14,-21.71 863.54,-12.85 730.73,-11.03"/>
<polygon fill="#63b8ff" stroke="#63b8ff" points="1461.55,-288.75 1467.78,-297.32 1468.26,-286.73 1461.55,-288.75"/>
</g>
<!-- Node29&#45;&gt;Node6 -->
<g id="edge56" class="edge">
<title>Node29&#45;&gt;Node6</title>
<path fill="none" stroke="#63b8ff" d="M1591.75,-453.37C1591.75,-431.62 1591.75,-395.63 1591.75,-364.62 1591.75,-364.62 1591.75,-364.62 1591.75,-124.75 1591.75,-92.07 1593.87,-74.89 1567.75,-55.25 1533.75,-29.69 888.12,-14.61 731,-11.31"/>
<polygon fill="#63b8ff" stroke="#63b8ff" points="1588.25,-453.12 1591.75,-463.12 1595.25,-453.12 1588.25,-453.12"/>
</g>
<!-- Node30&#45;&gt;Node6 -->
<g id="edge59" class="edge">
<title>Node30&#45;&gt;Node6</title>
<path fill="none" stroke="#63b8ff" d="M1609.24,-55.59C1608.07,-55.47 1606.9,-55.36 1605.75,-55.25 1265.53,-23.67 851.47,-13.6 731.08,-11.23"/>
<polygon fill="#63b8ff" stroke="#63b8ff" points="1608.64,-59.15 1618.96,-56.77 1609.4,-52.19 1608.64,-59.15"/>
</g>
</g>
</svg>
