<?xml version="1.0" encoding="UTF-8" standalone="no"?>
<!DOCTYPE svg PUBLIC "-//W3C//DTD SVG 1.1//EN"
 "http://www.w3.org/Graphics/SVG/1.1/DTD/svg11.dtd">
<!-- Generated by graphviz version 8.0.5 (20230430.1635)
 -->
<!-- Title: include/v8&#45;primitive.h Pages: 1 -->
<svg width="1042pt" height="437pt"
 viewBox="0.00 0.00 1042.25 436.50" xmlns="http://www.w3.org/2000/svg" xmlns:xlink="http://www.w3.org/1999/xlink">
<g id="graph0" class="graph" transform="scale(1 1) rotate(0) translate(4 432.5)">
<title>include/v8&#45;primitive.h</title>
<!-- Node1 -->
<g id="node1" class="node">
<title>Node1</title>
<g id="a_node1"><a xlink:title=" ">
<polygon fill="#999999" stroke="#666666" points="398,-428.5 290.5,-428.5 290.5,-409.25 398,-409.25 398,-428.5"/>
<text text-anchor="middle" x="344.25" y="-415" font-family="Helvetica,sans-Serif" font-size="10.00">include/v8&#45;primitive.h</text>
</a>
</g>
</g>
<!-- Node2 -->
<g id="node2" class="node">
<title>Node2</title>
<g id="a_node2"><a xlink:href="v8-data_8h.html" target="_top" xlink:title=" ">
<polygon fill="white" stroke="#666666" points="372.12,-318 316.38,-318 316.38,-298.75 372.12,-298.75 372.12,-318"/>
<text text-anchor="middle" x="344.25" y="-304.5" font-family="Helvetica,sans-Serif" font-size="10.00">v8&#45;data.h</text>
</a>
</g>
</g>
<!-- Node1&#45;&gt;Node2 -->
<g id="edge1" class="edge">
<title>Node1&#45;&gt;Node2</title>
<path fill="none" stroke="#63b8ff" d="M344.25,-409C344.25,-391.67 344.25,-352.98 344.25,-329.24"/>
<polygon fill="#63b8ff" stroke="#63b8ff" points="347.75,-329.38 344.25,-319.38 340.75,-329.38 347.75,-329.38"/>
</g>
<!-- Node3 -->
<g id="node3" class="node">
<title>Node3</title>
<g id="a_node3"><a xlink:href="v8-local-handle_8h.html" target="_top" xlink:title=" ">
<polygon fill="white" stroke="#666666" points="390.62,-257.12 301.88,-257.12 301.88,-237.88 390.62,-237.88 390.62,-257.12"/>
<text text-anchor="middle" x="346.25" y="-243.62" font-family="Helvetica,sans-Serif" font-size="10.00">v8&#45;local&#45;handle.h</text>
</a>
</g>
</g>
<!-- Node1&#45;&gt;Node3 -->
<g id="edge24" class="edge">
<title>Node1&#45;&gt;Node3</title>
<path fill="none" stroke="#63b8ff" d="M337.49,-408.85C323.39,-388.89 293.29,-339.52 307.25,-298.75 311.59,-286.08 320.57,-274.14 328.82,-265.08"/>
<polygon fill="#63b8ff" stroke="#63b8ff" points="330.87,-267.96 335.33,-258.35 325.85,-263.08 330.87,-267.96"/>
</g>
<!-- Node8 -->
<g id="node8" class="node">
<title>Node8</title>
<g id="a_node8"><a xlink:href="v8-internal_8h.html" target="_top" xlink:title=" ">
<polygon fill="white" stroke="#666666" points="428.5,-135.38 360,-135.38 360,-116.12 428.5,-116.12 428.5,-135.38"/>
<text text-anchor="middle" x="394.25" y="-121.88" font-family="Helvetica,sans-Serif" font-size="10.00">v8&#45;internal.h</text>
</a>
</g>
</g>
<!-- Node1&#45;&gt;Node8 -->
<g id="edge23" class="edge">
<title>Node1&#45;&gt;Node8</title>
<path fill="none" stroke="#63b8ff" d="M305.79,-408.78C260.17,-395.44 190.25,-365.79 190.25,-309.38 190.25,-309.38 190.25,-309.38 190.25,-246.5 190.25,-214.48 186.59,-199.62 209.25,-177 246.04,-140.27 306.79,-129.66 348.58,-126.96"/>
<polygon fill="#63b8ff" stroke="#63b8ff" points="348.75,-130.41 358.56,-126.41 348.4,-123.42 348.75,-130.41"/>
</g>
<!-- Node18 -->
<g id="node18" class="node">
<title>Node18</title>
<g id="a_node18"><a xlink:href="v8config_8h.html" target="_top" xlink:title=" ">
<polygon fill="white" stroke="#666666" points="845,-74.5 785.5,-74.5 785.5,-55.25 845,-55.25 845,-74.5"/>
<text text-anchor="middle" x="815.25" y="-61" font-family="Helvetica,sans-Serif" font-size="10.00">v8config.h</text>
</a>
</g>
</g>
<!-- Node1&#45;&gt;Node18 -->
<g id="edge45" class="edge">
<title>Node1&#45;&gt;Node18</title>
<path fill="none" stroke="#63b8ff" d="M398.39,-415.06C561.05,-405.88 1034.25,-373.64 1034.25,-309.38 1034.25,-309.38 1034.25,-309.38 1034.25,-185.62 1034.25,-105.3 919.42,-78.51 856.06,-69.85"/>
<polygon fill="#63b8ff" stroke="#63b8ff" points="856.6,-66.26 846.24,-68.48 855.72,-73.21 856.6,-66.26"/>
</g>
<!-- Node19 -->
<g id="node19" class="node">
<title>Node19</title>
<g id="a_node19"><a xlink:href="v8-value_8h.html" target="_top" xlink:title=" ">
<polygon fill="white" stroke="#666666" points="450.38,-373.25 390.12,-373.25 390.12,-354 450.38,-354 450.38,-373.25"/>
<text text-anchor="middle" x="420.25" y="-359.75" font-family="Helvetica,sans-Serif" font-size="10.00">v8&#45;value.h</text>
</a>
</g>
</g>
<!-- Node1&#45;&gt;Node19 -->
<g id="edge25" class="edge">
<title>Node1&#45;&gt;Node19</title>
<path fill="none" stroke="#63b8ff" d="M357.14,-408.84C368.5,-400.89 385.27,-389.14 398.66,-379.75"/>
<polygon fill="#63b8ff" stroke="#63b8ff" points="400.11,-382.31 406.29,-373.7 396.1,-376.57 400.11,-382.31"/>
</g>
<!-- Node2&#45;&gt;Node3 -->
<g id="edge2" class="edge">
<title>Node2&#45;&gt;Node3</title>
<path fill="none" stroke="#63b8ff" d="M344.55,-298.43C344.82,-290.48 345.23,-278.56 345.58,-268.37"/>
<polygon fill="#63b8ff" stroke="#63b8ff" points="349.1,-268.64 345.94,-258.53 342.11,-268.4 349.1,-268.64"/>
</g>
<!-- Node2&#45;&gt;Node18 -->
<g id="edge22" class="edge">
<title>Node2&#45;&gt;Node18</title>
<path fill="none" stroke="#63b8ff" d="M357.56,-298.27C401.94,-268.22 549.58,-170.64 682.25,-110.5 712.27,-96.89 747.73,-85.2 774.48,-77.2"/>
<polygon fill="#63b8ff" stroke="#63b8ff" points="775.39,-80.28 784,-74.11 773.42,-73.57 775.39,-80.28"/>
</g>
<!-- Node4 -->
<g id="node4" class="node">
<title>Node4</title>
<g id="a_node4"><a xlink:title=" ">
<polygon fill="#e0e0e0" stroke="#999999" points="50.5,-74.5 0,-74.5 0,-55.25 50.5,-55.25 50.5,-74.5"/>
<text text-anchor="middle" x="25.25" y="-61" font-family="Helvetica,sans-Serif" font-size="10.00">stddef.h</text>
</a>
</g>
</g>
<!-- Node3&#45;&gt;Node4 -->
<g id="edge3" class="edge">
<title>Node3&#45;&gt;Node4</title>
<path fill="none" stroke="#63b8ff" d="M314.23,-237.4C285.79,-228.71 243.56,-214.29 209.25,-196.25 144.31,-162.11 75.86,-108.1 43.83,-81.6"/>
<polygon fill="#63b8ff" stroke="#63b8ff" points="46.71,-78.61 36.79,-74.89 42.22,-83.98 46.71,-78.61"/>
</g>
<!-- Node5 -->
<g id="node5" class="node">
<title>Node5</title>
<g id="a_node5"><a xlink:title=" ">
<polygon fill="#e0e0e0" stroke="#999999" points="696.75,-74.5 635.75,-74.5 635.75,-55.25 696.75,-55.25 696.75,-74.5"/>
<text text-anchor="middle" x="666.25" y="-61" font-family="Helvetica,sans-Serif" font-size="10.00">type_traits</text>
</a>
</g>
</g>
<!-- Node3&#45;&gt;Node5 -->
<g id="edge4" class="edge">
<title>Node3&#45;&gt;Node5</title>
<path fill="none" stroke="#63b8ff" d="M356.2,-237.67C383.21,-214.1 460.87,-148.85 535.25,-110.5 563.87,-95.74 598.43,-84.21 624.87,-76.56"/>
<polygon fill="#63b8ff" stroke="#63b8ff" points="625.62,-79.71 634.3,-73.63 623.72,-72.97 625.62,-79.71"/>
</g>
<!-- Node6 -->
<g id="node6" class="node">
<title>Node6</title>
<g id="a_node6"><a xlink:title=" ">
<polygon fill="#e0e0e0" stroke="#999999" points="368.75,-196.25 325.75,-196.25 325.75,-177 368.75,-177 368.75,-196.25"/>
<text text-anchor="middle" x="347.25" y="-182.75" font-family="Helvetica,sans-Serif" font-size="10.00">vector</text>
</a>
</g>
</g>
<!-- Node3&#45;&gt;Node6 -->
<g id="edge5" class="edge">
<title>Node3&#45;&gt;Node6</title>
<path fill="none" stroke="#63b8ff" d="M346.4,-237.56C346.54,-229.6 346.74,-217.69 346.91,-207.49"/>
<polygon fill="#63b8ff" stroke="#63b8ff" points="350.43,-207.71 347.1,-197.65 343.43,-207.59 350.43,-207.71"/>
</g>
<!-- Node7 -->
<g id="node7" class="node">
<title>Node7</title>
<g id="a_node7"><a xlink:href="v8-handle-base_8h.html" target="_top" xlink:title=" ">
<polygon fill="white" stroke="#666666" points="308,-196.25 218.5,-196.25 218.5,-177 308,-177 308,-196.25"/>
<text text-anchor="middle" x="263.25" y="-182.75" font-family="Helvetica,sans-Serif" font-size="10.00">v8&#45;handle&#45;base.h</text>
</a>
</g>
</g>
<!-- Node3&#45;&gt;Node7 -->
<g id="edge6" class="edge">
<title>Node3&#45;&gt;Node7</title>
<path fill="none" stroke="#63b8ff" d="M333.64,-237.56C320.73,-228.39 300.39,-213.97 284.89,-202.98"/>
<polygon fill="#63b8ff" stroke="#63b8ff" points="287.16,-199.58 276.97,-196.65 283.11,-205.29 287.16,-199.58"/>
</g>
<!-- Node3&#45;&gt;Node8 -->
<g id="edge21" class="edge">
<title>Node3&#45;&gt;Node8</title>
<path fill="none" stroke="#63b8ff" d="M353.41,-237.4C360.68,-227.72 371.78,-211.7 378.25,-196.25 385.05,-180.01 389.23,-160.37 391.61,-146.12"/>
<polygon fill="#63b8ff" stroke="#63b8ff" points="395.16,-147.01 393.19,-136.6 388.24,-145.97 395.16,-147.01"/>
</g>
<!-- Node7&#45;&gt;Node8 -->
<g id="edge7" class="edge">
<title>Node7&#45;&gt;Node8</title>
<path fill="none" stroke="#63b8ff" d="M283.43,-176.55C305.03,-166.85 339.54,-151.34 364.31,-140.21"/>
<polygon fill="#63b8ff" stroke="#63b8ff" points="365.57,-143.03 373.26,-135.73 362.7,-136.64 365.57,-143.03"/>
</g>
<!-- Node8&#45;&gt;Node4 -->
<g id="edge8" class="edge">
<title>Node8&#45;&gt;Node4</title>
<path fill="none" stroke="#63b8ff" d="M359.81,-120.73C300.73,-113.59 176.06,-97.45 61.5,-74.79"/>
<polygon fill="#63b8ff" stroke="#63b8ff" points="62.3,-71.18 51.81,-72.65 60.93,-78.04 62.3,-71.18"/>
</g>
<!-- Node8&#45;&gt;Node5 -->
<g id="edge18" class="edge">
<title>Node8&#45;&gt;Node5</title>
<path fill="none" stroke="#63b8ff" d="M428.99,-117.1C438.77,-114.96 449.43,-112.63 459.25,-110.5 530.67,-95.02 550.92,-91.08 625.25,-74.93"/>
<polygon fill="#63b8ff" stroke="#63b8ff" points="625.57,-78.22 634.6,-72.67 624.08,-71.38 625.57,-78.22"/>
</g>
<!-- Node9 -->
<g id="node9" class="node">
<title>Node9</title>
<g id="a_node9"><a xlink:title=" ">
<polygon fill="#e0e0e0" stroke="#999999" points="418,-74.5 370.5,-74.5 370.5,-55.25 418,-55.25 418,-74.5"/>
<text text-anchor="middle" x="394.25" y="-61" font-family="Helvetica,sans-Serif" font-size="10.00">stdint.h</text>
</a>
</g>
</g>
<!-- Node8&#45;&gt;Node9 -->
<g id="edge9" class="edge">
<title>Node8&#45;&gt;Node9</title>
<path fill="none" stroke="#63b8ff" d="M394.25,-115.81C394.25,-107.85 394.25,-95.94 394.25,-85.74"/>
<polygon fill="#63b8ff" stroke="#63b8ff" points="397.75,-85.9 394.25,-75.9 390.75,-85.9 397.75,-85.9"/>
</g>
<!-- Node10 -->
<g id="node10" class="node">
<title>Node10</title>
<g id="a_node10"><a xlink:title=" ">
<polygon fill="#e0e0e0" stroke="#999999" points="484,-74.5 436.5,-74.5 436.5,-55.25 484,-55.25 484,-74.5"/>
<text text-anchor="middle" x="460.25" y="-61" font-family="Helvetica,sans-Serif" font-size="10.00">string.h</text>
</a>
</g>
</g>
<!-- Node8&#45;&gt;Node10 -->
<g id="edge10" class="edge">
<title>Node8&#45;&gt;Node10</title>
<path fill="none" stroke="#63b8ff" d="M404.27,-115.81C414.26,-106.9 429.81,-93.03 441.99,-82.17"/>
<polygon fill="#63b8ff" stroke="#63b8ff" points="444,-85.17 449.13,-75.9 439.34,-79.95 444,-85.17"/>
</g>
<!-- Node11 -->
<g id="node11" class="node">
<title>Node11</title>
<g id="a_node11"><a xlink:title=" ">
<polygon fill="#e0e0e0" stroke="#999999" points="546.88,-74.5 501.62,-74.5 501.62,-55.25 546.88,-55.25 546.88,-74.5"/>
<text text-anchor="middle" x="524.25" y="-61" font-family="Helvetica,sans-Serif" font-size="10.00">atomic</text>
</a>
</g>
</g>
<!-- Node8&#45;&gt;Node11 -->
<g id="edge11" class="edge">
<title>Node8&#45;&gt;Node11</title>
<path fill="none" stroke="#63b8ff" d="M414.28,-115.68C435.72,-105.97 469.96,-90.46 494.54,-79.33"/>
<polygon fill="#63b8ff" stroke="#63b8ff" points="495.75,-82.17 503.41,-74.86 492.86,-75.8 495.75,-82.17"/>
</g>
<!-- Node12 -->
<g id="node12" class="node">
<title>Node12</title>
<g id="a_node12"><a xlink:title=" ">
<polygon fill="#e0e0e0" stroke="#999999" points="618,-74.5 564.5,-74.5 564.5,-55.25 618,-55.25 618,-74.5"/>
<text text-anchor="middle" x="591.25" y="-61" font-family="Helvetica,sans-Serif" font-size="10.00">compare</text>
</a>
</g>
</g>
<!-- Node8&#45;&gt;Node12 -->
<g id="edge12" class="edge">
<title>Node8&#45;&gt;Node12</title>
<path fill="none" stroke="#63b8ff" d="M424.6,-115.68C459.28,-105.32 516.05,-88.35 553.54,-77.14"/>
<polygon fill="#63b8ff" stroke="#63b8ff" points="554.46,-80.22 563.04,-74.01 552.46,-73.52 554.46,-80.22"/>
</g>
<!-- Node13 -->
<g id="node13" class="node">
<title>Node13</title>
<g id="a_node13"><a xlink:title=" ">
<polygon fill="#e0e0e0" stroke="#999999" points="124.12,-74.5 68.38,-74.5 68.38,-55.25 124.12,-55.25 124.12,-74.5"/>
<text text-anchor="middle" x="96.25" y="-61" font-family="Helvetica,sans-Serif" font-size="10.00">concepts</text>
</a>
</g>
</g>
<!-- Node8&#45;&gt;Node13 -->
<g id="edge13" class="edge">
<title>Node8&#45;&gt;Node13</title>
<path fill="none" stroke="#63b8ff" d="M359.54,-118.51C311.41,-109.76 221.43,-93.06 135.02,-74.81"/>
<polygon fill="#63b8ff" stroke="#63b8ff" points="136.02,-71.23 125.51,-72.58 134.56,-78.08 136.02,-71.23"/>
</g>
<!-- Node14 -->
<g id="node14" class="node">
<title>Node14</title>
<g id="a_node14"><a xlink:title=" ">
<polygon fill="#e0e0e0" stroke="#999999" points="188.25,-74.5 142.25,-74.5 142.25,-55.25 188.25,-55.25 188.25,-74.5"/>
<text text-anchor="middle" x="165.25" y="-61" font-family="Helvetica,sans-Serif" font-size="10.00">iterator</text>
</a>
</g>
</g>
<!-- Node8&#45;&gt;Node14 -->
<g id="edge14" class="edge">
<title>Node8&#45;&gt;Node14</title>
<path fill="none" stroke="#63b8ff" d="M359.69,-116.09C322.41,-106.7 261.01,-91.16 199.01,-74.94"/>
<polygon fill="#63b8ff" stroke="#63b8ff" points="200.22,-71.37 189.66,-72.22 198.44,-78.15 200.22,-71.37"/>
</g>
<!-- Node15 -->
<g id="node15" class="node">
<title>Node15</title>
<g id="a_node15"><a xlink:title=" ">
<polygon fill="#e0e0e0" stroke="#999999" points="245.88,-74.5 206.62,-74.5 206.62,-55.25 245.88,-55.25 245.88,-74.5"/>
<text text-anchor="middle" x="226.25" y="-61" font-family="Helvetica,sans-Serif" font-size="10.00">limits</text>
</a>
</g>
</g>
<!-- Node8&#45;&gt;Node15 -->
<g id="edge15" class="edge">
<title>Node8&#45;&gt;Node15</title>
<path fill="none" stroke="#63b8ff" d="M368.37,-115.68C338.18,-105.1 288.37,-87.64 256.44,-76.46"/>
<polygon fill="#63b8ff" stroke="#63b8ff" points="257.96,-72.93 247.36,-72.92 255.64,-79.53 257.96,-72.93"/>
</g>
<!-- Node16 -->
<g id="node16" class="node">
<title>Node16</title>
<g id="a_node16"><a xlink:title=" ">
<polygon fill="#e0e0e0" stroke="#999999" points="602.5,-19.25 552,-19.25 552,0 602.5,0 602.5,-19.25"/>
<text text-anchor="middle" x="577.25" y="-5.75" font-family="Helvetica,sans-Serif" font-size="10.00">memory</text>
</a>
</g>
</g>
<!-- Node8&#45;&gt;Node16 -->
<g id="edge16" class="edge">
<title>Node8&#45;&gt;Node16</title>
<path fill="none" stroke="#63b8ff" d="M384.2,-115.87C369.57,-101.87 345.73,-74.31 361.25,-55.25 383.48,-27.96 485.17,-16.85 540.73,-12.76"/>
<polygon fill="#63b8ff" stroke="#63b8ff" points="540.79,-16.19 550.52,-12.01 540.3,-9.21 540.79,-16.19"/>
</g>
<!-- Node17 -->
<g id="node17" class="node">
<title>Node17</title>
<g id="a_node17"><a xlink:title=" ">
<polygon fill="#e0e0e0" stroke="#999999" points="314.12,-74.5 264.38,-74.5 264.38,-55.25 314.12,-55.25 314.12,-74.5"/>
<text text-anchor="middle" x="289.25" y="-61" font-family="Helvetica,sans-Serif" font-size="10.00">optional</text>
</a>
</g>
</g>
<!-- Node8&#45;&gt;Node17 -->
<g id="edge17" class="edge">
<title>Node8&#45;&gt;Node17</title>
<path fill="none" stroke="#63b8ff" d="M378.3,-115.81C361.42,-106.34 334.53,-91.26 314.7,-80.15"/>
<polygon fill="#63b8ff" stroke="#63b8ff" points="316.78,-76.74 306.35,-74.9 313.36,-82.84 316.78,-76.74"/>
</g>
<!-- Node8&#45;&gt;Node18 -->
<g id="edge19" class="edge">
<title>Node8&#45;&gt;Node18</title>
<path fill="none" stroke="#63b8ff" d="M428.7,-119.93C505.77,-109.15 691.81,-83.14 774.48,-71.58"/>
<polygon fill="#63b8ff" stroke="#63b8ff" points="774.78,-74.93 784.2,-70.08 773.82,-68 774.78,-74.93"/>
</g>
<!-- Node18&#45;&gt;Node16 -->
<g id="edge20" class="edge">
<title>Node18&#45;&gt;Node16</title>
<path fill="none" stroke="#63b8ff" d="M785.11,-57.13C741.33,-47.34 660.3,-29.21 613.38,-18.71"/>
<polygon fill="#63b8ff" stroke="#63b8ff" points="614.32,-15.11 603.79,-16.34 612.79,-21.94 614.32,-15.11"/>
</g>
<!-- Node19&#45;&gt;Node2 -->
<g id="edge26" class="edge">
<title>Node19&#45;&gt;Node2</title>
<path fill="none" stroke="#63b8ff" d="M407.36,-353.59C396,-345.64 379.23,-333.89 365.84,-324.5"/>
<polygon fill="#63b8ff" stroke="#63b8ff" points="368.4,-321.32 358.21,-318.45 364.39,-327.06 368.4,-321.32"/>
</g>
<!-- Node19&#45;&gt;Node3 -->
<g id="edge28" class="edge">
<title>Node19&#45;&gt;Node3</title>
<path fill="none" stroke="#63b8ff" d="M415.12,-353.84C407.81,-341.43 393.89,-318.12 381.25,-298.75 374.09,-287.78 365.72,-275.73 358.95,-266.18"/>
<polygon fill="#63b8ff" stroke="#63b8ff" points="361.27,-264.39 352.61,-258.29 355.57,-268.46 361.27,-264.39"/>
</g>
<!-- Node19&#45;&gt;Node8 -->
<g id="edge27" class="edge">
<title>Node19&#45;&gt;Node8</title>
<path fill="none" stroke="#63b8ff" d="M419.26,-353.67C415.47,-319.3 401.81,-195.35 396.44,-146.62"/>
<polygon fill="#63b8ff" stroke="#63b8ff" points="399.81,-146.27 395.24,-136.72 392.86,-147.04 399.81,-146.27"/>
</g>
<!-- Node19&#45;&gt;Node18 -->
<g id="edge44" class="edge">
<title>Node19&#45;&gt;Node18</title>
<path fill="none" stroke="#63b8ff" d="M450.81,-363.14C569.89,-364.33 996.25,-360.77 996.25,-248.5 996.25,-248.5 996.25,-248.5 996.25,-185.62 996.25,-147.59 984.59,-134.71 955.25,-110.5 926.95,-87.15 886.25,-75.95 856.03,-70.62"/>
<polygon fill="#63b8ff" stroke="#63b8ff" points="856.84,-67.04 846.41,-68.91 855.72,-73.95 856.84,-67.04"/>
</g>
<!-- Node20 -->
<g id="node20" class="node">
<title>Node20</title>
<g id="a_node20"><a xlink:href="v8-maybe_8h.html" target="_top" xlink:title=" ">
<polygon fill="white" stroke="#666666" points="643,-318 577.5,-318 577.5,-298.75 643,-298.75 643,-318"/>
<text text-anchor="middle" x="610.25" y="-304.5" font-family="Helvetica,sans-Serif" font-size="10.00">v8&#45;maybe.h</text>
</a>
</g>
</g>
<!-- Node19&#45;&gt;Node20 -->
<g id="edge29" class="edge">
<title>Node19&#45;&gt;Node20</title>
<path fill="none" stroke="#63b8ff" d="M450.78,-354.07C482.34,-345.22 531.88,-331.34 567.36,-321.39"/>
<polygon fill="#63b8ff" stroke="#63b8ff" points="568.21,-324.51 576.89,-318.44 566.32,-317.77 568.21,-324.51"/>
</g>
<!-- Node20&#45;&gt;Node5 -->
<g id="edge30" class="edge">
<title>Node20&#45;&gt;Node5</title>
<path fill="none" stroke="#63b8ff" d="M607.32,-298.27C604.6,-289.33 600.77,-275.27 599.25,-262.75 597.62,-249.29 597.16,-245.64 599.25,-232.25 608.02,-176.11 614.3,-162.02 638.25,-110.5 642.53,-101.29 648.37,-91.67 653.61,-83.73"/>
<polygon fill="#63b8ff" stroke="#63b8ff" points="657.01,-85.96 659.76,-75.73 651.23,-82.01 657.01,-85.96"/>
</g>
<!-- Node20&#45;&gt;Node8 -->
<g id="edge42" class="edge">
<title>Node20&#45;&gt;Node8</title>
<path fill="none" stroke="#63b8ff" d="M592.18,-298.26C576.47,-289.96 553.44,-276.88 535.25,-262.75 492.62,-229.64 488.29,-214.27 449.25,-177 437,-165.3 422.88,-152.42 412.02,-142.63"/>
<polygon fill="#63b8ff" stroke="#63b8ff" points="414.88,-140.6 405.1,-136.52 410.21,-145.8 414.88,-140.6"/>
</g>
<!-- Node20&#45;&gt;Node18 -->
<g id="edge43" class="edge">
<title>Node20&#45;&gt;Node18</title>
<path fill="none" stroke="#63b8ff" d="M643.23,-303.96C716.4,-294.3 889.8,-259.25 939.25,-141 944.48,-128.49 947.05,-121.59 939.25,-110.5 920.61,-83.98 884.62,-73.14 856.19,-68.76"/>
<polygon fill="#63b8ff" stroke="#63b8ff" points="856.7,-65.16 846.33,-67.33 855.79,-72.1 856.7,-65.16"/>
</g>
<!-- Node21 -->
<g id="node21" class="node">
<title>Node21</title>
<g id="a_node21"><a xlink:title=" ">
<polygon fill="#e0e0e0" stroke="#999999" points="930.5,-135.38 892,-135.38 892,-116.12 930.5,-116.12 930.5,-135.38"/>
<text text-anchor="middle" x="911.25" y="-121.88" font-family="Helvetica,sans-Serif" font-size="10.00">utility</text>
</a>
</g>
</g>
<!-- Node20&#45;&gt;Node21 -->
<g id="edge31" class="edge">
<title>Node20&#45;&gt;Node21</title>
<path fill="none" stroke="#63b8ff" d="M643.14,-299.83C694.83,-286.56 795.92,-254.74 861.25,-196.25 877.81,-181.43 892.08,-160.22 901.09,-145.13"/>
<polygon fill="#63b8ff" stroke="#63b8ff" points="904.49,-147.23 906.45,-136.82 898.42,-143.74 904.49,-147.23"/>
</g>
<!-- Node22 -->
<g id="node22" class="node">
<title>Node22</title>
<g id="a_node22"><a xlink:href="conditional-stack-allocated_8h.html" target="_top" xlink:title=" ">
<polygon fill="white" stroke="#666666" points="734.38,-262.75 608.12,-262.75 608.12,-232.25 734.38,-232.25 734.38,-262.75"/>
<text text-anchor="start" x="616.12" y="-249.25" font-family="Helvetica,sans-Serif" font-size="10.00">cppgc/internal/conditional</text>
<text text-anchor="middle" x="671.25" y="-238" font-family="Helvetica,sans-Serif" font-size="10.00">&#45;stack&#45;allocated.h</text>
</a>
</g>
</g>
<!-- Node20&#45;&gt;Node22 -->
<g id="edge32" class="edge">
<title>Node20&#45;&gt;Node22</title>
<path fill="none" stroke="#63b8ff" d="M619.51,-298.43C627.19,-291.02 638.44,-280.17 648.48,-270.47"/>
<polygon fill="#63b8ff" stroke="#63b8ff" points="650.43,-273.5 655.19,-264.03 645.57,-268.46 650.43,-273.5"/>
</g>
<!-- Node22&#45;&gt;Node5 -->
<g id="edge33" class="edge">
<title>Node22&#45;&gt;Node5</title>
<path fill="none" stroke="#63b8ff" d="M660.91,-231.91C654.73,-222.28 647.49,-209.12 644.25,-196.25 634.44,-157.26 648.35,-110.58 658.12,-85"/>
<polygon fill="#63b8ff" stroke="#63b8ff" points="661.73,-86.41 662.22,-75.83 655.23,-83.8 661.73,-86.41"/>
</g>
<!-- Node23 -->
<g id="node23" class="node">
<title>Node23</title>
<g id="a_node23"><a xlink:href="macros_8h.html" target="_top" xlink:title=" ">
<polygon fill="white" stroke="#666666" points="851.75,-196.25 766.75,-196.25 766.75,-177 851.75,-177 851.75,-196.25"/>
<text text-anchor="middle" x="809.25" y="-182.75" font-family="Helvetica,sans-Serif" font-size="10.00">cppgc/macros.h</text>
</a>
</g>
</g>
<!-- Node22&#45;&gt;Node23 -->
<g id="edge34" class="edge">
<title>Node22&#45;&gt;Node23</title>
<path fill="none" stroke="#63b8ff" d="M705.72,-231.8C727.95,-222.31 756.62,-210.08 778.15,-200.89"/>
<polygon fill="#63b8ff" stroke="#63b8ff" points="779.26,-203.8 787.09,-196.65 776.52,-197.36 779.26,-203.8"/>
</g>
<!-- Node26 -->
<g id="node26" class="node">
<title>Node26</title>
<g id="a_node26"><a xlink:href="type-traits_8h.html" target="_top" xlink:title=" ">
<polygon fill="white" stroke="#666666" points="749,-196.25 653.5,-196.25 653.5,-177 749,-177 749,-196.25"/>
<text text-anchor="middle" x="701.25" y="-182.75" font-family="Helvetica,sans-Serif" font-size="10.00">cppgc/type&#45;traits.h</text>
</a>
</g>
</g>
<!-- Node22&#45;&gt;Node26 -->
<g id="edge38" class="edge">
<title>Node22&#45;&gt;Node26</title>
<path fill="none" stroke="#63b8ff" d="M678.67,-231.95C682.62,-224.19 687.52,-214.56 691.75,-206.26"/>
<polygon fill="#63b8ff" stroke="#63b8ff" points="695.2,-208.2 696.63,-197.7 688.97,-205.02 695.2,-208.2"/>
</g>
<!-- Node24 -->
<g id="node24" class="node">
<title>Node24</title>
<g id="a_node24"><a xlink:title=" ">
<polygon fill="#e0e0e0" stroke="#999999" points="739.38,-135.38 691.12,-135.38 691.12,-116.12 739.38,-116.12 739.38,-135.38"/>
<text text-anchor="middle" x="715.25" y="-121.88" font-family="Helvetica,sans-Serif" font-size="10.00">cstddef</text>
</a>
</g>
</g>
<!-- Node23&#45;&gt;Node24 -->
<g id="edge35" class="edge">
<title>Node23&#45;&gt;Node24</title>
<path fill="none" stroke="#63b8ff" d="M794.97,-176.68C780.07,-167.35 756.44,-152.55 738.77,-141.48"/>
<polygon fill="#63b8ff" stroke="#63b8ff" points="740.99,-138.12 730.66,-135.78 737.28,-144.05 740.99,-138.12"/>
</g>
<!-- Node25 -->
<g id="node25" class="node">
<title>Node25</title>
<g id="a_node25"><a xlink:href="compiler-specific_8h.html" target="_top" xlink:title=" ">
<polygon fill="white" stroke="#666666" points="873.5,-141 757,-141 757,-110.5 873.5,-110.5 873.5,-141"/>
<text text-anchor="start" x="765" y="-127.5" font-family="Helvetica,sans-Serif" font-size="10.00">cppgc/internal/compiler</text>
<text text-anchor="middle" x="815.25" y="-116.25" font-family="Helvetica,sans-Serif" font-size="10.00">&#45;specific.h</text>
</a>
</g>
</g>
<!-- Node23&#45;&gt;Node25 -->
<g id="edge36" class="edge">
<title>Node23&#45;&gt;Node25</title>
<path fill="none" stroke="#63b8ff" d="M810.16,-176.68C810.83,-170.15 811.76,-160.95 812.65,-152.22"/>
<polygon fill="#63b8ff" stroke="#63b8ff" points="816.24,-152.59 813.77,-142.28 809.27,-151.88 816.24,-152.59"/>
</g>
<!-- Node25&#45;&gt;Node18 -->
<g id="edge37" class="edge">
<title>Node25&#45;&gt;Node18</title>
<path fill="none" stroke="#63b8ff" d="M815.25,-110.2C815.25,-102.87 815.25,-93.87 815.25,-85.91"/>
<polygon fill="#63b8ff" stroke="#63b8ff" points="818.75,-85.95 815.25,-75.95 811.75,-85.95 818.75,-85.95"/>
</g>
<!-- Node26&#45;&gt;Node5 -->
<g id="edge40" class="edge">
<title>Node26&#45;&gt;Node5</title>
<path fill="none" stroke="#63b8ff" d="M696.79,-176.59C692.56,-167.71 686.26,-153.69 682.25,-141 676.41,-122.54 672.05,-100.85 669.37,-85.54"/>
<polygon fill="#63b8ff" stroke="#63b8ff" points="672.68,-85.1 667.58,-75.81 665.77,-86.25 672.68,-85.1"/>
</g>
<!-- Node26&#45;&gt;Node21 -->
<g id="edge41" class="edge">
<title>Node26&#45;&gt;Node21</title>
<path fill="none" stroke="#63b8ff" d="M749.34,-176.71C786.3,-169.16 838.31,-157 882.25,-141 883,-140.73 883.76,-140.44 884.52,-140.14"/>
<polygon fill="#63b8ff" stroke="#63b8ff" points="885.6,-143.05 893.34,-135.81 882.78,-136.64 885.6,-143.05"/>
</g>
<!-- Node26&#45;&gt;Node24 -->
<g id="edge39" class="edge">
<title>Node26&#45;&gt;Node24</title>
<path fill="none" stroke="#63b8ff" d="M703.38,-176.68C705.29,-168.64 708.16,-156.55 710.6,-146.28"/>
<polygon fill="#63b8ff" stroke="#63b8ff" points="714.2,-147.31 713.1,-136.78 707.39,-145.7 714.2,-147.31"/>
</g>
</g>
</svg>
