<?xml version="1.0" encoding="UTF-8" standalone="no"?>
<!DOCTYPE svg PUBLIC "-//W3C//DTD SVG 1.1//EN"
 "http://www.w3.org/Graphics/SVG/1.1/DTD/svg11.dtd">
<!-- Generated by graphviz version 2.49.3 (20211027.1534)
 -->
<!-- Title: include/v8&#45;statistics.h Pages: 1 -->
<svg width="1373pt" height="476pt"
 viewBox="0.00 0.00 1373.00 476.00" xmlns="http://www.w3.org/2000/svg" xmlns:xlink="http://www.w3.org/1999/xlink">
<g id="graph0" class="graph" transform="scale(1 1) rotate(0) translate(4 472)">
<title>include/v8&#45;statistics.h</title>
<polygon fill="white" stroke="transparent" points="-4,4 -4,-472 1369,-472 1369,4 -4,4"/>
<!-- Node1 -->
<g id="node1" class="node">
<title>Node1</title>
<g id="a_node1"><a xlink:title=" ">
<polygon fill="#bfbfbf" stroke="black" points="1122.5,-448.5 1122.5,-467.5 1233.5,-467.5 1233.5,-448.5 1122.5,-448.5"/>
<text text-anchor="middle" x="1178" y="-455.5" font-family="Helvetica,sans-Serif" font-size="10.00">include/v8&#45;statistics.h</text>
</a>
</g>
</g>
<!-- Node2 -->
<g id="node2" class="node">
<title>Node2</title>
<g id="a_node2"><a xlink:title=" ">
<polygon fill="white" stroke="#bfbfbf" points="194.5,-0.5 194.5,-19.5 245.5,-19.5 245.5,-0.5 194.5,-0.5"/>
<text text-anchor="middle" x="220" y="-7.5" font-family="Helvetica,sans-Serif" font-size="10.00">stddef.h</text>
</a>
</g>
</g>
<!-- Node1&#45;&gt;Node2 -->
<g id="edge1" class="edge">
<title>Node1&#45;&gt;Node2</title>
<path fill="none" stroke="midnightblue" d="M1122.39,-456.5C914.74,-454.39 191.73,-444.74 94,-412 45.84,-395.87 0,-397.79 0,-347 0,-347 0,-347 0,-121 0,-39.66 121.8,-18.46 184.14,-12.94"/>
<polygon fill="midnightblue" stroke="midnightblue" points="184.64,-16.42 194.33,-12.13 184.09,-9.44 184.64,-16.42"/>
</g>
<!-- Node3 -->
<g id="node3" class="node">
<title>Node3</title>
<g id="a_node3"><a xlink:title=" ">
<polygon fill="white" stroke="#bfbfbf" points="1231,-0.5 1231,-19.5 1279,-19.5 1279,-0.5 1231,-0.5"/>
<text text-anchor="middle" x="1255" y="-7.5" font-family="Helvetica,sans-Serif" font-size="10.00">stdint.h</text>
</a>
</g>
</g>
<!-- Node1&#45;&gt;Node3 -->
<g id="edge2" class="edge">
<title>Node1&#45;&gt;Node3</title>
<path fill="none" stroke="midnightblue" d="M1208.67,-448.35C1228.29,-441.41 1252.97,-429.82 1269,-412 1289.6,-389.11 1293,-377.8 1293,-347 1293,-347 1293,-347 1293,-121 1293,-86.81 1276.4,-49.76 1265.14,-28.57"/>
<polygon fill="midnightblue" stroke="midnightblue" points="1268.18,-26.83 1260.28,-19.77 1262.05,-30.22 1268.18,-26.83"/>
</g>
<!-- Node4 -->
<g id="node4" class="node">
<title>Node4</title>
<g id="a_node4"><a xlink:title=" ">
<polygon fill="white" stroke="#bfbfbf" points="1080.5,-112.5 1080.5,-131.5 1131.5,-131.5 1131.5,-112.5 1080.5,-112.5"/>
<text text-anchor="middle" x="1106" y="-119.5" font-family="Helvetica,sans-Serif" font-size="10.00">memory</text>
</a>
</g>
</g>
<!-- Node1&#45;&gt;Node4 -->
<g id="edge3" class="edge">
<title>Node1&#45;&gt;Node4</title>
<path fill="none" stroke="midnightblue" d="M1170.12,-448.33C1154.91,-430.67 1123,-388.64 1123,-347 1123,-347 1123,-347 1123,-233 1123,-200.58 1115.7,-163.42 1110.67,-141.64"/>
<polygon fill="midnightblue" stroke="midnightblue" points="1114.03,-140.67 1108.29,-131.77 1107.23,-142.31 1114.03,-140.67"/>
</g>
<!-- Node5 -->
<g id="node5" class="node">
<title>Node5</title>
<g id="a_node5"><a xlink:title=" ">
<polygon fill="white" stroke="#bfbfbf" points="1149.5,-112.5 1149.5,-131.5 1188.5,-131.5 1188.5,-112.5 1149.5,-112.5"/>
<text text-anchor="middle" x="1169" y="-119.5" font-family="Helvetica,sans-Serif" font-size="10.00">utility</text>
</a>
</g>
</g>
<!-- Node1&#45;&gt;Node5 -->
<g id="edge4" class="edge">
<title>Node1&#45;&gt;Node5</title>
<path fill="none" stroke="midnightblue" d="M1183.42,-448.25C1194.14,-430.1 1217,-386.71 1217,-347 1217,-347 1217,-347 1217,-233 1217,-197.58 1195.84,-160.71 1181.62,-139.92"/>
<polygon fill="midnightblue" stroke="midnightblue" points="1184.32,-137.68 1175.67,-131.56 1178.62,-141.74 1184.32,-137.68"/>
</g>
<!-- Node6 -->
<g id="node6" class="node">
<title>Node6</title>
<g id="a_node6"><a xlink:title=" ">
<polygon fill="white" stroke="#bfbfbf" points="1321,-392.5 1321,-411.5 1365,-411.5 1365,-392.5 1321,-392.5"/>
<text text-anchor="middle" x="1343" y="-399.5" font-family="Helvetica,sans-Serif" font-size="10.00">vector</text>
</a>
</g>
</g>
<!-- Node1&#45;&gt;Node6 -->
<g id="edge5" class="edge">
<title>Node1&#45;&gt;Node6</title>
<path fill="none" stroke="midnightblue" d="M1204.14,-448.44C1233.25,-438.92 1280.29,-423.52 1311.43,-413.33"/>
<polygon fill="midnightblue" stroke="midnightblue" points="1312.52,-416.66 1320.94,-410.22 1310.35,-410 1312.52,-416.66"/>
</g>
<!-- Node7 -->
<g id="node7" class="node">
<title>Node7</title>
<g id="a_node7"><a xlink:href="v8-local-handle_8h.html" target="_top" xlink:title=" ">
<polygon fill="white" stroke="black" points="136.5,-112.5 136.5,-131.5 225.5,-131.5 225.5,-112.5 136.5,-112.5"/>
<text text-anchor="middle" x="181" y="-119.5" font-family="Helvetica,sans-Serif" font-size="10.00">v8&#45;local&#45;handle.h</text>
</a>
</g>
</g>
<!-- Node1&#45;&gt;Node7 -->
<g id="edge6" class="edge">
<title>Node1&#45;&gt;Node7</title>
<path fill="none" stroke="midnightblue" d="M1122.24,-457.54C893.37,-459.03 38,-457.23 38,-347 38,-347 38,-347 38,-233 38,-180.84 98.51,-149.99 140.81,-134.8"/>
<polygon fill="midnightblue" stroke="midnightblue" points="142,-138.09 150.32,-131.54 139.73,-131.47 142,-138.09"/>
</g>
<!-- Node12 -->
<g id="node12" class="node">
<title>Node12</title>
<g id="a_node12"><a xlink:href="v8config_8h.html" target="_top" xlink:title=" ">
<polygon fill="white" stroke="black" points="604,-0.5 604,-19.5 664,-19.5 664,-0.5 604,-0.5"/>
<text text-anchor="middle" x="634" y="-7.5" font-family="Helvetica,sans-Serif" font-size="10.00">v8config.h</text>
</a>
</g>
</g>
<!-- Node1&#45;&gt;Node12 -->
<g id="edge57" class="edge">
<title>Node1&#45;&gt;Node12</title>
<path fill="none" stroke="midnightblue" d="M1189.69,-448.47C1211.24,-431.66 1255,-391.99 1255,-347 1255,-347 1255,-347 1255,-177 1255,-98.72 1201.22,-80.91 1127,-56 1043.29,-27.9 776.35,-15.92 674.24,-12.28"/>
<polygon fill="midnightblue" stroke="midnightblue" points="674.15,-8.78 664.04,-11.93 673.91,-15.77 674.15,-8.78"/>
</g>
<!-- Node13 -->
<g id="node13" class="node">
<title>Node13</title>
<g id="a_node13"><a xlink:href="v8-promise_8h.html" target="_top" xlink:title=" ">
<polygon fill="white" stroke="black" points="780,-392.5 780,-411.5 852,-411.5 852,-392.5 780,-392.5"/>
<text text-anchor="middle" x="816" y="-399.5" font-family="Helvetica,sans-Serif" font-size="10.00">v8&#45;promise.h</text>
</a>
</g>
</g>
<!-- Node1&#45;&gt;Node13 -->
<g id="edge16" class="edge">
<title>Node1&#45;&gt;Node13</title>
<path fill="none" stroke="midnightblue" d="M1122.23,-448.68C1050.88,-438.04 928.61,-419.8 862.2,-409.89"/>
<polygon fill="midnightblue" stroke="midnightblue" points="862.45,-406.39 852.04,-408.38 861.41,-413.31 862.45,-406.39"/>
</g>
<!-- Node7&#45;&gt;Node2 -->
<g id="edge7" class="edge">
<title>Node7&#45;&gt;Node2</title>
<path fill="none" stroke="midnightblue" d="M183.66,-112.1C187.48,-99.52 194.83,-75.85 202,-56 205.25,-46.99 209.18,-37.08 212.53,-28.87"/>
<polygon fill="midnightblue" stroke="midnightblue" points="215.79,-30.14 216.37,-19.56 209.32,-27.47 215.79,-30.14"/>
</g>
<!-- Node8 -->
<g id="node8" class="node">
<title>Node8</title>
<g id="a_node8"><a xlink:title=" ">
<polygon fill="white" stroke="#bfbfbf" points="459,-0.5 459,-19.5 521,-19.5 521,-0.5 459,-0.5"/>
<text text-anchor="middle" x="490" y="-7.5" font-family="Helvetica,sans-Serif" font-size="10.00">type_traits</text>
</a>
</g>
</g>
<!-- Node7&#45;&gt;Node8 -->
<g id="edge8" class="edge">
<title>Node7&#45;&gt;Node8</title>
<path fill="none" stroke="midnightblue" d="M186.25,-112.14C195.26,-97.77 215.15,-69.63 240,-56 320.27,-11.97 354.79,-36.62 448.7,-20.08"/>
<polygon fill="midnightblue" stroke="midnightblue" points="449.41,-23.51 458.59,-18.23 448.12,-16.63 449.41,-23.51"/>
</g>
<!-- Node9 -->
<g id="node9" class="node">
<title>Node9</title>
<g id="a_node9"><a xlink:href="v8-internal_8h.html" target="_top" xlink:title=" ">
<polygon fill="white" stroke="black" points="371.5,-56.5 371.5,-75.5 440.5,-75.5 440.5,-56.5 371.5,-56.5"/>
<text text-anchor="middle" x="406" y="-63.5" font-family="Helvetica,sans-Serif" font-size="10.00">v8&#45;internal.h</text>
</a>
</g>
</g>
<!-- Node7&#45;&gt;Node9 -->
<g id="edge9" class="edge">
<title>Node7&#45;&gt;Node9</title>
<path fill="none" stroke="midnightblue" d="M216.65,-112.44C255.89,-103.03 319,-87.88 361.46,-77.69"/>
<polygon fill="midnightblue" stroke="midnightblue" points="362.35,-81.08 371.25,-75.34 360.71,-74.27 362.35,-81.08"/>
</g>
<!-- Node9&#45;&gt;Node2 -->
<g id="edge10" class="edge">
<title>Node9&#45;&gt;Node2</title>
<path fill="none" stroke="midnightblue" d="M376.53,-56.44C343.71,-46.92 290.68,-31.52 255.57,-21.33"/>
<polygon fill="midnightblue" stroke="midnightblue" points="256.32,-17.9 245.74,-18.47 254.37,-24.62 256.32,-17.9"/>
</g>
<!-- Node9&#45;&gt;Node3 -->
<g id="edge11" class="edge">
<title>Node9&#45;&gt;Node3</title>
<path fill="none" stroke="midnightblue" d="M440.6,-62.8C577.82,-54.07 1082.97,-21.94 1220.33,-13.21"/>
<polygon fill="midnightblue" stroke="midnightblue" points="1220.91,-16.68 1230.66,-12.55 1220.46,-9.69 1220.91,-16.68"/>
</g>
<!-- Node9&#45;&gt;Node8 -->
<g id="edge13" class="edge">
<title>Node9&#45;&gt;Node8</title>
<path fill="none" stroke="midnightblue" d="M419.5,-56.32C432.6,-47.9 452.71,-34.97 468.11,-25.07"/>
<polygon fill="midnightblue" stroke="midnightblue" points="470.02,-28.01 476.54,-19.65 466.23,-22.12 470.02,-28.01"/>
</g>
<!-- Node10 -->
<g id="node10" class="node">
<title>Node10</title>
<g id="a_node10"><a xlink:title=" ">
<polygon fill="white" stroke="#bfbfbf" points="305,-0.5 305,-19.5 353,-19.5 353,-0.5 305,-0.5"/>
<text text-anchor="middle" x="329" y="-7.5" font-family="Helvetica,sans-Serif" font-size="10.00">string.h</text>
</a>
</g>
</g>
<!-- Node9&#45;&gt;Node10 -->
<g id="edge12" class="edge">
<title>Node9&#45;&gt;Node10</title>
<path fill="none" stroke="midnightblue" d="M393.63,-56.32C381.84,-48.06 363.87,-35.45 349.86,-25.63"/>
<polygon fill="midnightblue" stroke="midnightblue" points="351.54,-22.53 341.34,-19.65 347.52,-28.26 351.54,-22.53"/>
</g>
<!-- Node11 -->
<g id="node11" class="node">
<title>Node11</title>
<g id="a_node11"><a xlink:href="v8-version_8h.html" target="_top" xlink:title=" ">
<polygon fill="white" stroke="black" points="371.5,-0.5 371.5,-19.5 440.5,-19.5 440.5,-0.5 371.5,-0.5"/>
<text text-anchor="middle" x="406" y="-7.5" font-family="Helvetica,sans-Serif" font-size="10.00">v8&#45;version.h</text>
</a>
</g>
</g>
<!-- Node9&#45;&gt;Node11 -->
<g id="edge14" class="edge">
<title>Node9&#45;&gt;Node11</title>
<path fill="none" stroke="midnightblue" d="M406,-56.08C406,-49.01 406,-38.86 406,-29.99"/>
<polygon fill="midnightblue" stroke="midnightblue" points="409.5,-29.75 406,-19.75 402.5,-29.75 409.5,-29.75"/>
</g>
<!-- Node9&#45;&gt;Node12 -->
<g id="edge15" class="edge">
<title>Node9&#45;&gt;Node12</title>
<path fill="none" stroke="midnightblue" d="M440.63,-56.8C481.8,-47.05 550.39,-30.8 593.85,-20.51"/>
<polygon fill="midnightblue" stroke="midnightblue" points="594.87,-23.87 603.79,-18.15 593.25,-17.05 594.87,-23.87"/>
</g>
<!-- Node13&#45;&gt;Node7 -->
<g id="edge17" class="edge">
<title>Node13&#45;&gt;Node7</title>
<path fill="none" stroke="midnightblue" d="M779.81,-399.49C631.24,-392.8 76,-363 76,-291 76,-291 76,-291 76,-233 76,-188.02 122.51,-154.19 153.62,-136.59"/>
<polygon fill="midnightblue" stroke="midnightblue" points="155.59,-139.5 162.71,-131.65 152.25,-133.35 155.59,-139.5"/>
</g>
<!-- Node13&#45;&gt;Node12 -->
<g id="edge56" class="edge">
<title>Node13&#45;&gt;Node12</title>
<path fill="none" stroke="midnightblue" d="M852.13,-397.81C943.95,-388.72 1179,-358.83 1179,-291 1179,-291 1179,-291 1179,-233 1179,-178.56 1232.36,-154.22 1198,-112 1131.79,-30.65 791.93,-14.79 674.21,-11.73"/>
<polygon fill="midnightblue" stroke="midnightblue" points="674.25,-8.23 664.17,-11.48 674.08,-15.22 674.25,-8.23"/>
</g>
<!-- Node14 -->
<g id="node14" class="node">
<title>Node14</title>
<g id="a_node14"><a xlink:href="v8-object_8h.html" target="_top" xlink:title=" ">
<polygon fill="white" stroke="black" points="582,-336.5 582,-355.5 646,-355.5 646,-336.5 582,-336.5"/>
<text text-anchor="middle" x="614" y="-343.5" font-family="Helvetica,sans-Serif" font-size="10.00">v8&#45;object.h</text>
</a>
</g>
</g>
<!-- Node13&#45;&gt;Node14 -->
<g id="edge18" class="edge">
<title>Node13&#45;&gt;Node14</title>
<path fill="none" stroke="midnightblue" d="M783.99,-392.44C749.27,-383.16 693.71,-368.31 655.62,-358.13"/>
<polygon fill="midnightblue" stroke="midnightblue" points="656.42,-354.72 645.86,-355.52 654.61,-361.48 656.42,-354.72"/>
</g>
<!-- Node14&#45;&gt;Node7 -->
<g id="edge19" class="edge">
<title>Node14&#45;&gt;Node7</title>
<path fill="none" stroke="midnightblue" d="M581.75,-343.36C507.42,-339.17 326.3,-326.48 272,-300 213.59,-271.52 196.7,-250.24 178,-188 173.47,-172.94 174.76,-155.04 176.87,-141.84"/>
<polygon fill="midnightblue" stroke="midnightblue" points="180.38,-142.11 178.82,-131.64 173.5,-140.8 180.38,-142.11"/>
</g>
<!-- Node14&#45;&gt;Node12 -->
<g id="edge55" class="edge">
<title>Node14&#45;&gt;Node12</title>
<path fill="none" stroke="midnightblue" d="M616.7,-336.26C622.16,-317.77 634,-273.24 634,-235 634,-235 634,-235 634,-121 634,-88.95 634,-51.64 634,-29.75"/>
<polygon fill="midnightblue" stroke="midnightblue" points="637.5,-29.56 634,-19.56 630.5,-29.56 637.5,-29.56"/>
</g>
<!-- Node15 -->
<g id="node15" class="node">
<title>Node15</title>
<g id="a_node15"><a xlink:href="v8-maybe_8h.html" target="_top" xlink:title=" ">
<polygon fill="white" stroke="black" points="540,-168.5 540,-187.5 606,-187.5 606,-168.5 540,-168.5"/>
<text text-anchor="middle" x="573" y="-175.5" font-family="Helvetica,sans-Serif" font-size="10.00">v8&#45;maybe.h</text>
</a>
</g>
</g>
<!-- Node14&#45;&gt;Node15 -->
<g id="edge20" class="edge">
<title>Node14&#45;&gt;Node15</title>
<path fill="none" stroke="midnightblue" d="M611.8,-336.08C605.34,-309.95 586.39,-233.21 577.59,-197.58"/>
<polygon fill="midnightblue" stroke="midnightblue" points="580.91,-196.44 575.12,-187.57 574.12,-198.12 580.91,-196.44"/>
</g>
<!-- Node16 -->
<g id="node16" class="node">
<title>Node16</title>
<g id="a_node16"><a xlink:href="v8-persistent-handle_8h.html" target="_top" xlink:title=" ">
<polygon fill="white" stroke="black" points="662,-168.5 662,-187.5 774,-187.5 774,-168.5 662,-168.5"/>
<text text-anchor="middle" x="718" y="-175.5" font-family="Helvetica,sans-Serif" font-size="10.00">v8&#45;persistent&#45;handle.h</text>
</a>
</g>
</g>
<!-- Node14&#45;&gt;Node16 -->
<g id="edge23" class="edge">
<title>Node14&#45;&gt;Node16</title>
<path fill="none" stroke="midnightblue" d="M621.1,-336.27C628.22,-327.37 639.34,-313.06 648,-300 671.6,-264.43 695.81,-220.63 708.66,-196.69"/>
<polygon fill="midnightblue" stroke="midnightblue" points="711.82,-198.2 713.43,-187.73 705.64,-194.91 711.82,-198.2"/>
</g>
<!-- Node18 -->
<g id="node18" class="node">
<title>Node18</title>
<g id="a_node18"><a xlink:href="v8-primitive_8h.html" target="_top" xlink:title=" ">
<polygon fill="white" stroke="black" points="281,-280.5 281,-299.5 355,-299.5 355,-280.5 281,-280.5"/>
<text text-anchor="middle" x="318" y="-287.5" font-family="Helvetica,sans-Serif" font-size="10.00">v8&#45;primitive.h</text>
</a>
</g>
</g>
<!-- Node14&#45;&gt;Node18 -->
<g id="edge29" class="edge">
<title>Node14&#45;&gt;Node18</title>
<path fill="none" stroke="midnightblue" d="M581.76,-339.12C529.49,-329.58 426.02,-310.71 365.37,-299.64"/>
<polygon fill="midnightblue" stroke="midnightblue" points="365.76,-296.16 355.29,-297.8 364.5,-303.04 365.76,-296.16"/>
</g>
<!-- Node20 -->
<g id="node20" class="node">
<title>Node20</title>
<g id="a_node20"><a xlink:href="v8-value_8h.html" target="_top" xlink:title=" ">
<polygon fill="white" stroke="black" points="368.5,-224.5 368.5,-243.5 429.5,-243.5 429.5,-224.5 368.5,-224.5"/>
<text text-anchor="middle" x="399" y="-231.5" font-family="Helvetica,sans-Serif" font-size="10.00">v8&#45;value.h</text>
</a>
</g>
</g>
<!-- Node14&#45;&gt;Node20 -->
<g id="edge54" class="edge">
<title>Node14&#45;&gt;Node20</title>
<path fill="none" stroke="midnightblue" d="M597.13,-336.37C559.69,-317.21 469.43,-271.04 424.83,-248.22"/>
<polygon fill="midnightblue" stroke="midnightblue" points="426.29,-245.03 415.79,-243.59 423.1,-251.26 426.29,-245.03"/>
</g>
<!-- Node21 -->
<g id="node21" class="node">
<title>Node21</title>
<g id="a_node21"><a xlink:href="v8-traced-handle_8h.html" target="_top" xlink:title=" ">
<polygon fill="white" stroke="black" points="826,-168.5 826,-187.5 922,-187.5 922,-168.5 826,-168.5"/>
<text text-anchor="middle" x="874" y="-175.5" font-family="Helvetica,sans-Serif" font-size="10.00">v8&#45;traced&#45;handle.h</text>
</a>
</g>
</g>
<!-- Node14&#45;&gt;Node21 -->
<g id="edge42" class="edge">
<title>Node14&#45;&gt;Node21</title>
<path fill="none" stroke="midnightblue" d="M627.61,-336.31C670,-309.25 799.88,-226.32 852.01,-193.04"/>
<polygon fill="midnightblue" stroke="midnightblue" points="853.98,-195.94 860.52,-187.61 850.21,-190.04 853.98,-195.94"/>
</g>
<!-- Node15&#45;&gt;Node9 -->
<g id="edge21" class="edge">
<title>Node15&#45;&gt;Node9</title>
<path fill="none" stroke="midnightblue" d="M544.68,-168.36C522.59,-160.83 491.78,-148.52 468,-132 448.48,-118.45 430.23,-98 418.66,-83.67"/>
<polygon fill="midnightblue" stroke="midnightblue" points="421.29,-81.35 412.36,-75.65 415.78,-85.68 421.29,-81.35"/>
</g>
<!-- Node15&#45;&gt;Node12 -->
<g id="edge22" class="edge">
<title>Node15&#45;&gt;Node12</title>
<path fill="none" stroke="midnightblue" d="M576.28,-168.08C585.92,-141.83 614.32,-64.55 627.34,-29.12"/>
<polygon fill="midnightblue" stroke="midnightblue" points="630.69,-30.16 630.85,-19.57 624.12,-27.75 630.69,-30.16"/>
</g>
<!-- Node16&#45;&gt;Node7 -->
<g id="edge25" class="edge">
<title>Node16&#45;&gt;Node7</title>
<path fill="none" stroke="midnightblue" d="M661.8,-171.35C558.18,-160.93 338.26,-138.81 235.74,-128.5"/>
<polygon fill="midnightblue" stroke="midnightblue" points="235.91,-125 225.61,-127.49 235.21,-131.97 235.91,-125"/>
</g>
<!-- Node16&#45;&gt;Node9 -->
<g id="edge24" class="edge">
<title>Node16&#45;&gt;Node9</title>
<path fill="none" stroke="midnightblue" d="M661.87,-170.8C618.14,-164.63 556.58,-152.95 506,-132 489.72,-125.25 450.86,-98.73 426.66,-81.72"/>
<polygon fill="midnightblue" stroke="midnightblue" points="428.37,-78.64 418.18,-75.73 424.33,-84.36 428.37,-78.64"/>
</g>
<!-- Node16&#45;&gt;Node12 -->
<g id="edge28" class="edge">
<title>Node16&#45;&gt;Node12</title>
<path fill="none" stroke="midnightblue" d="M712.82,-168.48C707.42,-159.51 698.82,-144.93 692,-132 672.97,-95.92 652.84,-52.59 642.02,-28.81"/>
<polygon fill="midnightblue" stroke="midnightblue" points="645.17,-27.29 637.86,-19.62 638.79,-30.17 645.17,-27.29"/>
</g>
<!-- Node17 -->
<g id="node17" class="node">
<title>Node17</title>
<g id="a_node17"><a xlink:href="v8-weak-callback-info_8h.html" target="_top" xlink:title=" ">
<polygon fill="white" stroke="black" points="700.5,-112.5 700.5,-131.5 819.5,-131.5 819.5,-112.5 700.5,-112.5"/>
<text text-anchor="middle" x="760" y="-119.5" font-family="Helvetica,sans-Serif" font-size="10.00">v8&#45;weak&#45;callback&#45;info.h</text>
</a>
</g>
</g>
<!-- Node16&#45;&gt;Node17 -->
<g id="edge26" class="edge">
<title>Node16&#45;&gt;Node17</title>
<path fill="none" stroke="midnightblue" d="M724.94,-168.08C730.93,-160.38 739.75,-149.03 747.05,-139.65"/>
<polygon fill="midnightblue" stroke="midnightblue" points="749.82,-141.79 753.19,-131.75 744.29,-137.5 749.82,-141.79"/>
</g>
<!-- Node17&#45;&gt;Node12 -->
<g id="edge27" class="edge">
<title>Node17&#45;&gt;Node12</title>
<path fill="none" stroke="midnightblue" d="M749.97,-112.15C735.76,-99.61 708.94,-76 686,-56 674.61,-46.07 661.77,-34.96 651.7,-26.26"/>
<polygon fill="midnightblue" stroke="midnightblue" points="653.85,-23.49 643.99,-19.6 649.27,-28.79 653.85,-23.49"/>
</g>
<!-- Node18&#45;&gt;Node7 -->
<g id="edge34" class="edge">
<title>Node18&#45;&gt;Node7</title>
<path fill="none" stroke="midnightblue" d="M299.93,-280.49C271.28,-265.95 216.03,-233.44 190,-188 181.95,-173.94 180.06,-155.45 179.98,-141.78"/>
<polygon fill="midnightblue" stroke="midnightblue" points="183.48,-141.73 180.24,-131.64 176.49,-141.55 183.48,-141.73"/>
</g>
<!-- Node18&#45;&gt;Node9 -->
<g id="edge33" class="edge">
<title>Node18&#45;&gt;Node9</title>
<path fill="none" stroke="midnightblue" d="M321.45,-280.3C334.45,-247.49 380.68,-130.88 398.72,-85.38"/>
<polygon fill="midnightblue" stroke="midnightblue" points="402.05,-86.47 402.48,-75.88 395.54,-83.89 402.05,-86.47"/>
</g>
<!-- Node18&#45;&gt;Node12 -->
<g id="edge41" class="edge">
<title>Node18&#45;&gt;Node12</title>
<path fill="none" stroke="midnightblue" d="M316.57,-280.22C311.51,-245.86 298.07,-119.24 363,-56 379.34,-40.08 522.65,-22.82 594,-15.12"/>
<polygon fill="midnightblue" stroke="midnightblue" points="594.4,-18.59 603.98,-14.05 593.66,-11.63 594.4,-18.59"/>
</g>
<!-- Node19 -->
<g id="node19" class="node">
<title>Node19</title>
<g id="a_node19"><a xlink:href="v8-data_8h.html" target="_top" xlink:title=" ">
<polygon fill="white" stroke="black" points="218,-168.5 218,-187.5 274,-187.5 274,-168.5 218,-168.5"/>
<text text-anchor="middle" x="246" y="-175.5" font-family="Helvetica,sans-Serif" font-size="10.00">v8&#45;data.h</text>
</a>
</g>
</g>
<!-- Node18&#45;&gt;Node19 -->
<g id="edge30" class="edge">
<title>Node18&#45;&gt;Node19</title>
<path fill="none" stroke="midnightblue" d="M312.21,-280.4C306.14,-271.36 296.35,-256.72 288,-244 277.44,-227.91 265.55,-209.48 257.12,-196.36"/>
<polygon fill="midnightblue" stroke="midnightblue" points="260.01,-194.38 251.67,-187.86 254.12,-198.16 260.01,-194.38"/>
</g>
<!-- Node18&#45;&gt;Node20 -->
<g id="edge35" class="edge">
<title>Node18&#45;&gt;Node20</title>
<path fill="none" stroke="midnightblue" d="M331.01,-280.32C343.53,-271.98 362.68,-259.21 377.47,-249.35"/>
<polygon fill="midnightblue" stroke="midnightblue" points="379.64,-252.11 386.02,-243.65 375.76,-246.29 379.64,-252.11"/>
</g>
<!-- Node19&#45;&gt;Node7 -->
<g id="edge31" class="edge">
<title>Node19&#45;&gt;Node7</title>
<path fill="none" stroke="midnightblue" d="M235.56,-168.32C225.85,-160.26 211.18,-148.08 199.5,-138.37"/>
<polygon fill="midnightblue" stroke="midnightblue" points="201.56,-135.53 191.63,-131.83 197.09,-140.92 201.56,-135.53"/>
</g>
<!-- Node19&#45;&gt;Node12 -->
<g id="edge32" class="edge">
<title>Node19&#45;&gt;Node12</title>
<path fill="none" stroke="midnightblue" d="M248.46,-168.21C255.52,-144.9 278.24,-81.56 323,-56 346.15,-42.78 515.27,-23.51 593.95,-15.14"/>
<polygon fill="midnightblue" stroke="midnightblue" points="594.4,-18.61 603.98,-14.08 593.67,-11.65 594.4,-18.61"/>
</g>
<!-- Node20&#45;&gt;Node7 -->
<g id="edge38" class="edge">
<title>Node20&#45;&gt;Node7</title>
<path fill="none" stroke="midnightblue" d="M368.32,-233.8C327.37,-233.24 254.7,-226.36 209,-188 195.05,-176.29 187.87,-156.35 184.29,-141.64"/>
<polygon fill="midnightblue" stroke="midnightblue" points="187.67,-140.7 182.21,-131.63 180.82,-142.13 187.67,-140.7"/>
</g>
<!-- Node20&#45;&gt;Node9 -->
<g id="edge37" class="edge">
<title>Node20&#45;&gt;Node9</title>
<path fill="none" stroke="midnightblue" d="M399.38,-224.08C400.48,-197.95 403.71,-121.21 405.22,-85.58"/>
<polygon fill="midnightblue" stroke="midnightblue" points="408.71,-85.71 405.64,-75.57 401.72,-85.41 408.71,-85.71"/>
</g>
<!-- Node20&#45;&gt;Node12 -->
<g id="edge40" class="edge">
<title>Node20&#45;&gt;Node12</title>
<path fill="none" stroke="midnightblue" d="M408.21,-224.3C443.68,-190.8 571.67,-69.88 617.52,-26.57"/>
<polygon fill="midnightblue" stroke="midnightblue" points="619.99,-29.05 624.85,-19.64 615.18,-23.97 619.99,-29.05"/>
</g>
<!-- Node20&#45;&gt;Node15 -->
<g id="edge39" class="edge">
<title>Node20&#45;&gt;Node15</title>
<path fill="none" stroke="midnightblue" d="M426.57,-224.44C456.1,-215.28 503.12,-200.69 535.88,-190.52"/>
<polygon fill="midnightblue" stroke="midnightblue" points="537.04,-193.82 545.56,-187.52 534.97,-187.14 537.04,-193.82"/>
</g>
<!-- Node20&#45;&gt;Node19 -->
<g id="edge36" class="edge">
<title>Node20&#45;&gt;Node19</title>
<path fill="none" stroke="midnightblue" d="M374.76,-224.44C349.13,-215.4 308.51,-201.06 279.76,-190.92"/>
<polygon fill="midnightblue" stroke="midnightblue" points="280.72,-187.54 270.13,-187.52 278.39,-194.15 280.72,-187.54"/>
</g>
<!-- Node21&#45;&gt;Node2 -->
<g id="edge43" class="edge">
<title>Node21&#45;&gt;Node2</title>
<path fill="none" stroke="midnightblue" d="M825.65,-171.92C733.57,-161.28 527.56,-132.78 363,-76 320.57,-61.36 273.59,-38.68 245.45,-24.34"/>
<polygon fill="midnightblue" stroke="midnightblue" points="246.81,-21.11 236.32,-19.65 243.61,-27.33 246.81,-21.11"/>
</g>
<!-- Node21&#45;&gt;Node3 -->
<g id="edge44" class="edge">
<title>Node21&#45;&gt;Node3</title>
<path fill="none" stroke="midnightblue" d="M904.11,-168.46C932.17,-160.19 974.98,-146.76 1011,-132 1093.78,-98.08 1187.47,-48.21 1230.73,-24.49"/>
<polygon fill="midnightblue" stroke="midnightblue" points="1232.59,-27.47 1239.66,-19.58 1229.21,-21.33 1232.59,-27.47"/>
</g>
<!-- Node21&#45;&gt;Node4 -->
<g id="edge47" class="edge">
<title>Node21&#45;&gt;Node4</title>
<path fill="none" stroke="midnightblue" d="M910.76,-168.44C954.53,-158.26 1027.12,-141.36 1070.38,-131.29"/>
<polygon fill="midnightblue" stroke="midnightblue" points="1071.24,-134.68 1080.19,-129.01 1069.65,-127.87 1071.24,-134.68"/>
</g>
<!-- Node21&#45;&gt;Node5 -->
<g id="edge49" class="edge">
<title>Node21&#45;&gt;Node5</title>
<path fill="none" stroke="midnightblue" d="M922.17,-171.01C973.87,-164.11 1058.48,-151.45 1139.37,-132.14"/>
<polygon fill="midnightblue" stroke="midnightblue" points="1140.32,-135.51 1149.22,-129.75 1138.67,-128.71 1140.32,-135.51"/>
</g>
<!-- Node21&#45;&gt;Node7 -->
<g id="edge51" class="edge">
<title>Node21&#45;&gt;Node7</title>
<path fill="none" stroke="midnightblue" d="M825.85,-172.02C812.02,-170.65 796.92,-169.21 783,-168 581.41,-150.5 341.48,-133.8 235.7,-126.65"/>
<polygon fill="midnightblue" stroke="midnightblue" points="235.8,-123.15 225.59,-125.97 235.33,-130.13 235.8,-123.15"/>
</g>
<!-- Node21&#45;&gt;Node8 -->
<g id="edge48" class="edge">
<title>Node21&#45;&gt;Node8</title>
<path fill="none" stroke="midnightblue" d="M870.38,-168.44C864.06,-154.51 849.67,-126.99 829,-112 736.51,-44.93 599.41,-22 531.38,-14.48"/>
<polygon fill="midnightblue" stroke="midnightblue" points="531.39,-10.96 521.08,-13.4 530.66,-17.92 531.39,-10.96"/>
</g>
<!-- Node21&#45;&gt;Node9 -->
<g id="edge50" class="edge">
<title>Node21&#45;&gt;Node9</title>
<path fill="none" stroke="midnightblue" d="M837.67,-168.46C753,-148.56 542.8,-99.15 450.58,-77.48"/>
<polygon fill="midnightblue" stroke="midnightblue" points="451.25,-74.04 440.72,-75.16 449.65,-80.85 451.25,-74.04"/>
</g>
<!-- Node21&#45;&gt;Node12 -->
<g id="edge53" class="edge">
<title>Node21&#45;&gt;Node12</title>
<path fill="none" stroke="midnightblue" d="M922.38,-169.6C964.54,-160.9 1015.91,-143.49 995,-112 959.15,-58.01 760.6,-26.9 674.19,-15.74"/>
<polygon fill="midnightblue" stroke="midnightblue" points="674.59,-12.26 664.23,-14.48 673.71,-19.21 674.59,-12.26"/>
</g>
<!-- Node21&#45;&gt;Node17 -->
<g id="edge52" class="edge">
<title>Node21&#45;&gt;Node17</title>
<path fill="none" stroke="midnightblue" d="M855.94,-168.44C837.43,-159.68 808.42,-145.94 787.14,-135.86"/>
<polygon fill="midnightblue" stroke="midnightblue" points="788.51,-132.63 777.98,-131.52 785.52,-138.96 788.51,-132.63"/>
</g>
<!-- Node22 -->
<g id="node22" class="node">
<title>Node22</title>
<g id="a_node22"><a xlink:title=" ">
<polygon fill="white" stroke="#bfbfbf" points="876.5,-112.5 876.5,-131.5 921.5,-131.5 921.5,-112.5 876.5,-112.5"/>
<text text-anchor="middle" x="899" y="-119.5" font-family="Helvetica,sans-Serif" font-size="10.00">stdio.h</text>
</a>
</g>
</g>
<!-- Node21&#45;&gt;Node22 -->
<g id="edge45" class="edge">
<title>Node21&#45;&gt;Node22</title>
<path fill="none" stroke="midnightblue" d="M878.13,-168.08C881.51,-160.77 886.42,-150.18 890.62,-141.1"/>
<polygon fill="midnightblue" stroke="midnightblue" points="893.92,-142.3 894.95,-131.75 887.57,-139.36 893.92,-142.3"/>
</g>
<!-- Node23 -->
<g id="node23" class="node">
<title>Node23</title>
<g id="a_node23"><a xlink:title=" ">
<polygon fill="white" stroke="#bfbfbf" points="940,-112.5 940,-131.5 986,-131.5 986,-112.5 940,-112.5"/>
<text text-anchor="middle" x="963" y="-119.5" font-family="Helvetica,sans-Serif" font-size="10.00">atomic</text>
</a>
</g>
</g>
<!-- Node21&#45;&gt;Node23 -->
<g id="edge46" class="edge">
<title>Node21&#45;&gt;Node23</title>
<path fill="none" stroke="midnightblue" d="M888.3,-168.32C902.18,-159.9 923.49,-146.97 939.8,-137.07"/>
<polygon fill="midnightblue" stroke="midnightblue" points="942,-139.83 948.74,-131.65 938.37,-133.85 942,-139.83"/>
</g>
</g>
</svg>
