<?xml version="1.0" encoding="UTF-8" standalone="no"?>
<!DOCTYPE svg PUBLIC "-//W3C//DTD SVG 1.1//EN"
 "http://www.w3.org/Graphics/SVG/1.1/DTD/svg11.dtd">
<!-- Generated by graphviz version 2.49.3 (20211027.1534)
 -->
<!-- Title: include/v8&#45;script.h Pages: 1 -->
<svg width="584pt" height="420pt"
 viewBox="0.00 0.00 584.00 420.00" xmlns="http://www.w3.org/2000/svg" xmlns:xlink="http://www.w3.org/1999/xlink">
<g id="graph0" class="graph" transform="scale(1 1) rotate(0) translate(4 416)">
<title>include/v8&#45;script.h</title>
<polygon fill="white" stroke="transparent" points="-4,4 -4,-416 580,-416 580,4 -4,4"/>
<!-- Node1 -->
<g id="node1" class="node">
<title>Node1</title>
<g id="a_node1"><a xlink:title=" ">
<polygon fill="#bfbfbf" stroke="black" points="160.5,-392.5 160.5,-411.5 255.5,-411.5 255.5,-392.5 160.5,-392.5"/>
<text text-anchor="middle" x="208" y="-399.5" font-family="Helvetica,sans-Serif" font-size="10.00">include/v8&#45;script.h</text>
</a>
</g>
</g>
<!-- Node2 -->
<g id="node2" class="node">
<title>Node2</title>
<g id="a_node2"><a xlink:title=" ">
<polygon fill="white" stroke="#bfbfbf" points="508.5,-0.5 508.5,-19.5 559.5,-19.5 559.5,-0.5 508.5,-0.5"/>
<text text-anchor="middle" x="534" y="-7.5" font-family="Helvetica,sans-Serif" font-size="10.00">stddef.h</text>
</a>
</g>
</g>
<!-- Node1&#45;&gt;Node2 -->
<g id="edge1" class="edge">
<title>Node1&#45;&gt;Node2</title>
<path fill="none" stroke="midnightblue" d="M255.73,-396.82C355.3,-386.79 576,-357.1 576,-291 576,-291 576,-291 576,-121 576,-86.41 557.65,-49.49 545.21,-28.43"/>
<polygon fill="midnightblue" stroke="midnightblue" points="548.06,-26.38 539.84,-19.69 542.09,-30.04 548.06,-26.38"/>
</g>
<!-- Node3 -->
<g id="node3" class="node">
<title>Node3</title>
<g id="a_node3"><a xlink:title=" ">
<polygon fill="white" stroke="#bfbfbf" points="39,-0.5 39,-19.5 87,-19.5 87,-0.5 39,-0.5"/>
<text text-anchor="middle" x="63" y="-7.5" font-family="Helvetica,sans-Serif" font-size="10.00">stdint.h</text>
</a>
</g>
</g>
<!-- Node1&#45;&gt;Node3 -->
<g id="edge2" class="edge">
<title>Node1&#45;&gt;Node3</title>
<path fill="none" stroke="midnightblue" d="M160.28,-396.62C98.87,-388.07 0,-363.1 0,-291 0,-291 0,-291 0,-121 0,-83.48 27.95,-47.14 46.61,-27.05"/>
<polygon fill="midnightblue" stroke="midnightblue" points="49.27,-29.34 53.7,-19.72 44.24,-24.48 49.27,-29.34"/>
</g>
<!-- Node4 -->
<g id="node4" class="node">
<title>Node4</title>
<g id="a_node4"><a xlink:title=" ">
<polygon fill="white" stroke="#bfbfbf" points="66.5,-336.5 66.5,-355.5 117.5,-355.5 117.5,-336.5 66.5,-336.5"/>
<text text-anchor="middle" x="92" y="-343.5" font-family="Helvetica,sans-Serif" font-size="10.00">memory</text>
</a>
</g>
</g>
<!-- Node1&#45;&gt;Node4 -->
<g id="edge3" class="edge">
<title>Node1&#45;&gt;Node4</title>
<path fill="none" stroke="midnightblue" d="M189.62,-392.44C170.78,-383.68 141.27,-369.94 119.62,-359.86"/>
<polygon fill="midnightblue" stroke="midnightblue" points="120.84,-356.56 110.29,-355.52 117.88,-362.91 120.84,-356.56"/>
</g>
<!-- Node5 -->
<g id="node5" class="node">
<title>Node5</title>
<g id="a_node5"><a xlink:title=" ">
<polygon fill="white" stroke="#bfbfbf" points="136,-336.5 136,-355.5 180,-355.5 180,-336.5 136,-336.5"/>
<text text-anchor="middle" x="158" y="-343.5" font-family="Helvetica,sans-Serif" font-size="10.00">vector</text>
</a>
</g>
</g>
<!-- Node1&#45;&gt;Node5 -->
<g id="edge4" class="edge">
<title>Node1&#45;&gt;Node5</title>
<path fill="none" stroke="midnightblue" d="M199.74,-392.08C192.54,-384.3 181.89,-372.8 173.15,-363.37"/>
<polygon fill="midnightblue" stroke="midnightblue" points="175.47,-360.71 166.1,-355.75 170.33,-365.47 175.47,-360.71"/>
</g>
<!-- Node6 -->
<g id="node6" class="node">
<title>Node6</title>
<g id="a_node6"><a xlink:href="v8-data_8h.html" target="_top" xlink:title=" ">
<polygon fill="white" stroke="black" points="340,-168.5 340,-187.5 396,-187.5 396,-168.5 340,-168.5"/>
<text text-anchor="middle" x="368" y="-175.5" font-family="Helvetica,sans-Serif" font-size="10.00">v8&#45;data.h</text>
</a>
</g>
</g>
<!-- Node1&#45;&gt;Node6 -->
<g id="edge5" class="edge">
<title>Node1&#45;&gt;Node6</title>
<path fill="none" stroke="midnightblue" d="M255.71,-392.44C303.81,-380.88 374.95,-355.01 404,-300 422.33,-265.29 397.39,-219.91 380.75,-195.79"/>
<polygon fill="midnightblue" stroke="midnightblue" points="383.57,-193.72 374.89,-187.65 377.89,-197.81 383.57,-193.72"/>
</g>
<!-- Node7 -->
<g id="node7" class="node">
<title>Node7</title>
<g id="a_node7"><a xlink:href="v8-local-handle_8h.html" target="_top" xlink:title=" ">
<polygon fill="white" stroke="black" points="452.5,-112.5 452.5,-131.5 541.5,-131.5 541.5,-112.5 452.5,-112.5"/>
<text text-anchor="middle" x="497" y="-119.5" font-family="Helvetica,sans-Serif" font-size="10.00">v8&#45;local&#45;handle.h</text>
</a>
</g>
</g>
<!-- Node1&#45;&gt;Node7 -->
<g id="edge17" class="edge">
<title>Node1&#45;&gt;Node7</title>
<path fill="none" stroke="midnightblue" d="M255.63,-395.22C347.02,-382.8 538,-349.81 538,-291 538,-291 538,-291 538,-233 538,-198.52 520.09,-161.56 507.94,-140.47"/>
<polygon fill="midnightblue" stroke="midnightblue" points="510.84,-138.49 502.7,-131.71 504.84,-142.09 510.84,-138.49"/>
</g>
<!-- Node12 -->
<g id="node12" class="node">
<title>Node12</title>
<g id="a_node12"><a xlink:href="v8config_8h.html" target="_top" xlink:title=" ">
<polygon fill="white" stroke="black" points="168,-0.5 168,-19.5 228,-19.5 228,-0.5 168,-0.5"/>
<text text-anchor="middle" x="198" y="-7.5" font-family="Helvetica,sans-Serif" font-size="10.00">v8config.h</text>
</a>
</g>
</g>
<!-- Node1&#45;&gt;Node12 -->
<g id="edge38" class="edge">
<title>Node1&#45;&gt;Node12</title>
<path fill="none" stroke="midnightblue" d="M160.43,-398.47C127.25,-394.22 84.2,-383.34 57,-356 35.77,-334.66 38,-321.1 38,-291 38,-291 38,-291 38,-121 38,-62.78 110.83,-33.05 158.21,-19.87"/>
<polygon fill="midnightblue" stroke="midnightblue" points="159.13,-23.24 167.91,-17.3 157.34,-16.48 159.13,-23.24"/>
</g>
<!-- Node13 -->
<g id="node13" class="node">
<title>Node13</title>
<g id="a_node13"><a xlink:href="v8-maybe_8h.html" target="_top" xlink:title=" ">
<polygon fill="white" stroke="black" points="104,-168.5 104,-187.5 170,-187.5 170,-168.5 104,-168.5"/>
<text text-anchor="middle" x="137" y="-175.5" font-family="Helvetica,sans-Serif" font-size="10.00">v8&#45;maybe.h</text>
</a>
</g>
</g>
<!-- Node1&#45;&gt;Node13 -->
<g id="edge18" class="edge">
<title>Node1&#45;&gt;Node13</title>
<path fill="none" stroke="midnightblue" d="M206.13,-392.38C203.24,-379.73 197.16,-355.53 189,-336 181.94,-319.11 177.18,-316.37 169,-300 156.81,-275.62 151.1,-270.32 144,-244 139.88,-228.74 138.17,-210.86 137.47,-197.71"/>
<polygon fill="midnightblue" stroke="midnightblue" points="140.96,-197.43 137.08,-187.57 133.97,-197.7 140.96,-197.43"/>
</g>
<!-- Node14 -->
<g id="node14" class="node">
<title>Node14</title>
<g id="a_node14"><a xlink:href="v8-message_8h.html" target="_top" xlink:title=" ">
<polygon fill="white" stroke="black" points="236.5,-336.5 236.5,-355.5 313.5,-355.5 313.5,-336.5 236.5,-336.5"/>
<text text-anchor="middle" x="275" y="-343.5" font-family="Helvetica,sans-Serif" font-size="10.00">v8&#45;message.h</text>
</a>
</g>
</g>
<!-- Node1&#45;&gt;Node14 -->
<g id="edge21" class="edge">
<title>Node1&#45;&gt;Node14</title>
<path fill="none" stroke="midnightblue" d="M218.76,-392.32C228.77,-384.26 243.89,-372.08 255.93,-362.37"/>
<polygon fill="midnightblue" stroke="midnightblue" points="258.45,-364.83 264.04,-355.83 254.06,-359.38 258.45,-364.83"/>
</g>
<!-- Node6&#45;&gt;Node7 -->
<g id="edge6" class="edge">
<title>Node6&#45;&gt;Node7</title>
<path fill="none" stroke="midnightblue" d="M388.44,-168.44C409.67,-159.56 443.1,-145.56 467.25,-135.45"/>
<polygon fill="midnightblue" stroke="midnightblue" points="468.78,-138.61 476.66,-131.52 466.08,-132.15 468.78,-138.61"/>
</g>
<!-- Node6&#45;&gt;Node12 -->
<g id="edge16" class="edge">
<title>Node6&#45;&gt;Node12</title>
<path fill="none" stroke="midnightblue" d="M359.94,-168.25C341.19,-147.97 292.93,-96.45 250,-56 239.14,-45.77 226.49,-34.8 216.38,-26.25"/>
<polygon fill="midnightblue" stroke="midnightblue" points="218.5,-23.46 208.59,-19.71 214,-28.82 218.5,-23.46"/>
</g>
<!-- Node7&#45;&gt;Node2 -->
<g id="edge7" class="edge">
<title>Node7&#45;&gt;Node2</title>
<path fill="none" stroke="midnightblue" d="M499.9,-112.37C505.9,-94.54 519.77,-53.3 527.85,-29.27"/>
<polygon fill="midnightblue" stroke="midnightblue" points="531.24,-30.19 531.11,-19.59 524.6,-27.95 531.24,-30.19"/>
</g>
<!-- Node8 -->
<g id="node8" class="node">
<title>Node8</title>
<g id="a_node8"><a xlink:title=" ">
<polygon fill="white" stroke="#bfbfbf" points="428,-0.5 428,-19.5 490,-19.5 490,-0.5 428,-0.5"/>
<text text-anchor="middle" x="459" y="-7.5" font-family="Helvetica,sans-Serif" font-size="10.00">type_traits</text>
</a>
</g>
</g>
<!-- Node7&#45;&gt;Node8 -->
<g id="edge8" class="edge">
<title>Node7&#45;&gt;Node8</title>
<path fill="none" stroke="midnightblue" d="M494.02,-112.37C487.86,-94.54 473.61,-53.3 465.31,-29.27"/>
<polygon fill="midnightblue" stroke="midnightblue" points="468.54,-27.9 461.97,-19.59 461.93,-30.19 468.54,-27.9"/>
</g>
<!-- Node9 -->
<g id="node9" class="node">
<title>Node9</title>
<g id="a_node9"><a xlink:href="v8-internal_8h.html" target="_top" xlink:title=" ">
<polygon fill="white" stroke="black" points="340.5,-56.5 340.5,-75.5 409.5,-75.5 409.5,-56.5 340.5,-56.5"/>
<text text-anchor="middle" x="375" y="-63.5" font-family="Helvetica,sans-Serif" font-size="10.00">v8&#45;internal.h</text>
</a>
</g>
</g>
<!-- Node7&#45;&gt;Node9 -->
<g id="edge9" class="edge">
<title>Node7&#45;&gt;Node9</title>
<path fill="none" stroke="midnightblue" d="M477.67,-112.44C457.68,-103.6 426.26,-89.69 403.44,-79.59"/>
<polygon fill="midnightblue" stroke="midnightblue" points="404.8,-76.36 394.24,-75.52 401.97,-82.76 404.8,-76.36"/>
</g>
<!-- Node9&#45;&gt;Node2 -->
<g id="edge10" class="edge">
<title>Node9&#45;&gt;Node2</title>
<path fill="none" stroke="midnightblue" d="M400.19,-56.44C426.94,-47.36 469.4,-32.94 499.31,-22.78"/>
<polygon fill="midnightblue" stroke="midnightblue" points="500.58,-26.05 508.92,-19.52 498.33,-19.42 500.58,-26.05"/>
</g>
<!-- Node9&#45;&gt;Node3 -->
<g id="edge11" class="edge">
<title>Node9&#45;&gt;Node3</title>
<path fill="none" stroke="midnightblue" d="M340.42,-59.01C280.25,-48.6 157.02,-27.27 97.15,-16.91"/>
<polygon fill="midnightblue" stroke="midnightblue" points="97.53,-13.42 87.08,-15.17 96.34,-20.32 97.53,-13.42"/>
</g>
<!-- Node9&#45;&gt;Node8 -->
<g id="edge13" class="edge">
<title>Node9&#45;&gt;Node8</title>
<path fill="none" stroke="midnightblue" d="M388.5,-56.32C401.6,-47.9 421.71,-34.97 437.11,-25.07"/>
<polygon fill="midnightblue" stroke="midnightblue" points="439.02,-28.01 445.54,-19.65 435.23,-22.12 439.02,-28.01"/>
</g>
<!-- Node10 -->
<g id="node10" class="node">
<title>Node10</title>
<g id="a_node10"><a xlink:title=" ">
<polygon fill="white" stroke="#bfbfbf" points="274,-0.5 274,-19.5 322,-19.5 322,-0.5 274,-0.5"/>
<text text-anchor="middle" x="298" y="-7.5" font-family="Helvetica,sans-Serif" font-size="10.00">string.h</text>
</a>
</g>
</g>
<!-- Node9&#45;&gt;Node10 -->
<g id="edge12" class="edge">
<title>Node9&#45;&gt;Node10</title>
<path fill="none" stroke="midnightblue" d="M362.63,-56.32C350.84,-48.06 332.87,-35.45 318.86,-25.63"/>
<polygon fill="midnightblue" stroke="midnightblue" points="320.54,-22.53 310.34,-19.65 316.52,-28.26 320.54,-22.53"/>
</g>
<!-- Node11 -->
<g id="node11" class="node">
<title>Node11</title>
<g id="a_node11"><a xlink:href="v8-version_8h.html" target="_top" xlink:title=" ">
<polygon fill="white" stroke="black" points="340.5,-0.5 340.5,-19.5 409.5,-19.5 409.5,-0.5 340.5,-0.5"/>
<text text-anchor="middle" x="375" y="-7.5" font-family="Helvetica,sans-Serif" font-size="10.00">v8&#45;version.h</text>
</a>
</g>
</g>
<!-- Node9&#45;&gt;Node11 -->
<g id="edge14" class="edge">
<title>Node9&#45;&gt;Node11</title>
<path fill="none" stroke="midnightblue" d="M375,-56.08C375,-49.01 375,-38.86 375,-29.99"/>
<polygon fill="midnightblue" stroke="midnightblue" points="378.5,-29.75 375,-19.75 371.5,-29.75 378.5,-29.75"/>
</g>
<!-- Node9&#45;&gt;Node12 -->
<g id="edge15" class="edge">
<title>Node9&#45;&gt;Node12</title>
<path fill="none" stroke="midnightblue" d="M346.95,-56.44C316.92,-47.28 269.09,-32.69 235.76,-22.52"/>
<polygon fill="midnightblue" stroke="midnightblue" points="236.5,-19.09 225.91,-19.52 234.46,-25.78 236.5,-19.09"/>
</g>
<!-- Node13&#45;&gt;Node9 -->
<g id="edge19" class="edge">
<title>Node13&#45;&gt;Node9</title>
<path fill="none" stroke="midnightblue" d="M151.87,-168.44C174.73,-155.44 220.04,-130.31 260,-112 286.83,-99.71 318.05,-87.63 341.18,-79.08"/>
<polygon fill="midnightblue" stroke="midnightblue" points="342.7,-82.26 350.88,-75.53 340.29,-75.68 342.7,-82.26"/>
</g>
<!-- Node13&#45;&gt;Node12 -->
<g id="edge20" class="edge">
<title>Node13&#45;&gt;Node12</title>
<path fill="none" stroke="midnightblue" d="M140.28,-168.08C149.92,-141.83 178.32,-64.55 191.34,-29.12"/>
<polygon fill="midnightblue" stroke="midnightblue" points="194.69,-30.16 194.85,-19.57 188.12,-27.75 194.69,-30.16"/>
</g>
<!-- Node14&#45;&gt;Node7 -->
<g id="edge24" class="edge">
<title>Node14&#45;&gt;Node7</title>
<path fill="none" stroke="midnightblue" d="M313.73,-338.35C341.15,-332.1 377.61,-320.54 404,-300 451.09,-263.36 452.91,-242.13 478,-188 484.95,-173 490,-154.87 493.14,-141.57"/>
<polygon fill="midnightblue" stroke="midnightblue" points="496.58,-142.23 495.32,-131.71 489.74,-140.71 496.58,-142.23"/>
</g>
<!-- Node14&#45;&gt;Node12 -->
<g id="edge37" class="edge">
<title>Node14&#45;&gt;Node12</title>
<path fill="none" stroke="midnightblue" d="M241.71,-336.38C219.35,-329.35 190.2,-317.65 169,-300 123.15,-261.83 112.17,-245.14 95,-188 75.28,-122.4 143.59,-55.28 178.59,-26.09"/>
<polygon fill="midnightblue" stroke="midnightblue" points="181.14,-28.53 186.7,-19.51 176.73,-23.1 181.14,-28.53"/>
</g>
<!-- Node14&#45;&gt;Node13 -->
<g id="edge25" class="edge">
<title>Node14&#45;&gt;Node13</title>
<path fill="none" stroke="midnightblue" d="M246.43,-336.49C227.13,-329.46 202.29,-317.71 186,-300 158.73,-270.36 145.71,-223.57 140.3,-197.71"/>
<polygon fill="midnightblue" stroke="midnightblue" points="143.7,-196.89 138.37,-187.74 136.83,-198.22 143.7,-196.89"/>
</g>
<!-- Node15 -->
<g id="node15" class="node">
<title>Node15</title>
<g id="a_node15"><a xlink:title=" ">
<polygon fill="white" stroke="#bfbfbf" points="287.5,-280.5 287.5,-299.5 332.5,-299.5 332.5,-280.5 287.5,-280.5"/>
<text text-anchor="middle" x="310" y="-287.5" font-family="Helvetica,sans-Serif" font-size="10.00">stdio.h</text>
</a>
</g>
</g>
<!-- Node14&#45;&gt;Node15 -->
<g id="edge22" class="edge">
<title>Node14&#45;&gt;Node15</title>
<path fill="none" stroke="midnightblue" d="M280.78,-336.08C285.67,-328.53 292.83,-317.49 298.83,-308.23"/>
<polygon fill="midnightblue" stroke="midnightblue" points="301.83,-310.05 304.33,-299.75 295.95,-306.24 301.83,-310.05"/>
</g>
<!-- Node16 -->
<g id="node16" class="node">
<title>Node16</title>
<g id="a_node16"><a xlink:title=" ">
<polygon fill="white" stroke="#bfbfbf" points="350.5,-280.5 350.5,-299.5 395.5,-299.5 395.5,-280.5 350.5,-280.5"/>
<text text-anchor="middle" x="373" y="-287.5" font-family="Helvetica,sans-Serif" font-size="10.00">iosfwd</text>
</a>
</g>
</g>
<!-- Node14&#45;&gt;Node16 -->
<g id="edge23" class="edge">
<title>Node14&#45;&gt;Node16</title>
<path fill="none" stroke="midnightblue" d="M290.75,-336.32C306.32,-327.74 330.38,-314.49 348.46,-304.52"/>
<polygon fill="midnightblue" stroke="midnightblue" points="350.22,-307.55 357.29,-299.65 346.85,-301.42 350.22,-307.55"/>
</g>
<!-- Node17 -->
<g id="node17" class="node">
<title>Node17</title>
<g id="a_node17"><a xlink:href="v8-primitive_8h.html" target="_top" xlink:title=" ">
<polygon fill="white" stroke="black" points="195,-280.5 195,-299.5 269,-299.5 269,-280.5 195,-280.5"/>
<text text-anchor="middle" x="232" y="-287.5" font-family="Helvetica,sans-Serif" font-size="10.00">v8&#45;primitive.h</text>
</a>
</g>
</g>
<!-- Node14&#45;&gt;Node17 -->
<g id="edge26" class="edge">
<title>Node14&#45;&gt;Node17</title>
<path fill="none" stroke="midnightblue" d="M267.9,-336.08C261.76,-328.38 252.73,-317.03 245.26,-307.65"/>
<polygon fill="midnightblue" stroke="midnightblue" points="247.94,-305.39 238.97,-299.75 242.46,-309.75 247.94,-305.39"/>
</g>
<!-- Node17&#45;&gt;Node6 -->
<g id="edge27" class="edge">
<title>Node17&#45;&gt;Node6</title>
<path fill="none" stroke="midnightblue" d="M248.43,-280.42C263.75,-272.07 286.89,-258.54 305,-244 323.47,-229.17 342.03,-209.27 354.17,-195.41"/>
<polygon fill="midnightblue" stroke="midnightblue" points="356.97,-197.53 360.84,-187.66 351.66,-192.96 356.97,-197.53"/>
</g>
<!-- Node17&#45;&gt;Node7 -->
<g id="edge29" class="edge">
<title>Node17&#45;&gt;Node7</title>
<path fill="none" stroke="midnightblue" d="M268.89,-280.41C314.92,-269.49 388.97,-251.2 400,-244 441.18,-217.11 472.98,-166.99 487.82,-140.48"/>
<polygon fill="midnightblue" stroke="midnightblue" points="490.96,-142.03 492.66,-131.57 484.81,-138.69 490.96,-142.03"/>
</g>
<!-- Node17&#45;&gt;Node9 -->
<g id="edge28" class="edge">
<title>Node17&#45;&gt;Node9</title>
<path fill="none" stroke="midnightblue" d="M268.17,-280.49C310.62,-268.27 378.6,-241.09 405,-188 422.11,-153.59 401.06,-108.71 386.55,-84.44"/>
<polygon fill="midnightblue" stroke="midnightblue" points="389.32,-82.27 381.04,-75.65 383.39,-85.99 389.32,-82.27"/>
</g>
<!-- Node17&#45;&gt;Node12 -->
<g id="edge36" class="edge">
<title>Node17&#45;&gt;Node12</title>
<path fill="none" stroke="midnightblue" d="M227.41,-280.44C218.13,-262.29 198,-218.38 198,-179 198,-179 198,-179 198,-121 198,-88.95 198,-51.64 198,-29.75"/>
<polygon fill="midnightblue" stroke="midnightblue" points="201.5,-29.56 198,-19.56 194.5,-29.56 201.5,-29.56"/>
</g>
<!-- Node18 -->
<g id="node18" class="node">
<title>Node18</title>
<g id="a_node18"><a xlink:href="v8-value_8h.html" target="_top" xlink:title=" ">
<polygon fill="white" stroke="black" points="235.5,-224.5 235.5,-243.5 296.5,-243.5 296.5,-224.5 235.5,-224.5"/>
<text text-anchor="middle" x="266" y="-231.5" font-family="Helvetica,sans-Serif" font-size="10.00">v8&#45;value.h</text>
</a>
</g>
</g>
<!-- Node17&#45;&gt;Node18 -->
<g id="edge30" class="edge">
<title>Node17&#45;&gt;Node18</title>
<path fill="none" stroke="midnightblue" d="M237.61,-280.08C242.37,-272.53 249.32,-261.49 255.15,-252.23"/>
<polygon fill="midnightblue" stroke="midnightblue" points="258.12,-254.08 260.49,-243.75 252.2,-250.35 258.12,-254.08"/>
</g>
<!-- Node18&#45;&gt;Node6 -->
<g id="edge31" class="edge">
<title>Node18&#45;&gt;Node6</title>
<path fill="none" stroke="midnightblue" d="M282.39,-224.32C298.67,-215.7 323.87,-202.36 342.72,-192.39"/>
<polygon fill="midnightblue" stroke="midnightblue" points="344.45,-195.43 351.65,-187.65 341.18,-189.24 344.45,-195.43"/>
</g>
<!-- Node18&#45;&gt;Node7 -->
<g id="edge33" class="edge">
<title>Node18&#45;&gt;Node7</title>
<path fill="none" stroke="midnightblue" d="M272.16,-224.42C282.64,-210.45 305.31,-182.88 331,-168 365.19,-148.2 408.38,-136.84 442.13,-130.49"/>
<polygon fill="midnightblue" stroke="midnightblue" points="443.06,-133.88 452.29,-128.68 441.83,-126.99 443.06,-133.88"/>
</g>
<!-- Node18&#45;&gt;Node9 -->
<g id="edge32" class="edge">
<title>Node18&#45;&gt;Node9</title>
<path fill="none" stroke="midnightblue" d="M270.34,-224.4C276.81,-211.77 289.55,-187.6 302,-168 321.51,-137.27 346.91,-103.31 362.02,-83.64"/>
<polygon fill="midnightblue" stroke="midnightblue" points="364.84,-85.72 368.19,-75.67 359.3,-81.44 364.84,-85.72"/>
</g>
<!-- Node18&#45;&gt;Node12 -->
<g id="edge35" class="edge">
<title>Node18&#45;&gt;Node12</title>
<path fill="none" stroke="midnightblue" d="M263.32,-224.15C255.48,-198.28 231.87,-120.48 212,-56 209.29,-47.19 206.25,-37.42 203.7,-29.24"/>
<polygon fill="midnightblue" stroke="midnightblue" points="207.02,-28.13 200.7,-19.62 200.34,-30.21 207.02,-28.13"/>
</g>
<!-- Node18&#45;&gt;Node13 -->
<g id="edge34" class="edge">
<title>Node18&#45;&gt;Node13</title>
<path fill="none" stroke="midnightblue" d="M245.56,-224.44C224.33,-215.56 190.9,-201.56 166.75,-191.45"/>
<polygon fill="midnightblue" stroke="midnightblue" points="167.92,-188.15 157.34,-187.52 165.22,-194.61 167.92,-188.15"/>
</g>
</g>
</svg>
