<?xml version="1.0" encoding="UTF-8" standalone="no"?>
<!DOCTYPE svg PUBLIC "-//W3C//DTD SVG 1.1//EN"
 "http://www.w3.org/Graphics/SVG/1.1/DTD/svg11.dtd">
<!-- Generated by graphviz version 8.0.5 (20230430.1635)
 -->
<!-- Title: include/cppgc/internal/write&#45;barrier.h Pages: 1 -->
<svg width="1384pt" height="526pt"
 viewBox="0.00 0.00 1384.25 525.50" xmlns="http://www.w3.org/2000/svg" xmlns:xlink="http://www.w3.org/1999/xlink">
<g id="graph0" class="graph" transform="scale(1 1) rotate(0) translate(4 521.5)">
<title>include/cppgc/internal/write&#45;barrier.h</title>
<!-- Node1 -->
<g id="node1" class="node">
<title>Node1</title>
<g id="a_node1"><a xlink:title=" ">
<polygon fill="#999999" stroke="#666666" points="655.25,-517.5 544.75,-517.5 544.75,-487 655.25,-487 655.25,-517.5"/>
<text text-anchor="start" x="552.75" y="-504" font-family="Helvetica,sans-Serif" font-size="10.00">include/cppgc/internal</text>
<text text-anchor="middle" x="600" y="-492.75" font-family="Helvetica,sans-Serif" font-size="10.00">/write&#45;barrier.h</text>
</a>
</g>
</g>
<!-- Node2 -->
<g id="node2" class="node">
<title>Node2</title>
<g id="a_node2"><a xlink:title=" ">
<polygon fill="#e0e0e0" stroke="#999999" points="253.12,-74.5 204.88,-74.5 204.88,-55.25 253.12,-55.25 253.12,-74.5"/>
<text text-anchor="middle" x="229" y="-61" font-family="Helvetica,sans-Serif" font-size="10.00">cstddef</text>
</a>
</g>
</g>
<!-- Node1&#45;&gt;Node2 -->
<g id="edge1" class="edge">
<title>Node1&#45;&gt;Node2</title>
<path fill="none" stroke="#63b8ff" d="M544.34,-501.66C423.78,-501.65 142.79,-496.58 61,-451 21.71,-429.11 0,-415.23 0,-370.25 0,-370.25 0,-370.25 0,-174.38 0,-89.71 129.41,-71.02 193.67,-66.96"/>
<polygon fill="#63b8ff" stroke="#63b8ff" points="193.7,-70.41 203.49,-66.38 193.32,-63.42 193.7,-70.41"/>
</g>
<!-- Node3 -->
<g id="node3" class="node">
<title>Node3</title>
<g id="a_node3"><a xlink:title=" ">
<polygon fill="#e0e0e0" stroke="#999999" points="98.62,-185 53.38,-185 53.38,-165.75 98.62,-165.75 98.62,-185"/>
<text text-anchor="middle" x="76" y="-171.5" font-family="Helvetica,sans-Serif" font-size="10.00">cstdint</text>
</a>
</g>
</g>
<!-- Node1&#45;&gt;Node3 -->
<g id="edge2" class="edge">
<title>Node1&#45;&gt;Node3</title>
<path fill="none" stroke="#63b8ff" d="M544.4,-499.02C438.51,-494.15 212,-480.53 140,-451 86.5,-429.06 38,-428.07 38,-370.25 38,-370.25 38,-370.25 38,-301.75 38,-262.48 55.28,-219.15 66.54,-195.1"/>
<polygon fill="#63b8ff" stroke="#63b8ff" points="70.12,-196.74 71.34,-186.22 63.82,-193.68 70.12,-196.74"/>
</g>
<!-- Node4 -->
<g id="node4" class="node">
<title>Node4</title>
<g id="a_node4"><a xlink:href="heap-handle_8h.html" target="_top" xlink:title=" ">
<polygon fill="white" stroke="#666666" points="744.62,-245.88 639.38,-245.88 639.38,-226.62 744.62,-226.62 744.62,-245.88"/>
<text text-anchor="middle" x="692" y="-232.38" font-family="Helvetica,sans-Serif" font-size="10.00">cppgc/heap&#45;handle.h</text>
</a>
</g>
</g>
<!-- Node1&#45;&gt;Node4 -->
<g id="edge3" class="edge">
<title>Node1&#45;&gt;Node4</title>
<path fill="none" stroke="#63b8ff" d="M614.9,-486.68C623.72,-477.27 634.41,-464.32 641,-451 673.81,-384.66 686.18,-296.11 690.25,-257.11"/>
<polygon fill="#63b8ff" stroke="#63b8ff" points="693.82,-257.57 691.29,-247.28 686.85,-256.9 693.82,-257.57"/>
</g>
<!-- Node5 -->
<g id="node5" class="node">
<title>Node5</title>
<g id="a_node5"><a xlink:href="v8config_8h.html" target="_top" xlink:title=" ">
<polygon fill="white" stroke="#666666" points="721.75,-74.5 662.25,-74.5 662.25,-55.25 721.75,-55.25 721.75,-74.5"/>
<text text-anchor="middle" x="692" y="-61" font-family="Helvetica,sans-Serif" font-size="10.00">v8config.h</text>
</a>
</g>
</g>
<!-- Node1&#45;&gt;Node5 -->
<g id="edge65" class="edge">
<title>Node1&#45;&gt;Node5</title>
<path fill="none" stroke="#63b8ff" d="M633.06,-486.57C649.78,-477.96 669.54,-465.85 684,-451 742.17,-391.26 710.78,-339.45 776,-287.5 820.22,-252.28 845.87,-273.37 898,-251.5 1000.69,-208.42 1060.54,-225.74 1117,-129.75 1121.34,-122.38 1122.73,-116.86 1117,-110.5 1091.55,-82.24 834.17,-70.62 732.76,-67.12"/>
<polygon fill="#63b8ff" stroke="#63b8ff" points="733.14,-63.59 723.03,-66.75 732.91,-70.59 733.14,-63.59"/>
</g>
<!-- Node7 -->
<g id="node7" class="node">
<title>Node7</title>
<g id="a_node7"><a xlink:href="heap-state_8h.html" target="_top" xlink:title=" ">
<polygon fill="white" stroke="#666666" points="1376.25,-185 1277.75,-185 1277.75,-165.75 1376.25,-165.75 1376.25,-185"/>
<text text-anchor="middle" x="1327" y="-171.5" font-family="Helvetica,sans-Serif" font-size="10.00">cppgc/heap&#45;state.h</text>
</a>
</g>
</g>
<!-- Node1&#45;&gt;Node7 -->
<g id="edge6" class="edge">
<title>Node1&#45;&gt;Node7</title>
<path fill="none" stroke="#63b8ff" d="M655.6,-502.11C816.14,-503.11 1269,-494.89 1269,-370.25 1269,-370.25 1269,-370.25 1269,-301.75 1269,-260.2 1295.56,-217.47 1312.74,-194.18"/>
<polygon fill="#63b8ff" stroke="#63b8ff" points="1316.12,-196.52 1319.42,-186.45 1310.56,-192.27 1316.12,-196.52"/>
</g>
<!-- Node8 -->
<g id="node8" class="node">
<title>Node8</title>
<g id="a_node8"><a xlink:href="api-constants_8h.html" target="_top" xlink:title=" ">
<polygon fill="white" stroke="#666666" points="236.25,-251.5 143.75,-251.5 143.75,-221 236.25,-221 236.25,-251.5"/>
<text text-anchor="start" x="151.75" y="-238" font-family="Helvetica,sans-Serif" font-size="10.00">cppgc/internal/api</text>
<text text-anchor="middle" x="190" y="-226.75" font-family="Helvetica,sans-Serif" font-size="10.00">&#45;constants.h</text>
</a>
</g>
</g>
<!-- Node1&#45;&gt;Node8 -->
<g id="edge8" class="edge">
<title>Node1&#45;&gt;Node8</title>
<path fill="none" stroke="#63b8ff" d="M544.56,-497.46C424.34,-487.91 146.31,-458.15 95,-384.5 64.33,-340.47 121.01,-287.22 159.23,-258.35"/>
<polygon fill="#63b8ff" stroke="#63b8ff" points="161.03,-260.64 167.02,-251.9 156.89,-255 161.03,-260.64"/>
</g>
<!-- Node9 -->
<g id="node9" class="node">
<title>Node9</title>
<g id="a_node9"><a xlink:href="atomic-entry-flag_8h.html" target="_top" xlink:title=" ">
<polygon fill="white" stroke="#666666" points="613.5,-451 504.5,-451 504.5,-420.5 613.5,-420.5 613.5,-451"/>
<text text-anchor="start" x="512.5" y="-437.5" font-family="Helvetica,sans-Serif" font-size="10.00">cppgc/internal/atomic</text>
<text text-anchor="middle" x="559" y="-426.25" font-family="Helvetica,sans-Serif" font-size="10.00">&#45;entry&#45;flag.h</text>
</a>
</g>
</g>
<!-- Node1&#45;&gt;Node9 -->
<g id="edge12" class="edge">
<title>Node1&#45;&gt;Node9</title>
<path fill="none" stroke="#63b8ff" d="M590.7,-486.61C585.77,-478.86 579.6,-469.15 574.01,-460.36"/>
<polygon fill="#63b8ff" stroke="#63b8ff" points="576.59,-458.89 568.27,-452.33 570.68,-462.65 576.59,-458.89"/>
</g>
<!-- Node11 -->
<g id="node11" class="node">
<title>Node11</title>
<g id="a_node11"><a xlink:href="base-page-handle_8h.html" target="_top" xlink:title=" ">
<polygon fill="white" stroke="#666666" points="581.38,-318 480.62,-318 480.62,-287.5 581.38,-287.5 581.38,-318"/>
<text text-anchor="start" x="488.62" y="-304.5" font-family="Helvetica,sans-Serif" font-size="10.00">cppgc/internal/base</text>
<text text-anchor="middle" x="531" y="-293.25" font-family="Helvetica,sans-Serif" font-size="10.00">&#45;page&#45;handle.h</text>
</a>
</g>
</g>
<!-- Node1&#45;&gt;Node11 -->
<g id="edge14" class="edge">
<title>Node1&#45;&gt;Node11</title>
<path fill="none" stroke="#63b8ff" d="M608.12,-486.69C622.47,-458.83 648.48,-396.95 623,-354 615.08,-340.65 602.22,-330.61 588.59,-323.17"/>
<polygon fill="#63b8ff" stroke="#63b8ff" points="590.6,-319.76 580.09,-318.42 587.47,-326.02 590.6,-319.76"/>
</g>
<!-- Node18 -->
<g id="node18" class="node">
<title>Node18</title>
<g id="a_node18"><a xlink:href="member-storage_8h.html" target="_top" xlink:title=" ">
<polygon fill="white" stroke="#666666" points="486.5,-451 371.5,-451 371.5,-420.5 486.5,-420.5 486.5,-451"/>
<text text-anchor="start" x="379.5" y="-437.5" font-family="Helvetica,sans-Serif" font-size="10.00">cppgc/internal/member</text>
<text text-anchor="middle" x="429" y="-426.25" font-family="Helvetica,sans-Serif" font-size="10.00">&#45;storage.h</text>
</a>
</g>
</g>
<!-- Node1&#45;&gt;Node18 -->
<g id="edge27" class="edge">
<title>Node1&#45;&gt;Node18</title>
<path fill="none" stroke="#63b8ff" d="M561.2,-486.61C536.58,-477.33 504.51,-465.23 478.12,-455.28"/>
<polygon fill="#63b8ff" stroke="#63b8ff" points="479.54,-451.69 468.94,-451.44 477.07,-458.24 479.54,-451.69"/>
</g>
<!-- Node22 -->
<g id="node22" class="node">
<title>Node22</title>
<g id="a_node22"><a xlink:href="sentinel-pointer_8h.html" target="_top" xlink:title=" ">
<polygon fill="white" stroke="#666666" points="222.38,-378.88 103.62,-378.88 103.62,-359.62 222.38,-359.62 222.38,-378.88"/>
<text text-anchor="middle" x="163" y="-365.38" font-family="Helvetica,sans-Serif" font-size="10.00">cppgc/sentinel&#45;pointer.h</text>
</a>
</g>
</g>
<!-- Node1&#45;&gt;Node22 -->
<g id="edge57" class="edge">
<title>Node1&#45;&gt;Node22</title>
<path fill="none" stroke="#63b8ff" d="M544.71,-492.35C496.23,-483.88 424.15,-469.67 363,-451 300.64,-431.96 230.58,-401.46 192.15,-383.9"/>
<polygon fill="#63b8ff" stroke="#63b8ff" points="193.73,-380.32 183.18,-379.31 190.8,-386.67 193.73,-380.32"/>
</g>
<!-- Node23 -->
<g id="node23" class="node">
<title>Node23</title>
<g id="a_node23"><a xlink:href="platform_8h.html" target="_top" xlink:title=" ">
<polygon fill="white" stroke="#666666" points="889,-245.88 801,-245.88 801,-226.62 889,-226.62 889,-245.88"/>
<text text-anchor="middle" x="845" y="-232.38" font-family="Helvetica,sans-Serif" font-size="10.00">cppgc/platform.h</text>
</a>
</g>
</g>
<!-- Node1&#45;&gt;Node23 -->
<g id="edge43" class="edge">
<title>Node1&#45;&gt;Node23</title>
<path fill="none" stroke="#63b8ff" d="M622.02,-486.66C634.59,-477.52 650,-464.86 661,-451 711.41,-387.48 684.48,-344.67 742,-287.5 759.26,-270.34 783.55,-258.11 804.2,-250.01"/>
<polygon fill="#63b8ff" stroke="#63b8ff" points="805.15,-253.02 813.31,-246.25 802.71,-246.46 805.15,-253.02"/>
</g>
<!-- Node30 -->
<g id="node30" class="node">
<title>Node30</title>
<g id="a_node30"><a xlink:href="trace-trait_8h.html" target="_top" xlink:title=" ">
<polygon fill="white" stroke="#666666" points="900,-445.38 806,-445.38 806,-426.12 900,-426.12 900,-445.38"/>
<text text-anchor="middle" x="853" y="-431.88" font-family="Helvetica,sans-Serif" font-size="10.00">cppgc/trace&#45;trait.h</text>
</a>
</g>
</g>
<!-- Node1&#45;&gt;Node30 -->
<g id="edge58" class="edge">
<title>Node1&#45;&gt;Node30</title>
<path fill="none" stroke="#63b8ff" d="M655.52,-487.1C700.88,-475.53 764.25,-459.38 806.86,-448.51"/>
<polygon fill="#63b8ff" stroke="#63b8ff" points="807.66,-451.67 816.49,-445.8 805.93,-444.88 807.66,-451.67"/>
</g>
<!-- Node4&#45;&gt;Node5 -->
<g id="edge4" class="edge">
<title>Node4&#45;&gt;Node5</title>
<path fill="none" stroke="#63b8ff" d="M692,-226.14C692,-199.6 692,-121.86 692,-85.3"/>
<polygon fill="#63b8ff" stroke="#63b8ff" points="695.5,-85.62 692,-75.62 688.5,-85.62 695.5,-85.62"/>
</g>
<!-- Node6 -->
<g id="node6" class="node">
<title>Node6</title>
<g id="a_node6"><a xlink:title=" ">
<polygon fill="#e0e0e0" stroke="#999999" points="1237.25,-19.25 1186.75,-19.25 1186.75,0 1237.25,0 1237.25,-19.25"/>
<text text-anchor="middle" x="1212" y="-5.75" font-family="Helvetica,sans-Serif" font-size="10.00">memory</text>
</a>
</g>
</g>
<!-- Node5&#45;&gt;Node6 -->
<g id="edge5" class="edge">
<title>Node5&#45;&gt;Node6</title>
<path fill="none" stroke="#63b8ff" d="M722.21,-60.78C812.17,-51.57 1078.16,-24.33 1175.65,-14.35"/>
<polygon fill="#63b8ff" stroke="#63b8ff" points="1175.83,-17.75 1185.42,-13.24 1175.12,-10.78 1175.83,-17.75"/>
</g>
<!-- Node7&#45;&gt;Node5 -->
<g id="edge7" class="edge">
<title>Node7&#45;&gt;Node5</title>
<path fill="none" stroke="#63b8ff" d="M1311.81,-165.28C1286.93,-150.87 1235.48,-123.14 1188,-110.5 1102.34,-87.69 835.66,-72.79 732.92,-67.76"/>
<polygon fill="#63b8ff" stroke="#63b8ff" points="733.23,-64.23 723.08,-67.24 732.9,-71.22 733.23,-64.23"/>
</g>
<!-- Node8&#45;&gt;Node2 -->
<g id="edge9" class="edge">
<title>Node8&#45;&gt;Node2</title>
<path fill="none" stroke="#63b8ff" d="M192.18,-220.51C195.8,-197.02 203.68,-149.75 214,-110.5 216.21,-102.11 219.16,-93 221.87,-85.22"/>
<polygon fill="#63b8ff" stroke="#63b8ff" points="225.45,-86.59 225.53,-76 218.86,-84.23 225.45,-86.59"/>
</g>
<!-- Node8&#45;&gt;Node3 -->
<g id="edge10" class="edge">
<title>Node8&#45;&gt;Node3</title>
<path fill="none" stroke="#63b8ff" d="M161.53,-220.55C143.67,-211.32 120.77,-199.5 103.16,-190.4"/>
<polygon fill="#63b8ff" stroke="#63b8ff" points="104.97,-186.88 94.48,-185.4 101.76,-193.1 104.97,-186.88"/>
</g>
<!-- Node8&#45;&gt;Node5 -->
<g id="edge11" class="edge">
<title>Node8&#45;&gt;Node5</title>
<path fill="none" stroke="#63b8ff" d="M221.59,-220.6C253.98,-205.85 305.97,-182.89 352,-165.75 428.04,-137.44 448.14,-133.32 526,-110.5 568.64,-98.01 617.83,-84.95 651.53,-76.21"/>
<polygon fill="#63b8ff" stroke="#63b8ff" points="652.09,-79.42 660.9,-73.53 650.34,-72.65 652.09,-79.42"/>
</g>
<!-- Node10 -->
<g id="node10" class="node">
<title>Node10</title>
<g id="a_node10"><a xlink:title=" ">
<polygon fill="#e0e0e0" stroke="#999999" points="613.62,-378.88 568.38,-378.88 568.38,-359.62 613.62,-359.62 613.62,-378.88"/>
<text text-anchor="middle" x="591" y="-365.38" font-family="Helvetica,sans-Serif" font-size="10.00">atomic</text>
</a>
</g>
</g>
<!-- Node9&#45;&gt;Node10 -->
<g id="edge13" class="edge">
<title>Node9&#45;&gt;Node10</title>
<path fill="none" stroke="#63b8ff" d="M566.26,-420.11C570.87,-410.83 576.86,-398.75 581.8,-388.8"/>
<polygon fill="#63b8ff" stroke="#63b8ff" points="585.31,-390.59 586.62,-380.07 579.04,-387.48 585.31,-390.59"/>
</g>
<!-- Node11&#45;&gt;Node4 -->
<g id="edge15" class="edge">
<title>Node11&#45;&gt;Node4</title>
<path fill="none" stroke="#63b8ff" d="M567.53,-287.11C595.22,-276.02 632.91,-260.92 659.54,-250.25"/>
<polygon fill="#63b8ff" stroke="#63b8ff" points="660.53,-253.23 668.51,-246.26 657.93,-246.73 660.53,-253.23"/>
</g>
<!-- Node11&#45;&gt;Node5 -->
<g id="edge26" class="edge">
<title>Node11&#45;&gt;Node5</title>
<path fill="none" stroke="#63b8ff" d="M539.27,-287.09C564.14,-243 636.78,-114.41 640,-110.5 648.93,-99.68 660.66,-89.36 670.72,-81.38"/>
<polygon fill="#63b8ff" stroke="#63b8ff" points="672.56,-83.61 678.37,-74.75 668.3,-78.06 672.56,-83.61"/>
</g>
<!-- Node11&#45;&gt;Node8 -->
<g id="edge16" class="edge">
<title>Node11&#45;&gt;Node8</title>
<path fill="none" stroke="#63b8ff" d="M480.32,-292.16C417.93,-280.36 312.25,-260.37 247.07,-248.04"/>
<polygon fill="#63b8ff" stroke="#63b8ff" points="248.05,-244.48 237.57,-246.06 246.75,-251.36 248.05,-244.48"/>
</g>
<!-- Node12 -->
<g id="node12" class="node">
<title>Node12</title>
<g id="a_node12"><a xlink:href="logging_8h.html" target="_top" xlink:title=" ">
<polygon fill="white" stroke="#666666" points="540,-245.88 422,-245.88 422,-226.62 540,-226.62 540,-245.88"/>
<text text-anchor="middle" x="481" y="-232.38" font-family="Helvetica,sans-Serif" font-size="10.00">cppgc/internal/logging.h</text>
</a>
</g>
</g>
<!-- Node11&#45;&gt;Node12 -->
<g id="edge17" class="edge">
<title>Node11&#45;&gt;Node12</title>
<path fill="none" stroke="#63b8ff" d="M519.65,-287.11C512.15,-277.44 502.29,-264.71 494.4,-254.54"/>
<polygon fill="#63b8ff" stroke="#63b8ff" points="496.73,-252.83 487.84,-247.07 491.2,-257.12 496.73,-252.83"/>
</g>
<!-- Node12&#45;&gt;Node5 -->
<g id="edge25" class="edge">
<title>Node12&#45;&gt;Node5</title>
<path fill="none" stroke="#63b8ff" d="M474.04,-226.37C463.99,-212.37 447.94,-184.81 461,-165.75 486.05,-129.19 513.2,-147.07 554,-129.75 592.36,-113.47 635.87,-92.98 663.61,-79.67"/>
<polygon fill="#63b8ff" stroke="#63b8ff" points="664.93,-82.43 672.42,-74.94 661.89,-76.13 664.93,-82.43"/>
</g>
<!-- Node13 -->
<g id="node13" class="node">
<title>Node13</title>
<g id="a_node13"><a xlink:href="source-location_8h.html" target="_top" xlink:title=" ">
<polygon fill="white" stroke="#666666" points="588.38,-185 469.62,-185 469.62,-165.75 588.38,-165.75 588.38,-185"/>
<text text-anchor="middle" x="529" y="-171.5" font-family="Helvetica,sans-Serif" font-size="10.00">cppgc/source&#45;location.h</text>
</a>
</g>
</g>
<!-- Node12&#45;&gt;Node13 -->
<g id="edge18" class="edge">
<title>Node12&#45;&gt;Node13</title>
<path fill="none" stroke="#63b8ff" d="M488.29,-226.31C495.34,-217.66 506.2,-204.34 514.94,-193.62"/>
<polygon fill="#63b8ff" stroke="#63b8ff" points="518.03,-196.36 521.64,-186.4 512.61,-191.94 518.03,-196.36"/>
</g>
<!-- Node14 -->
<g id="node14" class="node">
<title>Node14</title>
<g id="a_node14"><a xlink:href="v8-source-location_8h.html" target="_top" xlink:title=" ">
<polygon fill="white" stroke="#666666" points="435.5,-129.75 332.5,-129.75 332.5,-110.5 435.5,-110.5 435.5,-129.75"/>
<text text-anchor="middle" x="384" y="-116.25" font-family="Helvetica,sans-Serif" font-size="10.00">v8&#45;source&#45;location.h</text>
</a>
</g>
</g>
<!-- Node13&#45;&gt;Node14 -->
<g id="edge19" class="edge">
<title>Node13&#45;&gt;Node14</title>
<path fill="none" stroke="#63b8ff" d="M504.4,-165.34C480.86,-156.7 445.13,-143.57 418.7,-133.87"/>
<polygon fill="#63b8ff" stroke="#63b8ff" points="420.31,-130.36 409.72,-130.2 417.9,-136.94 420.31,-130.36"/>
</g>
<!-- Node14&#45;&gt;Node2 -->
<g id="edge20" class="edge">
<title>Node14&#45;&gt;Node2</title>
<path fill="none" stroke="#63b8ff" d="M357.71,-110.09C331.82,-101.2 292.14,-87.57 263.68,-77.79"/>
<polygon fill="#63b8ff" stroke="#63b8ff" points="264.97,-74.19 254.38,-74.25 262.7,-80.81 264.97,-74.19"/>
</g>
<!-- Node14&#45;&gt;Node5 -->
<g id="edge24" class="edge">
<title>Node14&#45;&gt;Node5</title>
<path fill="none" stroke="#63b8ff" d="M435.9,-110.15C496.53,-99.67 595.58,-82.54 651.05,-72.95"/>
<polygon fill="#63b8ff" stroke="#63b8ff" points="651.62,-76.24 660.87,-71.08 650.42,-69.34 651.62,-76.24"/>
</g>
<!-- Node15 -->
<g id="node15" class="node">
<title>Node15</title>
<g id="a_node15"><a xlink:title=" ">
<polygon fill="#e0e0e0" stroke="#999999" points="445.12,-74.5 360.88,-74.5 360.88,-55.25 445.12,-55.25 445.12,-74.5"/>
<text text-anchor="middle" x="403" y="-61" font-family="Helvetica,sans-Serif" font-size="10.00">source_location</text>
</a>
</g>
</g>
<!-- Node14&#45;&gt;Node15 -->
<g id="edge21" class="edge">
<title>Node14&#45;&gt;Node15</title>
<path fill="none" stroke="#63b8ff" d="M387.14,-110.33C389.57,-103.51 393.03,-93.81 396.1,-85.2"/>
<polygon fill="#63b8ff" stroke="#63b8ff" points="399.73,-86.45 399.79,-75.86 393.14,-84.1 399.73,-86.45"/>
</g>
<!-- Node16 -->
<g id="node16" class="node">
<title>Node16</title>
<g id="a_node16"><a xlink:title=" ">
<polygon fill="#e0e0e0" stroke="#999999" points="342.62,-74.5 291.38,-74.5 291.38,-55.25 342.62,-55.25 342.62,-74.5"/>
<text text-anchor="middle" x="317" y="-61" font-family="Helvetica,sans-Serif" font-size="10.00">sstream</text>
</a>
</g>
</g>
<!-- Node14&#45;&gt;Node16 -->
<g id="edge22" class="edge">
<title>Node14&#45;&gt;Node16</title>
<path fill="none" stroke="#63b8ff" d="M372.63,-110.09C362.76,-102.24 348.23,-90.7 336.5,-81.37"/>
<polygon fill="#63b8ff" stroke="#63b8ff" points="339.2,-78.26 329.2,-74.77 334.85,-83.74 339.2,-78.26"/>
</g>
<!-- Node17 -->
<g id="node17" class="node">
<title>Node17</title>
<g id="a_node17"><a xlink:title=" ">
<polygon fill="#e0e0e0" stroke="#999999" points="513,-74.5 473,-74.5 473,-55.25 513,-55.25 513,-74.5"/>
<text text-anchor="middle" x="493" y="-61" font-family="Helvetica,sans-Serif" font-size="10.00">string</text>
</a>
</g>
</g>
<!-- Node14&#45;&gt;Node17 -->
<g id="edge23" class="edge">
<title>Node14&#45;&gt;Node17</title>
<path fill="none" stroke="#63b8ff" d="M402.49,-110.09C419.56,-101.75 445.16,-89.25 464.78,-79.66"/>
<polygon fill="#63b8ff" stroke="#63b8ff" points="465.97,-82.49 473.42,-74.95 462.9,-76.2 465.97,-82.49"/>
</g>
<!-- Node18&#45;&gt;Node2 -->
<g id="edge29" class="edge">
<title>Node18&#45;&gt;Node2</title>
<path fill="none" stroke="#63b8ff" d="M371.01,-421.62C348.78,-414.02 324.76,-402.31 308,-384.5 266.26,-340.14 239.15,-147.73 231.33,-85.42"/>
<polygon fill="#63b8ff" stroke="#63b8ff" points="234.72,-85.28 230.03,-75.78 227.77,-86.13 234.72,-85.28"/>
</g>
<!-- Node18&#45;&gt;Node5 -->
<g id="edge42" class="edge">
<title>Node18&#45;&gt;Node5</title>
<path fill="none" stroke="#63b8ff" d="M442.07,-420.24C458.21,-402.91 487.1,-373.79 516,-354 546.18,-333.33 565.04,-344.73 590,-318 592.14,-315.7 661.21,-142.99 684.45,-84.78"/>
<polygon fill="#63b8ff" stroke="#63b8ff" points="688,-86.34 688.46,-75.75 681.5,-83.74 688,-86.34"/>
</g>
<!-- Node18&#45;&gt;Node8 -->
<g id="edge31" class="edge">
<title>Node18&#45;&gt;Node8</title>
<path fill="none" stroke="#63b8ff" d="M371.07,-426.44C339.63,-419.52 301.65,-406.99 274,-384.5 233.8,-351.79 209.16,-294.41 197.69,-261.77"/>
<polygon fill="#63b8ff" stroke="#63b8ff" points="200.82,-261.08 194.31,-252.73 194.18,-263.32 200.82,-261.08"/>
</g>
<!-- Node18&#45;&gt;Node10 -->
<g id="edge28" class="edge">
<title>Node18&#45;&gt;Node10</title>
<path fill="none" stroke="#63b8ff" d="M465.76,-420.11C493.62,-409.02 531.54,-393.92 558.34,-383.25"/>
<polygon fill="#63b8ff" stroke="#63b8ff" points="559.37,-386.21 567.37,-379.26 556.79,-379.71 559.37,-386.21"/>
</g>
<!-- Node18&#45;&gt;Node12 -->
<g id="edge38" class="edge">
<title>Node18&#45;&gt;Node12</title>
<path fill="none" stroke="#63b8ff" d="M432.82,-420.23C442.05,-385.19 465.53,-296.01 475.92,-256.54"/>
<polygon fill="#63b8ff" stroke="#63b8ff" points="479.53,-257.57 478.7,-247 472.76,-255.78 479.53,-257.57"/>
</g>
<!-- Node19 -->
<g id="node19" class="node">
<title>Node19</title>
<g id="a_node19"><a xlink:title=" ">
<polygon fill="#e0e0e0" stroke="#999999" points="845.5,-312.38 784.5,-312.38 784.5,-293.12 845.5,-293.12 845.5,-312.38"/>
<text text-anchor="middle" x="815" y="-298.88" font-family="Helvetica,sans-Serif" font-size="10.00">type_traits</text>
</a>
</g>
</g>
<!-- Node18&#45;&gt;Node19 -->
<g id="edge30" class="edge">
<title>Node18&#45;&gt;Node19</title>
<path fill="none" stroke="#63b8ff" d="M455.65,-420.21C473.07,-410.49 496.18,-397.21 516,-384.5 535.72,-371.85 537.47,-363.24 559,-354 630.54,-323.3 721.42,-311.17 773.42,-306.52"/>
<polygon fill="#63b8ff" stroke="#63b8ff" points="773.55,-309.93 783.22,-305.61 772.96,-302.96 773.55,-309.93"/>
</g>
<!-- Node20 -->
<g id="node20" class="node">
<title>Node20</title>
<g id="a_node20"><a xlink:href="caged-heap_8h.html" target="_top" xlink:title=" ">
<polygon fill="white" stroke="#666666" points="423,-384.5 317,-384.5 317,-354 423,-354 423,-384.5"/>
<text text-anchor="start" x="325" y="-371" font-family="Helvetica,sans-Serif" font-size="10.00">cppgc/internal/caged</text>
<text text-anchor="middle" x="370" y="-359.75" font-family="Helvetica,sans-Serif" font-size="10.00">&#45;heap.h</text>
</a>
</g>
</g>
<!-- Node18&#45;&gt;Node20 -->
<g id="edge32" class="edge">
<title>Node18&#45;&gt;Node20</title>
<path fill="none" stroke="#63b8ff" d="M415.61,-420.11C408.22,-412.03 398.88,-401.82 390.58,-392.75"/>
<polygon fill="#63b8ff" stroke="#63b8ff" points="393.67,-390.84 384.34,-385.83 388.5,-395.57 393.67,-390.84"/>
</g>
<!-- Node18&#45;&gt;Node22 -->
<g id="edge39" class="edge">
<title>Node18&#45;&gt;Node22</title>
<path fill="none" stroke="#63b8ff" d="M371.28,-420.75C323.43,-409.15 256.19,-392.85 211.18,-381.93"/>
<polygon fill="#63b8ff" stroke="#63b8ff" points="212.07,-378.3 201.53,-379.35 210.42,-385.11 212.07,-378.3"/>
</g>
<!-- Node20&#45;&gt;Node2 -->
<g id="edge34" class="edge">
<title>Node20&#45;&gt;Node2</title>
<path fill="none" stroke="#63b8ff" d="M366.83,-353.65C363.03,-337.23 356.05,-309.94 347,-287.5 315.11,-208.42 263.06,-120.8 240.28,-83.85"/>
<polygon fill="#63b8ff" stroke="#63b8ff" points="242.92,-82.47 234.67,-75.83 236.97,-86.17 242.92,-82.47"/>
</g>
<!-- Node20&#45;&gt;Node5 -->
<g id="edge37" class="edge">
<title>Node20&#45;&gt;Node5</title>
<path fill="none" stroke="#63b8ff" d="M371.51,-353.76C376.17,-316.66 393.72,-217.51 452,-165.75 490.55,-131.51 506.61,-130.79 554,-110.5 585.88,-96.85 623.4,-84.97 651.26,-76.91"/>
<polygon fill="#63b8ff" stroke="#63b8ff" points="652.15,-80.01 660.81,-73.9 650.23,-73.28 652.15,-80.01"/>
</g>
<!-- Node20&#45;&gt;Node8 -->
<g id="edge35" class="edge">
<title>Node20&#45;&gt;Node8</title>
<path fill="none" stroke="#63b8ff" d="M342.46,-353.55C325.45,-344.08 303.43,-331.13 285,-318 259.32,-299.7 232.1,-276.07 213.41,-259.11"/>
<polygon fill="#63b8ff" stroke="#63b8ff" points="216.2,-257.01 206.46,-252.83 211.47,-262.17 216.2,-257.01"/>
</g>
<!-- Node20&#45;&gt;Node11 -->
<g id="edge36" class="edge">
<title>Node20&#45;&gt;Node11</title>
<path fill="none" stroke="#63b8ff" d="M406.53,-353.61C429.61,-344.37 459.64,-332.34 484.42,-322.41"/>
<polygon fill="#63b8ff" stroke="#63b8ff" points="485.35,-325.41 493.33,-318.44 482.75,-318.91 485.35,-325.41"/>
</g>
<!-- Node21 -->
<g id="node21" class="node">
<title>Node21</title>
<g id="a_node21"><a xlink:title=" ">
<polygon fill="#e0e0e0" stroke="#999999" points="338.25,-312.38 293.75,-312.38 293.75,-293.12 338.25,-293.12 338.25,-312.38"/>
<text text-anchor="middle" x="316" y="-298.88" font-family="Helvetica,sans-Serif" font-size="10.00">climits</text>
</a>
</g>
</g>
<!-- Node20&#45;&gt;Node21 -->
<g id="edge33" class="edge">
<title>Node20&#45;&gt;Node21</title>
<path fill="none" stroke="#63b8ff" d="M357.75,-353.61C349.56,-343.84 338.77,-330.95 330.21,-320.73"/>
<polygon fill="#63b8ff" stroke="#63b8ff" points="332.49,-318.99 323.39,-313.57 327.12,-323.49 332.49,-318.99"/>
</g>
<!-- Node22&#45;&gt;Node3 -->
<g id="edge40" class="edge">
<title>Node22&#45;&gt;Node3</title>
<path fill="none" stroke="#63b8ff" d="M158.92,-359.25C145.53,-329.73 102.75,-235.36 84.44,-194.99"/>
<polygon fill="#63b8ff" stroke="#63b8ff" points="87.29,-193.79 79.97,-186.13 80.91,-196.68 87.29,-193.79"/>
</g>
<!-- Node22&#45;&gt;Node8 -->
<g id="edge41" class="edge">
<title>Node22&#45;&gt;Node8</title>
<path fill="none" stroke="#63b8ff" d="M164.12,-359.23C166.05,-344.24 170.35,-313.3 176,-287.5 177.82,-279.2 180.18,-270.24 182.45,-262.21"/>
<polygon fill="#63b8ff" stroke="#63b8ff" points="186.09,-263.24 185.52,-252.66 179.37,-261.28 186.09,-263.24"/>
</g>
<!-- Node23&#45;&gt;Node5 -->
<g id="edge56" class="edge">
<title>Node23&#45;&gt;Node5</title>
<path fill="none" stroke="#63b8ff" d="M836.77,-226.14C812.17,-198.91 738.88,-117.77 707.04,-82.53"/>
<polygon fill="#63b8ff" stroke="#63b8ff" points="710.2,-80.69 700.9,-75.62 705,-85.38 710.2,-80.69"/>
</g>
<!-- Node23&#45;&gt;Node6 -->
<g id="edge44" class="edge">
<title>Node23&#45;&gt;Node6</title>
<path fill="none" stroke="#63b8ff" d="M889.48,-226.38C950.29,-212.78 1061.02,-182.63 1142,-129.75 1170.23,-111.31 1177.39,-103.85 1194,-74.5 1201.82,-60.68 1206.44,-43.23 1209.03,-30.06"/>
<polygon fill="#63b8ff" stroke="#63b8ff" points="1212.62,-30.85 1210.88,-20.4 1205.72,-29.65 1212.62,-30.85"/>
</g>
<!-- Node23&#45;&gt;Node13 -->
<g id="edge45" class="edge">
<title>Node23&#45;&gt;Node13</title>
<path fill="none" stroke="#63b8ff" d="M809.82,-226.19C802.31,-224.37 794.41,-222.55 787,-221 723.86,-207.8 651.44,-195.52 599.44,-187.2"/>
<polygon fill="#63b8ff" stroke="#63b8ff" points="600.08,-183.6 589.66,-185.49 598.98,-190.51 600.08,-183.6"/>
</g>
<!-- Node24 -->
<g id="node24" class="node">
<title>Node24</title>
<g id="a_node24"><a xlink:href="v8-platform_8h.html" target="_top" xlink:title=" ">
<polygon fill="white" stroke="#666666" points="903.12,-185 830.88,-185 830.88,-165.75 903.12,-165.75 903.12,-185"/>
<text text-anchor="middle" x="867" y="-171.5" font-family="Helvetica,sans-Serif" font-size="10.00">v8&#45;platform.h</text>
</a>
</g>
</g>
<!-- Node23&#45;&gt;Node24 -->
<g id="edge46" class="edge">
<title>Node23&#45;&gt;Node24</title>
<path fill="none" stroke="#63b8ff" d="M848.34,-226.31C851.38,-218.18 855.96,-205.92 859.82,-195.58"/>
<polygon fill="#63b8ff" stroke="#63b8ff" points="863.41,-196.99 863.63,-186.4 856.85,-194.54 863.41,-196.99"/>
</g>
<!-- Node24&#45;&gt;Node5 -->
<g id="edge55" class="edge">
<title>Node24&#45;&gt;Node5</title>
<path fill="none" stroke="#63b8ff" d="M849.91,-165.37C833.55,-156.63 808.28,-142.81 787,-129.75 761.21,-113.92 732.49,-94.32 713.45,-81.04"/>
<polygon fill="#63b8ff" stroke="#63b8ff" points="715.88,-77.77 705.69,-74.9 711.86,-83.51 715.88,-77.77"/>
</g>
<!-- Node24&#45;&gt;Node6 -->
<g id="edge51" class="edge">
<title>Node24&#45;&gt;Node6</title>
<path fill="none" stroke="#63b8ff" d="M903.49,-171.04C963.88,-165.01 1081.49,-150.9 1117,-129.75 1157.95,-105.36 1188.32,-56.3 1202.71,-29.37"/>
<polygon fill="#63b8ff" stroke="#63b8ff" points="1206.27,-31.11 1207.74,-20.62 1200.04,-27.9 1206.27,-31.11"/>
</g>
<!-- Node24&#45;&gt;Node14 -->
<g id="edge54" class="edge">
<title>Node24&#45;&gt;Node14</title>
<path fill="none" stroke="#63b8ff" d="M830.7,-170.37C748.78,-161.34 548.76,-139.29 446.47,-128.01"/>
<polygon fill="#63b8ff" stroke="#63b8ff" points="447.02,-124.44 436.69,-126.82 446.25,-131.4 447.02,-124.44"/>
</g>
<!-- Node24&#45;&gt;Node17 -->
<g id="edge53" class="edge">
<title>Node24&#45;&gt;Node17</title>
<path fill="none" stroke="#63b8ff" d="M835.76,-165.31C765.1,-144.81 593.73,-95.1 523.65,-74.77"/>
<polygon fill="#63b8ff" stroke="#63b8ff" points="524.88,-71.19 514.3,-71.76 522.93,-77.91 524.88,-71.19"/>
</g>
<!-- Node25 -->
<g id="node25" class="node">
<title>Node25</title>
<g id="a_node25"><a xlink:title=" ">
<polygon fill="#e0e0e0" stroke="#999999" points="1107.62,-129.75 1062.38,-129.75 1062.38,-110.5 1107.62,-110.5 1107.62,-129.75"/>
<text text-anchor="middle" x="1085" y="-116.25" font-family="Helvetica,sans-Serif" font-size="10.00">math.h</text>
</a>
</g>
</g>
<!-- Node24&#45;&gt;Node25 -->
<g id="edge47" class="edge">
<title>Node24&#45;&gt;Node25</title>
<path fill="none" stroke="#63b8ff" d="M903.43,-165.95C938.85,-157.69 994.44,-144.54 1051.63,-130.05"/>
<polygon fill="#63b8ff" stroke="#63b8ff" points="1052.12,-133.28 1060.95,-127.42 1050.39,-126.49 1052.12,-133.28"/>
</g>
<!-- Node26 -->
<g id="node26" class="node">
<title>Node26</title>
<g id="a_node26"><a xlink:title=" ">
<polygon fill="#e0e0e0" stroke="#999999" points="846.25,-129.75 795.75,-129.75 795.75,-110.5 846.25,-110.5 846.25,-129.75"/>
<text text-anchor="middle" x="821" y="-116.25" font-family="Helvetica,sans-Serif" font-size="10.00">stddef.h</text>
</a>
</g>
</g>
<!-- Node24&#45;&gt;Node26 -->
<g id="edge48" class="edge">
<title>Node24&#45;&gt;Node26</title>
<path fill="none" stroke="#63b8ff" d="M859.4,-165.58C852.98,-158.15 843.6,-147.29 835.72,-138.16"/>
<polygon fill="#63b8ff" stroke="#63b8ff" points="837.95,-136.39 828.76,-131.11 832.65,-140.96 837.95,-136.39"/>
</g>
<!-- Node27 -->
<g id="node27" class="node">
<title>Node27</title>
<g id="a_node27"><a xlink:title=" ">
<polygon fill="#e0e0e0" stroke="#999999" points="911.75,-129.75 864.25,-129.75 864.25,-110.5 911.75,-110.5 911.75,-129.75"/>
<text text-anchor="middle" x="888" y="-116.25" font-family="Helvetica,sans-Serif" font-size="10.00">stdint.h</text>
</a>
</g>
</g>
<!-- Node24&#45;&gt;Node27 -->
<g id="edge49" class="edge">
<title>Node24&#45;&gt;Node27</title>
<path fill="none" stroke="#63b8ff" d="M870.47,-165.58C873.19,-158.69 877.07,-148.84 880.49,-140.16"/>
<polygon fill="#63b8ff" stroke="#63b8ff" points="884.04,-141.7 884.46,-131.11 877.53,-139.13 884.04,-141.7"/>
</g>
<!-- Node28 -->
<g id="node28" class="node">
<title>Node28</title>
<g id="a_node28"><a xlink:title=" ">
<polygon fill="#e0e0e0" stroke="#999999" points="976.38,-129.75 929.62,-129.75 929.62,-110.5 976.38,-110.5 976.38,-129.75"/>
<text text-anchor="middle" x="953" y="-116.25" font-family="Helvetica,sans-Serif" font-size="10.00">stdlib.h</text>
</a>
</g>
</g>
<!-- Node24&#45;&gt;Node28 -->
<g id="edge50" class="edge">
<title>Node24&#45;&gt;Node28</title>
<path fill="none" stroke="#63b8ff" d="M881.59,-165.34C894.56,-157.31 913.78,-145.41 929.01,-135.98"/>
<polygon fill="#63b8ff" stroke="#63b8ff" points="930.68,-138.44 937.34,-130.2 927,-132.49 930.68,-138.44"/>
</g>
<!-- Node29 -->
<g id="node29" class="node">
<title>Node29</title>
<g id="a_node29"><a xlink:title=" ">
<polygon fill="#e0e0e0" stroke="#999999" points="1043.88,-129.75 994.12,-129.75 994.12,-110.5 1043.88,-110.5 1043.88,-129.75"/>
<text text-anchor="middle" x="1019" y="-116.25" font-family="Helvetica,sans-Serif" font-size="10.00">optional</text>
</a>
</g>
</g>
<!-- Node24&#45;&gt;Node29 -->
<g id="edge52" class="edge">
<title>Node24&#45;&gt;Node29</title>
<path fill="none" stroke="#63b8ff" d="M892.78,-165.34C917.79,-156.58 955.94,-143.22 983.75,-133.48"/>
<polygon fill="#63b8ff" stroke="#63b8ff" points="984.57,-136.55 992.85,-129.94 982.25,-129.94 984.57,-136.55"/>
</g>
<!-- Node30&#45;&gt;Node5 -->
<g id="edge64" class="edge">
<title>Node30&#45;&gt;Node5</title>
<path fill="none" stroke="#63b8ff" d="M900.36,-425.69C989.66,-407.26 1174,-362.14 1174,-303.75 1174,-303.75 1174,-303.75 1174,-174.38 1174,-144.05 1174.06,-128.96 1150,-110.5 1117.28,-85.4 839.4,-71.76 733.11,-67.42"/>
<polygon fill="#63b8ff" stroke="#63b8ff" points="733.33,-63.89 723.2,-66.98 733.05,-70.88 733.33,-63.89"/>
</g>
<!-- Node30&#45;&gt;Node19 -->
<g id="edge59" class="edge">
<title>Node30&#45;&gt;Node19</title>
<path fill="none" stroke="#63b8ff" d="M846.99,-425.93C840.69,-416.22 831.02,-399.95 826,-384.5 819.38,-364.14 816.75,-339.65 815.7,-323.01"/>
<polygon fill="#63b8ff" stroke="#63b8ff" points="819.16,-323.28 815.18,-313.46 812.17,-323.62 819.16,-323.28"/>
</g>
<!-- Node31 -->
<g id="node31" class="node">
<title>Node31</title>
<g id="a_node31"><a xlink:href="type-traits_8h.html" target="_top" xlink:title=" ">
<polygon fill="white" stroke="#666666" points="930.75,-378.88 835.25,-378.88 835.25,-359.62 930.75,-359.62 930.75,-378.88"/>
<text text-anchor="middle" x="883" y="-365.38" font-family="Helvetica,sans-Serif" font-size="10.00">cppgc/type&#45;traits.h</text>
</a>
</g>
</g>
<!-- Node30&#45;&gt;Node31 -->
<g id="edge60" class="edge">
<title>Node30&#45;&gt;Node31</title>
<path fill="none" stroke="#63b8ff" d="M857.17,-425.78C861.6,-416.25 868.74,-400.91 874.39,-388.77"/>
<polygon fill="#63b8ff" stroke="#63b8ff" points="877.82,-390.69 878.86,-380.14 871.47,-387.73 877.82,-390.69"/>
</g>
<!-- Node31&#45;&gt;Node2 -->
<g id="edge61" class="edge">
<title>Node31&#45;&gt;Node2</title>
<path fill="none" stroke="#63b8ff" d="M881.97,-359.24C879.71,-343.17 873,-309.19 855,-287.5 834.4,-262.68 818.66,-269.65 792,-251.5 774.1,-239.31 773.95,-229.42 754,-221 633.12,-169.99 588.03,-217.81 461,-185 397.43,-168.58 382,-160.51 324,-129.75 296.96,-115.41 268.08,-95.21 249.35,-81.39"/>
<polygon fill="#63b8ff" stroke="#63b8ff" points="251.9,-78.17 241.79,-74.99 247.71,-83.78 251.9,-78.17"/>
</g>
<!-- Node31&#45;&gt;Node19 -->
<g id="edge62" class="edge">
<title>Node31&#45;&gt;Node19</title>
<path fill="none" stroke="#63b8ff" d="M873.54,-359.28C862.89,-349.17 845.34,-332.53 832.23,-320.1"/>
<polygon fill="#63b8ff" stroke="#63b8ff" points="835.04,-317.98 825.37,-313.64 830.22,-323.06 835.04,-317.98"/>
</g>
<!-- Node32 -->
<g id="node32" class="node">
<title>Node32</title>
<g id="a_node32"><a xlink:title=" ">
<polygon fill="#e0e0e0" stroke="#999999" points="940.25,-312.38 901.75,-312.38 901.75,-293.12 940.25,-293.12 940.25,-312.38"/>
<text text-anchor="middle" x="921" y="-298.88" font-family="Helvetica,sans-Serif" font-size="10.00">utility</text>
</a>
</g>
</g>
<!-- Node31&#45;&gt;Node32 -->
<g id="edge63" class="edge">
<title>Node31&#45;&gt;Node32</title>
<path fill="none" stroke="#63b8ff" d="M888.28,-359.28C893.96,-349.65 903.12,-334.1 910.31,-321.9"/>
<polygon fill="#63b8ff" stroke="#63b8ff" points="913.7,-324.03 915.76,-313.64 907.67,-320.48 913.7,-324.03"/>
</g>
</g>
</svg>
