<?xml version="1.0" encoding="UTF-8" standalone="no"?>
<!DOCTYPE svg PUBLIC "-//W3C//DTD SVG 1.1//EN"
 "http://www.w3.org/Graphics/SVG/1.1/DTD/svg11.dtd">
<!-- Generated by graphviz version 8.0.5 (20230430.1635)
 -->
<!-- Title: include/v8&#45;handle&#45;base.h Pages: 1 -->
<svg width="3011pt" height="946pt"
 viewBox="0.00 0.00 3010.62 946.00" xmlns="http://www.w3.org/2000/svg" xmlns:xlink="http://www.w3.org/1999/xlink">
<g id="graph0" class="graph" transform="scale(1 1) rotate(0) translate(4 942)">
<title>include/v8&#45;handle&#45;base.h</title>
<!-- Node1 -->
<g id="node1" class="node">
<title>Node1</title>
<g id="a_node1"><a xlink:title=" ">
<polygon fill="#999999" stroke="#666666" points="1329.62,-938 1206.38,-938 1206.38,-918.75 1329.62,-918.75 1329.62,-938"/>
<text text-anchor="middle" x="1268" y="-924.5" font-family="Helvetica,sans-Serif" font-size="10.00">include/v8&#45;handle&#45;base.h</text>
</a>
</g>
</g>
<!-- Node2 -->
<g id="node2" class="node">
<title>Node2</title>
<g id="a_node2"><a xlink:href="v8-local-handle_8h.html" target="_top" xlink:title=" ">
<polygon fill="white" stroke="#666666" points="1329.25,-882.75 1206.75,-882.75 1206.75,-863.5 1329.25,-863.5 1329.25,-882.75"/>
<text text-anchor="middle" x="1268" y="-869.25" font-family="Helvetica,sans-Serif" font-size="10.00">include/v8&#45;local&#45;handle.h</text>
</a>
</g>
</g>
<!-- Node1&#45;&gt;Node2 -->
<g id="edge1" class="edge">
<title>Node1&#45;&gt;Node2</title>
<path fill="none" stroke="#63b8ff" d="M1268,-907.71C1268,-899.27 1268,-889.83 1268,-883.11"/>
<polygon fill="#63b8ff" stroke="#63b8ff" points="1264.5,-907.58 1268,-917.58 1271.5,-907.58 1264.5,-907.58"/>
</g>
<!-- Node3 -->
<g id="node3" class="node">
<title>Node3</title>
<g id="a_node3"><a xlink:href="v8-array-buffer_8h.html" target="_top" xlink:title=" ">
<polygon fill="white" stroke="#666666" points="1080.38,-567.12 961.62,-567.12 961.62,-547.88 1080.38,-547.88 1080.38,-567.12"/>
<text text-anchor="middle" x="1021" y="-553.62" font-family="Helvetica,sans-Serif" font-size="10.00">include/v8&#45;array&#45;buffer.h</text>
</a>
</g>
</g>
<!-- Node2&#45;&gt;Node3 -->
<g id="edge2" class="edge">
<title>Node2&#45;&gt;Node3</title>
<path fill="none" stroke="#63b8ff" d="M1195.73,-863.78C1087.53,-849.23 896,-814.69 896,-752.38 896,-752.38 896,-752.38 896,-689.5 896,-628.99 966.68,-585.41 1001.74,-567.51"/>
<polygon fill="#63b8ff" stroke="#63b8ff" points="1195.2,-867.37 1205.57,-865.2 1196.11,-860.43 1195.2,-867.37"/>
</g>
<!-- Node4 -->
<g id="node4" class="node">
<title>Node4</title>
<g id="a_node4"><a xlink:href="v8-isolate_8h.html" target="_top" xlink:title=" ">
<polygon fill="white" stroke="#666666" points="1217.62,-268.38 1118.38,-268.38 1118.38,-249.12 1217.62,-249.12 1217.62,-268.38"/>
<text text-anchor="middle" x="1168" y="-254.88" font-family="Helvetica,sans-Serif" font-size="10.00">include/v8&#45;isolate.h</text>
</a>
</g>
</g>
<!-- Node2&#45;&gt;Node4 -->
<g id="edge105" class="edge">
<title>Node2&#45;&gt;Node4</title>
<path fill="none" stroke="#63b8ff" d="M1195.89,-867.75C1069.21,-858.06 820,-829.23 820,-752.38 820,-752.38 820,-752.38 820,-623 820,-572.78 1100.9,-319.59 1157.96,-268.68"/>
<polygon fill="#63b8ff" stroke="#63b8ff" points="1195.42,-871.29 1205.65,-868.54 1195.93,-864.31 1195.42,-871.29"/>
</g>
<!-- Node7 -->
<g id="node7" class="node">
<title>Node7</title>
<g id="a_node7"><a xlink:href="v8_8h.html" target="_top" xlink:title=" ">
<polygon fill="white" stroke="#666666" points="1399.88,-19.25 1332.12,-19.25 1332.12,0 1399.88,0 1399.88,-19.25"/>
<text text-anchor="middle" x="1366" y="-5.75" font-family="Helvetica,sans-Serif" font-size="10.00">include/v8.h</text>
</a>
</g>
</g>
<!-- Node2&#45;&gt;Node7 -->
<g id="edge139" class="edge">
<title>Node2&#45;&gt;Node7</title>
<path fill="none" stroke="#63b8ff" d="M1195.78,-871.4C940.54,-868.61 93.57,-857.13 44,-827.5 10.79,-807.65 0,-791.07 0,-752.38 0,-752.38 0,-752.38 0,-124.75 0,-64.27 58.97,-72.31 117,-55.25 236.31,-20.18 1143.55,-12.14 1331.85,-10.84"/>
<polygon fill="#63b8ff" stroke="#63b8ff" points="1195.37,-874.91 1205.41,-871.52 1195.45,-867.91 1195.37,-874.91"/>
</g>
<!-- Node8 -->
<g id="node8" class="node">
<title>Node8</title>
<g id="a_node8"><a xlink:href="v8-inspector_8h.html" target="_top" xlink:title=" ">
<polygon fill="white" stroke="#666666" points="480.25,-201.88 369.75,-201.88 369.75,-182.62 480.25,-182.62 480.25,-201.88"/>
<text text-anchor="middle" x="425" y="-188.38" font-family="Helvetica,sans-Serif" font-size="10.00">include/v8&#45;inspector.h</text>
</a>
</g>
</g>
<!-- Node2&#45;&gt;Node8 -->
<g id="edge104" class="edge">
<title>Node2&#45;&gt;Node8</title>
<path fill="none" stroke="#63b8ff" d="M1195.84,-871.1C956.83,-867.47 203.57,-853.96 159,-827.5 125.53,-807.63 114,-791.3 114,-752.38 114,-752.38 114,-752.38 114,-434.75 114,-359.9 341.6,-236.38 407.39,-202.24"/>
<polygon fill="#63b8ff" stroke="#63b8ff" points="1195.44,-874.61 1205.5,-871.26 1195.55,-867.61 1195.44,-874.61"/>
</g>
<!-- Node10 -->
<g id="node10" class="node">
<title>Node10</title>
<g id="a_node10"><a xlink:href="v8-metrics_8h.html" target="_top" xlink:title=" ">
<polygon fill="white" stroke="#666666" points="601.5,-201.88 498.5,-201.88 498.5,-182.62 601.5,-182.62 601.5,-201.88"/>
<text text-anchor="middle" x="550" y="-188.38" font-family="Helvetica,sans-Serif" font-size="10.00">include/v8&#45;metrics.h</text>
</a>
</g>
</g>
<!-- Node2&#45;&gt;Node10 -->
<g id="edge108" class="edge">
<title>Node2&#45;&gt;Node10</title>
<path fill="none" stroke="#63b8ff" d="M1195.65,-870.97C962.11,-867 240.94,-852.75 198,-827.5 164.25,-807.66 152,-791.53 152,-752.38 152,-752.38 152,-752.38 152,-434.75 152,-399.33 163.31,-387.33 191,-365.25 235.2,-330 261.02,-351.47 313,-329.25 336.34,-319.27 486.27,-230.94 534.84,-202.23"/>
<polygon fill="#63b8ff" stroke="#63b8ff" points="1195.34,-874.48 1205.4,-871.15 1195.46,-867.48 1195.34,-874.48"/>
</g>
<!-- Node11 -->
<g id="node11" class="node">
<title>Node11</title>
<g id="a_node11"><a xlink:href="v8-snapshot_8h.html" target="_top" xlink:title=" ">
<polygon fill="white" stroke="#666666" points="730.25,-201.88 619.75,-201.88 619.75,-182.62 730.25,-182.62 730.25,-201.88"/>
<text text-anchor="middle" x="675" y="-188.38" font-family="Helvetica,sans-Serif" font-size="10.00">include/v8&#45;snapshot.h</text>
</a>
</g>
</g>
<!-- Node2&#45;&gt;Node11 -->
<g id="edge125" class="edge">
<title>Node2&#45;&gt;Node11</title>
<path fill="none" stroke="#63b8ff" d="M1195.69,-870.82C968.16,-866.46 279.39,-851.35 238,-827.5 203.67,-807.72 190,-792 190,-752.38 190,-752.38 190,-752.38 190,-434.75 190,-402.73 186.15,-387.68 209,-365.25 255.46,-319.64 289.26,-349.91 351,-329.25 470.18,-289.38 607.35,-225.61 656.39,-202.22"/>
<polygon fill="#63b8ff" stroke="#63b8ff" points="1195.43,-874.33 1205.5,-871.02 1195.57,-867.33 1195.43,-874.33"/>
</g>
<!-- Node12 -->
<g id="node12" class="node">
<title>Node12</title>
<g id="a_node12"><a xlink:href="v8-context_8h.html" target="_top" xlink:title=" ">
<polygon fill="white" stroke="#666666" points="462.12,-135.38 359.88,-135.38 359.88,-116.12 462.12,-116.12 462.12,-135.38"/>
<text text-anchor="middle" x="411" y="-121.88" font-family="Helvetica,sans-Serif" font-size="10.00">include/v8&#45;context.h</text>
</a>
</g>
</g>
<!-- Node2&#45;&gt;Node12 -->
<g id="edge39" class="edge">
<title>Node2&#45;&gt;Node12</title>
<path fill="none" stroke="#63b8ff" d="M1195.41,-871.22C950.32,-867.9 166.15,-855.16 120,-827.5 86.81,-807.61 76,-791.07 76,-752.38 76,-752.38 76,-752.38 76,-373.88 76,-333.49 331.34,-175.26 396.17,-135.73"/>
<polygon fill="#63b8ff" stroke="#63b8ff" points="1195.28,-874.73 1205.32,-871.36 1195.37,-867.73 1195.28,-874.73"/>
</g>
<!-- Node13 -->
<g id="node13" class="node">
<title>Node13</title>
<g id="a_node13"><a xlink:href="v8-proxy_8h.html" target="_top" xlink:title=" ">
<polygon fill="white" stroke="#666666" points="495.62,-74.5 402.38,-74.5 402.38,-55.25 495.62,-55.25 495.62,-74.5"/>
<text text-anchor="middle" x="449" y="-61" font-family="Helvetica,sans-Serif" font-size="10.00">include/v8&#45;proxy.h</text>
</a>
</g>
</g>
<!-- Node2&#45;&gt;Node13 -->
<g id="edge122" class="edge">
<title>Node2&#45;&gt;Node13</title>
<path fill="none" stroke="#63b8ff" d="M1195.6,-871.29C945.56,-868.18 130.95,-855.88 83,-827.5 49.51,-807.68 38,-791.3 38,-752.38 38,-752.38 38,-752.38 38,-373.88 38,-188.85 308.02,-101.42 410.33,-74.93"/>
<polygon fill="#63b8ff" stroke="#63b8ff" points="1195.33,-874.8 1205.38,-871.43 1195.42,-867.8 1195.33,-874.8"/>
</g>
<!-- Node14 -->
<g id="node14" class="node">
<title>Node14</title>
<g id="a_node14"><a xlink:href="v8-typed-array_8h.html" target="_top" xlink:title=" ">
<polygon fill="white" stroke="#666666" points="564,-506.25 446,-506.25 446,-487 564,-487 564,-506.25"/>
<text text-anchor="middle" x="505" y="-492.75" font-family="Helvetica,sans-Serif" font-size="10.00">include/v8&#45;typed&#45;array.h</text>
</a>
</g>
</g>
<!-- Node2&#45;&gt;Node14 -->
<g id="edge134" class="edge">
<title>Node2&#45;&gt;Node14</title>
<path fill="none" stroke="#63b8ff" d="M1195.55,-872.5C1015.05,-872.79 555.96,-869.37 502,-827.5 474.31,-806.01 478,-787.43 478,-752.38 478,-752.38 478,-752.38 478,-623 478,-578.47 494.48,-526.99 501.69,-506.61"/>
<polygon fill="#63b8ff" stroke="#63b8ff" points="1195.52,-876 1205.51,-872.48 1195.5,-869 1195.52,-876"/>
</g>
<!-- Node15 -->
<g id="node15" class="node">
<title>Node15</title>
<g id="a_node15"><a xlink:href="v8-fast-api-calls_8h.html" target="_top" xlink:title=" ">
<polygon fill="white" stroke="#666666" points="465.75,-451 370.25,-451 370.25,-420.5 465.75,-420.5 465.75,-451"/>
<text text-anchor="start" x="378.25" y="-437.5" font-family="Helvetica,sans-Serif" font-size="10.00">include/v8&#45;fast&#45;api</text>
<text text-anchor="middle" x="418" y="-426.25" font-family="Helvetica,sans-Serif" font-size="10.00">&#45;calls.h</text>
</a>
</g>
</g>
<!-- Node2&#45;&gt;Node15 -->
<g id="edge100" class="edge">
<title>Node2&#45;&gt;Node15</title>
<path fill="none" stroke="#63b8ff" d="M1195.66,-870.49C1013.05,-866.02 543.21,-852.25 477,-827.5 425.92,-808.41 380,-806.9 380,-752.38 380,-752.38 380,-752.38 380,-556.5 380,-517.02 399,-473.51 410.13,-451.4"/>
<polygon fill="#63b8ff" stroke="#63b8ff" points="1195.41,-874.01 1205.49,-870.75 1195.58,-867.01 1195.41,-874.01"/>
</g>
<!-- Node16 -->
<g id="node16" class="node">
<title>Node16</title>
<g id="a_node16"><a xlink:href="v8-callbacks_8h.html" target="_top" xlink:title=" ">
<polygon fill="white" stroke="#666666" points="808,-506.25 696,-506.25 696,-487 808,-487 808,-506.25"/>
<text text-anchor="middle" x="752" y="-492.75" font-family="Helvetica,sans-Serif" font-size="10.00">include/v8&#45;callbacks.h</text>
</a>
</g>
</g>
<!-- Node2&#45;&gt;Node16 -->
<g id="edge21" class="edge">
<title>Node2&#45;&gt;Node16</title>
<path fill="none" stroke="#63b8ff" d="M1195.67,-871.87C1048.77,-870.6 726.48,-863.68 693,-827.5 604.09,-731.42 717.04,-549.41 745.7,-506.74"/>
<polygon fill="#63b8ff" stroke="#63b8ff" points="1195.33,-875.38 1205.36,-871.96 1195.39,-868.38 1195.33,-875.38"/>
</g>
<!-- Node17 -->
<g id="node17" class="node">
<title>Node17</title>
<g id="a_node17"><a xlink:href="v8-message_8h.html" target="_top" xlink:title=" ">
<polygon fill="white" stroke="#666666" points="807.25,-445.38 696.75,-445.38 696.75,-426.12 807.25,-426.12 807.25,-445.38"/>
<text text-anchor="middle" x="752" y="-431.88" font-family="Helvetica,sans-Serif" font-size="10.00">include/v8&#45;message.h</text>
</a>
</g>
</g>
<!-- Node2&#45;&gt;Node17 -->
<g id="edge107" class="edge">
<title>Node2&#45;&gt;Node17</title>
<path fill="none" stroke="#63b8ff" d="M1195.46,-871.57C1044.55,-869.72 707.59,-861.76 669,-827.5 600.05,-766.29 681.85,-495.73 687,-487 697.94,-468.45 718.59,-454.3 733.69,-445.81"/>
<polygon fill="#63b8ff" stroke="#63b8ff" points="1195.39,-875.08 1205.43,-871.69 1195.47,-868.08 1195.39,-875.08"/>
</g>
<!-- Node18 -->
<g id="node18" class="node">
<title>Node18</title>
<g id="a_node18"><a xlink:href="v8-function_8h.html" target="_top" xlink:title=" ">
<polygon fill="white" stroke="#666666" points="1667.62,-384.5 1562.38,-384.5 1562.38,-365.25 1667.62,-365.25 1667.62,-384.5"/>
<text text-anchor="middle" x="1615" y="-371" font-family="Helvetica,sans-Serif" font-size="10.00">include/v8&#45;function.h</text>
</a>
</g>
</g>
<!-- Node2&#45;&gt;Node18 -->
<g id="edge103" class="edge">
<title>Node2&#45;&gt;Node18</title>
<path fill="none" stroke="#63b8ff" d="M1340.44,-872.67C1512.53,-873.25 1941.64,-870.2 2078,-827.5 2138.77,-808.47 2200,-816.05 2200,-752.38 2200,-752.38 2200,-752.38 2200,-623 2200,-586.13 2207.67,-567.7 2181,-542.25 2117.88,-482.01 2072.32,-528.71 1988,-506.25 1851.78,-469.96 1693.9,-407.92 1636.92,-384.86"/>
<polygon fill="#63b8ff" stroke="#63b8ff" points="1340.5,-869.17 1330.48,-872.63 1340.47,-876.17 1340.5,-869.17"/>
</g>
<!-- Node19 -->
<g id="node19" class="node">
<title>Node19</title>
<g id="a_node19"><a xlink:href="v8-json_8h.html" target="_top" xlink:title=" ">
<polygon fill="white" stroke="#666666" points="306.38,-384.5 217.62,-384.5 217.62,-365.25 306.38,-365.25 306.38,-384.5"/>
<text text-anchor="middle" x="262" y="-371" font-family="Helvetica,sans-Serif" font-size="10.00">include/v8&#45;json.h</text>
</a>
</g>
</g>
<!-- Node2&#45;&gt;Node19 -->
<g id="edge106" class="edge">
<title>Node2&#45;&gt;Node19</title>
<path fill="none" stroke="#63b8ff" d="M1195.76,-872.43C982.03,-872.82 362.71,-870.23 283,-827.5 246.53,-807.95 228,-793.76 228,-752.38 228,-752.38 228,-752.38 228,-495.62 228,-452.83 248.34,-404.6 257.56,-384.94"/>
<polygon fill="#63b8ff" stroke="#63b8ff" points="1195.54,-875.92 1205.54,-872.4 1195.53,-868.92 1195.54,-875.92"/>
</g>
<!-- Node20 -->
<g id="node20" class="node">
<title>Node20</title>
<g id="a_node20"><a xlink:href="v8-profiler_8h.html" target="_top" xlink:title=" ">
<polygon fill="white" stroke="#666666" points="820.62,-384.5 721.38,-384.5 721.38,-365.25 820.62,-365.25 820.62,-384.5"/>
<text text-anchor="middle" x="771" y="-371" font-family="Helvetica,sans-Serif" font-size="10.00">include/v8&#45;profiler.h</text>
</a>
</g>
</g>
<!-- Node2&#45;&gt;Node20 -->
<g id="edge120" class="edge">
<title>Node2&#45;&gt;Node20</title>
<path fill="none" stroke="#63b8ff" d="M1195.56,-871.92C999.31,-870.87 467.43,-864.6 398,-827.5 361.27,-807.87 342,-794.02 342,-752.38 342,-752.38 342,-752.38 342,-495.62 342,-461.18 335.01,-443.1 361,-420.5 367.74,-414.64 612.97,-390.81 720.89,-380.58"/>
<polygon fill="#63b8ff" stroke="#63b8ff" points="1195.31,-875.42 1205.33,-871.97 1195.35,-868.42 1195.31,-875.42"/>
</g>
<!-- Node21 -->
<g id="node21" class="node">
<title>Node21</title>
<g id="a_node21"><a xlink:href="v8-script_8h.html" target="_top" xlink:title=" ">
<polygon fill="white" stroke="#666666" points="665.38,-384.5 570.62,-384.5 570.62,-365.25 665.38,-365.25 665.38,-384.5"/>
<text text-anchor="middle" x="618" y="-371" font-family="Helvetica,sans-Serif" font-size="10.00">include/v8&#45;script.h</text>
</a>
</g>
</g>
<!-- Node2&#45;&gt;Node21 -->
<g id="edge124" class="edge">
<title>Node2&#45;&gt;Node21</title>
<path fill="none" stroke="#63b8ff" d="M1195.76,-871.3C993.33,-868.61 430.3,-858.42 353,-827.5 305.57,-808.53 266,-803.46 266,-752.38 266,-752.38 266,-752.38 266,-556.5 266,-487.9 283.1,-460.27 339,-420.5 375.32,-394.66 500.7,-383.02 570.37,-378.44"/>
<polygon fill="#63b8ff" stroke="#63b8ff" points="1195.52,-874.81 1205.56,-871.44 1195.61,-867.81 1195.52,-874.81"/>
</g>
<!-- Node23 -->
<g id="node23" class="node">
<title>Node23</title>
<g id="a_node23"><a xlink:href="v8-container_8h.html" target="_top" xlink:title=" ">
<polygon fill="white" stroke="#666666" points="2004.25,-567.12 1893.75,-567.12 1893.75,-547.88 2004.25,-547.88 2004.25,-567.12"/>
<text text-anchor="middle" x="1949" y="-553.62" font-family="Helvetica,sans-Serif" font-size="10.00">include/v8&#45;container.h</text>
</a>
</g>
</g>
<!-- Node2&#45;&gt;Node23 -->
<g id="edge37" class="edge">
<title>Node2&#45;&gt;Node23</title>
<path fill="none" stroke="#63b8ff" d="M1340.43,-866.51C1511.82,-852.26 1928,-811.56 1928,-752.38 1928,-752.38 1928,-752.38 1928,-689.5 1928,-642.97 1941.08,-588.31 1946.59,-567.32"/>
<polygon fill="#63b8ff" stroke="#63b8ff" points="1340.18,-863.1 1330.5,-867.41 1340.75,-870.08 1340.18,-863.1"/>
</g>
<!-- Node24 -->
<g id="node24" class="node">
<title>Node24</title>
<g id="a_node24"><a xlink:href="v8-data_8h.html" target="_top" xlink:title=" ">
<polygon fill="white" stroke="#666666" points="791.75,-821.88 702.25,-821.88 702.25,-802.62 791.75,-802.62 791.75,-821.88"/>
<text text-anchor="middle" x="747" y="-808.38" font-family="Helvetica,sans-Serif" font-size="10.00">include/v8&#45;data.h</text>
</a>
</g>
</g>
<!-- Node2&#45;&gt;Node24 -->
<g id="edge40" class="edge">
<title>Node2&#45;&gt;Node24</title>
<path fill="none" stroke="#63b8ff" d="M1195.58,-868.29C1104.27,-862.73 942.69,-850.49 806,-827.5 797.89,-826.14 789.25,-824.28 781.15,-822.36"/>
<polygon fill="#63b8ff" stroke="#63b8ff" points="1195.17,-871.83 1205.36,-868.94 1195.59,-864.84 1195.17,-871.83"/>
</g>
<!-- Node25 -->
<g id="node25" class="node">
<title>Node25</title>
<g id="a_node25"><a xlink:href="v8-primitive_8h.html" target="_top" xlink:title=" ">
<polygon fill="white" stroke="#666666" points="1237.75,-700.12 1130.25,-700.12 1130.25,-680.88 1237.75,-680.88 1237.75,-700.12"/>
<text text-anchor="middle" x="1184" y="-686.62" font-family="Helvetica,sans-Serif" font-size="10.00">include/v8&#45;primitive.h</text>
</a>
</g>
</g>
<!-- Node2&#45;&gt;Node25 -->
<g id="edge119" class="edge">
<title>Node2&#45;&gt;Node25</title>
<path fill="none" stroke="#63b8ff" d="M1259.38,-853.59C1241.58,-815.31 1201.31,-728.73 1188.21,-700.55"/>
<polygon fill="#63b8ff" stroke="#63b8ff" points="1256.56,-854.82 1263.95,-862.41 1262.91,-851.87 1256.56,-854.82"/>
</g>
<!-- Node26 -->
<g id="node26" class="node">
<title>Node26</title>
<g id="a_node26"><a xlink:href="v8-extension_8h.html" target="_top" xlink:title=" ">
<polygon fill="white" stroke="#666666" points="1324,-633.62 1212,-633.62 1212,-614.38 1324,-614.38 1324,-633.62"/>
<text text-anchor="middle" x="1268" y="-620.12" font-family="Helvetica,sans-Serif" font-size="10.00">include/v8&#45;extension.h</text>
</a>
</g>
</g>
<!-- Node2&#45;&gt;Node26 -->
<g id="edge99" class="edge">
<title>Node2&#45;&gt;Node26</title>
<path fill="none" stroke="#63b8ff" d="M1268,-852.3C1268,-801.73 1268,-669.47 1268,-633.91"/>
<polygon fill="#63b8ff" stroke="#63b8ff" points="1264.5,-852.04 1268,-862.04 1271.5,-852.04 1264.5,-852.04"/>
</g>
<!-- Node27 -->
<g id="node27" class="node">
<title>Node27</title>
<g id="a_node27"><a xlink:href="v8-function-callback_8h.html" target="_top" xlink:title=" ">
<polygon fill="white" stroke="#666666" points="1553.88,-639.25 1456.12,-639.25 1456.12,-608.75 1553.88,-608.75 1553.88,-639.25"/>
<text text-anchor="start" x="1464.12" y="-625.75" font-family="Helvetica,sans-Serif" font-size="10.00">include/v8&#45;function</text>
<text text-anchor="middle" x="1505" y="-614.5" font-family="Helvetica,sans-Serif" font-size="10.00">&#45;callback.h</text>
</a>
</g>
</g>
<!-- Node2&#45;&gt;Node27 -->
<g id="edge102" class="edge">
<title>Node2&#45;&gt;Node27</title>
<path fill="none" stroke="#63b8ff" d="M1338.72,-860.22C1361.54,-853.6 1385.66,-843.35 1404,-827.5 1464.94,-774.84 1493.05,-676.67 1501.83,-639.64"/>
<polygon fill="#63b8ff" stroke="#63b8ff" points="1338.1,-857.03 1329.35,-863.01 1339.92,-863.79 1338.1,-857.03"/>
</g>
<!-- Node28 -->
<g id="node28" class="node">
<title>Node28</title>
<g id="a_node28"><a xlink:href="v8-template_8h.html" target="_top" xlink:title=" ">
<polygon fill="white" stroke="#666666" points="1746.12,-506.25 1637.88,-506.25 1637.88,-487 1746.12,-487 1746.12,-506.25"/>
<text text-anchor="middle" x="1692" y="-492.75" font-family="Helvetica,sans-Serif" font-size="10.00">include/v8&#45;template.h</text>
</a>
</g>
</g>
<!-- Node2&#45;&gt;Node28 -->
<g id="edge127" class="edge">
<title>Node2&#45;&gt;Node28</title>
<path fill="none" stroke="#63b8ff" d="M1340.29,-868.33C1530.79,-857.39 2032,-821.97 2032,-752.38 2032,-752.38 2032,-752.38 2032,-623 2032,-586.13 2040.25,-567.08 2013,-542.25 1993.66,-524.63 1832.97,-509.06 1746.54,-501.86"/>
<polygon fill="#63b8ff" stroke="#63b8ff" points="1340.34,-864.88 1330.55,-868.94 1340.73,-871.87 1340.34,-864.88"/>
</g>
<!-- Node30 -->
<g id="node30" class="node">
<title>Node30</title>
<g id="a_node30"><a xlink:href="v8-object_8h.html" target="_top" xlink:title=" ">
<polygon fill="white" stroke="#666666" points="1877.5,-633.62 1780.5,-633.62 1780.5,-614.38 1877.5,-614.38 1877.5,-633.62"/>
<text text-anchor="middle" x="1829" y="-620.12" font-family="Helvetica,sans-Serif" font-size="10.00">include/v8&#45;object.h</text>
</a>
</g>
</g>
<!-- Node2&#45;&gt;Node30 -->
<g id="edge111" class="edge">
<title>Node2&#45;&gt;Node30</title>
<path fill="none" stroke="#63b8ff" d="M1340.44,-865.64C1391.04,-859.55 1459.54,-848.17 1517,-827.5 1620.7,-790.2 1642.44,-768.55 1733,-705.75 1766.83,-682.29 1803.03,-649.46 1819.67,-633.88"/>
<polygon fill="#63b8ff" stroke="#63b8ff" points="1340.14,-862.26 1330.61,-866.89 1340.94,-869.22 1340.14,-862.26"/>
</g>
<!-- Node31 -->
<g id="node31" class="node">
<title>Node31</title>
<g id="a_node31"><a xlink:href="v8-date_8h.html" target="_top" xlink:title=" ">
<polygon fill="white" stroke="#666666" points="2317.75,-567.12 2228.25,-567.12 2228.25,-547.88 2317.75,-547.88 2317.75,-567.12"/>
<text text-anchor="middle" x="2273" y="-553.62" font-family="Helvetica,sans-Serif" font-size="10.00">include/v8&#45;date.h</text>
</a>
</g>
</g>
<!-- Node2&#45;&gt;Node31 -->
<g id="edge93" class="edge">
<title>Node2&#45;&gt;Node31</title>
<path fill="none" stroke="#63b8ff" d="M1340.47,-870.95C1555.89,-867.17 2179.5,-853.97 2214,-827.5 2241.81,-806.17 2238,-787.43 2238,-752.38 2238,-752.38 2238,-752.38 2238,-689.5 2238,-642.18 2259.58,-588.41 2268.85,-567.49"/>
<polygon fill="#63b8ff" stroke="#63b8ff" points="1340.55,-867.47 1330.61,-871.14 1340.67,-874.47 1340.55,-867.47"/>
</g>
<!-- Node32 -->
<g id="node32" class="node">
<title>Node32</title>
<g id="a_node32"><a xlink:href="v8-exception_8h.html" target="_top" xlink:title=" ">
<polygon fill="white" stroke="#666666" points="2172,-567.12 2060,-567.12 2060,-547.88 2172,-547.88 2172,-567.12"/>
<text text-anchor="middle" x="2116" y="-553.62" font-family="Helvetica,sans-Serif" font-size="10.00">include/v8&#45;exception.h</text>
</a>
</g>
</g>
<!-- Node2&#45;&gt;Node32 -->
<g id="edge98" class="edge">
<title>Node2&#45;&gt;Node32</title>
<path fill="none" stroke="#63b8ff" d="M1340.41,-871.73C1521.95,-870.21 1986.25,-862.87 2046,-827.5 2079.89,-807.44 2093,-791.76 2093,-752.38 2093,-752.38 2093,-752.38 2093,-689.5 2093,-643.09 2107.18,-588.8 2113.27,-567.61"/>
<polygon fill="#63b8ff" stroke="#63b8ff" points="1340.62,-868.24 1330.65,-871.82 1340.67,-875.24 1340.62,-868.24"/>
</g>
<!-- Node33 -->
<g id="node33" class="node">
<title>Node33</title>
<g id="a_node33"><a xlink:href="v8-primitive-object_8h.html" target="_top" xlink:title=" ">
<polygon fill="white" stroke="#666666" points="2436,-572.75 2336,-572.75 2336,-542.25 2436,-542.25 2436,-572.75"/>
<text text-anchor="start" x="2344" y="-559.25" font-family="Helvetica,sans-Serif" font-size="10.00">include/v8&#45;primitive</text>
<text text-anchor="middle" x="2386" y="-548" font-family="Helvetica,sans-Serif" font-size="10.00">&#45;object.h</text>
</a>
</g>
</g>
<!-- Node2&#45;&gt;Node33 -->
<g id="edge118" class="edge">
<title>Node2&#45;&gt;Node33</title>
<path fill="none" stroke="#63b8ff" d="M1340.27,-870.78C1558.87,-866.47 2200.46,-851.79 2238,-827.5 2269.42,-807.18 2276,-789.79 2276,-752.38 2276,-752.38 2276,-752.38 2276,-689.5 2276,-652.06 2276.88,-638.2 2300,-608.75 2312.28,-593.11 2330.88,-581.38 2347.65,-573.2"/>
<polygon fill="#63b8ff" stroke="#63b8ff" points="1340.49,-867.3 1330.56,-870.99 1340.63,-874.3 1340.49,-867.3"/>
</g>
<!-- Node34 -->
<g id="node34" class="node">
<title>Node34</title>
<g id="a_node34"><a xlink:href="v8-promise_8h.html" target="_top" xlink:title=" ">
<polygon fill="white" stroke="#666666" points="1431.62,-567.12 1326.38,-567.12 1326.38,-547.88 1431.62,-547.88 1431.62,-567.12"/>
<text text-anchor="middle" x="1379" y="-553.62" font-family="Helvetica,sans-Serif" font-size="10.00">include/v8&#45;promise.h</text>
</a>
</g>
</g>
<!-- Node2&#45;&gt;Node34 -->
<g id="edge121" class="edge">
<title>Node2&#45;&gt;Node34</title>
<path fill="none" stroke="#63b8ff" d="M1315.87,-859.41C1333.72,-852.54 1352.82,-842.34 1366,-827.5 1389.28,-801.3 1390,-787.43 1390,-752.38 1390,-752.38 1390,-752.38 1390,-689.5 1390,-643.4 1383.15,-588.49 1380.26,-567.37"/>
<polygon fill="#63b8ff" stroke="#63b8ff" points="1314.81,-856.42 1306.56,-863.07 1317.16,-863.02 1314.81,-856.42"/>
</g>
<!-- Node35 -->
<g id="node35" class="node">
<title>Node35</title>
<g id="a_node35"><a xlink:href="v8-statistics_8h.html" target="_top" xlink:title=" ">
<polygon fill="white" stroke="#666666" points="1430.25,-329.25 1319.75,-329.25 1319.75,-310 1430.25,-310 1430.25,-329.25"/>
<text text-anchor="middle" x="1375" y="-315.75" font-family="Helvetica,sans-Serif" font-size="10.00">include/v8&#45;statistics.h</text>
</a>
</g>
</g>
<!-- Node2&#45;&gt;Node35 -->
<g id="edge126" class="edge">
<title>Node2&#45;&gt;Node35</title>
<path fill="none" stroke="#63b8ff" d="M1288.86,-856.3C1313.74,-835.45 1352,-796.25 1352,-752.38 1352,-752.38 1352,-752.38 1352,-689.5 1352,-652.63 1344.76,-643.69 1333,-608.75 1327.41,-592.16 1320.63,-589.88 1317,-572.75 1314.19,-559.49 1315.27,-555.69 1317,-542.25 1327.86,-457.83 1361.09,-359.68 1371.71,-329.75"/>
<polygon fill="#63b8ff" stroke="#63b8ff" points="1286.98,-854.12 1281.39,-863.12 1291.38,-859.57 1286.98,-854.12"/>
</g>
<!-- Node36 -->
<g id="node36" class="node">
<title>Node36</title>
<g id="a_node36"><a xlink:href="v8-regexp_8h.html" target="_top" xlink:title=" ">
<polygon fill="white" stroke="#666666" points="2553.62,-567.12 2454.38,-567.12 2454.38,-547.88 2553.62,-547.88 2553.62,-567.12"/>
<text text-anchor="middle" x="2504" y="-553.62" font-family="Helvetica,sans-Serif" font-size="10.00">include/v8&#45;regexp.h</text>
</a>
</g>
</g>
<!-- Node2&#45;&gt;Node36 -->
<g id="edge123" class="edge">
<title>Node2&#45;&gt;Node36</title>
<path fill="none" stroke="#63b8ff" d="M1340.66,-872.74C1557.13,-874.04 2187.69,-873.78 2267,-827.5 2301.02,-807.65 2314,-791.76 2314,-752.38 2314,-752.38 2314,-752.38 2314,-689.5 2314,-648.73 2434.06,-590 2483.3,-567.62"/>
<polygon fill="#63b8ff" stroke="#63b8ff" points="1340.77,-869.24 1330.75,-872.67 1340.72,-876.24 1340.77,-869.24"/>
</g>
<!-- Node37 -->
<g id="node37" class="node">
<title>Node37</title>
<g id="a_node37"><a xlink:href="v8-wasm_8h.html" target="_top" xlink:title=" ">
<polygon fill="white" stroke="#666666" points="2668.5,-567.12 2571.5,-567.12 2571.5,-547.88 2668.5,-547.88 2668.5,-567.12"/>
<text text-anchor="middle" x="2620" y="-553.62" font-family="Helvetica,sans-Serif" font-size="10.00">include/v8&#45;wasm.h</text>
</a>
</g>
</g>
<!-- Node2&#45;&gt;Node37 -->
<g id="edge138" class="edge">
<title>Node2&#45;&gt;Node37</title>
<path fill="none" stroke="#63b8ff" d="M1340.07,-871.84C1607.2,-870.5 2528.05,-863.29 2579,-827.5 2608.42,-806.83 2609,-788.33 2609,-752.38 2609,-752.38 2609,-752.38 2609,-689.5 2609,-643.4 2615.85,-588.49 2618.74,-567.37"/>
<polygon fill="#63b8ff" stroke="#63b8ff" points="1340.33,-868.34 1330.35,-871.89 1340.36,-875.34 1340.33,-868.34"/>
</g>
<!-- Node38 -->
<g id="node38" class="node">
<title>Node38</title>
<g id="a_node38"><a xlink:href="v8-value_8h.html" target="_top" xlink:title=" ">
<polygon fill="white" stroke="#666666" points="1122,-761 1028,-761 1028,-741.75 1122,-741.75 1122,-761"/>
<text text-anchor="middle" x="1075" y="-747.5" font-family="Helvetica,sans-Serif" font-size="10.00">include/v8&#45;value.h</text>
</a>
</g>
</g>
<!-- Node2&#45;&gt;Node38 -->
<g id="edge137" class="edge">
<title>Node2&#45;&gt;Node38</title>
<path fill="none" stroke="#63b8ff" d="M1241.69,-857.85C1226.2,-849.31 1206.31,-838.08 1189,-827.5 1151.78,-804.76 1109.17,-775.9 1088.15,-761.46"/>
<polygon fill="#63b8ff" stroke="#63b8ff" points="1239.71,-861.31 1250.16,-863.05 1243.08,-855.17 1239.71,-861.31"/>
</g>
<!-- Node41 -->
<g id="node41" class="node">
<title>Node41</title>
<g id="a_node41"><a xlink:href="v8-embedder-state-scope_8h.html" target="_top" xlink:title=" ">
<polygon fill="white" stroke="#666666" points="2448,-827.5 2342,-827.5 2342,-797 2448,-797 2448,-827.5"/>
<text text-anchor="start" x="2350" y="-814" font-family="Helvetica,sans-Serif" font-size="10.00">include/v8&#45;embedder</text>
<text text-anchor="middle" x="2395" y="-802.75" font-family="Helvetica,sans-Serif" font-size="10.00">&#45;state&#45;scope.h</text>
</a>
</g>
</g>
<!-- Node2&#45;&gt;Node41 -->
<g id="edge94" class="edge">
<title>Node2&#45;&gt;Node41</title>
<path fill="none" stroke="#63b8ff" d="M1340.17,-870.66C1546.49,-866.23 2136.25,-851.75 2328,-827.5 2332.48,-826.93 2337.11,-826.22 2341.74,-825.42"/>
<polygon fill="#63b8ff" stroke="#63b8ff" points="1340.39,-867.18 1330.47,-870.89 1340.54,-874.18 1340.39,-867.18"/>
</g>
<!-- Node43 -->
<g id="node43" class="node">
<title>Node43</title>
<g id="a_node43"><a xlink:href="v8-forward_8h.html" target="_top" xlink:title=" ">
<polygon fill="white" stroke="#666666" points="2569.5,-821.88 2466.5,-821.88 2466.5,-802.62 2569.5,-802.62 2569.5,-821.88"/>
<text text-anchor="middle" x="2518" y="-808.38" font-family="Helvetica,sans-Serif" font-size="10.00">include/v8&#45;forward.h</text>
</a>
</g>
</g>
<!-- Node2&#45;&gt;Node43 -->
<g id="edge101" class="edge">
<title>Node2&#45;&gt;Node43</title>
<path fill="none" stroke="#63b8ff" d="M1340.37,-871.23C1563.58,-868.18 2239.44,-856.72 2457,-827.5 2465.95,-826.3 2475.5,-824.38 2484.34,-822.33"/>
<polygon fill="#63b8ff" stroke="#63b8ff" points="1340.4,-867.74 1330.45,-871.38 1340.5,-874.74 1340.4,-867.74"/>
</g>
<!-- Node44 -->
<g id="node44" class="node">
<title>Node44</title>
<g id="a_node44"><a xlink:href="v8-microtask-queue_8h.html" target="_top" xlink:title=" ">
<polygon fill="white" stroke="#666666" points="2907,-274 2801,-274 2801,-243.5 2907,-243.5 2907,-274"/>
<text text-anchor="start" x="2809" y="-260.5" font-family="Helvetica,sans-Serif" font-size="10.00">include/v8&#45;microtask</text>
<text text-anchor="middle" x="2854" y="-249.25" font-family="Helvetica,sans-Serif" font-size="10.00">&#45;queue.h</text>
</a>
</g>
</g>
<!-- Node2&#45;&gt;Node44 -->
<g id="edge109" class="edge">
<title>Node2&#45;&gt;Node44</title>
<path fill="none" stroke="#63b8ff" d="M1340.28,-871.28C1606.61,-867.96 2524.44,-854.64 2653,-827.5 2740.23,-809.09 2839,-841.53 2839,-752.38 2839,-752.38 2839,-752.38 2839,-373.88 2839,-337.9 2846.42,-296.1 2850.82,-274.44"/>
<polygon fill="#63b8ff" stroke="#63b8ff" points="1340.54,-867.79 1330.58,-871.41 1340.62,-874.79 1340.54,-867.79"/>
</g>
<!-- Node45 -->
<g id="node45" class="node">
<title>Node45</title>
<g id="a_node45"><a xlink:href="v8-persistent-handle_8h.html" target="_top" xlink:title=" ">
<polygon fill="white" stroke="#666666" points="1678,-705.75 1572,-705.75 1572,-675.25 1678,-675.25 1678,-705.75"/>
<text text-anchor="start" x="1580" y="-692.25" font-family="Helvetica,sans-Serif" font-size="10.00">include/v8&#45;persistent</text>
<text text-anchor="middle" x="1625" y="-681" font-family="Helvetica,sans-Serif" font-size="10.00">&#45;handle.h</text>
</a>
</g>
</g>
<!-- Node2&#45;&gt;Node45 -->
<g id="edge112" class="edge">
<title>Node2&#45;&gt;Node45</title>
<path fill="none" stroke="#63b8ff" d="M1340.66,-866.84C1383.47,-861.36 1437.57,-850.2 1481,-827.5 1540.12,-796.59 1592.33,-734.43 1614.16,-706.13"/>
<polygon fill="#63b8ff" stroke="#63b8ff" points="1340.26,-863.48 1330.75,-868.14 1341.09,-870.43 1340.26,-863.48"/>
</g>
<!-- Node46 -->
<g id="node46" class="node">
<title>Node46</title>
<g id="a_node46"><a xlink:href="v8-traced-handle_8h.html" target="_top" xlink:title=" ">
<polygon fill="white" stroke="#666666" points="2766.62,-700.12 2637.38,-700.12 2637.38,-680.88 2766.62,-680.88 2766.62,-700.12"/>
<text text-anchor="middle" x="2702" y="-686.62" font-family="Helvetica,sans-Serif" font-size="10.00">include/v8&#45;traced&#45;handle.h</text>
</a>
</g>
</g>
<!-- Node2&#45;&gt;Node46 -->
<g id="edge128" class="edge">
<title>Node2&#45;&gt;Node46</title>
<path fill="none" stroke="#63b8ff" d="M1340.48,-871.68C1613.55,-869.73 2567.64,-860.59 2623,-827.5 2671.99,-798.22 2693.64,-726.1 2699.94,-700.61"/>
<polygon fill="#63b8ff" stroke="#63b8ff" points="1340.49,-868.18 1330.52,-871.75 1340.54,-875.18 1340.49,-868.18"/>
</g>
<!-- Node49 -->
<g id="node49" class="node">
<title>Node49</title>
<g id="a_node49"><a xlink:href="v8-value-serializer_8h.html" target="_top" xlink:title=" ">
<polygon fill="white" stroke="#666666" points="3002.62,-761 2867.38,-761 2867.38,-741.75 3002.62,-741.75 3002.62,-761"/>
<text text-anchor="middle" x="2935" y="-747.5" font-family="Helvetica,sans-Serif" font-size="10.00">include/v8&#45;value&#45;serializer.h</text>
</a>
</g>
</g>
<!-- Node2&#45;&gt;Node49 -->
<g id="edge135" class="edge">
<title>Node2&#45;&gt;Node49</title>
<path fill="none" stroke="#63b8ff" d="M1340.17,-871.5C1640.92,-868.69 2782.16,-856.2 2853,-827.5 2887.54,-813.51 2916.61,-777.91 2928.82,-761.24"/>
<polygon fill="#63b8ff" stroke="#63b8ff" points="1340.38,-868 1330.41,-871.59 1340.44,-875 1340.38,-868"/>
</g>
<!-- Node3&#45;&gt;Node4 -->
<g id="edge3" class="edge">
<title>Node3&#45;&gt;Node4</title>
<path fill="none" stroke="#63b8ff" d="M1031.39,-538.01C1043.07,-517.07 1062.42,-481.86 1078,-451 1113.07,-381.56 1151.78,-295.97 1164.05,-268.6"/>
<polygon fill="#63b8ff" stroke="#63b8ff" points="1027.88,-536.12 1026.05,-546.56 1033.99,-539.54 1027.88,-536.12"/>
</g>
<!-- Node3&#45;&gt;Node7 -->
<g id="edge20" class="edge">
<title>Node3&#45;&gt;Node7</title>
<path fill="none" stroke="#63b8ff" d="M1012.04,-537.8C986.21,-481.1 916.69,-307.03 970,-177 998.82,-106.7 1022.49,-90.1 1090,-55.25 1131.62,-33.77 1267.36,-19.31 1331.64,-13.5"/>
<polygon fill="#63b8ff" stroke="#63b8ff" points="1009.18,-538.95 1016.58,-546.53 1015.53,-535.99 1009.18,-538.95"/>
</g>
<!-- Node3&#45;&gt;Node14 -->
<g id="edge17" class="edge">
<title>Node3&#45;&gt;Node14</title>
<path fill="none" stroke="#63b8ff" d="M950.45,-548.45C847.98,-536.76 659.8,-515.29 564.16,-504.38"/>
<polygon fill="#63b8ff" stroke="#63b8ff" points="949.97,-552.03 960.3,-549.69 950.77,-545.08 949.97,-552.03"/>
</g>
<!-- Node5 -->
<g id="node5" class="node">
<title>Node5</title>
<g id="a_node5"><a xlink:href="v8-external-memory-accounter_8h.html" target="_top" xlink:title=" ">
<polygon fill="white" stroke="#666666" points="1262.38,-207.5 1155.62,-207.5 1155.62,-177 1262.38,-177 1262.38,-207.5"/>
<text text-anchor="start" x="1163.62" y="-194" font-family="Helvetica,sans-Serif" font-size="10.00">include/v8&#45;external</text>
<text text-anchor="middle" x="1209" y="-182.75" font-family="Helvetica,sans-Serif" font-size="10.00">&#45;memory&#45;accounter.h</text>
</a>
</g>
</g>
<!-- Node4&#45;&gt;Node5 -->
<g id="edge4" class="edge">
<title>Node4&#45;&gt;Node5</title>
<path fill="none" stroke="#63b8ff" d="M1179.52,-239.62C1185.96,-229.49 1193.88,-217.04 1199.88,-207.59"/>
<polygon fill="#63b8ff" stroke="#63b8ff" points="1176.11,-237.46 1173.7,-247.78 1182.02,-241.22 1176.11,-237.46"/>
</g>
<!-- Node6 -->
<g id="node6" class="node">
<title>Node6</title>
<g id="a_node6"><a xlink:href="v8-initialization_8h.html" target="_top" xlink:title=" ">
<polygon fill="white" stroke="#666666" points="1099.5,-201.88 978.5,-201.88 978.5,-182.62 1099.5,-182.62 1099.5,-201.88"/>
<text text-anchor="middle" x="1039" y="-188.38" font-family="Helvetica,sans-Serif" font-size="10.00">include/v8&#45;initialization.h</text>
</a>
</g>
</g>
<!-- Node4&#45;&gt;Node6 -->
<g id="edge5" class="edge">
<title>Node4&#45;&gt;Node6</title>
<path fill="none" stroke="#63b8ff" d="M1140.09,-243.8C1114.94,-231.22 1078.68,-213.09 1057.12,-202.31"/>
<polygon fill="#63b8ff" stroke="#63b8ff" points="1138.28,-247.3 1148.79,-248.65 1141.41,-241.04 1138.28,-247.3"/>
</g>
<!-- Node4&#45;&gt;Node7 -->
<g id="edge16" class="edge">
<title>Node4&#45;&gt;Node7</title>
<path fill="none" stroke="#63b8ff" d="M1213.54,-244.95C1233.74,-237.15 1256.22,-225.18 1271,-207.5 1316.09,-153.54 1276.15,-114.51 1314,-55.25 1323.61,-40.21 1339.81,-27.48 1351.58,-19.51"/>
<polygon fill="#63b8ff" stroke="#63b8ff" points="1212.46,-241.98 1204.24,-248.66 1214.84,-248.57 1212.46,-241.98"/>
</g>
<!-- Node4&#45;&gt;Node8 -->
<g id="edge7" class="edge">
<title>Node4&#45;&gt;Node8</title>
<path fill="none" stroke="#63b8ff" d="M1107.18,-256.21C987.99,-252.53 715.51,-240.92 489,-207.5 479.99,-206.17 470.36,-204.28 461.38,-202.31"/>
<polygon fill="#63b8ff" stroke="#63b8ff" points="1106.79,-259.73 1116.89,-256.53 1107,-252.73 1106.79,-259.73"/>
</g>
<!-- Node4&#45;&gt;Node10 -->
<g id="edge9" class="edge">
<title>Node4&#45;&gt;Node10</title>
<path fill="none" stroke="#63b8ff" d="M1107.39,-255.06C1004.69,-249.87 790.2,-236.37 611,-207.5 602.52,-206.13 593.46,-204.25 584.99,-202.31"/>
<polygon fill="#63b8ff" stroke="#63b8ff" points="1107,-258.59 1117.16,-255.59 1107.34,-251.6 1107,-258.59"/>
</g>
<!-- Node4&#45;&gt;Node11 -->
<g id="edge10" class="edge">
<title>Node4&#45;&gt;Node11</title>
<path fill="none" stroke="#63b8ff" d="M1107.26,-249.8C1010.67,-237.17 823.48,-212.68 730.37,-200.49"/>
<polygon fill="#63b8ff" stroke="#63b8ff" points="1106.65,-253.38 1117.02,-251.21 1107.55,-246.44 1106.65,-253.38"/>
</g>
<!-- Node6&#45;&gt;Node7 -->
<g id="edge6" class="edge">
<title>Node6&#45;&gt;Node7</title>
<path fill="none" stroke="#63b8ff" d="M1043.94,-171.69C1052.64,-141.51 1073.73,-84.06 1114,-55.25 1148.42,-30.62 1271.16,-17.94 1331.71,-13.06"/>
<polygon fill="#63b8ff" stroke="#63b8ff" points="1040.35,-170.57 1041.11,-181.14 1047.1,-172.4 1040.35,-170.57"/>
</g>
<!-- Node9 -->
<g id="node9" class="node">
<title>Node9</title>
<g id="a_node9"><a xlink:href="v8-inspector-protocol_8h.html" target="_top" xlink:title=" ">
<polygon fill="white" stroke="#666666" points="583.5,-141 480.5,-141 480.5,-110.5 583.5,-110.5 583.5,-141"/>
<text text-anchor="start" x="488.5" y="-127.5" font-family="Helvetica,sans-Serif" font-size="10.00">include/v8&#45;inspector</text>
<text text-anchor="middle" x="532" y="-116.25" font-family="Helvetica,sans-Serif" font-size="10.00">&#45;protocol.h</text>
</a>
</g>
</g>
<!-- Node8&#45;&gt;Node9 -->
<g id="edge8" class="edge">
<title>Node8&#45;&gt;Node9</title>
<path fill="none" stroke="#63b8ff" d="M448.91,-176.84C466.45,-166.26 490.18,-151.96 507.8,-141.34"/>
<polygon fill="#63b8ff" stroke="#63b8ff" points="447.64,-174.12 440.88,-182.28 451.25,-180.12 447.64,-174.12"/>
</g>
<!-- Node11&#45;&gt;Node7 -->
<g id="edge15" class="edge">
<title>Node11&#45;&gt;Node7</title>
<path fill="none" stroke="#63b8ff" d="M678.62,-171.68C685.43,-141 703.31,-82.28 744,-55.25 793.09,-22.63 1208.68,-13.22 1331.78,-11.13"/>
<polygon fill="#63b8ff" stroke="#63b8ff" points="675.03,-170.78 676.46,-181.28 681.89,-172.18 675.03,-170.78"/>
</g>
<!-- Node11&#45;&gt;Node12 -->
<g id="edge11" class="edge">
<title>Node11&#45;&gt;Node12</title>
<path fill="none" stroke="#63b8ff" d="M627.22,-179.58C575.75,-167 494.96,-147.26 448.08,-135.81"/>
<polygon fill="#63b8ff" stroke="#63b8ff" points="626.19,-183.17 636.74,-182.15 627.85,-176.37 626.19,-183.17"/>
</g>
<!-- Node12&#45;&gt;Node7 -->
<g id="edge14" class="edge">
<title>Node12&#45;&gt;Node7</title>
<path fill="none" stroke="#63b8ff" d="M447.53,-112.17C496.24,-95.98 585.48,-68.39 664,-55.25 917.84,-12.78 1229.5,-9.99 1331.75,-10.33"/>
<polygon fill="#63b8ff" stroke="#63b8ff" points="446.56,-109.14 438.19,-115.64 448.79,-115.77 446.56,-109.14"/>
</g>
<!-- Node12&#45;&gt;Node13 -->
<g id="edge12" class="edge">
<title>Node12&#45;&gt;Node13</title>
<path fill="none" stroke="#63b8ff" d="M422.69,-106.64C429.48,-96.11 437.74,-83.32 443.17,-74.9"/>
<polygon fill="#63b8ff" stroke="#63b8ff" points="419.25,-104.51 416.77,-114.81 425.13,-108.3 419.25,-104.51"/>
</g>
<!-- Node13&#45;&gt;Node7 -->
<g id="edge13" class="edge">
<title>Node13&#45;&gt;Node7</title>
<path fill="none" stroke="#63b8ff" d="M506.87,-58.57C520.67,-57.39 535.35,-56.21 549,-55.25 852.24,-33.9 1219.41,-17.06 1331.73,-12.11"/>
<polygon fill="#63b8ff" stroke="#63b8ff" points="506.69,-55.16 497.03,-59.51 507.3,-62.13 506.69,-55.16"/>
</g>
<!-- Node14&#45;&gt;Node7 -->
<g id="edge19" class="edge">
<title>Node14&#45;&gt;Node7</title>
<path fill="none" stroke="#63b8ff" d="M500.25,-476.25C495.65,-460.21 487.52,-437.39 475,-420.5 386.17,-300.66 228,-342.42 228,-193.25 228,-193.25 228,-193.25 228,-124.75 228,-45.18 315.38,-72.79 393,-55.25 577.32,-13.6 1181.43,-10.66 1331.85,-10.59"/>
<polygon fill="#63b8ff" stroke="#63b8ff" points="497.04,-476.79 502.99,-485.55 503.8,-474.99 497.04,-476.79"/>
</g>
<!-- Node14&#45;&gt;Node15 -->
<g id="edge18" class="edge">
<title>Node14&#45;&gt;Node15</title>
<path fill="none" stroke="#63b8ff" d="M482.82,-480.62C469.51,-471.61 452.66,-460.2 439.47,-451.28"/>
<polygon fill="#63b8ff" stroke="#63b8ff" points="480.54,-483.98 490.79,-486.68 484.47,-478.18 480.54,-483.98"/>
</g>
<!-- Node16&#45;&gt;Node4 -->
<g id="edge23" class="edge">
<title>Node16&#45;&gt;Node4</title>
<path fill="none" stroke="#63b8ff" d="M785.32,-482.29C804.65,-474.1 829.2,-462.93 850,-451 944.35,-396.9 954.99,-362.93 1050,-310 1080.54,-292.99 1118,-277.94 1142.41,-268.85"/>
<polygon fill="#63b8ff" stroke="#63b8ff" points="784.06,-479.44 776.18,-486.51 786.75,-485.9 784.06,-479.44"/>
</g>
<!-- Node16&#45;&gt;Node6 -->
<g id="edge22" class="edge">
<title>Node16&#45;&gt;Node6</title>
<path fill="none" stroke="#63b8ff" d="M776.18,-480.82C788.63,-472.7 803.73,-462.05 816,-451 912.72,-363.88 1007.9,-236.14 1032.75,-201.94"/>
<polygon fill="#63b8ff" stroke="#63b8ff" points="774.82,-478.18 768.27,-486.5 778.58,-484.08 774.82,-478.18"/>
</g>
<!-- Node16&#45;&gt;Node17 -->
<g id="edge24" class="edge">
<title>Node16&#45;&gt;Node17</title>
<path fill="none" stroke="#63b8ff" d="M752,-475.87C752,-465.68 752,-453.76 752,-445.78"/>
<polygon fill="#63b8ff" stroke="#63b8ff" points="748.5,-475.68 752,-485.68 755.5,-475.68 748.5,-475.68"/>
</g>
<!-- Node16&#45;&gt;Node21 -->
<g id="edge36" class="edge">
<title>Node16&#45;&gt;Node21</title>
<path fill="none" stroke="#63b8ff" d="M728.23,-480.79C715.78,-472.6 700.55,-461.9 688,-451 662.96,-429.27 637.35,-399.46 625.22,-384.78"/>
<polygon fill="#63b8ff" stroke="#63b8ff" points="725.82,-484.05 736.12,-486.53 729.61,-478.17 725.82,-484.05"/>
</g>
<!-- Node17&#45;&gt;Node7 -->
<g id="edge35" class="edge">
<title>Node17&#45;&gt;Node7</title>
<path fill="none" stroke="#63b8ff" d="M731.73,-418.42C716.33,-403.99 699.72,-382.61 712,-365.25 739.77,-326.01 781.03,-364.23 814,-329.25 836.05,-305.86 834,-291.89 834,-259.75 834,-259.75 834,-259.75 834,-124.75 834,-92.73 828.41,-75.77 853,-55.25 889.68,-24.64 1222.75,-14.04 1331.69,-11.37"/>
<polygon fill="#63b8ff" stroke="#63b8ff" points="729.14,-421.68 738.96,-425.65 733.76,-416.42 729.14,-421.68"/>
</g>
<!-- Node17&#45;&gt;Node18 -->
<g id="edge25" class="edge">
<title>Node17&#45;&gt;Node18</title>
<path fill="none" stroke="#63b8ff" d="M818.12,-430.24C983.31,-418.97 1411.54,-389.76 1561.88,-379.5"/>
<polygon fill="#63b8ff" stroke="#63b8ff" points="818.37,-426.78 808.63,-430.96 818.84,-433.77 818.37,-426.78"/>
</g>
<!-- Node17&#45;&gt;Node19 -->
<g id="edge27" class="edge">
<title>Node17&#45;&gt;Node19</title>
<path fill="none" stroke="#63b8ff" d="M685.55,-426.77C584.16,-414.58 393.49,-391.67 306.87,-381.27"/>
<polygon fill="#63b8ff" stroke="#63b8ff" points="684.92,-430.34 695.27,-428.05 685.76,-423.39 684.92,-430.34"/>
</g>
<!-- Node17&#45;&gt;Node20 -->
<g id="edge29" class="edge">
<title>Node17&#45;&gt;Node20</title>
<path fill="none" stroke="#63b8ff" d="M758.16,-415.65C761.5,-405.33 765.46,-393.06 768.09,-384.9"/>
<polygon fill="#63b8ff" stroke="#63b8ff" points="754.63,-414.22 754.89,-424.81 761.29,-416.37 754.63,-414.22"/>
</g>
<!-- Node17&#45;&gt;Node21 -->
<g id="edge30" class="edge">
<title>Node17&#45;&gt;Node21</title>
<path fill="none" stroke="#63b8ff" d="M721.48,-421.34C696.07,-410.17 660.56,-394.58 638.45,-384.86"/>
<polygon fill="#63b8ff" stroke="#63b8ff" points="719.79,-424.86 730.36,-425.68 722.61,-418.45 719.79,-424.86"/>
</g>
<!-- Node18&#45;&gt;Node7 -->
<g id="edge26" class="edge">
<title>Node18&#45;&gt;Node7</title>
<path fill="none" stroke="#63b8ff" d="M1626.65,-355.47C1639.38,-333.55 1658,-295.41 1658,-259.75 1658,-259.75 1658,-259.75 1658,-124.75 1658,-69.98 1477.54,-30.79 1400.35,-16.54"/>
<polygon fill="#63b8ff" stroke="#63b8ff" points="1623.16,-353.48 1620.98,-363.85 1629.15,-357.1 1623.16,-353.48"/>
</g>
<!-- Node19&#45;&gt;Node7 -->
<g id="edge28" class="edge">
<title>Node19&#45;&gt;Node7</title>
<path fill="none" stroke="#63b8ff" d="M219.39,-361.23C175.67,-345.32 114,-313.37 114,-259.75 114,-259.75 114,-259.75 114,-124.75 114,-92.07 111.74,-74.69 138,-55.25 187.27,-18.77 1138.21,-11.82 1331.78,-10.78"/>
<polygon fill="#63b8ff" stroke="#63b8ff" points="217.93,-364.78 228.52,-364.75 220.22,-358.16 217.93,-364.78"/>
</g>
<!-- Node21&#45;&gt;Node7 -->
<g id="edge34" class="edge">
<title>Node21&#45;&gt;Node7</title>
<path fill="none" stroke="#63b8ff" d="M632.71,-356.79C657.22,-327.69 706.89,-265.98 739,-207.5 774,-143.75 740.53,-98.51 799,-55.25 841.86,-23.54 1216.05,-13.57 1331.94,-11.23"/>
<polygon fill="#63b8ff" stroke="#63b8ff" points="629.5,-354.16 625.69,-364.05 634.84,-358.69 629.5,-354.16"/>
</g>
<!-- Node22 -->
<g id="node22" class="node">
<title>Node22</title>
<g id="a_node22"><a xlink:href="v8-debug_8h.html" target="_top" xlink:title=" ">
<polygon fill="white" stroke="#666666" points="805.5,-329.25 708.5,-329.25 708.5,-310 805.5,-310 805.5,-329.25"/>
<text text-anchor="middle" x="757" y="-315.75" font-family="Helvetica,sans-Serif" font-size="10.00">include/v8&#45;debug.h</text>
</a>
</g>
</g>
<!-- Node21&#45;&gt;Node22 -->
<g id="edge31" class="edge">
<title>Node21&#45;&gt;Node22</title>
<path fill="none" stroke="#63b8ff" d="M651.81,-360.92C677.05,-351.25 710.9,-338.29 733.3,-329.7"/>
<polygon fill="#63b8ff" stroke="#63b8ff" points="650.67,-358 642.58,-364.84 653.17,-364.53 650.67,-358"/>
</g>
<!-- Node22&#45;&gt;Node4 -->
<g id="edge32" class="edge">
<title>Node22&#45;&gt;Node4</title>
<path fill="none" stroke="#63b8ff" d="M816.31,-310.13C897.54,-298.49 1041.99,-277.8 1118.02,-266.91"/>
<polygon fill="#63b8ff" stroke="#63b8ff" points="816.16,-306.76 806.76,-311.64 817.16,-313.69 816.16,-306.76"/>
</g>
<!-- Node22&#45;&gt;Node7 -->
<g id="edge33" class="edge">
<title>Node22&#45;&gt;Node7</title>
<path fill="none" stroke="#63b8ff" d="M766.55,-300.25C778.1,-276.3 796,-232.79 796,-193.25 796,-193.25 796,-193.25 796,-124.75 796,-92.07 794.18,-75.28 820,-55.25 860.43,-23.87 1218.88,-13.71 1331.97,-11.27"/>
<polygon fill="#63b8ff" stroke="#63b8ff" points="763.12,-298.29 761.78,-308.8 769.38,-301.42 763.12,-298.29"/>
</g>
<!-- Node23&#45;&gt;Node7 -->
<g id="edge38" class="edge">
<title>Node23&#45;&gt;Node7</title>
<path fill="none" stroke="#63b8ff" d="M1942.99,-537.32C1936.17,-513.85 1926,-472.79 1926,-436.75 1926,-436.75 1926,-436.75 1926,-124.75 1926,-92.07 1927.8,-75.3 1902,-55.25 1862.42,-24.49 1512.06,-13.93 1400.18,-11.33"/>
<polygon fill="#63b8ff" stroke="#63b8ff" points="1939.85,-538.04 1946.09,-546.6 1946.55,-536.01 1939.85,-538.04"/>
</g>
<!-- Node24&#45;&gt;Node4 -->
<g id="edge43" class="edge">
<title>Node24&#45;&gt;Node4</title>
<path fill="none" stroke="#63b8ff" d="M756.17,-792.32C766.54,-769.12 782,-728.36 782,-691.5 782,-691.5 782,-691.5 782,-623 782,-585.56 785.31,-573.46 806,-542.25 850.85,-474.58 1022.16,-357.49 1088,-310 1109.55,-294.46 1135.86,-278.46 1152.28,-268.81"/>
<polygon fill="#63b8ff" stroke="#63b8ff" points="752.62,-790.66 751.58,-801.2 758.96,-793.61 752.62,-790.66"/>
</g>
<!-- Node24&#45;&gt;Node7 -->
<g id="edge92" class="edge">
<title>Node24&#45;&gt;Node7</title>
<path fill="none" stroke="#63b8ff" d="M726.07,-795.77C664.15,-749.17 478.82,-604.02 361,-451 334.62,-416.73 339.85,-400.64 315,-365.25 283.67,-320.63 256.08,-323.4 233,-274 202.04,-207.72 191.45,-180.09 214,-110.5 223.34,-81.66 227.28,-69.57 254,-55.25 302.61,-29.19 1149.45,-14.11 1331.65,-11.16"/>
<polygon fill="#63b8ff" stroke="#63b8ff" points="723.5,-798.96 733.61,-802.15 727.7,-793.36 723.5,-798.96"/>
</g>
<!-- Node24&#45;&gt;Node12 -->
<g id="edge42" class="edge">
<title>Node24&#45;&gt;Node12</title>
<path fill="none" stroke="#63b8ff" d="M733.69,-793.44C726.88,-784.01 718.64,-772.11 712,-761 641.92,-643.8 645.44,-602.75 573,-487 490.29,-354.83 410.7,-355.28 361,-207.5 356.68,-194.65 355.83,-189.53 361,-177 368.32,-159.25 385.29,-144.48 397.43,-135.64"/>
<polygon fill="#63b8ff" stroke="#63b8ff" points="731.42,-795.25 740.16,-801.24 737.06,-791.11 731.42,-795.25"/>
</g>
<!-- Node24&#45;&gt;Node16 -->
<g id="edge41" class="edge">
<title>Node24&#45;&gt;Node16</title>
<path fill="none" stroke="#63b8ff" d="M746.2,-791.53C745.31,-767.8 744,-726.74 744,-691.5 744,-691.5 744,-691.5 744,-623 744,-579.38 748.88,-527.39 751.02,-506.74"/>
<polygon fill="#63b8ff" stroke="#63b8ff" points="742.73,-791.38 746.62,-801.24 749.73,-791.11 742.73,-791.38"/>
</g>
<!-- Node24&#45;&gt;Node21 -->
<g id="edge82" class="edge">
<title>Node24&#45;&gt;Node21</title>
<path fill="none" stroke="#63b8ff" d="M738.27,-792.52C720.09,-752.82 677.89,-656.99 654,-572.75 633.81,-501.55 622.29,-412.54 619,-384.65"/>
<polygon fill="#63b8ff" stroke="#63b8ff" points="735.45,-793.75 742.82,-801.37 741.8,-790.82 735.45,-793.75"/>
</g>
<!-- Node24&#45;&gt;Node25 -->
<g id="edge44" class="edge">
<title>Node24&#45;&gt;Node25</title>
<path fill="none" stroke="#63b8ff" d="M802.87,-809.17C895.57,-804.87 1076.41,-792.6 1131,-761 1155.69,-746.71 1172.7,-715.93 1179.99,-700.58"/>
<polygon fill="#63b8ff" stroke="#63b8ff" points="802.85,-805.72 793.01,-809.66 803.16,-812.71 802.85,-805.72"/>
</g>
<!-- Node24&#45;&gt;Node28 -->
<g id="edge83" class="edge">
<title>Node24&#45;&gt;Node28</title>
<path fill="none" stroke="#63b8ff" d="M762.74,-794.35C790.71,-765.36 852.16,-706.3 916,-675.25 1129.8,-571.27 1210.61,-631.39 1441,-572.75 1479.49,-562.95 1487.11,-554.17 1525,-542.25 1568.94,-528.43 1620.23,-515.14 1654.26,-506.71"/>
<polygon fill="#63b8ff" stroke="#63b8ff" points="760.52,-791.65 756.17,-801.31 765.59,-796.47 760.52,-791.65"/>
</g>
<!-- Node24&#45;&gt;Node38 -->
<g id="edge84" class="edge">
<title>Node24&#45;&gt;Node38</title>
<path fill="none" stroke="#63b8ff" d="M802.49,-801.29C865.75,-789.93 968.08,-771.57 1027.71,-760.86"/>
<polygon fill="#63b8ff" stroke="#63b8ff" points="802.14,-797.98 792.92,-803.19 803.38,-804.87 802.14,-797.98"/>
</g>
<!-- Node25&#45;&gt;Node4 -->
<g id="edge54" class="edge">
<title>Node25&#45;&gt;Node4</title>
<path fill="none" stroke="#63b8ff" d="M1177.27,-670.02C1174.43,-660.81 1171.44,-649.59 1170,-639.25 1149.53,-492.43 1163.5,-310.54 1167.18,-268.64"/>
<polygon fill="#63b8ff" stroke="#63b8ff" points="1174.23,-670.98 1180.67,-679.39 1180.88,-668.8 1174.23,-670.98"/>
</g>
<!-- Node25&#45;&gt;Node7 -->
<g id="edge81" class="edge">
<title>Node25&#45;&gt;Node7</title>
<path fill="none" stroke="#63b8ff" d="M1188.25,-670.06C1191.91,-653.66 1197.47,-629.58 1203,-608.75 1223.47,-531.69 1254,-516.48 1254,-436.75 1254,-436.75 1254,-436.75 1254,-373.88 1254,-298.48 1343.23,-68.28 1362.4,-19.69"/>
<polygon fill="#63b8ff" stroke="#63b8ff" points="1184.68,-668.98 1185.94,-679.5 1191.52,-670.49 1184.68,-668.98"/>
</g>
<!-- Node25&#45;&gt;Node17 -->
<g id="edge55" class="edge">
<title>Node25&#45;&gt;Node17</title>
<path fill="none" stroke="#63b8ff" d="M1147.13,-676.91C1094.58,-658.15 996.09,-619.96 920,-572.75 869.39,-541.35 863.46,-524.28 817,-487 798.53,-472.18 776.68,-455.45 763.6,-445.52"/>
<polygon fill="#63b8ff" stroke="#63b8ff" points="1145.72,-680.47 1156.31,-680.5 1148.05,-673.87 1145.72,-680.47"/>
</g>
<!-- Node25&#45;&gt;Node26 -->
<g id="edge45" class="edge">
<title>Node25&#45;&gt;Node26</title>
<path fill="none" stroke="#63b8ff" d="M1203.98,-674.16C1220.23,-661.68 1242.61,-644.5 1256.15,-634.1"/>
<polygon fill="#63b8ff" stroke="#63b8ff" points="1202.48,-671.67 1196.68,-680.53 1206.74,-677.22 1202.48,-671.67"/>
</g>
<!-- Node25&#45;&gt;Node27 -->
<g id="edge47" class="edge">
<title>Node25&#45;&gt;Node27</title>
<path fill="none" stroke="#63b8ff" d="M1239.89,-678.27C1300.85,-666.02 1397.48,-646.6 1455.71,-634.9"/>
<polygon fill="#63b8ff" stroke="#63b8ff" points="1239.43,-674.99 1230.31,-680.4 1240.8,-681.86 1239.43,-674.99"/>
</g>
<!-- Node25&#45;&gt;Node30 -->
<g id="edge56" class="edge">
<title>Node25&#45;&gt;Node30</title>
<path fill="none" stroke="#63b8ff" d="M1249.06,-682.99C1378.46,-670.05 1665.48,-641.35 1780.22,-629.88"/>
<polygon fill="#63b8ff" stroke="#63b8ff" points="1248.76,-679.61 1239.16,-684.08 1249.46,-686.57 1248.76,-679.61"/>
</g>
<!-- Node26&#45;&gt;Node7 -->
<g id="edge46" class="edge">
<title>Node26&#45;&gt;Node7</title>
<path fill="none" stroke="#63b8ff" d="M1272.19,-603.49C1279.07,-569.7 1292,-498.02 1292,-436.75 1292,-436.75 1292,-436.75 1292,-373.88 1292,-344.26 1302.49,-338.37 1311,-310 1324.67,-264.41 1332.2,-254.07 1342,-207.5 1357.04,-136.07 1363.63,-47.93 1365.45,-19.74"/>
<polygon fill="#63b8ff" stroke="#63b8ff" points="1268.58,-602.63 1269.96,-613.14 1275.44,-604.06 1268.58,-602.63"/>
</g>
<!-- Node27&#45;&gt;Node4 -->
<g id="edge49" class="edge">
<title>Node27&#45;&gt;Node4</title>
<path fill="none" stroke="#63b8ff" d="M1445.02,-617.27C1405.84,-611.17 1355.06,-598.6 1317,-572.75 1254.72,-530.45 1216,-512.04 1216,-436.75 1216,-436.75 1216,-436.75 1216,-373.88 1216,-331.75 1187.86,-287.23 1174.67,-268.68"/>
<polygon fill="#63b8ff" stroke="#63b8ff" points="1444.35,-620.85 1454.75,-618.83 1445.36,-613.93 1444.35,-620.85"/>
</g>
<!-- Node27&#45;&gt;Node18 -->
<g id="edge48" class="edge">
<title>Node27&#45;&gt;Node18</title>
<path fill="none" stroke="#63b8ff" d="M1509.57,-597.61C1512.89,-581.44 1518.04,-560.24 1525,-542.25 1549.54,-478.86 1593.24,-409.2 1609.07,-384.86"/>
<polygon fill="#63b8ff" stroke="#63b8ff" points="1505.95,-596.88 1507.47,-607.37 1512.82,-598.22 1505.95,-596.88"/>
</g>
<!-- Node27&#45;&gt;Node28 -->
<g id="edge50" class="edge">
<title>Node27&#45;&gt;Node28</title>
<path fill="none" stroke="#63b8ff" d="M1514.77,-598.24C1523.01,-580.34 1536.44,-556.82 1555,-542.25 1578.71,-523.64 1610.45,-512.66 1637.41,-506.25"/>
<polygon fill="#63b8ff" stroke="#63b8ff" points="1511.18,-596.71 1510.41,-607.28 1517.6,-599.5 1511.18,-596.71"/>
</g>
<!-- Node29 -->
<g id="node29" class="node">
<title>Node29</title>
<g id="a_node29"><a xlink:href="v8-util_8h.html" target="_top" xlink:title=" ">
<polygon fill="white" stroke="#666666" points="1647.75,-567.12 1564.25,-567.12 1564.25,-547.88 1647.75,-547.88 1647.75,-567.12"/>
<text text-anchor="middle" x="1606" y="-553.62" font-family="Helvetica,sans-Serif" font-size="10.00">include/v8&#45;util.h</text>
</a>
</g>
</g>
<!-- Node27&#45;&gt;Node29 -->
<g id="edge53" class="edge">
<title>Node27&#45;&gt;Node29</title>
<path fill="none" stroke="#63b8ff" d="M1537.15,-602.47C1555.58,-590.7 1577.78,-576.52 1591.89,-567.51"/>
<polygon fill="#63b8ff" stroke="#63b8ff" points="1535.46,-600.03 1528.92,-608.36 1539.23,-605.93 1535.46,-600.03"/>
</g>
<!-- Node28&#45;&gt;Node7 -->
<g id="edge52" class="edge">
<title>Node28&#45;&gt;Node7</title>
<path fill="none" stroke="#63b8ff" d="M1702.83,-477.22C1715.28,-454.29 1734,-413.53 1734,-375.88 1734,-375.88 1734,-375.88 1734,-124.75 1734,-55.27 1491.65,-23.4 1400.29,-13.85"/>
<polygon fill="#63b8ff" stroke="#63b8ff" points="1699.35,-475.26 1697.49,-485.69 1705.45,-478.7 1699.35,-475.26"/>
</g>
<!-- Node28&#45;&gt;Node18 -->
<g id="edge51" class="edge">
<title>Node28&#45;&gt;Node18</title>
<path fill="none" stroke="#63b8ff" d="M1680.34,-477.49C1663.64,-451.52 1633.51,-404.67 1620.85,-384.98"/>
<polygon fill="#63b8ff" stroke="#63b8ff" points="1677.86,-479.11 1686.21,-485.62 1683.75,-475.32 1677.86,-479.11"/>
</g>
<!-- Node30&#45;&gt;Node3 -->
<g id="edge57" class="edge">
<title>Node30&#45;&gt;Node3</title>
<path fill="none" stroke="#63b8ff" d="M1769.52,-618.25C1620.14,-606.33 1230.46,-575.22 1080.77,-563.27"/>
<polygon fill="#63b8ff" stroke="#63b8ff" points="1769.03,-621.8 1779.28,-619.11 1769.59,-614.83 1769.03,-621.8"/>
</g>
<!-- Node30&#45;&gt;Node7 -->
<g id="edge80" class="edge">
<title>Node30&#45;&gt;Node7</title>
<path fill="none" stroke="#63b8ff" d="M1839.1,-604.41C1855.95,-571.58 1888,-500.75 1888,-436.75 1888,-436.75 1888,-436.75 1888,-124.75 1888,-91.77 1888.23,-75.24 1862,-55.25 1825.38,-27.34 1506.33,-14.98 1400.18,-11.62"/>
<polygon fill="#63b8ff" stroke="#63b8ff" points="1835.6,-602.54 1834.03,-613.02 1841.79,-605.81 1835.6,-602.54"/>
</g>
<!-- Node30&#45;&gt;Node13 -->
<g id="edge74" class="edge">
<title>Node30&#45;&gt;Node13</title>
<path fill="none" stroke="#63b8ff" d="M1799.91,-609.18C1779.58,-599.37 1751.91,-585.69 1728,-572.75 1704.44,-560 1699.14,-555.75 1676,-542.25 1648.48,-526.19 1636.8,-528.51 1614,-506.25 1565.35,-458.77 1534,-443.86 1534,-375.88 1534,-375.88 1534,-375.88 1534,-257.75 1534,-150.69 704.22,-84.14 495.97,-69.12"/>
<polygon fill="#63b8ff" stroke="#63b8ff" points="1798.28,-612.77 1808.81,-613.94 1801.31,-606.45 1798.28,-612.77"/>
</g>
<!-- Node30&#45;&gt;Node18 -->
<g id="edge65" class="edge">
<title>Node30&#45;&gt;Node18</title>
<path fill="none" stroke="#63b8ff" d="M1812.25,-606.72C1793.17,-588.91 1760.42,-560.45 1728,-542.25 1687.18,-519.33 1657.87,-543.11 1629,-506.25 1600.22,-469.51 1608.56,-408.01 1613.02,-384.96"/>
<polygon fill="#63b8ff" stroke="#63b8ff" points="1809.34,-608.74 1819,-613.09 1814.16,-603.66 1809.34,-608.74"/>
</g>
<!-- Node30&#45;&gt;Node23 -->
<g id="edge58" class="edge">
<title>Node30&#45;&gt;Node23</title>
<path fill="none" stroke="#63b8ff" d="M1855.59,-608.71C1878.96,-596.15 1912.26,-578.25 1932.15,-567.56"/>
<polygon fill="#63b8ff" stroke="#63b8ff" points="1854.09,-606.08 1846.94,-613.9 1857.4,-612.24 1854.09,-606.08"/>
</g>
<!-- Node30&#45;&gt;Node28 -->
<g id="edge77" class="edge">
<title>Node30&#45;&gt;Node28</title>
<path fill="none" stroke="#63b8ff" d="M1827.61,-603.08C1825.36,-585.1 1819.46,-558.98 1804,-542.25 1787.24,-524.11 1762.13,-513.21 1739.94,-506.73"/>
<polygon fill="#63b8ff" stroke="#63b8ff" points="1824.22,-603.39 1828.66,-613.01 1831.19,-602.72 1824.22,-603.39"/>
</g>
<!-- Node30&#45;&gt;Node31 -->
<g id="edge59" class="edge">
<title>Node30&#45;&gt;Node31</title>
<path fill="none" stroke="#63b8ff" d="M1888.81,-614.68C1958.87,-604.89 2078.41,-588.02 2181,-572.75 2196.35,-570.47 2213.12,-567.89 2228.09,-565.56"/>
<polygon fill="#63b8ff" stroke="#63b8ff" points="1888.42,-611.34 1879,-616.19 1889.39,-618.28 1888.42,-611.34"/>
</g>
<!-- Node30&#45;&gt;Node32 -->
<g id="edge61" class="edge">
<title>Node30&#45;&gt;Node32</title>
<path fill="none" stroke="#63b8ff" d="M1880.24,-611.48C1936.16,-598.92 2024.51,-579.06 2075.69,-567.56"/>
<polygon fill="#63b8ff" stroke="#63b8ff" points="1879.5,-608.29 1870.51,-613.9 1881.04,-615.12 1879.5,-608.29"/>
</g>
<!-- Node30&#45;&gt;Node33 -->
<g id="edge66" class="edge">
<title>Node30&#45;&gt;Node33</title>
<path fill="none" stroke="#63b8ff" d="M1888.69,-619.62C1982.51,-613.71 2169.98,-599.51 2327,-572.75 2329.8,-572.27 2332.67,-571.74 2335.56,-571.16"/>
<polygon fill="#63b8ff" stroke="#63b8ff" points="1888.48,-616.19 1878.72,-620.3 1888.92,-623.17 1888.48,-616.19"/>
</g>
<!-- Node30&#45;&gt;Node34 -->
<g id="edge68" class="edge">
<title>Node30&#45;&gt;Node34</title>
<path fill="none" stroke="#63b8ff" d="M1769.77,-614.51C1681.4,-601.84 1516.41,-578.2 1431.89,-566.08"/>
<polygon fill="#63b8ff" stroke="#63b8ff" points="1769.02,-618.08 1779.41,-616.04 1770.01,-611.15 1769.02,-618.08"/>
</g>
<!-- Node30&#45;&gt;Node36 -->
<g id="edge75" class="edge">
<title>Node30&#45;&gt;Node36</title>
<path fill="none" stroke="#63b8ff" d="M1888.52,-621.22C1998.87,-617.24 2242.45,-605.27 2445,-572.75 2453.22,-571.43 2461.98,-569.57 2470.18,-567.62"/>
<polygon fill="#63b8ff" stroke="#63b8ff" points="1888.5,-617.75 1878.62,-621.6 1888.74,-624.75 1888.5,-617.75"/>
</g>
<!-- Node30&#45;&gt;Node37 -->
<g id="edge78" class="edge">
<title>Node30&#45;&gt;Node37</title>
<path fill="none" stroke="#63b8ff" d="M1888.75,-622.47C2014.36,-620.59 2314.7,-611.97 2563,-572.75 2571.16,-571.46 2579.86,-569.56 2587.95,-567.57"/>
<polygon fill="#63b8ff" stroke="#63b8ff" points="1888.81,-618.99 1878.86,-622.63 1888.91,-625.99 1888.81,-618.99"/>
</g>
<!-- Node31&#45;&gt;Node7 -->
<g id="edge60" class="edge">
<title>Node31&#45;&gt;Node7</title>
<path fill="none" stroke="#63b8ff" d="M2218.51,-545.22C2213.6,-544.22 2208.71,-543.21 2204,-542.25 2124.92,-526.09 2086.74,-559.41 2026,-506.25 2001.41,-484.73 2002,-469.43 2002,-436.75 2002,-436.75 2002,-436.75 2002,-124.75 2002,-86.17 1983.81,-73.82 1950,-55.25 1901.76,-28.75 1517.43,-15.16 1399.98,-11.59"/>
<polygon fill="#63b8ff" stroke="#63b8ff" points="2217.7,-548.84 2228.2,-547.43 2219.12,-541.98 2217.7,-548.84"/>
</g>
<!-- Node32&#45;&gt;Node4 -->
<g id="edge62" class="edge">
<title>Node32&#45;&gt;Node4</title>
<path fill="none" stroke="#63b8ff" d="M2068.6,-544.63C2034.96,-535.61 1989.03,-522.08 1950,-506.25 1823.45,-454.92 1804.32,-414.63 1677,-365.25 1589.02,-331.13 1564.22,-330 1472,-310 1383.26,-290.76 1278.54,-274.94 1218.05,-266.47"/>
<polygon fill="#63b8ff" stroke="#63b8ff" points="2067.51,-548.23 2078.07,-547.4 2069.29,-541.46 2067.51,-548.23"/>
</g>
<!-- Node32&#45;&gt;Node7 -->
<g id="edge64" class="edge">
<title>Node32&#45;&gt;Node7</title>
<path fill="none" stroke="#63b8ff" d="M2055.6,-544.37C2031.84,-536.9 2005.99,-525.01 1988,-506.25 1965.38,-482.67 1964,-469.43 1964,-436.75 1964,-436.75 1964,-436.75 1964,-124.75 1964,-89.11 1954.12,-74.31 1924,-55.25 1879.76,-27.25 1514.59,-14.77 1400.16,-11.52"/>
<polygon fill="#63b8ff" stroke="#63b8ff" points="2054.4,-547.96 2064.98,-547.41 2056.36,-541.24 2054.4,-547.96"/>
</g>
<!-- Node32&#45;&gt;Node28 -->
<g id="edge63" class="edge">
<title>Node32&#45;&gt;Node28</title>
<path fill="none" stroke="#63b8ff" d="M2063.43,-545.35C2057.56,-544.24 2051.66,-543.18 2046,-542.25 1940.41,-524.87 1816.13,-510.63 1746.46,-503.2"/>
<polygon fill="#63b8ff" stroke="#63b8ff" points="2062.41,-548.92 2072.9,-547.39 2063.75,-542.05 2062.41,-548.92"/>
</g>
<!-- Node33&#45;&gt;Node7 -->
<g id="edge67" class="edge">
<title>Node33&#45;&gt;Node7</title>
<path fill="none" stroke="#63b8ff" d="M2324.72,-542.22C2253.13,-532.44 2107.29,-541.77 2064,-506.25 2038.74,-485.52 2040,-469.43 2040,-436.75 2040,-436.75 2040,-436.75 2040,-124.75 2040,-83.65 2015.8,-73.55 1979,-55.25 1927.11,-29.44 1521.82,-15.3 1400.32,-11.61"/>
<polygon fill="#63b8ff" stroke="#63b8ff" points="2324.11,-545.82 2334.54,-543.96 2325.23,-538.91 2324.11,-545.82"/>
</g>
<!-- Node34&#45;&gt;Node7 -->
<g id="edge73" class="edge">
<title>Node34&#45;&gt;Node7</title>
<path fill="none" stroke="#63b8ff" d="M1391.48,-538.79C1421.63,-494.21 1496,-372.78 1496,-259.75 1496,-259.75 1496,-259.75 1496,-124.75 1496,-69.64 1429.21,-34.9 1391.37,-19.64"/>
<polygon fill="#63b8ff" stroke="#63b8ff" points="1388.08,-536.55 1385.29,-546.77 1393.85,-540.52 1388.08,-536.55"/>
</g>
<!-- Node34&#45;&gt;Node16 -->
<g id="edge69" class="edge">
<title>Node34&#45;&gt;Node16</title>
<path fill="none" stroke="#63b8ff" d="M1315.37,-550.53C1192.57,-538.99 924.75,-513.85 808.14,-502.9"/>
<polygon fill="#63b8ff" stroke="#63b8ff" points="1314.8,-554.08 1325.08,-551.53 1315.45,-547.11 1314.8,-554.08"/>
</g>
<!-- Node34&#45;&gt;Node35 -->
<g id="edge70" class="edge">
<title>Node34&#45;&gt;Node35</title>
<path fill="none" stroke="#63b8ff" d="M1378.66,-536.64C1377.84,-487.92 1375.74,-363.98 1375.15,-329.59"/>
<polygon fill="#63b8ff" stroke="#63b8ff" points="1375.18,-536.6 1378.85,-546.54 1382.18,-536.48 1375.18,-536.6"/>
</g>
<!-- Node35&#45;&gt;Node4 -->
<g id="edge71" class="edge">
<title>Node35&#45;&gt;Node4</title>
<path fill="none" stroke="#63b8ff" d="M1332.78,-306.62C1293.42,-295.42 1235.57,-278.97 1199.93,-268.83"/>
<polygon fill="#63b8ff" stroke="#63b8ff" points="1331.53,-310.19 1342.11,-309.55 1333.45,-303.45 1331.53,-310.19"/>
</g>
<!-- Node35&#45;&gt;Node7 -->
<g id="edge72" class="edge">
<title>Node35&#45;&gt;Node7</title>
<path fill="none" stroke="#63b8ff" d="M1382.34,-299.35C1390.93,-275 1404,-231.65 1404,-193.25 1404,-193.25 1404,-193.25 1404,-124.75 1404,-83.82 1381.73,-38.67 1371.28,-19.75"/>
<polygon fill="#63b8ff" stroke="#63b8ff" points="1378.71,-298.07 1378.56,-308.67 1385.28,-300.48 1378.71,-298.07"/>
</g>
<!-- Node36&#45;&gt;Node7 -->
<g id="edge76" class="edge">
<title>Node36&#45;&gt;Node7</title>
<path fill="none" stroke="#63b8ff" d="M2457.67,-544.97C2453.39,-544.01 2449.12,-543.09 2445,-542.25 2278.66,-508.54 2078,-606.47 2078,-436.75 2078,-436.75 2078,-436.75 2078,-124.75 2078,-81.54 2049.23,-73.37 2010,-55.25 1954.49,-29.61 1525.55,-15.25 1400.26,-11.58"/>
<polygon fill="#63b8ff" stroke="#63b8ff" points="2456.68,-548.56 2467.21,-547.41 2458.26,-541.74 2456.68,-548.56"/>
</g>
<!-- Node37&#45;&gt;Node7 -->
<g id="edge79" class="edge">
<title>Node37&#45;&gt;Node7</title>
<path fill="none" stroke="#63b8ff" d="M2574.81,-544.67C2474.09,-517.99 2240,-454.12 2240,-436.75 2240,-436.75 2240,-436.75 2240,-124.75 2240,-31.91 2133.95,-73.92 2043,-55.25 1917.95,-29.58 1519.34,-15.39 1400.04,-11.64"/>
<polygon fill="#63b8ff" stroke="#63b8ff" points="2573.71,-548.26 2584.27,-547.43 2575.5,-541.5 2573.71,-548.26"/>
</g>
<!-- Node38&#45;&gt;Node7 -->
<g id="edge91" class="edge">
<title>Node38&#45;&gt;Node7</title>
<path fill="none" stroke="#63b8ff" d="M1076.66,-730.78C1079.41,-698.06 1084.99,-630.21 1089,-572.75 1099.2,-426.5 1067.09,-383.99 1109,-243.5 1144.72,-123.78 1291.38,-45.14 1345.67,-19.64"/>
<polygon fill="#63b8ff" stroke="#63b8ff" points="1073.11,-730.25 1075.76,-740.51 1080.08,-730.84 1073.11,-730.25"/>
</g>
<!-- Node38&#45;&gt;Node15 -->
<g id="edge88" class="edge">
<title>Node38&#45;&gt;Node15</title>
<path fill="none" stroke="#63b8ff" d="M1027.3,-738.6C995.48,-730.35 952.87,-718.55 916,-705.75 698.14,-630.12 589.33,-679.4 437,-506.25 423.45,-490.85 419.46,-466.66 418.35,-451.26"/>
<polygon fill="#63b8ff" stroke="#63b8ff" points="1026.1,-742.16 1036.66,-741.26 1027.84,-735.38 1026.1,-742.16"/>
</g>
<!-- Node38&#45;&gt;Node25 -->
<g id="edge90" class="edge">
<title>Node38&#45;&gt;Node25</title>
<path fill="none" stroke="#63b8ff" d="M1100.96,-736.35C1121.52,-725.25 1149.62,-710.07 1167.29,-700.53"/>
<polygon fill="#63b8ff" stroke="#63b8ff" points="1099.69,-733.6 1092.55,-741.43 1103.02,-739.76 1099.69,-733.6"/>
</g>
<!-- Node38&#45;&gt;Node30 -->
<g id="edge89" class="edge">
<title>Node38&#45;&gt;Node30</title>
<path fill="none" stroke="#63b8ff" d="M1132.75,-749.4C1264.62,-746.66 1584.38,-736.92 1687,-705.75 1739.64,-689.76 1794.05,-651.63 1817.31,-634.1"/>
<polygon fill="#63b8ff" stroke="#63b8ff" points="1133.01,-745.92 1123.09,-749.62 1133.15,-752.92 1133.01,-745.92"/>
</g>
<!-- Node39 -->
<g id="node39" class="node">
<title>Node39</title>
<g id="a_node39"><a xlink:href="v8-cpp-heap-external_8h.html" target="_top" xlink:title=" ">
<polygon fill="white" stroke="#666666" points="1027.5,-705.75 924.5,-705.75 924.5,-675.25 1027.5,-675.25 1027.5,-705.75"/>
<text text-anchor="start" x="932.5" y="-692.25" font-family="Helvetica,sans-Serif" font-size="10.00">include/v8&#45;cpp&#45;heap</text>
<text text-anchor="middle" x="976" y="-681" font-family="Helvetica,sans-Serif" font-size="10.00">&#45;external.h</text>
</a>
</g>
</g>
<!-- Node38&#45;&gt;Node39 -->
<g id="edge85" class="edge">
<title>Node38&#45;&gt;Node39</title>
<path fill="none" stroke="#63b8ff" d="M1050.64,-735.89C1035.36,-726.8 1015.73,-715.13 1000.44,-706.03"/>
<polygon fill="#63b8ff" stroke="#63b8ff" points="1048.58,-739.33 1058.96,-741.43 1052.16,-733.31 1048.58,-739.33"/>
</g>
<!-- Node40 -->
<g id="node40" class="node">
<title>Node40</title>
<g id="a_node40"><a xlink:href="v8-external_8h.html" target="_top" xlink:title=" ">
<polygon fill="white" stroke="#666666" points="966.25,-74.5 861.75,-74.5 861.75,-55.25 966.25,-55.25 966.25,-74.5"/>
<text text-anchor="middle" x="914" y="-61" font-family="Helvetica,sans-Serif" font-size="10.00">include/v8&#45;external.h</text>
</a>
</g>
</g>
<!-- Node38&#45;&gt;Node40 -->
<g id="edge86" class="edge">
<title>Node38&#45;&gt;Node40</title>
<path fill="none" stroke="#63b8ff" d="M1068.05,-731.56C1061.57,-715.55 1050.82,-692.48 1037,-675.25 992.04,-619.21 942.73,-637.69 912,-572.75 897.12,-541.31 912,-294.53 912,-259.75 912,-259.75 912,-259.75 912,-191.25 912,-147.71 913.22,-95.68 913.75,-75"/>
<polygon fill="#63b8ff" stroke="#63b8ff" points="1064.97,-732.29 1071.85,-740.35 1071.5,-729.76 1064.97,-732.29"/>
</g>
<!-- Node40&#45;&gt;Node7 -->
<g id="edge87" class="edge">
<title>Node40&#45;&gt;Node7</title>
<path fill="none" stroke="#63b8ff" d="M977.12,-55.61C978.09,-55.49 979.05,-55.37 980,-55.25 1109.72,-39.28 1264.19,-21.92 1331.64,-14.42"/>
<polygon fill="#63b8ff" stroke="#63b8ff" points="977.07,-52.21 967.59,-56.93 977.95,-59.16 977.07,-52.21"/>
</g>
<!-- Node42 -->
<g id="node42" class="node">
<title>Node42</title>
<g id="a_node42"><a xlink:href="v8-unwinder_8h.html" target="_top" xlink:title=" ">
<polygon fill="white" stroke="#666666" points="2377.88,-329.25 2268.12,-329.25 2268.12,-310 2377.88,-310 2377.88,-329.25"/>
<text text-anchor="middle" x="2323" y="-315.75" font-family="Helvetica,sans-Serif" font-size="10.00">include/v8&#45;unwinder.h</text>
</a>
</g>
</g>
<!-- Node41&#45;&gt;Node42 -->
<g id="edge95" class="edge">
<title>Node41&#45;&gt;Node42</title>
<path fill="none" stroke="#63b8ff" d="M2437.26,-791.92C2520.35,-750.69 2697,-645.62 2697,-497.62 2697,-497.62 2697,-497.62 2697,-434.75 2697,-368.9 2482.22,-337.31 2378.18,-325.88"/>
<polygon fill="#63b8ff" stroke="#63b8ff" points="2436.06,-789.1 2428.61,-796.64 2439.13,-795.39 2436.06,-789.1"/>
</g>
<!-- Node42&#45;&gt;Node4 -->
<g id="edge96" class="edge">
<title>Node42&#45;&gt;Node4</title>
<path fill="none" stroke="#63b8ff" d="M2256.87,-315.25C2047.59,-304.59 1402.69,-271.71 1217.94,-262.3"/>
<polygon fill="#63b8ff" stroke="#63b8ff" points="2256.52,-318.79 2266.68,-315.81 2256.87,-311.8 2256.52,-318.79"/>
</g>
<!-- Node42&#45;&gt;Node7 -->
<g id="edge97" class="edge">
<title>Node42&#45;&gt;Node7</title>
<path fill="none" stroke="#63b8ff" d="M2317.43,-299.21C2310.92,-274.73 2301,-231.23 2301,-193.25 2301,-193.25 2301,-193.25 2301,-124.75 2301,-87.46 2286.49,-73.56 2254,-55.25 2178.65,-12.79 1554.6,-10.47 1400.37,-10.55"/>
<polygon fill="#63b8ff" stroke="#63b8ff" points="2314.27,-299.89 2320.3,-308.6 2321.01,-298.03 2314.27,-299.89"/>
</g>
<!-- Node44&#45;&gt;Node7 -->
<g id="edge110" class="edge">
<title>Node44&#45;&gt;Node7</title>
<path fill="none" stroke="#63b8ff" d="M2854.16,-232.11C2852.89,-187.69 2843.13,-97.16 2787,-55.25 2729.71,-12.47 1611.61,-10.57 1400.29,-10.6"/>
<polygon fill="#63b8ff" stroke="#63b8ff" points="2850.68,-232.15 2854.33,-242.1 2857.68,-232.04 2850.68,-232.15"/>
</g>
<!-- Node45&#45;&gt;Node4 -->
<g id="edge113" class="edge">
<title>Node45&#45;&gt;Node4</title>
<path fill="none" stroke="#63b8ff" d="M1640.45,-665.9C1658.65,-634.82 1683.27,-579.76 1657,-542.25 1630.14,-503.9 1595.03,-534.9 1558,-506.25 1477.33,-443.83 1522.24,-368.97 1439,-310 1404.15,-285.31 1286.15,-270.62 1217.89,-263.99"/>
<polygon fill="#63b8ff" stroke="#63b8ff" points="1637.07,-663.73 1634.85,-674.09 1643.04,-667.37 1637.07,-663.73"/>
</g>
<!-- Node45&#45;&gt;Node7 -->
<g id="edge117" class="edge">
<title>Node45&#45;&gt;Node7</title>
<path fill="none" stroke="#63b8ff" d="M1654.73,-668.43C1715.45,-622.69 1848,-507.74 1848,-375.88 1848,-375.88 1848,-375.88 1848,-124.75 1848,-32.63 1510.4,-14.77 1400.28,-11.39"/>
<polygon fill="#63b8ff" stroke="#63b8ff" points="1652.93,-666.16 1646.98,-674.92 1657.1,-671.78 1652.93,-666.16"/>
</g>
<!-- Node45&#45;&gt;Node20 -->
<g id="edge115" class="edge">
<title>Node45&#45;&gt;Node20</title>
<path fill="none" stroke="#63b8ff" d="M1562.33,-671.87C1480.01,-648.75 1344.46,-610.86 1333,-608.75 1249.58,-593.39 1028.77,-610.88 953,-572.75 912.34,-552.29 847.39,-453.45 816,-420.5 804.01,-407.91 789.68,-393.86 780.46,-384.95"/>
<polygon fill="#63b8ff" stroke="#63b8ff" points="1561.26,-675.49 1571.84,-674.82 1563.16,-668.75 1561.26,-675.49"/>
</g>
<!-- Node45&#45;&gt;Node29 -->
<g id="edge116" class="edge">
<title>Node45&#45;&gt;Node29</title>
<path fill="none" stroke="#63b8ff" d="M1621.34,-664.27C1617.06,-634.73 1610.18,-587.35 1607.32,-567.6"/>
<polygon fill="#63b8ff" stroke="#63b8ff" points="1617.99,-664.59 1622.89,-673.98 1624.92,-663.58 1617.99,-664.59"/>
</g>
<!-- Node45&#45;&gt;Node30 -->
<g id="edge114" class="edge">
<title>Node45&#45;&gt;Node30</title>
<path fill="none" stroke="#63b8ff" d="M1681.6,-671.6C1720.16,-659.41 1769.59,-643.78 1800.28,-634.08"/>
<polygon fill="#63b8ff" stroke="#63b8ff" points="1681.03,-668.43 1672.55,-674.78 1683.14,-675.11 1681.03,-668.43"/>
</g>
<!-- Node46&#45;&gt;Node7 -->
<g id="edge133" class="edge">
<title>Node46&#45;&gt;Node7</title>
<path fill="none" stroke="#63b8ff" d="M2739.03,-675.95C2755.28,-667.94 2772.73,-656.01 2782,-639.25 2788.56,-627.39 2782.15,-622.3 2782,-608.75 2780,-424.05 2773,-377.96 2773,-193.25 2773,-193.25 2773,-193.25 2773,-124.75 2773,-53.6 1614.95,-17.62 1400.08,-11.55"/>
<polygon fill="#63b8ff" stroke="#63b8ff" points="2737.81,-673.12 2730.15,-680.44 2740.71,-679.49 2737.81,-673.12"/>
</g>
<!-- Node46&#45;&gt;Node30 -->
<g id="edge132" class="edge">
<title>Node46&#45;&gt;Node30</title>
<path fill="none" stroke="#63b8ff" d="M2626.19,-683.9C2451.14,-670.97 2022.73,-639.31 1877.82,-628.61"/>
<polygon fill="#63b8ff" stroke="#63b8ff" points="2625.87,-687.46 2636.1,-684.7 2626.38,-680.48 2625.87,-687.46"/>
</g>
<!-- Node47 -->
<g id="node47" class="node">
<title>Node47</title>
<g id="a_node47"><a xlink:href="v8-cppgc_8h.html" target="_top" xlink:title=" ">
<polygon fill="white" stroke="#666666" points="2772.5,-633.62 2675.5,-633.62 2675.5,-614.38 2772.5,-614.38 2772.5,-633.62"/>
<text text-anchor="middle" x="2724" y="-620.12" font-family="Helvetica,sans-Serif" font-size="10.00">include/v8&#45;cppgc.h</text>
</a>
</g>
</g>
<!-- Node46&#45;&gt;Node47 -->
<g id="edge129" class="edge">
<title>Node46&#45;&gt;Node47</title>
<path fill="none" stroke="#63b8ff" d="M2708.6,-670.15C2712.71,-658.11 2717.79,-643.2 2720.97,-633.89"/>
<polygon fill="#63b8ff" stroke="#63b8ff" points="2704.97,-668.94 2705.06,-679.53 2711.6,-671.2 2704.97,-668.94"/>
</g>
<!-- Node48 -->
<g id="node48" class="node">
<title>Node48</title>
<g id="a_node48"><a xlink:href="v8-embedder-heap_8h.html" target="_top" xlink:title=" ">
<polygon fill="white" stroke="#666666" points="2212,-451 2106,-451 2106,-420.5 2212,-420.5 2212,-451"/>
<text text-anchor="start" x="2114" y="-437.5" font-family="Helvetica,sans-Serif" font-size="10.00">include/v8&#45;embedder</text>
<text text-anchor="middle" x="2159" y="-426.25" font-family="Helvetica,sans-Serif" font-size="10.00">&#45;heap.h</text>
</a>
</g>
</g>
<!-- Node46&#45;&gt;Node48 -->
<g id="edge130" class="edge">
<title>Node46&#45;&gt;Node48</title>
<path fill="none" stroke="#63b8ff" d="M2686.1,-672.33C2678.75,-663.22 2670.82,-651.42 2667,-639.25 2658.03,-610.67 2673.57,-602.38 2678,-572.75 2680,-559.34 2686.58,-552.75 2678,-542.25 2619.53,-470.7 2332.93,-446.47 2212.48,-439.36"/>
<polygon fill="#63b8ff" stroke="#63b8ff" points="2683.9,-674.15 2693.08,-679.45 2689.21,-669.58 2683.9,-674.15"/>
</g>
<!-- Node48&#45;&gt;Node4 -->
<g id="edge131" class="edge">
<title>Node48&#45;&gt;Node4</title>
<path fill="none" stroke="#63b8ff" d="M2096.32,-417.15C1998.41,-390.26 1802.86,-339.05 1634,-310 1483.64,-284.13 1303.55,-269.2 1217.94,-263.06"/>
<polygon fill="#63b8ff" stroke="#63b8ff" points="2095.35,-420.78 2105.92,-420.06 2097.2,-414.03 2095.35,-420.78"/>
</g>
<!-- Node49&#45;&gt;Node7 -->
<g id="edge136" class="edge">
<title>Node49&#45;&gt;Node7</title>
<path fill="none" stroke="#63b8ff" d="M2935,-730.44C2935,-705.7 2935,-662.24 2935,-625 2935,-625 2935,-625 2935,-124.75 2935,-61.18 2871.28,-72.15 2810,-55.25 2670.29,-16.71 1605.84,-11.39 1400.29,-10.72"/>
<polygon fill="#63b8ff" stroke="#63b8ff" points="2931.5,-730.25 2935,-740.25 2938.5,-730.25 2931.5,-730.25"/>
</g>
</g>
</svg>
