<?xml version="1.0" encoding="UTF-8" standalone="no"?>
<!DOCTYPE svg PUBLIC "-//W3C//DTD SVG 1.1//EN"
 "http://www.w3.org/Graphics/SVG/1.1/DTD/svg11.dtd">
<!-- Generated by graphviz version 8.0.5 (20230430.1635)
 -->
<!-- Title: include/v8&#45;local&#45;handle.h Pages: 1 -->
<svg width="3011pt" height="891pt"
 viewBox="0.00 0.00 3010.62 890.75" xmlns="http://www.w3.org/2000/svg" xmlns:xlink="http://www.w3.org/1999/xlink">
<g id="graph0" class="graph" transform="scale(1 1) rotate(0) translate(4 886.75)">
<title>include/v8&#45;local&#45;handle.h</title>
<!-- Node1 -->
<g id="node1" class="node">
<title>Node1</title>
<g id="a_node1"><a xlink:title=" ">
<polygon fill="#999999" stroke="#666666" points="1329.25,-882.75 1206.75,-882.75 1206.75,-863.5 1329.25,-863.5 1329.25,-882.75"/>
<text text-anchor="middle" x="1268" y="-869.25" font-family="Helvetica,sans-Serif" font-size="10.00">include/v8&#45;local&#45;handle.h</text>
</a>
</g>
</g>
<!-- Node2 -->
<g id="node2" class="node">
<title>Node2</title>
<g id="a_node2"><a xlink:href="v8-array-buffer_8h.html" target="_top" xlink:title=" ">
<polygon fill="white" stroke="#666666" points="1080.38,-555.88 961.62,-555.88 961.62,-536.62 1080.38,-536.62 1080.38,-555.88"/>
<text text-anchor="middle" x="1021" y="-542.38" font-family="Helvetica,sans-Serif" font-size="10.00">include/v8&#45;array&#45;buffer.h</text>
</a>
</g>
</g>
<!-- Node1&#45;&gt;Node2 -->
<g id="edge1" class="edge">
<title>Node1&#45;&gt;Node2</title>
<path fill="none" stroke="#63b8ff" d="M1195.73,-862.75C1087.53,-846.66 896,-809.35 896,-746.75 896,-746.75 896,-746.75 896,-678.25 896,-617.74 966.68,-574.16 1001.74,-556.26"/>
<polygon fill="#63b8ff" stroke="#63b8ff" points="1195.17,-866.35 1205.57,-864.33 1196.18,-859.42 1195.17,-866.35"/>
</g>
<!-- Node3 -->
<g id="node3" class="node">
<title>Node3</title>
<g id="a_node3"><a xlink:href="v8-isolate_8h.html" target="_top" xlink:title=" ">
<polygon fill="white" stroke="#666666" points="1207.62,-262.75 1108.38,-262.75 1108.38,-243.5 1207.62,-243.5 1207.62,-262.75"/>
<text text-anchor="middle" x="1158" y="-249.25" font-family="Helvetica,sans-Serif" font-size="10.00">include/v8&#45;isolate.h</text>
</a>
</g>
</g>
<!-- Node1&#45;&gt;Node3 -->
<g id="edge104" class="edge">
<title>Node1&#45;&gt;Node3</title>
<path fill="none" stroke="#63b8ff" d="M1195.63,-871.87C1127.13,-869.45 1022.51,-860.01 938,-827.5 878.69,-804.68 820,-810.3 820,-746.75 820,-746.75 820,-746.75 820,-611.75 820,-562.63 1092.83,-313.1 1148.25,-262.92"/>
<polygon fill="#63b8ff" stroke="#63b8ff" points="1195.2,-875.39 1205.3,-872.2 1195.41,-868.39 1195.2,-875.39"/>
</g>
<!-- Node6 -->
<g id="node6" class="node">
<title>Node6</title>
<g id="a_node6"><a xlink:href="v8_8h.html" target="_top" xlink:title=" ">
<polygon fill="white" stroke="#666666" points="1398.88,-19.25 1331.12,-19.25 1331.12,0 1398.88,0 1398.88,-19.25"/>
<text text-anchor="middle" x="1365" y="-5.75" font-family="Helvetica,sans-Serif" font-size="10.00">include/v8.h</text>
</a>
</g>
</g>
<!-- Node1&#45;&gt;Node6 -->
<g id="edge138" class="edge">
<title>Node1&#45;&gt;Node6</title>
<path fill="none" stroke="#63b8ff" d="M1195.51,-871.42C940.18,-868.67 95.28,-857.36 46,-827.5 10.67,-806.1 0,-788.05 0,-746.75 0,-746.75 0,-746.75 0,-124.75 0,-64.27 58.97,-72.31 117,-55.25 236.21,-20.21 1142.73,-12.14 1330.87,-10.84"/>
<polygon fill="#63b8ff" stroke="#63b8ff" points="1195.46,-874.93 1205.5,-871.53 1195.54,-867.93 1195.46,-874.93"/>
</g>
<!-- Node7 -->
<g id="node7" class="node">
<title>Node7</title>
<g id="a_node7"><a xlink:href="v8-inspector_8h.html" target="_top" xlink:title=" ">
<polygon fill="white" stroke="#666666" points="480.25,-201.88 369.75,-201.88 369.75,-182.62 480.25,-182.62 480.25,-201.88"/>
<text text-anchor="middle" x="425" y="-188.38" font-family="Helvetica,sans-Serif" font-size="10.00">include/v8&#45;inspector.h</text>
</a>
</g>
</g>
<!-- Node1&#45;&gt;Node7 -->
<g id="edge103" class="edge">
<title>Node1&#45;&gt;Node7</title>
<path fill="none" stroke="#63b8ff" d="M1195.61,-871.11C956.59,-867.53 205.3,-854.18 161,-827.5 125.43,-806.08 114,-788.28 114,-746.75 114,-746.75 114,-746.75 114,-423.5 114,-350.44 338.49,-235.32 406.01,-202.35"/>
<polygon fill="#63b8ff" stroke="#63b8ff" points="1195.54,-874.63 1205.6,-871.28 1195.65,-867.63 1195.54,-874.63"/>
</g>
<!-- Node9 -->
<g id="node9" class="node">
<title>Node9</title>
<g id="a_node9"><a xlink:href="v8-metrics_8h.html" target="_top" xlink:title=" ">
<polygon fill="white" stroke="#666666" points="601.5,-201.88 498.5,-201.88 498.5,-182.62 601.5,-182.62 601.5,-201.88"/>
<text text-anchor="middle" x="550" y="-188.38" font-family="Helvetica,sans-Serif" font-size="10.00">include/v8&#45;metrics.h</text>
</a>
</g>
</g>
<!-- Node1&#45;&gt;Node9 -->
<g id="edge107" class="edge">
<title>Node1&#45;&gt;Node9</title>
<path fill="none" stroke="#63b8ff" d="M1195.77,-870.99C962.63,-867.08 242.7,-852.98 200,-827.5 164.15,-806.1 152,-788.5 152,-746.75 152,-746.75 152,-746.75 152,-423.5 152,-388.08 163.31,-376.08 191,-354 235.2,-318.75 260.62,-339.27 313,-318 358.13,-299.67 488.12,-227.8 533.85,-202.29"/>
<polygon fill="#63b8ff" stroke="#63b8ff" points="1195.44,-874.5 1205.5,-871.17 1195.56,-867.5 1195.44,-874.5"/>
</g>
<!-- Node10 -->
<g id="node10" class="node">
<title>Node10</title>
<g id="a_node10"><a xlink:href="v8-snapshot_8h.html" target="_top" xlink:title=" ">
<polygon fill="white" stroke="#666666" points="730.25,-201.88 619.75,-201.88 619.75,-182.62 730.25,-182.62 730.25,-201.88"/>
<text text-anchor="middle" x="675" y="-188.38" font-family="Helvetica,sans-Serif" font-size="10.00">include/v8&#45;snapshot.h</text>
</a>
</g>
</g>
<!-- Node1&#45;&gt;Node10 -->
<g id="edge124" class="edge">
<title>Node1&#45;&gt;Node10</title>
<path fill="none" stroke="#63b8ff" d="M1195.51,-870.81C968.22,-866.45 282.18,-851.38 241,-827.5 204.28,-806.21 190,-789.2 190,-746.75 190,-746.75 190,-746.75 190,-423.5 190,-391.48 186.06,-376.34 209,-354 257.19,-307.08 291.87,-338.29 356,-318 471.37,-281.49 604.9,-224.2 654.81,-202.23"/>
<polygon fill="#63b8ff" stroke="#63b8ff" points="1195.24,-874.33 1205.3,-871.02 1195.37,-867.33 1195.24,-874.33"/>
</g>
<!-- Node11 -->
<g id="node11" class="node">
<title>Node11</title>
<g id="a_node11"><a xlink:href="v8-context_8h.html" target="_top" xlink:title=" ">
<polygon fill="white" stroke="#666666" points="460.12,-135.38 357.88,-135.38 357.88,-116.12 460.12,-116.12 460.12,-135.38"/>
<text text-anchor="middle" x="409" y="-121.88" font-family="Helvetica,sans-Serif" font-size="10.00">include/v8&#45;context.h</text>
</a>
</g>
</g>
<!-- Node1&#45;&gt;Node11 -->
<g id="edge38" class="edge">
<title>Node1&#45;&gt;Node11</title>
<path fill="none" stroke="#63b8ff" d="M1195.52,-871.23C950.82,-867.97 167.9,-855.39 122,-827.5 86.7,-806.05 76,-788.05 76,-746.75 76,-746.75 76,-746.75 76,-362.62 76,-323.22 327.55,-174.13 393.39,-135.79"/>
<polygon fill="#63b8ff" stroke="#63b8ff" points="1195.37,-874.74 1205.42,-871.38 1195.47,-867.74 1195.37,-874.74"/>
</g>
<!-- Node12 -->
<g id="node12" class="node">
<title>Node12</title>
<g id="a_node12"><a xlink:href="v8-proxy_8h.html" target="_top" xlink:title=" ">
<polygon fill="white" stroke="#666666" points="495.62,-74.5 402.38,-74.5 402.38,-55.25 495.62,-55.25 495.62,-74.5"/>
<text text-anchor="middle" x="449" y="-61" font-family="Helvetica,sans-Serif" font-size="10.00">include/v8&#45;proxy.h</text>
</a>
</g>
</g>
<!-- Node1&#45;&gt;Node12 -->
<g id="edge121" class="edge">
<title>Node1&#45;&gt;Node12</title>
<path fill="none" stroke="#63b8ff" d="M1195.64,-871.33C945.73,-868.33 131.6,-856.38 84,-827.5 48.69,-806.08 38,-788.05 38,-746.75 38,-746.75 38,-746.75 38,-362.62 38,-181.99 302.2,-100.25 406.95,-74.94"/>
<polygon fill="#63b8ff" stroke="#63b8ff" points="1195.37,-874.84 1205.41,-871.46 1195.45,-867.84 1195.37,-874.84"/>
</g>
<!-- Node13 -->
<g id="node13" class="node">
<title>Node13</title>
<g id="a_node13"><a xlink:href="v8-typed-array_8h.html" target="_top" xlink:title=" ">
<polygon fill="white" stroke="#666666" points="564,-495 446,-495 446,-475.75 564,-475.75 564,-495"/>
<text text-anchor="middle" x="505" y="-481.5" font-family="Helvetica,sans-Serif" font-size="10.00">include/v8&#45;typed&#45;array.h</text>
</a>
</g>
</g>
<!-- Node1&#45;&gt;Node13 -->
<g id="edge133" class="edge">
<title>Node1&#45;&gt;Node13</title>
<path fill="none" stroke="#63b8ff" d="M1195.5,-872.56C1014.88,-873.01 555.53,-869.91 502,-827.5 472.65,-804.25 478,-784.19 478,-746.75 478,-746.75 478,-746.75 478,-611.75 478,-567.22 494.48,-515.74 501.69,-495.36"/>
<polygon fill="#63b8ff" stroke="#63b8ff" points="1195.48,-876.06 1205.47,-872.53 1195.46,-869.06 1195.48,-876.06"/>
</g>
<!-- Node14 -->
<g id="node14" class="node">
<title>Node14</title>
<g id="a_node14"><a xlink:href="v8-fast-api-calls_8h.html" target="_top" xlink:title=" ">
<polygon fill="white" stroke="#666666" points="465.75,-439.75 370.25,-439.75 370.25,-409.25 465.75,-409.25 465.75,-439.75"/>
<text text-anchor="start" x="378.25" y="-426.25" font-family="Helvetica,sans-Serif" font-size="10.00">include/v8&#45;fast&#45;api</text>
<text text-anchor="middle" x="418" y="-415" font-family="Helvetica,sans-Serif" font-size="10.00">&#45;calls.h</text>
</a>
</g>
</g>
<!-- Node1&#45;&gt;Node14 -->
<g id="edge99" class="edge">
<title>Node1&#45;&gt;Node14</title>
<path fill="none" stroke="#63b8ff" d="M1195.61,-870.63C1012.88,-866.48 542.76,-853.41 477,-827.5 424.81,-806.94 380,-802.84 380,-746.75 380,-746.75 380,-746.75 380,-545.25 380,-505.77 399,-462.26 410.13,-440.15"/>
<polygon fill="#63b8ff" stroke="#63b8ff" points="1195.37,-874.15 1205.45,-870.87 1195.53,-867.15 1195.37,-874.15"/>
</g>
<!-- Node15 -->
<g id="node15" class="node">
<title>Node15</title>
<g id="a_node15"><a xlink:href="v8-callbacks_8h.html" target="_top" xlink:title=" ">
<polygon fill="white" stroke="#666666" points="808,-495 696,-495 696,-475.75 808,-475.75 808,-495"/>
<text text-anchor="middle" x="752" y="-481.5" font-family="Helvetica,sans-Serif" font-size="10.00">include/v8&#45;callbacks.h</text>
</a>
</g>
</g>
<!-- Node1&#45;&gt;Node15 -->
<g id="edge20" class="edge">
<title>Node1&#45;&gt;Node15</title>
<path fill="none" stroke="#63b8ff" d="M1195.67,-871.87C1048.77,-870.6 726.48,-863.68 693,-827.5 600.74,-727.81 717.36,-538.28 745.96,-495.22"/>
<polygon fill="#63b8ff" stroke="#63b8ff" points="1195.33,-875.38 1205.36,-871.96 1195.39,-868.38 1195.33,-875.38"/>
</g>
<!-- Node16 -->
<g id="node16" class="node">
<title>Node16</title>
<g id="a_node16"><a xlink:href="v8-message_8h.html" target="_top" xlink:title=" ">
<polygon fill="white" stroke="#666666" points="806.25,-434.12 695.75,-434.12 695.75,-414.88 806.25,-414.88 806.25,-434.12"/>
<text text-anchor="middle" x="751" y="-420.62" font-family="Helvetica,sans-Serif" font-size="10.00">include/v8&#45;message.h</text>
</a>
</g>
</g>
<!-- Node1&#45;&gt;Node16 -->
<g id="edge106" class="edge">
<title>Node1&#45;&gt;Node16</title>
<path fill="none" stroke="#63b8ff" d="M1195.37,-871.47C1044.73,-869.43 708.98,-861.12 670,-827.5 610.74,-776.39 647.5,-543.31 687,-475.75 697.84,-457.21 718.37,-442.97 733.26,-434.46"/>
<polygon fill="#63b8ff" stroke="#63b8ff" points="1195.28,-874.98 1205.33,-871.61 1195.38,-867.98 1195.28,-874.98"/>
</g>
<!-- Node17 -->
<g id="node17" class="node">
<title>Node17</title>
<g id="a_node17"><a xlink:href="v8-function_8h.html" target="_top" xlink:title=" ">
<polygon fill="white" stroke="#666666" points="1667.62,-373.25 1562.38,-373.25 1562.38,-354 1667.62,-354 1667.62,-373.25"/>
<text text-anchor="middle" x="1615" y="-359.75" font-family="Helvetica,sans-Serif" font-size="10.00">include/v8&#45;function.h</text>
</a>
</g>
</g>
<!-- Node1&#45;&gt;Node17 -->
<g id="edge102" class="edge">
<title>Node1&#45;&gt;Node17</title>
<path fill="none" stroke="#63b8ff" d="M1340.54,-870.28C1526.08,-865.25 2008.18,-850.16 2077,-827.5 2139.12,-807.05 2200,-812.14 2200,-746.75 2200,-746.75 2200,-746.75 2200,-611.75 2200,-574.88 2207.67,-556.45 2181,-531 2117.88,-470.76 2072.32,-517.46 1988,-495 1851.78,-458.71 1693.9,-396.67 1636.92,-373.61"/>
<polygon fill="#63b8ff" stroke="#63b8ff" points="1340.45,-866.81 1330.55,-870.57 1340.64,-873.8 1340.45,-866.81"/>
</g>
<!-- Node18 -->
<g id="node18" class="node">
<title>Node18</title>
<g id="a_node18"><a xlink:href="v8-json_8h.html" target="_top" xlink:title=" ">
<polygon fill="white" stroke="#666666" points="306.38,-373.25 217.62,-373.25 217.62,-354 306.38,-354 306.38,-373.25"/>
<text text-anchor="middle" x="262" y="-359.75" font-family="Helvetica,sans-Serif" font-size="10.00">include/v8&#45;json.h</text>
</a>
</g>
</g>
<!-- Node1&#45;&gt;Node18 -->
<g id="edge105" class="edge">
<title>Node1&#45;&gt;Node18</title>
<path fill="none" stroke="#63b8ff" d="M1195.68,-872.41C982.47,-872.77 366.32,-870.07 287,-827.5 247.84,-806.48 228,-791.2 228,-746.75 228,-746.75 228,-746.75 228,-484.38 228,-441.58 248.34,-393.35 257.56,-373.69"/>
<polygon fill="#63b8ff" stroke="#63b8ff" points="1195.44,-875.91 1205.43,-872.39 1195.43,-868.91 1195.44,-875.91"/>
</g>
<!-- Node19 -->
<g id="node19" class="node">
<title>Node19</title>
<g id="a_node19"><a xlink:href="v8-profiler_8h.html" target="_top" xlink:title=" ">
<polygon fill="white" stroke="#666666" points="821.62,-373.25 722.38,-373.25 722.38,-354 821.62,-354 821.62,-373.25"/>
<text text-anchor="middle" x="772" y="-359.75" font-family="Helvetica,sans-Serif" font-size="10.00">include/v8&#45;profiler.h</text>
</a>
</g>
</g>
<!-- Node1&#45;&gt;Node19 -->
<g id="edge119" class="edge">
<title>Node1&#45;&gt;Node19</title>
<path fill="none" stroke="#63b8ff" d="M1195.79,-871.94C1000.17,-870.95 470.01,-864.81 401,-827.5 361.9,-806.36 342,-791.2 342,-746.75 342,-746.75 342,-746.75 342,-484.38 342,-449.93 335.01,-431.85 361,-409.25 367.76,-403.37 614.2,-379.5 722.17,-369.29"/>
<polygon fill="#63b8ff" stroke="#63b8ff" points="1195.51,-875.44 1205.52,-871.99 1195.54,-868.44 1195.51,-875.44"/>
</g>
<!-- Node20 -->
<g id="node20" class="node">
<title>Node20</title>
<g id="a_node20"><a xlink:href="v8-script_8h.html" target="_top" xlink:title=" ">
<polygon fill="white" stroke="#666666" points="666.38,-373.25 571.62,-373.25 571.62,-354 666.38,-354 666.38,-373.25"/>
<text text-anchor="middle" x="619" y="-359.75" font-family="Helvetica,sans-Serif" font-size="10.00">include/v8&#45;script.h</text>
</a>
</g>
</g>
<!-- Node1&#45;&gt;Node20 -->
<g id="edge123" class="edge">
<title>Node1&#45;&gt;Node20</title>
<path fill="none" stroke="#63b8ff" d="M1195.52,-871.38C993.13,-868.92 431.7,-859.28 355,-827.5 305.66,-807.05 266,-800.16 266,-746.75 266,-746.75 266,-746.75 266,-545.25 266,-476.65 283.09,-449 339,-409.25 375.46,-383.33 501.28,-371.72 571.2,-367.17"/>
<polygon fill="#63b8ff" stroke="#63b8ff" points="1195.28,-874.89 1205.32,-871.51 1195.37,-867.89 1195.28,-874.89"/>
</g>
<!-- Node22 -->
<g id="node22" class="node">
<title>Node22</title>
<g id="a_node22"><a xlink:href="v8-container_8h.html" target="_top" xlink:title=" ">
<polygon fill="white" stroke="#666666" points="2004.25,-555.88 1893.75,-555.88 1893.75,-536.62 2004.25,-536.62 2004.25,-555.88"/>
<text text-anchor="middle" x="1949" y="-542.38" font-family="Helvetica,sans-Serif" font-size="10.00">include/v8&#45;container.h</text>
</a>
</g>
</g>
<!-- Node1&#45;&gt;Node22 -->
<g id="edge36" class="edge">
<title>Node1&#45;&gt;Node22</title>
<path fill="none" stroke="#63b8ff" d="M1340.63,-865.87C1511.95,-850.13 1927,-805.9 1927,-746.75 1927,-746.75 1927,-746.75 1927,-678.25 1927,-631.9 1940.56,-577.57 1946.39,-556.37"/>
<polygon fill="#63b8ff" stroke="#63b8ff" points="1340.34,-862.47 1330.7,-866.86 1340.98,-869.44 1340.34,-862.47"/>
</g>
<!-- Node23 -->
<g id="node23" class="node">
<title>Node23</title>
<g id="a_node23"><a xlink:href="v8-data_8h.html" target="_top" xlink:title=" ">
<polygon fill="white" stroke="#666666" points="791.75,-821.88 702.25,-821.88 702.25,-802.62 791.75,-802.62 791.75,-821.88"/>
<text text-anchor="middle" x="747" y="-808.38" font-family="Helvetica,sans-Serif" font-size="10.00">include/v8&#45;data.h</text>
</a>
</g>
</g>
<!-- Node1&#45;&gt;Node23 -->
<g id="edge39" class="edge">
<title>Node1&#45;&gt;Node23</title>
<path fill="none" stroke="#63b8ff" d="M1195.58,-868.29C1104.27,-862.73 942.69,-850.49 806,-827.5 797.89,-826.14 789.25,-824.28 781.15,-822.36"/>
<polygon fill="#63b8ff" stroke="#63b8ff" points="1195.17,-871.83 1205.36,-868.94 1195.59,-864.84 1195.17,-871.83"/>
</g>
<!-- Node24 -->
<g id="node24" class="node">
<title>Node24</title>
<g id="a_node24"><a xlink:href="v8-primitive_8h.html" target="_top" xlink:title=" ">
<polygon fill="white" stroke="#666666" points="1237.75,-688.88 1130.25,-688.88 1130.25,-669.62 1237.75,-669.62 1237.75,-688.88"/>
<text text-anchor="middle" x="1184" y="-675.38" font-family="Helvetica,sans-Serif" font-size="10.00">include/v8&#45;primitive.h</text>
</a>
</g>
</g>
<!-- Node1&#45;&gt;Node24 -->
<g id="edge118" class="edge">
<title>Node1&#45;&gt;Node24</title>
<path fill="none" stroke="#63b8ff" d="M1259.71,-853.18C1241.9,-812.51 1200.6,-718.18 1187.83,-689.01"/>
<polygon fill="#63b8ff" stroke="#63b8ff" points="1256.84,-854.37 1264.06,-862.13 1263.26,-851.56 1256.84,-854.37"/>
</g>
<!-- Node25 -->
<g id="node25" class="node">
<title>Node25</title>
<g id="a_node25"><a xlink:href="v8-extension_8h.html" target="_top" xlink:title=" ">
<polygon fill="white" stroke="#666666" points="1324,-622.38 1212,-622.38 1212,-603.12 1324,-603.12 1324,-622.38"/>
<text text-anchor="middle" x="1268" y="-608.88" font-family="Helvetica,sans-Serif" font-size="10.00">include/v8&#45;extension.h</text>
</a>
</g>
</g>
<!-- Node1&#45;&gt;Node25 -->
<g id="edge98" class="edge">
<title>Node1&#45;&gt;Node25</title>
<path fill="none" stroke="#63b8ff" d="M1268,-852.5C1268,-800.4 1268,-660.02 1268,-622.87"/>
<polygon fill="#63b8ff" stroke="#63b8ff" points="1264.5,-852.23 1268,-862.23 1271.5,-852.23 1264.5,-852.23"/>
</g>
<!-- Node26 -->
<g id="node26" class="node">
<title>Node26</title>
<g id="a_node26"><a xlink:href="v8-function-callback_8h.html" target="_top" xlink:title=" ">
<polygon fill="white" stroke="#666666" points="1553.88,-628 1456.12,-628 1456.12,-597.5 1553.88,-597.5 1553.88,-628"/>
<text text-anchor="start" x="1464.12" y="-614.5" font-family="Helvetica,sans-Serif" font-size="10.00">include/v8&#45;function</text>
<text text-anchor="middle" x="1505" y="-603.25" font-family="Helvetica,sans-Serif" font-size="10.00">&#45;callback.h</text>
</a>
</g>
</g>
<!-- Node1&#45;&gt;Node26 -->
<g id="edge101" class="edge">
<title>Node1&#45;&gt;Node26</title>
<path fill="none" stroke="#63b8ff" d="M1339.83,-860.17C1362.39,-853.56 1386.07,-843.33 1404,-827.5 1467.54,-771.41 1494.29,-666.73 1502.26,-628.34"/>
<polygon fill="#63b8ff" stroke="#63b8ff" points="1338.96,-857.05 1330.22,-863.05 1340.79,-863.81 1338.96,-857.05"/>
</g>
<!-- Node27 -->
<g id="node27" class="node">
<title>Node27</title>
<g id="a_node27"><a xlink:href="v8-template_8h.html" target="_top" xlink:title=" ">
<polygon fill="white" stroke="#666666" points="1746.12,-495 1637.88,-495 1637.88,-475.75 1746.12,-475.75 1746.12,-495"/>
<text text-anchor="middle" x="1692" y="-481.5" font-family="Helvetica,sans-Serif" font-size="10.00">include/v8&#45;template.h</text>
</a>
</g>
</g>
<!-- Node1&#45;&gt;Node27 -->
<g id="edge126" class="edge">
<title>Node1&#45;&gt;Node27</title>
<path fill="none" stroke="#63b8ff" d="M1340.29,-867.81C1530.79,-855.48 2032,-816.43 2032,-746.75 2032,-746.75 2032,-746.75 2032,-611.75 2032,-574.88 2040.25,-555.83 2013,-531 1993.66,-513.38 1832.97,-497.81 1746.54,-490.61"/>
<polygon fill="#63b8ff" stroke="#63b8ff" points="1340.31,-864.37 1330.55,-868.5 1340.75,-871.35 1340.31,-864.37"/>
</g>
<!-- Node29 -->
<g id="node29" class="node">
<title>Node29</title>
<g id="a_node29"><a xlink:href="v8-object_8h.html" target="_top" xlink:title=" ">
<polygon fill="white" stroke="#666666" points="1877.5,-622.38 1780.5,-622.38 1780.5,-603.12 1877.5,-603.12 1877.5,-622.38"/>
<text text-anchor="middle" x="1829" y="-608.88" font-family="Helvetica,sans-Serif" font-size="10.00">include/v8&#45;object.h</text>
</a>
</g>
</g>
<!-- Node1&#45;&gt;Node29 -->
<g id="edge110" class="edge">
<title>Node1&#45;&gt;Node29</title>
<path fill="none" stroke="#63b8ff" d="M1340.39,-866.25C1390.9,-860.45 1459.16,-849.15 1516,-827.5 1650.67,-776.2 1783.99,-656.24 1819.71,-622.64"/>
<polygon fill="#63b8ff" stroke="#63b8ff" points="1340.13,-862.87 1330.58,-867.44 1340.9,-869.83 1340.13,-862.87"/>
</g>
<!-- Node30 -->
<g id="node30" class="node">
<title>Node30</title>
<g id="a_node30"><a xlink:href="v8-date_8h.html" target="_top" xlink:title=" ">
<polygon fill="white" stroke="#666666" points="2317.75,-555.88 2228.25,-555.88 2228.25,-536.62 2317.75,-536.62 2317.75,-555.88"/>
<text text-anchor="middle" x="2273" y="-542.38" font-family="Helvetica,sans-Serif" font-size="10.00">include/v8&#45;date.h</text>
</a>
</g>
</g>
<!-- Node1&#45;&gt;Node30 -->
<g id="edge92" class="edge">
<title>Node1&#45;&gt;Node30</title>
<path fill="none" stroke="#63b8ff" d="M1340.5,-870.98C1555.98,-867.29 2179.77,-854.31 2214,-827.5 2243.47,-804.41 2238,-784.19 2238,-746.75 2238,-746.75 2238,-746.75 2238,-678.25 2238,-630.93 2259.58,-577.16 2268.85,-556.24"/>
<polygon fill="#63b8ff" stroke="#63b8ff" points="1340.57,-867.5 1330.63,-871.17 1340.69,-874.5 1340.57,-867.5"/>
</g>
<!-- Node31 -->
<g id="node31" class="node">
<title>Node31</title>
<g id="a_node31"><a xlink:href="v8-exception_8h.html" target="_top" xlink:title=" ">
<polygon fill="white" stroke="#666666" points="2172,-555.88 2060,-555.88 2060,-536.62 2172,-536.62 2172,-555.88"/>
<text text-anchor="middle" x="2116" y="-542.38" font-family="Helvetica,sans-Serif" font-size="10.00">include/v8&#45;exception.h</text>
</a>
</g>
</g>
<!-- Node1&#45;&gt;Node31 -->
<g id="edge97" class="edge">
<title>Node1&#45;&gt;Node31</title>
<path fill="none" stroke="#63b8ff" d="M1340.48,-871.84C1522.18,-870.59 1986.82,-863.82 2046,-827.5 2081.39,-805.78 2093,-788.28 2093,-746.75 2093,-746.75 2093,-746.75 2093,-678.25 2093,-631.84 2107.18,-577.55 2113.27,-556.36"/>
<polygon fill="#63b8ff" stroke="#63b8ff" points="1340.68,-868.35 1330.7,-871.91 1340.73,-875.35 1340.68,-868.35"/>
</g>
<!-- Node32 -->
<g id="node32" class="node">
<title>Node32</title>
<g id="a_node32"><a xlink:href="v8-primitive-object_8h.html" target="_top" xlink:title=" ">
<polygon fill="white" stroke="#666666" points="2436,-561.5 2336,-561.5 2336,-531 2436,-531 2436,-561.5"/>
<text text-anchor="start" x="2344" y="-548" font-family="Helvetica,sans-Serif" font-size="10.00">include/v8&#45;primitive</text>
<text text-anchor="middle" x="2386" y="-536.75" font-family="Helvetica,sans-Serif" font-size="10.00">&#45;object.h</text>
</a>
</g>
</g>
<!-- Node1&#45;&gt;Node32 -->
<g id="edge117" class="edge">
<title>Node1&#45;&gt;Node32</title>
<path fill="none" stroke="#63b8ff" d="M1340.3,-870.83C1558.99,-866.65 2200.81,-852.32 2238,-827.5 2270.99,-805.48 2276,-786.41 2276,-746.75 2276,-746.75 2276,-746.75 2276,-678.25 2276,-640.81 2276.88,-626.95 2300,-597.5 2312.28,-581.86 2330.88,-570.13 2347.65,-561.95"/>
<polygon fill="#63b8ff" stroke="#63b8ff" points="1340.52,-867.34 1330.59,-871.03 1340.66,-874.34 1340.52,-867.34"/>
</g>
<!-- Node33 -->
<g id="node33" class="node">
<title>Node33</title>
<g id="a_node33"><a xlink:href="v8-promise_8h.html" target="_top" xlink:title=" ">
<polygon fill="white" stroke="#666666" points="1431.62,-555.88 1326.38,-555.88 1326.38,-536.62 1431.62,-536.62 1431.62,-555.88"/>
<text text-anchor="middle" x="1379" y="-542.38" font-family="Helvetica,sans-Serif" font-size="10.00">include/v8&#45;promise.h</text>
</a>
</g>
</g>
<!-- Node1&#45;&gt;Node33 -->
<g id="edge120" class="edge">
<title>Node1&#45;&gt;Node33</title>
<path fill="none" stroke="#63b8ff" d="M1316.45,-859.38C1334.19,-852.54 1353.07,-842.35 1366,-827.5 1390.58,-799.26 1390,-784.19 1390,-746.75 1390,-746.75 1390,-746.75 1390,-678.25 1390,-632.15 1383.15,-577.24 1380.26,-556.12"/>
<polygon fill="#63b8ff" stroke="#63b8ff" points="1315.43,-856.38 1307.18,-863.04 1317.78,-862.98 1315.43,-856.38"/>
</g>
<!-- Node34 -->
<g id="node34" class="node">
<title>Node34</title>
<g id="a_node34"><a xlink:href="v8-statistics_8h.html" target="_top" xlink:title=" ">
<polygon fill="white" stroke="#666666" points="1430.25,-318 1319.75,-318 1319.75,-298.75 1430.25,-298.75 1430.25,-318"/>
<text text-anchor="middle" x="1375" y="-304.5" font-family="Helvetica,sans-Serif" font-size="10.00">include/v8&#45;statistics.h</text>
</a>
</g>
</g>
<!-- Node1&#45;&gt;Node34 -->
<g id="edge125" class="edge">
<title>Node1&#45;&gt;Node34</title>
<path fill="none" stroke="#63b8ff" d="M1287.77,-856.31C1312.6,-834.51 1352,-792.69 1352,-746.75 1352,-746.75 1352,-746.75 1352,-678.25 1352,-641.38 1344.76,-632.44 1333,-597.5 1327.41,-580.91 1320.63,-578.63 1317,-561.5 1314.19,-548.24 1315.27,-544.44 1317,-531 1327.86,-446.58 1361.09,-348.43 1371.71,-318.5"/>
<polygon fill="#63b8ff" stroke="#63b8ff" points="1286.05,-854.02 1280.68,-863.15 1290.57,-859.36 1286.05,-854.02"/>
</g>
<!-- Node35 -->
<g id="node35" class="node">
<title>Node35</title>
<g id="a_node35"><a xlink:href="v8-regexp_8h.html" target="_top" xlink:title=" ">
<polygon fill="white" stroke="#666666" points="2553.62,-555.88 2454.38,-555.88 2454.38,-536.62 2553.62,-536.62 2553.62,-555.88"/>
<text text-anchor="middle" x="2504" y="-542.38" font-family="Helvetica,sans-Serif" font-size="10.00">include/v8&#45;regexp.h</text>
</a>
</g>
</g>
<!-- Node1&#45;&gt;Node35 -->
<g id="edge122" class="edge">
<title>Node1&#45;&gt;Node35</title>
<path fill="none" stroke="#63b8ff" d="M1340.34,-870.77C1563.15,-866.33 2226.42,-851.2 2266,-827.5 2301.82,-806.05 2314,-788.5 2314,-746.75 2314,-746.75 2314,-746.75 2314,-678.25 2314,-637.48 2434.06,-578.75 2483.3,-556.37"/>
<polygon fill="#63b8ff" stroke="#63b8ff" points="1340.37,-867.28 1330.44,-870.98 1340.5,-874.28 1340.37,-867.28"/>
</g>
<!-- Node36 -->
<g id="node36" class="node">
<title>Node36</title>
<g id="a_node36"><a xlink:href="v8-wasm_8h.html" target="_top" xlink:title=" ">
<polygon fill="white" stroke="#666666" points="2668.5,-555.88 2571.5,-555.88 2571.5,-536.62 2668.5,-536.62 2668.5,-555.88"/>
<text text-anchor="middle" x="2620" y="-542.38" font-family="Helvetica,sans-Serif" font-size="10.00">include/v8&#45;wasm.h</text>
</a>
</g>
</g>
<!-- Node1&#45;&gt;Node36 -->
<g id="edge137" class="edge">
<title>Node1&#45;&gt;Node36</title>
<path fill="none" stroke="#63b8ff" d="M1340.1,-871.88C1607.33,-870.68 2528.49,-863.91 2579,-827.5 2610.06,-805.11 2609,-785.04 2609,-746.75 2609,-746.75 2609,-746.75 2609,-678.25 2609,-632.15 2615.85,-577.24 2618.74,-556.12"/>
<polygon fill="#63b8ff" stroke="#63b8ff" points="1340.35,-868.38 1330.37,-871.92 1340.39,-875.38 1340.35,-868.38"/>
</g>
<!-- Node37 -->
<g id="node37" class="node">
<title>Node37</title>
<g id="a_node37"><a xlink:href="v8-value_8h.html" target="_top" xlink:title=" ">
<polygon fill="white" stroke="#666666" points="1119,-755.38 1025,-755.38 1025,-736.12 1119,-736.12 1119,-755.38"/>
<text text-anchor="middle" x="1072" y="-741.88" font-family="Helvetica,sans-Serif" font-size="10.00">include/v8&#45;value.h</text>
</a>
</g>
</g>
<!-- Node1&#45;&gt;Node37 -->
<g id="edge136" class="edge">
<title>Node1&#45;&gt;Node37</title>
<path fill="none" stroke="#63b8ff" d="M1242.34,-857.86C1227.24,-849.31 1207.85,-838.08 1191,-827.5 1151.46,-802.67 1106.19,-771.03 1084.66,-755.78"/>
<polygon fill="#63b8ff" stroke="#63b8ff" points="1240.15,-861.2 1250.58,-863.05 1243.58,-855.1 1240.15,-861.2"/>
</g>
<!-- Node40 -->
<g id="node40" class="node">
<title>Node40</title>
<g id="a_node40"><a xlink:href="v8-embedder-state-scope_8h.html" target="_top" xlink:title=" ">
<polygon fill="white" stroke="#666666" points="2448,-827.5 2342,-827.5 2342,-797 2448,-797 2448,-827.5"/>
<text text-anchor="start" x="2350" y="-814" font-family="Helvetica,sans-Serif" font-size="10.00">include/v8&#45;embedder</text>
<text text-anchor="middle" x="2395" y="-802.75" font-family="Helvetica,sans-Serif" font-size="10.00">&#45;state&#45;scope.h</text>
</a>
</g>
</g>
<!-- Node1&#45;&gt;Node40 -->
<g id="edge93" class="edge">
<title>Node1&#45;&gt;Node40</title>
<path fill="none" stroke="#63b8ff" d="M1340.17,-870.66C1546.49,-866.23 2136.25,-851.75 2328,-827.5 2332.48,-826.93 2337.11,-826.22 2341.74,-825.42"/>
<polygon fill="#63b8ff" stroke="#63b8ff" points="1340.39,-867.18 1330.47,-870.89 1340.54,-874.18 1340.39,-867.18"/>
</g>
<!-- Node42 -->
<g id="node42" class="node">
<title>Node42</title>
<g id="a_node42"><a xlink:href="v8-forward_8h.html" target="_top" xlink:title=" ">
<polygon fill="white" stroke="#666666" points="2569.5,-821.88 2466.5,-821.88 2466.5,-802.62 2569.5,-802.62 2569.5,-821.88"/>
<text text-anchor="middle" x="2518" y="-808.38" font-family="Helvetica,sans-Serif" font-size="10.00">include/v8&#45;forward.h</text>
</a>
</g>
</g>
<!-- Node1&#45;&gt;Node42 -->
<g id="edge100" class="edge">
<title>Node1&#45;&gt;Node42</title>
<path fill="none" stroke="#63b8ff" d="M1340.37,-871.23C1563.58,-868.18 2239.44,-856.72 2457,-827.5 2465.95,-826.3 2475.5,-824.38 2484.34,-822.33"/>
<polygon fill="#63b8ff" stroke="#63b8ff" points="1340.4,-867.74 1330.45,-871.38 1340.5,-874.74 1340.4,-867.74"/>
</g>
<!-- Node43 -->
<g id="node43" class="node">
<title>Node43</title>
<g id="a_node43"><a xlink:href="v8-microtask-queue_8h.html" target="_top" xlink:title=" ">
<polygon fill="white" stroke="#666666" points="2867,-761 2761,-761 2761,-730.5 2867,-730.5 2867,-761"/>
<text text-anchor="start" x="2769" y="-747.5" font-family="Helvetica,sans-Serif" font-size="10.00">include/v8&#45;microtask</text>
<text text-anchor="middle" x="2814" y="-736.25" font-family="Helvetica,sans-Serif" font-size="10.00">&#45;queue.h</text>
</a>
</g>
</g>
<!-- Node1&#45;&gt;Node43 -->
<g id="edge108" class="edge">
<title>Node1&#45;&gt;Node43</title>
<path fill="none" stroke="#63b8ff" d="M1340.52,-872.12C1612.09,-871.79 2560.02,-867.75 2689,-827.5 2732.65,-813.88 2775.7,-780.49 2798.11,-761.18"/>
<polygon fill="#63b8ff" stroke="#63b8ff" points="1340.61,-868.62 1330.62,-872.13 1340.62,-875.62 1340.61,-868.62"/>
</g>
<!-- Node44 -->
<g id="node44" class="node">
<title>Node44</title>
<g id="a_node44"><a xlink:href="v8-persistent-handle_8h.html" target="_top" xlink:title=" ">
<polygon fill="white" stroke="#666666" points="1678,-694.5 1572,-694.5 1572,-664 1678,-664 1678,-694.5"/>
<text text-anchor="start" x="1580" y="-681" font-family="Helvetica,sans-Serif" font-size="10.00">include/v8&#45;persistent</text>
<text text-anchor="middle" x="1625" y="-669.75" font-family="Helvetica,sans-Serif" font-size="10.00">&#45;handle.h</text>
</a>
</g>
</g>
<!-- Node1&#45;&gt;Node44 -->
<g id="edge111" class="edge">
<title>Node1&#45;&gt;Node44</title>
<path fill="none" stroke="#63b8ff" d="M1340.26,-867.55C1383.31,-862.33 1437.78,-851.19 1481,-827.5 1542.77,-793.63 1594.74,-724.69 1615.42,-694.71"/>
<polygon fill="#63b8ff" stroke="#63b8ff" points="1340.13,-864.16 1330.58,-868.75 1340.91,-871.11 1340.13,-864.16"/>
</g>
<!-- Node45 -->
<g id="node45" class="node">
<title>Node45</title>
<g id="a_node45"><a xlink:href="v8-traced-handle_8h.html" target="_top" xlink:title=" ">
<polygon fill="white" stroke="#666666" points="2766.62,-688.88 2637.38,-688.88 2637.38,-669.62 2766.62,-669.62 2766.62,-688.88"/>
<text text-anchor="middle" x="2702" y="-675.38" font-family="Helvetica,sans-Serif" font-size="10.00">include/v8&#45;traced&#45;handle.h</text>
</a>
</g>
</g>
<!-- Node1&#45;&gt;Node45 -->
<g id="edge127" class="edge">
<title>Node1&#45;&gt;Node45</title>
<path fill="none" stroke="#63b8ff" d="M1340.51,-871.73C1613.71,-870 2568.21,-861.52 2623,-827.5 2675,-795.21 2694.95,-716.12 2700.36,-689.31"/>
<polygon fill="#63b8ff" stroke="#63b8ff" points="1340.52,-868.24 1330.55,-871.8 1340.57,-875.24 1340.52,-868.24"/>
</g>
<!-- Node48 -->
<g id="node48" class="node">
<title>Node48</title>
<g id="a_node48"><a xlink:href="v8-value-serializer_8h.html" target="_top" xlink:title=" ">
<polygon fill="white" stroke="#666666" points="3002.62,-262.75 2867.38,-262.75 2867.38,-243.5 3002.62,-243.5 3002.62,-262.75"/>
<text text-anchor="middle" x="2935" y="-249.25" font-family="Helvetica,sans-Serif" font-size="10.00">include/v8&#45;value&#45;serializer.h</text>
</a>
</g>
</g>
<!-- Node1&#45;&gt;Node48 -->
<g id="edge134" class="edge">
<title>Node1&#45;&gt;Node48</title>
<path fill="none" stroke="#63b8ff" d="M1340.31,-871.63C1616.63,-869.5 2597.09,-859.73 2733,-827.5 2813.61,-808.38 2901,-829.59 2901,-746.75 2901,-746.75 2901,-746.75 2901,-362.62 2901,-324.13 2920.73,-281.33 2930.13,-263.11"/>
<polygon fill="#63b8ff" stroke="#63b8ff" points="1340.59,-868.13 1330.62,-871.71 1340.65,-875.13 1340.59,-868.13"/>
</g>
<!-- Node2&#45;&gt;Node3 -->
<g id="edge2" class="edge">
<title>Node2&#45;&gt;Node3</title>
<path fill="none" stroke="#63b8ff" d="M1031.14,-526.63C1042.59,-505.57 1061.73,-470.25 1078,-439.75 1093.72,-410.28 1099.29,-403.71 1113,-373.25 1131.05,-333.13 1148.23,-283.4 1154.99,-263.25"/>
<polygon fill="#63b8ff" stroke="#63b8ff" points="1027.62,-524.78 1025.91,-535.24 1033.77,-528.12 1027.62,-524.78"/>
</g>
<!-- Node2&#45;&gt;Node6 -->
<g id="edge19" class="edge">
<title>Node2&#45;&gt;Node6</title>
<path fill="none" stroke="#63b8ff" d="M1011.77,-526.4C985.83,-470.68 917.44,-302.75 969,-177 997.82,-106.7 1021.49,-90.1 1089,-55.25 1130.62,-33.77 1266.36,-19.31 1330.64,-13.5"/>
<polygon fill="#63b8ff" stroke="#63b8ff" points="1009.01,-527.75 1016.47,-535.27 1015.33,-524.74 1009.01,-527.75"/>
</g>
<!-- Node2&#45;&gt;Node13 -->
<g id="edge16" class="edge">
<title>Node2&#45;&gt;Node13</title>
<path fill="none" stroke="#63b8ff" d="M950.45,-537.2C847.98,-525.51 659.8,-504.04 564.16,-493.13"/>
<polygon fill="#63b8ff" stroke="#63b8ff" points="949.97,-540.78 960.3,-538.44 950.77,-533.83 949.97,-540.78"/>
</g>
<!-- Node4 -->
<g id="node4" class="node">
<title>Node4</title>
<g id="a_node4"><a xlink:href="v8-external-memory-accounter_8h.html" target="_top" xlink:title=" ">
<polygon fill="white" stroke="#666666" points="1261.38,-207.5 1154.62,-207.5 1154.62,-177 1261.38,-177 1261.38,-207.5"/>
<text text-anchor="start" x="1162.62" y="-194" font-family="Helvetica,sans-Serif" font-size="10.00">include/v8&#45;external</text>
<text text-anchor="middle" x="1208" y="-182.75" font-family="Helvetica,sans-Serif" font-size="10.00">&#45;memory&#45;accounter.h</text>
</a>
</g>
</g>
<!-- Node3&#45;&gt;Node4 -->
<g id="edge3" class="edge">
<title>Node3&#45;&gt;Node4</title>
<path fill="none" stroke="#63b8ff" d="M1172.56,-234.98C1179.89,-226.35 1188.67,-216.01 1195.66,-207.78"/>
<polygon fill="#63b8ff" stroke="#63b8ff" points="1169.4,-232.3 1165.59,-242.18 1174.73,-236.83 1169.4,-232.3"/>
</g>
<!-- Node5 -->
<g id="node5" class="node">
<title>Node5</title>
<g id="a_node5"><a xlink:href="v8-initialization_8h.html" target="_top" xlink:title=" ">
<polygon fill="white" stroke="#666666" points="1098.5,-201.88 977.5,-201.88 977.5,-182.62 1098.5,-182.62 1098.5,-201.88"/>
<text text-anchor="middle" x="1038" y="-188.38" font-family="Helvetica,sans-Serif" font-size="10.00">include/v8&#45;initialization.h</text>
</a>
</g>
</g>
<!-- Node3&#45;&gt;Node5 -->
<g id="edge4" class="edge">
<title>Node3&#45;&gt;Node5</title>
<path fill="none" stroke="#63b8ff" d="M1129.76,-238.27C1107.06,-227.13 1075.85,-211.82 1056.31,-202.23"/>
<polygon fill="#63b8ff" stroke="#63b8ff" points="1127.99,-241.79 1138.51,-243.05 1131.08,-235.51 1127.99,-241.79"/>
</g>
<!-- Node3&#45;&gt;Node6 -->
<g id="edge15" class="edge">
<title>Node3&#45;&gt;Node6</title>
<path fill="none" stroke="#63b8ff" d="M1216.95,-239.76C1236.16,-233.09 1256.1,-222.92 1270,-207.5 1317.07,-155.27 1275.15,-114.51 1313,-55.25 1322.61,-40.21 1338.81,-27.48 1350.58,-19.51"/>
<polygon fill="#63b8ff" stroke="#63b8ff" points="1216.16,-236.66 1207.7,-243.03 1218.29,-243.33 1216.16,-236.66"/>
</g>
<!-- Node3&#45;&gt;Node7 -->
<g id="edge6" class="edge">
<title>Node3&#45;&gt;Node7</title>
<path fill="none" stroke="#63b8ff" d="M1097.28,-251.17C979.43,-248.63 711.68,-239.53 489,-207.5 479.99,-206.2 470.36,-204.33 461.37,-202.36"/>
<polygon fill="#63b8ff" stroke="#63b8ff" points="1097.14,-254.69 1107.21,-251.39 1097.29,-247.69 1097.14,-254.69"/>
</g>
<!-- Node3&#45;&gt;Node9 -->
<g id="edge8" class="edge">
<title>Node3&#45;&gt;Node9</title>
<path fill="none" stroke="#63b8ff" d="M1096.99,-250.1C995.57,-246.07 786.11,-234.94 611,-207.5 602.51,-206.17 593.45,-204.3 584.99,-202.36"/>
<polygon fill="#63b8ff" stroke="#63b8ff" points="1096.8,-253.63 1106.93,-250.52 1097.07,-246.64 1096.8,-253.63"/>
</g>
<!-- Node3&#45;&gt;Node10 -->
<g id="edge9" class="edge">
<title>Node3&#45;&gt;Node10</title>
<path fill="none" stroke="#63b8ff" d="M1097.32,-244.73C1002.79,-233.21 821.76,-211.14 730.51,-200.02"/>
<polygon fill="#63b8ff" stroke="#63b8ff" points="1096.78,-248.31 1107.13,-246.05 1097.63,-241.36 1096.78,-248.31"/>
</g>
<!-- Node5&#45;&gt;Node6 -->
<g id="edge5" class="edge">
<title>Node5&#45;&gt;Node6</title>
<path fill="none" stroke="#63b8ff" d="M1042.94,-171.69C1051.64,-141.51 1072.73,-84.06 1113,-55.25 1147.42,-30.62 1270.16,-17.94 1330.71,-13.06"/>
<polygon fill="#63b8ff" stroke="#63b8ff" points="1039.35,-170.57 1040.11,-181.14 1046.1,-172.4 1039.35,-170.57"/>
</g>
<!-- Node8 -->
<g id="node8" class="node">
<title>Node8</title>
<g id="a_node8"><a xlink:href="v8-inspector-protocol_8h.html" target="_top" xlink:title=" ">
<polygon fill="white" stroke="#666666" points="581.5,-141 478.5,-141 478.5,-110.5 581.5,-110.5 581.5,-141"/>
<text text-anchor="start" x="486.5" y="-127.5" font-family="Helvetica,sans-Serif" font-size="10.00">include/v8&#45;inspector</text>
<text text-anchor="middle" x="530" y="-116.25" font-family="Helvetica,sans-Serif" font-size="10.00">&#45;protocol.h</text>
</a>
</g>
</g>
<!-- Node7&#45;&gt;Node8 -->
<g id="edge7" class="edge">
<title>Node7&#45;&gt;Node8</title>
<path fill="none" stroke="#63b8ff" d="M448.94,-176.54C466.11,-166 489.13,-151.86 506.25,-141.34"/>
<polygon fill="#63b8ff" stroke="#63b8ff" points="447.29,-174.07 440.6,-182.28 450.95,-180.03 447.29,-174.07"/>
</g>
<!-- Node10&#45;&gt;Node6 -->
<g id="edge14" class="edge">
<title>Node10&#45;&gt;Node6</title>
<path fill="none" stroke="#63b8ff" d="M678.62,-171.68C685.43,-141 703.31,-82.29 744,-55.25 793.01,-22.68 1207.94,-13.23 1330.83,-11.13"/>
<polygon fill="#63b8ff" stroke="#63b8ff" points="675.03,-170.78 676.46,-181.28 681.89,-172.18 675.03,-170.78"/>
</g>
<!-- Node10&#45;&gt;Node11 -->
<g id="edge10" class="edge">
<title>Node10&#45;&gt;Node11</title>
<path fill="none" stroke="#63b8ff" d="M626.86,-179.58C575,-167 493.59,-147.26 446.36,-135.81"/>
<polygon fill="#63b8ff" stroke="#63b8ff" points="625.91,-183.19 636.45,-182.15 627.56,-176.39 625.91,-183.19"/>
</g>
<!-- Node11&#45;&gt;Node6 -->
<g id="edge13" class="edge">
<title>Node11&#45;&gt;Node6</title>
<path fill="none" stroke="#63b8ff" d="M445.66,-112.28C494.9,-96.12 585.43,-68.45 665,-55.25 918.18,-13.25 1228.91,-10.16 1330.85,-10.38"/>
<polygon fill="#63b8ff" stroke="#63b8ff" points="444.91,-109.18 436.51,-115.64 447.11,-115.82 444.91,-109.18"/>
</g>
<!-- Node11&#45;&gt;Node12 -->
<g id="edge11" class="edge">
<title>Node11&#45;&gt;Node12</title>
<path fill="none" stroke="#63b8ff" d="M421.09,-106.96C428.28,-96.38 437.09,-83.4 442.87,-74.9"/>
<polygon fill="#63b8ff" stroke="#63b8ff" points="417.8,-104.57 415.08,-114.81 423.59,-108.5 417.8,-104.57"/>
</g>
<!-- Node12&#45;&gt;Node6 -->
<g id="edge12" class="edge">
<title>Node12&#45;&gt;Node6</title>
<path fill="none" stroke="#63b8ff" d="M506.73,-60.23C531.72,-58.67 561.3,-56.85 588,-55.25 875.29,-38.09 1222.41,-18.59 1330.92,-12.53"/>
<polygon fill="#63b8ff" stroke="#63b8ff" points="506.73,-56.79 496.96,-60.91 507.16,-63.78 506.73,-56.79"/>
</g>
<!-- Node13&#45;&gt;Node6 -->
<g id="edge18" class="edge">
<title>Node13&#45;&gt;Node6</title>
<path fill="none" stroke="#63b8ff" d="M500.15,-465.07C495.5,-449.07 487.33,-426.27 475,-409.25 389.45,-291.14 228,-339.08 228,-193.25 228,-193.25 228,-193.25 228,-124.75 228,-45.18 315.38,-72.79 393,-55.25 577.03,-13.66 1179.95,-10.67 1330.63,-10.59"/>
<polygon fill="#63b8ff" stroke="#63b8ff" points="496.94,-465.6 502.93,-474.34 503.7,-463.77 496.94,-465.6"/>
</g>
<!-- Node13&#45;&gt;Node14 -->
<g id="edge17" class="edge">
<title>Node13&#45;&gt;Node14</title>
<path fill="none" stroke="#63b8ff" d="M482.82,-469.37C469.51,-460.36 452.66,-448.95 439.47,-440.03"/>
<polygon fill="#63b8ff" stroke="#63b8ff" points="480.54,-472.73 490.79,-475.43 484.47,-466.93 480.54,-472.73"/>
</g>
<!-- Node15&#45;&gt;Node3 -->
<g id="edge22" class="edge">
<title>Node15&#45;&gt;Node3</title>
<path fill="none" stroke="#63b8ff" d="M785.33,-471.06C804.66,-462.88 829.22,-451.7 850,-439.75 943.97,-385.71 954.01,-350.96 1049,-298.75 1075.88,-283.98 1108.68,-271.2 1131.24,-263.14"/>
<polygon fill="#63b8ff" stroke="#63b8ff" points="784.07,-468.21 776.18,-475.28 786.76,-474.67 784.07,-468.21"/>
</g>
<!-- Node15&#45;&gt;Node5 -->
<g id="edge21" class="edge">
<title>Node15&#45;&gt;Node5</title>
<path fill="none" stroke="#63b8ff" d="M775.81,-469.32C788.01,-461.16 802.82,-450.56 815,-439.75 909.53,-355.86 1005.52,-235.11 1031.3,-201.95"/>
<polygon fill="#63b8ff" stroke="#63b8ff" points="774.13,-466.89 767.68,-475.29 777.97,-472.74 774.13,-466.89"/>
</g>
<!-- Node15&#45;&gt;Node16 -->
<g id="edge23" class="edge">
<title>Node15&#45;&gt;Node16</title>
<path fill="none" stroke="#63b8ff" d="M751.66,-464.62C751.49,-454.43 751.29,-442.51 751.15,-434.53"/>
<polygon fill="#63b8ff" stroke="#63b8ff" points="748.18,-464.49 751.85,-474.43 755.18,-464.38 748.18,-464.49"/>
</g>
<!-- Node15&#45;&gt;Node20 -->
<g id="edge35" class="edge">
<title>Node15&#45;&gt;Node20</title>
<path fill="none" stroke="#63b8ff" d="M727.77,-469.67C715.11,-461.52 699.65,-450.81 687,-439.75 662.37,-418.21 637.63,-388.31 625.95,-373.57"/>
<polygon fill="#63b8ff" stroke="#63b8ff" points="725.5,-473.01 735.82,-475.37 729.23,-467.08 725.5,-473.01"/>
</g>
<!-- Node16&#45;&gt;Node6 -->
<g id="edge34" class="edge">
<title>Node16&#45;&gt;Node6</title>
<path fill="none" stroke="#63b8ff" d="M731.77,-407.31C716.93,-392.82 700.83,-371.26 713,-354 740.46,-315.05 780.97,-352.35 814,-318 834.62,-296.56 834,-283.87 834,-254.12 834,-254.12 834,-254.12 834,-124.75 834,-92.73 828.41,-75.77 853,-55.25 889.61,-24.7 1222.03,-14.06 1330.76,-11.37"/>
<polygon fill="#63b8ff" stroke="#63b8ff" points="728.95,-409.39 738.69,-413.56 733.68,-404.23 728.95,-409.39"/>
</g>
<!-- Node16&#45;&gt;Node17 -->
<g id="edge24" class="edge">
<title>Node16&#45;&gt;Node17</title>
<path fill="none" stroke="#63b8ff" d="M817.21,-418.99C982.69,-407.71 1411.83,-378.47 1562.09,-368.23"/>
<polygon fill="#63b8ff" stroke="#63b8ff" points="817.43,-415.53 807.69,-419.71 817.91,-422.52 817.43,-415.53"/>
</g>
<!-- Node16&#45;&gt;Node18 -->
<g id="edge26" class="edge">
<title>Node16&#45;&gt;Node18</title>
<path fill="none" stroke="#63b8ff" d="M684.69,-415.52C583.5,-403.33 393.22,-380.42 306.77,-370.02"/>
<polygon fill="#63b8ff" stroke="#63b8ff" points="684.03,-419.08 694.38,-416.8 684.87,-412.13 684.03,-419.08"/>
</g>
<!-- Node16&#45;&gt;Node19 -->
<g id="edge28" class="edge">
<title>Node16&#45;&gt;Node19</title>
<path fill="none" stroke="#63b8ff" d="M757.81,-404.4C761.49,-394.08 765.87,-381.81 768.78,-373.65"/>
<polygon fill="#63b8ff" stroke="#63b8ff" points="754.25,-402.96 754.19,-413.56 760.85,-405.32 754.25,-402.96"/>
</g>
<!-- Node16&#45;&gt;Node20 -->
<g id="edge29" class="edge">
<title>Node16&#45;&gt;Node20</title>
<path fill="none" stroke="#63b8ff" d="M720.94,-410.09C695.9,-398.92 660.93,-383.33 639.14,-373.61"/>
<polygon fill="#63b8ff" stroke="#63b8ff" points="719.11,-413.55 729.66,-414.43 721.96,-407.16 719.11,-413.55"/>
</g>
<!-- Node17&#45;&gt;Node6 -->
<g id="edge25" class="edge">
<title>Node17&#45;&gt;Node6</title>
<path fill="none" stroke="#63b8ff" d="M1627.22,-344.28C1639.93,-323.38 1658,-287.75 1658,-254.12 1658,-254.12 1658,-254.12 1658,-124.75 1658,-69.75 1476.47,-30.63 1399.18,-16.46"/>
<polygon fill="#63b8ff" stroke="#63b8ff" points="1623.75,-342.21 1621.34,-352.53 1629.66,-345.96 1623.75,-342.21"/>
</g>
<!-- Node18&#45;&gt;Node6 -->
<g id="edge27" class="edge">
<title>Node18&#45;&gt;Node6</title>
<path fill="none" stroke="#63b8ff" d="M216.15,-350.14C172.69,-335.19 114,-305.49 114,-254.12 114,-254.12 114,-254.12 114,-124.75 114,-92.07 111.74,-74.7 138,-55.25 187.23,-18.8 1137.39,-11.83 1330.81,-10.79"/>
<polygon fill="#63b8ff" stroke="#63b8ff" points="214.96,-353.76 225.55,-353.54 217.13,-347.1 214.96,-353.76"/>
</g>
<!-- Node20&#45;&gt;Node6 -->
<g id="edge33" class="edge">
<title>Node20&#45;&gt;Node6</title>
<path fill="none" stroke="#63b8ff" d="M634.4,-346.08C659.08,-318.87 707.87,-262.26 739,-207.5 774.94,-144.27 740.53,-98.51 799,-55.25 841.79,-23.59 1215.31,-13.59 1331,-11.23"/>
<polygon fill="#63b8ff" stroke="#63b8ff" points="632.46,-343.1 628.28,-352.83 637.62,-347.83 632.46,-343.1"/>
</g>
<!-- Node21 -->
<g id="node21" class="node">
<title>Node21</title>
<g id="a_node21"><a xlink:href="v8-debug_8h.html" target="_top" xlink:title=" ">
<polygon fill="white" stroke="#666666" points="805.5,-318 708.5,-318 708.5,-298.75 805.5,-298.75 805.5,-318"/>
<text text-anchor="middle" x="757" y="-304.5" font-family="Helvetica,sans-Serif" font-size="10.00">include/v8&#45;debug.h</text>
</a>
</g>
</g>
<!-- Node20&#45;&gt;Node21 -->
<g id="edge30" class="edge">
<title>Node20&#45;&gt;Node21</title>
<path fill="none" stroke="#63b8ff" d="M652.57,-349.67C677.62,-340 711.23,-327.04 733.48,-318.45"/>
<polygon fill="#63b8ff" stroke="#63b8ff" points="651.48,-346.73 643.41,-353.59 654,-353.26 651.48,-346.73"/>
</g>
<!-- Node21&#45;&gt;Node3 -->
<g id="edge31" class="edge">
<title>Node21&#45;&gt;Node3</title>
<path fill="none" stroke="#63b8ff" d="M816.53,-299.47C895.64,-288.97 1034.02,-270.59 1108,-260.76"/>
<polygon fill="#63b8ff" stroke="#63b8ff" points="816.22,-296.11 806.77,-300.9 817.14,-303.05 816.22,-296.11"/>
</g>
<!-- Node21&#45;&gt;Node6 -->
<g id="edge32" class="edge">
<title>Node21&#45;&gt;Node6</title>
<path fill="none" stroke="#63b8ff" d="M767.57,-288.83C779.12,-266.78 796,-228.52 796,-193.25 796,-193.25 796,-193.25 796,-124.75 796,-92.07 794.18,-75.29 820,-55.25 860.31,-23.96 1217.32,-13.75 1330.64,-11.28"/>
<polygon fill="#63b8ff" stroke="#63b8ff" points="764.14,-286.81 762.42,-297.27 770.28,-290.16 764.14,-286.81"/>
</g>
<!-- Node22&#45;&gt;Node6 -->
<g id="edge37" class="edge">
<title>Node22&#45;&gt;Node6</title>
<path fill="none" stroke="#63b8ff" d="M1942.99,-526.07C1936.17,-502.6 1926,-461.54 1926,-425.5 1926,-425.5 1926,-425.5 1926,-124.75 1926,-92.07 1927.8,-75.3 1902,-55.25 1862.34,-24.43 1511.33,-13.92 1399.25,-11.33"/>
<polygon fill="#63b8ff" stroke="#63b8ff" points="1939.85,-526.79 1946.09,-535.35 1946.55,-524.76 1939.85,-526.79"/>
</g>
<!-- Node23&#45;&gt;Node3 -->
<g id="edge42" class="edge">
<title>Node23&#45;&gt;Node3</title>
<path fill="none" stroke="#63b8ff" d="M755.42,-792.28C765.77,-767.17 782,-721.28 782,-680.25 782,-680.25 782,-680.25 782,-611.75 782,-574.31 785.34,-562.22 806,-531 850.7,-463.44 1021.35,-346.21 1087,-298.75 1105.41,-285.44 1127.74,-271.78 1142.39,-263.14"/>
<polygon fill="#63b8ff" stroke="#63b8ff" points="751.86,-790.69 751.15,-801.26 758.3,-793.44 751.86,-790.69"/>
</g>
<!-- Node23&#45;&gt;Node6 -->
<g id="edge91" class="edge">
<title>Node23&#45;&gt;Node6</title>
<path fill="none" stroke="#63b8ff" d="M727.75,-795.45C716.08,-785.72 700.97,-772.87 688,-761 537.69,-623.47 483.21,-602.76 361,-439.75 335.06,-405.15 339.75,-389.47 315,-354 283.97,-309.53 257.71,-311.52 234,-262.75 204.16,-201.37 192.96,-175.43 214,-110.5 223.34,-81.66 227.28,-69.57 254,-55.25 302.57,-29.21 1148.64,-14.12 1330.68,-11.16"/>
<polygon fill="#63b8ff" stroke="#63b8ff" points="724.99,-798.53 734.92,-802.22 729.46,-793.14 724.99,-798.53"/>
</g>
<!-- Node23&#45;&gt;Node11 -->
<g id="edge41" class="edge">
<title>Node23&#45;&gt;Node11</title>
<path fill="none" stroke="#63b8ff" d="M732.55,-793.96C725.03,-784.55 715.99,-772.5 709,-761 636.05,-640.98 647.23,-594.98 573,-475.75 492.69,-346.75 410.87,-351.04 361,-207.5 356.55,-194.7 355.96,-189.58 361,-177 368,-159.53 384.3,-144.69 395.96,-135.77"/>
<polygon fill="#63b8ff" stroke="#63b8ff" points="730.38,-795.85 739.41,-801.38 735.81,-791.42 730.38,-795.85"/>
</g>
<!-- Node23&#45;&gt;Node15 -->
<g id="edge40" class="edge">
<title>Node23&#45;&gt;Node15</title>
<path fill="none" stroke="#63b8ff" d="M746.27,-791.54C745.38,-765.91 744,-719.74 744,-680.25 744,-680.25 744,-680.25 744,-611.75 744,-568.13 748.88,-516.14 751.02,-495.49"/>
<polygon fill="#63b8ff" stroke="#63b8ff" points="742.8,-791.49 746.66,-801.36 749.79,-791.24 742.8,-791.49"/>
</g>
<!-- Node23&#45;&gt;Node20 -->
<g id="edge81" class="edge">
<title>Node23&#45;&gt;Node20</title>
<path fill="none" stroke="#63b8ff" d="M738.65,-792.43C720.7,-751.31 678.14,-650.04 654,-561.5 634.55,-490.16 623.24,-401.24 619.98,-373.38"/>
<polygon fill="#63b8ff" stroke="#63b8ff" points="735.79,-793.63 743.02,-801.37 742.2,-790.81 735.79,-793.63"/>
</g>
<!-- Node23&#45;&gt;Node24 -->
<g id="edge43" class="edge">
<title>Node23&#45;&gt;Node24</title>
<path fill="none" stroke="#63b8ff" d="M802.94,-809.37C895.26,-805.37 1074.64,-793.56 1128,-761 1156.25,-743.76 1173.85,-706.28 1180.71,-689.13"/>
<polygon fill="#63b8ff" stroke="#63b8ff" points="802.97,-805.91 793.13,-809.82 803.27,-812.9 802.97,-805.91"/>
</g>
<!-- Node23&#45;&gt;Node27 -->
<g id="edge82" class="edge">
<title>Node23&#45;&gt;Node27</title>
<path fill="none" stroke="#63b8ff" d="M763.75,-794.76C799.26,-760.12 881.67,-681.53 916,-664 1127.72,-555.86 1210.61,-620.14 1441,-561.5 1479.49,-551.7 1487.11,-542.92 1525,-531 1568.94,-517.18 1620.23,-503.89 1654.26,-495.46"/>
<polygon fill="#63b8ff" stroke="#63b8ff" points="761.86,-791.69 757.16,-801.19 766.75,-796.69 761.86,-791.69"/>
</g>
<!-- Node23&#45;&gt;Node37 -->
<g id="edge83" class="edge">
<title>Node23&#45;&gt;Node37</title>
<path fill="none" stroke="#63b8ff" d="M802.74,-800.19C865.83,-787.67 967.45,-767.5 1026.15,-755.85"/>
<polygon fill="#63b8ff" stroke="#63b8ff" points="802.32,-796.9 793.19,-802.28 803.68,-803.77 802.32,-796.9"/>
</g>
<!-- Node24&#45;&gt;Node3 -->
<g id="edge53" class="edge">
<title>Node24&#45;&gt;Node3</title>
<path fill="none" stroke="#63b8ff" d="M1177.39,-658.75C1174.58,-649.54 1171.58,-638.32 1170,-628 1147.94,-483.88 1155.34,-305.01 1157.5,-263.17"/>
<polygon fill="#63b8ff" stroke="#63b8ff" points="1174.34,-659.69 1180.75,-668.13 1181,-657.54 1174.34,-659.69"/>
</g>
<!-- Node24&#45;&gt;Node6 -->
<g id="edge80" class="edge">
<title>Node24&#45;&gt;Node6</title>
<path fill="none" stroke="#63b8ff" d="M1188.25,-658.81C1191.91,-642.41 1197.47,-618.33 1203,-597.5 1223.47,-520.44 1254,-505.23 1254,-425.5 1254,-425.5 1254,-425.5 1254,-362.62 1254,-325.78 1343.6,-71.01 1361.8,-19.64"/>
<polygon fill="#63b8ff" stroke="#63b8ff" points="1184.68,-657.73 1185.94,-668.25 1191.52,-659.24 1184.68,-657.73"/>
</g>
<!-- Node24&#45;&gt;Node16 -->
<g id="edge54" class="edge">
<title>Node24&#45;&gt;Node16</title>
<path fill="none" stroke="#63b8ff" d="M1147.13,-665.66C1094.58,-646.9 996.09,-608.71 920,-561.5 869.39,-530.1 863.6,-512.86 817,-475.75 798.52,-461.04 776.63,-444.55 763.29,-434.6"/>
<polygon fill="#63b8ff" stroke="#63b8ff" points="1145.72,-669.22 1156.31,-669.25 1148.05,-662.62 1145.72,-669.22"/>
</g>
<!-- Node24&#45;&gt;Node25 -->
<g id="edge44" class="edge">
<title>Node24&#45;&gt;Node25</title>
<path fill="none" stroke="#63b8ff" d="M1203.98,-662.91C1220.23,-650.43 1242.61,-633.25 1256.15,-622.85"/>
<polygon fill="#63b8ff" stroke="#63b8ff" points="1202.48,-660.42 1196.68,-669.28 1206.74,-665.97 1202.48,-660.42"/>
</g>
<!-- Node24&#45;&gt;Node26 -->
<g id="edge46" class="edge">
<title>Node24&#45;&gt;Node26</title>
<path fill="none" stroke="#63b8ff" d="M1239.89,-667.02C1300.85,-654.77 1397.48,-635.35 1455.71,-623.65"/>
<polygon fill="#63b8ff" stroke="#63b8ff" points="1239.43,-663.74 1230.31,-669.15 1240.8,-670.61 1239.43,-663.74"/>
</g>
<!-- Node24&#45;&gt;Node29 -->
<g id="edge55" class="edge">
<title>Node24&#45;&gt;Node29</title>
<path fill="none" stroke="#63b8ff" d="M1249.06,-671.74C1378.46,-658.8 1665.48,-630.1 1780.22,-618.63"/>
<polygon fill="#63b8ff" stroke="#63b8ff" points="1248.76,-668.36 1239.16,-672.83 1249.46,-675.32 1248.76,-668.36"/>
</g>
<!-- Node25&#45;&gt;Node6 -->
<g id="edge45" class="edge">
<title>Node25&#45;&gt;Node6</title>
<path fill="none" stroke="#63b8ff" d="M1272.19,-592.24C1279.07,-558.45 1292,-486.77 1292,-425.5 1292,-425.5 1292,-425.5 1292,-362.62 1292,-333.01 1302.15,-327.02 1311,-298.75 1323.75,-258.01 1331.71,-249.17 1341,-207.5 1356.97,-135.92 1362.98,-47.16 1364.55,-19.36"/>
<polygon fill="#63b8ff" stroke="#63b8ff" points="1268.58,-591.38 1269.96,-601.89 1275.44,-592.81 1268.58,-591.38"/>
</g>
<!-- Node26&#45;&gt;Node3 -->
<g id="edge48" class="edge">
<title>Node26&#45;&gt;Node3</title>
<path fill="none" stroke="#63b8ff" d="M1445.02,-606.02C1405.84,-599.92 1355.06,-587.35 1317,-561.5 1254.72,-519.2 1216,-500.79 1216,-425.5 1216,-425.5 1216,-425.5 1216,-362.62 1216,-321.4 1183.03,-280.67 1166.81,-263.11"/>
<polygon fill="#63b8ff" stroke="#63b8ff" points="1444.35,-609.6 1454.75,-607.58 1445.36,-602.68 1444.35,-609.6"/>
</g>
<!-- Node26&#45;&gt;Node17 -->
<g id="edge47" class="edge">
<title>Node26&#45;&gt;Node17</title>
<path fill="none" stroke="#63b8ff" d="M1509.57,-586.36C1512.89,-570.19 1518.04,-548.99 1525,-531 1549.54,-467.61 1593.24,-397.95 1609.07,-373.61"/>
<polygon fill="#63b8ff" stroke="#63b8ff" points="1505.95,-585.63 1507.47,-596.12 1512.82,-586.97 1505.95,-585.63"/>
</g>
<!-- Node26&#45;&gt;Node27 -->
<g id="edge49" class="edge">
<title>Node26&#45;&gt;Node27</title>
<path fill="none" stroke="#63b8ff" d="M1514.77,-586.99C1523.01,-569.09 1536.44,-545.57 1555,-531 1578.71,-512.39 1610.45,-501.41 1637.41,-495"/>
<polygon fill="#63b8ff" stroke="#63b8ff" points="1511.18,-585.46 1510.41,-596.03 1517.6,-588.25 1511.18,-585.46"/>
</g>
<!-- Node28 -->
<g id="node28" class="node">
<title>Node28</title>
<g id="a_node28"><a xlink:href="v8-util_8h.html" target="_top" xlink:title=" ">
<polygon fill="white" stroke="#666666" points="1647.75,-555.88 1564.25,-555.88 1564.25,-536.62 1647.75,-536.62 1647.75,-555.88"/>
<text text-anchor="middle" x="1606" y="-542.38" font-family="Helvetica,sans-Serif" font-size="10.00">include/v8&#45;util.h</text>
</a>
</g>
</g>
<!-- Node26&#45;&gt;Node28 -->
<g id="edge52" class="edge">
<title>Node26&#45;&gt;Node28</title>
<path fill="none" stroke="#63b8ff" d="M1537.15,-591.22C1555.58,-579.45 1577.78,-565.27 1591.89,-556.26"/>
<polygon fill="#63b8ff" stroke="#63b8ff" points="1535.46,-588.78 1528.92,-597.11 1539.23,-594.68 1535.46,-588.78"/>
</g>
<!-- Node27&#45;&gt;Node6 -->
<g id="edge51" class="edge">
<title>Node27&#45;&gt;Node6</title>
<path fill="none" stroke="#63b8ff" d="M1702.83,-465.97C1715.28,-443.04 1734,-402.28 1734,-364.62 1734,-364.62 1734,-364.62 1734,-124.75 1734,-55.01 1490.4,-23.26 1399.05,-13.8"/>
<polygon fill="#63b8ff" stroke="#63b8ff" points="1699.35,-464.01 1697.49,-474.44 1705.45,-467.45 1699.35,-464.01"/>
</g>
<!-- Node27&#45;&gt;Node17 -->
<g id="edge50" class="edge">
<title>Node27&#45;&gt;Node17</title>
<path fill="none" stroke="#63b8ff" d="M1680.34,-466.24C1663.64,-440.27 1633.51,-393.42 1620.85,-373.73"/>
<polygon fill="#63b8ff" stroke="#63b8ff" points="1677.86,-467.86 1686.21,-474.37 1683.75,-464.07 1677.86,-467.86"/>
</g>
<!-- Node29&#45;&gt;Node2 -->
<g id="edge56" class="edge">
<title>Node29&#45;&gt;Node2</title>
<path fill="none" stroke="#63b8ff" d="M1769.52,-607C1620.14,-595.08 1230.46,-563.97 1080.77,-552.02"/>
<polygon fill="#63b8ff" stroke="#63b8ff" points="1769.03,-610.55 1779.28,-607.86 1769.59,-603.58 1769.03,-610.55"/>
</g>
<!-- Node29&#45;&gt;Node6 -->
<g id="edge79" class="edge">
<title>Node29&#45;&gt;Node6</title>
<path fill="none" stroke="#63b8ff" d="M1839.1,-593.16C1855.95,-560.33 1888,-489.5 1888,-425.5 1888,-425.5 1888,-425.5 1888,-124.75 1888,-91.77 1888.23,-75.24 1862,-55.25 1825.31,-27.29 1505.61,-14.96 1399.25,-11.61"/>
<polygon fill="#63b8ff" stroke="#63b8ff" points="1835.6,-591.29 1834.03,-601.77 1841.79,-594.56 1835.6,-591.29"/>
</g>
<!-- Node29&#45;&gt;Node12 -->
<g id="edge73" class="edge">
<title>Node29&#45;&gt;Node12</title>
<path fill="none" stroke="#63b8ff" d="M1799.91,-597.93C1779.58,-588.12 1751.91,-574.44 1728,-561.5 1704.44,-548.75 1699.14,-544.5 1676,-531 1648.48,-514.94 1636.8,-517.26 1614,-495 1565.35,-447.52 1534,-432.61 1534,-364.62 1534,-364.62 1534,-364.62 1534,-252.12 1534,-145.16 704.22,-82.84 495.97,-68.88"/>
<polygon fill="#63b8ff" stroke="#63b8ff" points="1798.28,-601.52 1808.81,-602.69 1801.31,-595.2 1798.28,-601.52"/>
</g>
<!-- Node29&#45;&gt;Node17 -->
<g id="edge64" class="edge">
<title>Node29&#45;&gt;Node17</title>
<path fill="none" stroke="#63b8ff" d="M1812.25,-595.47C1793.17,-577.66 1760.42,-549.2 1728,-531 1687.18,-508.08 1657.87,-531.86 1629,-495 1600.22,-458.26 1608.56,-396.76 1613.02,-373.71"/>
<polygon fill="#63b8ff" stroke="#63b8ff" points="1809.34,-597.49 1819,-601.84 1814.16,-592.41 1809.34,-597.49"/>
</g>
<!-- Node29&#45;&gt;Node22 -->
<g id="edge57" class="edge">
<title>Node29&#45;&gt;Node22</title>
<path fill="none" stroke="#63b8ff" d="M1855.59,-597.46C1878.96,-584.9 1912.26,-567 1932.15,-556.31"/>
<polygon fill="#63b8ff" stroke="#63b8ff" points="1854.09,-594.83 1846.94,-602.65 1857.4,-600.99 1854.09,-594.83"/>
</g>
<!-- Node29&#45;&gt;Node27 -->
<g id="edge76" class="edge">
<title>Node29&#45;&gt;Node27</title>
<path fill="none" stroke="#63b8ff" d="M1827.61,-591.83C1825.36,-573.85 1819.46,-547.73 1804,-531 1787.24,-512.86 1762.13,-501.96 1739.94,-495.48"/>
<polygon fill="#63b8ff" stroke="#63b8ff" points="1824.22,-592.14 1828.66,-601.76 1831.19,-591.47 1824.22,-592.14"/>
</g>
<!-- Node29&#45;&gt;Node30 -->
<g id="edge58" class="edge">
<title>Node29&#45;&gt;Node30</title>
<path fill="none" stroke="#63b8ff" d="M1888.81,-603.43C1958.87,-593.64 2078.41,-576.77 2181,-561.5 2196.35,-559.22 2213.12,-556.64 2228.09,-554.31"/>
<polygon fill="#63b8ff" stroke="#63b8ff" points="1888.42,-600.09 1879,-604.94 1889.39,-607.03 1888.42,-600.09"/>
</g>
<!-- Node29&#45;&gt;Node31 -->
<g id="edge60" class="edge">
<title>Node29&#45;&gt;Node31</title>
<path fill="none" stroke="#63b8ff" d="M1880.24,-600.23C1936.16,-587.67 2024.51,-567.81 2075.69,-556.31"/>
<polygon fill="#63b8ff" stroke="#63b8ff" points="1879.5,-597.04 1870.51,-602.65 1881.04,-603.87 1879.5,-597.04"/>
</g>
<!-- Node29&#45;&gt;Node32 -->
<g id="edge65" class="edge">
<title>Node29&#45;&gt;Node32</title>
<path fill="none" stroke="#63b8ff" d="M1888.69,-608.37C1982.51,-602.46 2169.98,-588.26 2327,-561.5 2329.8,-561.02 2332.67,-560.49 2335.56,-559.91"/>
<polygon fill="#63b8ff" stroke="#63b8ff" points="1888.48,-604.94 1878.72,-609.05 1888.92,-611.92 1888.48,-604.94"/>
</g>
<!-- Node29&#45;&gt;Node33 -->
<g id="edge67" class="edge">
<title>Node29&#45;&gt;Node33</title>
<path fill="none" stroke="#63b8ff" d="M1769.77,-603.26C1681.4,-590.59 1516.41,-566.95 1431.89,-554.83"/>
<polygon fill="#63b8ff" stroke="#63b8ff" points="1769.02,-606.83 1779.41,-604.79 1770.01,-599.9 1769.02,-606.83"/>
</g>
<!-- Node29&#45;&gt;Node35 -->
<g id="edge74" class="edge">
<title>Node29&#45;&gt;Node35</title>
<path fill="none" stroke="#63b8ff" d="M1888.52,-609.97C1998.87,-605.99 2242.45,-594.02 2445,-561.5 2453.22,-560.18 2461.98,-558.32 2470.18,-556.37"/>
<polygon fill="#63b8ff" stroke="#63b8ff" points="1888.5,-606.5 1878.62,-610.35 1888.74,-613.5 1888.5,-606.5"/>
</g>
<!-- Node29&#45;&gt;Node36 -->
<g id="edge77" class="edge">
<title>Node29&#45;&gt;Node36</title>
<path fill="none" stroke="#63b8ff" d="M1888.75,-611.22C2014.36,-609.34 2314.7,-600.72 2563,-561.5 2571.16,-560.21 2579.86,-558.31 2587.95,-556.32"/>
<polygon fill="#63b8ff" stroke="#63b8ff" points="1888.81,-607.74 1878.86,-611.38 1888.91,-614.74 1888.81,-607.74"/>
</g>
<!-- Node30&#45;&gt;Node6 -->
<g id="edge59" class="edge">
<title>Node30&#45;&gt;Node6</title>
<path fill="none" stroke="#63b8ff" d="M2218.51,-533.97C2213.6,-532.97 2208.71,-531.96 2204,-531 2124.92,-514.84 2086.74,-548.16 2026,-495 2001.41,-473.48 2002,-458.18 2002,-425.5 2002,-425.5 2002,-425.5 2002,-124.75 2002,-86.17 1983.81,-73.82 1950,-55.25 1901.68,-28.71 1516.69,-15.14 1399.03,-11.59"/>
<polygon fill="#63b8ff" stroke="#63b8ff" points="2217.7,-537.59 2228.2,-536.18 2219.12,-530.73 2217.7,-537.59"/>
</g>
<!-- Node31&#45;&gt;Node3 -->
<g id="edge61" class="edge">
<title>Node31&#45;&gt;Node3</title>
<path fill="none" stroke="#63b8ff" d="M2068.6,-533.38C2034.96,-524.36 1989.03,-510.83 1950,-495 1823.45,-443.67 1804.32,-403.38 1677,-354 1589.02,-319.88 1564.44,-317.7 1472,-298.75 1379.63,-279.81 1270.33,-266.24 1208.08,-259.33"/>
<polygon fill="#63b8ff" stroke="#63b8ff" points="2067.51,-536.98 2078.07,-536.15 2069.29,-530.21 2067.51,-536.98"/>
</g>
<!-- Node31&#45;&gt;Node6 -->
<g id="edge63" class="edge">
<title>Node31&#45;&gt;Node6</title>
<path fill="none" stroke="#63b8ff" d="M2055.6,-533.12C2031.84,-525.65 2005.99,-513.76 1988,-495 1965.38,-471.42 1964,-458.18 1964,-425.5 1964,-425.5 1964,-425.5 1964,-124.75 1964,-89.11 1954.12,-74.31 1924,-55.25 1879.68,-27.21 1513.86,-14.75 1399.22,-11.52"/>
<polygon fill="#63b8ff" stroke="#63b8ff" points="2054.4,-536.71 2064.98,-536.16 2056.36,-529.99 2054.4,-536.71"/>
</g>
<!-- Node31&#45;&gt;Node27 -->
<g id="edge62" class="edge">
<title>Node31&#45;&gt;Node27</title>
<path fill="none" stroke="#63b8ff" d="M2063.43,-534.1C2057.56,-532.99 2051.66,-531.93 2046,-531 1940.41,-513.62 1816.13,-499.38 1746.46,-491.95"/>
<polygon fill="#63b8ff" stroke="#63b8ff" points="2062.41,-537.67 2072.9,-536.14 2063.75,-530.8 2062.41,-537.67"/>
</g>
<!-- Node32&#45;&gt;Node6 -->
<g id="edge66" class="edge">
<title>Node32&#45;&gt;Node6</title>
<path fill="none" stroke="#63b8ff" d="M2324.72,-530.97C2253.13,-521.19 2107.29,-530.52 2064,-495 2038.74,-474.27 2040,-458.18 2040,-425.5 2040,-425.5 2040,-425.5 2040,-124.75 2040,-83.65 2015.8,-73.55 1979,-55.25 1927.02,-29.4 1521.08,-15.29 1399.37,-11.61"/>
<polygon fill="#63b8ff" stroke="#63b8ff" points="2324.11,-534.57 2334.54,-532.71 2325.23,-527.66 2324.11,-534.57"/>
</g>
<!-- Node33&#45;&gt;Node6 -->
<g id="edge72" class="edge">
<title>Node33&#45;&gt;Node6</title>
<path fill="none" stroke="#63b8ff" d="M1391.89,-527.31C1422.3,-483.17 1496,-364.8 1496,-254.12 1496,-254.12 1496,-254.12 1496,-124.75 1496,-69.55 1429.06,-34.95 1390.88,-19.71"/>
<polygon fill="#63b8ff" stroke="#63b8ff" points="1388.51,-525.04 1385.63,-535.24 1394.24,-529.07 1388.51,-525.04"/>
</g>
<!-- Node33&#45;&gt;Node15 -->
<g id="edge68" class="edge">
<title>Node33&#45;&gt;Node15</title>
<path fill="none" stroke="#63b8ff" d="M1315.37,-539.28C1192.57,-527.74 924.75,-502.6 808.14,-491.65"/>
<polygon fill="#63b8ff" stroke="#63b8ff" points="1314.8,-542.83 1325.08,-540.28 1315.45,-535.86 1314.8,-542.83"/>
</g>
<!-- Node33&#45;&gt;Node34 -->
<g id="edge69" class="edge">
<title>Node33&#45;&gt;Node34</title>
<path fill="none" stroke="#63b8ff" d="M1378.66,-525.39C1377.84,-476.67 1375.74,-352.73 1375.15,-318.34"/>
<polygon fill="#63b8ff" stroke="#63b8ff" points="1375.18,-525.35 1378.85,-535.29 1382.18,-525.23 1375.18,-525.35"/>
</g>
<!-- Node34&#45;&gt;Node3 -->
<g id="edge70" class="edge">
<title>Node34&#45;&gt;Node3</title>
<path fill="none" stroke="#63b8ff" d="M1327.67,-295.76C1287.81,-285.98 1231.61,-272.19 1194.99,-263.2"/>
<polygon fill="#63b8ff" stroke="#63b8ff" points="1326.64,-299.36 1337.19,-298.34 1328.31,-292.56 1326.64,-299.36"/>
</g>
<!-- Node34&#45;&gt;Node6 -->
<g id="edge71" class="edge">
<title>Node34&#45;&gt;Node6</title>
<path fill="none" stroke="#63b8ff" d="M1382.69,-288.24C1390.98,-265.85 1403,-227.47 1403,-193.25 1403,-193.25 1403,-193.25 1403,-124.75 1403,-83.82 1380.73,-38.67 1370.28,-19.75"/>
<polygon fill="#63b8ff" stroke="#63b8ff" points="1379.11,-286.8 1378.78,-297.39 1385.64,-289.32 1379.11,-286.8"/>
</g>
<!-- Node35&#45;&gt;Node6 -->
<g id="edge75" class="edge">
<title>Node35&#45;&gt;Node6</title>
<path fill="none" stroke="#63b8ff" d="M2457.67,-533.72C2453.39,-532.76 2449.12,-531.84 2445,-531 2278.66,-497.29 2078,-595.22 2078,-425.5 2078,-425.5 2078,-425.5 2078,-124.75 2078,-81.54 2049.23,-73.37 2010,-55.25 1954.4,-29.57 1524.8,-15.24 1399.31,-11.57"/>
<polygon fill="#63b8ff" stroke="#63b8ff" points="2456.68,-537.31 2467.21,-536.16 2458.26,-530.49 2456.68,-537.31"/>
</g>
<!-- Node36&#45;&gt;Node6 -->
<g id="edge78" class="edge">
<title>Node36&#45;&gt;Node6</title>
<path fill="none" stroke="#63b8ff" d="M2574.81,-533.42C2474.09,-506.74 2240,-442.87 2240,-425.5 2240,-425.5 2240,-425.5 2240,-124.75 2240,-31.91 2133.95,-73.92 2043,-55.25 1917.77,-29.55 1518.56,-15.38 1399.09,-11.64"/>
<polygon fill="#63b8ff" stroke="#63b8ff" points="2573.71,-537.01 2584.27,-536.18 2575.5,-530.25 2573.71,-537.01"/>
</g>
<!-- Node37&#45;&gt;Node6 -->
<g id="edge90" class="edge">
<title>Node37&#45;&gt;Node6</title>
<path fill="none" stroke="#63b8ff" d="M1074.18,-725.48C1077.86,-692.12 1085.28,-621.43 1089,-561.5 1097.76,-420.37 1054.07,-377.58 1099,-243.5 1139.37,-123.03 1288.37,-45.12 1343.93,-19.71"/>
<polygon fill="#63b8ff" stroke="#63b8ff" points="1070.64,-724.66 1073,-734.99 1077.59,-725.44 1070.64,-724.66"/>
</g>
<!-- Node37&#45;&gt;Node14 -->
<g id="edge87" class="edge">
<title>Node37&#45;&gt;Node14</title>
<path fill="none" stroke="#63b8ff" d="M1031.05,-732.58C999.4,-722.93 954.62,-708.73 916,-694.5 699.61,-614.74 589.33,-668.15 437,-495 423.45,-479.6 419.46,-455.41 418.35,-440.01"/>
<polygon fill="#63b8ff" stroke="#63b8ff" points="1029.67,-736.12 1040.25,-735.67 1031.7,-729.42 1029.67,-736.12"/>
</g>
<!-- Node37&#45;&gt;Node24 -->
<g id="edge89" class="edge">
<title>Node37&#45;&gt;Node24</title>
<path fill="none" stroke="#63b8ff" d="M1096.86,-730.44C1118.64,-717.89 1149.64,-700.04 1168.2,-689.35"/>
<polygon fill="#63b8ff" stroke="#63b8ff" points="1095.49,-727.76 1088.57,-735.78 1098.99,-733.82 1095.49,-727.76"/>
</g>
<!-- Node37&#45;&gt;Node29 -->
<g id="edge88" class="edge">
<title>Node37&#45;&gt;Node29</title>
<path fill="none" stroke="#63b8ff" d="M1130.05,-743.2C1262.58,-739.16 1583.95,-726.3 1687,-694.5 1739.57,-678.28 1794.01,-640.27 1817.3,-622.81"/>
<polygon fill="#63b8ff" stroke="#63b8ff" points="1130.22,-739.73 1120.32,-743.52 1130.42,-746.72 1130.22,-739.73"/>
</g>
<!-- Node38 -->
<g id="node38" class="node">
<title>Node38</title>
<g id="a_node38"><a xlink:href="v8-cpp-heap-external_8h.html" target="_top" xlink:title=" ">
<polygon fill="white" stroke="#666666" points="1027.5,-694.5 924.5,-694.5 924.5,-664 1027.5,-664 1027.5,-694.5"/>
<text text-anchor="start" x="932.5" y="-681" font-family="Helvetica,sans-Serif" font-size="10.00">include/v8&#45;cpp&#45;heap</text>
<text text-anchor="middle" x="976" y="-669.75" font-family="Helvetica,sans-Serif" font-size="10.00">&#45;external.h</text>
</a>
</g>
</g>
<!-- Node37&#45;&gt;Node38 -->
<g id="edge84" class="edge">
<title>Node37&#45;&gt;Node38</title>
<path fill="none" stroke="#63b8ff" d="M1049.67,-729.75C1034.02,-719.24 1013.22,-705.26 997.72,-694.84"/>
<polygon fill="#63b8ff" stroke="#63b8ff" points="1047.4,-733.11 1057.65,-735.78 1051.3,-727.3 1047.4,-733.11"/>
</g>
<!-- Node39 -->
<g id="node39" class="node">
<title>Node39</title>
<g id="a_node39"><a xlink:href="v8-external_8h.html" target="_top" xlink:title=" ">
<polygon fill="white" stroke="#666666" points="966.25,-74.5 861.75,-74.5 861.75,-55.25 966.25,-55.25 966.25,-74.5"/>
<text text-anchor="middle" x="914" y="-61" font-family="Helvetica,sans-Serif" font-size="10.00">include/v8&#45;external.h</text>
</a>
</g>
</g>
<!-- Node37&#45;&gt;Node39 -->
<g id="edge85" class="edge">
<title>Node37&#45;&gt;Node39</title>
<path fill="none" stroke="#63b8ff" d="M1066.55,-725.58C1061.01,-708.31 1051.21,-682.83 1037,-664 993.72,-606.65 942.84,-626.39 912,-561.5 904.67,-546.08 911,-271.2 911,-254.12 911,-254.12 911,-254.12 911,-191.25 911,-147.7 912.83,-95.68 913.63,-75"/>
<polygon fill="#63b8ff" stroke="#63b8ff" points="1063.47,-726.48 1069.71,-735.04 1070.17,-724.45 1063.47,-726.48"/>
</g>
<!-- Node39&#45;&gt;Node6 -->
<g id="edge86" class="edge">
<title>Node39&#45;&gt;Node6</title>
<path fill="none" stroke="#63b8ff" d="M977.12,-55.61C978.09,-55.49 979.05,-55.37 980,-55.25 1109.39,-39.3 1263.45,-21.93 1330.73,-14.43"/>
<polygon fill="#63b8ff" stroke="#63b8ff" points="977.07,-52.21 967.59,-56.93 977.95,-59.16 977.07,-52.21"/>
</g>
<!-- Node41 -->
<g id="node41" class="node">
<title>Node41</title>
<g id="a_node41"><a xlink:href="v8-unwinder_8h.html" target="_top" xlink:title=" ">
<polygon fill="white" stroke="#666666" points="2377.88,-318 2268.12,-318 2268.12,-298.75 2377.88,-298.75 2377.88,-318"/>
<text text-anchor="middle" x="2323" y="-304.5" font-family="Helvetica,sans-Serif" font-size="10.00">include/v8&#45;unwinder.h</text>
</a>
</g>
</g>
<!-- Node40&#45;&gt;Node41 -->
<g id="edge94" class="edge">
<title>Node40&#45;&gt;Node41</title>
<path fill="none" stroke="#63b8ff" d="M2435.74,-791.6C2518.18,-748.68 2697,-638.07 2697,-486.38 2697,-486.38 2697,-486.38 2697,-423.5 2697,-357.65 2482.22,-326.06 2378.18,-314.63"/>
<polygon fill="#63b8ff" stroke="#63b8ff" points="2434.48,-788.83 2427.18,-796.5 2437.68,-795.06 2434.48,-788.83"/>
</g>
<!-- Node41&#45;&gt;Node3 -->
<g id="edge95" class="edge">
<title>Node41&#45;&gt;Node3</title>
<path fill="none" stroke="#63b8ff" d="M2257.12,-304.36C2046.69,-294.75 1393.7,-264.9 1207.83,-256.4"/>
<polygon fill="#63b8ff" stroke="#63b8ff" points="2256.83,-307.9 2266.98,-304.86 2257.15,-300.91 2256.83,-307.9"/>
</g>
<!-- Node41&#45;&gt;Node6 -->
<g id="edge96" class="edge">
<title>Node41&#45;&gt;Node6</title>
<path fill="none" stroke="#63b8ff" d="M2316.69,-288.13C2309.88,-265.63 2300,-227.16 2300,-193.25 2300,-193.25 2300,-193.25 2300,-124.75 2300,-87.71 2286.18,-73.6 2254,-55.25 2178.74,-12.34 1553.17,-10.36 1399.16,-10.53"/>
<polygon fill="#63b8ff" stroke="#63b8ff" points="2313.56,-288.84 2319.9,-297.33 2320.23,-286.74 2313.56,-288.84"/>
</g>
<!-- Node43&#45;&gt;Node6 -->
<g id="edge109" class="edge">
<title>Node43&#45;&gt;Node6</title>
<path fill="none" stroke="#63b8ff" d="M2821.63,-719.92C2828.99,-693.77 2839,-651.26 2839,-613.75 2839,-613.75 2839,-613.75 2839,-124.75 2839,-86.4 3227.4,-131.68 2482,-55.25 2056.29,-11.6 1535.24,-10.04 1398.92,-10.44"/>
<polygon fill="#63b8ff" stroke="#63b8ff" points="2818.02,-718.8 2818.59,-729.38 2824.74,-720.76 2818.02,-718.8"/>
</g>
<!-- Node44&#45;&gt;Node3 -->
<g id="edge112" class="edge">
<title>Node44&#45;&gt;Node3</title>
<path fill="none" stroke="#63b8ff" d="M1640.45,-654.65C1658.65,-623.57 1683.27,-568.51 1657,-531 1630.14,-492.65 1595.03,-523.65 1558,-495 1477.33,-432.58 1522.99,-356.63 1439,-298.75 1402.39,-273.52 1278.34,-261.71 1207.91,-256.92"/>
<polygon fill="#63b8ff" stroke="#63b8ff" points="1637.07,-652.48 1634.85,-662.84 1643.04,-656.12 1637.07,-652.48"/>
</g>
<!-- Node44&#45;&gt;Node6 -->
<g id="edge116" class="edge">
<title>Node44&#45;&gt;Node6</title>
<path fill="none" stroke="#63b8ff" d="M1654.73,-657.18C1715.45,-611.44 1848,-496.49 1848,-364.62 1848,-364.62 1848,-364.62 1848,-124.75 1848,-32.45 1509.69,-14.71 1399.35,-11.38"/>
<polygon fill="#63b8ff" stroke="#63b8ff" points="1652.93,-654.91 1646.98,-663.67 1657.1,-660.53 1652.93,-654.91"/>
</g>
<!-- Node44&#45;&gt;Node19 -->
<g id="edge114" class="edge">
<title>Node44&#45;&gt;Node19</title>
<path fill="none" stroke="#63b8ff" d="M1562.33,-660.62C1480.01,-637.5 1344.46,-599.61 1333,-597.5 1249.58,-582.14 1028.84,-599.5 953,-561.5 912.17,-541.05 846.18,-442.61 815,-409.25 803.25,-396.67 789.39,-382.39 780.65,-373.44"/>
<polygon fill="#63b8ff" stroke="#63b8ff" points="1561.26,-664.24 1571.84,-663.57 1563.16,-657.5 1561.26,-664.24"/>
</g>
<!-- Node44&#45;&gt;Node28 -->
<g id="edge115" class="edge">
<title>Node44&#45;&gt;Node28</title>
<path fill="none" stroke="#63b8ff" d="M1621.34,-653.02C1617.06,-623.48 1610.18,-576.1 1607.32,-556.35"/>
<polygon fill="#63b8ff" stroke="#63b8ff" points="1617.99,-653.34 1622.89,-662.73 1624.92,-652.33 1617.99,-653.34"/>
</g>
<!-- Node44&#45;&gt;Node29 -->
<g id="edge113" class="edge">
<title>Node44&#45;&gt;Node29</title>
<path fill="none" stroke="#63b8ff" d="M1681.6,-660.35C1720.16,-648.16 1769.59,-632.53 1800.28,-622.83"/>
<polygon fill="#63b8ff" stroke="#63b8ff" points="1681.03,-657.18 1672.55,-663.53 1683.14,-663.86 1681.03,-657.18"/>
</g>
<!-- Node45&#45;&gt;Node6 -->
<g id="edge132" class="edge">
<title>Node45&#45;&gt;Node6</title>
<path fill="none" stroke="#63b8ff" d="M2735.69,-664.52C2751.99,-656.24 2770.47,-644.13 2782,-628 2803.44,-598 2801,-584.12 2801,-547.25 2801,-547.25 2801,-547.25 2801,-124.75 2801,-52.07 1616.54,-17.27 1399.08,-11.5"/>
<polygon fill="#63b8ff" stroke="#63b8ff" points="2734.43,-661.72 2726.91,-669.18 2737.44,-668.04 2734.43,-661.72"/>
</g>
<!-- Node45&#45;&gt;Node29 -->
<g id="edge131" class="edge">
<title>Node45&#45;&gt;Node29</title>
<path fill="none" stroke="#63b8ff" d="M2626.19,-672.65C2451.14,-659.72 2022.73,-628.06 1877.82,-617.36"/>
<polygon fill="#63b8ff" stroke="#63b8ff" points="2625.87,-676.21 2636.1,-673.45 2626.38,-669.23 2625.87,-676.21"/>
</g>
<!-- Node46 -->
<g id="node46" class="node">
<title>Node46</title>
<g id="a_node46"><a xlink:href="v8-cppgc_8h.html" target="_top" xlink:title=" ">
<polygon fill="white" stroke="#666666" points="2772.5,-622.38 2675.5,-622.38 2675.5,-603.12 2772.5,-603.12 2772.5,-622.38"/>
<text text-anchor="middle" x="2724" y="-608.88" font-family="Helvetica,sans-Serif" font-size="10.00">include/v8&#45;cppgc.h</text>
</a>
</g>
</g>
<!-- Node45&#45;&gt;Node46 -->
<g id="edge128" class="edge">
<title>Node45&#45;&gt;Node46</title>
<path fill="none" stroke="#63b8ff" d="M2708.6,-658.9C2712.71,-646.86 2717.79,-631.95 2720.97,-622.64"/>
<polygon fill="#63b8ff" stroke="#63b8ff" points="2704.97,-657.69 2705.06,-668.28 2711.6,-659.95 2704.97,-657.69"/>
</g>
<!-- Node47 -->
<g id="node47" class="node">
<title>Node47</title>
<g id="a_node47"><a xlink:href="v8-embedder-heap_8h.html" target="_top" xlink:title=" ">
<polygon fill="white" stroke="#666666" points="2212,-439.75 2106,-439.75 2106,-409.25 2212,-409.25 2212,-439.75"/>
<text text-anchor="start" x="2114" y="-426.25" font-family="Helvetica,sans-Serif" font-size="10.00">include/v8&#45;embedder</text>
<text text-anchor="middle" x="2159" y="-415" font-family="Helvetica,sans-Serif" font-size="10.00">&#45;heap.h</text>
</a>
</g>
</g>
<!-- Node45&#45;&gt;Node47 -->
<g id="edge129" class="edge">
<title>Node45&#45;&gt;Node47</title>
<path fill="none" stroke="#63b8ff" d="M2686.1,-661.08C2678.75,-651.97 2670.82,-640.17 2667,-628 2658.03,-599.42 2673.57,-591.13 2678,-561.5 2680,-548.09 2686.58,-541.5 2678,-531 2619.53,-459.45 2332.93,-435.22 2212.48,-428.11"/>
<polygon fill="#63b8ff" stroke="#63b8ff" points="2683.9,-662.9 2693.08,-668.2 2689.21,-658.33 2683.9,-662.9"/>
</g>
<!-- Node47&#45;&gt;Node3 -->
<g id="edge130" class="edge">
<title>Node47&#45;&gt;Node3</title>
<path fill="none" stroke="#63b8ff" d="M2097.14,-405.82C1999.55,-378.61 1803.51,-326.69 1634,-298.75 1479.83,-273.33 1295.01,-261.17 1207.98,-256.51"/>
<polygon fill="#63b8ff" stroke="#63b8ff" points="2096.12,-409.45 2106.7,-408.78 2098.01,-402.71 2096.12,-409.45"/>
</g>
<!-- Node48&#45;&gt;Node6 -->
<g id="edge135" class="edge">
<title>Node48&#45;&gt;Node6</title>
<path fill="none" stroke="#63b8ff" d="M2933.55,-232.52C2929.34,-191.44 2913.25,-96.74 2853,-55.25 2791.17,-12.67 1615.56,-10.62 1399.1,-10.61"/>
<polygon fill="#63b8ff" stroke="#63b8ff" points="2930.15,-232.77 2934.51,-242.43 2937.12,-232.16 2930.15,-232.77"/>
</g>
</g>
</svg>
