<?xml version="1.0" encoding="UTF-8" standalone="no"?>
<!DOCTYPE svg PUBLIC "-//W3C//DTD SVG 1.1//EN"
 "http://www.w3.org/Graphics/SVG/1.1/DTD/svg11.dtd">
<!-- Generated by graphviz version 8.0.5 (20230430.1635)
 -->
<!-- Title: include/v8&#45;promise.h Pages: 1 -->
<svg width="1169pt" height="547pt"
 viewBox="0.00 0.00 1169.48 547.00" xmlns="http://www.w3.org/2000/svg" xmlns:xlink="http://www.w3.org/1999/xlink">
<g id="graph0" class="graph" transform="scale(1 1) rotate(0) translate(4 543)">
<title>include/v8&#45;promise.h</title>
<!-- Node1 -->
<g id="node1" class="node">
<title>Node1</title>
<g id="a_node1"><a xlink:title=" ">
<polygon fill="#999999" stroke="#666666" points="926.25,-539 821,-539 821,-519.75 926.25,-519.75 926.25,-539"/>
<text text-anchor="middle" x="873.62" y="-525.5" font-family="Helvetica,sans-Serif" font-size="10.00">include/v8&#45;promise.h</text>
</a>
</g>
</g>
<!-- Node2 -->
<g id="node2" class="node">
<title>Node2</title>
<g id="a_node2"><a xlink:href="v8-callbacks_8h.html" target="_top" xlink:title=" ">
<polygon fill="white" stroke="#666666" points="537.62,-483.75 425.62,-483.75 425.62,-464.5 537.62,-464.5 537.62,-483.75"/>
<text text-anchor="middle" x="481.62" y="-470.25" font-family="Helvetica,sans-Serif" font-size="10.00">include/v8&#45;callbacks.h</text>
</a>
</g>
</g>
<!-- Node1&#45;&gt;Node2 -->
<g id="edge1" class="edge">
<title>Node1&#45;&gt;Node2</title>
<path fill="none" stroke="#63b8ff" d="M810,-519.73C734.62,-509.49 610.19,-492.59 538.09,-482.79"/>
<polygon fill="#63b8ff" stroke="#63b8ff" points="809.38,-523.32 819.76,-521.19 810.32,-516.38 809.38,-523.32"/>
</g>
<!-- Node4 -->
<g id="node4" class="node">
<title>Node4</title>
<g id="a_node4"><a xlink:href="v8_8h.html" target="_top" xlink:title=" ">
<polygon fill="white" stroke="#666666" points="507.5,-19.25 439.75,-19.25 439.75,0 507.5,0 507.5,-19.25"/>
<text text-anchor="middle" x="473.62" y="-5.75" font-family="Helvetica,sans-Serif" font-size="10.00">include/v8.h</text>
</a>
</g>
</g>
<!-- Node1&#45;&gt;Node4 -->
<g id="edge33" class="edge">
<title>Node1&#45;&gt;Node4</title>
<path fill="none" stroke="#63b8ff" d="M937.07,-527.04C1010.55,-521.73 1121.62,-500.39 1121.62,-419.88 1121.62,-419.88 1121.62,-419.88 1121.62,-124.75 1121.62,-94.19 1286.66,-131.58 941.62,-55.25 782.04,-19.95 585.76,-12.57 507.84,-11.03"/>
<polygon fill="#63b8ff" stroke="#63b8ff" points="937.28,-523.59 927.52,-527.71 937.73,-530.57 937.28,-523.59"/>
</g>
<!-- Node19 -->
<g id="node19" class="node">
<title>Node19</title>
<g id="a_node19"><a xlink:href="v8-statistics_8h.html" target="_top" xlink:title=" ">
<polygon fill="white" stroke="#666666" points="928.88,-318 818.38,-318 818.38,-298.75 928.88,-298.75 928.88,-318"/>
<text text-anchor="middle" x="873.62" y="-304.5" font-family="Helvetica,sans-Serif" font-size="10.00">include/v8&#45;statistics.h</text>
</a>
</g>
</g>
<!-- Node1&#45;&gt;Node19 -->
<g id="edge30" class="edge">
<title>Node1&#45;&gt;Node19</title>
<path fill="none" stroke="#63b8ff" d="M873.62,-508.7C873.62,-462.84 873.62,-350.29 873.62,-318.1"/>
<polygon fill="#63b8ff" stroke="#63b8ff" points="870.13,-508.52 873.62,-518.52 877.13,-508.52 870.13,-508.52"/>
</g>
<!-- Node3 -->
<g id="node3" class="node">
<title>Node3</title>
<g id="a_node3"><a xlink:href="v8-initialization_8h.html" target="_top" xlink:title=" ">
<polygon fill="white" stroke="#666666" points="515.12,-201.88 394.12,-201.88 394.12,-182.62 515.12,-182.62 515.12,-201.88"/>
<text text-anchor="middle" x="454.62" y="-188.38" font-family="Helvetica,sans-Serif" font-size="10.00">include/v8&#45;initialization.h</text>
</a>
</g>
</g>
<!-- Node2&#45;&gt;Node3 -->
<g id="edge2" class="edge">
<title>Node2&#45;&gt;Node3</title>
<path fill="none" stroke="#63b8ff" d="M481.62,-453.37C481.62,-431.62 481.62,-395.63 481.62,-364.62 481.62,-364.62 481.62,-364.62 481.62,-307.38 481.62,-267.27 465.64,-221.3 458.27,-202.25"/>
<polygon fill="#63b8ff" stroke="#63b8ff" points="478.13,-453.12 481.62,-463.12 485.13,-453.12 478.13,-453.12"/>
</g>
<!-- Node5 -->
<g id="node5" class="node">
<title>Node5</title>
<g id="a_node5"><a xlink:href="v8-isolate_8h.html" target="_top" xlink:title=" ">
<polygon fill="white" stroke="#666666" points="759.25,-262.75 660,-262.75 660,-243.5 759.25,-243.5 759.25,-262.75"/>
<text text-anchor="middle" x="709.62" y="-249.25" font-family="Helvetica,sans-Serif" font-size="10.00">include/v8&#45;isolate.h</text>
</a>
</g>
</g>
<!-- Node2&#45;&gt;Node5 -->
<g id="edge4" class="edge">
<title>Node2&#45;&gt;Node5</title>
<path fill="none" stroke="#63b8ff" d="M498.58,-456.84C543.81,-413.4 666.18,-295.86 700.54,-262.85"/>
<polygon fill="#63b8ff" stroke="#63b8ff" points="496.63,-453.82 491.85,-463.27 501.48,-458.87 496.63,-453.82"/>
</g>
<!-- Node13 -->
<g id="node13" class="node">
<title>Node13</title>
<g id="a_node13"><a xlink:href="v8-message_8h.html" target="_top" xlink:title=" ">
<polygon fill="white" stroke="#666666" points="266.88,-428.5 156.38,-428.5 156.38,-409.25 266.88,-409.25 266.88,-428.5"/>
<text text-anchor="middle" x="211.62" y="-415" font-family="Helvetica,sans-Serif" font-size="10.00">include/v8&#45;message.h</text>
</a>
</g>
</g>
<!-- Node2&#45;&gt;Node13 -->
<g id="edge17" class="edge">
<title>Node2&#45;&gt;Node13</title>
<path fill="none" stroke="#63b8ff" d="M424.94,-461.94C375.2,-452.14 303.78,-438.05 257.54,-428.93"/>
<polygon fill="#63b8ff" stroke="#63b8ff" points="424.03,-465.53 434.52,-464.03 425.38,-458.66 424.03,-465.53"/>
</g>
<!-- Node17 -->
<g id="node17" class="node">
<title>Node17</title>
<g id="a_node17"><a xlink:href="v8-script_8h.html" target="_top" xlink:title=" ">
<polygon fill="white" stroke="#666666" points="398,-373.25 303.25,-373.25 303.25,-354 398,-354 398,-373.25"/>
<text text-anchor="middle" x="350.62" y="-359.75" font-family="Helvetica,sans-Serif" font-size="10.00">include/v8&#45;script.h</text>
</a>
</g>
</g>
<!-- Node2&#45;&gt;Node17 -->
<g id="edge29" class="edge">
<title>Node2&#45;&gt;Node17</title>
<path fill="none" stroke="#63b8ff" d="M462.76,-457.5C434.93,-434.45 383.79,-392.09 361.49,-373.63"/>
<polygon fill="#63b8ff" stroke="#63b8ff" points="459.97,-460.56 469.9,-464.25 464.44,-455.17 459.97,-460.56"/>
</g>
<!-- Node3&#45;&gt;Node4 -->
<g id="edge3" class="edge">
<title>Node3&#45;&gt;Node4</title>
<path fill="none" stroke="#63b8ff" d="M456.68,-171.72C460.76,-132.95 469.73,-47.61 472.67,-19.67"/>
<polygon fill="#63b8ff" stroke="#63b8ff" points="453.11,-171.23 455.54,-181.54 460.07,-171.96 453.11,-171.23"/>
</g>
<!-- Node5&#45;&gt;Node3 -->
<g id="edge6" class="edge">
<title>Node5&#45;&gt;Node3</title>
<path fill="none" stroke="#63b8ff" d="M659.77,-240.61C611.26,-229.41 538.52,-212.62 493.95,-202.33"/>
<polygon fill="#63b8ff" stroke="#63b8ff" points="658.81,-244.22 669.34,-243.05 660.38,-237.39 658.81,-244.22"/>
</g>
<!-- Node5&#45;&gt;Node4 -->
<g id="edge16" class="edge">
<title>Node5&#45;&gt;Node4</title>
<path fill="none" stroke="#63b8ff" d="M741.71,-237.96C754.02,-230.75 766.75,-220.67 773.62,-207.5 779.9,-195.48 779.02,-189.44 773.62,-177 742.14,-104.37 712.92,-93.52 643.62,-55.25 600.22,-31.28 543.42,-19.76 507.72,-14.54"/>
<polygon fill="#63b8ff" stroke="#63b8ff" points="740.21,-235.33 733.05,-243.14 743.52,-241.5 740.21,-235.33"/>
</g>
<!-- Node6 -->
<g id="node6" class="node">
<title>Node6</title>
<g id="a_node6"><a xlink:href="v8-external-memory-accounter_8h.html" target="_top" xlink:title=" ">
<polygon fill="white" stroke="#666666" points="927,-207.5 820.25,-207.5 820.25,-177 927,-177 927,-207.5"/>
<text text-anchor="start" x="828.25" y="-194" font-family="Helvetica,sans-Serif" font-size="10.00">include/v8&#45;external</text>
<text text-anchor="middle" x="873.62" y="-182.75" font-family="Helvetica,sans-Serif" font-size="10.00">&#45;memory&#45;accounter.h</text>
</a>
</g>
</g>
<!-- Node5&#45;&gt;Node6 -->
<g id="edge5" class="edge">
<title>Node5&#45;&gt;Node6</title>
<path fill="none" stroke="#63b8ff" d="M744.97,-239.44C770.74,-230.19 805.71,-217.63 832.69,-207.94"/>
<polygon fill="#63b8ff" stroke="#63b8ff" points="744.12,-236.38 735.89,-243.05 746.49,-242.97 744.12,-236.38"/>
</g>
<!-- Node7 -->
<g id="node7" class="node">
<title>Node7</title>
<g id="a_node7"><a xlink:href="v8-inspector_8h.html" target="_top" xlink:title=" ">
<polygon fill="white" stroke="#666666" points="1055.88,-201.88 945.38,-201.88 945.38,-182.62 1055.88,-182.62 1055.88,-201.88"/>
<text text-anchor="middle" x="1000.62" y="-188.38" font-family="Helvetica,sans-Serif" font-size="10.00">include/v8&#45;inspector.h</text>
</a>
</g>
</g>
<!-- Node5&#45;&gt;Node7 -->
<g id="edge7" class="edge">
<title>Node5&#45;&gt;Node7</title>
<path fill="none" stroke="#63b8ff" d="M767.9,-240.97C813.58,-232.13 878.72,-219.36 935.62,-207.5 943.43,-205.87 951.75,-204.09 959.74,-202.35"/>
<polygon fill="#63b8ff" stroke="#63b8ff" points="767.46,-237.68 758.3,-243.01 768.78,-244.55 767.46,-237.68"/>
</g>
<!-- Node9 -->
<g id="node9" class="node">
<title>Node9</title>
<g id="a_node9"><a xlink:href="v8-metrics_8h.html" target="_top" xlink:title=" ">
<polygon fill="white" stroke="#666666" points="636.12,-201.88 533.12,-201.88 533.12,-182.62 636.12,-182.62 636.12,-201.88"/>
<text text-anchor="middle" x="584.62" y="-188.38" font-family="Helvetica,sans-Serif" font-size="10.00">include/v8&#45;metrics.h</text>
</a>
</g>
</g>
<!-- Node5&#45;&gt;Node9 -->
<g id="edge9" class="edge">
<title>Node5&#45;&gt;Node9</title>
<path fill="none" stroke="#63b8ff" d="M680.52,-238.42C656.86,-227.27 624.15,-211.87 603.7,-202.23"/>
<polygon fill="#63b8ff" stroke="#63b8ff" points="678.83,-241.96 689.37,-243.05 681.81,-235.63 678.83,-241.96"/>
</g>
<!-- Node10 -->
<g id="node10" class="node">
<title>Node10</title>
<g id="a_node10"><a xlink:href="v8-snapshot_8h.html" target="_top" xlink:title=" ">
<polygon fill="white" stroke="#666666" points="764.88,-201.88 654.38,-201.88 654.38,-182.62 764.88,-182.62 764.88,-201.88"/>
<text text-anchor="middle" x="709.62" y="-188.38" font-family="Helvetica,sans-Serif" font-size="10.00">include/v8&#45;snapshot.h</text>
</a>
</g>
</g>
<!-- Node5&#45;&gt;Node10 -->
<g id="edge10" class="edge">
<title>Node5&#45;&gt;Node10</title>
<path fill="none" stroke="#63b8ff" d="M709.62,-232.37C709.62,-222.18 709.62,-210.26 709.62,-202.28"/>
<polygon fill="#63b8ff" stroke="#63b8ff" points="706.13,-232.18 709.62,-242.18 713.13,-232.18 706.13,-232.18"/>
</g>
<!-- Node8 -->
<g id="node8" class="node">
<title>Node8</title>
<g id="a_node8"><a xlink:href="v8-inspector-protocol_8h.html" target="_top" xlink:title=" ">
<polygon fill="white" stroke="#666666" points="1052.12,-141 949.12,-141 949.12,-110.5 1052.12,-110.5 1052.12,-141"/>
<text text-anchor="start" x="957.12" y="-127.5" font-family="Helvetica,sans-Serif" font-size="10.00">include/v8&#45;inspector</text>
<text text-anchor="middle" x="1000.62" y="-116.25" font-family="Helvetica,sans-Serif" font-size="10.00">&#45;protocol.h</text>
</a>
</g>
</g>
<!-- Node7&#45;&gt;Node8 -->
<g id="edge8" class="edge">
<title>Node7&#45;&gt;Node8</title>
<path fill="none" stroke="#63b8ff" d="M1000.62,-171.52C1000.62,-161.7 1000.62,-150.05 1000.62,-141.09"/>
<polygon fill="#63b8ff" stroke="#63b8ff" points="997.13,-171.28 1000.62,-181.28 1004.13,-171.28 997.13,-171.28"/>
</g>
<!-- Node10&#45;&gt;Node4 -->
<g id="edge15" class="edge">
<title>Node10&#45;&gt;Node4</title>
<path fill="none" stroke="#63b8ff" d="M667.1,-178.89C641.48,-170.38 608.86,-157.62 582.62,-141 546.1,-117.86 538.72,-108.19 511.62,-74.5 497.07,-56.4 484.19,-32.18 477.83,-19.39"/>
<polygon fill="#63b8ff" stroke="#63b8ff" points="665.66,-182.43 676.25,-182.16 667.81,-175.76 665.66,-182.43"/>
</g>
<!-- Node11 -->
<g id="node11" class="node">
<title>Node11</title>
<g id="a_node11"><a xlink:href="v8-context_8h.html" target="_top" xlink:title=" ">
<polygon fill="white" stroke="#666666" points="693.75,-135.38 591.5,-135.38 591.5,-116.12 693.75,-116.12 693.75,-135.38"/>
<text text-anchor="middle" x="642.62" y="-121.88" font-family="Helvetica,sans-Serif" font-size="10.00">include/v8&#45;context.h</text>
</a>
</g>
</g>
<!-- Node10&#45;&gt;Node11 -->
<g id="edge11" class="edge">
<title>Node10&#45;&gt;Node11</title>
<path fill="none" stroke="#63b8ff" d="M692.55,-174.81C679.61,-162.36 662.33,-145.72 651.86,-135.64"/>
<polygon fill="#63b8ff" stroke="#63b8ff" points="689.68,-176.87 699.31,-181.28 694.53,-171.82 689.68,-176.87"/>
</g>
<!-- Node11&#45;&gt;Node4 -->
<g id="edge14" class="edge">
<title>Node11&#45;&gt;Node4</title>
<path fill="none" stroke="#63b8ff" d="M642.21,-104.76C640.82,-89.29 636.46,-68.38 623.62,-55.25 593.14,-24.07 541.92,-14.45 507.95,-11.61"/>
<polygon fill="#63b8ff" stroke="#63b8ff" points="638.77,-104.93 642.79,-114.73 645.76,-104.56 638.77,-104.93"/>
</g>
<!-- Node12 -->
<g id="node12" class="node">
<title>Node12</title>
<g id="a_node12"><a xlink:href="v8-proxy_8h.html" target="_top" xlink:title=" ">
<polygon fill="white" stroke="#666666" points="614.25,-74.5 521,-74.5 521,-55.25 614.25,-55.25 614.25,-74.5"/>
<text text-anchor="middle" x="567.62" y="-61" font-family="Helvetica,sans-Serif" font-size="10.00">include/v8&#45;proxy.h</text>
</a>
</g>
</g>
<!-- Node11&#45;&gt;Node12 -->
<g id="edge12" class="edge">
<title>Node11&#45;&gt;Node12</title>
<path fill="none" stroke="#63b8ff" d="M622.8,-109.19C608.87,-98.26 590.73,-84.01 579.12,-74.9"/>
<polygon fill="#63b8ff" stroke="#63b8ff" points="620.21,-112.39 630.23,-115.81 624.53,-106.88 620.21,-112.39"/>
</g>
<!-- Node12&#45;&gt;Node4 -->
<g id="edge13" class="edge">
<title>Node12&#45;&gt;Node4</title>
<path fill="none" stroke="#63b8ff" d="M542.44,-49.61C525.67,-40.11 504.12,-27.9 489.65,-19.7"/>
<polygon fill="#63b8ff" stroke="#63b8ff" points="540.25,-52.96 550.68,-54.84 543.7,-46.87 540.25,-52.96"/>
</g>
<!-- Node13&#45;&gt;Node4 -->
<g id="edge28" class="edge">
<title>Node13&#45;&gt;Node4</title>
<path fill="none" stroke="#63b8ff" d="M188.88,-402.57C164.01,-383.81 127.62,-349.51 127.62,-309.38 127.62,-309.38 127.62,-309.38 127.62,-124.75 127.62,-92.73 122.55,-76.36 146.62,-55.25 189.66,-17.53 364.62,-11.5 439.43,-10.68"/>
<polygon fill="#63b8ff" stroke="#63b8ff" points="186.6,-405.96 196.75,-408.98 190.7,-400.29 186.6,-405.96"/>
</g>
<!-- Node14 -->
<g id="node14" class="node">
<title>Node14</title>
<g id="a_node14"><a xlink:href="v8-function_8h.html" target="_top" xlink:title=" ">
<polygon fill="white" stroke="#666666" points="261.25,-74.5 156,-74.5 156,-55.25 261.25,-55.25 261.25,-74.5"/>
<text text-anchor="middle" x="208.62" y="-61" font-family="Helvetica,sans-Serif" font-size="10.00">include/v8&#45;function.h</text>
</a>
</g>
</g>
<!-- Node13&#45;&gt;Node14 -->
<g id="edge18" class="edge">
<title>Node13&#45;&gt;Node14</title>
<path fill="none" stroke="#63b8ff" d="M203.57,-398.77C195.3,-377.4 183.62,-341.53 183.62,-309.38 183.62,-309.38 183.62,-309.38 183.62,-191.25 183.62,-146.86 198.88,-95.31 205.56,-74.88"/>
<polygon fill="#63b8ff" stroke="#63b8ff" points="200.62,-399.83 207.61,-407.79 207.12,-397.21 200.62,-399.83"/>
</g>
<!-- Node15 -->
<g id="node15" class="node">
<title>Node15</title>
<g id="a_node15"><a xlink:href="v8-json_8h.html" target="_top" xlink:title=" ">
<polygon fill="white" stroke="#666666" points="300,-262.75 211.25,-262.75 211.25,-243.5 300,-243.5 300,-262.75"/>
<text text-anchor="middle" x="255.62" y="-249.25" font-family="Helvetica,sans-Serif" font-size="10.00">include/v8&#45;json.h</text>
</a>
</g>
</g>
<!-- Node13&#45;&gt;Node15 -->
<g id="edge20" class="edge">
<title>Node13&#45;&gt;Node15</title>
<path fill="none" stroke="#63b8ff" d="M216.79,-398.66C226.33,-363.15 246.37,-288.57 253.25,-262.97"/>
<polygon fill="#63b8ff" stroke="#63b8ff" points="213.21,-397.51 213.99,-408.07 219.97,-399.32 213.21,-397.51"/>
</g>
<!-- Node16 -->
<g id="node16" class="node">
<title>Node16</title>
<g id="a_node16"><a xlink:href="v8-profiler_8h.html" target="_top" xlink:title=" ">
<polygon fill="white" stroke="#666666" points="99.25,-373.25 0,-373.25 0,-354 99.25,-354 99.25,-373.25"/>
<text text-anchor="middle" x="49.62" y="-359.75" font-family="Helvetica,sans-Serif" font-size="10.00">include/v8&#45;profiler.h</text>
</a>
</g>
</g>
<!-- Node13&#45;&gt;Node16 -->
<g id="edge22" class="edge">
<title>Node13&#45;&gt;Node16</title>
<path fill="none" stroke="#63b8ff" d="M173.79,-405.44C144.22,-395.72 103.82,-382.44 77.24,-373.7"/>
<polygon fill="#63b8ff" stroke="#63b8ff" points="172.55,-409.04 183.14,-408.84 174.74,-402.39 172.55,-409.04"/>
</g>
<!-- Node13&#45;&gt;Node17 -->
<g id="edge23" class="edge">
<title>Node13&#45;&gt;Node17</title>
<path fill="none" stroke="#63b8ff" d="M245.43,-404.92C270.67,-395.25 304.53,-382.29 326.93,-373.7"/>
<polygon fill="#63b8ff" stroke="#63b8ff" points="244.29,-402 236.2,-408.84 246.79,-408.53 244.29,-402"/>
</g>
<!-- Node14&#45;&gt;Node4 -->
<g id="edge19" class="edge">
<title>Node14&#45;&gt;Node4</title>
<path fill="none" stroke="#63b8ff" d="M264.45,-52.66C317.39,-42.02 395.24,-26.38 439.51,-17.48"/>
<polygon fill="#63b8ff" stroke="#63b8ff" points="263.99,-49.38 254.88,-54.78 265.37,-56.24 263.99,-49.38"/>
</g>
<!-- Node15&#45;&gt;Node4 -->
<g id="edge21" class="edge">
<title>Node15&#45;&gt;Node4</title>
<path fill="none" stroke="#63b8ff" d="M255.51,-232.17C256.4,-192.64 264.16,-104 313.62,-55.25 347.31,-22.05 403.5,-13.07 439.54,-10.91"/>
<polygon fill="#63b8ff" stroke="#63b8ff" points="252,-232.14 255.42,-242.16 259,-232.19 252,-232.14"/>
</g>
<!-- Node17&#45;&gt;Node4 -->
<g id="edge27" class="edge">
<title>Node17&#45;&gt;Node4</title>
<path fill="none" stroke="#63b8ff" d="M344.02,-343.43C337.22,-321.95 327.62,-285.97 327.62,-254.12 327.62,-254.12 327.62,-254.12 327.62,-124.75 327.62,-67 399.4,-34.13 442.3,-19.64"/>
<polygon fill="#63b8ff" stroke="#63b8ff" points="340.97,-344.36 347.43,-352.76 347.62,-342.16 340.97,-344.36"/>
</g>
<!-- Node18 -->
<g id="node18" class="node">
<title>Node18</title>
<g id="a_node18"><a xlink:href="v8-debug_8h.html" target="_top" xlink:title=" ">
<polygon fill="white" stroke="#666666" points="453.12,-318 356.12,-318 356.12,-298.75 453.12,-298.75 453.12,-318"/>
<text text-anchor="middle" x="404.62" y="-304.5" font-family="Helvetica,sans-Serif" font-size="10.00">include/v8&#45;debug.h</text>
</a>
</g>
</g>
<!-- Node17&#45;&gt;Node18 -->
<g id="edge24" class="edge">
<title>Node17&#45;&gt;Node18</title>
<path fill="none" stroke="#63b8ff" d="M367.09,-346.38C376.43,-337.18 387.76,-326 395.51,-318.36"/>
<polygon fill="#63b8ff" stroke="#63b8ff" points="365.2,-343.32 360.54,-352.83 370.12,-348.3 365.2,-343.32"/>
</g>
<!-- Node18&#45;&gt;Node4 -->
<g id="edge26" class="edge">
<title>Node18&#45;&gt;Node4</title>
<path fill="none" stroke="#63b8ff" d="M394.06,-288.83C382.51,-266.78 365.62,-228.52 365.62,-193.25 365.62,-193.25 365.62,-193.25 365.62,-124.75 365.62,-73.47 423.87,-35.96 454.81,-19.65"/>
<polygon fill="#63b8ff" stroke="#63b8ff" points="391.34,-290.16 399.2,-297.27 397.49,-286.81 391.34,-290.16"/>
</g>
<!-- Node18&#45;&gt;Node5 -->
<g id="edge25" class="edge">
<title>Node18&#45;&gt;Node5</title>
<path fill="none" stroke="#63b8ff" d="M463.94,-297.02C520.9,-287.07 605.99,-272.22 659.61,-262.86"/>
<polygon fill="#63b8ff" stroke="#63b8ff" points="463.54,-293.71 454.29,-298.88 464.74,-300.61 463.54,-293.71"/>
</g>
<!-- Node19&#45;&gt;Node4 -->
<g id="edge32" class="edge">
<title>Node19&#45;&gt;Node4</title>
<path fill="none" stroke="#63b8ff" d="M939.8,-299.32C1001.36,-287.7 1083.62,-259.74 1083.62,-193.25 1083.62,-193.25 1083.62,-193.25 1083.62,-124.75 1083.62,-65.69 636.19,-24.08 507.73,-13.35"/>
<polygon fill="#63b8ff" stroke="#63b8ff" points="939.58,-295.99 930.35,-301.18 940.81,-302.88 939.58,-295.99"/>
</g>
<!-- Node19&#45;&gt;Node5 -->
<g id="edge31" class="edge">
<title>Node19&#45;&gt;Node5</title>
<path fill="none" stroke="#63b8ff" d="M835.71,-295.07C805.75,-285.34 764.61,-271.98 737.58,-263.2"/>
<polygon fill="#63b8ff" stroke="#63b8ff" points="834.21,-298.58 844.8,-298.34 836.37,-291.92 834.21,-298.58"/>
</g>
</g>
</svg>
