<?xml version="1.0" encoding="UTF-8" standalone="no"?>
<!DOCTYPE svg PUBLIC "-//W3C//DTD SVG 1.1//EN"
 "http://www.w3.org/Graphics/SVG/1.1/DTD/svg11.dtd">
<!-- Generated by graphviz version 8.0.5 (20230430.1635)
 -->
<!-- Title: include/v8&#45;value.h Pages: 1 -->
<svg width="1909pt" height="747pt"
 viewBox="0.00 0.00 1908.50 746.50" xmlns="http://www.w3.org/2000/svg" xmlns:xlink="http://www.w3.org/1999/xlink">
<g id="graph0" class="graph" transform="scale(1 1) rotate(0) translate(4 742.5)">
<title>include/v8&#45;value.h</title>
<!-- Node1 -->
<g id="node1" class="node">
<title>Node1</title>
<g id="a_node1"><a xlink:title=" ">
<polygon fill="#999999" stroke="#666666" points="438.5,-738.5 344.5,-738.5 344.5,-719.25 438.5,-719.25 438.5,-738.5"/>
<text text-anchor="middle" x="391.5" y="-725" font-family="Helvetica,sans-Serif" font-size="10.00">include/v8&#45;value.h</text>
</a>
</g>
</g>
<!-- Node2 -->
<g id="node2" class="node">
<title>Node2</title>
<g id="a_node2"><a xlink:href="v8-cpp-heap-external_8h.html" target="_top" xlink:title=" ">
<polygon fill="white" stroke="#666666" points="103,-683.25 0,-683.25 0,-652.75 103,-652.75 103,-683.25"/>
<text text-anchor="start" x="8" y="-669.75" font-family="Helvetica,sans-Serif" font-size="10.00">include/v8&#45;cpp&#45;heap</text>
<text text-anchor="middle" x="51.5" y="-658.5" font-family="Helvetica,sans-Serif" font-size="10.00">&#45;external.h</text>
</a>
</g>
</g>
<!-- Node1&#45;&gt;Node2 -->
<g id="edge1" class="edge">
<title>Node1&#45;&gt;Node2</title>
<path fill="none" stroke="#63b8ff" d="M333.65,-719.33C278.09,-710.92 191.86,-697.32 117.5,-683.25 112.89,-682.38 108.11,-681.43 103.33,-680.45"/>
<polygon fill="#63b8ff" stroke="#63b8ff" points="332.93,-722.92 343.34,-720.95 333.98,-715.99 332.93,-722.92"/>
</g>
<!-- Node3 -->
<g id="node3" class="node">
<title>Node3</title>
<g id="a_node3"><a xlink:href="v8-external_8h.html" target="_top" xlink:title=" ">
<polygon fill="white" stroke="#666666" points="141.75,-80.12 37.25,-80.12 37.25,-60.88 141.75,-60.88 141.75,-80.12"/>
<text text-anchor="middle" x="89.5" y="-66.62" font-family="Helvetica,sans-Serif" font-size="10.00">include/v8&#45;external.h</text>
</a>
</g>
</g>
<!-- Node1&#45;&gt;Node3 -->
<g id="edge2" class="edge">
<title>Node1&#45;&gt;Node3</title>
<path fill="none" stroke="#63b8ff" d="M333.37,-723.64C272.21,-718.04 181.32,-706.09 155.5,-683.25 129.25,-660.03 131.5,-643.18 131.5,-608.12 131.5,-608.12 131.5,-608.12 131.5,-202.5 131.5,-154.49 105.61,-101.11 94.48,-80.39"/>
<polygon fill="#63b8ff" stroke="#63b8ff" points="332.77,-727.19 343.04,-724.58 333.39,-720.22 332.77,-727.19"/>
</g>
<!-- Node4 -->
<g id="node4" class="node">
<title>Node4</title>
<g id="a_node4"><a xlink:href="v8_8h.html" target="_top" xlink:title=" ">
<polygon fill="white" stroke="#666666" points="840.38,-19.25 772.62,-19.25 772.62,0 840.38,0 840.38,-19.25"/>
<text text-anchor="middle" x="806.5" y="-5.75" font-family="Helvetica,sans-Serif" font-size="10.00">include/v8.h</text>
</a>
</g>
</g>
<!-- Node1&#45;&gt;Node4 -->
<g id="edge78" class="edge">
<title>Node1&#45;&gt;Node4</title>
<path fill="none" stroke="#63b8ff" d="M333.49,-721.67C267.71,-711.04 169.5,-682.69 169.5,-608.12 169.5,-608.12 169.5,-608.12 169.5,-136 169.5,-95.55 177.73,-77.52 211.5,-55.25 258.36,-24.35 652.4,-13.78 772.13,-11.27"/>
<polygon fill="#63b8ff" stroke="#63b8ff" points="332.74,-725.25 343.15,-723.28 333.78,-718.32 332.74,-725.25"/>
</g>
<!-- Node5 -->
<g id="node5" class="node">
<title>Node5</title>
<g id="a_node5"><a xlink:href="v8-fast-api-calls_8h.html" target="_top" xlink:title=" ">
<polygon fill="white" stroke="#666666" points="759.25,-218.75 663.75,-218.75 663.75,-188.25 759.25,-188.25 759.25,-218.75"/>
<text text-anchor="start" x="671.75" y="-205.25" font-family="Helvetica,sans-Serif" font-size="10.00">include/v8&#45;fast&#45;api</text>
<text text-anchor="middle" x="711.5" y="-194" font-family="Helvetica,sans-Serif" font-size="10.00">&#45;calls.h</text>
</a>
</g>
</g>
<!-- Node1&#45;&gt;Node5 -->
<g id="edge4" class="edge">
<title>Node1&#45;&gt;Node5</title>
<path fill="none" stroke="#63b8ff" d="M449.61,-724.31C547.69,-715.02 745.52,-681.59 849.5,-561.5 949.51,-445.99 723.64,-284.88 719.5,-274 712.63,-255.95 711.2,-233.51 711.11,-219.1"/>
<polygon fill="#63b8ff" stroke="#63b8ff" points="449.38,-720.91 439.73,-725.28 450,-727.88 449.38,-720.91"/>
</g>
<!-- Node6 -->
<g id="node6" class="node">
<title>Node6</title>
<g id="a_node6"><a xlink:href="v8-object_8h.html" target="_top" xlink:title=" ">
<polygon fill="white" stroke="#666666" points="677,-616.75 580,-616.75 580,-597.5 677,-597.5 677,-616.75"/>
<text text-anchor="middle" x="628.5" y="-603.25" font-family="Helvetica,sans-Serif" font-size="10.00">include/v8&#45;object.h</text>
</a>
</g>
</g>
<!-- Node1&#45;&gt;Node6 -->
<g id="edge5" class="edge">
<title>Node1&#45;&gt;Node6</title>
<path fill="none" stroke="#63b8ff" d="M418.94,-714.01C467.95,-689.25 569.27,-638.05 610.48,-617.23"/>
<polygon fill="#63b8ff" stroke="#63b8ff" points="417.66,-711.24 410.31,-718.87 420.82,-717.49 417.66,-711.24"/>
</g>
<!-- Node34 -->
<g id="node34" class="node">
<title>Node34</title>
<g id="a_node34"><a xlink:href="v8-primitive_8h.html" target="_top" xlink:title=" ">
<polygon fill="white" stroke="#666666" points="1299.25,-677.62 1191.75,-677.62 1191.75,-658.38 1299.25,-658.38 1299.25,-677.62"/>
<text text-anchor="middle" x="1245.5" y="-664.12" font-family="Helvetica,sans-Serif" font-size="10.00">include/v8&#45;primitive.h</text>
</a>
</g>
</g>
<!-- Node1&#45;&gt;Node34 -->
<g id="edge66" class="edge">
<title>Node1&#45;&gt;Node34</title>
<path fill="none" stroke="#63b8ff" d="M449.6,-727.55C580.25,-726.16 906.94,-719.07 1177.5,-683.25 1187.19,-681.97 1197.55,-680.07 1207.19,-678.08"/>
<polygon fill="#63b8ff" stroke="#63b8ff" points="449.65,-724.06 439.69,-727.65 449.72,-731.06 449.65,-724.06"/>
</g>
<!-- Node3&#45;&gt;Node4 -->
<g id="edge3" class="edge">
<title>Node3&#45;&gt;Node4</title>
<path fill="none" stroke="#63b8ff" d="M137.66,-58.26C143.64,-57.11 149.7,-56.07 155.5,-55.25 389.93,-22.08 675.48,-13.33 772.43,-11.23"/>
<polygon fill="#63b8ff" stroke="#63b8ff" points="137.13,-55 128.03,-60.42 138.52,-61.86 137.13,-55"/>
</g>
<!-- Node6&#45;&gt;Node4 -->
<g id="edge65" class="edge">
<title>Node6&#45;&gt;Node4</title>
<path fill="none" stroke="#63b8ff" d="M632.29,-586.89C638.26,-552.51 647.32,-478.64 628.5,-420.5 626.57,-414.55 566.02,-334.42 562.5,-329.25 543.5,-301.38 521.5,-299.11 521.5,-265.38 521.5,-265.38 521.5,-265.38 521.5,-136 521.5,-27.48 696.76,-12.06 772.41,-10.46"/>
<polygon fill="#63b8ff" stroke="#63b8ff" points="628.74,-585.85 630.36,-596.32 635.63,-587.12 628.74,-585.85"/>
</g>
<!-- Node7 -->
<g id="node7" class="node">
<title>Node7</title>
<g id="a_node7"><a xlink:href="v8-array-buffer_8h.html" target="_top" xlink:title=" ">
<polygon fill="white" stroke="#666666" points="909.88,-329.25 791.12,-329.25 791.12,-310 909.88,-310 909.88,-329.25"/>
<text text-anchor="middle" x="850.5" y="-315.75" font-family="Helvetica,sans-Serif" font-size="10.00">include/v8&#45;array&#45;buffer.h</text>
</a>
</g>
</g>
<!-- Node6&#45;&gt;Node7 -->
<g id="edge6" class="edge">
<title>Node6&#45;&gt;Node7</title>
<path fill="none" stroke="#63b8ff" d="M688.04,-599.65C739.46,-592.87 808.55,-580.53 828.5,-561.5 851.67,-539.4 847.5,-524.02 847.5,-492 847.5,-492 847.5,-492 847.5,-429.12 847.5,-392.19 849.26,-348.21 850.08,-329.62"/>
<polygon fill="#63b8ff" stroke="#63b8ff" points="687.83,-596.28 678.35,-601.01 688.72,-603.22 687.83,-596.28"/>
</g>
<!-- Node16 -->
<g id="node16" class="node">
<title>Node16</title>
<g id="a_node16"><a xlink:href="v8-proxy_8h.html" target="_top" xlink:title=" ">
<polygon fill="white" stroke="#666666" points="1230.12,-80.12 1136.88,-80.12 1136.88,-60.88 1230.12,-60.88 1230.12,-80.12"/>
<text text-anchor="middle" x="1183.5" y="-66.62" font-family="Helvetica,sans-Serif" font-size="10.00">include/v8&#45;proxy.h</text>
</a>
</g>
</g>
<!-- Node6&#45;&gt;Node16 -->
<g id="edge59" class="edge">
<title>Node6&#45;&gt;Node16</title>
<path fill="none" stroke="#63b8ff" d="M688.08,-601.62C814.6,-591.08 1105.12,-561.42 1185.5,-506.25 1269.6,-448.52 1227.05,-376.38 1304.5,-310 1385.18,-240.84 1466.41,-307.07 1525.5,-218.75 1535.4,-203.95 1539.49,-140.57 1522.5,-121.75 1512.78,-110.99 1321.18,-87.46 1230.42,-76.87"/>
<polygon fill="#63b8ff" stroke="#63b8ff" points="688.12,-598.19 678.44,-602.49 688.69,-605.16 688.12,-598.19"/>
</g>
<!-- Node18 -->
<g id="node18" class="node">
<title>Node18</title>
<g id="a_node18"><a xlink:href="v8-container_8h.html" target="_top" xlink:title=" ">
<polygon fill="white" stroke="#666666" points="1834.75,-146.62 1724.25,-146.62 1724.25,-127.38 1834.75,-127.38 1834.75,-146.62"/>
<text text-anchor="middle" x="1779.5" y="-133.12" font-family="Helvetica,sans-Serif" font-size="10.00">include/v8&#45;container.h</text>
</a>
</g>
</g>
<!-- Node6&#45;&gt;Node18 -->
<g id="edge25" class="edge">
<title>Node6&#45;&gt;Node18</title>
<path fill="none" stroke="#63b8ff" d="M688.28,-603.7C918.44,-592.78 1734.5,-538.66 1734.5,-320.62 1734.5,-320.62 1734.5,-320.62 1734.5,-263.38 1734.5,-217.35 1761.69,-167.12 1773.8,-147.03"/>
<polygon fill="#63b8ff" stroke="#63b8ff" points="688.28,-600.24 678.45,-604.2 688.6,-607.24 688.28,-600.24"/>
</g>
<!-- Node19 -->
<g id="node19" class="node">
<title>Node19</title>
<g id="a_node19"><a xlink:href="v8-date_8h.html" target="_top" xlink:title=" ">
<polygon fill="white" stroke="#666666" points="287.25,-274 197.75,-274 197.75,-254.75 287.25,-254.75 287.25,-274"/>
<text text-anchor="middle" x="242.5" y="-260.5" font-family="Helvetica,sans-Serif" font-size="10.00">include/v8&#45;date.h</text>
</a>
</g>
</g>
<!-- Node6&#45;&gt;Node19 -->
<g id="edge27" class="edge">
<title>Node6&#45;&gt;Node19</title>
<path fill="none" stroke="#63b8ff" d="M568.92,-605.22C483.03,-602.79 329.96,-593.89 286.5,-561.5 259.38,-541.29 255.5,-525.82 255.5,-492 255.5,-492 255.5,-492 255.5,-373.88 255.5,-336.69 247.88,-292.84 244.31,-274.33"/>
<polygon fill="#63b8ff" stroke="#63b8ff" points="568.72,-608.74 578.81,-605.5 568.9,-601.74 568.72,-608.74"/>
</g>
<!-- Node20 -->
<g id="node20" class="node">
<title>Node20</title>
<g id="a_node20"><a xlink:href="v8-exception_8h.html" target="_top" xlink:title=" ">
<polygon fill="white" stroke="#666666" points="564.5,-500.62 452.5,-500.62 452.5,-481.38 564.5,-481.38 564.5,-500.62"/>
<text text-anchor="middle" x="508.5" y="-487.12" font-family="Helvetica,sans-Serif" font-size="10.00">include/v8&#45;exception.h</text>
</a>
</g>
</g>
<!-- Node6&#45;&gt;Node20 -->
<g id="edge29" class="edge">
<title>Node6&#45;&gt;Node20</title>
<path fill="none" stroke="#63b8ff" d="M611.27,-589.74C585.55,-565.28 537.99,-520.04 517.87,-500.91"/>
<polygon fill="#63b8ff" stroke="#63b8ff" points="608.43,-591.81 618.08,-596.17 613.25,-586.74 608.43,-591.81"/>
</g>
<!-- Node21 -->
<g id="node21" class="node">
<title>Node21</title>
<g id="a_node21"><a xlink:href="v8-template_8h.html" target="_top" xlink:title=" ">
<polygon fill="white" stroke="#666666" points="619.62,-439.75 511.38,-439.75 511.38,-420.5 619.62,-420.5 619.62,-439.75"/>
<text text-anchor="middle" x="565.5" y="-426.25" font-family="Helvetica,sans-Serif" font-size="10.00">include/v8&#45;template.h</text>
</a>
</g>
</g>
<!-- Node6&#45;&gt;Node21 -->
<g id="edge62" class="edge">
<title>Node6&#45;&gt;Node21</title>
<path fill="none" stroke="#63b8ff" d="M621.66,-587.13C608.18,-549.69 578.64,-467.64 568.78,-440.24"/>
<polygon fill="#63b8ff" stroke="#63b8ff" points="618.61,-587.98 625.29,-596.21 625.2,-585.61 618.61,-587.98"/>
</g>
<!-- Node22 -->
<g id="node22" class="node">
<title>Node22</title>
<g id="a_node22"><a xlink:href="v8-function_8h.html" target="_top" xlink:title=" ">
<polygon fill="white" stroke="#666666" points="738.12,-384.5 632.88,-384.5 632.88,-365.25 738.12,-365.25 738.12,-384.5"/>
<text text-anchor="middle" x="685.5" y="-371" font-family="Helvetica,sans-Serif" font-size="10.00">include/v8&#45;function.h</text>
</a>
</g>
</g>
<!-- Node6&#45;&gt;Node22 -->
<g id="edge36" class="edge">
<title>Node6&#45;&gt;Node22</title>
<path fill="none" stroke="#63b8ff" d="M644.48,-588.88C650.81,-581.07 657.52,-571.39 661.5,-561.5 687.22,-497.59 686.8,-412.23 685.9,-384.78"/>
<polygon fill="#63b8ff" stroke="#63b8ff" points="641.29,-586.22 637.4,-596.07 646.59,-590.79 641.29,-586.22"/>
</g>
<!-- Node23 -->
<g id="node23" class="node">
<title>Node23</title>
<g id="a_node23"><a xlink:href="v8-primitive-object_8h.html" target="_top" xlink:title=" ">
<polygon fill="white" stroke="#666666" points="341.5,-85.75 241.5,-85.75 241.5,-55.25 341.5,-55.25 341.5,-85.75"/>
<text text-anchor="start" x="249.5" y="-72.25" font-family="Helvetica,sans-Serif" font-size="10.00">include/v8&#45;primitive</text>
<text text-anchor="middle" x="291.5" y="-61" font-family="Helvetica,sans-Serif" font-size="10.00">&#45;object.h</text>
</a>
</g>
</g>
<!-- Node6&#45;&gt;Node23 -->
<g id="edge37" class="edge">
<title>Node6&#45;&gt;Node23</title>
<path fill="none" stroke="#63b8ff" d="M568.85,-606.12C488.58,-604.73 352.09,-597.03 319.5,-561.5 303.01,-543.52 293.62,-165.62 291.82,-86.1"/>
<polygon fill="#63b8ff" stroke="#63b8ff" points="568.73,-609.63 578.78,-606.28 568.83,-602.63 568.73,-609.63"/>
</g>
<!-- Node24 -->
<g id="node24" class="node">
<title>Node24</title>
<g id="a_node24"><a xlink:href="v8-promise_8h.html" target="_top" xlink:title=" ">
<polygon fill="white" stroke="#666666" points="819.12,-561.5 713.88,-561.5 713.88,-542.25 819.12,-542.25 819.12,-561.5"/>
<text text-anchor="middle" x="766.5" y="-548" font-family="Helvetica,sans-Serif" font-size="10.00">include/v8&#45;promise.h</text>
</a>
</g>
</g>
<!-- Node6&#45;&gt;Node24 -->
<g id="edge39" class="edge">
<title>Node6&#45;&gt;Node24</title>
<path fill="none" stroke="#63b8ff" d="M662.07,-593.17C687.12,-583.5 720.73,-570.54 742.98,-561.95"/>
<polygon fill="#63b8ff" stroke="#63b8ff" points="660.98,-590.23 652.91,-597.09 663.5,-596.76 660.98,-590.23"/>
</g>
<!-- Node32 -->
<g id="node32" class="node">
<title>Node32</title>
<g id="a_node32"><a xlink:href="v8-regexp_8h.html" target="_top" xlink:title=" ">
<polygon fill="white" stroke="#666666" points="428.12,-561.5 328.88,-561.5 328.88,-542.25 428.12,-542.25 428.12,-561.5"/>
<text text-anchor="middle" x="378.5" y="-548" font-family="Helvetica,sans-Serif" font-size="10.00">include/v8&#45;regexp.h</text>
</a>
</g>
</g>
<!-- Node6&#45;&gt;Node32 -->
<g id="edge60" class="edge">
<title>Node6&#45;&gt;Node32</title>
<path fill="none" stroke="#63b8ff" d="M575.14,-594.76C529.13,-584.96 463.56,-570.99 421.02,-561.93"/>
<polygon fill="#63b8ff" stroke="#63b8ff" points="574.3,-598.37 584.81,-597.03 575.76,-591.52 574.3,-598.37"/>
</g>
<!-- Node33 -->
<g id="node33" class="node">
<title>Node33</title>
<g id="a_node33"><a xlink:href="v8-wasm_8h.html" target="_top" xlink:title=" ">
<polygon fill="white" stroke="#666666" points="543,-561.5 446,-561.5 446,-542.25 543,-542.25 543,-561.5"/>
<text text-anchor="middle" x="494.5" y="-548" font-family="Helvetica,sans-Serif" font-size="10.00">include/v8&#45;wasm.h</text>
</a>
</g>
</g>
<!-- Node6&#45;&gt;Node33 -->
<g id="edge63" class="edge">
<title>Node6&#45;&gt;Node33</title>
<path fill="none" stroke="#63b8ff" d="M595.58,-593.04C571.29,-583.39 538.85,-570.5 517.34,-561.95"/>
<polygon fill="#63b8ff" stroke="#63b8ff" points="594.18,-596.65 604.77,-597.09 596.77,-590.15 594.18,-596.65"/>
</g>
<!-- Node7&#45;&gt;Node4 -->
<g id="edge24" class="edge">
<title>Node7&#45;&gt;Node4</title>
<path fill="none" stroke="#63b8ff" d="M854.16,-299.25C856.03,-286.55 857.53,-269.62 855.5,-254.75 853.26,-238.3 849.25,-234.93 845.5,-218.75 827.71,-142.12 812.41,-48.17 807.87,-19.4"/>
<polygon fill="#63b8ff" stroke="#63b8ff" points="850.57,-298.47 852.35,-308.91 857.47,-299.64 850.57,-298.47"/>
</g>
<!-- Node8 -->
<g id="node8" class="node">
<title>Node8</title>
<g id="a_node8"><a xlink:href="v8-isolate_8h.html" target="_top" xlink:title=" ">
<polygon fill="white" stroke="#666666" points="1134.12,-274 1034.88,-274 1034.88,-254.75 1134.12,-254.75 1134.12,-274"/>
<text text-anchor="middle" x="1084.5" y="-260.5" font-family="Helvetica,sans-Serif" font-size="10.00">include/v8&#45;isolate.h</text>
</a>
</g>
</g>
<!-- Node7&#45;&gt;Node8 -->
<g id="edge7" class="edge">
<title>Node7&#45;&gt;Node8</title>
<path fill="none" stroke="#63b8ff" d="M900.99,-307.13C944.03,-297.34 1005.05,-283.45 1044.7,-274.43"/>
<polygon fill="#63b8ff" stroke="#63b8ff" points="900.43,-303.9 891.46,-309.53 901.99,-310.73 900.43,-303.9"/>
</g>
<!-- Node17 -->
<g id="node17" class="node">
<title>Node17</title>
<g id="a_node17"><a xlink:href="v8-typed-array_8h.html" target="_top" xlink:title=" ">
<polygon fill="white" stroke="#666666" points="846.5,-274 728.5,-274 728.5,-254.75 846.5,-254.75 846.5,-274"/>
<text text-anchor="middle" x="787.5" y="-260.5" font-family="Helvetica,sans-Serif" font-size="10.00">include/v8&#45;typed&#45;array.h</text>
</a>
</g>
</g>
<!-- Node7&#45;&gt;Node17 -->
<g id="edge21" class="edge">
<title>Node7&#45;&gt;Node17</title>
<path fill="none" stroke="#63b8ff" d="M831.65,-302.69C820.65,-293.39 807.18,-282.01 798.03,-274.27"/>
<polygon fill="#63b8ff" stroke="#63b8ff" points="828.92,-305.81 838.81,-309.59 833.43,-300.46 828.92,-305.81"/>
</g>
<!-- Node8&#45;&gt;Node4 -->
<g id="edge20" class="edge">
<title>Node8&#45;&gt;Node4</title>
<path fill="none" stroke="#63b8ff" d="M1061.74,-248.37C1049.71,-240.1 1034.9,-229.37 1022.5,-218.75 945.06,-152.39 936.99,-123.82 861.5,-55.25 847.12,-42.19 829.54,-28.25 818.19,-19.49"/>
<polygon fill="#63b8ff" stroke="#63b8ff" points="1059.46,-251.73 1069.7,-254.43 1063.38,-245.93 1059.46,-251.73"/>
</g>
<!-- Node9 -->
<g id="node9" class="node">
<title>Node9</title>
<g id="a_node9"><a xlink:href="v8-external-memory-accounter_8h.html" target="_top" xlink:title=" ">
<polygon fill="white" stroke="#666666" points="1137.88,-218.75 1031.12,-218.75 1031.12,-188.25 1137.88,-188.25 1137.88,-218.75"/>
<text text-anchor="start" x="1039.12" y="-205.25" font-family="Helvetica,sans-Serif" font-size="10.00">include/v8&#45;external</text>
<text text-anchor="middle" x="1084.5" y="-194" font-family="Helvetica,sans-Serif" font-size="10.00">&#45;memory&#45;accounter.h</text>
</a>
</g>
</g>
<!-- Node8&#45;&gt;Node9 -->
<g id="edge8" class="edge">
<title>Node8&#45;&gt;Node9</title>
<path fill="none" stroke="#63b8ff" d="M1084.5,-243.45C1084.5,-235.45 1084.5,-226.4 1084.5,-219.03"/>
<polygon fill="#63b8ff" stroke="#63b8ff" points="1081,-243.43 1084.5,-253.43 1088,-243.43 1081,-243.43"/>
</g>
<!-- Node10 -->
<g id="node10" class="node">
<title>Node10</title>
<g id="a_node10"><a xlink:href="v8-initialization_8h.html" target="_top" xlink:title=" ">
<polygon fill="white" stroke="#666666" points="975,-213.12 854,-213.12 854,-193.88 975,-193.88 975,-213.12"/>
<text text-anchor="middle" x="914.5" y="-199.62" font-family="Helvetica,sans-Serif" font-size="10.00">include/v8&#45;initialization.h</text>
</a>
</g>
</g>
<!-- Node8&#45;&gt;Node10 -->
<g id="edge9" class="edge">
<title>Node8&#45;&gt;Node10</title>
<path fill="none" stroke="#63b8ff" d="M1047.95,-250.72C1015.68,-239.54 969.43,-223.52 940.72,-213.58"/>
<polygon fill="#63b8ff" stroke="#63b8ff" points="1046.72,-254.34 1057.31,-254.3 1049.01,-247.72 1046.72,-254.34"/>
</g>
<!-- Node11 -->
<g id="node11" class="node">
<title>Node11</title>
<g id="a_node11"><a xlink:href="v8-inspector_8h.html" target="_top" xlink:title=" ">
<polygon fill="white" stroke="#666666" points="1516.75,-213.12 1406.25,-213.12 1406.25,-193.88 1516.75,-193.88 1516.75,-213.12"/>
<text text-anchor="middle" x="1461.5" y="-199.62" font-family="Helvetica,sans-Serif" font-size="10.00">include/v8&#45;inspector.h</text>
</a>
</g>
</g>
<!-- Node8&#45;&gt;Node11 -->
<g id="edge11" class="edge">
<title>Node8&#45;&gt;Node11</title>
<path fill="none" stroke="#63b8ff" d="M1145.14,-256.14C1208.36,-248.27 1310.21,-234.67 1397.5,-218.75 1405.79,-217.24 1414.63,-215.41 1423.02,-213.58"/>
<polygon fill="#63b8ff" stroke="#63b8ff" points="1145.06,-252.75 1135.57,-257.45 1145.92,-259.7 1145.06,-252.75"/>
</g>
<!-- Node13 -->
<g id="node13" class="node">
<title>Node13</title>
<g id="a_node13"><a xlink:href="v8-metrics_8h.html" target="_top" xlink:title=" ">
<polygon fill="white" stroke="#666666" points="1388,-213.12 1285,-213.12 1285,-193.88 1388,-193.88 1388,-213.12"/>
<text text-anchor="middle" x="1336.5" y="-199.62" font-family="Helvetica,sans-Serif" font-size="10.00">include/v8&#45;metrics.h</text>
</a>
</g>
</g>
<!-- Node8&#45;&gt;Node13 -->
<g id="edge13" class="edge">
<title>Node8&#45;&gt;Node13</title>
<path fill="none" stroke="#63b8ff" d="M1133.77,-251.86C1181.71,-240.66 1253.59,-223.87 1297.63,-213.58"/>
<polygon fill="#63b8ff" stroke="#63b8ff" points="1133.26,-248.62 1124.32,-254.3 1134.86,-255.44 1133.26,-248.62"/>
</g>
<!-- Node14 -->
<g id="node14" class="node">
<title>Node14</title>
<g id="a_node14"><a xlink:href="v8-snapshot_8h.html" target="_top" xlink:title=" ">
<polygon fill="white" stroke="#666666" points="1266.75,-213.12 1156.25,-213.12 1156.25,-193.88 1266.75,-193.88 1266.75,-213.12"/>
<text text-anchor="middle" x="1211.5" y="-199.62" font-family="Helvetica,sans-Serif" font-size="10.00">include/v8&#45;snapshot.h</text>
</a>
</g>
</g>
<!-- Node8&#45;&gt;Node14 -->
<g id="edge14" class="edge">
<title>Node8&#45;&gt;Node14</title>
<path fill="none" stroke="#63b8ff" d="M1113.74,-249.82C1137.81,-238.66 1171.25,-223.16 1192.12,-213.48"/>
<polygon fill="#63b8ff" stroke="#63b8ff" points="1112.67,-246.92 1105.07,-254.3 1115.61,-253.27 1112.67,-246.92"/>
</g>
<!-- Node10&#45;&gt;Node4 -->
<g id="edge10" class="edge">
<title>Node10&#45;&gt;Node4</title>
<path fill="none" stroke="#63b8ff" d="M906.18,-183.77C893.25,-155.26 866.94,-99.62 839.5,-55.25 831.49,-42.3 820.8,-28.34 813.78,-19.54"/>
<polygon fill="#63b8ff" stroke="#63b8ff" points="903.3,-184.91 910.59,-192.59 909.69,-182.04 903.3,-184.91"/>
</g>
<!-- Node12 -->
<g id="node12" class="node">
<title>Node12</title>
<g id="a_node12"><a xlink:href="v8-inspector-protocol_8h.html" target="_top" xlink:title=" ">
<polygon fill="white" stroke="#666666" points="1513,-152.25 1410,-152.25 1410,-121.75 1513,-121.75 1513,-152.25"/>
<text text-anchor="start" x="1418" y="-138.75" font-family="Helvetica,sans-Serif" font-size="10.00">include/v8&#45;inspector</text>
<text text-anchor="middle" x="1461.5" y="-127.5" font-family="Helvetica,sans-Serif" font-size="10.00">&#45;protocol.h</text>
</a>
</g>
</g>
<!-- Node11&#45;&gt;Node12 -->
<g id="edge12" class="edge">
<title>Node11&#45;&gt;Node12</title>
<path fill="none" stroke="#63b8ff" d="M1461.5,-182.77C1461.5,-172.95 1461.5,-161.3 1461.5,-152.34"/>
<polygon fill="#63b8ff" stroke="#63b8ff" points="1458,-182.53 1461.5,-192.53 1465,-182.53 1458,-182.53"/>
</g>
<!-- Node14&#45;&gt;Node4 -->
<g id="edge19" class="edge">
<title>Node14&#45;&gt;Node4</title>
<path fill="none" stroke="#63b8ff" d="M1183.14,-188.37C1165.39,-179.04 1142.4,-166.03 1123.5,-152.25 1071.9,-114.63 1074.3,-84.44 1017.5,-55.25 960.06,-25.73 884.22,-15.73 840.87,-12.35"/>
<polygon fill="#63b8ff" stroke="#63b8ff" points="1181.42,-191.94 1191.91,-193.42 1184.63,-185.72 1181.42,-191.94"/>
</g>
<!-- Node15 -->
<g id="node15" class="node">
<title>Node15</title>
<g id="a_node15"><a xlink:href="v8-context_8h.html" target="_top" xlink:title=" ">
<polygon fill="white" stroke="#666666" points="1234.62,-146.62 1132.38,-146.62 1132.38,-127.38 1234.62,-127.38 1234.62,-146.62"/>
<text text-anchor="middle" x="1183.5" y="-133.12" font-family="Helvetica,sans-Serif" font-size="10.00">include/v8&#45;context.h</text>
</a>
</g>
</g>
<!-- Node14&#45;&gt;Node15 -->
<g id="edge15" class="edge">
<title>Node14&#45;&gt;Node15</title>
<path fill="none" stroke="#63b8ff" d="M1203.26,-183.52C1198.01,-171.42 1191.44,-156.3 1187.36,-146.89"/>
<polygon fill="#63b8ff" stroke="#63b8ff" points="1200.41,-184.75 1207.61,-192.53 1206.84,-181.96 1200.41,-184.75"/>
</g>
<!-- Node15&#45;&gt;Node4 -->
<g id="edge18" class="edge">
<title>Node15&#45;&gt;Node4</title>
<path fill="none" stroke="#63b8ff" d="M1165.24,-120.05C1142.86,-101.42 1103.02,-71.13 1063.5,-55.25 987.65,-24.77 891,-15.09 840.58,-12.03"/>
<polygon fill="#63b8ff" stroke="#63b8ff" points="1162.56,-123.22 1172.44,-127.02 1167.09,-117.88 1162.56,-123.22"/>
</g>
<!-- Node15&#45;&gt;Node16 -->
<g id="edge16" class="edge">
<title>Node15&#45;&gt;Node16</title>
<path fill="none" stroke="#63b8ff" d="M1183.5,-116.27C1183.5,-104.3 1183.5,-89.6 1183.5,-80.39"/>
<polygon fill="#63b8ff" stroke="#63b8ff" points="1180,-116.03 1183.5,-126.03 1187,-116.03 1180,-116.03"/>
</g>
<!-- Node16&#45;&gt;Node4 -->
<g id="edge17" class="edge">
<title>Node16&#45;&gt;Node4</title>
<path fill="none" stroke="#63b8ff" d="M1126.37,-58.39C1120.34,-57.3 1114.3,-56.23 1108.5,-55.25 1011.56,-38.89 896.54,-22.81 840.54,-15.19"/>
<polygon fill="#63b8ff" stroke="#63b8ff" points="1125.67,-62.01 1136.14,-60.38 1126.95,-55.13 1125.67,-62.01"/>
</g>
<!-- Node17&#45;&gt;Node4 -->
<g id="edge23" class="edge">
<title>Node17&#45;&gt;Node4</title>
<path fill="none" stroke="#63b8ff" d="M789,-243.46C792.87,-191.92 803.12,-55.63 805.83,-19.51"/>
<polygon fill="#63b8ff" stroke="#63b8ff" points="785.44,-243.15 788.18,-253.38 792.42,-243.67 785.44,-243.15"/>
</g>
<!-- Node17&#45;&gt;Node5 -->
<g id="edge22" class="edge">
<title>Node17&#45;&gt;Node5</title>
<path fill="none" stroke="#63b8ff" d="M767.45,-247.84C755.93,-238.92 741.55,-227.78 730.26,-219.03"/>
<polygon fill="#63b8ff" stroke="#63b8ff" points="764.91,-251.08 774.96,-254.43 769.2,-245.54 764.91,-251.08"/>
</g>
<!-- Node18&#45;&gt;Node4 -->
<g id="edge26" class="edge">
<title>Node18&#45;&gt;Node4</title>
<path fill="none" stroke="#63b8ff" d="M1769.8,-117.56C1758.46,-98.16 1737.73,-68.62 1710.5,-55.25 1631.38,-16.39 996.51,-11.37 840.86,-10.72"/>
<polygon fill="#63b8ff" stroke="#63b8ff" points="1767.2,-119.09 1775.11,-126.13 1773.32,-115.69 1767.2,-119.09"/>
</g>
<!-- Node19&#45;&gt;Node4 -->
<g id="edge28" class="edge">
<title>Node19&#45;&gt;Node4</title>
<path fill="none" stroke="#63b8ff" d="M233.79,-244.48C216.56,-203.91 183.77,-107.92 232.5,-55.25 269.24,-15.54 654.37,-11.08 772.34,-10.65"/>
<polygon fill="#63b8ff" stroke="#63b8ff" points="230.92,-245.63 238.16,-253.37 237.32,-242.81 230.92,-245.63"/>
</g>
<!-- Node20&#45;&gt;Node4 -->
<g id="edge35" class="edge">
<title>Node20&#45;&gt;Node4</title>
<path fill="none" stroke="#63b8ff" d="M491.87,-472.95C473.2,-451.94 445.5,-414.29 445.5,-375.88 445.5,-375.88 445.5,-375.88 445.5,-136 445.5,-96.71 450.08,-78.84 481.5,-55.25 526.88,-21.19 698.5,-13.11 772.36,-11.21"/>
<polygon fill="#63b8ff" stroke="#63b8ff" points="488.85,-474.92 498.2,-479.89 493.99,-470.17 488.85,-474.92"/>
</g>
<!-- Node20&#45;&gt;Node8 -->
<g id="edge30" class="edge">
<title>Node20&#45;&gt;Node8</title>
<path fill="none" stroke="#63b8ff" d="M500.89,-470.96C496.26,-456.06 492.9,-435.44 502.5,-420.5 534.46,-370.77 566.6,-381.3 623.5,-365.25 750.62,-329.4 790.34,-361.21 918.5,-329.25 973.63,-315.5 1035.27,-288.52 1065.58,-274.43"/>
<polygon fill="#63b8ff" stroke="#63b8ff" points="497.83,-471.8 504.48,-480.05 504.43,-469.45 497.83,-471.8"/>
</g>
<!-- Node20&#45;&gt;Node21 -->
<g id="edge31" class="edge">
<title>Node20&#45;&gt;Node21</title>
<path fill="none" stroke="#63b8ff" d="M524.79,-473.18C535.19,-462.43 548.28,-448.91 556.76,-440.15"/>
<polygon fill="#63b8ff" stroke="#63b8ff" points="522.6,-470.44 518.16,-480.06 527.63,-475.31 522.6,-470.44"/>
</g>
<!-- Node21&#45;&gt;Node4 -->
<g id="edge34" class="edge">
<title>Node21&#45;&gt;Node4</title>
<path fill="none" stroke="#63b8ff" d="M540.93,-414.26C529.81,-406.53 517.23,-396.24 508.5,-384.5 490.3,-360.04 483.5,-351.11 483.5,-320.62 483.5,-320.62 483.5,-320.62 483.5,-136 483.5,-98.56 479.23,-79.8 507.5,-55.25 546.49,-21.4 702.16,-13.22 772.13,-11.25"/>
<polygon fill="#63b8ff" stroke="#63b8ff" points="538.54,-417.53 548.81,-420.13 542.4,-411.69 538.54,-417.53"/>
</g>
<!-- Node21&#45;&gt;Node22 -->
<g id="edge32" class="edge">
<title>Node21&#45;&gt;Node22</title>
<path fill="none" stroke="#63b8ff" d="M595.86,-415.65C617.52,-406.04 646.05,-393.38 665.04,-384.95"/>
<polygon fill="#63b8ff" stroke="#63b8ff" points="594.58,-412.84 586.86,-420.09 597.42,-419.23 594.58,-412.84"/>
</g>
<!-- Node22&#45;&gt;Node4 -->
<g id="edge33" class="edge">
<title>Node22&#45;&gt;Node4</title>
<path fill="none" stroke="#63b8ff" d="M654.46,-359.98C641.07,-352.59 626.27,-342.3 616.5,-329.25 598.74,-305.55 597.5,-294.99 597.5,-265.38 597.5,-265.38 597.5,-265.38 597.5,-136 597.5,-55.39 713.23,-25.33 772.46,-15.22"/>
<polygon fill="#63b8ff" stroke="#63b8ff" points="652.37,-363.36 662.86,-364.85 655.59,-357.15 652.37,-363.36"/>
</g>
<!-- Node23&#45;&gt;Node4 -->
<g id="edge38" class="edge">
<title>Node23&#45;&gt;Node4</title>
<path fill="none" stroke="#63b8ff" d="M352.1,-55.81C353.24,-55.62 354.38,-55.43 355.5,-55.25 510.1,-30.48 696.87,-17.26 772.37,-12.59"/>
<polygon fill="#63b8ff" stroke="#63b8ff" points="351.9,-52.47 342.7,-57.72 353.17,-59.36 351.9,-52.47"/>
</g>
<!-- Node24&#45;&gt;Node4 -->
<g id="edge58" class="edge">
<title>Node24&#45;&gt;Node4</title>
<path fill="none" stroke="#63b8ff" d="M753.61,-533.39C734.48,-507.79 696.98,-458.95 661.5,-420.5 645.72,-403.4 637.63,-402.98 623.5,-384.5 587,-336.75 559.5,-325.48 559.5,-265.38 559.5,-265.38 559.5,-265.38 559.5,-136 559.5,-41.74 704.29,-18.32 772.16,-12.52"/>
<polygon fill="#63b8ff" stroke="#63b8ff" points="751.23,-535.06 760.01,-541 756.85,-530.89 751.23,-535.06"/>
</g>
<!-- Node25 -->
<g id="node25" class="node">
<title>Node25</title>
<g id="a_node25"><a xlink:href="v8-callbacks_8h.html" target="_top" xlink:title=" ">
<polygon fill="white" stroke="#666666" points="1176.5,-500.62 1064.5,-500.62 1064.5,-481.38 1176.5,-481.38 1176.5,-500.62"/>
<text text-anchor="middle" x="1120.5" y="-487.12" font-family="Helvetica,sans-Serif" font-size="10.00">include/v8&#45;callbacks.h</text>
</a>
</g>
</g>
<!-- Node24&#45;&gt;Node25 -->
<g id="edge40" class="edge">
<title>Node24&#45;&gt;Node25</title>
<path fill="none" stroke="#63b8ff" d="M829.94,-540.32C897.09,-529.16 1002,-511.71 1065.68,-501.12"/>
<polygon fill="#63b8ff" stroke="#63b8ff" points="829.79,-536.97 820.5,-542.06 830.94,-543.87 829.79,-536.97"/>
</g>
<!-- Node31 -->
<g id="node31" class="node">
<title>Node31</title>
<g id="a_node31"><a xlink:href="v8-statistics_8h.html" target="_top" xlink:title=" ">
<polygon fill="white" stroke="#666666" points="735.75,-329.25 625.25,-329.25 625.25,-310 735.75,-310 735.75,-329.25"/>
<text text-anchor="middle" x="680.5" y="-315.75" font-family="Helvetica,sans-Serif" font-size="10.00">include/v8&#45;statistics.h</text>
</a>
</g>
</g>
<!-- Node24&#45;&gt;Node31 -->
<g id="edge55" class="edge">
<title>Node24&#45;&gt;Node31</title>
<path fill="none" stroke="#63b8ff" d="M769.6,-531.51C774.28,-495.78 779.51,-418.34 747.5,-365.25 737.47,-348.61 718.58,-336.89 703.41,-329.64"/>
<polygon fill="#63b8ff" stroke="#63b8ff" points="766.06,-530.53 768.09,-540.92 772.99,-531.53 766.06,-530.53"/>
</g>
<!-- Node25&#45;&gt;Node8 -->
<g id="edge42" class="edge">
<title>Node25&#45;&gt;Node8</title>
<path fill="none" stroke="#63b8ff" d="M1119.74,-470.23C1119.04,-456.28 1117.76,-437.19 1115.5,-420.5 1107.91,-364.44 1092.46,-298.15 1086.72,-274.4"/>
<polygon fill="#63b8ff" stroke="#63b8ff" points="1116.27,-470.13 1120.21,-479.97 1123.27,-469.82 1116.27,-470.13"/>
</g>
<!-- Node25&#45;&gt;Node10 -->
<g id="edge41" class="edge">
<title>Node25&#45;&gt;Node10</title>
<path fill="none" stroke="#63b8ff" d="M1111.44,-471.54C1104.18,-457.26 1093.44,-437.18 1082.5,-420.5 1026.99,-335.9 947.55,-242.55 922.43,-213.57"/>
<polygon fill="#63b8ff" stroke="#63b8ff" points="1108.65,-472.8 1116.25,-480.18 1114.91,-469.67 1108.65,-472.8"/>
</g>
<!-- Node26 -->
<g id="node26" class="node">
<title>Node26</title>
<g id="a_node26"><a xlink:href="v8-message_8h.html" target="_top" xlink:title=" ">
<polygon fill="white" stroke="#666666" points="1418.75,-439.75 1308.25,-439.75 1308.25,-420.5 1418.75,-420.5 1418.75,-439.75"/>
<text text-anchor="middle" x="1363.5" y="-426.25" font-family="Helvetica,sans-Serif" font-size="10.00">include/v8&#45;message.h</text>
</a>
</g>
</g>
<!-- Node25&#45;&gt;Node26 -->
<g id="edge43" class="edge">
<title>Node25&#45;&gt;Node26</title>
<path fill="none" stroke="#63b8ff" d="M1168.59,-478.35C1214.82,-467.15 1283.73,-450.45 1326.02,-440.21"/>
<polygon fill="#63b8ff" stroke="#63b8ff" points="1167.83,-475.17 1158.94,-480.93 1169.48,-481.98 1167.83,-475.17"/>
</g>
<!-- Node29 -->
<g id="node29" class="node">
<title>Node29</title>
<g id="a_node29"><a xlink:href="v8-script_8h.html" target="_top" xlink:title=" ">
<polygon fill="white" stroke="#666666" points="1408.88,-384.5 1314.12,-384.5 1314.12,-365.25 1408.88,-365.25 1408.88,-384.5"/>
<text text-anchor="middle" x="1361.5" y="-371" font-family="Helvetica,sans-Serif" font-size="10.00">include/v8&#45;script.h</text>
</a>
</g>
</g>
<!-- Node25&#45;&gt;Node29 -->
<g id="edge54" class="edge">
<title>Node25&#45;&gt;Node29</title>
<path fill="none" stroke="#63b8ff" d="M1149.22,-476.4C1199.04,-452.81 1300.16,-404.92 1342.34,-384.95"/>
<polygon fill="#63b8ff" stroke="#63b8ff" points="1147.95,-473.6 1140.41,-481.04 1150.95,-479.93 1147.95,-473.6"/>
</g>
<!-- Node26&#45;&gt;Node4 -->
<g id="edge53" class="edge">
<title>Node26&#45;&gt;Node4</title>
<path fill="none" stroke="#63b8ff" d="M1429.84,-421.18C1526.98,-407.68 1696.5,-376.15 1696.5,-320.62 1696.5,-320.62 1696.5,-320.62 1696.5,-136 1696.5,-96.34 1691.42,-77.37 1658.5,-55.25 1589.77,-9.07 990.99,-9.52 840.63,-10.37"/>
<polygon fill="#63b8ff" stroke="#63b8ff" points="1429.67,-417.81 1420.24,-422.63 1430.62,-424.75 1429.67,-417.81"/>
</g>
<!-- Node26&#45;&gt;Node22 -->
<g id="edge44" class="edge">
<title>Node26&#45;&gt;Node22</title>
<path fill="none" stroke="#63b8ff" d="M1297.08,-423.91C1162.66,-413.35 860.75,-389.64 738.45,-380.03"/>
<polygon fill="#63b8ff" stroke="#63b8ff" points="1296.77,-427.47 1307.02,-424.77 1297.32,-420.5 1296.77,-427.47"/>
</g>
<!-- Node27 -->
<g id="node27" class="node">
<title>Node27</title>
<g id="a_node27"><a xlink:href="v8-json_8h.html" target="_top" xlink:title=" ">
<polygon fill="white" stroke="#666666" points="1668.88,-329.25 1580.12,-329.25 1580.12,-310 1668.88,-310 1668.88,-329.25"/>
<text text-anchor="middle" x="1624.5" y="-315.75" font-family="Helvetica,sans-Serif" font-size="10.00">include/v8&#45;json.h</text>
</a>
</g>
</g>
<!-- Node26&#45;&gt;Node27 -->
<g id="edge45" class="edge">
<title>Node26&#45;&gt;Node27</title>
<path fill="none" stroke="#63b8ff" d="M1429.53,-417.94C1462.38,-410.92 1502.1,-400.15 1535.5,-384.5 1567.02,-369.73 1598.95,-343.44 1614.6,-329.64"/>
<polygon fill="#63b8ff" stroke="#63b8ff" points="1429.21,-414.64 1420.12,-420.1 1430.63,-421.5 1429.21,-414.64"/>
</g>
<!-- Node28 -->
<g id="node28" class="node">
<title>Node28</title>
<g id="a_node28"><a xlink:href="v8-profiler_8h.html" target="_top" xlink:title=" ">
<polygon fill="white" stroke="#666666" points="1526.12,-384.5 1426.88,-384.5 1426.88,-365.25 1526.12,-365.25 1526.12,-384.5"/>
<text text-anchor="middle" x="1476.5" y="-371" font-family="Helvetica,sans-Serif" font-size="10.00">include/v8&#45;profiler.h</text>
</a>
</g>
</g>
<!-- Node26&#45;&gt;Node28 -->
<g id="edge47" class="edge">
<title>Node26&#45;&gt;Node28</title>
<path fill="none" stroke="#63b8ff" d="M1392.37,-415.52C1412.73,-405.93 1439.43,-393.34 1457.24,-384.95"/>
<polygon fill="#63b8ff" stroke="#63b8ff" points="1391.22,-412.66 1383.67,-420.09 1394.21,-419 1391.22,-412.66"/>
</g>
<!-- Node26&#45;&gt;Node29 -->
<g id="edge48" class="edge">
<title>Node26&#45;&gt;Node29</title>
<path fill="none" stroke="#63b8ff" d="M1362.76,-409.46C1362.44,-401.02 1362.09,-391.58 1361.84,-384.86"/>
<polygon fill="#63b8ff" stroke="#63b8ff" points="1359.3,-409.47 1363.17,-419.33 1366.29,-409.21 1359.3,-409.47"/>
</g>
<!-- Node27&#45;&gt;Node4 -->
<g id="edge46" class="edge">
<title>Node27&#45;&gt;Node4</title>
<path fill="none" stroke="#63b8ff" d="M1633.7,-299.96C1643.77,-277.77 1658.5,-239.34 1658.5,-204.5 1658.5,-204.5 1658.5,-204.5 1658.5,-136 1658.5,-98.56 1663.9,-78.44 1634.5,-55.25 1602.87,-30.3 993.33,-14.86 840.85,-11.38"/>
<polygon fill="#63b8ff" stroke="#63b8ff" points="1630.19,-298.19 1629.09,-308.72 1636.52,-301.18 1630.19,-298.19"/>
</g>
<!-- Node29&#45;&gt;Node4 -->
<g id="edge52" class="edge">
<title>Node29&#45;&gt;Node4</title>
<path fill="none" stroke="#63b8ff" d="M1419.75,-362.74C1496.12,-344.36 1620.5,-299.81 1620.5,-204.5 1620.5,-204.5 1620.5,-204.5 1620.5,-136 1620.5,-119.75 1645.02,-104.7 1422.5,-55.25 1310.11,-30.27 952.8,-15.8 840.57,-11.78"/>
<polygon fill="#63b8ff" stroke="#63b8ff" points="1419.26,-359.49 1410.31,-365.16 1420.84,-366.31 1419.26,-359.49"/>
</g>
<!-- Node30 -->
<g id="node30" class="node">
<title>Node30</title>
<g id="a_node30"><a xlink:href="v8-debug_8h.html" target="_top" xlink:title=" ">
<polygon fill="white" stroke="#666666" points="1410,-329.25 1313,-329.25 1313,-310 1410,-310 1410,-329.25"/>
<text text-anchor="middle" x="1361.5" y="-315.75" font-family="Helvetica,sans-Serif" font-size="10.00">include/v8&#45;debug.h</text>
</a>
</g>
</g>
<!-- Node29&#45;&gt;Node30 -->
<g id="edge49" class="edge">
<title>Node29&#45;&gt;Node30</title>
<path fill="none" stroke="#63b8ff" d="M1361.5,-354.21C1361.5,-345.77 1361.5,-336.33 1361.5,-329.61"/>
<polygon fill="#63b8ff" stroke="#63b8ff" points="1358,-354.08 1361.5,-364.08 1365,-354.08 1358,-354.08"/>
</g>
<!-- Node30&#45;&gt;Node4 -->
<g id="edge51" class="edge">
<title>Node30&#45;&gt;Node4</title>
<path fill="none" stroke="#63b8ff" d="M1420.9,-313.3C1486.36,-303.79 1582.5,-277.41 1582.5,-204.5 1582.5,-204.5 1582.5,-204.5 1582.5,-136 1582.5,-59.75 991.02,-21.08 840.85,-12.49"/>
<polygon fill="#63b8ff" stroke="#63b8ff" points="1420.71,-309.93 1411.27,-314.74 1421.65,-316.87 1420.71,-309.93"/>
</g>
<!-- Node30&#45;&gt;Node8 -->
<g id="edge50" class="edge">
<title>Node30&#45;&gt;Node8</title>
<path fill="none" stroke="#63b8ff" d="M1303.66,-307.51C1252.62,-297.69 1179.14,-283.57 1131.61,-274.43"/>
<polygon fill="#63b8ff" stroke="#63b8ff" points="1302.72,-311.08 1313.2,-309.53 1304.04,-304.21 1302.72,-311.08"/>
</g>
<!-- Node31&#45;&gt;Node4 -->
<g id="edge57" class="edge">
<title>Node31&#45;&gt;Node4</title>
<path fill="none" stroke="#63b8ff" d="M668.49,-300.59C655.16,-278.79 635.5,-240.54 635.5,-204.5 635.5,-204.5 635.5,-204.5 635.5,-136 635.5,-68.82 722.4,-33.71 772.31,-19.08"/>
<polygon fill="#63b8ff" stroke="#63b8ff" points="665.92,-302.08 674.24,-308.64 671.83,-298.32 665.92,-302.08"/>
</g>
<!-- Node31&#45;&gt;Node8 -->
<g id="edge56" class="edge">
<title>Node31&#45;&gt;Node8</title>
<path fill="none" stroke="#63b8ff" d="M746.36,-309.94C827.05,-299.31 961.97,-281.52 1034.6,-271.95"/>
<polygon fill="#63b8ff" stroke="#63b8ff" points="746.28,-306.56 736.83,-311.33 747.2,-313.5 746.28,-306.56"/>
</g>
<!-- Node32&#45;&gt;Node4 -->
<g id="edge61" class="edge">
<title>Node32&#45;&gt;Node4</title>
<path fill="none" stroke="#63b8ff" d="M376.11,-531.19C373.44,-507.48 369.5,-466.46 369.5,-431.12 369.5,-431.12 369.5,-431.12 369.5,-136 369.5,-94.91 380.31,-78.04 414.5,-55.25 472.78,-16.41 688.09,-11.15 772.37,-10.6"/>
<polygon fill="#63b8ff" stroke="#63b8ff" points="372.72,-531.35 377.36,-540.88 379.68,-530.54 372.72,-531.35"/>
</g>
<!-- Node33&#45;&gt;Node4 -->
<g id="edge64" class="edge">
<title>Node33&#45;&gt;Node4</title>
<path fill="none" stroke="#63b8ff" d="M473.23,-535.49C447.48,-514.88 407.5,-475.72 407.5,-431.12 407.5,-431.12 407.5,-431.12 407.5,-136 407.5,-95.55 416.29,-78.35 449.5,-55.25 501.22,-19.27 693.15,-12.29 772.17,-10.94"/>
<polygon fill="#63b8ff" stroke="#63b8ff" points="470.6,-538.65 480.66,-541.98 474.88,-533.1 470.6,-538.65"/>
</g>
<!-- Node34&#45;&gt;Node4 -->
<g id="edge77" class="edge">
<title>Node34&#45;&gt;Node4</title>
<path fill="none" stroke="#63b8ff" d="M1310.16,-662.48C1475.46,-650.08 1900.5,-612.38 1900.5,-552.88 1900.5,-552.88 1900.5,-552.88 1900.5,-136 1900.5,-77.83 1852.04,-75.47 1797.5,-55.25 1706.31,-21.45 1004.55,-12.55 840.65,-10.93"/>
<polygon fill="#63b8ff" stroke="#63b8ff" points="1310.37,-659.03 1300.66,-663.26 1310.89,-666.01 1310.37,-659.03"/>
</g>
<!-- Node34&#45;&gt;Node6 -->
<g id="edge76" class="edge">
<title>Node34&#45;&gt;Node6</title>
<path fill="none" stroke="#63b8ff" d="M1180.43,-660.79C1056.12,-648.93 787.44,-623.29 677.2,-612.77"/>
<polygon fill="#63b8ff" stroke="#63b8ff" points="1180,-664.36 1190.29,-661.83 1180.66,-657.39 1180,-664.36"/>
</g>
<!-- Node34&#45;&gt;Node8 -->
<g id="edge74" class="edge">
<title>Node34&#45;&gt;Node8</title>
<path fill="none" stroke="#63b8ff" d="M1244.67,-647.24C1243.78,-624.48 1242.5,-585.99 1242.5,-552.88 1242.5,-552.88 1242.5,-552.88 1242.5,-373.88 1242.5,-316.97 1172,-287.68 1125.19,-274.5"/>
<polygon fill="#63b8ff" stroke="#63b8ff" points="1241.2,-647.27 1245.11,-657.12 1248.2,-646.99 1241.2,-647.27"/>
</g>
<!-- Node34&#45;&gt;Node26 -->
<g id="edge75" class="edge">
<title>Node34&#45;&gt;Node26</title>
<path fill="none" stroke="#63b8ff" d="M1254.82,-648.36C1278.75,-600.53 1341.67,-474.77 1359.01,-440.09"/>
<polygon fill="#63b8ff" stroke="#63b8ff" points="1251.33,-646.53 1249.98,-657.04 1257.59,-649.66 1251.33,-646.53"/>
</g>
<!-- Node35 -->
<g id="node35" class="node">
<title>Node35</title>
<g id="a_node35"><a xlink:href="v8-extension_8h.html" target="_top" xlink:title=" ">
<polygon fill="white" stroke="#666666" points="1656.5,-616.75 1544.5,-616.75 1544.5,-597.5 1656.5,-597.5 1656.5,-616.75"/>
<text text-anchor="middle" x="1600.5" y="-603.25" font-family="Helvetica,sans-Serif" font-size="10.00">include/v8&#45;extension.h</text>
</a>
</g>
</g>
<!-- Node34&#45;&gt;Node35 -->
<g id="edge67" class="edge">
<title>Node34&#45;&gt;Node35</title>
<path fill="none" stroke="#63b8ff" d="M1309.9,-656.32C1377.26,-645.15 1481.87,-627.8 1545.49,-617.25"/>
<polygon fill="#63b8ff" stroke="#63b8ff" points="1309.71,-652.97 1300.42,-658.06 1310.85,-659.87 1309.71,-652.97"/>
</g>
<!-- Node36 -->
<g id="node36" class="node">
<title>Node36</title>
<g id="a_node36"><a xlink:href="v8-function-callback_8h.html" target="_top" xlink:title=" ">
<polygon fill="white" stroke="#666666" points="1011.38,-506.25 913.62,-506.25 913.62,-475.75 1011.38,-475.75 1011.38,-506.25"/>
<text text-anchor="start" x="921.62" y="-492.75" font-family="Helvetica,sans-Serif" font-size="10.00">include/v8&#45;function</text>
<text text-anchor="middle" x="962.5" y="-481.5" font-family="Helvetica,sans-Serif" font-size="10.00">&#45;callback.h</text>
</a>
</g>
</g>
<!-- Node34&#45;&gt;Node36 -->
<g id="edge69" class="edge">
<title>Node34&#45;&gt;Node36</title>
<path fill="none" stroke="#63b8ff" d="M1237.53,-648.17C1223.93,-616.89 1195.93,-556.28 1177.5,-542.25 1164.33,-532.22 1071.03,-512.85 1011.74,-501.3"/>
<polygon fill="#63b8ff" stroke="#63b8ff" points="1234.54,-649.08 1241.7,-656.88 1240.97,-646.31 1234.54,-649.08"/>
</g>
<!-- Node35&#45;&gt;Node4 -->
<g id="edge68" class="edge">
<title>Node35&#45;&gt;Node4</title>
<path fill="none" stroke="#63b8ff" d="M1667.38,-604.84C1745,-599.37 1862.5,-577.06 1862.5,-492 1862.5,-492 1862.5,-492 1862.5,-136 1862.5,-116 1948.5,-122.18 1741.5,-55.25 1654.57,-27.14 998.9,-13.98 840.75,-11.2"/>
<polygon fill="#63b8ff" stroke="#63b8ff" points="1667.47,-601.39 1657.71,-605.5 1667.9,-608.37 1667.47,-601.39"/>
</g>
<!-- Node36&#45;&gt;Node8 -->
<g id="edge71" class="edge">
<title>Node36&#45;&gt;Node8</title>
<path fill="none" stroke="#63b8ff" d="M966.86,-464.94C969.73,-451.41 974.16,-434.62 980.5,-420.5 1007.73,-359.86 1058.04,-296.87 1077,-274.17"/>
<polygon fill="#63b8ff" stroke="#63b8ff" points="963.29,-463.93 964.8,-474.41 970.16,-465.28 963.29,-463.93"/>
</g>
<!-- Node36&#45;&gt;Node21 -->
<g id="edge72" class="edge">
<title>Node36&#45;&gt;Node21</title>
<path fill="none" stroke="#63b8ff" d="M902.98,-481.17C826.27,-469.8 693.98,-450.18 619.86,-439.19"/>
<polygon fill="#63b8ff" stroke="#63b8ff" points="902.02,-484.72 912.42,-482.72 903.04,-477.79 902.02,-484.72"/>
</g>
<!-- Node36&#45;&gt;Node22 -->
<g id="edge70" class="edge">
<title>Node36&#45;&gt;Node22</title>
<path fill="none" stroke="#63b8ff" d="M916.84,-471.19C856.47,-446.32 752.51,-403.48 707.42,-384.91"/>
<polygon fill="#63b8ff" stroke="#63b8ff" points="915.27,-474.74 925.85,-475.31 917.94,-468.27 915.27,-474.74"/>
</g>
<!-- Node37 -->
<g id="node37" class="node">
<title>Node37</title>
<g id="a_node37"><a xlink:href="v8-util_8h.html" target="_top" xlink:title=" ">
<polygon fill="white" stroke="#666666" points="1073.25,-439.75 989.75,-439.75 989.75,-420.5 1073.25,-420.5 1073.25,-439.75"/>
<text text-anchor="middle" x="1031.5" y="-426.25" font-family="Helvetica,sans-Serif" font-size="10.00">include/v8&#45;util.h</text>
</a>
</g>
</g>
<!-- Node36&#45;&gt;Node37 -->
<g id="edge73" class="edge">
<title>Node36&#45;&gt;Node37</title>
<path fill="none" stroke="#63b8ff" d="M987.89,-468.33C999.28,-458.62 1012.09,-447.69 1020.86,-440.2"/>
<polygon fill="#63b8ff" stroke="#63b8ff" points="985.89,-466.29 980.56,-475.45 990.44,-471.62 985.89,-466.29"/>
</g>
</g>
</svg>
