<?xml version="1.0" encoding="UTF-8" standalone="no"?>
<!DOCTYPE svg PUBLIC "-//W3C//DTD SVG 1.1//EN"
 "http://www.w3.org/Graphics/SVG/1.1/DTD/svg11.dtd">
<!-- Generated by graphviz version 8.0.5 (20230430.1635)
 -->
<!-- Title: include/cppgc/internal/write&#45;barrier.h Pages: 1 -->
<svg width="1513pt" height="526pt"
 viewBox="0.00 0.00 1512.50 525.50" xmlns="http://www.w3.org/2000/svg" xmlns:xlink="http://www.w3.org/1999/xlink">
<g id="graph0" class="graph" transform="scale(1 1) rotate(0) translate(4 521.5)">
<title>include/cppgc/internal/write&#45;barrier.h</title>
<!-- Node1 -->
<g id="node1" class="node">
<title>Node1</title>
<g id="a_node1"><a xlink:title=" ">
<polygon fill="#999999" stroke="#666666" points="362.25,-517.5 251.75,-517.5 251.75,-487 362.25,-487 362.25,-517.5"/>
<text text-anchor="start" x="259.75" y="-504" font-family="Helvetica,sans-Serif" font-size="10.00">include/cppgc/internal</text>
<text text-anchor="middle" x="307" y="-492.75" font-family="Helvetica,sans-Serif" font-size="10.00">/write&#45;barrier.h</text>
</a>
</g>
</g>
<!-- Node2 -->
<g id="node2" class="node">
<title>Node2</title>
<g id="a_node2"><a xlink:title=" ">
<polygon fill="#e0e0e0" stroke="#999999" points="837.12,-74.5 788.88,-74.5 788.88,-55.25 837.12,-55.25 837.12,-74.5"/>
<text text-anchor="middle" x="813" y="-61" font-family="Helvetica,sans-Serif" font-size="10.00">cstddef</text>
</a>
</g>
</g>
<!-- Node1&#45;&gt;Node2 -->
<g id="edge1" class="edge">
<title>Node1&#45;&gt;Node2</title>
<path fill="none" stroke="#63b8ff" d="M362.59,-500.37C507.2,-496.58 884,-476.5 884,-370.25 884,-370.25 884,-370.25 884,-301.75 884,-217.5 841.95,-123.22 822.57,-84.25"/>
<polygon fill="#63b8ff" stroke="#63b8ff" points="825.31,-82.92 817.66,-75.59 819.07,-86.09 825.31,-82.92"/>
</g>
<!-- Node3 -->
<g id="node3" class="node">
<title>Node3</title>
<g id="a_node3"><a xlink:title=" ">
<polygon fill="#e0e0e0" stroke="#999999" points="189.62,-185 144.38,-185 144.38,-165.75 189.62,-165.75 189.62,-185"/>
<text text-anchor="middle" x="167" y="-171.5" font-family="Helvetica,sans-Serif" font-size="10.00">cstdint</text>
</a>
</g>
</g>
<!-- Node1&#45;&gt;Node3 -->
<g id="edge2" class="edge">
<title>Node1&#45;&gt;Node3</title>
<path fill="none" stroke="#63b8ff" d="M251.38,-494.28C183.02,-482.25 76,-450.59 76,-370.25 76,-370.25 76,-370.25 76,-301.75 76,-254.63 118.62,-213.29 145.52,-191.88"/>
<polygon fill="#63b8ff" stroke="#63b8ff" points="147.16,-194.27 152.96,-185.4 142.9,-188.72 147.16,-194.27"/>
</g>
<!-- Node4 -->
<g id="node4" class="node">
<title>Node4</title>
<g id="a_node4"><a xlink:href="heap-handle_8h.html" target="_top" xlink:title=" ">
<polygon fill="white" stroke="#666666" points="453.62,-245.88 348.38,-245.88 348.38,-226.62 453.62,-226.62 453.62,-245.88"/>
<text text-anchor="middle" x="401" y="-232.38" font-family="Helvetica,sans-Serif" font-size="10.00">cppgc/heap&#45;handle.h</text>
</a>
</g>
</g>
<!-- Node1&#45;&gt;Node4 -->
<g id="edge3" class="edge">
<title>Node1&#45;&gt;Node4</title>
<path fill="none" stroke="#63b8ff" d="M305.27,-486.59C303.66,-470.35 301.95,-443.44 305,-420.5 309.04,-390.15 310.33,-381.87 323,-354 340.22,-316.11 369.17,-276.83 386.54,-254.87"/>
<polygon fill="#63b8ff" stroke="#63b8ff" points="389.87,-257.3 393.41,-247.32 384.42,-252.92 389.87,-257.3"/>
</g>
<!-- Node5 -->
<g id="node5" class="node">
<title>Node5</title>
<g id="a_node5"><a xlink:href="v8config_8h.html" target="_top" xlink:title=" ">
<polygon fill="white" stroke="#666666" points="587.75,-74.5 528.25,-74.5 528.25,-55.25 587.75,-55.25 587.75,-74.5"/>
<text text-anchor="middle" x="558" y="-61" font-family="Helvetica,sans-Serif" font-size="10.00">v8config.h</text>
</a>
</g>
</g>
<!-- Node1&#45;&gt;Node5 -->
<g id="edge64" class="edge">
<title>Node1&#45;&gt;Node5</title>
<path fill="none" stroke="#63b8ff" d="M251.4,-501.42C162.94,-498.46 0,-478.32 0,-370.25 0,-370.25 0,-370.25 0,-174.38 0,-69 388.3,-63.93 517.07,-65.14"/>
<polygon fill="#63b8ff" stroke="#63b8ff" points="516.96,-68.65 527,-65.27 517.04,-61.65 516.96,-68.65"/>
</g>
<!-- Node7 -->
<g id="node7" class="node">
<title>Node7</title>
<g id="a_node7"><a xlink:href="heap-state_8h.html" target="_top" xlink:title=" ">
<polygon fill="white" stroke="#666666" points="126.25,-185 27.75,-185 27.75,-165.75 126.25,-165.75 126.25,-185"/>
<text text-anchor="middle" x="77" y="-171.5" font-family="Helvetica,sans-Serif" font-size="10.00">cppgc/heap&#45;state.h</text>
</a>
</g>
</g>
<!-- Node1&#45;&gt;Node7 -->
<g id="edge6" class="edge">
<title>Node1&#45;&gt;Node7</title>
<path fill="none" stroke="#63b8ff" d="M251.26,-498.32C172.47,-490.83 38,-464.27 38,-370.25 38,-370.25 38,-370.25 38,-301.75 38,-262.21 55.9,-218.7 67.45,-194.75"/>
<polygon fill="#63b8ff" stroke="#63b8ff" points="70.88,-196.71 72.22,-186.2 64.62,-193.58 70.88,-196.71"/>
</g>
<!-- Node8 -->
<g id="node8" class="node">
<title>Node8</title>
<g id="a_node8"><a xlink:href="api-constants_8h.html" target="_top" xlink:title=" ">
<polygon fill="white" stroke="#666666" points="330.25,-251.5 237.75,-251.5 237.75,-221 330.25,-221 330.25,-251.5"/>
<text text-anchor="start" x="245.75" y="-238" font-family="Helvetica,sans-Serif" font-size="10.00">cppgc/internal/api</text>
<text text-anchor="middle" x="284" y="-226.75" font-family="Helvetica,sans-Serif" font-size="10.00">&#45;constants.h</text>
</a>
</g>
</g>
<!-- Node1&#45;&gt;Node8 -->
<g id="edge8" class="edge">
<title>Node1&#45;&gt;Node8</title>
<path fill="none" stroke="#63b8ff" d="M294.05,-486.59C286.6,-477.15 277.95,-464.2 274,-451 254.34,-385.26 268.26,-303.11 277.53,-262.46"/>
<polygon fill="#63b8ff" stroke="#63b8ff" points="281.13,-263.45 280.05,-252.91 274.32,-261.82 281.13,-263.45"/>
</g>
<!-- Node9 -->
<g id="node9" class="node">
<title>Node9</title>
<g id="a_node9"><a xlink:href="atomic-entry-flag_8h.html" target="_top" xlink:title=" ">
<polygon fill="white" stroke="#666666" points="463.5,-451 354.5,-451 354.5,-420.5 463.5,-420.5 463.5,-451"/>
<text text-anchor="start" x="362.5" y="-437.5" font-family="Helvetica,sans-Serif" font-size="10.00">cppgc/internal/atomic</text>
<text text-anchor="middle" x="409" y="-426.25" font-family="Helvetica,sans-Serif" font-size="10.00">&#45;entry&#45;flag.h</text>
</a>
</g>
</g>
<!-- Node1&#45;&gt;Node9 -->
<g id="edge12" class="edge">
<title>Node1&#45;&gt;Node9</title>
<path fill="none" stroke="#63b8ff" d="M330.15,-486.61C343.97,-477.87 361.73,-466.64 376.9,-457.05"/>
<polygon fill="#63b8ff" stroke="#63b8ff" points="378.36,-459.63 384.95,-451.33 374.62,-453.71 378.36,-459.63"/>
</g>
<!-- Node11 -->
<g id="node11" class="node">
<title>Node11</title>
<g id="a_node11"><a xlink:href="base-page-handle_8h.html" target="_top" xlink:title=" ">
<polygon fill="white" stroke="#666666" points="492.38,-318 391.62,-318 391.62,-287.5 492.38,-287.5 492.38,-318"/>
<text text-anchor="start" x="399.62" y="-304.5" font-family="Helvetica,sans-Serif" font-size="10.00">cppgc/internal/base</text>
<text text-anchor="middle" x="442" y="-293.25" font-family="Helvetica,sans-Serif" font-size="10.00">&#45;page&#45;handle.h</text>
</a>
</g>
</g>
<!-- Node1&#45;&gt;Node11 -->
<g id="edge14" class="edge">
<title>Node1&#45;&gt;Node11</title>
<path fill="none" stroke="#63b8ff" d="M306.99,-486.57C307.72,-457.97 313.09,-394.06 345,-354 355.57,-340.74 370.58,-330.61 385.66,-323.04"/>
<polygon fill="#63b8ff" stroke="#63b8ff" points="386.94,-325.84 394.52,-318.43 383.98,-319.5 386.94,-325.84"/>
</g>
<!-- Node17 -->
<g id="node17" class="node">
<title>Node17</title>
<g id="a_node17"><a xlink:href="member-storage_8h.html" target="_top" xlink:title=" ">
<polygon fill="white" stroke="#666666" points="596.5,-451 481.5,-451 481.5,-420.5 596.5,-420.5 596.5,-451"/>
<text text-anchor="start" x="489.5" y="-437.5" font-family="Helvetica,sans-Serif" font-size="10.00">cppgc/internal/member</text>
<text text-anchor="middle" x="539" y="-426.25" font-family="Helvetica,sans-Serif" font-size="10.00">&#45;storage.h</text>
</a>
</g>
</g>
<!-- Node1&#45;&gt;Node17 -->
<g id="edge26" class="edge">
<title>Node1&#45;&gt;Node17</title>
<path fill="none" stroke="#63b8ff" d="M359.93,-486.53C394.38,-476.96 439.49,-464.42 475.81,-454.32"/>
<polygon fill="#63b8ff" stroke="#63b8ff" points="476.6,-457.45 485.29,-451.4 474.72,-450.71 476.6,-457.45"/>
</g>
<!-- Node21 -->
<g id="node21" class="node">
<title>Node21</title>
<g id="a_node21"><a xlink:href="sentinel-pointer_8h.html" target="_top" xlink:title=" ">
<polygon fill="white" stroke="#666666" points="222.38,-378.88 103.62,-378.88 103.62,-359.62 222.38,-359.62 222.38,-378.88"/>
<text text-anchor="middle" x="163" y="-365.38" font-family="Helvetica,sans-Serif" font-size="10.00">cppgc/sentinel&#45;pointer.h</text>
</a>
</g>
</g>
<!-- Node1&#45;&gt;Node21 -->
<g id="edge56" class="edge">
<title>Node1&#45;&gt;Node21</title>
<path fill="none" stroke="#63b8ff" d="M283.66,-486.62C269.32,-477.18 250.91,-464.23 236,-451 213.58,-431.1 190.92,-404.86 176.92,-387.77"/>
<polygon fill="#63b8ff" stroke="#63b8ff" points="179.1,-385.9 170.09,-380.32 173.65,-390.3 179.1,-385.9"/>
</g>
<!-- Node22 -->
<g id="node22" class="node">
<title>Node22</title>
<g id="a_node22"><a xlink:href="platform_8h.html" target="_top" xlink:title=" ">
<polygon fill="white" stroke="#666666" points="1131,-245.88 1043,-245.88 1043,-226.62 1131,-226.62 1131,-245.88"/>
<text text-anchor="middle" x="1087" y="-232.38" font-family="Helvetica,sans-Serif" font-size="10.00">cppgc/platform.h</text>
</a>
</g>
</g>
<!-- Node1&#45;&gt;Node22 -->
<g id="edge42" class="edge">
<title>Node1&#45;&gt;Node22</title>
<path fill="none" stroke="#63b8ff" d="M362.39,-501.72C490.83,-501.99 805.08,-497.71 898,-451 987.35,-406.08 1053.32,-299.07 1077.21,-255.84"/>
<polygon fill="#63b8ff" stroke="#63b8ff" points="1080.69,-257.76 1082.37,-247.3 1074.54,-254.43 1080.69,-257.76"/>
</g>
<!-- Node29 -->
<g id="node29" class="node">
<title>Node29</title>
<g id="a_node29"><a xlink:href="trace-trait_8h.html" target="_top" xlink:title=" ">
<polygon fill="white" stroke="#666666" points="1216,-445.38 1122,-445.38 1122,-426.12 1216,-426.12 1216,-445.38"/>
<text text-anchor="middle" x="1169" y="-431.88" font-family="Helvetica,sans-Serif" font-size="10.00">cppgc/trace&#45;trait.h</text>
</a>
</g>
</g>
<!-- Node1&#45;&gt;Node29 -->
<g id="edge57" class="edge">
<title>Node1&#45;&gt;Node29</title>
<path fill="none" stroke="#63b8ff" d="M362.52,-497.93C483.28,-490.59 778.81,-471.95 1026,-451 1053.95,-448.63 1084.94,-445.59 1110.9,-442.93"/>
<polygon fill="#63b8ff" stroke="#63b8ff" points="1111.1,-446.33 1120.69,-441.82 1110.38,-439.36 1111.1,-446.33"/>
</g>
<!-- Node4&#45;&gt;Node5 -->
<g id="edge4" class="edge">
<title>Node4&#45;&gt;Node5</title>
<path fill="none" stroke="#63b8ff" d="M403.71,-226.22C410.82,-203.89 431.97,-145.38 468,-110.5 482.46,-96.51 502.16,-86.06 519.44,-78.81"/>
<polygon fill="#63b8ff" stroke="#63b8ff" points="520.28,-81.85 528.29,-74.91 517.7,-75.34 520.28,-81.85"/>
</g>
<!-- Node6 -->
<g id="node6" class="node">
<title>Node6</title>
<g id="a_node6"><a xlink:title=" ">
<polygon fill="#e0e0e0" stroke="#999999" points="1460.25,-19.25 1409.75,-19.25 1409.75,0 1460.25,0 1460.25,-19.25"/>
<text text-anchor="middle" x="1435" y="-5.75" font-family="Helvetica,sans-Serif" font-size="10.00">memory</text>
</a>
</g>
</g>
<!-- Node5&#45;&gt;Node6 -->
<g id="edge5" class="edge">
<title>Node5&#45;&gt;Node6</title>
<path fill="none" stroke="#63b8ff" d="M588.19,-62.04C721.03,-53.98 1253.4,-21.65 1398.38,-12.85"/>
<polygon fill="#63b8ff" stroke="#63b8ff" points="1398.52,-16.29 1408.29,-12.19 1398.1,-9.3 1398.52,-16.29"/>
</g>
<!-- Node7&#45;&gt;Node5 -->
<g id="edge7" class="edge">
<title>Node7&#45;&gt;Node5</title>
<path fill="none" stroke="#63b8ff" d="M110.56,-165.34C159.04,-152.43 251.57,-128.28 331,-110.5 395.81,-95.99 471.61,-81.61 517.16,-73.24"/>
<polygon fill="#63b8ff" stroke="#63b8ff" points="517.58,-76.54 526.79,-71.3 516.32,-69.65 517.58,-76.54"/>
</g>
<!-- Node8&#45;&gt;Node2 -->
<g id="edge9" class="edge">
<title>Node8&#45;&gt;Node2</title>
<path fill="none" stroke="#63b8ff" d="M318.81,-220.63C379.27,-195.63 507.95,-144.1 620,-110.5 674.42,-94.18 738.97,-80.34 777.92,-72.58"/>
<polygon fill="#63b8ff" stroke="#63b8ff" points="778.53,-75.82 787.67,-70.46 777.18,-68.96 778.53,-75.82"/>
</g>
<!-- Node8&#45;&gt;Node3 -->
<g id="edge10" class="edge">
<title>Node8&#45;&gt;Node3</title>
<path fill="none" stroke="#63b8ff" d="M254.78,-220.55C236.36,-211.28 212.73,-199.38 194.62,-190.27"/>
<polygon fill="#63b8ff" stroke="#63b8ff" points="196.45,-186.77 185.94,-185.4 193.3,-193.03 196.45,-186.77"/>
</g>
<!-- Node8&#45;&gt;Node5 -->
<g id="edge11" class="edge">
<title>Node8&#45;&gt;Node5</title>
<path fill="none" stroke="#63b8ff" d="M300.07,-220.54C328.17,-195.39 388.79,-143.66 447,-110.5 469.95,-97.43 497.5,-86.33 519.41,-78.47"/>
<polygon fill="#63b8ff" stroke="#63b8ff" points="520.38,-81.49 528.66,-74.88 518.07,-74.88 520.38,-81.49"/>
</g>
<!-- Node10 -->
<g id="node10" class="node">
<title>Node10</title>
<g id="a_node10"><a xlink:title=" ">
<polygon fill="#e0e0e0" stroke="#999999" points="399.62,-378.88 354.38,-378.88 354.38,-359.62 399.62,-359.62 399.62,-378.88"/>
<text text-anchor="middle" x="377" y="-365.38" font-family="Helvetica,sans-Serif" font-size="10.00">atomic</text>
</a>
</g>
</g>
<!-- Node9&#45;&gt;Node10 -->
<g id="edge13" class="edge">
<title>Node9&#45;&gt;Node10</title>
<path fill="none" stroke="#63b8ff" d="M401.74,-420.11C397.13,-410.83 391.14,-398.75 386.2,-388.8"/>
<polygon fill="#63b8ff" stroke="#63b8ff" points="388.96,-387.48 381.38,-380.07 382.69,-390.59 388.96,-387.48"/>
</g>
<!-- Node11&#45;&gt;Node4 -->
<g id="edge15" class="edge">
<title>Node11&#45;&gt;Node4</title>
<path fill="none" stroke="#63b8ff" d="M432.7,-287.11C426.67,-277.64 418.79,-265.23 412.39,-255.16"/>
<polygon fill="#63b8ff" stroke="#63b8ff" points="414.93,-253.63 406.61,-247.07 409.02,-257.39 414.93,-253.63"/>
</g>
<!-- Node11&#45;&gt;Node5 -->
<g id="edge25" class="edge">
<title>Node11&#45;&gt;Node5</title>
<path fill="none" stroke="#63b8ff" d="M448.45,-287.39C452.82,-277.42 458.58,-263.78 463,-251.5 485.21,-189.87 470.16,-165.35 506,-110.5 513.47,-99.06 524.71,-88.91 534.82,-81.18"/>
<polygon fill="#63b8ff" stroke="#63b8ff" points="536.6,-83.5 542.66,-74.81 532.5,-77.82 536.6,-83.5"/>
</g>
<!-- Node11&#45;&gt;Node8 -->
<g id="edge16" class="edge">
<title>Node11&#45;&gt;Node8</title>
<path fill="none" stroke="#63b8ff" d="M406.15,-287.11C383.6,-277.91 354.29,-265.95 330.04,-256.04"/>
<polygon fill="#63b8ff" stroke="#63b8ff" points="331.57,-252.48 320.98,-251.94 328.92,-258.96 331.57,-252.48"/>
</g>
<!-- Node12 -->
<g id="node12" class="node">
<title>Node12</title>
<g id="a_node12"><a xlink:href="logging_8h.html" target="_top" xlink:title=" ">
<polygon fill="white" stroke="#666666" points="780,-245.88 662,-245.88 662,-226.62 780,-226.62 780,-245.88"/>
<text text-anchor="middle" x="721" y="-232.38" font-family="Helvetica,sans-Serif" font-size="10.00">cppgc/internal/logging.h</text>
</a>
</g>
</g>
<!-- Node11&#45;&gt;Node12 -->
<g id="edge17" class="edge">
<title>Node11&#45;&gt;Node12</title>
<path fill="none" stroke="#63b8ff" d="M492.85,-289.99C543.51,-278.28 620.82,-260.41 671.13,-248.78"/>
<polygon fill="#63b8ff" stroke="#63b8ff" points="671.8,-251.99 680.75,-246.32 670.22,-245.17 671.8,-251.99"/>
</g>
<!-- Node12&#45;&gt;Node5 -->
<g id="edge24" class="edge">
<title>Node12&#45;&gt;Node5</title>
<path fill="none" stroke="#63b8ff" d="M712.24,-226.14C686.02,-198.91 607.95,-117.77 574.03,-82.53"/>
<polygon fill="#63b8ff" stroke="#63b8ff" points="576.87,-80.4 567.41,-75.62 571.83,-85.25 576.87,-80.4"/>
</g>
<!-- Node13 -->
<g id="node13" class="node">
<title>Node13</title>
<g id="a_node13"><a xlink:href="source-location_8h.html" target="_top" xlink:title=" ">
<polygon fill="white" stroke="#666666" points="1260.38,-185 1141.62,-185 1141.62,-165.75 1260.38,-165.75 1260.38,-185"/>
<text text-anchor="middle" x="1201" y="-171.5" font-family="Helvetica,sans-Serif" font-size="10.00">cppgc/source&#45;location.h</text>
</a>
</g>
</g>
<!-- Node12&#45;&gt;Node13 -->
<g id="edge18" class="edge">
<title>Node12&#45;&gt;Node13</title>
<path fill="none" stroke="#63b8ff" d="M780.22,-228.06C857.99,-218.61 999.1,-201.42 1130.51,-185.18"/>
<polygon fill="#63b8ff" stroke="#63b8ff" points="1130.67,-188.57 1140.16,-183.86 1129.81,-181.62 1130.67,-188.57"/>
</g>
<!-- Node14 -->
<g id="node14" class="node">
<title>Node14</title>
<g id="a_node14"><a xlink:href="v8-source-location_8h.html" target="_top" xlink:title=" ">
<polygon fill="white" stroke="#666666" points="1330.5,-129.75 1227.5,-129.75 1227.5,-110.5 1330.5,-110.5 1330.5,-129.75"/>
<text text-anchor="middle" x="1279" y="-116.25" font-family="Helvetica,sans-Serif" font-size="10.00">v8&#45;source&#45;location.h</text>
</a>
</g>
</g>
<!-- Node13&#45;&gt;Node14 -->
<g id="edge19" class="edge">
<title>Node13&#45;&gt;Node14</title>
<path fill="none" stroke="#63b8ff" d="M1214.23,-165.34C1225.89,-157.39 1243.1,-145.64 1256.85,-136.25"/>
<polygon fill="#63b8ff" stroke="#63b8ff" points="1258.42,-138.73 1264.7,-130.2 1254.47,-132.95 1258.42,-138.73"/>
</g>
<!-- Node14&#45;&gt;Node2 -->
<g id="edge20" class="edge">
<title>Node14&#45;&gt;Node2</title>
<path fill="none" stroke="#63b8ff" d="M1227.3,-111.58C1224.5,-111.21 1221.71,-110.84 1219,-110.5 1082.06,-93.14 918.62,-76.38 848.17,-69.34"/>
<polygon fill="#63b8ff" stroke="#63b8ff" points="848.58,-65.77 838.29,-68.26 847.89,-72.73 848.58,-65.77"/>
</g>
<!-- Node14&#45;&gt;Node5 -->
<g id="edge23" class="edge">
<title>Node14&#45;&gt;Node5</title>
<path fill="none" stroke="#63b8ff" d="M1227.32,-111.44C1224.51,-111.1 1221.72,-110.79 1219,-110.5 984.99,-85.82 702.86,-72.09 598.97,-67.57"/>
<polygon fill="#63b8ff" stroke="#63b8ff" points="599.19,-64.03 589.05,-67.1 598.89,-71.02 599.19,-64.03"/>
</g>
<!-- Node15 -->
<g id="node15" class="node">
<title>Node15</title>
<g id="a_node15"><a xlink:title=" ">
<polygon fill="#e0e0e0" stroke="#999999" points="1321.12,-74.5 1236.88,-74.5 1236.88,-55.25 1321.12,-55.25 1321.12,-74.5"/>
<text text-anchor="middle" x="1279" y="-61" font-family="Helvetica,sans-Serif" font-size="10.00">source_location</text>
</a>
</g>
</g>
<!-- Node14&#45;&gt;Node15 -->
<g id="edge21" class="edge">
<title>Node14&#45;&gt;Node15</title>
<path fill="none" stroke="#63b8ff" d="M1279,-110.33C1279,-103.67 1279,-94.24 1279,-85.78"/>
<polygon fill="#63b8ff" stroke="#63b8ff" points="1282.5,-85.86 1279,-75.86 1275.5,-85.86 1282.5,-85.86"/>
</g>
<!-- Node16 -->
<g id="node16" class="node">
<title>Node16</title>
<g id="a_node16"><a xlink:title=" ">
<polygon fill="#e0e0e0" stroke="#999999" points="1393,-74.5 1353,-74.5 1353,-55.25 1393,-55.25 1393,-74.5"/>
<text text-anchor="middle" x="1373" y="-61" font-family="Helvetica,sans-Serif" font-size="10.00">string</text>
</a>
</g>
</g>
<!-- Node14&#45;&gt;Node16 -->
<g id="edge22" class="edge">
<title>Node14&#45;&gt;Node16</title>
<path fill="none" stroke="#63b8ff" d="M1294.95,-110.09C1309.4,-101.91 1330.93,-89.71 1347.73,-80.19"/>
<polygon fill="#63b8ff" stroke="#63b8ff" points="1349,-82.93 1355.98,-74.95 1345.55,-76.84 1349,-82.93"/>
</g>
<!-- Node17&#45;&gt;Node2 -->
<g id="edge28" class="edge">
<title>Node17&#45;&gt;Node2</title>
<path fill="none" stroke="#63b8ff" d="M596.87,-423.75C626.14,-416.16 661.07,-403.86 688,-384.5 748.27,-341.18 760.85,-320.18 789,-251.5 812.37,-194.48 814.29,-120.08 813.71,-85.33"/>
<polygon fill="#63b8ff" stroke="#63b8ff" points="817.19,-85.7 813.43,-75.79 810.2,-85.88 817.19,-85.7"/>
</g>
<!-- Node17&#45;&gt;Node5 -->
<g id="edge41" class="edge">
<title>Node17&#45;&gt;Node5</title>
<path fill="none" stroke="#63b8ff" d="M535.52,-420.31C530.03,-396.28 520,-346.49 520,-303.75 520,-303.75 520,-303.75 520,-174.38 520,-141.23 535.99,-105.43 547.22,-84.37"/>
<polygon fill="#63b8ff" stroke="#63b8ff" points="550.75,-86.23 552.56,-75.79 544.63,-82.83 550.75,-86.23"/>
</g>
<!-- Node17&#45;&gt;Node8 -->
<g id="edge30" class="edge">
<title>Node17&#45;&gt;Node8</title>
<path fill="none" stroke="#63b8ff" d="M516.76,-420.23C491.12,-403.65 447.54,-375.98 409,-354 378.95,-336.86 365.94,-340.88 340,-318 321.82,-301.97 306.56,-278.85 296.59,-261.46"/>
<polygon fill="#63b8ff" stroke="#63b8ff" points="299.25,-260.03 291.35,-252.97 293.12,-263.42 299.25,-260.03"/>
</g>
<!-- Node17&#45;&gt;Node10 -->
<g id="edge27" class="edge">
<title>Node17&#45;&gt;Node10</title>
<path fill="none" stroke="#63b8ff" d="M502.24,-420.11C474.38,-409.02 436.46,-393.92 409.66,-383.25"/>
<polygon fill="#63b8ff" stroke="#63b8ff" points="411.21,-379.71 400.63,-379.26 408.63,-386.21 411.21,-379.71"/>
</g>
<!-- Node17&#45;&gt;Node12 -->
<g id="edge37" class="edge">
<title>Node17&#45;&gt;Node12</title>
<path fill="none" stroke="#63b8ff" d="M596.76,-421.97C619.83,-414.38 645.1,-402.57 663,-384.5 698.67,-348.48 713.05,-287.89 718.3,-256.86"/>
<polygon fill="#63b8ff" stroke="#63b8ff" points="721.88,-257.61 719.94,-247.19 714.96,-256.55 721.88,-257.61"/>
</g>
<!-- Node18 -->
<g id="node18" class="node">
<title>Node18</title>
<g id="a_node18"><a xlink:title=" ">
<polygon fill="#e0e0e0" stroke="#999999" points="1504.5,-312.38 1443.5,-312.38 1443.5,-293.12 1504.5,-293.12 1504.5,-312.38"/>
<text text-anchor="middle" x="1474" y="-298.88" font-family="Helvetica,sans-Serif" font-size="10.00">type_traits</text>
</a>
</g>
</g>
<!-- Node17&#45;&gt;Node18 -->
<g id="edge29" class="edge">
<title>Node17&#45;&gt;Node18</title>
<path fill="none" stroke="#63b8ff" d="M596.94,-434.3C781.02,-432.49 1344.58,-423.76 1416,-384.5 1440.53,-371.02 1457.26,-342.21 1466.22,-322.91"/>
<polygon fill="#63b8ff" stroke="#63b8ff" points="1469.83,-324.39 1470.61,-313.83 1463.41,-321.6 1469.83,-324.39"/>
</g>
<!-- Node19 -->
<g id="node19" class="node">
<title>Node19</title>
<g id="a_node19"><a xlink:href="caged-heap_8h.html" target="_top" xlink:title=" ">
<polygon fill="white" stroke="#666666" points="654,-384.5 548,-384.5 548,-354 654,-354 654,-384.5"/>
<text text-anchor="start" x="556" y="-371" font-family="Helvetica,sans-Serif" font-size="10.00">cppgc/internal/caged</text>
<text text-anchor="middle" x="601" y="-359.75" font-family="Helvetica,sans-Serif" font-size="10.00">&#45;heap.h</text>
</a>
</g>
</g>
<!-- Node17&#45;&gt;Node19 -->
<g id="edge31" class="edge">
<title>Node17&#45;&gt;Node19</title>
<path fill="none" stroke="#63b8ff" d="M553.07,-420.11C560.84,-412.03 570.65,-401.82 579.37,-392.75"/>
<polygon fill="#63b8ff" stroke="#63b8ff" points="581.58,-395.46 585.99,-385.83 576.53,-390.61 581.58,-395.46"/>
</g>
<!-- Node17&#45;&gt;Node21 -->
<g id="edge38" class="edge">
<title>Node17&#45;&gt;Node21</title>
<path fill="none" stroke="#63b8ff" d="M481.09,-422.07C478.36,-421.53 475.65,-421 473,-420.5 390.96,-405 296.14,-390.07 233.19,-380.56"/>
<polygon fill="#63b8ff" stroke="#63b8ff" points="234,-377 223.59,-378.97 232.96,-383.92 234,-377"/>
</g>
<!-- Node19&#45;&gt;Node2 -->
<g id="edge33" class="edge">
<title>Node19&#45;&gt;Node2</title>
<path fill="none" stroke="#63b8ff" d="M605.13,-353.96C614.62,-321.63 638.29,-243.94 653,-221 691.56,-160.86 757.73,-106.78 791.62,-81.3"/>
<polygon fill="#63b8ff" stroke="#63b8ff" points="793.32,-83.65 799.28,-74.89 789.16,-78.03 793.32,-83.65"/>
</g>
<!-- Node19&#45;&gt;Node5 -->
<g id="edge36" class="edge">
<title>Node19&#45;&gt;Node5</title>
<path fill="none" stroke="#63b8ff" d="M601.84,-353.62C602.57,-337.41 603.21,-310.53 601,-287.5 593.73,-211.81 572.78,-123.56 563.06,-85.26"/>
<polygon fill="#63b8ff" stroke="#63b8ff" points="566.22,-84.47 560.34,-75.65 559.44,-86.21 566.22,-84.47"/>
</g>
<!-- Node19&#45;&gt;Node8 -->
<g id="edge34" class="edge">
<title>Node19&#45;&gt;Node8</title>
<path fill="none" stroke="#63b8ff" d="M547.65,-362.84C502.05,-356.64 435.67,-343.79 383,-318 366.94,-310.14 331.85,-280.16 308.07,-259.03"/>
<polygon fill="#63b8ff" stroke="#63b8ff" points="310.66,-256.76 300.87,-252.71 305.99,-261.98 310.66,-256.76"/>
</g>
<!-- Node19&#45;&gt;Node11 -->
<g id="edge35" class="edge">
<title>Node19&#45;&gt;Node11</title>
<path fill="none" stroke="#63b8ff" d="M564.92,-353.61C542.23,-344.41 512.74,-332.45 488.33,-322.54"/>
<polygon fill="#63b8ff" stroke="#63b8ff" points="489.79,-318.96 479.21,-318.44 487.16,-325.44 489.79,-318.96"/>
</g>
<!-- Node20 -->
<g id="node20" class="node">
<title>Node20</title>
<g id="a_node20"><a xlink:title=" ">
<polygon fill="#e0e0e0" stroke="#999999" points="592.25,-312.38 547.75,-312.38 547.75,-293.12 592.25,-293.12 592.25,-312.38"/>
<text text-anchor="middle" x="570" y="-298.88" font-family="Helvetica,sans-Serif" font-size="10.00">climits</text>
</a>
</g>
</g>
<!-- Node19&#45;&gt;Node20 -->
<g id="edge32" class="edge">
<title>Node19&#45;&gt;Node20</title>
<path fill="none" stroke="#63b8ff" d="M593.97,-353.61C589.51,-344.33 583.7,-332.25 578.91,-322.3"/>
<polygon fill="#63b8ff" stroke="#63b8ff" points="581.73,-321.07 574.24,-313.57 575.42,-324.1 581.73,-321.07"/>
</g>
<!-- Node21&#45;&gt;Node3 -->
<g id="edge39" class="edge">
<title>Node21&#45;&gt;Node3</title>
<path fill="none" stroke="#63b8ff" d="M163.19,-359.25C163.8,-329.98 165.74,-236.97 166.59,-196.04"/>
<polygon fill="#63b8ff" stroke="#63b8ff" points="170.11,-196.2 166.82,-186.13 163.11,-196.06 170.11,-196.2"/>
</g>
<!-- Node21&#45;&gt;Node8 -->
<g id="edge40" class="edge">
<title>Node21&#45;&gt;Node8</title>
<path fill="none" stroke="#63b8ff" d="M171.02,-359.21C184.38,-344.21 212.07,-313.25 236,-287.5 244.59,-278.26 254.17,-268.18 262.5,-259.49"/>
<polygon fill="#63b8ff" stroke="#63b8ff" points="264.62,-262.3 269.03,-252.66 259.58,-257.45 264.62,-262.3"/>
</g>
<!-- Node22&#45;&gt;Node5 -->
<g id="edge55" class="edge">
<title>Node22&#45;&gt;Node5</title>
<path fill="none" stroke="#63b8ff" d="M1061.21,-226.26C1009.16,-208.11 887.81,-165.74 786,-129.75 761.98,-121.26 756.37,-117.95 732,-110.5 686.73,-96.66 633.97,-83.54 598.52,-75.16"/>
<polygon fill="#63b8ff" stroke="#63b8ff" points="599.63,-71.59 589.1,-72.71 598.03,-78.4 599.63,-71.59"/>
</g>
<!-- Node22&#45;&gt;Node6 -->
<g id="edge43" class="edge">
<title>Node22&#45;&gt;Node6</title>
<path fill="none" stroke="#63b8ff" d="M1131.33,-229.33C1194.29,-218.95 1310.48,-192.29 1387,-129.75 1410.68,-110.4 1416.83,-102.97 1428,-74.5 1433.49,-60.49 1435.14,-43.51 1435.47,-30.58"/>
<polygon fill="#63b8ff" stroke="#63b8ff" points="1438.97,-30.65 1435.47,-20.65 1431.97,-30.65 1438.97,-30.65"/>
</g>
<!-- Node22&#45;&gt;Node13 -->
<g id="edge44" class="edge">
<title>Node22&#45;&gt;Node13</title>
<path fill="none" stroke="#63b8ff" d="M1104.31,-226.31C1122.81,-216.76 1152.38,-201.49 1173.95,-190.34"/>
<polygon fill="#63b8ff" stroke="#63b8ff" points="1175.24,-193.1 1182.52,-185.4 1172.03,-186.88 1175.24,-193.1"/>
</g>
<!-- Node23 -->
<g id="node23" class="node">
<title>Node23</title>
<g id="a_node23"><a xlink:href="v8-platform_8h.html" target="_top" xlink:title=" ">
<polygon fill="white" stroke="#666666" points="1123.12,-185 1050.88,-185 1050.88,-165.75 1123.12,-165.75 1123.12,-185"/>
<text text-anchor="middle" x="1087" y="-171.5" font-family="Helvetica,sans-Serif" font-size="10.00">v8&#45;platform.h</text>
</a>
</g>
</g>
<!-- Node22&#45;&gt;Node23 -->
<g id="edge45" class="edge">
<title>Node22&#45;&gt;Node23</title>
<path fill="none" stroke="#63b8ff" d="M1087,-226.31C1087,-218.35 1087,-206.44 1087,-196.24"/>
<polygon fill="#63b8ff" stroke="#63b8ff" points="1090.5,-196.4 1087,-186.4 1083.5,-196.4 1090.5,-196.4"/>
</g>
<!-- Node23&#45;&gt;Node5 -->
<g id="edge54" class="edge">
<title>Node23&#45;&gt;Node5</title>
<path fill="none" stroke="#63b8ff" d="M1050.64,-166.92C955.35,-147.37 698.87,-94.77 598.79,-74.24"/>
<polygon fill="#63b8ff" stroke="#63b8ff" points="599.71,-70.65 589.21,-72.07 598.3,-77.51 599.71,-70.65"/>
</g>
<!-- Node23&#45;&gt;Node6 -->
<g id="edge50" class="edge">
<title>Node23&#45;&gt;Node6</title>
<path fill="none" stroke="#63b8ff" d="M1123.14,-167.49C1126.47,-166.89 1129.8,-166.3 1133,-165.75 1234.53,-148.25 1274.17,-183.61 1362,-129.75 1399.27,-106.9 1420.25,-57.17 1429.4,-29.74"/>
<polygon fill="#63b8ff" stroke="#63b8ff" points="1432.96,-31.08 1432.61,-20.49 1426.28,-28.99 1432.96,-31.08"/>
</g>
<!-- Node23&#45;&gt;Node14 -->
<g id="edge53" class="edge">
<title>Node23&#45;&gt;Node14</title>
<path fill="none" stroke="#63b8ff" d="M1119.57,-165.34C1151.57,-156.47 1200.58,-142.87 1235.81,-133.1"/>
<polygon fill="#63b8ff" stroke="#63b8ff" points="1236.57,-136.25 1245.27,-130.2 1234.7,-129.5 1236.57,-136.25"/>
</g>
<!-- Node23&#45;&gt;Node16 -->
<g id="edge52" class="edge">
<title>Node23&#45;&gt;Node16</title>
<path fill="none" stroke="#63b8ff" d="M1123.15,-167.55C1126.48,-166.94 1129.8,-166.33 1133,-165.75 1224.89,-149.15 1264.71,-185 1340,-129.75 1354.61,-119.03 1363.26,-99.92 1368.02,-85.39"/>
<polygon fill="#63b8ff" stroke="#63b8ff" points="1371.62,-86.55 1371.03,-75.97 1364.89,-84.6 1371.62,-86.55"/>
</g>
<!-- Node24 -->
<g id="node24" class="node">
<title>Node24</title>
<g id="a_node24"><a xlink:title=" ">
<polygon fill="#e0e0e0" stroke="#999999" points="943.62,-129.75 898.38,-129.75 898.38,-110.5 943.62,-110.5 943.62,-129.75"/>
<text text-anchor="middle" x="921" y="-116.25" font-family="Helvetica,sans-Serif" font-size="10.00">math.h</text>
</a>
</g>
</g>
<!-- Node23&#45;&gt;Node24 -->
<g id="edge46" class="edge">
<title>Node23&#45;&gt;Node24</title>
<path fill="none" stroke="#63b8ff" d="M1058.84,-165.34C1029.88,-156.05 984.8,-141.59 954.14,-131.75"/>
<polygon fill="#63b8ff" stroke="#63b8ff" points="955.53,-128.21 944.94,-128.48 953.4,-134.87 955.53,-128.21"/>
</g>
<!-- Node25 -->
<g id="node25" class="node">
<title>Node25</title>
<g id="a_node25"><a xlink:title=" ">
<polygon fill="#e0e0e0" stroke="#999999" points="1012.25,-129.75 961.75,-129.75 961.75,-110.5 1012.25,-110.5 1012.25,-129.75"/>
<text text-anchor="middle" x="987" y="-116.25" font-family="Helvetica,sans-Serif" font-size="10.00">stddef.h</text>
</a>
</g>
</g>
<!-- Node23&#45;&gt;Node25 -->
<g id="edge47" class="edge">
<title>Node23&#45;&gt;Node25</title>
<path fill="none" stroke="#63b8ff" d="M1070.04,-165.34C1054.59,-157.12 1031.54,-144.84 1013.64,-135.31"/>
<polygon fill="#63b8ff" stroke="#63b8ff" points="1015.52,-131.81 1005.05,-130.2 1012.23,-137.99 1015.52,-131.81"/>
</g>
<!-- Node26 -->
<g id="node26" class="node">
<title>Node26</title>
<g id="a_node26"><a xlink:title=" ">
<polygon fill="#e0e0e0" stroke="#999999" points="1077.75,-129.75 1030.25,-129.75 1030.25,-110.5 1077.75,-110.5 1077.75,-129.75"/>
<text text-anchor="middle" x="1054" y="-116.25" font-family="Helvetica,sans-Serif" font-size="10.00">stdint.h</text>
</a>
</g>
</g>
<!-- Node23&#45;&gt;Node26 -->
<g id="edge48" class="edge">
<title>Node23&#45;&gt;Node26</title>
<path fill="none" stroke="#63b8ff" d="M1081.55,-165.58C1077.13,-158.46 1070.76,-148.18 1065.26,-139.3"/>
<polygon fill="#63b8ff" stroke="#63b8ff" points="1067.81,-137.77 1059.57,-131.11 1061.86,-141.45 1067.81,-137.77"/>
</g>
<!-- Node27 -->
<g id="node27" class="node">
<title>Node27</title>
<g id="a_node27"><a xlink:title=" ">
<polygon fill="#e0e0e0" stroke="#999999" points="1142.38,-129.75 1095.62,-129.75 1095.62,-110.5 1142.38,-110.5 1142.38,-129.75"/>
<text text-anchor="middle" x="1119" y="-116.25" font-family="Helvetica,sans-Serif" font-size="10.00">stdlib.h</text>
</a>
</g>
</g>
<!-- Node23&#45;&gt;Node27 -->
<g id="edge49" class="edge">
<title>Node23&#45;&gt;Node27</title>
<path fill="none" stroke="#63b8ff" d="M1092.28,-165.58C1096.57,-158.46 1102.74,-148.18 1108.08,-139.3"/>
<polygon fill="#63b8ff" stroke="#63b8ff" points="1111.45,-141.48 1113.6,-131.11 1105.45,-137.88 1111.45,-141.48"/>
</g>
<!-- Node28 -->
<g id="node28" class="node">
<title>Node28</title>
<g id="a_node28"><a xlink:title=" ">
<polygon fill="#e0e0e0" stroke="#999999" points="1209.88,-129.75 1160.12,-129.75 1160.12,-110.5 1209.88,-110.5 1209.88,-129.75"/>
<text text-anchor="middle" x="1185" y="-116.25" font-family="Helvetica,sans-Serif" font-size="10.00">optional</text>
</a>
</g>
</g>
<!-- Node23&#45;&gt;Node28 -->
<g id="edge51" class="edge">
<title>Node23&#45;&gt;Node28</title>
<path fill="none" stroke="#63b8ff" d="M1103.62,-165.34C1118.69,-157.16 1141.14,-144.96 1158.65,-135.44"/>
<polygon fill="#63b8ff" stroke="#63b8ff" points="1160.18,-138.05 1167.29,-130.2 1156.84,-131.9 1160.18,-138.05"/>
</g>
<!-- Node29&#45;&gt;Node5 -->
<g id="edge63" class="edge">
<title>Node29&#45;&gt;Node5</title>
<path fill="none" stroke="#63b8ff" d="M1153.9,-425.63C1072.26,-376.35 683.68,-141.75 582.26,-80.52"/>
<polygon fill="#63b8ff" stroke="#63b8ff" points="584.22,-77.01 573.85,-74.84 580.6,-83 584.22,-77.01"/>
</g>
<!-- Node29&#45;&gt;Node18 -->
<g id="edge58" class="edge">
<title>Node29&#45;&gt;Node18</title>
<path fill="none" stroke="#63b8ff" d="M1216.35,-432.1C1286.96,-427.22 1415.19,-414.39 1449,-384.5 1466.32,-369.19 1471.79,-342.15 1473.44,-323.61"/>
<polygon fill="#63b8ff" stroke="#63b8ff" points="1476.97,-324.05 1474.05,-313.87 1469.98,-323.65 1476.97,-324.05"/>
</g>
<!-- Node30 -->
<g id="node30" class="node">
<title>Node30</title>
<g id="a_node30"><a xlink:href="type-traits_8h.html" target="_top" xlink:title=" ">
<polygon fill="white" stroke="#666666" points="1406.75,-378.88 1311.25,-378.88 1311.25,-359.62 1406.75,-359.62 1406.75,-378.88"/>
<text text-anchor="middle" x="1359" y="-365.38" font-family="Helvetica,sans-Serif" font-size="10.00">cppgc/type&#45;traits.h</text>
</a>
</g>
</g>
<!-- Node29&#45;&gt;Node30 -->
<g id="edge59" class="edge">
<title>Node29&#45;&gt;Node30</title>
<path fill="none" stroke="#63b8ff" d="M1195.82,-425.65C1228.78,-414.46 1284.88,-395.41 1321.94,-382.83"/>
<polygon fill="#63b8ff" stroke="#63b8ff" points="1322.97,-385.84 1331.32,-379.31 1320.72,-379.21 1322.97,-385.84"/>
</g>
<!-- Node30&#45;&gt;Node2 -->
<g id="edge60" class="edge">
<title>Node30&#45;&gt;Node2</title>
<path fill="none" stroke="#63b8ff" d="M1359,-359.36C1359,-338.19 1359,-283.19 1359,-237.25 1359,-237.25 1359,-237.25 1359,-174.38 1359,-144.76 1362.97,-129.19 1340,-110.5 1301.95,-79.54 960.23,-69.17 848.31,-66.59"/>
<polygon fill="#63b8ff" stroke="#63b8ff" points="848.39,-63.07 838.32,-66.35 848.24,-70.07 848.39,-63.07"/>
</g>
<!-- Node30&#45;&gt;Node18 -->
<g id="edge61" class="edge">
<title>Node30&#45;&gt;Node18</title>
<path fill="none" stroke="#63b8ff" d="M1374.99,-359.28C1393.94,-348.66 1425.76,-330.81 1448.2,-318.22"/>
<polygon fill="#63b8ff" stroke="#63b8ff" points="1449.77,-320.79 1456.77,-312.85 1446.34,-314.69 1449.77,-320.79"/>
</g>
<!-- Node31 -->
<g id="node31" class="node">
<title>Node31</title>
<g id="a_node31"><a xlink:title=" ">
<polygon fill="#e0e0e0" stroke="#999999" points="1425.25,-312.38 1386.75,-312.38 1386.75,-293.12 1425.25,-293.12 1425.25,-312.38"/>
<text text-anchor="middle" x="1406" y="-298.88" font-family="Helvetica,sans-Serif" font-size="10.00">utility</text>
</a>
</g>
</g>
<!-- Node30&#45;&gt;Node31 -->
<g id="edge62" class="edge">
<title>Node30&#45;&gt;Node31</title>
<path fill="none" stroke="#63b8ff" d="M1365.54,-359.28C1372.69,-349.46 1384.34,-333.48 1393.31,-321.17"/>
<polygon fill="#63b8ff" stroke="#63b8ff" points="1396.46,-323.79 1399.52,-313.64 1390.8,-319.66 1396.46,-323.79"/>
</g>
</g>
</svg>
