<?xml version="1.0" encoding="UTF-8" standalone="no"?>
<!DOCTYPE svg PUBLIC "-//W3C//DTD SVG 1.1//EN"
 "http://www.w3.org/Graphics/SVG/1.1/DTD/svg11.dtd">
<!-- Generated by graphviz version 2.49.3 (20211027.1534)
 -->
<!-- Title: v8::Isolate::CreateParams Pages: 1 -->
<svg width="566pt" height="173pt"
 viewBox="0.00 0.00 566.00 173.00" xmlns="http://www.w3.org/2000/svg" xmlns:xlink="http://www.w3.org/1999/xlink">
<g id="graph0" class="graph" transform="scale(1 1) rotate(0) translate(4 169)">
<title>v8::Isolate::CreateParams</title>
<polygon fill="white" stroke="transparent" points="-4,4 -4,-169 562,-169 562,4 -4,4"/>
<!-- Node1 -->
<g id="node1" class="node">
<title>Node1</title>
<g id="a_node1"><a xlink:title=" ">
<polygon fill="#bfbfbf" stroke="black" points="251,-0.5 251,-19.5 379,-19.5 379,-0.5 251,-0.5"/>
<text text-anchor="middle" x="315" y="-7.5" font-family="Helvetica,sans-Serif" font-size="10.00">v8::Isolate::CreateParams</text>
</a>
</g>
</g>
<!-- Node2 -->
<g id="node2" class="node">
<title>Node2</title>
<g id="a_node2"><a xlink:href="structv8_1_1JitCodeEvent.html" target="_top" xlink:title=" ">
<polygon fill="white" stroke="black" points="86.5,-67.5 86.5,-86.5 175.5,-86.5 175.5,-67.5 86.5,-67.5"/>
<text text-anchor="middle" x="131" y="-74.5" font-family="Helvetica,sans-Serif" font-size="10.00">v8::JitCodeEvent</text>
</a>
</g>
</g>
<!-- Node2&#45;&gt;Node1 -->
<g id="edge1" class="edge">
<title>Node2&#45;&gt;Node1</title>
<path fill="none" stroke="#9a32cd" stroke-dasharray="5,2" d="M148.98,-61.14C159.47,-53.17 173.32,-43.82 187,-38 206.96,-29.51 229.84,-23.6 250.69,-19.52"/>
<polygon fill="#9a32cd" stroke="#9a32cd" points="146.71,-58.47 141.02,-67.4 151.04,-63.97 146.71,-58.47"/>
<text text-anchor="middle" x="232" y="-41" font-family="Helvetica,sans-Serif" font-size="10.00"> code_event_handler</text>
</g>
<!-- Node3 -->
<g id="node3" class="node">
<title>Node3</title>
<g id="a_node3"><a xlink:href="structv8_1_1JitCodeEvent_1_1name__t.html" target="_top" xlink:title=" ">
<polygon fill="white" stroke="black" points="0,-140 0,-159 126,-159 126,-140 0,-140"/>
<text text-anchor="middle" x="63" y="-147" font-family="Helvetica,sans-Serif" font-size="10.00">v8::JitCodeEvent::name_t</text>
</a>
</g>
</g>
<!-- Node3&#45;&gt;Node2 -->
<g id="edge2" class="edge">
<title>Node3&#45;&gt;Node2</title>
<path fill="none" stroke="#9a32cd" stroke-dasharray="5,2" d="M78.63,-132.3C92.31,-118.12 111.65,-98.06 122.59,-86.72"/>
<polygon fill="#9a32cd" stroke="#9a32cd" points="75.76,-130.23 71.34,-139.86 80.8,-135.09 75.76,-130.23"/>
<text text-anchor="middle" x="117.5" y="-108" font-family="Helvetica,sans-Serif" font-size="10.00"> name</text>
</g>
<!-- Node4 -->
<g id="node4" class="node">
<title>Node4</title>
<g id="a_node4"><a xlink:href="structv8_1_1JitCodeEvent_1_1line__info__t.html" target="_top" xlink:title=" ">
<polygon fill="white" stroke="black" points="144.5,-134.5 144.5,-164.5 253.5,-164.5 253.5,-134.5 144.5,-134.5"/>
<text text-anchor="start" x="152.5" y="-152.5" font-family="Helvetica,sans-Serif" font-size="10.00">v8::JitCodeEvent::line</text>
<text text-anchor="middle" x="199" y="-141.5" font-family="Helvetica,sans-Serif" font-size="10.00">_info_t</text>
</a>
</g>
</g>
<!-- Node4&#45;&gt;Node2 -->
<g id="edge3" class="edge">
<title>Node4&#45;&gt;Node2</title>
<path fill="none" stroke="#9a32cd" stroke-dasharray="5,2" d="M178.03,-126.76C165.09,-113.34 149.18,-96.85 139.58,-86.89"/>
<polygon fill="#9a32cd" stroke="#9a32cd" points="175.78,-129.47 185.24,-134.23 180.82,-124.61 175.78,-129.47"/>
<text text-anchor="middle" x="187.5" y="-108" font-family="Helvetica,sans-Serif" font-size="10.00"> line_info</text>
</g>
<!-- Node5 -->
<g id="node5" class="node">
<title>Node5</title>
<g id="a_node5"><a xlink:href="classv8_1_1ResourceConstraints.html" target="_top" xlink:title=" ">
<polygon fill="white" stroke="black" points="194,-67.5 194,-86.5 316,-86.5 316,-67.5 194,-67.5"/>
<text text-anchor="middle" x="255" y="-74.5" font-family="Helvetica,sans-Serif" font-size="10.00">v8::ResourceConstraints</text>
</a>
</g>
</g>
<!-- Node5&#45;&gt;Node1 -->
<g id="edge4" class="edge">
<title>Node5&#45;&gt;Node1</title>
<path fill="none" stroke="#9a32cd" stroke-dasharray="5,2" d="M270.11,-59.63C281.84,-46.92 297.65,-29.8 307.04,-19.63"/>
<polygon fill="#9a32cd" stroke="#9a32cd" points="267.3,-57.51 263.09,-67.23 272.45,-62.26 267.3,-57.51"/>
<text text-anchor="middle" x="313.5" y="-41" font-family="Helvetica,sans-Serif" font-size="10.00"> constraints</text>
</g>
<!-- Node6 -->
<g id="node6" class="node">
<title>Node6</title>
<g id="a_node6"><a xlink:href="classv8_1_1StartupData.html" target="_top" xlink:title=" ">
<polygon fill="white" stroke="black" points="334.5,-67.5 334.5,-86.5 417.5,-86.5 417.5,-67.5 334.5,-67.5"/>
<text text-anchor="middle" x="376" y="-74.5" font-family="Helvetica,sans-Serif" font-size="10.00">v8::StartupData</text>
</a>
</g>
</g>
<!-- Node6&#45;&gt;Node1 -->
<g id="edge5" class="edge">
<title>Node6&#45;&gt;Node1</title>
<path fill="none" stroke="#9a32cd" stroke-dasharray="5,2" d="M362.22,-59.5C356.42,-52.72 349.51,-44.86 343,-38 336.96,-31.63 329.83,-24.77 324.28,-19.56"/>
<polygon fill="#9a32cd" stroke="#9a32cd" points="359.74,-61.98 368.87,-67.36 365.08,-57.46 359.74,-61.98"/>
<text text-anchor="middle" x="385" y="-41" font-family="Helvetica,sans-Serif" font-size="10.00"> snapshot_blob</text>
</g>
<!-- Node7 -->
<g id="node7" class="node">
<title>Node7</title>
<g id="a_node7"><a xlink:href="classv8_1_1ArrayBuffer_1_1Allocator.html" target="_top" xlink:title=" ">
<polygon fill="white" stroke="black" points="436,-67.5 436,-86.5 558,-86.5 558,-67.5 436,-67.5"/>
<text text-anchor="middle" x="497" y="-74.5" font-family="Helvetica,sans-Serif" font-size="10.00">v8::ArrayBuffer::Allocator</text>
</a>
</g>
</g>
<!-- Node7&#45;&gt;Node1 -->
<g id="edge6" class="edge">
<title>Node7&#45;&gt;Node1</title>
<path fill="none" stroke="#9a32cd" stroke-dasharray="5,2" d="M473.71,-62.51C459.2,-54.53 439.94,-44.71 422,-38 401.36,-30.28 377.68,-24.05 357.84,-19.52"/>
<polygon fill="#9a32cd" stroke="#9a32cd" points="472.06,-65.6 482.5,-67.43 475.48,-59.49 472.06,-65.6"/>
<text text-anchor="middle" x="494.5" y="-41" font-family="Helvetica,sans-Serif" font-size="10.00"> array_buffer_allocator</text>
</g>
</g>
</svg>
