<?xml version="1.0" encoding="UTF-8" standalone="no"?>
<!DOCTYPE svg PUBLIC "-//W3C//DTD SVG 1.1//EN"
 "http://www.w3.org/Graphics/SVG/1.1/DTD/svg11.dtd">
<!-- Generated by graphviz version 2.49.3 (20211027.1534)
 -->
<!-- Title: cppgc::internal::BasicPersistent::operator= Pages: 1 -->
<svg width="697pt" height="289pt"
 viewBox="0.00 0.00 697.00 289.00" xmlns="http://www.w3.org/2000/svg" xmlns:xlink="http://www.w3.org/1999/xlink">
<g id="graph0" class="graph" transform="scale(1 1) rotate(0) translate(4 285)">
<title>cppgc::internal::BasicPersistent::operator=</title>
<polygon fill="white" stroke="transparent" points="-4,4 -4,-285 693,-285 693,4 -4,4"/>
<!-- Node1 -->
<g id="node1" class="node">
<title>Node1</title>
<g id="a_node1"><a xlink:title=" ">
<polygon fill="#bfbfbf" stroke="black" points="0,-147.5 0,-177.5 152,-177.5 152,-147.5 0,-147.5"/>
<text text-anchor="start" x="8" y="-165.5" font-family="Helvetica,sans-Serif" font-size="10.00">cppgc::internal::BasicPersistent</text>
<text text-anchor="middle" x="76" y="-154.5" font-family="Helvetica,sans-Serif" font-size="10.00">::operator=</text>
</a>
</g>
</g>
<!-- Node2 -->
<g id="node2" class="node">
<title>Node2</title>
<g id="a_node2"><a xlink:href="classcppgc_1_1internal_1_1BasicPersistent.html#a74dde4359237ebdcc5056566265ad8be" target="_top" xlink:title=" ">
<polygon fill="white" stroke="black" points="198.5,-169.5 198.5,-199.5 350.5,-199.5 350.5,-169.5 198.5,-169.5"/>
<text text-anchor="start" x="206.5" y="-187.5" font-family="Helvetica,sans-Serif" font-size="10.00">cppgc::internal::BasicPersistent</text>
<text text-anchor="middle" x="274.5" y="-176.5" font-family="Helvetica,sans-Serif" font-size="10.00">::Clear</text>
</a>
</g>
</g>
<!-- Node1&#45;&gt;Node2 -->
<g id="edge1" class="edge">
<title>Node1&#45;&gt;Node2</title>
<path fill="none" stroke="midnightblue" d="M152.13,-170.91C163.98,-172.24 176.31,-173.62 188.36,-174.97"/>
<polygon fill="midnightblue" stroke="midnightblue" points="188.08,-178.46 198.41,-176.09 188.86,-171.5 188.08,-178.46"/>
</g>
<!-- Node3 -->
<g id="node3" class="node">
<title>Node3</title>
<g id="a_node3"><a xlink:href="classcppgc_1_1internal_1_1PersistentBase.html#aa189d8229e1fd8cc2cfce363ade822c6" target="_top" xlink:title=" ">
<polygon fill="white" stroke="black" points="397,-250.5 397,-280.5 525,-280.5 525,-250.5 397,-250.5"/>
<text text-anchor="start" x="405" y="-268.5" font-family="Helvetica,sans-Serif" font-size="10.00">cppgc::internal::Persistent</text>
<text text-anchor="middle" x="461" y="-257.5" font-family="Helvetica,sans-Serif" font-size="10.00">Base::GetNode</text>
</a>
</g>
</g>
<!-- Node1&#45;&gt;Node3 -->
<g id="edge8" class="edge">
<title>Node1&#45;&gt;Node3</title>
<path fill="none" stroke="midnightblue" d="M91.03,-177.81C110.55,-197.92 148.02,-232.46 188,-247.5 252.01,-271.58 330.42,-274.21 386.58,-271.93"/>
<polygon fill="midnightblue" stroke="midnightblue" points="386.98,-275.42 396.8,-271.45 386.65,-268.43 386.98,-275.42"/>
</g>
<!-- Node5 -->
<g id="node5" class="node">
<title>Node5</title>
<g id="a_node5"><a xlink:href="classcppgc_1_1internal_1_1PersistentBase.html#af84e1d2f71c9cbd3f0a4424339c725cb" target="_top" xlink:title=" ">
<polygon fill="white" stroke="black" points="397,-149.5 397,-179.5 525,-179.5 525,-149.5 397,-149.5"/>
<text text-anchor="start" x="405" y="-167.5" font-family="Helvetica,sans-Serif" font-size="10.00">cppgc::internal::Persistent</text>
<text text-anchor="middle" x="461" y="-156.5" font-family="Helvetica,sans-Serif" font-size="10.00">Base::SetNode</text>
</a>
</g>
</g>
<!-- Node1&#45;&gt;Node5 -->
<g id="edge9" class="edge">
<title>Node1&#45;&gt;Node5</title>
<path fill="none" stroke="midnightblue" d="M152.05,-160.86C209.31,-159.88 290.14,-159.07 361,-160.5 369.34,-160.67 378.08,-160.92 386.76,-161.21"/>
<polygon fill="midnightblue" stroke="midnightblue" points="386.78,-164.71 396.9,-161.57 387.03,-157.72 386.78,-164.71"/>
</g>
<!-- Node6 -->
<g id="node6" class="node">
<title>Node6</title>
<g id="a_node6"><a xlink:href="classcppgc_1_1internal_1_1PersistentBase.html#a697d2fa1fc753a2f2e8c479143d72995" target="_top" xlink:title=" ">
<polygon fill="white" stroke="black" points="397,-96.5 397,-126.5 525,-126.5 525,-96.5 397,-96.5"/>
<text text-anchor="start" x="405" y="-114.5" font-family="Helvetica,sans-Serif" font-size="10.00">cppgc::internal::Persistent</text>
<text text-anchor="middle" x="461" y="-103.5" font-family="Helvetica,sans-Serif" font-size="10.00">Base::SetValue</text>
</a>
</g>
</g>
<!-- Node1&#45;&gt;Node6 -->
<g id="edge10" class="edge">
<title>Node1&#45;&gt;Node6</title>
<path fill="none" stroke="midnightblue" d="M152.21,-152.48C220.07,-143.45 319.29,-130.24 386.59,-121.27"/>
<polygon fill="midnightblue" stroke="midnightblue" points="387.25,-124.72 396.7,-119.93 386.32,-117.78 387.25,-124.72"/>
</g>
<!-- Node7 -->
<g id="node7" class="node">
<title>Node7</title>
<g id="a_node7"><a xlink:href="classcppgc_1_1internal_1_1BasicPersistent.html#ad771b1acc6a1c9a0d51e98e9f3d455d2" target="_top" xlink:title=" ">
<polygon fill="white" stroke="black" points="188,-219 188,-238 361,-238 361,-219 188,-219"/>
<text text-anchor="middle" x="274.5" y="-226" font-family="Helvetica,sans-Serif" font-size="10.00">cppgc::internal::BasicPersistent::Get</text>
</a>
</g>
</g>
<!-- Node1&#45;&gt;Node7 -->
<g id="edge6" class="edge">
<title>Node1&#45;&gt;Node7</title>
<path fill="none" stroke="midnightblue" d="M108.48,-177.64C130.39,-187.73 160.49,-200.7 188,-209.5 196.12,-212.1 204.78,-214.47 213.36,-216.59"/>
<polygon fill="midnightblue" stroke="midnightblue" points="212.82,-220.06 223.36,-218.96 214.44,-213.24 212.82,-220.06"/>
</g>
<!-- Node8 -->
<g id="node8" class="node">
<title>Node8</title>
<g id="a_node8"><a xlink:href="classcppgc_1_1internal_1_1PersistentNode.html#a1ca2104547bd2139cb56233c575a38f9" target="_top" xlink:title=" ">
<polygon fill="white" stroke="black" points="210.5,-43.5 210.5,-73.5 338.5,-73.5 338.5,-43.5 210.5,-43.5"/>
<text text-anchor="start" x="218.5" y="-61.5" font-family="Helvetica,sans-Serif" font-size="10.00">cppgc::internal::Persistent</text>
<text text-anchor="middle" x="274.5" y="-50.5" font-family="Helvetica,sans-Serif" font-size="10.00">Node::UpdateOwner</text>
</a>
</g>
</g>
<!-- Node1&#45;&gt;Node8 -->
<g id="edge11" class="edge">
<title>Node1&#45;&gt;Node8</title>
<path fill="none" stroke="midnightblue" d="M96.53,-147.27C118.02,-131.06 154.01,-105.46 188,-88.5 196.27,-84.37 205.25,-80.56 214.17,-77.14"/>
<polygon fill="midnightblue" stroke="midnightblue" points="215.63,-80.33 223.8,-73.58 213.21,-73.76 215.63,-80.33"/>
</g>
<!-- Node2&#45;&gt;Node3 -->
<g id="edge2" class="edge">
<title>Node2&#45;&gt;Node3</title>
<path fill="none" stroke="midnightblue" d="M338.39,-199.51C346.21,-202.35 353.93,-205.66 361,-209.5 379.55,-219.58 378.94,-229.57 397,-240.5 400.21,-242.44 403.6,-244.29 407.07,-246.03"/>
<polygon fill="midnightblue" stroke="midnightblue" points="405.84,-249.32 416.38,-250.41 408.82,-242.99 405.84,-249.32"/>
</g>
<!-- Node4 -->
<g id="node4" class="node">
<title>Node4</title>
<g id="a_node4"><a xlink:href="classcppgc_1_1internal_1_1PersistentBase.html#a2fce9ff2e5e2e6e347e31dc1399c7acb" target="_top" xlink:title=" ">
<polygon fill="white" stroke="black" points="397,-200.5 397,-230.5 525,-230.5 525,-200.5 397,-200.5"/>
<text text-anchor="start" x="405" y="-218.5" font-family="Helvetica,sans-Serif" font-size="10.00">cppgc::internal::Persistent</text>
<text text-anchor="middle" x="461" y="-207.5" font-family="Helvetica,sans-Serif" font-size="10.00">Base::GetValue</text>
</a>
</g>
</g>
<!-- Node2&#45;&gt;Node4 -->
<g id="edge3" class="edge">
<title>Node2&#45;&gt;Node4</title>
<path fill="none" stroke="midnightblue" d="M350.54,-197.11C362.55,-199.13 374.95,-201.21 386.91,-203.22"/>
<polygon fill="midnightblue" stroke="midnightblue" points="386.39,-206.68 396.83,-204.89 387.55,-199.78 386.39,-206.68"/>
</g>
<!-- Node2&#45;&gt;Node5 -->
<g id="edge4" class="edge">
<title>Node2&#45;&gt;Node5</title>
<path fill="none" stroke="midnightblue" d="M350.54,-176.37C362.43,-175.08 374.7,-173.75 386.55,-172.46"/>
<polygon fill="midnightblue" stroke="midnightblue" points="387.26,-175.91 396.83,-171.35 386.51,-168.95 387.26,-175.91"/>
</g>
<!-- Node2&#45;&gt;Node6 -->
<g id="edge5" class="edge">
<title>Node2&#45;&gt;Node6</title>
<path fill="none" stroke="midnightblue" d="M313.73,-169.37C342.3,-158.07 381.55,-142.54 412.2,-130.41"/>
<polygon fill="midnightblue" stroke="midnightblue" points="413.81,-133.54 421.82,-126.61 411.23,-127.03 413.81,-133.54"/>
</g>
<!-- Node7&#45;&gt;Node4 -->
<g id="edge7" class="edge">
<title>Node7&#45;&gt;Node4</title>
<path fill="none" stroke="midnightblue" d="M361.27,-222.46C369.76,-221.86 378.34,-221.25 386.69,-220.67"/>
<polygon fill="midnightblue" stroke="midnightblue" points="387.02,-224.15 396.75,-219.96 386.53,-217.17 387.02,-224.15"/>
</g>
<!-- Node9 -->
<g id="node9" class="node">
<title>Node9</title>
<g id="a_node9"><a xlink:href="classcppgc_1_1internal_1_1PersistentNode.html#a6117a8f66c181bb22827a21b3fbd3457" target="_top" xlink:title=" ">
<polygon fill="white" stroke="black" points="561,-22.5 561,-52.5 689,-52.5 689,-22.5 561,-22.5"/>
<text text-anchor="start" x="569" y="-40.5" font-family="Helvetica,sans-Serif" font-size="10.00">cppgc::internal::Persistent</text>
<text text-anchor="middle" x="625" y="-29.5" font-family="Helvetica,sans-Serif" font-size="10.00">Node::IsUsed</text>
</a>
</g>
</g>
<!-- Node8&#45;&gt;Node9 -->
<g id="edge12" class="edge">
<title>Node8&#45;&gt;Node9</title>
<path fill="none" stroke="midnightblue" d="M338.61,-54.7C398.25,-51.1 487.71,-45.71 550.54,-41.93"/>
<polygon fill="midnightblue" stroke="midnightblue" points="551,-45.41 560.77,-41.31 550.58,-38.42 551,-45.41"/>
</g>
<!-- Node10 -->
<g id="node10" class="node">
<title>Node10</title>
<g id="a_node10"><a xlink:href="classcppgc_1_1internal_1_1PersistentNode.html#ad50ff2c6d54004b92ec8c2d92455f17b" target="_top" xlink:title=" ">
<polygon fill="white" stroke="black" points="397,-0.5 397,-30.5 525,-30.5 525,-0.5 397,-0.5"/>
<text text-anchor="start" x="405" y="-18.5" font-family="Helvetica,sans-Serif" font-size="10.00">cppgc::internal::Persistent</text>
<text text-anchor="middle" x="461" y="-7.5" font-family="Helvetica,sans-Serif" font-size="10.00">Node::owner</text>
</a>
</g>
</g>
<!-- Node8&#45;&gt;Node10 -->
<g id="edge13" class="edge">
<title>Node8&#45;&gt;Node10</title>
<path fill="none" stroke="midnightblue" d="M338.74,-43.76C354.29,-40.14 371.06,-36.23 387.03,-32.51"/>
<polygon fill="midnightblue" stroke="midnightblue" points="387.9,-35.9 396.85,-30.22 386.31,-29.08 387.9,-35.9"/>
</g>
<!-- Node10&#45;&gt;Node9 -->
<g id="edge14" class="edge">
<title>Node10&#45;&gt;Node9</title>
<path fill="none" stroke="midnightblue" d="M525.1,-24.07C533.53,-25.21 542.23,-26.4 550.81,-27.56"/>
<polygon fill="midnightblue" stroke="midnightblue" points="550.43,-31.04 560.81,-28.92 551.37,-24.1 550.43,-31.04"/>
</g>
</g>
</svg>
