<?xml version="1.0" encoding="UTF-8" standalone="no"?>
<!DOCTYPE svg PUBLIC "-//W3C//DTD SVG 1.1//EN"
 "http://www.w3.org/Graphics/SVG/1.1/DTD/svg11.dtd">
<!-- Generated by graphviz version 2.49.3 (20211027.1534)
 -->
<!-- Title: include/cppgc/common.h Pages: 1 -->
<svg width="824pt" height="419pt"
 viewBox="0.00 0.00 824.25 419.00" xmlns="http://www.w3.org/2000/svg" xmlns:xlink="http://www.w3.org/1999/xlink">
<g id="graph0" class="graph" transform="scale(1 1) rotate(0) translate(4 415)">
<title>include/cppgc/common.h</title>
<polygon fill="white" stroke="transparent" points="-4,4 -4,-415 820.25,-415 820.25,4 -4,4"/>
<!-- Node1 -->
<g id="node1" class="node">
<title>Node1</title>
<g id="a_node1"><a xlink:title=" ">
<polygon fill="#bfbfbf" stroke="black" points="502,-391.5 502,-410.5 627,-410.5 627,-391.5 502,-391.5"/>
<text text-anchor="middle" x="564.5" y="-398.5" font-family="Helvetica,sans-Serif" font-size="10.00">include/cppgc/common.h</text>
</a>
</g>
</g>
<!-- Node2 -->
<g id="node2" class="node">
<title>Node2</title>
<g id="a_node2"><a xlink:href="heap_8h.html" target="_top" xlink:title=" ">
<polygon fill="white" stroke="black" points="185.5,-330 185.5,-349 293.5,-349 293.5,-330 185.5,-330"/>
<text text-anchor="middle" x="239.5" y="-337" font-family="Helvetica,sans-Serif" font-size="10.00">include/cppgc/heap.h</text>
</a>
</g>
</g>
<!-- Node1&#45;&gt;Node2 -->
<g id="edge1" class="edge">
<title>Node1&#45;&gt;Node2</title>
<path fill="none" stroke="midnightblue" d="M507.79,-389.62C444.85,-378.09 344.46,-359.72 285.98,-349.01"/>
<polygon fill="midnightblue" stroke="midnightblue" points="507.47,-393.12 517.94,-391.48 508.73,-386.23 507.47,-393.12"/>
</g>
<!-- Node8 -->
<g id="node8" class="node">
<title>Node8</title>
<g id="a_node8"><a xlink:href="v8-cppgc_8h.html" target="_top" xlink:title=" ">
<polygon fill="white" stroke="black" points="294.5,-67.5 294.5,-86.5 392.5,-86.5 392.5,-67.5 294.5,-67.5"/>
<text text-anchor="middle" x="343.5" y="-74.5" font-family="Helvetica,sans-Serif" font-size="10.00">include/v8&#45;cppgc.h</text>
</a>
</g>
</g>
<!-- Node1&#45;&gt;Node8 -->
<g id="edge19" class="edge">
<title>Node1&#45;&gt;Node8</title>
<path fill="none" stroke="midnightblue" d="M491.72,-391.8C442.18,-384.73 382.46,-372.82 364.5,-355 338.1,-328.8 345.5,-310.69 345.5,-273.5 345.5,-273.5 345.5,-273.5 345.5,-204.5 345.5,-160.13 344.25,-107.02 343.73,-86.59"/>
<polygon fill="midnightblue" stroke="midnightblue" points="491.42,-395.29 501.8,-393.19 492.37,-388.35 491.42,-395.29"/>
</g>
<!-- Node10 -->
<g id="node10" class="node">
<title>Node10</title>
<g id="a_node10"><a xlink:href="testing_8h.html" target="_top" xlink:title=" ">
<polygon fill="white" stroke="black" points="373.5,-330 373.5,-349 489.5,-349 489.5,-330 373.5,-330"/>
<text text-anchor="middle" x="431.5" y="-337" font-family="Helvetica,sans-Serif" font-size="10.00">include/cppgc/testing.h</text>
</a>
</g>
</g>
<!-- Node1&#45;&gt;Node10 -->
<g id="edge11" class="edge">
<title>Node1&#45;&gt;Node10</title>
<path fill="none" stroke="midnightblue" d="M536.17,-387.33C510.35,-375.78 472.92,-359.03 450.52,-349.01"/>
<polygon fill="midnightblue" stroke="midnightblue" points="534.89,-390.59 545.44,-391.48 537.75,-384.2 534.89,-390.59"/>
</g>
<!-- Node11 -->
<g id="node11" class="node">
<title>Node11</title>
<g id="a_node11"><a xlink:href="v8-callbacks_8h.html" target="_top" xlink:title=" ">
<polygon fill="white" stroke="black" points="508,-330 508,-349 621,-349 621,-330 508,-330"/>
<text text-anchor="middle" x="564.5" y="-337" font-family="Helvetica,sans-Serif" font-size="10.00">include/v8&#45;callbacks.h</text>
</a>
</g>
</g>
<!-- Node1&#45;&gt;Node11 -->
<g id="edge12" class="edge">
<title>Node1&#45;&gt;Node11</title>
<path fill="none" stroke="midnightblue" d="M564.5,-381.32C564.5,-370.5 564.5,-357.4 564.5,-349.01"/>
<polygon fill="midnightblue" stroke="midnightblue" points="561,-381.48 564.5,-391.48 568,-381.48 561,-381.48"/>
</g>
<!-- Node12 -->
<g id="node12" class="node">
<title>Node12</title>
<g id="a_node12"><a xlink:href="v8-isolate_8h.html" target="_top" xlink:title=" ">
<polygon fill="white" stroke="black" points="608.5,-263 608.5,-282 708.5,-282 708.5,-263 608.5,-263"/>
<text text-anchor="middle" x="658.5" y="-270" font-family="Helvetica,sans-Serif" font-size="10.00">include/v8&#45;isolate.h</text>
</a>
</g>
</g>
<!-- Node1&#45;&gt;Node12 -->
<g id="edge22" class="edge">
<title>Node1&#45;&gt;Node12</title>
<path fill="none" stroke="midnightblue" d="M591.6,-386.45C604.6,-378.76 619.49,-368.07 629.5,-355 646.94,-332.23 654.5,-298.07 657.21,-282.19"/>
<polygon fill="midnightblue" stroke="midnightblue" points="589.58,-383.56 582.56,-391.5 592.99,-389.67 589.58,-383.56"/>
</g>
<!-- Node14 -->
<g id="node14" class="node">
<title>Node14</title>
<g id="a_node14"><a xlink:href="v8_8h.html" target="_top" xlink:title=" ">
<polygon fill="white" stroke="black" points="731.5,-129 731.5,-148 799.5,-148 799.5,-129 731.5,-129"/>
<text text-anchor="middle" x="765.5" y="-136" font-family="Helvetica,sans-Serif" font-size="10.00">include/v8.h</text>
</a>
</g>
</g>
<!-- Node1&#45;&gt;Node14 -->
<g id="edge23" class="edge">
<title>Node1&#45;&gt;Node14</title>
<path fill="none" stroke="midnightblue" d="M637.3,-395.62C697.01,-390.33 774.79,-378.94 794.5,-355 846.81,-291.47 789,-179.87 770.68,-148.14"/>
<polygon fill="midnightblue" stroke="midnightblue" points="636.8,-392.15 627.13,-396.48 637.39,-399.12 636.8,-392.15"/>
</g>
<!-- Node17 -->
<g id="node17" class="node">
<title>Node17</title>
<g id="a_node17"><a xlink:href="v8-embedder-heap_8h.html" target="_top" xlink:title=" ">
<polygon fill="white" stroke="black" points="678,-324.5 678,-354.5 785,-354.5 785,-324.5 678,-324.5"/>
<text text-anchor="start" x="686" y="-342.5" font-family="Helvetica,sans-Serif" font-size="10.00">include/v8&#45;embedder</text>
<text text-anchor="middle" x="731.5" y="-331.5" font-family="Helvetica,sans-Serif" font-size="10.00">&#45;heap.h</text>
</a>
</g>
</g>
<!-- Node1&#45;&gt;Node17 -->
<g id="edge20" class="edge">
<title>Node1&#45;&gt;Node17</title>
<path fill="none" stroke="midnightblue" d="M597.89,-388.1C625.06,-378.42 663.47,-364.74 692.14,-354.52"/>
<polygon fill="midnightblue" stroke="midnightblue" points="596.67,-384.82 588.43,-391.48 599.02,-391.42 596.67,-384.82"/>
</g>
<!-- Node3 -->
<g id="node3" class="node">
<title>Node3</title>
<g id="a_node3"><a xlink:href="liveness-broker_8h.html" target="_top" xlink:title=" ">
<polygon fill="white" stroke="black" points="169.5,-257.5 169.5,-287.5 285.5,-287.5 285.5,-257.5 169.5,-257.5"/>
<text text-anchor="start" x="177.5" y="-275.5" font-family="Helvetica,sans-Serif" font-size="10.00">include/cppgc/liveness</text>
<text text-anchor="middle" x="227.5" y="-264.5" font-family="Helvetica,sans-Serif" font-size="10.00">&#45;broker.h</text>
</a>
</g>
</g>
<!-- Node2&#45;&gt;Node3 -->
<g id="edge2" class="edge">
<title>Node2&#45;&gt;Node3</title>
<path fill="none" stroke="midnightblue" d="M236.04,-319.74C234.14,-309.49 231.84,-297 230.1,-287.59"/>
<polygon fill="midnightblue" stroke="midnightblue" points="232.62,-320.54 237.88,-329.73 239.51,-319.26 232.62,-320.54"/>
</g>
<!-- Node4 -->
<g id="node4" class="node">
<title>Node4</title>
<g id="a_node4"><a xlink:href="ephemeron-pair_8h.html" target="_top" xlink:title=" ">
<polygon fill="white" stroke="black" points="151.5,-190.5 151.5,-220.5 279.5,-220.5 279.5,-190.5 151.5,-190.5"/>
<text text-anchor="start" x="159.5" y="-208.5" font-family="Helvetica,sans-Serif" font-size="10.00">include/cppgc/ephemeron</text>
<text text-anchor="middle" x="215.5" y="-197.5" font-family="Helvetica,sans-Serif" font-size="10.00">&#45;pair.h</text>
</a>
</g>
</g>
<!-- Node3&#45;&gt;Node4 -->
<g id="edge3" class="edge">
<title>Node3&#45;&gt;Node4</title>
<path fill="none" stroke="midnightblue" d="M223.05,-247.4C221.38,-238.37 219.54,-228.41 218.1,-220.58"/>
<polygon fill="midnightblue" stroke="midnightblue" points="219.64,-248.2 224.9,-257.4 226.52,-246.93 219.64,-248.2"/>
</g>
<!-- Node5 -->
<g id="node5" class="node">
<title>Node5</title>
<g id="a_node5"><a xlink:href="visitor_8h.html" target="_top" xlink:title=" ">
<polygon fill="white" stroke="black" points="204,-129 204,-148 317,-148 317,-129 204,-129"/>
<text text-anchor="middle" x="260.5" y="-136" font-family="Helvetica,sans-Serif" font-size="10.00">include/cppgc/visitor.h</text>
</a>
</g>
</g>
<!-- Node3&#45;&gt;Node5 -->
<g id="edge10" class="edge">
<title>Node3&#45;&gt;Node5</title>
<path fill="none" stroke="midnightblue" d="M262.02,-251.43C272.51,-243.42 282.77,-233.17 288.5,-221 300.47,-195.55 279.76,-163.53 267.91,-148.31"/>
<polygon fill="midnightblue" stroke="midnightblue" points="259.78,-248.73 253.64,-257.37 263.82,-254.44 259.78,-248.73"/>
</g>
<!-- Node9 -->
<g id="node9" class="node">
<title>Node9</title>
<g id="a_node9"><a xlink:href="prefinalizer_8h.html" target="_top" xlink:title=" ">
<polygon fill="white" stroke="black" points="0,-196 0,-215 133,-215 133,-196 0,-196"/>
<text text-anchor="middle" x="66.5" y="-203" font-family="Helvetica,sans-Serif" font-size="10.00">include/cppgc/prefinalizer.h</text>
</a>
</g>
</g>
<!-- Node3&#45;&gt;Node9 -->
<g id="edge9" class="edge">
<title>Node3&#45;&gt;Node9</title>
<path fill="none" stroke="midnightblue" d="M183.22,-253.62C152.05,-241.04 111.74,-224.77 87.57,-215.01"/>
<polygon fill="midnightblue" stroke="midnightblue" points="181.98,-256.9 192.57,-257.4 184.6,-250.41 181.98,-256.9"/>
</g>
<!-- Node4&#45;&gt;Node5 -->
<g id="edge4" class="edge">
<title>Node4&#45;&gt;Node5</title>
<path fill="none" stroke="midnightblue" d="M231.09,-181.97C239.15,-170.33 248.52,-156.8 254.48,-148.19"/>
<polygon fill="midnightblue" stroke="midnightblue" points="228.08,-180.18 225.26,-190.4 233.83,-184.17 228.08,-180.18"/>
</g>
<!-- Node6 -->
<g id="node6" class="node">
<title>Node6</title>
<g id="a_node6"><a xlink:href="cross-thread-persistent_8h.html" target="_top" xlink:title=" ">
<polygon fill="white" stroke="black" points="163.5,-0.5 163.5,-30.5 267.5,-30.5 267.5,-0.5 163.5,-0.5"/>
<text text-anchor="start" x="171.5" y="-18.5" font-family="Helvetica,sans-Serif" font-size="10.00">include/cppgc/cross</text>
<text text-anchor="middle" x="215.5" y="-7.5" font-family="Helvetica,sans-Serif" font-size="10.00">&#45;thread&#45;persistent.h</text>
</a>
</g>
</g>
<!-- Node5&#45;&gt;Node6 -->
<g id="edge5" class="edge">
<title>Node5&#45;&gt;Node6</title>
<path fill="none" stroke="midnightblue" d="M257.34,-118.41C254.61,-103.98 250.06,-83.85 243.5,-67 238.48,-54.11 230.73,-40.44 224.66,-30.58"/>
<polygon fill="midnightblue" stroke="midnightblue" points="253.95,-119.35 259.14,-128.59 260.85,-118.13 253.95,-119.35"/>
</g>
<!-- Node7 -->
<g id="node7" class="node">
<title>Node7</title>
<g id="a_node7"><a xlink:href="persistent_8h.html" target="_top" xlink:title=" ">
<polygon fill="white" stroke="black" points="104.5,-67.5 104.5,-86.5 234.5,-86.5 234.5,-67.5 104.5,-67.5"/>
<text text-anchor="middle" x="169.5" y="-74.5" font-family="Helvetica,sans-Serif" font-size="10.00">include/cppgc/persistent.h</text>
</a>
</g>
</g>
<!-- Node5&#45;&gt;Node7 -->
<g id="edge6" class="edge">
<title>Node5&#45;&gt;Node7</title>
<path fill="none" stroke="midnightblue" d="M238.98,-123.43C221.44,-111.96 197.23,-96.13 182.51,-86.51"/>
<polygon fill="midnightblue" stroke="midnightblue" points="237.18,-126.43 247.46,-128.98 241.01,-120.57 237.18,-126.43"/>
</g>
<!-- Node5&#45;&gt;Node8 -->
<g id="edge8" class="edge">
<title>Node5&#45;&gt;Node8</title>
<path fill="none" stroke="midnightblue" d="M280.57,-123.11C296.53,-111.67 318.33,-96.05 331.63,-86.51"/>
<polygon fill="midnightblue" stroke="midnightblue" points="278.48,-120.3 272.39,-128.98 282.56,-125.99 278.48,-120.3"/>
</g>
<!-- Node7&#45;&gt;Node6 -->
<g id="edge7" class="edge">
<title>Node7&#45;&gt;Node6</title>
<path fill="none" stroke="midnightblue" d="M182.23,-59.53C189.28,-50.42 197.94,-39.21 204.66,-30.52"/>
<polygon fill="midnightblue" stroke="midnightblue" points="179.44,-57.42 176.09,-67.48 184.98,-61.7 179.44,-57.42"/>
</g>
<!-- Node11&#45;&gt;Node12 -->
<g id="edge13" class="edge">
<title>Node11&#45;&gt;Node12</title>
<path fill="none" stroke="midnightblue" d="M585.59,-323.92C604.17,-311.07 630.62,-292.78 646.02,-282.13"/>
<polygon fill="midnightblue" stroke="midnightblue" points="583.41,-321.17 577.18,-329.73 587.39,-326.93 583.41,-321.17"/>
</g>
<!-- Node13 -->
<g id="node13" class="node">
<title>Node13</title>
<g id="a_node13"><a xlink:href="v8-initialization_8h.html" target="_top" xlink:title=" ">
<polygon fill="white" stroke="black" points="615.5,-196 615.5,-215 737.5,-215 737.5,-196 615.5,-196"/>
<text text-anchor="middle" x="676.5" y="-203" font-family="Helvetica,sans-Serif" font-size="10.00">include/v8&#45;initialization.h</text>
</a>
</g>
</g>
<!-- Node12&#45;&gt;Node13 -->
<g id="edge14" class="edge">
<title>Node12&#45;&gt;Node13</title>
<path fill="none" stroke="midnightblue" d="M663.65,-252.91C667.09,-240.49 671.46,-224.72 674.11,-215.13"/>
<polygon fill="midnightblue" stroke="midnightblue" points="660.22,-252.16 660.93,-262.73 666.97,-254.03 660.22,-252.16"/>
</g>
<!-- Node12&#45;&gt;Node14 -->
<g id="edge18" class="edge">
<title>Node12&#45;&gt;Node14</title>
<path fill="none" stroke="midnightblue" d="M694.02,-259.11C712.3,-250.99 733.43,-238.57 746.5,-221 763.15,-198.62 765.51,-163.96 765.65,-148.04"/>
<polygon fill="midnightblue" stroke="midnightblue" points="692.66,-255.89 684.78,-262.97 695.36,-262.35 692.66,-255.89"/>
</g>
<!-- Node15 -->
<g id="node15" class="node">
<title>Node15</title>
<g id="a_node15"><a xlink:href="v8-inspector_8h.html" target="_top" xlink:title=" ">
<polygon fill="white" stroke="black" points="486,-196 486,-215 597,-215 597,-196 486,-196"/>
<text text-anchor="middle" x="541.5" y="-203" font-family="Helvetica,sans-Serif" font-size="10.00">include/v8&#45;inspector.h</text>
</a>
</g>
</g>
<!-- Node12&#45;&gt;Node15 -->
<g id="edge16" class="edge">
<title>Node12&#45;&gt;Node15</title>
<path fill="none" stroke="midnightblue" d="M633.82,-257.79C610.63,-244.9 576.64,-226.02 557.03,-215.13"/>
<polygon fill="midnightblue" stroke="midnightblue" points="632.28,-260.94 642.72,-262.73 635.68,-254.82 632.28,-260.94"/>
</g>
<!-- Node13&#45;&gt;Node14 -->
<g id="edge15" class="edge">
<title>Node13&#45;&gt;Node14</title>
<path fill="none" stroke="midnightblue" d="M696.95,-189.57C714.51,-176.74 739.23,-158.69 753.69,-148.13"/>
<polygon fill="midnightblue" stroke="midnightblue" points="694.51,-187.01 688.5,-195.73 698.64,-192.66 694.51,-187.01"/>
</g>
<!-- Node16 -->
<g id="node16" class="node">
<title>Node16</title>
<g id="a_node16"><a xlink:href="v8-inspector-protocol_8h.html" target="_top" xlink:title=" ">
<polygon fill="white" stroke="black" points="489.5,-123.5 489.5,-153.5 593.5,-153.5 593.5,-123.5 489.5,-123.5"/>
<text text-anchor="start" x="497.5" y="-141.5" font-family="Helvetica,sans-Serif" font-size="10.00">include/v8&#45;inspector</text>
<text text-anchor="middle" x="541.5" y="-130.5" font-family="Helvetica,sans-Serif" font-size="10.00">&#45;protocol.h</text>
</a>
</g>
</g>
<!-- Node15&#45;&gt;Node16 -->
<g id="edge17" class="edge">
<title>Node15&#45;&gt;Node16</title>
<path fill="none" stroke="midnightblue" d="M541.5,-185.41C541.5,-175.22 541.5,-162.9 541.5,-153.59"/>
<polygon fill="midnightblue" stroke="midnightblue" points="538,-185.73 541.5,-195.73 545,-185.73 538,-185.73"/>
</g>
<!-- Node17&#45;&gt;Node12 -->
<g id="edge21" class="edge">
<title>Node17&#45;&gt;Node12</title>
<path fill="none" stroke="midnightblue" d="M708.11,-317.67C694.63,-305.67 678.4,-291.22 668.26,-282.19"/>
<polygon fill="midnightblue" stroke="midnightblue" points="705.86,-320.36 715.66,-324.4 710.52,-315.13 705.86,-320.36"/>
</g>
</g>
</svg>
