<?xml version="1.0" encoding="UTF-8" standalone="no"?>
<!DOCTYPE svg PUBLIC "-//W3C//DTD SVG 1.1//EN"
 "http://www.w3.org/Graphics/SVG/1.1/DTD/svg11.dtd">
<!-- Generated by graphviz version 2.49.3 (20211027.1534)
 -->
<!-- Title: include/cppgc/explicit&#45;management.h Pages: 1 -->
<svg width="961pt" height="341pt"
 viewBox="0.00 0.00 961.26 341.00" xmlns="http://www.w3.org/2000/svg" xmlns:xlink="http://www.w3.org/1999/xlink">
<g id="graph0" class="graph" transform="scale(1 1) rotate(0) translate(4 337)">
<title>include/cppgc/explicit&#45;management.h</title>
<polygon fill="white" stroke="transparent" points="-4,4 -4,-337 957.26,-337 957.26,4 -4,4"/>
<!-- Node1 -->
<g id="node1" class="node">
<title>Node1</title>
<g id="a_node1"><a xlink:title=" ">
<polygon fill="#bfbfbf" stroke="black" points="668.19,-302.5 668.19,-332.5 778.19,-332.5 778.19,-302.5 668.19,-302.5"/>
<text text-anchor="start" x="676.19" y="-320.5" font-family="Helvetica,sans-Serif" font-size="10.00">include/cppgc/explicit</text>
<text text-anchor="middle" x="723.19" y="-309.5" font-family="Helvetica,sans-Serif" font-size="10.00">&#45;management.h</text>
</a>
</g>
</g>
<!-- Node2 -->
<g id="node2" class="node">
<title>Node2</title>
<g id="a_node2"><a xlink:title=" ">
<polygon fill="white" stroke="#bfbfbf" points="720.69,-0.5 720.69,-19.5 769.69,-19.5 769.69,-0.5 720.69,-0.5"/>
<text text-anchor="middle" x="745.19" y="-7.5" font-family="Helvetica,sans-Serif" font-size="10.00">cstddef</text>
</a>
</g>
</g>
<!-- Node1&#45;&gt;Node2 -->
<g id="edge1" class="edge">
<title>Node1&#45;&gt;Node2</title>
<path fill="none" stroke="midnightblue" d="M778.33,-311.33C846.09,-301.6 952.19,-273.85 952.19,-195.5 952.19,-195.5 952.19,-195.5 952.19,-126.5 952.19,-94.05 956.46,-78.62 933.19,-56 911.61,-35.02 828,-21.35 779.86,-15.05"/>
<polygon fill="midnightblue" stroke="midnightblue" points="780.24,-11.57 769.88,-13.78 779.35,-18.51 780.24,-11.57"/>
</g>
<!-- Node3 -->
<g id="node3" class="node">
<title>Node3</title>
<g id="a_node3"><a xlink:href="allocation_8h.html" target="_top" xlink:title=" ">
<polygon fill="white" stroke="black" points="463.69,-246.5 463.69,-265.5 558.69,-265.5 558.69,-246.5 463.69,-246.5"/>
<text text-anchor="middle" x="511.19" y="-253.5" font-family="Helvetica,sans-Serif" font-size="10.00">cppgc/allocation.h</text>
</a>
</g>
</g>
<!-- Node1&#45;&gt;Node3 -->
<g id="edge2" class="edge">
<title>Node1&#45;&gt;Node3</title>
<path fill="none" stroke="midnightblue" d="M673.22,-302.47C636,-292.03 585.86,-277.96 551.26,-268.25"/>
<polygon fill="midnightblue" stroke="midnightblue" points="552.07,-264.84 541.5,-265.51 550.18,-271.58 552.07,-264.84"/>
</g>
<!-- Node15 -->
<g id="node15" class="node">
<title>Node15</title>
<g id="a_node15"><a xlink:href="type-traits_8h.html" target="_top" xlink:title=" ">
<polygon fill="white" stroke="black" points="40.19,-56.5 40.19,-75.5 136.19,-75.5 136.19,-56.5 40.19,-56.5"/>
<text text-anchor="middle" x="88.19" y="-63.5" font-family="Helvetica,sans-Serif" font-size="10.00">cppgc/type&#45;traits.h</text>
</a>
</g>
</g>
<!-- Node1&#45;&gt;Node15 -->
<g id="edge43" class="edge">
<title>Node1&#45;&gt;Node15</title>
<path fill="none" stroke="midnightblue" d="M667.96,-312.11C531.51,-300.51 182.2,-266.05 81.19,-210 36.73,-185.33 -1.57,-156.95 22.19,-112 29.61,-97.95 43.61,-87.47 56.81,-80.17"/>
<polygon fill="midnightblue" stroke="midnightblue" points="58.41,-83.28 65.73,-75.62 55.23,-77.04 58.41,-83.28"/>
</g>
<!-- Node19 -->
<g id="node19" class="node">
<title>Node19</title>
<g id="a_node19"><a xlink:href="logging_8h.html" target="_top" xlink:title=" ">
<polygon fill="white" stroke="black" points="804.69,-118 804.69,-137 923.69,-137 923.69,-118 804.69,-118"/>
<text text-anchor="middle" x="864.19" y="-125" font-family="Helvetica,sans-Serif" font-size="10.00">cppgc/internal/logging.h</text>
</a>
</g>
</g>
<!-- Node1&#45;&gt;Node19 -->
<g id="edge37" class="edge">
<title>Node1&#45;&gt;Node19</title>
<path fill="none" stroke="midnightblue" d="M758.7,-302.36C794.28,-286.04 846.98,-255.47 870.19,-210 880.24,-190.3 875.83,-164.38 870.84,-147.11"/>
<polygon fill="midnightblue" stroke="midnightblue" points="874.03,-145.61 867.62,-137.17 867.37,-147.76 874.03,-145.61"/>
</g>
<!-- Node3&#45;&gt;Node2 -->
<g id="edge4" class="edge">
<title>Node3&#45;&gt;Node2</title>
<path fill="none" stroke="midnightblue" d="M558.88,-255.73C640.51,-255.85 801.67,-250.76 837.19,-210 846.24,-199.61 842.87,-191.55 837.19,-179 827.19,-156.91 810.07,-162.88 796.19,-143 770.96,-106.87 756.05,-56.56 749.38,-29.69"/>
<polygon fill="midnightblue" stroke="midnightblue" points="752.73,-28.64 747.02,-19.71 745.92,-30.25 752.73,-28.64"/>
</g>
<!-- Node4 -->
<g id="node4" class="node">
<title>Node4</title>
<g id="a_node4"><a xlink:title=" ">
<polygon fill="white" stroke="#bfbfbf" points="445.19,-118 445.19,-137 491.19,-137 491.19,-118 445.19,-118"/>
<text text-anchor="middle" x="468.19" y="-125" font-family="Helvetica,sans-Serif" font-size="10.00">atomic</text>
</a>
</g>
</g>
<!-- Node3&#45;&gt;Node4 -->
<g id="edge3" class="edge">
<title>Node3&#45;&gt;Node4</title>
<path fill="none" stroke="midnightblue" d="M482.82,-246.49C465.44,-239.65 444.59,-228.13 434.19,-210 421.97,-188.71 438.33,-162.18 452.3,-145.28"/>
<polygon fill="midnightblue" stroke="midnightblue" points="455.26,-147.23 459.23,-137.4 450,-142.6 455.26,-147.23"/>
</g>
<!-- Node5 -->
<g id="node5" class="node">
<title>Node5</title>
<g id="a_node5"><a xlink:title=" ">
<polygon fill="white" stroke="#bfbfbf" points="509.19,-118 509.19,-137 555.19,-137 555.19,-118 509.19,-118"/>
<text text-anchor="middle" x="532.19" y="-125" font-family="Helvetica,sans-Serif" font-size="10.00">cstdint</text>
</a>
</g>
</g>
<!-- Node3&#45;&gt;Node5 -->
<g id="edge5" class="edge">
<title>Node3&#45;&gt;Node5</title>
<path fill="none" stroke="midnightblue" d="M488.4,-246.47C472.86,-239.32 453.48,-227.44 444.19,-210 437.71,-197.84 437.28,-190.92 444.19,-179 447.73,-172.88 481.42,-154.59 506.06,-141.79"/>
<polygon fill="midnightblue" stroke="midnightblue" points="507.7,-144.88 514.98,-137.19 504.49,-138.66 507.7,-144.88"/>
</g>
<!-- Node6 -->
<g id="node6" class="node">
<title>Node6</title>
<g id="a_node6"><a xlink:title=" ">
<polygon fill="white" stroke="#bfbfbf" points="452.69,-185 452.69,-204 487.69,-204 487.69,-185 452.69,-185"/>
<text text-anchor="middle" x="470.19" y="-192" font-family="Helvetica,sans-Serif" font-size="10.00">new</text>
</a>
</g>
</g>
<!-- Node3&#45;&gt;Node6 -->
<g id="edge6" class="edge">
<title>Node3&#45;&gt;Node6</title>
<path fill="none" stroke="midnightblue" d="M505.31,-246.48C499.22,-237.64 489.54,-223.59 481.89,-212.48"/>
<polygon fill="midnightblue" stroke="midnightblue" points="484.61,-210.26 476.05,-204.01 478.84,-214.23 484.61,-210.26"/>
</g>
<!-- Node7 -->
<g id="node7" class="node">
<title>Node7</title>
<g id="a_node7"><a xlink:title=" ">
<polygon fill="white" stroke="#bfbfbf" points="95.19,-0.5 95.19,-19.5 157.19,-19.5 157.19,-0.5 95.19,-0.5"/>
<text text-anchor="middle" x="126.19" y="-7.5" font-family="Helvetica,sans-Serif" font-size="10.00">type_traits</text>
</a>
</g>
</g>
<!-- Node3&#45;&gt;Node7 -->
<g id="edge7" class="edge">
<title>Node3&#45;&gt;Node7</title>
<path fill="none" stroke="midnightblue" d="M463.66,-254.34C366.11,-252.28 146.89,-243.91 81.19,-210 15.33,-176 -24.03,-117.6 17.19,-56 32.28,-33.44 60.97,-22.18 85.13,-16.56"/>
<polygon fill="midnightblue" stroke="midnightblue" points="86.07,-19.94 95.15,-14.49 84.65,-13.09 86.07,-19.94"/>
</g>
<!-- Node8 -->
<g id="node8" class="node">
<title>Node8</title>
<g id="a_node8"><a xlink:title=" ">
<polygon fill="white" stroke="#bfbfbf" points="655.69,-185 655.69,-204 694.69,-204 694.69,-185 655.69,-185"/>
<text text-anchor="middle" x="675.19" y="-192" font-family="Helvetica,sans-Serif" font-size="10.00">utility</text>
</a>
</g>
</g>
<!-- Node3&#45;&gt;Node8 -->
<g id="edge8" class="edge">
<title>Node3&#45;&gt;Node8</title>
<path fill="none" stroke="midnightblue" d="M537.53,-246.48C563.93,-237.81 605.65,-223.71 641.19,-210 642.83,-209.36 644.52,-208.7 646.22,-208.02"/>
<polygon fill="midnightblue" stroke="midnightblue" points="647.97,-211.08 655.87,-204.02 645.29,-204.61 647.97,-211.08"/>
</g>
<!-- Node9 -->
<g id="node9" class="node">
<title>Node9</title>
<g id="a_node9"><a xlink:href="custom-space_8h.html" target="_top" xlink:title=" ">
<polygon fill="white" stroke="black" points="712.69,-185 712.69,-204 827.69,-204 827.69,-185 712.69,-185"/>
<text text-anchor="middle" x="770.19" y="-192" font-family="Helvetica,sans-Serif" font-size="10.00">cppgc/custom&#45;space.h</text>
</a>
</g>
</g>
<!-- Node3&#45;&gt;Node9 -->
<g id="edge9" class="edge">
<title>Node3&#45;&gt;Node9</title>
<path fill="none" stroke="midnightblue" d="M548.3,-246.48C594.36,-235.89 672.96,-217.84 723.19,-206.3"/>
<polygon fill="midnightblue" stroke="midnightblue" points="724.19,-209.66 733.15,-204.01 722.62,-202.84 724.19,-209.66"/>
</g>
<!-- Node11 -->
<g id="node11" class="node">
<title>Node11</title>
<g id="a_node11"><a xlink:href="api-constants_8h.html" target="_top" xlink:title=" ">
<polygon fill="white" stroke="black" points="505.69,-179.5 505.69,-209.5 598.69,-209.5 598.69,-179.5 505.69,-179.5"/>
<text text-anchor="start" x="513.69" y="-197.5" font-family="Helvetica,sans-Serif" font-size="10.00">cppgc/internal/api</text>
<text text-anchor="middle" x="552.19" y="-186.5" font-family="Helvetica,sans-Serif" font-size="10.00">&#45;constants.h</text>
</a>
</g>
</g>
<!-- Node3&#45;&gt;Node11 -->
<g id="edge11" class="edge">
<title>Node3&#45;&gt;Node11</title>
<path fill="none" stroke="midnightblue" d="M517.06,-246.48C522.2,-239.02 529.9,-227.85 536.77,-217.87"/>
<polygon fill="midnightblue" stroke="midnightblue" points="539.73,-219.74 542.53,-209.52 533.97,-215.77 539.73,-219.74"/>
</g>
<!-- Node12 -->
<g id="node12" class="node">
<title>Node12</title>
<g id="a_node12"><a xlink:href="v8config_8h.html" target="_top" xlink:title=" ">
<polygon fill="white" stroke="black" points="506.19,-0.5 506.19,-19.5 566.19,-19.5 566.19,-0.5 506.19,-0.5"/>
<text text-anchor="middle" x="536.19" y="-7.5" font-family="Helvetica,sans-Serif" font-size="10.00">v8config.h</text>
</a>
</g>
</g>
<!-- Node3&#45;&gt;Node12 -->
<g id="edge36" class="edge">
<title>Node3&#45;&gt;Node12</title>
<path fill="none" stroke="midnightblue" d="M553.58,-246.45C573.77,-240.02 596.1,-228.93 608.19,-210 647.54,-148.36 582.17,-62.27 551.14,-27.02"/>
<polygon fill="midnightblue" stroke="midnightblue" points="553.71,-24.64 544.41,-19.55 548.51,-29.32 553.71,-24.64"/>
</g>
<!-- Node13 -->
<g id="node13" class="node">
<title>Node13</title>
<g id="a_node13"><a xlink:href="gc-info_8h.html" target="_top" xlink:title=" ">
<polygon fill="white" stroke="black" points="240.69,-185 240.69,-204 357.69,-204 357.69,-185 240.69,-185"/>
<text text-anchor="middle" x="299.19" y="-192" font-family="Helvetica,sans-Serif" font-size="10.00">cppgc/internal/gc&#45;info.h</text>
</a>
</g>
</g>
<!-- Node3&#45;&gt;Node13 -->
<g id="edge15" class="edge">
<title>Node3&#45;&gt;Node13</title>
<path fill="none" stroke="midnightblue" d="M480.81,-246.48C443.58,-236.03 380.38,-218.29 339.21,-206.73"/>
<polygon fill="midnightblue" stroke="midnightblue" points="340.08,-203.34 329.51,-204.01 338.19,-210.08 340.08,-203.34"/>
</g>
<!-- Node3&#45;&gt;Node15 -->
<g id="edge35" class="edge">
<title>Node3&#45;&gt;Node15</title>
<path fill="none" stroke="midnightblue" d="M463.28,-251.55C352.01,-242.4 81.73,-213.24 31.19,-143 23.14,-131.82 25.18,-124.4 31.19,-112 37.58,-98.8 49.94,-88.3 61.52,-80.78"/>
<polygon fill="midnightblue" stroke="midnightblue" points="63.34,-83.77 70.11,-75.61 59.73,-77.77 63.34,-83.77"/>
</g>
<!-- Node10 -->
<g id="node10" class="node">
<title>Node10</title>
<g id="a_node10"><a xlink:title=" ">
<polygon fill="white" stroke="#bfbfbf" points="696.69,-118 696.69,-137 747.69,-137 747.69,-118 696.69,-118"/>
<text text-anchor="middle" x="722.19" y="-125" font-family="Helvetica,sans-Serif" font-size="10.00">stddef.h</text>
</a>
</g>
</g>
<!-- Node9&#45;&gt;Node10 -->
<g id="edge10" class="edge">
<title>Node9&#45;&gt;Node10</title>
<path fill="none" stroke="midnightblue" d="M763.71,-184.73C756.3,-174.7 743.98,-158.01 734.68,-145.42"/>
<polygon fill="midnightblue" stroke="midnightblue" points="737.31,-143.09 728.56,-137.13 731.68,-147.25 737.31,-143.09"/>
</g>
<!-- Node11&#45;&gt;Node2 -->
<g id="edge12" class="edge">
<title>Node11&#45;&gt;Node2</title>
<path fill="none" stroke="midnightblue" d="M567.01,-179.48C602.3,-146.12 691.1,-62.14 728.34,-26.93"/>
<polygon fill="midnightblue" stroke="midnightblue" points="731,-29.23 735.86,-19.82 726.19,-24.15 731,-29.23"/>
</g>
<!-- Node11&#45;&gt;Node5 -->
<g id="edge13" class="edge">
<title>Node11&#45;&gt;Node5</title>
<path fill="none" stroke="midnightblue" d="M547.85,-179.4C544.92,-169.86 541.01,-157.18 537.84,-146.86"/>
<polygon fill="midnightblue" stroke="midnightblue" points="541.15,-145.72 534.86,-137.19 534.46,-147.78 541.15,-145.72"/>
</g>
<!-- Node11&#45;&gt;Node12 -->
<g id="edge14" class="edge">
<title>Node11&#45;&gt;Node12</title>
<path fill="none" stroke="midnightblue" d="M556.56,-179.08C559.37,-169.06 562.74,-155.35 564.19,-143 569.03,-101.67 553.67,-54.15 543.82,-28.92"/>
<polygon fill="midnightblue" stroke="midnightblue" points="547.02,-27.5 540,-19.56 540.53,-30.14 547.02,-27.5"/>
</g>
<!-- Node13&#45;&gt;Node4 -->
<g id="edge16" class="edge">
<title>Node13&#45;&gt;Node4</title>
<path fill="none" stroke="midnightblue" d="M321.63,-184.98C347.91,-174.98 392.75,-157.88 431.19,-143 433.02,-142.29 434.91,-141.56 436.81,-140.82"/>
<polygon fill="midnightblue" stroke="midnightblue" points="438.24,-144.01 446.29,-137.12 435.7,-137.49 438.24,-144.01"/>
</g>
<!-- Node13&#45;&gt;Node5 -->
<g id="edge17" class="edge">
<title>Node13&#45;&gt;Node5</title>
<path fill="none" stroke="midnightblue" d="M342.58,-184.95C383.74,-176.3 447.02,-161.56 500.19,-143 501.85,-142.42 503.55,-141.79 505.24,-141.12"/>
<polygon fill="midnightblue" stroke="midnightblue" points="506.98,-144.18 514.81,-137.05 504.24,-137.74 506.98,-144.18"/>
</g>
<!-- Node13&#45;&gt;Node7 -->
<g id="edge18" class="edge">
<title>Node13&#45;&gt;Node7</title>
<path fill="none" stroke="midnightblue" d="M240.57,-190.92C169.88,-186.44 57.25,-174.44 31.19,-143 6.51,-113.23 10.51,-88.67 31.19,-56 43.13,-37.13 65.35,-26.02 85.3,-19.56"/>
<polygon fill="midnightblue" stroke="midnightblue" points="86.55,-22.85 95.16,-16.67 84.58,-16.13 86.55,-22.85"/>
</g>
<!-- Node13&#45;&gt;Node12 -->
<g id="edge34" class="edge">
<title>Node13&#45;&gt;Node12</title>
<path fill="none" stroke="midnightblue" d="M320.28,-184.89C341.04,-175.94 373.17,-160.76 398.19,-143 424.49,-124.32 490.55,-57.76 520.72,-26.91"/>
<polygon fill="midnightblue" stroke="midnightblue" points="523.42,-29.16 527.9,-19.55 518.41,-24.27 523.42,-29.16"/>
</g>
<!-- Node14 -->
<g id="node14" class="node">
<title>Node14</title>
<g id="a_node14"><a xlink:href="finalizer-trait_8h.html" target="_top" xlink:title=" ">
<polygon fill="white" stroke="black" points="40.69,-112.5 40.69,-142.5 153.69,-142.5 153.69,-112.5 40.69,-112.5"/>
<text text-anchor="start" x="48.69" y="-130.5" font-family="Helvetica,sans-Serif" font-size="10.00">cppgc/internal/finalizer</text>
<text text-anchor="middle" x="97.19" y="-119.5" font-family="Helvetica,sans-Serif" font-size="10.00">&#45;trait.h</text>
</a>
</g>
</g>
<!-- Node13&#45;&gt;Node14 -->
<g id="edge19" class="edge">
<title>Node13&#45;&gt;Node14</title>
<path fill="none" stroke="midnightblue" d="M272.36,-184.87C241.4,-174.9 189.7,-158.27 150.47,-145.64"/>
<polygon fill="midnightblue" stroke="midnightblue" points="151.37,-142.26 140.78,-142.53 149.23,-148.92 151.37,-142.26"/>
</g>
<!-- Node16 -->
<g id="node16" class="node">
<title>Node16</title>
<g id="a_node16"><a xlink:href="name-trait_8h.html" target="_top" xlink:title=" ">
<polygon fill="white" stroke="black" points="285.19,-112.5 285.19,-142.5 389.19,-142.5 389.19,-112.5 285.19,-112.5"/>
<text text-anchor="start" x="293.19" y="-130.5" font-family="Helvetica,sans-Serif" font-size="10.00">cppgc/internal/name</text>
<text text-anchor="middle" x="337.19" y="-119.5" font-family="Helvetica,sans-Serif" font-size="10.00">&#45;trait.h</text>
</a>
</g>
</g>
<!-- Node13&#45;&gt;Node16 -->
<g id="edge24" class="edge">
<title>Node13&#45;&gt;Node16</title>
<path fill="none" stroke="midnightblue" d="M304.31,-184.73C309.3,-176.2 317.09,-162.87 323.84,-151.33"/>
<polygon fill="midnightblue" stroke="midnightblue" points="326.93,-152.99 328.95,-142.59 320.88,-149.46 326.93,-152.99"/>
</g>
<!-- Node18 -->
<g id="node18" class="node">
<title>Node18</title>
<g id="a_node18"><a xlink:href="trace-trait_8h.html" target="_top" xlink:title=" ">
<polygon fill="white" stroke="black" points="171.69,-118 171.69,-137 266.69,-137 266.69,-118 171.69,-118"/>
<text text-anchor="middle" x="219.19" y="-125" font-family="Helvetica,sans-Serif" font-size="10.00">cppgc/trace&#45;trait.h</text>
</a>
</g>
</g>
<!-- Node13&#45;&gt;Node18 -->
<g id="edge30" class="edge">
<title>Node13&#45;&gt;Node18</title>
<path fill="none" stroke="midnightblue" d="M288.4,-184.73C275.44,-174.21 253.5,-156.38 237.79,-143.62"/>
<polygon fill="midnightblue" stroke="midnightblue" points="239.77,-140.72 229.81,-137.13 235.36,-146.15 239.77,-140.72"/>
</g>
<!-- Node14&#45;&gt;Node7 -->
<g id="edge20" class="edge">
<title>Node14&#45;&gt;Node7</title>
<path fill="none" stroke="midnightblue" d="M116.39,-112.45C127.07,-103.4 139.36,-90.6 145.19,-76 151.44,-60.34 144.72,-41.82 137.61,-28.57"/>
<polygon fill="midnightblue" stroke="midnightblue" points="140.4,-26.41 132.29,-19.59 134.37,-29.98 140.4,-26.41"/>
</g>
<!-- Node14&#45;&gt;Node15 -->
<g id="edge21" class="edge">
<title>Node14&#45;&gt;Node15</title>
<path fill="none" stroke="midnightblue" d="M95.06,-112.4C93.84,-104.38 92.31,-94.23 91,-85.57"/>
<polygon fill="midnightblue" stroke="midnightblue" points="94.45,-85.02 89.5,-75.66 87.53,-86.07 94.45,-85.02"/>
</g>
<!-- Node15&#45;&gt;Node2 -->
<g id="edge22" class="edge">
<title>Node15&#45;&gt;Node2</title>
<path fill="none" stroke="midnightblue" d="M136.23,-61.05C262.34,-50.69 600.61,-22.88 710.32,-13.87"/>
<polygon fill="midnightblue" stroke="midnightblue" points="710.82,-17.34 720.5,-13.03 710.25,-10.36 710.82,-17.34"/>
</g>
<!-- Node15&#45;&gt;Node7 -->
<g id="edge23" class="edge">
<title>Node15&#45;&gt;Node7</title>
<path fill="none" stroke="midnightblue" d="M94.46,-56.08C99.83,-48.46 107.71,-37.26 114.27,-27.94"/>
<polygon fill="midnightblue" stroke="midnightblue" points="117.14,-29.94 120.03,-19.75 111.41,-25.91 117.14,-29.94"/>
</g>
<!-- Node16&#45;&gt;Node2 -->
<g id="edge25" class="edge">
<title>Node16&#45;&gt;Node2</title>
<path fill="none" stroke="midnightblue" d="M386.81,-112.45C470.61,-88.73 638.11,-41.31 710.52,-20.82"/>
<polygon fill="midnightblue" stroke="midnightblue" points="711.82,-24.08 720.49,-17.99 709.91,-17.35 711.82,-24.08"/>
</g>
<!-- Node16&#45;&gt;Node7 -->
<g id="edge26" class="edge">
<title>Node16&#45;&gt;Node7</title>
<path fill="none" stroke="midnightblue" d="M311.32,-112.34C270.26,-89.86 190.74,-46.33 150.61,-24.37"/>
<polygon fill="midnightblue" stroke="midnightblue" points="152.21,-21.25 141.76,-19.52 148.85,-27.39 152.21,-21.25"/>
</g>
<!-- Node16&#45;&gt;Node12 -->
<g id="edge29" class="edge">
<title>Node16&#45;&gt;Node12</title>
<path fill="none" stroke="midnightblue" d="M364.58,-112.35C383.46,-102.46 409.05,-88.78 431.19,-76 460.3,-59.19 493.14,-38.59 514.22,-25.14"/>
<polygon fill="midnightblue" stroke="midnightblue" points="516.22,-28.02 522.76,-19.68 512.45,-22.12 516.22,-28.02"/>
</g>
<!-- Node17 -->
<g id="node17" class="node">
<title>Node17</title>
<g id="a_node17"><a xlink:href="name-provider_8h.html" target="_top" xlink:title=" ">
<polygon fill="white" stroke="black" points="306.69,-56.5 306.69,-75.5 421.69,-75.5 421.69,-56.5 306.69,-56.5"/>
<text text-anchor="middle" x="364.19" y="-63.5" font-family="Helvetica,sans-Serif" font-size="10.00">cppgc/name&#45;provider.h</text>
</a>
</g>
</g>
<!-- Node16&#45;&gt;Node17 -->
<g id="edge27" class="edge">
<title>Node16&#45;&gt;Node17</title>
<path fill="none" stroke="midnightblue" d="M343.59,-112.4C347.31,-104.2 352.04,-93.78 356.02,-84.99"/>
<polygon fill="midnightblue" stroke="midnightblue" points="359.31,-86.21 360.26,-75.66 352.94,-83.32 359.31,-86.21"/>
</g>
<!-- Node17&#45;&gt;Node12 -->
<g id="edge28" class="edge">
<title>Node17&#45;&gt;Node12</title>
<path fill="none" stroke="midnightblue" d="M391.44,-56.44C420.63,-47.28 467.11,-32.69 499.5,-22.52"/>
<polygon fill="midnightblue" stroke="midnightblue" points="500.57,-25.85 509.06,-19.52 498.47,-19.17 500.57,-25.85"/>
</g>
<!-- Node18&#45;&gt;Node7 -->
<g id="edge31" class="edge">
<title>Node18&#45;&gt;Node7</title>
<path fill="none" stroke="midnightblue" d="M212.2,-117.82C196.78,-98.67 159.64,-52.54 139.58,-27.63"/>
<polygon fill="midnightblue" stroke="midnightblue" points="142.26,-25.38 133.26,-19.78 136.8,-29.77 142.26,-25.38"/>
</g>
<!-- Node18&#45;&gt;Node12 -->
<g id="edge33" class="edge">
<title>Node18&#45;&gt;Node12</title>
<path fill="none" stroke="midnightblue" d="M225.99,-117.94C238.52,-102.79 266.86,-71.43 298.19,-56 362.5,-24.32 446.71,-14.88 495.79,-12.1"/>
<polygon fill="midnightblue" stroke="midnightblue" points="496.19,-15.59 506.01,-11.59 495.84,-8.6 496.19,-15.59"/>
</g>
<!-- Node18&#45;&gt;Node15 -->
<g id="edge32" class="edge">
<title>Node18&#45;&gt;Node15</title>
<path fill="none" stroke="midnightblue" d="M200.42,-117.98C178.34,-107.95 141.47,-91.2 116.05,-79.65"/>
<polygon fill="midnightblue" stroke="midnightblue" points="117.47,-76.46 106.92,-75.51 114.58,-82.83 117.47,-76.46"/>
</g>
<!-- Node19&#45;&gt;Node12 -->
<g id="edge42" class="edge">
<title>Node19&#45;&gt;Node12</title>
<path fill="none" stroke="midnightblue" d="M839.8,-117.91C782.04,-97.57 636.77,-46.42 570.32,-23.02"/>
<polygon fill="midnightblue" stroke="midnightblue" points="571.33,-19.66 560.73,-19.64 569,-26.27 571.33,-19.66"/>
</g>
<!-- Node20 -->
<g id="node20" class="node">
<title>Node20</title>
<g id="a_node20"><a xlink:href="source-location_8h.html" target="_top" xlink:title=" ">
<polygon fill="white" stroke="black" points="804.69,-56.5 804.69,-75.5 923.69,-75.5 923.69,-56.5 804.69,-56.5"/>
<text text-anchor="middle" x="864.19" y="-63.5" font-family="Helvetica,sans-Serif" font-size="10.00">cppgc/source&#45;location.h</text>
</a>
</g>
</g>
<!-- Node19&#45;&gt;Node20 -->
<g id="edge38" class="edge">
<title>Node19&#45;&gt;Node20</title>
<path fill="none" stroke="midnightblue" d="M864.19,-117.98C864.19,-109.58 864.19,-96.48 864.19,-85.66"/>
<polygon fill="midnightblue" stroke="midnightblue" points="867.69,-85.51 864.19,-75.51 860.69,-85.51 867.69,-85.51"/>
</g>
<!-- Node20&#45;&gt;Node2 -->
<g id="edge39" class="edge">
<title>Node20&#45;&gt;Node2</title>
<path fill="none" stroke="midnightblue" d="M845.33,-56.44C825.92,-47.64 795.46,-33.81 773.22,-23.72"/>
<polygon fill="midnightblue" stroke="midnightblue" points="774.51,-20.46 763.96,-19.52 771.62,-26.84 774.51,-20.46"/>
</g>
<!-- Node20&#45;&gt;Node12 -->
<g id="edge41" class="edge">
<title>Node20&#45;&gt;Node12</title>
<path fill="none" stroke="midnightblue" d="M812.22,-56.44C746.78,-45.67 635.76,-27.39 576.42,-17.62"/>
<polygon fill="midnightblue" stroke="midnightblue" points="576.75,-14.13 566.31,-15.96 575.61,-21.04 576.75,-14.13"/>
</g>
<!-- Node21 -->
<g id="node21" class="node">
<title>Node21</title>
<g id="a_node21"><a xlink:title=" ">
<polygon fill="white" stroke="#bfbfbf" points="843.69,-0.5 843.69,-19.5 884.69,-19.5 884.69,-0.5 843.69,-0.5"/>
<text text-anchor="middle" x="864.19" y="-7.5" font-family="Helvetica,sans-Serif" font-size="10.00">string</text>
</a>
</g>
</g>
<!-- Node20&#45;&gt;Node21 -->
<g id="edge40" class="edge">
<title>Node20&#45;&gt;Node21</title>
<path fill="none" stroke="midnightblue" d="M864.19,-56.08C864.19,-49.01 864.19,-38.86 864.19,-29.99"/>
<polygon fill="midnightblue" stroke="midnightblue" points="867.69,-29.75 864.19,-19.75 860.69,-29.75 867.69,-29.75"/>
</g>
</g>
</svg>
