<?xml version="1.0" encoding="UTF-8" standalone="no"?>
<!DOCTYPE svg PUBLIC "-//W3C//DTD SVG 1.1//EN"
 "http://www.w3.org/Graphics/SVG/1.1/DTD/svg11.dtd">
<!-- Generated by graphviz version 2.49.3 (20211027.1534)
 -->
<!-- Title: include/cppgc/heap&#45;state.h Pages: 1 -->
<svg width="458pt" height="542pt"
 viewBox="0.00 0.00 458.00 542.00" xmlns="http://www.w3.org/2000/svg" xmlns:xlink="http://www.w3.org/1999/xlink">
<g id="graph0" class="graph" transform="scale(1 1) rotate(0) translate(4 538)">
<title>include/cppgc/heap&#45;state.h</title>
<polygon fill="white" stroke="transparent" points="-4,4 -4,-538 454,-538 454,4 -4,4"/>
<!-- Node1 -->
<g id="node1" class="node">
<title>Node1</title>
<g id="a_node1"><a xlink:title=" ">
<polygon fill="#bfbfbf" stroke="black" points="211.5,-503.5 211.5,-533.5 312.5,-533.5 312.5,-503.5 211.5,-503.5"/>
<text text-anchor="start" x="219.5" y="-521.5" font-family="Helvetica,sans-Serif" font-size="10.00">include/cppgc/heap</text>
<text text-anchor="middle" x="262" y="-510.5" font-family="Helvetica,sans-Serif" font-size="10.00">&#45;state.h</text>
</a>
</g>
</g>
<!-- Node2 -->
<g id="node2" class="node">
<title>Node2</title>
<g id="a_node2"><a xlink:href="write-barrier_8h.html" target="_top" xlink:title=" ">
<polygon fill="white" stroke="black" points="206.5,-436.5 206.5,-466.5 317.5,-466.5 317.5,-436.5 206.5,-436.5"/>
<text text-anchor="start" x="214.5" y="-454.5" font-family="Helvetica,sans-Serif" font-size="10.00">include/cppgc/internal</text>
<text text-anchor="middle" x="262" y="-443.5" font-family="Helvetica,sans-Serif" font-size="10.00">/write&#45;barrier.h</text>
</a>
</g>
</g>
<!-- Node1&#45;&gt;Node2 -->
<g id="edge1" class="edge">
<title>Node1&#45;&gt;Node2</title>
<path fill="none" stroke="midnightblue" d="M262,-493.11C262,-484.15 262,-474.32 262,-466.58"/>
<polygon fill="midnightblue" stroke="midnightblue" points="258.5,-493.4 262,-503.4 265.5,-493.4 258.5,-493.4"/>
</g>
<!-- Node3 -->
<g id="node3" class="node">
<title>Node3</title>
<g id="a_node3"><a xlink:href="heap-consistency_8h.html" target="_top" xlink:title=" ">
<polygon fill="white" stroke="black" points="149.5,-369.5 149.5,-399.5 250.5,-399.5 250.5,-369.5 149.5,-369.5"/>
<text text-anchor="start" x="157.5" y="-387.5" font-family="Helvetica,sans-Serif" font-size="10.00">include/cppgc/heap</text>
<text text-anchor="middle" x="200" y="-376.5" font-family="Helvetica,sans-Serif" font-size="10.00">&#45;consistency.h</text>
</a>
</g>
</g>
<!-- Node2&#45;&gt;Node3 -->
<g id="edge2" class="edge">
<title>Node2&#45;&gt;Node3</title>
<path fill="none" stroke="midnightblue" d="M241.52,-429.02C232.28,-419.34 221.63,-408.17 213.43,-399.58"/>
<polygon fill="midnightblue" stroke="midnightblue" points="239.11,-431.58 248.55,-436.4 244.18,-426.74 239.11,-431.58"/>
</g>
<!-- Node4 -->
<g id="node4" class="node">
<title>Node4</title>
<g id="a_node4"><a xlink:href="pointer-policies_8h.html" target="_top" xlink:title=" ">
<polygon fill="white" stroke="black" points="268.5,-369.5 268.5,-399.5 379.5,-399.5 379.5,-369.5 268.5,-369.5"/>
<text text-anchor="start" x="276.5" y="-387.5" font-family="Helvetica,sans-Serif" font-size="10.00">include/cppgc/internal</text>
<text text-anchor="middle" x="324" y="-376.5" font-family="Helvetica,sans-Serif" font-size="10.00">/pointer&#45;policies.h</text>
</a>
</g>
</g>
<!-- Node2&#45;&gt;Node4 -->
<g id="edge3" class="edge">
<title>Node2&#45;&gt;Node4</title>
<path fill="none" stroke="midnightblue" d="M282.48,-429.02C291.72,-419.34 302.37,-408.17 310.57,-399.58"/>
<polygon fill="midnightblue" stroke="midnightblue" points="279.82,-426.74 275.45,-436.4 284.89,-431.58 279.82,-426.74"/>
</g>
<!-- Node5 -->
<g id="node5" class="node">
<title>Node5</title>
<g id="a_node5"><a xlink:href="cross-thread-persistent_8h.html" target="_top" xlink:title=" ">
<polygon fill="white" stroke="black" points="95,-0.5 95,-30.5 199,-30.5 199,-0.5 95,-0.5"/>
<text text-anchor="start" x="103" y="-18.5" font-family="Helvetica,sans-Serif" font-size="10.00">include/cppgc/cross</text>
<text text-anchor="middle" x="147" y="-7.5" font-family="Helvetica,sans-Serif" font-size="10.00">&#45;thread&#45;persistent.h</text>
</a>
</g>
</g>
<!-- Node4&#45;&gt;Node5 -->
<g id="edge4" class="edge">
<title>Node4&#45;&gt;Node5</title>
<path fill="none" stroke="midnightblue" d="M261.51,-366.72C167.36,-340.54 0,-290.12 0,-262.5 0,-262.5 0,-262.5 0,-132 0,-79.42 58.87,-47.14 102.1,-30.51"/>
<polygon fill="midnightblue" stroke="midnightblue" points="260.65,-370.11 271.22,-369.41 262.52,-363.37 260.65,-370.11"/>
</g>
<!-- Node6 -->
<g id="node6" class="node">
<title>Node6</title>
<g id="a_node6"><a xlink:href="member_8h.html" target="_top" xlink:title=" ">
<polygon fill="white" stroke="black" points="159,-313.5 159,-332.5 281,-332.5 281,-313.5 159,-313.5"/>
<text text-anchor="middle" x="220" y="-320.5" font-family="Helvetica,sans-Serif" font-size="10.00">include/cppgc/member.h</text>
</a>
</g>
</g>
<!-- Node4&#45;&gt;Node6 -->
<g id="edge5" class="edge">
<title>Node4&#45;&gt;Node6</title>
<path fill="none" stroke="midnightblue" d="M290.55,-364.36C271.9,-353.69 249.6,-340.93 235.13,-332.66"/>
<polygon fill="midnightblue" stroke="midnightblue" points="288.94,-367.47 299.35,-369.4 292.41,-361.4 288.94,-367.47"/>
</g>
<!-- Node8 -->
<g id="node8" class="node">
<title>Node8</title>
<g id="a_node8"><a xlink:href="visitor_8h.html" target="_top" xlink:title=" ">
<polygon fill="white" stroke="black" points="167.5,-123.5 167.5,-142.5 280.5,-142.5 280.5,-123.5 167.5,-123.5"/>
<text text-anchor="middle" x="224" y="-130.5" font-family="Helvetica,sans-Serif" font-size="10.00">include/cppgc/visitor.h</text>
</a>
</g>
</g>
<!-- Node4&#45;&gt;Node8 -->
<g id="edge18" class="edge">
<title>Node4&#45;&gt;Node8</title>
<path fill="none" stroke="midnightblue" d="M339.92,-360.9C366.28,-320.45 412.19,-234.68 371,-179 350.37,-151.11 312.78,-139.94 280.78,-135.7"/>
<polygon fill="midnightblue" stroke="midnightblue" points="336.97,-359.02 334.32,-369.27 342.79,-362.91 336.97,-359.02"/>
</g>
<!-- Node9 -->
<g id="node9" class="node">
<title>Node9</title>
<g id="a_node9"><a xlink:href="persistent_8h.html" target="_top" xlink:title=" ">
<polygon fill="white" stroke="black" points="291,-67.5 291,-86.5 421,-86.5 421,-67.5 291,-67.5"/>
<text text-anchor="middle" x="356" y="-74.5" font-family="Helvetica,sans-Serif" font-size="10.00">include/cppgc/persistent.h</text>
</a>
</g>
</g>
<!-- Node4&#45;&gt;Node9 -->
<g id="edge17" class="edge">
<title>Node4&#45;&gt;Node9</title>
<path fill="none" stroke="midnightblue" d="M365.51,-364.81C402.22,-345.12 450,-310.31 450,-262.5 450,-262.5 450,-262.5 450,-193.5 450,-143.86 397.12,-103.71 370.69,-86.74"/>
<polygon fill="midnightblue" stroke="midnightblue" points="363.73,-361.79 356.45,-369.49 366.94,-368.01 363.73,-361.79"/>
</g>
<!-- Node7 -->
<g id="node7" class="node">
<title>Node7</title>
<g id="a_node7"><a xlink:href="ephemeron-pair_8h.html" target="_top" xlink:title=" ">
<polygon fill="white" stroke="black" points="66,-179.5 66,-209.5 194,-209.5 194,-179.5 66,-179.5"/>
<text text-anchor="start" x="74" y="-197.5" font-family="Helvetica,sans-Serif" font-size="10.00">include/cppgc/ephemeron</text>
<text text-anchor="middle" x="130" y="-186.5" font-family="Helvetica,sans-Serif" font-size="10.00">&#45;pair.h</text>
</a>
</g>
</g>
<!-- Node6&#45;&gt;Node7 -->
<g id="edge6" class="edge">
<title>Node6&#45;&gt;Node7</title>
<path fill="none" stroke="midnightblue" d="M204.92,-305.84C197.41,-297.49 188.38,-286.98 181,-277 164.33,-254.45 147.58,-226.4 138.03,-209.78"/>
<polygon fill="midnightblue" stroke="midnightblue" points="202.48,-308.36 211.81,-313.37 207.64,-303.63 202.48,-308.36"/>
</g>
<!-- Node6&#45;&gt;Node8 -->
<g id="edge16" class="edge">
<title>Node6&#45;&gt;Node8</title>
<path fill="none" stroke="midnightblue" d="M184.79,-309.85C124.82,-287.26 13.41,-235.9 57,-179 70.51,-161.36 124.22,-149.08 167.13,-141.85"/>
<polygon fill="midnightblue" stroke="midnightblue" points="183.7,-313.18 194.29,-313.35 186.12,-306.61 183.7,-313.18"/>
</g>
<!-- Node11 -->
<g id="node11" class="node">
<title>Node11</title>
<g id="a_node11"><a xlink:href="liveness-broker_8h.html" target="_top" xlink:title=" ">
<polygon fill="white" stroke="black" points="190,-246.5 190,-276.5 306,-276.5 306,-246.5 190,-246.5"/>
<text text-anchor="start" x="198" y="-264.5" font-family="Helvetica,sans-Serif" font-size="10.00">include/cppgc/liveness</text>
<text text-anchor="middle" x="248" y="-253.5" font-family="Helvetica,sans-Serif" font-size="10.00">&#45;broker.h</text>
</a>
</g>
</g>
<!-- Node6&#45;&gt;Node11 -->
<g id="edge12" class="edge">
<title>Node6&#45;&gt;Node11</title>
<path fill="none" stroke="midnightblue" d="M228.29,-304.39C232.47,-295.5 237.48,-284.86 241.4,-276.52"/>
<polygon fill="midnightblue" stroke="midnightblue" points="225.1,-302.94 224.01,-313.48 231.44,-305.92 225.1,-302.94"/>
</g>
<!-- Node7&#45;&gt;Node8 -->
<g id="edge7" class="edge">
<title>Node7&#45;&gt;Node8</title>
<path fill="none" stroke="midnightblue" d="M161.16,-173.78C177.82,-163.23 197.49,-150.78 210.32,-142.66"/>
<polygon fill="midnightblue" stroke="midnightblue" points="158.85,-171.09 152.28,-179.4 162.6,-177.01 158.85,-171.09"/>
</g>
<!-- Node8&#45;&gt;Node5 -->
<g id="edge8" class="edge">
<title>Node8&#45;&gt;Node5</title>
<path fill="none" stroke="midnightblue" d="M199.32,-118.08C187.64,-110.33 174.44,-99.68 166,-87 154.48,-69.69 149.93,-45.63 148.14,-30.57"/>
<polygon fill="midnightblue" stroke="midnightblue" points="197.52,-121.08 207.85,-123.43 201.24,-115.15 197.52,-121.08"/>
</g>
<!-- Node8&#45;&gt;Node9 -->
<g id="edge9" class="edge">
<title>Node8&#45;&gt;Node9</title>
<path fill="none" stroke="midnightblue" d="M254.22,-119.64C278.99,-109.5 313.4,-95.43 335.18,-86.52"/>
<polygon fill="midnightblue" stroke="midnightblue" points="252.85,-116.42 244.92,-123.44 255.5,-122.9 252.85,-116.42"/>
</g>
<!-- Node10 -->
<g id="node10" class="node">
<title>Node10</title>
<g id="a_node10"><a xlink:href="v8-cppgc_8h.html" target="_top" xlink:title=" ">
<polygon fill="white" stroke="black" points="175,-67.5 175,-86.5 273,-86.5 273,-67.5 175,-67.5"/>
<text text-anchor="middle" x="224" y="-74.5" font-family="Helvetica,sans-Serif" font-size="10.00">include/v8&#45;cppgc.h</text>
</a>
</g>
</g>
<!-- Node8&#45;&gt;Node10 -->
<g id="edge11" class="edge">
<title>Node8&#45;&gt;Node10</title>
<path fill="none" stroke="midnightblue" d="M224,-112.8C224,-103.91 224,-93.78 224,-86.75"/>
<polygon fill="midnightblue" stroke="midnightblue" points="220.5,-113.08 224,-123.08 227.5,-113.08 220.5,-113.08"/>
</g>
<!-- Node9&#45;&gt;Node5 -->
<g id="edge10" class="edge">
<title>Node9&#45;&gt;Node5</title>
<path fill="none" stroke="midnightblue" d="M316.43,-64.73C282.32,-55.02 232.92,-40.96 196.26,-30.52"/>
<polygon fill="midnightblue" stroke="midnightblue" points="315.48,-68.1 326.06,-67.48 317.4,-61.37 315.48,-68.1"/>
</g>
<!-- Node11&#45;&gt;Node7 -->
<g id="edge13" class="edge">
<title>Node11&#45;&gt;Node7</title>
<path fill="none" stroke="midnightblue" d="M213.39,-241.44C194.88,-231.24 172.48,-218.9 155.55,-209.58"/>
<polygon fill="midnightblue" stroke="midnightblue" points="211.95,-244.64 222.4,-246.4 215.33,-238.51 211.95,-244.64"/>
</g>
<!-- Node11&#45;&gt;Node8 -->
<g id="edge15" class="edge">
<title>Node11&#45;&gt;Node8</title>
<path fill="none" stroke="midnightblue" d="M315.48,-242.48C331.06,-235.02 345.76,-224.58 355,-210 362.38,-198.36 363,-190.21 355,-179 338.09,-155.32 307.9,-143.97 280.76,-138.59"/>
<polygon fill="midnightblue" stroke="midnightblue" points="313.99,-239.31 306.24,-246.54 316.81,-245.72 313.99,-239.31"/>
</g>
<!-- Node12 -->
<g id="node12" class="node">
<title>Node12</title>
<g id="a_node12"><a xlink:href="prefinalizer_8h.html" target="_top" xlink:title=" ">
<polygon fill="white" stroke="black" points="212.5,-185 212.5,-204 345.5,-204 345.5,-185 212.5,-185"/>
<text text-anchor="middle" x="279" y="-192" font-family="Helvetica,sans-Serif" font-size="10.00">include/cppgc/prefinalizer.h</text>
</a>
</g>
</g>
<!-- Node11&#45;&gt;Node12 -->
<g id="edge14" class="edge">
<title>Node11&#45;&gt;Node12</title>
<path fill="none" stroke="midnightblue" d="M259.07,-237.29C264.55,-225.8 270.83,-212.63 274.85,-204.19"/>
<polygon fill="midnightblue" stroke="midnightblue" points="255.87,-235.86 254.73,-246.4 262.19,-238.88 255.87,-235.86"/>
</g>
</g>
</svg>
