<?xml version="1.0" encoding="UTF-8" standalone="no"?>
<!DOCTYPE svg PUBLIC "-//W3C//DTD SVG 1.1//EN"
 "http://www.w3.org/Graphics/SVG/1.1/DTD/svg11.dtd">
<!-- Generated by graphviz version 2.49.3 (20211027.1534)
 -->
<!-- Title: include/cppgc/source&#45;location.h Pages: 1 -->
<svg width="980pt" height="609pt"
 viewBox="0.00 0.00 979.50 609.00" xmlns="http://www.w3.org/2000/svg" xmlns:xlink="http://www.w3.org/1999/xlink">
<g id="graph0" class="graph" transform="scale(1 1) rotate(0) translate(4 605)">
<title>include/cppgc/source&#45;location.h</title>
<polygon fill="white" stroke="transparent" points="-4,4 -4,-605 975.5,-605 975.5,4 -4,4"/>
<!-- Node1 -->
<g id="node1" class="node">
<title>Node1</title>
<g id="a_node1"><a xlink:title=" ">
<polygon fill="#bfbfbf" stroke="black" points="427,-570.5 427,-600.5 536,-600.5 536,-570.5 427,-570.5"/>
<text text-anchor="start" x="435" y="-588.5" font-family="Helvetica,sans-Serif" font-size="10.00">include/cppgc/source</text>
<text text-anchor="middle" x="481.5" y="-577.5" font-family="Helvetica,sans-Serif" font-size="10.00">&#45;location.h</text>
</a>
</g>
</g>
<!-- Node2 -->
<g id="node2" class="node">
<title>Node2</title>
<g id="a_node2"><a xlink:href="logging_8h.html" target="_top" xlink:title=" ">
<polygon fill="white" stroke="black" points="230,-190.5 230,-220.5 341,-220.5 341,-190.5 230,-190.5"/>
<text text-anchor="start" x="238" y="-208.5" font-family="Helvetica,sans-Serif" font-size="10.00">include/cppgc/internal</text>
<text text-anchor="middle" x="285.5" y="-197.5" font-family="Helvetica,sans-Serif" font-size="10.00">/logging.h</text>
</a>
</g>
</g>
<!-- Node1&#45;&gt;Node2 -->
<g id="edge1" class="edge">
<title>Node1&#45;&gt;Node2</title>
<path fill="none" stroke="midnightblue" d="M416.7,-577.94C383.49,-571.54 344.47,-558.91 317.5,-534 292.73,-511.12 289.5,-497.21 289.5,-463.5 289.5,-463.5 289.5,-463.5 289.5,-333 289.5,-292.13 287.39,-243.87 286.23,-220.53"/>
<polygon fill="midnightblue" stroke="midnightblue" points="416.34,-581.43 426.8,-579.74 417.56,-574.54 416.34,-581.43"/>
</g>
<!-- Node7 -->
<g id="node7" class="node">
<title>Node7</title>
<g id="a_node7"><a xlink:href="persistent_8h.html" target="_top" xlink:title=" ">
<polygon fill="white" stroke="black" points="380.5,-67.5 380.5,-86.5 510.5,-86.5 510.5,-67.5 380.5,-67.5"/>
<text text-anchor="middle" x="445.5" y="-74.5" font-family="Helvetica,sans-Serif" font-size="10.00">include/cppgc/persistent.h</text>
</a>
</g>
</g>
<!-- Node1&#45;&gt;Node7 -->
<g id="edge24" class="edge">
<title>Node1&#45;&gt;Node7</title>
<path fill="none" stroke="midnightblue" d="M428.8,-566.62C385.58,-548.23 331.5,-514.93 331.5,-463.5 331.5,-463.5 331.5,-463.5 331.5,-333 331.5,-227.77 413.41,-117.71 438.37,-86.62"/>
<polygon fill="midnightblue" stroke="midnightblue" points="427.53,-569.88 438.11,-570.43 430.18,-563.4 427.53,-569.88"/>
</g>
<!-- Node8 -->
<g id="node8" class="node">
<title>Node8</title>
<g id="a_node8"><a xlink:href="visitor_8h.html" target="_top" xlink:title=" ">
<polygon fill="white" stroke="black" points="617,-129 617,-148 730,-148 730,-129 617,-129"/>
<text text-anchor="middle" x="673.5" y="-136" font-family="Helvetica,sans-Serif" font-size="10.00">include/cppgc/visitor.h</text>
</a>
</g>
</g>
<!-- Node1&#45;&gt;Node8 -->
<g id="edge35" class="edge">
<title>Node1&#45;&gt;Node8</title>
<path fill="none" stroke="midnightblue" d="M546.36,-582C679.56,-575.09 971.5,-550.07 971.5,-463.5 971.5,-463.5 971.5,-463.5 971.5,-333 971.5,-257.67 941.74,-233.87 880.5,-190 836.3,-158.33 774.6,-146.38 730.08,-141.95"/>
<polygon fill="midnightblue" stroke="midnightblue" points="546.1,-578.51 536.28,-582.5 546.45,-585.5 546.1,-578.51"/>
</g>
<!-- Node10 -->
<g id="node10" class="node">
<title>Node10</title>
<g id="a_node10"><a xlink:href="pointer-policies_8h.html" target="_top" xlink:title=" ">
<polygon fill="white" stroke="black" points="718,-380.5 718,-410.5 829,-410.5 829,-380.5 718,-380.5"/>
<text text-anchor="start" x="726" y="-398.5" font-family="Helvetica,sans-Serif" font-size="10.00">include/cppgc/internal</text>
<text text-anchor="middle" x="773.5" y="-387.5" font-family="Helvetica,sans-Serif" font-size="10.00">/pointer&#45;policies.h</text>
</a>
</g>
</g>
<!-- Node1&#45;&gt;Node10 -->
<g id="edge12" class="edge">
<title>Node1&#45;&gt;Node10</title>
<path fill="none" stroke="midnightblue" d="M546.33,-577.13C609.51,-566.41 703.56,-540.41 756.5,-478 772.68,-458.93 774.75,-428.42 774.4,-410.63"/>
<polygon fill="midnightblue" stroke="midnightblue" points="545.4,-573.73 536.08,-578.78 546.51,-580.64 545.4,-573.73"/>
</g>
<!-- Node15 -->
<g id="node15" class="node">
<title>Node15</title>
<g id="a_node15"><a xlink:href="platform_8h.html" target="_top" xlink:title=" ">
<polygon fill="white" stroke="black" points="420.5,-514.5 420.5,-533.5 542.5,-533.5 542.5,-514.5 420.5,-514.5"/>
<text text-anchor="middle" x="481.5" y="-521.5" font-family="Helvetica,sans-Serif" font-size="10.00">include/cppgc/platform.h</text>
</a>
</g>
</g>
<!-- Node1&#45;&gt;Node15 -->
<g id="edge25" class="edge">
<title>Node1&#45;&gt;Node15</title>
<path fill="none" stroke="midnightblue" d="M481.5,-560.29C481.5,-550.86 481.5,-540.65 481.5,-533.66"/>
<polygon fill="midnightblue" stroke="midnightblue" points="478,-560.4 481.5,-570.4 485,-560.4 478,-560.4"/>
</g>
<!-- Node3 -->
<g id="node3" class="node">
<title>Node3</title>
<g id="a_node3"><a xlink:href="explicit-management_8h.html" target="_top" xlink:title=" ">
<polygon fill="white" stroke="black" points="129.5,-123.5 129.5,-153.5 239.5,-153.5 239.5,-123.5 129.5,-123.5"/>
<text text-anchor="start" x="137.5" y="-141.5" font-family="Helvetica,sans-Serif" font-size="10.00">include/cppgc/explicit</text>
<text text-anchor="middle" x="184.5" y="-130.5" font-family="Helvetica,sans-Serif" font-size="10.00">&#45;management.h</text>
</a>
</g>
</g>
<!-- Node2&#45;&gt;Node3 -->
<g id="edge2" class="edge">
<title>Node2&#45;&gt;Node3</title>
<path fill="none" stroke="midnightblue" d="M254.79,-184.73C239.16,-174.68 220.53,-162.68 206.37,-153.58"/>
<polygon fill="midnightblue" stroke="midnightblue" points="253.28,-187.93 263.58,-190.4 257.07,-182.04 253.28,-187.93"/>
</g>
<!-- Node4 -->
<g id="node4" class="node">
<title>Node4</title>
<g id="a_node4"><a xlink:href="caged-heap-local-data_8h.html" target="_top" xlink:title=" ">
<polygon fill="white" stroke="black" points="257.5,-123.5 257.5,-153.5 379.5,-153.5 379.5,-123.5 257.5,-123.5"/>
<text text-anchor="start" x="265.5" y="-141.5" font-family="Helvetica,sans-Serif" font-size="10.00">include/cppgc/internal</text>
<text text-anchor="middle" x="318.5" y="-130.5" font-family="Helvetica,sans-Serif" font-size="10.00">/caged&#45;heap&#45;local&#45;data.h</text>
</a>
</g>
</g>
<!-- Node2&#45;&gt;Node4 -->
<g id="edge3" class="edge">
<title>Node2&#45;&gt;Node4</title>
<path fill="none" stroke="midnightblue" d="M297.29,-181.28C301.99,-172.02 307.25,-161.66 311.35,-153.58"/>
<polygon fill="midnightblue" stroke="midnightblue" points="294.07,-179.89 292.66,-190.4 300.31,-183.06 294.07,-179.89"/>
</g>
<!-- Node5 -->
<g id="node5" class="node">
<title>Node5</title>
<g id="a_node5"><a xlink:href="persistent-node_8h.html" target="_top" xlink:title=" ">
<polygon fill="white" stroke="black" points="0,-123.5 0,-153.5 111,-153.5 111,-123.5 0,-123.5"/>
<text text-anchor="start" x="8" y="-141.5" font-family="Helvetica,sans-Serif" font-size="10.00">include/cppgc/internal</text>
<text text-anchor="middle" x="55.5" y="-130.5" font-family="Helvetica,sans-Serif" font-size="10.00">/persistent&#45;node.h</text>
</a>
</g>
</g>
<!-- Node2&#45;&gt;Node5 -->
<g id="edge4" class="edge">
<title>Node2&#45;&gt;Node5</title>
<path fill="none" stroke="midnightblue" d="M226.11,-187.71C188.68,-177.14 140.9,-163.63 105.43,-153.61"/>
<polygon fill="midnightblue" stroke="midnightblue" points="225.3,-191.12 235.88,-190.48 227.21,-184.39 225.3,-191.12"/>
</g>
<!-- Node2&#45;&gt;Node8 -->
<g id="edge8" class="edge">
<title>Node2&#45;&gt;Node8</title>
<path fill="none" stroke="midnightblue" d="M351.11,-193.51C427.78,-180.67 552.98,-159.69 622.65,-148.02"/>
<polygon fill="midnightblue" stroke="midnightblue" points="350.38,-190.08 341.09,-195.19 351.53,-196.99 350.38,-190.08"/>
</g>
<!-- Node6 -->
<g id="node6" class="node">
<title>Node6</title>
<g id="a_node6"><a xlink:href="cross-thread-persistent_8h.html" target="_top" xlink:title=" ">
<polygon fill="white" stroke="black" points="454.5,-0.5 454.5,-30.5 558.5,-30.5 558.5,-0.5 454.5,-0.5"/>
<text text-anchor="start" x="462.5" y="-18.5" font-family="Helvetica,sans-Serif" font-size="10.00">include/cppgc/cross</text>
<text text-anchor="middle" x="506.5" y="-7.5" font-family="Helvetica,sans-Serif" font-size="10.00">&#45;thread&#45;persistent.h</text>
</a>
</g>
</g>
<!-- Node5&#45;&gt;Node6 -->
<g id="edge5" class="edge">
<title>Node5&#45;&gt;Node6</title>
<path fill="none" stroke="midnightblue" d="M117.87,-120.77C207.38,-96.75 370.67,-52.94 454.22,-30.53"/>
<polygon fill="midnightblue" stroke="midnightblue" points="116.87,-117.41 108.12,-123.38 118.68,-124.17 116.87,-117.41"/>
</g>
<!-- Node5&#45;&gt;Node7 -->
<g id="edge6" class="edge">
<title>Node5&#45;&gt;Node7</title>
<path fill="none" stroke="midnightblue" d="M120.98,-123.01C216.94,-105.95 316.58,-93.06 380.2,-85.45"/>
<polygon fill="midnightblue" stroke="midnightblue" points="120.33,-119.57 111.11,-124.78 121.57,-126.46 120.33,-119.57"/>
</g>
<!-- Node7&#45;&gt;Node6 -->
<g id="edge7" class="edge">
<title>Node7&#45;&gt;Node6</title>
<path fill="none" stroke="midnightblue" d="M461.53,-60.37C471.01,-51.11 482.94,-39.48 492.12,-30.52"/>
<polygon fill="midnightblue" stroke="midnightblue" points="458.95,-57.99 454.24,-67.48 463.84,-63 458.95,-57.99"/>
</g>
<!-- Node8&#45;&gt;Node6 -->
<g id="edge9" class="edge">
<title>Node8&#45;&gt;Node6</title>
<path fill="none" stroke="midnightblue" d="M653.52,-123.02C621.22,-99.62 557.92,-53.76 525.96,-30.6"/>
<polygon fill="midnightblue" stroke="midnightblue" points="651.61,-125.96 661.76,-128.99 655.71,-120.29 651.61,-125.96"/>
</g>
<!-- Node8&#45;&gt;Node7 -->
<g id="edge10" class="edge">
<title>Node8&#45;&gt;Node7</title>
<path fill="none" stroke="midnightblue" d="M630.95,-126.4C586.67,-114.84 518.29,-97 478.11,-86.51"/>
<polygon fill="midnightblue" stroke="midnightblue" points="630.27,-129.84 640.83,-128.98 632.04,-123.06 630.27,-129.84"/>
</g>
<!-- Node9 -->
<g id="node9" class="node">
<title>Node9</title>
<g id="a_node9"><a xlink:href="v8-cppgc_8h.html" target="_top" xlink:title=" ">
<polygon fill="white" stroke="black" points="624.5,-67.5 624.5,-86.5 722.5,-86.5 722.5,-67.5 624.5,-67.5"/>
<text text-anchor="middle" x="673.5" y="-74.5" font-family="Helvetica,sans-Serif" font-size="10.00">include/v8&#45;cppgc.h</text>
</a>
</g>
</g>
<!-- Node8&#45;&gt;Node9 -->
<g id="edge11" class="edge">
<title>Node8&#45;&gt;Node9</title>
<path fill="none" stroke="midnightblue" d="M673.5,-118.82C673.5,-108 673.5,-94.9 673.5,-86.51"/>
<polygon fill="midnightblue" stroke="midnightblue" points="670,-118.98 673.5,-128.98 677,-118.98 670,-118.98"/>
</g>
<!-- Node10&#45;&gt;Node6 -->
<g id="edge13" class="edge">
<title>Node10&#45;&gt;Node6</title>
<path fill="none" stroke="midnightblue" d="M815.33,-375.56C830.23,-367.38 846.32,-356.74 858.5,-344 906.29,-294.04 913.63,-250.68 880.5,-190 839.35,-114.63 808.62,-104.77 731.5,-67 676.13,-39.88 605.96,-27.12 558.82,-21.25"/>
<polygon fill="midnightblue" stroke="midnightblue" points="813.48,-372.58 806.26,-380.33 816.74,-378.78 813.48,-372.58"/>
</g>
<!-- Node10&#45;&gt;Node7 -->
<g id="edge22" class="edge">
<title>Node10&#45;&gt;Node7</title>
<path fill="none" stroke="midnightblue" d="M707.61,-393.35C662.1,-389.35 602.59,-377.37 561.5,-344 528.32,-317.05 539.17,-295.45 520.5,-257 512.69,-240.91 509.82,-237.32 502.5,-221 480.09,-171.01 457.02,-109.38 448.72,-86.81"/>
<polygon fill="midnightblue" stroke="midnightblue" points="707.44,-396.85 717.68,-394.13 707.98,-389.87 707.44,-396.85"/>
</g>
<!-- Node10&#45;&gt;Node8 -->
<g id="edge23" class="edge">
<title>Node10&#45;&gt;Node8</title>
<path fill="none" stroke="midnightblue" d="M808.55,-374.72C819.84,-366.64 831.28,-356.27 838.5,-344 873.47,-284.56 899.32,-244.84 857.5,-190 841.98,-169.65 778.18,-155.47 730.02,-147.42"/>
<polygon fill="midnightblue" stroke="midnightblue" points="806.37,-371.97 800.03,-380.46 810.28,-377.78 806.37,-371.97"/>
</g>
<!-- Node11 -->
<g id="node11" class="node">
<title>Node11</title>
<g id="a_node11"><a xlink:href="member_8h.html" target="_top" xlink:title=" ">
<polygon fill="white" stroke="black" points="707.5,-324.5 707.5,-343.5 829.5,-343.5 829.5,-324.5 707.5,-324.5"/>
<text text-anchor="middle" x="768.5" y="-331.5" font-family="Helvetica,sans-Serif" font-size="10.00">include/cppgc/member.h</text>
</a>
</g>
</g>
<!-- Node10&#45;&gt;Node11 -->
<g id="edge14" class="edge">
<title>Node10&#45;&gt;Node11</title>
<path fill="none" stroke="midnightblue" d="M771.47,-370.29C770.67,-360.86 769.82,-350.65 769.23,-343.66"/>
<polygon fill="midnightblue" stroke="midnightblue" points="767.99,-370.73 772.32,-380.4 774.97,-370.14 767.99,-370.73"/>
</g>
<!-- Node11&#45;&gt;Node8 -->
<g id="edge21" class="edge">
<title>Node11&#45;&gt;Node8</title>
<path fill="none" stroke="midnightblue" d="M786.66,-317.46C816.49,-290.06 869.6,-232.05 838.5,-190 813.83,-156.64 767.55,-144.6 730.28,-140.57"/>
<polygon fill="midnightblue" stroke="midnightblue" points="784.08,-315.07 778.95,-324.34 788.74,-320.3 784.08,-315.07"/>
</g>
<!-- Node12 -->
<g id="node12" class="node">
<title>Node12</title>
<g id="a_node12"><a xlink:href="ephemeron-pair_8h.html" target="_top" xlink:title=" ">
<polygon fill="white" stroke="black" points="701.5,-190.5 701.5,-220.5 829.5,-220.5 829.5,-190.5 701.5,-190.5"/>
<text text-anchor="start" x="709.5" y="-208.5" font-family="Helvetica,sans-Serif" font-size="10.00">include/cppgc/ephemeron</text>
<text text-anchor="middle" x="765.5" y="-197.5" font-family="Helvetica,sans-Serif" font-size="10.00">&#45;pair.h</text>
</a>
</g>
</g>
<!-- Node11&#45;&gt;Node12 -->
<g id="edge15" class="edge">
<title>Node11&#45;&gt;Node12</title>
<path fill="none" stroke="midnightblue" d="M768.05,-314.11C767.45,-288.63 766.38,-243.81 765.84,-220.89"/>
<polygon fill="midnightblue" stroke="midnightblue" points="764.56,-314.39 768.29,-324.31 771.56,-314.22 764.56,-314.39"/>
</g>
<!-- Node13 -->
<g id="node13" class="node">
<title>Node13</title>
<g id="a_node13"><a xlink:href="liveness-broker_8h.html" target="_top" xlink:title=" ">
<polygon fill="white" stroke="black" points="615.5,-257.5 615.5,-287.5 731.5,-287.5 731.5,-257.5 615.5,-257.5"/>
<text text-anchor="start" x="623.5" y="-275.5" font-family="Helvetica,sans-Serif" font-size="10.00">include/cppgc/liveness</text>
<text text-anchor="middle" x="673.5" y="-264.5" font-family="Helvetica,sans-Serif" font-size="10.00">&#45;broker.h</text>
</a>
</g>
</g>
<!-- Node11&#45;&gt;Node13 -->
<g id="edge17" class="edge">
<title>Node11&#45;&gt;Node13</title>
<path fill="none" stroke="midnightblue" d="M746.16,-319.01C731.01,-309.52 711.05,-297.02 695.89,-287.52"/>
<polygon fill="midnightblue" stroke="midnightblue" points="744.56,-322.13 754.89,-324.48 748.27,-316.2 744.56,-322.13"/>
</g>
<!-- Node12&#45;&gt;Node8 -->
<g id="edge16" class="edge">
<title>Node12&#45;&gt;Node8</title>
<path fill="none" stroke="midnightblue" d="M736.92,-184.31C719.64,-172.1 698.52,-157.18 685.54,-148.01"/>
<polygon fill="midnightblue" stroke="midnightblue" points="735.35,-187.48 745.54,-190.4 739.39,-181.77 735.35,-187.48"/>
</g>
<!-- Node13&#45;&gt;Node8 -->
<g id="edge20" class="edge">
<title>Node13&#45;&gt;Node8</title>
<path fill="none" stroke="midnightblue" d="M673.5,-247.32C673.5,-217.38 673.5,-167.91 673.5,-148.1"/>
<polygon fill="midnightblue" stroke="midnightblue" points="670,-247.37 673.5,-257.37 677,-247.37 670,-247.37"/>
</g>
<!-- Node13&#45;&gt;Node12 -->
<g id="edge18" class="edge">
<title>Node13&#45;&gt;Node12</title>
<path fill="none" stroke="midnightblue" d="M701.88,-251.45C716.03,-241.45 732.81,-229.6 745.58,-220.58"/>
<polygon fill="midnightblue" stroke="midnightblue" points="699.61,-248.77 693.46,-257.4 703.65,-254.48 699.61,-248.77"/>
</g>
<!-- Node14 -->
<g id="node14" class="node">
<title>Node14</title>
<g id="a_node14"><a xlink:href="prefinalizer_8h.html" target="_top" xlink:title=" ">
<polygon fill="white" stroke="black" points="512,-196 512,-215 645,-215 645,-196 512,-196"/>
<text text-anchor="middle" x="578.5" y="-203" font-family="Helvetica,sans-Serif" font-size="10.00">include/cppgc/prefinalizer.h</text>
</a>
</g>
</g>
<!-- Node13&#45;&gt;Node14 -->
<g id="edge19" class="edge">
<title>Node13&#45;&gt;Node14</title>
<path fill="none" stroke="midnightblue" d="M644.48,-251.64C626.55,-239.37 604.46,-224.26 590.93,-215.01"/>
<polygon fill="midnightblue" stroke="midnightblue" points="642.66,-254.64 652.89,-257.4 646.61,-248.86 642.66,-254.64"/>
</g>
<!-- Node15&#45;&gt;Node4 -->
<g id="edge31" class="edge">
<title>Node15&#45;&gt;Node4</title>
<path fill="none" stroke="midnightblue" d="M456.27,-509.24C423.24,-489.17 369.5,-448.52 369.5,-396.5 369.5,-396.5 369.5,-396.5 369.5,-271.5 369.5,-234.2 363.87,-224.42 349.5,-190 344.11,-177.09 335.7,-163.64 328.99,-153.88"/>
<polygon fill="midnightblue" stroke="midnightblue" points="454.58,-512.31 464.97,-514.35 458.12,-506.27 454.58,-512.31"/>
</g>
<!-- Node16 -->
<g id="node16" class="node">
<title>Node16</title>
<g id="a_node16"><a xlink:href="default-platform_8h.html" target="_top" xlink:title=" ">
<polygon fill="white" stroke="black" points="639,-447.5 639,-477.5 748,-477.5 748,-447.5 639,-447.5"/>
<text text-anchor="start" x="647" y="-465.5" font-family="Helvetica,sans-Serif" font-size="10.00">include/cppgc/default</text>
<text text-anchor="middle" x="693.5" y="-454.5" font-family="Helvetica,sans-Serif" font-size="10.00">&#45;platform.h</text>
</a>
</g>
</g>
<!-- Node15&#45;&gt;Node16 -->
<g id="edge26" class="edge">
<title>Node15&#45;&gt;Node16</title>
<path fill="none" stroke="midnightblue" d="M521.64,-511.73C556.24,-502.02 606.35,-487.96 643.54,-477.52"/>
<polygon fill="midnightblue" stroke="midnightblue" points="520.56,-508.4 511.87,-514.48 522.45,-515.14 520.56,-508.4"/>
</g>
<!-- Node17 -->
<g id="node17" class="node">
<title>Node17</title>
<g id="a_node17"><a xlink:href="garbage-collected_8h.html" target="_top" xlink:title=" ">
<polygon fill="white" stroke="black" points="397.5,-257.5 397.5,-287.5 511.5,-287.5 511.5,-257.5 397.5,-257.5"/>
<text text-anchor="start" x="405.5" y="-275.5" font-family="Helvetica,sans-Serif" font-size="10.00">include/cppgc/garbage</text>
<text text-anchor="middle" x="454.5" y="-264.5" font-family="Helvetica,sans-Serif" font-size="10.00">&#45;collected.h</text>
</a>
</g>
</g>
<!-- Node15&#45;&gt;Node17 -->
<g id="edge27" class="edge">
<title>Node15&#45;&gt;Node17</title>
<path fill="none" stroke="midnightblue" d="M478.38,-504.51C477.07,-496.39 475.61,-486.74 474.5,-478 465.5,-406.87 458.3,-321.37 455.63,-287.91"/>
<polygon fill="midnightblue" stroke="midnightblue" points="474.93,-505.1 480.01,-514.39 481.84,-503.96 474.93,-505.1"/>
</g>
<!-- Node18 -->
<g id="node18" class="node">
<title>Node18</title>
<g id="a_node18"><a xlink:href="heap_8h.html" target="_top" xlink:title=" ">
<polygon fill="white" stroke="black" points="570.5,-324.5 570.5,-343.5 678.5,-343.5 678.5,-324.5 570.5,-324.5"/>
<text text-anchor="middle" x="624.5" y="-331.5" font-family="Helvetica,sans-Serif" font-size="10.00">include/cppgc/heap.h</text>
</a>
</g>
</g>
<!-- Node15&#45;&gt;Node18 -->
<g id="edge29" class="edge">
<title>Node15&#45;&gt;Node18</title>
<path fill="none" stroke="midnightblue" d="M479.17,-504.17C476.56,-474.33 476.01,-415.89 505.5,-380 521.55,-360.46 547.05,-349.4 570.34,-343.14"/>
<polygon fill="midnightblue" stroke="midnightblue" points="475.72,-504.84 480.25,-514.42 482.68,-504.11 475.72,-504.84"/>
</g>
<!-- Node19 -->
<g id="node19" class="node">
<title>Node19</title>
<g id="a_node19"><a xlink:href="write-barrier_8h.html" target="_top" xlink:title=" ">
<polygon fill="white" stroke="black" points="510,-447.5 510,-477.5 621,-477.5 621,-447.5 510,-447.5"/>
<text text-anchor="start" x="518" y="-465.5" font-family="Helvetica,sans-Serif" font-size="10.00">include/cppgc/internal</text>
<text text-anchor="middle" x="565.5" y="-454.5" font-family="Helvetica,sans-Serif" font-size="10.00">/write&#45;barrier.h</text>
</a>
</g>
</g>
<!-- Node15&#45;&gt;Node19 -->
<g id="edge32" class="edge">
<title>Node15&#45;&gt;Node19</title>
<path fill="none" stroke="midnightblue" d="M502.02,-508.47C515.32,-499.05 532.55,-486.84 545.7,-477.52"/>
<polygon fill="midnightblue" stroke="midnightblue" points="499.67,-505.84 493.54,-514.48 503.72,-511.55 499.67,-505.84"/>
</g>
<!-- Node17&#45;&gt;Node8 -->
<g id="edge28" class="edge">
<title>Node17&#45;&gt;Node8</title>
<path fill="none" stroke="midnightblue" d="M462.75,-248.08C470.35,-229.74 483.39,-204.92 502.5,-190 535.32,-164.38 580.85,-151.74 616.68,-145.52"/>
<polygon fill="midnightblue" stroke="midnightblue" points="459.45,-246.91 459.07,-257.5 465.97,-249.45 459.45,-246.91"/>
</g>
<!-- Node18&#45;&gt;Node13 -->
<g id="edge30" class="edge">
<title>Node18&#45;&gt;Node13</title>
<path fill="none" stroke="midnightblue" d="M638.06,-316.53C645.57,-307.42 654.79,-296.21 661.95,-287.52"/>
<polygon fill="midnightblue" stroke="midnightblue" points="635.18,-314.53 631.52,-324.48 640.58,-318.98 635.18,-314.53"/>
</g>
<!-- Node19&#45;&gt;Node10 -->
<g id="edge34" class="edge">
<title>Node19&#45;&gt;Node10</title>
<path fill="none" stroke="midnightblue" d="M620.08,-444.44C653.8,-433.91 696.54,-420.55 728.35,-410.61"/>
<polygon fill="midnightblue" stroke="midnightblue" points="618.88,-441.15 610.38,-447.48 620.97,-447.83 618.88,-441.15"/>
</g>
<!-- Node20 -->
<g id="node20" class="node">
<title>Node20</title>
<g id="a_node20"><a xlink:href="heap-consistency_8h.html" target="_top" xlink:title=" ">
<polygon fill="white" stroke="black" points="515,-380.5 515,-410.5 616,-410.5 616,-380.5 515,-380.5"/>
<text text-anchor="start" x="523" y="-398.5" font-family="Helvetica,sans-Serif" font-size="10.00">include/cppgc/heap</text>
<text text-anchor="middle" x="565.5" y="-387.5" font-family="Helvetica,sans-Serif" font-size="10.00">&#45;consistency.h</text>
</a>
</g>
</g>
<!-- Node19&#45;&gt;Node20 -->
<g id="edge33" class="edge">
<title>Node19&#45;&gt;Node20</title>
<path fill="none" stroke="midnightblue" d="M565.5,-437.11C565.5,-428.15 565.5,-418.32 565.5,-410.58"/>
<polygon fill="midnightblue" stroke="midnightblue" points="562,-437.4 565.5,-447.4 569,-437.4 562,-437.4"/>
</g>
</g>
</svg>
