<?xml version="1.0" encoding="UTF-8" standalone="no"?>
<!DOCTYPE svg PUBLIC "-//W3C//DTD SVG 1.1//EN"
 "http://www.w3.org/Graphics/SVG/1.1/DTD/svg11.dtd">
<!-- Generated by graphviz version 2.49.3 (20211027.1534)
 -->
<!-- Title: v8::internal::CallbackData Pages: 1 -->
<svg width="686pt" height="93pt"
 viewBox="0.00 0.00 686.00 92.67" xmlns="http://www.w3.org/2000/svg" xmlns:xlink="http://www.w3.org/1999/xlink">
<g id="graph0" class="graph" transform="scale(1 1) rotate(0) translate(4 88.67)">
<title>v8::internal::CallbackData</title>
<polygon fill="white" stroke="transparent" points="-4,4 -4,-88.67 682,-88.67 682,4 -4,4"/>
<!-- Node1 -->
<g id="node1" class="node">
<title>Node1</title>
<g id="a_node1"><a xlink:title=" ">
<polygon fill="#bfbfbf" stroke="black" points="0,-44.5 0,-63.5 125,-63.5 125,-44.5 0,-44.5"/>
<text text-anchor="middle" x="62.5" y="-51.5" font-family="Helvetica,sans-Serif" font-size="10.00">v8::internal::CallbackData</text>
</a>
</g>
</g>
<!-- Node2 -->
<g id="node2" class="node">
<title>Node2</title>
<g id="a_node2"><a xlink:href="classv8_1_1PhantomCallbackData.html" target="_top" xlink:title=" ">
<polygon fill="white" stroke="black" points="375,-44.5 375,-63.5 527,-63.5 527,-44.5 375,-44.5"/>
<text text-anchor="middle" x="451" y="-51.5" font-family="Helvetica,sans-Serif" font-size="10.00">v8::PhantomCallbackData&lt; P &gt;</text>
</a>
</g>
</g>
<!-- Node1&#45;&gt;Node2 -->
<g id="edge1" class="edge">
<title>Node1&#45;&gt;Node2</title>
<path fill="none" stroke="midnightblue" d="M103.32,-66.5C121.08,-71.46 142.39,-76.55 162,-79 228.59,-87.32 246.16,-85.05 313,-79 345.51,-76.06 381.83,-69.27 408.9,-63.5"/>
<polygon fill="midnightblue" stroke="midnightblue" points="103.88,-63.03 93.31,-63.63 101.95,-69.75 103.88,-63.03"/>
</g>
<!-- Node4 -->
<g id="node4" class="node">
<title>Node4</title>
<g id="a_node4"><a xlink:href="classv8_1_1InternalFieldsCallbackData.html" target="_top" xlink:title=" ">
<polygon fill="white" stroke="black" points="173.5,-39 173.5,-69 301.5,-69 301.5,-39 173.5,-39"/>
<text text-anchor="start" x="181.5" y="-57" font-family="Helvetica,sans-Serif" font-size="10.00">v8::InternalFieldsCallback</text>
<text text-anchor="middle" x="237.5" y="-46" font-family="Helvetica,sans-Serif" font-size="10.00">Data&lt; T, U &gt;</text>
</a>
</g>
</g>
<!-- Node1&#45;&gt;Node4 -->
<g id="edge3" class="edge">
<title>Node1&#45;&gt;Node4</title>
<path fill="none" stroke="midnightblue" d="M135.79,-54C148.22,-54 161.05,-54 173.22,-54"/>
<polygon fill="midnightblue" stroke="midnightblue" points="135.47,-50.5 125.47,-54 135.47,-57.5 135.47,-50.5"/>
</g>
<!-- Node5 -->
<g id="node5" class="node">
<title>Node5</title>
<g id="a_node5"><a xlink:href="classv8_1_1PhantomCallbackData.html" target="_top" xlink:title=" ">
<polygon fill="white" stroke="black" points="162,-0.5 162,-19.5 313,-19.5 313,-0.5 162,-0.5"/>
<text text-anchor="middle" x="237.5" y="-7.5" font-family="Helvetica,sans-Serif" font-size="10.00">v8::PhantomCallbackData&lt; T &gt;</text>
</a>
</g>
</g>
<!-- Node1&#45;&gt;Node5 -->
<g id="edge4" class="edge">
<title>Node1&#45;&gt;Node5</title>
<path fill="none" stroke="midnightblue" d="M110.92,-41.94C138.67,-34.88 173.21,-26.1 199.03,-19.53"/>
<polygon fill="midnightblue" stroke="midnightblue" points="109.87,-38.6 101.04,-44.45 111.59,-45.38 109.87,-38.6"/>
</g>
<!-- Node3 -->
<g id="node3" class="node">
<title>Node3</title>
<g id="a_node3"><a xlink:href="classv8_1_1WeakCallbackData.html" target="_top" xlink:title=" ">
<polygon fill="white" stroke="black" points="564,-39 564,-69 678,-69 678,-39 564,-39"/>
<text text-anchor="start" x="572" y="-57" font-family="Helvetica,sans-Serif" font-size="10.00">v8::WeakCallbackData</text>
<text text-anchor="middle" x="621" y="-46" font-family="Helvetica,sans-Serif" font-size="10.00">&lt; T, P &gt;</text>
</a>
</g>
</g>
<!-- Node2&#45;&gt;Node3 -->
<g id="edge2" class="edge">
<title>Node2&#45;&gt;Node3</title>
<path fill="none" stroke="midnightblue" d="M537.3,-54C546.29,-54 555.26,-54 563.8,-54"/>
<polygon fill="midnightblue" stroke="midnightblue" points="537.16,-50.5 527.16,-54 537.16,-57.5 537.16,-50.5"/>
</g>
<!-- Node5&#45;&gt;Node2 -->
<g id="edge5" class="edge">
<title>Node5&#45;&gt;Node2</title>
<path fill="none" stroke="orange" stroke-dasharray="5,2" d="M294.26,-21.6C328.54,-28.73 371.93,-37.76 404.2,-44.47"/>
<polygon fill="orange" stroke="orange" points="294.9,-18.16 284.39,-19.55 293.47,-25.01 294.9,-18.16"/>
<text text-anchor="middle" x="344" y="-37" font-family="Helvetica,sans-Serif" font-size="10.00"> &lt; P &gt;</text>
</g>
</g>
</svg>
