<?xml version="1.0" encoding="UTF-8" standalone="no"?>
<!DOCTYPE svg PUBLIC "-//W3C//DTD SVG 1.1//EN"
 "http://www.w3.org/Graphics/SVG/1.1/DTD/svg11.dtd">
<!-- Generated by graphviz version 8.0.5 (20230430.1635)
 -->
<!-- Title: v8::Object::GetAlignedPointerFromInternalField Pages: 1 -->
<svg width="311pt" height="76pt"
 viewBox="0.00 0.00 310.75 75.88" xmlns="http://www.w3.org/2000/svg" xmlns:xlink="http://www.w3.org/1999/xlink">
<g id="graph0" class="graph" transform="scale(1 1) rotate(0) translate(4 71.88)">
<title>v8::Object::GetAlignedPointerFromInternalField</title>
<!-- Node1 -->
<g id="node1" class="node">
<title>Node1</title>
<g id="a_node1"><a xlink:title=" ">
<polygon fill="#999999" stroke="#666666" points="142.75,-51.5 0,-51.5 0,-21 142.75,-21 142.75,-51.5"/>
<text text-anchor="start" x="8" y="-38" font-family="Helvetica,sans-Serif" font-size="10.00">v8::Object::GetAlignedPointer</text>
<text text-anchor="middle" x="71.38" y="-26.75" font-family="Helvetica,sans-Serif" font-size="10.00">FromInternalField</text>
</a>
</g>
</g>
<!-- Node2 -->
<g id="node2" class="node">
<title>Node2</title>
<g id="a_node2"><a xlink:href="namespacev8.html#a09fbab44268c35b78f733e1543252940" target="_top" xlink:title=" ">
<polygon fill="white" stroke="#666666" points="302.75,-67.88 178.75,-67.88 178.75,-48.62 302.75,-48.62 302.75,-67.88"/>
<text text-anchor="middle" x="240.75" y="-54.38" font-family="Helvetica,sans-Serif" font-size="10.00">v8::ToExternalPointerTag</text>
</a>
</g>
</g>
<!-- Node1&#45;&gt;Node2 -->
<g id="edge1" class="edge">
<title>Node1&#45;&gt;Node2</title>
<path fill="none" stroke="#63b8ff" d="M142.87,-45.52C151.07,-46.59 159.44,-47.69 167.67,-48.78"/>
<polygon fill="#63b8ff" stroke="#63b8ff" points="166.99,-52.35 177.36,-50.18 167.9,-45.41 166.99,-52.35"/>
</g>
<!-- Node3 -->
<g id="node3" class="node">
<title>Node3</title>
<g id="a_node3"><a xlink:href="classv8_1_1internal_1_1ValueHelper.html#a2032b423f5a859341b30210d1650111b" target="_top" xlink:title=" ">
<polygon fill="white" stroke="#666666" points="300.88,-30.5 180.62,-30.5 180.62,0 300.88,0 300.88,-30.5"/>
<text text-anchor="start" x="188.62" y="-17" font-family="Helvetica,sans-Serif" font-size="10.00">v8::internal::ValueHelper</text>
<text text-anchor="middle" x="240.75" y="-5.75" font-family="Helvetica,sans-Serif" font-size="10.00">::ValueAsAddress</text>
</a>
</g>
</g>
<!-- Node1&#45;&gt;Node3 -->
<g id="edge2" class="edge">
<title>Node1&#45;&gt;Node3</title>
<path fill="none" stroke="#63b8ff" d="M142.87,-27.4C151.7,-26.3 160.73,-25.16 169.55,-24.06"/>
<polygon fill="#63b8ff" stroke="#63b8ff" points="169.7,-27.44 179.19,-22.72 168.83,-20.5 169.7,-27.44"/>
</g>
</g>
</svg>
