<?xml version="1.0" encoding="UTF-8" standalone="no"?>
<!DOCTYPE svg PUBLIC "-//W3C//DTD SVG 1.1//EN"
 "http://www.w3.org/Graphics/SVG/1.1/DTD/svg11.dtd">
<!-- Generated by graphviz version 8.0.5 (20230430.1635)
 -->
<!-- Title: v8::Context::GetEmbedderDataV2 Pages: 1 -->
<svg width="292pt" height="76pt"
 viewBox="0.00 0.00 292.00 75.88" xmlns="http://www.w3.org/2000/svg" xmlns:xlink="http://www.w3.org/1999/xlink">
<g id="graph0" class="graph" transform="scale(1 1) rotate(0) translate(4 71.88)">
<title>v8::Context::GetEmbedderDataV2</title>
<!-- Node1 -->
<g id="node1" class="node">
<title>Node1</title>
<g id="a_node1"><a xlink:title=" ">
<polygon fill="#999999" stroke="#666666" points="127.75,-51.5 0,-51.5 0,-21 127.75,-21 127.75,-51.5"/>
<text text-anchor="start" x="8" y="-38" font-family="Helvetica,sans-Serif" font-size="10.00">v8::Context::GetEmbedder</text>
<text text-anchor="middle" x="63.88" y="-26.75" font-family="Helvetica,sans-Serif" font-size="10.00">DataV2</text>
</a>
</g>
</g>
<!-- Node2 -->
<g id="node2" class="node">
<title>Node2</title>
<g id="a_node2"><a xlink:href="classv8_1_1Local.html#abccf96e442bc7c20dc6bb18ab095cf7f" target="_top" xlink:title=" ">
<polygon fill="white" stroke="#666666" points="263.75,-67.88 184,-67.88 184,-48.62 263.75,-48.62 263.75,-67.88"/>
<text text-anchor="middle" x="223.88" y="-54.38" font-family="Helvetica,sans-Serif" font-size="10.00">v8::Local::New</text>
</a>
</g>
</g>
<!-- Node1&#45;&gt;Node2 -->
<g id="edge1" class="edge">
<title>Node1&#45;&gt;Node2</title>
<path fill="none" stroke="#63b8ff" d="M128.23,-45.07C143.14,-47.15 158.83,-49.33 173.05,-51.31"/>
<polygon fill="#63b8ff" stroke="#63b8ff" points="172.22,-54.87 182.61,-52.78 173.18,-47.94 172.22,-54.87"/>
</g>
<!-- Node3 -->
<g id="node3" class="node">
<title>Node3</title>
<g id="a_node3"><a xlink:href="classv8_1_1internal_1_1ValueHelper.html#a2032b423f5a859341b30210d1650111b" target="_top" xlink:title=" ">
<polygon fill="white" stroke="#666666" points="284,-30.5 163.75,-30.5 163.75,0 284,0 284,-30.5"/>
<text text-anchor="start" x="171.75" y="-17" font-family="Helvetica,sans-Serif" font-size="10.00">v8::internal::ValueHelper</text>
<text text-anchor="middle" x="223.88" y="-5.75" font-family="Helvetica,sans-Serif" font-size="10.00">::ValueAsAddress</text>
</a>
</g>
</g>
<!-- Node1&#45;&gt;Node3 -->
<g id="edge2" class="edge">
<title>Node1&#45;&gt;Node3</title>
<path fill="none" stroke="#63b8ff" d="M128.23,-27.83C136.2,-26.77 144.39,-25.68 152.46,-24.61"/>
<polygon fill="#63b8ff" stroke="#63b8ff" points="152.9,-27.95 162.35,-23.16 151.98,-21.01 152.9,-27.95"/>
</g>
</g>
</svg>
