<?xml version="1.0" encoding="UTF-8" standalone="no"?>
<!DOCTYPE svg PUBLIC "-//W3C//DTD SVG 1.1//EN"
 "http://www.w3.org/Graphics/SVG/1.1/DTD/svg11.dtd">
<!-- Generated by graphviz version 8.0.5 (20230430.1635)
 -->
<!-- Title: include/v8&#45;internal.h Pages: 1 -->
<svg width="3148pt" height="824pt"
 viewBox="0.00 0.00 3148.00 824.25" xmlns="http://www.w3.org/2000/svg" xmlns:xlink="http://www.w3.org/1999/xlink">
<g id="graph0" class="graph" transform="scale(1 1) rotate(0) translate(4 820.25)">
<title>include/v8&#45;internal.h</title>
<!-- Node1 -->
<g id="node1" class="node">
<title>Node1</title>
<g id="a_node1"><a xlink:title=" ">
<polygon fill="#999999" stroke="#666666" points="1556.12,-816.25 1453.88,-816.25 1453.88,-797 1556.12,-797 1556.12,-816.25"/>
<text text-anchor="middle" x="1505" y="-802.75" font-family="Helvetica,sans-Serif" font-size="10.00">include/v8&#45;internal.h</text>
</a>
</g>
</g>
<!-- Node2 -->
<g id="node2" class="node">
<title>Node2</title>
<g id="a_node2"><a xlink:href="v8-cppgc_8h.html" target="_top" xlink:title=" ">
<polygon fill="white" stroke="#666666" points="353.5,-584 256.5,-584 256.5,-564.75 353.5,-564.75 353.5,-584"/>
<text text-anchor="middle" x="305" y="-570.5" font-family="Helvetica,sans-Serif" font-size="10.00">include/v8&#45;cppgc.h</text>
</a>
</g>
</g>
<!-- Node1&#45;&gt;Node2 -->
<g id="edge1" class="edge">
<title>Node1&#45;&gt;Node2</title>
<path fill="none" stroke="#63b8ff" d="M1442.91,-804.4C1251.4,-800.38 677.93,-786.33 598,-761 473.44,-721.52 349.52,-615.6 314.66,-584.24"/>
<polygon fill="#63b8ff" stroke="#63b8ff" points="1442.56,-807.92 1452.63,-804.63 1442.7,-800.92 1442.56,-807.92"/>
</g>
<!-- Node3 -->
<g id="node3" class="node">
<title>Node3</title>
<g id="a_node3"><a xlink:href="v8-embedder-state-scope_8h.html" target="_top" xlink:title=" ">
<polygon fill="white" stroke="#666666" points="782,-650.5 676,-650.5 676,-620 782,-620 782,-650.5"/>
<text text-anchor="start" x="684" y="-637" font-family="Helvetica,sans-Serif" font-size="10.00">include/v8&#45;embedder</text>
<text text-anchor="middle" x="729" y="-625.75" font-family="Helvetica,sans-Serif" font-size="10.00">&#45;state&#45;scope.h</text>
</a>
</g>
</g>
<!-- Node1&#45;&gt;Node3 -->
<g id="edge2" class="edge">
<title>Node1&#45;&gt;Node3</title>
<path fill="none" stroke="#63b8ff" d="M1442.66,-806.22C1303.93,-806.74 973.9,-803.35 872,-761 813.28,-736.6 761.82,-678.09 740.05,-650.76"/>
<polygon fill="#63b8ff" stroke="#63b8ff" points="1442.52,-809.72 1452.5,-806.17 1442.49,-802.72 1442.52,-809.72"/>
</g>
<!-- Node5 -->
<g id="node5" class="node">
<title>Node5</title>
<g id="a_node5"><a xlink:href="v8-isolate_8h.html" target="_top" xlink:title=" ">
<polygon fill="white" stroke="#666666" points="2298.62,-268.38 2199.38,-268.38 2199.38,-249.12 2298.62,-249.12 2298.62,-268.38"/>
<text text-anchor="middle" x="2249" y="-254.88" font-family="Helvetica,sans-Serif" font-size="10.00">include/v8&#45;isolate.h</text>
</a>
</g>
</g>
<!-- Node1&#45;&gt;Node5 -->
<g id="edge143" class="edge">
<title>Node1&#45;&gt;Node5</title>
<path fill="none" stroke="#63b8ff" d="M1567.2,-806.14C1728.77,-806.8 2174.81,-804.2 2543,-761 2691.8,-743.54 2874,-846.95 2874,-697.12 2874,-697.12 2874,-697.12 2874,-446 2874,-409.13 2881.82,-390.54 2855,-365.25 2774.68,-289.51 2428.84,-267.3 2298.74,-261.55"/>
<polygon fill="#63b8ff" stroke="#63b8ff" points="1567.53,-802.64 1557.52,-806.09 1567.5,-809.64 1567.53,-802.64"/>
</g>
<!-- Node7 -->
<g id="node7" class="node">
<title>Node7</title>
<g id="a_node7"><a xlink:href="v8-initialization_8h.html" target="_top" xlink:title=" ">
<polygon fill="white" stroke="#666666" points="2188.5,-201.88 2067.5,-201.88 2067.5,-182.62 2188.5,-182.62 2188.5,-201.88"/>
<text text-anchor="middle" x="2128" y="-188.38" font-family="Helvetica,sans-Serif" font-size="10.00">include/v8&#45;initialization.h</text>
</a>
</g>
</g>
<!-- Node1&#45;&gt;Node7 -->
<g id="edge142" class="edge">
<title>Node1&#45;&gt;Node7</title>
<path fill="none" stroke="#63b8ff" d="M1567.25,-804.53C1781.95,-800.56 2490.7,-785.86 2717,-761 2872.88,-743.88 3064,-853.94 3064,-697.12 3064,-697.12 3064,-697.12 3064,-573.38 3064,-504.66 3048.61,-482.23 3002,-431.75 2959.58,-385.81 2933.61,-393.86 2878,-365.25 2828.65,-339.85 2818.69,-327.44 2766,-310 2658.57,-274.44 2326.53,-222.75 2188.82,-202.18"/>
<polygon fill="#63b8ff" stroke="#63b8ff" points="1567.44,-801.04 1557.5,-804.73 1567.57,-808.04 1567.44,-801.04"/>
</g>
<!-- Node8 -->
<g id="node8" class="node">
<title>Node8</title>
<g id="a_node8"><a xlink:href="v8_8h.html" target="_top" xlink:title=" ">
<polygon fill="white" stroke="#666666" points="1343.88,-19.25 1276.12,-19.25 1276.12,0 1343.88,0 1343.88,-19.25"/>
<text text-anchor="middle" x="1310" y="-5.75" font-family="Helvetica,sans-Serif" font-size="10.00">include/v8.h</text>
</a>
</g>
</g>
<!-- Node1&#45;&gt;Node8 -->
<g id="edge164" class="edge">
<title>Node1&#45;&gt;Node8</title>
<path fill="none" stroke="#63b8ff" d="M1442.77,-804.88C1194.3,-801.74 280.64,-788.4 154,-761 81.58,-745.33 0,-771.22 0,-697.12 0,-697.12 0,-697.12 0,-124.75 0,-84.52 21.87,-72.95 58,-55.25 114.19,-27.73 1081.06,-13.63 1275.94,-11.06"/>
<polygon fill="#63b8ff" stroke="#63b8ff" points="1442.7,-808.39 1452.75,-805.02 1442.79,-801.39 1442.7,-808.39"/>
</g>
<!-- Node11 -->
<g id="node10" class="node">
<title>Node11</title>
<g id="a_node10"><a xlink:href="v8-metrics_8h.html" target="_top" xlink:title=" ">
<polygon fill="white" stroke="#666666" points="3026.5,-201.88 2923.5,-201.88 2923.5,-182.62 3026.5,-182.62 3026.5,-201.88"/>
<text text-anchor="middle" x="2975" y="-188.38" font-family="Helvetica,sans-Serif" font-size="10.00">include/v8&#45;metrics.h</text>
</a>
</g>
</g>
<!-- Node1&#45;&gt;Node11 -->
<g id="edge153" class="edge">
<title>Node1&#45;&gt;Node11</title>
<path fill="none" stroke="#63b8ff" d="M1567.51,-805.29C1833.61,-803.64 2864.93,-795.11 3006,-761 3070.13,-745.49 3140,-763.1 3140,-697.12 3140,-697.12 3140,-697.12 3140,-318.62 3140,-253.33 3057.06,-217.6 3008.79,-202.33"/>
<polygon fill="#63b8ff" stroke="#63b8ff" points="1567.5,-801.79 1557.52,-805.35 1567.54,-808.79 1567.5,-801.79"/>
</g>
<!-- Node12 -->
<g id="node11" class="node">
<title>Node12</title>
<g id="a_node11"><a xlink:href="v8-snapshot_8h.html" target="_top" xlink:title=" ">
<polygon fill="white" stroke="#666666" points="2820.25,-201.88 2709.75,-201.88 2709.75,-182.62 2820.25,-182.62 2820.25,-201.88"/>
<text text-anchor="middle" x="2765" y="-188.38" font-family="Helvetica,sans-Serif" font-size="10.00">include/v8&#45;snapshot.h</text>
</a>
</g>
</g>
<!-- Node1&#45;&gt;Node12 -->
<g id="edge160" class="edge">
<title>Node1&#45;&gt;Node12</title>
<path fill="none" stroke="#63b8ff" d="M1567.13,-805.85C1802.35,-806.37 2638.16,-805 2900,-761 2992.86,-745.4 3102,-791.28 3102,-697.12 3102,-697.12 3102,-697.12 3102,-446 3102,-297.9 2891.14,-225.95 2803,-202.35"/>
<polygon fill="#63b8ff" stroke="#63b8ff" points="1567.39,-802.35 1557.39,-805.83 1567.38,-809.35 1567.39,-802.35"/>
</g>
<!-- Node15 -->
<g id="node14" class="node">
<title>Node15</title>
<g id="a_node14"><a xlink:href="v8-fast-api-calls_8h.html" target="_top" xlink:title=" ">
<polygon fill="white" stroke="#666666" points="473.75,-274 378.25,-274 378.25,-243.5 473.75,-243.5 473.75,-274"/>
<text text-anchor="start" x="386.25" y="-260.5" font-family="Helvetica,sans-Serif" font-size="10.00">include/v8&#45;fast&#45;api</text>
<text text-anchor="middle" x="426" y="-249.25" font-family="Helvetica,sans-Serif" font-size="10.00">&#45;calls.h</text>
</a>
</g>
</g>
<!-- Node1&#45;&gt;Node15 -->
<g id="edge18" class="edge">
<title>Node1&#45;&gt;Node15</title>
<path fill="none" stroke="#63b8ff" d="M1442.84,-804.36C1244.06,-800.08 631.84,-785.08 546,-761 397.31,-719.28 321.75,-719.13 247,-584 180.86,-464.43 347.86,-319.95 406.52,-274.3"/>
<polygon fill="#63b8ff" stroke="#63b8ff" points="1442.59,-807.87 1452.66,-804.59 1442.74,-800.88 1442.59,-807.87"/>
</g>
<!-- Node16 -->
<g id="node15" class="node">
<title>Node16</title>
<g id="a_node15"><a xlink:href="v8-function-callback_8h.html" target="_top" xlink:title=" ">
<polygon fill="white" stroke="#666666" points="2173.88,-462.25 2076.12,-462.25 2076.12,-431.75 2173.88,-431.75 2173.88,-462.25"/>
<text text-anchor="start" x="2084.12" y="-448.75" font-family="Helvetica,sans-Serif" font-size="10.00">include/v8&#45;function</text>
<text text-anchor="middle" x="2125" y="-437.5" font-family="Helvetica,sans-Serif" font-size="10.00">&#45;callback.h</text>
</a>
</g>
</g>
<!-- Node1&#45;&gt;Node16 -->
<g id="edge19" class="edge">
<title>Node1&#45;&gt;Node16</title>
<path fill="none" stroke="#63b8ff" d="M1567.46,-806.09C1742.89,-806.84 2230.94,-804.93 2287,-761 2372.74,-693.82 2273.08,-529.07 2245,-498.25 2226.52,-477.97 2198.55,-465.62 2174.26,-458.24"/>
<polygon fill="#63b8ff" stroke="#63b8ff" points="1567.63,-802.59 1557.62,-806.04 1567.6,-809.59 1567.63,-802.59"/>
</g>
<!-- Node20 -->
<g id="node19" class="node">
<title>Node20</title>
<g id="a_node19"><a xlink:href="v8-handle-base_8h.html" target="_top" xlink:title=" ">
<polygon fill="white" stroke="#666666" points="1566.62,-761 1443.38,-761 1443.38,-741.75 1566.62,-741.75 1566.62,-761"/>
<text text-anchor="middle" x="1505" y="-747.5" font-family="Helvetica,sans-Serif" font-size="10.00">include/v8&#45;handle&#45;base.h</text>
</a>
</g>
</g>
<!-- Node1&#45;&gt;Node20 -->
<g id="edge27" class="edge">
<title>Node1&#45;&gt;Node20</title>
<path fill="none" stroke="#63b8ff" d="M1505,-785.96C1505,-777.52 1505,-768.08 1505,-761.36"/>
<polygon fill="#63b8ff" stroke="#63b8ff" points="1501.5,-785.83 1505,-795.83 1508.5,-785.83 1501.5,-785.83"/>
</g>
<!-- Node21 -->
<g id="node20" class="node">
<title>Node21</title>
<g id="a_node20"><a xlink:href="v8-local-handle_8h.html" target="_top" xlink:title=" ">
<polygon fill="white" stroke="#666666" points="1656.25,-705.75 1533.75,-705.75 1533.75,-686.5 1656.25,-686.5 1656.25,-705.75"/>
<text text-anchor="middle" x="1595" y="-692.25" font-family="Helvetica,sans-Serif" font-size="10.00">include/v8&#45;local&#45;handle.h</text>
</a>
</g>
</g>
<!-- Node1&#45;&gt;Node21 -->
<g id="edge144" class="edge">
<title>Node1&#45;&gt;Node21</title>
<path fill="none" stroke="#63b8ff" d="M1537.23,-791.76C1550.93,-784.42 1566.01,-774.16 1576,-761 1588.73,-744.23 1592.96,-719.02 1594.35,-705.85"/>
<polygon fill="#63b8ff" stroke="#63b8ff" points="1535.96,-788.99 1528.6,-796.6 1539.1,-795.24 1535.96,-788.99"/>
</g>
<!-- Node32 -->
<g id="node30" class="node">
<title>Node32</title>
<g id="a_node30"><a xlink:href="v8-primitive_8h.html" target="_top" xlink:title=" ">
<polygon fill="white" stroke="#666666" points="1864.75,-523.12 1757.25,-523.12 1757.25,-503.88 1864.75,-503.88 1864.75,-523.12"/>
<text text-anchor="middle" x="1811" y="-509.62" font-family="Helvetica,sans-Serif" font-size="10.00">include/v8&#45;primitive.h</text>
</a>
</g>
</g>
<!-- Node1&#45;&gt;Node32 -->
<g id="edge156" class="edge">
<title>Node1&#45;&gt;Node32</title>
<path fill="none" stroke="#63b8ff" d="M1567.58,-804.27C1745.36,-800.11 2242.16,-786.27 2266,-761 2394.6,-624.64 2011.42,-546.82 1865.19,-522.69"/>
<polygon fill="#63b8ff" stroke="#63b8ff" points="1567.51,-800.79 1557.59,-804.52 1567.67,-807.79 1567.51,-800.79"/>
</g>
<!-- Node34 -->
<g id="node32" class="node">
<title>Node34</title>
<g id="a_node32"><a xlink:href="v8-object_8h.html" target="_top" xlink:title=" ">
<polygon fill="white" stroke="#666666" points="1200.5,-456.62 1103.5,-456.62 1103.5,-437.38 1200.5,-437.38 1200.5,-456.62"/>
<text text-anchor="middle" x="1152" y="-443.12" font-family="Helvetica,sans-Serif" font-size="10.00">include/v8&#45;object.h</text>
</a>
</g>
</g>
<!-- Node1&#45;&gt;Node34 -->
<g id="edge154" class="edge">
<title>Node1&#45;&gt;Node34</title>
<path fill="none" stroke="#63b8ff" d="M1442.97,-804.09C1315.94,-799.27 1038,-779.32 1038,-697.12 1038,-697.12 1038,-697.12 1038,-634.25 1038,-555.39 1113.26,-481.73 1141.48,-456.87"/>
<polygon fill="#63b8ff" stroke="#63b8ff" points="1442.57,-807.62 1452.69,-804.48 1442.82,-800.62 1442.57,-807.62"/>
</g>
<!-- Node41 -->
<g id="node39" class="node">
<title>Node41</title>
<g id="a_node39"><a xlink:href="v8-wasm_8h.html" target="_top" xlink:title=" ">
<polygon fill="white" stroke="#666666" points="2845.5,-390.12 2748.5,-390.12 2748.5,-370.88 2845.5,-370.88 2845.5,-390.12"/>
<text text-anchor="middle" x="2797" y="-376.62" font-family="Helvetica,sans-Serif" font-size="10.00">include/v8&#45;wasm.h</text>
</a>
</g>
</g>
<!-- Node1&#45;&gt;Node41 -->
<g id="edge163" class="edge">
<title>Node1&#45;&gt;Node41</title>
<path fill="none" stroke="#63b8ff" d="M1567.11,-803.7C1824.87,-795.33 2797,-759.61 2797,-697.12 2797,-697.12 2797,-697.12 2797,-512.5 2797,-466.56 2797,-411.56 2797,-390.39"/>
<polygon fill="#63b8ff" stroke="#63b8ff" points="1567.33,-800.23 1557.45,-804.05 1567.55,-807.22 1567.33,-800.23"/>
</g>
<!-- Node42 -->
<g id="node40" class="node">
<title>Node42</title>
<g id="a_node40"><a xlink:href="v8-value_8h.html" target="_top" xlink:title=" ">
<polygon fill="white" stroke="#666666" points="772,-584 678,-584 678,-564.75 772,-564.75 772,-584"/>
<text text-anchor="middle" x="725" y="-570.5" font-family="Helvetica,sans-Serif" font-size="10.00">include/v8&#45;value.h</text>
</a>
</g>
</g>
<!-- Node1&#45;&gt;Node42 -->
<g id="edge162" class="edge">
<title>Node1&#45;&gt;Node42</title>
<path fill="none" stroke="#63b8ff" d="M1442.72,-805.59C1298.21,-804.86 943.95,-799.11 832,-761 748.45,-732.55 708.56,-728.36 667,-650.5 660.62,-638.54 661.01,-632.16 667,-620 674.97,-603.81 691.94,-591.85 705.48,-584.41"/>
<polygon fill="#63b8ff" stroke="#63b8ff" points="1442.56,-809.1 1452.58,-805.64 1442.59,-802.1 1442.56,-809.1"/>
</g>
<!-- Node47 -->
<g id="node45" class="node">
<title>Node47</title>
<g id="a_node45"><a xlink:href="v8-persistent-handle_8h.html" target="_top" xlink:title=" ">
<polygon fill="white" stroke="#666666" points="2236,-528.75 2130,-528.75 2130,-498.25 2236,-498.25 2236,-528.75"/>
<text text-anchor="start" x="2138" y="-515.25" font-family="Helvetica,sans-Serif" font-size="10.00">include/v8&#45;persistent</text>
<text text-anchor="middle" x="2183" y="-504" font-family="Helvetica,sans-Serif" font-size="10.00">&#45;handle.h</text>
</a>
</g>
</g>
<!-- Node1&#45;&gt;Node47 -->
<g id="edge155" class="edge">
<title>Node1&#45;&gt;Node47</title>
<path fill="none" stroke="#63b8ff" d="M1567.17,-803.11C1746.5,-795.02 2252,-766.12 2252,-697.12 2252,-697.12 2252,-697.12 2252,-634.25 2252,-591.54 2218.64,-550.33 2198.31,-529.18"/>
<polygon fill="#63b8ff" stroke="#63b8ff" points="1567.18,-799.65 1557.34,-803.59 1567.49,-806.64 1567.18,-799.65"/>
</g>
<!-- Node48 -->
<g id="node46" class="node">
<title>Node48</title>
<g id="a_node46"><a xlink:href="v8-traced-handle_8h.html" target="_top" xlink:title=" ">
<polygon fill="white" stroke="#666666" points="580.62,-644.88 451.38,-644.88 451.38,-625.62 580.62,-625.62 580.62,-644.88"/>
<text text-anchor="middle" x="516" y="-631.38" font-family="Helvetica,sans-Serif" font-size="10.00">include/v8&#45;traced&#45;handle.h</text>
</a>
</g>
</g>
<!-- Node1&#45;&gt;Node48 -->
<g id="edge161" class="edge">
<title>Node1&#45;&gt;Node48</title>
<path fill="none" stroke="#63b8ff" d="M1442.86,-805.1C1255.87,-803.15 706.84,-794.6 634,-761 577.96,-735.15 535.4,-669.54 521.16,-645.37"/>
<polygon fill="#63b8ff" stroke="#63b8ff" points="1442.56,-808.61 1452.59,-805.21 1442.63,-801.61 1442.56,-808.61"/>
</g>
<!-- Node51 -->
<g id="node49" class="node">
<title>Node51</title>
<g id="a_node49"><a xlink:href="v8-maybe_8h.html" target="_top" xlink:title=" ">
<polygon fill="white" stroke="#666666" points="163.62,-644.88 64.38,-644.88 64.38,-625.62 163.62,-625.62 163.62,-644.88"/>
<text text-anchor="middle" x="114" y="-631.38" font-family="Helvetica,sans-Serif" font-size="10.00">include/v8&#45;maybe.h</text>
</a>
</g>
</g>
<!-- Node1&#45;&gt;Node51 -->
<g id="edge145" class="edge">
<title>Node1&#45;&gt;Node51</title>
<path fill="none" stroke="#63b8ff" d="M1442.84,-805.28C1187.72,-803.64 231.95,-795.21 178,-761 135.45,-734.01 119.87,-669.1 115.46,-645.25"/>
<polygon fill="#63b8ff" stroke="#63b8ff" points="1442.72,-808.78 1452.74,-805.35 1442.77,-801.78 1442.72,-808.78"/>
</g>
<!-- Node52 -->
<g id="node50" class="node">
<title>Node52</title>
<g id="a_node50"><a xlink:href="v8-sandbox_8h.html" target="_top" xlink:title=" ">
<polygon fill="white" stroke="#666666" points="896.38,-584 789.62,-584 789.62,-564.75 896.38,-564.75 896.38,-584"/>
<text text-anchor="middle" x="843" y="-570.5" font-family="Helvetica,sans-Serif" font-size="10.00">include/v8&#45;sandbox.h</text>
</a>
</g>
</g>
<!-- Node1&#45;&gt;Node52 -->
<g id="edge157" class="edge">
<title>Node1&#45;&gt;Node52</title>
<path fill="none" stroke="#63b8ff" d="M1442.89,-804.95C1330.21,-802.89 1097,-794.58 1024,-761 935.26,-720.18 866.91,-615.19 848.14,-584.14"/>
<polygon fill="#63b8ff" stroke="#63b8ff" points="1442.67,-808.46 1452.73,-805.13 1442.79,-801.46 1442.67,-808.46"/>
</g>
<!-- Node4 -->
<g id="node4" class="node">
<title>Node4</title>
<g id="a_node4"><a xlink:href="v8-unwinder_8h.html" target="_top" xlink:title=" ">
<polygon fill="white" stroke="#666666" points="563.88,-329.25 454.12,-329.25 454.12,-310 563.88,-310 563.88,-329.25"/>
<text text-anchor="middle" x="509" y="-315.75" font-family="Helvetica,sans-Serif" font-size="10.00">include/v8&#45;unwinder.h</text>
</a>
</g>
</g>
<!-- Node3&#45;&gt;Node4 -->
<g id="edge3" class="edge">
<title>Node3&#45;&gt;Node4</title>
<path fill="none" stroke="#63b8ff" d="M665.26,-624.22C613.94,-615.51 540.21,-601.54 477,-584 441.97,-574.28 343.92,-558.48 323,-528.75 290.09,-481.98 293.14,-442.4 374,-365.25 395.52,-344.72 426.69,-333.63 453.66,-327.64"/>
<polygon fill="#63b8ff" stroke="#63b8ff" points="664.42,-627.8 674.86,-626 665.58,-620.89 664.42,-627.8"/>
</g>
<!-- Node4&#45;&gt;Node5 -->
<g id="edge4" class="edge">
<title>Node4&#45;&gt;Node5</title>
<path fill="none" stroke="#63b8ff" d="M574.77,-316.4C855.64,-306.9 1951.58,-269.81 2199.12,-261.44"/>
<polygon fill="#63b8ff" stroke="#63b8ff" points="574.82,-312.93 564.95,-316.77 575.06,-319.93 574.82,-312.93"/>
</g>
<!-- Node4&#45;&gt;Node8 -->
<g id="edge17" class="edge">
<title>Node4&#45;&gt;Node8</title>
<path fill="none" stroke="#63b8ff" d="M514.82,-299.23C521.63,-274.76 532,-231.29 532,-193.25 532,-193.25 532,-193.25 532,-124.75 532,-87.71 545.92,-73.77 578,-55.25 638.85,-20.12 1139.05,-12.39 1275.65,-10.93"/>
<polygon fill="#63b8ff" stroke="#63b8ff" points="511.23,-298.03 511.82,-308.61 517.96,-299.97 511.23,-298.03"/>
</g>
<!-- Node6 -->
<g id="node6" class="node">
<title>Node6</title>
<g id="a_node6"><a xlink:href="v8-external-memory-accounter_8h.html" target="_top" xlink:title=" ">
<polygon fill="white" stroke="#666666" points="2351.38,-207.5 2244.62,-207.5 2244.62,-177 2351.38,-177 2351.38,-207.5"/>
<text text-anchor="start" x="2252.62" y="-194" font-family="Helvetica,sans-Serif" font-size="10.00">include/v8&#45;external</text>
<text text-anchor="middle" x="2298" y="-182.75" font-family="Helvetica,sans-Serif" font-size="10.00">&#45;memory&#45;accounter.h</text>
</a>
</g>
</g>
<!-- Node5&#45;&gt;Node6 -->
<g id="edge5" class="edge">
<title>Node5&#45;&gt;Node6</title>
<path fill="none" stroke="#63b8ff" d="M2262.29,-240.25C2270.07,-230.01 2279.78,-217.24 2287.1,-207.59"/>
<polygon fill="#63b8ff" stroke="#63b8ff" points="2259.08,-237.7 2255.81,-247.78 2264.65,-241.94 2259.08,-237.7"/>
</g>
<!-- Node5&#45;&gt;Node7 -->
<g id="edge6" class="edge">
<title>Node5&#45;&gt;Node7</title>
<path fill="none" stroke="#63b8ff" d="M2222.51,-243.63C2198.93,-231.06 2165.13,-213.04 2144.99,-202.31"/>
<polygon fill="#63b8ff" stroke="#63b8ff" points="2220.45,-247.03 2230.92,-248.65 2223.74,-240.85 2220.45,-247.03"/>
</g>
<!-- Node5&#45;&gt;Node8 -->
<g id="edge16" class="edge">
<title>Node5&#45;&gt;Node8</title>
<path fill="none" stroke="#63b8ff" d="M2240.39,-239.03C2219.64,-196.52 2162.26,-93.42 2078,-55.25 2010.56,-24.7 1483.71,-13.59 1343.94,-11.17"/>
<polygon fill="#63b8ff" stroke="#63b8ff" points="2237.62,-240.36 2245.07,-247.89 2243.94,-237.35 2237.62,-240.36"/>
</g>
<!-- Node9 -->
<g id="node9" class="node">
<title>Node9</title>
<g id="a_node9"><a xlink:href="v8-inspector_8h.html" target="_top" xlink:title=" ">
<polygon fill="#fff0f0" stroke="red" points="2480.25,-201.88 2369.75,-201.88 2369.75,-182.62 2480.25,-182.62 2480.25,-201.88"/>
<text text-anchor="middle" x="2425" y="-188.38" font-family="Helvetica,sans-Serif" font-size="10.00">include/v8&#45;inspector.h</text>
</a>
</g>
</g>
<!-- Node5&#45;&gt;Node9 -->
<g id="edge8" class="edge">
<title>Node5&#45;&gt;Node9</title>
<path fill="none" stroke="#63b8ff" d="M2283.92,-244.95C2318.3,-232.35 2369.94,-213.43 2400.28,-202.31"/>
<polygon fill="#63b8ff" stroke="#63b8ff" points="2283.03,-241.92 2274.84,-248.65 2285.44,-248.49 2283.03,-241.92"/>
</g>
<!-- Node5&#45;&gt;Node11 -->
<g id="edge9" class="edge">
<title>Node5&#45;&gt;Node11</title>
<path fill="none" stroke="#63b8ff" d="M2309.82,-252.7C2415.46,-243.88 2639.69,-224.94 2829,-207.5 2860.32,-204.61 2895.4,-201.2 2923.32,-198.43"/>
<polygon fill="#63b8ff" stroke="#63b8ff" points="2309.73,-249.28 2300.06,-253.6 2310.31,-256.25 2309.73,-249.28"/>
</g>
<!-- Node5&#45;&gt;Node12 -->
<g id="edge10" class="edge">
<title>Node5&#45;&gt;Node12</title>
<path fill="none" stroke="#63b8ff" d="M2309.58,-250.18C2410.63,-237.55 2612.1,-212.36 2709.6,-200.17"/>
<polygon fill="#63b8ff" stroke="#63b8ff" points="2309.43,-246.79 2299.95,-251.51 2310.3,-253.74 2309.43,-246.79"/>
</g>
<!-- Node7&#45;&gt;Node8 -->
<g id="edge7" class="edge">
<title>Node7&#45;&gt;Node8</title>
<path fill="none" stroke="#63b8ff" d="M2123.56,-171.57C2115.45,-140.74 2095.06,-81.82 2053,-55.25 1992.57,-17.08 1481.62,-11.55 1344.01,-10.76"/>
<polygon fill="#63b8ff" stroke="#63b8ff" points="2120.39,-172.34 2126.16,-181.22 2127.19,-170.68 2120.39,-172.34"/>
</g>
<!-- Node12&#45;&gt;Node8 -->
<g id="edge15" class="edge">
<title>Node12&#45;&gt;Node8</title>
<path fill="none" stroke="#63b8ff" d="M2770.25,-171.95C2777.07,-142.12 2784.64,-85.14 2753,-55.25 2700.16,-5.34 1557.97,-9.24 1344.28,-10.41"/>
<polygon fill="#63b8ff" stroke="#63b8ff" points="2766.7,-170.72 2767.67,-181.27 2773.49,-172.42 2766.7,-170.72"/>
</g>
<!-- Node13 -->
<g id="node12" class="node">
<title>Node13</title>
<g id="a_node12"><a xlink:href="v8-context_8h.html" target="_top" xlink:title=" ">
<polygon fill="white" stroke="#666666" points="2734.12,-135.38 2631.88,-135.38 2631.88,-116.12 2734.12,-116.12 2734.12,-135.38"/>
<text text-anchor="middle" x="2683" y="-121.88" font-family="Helvetica,sans-Serif" font-size="10.00">include/v8&#45;context.h</text>
</a>
</g>
</g>
<!-- Node12&#45;&gt;Node13 -->
<g id="edge11" class="edge">
<title>Node12&#45;&gt;Node13</title>
<path fill="none" stroke="#63b8ff" d="M2745.05,-175.56C2729.23,-163.11 2707.66,-146.15 2694.57,-135.85"/>
<polygon fill="#63b8ff" stroke="#63b8ff" points="2742.57,-178.85 2752.6,-182.28 2746.9,-173.35 2742.57,-178.85"/>
</g>
<!-- Node13&#45;&gt;Node8 -->
<g id="edge14" class="edge">
<title>Node13&#45;&gt;Node8</title>
<path fill="none" stroke="#63b8ff" d="M2668.67,-107.86C2653.2,-91.01 2626.86,-66.12 2598,-55.25 2477.79,-10 1536.96,-10.02 1344.37,-10.51"/>
<polygon fill="#63b8ff" stroke="#63b8ff" points="2665.47,-109.66 2674.72,-114.82 2670.71,-105.01 2665.47,-109.66"/>
</g>
<!-- Node14 -->
<g id="node13" class="node">
<title>Node14</title>
<g id="a_node13"><a xlink:href="v8-proxy_8h.html" target="_top" xlink:title=" ">
<polygon fill="white" stroke="#666666" points="2743.62,-74.5 2650.38,-74.5 2650.38,-55.25 2743.62,-55.25 2743.62,-74.5"/>
<text text-anchor="middle" x="2697" y="-61" font-family="Helvetica,sans-Serif" font-size="10.00">include/v8&#45;proxy.h</text>
</a>
</g>
</g>
<!-- Node13&#45;&gt;Node14 -->
<g id="edge12" class="edge">
<title>Node13&#45;&gt;Node14</title>
<path fill="none" stroke="#63b8ff" d="M2687.62,-105.32C2690.06,-95.07 2692.94,-82.97 2694.85,-74.9"/>
<polygon fill="#63b8ff" stroke="#63b8ff" points="2684.03,-104.27 2685.13,-114.81 2690.84,-105.89 2684.03,-104.27"/>
</g>
<!-- Node14&#45;&gt;Node8 -->
<g id="edge13" class="edge">
<title>Node14&#45;&gt;Node8</title>
<path fill="none" stroke="#63b8ff" d="M2639.47,-55.57C2638.3,-55.46 2637.15,-55.35 2636,-55.25 2123.43,-10.52 1495.79,-9.87 1344.14,-10.43"/>
<polygon fill="#63b8ff" stroke="#63b8ff" points="2638.78,-59.12 2649.1,-56.73 2639.54,-52.17 2638.78,-59.12"/>
</g>
<!-- Node16&#45;&gt;Node5 -->
<g id="edge22" class="edge">
<title>Node16&#45;&gt;Node5</title>
<path fill="none" stroke="#63b8ff" d="M2140.81,-422.25C2168.52,-380.63 2224.67,-296.3 2243.03,-268.71"/>
<polygon fill="#63b8ff" stroke="#63b8ff" points="2137.36,-420.12 2134.73,-430.39 2143.19,-424 2137.36,-420.12"/>
</g>
<!-- Node17 -->
<g id="node16" class="node">
<title>Node17</title>
<g id="a_node16"><a xlink:href="v8-function_8h.html" target="_top" xlink:title=" ">
<polygon fill="white" stroke="#666666" points="1851.62,-201.88 1746.38,-201.88 1746.38,-182.62 1851.62,-182.62 1851.62,-201.88"/>
<text text-anchor="middle" x="1799" y="-188.38" font-family="Helvetica,sans-Serif" font-size="10.00">include/v8&#45;function.h</text>
</a>
</g>
</g>
<!-- Node16&#45;&gt;Node17 -->
<g id="edge20" class="edge">
<title>Node16&#45;&gt;Node17</title>
<path fill="none" stroke="#63b8ff" d="M2065.02,-444.29C1986.59,-440.71 1855.37,-429.68 1823,-395.75 1769.97,-340.17 1789.6,-233.31 1796.81,-202.05"/>
<polygon fill="#63b8ff" stroke="#63b8ff" points="2064.58,-447.81 2074.72,-444.74 2064.88,-440.82 2064.58,-447.81"/>
</g>
<!-- Node18 -->
<g id="node17" class="node">
<title>Node18</title>
<g id="a_node17"><a xlink:href="v8-template_8h.html" target="_top" xlink:title=" ">
<polygon fill="white" stroke="#666666" points="2018.12,-329.25 1909.88,-329.25 1909.88,-310 2018.12,-310 2018.12,-329.25"/>
<text text-anchor="middle" x="1964" y="-315.75" font-family="Helvetica,sans-Serif" font-size="10.00">include/v8&#45;template.h</text>
</a>
</g>
</g>
<!-- Node16&#45;&gt;Node18 -->
<g id="edge23" class="edge">
<title>Node16&#45;&gt;Node18</title>
<path fill="none" stroke="#63b8ff" d="M2110.99,-422.36C2099.59,-404.77 2082.14,-381.14 2062,-365.25 2041.3,-348.93 2013.68,-337.05 1993.03,-329.67"/>
<polygon fill="#63b8ff" stroke="#63b8ff" points="2108.39,-423.82 2116.67,-430.43 2114.33,-420.1 2108.39,-423.82"/>
</g>
<!-- Node19 -->
<g id="node18" class="node">
<title>Node19</title>
<g id="a_node18"><a xlink:href="v8-util_8h.html" target="_top" xlink:title=" ">
<polygon fill="white" stroke="#666666" points="2273.75,-390.12 2190.25,-390.12 2190.25,-370.88 2273.75,-370.88 2273.75,-390.12"/>
<text text-anchor="middle" x="2232" y="-376.62" font-family="Helvetica,sans-Serif" font-size="10.00">include/v8&#45;util.h</text>
</a>
</g>
</g>
<!-- Node16&#45;&gt;Node19 -->
<g id="edge26" class="edge">
<title>Node16&#45;&gt;Node19</title>
<path fill="none" stroke="#63b8ff" d="M2158.52,-425.79C2178.15,-413.96 2201.96,-399.61 2217.05,-390.51"/>
<polygon fill="#63b8ff" stroke="#63b8ff" points="2157.04,-423.2 2150.28,-431.36 2160.65,-429.2 2157.04,-423.2"/>
</g>
<!-- Node17&#45;&gt;Node8 -->
<g id="edge21" class="edge">
<title>Node17&#45;&gt;Node8</title>
<path fill="none" stroke="#63b8ff" d="M1795.56,-171.86C1789.05,-141.42 1771.83,-83.04 1732,-55.25 1669.62,-11.72 1433.29,-9.38 1344.23,-10.1"/>
<polygon fill="#63b8ff" stroke="#63b8ff" points="1792.26,-172.22 1797.62,-181.36 1799.13,-170.88 1792.26,-172.22"/>
</g>
<!-- Node18&#45;&gt;Node8 -->
<g id="edge25" class="edge">
<title>Node18&#45;&gt;Node8</title>
<path fill="none" stroke="#63b8ff" d="M1963.49,-298.69C1962.89,-273.96 1962,-230.5 1962,-193.25 1962,-193.25 1962,-193.25 1962,-124.75 1962,-81.54 1933.17,-73.51 1894,-55.25 1795.39,-9.27 1453.55,-8.98 1344.04,-10.12"/>
<polygon fill="#63b8ff" stroke="#63b8ff" points="1960.01,-298.59 1963.75,-308.5 1967.01,-298.42 1960.01,-298.59"/>
</g>
<!-- Node18&#45;&gt;Node17 -->
<g id="edge24" class="edge">
<title>Node18&#45;&gt;Node17</title>
<path fill="none" stroke="#63b8ff" d="M1943.68,-303.19C1908.8,-276.68 1838.6,-223.34 1810.76,-202.18"/>
<polygon fill="#63b8ff" stroke="#63b8ff" points="1941.05,-306.35 1951.13,-309.61 1945.29,-300.77 1941.05,-306.35"/>
</g>
<!-- Node20&#45;&gt;Node21 -->
<g id="edge28" class="edge">
<title>Node20&#45;&gt;Node21</title>
<path fill="none" stroke="#63b8ff" d="M1529.56,-735.84C1545.56,-726.38 1565.93,-714.33 1579.66,-706.2"/>
<polygon fill="#63b8ff" stroke="#63b8ff" points="1528.09,-733.24 1521.27,-741.34 1531.66,-739.26 1528.09,-733.24"/>
</g>
<!-- Node21&#45;&gt;Node3 -->
<g id="edge99" class="edge">
<title>Node21&#45;&gt;Node3</title>
<path fill="none" stroke="#63b8ff" d="M1522.68,-694.8C1382.06,-693.35 1062.25,-686.03 796,-650.5 791.52,-649.9 786.89,-649.17 782.26,-648.35"/>
<polygon fill="#63b8ff" stroke="#63b8ff" points="1522.26,-698.31 1532.3,-694.9 1522.33,-691.31 1522.26,-698.31"/>
</g>
<!-- Node21&#45;&gt;Node5 -->
<g id="edge107" class="edge">
<title>Node21&#45;&gt;Node5</title>
<path fill="none" stroke="#63b8ff" d="M1667.31,-693.81C1892.79,-688.78 2568,-666.12 2568,-575.38 2568,-575.38 2568,-575.38 2568,-446 2568,-372.27 2534.23,-351.07 2473,-310 2420.54,-274.81 2347.17,-263.93 2298.9,-260.75"/>
<polygon fill="#63b8ff" stroke="#63b8ff" points="1667.52,-690.33 1657.6,-694.05 1667.68,-697.33 1667.52,-690.33"/>
</g>
<!-- Node21&#45;&gt;Node8 -->
<g id="edge141" class="edge">
<title>Node21&#45;&gt;Node8</title>
<path fill="none" stroke="#63b8ff" d="M1522.33,-693.85C1364.81,-690.56 1002.2,-679.84 955,-650.5 888.44,-609.11 927.7,-546.59 866,-498.25 834.52,-473.59 544.91,-427.8 521,-395.75 512.89,-384.89 513.87,-376.78 521,-365.25 539.81,-334.82 567.38,-354.22 593,-329.25 618.06,-304.82 630,-294.74 630,-259.75 630,-259.75 630,-259.75 630,-124.75 630,-80.59 660.75,-73.41 701,-55.25 804.75,-8.43 1162.99,-8.76 1275.74,-10.08"/>
<polygon fill="#63b8ff" stroke="#63b8ff" points="1522.24,-697.37 1532.31,-694.08 1522.39,-690.37 1522.24,-697.37"/>
</g>
<!-- Node21&#45;&gt;Node9 -->
<g id="edge106" class="edge">
<title>Node21&#45;&gt;Node9</title>
<path fill="none" stroke="#63b8ff" d="M1667.54,-694.08C1872.93,-690.78 2448.8,-679.05 2529,-650.5 2575.85,-633.82 2596.2,-628.2 2619,-584 2663.69,-497.37 2651.98,-449.53 2603,-365.25 2558.95,-289.45 2472.07,-225.24 2438.6,-202.27"/>
<polygon fill="#63b8ff" stroke="#63b8ff" points="1667.53,-690.59 1657.59,-694.25 1667.64,-697.59 1667.53,-690.59"/>
</g>
<!-- Node21&#45;&gt;Node11 -->
<g id="edge110" class="edge">
<title>Node21&#45;&gt;Node11</title>
<path fill="none" stroke="#63b8ff" d="M1667.34,-694.99C1937.65,-694.19 2875.53,-688.67 2926,-650.5 2953.96,-629.36 2950,-610.43 2950,-575.38 2950,-575.38 2950,-575.38 2950,-318.62 2950,-274.23 2965.26,-222.68 2971.93,-202.25"/>
<polygon fill="#63b8ff" stroke="#63b8ff" points="1667.48,-691.49 1657.49,-695.02 1667.5,-698.49 1667.48,-691.49"/>
</g>
<!-- Node21&#45;&gt;Node12 -->
<g id="edge127" class="edge">
<title>Node21&#45;&gt;Node12</title>
<path fill="none" stroke="#63b8ff" d="M1667.2,-694.7C1879.38,-693.04 2491.23,-685.28 2574,-650.5 2655.76,-616.15 2720,-603.18 2720,-514.5 2720,-514.5 2720,-514.5 2720,-446 2720,-349.28 2752.33,-234.93 2762.19,-202.33"/>
<polygon fill="#63b8ff" stroke="#63b8ff" points="1667.48,-691.2 1657.5,-694.78 1667.53,-698.2 1667.48,-691.2"/>
</g>
<!-- Node21&#45;&gt;Node13 -->
<g id="edge49" class="edge">
<title>Node21&#45;&gt;Node13</title>
<path fill="none" stroke="#63b8ff" d="M1667.54,-694.77C1940.83,-693.19 2895.62,-685.18 2950,-650.5 2981.55,-630.38 2988,-612.79 2988,-575.38 2988,-575.38 2988,-575.38 2988,-379.5 2988,-287.01 3096.62,-246.86 3036,-177 3016.53,-154.56 2827.7,-137.51 2734.5,-130.39"/>
<polygon fill="#63b8ff" stroke="#63b8ff" points="1667.55,-691.28 1657.57,-694.84 1667.59,-698.28 1667.55,-691.28"/>
</g>
<!-- Node21&#45;&gt;Node14 -->
<g id="edge124" class="edge">
<title>Node21&#45;&gt;Node14</title>
<path fill="none" stroke="#63b8ff" d="M1667.44,-695.07C1944.76,-694.57 2926.12,-690.02 2979,-650.5 3002.53,-632.92 3102,-505.83 3102,-259.75 3102,-259.75 3102,-259.75 3102,-191.25 3102,-133.43 3053.08,-133.44 3000,-110.5 2914.95,-73.74 2805.3,-66.35 2743.94,-65.38"/>
<polygon fill="#63b8ff" stroke="#63b8ff" points="1667.7,-691.57 1657.7,-695.09 1667.71,-698.57 1667.7,-691.57"/>
</g>
<!-- Node21&#45;&gt;Node15 -->
<g id="edge102" class="edge">
<title>Node21&#45;&gt;Node15</title>
<path fill="none" stroke="#63b8ff" d="M1522.61,-690.84C1448.15,-682.06 1343,-655.48 1343,-575.38 1343,-575.38 1343,-575.38 1343,-512.5 1343,-421.52 1380.18,-371.36 1313,-310 1281.81,-281.51 654.14,-264.98 473.97,-260.8"/>
<polygon fill="#63b8ff" stroke="#63b8ff" points="1522.03,-694.41 1532.35,-692.02 1522.79,-687.45 1522.03,-694.41"/>
</g>
<!-- Node21&#45;&gt;Node16 -->
<g id="edge104" class="edge">
<title>Node21&#45;&gt;Node16</title>
<path fill="none" stroke="#63b8ff" d="M1667.49,-691.95C1756.07,-687.05 1899.99,-675.45 1947,-650.5 1990.52,-627.41 2082.82,-505.38 2114.25,-462.73"/>
<polygon fill="#63b8ff" stroke="#63b8ff" points="1667.5,-688.5 1657.7,-692.53 1667.88,-695.49 1667.5,-688.5"/>
</g>
<!-- Node21&#45;&gt;Node17 -->
<g id="edge105" class="edge">
<title>Node21&#45;&gt;Node17</title>
<path fill="none" stroke="#63b8ff" d="M1667.42,-694.82C1844.76,-693.5 2296.94,-686.59 2443,-650.5 2520.44,-631.37 2606,-655.14 2606,-575.38 2606,-575.38 2606,-575.38 2606,-446 2606,-369.36 2566.55,-348.01 2500,-310 2421.58,-265.21 2396.21,-262.85 2308,-243.5 2222.02,-224.64 1963.95,-204.86 1851.9,-196.89"/>
<polygon fill="#63b8ff" stroke="#63b8ff" points="1667.62,-691.32 1657.64,-694.89 1667.67,-698.32 1667.62,-691.32"/>
</g>
<!-- Node21&#45;&gt;Node18 -->
<g id="edge129" class="edge">
<title>Node21&#45;&gt;Node18</title>
<path fill="none" stroke="#63b8ff" d="M1667.46,-693.09C1812.04,-688.5 2126.09,-675.75 2168,-650.5 2285.08,-579.95 2372.71,-468.38 2283,-365.25 2249.37,-326.59 2100.43,-320.41 2018.5,-320.02"/>
<polygon fill="#63b8ff" stroke="#63b8ff" points="1667.4,-689.62 1657.52,-693.43 1667.62,-696.62 1667.4,-689.62"/>
</g>
<!-- Node22 -->
<g id="node21" class="node">
<title>Node22</title>
<g id="a_node21"><a xlink:href="v8-array-buffer_8h.html" target="_top" xlink:title=" ">
<polygon fill="white" stroke="#666666" points="1272.38,-390.12 1153.62,-390.12 1153.62,-370.88 1272.38,-370.88 1272.38,-390.12"/>
<text text-anchor="middle" x="1213" y="-376.62" font-family="Helvetica,sans-Serif" font-size="10.00">include/v8&#45;array&#45;buffer.h</text>
</a>
</g>
</g>
<!-- Node21&#45;&gt;Node22 -->
<g id="edge29" class="edge">
<title>Node21&#45;&gt;Node22</title>
<path fill="none" stroke="#63b8ff" d="M1522.49,-693.14C1443.84,-689.52 1324.94,-679.3 1291,-650.5 1264.27,-627.82 1267,-610.43 1267,-575.38 1267,-575.38 1267,-575.38 1267,-512.5 1267,-463.3 1234.04,-411.02 1219.62,-390.5"/>
<polygon fill="#63b8ff" stroke="#63b8ff" points="1522.17,-696.67 1532.31,-693.61 1522.47,-689.68 1522.17,-696.67"/>
</g>
<!-- Node23 -->
<g id="node22" class="node">
<title>Node23</title>
<g id="a_node22"><a xlink:href="v8-typed-array_8h.html" target="_top" xlink:title=" ">
<polygon fill="white" stroke="#666666" points="1304,-329.25 1186,-329.25 1186,-310 1304,-310 1304,-329.25"/>
<text text-anchor="middle" x="1245" y="-315.75" font-family="Helvetica,sans-Serif" font-size="10.00">include/v8&#45;typed&#45;array.h</text>
</a>
</g>
</g>
<!-- Node21&#45;&gt;Node23 -->
<g id="edge136" class="edge">
<title>Node21&#45;&gt;Node23</title>
<path fill="none" stroke="#63b8ff" d="M1522.71,-691.35C1454.07,-686.32 1357.3,-675.02 1329,-650.5 1302.51,-627.55 1305,-610.43 1305,-575.38 1305,-575.38 1305,-575.38 1305,-512.5 1305,-446.19 1308.05,-425.79 1281,-365.25 1274.75,-351.25 1262.99,-337.95 1254.61,-329.57"/>
<polygon fill="#63b8ff" stroke="#63b8ff" points="1522.25,-694.89 1532.47,-692.1 1522.74,-687.91 1522.25,-694.89"/>
</g>
<!-- Node24 -->
<g id="node23" class="node">
<title>Node24</title>
<g id="a_node23"><a xlink:href="v8-callbacks_8h.html" target="_top" xlink:title=" ">
<polygon fill="white" stroke="#666666" points="1700,-329.25 1588,-329.25 1588,-310 1700,-310 1700,-329.25"/>
<text text-anchor="middle" x="1644" y="-315.75" font-family="Helvetica,sans-Serif" font-size="10.00">include/v8&#45;callbacks.h</text>
</a>
</g>
</g>
<!-- Node21&#45;&gt;Node24 -->
<g id="edge35" class="edge">
<title>Node21&#45;&gt;Node24</title>
<path fill="none" stroke="#63b8ff" d="M1600.05,-675.55C1605.67,-651.96 1614,-611.05 1614,-575.38 1614,-575.38 1614,-575.38 1614,-446 1614,-401.24 1632.31,-349.89 1640.32,-329.57"/>
<polygon fill="#63b8ff" stroke="#63b8ff" points="1596.42,-674.64 1597.41,-685.19 1603.21,-676.33 1596.42,-674.64"/>
</g>
<!-- Node25 -->
<g id="node24" class="node">
<title>Node25</title>
<g id="a_node24"><a xlink:href="v8-message_8h.html" target="_top" xlink:title=" ">
<polygon fill="white" stroke="#666666" points="1494.25,-268.38 1383.75,-268.38 1383.75,-249.12 1494.25,-249.12 1494.25,-268.38"/>
<text text-anchor="middle" x="1439" y="-254.88" font-family="Helvetica,sans-Serif" font-size="10.00">include/v8&#45;message.h</text>
</a>
</g>
</g>
<!-- Node21&#45;&gt;Node25 -->
<g id="edge109" class="edge">
<title>Node21&#45;&gt;Node25</title>
<path fill="none" stroke="#63b8ff" d="M1539.9,-683.29C1486.65,-668.23 1414,-636.48 1414,-575.38 1414,-575.38 1414,-575.38 1414,-446 1414,-377.16 1430.98,-295.27 1436.95,-268.61"/>
<polygon fill="#63b8ff" stroke="#63b8ff" points="1538.69,-686.86 1549.26,-686.08 1540.51,-680.1 1538.69,-686.86"/>
</g>
<!-- Node26 -->
<g id="node25" class="node">
<title>Node26</title>
<g id="a_node25"><a xlink:href="v8-json_8h.html" target="_top" xlink:title=" ">
<polygon fill="white" stroke="#666666" points="1016.38,-201.88 927.62,-201.88 927.62,-182.62 1016.38,-182.62 1016.38,-201.88"/>
<text text-anchor="middle" x="972" y="-188.38" font-family="Helvetica,sans-Serif" font-size="10.00">include/v8&#45;json.h</text>
</a>
</g>
</g>
<!-- Node21&#45;&gt;Node26 -->
<g id="edge108" class="edge">
<title>Node21&#45;&gt;Node26</title>
<path fill="none" stroke="#63b8ff" d="M1522.72,-695.3C1397.57,-694.57 1146.39,-688.26 1068,-650.5 984.09,-610.08 997.5,-555.46 924,-498.25 876.19,-461.04 860.74,-455.5 805,-431.75 754.56,-410.25 719.63,-439.82 687,-395.75 678.93,-384.86 680.34,-377.05 687,-365.25 741.19,-269.25 872.86,-220.82 936.45,-202.37"/>
<polygon fill="#63b8ff" stroke="#63b8ff" points="1522.68,-698.8 1532.7,-695.35 1522.71,-691.8 1522.68,-698.8"/>
</g>
<!-- Node27 -->
<g id="node26" class="node">
<title>Node27</title>
<g id="a_node26"><a xlink:href="v8-profiler_8h.html" target="_top" xlink:title=" ">
<polygon fill="white" stroke="#666666" points="1609.62,-201.88 1510.38,-201.88 1510.38,-182.62 1609.62,-182.62 1609.62,-201.88"/>
<text text-anchor="middle" x="1560" y="-188.38" font-family="Helvetica,sans-Serif" font-size="10.00">include/v8&#45;profiler.h</text>
</a>
</g>
</g>
<!-- Node21&#45;&gt;Node27 -->
<g id="edge122" class="edge">
<title>Node21&#45;&gt;Node27</title>
<path fill="none" stroke="#63b8ff" d="M1589.95,-675.55C1584.33,-651.96 1576,-611.05 1576,-575.38 1576,-575.38 1576,-575.38 1576,-446 1576,-350.15 1564.4,-234.26 1560.95,-201.97"/>
<polygon fill="#63b8ff" stroke="#63b8ff" points="1586.79,-676.33 1592.59,-685.19 1593.58,-674.64 1586.79,-676.33"/>
</g>
<!-- Node28 -->
<g id="node27" class="node">
<title>Node28</title>
<g id="a_node27"><a xlink:href="v8-script_8h.html" target="_top" xlink:title=" ">
<polygon fill="#fff0f0" stroke="red" points="1489.38,-201.88 1394.62,-201.88 1394.62,-182.62 1489.38,-182.62 1489.38,-201.88"/>
<text text-anchor="middle" x="1442" y="-188.38" font-family="Helvetica,sans-Serif" font-size="10.00">include/v8&#45;script.h</text>
</a>
</g>
</g>
<!-- Node21&#45;&gt;Node28 -->
<g id="edge126" class="edge">
<title>Node21&#45;&gt;Node28</title>
<path fill="none" stroke="#63b8ff" d="M1522.45,-693.89C1423.45,-691.04 1252.26,-681.62 1199,-650.5 1095.45,-590 1134.94,-506.31 1041,-431.75 1008.54,-405.99 977.96,-430.25 955,-395.75 847.45,-234.14 1252.01,-201.32 1394.25,-194.82"/>
<polygon fill="#63b8ff" stroke="#63b8ff" points="1522.18,-697.41 1532.27,-694.18 1522.37,-690.41 1522.18,-697.41"/>
</g>
<!-- Node30 -->
<g id="node28" class="node">
<title>Node30</title>
<g id="a_node28"><a xlink:href="v8-container_8h.html" target="_top" xlink:title=" ">
<polygon fill="white" stroke="#666666" points="640.25,-390.12 529.75,-390.12 529.75,-370.88 640.25,-370.88 640.25,-390.12"/>
<text text-anchor="middle" x="585" y="-376.62" font-family="Helvetica,sans-Serif" font-size="10.00">include/v8&#45;container.h</text>
</a>
</g>
</g>
<!-- Node21&#45;&gt;Node30 -->
<g id="edge47" class="edge">
<title>Node21&#45;&gt;Node30</title>
<path fill="none" stroke="#63b8ff" d="M1522.76,-693.64C1371.2,-689.99 1030.32,-678.71 986,-650.5 949.15,-627.05 959.72,-602.64 938,-564.75 920.96,-535.02 925.25,-520.28 899,-498.25 854.56,-460.96 688.69,-410.89 617.64,-390.6"/>
<polygon fill="#63b8ff" stroke="#63b8ff" points="1522.26,-697.16 1532.34,-693.89 1522.42,-690.16 1522.26,-697.16"/>
</g>
<!-- Node31 -->
<g id="node29" class="node">
<title>Node31</title>
<g id="a_node29"><a xlink:href="v8-data_8h.html" target="_top" xlink:title=" ">
<polygon fill="white" stroke="#666666" points="1937.75,-644.88 1848.25,-644.88 1848.25,-625.62 1937.75,-625.62 1937.75,-644.88"/>
<text text-anchor="middle" x="1893" y="-631.38" font-family="Helvetica,sans-Serif" font-size="10.00">include/v8&#45;data.h</text>
</a>
</g>
</g>
<!-- Node21&#45;&gt;Node31 -->
<g id="edge50" class="edge">
<title>Node21&#45;&gt;Node31</title>
<path fill="none" stroke="#63b8ff" d="M1651.55,-683.95C1708.58,-672.68 1795.5,-655.51 1848.01,-645.14"/>
<polygon fill="#63b8ff" stroke="#63b8ff" points="1651.04,-680.68 1641.91,-686.05 1652.4,-687.55 1651.04,-680.68"/>
</g>
<!-- Node21&#45;&gt;Node32 -->
<g id="edge121" class="edge">
<title>Node21&#45;&gt;Node32</title>
<path fill="none" stroke="#63b8ff" d="M1639.51,-682.72C1660.41,-675.51 1684.87,-664.93 1704,-650.5 1753.64,-613.04 1792.96,-547.24 1806.2,-523.42"/>
<polygon fill="#63b8ff" stroke="#63b8ff" points="1638.67,-679.65 1630.27,-686.1 1640.86,-686.3 1638.67,-679.65"/>
</g>
<!-- Node33 -->
<g id="node31" class="node">
<title>Node33</title>
<g id="a_node31"><a xlink:href="v8-extension_8h.html" target="_top" xlink:title=" ">
<polygon fill="white" stroke="#666666" points="1831,-456.62 1719,-456.62 1719,-437.38 1831,-437.38 1831,-456.62"/>
<text text-anchor="middle" x="1775" y="-443.12" font-family="Helvetica,sans-Serif" font-size="10.00">include/v8&#45;extension.h</text>
</a>
</g>
</g>
<!-- Node21&#45;&gt;Node33 -->
<g id="edge101" class="edge">
<title>Node21&#45;&gt;Node33</title>
<path fill="none" stroke="#63b8ff" d="M1608.04,-677.56C1614.13,-669.35 1621.45,-659.44 1628,-650.5 1682.69,-575.86 1748.14,-485.24 1768.58,-456.9"/>
<polygon fill="#63b8ff" stroke="#63b8ff" points="1604.74,-675.14 1601.6,-685.25 1610.37,-679.31 1604.74,-675.14"/>
</g>
<!-- Node21&#45;&gt;Node34 -->
<g id="edge113" class="edge">
<title>Node21&#45;&gt;Node34</title>
<path fill="none" stroke="#63b8ff" d="M1522.37,-695.73C1425.34,-695.04 1260.33,-688.14 1215,-650.5 1207.1,-643.94 1165.16,-495.15 1154.48,-456.9"/>
<polygon fill="#63b8ff" stroke="#63b8ff" points="1522.26,-699.24 1532.28,-695.79 1522.29,-692.24 1522.26,-699.24"/>
</g>
<!-- Node35 -->
<g id="node33" class="node">
<title>Node35</title>
<g id="a_node33"><a xlink:href="v8-date_8h.html" target="_top" xlink:title=" ">
<polygon fill="white" stroke="#666666" points="785.75,-390.12 696.25,-390.12 696.25,-370.88 785.75,-370.88 785.75,-390.12"/>
<text text-anchor="middle" x="741" y="-376.62" font-family="Helvetica,sans-Serif" font-size="10.00">include/v8&#45;date.h</text>
</a>
</g>
</g>
<!-- Node21&#45;&gt;Node35 -->
<g id="edge98" class="edge">
<title>Node21&#45;&gt;Node35</title>
<path fill="none" stroke="#63b8ff" d="M1522.64,-692.1C1395.31,-686.24 1141.37,-672.03 1107,-650.5 1010.76,-590.23 1067.9,-497.04 975,-431.75 908.25,-384.84 874.48,-414.17 795,-395.75 788.2,-394.17 780.95,-392.36 774.05,-390.56"/>
<polygon fill="#63b8ff" stroke="#63b8ff" points="1522.29,-695.63 1532.44,-692.59 1522.61,-688.64 1522.29,-695.63"/>
</g>
<!-- Node36 -->
<g id="node34" class="node">
<title>Node36</title>
<g id="a_node34"><a xlink:href="v8-exception_8h.html" target="_top" xlink:title=" ">
<polygon fill="white" stroke="#666666" points="1944,-390.12 1832,-390.12 1832,-370.88 1944,-370.88 1944,-390.12"/>
<text text-anchor="middle" x="1888" y="-376.62" font-family="Helvetica,sans-Serif" font-size="10.00">include/v8&#45;exception.h</text>
</a>
</g>
</g>
<!-- Node21&#45;&gt;Node36 -->
<g id="edge100" class="edge">
<title>Node21&#45;&gt;Node36</title>
<path fill="none" stroke="#63b8ff" d="M1667.5,-694.66C1810.71,-692.99 2118.85,-685.33 2151,-650.5 2200.61,-596.75 1962.04,-431.11 1901.63,-390.54"/>
<polygon fill="#63b8ff" stroke="#63b8ff" points="1667.61,-691.17 1657.65,-694.78 1667.69,-698.17 1667.61,-691.17"/>
</g>
<!-- Node37 -->
<g id="node35" class="node">
<title>Node37</title>
<g id="a_node35"><a xlink:href="v8-primitive-object_8h.html" target="_top" xlink:title=" ">
<polygon fill="white" stroke="#666666" points="904,-395.75 804,-395.75 804,-365.25 904,-365.25 904,-395.75"/>
<text text-anchor="start" x="812" y="-382.25" font-family="Helvetica,sans-Serif" font-size="10.00">include/v8&#45;primitive</text>
<text text-anchor="middle" x="854" y="-371" font-family="Helvetica,sans-Serif" font-size="10.00">&#45;object.h</text>
</a>
</g>
</g>
<!-- Node21&#45;&gt;Node37 -->
<g id="edge120" class="edge">
<title>Node21&#45;&gt;Node37</title>
<path fill="none" stroke="#63b8ff" d="M1522.56,-696.04C1409.99,-696.16 1199.59,-690.76 1138,-650.5 1101.44,-626.6 1111.61,-602.71 1090,-564.75 1056.21,-505.39 1066.28,-474.49 1013,-431.75 996.06,-418.16 944.39,-403.25 904.49,-393.22"/>
<polygon fill="#63b8ff" stroke="#63b8ff" points="1522.48,-699.54 1532.47,-696.01 1522.46,-692.54 1522.48,-699.54"/>
</g>
<!-- Node38 -->
<g id="node36" class="node">
<title>Node38</title>
<g id="a_node36"><a xlink:href="v8-promise_8h.html" target="_top" xlink:title=" ">
<polygon fill="white" stroke="#666666" points="1547.62,-390.12 1442.38,-390.12 1442.38,-370.88 1547.62,-370.88 1547.62,-390.12"/>
<text text-anchor="middle" x="1495" y="-376.62" font-family="Helvetica,sans-Serif" font-size="10.00">include/v8&#45;promise.h</text>
</a>
</g>
</g>
<!-- Node21&#45;&gt;Node38 -->
<g id="edge123" class="edge">
<title>Node21&#45;&gt;Node38</title>
<path fill="none" stroke="#63b8ff" d="M1575.44,-679.08C1552.04,-657.96 1516,-618.44 1516,-575.38 1516,-575.38 1516,-575.38 1516,-512.5 1516,-465.97 1502.92,-411.31 1497.41,-390.32"/>
<polygon fill="#63b8ff" stroke="#63b8ff" points="1572.84,-682.33 1582.68,-686.24 1577.43,-677.04 1572.84,-682.33"/>
</g>
<!-- Node39 -->
<g id="node37" class="node">
<title>Node39</title>
<g id="a_node37"><a xlink:href="v8-statistics_8h.html" target="_top" xlink:title=" ">
<polygon fill="white" stroke="#666666" points="2464.25,-329.25 2353.75,-329.25 2353.75,-310 2464.25,-310 2464.25,-329.25"/>
<text text-anchor="middle" x="2409" y="-315.75" font-family="Helvetica,sans-Serif" font-size="10.00">include/v8&#45;statistics.h</text>
</a>
</g>
</g>
<!-- Node21&#45;&gt;Node39 -->
<g id="edge128" class="edge">
<title>Node21&#45;&gt;Node39</title>
<path fill="none" stroke="#63b8ff" d="M1667.3,-695.69C1807.15,-695.82 2109.32,-691.2 2204,-650.5 2309.51,-605.15 2321.97,-560.76 2381,-462.25 2397.31,-435.03 2400.71,-426.85 2407,-395.75 2411.76,-372.22 2410.71,-343.7 2409.74,-329.53"/>
<polygon fill="#63b8ff" stroke="#63b8ff" points="1667.71,-692.18 1657.7,-695.67 1667.7,-699.18 1667.71,-692.18"/>
</g>
<!-- Node40 -->
<g id="node38" class="node">
<title>Node40</title>
<g id="a_node38"><a xlink:href="v8-regexp_8h.html" target="_top" xlink:title=" ">
<polygon fill="white" stroke="#666666" points="1097.62,-390.12 998.38,-390.12 998.38,-370.88 1097.62,-370.88 1097.62,-390.12"/>
<text text-anchor="middle" x="1048" y="-376.62" font-family="Helvetica,sans-Serif" font-size="10.00">include/v8&#45;regexp.h</text>
</a>
</g>
</g>
<!-- Node21&#45;&gt;Node40 -->
<g id="edge125" class="edge">
<title>Node21&#45;&gt;Node40</title>
<path fill="none" stroke="#63b8ff" d="M1522.53,-693.22C1438.04,-689.67 1304.85,-679.51 1265,-650.5 1235.07,-628.71 1229,-612.4 1229,-575.38 1229,-575.38 1229,-575.38 1229,-512.5 1229,-475.63 1235.15,-458.71 1210,-431.75 1194.18,-414.79 1136.51,-399.68 1094.47,-390.56"/>
<polygon fill="#63b8ff" stroke="#63b8ff" points="1522.22,-696.75 1532.35,-693.65 1522.5,-689.76 1522.22,-696.75"/>
</g>
<!-- Node21&#45;&gt;Node41 -->
<g id="edge140" class="edge">
<title>Node21&#45;&gt;Node41</title>
<path fill="none" stroke="#63b8ff" d="M1667.59,-695.59C1898.21,-696.61 2604.43,-695.94 2696,-650.5 2734.78,-631.26 2758,-618.67 2758,-575.38 2758,-575.38 2758,-575.38 2758,-512.5 2758,-464.8 2782.04,-411.25 2792.37,-390.44"/>
<polygon fill="#63b8ff" stroke="#63b8ff" points="1667.66,-692.09 1657.64,-695.54 1667.63,-699.09 1667.66,-692.09"/>
</g>
<!-- Node21&#45;&gt;Node42 -->
<g id="edge139" class="edge">
<title>Node21&#45;&gt;Node42</title>
<path fill="none" stroke="#63b8ff" d="M1522.87,-693.34C1371.45,-689.13 1024.93,-676.85 910,-650.5 876.8,-642.89 785.57,-602.7 744.96,-584.43"/>
<polygon fill="#63b8ff" stroke="#63b8ff" points="1522.34,-696.86 1532.43,-693.63 1522.53,-689.86 1522.34,-696.86"/>
</g>
<!-- Node45 -->
<g id="node43" class="node">
<title>Node45</title>
<g id="a_node43"><a xlink:href="v8-forward_8h.html" target="_top" xlink:title=" ">
<polygon fill="white" stroke="#666666" points="2141.5,-644.88 2038.5,-644.88 2038.5,-625.62 2141.5,-625.62 2141.5,-644.88"/>
<text text-anchor="middle" x="2090" y="-631.38" font-family="Helvetica,sans-Serif" font-size="10.00">include/v8&#45;forward.h</text>
</a>
</g>
</g>
<!-- Node21&#45;&gt;Node45 -->
<g id="edge103" class="edge">
<title>Node21&#45;&gt;Node45</title>
<path fill="none" stroke="#63b8ff" d="M1667.62,-690C1753.19,-683.4 1899.5,-670.36 2024,-650.5 2032.91,-649.08 2042.44,-647.22 2051.39,-645.32"/>
<polygon fill="#63b8ff" stroke="#63b8ff" points="1667.43,-686.58 1657.73,-690.83 1667.96,-693.56 1667.43,-686.58"/>
</g>
<!-- Node46 -->
<g id="node44" class="node">
<title>Node46</title>
<g id="a_node44"><a xlink:href="v8-microtask-queue_8h.html" target="_top" xlink:title=" ">
<polygon fill="white" stroke="#666666" points="2991,-141 2885,-141 2885,-110.5 2991,-110.5 2991,-141"/>
<text text-anchor="start" x="2893" y="-127.5" font-family="Helvetica,sans-Serif" font-size="10.00">include/v8&#45;microtask</text>
<text text-anchor="middle" x="2938" y="-116.25" font-family="Helvetica,sans-Serif" font-size="10.00">&#45;queue.h</text>
</a>
</g>
</g>
<!-- Node21&#45;&gt;Node46 -->
<g id="edge111" class="edge">
<title>Node21&#45;&gt;Node46</title>
<path fill="none" stroke="#63b8ff" d="M1667.48,-695.65C1884.85,-696.7 2528.8,-695.79 2733,-650.5 2817.23,-631.82 2912,-661.65 2912,-575.38 2912,-575.38 2912,-575.38 2912,-318.62 2912,-255.67 2900.94,-238.37 2915,-177 2917.91,-164.28 2924.22,-150.89 2929.5,-141.14"/>
<polygon fill="#63b8ff" stroke="#63b8ff" points="1667.55,-692.15 1657.53,-695.6 1667.51,-699.15 1667.55,-692.15"/>
</g>
<!-- Node21&#45;&gt;Node47 -->
<g id="edge114" class="edge">
<title>Node21&#45;&gt;Node47</title>
<path fill="none" stroke="#63b8ff" d="M1667.27,-691.1C1763.84,-685 1929.35,-671.81 1986,-650.5 2008.27,-642.12 2010.43,-633.53 2030,-620 2076.98,-587.52 2132.13,-549.52 2161.7,-529.16"/>
<polygon fill="#63b8ff" stroke="#63b8ff" points="1667.19,-687.66 1657.43,-691.77 1667.63,-694.65 1667.19,-687.66"/>
</g>
<!-- Node21&#45;&gt;Node48 -->
<g id="edge130" class="edge">
<title>Node21&#45;&gt;Node48</title>
<path fill="none" stroke="#63b8ff" d="M1522.44,-692.77C1366.01,-687.45 985.36,-673.16 667,-650.5 638.76,-648.49 607.62,-645.66 580.98,-643.04"/>
<polygon fill="#63b8ff" stroke="#63b8ff" points="1522.2,-696.3 1532.31,-693.14 1522.44,-689.3 1522.2,-696.3"/>
</g>
<!-- Node50 -->
<g id="node48" class="node">
<title>Node50</title>
<g id="a_node48"><a xlink:href="v8-value-serializer_8h.html" target="_top" xlink:title=" ">
<polygon fill="white" stroke="#666666" points="621.62,-584 486.38,-584 486.38,-564.75 621.62,-564.75 621.62,-584"/>
<text text-anchor="middle" x="554" y="-570.5" font-family="Helvetica,sans-Serif" font-size="10.00">include/v8&#45;value&#45;serializer.h</text>
</a>
</g>
</g>
<!-- Node21&#45;&gt;Node50 -->
<g id="edge137" class="edge">
<title>Node21&#45;&gt;Node50</title>
<path fill="none" stroke="#63b8ff" d="M1522.52,-693.53C1343.54,-689.21 890.47,-675.88 827,-650.5 807.53,-642.71 809.93,-629.02 791,-620 737.61,-594.57 670.98,-583.62 621.98,-578.91"/>
<polygon fill="#63b8ff" stroke="#63b8ff" points="1522.32,-697.05 1532.4,-693.79 1522.48,-690.05 1522.32,-697.05"/>
</g>
<!-- Node22&#45;&gt;Node5 -->
<g id="edge30" class="edge">
<title>Node22&#45;&gt;Node5</title>
<path fill="none" stroke="#63b8ff" d="M1263.16,-368.11C1333.4,-352.59 1465.25,-325.02 1579,-310 1809.71,-279.54 2087.73,-266.04 2199.21,-261.56"/>
<polygon fill="#63b8ff" stroke="#63b8ff" points="1262.84,-364.82 1253.84,-370.4 1264.36,-371.65 1262.84,-364.82"/>
</g>
<!-- Node22&#45;&gt;Node8 -->
<g id="edge34" class="edge">
<title>Node22&#45;&gt;Node8</title>
<path fill="none" stroke="#63b8ff" d="M1179.09,-366.01C1140.27,-348.06 1082,-312.36 1082,-259.75 1082,-259.75 1082,-259.75 1082,-124.75 1082,-39.1 1212.26,-17.72 1275.87,-12.39"/>
<polygon fill="#63b8ff" stroke="#63b8ff" points="1177.41,-369.54 1187.97,-370.39 1180.25,-363.14 1177.41,-369.54"/>
</g>
<!-- Node22&#45;&gt;Node23 -->
<g id="edge31" class="edge">
<title>Node22&#45;&gt;Node23</title>
<path fill="none" stroke="#63b8ff" d="M1223.02,-361.06C1228.71,-350.6 1235.57,-337.98 1240.09,-329.65"/>
<polygon fill="#63b8ff" stroke="#63b8ff" points="1219.56,-359.1 1217.86,-369.56 1225.71,-362.44 1219.56,-359.1"/>
</g>
<!-- Node23&#45;&gt;Node8 -->
<g id="edge33" class="edge">
<title>Node23&#45;&gt;Node8</title>
<path fill="none" stroke="#63b8ff" d="M1246.03,-298.69C1247.21,-273.97 1249,-230.51 1249,-193.25 1249,-193.25 1249,-193.25 1249,-124.75 1249,-80.94 1284.39,-37.66 1301.26,-19.51"/>
<polygon fill="#63b8ff" stroke="#63b8ff" points="1242.49,-298.34 1245.49,-308.5 1249.48,-298.69 1242.49,-298.34"/>
</g>
<!-- Node23&#45;&gt;Node15 -->
<g id="edge32" class="edge">
<title>Node23&#45;&gt;Node15</title>
<path fill="none" stroke="#63b8ff" d="M1174.94,-313.59C1012.29,-301.9 612.43,-273.15 474.05,-263.2"/>
<polygon fill="#63b8ff" stroke="#63b8ff" points="1174.54,-317.14 1184.77,-314.37 1175.05,-310.16 1174.54,-317.14"/>
</g>
<!-- Node24&#45;&gt;Node5 -->
<g id="edge37" class="edge">
<title>Node24&#45;&gt;Node5</title>
<path fill="none" stroke="#63b8ff" d="M1711.08,-312.1C1833.51,-300.18 2090.51,-275.17 2198.99,-264.62"/>
<polygon fill="#63b8ff" stroke="#63b8ff" points="1710.99,-308.69 1701.37,-313.14 1711.67,-315.65 1710.99,-308.69"/>
</g>
<!-- Node24&#45;&gt;Node7 -->
<g id="edge36" class="edge">
<title>Node24&#45;&gt;Node7</title>
<path fill="none" stroke="#63b8ff" d="M1689.74,-306.78C1785.85,-281.88 2006.98,-224.6 2092.93,-202.33"/>
<polygon fill="#63b8ff" stroke="#63b8ff" points="1689,-303.61 1680.2,-309.51 1690.76,-310.39 1689,-303.61"/>
</g>
<!-- Node24&#45;&gt;Node25 -->
<g id="edge38" class="edge">
<title>Node24&#45;&gt;Node25</title>
<path fill="none" stroke="#63b8ff" d="M1601.94,-306.55C1562.96,-295.35 1505.85,-278.95 1470.62,-268.83"/>
<polygon fill="#63b8ff" stroke="#63b8ff" points="1600.84,-310.16 1611.42,-309.55 1602.77,-303.43 1600.84,-310.16"/>
</g>
<!-- Node24&#45;&gt;Node28 -->
<g id="edge46" class="edge">
<title>Node24&#45;&gt;Node28</title>
<path fill="none" stroke="#63b8ff" d="M1620.23,-303.87C1578.04,-277.68 1491.23,-223.8 1456.67,-202.35"/>
<polygon fill="#63b8ff" stroke="#63b8ff" points="1618.13,-307.31 1628.47,-309.61 1621.82,-301.36 1618.13,-307.31"/>
</g>
<!-- Node25&#45;&gt;Node8 -->
<g id="edge45" class="edge">
<title>Node25&#45;&gt;Node8</title>
<path fill="none" stroke="#63b8ff" d="M1418.5,-242.09C1407.66,-232.96 1394.82,-220.67 1386,-207.5 1342.36,-142.36 1318.57,-48.55 1311.94,-19.52"/>
<polygon fill="#63b8ff" stroke="#63b8ff" points="1416.02,-245.39 1425.99,-248.96 1420.42,-239.95 1416.02,-245.39"/>
</g>
<!-- Node25&#45;&gt;Node17 -->
<g id="edge39" class="edge">
<title>Node25&#45;&gt;Node17</title>
<path fill="none" stroke="#63b8ff" d="M1500.22,-246.78C1570.05,-234.27 1682.97,-214.04 1748.15,-202.36"/>
<polygon fill="#63b8ff" stroke="#63b8ff" points="1500.04,-243.44 1490.82,-248.65 1501.28,-250.33 1500.04,-243.44"/>
</g>
<!-- Node25&#45;&gt;Node26 -->
<g id="edge40" class="edge">
<title>Node25&#45;&gt;Node26</title>
<path fill="none" stroke="#63b8ff" d="M1372.79,-248.61C1276.18,-235.26 1099.12,-210.81 1016.57,-199.41"/>
<polygon fill="#63b8ff" stroke="#63b8ff" points="1372.21,-252.2 1382.6,-250.1 1373.17,-245.26 1372.21,-252.2"/>
</g>
<!-- Node25&#45;&gt;Node27 -->
<g id="edge42" class="edge">
<title>Node25&#45;&gt;Node27</title>
<path fill="none" stroke="#63b8ff" d="M1465.49,-243.63C1489.07,-231.06 1522.87,-213.04 1543.01,-202.31"/>
<polygon fill="#63b8ff" stroke="#63b8ff" points="1464.26,-240.85 1457.08,-248.65 1467.55,-247.03 1464.26,-240.85"/>
</g>
<!-- Node25&#45;&gt;Node28 -->
<g id="edge43" class="edge">
<title>Node25&#45;&gt;Node28</title>
<path fill="none" stroke="#63b8ff" d="M1439.92,-238.02C1440.47,-226.05 1441.16,-211.35 1441.59,-202.14"/>
<polygon fill="#63b8ff" stroke="#63b8ff" points="1436.39,-237.63 1439.42,-247.78 1443.38,-237.95 1436.39,-237.63"/>
</g>
<!-- Node26&#45;&gt;Node8 -->
<g id="edge41" class="edge">
<title>Node26&#45;&gt;Node8</title>
<path fill="none" stroke="#63b8ff" d="M974.44,-171.34C979.27,-141.11 993.01,-84.13 1030,-55.25 1067.73,-25.79 1209.76,-15.34 1275.82,-12.01"/>
<polygon fill="#63b8ff" stroke="#63b8ff" points="970.85,-170.77 972.91,-181.16 977.78,-171.75 970.85,-170.77"/>
</g>
<!-- Node28&#45;&gt;Node8 -->
<g id="edge44" class="edge">
<title>Node28&#45;&gt;Node8</title>
<path fill="none" stroke="#63b8ff" d="M1429.23,-173.62C1410.41,-147.65 1374.1,-97.63 1343,-55.25 1333.88,-42.82 1323.27,-28.5 1316.59,-19.5"/>
<polygon fill="#63b8ff" stroke="#63b8ff" points="1426.83,-175.28 1435.54,-181.32 1432.5,-171.17 1426.83,-175.28"/>
</g>
<!-- Node30&#45;&gt;Node8 -->
<g id="edge48" class="edge">
<title>Node30&#45;&gt;Node8</title>
<path fill="none" stroke="#63b8ff" d="M608.29,-364.26C620.39,-355.31 634.57,-343.06 644,-329.25 662.42,-302.26 668,-292.43 668,-259.75 668,-259.75 668,-259.75 668,-124.75 668,-63.5 728.61,-73.75 787,-55.25 878.65,-26.21 1174.51,-14.72 1275.7,-11.58"/>
<polygon fill="#63b8ff" stroke="#63b8ff" points="606.71,-361.8 600.56,-370.42 610.75,-367.51 606.71,-361.8"/>
</g>
<!-- Node31&#45;&gt;Node5 -->
<g id="edge53" class="edge">
<title>Node31&#45;&gt;Node5</title>
<path fill="none" stroke="#63b8ff" d="M1917.21,-619.68C1958.8,-594.68 2046.51,-542.09 2121,-498.25 2148.46,-482.09 2155.94,-479.08 2183,-462.25 2228.32,-434.06 2257.79,-442.79 2283,-395.75 2306.57,-351.77 2270.59,-291.02 2255.32,-268.56"/>
<polygon fill="#63b8ff" stroke="#63b8ff" points="1915.67,-617.13 1908.9,-625.28 1919.28,-623.12 1915.67,-617.13"/>
</g>
<!-- Node31&#45;&gt;Node8 -->
<g id="edge97" class="edge">
<title>Node31&#45;&gt;Node8</title>
<path fill="none" stroke="#63b8ff" d="M1948.68,-624.21C2047.91,-604.57 2259.45,-554.71 2415,-462.25 2560.36,-375.85 2659.27,-247.39 2560,-110.5 2513.61,-46.53 2468.77,-69.29 2391,-55.25 2182.93,-17.69 1504.84,-11.68 1344.3,-10.78"/>
<polygon fill="#63b8ff" stroke="#63b8ff" points="1948.15,-620.94 1939.01,-626.29 1949.49,-627.81 1948.15,-620.94"/>
</g>
<!-- Node31&#45;&gt;Node13 -->
<g id="edge52" class="edge">
<title>Node31&#45;&gt;Node13</title>
<path fill="none" stroke="#63b8ff" d="M1948.76,-627.69C2029.99,-617.84 2176.76,-598.78 2228,-584 2357.6,-546.62 2397.61,-542.53 2506,-462.25 2568.56,-415.91 2582.33,-397.38 2620,-329.25 2658.13,-260.3 2676.53,-165.12 2681.55,-135.75"/>
<polygon fill="#63b8ff" stroke="#63b8ff" points="1948.74,-624.29 1939.23,-628.97 1949.58,-631.24 1948.74,-624.29"/>
</g>
<!-- Node31&#45;&gt;Node18 -->
<g id="edge87" class="edge">
<title>Node31&#45;&gt;Node18</title>
<path fill="none" stroke="#63b8ff" d="M1901.58,-615.62C1919.23,-576.14 1959.14,-480.67 1973,-395.75 1976.89,-371.9 1970.54,-343.52 1966.66,-329.45"/>
<polygon fill="#63b8ff" stroke="#63b8ff" points="1898.08,-613.87 1897.14,-624.42 1904.45,-616.76 1898.08,-613.87"/>
</g>
<!-- Node31&#45;&gt;Node24 -->
<g id="edge51" class="edge">
<title>Node31&#45;&gt;Node24</title>
<path fill="none" stroke="#63b8ff" d="M1893.75,-614.71C1894.17,-574.78 1889.33,-483.25 1840,-431.75 1790.22,-379.77 1710.74,-345.1 1669.98,-329.72"/>
<polygon fill="#63b8ff" stroke="#63b8ff" points="1890.23,-614.47 1893.48,-624.55 1897.23,-614.64 1890.23,-614.47"/>
</g>
<!-- Node31&#45;&gt;Node28 -->
<g id="edge86" class="edge">
<title>Node31&#45;&gt;Node28</title>
<path fill="none" stroke="#63b8ff" d="M1867.16,-620.05C1836,-601.97 1783.42,-568.3 1748,-528.75 1725.29,-503.39 1718.85,-495.12 1710,-462.25 1692.42,-396.91 1746.09,-366.6 1709,-310 1681.69,-268.32 1538.3,-221.65 1473.66,-202.35"/>
<polygon fill="#63b8ff" stroke="#63b8ff" points="1865.05,-623.45 1875.47,-625.36 1868.52,-617.37 1865.05,-623.45"/>
</g>
<!-- Node31&#45;&gt;Node32 -->
<g id="edge54" class="edge">
<title>Node31&#45;&gt;Node32</title>
<path fill="none" stroke="#63b8ff" d="M1880.82,-616.46C1863.08,-590.56 1830.78,-543.38 1817.23,-523.61"/>
<polygon fill="#63b8ff" stroke="#63b8ff" points="1878.3,-617.98 1886.84,-624.25 1884.07,-614.02 1878.3,-617.98"/>
</g>
<!-- Node31&#45;&gt;Node42 -->
<g id="edge88" class="edge">
<title>Node31&#45;&gt;Node42</title>
<path fill="none" stroke="#63b8ff" d="M1837.14,-633.85C1674.07,-632.22 1184.7,-624.09 781,-584 778.16,-583.72 775.25,-583.39 772.31,-583.03"/>
<polygon fill="#63b8ff" stroke="#63b8ff" points="1836.82,-637.36 1846.86,-633.95 1836.89,-630.36 1836.82,-637.36"/>
</g>
<!-- Node32&#45;&gt;Node5 -->
<g id="edge58" class="edge">
<title>Node32&#45;&gt;Node5</title>
<path fill="none" stroke="#63b8ff" d="M1852.25,-500.25C1880.02,-491.31 1917.09,-478.03 1948,-462.25 2068.89,-400.55 2199.55,-299.23 2237.86,-268.72"/>
<polygon fill="#63b8ff" stroke="#63b8ff" points="1851.57,-497.11 1843.09,-503.46 1853.68,-503.78 1851.57,-497.11"/>
</g>
<!-- Node32&#45;&gt;Node8 -->
<g id="edge85" class="edge">
<title>Node32&#45;&gt;Node8</title>
<path fill="none" stroke="#63b8ff" d="M1835.25,-497.89C1868.31,-477.37 1928.49,-437.77 1973,-395.75 2000.69,-369.61 2014.27,-365.13 2027,-329.25 2070.36,-207.08 2043.23,-112.65 1927,-55.25 1874.64,-29.39 1465.88,-15.26 1344.11,-11.59"/>
<polygon fill="#63b8ff" stroke="#63b8ff" points="1833.98,-495.18 1827.3,-503.4 1837.65,-501.14 1833.98,-495.18"/>
</g>
<!-- Node32&#45;&gt;Node16 -->
<g id="edge57" class="edge">
<title>Node32&#45;&gt;Node16</title>
<path fill="none" stroke="#63b8ff" d="M1865.98,-501.21C1925.26,-489.03 2018.77,-469.82 2075.73,-458.12"/>
<polygon fill="#63b8ff" stroke="#63b8ff" points="1865.41,-497.95 1856.32,-503.4 1866.82,-504.81 1865.41,-497.95"/>
</g>
<!-- Node32&#45;&gt;Node25 -->
<g id="edge59" class="edge">
<title>Node32&#45;&gt;Node25</title>
<path fill="none" stroke="#63b8ff" d="M1780.29,-498.98C1759.87,-489.57 1732.73,-476.24 1710,-462.25 1602.46,-396.06 1484.41,-298.22 1449.35,-268.58"/>
<polygon fill="#63b8ff" stroke="#63b8ff" points="1778.75,-502.58 1789.3,-503.53 1781.65,-496.21 1778.75,-502.58"/>
</g>
<!-- Node32&#45;&gt;Node33 -->
<g id="edge55" class="edge">
<title>Node32&#45;&gt;Node33</title>
<path fill="none" stroke="#63b8ff" d="M1800.82,-494.25C1794,-482.04 1785.32,-466.49 1779.96,-456.89"/>
<polygon fill="#63b8ff" stroke="#63b8ff" points="1798.06,-495.51 1805.99,-502.53 1804.18,-492.09 1798.06,-495.51"/>
</g>
<!-- Node32&#45;&gt;Node34 -->
<g id="edge60" class="edge">
<title>Node32&#45;&gt;Node34</title>
<path fill="none" stroke="#63b8ff" d="M1746.07,-506.14C1614.2,-493.24 1317.66,-464.21 1200.73,-452.77"/>
<polygon fill="#63b8ff" stroke="#63b8ff" points="1745.5,-509.7 1755.79,-507.19 1746.18,-502.74 1745.5,-509.7"/>
</g>
<!-- Node33&#45;&gt;Node8 -->
<g id="edge56" class="edge">
<title>Node33&#45;&gt;Node8</title>
<path fill="none" stroke="#63b8ff" d="M1770.38,-426.51C1763.43,-399.28 1748.75,-348.82 1727,-310 1689.78,-243.57 1677.66,-225.55 1619,-177 1524.89,-99.11 1388.65,-41.17 1334,-19.71"/>
<polygon fill="#63b8ff" stroke="#63b8ff" points="1767.16,-427.09 1772.95,-435.96 1773.96,-425.41 1767.16,-427.09"/>
</g>
<!-- Node34&#45;&gt;Node8 -->
<g id="edge84" class="edge">
<title>Node34&#45;&gt;Node8</title>
<path fill="none" stroke="#63b8ff" d="M1106.52,-434.19C1061.41,-422.13 997.77,-404.03 989,-395.75 914.79,-325.65 887.31,-274.04 919,-177 939.81,-113.28 950.62,-89.89 1008,-55.25 1052.58,-28.34 1206.65,-16.45 1275.87,-12.37"/>
<polygon fill="#63b8ff" stroke="#63b8ff" points="1105.41,-437.78 1115.97,-436.97 1107.2,-431.02 1105.41,-437.78"/>
</g>
<!-- Node34&#45;&gt;Node14 -->
<g id="edge78" class="edge">
<title>Node34&#45;&gt;Node14</title>
<path fill="none" stroke="#63b8ff" d="M1148.62,-426.36C1147.2,-417.1 1145.7,-405.89 1145,-395.75 1144.06,-382.23 1141.48,-378.34 1145,-365.25 1152.36,-337.85 1157.36,-330.48 1177,-310 1253.21,-230.54 1281.68,-212.22 1386,-177 1627.57,-95.43 2444.83,-71.62 2649.98,-66.86"/>
<polygon fill="#63b8ff" stroke="#63b8ff" points="1145.32,-426.84 1150.39,-436.14 1152.23,-425.71 1145.32,-426.84"/>
</g>
<!-- Node34&#45;&gt;Node17 -->
<g id="edge69" class="edge">
<title>Node34&#45;&gt;Node17</title>
<path fill="none" stroke="#63b8ff" d="M1185.4,-433C1211.45,-422.86 1248.53,-408.42 1281,-395.75 1472.15,-321.16 1702.88,-230.87 1775.77,-202.34"/>
<polygon fill="#63b8ff" stroke="#63b8ff" points="1184.36,-430.04 1176.31,-436.93 1186.9,-436.56 1184.36,-430.04"/>
</g>
<!-- Node34&#45;&gt;Node18 -->
<g id="edge81" class="edge">
<title>Node34&#45;&gt;Node18</title>
<path fill="none" stroke="#63b8ff" d="M1211.66,-444.3C1392.81,-438.86 1925.79,-420.79 1953,-395.75 1971.43,-378.79 1968.56,-345.62 1965.86,-329.65"/>
<polygon fill="#63b8ff" stroke="#63b8ff" points="1211.65,-440.83 1201.76,-444.62 1211.85,-447.82 1211.65,-440.83"/>
</g>
<!-- Node34&#45;&gt;Node22 -->
<g id="edge61" class="edge">
<title>Node34&#45;&gt;Node22</title>
<path fill="none" stroke="#63b8ff" d="M1167.88,-429.2C1179.63,-416.79 1195.15,-400.37 1204.59,-390.39"/>
<polygon fill="#63b8ff" stroke="#63b8ff" points="1165.81,-426.36 1161.48,-436.03 1170.9,-431.17 1165.81,-426.36"/>
</g>
<!-- Node34&#45;&gt;Node30 -->
<g id="edge62" class="edge">
<title>Node34&#45;&gt;Node30</title>
<path fill="none" stroke="#63b8ff" d="M1092.16,-440.14C1003.56,-431.32 832.28,-413.74 687,-395.75 671.92,-393.88 655.61,-391.68 640.54,-389.58"/>
<polygon fill="#63b8ff" stroke="#63b8ff" points="1091.77,-443.71 1102.07,-441.22 1092.47,-436.75 1091.77,-443.71"/>
</g>
<!-- Node34&#45;&gt;Node35 -->
<g id="edge63" class="edge">
<title>Node34&#45;&gt;Node35</title>
<path fill="none" stroke="#63b8ff" d="M1092.65,-439.82C1021.51,-431.91 898.88,-416.69 795,-395.75 787.78,-394.29 780.08,-392.45 772.83,-390.57"/>
<polygon fill="#63b8ff" stroke="#63b8ff" points="1091.86,-443.36 1102.19,-440.98 1092.63,-436.41 1091.86,-443.36"/>
</g>
<!-- Node34&#45;&gt;Node36 -->
<g id="edge65" class="edge">
<title>Node34&#45;&gt;Node36</title>
<path fill="none" stroke="#63b8ff" d="M1211.72,-440.77C1351.01,-428.56 1695.85,-398.34 1831.71,-386.43"/>
<polygon fill="#63b8ff" stroke="#63b8ff" points="1211.52,-437.36 1201.86,-441.72 1212.13,-444.33 1211.52,-437.36"/>
</g>
<!-- Node34&#45;&gt;Node37 -->
<g id="edge70" class="edge">
<title>Node34&#45;&gt;Node37</title>
<path fill="none" stroke="#63b8ff" d="M1099.35,-434.6C1044.29,-422.69 958.48,-404.11 904.31,-392.39"/>
<polygon fill="#63b8ff" stroke="#63b8ff" points="1098.42,-438.2 1108.94,-436.9 1099.9,-431.36 1098.42,-438.2"/>
</g>
<!-- Node34&#45;&gt;Node38 -->
<g id="edge72" class="edge">
<title>Node34&#45;&gt;Node38</title>
<path fill="none" stroke="#63b8ff" d="M1211.15,-434.88C1277.74,-422.35 1384.7,-402.24 1446.55,-390.61"/>
<polygon fill="#63b8ff" stroke="#63b8ff" points="1210.6,-431.61 1201.42,-436.9 1211.89,-438.49 1210.6,-431.61"/>
</g>
<!-- Node34&#45;&gt;Node40 -->
<g id="edge79" class="edge">
<title>Node34&#45;&gt;Node40</title>
<path fill="none" stroke="#63b8ff" d="M1128.37,-431.35C1108.17,-418.82 1079.75,-401.19 1062.67,-390.6"/>
<polygon fill="#63b8ff" stroke="#63b8ff" points="1126.2,-434.74 1136.54,-437.03 1129.89,-428.79 1126.2,-434.74"/>
</g>
<!-- Node34&#45;&gt;Node41 -->
<g id="edge82" class="edge">
<title>Node34&#45;&gt;Node41</title>
<path fill="none" stroke="#63b8ff" d="M1211.53,-443.67C1472.2,-433.45 2510.52,-392.73 2748.31,-383.41"/>
<polygon fill="#63b8ff" stroke="#63b8ff" points="1211.64,-440.2 1201.79,-444.09 1211.91,-447.19 1211.64,-440.2"/>
</g>
<!-- Node35&#45;&gt;Node8 -->
<g id="edge64" class="edge">
<title>Node35&#45;&gt;Node8</title>
<path fill="none" stroke="#63b8ff" d="M747.28,-360.34C754.39,-336.89 765,-295.85 765,-259.75 765,-259.75 765,-259.75 765,-124.75 765,-83.65 789.38,-73.91 826,-55.25 904.76,-15.12 1178.75,-10.79 1275.69,-10.54"/>
<polygon fill="#63b8ff" stroke="#63b8ff" points="743.71,-359.02 744.04,-369.61 750.38,-361.12 743.71,-359.02"/>
</g>
<!-- Node36&#45;&gt;Node5 -->
<g id="edge66" class="edge">
<title>Node36&#45;&gt;Node5</title>
<path fill="none" stroke="#63b8ff" d="M1886,-360.12C1885.54,-344.36 1887.73,-322.73 1901,-310 1942.74,-269.96 2113.37,-261.66 2199.2,-260.06"/>
<polygon fill="#63b8ff" stroke="#63b8ff" points="1882.56,-360.04 1886.74,-369.78 1889.54,-359.56 1882.56,-360.04"/>
</g>
<!-- Node36&#45;&gt;Node8 -->
<g id="edge68" class="edge">
<title>Node36&#45;&gt;Node8</title>
<path fill="none" stroke="#63b8ff" d="M1886.6,-359.89C1884.31,-325.96 1880,-254.07 1880,-193.25 1880,-193.25 1880,-193.25 1880,-124.75 1880,-14.87 1467.61,-9.35 1344.37,-10.15"/>
<polygon fill="#63b8ff" stroke="#63b8ff" points="1883.16,-359.85 1887.35,-369.59 1890.14,-359.37 1883.16,-359.85"/>
</g>
<!-- Node36&#45;&gt;Node18 -->
<g id="edge67" class="edge">
<title>Node36&#45;&gt;Node18</title>
<path fill="none" stroke="#63b8ff" d="M1908.09,-363.94C1922.2,-353.01 1940.59,-338.76 1952.35,-329.65"/>
<polygon fill="#63b8ff" stroke="#63b8ff" points="1906.3,-361.67 1900.54,-370.56 1910.59,-367.2 1906.3,-361.67"/>
</g>
<!-- Node37&#45;&gt;Node8 -->
<g id="edge71" class="edge">
<title>Node37&#45;&gt;Node8</title>
<path fill="none" stroke="#63b8ff" d="M844.03,-354.78C835.3,-330.87 824,-293.42 824,-259.75 824,-259.75 824,-259.75 824,-124.75 824,-92.07 822.33,-75.47 848,-55.25 881.43,-28.91 1174.28,-15.66 1275.65,-11.82"/>
<polygon fill="#63b8ff" stroke="#63b8ff" points="841.11,-355.94 847.93,-364.04 847.65,-353.45 841.11,-355.94"/>
</g>
<!-- Node38&#45;&gt;Node8 -->
<g id="edge77" class="edge">
<title>Node38&#45;&gt;Node8</title>
<path fill="none" stroke="#63b8ff" d="M1470.86,-364.39C1443.7,-346.17 1400.1,-313.08 1375,-274 1319.01,-186.82 1311.25,-54.97 1310.17,-19.61"/>
<polygon fill="#63b8ff" stroke="#63b8ff" points="1468.78,-367.86 1479.06,-370.41 1472.61,-362.01 1468.78,-367.86"/>
</g>
<!-- Node38&#45;&gt;Node24 -->
<g id="edge73" class="edge">
<title>Node38&#45;&gt;Node24</title>
<path fill="none" stroke="#63b8ff" d="M1528.18,-366.39C1556.49,-355.2 1596.45,-339.41 1621.26,-329.61"/>
<polygon fill="#63b8ff" stroke="#63b8ff" points="1526.97,-363.5 1518.95,-370.43 1529.54,-370.01 1526.97,-363.5"/>
</g>
<!-- Node38&#45;&gt;Node39 -->
<g id="edge74" class="edge">
<title>Node38&#45;&gt;Node39</title>
<path fill="none" stroke="#63b8ff" d="M1558.89,-375.38C1729.38,-364.4 2192.99,-334.54 2353.45,-324.2"/>
<polygon fill="#63b8ff" stroke="#63b8ff" points="1558.85,-371.94 1549.09,-376.08 1559.3,-378.93 1558.85,-371.94"/>
</g>
<!-- Node39&#45;&gt;Node5 -->
<g id="edge75" class="edge">
<title>Node39&#45;&gt;Node5</title>
<path fill="none" stroke="#63b8ff" d="M2374.2,-305.82C2343.85,-294.65 2300.58,-278.73 2273.68,-268.83"/>
<polygon fill="#63b8ff" stroke="#63b8ff" points="2372.76,-309.39 2383.35,-309.55 2375.17,-302.82 2372.76,-309.39"/>
</g>
<!-- Node39&#45;&gt;Node8 -->
<g id="edge76" class="edge">
<title>Node39&#45;&gt;Node8</title>
<path fill="none" stroke="#63b8ff" d="M2432.43,-303.51C2461.71,-282.58 2508,-241.8 2508,-193.25 2508,-193.25 2508,-193.25 2508,-124.75 2508,56.13 2286.71,-75.78 2107,-55.25 1813.03,-21.66 1455.06,-13.06 1344.3,-11.13"/>
<polygon fill="#63b8ff" stroke="#63b8ff" points="2430.86,-301.04 2424.61,-309.59 2434.83,-306.8 2430.86,-301.04"/>
</g>
<!-- Node40&#45;&gt;Node8 -->
<g id="edge80" class="edge">
<title>Node40&#45;&gt;Node8</title>
<path fill="none" stroke="#63b8ff" d="M1046.94,-359.78C1045.75,-336.06 1044,-295 1044,-259.75 1044,-259.75 1044,-259.75 1044,-124.75 1044,-25 1203.93,-11.33 1275.77,-10.21"/>
<polygon fill="#63b8ff" stroke="#63b8ff" points="1043.48,-359.69 1047.49,-369.49 1050.47,-359.32 1043.48,-359.69"/>
</g>
<!-- Node41&#45;&gt;Node8 -->
<g id="edge83" class="edge">
<title>Node41&#45;&gt;Node8</title>
<path fill="none" stroke="#63b8ff" d="M2803.86,-360.2C2823.59,-300.92 2872.92,-121.45 2773,-55.25 2711.53,-14.53 1558.69,-10.97 1344.2,-10.65"/>
<polygon fill="#63b8ff" stroke="#63b8ff" points="2800.3,-358.79 2800.36,-369.39 2806.92,-361.07 2800.3,-358.79"/>
</g>
<!-- Node42&#45;&gt;Node8 -->
<g id="edge96" class="edge">
<title>Node42&#45;&gt;Node8</title>
<path fill="none" stroke="#63b8ff" d="M666.69,-567.55C556.99,-556.52 330.22,-533.24 323,-528.75 229.78,-470.78 190,-430.4 190,-320.62 190,-320.62 190,-320.62 190,-124.75 190,-12.73 1088.17,-9.82 1275.87,-10.43"/>
<polygon fill="#63b8ff" stroke="#63b8ff" points="666.26,-571.13 676.56,-568.65 666.96,-564.17 666.26,-571.13"/>
</g>
<!-- Node42&#45;&gt;Node15 -->
<g id="edge93" class="edge">
<title>Node42&#45;&gt;Node15</title>
<path fill="none" stroke="#63b8ff" d="M700.21,-558.92C654.42,-531.39 555.16,-467.73 488,-395.75 463.99,-370.02 459.37,-361.38 445,-329.25 436.88,-311.09 431.52,-288.68 428.62,-274.3"/>
<polygon fill="#63b8ff" stroke="#63b8ff" points="698,-562.28 708.39,-564.38 701.58,-556.26 698,-562.28"/>
</g>
<!-- Node42&#45;&gt;Node32 -->
<g id="edge95" class="edge">
<title>Node42&#45;&gt;Node32</title>
<path fill="none" stroke="#63b8ff" d="M783.21,-564.64C1161.61,-526.94 1605.13,-517.42 1756.96,-515.16"/>
<polygon fill="#63b8ff" stroke="#63b8ff" points="782.91,-561.25 773.31,-565.73 783.61,-568.22 782.91,-561.25"/>
</g>
<!-- Node42&#45;&gt;Node34 -->
<g id="edge94" class="edge">
<title>Node42&#45;&gt;Node34</title>
<path fill="none" stroke="#63b8ff" d="M724.54,-553.48C725.29,-536.2 729.37,-511.87 745,-498.25 797.47,-452.53 1007.16,-447.34 1103.34,-447.43"/>
<polygon fill="#63b8ff" stroke="#63b8ff" points="721.03,-553.3 724.45,-563.33 728.03,-553.36 721.03,-553.3"/>
</g>
<!-- Node43 -->
<g id="node41" class="node">
<title>Node43</title>
<g id="a_node41"><a xlink:href="v8-cpp-heap-external_8h.html" target="_top" xlink:title=" ">
<polygon fill="white" stroke="#666666" points="856.5,-528.75 753.5,-528.75 753.5,-498.25 856.5,-498.25 856.5,-528.75"/>
<text text-anchor="start" x="761.5" y="-515.25" font-family="Helvetica,sans-Serif" font-size="10.00">include/v8&#45;cpp&#45;heap</text>
<text text-anchor="middle" x="805" y="-504" font-family="Helvetica,sans-Serif" font-size="10.00">&#45;external.h</text>
</a>
</g>
</g>
<!-- Node42&#45;&gt;Node43 -->
<g id="edge89" class="edge">
<title>Node42&#45;&gt;Node43</title>
<path fill="none" stroke="#63b8ff" d="M745.75,-558.1C757.94,-549.14 773.25,-537.87 785.25,-529.03"/>
<polygon fill="#63b8ff" stroke="#63b8ff" points="744.13,-555.69 738.15,-564.43 748.28,-561.32 744.13,-555.69"/>
</g>
<!-- Node44 -->
<g id="node42" class="node">
<title>Node44</title>
<g id="a_node42"><a xlink:href="v8-external_8h.html" target="_top" xlink:title=" ">
<polygon fill="white" stroke="#666666" points="322.25,-329.25 217.75,-329.25 217.75,-310 322.25,-310 322.25,-329.25"/>
<text text-anchor="middle" x="270" y="-315.75" font-family="Helvetica,sans-Serif" font-size="10.00">include/v8&#45;external.h</text>
</a>
</g>
</g>
<!-- Node42&#45;&gt;Node44 -->
<g id="edge90" class="edge">
<title>Node42&#45;&gt;Node44</title>
<path fill="none" stroke="#63b8ff" d="M666.94,-562.07C600.87,-547.19 491.79,-516.36 412,-462.25 352.06,-421.61 295.78,-353.51 276.78,-329.41"/>
<polygon fill="#63b8ff" stroke="#63b8ff" points="666.04,-565.67 676.56,-564.41 667.55,-558.84 666.04,-565.67"/>
</g>
<!-- Node44&#45;&gt;Node8 -->
<g id="edge92" class="edge">
<title>Node44&#45;&gt;Node8</title>
<path fill="none" stroke="#63b8ff" d="M279.98,-299.92C291.82,-275.92 310,-232.68 310,-193.25 310,-193.25 310,-193.25 310,-124.75 310,-25.31 1100.61,-12.48 1275.87,-10.86"/>
<polygon fill="#63b8ff" stroke="#63b8ff" points="276.51,-298.01 275.07,-308.51 282.74,-301.2 276.51,-298.01"/>
</g>
<!-- Node44&#45;&gt;Node15 -->
<g id="edge91" class="edge">
<title>Node44&#45;&gt;Node15</title>
<path fill="none" stroke="#63b8ff" d="M304.28,-305.69C328.72,-296.46 361.63,-284.04 387.06,-274.44"/>
<polygon fill="#63b8ff" stroke="#63b8ff" points="303.15,-302.75 295.03,-309.55 305.62,-309.3 303.15,-302.75"/>
</g>
<!-- Node46&#45;&gt;Node8 -->
<g id="edge112" class="edge">
<title>Node46&#45;&gt;Node8</title>
<path fill="none" stroke="#63b8ff" d="M2922.74,-101.15C2910.81,-84.99 2892.66,-64.82 2871,-55.25 2798.81,-23.35 1566.24,-12.56 1344.14,-10.87"/>
<polygon fill="#63b8ff" stroke="#63b8ff" points="2920.41,-102.92 2929.02,-109.09 2926.14,-98.9 2920.41,-102.92"/>
</g>
<!-- Node47&#45;&gt;Node5 -->
<g id="edge115" class="edge">
<title>Node47&#45;&gt;Node5</title>
<path fill="none" stroke="#63b8ff" d="M2247.01,-498.94C2288.23,-489.23 2337.14,-475.57 2354,-462.25 2380.71,-441.15 2383.26,-428.65 2392,-395.75 2395.48,-382.65 2398.11,-377.35 2392,-365.25 2390.18,-361.65 2296.02,-293.61 2261.51,-268.75"/>
<polygon fill="#63b8ff" stroke="#63b8ff" points="2246.41,-495.72 2237.45,-501.38 2247.98,-502.54 2246.41,-495.72"/>
</g>
<!-- Node47&#45;&gt;Node8 -->
<g id="edge119" class="edge">
<title>Node47&#45;&gt;Node8</title>
<path fill="none" stroke="#63b8ff" d="M2246.68,-498.69C2300.21,-486.69 2369.77,-470.05 2381,-462.25 2496.19,-382.24 2546,-333.5 2546,-193.25 2546,-193.25 2546,-193.25 2546,-124.75 2546,-79.15 2896.69,-144.9 2316,-55.25 2122.49,-25.37 1497.4,-13.61 1344.16,-11.14"/>
<polygon fill="#63b8ff" stroke="#63b8ff" points="2246.21,-495.43 2237.21,-501.02 2247.73,-502.26 2246.21,-495.43"/>
</g>
<!-- Node47&#45;&gt;Node19 -->
<g id="edge118" class="edge">
<title>Node47&#45;&gt;Node19</title>
<path fill="none" stroke="#63b8ff" d="M2192.15,-488.05C2203.17,-458.58 2221.14,-410.53 2228.6,-390.6"/>
<polygon fill="#63b8ff" stroke="#63b8ff" points="2188.66,-486.39 2188.43,-496.98 2195.21,-488.84 2188.66,-486.39"/>
</g>
<!-- Node47&#45;&gt;Node27 -->
<g id="edge117" class="edge">
<title>Node47&#45;&gt;Node27</title>
<path fill="none" stroke="#63b8ff" d="M2214.99,-491.63C2255.73,-462.48 2317.02,-408.31 2283,-365.25 2198.37,-258.12 1759.59,-210.57 1610.01,-197.31"/>
<polygon fill="#63b8ff" stroke="#63b8ff" points="2213.34,-489.21 2207.14,-497.8 2217.35,-494.95 2213.34,-489.21"/>
</g>
<!-- Node47&#45;&gt;Node34 -->
<g id="edge116" class="edge">
<title>Node47&#45;&gt;Node34</title>
<path fill="none" stroke="#63b8ff" d="M2118.81,-508.48C1928.48,-496.58 1369.99,-461.64 1201,-451.07"/>
<polygon fill="#63b8ff" stroke="#63b8ff" points="2118.54,-512.04 2128.74,-509.17 2118.98,-505.05 2118.54,-512.04"/>
</g>
<!-- Node48&#45;&gt;Node2 -->
<g id="edge131" class="edge">
<title>Node48&#45;&gt;Node2</title>
<path fill="none" stroke="#63b8ff" d="M472.96,-622.24C432.84,-611.05 373.88,-594.59 337.54,-584.46"/>
<polygon fill="#63b8ff" stroke="#63b8ff" points="471.92,-625.86 482.49,-625.18 473.8,-619.12 471.92,-625.86"/>
</g>
<!-- Node48&#45;&gt;Node8 -->
<g id="edge135" class="edge">
<title>Node48&#45;&gt;Node8</title>
<path fill="none" stroke="#63b8ff" d="M481.46,-621.32C457.16,-611.85 424.08,-598.22 396,-584 385.36,-578.61 313.13,-536.43 304,-528.75 184.06,-427.87 76,-416.47 76,-259.75 76,-259.75 76,-259.75 76,-124.75 76,-28.12 187.01,-72.97 282,-55.25 479.01,-18.51 1120.38,-11.89 1275.83,-10.82"/>
<polygon fill="#63b8ff" stroke="#63b8ff" points="480.04,-624.91 490.63,-625.24 482.56,-618.38 480.04,-624.91"/>
</g>
<!-- Node48&#45;&gt;Node34 -->
<g id="edge134" class="edge">
<title>Node48&#45;&gt;Node34</title>
<path fill="none" stroke="#63b8ff" d="M553.5,-621.5C576.79,-612.72 606.79,-599.8 631,-584 678.08,-553.26 672.92,-521.73 724,-498.25 790.53,-467.67 1005.56,-454.47 1103.09,-449.96"/>
<polygon fill="#63b8ff" stroke="#63b8ff" points="552.49,-618.51 544.31,-625.24 554.91,-625.08 552.49,-618.51"/>
</g>
<!-- Node49 -->
<g id="node47" class="node">
<title>Node49</title>
<g id="a_node47"><a xlink:href="v8-embedder-heap_8h.html" target="_top" xlink:title=" ">
<polygon fill="white" stroke="#666666" points="438,-528.75 332,-528.75 332,-498.25 438,-498.25 438,-528.75"/>
<text text-anchor="start" x="340" y="-515.25" font-family="Helvetica,sans-Serif" font-size="10.00">include/v8&#45;embedder</text>
<text text-anchor="middle" x="385" y="-504" font-family="Helvetica,sans-Serif" font-size="10.00">&#45;heap.h</text>
</a>
</g>
</g>
<!-- Node48&#45;&gt;Node49 -->
<g id="edge132" class="edge">
<title>Node48&#45;&gt;Node49</title>
<path fill="none" stroke="#63b8ff" d="M498.35,-618.11C472.71,-594.68 425.56,-551.58 400.93,-529.06"/>
<polygon fill="#63b8ff" stroke="#63b8ff" points="495.41,-620.09 505.15,-624.25 500.13,-614.92 495.41,-620.09"/>
</g>
<!-- Node49&#45;&gt;Node5 -->
<g id="edge133" class="edge">
<title>Node49&#45;&gt;Node5</title>
<path fill="none" stroke="#63b8ff" d="M398.89,-488.66C420.24,-454.52 464.66,-392.79 521,-365.25 675.34,-289.82 1932.21,-264.98 2199.24,-260.52"/>
<polygon fill="#63b8ff" stroke="#63b8ff" points="395.47,-486.55 393.25,-496.91 401.44,-490.19 395.47,-486.55"/>
</g>
<!-- Node50&#45;&gt;Node8 -->
<g id="edge138" class="edge">
<title>Node50&#45;&gt;Node8</title>
<path fill="none" stroke="#63b8ff" d="M539.08,-555.92C508.83,-518.29 446.51,-427.88 488,-365.25 510.66,-331.05 545.99,-360.13 573,-329.25 594.08,-305.14 592,-291.77 592,-259.75 592,-259.75 592,-259.75 592,-124.75 592,-92.07 590.01,-75.06 616,-55.25 668.81,-15 1143.39,-10.97 1275.82,-10.64"/>
<polygon fill="#63b8ff" stroke="#63b8ff" points="536.93,-557.81 546,-563.3 542.33,-553.36 536.93,-557.81"/>
</g>
<!-- Node51&#45;&gt;Node8 -->
<g id="edge152" class="edge">
<title>Node51&#45;&gt;Node8</title>
<path fill="none" stroke="#63b8ff" d="M95.18,-618.05C72.67,-596.77 38,-557.08 38,-514.5 38,-514.5 38,-514.5 38,-124.75 38,-85.36 57.86,-73.05 93,-55.25 147.13,-27.82 1083.3,-13.69 1275.63,-11.07"/>
<polygon fill="#63b8ff" stroke="#63b8ff" points="92.36,-620.13 102.11,-624.27 97.07,-614.95 92.36,-620.13"/>
</g>
<!-- Node51&#45;&gt;Node13 -->
<g id="edge146" class="edge">
<title>Node51&#45;&gt;Node13</title>
<path fill="none" stroke="#63b8ff" d="M104.2,-615.72C92.94,-592.66 76,-551.78 76,-514.5 76,-514.5 76,-514.5 76,-446 76,-326.17 146.42,-296.27 254,-243.5 474.44,-135.37 2299.93,-127.35 2631.46,-126.79"/>
<polygon fill="#63b8ff" stroke="#63b8ff" points="101.39,-616.91 109.03,-624.25 107.63,-613.74 101.39,-616.91"/>
</g>
<!-- Node51&#45;&gt;Node25 -->
<g id="edge147" class="edge">
<title>Node51&#45;&gt;Node25</title>
<path fill="none" stroke="#63b8ff" d="M118.84,-614.74C129.55,-575.26 158.81,-485.09 214,-431.75 297.45,-351.1 333.08,-340.71 445,-310 623.82,-260.94 1201.46,-258.82 1383.51,-259.42"/>
<polygon fill="#63b8ff" stroke="#63b8ff" points="115.23,-613.72 116.1,-624.27 122,-615.48 115.23,-613.72"/>
</g>
<!-- Node51&#45;&gt;Node28 -->
<g id="edge149" class="edge">
<title>Node51&#45;&gt;Node28</title>
<path fill="none" stroke="#63b8ff" d="M116.31,-614.75C122.13,-569.51 139.6,-454.49 176,-365.25 214.3,-271.34 270.03,-265.67 369,-243.5 419.61,-232.16 1192.8,-202.57 1394.29,-195.02"/>
<polygon fill="#63b8ff" stroke="#63b8ff" points="112.72,-614.23 114.97,-624.58 119.67,-615.08 112.72,-614.23"/>
</g>
<!-- Node51&#45;&gt;Node34 -->
<g id="edge148" class="edge">
<title>Node51&#45;&gt;Node34</title>
<path fill="none" stroke="#63b8ff" d="M136.95,-619.25C162.67,-603.18 206.14,-578.16 247,-564.75 293.14,-549.61 630.84,-504.51 679,-498.25 833.57,-478.15 1017.34,-460.37 1103.23,-452.42"/>
<polygon fill="#63b8ff" stroke="#63b8ff" points="135.25,-616.82 128.69,-625.14 139.01,-622.73 135.25,-616.82"/>
</g>
<!-- Node51&#45;&gt;Node42 -->
<g id="edge151" class="edge">
<title>Node51&#45;&gt;Node42</title>
<path fill="none" stroke="#63b8ff" d="M174.6,-628.41C296.26,-616.69 567.98,-590.51 677.7,-579.93"/>
<polygon fill="#63b8ff" stroke="#63b8ff" points="174.62,-624.99 165,-629.43 175.29,-631.96 174.62,-624.99"/>
</g>
<!-- Node51&#45;&gt;Node50 -->
<g id="edge150" class="edge">
<title>Node51&#45;&gt;Node50</title>
<path fill="none" stroke="#63b8ff" d="M174.89,-626.1C256.51,-615.18 400.95,-595.85 486.03,-584.47"/>
<polygon fill="#63b8ff" stroke="#63b8ff" points="174.49,-622.76 165.05,-627.55 175.42,-629.7 174.49,-622.76"/>
</g>
<!-- Node52&#45;&gt;Node34 -->
<g id="edge159" class="edge">
<title>Node52&#45;&gt;Node34</title>
<path fill="none" stroke="#63b8ff" d="M875.64,-560.13C938.69,-534.55 1075.74,-478.94 1129.61,-457.08"/>
<polygon fill="#63b8ff" stroke="#63b8ff" points="874.42,-557.25 866.47,-564.26 877.05,-563.74 874.42,-557.25"/>
</g>
<!-- Node52&#45;&gt;Node43 -->
<g id="edge158" class="edge">
<title>Node52&#45;&gt;Node43</title>
<path fill="none" stroke="#63b8ff" d="M831.4,-555.4C825.94,-546.95 819.52,-537 814.38,-529.03"/>
<polygon fill="#63b8ff" stroke="#63b8ff" points="828.87,-556.93 837.23,-563.43 834.75,-553.13 828.87,-556.93"/>
</g>
</g>
</svg>
