<?xml version="1.0" encoding="UTF-8" standalone="no"?>
<!DOCTYPE svg PUBLIC "-//W3C//DTD SVG 1.1//EN"
 "http://www.w3.org/Graphics/SVG/1.1/DTD/svg11.dtd">
<!-- Generated by graphviz version 8.0.5 (20230430.1635)
 -->
<!-- Title: include/v8&#45;sandbox.h Pages: 1 -->
<svg width="782pt" height="193pt"
 viewBox="0.00 0.00 782.00 193.00" xmlns="http://www.w3.org/2000/svg" xmlns:xlink="http://www.w3.org/1999/xlink">
<g id="graph0" class="graph" transform="scale(1 1) rotate(0) translate(4 189)">
<title>include/v8&#45;sandbox.h</title>
<!-- Node1 -->
<g id="node1" class="node">
<title>Node1</title>
<g id="a_node1"><a xlink:title=" ">
<polygon fill="#999999" stroke="#666666" points="484.62,-185 377.88,-185 377.88,-165.75 484.62,-165.75 484.62,-185"/>
<text text-anchor="middle" x="431.25" y="-171.5" font-family="Helvetica,sans-Serif" font-size="10.00">include/v8&#45;sandbox.h</text>
</a>
</g>
</g>
<!-- Node2 -->
<g id="node2" class="node">
<title>Node2</title>
<g id="a_node2"><a xlink:title=" ">
<polygon fill="#e0e0e0" stroke="#999999" points="378.88,-129.75 333.62,-129.75 333.62,-110.5 378.88,-110.5 378.88,-129.75"/>
<text text-anchor="middle" x="356.25" y="-116.25" font-family="Helvetica,sans-Serif" font-size="10.00">cstdint</text>
</a>
</g>
</g>
<!-- Node1&#45;&gt;Node2 -->
<g id="edge1" class="edge">
<title>Node1&#45;&gt;Node2</title>
<path fill="none" stroke="#63b8ff" d="M418.53,-165.34C407.43,-157.46 391.09,-145.86 377.93,-136.52"/>
<polygon fill="#63b8ff" stroke="#63b8ff" points="380.22,-133.14 370.04,-130.2 376.16,-138.85 380.22,-133.14"/>
</g>
<!-- Node3 -->
<g id="node3" class="node">
<title>Node3</title>
<g id="a_node3"><a xlink:href="v8-internal_8h.html" target="_top" xlink:title=" ">
<polygon fill="white" stroke="#666666" points="465.5,-129.75 397,-129.75 397,-110.5 465.5,-110.5 465.5,-129.75"/>
<text text-anchor="middle" x="431.25" y="-116.25" font-family="Helvetica,sans-Serif" font-size="10.00">v8&#45;internal.h</text>
</a>
</g>
</g>
<!-- Node1&#45;&gt;Node3 -->
<g id="edge2" class="edge">
<title>Node1&#45;&gt;Node3</title>
<path fill="none" stroke="#63b8ff" d="M431.25,-165.58C431.25,-158.92 431.25,-149.49 431.25,-141.03"/>
<polygon fill="#63b8ff" stroke="#63b8ff" points="434.75,-141.11 431.25,-131.11 427.75,-141.11 434.75,-141.11"/>
</g>
<!-- Node15 -->
<g id="node15" class="node">
<title>Node15</title>
<g id="a_node15"><a xlink:href="v8config_8h.html" target="_top" xlink:title=" ">
<polygon fill="white" stroke="#666666" points="774,-74.5 714.5,-74.5 714.5,-55.25 774,-55.25 774,-74.5"/>
<text text-anchor="middle" x="744.25" y="-61" font-family="Helvetica,sans-Serif" font-size="10.00">v8config.h</text>
</a>
</g>
</g>
<!-- Node1&#45;&gt;Node15 -->
<g id="edge16" class="edge">
<title>Node1&#45;&gt;Node15</title>
<path fill="none" stroke="#63b8ff" d="M457.4,-165.31C513.21,-145.96 644.1,-100.59 707.94,-78.46"/>
<polygon fill="#63b8ff" stroke="#63b8ff" points="708.65,-81.57 716.96,-74.99 706.36,-74.96 708.65,-81.57"/>
</g>
<!-- Node4 -->
<g id="node4" class="node">
<title>Node4</title>
<g id="a_node4"><a xlink:title=" ">
<polygon fill="#e0e0e0" stroke="#999999" points="50.5,-74.5 0,-74.5 0,-55.25 50.5,-55.25 50.5,-74.5"/>
<text text-anchor="middle" x="25.25" y="-61" font-family="Helvetica,sans-Serif" font-size="10.00">stddef.h</text>
</a>
</g>
</g>
<!-- Node3&#45;&gt;Node4 -->
<g id="edge3" class="edge">
<title>Node3&#45;&gt;Node4</title>
<path fill="none" stroke="#63b8ff" d="M396.56,-111.89C393.76,-111.39 390.96,-110.92 388.25,-110.5 246.29,-88.54 205.88,-100.08 61.37,-74.65"/>
<polygon fill="#63b8ff" stroke="#63b8ff" points="62.25,-71.08 51.79,-72.76 61.01,-77.97 62.25,-71.08"/>
</g>
<!-- Node5 -->
<g id="node5" class="node">
<title>Node5</title>
<g id="a_node5"><a xlink:title=" ">
<polygon fill="#e0e0e0" stroke="#999999" points="116,-74.5 68.5,-74.5 68.5,-55.25 116,-55.25 116,-74.5"/>
<text text-anchor="middle" x="92.25" y="-61" font-family="Helvetica,sans-Serif" font-size="10.00">stdint.h</text>
</a>
</g>
</g>
<!-- Node3&#45;&gt;Node5 -->
<g id="edge4" class="edge">
<title>Node3&#45;&gt;Node5</title>
<path fill="none" stroke="#63b8ff" d="M396.55,-111.97C393.75,-111.45 390.95,-110.96 388.25,-110.5 275.32,-91.46 242.86,-97.1 127.04,-74.63"/>
<polygon fill="#63b8ff" stroke="#63b8ff" points="127.81,-71.02 117.32,-72.52 126.46,-77.89 127.81,-71.02"/>
</g>
<!-- Node6 -->
<g id="node6" class="node">
<title>Node6</title>
<g id="a_node6"><a xlink:title=" ">
<polygon fill="#e0e0e0" stroke="#999999" points="182,-74.5 134.5,-74.5 134.5,-55.25 182,-55.25 182,-74.5"/>
<text text-anchor="middle" x="158.25" y="-61" font-family="Helvetica,sans-Serif" font-size="10.00">string.h</text>
</a>
</g>
</g>
<!-- Node3&#45;&gt;Node6 -->
<g id="edge5" class="edge">
<title>Node3&#45;&gt;Node6</title>
<path fill="none" stroke="#63b8ff" d="M396.53,-112.1C393.73,-111.56 390.94,-111.01 388.25,-110.5 303.74,-94.34 279.34,-94.15 192.88,-74.96"/>
<polygon fill="#63b8ff" stroke="#63b8ff" points="193.83,-71.36 183.31,-72.59 192.3,-78.19 193.83,-71.36"/>
</g>
<!-- Node7 -->
<g id="node7" class="node">
<title>Node7</title>
<g id="a_node7"><a xlink:title=" ">
<polygon fill="#e0e0e0" stroke="#999999" points="244.88,-74.5 199.62,-74.5 199.62,-55.25 244.88,-55.25 244.88,-74.5"/>
<text text-anchor="middle" x="222.25" y="-61" font-family="Helvetica,sans-Serif" font-size="10.00">atomic</text>
</a>
</g>
</g>
<!-- Node3&#45;&gt;Node7 -->
<g id="edge6" class="edge">
<title>Node3&#45;&gt;Node7</title>
<path fill="none" stroke="#63b8ff" d="M396.73,-110.75C362.99,-102.5 309.91,-89.37 255.74,-75.11"/>
<polygon fill="#63b8ff" stroke="#63b8ff" points="256.82,-71.52 246.26,-72.35 255.03,-78.28 256.82,-71.52"/>
</g>
<!-- Node8 -->
<g id="node8" class="node">
<title>Node8</title>
<g id="a_node8"><a xlink:title=" ">
<polygon fill="#e0e0e0" stroke="#999999" points="316,-74.5 262.5,-74.5 262.5,-55.25 316,-55.25 316,-74.5"/>
<text text-anchor="middle" x="289.25" y="-61" font-family="Helvetica,sans-Serif" font-size="10.00">compare</text>
</a>
</g>
</g>
<!-- Node3&#45;&gt;Node8 -->
<g id="edge7" class="edge">
<title>Node3&#45;&gt;Node8</title>
<path fill="none" stroke="#63b8ff" d="M407.16,-110.09C384.21,-101.49 349.43,-88.44 323.58,-78.75"/>
<polygon fill="#63b8ff" stroke="#63b8ff" points="325.05,-75.19 314.46,-74.95 322.59,-81.74 325.05,-75.19"/>
</g>
<!-- Node9 -->
<g id="node9" class="node">
<title>Node9</title>
<g id="a_node9"><a xlink:title=" ">
<polygon fill="#e0e0e0" stroke="#999999" points="390.12,-74.5 334.38,-74.5 334.38,-55.25 390.12,-55.25 390.12,-74.5"/>
<text text-anchor="middle" x="362.25" y="-61" font-family="Helvetica,sans-Serif" font-size="10.00">concepts</text>
</a>
</g>
</g>
<!-- Node3&#45;&gt;Node9 -->
<g id="edge8" class="edge">
<title>Node3&#45;&gt;Node9</title>
<path fill="none" stroke="#63b8ff" d="M419.55,-110.09C409.37,-102.24 394.42,-90.7 382.33,-81.37"/>
<polygon fill="#63b8ff" stroke="#63b8ff" points="384.84,-78.11 374.78,-74.77 380.56,-83.66 384.84,-78.11"/>
</g>
<!-- Node10 -->
<g id="node10" class="node">
<title>Node10</title>
<g id="a_node10"><a xlink:title=" ">
<polygon fill="#e0e0e0" stroke="#999999" points="454.25,-74.5 408.25,-74.5 408.25,-55.25 454.25,-55.25 454.25,-74.5"/>
<text text-anchor="middle" x="431.25" y="-61" font-family="Helvetica,sans-Serif" font-size="10.00">iterator</text>
</a>
</g>
</g>
<!-- Node3&#45;&gt;Node10 -->
<g id="edge9" class="edge">
<title>Node3&#45;&gt;Node10</title>
<path fill="none" stroke="#63b8ff" d="M431.25,-110.33C431.25,-103.67 431.25,-94.24 431.25,-85.78"/>
<polygon fill="#63b8ff" stroke="#63b8ff" points="434.75,-85.86 431.25,-75.86 427.75,-85.86 434.75,-85.86"/>
</g>
<!-- Node11 -->
<g id="node11" class="node">
<title>Node11</title>
<g id="a_node11"><a xlink:title=" ">
<polygon fill="#e0e0e0" stroke="#999999" points="511.88,-74.5 472.62,-74.5 472.62,-55.25 511.88,-55.25 511.88,-74.5"/>
<text text-anchor="middle" x="492.25" y="-61" font-family="Helvetica,sans-Serif" font-size="10.00">limits</text>
</a>
</g>
</g>
<!-- Node3&#45;&gt;Node11 -->
<g id="edge10" class="edge">
<title>Node3&#45;&gt;Node11</title>
<path fill="none" stroke="#63b8ff" d="M441.6,-110.09C450.41,-102.4 463.3,-91.15 473.86,-81.93"/>
<polygon fill="#63b8ff" stroke="#63b8ff" points="475.82,-83.99 481.06,-74.77 471.22,-78.71 475.82,-83.99"/>
</g>
<!-- Node12 -->
<g id="node12" class="node">
<title>Node12</title>
<g id="a_node12"><a xlink:title=" ">
<polygon fill="#e0e0e0" stroke="#999999" points="667.5,-19.25 617,-19.25 617,0 667.5,0 667.5,-19.25"/>
<text text-anchor="middle" x="642.25" y="-5.75" font-family="Helvetica,sans-Serif" font-size="10.00">memory</text>
</a>
</g>
</g>
<!-- Node3&#45;&gt;Node12 -->
<g id="edge11" class="edge">
<title>Node3&#45;&gt;Node12</title>
<path fill="none" stroke="#63b8ff" d="M449.94,-110.03C468.19,-101.11 496.72,-87.05 521.25,-74.5 554,-57.74 591.41,-37.88 615.85,-24.81"/>
<polygon fill="#63b8ff" stroke="#63b8ff" points="617.32,-27.45 624.49,-19.65 614.02,-21.28 617.32,-27.45"/>
</g>
<!-- Node13 -->
<g id="node13" class="node">
<title>Node13</title>
<g id="a_node13"><a xlink:title=" ">
<polygon fill="#e0e0e0" stroke="#999999" points="618.12,-74.5 568.38,-74.5 568.38,-55.25 618.12,-55.25 618.12,-74.5"/>
<text text-anchor="middle" x="593.25" y="-61" font-family="Helvetica,sans-Serif" font-size="10.00">optional</text>
</a>
</g>
</g>
<!-- Node3&#45;&gt;Node13 -->
<g id="edge12" class="edge">
<title>Node3&#45;&gt;Node13</title>
<path fill="none" stroke="#63b8ff" d="M458.73,-110.09C485.99,-101.13 527.87,-87.36 557.66,-77.57"/>
<polygon fill="#63b8ff" stroke="#63b8ff" points="558.63,-80.61 567.04,-74.16 556.44,-73.96 558.63,-80.61"/>
</g>
<!-- Node14 -->
<g id="node14" class="node">
<title>Node14</title>
<g id="a_node14"><a xlink:title=" ">
<polygon fill="#e0e0e0" stroke="#999999" points="696.75,-74.5 635.75,-74.5 635.75,-55.25 696.75,-55.25 696.75,-74.5"/>
<text text-anchor="middle" x="666.25" y="-61" font-family="Helvetica,sans-Serif" font-size="10.00">type_traits</text>
</a>
</g>
</g>
<!-- Node3&#45;&gt;Node14 -->
<g id="edge13" class="edge">
<title>Node3&#45;&gt;Node14</title>
<path fill="none" stroke="#63b8ff" d="M465.93,-111.27C508.27,-101.67 579.81,-85.46 624.96,-75.23"/>
<polygon fill="#63b8ff" stroke="#63b8ff" points="625.57,-78.45 634.55,-72.83 624.03,-71.63 625.57,-78.45"/>
</g>
<!-- Node3&#45;&gt;Node15 -->
<g id="edge14" class="edge">
<title>Node3&#45;&gt;Node15</title>
<path fill="none" stroke="#63b8ff" d="M465.67,-114.24C515.88,-106.97 612.36,-92.42 703.24,-75"/>
<polygon fill="#63b8ff" stroke="#63b8ff" points="703.85,-78.25 713,-72.92 702.52,-71.38 703.85,-78.25"/>
</g>
<!-- Node15&#45;&gt;Node12 -->
<g id="edge15" class="edge">
<title>Node15&#45;&gt;Node12</title>
<path fill="none" stroke="#63b8ff" d="M726.95,-54.84C711.12,-46.58 687.46,-34.23 669.17,-24.68"/>
<polygon fill="#63b8ff" stroke="#63b8ff" points="671.12,-21.23 660.64,-19.7 667.88,-27.43 671.12,-21.23"/>
</g>
</g>
</svg>
