<?xml version="1.0" encoding="UTF-8" standalone="no"?>
<!DOCTYPE svg PUBLIC "-//W3C//DTD SVG 1.1//EN"
 "http://www.w3.org/Graphics/SVG/1.1/DTD/svg11.dtd">
<!-- Generated by graphviz version 8.0.5 (20230430.1635)
 -->
<!-- Title: include/v8&#45;unwinder.h Pages: 1 -->
<svg width="849pt" height="359pt"
 viewBox="0.00 0.00 848.75 358.75" xmlns="http://www.w3.org/2000/svg" xmlns:xlink="http://www.w3.org/1999/xlink">
<g id="graph0" class="graph" transform="scale(1 1) rotate(0) translate(4 354.75)">
<title>include/v8&#45;unwinder.h</title>
<!-- Node1 -->
<g id="node1" class="node">
<title>Node1</title>
<g id="a_node1"><a xlink:title=" ">
<polygon fill="#999999" stroke="#666666" points="680.62,-350.75 570.88,-350.75 570.88,-331.5 680.62,-331.5 680.62,-350.75"/>
<text text-anchor="middle" x="625.75" y="-337.25" font-family="Helvetica,sans-Serif" font-size="10.00">include/v8&#45;unwinder.h</text>
</a>
</g>
</g>
<!-- Node2 -->
<g id="node2" class="node">
<title>Node2</title>
<g id="a_node2"><a xlink:title=" ">
<polygon fill="#e0e0e0" stroke="#999999" points="735,-19.25 684.5,-19.25 684.5,0 735,0 735,-19.25"/>
<text text-anchor="middle" x="709.75" y="-5.75" font-family="Helvetica,sans-Serif" font-size="10.00">memory</text>
</a>
</g>
</g>
<!-- Node1&#45;&gt;Node2 -->
<g id="edge1" class="edge">
<title>Node1&#45;&gt;Node2</title>
<path fill="none" stroke="#63b8ff" d="M681.12,-335.83C744.82,-327.51 840.75,-303.12 840.75,-231.62 840.75,-231.62 840.75,-231.62 840.75,-119.12 840.75,-69.38 784.03,-38.12 745.24,-22.56"/>
<polygon fill="#63b8ff" stroke="#63b8ff" points="746.91,-19.07 736.32,-18.76 744.41,-25.61 746.91,-19.07"/>
</g>
<!-- Node3 -->
<g id="node3" class="node">
<title>Node3</title>
<g id="a_node3"><a xlink:href="v8-embedder-state-scope_8h.html" target="_top" xlink:title=" ">
<polygon fill="white" stroke="#666666" points="692.62,-295.5 558.88,-295.5 558.88,-276.25 692.62,-276.25 692.62,-295.5"/>
<text text-anchor="middle" x="625.75" y="-282" font-family="Helvetica,sans-Serif" font-size="10.00">v8&#45;embedder&#45;state&#45;scope.h</text>
</a>
</g>
</g>
<!-- Node1&#45;&gt;Node3 -->
<g id="edge2" class="edge">
<title>Node1&#45;&gt;Node3</title>
<path fill="none" stroke="#63b8ff" d="M625.75,-331.33C625.75,-324.67 625.75,-315.24 625.75,-306.78"/>
<polygon fill="#63b8ff" stroke="#63b8ff" points="629.25,-306.86 625.75,-296.86 622.25,-306.86 629.25,-306.86"/>
</g>
<!-- Node15 -->
<g id="node15" class="node">
<title>Node15</title>
<g id="a_node15"><a xlink:href="v8config_8h.html" target="_top" xlink:title=" ">
<polygon fill="white" stroke="#666666" points="59.5,-74.5 0,-74.5 0,-55.25 59.5,-55.25 59.5,-74.5"/>
<text text-anchor="middle" x="29.75" y="-61" font-family="Helvetica,sans-Serif" font-size="10.00">v8config.h</text>
</a>
</g>
</g>
<!-- Node1&#45;&gt;Node15 -->
<g id="edge25" class="edge">
<title>Node1&#45;&gt;Node15</title>
<path fill="none" stroke="#63b8ff" d="M570.8,-337.65C455.48,-330.96 198.75,-307.54 198.75,-231.62 198.75,-231.62 198.75,-231.62 198.75,-174.38 198.75,-142.23 111.08,-100.1 62.03,-79.05"/>
<polygon fill="#63b8ff" stroke="#63b8ff" points="63.77,-75.56 53.19,-74.89 61.04,-82.01 63.77,-75.56"/>
</g>
<!-- Node3&#45;&gt;Node2 -->
<g id="edge3" class="edge">
<title>Node3&#45;&gt;Node2</title>
<path fill="none" stroke="#63b8ff" d="M677.9,-275.81C730.11,-263.39 802.75,-235.49 802.75,-176.38 802.75,-176.38 802.75,-176.38 802.75,-119.12 802.75,-89.51 801.88,-78.67 783.75,-55.25 773.38,-41.85 757.76,-31.59 743.54,-24.3"/>
<polygon fill="#63b8ff" stroke="#63b8ff" points="745.53,-20.9 734.99,-19.73 742.5,-27.21 745.53,-20.9"/>
</g>
<!-- Node4 -->
<g id="node4" class="node">
<title>Node4</title>
<g id="a_node4"><a xlink:href="v8-internal_8h.html" target="_top" xlink:title=" ">
<polygon fill="white" stroke="#666666" points="464,-129.75 395.5,-129.75 395.5,-110.5 464,-110.5 464,-129.75"/>
<text text-anchor="middle" x="429.75" y="-116.25" font-family="Helvetica,sans-Serif" font-size="10.00">v8&#45;internal.h</text>
</a>
</g>
</g>
<!-- Node3&#45;&gt;Node4 -->
<g id="edge4" class="edge">
<title>Node3&#45;&gt;Node4</title>
<path fill="none" stroke="#63b8ff" d="M595.7,-275.82C556.21,-262.39 487.35,-233.42 448.75,-185 438.6,-172.27 433.87,-154.22 431.66,-140.56"/>
<polygon fill="#63b8ff" stroke="#63b8ff" points="435.04,-140.4 430.3,-130.92 428.1,-141.29 435.04,-140.4"/>
</g>
<!-- Node16 -->
<g id="node16" class="node">
<title>Node16</title>
<g id="a_node16"><a xlink:href="v8-local-handle_8h.html" target="_top" xlink:title=" ">
<polygon fill="white" stroke="#666666" points="670.12,-240.25 581.38,-240.25 581.38,-221 670.12,-221 670.12,-240.25"/>
<text text-anchor="middle" x="625.75" y="-226.75" font-family="Helvetica,sans-Serif" font-size="10.00">v8&#45;local&#45;handle.h</text>
</a>
</g>
</g>
<!-- Node3&#45;&gt;Node16 -->
<g id="edge18" class="edge">
<title>Node3&#45;&gt;Node16</title>
<path fill="none" stroke="#63b8ff" d="M625.75,-276.08C625.75,-269.42 625.75,-259.99 625.75,-251.53"/>
<polygon fill="#63b8ff" stroke="#63b8ff" points="629.25,-251.61 625.75,-241.61 622.25,-251.61 629.25,-251.61"/>
</g>
<!-- Node4&#45;&gt;Node2 -->
<g id="edge13" class="edge">
<title>Node4&#45;&gt;Node2</title>
<path fill="none" stroke="#63b8ff" d="M464.38,-112.66C498.96,-105.58 553.21,-92.75 597.75,-74.5 615.27,-67.32 658.57,-41.72 685.91,-25.19"/>
<polygon fill="#63b8ff" stroke="#63b8ff" points="687.45,-27.75 694.18,-19.56 683.81,-21.76 687.45,-27.75"/>
</g>
<!-- Node5 -->
<g id="node5" class="node">
<title>Node5</title>
<g id="a_node5"><a xlink:title=" ">
<polygon fill="#e0e0e0" stroke="#999999" points="775,-74.5 724.5,-74.5 724.5,-55.25 775,-55.25 775,-74.5"/>
<text text-anchor="middle" x="749.75" y="-61" font-family="Helvetica,sans-Serif" font-size="10.00">stddef.h</text>
</a>
</g>
</g>
<!-- Node4&#45;&gt;Node5 -->
<g id="edge5" class="edge">
<title>Node4&#45;&gt;Node5</title>
<path fill="none" stroke="#63b8ff" d="M464.27,-114.8C516.27,-108.06 617.95,-93.98 713.48,-74.81"/>
<polygon fill="#63b8ff" stroke="#63b8ff" points="714.09,-78.05 723.19,-72.63 712.69,-71.19 714.09,-78.05"/>
</g>
<!-- Node6 -->
<g id="node6" class="node">
<title>Node6</title>
<g id="a_node6"><a xlink:title=" ">
<polygon fill="#e0e0e0" stroke="#999999" points="250.5,-74.5 203,-74.5 203,-55.25 250.5,-55.25 250.5,-74.5"/>
<text text-anchor="middle" x="226.75" y="-61" font-family="Helvetica,sans-Serif" font-size="10.00">stdint.h</text>
</a>
</g>
</g>
<!-- Node4&#45;&gt;Node6 -->
<g id="edge6" class="edge">
<title>Node4&#45;&gt;Node6</title>
<path fill="none" stroke="#63b8ff" d="M395.31,-110.09C357.94,-100.29 298.61,-84.73 261.22,-74.92"/>
<polygon fill="#63b8ff" stroke="#63b8ff" points="262.4,-71.34 251.84,-72.19 260.62,-78.12 262.4,-71.34"/>
</g>
<!-- Node7 -->
<g id="node7" class="node">
<title>Node7</title>
<g id="a_node7"><a xlink:title=" ">
<polygon fill="#e0e0e0" stroke="#999999" points="316.5,-74.5 269,-74.5 269,-55.25 316.5,-55.25 316.5,-74.5"/>
<text text-anchor="middle" x="292.75" y="-61" font-family="Helvetica,sans-Serif" font-size="10.00">string.h</text>
</a>
</g>
</g>
<!-- Node4&#45;&gt;Node7 -->
<g id="edge7" class="edge">
<title>Node4&#45;&gt;Node7</title>
<path fill="none" stroke="#63b8ff" d="M406.51,-110.09C384.47,-101.52 351.1,-88.56 326.2,-78.88"/>
<polygon fill="#63b8ff" stroke="#63b8ff" points="327.69,-75.31 317.1,-74.95 325.16,-81.84 327.69,-75.31"/>
</g>
<!-- Node8 -->
<g id="node8" class="node">
<title>Node8</title>
<g id="a_node8"><a xlink:title=" ">
<polygon fill="#e0e0e0" stroke="#999999" points="379.38,-74.5 334.12,-74.5 334.12,-55.25 379.38,-55.25 379.38,-74.5"/>
<text text-anchor="middle" x="356.75" y="-61" font-family="Helvetica,sans-Serif" font-size="10.00">atomic</text>
</a>
</g>
</g>
<!-- Node4&#45;&gt;Node8 -->
<g id="edge8" class="edge">
<title>Node4&#45;&gt;Node8</title>
<path fill="none" stroke="#63b8ff" d="M417.37,-110.09C406.5,-102.16 390.47,-90.47 377.62,-81.1"/>
<polygon fill="#63b8ff" stroke="#63b8ff" points="380.09,-77.84 369.95,-74.77 375.97,-83.5 380.09,-77.84"/>
</g>
<!-- Node9 -->
<g id="node9" class="node">
<title>Node9</title>
<g id="a_node9"><a xlink:title=" ">
<polygon fill="#e0e0e0" stroke="#999999" points="450.5,-74.5 397,-74.5 397,-55.25 450.5,-55.25 450.5,-74.5"/>
<text text-anchor="middle" x="423.75" y="-61" font-family="Helvetica,sans-Serif" font-size="10.00">compare</text>
</a>
</g>
</g>
<!-- Node4&#45;&gt;Node9 -->
<g id="edge9" class="edge">
<title>Node4&#45;&gt;Node9</title>
<path fill="none" stroke="#63b8ff" d="M428.76,-110.33C428.01,-103.67 426.95,-94.24 425.99,-85.78"/>
<polygon fill="#63b8ff" stroke="#63b8ff" points="429.36,-85.4 424.76,-75.86 422.4,-86.19 429.36,-85.4"/>
</g>
<!-- Node10 -->
<g id="node10" class="node">
<title>Node10</title>
<g id="a_node10"><a xlink:title=" ">
<polygon fill="#e0e0e0" stroke="#999999" points="524.62,-74.5 468.88,-74.5 468.88,-55.25 524.62,-55.25 524.62,-74.5"/>
<text text-anchor="middle" x="496.75" y="-61" font-family="Helvetica,sans-Serif" font-size="10.00">concepts</text>
</a>
</g>
</g>
<!-- Node4&#45;&gt;Node10 -->
<g id="edge10" class="edge">
<title>Node4&#45;&gt;Node10</title>
<path fill="none" stroke="#63b8ff" d="M441.12,-110.09C450.99,-102.24 465.52,-90.7 477.25,-81.37"/>
<polygon fill="#63b8ff" stroke="#63b8ff" points="478.9,-83.74 484.55,-74.77 474.55,-78.26 478.9,-83.74"/>
</g>
<!-- Node11 -->
<g id="node11" class="node">
<title>Node11</title>
<g id="a_node11"><a xlink:title=" ">
<polygon fill="#e0e0e0" stroke="#999999" points="588.75,-74.5 542.75,-74.5 542.75,-55.25 588.75,-55.25 588.75,-74.5"/>
<text text-anchor="middle" x="565.75" y="-61" font-family="Helvetica,sans-Serif" font-size="10.00">iterator</text>
</a>
</g>
</g>
<!-- Node4&#45;&gt;Node11 -->
<g id="edge11" class="edge">
<title>Node4&#45;&gt;Node11</title>
<path fill="none" stroke="#63b8ff" d="M452.82,-110.09C474.7,-101.52 507.82,-88.56 532.54,-78.88"/>
<polygon fill="#63b8ff" stroke="#63b8ff" points="533.53,-81.86 541.57,-74.95 530.98,-75.34 533.53,-81.86"/>
</g>
<!-- Node12 -->
<g id="node12" class="node">
<title>Node12</title>
<g id="a_node12"><a xlink:title=" ">
<polygon fill="#e0e0e0" stroke="#999999" points="116.38,-74.5 77.12,-74.5 77.12,-55.25 116.38,-55.25 116.38,-74.5"/>
<text text-anchor="middle" x="96.75" y="-61" font-family="Helvetica,sans-Serif" font-size="10.00">limits</text>
</a>
</g>
</g>
<!-- Node4&#45;&gt;Node12 -->
<g id="edge12" class="edge">
<title>Node4&#45;&gt;Node12</title>
<path fill="none" stroke="#63b8ff" d="M395.27,-115.69C340.47,-109.89 230.02,-96.76 127.19,-74.52"/>
<polygon fill="#63b8ff" stroke="#63b8ff" points="128.14,-70.92 117.62,-72.19 126.63,-77.76 128.14,-70.92"/>
</g>
<!-- Node13 -->
<g id="node13" class="node">
<title>Node13</title>
<g id="a_node13"><a xlink:title=" ">
<polygon fill="#e0e0e0" stroke="#999999" points="184.62,-74.5 134.88,-74.5 134.88,-55.25 184.62,-55.25 184.62,-74.5"/>
<text text-anchor="middle" x="159.75" y="-61" font-family="Helvetica,sans-Serif" font-size="10.00">optional</text>
</a>
</g>
</g>
<!-- Node4&#45;&gt;Node13 -->
<g id="edge14" class="edge">
<title>Node4&#45;&gt;Node13</title>
<path fill="none" stroke="#63b8ff" d="M395.22,-113.28C351.1,-105.67 272.16,-91.54 195.3,-74.73"/>
<polygon fill="#63b8ff" stroke="#63b8ff" points="196.48,-71.19 185.96,-72.45 194.97,-78.03 196.48,-71.19"/>
</g>
<!-- Node14 -->
<g id="node14" class="node">
<title>Node14</title>
<g id="a_node14"><a xlink:title=" ">
<polygon fill="#e0e0e0" stroke="#999999" points="706.25,-74.5 645.25,-74.5 645.25,-55.25 706.25,-55.25 706.25,-74.5"/>
<text text-anchor="middle" x="675.75" y="-61" font-family="Helvetica,sans-Serif" font-size="10.00">type_traits</text>
</a>
</g>
</g>
<!-- Node4&#45;&gt;Node14 -->
<g id="edge15" class="edge">
<title>Node4&#45;&gt;Node14</title>
<path fill="none" stroke="#63b8ff" d="M464.47,-111.61C509.2,-101.93 586.84,-85.12 634.51,-74.8"/>
<polygon fill="#63b8ff" stroke="#63b8ff" points="635.05,-78.05 644.08,-72.51 633.57,-71.21 635.05,-78.05"/>
</g>
<!-- Node4&#45;&gt;Node15 -->
<g id="edge16" class="edge">
<title>Node4&#45;&gt;Node15</title>
<path fill="none" stroke="#63b8ff" d="M395.14,-116.03C332.28,-110.15 194.98,-96.16 70.45,-74.84"/>
<polygon fill="#63b8ff" stroke="#63b8ff" points="71.43,-71.28 60.98,-73.02 70.23,-78.18 71.43,-71.28"/>
</g>
<!-- Node15&#45;&gt;Node2 -->
<g id="edge17" class="edge">
<title>Node15&#45;&gt;Node2</title>
<path fill="none" stroke="#63b8ff" d="M59.95,-56.58C62.58,-56.08 65.21,-55.62 67.75,-55.25 296.61,-21.53 575.23,-13.16 673.41,-11.2"/>
<polygon fill="#63b8ff" stroke="#63b8ff" points="673.28,-14.68 683.21,-10.99 673.15,-7.68 673.28,-14.68"/>
</g>
<!-- Node16&#45;&gt;Node4 -->
<g id="edge24" class="edge">
<title>Node16&#45;&gt;Node4</title>
<path fill="none" stroke="#63b8ff" d="M618.17,-220.54C606.34,-206.9 582.2,-181.09 556.75,-165.75 531.35,-150.45 499.94,-139.35 474.7,-132.05"/>
<polygon fill="#63b8ff" stroke="#63b8ff" points="475.88,-128.47 465.3,-129.15 474,-135.21 475.88,-128.47"/>
</g>
<!-- Node16&#45;&gt;Node5 -->
<g id="edge19" class="edge">
<title>Node16&#45;&gt;Node5</title>
<path fill="none" stroke="#63b8ff" d="M636.8,-220.76C647.05,-212.22 662.39,-198.63 673.75,-185 701.25,-152.01 726.69,-108.42 740.02,-84.16"/>
<polygon fill="#63b8ff" stroke="#63b8ff" points="743.42,-86.22 745.11,-75.76 737.27,-82.89 743.42,-86.22"/>
</g>
<!-- Node16&#45;&gt;Node14 -->
<g id="edge20" class="edge">
<title>Node16&#45;&gt;Node14</title>
<path fill="none" stroke="#63b8ff" d="M633.73,-220.77C640.95,-212.24 651.26,-198.65 656.75,-185 670.07,-151.91 674.07,-110.12 675.27,-85.86"/>
<polygon fill="#63b8ff" stroke="#63b8ff" points="678.8,-86.03 675.67,-75.9 671.8,-85.77 678.8,-86.03"/>
</g>
<!-- Node17 -->
<g id="node17" class="node">
<title>Node17</title>
<g id="a_node17"><a xlink:title=" ">
<polygon fill="#e0e0e0" stroke="#999999" points="647.25,-185 604.25,-185 604.25,-165.75 647.25,-165.75 647.25,-185"/>
<text text-anchor="middle" x="625.75" y="-171.5" font-family="Helvetica,sans-Serif" font-size="10.00">vector</text>
</a>
</g>
</g>
<!-- Node16&#45;&gt;Node17 -->
<g id="edge21" class="edge">
<title>Node16&#45;&gt;Node17</title>
<path fill="none" stroke="#63b8ff" d="M625.75,-220.83C625.75,-214.17 625.75,-204.74 625.75,-196.28"/>
<polygon fill="#63b8ff" stroke="#63b8ff" points="629.25,-196.36 625.75,-186.36 622.25,-196.36 629.25,-196.36"/>
</g>
<!-- Node18 -->
<g id="node18" class="node">
<title>Node18</title>
<g id="a_node18"><a xlink:href="v8-handle-base_8h.html" target="_top" xlink:title=" ">
<polygon fill="white" stroke="#666666" points="547.5,-185 458,-185 458,-165.75 547.5,-165.75 547.5,-185"/>
<text text-anchor="middle" x="502.75" y="-171.5" font-family="Helvetica,sans-Serif" font-size="10.00">v8&#45;handle&#45;base.h</text>
</a>
</g>
</g>
<!-- Node16&#45;&gt;Node18 -->
<g id="edge22" class="edge">
<title>Node16&#45;&gt;Node18</title>
<path fill="none" stroke="#63b8ff" d="M604.88,-220.59C585.36,-212.14 555.94,-199.4 533.69,-189.77"/>
<polygon fill="#63b8ff" stroke="#63b8ff" points="535.29,-186.21 524.72,-185.45 532.5,-192.64 535.29,-186.21"/>
</g>
<!-- Node18&#45;&gt;Node4 -->
<g id="edge23" class="edge">
<title>Node18&#45;&gt;Node4</title>
<path fill="none" stroke="#63b8ff" d="M490.37,-165.34C479.5,-157.41 463.47,-145.72 450.62,-136.35"/>
<polygon fill="#63b8ff" stroke="#63b8ff" points="453.09,-133.09 442.95,-130.02 448.97,-138.75 453.09,-133.09"/>
</g>
</g>
</svg>
