<?xml version="1.0" encoding="UTF-8" standalone="no"?>
<!DOCTYPE svg PUBLIC "-//W3C//DTD SVG 1.1//EN"
 "http://www.w3.org/Graphics/SVG/1.1/DTD/svg11.dtd">
<!-- Generated by graphviz version 8.0.5 (20230430.1635)
 -->
<!-- Title: include/v8&#45;value.h Pages: 1 -->
<svg width="1928pt" height="747pt"
 viewBox="0.00 0.00 1927.86 746.50" xmlns="http://www.w3.org/2000/svg" xmlns:xlink="http://www.w3.org/1999/xlink">
<g id="graph0" class="graph" transform="scale(1 1) rotate(0) translate(4 742.5)">
<title>include/v8&#45;value.h</title>
<!-- Node1 -->
<g id="node1" class="node">
<title>Node1</title>
<g id="a_node1"><a xlink:title=" ">
<polygon fill="#999999" stroke="#666666" points="235.5,-738.5 141.5,-738.5 141.5,-719.25 235.5,-719.25 235.5,-738.5"/>
<text text-anchor="middle" x="188.5" y="-725" font-family="Helvetica,sans-Serif" font-size="10.00">include/v8&#45;value.h</text>
</a>
</g>
</g>
<!-- Node2 -->
<g id="node2" class="node">
<title>Node2</title>
<g id="a_node2"><a xlink:href="v8-cpp-heap-external_8h.html" target="_top" xlink:title=" ">
<polygon fill="white" stroke="#666666" points="103,-683.25 0,-683.25 0,-652.75 103,-652.75 103,-683.25"/>
<text text-anchor="start" x="8" y="-669.75" font-family="Helvetica,sans-Serif" font-size="10.00">include/v8&#45;cpp&#45;heap</text>
<text text-anchor="middle" x="51.5" y="-658.5" font-family="Helvetica,sans-Serif" font-size="10.00">&#45;external.h</text>
</a>
</g>
</g>
<!-- Node1&#45;&gt;Node2 -->
<g id="edge1" class="edge">
<title>Node1&#45;&gt;Node2</title>
<path fill="none" stroke="#63b8ff" d="M157.53,-714.56C136.15,-705.38 107.73,-693.17 85.69,-683.69"/>
<polygon fill="#63b8ff" stroke="#63b8ff" points="155.82,-718.07 166.39,-718.8 158.59,-711.64 155.82,-718.07"/>
</g>
<!-- Node3 -->
<g id="node3" class="node">
<title>Node3</title>
<g id="a_node3"><a xlink:href="v8-external_8h.html" target="_top" xlink:title=" ">
<polygon fill="white" stroke="#666666" points="141.75,-274 37.25,-274 37.25,-254.75 141.75,-254.75 141.75,-274"/>
<text text-anchor="middle" x="89.5" y="-260.5" font-family="Helvetica,sans-Serif" font-size="10.00">include/v8&#45;external.h</text>
</a>
</g>
</g>
<!-- Node1&#45;&gt;Node3 -->
<g id="edge2" class="edge">
<title>Node1&#45;&gt;Node3</title>
<path fill="none" stroke="#63b8ff" d="M173.61,-710.55C167.36,-702.62 160.42,-692.87 155.5,-683.25 139.53,-652.05 131.5,-643.18 131.5,-608.12 131.5,-608.12 131.5,-608.12 131.5,-373.88 131.5,-334.69 107.38,-292.59 95.7,-274.49"/>
<polygon fill="#63b8ff" stroke="#63b8ff" points="171.41,-712.38 180.46,-717.89 176.82,-707.94 171.41,-712.38"/>
</g>
<!-- Node4 -->
<g id="node4" class="node">
<title>Node4</title>
<g id="a_node4"><a xlink:href="v8-fast-api-calls_8h.html" target="_top" xlink:title=" ">
<polygon fill="white" stroke="#666666" points="196.25,-218.75 100.75,-218.75 100.75,-188.25 196.25,-188.25 196.25,-218.75"/>
<text text-anchor="start" x="108.75" y="-205.25" font-family="Helvetica,sans-Serif" font-size="10.00">include/v8&#45;fast&#45;api</text>
<text text-anchor="middle" x="148.5" y="-194" font-family="Helvetica,sans-Serif" font-size="10.00">&#45;calls.h</text>
</a>
</g>
</g>
<!-- Node1&#45;&gt;Node4 -->
<g id="edge5" class="edge">
<title>Node1&#45;&gt;Node4</title>
<path fill="none" stroke="#63b8ff" d="M183.45,-708.3C177.83,-684.71 169.5,-643.8 169.5,-608.12 169.5,-608.12 169.5,-608.12 169.5,-318.62 169.5,-282.36 159.12,-240.67 152.95,-219.11"/>
<polygon fill="#63b8ff" stroke="#63b8ff" points="180.29,-709.08 186.09,-717.94 187.08,-707.39 180.29,-709.08"/>
</g>
<!-- Node5 -->
<g id="node5" class="node">
<title>Node5</title>
<g id="a_node5"><a xlink:href="v8_8h.html" target="_top" xlink:title=" ">
<polygon fill="white" stroke="#666666" points="855.38,-19.25 787.62,-19.25 787.62,0 855.38,0 855.38,-19.25"/>
<text text-anchor="middle" x="821.5" y="-5.75" font-family="Helvetica,sans-Serif" font-size="10.00">include/v8.h</text>
</a>
</g>
</g>
<!-- Node1&#45;&gt;Node5 -->
<g id="edge79" class="edge">
<title>Node1&#45;&gt;Node5</title>
<path fill="none" stroke="#63b8ff" d="M193.55,-708.3C199.17,-684.71 207.5,-643.8 207.5,-608.12 207.5,-608.12 207.5,-608.12 207.5,-318.62 207.5,-247.36 246.56,-97.45 302.5,-55.25 341.13,-26.11 677.85,-14.51 787.29,-11.48"/>
<polygon fill="#63b8ff" stroke="#63b8ff" points="189.92,-707.39 190.91,-717.94 196.71,-709.08 189.92,-707.39"/>
</g>
<!-- Node6 -->
<g id="node6" class="node">
<title>Node6</title>
<g id="a_node6"><a xlink:href="v8-object_8h.html" target="_top" xlink:title=" ">
<polygon fill="white" stroke="#666666" points="803,-616.75 706,-616.75 706,-597.5 803,-597.5 803,-616.75"/>
<text text-anchor="middle" x="754.5" y="-603.25" font-family="Helvetica,sans-Serif" font-size="10.00">include/v8&#45;object.h</text>
</a>
</g>
</g>
<!-- Node1&#45;&gt;Node6 -->
<g id="edge6" class="edge">
<title>Node1&#45;&gt;Node6</title>
<path fill="none" stroke="#63b8ff" d="M242.18,-716.52C353.97,-692.87 609.76,-638.75 711.56,-617.21"/>
<polygon fill="#63b8ff" stroke="#63b8ff" points="241.57,-713.28 232.51,-718.78 243.01,-720.13 241.57,-713.28"/>
</g>
<!-- Node34 -->
<g id="node34" class="node">
<title>Node34</title>
<g id="a_node34"><a xlink:href="v8-primitive_8h.html" target="_top" xlink:title=" ">
<polygon fill="white" stroke="#666666" points="1340.25,-677.62 1232.75,-677.62 1232.75,-658.38 1340.25,-658.38 1340.25,-677.62"/>
<text text-anchor="middle" x="1286.5" y="-664.12" font-family="Helvetica,sans-Serif" font-size="10.00">include/v8&#45;primitive.h</text>
</a>
</g>
</g>
<!-- Node1&#45;&gt;Node34 -->
<g id="edge67" class="edge">
<title>Node1&#45;&gt;Node34</title>
<path fill="none" stroke="#63b8ff" d="M246.62,-724.76C438.06,-714.49 1047.23,-681.83 1232.52,-671.89"/>
<polygon fill="#63b8ff" stroke="#63b8ff" points="246.48,-721.31 236.68,-725.35 246.85,-728.3 246.48,-721.31"/>
</g>
<!-- Node3&#45;&gt;Node4 -->
<g id="edge3" class="edge">
<title>Node3&#45;&gt;Node4</title>
<path fill="none" stroke="#63b8ff" d="M106.14,-246.77C114.89,-238.04 125.52,-227.43 133.94,-219.03"/>
<polygon fill="#63b8ff" stroke="#63b8ff" points="104.07,-243.89 99.46,-253.43 109.01,-248.85 104.07,-243.89"/>
</g>
<!-- Node3&#45;&gt;Node5 -->
<g id="edge4" class="edge">
<title>Node3&#45;&gt;Node5</title>
<path fill="none" stroke="#63b8ff" d="M86.47,-244.2C84.82,-228.57 84.36,-206.22 91.5,-188.25 120.79,-114.54 139.32,-90.24 210.5,-55.25 262.34,-29.77 666.22,-15.4 787.3,-11.63"/>
<polygon fill="#63b8ff" stroke="#63b8ff" points="83.07,-244.2 87.86,-253.65 90.01,-243.28 83.07,-244.2"/>
</g>
<!-- Node6&#45;&gt;Node5 -->
<g id="edge66" class="edge">
<title>Node6&#45;&gt;Node5</title>
<path fill="none" stroke="#63b8ff" d="M695.05,-596.62C672.38,-590.19 648.05,-579.45 631.5,-561.5 609.79,-537.96 612.5,-524.02 612.5,-492 612.5,-492 612.5,-492 612.5,-136 612.5,-93.55 629.49,-80.65 663.5,-55.25 700.16,-27.88 752.95,-17.29 787.25,-13.19"/>
<polygon fill="#63b8ff" stroke="#63b8ff" points="694.1,-600.25 704.65,-599.36 695.85,-593.47 694.1,-600.25"/>
</g>
<!-- Node7 -->
<g id="node7" class="node">
<title>Node7</title>
<g id="a_node7"><a xlink:href="v8-array-buffer_8h.html" target="_top" xlink:title=" ">
<polygon fill="white" stroke="#666666" points="391.88,-329.25 273.12,-329.25 273.12,-310 391.88,-310 391.88,-329.25"/>
<text text-anchor="middle" x="332.5" y="-315.75" font-family="Helvetica,sans-Serif" font-size="10.00">include/v8&#45;array&#45;buffer.h</text>
</a>
</g>
</g>
<!-- Node6&#45;&gt;Node7 -->
<g id="edge7" class="edge">
<title>Node6&#45;&gt;Node7</title>
<path fill="none" stroke="#63b8ff" d="M694.88,-604.33C608.05,-600.75 451.99,-590.39 404.5,-561.5 372.43,-541.99 356.5,-529.54 356.5,-492 356.5,-492 356.5,-492 356.5,-429.12 356.5,-391.31 342.43,-347.8 335.84,-329.48"/>
<polygon fill="#63b8ff" stroke="#63b8ff" points="694.49,-607.85 704.62,-604.75 694.77,-600.86 694.49,-607.85"/>
</g>
<!-- Node16 -->
<g id="node16" class="node">
<title>Node16</title>
<g id="a_node16"><a xlink:href="v8-proxy_8h.html" target="_top" xlink:title=" ">
<polygon fill="white" stroke="#666666" points="1233.12,-80.12 1139.88,-80.12 1139.88,-60.88 1233.12,-60.88 1233.12,-80.12"/>
<text text-anchor="middle" x="1186.5" y="-66.62" font-family="Helvetica,sans-Serif" font-size="10.00">include/v8&#45;proxy.h</text>
</a>
</g>
</g>
<!-- Node6&#45;&gt;Node16 -->
<g id="edge60" class="edge">
<title>Node6&#45;&gt;Node16</title>
<path fill="none" stroke="#63b8ff" d="M814.16,-605.4C874.1,-602.75 968.01,-593.26 1042.5,-561.5 1089.31,-541.54 1133.5,-542.89 1133.5,-492 1133.5,-492 1133.5,-492 1133.5,-429.12 1133.5,-278.05 1334.55,-354.67 1400.5,-218.75 1437.81,-141.86 1302.62,-98.12 1229.87,-80.58"/>
<polygon fill="#63b8ff" stroke="#63b8ff" points="814.24,-601.93 804.38,-605.82 814.51,-608.93 814.24,-601.93"/>
</g>
<!-- Node18 -->
<g id="node18" class="node">
<title>Node18</title>
<g id="a_node18"><a xlink:href="v8-container_8h.html" target="_top" xlink:title=" ">
<polygon fill="white" stroke="#666666" points="750.75,-561.5 640.25,-561.5 640.25,-542.25 750.75,-542.25 750.75,-561.5"/>
<text text-anchor="middle" x="695.5" y="-548" font-family="Helvetica,sans-Serif" font-size="10.00">include/v8&#45;container.h</text>
</a>
</g>
</g>
<!-- Node6&#45;&gt;Node18 -->
<g id="edge26" class="edge">
<title>Node6&#45;&gt;Node18</title>
<path fill="none" stroke="#63b8ff" d="M736.54,-589.91C726.29,-580.67 713.84,-569.43 705.36,-561.77"/>
<polygon fill="#63b8ff" stroke="#63b8ff" points="733.72,-591.99 743.49,-596.09 738.41,-586.79 733.72,-591.99"/>
</g>
<!-- Node19 -->
<g id="node19" class="node">
<title>Node19</title>
<g id="a_node19"><a xlink:href="v8-date_8h.html" target="_top" xlink:title=" ">
<polygon fill="white" stroke="#666666" points="858.25,-561.5 768.75,-561.5 768.75,-542.25 858.25,-542.25 858.25,-561.5"/>
<text text-anchor="middle" x="813.5" y="-548" font-family="Helvetica,sans-Serif" font-size="10.00">include/v8&#45;date.h</text>
</a>
</g>
</g>
<!-- Node6&#45;&gt;Node19 -->
<g id="edge28" class="edge">
<title>Node6&#45;&gt;Node19</title>
<path fill="none" stroke="#63b8ff" d="M772.46,-589.91C782.71,-580.67 795.16,-569.43 803.64,-561.77"/>
<polygon fill="#63b8ff" stroke="#63b8ff" points="770.59,-586.79 765.51,-596.09 775.28,-591.99 770.59,-586.79"/>
</g>
<!-- Node20 -->
<g id="node20" class="node">
<title>Node20</title>
<g id="a_node20"><a xlink:href="v8-exception_8h.html" target="_top" xlink:title=" ">
<polygon fill="white" stroke="#666666" points="1067.5,-500.62 955.5,-500.62 955.5,-481.38 1067.5,-481.38 1067.5,-500.62"/>
<text text-anchor="middle" x="1011.5" y="-487.12" font-family="Helvetica,sans-Serif" font-size="10.00">include/v8&#45;exception.h</text>
</a>
</g>
</g>
<!-- Node6&#45;&gt;Node20 -->
<g id="edge30" class="edge">
<title>Node6&#45;&gt;Node20</title>
<path fill="none" stroke="#63b8ff" d="M814.02,-601.85C875.21,-596.26 965.05,-584.38 990.5,-561.5 1008.12,-545.66 1011.19,-515.6 1011.57,-500.75"/>
<polygon fill="#63b8ff" stroke="#63b8ff" points="813.98,-598.43 804.32,-602.79 814.59,-605.4 813.98,-598.43"/>
</g>
<!-- Node21 -->
<g id="node21" class="node">
<title>Node21</title>
<g id="a_node21"><a xlink:href="v8-template_8h.html" target="_top" xlink:title=" ">
<polygon fill="white" stroke="#666666" points="1105.62,-439.75 997.38,-439.75 997.38,-420.5 1105.62,-420.5 1105.62,-439.75"/>
<text text-anchor="middle" x="1051.5" y="-426.25" font-family="Helvetica,sans-Serif" font-size="10.00">include/v8&#45;template.h</text>
</a>
</g>
</g>
<!-- Node6&#45;&gt;Node21 -->
<g id="edge63" class="edge">
<title>Node6&#45;&gt;Node21</title>
<path fill="none" stroke="#63b8ff" d="M814.13,-604.45C867.75,-600.95 947.53,-590.74 1010.5,-561.5 1045.2,-545.39 1060.31,-540.91 1076.5,-506.25 1087.2,-483.33 1069.6,-454.55 1058.86,-440.17"/>
<polygon fill="#63b8ff" stroke="#63b8ff" points="814.21,-601 804.44,-605.08 814.63,-607.98 814.21,-601"/>
</g>
<!-- Node22 -->
<g id="node22" class="node">
<title>Node22</title>
<g id="a_node22"><a xlink:href="v8-function_8h.html" target="_top" xlink:title=" ">
<polygon fill="white" stroke="#666666" points="1381.12,-384.5 1275.88,-384.5 1275.88,-365.25 1381.12,-365.25 1381.12,-384.5"/>
<text text-anchor="middle" x="1328.5" y="-371" font-family="Helvetica,sans-Serif" font-size="10.00">include/v8&#45;function.h</text>
</a>
</g>
</g>
<!-- Node6&#45;&gt;Node22 -->
<g id="edge37" class="edge">
<title>Node6&#45;&gt;Node22</title>
<path fill="none" stroke="#63b8ff" d="M814.31,-604.32C909.48,-600.63 1090.48,-590 1147.5,-561.5 1194.4,-538.06 1191.95,-513.33 1228.5,-475.75 1261.52,-441.8 1301.59,-402.27 1319.31,-384.88"/>
<polygon fill="#63b8ff" stroke="#63b8ff" points="814.28,-600.86 804.42,-604.73 814.54,-607.85 814.28,-600.86"/>
</g>
<!-- Node23 -->
<g id="node23" class="node">
<title>Node23</title>
<g id="a_node23"><a xlink:href="v8-primitive-object_8h.html" target="_top" xlink:title=" ">
<polygon fill="white" stroke="#666666" points="546.5,-85.75 446.5,-85.75 446.5,-55.25 546.5,-55.25 546.5,-85.75"/>
<text text-anchor="start" x="454.5" y="-72.25" font-family="Helvetica,sans-Serif" font-size="10.00">include/v8&#45;primitive</text>
<text text-anchor="middle" x="496.5" y="-61" font-family="Helvetica,sans-Serif" font-size="10.00">&#45;object.h</text>
</a>
</g>
</g>
<!-- Node6&#45;&gt;Node23 -->
<g id="edge38" class="edge">
<title>Node6&#45;&gt;Node23</title>
<path fill="none" stroke="#63b8ff" d="M695.05,-605.46C626.93,-600.98 519.08,-581.61 475.5,-506.25 432.94,-432.66 481.42,-152.59 493.78,-85.84"/>
<polygon fill="#63b8ff" stroke="#63b8ff" points="694.45,-608.98 704.63,-606.05 694.84,-601.99 694.45,-608.98"/>
</g>
<!-- Node24 -->
<g id="node24" class="node">
<title>Node24</title>
<g id="a_node24"><a xlink:href="v8-promise_8h.html" target="_top" xlink:title=" ">
<polygon fill="white" stroke="#666666" points="981.12,-561.5 875.88,-561.5 875.88,-542.25 981.12,-542.25 981.12,-561.5"/>
<text text-anchor="middle" x="928.5" y="-548" font-family="Helvetica,sans-Serif" font-size="10.00">include/v8&#45;promise.h</text>
</a>
</g>
</g>
<!-- Node6&#45;&gt;Node24 -->
<g id="edge40" class="edge">
<title>Node6&#45;&gt;Node24</title>
<path fill="none" stroke="#63b8ff" d="M794.31,-593.94C826.13,-584.2 870.04,-570.77 898.84,-561.95"/>
<polygon fill="#63b8ff" stroke="#63b8ff" points="793.55,-590.82 785.02,-597.09 795.6,-597.51 793.55,-590.82"/>
</g>
<!-- Node32 -->
<g id="node32" class="node">
<title>Node32</title>
<g id="a_node32"><a xlink:href="v8-regexp_8h.html" target="_top" xlink:title=" ">
<polygon fill="white" stroke="#666666" points="584.12,-500.62 484.88,-500.62 484.88,-481.38 584.12,-481.38 584.12,-500.62"/>
<text text-anchor="middle" x="534.5" y="-487.12" font-family="Helvetica,sans-Serif" font-size="10.00">include/v8&#45;regexp.h</text>
</a>
</g>
</g>
<!-- Node6&#45;&gt;Node32 -->
<g id="edge61" class="edge">
<title>Node6&#45;&gt;Node32</title>
<path fill="none" stroke="#63b8ff" d="M695.14,-597.09C664.62,-590.54 627.78,-579.55 598.5,-561.5 572.25,-545.31 550.04,-515.42 540.09,-500.68"/>
<polygon fill="#63b8ff" stroke="#63b8ff" points="694.16,-600.66 704.65,-599.23 695.55,-593.8 694.16,-600.66"/>
</g>
<!-- Node33 -->
<g id="node33" class="node">
<title>Node33</title>
<g id="a_node33"><a xlink:href="v8-wasm_8h.html" target="_top" xlink:title=" ">
<polygon fill="white" stroke="#666666" points="468,-146.62 371,-146.62 371,-127.38 468,-127.38 468,-146.62"/>
<text text-anchor="middle" x="419.5" y="-133.12" font-family="Helvetica,sans-Serif" font-size="10.00">include/v8&#45;wasm.h</text>
</a>
</g>
</g>
<!-- Node6&#45;&gt;Node33 -->
<g id="edge64" class="edge">
<title>Node6&#45;&gt;Node33</title>
<path fill="none" stroke="#63b8ff" d="M695.28,-606.05C614.58,-604.59 476.21,-596.83 442.5,-561.5 368.26,-483.69 419.5,-428.17 419.5,-320.62 419.5,-320.62 419.5,-320.62 419.5,-263.38 419.5,-219.84 419.5,-167.81 419.5,-147.12"/>
<polygon fill="#63b8ff" stroke="#63b8ff" points="694.74,-609.55 704.79,-606.21 694.84,-602.55 694.74,-609.55"/>
</g>
<!-- Node7&#45;&gt;Node5 -->
<g id="edge25" class="edge">
<title>Node7&#45;&gt;Node5</title>
<path fill="none" stroke="#63b8ff" d="M347.8,-301.11C353.6,-293.35 359.52,-283.78 362.5,-274 382.23,-209.27 338.58,-185.42 361.5,-121.75 374.49,-85.66 382.74,-73.46 416.5,-55.25 480.31,-20.82 701.63,-12.92 787.28,-11.13"/>
<polygon fill="#63b8ff" stroke="#63b8ff" points="344.54,-298.58 341,-308.57 349.99,-302.97 344.54,-298.58"/>
</g>
<!-- Node8 -->
<g id="node8" class="node">
<title>Node8</title>
<g id="a_node8"><a xlink:href="v8-isolate_8h.html" target="_top" xlink:title=" ">
<polygon fill="white" stroke="#666666" points="1221.12,-274 1121.88,-274 1121.88,-254.75 1221.12,-254.75 1221.12,-274"/>
<text text-anchor="middle" x="1171.5" y="-260.5" font-family="Helvetica,sans-Serif" font-size="10.00">include/v8&#45;isolate.h</text>
</a>
</g>
</g>
<!-- Node7&#45;&gt;Node8 -->
<g id="edge8" class="edge">
<title>Node7&#45;&gt;Node8</title>
<path fill="none" stroke="#63b8ff" d="M402.7,-314.17C568.03,-303.68 978.76,-277.61 1121.59,-268.54"/>
<polygon fill="#63b8ff" stroke="#63b8ff" points="402.92,-310.71 393.17,-314.84 403.37,-317.7 402.92,-310.71"/>
</g>
<!-- Node17 -->
<g id="node17" class="node">
<title>Node17</title>
<g id="a_node17"><a xlink:href="v8-typed-array_8h.html" target="_top" xlink:title=" ">
<polygon fill="white" stroke="#666666" points="353.5,-274 235.5,-274 235.5,-254.75 353.5,-254.75 353.5,-274"/>
<text text-anchor="middle" x="294.5" y="-260.5" font-family="Helvetica,sans-Serif" font-size="10.00">include/v8&#45;typed&#45;array.h</text>
</a>
</g>
</g>
<!-- Node7&#45;&gt;Node17 -->
<g id="edge22" class="edge">
<title>Node7&#45;&gt;Node17</title>
<path fill="none" stroke="#63b8ff" d="M319.9,-300.97C313.54,-292.06 306.09,-281.62 300.91,-274.36"/>
<polygon fill="#63b8ff" stroke="#63b8ff" points="317.57,-302.72 326.23,-308.83 323.27,-298.66 317.57,-302.72"/>
</g>
<!-- Node8&#45;&gt;Node5 -->
<g id="edge21" class="edge">
<title>Node8&#45;&gt;Node5</title>
<path fill="none" stroke="#63b8ff" d="M1110.81,-256.83C1082.02,-250.97 1048.89,-239.84 1025.5,-218.75 990.74,-187.41 1014.15,-157.96 984.5,-121.75 943.92,-72.2 875.65,-35.74 841.8,-19.69"/>
<polygon fill="#63b8ff" stroke="#63b8ff" points="1110.13,-260.45 1120.6,-258.84 1111.41,-253.57 1110.13,-260.45"/>
</g>
<!-- Node9 -->
<g id="node9" class="node">
<title>Node9</title>
<g id="a_node9"><a xlink:href="v8-external-memory-accounter_8h.html" target="_top" xlink:title=" ">
<polygon fill="white" stroke="#666666" points="1140.88,-218.75 1034.12,-218.75 1034.12,-188.25 1140.88,-188.25 1140.88,-218.75"/>
<text text-anchor="start" x="1042.12" y="-205.25" font-family="Helvetica,sans-Serif" font-size="10.00">include/v8&#45;external</text>
<text text-anchor="middle" x="1087.5" y="-194" font-family="Helvetica,sans-Serif" font-size="10.00">&#45;memory&#45;accounter.h</text>
</a>
</g>
</g>
<!-- Node8&#45;&gt;Node9 -->
<g id="edge9" class="edge">
<title>Node8&#45;&gt;Node9</title>
<path fill="none" stroke="#63b8ff" d="M1150.09,-248.37C1137.23,-239.36 1120.96,-227.95 1108.23,-219.03"/>
<polygon fill="#63b8ff" stroke="#63b8ff" points="1147.54,-251.56 1157.74,-254.43 1151.56,-245.83 1147.54,-251.56"/>
</g>
<!-- Node10 -->
<g id="node10" class="node">
<title>Node10</title>
<g id="a_node10"><a xlink:href="v8-initialization_8h.html" target="_top" xlink:title=" ">
<polygon fill="white" stroke="#666666" points="1607,-213.12 1486,-213.12 1486,-193.88 1607,-193.88 1607,-213.12"/>
<text text-anchor="middle" x="1546.5" y="-199.62" font-family="Helvetica,sans-Serif" font-size="10.00">include/v8&#45;initialization.h</text>
</a>
</g>
</g>
<!-- Node8&#45;&gt;Node10 -->
<g id="edge10" class="edge">
<title>Node8&#45;&gt;Node10</title>
<path fill="none" stroke="#63b8ff" d="M1231.81,-253.91C1302.5,-242.81 1418.81,-224.55 1488.49,-213.61"/>
<polygon fill="#63b8ff" stroke="#63b8ff" points="1231.63,-250.55 1222.3,-255.56 1232.72,-257.46 1231.63,-250.55"/>
</g>
<!-- Node11 -->
<g id="node11" class="node">
<title>Node11</title>
<g id="a_node11"><a xlink:href="v8-inspector_8h.html" target="_top" xlink:title=" ">
<polygon fill="white" stroke="#666666" points="978.75,-213.12 868.25,-213.12 868.25,-193.88 978.75,-193.88 978.75,-213.12"/>
<text text-anchor="middle" x="923.5" y="-199.62" font-family="Helvetica,sans-Serif" font-size="10.00">include/v8&#45;inspector.h</text>
</a>
</g>
</g>
<!-- Node8&#45;&gt;Node11 -->
<g id="edge12" class="edge">
<title>Node8&#45;&gt;Node11</title>
<path fill="none" stroke="#63b8ff" d="M1122.72,-251.79C1075.54,-240.59 1005,-223.85 961.75,-213.58"/>
<polygon fill="#63b8ff" stroke="#63b8ff" points="1121.76,-255.4 1132.29,-254.3 1123.37,-248.59 1121.76,-255.4"/>
</g>
<!-- Node13 -->
<g id="node13" class="node">
<title>Node13</title>
<g id="a_node13"><a xlink:href="v8-metrics_8h.html" target="_top" xlink:title=" ">
<polygon fill="white" stroke="#666666" points="1391,-213.12 1288,-213.12 1288,-193.88 1391,-193.88 1391,-213.12"/>
<text text-anchor="middle" x="1339.5" y="-199.62" font-family="Helvetica,sans-Serif" font-size="10.00">include/v8&#45;metrics.h</text>
</a>
</g>
</g>
<!-- Node8&#45;&gt;Node13 -->
<g id="edge14" class="edge">
<title>Node8&#45;&gt;Node13</title>
<path fill="none" stroke="#63b8ff" d="M1207.62,-250.72C1239.51,-239.54 1285.21,-223.52 1313.59,-213.58"/>
<polygon fill="#63b8ff" stroke="#63b8ff" points="1206.66,-247.69 1198.38,-254.3 1208.98,-254.3 1206.66,-247.69"/>
</g>
<!-- Node14 -->
<g id="node14" class="node">
<title>Node14</title>
<g id="a_node14"><a xlink:href="v8-snapshot_8h.html" target="_top" xlink:title=" ">
<polygon fill="white" stroke="#666666" points="1269.75,-213.12 1159.25,-213.12 1159.25,-193.88 1269.75,-193.88 1269.75,-213.12"/>
<text text-anchor="middle" x="1214.5" y="-199.62" font-family="Helvetica,sans-Serif" font-size="10.00">include/v8&#45;snapshot.h</text>
</a>
</g>
</g>
<!-- Node8&#45;&gt;Node14 -->
<g id="edge15" class="edge">
<title>Node8&#45;&gt;Node14</title>
<path fill="none" stroke="#63b8ff" d="M1184.49,-245.59C1192.22,-235 1201.7,-222.03 1207.91,-213.53"/>
<polygon fill="#63b8ff" stroke="#63b8ff" points="1181.1,-243.29 1178.03,-253.43 1186.76,-247.42 1181.1,-243.29"/>
</g>
<!-- Node10&#45;&gt;Node5 -->
<g id="edge11" class="edge">
<title>Node10&#45;&gt;Node5</title>
<path fill="none" stroke="#63b8ff" d="M1542.95,-183.11C1535.83,-150.41 1516.47,-84.98 1471.5,-55.25 1419.9,-21.14 981.88,-12.74 855.5,-11.02"/>
<polygon fill="#63b8ff" stroke="#63b8ff" points="1539.65,-183.43 1545.04,-192.54 1546.51,-182.05 1539.65,-183.43"/>
</g>
<!-- Node12 -->
<g id="node12" class="node">
<title>Node12</title>
<g id="a_node12"><a xlink:href="v8-inspector-protocol_8h.html" target="_top" xlink:title=" ">
<polygon fill="white" stroke="#666666" points="975,-152.25 872,-152.25 872,-121.75 975,-121.75 975,-152.25"/>
<text text-anchor="start" x="880" y="-138.75" font-family="Helvetica,sans-Serif" font-size="10.00">include/v8&#45;inspector</text>
<text text-anchor="middle" x="923.5" y="-127.5" font-family="Helvetica,sans-Serif" font-size="10.00">&#45;protocol.h</text>
</a>
</g>
</g>
<!-- Node11&#45;&gt;Node12 -->
<g id="edge13" class="edge">
<title>Node11&#45;&gt;Node12</title>
<path fill="none" stroke="#63b8ff" d="M923.5,-182.77C923.5,-172.95 923.5,-161.3 923.5,-152.34"/>
<polygon fill="#63b8ff" stroke="#63b8ff" points="920,-182.53 923.5,-192.53 927,-182.53 920,-182.53"/>
</g>
<!-- Node14&#45;&gt;Node5 -->
<g id="edge20" class="edge">
<title>Node14&#45;&gt;Node5</title>
<path fill="none" stroke="#63b8ff" d="M1186.14,-188.37C1168.39,-179.04 1145.4,-166.03 1126.5,-152.25 1074.9,-114.63 1077.12,-84.79 1020.5,-55.25 967.13,-27.41 896.89,-16.87 855.72,-12.92"/>
<polygon fill="#63b8ff" stroke="#63b8ff" points="1184.42,-191.94 1194.91,-193.42 1187.63,-185.72 1184.42,-191.94"/>
</g>
<!-- Node15 -->
<g id="node15" class="node">
<title>Node15</title>
<g id="a_node15"><a xlink:href="v8-context_8h.html" target="_top" xlink:title=" ">
<polygon fill="white" stroke="#666666" points="1237.62,-146.62 1135.38,-146.62 1135.38,-127.38 1237.62,-127.38 1237.62,-146.62"/>
<text text-anchor="middle" x="1186.5" y="-133.12" font-family="Helvetica,sans-Serif" font-size="10.00">include/v8&#45;context.h</text>
</a>
</g>
</g>
<!-- Node14&#45;&gt;Node15 -->
<g id="edge16" class="edge">
<title>Node14&#45;&gt;Node15</title>
<path fill="none" stroke="#63b8ff" d="M1206.26,-183.52C1201.01,-171.42 1194.44,-156.3 1190.36,-146.89"/>
<polygon fill="#63b8ff" stroke="#63b8ff" points="1203.41,-184.75 1210.61,-192.53 1209.84,-181.96 1203.41,-184.75"/>
</g>
<!-- Node15&#45;&gt;Node5 -->
<g id="edge19" class="edge">
<title>Node15&#45;&gt;Node5</title>
<path fill="none" stroke="#63b8ff" d="M1168.21,-120.11C1145.81,-101.53 1105.96,-71.3 1066.5,-55.25 995.01,-26.18 904.1,-15.95 855.61,-12.42"/>
<polygon fill="#63b8ff" stroke="#63b8ff" points="1165.53,-123.27 1175.43,-127.05 1170.05,-117.92 1165.53,-123.27"/>
</g>
<!-- Node15&#45;&gt;Node16 -->
<g id="edge17" class="edge">
<title>Node15&#45;&gt;Node16</title>
<path fill="none" stroke="#63b8ff" d="M1186.5,-116.27C1186.5,-104.3 1186.5,-89.6 1186.5,-80.39"/>
<polygon fill="#63b8ff" stroke="#63b8ff" points="1183,-116.03 1186.5,-126.03 1190,-116.03 1183,-116.03"/>
</g>
<!-- Node16&#45;&gt;Node5 -->
<g id="edge18" class="edge">
<title>Node16&#45;&gt;Node5</title>
<path fill="none" stroke="#63b8ff" d="M1134.12,-58.21C1128.85,-57.17 1123.58,-56.16 1118.5,-55.25 1023.56,-38.18 910.74,-22.48 855.46,-15.08"/>
<polygon fill="#63b8ff" stroke="#63b8ff" points="1133.36,-61.83 1143.86,-60.38 1134.75,-54.97 1133.36,-61.83"/>
</g>
<!-- Node17&#45;&gt;Node4 -->
<g id="edge23" class="edge">
<title>Node17&#45;&gt;Node4</title>
<path fill="none" stroke="#63b8ff" d="M262.11,-250.31C239.27,-241.1 208.64,-228.75 184.94,-219.19"/>
<polygon fill="#63b8ff" stroke="#63b8ff" points="260.42,-253.81 271.01,-254.3 263.04,-247.32 260.42,-253.81"/>
</g>
<!-- Node17&#45;&gt;Node5 -->
<g id="edge24" class="edge">
<title>Node17&#45;&gt;Node5</title>
<path fill="none" stroke="#63b8ff" d="M290.77,-243.76C284.12,-202.12 275.44,-104.64 328.5,-55.25 362,-24.07 681.05,-13.88 787.28,-11.34"/>
<polygon fill="#63b8ff" stroke="#63b8ff" points="287.49,-244.33 292.66,-253.57 294.39,-243.12 287.49,-244.33"/>
</g>
<!-- Node18&#45;&gt;Node5 -->
<g id="edge27" class="edge">
<title>Node18&#45;&gt;Node5</title>
<path fill="none" stroke="#63b8ff" d="M684.08,-532.88C670.74,-510.11 650.5,-469.26 650.5,-431.12 650.5,-431.12 650.5,-431.12 650.5,-136 650.5,-93.07 670.01,-82.1 703.5,-55.25 728.02,-35.59 762.13,-23.95 787.37,-17.51"/>
<polygon fill="#63b8ff" stroke="#63b8ff" points="681.43,-534.27 689.62,-540.99 687.41,-530.63 681.43,-534.27"/>
</g>
<!-- Node19&#45;&gt;Node5 -->
<g id="edge29" class="edge">
<title>Node19&#45;&gt;Node5</title>
<path fill="none" stroke="#63b8ff" d="M781.56,-537.16C744.53,-518.85 688.5,-482.63 688.5,-431.12 688.5,-431.12 688.5,-431.12 688.5,-136 688.5,-76.18 760.61,-36.48 798.64,-19.7"/>
<polygon fill="#63b8ff" stroke="#63b8ff" points="779.91,-540.72 790.44,-541.85 782.91,-534.4 779.91,-540.72"/>
</g>
<!-- Node20&#45;&gt;Node5 -->
<g id="edge36" class="edge">
<title>Node20&#45;&gt;Node5</title>
<path fill="none" stroke="#63b8ff" d="M967.42,-477.73C887.42,-452.46 726.5,-386.56 726.5,-265.38 726.5,-265.38 726.5,-265.38 726.5,-136 726.5,-82.75 781.62,-37.88 807.89,-19.52"/>
<polygon fill="#63b8ff" stroke="#63b8ff" points="966.1,-481.29 976.69,-480.89 968.16,-474.6 966.1,-481.29"/>
</g>
<!-- Node20&#45;&gt;Node8 -->
<g id="edge31" class="edge">
<title>Node20&#45;&gt;Node8</title>
<path fill="none" stroke="#63b8ff" d="M998.43,-472.4C989.5,-458.09 980.6,-437.55 988.5,-420.5 1022.99,-346.05 1112.77,-294.32 1152.32,-274.43"/>
<polygon fill="#63b8ff" stroke="#63b8ff" points="995.89,-473.9 1004.41,-480.2 1001.68,-469.96 995.89,-473.9"/>
</g>
<!-- Node20&#45;&gt;Node21 -->
<g id="edge32" class="edge">
<title>Node20&#45;&gt;Node21</title>
<path fill="none" stroke="#63b8ff" d="M1023.59,-472.21C1030.78,-461.63 1039.59,-448.65 1045.37,-440.15"/>
<polygon fill="#63b8ff" stroke="#63b8ff" points="1020.3,-469.82 1017.58,-480.06 1026.09,-473.75 1020.3,-469.82"/>
</g>
<!-- Node21&#45;&gt;Node5 -->
<g id="edge35" class="edge">
<title>Node21&#45;&gt;Node5</title>
<path fill="none" stroke="#63b8ff" d="M986.49,-421.48C925.81,-410.96 836.83,-386.32 783.5,-329.25 763.28,-307.61 764.5,-294.99 764.5,-265.38 764.5,-265.38 764.5,-265.38 764.5,-136 764.5,-88.66 798.6,-39.55 814.05,-19.73"/>
<polygon fill="#63b8ff" stroke="#63b8ff" points="985.67,-425.06 996.11,-423.23 986.81,-418.15 985.67,-425.06"/>
</g>
<!-- Node21&#45;&gt;Node22 -->
<g id="edge33" class="edge">
<title>Node21&#45;&gt;Node22</title>
<path fill="none" stroke="#63b8ff" d="M1109.34,-418.01C1160.38,-408.19 1233.86,-394.07 1281.39,-384.93"/>
<polygon fill="#63b8ff" stroke="#63b8ff" points="1108.96,-414.71 1099.8,-420.03 1110.28,-421.58 1108.96,-414.71"/>
</g>
<!-- Node22&#45;&gt;Node5 -->
<g id="edge34" class="edge">
<title>Node22&#45;&gt;Node5</title>
<path fill="none" stroke="#63b8ff" d="M1365.65,-360.86C1403.76,-344.86 1457.5,-313.73 1457.5,-265.38 1457.5,-265.38 1457.5,-265.38 1457.5,-136 1457.5,-12.2 987.8,-8.59 855.69,-10.02"/>
<polygon fill="#63b8ff" stroke="#63b8ff" points="1364.84,-357.82 1356.86,-364.79 1367.44,-364.32 1364.84,-357.82"/>
</g>
<!-- Node23&#45;&gt;Node5 -->
<g id="edge39" class="edge">
<title>Node23&#45;&gt;Node5</title>
<path fill="none" stroke="#63b8ff" d="M557.12,-55.92C558.26,-55.69 559.38,-55.47 560.5,-55.25 641.46,-39.32 737.21,-23.79 787.2,-15.93"/>
<polygon fill="#63b8ff" stroke="#63b8ff" points="556.84,-52.61 547.76,-58.06 558.26,-59.47 556.84,-52.61"/>
</g>
<!-- Node24&#45;&gt;Node5 -->
<g id="edge59" class="edge">
<title>Node24&#45;&gt;Node5</title>
<path fill="none" stroke="#63b8ff" d="M930.02,-531.04C932.6,-489.15 935.46,-389.07 911.5,-310 897.96,-265.33 875.47,-262.61 859.5,-218.75 832.6,-144.89 824.12,-49.08 822.06,-19.63"/>
<polygon fill="#63b8ff" stroke="#63b8ff" points="926.47,-530.65 929.27,-540.87 933.45,-531.13 926.47,-530.65"/>
</g>
<!-- Node25 -->
<g id="node25" class="node">
<title>Node25</title>
<g id="a_node25"><a xlink:href="v8-callbacks_8h.html" target="_top" xlink:title=" ">
<polygon fill="white" stroke="#666666" points="1519.5,-500.62 1407.5,-500.62 1407.5,-481.38 1519.5,-481.38 1519.5,-500.62"/>
<text text-anchor="middle" x="1463.5" y="-487.12" font-family="Helvetica,sans-Serif" font-size="10.00">include/v8&#45;callbacks.h</text>
</a>
</g>
</g>
<!-- Node24&#45;&gt;Node25 -->
<g id="edge41" class="edge">
<title>Node24&#45;&gt;Node25</title>
<path fill="none" stroke="#63b8ff" d="M992.23,-544.28C1073.88,-535.78 1219.78,-520.41 1344.5,-506.25 1364.97,-503.93 1387.4,-501.27 1407.22,-498.88"/>
<polygon fill="#63b8ff" stroke="#63b8ff" points="991.97,-540.9 982.39,-545.41 992.69,-547.86 991.97,-540.9"/>
</g>
<!-- Node31 -->
<g id="node31" class="node">
<title>Node31</title>
<g id="a_node31"><a xlink:href="v8-statistics_8h.html" target="_top" xlink:title=" ">
<polygon fill="white" stroke="#666666" points="902.75,-329.25 792.25,-329.25 792.25,-310 902.75,-310 902.75,-329.25"/>
<text text-anchor="middle" x="847.5" y="-315.75" font-family="Helvetica,sans-Serif" font-size="10.00">include/v8&#45;statistics.h</text>
</a>
</g>
</g>
<!-- Node24&#45;&gt;Node31 -->
<g id="edge56" class="edge">
<title>Node24&#45;&gt;Node31</title>
<path fill="none" stroke="#63b8ff" d="M921.76,-531.72C905.08,-484.32 862.38,-362.91 850.57,-329.34"/>
<polygon fill="#63b8ff" stroke="#63b8ff" points="918.7,-532.58 925.32,-540.85 925.31,-530.25 918.7,-532.58"/>
</g>
<!-- Node25&#45;&gt;Node8 -->
<g id="edge43" class="edge">
<title>Node25&#45;&gt;Node8</title>
<path fill="none" stroke="#63b8ff" d="M1456.62,-470.88C1446.12,-444.08 1423.74,-395.27 1390.5,-365.25 1336.39,-316.37 1254.29,-287.72 1207.5,-274.44"/>
<polygon fill="#63b8ff" stroke="#63b8ff" points="1453.59,-471.77 1460.39,-479.9 1460.14,-469.3 1453.59,-471.77"/>
</g>
<!-- Node25&#45;&gt;Node10 -->
<g id="edge42" class="edge">
<title>Node25&#45;&gt;Node10</title>
<path fill="none" stroke="#63b8ff" d="M1465.11,-470.24C1467.45,-445.4 1472.63,-401.61 1482.5,-365.25 1498.79,-305.24 1530.58,-237.18 1542.15,-213.32"/>
<polygon fill="#63b8ff" stroke="#63b8ff" points="1461.55,-469.82 1464.16,-480.08 1468.52,-470.43 1461.55,-469.82"/>
</g>
<!-- Node26 -->
<g id="node26" class="node">
<title>Node26</title>
<g id="a_node26"><a xlink:href="v8-message_8h.html" target="_top" xlink:title=" ">
<polygon fill="white" stroke="#666666" points="1639.75,-439.75 1529.25,-439.75 1529.25,-420.5 1639.75,-420.5 1639.75,-439.75"/>
<text text-anchor="middle" x="1584.5" y="-426.25" font-family="Helvetica,sans-Serif" font-size="10.00">include/v8&#45;message.h</text>
</a>
</g>
</g>
<!-- Node25&#45;&gt;Node26 -->
<g id="edge44" class="edge">
<title>Node25&#45;&gt;Node26</title>
<path fill="none" stroke="#63b8ff" d="M1491.98,-476.14C1514.86,-465.01 1546.33,-449.7 1566.04,-440.11"/>
<polygon fill="#63b8ff" stroke="#63b8ff" points="1490.6,-473.41 1483.14,-480.93 1493.66,-479.7 1490.6,-473.41"/>
</g>
<!-- Node29 -->
<g id="node29" class="node">
<title>Node29</title>
<g id="a_node29"><a xlink:href="v8-script_8h.html" target="_top" xlink:title=" ">
<polygon fill="white" stroke="#666666" points="1585.88,-384.5 1491.12,-384.5 1491.12,-365.25 1585.88,-365.25 1585.88,-384.5"/>
<text text-anchor="middle" x="1538.5" y="-371" font-family="Helvetica,sans-Serif" font-size="10.00">include/v8&#45;script.h</text>
</a>
</g>
</g>
<!-- Node25&#45;&gt;Node29 -->
<g id="edge55" class="edge">
<title>Node25&#45;&gt;Node29</title>
<path fill="none" stroke="#63b8ff" d="M1475.34,-471.99C1491.63,-447.2 1520.34,-403.5 1532.64,-384.79"/>
<polygon fill="#63b8ff" stroke="#63b8ff" points="1471.95,-469.77 1469.39,-480.04 1477.8,-473.61 1471.95,-469.77"/>
</g>
<!-- Node26&#45;&gt;Node5 -->
<g id="edge54" class="edge">
<title>Node26&#45;&gt;Node5</title>
<path fill="none" stroke="#63b8ff" d="M1650.67,-421.88C1674.12,-415.76 1698.2,-404.63 1712.5,-384.5 1717.45,-377.53 1712.54,-373.81 1712.5,-365.25 1712.28,-320.86 1711.5,-309.77 1711.5,-265.38 1711.5,-265.38 1711.5,-265.38 1711.5,-136 1711.5,-82.26 1671.13,-75.86 1621.5,-55.25 1550.12,-25.62 999.71,-13.8 855.83,-11.2"/>
<polygon fill="#63b8ff" stroke="#63b8ff" points="1649.94,-418.69 1640.99,-424.35 1651.52,-425.51 1649.94,-418.69"/>
</g>
<!-- Node26&#45;&gt;Node22 -->
<g id="edge45" class="edge">
<title>Node26&#45;&gt;Node22</title>
<path fill="none" stroke="#63b8ff" d="M1530.16,-417.82C1483.02,-408.02 1415.69,-394.01 1372.04,-384.93"/>
<polygon fill="#63b8ff" stroke="#63b8ff" points="1529.28,-421.42 1539.78,-420.03 1530.71,-414.57 1529.28,-421.42"/>
</g>
<!-- Node27 -->
<g id="node27" class="node">
<title>Node27</title>
<g id="a_node27"><a xlink:href="v8-json_8h.html" target="_top" xlink:title=" ">
<polygon fill="white" stroke="#666666" points="1827.88,-329.25 1739.12,-329.25 1739.12,-310 1827.88,-310 1827.88,-329.25"/>
<text text-anchor="middle" x="1783.5" y="-315.75" font-family="Helvetica,sans-Serif" font-size="10.00">include/v8&#45;json.h</text>
</a>
</g>
</g>
<!-- Node26&#45;&gt;Node27 -->
<g id="edge46" class="edge">
<title>Node26&#45;&gt;Node27</title>
<path fill="none" stroke="#63b8ff" d="M1651,-422.26C1682.2,-416.31 1718.39,-405.21 1745.5,-384.5 1764.37,-370.09 1775.74,-343.4 1780.65,-329.52"/>
<polygon fill="#63b8ff" stroke="#63b8ff" points="1650.44,-418.98 1641.19,-424.15 1651.65,-425.87 1650.44,-418.98"/>
</g>
<!-- Node28 -->
<g id="node28" class="node">
<title>Node28</title>
<g id="a_node28"><a xlink:href="v8-profiler_8h.html" target="_top" xlink:title=" ">
<polygon fill="white" stroke="#666666" points="1703.12,-384.5 1603.88,-384.5 1603.88,-365.25 1703.12,-365.25 1703.12,-384.5"/>
<text text-anchor="middle" x="1653.5" y="-371" font-family="Helvetica,sans-Serif" font-size="10.00">include/v8&#45;profiler.h</text>
</a>
</g>
</g>
<!-- Node26&#45;&gt;Node28 -->
<g id="edge48" class="edge">
<title>Node26&#45;&gt;Node28</title>
<path fill="none" stroke="#63b8ff" d="M1604.79,-413.47C1616.9,-404.12 1631.85,-392.58 1641.97,-384.77"/>
<polygon fill="#63b8ff" stroke="#63b8ff" points="1602.98,-411.21 1597.2,-420.09 1607.26,-416.75 1602.98,-411.21"/>
</g>
<!-- Node26&#45;&gt;Node29 -->
<g id="edge49" class="edge">
<title>Node26&#45;&gt;Node29</title>
<path fill="none" stroke="#63b8ff" d="M1569.74,-412.04C1561.93,-403 1552.66,-392.27 1546.26,-384.86"/>
<polygon fill="#63b8ff" stroke="#63b8ff" points="1567.72,-414.05 1576.9,-419.33 1573.02,-409.48 1567.72,-414.05"/>
</g>
<!-- Node27&#45;&gt;Node5 -->
<g id="edge47" class="edge">
<title>Node27&#45;&gt;Node5</title>
<path fill="none" stroke="#63b8ff" d="M1774.3,-299.96C1764.23,-277.77 1749.5,-239.34 1749.5,-204.5 1749.5,-204.5 1749.5,-204.5 1749.5,-136 1749.5,-98.56 1754.95,-78.37 1725.5,-55.25 1690.68,-27.91 1016.52,-14.12 855.72,-11.21"/>
<polygon fill="#63b8ff" stroke="#63b8ff" points="1771.48,-301.18 1778.91,-308.72 1777.81,-298.19 1771.48,-301.18"/>
</g>
<!-- Node29&#45;&gt;Node5 -->
<g id="edge53" class="edge">
<title>Node29&#45;&gt;Node5</title>
<path fill="none" stroke="#63b8ff" d="M1578.38,-360.97C1618.19,-345.29 1673.5,-314.65 1673.5,-265.38 1673.5,-265.38 1673.5,-265.38 1673.5,-136 1673.5,-77.13 1623.65,-75.86 1568.5,-55.25 1501.26,-30.12 993.41,-15.12 855.8,-11.49"/>
<polygon fill="#63b8ff" stroke="#63b8ff" points="1577.26,-358.03 1569.13,-364.82 1579.72,-364.58 1577.26,-358.03"/>
</g>
<!-- Node30 -->
<g id="node30" class="node">
<title>Node30</title>
<g id="a_node30"><a xlink:href="v8-debug_8h.html" target="_top" xlink:title=" ">
<polygon fill="white" stroke="#666666" points="1621,-329.25 1524,-329.25 1524,-310 1621,-310 1621,-329.25"/>
<text text-anchor="middle" x="1572.5" y="-315.75" font-family="Helvetica,sans-Serif" font-size="10.00">include/v8&#45;debug.h</text>
</a>
</g>
</g>
<!-- Node29&#45;&gt;Node30 -->
<g id="edge50" class="edge">
<title>Node29&#45;&gt;Node30</title>
<path fill="none" stroke="#63b8ff" d="M1549.95,-355.94C1555.61,-347.09 1562.18,-336.79 1566.76,-329.61"/>
<polygon fill="#63b8ff" stroke="#63b8ff" points="1546.55,-353.77 1544.11,-364.08 1552.45,-357.54 1546.55,-353.77"/>
</g>
<!-- Node30&#45;&gt;Node5 -->
<g id="edge52" class="edge">
<title>Node30&#45;&gt;Node5</title>
<path fill="none" stroke="#63b8ff" d="M1589.13,-301.57C1607.8,-280.57 1635.5,-242.92 1635.5,-204.5 1635.5,-204.5 1635.5,-204.5 1635.5,-136 1635.5,-65.7 1566.64,-76.08 1499.5,-55.25 1377.4,-17.38 976.02,-11.65 855.82,-10.78"/>
<polygon fill="#63b8ff" stroke="#63b8ff" points="1587.01,-298.79 1582.8,-308.51 1592.15,-303.54 1587.01,-298.79"/>
</g>
<!-- Node30&#45;&gt;Node8 -->
<g id="edge51" class="edge">
<title>Node30&#45;&gt;Node8</title>
<path fill="none" stroke="#63b8ff" d="M1512.97,-310.72C1433.86,-300.22 1295.48,-281.84 1221.5,-272.01"/>
<polygon fill="#63b8ff" stroke="#63b8ff" points="1512.36,-314.3 1522.73,-312.15 1513.28,-307.36 1512.36,-314.3"/>
</g>
<!-- Node31&#45;&gt;Node5 -->
<g id="edge58" class="edge">
<title>Node31&#45;&gt;Node5</title>
<path fill="none" stroke="#63b8ff" d="M835.49,-300.59C822.16,-278.79 802.5,-240.54 802.5,-204.5 802.5,-204.5 802.5,-204.5 802.5,-136 802.5,-91.97 814.1,-40.21 819.17,-19.68"/>
<polygon fill="#63b8ff" stroke="#63b8ff" points="832.92,-302.08 841.24,-308.64 838.83,-298.32 832.92,-302.08"/>
</g>
<!-- Node31&#45;&gt;Node8 -->
<g id="edge57" class="edge">
<title>Node31&#45;&gt;Node8</title>
<path fill="none" stroke="#63b8ff" d="M913.6,-307.76C975.18,-297.64 1065.66,-282.77 1121.45,-273.6"/>
<polygon fill="#63b8ff" stroke="#63b8ff" points="913.13,-304.46 903.83,-309.53 914.26,-311.36 913.13,-304.46"/>
</g>
<!-- Node32&#45;&gt;Node5 -->
<g id="edge62" class="edge">
<title>Node32&#45;&gt;Node5</title>
<path fill="none" stroke="#63b8ff" d="M545.34,-471.49C557.18,-449.47 574.5,-411.24 574.5,-375.88 574.5,-375.88 574.5,-375.88 574.5,-136 574.5,-98.56 570.84,-80.49 598.5,-55.25 625.7,-30.43 731.62,-18.09 787.13,-13.22"/>
<polygon fill="#63b8ff" stroke="#63b8ff" points="541.89,-469.48 540.06,-479.91 548,-472.9 541.89,-469.48"/>
</g>
<!-- Node33&#45;&gt;Node5 -->
<g id="edge65" class="edge">
<title>Node33&#45;&gt;Node5</title>
<path fill="none" stroke="#63b8ff" d="M417.98,-116.35C417.73,-97.75 420.61,-70.48 437.5,-55.25 463.27,-32.02 697.88,-17.21 787.19,-12.37"/>
<polygon fill="#63b8ff" stroke="#63b8ff" points="414.52,-116.28 418.49,-126.11 421.52,-115.95 414.52,-116.28"/>
</g>
<!-- Node34&#45;&gt;Node5 -->
<g id="edge78" class="edge">
<title>Node34&#45;&gt;Node5</title>
<path fill="none" stroke="#63b8ff" d="M1351.49,-665.01C1475.04,-660.57 1739.1,-647.68 1824.5,-616.75 1871.65,-599.67 1917.5,-603.02 1917.5,-552.88 1917.5,-552.88 1917.5,-552.88 1917.5,-136 1917.5,-99.13 1926.92,-78.73 1898.5,-55.25 1857.38,-21.28 1035.22,-12.42 855.86,-10.89"/>
<polygon fill="#63b8ff" stroke="#63b8ff" points="1351.56,-661.54 1341.69,-665.39 1351.81,-668.54 1351.56,-661.54"/>
</g>
<!-- Node34&#45;&gt;Node6 -->
<g id="edge77" class="edge">
<title>Node34&#45;&gt;Node6</title>
<path fill="none" stroke="#63b8ff" d="M1221.83,-659.84C1113.87,-647.9 899.34,-624.15 803.15,-613.51"/>
<polygon fill="#63b8ff" stroke="#63b8ff" points="1221.24,-663.41 1231.56,-661.03 1222.01,-656.45 1221.24,-663.41"/>
</g>
<!-- Node34&#45;&gt;Node8 -->
<g id="edge75" class="edge">
<title>Node34&#45;&gt;Node8</title>
<path fill="none" stroke="#63b8ff" d="M1278.93,-648.2C1267.11,-618.43 1244.04,-558.44 1228.5,-506.25 1201.9,-416.87 1179.44,-305.94 1173.21,-274.22"/>
<polygon fill="#63b8ff" stroke="#63b8ff" points="1275.9,-649.07 1282.86,-657.06 1282.4,-646.47 1275.9,-649.07"/>
</g>
<!-- Node34&#45;&gt;Node26 -->
<g id="edge76" class="edge">
<title>Node34&#45;&gt;Node26</title>
<path fill="none" stroke="#63b8ff" d="M1313.94,-652.88C1361.21,-627.7 1459.59,-571.52 1528.5,-506.25 1550.47,-485.44 1570.08,-455.21 1579.16,-440.24"/>
<polygon fill="#63b8ff" stroke="#63b8ff" points="1312.6,-650.15 1305.39,-657.91 1315.86,-656.35 1312.6,-650.15"/>
</g>
<!-- Node35 -->
<g id="node35" class="node">
<title>Node35</title>
<g id="a_node35"><a xlink:href="v8-extension_8h.html" target="_top" xlink:title=" ">
<polygon fill="white" stroke="#666666" points="1889.5,-80.12 1777.5,-80.12 1777.5,-60.88 1889.5,-60.88 1889.5,-80.12"/>
<text text-anchor="middle" x="1833.5" y="-66.62" font-family="Helvetica,sans-Serif" font-size="10.00">include/v8&#45;extension.h</text>
</a>
</g>
</g>
<!-- Node34&#45;&gt;Node35 -->
<g id="edge68" class="edge">
<title>Node34&#45;&gt;Node35</title>
<path fill="none" stroke="#63b8ff" d="M1351.35,-667.49C1500.56,-666.88 1855.5,-654.73 1855.5,-552.88 1855.5,-552.88 1855.5,-552.88 1855.5,-202.5 1855.5,-156.15 1841.94,-101.82 1836.11,-80.62"/>
<polygon fill="#63b8ff" stroke="#63b8ff" points="1351.53,-664 1341.54,-667.52 1351.55,-671 1351.53,-664"/>
</g>
<!-- Node36 -->
<g id="node36" class="node">
<title>Node36</title>
<g id="a_node36"><a xlink:href="v8-function-callback_8h.html" target="_top" xlink:title=" ">
<polygon fill="white" stroke="#666666" points="1335.38,-506.25 1237.62,-506.25 1237.62,-475.75 1335.38,-475.75 1335.38,-506.25"/>
<text text-anchor="start" x="1245.62" y="-492.75" font-family="Helvetica,sans-Serif" font-size="10.00">include/v8&#45;function</text>
<text text-anchor="middle" x="1286.5" y="-481.5" font-family="Helvetica,sans-Serif" font-size="10.00">&#45;callback.h</text>
</a>
</g>
</g>
<!-- Node34&#45;&gt;Node36 -->
<g id="edge70" class="edge">
<title>Node34&#45;&gt;Node36</title>
<path fill="none" stroke="#63b8ff" d="M1286.5,-647.25C1286.5,-611.71 1286.5,-537.82 1286.5,-506.51"/>
<polygon fill="#63b8ff" stroke="#63b8ff" points="1283,-647.08 1286.5,-657.08 1290,-647.08 1283,-647.08"/>
</g>
<!-- Node35&#45;&gt;Node5 -->
<g id="edge69" class="edge">
<title>Node35&#45;&gt;Node5</title>
<path fill="none" stroke="#63b8ff" d="M1783.87,-58.42C1777.05,-57.18 1770.12,-56.08 1763.5,-55.25 1410.54,-11.23 978.24,-9.79 855.45,-10.36"/>
<polygon fill="#63b8ff" stroke="#63b8ff" points="1782.95,-62 1793.43,-60.44 1784.27,-55.12 1782.95,-62"/>
</g>
<!-- Node36&#45;&gt;Node8 -->
<g id="edge72" class="edge">
<title>Node36&#45;&gt;Node8</title>
<path fill="none" stroke="#63b8ff" d="M1274.05,-465.68C1248.73,-416.23 1192.25,-305.91 1175.97,-274.11"/>
<polygon fill="#63b8ff" stroke="#63b8ff" points="1271.28,-466.96 1278.95,-474.26 1277.51,-463.77 1271.28,-466.96"/>
</g>
<!-- Node36&#45;&gt;Node21 -->
<g id="edge73" class="edge">
<title>Node36&#45;&gt;Node21</title>
<path fill="none" stroke="#63b8ff" d="M1226.69,-475.02C1182.82,-464.02 1124.67,-449.46 1087.66,-440.18"/>
<polygon fill="#63b8ff" stroke="#63b8ff" points="1225.69,-478.62 1236.24,-477.66 1227.39,-471.83 1225.69,-478.62"/>
</g>
<!-- Node36&#45;&gt;Node22 -->
<g id="edge71" class="edge">
<title>Node36&#45;&gt;Node22</title>
<path fill="none" stroke="#63b8ff" d="M1291.47,-464.92C1294.5,-451.49 1298.89,-434.83 1304.5,-420.5 1309.57,-407.56 1317.52,-393.59 1322.87,-384.8"/>
<polygon fill="#63b8ff" stroke="#63b8ff" points="1287.91,-463.79 1289.24,-474.3 1294.76,-465.26 1287.91,-463.79"/>
</g>
<!-- Node37 -->
<g id="node37" class="node">
<title>Node37</title>
<g id="a_node37"><a xlink:href="v8-util_8h.html" target="_top" xlink:title=" ">
<polygon fill="white" stroke="#666666" points="1397.25,-439.75 1313.75,-439.75 1313.75,-420.5 1397.25,-420.5 1397.25,-439.75"/>
<text text-anchor="middle" x="1355.5" y="-426.25" font-family="Helvetica,sans-Serif" font-size="10.00">include/v8&#45;util.h</text>
</a>
</g>
</g>
<!-- Node36&#45;&gt;Node37 -->
<g id="edge74" class="edge">
<title>Node36&#45;&gt;Node37</title>
<path fill="none" stroke="#63b8ff" d="M1311.89,-468.33C1323.28,-458.62 1336.09,-447.69 1344.86,-440.2"/>
<polygon fill="#63b8ff" stroke="#63b8ff" points="1309.89,-466.29 1304.56,-475.45 1314.44,-471.62 1309.89,-466.29"/>
</g>
</g>
</svg>
