<?xml version="1.0" encoding="UTF-8" standalone="no"?>
<!DOCTYPE svg PUBLIC "-//W3C//DTD SVG 1.1//EN"
 "http://www.w3.org/Graphics/SVG/1.1/DTD/svg11.dtd">
<!-- Generated by graphviz version 8.0.5 (20230430.1635)
 -->
<!-- Title: include/cppgc/custom&#45;space.h Pages: 1 -->
<svg width="427pt" height="349pt"
 viewBox="0.00 0.00 427.38 348.50" xmlns="http://www.w3.org/2000/svg" xmlns:xlink="http://www.w3.org/1999/xlink">
<g id="graph0" class="graph" transform="scale(1 1) rotate(0) translate(4 344.5)">
<title>include/cppgc/custom&#45;space.h</title>
<!-- Node1 -->
<g id="node1" class="node">
<title>Node1</title>
<g id="a_node1"><a xlink:title=" ">
<polygon fill="#999999" stroke="#666666" points="296.5,-340.5 185.25,-340.5 185.25,-310 296.5,-310 296.5,-340.5"/>
<text text-anchor="start" x="193.25" y="-327" font-family="Helvetica,sans-Serif" font-size="10.00">include/cppgc/custom</text>
<text text-anchor="middle" x="240.88" y="-315.75" font-family="Helvetica,sans-Serif" font-size="10.00">&#45;space.h</text>
</a>
</g>
</g>
<!-- Node2 -->
<g id="node2" class="node">
<title>Node2</title>
<g id="a_node2"><a xlink:href="allocation_8h.html" target="_top" xlink:title=" ">
<polygon fill="white" stroke="#666666" points="127.75,-274 0,-274 0,-254.75 127.75,-254.75 127.75,-274"/>
<text text-anchor="middle" x="63.88" y="-260.5" font-family="Helvetica,sans-Serif" font-size="10.00">include/cppgc/allocation.h</text>
</a>
</g>
</g>
<!-- Node1&#45;&gt;Node2 -->
<g id="edge1" class="edge">
<title>Node1&#45;&gt;Node2</title>
<path fill="none" stroke="#63b8ff" d="M186.27,-306.09C154.78,-295.61 116.54,-282.89 91.28,-274.49"/>
<polygon fill="#63b8ff" stroke="#63b8ff" points="185.07,-309.71 195.67,-309.55 187.28,-303.07 185.07,-309.71"/>
</g>
<!-- Node4 -->
<g id="node4" class="node">
<title>Node4</title>
<g id="a_node4"><a xlink:href="heap_8h.html" target="_top" xlink:title=" ">
<polygon fill="white" stroke="#666666" points="253.62,-274 146.12,-274 146.12,-254.75 253.62,-254.75 253.62,-274"/>
<text text-anchor="middle" x="199.88" y="-260.5" font-family="Helvetica,sans-Serif" font-size="10.00">include/cppgc/heap.h</text>
</a>
</g>
</g>
<!-- Node1&#45;&gt;Node4 -->
<g id="edge3" class="edge">
<title>Node1&#45;&gt;Node4</title>
<path fill="none" stroke="#63b8ff" d="M224.58,-300.86C218.13,-291.59 211.1,-281.5 206.2,-274.45"/>
<polygon fill="#63b8ff" stroke="#63b8ff" points="222.15,-302.49 230.74,-308.7 227.9,-298.49 222.15,-302.49"/>
</g>
<!-- Node7 -->
<g id="node7" class="node">
<title>Node7</title>
<g id="a_node7"><a xlink:href="visitor_8h.html" target="_top" xlink:title=" ">
<polygon fill="white" stroke="#666666" points="306.25,-152.25 193.5,-152.25 193.5,-133 306.25,-133 306.25,-152.25"/>
<text text-anchor="middle" x="249.88" y="-138.75" font-family="Helvetica,sans-Serif" font-size="10.00">include/cppgc/visitor.h</text>
</a>
</g>
</g>
<!-- Node1&#45;&gt;Node7 -->
<g id="edge12" class="edge">
<title>Node1&#45;&gt;Node7</title>
<path fill="none" stroke="#63b8ff" d="M253.89,-300.02C257.55,-291.97 261.03,-282.81 262.88,-274 265.4,-261.94 269.13,-240.17 261.88,-188.25 260.12,-175.7 255.96,-161.64 253.03,-152.72"/>
<polygon fill="#63b8ff" stroke="#63b8ff" points="250.34,-298.31 249.1,-308.83 256.63,-301.38 250.34,-298.31"/>
</g>
<!-- Node11 -->
<g id="node11" class="node">
<title>Node11</title>
<g id="a_node11"><a xlink:href="v8-cppgc_8h.html" target="_top" xlink:title=" ">
<polygon fill="white" stroke="#666666" points="419.38,-91.38 322.38,-91.38 322.38,-72.12 419.38,-72.12 419.38,-91.38"/>
<text text-anchor="middle" x="370.88" y="-77.88" font-family="Helvetica,sans-Serif" font-size="10.00">include/v8&#45;cppgc.h</text>
</a>
</g>
</g>
<!-- Node1&#45;&gt;Node11 -->
<g id="edge13" class="edge">
<title>Node1&#45;&gt;Node11</title>
<path fill="none" stroke="#63b8ff" d="M259.69,-301.38C266.15,-293.02 273.18,-283.32 278.88,-274 319.56,-207.32 355.95,-119.92 367.26,-91.85"/>
<polygon fill="#63b8ff" stroke="#63b8ff" points="256.45,-298.83 252.99,-308.85 261.94,-303.18 256.45,-298.83"/>
</g>
<!-- Node3 -->
<g id="node3" class="node">
<title>Node3</title>
<g id="a_node3"><a xlink:href="explicit-management_8h.html" target="_top" xlink:title=" ">
<polygon fill="white" stroke="#666666" points="118.38,-218.75 9.38,-218.75 9.38,-188.25 118.38,-188.25 118.38,-218.75"/>
<text text-anchor="start" x="17.38" y="-205.25" font-family="Helvetica,sans-Serif" font-size="10.00">include/cppgc/explicit</text>
<text text-anchor="middle" x="63.88" y="-194" font-family="Helvetica,sans-Serif" font-size="10.00">&#45;management.h</text>
</a>
</g>
</g>
<!-- Node2&#45;&gt;Node3 -->
<g id="edge2" class="edge">
<title>Node2&#45;&gt;Node3</title>
<path fill="none" stroke="#63b8ff" d="M63.88,-243.45C63.88,-235.45 63.88,-226.4 63.88,-219.03"/>
<polygon fill="#63b8ff" stroke="#63b8ff" points="60.38,-243.43 63.88,-253.43 67.38,-243.43 60.38,-243.43"/>
</g>
<!-- Node5 -->
<g id="node5" class="node">
<title>Node5</title>
<g id="a_node5"><a xlink:href="liveness-broker_8h.html" target="_top" xlink:title=" ">
<polygon fill="white" stroke="#666666" points="253.38,-218.75 138.38,-218.75 138.38,-188.25 253.38,-188.25 253.38,-218.75"/>
<text text-anchor="start" x="146.38" y="-205.25" font-family="Helvetica,sans-Serif" font-size="10.00">include/cppgc/liveness</text>
<text text-anchor="middle" x="195.88" y="-194" font-family="Helvetica,sans-Serif" font-size="10.00">&#45;broker.h</text>
</a>
</g>
</g>
<!-- Node4&#45;&gt;Node5 -->
<g id="edge4" class="edge">
<title>Node4&#45;&gt;Node5</title>
<path fill="none" stroke="#63b8ff" d="M198.54,-243.73C197.99,-235.66 197.37,-226.48 196.86,-219.03"/>
<polygon fill="#63b8ff" stroke="#63b8ff" points="195.1,-243.69 199.27,-253.43 202.08,-243.22 195.1,-243.69"/>
</g>
<!-- Node6 -->
<g id="node6" class="node">
<title>Node6</title>
<g id="a_node6"><a xlink:href="prefinalizer_8h.html" target="_top" xlink:title=" ">
<polygon fill="white" stroke="#666666" points="175,-152.25 42.75,-152.25 42.75,-133 175,-133 175,-152.25"/>
<text text-anchor="middle" x="108.88" y="-138.75" font-family="Helvetica,sans-Serif" font-size="10.00">include/cppgc/prefinalizer.h</text>
</a>
</g>
</g>
<!-- Node5&#45;&gt;Node6 -->
<g id="edge5" class="edge">
<title>Node5&#45;&gt;Node6</title>
<path fill="none" stroke="#63b8ff" d="M165.54,-181.97C150.78,-171.98 133.78,-160.48 122.29,-152.7"/>
<polygon fill="#63b8ff" stroke="#63b8ff" points="163.13,-185.24 173.37,-187.95 167.05,-179.44 163.13,-185.24"/>
</g>
<!-- Node5&#45;&gt;Node7 -->
<g id="edge6" class="edge">
<title>Node5&#45;&gt;Node7</title>
<path fill="none" stroke="#63b8ff" d="M216.54,-179.97C225.25,-170.48 234.89,-159.97 241.55,-152.7"/>
<polygon fill="#63b8ff" stroke="#63b8ff" points="214.4,-177.21 210.22,-186.95 219.56,-181.94 214.4,-177.21"/>
</g>
<!-- Node8 -->
<g id="node8" class="node">
<title>Node8</title>
<g id="a_node8"><a xlink:href="cross-thread-persistent_8h.html" target="_top" xlink:title=" ">
<polygon fill="white" stroke="#666666" points="117.38,-30.5 14.38,-30.5 14.38,0 117.38,0 117.38,-30.5"/>
<text text-anchor="start" x="22.38" y="-17" font-family="Helvetica,sans-Serif" font-size="10.00">include/cppgc/cross</text>
<text text-anchor="middle" x="65.88" y="-5.75" font-family="Helvetica,sans-Serif" font-size="10.00">&#45;thread&#45;persistent.h</text>
</a>
</g>
</g>
<!-- Node7&#45;&gt;Node8 -->
<g id="edge7" class="edge">
<title>Node7&#45;&gt;Node8</title>
<path fill="none" stroke="#63b8ff" d="M182.43,-131.67C124.22,-122.4 48.06,-108.33 38.88,-97 23.05,-77.48 40.15,-48.28 53.42,-30.86"/>
<polygon fill="#63b8ff" stroke="#63b8ff" points="181.65,-135.25 192.07,-133.35 182.73,-128.34 181.65,-135.25"/>
</g>
<!-- Node9 -->
<g id="node9" class="node">
<title>Node9</title>
<g id="a_node9"><a xlink:href="persistent_8h.html" target="_top" xlink:title=" ">
<polygon fill="white" stroke="#666666" points="177.5,-91.38 48.25,-91.38 48.25,-72.12 177.5,-72.12 177.5,-91.38"/>
<text text-anchor="middle" x="112.88" y="-77.88" font-family="Helvetica,sans-Serif" font-size="10.00">include/cppgc/persistent.h</text>
</a>
</g>
</g>
<!-- Node7&#45;&gt;Node9 -->
<g id="edge8" class="edge">
<title>Node7&#45;&gt;Node9</title>
<path fill="none" stroke="#63b8ff" d="M218.68,-128.22C192.69,-117.05 156.39,-101.45 133.78,-91.73"/>
<polygon fill="#63b8ff" stroke="#63b8ff" points="217.2,-131.82 227.77,-132.55 219.96,-125.39 217.2,-131.82"/>
</g>
<!-- Node10 -->
<g id="node10" class="node">
<title>Node10</title>
<g id="a_node10"><a xlink:href="tagged-member_8h.html" target="_top" xlink:title=" ">
<polygon fill="white" stroke="#666666" points="304,-97 195.75,-97 195.75,-66.5 304,-66.5 304,-97"/>
<text text-anchor="start" x="203.75" y="-83.5" font-family="Helvetica,sans-Serif" font-size="10.00">include/cppgc/tagged</text>
<text text-anchor="middle" x="249.88" y="-72.25" font-family="Helvetica,sans-Serif" font-size="10.00">&#45;member.h</text>
</a>
</g>
</g>
<!-- Node7&#45;&gt;Node10 -->
<g id="edge10" class="edge">
<title>Node7&#45;&gt;Node10</title>
<path fill="none" stroke="#63b8ff" d="M249.88,-121.7C249.88,-113.7 249.88,-104.65 249.88,-97.28"/>
<polygon fill="#63b8ff" stroke="#63b8ff" points="246.38,-121.68 249.88,-131.68 253.38,-121.68 246.38,-121.68"/>
</g>
<!-- Node7&#45;&gt;Node11 -->
<g id="edge11" class="edge">
<title>Node7&#45;&gt;Node11</title>
<path fill="none" stroke="#63b8ff" d="M278.35,-127.77C301.24,-116.63 332.71,-101.32 352.41,-91.73"/>
<polygon fill="#63b8ff" stroke="#63b8ff" points="276.98,-125.03 269.52,-132.55 280.04,-131.33 276.98,-125.03"/>
</g>
<!-- Node9&#45;&gt;Node8 -->
<g id="edge9" class="edge">
<title>Node9&#45;&gt;Node8</title>
<path fill="none" stroke="#63b8ff" d="M99.89,-62.94C92.47,-52.75 83.28,-40.14 76.33,-30.59"/>
<polygon fill="#63b8ff" stroke="#63b8ff" points="97.62,-64.76 106.34,-70.78 103.28,-60.64 97.62,-64.76"/>
</g>
</g>
</svg>
