<?xml version="1.0" encoding="UTF-8" standalone="no"?>
<!DOCTYPE svg PUBLIC "-//W3C//DTD SVG 1.1//EN"
 "http://www.w3.org/Graphics/SVG/1.1/DTD/svg11.dtd">
<!-- Generated by graphviz version 8.0.5 (20230430.1635)
 -->
<!-- Title: v8::ToExternalPointerTag Pages: 1 -->
<svg width="315pt" height="88pt"
 viewBox="0.00 0.00 315.25 87.50" xmlns="http://www.w3.org/2000/svg" xmlns:xlink="http://www.w3.org/1999/xlink">
<g id="graph0" class="graph" transform="scale(1 1) rotate(0) translate(4 83.5)">
<title>v8::ToExternalPointerTag</title>
<!-- Node1 -->
<g id="node1" class="node">
<title>Node1</title>
<g id="a_node1"><a xlink:title=" ">
<polygon fill="#999999" stroke="#666666" points="307.25,-48.88 183.25,-48.88 183.25,-29.62 307.25,-29.62 307.25,-48.88"/>
<text text-anchor="middle" x="245.25" y="-35.38" font-family="Helvetica,sans-Serif" font-size="10.00">v8::ToExternalPointerTag</text>
</a>
</g>
</g>
<!-- Node2 -->
<g id="node2" class="node">
<title>Node2</title>
<g id="a_node2"><a xlink:href="classv8_1_1Context.html#aab44802d02ef26605c799123cdcf099a" target="_top" xlink:title=" ">
<polygon fill="white" stroke="#666666" points="147.25,-79.5 0,-79.5 0,-49 147.25,-49 147.25,-79.5"/>
<text text-anchor="start" x="8" y="-66" font-family="Helvetica,sans-Serif" font-size="10.00">v8::Context::GetAlignedPointer</text>
<text text-anchor="middle" x="73.62" y="-54.75" font-family="Helvetica,sans-Serif" font-size="10.00">FromEmbedderData</text>
</a>
</g>
</g>
<!-- Node1&#45;&gt;Node2 -->
<g id="edge1" class="edge">
<title>Node1&#45;&gt;Node2</title>
<path fill="none" stroke="#63b8ff" d="M172.37,-49.84C164.18,-51.05 155.83,-52.28 147.62,-53.49"/>
<polygon fill="#63b8ff" stroke="#63b8ff" points="172.63,-53.2 182.01,-48.28 171.61,-46.27 172.63,-53.2"/>
</g>
<!-- Node3 -->
<g id="node3" class="node">
<title>Node3</title>
<g id="a_node3"><a xlink:href="classv8_1_1Object.html#a1251aa6c4c55867c08e7b3d7a8311940" target="_top" xlink:title=" ">
<polygon fill="white" stroke="#666666" points="145,-30.5 2.25,-30.5 2.25,0 145,0 145,-30.5"/>
<text text-anchor="start" x="10.25" y="-17" font-family="Helvetica,sans-Serif" font-size="10.00">v8::Object::GetAlignedPointer</text>
<text text-anchor="middle" x="73.62" y="-5.75" font-family="Helvetica,sans-Serif" font-size="10.00">FromInternalField</text>
</a>
</g>
</g>
<!-- Node1&#45;&gt;Node3 -->
<g id="edge2" class="edge">
<title>Node1&#45;&gt;Node3</title>
<path fill="none" stroke="#63b8ff" d="M172.24,-29.06C163.32,-27.8 154.19,-26.51 145.29,-25.25"/>
<polygon fill="#63b8ff" stroke="#63b8ff" points="171.62,-32.65 182.01,-30.59 172.6,-25.72 171.62,-32.65"/>
</g>
</g>
</svg>
