<?xml version="1.0" encoding="UTF-8" standalone="no"?>
<!DOCTYPE svg PUBLIC "-//W3C//DTD SVG 1.1//EN"
 "http://www.w3.org/Graphics/SVG/1.1/DTD/svg11.dtd">
<!-- Generated by graphviz version 8.0.5 (20230430.1635)
 -->
<!-- Title: include/v8&#45;memory&#45;span.h Pages: 1 -->
<svg width="535pt" height="138pt"
 viewBox="0.00 0.00 535.00 137.75" xmlns="http://www.w3.org/2000/svg" xmlns:xlink="http://www.w3.org/1999/xlink">
<g id="graph0" class="graph" transform="scale(1 1) rotate(0) translate(4 133.75)">
<title>include/v8&#45;memory&#45;span.h</title>
<!-- Node1 -->
<g id="node1" class="node">
<title>Node1</title>
<g id="a_node1"><a xlink:title=" ">
<polygon fill="#999999" stroke="#666666" points="315.88,-129.75 186.62,-129.75 186.62,-110.5 315.88,-110.5 315.88,-129.75"/>
<text text-anchor="middle" x="251.25" y="-116.25" font-family="Helvetica,sans-Serif" font-size="10.00">include/v8&#45;memory&#45;span.h</text>
</a>
</g>
</g>
<!-- Node2 -->
<g id="node2" class="node">
<title>Node2</title>
<g id="a_node2"><a xlink:title=" ">
<polygon fill="#e0e0e0" stroke="#999999" points="50.5,-74.5 0,-74.5 0,-55.25 50.5,-55.25 50.5,-74.5"/>
<text text-anchor="middle" x="25.25" y="-61" font-family="Helvetica,sans-Serif" font-size="10.00">stddef.h</text>
</a>
</g>
</g>
<!-- Node1&#45;&gt;Node2 -->
<g id="edge1" class="edge">
<title>Node1&#45;&gt;Node2</title>
<path fill="none" stroke="#63b8ff" d="M211.71,-110.03C175.25,-101.62 119.35,-88.63 61.33,-74.74"/>
<polygon fill="#63b8ff" stroke="#63b8ff" points="62.4,-71.15 51.86,-72.22 60.76,-77.96 62.4,-71.15"/>
</g>
<!-- Node3 -->
<g id="node3" class="node">
<title>Node3</title>
<g id="a_node3"><a xlink:title=" ">
<polygon fill="#e0e0e0" stroke="#999999" points="105.75,-74.5 68.75,-74.5 68.75,-55.25 105.75,-55.25 105.75,-74.5"/>
<text text-anchor="middle" x="87.25" y="-61" font-family="Helvetica,sans-Serif" font-size="10.00">array</text>
</a>
</g>
</g>
<!-- Node1&#45;&gt;Node3 -->
<g id="edge2" class="edge">
<title>Node1&#45;&gt;Node3</title>
<path fill="none" stroke="#63b8ff" d="M223.43,-110.09C193.64,-100.42 146.58,-85.14 116.32,-75.31"/>
<polygon fill="#63b8ff" stroke="#63b8ff" points="117.59,-71.72 107,-71.96 115.43,-78.38 117.59,-71.72"/>
</g>
<!-- Node4 -->
<g id="node4" class="node">
<title>Node4</title>
<g id="a_node4"><a xlink:title=" ">
<polygon fill="#e0e0e0" stroke="#999999" points="177,-74.5 123.5,-74.5 123.5,-55.25 177,-55.25 177,-74.5"/>
<text text-anchor="middle" x="150.25" y="-61" font-family="Helvetica,sans-Serif" font-size="10.00">compare</text>
</a>
</g>
</g>
<!-- Node1&#45;&gt;Node4 -->
<g id="edge3" class="edge">
<title>Node1&#45;&gt;Node4</title>
<path fill="none" stroke="#63b8ff" d="M234.12,-110.09C218.52,-101.87 195.23,-89.59 177.15,-80.06"/>
<polygon fill="#63b8ff" stroke="#63b8ff" points="178.95,-76.52 168.47,-74.95 175.68,-82.71 178.95,-76.52"/>
</g>
<!-- Node5 -->
<g id="node5" class="node">
<title>Node5</title>
<g id="a_node5"><a xlink:title=" ">
<polygon fill="#e0e0e0" stroke="#999999" points="243.38,-74.5 195.12,-74.5 195.12,-55.25 243.38,-55.25 243.38,-74.5"/>
<text text-anchor="middle" x="219.25" y="-61" font-family="Helvetica,sans-Serif" font-size="10.00">cstddef</text>
</a>
</g>
</g>
<!-- Node1&#45;&gt;Node5 -->
<g id="edge4" class="edge">
<title>Node1&#45;&gt;Node5</title>
<path fill="none" stroke="#63b8ff" d="M245.97,-110.33C241.68,-103.21 235.51,-92.93 230.17,-84.05"/>
<polygon fill="#63b8ff" stroke="#63b8ff" points="232.8,-82.63 224.65,-75.86 226.8,-86.23 232.8,-82.63"/>
</g>
<!-- Node6 -->
<g id="node6" class="node">
<title>Node6</title>
<g id="a_node6"><a xlink:title=" ">
<polygon fill="#e0e0e0" stroke="#999999" points="307.25,-74.5 261.25,-74.5 261.25,-55.25 307.25,-55.25 307.25,-74.5"/>
<text text-anchor="middle" x="284.25" y="-61" font-family="Helvetica,sans-Serif" font-size="10.00">iterator</text>
</a>
</g>
</g>
<!-- Node1&#45;&gt;Node6 -->
<g id="edge5" class="edge">
<title>Node1&#45;&gt;Node6</title>
<path fill="none" stroke="#63b8ff" d="M256.7,-110.33C261.12,-103.21 267.49,-92.93 272.99,-84.05"/>
<polygon fill="#63b8ff" stroke="#63b8ff" points="276.39,-86.2 278.68,-75.86 270.44,-82.52 276.39,-86.2"/>
</g>
<!-- Node7 -->
<g id="node7" class="node">
<title>Node7</title>
<g id="a_node7"><a xlink:title=" ">
<polygon fill="#e0e0e0" stroke="#999999" points="370.88,-74.5 325.62,-74.5 325.62,-55.25 370.88,-55.25 370.88,-74.5"/>
<text text-anchor="middle" x="348.25" y="-61" font-family="Helvetica,sans-Serif" font-size="10.00">ranges</text>
</a>
</g>
</g>
<!-- Node1&#45;&gt;Node7 -->
<g id="edge6" class="edge">
<title>Node1&#45;&gt;Node7</title>
<path fill="none" stroke="#63b8ff" d="M267.7,-110.09C282.62,-101.91 304.84,-89.71 322.17,-80.19"/>
<polygon fill="#63b8ff" stroke="#63b8ff" points="323.63,-82.83 330.71,-74.95 320.26,-76.7 323.63,-82.83"/>
</g>
<!-- Node8 -->
<g id="node8" class="node">
<title>Node8</title>
<g id="a_node8"><a xlink:title=" ">
<polygon fill="#e0e0e0" stroke="#999999" points="449.75,-74.5 388.75,-74.5 388.75,-55.25 449.75,-55.25 449.75,-74.5"/>
<text text-anchor="middle" x="419.25" y="-61" font-family="Helvetica,sans-Serif" font-size="10.00">type_traits</text>
</a>
</g>
</g>
<!-- Node1&#45;&gt;Node8 -->
<g id="edge7" class="edge">
<title>Node1&#45;&gt;Node8</title>
<path fill="none" stroke="#63b8ff" d="M279.75,-110.09C307.38,-101.33 349.52,-87.98 380.26,-78.23"/>
<polygon fill="#63b8ff" stroke="#63b8ff" points="381.14,-81.31 389.61,-74.95 379.02,-74.64 381.14,-81.31"/>
</g>
<!-- Node9 -->
<g id="node9" class="node">
<title>Node9</title>
<g id="a_node9"><a xlink:href="v8config_8h.html" target="_top" xlink:title=" ">
<polygon fill="white" stroke="#666666" points="527,-74.5 467.5,-74.5 467.5,-55.25 527,-55.25 527,-74.5"/>
<text text-anchor="middle" x="497.25" y="-61" font-family="Helvetica,sans-Serif" font-size="10.00">v8config.h</text>
</a>
</g>
</g>
<!-- Node1&#45;&gt;Node9 -->
<g id="edge8" class="edge">
<title>Node1&#45;&gt;Node9</title>
<path fill="none" stroke="#63b8ff" d="M294.31,-110.04C334.09,-101.62 395.13,-88.6 456.7,-75.05"/>
<polygon fill="#63b8ff" stroke="#63b8ff" points="457.38,-78.26 466.39,-72.69 455.87,-71.42 457.38,-78.26"/>
</g>
<!-- Node10 -->
<g id="node10" class="node">
<title>Node10</title>
<g id="a_node10"><a xlink:title=" ">
<polygon fill="#e0e0e0" stroke="#999999" points="522.5,-19.25 472,-19.25 472,0 522.5,0 522.5,-19.25"/>
<text text-anchor="middle" x="497.25" y="-5.75" font-family="Helvetica,sans-Serif" font-size="10.00">memory</text>
</a>
</g>
</g>
<!-- Node9&#45;&gt;Node10 -->
<g id="edge9" class="edge">
<title>Node9&#45;&gt;Node10</title>
<path fill="none" stroke="#63b8ff" d="M497.25,-55.08C497.25,-48.42 497.25,-38.99 497.25,-30.53"/>
<polygon fill="#63b8ff" stroke="#63b8ff" points="500.75,-30.61 497.25,-20.61 493.75,-30.61 500.75,-30.61"/>
</g>
</g>
</svg>
