<?xml version="1.0" encoding="UTF-8" standalone="no"?>
<!DOCTYPE svg PUBLIC "-//W3C//DTD SVG 1.1//EN"
 "http://www.w3.org/Graphics/SVG/1.1/DTD/svg11.dtd">
<!-- Generated by graphviz version 8.0.5 (20230430.1635)
 -->
<!-- Title: include/v8&#45;statistics.h Pages: 1 -->
<svg width="2448pt" height="614pt"
 viewBox="0.00 0.00 2447.58 613.50" xmlns="http://www.w3.org/2000/svg" xmlns:xlink="http://www.w3.org/1999/xlink">
<g id="graph0" class="graph" transform="scale(1 1) rotate(0) translate(4 609.5)">
<title>include/v8&#45;statistics.h</title>
<!-- Node1 -->
<g id="node1" class="node">
<title>Node1</title>
<g id="a_node1"><a xlink:title=" ">
<polygon fill="#999999" stroke="#666666" points="2216.59,-605.5 2106.09,-605.5 2106.09,-586.25 2216.59,-586.25 2216.59,-605.5"/>
<text text-anchor="middle" x="2161.34" y="-592" font-family="Helvetica,sans-Serif" font-size="10.00">include/v8&#45;statistics.h</text>
</a>
</g>
</g>
<!-- Node2 -->
<g id="node2" class="node">
<title>Node2</title>
<g id="a_node2"><a xlink:title=" ">
<polygon fill="#e0e0e0" stroke="#999999" points="2275.59,-74.5 2225.09,-74.5 2225.09,-55.25 2275.59,-55.25 2275.59,-74.5"/>
<text text-anchor="middle" x="2250.34" y="-61" font-family="Helvetica,sans-Serif" font-size="10.00">stddef.h</text>
</a>
</g>
</g>
<!-- Node1&#45;&gt;Node2 -->
<g id="edge1" class="edge">
<title>Node1&#45;&gt;Node2</title>
<path fill="none" stroke="#63b8ff" d="M2216.82,-592.06C2284.31,-585.3 2389.34,-562.54 2389.34,-486.38 2389.34,-486.38 2389.34,-486.38 2389.34,-191.25 2389.34,-135.08 2325.97,-97.6 2284.8,-79.18"/>
<polygon fill="#63b8ff" stroke="#63b8ff" points="2286.44,-75.65 2275.87,-74.91 2283.67,-82.08 2286.44,-75.65"/>
</g>
<!-- Node3 -->
<g id="node3" class="node">
<title>Node3</title>
<g id="a_node3"><a xlink:title=" ">
<polygon fill="#e0e0e0" stroke="#999999" points="2202.09,-74.5 2154.59,-74.5 2154.59,-55.25 2202.09,-55.25 2202.09,-74.5"/>
<text text-anchor="middle" x="2178.34" y="-61" font-family="Helvetica,sans-Serif" font-size="10.00">stdint.h</text>
</a>
</g>
</g>
<!-- Node1&#45;&gt;Node3 -->
<g id="edge2" class="edge">
<title>Node1&#45;&gt;Node3</title>
<path fill="none" stroke="#63b8ff" d="M2217.06,-587.1C2273.12,-575.76 2351.34,-548.77 2351.34,-486.38 2351.34,-486.38 2351.34,-486.38 2351.34,-191.25 2351.34,-123.52 2263.32,-88.62 2212.85,-74.18"/>
<polygon fill="#63b8ff" stroke="#63b8ff" points="2213.96,-70.58 2203.39,-71.33 2212.12,-77.34 2213.96,-70.58"/>
</g>
<!-- Node4 -->
<g id="node4" class="node">
<title>Node4</title>
<g id="a_node4"><a xlink:title=" ">
<polygon fill="#e0e0e0" stroke="#999999" points="1418.59,-19.25 1368.09,-19.25 1368.09,0 1418.59,0 1418.59,-19.25"/>
<text text-anchor="middle" x="1393.34" y="-5.75" font-family="Helvetica,sans-Serif" font-size="10.00">memory</text>
</a>
</g>
</g>
<!-- Node1&#45;&gt;Node4 -->
<g id="edge3" class="edge">
<title>Node1&#45;&gt;Node4</title>
<path fill="none" stroke="#63b8ff" d="M2105.68,-594.42C1822.01,-591.97 543.82,-579.41 369.34,-550.25 276.47,-534.73 167.34,-580.53 167.34,-486.38 167.34,-486.38 167.34,-486.38 167.34,-124.75 167.34,-89.93 -377.58,-156.37 546.34,-55.25 858.7,-21.06 1238.84,-12.86 1356.72,-11.08"/>
<polygon fill="#63b8ff" stroke="#63b8ff" points="1356.66,-14.57 1366.61,-10.92 1356.56,-7.57 1356.66,-14.57"/>
</g>
<!-- Node5 -->
<g id="node5" class="node">
<title>Node5</title>
<g id="a_node5"><a xlink:title=" ">
<polygon fill="#e0e0e0" stroke="#999999" points="1925.59,-135.38 1887.09,-135.38 1887.09,-116.12 1925.59,-116.12 1925.59,-135.38"/>
<text text-anchor="middle" x="1906.34" y="-121.88" font-family="Helvetica,sans-Serif" font-size="10.00">utility</text>
</a>
</g>
</g>
<!-- Node1&#45;&gt;Node5 -->
<g id="edge4" class="edge">
<title>Node1&#45;&gt;Node5</title>
<path fill="none" stroke="#63b8ff" d="M2173.55,-585.94C2195.03,-569.08 2237.34,-530.3 2237.34,-486.38 2237.34,-486.38 2237.34,-486.38 2237.34,-373.88 2237.34,-262.51 2176.02,-237.21 2082.34,-177 2025.39,-140.4 1997.82,-164.51 1934.34,-141 1933.73,-140.78 1933.12,-140.54 1932.51,-140.3"/>
<polygon fill="#63b8ff" stroke="#63b8ff" points="1934.19,-136.77 1923.63,-135.84 1931.31,-143.15 1934.19,-136.77"/>
</g>
<!-- Node6 -->
<g id="node6" class="node">
<title>Node6</title>
<g id="a_node6"><a xlink:title=" ">
<polygon fill="#e0e0e0" stroke="#999999" points="2056.84,-201.88 2013.84,-201.88 2013.84,-182.62 2056.84,-182.62 2056.84,-201.88"/>
<text text-anchor="middle" x="2035.34" y="-188.38" font-family="Helvetica,sans-Serif" font-size="10.00">vector</text>
</a>
</g>
</g>
<!-- Node1&#45;&gt;Node6 -->
<g id="edge5" class="edge">
<title>Node1&#45;&gt;Node6</title>
<path fill="none" stroke="#63b8ff" d="M2161.34,-585.87C2161.34,-567.28 2161.34,-523.3 2161.34,-486.38 2161.34,-486.38 2161.34,-486.38 2161.34,-373.88 2161.34,-301.27 2092,-236.98 2056.2,-208.63"/>
<polygon fill="#63b8ff" stroke="#63b8ff" points="2058.94,-205.55 2048.88,-202.22 2054.66,-211.1 2058.94,-205.55"/>
</g>
<!-- Node7 -->
<g id="node7" class="node">
<title>Node7</title>
<g id="a_node7"><a xlink:href="v8-local-handle_8h.html" target="_top" xlink:title=" ">
<polygon fill="white" stroke="#666666" points="2015.71,-268.38 1926.96,-268.38 1926.96,-249.12 2015.71,-249.12 2015.71,-268.38"/>
<text text-anchor="middle" x="1971.34" y="-254.88" font-family="Helvetica,sans-Serif" font-size="10.00">v8&#45;local&#45;handle.h</text>
</a>
</g>
</g>
<!-- Node1&#45;&gt;Node7 -->
<g id="edge6" class="edge">
<title>Node1&#45;&gt;Node7</title>
<path fill="none" stroke="#63b8ff" d="M2124.15,-585.86C2079.16,-572.47 2009.34,-542.63 2009.34,-486.38 2009.34,-486.38 2009.34,-486.38 2009.34,-373.88 2009.34,-338.7 1992.89,-300.41 1981.63,-278.33"/>
<polygon fill="#63b8ff" stroke="#63b8ff" points="1984.4,-277.07 1976.62,-269.87 1978.21,-280.35 1984.4,-277.07"/>
</g>
<!-- Node18 -->
<g id="node18" class="node">
<title>Node18</title>
<g id="a_node18"><a xlink:href="v8config_8h.html" target="_top" xlink:title=" ">
<polygon fill="white" stroke="#666666" points="615.09,-74.5 555.59,-74.5 555.59,-55.25 615.09,-55.25 615.09,-74.5"/>
<text text-anchor="middle" x="585.34" y="-61" font-family="Helvetica,sans-Serif" font-size="10.00">v8config.h</text>
</a>
</g>
</g>
<!-- Node1&#45;&gt;Node18 -->
<g id="edge125" class="edge">
<title>Node1&#45;&gt;Node18</title>
<path fill="none" stroke="#63b8ff" d="M2105.69,-594.77C1786.78,-593.83 205.34,-584.24 205.34,-486.38 205.34,-486.38 205.34,-486.38 205.34,-191.25 205.34,-149.72 217.8,-133.55 252.34,-110.5 299.39,-79.1 466.3,-69.66 544.44,-66.93"/>
<polygon fill="#63b8ff" stroke="#63b8ff" points="544.42,-70.4 554.3,-66.58 544.19,-63.41 544.42,-70.4"/>
</g>
<!-- Node19 -->
<g id="node19" class="node">
<title>Node19</title>
<g id="a_node19"><a xlink:href="v8-memory-span_8h.html" target="_top" xlink:title=" ">
<polygon fill="white" stroke="#666666" points="2039.09,-135.38 1943.59,-135.38 1943.59,-116.12 2039.09,-116.12 2039.09,-135.38"/>
<text text-anchor="middle" x="1991.34" y="-121.88" font-family="Helvetica,sans-Serif" font-size="10.00">v8&#45;memory&#45;span.h</text>
</a>
</g>
</g>
<!-- Node1&#45;&gt;Node19 -->
<g id="edge26" class="edge">
<title>Node1&#45;&gt;Node19</title>
<path fill="none" stroke="#63b8ff" d="M2198.52,-585.86C2243.52,-572.47 2313.34,-542.63 2313.34,-486.38 2313.34,-486.38 2313.34,-486.38 2313.34,-373.88 2313.34,-236.58 2126.83,-165.13 2037.71,-138.82"/>
<polygon fill="#63b8ff" stroke="#63b8ff" points="2038.92,-135.24 2028.34,-135.83 2036.98,-141.96 2038.92,-135.24"/>
</g>
<!-- Node23 -->
<g id="node23" class="node">
<title>Node23</title>
<g id="a_node23"><a xlink:href="v8-promise_8h.html" target="_top" xlink:title=" ">
<polygon fill="white" stroke="#666666" points="1642.09,-550.25 1570.59,-550.25 1570.59,-531 1642.09,-531 1642.09,-550.25"/>
<text text-anchor="middle" x="1606.34" y="-536.75" font-family="Helvetica,sans-Serif" font-size="10.00">v8&#45;promise.h</text>
</a>
</g>
</g>
<!-- Node1&#45;&gt;Node23 -->
<g id="edge35" class="edge">
<title>Node1&#45;&gt;Node23</title>
<path fill="none" stroke="#63b8ff" d="M2105.84,-589.55C1996.55,-579.06 1755.26,-555.91 1653.29,-546.13"/>
<polygon fill="#63b8ff" stroke="#63b8ff" points="1653.71,-542.56 1643.42,-545.09 1653.04,-549.53 1653.71,-542.56"/>
</g>
<!-- Node7&#45;&gt;Node2 -->
<g id="edge7" class="edge">
<title>Node7&#45;&gt;Node2</title>
<path fill="none" stroke="#63b8ff" d="M1972.76,-248.8C1975.77,-232.52 1984.26,-197.82 2004.34,-177 2020.21,-160.54 2154.82,-104.61 2217.93,-78.94"/>
<polygon fill="#63b8ff" stroke="#63b8ff" points="2218.82,-81.95 2226.77,-74.95 2216.19,-75.46 2218.82,-81.95"/>
</g>
<!-- Node7&#45;&gt;Node6 -->
<g id="edge9" class="edge">
<title>Node7&#45;&gt;Node6</title>
<path fill="none" stroke="#63b8ff" d="M1980.24,-248.78C1990.27,-238.67 2006.78,-222.03 2019.12,-209.6"/>
<polygon fill="#63b8ff" stroke="#63b8ff" points="2020.96,-212.71 2025.51,-203.14 2015.99,-207.78 2020.96,-212.71"/>
</g>
<!-- Node8 -->
<g id="node8" class="node">
<title>Node8</title>
<g id="a_node8"><a xlink:title=" ">
<polygon fill="#e0e0e0" stroke="#999999" points="2003.84,-74.5 1942.84,-74.5 1942.84,-55.25 2003.84,-55.25 2003.84,-74.5"/>
<text text-anchor="middle" x="1973.34" y="-61" font-family="Helvetica,sans-Serif" font-size="10.00">type_traits</text>
</a>
</g>
</g>
<!-- Node7&#45;&gt;Node8 -->
<g id="edge8" class="edge">
<title>Node7&#45;&gt;Node8</title>
<path fill="none" stroke="#63b8ff" d="M1968.41,-248.65C1963.89,-232.71 1957.11,-199.35 1971.34,-177 1991.62,-145.13 2028.06,-172.87 2048.34,-141 2055.62,-129.56 2055.04,-122.28 2048.34,-110.5 2040.31,-96.37 2025.84,-86.25 2011.74,-79.26"/>
<polygon fill="#63b8ff" stroke="#63b8ff" points="2013.68,-75.84 2003.12,-74.9 2010.79,-82.22 2013.68,-75.84"/>
</g>
<!-- Node9 -->
<g id="node9" class="node">
<title>Node9</title>
<g id="a_node9"><a xlink:href="v8-handle-base_8h.html" target="_top" xlink:title=" ">
<polygon fill="white" stroke="#666666" points="1767.09,-201.88 1677.59,-201.88 1677.59,-182.62 1767.09,-182.62 1767.09,-201.88"/>
<text text-anchor="middle" x="1722.34" y="-188.38" font-family="Helvetica,sans-Serif" font-size="10.00">v8&#45;handle&#45;base.h</text>
</a>
</g>
</g>
<!-- Node7&#45;&gt;Node9 -->
<g id="edge10" class="edge">
<title>Node7&#45;&gt;Node9</title>
<path fill="none" stroke="#63b8ff" d="M1936.19,-248.65C1892.07,-237.22 1816.31,-217.59 1767.82,-205.03"/>
<polygon fill="#63b8ff" stroke="#63b8ff" points="1768.86,-201.43 1758.31,-202.31 1767.11,-208.2 1768.86,-201.43"/>
</g>
<!-- Node10 -->
<g id="node10" class="node">
<title>Node10</title>
<g id="a_node10"><a xlink:href="v8-internal_8h.html" target="_top" xlink:title=" ">
<polygon fill="white" stroke="#666666" points="1584.59,-135.38 1516.09,-135.38 1516.09,-116.12 1584.59,-116.12 1584.59,-135.38"/>
<text text-anchor="middle" x="1550.34" y="-121.88" font-family="Helvetica,sans-Serif" font-size="10.00">v8&#45;internal.h</text>
</a>
</g>
</g>
<!-- Node7&#45;&gt;Node10 -->
<g id="edge25" class="edge">
<title>Node7&#45;&gt;Node10</title>
<path fill="none" stroke="#63b8ff" d="M1952.65,-248.72C1918.38,-232.46 1842.9,-198.01 1776.34,-177 1714.9,-157.61 1641.8,-142.8 1595.73,-134.44"/>
<polygon fill="#63b8ff" stroke="#63b8ff" points="1596.36,-130.82 1585.9,-132.5 1595.13,-137.71 1596.36,-130.82"/>
</g>
<!-- Node9&#45;&gt;Node10 -->
<g id="edge11" class="edge">
<title>Node9&#45;&gt;Node10</title>
<path fill="none" stroke="#63b8ff" d="M1698.06,-182.15C1668.48,-171.05 1618.31,-152.24 1584.76,-139.66"/>
<polygon fill="#63b8ff" stroke="#63b8ff" points="1586.09,-136.04 1575.49,-135.81 1583.63,-142.6 1586.09,-136.04"/>
</g>
<!-- Node10&#45;&gt;Node2 -->
<g id="edge12" class="edge">
<title>Node10&#45;&gt;Node2</title>
<path fill="none" stroke="#63b8ff" d="M1584.94,-123.85C1683.4,-120.91 1973.39,-109.67 2211.34,-74.5 2212.3,-74.36 2213.27,-74.21 2214.25,-74.04"/>
<polygon fill="#63b8ff" stroke="#63b8ff" points="2214.66,-77.34 2223.84,-72.06 2213.37,-70.46 2214.66,-77.34"/>
</g>
<!-- Node10&#45;&gt;Node3 -->
<g id="edge13" class="edge">
<title>Node10&#45;&gt;Node3</title>
<path fill="none" stroke="#63b8ff" d="M1584.84,-122.92C1674.99,-117.88 1924.89,-102.31 2131.34,-74.5 2135.36,-73.96 2139.55,-73.31 2143.71,-72.61"/>
<polygon fill="#63b8ff" stroke="#63b8ff" points="2144.26,-75.89 2153.5,-70.7 2143.04,-69 2144.26,-75.89"/>
</g>
<!-- Node10&#45;&gt;Node4 -->
<g id="edge20" class="edge">
<title>Node10&#45;&gt;Node4</title>
<path fill="none" stroke="#63b8ff" d="M1545.89,-115.87C1538.21,-101.37 1521.19,-72.49 1499.34,-55.25 1478.59,-38.88 1450.97,-27.51 1429.12,-20.34"/>
<polygon fill="#63b8ff" stroke="#63b8ff" points="1430.5,-16.8 1419.92,-17.16 1428.42,-23.48 1430.5,-16.8"/>
</g>
<!-- Node10&#45;&gt;Node8 -->
<g id="edge22" class="edge">
<title>Node10&#45;&gt;Node8</title>
<path fill="none" stroke="#63b8ff" d="M1577.79,-115.67C1584.46,-113.72 1591.6,-111.85 1598.34,-110.5 1741.72,-81.76 1783.55,-97.53 1931.55,-74.6"/>
<polygon fill="#63b8ff" stroke="#63b8ff" points="1932.06,-77.91 1941.39,-72.88 1930.97,-70.99 1932.06,-77.91"/>
</g>
<!-- Node11 -->
<g id="node11" class="node">
<title>Node11</title>
<g id="a_node11"><a xlink:title=" ">
<polygon fill="#e0e0e0" stroke="#999999" points="1651.09,-74.5 1603.59,-74.5 1603.59,-55.25 1651.09,-55.25 1651.09,-74.5"/>
<text text-anchor="middle" x="1627.34" y="-61" font-family="Helvetica,sans-Serif" font-size="10.00">string.h</text>
</a>
</g>
</g>
<!-- Node10&#45;&gt;Node11 -->
<g id="edge14" class="edge">
<title>Node10&#45;&gt;Node11</title>
<path fill="none" stroke="#63b8ff" d="M1562.03,-115.81C1573.9,-106.73 1592.53,-92.49 1606.85,-81.54"/>
<polygon fill="#63b8ff" stroke="#63b8ff" points="1608.72,-83.76 1614.53,-74.9 1604.46,-78.19 1608.72,-83.76"/>
</g>
<!-- Node12 -->
<g id="node12" class="node">
<title>Node12</title>
<g id="a_node12"><a xlink:title=" ">
<polygon fill="#e0e0e0" stroke="#999999" points="1788.96,-74.5 1743.71,-74.5 1743.71,-55.25 1788.96,-55.25 1788.96,-74.5"/>
<text text-anchor="middle" x="1766.34" y="-61" font-family="Helvetica,sans-Serif" font-size="10.00">atomic</text>
</a>
</g>
</g>
<!-- Node10&#45;&gt;Node12 -->
<g id="edge15" class="edge">
<title>Node10&#45;&gt;Node12</title>
<path fill="none" stroke="#63b8ff" d="M1580.51,-115.64C1586.41,-113.9 1592.56,-112.12 1598.34,-110.5 1655.36,-94.49 1672.18,-90.99 1732.73,-74.91"/>
<polygon fill="#63b8ff" stroke="#63b8ff" points="1733.51,-78.06 1742.27,-72.11 1731.71,-71.3 1733.51,-78.06"/>
</g>
<!-- Node13 -->
<g id="node13" class="node">
<title>Node13</title>
<g id="a_node13"><a xlink:title=" ">
<polygon fill="#e0e0e0" stroke="#999999" points="1860.09,-74.5 1806.59,-74.5 1806.59,-55.25 1860.09,-55.25 1860.09,-74.5"/>
<text text-anchor="middle" x="1833.34" y="-61" font-family="Helvetica,sans-Serif" font-size="10.00">compare</text>
</a>
</g>
</g>
<!-- Node10&#45;&gt;Node13 -->
<g id="edge16" class="edge">
<title>Node10&#45;&gt;Node13</title>
<path fill="none" stroke="#63b8ff" d="M1579.13,-115.64C1585.43,-113.81 1592.08,-111.99 1598.34,-110.5 1682.86,-90.41 1708.1,-93.07 1795.56,-74.98"/>
<polygon fill="#63b8ff" stroke="#63b8ff" points="1796.18,-78.22 1805.24,-72.73 1794.74,-71.37 1796.18,-78.22"/>
</g>
<!-- Node14 -->
<g id="node14" class="node">
<title>Node14</title>
<g id="a_node14"><a xlink:title=" ">
<polygon fill="#e0e0e0" stroke="#999999" points="1725.21,-74.5 1669.46,-74.5 1669.46,-55.25 1725.21,-55.25 1725.21,-74.5"/>
<text text-anchor="middle" x="1697.34" y="-61" font-family="Helvetica,sans-Serif" font-size="10.00">concepts</text>
</a>
</g>
</g>
<!-- Node10&#45;&gt;Node14 -->
<g id="edge17" class="edge">
<title>Node10&#45;&gt;Node14</title>
<path fill="none" stroke="#63b8ff" d="M1572.98,-115.68C1597.55,-105.84 1636.98,-90.05 1664.85,-78.89"/>
<polygon fill="#63b8ff" stroke="#63b8ff" points="1665.92,-81.83 1673.91,-74.86 1663.32,-75.33 1665.92,-81.83"/>
</g>
<!-- Node15 -->
<g id="node15" class="node">
<title>Node15</title>
<g id="a_node15"><a xlink:title=" ">
<polygon fill="#e0e0e0" stroke="#999999" points="1924.34,-74.5 1878.34,-74.5 1878.34,-55.25 1924.34,-55.25 1924.34,-74.5"/>
<text text-anchor="middle" x="1901.34" y="-61" font-family="Helvetica,sans-Serif" font-size="10.00">iterator</text>
</a>
</g>
</g>
<!-- Node10&#45;&gt;Node15 -->
<g id="edge18" class="edge">
<title>Node10&#45;&gt;Node15</title>
<path fill="none" stroke="#63b8ff" d="M1578.32,-115.64C1584.84,-113.74 1591.79,-111.9 1598.34,-110.5 1713.8,-85.85 1748.26,-97.64 1867.37,-74.65"/>
<polygon fill="#63b8ff" stroke="#63b8ff" points="1867.87,-77.92 1877,-72.54 1866.51,-71.05 1867.87,-77.92"/>
</g>
<!-- Node16 -->
<g id="node16" class="node">
<title>Node16</title>
<g id="a_node16"><a xlink:title=" ">
<polygon fill="#e0e0e0" stroke="#999999" points="1585.96,-74.5 1546.71,-74.5 1546.71,-55.25 1585.96,-55.25 1585.96,-74.5"/>
<text text-anchor="middle" x="1566.34" y="-61" font-family="Helvetica,sans-Serif" font-size="10.00">limits</text>
</a>
</g>
</g>
<!-- Node10&#45;&gt;Node16 -->
<g id="edge19" class="edge">
<title>Node10&#45;&gt;Node16</title>
<path fill="none" stroke="#63b8ff" d="M1552.77,-115.81C1554.95,-107.77 1558.24,-95.68 1561.03,-85.41"/>
<polygon fill="#63b8ff" stroke="#63b8ff" points="1564.64,-86.47 1563.88,-75.9 1557.88,-84.63 1564.64,-86.47"/>
</g>
<!-- Node17 -->
<g id="node17" class="node">
<title>Node17</title>
<g id="a_node17"><a xlink:title=" ">
<polygon fill="#e0e0e0" stroke="#999999" points="1490.21,-74.5 1440.46,-74.5 1440.46,-55.25 1490.21,-55.25 1490.21,-74.5"/>
<text text-anchor="middle" x="1465.34" y="-61" font-family="Helvetica,sans-Serif" font-size="10.00">optional</text>
</a>
</g>
</g>
<!-- Node10&#45;&gt;Node17 -->
<g id="edge21" class="edge">
<title>Node10&#45;&gt;Node17</title>
<path fill="none" stroke="#63b8ff" d="M1537.43,-115.81C1524.07,-106.56 1502.98,-91.95 1487.05,-80.92"/>
<polygon fill="#63b8ff" stroke="#63b8ff" points="1489.58,-77.72 1479.37,-74.9 1485.6,-83.47 1489.58,-77.72"/>
</g>
<!-- Node10&#45;&gt;Node18 -->
<g id="edge23" class="edge">
<title>Node10&#45;&gt;Node18</title>
<path fill="none" stroke="#63b8ff" d="M1515.6,-122.62C1470.07,-119.84 1387.72,-114.8 1317.34,-110.5 1053.8,-94.41 736.88,-75.1 626,-68.35"/>
<polygon fill="#63b8ff" stroke="#63b8ff" points="626.51,-64.82 616.32,-67.7 626.09,-71.8 626.51,-64.82"/>
</g>
<!-- Node18&#45;&gt;Node4 -->
<g id="edge24" class="edge">
<title>Node18&#45;&gt;Node4</title>
<path fill="none" stroke="#63b8ff" d="M615.54,-61.88C741.07,-53.61 1221.42,-21.95 1357.32,-13"/>
<polygon fill="#63b8ff" stroke="#63b8ff" points="1357.21,-16.45 1366.95,-12.3 1356.75,-9.46 1357.21,-16.45"/>
</g>
<!-- Node19&#45;&gt;Node2 -->
<g id="edge27" class="edge">
<title>Node19&#45;&gt;Node2</title>
<path fill="none" stroke="#63b8ff" d="M2031.24,-115.68C2081.26,-104.31 2166.27,-84.98 2214.38,-74.05"/>
<polygon fill="#63b8ff" stroke="#63b8ff" points="2214.93,-77.28 2223.91,-71.66 2213.38,-70.46 2214.93,-77.28"/>
</g>
<!-- Node19&#45;&gt;Node8 -->
<g id="edge33" class="edge">
<title>Node19&#45;&gt;Node8</title>
<path fill="none" stroke="#63b8ff" d="M1988.6,-115.81C1986.15,-107.77 1982.45,-95.68 1979.31,-85.41"/>
<polygon fill="#63b8ff" stroke="#63b8ff" points="1982.37,-84.44 1976.1,-75.9 1975.67,-86.49 1982.37,-84.44"/>
</g>
<!-- Node19&#45;&gt;Node13 -->
<g id="edge29" class="edge">
<title>Node19&#45;&gt;Node13</title>
<path fill="none" stroke="#63b8ff" d="M1967,-115.68C1940.44,-105.78 1897.71,-89.86 1867.73,-78.69"/>
<polygon fill="#63b8ff" stroke="#63b8ff" points="1869.3,-75.17 1858.71,-74.96 1866.86,-81.73 1869.3,-75.17"/>
</g>
<!-- Node19&#45;&gt;Node15 -->
<g id="edge31" class="edge">
<title>Node19&#45;&gt;Node15</title>
<path fill="none" stroke="#63b8ff" d="M1977.67,-115.81C1963.53,-106.56 1941.19,-91.95 1924.33,-80.92"/>
<polygon fill="#63b8ff" stroke="#63b8ff" points="1926.42,-77.45 1916.14,-74.9 1922.59,-83.3 1926.42,-77.45"/>
</g>
<!-- Node19&#45;&gt;Node18 -->
<g id="edge34" class="edge">
<title>Node19&#45;&gt;Node18</title>
<path fill="none" stroke="#63b8ff" d="M1959.91,-115.63C1951.66,-113.58 1942.72,-111.67 1934.34,-110.5 1802.24,-92.02 838.02,-71.11 626.35,-66.71"/>
<polygon fill="#63b8ff" stroke="#63b8ff" points="626.51,-63.2 616.44,-66.49 626.36,-70.19 626.51,-63.2"/>
</g>
<!-- Node20 -->
<g id="node20" class="node">
<title>Node20</title>
<g id="a_node20"><a xlink:title=" ">
<polygon fill="#e0e0e0" stroke="#999999" points="2058.84,-74.5 2021.84,-74.5 2021.84,-55.25 2058.84,-55.25 2058.84,-74.5"/>
<text text-anchor="middle" x="2040.34" y="-61" font-family="Helvetica,sans-Serif" font-size="10.00">array</text>
</a>
</g>
</g>
<!-- Node19&#45;&gt;Node20 -->
<g id="edge28" class="edge">
<title>Node19&#45;&gt;Node20</title>
<path fill="none" stroke="#63b8ff" d="M1998.78,-115.81C2005.97,-107.16 2017.07,-93.84 2025.98,-83.12"/>
<polygon fill="#63b8ff" stroke="#63b8ff" points="2029.12,-85.83 2032.83,-75.9 2023.74,-81.35 2029.12,-85.83"/>
</g>
<!-- Node21 -->
<g id="node21" class="node">
<title>Node21</title>
<g id="a_node21"><a xlink:title=" ">
<polygon fill="#e0e0e0" stroke="#999999" points="1153.46,-74.5 1105.21,-74.5 1105.21,-55.25 1153.46,-55.25 1153.46,-74.5"/>
<text text-anchor="middle" x="1129.34" y="-61" font-family="Helvetica,sans-Serif" font-size="10.00">cstddef</text>
</a>
</g>
</g>
<!-- Node19&#45;&gt;Node21 -->
<g id="edge30" class="edge">
<title>Node19&#45;&gt;Node21</title>
<path fill="none" stroke="#63b8ff" d="M1959.6,-115.66C1951.43,-113.64 1942.61,-111.73 1934.34,-110.5 1624.03,-64.24 1542.34,-95.98 1229.34,-74.5 1207.79,-73.02 1183.66,-70.95 1164.5,-69.21"/>
<polygon fill="#63b8ff" stroke="#63b8ff" points="1164.85,-65.64 1154.57,-68.2 1164.2,-72.61 1164.85,-65.64"/>
</g>
<!-- Node22 -->
<g id="node22" class="node">
<title>Node22</title>
<g id="a_node22"><a xlink:title=" ">
<polygon fill="#e0e0e0" stroke="#999999" points="2121.96,-74.5 2076.71,-74.5 2076.71,-55.25 2121.96,-55.25 2121.96,-74.5"/>
<text text-anchor="middle" x="2099.34" y="-61" font-family="Helvetica,sans-Serif" font-size="10.00">ranges</text>
</a>
</g>
</g>
<!-- Node19&#45;&gt;Node22 -->
<g id="edge32" class="edge">
<title>Node19&#45;&gt;Node22</title>
<path fill="none" stroke="#63b8ff" d="M2007.74,-115.81C2025.11,-106.34 2052.77,-91.26 2073.16,-80.15"/>
<polygon fill="#63b8ff" stroke="#63b8ff" points="2074.68,-82.76 2081.78,-74.9 2071.33,-76.61 2074.68,-82.76"/>
</g>
<!-- Node23&#45;&gt;Node7 -->
<g id="edge36" class="edge">
<title>Node23&#45;&gt;Node7</title>
<path fill="none" stroke="#63b8ff" d="M1642.33,-536.65C1734.42,-528.05 1971.34,-499.3 1971.34,-431.12 1971.34,-431.12 1971.34,-431.12 1971.34,-373.88 1971.34,-340.77 1971.34,-302.27 1971.34,-279.52"/>
<polygon fill="#63b8ff" stroke="#63b8ff" points="1974.84,-279.63 1971.34,-269.63 1967.84,-279.63 1974.84,-279.63"/>
</g>
<!-- Node23&#45;&gt;Node18 -->
<g id="edge124" class="edge">
<title>Node23&#45;&gt;Node18</title>
<path fill="none" stroke="#63b8ff" d="M1570.23,-538.69C1354.33,-532.89 243.34,-499.71 243.34,-431.12 243.34,-431.12 243.34,-431.12 243.34,-191.25 243.34,-150.38 253.84,-133.92 287.34,-110.5 328.13,-81.97 472.97,-71.2 544.61,-67.55"/>
<polygon fill="#63b8ff" stroke="#63b8ff" points="544.63,-71 554.45,-67.02 544.29,-64.01 544.63,-71"/>
</g>
<!-- Node24 -->
<g id="node24" class="node">
<title>Node24</title>
<g id="a_node24"><a xlink:href="v8-object_8h.html" target="_top" xlink:title=" ">
<polygon fill="white" stroke="#666666" points="1333.96,-495 1270.71,-495 1270.71,-475.75 1333.96,-475.75 1333.96,-495"/>
<text text-anchor="middle" x="1302.34" y="-481.5" font-family="Helvetica,sans-Serif" font-size="10.00">v8&#45;object.h</text>
</a>
</g>
</g>
<!-- Node23&#45;&gt;Node24 -->
<g id="edge37" class="edge">
<title>Node23&#45;&gt;Node24</title>
<path fill="none" stroke="#63b8ff" d="M1570.27,-533.31C1513.86,-523.43 1405,-504.36 1344.85,-493.82"/>
<polygon fill="#63b8ff" stroke="#63b8ff" points="1345.67,-490.24 1335.21,-491.96 1344.46,-497.13 1345.67,-490.24"/>
</g>
<!-- Node24&#45;&gt;Node7 -->
<g id="edge72" class="edge">
<title>Node24&#45;&gt;Node7</title>
<path fill="none" stroke="#63b8ff" d="M1334.34,-483.52C1432.92,-480.58 1730.75,-469.41 1822.34,-439.75 1867.71,-425.05 1882.56,-420.06 1914.34,-384.5 1942.41,-353.09 1958.9,-305.52 1966.41,-279.12"/>
<polygon fill="#63b8ff" stroke="#63b8ff" points="1970.02,-280.18 1969.24,-269.62 1963.26,-278.36 1970.02,-280.18"/>
</g>
<!-- Node24&#45;&gt;Node10 -->
<g id="edge71" class="edge">
<title>Node24&#45;&gt;Node10</title>
<path fill="none" stroke="#63b8ff" d="M1307.07,-475.37C1316.19,-457.13 1335.34,-414.27 1335.34,-375.88 1335.34,-375.88 1335.34,-375.88 1335.34,-318.62 1335.34,-249.55 1348.04,-223.26 1399.34,-177 1428.65,-150.57 1472.27,-137.99 1505.1,-132.03"/>
<polygon fill="#63b8ff" stroke="#63b8ff" points="1505.49,-135.35 1514.78,-130.25 1504.34,-128.44 1505.49,-135.35"/>
</g>
<!-- Node24&#45;&gt;Node18 -->
<g id="edge123" class="edge">
<title>Node24&#45;&gt;Node18</title>
<path fill="none" stroke="#63b8ff" d="M1270.4,-483.99C1103.69,-481.83 339.45,-470.3 300.34,-439.75 277,-421.52 281.34,-405.49 281.34,-375.88 281.34,-375.88 281.34,-375.88 281.34,-191.25 281.34,-151.59 287.73,-134.46 319.34,-110.5 354.09,-84.16 479.04,-72.53 544.57,-68.14"/>
<polygon fill="#63b8ff" stroke="#63b8ff" points="544.57,-71.59 554.32,-67.45 544.12,-64.6 544.57,-71.59"/>
</g>
<!-- Node25 -->
<g id="node25" class="node">
<title>Node25</title>
<g id="a_node25"><a xlink:href="garbage-collected_8h.html" target="_top" xlink:title=" ">
<polygon fill="white" stroke="#666666" points="1530.96,-329.25 1401.71,-329.25 1401.71,-310 1530.96,-310 1530.96,-329.25"/>
<text text-anchor="middle" x="1466.34" y="-315.75" font-family="Helvetica,sans-Serif" font-size="10.00">cppgc/garbage&#45;collected.h</text>
</a>
</g>
</g>
<!-- Node24&#45;&gt;Node25 -->
<g id="edge38" class="edge">
<title>Node24&#45;&gt;Node25</title>
<path fill="none" stroke="#63b8ff" d="M1311.79,-475.58C1321.35,-466.65 1336.5,-452.37 1349.34,-439.75 1385.81,-403.89 1427.59,-360.87 1450.03,-337.59"/>
<polygon fill="#63b8ff" stroke="#63b8ff" points="1452.22,-340.33 1456.64,-330.7 1447.18,-335.47 1452.22,-340.33"/>
</g>
<!-- Node38 -->
<g id="node37" class="node">
<title>Node38</title>
<g id="a_node37"><a xlink:href="name-provider_8h.html" target="_top" xlink:title=" ">
<polygon fill="white" stroke="#666666" points="423.46,-439.75 309.21,-439.75 309.21,-420.5 423.46,-420.5 423.46,-439.75"/>
<text text-anchor="middle" x="366.34" y="-426.25" font-family="Helvetica,sans-Serif" font-size="10.00">cppgc/name&#45;provider.h</text>
</a>
</g>
</g>
<!-- Node24&#45;&gt;Node38 -->
<g id="edge69" class="edge">
<title>Node24&#45;&gt;Node38</title>
<path fill="none" stroke="#63b8ff" d="M1270.47,-483.53C1157,-480.35 762.06,-467.82 437.34,-439.75 436.36,-439.67 435.38,-439.58 434.39,-439.49"/>
<polygon fill="#63b8ff" stroke="#63b8ff" points="434.95,-435.93 424.65,-438.43 434.26,-442.89 434.95,-435.93"/>
</g>
<!-- Node39 -->
<g id="node38" class="node">
<title>Node39</title>
<g id="a_node38"><a xlink:href="v8-maybe_8h.html" target="_top" xlink:title=" ">
<polygon fill="white" stroke="#666666" points="1653.09,-329.25 1587.59,-329.25 1587.59,-310 1653.09,-310 1653.09,-329.25"/>
<text text-anchor="middle" x="1620.34" y="-315.75" font-family="Helvetica,sans-Serif" font-size="10.00">v8&#45;maybe.h</text>
</a>
</g>
</g>
<!-- Node24&#45;&gt;Node39 -->
<g id="edge73" class="edge">
<title>Node24&#45;&gt;Node39</title>
<path fill="none" stroke="#63b8ff" d="M1319.89,-475.34C1372.55,-448.22 1529.52,-367.39 1593.12,-334.64"/>
<polygon fill="#63b8ff" stroke="#63b8ff" points="1594.55,-337.32 1601.84,-329.63 1591.35,-331.1 1594.55,-337.32"/>
</g>
<!-- Node43 -->
<g id="node42" class="node">
<title>Node43</title>
<g id="a_node42"><a xlink:href="v8-persistent-handle_8h.html" target="_top" xlink:title=" ">
<polygon fill="white" stroke="#666666" points="1152.96,-384.5 1041.71,-384.5 1041.71,-365.25 1152.96,-365.25 1152.96,-384.5"/>
<text text-anchor="middle" x="1097.34" y="-371" font-family="Helvetica,sans-Serif" font-size="10.00">v8&#45;persistent&#45;handle.h</text>
</a>
</g>
</g>
<!-- Node24&#45;&gt;Node43 -->
<g id="edge85" class="edge">
<title>Node24&#45;&gt;Node43</title>
<path fill="none" stroke="#63b8ff" d="M1281.94,-475.26C1262.74,-466.54 1233.3,-452.83 1208.34,-439.75 1177.94,-423.82 1143.84,-403.88 1121.56,-390.55"/>
<polygon fill="#63b8ff" stroke="#63b8ff" points="1123.58,-387.08 1113.21,-384.93 1119.98,-393.09 1123.58,-387.08"/>
</g>
<!-- Node46 -->
<g id="node45" class="node">
<title>Node46</title>
<g id="a_node45"><a xlink:href="v8-primitive_8h.html" target="_top" xlink:title=" ">
<polygon fill="white" stroke="#666666" points="1306.21,-439.75 1232.46,-439.75 1232.46,-420.5 1306.21,-420.5 1306.21,-439.75"/>
<text text-anchor="middle" x="1269.34" y="-426.25" font-family="Helvetica,sans-Serif" font-size="10.00">v8&#45;primitive.h</text>
</a>
</g>
</g>
<!-- Node24&#45;&gt;Node46 -->
<g id="edge93" class="edge">
<title>Node24&#45;&gt;Node46</title>
<path fill="none" stroke="#63b8ff" d="M1296.89,-475.58C1292.47,-468.46 1286.1,-458.18 1280.6,-449.3"/>
<polygon fill="#63b8ff" stroke="#63b8ff" points="1283.15,-447.77 1274.91,-441.11 1277.2,-451.45 1283.15,-447.77"/>
</g>
<!-- Node48 -->
<g id="node47" class="node">
<title>Node48</title>
<g id="a_node47"><a xlink:href="v8-value_8h.html" target="_top" xlink:title=" ">
<polygon fill="white" stroke="#666666" points="1231.46,-384.5 1171.21,-384.5 1171.21,-365.25 1231.46,-365.25 1231.46,-384.5"/>
<text text-anchor="middle" x="1201.34" y="-371" font-family="Helvetica,sans-Serif" font-size="10.00">v8&#45;value.h</text>
</a>
</g>
</g>
<!-- Node24&#45;&gt;Node48 -->
<g id="edge122" class="edge">
<title>Node24&#45;&gt;Node48</title>
<path fill="none" stroke="#63b8ff" d="M1276.32,-475.32C1259.11,-468.12 1237.24,-456.46 1223.34,-439.75 1212.78,-427.06 1207.18,-409.01 1204.28,-395.34"/>
<polygon fill="#63b8ff" stroke="#63b8ff" points="1207.58,-394.91 1202.37,-385.69 1200.69,-396.15 1207.58,-394.91"/>
</g>
<!-- Node49 -->
<g id="node48" class="node">
<title>Node49</title>
<g id="a_node48"><a xlink:href="v8-sandbox_8h.html" target="_top" xlink:title=" ">
<polygon fill="white" stroke="#666666" points="686.84,-201.88 613.84,-201.88 613.84,-182.62 686.84,-182.62 686.84,-201.88"/>
<text text-anchor="middle" x="650.34" y="-188.38" font-family="Helvetica,sans-Serif" font-size="10.00">v8&#45;sandbox.h</text>
</a>
</g>
</g>
<!-- Node24&#45;&gt;Node49 -->
<g id="edge106" class="edge">
<title>Node24&#45;&gt;Node49</title>
<path fill="none" stroke="#63b8ff" d="M1270.43,-480.78C1136.49,-464.98 622.32,-396.93 528.34,-274 503.27,-241.21 559.17,-217.52 603.35,-204.58"/>
<polygon fill="#63b8ff" stroke="#63b8ff" points="604.02,-207.75 612.7,-201.68 602.13,-201.01 604.02,-207.75"/>
</g>
<!-- Node50 -->
<g id="node49" class="node">
<title>Node50</title>
<g id="a_node49"><a xlink:href="v8-traced-handle_8h.html" target="_top" xlink:title=" ">
<polygon fill="white" stroke="#666666" points="1905.09,-384.5 1809.59,-384.5 1809.59,-365.25 1905.09,-365.25 1905.09,-384.5"/>
<text text-anchor="middle" x="1857.34" y="-371" font-family="Helvetica,sans-Serif" font-size="10.00">v8&#45;traced&#45;handle.h</text>
</a>
</g>
</g>
<!-- Node24&#45;&gt;Node50 -->
<g id="edge110" class="edge">
<title>Node24&#45;&gt;Node50</title>
<path fill="none" stroke="#63b8ff" d="M1334.41,-484.35C1430.32,-483.82 1713.32,-478.89 1795.34,-439.75 1816.62,-429.59 1834.56,-408.85 1845.58,-393.75"/>
<polygon fill="#63b8ff" stroke="#63b8ff" points="1848.96,-396.02 1851.78,-385.81 1843.21,-392.03 1848.96,-396.02"/>
</g>
<!-- Node26 -->
<g id="node26" class="node">
<title>Node26</title>
<g id="a_node26"><a xlink:href="api-constants_8h.html" target="_top" xlink:title=" ">
<polygon fill="white" stroke="#666666" points="797.59,-207.5 705.09,-207.5 705.09,-177 797.59,-177 797.59,-207.5"/>
<text text-anchor="start" x="713.09" y="-194" font-family="Helvetica,sans-Serif" font-size="10.00">cppgc/internal/api</text>
<text text-anchor="middle" x="751.34" y="-182.75" font-family="Helvetica,sans-Serif" font-size="10.00">&#45;constants.h</text>
</a>
</g>
</g>
<!-- Node25&#45;&gt;Node26 -->
<g id="edge39" class="edge">
<title>Node25&#45;&gt;Node26</title>
<path fill="none" stroke="#63b8ff" d="M1401.55,-311.2C1303.48,-299.91 1125.61,-279.16 1096.34,-274 968.25,-251.4 937.95,-237.31 811.34,-207.5 810.38,-207.27 809.41,-207.05 808.44,-206.82"/>
<polygon fill="#63b8ff" stroke="#63b8ff" points="809.38,-203.21 798.85,-204.32 807.77,-210.02 809.38,-203.21"/>
</g>
<!-- Node28 -->
<g id="node28" class="node">
<title>Node28</title>
<g id="a_node28"><a xlink:href="platform_8h.html" target="_top" xlink:title=" ">
<polygon fill="white" stroke="#666666" points="1193.34,-268.38 1105.34,-268.38 1105.34,-249.12 1193.34,-249.12 1193.34,-268.38"/>
<text text-anchor="middle" x="1149.34" y="-254.88" font-family="Helvetica,sans-Serif" font-size="10.00">cppgc/platform.h</text>
</a>
</g>
</g>
<!-- Node25&#45;&gt;Node28 -->
<g id="edge43" class="edge">
<title>Node25&#45;&gt;Node28</title>
<path fill="none" stroke="#63b8ff" d="M1417.5,-309.55C1359.95,-298.87 1264.56,-281.15 1204.43,-269.98"/>
<polygon fill="#63b8ff" stroke="#63b8ff" points="1205.09,-266.36 1194.62,-267.98 1203.82,-273.24 1205.09,-266.36"/>
</g>
<!-- Node36 -->
<g id="node35" class="node">
<title>Node36</title>
<g id="a_node35"><a xlink:href="trace-trait_8h.html" target="_top" xlink:title=" ">
<polygon fill="white" stroke="#666666" points="1639.34,-268.38 1545.34,-268.38 1545.34,-249.12 1639.34,-249.12 1639.34,-268.38"/>
<text text-anchor="middle" x="1592.34" y="-254.88" font-family="Helvetica,sans-Serif" font-size="10.00">cppgc/trace&#45;trait.h</text>
</a>
</g>
</g>
<!-- Node25&#45;&gt;Node36 -->
<g id="edge61" class="edge">
<title>Node25&#45;&gt;Node36</title>
<path fill="none" stroke="#63b8ff" d="M1485.75,-309.55C1506.43,-299.89 1539.42,-284.48 1563.22,-273.36"/>
<polygon fill="#63b8ff" stroke="#63b8ff" points="1564.53,-276.14 1572.11,-268.73 1561.57,-269.8 1564.53,-276.14"/>
</g>
<!-- Node37 -->
<g id="node36" class="node">
<title>Node37</title>
<g id="a_node36"><a xlink:href="type-traits_8h.html" target="_top" xlink:title=" ">
<polygon fill="white" stroke="#666666" points="1621.09,-201.88 1525.59,-201.88 1525.59,-182.62 1621.09,-182.62 1621.09,-201.88"/>
<text text-anchor="middle" x="1573.34" y="-188.38" font-family="Helvetica,sans-Serif" font-size="10.00">cppgc/type&#45;traits.h</text>
</a>
</g>
</g>
<!-- Node25&#45;&gt;Node37 -->
<g id="edge68" class="edge">
<title>Node25&#45;&gt;Node37</title>
<path fill="none" stroke="#63b8ff" d="M1531.1,-311.2C1577.33,-304.41 1633.78,-292.56 1648.34,-274 1667.77,-249.22 1631.21,-222.93 1602.63,-207.31"/>
<polygon fill="#63b8ff" stroke="#63b8ff" points="1604.44,-203.78 1593.95,-202.25 1601.19,-209.98 1604.44,-203.78"/>
</g>
<!-- Node26&#45;&gt;Node18 -->
<g id="edge42" class="edge">
<title>Node26&#45;&gt;Node18</title>
<path fill="none" stroke="#63b8ff" d="M746.76,-176.67C740.41,-158.73 727.31,-128.45 706.34,-110.5 683.49,-90.95 651.31,-79.63 625.88,-73.28"/>
<polygon fill="#63b8ff" stroke="#63b8ff" points="626.97,-69.71 616.44,-70.86 625.39,-76.53 626.97,-69.71"/>
</g>
<!-- Node26&#45;&gt;Node21 -->
<g id="edge40" class="edge">
<title>Node26&#45;&gt;Node21</title>
<path fill="none" stroke="#63b8ff" d="M798,-178.46C831.28,-168.99 876.93,-155.3 916.34,-141 949.01,-129.14 955.74,-122.53 988.34,-110.5 1024.11,-97.29 1065.84,-84.39 1094.57,-75.88"/>
<polygon fill="#63b8ff" stroke="#63b8ff" points="1095.29,-79.02 1103.9,-72.85 1093.32,-72.31 1095.29,-79.02"/>
</g>
<!-- Node27 -->
<g id="node27" class="node">
<title>Node27</title>
<g id="a_node27"><a xlink:title=" ">
<polygon fill="#e0e0e0" stroke="#999999" points="696.96,-135.38 651.71,-135.38 651.71,-116.12 696.96,-116.12 696.96,-135.38"/>
<text text-anchor="middle" x="674.34" y="-121.88" font-family="Helvetica,sans-Serif" font-size="10.00">cstdint</text>
</a>
</g>
</g>
<!-- Node26&#45;&gt;Node27 -->
<g id="edge41" class="edge">
<title>Node26&#45;&gt;Node27</title>
<path fill="none" stroke="#63b8ff" d="M733.87,-176.61C721.73,-166.44 705.56,-152.91 693.14,-142.5"/>
<polygon fill="#63b8ff" stroke="#63b8ff" points="695.78,-139.31 685.87,-135.57 691.29,-144.68 695.78,-139.31"/>
</g>
<!-- Node28&#45;&gt;Node4 -->
<g id="edge44" class="edge">
<title>Node28&#45;&gt;Node4</title>
<path fill="none" stroke="#63b8ff" d="M1160.87,-248.63C1186.17,-228.66 1245.13,-182.44 1255.34,-177 1299.26,-153.62 1323.7,-173.54 1361.34,-141 1386.45,-119.29 1387.57,-106.77 1395.34,-74.5 1397.34,-66.18 1395.53,-63.8 1395.34,-55.25 1395.16,-47.11 1394.79,-38.14 1394.41,-30.39"/>
<polygon fill="#63b8ff" stroke="#63b8ff" points="1397.86,-30.32 1393.85,-20.51 1390.87,-30.68 1397.86,-30.32"/>
</g>
<!-- Node28&#45;&gt;Node18 -->
<g id="edge60" class="edge">
<title>Node28&#45;&gt;Node18</title>
<path fill="none" stroke="#63b8ff" d="M1105.13,-251.82C1026.31,-241.06 867.57,-218.39 844.34,-207.5 829.43,-200.51 746.75,-118.45 732.34,-110.5 698.85,-92.02 656.76,-80.24 626.21,-73.46"/>
<polygon fill="#63b8ff" stroke="#63b8ff" points="627.02,-69.84 616.51,-71.18 625.56,-76.69 627.02,-69.84"/>
</g>
<!-- Node29 -->
<g id="node29" class="node">
<title>Node29</title>
<g id="a_node29"><a xlink:href="source-location_8h.html" target="_top" xlink:title=" ">
<polygon fill="white" stroke="#666666" points="1075.71,-201.88 956.96,-201.88 956.96,-182.62 1075.71,-182.62 1075.71,-201.88"/>
<text text-anchor="middle" x="1016.34" y="-188.38" font-family="Helvetica,sans-Serif" font-size="10.00">cppgc/source&#45;location.h</text>
</a>
</g>
</g>
<!-- Node28&#45;&gt;Node29 -->
<g id="edge45" class="edge">
<title>Node28&#45;&gt;Node29</title>
<path fill="none" stroke="#63b8ff" d="M1130.56,-248.65C1108.19,-237.79 1070.57,-219.55 1044.65,-206.98"/>
<polygon fill="#63b8ff" stroke="#63b8ff" points="1046.54,-203.52 1036.02,-202.31 1043.49,-209.82 1046.54,-203.52"/>
</g>
<!-- Node33 -->
<g id="node32" class="node">
<title>Node33</title>
<g id="a_node32"><a xlink:href="v8-platform_8h.html" target="_top" xlink:title=" ">
<polygon fill="white" stroke="#666666" points="1203.46,-201.88 1131.21,-201.88 1131.21,-182.62 1203.46,-182.62 1203.46,-201.88"/>
<text text-anchor="middle" x="1167.34" y="-188.38" font-family="Helvetica,sans-Serif" font-size="10.00">v8&#45;platform.h</text>
</a>
</g>
</g>
<!-- Node28&#45;&gt;Node33 -->
<g id="edge50" class="edge">
<title>Node28&#45;&gt;Node33</title>
<path fill="none" stroke="#63b8ff" d="M1151.84,-248.78C1154.45,-239.44 1158.61,-224.53 1161.96,-212.51"/>
<polygon fill="#63b8ff" stroke="#63b8ff" points="1165.54,-213.72 1164.86,-203.14 1158.8,-211.83 1165.54,-213.72"/>
</g>
<!-- Node30 -->
<g id="node30" class="node">
<title>Node30</title>
<g id="a_node30"><a xlink:href="v8-source-location_8h.html" target="_top" xlink:title=" ">
<polygon fill="#fff0f0" stroke="red" points="1180.84,-135.38 1077.84,-135.38 1077.84,-116.12 1180.84,-116.12 1180.84,-135.38"/>
<text text-anchor="middle" x="1129.34" y="-121.88" font-family="Helvetica,sans-Serif" font-size="10.00">v8&#45;source&#45;location.h</text>
</a>
</g>
</g>
<!-- Node29&#45;&gt;Node30 -->
<g id="edge46" class="edge">
<title>Node29&#45;&gt;Node30</title>
<path fill="none" stroke="#63b8ff" d="M1032.05,-182.28C1050.67,-171.66 1081.93,-153.81 1103.99,-141.22"/>
<polygon fill="#63b8ff" stroke="#63b8ff" points="1105.45,-143.85 1112.39,-135.85 1101.97,-137.77 1105.45,-143.85"/>
</g>
<!-- Node30&#45;&gt;Node18 -->
<g id="edge49" class="edge">
<title>Node30&#45;&gt;Node18</title>
<path fill="none" stroke="#63b8ff" d="M1091.09,-115.68C1082.03,-113.76 1072.37,-111.89 1063.34,-110.5 902.64,-85.74 709.3,-72.8 626.37,-68.05"/>
<polygon fill="#63b8ff" stroke="#63b8ff" points="626.59,-64.5 616.41,-67.43 626.2,-71.49 626.59,-64.5"/>
</g>
<!-- Node30&#45;&gt;Node21 -->
<g id="edge47" class="edge">
<title>Node30&#45;&gt;Node21</title>
<path fill="none" stroke="#63b8ff" d="M1129.34,-115.81C1129.34,-107.85 1129.34,-95.94 1129.34,-85.74"/>
<polygon fill="#63b8ff" stroke="#63b8ff" points="1132.84,-85.9 1129.34,-75.9 1125.84,-85.9 1132.84,-85.9"/>
</g>
<!-- Node32 -->
<g id="node31" class="node">
<title>Node32</title>
<g id="a_node31"><a xlink:title=" ">
<polygon fill="#e0e0e0" stroke="#999999" points="1278.34,-74.5 1238.34,-74.5 1238.34,-55.25 1278.34,-55.25 1278.34,-74.5"/>
<text text-anchor="middle" x="1258.34" y="-61" font-family="Helvetica,sans-Serif" font-size="10.00">string</text>
</a>
</g>
</g>
<!-- Node30&#45;&gt;Node32 -->
<g id="edge48" class="edge">
<title>Node30&#45;&gt;Node32</title>
<path fill="none" stroke="#63b8ff" d="M1149.21,-115.68C1170.48,-105.97 1204.46,-90.46 1228.85,-79.33"/>
<polygon fill="#63b8ff" stroke="#63b8ff" points="1230.01,-82.19 1237.65,-74.86 1227.1,-75.83 1230.01,-82.19"/>
</g>
<!-- Node33&#45;&gt;Node2 -->
<g id="edge52" class="edge">
<title>Node33&#45;&gt;Node2</title>
<path fill="none" stroke="#63b8ff" d="M1203.87,-189.63C1369.17,-182.23 2040.9,-151.62 2084.34,-141 2137.57,-127.98 2194.78,-98.18 2226.2,-80.27"/>
<polygon fill="#63b8ff" stroke="#63b8ff" points="2227.56,-82.95 2234.46,-74.91 2224.05,-76.89 2227.56,-82.95"/>
</g>
<!-- Node33&#45;&gt;Node3 -->
<g id="edge53" class="edge">
<title>Node33&#45;&gt;Node3</title>
<path fill="none" stroke="#63b8ff" d="M1203.83,-189.73C1365.14,-182.96 2007.9,-155.17 2048.34,-141 2070.45,-133.25 2071.31,-122.66 2091.34,-110.5 2110.14,-99.09 2132.2,-87.8 2149.4,-79.43"/>
<polygon fill="#63b8ff" stroke="#63b8ff" points="2150.41,-82.35 2157.9,-74.86 2147.37,-76.04 2150.41,-82.35"/>
</g>
<!-- Node33&#45;&gt;Node4 -->
<g id="edge55" class="edge">
<title>Node33&#45;&gt;Node4</title>
<path fill="none" stroke="#63b8ff" d="M1198.53,-182.22C1246.13,-168.39 1331.71,-143.3 1334.34,-141 1368.03,-111.5 1383.53,-58.91 1389.75,-30.37"/>
<polygon fill="#63b8ff" stroke="#63b8ff" points="1393.34,-31.24 1391.87,-20.74 1386.48,-29.86 1393.34,-31.24"/>
</g>
<!-- Node33&#45;&gt;Node17 -->
<g id="edge56" class="edge">
<title>Node33&#45;&gt;Node17</title>
<path fill="none" stroke="#63b8ff" d="M1203.73,-185.45C1257.91,-176.39 1356.8,-158.16 1388.34,-141 1414.64,-126.69 1438.19,-100.84 1452.13,-83.52"/>
<polygon fill="#63b8ff" stroke="#63b8ff" points="1455.46,-85.94 1458.84,-75.9 1449.93,-81.64 1455.46,-85.94"/>
</g>
<!-- Node33&#45;&gt;Node18 -->
<g id="edge59" class="edge">
<title>Node33&#45;&gt;Node18</title>
<path fill="none" stroke="#63b8ff" d="M1149.14,-182.21C1110.29,-163.07 1020.13,-119.44 987.34,-110.5 858.62,-75.41 699.53,-67.83 626.06,-66.25"/>
<polygon fill="#63b8ff" stroke="#63b8ff" points="626.5,-62.74 616.43,-66.05 626.37,-69.74 626.5,-62.74"/>
</g>
<!-- Node33&#45;&gt;Node30 -->
<g id="edge58" class="edge">
<title>Node33&#45;&gt;Node30</title>
<path fill="none" stroke="#63b8ff" d="M1162.05,-182.28C1156.38,-172.65 1147.22,-157.1 1140.03,-144.9"/>
<polygon fill="#63b8ff" stroke="#63b8ff" points="1142.67,-143.48 1134.58,-136.64 1136.64,-147.03 1142.67,-143.48"/>
</g>
<!-- Node33&#45;&gt;Node32 -->
<g id="edge57" class="edge">
<title>Node33&#45;&gt;Node32</title>
<path fill="none" stroke="#63b8ff" d="M1197.48,-182.14C1240.23,-169.07 1313.71,-146.04 1317.34,-141 1325.26,-130 1323.38,-122.64 1317.34,-110.5 1311.04,-97.83 1299.23,-87.81 1287.83,-80.49"/>
<polygon fill="#63b8ff" stroke="#63b8ff" points="1289.87,-77.04 1279.48,-74.98 1286.32,-83.07 1289.87,-77.04"/>
</g>
<!-- Node34 -->
<g id="node33" class="node">
<title>Node34</title>
<g id="a_node33"><a xlink:title=" ">
<polygon fill="#e0e0e0" stroke="#999999" points="1243.96,-135.38 1198.71,-135.38 1198.71,-116.12 1243.96,-116.12 1243.96,-135.38"/>
<text text-anchor="middle" x="1221.34" y="-121.88" font-family="Helvetica,sans-Serif" font-size="10.00">math.h</text>
</a>
</g>
</g>
<!-- Node33&#45;&gt;Node34 -->
<g id="edge51" class="edge">
<title>Node33&#45;&gt;Node34</title>
<path fill="none" stroke="#63b8ff" d="M1174.85,-182.28C1183.15,-172.37 1196.71,-156.16 1207.05,-143.81"/>
<polygon fill="#63b8ff" stroke="#63b8ff" points="1210.16,-146.56 1213.89,-136.64 1204.79,-142.06 1210.16,-146.56"/>
</g>
<!-- Node35 -->
<g id="node34" class="node">
<title>Node35</title>
<g id="a_node34"><a xlink:title=" ">
<polygon fill="#e0e0e0" stroke="#999999" points="1308.71,-135.38 1261.96,-135.38 1261.96,-116.12 1308.71,-116.12 1308.71,-135.38"/>
<text text-anchor="middle" x="1285.34" y="-121.88" font-family="Helvetica,sans-Serif" font-size="10.00">stdlib.h</text>
</a>
</g>
</g>
<!-- Node33&#45;&gt;Node35 -->
<g id="edge54" class="edge">
<title>Node33&#45;&gt;Node35</title>
<path fill="none" stroke="#63b8ff" d="M1183.99,-182.15C1203.58,-171.44 1236.34,-153.53 1259.29,-140.99"/>
<polygon fill="#63b8ff" stroke="#63b8ff" points="1260.67,-143.68 1267.77,-135.81 1257.31,-137.53 1260.67,-143.68"/>
</g>
<!-- Node36&#45;&gt;Node8 -->
<g id="edge62" class="edge">
<title>Node36&#45;&gt;Node8</title>
<path fill="none" stroke="#63b8ff" d="M1567.25,-248.67C1549.51,-240.77 1527.05,-227.42 1516.34,-207.5 1509.92,-195.56 1508.27,-187.89 1516.34,-177 1520.11,-171.91 1728.18,-111.99 1734.34,-110.5 1818.37,-90.16 1843.29,-91.81 1931.56,-74.78"/>
<polygon fill="#63b8ff" stroke="#63b8ff" points="1932.21,-78.02 1941.35,-72.66 1930.86,-71.15 1932.21,-78.02"/>
</g>
<!-- Node36&#45;&gt;Node18 -->
<g id="edge67" class="edge">
<title>Node36&#45;&gt;Node18</title>
<path fill="none" stroke="#63b8ff" d="M1560.25,-248.63C1552.48,-246.69 1544.15,-244.82 1536.34,-243.5 1354.24,-212.62 1293.75,-276.27 1122.34,-207.5 1102.24,-199.44 1103.18,-187.68 1084.34,-177 1044.34,-154.32 1030.03,-158.08 987.34,-141 955.45,-128.24 949.44,-119.66 916.34,-110.5 814.32,-82.28 689.5,-71.62 626.26,-67.82"/>
<polygon fill="#63b8ff" stroke="#63b8ff" points="626.74,-64.28 616.55,-67.21 626.34,-71.27 626.74,-64.28"/>
</g>
<!-- Node36&#45;&gt;Node37 -->
<g id="edge63" class="edge">
<title>Node36&#45;&gt;Node37</title>
<path fill="none" stroke="#63b8ff" d="M1589.7,-248.78C1586.95,-239.44 1582.55,-224.53 1579.01,-212.51"/>
<polygon fill="#63b8ff" stroke="#63b8ff" points="1582.14,-211.75 1575.96,-203.14 1575.43,-213.72 1582.14,-211.75"/>
</g>
<!-- Node37&#45;&gt;Node5 -->
<g id="edge66" class="edge">
<title>Node37&#45;&gt;Node5</title>
<path fill="none" stroke="#63b8ff" d="M1620.34,-182.15C1689.76,-168.7 1817.74,-143.91 1876.01,-132.62"/>
<polygon fill="#63b8ff" stroke="#63b8ff" points="1876.55,-135.89 1885.7,-130.55 1875.22,-129.02 1876.55,-135.89"/>
</g>
<!-- Node37&#45;&gt;Node8 -->
<g id="edge65" class="edge">
<title>Node37&#45;&gt;Node8</title>
<path fill="none" stroke="#63b8ff" d="M1602.43,-182.13C1673.14,-159.97 1854.11,-103.24 1934.2,-78.14"/>
<polygon fill="#63b8ff" stroke="#63b8ff" points="1934.86,-81.29 1943.36,-74.96 1932.77,-74.61 1934.86,-81.29"/>
</g>
<!-- Node37&#45;&gt;Node21 -->
<g id="edge64" class="edge">
<title>Node37&#45;&gt;Node21</title>
<path fill="none" stroke="#63b8ff" d="M1546.99,-182.24C1500.79,-166.61 1402.02,-133.87 1317.34,-110.5 1264.36,-95.88 1202.2,-81.7 1164.3,-73.38"/>
<polygon fill="#63b8ff" stroke="#63b8ff" points="1165.33,-69.8 1154.82,-71.09 1163.84,-76.64 1165.33,-69.8"/>
</g>
<!-- Node38&#45;&gt;Node18 -->
<g id="edge70" class="edge">
<title>Node38&#45;&gt;Node18</title>
<path fill="none" stroke="#63b8ff" d="M359.4,-420.12C346.33,-402.22 319.34,-360.45 319.34,-320.62 319.34,-320.62 319.34,-320.62 319.34,-191.25 319.34,-153.81 315.49,-135.53 343.34,-110.5 372.43,-84.35 483.71,-72.78 544.72,-68.31"/>
<polygon fill="#63b8ff" stroke="#63b8ff" points="544.77,-71.75 554.5,-67.56 544.28,-64.76 544.77,-71.75"/>
</g>
<!-- Node39&#45;&gt;Node5 -->
<g id="edge75" class="edge">
<title>Node39&#45;&gt;Node5</title>
<path fill="none" stroke="#63b8ff" d="M1653.47,-310.98C1655.12,-310.64 1656.74,-310.31 1658.34,-310 1706.3,-300.59 1840.04,-307.81 1875.34,-274 1910.31,-240.5 1910.89,-178.3 1908.55,-146.53"/>
<polygon fill="#63b8ff" stroke="#63b8ff" points="1911.94,-146.26 1907.53,-136.63 1904.97,-146.91 1911.94,-146.26"/>
</g>
<!-- Node39&#45;&gt;Node8 -->
<g id="edge74" class="edge">
<title>Node39&#45;&gt;Node8</title>
<path fill="none" stroke="#63b8ff" d="M1634.17,-309.73C1661.98,-291.64 1726.31,-248.76 1776.34,-207.5 1824.6,-167.7 1826.7,-145.81 1878.34,-110.5 1897.03,-97.72 1919.97,-86.83 1938.62,-79.01"/>
<polygon fill="#63b8ff" stroke="#63b8ff" points="1939.83,-81.89 1947.77,-74.87 1937.19,-75.4 1939.83,-81.89"/>
</g>
<!-- Node39&#45;&gt;Node10 -->
<g id="edge83" class="edge">
<title>Node39&#45;&gt;Node10</title>
<path fill="none" stroke="#63b8ff" d="M1634.26,-309.53C1645.01,-301.6 1659.07,-289.03 1665.34,-274 1670.55,-261.49 1668.59,-256.66 1665.34,-243.5 1657.33,-211.08 1653.04,-201.5 1630.34,-177 1616.31,-161.85 1596.73,-149.45 1580.46,-140.76"/>
<polygon fill="#63b8ff" stroke="#63b8ff" points="1582.33,-137.27 1571.83,-135.84 1579.14,-143.51 1582.33,-137.27"/>
</g>
<!-- Node39&#45;&gt;Node18 -->
<g id="edge84" class="edge">
<title>Node39&#45;&gt;Node18</title>
<path fill="none" stroke="#63b8ff" d="M1587.27,-314.86C1572.87,-313.27 1555.78,-311.46 1540.34,-310 1436.18,-300.16 678.28,-281.52 604.34,-207.5 571.99,-175.12 576.4,-115.85 581.39,-85.27"/>
<polygon fill="#63b8ff" stroke="#63b8ff" points="584.96,-86.2 583.32,-75.73 578.07,-84.94 584.96,-86.2"/>
</g>
<!-- Node40 -->
<g id="node39" class="node">
<title>Node40</title>
<g id="a_node39"><a xlink:href="conditional-stack-allocated_8h.html" target="_top" xlink:title=" ">
<polygon fill="white" stroke="#666666" points="1527.46,-274 1401.21,-274 1401.21,-243.5 1527.46,-243.5 1527.46,-274"/>
<text text-anchor="start" x="1409.21" y="-260.5" font-family="Helvetica,sans-Serif" font-size="10.00">cppgc/internal/conditional</text>
<text text-anchor="middle" x="1464.34" y="-249.25" font-family="Helvetica,sans-Serif" font-size="10.00">&#45;stack&#45;allocated.h</text>
</a>
</g>
</g>
<!-- Node39&#45;&gt;Node40 -->
<g id="edge76" class="edge">
<title>Node39&#45;&gt;Node40</title>
<path fill="none" stroke="#63b8ff" d="M1596.3,-309.55C1574.33,-301.26 1541.14,-288.73 1513.54,-278.32"/>
<polygon fill="#63b8ff" stroke="#63b8ff" points="1514.87,-274.7 1504.27,-274.44 1512.39,-281.25 1514.87,-274.7"/>
</g>
<!-- Node40&#45;&gt;Node8 -->
<g id="edge77" class="edge">
<title>Node40&#45;&gt;Node8</title>
<path fill="none" stroke="#63b8ff" d="M1468.77,-243C1474.82,-225.18 1487.26,-195.29 1507.34,-177 1537.97,-149.09 1557.86,-162.41 1593.34,-141 1611.58,-129.99 1610.74,-118.87 1630.34,-110.5 1751.88,-58.56 1797.26,-94.87 1931.69,-74.56"/>
<polygon fill="#63b8ff" stroke="#63b8ff" points="1932.06,-77.88 1941.38,-72.85 1930.96,-70.97 1932.06,-77.88"/>
</g>
<!-- Node40&#45;&gt;Node37 -->
<g id="edge82" class="edge">
<title>Node40&#45;&gt;Node37</title>
<path fill="none" stroke="#63b8ff" d="M1489.07,-243.11C1506.9,-232.56 1530.86,-218.38 1548.68,-207.84"/>
<polygon fill="#63b8ff" stroke="#63b8ff" points="1550.29,-210.36 1557.11,-202.26 1546.72,-204.34 1550.29,-210.36"/>
</g>
<!-- Node41 -->
<g id="node40" class="node">
<title>Node41</title>
<g id="a_node40"><a xlink:href="macros_8h.html" target="_top" xlink:title=" ">
<polygon fill="white" stroke="#666666" points="938.84,-201.88 853.84,-201.88 853.84,-182.62 938.84,-182.62 938.84,-201.88"/>
<text text-anchor="middle" x="896.34" y="-188.38" font-family="Helvetica,sans-Serif" font-size="10.00">cppgc/macros.h</text>
</a>
</g>
</g>
<!-- Node40&#45;&gt;Node41 -->
<g id="edge78" class="edge">
<title>Node40&#45;&gt;Node41</title>
<path fill="none" stroke="#63b8ff" d="M1401.11,-255.07C1303.34,-250.14 1109.88,-237.28 948.34,-207.5 944.47,-206.79 940.48,-205.93 936.5,-204.98"/>
<polygon fill="#63b8ff" stroke="#63b8ff" points="937.66,-201.41 927.11,-202.34 935.94,-208.2 937.66,-201.41"/>
</g>
<!-- Node41&#45;&gt;Node21 -->
<g id="edge79" class="edge">
<title>Node41&#45;&gt;Node21</title>
<path fill="none" stroke="#63b8ff" d="M913.09,-182.23C953.13,-160.69 1054.61,-106.08 1102.95,-80.07"/>
<polygon fill="#63b8ff" stroke="#63b8ff" points="1104.27,-82.8 1111.42,-74.98 1100.96,-76.63 1104.27,-82.8"/>
</g>
<!-- Node42 -->
<g id="node41" class="node">
<title>Node42</title>
<g id="a_node41"><a xlink:href="compiler-specific_8h.html" target="_top" xlink:title=" ">
<polygon fill="white" stroke="#666666" points="907.59,-141 791.09,-141 791.09,-110.5 907.59,-110.5 907.59,-141"/>
<text text-anchor="start" x="799.09" y="-127.5" font-family="Helvetica,sans-Serif" font-size="10.00">cppgc/internal/compiler</text>
<text text-anchor="middle" x="849.34" y="-116.25" font-family="Helvetica,sans-Serif" font-size="10.00">&#45;specific.h</text>
</a>
</g>
</g>
<!-- Node41&#45;&gt;Node42 -->
<g id="edge80" class="edge">
<title>Node41&#45;&gt;Node42</title>
<path fill="none" stroke="#63b8ff" d="M889.8,-182.28C883.67,-173.87 874.24,-160.93 866.03,-149.66"/>
<polygon fill="#63b8ff" stroke="#63b8ff" points="868.51,-148.12 859.79,-142.09 862.85,-152.24 868.51,-148.12"/>
</g>
<!-- Node42&#45;&gt;Node18 -->
<g id="edge81" class="edge">
<title>Node42&#45;&gt;Node18</title>
<path fill="none" stroke="#63b8ff" d="M790.75,-111.68C740.75,-100.53 670.16,-84.79 626.11,-74.97"/>
<polygon fill="#63b8ff" stroke="#63b8ff" points="627.03,-71.36 616.51,-72.6 625.5,-78.2 627.03,-71.36"/>
</g>
<!-- Node43&#45;&gt;Node7 -->
<g id="edge87" class="edge">
<title>Node43&#45;&gt;Node7</title>
<path fill="none" stroke="#63b8ff" d="M1153.33,-366.23C1156.38,-365.88 1159.39,-365.55 1162.34,-365.25 1383.98,-342.59 1449.49,-395.09 1662.34,-329.25 1678.56,-324.23 1679.36,-315.76 1695.34,-310 1787.72,-276.71 1817.14,-293.73 1913.34,-274 1917.39,-273.17 1921.59,-272.25 1925.8,-271.29"/>
<polygon fill="#63b8ff" stroke="#63b8ff" points="1926.23,-274.55 1935.16,-268.85 1924.63,-267.74 1926.23,-274.55"/>
</g>
<!-- Node43&#45;&gt;Node10 -->
<g id="edge86" class="edge">
<title>Node43&#45;&gt;Node10</title>
<path fill="none" stroke="#63b8ff" d="M1107,-364.9C1125.64,-347.54 1167.75,-308.08 1202.34,-274 1245.32,-231.64 1244.26,-205.71 1297.34,-177 1363.71,-141.09 1452.33,-130.68 1505.14,-127.76"/>
<polygon fill="#63b8ff" stroke="#63b8ff" points="1505.03,-131.22 1514.85,-127.25 1504.69,-124.23 1505.03,-131.22"/>
</g>
<!-- Node43&#45;&gt;Node18 -->
<g id="edge92" class="edge">
<title>Node43&#45;&gt;Node18</title>
<path fill="none" stroke="#63b8ff" d="M1041.39,-372.38C895.13,-368.13 509.06,-354.62 457.34,-329.25 420.17,-311.02 395.34,-301.14 395.34,-259.75 395.34,-259.75 395.34,-259.75 395.34,-191.25 395.34,-153.81 392.52,-136.62 419.34,-110.5 452.8,-77.9 507.41,-68.49 544.8,-66.09"/>
<polygon fill="#63b8ff" stroke="#63b8ff" points="544.51,-69.56 554.33,-65.57 544.16,-62.57 544.51,-69.56"/>
</g>
<!-- Node44 -->
<g id="node43" class="node">
<title>Node44</title>
<g id="a_node43"><a xlink:href="v8-weak-callback-info_8h.html" target="_top" xlink:title=" ">
<polygon fill="white" stroke="#666666" points="1119.34,-329.25 1001.34,-329.25 1001.34,-310 1119.34,-310 1119.34,-329.25"/>
<text text-anchor="middle" x="1060.34" y="-315.75" font-family="Helvetica,sans-Serif" font-size="10.00">v8&#45;weak&#45;callback&#45;info.h</text>
</a>
</g>
</g>
<!-- Node43&#45;&gt;Node44 -->
<g id="edge88" class="edge">
<title>Node43&#45;&gt;Node44</title>
<path fill="none" stroke="#63b8ff" d="M1091.23,-365.08C1086.22,-357.88 1078.98,-347.46 1072.77,-338.51"/>
<polygon fill="#63b8ff" stroke="#63b8ff" points="1075.16,-336.82 1066.58,-330.61 1069.41,-340.82 1075.16,-336.82"/>
</g>
<!-- Node44&#45;&gt;Node18 -->
<g id="edge91" class="edge">
<title>Node44&#45;&gt;Node18</title>
<path fill="none" stroke="#63b8ff" d="M1001.1,-316.91C870.57,-312.66 566.71,-300.08 528.34,-274 467.03,-232.33 456.26,-173.5 495.34,-110.5 506.3,-92.83 526.58,-81.93 545.12,-75.34"/>
<polygon fill="#63b8ff" stroke="#63b8ff" points="546.01,-78.41 554.46,-72.02 543.87,-71.75 546.01,-78.41"/>
</g>
<!-- Node44&#45;&gt;Node40 -->
<g id="edge90" class="edge">
<title>Node44&#45;&gt;Node40</title>
<path fill="none" stroke="#63b8ff" d="M1119.52,-310C1191.31,-299.54 1312.4,-281.89 1390.31,-270.54"/>
<polygon fill="#63b8ff" stroke="#63b8ff" points="1390.61,-273.89 1400,-268.98 1389.6,-266.96 1390.61,-273.89"/>
</g>
<!-- Node45 -->
<g id="node44" class="node">
<title>Node45</title>
<g id="a_node44"><a xlink:title=" ">
<polygon fill="#e0e0e0" stroke="#999999" points="582.96,-268.38 537.71,-268.38 537.71,-249.12 582.96,-249.12 582.96,-268.38"/>
<text text-anchor="middle" x="560.34" y="-254.88" font-family="Helvetica,sans-Serif" font-size="10.00">cstring</text>
</a>
</g>
</g>
<!-- Node44&#45;&gt;Node45 -->
<g id="edge89" class="edge">
<title>Node44&#45;&gt;Node45</title>
<path fill="none" stroke="#63b8ff" d="M1001.03,-318.03C912.14,-315.99 739.59,-307.59 597.34,-274 595.28,-273.51 593.18,-272.94 591.08,-272.3"/>
<polygon fill="#63b8ff" stroke="#63b8ff" points="592.36,-268.7 581.77,-268.75 590.08,-275.32 592.36,-268.7"/>
</g>
<!-- Node46&#45;&gt;Node7 -->
<g id="edge98" class="edge">
<title>Node46&#45;&gt;Node7</title>
<path fill="none" stroke="#63b8ff" d="M1306.54,-422.06C1385.55,-406.86 1575.78,-369.16 1733.34,-329.25 1804.18,-311.31 1885.74,-286.6 1932.64,-271.99"/>
<polygon fill="#63b8ff" stroke="#63b8ff" points="1933.44,-275.09 1941.94,-268.76 1931.36,-268.41 1933.44,-275.09"/>
</g>
<!-- Node46&#45;&gt;Node10 -->
<g id="edge97" class="edge">
<title>Node46&#45;&gt;Node10</title>
<path fill="none" stroke="#63b8ff" d="M1269.62,-420.13C1271.35,-382.47 1283.55,-236.73 1369.34,-177 1409.98,-148.7 1466.1,-136.29 1505.03,-130.88"/>
<polygon fill="#63b8ff" stroke="#63b8ff" points="1505.3,-134.25 1514.78,-129.5 1504.41,-127.3 1505.3,-134.25"/>
</g>
<!-- Node46&#45;&gt;Node18 -->
<g id="edge105" class="edge">
<title>Node46&#45;&gt;Node18</title>
<path fill="none" stroke="#63b8ff" d="M1232.24,-428.23C1087.87,-424.22 564.34,-404.68 419.34,-329.25 382.62,-310.15 357.34,-301.14 357.34,-259.75 357.34,-259.75 357.34,-259.75 357.34,-191.25 357.34,-151.59 364.52,-135.47 395.34,-110.5 437.91,-76.02 502.49,-67.29 544.3,-65.54"/>
<polygon fill="#63b8ff" stroke="#63b8ff" points="544.3,-69.01 554.19,-65.22 544.09,-62.02 544.3,-69.01"/>
</g>
<!-- Node47 -->
<g id="node46" class="node">
<title>Node47</title>
<g id="a_node46"><a xlink:href="v8-data_8h.html" target="_top" xlink:title=" ">
<polygon fill="white" stroke="#666666" points="1269.21,-329.25 1213.46,-329.25 1213.46,-310 1269.21,-310 1269.21,-329.25"/>
<text text-anchor="middle" x="1241.34" y="-315.75" font-family="Helvetica,sans-Serif" font-size="10.00">v8&#45;data.h</text>
</a>
</g>
</g>
<!-- Node46&#45;&gt;Node47 -->
<g id="edge94" class="edge">
<title>Node46&#45;&gt;Node47</title>
<path fill="none" stroke="#63b8ff" d="M1267.05,-420.25C1262.55,-402.84 1252.5,-363.87 1246.38,-340.16"/>
<polygon fill="#63b8ff" stroke="#63b8ff" points="1249.55,-339.43 1243.66,-330.63 1242.77,-341.18 1249.55,-339.43"/>
</g>
<!-- Node46&#45;&gt;Node48 -->
<g id="edge99" class="edge">
<title>Node46&#45;&gt;Node48</title>
<path fill="none" stroke="#63b8ff" d="M1257.8,-420.09C1247.78,-412.24 1233.04,-400.7 1221.13,-391.37"/>
<polygon fill="#63b8ff" stroke="#63b8ff" points="1223.73,-388.18 1213.7,-384.77 1219.42,-393.7 1223.73,-388.18"/>
</g>
<!-- Node47&#45;&gt;Node7 -->
<g id="edge95" class="edge">
<title>Node47&#45;&gt;Node7</title>
<path fill="none" stroke="#63b8ff" d="M1269.51,-316.35C1377.91,-307.61 1769.38,-276.04 1915.67,-264.24"/>
<polygon fill="#63b8ff" stroke="#63b8ff" points="1915.91,-267.65 1925.6,-263.36 1915.35,-260.67 1915.91,-267.65"/>
</g>
<!-- Node47&#45;&gt;Node18 -->
<g id="edge96" class="edge">
<title>Node47&#45;&gt;Node18</title>
<path fill="none" stroke="#63b8ff" d="M1213.01,-316.44C1190.16,-314.68 1157.18,-312.15 1128.34,-310 1018.8,-301.82 738.72,-311.14 635.34,-274 613.29,-266.08 611.91,-256.39 592.34,-243.5 566.68,-226.6 548.37,-234.29 533.34,-207.5 512.24,-169.91 515.34,-149.67 533.34,-110.5 538.85,-98.5 549.36,-88.52 559.5,-81.06"/>
<polygon fill="#63b8ff" stroke="#63b8ff" points="561.23,-83.43 567.55,-74.93 557.31,-77.64 561.23,-83.43"/>
</g>
<!-- Node48&#45;&gt;Node7 -->
<g id="edge102" class="edge">
<title>Node48&#45;&gt;Node7</title>
<path fill="none" stroke="#63b8ff" d="M1231.91,-374.18C1310.17,-374.29 1523.69,-370.48 1695.34,-329.25 1717.69,-323.88 1721.35,-316.68 1743.34,-310 1817.23,-287.54 1838.05,-291.22 1913.34,-274 1916.99,-273.17 1920.76,-272.28 1924.55,-271.38"/>
<polygon fill="#63b8ff" stroke="#63b8ff" points="1925.28,-274.57 1934.18,-268.82 1923.64,-267.76 1925.28,-274.57"/>
</g>
<!-- Node48&#45;&gt;Node10 -->
<g id="edge101" class="edge">
<title>Node48&#45;&gt;Node10</title>
<path fill="none" stroke="#63b8ff" d="M1199.84,-364.76C1198.15,-351.95 1196.56,-328.17 1204.34,-310 1208.36,-300.61 1322.46,-182.05 1331.34,-177 1386,-145.92 1458.67,-134.05 1504.98,-129.53"/>
<polygon fill="#63b8ff" stroke="#63b8ff" points="1505.23,-132.93 1514.87,-128.56 1504.6,-125.96 1505.23,-132.93"/>
</g>
<!-- Node48&#45;&gt;Node18 -->
<g id="edge104" class="edge">
<title>Node48&#45;&gt;Node18</title>
<path fill="none" stroke="#63b8ff" d="M1170.73,-366.86C1167.9,-366.28 1165.07,-365.74 1162.34,-365.25 1014.19,-338.84 607.09,-370.16 491.34,-274 435.24,-227.39 433.24,-168.59 477.34,-110.5 493.43,-89.3 521.4,-78.11 544.85,-72.23"/>
<polygon fill="#63b8ff" stroke="#63b8ff" points="545.59,-75.43 554.58,-69.83 544.06,-68.6 545.59,-75.43"/>
</g>
<!-- Node48&#45;&gt;Node39 -->
<g id="edge103" class="edge">
<title>Node48&#45;&gt;Node39</title>
<path fill="none" stroke="#63b8ff" d="M1231.81,-370C1304.98,-360.7 1490.86,-337.08 1576.23,-326.23"/>
<polygon fill="#63b8ff" stroke="#63b8ff" points="1576.63,-329.58 1586.11,-324.85 1575.74,-322.64 1576.63,-329.58"/>
</g>
<!-- Node48&#45;&gt;Node47 -->
<g id="edge100" class="edge">
<title>Node48&#45;&gt;Node47</title>
<path fill="none" stroke="#63b8ff" d="M1207.94,-365.08C1213.41,-357.8 1221.35,-347.23 1228.12,-338.23"/>
<polygon fill="#63b8ff" stroke="#63b8ff" points="1231.38,-340.71 1234.59,-330.61 1225.78,-336.5 1231.38,-340.71"/>
</g>
<!-- Node49&#45;&gt;Node10 -->
<g id="edge108" class="edge">
<title>Node49&#45;&gt;Node10</title>
<path fill="none" stroke="#63b8ff" d="M675.85,-182.14C682.45,-180.12 689.59,-178.22 696.34,-177 968.38,-127.73 1041.36,-157.44 1317.34,-141 1382.51,-137.12 1457.92,-132.48 1504.88,-129.57"/>
<polygon fill="#63b8ff" stroke="#63b8ff" points="1504.84,-133.02 1514.6,-128.91 1504.4,-126.03 1504.84,-133.02"/>
</g>
<!-- Node49&#45;&gt;Node18 -->
<g id="edge109" class="edge">
<title>Node49&#45;&gt;Node18</title>
<path fill="none" stroke="#63b8ff" d="M645.66,-182.23C635.08,-161.81 609.09,-111.68 594.92,-84.36"/>
<polygon fill="#63b8ff" stroke="#63b8ff" points="597.68,-83.08 589.97,-75.81 591.47,-86.3 597.68,-83.08"/>
</g>
<!-- Node49&#45;&gt;Node27 -->
<g id="edge107" class="edge">
<title>Node49&#45;&gt;Node27</title>
<path fill="none" stroke="#63b8ff" d="M653.67,-182.28C657.19,-172.85 662.81,-157.72 667.31,-145.63"/>
<polygon fill="#63b8ff" stroke="#63b8ff" points="670.82,-147.24 671.03,-136.64 664.26,-144.79 670.82,-147.24"/>
</g>
<!-- Node50&#45;&gt;Node2 -->
<g id="edge111" class="edge">
<title>Node50&#45;&gt;Node2</title>
<path fill="none" stroke="#63b8ff" d="M1905.35,-369.8C1945.18,-364.77 2002.23,-353.65 2046.34,-329.25 2151.26,-271.21 2220.03,-134.44 2242.4,-84.53"/>
<polygon fill="#63b8ff" stroke="#63b8ff" points="2245.87,-86.33 2246.67,-75.76 2239.45,-83.52 2245.87,-86.33"/>
</g>
<!-- Node50&#45;&gt;Node3 -->
<g id="edge112" class="edge">
<title>Node50&#45;&gt;Node3</title>
<path fill="none" stroke="#63b8ff" d="M1905.37,-366.19C1938.07,-359.6 1981.55,-348.11 2016.34,-329.25 2049.08,-311.5 2056.88,-303.71 2079.34,-274 2126.36,-211.81 2159.15,-123.72 2172.14,-85.19"/>
<polygon fill="#63b8ff" stroke="#63b8ff" points="2175.72,-86.49 2175.53,-75.9 2169.07,-84.3 2175.72,-86.49"/>
</g>
<!-- Node50&#45;&gt;Node4 -->
<g id="edge115" class="edge">
<title>Node50&#45;&gt;Node4</title>
<path fill="none" stroke="#63b8ff" d="M1905.44,-369.09C2042.86,-354.09 2427.34,-302.38 2427.34,-193.25 2427.34,-193.25 2427.34,-193.25 2427.34,-124.75 2427.34,-104.13 2500.52,-108.69 2284.34,-55.25 2118.37,-14.22 1576.01,-10.77 1429.88,-10.6"/>
<polygon fill="#63b8ff" stroke="#63b8ff" points="1429.9,-7.1 1419.9,-10.59 1429.9,-14.1 1429.9,-7.1"/>
</g>
<!-- Node50&#45;&gt;Node5 -->
<g id="edge117" class="edge">
<title>Node50&#45;&gt;Node5</title>
<path fill="none" stroke="#63b8ff" d="M1882.95,-364.81C1932.93,-345.38 2040.74,-294.25 2065.34,-207.5 2069.04,-194.46 2073.56,-187.78 2065.34,-177 2028.73,-128.98 1990.64,-162.81 1934.34,-141 1933.73,-140.77 1933.13,-140.52 1932.51,-140.27"/>
<polygon fill="#63b8ff" stroke="#63b8ff" points="1934.22,-136.74 1923.67,-135.76 1931.3,-143.11 1934.22,-136.74"/>
</g>
<!-- Node50&#45;&gt;Node7 -->
<g id="edge119" class="edge">
<title>Node50&#45;&gt;Node7</title>
<path fill="none" stroke="#63b8ff" d="M1865.67,-365.11C1877.5,-352.72 1899.86,-329.43 1919.34,-310 1930.86,-298.5 1944.06,-285.76 1954.27,-275.98"/>
<polygon fill="#63b8ff" stroke="#63b8ff" points="1956.23,-278.99 1961.05,-269.56 1951.4,-273.93 1956.23,-278.99"/>
</g>
<!-- Node50&#45;&gt;Node8 -->
<g id="edge116" class="edge">
<title>Node50&#45;&gt;Node8</title>
<path fill="none" stroke="#63b8ff" d="M1895.01,-364.76C1921.59,-357.41 1957.46,-345.59 1986.34,-329.25 2046.31,-295.31 2067.85,-274.87 2082.34,-207.5 2091.54,-164.71 2093.02,-144.4 2065.34,-110.5 2052.39,-94.64 2032.43,-84.01 2014.4,-77.12"/>
<polygon fill="#63b8ff" stroke="#63b8ff" points="2015.68,-73.51 2005.08,-73.48 2013.35,-80.11 2015.68,-73.51"/>
</g>
<!-- Node50&#45;&gt;Node10 -->
<g id="edge118" class="edge">
<title>Node50&#45;&gt;Node10</title>
<path fill="none" stroke="#63b8ff" d="M1809.14,-370.72C1752.67,-365.99 1656.84,-354.72 1578.34,-329.25 1560.33,-323.41 1558.1,-316.56 1540.34,-310 1476.83,-286.55 1434.17,-327.23 1392.34,-274 1348.3,-217.96 1456.77,-163.96 1515.55,-139.86"/>
<polygon fill="#63b8ff" stroke="#63b8ff" points="1516.58,-142.82 1524.56,-135.85 1513.97,-136.32 1516.58,-142.82"/>
</g>
<!-- Node50&#45;&gt;Node12 -->
<g id="edge114" class="edge">
<title>Node50&#45;&gt;Node12</title>
<path fill="none" stroke="#63b8ff" d="M1845.81,-364.8C1836.06,-356.53 1822.42,-343.47 1814.34,-329.25 1798.51,-301.41 1795.34,-291.77 1795.34,-259.75 1795.34,-259.75 1795.34,-259.75 1795.34,-191.25 1795.34,-152.85 1782.27,-109.5 1773.67,-85.15"/>
<polygon fill="#63b8ff" stroke="#63b8ff" points="1776.62,-84.02 1769.89,-75.83 1770.05,-86.43 1776.62,-84.02"/>
</g>
<!-- Node50&#45;&gt;Node18 -->
<g id="edge121" class="edge">
<title>Node50&#45;&gt;Node18</title>
<path fill="none" stroke="#63b8ff" d="M1809.35,-370.41C1724.85,-364.05 1544.09,-349.32 1392.34,-329.25 1341.4,-322.51 1329.38,-315.9 1278.34,-310 1025.74,-280.79 952,-343.28 707.34,-274 677.06,-265.43 600.12,-233.45 582.34,-207.5 556.93,-170.43 569.33,-114.12 578.5,-84.92"/>
<polygon fill="#63b8ff" stroke="#63b8ff" points="582.02,-86.43 581.89,-75.84 575.38,-84.2 582.02,-86.43"/>
</g>
<!-- Node50&#45;&gt;Node44 -->
<g id="edge120" class="edge">
<title>Node50&#45;&gt;Node44</title>
<path fill="none" stroke="#63b8ff" d="M1809.28,-370.66C1673.9,-361.62 1288.95,-335.9 1130.15,-325.29"/>
<polygon fill="#63b8ff" stroke="#63b8ff" points="1130.78,-321.76 1120.57,-324.58 1130.31,-328.74 1130.78,-321.76"/>
</g>
<!-- Node51 -->
<g id="node50" class="node">
<title>Node51</title>
<g id="a_node50"><a xlink:title=" ">
<polygon fill="#e0e0e0" stroke="#999999" points="1867.59,-329.25 1823.09,-329.25 1823.09,-310 1867.59,-310 1867.59,-329.25"/>
<text text-anchor="middle" x="1845.34" y="-315.75" font-family="Helvetica,sans-Serif" font-size="10.00">stdio.h</text>
</a>
</g>
</g>
<!-- Node50&#45;&gt;Node51 -->
<g id="edge113" class="edge">
<title>Node50&#45;&gt;Node51</title>
<path fill="none" stroke="#63b8ff" d="M1855.36,-365.08C1853.84,-358.34 1851.68,-348.77 1849.76,-340.24"/>
<polygon fill="#63b8ff" stroke="#63b8ff" points="1852.98,-339.6 1847.36,-330.61 1846.15,-341.13 1852.98,-339.6"/>
</g>
</g>
</svg>
