<?xml version="1.0" encoding="UTF-8" standalone="no"?>
<!DOCTYPE svg PUBLIC "-//W3C//DTD SVG 1.1//EN"
 "http://www.w3.org/Graphics/SVG/1.1/DTD/svg11.dtd">
<!-- Generated by graphviz version 8.0.5 (20230430.1635)
 -->
<!-- Title: include/libplatform/v8&#45;tracing.h Pages: 1 -->
<svg width="717pt" height="271pt"
 viewBox="0.00 0.00 717.38 270.75" xmlns="http://www.w3.org/2000/svg" xmlns:xlink="http://www.w3.org/1999/xlink">
<g id="graph0" class="graph" transform="scale(1 1) rotate(0) translate(4 266.75)">
<title>include/libplatform/v8&#45;tracing.h</title>
<!-- Node1 -->
<g id="node1" class="node">
<title>Node1</title>
<g id="a_node1"><a xlink:title=" ">
<polygon fill="#999999" stroke="#666666" points="227,-262.75 132.25,-262.75 132.25,-232.25 227,-232.25 227,-262.75"/>
<text text-anchor="start" x="140.25" y="-249.25" font-family="Helvetica,sans-Serif" font-size="10.00">include/libplatform</text>
<text text-anchor="middle" x="179.62" y="-238" font-family="Helvetica,sans-Serif" font-size="10.00">/v8&#45;tracing.h</text>
</a>
</g>
</g>
<!-- Node2 -->
<g id="node2" class="node">
<title>Node2</title>
<g id="a_node2"><a xlink:title=" ">
<polygon fill="#e0e0e0" stroke="#999999" points="45.25,-190.62 0,-190.62 0,-171.38 45.25,-171.38 45.25,-190.62"/>
<text text-anchor="middle" x="22.62" y="-177.12" font-family="Helvetica,sans-Serif" font-size="10.00">atomic</text>
</a>
</g>
</g>
<!-- Node1&#45;&gt;Node2 -->
<g id="edge1" class="edge">
<title>Node1&#45;&gt;Node2</title>
<path fill="none" stroke="#63b8ff" d="M144,-231.86C117.12,-220.82 80.57,-205.81 54.62,-195.15"/>
<polygon fill="#63b8ff" stroke="#63b8ff" points="56.14,-191.57 45.56,-191.01 53.48,-198.05 56.14,-191.57"/>
</g>
<!-- Node3 -->
<g id="node3" class="node">
<title>Node3</title>
<g id="a_node3"><a xlink:title=" ">
<polygon fill="#e0e0e0" stroke="#999999" points="166.88,-19.25 116.38,-19.25 116.38,0 166.88,0 166.88,-19.25"/>
<text text-anchor="middle" x="141.62" y="-5.75" font-family="Helvetica,sans-Serif" font-size="10.00">memory</text>
</a>
</g>
</g>
<!-- Node1&#45;&gt;Node3 -->
<g id="edge2" class="edge">
<title>Node1&#45;&gt;Node3</title>
<path fill="none" stroke="#63b8ff" d="M135.46,-231.89C119,-224.06 102.04,-212.57 92.62,-196.25 60.32,-140.29 105.04,-62.63 128.66,-28.23"/>
<polygon fill="#63b8ff" stroke="#63b8ff" points="132.01,-30.56 134.94,-20.37 126.3,-26.51 132.01,-30.56"/>
</g>
<!-- Node4 -->
<g id="node4" class="node">
<title>Node4</title>
<g id="a_node4"><a xlink:title=" ">
<polygon fill="#e0e0e0" stroke="#999999" points="179.38,-190.62 101.88,-190.62 101.88,-171.38 179.38,-171.38 179.38,-190.62"/>
<text text-anchor="middle" x="140.62" y="-177.12" font-family="Helvetica,sans-Serif" font-size="10.00">unordered_set</text>
</a>
</g>
</g>
<!-- Node1&#45;&gt;Node4 -->
<g id="edge3" class="edge">
<title>Node1&#45;&gt;Node4</title>
<path fill="none" stroke="#63b8ff" d="M170.78,-231.86C165.1,-222.48 157.7,-210.24 151.65,-200.23"/>
<polygon fill="#63b8ff" stroke="#63b8ff" points="154.13,-198.57 145.96,-191.82 148.14,-202.19 154.13,-198.57"/>
</g>
<!-- Node5 -->
<g id="node5" class="node">
<title>Node5</title>
<g id="a_node5"><a xlink:title=" ">
<polygon fill="#e0e0e0" stroke="#999999" points="240.12,-190.62 197.12,-190.62 197.12,-171.38 240.12,-171.38 240.12,-190.62"/>
<text text-anchor="middle" x="218.62" y="-177.12" font-family="Helvetica,sans-Serif" font-size="10.00">vector</text>
</a>
</g>
</g>
<!-- Node1&#45;&gt;Node5 -->
<g id="edge4" class="edge">
<title>Node1&#45;&gt;Node5</title>
<path fill="none" stroke="#63b8ff" d="M188.47,-231.86C194.15,-222.48 201.55,-210.24 207.6,-200.23"/>
<polygon fill="#63b8ff" stroke="#63b8ff" points="211.11,-202.19 213.29,-191.82 205.12,-198.57 211.11,-202.19"/>
</g>
<!-- Node6 -->
<g id="node6" class="node">
<title>Node6</title>
<g id="a_node6"><a xlink:href="libplatform-export_8h.html" target="_top" xlink:title=" ">
<polygon fill="white" stroke="#666666" points="367.12,-196.25 258.12,-196.25 258.12,-165.75 367.12,-165.75 367.12,-196.25"/>
<text text-anchor="start" x="266.12" y="-182.75" font-family="Helvetica,sans-Serif" font-size="10.00">libplatform/libplatform</text>
<text text-anchor="middle" x="312.62" y="-171.5" font-family="Helvetica,sans-Serif" font-size="10.00">&#45;export.h</text>
</a>
</g>
</g>
<!-- Node1&#45;&gt;Node6 -->
<g id="edge5" class="edge">
<title>Node1&#45;&gt;Node6</title>
<path fill="none" stroke="#63b8ff" d="M209.8,-231.86C228.43,-222.83 252.53,-211.15 272.71,-201.36"/>
<polygon fill="#63b8ff" stroke="#63b8ff" points="274.09,-204.09 281.56,-196.58 271.04,-197.79 274.09,-204.09"/>
</g>
<!-- Node7 -->
<g id="node7" class="node">
<title>Node7</title>
<g id="a_node7"><a xlink:href="v8-platform_8h.html" target="_top" xlink:title=" ">
<polygon fill="white" stroke="#666666" points="457.75,-190.62 385.5,-190.62 385.5,-171.38 457.75,-171.38 457.75,-190.62"/>
<text text-anchor="middle" x="421.62" y="-177.12" font-family="Helvetica,sans-Serif" font-size="10.00">v8&#45;platform.h</text>
</a>
</g>
</g>
<!-- Node1&#45;&gt;Node7 -->
<g id="edge6" class="edge">
<title>Node1&#45;&gt;Node7</title>
<path fill="none" stroke="#63b8ff" d="M227.2,-235.17C267.22,-225.45 325.89,-210.74 376.62,-196.25 378.93,-195.59 381.3,-194.9 383.68,-194.19"/>
<polygon fill="#63b8ff" stroke="#63b8ff" points="384.56,-197.27 393.09,-190.99 382.51,-190.58 384.56,-197.27"/>
</g>
<!-- Node7&#45;&gt;Node3 -->
<g id="edge11" class="edge">
<title>Node7&#45;&gt;Node3</title>
<path fill="none" stroke="#63b8ff" d="M395.15,-170.93C389.11,-169.05 382.68,-167.21 376.62,-165.75 329.31,-154.38 194.91,-164.28 160.62,-129.75 134.52,-103.46 135.42,-56.62 138.47,-30.18"/>
<polygon fill="#63b8ff" stroke="#63b8ff" points="142.03,-31.01 139.93,-20.62 135.09,-30.05 142.03,-31.01"/>
</g>
<!-- Node8 -->
<g id="node8" class="node">
<title>Node8</title>
<g id="a_node8"><a xlink:title=" ">
<polygon fill="#e0e0e0" stroke="#999999" points="215.25,-129.75 170,-129.75 170,-110.5 215.25,-110.5 215.25,-129.75"/>
<text text-anchor="middle" x="192.62" y="-116.25" font-family="Helvetica,sans-Serif" font-size="10.00">math.h</text>
</a>
</g>
</g>
<!-- Node7&#45;&gt;Node8 -->
<g id="edge7" class="edge">
<title>Node7&#45;&gt;Node8</title>
<path fill="none" stroke="#63b8ff" d="M394.12,-170.93C388.36,-169.14 382.31,-167.32 376.62,-165.75 312.85,-148.12 293.7,-146.87 226.02,-130.03"/>
<polygon fill="#63b8ff" stroke="#63b8ff" points="227.23,-126.47 216.67,-127.43 225.52,-133.26 227.23,-126.47"/>
</g>
<!-- Node9 -->
<g id="node9" class="node">
<title>Node9</title>
<g id="a_node9"><a xlink:title=" ">
<polygon fill="#e0e0e0" stroke="#999999" points="283.88,-129.75 233.38,-129.75 233.38,-110.5 283.88,-110.5 283.88,-129.75"/>
<text text-anchor="middle" x="258.62" y="-116.25" font-family="Helvetica,sans-Serif" font-size="10.00">stddef.h</text>
</a>
</g>
</g>
<!-- Node7&#45;&gt;Node9 -->
<g id="edge8" class="edge">
<title>Node7&#45;&gt;Node9</title>
<path fill="none" stroke="#63b8ff" d="M396.51,-170.93C369.11,-161.03 325.03,-145.11 294.11,-133.94"/>
<polygon fill="#63b8ff" stroke="#63b8ff" points="295.36,-130.31 284.77,-130.21 292.98,-136.89 295.36,-130.31"/>
</g>
<!-- Node10 -->
<g id="node10" class="node">
<title>Node10</title>
<g id="a_node10"><a xlink:title=" ">
<polygon fill="#e0e0e0" stroke="#999999" points="349.38,-129.75 301.88,-129.75 301.88,-110.5 349.38,-110.5 349.38,-129.75"/>
<text text-anchor="middle" x="325.62" y="-116.25" font-family="Helvetica,sans-Serif" font-size="10.00">stdint.h</text>
</a>
</g>
</g>
<!-- Node7&#45;&gt;Node10 -->
<g id="edge9" class="edge">
<title>Node7&#45;&gt;Node10</title>
<path fill="none" stroke="#63b8ff" d="M407.04,-171.06C391.82,-161.72 367.69,-146.92 349.65,-135.86"/>
<polygon fill="#63b8ff" stroke="#63b8ff" points="351.7,-132.4 341.34,-130.15 348.04,-138.36 351.7,-132.4"/>
</g>
<!-- Node11 -->
<g id="node11" class="node">
<title>Node11</title>
<g id="a_node11"><a xlink:title=" ">
<polygon fill="#e0e0e0" stroke="#999999" points="414,-129.75 367.25,-129.75 367.25,-110.5 414,-110.5 414,-129.75"/>
<text text-anchor="middle" x="390.62" y="-116.25" font-family="Helvetica,sans-Serif" font-size="10.00">stdlib.h</text>
</a>
</g>
</g>
<!-- Node7&#45;&gt;Node11 -->
<g id="edge10" class="edge">
<title>Node7&#45;&gt;Node11</title>
<path fill="none" stroke="#63b8ff" d="M416.92,-171.06C412.55,-162.76 405.9,-150.14 400.39,-139.67"/>
<polygon fill="#63b8ff" stroke="#63b8ff" points="403.13,-138.37 395.38,-131.15 396.94,-141.63 403.13,-138.37"/>
</g>
<!-- Node12 -->
<g id="node12" class="node">
<title>Node12</title>
<g id="a_node12"><a xlink:title=" ">
<polygon fill="#e0e0e0" stroke="#999999" points="481.5,-129.75 431.75,-129.75 431.75,-110.5 481.5,-110.5 481.5,-129.75"/>
<text text-anchor="middle" x="456.62" y="-116.25" font-family="Helvetica,sans-Serif" font-size="10.00">optional</text>
</a>
</g>
</g>
<!-- Node7&#45;&gt;Node12 -->
<g id="edge12" class="edge">
<title>Node7&#45;&gt;Node12</title>
<path fill="none" stroke="#63b8ff" d="M426.94,-171.06C431.93,-162.67 439.53,-149.88 445.79,-139.34"/>
<polygon fill="#63b8ff" stroke="#63b8ff" points="449.16,-141.54 451.26,-131.15 443.14,-137.96 449.16,-141.54"/>
</g>
<!-- Node13 -->
<g id="node13" class="node">
<title>Node13</title>
<g id="a_node13"><a xlink:title=" ">
<polygon fill="#e0e0e0" stroke="#999999" points="463.62,-74.5 423.62,-74.5 423.62,-55.25 463.62,-55.25 463.62,-74.5"/>
<text text-anchor="middle" x="443.62" y="-61" font-family="Helvetica,sans-Serif" font-size="10.00">string</text>
</a>
</g>
</g>
<!-- Node7&#45;&gt;Node13 -->
<g id="edge13" class="edge">
<title>Node7&#45;&gt;Node13</title>
<path fill="none" stroke="#63b8ff" d="M443.13,-170.99C459.46,-162.85 480.75,-149.17 490.62,-129.75 499.74,-111.84 483.18,-93.59 467.26,-81.2"/>
<polygon fill="#63b8ff" stroke="#63b8ff" points="469.8,-78 459.65,-74.97 465.7,-83.67 469.8,-78"/>
</g>
<!-- Node14 -->
<g id="node14" class="node">
<title>Node14</title>
<g id="a_node14"><a xlink:href="v8-source-location_8h.html" target="_top" xlink:title=" ">
<polygon fill="white" stroke="#666666" points="641.12,-129.75 538.12,-129.75 538.12,-110.5 641.12,-110.5 641.12,-129.75"/>
<text text-anchor="middle" x="589.62" y="-116.25" font-family="Helvetica,sans-Serif" font-size="10.00">v8&#45;source&#45;location.h</text>
</a>
</g>
</g>
<!-- Node7&#45;&gt;Node14 -->
<g id="edge14" class="edge">
<title>Node7&#45;&gt;Node14</title>
<path fill="none" stroke="#63b8ff" d="M447.51,-170.93C475.87,-160.99 521.58,-144.97 553.47,-133.79"/>
<polygon fill="#63b8ff" stroke="#63b8ff" points="554.43,-136.82 562.71,-130.21 552.12,-130.21 554.43,-136.82"/>
</g>
<!-- Node17 -->
<g id="node17" class="node">
<title>Node17</title>
<g id="a_node17"><a xlink:href="v8config_8h.html" target="_top" xlink:title=" ">
<polygon fill="white" stroke="#666666" points="709.38,-74.5 649.88,-74.5 649.88,-55.25 709.38,-55.25 709.38,-74.5"/>
<text text-anchor="middle" x="679.62" y="-61" font-family="Helvetica,sans-Serif" font-size="10.00">v8config.h</text>
</a>
</g>
</g>
<!-- Node7&#45;&gt;Node17 -->
<g id="edge20" class="edge">
<title>Node7&#45;&gt;Node17</title>
<path fill="none" stroke="#63b8ff" d="M457.94,-176.01C514.8,-169.13 621.36,-153.43 650.62,-129.75 664.37,-118.63 671.85,-99.58 675.75,-85.17"/>
<polygon fill="#63b8ff" stroke="#63b8ff" points="679.3,-86.38 678.17,-75.85 672.48,-84.79 679.3,-86.38"/>
</g>
<!-- Node14&#45;&gt;Node13 -->
<g id="edge17" class="edge">
<title>Node14&#45;&gt;Node13</title>
<path fill="none" stroke="#63b8ff" d="M564.86,-110.09C539.72,-100.92 500.77,-86.72 473.83,-76.89"/>
<polygon fill="#63b8ff" stroke="#63b8ff" points="475.4,-73.37 464.8,-73.23 473,-79.95 475.4,-73.37"/>
</g>
<!-- Node15 -->
<g id="node15" class="node">
<title>Node15</title>
<g id="a_node15"><a xlink:title=" ">
<polygon fill="#e0e0e0" stroke="#999999" points="529.75,-74.5 481.5,-74.5 481.5,-55.25 529.75,-55.25 529.75,-74.5"/>
<text text-anchor="middle" x="505.62" y="-61" font-family="Helvetica,sans-Serif" font-size="10.00">cstddef</text>
</a>
</g>
</g>
<!-- Node14&#45;&gt;Node15 -->
<g id="edge15" class="edge">
<title>Node14&#45;&gt;Node15</title>
<path fill="none" stroke="#63b8ff" d="M575.38,-110.09C562.7,-102.06 543.93,-90.16 529.06,-80.73"/>
<polygon fill="#63b8ff" stroke="#63b8ff" points="531.26,-77.35 520.94,-74.95 527.52,-83.26 531.26,-77.35"/>
</g>
<!-- Node16 -->
<g id="node16" class="node">
<title>Node16</title>
<g id="a_node16"><a xlink:title=" ">
<polygon fill="#e0e0e0" stroke="#999999" points="631.75,-74.5 547.5,-74.5 547.5,-55.25 631.75,-55.25 631.75,-74.5"/>
<text text-anchor="middle" x="589.62" y="-61" font-family="Helvetica,sans-Serif" font-size="10.00">source_location</text>
</a>
</g>
</g>
<!-- Node14&#45;&gt;Node16 -->
<g id="edge16" class="edge">
<title>Node14&#45;&gt;Node16</title>
<path fill="none" stroke="#63b8ff" d="M589.62,-110.33C589.62,-103.67 589.62,-94.24 589.62,-85.78"/>
<polygon fill="#63b8ff" stroke="#63b8ff" points="593.13,-85.86 589.62,-75.86 586.13,-85.86 593.13,-85.86"/>
</g>
<!-- Node14&#45;&gt;Node17 -->
<g id="edge18" class="edge">
<title>Node14&#45;&gt;Node17</title>
<path fill="none" stroke="#63b8ff" d="M604.89,-110.09C618.6,-101.98 638.96,-89.93 654.97,-80.46"/>
<polygon fill="#63b8ff" stroke="#63b8ff" points="656.46,-83.06 663.28,-74.95 652.89,-77.03 656.46,-83.06"/>
</g>
<!-- Node17&#45;&gt;Node3 -->
<g id="edge19" class="edge">
<title>Node17&#45;&gt;Node3</title>
<path fill="none" stroke="#63b8ff" d="M649.46,-56.8C646.49,-56.23 643.5,-55.7 640.62,-55.25 468.64,-28.65 260.66,-16.37 178.02,-12.28"/>
<polygon fill="#63b8ff" stroke="#63b8ff" points="178.37,-8.74 168.21,-11.75 178.03,-15.73 178.37,-8.74"/>
</g>
</g>
</svg>
