<?xml version="1.0" encoding="UTF-8" standalone="no"?>
<!DOCTYPE svg PUBLIC "-//W3C//DTD SVG 1.1//EN"
 "http://www.w3.org/Graphics/SVG/1.1/DTD/svg11.dtd">
<!-- Generated by graphviz version 8.0.5 (20230430.1635)
 -->
<!-- Title: include/v8&#45;traced&#45;handle.h Pages: 1 -->
<svg width="1196pt" height="381pt"
 viewBox="0.00 0.00 1195.50 381.25" xmlns="http://www.w3.org/2000/svg" xmlns:xlink="http://www.w3.org/1999/xlink">
<g id="graph0" class="graph" transform="scale(1 1) rotate(0) translate(4 377.25)">
<title>include/v8&#45;traced&#45;handle.h</title>
<!-- Node1 -->
<g id="node1" class="node">
<title>Node1</title>
<g id="a_node1"><a xlink:title=" ">
<polygon fill="#999999" stroke="#666666" points="772.88,-373.25 643.62,-373.25 643.62,-354 772.88,-354 772.88,-373.25"/>
<text text-anchor="middle" x="708.25" y="-359.75" font-family="Helvetica,sans-Serif" font-size="10.00">include/v8&#45;traced&#45;handle.h</text>
</a>
</g>
</g>
<!-- Node2 -->
<g id="node2" class="node">
<title>Node2</title>
<g id="a_node2"><a xlink:title=" ">
<polygon fill="#e0e0e0" stroke="#999999" points="50.5,-135.38 0,-135.38 0,-116.12 50.5,-116.12 50.5,-135.38"/>
<text text-anchor="middle" x="25.25" y="-121.88" font-family="Helvetica,sans-Serif" font-size="10.00">stddef.h</text>
</a>
</g>
</g>
<!-- Node1&#45;&gt;Node2 -->
<g id="edge1" class="edge">
<title>Node1&#45;&gt;Node2</title>
<path fill="none" stroke="#63b8ff" d="M643.39,-360.01C577.71,-355.89 473.9,-345.27 388.25,-318 276.17,-282.31 257.16,-251.37 153.25,-196.25 117.75,-177.42 77.01,-155.19 51.2,-141.03"/>
<polygon fill="#63b8ff" stroke="#63b8ff" points="53.21,-137.6 42.76,-135.85 49.84,-143.73 53.21,-137.6"/>
</g>
<!-- Node3 -->
<g id="node3" class="node">
<title>Node3</title>
<g id="a_node3"><a xlink:title=" ">
<polygon fill="#e0e0e0" stroke="#999999" points="594,-135.38 546.5,-135.38 546.5,-116.12 594,-116.12 594,-135.38"/>
<text text-anchor="middle" x="570.25" y="-121.88" font-family="Helvetica,sans-Serif" font-size="10.00">stdint.h</text>
</a>
</g>
</g>
<!-- Node1&#45;&gt;Node3 -->
<g id="edge2" class="edge">
<title>Node1&#45;&gt;Node3</title>
<path fill="none" stroke="#63b8ff" d="M703.01,-353.67C682.69,-318.93 608.84,-192.71 580.98,-145.1"/>
<polygon fill="#63b8ff" stroke="#63b8ff" points="583.57,-143.58 575.5,-136.72 577.53,-147.12 583.57,-143.58"/>
</g>
<!-- Node4 -->
<g id="node4" class="node">
<title>Node4</title>
<g id="a_node4"><a xlink:title=" ">
<polygon fill="#e0e0e0" stroke="#999999" points="1187.5,-318 1143,-318 1143,-298.75 1187.5,-298.75 1187.5,-318"/>
<text text-anchor="middle" x="1165.25" y="-304.5" font-family="Helvetica,sans-Serif" font-size="10.00">stdio.h</text>
</a>
</g>
</g>
<!-- Node1&#45;&gt;Node4 -->
<g id="edge3" class="edge">
<title>Node1&#45;&gt;Node4</title>
<path fill="none" stroke="#63b8ff" d="M773.16,-358.37C856.16,-352.32 1004.12,-339.53 1129.25,-318 1130.22,-317.83 1131.2,-317.66 1132.19,-317.47"/>
<polygon fill="#63b8ff" stroke="#63b8ff" points="1132.81,-320.7 1141.87,-315.21 1131.37,-313.85 1132.81,-320.7"/>
</g>
<!-- Node5 -->
<g id="node5" class="node">
<title>Node5</title>
<g id="a_node5"><a xlink:title=" ">
<polygon fill="#e0e0e0" stroke="#999999" points="656.88,-135.38 611.62,-135.38 611.62,-116.12 656.88,-116.12 656.88,-135.38"/>
<text text-anchor="middle" x="634.25" y="-121.88" font-family="Helvetica,sans-Serif" font-size="10.00">atomic</text>
</a>
</g>
</g>
<!-- Node1&#45;&gt;Node5 -->
<g id="edge4" class="edge">
<title>Node1&#45;&gt;Node5</title>
<path fill="none" stroke="#63b8ff" d="M705.44,-353.67C694.61,-319.15 655.44,-194.3 640.29,-146.01"/>
<polygon fill="#63b8ff" stroke="#63b8ff" points="643.4,-145.21 637.06,-136.72 636.72,-147.31 643.4,-145.21"/>
</g>
<!-- Node6 -->
<g id="node6" class="node">
<title>Node6</title>
<g id="a_node6"><a xlink:title=" ">
<polygon fill="#e0e0e0" stroke="#999999" points="710.5,-19.25 660,-19.25 660,0 710.5,0 710.5,-19.25"/>
<text text-anchor="middle" x="685.25" y="-5.75" font-family="Helvetica,sans-Serif" font-size="10.00">memory</text>
</a>
</g>
</g>
<!-- Node1&#45;&gt;Node6 -->
<g id="edge5" class="edge">
<title>Node1&#45;&gt;Node6</title>
<path fill="none" stroke="#63b8ff" d="M707.66,-353.57C704.63,-307.27 690.87,-96.59 686.55,-30.51"/>
<polygon fill="#63b8ff" stroke="#63b8ff" points="689.98,-30.37 685.84,-20.62 683,-30.83 689.98,-30.37"/>
</g>
<!-- Node7 -->
<g id="node7" class="node">
<title>Node7</title>
<g id="a_node7"><a xlink:title=" ">
<polygon fill="#e0e0e0" stroke="#999999" points="774.75,-135.38 713.75,-135.38 713.75,-116.12 774.75,-116.12 774.75,-135.38"/>
<text text-anchor="middle" x="744.25" y="-121.88" font-family="Helvetica,sans-Serif" font-size="10.00">type_traits</text>
</a>
</g>
</g>
<!-- Node1&#45;&gt;Node7 -->
<g id="edge6" class="edge">
<title>Node1&#45;&gt;Node7</title>
<path fill="none" stroke="#63b8ff" d="M711.66,-353.53C714.88,-344.61 719.58,-330.55 722.25,-318 735.42,-256 741.15,-180.91 743.24,-146.14"/>
<polygon fill="#63b8ff" stroke="#63b8ff" points="746.76,-146.8 743.83,-136.61 739.77,-146.4 746.76,-146.8"/>
</g>
<!-- Node8 -->
<g id="node8" class="node">
<title>Node8</title>
<g id="a_node8"><a xlink:title=" ">
<polygon fill="#e0e0e0" stroke="#999999" points="1084.5,-135.38 1046,-135.38 1046,-116.12 1084.5,-116.12 1084.5,-135.38"/>
<text text-anchor="middle" x="1065.25" y="-121.88" font-family="Helvetica,sans-Serif" font-size="10.00">utility</text>
</a>
</g>
</g>
<!-- Node1&#45;&gt;Node8 -->
<g id="edge7" class="edge">
<title>Node1&#45;&gt;Node8</title>
<path fill="none" stroke="#63b8ff" d="M773.34,-355.84C840.04,-345.81 943.34,-321.4 1011.25,-262.75 1038.64,-239.09 1045.57,-230.15 1058.25,-196.25 1064.23,-180.26 1065.75,-160.84 1065.91,-146.6"/>
<polygon fill="#63b8ff" stroke="#63b8ff" points="1069.39,-146.59 1065.77,-136.63 1062.39,-146.67 1069.39,-146.59"/>
</g>
<!-- Node9 -->
<g id="node9" class="node">
<title>Node9</title>
<g id="a_node9"><a xlink:href="v8-internal_8h.html" target="_top" xlink:title=" ">
<polygon fill="white" stroke="#666666" points="434.5,-196.25 366,-196.25 366,-177 434.5,-177 434.5,-196.25"/>
<text text-anchor="middle" x="400.25" y="-182.75" font-family="Helvetica,sans-Serif" font-size="10.00">v8&#45;internal.h</text>
</a>
</g>
</g>
<!-- Node1&#45;&gt;Node9 -->
<g id="edge8" class="edge">
<title>Node1&#45;&gt;Node9</title>
<path fill="none" stroke="#63b8ff" d="M643.38,-359.25C588.25,-354.64 507.85,-343.75 442.25,-318 400.65,-301.67 379.46,-302.08 358.25,-262.75 351.82,-250.82 353.25,-244.85 358.25,-232.25 362.62,-221.24 371.13,-211.37 379.35,-203.72"/>
<polygon fill="#63b8ff" stroke="#63b8ff" points="381.33,-205.78 386.64,-196.61 376.77,-200.47 381.33,-205.78"/>
</g>
<!-- Node16 -->
<g id="node16" class="node">
<title>Node16</title>
<g id="a_node16"><a xlink:href="v8config_8h.html" target="_top" xlink:title=" ">
<polygon fill="white" stroke="#666666" points="833,-74.5 773.5,-74.5 773.5,-55.25 833,-55.25 833,-74.5"/>
<text text-anchor="middle" x="803.25" y="-61" font-family="Helvetica,sans-Serif" font-size="10.00">v8config.h</text>
</a>
</g>
</g>
<!-- Node1&#45;&gt;Node16 -->
<g id="edge42" class="edge">
<title>Node1&#45;&gt;Node16</title>
<path fill="none" stroke="#63b8ff" d="M773.19,-357.88C888.1,-347.69 1115.25,-318.67 1115.25,-248.5 1115.25,-248.5 1115.25,-248.5 1115.25,-185.62 1115.25,-150.83 1119.42,-133.42 1093.25,-110.5 1056.88,-78.64 914.97,-69.49 844.05,-66.89"/>
<polygon fill="#63b8ff" stroke="#63b8ff" points="844.42,-63.37 834.31,-66.53 844.18,-70.37 844.42,-63.37"/>
</g>
<!-- Node17 -->
<g id="node17" class="node">
<title>Node17</title>
<g id="a_node17"><a xlink:href="v8-local-handle_8h.html" target="_top" xlink:title=" ">
<polygon fill="white" stroke="#666666" points="539.62,-318 450.88,-318 450.88,-298.75 539.62,-298.75 539.62,-318"/>
<text text-anchor="middle" x="495.25" y="-304.5" font-family="Helvetica,sans-Serif" font-size="10.00">v8&#45;local&#45;handle.h</text>
</a>
</g>
</g>
<!-- Node1&#45;&gt;Node17 -->
<g id="edge22" class="edge">
<title>Node1&#45;&gt;Node17</title>
<path fill="none" stroke="#63b8ff" d="M672.12,-353.59C636.32,-344.64 581.31,-330.89 542.15,-321.1"/>
<polygon fill="#63b8ff" stroke="#63b8ff" points="543.11,-317.48 532.56,-318.45 541.41,-324.27 543.11,-317.48"/>
</g>
<!-- Node20 -->
<g id="node20" class="node">
<title>Node20</title>
<g id="a_node20"><a xlink:href="v8-weak-callback-info_8h.html" target="_top" xlink:title=" ">
<polygon fill="white" stroke="#666666" points="893.25,-318 775.25,-318 775.25,-298.75 893.25,-298.75 893.25,-318"/>
<text text-anchor="middle" x="834.25" y="-304.5" font-family="Helvetica,sans-Serif" font-size="10.00">v8&#45;weak&#45;callback&#45;info.h</text>
</a>
</g>
</g>
<!-- Node1&#45;&gt;Node20 -->
<g id="edge29" class="edge">
<title>Node1&#45;&gt;Node20</title>
<path fill="none" stroke="#63b8ff" d="M729.62,-353.59C749.72,-345.1 780.03,-332.29 802.87,-322.64"/>
<polygon fill="#63b8ff" stroke="#63b8ff" points="803.92,-325.57 811.77,-318.45 801.2,-319.12 803.92,-325.57"/>
</g>
<!-- Node9&#45;&gt;Node2 -->
<g id="edge9" class="edge">
<title>Node9&#45;&gt;Node2</title>
<path fill="none" stroke="#63b8ff" d="M365.68,-179.18C361.17,-178.4 356.6,-177.66 352.25,-177 222.52,-157.39 186.06,-174.67 59.25,-141 57.7,-140.59 56.13,-140.12 54.56,-139.62"/>
<polygon fill="#63b8ff" stroke="#63b8ff" points="55.94,-136.02 45.35,-135.83 53.51,-142.59 55.94,-136.02"/>
</g>
<!-- Node9&#45;&gt;Node3 -->
<g id="edge10" class="edge">
<title>Node9&#45;&gt;Node3</title>
<path fill="none" stroke="#63b8ff" d="M427.9,-176.57C454.67,-167.73 496.36,-153.79 532.25,-141 533.7,-140.48 535.18,-139.95 536.68,-139.41"/>
<polygon fill="#63b8ff" stroke="#63b8ff" points="537.4,-142.5 545.58,-135.76 534.98,-135.93 537.4,-142.5"/>
</g>
<!-- Node9&#45;&gt;Node5 -->
<g id="edge12" class="edge">
<title>Node9&#45;&gt;Node5</title>
<path fill="none" stroke="#63b8ff" d="M434.98,-180.33C475.9,-173.55 545.6,-160.34 603.25,-141 604.18,-140.69 605.13,-140.35 606.07,-140.01"/>
<polygon fill="#63b8ff" stroke="#63b8ff" points="607.24,-142.9 615.15,-135.85 604.58,-136.43 607.24,-142.9"/>
</g>
<!-- Node9&#45;&gt;Node6 -->
<g id="edge17" class="edge">
<title>Node9&#45;&gt;Node6</title>
<path fill="none" stroke="#63b8ff" d="M389.19,-176.54C372.66,-161.87 345.1,-132.37 361.25,-110.5 395.99,-63.44 572.04,-29.26 649.07,-16.32"/>
<polygon fill="#63b8ff" stroke="#63b8ff" points="649.39,-19.65 658.69,-14.57 648.25,-12.74 649.39,-19.65"/>
</g>
<!-- Node9&#45;&gt;Node7 -->
<g id="edge19" class="edge">
<title>Node9&#45;&gt;Node7</title>
<path fill="none" stroke="#63b8ff" d="M434.71,-180.01C485.45,-171.7 583.23,-155.55 666.25,-141 678.19,-138.91 691.14,-136.57 703,-134.4"/>
<polygon fill="#63b8ff" stroke="#63b8ff" points="703.32,-137.72 712.52,-132.47 702.05,-130.83 703.32,-137.72"/>
</g>
<!-- Node10 -->
<g id="node10" class="node">
<title>Node10</title>
<g id="a_node10"><a xlink:title=" ">
<polygon fill="#e0e0e0" stroke="#999999" points="418,-135.38 370.5,-135.38 370.5,-116.12 418,-116.12 418,-135.38"/>
<text text-anchor="middle" x="394.25" y="-121.88" font-family="Helvetica,sans-Serif" font-size="10.00">string.h</text>
</a>
</g>
</g>
<!-- Node9&#45;&gt;Node10 -->
<g id="edge11" class="edge">
<title>Node9&#45;&gt;Node10</title>
<path fill="none" stroke="#63b8ff" d="M399.34,-176.68C398.53,-168.73 397.31,-156.81 396.27,-146.62"/>
<polygon fill="#63b8ff" stroke="#63b8ff" points="399.67,-146.37 395.17,-136.78 392.7,-147.08 399.67,-146.37"/>
</g>
<!-- Node11 -->
<g id="node11" class="node">
<title>Node11</title>
<g id="a_node11"><a xlink:title=" ">
<polygon fill="#e0e0e0" stroke="#999999" points="490,-135.38 436.5,-135.38 436.5,-116.12 490,-116.12 490,-135.38"/>
<text text-anchor="middle" x="463.25" y="-121.88" font-family="Helvetica,sans-Serif" font-size="10.00">compare</text>
</a>
</g>
</g>
<!-- Node9&#45;&gt;Node11 -->
<g id="edge13" class="edge">
<title>Node9&#45;&gt;Node11</title>
<path fill="none" stroke="#63b8ff" d="M409.82,-176.68C419.35,-167.78 434.19,-153.91 445.82,-143.04"/>
<polygon fill="#63b8ff" stroke="#63b8ff" points="447.68,-146.16 452.59,-136.78 442.9,-141.05 447.68,-146.16"/>
</g>
<!-- Node12 -->
<g id="node12" class="node">
<title>Node12</title>
<g id="a_node12"><a xlink:title=" ">
<polygon fill="#e0e0e0" stroke="#999999" points="124.12,-135.38 68.38,-135.38 68.38,-116.12 124.12,-116.12 124.12,-135.38"/>
<text text-anchor="middle" x="96.25" y="-121.88" font-family="Helvetica,sans-Serif" font-size="10.00">concepts</text>
</a>
</g>
</g>
<!-- Node9&#45;&gt;Node12 -->
<g id="edge14" class="edge">
<title>Node9&#45;&gt;Node12</title>
<path fill="none" stroke="#63b8ff" d="M365.65,-179.34C361.15,-178.55 356.59,-177.75 352.25,-177 255.04,-160.28 228.44,-166.86 133.25,-141 131.47,-140.52 129.66,-139.98 127.83,-139.4"/>
<polygon fill="#63b8ff" stroke="#63b8ff" points="129.12,-135.79 118.52,-135.8 126.81,-142.4 129.12,-135.79"/>
</g>
<!-- Node13 -->
<g id="node13" class="node">
<title>Node13</title>
<g id="a_node13"><a xlink:title=" ">
<polygon fill="#e0e0e0" stroke="#999999" points="188.25,-135.38 142.25,-135.38 142.25,-116.12 188.25,-116.12 188.25,-135.38"/>
<text text-anchor="middle" x="165.25" y="-121.88" font-family="Helvetica,sans-Serif" font-size="10.00">iterator</text>
</a>
</g>
</g>
<!-- Node9&#45;&gt;Node13 -->
<g id="edge15" class="edge">
<title>Node9&#45;&gt;Node13</title>
<path fill="none" stroke="#63b8ff" d="M365.77,-178.92C316.42,-169.18 228.19,-151.17 197.25,-141 196.15,-140.64 195.04,-140.25 193.93,-139.85"/>
<polygon fill="#63b8ff" stroke="#63b8ff" points="195.54,-136.32 184.95,-135.84 192.92,-142.82 195.54,-136.32"/>
</g>
<!-- Node14 -->
<g id="node14" class="node">
<title>Node14</title>
<g id="a_node14"><a xlink:title=" ">
<polygon fill="#e0e0e0" stroke="#999999" points="245.88,-135.38 206.62,-135.38 206.62,-116.12 245.88,-116.12 245.88,-135.38"/>
<text text-anchor="middle" x="226.25" y="-121.88" font-family="Helvetica,sans-Serif" font-size="10.00">limits</text>
</a>
</g>
</g>
<!-- Node9&#45;&gt;Node14 -->
<g id="edge16" class="edge">
<title>Node9&#45;&gt;Node14</title>
<path fill="none" stroke="#63b8ff" d="M365.74,-176.66C336.02,-168.56 292.22,-155.67 255.25,-141 254.65,-140.76 254.04,-140.51 253.43,-140.26"/>
<polygon fill="#63b8ff" stroke="#63b8ff" points="255.09,-136.72 244.53,-135.8 252.21,-143.1 255.09,-136.72"/>
</g>
<!-- Node15 -->
<g id="node15" class="node">
<title>Node15</title>
<g id="a_node15"><a xlink:title=" ">
<polygon fill="#e0e0e0" stroke="#999999" points="314.12,-135.38 264.38,-135.38 264.38,-116.12 314.12,-116.12 314.12,-135.38"/>
<text text-anchor="middle" x="289.25" y="-121.88" font-family="Helvetica,sans-Serif" font-size="10.00">optional</text>
</a>
</g>
</g>
<!-- Node9&#45;&gt;Node15 -->
<g id="edge18" class="edge">
<title>Node9&#45;&gt;Node15</title>
<path fill="none" stroke="#63b8ff" d="M383.39,-176.68C365.46,-167.17 336.85,-152 315.87,-140.87"/>
<polygon fill="#63b8ff" stroke="#63b8ff" points="317.74,-137.37 307.27,-135.78 314.46,-143.55 317.74,-137.37"/>
</g>
<!-- Node9&#45;&gt;Node16 -->
<g id="edge20" class="edge">
<title>Node9&#45;&gt;Node16</title>
<path fill="none" stroke="#63b8ff" d="M424.71,-176.61C445.29,-168.56 475.14,-155.78 499.25,-141 517.71,-129.68 517.49,-119.36 537.25,-110.5 611.85,-77.07 708.41,-68.48 762.29,-66.4"/>
<polygon fill="#63b8ff" stroke="#63b8ff" points="762.23,-69.87 772.11,-66.05 762,-62.88 762.23,-69.87"/>
</g>
<!-- Node16&#45;&gt;Node6 -->
<g id="edge21" class="edge">
<title>Node16&#45;&gt;Node6</title>
<path fill="none" stroke="#63b8ff" d="M783.23,-54.84C764.59,-46.43 736.53,-33.77 715.22,-24.15"/>
<polygon fill="#63b8ff" stroke="#63b8ff" points="716.92,-20.63 706.37,-19.7 714.04,-27.01 716.92,-20.63"/>
</g>
<!-- Node17&#45;&gt;Node2 -->
<g id="edge23" class="edge">
<title>Node17&#45;&gt;Node2</title>
<path fill="none" stroke="#63b8ff" d="M465.08,-298.32C437.15,-289.76 394.6,-276.25 358.25,-262.75 265.67,-228.37 244.93,-213.72 153.25,-177 111.72,-160.37 100.77,-157.65 59.25,-141 58.34,-140.64 57.42,-140.26 56.49,-139.89"/>
<polygon fill="#63b8ff" stroke="#63b8ff" points="58.01,-136.32 47.43,-135.75 55.34,-142.79 58.01,-136.32"/>
</g>
<!-- Node17&#45;&gt;Node7 -->
<g id="edge24" class="edge">
<title>Node17&#45;&gt;Node7</title>
<path fill="none" stroke="#63b8ff" d="M507.6,-298.42C547.42,-269.53 672.8,-178.58 723.08,-142.1"/>
<polygon fill="#63b8ff" stroke="#63b8ff" points="724.79,-144.47 730.83,-135.76 720.68,-138.8 724.79,-144.47"/>
</g>
<!-- Node17&#45;&gt;Node9 -->
<g id="edge28" class="edge">
<title>Node17&#45;&gt;Node9</title>
<path fill="none" stroke="#63b8ff" d="M504.33,-298.4C518.17,-283.63 541.4,-253.68 526.25,-232.25 508.1,-206.57 473.86,-195.57 445.65,-190.91"/>
<polygon fill="#63b8ff" stroke="#63b8ff" points="446.18,-187.31 435.79,-189.37 445.19,-194.24 446.18,-187.31"/>
</g>
<!-- Node18 -->
<g id="node18" class="node">
<title>Node18</title>
<g id="a_node18"><a xlink:title=" ">
<polygon fill="#e0e0e0" stroke="#999999" points="409.75,-257.12 366.75,-257.12 366.75,-237.88 409.75,-237.88 409.75,-257.12"/>
<text text-anchor="middle" x="388.25" y="-243.62" font-family="Helvetica,sans-Serif" font-size="10.00">vector</text>
</a>
</g>
</g>
<!-- Node17&#45;&gt;Node18 -->
<g id="edge25" class="edge">
<title>Node17&#45;&gt;Node18</title>
<path fill="none" stroke="#63b8ff" d="M479,-298.43C461.79,-288.97 434.39,-273.89 414.19,-262.77"/>
<polygon fill="#63b8ff" stroke="#63b8ff" points="416.1,-259.28 405.65,-257.53 412.73,-265.41 416.1,-259.28"/>
</g>
<!-- Node19 -->
<g id="node19" class="node">
<title>Node19</title>
<g id="a_node19"><a xlink:href="v8-handle-base_8h.html" target="_top" xlink:title=" ">
<polygon fill="white" stroke="#666666" points="517,-257.12 427.5,-257.12 427.5,-237.88 517,-237.88 517,-257.12"/>
<text text-anchor="middle" x="472.25" y="-243.62" font-family="Helvetica,sans-Serif" font-size="10.00">v8&#45;handle&#45;base.h</text>
</a>
</g>
</g>
<!-- Node17&#45;&gt;Node19 -->
<g id="edge26" class="edge">
<title>Node17&#45;&gt;Node19</title>
<path fill="none" stroke="#63b8ff" d="M491.76,-298.43C488.58,-290.31 483.79,-278.04 479.75,-267.7"/>
<polygon fill="#63b8ff" stroke="#63b8ff" points="482.67,-266.57 475.78,-258.53 476.15,-269.11 482.67,-266.57"/>
</g>
<!-- Node19&#45;&gt;Node9 -->
<g id="edge27" class="edge">
<title>Node19&#45;&gt;Node9</title>
<path fill="none" stroke="#63b8ff" d="M461.31,-237.56C450.32,-228.57 433.13,-214.51 419.79,-203.6"/>
<polygon fill="#63b8ff" stroke="#63b8ff" points="422.25,-200.27 412.29,-196.65 417.81,-205.69 422.25,-200.27"/>
</g>
<!-- Node20&#45;&gt;Node16 -->
<g id="edge41" class="edge">
<title>Node20&#45;&gt;Node16</title>
<path fill="none" stroke="#63b8ff" d="M825.48,-298.37C817.93,-289.95 807.59,-276.61 803.25,-262.75 783.7,-200.33 793.38,-121.22 799.51,-85.25"/>
<polygon fill="#63b8ff" stroke="#63b8ff" points="803.07,-86.26 801.41,-75.79 796.18,-85.01 803.07,-86.26"/>
</g>
<!-- Node21 -->
<g id="node21" class="node">
<title>Node21</title>
<g id="a_node21"><a xlink:title=" ">
<polygon fill="#e0e0e0" stroke="#999999" points="857.88,-257.12 812.62,-257.12 812.62,-237.88 857.88,-237.88 857.88,-257.12"/>
<text text-anchor="middle" x="835.25" y="-243.62" font-family="Helvetica,sans-Serif" font-size="10.00">cstring</text>
</a>
</g>
</g>
<!-- Node20&#45;&gt;Node21 -->
<g id="edge30" class="edge">
<title>Node20&#45;&gt;Node21</title>
<path fill="none" stroke="#63b8ff" d="M834.4,-298.43C834.54,-290.48 834.74,-278.56 834.91,-268.37"/>
<polygon fill="#63b8ff" stroke="#63b8ff" points="838.43,-268.58 835.1,-258.53 831.43,-268.47 838.43,-268.58"/>
</g>
<!-- Node22 -->
<g id="node22" class="node">
<title>Node22</title>
<g id="a_node22"><a xlink:href="conditional-stack-allocated_8h.html" target="_top" xlink:title=" ">
<polygon fill="white" stroke="#666666" points="1002.38,-262.75 876.12,-262.75 876.12,-232.25 1002.38,-232.25 1002.38,-262.75"/>
<text text-anchor="start" x="884.12" y="-249.25" font-family="Helvetica,sans-Serif" font-size="10.00">cppgc/internal/conditional</text>
<text text-anchor="middle" x="939.25" y="-238" font-family="Helvetica,sans-Serif" font-size="10.00">&#45;stack&#45;allocated.h</text>
</a>
</g>
</g>
<!-- Node20&#45;&gt;Node22 -->
<g id="edge31" class="edge">
<title>Node20&#45;&gt;Node22</title>
<path fill="none" stroke="#63b8ff" d="M850.2,-298.43C864.4,-290.47 885.68,-278.54 903.88,-268.33"/>
<polygon fill="#63b8ff" stroke="#63b8ff" points="905.32,-270.98 912.33,-263.03 901.9,-264.87 905.32,-270.98"/>
</g>
<!-- Node22&#45;&gt;Node7 -->
<g id="edge32" class="edge">
<title>Node22&#45;&gt;Node7</title>
<path fill="none" stroke="#63b8ff" d="M908.51,-231.94C889.13,-222.43 863.79,-209.38 842.25,-196.25 814.39,-179.27 783.99,-157.1 764.56,-142.41"/>
<polygon fill="#63b8ff" stroke="#63b8ff" points="767.03,-139.14 756.96,-135.86 762.79,-144.7 767.03,-139.14"/>
</g>
<!-- Node23 -->
<g id="node23" class="node">
<title>Node23</title>
<g id="a_node23"><a xlink:href="macros_8h.html" target="_top" xlink:title=" ">
<polygon fill="white" stroke="#666666" points="935.75,-196.25 850.75,-196.25 850.75,-177 935.75,-177 935.75,-196.25"/>
<text text-anchor="middle" x="893.25" y="-182.75" font-family="Helvetica,sans-Serif" font-size="10.00">cppgc/macros.h</text>
</a>
</g>
</g>
<!-- Node22&#45;&gt;Node23 -->
<g id="edge33" class="edge">
<title>Node22&#45;&gt;Node23</title>
<path fill="none" stroke="#63b8ff" d="M927.88,-231.95C921.55,-223.84 913.62,-213.7 906.95,-205.16"/>
<polygon fill="#63b8ff" stroke="#63b8ff" points="909.26,-203.43 900.34,-197.7 903.74,-207.74 909.26,-203.43"/>
</g>
<!-- Node26 -->
<g id="node26" class="node">
<title>Node26</title>
<g id="a_node26"><a xlink:href="type-traits_8h.html" target="_top" xlink:title=" ">
<polygon fill="white" stroke="#666666" points="1049,-196.25 953.5,-196.25 953.5,-177 1049,-177 1049,-196.25"/>
<text text-anchor="middle" x="1001.25" y="-182.75" font-family="Helvetica,sans-Serif" font-size="10.00">cppgc/type&#45;traits.h</text>
</a>
</g>
</g>
<!-- Node22&#45;&gt;Node26 -->
<g id="edge37" class="edge">
<title>Node22&#45;&gt;Node26</title>
<path fill="none" stroke="#63b8ff" d="M954.58,-231.95C963.47,-223.5 974.7,-212.83 983.92,-204.08"/>
<polygon fill="#63b8ff" stroke="#63b8ff" points="985.85,-207.13 990.69,-197.7 981.03,-202.05 985.85,-207.13"/>
</g>
<!-- Node24 -->
<g id="node24" class="node">
<title>Node24</title>
<g id="a_node24"><a xlink:title=" ">
<polygon fill="#e0e0e0" stroke="#999999" points="1021.38,-135.38 973.12,-135.38 973.12,-116.12 1021.38,-116.12 1021.38,-135.38"/>
<text text-anchor="middle" x="997.25" y="-121.88" font-family="Helvetica,sans-Serif" font-size="10.00">cstddef</text>
</a>
</g>
</g>
<!-- Node23&#45;&gt;Node24 -->
<g id="edge34" class="edge">
<title>Node23&#45;&gt;Node24</title>
<path fill="none" stroke="#63b8ff" d="M909.05,-176.68C925.69,-167.26 952.16,-152.27 971.77,-141.18"/>
<polygon fill="#63b8ff" stroke="#63b8ff" points="973.33,-143.75 980.31,-135.78 969.88,-137.66 973.33,-143.75"/>
</g>
<!-- Node25 -->
<g id="node25" class="node">
<title>Node25</title>
<g id="a_node25"><a xlink:href="compiler-specific_8h.html" target="_top" xlink:title=" ">
<polygon fill="white" stroke="#666666" points="949.5,-141 833,-141 833,-110.5 949.5,-110.5 949.5,-141"/>
<text text-anchor="start" x="841" y="-127.5" font-family="Helvetica,sans-Serif" font-size="10.00">cppgc/internal/compiler</text>
<text text-anchor="middle" x="891.25" y="-116.25" font-family="Helvetica,sans-Serif" font-size="10.00">&#45;specific.h</text>
</a>
</g>
</g>
<!-- Node23&#45;&gt;Node25 -->
<g id="edge35" class="edge">
<title>Node23&#45;&gt;Node25</title>
<path fill="none" stroke="#63b8ff" d="M892.95,-176.68C892.72,-170.15 892.41,-160.95 892.12,-152.22"/>
<polygon fill="#63b8ff" stroke="#63b8ff" points="895.58,-152.16 891.74,-142.28 888.59,-152.4 895.58,-152.16"/>
</g>
<!-- Node25&#45;&gt;Node16 -->
<g id="edge36" class="edge">
<title>Node25&#45;&gt;Node16</title>
<path fill="none" stroke="#63b8ff" d="M869.5,-110.2C856.23,-101.32 839.29,-89.99 825.87,-81.01"/>
<polygon fill="#63b8ff" stroke="#63b8ff" points="828.07,-77.6 817.82,-74.95 824.18,-83.42 828.07,-77.6"/>
</g>
<!-- Node26&#45;&gt;Node7 -->
<g id="edge39" class="edge">
<title>Node26&#45;&gt;Node7</title>
<path fill="none" stroke="#63b8ff" d="M961.66,-176.55C913.88,-165.61 833.93,-147.3 785.45,-136.19"/>
<polygon fill="#63b8ff" stroke="#63b8ff" points="786.54,-132.62 776.01,-133.8 784.98,-139.44 786.54,-132.62"/>
</g>
<!-- Node26&#45;&gt;Node8 -->
<g id="edge40" class="edge">
<title>Node26&#45;&gt;Node8</title>
<path fill="none" stroke="#63b8ff" d="M1010.97,-176.68C1020.65,-167.78 1035.73,-153.91 1047.54,-143.04"/>
<polygon fill="#63b8ff" stroke="#63b8ff" points="1049.45,-146.12 1054.44,-136.78 1044.71,-140.97 1049.45,-146.12"/>
</g>
<!-- Node26&#45;&gt;Node24 -->
<g id="edge38" class="edge">
<title>Node26&#45;&gt;Node24</title>
<path fill="none" stroke="#63b8ff" d="M1000.64,-176.68C1000.1,-168.73 999.29,-156.81 998.6,-146.62"/>
<polygon fill="#63b8ff" stroke="#63b8ff" points="1002.03,-146.52 997.86,-136.78 995.05,-146.99 1002.03,-146.52"/>
</g>
</g>
</svg>
