<?xml version="1.0" encoding="UTF-8" standalone="no"?>
<!DOCTYPE svg PUBLIC "-//W3C//DTD SVG 1.1//EN"
 "http://www.w3.org/Graphics/SVG/1.1/DTD/svg11.dtd">
<!-- Generated by graphviz version 2.49.3 (20211027.1534)
 -->
<!-- Title: v8::GlobalValueMap::Set Pages: 1 -->
<svg width="625pt" height="225pt"
 viewBox="0.00 0.00 625.00 224.50" xmlns="http://www.w3.org/2000/svg" xmlns:xlink="http://www.w3.org/1999/xlink">
<g id="graph0" class="graph" transform="scale(1 1) rotate(0) translate(4 220.5)">
<title>v8::GlobalValueMap::Set</title>
<polygon fill="white" stroke="transparent" points="-4,4 -4,-220.5 621,-220.5 621,4 -4,4"/>
<!-- Node1 -->
<g id="node1" class="node">
<title>Node1</title>
<g id="a_node1"><a xlink:title=" ">
<polygon fill="#bfbfbf" stroke="black" points="0,-117.5 0,-136.5 122,-136.5 122,-117.5 0,-117.5"/>
<text text-anchor="middle" x="61" y="-124.5" font-family="Helvetica,sans-Serif" font-size="10.00">v8::GlobalValueMap::Set</text>
</a>
</g>
</g>
<!-- Node2 -->
<g id="node2" class="node">
<title>Node2</title>
<g id="a_node2"><a xlink:href="classv8_1_1GlobalValueMap.html#a5c9f97a40e657b8b0b334d25559f0a4d" target="_top" xlink:title=" ">
<polygon fill="white" stroke="black" points="158,-112 158,-142 261,-142 261,-112 158,-112"/>
<text text-anchor="start" x="166" y="-130" font-family="Helvetica,sans-Serif" font-size="10.00">v8::GlobalValueMap</text>
<text text-anchor="middle" x="209.5" y="-119" font-family="Helvetica,sans-Serif" font-size="10.00">::SetUnique</text>
</a>
</g>
</g>
<!-- Node1&#45;&gt;Node2 -->
<g id="edge1" class="edge">
<title>Node1&#45;&gt;Node2</title>
<path fill="none" stroke="midnightblue" d="M122.01,-127C130.44,-127 139.11,-127 147.55,-127"/>
<polygon fill="midnightblue" stroke="midnightblue" points="147.71,-130.5 157.71,-127 147.71,-123.5 147.71,-130.5"/>
</g>
<!-- Node3 -->
<g id="node3" class="node">
<title>Node3</title>
<g id="a_node3"><a xlink:href="classv8_1_1PersistentValueMapBase.html#a7b083c75829bbc4177729ffe9827c4ac" target="_top" xlink:title=" ">
<polygon fill="white" stroke="black" points="297,-186 297,-216 439,-216 439,-186 297,-186"/>
<text text-anchor="start" x="305" y="-204" font-family="Helvetica,sans-Serif" font-size="10.00">v8::PersistentValueMapBase</text>
<text text-anchor="middle" x="368" y="-193" font-family="Helvetica,sans-Serif" font-size="10.00">::ClearAndLeak</text>
</a>
</g>
</g>
<!-- Node2&#45;&gt;Node3 -->
<g id="edge2" class="edge">
<title>Node2&#45;&gt;Node3</title>
<path fill="none" stroke="midnightblue" d="M233.71,-142.07C250.76,-152.73 274.74,-166.87 297,-177 301.06,-178.85 305.3,-180.63 309.6,-182.34"/>
<polygon fill="midnightblue" stroke="midnightblue" points="308.48,-185.66 319.07,-185.95 310.97,-179.12 308.48,-185.66"/>
</g>
<!-- Node4 -->
<g id="node4" class="node">
<title>Node4</title>
<g id="a_node4"><a xlink:href="classv8_1_1PersistentValueMapBase.html#a149e5b7f40fa52dc9b379342ac802d94" target="_top" xlink:title=" ">
<polygon fill="white" stroke="black" points="297,-137 297,-167 439,-167 439,-137 297,-137"/>
<text text-anchor="start" x="305" y="-155" font-family="Helvetica,sans-Serif" font-size="10.00">v8::PersistentValueMapBase</text>
<text text-anchor="middle" x="368" y="-144" font-family="Helvetica,sans-Serif" font-size="10.00">::impl</text>
</a>
</g>
</g>
<!-- Node2&#45;&gt;Node4 -->
<g id="edge3" class="edge">
<title>Node2&#45;&gt;Node4</title>
<path fill="none" stroke="midnightblue" d="M261.31,-135.12C269.46,-136.42 278.06,-137.79 286.69,-139.17"/>
<polygon fill="midnightblue" stroke="midnightblue" points="286.39,-142.67 296.82,-140.79 287.5,-135.76 286.39,-142.67"/>
</g>
<!-- Node5 -->
<g id="node5" class="node">
<title>Node5</title>
<g id="a_node5"><a xlink:href="classv8_1_1PersistentValueMapBase.html#ac15c999275fb50c0084246cb9a848811" target="_top" xlink:title=" ">
<polygon fill="white" stroke="black" points="297,-88 297,-118 439,-118 439,-88 297,-88"/>
<text text-anchor="start" x="305" y="-106" font-family="Helvetica,sans-Serif" font-size="10.00">v8::PersistentValueMapBase</text>
<text text-anchor="middle" x="368" y="-95" font-family="Helvetica,sans-Serif" font-size="10.00">::isolate</text>
</a>
</g>
</g>
<!-- Node2&#45;&gt;Node5 -->
<g id="edge4" class="edge">
<title>Node2&#45;&gt;Node5</title>
<path fill="none" stroke="midnightblue" d="M261.31,-119.21C269.46,-117.96 278.06,-116.64 286.69,-115.32"/>
<polygon fill="midnightblue" stroke="midnightblue" points="287.47,-118.74 296.82,-113.76 286.41,-111.82 287.47,-118.74"/>
</g>
<!-- Node6 -->
<g id="node6" class="node">
<title>Node6</title>
<g id="a_node6"><a xlink:href="classv8_1_1PersistentValueMapBase.html#aea9af944a2bd71a3b6abd2a2e57788f1" target="_top" xlink:title=" ">
<polygon fill="white" stroke="black" points="297,-39 297,-69 439,-69 439,-39 297,-39"/>
<text text-anchor="start" x="305" y="-57" font-family="Helvetica,sans-Serif" font-size="10.00">v8::PersistentValueMapBase</text>
<text text-anchor="middle" x="368" y="-46" font-family="Helvetica,sans-Serif" font-size="10.00">::Release</text>
</a>
</g>
</g>
<!-- Node2&#45;&gt;Node6 -->
<g id="edge5" class="edge">
<title>Node2&#45;&gt;Node6</title>
<path fill="none" stroke="midnightblue" d="M235.3,-111.81C252.3,-101.76 275.56,-88.7 297,-79 301.73,-76.86 306.7,-74.78 311.72,-72.78"/>
<polygon fill="midnightblue" stroke="midnightblue" points="313.3,-75.92 321.38,-69.07 310.79,-69.39 313.3,-75.92"/>
</g>
<!-- Node7 -->
<g id="node7" class="node">
<title>Node7</title>
<g id="a_node7"><a xlink:href="classv8_1_1PersistentValueMapBase.html#abb262f768e4353658726ba4d1295947c" target="_top" xlink:title=" ">
<polygon fill="white" stroke="black" points="475,-88 475,-118 617,-118 617,-88 475,-88"/>
<text text-anchor="start" x="483" y="-106" font-family="Helvetica,sans-Serif" font-size="10.00">v8::PersistentValueMapBase</text>
<text text-anchor="middle" x="546" y="-95" font-family="Helvetica,sans-Serif" font-size="10.00">::FromVal</text>
</a>
</g>
</g>
<!-- Node6&#45;&gt;Node7 -->
<g id="edge6" class="edge">
<title>Node6&#45;&gt;Node7</title>
<path fill="none" stroke="midnightblue" d="M423.24,-69.1C441.56,-74.2 462.18,-79.94 481.17,-85.23"/>
<polygon fill="midnightblue" stroke="midnightblue" points="480.36,-88.64 490.94,-87.95 482.24,-81.89 480.36,-88.64"/>
</g>
<!-- Node8 -->
<g id="node8" class="node">
<title>Node8</title>
<g id="a_node8"><a xlink:href="classv8_1_1PersistentBase.html#a479c7b146da083aa608e133a7dec79f9" target="_top" xlink:title=" ">
<polygon fill="white" stroke="black" points="497,-39 497,-69 595,-69 595,-39 497,-39"/>
<text text-anchor="start" x="505" y="-57" font-family="Helvetica,sans-Serif" font-size="10.00">v8::PersistentBase</text>
<text text-anchor="middle" x="546" y="-46" font-family="Helvetica,sans-Serif" font-size="10.00">::IsWeak</text>
</a>
</g>
</g>
<!-- Node6&#45;&gt;Node8 -->
<g id="edge7" class="edge">
<title>Node6&#45;&gt;Node8</title>
<path fill="none" stroke="midnightblue" d="M439.07,-54C454.8,-54 471.33,-54 486.53,-54"/>
<polygon fill="midnightblue" stroke="midnightblue" points="486.82,-57.5 496.82,-54 486.82,-50.5 486.82,-57.5"/>
</g>
<!-- Node9 -->
<g id="node9" class="node">
<title>Node9</title>
<g id="a_node9"><a xlink:href="classv8_1_1Global.html#a914903149cc752468d4a3a11b6089c7e" target="_top" xlink:title=" ">
<polygon fill="white" stroke="black" points="503,-0.5 503,-19.5 589,-19.5 589,-0.5 503,-0.5"/>
<text text-anchor="middle" x="546" y="-7.5" font-family="Helvetica,sans-Serif" font-size="10.00">v8::Global::Pass</text>
</a>
</g>
</g>
<!-- Node6&#45;&gt;Node9 -->
<g id="edge8" class="edge">
<title>Node6&#45;&gt;Node9</title>
<path fill="none" stroke="midnightblue" d="M429.08,-38.98C451.24,-33.44 476.04,-27.24 497,-22"/>
<polygon fill="midnightblue" stroke="midnightblue" points="498.1,-25.33 506.95,-19.51 496.4,-18.54 498.1,-25.33"/>
</g>
</g>
</svg>
