<?xml version="1.0" encoding="UTF-8" standalone="no"?>
<!DOCTYPE svg PUBLIC "-//W3C//DTD SVG 1.1//EN"
 "http://www.w3.org/Graphics/SVG/1.1/DTD/svg11.dtd">
<!-- Generated by graphviz version 2.49.3 (20211027.1534)
 -->
<!-- Title: cppgc::internal::PersistentBase::SetNode Pages: 1 -->
<svg width="348pt" height="197pt"
 viewBox="0.00 0.00 348.00 196.50" xmlns="http://www.w3.org/2000/svg" xmlns:xlink="http://www.w3.org/1999/xlink">
<g id="graph0" class="graph" transform="scale(1 1) rotate(0) translate(4 192.5)">
<title>cppgc::internal::PersistentBase::SetNode</title>
<polygon fill="white" stroke="transparent" points="-4,4 -4,-192.5 344,-192.5 344,4 -4,4"/>
<!-- Node1 -->
<g id="node1" class="node">
<title>Node1</title>
<g id="a_node1"><a xlink:title=" ">
<polygon fill="#bfbfbf" stroke="black" points="212,-73.5 212,-103.5 340,-103.5 340,-73.5 212,-73.5"/>
<text text-anchor="start" x="220" y="-91.5" font-family="Helvetica,sans-Serif" font-size="10.00">cppgc::internal::Persistent</text>
<text text-anchor="middle" x="276" y="-80.5" font-family="Helvetica,sans-Serif" font-size="10.00">Base::SetNode</text>
</a>
</g>
</g>
<!-- Node2 -->
<g id="node2" class="node">
<title>Node2</title>
<g id="a_node2"><a xlink:href="classcppgc_1_1internal_1_1BasicCrossThreadPersistent.html#ae6349479cb58549b01386d82d66fa656" target="_top" xlink:title=" ">
<polygon fill="white" stroke="black" points="0,-147 0,-188 176,-188 176,-147 0,-147"/>
<text text-anchor="start" x="8" y="-176" font-family="Helvetica,sans-Serif" font-size="10.00">cppgc::internal::BasicCross</text>
<text text-anchor="start" x="8" y="-165" font-family="Helvetica,sans-Serif" font-size="10.00">ThreadPersistent::BasicCrossThread</text>
<text text-anchor="middle" x="88" y="-154" font-family="Helvetica,sans-Serif" font-size="10.00">Persistent</text>
</a>
</g>
</g>
<!-- Node1&#45;&gt;Node2 -->
<g id="edge1" class="edge">
<title>Node1&#45;&gt;Node2</title>
<path fill="none" stroke="midnightblue" d="M238.82,-108.37C220.33,-118.12 197.29,-129.63 176,-138.5 168.95,-141.44 161.48,-144.3 154,-147"/>
<polygon fill="midnightblue" stroke="midnightblue" points="240.59,-111.4 247.77,-103.61 237.3,-105.22 240.59,-111.4"/>
</g>
<!-- Node3 -->
<g id="node3" class="node">
<title>Node3</title>
<g id="a_node3"><a xlink:href="classcppgc_1_1internal_1_1BasicPersistent.html#a0bd538038aa020da214af7fac0caf31c" target="_top" xlink:title=" ">
<polygon fill="white" stroke="black" points="12,-98.5 12,-128.5 164,-128.5 164,-98.5 12,-98.5"/>
<text text-anchor="start" x="20" y="-116.5" font-family="Helvetica,sans-Serif" font-size="10.00">cppgc::internal::BasicPersistent</text>
<text text-anchor="middle" x="88" y="-105.5" font-family="Helvetica,sans-Serif" font-size="10.00">::BasicPersistent</text>
</a>
</g>
</g>
<!-- Node1&#45;&gt;Node3 -->
<g id="edge2" class="edge">
<title>Node1&#45;&gt;Node3</title>
<path fill="none" stroke="midnightblue" d="M201.6,-98.37C189.33,-100.02 176.58,-101.73 164.27,-103.38"/>
<polygon fill="midnightblue" stroke="midnightblue" points="202.32,-101.8 211.77,-97 201.39,-94.86 202.32,-101.8"/>
</g>
<!-- Node4 -->
<g id="node4" class="node">
<title>Node4</title>
<g id="a_node4"><a xlink:href="classcppgc_1_1internal_1_1BasicCrossThreadPersistent.html#a495e434ac092107ddb112715a863274c" target="_top" xlink:title=" ">
<polygon fill="white" stroke="black" points="19.5,-49.5 19.5,-79.5 156.5,-79.5 156.5,-49.5 19.5,-49.5"/>
<text text-anchor="start" x="27.5" y="-67.5" font-family="Helvetica,sans-Serif" font-size="10.00">cppgc::internal::BasicCross</text>
<text text-anchor="middle" x="88" y="-56.5" font-family="Helvetica,sans-Serif" font-size="10.00">ThreadPersistent::operator=</text>
</a>
</g>
</g>
<!-- Node1&#45;&gt;Node4 -->
<g id="edge3" class="edge">
<title>Node1&#45;&gt;Node4</title>
<path fill="none" stroke="midnightblue" d="M201.61,-79.03C186.74,-77.11 171.16,-75.1 156.51,-73.21"/>
<polygon fill="midnightblue" stroke="midnightblue" points="201.4,-82.53 211.77,-80.34 202.3,-75.59 201.4,-82.53"/>
</g>
<!-- Node5 -->
<g id="node5" class="node">
<title>Node5</title>
<g id="a_node5"><a xlink:href="classcppgc_1_1internal_1_1BasicPersistent.html#ae98f0f817a287da8daf1750f28acc387" target="_top" xlink:title=" ">
<polygon fill="white" stroke="black" points="12,-0.5 12,-30.5 164,-30.5 164,-0.5 12,-0.5"/>
<text text-anchor="start" x="20" y="-18.5" font-family="Helvetica,sans-Serif" font-size="10.00">cppgc::internal::BasicPersistent</text>
<text text-anchor="middle" x="88" y="-7.5" font-family="Helvetica,sans-Serif" font-size="10.00">::operator=</text>
</a>
</g>
</g>
<!-- Node1&#45;&gt;Node5 -->
<g id="edge4" class="edge">
<title>Node1&#45;&gt;Node5</title>
<path fill="none" stroke="midnightblue" d="M238.09,-68.73C219.75,-59.4 197.06,-48.56 176,-40.5 166.61,-36.9 156.47,-33.54 146.56,-30.53"/>
<polygon fill="midnightblue" stroke="midnightblue" points="236.49,-71.84 246.98,-73.31 239.69,-65.62 236.49,-71.84"/>
</g>
</g>
</svg>
