<?xml version="1.0" encoding="UTF-8" standalone="no"?>
<!DOCTYPE svg PUBLIC "-//W3C//DTD SVG 1.1//EN"
 "http://www.w3.org/Graphics/SVG/1.1/DTD/svg11.dtd">
<!-- Generated by graphviz version 2.49.3 (20211027.1534)
 -->
<!-- Title: include/cppgc/custom&#45;space.h Pages: 1 -->
<svg width="492pt" height="352pt"
 viewBox="0.00 0.00 492.00 352.00" xmlns="http://www.w3.org/2000/svg" xmlns:xlink="http://www.w3.org/1999/xlink">
<g id="graph0" class="graph" transform="scale(1 1) rotate(0) translate(4 348)">
<title>include/cppgc/custom&#45;space.h</title>
<polygon fill="white" stroke="transparent" points="-4,4 -4,-348 488,-348 488,4 -4,4"/>
<!-- Node1 -->
<g id="node1" class="node">
<title>Node1</title>
<g id="a_node1"><a xlink:title=" ">
<polygon fill="#bfbfbf" stroke="black" points="144,-313.5 144,-343.5 256,-343.5 256,-313.5 144,-313.5"/>
<text text-anchor="start" x="152" y="-331.5" font-family="Helvetica,sans-Serif" font-size="10.00">include/cppgc/custom</text>
<text text-anchor="middle" x="200" y="-320.5" font-family="Helvetica,sans-Serif" font-size="10.00">&#45;space.h</text>
</a>
</g>
</g>
<!-- Node2 -->
<g id="node2" class="node">
<title>Node2</title>
<g id="a_node2"><a xlink:href="allocation_8h.html" target="_top" xlink:title=" ">
<polygon fill="white" stroke="black" points="0,-257.5 0,-276.5 128,-276.5 128,-257.5 0,-257.5"/>
<text text-anchor="middle" x="64" y="-264.5" font-family="Helvetica,sans-Serif" font-size="10.00">include/cppgc/allocation.h</text>
</a>
</g>
</g>
<!-- Node1&#45;&gt;Node2 -->
<g id="edge1" class="edge">
<title>Node1&#45;&gt;Node2</title>
<path fill="none" stroke="midnightblue" d="M158.56,-309.37C133.74,-298.51 103.31,-285.2 83.79,-276.66"/>
<polygon fill="midnightblue" stroke="midnightblue" points="157.21,-312.6 167.77,-313.4 160.01,-306.18 157.21,-312.6"/>
</g>
<!-- Node3 -->
<g id="node3" class="node">
<title>Node3</title>
<g id="a_node3"><a xlink:href="heap_8h.html" target="_top" xlink:title=" ">
<polygon fill="white" stroke="black" points="146,-257.5 146,-276.5 254,-276.5 254,-257.5 146,-257.5"/>
<text text-anchor="middle" x="200" y="-264.5" font-family="Helvetica,sans-Serif" font-size="10.00">include/cppgc/heap.h</text>
</a>
</g>
</g>
<!-- Node1&#45;&gt;Node3 -->
<g id="edge2" class="edge">
<title>Node1&#45;&gt;Node3</title>
<path fill="none" stroke="midnightblue" d="M200,-303.29C200,-293.86 200,-283.65 200,-276.66"/>
<polygon fill="midnightblue" stroke="midnightblue" points="196.5,-303.4 200,-313.4 203.5,-303.4 196.5,-303.4"/>
</g>
<!-- Node7 -->
<g id="node7" class="node">
<title>Node7</title>
<g id="a_node7"><a xlink:href="visitor_8h.html" target="_top" xlink:title=" ">
<polygon fill="white" stroke="black" points="229.5,-129 229.5,-148 342.5,-148 342.5,-129 229.5,-129"/>
<text text-anchor="middle" x="286" y="-136" font-family="Helvetica,sans-Serif" font-size="10.00">include/cppgc/visitor.h</text>
</a>
</g>
</g>
<!-- Node1&#45;&gt;Node7 -->
<g id="edge13" class="edge">
<title>Node1&#45;&gt;Node7</title>
<path fill="none" stroke="midnightblue" d="M233.64,-307.67C244.65,-299.53 255.88,-289.14 263,-277 288.22,-233.99 287.75,-171.17 286.6,-148.26"/>
<polygon fill="midnightblue" stroke="midnightblue" points="231.54,-304.86 225.33,-313.44 235.53,-310.61 231.54,-304.86"/>
</g>
<!-- Node4 -->
<g id="node4" class="node">
<title>Node4</title>
<g id="a_node4"><a xlink:href="prefinalizer-handler_8h.html" target="_top" xlink:title=" ">
<polygon fill="white" stroke="black" points="59.5,-123.5 59.5,-153.5 170.5,-153.5 170.5,-123.5 59.5,-123.5"/>
<text text-anchor="start" x="67.5" y="-141.5" font-family="Helvetica,sans-Serif" font-size="10.00">include/cppgc/internal</text>
<text text-anchor="middle" x="115" y="-130.5" font-family="Helvetica,sans-Serif" font-size="10.00">/prefinalizer&#45;handler.h</text>
</a>
</g>
</g>
<!-- Node3&#45;&gt;Node4 -->
<g id="edge3" class="edge">
<title>Node3&#45;&gt;Node4</title>
<path fill="none" stroke="midnightblue" d="M170.64,-252.74C157.23,-245.26 142.3,-234.64 133,-221 119.04,-200.53 115.7,-171.04 115.02,-153.72"/>
<polygon fill="midnightblue" stroke="midnightblue" points="169.11,-255.89 179.59,-257.42 172.35,-249.69 169.11,-255.89"/>
</g>
<!-- Node6 -->
<g id="node6" class="node">
<title>Node6</title>
<g id="a_node6"><a xlink:href="liveness-broker_8h.html" target="_top" xlink:title=" ">
<polygon fill="white" stroke="black" points="142,-190.5 142,-220.5 258,-220.5 258,-190.5 142,-190.5"/>
<text text-anchor="start" x="150" y="-208.5" font-family="Helvetica,sans-Serif" font-size="10.00">include/cppgc/liveness</text>
<text text-anchor="middle" x="200" y="-197.5" font-family="Helvetica,sans-Serif" font-size="10.00">&#45;broker.h</text>
</a>
</g>
</g>
<!-- Node3&#45;&gt;Node6 -->
<g id="edge5" class="edge">
<title>Node3&#45;&gt;Node6</title>
<path fill="none" stroke="midnightblue" d="M200,-247.23C200,-238.59 200,-228.5 200,-220.52"/>
<polygon fill="midnightblue" stroke="midnightblue" points="196.5,-247.48 200,-257.48 203.5,-247.48 196.5,-247.48"/>
</g>
<!-- Node5 -->
<g id="node5" class="node">
<title>Node5</title>
<g id="a_node5"><a xlink:href="prefinalizer_8h.html" target="_top" xlink:title=" ">
<polygon fill="white" stroke="black" points="48.5,-67.5 48.5,-86.5 181.5,-86.5 181.5,-67.5 48.5,-67.5"/>
<text text-anchor="middle" x="115" y="-74.5" font-family="Helvetica,sans-Serif" font-size="10.00">include/cppgc/prefinalizer.h</text>
</a>
</g>
</g>
<!-- Node4&#45;&gt;Node5 -->
<g id="edge4" class="edge">
<title>Node4&#45;&gt;Node5</title>
<path fill="none" stroke="midnightblue" d="M115,-113.29C115,-103.86 115,-93.65 115,-86.66"/>
<polygon fill="midnightblue" stroke="midnightblue" points="111.5,-113.4 115,-123.4 118.5,-113.4 111.5,-113.4"/>
</g>
<!-- Node6&#45;&gt;Node4 -->
<g id="edge6" class="edge">
<title>Node6&#45;&gt;Node4</title>
<path fill="none" stroke="midnightblue" d="M173.41,-184.17C160.41,-174.23 145.1,-162.51 133.41,-153.58"/>
<polygon fill="midnightblue" stroke="midnightblue" points="171.49,-187.1 181.56,-190.4 175.74,-181.54 171.49,-187.1"/>
</g>
<!-- Node6&#45;&gt;Node5 -->
<g id="edge7" class="edge">
<title>Node6&#45;&gt;Node5</title>
<path fill="none" stroke="midnightblue" d="M198.15,-179.93C195.85,-162.71 190.66,-139.86 179,-123 167.64,-106.58 148.23,-94.18 133.75,-86.6"/>
<polygon fill="midnightblue" stroke="midnightblue" points="194.72,-180.75 199.29,-190.31 201.68,-179.99 194.72,-180.75"/>
</g>
<!-- Node6&#45;&gt;Node7 -->
<g id="edge8" class="edge">
<title>Node6&#45;&gt;Node7</title>
<path fill="none" stroke="midnightblue" d="M226.67,-184.34C242.72,-172.21 262.33,-157.39 274.5,-148.19"/>
<polygon fill="midnightblue" stroke="midnightblue" points="224.53,-181.57 218.66,-190.4 228.75,-187.16 224.53,-181.57"/>
</g>
<!-- Node8 -->
<g id="node8" class="node">
<title>Node8</title>
<g id="a_node8"><a xlink:href="cross-thread-persistent_8h.html" target="_top" xlink:title=" ">
<polygon fill="white" stroke="black" points="204,-0.5 204,-30.5 308,-30.5 308,-0.5 204,-0.5"/>
<text text-anchor="start" x="212" y="-18.5" font-family="Helvetica,sans-Serif" font-size="10.00">include/cppgc/cross</text>
<text text-anchor="middle" x="256" y="-7.5" font-family="Helvetica,sans-Serif" font-size="10.00">&#45;thread&#45;persistent.h</text>
</a>
</g>
</g>
<!-- Node7&#45;&gt;Node8 -->
<g id="edge9" class="edge">
<title>Node7&#45;&gt;Node8</title>
<path fill="none" stroke="midnightblue" d="M261.75,-123.14C249.47,-114.41 235.77,-102.04 229,-87 220.39,-67.88 233.09,-45.12 243.83,-30.74"/>
<polygon fill="midnightblue" stroke="midnightblue" points="260.05,-126.22 270.31,-128.85 263.93,-120.39 260.05,-126.22"/>
</g>
<!-- Node9 -->
<g id="node9" class="node">
<title>Node9</title>
<g id="a_node9"><a xlink:href="persistent_8h.html" target="_top" xlink:title=" ">
<polygon fill="white" stroke="black" points="238,-67.5 238,-86.5 368,-86.5 368,-67.5 238,-67.5"/>
<text text-anchor="middle" x="303" y="-74.5" font-family="Helvetica,sans-Serif" font-size="10.00">include/cppgc/persistent.h</text>
</a>
</g>
</g>
<!-- Node7&#45;&gt;Node9 -->
<g id="edge10" class="edge">
<title>Node7&#45;&gt;Node9</title>
<path fill="none" stroke="midnightblue" d="M291.24,-119.16C294.35,-108.27 298.15,-94.99 300.57,-86.51"/>
<polygon fill="midnightblue" stroke="midnightblue" points="287.82,-118.4 288.44,-128.98 294.55,-120.32 287.82,-118.4"/>
</g>
<!-- Node10 -->
<g id="node10" class="node">
<title>Node10</title>
<g id="a_node10"><a xlink:href="v8-cppgc_8h.html" target="_top" xlink:title=" ">
<polygon fill="white" stroke="black" points="386,-67.5 386,-86.5 484,-86.5 484,-67.5 386,-67.5"/>
<text text-anchor="middle" x="435" y="-74.5" font-family="Helvetica,sans-Serif" font-size="10.00">include/v8&#45;cppgc.h</text>
</a>
</g>
</g>
<!-- Node7&#45;&gt;Node10 -->
<g id="edge12" class="edge">
<title>Node7&#45;&gt;Node10</title>
<path fill="none" stroke="midnightblue" d="M316.97,-125.13C345.92,-113.57 388.37,-96.62 413.69,-86.51"/>
<polygon fill="midnightblue" stroke="midnightblue" points="315.34,-122.02 307.35,-128.98 317.93,-128.52 315.34,-122.02"/>
</g>
<!-- Node9&#45;&gt;Node8 -->
<g id="edge11" class="edge">
<title>Node9&#45;&gt;Node8</title>
<path fill="none" stroke="midnightblue" d="M289.99,-59.53C282.79,-50.42 273.94,-39.21 267.08,-30.52"/>
<polygon fill="midnightblue" stroke="midnightblue" points="287.32,-61.8 296.27,-67.48 292.81,-57.46 287.32,-61.8"/>
</g>
</g>
</svg>
