<?xml version="1.0" encoding="UTF-8" standalone="no"?>
<!DOCTYPE svg PUBLIC "-//W3C//DTD SVG 1.1//EN"
 "http://www.w3.org/Graphics/SVG/1.1/DTD/svg11.dtd">
<!-- Generated by graphviz version 2.49.3 (20211027.1534)
 -->
<!-- Title: Graphical Class Hierarchy Pages: 1 -->
<svg width="318pt" height="603pt"
 viewBox="0.00 0.00 318.00 602.50" xmlns="http://www.w3.org/2000/svg" xmlns:xlink="http://www.w3.org/1999/xlink">
<g id="graph0" class="graph" transform="scale(1 1) rotate(0) translate(4 598.5)">
<title>Graphical Class Hierarchy</title>
<polygon fill="white" stroke="transparent" points="-4,4 -4,-598.5 314,-598.5 314,4 -4,4"/>
<!-- Node327 -->
<g id="node1" class="node">
<title>Node327</title>
<g id="a_node1"><a xlink:title=" ">
<polygon fill="white" stroke="#bfbfbf" points="0,-268 0,-287 74,-287 74,-268 0,-268"/>
<text text-anchor="middle" x="37" y="-275" font-family="Helvetica,sans-Serif" font-size="10.00">std::true_type</text>
</a>
</g>
</g>
<!-- Node0 -->
<g id="node2" class="node">
<title>Node0</title>
<g id="a_node2"><a xlink:href="structcppgc_1_1internal_1_1HasFinalizeGarbageCollectedObject_3_01T_00_01void__t_3_01decltype_07sa61520700171f43425adcc1b691e5825.html" target="_top" xlink:title=" ">
<polygon fill="white" stroke="black" points="113.5,-531 113.5,-594 306.5,-594 306.5,-531 113.5,-531"/>
<text text-anchor="start" x="121.5" y="-582" font-family="Helvetica,sans-Serif" font-size="10.00">cppgc::internal::HasFinalize</text>
<text text-anchor="start" x="121.5" y="-571" font-family="Helvetica,sans-Serif" font-size="10.00">GarbageCollectedObject&lt;</text>
<text text-anchor="start" x="121.5" y="-560" font-family="Helvetica,sans-Serif" font-size="10.00"> T, void_t&lt; decltype(std</text>
<text text-anchor="start" x="121.5" y="-549" font-family="Helvetica,sans-Serif" font-size="10.00">::declval&lt; T &gt;().FinalizeGarbageCollected</text>
<text text-anchor="middle" x="210" y="-538" font-family="Helvetica,sans-Serif" font-size="10.00">Object())&gt; &gt;</text>
</a>
</g>
</g>
<!-- Node327&#45;&gt;Node0 -->
<g id="edge1" class="edge">
<title>Node327&#45;&gt;Node0</title>
<path fill="none" stroke="midnightblue" d="M38.32,-297.33C40.11,-342.76 50.64,-455.51 110,-521.5 112.99,-524.82 116.28,-527.88 119.8,-530.69"/>
<polygon fill="midnightblue" stroke="midnightblue" points="41.82,-297.2 38.03,-287.3 34.82,-297.4 41.82,-297.2"/>
</g>
<!-- Node329 -->
<g id="node3" class="node">
<title>Node329</title>
<g id="a_node3"><a xlink:href="structcppgc_1_1internal_1_1IsGarbageCollectedMixinType_3_01T_00_01void__t_3_01typename_01std_1_14b46fbef65c16ddacb2df750491360da.html" target="_top" xlink:title=" ">
<polygon fill="white" stroke="black" points="115.5,-449 115.5,-512 304.5,-512 304.5,-449 115.5,-449"/>
<text text-anchor="start" x="123.5" y="-500" font-family="Helvetica,sans-Serif" font-size="10.00">cppgc::internal::IsGarbage</text>
<text text-anchor="start" x="123.5" y="-489" font-family="Helvetica,sans-Serif" font-size="10.00">CollectedMixinType&lt; T,</text>
<text text-anchor="start" x="123.5" y="-478" font-family="Helvetica,sans-Serif" font-size="10.00"> void_t&lt; typename std::remove</text>
<text text-anchor="start" x="123.5" y="-467" font-family="Helvetica,sans-Serif" font-size="10.00">_const_t&lt; T &gt;::IsGarbageCollectedMixin</text>
<text text-anchor="middle" x="210" y="-456" font-family="Helvetica,sans-Serif" font-size="10.00">TypeMarker &gt; &gt;</text>
</a>
</g>
</g>
<!-- Node327&#45;&gt;Node329 -->
<g id="edge2" class="edge">
<title>Node327&#45;&gt;Node329</title>
<path fill="none" stroke="midnightblue" d="M41.8,-297.29C49.2,-330.84 68.62,-399.16 110,-439.5 113.46,-442.88 117.24,-445.99 121.24,-448.86"/>
<polygon fill="midnightblue" stroke="midnightblue" points="45.19,-296.42 39.73,-287.34 38.34,-297.84 45.19,-296.42"/>
</g>
<!-- Node330 -->
<g id="node4" class="node">
<title>Node330</title>
<g id="a_node4"><a xlink:href="structcppgc_1_1internal_1_1IsGarbageCollectedType_3_01T_00_01void__t_3_01typename_01std_1_1remov242c3cc73022aacbda81955038f7dedf.html" target="_top" xlink:title=" ">
<polygon fill="white" stroke="black" points="126.5,-367 126.5,-430 293.5,-430 293.5,-367 126.5,-367"/>
<text text-anchor="start" x="134.5" y="-418" font-family="Helvetica,sans-Serif" font-size="10.00">cppgc::internal::IsGarbage</text>
<text text-anchor="start" x="134.5" y="-407" font-family="Helvetica,sans-Serif" font-size="10.00">CollectedType&lt; T, void</text>
<text text-anchor="start" x="134.5" y="-396" font-family="Helvetica,sans-Serif" font-size="10.00">_t&lt; typename std::remove</text>
<text text-anchor="start" x="134.5" y="-385" font-family="Helvetica,sans-Serif" font-size="10.00">_const_t&lt; T &gt;::IsGarbageCollected</text>
<text text-anchor="middle" x="210" y="-374" font-family="Helvetica,sans-Serif" font-size="10.00">TypeMarker &gt; &gt;</text>
</a>
</g>
</g>
<!-- Node327&#45;&gt;Node330 -->
<g id="edge3" class="edge">
<title>Node327&#45;&gt;Node330</title>
<path fill="none" stroke="midnightblue" d="M50.46,-295.5C63.54,-313.28 85.57,-340.23 110,-357.5 115.17,-361.15 120.7,-364.56 126.43,-367.71"/>
<polygon fill="midnightblue" stroke="midnightblue" points="53.14,-293.23 44.47,-287.14 47.45,-297.31 53.14,-293.23"/>
</g>
<!-- Node331 -->
<g id="node5" class="node">
<title>Node331</title>
<g id="a_node5"><a xlink:href="structcppgc_1_1internal_1_1IsTraceMethodConst_3_01T_00_01void__t_3_01decltype_07std_1_1declval_340f310667d584b91bf9e1fcf69c55d0e.html" target="_top" xlink:title=" ">
<polygon fill="white" stroke="black" points="146,-285 146,-348 274,-348 274,-285 146,-285"/>
<text text-anchor="start" x="154" y="-336" font-family="Helvetica,sans-Serif" font-size="10.00">cppgc::internal::IsTrace</text>
<text text-anchor="start" x="154" y="-325" font-family="Helvetica,sans-Serif" font-size="10.00">MethodConst&lt; T, void_t</text>
<text text-anchor="start" x="154" y="-314" font-family="Helvetica,sans-Serif" font-size="10.00">&lt; decltype(std::declval</text>
<text text-anchor="start" x="154" y="-303" font-family="Helvetica,sans-Serif" font-size="10.00">&lt; const T &gt;().Trace(std</text>
<text text-anchor="middle" x="210" y="-292" font-family="Helvetica,sans-Serif" font-size="10.00">::declval&lt; Visitor * &gt;()))&gt; &gt;</text>
</a>
</g>
</g>
<!-- Node327&#45;&gt;Node331 -->
<g id="edge4" class="edge">
<title>Node327&#45;&gt;Node331</title>
<path fill="none" stroke="midnightblue" d="M84.14,-288.02C103.12,-292.35 125.4,-297.43 145.84,-302.1"/>
<polygon fill="midnightblue" stroke="midnightblue" points="84.79,-284.58 74.26,-285.77 83.24,-291.41 84.79,-284.58"/>
</g>
<!-- Node332 -->
<g id="node6" class="node">
<title>Node332</title>
<g id="a_node6"><a xlink:href="structcppgc_1_1internal_1_1IsTraceable_3_01T_00_01void__t_3_01decltype_07std_1_1declval_3_01T_0168466c9ac6c89dfb7a8449cb1b8ecb7f.html" target="_top" xlink:title=" ">
<polygon fill="white" stroke="black" points="143,-213.5 143,-265.5 277,-265.5 277,-213.5 143,-213.5"/>
<text text-anchor="start" x="151" y="-253.5" font-family="Helvetica,sans-Serif" font-size="10.00">cppgc::internal::IsTraceable</text>
<text text-anchor="start" x="151" y="-242.5" font-family="Helvetica,sans-Serif" font-size="10.00">&lt; T, void_t&lt; decltype(std</text>
<text text-anchor="start" x="151" y="-231.5" font-family="Helvetica,sans-Serif" font-size="10.00">::declval&lt; T &gt;().Trace(std</text>
<text text-anchor="middle" x="210" y="-220.5" font-family="Helvetica,sans-Serif" font-size="10.00">::declval&lt; Visitor * &gt;()))&gt; &gt;</text>
</a>
</g>
</g>
<!-- Node327&#45;&gt;Node332 -->
<g id="edge5" class="edge">
<title>Node327&#45;&gt;Node332</title>
<path fill="none" stroke="midnightblue" d="M84.21,-267.23C102.22,-263.23 123.2,-258.57 142.76,-254.22"/>
<polygon fill="midnightblue" stroke="midnightblue" points="83.27,-263.86 74.26,-269.44 84.79,-270.69 83.27,-263.86"/>
</g>
<!-- Node333 -->
<g id="node7" class="node">
<title>Node333</title>
<g id="a_node7"><a xlink:href="structcppgc_1_1internal_1_1IsWeak_3_01BasicCrossThreadPersistent_3_01T_00_01internal_1_1WeakCros6251904fc881150f13e418ea64da9a91.html" target="_top" xlink:title=" ">
<polygon fill="white" stroke="black" points="110,-142.5 110,-194.5 310,-194.5 310,-142.5 110,-142.5"/>
<text text-anchor="start" x="118" y="-182.5" font-family="Helvetica,sans-Serif" font-size="10.00">cppgc::internal::IsWeak</text>
<text text-anchor="start" x="118" y="-171.5" font-family="Helvetica,sans-Serif" font-size="10.00">&lt; BasicCrossThreadPersistent</text>
<text text-anchor="start" x="118" y="-160.5" font-family="Helvetica,sans-Serif" font-size="10.00">&lt; T, internal::WeakCrossThreadPersistent</text>
<text text-anchor="middle" x="210" y="-149.5" font-family="Helvetica,sans-Serif" font-size="10.00">Policy, LocationPolicy, CheckingPolicy &gt; &gt;</text>
</a>
</g>
</g>
<!-- Node327&#45;&gt;Node333 -->
<g id="edge6" class="edge">
<title>Node327&#45;&gt;Node333</title>
<path fill="none" stroke="midnightblue" d="M51.87,-259.41C65.21,-243.1 86.74,-219.43 110,-204.5 115.62,-200.89 121.65,-197.59 127.85,-194.56"/>
<polygon fill="midnightblue" stroke="midnightblue" points="48.83,-257.62 45.34,-267.62 54.31,-261.98 48.83,-257.62"/>
</g>
<!-- Node334 -->
<g id="node8" class="node">
<title>Node334</title>
<g id="a_node8"><a xlink:href="structcppgc_1_1internal_1_1IsWeak_3_01BasicPersistent_3_01T_00_01internal_1_1WeakPersistentPolica0137f7022c128522e140d084b881692.html" target="_top" xlink:title=" ">
<polygon fill="white" stroke="black" points="124.5,-71.5 124.5,-123.5 295.5,-123.5 295.5,-71.5 124.5,-71.5"/>
<text text-anchor="start" x="132.5" y="-111.5" font-family="Helvetica,sans-Serif" font-size="10.00">cppgc::internal::IsWeak</text>
<text text-anchor="start" x="132.5" y="-100.5" font-family="Helvetica,sans-Serif" font-size="10.00">&lt; BasicPersistent&lt; T,</text>
<text text-anchor="start" x="132.5" y="-89.5" font-family="Helvetica,sans-Serif" font-size="10.00"> internal::WeakPersistentPolicy,</text>
<text text-anchor="middle" x="210" y="-78.5" font-family="Helvetica,sans-Serif" font-size="10.00"> LocationPolicy, CheckingPolicy &gt; &gt;</text>
</a>
</g>
</g>
<!-- Node327&#45;&gt;Node334 -->
<g id="edge7" class="edge">
<title>Node327&#45;&gt;Node334</title>
<path fill="none" stroke="midnightblue" d="M42.72,-258.04C51.13,-227.37 71.53,-167.79 110,-133.5 114.37,-129.61 119.19,-126.12 124.29,-123.01"/>
<polygon fill="midnightblue" stroke="midnightblue" points="39.28,-257.37 40.16,-267.92 46.06,-259.12 39.28,-257.37"/>
</g>
<!-- Node335 -->
<g id="node9" class="node">
<title>Node335</title>
<g id="a_node9"><a xlink:href="structcppgc_1_1internal_1_1IsWeak_3_01internal_1_1BasicMember_3_01T_00_01WeakMemberTag_00_01Writdeb64fe096629f63a5b8562f6a14743b.html" target="_top" xlink:title=" ">
<polygon fill="white" stroke="black" points="125.5,-0.5 125.5,-52.5 294.5,-52.5 294.5,-0.5 125.5,-0.5"/>
<text text-anchor="start" x="133.5" y="-40.5" font-family="Helvetica,sans-Serif" font-size="10.00">cppgc::internal::IsWeak</text>
<text text-anchor="start" x="133.5" y="-29.5" font-family="Helvetica,sans-Serif" font-size="10.00">&lt; internal::BasicMember</text>
<text text-anchor="start" x="133.5" y="-18.5" font-family="Helvetica,sans-Serif" font-size="10.00">&lt; T, WeakMemberTag, WriteBarrier</text>
<text text-anchor="middle" x="210" y="-7.5" font-family="Helvetica,sans-Serif" font-size="10.00">Policy, CheckingPolicy &gt; &gt;</text>
</a>
</g>
</g>
<!-- Node327&#45;&gt;Node335 -->
<g id="edge8" class="edge">
<title>Node327&#45;&gt;Node335</title>
<path fill="none" stroke="midnightblue" d="M39.06,-257.63C42.35,-215.85 55.75,-118.16 110,-62.5 114.47,-57.92 119.56,-53.91 125.03,-50.42"/>
<polygon fill="midnightblue" stroke="midnightblue" points="35.55,-257.64 38.38,-267.85 42.54,-258.11 35.55,-257.64"/>
</g>
</g>
</svg>
