<?xml version="1.0" encoding="UTF-8" standalone="no"?>
<!DOCTYPE svg PUBLIC "-//W3C//DTD SVG 1.1//EN"
 "http://www.w3.org/Graphics/SVG/1.1/DTD/svg11.dtd">
<!-- Generated by graphviz version 2.49.3 (20211027.1534)
 -->
<!-- Title: include/v8&#45;platform.h Pages: 1 -->
<svg width="659pt" height="419pt"
 viewBox="0.00 0.00 658.50 419.00" xmlns="http://www.w3.org/2000/svg" xmlns:xlink="http://www.w3.org/1999/xlink">
<g id="graph0" class="graph" transform="scale(1 1) rotate(0) translate(4 415)">
<title>include/v8&#45;platform.h</title>
<polygon fill="white" stroke="transparent" points="-4,4 -4,-415 654.5,-415 654.5,4 -4,4"/>
<!-- Node1 -->
<g id="node1" class="node">
<title>Node1</title>
<g id="a_node1"><a xlink:title=" ">
<polygon fill="#bfbfbf" stroke="black" points="492.5,-391.5 492.5,-410.5 599.5,-410.5 599.5,-391.5 492.5,-391.5"/>
<text text-anchor="middle" x="546" y="-398.5" font-family="Helvetica,sans-Serif" font-size="10.00">include/v8&#45;platform.h</text>
</a>
</g>
</g>
<!-- Node2 -->
<g id="node2" class="node">
<title>Node2</title>
<g id="a_node2"><a xlink:href="platform_8h.html" target="_top" xlink:title=" ">
<polygon fill="white" stroke="black" points="358,-330 358,-349 480,-349 480,-330 358,-330"/>
<text text-anchor="middle" x="419" y="-337" font-family="Helvetica,sans-Serif" font-size="10.00">include/cppgc/platform.h</text>
</a>
</g>
</g>
<!-- Node1&#45;&gt;Node2 -->
<g id="edge1" class="edge">
<title>Node1&#45;&gt;Node2</title>
<path fill="none" stroke="midnightblue" d="M518.62,-387.17C493.98,-375.63 458.46,-358.99 437.16,-349.01"/>
<polygon fill="midnightblue" stroke="midnightblue" points="517.26,-390.4 527.8,-391.48 520.23,-384.06 517.26,-390.4"/>
</g>
<!-- Node15 -->
<g id="node15" class="node">
<title>Node15</title>
<g id="a_node15"><a xlink:href="libplatform_8h.html" target="_top" xlink:title=" ">
<polygon fill="white" stroke="black" points="555.5,-257.5 555.5,-287.5 650.5,-287.5 650.5,-257.5 555.5,-257.5"/>
<text text-anchor="start" x="563.5" y="-275.5" font-family="Helvetica,sans-Serif" font-size="10.00">include/libplatform</text>
<text text-anchor="middle" x="603" y="-264.5" font-family="Helvetica,sans-Serif" font-size="10.00">/libplatform.h</text>
</a>
</g>
</g>
<!-- Node1&#45;&gt;Node15 -->
<g id="edge18" class="edge">
<title>Node1&#45;&gt;Node15</title>
<path fill="none" stroke="midnightblue" d="M572.67,-386.22C584.25,-378.7 596.6,-368.2 603,-355 613.49,-333.35 610.05,-304.52 606.55,-287.58"/>
<polygon fill="midnightblue" stroke="midnightblue" points="570.84,-383.23 564.08,-391.39 574.45,-389.23 570.84,-383.23"/>
</g>
<!-- Node16 -->
<g id="node16" class="node">
<title>Node16</title>
<g id="a_node16"><a xlink:href="v8-tracing_8h.html" target="_top" xlink:title=" ">
<polygon fill="white" stroke="black" points="498.5,-324.5 498.5,-354.5 593.5,-354.5 593.5,-324.5 498.5,-324.5"/>
<text text-anchor="start" x="506.5" y="-342.5" font-family="Helvetica,sans-Serif" font-size="10.00">include/libplatform</text>
<text text-anchor="middle" x="546" y="-331.5" font-family="Helvetica,sans-Serif" font-size="10.00">/v8&#45;tracing.h</text>
</a>
</g>
</g>
<!-- Node1&#45;&gt;Node16 -->
<g id="edge20" class="edge">
<title>Node1&#45;&gt;Node16</title>
<path fill="none" stroke="midnightblue" d="M546,-381.23C546,-372.59 546,-362.5 546,-354.52"/>
<polygon fill="midnightblue" stroke="midnightblue" points="542.5,-381.48 546,-391.48 549.5,-381.48 542.5,-381.48"/>
</g>
<!-- Node3 -->
<g id="node3" class="node">
<title>Node3</title>
<g id="a_node3"><a xlink:href="default-platform_8h.html" target="_top" xlink:title=" ">
<polygon fill="white" stroke="black" points="510.5,-190.5 510.5,-220.5 619.5,-220.5 619.5,-190.5 510.5,-190.5"/>
<text text-anchor="start" x="518.5" y="-208.5" font-family="Helvetica,sans-Serif" font-size="10.00">include/cppgc/default</text>
<text text-anchor="middle" x="565" y="-197.5" font-family="Helvetica,sans-Serif" font-size="10.00">&#45;platform.h</text>
</a>
</g>
</g>
<!-- Node2&#45;&gt;Node3 -->
<g id="edge2" class="edge">
<title>Node2&#45;&gt;Node3</title>
<path fill="none" stroke="midnightblue" d="M448.86,-325.71C467.24,-316.88 490.54,-303.88 508,-288 529.97,-268.01 548.15,-238.09 557.71,-220.61"/>
<polygon fill="midnightblue" stroke="midnightblue" points="447.34,-322.55 439.75,-329.94 450.29,-328.9 447.34,-322.55"/>
</g>
<!-- Node4 -->
<g id="node4" class="node">
<title>Node4</title>
<g id="a_node4"><a xlink:href="garbage-collected_8h.html" target="_top" xlink:title=" ">
<polygon fill="white" stroke="black" points="119,-257.5 119,-287.5 233,-287.5 233,-257.5 119,-257.5"/>
<text text-anchor="start" x="127" y="-275.5" font-family="Helvetica,sans-Serif" font-size="10.00">include/cppgc/garbage</text>
<text text-anchor="middle" x="176" y="-264.5" font-family="Helvetica,sans-Serif" font-size="10.00">&#45;collected.h</text>
</a>
</g>
</g>
<!-- Node2&#45;&gt;Node4 -->
<g id="edge3" class="edge">
<title>Node2&#45;&gt;Node4</title>
<path fill="none" stroke="midnightblue" d="M377.27,-327.34C336.13,-316.33 273.1,-299.47 228.56,-287.56"/>
<polygon fill="midnightblue" stroke="midnightblue" points="376.42,-330.73 386.98,-329.94 378.23,-323.97 376.42,-330.73"/>
</g>
<!-- Node10 -->
<g id="node10" class="node">
<title>Node10</title>
<g id="a_node10"><a xlink:href="heap_8h.html" target="_top" xlink:title=" ">
<polygon fill="white" stroke="black" points="251,-263 251,-282 359,-282 359,-263 251,-263"/>
<text text-anchor="middle" x="305" y="-270" font-family="Helvetica,sans-Serif" font-size="10.00">include/cppgc/heap.h</text>
</a>
</g>
</g>
<!-- Node2&#45;&gt;Node10 -->
<g id="edge10" class="edge">
<title>Node2&#45;&gt;Node10</title>
<path fill="none" stroke="midnightblue" d="M394.65,-324.62C372.06,-311.74 339.16,-292.98 320.13,-282.13"/>
<polygon fill="midnightblue" stroke="midnightblue" points="393.2,-327.82 403.63,-329.73 396.67,-321.74 393.2,-327.82"/>
</g>
<!-- Node14 -->
<g id="node14" class="node">
<title>Node14</title>
<g id="a_node14"><a xlink:href="caged-heap-local-data_8h.html" target="_top" xlink:title=" ">
<polygon fill="white" stroke="black" points="377,-257.5 377,-287.5 499,-287.5 499,-257.5 377,-257.5"/>
<text text-anchor="start" x="385" y="-275.5" font-family="Helvetica,sans-Serif" font-size="10.00">include/cppgc/internal</text>
<text text-anchor="middle" x="438" y="-264.5" font-family="Helvetica,sans-Serif" font-size="10.00">/caged&#45;heap&#45;local&#45;data.h</text>
</a>
</g>
</g>
<!-- Node2&#45;&gt;Node14 -->
<g id="edge17" class="edge">
<title>Node2&#45;&gt;Node14</title>
<path fill="none" stroke="midnightblue" d="M424.39,-320.06C427.4,-309.75 431.1,-297.1 433.88,-287.59"/>
<polygon fill="midnightblue" stroke="midnightblue" points="421.01,-319.15 421.56,-329.73 427.73,-321.12 421.01,-319.15"/>
</g>
<!-- Node5 -->
<g id="node5" class="node">
<title>Node5</title>
<g id="a_node5"><a xlink:href="allocation_8h.html" target="_top" xlink:title=" ">
<polygon fill="white" stroke="black" points="42,-196 42,-215 170,-215 170,-196 42,-196"/>
<text text-anchor="middle" x="106" y="-203" font-family="Helvetica,sans-Serif" font-size="10.00">include/cppgc/allocation.h</text>
</a>
</g>
</g>
<!-- Node4&#45;&gt;Node5 -->
<g id="edge4" class="edge">
<title>Node4&#45;&gt;Node5</title>
<path fill="none" stroke="midnightblue" d="M153.21,-250.34C140.35,-238.4 124.99,-224.14 115.36,-215.19"/>
<polygon fill="midnightblue" stroke="midnightblue" points="151.1,-253.16 160.81,-257.4 155.86,-248.03 151.1,-253.16"/>
</g>
<!-- Node6 -->
<g id="node6" class="node">
<title>Node6</title>
<g id="a_node6"><a xlink:href="visitor_8h.html" target="_top" xlink:title=" ">
<polygon fill="white" stroke="black" points="141.5,-129 141.5,-148 254.5,-148 254.5,-129 141.5,-129"/>
<text text-anchor="middle" x="198" y="-136" font-family="Helvetica,sans-Serif" font-size="10.00">include/cppgc/visitor.h</text>
</a>
</g>
</g>
<!-- Node4&#45;&gt;Node6 -->
<g id="edge5" class="edge">
<title>Node4&#45;&gt;Node6</title>
<path fill="none" stroke="midnightblue" d="M180.03,-247.32C185.02,-217.38 193.26,-167.91 196.57,-148.1"/>
<polygon fill="midnightblue" stroke="midnightblue" points="176.55,-246.93 178.35,-257.37 183.45,-248.09 176.55,-246.93"/>
</g>
<!-- Node7 -->
<g id="node7" class="node">
<title>Node7</title>
<g id="a_node7"><a xlink:href="cross-thread-persistent_8h.html" target="_top" xlink:title=" ">
<polygon fill="white" stroke="black" points="117,-0.5 117,-30.5 221,-30.5 221,-0.5 117,-0.5"/>
<text text-anchor="start" x="125" y="-18.5" font-family="Helvetica,sans-Serif" font-size="10.00">include/cppgc/cross</text>
<text text-anchor="middle" x="169" y="-7.5" font-family="Helvetica,sans-Serif" font-size="10.00">&#45;thread&#45;persistent.h</text>
</a>
</g>
</g>
<!-- Node6&#45;&gt;Node7 -->
<g id="edge6" class="edge">
<title>Node6&#45;&gt;Node7</title>
<path fill="none" stroke="midnightblue" d="M222.91,-123.37C243.39,-109.81 267.19,-88.3 255,-67 245.45,-50.32 228.02,-38.61 211.33,-30.7"/>
<polygon fill="midnightblue" stroke="midnightblue" points="220.79,-120.57 214.17,-128.84 224.5,-126.5 220.79,-120.57"/>
</g>
<!-- Node8 -->
<g id="node8" class="node">
<title>Node8</title>
<g id="a_node8"><a xlink:href="persistent_8h.html" target="_top" xlink:title=" ">
<polygon fill="white" stroke="black" points="0,-67.5 0,-86.5 130,-86.5 130,-67.5 0,-67.5"/>
<text text-anchor="middle" x="65" y="-74.5" font-family="Helvetica,sans-Serif" font-size="10.00">include/cppgc/persistent.h</text>
</a>
</g>
</g>
<!-- Node6&#45;&gt;Node8 -->
<g id="edge7" class="edge">
<title>Node6&#45;&gt;Node8</title>
<path fill="none" stroke="midnightblue" d="M169.67,-124.83C143.85,-113.28 106.42,-96.53 84.02,-86.51"/>
<polygon fill="midnightblue" stroke="midnightblue" points="168.39,-128.09 178.94,-128.98 171.25,-121.7 168.39,-128.09"/>
</g>
<!-- Node9 -->
<g id="node9" class="node">
<title>Node9</title>
<g id="a_node9"><a xlink:href="v8-cppgc_8h.html" target="_top" xlink:title=" ">
<polygon fill="white" stroke="black" points="148,-67.5 148,-86.5 246,-86.5 246,-67.5 148,-67.5"/>
<text text-anchor="middle" x="197" y="-74.5" font-family="Helvetica,sans-Serif" font-size="10.00">include/v8&#45;cppgc.h</text>
</a>
</g>
</g>
<!-- Node6&#45;&gt;Node9 -->
<g id="edge9" class="edge">
<title>Node6&#45;&gt;Node9</title>
<path fill="none" stroke="midnightblue" d="M197.69,-118.82C197.5,-108 197.28,-94.9 197.14,-86.51"/>
<polygon fill="midnightblue" stroke="midnightblue" points="194.19,-119.04 197.86,-128.98 201.19,-118.92 194.19,-119.04"/>
</g>
<!-- Node8&#45;&gt;Node7 -->
<g id="edge8" class="edge">
<title>Node8&#45;&gt;Node7</title>
<path fill="none" stroke="midnightblue" d="M88.99,-62.28C105.63,-52.75 127.73,-40.11 144.49,-30.52"/>
<polygon fill="midnightblue" stroke="midnightblue" points="86.84,-59.47 79.9,-67.48 90.32,-65.55 86.84,-59.47"/>
</g>
<!-- Node11 -->
<g id="node11" class="node">
<title>Node11</title>
<g id="a_node11"><a xlink:href="prefinalizer-handler_8h.html" target="_top" xlink:title=" ">
<polygon fill="white" stroke="black" points="313.5,-123.5 313.5,-153.5 424.5,-153.5 424.5,-123.5 313.5,-123.5"/>
<text text-anchor="start" x="321.5" y="-141.5" font-family="Helvetica,sans-Serif" font-size="10.00">include/cppgc/internal</text>
<text text-anchor="middle" x="369" y="-130.5" font-family="Helvetica,sans-Serif" font-size="10.00">/prefinalizer&#45;handler.h</text>
</a>
</g>
</g>
<!-- Node10&#45;&gt;Node11 -->
<g id="edge11" class="edge">
<title>Node10&#45;&gt;Node11</title>
<path fill="none" stroke="midnightblue" d="M323.09,-256.05C332.77,-246.82 344.09,-234.33 351,-221 362.33,-199.13 366.55,-170.37 368.11,-153.51"/>
<polygon fill="midnightblue" stroke="midnightblue" points="320.52,-253.66 315.48,-262.97 325.23,-258.83 320.52,-253.66"/>
</g>
<!-- Node13 -->
<g id="node13" class="node">
<title>Node13</title>
<g id="a_node13"><a xlink:href="liveness-broker_8h.html" target="_top" xlink:title=" ">
<polygon fill="white" stroke="black" points="226,-190.5 226,-220.5 342,-220.5 342,-190.5 226,-190.5"/>
<text text-anchor="start" x="234" y="-208.5" font-family="Helvetica,sans-Serif" font-size="10.00">include/cppgc/liveness</text>
<text text-anchor="middle" x="284" y="-197.5" font-family="Helvetica,sans-Serif" font-size="10.00">&#45;broker.h</text>
</a>
</g>
</g>
<!-- Node10&#45;&gt;Node13 -->
<g id="edge13" class="edge">
<title>Node10&#45;&gt;Node13</title>
<path fill="none" stroke="midnightblue" d="M299.04,-253.06C295.71,-242.75 291.63,-230.1 288.55,-220.59"/>
<polygon fill="midnightblue" stroke="midnightblue" points="295.76,-254.29 302.17,-262.73 302.42,-252.14 295.76,-254.29"/>
</g>
<!-- Node12 -->
<g id="node12" class="node">
<title>Node12</title>
<g id="a_node12"><a xlink:href="prefinalizer_8h.html" target="_top" xlink:title=" ">
<polygon fill="white" stroke="black" points="302.5,-67.5 302.5,-86.5 435.5,-86.5 435.5,-67.5 302.5,-67.5"/>
<text text-anchor="middle" x="369" y="-74.5" font-family="Helvetica,sans-Serif" font-size="10.00">include/cppgc/prefinalizer.h</text>
</a>
</g>
</g>
<!-- Node11&#45;&gt;Node12 -->
<g id="edge12" class="edge">
<title>Node11&#45;&gt;Node12</title>
<path fill="none" stroke="midnightblue" d="M369,-113.29C369,-103.86 369,-93.65 369,-86.66"/>
<polygon fill="midnightblue" stroke="midnightblue" points="365.5,-113.4 369,-123.4 372.5,-113.4 365.5,-113.4"/>
</g>
<!-- Node13&#45;&gt;Node6 -->
<g id="edge16" class="edge">
<title>Node13&#45;&gt;Node6</title>
<path fill="none" stroke="midnightblue" d="M257.33,-184.34C241.28,-172.21 221.67,-157.39 209.5,-148.19"/>
<polygon fill="midnightblue" stroke="midnightblue" points="255.25,-187.16 265.34,-190.4 259.47,-181.57 255.25,-187.16"/>
</g>
<!-- Node13&#45;&gt;Node11 -->
<g id="edge14" class="edge">
<title>Node13&#45;&gt;Node11</title>
<path fill="none" stroke="midnightblue" d="M310.59,-184.17C323.59,-174.23 338.9,-162.51 350.59,-153.58"/>
<polygon fill="midnightblue" stroke="midnightblue" points="308.26,-181.54 302.44,-190.4 312.51,-187.1 308.26,-181.54"/>
</g>
<!-- Node13&#45;&gt;Node12 -->
<g id="edge15" class="edge">
<title>Node13&#45;&gt;Node12</title>
<path fill="none" stroke="midnightblue" d="M285.85,-179.93C288.15,-162.71 293.34,-139.86 305,-123 316.36,-106.58 335.77,-94.18 350.25,-86.6"/>
<polygon fill="midnightblue" stroke="midnightblue" points="282.32,-179.99 284.71,-190.31 289.28,-180.75 282.32,-179.99"/>
</g>
<!-- Node15&#45;&gt;Node3 -->
<g id="edge19" class="edge">
<title>Node15&#45;&gt;Node3</title>
<path fill="none" stroke="midnightblue" d="M589.6,-248.58C584.14,-239.24 578.01,-228.75 573.23,-220.58"/>
<polygon fill="midnightblue" stroke="midnightblue" points="586.69,-250.53 594.75,-257.4 592.73,-247 586.69,-250.53"/>
</g>
<!-- Node16&#45;&gt;Node15 -->
<g id="edge21" class="edge">
<title>Node16&#45;&gt;Node15</title>
<path fill="none" stroke="midnightblue" d="M565.09,-316.74C573.52,-307.12 583.19,-296.09 590.66,-287.58"/>
<polygon fill="midnightblue" stroke="midnightblue" points="562.33,-314.57 558.37,-324.4 567.59,-319.18 562.33,-314.57"/>
</g>
</g>
</svg>
