<?xml version="1.0" encoding="UTF-8" standalone="no"?>
<!DOCTYPE svg PUBLIC "-//W3C//DTD SVG 1.1//EN"
 "http://www.w3.org/Graphics/SVG/1.1/DTD/svg11.dtd">
<!-- Generated by graphviz version 2.49.3 (20211027.1534)
 -->
<!-- Title: cppgc::internal::WriteBarrier::CheckParams Pages: 1 -->
<svg width="529pt" height="235pt"
 viewBox="0.00 0.00 529.00 235.00" xmlns="http://www.w3.org/2000/svg" xmlns:xlink="http://www.w3.org/1999/xlink">
<g id="graph0" class="graph" transform="scale(1 1) rotate(0) translate(4 231)">
<title>cppgc::internal::WriteBarrier::CheckParams</title>
<polygon fill="white" stroke="transparent" points="-4,4 -4,-231 525,-231 525,4 -4,4"/>
<!-- Node1 -->
<g id="node1" class="node">
<title>Node1</title>
<g id="a_node1"><a xlink:title=" ">
<polygon fill="#bfbfbf" stroke="black" points="387,-49.5 387,-79.5 521,-79.5 521,-49.5 387,-49.5"/>
<text text-anchor="start" x="395" y="-67.5" font-family="Helvetica,sans-Serif" font-size="10.00">cppgc::internal::WriteBarrier</text>
<text text-anchor="middle" x="454" y="-56.5" font-family="Helvetica,sans-Serif" font-size="10.00">::CheckParams</text>
</a>
</g>
</g>
<!-- Node2 -->
<g id="node2" class="node">
<title>Node2</title>
<g id="a_node2"><a xlink:href="classcppgc_1_1internal_1_1WriteBarrier.html#ad8bbc0c512828b14d55c18a6735386e4" target="_top" xlink:title=" ">
<polygon fill="white" stroke="black" points="211.5,-122.5 211.5,-152.5 345.5,-152.5 345.5,-122.5 211.5,-122.5"/>
<text text-anchor="start" x="219.5" y="-140.5" font-family="Helvetica,sans-Serif" font-size="10.00">cppgc::internal::WriteBarrier</text>
<text text-anchor="middle" x="278.5" y="-129.5" font-family="Helvetica,sans-Serif" font-size="10.00">::DijkstraMarkingBarrier</text>
</a>
</g>
</g>
<!-- Node1&#45;&gt;Node2 -->
<g id="edge1" class="edge">
<title>Node1&#45;&gt;Node2</title>
<path fill="none" stroke="midnightblue" d="M407.62,-83.59C378.85,-95.7 342.14,-111.14 315.4,-122.39"/>
<polygon fill="midnightblue" stroke="midnightblue" points="409.19,-86.73 417.05,-79.63 406.48,-80.28 409.19,-86.73"/>
</g>
<!-- Node6 -->
<g id="node6" class="node">
<title>Node6</title>
<g id="a_node6"><a xlink:href="classcppgc_1_1internal_1_1WriteBarrier.html#a67ea372a87c6779a699f481332822301" target="_top" xlink:title=" ">
<polygon fill="white" stroke="black" points="206,-49.5 206,-79.5 351,-79.5 351,-49.5 206,-49.5"/>
<text text-anchor="start" x="214" y="-67.5" font-family="Helvetica,sans-Serif" font-size="10.00">cppgc::internal::WriteBarrier</text>
<text text-anchor="middle" x="278.5" y="-56.5" font-family="Helvetica,sans-Serif" font-size="10.00">::DijkstraMarkingBarrierRange</text>
</a>
</g>
</g>
<!-- Node1&#45;&gt;Node6 -->
<g id="edge5" class="edge">
<title>Node1&#45;&gt;Node6</title>
<path fill="none" stroke="midnightblue" d="M376.67,-64.5C368.2,-64.5 359.6,-64.5 351.19,-64.5"/>
<polygon fill="midnightblue" stroke="midnightblue" points="376.91,-68 386.91,-64.5 376.91,-61 376.91,-68"/>
</g>
<!-- Node8 -->
<g id="node8" class="node">
<title>Node8</title>
<g id="a_node8"><a xlink:href="classcppgc_1_1internal_1_1WriteBarrier.html#ad829efae0eddd5cb9483574112a5da5b" target="_top" xlink:title=" ">
<polygon fill="white" stroke="black" points="211.5,-0.5 211.5,-30.5 345.5,-30.5 345.5,-0.5 211.5,-0.5"/>
<text text-anchor="start" x="219.5" y="-18.5" font-family="Helvetica,sans-Serif" font-size="10.00">cppgc::internal::WriteBarrier</text>
<text text-anchor="middle" x="278.5" y="-7.5" font-family="Helvetica,sans-Serif" font-size="10.00">::SteeleMarkingBarrier</text>
</a>
</g>
</g>
<!-- Node1&#45;&gt;Node8 -->
<g id="edge7" class="edge">
<title>Node1&#45;&gt;Node8</title>
<path fill="none" stroke="midnightblue" d="M389.9,-46.68C371.17,-41.39 350.84,-35.65 332.79,-30.55"/>
<polygon fill="midnightblue" stroke="midnightblue" points="388.95,-50.05 399.53,-49.4 390.86,-43.31 388.95,-50.05"/>
</g>
<!-- Node3 -->
<g id="node3" class="node">
<title>Node3</title>
<g id="a_node3"><a xlink:href="structcppgc_1_1internal_1_1DijkstraWriteBarrierPolicy.html#ae117911156c06e2ec91d322320399ffd" target="_top" xlink:title=" ">
<polygon fill="white" stroke="black" points="0,-196.5 0,-226.5 170,-226.5 170,-196.5 0,-196.5"/>
<text text-anchor="start" x="8" y="-214.5" font-family="Helvetica,sans-Serif" font-size="10.00">cppgc::internal::Dijkstra</text>
<text text-anchor="middle" x="85" y="-203.5" font-family="Helvetica,sans-Serif" font-size="10.00">WriteBarrierPolicy::AssigningBarrier</text>
</a>
</g>
</g>
<!-- Node2&#45;&gt;Node3 -->
<g id="edge2" class="edge">
<title>Node2&#45;&gt;Node3</title>
<path fill="none" stroke="midnightblue" d="M239.18,-157.11C218.93,-167.02 193.48,-178.75 170,-187.5 161.47,-190.68 152.33,-193.69 143.33,-196.43"/>
<polygon fill="midnightblue" stroke="midnightblue" points="240.96,-160.14 248.37,-152.57 237.86,-153.86 240.96,-160.14"/>
</g>
<!-- Node4 -->
<g id="node4" class="node">
<title>Node4</title>
<g id="a_node4"><a xlink:href="classv8_1_1JSHeapConsistency.html#a4eb89004242032f142645be5c4581a4a" target="_top" xlink:title=" ">
<polygon fill="white" stroke="black" points="25,-147.5 25,-177.5 145,-177.5 145,-147.5 25,-147.5"/>
<text text-anchor="start" x="33" y="-165.5" font-family="Helvetica,sans-Serif" font-size="10.00">v8::JSHeapConsistency</text>
<text text-anchor="middle" x="85" y="-154.5" font-family="Helvetica,sans-Serif" font-size="10.00">::DijkstraMarkingBarrier</text>
</a>
</g>
</g>
<!-- Node2&#45;&gt;Node4 -->
<g id="edge3" class="edge">
<title>Node2&#45;&gt;Node4</title>
<path fill="none" stroke="midnightblue" d="M201.36,-147.44C182.65,-149.88 162.9,-152.46 145.13,-154.78"/>
<polygon fill="midnightblue" stroke="midnightblue" points="201.87,-150.9 211.33,-146.14 200.96,-143.96 201.87,-150.9"/>
</g>
<!-- Node5 -->
<g id="node5" class="node">
<title>Node5</title>
<g id="a_node5"><a xlink:href="classcppgc_1_1subtle_1_1HeapConsistency.html#add539377031d7bab7f9f29f3667bfc57" target="_top" xlink:title=" ">
<polygon fill="white" stroke="black" points="7.5,-98.5 7.5,-128.5 162.5,-128.5 162.5,-98.5 7.5,-98.5"/>
<text text-anchor="start" x="15.5" y="-116.5" font-family="Helvetica,sans-Serif" font-size="10.00">cppgc::subtle::HeapConsistency</text>
<text text-anchor="middle" x="85" y="-105.5" font-family="Helvetica,sans-Serif" font-size="10.00">::DijkstraWriteBarrier</text>
</a>
</g>
</g>
<!-- Node2&#45;&gt;Node5 -->
<g id="edge4" class="edge">
<title>Node2&#45;&gt;Node5</title>
<path fill="none" stroke="midnightblue" d="M201.27,-127.95C188.58,-126.36 175.41,-124.71 162.7,-123.11"/>
<polygon fill="midnightblue" stroke="midnightblue" points="200.97,-131.44 211.33,-129.21 201.84,-124.49 200.97,-131.44"/>
</g>
<!-- Node7 -->
<g id="node7" class="node">
<title>Node7</title>
<g id="a_node7"><a xlink:href="classcppgc_1_1subtle_1_1HeapConsistency.html#a5589a6ba76f60231996108599b2e049b" target="_top" xlink:title=" ">
<polygon fill="white" stroke="black" points="7.5,-49.5 7.5,-79.5 162.5,-79.5 162.5,-49.5 7.5,-49.5"/>
<text text-anchor="start" x="15.5" y="-67.5" font-family="Helvetica,sans-Serif" font-size="10.00">cppgc::subtle::HeapConsistency</text>
<text text-anchor="middle" x="85" y="-56.5" font-family="Helvetica,sans-Serif" font-size="10.00">::DijkstraWriteBarrierRange</text>
</a>
</g>
</g>
<!-- Node6&#45;&gt;Node7 -->
<g id="edge6" class="edge">
<title>Node6&#45;&gt;Node7</title>
<path fill="none" stroke="midnightblue" d="M195.88,-64.5C184.85,-64.5 173.56,-64.5 162.62,-64.5"/>
<polygon fill="midnightblue" stroke="midnightblue" points="195.92,-68 205.92,-64.5 195.92,-61 195.92,-68"/>
</g>
<!-- Node9 -->
<g id="node9" class="node">
<title>Node9</title>
<g id="a_node9"><a xlink:href="classcppgc_1_1subtle_1_1HeapConsistency.html#af93d2b3219e211e78bd1ea7eefb02f99" target="_top" xlink:title=" ">
<polygon fill="white" stroke="black" points="7.5,-0.5 7.5,-30.5 162.5,-30.5 162.5,-0.5 7.5,-0.5"/>
<text text-anchor="start" x="15.5" y="-18.5" font-family="Helvetica,sans-Serif" font-size="10.00">cppgc::subtle::HeapConsistency</text>
<text text-anchor="middle" x="85" y="-7.5" font-family="Helvetica,sans-Serif" font-size="10.00">::SteeleWriteBarrier</text>
</a>
</g>
</g>
<!-- Node8&#45;&gt;Node9 -->
<g id="edge8" class="edge">
<title>Node8&#45;&gt;Node9</title>
<path fill="none" stroke="midnightblue" d="M201.27,-15.5C188.58,-15.5 175.41,-15.5 162.7,-15.5"/>
<polygon fill="midnightblue" stroke="midnightblue" points="201.33,-19 211.33,-15.5 201.33,-12 201.33,-19"/>
</g>
</g>
</svg>
