<?xml version="1.0" encoding="UTF-8" standalone="no"?>
<!DOCTYPE svg PUBLIC "-//W3C//DTD SVG 1.1//EN"
 "http://www.w3.org/Graphics/SVG/1.1/DTD/svg11.dtd">
<!-- Generated by graphviz version 2.49.3 (20211027.1534)
 -->
<!-- Title: cppgc::internal::MemberBase Pages: 1 -->
<svg width="369pt" height="50pt"
 viewBox="0.00 0.00 369.00 50.00" xmlns="http://www.w3.org/2000/svg" xmlns:xlink="http://www.w3.org/1999/xlink">
<g id="graph0" class="graph" transform="scale(1 1) rotate(0) translate(4 46)">
<title>cppgc::internal::MemberBase</title>
<polygon fill="white" stroke="transparent" points="-4,4 -4,-46 365,-46 365,4 -4,4"/>
<!-- Node1 -->
<g id="node1" class="node">
<title>Node1</title>
<g id="a_node1"><a xlink:title=" ">
<polygon fill="#bfbfbf" stroke="black" points="0,-11.5 0,-30.5 141,-30.5 141,-11.5 0,-11.5"/>
<text text-anchor="middle" x="70.5" y="-18.5" font-family="Helvetica,sans-Serif" font-size="10.00">cppgc::internal::MemberBase</text>
</a>
</g>
</g>
<!-- Node2 -->
<g id="node2" class="node">
<title>Node2</title>
<g id="a_node2"><a xlink:href="classcppgc_1_1internal_1_1BasicMember.html" target="_top" xlink:title=" ">
<polygon fill="white" stroke="black" points="177,-0.5 177,-41.5 361,-41.5 361,-0.5 177,-0.5"/>
<text text-anchor="start" x="185" y="-29.5" font-family="Helvetica,sans-Serif" font-size="10.00">cppgc::internal::BasicMember</text>
<text text-anchor="start" x="185" y="-18.5" font-family="Helvetica,sans-Serif" font-size="10.00">&lt; T, WeaknessTag, WriteBarrierPolicy,</text>
<text text-anchor="middle" x="269" y="-7.5" font-family="Helvetica,sans-Serif" font-size="10.00"> CheckingPolicy &gt;</text>
</a>
</g>
</g>
<!-- Node1&#45;&gt;Node2 -->
<g id="edge1" class="edge">
<title>Node1&#45;&gt;Node2</title>
<path fill="none" stroke="#8b1a1a" d="M151.24,-21C159.68,-21 168.3,-21 176.86,-21"/>
<polygon fill="#8b1a1a" stroke="#8b1a1a" points="151.06,-17.5 141.06,-21 151.06,-24.5 151.06,-17.5"/>
</g>
</g>
</svg>
