<?xml version="1.0" encoding="UTF-8" standalone="no"?>
<!DOCTYPE svg PUBLIC "-//W3C//DTD SVG 1.1//EN"
 "http://www.w3.org/Graphics/SVG/1.1/DTD/svg11.dtd">
<!-- Generated by graphviz version 2.49.3 (20211027.1534)
 -->
<!-- Title: include/cppgc/heap&#45;consistency.h Pages: 1 -->
<svg width="1173pt" height="285pt"
 viewBox="0.00 0.00 1172.62 285.00" xmlns="http://www.w3.org/2000/svg" xmlns:xlink="http://www.w3.org/1999/xlink">
<g id="graph0" class="graph" transform="scale(1 1) rotate(0) translate(4 281)">
<title>include/cppgc/heap&#45;consistency.h</title>
<polygon fill="white" stroke="transparent" points="-4,4 -4,-281 1168.62,-281 1168.62,4 -4,4"/>
<!-- Node1 -->
<g id="node1" class="node">
<title>Node1</title>
<g id="a_node1"><a xlink:title=" ">
<polygon fill="#bfbfbf" stroke="black" points="840,-246.5 840,-276.5 941,-276.5 941,-246.5 840,-246.5"/>
<text text-anchor="start" x="848" y="-264.5" font-family="Helvetica,sans-Serif" font-size="10.00">include/cppgc/heap</text>
<text text-anchor="middle" x="890.5" y="-253.5" font-family="Helvetica,sans-Serif" font-size="10.00">&#45;consistency.h</text>
</a>
</g>
</g>
<!-- Node2 -->
<g id="node2" class="node">
<title>Node2</title>
<g id="a_node2"><a xlink:title=" ">
<polygon fill="white" stroke="#bfbfbf" points="942,-0.5 942,-19.5 991,-19.5 991,-0.5 942,-0.5"/>
<text text-anchor="middle" x="966.5" y="-7.5" font-family="Helvetica,sans-Serif" font-size="10.00">cstddef</text>
</a>
</g>
</g>
<!-- Node1&#45;&gt;Node2 -->
<g id="edge1" class="edge">
<title>Node1&#45;&gt;Node2</title>
<path fill="none" stroke="midnightblue" d="M902.72,-246.32C920.29,-225.22 952.55,-183.63 970.5,-143 986.39,-107.04 994.66,-94.46 986.5,-56 984.5,-46.59 980.4,-36.76 976.43,-28.7"/>
<polygon fill="midnightblue" stroke="midnightblue" points="979.39,-26.81 971.63,-19.59 973.19,-30.07 979.39,-26.81"/>
</g>
<!-- Node3 -->
<g id="node3" class="node">
<title>Node3</title>
<g id="a_node3"><a xlink:href="write-barrier_8h.html" target="_top" xlink:title=" ">
<polygon fill="white" stroke="black" points="560,-179.5 560,-209.5 661,-209.5 661,-179.5 560,-179.5"/>
<text text-anchor="start" x="568" y="-197.5" font-family="Helvetica,sans-Serif" font-size="10.00">cppgc/internal/write</text>
<text text-anchor="middle" x="610.5" y="-186.5" font-family="Helvetica,sans-Serif" font-size="10.00">&#45;barrier.h</text>
</a>
</g>
</g>
<!-- Node1&#45;&gt;Node3 -->
<g id="edge2" class="edge">
<title>Node1&#45;&gt;Node3</title>
<path fill="none" stroke="midnightblue" d="M839.79,-248.73C792.37,-237.72 721.48,-221.26 671.09,-209.57"/>
<polygon fill="midnightblue" stroke="midnightblue" points="671.83,-206.15 661.3,-207.29 670.25,-212.96 671.83,-206.15"/>
</g>
<!-- Node6 -->
<g id="node6" class="node">
<title>Node6</title>
<g id="a_node6"><a xlink:href="v8config_8h.html" target="_top" xlink:title=" ">
<polygon fill="white" stroke="black" points="436.5,-0.5 436.5,-19.5 496.5,-19.5 496.5,-0.5 436.5,-0.5"/>
<text text-anchor="middle" x="466.5" y="-7.5" font-family="Helvetica,sans-Serif" font-size="10.00">v8config.h</text>
</a>
</g>
</g>
<!-- Node1&#45;&gt;Node6 -->
<g id="edge36" class="edge">
<title>Node1&#45;&gt;Node6</title>
<path fill="none" stroke="midnightblue" d="M839.63,-257.87C715.29,-250.23 401.85,-223.22 343.5,-143 320.75,-111.73 321.35,-87.69 343.5,-56 362.06,-29.44 398.07,-18.51 426.35,-14.03"/>
<polygon fill="midnightblue" stroke="midnightblue" points="426.94,-17.48 436.38,-12.66 425.99,-10.55 426.94,-17.48"/>
</g>
<!-- Node18 -->
<g id="node18" class="node">
<title>Node18</title>
<g id="a_node18"><a xlink:href="trace-trait_8h.html" target="_top" xlink:title=" ">
<polygon fill="white" stroke="black" points="843,-118 843,-137 938,-137 938,-118 843,-118"/>
<text text-anchor="middle" x="890.5" y="-125" font-family="Helvetica,sans-Serif" font-size="10.00">cppgc/trace&#45;trait.h</text>
</a>
</g>
</g>
<!-- Node1&#45;&gt;Node18 -->
<g id="edge35" class="edge">
<title>Node1&#45;&gt;Node18</title>
<path fill="none" stroke="midnightblue" d="M890.5,-246.37C890.5,-222.5 890.5,-174.18 890.5,-147.41"/>
<polygon fill="midnightblue" stroke="midnightblue" points="894,-147.1 890.5,-137.1 887,-147.1 894,-147.1"/>
</g>
<!-- Node21 -->
<g id="node21" class="node">
<title>Node21</title>
<g id="a_node21"><a xlink:href="macros_8h.html" target="_top" xlink:title=" ">
<polygon fill="white" stroke="black" points="1048.5,-185 1048.5,-204 1134.5,-204 1134.5,-185 1048.5,-185"/>
<text text-anchor="middle" x="1091.5" y="-192" font-family="Helvetica,sans-Serif" font-size="10.00">cppgc/macros.h</text>
</a>
</g>
</g>
<!-- Node1&#45;&gt;Node21 -->
<g id="edge32" class="edge">
<title>Node1&#45;&gt;Node21</title>
<path fill="none" stroke="midnightblue" d="M934.11,-246.4C970.47,-234.64 1021.65,-218.09 1055.66,-207.09"/>
<polygon fill="midnightblue" stroke="midnightblue" points="1056.76,-210.41 1065.19,-204.01 1054.6,-203.75 1056.76,-210.41"/>
</g>
<!-- Node3&#45;&gt;Node2 -->
<g id="edge3" class="edge">
<title>Node3&#45;&gt;Node2</title>
<path fill="none" stroke="midnightblue" d="M661.06,-192.99C744.88,-191.03 907.32,-182.13 946.5,-143 976.61,-112.92 973.82,-58.08 969.83,-29.47"/>
<polygon fill="midnightblue" stroke="midnightblue" points="973.28,-28.91 968.25,-19.59 966.37,-30.01 973.28,-28.91"/>
</g>
<!-- Node4 -->
<g id="node4" class="node">
<title>Node4</title>
<g id="a_node4"><a xlink:title=" ">
<polygon fill="white" stroke="#bfbfbf" points="626.5,-56.5 626.5,-75.5 672.5,-75.5 672.5,-56.5 626.5,-56.5"/>
<text text-anchor="middle" x="649.5" y="-63.5" font-family="Helvetica,sans-Serif" font-size="10.00">cstdint</text>
</a>
</g>
</g>
<!-- Node3&#45;&gt;Node4 -->
<g id="edge4" class="edge">
<title>Node3&#45;&gt;Node4</title>
<path fill="none" stroke="midnightblue" d="M599.81,-179.35C588.56,-162.61 573.97,-134.2 585.5,-112 592.65,-98.23 606.17,-87.78 618.95,-80.44"/>
<polygon fill="midnightblue" stroke="midnightblue" points="620.82,-83.41 628.02,-75.64 617.54,-77.23 620.82,-83.41"/>
</g>
<!-- Node5 -->
<g id="node5" class="node">
<title>Node5</title>
<g id="a_node5"><a xlink:href="heap-state_8h.html" target="_top" xlink:title=" ">
<polygon fill="white" stroke="black" points="417,-56.5 417,-75.5 516,-75.5 516,-56.5 417,-56.5"/>
<text text-anchor="middle" x="466.5" y="-63.5" font-family="Helvetica,sans-Serif" font-size="10.00">cppgc/heap&#45;state.h</text>
</a>
</g>
</g>
<!-- Node3&#45;&gt;Node5 -->
<g id="edge5" class="edge">
<title>Node3&#45;&gt;Node5</title>
<path fill="none" stroke="midnightblue" d="M573.47,-179.5C554.34,-170.99 531.51,-158.72 514.5,-143 496.46,-126.34 482.47,-101.45 474.36,-84.74"/>
<polygon fill="midnightblue" stroke="midnightblue" points="477.47,-83.13 470.08,-75.54 471.12,-86.08 477.47,-83.13"/>
</g>
<!-- Node3&#45;&gt;Node6 -->
<g id="edge31" class="edge">
<title>Node3&#45;&gt;Node6</title>
<path fill="none" stroke="midnightblue" d="M601.13,-179.43C594.46,-169.34 585.33,-155.4 577.5,-143 553.34,-104.71 554.66,-89.77 524.5,-56 514.08,-44.34 500.32,-33.51 488.82,-25.41"/>
<polygon fill="midnightblue" stroke="midnightblue" points="490.79,-22.51 480.56,-19.77 486.85,-28.3 490.79,-22.51"/>
</g>
<!-- Node7 -->
<g id="node7" class="node">
<title>Node7</title>
<g id="a_node7"><a xlink:href="api-constants_8h.html" target="_top" xlink:title=" ">
<polygon fill="white" stroke="black" points="732,-112.5 732,-142.5 825,-142.5 825,-112.5 732,-112.5"/>
<text text-anchor="start" x="740" y="-130.5" font-family="Helvetica,sans-Serif" font-size="10.00">cppgc/internal/api</text>
<text text-anchor="middle" x="778.5" y="-119.5" font-family="Helvetica,sans-Serif" font-size="10.00">&#45;constants.h</text>
</a>
</g>
</g>
<!-- Node3&#45;&gt;Node7 -->
<g id="edge7" class="edge">
<title>Node3&#45;&gt;Node7</title>
<path fill="none" stroke="midnightblue" d="M646.95,-179.4C672.05,-169.69 705.59,-156.71 732.52,-146.29"/>
<polygon fill="midnightblue" stroke="midnightblue" points="734.05,-149.45 742.12,-142.58 731.53,-142.92 734.05,-149.45"/>
</g>
<!-- Node8 -->
<g id="node8" class="node">
<title>Node8</title>
<g id="a_node8"><a xlink:href="atomic-entry-flag_8h.html" target="_top" xlink:title=" ">
<polygon fill="white" stroke="black" points="352.5,-112.5 352.5,-142.5 462.5,-142.5 462.5,-112.5 352.5,-112.5"/>
<text text-anchor="start" x="360.5" y="-130.5" font-family="Helvetica,sans-Serif" font-size="10.00">cppgc/internal/atomic</text>
<text text-anchor="middle" x="407.5" y="-119.5" font-family="Helvetica,sans-Serif" font-size="10.00">&#45;entry&#45;flag.h</text>
</a>
</g>
</g>
<!-- Node3&#45;&gt;Node8 -->
<g id="edge11" class="edge">
<title>Node3&#45;&gt;Node8</title>
<path fill="none" stroke="midnightblue" d="M566.45,-179.4C535.59,-169.52 494.17,-156.25 461.35,-145.74"/>
<polygon fill="midnightblue" stroke="midnightblue" points="462.05,-142.29 451.46,-142.58 459.92,-148.96 462.05,-142.29"/>
</g>
<!-- Node10 -->
<g id="node10" class="node">
<title>Node10</title>
<g id="a_node10"><a xlink:href="platform_8h.html" target="_top" xlink:title=" ">
<polygon fill="white" stroke="black" points="206,-118 206,-137 295,-137 295,-118 206,-118"/>
<text text-anchor="middle" x="250.5" y="-125" font-family="Helvetica,sans-Serif" font-size="10.00">cppgc/platform.h</text>
</a>
</g>
</g>
<!-- Node3&#45;&gt;Node10 -->
<g id="edge13" class="edge">
<title>Node3&#45;&gt;Node10</title>
<path fill="none" stroke="midnightblue" d="M559.68,-184.32C492.49,-172.19 374.52,-150.89 305.36,-138.41"/>
<polygon fill="midnightblue" stroke="midnightblue" points="305.57,-134.89 295.11,-136.55 304.33,-141.78 305.57,-134.89"/>
</g>
<!-- Node17 -->
<g id="node17" class="node">
<title>Node17</title>
<g id="a_node17"><a xlink:href="sentinel-pointer_8h.html" target="_top" xlink:title=" ">
<polygon fill="white" stroke="black" points="595,-118 595,-137 714,-137 714,-118 595,-118"/>
<text text-anchor="middle" x="654.5" y="-125" font-family="Helvetica,sans-Serif" font-size="10.00">cppgc/sentinel&#45;pointer.h</text>
</a>
</g>
</g>
<!-- Node3&#45;&gt;Node17 -->
<g id="edge23" class="edge">
<title>Node3&#45;&gt;Node17</title>
<path fill="none" stroke="midnightblue" d="M620.05,-179.4C626.77,-169.46 635.81,-156.11 642.94,-145.57"/>
<polygon fill="midnightblue" stroke="midnightblue" points="645.91,-147.44 648.61,-137.19 640.11,-143.51 645.91,-147.44"/>
</g>
<!-- Node3&#45;&gt;Node18 -->
<g id="edge25" class="edge">
<title>Node3&#45;&gt;Node18</title>
<path fill="none" stroke="midnightblue" d="M661.07,-182.45C706.33,-172.46 774.45,-157.19 833.5,-143 838.16,-141.88 843.02,-140.68 847.86,-139.48"/>
<polygon fill="midnightblue" stroke="midnightblue" points="848.84,-142.84 857.68,-137.01 847.13,-136.05 848.84,-142.84"/>
</g>
<!-- Node5&#45;&gt;Node6 -->
<g id="edge6" class="edge">
<title>Node5&#45;&gt;Node6</title>
<path fill="none" stroke="midnightblue" d="M466.5,-56.08C466.5,-49.01 466.5,-38.86 466.5,-29.99"/>
<polygon fill="midnightblue" stroke="midnightblue" points="470,-29.75 466.5,-19.75 463,-29.75 470,-29.75"/>
</g>
<!-- Node7&#45;&gt;Node2 -->
<g id="edge8" class="edge">
<title>Node7&#45;&gt;Node2</title>
<path fill="none" stroke="midnightblue" d="M786.16,-112.3C795.4,-96.43 812.36,-71.01 833.5,-56 863.24,-34.89 903.65,-23.08 932.1,-16.92"/>
<polygon fill="midnightblue" stroke="midnightblue" points="932.9,-20.33 942,-14.89 931.5,-13.47 932.9,-20.33"/>
</g>
<!-- Node7&#45;&gt;Node4 -->
<g id="edge9" class="edge">
<title>Node7&#45;&gt;Node4</title>
<path fill="none" stroke="midnightblue" d="M747.93,-112.4C726.57,-102.55 698.28,-89.5 677.52,-79.92"/>
<polygon fill="midnightblue" stroke="midnightblue" points="678.82,-76.67 668.27,-75.66 675.89,-83.02 678.82,-76.67"/>
</g>
<!-- Node7&#45;&gt;Node6 -->
<g id="edge10" class="edge">
<title>Node7&#45;&gt;Node6</title>
<path fill="none" stroke="midnightblue" d="M763.33,-112.26C745.26,-96.11 713.47,-70.18 681.5,-56 623.89,-30.45 551.07,-19.14 506.68,-14.32"/>
<polygon fill="midnightblue" stroke="midnightblue" points="506.88,-10.83 496.57,-13.29 506.16,-17.79 506.88,-10.83"/>
</g>
<!-- Node9 -->
<g id="node9" class="node">
<title>Node9</title>
<g id="a_node9"><a xlink:title=" ">
<polygon fill="white" stroke="#bfbfbf" points="352.5,-56.5 352.5,-75.5 398.5,-75.5 398.5,-56.5 352.5,-56.5"/>
<text text-anchor="middle" x="375.5" y="-63.5" font-family="Helvetica,sans-Serif" font-size="10.00">atomic</text>
</a>
</g>
</g>
<!-- Node8&#45;&gt;Node9 -->
<g id="edge12" class="edge">
<title>Node8&#45;&gt;Node9</title>
<path fill="none" stroke="midnightblue" d="M399.92,-112.4C395.46,-104.11 389.78,-93.55 385.02,-84.71"/>
<polygon fill="midnightblue" stroke="midnightblue" points="387.98,-82.81 380.16,-75.66 381.81,-86.12 387.98,-82.81"/>
</g>
<!-- Node10&#45;&gt;Node6 -->
<g id="edge22" class="edge">
<title>Node10&#45;&gt;Node6</title>
<path fill="none" stroke="midnightblue" d="M255.58,-117.69C264.66,-102.73 285.11,-72.39 310.5,-56 345.87,-33.17 393.06,-21.66 426.24,-16.04"/>
<polygon fill="midnightblue" stroke="midnightblue" points="427.16,-19.43 436.49,-14.41 426.07,-12.52 427.16,-19.43"/>
</g>
<!-- Node11 -->
<g id="node11" class="node">
<title>Node11</title>
<g id="a_node11"><a xlink:title=" ">
<polygon fill="white" stroke="#bfbfbf" points="260,-0.5 260,-19.5 311,-19.5 311,-0.5 260,-0.5"/>
<text text-anchor="middle" x="285.5" y="-7.5" font-family="Helvetica,sans-Serif" font-size="10.00">memory</text>
</a>
</g>
</g>
<!-- Node10&#45;&gt;Node11 -->
<g id="edge14" class="edge">
<title>Node10&#45;&gt;Node11</title>
<path fill="none" stroke="midnightblue" d="M253.13,-117.82C258.78,-99.17 272.18,-54.94 279.85,-29.63"/>
<polygon fill="midnightblue" stroke="midnightblue" points="283.29,-30.37 282.84,-19.78 276.59,-28.34 283.29,-30.37"/>
</g>
<!-- Node12 -->
<g id="node12" class="node">
<title>Node12</title>
<g id="a_node12"><a xlink:href="v8-platform_8h.html" target="_top" xlink:title=" ">
<polygon fill="white" stroke="black" points="147,-56.5 147,-75.5 220,-75.5 220,-56.5 147,-56.5"/>
<text text-anchor="middle" x="183.5" y="-63.5" font-family="Helvetica,sans-Serif" font-size="10.00">v8&#45;platform.h</text>
</a>
</g>
</g>
<!-- Node10&#45;&gt;Node12 -->
<g id="edge15" class="edge">
<title>Node10&#45;&gt;Node12</title>
<path fill="none" stroke="midnightblue" d="M240.9,-117.98C230.45,-108.7 213.53,-93.67 200.76,-82.33"/>
<polygon fill="midnightblue" stroke="midnightblue" points="202.88,-79.53 193.08,-75.51 198.23,-84.77 202.88,-79.53"/>
</g>
<!-- Node12&#45;&gt;Node6 -->
<g id="edge21" class="edge">
<title>Node12&#45;&gt;Node6</title>
<path fill="none" stroke="midnightblue" d="M220.21,-58C273.32,-47.86 371.23,-29.18 426.26,-18.68"/>
<polygon fill="midnightblue" stroke="midnightblue" points="427.17,-22.07 436.34,-16.76 425.86,-15.19 427.17,-22.07"/>
</g>
<!-- Node12&#45;&gt;Node11 -->
<g id="edge19" class="edge">
<title>Node12&#45;&gt;Node11</title>
<path fill="none" stroke="midnightblue" d="M199.89,-56.32C216.17,-47.7 241.37,-34.36 260.22,-24.39"/>
<polygon fill="midnightblue" stroke="midnightblue" points="261.95,-27.43 269.15,-19.65 258.68,-21.24 261.95,-27.43"/>
</g>
<!-- Node13 -->
<g id="node13" class="node">
<title>Node13</title>
<g id="a_node13"><a xlink:title=" ">
<polygon fill="white" stroke="#bfbfbf" points="124,-0.5 124,-19.5 175,-19.5 175,-0.5 124,-0.5"/>
<text text-anchor="middle" x="149.5" y="-7.5" font-family="Helvetica,sans-Serif" font-size="10.00">stddef.h</text>
</a>
</g>
</g>
<!-- Node12&#45;&gt;Node13 -->
<g id="edge16" class="edge">
<title>Node12&#45;&gt;Node13</title>
<path fill="none" stroke="midnightblue" d="M177.89,-56.08C173.13,-48.53 166.18,-37.49 160.35,-28.23"/>
<polygon fill="midnightblue" stroke="midnightblue" points="163.3,-26.35 155.01,-19.75 157.38,-30.08 163.3,-26.35"/>
</g>
<!-- Node14 -->
<g id="node14" class="node">
<title>Node14</title>
<g id="a_node14"><a xlink:title=" ">
<polygon fill="white" stroke="#bfbfbf" points="193.5,-0.5 193.5,-19.5 241.5,-19.5 241.5,-0.5 193.5,-0.5"/>
<text text-anchor="middle" x="217.5" y="-7.5" font-family="Helvetica,sans-Serif" font-size="10.00">stdint.h</text>
</a>
</g>
</g>
<!-- Node12&#45;&gt;Node14 -->
<g id="edge17" class="edge">
<title>Node12&#45;&gt;Node14</title>
<path fill="none" stroke="midnightblue" d="M189.11,-56.08C193.87,-48.53 200.82,-37.49 206.65,-28.23"/>
<polygon fill="midnightblue" stroke="midnightblue" points="209.62,-30.08 211.99,-19.75 203.7,-26.35 209.62,-30.08"/>
</g>
<!-- Node15 -->
<g id="node15" class="node">
<title>Node15</title>
<g id="a_node15"><a xlink:title=" ">
<polygon fill="white" stroke="#bfbfbf" points="0,-0.5 0,-19.5 47,-19.5 47,-0.5 0,-0.5"/>
<text text-anchor="middle" x="23.5" y="-7.5" font-family="Helvetica,sans-Serif" font-size="10.00">stdlib.h</text>
</a>
</g>
</g>
<!-- Node12&#45;&gt;Node15 -->
<g id="edge18" class="edge">
<title>Node12&#45;&gt;Node15</title>
<path fill="none" stroke="midnightblue" d="M158.15,-56.44C130.76,-47.2 86.99,-32.43 56.83,-22.25"/>
<polygon fill="midnightblue" stroke="midnightblue" points="57.76,-18.87 47.17,-18.99 55.52,-25.5 57.76,-18.87"/>
</g>
<!-- Node16 -->
<g id="node16" class="node">
<title>Node16</title>
<g id="a_node16"><a xlink:title=" ">
<polygon fill="white" stroke="#bfbfbf" points="65,-0.5 65,-19.5 106,-19.5 106,-0.5 65,-0.5"/>
<text text-anchor="middle" x="85.5" y="-7.5" font-family="Helvetica,sans-Serif" font-size="10.00">string</text>
</a>
</g>
</g>
<!-- Node12&#45;&gt;Node16 -->
<g id="edge20" class="edge">
<title>Node12&#45;&gt;Node16</title>
<path fill="none" stroke="midnightblue" d="M167.75,-56.32C152.18,-47.74 128.12,-34.49 110.04,-24.52"/>
<polygon fill="midnightblue" stroke="midnightblue" points="111.65,-21.42 101.21,-19.65 108.28,-27.55 111.65,-21.42"/>
</g>
<!-- Node17&#45;&gt;Node4 -->
<g id="edge24" class="edge">
<title>Node17&#45;&gt;Node4</title>
<path fill="none" stroke="midnightblue" d="M653.78,-117.98C653.08,-109.58 651.98,-96.48 651.07,-85.66"/>
<polygon fill="midnightblue" stroke="midnightblue" points="654.54,-85.18 650.22,-75.51 647.56,-85.77 654.54,-85.18"/>
</g>
<!-- Node18&#45;&gt;Node6 -->
<g id="edge30" class="edge">
<title>Node18&#45;&gt;Node6</title>
<path fill="none" stroke="midnightblue" d="M872.32,-117.85C840.71,-103.14 773.27,-73.16 713.5,-56 641.92,-35.45 555.87,-22.28 506.55,-15.8"/>
<polygon fill="midnightblue" stroke="midnightblue" points="506.96,-12.33 496.6,-14.52 506.07,-19.27 506.96,-12.33"/>
</g>
<!-- Node19 -->
<g id="node19" class="node">
<title>Node19</title>
<g id="a_node19"><a xlink:title=" ">
<polygon fill="white" stroke="#bfbfbf" points="802.5,-0.5 802.5,-19.5 864.5,-19.5 864.5,-0.5 802.5,-0.5"/>
<text text-anchor="middle" x="833.5" y="-7.5" font-family="Helvetica,sans-Serif" font-size="10.00">type_traits</text>
</a>
</g>
</g>
<!-- Node18&#45;&gt;Node19 -->
<g id="edge26" class="edge">
<title>Node18&#45;&gt;Node19</title>
<path fill="none" stroke="midnightblue" d="M874.81,-117.85C861.03,-109.26 841.91,-94.69 833.5,-76 826.99,-61.53 827.63,-43.34 829.53,-29.89"/>
<polygon fill="midnightblue" stroke="midnightblue" points="833.01,-30.34 831.3,-19.89 826.11,-29.13 833.01,-30.34"/>
</g>
<!-- Node20 -->
<g id="node20" class="node">
<title>Node20</title>
<g id="a_node20"><a xlink:href="type-traits_8h.html" target="_top" xlink:title=" ">
<polygon fill="white" stroke="black" points="842.5,-56.5 842.5,-75.5 938.5,-75.5 938.5,-56.5 842.5,-56.5"/>
<text text-anchor="middle" x="890.5" y="-63.5" font-family="Helvetica,sans-Serif" font-size="10.00">cppgc/type&#45;traits.h</text>
</a>
</g>
</g>
<!-- Node18&#45;&gt;Node20 -->
<g id="edge27" class="edge">
<title>Node18&#45;&gt;Node20</title>
<path fill="none" stroke="midnightblue" d="M890.5,-117.98C890.5,-109.58 890.5,-96.48 890.5,-85.66"/>
<polygon fill="midnightblue" stroke="midnightblue" points="894,-85.51 890.5,-75.51 887,-85.51 894,-85.51"/>
</g>
<!-- Node20&#45;&gt;Node2 -->
<g id="edge28" class="edge">
<title>Node20&#45;&gt;Node2</title>
<path fill="none" stroke="midnightblue" d="M902.71,-56.32C914.28,-48.11 931.88,-35.6 945.66,-25.81"/>
<polygon fill="midnightblue" stroke="midnightblue" points="947.94,-28.48 954.07,-19.83 943.89,-22.77 947.94,-28.48"/>
</g>
<!-- Node20&#45;&gt;Node19 -->
<g id="edge29" class="edge">
<title>Node20&#45;&gt;Node19</title>
<path fill="none" stroke="midnightblue" d="M881.34,-56.32C873,-48.42 860.47,-36.55 850.32,-26.94"/>
<polygon fill="midnightblue" stroke="midnightblue" points="852.49,-24.17 842.82,-19.83 847.68,-29.25 852.49,-24.17"/>
</g>
<!-- Node21&#45;&gt;Node2 -->
<g id="edge33" class="edge">
<title>Node21&#45;&gt;Node2</title>
<path fill="none" stroke="midnightblue" d="M1111.4,-184.99C1127.66,-176.84 1149.52,-162.84 1159.5,-143 1165.69,-130.69 1166.63,-123.79 1159.5,-112 1125.07,-55.12 1046.91,-28.73 1001.32,-17.78"/>
<polygon fill="midnightblue" stroke="midnightblue" points="1001.82,-14.3 991.29,-15.49 1000.26,-21.13 1001.82,-14.3"/>
</g>
<!-- Node22 -->
<g id="node22" class="node">
<title>Node22</title>
<g id="a_node22"><a xlink:href="compiler-specific_8h.html" target="_top" xlink:title=" ">
<polygon fill="white" stroke="black" points="1033,-112.5 1033,-142.5 1150,-142.5 1150,-112.5 1033,-112.5"/>
<text text-anchor="start" x="1041" y="-130.5" font-family="Helvetica,sans-Serif" font-size="10.00">cppgc/internal/compiler</text>
<text text-anchor="middle" x="1091.5" y="-119.5" font-family="Helvetica,sans-Serif" font-size="10.00">&#45;specific.h</text>
</a>
</g>
</g>
<!-- Node21&#45;&gt;Node22 -->
<g id="edge34" class="edge">
<title>Node21&#45;&gt;Node22</title>
<path fill="none" stroke="midnightblue" d="M1091.5,-184.73C1091.5,-176.54 1091.5,-163.92 1091.5,-152.71"/>
<polygon fill="midnightblue" stroke="midnightblue" points="1095,-152.59 1091.5,-142.59 1088,-152.59 1095,-152.59"/>
</g>
</g>
</svg>
