<?xml version="1.0" encoding="UTF-8" standalone="no"?>
<!DOCTYPE svg PUBLIC "-//W3C//DTD SVG 1.1//EN"
 "http://www.w3.org/Graphics/SVG/1.1/DTD/svg11.dtd">
<!-- Generated by graphviz version 2.49.3 (20211027.1534)
 -->
<!-- Title: include/cppgc/internal/name&#45;trait.h Pages: 1 -->
<svg width="286pt" height="151pt"
 viewBox="0.00 0.00 285.50 151.00" xmlns="http://www.w3.org/2000/svg" xmlns:xlink="http://www.w3.org/1999/xlink">
<g id="graph0" class="graph" transform="scale(1 1) rotate(0) translate(4 147)">
<title>include/cppgc/internal/name&#45;trait.h</title>
<polygon fill="white" stroke="transparent" points="-4,4 -4,-147 281.5,-147 281.5,4 -4,4"/>
<!-- Node1 -->
<g id="node1" class="node">
<title>Node1</title>
<g id="a_node1"><a xlink:title=" ">
<polygon fill="#bfbfbf" stroke="black" points="96,-112.5 96,-142.5 207,-142.5 207,-112.5 96,-112.5"/>
<text text-anchor="start" x="104" y="-130.5" font-family="Helvetica,sans-Serif" font-size="10.00">include/cppgc/internal</text>
<text text-anchor="middle" x="151.5" y="-119.5" font-family="Helvetica,sans-Serif" font-size="10.00">/name&#45;trait.h</text>
</a>
</g>
</g>
<!-- Node2 -->
<g id="node2" class="node">
<title>Node2</title>
<g id="a_node2"><a xlink:title=" ">
<polygon fill="white" stroke="#bfbfbf" points="0,-56.5 0,-75.5 49,-75.5 49,-56.5 0,-56.5"/>
<text text-anchor="middle" x="24.5" y="-63.5" font-family="Helvetica,sans-Serif" font-size="10.00">cstddef</text>
</a>
</g>
</g>
<!-- Node1&#45;&gt;Node2 -->
<g id="edge1" class="edge">
<title>Node1&#45;&gt;Node2</title>
<path fill="none" stroke="midnightblue" d="M121.4,-112.4C100.38,-102.55 72.53,-89.5 52.08,-79.92"/>
<polygon fill="midnightblue" stroke="midnightblue" points="53.52,-76.73 42.98,-75.66 50.55,-83.07 53.52,-76.73"/>
</g>
<!-- Node3 -->
<g id="node3" class="node">
<title>Node3</title>
<g id="a_node3"><a xlink:title=" ">
<polygon fill="white" stroke="#bfbfbf" points="67.5,-56.5 67.5,-75.5 129.5,-75.5 129.5,-56.5 67.5,-56.5"/>
<text text-anchor="middle" x="98.5" y="-63.5" font-family="Helvetica,sans-Serif" font-size="10.00">type_traits</text>
</a>
</g>
</g>
<!-- Node1&#45;&gt;Node3 -->
<g id="edge2" class="edge">
<title>Node1&#45;&gt;Node3</title>
<path fill="none" stroke="midnightblue" d="M138.94,-112.4C131.16,-103.66 121.14,-92.41 113.02,-83.3"/>
<polygon fill="midnightblue" stroke="midnightblue" points="115.48,-80.8 106.21,-75.66 110.25,-85.45 115.48,-80.8"/>
</g>
<!-- Node4 -->
<g id="node4" class="node">
<title>Node4</title>
<g id="a_node4"><a xlink:href="name-provider_8h.html" target="_top" xlink:title=" ">
<polygon fill="white" stroke="black" points="147,-56.5 147,-75.5 262,-75.5 262,-56.5 147,-56.5"/>
<text text-anchor="middle" x="204.5" y="-63.5" font-family="Helvetica,sans-Serif" font-size="10.00">cppgc/name&#45;provider.h</text>
</a>
</g>
</g>
<!-- Node1&#45;&gt;Node4 -->
<g id="edge3" class="edge">
<title>Node1&#45;&gt;Node4</title>
<path fill="none" stroke="midnightblue" d="M164.06,-112.4C171.84,-103.66 181.86,-92.41 189.98,-83.3"/>
<polygon fill="midnightblue" stroke="midnightblue" points="192.75,-85.45 196.79,-75.66 187.52,-80.8 192.75,-85.45"/>
</g>
<!-- Node5 -->
<g id="node5" class="node">
<title>Node5</title>
<g id="a_node5"><a xlink:href="v8config_8h.html" target="_top" xlink:title=" ">
<polygon fill="white" stroke="black" points="217.5,-0.5 217.5,-19.5 277.5,-19.5 277.5,-0.5 217.5,-0.5"/>
<text text-anchor="middle" x="247.5" y="-7.5" font-family="Helvetica,sans-Serif" font-size="10.00">v8config.h</text>
</a>
</g>
</g>
<!-- Node1&#45;&gt;Node5 -->
<g id="edge5" class="edge">
<title>Node1&#45;&gt;Node5</title>
<path fill="none" stroke="midnightblue" d="M207.21,-117.21C231.22,-110.15 257.06,-97.75 271.5,-76 281.44,-61.04 271.62,-41.42 261.71,-27.67"/>
<polygon fill="midnightblue" stroke="midnightblue" points="264.31,-25.31 255.39,-19.58 258.79,-29.62 264.31,-25.31"/>
</g>
<!-- Node4&#45;&gt;Node5 -->
<g id="edge4" class="edge">
<title>Node4&#45;&gt;Node5</title>
<path fill="none" stroke="midnightblue" d="M211.6,-56.08C217.74,-48.38 226.77,-37.03 234.24,-27.65"/>
<polygon fill="midnightblue" stroke="midnightblue" points="237.04,-29.75 240.53,-19.75 231.56,-25.39 237.04,-29.75"/>
</g>
</g>
</svg>
