<?xml version="1.0" encoding="UTF-8" standalone="no"?>
<!DOCTYPE svg PUBLIC "-//W3C//DTD SVG 1.1//EN"
 "http://www.w3.org/Graphics/SVG/1.1/DTD/svg11.dtd">
<!-- Generated by graphviz version 2.49.3 (20211027.1534)
 -->
<!-- Title: include/cppgc/platform.h Pages: 1 -->
<svg width="817pt" height="531pt"
 viewBox="0.00 0.00 817.00 531.00" xmlns="http://www.w3.org/2000/svg" xmlns:xlink="http://www.w3.org/1999/xlink">
<g id="graph0" class="graph" transform="scale(1 1) rotate(0) translate(4 527)">
<title>include/cppgc/platform.h</title>
<polygon fill="white" stroke="transparent" points="-4,4 -4,-527 813,-527 813,4 -4,4"/>
<!-- Node1 -->
<g id="node1" class="node">
<title>Node1</title>
<g id="a_node1"><a xlink:title=" ">
<polygon fill="#bfbfbf" stroke="black" points="234.5,-503.5 234.5,-522.5 356.5,-522.5 356.5,-503.5 234.5,-503.5"/>
<text text-anchor="middle" x="295.5" y="-510.5" font-family="Helvetica,sans-Serif" font-size="10.00">include/cppgc/platform.h</text>
</a>
</g>
</g>
<!-- Node2 -->
<g id="node2" class="node">
<title>Node2</title>
<g id="a_node2"><a xlink:href="default-platform_8h.html" target="_top" xlink:title=" ">
<polygon fill="white" stroke="black" points="0,-436.5 0,-466.5 109,-466.5 109,-436.5 0,-436.5"/>
<text text-anchor="start" x="8" y="-454.5" font-family="Helvetica,sans-Serif" font-size="10.00">include/cppgc/default</text>
<text text-anchor="middle" x="54.5" y="-443.5" font-family="Helvetica,sans-Serif" font-size="10.00">&#45;platform.h</text>
</a>
</g>
</g>
<!-- Node1&#45;&gt;Node2 -->
<g id="edge1" class="edge">
<title>Node1&#45;&gt;Node2</title>
<path fill="none" stroke="midnightblue" d="M251.25,-501.07C211.3,-491.21 152.39,-476.67 109.45,-466.07"/>
<polygon fill="midnightblue" stroke="midnightblue" points="250.42,-504.48 260.97,-503.48 252.1,-497.68 250.42,-504.48"/>
</g>
<!-- Node3 -->
<g id="node3" class="node">
<title>Node3</title>
<g id="a_node3"><a xlink:href="garbage-collected_8h.html" target="_top" xlink:title=" ">
<polygon fill="white" stroke="black" points="117.5,-246.5 117.5,-276.5 231.5,-276.5 231.5,-246.5 117.5,-246.5"/>
<text text-anchor="start" x="125.5" y="-264.5" font-family="Helvetica,sans-Serif" font-size="10.00">include/cppgc/garbage</text>
<text text-anchor="middle" x="174.5" y="-253.5" font-family="Helvetica,sans-Serif" font-size="10.00">&#45;collected.h</text>
</a>
</g>
</g>
<!-- Node1&#45;&gt;Node3 -->
<g id="edge2" class="edge">
<title>Node1&#45;&gt;Node3</title>
<path fill="none" stroke="midnightblue" d="M266.5,-499.02C232.45,-481.93 177.92,-448.29 156.5,-400 137.95,-358.19 156.85,-302.7 167.83,-276.87"/>
<polygon fill="midnightblue" stroke="midnightblue" points="264.99,-502.18 275.51,-503.4 268.04,-495.88 264.99,-502.18"/>
</g>
<!-- Node8 -->
<g id="node8" class="node">
<title>Node8</title>
<g id="a_node8"><a xlink:href="heap_8h.html" target="_top" xlink:title=" ">
<polygon fill="white" stroke="black" points="577.5,-313.5 577.5,-332.5 685.5,-332.5 685.5,-313.5 577.5,-313.5"/>
<text text-anchor="middle" x="631.5" y="-320.5" font-family="Helvetica,sans-Serif" font-size="10.00">include/cppgc/heap.h</text>
</a>
</g>
</g>
<!-- Node1&#45;&gt;Node8 -->
<g id="edge8" class="edge">
<title>Node1&#45;&gt;Node8</title>
<path fill="none" stroke="midnightblue" d="M319.56,-498.54C384.6,-462.15 562.61,-362.55 616.1,-332.62"/>
<polygon fill="midnightblue" stroke="midnightblue" points="317.83,-495.5 310.81,-503.43 321.25,-501.6 317.83,-495.5"/>
</g>
<!-- Node13 -->
<g id="node13" class="node">
<title>Node13</title>
<g id="a_node13"><a xlink:href="caged-heap-local-data_8h.html" target="_top" xlink:title=" ">
<polygon fill="white" stroke="black" points="491.5,-436.5 491.5,-466.5 613.5,-466.5 613.5,-436.5 491.5,-436.5"/>
<text text-anchor="start" x="499.5" y="-454.5" font-family="Helvetica,sans-Serif" font-size="10.00">include/cppgc/internal</text>
<text text-anchor="middle" x="552.5" y="-443.5" font-family="Helvetica,sans-Serif" font-size="10.00">/caged&#45;heap&#45;local&#45;data.h</text>
</a>
</g>
</g>
<!-- Node1&#45;&gt;Node13 -->
<g id="edge17" class="edge">
<title>Node1&#45;&gt;Node13</title>
<path fill="none" stroke="midnightblue" d="M342.28,-501.17C384.28,-491.45 446.17,-477.12 491.93,-466.52"/>
<polygon fill="midnightblue" stroke="midnightblue" points="341.27,-497.81 332.32,-503.48 342.85,-504.63 341.27,-497.81"/>
</g>
<!-- Node14 -->
<g id="node14" class="node">
<title>Node14</title>
<g id="a_node14"><a xlink:href="write-barrier_8h.html" target="_top" xlink:title=" ">
<polygon fill="white" stroke="black" points="240,-436.5 240,-466.5 351,-466.5 351,-436.5 240,-436.5"/>
<text text-anchor="start" x="248" y="-454.5" font-family="Helvetica,sans-Serif" font-size="10.00">include/cppgc/internal</text>
<text text-anchor="middle" x="295.5" y="-443.5" font-family="Helvetica,sans-Serif" font-size="10.00">/write&#45;barrier.h</text>
</a>
</g>
</g>
<!-- Node1&#45;&gt;Node14 -->
<g id="edge18" class="edge">
<title>Node1&#45;&gt;Node14</title>
<path fill="none" stroke="midnightblue" d="M295.5,-493.23C295.5,-484.59 295.5,-474.5 295.5,-466.52"/>
<polygon fill="midnightblue" stroke="midnightblue" points="292,-493.48 295.5,-503.48 299,-493.48 292,-493.48"/>
</g>
<!-- Node4 -->
<g id="node4" class="node">
<title>Node4</title>
<g id="a_node4"><a xlink:href="visitor_8h.html" target="_top" xlink:title=" ">
<polygon fill="white" stroke="black" points="459,-123.5 459,-142.5 572,-142.5 572,-123.5 459,-123.5"/>
<text text-anchor="middle" x="515.5" y="-130.5" font-family="Helvetica,sans-Serif" font-size="10.00">include/cppgc/visitor.h</text>
</a>
</g>
</g>
<!-- Node3&#45;&gt;Node4 -->
<g id="edge3" class="edge">
<title>Node3&#45;&gt;Node4</title>
<path fill="none" stroke="midnightblue" d="M221.87,-242.93C296.03,-215.42 436.8,-163.19 492.24,-142.63"/>
<polygon fill="midnightblue" stroke="midnightblue" points="220.45,-239.72 212.3,-246.48 222.89,-246.28 220.45,-239.72"/>
</g>
<!-- Node5 -->
<g id="node5" class="node">
<title>Node5</title>
<g id="a_node5"><a xlink:href="cross-thread-persistent_8h.html" target="_top" xlink:title=" ">
<polygon fill="white" stroke="black" points="490.5,-0.5 490.5,-30.5 594.5,-30.5 594.5,-0.5 490.5,-0.5"/>
<text text-anchor="start" x="498.5" y="-18.5" font-family="Helvetica,sans-Serif" font-size="10.00">include/cppgc/cross</text>
<text text-anchor="middle" x="542.5" y="-7.5" font-family="Helvetica,sans-Serif" font-size="10.00">&#45;thread&#45;persistent.h</text>
</a>
</g>
</g>
<!-- Node4&#45;&gt;Node5 -->
<g id="edge4" class="edge">
<title>Node4&#45;&gt;Node5</title>
<path fill="none" stroke="midnightblue" d="M570.89,-120.08C588.5,-113.4 606.09,-103.03 616.5,-87 631.23,-64.3 602.15,-43.63 576.23,-30.62"/>
<polygon fill="midnightblue" stroke="midnightblue" points="569.47,-116.87 561.15,-123.43 571.75,-123.49 569.47,-116.87"/>
</g>
<!-- Node6 -->
<g id="node6" class="node">
<title>Node6</title>
<g id="a_node6"><a xlink:href="persistent_8h.html" target="_top" xlink:title=" ">
<polygon fill="white" stroke="black" points="477.5,-67.5 477.5,-86.5 607.5,-86.5 607.5,-67.5 477.5,-67.5"/>
<text text-anchor="middle" x="542.5" y="-74.5" font-family="Helvetica,sans-Serif" font-size="10.00">include/cppgc/persistent.h</text>
</a>
</g>
</g>
<!-- Node4&#45;&gt;Node6 -->
<g id="edge5" class="edge">
<title>Node4&#45;&gt;Node6</title>
<path fill="none" stroke="midnightblue" d="M524.51,-113.98C529.09,-104.82 534.45,-94.09 538.12,-86.75"/>
<polygon fill="midnightblue" stroke="midnightblue" points="521.3,-112.57 519.96,-123.08 527.56,-115.7 521.3,-112.57"/>
</g>
<!-- Node7 -->
<g id="node7" class="node">
<title>Node7</title>
<g id="a_node7"><a xlink:href="v8-cppgc_8h.html" target="_top" xlink:title=" ">
<polygon fill="white" stroke="black" points="361.5,-67.5 361.5,-86.5 459.5,-86.5 459.5,-67.5 361.5,-67.5"/>
<text text-anchor="middle" x="410.5" y="-74.5" font-family="Helvetica,sans-Serif" font-size="10.00">include/v8&#45;cppgc.h</text>
</a>
</g>
</g>
<!-- Node4&#45;&gt;Node7 -->
<g id="edge7" class="edge">
<title>Node4&#45;&gt;Node7</title>
<path fill="none" stroke="midnightblue" d="M489.69,-118.73C470.25,-108.73 444.15,-95.31 427.33,-86.65"/>
<polygon fill="midnightblue" stroke="midnightblue" points="488.14,-121.86 498.63,-123.32 491.34,-115.64 488.14,-121.86"/>
</g>
<!-- Node6&#45;&gt;Node5 -->
<g id="edge6" class="edge">
<title>Node6&#45;&gt;Node5</title>
<path fill="none" stroke="midnightblue" d="M542.5,-57.23C542.5,-48.59 542.5,-38.5 542.5,-30.52"/>
<polygon fill="midnightblue" stroke="midnightblue" points="539,-57.48 542.5,-67.48 546,-57.48 539,-57.48"/>
</g>
<!-- Node9 -->
<g id="node9" class="node">
<title>Node9</title>
<g id="a_node9"><a xlink:href="prefinalizer-handler_8h.html" target="_top" xlink:title=" ">
<polygon fill="white" stroke="black" points="698,-179.5 698,-209.5 809,-209.5 809,-179.5 698,-179.5"/>
<text text-anchor="start" x="706" y="-197.5" font-family="Helvetica,sans-Serif" font-size="10.00">include/cppgc/internal</text>
<text text-anchor="middle" x="753.5" y="-186.5" font-family="Helvetica,sans-Serif" font-size="10.00">/prefinalizer&#45;handler.h</text>
</a>
</g>
</g>
<!-- Node8&#45;&gt;Node9 -->
<g id="edge9" class="edge">
<title>Node8&#45;&gt;Node9</title>
<path fill="none" stroke="midnightblue" d="M656.66,-308.29C670.02,-300.27 686.17,-289.3 698.5,-277 719.16,-256.38 736.76,-226.95 746.17,-209.67"/>
<polygon fill="midnightblue" stroke="midnightblue" points="654.83,-305.31 647.94,-313.36 658.34,-311.36 654.83,-305.31"/>
</g>
<!-- Node11 -->
<g id="node11" class="node">
<title>Node11</title>
<g id="a_node11"><a xlink:href="liveness-broker_8h.html" target="_top" xlink:title=" ">
<polygon fill="white" stroke="black" points="573.5,-246.5 573.5,-276.5 689.5,-276.5 689.5,-246.5 573.5,-246.5"/>
<text text-anchor="start" x="581.5" y="-264.5" font-family="Helvetica,sans-Serif" font-size="10.00">include/cppgc/liveness</text>
<text text-anchor="middle" x="631.5" y="-253.5" font-family="Helvetica,sans-Serif" font-size="10.00">&#45;broker.h</text>
</a>
</g>
</g>
<!-- Node8&#45;&gt;Node11 -->
<g id="edge11" class="edge">
<title>Node8&#45;&gt;Node11</title>
<path fill="none" stroke="midnightblue" d="M631.5,-303.23C631.5,-294.59 631.5,-284.5 631.5,-276.52"/>
<polygon fill="midnightblue" stroke="midnightblue" points="628,-303.48 631.5,-313.48 635,-303.48 628,-303.48"/>
</g>
<!-- Node10 -->
<g id="node10" class="node">
<title>Node10</title>
<g id="a_node10"><a xlink:href="prefinalizer_8h.html" target="_top" xlink:title=" ">
<polygon fill="white" stroke="black" points="626,-123.5 626,-142.5 759,-142.5 759,-123.5 626,-123.5"/>
<text text-anchor="middle" x="692.5" y="-130.5" font-family="Helvetica,sans-Serif" font-size="10.00">include/cppgc/prefinalizer.h</text>
</a>
</g>
</g>
<!-- Node9&#45;&gt;Node10 -->
<g id="edge10" class="edge">
<title>Node9&#45;&gt;Node10</title>
<path fill="none" stroke="midnightblue" d="M731.77,-172.3C721.3,-162.09 709.32,-150.41 701.38,-142.66"/>
<polygon fill="midnightblue" stroke="midnightblue" points="729.44,-174.92 739.04,-179.4 734.33,-169.91 729.44,-174.92"/>
</g>
<!-- Node11&#45;&gt;Node4 -->
<g id="edge16" class="edge">
<title>Node11&#45;&gt;Node4</title>
<path fill="none" stroke="midnightblue" d="M631.31,-236.09C629.97,-218.48 625.56,-195.06 612.5,-179 597.39,-160.42 572.88,-149.14 552.28,-142.52"/>
<polygon fill="midnightblue" stroke="midnightblue" points="627.82,-236.38 631.8,-246.2 634.81,-236.04 627.82,-236.38"/>
</g>
<!-- Node11&#45;&gt;Node9 -->
<g id="edge14" class="edge">
<title>Node11&#45;&gt;Node9</title>
<path fill="none" stroke="midnightblue" d="M667.02,-241.57C686.21,-231.35 709.5,-218.94 727.08,-209.58"/>
<polygon fill="midnightblue" stroke="midnightblue" points="665.15,-238.6 657.97,-246.4 668.44,-244.78 665.15,-238.6"/>
</g>
<!-- Node11&#45;&gt;Node10 -->
<g id="edge15" class="edge">
<title>Node11&#45;&gt;Node10</title>
<path fill="none" stroke="midnightblue" d="M642.71,-237.26C656.41,-208.83 678.94,-162.11 688.26,-142.79"/>
<polygon fill="midnightblue" stroke="midnightblue" points="639.45,-235.95 638.26,-246.48 645.76,-238.99 639.45,-235.95"/>
</g>
<!-- Node12 -->
<g id="node12" class="node">
<title>Node12</title>
<g id="a_node12"><a xlink:href="ephemeron-pair_8h.html" target="_top" xlink:title=" ">
<polygon fill="white" stroke="black" points="475.5,-179.5 475.5,-209.5 603.5,-209.5 603.5,-179.5 475.5,-179.5"/>
<text text-anchor="start" x="483.5" y="-197.5" font-family="Helvetica,sans-Serif" font-size="10.00">include/cppgc/ephemeron</text>
<text text-anchor="middle" x="539.5" y="-186.5" font-family="Helvetica,sans-Serif" font-size="10.00">&#45;pair.h</text>
</a>
</g>
</g>
<!-- Node11&#45;&gt;Node12 -->
<g id="edge12" class="edge">
<title>Node11&#45;&gt;Node12</title>
<path fill="none" stroke="midnightblue" d="M603.12,-240.45C588.97,-230.45 572.19,-218.6 559.42,-209.58"/>
<polygon fill="midnightblue" stroke="midnightblue" points="601.35,-243.48 611.54,-246.4 605.39,-237.77 601.35,-243.48"/>
</g>
<!-- Node12&#45;&gt;Node4 -->
<g id="edge13" class="edge">
<title>Node12&#45;&gt;Node4</title>
<path fill="none" stroke="midnightblue" d="M529.98,-169.9C526.11,-160.3 521.88,-149.81 518.99,-142.66"/>
<polygon fill="midnightblue" stroke="midnightblue" points="526.83,-171.43 533.81,-179.4 533.32,-168.82 526.83,-171.43"/>
</g>
<!-- Node14&#45;&gt;Node7 -->
<g id="edge28" class="edge">
<title>Node14&#45;&gt;Node7</title>
<path fill="none" stroke="midnightblue" d="M295.5,-426.26C295.5,-400.8 295.5,-359.58 295.5,-324 295.5,-324 295.5,-324 295.5,-193.5 295.5,-140.02 358.18,-102.55 390.99,-86.6"/>
<polygon fill="midnightblue" stroke="midnightblue" points="292,-426.46 295.5,-436.46 299,-426.46 292,-426.46"/>
</g>
<!-- Node15 -->
<g id="node15" class="node">
<title>Node15</title>
<g id="a_node15"><a xlink:href="heap-consistency_8h.html" target="_top" xlink:title=" ">
<polygon fill="white" stroke="black" points="166,-369.5 166,-399.5 267,-399.5 267,-369.5 166,-369.5"/>
<text text-anchor="start" x="174" y="-387.5" font-family="Helvetica,sans-Serif" font-size="10.00">include/cppgc/heap</text>
<text text-anchor="middle" x="216.5" y="-376.5" font-family="Helvetica,sans-Serif" font-size="10.00">&#45;consistency.h</text>
</a>
</g>
</g>
<!-- Node14&#45;&gt;Node15 -->
<g id="edge19" class="edge">
<title>Node14&#45;&gt;Node15</title>
<path fill="none" stroke="midnightblue" d="M270.44,-429.88C258.44,-420.01 244.37,-408.43 233.61,-399.58"/>
<polygon fill="midnightblue" stroke="midnightblue" points="268.41,-432.75 278.36,-436.4 272.86,-427.34 268.41,-432.75"/>
</g>
<!-- Node16 -->
<g id="node16" class="node">
<title>Node16</title>
<g id="a_node16"><a xlink:href="pointer-policies_8h.html" target="_top" xlink:title=" ">
<polygon fill="white" stroke="black" points="324,-369.5 324,-399.5 435,-399.5 435,-369.5 324,-369.5"/>
<text text-anchor="start" x="332" y="-387.5" font-family="Helvetica,sans-Serif" font-size="10.00">include/cppgc/internal</text>
<text text-anchor="middle" x="379.5" y="-376.5" font-family="Helvetica,sans-Serif" font-size="10.00">/pointer&#45;policies.h</text>
</a>
</g>
</g>
<!-- Node14&#45;&gt;Node16 -->
<g id="edge20" class="edge">
<title>Node14&#45;&gt;Node16</title>
<path fill="none" stroke="midnightblue" d="M321.78,-430.17C334.62,-420.23 349.76,-408.51 361.31,-399.58"/>
<polygon fill="midnightblue" stroke="midnightblue" points="319.49,-427.51 313.73,-436.4 323.78,-433.04 319.49,-427.51"/>
</g>
<!-- Node16&#45;&gt;Node4 -->
<g id="edge27" class="edge">
<title>Node16&#45;&gt;Node4</title>
<path fill="none" stroke="midnightblue" d="M383.87,-359.22C392.13,-318.59 413.14,-235.7 455.5,-179 467.27,-163.25 486.03,-150.42 499.44,-142.55"/>
<polygon fill="midnightblue" stroke="midnightblue" points="380.38,-358.79 381.91,-369.28 387.26,-360.13 380.38,-358.79"/>
</g>
<!-- Node16&#45;&gt;Node5 -->
<g id="edge21" class="edge">
<title>Node16&#45;&gt;Node5</title>
<path fill="none" stroke="midnightblue" d="M364.94,-360.37C351.46,-336.72 333.5,-298.45 333.5,-262.5 333.5,-262.5 333.5,-262.5 333.5,-132 333.5,-101.9 330.96,-88.02 352.5,-67 389.02,-31.37 447.68,-20.13 490.17,-16.95"/>
<polygon fill="midnightblue" stroke="midnightblue" points="362.09,-362.44 370.19,-369.27 368.12,-358.88 362.09,-362.44"/>
</g>
<!-- Node16&#45;&gt;Node6 -->
<g id="edge26" class="edge">
<title>Node16&#45;&gt;Node6</title>
<path fill="none" stroke="midnightblue" d="M376.95,-359.23C374.61,-334.82 371.5,-296.09 371.5,-262.5 371.5,-262.5 371.5,-262.5 371.5,-193.5 371.5,-130.81 451.41,-99.85 501.98,-86.54"/>
<polygon fill="midnightblue" stroke="midnightblue" points="373.49,-359.76 377.96,-369.36 380.45,-359.07 373.49,-359.76"/>
</g>
<!-- Node17 -->
<g id="node17" class="node">
<title>Node17</title>
<g id="a_node17"><a xlink:href="member_8h.html" target="_top" xlink:title=" ">
<polygon fill="white" stroke="black" points="437.5,-313.5 437.5,-332.5 559.5,-332.5 559.5,-313.5 437.5,-313.5"/>
<text text-anchor="middle" x="498.5" y="-320.5" font-family="Helvetica,sans-Serif" font-size="10.00">include/cppgc/member.h</text>
</a>
</g>
</g>
<!-- Node16&#45;&gt;Node17 -->
<g id="edge22" class="edge">
<title>Node16&#45;&gt;Node17</title>
<path fill="none" stroke="midnightblue" d="M416.91,-364.8C438.41,-354.04 464.41,-341.05 481.18,-332.66"/>
<polygon fill="midnightblue" stroke="midnightblue" points="415.08,-361.8 407.7,-369.4 418.21,-368.06 415.08,-361.8"/>
</g>
<!-- Node17&#45;&gt;Node4 -->
<g id="edge25" class="edge">
<title>Node17&#45;&gt;Node4</title>
<path fill="none" stroke="midnightblue" d="M487.73,-304.36C472.3,-276.66 447.73,-221.73 466.5,-179 473.47,-163.14 489.09,-150.42 500.84,-142.6"/>
<polygon fill="midnightblue" stroke="midnightblue" points="484.85,-306.37 492.9,-313.26 490.9,-302.85 484.85,-306.37"/>
</g>
<!-- Node17&#45;&gt;Node11 -->
<g id="edge24" class="edge">
<title>Node17&#45;&gt;Node11</title>
<path fill="none" stroke="midnightblue" d="M526.82,-309.33C548.34,-299.7 577.92,-286.47 600.15,-276.52"/>
<polygon fill="midnightblue" stroke="midnightblue" points="525.25,-306.2 517.56,-313.48 528.11,-312.59 525.25,-306.2"/>
</g>
<!-- Node17&#45;&gt;Node12 -->
<g id="edge23" class="edge">
<title>Node17&#45;&gt;Node12</title>
<path fill="none" stroke="midnightblue" d="M504.4,-303.79C512.62,-278.44 527.34,-233.02 534.84,-209.89"/>
<polygon fill="midnightblue" stroke="midnightblue" points="501.07,-302.71 501.32,-313.31 507.73,-304.87 501.07,-302.71"/>
</g>
</g>
</svg>
