<?xml version="1.0" encoding="UTF-8" standalone="no"?>
<!DOCTYPE svg PUBLIC "-//W3C//DTD SVG 1.1//EN"
 "http://www.w3.org/Graphics/SVG/1.1/DTD/svg11.dtd">
<!-- Generated by graphviz version 2.49.3 (20211027.1534)
 -->
<!-- Title: v8::JitCodeEvent Pages: 1 -->
<svg width="571pt" height="147pt"
 viewBox="0.00 0.00 571.00 147.00" xmlns="http://www.w3.org/2000/svg" xmlns:xlink="http://www.w3.org/1999/xlink">
<g id="graph0" class="graph" transform="scale(1 1) rotate(0) translate(4 143)">
<title>v8::JitCodeEvent</title>
<polygon fill="white" stroke="transparent" points="-4,4 -4,-143 567,-143 567,4 -4,4"/>
<!-- Node1 -->
<g id="node1" class="node">
<title>Node1</title>
<g id="a_node1"><a xlink:title=" ">
<polygon fill="#bfbfbf" stroke="black" points="474,-60.5 474,-79.5 563,-79.5 563,-60.5 474,-60.5"/>
<text text-anchor="middle" x="518.5" y="-67.5" font-family="Helvetica,sans-Serif" font-size="10.00">v8::JitCodeEvent</text>
</a>
</g>
</g>
<!-- Node2 -->
<g id="node2" class="node">
<title>Node2</title>
<g id="a_node2"><a xlink:href="structv8_1_1JitCodeEvent_1_1wasm__source__info__t.html" target="_top" xlink:title=" ">
<polygon fill="white" stroke="black" points="230,-77 230,-107 350,-107 350,-77 230,-77"/>
<text text-anchor="start" x="238" y="-95" font-family="Helvetica,sans-Serif" font-size="10.00">v8::JitCodeEvent::wasm</text>
<text text-anchor="middle" x="290" y="-84" font-family="Helvetica,sans-Serif" font-size="10.00">_source_info_t</text>
</a>
</g>
</g>
<!-- Node2&#45;&gt;Node1 -->
<g id="edge1" class="edge">
<title>Node2&#45;&gt;Node1</title>
<path fill="none" stroke="#9a32cd" stroke-dasharray="5,2" d="M360.41,-85.26C397.31,-81.67 441.54,-77.38 473.66,-74.26"/>
<polygon fill="#9a32cd" stroke="#9a32cd" points="359.83,-81.8 350.21,-86.25 360.51,-88.77 359.83,-81.8"/>
<text text-anchor="middle" x="413.5" y="-86" font-family="Helvetica,sans-Serif" font-size="10.00"> wasm_source_info</text>
</g>
<!-- Node3 -->
<g id="node3" class="node">
<title>Node3</title>
<g id="a_node3"><a xlink:href="structv8_1_1JitCodeEvent_1_1line__info__t.html" target="_top" xlink:title=" ">
<polygon fill="white" stroke="black" points="0,-103 0,-133 109,-133 109,-103 0,-103"/>
<text text-anchor="start" x="8" y="-121" font-family="Helvetica,sans-Serif" font-size="10.00">v8::JitCodeEvent::line</text>
<text text-anchor="middle" x="54.5" y="-110" font-family="Helvetica,sans-Serif" font-size="10.00">_info_t</text>
</a>
</g>
</g>
<!-- Node3&#45;&gt;Node1 -->
<g id="edge4" class="edge">
<title>Node3&#45;&gt;Node1</title>
<path fill="none" stroke="#9a32cd" stroke-dasharray="5,2" d="M119.14,-124.52C199.63,-130.6 341.53,-134.02 456,-98 471.22,-93.21 487.63,-85.61 499.66,-79.53"/>
<polygon fill="#9a32cd" stroke="#9a32cd" points="119.4,-121.03 109.16,-123.73 118.85,-128.01 119.4,-121.03"/>
<text text-anchor="middle" x="290" y="-131" font-family="Helvetica,sans-Serif" font-size="10.00"> line_info</text>
</g>
<!-- Node3&#45;&gt;Node2 -->
<g id="edge2" class="edge">
<title>Node3&#45;&gt;Node2</title>
<path fill="none" stroke="#9a32cd" stroke-dasharray="5,2" d="M119.06,-110.92C153.62,-107.07 196.1,-102.34 229.94,-98.58"/>
<polygon fill="#9a32cd" stroke="#9a32cd" points="118.62,-107.45 109.07,-112.04 119.4,-114.41 118.62,-107.45"/>
<text text-anchor="middle" x="168" y="-112" font-family="Helvetica,sans-Serif" font-size="10.00"> line_number_table</text>
</g>
<!-- Node4 -->
<g id="node4" class="node">
<title>Node4</title>
<g id="a_node4"><a xlink:href="structv8_1_1JitCodeEvent_1_1name__t.html" target="_top" xlink:title=" ">
<polygon fill="white" stroke="black" points="227,-38.5 227,-57.5 353,-57.5 353,-38.5 227,-38.5"/>
<text text-anchor="middle" x="290" y="-45.5" font-family="Helvetica,sans-Serif" font-size="10.00">v8::JitCodeEvent::name_t</text>
</a>
</g>
</g>
<!-- Node4&#45;&gt;Node1 -->
<g id="edge3" class="edge">
<title>Node4&#45;&gt;Node1</title>
<path fill="none" stroke="#9a32cd" stroke-dasharray="5,2" d="M363.38,-52.65C392.24,-54.78 425.73,-57.6 456,-61 461.79,-61.65 467.87,-62.43 473.87,-63.25"/>
<polygon fill="#9a32cd" stroke="#9a32cd" points="363.61,-49.16 353.38,-51.93 363.1,-56.14 363.61,-49.16"/>
<text text-anchor="middle" x="413.5" y="-64" font-family="Helvetica,sans-Serif" font-size="10.00"> name</text>
</g>
<!-- Node5 -->
<g id="node5" class="node">
<title>Node5</title>
<g id="a_node5"><a xlink:href="classv8_1_1Isolate.html" target="_top" xlink:title=" ">
<polygon fill="white" stroke="black" points="259.5,-0.5 259.5,-19.5 320.5,-19.5 320.5,-0.5 259.5,-0.5"/>
<text text-anchor="middle" x="290" y="-7.5" font-family="Helvetica,sans-Serif" font-size="10.00">v8::Isolate</text>
</a>
</g>
</g>
<!-- Node5&#45;&gt;Node1 -->
<g id="edge5" class="edge">
<title>Node5&#45;&gt;Node1</title>
<path fill="none" stroke="#9a32cd" stroke-dasharray="5,2" d="M330.59,-13.23C364.55,-16.81 414.44,-24.05 456,-38 472.66,-43.59 490.32,-53.21 502.42,-60.45"/>
<polygon fill="#9a32cd" stroke="#9a32cd" points="330.88,-9.74 320.58,-12.23 330.19,-16.7 330.88,-9.74"/>
<text text-anchor="middle" x="413.5" y="-41" font-family="Helvetica,sans-Serif" font-size="10.00"> isolate</text>
</g>
</g>
</svg>
