<?xml version="1.0" encoding="UTF-8" standalone="no"?>
<!DOCTYPE svg PUBLIC "-//W3C//DTD SVG 1.1//EN"
 "http://www.w3.org/Graphics/SVG/1.1/DTD/svg11.dtd">
<!-- Generated by graphviz version 2.49.3 (20211027.1534)
 -->
<!-- Title: include/v8&#45;object.h Pages: 1 -->
<svg width="1051pt" height="364pt"
 viewBox="0.00 0.00 1051.00 364.00" xmlns="http://www.w3.org/2000/svg" xmlns:xlink="http://www.w3.org/1999/xlink">
<g id="graph0" class="graph" transform="scale(1 1) rotate(0) translate(4 360)">
<title>include/v8&#45;object.h</title>
<polygon fill="white" stroke="transparent" points="-4,4 -4,-360 1047,-360 1047,4 -4,4"/>
<!-- Node1 -->
<g id="node1" class="node">
<title>Node1</title>
<g id="a_node1"><a xlink:title=" ">
<polygon fill="#bfbfbf" stroke="black" points="285,-336.5 285,-355.5 383,-355.5 383,-336.5 285,-336.5"/>
<text text-anchor="middle" x="334" y="-343.5" font-family="Helvetica,sans-Serif" font-size="10.00">include/v8&#45;object.h</text>
</a>
</g>
</g>
<!-- Node2 -->
<g id="node2" class="node">
<title>Node2</title>
<g id="a_node2"><a xlink:href="v8-local-handle_8h.html" target="_top" xlink:title=" ">
<polygon fill="white" stroke="black" points="508.5,-112.5 508.5,-131.5 597.5,-131.5 597.5,-112.5 508.5,-112.5"/>
<text text-anchor="middle" x="553" y="-119.5" font-family="Helvetica,sans-Serif" font-size="10.00">v8&#45;local&#45;handle.h</text>
</a>
</g>
</g>
<!-- Node1&#45;&gt;Node2 -->
<g id="edge1" class="edge">
<title>Node1&#45;&gt;Node2</title>
<path fill="none" stroke="midnightblue" d="M365.19,-336.43C389.81,-328.9 424.48,-316.56 452,-300 484.39,-280.52 493.33,-274.24 516,-244 532.46,-222.04 533.86,-214.21 542,-188 546.73,-172.78 549.57,-154.89 551.17,-141.74"/>
<polygon fill="midnightblue" stroke="midnightblue" points="554.67,-141.9 552.28,-131.58 547.72,-141.14 554.67,-141.9"/>
</g>
<!-- Node9 -->
<g id="node9" class="node">
<title>Node9</title>
<g id="a_node9"><a xlink:href="v8config_8h.html" target="_top" xlink:title=" ">
<polygon fill="white" stroke="black" points="160,-0.5 160,-19.5 220,-19.5 220,-0.5 160,-0.5"/>
<text text-anchor="middle" x="190" y="-7.5" font-family="Helvetica,sans-Serif" font-size="10.00">v8config.h</text>
</a>
</g>
</g>
<!-- Node1&#45;&gt;Node9 -->
<g id="edge46" class="edge">
<title>Node1&#45;&gt;Node9</title>
<path fill="none" stroke="midnightblue" d="M284.72,-339.19C191.81,-326.85 0,-294.22 0,-235 0,-235 0,-235 0,-121 0,-52.29 94.22,-25.8 149.97,-16.14"/>
<polygon fill="midnightblue" stroke="midnightblue" points="150.58,-19.59 159.89,-14.53 149.46,-12.68 150.58,-19.59"/>
</g>
<!-- Node10 -->
<g id="node10" class="node">
<title>Node10</title>
<g id="a_node10"><a xlink:href="v8-maybe_8h.html" target="_top" xlink:title=" ">
<polygon fill="white" stroke="black" points="66,-168.5 66,-187.5 132,-187.5 132,-168.5 66,-168.5"/>
<text text-anchor="middle" x="99" y="-175.5" font-family="Helvetica,sans-Serif" font-size="10.00">v8&#45;maybe.h</text>
</a>
</g>
</g>
<!-- Node1&#45;&gt;Node10 -->
<g id="edge11" class="edge">
<title>Node1&#45;&gt;Node10</title>
<path fill="none" stroke="midnightblue" d="M321.7,-336.31C283.55,-309.36 166.97,-227.01 119.47,-193.46"/>
<polygon fill="midnightblue" stroke="midnightblue" points="121.37,-190.52 111.18,-187.61 117.33,-196.23 121.37,-190.52"/>
</g>
<!-- Node11 -->
<g id="node11" class="node">
<title>Node11</title>
<g id="a_node11"><a xlink:href="v8-persistent-handle_8h.html" target="_top" xlink:title=" ">
<polygon fill="white" stroke="black" points="190,-168.5 190,-187.5 302,-187.5 302,-168.5 190,-168.5"/>
<text text-anchor="middle" x="246" y="-175.5" font-family="Helvetica,sans-Serif" font-size="10.00">v8&#45;persistent&#45;handle.h</text>
</a>
</g>
</g>
<!-- Node1&#45;&gt;Node11 -->
<g id="edge14" class="edge">
<title>Node1&#45;&gt;Node11</title>
<path fill="none" stroke="midnightblue" d="M329.27,-336.08C315.3,-309.72 274.03,-231.88 255.36,-196.66"/>
<polygon fill="midnightblue" stroke="midnightblue" points="258.32,-194.76 250.54,-187.57 252.13,-198.04 258.32,-194.76"/>
</g>
<!-- Node13 -->
<g id="node13" class="node">
<title>Node13</title>
<g id="a_node13"><a xlink:href="v8-primitive_8h.html" target="_top" xlink:title=" ">
<polygon fill="white" stroke="black" points="369,-280.5 369,-299.5 443,-299.5 443,-280.5 369,-280.5"/>
<text text-anchor="middle" x="406" y="-287.5" font-family="Helvetica,sans-Serif" font-size="10.00">v8&#45;primitive.h</text>
</a>
</g>
</g>
<!-- Node1&#45;&gt;Node13 -->
<g id="edge20" class="edge">
<title>Node1&#45;&gt;Node13</title>
<path fill="none" stroke="midnightblue" d="M345.57,-336.32C356.42,-328.18 372.88,-315.84 385.88,-306.09"/>
<polygon fill="midnightblue" stroke="midnightblue" points="388.32,-308.63 394.22,-299.83 384.12,-303.03 388.32,-308.63"/>
</g>
<!-- Node15 -->
<g id="node15" class="node">
<title>Node15</title>
<g id="a_node15"><a xlink:href="v8-value_8h.html" target="_top" xlink:title=" ">
<polygon fill="white" stroke="black" points="303.5,-224.5 303.5,-243.5 364.5,-243.5 364.5,-224.5 303.5,-224.5"/>
<text text-anchor="middle" x="334" y="-231.5" font-family="Helvetica,sans-Serif" font-size="10.00">v8&#45;value.h</text>
</a>
</g>
</g>
<!-- Node1&#45;&gt;Node15 -->
<g id="edge45" class="edge">
<title>Node1&#45;&gt;Node15</title>
<path fill="none" stroke="midnightblue" d="M334,-336.37C334,-318.62 334,-277.67 334,-253.6"/>
<polygon fill="midnightblue" stroke="midnightblue" points="337.5,-253.59 334,-243.59 330.5,-253.59 337.5,-253.59"/>
</g>
<!-- Node16 -->
<g id="node16" class="node">
<title>Node16</title>
<g id="a_node16"><a xlink:href="v8-traced-handle_8h.html" target="_top" xlink:title=" ">
<polygon fill="white" stroke="black" points="701,-168.5 701,-187.5 797,-187.5 797,-168.5 701,-168.5"/>
<text text-anchor="middle" x="749" y="-175.5" font-family="Helvetica,sans-Serif" font-size="10.00">v8&#45;traced&#45;handle.h</text>
</a>
</g>
</g>
<!-- Node1&#45;&gt;Node16 -->
<g id="edge33" class="edge">
<title>Node1&#45;&gt;Node16</title>
<path fill="none" stroke="midnightblue" d="M383.11,-341.46C432.03,-336.6 508.5,-325.38 570,-300 635.29,-273.05 701.37,-220.29 731.76,-194.26"/>
<polygon fill="midnightblue" stroke="midnightblue" points="734.1,-196.87 739.36,-187.67 729.51,-191.58 734.1,-196.87"/>
</g>
<!-- Node3 -->
<g id="node3" class="node">
<title>Node3</title>
<g id="a_node3"><a xlink:title=" ">
<polygon fill="white" stroke="#bfbfbf" points="672.5,-0.5 672.5,-19.5 723.5,-19.5 723.5,-0.5 672.5,-0.5"/>
<text text-anchor="middle" x="698" y="-7.5" font-family="Helvetica,sans-Serif" font-size="10.00">stddef.h</text>
</a>
</g>
</g>
<!-- Node2&#45;&gt;Node3 -->
<g id="edge2" class="edge">
<title>Node2&#45;&gt;Node3</title>
<path fill="none" stroke="midnightblue" d="M565.68,-112.22C578.5,-103.28 598.82,-88.93 616,-76 638.25,-59.25 663.25,-39.26 679.73,-25.91"/>
<polygon fill="midnightblue" stroke="midnightblue" points="681.96,-28.61 687.52,-19.59 677.55,-23.17 681.96,-28.61"/>
</g>
<!-- Node4 -->
<g id="node4" class="node">
<title>Node4</title>
<g id="a_node4"><a xlink:title=" ">
<polygon fill="white" stroke="#bfbfbf" points="592,-0.5 592,-19.5 654,-19.5 654,-0.5 592,-0.5"/>
<text text-anchor="middle" x="623" y="-7.5" font-family="Helvetica,sans-Serif" font-size="10.00">type_traits</text>
</a>
</g>
</g>
<!-- Node2&#45;&gt;Node4 -->
<g id="edge3" class="edge">
<title>Node2&#45;&gt;Node4</title>
<path fill="none" stroke="midnightblue" d="M563.34,-112.23C572.84,-103.74 586.79,-90.12 596,-76 605.48,-61.47 612.76,-43.05 617.35,-29.54"/>
<polygon fill="midnightblue" stroke="midnightblue" points="620.71,-30.51 620.45,-19.91 614.05,-28.36 620.71,-30.51"/>
</g>
<!-- Node5 -->
<g id="node5" class="node">
<title>Node5</title>
<g id="a_node5"><a xlink:href="v8-internal_8h.html" target="_top" xlink:title=" ">
<polygon fill="white" stroke="black" points="518.5,-56.5 518.5,-75.5 587.5,-75.5 587.5,-56.5 518.5,-56.5"/>
<text text-anchor="middle" x="553" y="-63.5" font-family="Helvetica,sans-Serif" font-size="10.00">v8&#45;internal.h</text>
</a>
</g>
</g>
<!-- Node2&#45;&gt;Node5 -->
<g id="edge4" class="edge">
<title>Node2&#45;&gt;Node5</title>
<path fill="none" stroke="midnightblue" d="M553,-112.08C553,-105.01 553,-94.86 553,-85.99"/>
<polygon fill="midnightblue" stroke="midnightblue" points="556.5,-85.75 553,-75.75 549.5,-85.75 556.5,-85.75"/>
</g>
<!-- Node5&#45;&gt;Node3 -->
<g id="edge5" class="edge">
<title>Node5&#45;&gt;Node3</title>
<path fill="none" stroke="midnightblue" d="M575.98,-56.44C600.16,-47.44 638.42,-33.19 665.65,-23.05"/>
<polygon fill="midnightblue" stroke="midnightblue" points="666.98,-26.29 675.13,-19.52 664.54,-19.73 666.98,-26.29"/>
</g>
<!-- Node5&#45;&gt;Node4 -->
<g id="edge8" class="edge">
<title>Node5&#45;&gt;Node4</title>
<path fill="none" stroke="midnightblue" d="M564.25,-56.32C574.8,-48.18 590.8,-35.84 603.44,-26.09"/>
<polygon fill="midnightblue" stroke="midnightblue" points="605.77,-28.71 611.55,-19.83 601.49,-23.17 605.77,-28.71"/>
</g>
<!-- Node6 -->
<g id="node6" class="node">
<title>Node6</title>
<g id="a_node6"><a xlink:title=" ">
<polygon fill="white" stroke="#bfbfbf" points="844,-0.5 844,-19.5 892,-19.5 892,-0.5 844,-0.5"/>
<text text-anchor="middle" x="868" y="-7.5" font-family="Helvetica,sans-Serif" font-size="10.00">stdint.h</text>
</a>
</g>
</g>
<!-- Node5&#45;&gt;Node6 -->
<g id="edge6" class="edge">
<title>Node5&#45;&gt;Node6</title>
<path fill="none" stroke="midnightblue" d="M587.61,-59.07C648.22,-48.68 772.87,-27.31 833.44,-16.92"/>
<polygon fill="midnightblue" stroke="midnightblue" points="834.37,-20.32 843.63,-15.18 833.18,-13.42 834.37,-20.32"/>
</g>
<!-- Node7 -->
<g id="node7" class="node">
<title>Node7</title>
<g id="a_node7"><a xlink:title=" ">
<polygon fill="white" stroke="#bfbfbf" points="526,-0.5 526,-19.5 574,-19.5 574,-0.5 526,-0.5"/>
<text text-anchor="middle" x="550" y="-7.5" font-family="Helvetica,sans-Serif" font-size="10.00">string.h</text>
</a>
</g>
</g>
<!-- Node5&#45;&gt;Node7 -->
<g id="edge7" class="edge">
<title>Node5&#45;&gt;Node7</title>
<path fill="none" stroke="midnightblue" d="M552.5,-56.08C552.11,-49.01 551.55,-38.86 551.05,-29.99"/>
<polygon fill="midnightblue" stroke="midnightblue" points="554.54,-29.54 550.49,-19.75 547.55,-29.93 554.54,-29.54"/>
</g>
<!-- Node8 -->
<g id="node8" class="node">
<title>Node8</title>
<g id="a_node8"><a xlink:href="v8-version_8h.html" target="_top" xlink:title=" ">
<polygon fill="white" stroke="black" points="438.5,-0.5 438.5,-19.5 507.5,-19.5 507.5,-0.5 438.5,-0.5"/>
<text text-anchor="middle" x="473" y="-7.5" font-family="Helvetica,sans-Serif" font-size="10.00">v8&#45;version.h</text>
</a>
</g>
</g>
<!-- Node5&#45;&gt;Node8 -->
<g id="edge9" class="edge">
<title>Node5&#45;&gt;Node8</title>
<path fill="none" stroke="midnightblue" d="M540.15,-56.32C527.78,-47.98 508.87,-35.21 494.26,-25.35"/>
<polygon fill="midnightblue" stroke="midnightblue" points="496.07,-22.35 485.82,-19.65 492.15,-28.15 496.07,-22.35"/>
</g>
<!-- Node5&#45;&gt;Node9 -->
<g id="edge10" class="edge">
<title>Node5&#45;&gt;Node9</title>
<path fill="none" stroke="midnightblue" d="M518.5,-58.49C513.63,-57.62 508.69,-56.77 504,-56 406.07,-40 290.44,-24.23 230.54,-16.29"/>
<polygon fill="midnightblue" stroke="midnightblue" points="230.74,-12.79 220.37,-14.95 229.83,-19.73 230.74,-12.79"/>
</g>
<!-- Node10&#45;&gt;Node5 -->
<g id="edge12" class="edge">
<title>Node10&#45;&gt;Node5</title>
<path fill="none" stroke="midnightblue" d="M116.75,-168.43C146.36,-154.49 208.03,-126.96 263,-112 347.93,-88.89 450.29,-76.48 507.88,-70.85"/>
<polygon fill="midnightblue" stroke="midnightblue" points="508.48,-74.31 518.1,-69.88 507.82,-67.34 508.48,-74.31"/>
</g>
<!-- Node10&#45;&gt;Node9 -->
<g id="edge13" class="edge">
<title>Node10&#45;&gt;Node9</title>
<path fill="none" stroke="midnightblue" d="M100.14,-168.39C103.24,-147.56 113.27,-93.36 138,-56 145.82,-44.18 157.58,-33.64 167.93,-25.74"/>
<polygon fill="midnightblue" stroke="midnightblue" points="170.15,-28.46 176.19,-19.75 166.04,-22.79 170.15,-28.46"/>
</g>
<!-- Node11&#45;&gt;Node2 -->
<g id="edge16" class="edge">
<title>Node11&#45;&gt;Node2</title>
<path fill="none" stroke="midnightblue" d="M294.65,-168.44C349.99,-158.71 440.17,-142.85 498.02,-132.67"/>
<polygon fill="midnightblue" stroke="midnightblue" points="498.84,-136.08 508.08,-130.9 497.62,-129.19 498.84,-136.08"/>
</g>
<!-- Node11&#45;&gt;Node5 -->
<g id="edge15" class="edge">
<title>Node11&#45;&gt;Node5</title>
<path fill="none" stroke="midnightblue" d="M248.62,-168.17C253.35,-153.85 264.78,-125.79 285,-112 320.52,-87.78 441.3,-75.24 507.93,-70.02"/>
<polygon fill="midnightblue" stroke="midnightblue" points="508.44,-73.49 518.14,-69.25 507.91,-66.51 508.44,-73.49"/>
</g>
<!-- Node11&#45;&gt;Node9 -->
<g id="edge19" class="edge">
<title>Node11&#45;&gt;Node9</title>
<path fill="none" stroke="midnightblue" d="M242.99,-168.08C234.14,-141.83 208.06,-64.55 196.11,-29.12"/>
<polygon fill="midnightblue" stroke="midnightblue" points="199.4,-27.92 192.89,-19.57 192.77,-30.16 199.4,-27.92"/>
</g>
<!-- Node12 -->
<g id="node12" class="node">
<title>Node12</title>
<g id="a_node12"><a xlink:href="v8-weak-callback-info_8h.html" target="_top" xlink:title=" ">
<polygon fill="white" stroke="black" points="294.5,-112.5 294.5,-131.5 413.5,-131.5 413.5,-112.5 294.5,-112.5"/>
<text text-anchor="middle" x="354" y="-119.5" font-family="Helvetica,sans-Serif" font-size="10.00">v8&#45;weak&#45;callback&#45;info.h</text>
</a>
</g>
</g>
<!-- Node11&#45;&gt;Node12 -->
<g id="edge17" class="edge">
<title>Node11&#45;&gt;Node12</title>
<path fill="none" stroke="midnightblue" d="M263.35,-168.32C280.67,-159.66 307.52,-146.24 327.5,-136.25"/>
<polygon fill="midnightblue" stroke="midnightblue" points="329.31,-139.26 336.69,-131.65 326.18,-133 329.31,-139.26"/>
</g>
<!-- Node12&#45;&gt;Node9 -->
<g id="edge18" class="edge">
<title>Node12&#45;&gt;Node9</title>
<path fill="none" stroke="midnightblue" d="M345.5,-112.2C332.33,-98.9 305.82,-73.37 280,-56 261.17,-43.33 238.26,-31.93 220.28,-23.77"/>
<polygon fill="midnightblue" stroke="midnightblue" points="221.41,-20.44 210.85,-19.59 218.57,-26.84 221.41,-20.44"/>
</g>
<!-- Node13&#45;&gt;Node2 -->
<g id="edge25" class="edge">
<title>Node13&#45;&gt;Node2</title>
<path fill="none" stroke="midnightblue" d="M433.06,-280.37C452.08,-273.17 477.06,-261.27 494,-244 523.22,-214.22 540.37,-167.14 548.09,-141.37"/>
<polygon fill="midnightblue" stroke="midnightblue" points="551.46,-142.31 550.82,-131.74 544.72,-140.4 551.46,-142.31"/>
</g>
<!-- Node13&#45;&gt;Node5 -->
<g id="edge24" class="edge">
<title>Node13&#45;&gt;Node5</title>
<path fill="none" stroke="midnightblue" d="M410.81,-280.41C420.5,-263.05 442.98,-222.51 461,-188 478.48,-154.52 475.55,-141.6 499,-112 508.12,-100.49 520.59,-89.86 531.25,-81.82"/>
<polygon fill="midnightblue" stroke="midnightblue" points="533.63,-84.43 539.67,-75.72 529.52,-78.76 533.63,-84.43"/>
</g>
<!-- Node13&#45;&gt;Node9 -->
<g id="edge32" class="edge">
<title>Node13&#45;&gt;Node9</title>
<path fill="none" stroke="midnightblue" d="M368.95,-283.9C287.07,-271.79 94.95,-238.48 57,-188 11.33,-127.24 115.58,-54.73 165.39,-24.88"/>
<polygon fill="midnightblue" stroke="midnightblue" points="167.43,-27.74 174.28,-19.66 163.89,-21.7 167.43,-27.74"/>
</g>
<!-- Node14 -->
<g id="node14" class="node">
<title>Node14</title>
<g id="a_node14"><a xlink:href="v8-data_8h.html" target="_top" xlink:title=" ">
<polygon fill="white" stroke="black" points="396,-168.5 396,-187.5 452,-187.5 452,-168.5 396,-168.5"/>
<text text-anchor="middle" x="424" y="-175.5" font-family="Helvetica,sans-Serif" font-size="10.00">v8&#45;data.h</text>
</a>
</g>
</g>
<!-- Node13&#45;&gt;Node14 -->
<g id="edge21" class="edge">
<title>Node13&#45;&gt;Node14</title>
<path fill="none" stroke="midnightblue" d="M407.41,-280.37C410.32,-262.62 417.02,-221.67 420.96,-197.6"/>
<polygon fill="midnightblue" stroke="midnightblue" points="424.43,-198.03 422.59,-187.59 417.53,-196.89 424.43,-198.03"/>
</g>
<!-- Node13&#45;&gt;Node15 -->
<g id="edge26" class="edge">
<title>Node13&#45;&gt;Node15</title>
<path fill="none" stroke="midnightblue" d="M394.43,-280.32C383.58,-272.18 367.12,-259.84 354.12,-250.09"/>
<polygon fill="midnightblue" stroke="midnightblue" points="355.88,-247.03 345.78,-243.83 351.68,-252.63 355.88,-247.03"/>
</g>
<!-- Node14&#45;&gt;Node2 -->
<g id="edge22" class="edge">
<title>Node14&#45;&gt;Node2</title>
<path fill="none" stroke="midnightblue" d="M444.44,-168.44C465.67,-159.56 499.1,-145.56 523.25,-135.45"/>
<polygon fill="midnightblue" stroke="midnightblue" points="524.78,-138.61 532.66,-131.52 522.08,-132.15 524.78,-138.61"/>
</g>
<!-- Node14&#45;&gt;Node9 -->
<g id="edge23" class="edge">
<title>Node14&#45;&gt;Node9</title>
<path fill="none" stroke="midnightblue" d="M395.99,-172.91C366.28,-167.5 319.01,-155.73 285,-132 274.43,-124.63 225.83,-59.63 202.53,-28.06"/>
<polygon fill="midnightblue" stroke="midnightblue" points="205.17,-25.75 196.43,-19.78 199.54,-29.9 205.17,-25.75"/>
</g>
<!-- Node15&#45;&gt;Node2 -->
<g id="edge29" class="edge">
<title>Node15&#45;&gt;Node2</title>
<path fill="none" stroke="midnightblue" d="M338.63,-224.39C346.6,-210.38 364.28,-182.75 387,-168 420.37,-146.34 463.96,-135.04 498.1,-129.18"/>
<polygon fill="midnightblue" stroke="midnightblue" points="499.05,-132.57 508.37,-127.53 497.94,-125.66 499.05,-132.57"/>
</g>
<!-- Node15&#45;&gt;Node5 -->
<g id="edge28" class="edge">
<title>Node15&#45;&gt;Node5</title>
<path fill="none" stroke="midnightblue" d="M335.62,-224.42C338.55,-210.94 345.88,-184.65 361,-168 367.18,-161.19 475.79,-105.93 526.86,-80.15"/>
<polygon fill="midnightblue" stroke="midnightblue" points="528.62,-83.18 535.98,-75.56 525.47,-76.93 528.62,-83.18"/>
</g>
<!-- Node15&#45;&gt;Node9 -->
<g id="edge31" class="edge">
<title>Node15&#45;&gt;Node9</title>
<path fill="none" stroke="midnightblue" d="M303.48,-228.39C263.2,-221.62 195.68,-207.62 181,-188 145.42,-140.44 168.61,-63.97 182.18,-29.23"/>
<polygon fill="midnightblue" stroke="midnightblue" points="185.46,-30.44 186,-19.86 178.98,-27.8 185.46,-30.44"/>
</g>
<!-- Node15&#45;&gt;Node10 -->
<g id="edge30" class="edge">
<title>Node15&#45;&gt;Node10</title>
<path fill="none" stroke="midnightblue" d="M303.28,-225.94C262.01,-216.46 188.49,-199.56 141.82,-188.84"/>
<polygon fill="midnightblue" stroke="midnightblue" points="142.53,-185.41 132,-186.58 140.96,-192.23 142.53,-185.41"/>
</g>
<!-- Node15&#45;&gt;Node14 -->
<g id="edge27" class="edge">
<title>Node15&#45;&gt;Node14</title>
<path fill="none" stroke="midnightblue" d="M348.46,-224.32C362.5,-215.9 384.05,-202.97 400.54,-193.07"/>
<polygon fill="midnightblue" stroke="midnightblue" points="402.8,-195.8 409.58,-187.65 399.2,-189.8 402.8,-195.8"/>
</g>
<!-- Node16&#45;&gt;Node2 -->
<g id="edge42" class="edge">
<title>Node16&#45;&gt;Node2</title>
<path fill="none" stroke="midnightblue" d="M717.94,-168.44C684.4,-159.2 630.8,-144.44 593.86,-134.26"/>
<polygon fill="midnightblue" stroke="midnightblue" points="594.48,-130.8 583.91,-131.52 592.62,-137.55 594.48,-130.8"/>
</g>
<!-- Node16&#45;&gt;Node3 -->
<g id="edge34" class="edge">
<title>Node16&#45;&gt;Node3</title>
<path fill="none" stroke="midnightblue" d="M797.41,-175.88C853.21,-172.39 934.53,-159.31 912,-112 879.94,-44.68 785.77,-22.05 733.68,-14.58"/>
<polygon fill="midnightblue" stroke="midnightblue" points="733.92,-11.08 723.55,-13.24 733,-18.02 733.92,-11.08"/>
</g>
<!-- Node16&#45;&gt;Node4 -->
<g id="edge39" class="edge">
<title>Node16&#45;&gt;Node4</title>
<path fill="none" stroke="midnightblue" d="M768.01,-168.38C790.66,-156.84 823.79,-135.13 810,-112 792.54,-82.72 702.87,-43.09 654.32,-23.31"/>
<polygon fill="midnightblue" stroke="midnightblue" points="655.49,-20.01 644.91,-19.51 652.87,-26.5 655.49,-20.01"/>
</g>
<!-- Node16&#45;&gt;Node5 -->
<g id="edge41" class="edge">
<title>Node16&#45;&gt;Node5</title>
<path fill="none" stroke="midnightblue" d="M735.05,-168.31C714.47,-155.58 674.66,-131.28 640,-112 619.94,-100.84 596.84,-88.94 579.49,-80.18"/>
<polygon fill="midnightblue" stroke="midnightblue" points="581,-77.02 570.5,-75.66 577.86,-83.28 581,-77.02"/>
</g>
<!-- Node16&#45;&gt;Node6 -->
<g id="edge35" class="edge">
<title>Node16&#45;&gt;Node6</title>
<path fill="none" stroke="midnightblue" d="M797.39,-171.43C844.48,-164.9 911.19,-152.31 927,-132 953.3,-98.22 911.76,-50.83 885.99,-26.6"/>
<polygon fill="midnightblue" stroke="midnightblue" points="888.04,-23.74 878.29,-19.6 883.33,-28.92 888.04,-23.74"/>
</g>
<!-- Node16&#45;&gt;Node9 -->
<g id="edge44" class="edge">
<title>Node16&#45;&gt;Node9</title>
<path fill="none" stroke="midnightblue" d="M725.62,-168.44C703.25,-160 668.78,-146.32 640,-132 624.3,-124.19 622.25,-118.58 606,-112 473.77,-58.42 305.93,-28.4 230.24,-16.74"/>
<polygon fill="midnightblue" stroke="midnightblue" points="230.59,-13.25 220.18,-15.21 229.54,-20.17 230.59,-13.25"/>
</g>
<!-- Node16&#45;&gt;Node12 -->
<g id="edge43" class="edge">
<title>Node16&#45;&gt;Node12</title>
<path fill="none" stroke="midnightblue" d="M700.96,-170.43C631.66,-160.96 503.22,-143.4 423.55,-132.51"/>
<polygon fill="midnightblue" stroke="midnightblue" points="423.99,-129.04 413.6,-131.15 423.04,-135.97 423.99,-129.04"/>
</g>
<!-- Node17 -->
<g id="node17" class="node">
<title>Node17</title>
<g id="a_node17"><a xlink:title=" ">
<polygon fill="white" stroke="#bfbfbf" points="857.5,-112.5 857.5,-131.5 902.5,-131.5 902.5,-112.5 857.5,-112.5"/>
<text text-anchor="middle" x="880" y="-119.5" font-family="Helvetica,sans-Serif" font-size="10.00">stdio.h</text>
</a>
</g>
</g>
<!-- Node16&#45;&gt;Node17 -->
<g id="edge36" class="edge">
<title>Node16&#45;&gt;Node17</title>
<path fill="none" stroke="midnightblue" d="M769.76,-168.44C791.32,-159.56 825.26,-145.56 849.79,-135.45"/>
<polygon fill="midnightblue" stroke="midnightblue" points="851.43,-138.56 859.34,-131.52 848.76,-132.09 851.43,-138.56"/>
</g>
<!-- Node18 -->
<g id="node18" class="node">
<title>Node18</title>
<g id="a_node18"><a xlink:title=" ">
<polygon fill="white" stroke="#bfbfbf" points="997,-112.5 997,-131.5 1043,-131.5 1043,-112.5 997,-112.5"/>
<text text-anchor="middle" x="1020" y="-119.5" font-family="Helvetica,sans-Serif" font-size="10.00">atomic</text>
</a>
</g>
</g>
<!-- Node16&#45;&gt;Node18 -->
<g id="edge37" class="edge">
<title>Node16&#45;&gt;Node18</title>
<path fill="none" stroke="midnightblue" d="M797.09,-168.46C844.5,-159.87 918.93,-145.94 983,-132 984.27,-131.72 985.57,-131.44 986.87,-131.14"/>
<polygon fill="midnightblue" stroke="midnightblue" points="988,-134.47 996.95,-128.79 986.41,-127.65 988,-134.47"/>
</g>
<!-- Node19 -->
<g id="node19" class="node">
<title>Node19</title>
<g id="a_node19"><a xlink:title=" ">
<polygon fill="white" stroke="#bfbfbf" points="692.5,-112.5 692.5,-131.5 743.5,-131.5 743.5,-112.5 692.5,-112.5"/>
<text text-anchor="middle" x="718" y="-119.5" font-family="Helvetica,sans-Serif" font-size="10.00">memory</text>
</a>
</g>
</g>
<!-- Node16&#45;&gt;Node19 -->
<g id="edge38" class="edge">
<title>Node16&#45;&gt;Node19</title>
<path fill="none" stroke="midnightblue" d="M743.88,-168.08C739.59,-160.61 733.34,-149.72 728.06,-140.52"/>
<polygon fill="midnightblue" stroke="midnightblue" points="731.04,-138.68 723.02,-131.75 724.97,-142.17 731.04,-138.68"/>
</g>
<!-- Node20 -->
<g id="node20" class="node">
<title>Node20</title>
<g id="a_node20"><a xlink:title=" ">
<polygon fill="white" stroke="#bfbfbf" points="761.5,-112.5 761.5,-131.5 800.5,-131.5 800.5,-112.5 761.5,-112.5"/>
<text text-anchor="middle" x="781" y="-119.5" font-family="Helvetica,sans-Serif" font-size="10.00">utility</text>
</a>
</g>
</g>
<!-- Node16&#45;&gt;Node20 -->
<g id="edge40" class="edge">
<title>Node16&#45;&gt;Node20</title>
<path fill="none" stroke="midnightblue" d="M754.28,-168.08C758.71,-160.61 765.16,-149.72 770.62,-140.52"/>
<polygon fill="midnightblue" stroke="midnightblue" points="773.73,-142.14 775.81,-131.75 767.71,-138.57 773.73,-142.14"/>
</g>
</g>
</svg>
