<?xml version="1.0" encoding="UTF-8" standalone="no"?>
<!DOCTYPE svg PUBLIC "-//W3C//DTD SVG 1.1//EN"
 "http://www.w3.org/Graphics/SVG/1.1/DTD/svg11.dtd">
<!-- Generated by graphviz version 2.49.3 (20211027.1534)
 -->
<!-- Title: include/v8config.h Pages: 1 -->
<svg width="649pt" height="218pt"
 viewBox="0.00 0.00 648.50 218.00" xmlns="http://www.w3.org/2000/svg" xmlns:xlink="http://www.w3.org/1999/xlink">
<g id="graph0" class="graph" transform="scale(1 1) rotate(0) translate(4 214)">
<title>include/v8config.h</title>
<polygon fill="white" stroke="transparent" points="-4,4 -4,-214 644.5,-214 644.5,4 -4,4"/>
<!-- Node1 -->
<g id="node1" class="node">
<title>Node1</title>
<g id="a_node1"><a xlink:title=" ">
<polygon fill="#bfbfbf" stroke="black" points="60.5,-190.5 60.5,-209.5 154.5,-209.5 154.5,-190.5 60.5,-190.5"/>
<text text-anchor="middle" x="107.5" y="-197.5" font-family="Helvetica,sans-Serif" font-size="10.00">include/v8config.h</text>
</a>
</g>
</g>
<!-- Node2 -->
<g id="node2" class="node">
<title>Node2</title>
<g id="a_node2"><a xlink:href="libplatform_8h.html" target="_top" xlink:title=" ">
<polygon fill="white" stroke="black" points="0,-0.5 0,-30.5 95,-30.5 95,-0.5 0,-0.5"/>
<text text-anchor="start" x="8" y="-18.5" font-family="Helvetica,sans-Serif" font-size="10.00">include/libplatform</text>
<text text-anchor="middle" x="47.5" y="-7.5" font-family="Helvetica,sans-Serif" font-size="10.00">/libplatform.h</text>
</a>
</g>
</g>
<!-- Node1&#45;&gt;Node2 -->
<g id="edge1" class="edge">
<title>Node1&#45;&gt;Node2</title>
<path fill="none" stroke="midnightblue" d="M77.68,-185.61C65.02,-178.23 51.58,-167.75 44.5,-154 23.63,-113.45 35.57,-56.87 42.98,-30.75"/>
<polygon fill="midnightblue" stroke="midnightblue" points="76.19,-188.78 86.65,-190.43 79.5,-182.61 76.19,-188.78"/>
</g>
<!-- Node3 -->
<g id="node3" class="node">
<title>Node3</title>
<g id="a_node3"><a xlink:href="v8-platform_8h.html" target="_top" xlink:title=" ">
<polygon fill="white" stroke="black" points="54,-134.5 54,-153.5 161,-153.5 161,-134.5 54,-134.5"/>
<text text-anchor="middle" x="107.5" y="-141.5" font-family="Helvetica,sans-Serif" font-size="10.00">include/v8&#45;platform.h</text>
</a>
</g>
</g>
<!-- Node1&#45;&gt;Node3 -->
<g id="edge2" class="edge">
<title>Node1&#45;&gt;Node3</title>
<path fill="none" stroke="midnightblue" d="M107.5,-179.8C107.5,-170.91 107.5,-160.78 107.5,-153.75"/>
<polygon fill="midnightblue" stroke="midnightblue" points="104,-180.08 107.5,-190.08 111,-180.08 104,-180.08"/>
</g>
<!-- Node5 -->
<g id="node5" class="node">
<title>Node5</title>
<g id="a_node5"><a xlink:href="v8_8h.html" target="_top" xlink:title=" ">
<polygon fill="white" stroke="black" points="334.5,-134.5 334.5,-153.5 402.5,-153.5 402.5,-134.5 334.5,-134.5"/>
<text text-anchor="middle" x="368.5" y="-141.5" font-family="Helvetica,sans-Serif" font-size="10.00">include/v8.h</text>
</a>
</g>
</g>
<!-- Node1&#45;&gt;Node5 -->
<g id="edge6" class="edge">
<title>Node1&#45;&gt;Node5</title>
<path fill="none" stroke="midnightblue" d="M158.87,-188.37C210.84,-177.62 289.69,-161.3 334.41,-152.05"/>
<polygon fill="midnightblue" stroke="midnightblue" points="157.94,-184.99 148.86,-190.44 159.36,-191.84 157.94,-184.99"/>
</g>
<!-- Node3&#45;&gt;Node2 -->
<g id="edge3" class="edge">
<title>Node3&#45;&gt;Node2</title>
<path fill="none" stroke="midnightblue" d="M89.71,-127.54C81.5,-119.5 72.31,-109.06 66.5,-98 55.01,-76.14 50.4,-47.37 48.6,-30.51"/>
<polygon fill="midnightblue" stroke="midnightblue" points="87.43,-130.2 97.13,-134.45 92.19,-125.07 87.43,-130.2"/>
</g>
<!-- Node4 -->
<g id="node4" class="node">
<title>Node4</title>
<g id="a_node4"><a xlink:href="v8-tracing_8h.html" target="_top" xlink:title=" ">
<polygon fill="white" stroke="black" points="76,-67.5 76,-97.5 171,-97.5 171,-67.5 76,-67.5"/>
<text text-anchor="start" x="84" y="-85.5" font-family="Helvetica,sans-Serif" font-size="10.00">include/libplatform</text>
<text text-anchor="middle" x="123.5" y="-74.5" font-family="Helvetica,sans-Serif" font-size="10.00">/v8&#45;tracing.h</text>
</a>
</g>
</g>
<!-- Node3&#45;&gt;Node4 -->
<g id="edge4" class="edge">
<title>Node3&#45;&gt;Node4</title>
<path fill="none" stroke="midnightblue" d="M112.39,-124.82C114.75,-116.04 117.54,-105.68 119.73,-97.52"/>
<polygon fill="midnightblue" stroke="midnightblue" points="109.01,-123.91 109.79,-134.48 115.77,-125.73 109.01,-123.91"/>
</g>
<!-- Node4&#45;&gt;Node2 -->
<g id="edge5" class="edge">
<title>Node4&#45;&gt;Node2</title>
<path fill="none" stroke="midnightblue" d="M99.39,-60.88C87.84,-51.01 74.31,-39.43 63.96,-30.58"/>
<polygon fill="midnightblue" stroke="midnightblue" points="97.13,-63.56 107.01,-67.4 101.68,-58.24 97.13,-63.56"/>
</g>
<!-- Node6 -->
<g id="node6" class="node">
<title>Node6</title>
<g id="a_node6"><a xlink:href="v8-inspector_8h.html" target="_top" xlink:title=" ">
<polygon fill="white" stroke="black" points="189,-73 189,-92 300,-92 300,-73 189,-73"/>
<text text-anchor="middle" x="244.5" y="-80" font-family="Helvetica,sans-Serif" font-size="10.00">include/v8&#45;inspector.h</text>
</a>
</g>
</g>
<!-- Node5&#45;&gt;Node6 -->
<g id="edge7" class="edge">
<title>Node5&#45;&gt;Node6</title>
<path fill="none" stroke="midnightblue" d="M341.45,-130.02C317.4,-118.48 282.94,-101.94 262.23,-92.01"/>
<polygon fill="midnightblue" stroke="midnightblue" points="340.2,-133.3 350.73,-134.48 343.23,-126.99 340.2,-133.3"/>
</g>
<!-- Node8 -->
<g id="node8" class="node">
<title>Node8</title>
<g id="a_node8"><a xlink:href="v8-profiler_8h.html" target="_top" xlink:title=" ">
<polygon fill="white" stroke="black" points="318.5,-73 318.5,-92 418.5,-92 418.5,-73 318.5,-73"/>
<text text-anchor="middle" x="368.5" y="-80" font-family="Helvetica,sans-Serif" font-size="10.00">include/v8&#45;profiler.h</text>
</a>
</g>
</g>
<!-- Node5&#45;&gt;Node8 -->
<g id="edge9" class="edge">
<title>Node5&#45;&gt;Node8</title>
<path fill="none" stroke="midnightblue" d="M368.5,-124.32C368.5,-113.5 368.5,-100.4 368.5,-92.01"/>
<polygon fill="midnightblue" stroke="midnightblue" points="365,-124.48 368.5,-134.48 372,-124.48 365,-124.48"/>
</g>
<!-- Node9 -->
<g id="node9" class="node">
<title>Node9</title>
<g id="a_node9"><a xlink:href="v8-testing_8h.html" target="_top" xlink:title=" ">
<polygon fill="white" stroke="black" points="437,-73 437,-92 538,-92 538,-73 437,-73"/>
<text text-anchor="middle" x="487.5" y="-80" font-family="Helvetica,sans-Serif" font-size="10.00">include/v8&#45;testing.h</text>
</a>
</g>
</g>
<!-- Node5&#45;&gt;Node9 -->
<g id="edge10" class="edge">
<title>Node5&#45;&gt;Node9</title>
<path fill="none" stroke="midnightblue" d="M394.77,-129.87C417.83,-118.33 450.7,-101.9 470.48,-92.01"/>
<polygon fill="midnightblue" stroke="midnightblue" points="392.93,-126.87 385.55,-134.48 396.06,-133.13 392.93,-126.87"/>
</g>
<!-- Node10 -->
<g id="node10" class="node">
<title>Node10</title>
<g id="a_node10"><a xlink:href="v8-util_8h.html" target="_top" xlink:title=" ">
<polygon fill="white" stroke="black" points="556.5,-73 556.5,-92 640.5,-92 640.5,-73 556.5,-73"/>
<text text-anchor="middle" x="598.5" y="-80" font-family="Helvetica,sans-Serif" font-size="10.00">include/v8&#45;util.h</text>
</a>
</g>
</g>
<!-- Node5&#45;&gt;Node10 -->
<g id="edge11" class="edge">
<title>Node5&#45;&gt;Node10</title>
<path fill="none" stroke="midnightblue" d="M412.34,-132.38C448.64,-123.49 501.52,-110.31 547.5,-98 554.52,-96.12 562.07,-94.02 569.15,-92.01"/>
<polygon fill="midnightblue" stroke="midnightblue" points="411.45,-128.99 402.56,-134.77 413.11,-135.79 411.45,-128.99"/>
</g>
<!-- Node7 -->
<g id="node7" class="node">
<title>Node7</title>
<g id="a_node7"><a xlink:href="v8-inspector-protocol_8h.html" target="_top" xlink:title=" ">
<polygon fill="white" stroke="black" points="192.5,-0.5 192.5,-30.5 296.5,-30.5 296.5,-0.5 192.5,-0.5"/>
<text text-anchor="start" x="200.5" y="-18.5" font-family="Helvetica,sans-Serif" font-size="10.00">include/v8&#45;inspector</text>
<text text-anchor="middle" x="244.5" y="-7.5" font-family="Helvetica,sans-Serif" font-size="10.00">&#45;protocol.h</text>
</a>
</g>
</g>
<!-- Node6&#45;&gt;Node7 -->
<g id="edge8" class="edge">
<title>Node6&#45;&gt;Node7</title>
<path fill="none" stroke="midnightblue" d="M244.5,-62.41C244.5,-52.22 244.5,-39.9 244.5,-30.59"/>
<polygon fill="midnightblue" stroke="midnightblue" points="241,-62.73 244.5,-72.73 248,-62.73 241,-62.73"/>
</g>
</g>
</svg>
