<?xml version="1.0" encoding="UTF-8" standalone="no"?>
<!DOCTYPE svg PUBLIC "-//W3C//DTD SVG 1.1//EN"
 "http://www.w3.org/Graphics/SVG/1.1/DTD/svg11.dtd">
<!-- Generated by graphviz version 8.0.5 (20230430.1635)
 -->
<!-- Title: v8::MaybeLocal::As Pages: 1 -->
<svg width="521pt" height="39pt"
 viewBox="0.00 0.00 521.25 38.50" xmlns="http://www.w3.org/2000/svg" xmlns:xlink="http://www.w3.org/1999/xlink">
<g id="graph0" class="graph" transform="scale(1 1) rotate(0) translate(4 34.5)">
<title>v8::MaybeLocal::As</title>
<!-- Node1 -->
<g id="node1" class="node">
<title>Node1</title>
<g id="a_node1"><a xlink:title=" ">
<polygon fill="#999999" stroke="#666666" points="100,-24.88 0,-24.88 0,-5.63 100,-5.63 100,-24.88"/>
<text text-anchor="middle" x="50" y="-11.38" font-family="Helvetica,sans-Serif" font-size="10.00">v8::MaybeLocal::As</text>
</a>
</g>
</g>
<!-- Node2 -->
<g id="node2" class="node">
<title>Node2</title>
<g id="a_node2"><a xlink:href="classv8_1_1MaybeLocal.html#a65a04464148b88c629e5bcfa31423200" target="_top" xlink:title=" ">
<polygon fill="white" stroke="#666666" points="244.25,-24.88 136,-24.88 136,-5.63 244.25,-5.63 244.25,-24.88"/>
<text text-anchor="middle" x="190.12" y="-11.38" font-family="Helvetica,sans-Serif" font-size="10.00">v8::MaybeLocal::Cast</text>
</a>
</g>
</g>
<!-- Node1&#45;&gt;Node2 -->
<g id="edge1" class="edge">
<title>Node1&#45;&gt;Node2</title>
<path fill="none" stroke="#63b8ff" d="M100.48,-15.25C108.44,-15.25 116.79,-15.25 125.04,-15.25"/>
<polygon fill="#63b8ff" stroke="#63b8ff" points="124.79,-18.75 134.79,-15.25 124.79,-11.75 124.79,-18.75"/>
</g>
<!-- Node3 -->
<g id="node3" class="node">
<title>Node3</title>
<g id="a_node3"><a xlink:href="classv8_1_1Local.html#a6ed02351ca8e4dd0257dff7c2c9f67a8" target="_top" xlink:title=" ">
<polygon fill="white" stroke="#666666" points="360,-24.88 280.25,-24.88 280.25,-5.63 360,-5.63 360,-24.88"/>
<text text-anchor="middle" x="320.12" y="-11.38" font-family="Helvetica,sans-Serif" font-size="10.00">v8::Local::Cast</text>
</a>
</g>
</g>
<!-- Node2&#45;&gt;Node3 -->
<g id="edge2" class="edge">
<title>Node2&#45;&gt;Node3</title>
<path fill="none" stroke="#63b8ff" d="M244.67,-15.25C252.68,-15.25 260.91,-15.25 268.85,-15.25"/>
<polygon fill="#63b8ff" stroke="#63b8ff" points="268.82,-18.75 278.82,-15.25 268.82,-11.75 268.82,-18.75"/>
</g>
<!-- Node4 -->
<g id="node4" class="node">
<title>Node4</title>
<g id="a_node4"><a xlink:href="classv8_1_1api__internal_1_1IndirectHandleBase.html#ab505cc6c5f12d0a44149b7170b37411f" target="_top" xlink:title=" ">
<polygon fill="white" stroke="#666666" points="513.25,-30.5 396,-30.5 396,0 513.25,0 513.25,-30.5"/>
<text text-anchor="start" x="404" y="-17" font-family="Helvetica,sans-Serif" font-size="10.00">v8::api_internal::Indirect</text>
<text text-anchor="middle" x="454.62" y="-5.75" font-family="Helvetica,sans-Serif" font-size="10.00">HandleBase::IsEmpty</text>
</a>
</g>
</g>
<!-- Node3&#45;&gt;Node4 -->
<g id="edge3" class="edge">
<title>Node3&#45;&gt;Node4</title>
<path fill="none" stroke="#63b8ff" d="M360.16,-15.25C368,-15.25 376.45,-15.25 384.95,-15.25"/>
<polygon fill="#63b8ff" stroke="#63b8ff" points="384.71,-18.75 394.71,-15.25 384.71,-11.75 384.71,-18.75"/>
</g>
</g>
</svg>
