<?xml version="1.0" encoding="UTF-8" standalone="no"?>
<!DOCTYPE svg PUBLIC "-//W3C//DTD SVG 1.1//EN"
 "http://www.w3.org/Graphics/SVG/1.1/DTD/svg11.dtd">
<!-- Generated by graphviz version 8.0.5 (20230430.1635)
 -->
<!-- Title: cppgc::subtle::TaggedUncompressedMember::GetUntagged Pages: 1 -->
<svg width="396pt" height="88pt"
 viewBox="0.00 0.00 395.50 87.50" xmlns="http://www.w3.org/2000/svg" xmlns:xlink="http://www.w3.org/1999/xlink">
<g id="graph0" class="graph" transform="scale(1 1) rotate(0) translate(4 83.5)">
<title>cppgc::subtle::TaggedUncompressedMember::GetUntagged</title>
<!-- Node1 -->
<g id="node1" class="node">
<title>Node1</title>
<g id="a_node1"><a xlink:title=" ">
<polygon fill="#999999" stroke="#666666" points="387.5,-54.5 211.75,-54.5 211.75,-24 387.5,-24 387.5,-54.5"/>
<text text-anchor="start" x="219.75" y="-41" font-family="Helvetica,sans-Serif" font-size="10.00">cppgc::subtle::TaggedUncompressed</text>
<text text-anchor="middle" x="299.62" y="-29.75" font-family="Helvetica,sans-Serif" font-size="10.00">Member::GetUntagged</text>
</a>
</g>
</g>
<!-- Node2 -->
<g id="node2" class="node">
<title>Node2</title>
<g id="a_node2"><a xlink:href="structcppgc_1_1subtle_1_1TaggedUncompressedMember.html#a0d4c082cdcee7c4fa742b6176273c1e0" target="_top" xlink:title=" ">
<polygon fill="white" stroke="#666666" points="175.75,-79.5 0,-79.5 0,-49 175.75,-49 175.75,-79.5"/>
<text text-anchor="start" x="8" y="-66" font-family="Helvetica,sans-Serif" font-size="10.00">cppgc::subtle::TaggedUncompressed</text>
<text text-anchor="middle" x="87.88" y="-54.75" font-family="Helvetica,sans-Serif" font-size="10.00">Member::GetAs</text>
</a>
</g>
</g>
<!-- Node1&#45;&gt;Node2 -->
<g id="edge1" class="edge">
<title>Node1&#45;&gt;Node2</title>
<path fill="none" stroke="#63b8ff" d="M200.73,-50.92C192.5,-51.9 184.21,-52.89 176.07,-53.86"/>
<polygon fill="#63b8ff" stroke="#63b8ff" points="200.98,-54.29 210.49,-49.64 200.15,-47.34 200.98,-54.29"/>
</g>
<!-- Node3 -->
<g id="node3" class="node">
<title>Node3</title>
<g id="a_node3"><a xlink:href="structcppgc_1_1subtle_1_1TaggedUncompressedMember.html#a107c3f4f57de8d2b323321ab5ef3e197" target="_top" xlink:title=" ">
<polygon fill="white" stroke="#666666" points="175.75,-30.5 0,-30.5 0,0 175.75,0 175.75,-30.5"/>
<text text-anchor="start" x="8" y="-17" font-family="Helvetica,sans-Serif" font-size="10.00">cppgc::subtle::TaggedUncompressed</text>
<text text-anchor="middle" x="87.88" y="-5.75" font-family="Helvetica,sans-Serif" font-size="10.00">Member::Trace</text>
</a>
</g>
</g>
<!-- Node1&#45;&gt;Node3 -->
<g id="edge2" class="edge">
<title>Node1&#45;&gt;Node3</title>
<path fill="none" stroke="#63b8ff" d="M200.73,-28.05C192.5,-27.11 184.21,-26.16 176.07,-25.23"/>
<polygon fill="#63b8ff" stroke="#63b8ff" points="200.16,-31.62 210.49,-29.28 200.96,-24.67 200.16,-31.62"/>
</g>
</g>
</svg>
