<?xml version="1.0" encoding="UTF-8" standalone="no"?>
<!DOCTYPE svg PUBLIC "-//W3C//DTD SVG 1.1//EN"
 "http://www.w3.org/Graphics/SVG/1.1/DTD/svg11.dtd">
<!-- Generated by graphviz version 8.0.5 (20230430.1635)
 -->
<!-- Title: include/v8&#45;container.h Pages: 1 -->
<svg width="1551pt" height="547pt"
 viewBox="0.00 0.00 1551.00 547.00" xmlns="http://www.w3.org/2000/svg" xmlns:xlink="http://www.w3.org/1999/xlink">
<g id="graph0" class="graph" transform="scale(1 1) rotate(0) translate(4 543)">
<title>include/v8&#45;container.h</title>
<!-- Node1 -->
<g id="node1" class="node">
<title>Node1</title>
<g id="a_node1"><a xlink:title=" ">
<polygon fill="#999999" stroke="#666666" points="213.25,-539 102.75,-539 102.75,-519.75 213.25,-519.75 213.25,-539"/>
<text text-anchor="middle" x="158" y="-525.5" font-family="Helvetica,sans-Serif" font-size="10.00">include/v8&#45;container.h</text>
</a>
</g>
</g>
<!-- Node2 -->
<g id="node2" class="node">
<title>Node2</title>
<g id="a_node2"><a xlink:title=" ">
<polygon fill="#e0e0e0" stroke="#999999" points="86.25,-74.5 35.75,-74.5 35.75,-55.25 86.25,-55.25 86.25,-74.5"/>
<text text-anchor="middle" x="61" y="-61" font-family="Helvetica,sans-Serif" font-size="10.00">stddef.h</text>
</a>
</g>
</g>
<!-- Node1&#45;&gt;Node2 -->
<g id="edge1" class="edge">
<title>Node1&#45;&gt;Node2</title>
<path fill="none" stroke="#63b8ff" d="M117.31,-519.25C70.5,-506.07 0,-476.78 0,-419.88 0,-419.88 0,-419.88 0,-185.62 0,-145.61 27.38,-105.47 45.45,-83.32"/>
<polygon fill="#63b8ff" stroke="#63b8ff" points="48.72,-85.88 52.52,-75.99 43.38,-81.35 48.72,-85.88"/>
</g>
<!-- Node3 -->
<g id="node3" class="node">
<title>Node3</title>
<g id="a_node3"><a xlink:title=" ">
<polygon fill="#e0e0e0" stroke="#999999" points="175.75,-74.5 128.25,-74.5 128.25,-55.25 175.75,-55.25 175.75,-74.5"/>
<text text-anchor="middle" x="152" y="-61" font-family="Helvetica,sans-Serif" font-size="10.00">stdint.h</text>
</a>
</g>
</g>
<!-- Node1&#45;&gt;Node3 -->
<g id="edge2" class="edge">
<title>Node1&#45;&gt;Node3</title>
<path fill="none" stroke="#63b8ff" d="M137.61,-519.29C122.92,-511.76 103.7,-499.7 92,-483.75 74.49,-459.86 73,-449.49 73,-419.88 73,-419.88 73,-419.88 73,-307.38 73,-220.28 119.99,-123.88 141.49,-84.33"/>
<polygon fill="#63b8ff" stroke="#63b8ff" points="145.02,-86.18 146.82,-75.74 138.9,-82.78 145.02,-86.18"/>
</g>
<!-- Node4 -->
<g id="node4" class="node">
<title>Node4</title>
<g id="a_node4"><a xlink:title=" ">
<polygon fill="#e0e0e0" stroke="#999999" points="159,-483.75 101,-483.75 101,-464.5 159,-464.5 159,-483.75"/>
<text text-anchor="middle" x="130" y="-470.25" font-family="Helvetica,sans-Serif" font-size="10.00">functional</text>
</a>
</g>
</g>
<!-- Node1&#45;&gt;Node4 -->
<g id="edge3" class="edge">
<title>Node1&#45;&gt;Node4</title>
<path fill="none" stroke="#63b8ff" d="M153.38,-519.58C149.67,-512.53 144.34,-502.4 139.71,-493.58"/>
<polygon fill="#63b8ff" stroke="#63b8ff" points="142.48,-492.33 134.72,-485.11 136.28,-495.59 142.48,-492.33"/>
</g>
<!-- Node5 -->
<g id="node5" class="node">
<title>Node5</title>
<g id="a_node5"><a xlink:href="v8-local-handle_8h.html" target="_top" xlink:title=" ">
<polygon fill="white" stroke="#666666" points="453.38,-257.12 364.62,-257.12 364.62,-237.88 453.38,-237.88 453.38,-257.12"/>
<text text-anchor="middle" x="409" y="-243.62" font-family="Helvetica,sans-Serif" font-size="10.00">v8&#45;local&#45;handle.h</text>
</a>
</g>
</g>
<!-- Node1&#45;&gt;Node5 -->
<g id="edge4" class="edge">
<title>Node1&#45;&gt;Node5</title>
<path fill="none" stroke="#63b8ff" d="M162.15,-519.31C170.17,-500.95 187,-457.9 187,-419.88 187,-419.88 187,-419.88 187,-362.62 187,-287.81 287.96,-262 353.71,-253.12"/>
<polygon fill="#63b8ff" stroke="#63b8ff" points="353.85,-256.51 363.34,-251.79 352.98,-249.56 353.85,-256.51"/>
</g>
<!-- Node16 -->
<g id="node16" class="node">
<title>Node16</title>
<g id="a_node16"><a xlink:href="v8config_8h.html" target="_top" xlink:title=" ">
<polygon fill="white" stroke="#666666" points="916.75,-74.5 857.25,-74.5 857.25,-55.25 916.75,-55.25 916.75,-74.5"/>
<text text-anchor="middle" x="887" y="-61" font-family="Helvetica,sans-Serif" font-size="10.00">v8config.h</text>
</a>
</g>
</g>
<!-- Node1&#45;&gt;Node16 -->
<g id="edge79" class="edge">
<title>Node1&#45;&gt;Node16</title>
<path fill="none" stroke="#63b8ff" d="M213.58,-526.98C471.93,-520.15 1543,-487.75 1543,-419.88 1543,-419.88 1543,-419.88 1543,-307.38 1543,-201.78 1501.06,-163.96 1410,-110.5 1368.79,-86.3 1043.97,-71.8 927.98,-67.35"/>
<polygon fill="#63b8ff" stroke="#63b8ff" points="928.23,-63.82 918.11,-66.94 927.97,-70.81 928.23,-63.82"/>
</g>
<!-- Node17 -->
<g id="node17" class="node">
<title>Node17</title>
<g id="a_node17"><a xlink:href="v8-object_8h.html" target="_top" xlink:title=" ">
<polygon fill="white" stroke="#666666" points="630.62,-483.75 567.38,-483.75 567.38,-464.5 630.62,-464.5 630.62,-483.75"/>
<text text-anchor="middle" x="599" y="-470.25" font-family="Helvetica,sans-Serif" font-size="10.00">v8&#45;object.h</text>
</a>
</g>
</g>
<!-- Node1&#45;&gt;Node17 -->
<g id="edge22" class="edge">
<title>Node1&#45;&gt;Node17</title>
<path fill="none" stroke="#63b8ff" d="M213.41,-521.68C302.56,-510.92 475.95,-489.98 556.27,-480.28"/>
<polygon fill="#63b8ff" stroke="#63b8ff" points="556.46,-483.67 565.97,-478.99 555.62,-476.72 556.46,-483.67"/>
</g>
<!-- Node5&#45;&gt;Node2 -->
<g id="edge5" class="edge">
<title>Node5&#45;&gt;Node2</title>
<path fill="none" stroke="#63b8ff" d="M383.84,-237.51C358.46,-228.15 318.37,-212.62 285,-196.25 209.21,-159.07 124.21,-106.37 84.2,-80.86"/>
<polygon fill="#63b8ff" stroke="#63b8ff" points="86.33,-77.43 76.03,-74.99 82.56,-83.33 86.33,-77.43"/>
</g>
<!-- Node6 -->
<g id="node6" class="node">
<title>Node6</title>
<g id="a_node6"><a xlink:title=" ">
<polygon fill="#e0e0e0" stroke="#999999" points="1346.5,-74.5 1285.5,-74.5 1285.5,-55.25 1346.5,-55.25 1346.5,-74.5"/>
<text text-anchor="middle" x="1316" y="-61" font-family="Helvetica,sans-Serif" font-size="10.00">type_traits</text>
</a>
</g>
</g>
<!-- Node5&#45;&gt;Node6 -->
<g id="edge6" class="edge">
<title>Node5&#45;&gt;Node6</title>
<path fill="none" stroke="#63b8ff" d="M453.76,-245.03C534.15,-241.6 707.86,-230.52 850,-196.25 955.25,-170.87 973.73,-139.64 1078,-110.5 1145.66,-91.59 1226.39,-78.35 1274.31,-71.44"/>
<polygon fill="#63b8ff" stroke="#63b8ff" points="1274.77,-74.77 1284.18,-69.9 1273.78,-67.84 1274.77,-74.77"/>
</g>
<!-- Node7 -->
<g id="node7" class="node">
<title>Node7</title>
<g id="a_node7"><a xlink:title=" ">
<polygon fill="#e0e0e0" stroke="#999999" points="444.5,-196.25 401.5,-196.25 401.5,-177 444.5,-177 444.5,-196.25"/>
<text text-anchor="middle" x="423" y="-182.75" font-family="Helvetica,sans-Serif" font-size="10.00">vector</text>
</a>
</g>
</g>
<!-- Node5&#45;&gt;Node7 -->
<g id="edge7" class="edge">
<title>Node5&#45;&gt;Node7</title>
<path fill="none" stroke="#63b8ff" d="M411.13,-237.56C413.04,-229.52 415.91,-217.43 418.35,-207.16"/>
<polygon fill="#63b8ff" stroke="#63b8ff" points="421.95,-208.19 420.85,-197.65 415.14,-206.57 421.95,-208.19"/>
</g>
<!-- Node8 -->
<g id="node8" class="node">
<title>Node8</title>
<g id="a_node8"><a xlink:href="v8-handle-base_8h.html" target="_top" xlink:title=" ">
<polygon fill="white" stroke="#666666" points="383.75,-196.25 294.25,-196.25 294.25,-177 383.75,-177 383.75,-196.25"/>
<text text-anchor="middle" x="339" y="-182.75" font-family="Helvetica,sans-Serif" font-size="10.00">v8&#45;handle&#45;base.h</text>
</a>
</g>
</g>
<!-- Node5&#45;&gt;Node8 -->
<g id="edge8" class="edge">
<title>Node5&#45;&gt;Node8</title>
<path fill="none" stroke="#63b8ff" d="M398.37,-237.56C387.68,-228.57 370.97,-214.51 358,-203.6"/>
<polygon fill="#63b8ff" stroke="#63b8ff" points="360.64,-200.41 350.73,-196.65 356.13,-205.77 360.64,-200.41"/>
</g>
<!-- Node9 -->
<g id="node9" class="node">
<title>Node9</title>
<g id="a_node9"><a xlink:href="v8-internal_8h.html" target="_top" xlink:title=" ">
<polygon fill="white" stroke="#666666" points="521.25,-135.38 452.75,-135.38 452.75,-116.12 521.25,-116.12 521.25,-135.38"/>
<text text-anchor="middle" x="487" y="-121.88" font-family="Helvetica,sans-Serif" font-size="10.00">v8&#45;internal.h</text>
</a>
</g>
</g>
<!-- Node5&#45;&gt;Node9 -->
<g id="edge21" class="edge">
<title>Node5&#45;&gt;Node9</title>
<path fill="none" stroke="#63b8ff" d="M418.5,-237.54C428.27,-227.97 443.5,-212.05 454,-196.25 464.62,-180.28 473.71,-160.35 479.64,-145.94"/>
<polygon fill="#63b8ff" stroke="#63b8ff" points="483.26,-147.33 483.7,-136.74 476.75,-144.74 483.26,-147.33"/>
</g>
<!-- Node8&#45;&gt;Node9 -->
<g id="edge9" class="edge">
<title>Node8&#45;&gt;Node9</title>
<path fill="none" stroke="#63b8ff" d="M361.8,-176.55C386.53,-166.72 426.23,-150.92 454.29,-139.76"/>
<polygon fill="#63b8ff" stroke="#63b8ff" points="455.42,-142.68 463.42,-135.73 452.83,-136.18 455.42,-142.68"/>
</g>
<!-- Node9&#45;&gt;Node2 -->
<g id="edge10" class="edge">
<title>Node9&#45;&gt;Node2</title>
<path fill="none" stroke="#63b8ff" d="M452.48,-120.18C387.28,-111.51 241.56,-91.98 119,-74.5 112.06,-73.51 104.65,-72.43 97.53,-71.37"/>
<polygon fill="#63b8ff" stroke="#63b8ff" points="98.09,-67.77 87.69,-69.76 97.06,-74.7 98.09,-67.77"/>
</g>
<!-- Node9&#45;&gt;Node3 -->
<g id="edge11" class="edge">
<title>Node9&#45;&gt;Node3</title>
<path fill="none" stroke="#63b8ff" d="M452.41,-118.67C388.23,-107.39 251.37,-83.34 186.93,-72.01"/>
<polygon fill="#63b8ff" stroke="#63b8ff" points="187.59,-68.4 177.14,-70.12 186.38,-75.3 187.59,-68.4"/>
</g>
<!-- Node9&#45;&gt;Node6 -->
<g id="edge18" class="edge">
<title>Node9&#45;&gt;Node6</title>
<path fill="none" stroke="#63b8ff" d="M521.57,-122.3C654.18,-112.88 1130.22,-79.07 1274.35,-68.83"/>
<polygon fill="#63b8ff" stroke="#63b8ff" points="1274.59,-72.25 1284.32,-68.05 1274.1,-65.27 1274.59,-72.25"/>
</g>
<!-- Node10 -->
<g id="node10" class="node">
<title>Node10</title>
<g id="a_node10"><a xlink:title=" ">
<polygon fill="#e0e0e0" stroke="#999999" points="478.75,-74.5 431.25,-74.5 431.25,-55.25 478.75,-55.25 478.75,-74.5"/>
<text text-anchor="middle" x="455" y="-61" font-family="Helvetica,sans-Serif" font-size="10.00">string.h</text>
</a>
</g>
</g>
<!-- Node9&#45;&gt;Node10 -->
<g id="edge12" class="edge">
<title>Node9&#45;&gt;Node10</title>
<path fill="none" stroke="#63b8ff" d="M482.14,-115.81C477.63,-107.51 470.77,-94.89 465.08,-84.42"/>
<polygon fill="#63b8ff" stroke="#63b8ff" points="467.76,-83.02 459.91,-75.9 461.61,-86.36 467.76,-83.02"/>
</g>
<!-- Node11 -->
<g id="node11" class="node">
<title>Node11</title>
<g id="a_node11"><a xlink:title=" ">
<polygon fill="#e0e0e0" stroke="#999999" points="836.62,-74.5 791.38,-74.5 791.38,-55.25 836.62,-55.25 836.62,-74.5"/>
<text text-anchor="middle" x="814" y="-61" font-family="Helvetica,sans-Serif" font-size="10.00">atomic</text>
</a>
</g>
</g>
<!-- Node9&#45;&gt;Node11 -->
<g id="edge13" class="edge">
<title>Node9&#45;&gt;Node11</title>
<path fill="none" stroke="#63b8ff" d="M515.27,-115.69C521.71,-113.82 528.56,-111.96 535,-110.5 622.56,-90.59 727.57,-76.33 780.29,-69.83"/>
<polygon fill="#63b8ff" stroke="#63b8ff" points="780.52,-73.2 790.02,-68.52 779.67,-66.26 780.52,-73.2"/>
</g>
<!-- Node12 -->
<g id="node12" class="node">
<title>Node12</title>
<g id="a_node12"><a xlink:title=" ">
<polygon fill="#e0e0e0" stroke="#999999" points="543,-74.5 497,-74.5 497,-55.25 543,-55.25 543,-74.5"/>
<text text-anchor="middle" x="520" y="-61" font-family="Helvetica,sans-Serif" font-size="10.00">iterator</text>
</a>
</g>
</g>
<!-- Node9&#45;&gt;Node12 -->
<g id="edge14" class="edge">
<title>Node9&#45;&gt;Node12</title>
<path fill="none" stroke="#63b8ff" d="M492.01,-115.81C496.66,-107.51 503.73,-94.89 509.6,-84.42"/>
<polygon fill="#63b8ff" stroke="#63b8ff" points="513.1,-86.34 514.94,-75.9 507,-82.91 513.1,-86.34"/>
</g>
<!-- Node13 -->
<g id="node13" class="node">
<title>Node13</title>
<g id="a_node13"><a xlink:title=" ">
<polygon fill="#e0e0e0" stroke="#999999" points="600.62,-74.5 561.38,-74.5 561.38,-55.25 600.62,-55.25 600.62,-74.5"/>
<text text-anchor="middle" x="581" y="-61" font-family="Helvetica,sans-Serif" font-size="10.00">limits</text>
</a>
</g>
</g>
<!-- Node9&#45;&gt;Node13 -->
<g id="edge15" class="edge">
<title>Node9&#45;&gt;Node13</title>
<path fill="none" stroke="#63b8ff" d="M501.28,-115.81C516.18,-106.47 539.81,-91.67 557.48,-80.61"/>
<polygon fill="#63b8ff" stroke="#63b8ff" points="558.97,-83.18 565.59,-74.9 555.26,-77.24 558.97,-83.18"/>
</g>
<!-- Node14 -->
<g id="node14" class="node">
<title>Node14</title>
<g id="a_node14"><a xlink:title=" ">
<polygon fill="#e0e0e0" stroke="#999999" points="912.25,-19.25 861.75,-19.25 861.75,0 912.25,0 912.25,-19.25"/>
<text text-anchor="middle" x="887" y="-5.75" font-family="Helvetica,sans-Serif" font-size="10.00">memory</text>
</a>
</g>
</g>
<!-- Node9&#45;&gt;Node14 -->
<g id="edge16" class="edge">
<title>Node9&#45;&gt;Node14</title>
<path fill="none" stroke="#63b8ff" d="M517.45,-115.65C523.28,-113.93 529.32,-112.15 535,-110.5 650.34,-77.02 787.3,-38.52 851.04,-20.67"/>
<polygon fill="#63b8ff" stroke="#63b8ff" points="851.67,-23.85 860.35,-17.79 849.78,-17.11 851.67,-23.85"/>
</g>
<!-- Node15 -->
<g id="node15" class="node">
<title>Node15</title>
<g id="a_node15"><a xlink:title=" ">
<polygon fill="#e0e0e0" stroke="#999999" points="412.88,-74.5 363.12,-74.5 363.12,-55.25 412.88,-55.25 412.88,-74.5"/>
<text text-anchor="middle" x="388" y="-61" font-family="Helvetica,sans-Serif" font-size="10.00">optional</text>
</a>
</g>
</g>
<!-- Node9&#45;&gt;Node15 -->
<g id="edge17" class="edge">
<title>Node9&#45;&gt;Node15</title>
<path fill="none" stroke="#63b8ff" d="M471.96,-115.81C456.19,-106.43 431.15,-91.54 412.51,-80.45"/>
<polygon fill="#63b8ff" stroke="#63b8ff" points="414.56,-77 404.18,-74.9 410.98,-83.02 414.56,-77"/>
</g>
<!-- Node9&#45;&gt;Node16 -->
<g id="edge19" class="edge">
<title>Node9&#45;&gt;Node16</title>
<path fill="none" stroke="#63b8ff" d="M514.71,-115.63C521.31,-113.71 528.36,-111.86 535,-110.5 671.32,-82.6 708.66,-96.85 846,-74.5 846.11,-74.48 846.22,-74.46 846.34,-74.44"/>
<polygon fill="#63b8ff" stroke="#63b8ff" points="846.84,-77.73 856.05,-72.51 845.59,-70.84 846.84,-77.73"/>
</g>
<!-- Node16&#45;&gt;Node14 -->
<g id="edge20" class="edge">
<title>Node16&#45;&gt;Node14</title>
<path fill="none" stroke="#63b8ff" d="M887,-55.08C887,-48.42 887,-38.99 887,-30.53"/>
<polygon fill="#63b8ff" stroke="#63b8ff" points="890.5,-30.61 887,-20.61 883.5,-30.61 890.5,-30.61"/>
</g>
<!-- Node17&#45;&gt;Node5 -->
<g id="edge24" class="edge">
<title>Node17&#45;&gt;Node5</title>
<path fill="none" stroke="#63b8ff" d="M567.21,-471.07C511.8,-466.81 400.88,-455.13 374,-428.5 332.39,-387.28 326.67,-352.02 351,-298.75 357.7,-284.07 371.05,-272.03 383.25,-263.42"/>
<polygon fill="#63b8ff" stroke="#63b8ff" points="384.79,-265.94 391.23,-257.52 380.95,-260.09 384.79,-265.94"/>
</g>
<!-- Node17&#45;&gt;Node9 -->
<g id="edge23" class="edge">
<title>Node17&#45;&gt;Node9</title>
<path fill="none" stroke="#63b8ff" d="M566.98,-472.87C458.41,-471.16 111,-458.36 111,-364.62 111,-364.62 111,-364.62 111,-307.38 111,-162.33 341.14,-133.68 441.32,-128.08"/>
<polygon fill="#63b8ff" stroke="#63b8ff" points="441.49,-131.53 451.3,-127.53 441.14,-124.54 441.49,-131.53"/>
</g>
<!-- Node17&#45;&gt;Node16 -->
<g id="edge78" class="edge">
<title>Node17&#45;&gt;Node16</title>
<path fill="none" stroke="#63b8ff" d="M599.93,-464.26C605.13,-419.37 634.51,-215.34 748,-110.5 762.47,-97.14 810.6,-83.55 846.19,-74.94"/>
<polygon fill="#63b8ff" stroke="#63b8ff" points="846.86,-78.14 855.78,-72.43 845.25,-71.33 846.86,-78.14"/>
</g>
<!-- Node18 -->
<g id="node18" class="node">
<title>Node18</title>
<g id="a_node18"><a xlink:href="v8-maybe_8h.html" target="_top" xlink:title=" ">
<polygon fill="white" stroke="#666666" points="1062.75,-318 997.25,-318 997.25,-298.75 1062.75,-298.75 1062.75,-318"/>
<text text-anchor="middle" x="1030" y="-304.5" font-family="Helvetica,sans-Serif" font-size="10.00">v8&#45;maybe.h</text>
</a>
</g>
</g>
<!-- Node17&#45;&gt;Node18 -->
<g id="edge25" class="edge">
<title>Node17&#45;&gt;Node18</title>
<path fill="none" stroke="#63b8ff" d="M630.74,-470.15C678.26,-465.09 770.31,-452.87 845,-428.5 898.53,-411.04 912.28,-404.67 959,-373.25 979.74,-359.31 1000.67,-339.64 1014.37,-325.82"/>
<polygon fill="#63b8ff" stroke="#63b8ff" points="1016.44,-328.69 1020.91,-319.08 1011.43,-323.81 1016.44,-328.69"/>
</g>
<!-- Node25 -->
<g id="node25" class="node">
<title>Node25</title>
<g id="a_node25"><a xlink:href="v8-persistent-handle_8h.html" target="_top" xlink:title=" ">
<polygon fill="white" stroke="#666666" points="772.62,-373.25 661.38,-373.25 661.38,-354 772.62,-354 772.62,-373.25"/>
<text text-anchor="middle" x="717" y="-359.75" font-family="Helvetica,sans-Serif" font-size="10.00">v8&#45;persistent&#45;handle.h</text>
</a>
</g>
</g>
<!-- Node17&#45;&gt;Node25 -->
<g id="edge40" class="edge">
<title>Node17&#45;&gt;Node25</title>
<path fill="none" stroke="#63b8ff" d="M608.66,-464.25C628.45,-446.05 673.88,-404.27 699.18,-381.01"/>
<polygon fill="#63b8ff" stroke="#63b8ff" points="701.22,-383.97 706.21,-374.63 696.48,-378.82 701.22,-383.97"/>
</g>
<!-- Node28 -->
<g id="node28" class="node">
<title>Node28</title>
<g id="a_node28"><a xlink:href="v8-primitive_8h.html" target="_top" xlink:title=" ">
<polygon fill="white" stroke="#666666" points="456.88,-428.5 383.12,-428.5 383.12,-409.25 456.88,-409.25 456.88,-428.5"/>
<text text-anchor="middle" x="420" y="-415" font-family="Helvetica,sans-Serif" font-size="10.00">v8&#45;primitive.h</text>
</a>
</g>
</g>
<!-- Node17&#45;&gt;Node28 -->
<g id="edge48" class="edge">
<title>Node17&#45;&gt;Node28</title>
<path fill="none" stroke="#63b8ff" d="M568.64,-464.09C538.93,-455.26 493.51,-441.74 460.69,-431.98"/>
<polygon fill="#63b8ff" stroke="#63b8ff" points="462.1,-428.45 451.51,-428.95 460.1,-435.16 462.1,-428.45"/>
</g>
<!-- Node30 -->
<g id="node30" class="node">
<title>Node30</title>
<g id="a_node30"><a xlink:href="v8-value_8h.html" target="_top" xlink:title=" ">
<polygon fill="white" stroke="#666666" points="483.12,-373.25 422.88,-373.25 422.88,-354 483.12,-354 483.12,-373.25"/>
<text text-anchor="middle" x="453" y="-359.75" font-family="Helvetica,sans-Serif" font-size="10.00">v8&#45;value.h</text>
</a>
</g>
</g>
<!-- Node17&#45;&gt;Node30 -->
<g id="edge77" class="edge">
<title>Node17&#45;&gt;Node30</title>
<path fill="none" stroke="#63b8ff" d="M586.8,-464.06C561.84,-445.51 504.65,-403.01 473.74,-380.04"/>
<polygon fill="#63b8ff" stroke="#63b8ff" points="476.17,-376.74 466.06,-373.59 472,-382.36 476.17,-376.74"/>
</g>
<!-- Node31 -->
<g id="node31" class="node">
<title>Node31</title>
<g id="a_node31"><a xlink:href="v8-sandbox_8h.html" target="_top" xlink:title=" ">
<polygon fill="white" stroke="#666666" points="840.5,-196.25 767.5,-196.25 767.5,-177 840.5,-177 840.5,-196.25"/>
<text text-anchor="middle" x="804" y="-182.75" font-family="Helvetica,sans-Serif" font-size="10.00">v8&#45;sandbox.h</text>
</a>
</g>
</g>
<!-- Node17&#45;&gt;Node31 -->
<g id="edge61" class="edge">
<title>Node17&#45;&gt;Node31</title>
<path fill="none" stroke="#63b8ff" d="M630.99,-465.42C673.2,-453.44 746.32,-426.02 782,-373.25 816.79,-321.81 811.86,-243.55 807.15,-207.31"/>
<polygon fill="#63b8ff" stroke="#63b8ff" points="810.52,-207.13 805.62,-197.73 803.59,-208.13 810.52,-207.13"/>
</g>
<!-- Node33 -->
<g id="node33" class="node">
<title>Node33</title>
<g id="a_node33"><a xlink:href="v8-traced-handle_8h.html" target="_top" xlink:title=" ">
<polygon fill="white" stroke="#666666" points="949.75,-373.25 854.25,-373.25 854.25,-354 949.75,-354 949.75,-373.25"/>
<text text-anchor="middle" x="902" y="-359.75" font-family="Helvetica,sans-Serif" font-size="10.00">v8&#45;traced&#45;handle.h</text>
</a>
</g>
</g>
<!-- Node17&#45;&gt;Node33 -->
<g id="edge65" class="edge">
<title>Node17&#45;&gt;Node33</title>
<path fill="none" stroke="#63b8ff" d="M631.06,-470.8C674.42,-466.71 753.42,-455.89 815,-428.5 841.83,-416.57 868.41,-395.31 884.99,-380.62"/>
<polygon fill="#63b8ff" stroke="#63b8ff" points="886.65,-383.93 891.7,-374.62 881.95,-378.75 886.65,-383.93"/>
</g>
<!-- Node18&#45;&gt;Node6 -->
<g id="edge26" class="edge">
<title>Node18&#45;&gt;Node6</title>
<path fill="none" stroke="#63b8ff" d="M1063.01,-300.55C1066.05,-299.94 1069.08,-299.33 1072,-298.75 1155.45,-282.19 1182.87,-298.64 1260,-262.75 1337.85,-226.53 1373.08,-218.52 1410,-141 1415.83,-128.76 1417.24,-121.96 1410,-110.5 1398.3,-91.99 1376.6,-81.01 1357,-74.57"/>
<polygon fill="#63b8ff" stroke="#63b8ff" points="1358.29,-71 1347.71,-71.52 1356.3,-77.71 1358.29,-71"/>
</g>
<!-- Node18&#45;&gt;Node9 -->
<g id="edge38" class="edge">
<title>Node18&#45;&gt;Node9</title>
<path fill="none" stroke="#63b8ff" d="M1002.7,-298.29C913.07,-268.48 627.68,-173.55 524.6,-139.26"/>
<polygon fill="#63b8ff" stroke="#63b8ff" points="525.95,-135.68 515.35,-135.85 523.74,-142.33 525.95,-135.68"/>
</g>
<!-- Node18&#45;&gt;Node16 -->
<g id="edge39" class="edge">
<title>Node18&#45;&gt;Node16</title>
<path fill="none" stroke="#63b8ff" d="M1028.9,-298.51C1024.83,-268.8 1008.18,-171.19 959,-110.5 948.42,-97.44 932.94,-87.15 919.04,-79.76"/>
<polygon fill="#63b8ff" stroke="#63b8ff" points="920.81,-76.23 910.3,-74.89 917.68,-82.49 920.81,-76.23"/>
</g>
<!-- Node19 -->
<g id="node19" class="node">
<title>Node19</title>
<g id="a_node19"><a xlink:title=" ">
<polygon fill="#e0e0e0" stroke="#999999" points="1401.25,-135.38 1362.75,-135.38 1362.75,-116.12 1401.25,-116.12 1401.25,-135.38"/>
<text text-anchor="middle" x="1382" y="-121.88" font-family="Helvetica,sans-Serif" font-size="10.00">utility</text>
</a>
</g>
</g>
<!-- Node18&#45;&gt;Node19 -->
<g id="edge27" class="edge">
<title>Node18&#45;&gt;Node19</title>
<path fill="none" stroke="#63b8ff" d="M1063.2,-300.4C1114.24,-289.56 1207.62,-269.25 1222,-262.75 1284.92,-234.31 1342.32,-173.5 1367.93,-143.8"/>
<polygon fill="#63b8ff" stroke="#63b8ff" points="1371.03,-146.54 1374.82,-136.65 1365.69,-142.02 1371.03,-146.54"/>
</g>
<!-- Node20 -->
<g id="node20" class="node">
<title>Node20</title>
<g id="a_node20"><a xlink:href="conditional-stack-allocated_8h.html" target="_top" xlink:title=" ">
<polygon fill="white" stroke="#666666" points="1213.12,-262.75 1086.88,-262.75 1086.88,-232.25 1213.12,-232.25 1213.12,-262.75"/>
<text text-anchor="start" x="1094.88" y="-249.25" font-family="Helvetica,sans-Serif" font-size="10.00">cppgc/internal/conditional</text>
<text text-anchor="middle" x="1150" y="-238" font-family="Helvetica,sans-Serif" font-size="10.00">&#45;stack&#45;allocated.h</text>
</a>
</g>
</g>
<!-- Node18&#45;&gt;Node20 -->
<g id="edge28" class="edge">
<title>Node18&#45;&gt;Node20</title>
<path fill="none" stroke="#63b8ff" d="M1048.49,-298.3C1064.87,-290.27 1089.36,-278.25 1110.18,-268.04"/>
<polygon fill="#63b8ff" stroke="#63b8ff" points="1111.61,-270.74 1119.05,-263.19 1108.53,-264.46 1111.61,-270.74"/>
</g>
<!-- Node20&#45;&gt;Node6 -->
<g id="edge29" class="edge">
<title>Node20&#45;&gt;Node6</title>
<path fill="none" stroke="#63b8ff" d="M1213.49,-239.68C1242.84,-233.21 1275.64,-220.63 1296,-196.25 1322.34,-164.71 1321.58,-113.33 1318.77,-85.42"/>
<polygon fill="#63b8ff" stroke="#63b8ff" points="1322.15,-85.21 1317.47,-75.71 1315.2,-86.06 1322.15,-85.21"/>
</g>
<!-- Node21 -->
<g id="node21" class="node">
<title>Node21</title>
<g id="a_node21"><a xlink:href="macros_8h.html" target="_top" xlink:title=" ">
<polygon fill="white" stroke="#666666" points="1173.5,-196.25 1088.5,-196.25 1088.5,-177 1173.5,-177 1173.5,-196.25"/>
<text text-anchor="middle" x="1131" y="-182.75" font-family="Helvetica,sans-Serif" font-size="10.00">cppgc/macros.h</text>
</a>
</g>
</g>
<!-- Node20&#45;&gt;Node21 -->
<g id="edge30" class="edge">
<title>Node20&#45;&gt;Node21</title>
<path fill="none" stroke="#63b8ff" d="M1145.3,-231.95C1142.88,-224.45 1139.9,-215.2 1137.28,-207.1"/>
<polygon fill="#63b8ff" stroke="#63b8ff" points="1140.33,-206.14 1133.93,-197.7 1133.67,-208.29 1140.33,-206.14"/>
</g>
<!-- Node24 -->
<g id="node24" class="node">
<title>Node24</title>
<g id="a_node24"><a xlink:href="type-traits_8h.html" target="_top" xlink:title=" ">
<polygon fill="white" stroke="#666666" points="1286.75,-196.25 1191.25,-196.25 1191.25,-177 1286.75,-177 1286.75,-196.25"/>
<text text-anchor="middle" x="1239" y="-182.75" font-family="Helvetica,sans-Serif" font-size="10.00">cppgc/type&#45;traits.h</text>
</a>
</g>
</g>
<!-- Node20&#45;&gt;Node24 -->
<g id="edge34" class="edge">
<title>Node20&#45;&gt;Node24</title>
<path fill="none" stroke="#63b8ff" d="M1172,-231.95C1185.42,-223.07 1202.55,-211.74 1216.12,-202.76"/>
<polygon fill="#63b8ff" stroke="#63b8ff" points="1217.87,-205.14 1224.28,-196.7 1214.01,-199.3 1217.87,-205.14"/>
</g>
<!-- Node22 -->
<g id="node22" class="node">
<title>Node22</title>
<g id="a_node22"><a xlink:title=" ">
<polygon fill="#e0e0e0" stroke="#999999" points="1269.12,-135.38 1220.88,-135.38 1220.88,-116.12 1269.12,-116.12 1269.12,-135.38"/>
<text text-anchor="middle" x="1245" y="-121.88" font-family="Helvetica,sans-Serif" font-size="10.00">cstddef</text>
</a>
</g>
</g>
<!-- Node21&#45;&gt;Node22 -->
<g id="edge31" class="edge">
<title>Node21&#45;&gt;Node22</title>
<path fill="none" stroke="#63b8ff" d="M1148.31,-176.68C1166.81,-167.13 1196.38,-151.86 1217.95,-140.72"/>
<polygon fill="#63b8ff" stroke="#63b8ff" points="1219.24,-143.47 1226.52,-135.78 1216.03,-137.25 1219.24,-143.47"/>
</g>
<!-- Node23 -->
<g id="node23" class="node">
<title>Node23</title>
<g id="a_node23"><a xlink:href="compiler-specific_8h.html" target="_top" xlink:title=" ">
<polygon fill="white" stroke="#666666" points="1203.25,-141 1086.75,-141 1086.75,-110.5 1203.25,-110.5 1203.25,-141"/>
<text text-anchor="start" x="1094.75" y="-127.5" font-family="Helvetica,sans-Serif" font-size="10.00">cppgc/internal/compiler</text>
<text text-anchor="middle" x="1145" y="-116.25" font-family="Helvetica,sans-Serif" font-size="10.00">&#45;specific.h</text>
</a>
</g>
</g>
<!-- Node21&#45;&gt;Node23 -->
<g id="edge32" class="edge">
<title>Node21&#45;&gt;Node23</title>
<path fill="none" stroke="#63b8ff" d="M1133.13,-176.68C1134.7,-170.08 1136.92,-160.74 1139.01,-151.93"/>
<polygon fill="#63b8ff" stroke="#63b8ff" points="1142.64,-152.82 1141.54,-142.28 1135.83,-151.2 1142.64,-152.82"/>
</g>
<!-- Node23&#45;&gt;Node16 -->
<g id="edge33" class="edge">
<title>Node23&#45;&gt;Node16</title>
<path fill="none" stroke="#63b8ff" d="M1086.46,-111.39C1038.04,-100.34 970.52,-84.93 927.79,-75.18"/>
<polygon fill="#63b8ff" stroke="#63b8ff" points="928.75,-71.58 918.22,-72.77 927.19,-78.41 928.75,-71.58"/>
</g>
<!-- Node24&#45;&gt;Node6 -->
<g id="edge36" class="edge">
<title>Node24&#45;&gt;Node6</title>
<path fill="none" stroke="#63b8ff" d="M1248.1,-176.61C1256.51,-167.97 1269.03,-154.31 1278,-141 1290.23,-122.86 1301.15,-100.25 1308.11,-84.6"/>
<polygon fill="#63b8ff" stroke="#63b8ff" points="1311.68,-86.17 1312.44,-75.6 1305.25,-83.38 1311.68,-86.17"/>
</g>
<!-- Node24&#45;&gt;Node19 -->
<g id="edge37" class="edge">
<title>Node24&#45;&gt;Node19</title>
<path fill="none" stroke="#63b8ff" d="M1261.03,-176.55C1285.51,-166.47 1325.18,-150.14 1352.37,-138.95"/>
<polygon fill="#63b8ff" stroke="#63b8ff" points="1353.56,-141.83 1361.47,-134.79 1350.89,-135.36 1353.56,-141.83"/>
</g>
<!-- Node24&#45;&gt;Node22 -->
<g id="edge35" class="edge">
<title>Node24&#45;&gt;Node22</title>
<path fill="none" stroke="#63b8ff" d="M1239.91,-176.68C1240.72,-168.73 1241.94,-156.81 1242.98,-146.62"/>
<polygon fill="#63b8ff" stroke="#63b8ff" points="1246.55,-147.08 1244.08,-136.78 1239.58,-146.37 1246.55,-147.08"/>
</g>
<!-- Node25&#45;&gt;Node5 -->
<g id="edge42" class="edge">
<title>Node25&#45;&gt;Node5</title>
<path fill="none" stroke="#63b8ff" d="M692.57,-353.57C638.1,-333.39 506.54,-284.64 443.63,-261.33"/>
<polygon fill="#63b8ff" stroke="#63b8ff" points="445.02,-257.74 434.43,-257.55 442.59,-264.31 445.02,-257.74"/>
</g>
<!-- Node25&#45;&gt;Node9 -->
<g id="edge41" class="edge">
<title>Node25&#45;&gt;Node9</title>
<path fill="none" stroke="#63b8ff" d="M706.82,-353.51C687.65,-336.23 645.05,-297.36 611,-262.75 570.11,-221.18 524.51,-169.77 501.69,-143.67"/>
<polygon fill="#63b8ff" stroke="#63b8ff" points="503.82,-141.79 494.61,-136.55 498.54,-146.39 503.82,-141.79"/>
</g>
<!-- Node25&#45;&gt;Node16 -->
<g id="edge47" class="edge">
<title>Node25&#45;&gt;Node16</title>
<path fill="none" stroke="#63b8ff" d="M726.25,-353.81C750.26,-330.44 815.13,-263.98 850,-196.25 868.87,-159.59 879.25,-112.03 883.91,-85.67"/>
<polygon fill="#63b8ff" stroke="#63b8ff" points="887.52,-86.3 885.71,-75.87 880.62,-85.15 887.52,-86.3"/>
</g>
<!-- Node26 -->
<g id="node26" class="node">
<title>Node26</title>
<g id="a_node26"><a xlink:href="v8-weak-callback-info_8h.html" target="_top" xlink:title=" ">
<polygon fill="white" stroke="#666666" points="1199,-318 1081,-318 1081,-298.75 1199,-298.75 1199,-318"/>
<text text-anchor="middle" x="1140" y="-304.5" font-family="Helvetica,sans-Serif" font-size="10.00">v8&#45;weak&#45;callback&#45;info.h</text>
</a>
</g>
</g>
<!-- Node25&#45;&gt;Node26 -->
<g id="edge43" class="edge">
<title>Node25&#45;&gt;Node26</title>
<path fill="none" stroke="#63b8ff" d="M772.95,-355.61C840.72,-347.11 958.65,-332.31 1069.92,-318.26"/>
<polygon fill="#63b8ff" stroke="#63b8ff" points="1070.18,-321.63 1079.66,-316.91 1069.3,-314.69 1070.18,-321.63"/>
</g>
<!-- Node26&#45;&gt;Node16 -->
<g id="edge46" class="edge">
<title>Node26&#45;&gt;Node16</title>
<path fill="none" stroke="#63b8ff" d="M1124.19,-298.37C1110.83,-290.24 1091.72,-277.34 1078,-262.75 1023.19,-204.48 1041.95,-163.47 982,-110.5 966.17,-96.52 945.21,-86.05 927,-78.78"/>
<polygon fill="#63b8ff" stroke="#63b8ff" points="928.53,-75.24 917.93,-74.97 926.05,-81.78 928.53,-75.24"/>
</g>
<!-- Node26&#45;&gt;Node20 -->
<g id="edge45" class="edge">
<title>Node26&#45;&gt;Node20</title>
<path fill="none" stroke="#63b8ff" d="M1141.52,-298.43C1142.64,-291.83 1144.23,-282.49 1145.72,-273.68"/>
<polygon fill="#63b8ff" stroke="#63b8ff" points="1149.31,-274.48 1147.53,-264.03 1142.41,-273.3 1149.31,-274.48"/>
</g>
<!-- Node27 -->
<g id="node27" class="node">
<title>Node27</title>
<g id="a_node27"><a xlink:title=" ">
<polygon fill="#e0e0e0" stroke="#999999" points="1381.62,-257.12 1336.38,-257.12 1336.38,-237.88 1381.62,-237.88 1381.62,-257.12"/>
<text text-anchor="middle" x="1359" y="-243.62" font-family="Helvetica,sans-Serif" font-size="10.00">cstring</text>
</a>
</g>
</g>
<!-- Node26&#45;&gt;Node27 -->
<g id="edge44" class="edge">
<title>Node26&#45;&gt;Node27</title>
<path fill="none" stroke="#63b8ff" d="M1183.82,-298.27C1220.96,-290.17 1275.44,-277.36 1322,-262.75 1323.52,-262.27 1325.07,-261.77 1326.62,-261.24"/>
<polygon fill="#63b8ff" stroke="#63b8ff" points="1327.63,-264.23 1335.86,-257.55 1325.26,-257.65 1327.63,-264.23"/>
</g>
<!-- Node28&#45;&gt;Node5 -->
<g id="edge53" class="edge">
<title>Node28&#45;&gt;Node5</title>
<path fill="none" stroke="#63b8ff" d="M411.88,-408.82C397.64,-392.24 368.63,-355.29 358,-318 355.65,-309.77 354.7,-306.64 358,-298.75 363.85,-284.78 375.69,-272.72 386.49,-263.92"/>
<polygon fill="#63b8ff" stroke="#63b8ff" points="388.32,-266.16 394.16,-257.32 384.08,-260.59 388.32,-266.16"/>
</g>
<!-- Node28&#45;&gt;Node9 -->
<g id="edge52" class="edge">
<title>Node28&#45;&gt;Node9</title>
<path fill="none" stroke="#63b8ff" d="M406.32,-408.86C358.22,-376.1 203.33,-260.88 270,-177 291.04,-150.54 384.56,-136.78 441.74,-130.72"/>
<polygon fill="#63b8ff" stroke="#63b8ff" points="442.07,-134.1 451.66,-129.61 441.36,-127.14 442.07,-134.1"/>
</g>
<!-- Node28&#45;&gt;Node16 -->
<g id="edge60" class="edge">
<title>Node28&#45;&gt;Node16</title>
<path fill="none" stroke="#63b8ff" d="M438.77,-408.78C454.13,-400.77 475.87,-388.08 492,-373.25 599.04,-274.81 565.04,-189.7 687,-110.5 690.37,-108.31 788.79,-86.94 846.28,-74.59"/>
<polygon fill="#63b8ff" stroke="#63b8ff" points="846.81,-77.84 855.85,-72.32 845.34,-71 846.81,-77.84"/>
</g>
<!-- Node29 -->
<g id="node29" class="node">
<title>Node29</title>
<g id="a_node29"><a xlink:href="v8-data_8h.html" target="_top" xlink:title=" ">
<polygon fill="white" stroke="#666666" points="422.88,-318 367.12,-318 367.12,-298.75 422.88,-298.75 422.88,-318"/>
<text text-anchor="middle" x="395" y="-304.5" font-family="Helvetica,sans-Serif" font-size="10.00">v8&#45;data.h</text>
</a>
</g>
</g>
<!-- Node28&#45;&gt;Node29 -->
<g id="edge49" class="edge">
<title>Node28&#45;&gt;Node29</title>
<path fill="none" stroke="#63b8ff" d="M417.95,-409C413.94,-391.59 404.96,-352.62 399.5,-328.91"/>
<polygon fill="#63b8ff" stroke="#63b8ff" points="402.73,-328.34 397.07,-319.38 395.91,-329.91 402.73,-328.34"/>
</g>
<!-- Node28&#45;&gt;Node30 -->
<g id="edge54" class="edge">
<title>Node28&#45;&gt;Node30</title>
<path fill="none" stroke="#63b8ff" d="M425.45,-409.08C429.87,-401.96 436.24,-391.68 441.74,-382.8"/>
<polygon fill="#63b8ff" stroke="#63b8ff" points="445.14,-384.95 447.43,-374.61 439.19,-381.27 445.14,-384.95"/>
</g>
<!-- Node29&#45;&gt;Node5 -->
<g id="edge50" class="edge">
<title>Node29&#45;&gt;Node5</title>
<path fill="none" stroke="#63b8ff" d="M397.13,-298.43C399.04,-290.39 401.91,-278.3 404.35,-268.03"/>
<polygon fill="#63b8ff" stroke="#63b8ff" points="407.95,-269.06 406.85,-258.53 401.14,-267.45 407.95,-269.06"/>
</g>
<!-- Node29&#45;&gt;Node16 -->
<g id="edge51" class="edge">
<title>Node29&#45;&gt;Node16</title>
<path fill="none" stroke="#63b8ff" d="M410.54,-298.31C424.55,-289.84 445.43,-276.48 462,-262.75 534.91,-202.35 526.76,-153.72 611,-110.5 705.01,-62.26 742.04,-93.38 846,-74.5 846.11,-74.48 846.22,-74.46 846.34,-74.44"/>
<polygon fill="#63b8ff" stroke="#63b8ff" points="846.87,-77.71 856.03,-72.38 845.55,-70.83 846.87,-77.71"/>
</g>
<!-- Node30&#45;&gt;Node5 -->
<g id="edge57" class="edge">
<title>Node30&#45;&gt;Node5</title>
<path fill="none" stroke="#63b8ff" d="M450.45,-353.84C446.77,-341.42 439.58,-318.1 432,-298.75 427.82,-288.09 422.54,-276.45 418.1,-267.06"/>
<polygon fill="#63b8ff" stroke="#63b8ff" points="420.87,-265.76 413.37,-258.27 414.56,-268.79 420.87,-265.76"/>
</g>
<!-- Node30&#45;&gt;Node9 -->
<g id="edge56" class="edge">
<title>Node30&#45;&gt;Node9</title>
<path fill="none" stroke="#63b8ff" d="M422.51,-353.51C402.43,-346.34 376.52,-334.74 358,-318 305.65,-270.68 241.54,-232.6 285,-177 304.06,-152.61 388.07,-138.36 441.57,-131.6"/>
<polygon fill="#63b8ff" stroke="#63b8ff" points="441.98,-134.96 451.49,-130.27 441.14,-128.01 441.98,-134.96"/>
</g>
<!-- Node30&#45;&gt;Node16 -->
<g id="edge59" class="edge">
<title>Node30&#45;&gt;Node16</title>
<path fill="none" stroke="#63b8ff" d="M457,-353.59C473.97,-316.42 544.01,-174.2 649,-110.5 725.09,-64.33 758.66,-91.66 846,-74.5 846.11,-74.48 846.22,-74.46 846.34,-74.43"/>
<polygon fill="#63b8ff" stroke="#63b8ff" points="846.9,-77.69 856.01,-72.28 845.52,-70.83 846.9,-77.69"/>
</g>
<!-- Node30&#45;&gt;Node18 -->
<g id="edge58" class="edge">
<title>Node30&#45;&gt;Node18</title>
<path fill="none" stroke="#63b8ff" d="M483.56,-360.07C561.4,-353.53 773.48,-335.44 950,-318 961.69,-316.84 974.34,-315.52 986.05,-314.26"/>
<polygon fill="#63b8ff" stroke="#63b8ff" points="986.37,-317.63 995.93,-313.07 985.61,-310.67 986.37,-317.63"/>
</g>
<!-- Node30&#45;&gt;Node29 -->
<g id="edge55" class="edge">
<title>Node30&#45;&gt;Node29</title>
<path fill="none" stroke="#63b8ff" d="M443.16,-353.59C434.86,-345.97 422.77,-334.87 412.78,-325.7"/>
<polygon fill="#63b8ff" stroke="#63b8ff" points="415.43,-323.46 405.69,-319.27 410.69,-328.62 415.43,-323.46"/>
</g>
<!-- Node31&#45;&gt;Node9 -->
<g id="edge63" class="edge">
<title>Node31&#45;&gt;Node9</title>
<path fill="none" stroke="#63b8ff" d="M767.02,-178.76C708.62,-167.91 595.24,-146.85 532.14,-135.13"/>
<polygon fill="#63b8ff" stroke="#63b8ff" points="532.81,-131.51 522.34,-133.13 531.53,-138.39 532.81,-131.51"/>
</g>
<!-- Node31&#45;&gt;Node16 -->
<g id="edge64" class="edge">
<title>Node31&#45;&gt;Node16</title>
<path fill="none" stroke="#63b8ff" d="M810.24,-176.62C823.88,-156.95 856.57,-109.78 874.58,-83.8"/>
<polygon fill="#63b8ff" stroke="#63b8ff" points="877.87,-86.19 880.69,-75.98 872.12,-82.21 877.87,-86.19"/>
</g>
<!-- Node32 -->
<g id="node32" class="node">
<title>Node32</title>
<g id="a_node32"><a xlink:title=" ">
<polygon fill="#e0e0e0" stroke="#999999" points="802.62,-135.38 757.38,-135.38 757.38,-116.12 802.62,-116.12 802.62,-135.38"/>
<text text-anchor="middle" x="780" y="-121.88" font-family="Helvetica,sans-Serif" font-size="10.00">cstdint</text>
</a>
</g>
</g>
<!-- Node31&#45;&gt;Node32 -->
<g id="edge62" class="edge">
<title>Node31&#45;&gt;Node32</title>
<path fill="none" stroke="#63b8ff" d="M800.35,-176.68C797.04,-168.56 792.04,-156.29 787.83,-145.95"/>
<polygon fill="#63b8ff" stroke="#63b8ff" points="790.7,-144.71 783.68,-136.78 784.21,-147.36 790.7,-144.71"/>
</g>
<!-- Node33&#45;&gt;Node2 -->
<g id="edge66" class="edge">
<title>Node33&#45;&gt;Node2</title>
<path fill="none" stroke="#63b8ff" d="M853.95,-359.05C723.12,-349.27 369.5,-322.49 358,-318 226.57,-266.71 112.14,-131.61 74.26,-83.33"/>
<polygon fill="#63b8ff" stroke="#63b8ff" points="76.61,-81.65 67.72,-75.89 71.08,-85.94 76.61,-81.65"/>
</g>
<!-- Node33&#45;&gt;Node3 -->
<g id="edge67" class="edge">
<title>Node33&#45;&gt;Node3</title>
<path fill="none" stroke="#63b8ff" d="M853.97,-357.44C737.53,-344.3 443.36,-307.54 356,-262.75 268.38,-217.83 193.13,-122.89 164.42,-83.54"/>
<polygon fill="#63b8ff" stroke="#63b8ff" points="166.82,-81.88 158.14,-75.8 161.13,-85.96 166.82,-81.88"/>
</g>
<!-- Node33&#45;&gt;Node5 -->
<g id="edge74" class="edge">
<title>Node33&#45;&gt;Node5</title>
<path fill="none" stroke="#63b8ff" d="M862.9,-353.57C774,-332.99 556.81,-282.72 458.63,-259.99"/>
<polygon fill="#63b8ff" stroke="#63b8ff" points="459.63,-256.4 449.1,-257.55 458.05,-263.22 459.63,-256.4"/>
</g>
<!-- Node33&#45;&gt;Node6 -->
<g id="edge71" class="edge">
<title>Node33&#45;&gt;Node6</title>
<path fill="none" stroke="#63b8ff" d="M950.17,-363.07C1086.8,-363.06 1467,-353.57 1467,-248.5 1467,-248.5 1467,-248.5 1467,-185.62 1467,-147.59 1454.39,-135.82 1426,-110.5 1406.57,-93.17 1379.53,-82.08 1357.12,-75.29"/>
<polygon fill="#63b8ff" stroke="#63b8ff" points="1358.12,-71.65 1347.55,-72.29 1356.21,-78.38 1358.12,-71.65"/>
</g>
<!-- Node33&#45;&gt;Node9 -->
<g id="edge73" class="edge">
<title>Node33&#45;&gt;Node9</title>
<path fill="none" stroke="#63b8ff" d="M885.99,-353.52C822.69,-317.55 589.64,-185.09 512.2,-141.08"/>
<polygon fill="#63b8ff" stroke="#63b8ff" points="514.17,-137.6 503.74,-135.7 510.71,-143.68 514.17,-137.6"/>
</g>
<!-- Node33&#45;&gt;Node11 -->
<g id="edge69" class="edge">
<title>Node33&#45;&gt;Node11</title>
<path fill="none" stroke="#63b8ff" d="M899.1,-353.77C896.2,-344.79 891.64,-330.47 888,-318 869.84,-255.69 868.45,-239.22 850,-177 840.37,-144.53 827.99,-107.14 820.54,-85.06"/>
<polygon fill="#63b8ff" stroke="#63b8ff" points="823.57,-84.1 817.05,-75.76 816.94,-86.35 823.57,-84.1"/>
</g>
<!-- Node33&#45;&gt;Node14 -->
<g id="edge70" class="edge">
<title>Node33&#45;&gt;Node14</title>
<path fill="none" stroke="#63b8ff" d="M950.14,-362.76C1063.19,-362.41 1342.4,-357.45 1426,-318 1486.83,-289.29 1493.89,-243.02 1481,-177 1474.89,-145.69 1475.07,-134.45 1454,-110.5 1420.97,-72.96 1403.71,-70.22 1356,-55.25 1275.29,-29.92 1018.83,-16.39 923.31,-12.13"/>
<polygon fill="#63b8ff" stroke="#63b8ff" points="923.63,-8.59 913.48,-11.65 923.32,-15.59 923.63,-8.59"/>
</g>
<!-- Node33&#45;&gt;Node16 -->
<g id="edge76" class="edge">
<title>Node33&#45;&gt;Node16</title>
<path fill="none" stroke="#63b8ff" d="M916.83,-353.74C928.28,-345.94 943.27,-333.44 950,-318 953.42,-310.16 950.65,-307.28 950,-298.75 943.54,-214.34 954.12,-188.41 921,-110.5 916.78,-100.58 909.86,-90.89 903.35,-83.1"/>
<polygon fill="#63b8ff" stroke="#63b8ff" points="906.35,-81.07 897.1,-75.91 901.11,-85.71 906.35,-81.07"/>
</g>
<!-- Node33&#45;&gt;Node19 -->
<g id="edge72" class="edge">
<title>Node33&#45;&gt;Node19</title>
<path fill="none" stroke="#63b8ff" d="M949.87,-360.61C1062.49,-354.73 1338.63,-333.27 1391,-262.75 1416.66,-228.2 1401.32,-174.11 1390.28,-145.67"/>
<polygon fill="#63b8ff" stroke="#63b8ff" points="1393.27,-144.72 1386.22,-136.81 1386.79,-147.39 1393.27,-144.72"/>
</g>
<!-- Node33&#45;&gt;Node26 -->
<g id="edge75" class="edge">
<title>Node33&#45;&gt;Node26</title>
<path fill="none" stroke="#63b8ff" d="M942.64,-353.53C983.03,-344.49 1045.1,-330.61 1088.83,-320.82"/>
<polygon fill="#63b8ff" stroke="#63b8ff" points="1089.53,-324.03 1098.52,-318.43 1088,-317.2 1089.53,-324.03"/>
</g>
<!-- Node34 -->
<g id="node34" class="node">
<title>Node34</title>
<g id="a_node34"><a xlink:title=" ">
<polygon fill="#e0e0e0" stroke="#999999" points="941.25,-318 896.75,-318 896.75,-298.75 941.25,-298.75 941.25,-318"/>
<text text-anchor="middle" x="919" y="-304.5" font-family="Helvetica,sans-Serif" font-size="10.00">stdio.h</text>
</a>
</g>
</g>
<!-- Node33&#45;&gt;Node34 -->
<g id="edge68" class="edge">
<title>Node33&#45;&gt;Node34</title>
<path fill="none" stroke="#63b8ff" d="M904.81,-353.83C906.98,-347.01 910.08,-337.31 912.83,-328.7"/>
<polygon fill="#63b8ff" stroke="#63b8ff" points="916.42,-329.95 916.13,-319.36 909.76,-327.82 916.42,-329.95"/>
</g>
</g>
</svg>
