<?xml version="1.0" encoding="UTF-8" standalone="no"?>
<!DOCTYPE svg PUBLIC "-//W3C//DTD SVG 1.1//EN"
 "http://www.w3.org/Graphics/SVG/1.1/DTD/svg11.dtd">
<!-- Generated by graphviz version 8.0.5 (20230430.1635)
 -->
<!-- Title: include/v8&#45;exception.h Pages: 1 -->
<svg width="1522pt" height="547pt"
 viewBox="0.00 0.00 1522.00 547.00" xmlns="http://www.w3.org/2000/svg" xmlns:xlink="http://www.w3.org/1999/xlink">
<g id="graph0" class="graph" transform="scale(1 1) rotate(0) translate(4 543)">
<title>include/v8&#45;exception.h</title>
<!-- Node1 -->
<g id="node1" class="node">
<title>Node1</title>
<g id="a_node1"><a xlink:title=" ">
<polygon fill="#999999" stroke="#666666" points="1127,-539 1015,-539 1015,-519.75 1127,-519.75 1127,-539"/>
<text text-anchor="middle" x="1071" y="-525.5" font-family="Helvetica,sans-Serif" font-size="10.00">include/v8&#45;exception.h</text>
</a>
</g>
</g>
<!-- Node2 -->
<g id="node2" class="node">
<title>Node2</title>
<g id="a_node2"><a xlink:title=" ">
<polygon fill="#e0e0e0" stroke="#999999" points="1479.25,-74.5 1428.75,-74.5 1428.75,-55.25 1479.25,-55.25 1479.25,-74.5"/>
<text text-anchor="middle" x="1454" y="-61" font-family="Helvetica,sans-Serif" font-size="10.00">stddef.h</text>
</a>
</g>
</g>
<!-- Node1&#45;&gt;Node2 -->
<g id="edge1" class="edge">
<title>Node1&#45;&gt;Node2</title>
<path fill="none" stroke="#63b8ff" d="M1127.11,-526.35C1246.31,-520.52 1514,-498.66 1514,-419.88 1514,-419.88 1514,-419.88 1514,-185.62 1514,-145.54 1486.8,-105.14 1469.02,-83.03"/>
<polygon fill="#63b8ff" stroke="#63b8ff" points="1471.19,-81.16 1462.09,-75.73 1465.81,-85.65 1471.19,-81.16"/>
</g>
<!-- Node3 -->
<g id="node3" class="node">
<title>Node3</title>
<g id="a_node3"><a xlink:href="v8-local-handle_8h.html" target="_top" xlink:title=" ">
<polygon fill="white" stroke="#666666" points="1099.38,-257.12 1010.62,-257.12 1010.62,-237.88 1099.38,-237.88 1099.38,-257.12"/>
<text text-anchor="middle" x="1055" y="-243.62" font-family="Helvetica,sans-Serif" font-size="10.00">v8&#45;local&#45;handle.h</text>
</a>
</g>
</g>
<!-- Node1&#45;&gt;Node3 -->
<g id="edge2" class="edge">
<title>Node1&#45;&gt;Node3</title>
<path fill="none" stroke="#63b8ff" d="M1127.28,-522.53C1187.67,-512.78 1275,-487.07 1275,-419.88 1275,-419.88 1275,-419.88 1275,-362.62 1275,-288.55 1175.5,-262.49 1110.33,-253.37"/>
<polygon fill="#63b8ff" stroke="#63b8ff" points="1111.15,-249.82 1100.79,-252 1110.25,-256.76 1111.15,-249.82"/>
</g>
<!-- Node15 -->
<g id="node15" class="node">
<title>Node15</title>
<g id="a_node15"><a xlink:href="v8config_8h.html" target="_top" xlink:title=" ">
<polygon fill="white" stroke="#666666" points="321.75,-74.5 262.25,-74.5 262.25,-55.25 321.75,-55.25 321.75,-74.5"/>
<text text-anchor="middle" x="292" y="-61" font-family="Helvetica,sans-Serif" font-size="10.00">v8config.h</text>
</a>
</g>
</g>
<!-- Node1&#45;&gt;Node15 -->
<g id="edge77" class="edge">
<title>Node1&#45;&gt;Node15</title>
<path fill="none" stroke="#63b8ff" d="M1014.55,-528.64C793.66,-528.94 0,-522.84 0,-419.88 0,-419.88 0,-419.88 0,-185.62 0,-146 15.11,-132.6 48,-110.5 80.64,-88.57 190.89,-75.22 251.41,-69.37"/>
<polygon fill="#63b8ff" stroke="#63b8ff" points="251.47,-72.78 261.1,-68.36 250.81,-65.81 251.47,-72.78"/>
</g>
<!-- Node16 -->
<g id="node16" class="node">
<title>Node16</title>
<g id="a_node16"><a xlink:href="v8-object_8h.html" target="_top" xlink:title=" ">
<polygon fill="white" stroke="#666666" points="857.62,-483.75 794.38,-483.75 794.38,-464.5 857.62,-464.5 857.62,-483.75"/>
<text text-anchor="middle" x="826" y="-470.25" font-family="Helvetica,sans-Serif" font-size="10.00">v8&#45;object.h</text>
</a>
</g>
</g>
<!-- Node1&#45;&gt;Node16 -->
<g id="edge20" class="edge">
<title>Node1&#45;&gt;Node16</title>
<path fill="none" stroke="#63b8ff" d="M1029.16,-519.28C984.34,-509.54 913.58,-494.16 868.5,-484.36"/>
<polygon fill="#63b8ff" stroke="#63b8ff" points="869.42,-480.76 858.91,-482.06 867.94,-487.6 869.42,-480.76"/>
</g>
<!-- Node3&#45;&gt;Node2 -->
<g id="edge3" class="edge">
<title>Node3&#45;&gt;Node2</title>
<path fill="none" stroke="#63b8ff" d="M1075.63,-237.51C1098.5,-227.52 1136.44,-210.87 1169,-196.25 1262.57,-154.23 1372.88,-103.4 1424.53,-79.52"/>
<polygon fill="#63b8ff" stroke="#63b8ff" points="1425.74,-82.35 1433.35,-74.98 1422.8,-76 1425.74,-82.35"/>
</g>
<!-- Node4 -->
<g id="node4" class="node">
<title>Node4</title>
<g id="a_node4"><a xlink:title=" ">
<polygon fill="#e0e0e0" stroke="#999999" points="824.5,-74.5 763.5,-74.5 763.5,-55.25 824.5,-55.25 824.5,-74.5"/>
<text text-anchor="middle" x="794" y="-61" font-family="Helvetica,sans-Serif" font-size="10.00">type_traits</text>
</a>
</g>
</g>
<!-- Node3&#45;&gt;Node4 -->
<g id="edge4" class="edge">
<title>Node3&#45;&gt;Node4</title>
<path fill="none" stroke="#63b8ff" d="M1042.15,-237.45C1027.91,-227.42 1004.28,-210.73 984,-196.25 930.95,-158.36 919.07,-146.92 865,-110.5 849.65,-100.16 832.03,-89.08 818.19,-80.55"/>
<polygon fill="#63b8ff" stroke="#63b8ff" points="820.22,-77.08 809.86,-74.84 816.56,-83.05 820.22,-77.08"/>
</g>
<!-- Node5 -->
<g id="node5" class="node">
<title>Node5</title>
<g id="a_node5"><a xlink:title=" ">
<polygon fill="#e0e0e0" stroke="#999999" points="1036.5,-196.25 993.5,-196.25 993.5,-177 1036.5,-177 1036.5,-196.25"/>
<text text-anchor="middle" x="1015" y="-182.75" font-family="Helvetica,sans-Serif" font-size="10.00">vector</text>
</a>
</g>
</g>
<!-- Node3&#45;&gt;Node5 -->
<g id="edge5" class="edge">
<title>Node3&#45;&gt;Node5</title>
<path fill="none" stroke="#63b8ff" d="M1048.92,-237.56C1043.17,-229.09 1034.36,-216.12 1027.16,-205.52"/>
<polygon fill="#63b8ff" stroke="#63b8ff" points="1029.65,-203.96 1021.13,-197.65 1023.86,-207.89 1029.65,-203.96"/>
</g>
<!-- Node6 -->
<g id="node6" class="node">
<title>Node6</title>
<g id="a_node6"><a xlink:href="v8-handle-base_8h.html" target="_top" xlink:title=" ">
<polygon fill="white" stroke="#666666" points="1143.75,-196.25 1054.25,-196.25 1054.25,-177 1143.75,-177 1143.75,-196.25"/>
<text text-anchor="middle" x="1099" y="-182.75" font-family="Helvetica,sans-Serif" font-size="10.00">v8&#45;handle&#45;base.h</text>
</a>
</g>
</g>
<!-- Node3&#45;&gt;Node6 -->
<g id="edge6" class="edge">
<title>Node3&#45;&gt;Node6</title>
<path fill="none" stroke="#63b8ff" d="M1061.68,-237.56C1068.08,-229 1077.9,-215.85 1085.87,-205.2"/>
<polygon fill="#63b8ff" stroke="#63b8ff" points="1089.07,-207.76 1092.25,-197.65 1083.46,-203.57 1089.07,-207.76"/>
</g>
<!-- Node7 -->
<g id="node7" class="node">
<title>Node7</title>
<g id="a_node7"><a xlink:href="v8-internal_8h.html" target="_top" xlink:title=" ">
<polygon fill="white" stroke="#666666" points="1153.25,-135.38 1084.75,-135.38 1084.75,-116.12 1153.25,-116.12 1153.25,-135.38"/>
<text text-anchor="middle" x="1119" y="-121.88" font-family="Helvetica,sans-Serif" font-size="10.00">v8&#45;internal.h</text>
</a>
</g>
</g>
<!-- Node3&#45;&gt;Node7 -->
<g id="edge19" class="edge">
<title>Node3&#45;&gt;Node7</title>
<path fill="none" stroke="#63b8ff" d="M1093.43,-237.38C1114.97,-230.09 1140.04,-217.46 1153,-196.25 1163.66,-178.81 1149.64,-157.55 1136.51,-143.18"/>
<polygon fill="#63b8ff" stroke="#63b8ff" points="1139.57,-141.28 1130.08,-136.59 1134.57,-146.18 1139.57,-141.28"/>
</g>
<!-- Node6&#45;&gt;Node7 -->
<g id="edge7" class="edge">
<title>Node6&#45;&gt;Node7</title>
<path fill="none" stroke="#63b8ff" d="M1102.04,-176.68C1104.8,-168.56 1108.96,-156.29 1112.48,-145.95"/>
<polygon fill="#63b8ff" stroke="#63b8ff" points="1116.03,-147.37 1115.93,-136.78 1109.4,-145.12 1116.03,-147.37"/>
</g>
<!-- Node7&#45;&gt;Node2 -->
<g id="edge8" class="edge">
<title>Node7&#45;&gt;Node2</title>
<path fill="none" stroke="#63b8ff" d="M1153.73,-119.42C1209.14,-110.8 1320.87,-92.89 1415,-74.5 1415.95,-74.31 1416.92,-74.12 1417.89,-73.93"/>
<polygon fill="#63b8ff" stroke="#63b8ff" points="1418.37,-77.19 1427.44,-71.72 1416.94,-70.34 1418.37,-77.19"/>
</g>
<!-- Node7&#45;&gt;Node4 -->
<g id="edge16" class="edge">
<title>Node7&#45;&gt;Node4</title>
<path fill="none" stroke="#63b8ff" d="M1084.53,-118.51C1024.3,-107.59 900.17,-85.11 835.4,-73.37"/>
<polygon fill="#63b8ff" stroke="#63b8ff" points="836.24,-69.79 825.77,-71.45 834.99,-76.68 836.24,-69.79"/>
</g>
<!-- Node8 -->
<g id="node8" class="node">
<title>Node8</title>
<g id="a_node8"><a xlink:title=" ">
<polygon fill="#e0e0e0" stroke="#999999" points="1332.75,-74.5 1285.25,-74.5 1285.25,-55.25 1332.75,-55.25 1332.75,-74.5"/>
<text text-anchor="middle" x="1309" y="-61" font-family="Helvetica,sans-Serif" font-size="10.00">stdint.h</text>
</a>
</g>
</g>
<!-- Node7&#45;&gt;Node8 -->
<g id="edge9" class="edge">
<title>Node7&#45;&gt;Node8</title>
<path fill="none" stroke="#63b8ff" d="M1148.27,-115.68C1182.38,-105.11 1238.66,-87.67 1274.76,-76.48"/>
<polygon fill="#63b8ff" stroke="#63b8ff" points="1275.31,-79.67 1283.82,-73.37 1273.23,-72.98 1275.31,-79.67"/>
</g>
<!-- Node9 -->
<g id="node9" class="node">
<title>Node9</title>
<g id="a_node9"><a xlink:title=" ">
<polygon fill="#e0e0e0" stroke="#999999" points="1016.75,-74.5 969.25,-74.5 969.25,-55.25 1016.75,-55.25 1016.75,-74.5"/>
<text text-anchor="middle" x="993" y="-61" font-family="Helvetica,sans-Serif" font-size="10.00">string.h</text>
</a>
</g>
</g>
<!-- Node7&#45;&gt;Node9 -->
<g id="edge10" class="edge">
<title>Node7&#45;&gt;Node9</title>
<path fill="none" stroke="#63b8ff" d="M1099.59,-115.68C1078.9,-106.01 1045.92,-90.6 1022.12,-79.48"/>
<polygon fill="#63b8ff" stroke="#63b8ff" points="1023.77,-75.92 1013.23,-74.86 1020.8,-82.26 1023.77,-75.92"/>
</g>
<!-- Node10 -->
<g id="node10" class="node">
<title>Node10</title>
<g id="a_node10"><a xlink:title=" ">
<polygon fill="#e0e0e0" stroke="#999999" points="1405.62,-74.5 1360.38,-74.5 1360.38,-55.25 1405.62,-55.25 1405.62,-74.5"/>
<text text-anchor="middle" x="1383" y="-61" font-family="Helvetica,sans-Serif" font-size="10.00">atomic</text>
</a>
</g>
</g>
<!-- Node7&#45;&gt;Node10 -->
<g id="edge11" class="edge">
<title>Node7&#45;&gt;Node10</title>
<path fill="none" stroke="#63b8ff" d="M1153.51,-117.05C1204.45,-105.69 1299.14,-84.58 1349.49,-73.35"/>
<polygon fill="#63b8ff" stroke="#63b8ff" points="1350.12,-76.57 1359.12,-70.98 1348.6,-69.74 1350.12,-76.57"/>
</g>
<!-- Node11 -->
<g id="node11" class="node">
<title>Node11</title>
<g id="a_node11"><a xlink:title=" ">
<polygon fill="#e0e0e0" stroke="#999999" points="1081,-74.5 1035,-74.5 1035,-55.25 1081,-55.25 1081,-74.5"/>
<text text-anchor="middle" x="1058" y="-61" font-family="Helvetica,sans-Serif" font-size="10.00">iterator</text>
</a>
</g>
</g>
<!-- Node7&#45;&gt;Node11 -->
<g id="edge12" class="edge">
<title>Node7&#45;&gt;Node11</title>
<path fill="none" stroke="#63b8ff" d="M1109.74,-115.81C1100.6,-106.99 1086.42,-93.3 1075.21,-82.48"/>
<polygon fill="#63b8ff" stroke="#63b8ff" points="1077.98,-80.33 1068.35,-75.9 1073.12,-85.36 1077.98,-80.33"/>
</g>
<!-- Node12 -->
<g id="node12" class="node">
<title>Node12</title>
<g id="a_node12"><a xlink:title=" ">
<polygon fill="#e0e0e0" stroke="#999999" points="1138.62,-74.5 1099.38,-74.5 1099.38,-55.25 1138.62,-55.25 1138.62,-74.5"/>
<text text-anchor="middle" x="1119" y="-61" font-family="Helvetica,sans-Serif" font-size="10.00">limits</text>
</a>
</g>
</g>
<!-- Node7&#45;&gt;Node12 -->
<g id="edge13" class="edge">
<title>Node7&#45;&gt;Node12</title>
<path fill="none" stroke="#63b8ff" d="M1119,-115.81C1119,-107.85 1119,-95.94 1119,-85.74"/>
<polygon fill="#63b8ff" stroke="#63b8ff" points="1122.5,-85.9 1119,-75.9 1115.5,-85.9 1122.5,-85.9"/>
</g>
<!-- Node13 -->
<g id="node13" class="node">
<title>Node13</title>
<g id="a_node13"><a xlink:title=" ">
<polygon fill="#e0e0e0" stroke="#999999" points="1260.25,-19.25 1209.75,-19.25 1209.75,0 1260.25,0 1260.25,-19.25"/>
<text text-anchor="middle" x="1235" y="-5.75" font-family="Helvetica,sans-Serif" font-size="10.00">memory</text>
</a>
</g>
</g>
<!-- Node7&#45;&gt;Node13 -->
<g id="edge14" class="edge">
<title>Node7&#45;&gt;Node13</title>
<path fill="none" stroke="#63b8ff" d="M1150.28,-115.75C1171.66,-108.07 1199.08,-94.96 1216,-74.5 1226.38,-61.95 1231.09,-43.89 1233.23,-30.17"/>
<polygon fill="#63b8ff" stroke="#63b8ff" points="1236.79,-30.83 1234.52,-20.48 1229.84,-29.99 1236.79,-30.83"/>
</g>
<!-- Node14 -->
<g id="node14" class="node">
<title>Node14</title>
<g id="a_node14"><a xlink:title=" ">
<polygon fill="#e0e0e0" stroke="#999999" points="1206.88,-74.5 1157.12,-74.5 1157.12,-55.25 1206.88,-55.25 1206.88,-74.5"/>
<text text-anchor="middle" x="1182" y="-61" font-family="Helvetica,sans-Serif" font-size="10.00">optional</text>
</a>
</g>
</g>
<!-- Node7&#45;&gt;Node14 -->
<g id="edge15" class="edge">
<title>Node7&#45;&gt;Node14</title>
<path fill="none" stroke="#63b8ff" d="M1128.57,-115.81C1138.1,-106.9 1152.94,-93.03 1164.57,-82.17"/>
<polygon fill="#63b8ff" stroke="#63b8ff" points="1166.43,-85.29 1171.34,-75.9 1161.65,-80.17 1166.43,-85.29"/>
</g>
<!-- Node7&#45;&gt;Node15 -->
<g id="edge17" class="edge">
<title>Node7&#45;&gt;Node15</title>
<path fill="none" stroke="#63b8ff" d="M1084.26,-122.28C951.43,-112.82 476.07,-78.98 333.02,-68.8"/>
<polygon fill="#63b8ff" stroke="#63b8ff" points="333.36,-65.24 323.14,-68.02 332.87,-72.22 333.36,-65.24"/>
</g>
<!-- Node15&#45;&gt;Node13 -->
<g id="edge18" class="edge">
<title>Node15&#45;&gt;Node13</title>
<path fill="none" stroke="#63b8ff" d="M322.04,-62.18C461.65,-54.3 1046.65,-21.26 1198.74,-12.67"/>
<polygon fill="#63b8ff" stroke="#63b8ff" points="1198.54,-16.13 1208.33,-12.07 1198.15,-9.14 1198.54,-16.13"/>
</g>
<!-- Node16&#45;&gt;Node3 -->
<g id="edge22" class="edge">
<title>Node16&#45;&gt;Node3</title>
<path fill="none" stroke="#63b8ff" d="M841.45,-464.08C876.9,-442.68 965.2,-385.61 1019,-318 1031.41,-302.41 1041.41,-281.88 1047.69,-267.18"/>
<polygon fill="#63b8ff" stroke="#63b8ff" points="1051.21,-268.84 1051.75,-258.26 1044.73,-266.19 1051.21,-268.84"/>
</g>
<!-- Node16&#45;&gt;Node7 -->
<g id="edge21" class="edge">
<title>Node16&#45;&gt;Node7</title>
<path fill="none" stroke="#63b8ff" d="M857.97,-470.69C910.99,-466.06 1020.1,-454.11 1109,-428.5 1168.93,-411.23 1194.47,-417.92 1238,-373.25 1300.32,-309.3 1334.61,-248.4 1281,-177 1254.13,-141.21 1202.05,-130.2 1164.18,-127.17"/>
<polygon fill="#63b8ff" stroke="#63b8ff" points="1164.62,-123.63 1154.42,-126.49 1164.18,-130.61 1164.62,-123.63"/>
</g>
<!-- Node16&#45;&gt;Node15 -->
<g id="edge76" class="edge">
<title>Node16&#45;&gt;Node15</title>
<path fill="none" stroke="#63b8ff" d="M794.13,-472.15C646.71,-467.25 38,-442.3 38,-364.62 38,-364.62 38,-364.62 38,-185.62 38,-92.61 179.08,-71.72 250.96,-67.12"/>
<polygon fill="#63b8ff" stroke="#63b8ff" points="251.08,-70.56 260.87,-66.51 250.69,-63.57 251.08,-70.56"/>
</g>
<!-- Node17 -->
<g id="node17" class="node">
<title>Node17</title>
<g id="a_node17"><a xlink:href="v8-maybe_8h.html" target="_top" xlink:title=" ">
<polygon fill="white" stroke="#666666" points="654.75,-318 589.25,-318 589.25,-298.75 654.75,-298.75 654.75,-318"/>
<text text-anchor="middle" x="622" y="-304.5" font-family="Helvetica,sans-Serif" font-size="10.00">v8&#45;maybe.h</text>
</a>
</g>
</g>
<!-- Node16&#45;&gt;Node17 -->
<g id="edge23" class="edge">
<title>Node16&#45;&gt;Node17</title>
<path fill="none" stroke="#63b8ff" d="M799.61,-464.14C779.41,-456.52 751.46,-444.3 730,-428.5 689.72,-398.84 652.91,-352.33 634.45,-327.09"/>
<polygon fill="#63b8ff" stroke="#63b8ff" points="636.78,-325.34 628.1,-319.26 631.09,-329.42 636.78,-325.34"/>
</g>
<!-- Node24 -->
<g id="node24" class="node">
<title>Node24</title>
<g id="a_node24"><a xlink:href="v8-persistent-handle_8h.html" target="_top" xlink:title=" ">
<polygon fill="white" stroke="#666666" points="917.62,-373.25 806.38,-373.25 806.38,-354 917.62,-354 917.62,-373.25"/>
<text text-anchor="middle" x="862" y="-359.75" font-family="Helvetica,sans-Serif" font-size="10.00">v8&#45;persistent&#45;handle.h</text>
</a>
</g>
</g>
<!-- Node16&#45;&gt;Node24 -->
<g id="edge38" class="edge">
<title>Node16&#45;&gt;Node24</title>
<path fill="none" stroke="#63b8ff" d="M828.95,-464.25C834.75,-446.76 847.77,-407.52 855.63,-383.84"/>
<polygon fill="#63b8ff" stroke="#63b8ff" points="859.19,-385.22 859.01,-374.63 852.54,-383.02 859.19,-385.22"/>
</g>
<!-- Node27 -->
<g id="node27" class="node">
<title>Node27</title>
<g id="a_node27"><a xlink:href="v8-primitive_8h.html" target="_top" xlink:title=" ">
<polygon fill="white" stroke="#666666" points="828.88,-428.5 755.12,-428.5 755.12,-409.25 828.88,-409.25 828.88,-428.5"/>
<text text-anchor="middle" x="792" y="-415" font-family="Helvetica,sans-Serif" font-size="10.00">v8&#45;primitive.h</text>
</a>
</g>
</g>
<!-- Node16&#45;&gt;Node27 -->
<g id="edge46" class="edge">
<title>Node16&#45;&gt;Node27</title>
<path fill="none" stroke="#63b8ff" d="M820.39,-464.33C815.84,-457.21 809.27,-446.93 803.6,-438.05"/>
<polygon fill="#63b8ff" stroke="#63b8ff" points="806.07,-436.4 797.74,-429.86 800.17,-440.17 806.07,-436.4"/>
</g>
<!-- Node29 -->
<g id="node29" class="node">
<title>Node29</title>
<g id="a_node29"><a xlink:href="v8-value_8h.html" target="_top" xlink:title=" ">
<polygon fill="white" stroke="#666666" points="750.12,-373.25 689.88,-373.25 689.88,-354 750.12,-354 750.12,-373.25"/>
<text text-anchor="middle" x="720" y="-359.75" font-family="Helvetica,sans-Serif" font-size="10.00">v8&#45;value.h</text>
</a>
</g>
</g>
<!-- Node16&#45;&gt;Node29 -->
<g id="edge75" class="edge">
<title>Node16&#45;&gt;Node29</title>
<path fill="none" stroke="#63b8ff" d="M800.32,-464.06C782.97,-456.79 760.65,-445.06 746,-428.5 734.83,-415.88 728.09,-397.82 724.27,-384.13"/>
<polygon fill="#63b8ff" stroke="#63b8ff" points="727.44,-383.33 721.64,-374.46 720.64,-385.01 727.44,-383.33"/>
</g>
<!-- Node30 -->
<g id="node30" class="node">
<title>Node30</title>
<g id="a_node30"><a xlink:href="v8-sandbox_8h.html" target="_top" xlink:title=" ">
<polygon fill="white" stroke="#666666" points="220.5,-196.25 147.5,-196.25 147.5,-177 220.5,-177 220.5,-196.25"/>
<text text-anchor="middle" x="184" y="-182.75" font-family="Helvetica,sans-Serif" font-size="10.00">v8&#45;sandbox.h</text>
</a>
</g>
</g>
<!-- Node16&#45;&gt;Node30 -->
<g id="edge59" class="edge">
<title>Node16&#45;&gt;Node30</title>
<path fill="none" stroke="#63b8ff" d="M794.31,-471.21C664.21,-462.96 178,-427.86 178,-364.62 178,-364.62 178,-364.62 178,-307.38 178,-272.1 180.63,-231.05 182.41,-207.33"/>
<polygon fill="#63b8ff" stroke="#63b8ff" points="185.95,-207.87 183.24,-197.63 178.97,-207.33 185.95,-207.87"/>
</g>
<!-- Node32 -->
<g id="node32" class="node">
<title>Node32</title>
<g id="a_node32"><a xlink:href="v8-traced-handle_8h.html" target="_top" xlink:title=" ">
<polygon fill="white" stroke="#666666" points="1228.75,-373.25 1133.25,-373.25 1133.25,-354 1228.75,-354 1228.75,-373.25"/>
<text text-anchor="middle" x="1181" y="-359.75" font-family="Helvetica,sans-Serif" font-size="10.00">v8&#45;traced&#45;handle.h</text>
</a>
</g>
</g>
<!-- Node16&#45;&gt;Node32 -->
<g id="edge63" class="edge">
<title>Node16&#45;&gt;Node32</title>
<path fill="none" stroke="#63b8ff" d="M858.03,-471.12C906.41,-467.27 1000.39,-456.57 1075,-428.5 1106.94,-416.48 1140.06,-394.79 1160.59,-380.05"/>
<polygon fill="#63b8ff" stroke="#63b8ff" points="1162.34,-382.37 1168.34,-373.64 1158.21,-376.72 1162.34,-382.37"/>
</g>
<!-- Node17&#45;&gt;Node4 -->
<g id="edge24" class="edge">
<title>Node17&#45;&gt;Node4</title>
<path fill="none" stroke="#63b8ff" d="M630.16,-298.38C638.06,-289.54 650.25,-275.53 660,-262.75 708.6,-199.01 760.44,-118.91 782.74,-83.78"/>
<polygon fill="#63b8ff" stroke="#63b8ff" points="786.06,-86.07 788.45,-75.75 780.15,-82.33 786.06,-86.07"/>
</g>
<!-- Node17&#45;&gt;Node7 -->
<g id="edge36" class="edge">
<title>Node17&#45;&gt;Node7</title>
<path fill="none" stroke="#63b8ff" d="M640.91,-298.31C659.37,-289.41 688.23,-275.38 713,-262.75 785.58,-225.76 798.33,-204.55 875,-177 942.17,-152.86 1024.13,-138.97 1073.9,-132.13"/>
<polygon fill="#63b8ff" stroke="#63b8ff" points="1074.17,-135.5 1083.62,-130.7 1073.25,-128.56 1074.17,-135.5"/>
</g>
<!-- Node17&#45;&gt;Node15 -->
<g id="edge37" class="edge">
<title>Node17&#45;&gt;Node15</title>
<path fill="none" stroke="#63b8ff" d="M589.04,-300.5C546.49,-291.33 475.05,-274.84 451,-262.75 431.65,-253.02 432.92,-240.75 413,-232.25 356.31,-208.06 178.65,-242.57 138,-196.25 119.46,-175.12 126.69,-144.65 161,-110.5 185.08,-86.53 222.54,-75.42 251.24,-70.28"/>
<polygon fill="#63b8ff" stroke="#63b8ff" points="251.45,-73.64 260.77,-68.59 250.34,-66.72 251.45,-73.64"/>
</g>
<!-- Node18 -->
<g id="node18" class="node">
<title>Node18</title>
<g id="a_node18"><a xlink:title=" ">
<polygon fill="#e0e0e0" stroke="#999999" points="710.25,-135.38 671.75,-135.38 671.75,-116.12 710.25,-116.12 710.25,-135.38"/>
<text text-anchor="middle" x="691" y="-121.88" font-family="Helvetica,sans-Serif" font-size="10.00">utility</text>
</a>
</g>
</g>
<!-- Node17&#45;&gt;Node18 -->
<g id="edge25" class="edge">
<title>Node17&#45;&gt;Node18</title>
<path fill="none" stroke="#63b8ff" d="M625.33,-298.66C635.91,-270.96 668.97,-184.42 683.74,-145.75"/>
<polygon fill="#63b8ff" stroke="#63b8ff" points="687.24,-147.39 687.54,-136.8 680.7,-144.89 687.24,-147.39"/>
</g>
<!-- Node19 -->
<g id="node19" class="node">
<title>Node19</title>
<g id="a_node19"><a xlink:href="conditional-stack-allocated_8h.html" target="_top" xlink:title=" ">
<polygon fill="white" stroke="#666666" points="586.12,-262.75 459.88,-262.75 459.88,-232.25 586.12,-232.25 586.12,-262.75"/>
<text text-anchor="start" x="467.88" y="-249.25" font-family="Helvetica,sans-Serif" font-size="10.00">cppgc/internal/conditional</text>
<text text-anchor="middle" x="523" y="-238" font-family="Helvetica,sans-Serif" font-size="10.00">&#45;stack&#45;allocated.h</text>
</a>
</g>
</g>
<!-- Node17&#45;&gt;Node19 -->
<g id="edge26" class="edge">
<title>Node17&#45;&gt;Node19</title>
<path fill="none" stroke="#63b8ff" d="M606.96,-298.43C593.64,-290.51 573.69,-278.65 556.59,-268.47"/>
<polygon fill="#63b8ff" stroke="#63b8ff" points="558.82,-265.14 548.44,-263.03 555.24,-271.15 558.82,-265.14"/>
</g>
<!-- Node19&#45;&gt;Node4 -->
<g id="edge27" class="edge">
<title>Node19&#45;&gt;Node4</title>
<path fill="none" stroke="#63b8ff" d="M536.46,-231.89C565.6,-200.52 634.25,-128.11 663,-110.5 690.73,-93.51 725.76,-82.01 752.61,-74.95"/>
<polygon fill="#63b8ff" stroke="#63b8ff" points="753.37,-78.12 762.21,-72.28 751.66,-71.33 753.37,-78.12"/>
</g>
<!-- Node20 -->
<g id="node20" class="node">
<title>Node20</title>
<g id="a_node20"><a xlink:href="macros_8h.html" target="_top" xlink:title=" ">
<polygon fill="white" stroke="#666666" points="443.5,-196.25 358.5,-196.25 358.5,-177 443.5,-177 443.5,-196.25"/>
<text text-anchor="middle" x="401" y="-182.75" font-family="Helvetica,sans-Serif" font-size="10.00">cppgc/macros.h</text>
</a>
</g>
</g>
<!-- Node19&#45;&gt;Node20 -->
<g id="edge28" class="edge">
<title>Node19&#45;&gt;Node20</title>
<path fill="none" stroke="#63b8ff" d="M492.53,-231.8C473.23,-222.48 448.45,-210.52 429.54,-201.4"/>
<polygon fill="#63b8ff" stroke="#63b8ff" points="431.24,-197.85 420.71,-196.65 428.19,-204.15 431.24,-197.85"/>
</g>
<!-- Node23 -->
<g id="node23" class="node">
<title>Node23</title>
<g id="a_node23"><a xlink:href="type-traits_8h.html" target="_top" xlink:title=" ">
<polygon fill="white" stroke="#666666" points="556.75,-196.25 461.25,-196.25 461.25,-177 556.75,-177 556.75,-196.25"/>
<text text-anchor="middle" x="509" y="-182.75" font-family="Helvetica,sans-Serif" font-size="10.00">cppgc/type&#45;traits.h</text>
</a>
</g>
</g>
<!-- Node19&#45;&gt;Node23 -->
<g id="edge32" class="edge">
<title>Node19&#45;&gt;Node23</title>
<path fill="none" stroke="#63b8ff" d="M519.54,-231.95C517.78,-224.53 515.61,-215.41 513.7,-207.38"/>
<polygon fill="#63b8ff" stroke="#63b8ff" points="516.88,-206.62 511.16,-197.7 510.07,-208.24 516.88,-206.62"/>
</g>
<!-- Node21 -->
<g id="node21" class="node">
<title>Node21</title>
<g id="a_node21"><a xlink:title=" ">
<polygon fill="#e0e0e0" stroke="#999999" points="540.12,-135.38 491.88,-135.38 491.88,-116.12 540.12,-116.12 540.12,-135.38"/>
<text text-anchor="middle" x="516" y="-121.88" font-family="Helvetica,sans-Serif" font-size="10.00">cstddef</text>
</a>
</g>
</g>
<!-- Node20&#45;&gt;Node21 -->
<g id="edge29" class="edge">
<title>Node20&#45;&gt;Node21</title>
<path fill="none" stroke="#63b8ff" d="M418.47,-176.68C437.13,-167.13 466.95,-151.86 488.71,-140.72"/>
<polygon fill="#63b8ff" stroke="#63b8ff" points="490.06,-143.45 497.37,-135.78 486.87,-137.22 490.06,-143.45"/>
</g>
<!-- Node22 -->
<g id="node22" class="node">
<title>Node22</title>
<g id="a_node22"><a xlink:href="compiler-specific_8h.html" target="_top" xlink:title=" ">
<polygon fill="white" stroke="#666666" points="474.25,-141 357.75,-141 357.75,-110.5 474.25,-110.5 474.25,-141"/>
<text text-anchor="start" x="365.75" y="-127.5" font-family="Helvetica,sans-Serif" font-size="10.00">cppgc/internal/compiler</text>
<text text-anchor="middle" x="416" y="-116.25" font-family="Helvetica,sans-Serif" font-size="10.00">&#45;specific.h</text>
</a>
</g>
</g>
<!-- Node20&#45;&gt;Node22 -->
<g id="edge30" class="edge">
<title>Node20&#45;&gt;Node22</title>
<path fill="none" stroke="#63b8ff" d="M403.28,-176.68C404.96,-170.08 407.34,-160.74 409.59,-151.93"/>
<polygon fill="#63b8ff" stroke="#63b8ff" points="413.22,-152.84 412.3,-142.28 406.44,-151.11 413.22,-152.84"/>
</g>
<!-- Node22&#45;&gt;Node15 -->
<g id="edge31" class="edge">
<title>Node22&#45;&gt;Node15</title>
<path fill="none" stroke="#63b8ff" d="M385.03,-110.05C365.33,-100.69 340,-88.66 320.74,-79.52"/>
<polygon fill="#63b8ff" stroke="#63b8ff" points="322.55,-76.03 312.02,-74.9 319.55,-82.35 322.55,-76.03"/>
</g>
<!-- Node23&#45;&gt;Node4 -->
<g id="edge34" class="edge">
<title>Node23&#45;&gt;Node4</title>
<path fill="none" stroke="#63b8ff" d="M520.72,-176.71C541.62,-161.21 587.15,-129.16 630,-110.5 670.16,-93.02 718.88,-80.8 752.74,-73.63"/>
<polygon fill="#63b8ff" stroke="#63b8ff" points="753.09,-76.92 762.18,-71.48 751.68,-70.07 753.09,-76.92"/>
</g>
<!-- Node23&#45;&gt;Node18 -->
<g id="edge35" class="edge">
<title>Node23&#45;&gt;Node18</title>
<path fill="none" stroke="#63b8ff" d="M537.04,-176.55C570.6,-165.7 626.57,-147.59 660.98,-136.46"/>
<polygon fill="#63b8ff" stroke="#63b8ff" points="661.91,-139.52 670.34,-133.11 659.75,-132.86 661.91,-139.52"/>
</g>
<!-- Node23&#45;&gt;Node21 -->
<g id="edge33" class="edge">
<title>Node23&#45;&gt;Node21</title>
<path fill="none" stroke="#63b8ff" d="M510.06,-176.68C511.01,-168.73 512.43,-156.81 513.64,-146.62"/>
<polygon fill="#63b8ff" stroke="#63b8ff" points="517.22,-147.12 514.93,-136.78 510.27,-146.29 517.22,-147.12"/>
</g>
<!-- Node24&#45;&gt;Node3 -->
<g id="edge40" class="edge">
<title>Node24&#45;&gt;Node3</title>
<path fill="none" stroke="#63b8ff" d="M877.14,-353.67C910.32,-334.05 989.69,-287.12 1030.24,-263.14"/>
<polygon fill="#63b8ff" stroke="#63b8ff" points="1031.83,-265.67 1038.66,-257.57 1028.27,-259.65 1031.83,-265.67"/>
</g>
<!-- Node24&#45;&gt;Node7 -->
<g id="edge39" class="edge">
<title>Node24&#45;&gt;Node7</title>
<path fill="none" stroke="#63b8ff" d="M865.4,-353.84C877.18,-324.48 919.16,-228.67 984,-177 1010.19,-156.13 1045.91,-143.35 1074.03,-135.9"/>
<polygon fill="#63b8ff" stroke="#63b8ff" points="1074.55,-139.12 1083.4,-133.3 1072.85,-132.34 1074.55,-139.12"/>
</g>
<!-- Node24&#45;&gt;Node15 -->
<g id="edge45" class="edge">
<title>Node24&#45;&gt;Node15</title>
<path fill="none" stroke="#63b8ff" d="M805.97,-357.46C700.15,-347.57 478.38,-326.25 444,-318 296.43,-282.6 211.07,-321.23 125,-196.25 112.72,-178.42 104.35,-144.65 134,-110.5 162.96,-77.15 214.76,-67.82 251.13,-65.66"/>
<polygon fill="#63b8ff" stroke="#63b8ff" points="251.04,-69.12 260.88,-65.19 250.74,-62.13 251.04,-69.12"/>
</g>
<!-- Node25 -->
<g id="node25" class="node">
<title>Node25</title>
<g id="a_node25"><a xlink:href="v8-weak-callback-info_8h.html" target="_top" xlink:title=" ">
<polygon fill="white" stroke="#666666" points="571,-318 453,-318 453,-298.75 571,-298.75 571,-318"/>
<text text-anchor="middle" x="512" y="-304.5" font-family="Helvetica,sans-Serif" font-size="10.00">v8&#45;weak&#45;callback&#45;info.h</text>
</a>
</g>
</g>
<!-- Node24&#45;&gt;Node25 -->
<g id="edge41" class="edge">
<title>Node24&#45;&gt;Node25</title>
<path fill="none" stroke="#63b8ff" d="M806.15,-354.13C745.37,-344.88 648.05,-330.07 582.15,-320.05"/>
<polygon fill="#63b8ff" stroke="#63b8ff" points="582.86,-316.46 572.45,-318.42 581.81,-323.38 582.86,-316.46"/>
</g>
<!-- Node25&#45;&gt;Node15 -->
<g id="edge44" class="edge">
<title>Node25&#45;&gt;Node15</title>
<path fill="none" stroke="#63b8ff" d="M452.88,-305.21C418.33,-300.87 376.29,-289.82 349,-262.75 299.08,-213.23 326.08,-177.89 306,-110.5 303.51,-102.13 300.64,-92.93 298.15,-85.06"/>
<polygon fill="#63b8ff" stroke="#63b8ff" points="301.23,-84.21 294.86,-75.74 294.57,-86.33 301.23,-84.21"/>
</g>
<!-- Node25&#45;&gt;Node19 -->
<g id="edge43" class="edge">
<title>Node25&#45;&gt;Node19</title>
<path fill="none" stroke="#63b8ff" d="M513.67,-298.43C514.9,-291.83 516.65,-282.49 518.3,-273.68"/>
<polygon fill="#63b8ff" stroke="#63b8ff" points="521.89,-274.5 520.28,-264.03 515.01,-273.22 521.89,-274.5"/>
</g>
<!-- Node26 -->
<g id="node26" class="node">
<title>Node26</title>
<g id="a_node26"><a xlink:title=" ">
<polygon fill="#e0e0e0" stroke="#999999" points="403.62,-257.12 358.38,-257.12 358.38,-237.88 403.62,-237.88 403.62,-257.12"/>
<text text-anchor="middle" x="381" y="-243.62" font-family="Helvetica,sans-Serif" font-size="10.00">cstring</text>
</a>
</g>
</g>
<!-- Node25&#45;&gt;Node26 -->
<g id="edge42" class="edge">
<title>Node25&#45;&gt;Node26</title>
<path fill="none" stroke="#63b8ff" d="M491.82,-298.3C470.22,-288.6 435.71,-273.09 410.94,-261.96"/>
<polygon fill="#63b8ff" stroke="#63b8ff" points="412.55,-258.39 401.99,-257.48 409.68,-264.78 412.55,-258.39"/>
</g>
<!-- Node27&#45;&gt;Node3 -->
<g id="edge51" class="edge">
<title>Node27&#45;&gt;Node3</title>
<path fill="none" stroke="#63b8ff" d="M829.17,-410.39C857.43,-403.6 896.51,-391.77 927,-373.25 975.63,-343.71 1020.27,-292.48 1041.68,-265.79"/>
<polygon fill="#63b8ff" stroke="#63b8ff" points="1044.82,-268.47 1048.26,-258.45 1039.32,-264.14 1044.82,-268.47"/>
</g>
<!-- Node27&#45;&gt;Node7 -->
<g id="edge50" class="edge">
<title>Node27&#45;&gt;Node7</title>
<path fill="none" stroke="#63b8ff" d="M829.35,-411.49C863.07,-404.83 913.46,-392.61 954,-373.25 1030.02,-336.94 1044.97,-318.64 1108,-262.75 1138.01,-236.14 1154.45,-233.63 1169,-196.25 1177.08,-175.49 1158.56,-155.22 1141.82,-141.98"/>
<polygon fill="#63b8ff" stroke="#63b8ff" points="1144.5,-138.86 1134.38,-135.73 1140.33,-144.49 1144.5,-138.86"/>
</g>
<!-- Node27&#45;&gt;Node15 -->
<g id="edge58" class="edge">
<title>Node27&#45;&gt;Node15</title>
<path fill="none" stroke="#63b8ff" d="M754.83,-417.73C638.95,-416.3 292,-404.09 292,-309.38 292,-309.38 292,-309.38 292,-185.62 292,-150.39 292,-109.33 292,-85.6"/>
<polygon fill="#63b8ff" stroke="#63b8ff" points="295.5,-85.89 292,-75.89 288.5,-85.89 295.5,-85.89"/>
</g>
<!-- Node28 -->
<g id="node28" class="node">
<title>Node28</title>
<g id="a_node28"><a xlink:href="v8-data_8h.html" target="_top" xlink:title=" ">
<polygon fill="white" stroke="#666666" points="804.88,-318 749.12,-318 749.12,-298.75 804.88,-298.75 804.88,-318"/>
<text text-anchor="middle" x="777" y="-304.5" font-family="Helvetica,sans-Serif" font-size="10.00">v8&#45;data.h</text>
</a>
</g>
</g>
<!-- Node27&#45;&gt;Node28 -->
<g id="edge47" class="edge">
<title>Node27&#45;&gt;Node28</title>
<path fill="none" stroke="#63b8ff" d="M790.77,-409C788.38,-391.67 783.03,-352.98 779.75,-329.24"/>
<polygon fill="#63b8ff" stroke="#63b8ff" points="783.08,-328.8 778.24,-319.38 776.15,-329.76 783.08,-328.8"/>
</g>
<!-- Node27&#45;&gt;Node29 -->
<g id="edge52" class="edge">
<title>Node27&#45;&gt;Node29</title>
<path fill="none" stroke="#63b8ff" d="M779.79,-408.84C769.07,-400.91 753.26,-389.22 740.59,-379.85"/>
<polygon fill="#63b8ff" stroke="#63b8ff" points="743.15,-376.66 733.03,-373.52 738.99,-382.29 743.15,-376.66"/>
</g>
<!-- Node28&#45;&gt;Node3 -->
<g id="edge48" class="edge">
<title>Node28&#45;&gt;Node3</title>
<path fill="none" stroke="#63b8ff" d="M805.19,-301.41C851.19,-291.66 943.14,-272.19 1001.74,-259.78"/>
<polygon fill="#63b8ff" stroke="#63b8ff" points="1002.22,-263.04 1011.27,-257.55 1000.77,-256.2 1002.22,-263.04"/>
</g>
<!-- Node28&#45;&gt;Node15 -->
<g id="edge49" class="edge">
<title>Node28&#45;&gt;Node15</title>
<path fill="none" stroke="#63b8ff" d="M769.88,-298.44C744.08,-266.75 651.58,-159.05 549,-110.5 478.07,-76.93 385.41,-68.36 332.94,-66.33"/>
<polygon fill="#63b8ff" stroke="#63b8ff" points="333.17,-62.8 323.06,-65.98 332.94,-69.8 333.17,-62.8"/>
</g>
<!-- Node29&#45;&gt;Node3 -->
<g id="edge55" class="edge">
<title>Node29&#45;&gt;Node3</title>
<path fill="none" stroke="#63b8ff" d="M720.02,-353.63C720.57,-339.61 723.82,-312.73 740,-298.75 759.32,-282.05 914.27,-263.34 999.42,-254.17"/>
<polygon fill="#63b8ff" stroke="#63b8ff" points="999.62,-257.56 1009.19,-253.02 998.88,-250.6 999.62,-257.56"/>
</g>
<!-- Node29&#45;&gt;Node7 -->
<g id="edge54" class="edge">
<title>Node29&#45;&gt;Node7</title>
<path fill="none" stroke="#63b8ff" d="M717.95,-353.5C715.52,-340.27 713.05,-315.49 724,-298.75 756.42,-249.2 906.26,-199.58 961,-177 998.41,-161.57 1042.39,-147.93 1074.44,-138.77"/>
<polygon fill="#63b8ff" stroke="#63b8ff" points="1075.15,-141.92 1083.82,-135.84 1073.25,-135.19 1075.15,-141.92"/>
</g>
<!-- Node29&#45;&gt;Node15 -->
<g id="edge57" class="edge">
<title>Node29&#45;&gt;Node15</title>
<path fill="none" stroke="#63b8ff" d="M689.63,-363.54C617.33,-364.09 432.88,-355.7 323,-262.75 295.75,-239.7 288.46,-230.37 278,-196.25 266.83,-159.81 272.23,-148.17 278,-110.5 279.31,-101.98 281.94,-92.85 284.57,-85.09"/>
<polygon fill="#63b8ff" stroke="#63b8ff" points="288.14,-86.51 288.27,-75.91 281.56,-84.11 288.14,-86.51"/>
</g>
<!-- Node29&#45;&gt;Node17 -->
<g id="edge56" class="edge">
<title>Node29&#45;&gt;Node17</title>
<path fill="none" stroke="#63b8ff" d="M703.38,-353.59C688.31,-345.41 665.86,-333.21 648.35,-323.69"/>
<polygon fill="#63b8ff" stroke="#63b8ff" points="650.16,-320.15 639.71,-318.45 646.82,-326.3 650.16,-320.15"/>
</g>
<!-- Node29&#45;&gt;Node28 -->
<g id="edge53" class="edge">
<title>Node29&#45;&gt;Node28</title>
<path fill="none" stroke="#63b8ff" d="M729.67,-353.59C737.83,-345.97 749.71,-334.87 759.52,-325.7"/>
<polygon fill="#63b8ff" stroke="#63b8ff" points="761.56,-328.66 766.47,-319.27 756.78,-323.54 761.56,-328.66"/>
</g>
<!-- Node30&#45;&gt;Node7 -->
<g id="edge61" class="edge">
<title>Node30&#45;&gt;Node7</title>
<path fill="none" stroke="#63b8ff" d="M220.94,-183.3C368.1,-174.03 912.42,-139.76 1073.69,-129.6"/>
<polygon fill="#63b8ff" stroke="#63b8ff" points="1073.87,-133.04 1083.63,-128.91 1073.43,-126.05 1073.87,-133.04"/>
</g>
<!-- Node30&#45;&gt;Node15 -->
<g id="edge62" class="edge">
<title>Node30&#45;&gt;Node15</title>
<path fill="none" stroke="#63b8ff" d="M178.72,-176.86C170.45,-161.86 156.77,-130.91 171,-110.5 188.97,-84.72 223.61,-73.79 251.24,-69.18"/>
<polygon fill="#63b8ff" stroke="#63b8ff" points="251.42,-72.55 260.82,-67.66 250.42,-65.62 251.42,-72.55"/>
</g>
<!-- Node31 -->
<g id="node31" class="node">
<title>Node31</title>
<g id="a_node31"><a xlink:title=" ">
<polygon fill="#e0e0e0" stroke="#999999" points="225.62,-135.38 180.38,-135.38 180.38,-116.12 225.62,-116.12 225.62,-135.38"/>
<text text-anchor="middle" x="203" y="-121.88" font-family="Helvetica,sans-Serif" font-size="10.00">cstdint</text>
</a>
</g>
</g>
<!-- Node30&#45;&gt;Node31 -->
<g id="edge60" class="edge">
<title>Node30&#45;&gt;Node31</title>
<path fill="none" stroke="#63b8ff" d="M186.89,-176.68C189.51,-168.56 193.47,-156.29 196.8,-145.95"/>
<polygon fill="#63b8ff" stroke="#63b8ff" points="200.35,-147.37 200.09,-136.78 193.69,-145.22 200.35,-147.37"/>
</g>
<!-- Node32&#45;&gt;Node2 -->
<g id="edge64" class="edge">
<title>Node32&#45;&gt;Node2</title>
<path fill="none" stroke="#63b8ff" d="M1229.05,-354.31C1312.65,-338.46 1476,-300.81 1476,-248.5 1476,-248.5 1476,-248.5 1476,-185.62 1476,-149.64 1466.27,-108.56 1459.75,-85.07"/>
<polygon fill="#63b8ff" stroke="#63b8ff" points="1462.92,-84.42 1456.79,-75.79 1456.19,-86.36 1462.92,-84.42"/>
</g>
<!-- Node32&#45;&gt;Node3 -->
<g id="edge72" class="edge">
<title>Node32&#45;&gt;Node3</title>
<path fill="none" stroke="#63b8ff" d="M1171.11,-353.67C1149.86,-334.42 1099.57,-288.87 1072.68,-264.52"/>
<polygon fill="#63b8ff" stroke="#63b8ff" points="1075.6,-262.53 1065.84,-258.41 1070.9,-267.72 1075.6,-262.53"/>
</g>
<!-- Node32&#45;&gt;Node4 -->
<g id="edge69" class="edge">
<title>Node32&#45;&gt;Node4</title>
<path fill="none" stroke="#63b8ff" d="M1161.63,-353.56C1127.89,-337.39 1056.68,-301.6 1002,-262.75 935.6,-215.57 923.48,-197.71 865,-141 845.19,-121.78 823.55,-98.54 809.44,-83.04"/>
<polygon fill="#63b8ff" stroke="#63b8ff" points="812.37,-80.97 803.06,-75.9 807.18,-85.67 812.37,-80.97"/>
</g>
<!-- Node32&#45;&gt;Node7 -->
<g id="edge71" class="edge">
<title>Node32&#45;&gt;Node7</title>
<path fill="none" stroke="#63b8ff" d="M1190.75,-353.85C1220.47,-326.03 1305.3,-238.11 1262,-177 1240.06,-146.04 1197.47,-134.01 1164.45,-129.42"/>
<polygon fill="#63b8ff" stroke="#63b8ff" points="1165,-125.84 1154.66,-128.12 1164.17,-132.79 1165,-125.84"/>
</g>
<!-- Node32&#45;&gt;Node8 -->
<g id="edge65" class="edge">
<title>Node32&#45;&gt;Node8</title>
<path fill="none" stroke="#63b8ff" d="M1198.43,-353.5C1212.64,-345.48 1232.65,-332.79 1247,-318 1267.25,-297.14 1272.02,-290.05 1282,-262.75 1304.57,-201.01 1308.5,-122.12 1309.03,-85.8"/>
<polygon fill="#63b8ff" stroke="#63b8ff" points="1312.54,-85.85 1309.11,-75.83 1305.54,-85.81 1312.54,-85.85"/>
</g>
<!-- Node32&#45;&gt;Node10 -->
<g id="edge67" class="edge">
<title>Node32&#45;&gt;Node10</title>
<path fill="none" stroke="#63b8ff" d="M1208.89,-353.58C1227.88,-346.32 1252.62,-334.59 1270,-318 1340.39,-250.81 1370.18,-131.78 1379.51,-85.26"/>
<polygon fill="#63b8ff" stroke="#63b8ff" points="1383.11,-86.1 1381.54,-75.62 1376.23,-84.79 1383.11,-86.1"/>
</g>
<!-- Node32&#45;&gt;Node13 -->
<g id="edge68" class="edge">
<title>Node32&#45;&gt;Node13</title>
<path fill="none" stroke="#63b8ff" d="M1204.69,-353.64C1223.46,-345.85 1249.81,-333.43 1270,-318 1385.4,-229.78 1436.14,-210.18 1488,-74.5 1491.05,-66.51 1493.5,-61.8 1488,-55.25 1460.75,-22.78 1334.48,-13.92 1271.26,-11.52"/>
<polygon fill="#63b8ff" stroke="#63b8ff" points="1271.7,-8 1261.59,-11.15 1271.46,-14.99 1271.7,-8"/>
</g>
<!-- Node32&#45;&gt;Node15 -->
<g id="edge74" class="edge">
<title>Node32&#45;&gt;Node15</title>
<path fill="none" stroke="#63b8ff" d="M1151.65,-353.57C1126.18,-345.35 1088.55,-332.36 1057,-318 1011.14,-297.12 1001.27,-288.57 958,-262.75 849.85,-198.2 837.92,-151.99 719,-110.5 648.32,-85.84 425.66,-72.4 333.04,-67.76"/>
<polygon fill="#63b8ff" stroke="#63b8ff" points="333.31,-64.22 323.15,-67.23 332.97,-71.21 333.31,-64.22"/>
</g>
<!-- Node32&#45;&gt;Node18 -->
<g id="edge70" class="edge">
<title>Node32&#45;&gt;Node18</title>
<path fill="none" stroke="#63b8ff" d="M1132.85,-358.57C1062.62,-352.07 935.99,-338 895,-318 807.72,-275.41 732.28,-182.6 703.47,-144.06"/>
<polygon fill="#63b8ff" stroke="#63b8ff" points="705.91,-142.48 697.17,-136.5 700.27,-146.63 705.91,-142.48"/>
</g>
<!-- Node32&#45;&gt;Node25 -->
<g id="edge73" class="edge">
<title>Node32&#45;&gt;Node25</title>
<path fill="none" stroke="#63b8ff" d="M1133.01,-359.91C1032.75,-354.06 793.46,-339.14 582,-318.15"/>
<polygon fill="#63b8ff" stroke="#63b8ff" points="582.62,-314.6 572.32,-317.08 581.92,-321.56 582.62,-314.6"/>
</g>
<!-- Node33 -->
<g id="node33" class="node">
<title>Node33</title>
<g id="a_node33"><a xlink:title=" ">
<polygon fill="#e0e0e0" stroke="#999999" points="1209.25,-318 1164.75,-318 1164.75,-298.75 1209.25,-298.75 1209.25,-318"/>
<text text-anchor="middle" x="1187" y="-304.5" font-family="Helvetica,sans-Serif" font-size="10.00">stdio.h</text>
</a>
</g>
</g>
<!-- Node32&#45;&gt;Node33 -->
<g id="edge66" class="edge">
<title>Node32&#45;&gt;Node33</title>
<path fill="none" stroke="#63b8ff" d="M1181.99,-353.83C1182.74,-347.17 1183.8,-337.74 1184.76,-329.28"/>
<polygon fill="#63b8ff" stroke="#63b8ff" points="1188.35,-329.69 1185.99,-319.36 1181.39,-328.9 1188.35,-329.69"/>
</g>
</g>
</svg>
