<?xml version="1.0" encoding="UTF-8" standalone="no"?>
<!DOCTYPE svg PUBLIC "-//W3C//DTD SVG 1.1//EN"
 "http://www.w3.org/Graphics/SVG/1.1/DTD/svg11.dtd">
<!-- Generated by graphviz version 8.0.5 (20230430.1635)
 -->
<!-- Title: include/v8&#45;platform.h Pages: 1 -->
<svg width="1462pt" height="548pt"
 viewBox="0.00 0.00 1462.05 548.00" xmlns="http://www.w3.org/2000/svg" xmlns:xlink="http://www.w3.org/1999/xlink">
<g id="graph0" class="graph" transform="scale(1 1) rotate(0) translate(4 544)">
<title>include/v8&#45;platform.h</title>
<!-- Node1 -->
<g id="node1" class="node">
<title>Node1</title>
<g id="a_node1"><a xlink:title=" ">
<polygon fill="#999999" stroke="#666666" points="530.05,-540 424.05,-540 424.05,-520.75 530.05,-520.75 530.05,-540"/>
<text text-anchor="middle" x="477.05" y="-526.5" font-family="Helvetica,sans-Serif" font-size="10.00">include/v8&#45;platform.h</text>
</a>
</g>
</g>
<!-- Node2 -->
<g id="node2" class="node">
<title>Node2</title>
<g id="a_node2"><a xlink:href="platform_8h.html" target="_top" xlink:title=" ">
<polygon fill="white" stroke="#666666" points="411.93,-479.12 290.18,-479.12 290.18,-459.88 411.93,-459.88 411.93,-479.12"/>
<text text-anchor="middle" x="351.05" y="-465.62" font-family="Helvetica,sans-Serif" font-size="10.00">include/cppgc/platform.h</text>
</a>
</g>
</g>
<!-- Node1&#45;&gt;Node2 -->
<g id="edge1" class="edge">
<title>Node1&#45;&gt;Node2</title>
<path fill="none" stroke="#63b8ff" d="M447.72,-515.67C423.86,-504.52 390.89,-489.12 370.28,-479.48"/>
<polygon fill="#63b8ff" stroke="#63b8ff" points="446.1,-519.24 456.64,-520.3 449.06,-512.9 446.1,-519.24"/>
</g>
<!-- Node9 -->
<g id="node9" class="node">
<title>Node9</title>
<g id="a_node9"><a xlink:href="v8-cppgc_8h.html" target="_top" xlink:title=" ">
<polygon fill="white" stroke="#666666" points="535.55,-91.38 438.55,-91.38 438.55,-72.12 535.55,-72.12 535.55,-91.38"/>
<text text-anchor="middle" x="487.05" y="-77.88" font-family="Helvetica,sans-Serif" font-size="10.00">include/v8&#45;cppgc.h</text>
</a>
</g>
</g>
<!-- Node1&#45;&gt;Node9 -->
<g id="edge49" class="edge">
<title>Node1&#45;&gt;Node9</title>
<path fill="none" stroke="#63b8ff" d="M502.22,-514.61C533.57,-494.11 583.05,-453.85 583.05,-404 583.05,-404 583.05,-404 583.05,-202.5 583.05,-151.34 529.05,-109.56 502.05,-91.87"/>
<polygon fill="#63b8ff" stroke="#63b8ff" points="500.74,-512.04 494.15,-520.33 504.48,-517.96 500.74,-512.04"/>
</g>
<!-- Node18 -->
<g id="node18" class="node">
<title>Node18</title>
<g id="a_node18"><a xlink:href="libplatform_8h.html" target="_top" xlink:title=" ">
<polygon fill="white" stroke="#666666" points="104.43,-418.25 9.68,-418.25 9.68,-387.75 104.43,-387.75 104.43,-418.25"/>
<text text-anchor="start" x="17.68" y="-404.75" font-family="Helvetica,sans-Serif" font-size="10.00">include/libplatform</text>
<text text-anchor="middle" x="57.05" y="-393.5" font-family="Helvetica,sans-Serif" font-size="10.00">/libplatform.h</text>
</a>
</g>
</g>
<!-- Node1&#45;&gt;Node18 -->
<g id="edge26" class="edge">
<title>Node1&#45;&gt;Node18</title>
<path fill="none" stroke="#63b8ff" d="M419.21,-518.14C379.93,-510.04 326.97,-498.2 281.05,-484.75 213.81,-465.05 137.41,-436.04 93.46,-418.68"/>
<polygon fill="#63b8ff" stroke="#63b8ff" points="418.41,-521.76 428.91,-520.33 419.81,-514.9 418.41,-521.76"/>
</g>
<!-- Node19 -->
<g id="node19" class="node">
<title>Node19</title>
<g id="a_node19"><a xlink:href="v8-tracing_8h.html" target="_top" xlink:title=" ">
<polygon fill="white" stroke="#666666" points="168.43,-484.75 73.68,-484.75 73.68,-454.25 168.43,-454.25 168.43,-484.75"/>
<text text-anchor="start" x="81.68" y="-471.25" font-family="Helvetica,sans-Serif" font-size="10.00">include/libplatform</text>
<text text-anchor="middle" x="121.05" y="-460" font-family="Helvetica,sans-Serif" font-size="10.00">/v8&#45;tracing.h</text>
</a>
</g>
</g>
<!-- Node1&#45;&gt;Node19 -->
<g id="edge28" class="edge">
<title>Node1&#45;&gt;Node19</title>
<path fill="none" stroke="#63b8ff" d="M413.28,-518.83C343.05,-507.21 231.76,-488.81 168.72,-478.38"/>
<polygon fill="#63b8ff" stroke="#63b8ff" points="412.32,-522.38 422.75,-520.56 413.46,-515.48 412.32,-522.38"/>
</g>
<!-- Node20 -->
<g id="node20" class="node">
<title>Node20</title>
<g id="a_node20"><a xlink:href="v8-array-buffer_8h.html" target="_top" xlink:title=" ">
<polygon fill="white" stroke="#666666" points="1194.43,-479.12 1075.68,-479.12 1075.68,-459.88 1194.43,-459.88 1194.43,-479.12"/>
<text text-anchor="middle" x="1135.05" y="-465.62" font-family="Helvetica,sans-Serif" font-size="10.00">include/v8&#45;array&#45;buffer.h</text>
</a>
</g>
</g>
<!-- Node1&#45;&gt;Node20 -->
<g id="edge30" class="edge">
<title>Node1&#45;&gt;Node20</title>
<path fill="none" stroke="#63b8ff" d="M541.07,-523.65C668.47,-512.25 952.07,-486.87 1075.62,-475.82"/>
<polygon fill="#63b8ff" stroke="#63b8ff" points="540.99,-520.23 531.34,-524.61 541.61,-527.2 540.99,-520.23"/>
</g>
<!-- Node23 -->
<g id="node23" class="node">
<title>Node23</title>
<g id="a_node23"><a xlink:href="v8-initialization_8h.html" target="_top" xlink:title=" ">
<polygon fill="white" stroke="#666666" points="732.55,-346.12 611.55,-346.12 611.55,-326.88 732.55,-326.88 732.55,-346.12"/>
<text text-anchor="middle" x="672.05" y="-332.62" font-family="Helvetica,sans-Serif" font-size="10.00">include/v8&#45;initialization.h</text>
</a>
</g>
</g>
<!-- Node1&#45;&gt;Node23 -->
<g id="edge50" class="edge">
<title>Node1&#45;&gt;Node23</title>
<path fill="none" stroke="#63b8ff" d="M534.96,-517.29C556.38,-510.54 579.65,-500.25 597.05,-484.75 641.82,-444.86 663.48,-371.96 669.92,-346.53"/>
<polygon fill="#63b8ff" stroke="#63b8ff" points="534.23,-514.15 525.63,-520.32 536.21,-520.86 534.23,-514.15"/>
</g>
<!-- Node3 -->
<g id="node3" class="node">
<title>Node3</title>
<g id="a_node3"><a xlink:href="default-platform_8h.html" target="_top" xlink:title=" ">
<polygon fill="white" stroke="#666666" points="149.18,-351.75 40.93,-351.75 40.93,-321.25 149.18,-321.25 149.18,-351.75"/>
<text text-anchor="start" x="48.93" y="-338.25" font-family="Helvetica,sans-Serif" font-size="10.00">include/cppgc/default</text>
<text text-anchor="middle" x="95.05" y="-327" font-family="Helvetica,sans-Serif" font-size="10.00">&#45;platform.h</text>
</a>
</g>
</g>
<!-- Node2&#45;&gt;Node3 -->
<g id="edge2" class="edge">
<title>Node2&#45;&gt;Node3</title>
<path fill="none" stroke="#63b8ff" d="M286.53,-457.38C236.79,-447.88 172.92,-433.39 151.05,-418.25 126.78,-401.46 109.74,-370.48 101.24,-352.16"/>
<polygon fill="#63b8ff" stroke="#63b8ff" points="285.75,-460.98 296.23,-459.39 287.05,-454.1 285.75,-460.98"/>
</g>
<!-- Node4 -->
<g id="node4" class="node">
<title>Node4</title>
<g id="a_node4"><a xlink:href="garbage-collected_8h.html" target="_top" xlink:title=" ">
<polygon fill="white" stroke="#666666" points="554.8,-218.75 441.3,-218.75 441.3,-188.25 554.8,-188.25 554.8,-218.75"/>
<text text-anchor="start" x="449.3" y="-205.25" font-family="Helvetica,sans-Serif" font-size="10.00">include/cppgc/garbage</text>
<text text-anchor="middle" x="498.05" y="-194" font-family="Helvetica,sans-Serif" font-size="10.00">&#45;collected.h</text>
</a>
</g>
</g>
<!-- Node2&#45;&gt;Node4 -->
<g id="edge3" class="edge">
<title>Node2&#45;&gt;Node4</title>
<path fill="none" stroke="#63b8ff" d="M400.41,-455.91C420.86,-448.26 443.03,-436.37 457.05,-418.25 504.59,-356.85 502.22,-256.29 499.44,-219"/>
<polygon fill="#63b8ff" stroke="#63b8ff" points="399.55,-452.85 391.24,-459.43 401.84,-459.47 399.55,-452.85"/>
</g>
<!-- Node10 -->
<g id="node10" class="node">
<title>Node10</title>
<g id="a_node10"><a xlink:href="heap_8h.html" target="_top" xlink:title=" ">
<polygon fill="white" stroke="#666666" points="137.8,-279.62 30.3,-279.62 30.3,-260.38 137.8,-260.38 137.8,-279.62"/>
<text text-anchor="middle" x="84.05" y="-266.12" font-family="Helvetica,sans-Serif" font-size="10.00">include/cppgc/heap.h</text>
</a>
</g>
</g>
<!-- Node2&#45;&gt;Node10 -->
<g id="edge10" class="edge">
<title>Node2&#45;&gt;Node10</title>
<path fill="none" stroke="#63b8ff" d="M340.67,-450.36C329.94,-432.76 311.86,-406.1 291.05,-387.75 232.41,-336.04 147.16,-296.91 106.83,-280.07"/>
<polygon fill="#63b8ff" stroke="#63b8ff" points="338,-451.72 346.11,-458.54 344.03,-448.15 338,-451.72"/>
</g>
<!-- Node13 -->
<g id="node13" class="node">
<title>Node13</title>
<g id="a_node13"><a xlink:href="caged-heap-local-data_8h.html" target="_top" xlink:title=" ">
<polygon fill="white" stroke="#666666" points="281.93,-418.25 160.18,-418.25 160.18,-387.75 281.93,-387.75 281.93,-418.25"/>
<text text-anchor="start" x="168.18" y="-404.75" font-family="Helvetica,sans-Serif" font-size="10.00">include/cppgc/internal</text>
<text text-anchor="middle" x="221.05" y="-393.5" font-family="Helvetica,sans-Serif" font-size="10.00">/caged&#45;heap&#45;local&#45;data.h</text>
</a>
</g>
</g>
<!-- Node2&#45;&gt;Node13 -->
<g id="edge14" class="edge">
<title>Node2&#45;&gt;Node13</title>
<path fill="none" stroke="#63b8ff" d="M322.89,-454.53C301.45,-443.89 272.03,-429.3 250.33,-418.53"/>
<polygon fill="#63b8ff" stroke="#63b8ff" points="321.19,-458.09 331.7,-459.4 324.3,-451.82 321.19,-458.09"/>
</g>
<!-- Node14 -->
<g id="node14" class="node">
<title>Node14</title>
<g id="a_node14"><a xlink:href="write-barrier_8h.html" target="_top" xlink:title=" ">
<polygon fill="white" stroke="#666666" points="448.3,-418.25 337.8,-418.25 337.8,-387.75 448.3,-387.75 448.3,-418.25"/>
<text text-anchor="start" x="345.8" y="-404.75" font-family="Helvetica,sans-Serif" font-size="10.00">include/cppgc/internal</text>
<text text-anchor="middle" x="393.05" y="-393.5" font-family="Helvetica,sans-Serif" font-size="10.00">/write&#45;barrier.h</text>
</a>
</g>
</g>
<!-- Node2&#45;&gt;Node14 -->
<g id="edge15" class="edge">
<title>Node2&#45;&gt;Node14</title>
<path fill="none" stroke="#63b8ff" d="M362.86,-450.37C369.45,-440.24 377.56,-427.79 383.71,-418.34"/>
<polygon fill="#63b8ff" stroke="#63b8ff" points="359.41,-448.24 356.89,-458.53 365.28,-452.06 359.41,-448.24"/>
</g>
<!-- Node5 -->
<g id="node5" class="node">
<title>Node5</title>
<g id="a_node5"><a xlink:href="visitor_8h.html" target="_top" xlink:title=" ">
<polygon fill="white" stroke="#666666" points="370.43,-152.25 257.68,-152.25 257.68,-133 370.43,-133 370.43,-152.25"/>
<text text-anchor="middle" x="314.05" y="-138.75" font-family="Helvetica,sans-Serif" font-size="10.00">include/cppgc/visitor.h</text>
</a>
</g>
</g>
<!-- Node4&#45;&gt;Node5 -->
<g id="edge4" class="edge">
<title>Node4&#45;&gt;Node5</title>
<path fill="none" stroke="#63b8ff" d="M441.72,-184.47C408.9,-173.97 368.92,-161.18 342.54,-152.74"/>
<polygon fill="#63b8ff" stroke="#63b8ff" points="440.5,-188.08 451.09,-187.8 442.64,-181.41 440.5,-188.08"/>
</g>
<!-- Node6 -->
<g id="node6" class="node">
<title>Node6</title>
<g id="a_node6"><a xlink:href="cross-thread-persistent_8h.html" target="_top" xlink:title=" ">
<polygon fill="white" stroke="#666666" points="146.55,-30.5 43.55,-30.5 43.55,0 146.55,0 146.55,-30.5"/>
<text text-anchor="start" x="51.55" y="-17" font-family="Helvetica,sans-Serif" font-size="10.00">include/cppgc/cross</text>
<text text-anchor="middle" x="95.05" y="-5.75" font-family="Helvetica,sans-Serif" font-size="10.00">&#45;thread&#45;persistent.h</text>
</a>
</g>
</g>
<!-- Node5&#45;&gt;Node6 -->
<g id="edge5" class="edge">
<title>Node5&#45;&gt;Node6</title>
<path fill="none" stroke="#63b8ff" d="M314.37,-121.95C313.55,-105 309.61,-81.03 295.05,-66.5 274.4,-45.88 198.97,-31.15 146.88,-23.16"/>
<polygon fill="#63b8ff" stroke="#63b8ff" points="310.88,-121.87 314.52,-131.82 317.88,-121.77 310.88,-121.87"/>
</g>
<!-- Node7 -->
<g id="node7" class="node">
<title>Node7</title>
<g id="a_node7"><a xlink:href="persistent_8h.html" target="_top" xlink:title=" ">
<polygon fill="white" stroke="#666666" points="159.68,-91.38 30.43,-91.38 30.43,-72.12 159.68,-72.12 159.68,-91.38"/>
<text text-anchor="middle" x="95.05" y="-77.88" font-family="Helvetica,sans-Serif" font-size="10.00">include/cppgc/persistent.h</text>
</a>
</g>
</g>
<!-- Node5&#45;&gt;Node7 -->
<g id="edge6" class="edge">
<title>Node5&#45;&gt;Node7</title>
<path fill="none" stroke="#63b8ff" d="M269.92,-129.76C228.26,-118.56 166.7,-102.01 128.83,-91.83"/>
<polygon fill="#63b8ff" stroke="#63b8ff" points="268.75,-133.34 279.31,-132.55 270.56,-126.58 268.75,-133.34"/>
</g>
<!-- Node8 -->
<g id="node8" class="node">
<title>Node8</title>
<g id="a_node8"><a xlink:href="tagged-member_8h.html" target="_top" xlink:title=" ">
<polygon fill="white" stroke="#666666" points="286.18,-97 177.93,-97 177.93,-66.5 286.18,-66.5 286.18,-97"/>
<text text-anchor="start" x="185.93" y="-83.5" font-family="Helvetica,sans-Serif" font-size="10.00">include/cppgc/tagged</text>
<text text-anchor="middle" x="232.05" y="-72.25" font-family="Helvetica,sans-Serif" font-size="10.00">&#45;member.h</text>
</a>
</g>
</g>
<!-- Node5&#45;&gt;Node8 -->
<g id="edge8" class="edge">
<title>Node5&#45;&gt;Node8</title>
<path fill="none" stroke="#63b8ff" d="M292.78,-126.35C280.29,-117.39 264.6,-106.12 252.29,-97.28"/>
<polygon fill="#63b8ff" stroke="#63b8ff" points="290.43,-129.69 300.6,-132.68 294.51,-124.01 290.43,-129.69"/>
</g>
<!-- Node5&#45;&gt;Node9 -->
<g id="edge9" class="edge">
<title>Node5&#45;&gt;Node9</title>
<path fill="none" stroke="#63b8ff" d="M350.82,-129.11C383.67,-117.93 431.02,-101.82 460.37,-91.83"/>
<polygon fill="#63b8ff" stroke="#63b8ff" points="350.04,-126.02 341.7,-132.55 352.3,-132.65 350.04,-126.02"/>
</g>
<!-- Node7&#45;&gt;Node6 -->
<g id="edge7" class="edge">
<title>Node7&#45;&gt;Node6</title>
<path fill="none" stroke="#63b8ff" d="M95.05,-61.02C95.05,-51.2 95.05,-39.55 95.05,-30.59"/>
<polygon fill="#63b8ff" stroke="#63b8ff" points="91.55,-60.78 95.05,-70.78 98.55,-60.78 91.55,-60.78"/>
</g>
<!-- Node11 -->
<g id="node11" class="node">
<title>Node11</title>
<g id="a_node11"><a xlink:href="liveness-broker_8h.html" target="_top" xlink:title=" ">
<polygon fill="white" stroke="#666666" points="190.55,-218.75 75.55,-218.75 75.55,-188.25 190.55,-188.25 190.55,-218.75"/>
<text text-anchor="start" x="83.55" y="-205.25" font-family="Helvetica,sans-Serif" font-size="10.00">include/cppgc/liveness</text>
<text text-anchor="middle" x="133.05" y="-194" font-family="Helvetica,sans-Serif" font-size="10.00">&#45;broker.h</text>
</a>
</g>
</g>
<!-- Node10&#45;&gt;Node11 -->
<g id="edge11" class="edge">
<title>Node10&#45;&gt;Node11</title>
<path fill="none" stroke="#63b8ff" d="M97.35,-251.5C105.13,-241.26 114.83,-228.49 122.15,-218.84"/>
<polygon fill="#63b8ff" stroke="#63b8ff" points="94.13,-248.95 90.86,-259.03 99.7,-253.19 94.13,-248.95"/>
</g>
<!-- Node11&#45;&gt;Node5 -->
<g id="edge13" class="edge">
<title>Node11&#45;&gt;Node5</title>
<path fill="none" stroke="#63b8ff" d="M188.47,-184.47C220.75,-173.97 260.08,-161.18 286.03,-152.74"/>
<polygon fill="#63b8ff" stroke="#63b8ff" points="187.68,-181.37 179.26,-187.8 189.85,-188.03 187.68,-181.37"/>
</g>
<!-- Node12 -->
<g id="node12" class="node">
<title>Node12</title>
<g id="a_node12"><a xlink:href="prefinalizer_8h.html" target="_top" xlink:title=" ">
<polygon fill="white" stroke="#666666" points="202.18,-152.25 69.93,-152.25 69.93,-133 202.18,-133 202.18,-152.25"/>
<text text-anchor="middle" x="136.05" y="-138.75" font-family="Helvetica,sans-Serif" font-size="10.00">include/cppgc/prefinalizer.h</text>
</a>
</g>
</g>
<!-- Node11&#45;&gt;Node12 -->
<g id="edge12" class="edge">
<title>Node11&#45;&gt;Node12</title>
<path fill="none" stroke="#63b8ff" d="M134.35,-177.07C134.79,-168.39 135.26,-159.23 135.59,-152.7"/>
<polygon fill="#63b8ff" stroke="#63b8ff" points="130.81,-176.78 133.79,-186.95 137.8,-177.14 130.81,-176.78"/>
</g>
<!-- Node15 -->
<g id="node15" class="node">
<title>Node15</title>
<g id="a_node15"><a xlink:href="heap-consistency_8h.html" target="_top" xlink:title=" ">
<polygon fill="white" stroke="#666666" points="385.05,-218.75 285.05,-218.75 285.05,-188.25 385.05,-188.25 385.05,-218.75"/>
<text text-anchor="start" x="293.05" y="-205.25" font-family="Helvetica,sans-Serif" font-size="10.00">include/cppgc/heap</text>
<text text-anchor="middle" x="335.05" y="-194" font-family="Helvetica,sans-Serif" font-size="10.00">&#45;consistency.h</text>
</a>
</g>
</g>
<!-- Node14&#45;&gt;Node15 -->
<g id="edge16" class="edge">
<title>Node14&#45;&gt;Node15</title>
<path fill="none" stroke="#63b8ff" d="M417.86,-379.89C425.16,-371.84 432.21,-362.14 436.05,-351.75 440.75,-339.03 440.78,-333.95 436.05,-321.25 419.68,-277.3 378.49,-238.88 354.07,-218.97"/>
<polygon fill="#63b8ff" stroke="#63b8ff" points="415.77,-377.04 411.29,-386.64 420.78,-381.93 415.77,-377.04"/>
</g>
<!-- Node16 -->
<g id="node16" class="node">
<title>Node16</title>
<g id="a_node16"><a xlink:href="pointer-policies_8h.html" target="_top" xlink:title=" ">
<polygon fill="white" stroke="#666666" points="427.3,-351.75 316.8,-351.75 316.8,-321.25 427.3,-321.25 427.3,-351.75"/>
<text text-anchor="start" x="324.8" y="-338.25" font-family="Helvetica,sans-Serif" font-size="10.00">include/cppgc/internal</text>
<text text-anchor="middle" x="372.05" y="-327" font-family="Helvetica,sans-Serif" font-size="10.00">/pointer&#45;policies.h</text>
</a>
</g>
</g>
<!-- Node14&#45;&gt;Node16 -->
<g id="edge17" class="edge">
<title>Node14&#45;&gt;Node16</title>
<path fill="none" stroke="#63b8ff" d="M384.88,-376.91C382.14,-368.5 379.18,-359.41 376.8,-352.08"/>
<polygon fill="#63b8ff" stroke="#63b8ff" points="381.86,-377.94 388.29,-386.36 388.52,-375.77 381.86,-377.94"/>
</g>
<!-- Node16&#45;&gt;Node5 -->
<g id="edge25" class="edge">
<title>Node16&#45;&gt;Node5</title>
<path fill="none" stroke="#63b8ff" d="M384.72,-311.07C398.76,-280.28 416.65,-226.73 394.05,-188.25 383.66,-170.56 363.43,-159.37 345.91,-152.61"/>
<polygon fill="#63b8ff" stroke="#63b8ff" points="381.15,-309.42 379.98,-319.95 387.46,-312.45 381.15,-309.42"/>
</g>
<!-- Node16&#45;&gt;Node6 -->
<g id="edge18" class="edge">
<title>Node16&#45;&gt;Node6</title>
<path fill="none" stroke="#63b8ff" d="M305.8,-330.03C209.93,-321.53 41.69,-304.13 21.05,-285.25 -6.15,-260.36 2.05,-241.37 2.05,-204.5 2.05,-204.5 2.05,-204.5 2.05,-141.62 2.05,-107.18 1.29,-94.71 21.05,-66.5 31.74,-51.24 48.67,-39.24 63.64,-30.8"/>
<polygon fill="#63b8ff" stroke="#63b8ff" points="305.28,-333.59 315.55,-330.98 305.89,-326.62 305.28,-333.59"/>
</g>
<!-- Node16&#45;&gt;Node7 -->
<g id="edge24" class="edge">
<title>Node16&#45;&gt;Node7</title>
<path fill="none" stroke="#63b8ff" d="M306.13,-324.07C269.77,-316.19 224.54,-303.75 187.05,-285.25 167,-275.36 166.28,-266.15 147.05,-254.75 113.16,-234.67 88.74,-250.95 66.05,-218.75 44.06,-187.54 49.86,-169.5 61.05,-133 65.99,-116.89 78.04,-101.29 86.38,-91.85"/>
<polygon fill="#63b8ff" stroke="#63b8ff" points="305.12,-327.64 315.62,-326.27 306.55,-320.79 305.12,-327.64"/>
</g>
<!-- Node17 -->
<g id="node17" class="node">
<title>Node17</title>
<g id="a_node17"><a xlink:href="member_8h.html" target="_top" xlink:title=" ">
<polygon fill="white" stroke="#666666" points="317.93,-279.62 196.18,-279.62 196.18,-260.38 317.93,-260.38 317.93,-279.62"/>
<text text-anchor="middle" x="257.05" y="-266.12" font-family="Helvetica,sans-Serif" font-size="10.00">include/cppgc/member.h</text>
</a>
</g>
</g>
<!-- Node16&#45;&gt;Node17 -->
<g id="edge19" class="edge">
<title>Node16&#45;&gt;Node17</title>
<path fill="none" stroke="#63b8ff" d="M336.6,-315.61C315.39,-303.72 289.48,-289.19 273.11,-280.01"/>
<polygon fill="#63b8ff" stroke="#63b8ff" points="334.52,-319.02 344.96,-320.86 337.95,-312.92 334.52,-319.02"/>
</g>
<!-- Node17&#45;&gt;Node5 -->
<g id="edge23" class="edge">
<title>Node17&#45;&gt;Node5</title>
<path fill="none" stroke="#63b8ff" d="M259.05,-249.28C261.37,-232.36 266.22,-207.69 276.05,-188.25 283.12,-174.27 295.44,-160.96 304.13,-152.57"/>
<polygon fill="#63b8ff" stroke="#63b8ff" points="255.48,-248.71 257.77,-259.05 262.43,-249.53 255.48,-248.71"/>
</g>
<!-- Node17&#45;&gt;Node8 -->
<g id="edge22" class="edge">
<title>Node17&#45;&gt;Node8</title>
<path fill="none" stroke="#63b8ff" d="M254.43,-249.49C249.39,-211.94 238.45,-130.42 234,-97.24"/>
<polygon fill="#63b8ff" stroke="#63b8ff" points="251.05,-249.57 255.84,-259.02 257.98,-248.64 251.05,-249.57"/>
</g>
<!-- Node17&#45;&gt;Node11 -->
<g id="edge21" class="edge">
<title>Node17&#45;&gt;Node11</title>
<path fill="none" stroke="#63b8ff" d="M229.91,-254.88C209.48,-244.26 181.59,-229.75 160.98,-219.03"/>
<polygon fill="#63b8ff" stroke="#63b8ff" points="228.06,-258.39 238.55,-259.9 231.29,-252.18 228.06,-258.39"/>
</g>
<!-- Node17&#45;&gt;Node15 -->
<g id="edge20" class="edge">
<title>Node17&#45;&gt;Node15</title>
<path fill="none" stroke="#63b8ff" d="M276.28,-253.1C288.86,-242.7 305.16,-229.22 317.41,-219.09"/>
<polygon fill="#63b8ff" stroke="#63b8ff" points="274.37,-250.96 268.9,-260.03 278.83,-256.36 274.37,-250.96"/>
</g>
<!-- Node18&#45;&gt;Node3 -->
<g id="edge27" class="edge">
<title>Node18&#45;&gt;Node3</title>
<path fill="none" stroke="#63b8ff" d="M71.17,-378.04C76.3,-369.32 81.95,-359.74 86.46,-352.08"/>
<polygon fill="#63b8ff" stroke="#63b8ff" points="67.73,-375.97 65.67,-386.36 73.77,-379.52 67.73,-375.97"/>
</g>
<!-- Node19&#45;&gt;Node18 -->
<g id="edge29" class="edge">
<title>Node19&#45;&gt;Node18</title>
<path fill="none" stroke="#63b8ff" d="M98.94,-446.21C89.86,-437.07 79.61,-426.73 71.52,-418.58"/>
<polygon fill="#63b8ff" stroke="#63b8ff" points="96,-448.23 105.53,-452.86 100.97,-443.3 96,-448.23"/>
</g>
<!-- Node21 -->
<g id="node21" class="node">
<title>Node21</title>
<g id="a_node21"><a xlink:href="v8-isolate_8h.html" target="_top" xlink:title=" ">
<polygon fill="white" stroke="#666666" points="1018.68,-412.62 919.43,-412.62 919.43,-393.38 1018.68,-393.38 1018.68,-412.62"/>
<text text-anchor="middle" x="969.05" y="-399.12" font-family="Helvetica,sans-Serif" font-size="10.00">include/v8&#45;isolate.h</text>
</a>
</g>
</g>
<!-- Node20&#45;&gt;Node21 -->
<g id="edge31" class="edge">
<title>Node20&#45;&gt;Node21</title>
<path fill="none" stroke="#63b8ff" d="M1101.7,-455.54C1069.27,-442.94 1020.86,-424.13 992.36,-413.06"/>
<polygon fill="#63b8ff" stroke="#63b8ff" points="1100.03,-459.04 1110.62,-459.4 1102.57,-452.51 1100.03,-459.04"/>
</g>
<!-- Node24 -->
<g id="node24" class="node">
<title>Node24</title>
<g id="a_node24"><a xlink:href="v8_8h.html" target="_top" xlink:title=" ">
<polygon fill="white" stroke="#666666" points="893.93,-152.25 826.18,-152.25 826.18,-133 893.93,-133 893.93,-152.25"/>
<text text-anchor="middle" x="860.05" y="-138.75" font-family="Helvetica,sans-Serif" font-size="10.00">include/v8.h</text>
</a>
</g>
</g>
<!-- Node20&#45;&gt;Node24 -->
<g id="edge48" class="edge">
<title>Node20&#45;&gt;Node24</title>
<path fill="none" stroke="#63b8ff" d="M1205.36,-463.65C1253.96,-457.92 1318.84,-445.45 1370.05,-418.25 1415.79,-393.96 1454.05,-389.29 1454.05,-337.5 1454.05,-337.5 1454.05,-337.5 1454.05,-269 1454.05,-153.72 1020.34,-143.91 894.12,-143.49"/>
<polygon fill="#63b8ff" stroke="#63b8ff" points="1205.18,-460.26 1195.62,-464.83 1205.95,-467.21 1205.18,-460.26"/>
</g>
<!-- Node31 -->
<g id="node31" class="node">
<title>Node31</title>
<g id="a_node31"><a xlink:href="v8-typed-array_8h.html" target="_top" xlink:title=" ">
<polygon fill="white" stroke="#666666" points="1361.05,-412.62 1243.05,-412.62 1243.05,-393.38 1361.05,-393.38 1361.05,-412.62"/>
<text text-anchor="middle" x="1302.05" y="-399.12" font-family="Helvetica,sans-Serif" font-size="10.00">include/v8&#45;typed&#45;array.h</text>
</a>
</g>
</g>
<!-- Node20&#45;&gt;Node31 -->
<g id="edge45" class="edge">
<title>Node20&#45;&gt;Node31</title>
<path fill="none" stroke="#63b8ff" d="M1168.6,-455.54C1201.23,-442.94 1249.93,-424.13 1278.6,-413.06"/>
<polygon fill="#63b8ff" stroke="#63b8ff" points="1167.69,-452.53 1159.62,-459.4 1170.21,-459.06 1167.69,-452.53"/>
</g>
<!-- Node22 -->
<g id="node22" class="node">
<title>Node22</title>
<g id="a_node22"><a xlink:href="v8-external-memory-accounter_8h.html" target="_top" xlink:title=" ">
<polygon fill="white" stroke="#666666" points="1145.43,-351.75 1038.68,-351.75 1038.68,-321.25 1145.43,-321.25 1145.43,-351.75"/>
<text text-anchor="start" x="1046.68" y="-338.25" font-family="Helvetica,sans-Serif" font-size="10.00">include/v8&#45;external</text>
<text text-anchor="middle" x="1092.05" y="-327" font-family="Helvetica,sans-Serif" font-size="10.00">&#45;memory&#45;accounter.h</text>
</a>
</g>
</g>
<!-- Node21&#45;&gt;Node22 -->
<g id="edge32" class="edge">
<title>Node21&#45;&gt;Node22</title>
<path fill="none" stroke="#63b8ff" d="M995.98,-387.88C1016.23,-377.26 1043.91,-362.75 1064.35,-352.03"/>
<polygon fill="#63b8ff" stroke="#63b8ff" points="994.64,-385.15 987.41,-392.9 997.89,-391.35 994.64,-385.15"/>
</g>
<!-- Node21&#45;&gt;Node23 -->
<g id="edge33" class="edge">
<title>Node21&#45;&gt;Node23</title>
<path fill="none" stroke="#63b8ff" d="M916.39,-390.56C858.54,-378 766.83,-358.08 713.76,-346.56"/>
<polygon fill="#63b8ff" stroke="#63b8ff" points="915.61,-394.19 926.13,-392.9 917.1,-387.35 915.61,-394.19"/>
</g>
<!-- Node21&#45;&gt;Node24 -->
<g id="edge44" class="edge">
<title>Node21&#45;&gt;Node24</title>
<path fill="none" stroke="#63b8ff" d="M908.16,-393.91C859.07,-386 795.73,-372.14 780.05,-351.75 729.09,-285.46 821.08,-182.87 851.07,-152.43"/>
<polygon fill="#63b8ff" stroke="#63b8ff" points="907.6,-397.53 918.02,-395.61 908.68,-390.61 907.6,-397.53"/>
</g>
<!-- Node25 -->
<g id="node25" class="node">
<title>Node25</title>
<g id="a_node25"><a xlink:href="v8-inspector_8h.html" target="_top" xlink:title=" ">
<polygon fill="white" stroke="#666666" points="1274.3,-346.12 1163.8,-346.12 1163.8,-326.88 1274.3,-326.88 1274.3,-346.12"/>
<text text-anchor="middle" x="1219.05" y="-332.62" font-family="Helvetica,sans-Serif" font-size="10.00">include/v8&#45;inspector.h</text>
</a>
</g>
</g>
<!-- Node21&#45;&gt;Node25 -->
<g id="edge35" class="edge">
<title>Node21&#45;&gt;Node25</title>
<path fill="none" stroke="#63b8ff" d="M1014.91,-390.17C1063.67,-377.59 1139.73,-357.96 1183.94,-346.56"/>
<polygon fill="#63b8ff" stroke="#63b8ff" points="1014.15,-387.01 1005.34,-392.9 1015.9,-393.79 1014.15,-387.01"/>
</g>
<!-- Node27 -->
<g id="node27" class="node">
<title>Node27</title>
<g id="a_node27"><a xlink:href="v8-metrics_8h.html" target="_top" xlink:title=" ">
<polygon fill="white" stroke="#666666" points="1020.55,-346.12 917.55,-346.12 917.55,-326.88 1020.55,-326.88 1020.55,-346.12"/>
<text text-anchor="middle" x="969.05" y="-332.62" font-family="Helvetica,sans-Serif" font-size="10.00">include/v8&#45;metrics.h</text>
</a>
</g>
</g>
<!-- Node21&#45;&gt;Node27 -->
<g id="edge37" class="edge">
<title>Node21&#45;&gt;Node27</title>
<path fill="none" stroke="#63b8ff" d="M969.05,-382.27C969.05,-370.3 969.05,-355.6 969.05,-346.39"/>
<polygon fill="#63b8ff" stroke="#63b8ff" points="965.55,-382.03 969.05,-392.03 972.55,-382.03 965.55,-382.03"/>
</g>
<!-- Node28 -->
<g id="node28" class="node">
<title>Node28</title>
<g id="a_node28"><a xlink:href="v8-snapshot_8h.html" target="_top" xlink:title=" ">
<polygon fill="white" stroke="#666666" points="899.3,-346.12 788.8,-346.12 788.8,-326.88 899.3,-326.88 899.3,-346.12"/>
<text text-anchor="middle" x="844.05" y="-332.62" font-family="Helvetica,sans-Serif" font-size="10.00">include/v8&#45;snapshot.h</text>
</a>
</g>
</g>
<!-- Node21&#45;&gt;Node28 -->
<g id="edge38" class="edge">
<title>Node21&#45;&gt;Node28</title>
<path fill="none" stroke="#63b8ff" d="M941.68,-387.88C917.32,-375.31 882.41,-357.29 861.61,-346.56"/>
<polygon fill="#63b8ff" stroke="#63b8ff" points="939.91,-391.42 950.41,-392.9 943.12,-385.2 939.91,-391.42"/>
</g>
<!-- Node23&#45;&gt;Node24 -->
<g id="edge34" class="edge">
<title>Node23&#45;&gt;Node24</title>
<path fill="none" stroke="#63b8ff" d="M677.05,-316.21C686.03,-285.17 707.71,-224.02 747.05,-188.25 769.13,-168.17 801.33,-156.66 825.71,-150.37"/>
<polygon fill="#63b8ff" stroke="#63b8ff" points="673.49,-314.94 674.22,-325.51 680.24,-316.79 673.49,-314.94"/>
</g>
<!-- Node26 -->
<g id="node26" class="node">
<title>Node26</title>
<g id="a_node26"><a xlink:href="v8-inspector-protocol_8h.html" target="_top" xlink:title=" ">
<polygon fill="white" stroke="#666666" points="1270.55,-285.25 1167.55,-285.25 1167.55,-254.75 1270.55,-254.75 1270.55,-285.25"/>
<text text-anchor="start" x="1175.55" y="-271.75" font-family="Helvetica,sans-Serif" font-size="10.00">include/v8&#45;inspector</text>
<text text-anchor="middle" x="1219.05" y="-260.5" font-family="Helvetica,sans-Serif" font-size="10.00">&#45;protocol.h</text>
</a>
</g>
</g>
<!-- Node25&#45;&gt;Node26 -->
<g id="edge36" class="edge">
<title>Node25&#45;&gt;Node26</title>
<path fill="none" stroke="#63b8ff" d="M1219.05,-315.77C1219.05,-305.95 1219.05,-294.3 1219.05,-285.34"/>
<polygon fill="#63b8ff" stroke="#63b8ff" points="1215.55,-315.53 1219.05,-325.53 1222.55,-315.53 1215.55,-315.53"/>
</g>
<!-- Node28&#45;&gt;Node24 -->
<g id="edge43" class="edge">
<title>Node28&#45;&gt;Node24</title>
<path fill="none" stroke="#63b8ff" d="M842.6,-315.8C841.99,-306.54 841.35,-295.33 841.05,-285.25 840.65,-271.7 839.9,-268.26 841.05,-254.75 844.31,-216.33 853.81,-171.24 858.01,-152.49"/>
<polygon fill="#63b8ff" stroke="#63b8ff" points="839.17,-315.88 843.36,-325.61 846.15,-315.39 839.17,-315.88"/>
</g>
<!-- Node29 -->
<g id="node29" class="node">
<title>Node29</title>
<g id="a_node29"><a xlink:href="v8-context_8h.html" target="_top" xlink:title=" ">
<polygon fill="white" stroke="#666666" points="952.18,-279.62 849.93,-279.62 849.93,-260.38 952.18,-260.38 952.18,-279.62"/>
<text text-anchor="middle" x="901.05" y="-266.12" font-family="Helvetica,sans-Serif" font-size="10.00">include/v8&#45;context.h</text>
</a>
</g>
</g>
<!-- Node28&#45;&gt;Node29 -->
<g id="edge39" class="edge">
<title>Node28&#45;&gt;Node29</title>
<path fill="none" stroke="#63b8ff" d="M859.21,-318.34C870.14,-305.97 884.46,-289.78 893.19,-279.89"/>
<polygon fill="#63b8ff" stroke="#63b8ff" points="856.98,-315.72 852.98,-325.53 862.22,-320.36 856.98,-315.72"/>
</g>
<!-- Node29&#45;&gt;Node24 -->
<g id="edge42" class="edge">
<title>Node29&#45;&gt;Node24</title>
<path fill="none" stroke="#63b8ff" d="M891.93,-250.17C887.64,-240.86 882.69,-229.37 879.05,-218.75 871.02,-195.33 864.72,-166.77 861.81,-152.55"/>
<polygon fill="#63b8ff" stroke="#63b8ff" points="889.09,-251.37 896.53,-258.92 895.42,-248.38 889.09,-251.37"/>
</g>
<!-- Node30 -->
<g id="node30" class="node">
<title>Node30</title>
<g id="a_node30"><a xlink:href="v8-proxy_8h.html" target="_top" xlink:title=" ">
<polygon fill="white" stroke="#666666" points="981.68,-213.12 888.43,-213.12 888.43,-193.88 981.68,-193.88 981.68,-213.12"/>
<text text-anchor="middle" x="935.05" y="-199.62" font-family="Helvetica,sans-Serif" font-size="10.00">include/v8&#45;proxy.h</text>
</a>
</g>
</g>
<!-- Node29&#45;&gt;Node30 -->
<g id="edge40" class="edge">
<title>Node29&#45;&gt;Node30</title>
<path fill="none" stroke="#63b8ff" d="M910.86,-250.39C917.27,-238.23 925.36,-222.89 930.36,-213.39"/>
<polygon fill="#63b8ff" stroke="#63b8ff" points="907.35,-248.55 905.78,-259.03 913.54,-251.82 907.35,-248.55"/>
</g>
<!-- Node30&#45;&gt;Node24 -->
<g id="edge41" class="edge">
<title>Node30&#45;&gt;Node24</title>
<path fill="none" stroke="#63b8ff" d="M915.23,-186.94C901.3,-176.01 883.15,-161.76 871.55,-152.65"/>
<polygon fill="#63b8ff" stroke="#63b8ff" points="912.63,-190.14 922.66,-193.56 916.96,-184.63 912.63,-190.14"/>
</g>
<!-- Node31&#45;&gt;Node24 -->
<g id="edge47" class="edge">
<title>Node31&#45;&gt;Node24</title>
<path fill="none" stroke="#63b8ff" d="M1305.3,-382.28C1309.25,-351.09 1311.86,-290.28 1280.05,-254.75 1227.92,-196.52 984.92,-159.74 894.27,-147.84"/>
<polygon fill="#63b8ff" stroke="#63b8ff" points="1301.72,-381.6 1303.74,-392 1308.65,-382.61 1301.72,-381.6"/>
</g>
<!-- Node32 -->
<g id="node32" class="node">
<title>Node32</title>
<g id="a_node32"><a xlink:href="v8-fast-api-calls_8h.html" target="_top" xlink:title=" ">
<polygon fill="white" stroke="#666666" points="1425.8,-351.75 1330.3,-351.75 1330.3,-321.25 1425.8,-321.25 1425.8,-351.75"/>
<text text-anchor="start" x="1338.3" y="-338.25" font-family="Helvetica,sans-Serif" font-size="10.00">include/v8&#45;fast&#45;api</text>
<text text-anchor="middle" x="1378.05" y="-327" font-family="Helvetica,sans-Serif" font-size="10.00">&#45;calls.h</text>
</a>
</g>
</g>
<!-- Node31&#45;&gt;Node32 -->
<g id="edge46" class="edge">
<title>Node31&#45;&gt;Node32</title>
<path fill="none" stroke="#63b8ff" d="M1320.79,-386.1C1333.04,-375.7 1348.93,-362.22 1360.86,-352.09"/>
<polygon fill="#63b8ff" stroke="#63b8ff" points="1318.98,-383.89 1313.62,-393.03 1323.51,-389.23 1318.98,-383.89"/>
</g>
</g>
</svg>
